<svg width="1200" height="1600" viewBox="0 0 1200 1600" fill="none" xmlns="http://www.w3.org/2000/svg">
<path d="M588.145 1095.92C651.928 1095.92 703.635 1071.43 703.635 1041.21C703.635 1011 651.928 986.508 588.145 986.508C524.361 986.508 472.654 1011 472.654 1041.21C472.654 1071.43 524.361 1095.92 588.145 1095.92Z" fill="#35383E"/>
<path d="M417.707 747.925C386 810 360 974 386 991" stroke="#EBBAAA" stroke-width="74" stroke-linecap="round" stroke-linejoin="bevel"/>
<path d="M753.722 723.188C799.074 803.584 815.491 952.648 799 998" stroke="#EBBAAA" stroke-width="74" stroke-linecap="round" stroke-linejoin="bevel"/>
<path d="M673.326 1250.92V1418.92" stroke="#DCE1E9" stroke-width="54" stroke-linecap="round" stroke-linejoin="bevel"/>
<path d="M537.271 1250.92L554 1404" stroke="#DCE1E9" stroke-width="54" stroke-linecap="round" stroke-linejoin="bevel"/>
<path d="M528.815 1386.37C525.267 1380.9 520.002 1380.63 515.737 1377.49C513.644 1380.47 513.801 1384.84 511.907 1390.68L499.592 1405.88L478.184 1428.82L457.78 1439.88L470.086 1454.08C478.328 1447.65 525.102 1397.85 528.815 1386.37Z" fill="#3B3937"/>
<path d="M601.131 1461.52C601.131 1461.52 601.592 1436.65 596.181 1422.93C590.771 1409.2 585.01 1373.74 585.01 1373.74C585.01 1373.74 575.713 1383.88 558.235 1384.04L525.297 1384.32C525.297 1384.32 496.62 1424.36 488.192 1429.73C479.764 1435.1 432.025 1445.52 432.025 1445.52C422.957 1445.6 415.67 1453.01 415.749 1462.08L415.822 1470.43L515.393 1469.57L601.131 1461.52Z" fill="#1C1B19"/>
<path d="M514.487 1406C516.953 1402.14 521.981 1393.83 522.36 1391.43C545.393 1395.23 576.388 1394.46 587.844 1389.36C590.922 1398.33 592.5 1410.5 592.5 1410.5C590.535 1414.52 568.487 1422.43 560 1424C555.47 1420.54 552.107 1419.67 548.59 1417.7C543.071 1414.61 524.659 1406.58 514.487 1406Z" fill="#D0271C"/>
<path d="M565 1442C568.5 1440 588.544 1432.58 597.5 1427.5C601.928 1430.66 601.371 1449.74 601.467 1460.74L557.486 1463.13C559.913 1454.77 563.834 1443.17 565 1442Z" fill="#D0271C"/>
<path d="M537.908 1437.75C533.201 1439.3 529.342 1439.32 527.075 1437.78C521.231 1433.77 524.484 1427.01 525.874 1424.36C523.293 1427.65 520.73 1430.96 518.781 1434.52C515.705 1440.08 514.59 1446.07 517.054 1449.74C521.475 1456.36 531.072 1452.7 537.15 1449.62L593.556 1421.06L537.908 1437.75Z" fill="#D0271C"/>
<path d="M457.355 1448.5C444.869 1450.11 428.874 1450.75 425.839 1446.77L446.286 1440.6L473.193 1429.86L480.223 1433.3L479.25 1436.31L494.332 1445.68L487.911 1454.73L487.811 1454.69C482.883 1452.53 469.965 1446.87 457.355 1448.5Z" fill="#D0271C"/>
<path d="M516.684 1394.6L511.369 1392.53" stroke="#1C1B19" stroke-width="6.35587" stroke-linecap="round"/>
<path d="M508.763 1403.67L503.447 1401.59" stroke="#1C1B19" stroke-width="6.35587" stroke-linecap="round"/>
<path d="M501.842 1412.73L496.526 1410.66" stroke="#1C1B19" stroke-width="6.35587" stroke-linecap="round"/>
<path d="M493.92 1421.8L488.605 1419.72" stroke="#1C1B19" stroke-width="6.35587" stroke-linecap="round"/>
<path d="M481.999 1430.9L476.684 1428.83" stroke="#1C1B19" stroke-width="6.35587" stroke-linecap="round"/>
<path d="M602.335 1460.48L508.626 1465.54L415.374 1462.11L414.01 1474.32C413.596 1478.02 416.442 1481.28 420.166 1481.37L506.84 1483.56L555.219 1483.67L603.579 1481.66L602.335 1460.48Z" fill="#D0CEC1"/>
<path d="M603.142 1480.73C588.245 1481.36 550.827 1483.18 534.509 1483.33C522.802 1483.43 424.648 1482.29 414.623 1479.37" stroke="#D0271C" stroke-width="6"/>
<path d="M698.82 1385.37C702.368 1379.9 707.634 1379.63 711.899 1376.49C713.991 1379.47 713.835 1383.84 715.729 1389.68L728.044 1404.88L749.452 1427.82L769.856 1438.88L757.55 1453.08C749.308 1446.65 702.534 1396.85 698.82 1385.37Z" fill="#3B3937"/>
<path d="M626.505 1460.52C626.505 1460.52 626.044 1435.65 631.454 1421.93C636.865 1408.2 642.625 1372.74 642.625 1372.74C642.625 1372.74 651.923 1382.88 669.401 1383.04L702.338 1383.32C702.338 1383.32 731.015 1423.36 739.443 1428.73C747.872 1434.1 795.611 1444.52 795.611 1444.52C804.679 1444.6 811.966 1452.01 811.887 1461.08L811.814 1469.44L712.242 1468.57L626.505 1460.52Z" fill="#1C1B19"/>
<path d="M713.149 1405C710.683 1401.14 705.655 1392.83 705.276 1390.43C682.242 1394.23 651.248 1393.46 639.792 1388.36C636.713 1397.33 635.135 1409.5 635.135 1409.5C637.101 1413.52 659.149 1421.43 667.635 1423C672.166 1419.54 675.529 1418.67 679.046 1416.7C684.564 1413.61 702.977 1405.58 713.149 1405Z" fill="#D0271C"/>
<path d="M662.636 1441C659.136 1439 639.092 1431.58 630.136 1426.5C625.708 1429.66 626.265 1448.74 626.169 1459.74L670.15 1462.13C667.722 1453.77 663.802 1442.17 662.636 1441Z" fill="#D0271C"/>
<path d="M689.727 1436.75C694.435 1438.3 698.293 1438.32 700.561 1436.79C706.405 1432.77 703.152 1426.01 701.761 1423.36C704.343 1426.65 706.906 1429.96 708.855 1433.52C711.931 1439.08 713.046 1445.07 710.582 1448.74C706.161 1455.36 696.564 1451.7 690.486 1448.62L634.079 1420.06L689.727 1436.75Z" fill="#D0271C"/>
<path d="M770.28 1447.5C782.767 1449.11 798.762 1449.75 801.797 1445.77L781.35 1439.6L754.443 1428.86L747.412 1432.3L748.386 1435.31L733.304 1444.68L739.725 1453.73L739.825 1453.69C744.753 1451.53 757.671 1445.87 770.28 1447.5Z" fill="#D0271C"/>
<path d="M710.952 1393.6L716.267 1391.53" stroke="#1C1B19" stroke-width="6.35587" stroke-linecap="round"/>
<path d="M718.873 1402.67L724.188 1400.59" stroke="#1C1B19" stroke-width="6.35587" stroke-linecap="round"/>
<path d="M725.794 1411.73L731.109 1409.66" stroke="#1C1B19" stroke-width="6.35587" stroke-linecap="round"/>
<path d="M733.715 1420.8L739.031 1418.73" stroke="#1C1B19" stroke-width="6.35587" stroke-linecap="round"/>
<path d="M745.636 1429.9L750.952 1427.83" stroke="#1C1B19" stroke-width="6.35587" stroke-linecap="round"/>
<path d="M625.301 1459.48L719.009 1464.54L812.262 1461.11L813.626 1473.32C814.039 1477.02 811.194 1480.28 807.469 1480.37L720.796 1482.56L672.417 1482.67L624.057 1480.66L625.301 1459.48Z" fill="#D0CEC1"/>
<path d="M624.494 1479.73C639.39 1480.36 676.809 1482.18 693.126 1482.33C704.834 1482.43 802.987 1481.29 813.013 1478.37" stroke="#D0271C" stroke-width="6"/>
<path d="M464 980H599L594 1339.79L586 1368L509.5 1364L497.886 1333.3L464 980Z" fill="#35383E"/>
<path d="M597.714 986.021H733.172L728 1332L717 1361L639 1374.42L631.739 1340L597.714 986.021Z" fill="#35383E"/>
<path d="M506 1356H588V1380H510.743L506 1356Z" fill="#1D1F23"/>
<path d="M636 1356H718L714 1378H639.743L636 1356Z" fill="#1D1F23"/>
<rect x="382.663" y="698.534" width="109.872" height="16.687" transform="rotate(18 382.663 698.534)" fill="#F1EDED"/>
<rect x="808.742" y="735.022" width="109.872" height="16.687" transform="rotate(162 808.742 735.022)" fill="#F1EDED"/>
<path d="M466.553 652.116C467.388 617.7 494.939 589.912 529.345 588.788L609.669 586.16C616.214 585.954 622.769 586.294 629.253 587.191L707.66 598.034C742.251 602.816 766.864 634.088 763.38 668.834L748.548 816.722L755.99 1028.6C756.062 1030.41 669.814 1028.69 668 1028.6H529.345L450.536 1016.7C448.794 1016.61 447.464 1015.09 447.608 1013.35L463.007 798.303L466.553 652.116Z" fill="#A6612E"/>
<path d="M597.114 675.774C636.962 675.774 669.264 643.471 669.264 603.624C669.264 563.776 636.962 531.473 597.114 531.473C557.266 531.473 524.963 563.776 524.963 603.624C524.963 643.471 557.266 675.774 597.114 675.774Z" fill="#9A4E16"/>
<rect x="557.946" y="526.319" width="78.3349" height="118.533" rx="37.911" fill="#EBBAAA"/>
<path d="M742.267 459.533C774.999 459.533 801.533 432.999 801.533 400.267C801.533 367.535 774.999 341 742.267 341C709.535 341 683 367.535 683 400.267C683 432.999 709.535 459.533 742.267 459.533Z" fill="#EBBAAA"/>
<path d="M463.267 462.533C430.535 462.533 404 435.999 404 403.267C404 370.535 430.535 344 463.267 344C495.999 344 522.533 370.535 522.533 403.267C522.533 435.999 495.999 462.533 463.267 462.533Z" fill="#EBBAAA"/>
<path d="M445 289.311C445 205.192 513.192 137 597.311 137C682.353 137 750.921 206.638 749.605 291.67L747.268 442.518C746.01 523.782 679.774 589 598.5 589C519.632 589 454.46 527.47 449.931 448.732L445 363V289.311Z" fill="#F4D4C9"/>
<path d="M573 499C591 509 612 508 634 499" stroke="#C99584" stroke-width="15.3993" stroke-linecap="round"/>
<path d="M601.117 222.896C524.915 222.896 463.429 222.896 459.39 278.431C453.372 361.164 438.984 367.819 428.076 329.452C426.413 323.604 414.914 284.494 414.676 278.431C418.994 160.551 556.898 118.154 604.411 118.154C643.351 149.84 677.328 222.896 601.117 222.896Z" fill="#272727"/>
<path d="M437.362 278.26C437.099 270.194 442.247 263.485 448.69 263.485C455.375 263.485 460.608 270.681 459.976 279.011L449.301 420.126C449.122 422.486 447.542 424.278 445.658 424.278C443.689 424.278 442.078 422.341 441.994 419.889L437.362 278.26Z" fill="#272727"/>
<path d="M756.866 277.597C757.13 269.893 751.981 263.485 745.538 263.485C738.853 263.485 733.62 270.359 734.252 278.314L744.927 413.098C745.106 415.351 746.686 417.063 748.57 417.063C750.539 417.063 752.15 415.212 752.234 412.871L756.866 277.597Z" fill="#272727"/>
<path d="M596.468 222.896C674.991 222.896 730.962 230.626 734.2 287.192C742.229 331.554 767.183 398.51 785.736 266.578C781.296 148.698 642.496 118.154 593.536 118.154C553.41 149.84 517.937 222.896 596.468 222.896Z" fill="#272727"/>
<path d="M478.083 153.433L464.151 178.315L598.669 171.058L747.599 201.642V187.128L737.03 182.462V171.058H723.578V153.433H706.283L702.44 139.955H687.066L677.938 126.478L662.084 130.625L657.28 122.331H640.946V113L618.847 122.331L613.081 113L603.473 122.331L593.865 113L575.609 122.331L564.079 113L551.588 122.331H542.94L533.332 130.625L529.488 122.331L513.154 139.955L502.585 135.808L488.652 156.025L478.083 153.433Z" fill="#272727"/>
<path d="M661.573 364.916V393.663" stroke="black" stroke-width="24" stroke-linecap="round"/>
<path d="M532.653 364.916V393.663" stroke="black" stroke-width="24" stroke-linecap="round"/>
<path d="M646.39 314.657L703.596 318.154" stroke="#393939" stroke-width="24" stroke-linecap="round"/>
<path d="M555.817 315.874L498.583 318.871" stroke="#393939" stroke-width="24" stroke-linecap="round"/>
<path d="M597.114 407C586.891 425.038 583.784 448.229 603.298 448.229" stroke="#EBBAAA" stroke-width="17"/>
<path d="M449 330V250.017L541 209V264.373L512.378 301.288V284.881L489.889 301.288L477.622 284.881L449 330Z" fill="#272727"/>
<path d="M743 336V243.231L651 202V257.662L660.2 306.108L676.556 289.615L694.956 306.108L719.489 289.615L743 336Z" fill="#272727"/>
<path d="M534.542 309.453L521.151 275.263L516 202H687L639.614 318L629.313 298.463L617.982 309.453L603.56 288.695L594.289 309.453L578.837 298.463L559.265 309.453L553.084 298.463L534.542 309.453Z" fill="#272727"/>
<path d="M696 152.911C700.912 153.253 713.895 153.424 716 137" stroke="#272727" stroke-width="9" stroke-linecap="round"/>
<path d="M443 183C449.5 178.865 461 167.279 475 183" stroke="#272727" stroke-width="9" stroke-linecap="round"/>
<path d="M710 174C716.703 170.382 728.562 160.244 743 174" stroke="#272727" stroke-width="9" stroke-linecap="round"/>
<path d="M416.431 312C405.799 293.47 416.431 278.029 426 277" stroke="#272727" stroke-width="9" stroke-linecap="round"/>
<rect x="417.144" y="581" width="147.712" height="359.643" rx="73.856" transform="rotate(16.5 417.144 581)" fill="#D1D6DF"/>
<path d="M332.201 983C325.801 964.6 330 876 338 846L446.201 865C434 903 432 953 423 1002L422.847 1002.01C401.701 1003.01 340.182 1005.94 332.201 983Z" fill="#D1D6DF"/>
<path d="M359 844L431.5 866L352.5 858.5L359 844Z" fill="#BAC1CF"/>
<path d="M377 873L433 870L384.5 885.5L377 873Z" fill="#BAC1CF"/>
<circle cx="404.5" cy="985.5" r="7.5" fill="#9CA8BB"/>
<rect width="157.985" height="388.308" rx="78.9925" transform="matrix(-0.945519 0.325568 0.325568 0.945519 758.378 573)" fill="#D1D6DF"/>
<path d="M583 847C582.206 779.844 586 695.652 586 663.5C579 663.5 572 662.5 567 659.5C567.27 633.657 569.098 607.155 558.115 583L472.591 599.472C459.269 617.805 435.831 672.579 432.07 777.497C428.308 882.415 435.988 985.438 432.07 1032.68C448.527 1037.44 540.926 1053.3 595 1036.38C595 968.692 584.176 946.418 583 847Z" fill="#D6DCE7"/>
<path d="M529 1020C506.6 1021.6 455 1006 432 998V1032C445 1042 478.722 1045.14 497 1048C529 1053 557 1048 597 1042L595 1011.5C581 1014.5 551.4 1018.4 529 1020Z" fill="#C4CAD3"/>
<path d="M860 985C866.4 966.6 868 902 860 872L746 867C758.201 905 760.201 955 769.201 1004L769.354 1004.01C790.5 1005.01 852.019 1007.94 860 985Z" fill="#D1D6DF"/>
<path d="M826.5 833L754 855L833 847.5L826.5 833Z" fill="#BAC1CF"/>
<path d="M813 865L757 862L805.5 877.5L813 865Z" fill="#BAC1CF"/>
<circle r="7.5" transform="matrix(-1 0 0 1 787.701 987.5)" fill="#9CA8BB"/>
<path d="M612 849.5C612.747 784.517 611 693.112 611 662C616.5 662 622.45 662.5 630 660C633.583 633.4 643.264 603.882 653.381 581L711.424 590.36C725.863 592.688 738.624 601.003 742.349 615.146C750.65 646.66 756.738 705.681 759.438 783.125C762.978 884.648 768.313 989.012 772 1034.72C743.241 1038.82 668.882 1051.1 618 1034.72C618 969.226 610.894 945.701 612 849.5Z" fill="#D6DCE7"/>
<path d="M583 804C557.4 829.6 461.667 892.667 431 904V1002L498 1017C498 1017 495.623 988.159 510 963C534 921 545 893 583 865V804Z" fill="#43519A"/>
<path d="M742 616.5C730 664.5 642 762 612 783V858C699 755 728 727 754.5 707C754.5 690.5 749.5 630.5 742 616.5Z" fill="#43519A"/>
<path d="M530 625.5C525 614.5 514.333 598.5 511 589.5C508 591.833 480.5 593 452 598.5C418.602 604.945 408 627 401 639C394 651 372 719.5 368.5 747C375.5 752 406.5 738.5 420 724.5C428.78 715.395 438.5 687.5 460 669.5C473.823 657.927 535.395 637.37 530 625.5Z" fill="#43519A"/>
<path d="M514.237 556C508.237 570 506.57 579.667 508.237 593C508.237 614.372 549.479 645.642 567.145 660.07C574.237 632 574.237 581.07 568.145 581.07C554.729 581.07 529.237 569 514.237 556Z" fill="#C4CAD3"/>
<path d="M682.859 556C688.859 569 690.526 579.667 688.859 593C688.859 614.372 646.618 646.642 628.951 661.07C621.859 633 622.859 581.07 628.951 581.07C642.367 581.07 667.859 569 682.859 556Z" fill="#C4CAD3"/>
<rect x="618.83" y="719.502" width="19" height="7" rx="3.5" transform="rotate(-3 618.83 719.502)" fill="#EAF0FA"/>
<rect x="619" y="795" width="19" height="7" rx="3.5" transform="rotate(-3 619 795)" fill="#EAF0FA"/>
<path d="M685 1015C707.4 1016.6 751 1014.5 770 999L772 1034C752 1039 724.5 1043 717 1043C684.612 1043 657 1044 617 1038V1008.5C631 1011.5 662.6 1013.4 685 1015Z" fill="#C4CAD3"/>
<rect x="619" y="868.994" width="19" height="7" rx="3.5" transform="rotate(-3 619 868.994)" fill="#EAF0FA"/>
<rect x="621" y="939.994" width="19" height="7" rx="3.5" transform="rotate(-3 621 939.994)" fill="#EAF0FA"/>
<circle cx="567.5" cy="722.5" r="7.5" fill="#9CA8BB"/>
<rect x="625.549" y="1021.6" width="19" height="7" rx="3.5" transform="rotate(5.5 625.549 1021.6)" fill="#9CA8BB"/>
<circle cx="565.5" cy="795.5" r="7.5" fill="#9CA8BB"/>
<circle cx="566.5" cy="873.5" r="7.5" fill="#9CA8BB"/>
<circle cx="572.5" cy="945.5" r="7.5" fill="#9CA8BB"/>
<circle cx="581.5" cy="1026.5" r="7.5" fill="#9CA8BB"/>
<path d="M453 870H471L476 956L457 958L453 870Z" fill="#EAF0FA"/>
<path d="M741 872H723L718 958L737 960L741 872Z" fill="#EAF0FA"/>
</svg>
