<svg width="1200" height="1600" viewBox="0 0 1200 1600" fill="none" xmlns="http://www.w3.org/2000/svg">
<path d="M586.145 1095.92C649.928 1095.92 701.635 1071.43 701.635 1041.21C701.635 1011 649.928 986.508 586.145 986.508C522.361 986.508 470.655 1011 470.655 1041.21C470.655 1071.43 522.361 1095.92 586.145 1095.92Z" fill="#002774"/>
<path d="M436.707 747.925C405 810 379 974 405 991" stroke="#EBBAAA" stroke-width="74" stroke-linecap="round" stroke-linejoin="bevel"/>
<path d="M751.722 723.188C797.074 803.584 813.491 952.648 797 998" stroke="#EBBAAA" stroke-width="74" stroke-linecap="round" stroke-linejoin="bevel"/>
<path d="M665 1249.5L680 1418" stroke="#EBBAAA" stroke-width="54" stroke-linecap="round" stroke-linejoin="bevel"/>
<path d="M544 1249V1404" stroke="#EBBAAA" stroke-width="54" stroke-linecap="round" stroke-linejoin="bevel"/>
<path d="M462 980H597L587 1333.5L584 1368L507.5 1364L502 1333.5L462 980Z" fill="#002774"/>
<path d="M526 1023.5C524.167 1035 514.6 1060.3 491 1069.5" stroke="#0036A2" stroke-width="5" stroke-linecap="round"/>
<path d="M595.714 986.021H731.172L716.5 1330L715 1361L636.5 1367.5L632 1339L595.714 986.021Z" fill="#002774"/>
<path d="M673.5 1016C673.167 1029.17 680.5 1058.4 712.5 1070" stroke="#0036A2" stroke-width="5" stroke-linecap="round"/>
<path d="M434 656.5C434 633 485.5 609.016 521.5 597.61L568.5 582.016C575.045 581.81 620.017 583.68 626.5 584.576L699.5 609.016C734.091 613.798 787.484 628.754 784 663.5L746.548 816.299L750 1013C750.072 1014.81 667.314 1025.09 665.5 1025L528 1016.28L453.5 1012.93C451.758 1012.84 450.856 1007.74 451 1006L461.008 797.88L434 656.5Z" fill="#EBBAAA"/>
<path d="M775.5 632.5C766.3 623.3 736 614 722 610.5C730.833 728.5 749.3 967.5 752.5 979.5C756.5 994.5 844 1000.5 852 994.5C860 988.5 869 932 867 901C865 870 787 644 775.5 632.5Z" fill="#DAE2F3"/>
<path d="M851.5 996C855.9 995.2 866 966.667 869.5 955.5L746.5 936C745 946.167 742.2 968.2 743 975C744 983.5 767 991 792 995C817 999 846 997 851.5 996Z" fill="#E5EBF9"/>
<path d="M430.918 634.983C439.53 625.79 467.894 616.497 481 613C472.731 730.909 455.444 969.723 452.449 981.714C448.704 996.703 366.795 1002.7 359.306 996.703C351.817 990.707 343.392 934.251 345.264 903.275C347.137 872.299 420.153 646.474 430.918 634.983Z" fill="#DAE2F3"/>
<path d="M357.625 997.616C353.316 996.821 343.427 968.47 340 957.375L460.435 938C461.904 948.102 464.645 969.994 463.862 976.75C462.883 985.196 440.362 992.648 415.884 996.622C391.405 1000.6 363.01 998.61 357.625 997.616Z" fill="#E5EBF9"/>
<rect x="558.447" y="526" width="78.3349" height="118.533" rx="37.911" fill="#EBBAAA"/>
<path d="M555 587.181L558.5 584.681L610.5 601.181L635 585.681L644.5 589.681L654.5 621.181L596 634.181L549 618.181L555 587.181Z" fill="#EBBAAA"/>
<path d="M740.267 459.533C772.999 459.533 799.533 432.999 799.533 400.267C799.533 367.535 772.999 341 740.267 341C707.535 341 681 367.535 681 400.267C681 432.999 707.535 459.533 740.267 459.533Z" fill="#EBBAAA"/>
<path d="M461.266 462.533C428.534 462.533 402 435.999 402 403.267C402 370.535 428.534 344 461.266 344C493.998 344 520.533 370.535 520.533 403.267C520.533 435.999 493.998 462.533 461.266 462.533Z" fill="#EBBAAA"/>
<path d="M443 289.311C443 205.192 511.192 137 595.311 137C680.353 137 748.921 206.638 747.605 291.67L745.268 442.518C744.01 523.782 677.774 589 596.5 589C517.632 589 452.46 527.47 447.931 448.732L443 363V289.311Z" fill="#F4D4C9"/>
<path d="M571 499C589 509 610 508 632 499" stroke="#C99584" stroke-width="15.3993" stroke-linecap="round"/>
<path d="M435.01 273.383C434.743 267.715 439.965 263 446.5 263C453.281 263 458.588 268.057 457.948 273.911L447.119 373.082C446.938 374.74 445.336 376 443.425 376C441.428 376 439.794 374.638 439.708 372.916L435.01 273.383Z" fill="#272727"/>
<path d="M758.898 273.495C759.451 267.87 754.552 262.915 748.117 262.584C741.441 262.24 735.956 267.001 736.286 272.856L741.863 372.052C741.956 373.71 743.469 375.045 745.351 375.142C747.317 375.243 748.996 373.972 749.168 372.262L758.898 273.495Z" fill="#272727"/>
<path d="M659.5 376V394" stroke="black" stroke-width="24" stroke-linecap="round"/>
<path d="M530.5 376V394" stroke="black" stroke-width="24" stroke-linecap="round"/>
<path d="M644.39 314.657L701.596 318.154" stroke="#393939" stroke-width="24" stroke-linecap="round"/>
<path d="M553.817 315.874L496.583 318.871" stroke="#393939" stroke-width="24" stroke-linecap="round"/>
<path d="M595.114 407C584.891 425.038 581.784 448.229 601.298 448.229" stroke="#EBBAAA" stroke-width="17"/>
<path d="M586 673C581 658.5 583.5 638.5 583.5 638.5L561 646L534 593.5C502.833 599 501.5 601 479 611C452.159 622.929 457.5 663 453.5 717.5L448 1016L522 1027.5L571.5 1028L593.5 689.5C593.5 689.5 591 687.5 586 673Z" fill="#E5EBF9"/>
<path d="M755 204.5C743.4 179.7 713.833 168.833 701.5 164.5L660 183C685 171.855 705.6 192.3 722 221.5C738.4 250.7 742.833 312.333 744 338.5C744 338.5 751.5 342.75 754.5 342.5C757.5 342.25 765 345.5 765 345.5C765.5 310.833 766.6 229.3 755 204.5Z" fill="#1E1E1E"/>
<path d="M429 240C444.5 144.5 507.5 135.5 538.5 126L462.5 236L446 338.5C436.5 325.167 420.989 289.36 429 240Z" fill="#181818"/>
<path d="M615 216C647.8 216 689.5 191.167 698.5 176.5L631.5 143L527 149L513 241C542 208.5 582.2 216 615 216Z" fill="#181818"/>
<path d="M557 111C662 92.0003 694.5 129.978 700.5 145.478C706.5 160.978 705.75 163.978 697.5 174.978C685.5 190.978 629 169.478 583 177.478C537 185.478 531 235.978 498.5 258.978C472.5 277.378 446.667 281.645 437 281.478C443.5 261.478 458.1 216.578 464.5 196.978C472.5 172.478 501.036 121.126 557 111Z" fill="#393939"/>
<path d="M717 157.5L718.556 153.277L717 157.5ZM742.661 161.129C744.665 159.659 745.099 156.843 743.629 154.839C742.159 152.834 739.343 152.401 737.339 153.871L742.661 161.129ZM702.165 168.204C702.263 167.966 702.708 167.189 703.68 166.126C704.598 165.123 705.798 164.071 707.164 163.202C709.963 161.422 712.836 160.761 715.444 161.722L718.556 153.277C712.33 150.983 706.452 152.989 702.335 155.607C700.243 156.937 698.443 158.517 697.038 160.053C695.688 161.53 694.487 163.202 693.835 164.797L702.165 168.204ZM715.444 161.722C720.052 163.42 724.554 165.062 728.94 165.364C733.691 165.692 738.108 164.468 742.661 161.129L737.339 153.871C734.392 156.032 732.059 156.558 729.56 156.385C726.696 156.188 723.448 155.08 718.556 153.277L715.444 161.722Z" fill="#272727"/>
<path d="M612.597 373.152C609.317 360.892 618.137 348.716 630.809 348.013L701.478 344.091C714.15 343.387 724.263 354.512 722.36 367.059L718.223 394.33C716.803 403.692 709.012 410.775 699.558 411.3L640.155 414.597C630.701 415.122 622.174 408.945 619.726 399.798L612.597 373.152Z" fill="white" fill-opacity="0.29"/>
<path d="M610.183 383.067C610.806 385.757 613.492 387.432 616.182 386.809C618.872 386.186 620.548 383.5 619.925 380.81L610.183 383.067ZM612.42 370.567L617.291 369.438L617.25 369.261L617.196 369.087L612.42 370.567ZM626.371 351.264L626.094 346.271L625.868 346.284L625.643 346.317L626.371 351.264ZM704.751 346.913L705.095 341.925L704.784 341.904L704.473 341.921L704.751 346.913ZM721.113 362.03L726.095 362.461L726.099 362.418L726.102 362.374L721.113 362.03ZM714.911 375.687C714.673 378.438 716.71 380.862 719.461 381.1C722.212 381.339 724.635 379.302 724.874 376.551L714.911 375.687ZM619.925 380.81L617.291 369.438L607.549 371.695L610.183 383.067L619.925 380.81ZM617.196 369.087C617.198 369.094 617.177 369.026 617.153 368.879C617.13 368.737 617.108 368.545 617.097 368.307C617.075 367.829 617.1 367.212 617.228 366.503C617.48 365.106 618.129 363.347 619.616 361.533L611.881 355.194C606.621 361.613 606.569 368.579 607.644 372.046L617.196 369.087ZM619.616 361.533C621.275 359.508 623.006 358.181 624.438 357.348C625.156 356.93 625.787 356.644 626.28 356.459C626.525 356.367 626.726 356.304 626.876 356.263C627.032 356.221 627.106 356.21 627.099 356.211L625.643 346.317C622.511 346.778 616.744 349.26 611.881 355.194L619.616 361.533ZM626.648 356.256L705.028 351.906L704.473 341.921L626.094 346.271L626.648 356.256ZM704.406 351.901C705.254 351.96 706.982 352.254 708.818 352.972C710.67 353.695 712.232 354.69 713.218 355.899L720.967 349.578C718.514 346.571 715.246 344.746 712.456 343.657C709.652 342.562 706.928 342.052 705.095 341.925L704.406 351.901ZM713.218 355.899C714.579 357.568 715.328 359.06 715.723 360.158C716.154 361.352 716.11 361.907 716.125 361.685L726.102 362.374C726.3 359.506 725.027 354.555 720.967 349.578L713.218 355.899ZM716.132 361.598L714.911 375.687L724.874 376.551L726.095 362.461L716.132 361.598Z" fill="black"/>
<path d="M477.867 366.106C476.184 353.527 486.492 342.582 499.15 343.508L569.739 348.672C582.396 349.598 591.001 361.927 587.506 374.127L579.909 400.643C577.301 409.746 568.667 415.773 559.224 415.082L499.888 410.741C490.444 410.05 482.779 402.831 481.524 393.445L477.867 366.106Z" fill="white" fill-opacity="0.29"/>
<path d="M474.202 375.63C474.476 378.378 476.925 380.383 479.673 380.11C482.421 379.837 484.427 377.388 484.153 374.64L474.202 375.63ZM478.022 363.519L482.998 363.024L482.98 362.843L482.949 362.664L478.022 363.519ZM494.332 346.163L494.697 341.176L494.471 341.16L494.244 341.164L494.332 346.163ZM572.623 351.891L573.603 346.988L573.298 346.927L572.988 346.904L572.623 351.891ZM586.914 368.979L591.799 370.045L591.808 370.003L591.817 369.96L586.914 368.979ZM579.013 381.729C578.424 384.427 580.134 387.092 582.832 387.681C585.529 388.27 588.194 386.56 588.783 383.862L579.013 381.729ZM484.153 374.64L482.998 363.024L473.047 364.014L474.202 375.63L484.153 374.64ZM482.949 362.664C482.95 362.671 482.938 362.601 482.933 362.452C482.928 362.308 482.931 362.115 482.95 361.877C482.99 361.4 483.094 360.793 483.312 360.106C483.741 358.752 484.61 357.09 486.317 355.482L479.458 348.205C473.419 353.897 472.475 360.799 473.096 364.375L482.949 362.664ZM486.317 355.482C488.221 353.687 490.108 352.592 491.635 351.949C492.401 351.627 493.063 351.424 493.576 351.304C493.831 351.244 494.038 351.207 494.193 351.186C494.352 351.164 494.427 351.162 494.42 351.162L494.244 341.164C491.078 341.22 485.041 342.942 479.458 348.205L486.317 355.482ZM493.967 351.15L572.258 356.877L572.988 346.904L494.697 341.176L493.967 351.15ZM571.642 356.794C572.476 356.96 574.151 357.474 575.881 358.42C577.624 359.375 579.046 360.562 579.869 361.887L588.364 356.611C586.317 353.314 583.309 351.086 580.682 349.648C578.041 348.203 575.405 347.348 573.603 346.988L571.642 356.794ZM579.869 361.887C581.005 363.717 581.556 365.292 581.808 366.432C582.082 367.672 581.968 368.217 582.011 367.999L591.817 369.96C592.381 367.14 591.753 362.067 588.364 356.611L579.869 361.887ZM582.029 367.913L579.013 381.729L588.783 383.862L591.799 370.045L582.029 367.913Z" fill="black"/>
<path d="M586.5 371.5C590.833 369.167 602 365.9 612 371.5" stroke="black" stroke-width="10"/>
<path d="M605 672.5C592 662 594.167 653.667 596.5 645.5L601 642.5L634 638.5L665 596.5C665 596.5 709.5 602.5 724.5 610.5C739.5 618.5 748.5 706 748.5 706L755.5 1017.5L717.5 1028H571C569.667 923.333 576.035 697.864 589 691C606 682 608 674.923 605 672.5Z" fill="#DAE2F3"/>
<path d="M638 610.5C641.439 599.124 638 591 637 586L665 596.5C665 596.5 674.5 608.5 668.5 636C661.927 666.127 632.857 678 626 686C623 689.5 624 647 601 642.5C611.5 640 631.5 632 638 610.5Z" fill="#E5EBF9"/>
<path d="M558.052 616.5C551 606.5 554.658 592.474 558.052 585L533.5 593.5C533.5 593.5 519.382 617.808 527.014 641.301C536.5 670.5 570.294 681.051 570 677.5C567 641.301 578.989 642.65 584 638C575.5 636 567.424 629.789 558.052 616.5Z" fill="#DAE2F3"/>
<circle cx="635" cy="667" r="5" fill="#DAE2F3"/>
<circle cx="558" cy="662" r="5" fill="#E5EBF9"/>
<circle cx="598.5" cy="709.5" r="7.5" fill="#EDF2FF"/>
<circle cx="843.5" cy="979.5" r="7.5" fill="#DAE2F3"/>
<circle cx="369.5" cy="979.5" r="7.5" fill="#DAE2F3"/>
<ellipse cx="592.5" cy="781" rx="7.5" ry="8" fill="#EDF2FF"/>
<circle cx="588.5" cy="852.5" r="7.5" fill="#EDF2FF"/>
<circle cx="588.5" cy="923.5" r="7.5" fill="#EDF2FF"/>
<circle cx="588.5" cy="986.5" r="7.5" fill="#EDF2FF"/>
<path d="M707 1350L646 1355" stroke="#0036A1" stroke-width="5" stroke-linecap="round" stroke-dasharray="8 8"/>
<path d="M575 1355L515 1352" stroke="#0036A1" stroke-width="5" stroke-linecap="round" stroke-dasharray="8 8"/>
<path d="M714 1070L708 1350" stroke="#0036A2" stroke-width="5" stroke-linecap="round" stroke-dasharray="8 8"/>
<path d="M490 1069.5L514.5 1352" stroke="#0036A2" stroke-width="5" stroke-linecap="round" stroke-dasharray="8 8"/>
<path d="M576.083 1411.5C576.083 1411.5 575.584 1378.5 573.091 1381C570.597 1383.5 559.134 1390 543.665 1390C528.204 1390 518.728 1384.5 515.237 1381C511.746 1377.5 507.756 1413 507.756 1413L576.083 1411.5Z" fill="#DCE1E9"/>
<path d="M407.511 1468C405.596 1463.68 405.774 1459.29 406.846 1457.67C407.918 1456.06 538.106 1445.86 538.106 1445.86C559.714 1444.25 603.833 1434.2 606.793 1445.86C616.884 1485.6 590.068 1485.6 572.924 1485.6C549.352 1485.6 546.554 1479.35 531.142 1481.31C523.106 1482.33 511.319 1487.75 457.209 1487.75C413.811 1487.75 411.797 1477.67 407.511 1468Z" fill="#DEDEDE"/>
<path d="M575.522 1384.1L575.585 1384C575.585 1384 578.577 1380 583.066 1383C587.554 1386 590.452 1392.87 592.864 1403.77C596.08 1418.31 598.795 1416.23 602.011 1429.73C604.237 1439.08 604.69 1453.1 599.331 1460.89C591.007 1472.98 580.571 1471.79 562.883 1471.79C552.699 1471.79 535.548 1469.19 520.004 1473.35C498.302 1479.15 438.533 1482.17 423.523 1477.5C397.947 1469.54 405.836 1446.35 416.555 1437.52C435.367 1422.03 478.637 1426.56 487.808 1414.5C495.311 1404.64 498.845 1387.85 501.5 1380.41C504.5 1372 513.577 1370.06 512.499 1380.41C511.5 1390 514.644 1404.29 541.98 1403.77C563.795 1403.36 566.997 1398.1 575.522 1384.1Z" fill="#252424"/>
<mask id="mask0" mask-type="alpha" maskUnits="userSpaceOnUse" x="406" y="1368" width="198" height="116">
<path d="M541.946 1405.09C563.804 1404.66 571.055 1390.58 571.947 1383.6H585.457C586.528 1385.21 587.75 1388.97 590.161 1400.25C593.376 1415.29 598.734 1417.98 601.948 1431.94C604.174 1441.61 604.626 1456.11 599.269 1464.17C590.949 1476.68 580.519 1475.45 562.839 1475.45C552.66 1475.45 535.516 1472.76 519.98 1477.06C498.288 1483.06 438.548 1486.19 423.546 1481.35C397.982 1473.12 404.843 1447.5 415.99 1438C434.793 1421.97 478.672 1426.02 487.839 1413.55C495.338 1403.34 500.916 1379.04 506.292 1373.05C515.935 1362.31 514.208 1370.51 512.479 1380.92C510.337 1393.81 514.623 1405.62 541.946 1405.09Z" fill="#252424"/>
</mask>
<g mask="url(#mask0)">
<path d="M429.881 1456.6C420.023 1456.6 403.5 1446.54 403.5 1443.5C402.786 1452.99 402.571 1472.41 409 1478C417.036 1484.98 491.491 1486.14 499.527 1482.92C507.563 1479.7 509 1475 495 1477.5C486.944 1478.94 462.561 1470.03 453.989 1463.58C445.417 1457.14 442.203 1456.6 429.881 1456.6Z" fill="#DEDEDE"/>
</g>
<path d="M506.76 1418.15L484.142 1410L485.749 1431.48L461.105 1422.35L456.819 1441.69L436.997 1429.87" stroke="#2A2A2A" stroke-width="6.44516" stroke-linecap="round" stroke-linejoin="round"/>
<path d="M644.917 1411.5C644.917 1411.5 645.416 1378.5 647.909 1381C650.403 1383.5 661.866 1390 677.335 1390C692.796 1390 702.272 1384.5 705.763 1381C709.254 1377.5 713.244 1413 713.244 1413L644.917 1411.5Z" fill="#DCE1E9"/>
<path d="M813.489 1468C815.404 1463.68 815.227 1459.29 814.154 1457.67C813.082 1456.06 682.894 1445.86 682.894 1445.86C661.286 1444.25 617.168 1434.2 614.207 1445.86C604.116 1485.6 630.932 1485.6 648.076 1485.6C671.649 1485.6 674.446 1479.35 689.859 1481.31C697.895 1482.33 709.681 1487.75 763.791 1487.75C807.189 1487.75 809.203 1477.67 813.489 1468Z" fill="#DEDEDE"/>
<path d="M645.479 1384.1L645.416 1384C645.416 1384 642.423 1380 637.935 1383C633.446 1386 630.549 1392.87 628.137 1403.77C624.921 1418.31 622.205 1416.23 618.989 1429.73C616.763 1439.08 616.31 1453.1 621.669 1460.89C629.994 1472.98 640.429 1471.79 658.117 1471.79C668.302 1471.79 685.453 1469.19 700.997 1473.35C722.699 1479.15 782.468 1482.17 797.477 1477.5C823.053 1469.54 815.164 1446.35 804.446 1437.52C785.634 1422.03 742.363 1426.56 733.192 1414.5C725.689 1404.64 722.156 1387.85 719.5 1380.41C716.5 1372 707.423 1370.06 708.501 1380.41C709.5 1390 706.356 1404.29 679.02 1403.77C657.205 1403.36 654.003 1398.1 645.479 1384.1Z" fill="#252424"/>
<mask id="mask1" mask-type="alpha" maskUnits="userSpaceOnUse" x="617" y="1368" width="199" height="116">
<path d="M679.054 1405.09C657.196 1404.66 649.946 1390.58 649.053 1383.6H635.544C634.472 1385.21 633.25 1388.97 630.839 1400.25C627.625 1415.29 622.267 1417.98 619.052 1431.94C616.827 1441.61 616.374 1456.11 621.731 1464.17C630.051 1476.68 640.482 1475.45 658.161 1475.45C668.341 1475.45 685.484 1472.76 701.02 1477.06C722.712 1483.06 782.453 1486.19 797.455 1481.35C823.019 1473.12 816.157 1447.5 805.011 1438C786.208 1421.97 742.328 1426.02 733.162 1413.55C725.662 1403.34 720.084 1379.04 714.708 1373.05C705.065 1362.31 706.792 1370.51 708.521 1380.92C710.663 1393.81 706.377 1405.62 679.054 1405.09Z" fill="#252424"/>
</mask>
<g mask="url(#mask1)">
<path d="M791.119 1456.6C800.977 1456.6 817.5 1446.54 817.5 1443.5C818.215 1452.99 818.429 1472.41 812 1478C803.964 1484.98 729.509 1486.14 721.473 1482.92C713.437 1479.7 712 1475 726 1477.5C734.056 1478.94 758.439 1470.03 767.011 1463.58C775.583 1457.14 778.797 1456.6 791.119 1456.6Z" fill="#DEDEDE"/>
</g>
<path d="M714.24 1418.15L736.859 1410L735.251 1431.48L759.895 1422.35L764.181 1441.69L784.004 1429.87" stroke="#2A2A2A" stroke-width="6.44516" stroke-linecap="round" stroke-linejoin="round"/>
</svg>
