<svg width="1200" height="1600" viewBox="0 0 1200 1600" fill="none" xmlns="http://www.w3.org/2000/svg">
<ellipse cx="597.385" cy="1047.08" rx="133.357" ry="57.0035" fill="#384138"/>
<path d="M504.922 975.802C500.791 972.026 491.958 973.57 484.877 983.448C478.897 999.572 474.574 1001.01 467.325 996.523C460.527 1010.54 456.934 999.255 447.455 1001.01C439.871 1002.42 439.144 1020.51 438.56 1029.7C446.459 1028.24 458.417 1030.74 474.574 1028.09C501.558 1023.66 477.976 1009.07 502.759 1010.54C510.731 1011.01 511.777 1014.83 520.668 1013.78C529.872 999.961 521.449 990.909 504.922 975.802Z" fill="#67774C"/>
<path d="M537.416 1190.37C531.14 1295.49 521.727 1344.13 524.865 1416.82" stroke="#2C2F34" stroke-width="66.9399" stroke-linecap="round" stroke-linejoin="bevel"/>
<path d="M451.127 925.228H612.551L585.183 1217.04L565.134 1388.11C565.134 1388.11 542.996 1392.76 524.692 1392.24C506.388 1391.72 485.643 1388.11 485.643 1388.11L456.356 1233.78V1053.13L444.155 1039L451.127 925.228Z" fill="#384138"/>
<mask id="mask0" mask-type="alpha" maskUnits="userSpaceOnUse" x="444" y="925" width="169" height="468">
<path d="M451.127 925.228H612.551L585.183 1217.04L565.134 1388.11C565.134 1388.11 542.996 1392.76 524.692 1392.24C506.388 1391.72 485.643 1388.11 485.643 1388.11L456.356 1233.78V1053.13L444.155 1039L451.127 925.228Z" fill="#496449"/>
</mask>
<g mask="url(#mask0)">
<path d="M530.549 1195.72C527.776 1198.5 518.144 1203.65 519.864 1204.28C516.809 1204.9 506.159 1212.81 493.702 1192.86C483.601 1183.09 482.007 1189.33 472.843 1191.19C465.512 1192.68 457.668 1185.41 454.663 1181.58C462.3 1180.03 479.072 1181 488.722 1168.39C500.785 1152.62 493.092 1173.7 515.424 1166.2C537.756 1158.7 527.061 1166.85 530.726 1166.1C542.879 1169.55 541.646 1184.59 530.549 1195.72Z" fill="#7C6832"/>
<path d="M559.686 1277.51C556.072 1279.05 553.455 1281.45 546.571 1281.45C543.506 1280.88 530.67 1284.22 526.592 1261.06C520.889 1248.21 517.074 1253.4 507.878 1251.69C500.522 1250.33 495.977 1240.64 494.623 1235.97C502.286 1237.39 517.472 1244.58 531.144 1236.5C548.234 1226.4 533.248 1246.47 556.722 1244.47C571.758 1243.19 569.126 1251.92 572.803 1252.61C582.781 1260.35 574.145 1271.35 559.686 1277.51Z" fill="#7C6832"/>
<path d="M504.646 1350.98C509.439 1353.03 523.837 1354.57 522.038 1356.2C526.103 1355.45 557.984 1370.13 563.391 1339.42C570.954 1322.38 561.156 1319.01 573.351 1316.75C583.106 1314.94 589.134 1302.09 590.929 1295.9C580.767 1297.78 560.628 1307.31 542.497 1296.6C519.834 1283.2 539.763 1305.3 508.577 1307.17C477.391 1309.04 494.592 1313.75 489.715 1314.66C476.483 1324.93 485.472 1342.81 504.646 1350.98Z" fill="#7C6832"/>
<path d="M481.283 1230.64C484.943 1229.07 487.036 1225.41 493.312 1225.41C506.387 1225.41 511.825 1222.07 521.029 1237.96C529.919 1246.33 533.057 1242.15 543.516 1242.15C551.884 1242.15 558.857 1248.42 561.297 1251.56C552.581 1251.56 531.802 1253.44 518.414 1260.97C501.679 1270.39 513.184 1240.06 487.036 1242.15C460.889 1244.24 478.668 1251.56 474.485 1251.56C461.934 1247.38 466.64 1236.92 481.283 1230.64Z" fill="#B69B55"/>
<path d="M548.226 1307.29C544.711 1305.78 528.491 1322.98 528.757 1323.72C525.206 1323.38 517.059 1308.01 507.958 1323.73C499.067 1332.1 496.452 1318.79 485.992 1318.79C477.625 1318.79 470.652 1325.07 468.212 1328.21C476.928 1328.21 497.707 1330.09 511.095 1337.62C527.83 1347.03 518.417 1326.12 544.565 1328.21C570.713 1330.3 560.255 1318.79 564.438 1318.79C576.99 1314.61 562.869 1313.56 548.226 1307.29Z" fill="#B69B55"/>
<path d="M579.08 1171.96C576.204 1169.4 562.427 1189.63 563.286 1188.1C561.075 1188.51 549.956 1159.18 549.742 1190.6C547.064 1207.62 543.594 1200 536.961 1201.23C531.655 1202.22 529.453 1215.01 529.015 1221.29C534.543 1220.26 544.964 1212.21 556.118 1225.01C570.061 1241.01 555.036 1206.19 572.358 1207.11C589.68 1208.03 588.138 1211.58 590.79 1211.08C597.27 1201.62 590.586 1182.22 579.08 1171.96Z" fill="#B69B55"/>
<path d="M489.528 1212.38C486.921 1213.5 484.946 1215.22 480.068 1215.22C477.857 1214.81 468.598 1217.22 465.657 1200.52C461.543 1191.25 458.791 1194.99 452.158 1193.76C446.852 1192.78 443.573 1185.79 442.597 1182.42C448.124 1183.45 459.078 1188.63 468.94 1182.8C481.267 1175.52 471.295 1183.1 487.39 1188.55C491.221 1189.85 494.882 1190.48 497.649 1192.62C504.847 1198.21 499.957 1207.94 489.528 1212.38Z" fill="#B69B55"/>
<path d="M475.931 1158.4C473.324 1159.51 465.493 1160.35 466.471 1161.24C464.26 1160.83 455.001 1163.24 452.06 1146.53C447.946 1137.26 445.194 1141.01 438.561 1139.78C433.254 1138.79 429.976 1131.81 428.999 1128.44C434.527 1129.46 445.481 1134.64 455.343 1128.82C467.67 1121.53 456.83 1133.55 473.793 1134.57C490.756 1135.58 481.4 1138.15 484.052 1138.64C491.25 1144.23 486.36 1153.95 475.931 1158.4Z" fill="#B69B55"/>
<path d="M505.694 1131.57C501.969 1129.98 493.144 1131.57 485.298 1137.32C477.978 1146.22 476.931 1155.63 467.517 1143.08C461.638 1156.32 456.406 1148.01 446.927 1149.77C439.343 1151.17 437.013 1160.62 435.618 1165.43C443.517 1163.97 455.054 1164.2 471.179 1161.38C498.113 1156.67 476.548 1145.56 500.465 1149.77C505.341 1150.63 508.147 1152.1 511.938 1151.39C522.224 1143.41 520.598 1137.93 505.694 1131.57Z" fill="#67774C"/>
<path d="M542.528 1146.64C546.659 1142.87 555.493 1144.41 562.573 1154.29C568.553 1170.41 572.877 1171.85 580.125 1167.36C586.924 1181.38 590.517 1170.09 599.996 1171.85C607.579 1173.26 608.307 1191.35 608.891 1200.54C600.992 1199.08 589.033 1201.58 572.877 1198.93C545.893 1194.5 569.474 1179.91 544.692 1181.38C536.72 1181.85 535.673 1185.67 526.783 1184.62C517.579 1170.8 526.002 1161.75 542.528 1146.64Z" fill="#67774C"/>
<path d="M492.668 1256.22C488.473 1252.97 479.224 1254.61 471.559 1263.61C464.86 1278.15 464.949 1294.41 453.251 1271.34C448.656 1293.65 441.983 1278.51 432.054 1280.35C424.111 1281.82 422.829 1297.96 421.954 1306.17C430.227 1304.63 442.616 1306.52 459.528 1303.68C487.775 1298.95 461.256 1287.58 487.037 1288.17C492.668 1288.3 489.129 1300.2 501.906 1291.54C512.14 1280.35 509.451 1269.2 492.668 1256.22Z" fill="#67774C"/>
<path d="M457.865 1097.16C461.479 1098.7 464.096 1101.1 470.979 1101.1C474.044 1100.53 486.881 1103.87 490.959 1080.71C496.662 1067.86 500.477 1073.05 509.672 1071.35C517.029 1069.98 521.574 1060.3 522.928 1055.62C515.265 1057.04 500.079 1064.23 486.407 1056.15C469.317 1046.05 484.303 1066.12 460.829 1064.12C445.792 1062.84 448.425 1071.58 444.748 1072.26C434.769 1080 443.406 1091 457.865 1097.16Z" fill="#7C6832"/>
<path d="M557.638 1093.92C553.978 1092.35 551.885 1088.69 545.61 1088.69C532.534 1088.69 527.096 1085.34 517.892 1101.24C509.002 1109.61 505.864 1105.42 495.405 1105.42C487.037 1105.42 480.064 1111.7 477.624 1114.84C486.34 1114.84 507.119 1116.72 520.507 1124.25C537.242 1133.66 525.737 1103.33 551.885 1105.42C578.033 1107.51 560.253 1114.84 564.436 1114.84C576.987 1110.65 572.281 1100.19 557.638 1093.92Z" fill="#B69B55"/>
<path d="M561.938 1085.73C566.133 1082.49 575.382 1084.12 583.047 1093.12C589.746 1107.66 589.657 1123.92 601.355 1100.85C605.95 1123.16 612.624 1108.02 622.552 1109.86C630.495 1111.33 631.777 1127.47 632.652 1135.68C624.379 1134.14 611.99 1136.03 595.078 1133.2C566.831 1128.46 593.35 1117.09 567.569 1117.68C561.938 1117.81 565.477 1129.71 552.7 1121.05C542.466 1109.86 545.155 1098.71 561.938 1085.73Z" fill="#67774C"/>
<path d="M495.004 1359.77C499.199 1356.52 508.448 1358.15 516.113 1367.16C522.812 1381.7 522.723 1397.96 534.421 1374.89C539.016 1397.2 545.689 1382.05 555.618 1383.89C563.56 1385.37 564.843 1401.51 565.718 1409.71C557.445 1408.18 545.056 1410.07 528.144 1407.23C499.897 1402.5 524.047 1390.19 498.265 1390.78C488.372 1391 484.816 1391.8 483.965 1392.65C484.409 1393.3 484.888 1393.96 485.401 1394.62C486.268 1395.07 486.932 1395.3 485.766 1395.08C485.643 1394.93 485.521 1394.77 485.401 1394.62C484.449 1394.12 483.25 1393.37 483.965 1392.65C476.156 1381.21 479.319 1371.9 495.004 1359.77Z" fill="#67774C"/>
</g>
<path d="M694.03 975.802C698.161 972.026 706.995 973.57 714.075 983.448C720.055 999.572 724.379 1001.01 731.627 996.522C738.426 1010.54 742.019 999.254 751.498 1001.01C759.081 1002.42 759.809 1020.51 760.393 1029.7C752.494 1028.24 740.535 1030.74 724.379 1028.09C697.395 1023.65 720.976 1009.07 696.194 1010.54C688.221 1011.01 687.175 1014.83 678.285 1013.78C669.081 999.961 677.504 990.909 694.03 975.802Z" fill="#67774C"/>
<path d="M661.536 1190.37C667.811 1295.49 677.225 1344.12 674.087 1416.82" stroke="#2C2F34" stroke-width="66.9399" stroke-linecap="round" stroke-linejoin="bevel"/>
<path d="M747.826 925.228H586.402L613.77 1217.04L633.819 1388.11C633.819 1388.11 655.957 1392.76 674.261 1392.24C692.565 1391.72 713.31 1388.11 713.31 1388.11L742.596 1233.78V1053.13L754.798 1039L747.826 925.228Z" fill="#384138"/>
<mask id="mask1" mask-type="alpha" maskUnits="userSpaceOnUse" x="586" y="925" width="169" height="468">
<path d="M747.826 925.228H586.402L613.77 1217.04L633.819 1388.11C633.819 1388.11 655.957 1392.76 674.261 1392.24C692.565 1391.72 713.31 1388.11 713.31 1388.11L742.596 1233.78V1053.13L754.798 1039L747.826 925.228Z" fill="#496449"/>
</mask>
<g mask="url(#mask1)">
<path d="M681.667 1212.46C684.44 1215.24 694.072 1220.38 692.352 1221.02C695.407 1221.64 706.057 1229.55 718.514 1209.6C728.615 1199.82 730.209 1206.06 739.373 1207.93C746.704 1209.42 754.547 1202.14 757.553 1198.31C749.916 1196.76 733.143 1197.73 723.494 1185.12C711.431 1169.36 719.124 1190.43 696.792 1182.93C674.459 1175.43 685.154 1183.58 681.489 1182.84C669.337 1186.28 670.57 1201.32 681.667 1212.46Z" fill="#7C6832"/>
<path d="M679.969 1278.11C676.355 1279.65 673.737 1282.04 666.854 1282.04C663.789 1281.47 650.953 1284.82 646.875 1261.66C641.172 1248.81 637.357 1253.99 628.161 1252.29C620.805 1250.93 616.259 1241.24 614.906 1236.57C622.569 1237.99 637.755 1245.17 651.427 1237.1C668.517 1227 653.531 1247.06 677.005 1245.07C692.041 1243.79 689.409 1252.52 693.086 1253.2C703.064 1260.95 694.427 1271.94 679.969 1278.11Z" fill="#7C6832"/>
<path d="M732.66 1266.26C737.453 1268.31 751.851 1269.85 750.052 1271.48C754.117 1270.73 785.998 1285.41 791.405 1254.7C798.969 1237.66 789.171 1234.29 801.365 1232.03C811.121 1230.22 817.149 1217.37 818.943 1211.18C808.781 1213.06 788.642 1222.59 770.512 1211.88C747.848 1198.48 767.777 1220.58 736.591 1222.45C705.405 1224.32 722.606 1229.03 717.73 1229.93C704.497 1240.21 713.486 1258.09 732.66 1266.26Z" fill="#7C6832"/>
<path d="M679.632 1308.13C683.147 1306.63 699.367 1323.82 699.1 1324.57C702.652 1324.22 710.799 1308.85 719.9 1324.57C728.791 1332.94 731.406 1319.64 741.865 1319.64C750.233 1319.64 757.206 1325.91 759.646 1329.05C750.93 1329.05 730.151 1330.94 716.763 1338.47C700.028 1347.88 709.44 1326.96 683.293 1329.05C657.145 1331.14 667.602 1319.64 663.42 1319.64C650.868 1315.46 664.989 1314.41 679.632 1308.13Z" fill="#B69B55"/>
<path d="M604.981 1172.34C607.857 1169.78 621.634 1190.01 620.776 1188.48C622.986 1188.89 634.106 1159.56 634.319 1190.99C636.997 1208 640.467 1200.39 647.1 1201.62C652.406 1202.6 654.608 1215.4 655.046 1221.67C649.519 1220.65 639.097 1212.59 627.943 1225.39C614.001 1241.39 629.026 1206.57 611.704 1207.49C594.382 1208.41 595.924 1211.96 593.271 1211.47C586.791 1202.01 593.476 1182.6 604.981 1172.34Z" fill="#B69B55"/>
<path d="M686.445 1275.29C689.052 1276.4 691.028 1278.13 695.905 1278.13C698.116 1277.72 707.376 1280.13 710.317 1263.43C714.431 1254.16 717.183 1257.9 723.816 1256.67C729.122 1255.69 732.401 1248.7 733.377 1245.33C727.85 1246.35 716.895 1251.54 707.034 1245.71C694.706 1238.43 704.678 1246.01 688.583 1251.46C684.752 1252.76 681.092 1253.39 678.324 1255.53C671.127 1261.12 676.016 1270.85 686.445 1275.29Z" fill="#B69B55"/>
<path d="M723.021 1158.4C725.627 1159.51 733.459 1160.35 732.481 1161.24C734.691 1160.83 743.951 1163.24 746.892 1146.53C751.006 1137.26 753.758 1141.01 760.391 1139.78C765.697 1138.79 768.976 1131.81 769.952 1128.44C764.425 1129.46 753.471 1134.64 743.609 1128.82C731.282 1121.53 742.122 1133.55 725.159 1134.57C708.196 1135.58 717.552 1138.15 714.899 1138.64C707.702 1144.23 712.591 1153.95 723.021 1158.4Z" fill="#B69B55"/>
<path d="M693.257 1131.57C696.983 1129.98 705.808 1131.57 713.653 1137.32C720.974 1146.22 722.021 1155.63 731.435 1143.08C737.314 1156.32 742.546 1148.01 752.025 1149.77C759.608 1151.17 761.939 1160.61 763.334 1165.43C755.435 1163.97 743.898 1164.2 727.772 1161.38C700.839 1156.67 722.404 1145.56 698.486 1149.77C693.61 1150.63 690.804 1152.1 687.014 1151.39C676.728 1143.41 678.353 1137.93 693.257 1131.57Z" fill="#67774C"/>
<path d="M672.2 1157.6C668.069 1153.82 661.4 1134.64 654.319 1144.52C648.339 1160.65 644.015 1162.09 636.767 1157.6C629.968 1171.61 626.375 1160.33 616.896 1162.09C609.313 1163.49 608.585 1181.58 608.001 1190.77C615.9 1189.31 627.859 1191.82 644.015 1189.16C670.999 1184.73 647.418 1170.15 672.2 1171.61C680.173 1172.08 681.219 1175.9 690.109 1174.85C699.314 1161.04 688.726 1172.7 672.2 1157.6Z" fill="#67774C"/>
<path d="M626.786 1298.06C630.981 1294.81 640.231 1296.44 647.895 1305.45C654.594 1319.99 654.505 1336.24 666.204 1313.18C670.799 1335.48 677.472 1320.34 687.4 1322.18C695.343 1323.65 696.626 1339.79 697.501 1348C689.227 1346.47 676.839 1348.35 659.926 1345.52C631.68 1340.79 658.199 1329.42 632.417 1330C626.786 1330.13 630.325 1342.03 617.549 1333.37C607.314 1322.18 610.003 1311.04 626.786 1298.06Z" fill="#67774C"/>
<path d="M644.408 1080.43C640.794 1081.97 638.176 1084.36 631.293 1084.36C628.228 1083.79 600.416 1086.45 596.338 1063.29C590.635 1050.44 583.569 1057.22 574.373 1055.52C567.017 1054.16 580.698 1043.56 579.345 1038.89C587.008 1040.31 602.194 1047.49 615.866 1039.41C632.956 1029.32 617.97 1049.38 641.444 1047.39C656.48 1046.11 653.848 1054.84 657.525 1055.52C667.503 1063.27 658.866 1074.26 644.408 1080.43Z" fill="#7C6832"/>
<path d="M641.313 1120.54C644.974 1122.11 647.067 1125.77 653.342 1125.77C666.418 1125.77 671.855 1129.12 681.059 1113.22C689.95 1104.85 693.088 1109.04 703.547 1109.04C711.915 1109.04 718.887 1102.76 721.328 1099.62C712.612 1099.62 691.833 1097.74 678.445 1090.21C661.71 1080.8 673.215 1111.13 647.067 1109.04C620.919 1106.95 638.699 1099.62 634.516 1099.62C621.965 1103.81 626.67 1114.27 641.313 1120.54Z" fill="#B69B55"/>
<path d="M607.722 1112.92C603.526 1109.68 594.277 1111.31 586.612 1120.32C579.913 1134.86 580.003 1151.11 568.304 1128.05C563.709 1150.35 557.036 1135.21 547.107 1137.05C539.165 1138.52 537.882 1154.66 537.007 1162.87C545.281 1161.34 557.669 1163.22 574.581 1160.39C602.828 1155.66 576.309 1144.29 602.09 1144.87C607.722 1145 604.183 1156.9 616.959 1148.24C627.193 1137.05 624.505 1125.9 607.722 1112.92Z" fill="#67774C"/>
<path d="M772.98 1039.71C768.784 1036.46 759.535 1038.1 751.87 1047.1C745.171 1061.64 745.261 1077.9 733.562 1054.83C728.967 1077.14 722.294 1062 712.365 1063.84C704.423 1065.31 703.14 1081.45 702.265 1089.65C710.538 1088.12 722.927 1090.01 739.839 1087.17C768.086 1082.44 741.567 1071.07 767.348 1071.66C772.98 1071.79 769.441 1083.69 782.217 1075.03C792.451 1063.84 789.762 1052.69 772.98 1039.71Z" fill="#67774C"/>
<path d="M703.948 1359.77C699.753 1356.52 690.503 1358.15 682.839 1367.16C676.14 1381.7 676.229 1397.96 664.53 1374.89C659.935 1397.2 653.262 1382.05 643.334 1383.89C635.391 1385.37 634.108 1401.5 633.233 1409.71C641.507 1408.18 653.896 1410.06 670.808 1407.23C699.054 1402.5 674.905 1390.19 700.686 1390.78C710.579 1391 714.136 1391.8 714.986 1392.65C714.543 1393.3 714.064 1393.95 713.55 1394.62C712.683 1395.07 712.02 1395.3 713.185 1395.08C713.309 1394.93 713.431 1394.77 713.55 1394.62C714.503 1394.12 715.701 1393.37 714.986 1392.65C722.796 1381.21 719.633 1371.9 703.948 1359.77Z" fill="#67774C"/>
</g>
<path d="M733.88 677.342C767.35 749.511 793.214 882.346 793.214 999.491" stroke="#EBBAAA" stroke-width="80.5262" stroke-linecap="round" stroke-linejoin="bevel"/>
<path d="M493.727 647.736C447.614 731.648 396.04 797.967 396.04 1001.58" stroke="#EBBAAA" stroke-width="84.6613" stroke-linecap="round" stroke-linejoin="bevel"/>
<path d="M453.868 685.777C456.887 624.086 507.227 575.305 568.982 574.227L619.09 573.352C683.388 572.23 736.602 623.086 738.393 687.37L742.914 849.698L745.085 1054.99C745.085 1054.99 648.237 1061.08 593.619 1060.97C539 1060.87 443.751 1054.41 443.751 1054.41L445.596 854.832L453.868 685.777Z" fill="#2E3032"/>
<path d="M573.851 773.568C592.678 823.773 613.597 869.795 626.148 936.734" stroke="#F4FCFF" stroke-width="41.8375" stroke-linecap="round"/>
<path d="M523.685 861.027C545.674 857.153 640.084 865.033 684.54 869.458" stroke="#FFF06A" stroke-width="48" stroke-linecap="round"/>
<ellipse cx="599.473" cy="618.317" rx="68.7176" ry="73.997" transform="rotate(-1 599.473 618.317)" fill="#424649"/>
<rect x="544.289" y="530.898" width="98.3097" height="128.473" rx="49.1549" transform="rotate(-1 544.289 530.898)" fill="#EBBAAA"/>
<ellipse cx="447.79" cy="406.304" rx="56.789" ry="53.866" fill="#EBBAAA"/>
<ellipse cx="742.46" cy="410.479" rx="56.789" ry="53.866" fill="#EBBAAA"/>
<path d="M433.305 357.827C423.442 265.115 494.783 183.713 587.987 181.33C681.822 178.93 757.47 257.606 751.392 351.275L749.373 382.389L744.417 448.688C738.548 527.205 673.13 587.915 594.393 587.915C518.503 587.915 454.496 531.393 445.106 456.086L435.918 382.389L433.305 357.827Z" fill="#EED4CC"/>
<path d="M618.485 326.579L674.213 318.741C674.826 318.655 675.445 318.844 675.905 319.259L694.721 336.212C696.151 337.501 695.228 339.875 693.302 339.858L666.489 339.626L618.982 343.909C616.448 344.138 614.298 342.07 614.428 339.528L614.889 330.508C614.992 328.506 616.5 326.858 618.485 326.579Z" fill="#393939"/>
<path d="M553.486 327.857L498.533 318.127C497.921 318.018 497.292 318.188 496.817 318.589L477.565 334.871C476.097 336.112 476.94 338.51 478.862 338.559L505.445 339.245L552.375 345.147C554.899 345.464 557.119 343.474 557.08 340.931L556.94 331.912C556.909 329.907 555.46 328.206 553.486 327.857Z" fill="#393939"/>
<path d="M583.218 389.709C581.27 403.906 541.995 456.366 595.783 456.366" stroke="#EBBAAA" stroke-width="17.7809"/>
<path d="M489.43 230.303C467.915 237.176 463.194 267.004 461.89 283.087C459.868 308.025 437.581 263.983 437.581 382.776C432.881 383.234 431.429 358.656 422.628 359.634C417.249 361.59 412.691 365.386 408.507 369.047C405.069 357.282 400.668 330.736 398.465 292.17C391.143 164.043 487.843 85.0739 577.74 97.2426C607.923 101.328 648.935 131.169 648.935 217.229C604.927 241.677 529.148 217.615 489.43 230.303Z" fill="#393939"/>
<path d="M693.041 239.094C705.762 246.1 708.777 273.366 715.006 288.253C729.186 322.145 737.681 281.296 749.389 383.651C754.092 384.109 754.402 360.492 763.208 361.47C766.869 363.039 769.484 365.654 775.236 370.36C778.676 358.595 785.084 320.677 785.084 287.207C785.084 136.069 681.536 89.8962 587.143 96.6297C522.461 101.244 503.727 138.385 503.727 224.451C568.761 234.233 656.503 218.97 693.041 239.094Z" fill="#2C2929"/>
<path d="M547.857 93.0772L527.675 120.844L649.263 145.548L766.589 231.435L776.248 205.305L768.314 197.943L771.8 187.843L759.887 183.731L765.274 168.122L749.957 162.835L750.674 149.724L737.058 145.024L733.094 130.298L717.786 129.124L716.066 120.31L701.6 115.317L704.453 107.053L682.028 108.561L679.775 98.5354L668.413 103.862L662.756 92.6611L643.736 95.3441L636.377 83.5559L622.462 88.0012L614.803 85.3577L603.759 89.766L602.89 81.2457L583.036 91.8615L574.943 84.958L556.425 98.6035L547.857 93.0772Z" fill="#2C2929"/>
<path d="M635.466 384.48C638.78 381.182 645.881 376.565 656.297 374.586C667.029 372.547 677.601 376.565 680.441 378.049" stroke="black" stroke-width="19.8728" stroke-linecap="round"/>
<path d="M543.424 385.526C539.801 381.898 532.039 376.819 520.655 374.643C508.924 372.4 497.369 376.819 494.265 378.452" stroke="black" stroke-width="19.8728" stroke-linecap="round"/>
<path d="M636.654 485.073C637.003 487.862 638.851 494.487 643.453 498.67" stroke="#C99584" stroke-width="15.689" stroke-linecap="round"/>
<path d="M545 491.349C552.845 496.404 566.627 504.423 592.202 504.423C618.351 504.423 633.865 495.009 638.746 491.349" stroke="#C99584" stroke-width="15.689" stroke-linecap="round"/>
<path d="M558.163 722.317L471.35 902.48C471.35 902.48 394.997 860.643 365.71 833.448C365.71 833.448 377.762 764.417 394.997 701.398C404.991 664.855 429.068 636.314 447.536 618.783C462.332 604.737 481.679 597.212 501.727 593.433L539.336 586.345L558.163 722.317Z" fill="#5788A8"/>
<path d="M365.82 832.388C367.895 815.573 384.676 804.728 400.86 809.743L442.956 822.789C456.684 827.043 465.766 840.08 465.001 854.431L464.786 858.478C464.702 860.05 464.5 861.613 464.182 863.155L441.711 971.956C439.766 981.374 431.651 988.253 422.042 988.628L370.768 990.631C357.879 991.135 347.61 979.968 349.19 967.167L365.82 832.388Z" fill="#5788A8"/>
<path d="M351.067 991.123L345.837 946.147C379.307 940.29 425.329 948.588 444.155 953.469L438.926 991.123C438.926 991.123 411.731 994.26 394.996 994.26C378.261 994.26 351.067 991.123 351.067 991.123Z" fill="#6EA5C9"/>
<path d="M459.845 822.727L400.226 788.211L386.629 816.451L459.845 822.727Z" fill="#4F7F9D"/>
<path d="M440.424 826.168L383.604 832.847L392.633 850.498L440.423 839.202L440.424 826.168Z" fill="#4F7F9D"/>
<path d="M450.962 670.133C454.198 624.115 492.743 588.437 538.875 588.437C548.084 588.437 556.534 593.694 560.56 601.976L590.587 663.744C590.587 663.744 568.622 785.073 568.622 844.691C568.622 894.853 558.256 1016.1 554.967 1053.3C554.437 1059.3 548.953 1063.57 542.998 1062.66L439.794 1046.92C434.533 1046.12 430.714 1041.49 430.919 1036.18L437.88 856.196L450.962 670.133Z" fill="#5991B6"/>
<path d="M584.313 664.79C562.349 845.737 550.843 1011 550.843 1053.88" stroke="#5383A2" stroke-width="13.5972"/>
<path d="M462.189 796.603L464.641 740.461L543.465 733.486C538.07 758.25 536.526 793.598 535.755 811.273C476.828 836.825 482.358 828.733 462.189 796.603Z" fill="#5383A2"/>
<path d="M541.047 733.616L460.822 722.785L454.678 745.549L486.189 771.005L530.709 754.104L541.047 733.616Z" fill="#6EA5C9"/>
<path d="M552.383 1067.91L434.192 1055.42C431.532 1055.14 429.512 1052.89 429.512 1050.22V1031.91L558.163 1045.33V1062.71C558.163 1065.82 555.472 1068.24 552.383 1067.91Z" fill="#5383A2"/>
<path d="M590.587 668.974L550.318 572.748L506.389 585.822L511.095 693.03L590.587 668.974Z" fill="#5383A3"/>
<path d="M641.837 722.054L728.65 902.218C728.65 902.218 805.003 860.381 834.29 833.186C834.29 833.186 822.238 764.154 805.003 701.136C793.647 659.612 764.106 628.42 745.276 611.973C734.751 602.781 721.575 597.563 707.844 594.975L660.664 586.083L641.837 722.054Z" fill="#5788A8"/>
<path d="M834.18 832.389C832.105 815.573 815.324 804.728 799.14 809.743L757.044 822.789C743.316 827.044 734.234 840.08 734.999 854.431L735.214 858.478C735.298 860.05 735.5 861.614 735.818 863.155L758.289 971.956C760.234 981.374 768.349 988.253 777.958 988.628L829.232 990.631C842.121 991.135 852.39 979.968 850.81 967.167L834.18 832.389Z" fill="#5788A8"/>
<path d="M848.933 991.123L854.163 946.148C820.693 940.291 774.671 948.588 755.845 953.469L761.074 991.123C761.074 991.123 788.269 994.26 805.004 994.26C821.739 994.26 848.933 991.123 848.933 991.123Z" fill="#6EA5C9"/>
<path d="M738.064 808.084L797.682 773.568L811.279 801.808L738.064 808.084Z" fill="#4F7F9D"/>
<path d="M757.485 811.525L814.304 818.204L805.276 835.855L757.485 824.559L757.485 811.525Z" fill="#4F7F9D"/>
<path d="M740.575 661.837C736.174 620.11 700.985 588.437 659.026 588.437C650.431 588.437 642.59 593.343 638.832 601.073L608.367 663.744C608.367 663.744 630.332 785.073 630.332 844.691C630.332 894.853 640.698 1016.1 643.987 1053.3C644.517 1059.3 650.001 1063.57 655.956 1062.66L759.16 1046.92C764.421 1046.12 768.24 1041.49 768.035 1036.18L761.074 856.196L740.575 661.837Z" fill="#5991B6"/>
<path d="M614.641 664.79C636.606 845.737 648.111 1011 648.111 1053.88" stroke="#5383A2" stroke-width="13.5972"/>
<path d="M736.765 796.603L734.313 740.461L655.489 733.486C660.884 758.25 662.428 793.598 663.199 811.273C722.126 836.825 716.596 828.733 736.765 796.603Z" fill="#5383A2"/>
<path d="M657.907 733.616L738.132 722.785L744.277 745.549L712.766 771.005L668.245 754.104L657.907 733.616Z" fill="#6EA5C9"/>
<path d="M646.571 1067.91L764.762 1055.42C767.422 1055.14 769.442 1052.89 769.442 1050.22V1031.91L640.792 1045.33V1062.71C640.792 1065.82 643.482 1068.24 646.571 1067.91Z" fill="#5383A2"/>
<path d="M609.413 668.974L645.498 572.748L692.565 585.822L687.859 693.03L609.413 668.974Z" fill="#5383A3"/>
<path d="M488.641 1393.19C484.016 1391.29 482.16 1378.17 481.809 1371.84C523.43 1376.11 555.492 1372.87 567.053 1371.1C567.053 1381.03 567.053 1384 565.501 1391C544.193 1397.37 494.421 1395.56 488.641 1393.19Z" fill="#675D40"/>
<path d="M633.999 1389C632.378 1384.5 631.728 1377.87 631.378 1371.54C672.998 1375.81 705.061 1372.58 716.622 1370.8C716.622 1380.73 718.087 1384.92 711.781 1392.14C690.473 1398.51 639.78 1391.37 633.999 1389Z" fill="#675D40"/>
<path d="M382.363 1490.26C380.432 1485.91 381.822 1476.2 382.903 1474.58C383.985 1472.96 515.309 1462.69 515.309 1462.69C537.106 1461.07 581.609 1450.96 584.595 1462.69C594.774 1502.68 567.724 1502.68 550.431 1502.68C526.652 1502.68 523.831 1496.39 508.284 1498.36C500.177 1499.39 488.288 1504.84 433.706 1504.84C389.93 1504.84 386.686 1499.98 382.363 1490.26Z" fill="#29282D"/>
<path d="M519.216 1420.35C541.276 1419.93 551.089 1413.61 559.736 1399.45H570.544C580.241 1399.45 568.111 1409.38 570.544 1420.35C573.788 1434.98 576.527 1432.89 579.771 1446.47C582.017 1455.87 582.474 1469.98 577.068 1477.81C568.671 1489.99 558.144 1488.79 540.302 1488.79C530.029 1488.79 512.728 1486.17 497.048 1490.35C475.157 1496.19 414.866 1499.23 399.726 1494.53C373.927 1486.52 381.884 1463.19 392.696 1454.31C411.673 1438.72 448.327 1439.79 457.578 1427.66C465.147 1417.74 469.455 1393.78 474.88 1387.96C484.612 1377.51 491.223 1386.71 489.478 1396.84C487.317 1409.38 491.642 1420.87 519.216 1420.35Z" fill="#504D5A"/>
<mask id="mask2" mask-type="alpha" maskUnits="userSpaceOnUse" x="382" y="1383" width="200" height="118">
<path d="M519.088 1421.62C541.137 1421.19 548.451 1407.03 549.351 1400H560.699C561.78 1401.63 565.292 1405.41 567.724 1416.76C570.966 1431.89 576.371 1434.59 579.614 1448.64C581.859 1458.37 582.315 1472.96 576.912 1481.07C568.519 1493.66 557.997 1492.42 540.163 1492.42C529.895 1492.42 512.602 1489.71 496.93 1494.04C475.049 1500.07 414.787 1503.22 399.654 1498.36C373.867 1490.07 381.821 1465.94 392.628 1456.75C411.595 1440.62 448.233 1441.74 457.479 1429.19C465.044 1418.92 469.35 1394.14 474.772 1388.12C484.5 1377.31 491.108 1386.83 489.364 1397.3C487.203 1410.27 491.527 1422.16 519.088 1421.62Z" fill="#726E7F"/>
</mask>
<g mask="url(#mask2)">
<path d="M482.878 1399.46C484.175 1391.68 486.661 1386.86 487.742 1385.41L485.581 1380.01H473.151C467.386 1385.05 457.695 1397.41 465.044 1406.49C474.231 1417.84 481.257 1409.19 482.878 1399.46Z" fill="#7F8389"/>
</g>
<mask id="mask3" mask-type="alpha" maskUnits="userSpaceOnUse" x="382" y="1383" width="200" height="118">
<path d="M519.151 1421.62C541.2 1421.19 548.514 1407.03 549.415 1400H563.042C564.123 1401.63 565.355 1405.41 567.787 1416.76C571.03 1431.89 576.435 1434.59 579.677 1448.64C581.922 1458.37 582.379 1472.96 576.975 1481.07C568.582 1493.66 558.061 1492.42 540.227 1492.42C529.958 1492.42 512.666 1489.71 496.994 1494.04C475.113 1500.07 414.851 1503.22 399.718 1498.36C373.931 1490.07 381.885 1465.94 392.691 1456.75C411.659 1440.62 448.296 1441.74 457.542 1429.19C465.108 1418.92 469.413 1394.14 474.836 1388.12C484.563 1377.31 491.171 1386.83 489.427 1397.3C487.267 1410.27 491.59 1422.16 519.151 1421.62Z" fill="#4F4A56"/>
</mask>
<g mask="url(#mask3)">
<path d="M406.139 1473.5C396.196 1473.5 393.71 1467.38 393.71 1464.32C392.989 1473.86 393.169 1494.36 399.654 1499.98C407.761 1507.01 468.287 1503.23 476.393 1499.98C484.5 1496.74 464.028 1488.99 457.752 1488.99C449.503 1488.99 439.105 1487.01 430.458 1480.53C421.811 1474.04 418.569 1473.5 406.139 1473.5Z" fill="#29282D"/>
<path d="M465.597 1455.52C436.758 1466.6 426.374 1478.48 403.382 1478.48C409.116 1481.14 405.121 1490.3 430.035 1486.9C435.69 1486.12 476.056 1462.84 573.072 1436.82C589.285 1426.56 514.233 1436.82 465.597 1455.52Z" fill="#29282D"/>
<path d="M496.182 1458.99C489.203 1461.27 483.497 1461.25 480.162 1458.89C471.566 1452.73 476.453 1442.54 478.539 1438.53C474.685 1443.49 470.857 1448.46 467.934 1453.82C463.323 1462.2 461.606 1471.25 465.208 1476.85C471.67 1486.95 485.903 1481.54 494.926 1476.97L578.66 1434.55L496.182 1458.99Z" fill="#F4FCFF"/>
<path d="M574.788 1420.52C574.788 1446.91 544.165 1466.19 491.222 1494.24C494.683 1494.24 497.451 1497.64 522.365 1494.24C528.019 1493.47 577.21 1458.75 583.093 1446.91C579.287 1435.07 574.788 1403.97 574.788 1420.52Z" fill="#29282D"/>
<path d="M395.332 1461.07C394.899 1454.59 392.269 1453.33 391.008 1453.51L373.175 1454.59L375.336 1487.01L398.034 1499.98C402.357 1499.8 411.004 1497.82 411.004 1491.34C411.004 1483.23 402.897 1483.23 398.034 1478.37C393.17 1473.5 395.872 1469.18 395.332 1461.07Z" fill="#29282D"/>
</g>
<path d="M484.195 1432.34L461.38 1424.14L463.001 1445.76L438.142 1436.57L433.818 1456.02L413.823 1444.14" stroke="#2A2A2A" stroke-width="8.04943" stroke-linecap="round" stroke-linejoin="round"/>
<path d="M815.964 1490.26C817.895 1485.91 816.505 1476.2 815.424 1474.58C814.342 1472.96 683.018 1462.69 683.018 1462.69C661.221 1461.07 616.718 1450.96 613.732 1462.69C603.552 1502.68 630.603 1502.68 647.896 1502.68C671.674 1502.68 674.496 1496.39 690.043 1498.36C698.149 1499.39 710.038 1504.84 764.62 1504.84C808.397 1504.84 811.64 1499.98 815.964 1490.26Z" fill="#29282D"/>
<path d="M679.11 1420.35C657.051 1419.93 647.237 1413.61 638.591 1399.45H627.783C618.086 1399.45 630.216 1409.38 627.783 1420.35C624.538 1434.98 621.8 1432.89 618.556 1446.47C616.31 1455.87 615.853 1469.98 621.259 1477.81C629.656 1489.99 640.182 1488.79 658.025 1488.79C668.298 1488.79 685.599 1486.17 701.279 1490.35C723.17 1496.19 783.461 1499.23 798.601 1494.53C824.4 1486.52 816.442 1463.19 805.63 1454.31C786.654 1438.72 749.999 1439.79 740.748 1427.66C733.18 1417.74 728.872 1393.78 723.447 1387.96C713.715 1377.51 707.103 1386.71 708.849 1396.84C711.01 1409.38 706.685 1420.87 679.11 1420.35Z" fill="#504D5A"/>
<mask id="mask4" mask-type="alpha" maskUnits="userSpaceOnUse" x="617" y="1383" width="199" height="118">
<path d="M679.239 1421.62C657.19 1421.19 649.876 1407.03 648.975 1400.01H637.628C636.547 1401.63 633.035 1405.41 630.603 1416.76C627.36 1431.89 621.955 1434.59 618.713 1448.64C616.468 1458.37 616.011 1472.96 621.415 1481.07C629.808 1493.66 640.329 1492.42 658.163 1492.42C668.432 1492.42 685.724 1489.71 701.396 1494.04C723.277 1500.07 783.539 1503.23 798.672 1498.36C824.459 1490.07 816.505 1465.94 805.698 1456.75C786.731 1440.62 750.094 1441.74 740.847 1429.19C733.282 1418.92 728.977 1394.14 723.554 1388.12C713.827 1377.31 707.219 1386.83 708.963 1397.3C711.123 1410.27 706.8 1422.16 679.239 1421.62Z" fill="#726E7F"/>
</mask>
<g mask="url(#mask4)">
<path d="M715.449 1399.47C714.152 1391.68 711.666 1386.86 710.586 1385.41L712.746 1380.01H725.177C730.941 1385.05 740.633 1397.41 733.283 1406.49C724.096 1417.84 717.071 1409.19 715.449 1399.47Z" fill="#7F8389"/>
</g>
<mask id="mask5" mask-type="alpha" maskUnits="userSpaceOnUse" x="617" y="1383" width="199" height="118">
<path d="M679.175 1421.62C657.126 1421.19 649.813 1407.03 648.912 1400.01H635.285C634.204 1401.63 632.971 1405.41 630.539 1416.76C627.297 1431.89 621.892 1434.59 618.65 1448.64C616.405 1458.37 615.948 1472.96 621.352 1481.07C629.745 1493.66 640.266 1492.42 658.1 1492.42C668.368 1492.42 685.661 1489.71 701.333 1494.04C723.214 1500.07 783.476 1503.23 798.609 1498.36C824.396 1490.07 816.442 1465.94 805.635 1456.75C786.668 1440.62 750.031 1441.74 740.784 1429.19C733.219 1418.92 728.914 1394.14 723.491 1388.12C713.763 1377.31 707.155 1386.83 708.9 1397.3C711.06 1410.27 706.737 1422.16 679.175 1421.62Z" fill="#4F4A56"/>
</mask>
<g mask="url(#mask5)">
<path d="M792.187 1473.5C802.131 1473.5 804.617 1467.38 804.617 1464.32C805.337 1473.86 805.157 1494.36 798.672 1499.98C790.566 1507.01 730.04 1503.23 721.933 1499.98C713.827 1496.74 734.299 1488.99 740.574 1488.99C748.823 1488.99 759.222 1487.01 767.869 1480.53C776.515 1474.04 779.758 1473.5 792.187 1473.5Z" fill="#29282D"/>
<path d="M732.73 1455.52C761.569 1466.6 771.952 1478.48 794.945 1478.48C789.21 1481.14 793.206 1490.3 768.292 1486.9C762.637 1486.12 722.27 1462.84 625.254 1436.82C609.042 1426.56 684.094 1436.82 732.73 1455.52Z" fill="#29282D"/>
<path d="M702.145 1458.99C709.123 1461.27 714.829 1461.26 718.165 1458.89C726.761 1452.73 721.874 1442.54 719.788 1438.54C723.642 1443.49 727.47 1448.46 730.392 1453.82C735.004 1462.2 736.72 1471.25 733.118 1476.85C726.657 1486.95 712.424 1481.54 703.4 1476.97L619.667 1434.55L702.145 1458.99Z" fill="#F4FCFF"/>
<path d="M623.538 1420.52C623.538 1446.91 654.162 1466.19 707.104 1494.24C703.644 1494.24 700.876 1497.65 675.962 1494.24C670.307 1493.47 621.116 1458.75 615.234 1446.91C619.04 1435.07 623.538 1403.97 623.538 1420.52Z" fill="#29282D"/>
<path d="M802.995 1461.07C803.427 1454.59 806.057 1453.33 807.318 1453.51L825.152 1454.59L822.99 1487.01L800.293 1499.98C795.97 1499.8 787.323 1497.82 787.323 1491.34C787.323 1483.23 795.429 1483.23 800.293 1478.37C805.157 1473.5 802.455 1469.18 802.995 1461.07Z" fill="#29282D"/>
</g>
<path d="M714.131 1432.34L736.947 1424.14L735.326 1445.76L760.185 1436.57L764.508 1456.02L784.504 1444.14" stroke="#2A2A2A" stroke-width="8.04943" stroke-linecap="round" stroke-linejoin="round"/>
<path d="M599.508 381.337C595.863 368.235 605.241 355.169 618.809 354.445L693.655 350.449C707.223 349.725 718.046 361.713 715.931 375.122L711.783 401.423C710.223 411.315 701.971 418.753 691.962 419.287L628.413 422.68C618.404 423.214 609.346 416.701 606.657 407.036L599.508 381.337Z" fill="#D39800" fill-opacity="0.3"/>
<path d="M596.632 390.438C597.321 393.3 600.199 395.071 603.059 394.394C605.919 393.718 607.679 390.849 606.99 387.987L596.632 390.438ZM599.005 377.563L604.184 376.337L604.137 376.142L604.075 375.95L599.005 377.563ZM613.866 357.787L613.559 352.469L613.327 352.482L613.097 352.514L613.866 357.787ZM697.355 353.33L697.685 348.017L697.367 347.995L697.048 348.012L697.355 353.33ZM714.785 368.816L720.09 369.317L720.095 369.268L720.098 369.22L714.785 368.816ZM708.178 382.751C707.914 385.679 710.076 388.276 713.006 388.552C715.936 388.828 718.526 386.679 718.79 383.751L708.178 382.751ZM606.99 387.987L604.184 376.337L593.826 378.788L596.632 390.438L606.99 387.987ZM604.075 375.95C604.082 375.972 604.011 375.736 603.988 375.251C603.966 374.792 603.991 374.191 604.122 373.493C604.379 372.123 605.046 370.362 606.613 368.523L598.489 361.598C592.845 368.222 592.746 375.484 593.935 379.175L604.075 375.95ZM606.613 368.523C608.371 366.46 610.212 365.099 611.746 364.241C612.515 363.811 613.193 363.515 613.726 363.323C613.992 363.227 614.21 363.16 614.376 363.117C614.458 363.096 614.523 363.081 614.569 363.071C614.616 363.061 614.638 363.058 614.635 363.059L613.097 352.514C609.819 352.978 603.688 355.496 598.489 361.598L606.613 368.523ZM614.173 363.104L697.662 358.647L697.048 348.012L613.559 352.469L614.173 363.104ZM697.025 358.642C697.947 358.704 699.803 359.009 701.77 359.748C703.762 360.496 705.416 361.518 706.444 362.73L714.559 355.864C711.924 352.757 708.433 350.89 705.48 349.781C702.504 348.663 699.618 348.145 697.685 348.017L697.025 358.642ZM706.444 362.73C707.879 364.423 708.659 365.924 709.066 367.011C709.513 368.204 709.449 368.714 709.471 368.413L720.098 369.22C720.318 366.148 718.906 360.99 714.559 355.864L706.444 362.73ZM709.479 368.316L708.178 382.751L718.79 383.751L720.09 369.317L709.479 368.316Z" fill="#877253"/>
<path d="M455.843 374.144C453.974 360.702 465.015 348.901 478.569 349.855L553.328 355.115C566.881 356.069 576.019 369.29 572.136 382.327L564.517 407.904C561.653 417.522 552.476 423.881 542.477 423.177L479.005 418.711C469.006 418.007 460.889 410.432 459.51 400.515L455.843 374.144Z" fill="#D39800" fill-opacity="0.3"/>
<path d="M451.778 382.819C452.081 385.742 454.699 387.853 457.626 387.535C460.553 387.216 462.681 384.589 462.378 381.666L451.778 382.819ZM455.847 370.343L461.147 369.766L461.127 369.566L461.091 369.369L455.847 370.343ZM473.22 352.561L473.624 347.25L473.392 347.234L473.16 347.238L473.22 352.561ZM556.615 358.429L557.65 353.201L557.337 353.141L557.019 353.118L556.615 358.429ZM571.838 375.936L577.033 377.086L577.044 377.038L577.054 376.991L571.838 375.936ZM563.429 388.942C562.777 391.813 564.575 394.655 567.445 395.29C570.315 395.924 573.169 394.112 573.821 391.241L563.429 388.942ZM462.378 381.666L461.147 369.766L450.547 370.919L451.778 382.819L462.378 381.666ZM461.091 369.369C461.095 369.391 461.056 369.148 461.097 368.664C461.137 368.206 461.242 367.613 461.465 366.937C461.902 365.61 462.798 363.945 464.597 362.314L457.461 354.446C450.982 360.321 449.917 367.51 450.604 371.316L461.091 369.369ZM464.597 362.314C466.615 360.485 468.622 359.362 470.258 358.7C471.078 358.368 471.79 358.158 472.344 358.033C472.62 357.971 472.846 357.932 473.016 357.91C473.1 357.899 473.166 357.892 473.214 357.888C473.262 357.884 473.284 357.884 473.281 357.884L473.16 347.238C469.847 347.294 463.43 349.036 457.461 354.446L464.597 362.314ZM472.816 357.872L556.211 363.74L557.019 353.118L473.624 347.25L472.816 357.872ZM555.579 363.657C556.486 363.831 558.286 364.363 560.138 365.338C562.013 366.325 563.518 367.543 564.376 368.871L573.34 363.064C571.14 359.657 567.927 357.376 565.146 355.912C562.343 354.436 559.55 353.567 557.65 353.201L555.579 363.657ZM564.376 368.871C565.574 370.727 566.147 372.312 566.406 373.44C566.691 374.679 566.56 375.177 566.621 374.881L577.054 376.991C577.682 373.972 576.968 368.683 573.34 363.064L564.376 368.871ZM566.642 374.786L563.429 388.942L573.821 391.241L577.033 377.086L566.642 374.786Z" fill="#877253"/>
<path d="M571.396 378.518C576.012 376.128 587.906 372.781 598.558 378.518" stroke="#877253" stroke-width="10.6519"/>
</svg>
