<svg width="1200" height="1600" viewBox="0 0 1200 1600" fill="none" xmlns="http://www.w3.org/2000/svg">
<path d="M686 1072.43C698.295 1133.26 702.394 1311 686 1405.4" stroke="#EBBAAA" stroke-width="93" stroke-linecap="round" stroke-linejoin="bevel"/>
<path d="M495.085 1071.38C476.22 1178.36 505.933 1340.37 520.277 1409.59" stroke="#EBBAAA" stroke-width="93" stroke-linecap="round" stroke-linejoin="bevel"/>
<path d="M413 982.373L601 1074.5L583.548 1209.27C583.548 1209.27 547 1236.23 481 1234.19C415 1232.14 383 1191.2 383 1191.2L413 982.373Z" fill="#27292D"/>
<ellipse cx="593.886" cy="1024.47" rx="116.371" ry="56.4258" fill="#27292D"/>
<path d="M585 1035.6L775 984.421L807 1197.34C807 1197.34 791 1217.81 713 1228.05C635 1238.28 607 1213.71 607 1213.71L585 1035.6Z" fill="#27292D"/>
<path d="M444 660.441C427 687.055 356 840.6 386 936.822" stroke="#EBBAAA" stroke-width="100" stroke-linecap="round" stroke-linejoin="bevel"/>
<path d="M750.001 657.37C767.001 683.984 818 814.498 796.001 940.405" stroke="#EBBAAA" stroke-width="100" stroke-linecap="round" stroke-linejoin="bevel"/>
<path d="M450.449 623.956C455.593 594.003 481.388 572.133 511.782 571.856L606.073 570.994L692.917 576.76C722.224 578.706 746.336 600.63 750.818 629.671C761.094 696.256 778.486 814.254 784 884.105C792 985.445 798.241 1006.36 764.355 1021.23C730.47 1036.11 467 1049.93 422.355 1010.95C377.711 971.976 400.644 916.942 406 884.105C409.895 860.226 436.32 706.213 450.449 623.956Z" fill="#3E4043"/>
<path d="M437 806.309L324 757.174L375.911 660.437C392.759 629.039 420.167 604.612 453.289 591.474L482 580.085L437 806.309Z" fill="#3E4043"/>
<path d="M754 812.45L876 768.434L816.161 659.459C799.251 628.665 772.134 604.731 739.478 591.778L710 580.085L754 812.45Z" fill="#3E4043"/>
<ellipse cx="601.5" cy="604.652" rx="74.5" ry="74.7254" fill="#242527"/>
<rect x="549" y="540.163" width="101" height="117.718" rx="50.5" fill="#EBBAAA"/>
<ellipse cx="447.163" cy="400.242" rx="58.0695" ry="56.3824" fill="#EBBAAA"/>
<ellipse cx="749.163" cy="404.612" rx="58.0695" ry="56.3824" fill="#EBBAAA"/>
<path d="M426.5 285.278C429.143 238.081 463.635 198.771 510.089 190.015L571.42 178.455C595.235 173.966 619.705 174.266 643.403 179.336L763 204.923L778 358.98L781.463 411.873C788.301 516.329 705.42 604.813 600.74 604.813C497.069 604.813 414.554 517.953 419.869 414.417L426.5 285.278Z" fill="#F4D4CA"/>
<path d="M475 514.061C468.963 489.343 451 492.906 437 493.588C447 530.439 505 604.141 599 604.141C707 604.141 754.333 530.439 767 493.588C753 485.399 741 493.588 731 514.061C713.649 549.584 649 572.408 622 546.817C609.506 534.975 586.554 537.278 573 546.817C525 580.597 481 538.628 475 514.061Z" fill="#D0C8C6"/>
<path d="M554 490.518C576.6 506.896 610.307 507.919 644.5 490.518" stroke="#C99584" stroke-width="15" stroke-linecap="round"/>
<path d="M640 471.068C640 484.887 648.5 496.659 667.5 496.659" stroke="#C99584" stroke-width="14" stroke-linecap="round"/>
<path d="M551.001 339.531L500 334.925L483.501 340.555" stroke="#272727" stroke-width="24" stroke-linecap="round"/>
<path d="M641.291 339.232L695.5 334.924L710.5 342.601" stroke="#272727" stroke-width="24" stroke-linecap="round"/>
<path d="M592.5 401.461C587 413.233 566.093 452.643 608.093 452.643" stroke="#EBBAAA" stroke-width="17"/>
<path d="M508.094 394.295C516.094 394.295 526.094 394.295 536.094 397.366" stroke="black" stroke-width="24" stroke-linecap="round"/>
<path d="M686 393.272C678 393.272 668 393.272 658 396.343" stroke="black" stroke-width="24" stroke-linecap="round"/>
<path d="M584.335 200.316C508.133 200.316 443.354 220.682 439.314 277.53C433.297 362.218 418.908 369.03 408 329.756C406.338 323.771 405.237 269.476 405 263.269C409.318 142.604 536.823 113.464 584.335 113.464C623.276 145.899 660.547 200.316 584.335 200.316Z" fill="#272727"/>
<path d="M415.287 277.355C415.024 269.098 420.172 262.231 426.615 262.231C433.301 262.231 435.632 301.319 435 309.845L432.5 422.332C428.857 426.581 425.468 426.824 423.583 426.824C421.614 426.824 420.004 424.841 419.919 422.332L415.287 277.355Z" fill="#272727"/>
<path d="M786.499 281.696C782.79 265.317 777.906 269.397 771.463 269.397C764.777 269.397 759.545 276.433 760.177 284.577L770.852 422.545C771.031 424.852 772.61 426.604 774.495 426.604C776.464 426.604 782.707 424.942 782.791 422.545L786.5 334.925L786.499 281.696Z" fill="#272727"/>
<path d="M629.733 203.387C708.256 203.387 746.496 235.564 749.734 293.467C757.762 338.878 781 401.972 791.734 270.947C781.734 133.78 666.528 120.473 617.568 120.473C577.442 152.908 551.202 203.387 629.733 203.387Z" fill="#272727"/>
<path d="M474.959 151.361L461 182.968L595.78 173.75L745 212.6V194.162L734.41 188.236V173.75H720.932V151.361H703.603L695 137.363L684.349 134.241L675.203 117.12L659.319 122.388L654.505 111.853H638.139L629.5 104.606L615.997 111.853L610.22 100L600.593 111.853L590.966 100L572.675 111.853L560 104.606L550.5 117.12L539.942 111.853L530.315 122.388L526.464 111.853L514.5 129.174L504 126.103L485.549 154.654L474.959 151.361Z" fill="#272727"/>
<path d="M525 247.867C525 247.867 510 236.617 510 207.482C510 178.346 490 167.56 490 167.56L696 179.843C696 179.843 695.5 179.892 688 212.088C680.5 244.284 613.5 252.522 613.5 252.522L607 242.797L592.067 247.867L576.615 236.617L557.043 247.867L550.862 236.617L525 247.867Z" fill="#272727"/>
<path d="M550.754 741.123C541.405 761.231 527.121 801.562 526.714 825.486H673.625C670.169 802.611 661.605 762.599 649.585 741.124C624.185 724.32 557.28 727.088 550.754 741.123Z" fill="#FD90AA"/>
<path d="M581.473 747.56L618.868 779.003" stroke="white" stroke-width="16.0266"/>
<path d="M618.867 747.56L581.472 779.003" stroke="white" stroke-width="16.0266"/>
<path d="M512.691 761.231C514.695 778.32 522.574 811.131 538.067 805.663C553.559 800.194 547.193 763.282 542.073 745.51" stroke="#FEC899" stroke-width="14.691" stroke-linecap="round"/>
<path d="M689.393 762.598C687.389 779.687 679.51 812.498 664.017 807.029C648.525 801.561 654.891 764.649 660.011 746.876" stroke="#FEC899" stroke-width="14.691" stroke-linecap="round"/>
<path d="M505.277 817.732L498 867.866H699L692.889 822.358C680.055 806.773 646.914 794.042 597.498 794.042C546.748 794.042 517.092 809.835 505.277 817.732Z" fill="#F37694"/>
<ellipse cx="598.834" cy="866.499" rx="100.166" ry="38.2792" fill="#D23C61"/>
<path d="M676.295 873.451C676.295 917.179 641.913 952.628 599.501 952.628C557.089 952.628 522.707 917.179 522.707 873.451C542.476 825.027 662.609 830.506 676.295 873.451Z" fill="#FEC899"/>
<ellipse cx="565.445" cy="875.133" rx="15.3588" ry="15.7218" fill="#2C3139"/>
<ellipse cx="632.222" cy="875.133" rx="15.3588" ry="15.7218" fill="#2C3139"/>
<path d="M582.139 896.323C582.139 894.11 580.346 892.316 578.133 892.316C575.92 892.316 574.126 894.11 574.126 896.323H582.139ZM602.84 896.323C602.84 894.11 601.047 892.316 598.834 892.316C596.621 892.316 594.827 894.11 594.827 896.323H602.84ZM574.126 896.323C574.126 905.68 581.395 910.864 588.351 911.093C591.837 911.208 595.486 910.119 598.302 907.548C601.177 904.921 602.84 901.059 602.84 896.323H594.827C594.827 899.106 593.903 900.712 592.897 901.631C591.831 902.606 590.305 903.14 588.616 903.084C585.221 902.972 582.139 900.637 582.139 896.323H574.126Z" fill="#CB7646"/>
<path d="M603.509 896.323C603.509 894.11 601.715 892.316 599.502 892.316C597.289 892.316 595.495 894.11 595.495 896.323H603.509ZM624.21 896.323C624.21 894.11 622.416 892.316 620.203 892.316C617.99 892.316 616.196 894.11 616.196 896.323H624.21ZM595.495 896.323C595.495 905.68 602.764 910.864 609.72 911.093C613.206 911.208 616.856 910.119 619.671 907.548C622.546 904.921 624.21 901.059 624.21 896.323H616.196C616.196 899.106 615.272 900.712 614.266 901.631C613.2 902.606 611.674 903.14 609.985 903.084C606.59 902.972 603.509 900.637 603.509 896.323H595.495Z" fill="#CB7646"/>
<g filter="url(#filter0_i)">
<path d="M580.96 1465.16L576.144 1407.18L562.468 1358.27C562.468 1358.27 551.031 1358.27 547.531 1376.85C533.031 1391.69 479.531 1398.34 474.031 1365.01C459.531 1361.43 454.861 1365.01 454.861 1365.01L399.802 1417.95L358.574 1436.65L344.981 1452.68L343.044 1479.73L580.96 1465.16Z" fill="#35393F"/>
</g>
<path d="M436 1389.78L451 1402.58L424.5 1398.99L438 1414.86L415 1408.72L428 1423.05L403 1419.47L415 1431.75" stroke="#66696D" stroke-width="7" stroke-linecap="round" stroke-linejoin="round"/>
<g filter="url(#filter1_i)">
<path d="M465.529 1349.26C460.33 1348.03 446.03 1369.22 439.529 1379.97C439.529 1390.21 457.527 1391.74 471.027 1388.67C474.029 1379.97 480.029 1369.63 480.029 1360.98C480.029 1356.58 472.028 1350.8 465.529 1349.26Z" fill="#495059"/>
</g>
<path d="M585.704 1463.39C582.582 1457.27 576.212 1453.44 569.423 1453.6L478.763 1455.68C469.225 1455.9 461.902 1463.8 462.408 1473.33C462.914 1482.85 471.056 1490.4 480.595 1490.18L571.255 1488.1C583.797 1487.81 591.47 1474.69 585.704 1463.39Z" fill="#D7E3EE"/>
<rect width="119.117" height="20.5444" rx="10.2722" transform="matrix(-0.999715 0.0229633 0.0530132 0.998562 498.697 1461.76)" fill="#D7E3EE"/>
<path d="M442.717 1476.72C442.317 1469.18 435.868 1463.2 428.315 1463.37L348.771 1465.2C340.836 1465.38 335.559 1473.16 338.262 1480.7C339.968 1485.45 344.46 1488.71 349.475 1488.83L429.128 1490.7C436.943 1490.88 443.131 1484.52 442.717 1476.72Z" fill="#D7E3EE"/>
<rect width="51.7533" height="18.4249" rx="9.21246" transform="matrix(-0.999361 0.0357436 0.0340753 0.999419 577.721 1461.44)" fill="#35393F"/>
<g filter="url(#filter2_i)">
<path d="M622.042 1468.23L626.858 1410.25L640.534 1361.34C640.534 1361.34 651.971 1361.34 655.471 1379.92C669.971 1394.76 723.471 1401.41 728.971 1368.08C743.471 1364.5 748.141 1368.08 748.141 1368.08L803.2 1421.02L844.428 1439.72L858.021 1455.75L859.958 1482.8L622.042 1468.23Z" fill="#35393F"/>
</g>
<path d="M767.002 1392.85L752.002 1405.65L778.502 1402.06L765.002 1417.93L788.002 1411.79L775.002 1426.12L800.002 1422.54L788.002 1434.82" stroke="#66696D" stroke-width="7" stroke-linecap="round" stroke-linejoin="round"/>
<g filter="url(#filter3_i)">
<path d="M737.473 1352.33C742.672 1351.1 756.972 1372.29 763.473 1383.04C763.473 1393.28 745.475 1394.81 731.975 1391.74C728.973 1383.04 722.973 1372.7 722.973 1364.05C722.973 1359.65 730.973 1353.87 737.473 1352.33Z" fill="#495059"/>
</g>
<path d="M617.298 1466.46C620.42 1460.34 626.79 1456.51 633.579 1456.67L724.239 1458.75C733.777 1458.97 741.1 1466.87 740.594 1476.4C740.088 1485.92 731.945 1493.47 722.407 1493.25L631.747 1491.17C619.205 1490.88 611.532 1477.76 617.298 1466.46Z" fill="#D7E3EE"/>
<rect width="119.117" height="20.5444" rx="10.2722" transform="matrix(0.999715 0.0229633 -0.0530132 0.998562 704.305 1464.83)" fill="#D7E3EE"/>
<path d="M760.284 1479.79C760.685 1472.25 767.133 1466.27 774.687 1466.44L854.231 1468.27C862.166 1468.45 867.443 1476.23 864.74 1483.77C863.034 1488.52 858.542 1491.78 853.527 1491.9L773.874 1493.77C766.059 1493.95 759.871 1487.59 760.284 1479.79Z" fill="#D7E3EE"/>
<rect width="51.7533" height="18.4249" rx="9.21246" transform="matrix(0.999361 0.0357436 -0.0340753 0.999419 625.627 1464.51)" fill="#35393F"/>
<defs>
<filter id="filter0_i" x="343.044" y="1358.27" width="237.916" height="121.459" filterUnits="userSpaceOnUse" color-interpolation-filters="sRGB">
<feFlood flood-opacity="0" result="BackgroundImageFix"/>
<feBlend mode="normal" in="SourceGraphic" in2="BackgroundImageFix" result="shape"/>
<feColorMatrix in="SourceAlpha" type="matrix" values="0 0 0 0 0 0 0 0 0 0 0 0 0 0 0 0 0 0 127 0" result="hardAlpha"/>
<feOffset dx="-13" dy="1"/>
<feComposite in2="hardAlpha" operator="arithmetic" k2="-1" k3="1"/>
<feColorMatrix type="matrix" values="0 0 0 0 0.952941 0 0 0 0 0.462745 0 0 0 0 0.580392 0 0 0 1 0"/>
<feBlend mode="normal" in2="shape" result="effect1_innerShadow"/>
</filter>
<filter id="filter1_i" x="439.529" y="1349.21" width="40.5" height="40.8721" filterUnits="userSpaceOnUse" color-interpolation-filters="sRGB">
<feFlood flood-opacity="0" result="BackgroundImageFix"/>
<feBlend mode="normal" in="SourceGraphic" in2="BackgroundImageFix" result="shape"/>
<feColorMatrix in="SourceAlpha" type="matrix" values="0 0 0 0 0 0 0 0 0 0 0 0 0 0 0 0 0 0 127 0" result="hardAlpha"/>
<feOffset dx="-10" dy="4"/>
<feComposite in2="hardAlpha" operator="arithmetic" k2="-1" k3="1"/>
<feColorMatrix type="matrix" values="0 0 0 0 0.952941 0 0 0 0 0.462745 0 0 0 0 0.580392 0 0 0 1 0"/>
<feBlend mode="normal" in2="shape" result="effect1_innerShadow"/>
</filter>
<filter id="filter2_i" x="622.042" y="1361.34" width="237.916" height="121.459" filterUnits="userSpaceOnUse" color-interpolation-filters="sRGB">
<feFlood flood-opacity="0" result="BackgroundImageFix"/>
<feBlend mode="normal" in="SourceGraphic" in2="BackgroundImageFix" result="shape"/>
<feColorMatrix in="SourceAlpha" type="matrix" values="0 0 0 0 0 0 0 0 0 0 0 0 0 0 0 0 0 0 127 0" result="hardAlpha"/>
<feOffset dx="13" dy="3"/>
<feComposite in2="hardAlpha" operator="arithmetic" k2="-1" k3="1"/>
<feColorMatrix type="matrix" values="0 0 0 0 0.952941 0 0 0 0 0.462745 0 0 0 0 0.580392 0 0 0 1 0"/>
<feBlend mode="normal" in2="shape" result="effect1_innerShadow"/>
</filter>
<filter id="filter3_i" x="722.973" y="1352.28" width="40.5" height="40.8721" filterUnits="userSpaceOnUse" color-interpolation-filters="sRGB">
<feFlood flood-opacity="0" result="BackgroundImageFix"/>
<feBlend mode="normal" in="SourceGraphic" in2="BackgroundImageFix" result="shape"/>
<feColorMatrix in="SourceAlpha" type="matrix" values="0 0 0 0 0 0 0 0 0 0 0 0 0 0 0 0 0 0 127 0" result="hardAlpha"/>
<feOffset dx="-10" dy="4"/>
<feComposite in2="hardAlpha" operator="arithmetic" k2="-1" k3="1"/>
<feColorMatrix type="matrix" values="0 0 0 0 0.952941 0 0 0 0 0.462745 0 0 0 0 0.580392 0 0 0 1 0"/>
<feBlend mode="normal" in2="shape" result="effect1_innerShadow"/>
</filter>
</defs>
</svg>
