<svg width="1200" height="1600" viewBox="0 0 1200 1600" fill="none" xmlns="http://www.w3.org/2000/svg">
<rect x="568.399" y="501.23" width="223.559" height="181.176" fill="#503216"/>
<path d="M681.696 1011.36C693.835 1070.06 691.812 1287.67 681.696 1358.52" stroke="#F6DDD6" stroke-width="60" stroke-linecap="round" stroke-linejoin="bevel"/>
<path d="M556.531 1005.28C544.392 1063.99 546.415 1281.6 556.531 1352.45" stroke="#F6DDD6" stroke-width="60" stroke-linecap="round" stroke-linejoin="bevel"/>
<path d="M422.732 793.742C422.732 861.557 388.339 910.14 372.153 954.675" stroke="#FBE8E3" stroke-width="74" stroke-linecap="round" stroke-linejoin="bevel"/>
<path d="M401.031 1004.95L436.436 895.636H659.995L830.952 948.268V1019.12L669.099 1041.39H493.084L401.031 1004.95Z" fill="#CEAF9A"/>
<path d="M705.974 1066.01L527.937 1045.77L489.497 948.602L730.252 958.724L705.974 1066.01Z" fill="#6A8AB9"/>
<path d="M607.851 971.882H772.738L725.127 1304.88H638.181V1145.74L607.851 971.882Z" fill="#6A8AB9"/>
<path d="M461.172 974.918H608.863L592.678 1167.66V1299.82L513.774 1286.97L461.172 974.918Z" fill="#6A8AB9"/>
<rect width="92.0607" height="53.6401" rx="14" transform="matrix(0.930347 0.366682 -0.366321 0.930489 381.687 783.621)" fill="#E1C6B3"/>
<path d="M457.126 884.836H778.808L773.75 976.993H459.149L457.126 884.836Z" fill="#5C7CAC"/>
<path d="M521.867 901.031L528.948 974.918" stroke="#51709D" stroke-width="14" stroke-linecap="round"/>
<path d="M704.962 901.031L697.881 974.918" stroke="#51709D" stroke-width="14" stroke-linecap="round"/>
<path d="M428.643 628.127C442.917 581.862 495.946 560.25 538.486 583.361C577.282 604.437 590.33 653.844 566.999 691.326L499.155 800.321C483.507 825.459 453.708 837.985 424.803 831.573C373.303 820.15 352.573 757.911 386.938 717.887L397.973 705.035C405.119 696.711 410.477 687.005 413.712 676.519L428.643 628.127Z" fill="#E1C6B3"/>
<rect x="489.497" y="578.154" width="233.675" height="328.95" rx="112" fill="#EFD6C5"/>
<path d="M554.238 905.874C509.728 905.874 460.714 989.766 401.031 1005.96C388.892 940.288 424.477 885.376 434.871 835.241C443.539 793.432 455.103 755.907 455.103 713.565V626.52C480.729 613.699 533.197 575.724 529.96 606.494C525.913 644.956 523.89 713.565 612.909 713.565C701.928 713.565 651.315 626.52 712.044 626.52C797.016 626.52 842.079 975.596 833.986 1012.03C827.512 1041.18 803.086 983.232 788.924 966.821L750.484 940.288L692.824 905.874C655.058 907.224 598.747 905.874 554.238 905.874Z" fill="#EFD4C5"/>
<mask id="mask0" mask-type="alpha" maskUnits="userSpaceOnUse" x="394" y="606" width="434" height="395">
<path d="M552.408 901.875C508.408 901.875 450.408 937.704 394.408 969.489C394.408 930.229 424.132 881.623 434.408 832.09C442.976 790.783 454.408 753.709 454.408 711.875V638.159C479.741 625.492 499.955 606.09 528.408 606.089C566.618 606.089 522.408 711.875 610.408 711.875C698.408 711.875 648.374 625.875 708.408 625.875C792.408 625.875 834.408 954.089 826.408 990.089C820.008 1018.89 798.408 978.304 784.408 962.089L746.408 935.875L689.408 901.875C652.074 903.208 596.408 901.875 552.408 901.875Z" fill="#EFC5C5"/>
</mask>
<g mask="url(#mask0)">
<path d="M509.728 764.39C509.728 843.338 554.439 913.582 575.48 919.25" stroke="#DDC1AD" stroke-width="14"/>
<path d="M714.066 840.302C719.799 866.28 703.951 911.153 672.592 919.25" stroke="#DDC1AD" stroke-width="14"/>
<path d="M635.163 851.436C619.99 877.752 635.163 887.873 619.99 909.128" stroke="#DDC1AD" stroke-width="14"/>
</g>
<ellipse cx="777.338" cy="947.256" rx="91.0421" ry="91.0938" fill="#6C4D4B"/>
<path d="M882.6 954.341C882.6 1001.89 844.075 1040.43 796.558 1040.43C749.041 1040.43 710.516 1001.89 710.516 954.341C710.516 906.79 749.041 868.247 796.558 868.247C844.075 868.247 882.6 906.79 882.6 954.341Z" fill="#97655B" stroke="#E3A490" stroke-width="10"/>
<rect width="140.683" height="233.685" rx="70.3417" transform="matrix(0.275493 -0.961303 0.96122 0.275782 542.657 707.959)" fill="#EFD6C5"/>
<path d="M698.435 928.025L688.319 662.841" stroke="#E3A490" stroke-width="19" stroke-linecap="round"/>
<path d="M687.308 932.58L707.539 936.628" stroke="#E3A490" stroke-width="11"/>
<path d="M756.553 690.503C801.063 769.451 833.433 923.298 817.248 967.833" stroke="#FBE8E3" stroke-width="74" stroke-linecap="round" stroke-linejoin="bevel"/>
<ellipse cx="607.345" cy="623.194" rx="69.2931" ry="72.369" fill="#DFC5B2"/>
<rect x="566.376" y="554.874" width="78.2017" height="117.369" rx="39.1009" fill="#EED1C9"/>
<rect width="304.121" height="146.058" rx="73.029" transform="matrix(0.990257 -0.139251 0.139096 0.990279 383.842 469.049)" fill="#503216"/>
<ellipse cx="446.403" cy="420.178" rx="59.0857" ry="56.0764" fill="#EBBAAA"/>
<path d="M744.053 348.52C725.618 271.606 646.119 232.086 615.302 222.64C601.233 196.327 603.243 141.804 625.351 137.63C657.508 131.558 743.903 170.015 782.089 244.905C830.099 339.059 819.616 592.749 808.027 675.74C802.091 718.245 771.877 604.898 719.621 612.994C743.862 505.72 744.053 415.313 744.053 415.313C744.053 415.313 754.241 391.025 744.053 348.52Z" fill="#62360D"/>
<ellipse cx="741.546" cy="420.762" rx="59.0857" ry="56.0764" fill="#EBBAAA"/>
<path d="M442.505 313.729C442.505 232.342 512.252 166.365 598.288 166.365C684.325 166.365 754.072 232.342 754.072 313.729V460.3C741.508 555.373 666.13 607.664 598.288 607.664C530.447 607.664 451.718 544.282 442.505 460.3V313.729Z" fill="#F6DDD6"/>
<path fill-rule="evenodd" clip-rule="evenodd" d="M556.813 493.789V509.835C556.813 534.482 576.794 554.463 601.442 554.463C626.089 554.463 646.07 534.482 646.07 509.835V493.789H556.813Z" fill="#393939"/>
<mask id="mask1" mask-type="alpha" maskUnits="userSpaceOnUse" x="556" y="490" width="91" height="65">
<path fill-rule="evenodd" clip-rule="evenodd" d="M556.887 490.835C556.838 491.691 556.813 492.554 556.813 493.423V509.835C556.813 534.483 576.794 554.463 601.442 554.463C626.089 554.463 646.07 534.483 646.07 509.835V493.423C646.07 492.554 646.045 491.691 645.996 490.835H556.887Z" fill="#434343"/>
</mask>
<g mask="url(#mask1)">
<ellipse cx="601.441" cy="554.122" rx="26.9131" ry="14.6573" fill="#FF6C6C"/>
<rect x="556.813" y="493.789" width="89.2563" height="18.4068" fill="white"/>
</g>
<path d="M605.719 139.619C642.064 122.897 736.021 164.96 778.538 248.403C778.538 248.403 801.584 298.745 807.232 333.538C812.804 367.865 794.535 385.227 794.535 385.227L754.072 363.37C754.072 363.37 723.724 316.085 685.284 283.891C646.844 251.697 614.073 242.419 604.03 235.324C593.988 228.23 592.806 166.984 605.719 139.619Z" fill="#62360D"/>
<path d="M499.951 354.932L557.244 352.429" stroke="#62360D" stroke-width="12" stroke-linecap="round"/>
<ellipse cx="498.095" cy="467.384" rx="31.8647" ry="31.8828" fill="#F2CACA"/>
<path d="M493.603 349.87C506.038 295.165 567.986 242.824 597.319 233.369C609.416 229.47 617.508 136 597.319 136C546.211 136 465.143 187.411 436.213 233.369C388.705 308.839 371.904 393.45 397.193 583.885C403.381 630.486 388.286 650.747 377.764 661.89C406.777 691.676 515.5 702.412 515.5 702.412C515.5 702.412 533.804 679.655 521.342 634.538C498.835 553.054 481.169 404.575 493.603 349.87Z" fill="#7D430D"/>
<path d="M453.632 239.24C433.401 265.556 401.03 340.453 401.03 409.279" stroke="#AD6817" stroke-width="10" stroke-linecap="round"/>
<path d="M456.667 285.799C444.528 318.188 440.482 329.321 434.413 352.601" stroke="#AD6817" stroke-width="10" stroke-linecap="round"/>
<path d="M517.654 401.399L544.59 397.14" stroke="black" stroke-width="10" stroke-linecap="round"/>
<path d="M647.121 394.531L674.057 398.79" stroke="black" stroke-width="10" stroke-linecap="round"/>
<path d="M539.488 397.14L539.488 425.918" stroke="black" stroke-width="24" stroke-linecap="round"/>
<path d="M653.315 394.531L653.315 423.31" stroke="black" stroke-width="24" stroke-linecap="round"/>
<path d="M634.853 350.568L692.094 354.071" stroke="#62360D" stroke-width="12" stroke-linecap="round"/>
<path d="M593.447 426.258C591.42 441.038 578.675 467.99 600.398 467.99" stroke="#EBBAAA" stroke-width="17"/>
<ellipse cx="765.999" cy="476.688" rx="12.1647" ry="12.1716" fill="#F6E7D6"/>
<ellipse cx="762.432" cy="501.46" rx="8.59842" ry="8.60331" fill="#F6E7D6"/>
<ellipse cx="698.387" cy="467.384" rx="31.8647" ry="31.8828" fill="#F2CACA"/>
<path d="M682.986 695.703C670.683 663.986 683.859 628.058 713.751 611.819C750.846 591.666 797.117 610.081 810.227 650.214L837.09 732.451C844.563 755.329 837.829 780.466 819.921 796.546C809.584 805.826 796.382 811.283 782.513 812.007L779.41 812.17C749.437 813.735 721.848 795.88 710.99 767.891L682.986 695.703Z" fill="#E1C6B3"/>
<path d="M504.67 1273.5H597.735L594.7 1317.03H512.257L504.67 1273.5Z" fill="#5C7CAC"/>
<path d="M635.164 1273.5H733.287L724.183 1317.03H637.187L635.164 1273.5Z" fill="#5C7CAC"/>
<mask id="path-56-inside-1" fill="white">
<rect x="585.596" y="904.067" width="58.6716" height="75.9115" rx="6"/>
</mask>
<rect x="585.596" y="904.067" width="58.6716" height="75.9115" rx="6" stroke="#51709D" stroke-width="28" mask="url(#path-56-inside-1)"/>
<rect width="92.0592" height="53.6409" rx="14" transform="matrix(0.945462 -0.325734 0.325403 0.945575 745.708 795.212)" fill="#E1C6B3"/>
<path d="M652.392 1341.23L714.089 1342.3L706.544 1397.85L644.341 1396.76L652.392 1341.23Z" fill="white"/>
<path d="M652.609 1342.92C652.773 1341.94 653.627 1341.23 654.617 1341.25L712.893 1342.26C714.075 1342.29 714.982 1343.32 714.844 1344.5L714.131 1350.61C714.012 1351.63 713.137 1352.39 712.109 1352.37L653.525 1351.35C652.303 1351.33 651.386 1350.23 651.588 1349.02L652.609 1342.92Z" fill="#FFA970"/>
<path d="M651.297 1360.08C651.461 1359.11 652.315 1358.4 653.305 1358.42L711.581 1359.43C712.763 1359.45 713.67 1360.49 713.532 1361.67L712.819 1367.78C712.7 1368.8 711.825 1369.56 710.797 1369.54L652.213 1368.52C650.991 1368.5 650.074 1367.4 650.276 1366.19L651.297 1360.08Z" fill="#FFA970"/>
<path fill-rule="evenodd" clip-rule="evenodd" d="M680.718 1380.15C701.169 1380.51 711.575 1370.33 711.788 1358.17C711.788 1358.17 711.788 1358.17 711.788 1358.16L722.344 1358.62L762.246 1394.81L791.869 1407.32C798.287 1414.46 802.225 1423.48 803.094 1433.05L803.466 1437.14L633.651 1429.95L636.38 1389.5L645.538 1355.27L653.757 1353.5C653.366 1354.68 653.147 1355.9 653.125 1357.15C652.913 1369.31 666.154 1379.9 680.718 1380.15Z" fill="#4CB4D4"/>
<path d="M683.448 1387.79C653.089 1390.43 653.577 1369.89 642.865 1365.32C637.667 1373.33 634.235 1396.04 634.068 1405.66C661.626 1420.82 705.417 1404.37 784.461 1426C789.221 1423.72 788.471 1416.73 783.337 1415.51L750.382 1407.69C742.337 1404.85 713.808 1385.15 683.448 1387.79Z" fill="#FFC9C6"/>
<path d="M629.573 1435.17C632.071 1427.27 639.467 1421.95 647.753 1422.09L700.023 1423.01C710.362 1423.19 718.598 1431.72 718.418 1442.06C718.238 1452.4 709.709 1460.63 699.369 1460.45L647.1 1459.54C634.579 1459.32 625.797 1447.11 629.573 1435.17Z" fill="#D7E3EE"/>
<rect width="84.9726" height="22.2674" rx="11.1337" transform="matrix(0.999848 0.0174623 -0.0174425 0.999848 692.324 1429.96)" fill="#D7E3EE"/>
<path d="M732.526 1445.31C732.667 1437.22 739.337 1430.78 747.425 1430.92L794.853 1431.75C803.033 1431.89 809.039 1439.48 807.3 1447.47C806.058 1453.18 801.151 1457.36 795.317 1457.67L747.948 1460.19C739.464 1460.64 732.378 1453.8 732.526 1445.31Z" fill="#D7E3EE"/>
<rect width="50.5789" height="14.1702" rx="7.08508" transform="matrix(0.999848 0.0174623 -0.0174425 0.999848 652.808 1433.32)" fill="#B6C2D3"/>
<rect width="21.2432" height="9.10937" rx="4.55468" transform="matrix(0.999389 -0.0349193 0.0348797 0.999393 744.86 1443.57)" fill="#B6C2D3"/>
<rect width="13.4046" height="9.10937" rx="4.55468" transform="matrix(0.999389 -0.0349193 0.0348797 0.999393 771.019 1442.57)" fill="#B6C2D3"/>
<rect width="18.2084" height="14.1702" rx="7.08508" transform="matrix(0.999848 0.0174623 -0.0174425 0.999848 627.522 1432.88)" fill="#B6C2D3"/>
<path d="M585.516 1340.14L523.847 1342.29L532.36 1397.7L594.534 1395.53L585.516 1340.14Z" fill="white"/>
<path d="M586.34 1341.82C586.159 1340.84 585.293 1340.15 584.304 1340.18L526.054 1342.22C524.872 1342.26 523.984 1343.31 524.142 1344.48L524.962 1350.58C525.099 1351.6 525.986 1352.35 527.014 1352.31L585.571 1350.27C586.793 1350.22 587.691 1349.1 587.468 1347.9L586.34 1341.82Z" fill="#FFA970"/>
<path d="M586.938 1358.94C586.757 1357.97 585.891 1357.27 584.902 1357.31L526.652 1359.34C525.47 1359.38 524.582 1360.44 524.74 1361.61L525.56 1367.7C525.697 1368.72 526.584 1369.47 527.612 1369.44L586.169 1367.39C587.391 1367.35 588.289 1366.23 588.066 1365.03L586.938 1358.94Z" fill="#FFA970"/>
<path fill-rule="evenodd" clip-rule="evenodd" d="M557.872 1379.52C537.43 1380.23 526.848 1370.24 526.424 1358.09C526.424 1358.08 526.424 1358.08 526.423 1358.07L515.876 1358.72L476.612 1395.6L447.212 1408.63C440.919 1415.88 437.139 1424.97 436.437 1434.54L436.137 1438.64L605.8 1428.48L602.366 1388.09L592.613 1354.02L584.364 1352.4C584.776 1353.58 585.016 1354.79 585.06 1356.04C585.484 1368.19 572.43 1379.01 557.872 1379.52Z" fill="#4CB4D4"/>
<path d="M555.275 1387.21C585.676 1389.32 584.83 1368.79 595.46 1364.03C600.797 1371.94 604.625 1394.6 604.96 1404.21C577.67 1419.85 533.599 1404.17 454.944 1427.17C450.146 1424.98 450.773 1417.97 455.886 1416.66L488.699 1408.27C496.693 1405.29 524.874 1385.1 555.275 1387.21Z" fill="#FFC9C6"/>
<path d="M609.969 1433.64C607.333 1425.78 599.845 1420.59 591.563 1420.88L539.317 1422.7C528.982 1423.07 520.896 1431.74 521.257 1442.07C521.618 1452.41 530.289 1460.49 540.624 1460.13L592.869 1458.31C605.384 1457.87 613.952 1445.51 609.969 1433.64Z" fill="#D7E3EE"/>
<rect width="84.9727" height="22.2674" rx="11.1337" transform="matrix(-0.99939 0.0349193 0.0348797 0.999392 547.136 1429.52)" fill="#D7E3EE"/>
<path d="M507.209 1445.57C506.926 1437.49 500.145 1431.16 492.061 1431.45L444.654 1433.1C436.478 1433.39 430.605 1441.08 432.483 1449.04C433.825 1454.73 438.804 1458.82 444.643 1459.02L492.048 1460.72C500.538 1461.02 507.505 1454.06 507.209 1445.57Z" fill="#D7E3EE"/>
<rect width="50.579" height="14.1701" rx="7.08507" transform="matrix(-0.99939 0.0349193 0.0348797 0.999392 586.705 1432.19)" fill="#B6C2D3"/>
<rect width="21.2432" height="9.10936" rx="4.55468" transform="matrix(-0.999845 -0.0174623 -0.0174425 0.99985 494.845 1444.05)" fill="#B6C2D3"/>
<rect width="13.4046" height="9.10936" rx="4.55468" transform="matrix(-0.999845 -0.0174623 -0.0174425 0.99985 468.673 1443.5)" fill="#B6C2D3"/>
<rect width="18.2084" height="14.1701" rx="7.08507" transform="matrix(-0.99939 0.0349193 0.0348797 0.999392 611.979 1431.31)" fill="#B6C2D3"/>
<path d="M344.487 928.487L364 947.669" stroke="#BBBEC3" stroke-width="10" stroke-linecap="round"/>
<circle cx="331.287" cy="915.287" r="32.713" fill="#DE7761"/>
<circle cx="298" cy="883.148" r="32.713" fill="#C96852"/>
<circle cx="265.287" cy="848.139" r="32.1391" fill="#F2856D"/>
<path d="M233.148 817.148L252.661 836.33" stroke="#BBBEC3" stroke-width="10" stroke-linecap="round"/>
</svg>
