<svg width="1200" height="1600" viewBox="0 0 1200 1600" fill="none" xmlns="http://www.w3.org/2000/svg">
<path d="M718 1210C657.2 1201.2 548.667 1206.33 502 1210L443 1114L472 927L722 974C747.333 1050.67 778.8 1218.8 718 1210Z" fill="#3A4136"/>
<path d="M674.696 989.602C686.835 1048.31 688 1296.25 688 1382.25" stroke="#F6DDD6" stroke-width="60" stroke-linecap="round" stroke-linejoin="bevel"/>
<path d="M557 974C544.861 1032.7 534 1272.25 549.531 1369.25" stroke="#F6DDD6" stroke-width="60" stroke-linecap="round" stroke-linejoin="bevel"/>
<ellipse cx="601" cy="958.245" rx="124" ry="68" fill="#2A2A2A"/>
<path d="M468 923.417L596 933L581 1359C581 1359 564.5 1365.5 547 1366C529.5 1366.5 515 1359 515 1359L468 923.417Z" fill="#2B2B2B"/>
<path d="M515 1360L513.5 1344.5C534.7 1353.7 568 1348.33 581.5 1344.5V1360C575.667 1362 559.7 1366 546.5 1366C533.3 1366 520 1362 515 1360Z" fill="#3F3F40"/>
<ellipse cx="591.636" cy="956.925" rx="118.297" ry="60.9254" fill="#2B2B2B"/>
<path d="M618.283 935.602H744.195L719 1362C719 1362 707 1368 688 1368C669 1368 657 1362 657 1362L618.283 935.602Z" fill="#2B2B2B"/>
<path d="M657.5 1362.5L656 1347C677.2 1356.2 706.5 1350.83 720 1347V1362.5C714.167 1364.5 702.2 1368.5 689 1368.5C675.8 1368.5 662.5 1364.5 657.5 1362.5Z" fill="#3F3F40"/>
<rect width="326.434" height="146.058" rx="73.029" transform="matrix(0.999961 -0.00880488 0.00864821 0.999963 446.35 378.347)" fill="#2D2622"/>
<path d="M499.408 633.656C499.408 701.471 446.408 790.724 421.408 889.656" stroke="#F6DDD6" stroke-width="74" stroke-linecap="round" stroke-linejoin="bevel"/>
<rect x="465.408" y="531.656" width="270" height="258" rx="112" fill="#E1E8EE"/>
<path d="M735.408 634.656C779.917 713.604 825.288 855.452 809.102 899.986" stroke="#F6DDD6" stroke-width="74" stroke-linecap="round" stroke-linejoin="bevel"/>
<path d="M752.815 550.345C772.015 560.745 788 606 780 626L699.815 611.345C674.148 585.012 566.933 518.402 578.933 509.602C593.933 498.602 672.933 525.602 699.815 532.602C713.07 536.053 728.815 537.345 752.815 550.345Z" fill="#414A3B"/>
<path d="M445.408 785.53L359 713L463.408 575.53L496.408 557.53L547.408 541.53L534.408 676.53L445.408 785.53Z" fill="#A97219"/>
<path d="M727.408 763.53L843.408 707.53L741.408 571.53L677.408 541.53L642.408 553.285L677.408 684.656L727.408 763.53Z" fill="#A97219"/>
<path d="M476.651 683.382L496.309 615.456L529.26 546.53L578.581 556.519L670.647 546.53C731.821 639.43 719.064 670.396 741.144 763.296C763.223 856.195 743.106 932.609 741.144 939.602C739.181 946.594 728.387 944.097 728.387 944.097L670.647 909.138C670.647 909.138 640.56 915.631 595.911 914.132C551.262 912.634 524.276 904.643 524.276 904.643C524.276 904.643 489.93 920.622 476.651 936.105C463.371 951.589 460.491 933.109 460.491 933.109C451.94 897.332 450.127 863.293 452.176 827.226C455.144 774.969 466.219 724.754 476.651 683.382Z" fill="#B97D1B"/>
<ellipse cx="597.908" cy="577.656" rx="64.5" ry="67" fill="#A66C0F"/>
<rect x="558.784" y="508.53" width="78.2017" height="117.369" rx="39.1009" fill="#E6CBC3"/>
<ellipse cx="463.817" cy="391.739" rx="58.4094" ry="55.7386" fill="#EFC8BD"/>
<ellipse cx="749.582" cy="392.319" rx="58.4094" ry="55.7386" fill="#EFC8BD"/>
<path d="M451.913 282.894C451.913 201.507 521.66 135.53 607.696 135.53C693.733 135.53 763.479 201.507 763.479 282.894L753.479 429.466C740.916 524.539 675.537 576.829 607.696 576.829C539.855 576.829 471.126 513.447 461.913 429.466L451.913 282.894Z" fill="#F6DDD6"/>
<circle cx="521.408" cy="443" r="37" fill="#F2CACA" fill-opacity="0.36"/>
<ellipse cx="700.908" cy="441" rx="36.5" ry="37" fill="#F2CACA" fill-opacity="0.36"/>
<path d="M578.408 478C578.408 478 585.908 490 607.908 490C629.908 490 637.408 478 637.408 478" stroke="#EC908B" stroke-width="15" stroke-linecap="round"/>
<path d="M526.442 332.35C526.442 332.35 536.442 328.184 547.942 328.184C559.442 328.184 568.762 332.35 568.762 332.35" stroke="#513F32" stroke-width="12" stroke-linecap="round"/>
<path d="M644.442 332.35C644.442 332.35 654.442 328.184 665.942 328.184C677.442 328.184 686.762 332.35 686.762 332.35" stroke="#513F32" stroke-width="12" stroke-linecap="round"/>
<path d="M527.062 370.564L553.998 366.306" stroke="black" stroke-width="10" stroke-linecap="round"/>
<path d="M656.528 363.697L683.464 367.956" stroke="black" stroke-width="10" stroke-linecap="round"/>
<path d="M548.897 366.305L548.896 395.083" stroke="black" stroke-width="24" stroke-linecap="round"/>
<path d="M662.723 363.696L662.722 392.475" stroke="black" stroke-width="24" stroke-linecap="round"/>
<path d="M604.855 404.424C602.827 419.204 590.083 446.155 611.806 446.155" stroke="#EBBAAA" stroke-width="17"/>
<path d="M463.408 377C470.408 339 488.395 210 561.395 210C574.104 210 598.895 161.5 561.395 152C479.395 152 443.408 190 443.408 270C443.408 334 456.408 415 463.408 377Z" fill="#2D2622"/>
<path d="M751.259 371C744.259 333 726.272 204 653.272 204C640.563 204 591.908 155.5 629.408 146C711.408 146 751.259 174 771.259 264C785.143 326.476 758.259 409 751.259 371Z" fill="#2D2622"/>
<path d="M471.917 277.699C469.112 254.706 474.854 218 496.79 199C507.284 234.088 490.947 263.718 496.79 280.899C512.485 327.05 475.356 342.891 472.405 364.075C466.868 345.565 467.501 335.154 474.854 314.95C484.678 287.959 475.349 305.831 471.917 277.699Z" fill="#2D2622"/>
<path d="M787.129 977.112C805.929 985.602 768.129 770.112 776.129 794.112" stroke="#EBBAAA" stroke-width="71" stroke-linecap="round" stroke-linejoin="bevel"/>
<path d="M544 217.245C523.193 226.79 517.667 191.378 517 176.465C526 114.245 672 114.245 701 163.245C701 189.957 721.749 234.904 687 217.245C626 186.245 570.009 205.314 544 217.245Z" fill="#2D2622"/>
<path d="M472.586 260.254C467.552 227.652 478.53 201.248 488.319 190.211C488.319 190.211 500.217 176.245 521.538 176.245C542.859 176.245 557 181.052 557 181.052C555.602 194.636 519.784 226.998 542.859 276.665C564.359 322.943 486.571 383.359 460 395.245C464.195 387.604 495.661 346.579 495.661 316.288C495.661 293.365 478.879 301.006 472.586 260.254Z" fill="#60432F"/>
<path d="M736 260.245C740.827 229.728 728 209.245 704 194.245C680 179.245 644.5 188.245 644.5 188.245C645.841 200.961 683.73 222.274 691 273.245C695.849 307.245 708.383 319.745 741 377.745C741 361.745 741 347.245 747.5 329.245C754.788 309.063 729.966 298.392 736 260.245Z" fill="#60432F"/>
<path d="M555 185.745C541 204.745 540.015 244.645 557.615 270.245" stroke="#47372B" stroke-width="8" stroke-linecap="round"/>
<path d="M642 191.245C667.45 202.245 679 248.245 679 269.245" stroke="#47372B" stroke-width="8" stroke-linecap="round"/>
<path d="M699 735C705.708 709.4 722 624 739 567C739 567 772 583 786 600C800 617 843 698.245 843 698.245C830.422 724.245 827.22 725.677 801.072 780.245C767.53 850.245 801.072 1048 801.072 1198C801.072 1198 770 1210 739 1220C708 1230 669 1220 669 1220V928.245C676 838 692.292 760.6 699 735Z" fill="#4F5D46"/>
<path d="M825 968C805.667 956.667 781.2 939.2 778 936L763 1036L793 1097C794 1081 802 1038.8 814 1022C826 1005.2 825 986 825 968Z" fill="#4F5D46"/>
<path d="M859.5 774C859.5 774 853 707.98 846 693.49C839 679 830 670 830 670L814 653L782 781V895L771 955L823 971.49L853 931L866 865.49L853 837.5L863 807.49L854.5 781L859.5 774Z" fill="#424B3C"/>
<path d="M826 780L784 799.007H826V780Z" fill="#393F35"/>
<path d="M817.107 813.738L784.188 805L813.317 832.363L817.107 813.738Z" fill="#393F35"/>
<path d="M772.997 941.487L833.514 963.695L826.067 985.693L765.374 964.558L772.997 941.487Z" fill="#5D6856"/>
<path d="M422.892 1459.18C421.105 1455.16 422.391 1446.18 423.392 1444.68C424.392 1443.18 545.896 1433.68 545.896 1433.68C566.062 1432.18 603.633 1432.32 606.396 1443.18C613.396 1470.68 594.391 1470.68 578.391 1470.68C556.391 1470.68 553.78 1464.85 539.395 1466.68C531.896 1467.63 520.895 1472.68 470.395 1472.68C429.893 1472.68 426.892 1468.18 422.892 1459.18Z" fill="#C9D1DC"/>
<path d="M548.392 1391.41C568.792 1391.01 575.559 1377.91 576.392 1371.41H586.891C587.891 1372.91 591.141 1376.41 593.391 1386.91C596.391 1400.91 601.391 1403.41 604.391 1416.41C606.468 1425.41 606.891 1438.91 601.891 1446.41C594.126 1458.06 584.391 1456.91 567.891 1456.91C558.391 1456.91 542.391 1454.41 527.891 1458.41C507.647 1464 451.892 1466.91 437.89 1462.41C414.032 1454.74 421.391 1432.41 431.389 1423.91C448.938 1408.99 482.836 1410.02 491.391 1398.41C498.39 1388.91 502.373 1365.99 507.391 1360.41C516.391 1350.41 522.505 1359.22 520.891 1368.91C518.892 1380.91 522.892 1391.91 548.392 1391.41Z" fill="#3B434E"/>
<mask id="mask0" mask-type="alpha" maskUnits="userSpaceOnUse" x="421" y="1356" width="185" height="109">
<path d="M548.392 1391.41C568.792 1391.01 575.559 1377.91 576.392 1371.41H586.891C587.891 1372.91 591.141 1376.41 593.391 1386.91C596.391 1400.91 601.391 1403.41 604.391 1416.41C606.468 1425.41 606.891 1438.91 601.891 1446.41C594.126 1458.06 584.391 1456.91 567.891 1456.91C558.391 1456.91 542.391 1454.41 527.891 1458.41C507.647 1464 451.892 1466.91 437.89 1462.41C414.032 1454.74 421.391 1432.41 431.389 1423.91C448.938 1408.99 482.836 1410.02 491.391 1398.41C498.39 1388.91 502.373 1365.99 507.391 1360.41C516.391 1350.41 522.505 1359.22 520.891 1368.91C518.892 1380.91 522.892 1391.91 548.392 1391.41Z" fill="#333334"/>
</mask>
<g mask="url(#mask0)">
<path d="M465 1425C471.8 1423.4 503.167 1407 518 1399C543.5 1406.5 562.5 1433 577 1459.5C576.5 1465.5 518.862 1471.36 512.5 1463.5C504 1453 488.5 1431.5 465 1425Z" fill="#32373F"/>
<path d="M441.995 1439.58C434.18 1439.58 432.227 1433.86 432.227 1431C431.661 1439.91 431.802 1459.05 436.899 1464.29C443.269 1470.85 495.6 1467.32 501.971 1464.29C508.341 1461.26 483.284 1440.17 477.763 1444.2C472.242 1448.24 467.901 1452.19 461.106 1446.13C454.311 1440.08 451.763 1439.58 441.995 1439.58Z" fill="#32373F"/>
<path d="M437.5 1436.5C437.1 1430.5 428.667 1426.85 427.5 1427.01L411 1428.01L413 1458.01L434 1470.01C438 1469.85 463.5 1465.5 447.5 1465.5C440 1465.5 438.5 1462.51 434 1458.01C429.5 1453.51 438 1444 437.5 1436.5Z" fill="#C8D1DC"/>
<path d="M514.889 1370.91C516.089 1363.71 518.389 1359.24 519.389 1357.91L517.391 1352.91H505.889C500.556 1357.58 491.589 1369.01 498.389 1377.41C506.889 1387.91 513.389 1379.91 514.889 1370.91Z" fill="#C8D1DC"/>
</g>
<path d="M517 1395H496L497.5 1415L474.5 1406.5L470.5 1424.5L452 1413.5" stroke="#272F39" stroke-width="6" stroke-linecap="round" stroke-linejoin="round"/>
<path d="M815.997 1459.18C817.784 1455.16 816.498 1446.18 815.498 1444.68C814.497 1443.18 692.994 1433.68 692.994 1433.68C672.827 1432.18 635.256 1432.32 632.493 1443.18C625.494 1470.68 644.499 1470.68 660.499 1470.68C682.499 1470.68 685.109 1464.85 699.494 1466.68C706.994 1467.63 717.994 1472.68 768.494 1472.68C808.997 1472.68 811.997 1468.18 815.997 1459.18Z" fill="#C9D1DC"/>
<path d="M690.497 1391.41C670.097 1391.01 663.33 1377.91 662.497 1371.41H651.998C650.998 1372.91 647.748 1376.41 645.498 1386.91C642.498 1400.91 637.498 1403.41 634.498 1416.41C632.421 1425.41 631.998 1438.91 636.998 1446.41C644.763 1458.06 654.498 1456.91 670.998 1456.91C680.498 1456.91 696.498 1454.41 710.998 1458.41C731.242 1464 786.998 1466.91 800.999 1462.41C824.857 1454.74 817.498 1432.41 807.5 1423.91C789.951 1408.99 756.054 1410.02 747.499 1398.41C740.499 1388.91 736.516 1365.99 731.499 1360.41C722.499 1350.41 716.385 1359.22 717.999 1368.91C719.997 1380.91 715.997 1391.91 690.497 1391.41Z" fill="#3B434E"/>
<mask id="mask1" mask-type="alpha" maskUnits="userSpaceOnUse" x="633" y="1356" width="184" height="109">
<path d="M690.497 1391.41C670.097 1391.01 663.33 1377.91 662.497 1371.41H651.998C650.998 1372.91 647.748 1376.41 645.498 1386.91C642.498 1400.91 637.498 1403.41 634.498 1416.41C632.421 1425.41 631.998 1438.91 636.998 1446.41C644.763 1458.06 654.498 1456.91 670.998 1456.91C680.498 1456.91 696.498 1454.41 710.998 1458.41C731.242 1464 786.998 1466.91 800.999 1462.41C824.857 1454.74 817.498 1432.41 807.5 1423.91C789.951 1408.99 756.054 1410.02 747.499 1398.41C740.499 1388.91 736.516 1365.99 731.499 1360.41C722.499 1350.41 716.385 1359.22 717.999 1368.91C719.997 1380.91 715.997 1391.91 690.497 1391.41Z" fill="#333334"/>
</mask>
<g mask="url(#mask1)">
<path d="M773.889 1425C767.089 1423.4 735.722 1407 720.889 1399C695.389 1406.5 676.389 1433 661.889 1459.5C662.389 1465.5 720.027 1471.36 726.389 1463.5C734.889 1453 750.389 1431.5 773.889 1425Z" fill="#32373F"/>
<path d="M796.894 1439.58C804.709 1439.58 806.662 1433.86 806.662 1431C807.229 1439.91 807.087 1459.05 801.991 1464.29C795.62 1470.85 743.289 1467.32 736.919 1464.29C730.548 1461.26 755.605 1440.17 761.126 1444.2C766.647 1448.24 770.988 1452.19 777.783 1446.13C784.578 1440.08 787.126 1439.58 796.894 1439.58Z" fill="#32373F"/>
<path d="M801.389 1436.5C801.789 1430.5 810.222 1426.85 811.389 1427.01L827.889 1428.01L825.889 1458.01L804.889 1470.01C800.889 1469.85 775.389 1465.5 791.389 1465.5C798.889 1465.5 800.389 1462.51 804.889 1458.01C809.389 1453.51 800.889 1444 801.389 1436.5Z" fill="#C8D1DC"/>
<path d="M724 1370.91C722.8 1363.71 720.5 1359.24 719.5 1357.91L721.499 1352.91H733C738.333 1357.58 747.3 1369.01 740.5 1377.41C732 1387.91 725.5 1379.91 724 1370.91Z" fill="#C8D1DC"/>
</g>
<path d="M721.889 1395H742.889L741.389 1415L764.389 1406.5L768.389 1424.5L786.889 1413.5" stroke="#272F39" stroke-width="6" stroke-linecap="round" stroke-linejoin="round"/>
<path d="M525.605 1025.28C518.352 955.691 522.141 714.005 538.06 612.749L567.256 613.928C570.904 751.299 564.779 967.077 562.976 1026.79C554.432 1038.67 529.929 1033.6 525.605 1025.28Z" fill="#D8DEE4"/>
<path d="M661.764 1000.11C650.013 931.453 641.863 691.253 654.601 589.763L705.287 573.207C716.458 709.386 722.957 915.65 727.135 996.63C718.117 1008.94 667.065 1008.12 661.764 1000.11Z" fill="#D8DEE4"/>
<path d="M558.714 1037.28C545.642 967.945 540.74 725.96 558.714 624H599.562C610.455 761.306 620.5 977.461 620.5 1037.28C609.062 1049.51 565.107 1045.43 558.714 1037.28Z" fill="#EAF0F5"/>
<path d="M583.5 576.5C622.19 582.609 680 559.5 700 531.5C708 536.5 716.5 558 716.5 576.5C716.5 595 663.5 646 592.008 635C569.275 631.502 559.83 619 558.5 604.5C557.17 590 555 572 583.5 576.5Z" fill="#D8DEE4"/>
<path d="M623.884 579.561C584.879 583.139 534.372 551.833 526.426 540.113C517.808 543.951 516.18 555.537 512.172 584.057C507.161 619.707 582.275 645.556 634.14 643.107C717.5 639.17 718.586 588.326 713.108 573.419C707.629 558.511 684.754 573.978 623.884 579.561Z" fill="#EAF0F5"/>
<path d="M527 717C507.865 606.015 497.426 584.74 485.611 562.526C484.759 560.924 482.689 560.439 481.214 561.495L447 586L397 649.245C409 675.245 437 671.245 437 731.245C437 761.306 403.333 1134.33 414 1187C414 1187 431 1208.21 473 1214C515 1219.79 548 1219 548 1219L539 871C527 795 531.483 743.004 527 717Z" fill="#4F5E46"/>
<path d="M438 878C456.8 886.49 492 846 558 878" stroke="#EBBAAA" stroke-width="78.233" stroke-linecap="round" stroke-linejoin="bevel"/>
<path d="M342.037 748.911C356.592 706.702 388 648 435.283 607L440.283 766C448.773 772.065 445.013 798.762 463.935 801.673C487.586 805.312 503.961 810.77 523.974 830.783C503.961 834.422 502.141 876.267 513.058 912.655C513.058 922.661 499.412 931.758 485.767 931.758L404.805 945.403L342.037 876.267C335.972 851.402 327.482 791.12 342.037 748.911Z" fill="#424B3C"/>
<path d="M390 774L435.484 781.277L390 793.103V774Z" fill="#393F35"/>
<path d="M407 809.381L439.749 783L424.284 819.387L407 809.381Z" fill="#393F35"/>
<path d="M546.671 826H520.291C499.368 826 493 852.381 493 865.117C493 896.046 494.213 897.562 499.368 914.24C512.71 914.543 526.658 916.059 535.755 908.781C529.387 862.387 536.665 841.465 546.671 826Z" fill="#515E4A"/>
</svg>
