<svg width="1200" height="1600" viewBox="0 0 1200 1600" fill="none" xmlns="http://www.w3.org/2000/svg">
<path d="M744.723 726.188C790.074 806.584 806.492 955.648 790 1001" stroke="#EBBAAA" stroke-width="74" stroke-linecap="round" stroke-linejoin="bevel"/>
<path d="M455.263 726.19C409.911 806.587 393.494 955.651 409.985 1001" stroke="#EBBAAA" stroke-width="74" stroke-linecap="round" stroke-linejoin="bevel"/>
<path d="M672 1236L673.205 1477" stroke="#EBBAAA" stroke-width="64" stroke-linecap="round" stroke-linejoin="bevel"/>
<path d="M526 1236L526 1490" stroke="#EBBAAA" stroke-width="64" stroke-linecap="round" stroke-linejoin="bevel"/>
<rect x="433" y="574" width="170" height="392.822" rx="85" transform="rotate(15 433 574)" fill="#2D3870"/>
<rect width="170" height="392.822" rx="85" transform="matrix(-0.965926 0.258819 0.258819 0.965926 767.207 574)" fill="#2D3870"/>
<path d="M804 720.841C795 716.5 762 726 744 737V768.841C744 762.441 790 749.508 813 743.841C812 739.508 808.8 728.841 804 720.841Z" fill="#E8ECF3"/>
<path d="M813 744.458C791.5 741.5 764.5 754.001 746.5 765.001C746.5 776.001 753 800.858 753 794.458C753 788.058 798 776.125 821 770.458C820 766.125 817.8 752.458 813 744.458Z" fill="#3D507B"/>
<path d="M396 720.841C405 716.5 438 726 456 737V768.841C456 762.441 410 749.508 387 743.841C388 739.508 391.2 728.841 396 720.841Z" fill="#E8ECF3"/>
<path d="M387 744.458C408.5 741.5 435.5 754.001 453.5 765.001C453.5 776.001 447 800.858 447 794.458C447 788.058 402 776.125 379 770.458C380 766.125 382.2 752.458 387 744.458Z" fill="#3D507B"/>
<path d="M848 988C854.4 969.6 855.999 905 847.999 875L734 870C746.201 908 748.201 958 757.201 1007L757.354 1007.01C778.5 1008.01 840.019 1010.94 848 988Z" fill="#2D3870"/>
<path d="M352.417 988C346.017 969.6 344.418 905 352.418 875L466.417 870C454.216 908 452.216 958 443.216 1007L443.063 1007.01C421.917 1008.01 360.398 1010.94 352.417 988Z" fill="#2D3870"/>
<path d="M600 1097C663.512 1097 714.999 1073.49 714.999 1044.5C714.999 1015.5 663.512 992 600 992C536.487 992 485 1015.5 485 1044.5C485 1073.49 536.487 1097 600 1097Z" fill="#E2D3BD"/>
<path d="M599 974H759L729 1430L634.828 1440L606.914 1192L599 974Z" fill="#E2D3BD"/>
<path d="M601 974H441L471 1430L565.171 1440L593.086 1192L601 974Z" fill="#E2D3BD"/>
<path d="M432.217 642.532C430.954 617.136 448.952 594.837 474.043 590.711L600 570L725.957 590.711C751.048 594.837 769.046 617.136 767.783 642.532L760 799C760 799 763.122 867.461 765 913C766.559 950.808 761.94 1005.85 760.448 1022.23C760.173 1025.25 758.546 1027.93 755.856 1029.33C742.283 1036.38 694.509 1057 600 1057C505.491 1057 457.717 1036.38 444.144 1029.33C441.454 1027.93 439.827 1025.25 439.552 1022.23C438.06 1005.85 433.441 950.808 435 913C436.878 867.461 440 799 440 799L432.217 642.532Z" fill="#455191"/>
<path d="M600 678C638.659 678 670 646.66 670 608C670 569.34 638.659 538 600 538C561.34 538 530 569.34 530 608C530 646.66 561.34 678 600 678Z" fill="#5D6AAF"/>
<rect x="552" y="444" width="96" height="194" rx="48" fill="#EBBAAA"/>
<path opacity="0.5" d="M750 430.001C772.091 430.001 790 412.092 790 390.001C790 367.909 772.091 350.001 750 350.001C727.909 350.001 710 367.909 710 390.001C710 412.092 727.909 430.001 750 430.001Z" fill="#C99584"/>
<path opacity="0.5" d="M450 430.001C427.908 430.001 410 412.092 410 390.001C410 367.909 427.908 350.001 450 350.001C472.091 350.001 490 367.909 490 390.001C490 412.092 472.091 430.001 450 430.001Z" fill="#C99584"/>
<rect x="450" y="142" width="300" height="430" rx="150" fill="#F4D5CC"/>
<path d="M560 462C560 462 574.667 470.5 600 470.5C625.333 470.5 640 462 640 462" stroke="#C99584" stroke-width="15.3993" stroke-linecap="round"/>
<path d="M754.991 256.486C755.224 250.216 750.683 245.001 745 245.001C739.104 245.001 734.488 250.595 735.046 257.07L744.461 366.773C744.619 368.607 746.012 370.001 747.674 370.001C749.411 370.001 750.831 368.494 750.906 366.589L754.991 256.486Z" fill="#393939"/>
<path d="M445.009 256.486C444.776 250.216 449.317 245.001 455 245.001C460.896 245.001 465.512 250.595 464.954 257.07L455.539 366.773C455.381 368.607 453.988 370.001 452.326 370.001C450.589 370.001 449.169 368.494 449.094 366.589L445.009 256.486Z" fill="#393939"/>
<path d="M595.325 208.179C671.473 208.179 732.36 207.971 735.5 263.625C748.345 281.724 756.39 279.71 759.39 246.772C768.995 141.285 663.157 81.5177 589.861 105.126C589.861 105.126 519.168 208.179 595.325 208.179Z" fill="#393939"/>
<path d="M604.675 208.179C528.527 208.179 467.64 207.971 464.5 263.625C451.655 281.724 443.61 279.71 440.61 246.772C431.005 141.285 536.843 81.5177 610.139 105.126C610.139 105.126 680.832 208.179 604.675 208.179Z" fill="#393939"/>
<path d="M542.542 227.453L529.151 193.263L524 120H695L647.614 236L637.313 216.463L625.982 227.453L611.56 206.695L602.289 227.453L586.837 216.463L567.265 227.453L561.084 216.463L542.542 227.453Z" fill="#393939"/>
<path d="M664 350H644" stroke="black" stroke-width="18" stroke-linecap="round"/>
<path d="M554 350H534" stroke="black" stroke-width="18" stroke-linecap="round"/>
<path d="M644 290L684 293.5" stroke="#393939" stroke-width="18" stroke-linecap="round"/>
<path d="M554 290L514 293.5" stroke="#393939" stroke-width="18" stroke-linecap="round"/>
<path d="M600 380C590 395 580 430 610 430" stroke="#EBBAAA" stroke-width="17"/>
<path d="M825.874 1522.04C826.05 1501.86 822.903 1500.35 802.943 1492.08C782.984 1483.81 735.993 1470.4 719.648 1447.85C719.648 1447.85 715.104 1447.1 707.714 1450.61C701.407 1453.6 693.31 1460.95 681.096 1460.85C667.833 1460.73 656.012 1458.25 648.665 1454.85C645.484 1447.21 638.446 1447.14 638.446 1447.14C638.446 1447.14 628.556 1463.72 628.411 1480.38C628.266 1497.04 628.316 1524.72 628.316 1524.72L825.874 1522.04Z" fill="#8D5D42"/>
<path d="M665.104 1484.32C661.604 1482.27 641.562 1474.66 632.607 1469.46C628.178 1472.7 628.731 1492.27 628.633 1503.55L672.613 1505.98C670.188 1497.41 666.27 1485.51 665.104 1484.32Z" fill="#A87C63"/>
<path d="M779.521 1496.42C792.007 1498.06 808.002 1498.72 811.038 1494.64L790.592 1488.31L763.687 1477.31L756.656 1480.83L757.629 1483.92L742.545 1493.53L748.964 1502.82L749.063 1502.77C753.992 1500.56 766.912 1494.75 779.521 1496.42Z" fill="#A87C63"/>
<path d="M722.856 1451.21C720.69 1456.21 720.688 1462.31 720.687 1466.2L739.096 1457.87L734.761 1473.97L751.545 1468.41L751.541 1484.51L764.536 1477.29L764.533 1491.17" stroke="#67432F" stroke-width="5.41368" stroke-linecap="round" stroke-linejoin="round"/>
<path d="M628.75 1521.55L628.754 1502.99L787.159 1514.03L826.962 1509.92L827.788 1516.81C828.376 1521.73 824.737 1526.13 819.802 1526.48L787.155 1528.81L706.959 1525.87L633.082 1525.88C630.689 1525.88 628.749 1523.94 628.75 1521.55Z" fill="#67432F"/>
<path d="M373.666 1521.29C373.49 1501.11 376.638 1499.59 396.597 1491.33C416.556 1483.06 463.547 1469.65 479.892 1447.1C479.892 1447.1 484.436 1446.34 491.827 1449.85C498.133 1452.85 506.23 1460.2 518.444 1460.09C531.707 1459.98 543.528 1457.49 550.875 1454.1C554.056 1446.45 561.094 1446.39 561.094 1446.39C561.094 1446.39 570.984 1462.97 571.129 1479.63C571.274 1496.29 571.224 1523.96 571.224 1523.96L373.666 1521.29Z" fill="#8D5D42"/>
<path d="M534.436 1483.57C537.936 1481.52 557.978 1473.91 566.933 1468.7C571.362 1471.95 570.809 1491.51 570.907 1502.79L526.927 1505.23C529.352 1496.66 533.27 1484.76 534.436 1483.57Z" fill="#A87C63"/>
<path d="M420.019 1495.66C407.533 1497.31 391.538 1497.96 388.503 1493.89L408.948 1487.56L435.853 1476.55L442.884 1480.08L441.911 1483.17L456.995 1492.78L450.576 1502.06L450.477 1502.02C445.548 1499.8 432.628 1494 420.019 1495.66Z" fill="#A87C63"/>
<path d="M476.684 1450.46C478.85 1455.45 478.852 1461.56 478.853 1465.45L460.444 1457.11L464.779 1473.22L447.995 1467.66L447.999 1483.76L435.004 1476.54L435.007 1490.42" stroke="#67432F" stroke-width="5.41368" stroke-linecap="round" stroke-linejoin="round"/>
<path d="M570.79 1520.8L570.786 1502.24L412.381 1513.28L372.578 1509.17L371.752 1516.06C371.164 1520.97 374.803 1525.38 379.738 1525.73L412.385 1528.05L492.581 1525.11L566.458 1525.13C568.851 1525.13 570.791 1523.19 570.79 1520.8Z" fill="#67432F"/>
<path d="M689.6 869.8V795.8C689.6 741.4 649.2 711 602.8 711C556.4 711 516 741.4 516 795.8V869.8C516 924.2 556.4 954.6 602.8 954.6C649.2 954.6 689.6 924.2 689.6 869.8ZM637.6 869.4C637.6 893.4 623.2 907.8 602.8 907.8C582.4 907.8 568 893.4 568 869.4V796.6C568 772.6 582.4 757.8 602.8 757.8C623.2 757.8 637.6 772.6 637.6 796.6V869.4Z" fill="white"/>
</svg>
