<svg width="1200" height="1600" viewBox="0 0 1200 1600" fill="none" xmlns="http://www.w3.org/2000/svg">
<ellipse cx="602.37" cy="1015.66" rx="127.5" ry="52.4186" fill="#2E2E2D"/>
<path d="M670.705 1092.63C682.705 1148.41 677.87 1291.22 677.87 1363.35" stroke="#EBBAAA" stroke-width="57" stroke-linecap="round" stroke-linejoin="bevel"/>
<path d="M549.87 1165.7C543.87 1262.36 534.87 1307.09 537.87 1373.93" stroke="#EBBAAA" stroke-width="57" stroke-linecap="round" stroke-linejoin="bevel"/>
<path d="M585.885 1071.85C649.668 1071.85 701.375 1048.29 701.375 1019.23C701.375 990.17 649.668 966.612 585.885 966.612C522.101 966.612 470.395 990.17 470.395 1019.23C470.395 1048.29 522.101 1071.85 585.885 1071.85Z" fill="#2E2E2D"/>
<path d="M436.447 737.141C404.74 796.846 378.74 954.582 404.74 970.933" stroke="#EBBAAA" stroke-width="74" stroke-linecap="round" stroke-linejoin="bevel"/>
<path d="M751.462 713.348C796.814 790.674 813.232 934.046 796.74 977.666" stroke="#EBBAAA" stroke-width="74" stroke-linecap="round" stroke-linejoin="bevel"/>
<path d="M461.74 960.353H596.74L586.74 1300.35L583.74 1333.54L507.24 1329.69L501.74 1300.35L461.74 960.353Z" fill="#2E2E2D"/>
<path d="M595.455 966.145H730.912L716.24 1296.99L714.74 1326.8L636.24 1333.05L631.74 1305.64L595.455 966.145Z" fill="#2E2E2D"/>
<path d="M433.74 649.208C433.74 626.606 485.24 603.537 521.24 592.568L568.24 577.569C574.785 577.37 619.757 579.169 626.24 580.031L699.24 603.537C733.831 608.137 787.224 622.522 783.74 655.941L746.289 802.904L749.74 992.093C749.812 993.838 667.054 1003.72 665.24 1003.63L527.74 995.247L453.24 992.025C451.498 991.936 450.596 987.036 450.74 985.36L460.748 785.189L433.74 649.208Z" fill="#2E2E2D"/>
<path d="M775.24 626.124C766.04 617.276 735.74 608.331 721.74 604.965C730.574 718.458 749.04 948.33 752.24 959.872C756.24 974.299 843.74 980.07 851.74 974.299C859.74 968.528 868.74 914.186 866.74 884.37C864.74 854.554 786.74 637.185 775.24 626.124Z" fill="#434343"/>
<path d="M851.24 975.742C855.64 974.973 865.74 947.529 869.24 936.789L746.241 918.033C744.741 927.812 741.941 949.004 742.741 955.544C743.741 963.719 766.741 970.933 791.741 974.78C816.741 978.627 845.74 976.704 851.24 975.742Z" fill="#767676"/>
<path d="M430.658 628.513C439.271 619.671 467.635 610.733 480.74 607.369C472.471 720.775 455.185 950.469 452.189 962.002C448.445 976.418 366.535 982.184 359.046 976.418C351.557 970.651 343.132 916.351 345.005 886.558C346.877 856.765 419.893 639.565 430.658 628.513Z" fill="#434343"/>
<path d="M357.365 977.296C353.057 976.532 343.167 949.264 339.74 938.592L460.175 919.957C461.644 929.673 464.386 950.729 463.602 957.228C462.623 965.351 440.103 972.518 415.624 976.341C391.145 980.163 362.75 978.252 357.365 977.296Z" fill="#767676"/>
<path d="M585.74 665.078C580.74 651.131 583.24 631.895 583.24 631.895L560.74 639.109L533.74 588.614C502.574 593.904 501.24 595.827 478.74 605.446C451.9 616.919 457.24 655.46 453.24 707.878L447.74 994.978L521.74 1006.04L569.827 1011.78L593.24 680.948C593.24 680.948 590.74 679.024 585.74 665.078Z" fill="#434343"/>
<path d="M604.74 664.597C591.74 654.498 593.907 646.483 596.24 638.628L600.74 635.742L633.74 631.895L664.74 591.499C664.74 591.499 709.24 597.27 724.24 604.965C739.24 612.659 748.24 696.817 748.24 696.817L755.24 996.421L717.24 1006.52L588.74 1025.13C588.472 1004.89 570.515 961.34 570.861 934.357C572.234 827.144 578.382 687.664 588.74 682.39C605.74 673.734 607.74 666.927 604.74 664.597Z" fill="#434343"/>
<path d="M637.74 604.965C641.18 594.023 637.74 586.209 636.74 581.4L664.74 591.499C664.74 591.499 674.24 603.041 668.24 629.491C661.667 658.467 632.597 669.887 625.74 677.581C622.74 680.948 623.74 640.071 600.74 635.742C611.24 633.338 631.24 625.643 637.74 604.965Z" fill="#767676"/>
<path d="M557.793 610.735C550.74 601.117 554.398 587.627 557.793 580.438L533.24 588.614C533.24 588.614 519.123 611.993 526.755 634.589C536.24 662.673 570.035 672.821 569.74 669.406C566.74 634.589 578.729 635.887 583.74 631.414C575.24 629.491 567.165 623.517 557.793 610.735Z" fill="#767676"/>
<ellipse cx="634.74" cy="659.307" rx="5" ry="4.80905" fill="#DAE2F3"/>
<ellipse cx="557.74" cy="654.498" rx="5" ry="4.80905" fill="#E5EBF9"/>
<ellipse cx="598.24" cy="700.184" rx="7.5" ry="7.21357" fill="#EDF2FF"/>
<ellipse cx="843.24" cy="959.872" rx="7.5" ry="7.21357" fill="#DAE2F3"/>
<ellipse cx="369.24" cy="959.872" rx="7.5" ry="7.21357" fill="#DAE2F3"/>
<ellipse cx="592.24" cy="768.953" rx="7.5" ry="7.69447" fill="#EDF2FF"/>
<ellipse cx="588.24" cy="837.722" rx="7.5" ry="7.21357" fill="#EDF2FF"/>
<ellipse cx="588.24" cy="906.011" rx="7.5" ry="7.21357" fill="#EDF2FF"/>
<ellipse cx="588.24" cy="966.605" rx="7.5" ry="7.21357" fill="#EDF2FF"/>
<path d="M396.836 1447.81C394.958 1443.34 396.31 1437.22 397.361 1435.55C398.413 1433.89 526.109 1426.22 526.109 1426.22C547.303 1424.56 589.315 1417.56 592.218 1429.61C595.81 1444.52 595.645 1447.89 593.198 1459.43C589.281 1463.28 549.66 1466.64 536.813 1463.76C536.813 1457.02 535.813 1452.7 535.813 1452.7C535.813 1452.7 528.652 1457.06 520.251 1458.95C503.116 1462.8 499.835 1466.64 446.761 1466.64C404.194 1462.8 401.04 1457.8 396.836 1447.81Z" fill="#272727"/>
<path d="M534.938 1382.97C545.589 1383.1 561.852 1379.73 570.702 1367.91C571.481 1366.87 573.024 1366.69 573.928 1367.63C581.937 1375.91 576.76 1371.19 579.963 1385.38C583.12 1399.36 585.785 1397.37 588.942 1410.35C591.128 1419.34 598.207 1440.31 588.942 1440.31H546.688C536.691 1440.31 523.188 1451.48 489.897 1454.62C434.635 1459.83 421.131 1452.7 410.097 1449.33C384.991 1441.67 397.731 1424.15 410.097 1418.55C428.211 1410.35 454.172 1404.19 467.377 1397.39C477.66 1392.1 481.191 1390.46 486.47 1384.89C493.227 1377.76 496.081 1373.22 498.221 1369.68C499.124 1368.18 501.492 1368.53 502.448 1369.99C508.278 1378.9 525.105 1382.84 534.938 1382.97Z" fill="#565656"/>
<path d="M501.66 1373.83C503.825 1378.51 512.51 1383.76 512.51 1387.41L491.16 1380.08L501.66 1394.99L481.652 1389.49L491.16 1402.2L468.66 1397.82L481.652 1409.9" stroke="#2C221B" stroke-width="5.41368" stroke-linecap="round" stroke-linejoin="round"/>
<path opacity="0.2" d="M416.49 1434.73C425.82 1437.45 440.055 1441.32 461.469 1437" stroke="white" stroke-width="7" stroke-linecap="round"/>
<path d="M487.754 1409.41C497.545 1400.76 504.826 1396.43 512.66 1386.81C516.903 1386.81 522.504 1387.29 538.66 1387.29C559.711 1387.29 565.292 1378.64 574.594 1368.54C581.66 1372.87 578.021 1382 582.917 1394.51C586.833 1404.51 594.177 1419.51 594.177 1437.79C590.75 1443.56 556.969 1440.67 546.198 1440.67C543.751 1429.13 524.66 1419.51 516.16 1417.11C508.699 1415 499.993 1414.22 487.754 1409.41Z" fill="#2F2F2F"/>
<path d="M818.225 1447.81C820.103 1443.34 818.752 1437.22 817.7 1435.55C816.648 1433.89 688.953 1426.22 688.953 1426.22C667.758 1424.56 625.747 1417.56 622.843 1429.61C619.252 1444.52 619.416 1447.89 621.864 1459.43C625.781 1463.28 665.402 1466.64 678.248 1463.76C678.248 1457.02 679.248 1452.7 679.248 1452.7C679.248 1452.7 686.409 1457.06 694.811 1458.95C711.946 1462.8 715.227 1466.64 768.301 1466.64C810.868 1462.8 814.021 1457.8 818.225 1447.81Z" fill="#272727"/>
<path d="M680.123 1382.97C669.473 1383.1 653.21 1379.73 644.36 1367.91C643.58 1366.87 642.038 1366.69 641.134 1367.63C633.124 1375.91 638.301 1371.19 635.098 1385.38C631.941 1399.36 629.276 1397.37 626.119 1410.35C623.934 1419.34 616.855 1440.31 626.119 1440.31H668.373C678.371 1440.31 691.873 1451.48 725.164 1454.62C780.426 1459.83 793.931 1452.7 804.965 1449.33C830.071 1441.67 817.33 1424.15 804.965 1418.55C786.851 1410.35 760.89 1404.19 747.685 1397.39C737.402 1392.1 733.871 1390.46 728.591 1384.89C721.835 1377.76 718.98 1373.22 716.841 1369.68C715.938 1368.18 713.57 1368.53 712.613 1369.99C706.784 1378.9 689.956 1382.84 680.123 1382.97Z" fill="#565656"/>
<path d="M713.402 1373.83C711.236 1378.51 702.551 1383.76 702.551 1387.41L723.902 1380.08L713.402 1394.99L733.409 1389.49L723.902 1402.2L746.402 1397.82L733.409 1409.9" stroke="#2C221B" stroke-width="5.41368" stroke-linecap="round" stroke-linejoin="round"/>
<path opacity="0.2" d="M798.572 1434.73C789.242 1437.45 775.006 1441.32 753.593 1437" stroke="white" stroke-width="7" stroke-linecap="round"/>
<path d="M727.308 1409.41C717.516 1400.76 710.235 1396.43 702.402 1386.81C698.159 1386.81 692.558 1387.29 676.402 1387.29C655.35 1387.29 649.77 1378.64 640.468 1368.54C633.402 1372.87 637.041 1382 632.145 1394.51C628.228 1404.51 620.885 1419.51 620.885 1437.79C624.312 1443.56 658.092 1440.67 668.863 1440.67C671.311 1429.13 690.402 1419.51 698.902 1417.11C706.363 1415 715.068 1414.22 727.308 1409.41Z" fill="#2F2F2F"/>
<path d="M728.025 467.202C760.757 467.202 787.292 441.68 787.292 410.199C787.292 378.717 760.757 353.195 728.025 353.195C695.293 353.195 668.759 378.717 668.759 410.199C668.759 441.68 695.293 467.202 728.025 467.202Z" fill="#EBBAAA"/>
<path d="M476.87 467.202C444.138 467.202 417.604 441.68 417.604 410.199C417.604 378.717 444.138 353.195 476.87 353.195C509.602 353.195 536.137 378.717 536.137 410.199C536.137 441.68 509.602 467.202 476.87 467.202Z" fill="#EBBAAA"/>
<path d="M444.74 315.278C444.74 231.185 512.911 163.014 597.004 163.014C682.057 163.014 750.618 232.688 749.249 317.729L747.099 451.271C745.79 532.548 679.529 597.751 598.24 597.751C519.323 597.751 454.064 536.278 449.352 457.502L444.74 380.382V315.278Z" fill="#F4D4C9"/>
<path d="M436.75 294.188C436.483 288.736 441.705 284.201 448.24 284.201C455.021 284.201 460.328 289.065 459.688 294.695L448.86 390.079C448.678 391.674 447.076 392.886 445.165 392.886C443.168 392.886 441.534 391.576 441.449 389.919L436.75 294.188Z" fill="#272727"/>
<path d="M760.638 294.295C761.192 288.885 756.292 284.119 749.857 283.8C743.181 283.469 737.696 288.049 738.027 293.68L743.603 389.088C743.697 390.683 745.209 391.966 747.091 392.06C749.057 392.157 750.736 390.934 750.908 389.29L760.638 294.295Z" fill="#272727"/>
<path d="M661.24 392.886V410.199" stroke="black" stroke-width="24" stroke-linecap="round"/>
<path d="M532.24 392.886V410.199" stroke="black" stroke-width="24" stroke-linecap="round"/>
<path d="M646.156 337.61L703.311 333.525" stroke="#393939" stroke-width="24" stroke-linecap="round"/>
<path d="M555.439 339.381L498.441 333.615" stroke="#393939" stroke-width="24" stroke-linecap="round"/>
<path d="M599.519 413.084C585.928 441.251 581.798 477.467 607.74 477.467" stroke="#EBBAAA" stroke-width="17"/>
<path d="M448.7 227.936C460.3 204.083 489.867 193.631 502.2 189.463L543.7 207.257C518.7 196.538 498.1 216.202 481.7 244.286C465.3 272.371 460.867 331.651 459.7 356.818C459.7 356.818 452.2 360.906 449.2 360.665C446.2 360.425 438.7 363.551 438.7 363.551C438.2 330.208 437.1 251.789 448.7 227.936Z" fill="#1E1E1E"/>
<path d="M765.247 262.08C749.747 170.227 686.747 161.571 655.747 152.434L731.747 258.233L748.247 356.818C757.747 343.994 773.258 309.555 765.247 262.08Z" fill="#181818"/>
<path d="M579.247 238.997C546.447 238.997 504.747 215.112 495.747 201.005L562.747 168.784L667.247 174.555L681.247 263.042C652.247 231.783 612.047 238.997 579.247 238.997Z" fill="#181818"/>
<path d="M637.247 138.006C532.247 119.732 499.747 156.26 493.747 171.168C487.747 186.075 488.497 188.961 496.747 199.541C508.747 214.93 565.247 194.251 611.247 201.946C657.247 209.64 663.247 258.211 695.747 280.333C721.747 298.03 747.58 302.134 757.247 301.974C750.747 282.738 736.147 239.552 729.747 220.701C721.747 197.136 693.211 147.746 637.247 138.006Z" fill="#393939"/>
<path d="M718.74 182.73L720.243 178.489L718.74 182.73ZM744.334 186.408C746.365 184.975 746.85 182.168 745.418 180.137C743.985 178.106 741.177 177.621 739.146 179.053L744.334 186.408ZM703.881 193.149C703.963 192.957 704.39 192.228 705.361 191.208C706.272 190.249 707.469 189.238 708.838 188.402C711.637 186.69 714.563 186.024 717.237 186.972L720.243 178.489C714.083 176.306 708.26 178.206 704.142 180.723C702.052 182.002 700.249 183.522 698.838 185.006C697.486 186.428 696.267 188.055 695.599 189.626L703.881 193.149ZM717.237 186.972C721.852 188.607 726.333 190.178 730.692 190.467C735.394 190.779 739.782 189.618 744.334 186.408L739.146 179.053C736.198 181.132 733.836 181.656 731.288 181.487C728.398 181.295 725.129 180.22 720.243 178.489L717.237 186.972Z" fill="#272727"/>
<path d="M614.631 391.204C611.209 378.904 620.013 366.637 632.751 365.957L703.016 362.206C715.754 361.526 725.915 372.78 723.93 385.369L720.035 410.061C718.571 419.347 710.823 426.33 701.427 426.831L641.767 430.016C632.37 430.518 623.867 424.403 621.343 415.329L614.631 391.204Z" fill="white" fill-opacity="0.29"/>
<path d="M611.932 399.747C612.579 402.434 615.281 404.097 617.966 403.462C620.651 402.827 622.303 400.134 621.656 397.447L611.932 399.747ZM614.16 387.66L619.022 386.51L618.978 386.326L618.92 386.147L614.16 387.66ZM628.112 369.094L627.824 364.103L627.606 364.114L627.39 364.145L628.112 369.094ZM706.491 364.91L706.801 359.922L706.502 359.902L706.203 359.918L706.491 364.91ZM722.854 379.449L727.835 379.919L727.839 379.873L727.842 379.828L722.854 379.449ZM716.652 392.531C716.404 395.279 718.433 397.718 721.184 397.977C723.935 398.236 726.366 396.218 726.614 393.47L716.652 392.531ZM621.656 397.447L619.022 386.51L609.298 388.81L611.932 399.747L621.656 397.447ZM618.92 386.147C618.926 386.166 618.86 385.945 618.838 385.49C618.817 385.059 618.841 384.494 618.964 383.839C619.205 382.554 619.831 380.9 621.302 379.173L613.675 372.672C608.377 378.891 608.284 385.709 609.4 389.173L618.92 386.147ZM621.302 379.173C622.952 377.237 624.681 375.959 626.121 375.154C626.843 374.75 627.48 374.472 627.98 374.291C628.229 374.201 628.435 374.139 628.59 374.099C628.667 374.078 628.728 374.064 628.771 374.055C628.816 374.046 628.836 374.043 628.834 374.044L627.39 364.145C624.312 364.58 618.556 366.944 613.675 372.672L621.302 379.173ZM628.4 374.086L706.779 369.902L706.203 359.918L627.824 364.103L628.4 374.086ZM706.181 369.898C707.047 369.955 708.789 370.242 710.636 370.936C712.506 371.638 714.059 372.597 715.024 373.735L722.642 367.29C720.168 364.373 716.891 362.62 714.119 361.579C711.325 360.53 708.616 360.043 706.801 359.922L706.181 369.898ZM715.024 373.735C716.371 375.325 717.103 376.734 717.485 377.754C717.905 378.874 717.845 379.353 717.865 379.07L727.842 379.828C728.049 376.944 726.723 372.102 722.642 367.29L715.024 373.735ZM717.873 378.98L716.652 392.531L726.614 393.47L727.835 379.919L717.873 378.98Z" fill="black"/>
<path d="M479.758 384.451C478.003 371.832 488.369 360.753 501.093 361.649L571.277 366.587C584.001 367.482 592.58 379.895 588.934 392.133L581.782 416.145C579.092 425.174 570.478 431.144 561.091 430.484L501.502 426.291C492.115 425.63 484.496 418.518 483.201 409.209L479.758 384.451Z" fill="white" fill-opacity="0.29"/>
<path d="M475.943 392.595C476.227 395.339 478.684 397.321 481.432 397.022C484.18 396.723 486.178 394.256 485.894 391.512L475.943 392.595ZM479.763 380.882L484.738 380.341L484.719 380.153L484.685 379.968L479.763 380.882ZM496.072 364.189L496.452 359.203L496.234 359.188L496.016 359.191L496.072 364.189ZM574.363 369.698L575.335 364.79L575.041 364.733L574.742 364.712L574.363 369.698ZM588.655 386.133L593.532 387.213L593.542 387.168L593.552 387.124L588.655 386.133ZM580.76 398.343C580.149 401.038 581.837 403.706 584.531 404.302C587.225 404.898 589.905 403.197 590.516 400.502L580.76 398.343ZM485.894 391.512L484.738 380.341L474.787 381.423L475.943 392.595L485.894 391.512ZM484.685 379.968C484.689 379.988 484.653 379.761 484.691 379.306C484.728 378.876 484.827 378.319 485.036 377.685C485.447 376.439 486.288 374.876 487.977 373.345L481.278 365.959C475.195 371.473 474.195 378.223 474.84 381.796L484.685 379.968ZM487.977 373.345C489.872 371.628 491.756 370.574 493.292 369.952C494.061 369.641 494.73 369.444 495.25 369.326C495.509 369.268 495.721 369.231 495.881 369.21C495.96 369.2 496.022 369.193 496.066 369.19C496.111 369.186 496.132 369.186 496.129 369.186L496.016 359.191C492.905 359.244 486.881 360.879 481.278 365.959L487.977 373.345ZM495.693 369.174L573.984 374.683L574.742 364.712L496.452 359.203L495.693 369.174ZM573.391 374.606C574.243 374.769 575.932 375.269 577.671 376.184C579.431 377.111 580.844 378.253 581.649 379.501L590.065 374.049C588 370.851 584.983 368.709 582.373 367.335C579.741 365.949 577.119 365.133 575.335 364.79L573.391 374.606ZM581.649 379.501C582.774 381.243 583.312 382.731 583.555 383.79C583.823 384.953 583.7 385.421 583.757 385.143L593.552 387.124C594.141 384.29 593.471 379.324 590.065 374.049L581.649 379.501ZM583.777 385.054L580.76 398.343L590.516 400.502L593.532 387.213L583.777 385.054Z" fill="black"/>
<path d="M588.24 388.558C592.574 386.314 603.74 383.172 613.74 388.558" stroke="black" stroke-width="10"/>
<path d="M638.525 503.753H553.525C561.692 510.646 581.425 524.432 595.025 524.432C608.625 524.432 629.692 510.646 638.525 503.753Z" fill="white"/>
</svg>
