<svg width="1200" height="1600" viewBox="0 0 1200 1600" fill="none" xmlns="http://www.w3.org/2000/svg">
<path d="M626.694 1045.71C638.739 1113.65 636.731 1365.46 626.694 1447.45" stroke="#F6DDD6" stroke-width="64.5568" stroke-linecap="round" stroke-linejoin="bevel"/>
<path d="M502.506 1038.69C490.461 1106.62 492.469 1358.44 502.506 1440.43" stroke="#F6DDD6" stroke-width="64.5568" stroke-linecap="round" stroke-linejoin="bevel"/>
<path d="M406.103 767.238C401.965 834.766 350.001 908.648 374.089 986.937" stroke="#FBE8E3" stroke-width="64.5568" stroke-linecap="round" stroke-linejoin="bevel"/>
<path d="M470.754 774.477C424.168 742.746 439.158 670.399 494.57 660.071L545.116 650.65C554.927 648.821 564.985 648.748 574.821 650.434L628.591 659.647C680.017 668.459 703.353 729.025 671.136 770.065C659.2 785.27 654.203 804.791 657.365 823.861L661.621 849.532C669.979 899.944 631.095 945.806 579.995 945.806H547.711C500.922 945.806 470.541 896.505 491.574 854.71C505.742 826.556 496.804 792.22 470.754 774.477Z" fill="#FBE8E3"/>
<path d="M681.5 738C725.662 816.762 779.968 861.101 720.758 997.178" stroke="#FBE8E3" stroke-width="64.5568" stroke-linecap="round" stroke-linejoin="bevel"/>
<rect x="528.956" y="533.393" width="71.0438" height="117.093" rx="35.5219" fill="#FBE8E3"/>
<ellipse cx="600" cy="419.039" rx="366.813" ry="134.048" transform="rotate(13.5373 600 419.039)" fill="#D9D0C1"/>
<ellipse cx="445.392" cy="480.566" rx="43.8948" ry="46.6715" fill="#EBBAAA"/>
<path d="M464.791 301.521C479.843 206.763 551.357 184.273 633.105 197.258C714.852 210.243 775.877 253.787 760.825 348.544L733.718 519.196C704.198 627.993 633.105 680.53 558.448 667.258C483.79 653.986 430.906 571.342 437.684 472.173L464.791 301.521Z" fill="#F6DDD6"/>
<path fill-rule="evenodd" clip-rule="evenodd" d="M540.112 545.356C539.909 546.218 539.737 547.095 539.596 547.983L537.432 561.605C534.293 581.364 547.767 599.926 567.526 603.065C587.285 606.204 605.847 592.73 608.985 572.971L611.149 559.349C611.29 558.461 611.398 557.574 611.473 556.691L540.112 545.356Z" fill="#393939"/>
<mask id="mask0" mask-type="alpha" maskUnits="userSpaceOnUse" x="536" y="546" width="76" height="58">
<path fill-rule="evenodd" clip-rule="evenodd" d="M539.944 546.102C539.813 546.722 539.696 547.349 539.596 547.983L537.432 561.604C534.293 581.363 547.767 599.926 567.526 603.064C587.285 606.203 605.847 592.729 608.985 572.97L611.149 559.349C611.25 558.715 611.333 558.083 611.4 557.452L539.944 546.102Z" fill="#434343"/>
</mask>
<g mask="url(#mask0)">
<ellipse cx="567.57" cy="602.789" rx="21.8458" ry="11.9628" transform="rotate(9.02572 567.57 602.789)" fill="#FF6C6C"/>
<rect x="539.517" y="548.475" width="72.4506" height="15.023" transform="rotate(9.02572 539.517 548.475)" fill="white"/>
</g>
<mask id="mask1" mask-type="alpha" maskUnits="userSpaceOnUse" x="516" y="471" width="118" height="102">
<path d="M530.29 471.605L633.316 487.97L619.934 572.216L516.908 555.85L530.29 471.605Z" fill="#434343"/>
</mask>
<g mask="url(#mask1)">
<rect x="527.002" y="560.606" width="93.6006" height="19.4086" transform="rotate(9.02572 527.002 560.606)" fill="white"/>
</g>
<path d="M481.238 366.283L552.78 374.448" stroke="#62360D" stroke-width="12.9114" stroke-linecap="round"/>
<path opacity="0.4" d="M501.839 419.135L553.661 422.648" stroke="black" stroke-width="12.9114" stroke-linecap="round"/>
<path opacity="0.4" d="M653.881 440.632L691.21 452.803" stroke="black" stroke-width="12.9114" stroke-linecap="round"/>
<path opacity="0.6" d="M590.562 479.372C588.86 495.722 595.389 527.888 572.259 522.244" stroke="#E1BFB4" stroke-width="18.2911"/>
<path fill-rule="evenodd" clip-rule="evenodd" d="M634.836 299.705C574.771 380.789 558.627 393.439 471.396 392.329C466.822 421.126 469.615 485.88 484.647 507.676C442.705 518.941 407.875 486.763 389.483 447.164C389.483 447.164 380.034 470.717 392.287 489.715C404.54 508.713 421.455 515.483 421.455 515.483C194.968 530.001 420.171 302.461 421.453 299.704C530.043 260.223 628.964 155.835 710.214 231.196C795.233 249.604 757.598 358.206 795.234 358.206C859.74 434.653 870.432 489.715 795.234 566.221C802.437 550.095 822.09 487.016 809.721 475.018C781.98 576.616 754.887 578.069 672.202 567.813C716.529 510.545 735.285 475.694 747.122 401.176L710.214 447.164C721.377 401.239 713.254 302.292 697.434 260.223C693.359 358.919 683.915 410.848 603.712 421.711C629.205 407.75 674.395 320.709 634.836 299.705Z" fill="#311E1C"/>
<path d="M471.396 392.33C558.627 393.44 574.771 380.79 634.836 299.705C674.395 320.71 625.432 370.416 599.938 384.377C666.438 375.37 714.379 351.786 714.379 299.705C721.095 286.087 688.779 257.84 704.715 233.514C615.802 200.8 521.753 234.437 484.645 292.682C406.962 427.399 442.926 480.88 484.647 507.676C469.615 485.881 466.821 421.127 471.396 392.33Z" fill="#624744"/>
<path d="M516.169 453.485C521.507 448.141 534.214 441.27 542.333 456.539" stroke="black" stroke-width="16.1392" stroke-linecap="round"/>
<path d="M645.219 473.227C651.39 468.567 665.475 463.298 672.442 479.503" stroke="black" stroke-width="16.1392" stroke-linecap="round"/>
<path d="M487.418 170.386C491.376 155.83 505.49 146.445 520.444 148.425L717.445 174.511C735.514 176.904 752.654 183.939 767.193 194.931L802.59 221.692C812.234 228.983 816.585 241.333 813.642 253.059L786.607 360.745L621.493 307.401L456.379 284.539L487.418 170.386Z" fill="#EBE4D9"/>
<path fill-rule="evenodd" clip-rule="evenodd" d="M937.622 443.149C844.782 387.557 705.46 334.511 547.83 312.483C432.863 296.417 347.509 288.2 285.132 288.427C351.08 255.423 484.792 253.422 631.38 288.716C775.58 323.435 892.261 384.617 937.622 443.149Z" fill="#E8E1D6"/>
<path d="M726.18 316.533C739.092 294.697 778.297 253.497 831.824 263.392C808.055 338.316 749.927 311.919 726.18 316.533Z" fill="#8BA569"/>
<path d="M723.463 316.387C747.64 308.705 796.586 279.745 798.955 225.362C720.609 231.713 733.288 294.282 723.463 316.387Z" fill="#A1CC6A"/>
<path d="M683.154 839.216C676.666 828.092 670.337 808.458 658.585 801.982C658.585 801.982 682.341 792.51 683.154 797.987L689.735 841.555C689.735 841.808 689.633 842.06 689.633 842.312C689.633 842.312 707.724 941.159 697.642 1018.23C687.559 1095.3 730.159 1225.61 730.159 1225.61C730.768 1233.08 726.576 1239.84 719.691 1242.47C700.838 1249.69 633.456 1273.24 554.896 1273.24C554.616 1273.24 554.311 1273.36 554.006 1273.24C486.32 1273.24 416.042 1253.12 388.322 1242.47C381.462 1239.84 377.244 1233.08 377.854 1225.61C377.854 1225.61 384.205 1102.84 401.279 1033.96C418.354 965.078 418.379 842.312 418.379 842.312C418.379 842.237 418.354 842.186 418.354 842.136C418.354 842.11 418.379 842.11 418.379 842.085L425.036 797.987V791.677C425.036 791.677 436.147 801.634 431.076 810.905L419.769 844.049C397.233 832.034 350.49 793.797 347.923 776.582C345.383 759.67 396.681 708.706 446.404 670.363C448.742 668.823 450.978 667.46 452.07 667.107C461.064 664.154 474.505 661.15 488.429 660.039C488.861 671.095 491.681 687.73 503.216 701.057C514.675 714.335 531.724 721.226 553.905 721.529C553.955 721.529 554.006 721.529 554.032 721.529C554.057 721.529 554.133 721.529 554.159 721.529C576.34 721.251 593.388 714.36 604.847 701.057C616.382 687.704 619.203 671.07 619.635 660.039C633.558 661.15 646.999 664.154 655.942 667.082C657.187 667.511 659.855 669.101 662.472 670.893C711.967 709.185 762.808 759.745 760.267 776.582C757.701 793.797 705.691 827.201 683.154 839.216Z" fill="#D2DCE3"/>
<path opacity="0.3" d="M452.872 1261.56L480.138 1266.26V1004L452.872 1261.56Z" fill="#97B4C7"/>
<path opacity="0.3" d="M706.828 1247.49L686.197 1253.64L679.561 1120.14L706.828 1247.49Z" fill="#97B4C7"/>
<path fill-rule="evenodd" clip-rule="evenodd" d="M527.951 1424.89C533.877 1440.43 526.085 1457.83 510.547 1463.75L475.985 1476.94C460.447 1482.86 443.047 1475.07 437.121 1459.53C431.195 1443.99 406.422 1441.46 421.96 1435.54L489.087 1407.49C504.625 1401.56 522.025 1409.35 527.951 1424.89Z" fill="#F6DDD6"/>
<path d="M436.918 1429.28C437.723 1429.78 438.463 1430.31 439.143 1430.87C450.436 1440.23 460.172 1458.05 474.835 1457.65L507.228 1456.76C518.039 1456.47 526.95 1448.19 528.046 1437.43L530.072 1417.56C530.31 1415.22 533.593 1414.9 534.273 1417.15L537.121 1426.59V1453.6V1473.1C537.121 1480.79 530.917 1487.04 523.229 1487.09L392.855 1487.98C386.158 1488.02 380.38 1483.26 380.842 1476.57C381.931 1460.82 390.688 1433.9 436.918 1429.28Z" fill="#CFB2B2"/>
<path fill-rule="evenodd" clip-rule="evenodd" d="M469.271 1440.26C464.503 1435 454.22 1427.68 445.997 1425.71L453.314 1422.51C461.372 1425.05 469.006 1429.32 476.702 1436.23C484.399 1443.14 489.413 1451.26 493.36 1459.75L482.508 1461.8C479.291 1454.89 474.04 1445.53 469.271 1440.26Z" fill="#CFB2B2"/>
<path fill-rule="evenodd" clip-rule="evenodd" d="M603.84 1424.89C597.913 1440.43 605.705 1457.83 621.243 1463.75L655.806 1476.94C671.343 1482.86 688.744 1475.07 694.67 1459.53C700.596 1443.99 725.369 1441.46 709.831 1435.54L642.704 1407.49C627.166 1401.56 609.766 1409.35 603.84 1424.89Z" fill="#F6DDD6"/>
<path d="M694.873 1429.28C694.068 1429.78 693.328 1430.31 692.648 1430.87C681.354 1440.23 671.618 1458.05 656.956 1457.65L624.562 1456.76C613.751 1456.47 604.84 1448.19 603.744 1437.43L601.719 1417.56C601.48 1415.22 598.197 1414.9 597.518 1417.15L594.669 1426.59V1453.6V1473.1C594.669 1480.79 600.874 1487.04 608.562 1487.09L738.935 1487.98C745.633 1488.02 751.41 1483.26 750.948 1476.57C749.86 1460.82 741.102 1433.9 694.873 1429.28Z" fill="#CFB2B2"/>
<path fill-rule="evenodd" clip-rule="evenodd" d="M662.519 1440.26C667.287 1435 677.57 1427.68 685.793 1425.71L678.476 1422.51C670.418 1425.05 662.784 1429.32 655.088 1436.23C647.392 1443.14 642.377 1451.26 638.43 1459.75L649.282 1461.8C652.499 1454.89 657.75 1445.53 662.519 1440.26Z" fill="#CFB2B2"/>
<path fill-rule="evenodd" clip-rule="evenodd" d="M445.627 666.549C451.936 664.882 451.671 665.005 458.332 663.428C465.164 666.767 469.597 673.02 474.787 685.352C480.097 697.966 484.265 716.085 486.135 740.951C489.876 790.707 484.497 868.678 459.251 986.494C458.438 990.288 454.703 992.705 450.909 991.892C447.115 991.079 444.698 987.344 445.511 983.55C470.614 866.403 475.724 789.894 472.123 742.005C470.321 718.048 466.36 701.552 461.836 690.803C457.193 679.772 454.127 675.751 452.024 673.297C449.921 670.843 448.28 669.518 445.627 666.549Z" fill="white"/>
<path d="M449.065 1100.25L478.197 984.262L493.384 1139.92L456.87 1144.15L449.065 1100.25Z" fill="#F7F3ED"/>
<path d="M360.543 929.299L480.137 984.352L458.076 1144.98L332.068 1062.18L360.543 929.299Z" fill="white"/>
<path d="M379.338 1013.85C366.248 983.239 365.726 952.03 369.517 921.228" stroke="#FBE8E3" stroke-width="64.5568" stroke-linecap="round" stroke-linejoin="bevel"/>
</svg>
