<svg width="1200" height="1600" viewBox="0 0 1200 1600" fill="none" xmlns="http://www.w3.org/2000/svg">
<path d="M558.903 1346.89L497.94 1349.03L506.355 1404.1L567.818 1401.94L558.903 1346.89Z" fill="black"/>
<path d="M653.237 1347.25L713.459 1349.39L705.146 1404.46L644.43 1402.3L653.237 1347.25Z" fill="black"/>
<path d="M443 996H576V1354H479.66L443 996Z" fill="#2E2622"/>
<ellipse cx="593.091" cy="1080.27" rx="113.577" ry="53.7997" fill="#2E2622"/>
<path d="M602 996H736V1365H638.936L602 996Z" fill="#2E2622"/>
<path d="M479 703C447 743 429 774.5 395 831" stroke="#FFB2B2" stroke-width="120" stroke-linecap="round" stroke-linejoin="bevel"/>
<rect x="495" y="528" width="312" height="144" rx="72" fill="#FFB2B2"/>
<path d="M425.68 727.97C431.011 675.339 475.701 636 528.601 636H643.511C695.93 636 740.371 674.645 746.154 726.745C751.605 775.858 757 834.145 756.999 872.477C756.999 914.95 750.375 967.813 744.391 1006.91C739.474 1039.03 711.528 1062 679.032 1062H493.503C460.322 1062 431.993 1038.08 427.556 1005.19C422.214 965.599 416.272 912.848 415.999 872.477C415.752 835.852 420.66 777.529 425.68 727.97Z" fill="#FF9494"/>
<ellipse cx="587.113" cy="649.872" rx="70.0249" ry="70.8789" fill="#FFB3B3"/>
<rect x="553.809" y="573.016" width="76.8567" height="115.285" rx="38.4283" fill="#EED1C9"/>
<path d="M466.703 1313H576.01V1366.8H477.805L466.703 1313Z" fill="#49403C"/>
<path d="M630.664 1313H739.971V1366.8H630.664V1313Z" fill="#49403C"/>
<rect x="550" y="699" width="21.3491" height="179.332" rx="10.6745" fill="#FFB2B2"/>
<rect x="609.316" y="698.549" width="21.3491" height="136.634" rx="10.6745" fill="#FFB2B2"/>
<path d="M750 738.5C763 790 768.966 852.142 786.5 891C805 932 810.5 960 865 1025.5" stroke="#F6DDD6" stroke-width="74" stroke-linecap="round" stroke-linejoin="bevel"/>
<rect width="113.608" height="388.662" rx="56.8041" transform="matrix(-0.945519 0.325568 0.325568 0.945519 769.418 629)" fill="#FFB2B2"/>
<path d="M525 770C502.999 791 365.471 852.772 406.5 836.5" stroke="#F6DDD6" stroke-width="74" stroke-linecap="round" stroke-linejoin="bevel"/>
<path d="M552.363 716.511C554.302 711.34 551.682 705.576 546.511 703.637C541.34 701.698 535.576 704.318 533.637 709.489L552.363 716.511ZM582.877 734.76C586.887 730.961 587.058 724.632 583.26 720.623C579.461 716.613 573.132 716.442 569.123 720.24L582.877 734.76ZM536.785 757.714C538.438 753.582 547.896 728.423 552.363 716.511L533.637 709.489C529.104 721.577 519.762 746.418 518.215 750.286L536.785 757.714ZM543.699 769.042C556.398 761.312 564.645 752.032 582.877 734.76L569.123 720.24C549.355 738.968 543.602 745.688 533.301 751.958L543.699 769.042Z" fill="#F6DDD6"/>
<path d="M489.5 799C435 835.5 417 837.5 387 846.5" stroke="#FFB2B2" stroke-width="120" stroke-linecap="round" stroke-linejoin="bevel"/>
<path d="M751.5 474V475L748.5 478L741.5 479V478.5L739 476L751.5 474Z" fill="#231202"/>
<ellipse cx="440.409" cy="421.285" rx="58.4094" ry="55.7386" fill="#EFC8BD"/>
<ellipse cx="732.174" cy="421.865" rx="58.4094" ry="55.7386" fill="#EFC8BD"/>
<path d="M436.556 315.476C436.556 234.58 505.504 169 590.556 169C675.608 169 744.556 234.58 744.556 315.476V461.165C732.137 555.665 657.62 607.641 590.556 607.641C523.491 607.641 445.663 544.64 436.556 461.165V315.476Z" fill="#F6DDD6"/>
<path d="M493.344 356.432L549.982 353.944" stroke="#62360D" stroke-width="12" stroke-linecap="round"/>
<circle cx="494.557" cy="479" r="37" fill="#F2CACA"/>
<path d="M643.057 390.318C643.057 390.318 650.557 392.318 659.557 390.318C668.557 388.318 673.557 384.818 673.557 384.818" stroke="black" stroke-width="10" stroke-linecap="round"/>
<path d="M646.51 395.839L646.51 415.892" stroke="black" stroke-width="24" stroke-linecap="round"/>
<path d="M535.557 393.618C535.557 393.618 527.541 395.756 517.922 393.618C508.303 391.481 502.96 387.74 502.96 387.74" stroke="black" stroke-width="10" stroke-linecap="round"/>
<path d="M531.866 399.518L531.866 420.95" stroke="black" stroke-width="24" stroke-linecap="round"/>
<path d="M626.702 352.094L683.288 355.576" stroke="#62360D" stroke-width="12" stroke-linecap="round"/>
<path d="M585.77 427.328C583.766 442.019 571.167 468.808 592.641 468.808" stroke="#EBBAAA" stroke-width="17"/>
<circle r="9" transform="matrix(1 0 0 -1 758.557 453.818)" fill="#FD9292"/>
<circle r="9" transform="matrix(1 0 0 -1 422.557 453.818)" fill="#FD9292"/>
<ellipse cx="698.057" cy="477" rx="36.5" ry="37" fill="#F2CACA"/>
<path d="M588.003 135C460.003 135 404 238.5 403.5 295.5C403.315 316.603 405.854 346.5 411.5 373C426.5 367 429.493 378.464 437.999 385C447.497 377 453 339.5 482 323.5C508.973 308.618 543.499 285.5 551.503 274C559.503 285.5 576.499 291.5 616.003 305C669.543 323.297 714.003 319.5 730.503 341C743.703 358.2 739.5 377 743.5 380.5C747.5 384 744.499 364 763.499 374.5C769.9 340.959 776.013 251.693 747.502 213C703.828 153.729 661.586 135 588.003 135Z" fill="#231202"/>
<path d="M436 694.5C406.998 674 414.335 547.667 422 474C422 474 429 476 433 476.5C437 477 439.5 477 439.5 477C441 483.5 446.5 503 465 532C480.454 556.226 507.5 581.5 525 589C524 599.167 524.162 618.5 526.5 648.5C529.5 687 518 710 497.5 711C481.1 711.8 466.999 691.5 465 687C462.499 693 456.808 709.208 436 694.5Z" fill="#231202"/>
<path d="M770.753 611C766.889 576.529 755.501 523 753 474C753 474 749.5 475 747.252 476C745.004 477 741.5 478.5 741.5 478.5C736.001 494 735.753 510.5 711.753 544.5C696.701 565.823 673.253 581.5 660.753 588.5C657.753 624.167 663.781 680.514 677.753 687.5C685.752 691.5 687.753 686.5 699.252 682C710.751 677.5 720.6 701 733.753 701C759.252 701 777.253 669 770.753 611Z" fill="#231202"/>
<path d="M546 516C548.935 524.462 568.995 536 592.478 536C615.962 536 631.618 524.462 637 516" stroke="#EBBAAA" stroke-width="15" stroke-linecap="round"/>
<rect x="605" y="366" width="109" height="79" rx="28" fill="white" fill-opacity="0.2" stroke="#F1CA64" stroke-width="10" stroke-linejoin="round"/>
<rect x="462" y="367" width="109" height="79" rx="28" fill="white" fill-opacity="0.2" stroke="#F1CA64" stroke-width="10" stroke-linejoin="round"/>
<path d="M571 404C573.333 402.333 580.8 399 588 399C595.2 399 601.333 402.333 604 404" stroke="#F1CA64" stroke-width="10"/>
<path d="M403.501 1450C401.714 1445.98 403 1437 404.001 1435.5C405.002 1434 526.505 1424.5 526.505 1424.5C546.672 1423 584.242 1423.15 587.005 1434C594.005 1461.5 575 1461.5 559 1461.5C537 1461.5 534.389 1455.67 520.005 1457.5C512.505 1458.45 501.505 1463.5 451.005 1463.5C410.502 1463.5 407.501 1459 403.501 1450Z" fill="#C6CFDB"/>
<path d="M530.001 1386.5C550.401 1386.1 557.168 1373 558.001 1366.5H568.501C569.501 1368 572.75 1371.5 575 1382C578 1396 583.001 1398.5 586.001 1411.5C588.078 1420.5 588.5 1434 583.501 1441.5C575.735 1453.15 566.001 1452 549.501 1452C540 1452 524.001 1449.5 509.501 1453.5C489.256 1459.08 433.501 1462 419.5 1457.5C395.641 1449.83 403 1427.5 412.999 1419C430.548 1404.08 464.445 1405.11 473 1393.5C479.999 1384 483.983 1361.07 489 1355.5C498 1345.5 504.114 1354.31 502.5 1364C500.501 1376 504.501 1387 530.001 1386.5Z" fill="#D9E0E9"/>
<mask id="mask0" mask-type="alpha" maskUnits="userSpaceOnUse" x="403" y="1351" width="185" height="109">
<path d="M530.001 1386.5C550.401 1386.1 557.168 1373 558.001 1366.5H568.501C569.501 1368 572.75 1371.5 575 1382C578 1396 583.001 1398.5 586.001 1411.5C588.078 1420.5 588.5 1434 583.501 1441.5C575.735 1453.15 566.001 1452 549.501 1452C540 1452 524.001 1449.5 509.501 1453.5C489.256 1459.08 433.501 1462 419.5 1457.5C395.641 1449.83 403 1427.5 412.999 1419C430.548 1404.08 464.445 1405.11 473 1393.5C479.999 1384 483.983 1361.07 489 1355.5C498 1345.5 504.114 1354.31 502.5 1364C500.501 1376 504.501 1387 530.001 1386.5Z" fill="#D9E0E9"/>
</mask>
<g mask="url(#mask0)">
<path d="M496.499 1366C497.699 1358.8 499.999 1354.33 500.999 1353L499 1348H487.499C482.165 1352.67 473.199 1364.1 479.999 1372.5C488.499 1383 494.999 1375 496.499 1366Z" fill="#FFC9C6"/>
</g>
<mask id="mask1" mask-type="alpha" maskUnits="userSpaceOnUse" x="403" y="1351" width="185" height="109">
<path d="M530.001 1386.5C550.401 1386.1 557.168 1373 558.001 1366.5H568.501C569.501 1368 572.75 1371.5 575 1382C578 1396 583.001 1398.5 586.001 1411.5C588.078 1420.5 588.5 1434 583.501 1441.5C575.735 1453.15 566.001 1452 549.501 1452C540 1452 524.001 1449.5 509.501 1453.5C489.256 1459.08 433.501 1462 419.5 1457.5C395.641 1449.83 403 1427.5 412.999 1419C430.548 1404.08 464.445 1405.11 473 1393.5C479.999 1384 483.983 1361.07 489 1355.5C498 1345.5 504.114 1354.31 502.5 1364C500.501 1376 504.501 1387 530.001 1386.5Z" fill="#D9E0E9"/>
</mask>
<g mask="url(#mask1)">
<path d="M425.499 1434.5C416.299 1434.5 413.999 1428.83 413.999 1426C413.333 1434.83 413.499 1453.8 419.499 1459C426.999 1465.5 482.999 1462 490.499 1459C497.999 1456 489.499 1441 482.999 1445C476.499 1449 455.999 1447 447.999 1441C439.999 1435 436.999 1434.5 425.499 1434.5Z" fill="#253A54"/>
<path d="M415.5 1423C415.1 1417 412.667 1415.83 411.5 1416L395 1417L397 1447L418 1459C422 1458.83 430 1457 430 1451C430 1443.5 422.5 1443.5 418 1439C413.5 1434.5 416 1430.5 415.5 1423Z" fill="#463131"/>
<path d="M545 1425.5L532.5 1452.5H522L531 1433L513 1429.5L517 1420L545 1425.5Z" fill="#253A54"/>
<path d="M520.5 1439L515 1452.5L503.5 1456L511 1436.5L520.5 1439Z" fill="#253A54"/>
<circle cx="562" cy="1412" r="14" fill="#FFC9C6"/>
</g>
<path d="M493 1390H472L473.5 1410L450.5 1401.5L446.5 1419.5L428 1408.5" stroke="#C6CFDB" stroke-width="6" stroke-linecap="round" stroke-linejoin="round"/>
<path d="M807.117 1450.39C808.886 1446.34 807.613 1437.29 806.623 1435.77C805.632 1434.26 685.364 1424.68 685.364 1424.68C665.402 1423.17 628.213 1423.32 625.478 1434.26C618.549 1461.99 637.361 1461.99 653.199 1461.99C674.975 1461.99 677.559 1456.11 691.798 1457.95C699.221 1458.91 710.11 1464 760.096 1464C800.188 1464 803.158 1459.47 807.117 1450.39Z" fill="#C6CFDB"/>
<path d="M681.864 1386.54C661.676 1386.13 654.98 1372.99 654.155 1366.47H643.765C642.776 1367.97 639.56 1371.48 637.333 1382.02C634.365 1396.07 629.416 1398.58 626.447 1411.62C624.392 1420.66 623.974 1434.2 628.921 1441.73C636.606 1453.42 646.239 1452.27 662.568 1452.27C671.969 1452.27 687.802 1449.76 702.152 1453.77C722.186 1459.38 777.361 1462.3 791.217 1457.79C814.827 1450.09 807.545 1427.68 797.65 1419.15C780.284 1404.18 746.739 1405.21 738.273 1393.56C731.346 1384.03 727.404 1361.02 722.439 1355.43C713.533 1345.39 707.483 1354.23 709.08 1363.96C711.058 1376 707.099 1387.04 681.864 1386.54Z" fill="#D9E0E9"/>
<mask id="mask2" mask-type="alpha" maskUnits="userSpaceOnUse" x="625" y="1351" width="182" height="110">
<path d="M681.788 1386.86C661.636 1386.46 654.951 1373.36 654.128 1366.86H643.757C642.769 1368.36 639.559 1371.86 637.336 1382.36C634.372 1396.36 629.433 1398.86 626.469 1411.86C624.417 1420.86 624 1434.36 628.939 1441.86C636.61 1453.51 646.226 1452.36 662.526 1452.36C671.911 1452.36 687.716 1449.86 702.04 1453.86C722.039 1459.44 777.117 1462.36 790.948 1457.86C814.517 1450.19 807.247 1427.86 797.37 1419.36C780.034 1404.44 746.548 1405.47 738.097 1393.86C731.183 1384.36 727.248 1361.43 722.292 1355.86C713.401 1345.86 707.361 1354.67 708.956 1364.36C710.93 1376.36 706.979 1387.36 681.788 1386.86Z" fill="#D9E0E9"/>
</mask>
<g mask="url(#mask2)">
<path d="M714.885 1366.36C713.699 1359.16 711.427 1354.69 710.439 1353.36L712.414 1348.36H723.775C729.044 1353.03 737.902 1364.46 731.184 1372.86C722.787 1383.36 716.366 1375.36 714.885 1366.36Z" fill="#FFC9C6"/>
</g>
<mask id="mask3" mask-type="alpha" maskUnits="userSpaceOnUse" x="625" y="1351" width="182" height="110">
<path d="M681.788 1386.86C661.636 1386.46 654.951 1373.36 654.128 1366.86H643.757C642.769 1368.36 639.559 1371.86 637.336 1382.36C634.372 1396.36 629.433 1398.86 626.469 1411.86C624.417 1420.86 624 1434.36 628.939 1441.86C636.61 1453.51 646.226 1452.36 662.526 1452.36C671.911 1452.36 687.716 1449.86 702.04 1453.86C722.039 1459.44 777.117 1462.36 790.948 1457.86C814.517 1450.19 807.247 1427.86 797.37 1419.36C780.034 1404.44 746.548 1405.47 738.097 1393.86C731.183 1384.36 727.248 1361.43 722.292 1355.86C713.401 1345.86 707.361 1354.67 708.956 1364.36C710.93 1376.36 706.979 1387.36 681.788 1386.86Z" fill="#D9E0E9"/>
</mask>
<g mask="url(#mask3)">
<path d="M785.02 1434.86C794.108 1434.86 796.38 1429.19 796.38 1426.36C797.039 1435.19 796.874 1454.16 790.947 1459.36C783.538 1465.86 728.218 1462.36 720.81 1459.36C713.401 1456.36 721.797 1441.36 728.218 1445.36C734.64 1449.36 754.891 1447.36 762.793 1441.36C770.696 1435.36 773.66 1434.86 785.02 1434.86Z" fill="#253A54"/>
<path d="M794.898 1423.36C795.294 1417.36 797.697 1416.19 798.85 1416.36L815.149 1417.36L813.174 1447.36L792.429 1459.36C788.477 1459.19 780.574 1457.36 780.574 1451.36C780.574 1443.86 787.983 1443.86 792.429 1439.36C796.874 1434.86 794.404 1430.86 794.898 1423.36Z" fill="#463131"/>
<path d="M666.971 1425.86L679.319 1452.86H689.692L680.801 1433.36L698.582 1429.86L694.631 1420.36L666.971 1425.86Z" fill="#253A54"/>
<path d="M691.174 1439.36L696.607 1452.86L707.967 1456.36L700.558 1436.86L691.174 1439.36Z" fill="#253A54"/>
</g>
<circle r="14" transform="matrix(-1 0 0 1 650 1412)" fill="#FFC9C6"/>
<path d="M718 1390H739L737.5 1410.34L760.5 1401.69L764.5 1420L783 1408.81" stroke="#C6CFDB" stroke-width="6" stroke-linecap="round" stroke-linejoin="round"/>
<path d="M800.5 1168.5C824.219 1099.6 843.167 1050 855.501 1030.5C863.001 1022 856.772 1062.47 869.001 1062C882.001 1061.5 893.001 1051 894.501 1047.5C900.834 1053.5 911.701 1090.4 924.501 1130C940.501 1179.5 958.001 1292 954.501 1313C951.001 1334 927.999 1359 843.999 1355.5C759.999 1352 768.999 1260 800.5 1168.5Z" fill="#959FC0" fill-opacity="0.1"/>
<path d="M864 1079.5L836 1203.5" stroke="white" stroke-width="10"/>
<path d="M874 1155.5L867.5 1230.5" stroke="white" stroke-width="10"/>
</svg>
