<svg width="1200" height="1600" viewBox="0 0 1200 1600" fill="none" xmlns="http://www.w3.org/2000/svg">
<path d="M644.947 1231.28C640.148 1297.45 631.989 1432.04 637.748 1441.09" stroke="black" stroke-width="69.9355" stroke-linecap="round"/>
<path d="M499.934 1187.06C495.135 1253.22 486.975 1387.81 492.735 1396.86" stroke="black" stroke-width="69.9355" stroke-linecap="round"/>
<path d="M717.981 1010.59L591.618 1022.29V1380.41H683.151L717.981 1010.59Z" fill="#764047"/>
<path d="M683.001 1379.38L686.086 1358.81H591.467V1379.38H683.001Z" fill="#593036"/>
<ellipse rx="121.664" ry="62.6595" transform="matrix(-1 0 0 1 573.678 1039.91)" fill="#764047"/>
<path d="M571.927 1023.12H442.43L443.459 1382.78H537.261L571.927 1023.12Z" fill="#764047"/>
<path d="M539.016 1382.46L542.101 1361.9H441.312V1382.46H539.016Z" fill="#593036"/>
<path d="M779.494 1475.45C781.426 1470.68 780.036 1464.13 778.954 1462.35C777.873 1460.57 646.542 1452.37 646.542 1452.37C624.745 1450.59 581.537 1443.11 578.551 1456C574.857 1471.94 575.027 1475.54 577.544 1487.88C581.572 1492 622.321 1495.6 635.534 1492.51C635.534 1485.31 636.562 1480.68 636.562 1480.68C636.562 1480.68 643.927 1485.35 652.567 1487.37C670.19 1491.48 673.564 1495.6 728.149 1495.6C771.928 1491.48 775.171 1486.14 779.494 1475.45Z" fill="#272727"/>
<path d="M637.462 1406.12C626.515 1406.26 609.804 1402.66 600.698 1390.04C599.897 1388.93 598.261 1388.75 597.329 1389.76C589.14 1398.56 594.445 1393.55 591.155 1408.7C587.908 1423.65 585.167 1421.52 581.921 1435.4C579.673 1445.01 572.392 1467.44 581.921 1467.44H625.377C635.659 1467.44 649.546 1479.39 683.785 1482.74C740.62 1488.31 754.508 1480.68 765.857 1477.08C791.677 1468.89 778.574 1450.16 765.857 1444.17C747.227 1435.4 720.527 1428.81 706.946 1421.55C696.371 1415.89 692.739 1414.13 687.309 1408.18C680.38 1400.58 677.442 1395.72 675.243 1391.94C674.328 1390.37 671.84 1390.72 670.868 1392.26C664.865 1401.78 647.57 1405.99 637.462 1406.12Z" fill="#8E5742"/>
<mask id="mask0" mask-type="alpha" maskUnits="userSpaceOnUse" x="576" y="1389" width="204" height="96">
<path d="M636.433 1406.12C625.487 1406.26 608.776 1402.66 599.67 1390.04C598.869 1388.93 597.232 1388.75 596.3 1389.76C588.111 1398.56 593.417 1393.55 590.127 1408.7C586.88 1423.65 584.139 1421.52 580.892 1435.4C578.645 1445.01 571.364 1467.44 580.892 1467.44H624.349C634.631 1467.44 648.518 1479.39 682.756 1482.74C739.591 1488.31 753.48 1480.68 764.828 1477.08C790.649 1468.89 777.546 1450.16 764.828 1444.17C746.198 1435.4 719.499 1428.81 705.918 1421.55C695.342 1415.89 691.711 1414.13 686.281 1408.18C679.352 1400.58 676.413 1395.72 674.215 1391.94C673.299 1390.37 670.812 1390.72 669.84 1392.26C663.837 1401.78 646.541 1405.99 636.433 1406.12Z" fill="#8E5742"/>
</mask>
<g mask="url(#mask0)">
<circle r="3.59962" transform="matrix(-0.991445 -0.130526 -0.130526 0.991445 734.009 1476.99)" fill="#6C3F2E"/>
<circle r="3.59962" transform="matrix(-0.991445 -0.130526 -0.130526 0.991445 722.793 1475.51)" fill="#6C3F2E"/>
<circle r="3.59962" transform="matrix(-0.991445 -0.130526 -0.130526 0.991445 711.577 1474.03)" fill="#6C3F2E"/>
<circle r="3.59962" transform="matrix(-0.991445 -0.130526 -0.130526 0.991445 700.36 1472.56)" fill="#6C3F2E"/>
<circle r="3.59962" transform="matrix(-0.991445 -0.130526 -0.130526 0.991445 689.143 1471.08)" fill="#6C3F2E"/>
<circle r="3.59962" transform="matrix(-0.991445 -0.130526 -0.130526 0.991445 732.801 1486.16)" fill="#6C3F2E"/>
<circle r="3.59962" transform="matrix(-0.991445 -0.130526 -0.130526 0.991445 721.584 1484.69)" fill="#6C3F2E"/>
<circle r="3.59962" transform="matrix(-0.991445 -0.130526 -0.130526 0.991445 710.369 1483.21)" fill="#6C3F2E"/>
<circle r="3.59962" transform="matrix(-0.991445 -0.130526 -0.130526 0.991445 699.152 1481.73)" fill="#6C3F2E"/>
<circle r="3.59962" transform="matrix(-0.991445 -0.130526 -0.130526 0.991445 687.935 1480.26)" fill="#6C3F2E"/>
<circle r="3.59962" transform="matrix(-0.991445 -0.130526 -0.130526 0.991445 735.217 1467.81)" fill="#6C3F2E"/>
<circle r="3.59962" transform="matrix(-0.991445 -0.130526 -0.130526 0.991445 724.001 1466.33)" fill="#6C3F2E"/>
<circle r="3.59962" transform="matrix(-0.991445 -0.130526 -0.130526 0.991445 712.784 1464.86)" fill="#6C3F2E"/>
<circle r="3.59962" transform="matrix(-0.991445 -0.130526 -0.130526 0.991445 701.568 1463.38)" fill="#6C3F2E"/>
<circle r="3.59962" transform="matrix(-0.991445 -0.130526 -0.130526 0.991445 690.352 1461.9)" fill="#6C3F2E"/>
<circle r="3.59962" transform="matrix(-0.976296 -0.21644 -0.21644 0.976296 676.384 1470.38)" fill="#6C3F2E"/>
<circle r="3.59962" transform="matrix(-0.976296 -0.21644 -0.21644 0.976296 665.339 1467.93)" fill="#6C3F2E"/>
<circle r="3.59962" transform="matrix(-0.976296 -0.21644 -0.21644 0.976296 654.294 1465.48)" fill="#6C3F2E"/>
<circle r="3.59962" transform="matrix(-0.976296 -0.21644 -0.21644 0.976296 643.249 1463.04)" fill="#6C3F2E"/>
<circle r="3.59962" transform="matrix(-0.976296 -0.21644 -0.21644 0.976296 632.204 1460.59)" fill="#6C3F2E"/>
<circle r="3.59962" transform="matrix(-0.976296 -0.21644 -0.21644 0.976296 674.38 1479.42)" fill="#6C3F2E"/>
<circle r="3.59962" transform="matrix(-0.976296 -0.21644 -0.21644 0.976296 663.336 1476.97)" fill="#6C3F2E"/>
<circle r="3.59962" transform="matrix(-0.976296 -0.21644 -0.21644 0.976296 652.29 1474.52)" fill="#6C3F2E"/>
<circle r="3.59962" transform="matrix(-0.976296 -0.21644 -0.21644 0.976296 641.246 1472.07)" fill="#6C3F2E"/>
<circle r="3.59962" transform="matrix(-0.976296 -0.21644 -0.21644 0.976296 630.2 1469.62)" fill="#6C3F2E"/>
<circle r="3.59962" transform="matrix(-0.976296 -0.21644 -0.21644 0.976296 678.386 1461.34)" fill="#6C3F2E"/>
<circle r="3.59962" transform="matrix(-0.976296 -0.21644 -0.21644 0.976296 667.342 1458.9)" fill="#6C3F2E"/>
<circle r="3.59962" transform="matrix(-0.976296 -0.21644 -0.21644 0.976296 656.297 1456.45)" fill="#6C3F2E"/>
<circle r="3.59962" transform="matrix(-0.976296 -0.21644 -0.21644 0.976296 645.253 1454)" fill="#6C3F2E"/>
<circle r="3.59962" transform="matrix(-0.976296 -0.21644 -0.21644 0.976296 634.207 1451.55)" fill="#6C3F2E"/>
</g>
<path d="M671.687 1396.35C669.46 1401.36 660.528 1406.97 660.528 1410.87L682.486 1403.03L671.687 1418.98L692.264 1413.1L682.486 1426.69L705.626 1422L692.264 1434.92" stroke="#60391C" stroke-width="5.56777" stroke-linecap="round" stroke-linejoin="round"/>
<path d="M685.989 1434.4C675.919 1425.15 668.43 1420.52 660.374 1410.23C656.01 1410.23 650.25 1410.75 633.634 1410.75C611.983 1410.75 606.244 1401.49 596.677 1390.69C589.41 1395.32 593.153 1405.09 588.117 1418.46C584.089 1429.16 576.537 1445.2 576.537 1464.74C580.061 1470.91 614.803 1467.83 625.881 1467.83C628.398 1455.49 648.033 1445.2 656.774 1442.63C664.448 1440.37 673.401 1439.54 685.989 1434.4Z" fill="#714433"/>
<path d="M346.542 1475.86C344.611 1471.08 346.001 1464.54 347.082 1462.76C348.164 1460.97 479.494 1452.78 479.494 1452.78C501.292 1451 544.499 1443.52 547.485 1456.4C551.179 1472.35 551.01 1475.94 548.492 1488.29C544.464 1492.4 503.715 1496 490.503 1492.91C490.503 1485.72 489.475 1481.09 489.475 1481.09C489.475 1481.09 482.11 1485.76 473.47 1487.77C455.847 1491.89 452.472 1496 397.888 1496C354.109 1491.89 350.866 1486.55 346.542 1475.86Z" fill="#272727"/>
<path d="M488.575 1406.52C499.522 1406.67 516.233 1403.07 525.339 1390.45C526.139 1389.34 527.776 1389.16 528.708 1390.16C536.897 1398.97 531.592 1393.96 534.881 1409.11C538.128 1424.06 540.869 1421.92 544.116 1435.81C546.364 1445.42 553.644 1467.85 544.116 1467.85H500.659C490.377 1467.85 476.491 1479.79 442.252 1483.14C385.417 1488.71 371.528 1481.09 360.18 1477.49C334.359 1469.3 347.463 1450.57 360.18 1444.58C378.81 1435.81 405.509 1429.22 419.091 1421.95C429.666 1416.29 433.298 1414.53 438.727 1408.58C445.656 1400.98 448.595 1396.13 450.793 1392.35C451.709 1390.77 454.196 1391.12 455.168 1392.66C461.171 1402.18 478.467 1406.39 488.575 1406.52Z" fill="#8E5742"/>
<mask id="mask1" mask-type="alpha" maskUnits="userSpaceOnUse" x="346" y="1389" width="204" height="97">
<path d="M489.603 1406.52C500.55 1406.67 517.261 1403.07 526.367 1390.45C527.168 1389.34 528.804 1389.16 529.736 1390.16C537.925 1398.97 532.62 1393.96 535.91 1409.11C539.156 1424.06 541.898 1421.92 545.144 1435.81C547.392 1445.42 554.673 1467.85 545.144 1467.85H501.688C491.406 1467.85 477.519 1479.79 443.28 1483.14C386.445 1488.71 372.557 1481.09 361.208 1477.49C335.388 1469.3 348.491 1450.57 361.208 1444.58C379.838 1435.81 406.538 1429.22 420.119 1421.95C430.694 1416.29 434.326 1414.53 439.756 1408.58C446.685 1400.98 449.623 1396.13 451.822 1392.35C452.737 1390.77 455.225 1391.12 456.196 1392.66C462.2 1402.18 479.495 1406.39 489.603 1406.52Z" fill="#8E5742"/>
</mask>
<g mask="url(#mask1)">
<circle cx="392.028" cy="1477.39" r="3.59962" transform="rotate(-7.5 392.028 1477.39)" fill="#6C3F2E"/>
<circle cx="403.244" cy="1475.91" r="3.59962" transform="rotate(-7.5 403.244 1475.91)" fill="#6C3F2E"/>
<circle cx="414.46" cy="1474.44" r="3.59962" transform="rotate(-7.5 414.46 1474.44)" fill="#6C3F2E"/>
<circle cx="425.677" cy="1472.96" r="3.59962" transform="rotate(-7.5 425.677 1472.96)" fill="#6C3F2E"/>
<circle cx="436.893" cy="1471.48" r="3.59962" transform="rotate(-7.5 436.893 1471.48)" fill="#6C3F2E"/>
<circle cx="393.236" cy="1486.57" r="3.59962" transform="rotate(-7.5 393.236 1486.57)" fill="#6C3F2E"/>
<circle cx="404.452" cy="1485.09" r="3.59962" transform="rotate(-7.5 404.452 1485.09)" fill="#6C3F2E"/>
<circle cx="415.668" cy="1483.61" r="3.59962" transform="rotate(-7.5 415.668 1483.61)" fill="#6C3F2E"/>
<circle cx="426.885" cy="1482.14" r="3.59962" transform="rotate(-7.5 426.885 1482.14)" fill="#6C3F2E"/>
<circle cx="438.101" cy="1480.66" r="3.59962" transform="rotate(-7.5 438.101 1480.66)" fill="#6C3F2E"/>
<circle cx="390.819" cy="1468.21" r="3.59962" transform="rotate(-7.5 390.819 1468.21)" fill="#6C3F2E"/>
<circle cx="402.036" cy="1466.74" r="3.59962" transform="rotate(-7.5 402.036 1466.74)" fill="#6C3F2E"/>
<circle cx="413.253" cy="1465.26" r="3.59962" transform="rotate(-7.5 413.253 1465.26)" fill="#6C3F2E"/>
<circle cx="424.469" cy="1463.78" r="3.59962" transform="rotate(-7.5 424.469 1463.78)" fill="#6C3F2E"/>
<circle cx="435.685" cy="1462.31" r="3.59962" transform="rotate(-7.5 435.685 1462.31)" fill="#6C3F2E"/>
<circle cx="449.654" cy="1470.79" r="3.59962" transform="rotate(-12.5 449.654 1470.79)" fill="#6C3F2E"/>
<circle cx="460.699" cy="1468.34" r="3.59962" transform="rotate(-12.5 460.699 1468.34)" fill="#6C3F2E"/>
<circle cx="471.744" cy="1465.89" r="3.59962" transform="rotate(-12.5 471.744 1465.89)" fill="#6C3F2E"/>
<circle cx="482.789" cy="1463.44" r="3.59962" transform="rotate(-12.5 482.789 1463.44)" fill="#6C3F2E"/>
<circle cx="493.833" cy="1460.99" r="3.59962" transform="rotate(-12.5 493.833 1460.99)" fill="#6C3F2E"/>
<circle cx="451.658" cy="1479.82" r="3.59962" transform="rotate(-12.5 451.658 1479.82)" fill="#6C3F2E"/>
<circle cx="462.703" cy="1477.37" r="3.59962" transform="rotate(-12.5 462.703 1477.37)" fill="#6C3F2E"/>
<circle cx="473.747" cy="1474.93" r="3.59962" transform="rotate(-12.5 473.747 1474.93)" fill="#6C3F2E"/>
<circle cx="484.792" cy="1472.48" r="3.59962" transform="rotate(-12.5 484.792 1472.48)" fill="#6C3F2E"/>
<circle cx="495.837" cy="1470.03" r="3.59962" transform="rotate(-12.5 495.837 1470.03)" fill="#6C3F2E"/>
<circle cx="447.65" cy="1461.75" r="3.59962" transform="rotate(-12.5 447.65 1461.75)" fill="#6C3F2E"/>
<circle cx="458.696" cy="1459.3" r="3.59962" transform="rotate(-12.5 458.696 1459.3)" fill="#6C3F2E"/>
<circle cx="469.741" cy="1456.85" r="3.59962" transform="rotate(-12.5 469.741 1456.85)" fill="#6C3F2E"/>
<circle cx="480.786" cy="1454.4" r="3.59962" transform="rotate(-12.5 480.786 1454.4)" fill="#6C3F2E"/>
<circle cx="491.83" cy="1451.95" r="3.59962" transform="rotate(-12.5 491.83 1451.95)" fill="#6C3F2E"/>
</g>
<path d="M454.349 1396.75C456.577 1401.76 465.509 1407.37 465.509 1411.27L443.551 1403.44L454.349 1419.38L433.773 1413.5L443.551 1427.09L420.41 1422.41L433.773 1435.32" stroke="#60391C" stroke-width="5.56777" stroke-linecap="round" stroke-linejoin="round"/>
<path d="M440.048 1434.81C450.118 1425.55 457.606 1420.92 465.663 1410.64C470.026 1410.64 475.787 1411.15 492.403 1411.15C514.053 1411.15 519.793 1401.9 529.359 1391.1C536.626 1395.72 532.884 1405.49 537.919 1418.86C541.947 1429.56 549.5 1445.6 549.5 1465.15C545.975 1471.32 511.233 1468.23 500.156 1468.23C497.638 1455.89 478.004 1445.61 469.262 1443.03C461.589 1440.78 452.636 1439.95 440.048 1434.81Z" fill="#714433"/>
<path d="M750.879 739.675C818.456 788.09 922.633 730.419 922.633 646.085" stroke="#EBBAAA" stroke-width="76.1063" stroke-linecap="round" stroke-linejoin="bevel"/>
<path d="M425.142 731.641C378.499 814.325 377.041 963.519 394.002 1010.16" stroke="#EBBAAA" stroke-width="76.1063" stroke-linecap="round" stroke-linejoin="bevel"/>
<path d="M751.908 663.055C751.908 638.886 698.942 614.219 661.917 602.489L613.579 586.451C606.848 586.239 560.596 588.162 553.929 589.084L478.851 614.219C443.275 619.138 414.074 638.119 417.657 673.854L430.463 827.402L426.913 1029.7C426.839 1031.57 504.239 1033.17 506.105 1033.07C506.105 1033.07 529.76 1042.04 583.24 1044.1C636.72 1046.16 655.232 1033.07 655.232 1033.07L731.853 1029.63C733.644 1029.53 734.572 1024.29 734.424 1022.5L724.131 808.459L751.908 663.055Z" fill="#8D939E"/>
<path d="M755.077 634.755C746.219 625.3 717.048 615.743 703.57 612.146C685.057 743.789 731.085 888.723 808.473 861.034C894.098 821.236 948.41 746.027 951.429 702.651C938.059 678.996 924.928 667.617 886.636 657.398C853.725 684.138 832.128 712.935 808.473 723.22C798.295 709.862 786.655 690.423 780.621 680.024C771.962 678.482 776.509 672.825 776.509 672.825C776.509 672.825 761.271 641.367 755.077 634.755Z" fill="#3A3A5F"/>
<path d="M740.594 803.44C733.395 756.131 780.704 727.334 806.416 727.334" stroke="#474765" stroke-width="7.19924" stroke-linecap="round"/>
<path d="M850.64 833.266C815.672 809.611 811.559 740.19 811.559 724.763" stroke="#474765" stroke-width="7.19924" stroke-linecap="round"/>
<path d="M912.348 777.729C867.096 777.729 838.299 722.706 838.299 707.279" stroke="#474765" stroke-width="7.19924" stroke-linecap="round"/>
<path d="M707.684 754.074C700.485 706.765 747.794 677.968 773.505 677.968" stroke="#474765" stroke-width="7.19924" stroke-linecap="round"/>
<path d="M940.503 734.138C944.934 733.32 955.104 704.163 958.629 692.752L884.58 641.971C883.069 652.36 854.977 674.104 855.783 681.053C856.79 689.739 869.689 707.819 894.864 711.907C920.04 715.994 934.964 735.16 940.503 734.138Z" fill="#2F2F43"/>
<circle r="66.8501" transform="matrix(-1 0 0 1 584.268 607.003)" fill="#7B8493"/>
<rect width="80.5645" height="121.907" rx="38.9901" transform="matrix(-1 0 0 1 623.919 528.84)" fill="#EBBAAA"/>
<path d="M438.981 453.282C405.317 453.282 378.027 425.992 378.027 392.329C378.027 358.665 405.317 331.375 438.981 331.375C472.644 331.375 499.934 358.665 499.934 392.329C499.934 425.992 472.644 453.282 438.981 453.282Z" fill="#EBBAAA"/>
<path d="M725.923 456.368C759.586 456.368 786.876 429.078 786.876 395.414C786.876 361.751 759.586 334.461 725.923 334.461C692.259 334.461 664.969 361.751 664.969 395.414C664.969 429.078 692.259 456.368 725.923 456.368Z" fill="#EBBAAA"/>
<path d="M742.651 286.637C742.651 199.449 671.971 128.768 584.782 128.768C497.594 128.768 426.913 199.449 426.913 286.637V361.201L429.448 443.036C432.047 526.952 500.826 593.633 584.782 593.633C665.895 593.633 732.922 530.352 737.58 449.373L742.651 361.201V286.637Z" fill="#F4D4C9"/>
<path fill-rule="evenodd" clip-rule="evenodd" d="M625.629 469.603V483.47C625.629 504.77 608.362 522.037 587.062 522.037C565.761 522.037 548.494 504.77 548.494 483.47V469.603H625.629Z" fill="#393939"/>
<mask id="mask2" mask-type="alpha" maskUnits="userSpaceOnUse" x="548" y="463" width="78" height="60">
<path fill-rule="evenodd" clip-rule="evenodd" d="M625.119 463C625.454 465.046 625.629 467.146 625.629 469.287V483.47C625.629 504.77 608.362 522.037 587.062 522.037C565.761 522.037 548.494 504.77 548.494 483.47V469.287C548.494 467.146 548.669 465.046 549.004 463H625.119Z" fill="#434343"/>
</mask>
<g mask="url(#mask2)">
<ellipse rx="23.2582" ry="12.6667" transform="matrix(-1 0 0 1 585.005 522.943)" fill="#FF6C6C"/>
<rect width="77.1347" height="15.907" transform="matrix(-1 0 0 1 625.629 467.603)" fill="white"/>
</g>
<path d="M547.802 311.481L488.878 313.021" stroke="#393939" stroke-width="22" stroke-linecap="round"/>
<path d="M630.726 310.934L689.614 313.503" stroke="#393939" stroke-width="22" stroke-linecap="round"/>
<path d="M588.265 400.397C598.779 418.948 601.975 442.799 581.905 442.799" stroke="#EBBAAA" stroke-width="17.4839"/>
<path d="M510 372.429C513.667 370.596 523.9 368.029 535.5 372.429" stroke="black" stroke-width="21" stroke-linecap="round"/>
<path d="M638 373.429C641.667 371.596 651.9 369.029 663.5 373.429" stroke="black" stroke-width="21" stroke-linecap="round"/>
<path d="M576.036 363.561C578.806 351.163 569.786 339.242 557.101 338.538L484.033 334.483C470.789 333.747 460.322 345.555 462.64 358.615L468.373 390.912C470.116 400.732 478.653 407.886 488.626 407.886L549.651 407.886C559.283 407.886 567.625 401.202 569.725 391.802L576.036 363.561Z" fill="white" fill-opacity="0.29"/>
<path d="M713.326 357.106C715.067 344.163 704.464 332.895 691.439 333.848L618.862 339.158C605.844 340.11 596.994 352.79 600.589 365.338L608.735 393.773C611.263 402.597 619.331 408.678 628.509 408.678L688.399 408.678C698.699 408.678 707.411 401.059 708.785 390.852L713.326 357.106Z" fill="white" fill-opacity="0.29"/>
<path d="M716.562 370.694C716.535 373.25 714.442 375.3 711.886 375.274C709.33 375.247 707.28 373.154 707.306 370.598L716.562 370.694ZM712.056 358.83L707.428 358.782L707.434 358.224L707.572 357.683L712.056 358.83ZM694.734 339.719L694.762 335.091L694.971 335.092L695.179 335.112L694.734 339.719ZM620.001 339.274L619.452 334.678L619.739 334.644L620.029 334.646L620.001 339.274ZM603.969 355.641L608.565 355.092L608.617 355.53L608.586 355.969L603.969 355.641ZM607.563 370.378C607.382 372.928 605.169 374.848 602.619 374.667C600.07 374.486 598.15 372.273 598.33 369.723L607.563 370.378ZM707.306 370.598L707.428 358.782L716.684 358.878L716.562 370.694L707.306 370.598ZM707.572 357.683C707.442 358.193 707.573 358.303 707.445 357.723C707.341 357.25 707.115 356.551 706.71 355.667C705.902 353.904 704.528 351.721 702.581 349.574L709.439 343.358C711.991 346.172 713.902 349.144 715.124 351.81C715.734 353.14 716.208 354.473 716.486 355.736C716.74 356.891 716.933 358.44 716.54 359.977L707.572 357.683ZM702.581 349.574C698.805 345.409 694.953 344.389 694.29 344.325L695.179 335.112C698.284 335.412 704.219 337.6 709.439 343.358L702.581 349.574ZM694.707 344.347L619.973 343.902L620.029 334.646L694.762 335.091L694.707 344.347ZM620.55 343.869C619.631 343.979 617.821 344.384 615.923 345.237C614.011 346.095 612.372 347.245 611.351 348.633L603.895 343.148C606.189 340.029 609.367 338.034 612.13 336.793C614.905 335.547 617.626 334.896 619.452 334.678L620.55 343.869ZM611.351 348.633C610.003 350.464 609.285 352.088 608.918 353.292C608.523 354.586 608.581 355.228 608.565 355.092L599.374 356.19C599.042 353.41 600.04 348.387 603.895 343.148L611.351 348.633ZM608.586 355.969L607.563 370.378L598.33 369.723L599.353 355.314L608.586 355.969Z" fill="#A49C72"/>
<path d="M461.061 370.262C461.088 372.818 463.181 374.869 465.737 374.842C468.293 374.816 470.343 372.723 470.317 370.167L461.061 370.262ZM465.567 358.399L470.195 358.351L470.189 357.793L470.051 357.252L465.567 358.399ZM482.889 339.287L482.861 334.659L482.652 334.661L482.445 334.681L482.889 339.287ZM557.622 338.843L558.171 334.247L557.884 334.213L557.595 334.215L557.622 338.843ZM573.654 355.21L569.058 354.661L569.006 355.098L569.037 355.537L573.654 355.21ZM570.06 369.947C570.241 372.497 572.454 374.417 575.004 374.236C577.553 374.055 579.474 371.842 579.293 369.292L570.06 369.947ZM470.317 370.167L470.195 358.351L460.939 358.447L461.061 370.262L470.317 370.167ZM470.051 357.252C470.181 357.761 470.05 357.872 470.178 357.292C470.282 356.819 470.508 356.12 470.913 355.236C471.721 353.473 473.095 351.29 475.042 349.143L468.184 342.926C465.632 345.741 463.721 348.713 462.499 351.379C461.889 352.708 461.415 354.042 461.137 355.304C460.883 356.46 460.69 358.009 461.084 359.546L470.051 357.252ZM475.042 349.143C478.818 344.978 482.67 343.958 483.333 343.894L482.445 334.681C479.339 334.98 473.404 337.168 468.184 342.926L475.042 349.143ZM482.916 343.915L557.65 343.471L557.595 334.215L482.861 334.659L482.916 343.915ZM557.073 343.438C557.992 343.548 559.802 343.952 561.7 344.805C563.612 345.664 565.251 346.814 566.272 348.202L573.728 342.717C571.434 339.598 568.256 337.603 565.493 336.362C562.718 335.115 559.997 334.465 558.171 334.247L557.073 343.438ZM566.272 348.202C567.62 350.033 568.338 351.657 568.705 352.86C569.1 354.155 569.042 354.797 569.058 354.661L578.249 355.759C578.581 352.979 577.583 347.956 573.728 342.717L566.272 348.202ZM569.037 355.537L570.06 369.947L579.293 369.292L578.27 354.882L569.037 355.537Z" fill="#A49C72"/>
<path d="M601.624 362.636C597.167 360.236 585.683 356.877 575.398 362.636" stroke="#A49C72" stroke-width="9.25617"/>
<circle r="5.14231" transform="matrix(-1 0 0 1 624.378 668.712)" fill="#E5EBF9"/>
<path d="M476.28 233.157C479.468 206.402 482.345 187.191 484.471 169.354C485.976 156.72 486.132 153.497 450.216 179.971C414.301 206.444 408.916 264.525 418.686 313.891L429.485 372.514L440.575 369.772L440.284 295.379C458.38 277.163 473.093 259.912 476.28 233.157Z" fill="#6E6C6C"/>
<path d="M723.291 261.695C721.808 234.794 724.839 236.179 723.85 218.245C723.149 205.542 718.772 208.322 741.449 231.615C753.965 244.471 749.253 299.706 746.588 335.829L743.422 369.124L738.364 369.403L736.08 327.989C727.14 299.291 724.775 288.596 723.291 261.695Z" fill="#6E6C6C"/>
<path fill-rule="evenodd" clip-rule="evenodd" d="M582.793 107.172L582.794 107.171C582.868 107.171 582.942 107.171 583.017 107.171C583.092 107.171 583.166 107.171 583.24 107.171L583.241 107.172C630.763 107.34 744.547 134.289 748.823 260.411C736.188 244.876 716.673 238.099 699.341 227.961C662.854 206.619 633.061 198.806 593.529 198.806C559.558 198.806 517.892 206.671 489.751 220.455C464.578 232.785 442.261 242.034 417.658 260.412C421.934 134.29 535.274 107.34 582.793 107.172Z" fill="#272727"/>
<path d="M588.382 219.273C551.358 196.647 534.356 192.008 516.529 181.724C528.87 176.239 560.911 160.915 577.366 174.08C584.407 183.266 596.966 198.704 588.382 219.273Z" fill="#272727"/>
<path d="M647.519 219.273C592.496 187.391 568.67 197.676 550.843 187.391C563.185 181.906 536.445 142.712 624.378 161.679C650.604 167.336 656.103 198.704 647.519 219.273Z" fill="#272727"/>
<path d="M705.76 147.403L715.714 182.764L584.5 162.443L434.544 189.856L434.86 175.306L445.556 170.86L445.805 159.428L459.289 159.721L459.673 142.054L477.01 142.431L481.156 129.004L496.567 129.339L506.011 116.028L521.812 120.531L526.809 112.321L543.183 112.677L543.386 103.324L565.335 113.159L571.317 103.931L580.746 113.494L590.581 104.35L608.677 114.101L620.439 104.999L632.756 114.624L641.425 114.813L650.876 123.336L654.909 115.106L670.899 133.129L681.584 129.202L695.109 149.771L705.76 147.403Z" fill="#272727"/>
<path d="M619.464 665.626C625.053 633.977 624.44 632.417 638.805 585.406C638.805 585.406 677.98 596.718 692.187 601.738C706.395 606.759 723.133 615.892 723.133 615.892C732.178 634.411 741.126 750.573 743.68 856.563C746.234 962.553 754.992 984.449 743.68 1050.6C732.507 1055.4 659.792 1077.42 623.08 1060.32C623.08 1047.99 619.846 1036.23 619.464 1022.29C618.215 976.779 622.469 933.451 623.08 856.563C623.619 788.721 611.251 712.129 619.464 665.626Z" fill="#474765"/>
<path d="M731.338 671.797C714.883 662.541 670.865 639.092 647.004 631.687" stroke="#3C3C56" stroke-width="10.2846" stroke-linecap="round"/>
<path d="M656.26 560.723C670.659 564.836 673.744 579.235 673.744 597.747C673.744 610.089 607.923 711.907 614.093 690.309C628.492 639.914 592.495 620.374 596.609 614.203C600.723 608.032 631.577 564.836 656.26 560.723Z" fill="#3C3C56"/>
<path d="M618.207 1056.44C611.007 1023.53 618.207 970.051 618.207 929.941C618.207 903.446 623.006 759.559 618.207 681.053C623.349 664.255 624.378 639.914 600.723 619.345" stroke="#606092" stroke-width="14.3985" stroke-linecap="round"/>
<path d="M409.942 634.258C416.525 626.03 440.454 617.46 451.595 614.203C448.853 727.162 442.648 956.373 439.768 969.537C436.168 985.992 355.434 982.907 344.121 972.108C332.808 961.309 344.121 940.226 339.493 920.171C336.039 905.203 339.368 886.695 341.55 878.004C342.291 875.049 344.524 876.867 344.121 875.432C340.418 862.268 345.149 834.294 349.263 824.524C350.12 822.124 355.948 824.009 351.834 822.467C348.955 817.941 356.805 788.185 360.576 776.7C362.805 775.329 365.513 777.42 362.633 774.129C359.753 770.838 370.689 736.761 376.003 720.649C378.574 720.649 378.574 720.649 378.574 718.078C375.283 713.964 384.059 689.624 388.859 677.968C393.487 676.939 392.973 676.528 390.916 674.882C388.345 672.825 401.715 644.543 409.942 634.258Z" fill="#3A3A5F"/>
<path d="M343.607 987.535C343.607 965.937 341.036 971.079 343.607 960.795L428.31 947.425C429.853 957.881 432.732 980.541 431.91 987.535C430.881 996.277 423.827 994.22 398.115 998.334C372.404 1002.45 343.607 1018.52 343.607 987.535Z" fill="#2F2F43"/>
<path d="M396.058 679.51C414.399 685.51 453.858 696.788 464.965 693.909" stroke="#474765" stroke-width="7.19924" stroke-linecap="round"/>
<path d="M382.688 720.135C401.029 726.134 440.488 737.413 451.595 734.533" stroke="#474765" stroke-width="7.19924" stroke-linecap="round"/>
<path d="M367.261 776.7C385.602 782.699 425.061 793.978 436.168 791.098" stroke="#474765" stroke-width="7.19924" stroke-linecap="round"/>
<path d="M354.92 824.009C373.261 830.009 412.72 841.287 423.827 838.408" stroke="#474765" stroke-width="7.19924" stroke-linecap="round"/>
<path d="M345.15 876.461C361.605 886.231 407.886 894.459 431.026 894.459" stroke="#474765" stroke-width="7.19924" stroke-linecap="round"/>
<path d="M547.712 665.626C542.123 633.977 542.736 632.417 528.371 585.406C528.371 585.406 489.197 596.718 474.989 601.738C460.781 606.759 444.043 615.892 444.043 615.892C434.998 634.411 426.05 750.573 423.497 856.563C420.943 962.553 412.184 984.449 423.496 1050.6C434.67 1055.4 507.385 1077.42 544.096 1060.32C544.096 1047.99 547.33 1036.23 547.712 1022.29C548.961 976.779 544.707 933.451 544.096 856.563C543.557 788.721 555.925 712.129 547.712 665.626Z" fill="#474765"/>
<path d="M435.839 669.74C452.294 660.484 496.312 637.035 520.173 629.63" stroke="#3C3C56" stroke-width="10.2846" stroke-linecap="round"/>
<path d="M510.916 560.723C496.518 564.836 493.432 579.235 493.432 597.747C493.432 610.089 559.254 711.907 553.083 690.309C538.685 639.914 574.681 620.374 570.567 614.203C566.453 608.032 535.599 564.836 510.916 560.723Z" fill="#3C3C56"/>
<path d="M548.969 1056.44C556.169 1023.53 548.97 970.051 548.969 929.941C548.969 903.446 544.17 759.559 548.969 681.053C543.827 664.255 542.799 639.914 566.453 619.345" stroke="#606092" stroke-width="14.3985" stroke-linecap="round"/>
</svg>
