<svg width="1200" height="1600" viewBox="0 0 1200 1600" fill="none" xmlns="http://www.w3.org/2000/svg">
<path d="M432.021 740.835C418.932 817.135 402.041 996.8 428.822 1014.31" stroke="#EBBAAA" stroke-width="76.223" stroke-linecap="round" stroke-linejoin="bevel"/>
<path d="M426.761 659.977C426.761 635.771 479.808 611.066 516.889 599.318L565.301 583.255C572.043 583.043 618.366 584.969 625.044 585.893L700.236 611.066C735.867 615.992 765.112 635.003 761.524 670.792L748.698 824.576L752.254 1027.19C752.328 1029.05 669.659 1005.65 667.79 1005.56L523.585 1030.56L446.847 1027.11C445.052 1027.02 444.123 1021.77 444.271 1019.98L454.58 805.604L426.761 659.977Z" fill="#EBBAAA"/>
<path d="M414.632 605.882C423.503 596.413 458.583 578.601 472.083 574.998C463.565 696.449 449.417 962.303 446.332 974.654C442.475 990.093 375.762 953.533 368.048 947.358C345.388 929.216 361.286 841.754 363.214 809.848C365.143 777.941 403.543 617.718 414.632 605.882Z" fill="#D53126"/>
<path d="M377.834 992.68L367.534 944.783C383.499 951.478 420.924 949.246 442.727 944.783C447.705 954.225 455.61 979.52 437.061 989.59C419.036 999.375 393.285 998.173 377.834 992.68Z" fill="#B33229"/>
<path d="M766.88 748.045C779.969 824.346 797.375 1001.44 770.594 1018.95" stroke="#EBBAAA" stroke-width="76.223" stroke-linecap="round" stroke-linejoin="bevel"/>
<path d="M784.269 613.092C775.398 603.623 731.761 582.721 718.262 579.119C726.78 700.569 749.484 969.513 752.569 981.864C756.426 997.303 823.139 960.744 830.852 954.568C853.513 936.427 837.615 848.964 835.687 817.058C833.758 785.151 795.358 624.929 784.269 613.092Z" fill="#D53126"/>
<path d="M809.936 692.423C807.052 717.968 773.884 733.625 752.769 743.41C747.618 811.908 737.937 938.397 738.349 947.873C738.864 959.719 807.361 965.384 830.537 954.053C853.713 942.723 837.519 836.114 837.232 823.238C836.717 800.062 821.782 740.32 809.936 692.423Z" fill="#FFC736"/>
<path d="M821.067 999.89L831.368 951.993C815.402 958.688 777.977 956.457 756.175 951.993C751.196 961.435 743.291 986.731 761.84 996.8C779.866 1006.59 805.617 1005.38 821.067 999.89Z" fill="#F4B12F"/>
<path d="M533.885 1229.07C538.692 1295.34 546.863 1430.14 541.095 1439.2" stroke="#E8EEF3" stroke-width="70.0427" stroke-linecap="round"/>
<path d="M679.121 1184.78C683.927 1251.05 692.099 1385.85 686.331 1394.91" stroke="#E8EEF3" stroke-width="70.0427" stroke-linecap="round"/>
<path d="M456.618 1008.04L587.295 1019.76V1378.43H495.622L456.618 1008.04Z" fill="#495E6D"/>
<ellipse cx="605.263" cy="1030.2" rx="121.851" ry="62.7556" fill="#495E6D"/>
<path d="M607.018 1020.6H748.133L735.683 1380.81H641.737L607.018 1020.6Z" fill="#495E6D"/>
<path d="M736.803 1369.16L749.163 1014.83L725.473 1030.28L716.202 1369.16H736.803Z" fill="#374D5E"/>
<path d="M503.498 1366.59L466.417 1016.37L457.662 1012.25L494.743 1369.16L503.498 1366.59Z" fill="#374D5E"/>
<path d="M660.58 1098.26H697.661L660.58 1112.68L697.661 1118.86L666.76 1130.19" stroke="#82B9E0" stroke-width="8.24032" stroke-linejoin="bevel"/>
<path d="M543.155 1114.74H506.074L543.155 1129.16L506.074 1135.34L536.975 1146.67" stroke="#82B9E0" stroke-width="8.24032" stroke-linejoin="bevel"/>
<path d="M643.069 1380.49L639.979 1359.89H737.833L735.773 1380.49H643.069Z" fill="#303F4A"/>
<path d="M495.773 1379.46L492.683 1358.86H587.447V1379.46H495.773Z" fill="#303F4A"/>
<path d="M756.374 568.818C756.374 554.389 711.567 513.711 709.507 512.166L678.091 550.278L691.996 612.595C697.833 604.87 713.2 579.281 726.503 584.269C738.863 588.904 748.134 593.368 748.649 598.69C749.679 596.973 756.374 578.604 756.374 568.818Z" fill="#BE3228"/>
<path d="M450.452 568.818C450.452 554.389 495.259 513.711 497.319 512.166L528.735 550.278L514.829 612.595C508.992 604.87 493.625 579.281 480.323 584.269C467.962 588.904 458.692 593.368 458.177 598.69C457.147 596.973 450.452 578.604 450.452 568.818Z" fill="#BE3228"/>
<path d="M491.654 875.942C518.045 873.176 537.256 840.141 542.107 823.238C583.829 830.153 607.115 830.036 668.241 823.238C668.241 847.959 691.204 871.332 708.992 875.942V950.854C650 964.684 541.46 958.922 491.654 950.854C491.653 922.042 491.655 908.212 491.654 875.942Z" fill="#D2382D" stroke="#C03228" stroke-width="14.4206"/>
<path d="M450.711 610.169C452.197 584.238 473.491 563.94 499.459 563.701L604.511 562.735L702.565 571.309C726.928 573.439 746.125 593.018 747.687 617.431C752.518 692.928 762.031 845.813 762.031 878.86C762.031 923.151 758.949 958.688 753.799 970.019C718.895 985.435 457.149 1039.03 446.332 970.019C435.515 901.006 437.061 848.475 437.061 848.475L450.711 610.169Z" fill="#E23D32"/>
<path d="M520.92 747.941C520.92 747.941 530.827 735.095 539.04 726.362C547.253 717.629 550.019 713.972 557.186 709.378C564.352 704.783 582.765 704.783 582.765 704.783C582.765 704.783 574.598 708.492 555.837 722.083C537.076 735.674 526.605 747.874 526.605 747.874L520.92 747.941ZM530.238 747.889H537.324C537.324 747.889 545.364 742.137 550.383 739.157C555.402 736.177 564.548 730.6 578.32 730.6C597.181 730.6 618.792 743.518 626.056 746.254C633.32 748.99 639.188 748.637 654.232 741.694C669.277 734.751 683.048 726.241 683.048 726.241C683.048 726.241 646.49 718.087 615.037 716.243C592.815 714.94 571.962 718.207 571.962 718.207C571.962 718.207 567.577 718.742 561.956 722.117C546.037 731.913 530.238 747.889 530.238 747.889ZM519.719 760.882H525.839L521.917 778.127C521.917 778.127 523.828 779.728 529.733 779.728C535.637 779.728 538.052 778.127 538.052 778.127L538.916 774.322H545.151L543.189 782.807C543.189 782.807 538.916 785.272 529.058 785.272C519.201 785.272 514.314 782.807 514.314 782.807L519.719 760.882ZM554.194 761.833H560.49L554.773 784.865H548.256L554.194 761.833V761.833ZM619.249 761.833H625.546L619.828 784.865H613.312L619.249 761.833L619.249 761.833ZM564.548 770.396H576.991L575.542 775.776H563.342L564.548 770.396ZM585.133 761.835H592.018C592.018 761.835 596.267 763.735 599.307 765.817C602.348 767.899 604.977 770.71 604.977 770.71L607.317 761.833H613.504L607.866 784.863H601.429L603.062 777.224C603.062 777.224 599.681 773.785 596.437 771.37C593.192 768.954 590.161 767.618 590.161 767.618L585.724 784.941H579.37L585.133 761.835ZM632.275 761.835H639.16C639.16 761.835 643.409 763.735 646.449 765.817C649.49 767.899 652.118 770.71 652.118 770.71L654.458 761.833H660.645L655.008 784.863H648.57L650.204 777.224C650.204 777.224 646.823 773.785 643.578 771.37C640.334 768.954 637.303 767.618 637.303 767.618L632.866 784.941H626.512L632.275 761.835ZM666.361 762.721C666.361 762.721 670.536 760.882 679.881 760.882C689.226 760.882 694.524 762.721 694.524 762.721L693.393 767.954C693.393 767.954 689.143 766.428 680.889 766.428C672.636 766.428 671.298 767.954 671.298 767.954L668.836 778.665C668.836 778.665 671.512 779.799 676.959 779.799C682.406 779.799 684.583 778.665 684.583 778.665L685.697 774.613C685.697 774.613 684.656 774.045 682.099 773.81C679.542 773.575 676.959 773.81 676.959 773.81L678.184 769.608C678.184 769.608 682.309 769.524 685.697 769.925C689.085 770.327 692.493 771.305 692.493 771.305L689.759 783.177C689.759 783.177 685.697 785.226 675.745 785.226C665.793 785.226 661.396 783.177 661.396 783.177L666.361 762.721Z" fill="white"/>
<path d="M556.849 669.436C523.888 662.646 484.443 582.444 456.632 582.444C480.323 550.618 551.699 561.226 556.849 582.444C560.969 599.418 572.3 641.145 579.51 652.462C587.75 660.595 589.81 676.225 556.849 669.436Z" fill="#CA2F25"/>
<path d="M635.133 669.209C668.094 662.42 711.567 597.135 747.104 590.449C711.052 531.737 640.283 561 635.133 582.217C631.013 599.192 619.682 640.919 612.472 652.235C604.231 660.369 602.171 675.999 635.133 669.209Z" fill="#CA2F25"/>
<path d="M548.607 647.993L548.607 791.757" stroke="#F94B3F" stroke-width="14.4206" stroke-linecap="round"/>
<path d="M548.607 790.045L548.607 802.881" stroke="#FFC736" stroke-width="10.3004" stroke-linecap="round"/>
<path d="M649.552 647.993L649.552 813.491" stroke="#F94B3F" stroke-width="14.4206" stroke-linecap="round"/>
<path d="M649.552 811.368L649.552 826.221" stroke="#FFC736" stroke-width="10.3004" stroke-linecap="round"/>
<rect x="554.948" y="525.557" width="80.6881" height="122.094" rx="39.0499" fill="#EBBAAA"/>
<path d="M742.229 462.243C775.944 462.243 803.275 434.912 803.275 401.196C803.275 367.481 775.944 340.149 742.229 340.149C708.513 340.149 681.182 367.481 681.182 401.196C681.182 434.912 708.513 462.243 742.229 462.243Z" fill="#EBBAAA"/>
<path d="M454.848 465.333C421.132 465.333 393.801 438.002 393.801 404.287C393.801 370.571 421.132 343.24 454.848 343.24C488.563 343.24 515.895 370.571 515.895 404.287C515.895 438.002 488.563 465.333 454.848 465.333Z" fill="#EBBAAA"/>
<path d="M436.03 282.982C436.03 195.66 506.819 124.871 594.141 124.871C681.464 124.871 752.253 195.66 752.253 282.982V357.66L749.714 439.621C747.111 523.666 678.227 590.449 594.141 590.449C512.904 590.449 445.775 527.071 441.11 445.967L436.03 357.66V282.982Z" fill="#F4D4C9"/>
<mask id="mask0" mask-type="alpha" maskUnits="userSpaceOnUse" x="549" y="439" width="93" height="67">
<path d="M549.334 472.51C549.334 454.021 564.322 439.033 582.811 439.033H607.532C626.02 439.033 641.008 454.021 641.008 472.51C641.008 490.998 626.02 505.986 607.532 505.986H582.811C564.322 505.986 549.334 490.998 549.334 472.51Z" fill="#434343"/>
</mask>
<g mask="url(#mask0)">
<rect x="552.424" y="483.325" width="209.098" height="43.2617" fill="white"/>
</g>
<path d="M658.005 381.351V399.892" stroke="black" stroke-width="24.721" stroke-linecap="round"/>
<path d="M525.13 381.351V399.892" stroke="black" stroke-width="24.721" stroke-linecap="round"/>
<path d="M605.028 390.045C601.649 377.416 610.735 364.875 623.787 364.151L696.579 360.11C709.631 359.386 720.049 370.845 718.089 383.769L713.827 411.859C712.365 421.503 704.34 428.798 694.601 429.339L633.414 432.735C623.676 433.276 614.893 426.913 612.372 417.491L605.028 390.045Z" fill="white" fill-opacity="0.3"/>
<path d="M601.893 398.218C602.438 401.01 605.143 402.831 607.935 402.286C610.726 401.741 612.548 399.037 612.003 396.245L601.893 398.218ZM604.645 385.431L609.7 384.444L609.664 384.26L609.615 384.079L604.645 385.431ZM619.701 366.062L619.595 360.913L619.362 360.917L619.129 360.943L619.701 366.062ZM700.542 364.401L701.076 359.278L700.757 359.245L700.436 359.252L700.542 364.401ZM716.843 380.55L721.955 381.174L721.961 381.129L721.965 381.084L716.843 380.55ZM709.967 394.386C709.623 397.21 711.633 399.778 714.456 400.122C717.279 400.467 719.847 398.457 720.192 395.633L709.967 394.386ZM612.003 396.245L609.7 384.444L599.59 386.417L601.893 398.218L612.003 396.245ZM609.615 384.079C609.617 384.086 609.598 384.016 609.579 383.864C609.56 383.717 609.544 383.518 609.541 383.272C609.535 382.78 609.584 382.146 609.741 381.421C610.051 379.991 610.782 378.204 612.378 376.39L604.643 369.587C598.998 376.005 598.694 383.175 599.675 386.782L609.615 384.079ZM612.378 376.39C614.158 374.366 615.988 373.061 617.492 372.255C618.246 371.851 618.906 371.579 619.42 371.407C619.676 371.321 619.885 371.263 620.041 371.226C620.203 371.188 620.279 371.179 620.273 371.18L619.129 360.943C615.888 361.305 609.863 363.653 604.643 369.587L612.378 376.39ZM619.807 371.211L700.648 369.55L700.436 359.252L619.595 360.913L619.807 371.211ZM700.008 369.523C700.879 369.614 702.647 369.979 704.512 370.784C706.392 371.594 707.964 372.675 708.935 373.955L717.14 367.727C714.723 364.543 711.424 362.547 708.591 361.326C705.744 360.098 702.958 359.475 701.076 359.278L700.008 369.523ZM708.935 373.955C710.277 375.722 710.994 377.285 711.362 378.429C711.762 379.675 711.697 380.244 711.72 380.016L721.965 381.084C722.272 378.138 721.14 372.996 717.14 367.727L708.935 373.955ZM711.731 379.927L709.967 394.386L720.192 395.633L721.955 381.174L711.731 379.927Z" fill="black"/>
<path d="M466.251 382.787C464.518 369.83 475.136 358.556 488.173 359.51L560.883 364.829C573.921 365.783 582.784 378.482 579.184 391.049L571.359 418.362C568.673 427.738 559.779 433.946 550.052 433.234L488.934 428.763C479.206 428.051 471.311 420.615 470.018 410.948L466.251 382.787Z" fill="white" fill-opacity="0.3"/>
<path d="M463.32 396.244C463.774 399.052 466.418 400.961 469.226 400.507C472.034 400.053 473.942 397.409 473.488 394.601L463.32 396.244ZM466.486 383.553L471.57 382.731L471.54 382.546L471.497 382.364L466.486 383.553ZM482.163 364.683L482.224 359.534L481.991 359.531L481.758 359.549L482.163 364.683ZM563.015 365.649L563.715 360.547L563.397 360.503L563.077 360.499L563.015 365.649ZM578.783 382.319L583.872 383.108L583.879 383.064L583.885 383.019L578.783 382.319ZM571.461 395.925C571.025 398.736 572.951 401.368 575.761 401.803C578.572 402.239 581.204 400.314 581.64 397.503L571.461 395.925ZM473.488 394.601L471.57 382.731L461.401 384.375L463.32 396.244L473.488 394.601ZM471.497 382.364C471.498 382.371 471.482 382.3 471.467 382.148C471.453 382 471.444 381.8 471.449 381.555C471.46 381.062 471.528 380.431 471.709 379.711C472.065 378.292 472.854 376.529 474.508 374.768L466.999 367.718C461.148 373.949 460.611 381.105 461.475 384.743L471.497 382.364ZM474.508 374.768C476.353 372.803 478.224 371.558 479.754 370.802C480.521 370.423 481.189 370.172 481.708 370.017C481.967 369.939 482.178 369.888 482.335 369.856C482.498 369.823 482.574 369.817 482.568 369.818L481.758 359.549C478.507 359.806 472.408 361.956 466.999 367.718L474.508 374.768ZM482.101 369.833L562.954 370.799L563.077 360.499L482.224 359.534L482.101 369.833ZM562.315 370.751C563.183 370.87 564.938 371.293 566.775 372.157C568.628 373.029 570.164 374.16 571.094 375.471L579.496 369.512C577.183 366.252 573.951 364.15 571.16 362.837C568.354 361.517 565.59 360.804 563.715 360.547L562.315 370.751ZM571.094 375.471C572.377 377.28 573.043 378.866 573.373 380.022C573.733 381.279 573.649 381.846 573.68 381.619L583.885 383.019C584.288 380.085 583.323 374.909 579.496 369.512L571.094 375.471ZM573.693 381.53L571.461 395.925L581.64 397.503L583.872 383.108L573.693 381.53Z" fill="black"/>
<path d="M452.893 368.99C459.722 364.356 473.91 360.652 479.675 359.72L470.556 372.596L470.556 386.131L452.436 378.783C452.436 375.17 452.436 372.596 452.893 368.99Z" fill="black"/>
<path d="M732.857 370.021C726.028 365.386 711.84 361.682 706.075 360.75L715.194 373.626L715.194 387.161L733.314 379.813C733.314 376.201 733.314 373.626 732.857 370.021Z" fill="black"/>
<path d="M578.148 381.133C582.612 378.73 594.114 375.365 604.414 381.133" stroke="black" stroke-width="10.3004"/>
<path d="M630.193 336.899L682.562 328.013C683.293 327.889 684.035 328.158 684.518 328.721L695.792 341.87C696.886 343.146 696.122 345.127 694.455 345.338L629.781 353.529C626.922 353.891 624.548 351.344 625.111 348.517L626.759 340.236C627.101 338.519 628.467 337.191 630.193 336.899Z" fill="#272727"/>
<path d="M552.264 336.747L499.748 328.777C499.015 328.666 498.278 328.948 497.805 329.519L486.762 342.863C485.691 344.158 486.489 346.125 488.16 346.307L552.966 353.368C555.832 353.68 558.161 351.092 557.549 348.275L555.756 340.025C555.385 338.314 553.995 337.01 552.264 336.747Z" fill="#272727"/>
<path d="M590.539 405.042C580.008 423.622 565.818 455.514 602.899 455.514" stroke="#EBBAAA" stroke-width="17.5107"/>
<path d="M701.781 270.107C698.589 243.311 686.397 165.396 684.269 147.532C682.761 134.878 707.036 143.679 743.007 170.193C778.978 196.707 773.367 287.618 763.581 337.06L749.701 382.596L738.594 379.85L738.594 322.639C720.47 304.395 704.974 296.903 701.781 270.107Z" fill="#272727"/>
<path d="M455.421 258.001C456.907 231.059 453.871 232.446 454.862 214.485C455.563 201.762 455.42 169.163 424.701 214.484C414.619 229.359 429.42 296.07 432.088 332.249L435.259 365.594L440.325 365.874L442.613 324.396C451.566 295.655 453.935 284.943 455.421 258.001Z" fill="#272727"/>
<path fill-rule="evenodd" clip-rule="evenodd" d="M599.749 103.241L599.748 103.24C599.672 103.24 599.596 103.24 599.52 103.241C599.444 103.24 599.367 103.24 599.292 103.24L599.291 103.241C550.661 103.418 403.071 152.682 429.85 264.956C442.78 248.562 462.748 252.741 480.485 242.042C517.823 219.52 548.31 211.274 588.763 211.274C623.525 211.274 666.163 219.575 694.959 234.121C720.719 247.133 743.557 245.563 768.733 264.957C764.358 131.859 648.375 103.418 599.749 103.241Z" fill="#272727"/>
<path d="M547.952 257.779C597.32 214.728 623.432 220.444 639.436 206.541C625.879 203.421 645.213 158.536 560.03 194.996C534.625 205.871 535.23 238.668 547.952 257.779Z" fill="#272727"/>
<path d="M591.568 254.656L612.169 204.184C718.263 204.184 722.383 222.725 718.263 239.206C714.143 255.686 694.572 264.957 669.851 271.652C669.851 260.836 668.478 242.982 669.851 233.025L636.89 245.386L642.04 223.755L591.568 254.656Z" fill="#272727"/>
<path d="M505.517 271.321C538.506 241.167 554.785 233.135 570.789 219.232C557.232 216.112 521.824 206.915 507.773 223.46C502.459 234.133 492.794 252.21 505.517 271.321Z" fill="#272727"/>
<path d="M456.741 290.784C506.109 247.733 538.08 234.624 554.084 220.721C540.527 217.601 554.003 191.541 468.819 228.002C443.414 238.876 444.019 271.673 456.741 290.784Z" fill="#272727"/>
<path d="M472.978 141.474L463.008 176.889L594.424 156.537L744.61 183.992L744.294 169.42L733.581 164.967L733.332 153.518L719.827 153.811L719.442 136.117L702.079 136.495L697.926 123.047L682.492 123.383L673.034 110.051L657.208 114.56L652.204 106.339L635.805 106.695L635.601 97.3274L613.618 107.177L607.627 97.9355L598.184 107.513L588.334 98.3548L570.21 108.121L558.43 99.0048L546.094 108.645L537.412 108.834L527.946 117.37L523.907 109.127L507.893 127.178L497.191 123.245L483.645 143.846L472.978 141.474Z" fill="#272727"/>
<path d="M449.259 1022.79L447.362 970.534C535.1 993.298 698.878 986.4 753.26 970.534C753.26 987.607 755.631 999.507 753.26 1022.79C721.39 1037.69 487.674 1046.59 449.259 1022.79Z" fill="#C03228"/>
<path d="M399.936 1489.93C397.959 1485.48 399.382 1475.55 400.489 1473.89C401.596 1472.23 536.035 1461.72 536.035 1461.72C558.348 1460.06 603.907 1449.71 606.964 1461.72C617.385 1502.66 589.693 1502.66 571.989 1502.66C547.647 1502.66 544.759 1496.21 528.843 1498.23C520.544 1499.28 508.373 1504.87 452.497 1504.87C407.682 1504.87 404.362 1499.89 399.936 1489.93Z" fill="#29282D"/>
<path d="M540.035 1418.37C562.618 1417.94 572.664 1411.47 581.515 1396.97H586.417C592.58 1403.67 590.089 1407.14 592.58 1418.37C595.901 1433.34 598.705 1431.2 602.026 1445.11C604.325 1454.73 604.793 1469.17 599.258 1477.2C590.662 1489.66 579.886 1488.43 561.621 1488.43C551.104 1488.43 533.393 1485.75 517.341 1490.03C494.931 1496 433.21 1499.12 417.711 1494.31C391.3 1486.11 399.446 1462.22 410.515 1453.13C429.941 1437.17 467.465 1438.27 476.935 1425.85C484.683 1415.69 489.078 1408.3 493.713 1399.03C493.713 1390.79 508.133 1390.79 509.163 1396.97C506.951 1409.81 511.807 1418.9 540.035 1418.37Z" fill="#3E3C47"/>
<mask id="mask1" mask-type="alpha" maskUnits="userSpaceOnUse" x="399" y="1383" width="205" height="114">
<path d="M539.96 1418.37C562.542 1417.94 572.589 1411.47 581.44 1396.97H586.341C592.505 1403.67 590.014 1407.13 592.505 1418.37C595.826 1433.34 598.63 1431.2 601.951 1445.11C604.25 1454.73 604.718 1469.17 599.183 1477.2C590.587 1489.66 579.811 1488.43 561.545 1488.43C551.029 1488.43 533.317 1485.75 517.266 1490.03C494.855 1496 433.135 1499.12 417.636 1494.31C391.225 1486.11 399.371 1462.22 410.439 1453.13C429.866 1437.17 467.39 1438.27 476.86 1425.85C484.608 1415.69 497.431 1395.21 502.985 1389.25C512.947 1378.55 511.303 1383.93 509.516 1394.3C507.304 1407.14 511.732 1418.9 539.96 1418.37Z" fill="#3E3C47"/>
</mask>
<g mask="url(#mask1)">
<path d="M437.062 1459.29C423.523 1455.59 416.976 1450.36 419.551 1443.84L483.414 1414.48L509.68 1427.87C486.504 1455.68 448.392 1462.38 437.062 1459.29Z" fill="#5E5B6A"/>
<path d="M495.259 1456.71C492.341 1457.57 484.856 1460.01 480.324 1460.83C495.259 1470.62 508.306 1480.58 509.68 1484.01C512.77 1483.5 518.641 1482.05 525.646 1480.4C513.285 1470.1 508.478 1463.75 495.259 1456.71Z" fill="#E8EEF3"/>
<path d="M518.95 1450.53C516.032 1451.39 508.547 1453.83 504.015 1454.65C518.95 1464.44 531.997 1474.4 533.371 1477.83C536.461 1477.31 542.332 1475.87 549.336 1474.22C536.976 1463.92 532.169 1457.57 518.95 1450.53Z" fill="#E8EEF3"/>
<path d="M542.641 1444.35C539.723 1445.21 532.238 1447.65 527.706 1448.47C542.641 1458.26 555.688 1468.22 557.062 1471.65C560.152 1471.13 566.023 1469.69 573.027 1468.04C560.667 1457.74 555.86 1451.39 542.641 1444.35Z" fill="#E8EEF3"/>
<path d="M504.53 1415.51C519.98 1425.3 567.362 1435.08 591.053 1401.09" stroke="#29282D" stroke-width="17.5107"/>
</g>
<path d="M416.778 1460.34C416.396 1453.7 415.137 1455.67 412.961 1452.59C396.33 1452.59 399.126 1486.9 399.126 1486.9L429.638 1502.04C433.454 1501.85 489.593 1501.22 489.593 1494.31C437.188 1496.88 415.137 1488 415.137 1479.15C415.137 1472.1 417.255 1468.64 416.778 1460.34Z" fill="#29282D"/>
<path d="M496.288 1429.93L482.109 1419.63L483.153 1441.98L467.143 1432.48V1447.44L450.966 1438.69L445.301 1455.17L435.516 1441.98" stroke="#2A2A2A" stroke-width="6.63877" stroke-linecap="round" stroke-linejoin="round"/>
<path d="M831.777 1489.93C833.755 1485.48 832.332 1475.55 831.224 1473.89C830.117 1472.23 695.679 1461.72 695.679 1461.72C673.365 1460.06 627.806 1449.71 624.749 1461.72C614.329 1502.66 642.021 1502.66 659.724 1502.66C684.066 1502.66 686.955 1496.21 702.871 1498.23C711.169 1499.28 723.34 1504.87 779.217 1504.87C824.031 1504.87 827.351 1499.89 831.777 1489.93Z" fill="#29282D"/>
<path d="M691.678 1418.37C669.096 1417.94 659.05 1411.47 650.198 1396.97H645.297C639.133 1403.67 641.624 1407.13 639.133 1418.37C635.812 1433.34 633.009 1431.2 629.688 1445.11C627.388 1454.73 626.921 1469.17 632.455 1477.2C641.051 1489.66 651.827 1488.43 670.093 1488.43C680.61 1488.43 698.321 1485.75 714.372 1490.03C736.783 1496 798.503 1499.12 814.002 1494.31C840.414 1486.11 832.267 1462.22 821.199 1453.13C801.772 1437.17 764.248 1438.27 754.778 1425.85C747.03 1415.69 742.636 1408.3 738 1399.03C738 1390.79 723.58 1390.79 722.55 1396.97C724.762 1409.81 719.907 1418.9 691.678 1418.37Z" fill="#3E3C47"/>
<mask id="mask2" mask-type="alpha" maskUnits="userSpaceOnUse" x="628" y="1383" width="204" height="114">
<path d="M691.755 1418.37C669.172 1417.94 659.126 1411.47 650.274 1396.97H645.373C639.21 1403.66 641.7 1407.13 639.21 1418.37C635.889 1433.34 633.085 1431.2 629.764 1445.11C627.465 1454.73 626.997 1469.17 632.531 1477.2C641.127 1489.66 651.904 1488.43 670.169 1488.43C680.686 1488.43 698.397 1485.75 714.449 1490.03C736.859 1496 798.579 1499.12 814.079 1494.31C840.49 1486.11 832.343 1462.22 821.275 1453.13C801.849 1437.17 764.325 1438.27 754.854 1425.85C747.106 1415.69 734.284 1395.21 728.73 1389.25C718.767 1378.55 720.412 1383.93 722.198 1394.3C724.411 1407.13 719.983 1418.9 691.755 1418.37Z" fill="#3E3C47"/>
</mask>
<g mask="url(#mask2)">
<path d="M794.652 1459.29C808.19 1455.59 814.738 1450.36 812.163 1443.84L748.3 1414.48L722.034 1427.87C745.21 1455.68 783.322 1462.38 794.652 1459.29Z" fill="#5E5B6A"/>
<path d="M736.455 1456.71C739.373 1457.57 746.858 1460.01 751.39 1460.83C736.455 1470.62 723.407 1480.58 722.034 1484.01C718.944 1483.49 713.073 1482.05 706.068 1480.4C718.429 1470.1 723.236 1463.75 736.455 1456.71Z" fill="#E8EEF3"/>
<path d="M712.764 1450.53C715.682 1451.39 723.167 1453.83 727.699 1454.65C712.764 1464.44 699.716 1474.4 698.343 1477.83C695.253 1477.31 689.382 1475.87 682.377 1474.22C694.738 1463.92 699.545 1457.57 712.764 1450.53Z" fill="#E8EEF3"/>
<path d="M689.073 1444.35C691.991 1445.21 699.476 1447.65 704.008 1448.47C689.073 1458.26 676.026 1468.22 674.652 1471.65C671.562 1471.13 665.691 1469.69 658.687 1468.04C671.047 1457.74 675.854 1451.39 689.073 1444.35Z" fill="#E8EEF3"/>
<path d="M727.184 1415.51C711.733 1425.3 664.352 1435.08 640.661 1401.09" stroke="#29282D" stroke-width="17.5107"/>
</g>
<path d="M814.936 1460.34C815.317 1453.7 816.576 1455.67 818.752 1452.59C835.384 1452.59 832.587 1486.9 832.587 1486.9L802.075 1502.04C798.259 1501.85 742.121 1501.22 742.121 1494.31C794.526 1496.88 816.576 1488 816.576 1479.15C816.576 1472.1 814.459 1468.64 814.936 1460.34Z" fill="#29282D"/>
<path d="M735.425 1429.93L749.604 1419.63L748.56 1441.98L764.57 1432.48V1447.44L780.747 1438.69L786.412 1455.17L796.198 1441.98" stroke="#2A2A2A" stroke-width="6.63877" stroke-linecap="round" stroke-linejoin="round"/>
</svg>
