<svg width="1200" height="1600" viewBox="0 0 1200 1600" fill="none" xmlns="http://www.w3.org/2000/svg">
<path fill-rule="evenodd" clip-rule="evenodd" d="M747 399C747 399 715 492 813 557C813 557 783 589 725 576.5C661 562.707 643 538 643 538L611 399H747Z" fill="#393939"/>
<path d="M744.393 704.188C789.744 784.584 806.162 933.648 789.67 979" stroke="#EBBAAA" stroke-width="74" stroke-linecap="round" stroke-linejoin="bevel"/>
<path d="M454.933 704.19C409.581 784.587 393.163 933.651 409.655 979.003" stroke="#EBBAAA" stroke-width="74" stroke-linecap="round" stroke-linejoin="bevel"/>
<path d="M671.67 1214L672.875 1455" stroke="#393939" stroke-width="64" stroke-linecap="round" stroke-linejoin="bevel"/>
<path d="M525.67 1214L525.67 1468" stroke="#393939" stroke-width="64" stroke-linecap="round" stroke-linejoin="bevel"/>
<rect x="432.67" y="552" width="170" height="392.822" rx="85" transform="rotate(15 432.67 552)" fill="#8D5D42"/>
<rect width="170" height="392.822" rx="85" transform="matrix(-0.965926 0.258819 0.258819 0.965926 766.877 552)" fill="#8D5D42"/>
<path d="M812.5 789L740 811L819 803.5L812.5 789Z" fill="#A87C63"/>
<path d="M799 821L743 818L791.5 833.5L799 821Z" fill="#A87C63"/>
<path d="M382.5 796L455 818L376 810.5L382.5 796Z" fill="#A87C63"/>
<path d="M396 828L452 825L403.5 840.5L396 828Z" fill="#A87C63"/>
<path d="M847.669 966C854.069 947.6 855.669 883 847.669 853L733.67 848C745.871 886 747.87 936 756.87 985L757.024 985.007C778.17 986.014 839.689 988.944 847.669 966Z" fill="#8D5D42"/>
<path d="M352.087 966C345.687 947.6 344.088 883 352.088 853L466.087 848C453.886 886 451.886 936 442.886 985L442.733 985.007C421.587 986.014 360.068 988.944 352.087 966Z" fill="#8D5D42"/>
<path d="M599.669 1075C663.182 1075 714.669 1051.49 714.669 1022.5C714.669 993.505 663.182 970 599.669 970C536.156 970 484.669 993.505 484.669 1022.5C484.669 1051.49 536.156 1075 599.669 1075Z" fill="#E3D9CA"/>
<path d="M599 937H439L489 1393L563.171 1403L591.086 1155L599 937Z" fill="#666666"/>
<path d="M601 937H761L711 1393L636.829 1403L608.914 1155L601 937Z" fill="#666666"/>
<path d="M431.888 620.532C430.625 595.136 448.623 572.837 473.713 568.711L599.67 548L725.628 568.711C750.718 572.837 768.716 595.136 767.453 620.532L759.67 777C759.67 777 762.792 918.461 764.67 964C766.366 1005.11 769.153 1257.21 769.607 1299.1C769.647 1302.83 767.629 1306.07 764.217 1307.57C747.634 1314.83 693.152 1335 599.67 1335C506.397 1335 451.951 1314.92 435.236 1307.61C431.767 1306.1 429.732 1302.76 429.836 1298.98C431.003 1256.72 437.976 1005.07 439.67 964C441.548 918.461 439.67 777 439.67 777L431.888 620.532Z" fill="#AC785B"/>
<path d="M589.5 930C589.5 902.8 585.333 734 578 654L567.5 612L589 613C590.711 626.869 595 661 601 690L610.5 613L627.5 612C627.5 630.667 620 672.4 620 690C620 707.6 619 1238 619 1334H589.5V930Z" fill="#8D5D42"/>
<path d="M600 699C603.333 797.167 609 1294 606 1334.5" stroke="#45474A" stroke-width="12"/>
<path d="M600 694L607 716" stroke="#A2A3A4" stroke-width="14" stroke-linecap="round"/>
<path d="M599.669 656C638.329 656 669.669 624.66 669.669 586C669.669 547.34 638.329 516 599.669 516C561.009 516 529.669 547.34 529.669 586C529.669 624.66 561.009 656 599.669 656Z" fill="#8D5D42"/>
<rect x="551.67" y="422" width="96" height="194" rx="48" fill="#EBBAAA"/>
<path d="M749.67 408.001C771.761 408.001 789.67 390.092 789.67 368.001C789.67 345.909 771.761 328.001 749.67 328.001C727.579 328.001 709.67 345.909 709.67 368.001C709.67 390.092 727.579 408.001 749.67 408.001Z" fill="#E4C1C1"/>
<path d="M449.669 408.001C427.578 408.001 409.669 390.092 409.669 368.001C409.669 345.909 427.578 328.001 449.669 328.001C471.76 328.001 489.669 345.909 489.669 368.001C489.669 390.092 471.76 408.001 449.669 408.001Z" fill="#E4C1C1"/>
<rect x="449.67" y="120" width="300" height="400" rx="150" fill="#F6DDD6"/>
<circle cx="500" cy="370" r="30" fill="#F2CACA"/>
<circle cx="700" cy="370" r="30" fill="#F2CACA"/>
<path d="M620 300C620 298.343 621.343 297 623 297H717C718.657 297 720 298.343 720 300V313C720 329.569 706.569 343 690 343H650C633.431 343 620 329.569 620 313V300Z" stroke="#393939" stroke-width="12"/>
<rect x="576" y="305" width="50" height="10" fill="#393939"/>
<path d="M480 300C480 298.343 481.343 297 483 297H577C578.657 297 580 298.343 580 300V312C580 328.569 566.569 342 550 342H510C493.431 342 480 328.569 480 312V300Z" stroke="#393939" stroke-width="12"/>
<path fill-rule="evenodd" clip-rule="evenodd" d="M545 409.02V428.82C545 459.3 569.629 484 599.999 484C630.378 484 654.997 459.3 654.997 428.82V409.02H545Z" fill="#393939"/>
<mask id="mask0" mask-type="alpha" maskUnits="userSpaceOnUse" x="545" y="409" width="110" height="75">
<path fill-rule="evenodd" clip-rule="evenodd" d="M545.09 409C545.03 410.021 545 411.051 545 412.081V431.367C545 460.44 569.629 484 599.999 484C630.378 484 654.997 460.44 654.997 431.367V412.081C654.997 411.051 654.967 410.021 654.907 409H545.09Z" fill="white"/>
</mask>
<g mask="url(#mask0)">
<path d="M599.998 501.693C618.316 501.693 633.166 493.583 633.166 483.58C633.166 473.576 618.316 465.467 599.998 465.467C581.68 465.467 566.83 473.576 566.83 483.58C566.83 493.583 581.68 501.693 599.998 501.693Z" fill="#FF6C6C"/>
</g>
<rect x="545" y="409.02" width="110" height="22.7466" fill="white"/>
<path d="M515 306L545 306" stroke="black" stroke-width="10" stroke-linecap="round"/>
<path d="M655 306L685 306" stroke="black" stroke-width="10" stroke-linecap="round"/>
<path d="M659 305L659 324" stroke="black" stroke-width="24" stroke-linecap="round"/>
<path d="M541.004 305L541.004 324" stroke="black" stroke-width="24" stroke-linecap="round"/>
<path d="M638 262L695 265" stroke="#271E1E" stroke-width="12" stroke-linecap="round"/>
<path d="M562 262L505 265" stroke="#271E1E" stroke-width="12" stroke-linecap="round"/>
<path d="M602 631.5L648.5 533L683 561.5L662 643.5L602 631.5Z" fill="#45474A"/>
<path d="M657.5 540.5L619.5 634.5" stroke="#A2A3A4" stroke-width="10"/>
<path d="M672 552.5L645 639.5" stroke="#A2A3A4" stroke-width="10"/>
<path d="M598 631.5L551.5 533L517 561.5L538 643.5L598 631.5Z" fill="#45474A"/>
<path d="M542.5 540.5L580.5 634.5" stroke="#A2A3A4" stroke-width="10"/>
<path d="M528 552.5L555 639.5" stroke="#A2A3A4" stroke-width="10"/>
<path d="M754.661 234.486C754.894 228.216 750.353 223.001 744.67 223.001C738.773 223.001 734.158 228.595 734.716 235.07L744.131 344.773C744.289 346.607 745.682 348.001 747.344 348.001C749.081 348.001 750.501 346.494 750.576 344.589L754.661 234.486Z" fill="#393939"/>
<path d="M444.678 234.486C444.446 228.216 448.987 223.001 454.67 223.001C460.566 223.001 465.181 228.595 464.624 235.07L455.209 344.773C455.051 346.607 453.658 348.001 451.996 348.001C450.259 348.001 448.838 346.494 448.764 344.589L444.678 234.486Z" fill="#393939"/>
<path d="M597.559 196.121C669.902 196.121 727.746 225.942 730.729 281.636C742.932 299.749 753.424 257.827 753.424 224.742C753.424 119 661.216 93.0002 592.368 93C592.368 93 525.208 196.121 597.559 196.121Z" fill="#393939"/>
<path d="M605.558 176.121C531.311 176.121 471.945 225.942 468.884 281.636C456.359 299.749 445.591 257.834 445.591 224.742C445.591 116 540.226 93.0002 610.885 93C610.885 93 679.812 176.121 605.558 176.121Z" fill="#393939"/>
<path d="M599.67 338C589.67 353 579.67 388 609.67 388" stroke="#EBBAAA" stroke-width="17"/>
<path d="M825.544 1500.04C825.72 1479.86 822.572 1478.35 802.613 1470.08C782.654 1461.81 735.663 1448.4 719.318 1425.85C719.318 1425.85 714.774 1425.1 707.383 1428.61C701.076 1431.6 692.979 1438.95 680.766 1438.85C667.503 1438.73 655.682 1436.25 648.335 1432.85C645.153 1425.21 638.116 1425.14 638.116 1425.14C638.116 1425.14 628.226 1441.72 628.081 1458.38C627.935 1475.04 627.985 1502.72 627.985 1502.72L825.544 1500.04Z" fill="#545454"/>
<path d="M664.774 1462.32C661.274 1460.27 641.232 1452.66 632.277 1447.46C627.848 1450.7 628.401 1470.27 628.303 1481.55L672.283 1483.98C669.857 1475.41 665.94 1463.51 664.774 1462.32Z" fill="#666666"/>
<path d="M779.19 1474.42C791.677 1476.06 807.672 1476.72 810.707 1472.64L790.262 1466.31L763.357 1455.31L756.326 1458.83L757.299 1461.92L742.214 1471.53L748.634 1480.82L748.733 1480.77C753.662 1478.56 766.581 1472.75 779.19 1474.42Z" fill="#666666"/>
<path d="M722.526 1429.21C720.359 1434.21 720.358 1440.31 720.357 1444.2L738.766 1435.87L734.431 1451.97L751.215 1446.41L751.211 1462.51L764.206 1455.29L764.203 1469.17" stroke="#393939" stroke-width="5.41368" stroke-linecap="round" stroke-linejoin="round"/>
<path d="M628.42 1499.55L628.424 1480.99L786.828 1492.03L826.632 1487.92L827.457 1494.81C828.046 1499.73 824.407 1504.13 819.472 1504.48L786.825 1506.81L706.628 1503.87L632.752 1503.88C630.359 1503.88 628.419 1501.94 628.42 1499.55Z" fill="#393939"/>
<path d="M373.336 1499.29C373.16 1479.11 376.308 1477.59 396.267 1469.33C416.226 1461.06 463.217 1447.65 479.562 1425.1C479.562 1425.1 484.106 1424.34 491.497 1427.85C497.804 1430.85 505.901 1438.2 518.114 1438.09C531.377 1437.98 543.198 1435.49 550.545 1432.1C553.727 1424.45 560.764 1424.39 560.764 1424.39C560.764 1424.39 570.654 1440.97 570.799 1457.63C570.945 1474.29 570.895 1501.96 570.895 1501.96L373.336 1499.29Z" fill="#545454"/>
<path d="M534.106 1461.57C537.606 1459.52 557.648 1451.91 566.603 1446.7C571.032 1449.95 570.479 1469.51 570.577 1480.79L526.597 1483.23C529.022 1474.66 532.94 1462.76 534.106 1461.57Z" fill="#666666"/>
<path d="M419.69 1473.66C407.203 1475.31 391.208 1475.96 388.173 1471.89L408.618 1465.56L435.523 1454.55L442.554 1458.08L441.581 1461.17L456.665 1470.78L450.246 1480.06L450.147 1480.02C445.218 1477.8 432.298 1472 419.69 1473.66Z" fill="#666666"/>
<path d="M476.354 1428.46C478.52 1433.45 478.522 1439.56 478.523 1443.45L460.114 1435.11L464.449 1451.22L447.665 1445.66L447.669 1461.76L434.674 1454.54L434.677 1468.42" stroke="#393939" stroke-width="5.41368" stroke-linecap="round" stroke-linejoin="round"/>
<path d="M570.46 1498.8L570.456 1480.24L412.051 1491.28L372.248 1487.17L371.422 1494.06C370.834 1498.97 374.473 1503.38 379.408 1503.73L412.055 1506.05L492.251 1503.11L566.128 1503.13C568.521 1503.13 570.461 1501.19 570.46 1498.8Z" fill="#393939"/>
</svg>
