<svg width="1200" height="1600" viewBox="0 0 1200 1600" fill="none" xmlns="http://www.w3.org/2000/svg">
<path d="M436.625 1057.33C425.425 1047.33 415.292 1030.03 415.125 1024.03C427.958 1020.37 455.525 1015.73 463.125 1026.53C472.625 1040.03 450.625 1069.83 436.625 1057.33Z" fill="#EBBAAA"/>
<path d="M525.808 1229.11C530.607 1295.27 538.766 1429.87 533.007 1438.92" stroke="#EBBAAA" stroke-width="69.9355" stroke-linecap="round"/>
<path d="M665.822 1184.89C670.621 1251.05 678.78 1385.64 673.021 1394.69" stroke="#EBBAAA" stroke-width="69.9355" stroke-linecap="round"/>
<path d="M455.124 1015.83L575.126 1020.12L572.073 1179.98V1385.83H501.124L459.126 1179.98L431.124 1052.83L455.124 1015.83Z" fill="#303237"/>
<path d="M457.124 1023.33C457.124 1034.33 448.624 1047.83 432.124 1063.33" stroke="#1C1E22" stroke-width="19"/>
<path d="M497.7 1389.83L495.124 1368.83H574.124V1389.83H497.7Z" fill="#27292E"/>
<ellipse cx="592.077" cy="1037.74" rx="121.664" ry="62.6595" fill="#303237"/>
<path d="M591.827 1019.83H723.324L717.124 1386.83H632.124L591.827 1019.83Z" fill="#303237"/>
<path d="M631.726 1390.83L629.124 1369.83H717.624V1389.33L631.726 1390.83Z" fill="#27292E"/>
<path d="M391.26 1474.14C389.329 1469.36 390.719 1462.82 391.8 1461.03C392.882 1459.25 524.212 1451.06 524.212 1451.06C546.01 1449.28 589.217 1441.79 592.203 1454.68C595.897 1470.62 595.728 1474.22 593.21 1486.57C589.182 1490.68 548.433 1494.28 535.221 1491.19C535.221 1483.99 534.193 1479.37 534.193 1479.37C534.193 1479.37 526.828 1484.03 518.188 1486.05C500.565 1490.17 497.19 1494.28 442.606 1494.28C398.827 1490.16 395.584 1484.82 391.26 1474.14Z" fill="#1D1A1A"/>
<path d="M533.293 1404.8C544.24 1404.94 560.951 1401.34 570.057 1388.72C570.857 1387.61 572.494 1387.44 573.426 1388.44C581.615 1397.24 576.31 1392.23 579.599 1407.38C582.846 1422.34 585.587 1420.2 588.834 1434.08C591.082 1443.7 598.362 1466.12 588.834 1466.12H545.377C535.095 1466.12 521.209 1478.07 486.97 1481.42C430.135 1486.99 416.246 1479.37 404.898 1475.77C379.077 1467.58 392.181 1448.84 404.898 1442.86C423.528 1434.08 450.227 1427.49 463.809 1420.23C474.384 1414.57 478.016 1412.81 483.445 1406.86C490.374 1399.26 493.313 1394.41 495.511 1390.62C496.427 1389.05 498.914 1389.4 499.886 1390.94C505.889 1400.46 523.185 1404.67 533.293 1404.8Z" fill="#49352D"/>
<mask id="mask0" mask-type="alpha" maskUnits="userSpaceOnUse" x="391" y="1387" width="204" height="97">
<path d="M534.321 1404.8C545.268 1404.94 561.979 1401.34 571.085 1388.72C571.886 1387.61 573.523 1387.44 574.455 1388.44C582.644 1397.24 577.338 1392.23 580.628 1407.38C583.875 1422.34 586.616 1420.2 589.863 1434.08C592.11 1443.7 599.391 1466.12 589.863 1466.12H546.406C536.124 1466.12 522.237 1478.07 487.999 1481.42C431.164 1486.99 417.275 1479.37 405.927 1475.77C380.106 1467.58 393.209 1448.84 405.927 1442.86C424.556 1434.08 451.256 1427.49 464.837 1420.23C475.413 1414.57 479.044 1412.81 484.474 1406.86C491.403 1399.26 494.342 1394.41 496.54 1390.62C497.455 1389.05 499.943 1389.4 500.915 1390.94C506.918 1400.46 524.213 1404.67 534.321 1404.8Z" fill="#8E5742"/>
</mask>
<g mask="url(#mask0)">
<circle cx="436.746" cy="1475.67" r="3.59962" transform="rotate(-7.5 436.746 1475.67)" fill="#3B251C"/>
<circle cx="447.962" cy="1474.19" r="3.59962" transform="rotate(-7.5 447.962 1474.19)" fill="#3B251C"/>
<circle cx="459.178" cy="1472.72" r="3.59962" transform="rotate(-7.5 459.178 1472.72)" fill="#3B251C"/>
<circle cx="470.395" cy="1471.24" r="3.59962" transform="rotate(-7.5 470.395 1471.24)" fill="#3B251C"/>
<circle cx="481.611" cy="1469.76" r="3.59962" transform="rotate(-7.5 481.611 1469.76)" fill="#3B251C"/>
<circle cx="437.954" cy="1484.85" r="3.59962" transform="rotate(-7.5 437.954 1484.85)" fill="#3B251C"/>
<circle cx="449.17" cy="1483.37" r="3.59962" transform="rotate(-7.5 449.17 1483.37)" fill="#3B251C"/>
<circle cx="460.386" cy="1481.89" r="3.59962" transform="rotate(-7.5 460.386 1481.89)" fill="#3B251C"/>
<circle cx="471.603" cy="1480.42" r="3.59962" transform="rotate(-7.5 471.603 1480.42)" fill="#3B251C"/>
<circle cx="482.819" cy="1478.94" r="3.59962" transform="rotate(-7.5 482.819 1478.94)" fill="#3B251C"/>
<circle cx="435.538" cy="1466.49" r="3.59962" transform="rotate(-7.5 435.538 1466.49)" fill="#3B251C"/>
<circle cx="446.754" cy="1465.02" r="3.59962" transform="rotate(-7.5 446.754 1465.02)" fill="#3B251C"/>
<circle cx="457.97" cy="1463.54" r="3.59962" transform="rotate(-7.5 457.97 1463.54)" fill="#3B251C"/>
<circle cx="469.186" cy="1462.06" r="3.59962" transform="rotate(-7.5 469.186 1462.06)" fill="#3B251C"/>
<circle cx="480.403" cy="1460.59" r="3.59962" transform="rotate(-7.5 480.403 1460.59)" fill="#3B251C"/>
<circle cx="494.371" cy="1469.06" r="3.59962" transform="rotate(-12.5 494.371 1469.06)" fill="#3B251C"/>
<circle cx="505.416" cy="1466.62" r="3.59962" transform="rotate(-12.5 505.416 1466.62)" fill="#3B251C"/>
<circle cx="516.461" cy="1464.17" r="3.59962" transform="rotate(-12.5 516.461 1464.17)" fill="#3B251C"/>
<circle cx="527.506" cy="1461.72" r="3.59962" transform="rotate(-12.5 527.506 1461.72)" fill="#3B251C"/>
<circle cx="538.551" cy="1459.27" r="3.59962" transform="rotate(-12.5 538.551 1459.27)" fill="#3B251C"/>
<circle cx="496.374" cy="1478.1" r="3.59962" transform="rotate(-12.5 496.374 1478.1)" fill="#3B251C"/>
<circle cx="507.42" cy="1475.65" r="3.59962" transform="rotate(-12.5 507.42 1475.65)" fill="#3B251C"/>
<circle cx="518.465" cy="1473.2" r="3.59962" transform="rotate(-12.5 518.465 1473.2)" fill="#3B251C"/>
<circle cx="529.509" cy="1470.76" r="3.59962" transform="rotate(-12.5 529.509 1470.76)" fill="#3B251C"/>
<circle cx="540.555" cy="1468.31" r="3.59962" transform="rotate(-12.5 540.555 1468.31)" fill="#3B251C"/>
<circle cx="492.369" cy="1460.03" r="3.59962" transform="rotate(-12.5 492.369 1460.03)" fill="#3B251C"/>
<circle cx="503.413" cy="1457.58" r="3.59962" transform="rotate(-12.5 503.413 1457.58)" fill="#3B251C"/>
<circle cx="514.458" cy="1455.13" r="3.59962" transform="rotate(-12.5 514.458 1455.13)" fill="#3B251C"/>
<circle cx="525.503" cy="1452.68" r="3.59962" transform="rotate(-12.5 525.503 1452.68)" fill="#3B251C"/>
<circle cx="536.548" cy="1450.23" r="3.59962" transform="rotate(-12.5 536.548 1450.23)" fill="#3B251C"/>
</g>
<path d="M499.067 1395.03C501.294 1400.04 510.227 1405.65 510.227 1409.55L488.268 1401.72L499.067 1417.66L478.491 1411.78L488.268 1425.37L465.128 1420.69L478.491 1433.6" stroke="#322013" stroke-width="5.56777" stroke-linecap="round" stroke-linejoin="round"/>
<path d="M484.766 1433.09C494.836 1423.83 502.324 1419.2 510.38 1408.92C514.744 1408.92 520.505 1409.43 537.12 1409.43C558.771 1409.43 564.511 1400.17 574.077 1389.38C581.344 1394 577.602 1403.77 582.637 1417.14C586.665 1427.84 594.218 1443.88 594.218 1463.42C590.693 1469.6 555.951 1466.51 544.874 1466.51C542.356 1454.17 522.722 1443.88 513.98 1441.31C506.307 1439.06 497.353 1438.23 484.766 1433.09Z" fill="#3C251C"/>
<path d="M818.91 1474.14C820.842 1469.36 819.452 1462.82 818.37 1461.03C817.289 1459.25 685.958 1451.06 685.958 1451.06C664.16 1449.28 620.953 1441.79 617.967 1454.68C614.273 1470.62 614.442 1474.22 616.96 1486.57C620.988 1490.68 661.737 1494.28 674.949 1491.19C674.949 1483.99 675.978 1479.37 675.978 1479.37C675.978 1479.37 683.342 1484.03 691.983 1486.05C709.606 1490.17 712.98 1494.28 767.565 1494.28C811.343 1490.16 814.587 1484.82 818.91 1474.14Z" fill="#1D1A1A"/>
<path d="M676.877 1404.8C665.931 1404.94 649.22 1401.34 640.114 1388.72C639.313 1387.61 637.676 1387.44 636.744 1388.44C628.555 1397.24 633.861 1392.23 630.571 1407.38C627.324 1422.34 624.583 1420.2 621.336 1434.08C619.089 1443.7 611.808 1466.12 621.336 1466.12H664.793C675.075 1466.12 688.962 1478.07 723.2 1481.42C780.035 1486.99 793.924 1479.37 805.272 1475.77C831.093 1467.58 817.99 1448.84 805.272 1442.86C786.643 1434.08 759.943 1427.49 746.362 1420.23C735.786 1414.57 732.155 1412.81 726.725 1406.86C719.796 1399.26 716.857 1394.41 714.659 1390.62C713.744 1389.05 711.256 1389.4 710.284 1390.94C704.281 1400.46 686.986 1404.67 676.877 1404.8Z" fill="#49352D"/>
<mask id="mask1" mask-type="alpha" maskUnits="userSpaceOnUse" x="615" y="1387" width="205" height="97">
<path d="M675.849 1404.8C664.902 1404.94 648.191 1401.34 639.085 1388.72C638.284 1387.61 636.648 1387.44 635.716 1388.44C627.527 1397.24 632.832 1392.23 629.542 1407.38C626.296 1422.34 623.555 1420.2 620.308 1434.08C618.06 1443.7 610.78 1466.12 620.308 1466.12H663.765C674.047 1466.12 687.933 1478.07 722.172 1481.42C779.007 1486.99 792.896 1479.37 804.244 1475.77C830.065 1467.58 816.961 1448.84 804.244 1442.86C785.614 1434.08 758.914 1427.49 745.333 1420.23C734.758 1414.57 731.126 1412.81 725.696 1406.86C718.767 1399.26 715.829 1394.41 713.631 1390.62C712.715 1389.05 710.228 1389.4 709.256 1390.94C703.253 1400.46 685.957 1404.67 675.849 1404.8Z" fill="#8E5742"/>
</mask>
<g mask="url(#mask1)">
<circle r="3.59962" transform="matrix(-0.991445 -0.130526 -0.130526 0.991445 773.425 1475.67)" fill="#3B251C"/>
<circle r="3.59962" transform="matrix(-0.991445 -0.130526 -0.130526 0.991445 762.209 1474.19)" fill="#3B251C"/>
<circle r="3.59962" transform="matrix(-0.991445 -0.130526 -0.130526 0.991445 750.992 1472.72)" fill="#3B251C"/>
<circle r="3.59962" transform="matrix(-0.991445 -0.130526 -0.130526 0.991445 739.776 1471.24)" fill="#3B251C"/>
<circle r="3.59962" transform="matrix(-0.991445 -0.130526 -0.130526 0.991445 728.559 1469.76)" fill="#3B251C"/>
<circle r="3.59962" transform="matrix(-0.991445 -0.130526 -0.130526 0.991445 772.216 1484.85)" fill="#3B251C"/>
<circle r="3.59962" transform="matrix(-0.991445 -0.130526 -0.130526 0.991445 761 1483.37)" fill="#3B251C"/>
<circle r="3.59962" transform="matrix(-0.991445 -0.130526 -0.130526 0.991445 749.784 1481.89)" fill="#3B251C"/>
<circle r="3.59962" transform="matrix(-0.991445 -0.130526 -0.130526 0.991445 738.568 1480.42)" fill="#3B251C"/>
<circle r="3.59962" transform="matrix(-0.991445 -0.130526 -0.130526 0.991445 727.351 1478.94)" fill="#3B251C"/>
<circle r="3.59962" transform="matrix(-0.991445 -0.130526 -0.130526 0.991445 774.632 1466.49)" fill="#3B251C"/>
<circle r="3.59962" transform="matrix(-0.991445 -0.130526 -0.130526 0.991445 763.417 1465.01)" fill="#3B251C"/>
<circle r="3.59962" transform="matrix(-0.991445 -0.130526 -0.130526 0.991445 752.2 1463.54)" fill="#3B251C"/>
<circle r="3.59962" transform="matrix(-0.991445 -0.130526 -0.130526 0.991445 740.984 1462.06)" fill="#3B251C"/>
<circle r="3.59962" transform="matrix(-0.991445 -0.130526 -0.130526 0.991445 729.767 1460.59)" fill="#3B251C"/>
<circle r="3.59962" transform="matrix(-0.976296 -0.21644 -0.21644 0.976296 715.799 1469.06)" fill="#3B251C"/>
<circle r="3.59962" transform="matrix(-0.976296 -0.21644 -0.21644 0.976296 704.755 1466.62)" fill="#3B251C"/>
<circle r="3.59962" transform="matrix(-0.976296 -0.21644 -0.21644 0.976296 693.71 1464.17)" fill="#3B251C"/>
<circle r="3.59962" transform="matrix(-0.976296 -0.21644 -0.21644 0.976296 682.664 1461.72)" fill="#3B251C"/>
<circle r="3.59962" transform="matrix(-0.976296 -0.21644 -0.21644 0.976296 671.62 1459.27)" fill="#3B251C"/>
<circle r="3.59962" transform="matrix(-0.976296 -0.21644 -0.21644 0.976296 713.796 1478.1)" fill="#3B251C"/>
<circle r="3.59962" transform="matrix(-0.976296 -0.21644 -0.21644 0.976296 702.751 1475.65)" fill="#3B251C"/>
<circle r="3.59962" transform="matrix(-0.976296 -0.21644 -0.21644 0.976296 691.706 1473.2)" fill="#3B251C"/>
<circle r="3.59962" transform="matrix(-0.976296 -0.21644 -0.21644 0.976296 680.661 1470.76)" fill="#3B251C"/>
<circle r="3.59962" transform="matrix(-0.976296 -0.21644 -0.21644 0.976296 669.616 1468.31)" fill="#3B251C"/>
<circle r="3.59962" transform="matrix(-0.976296 -0.21644 -0.21644 0.976296 717.802 1460.03)" fill="#3B251C"/>
<circle r="3.59962" transform="matrix(-0.976296 -0.21644 -0.21644 0.976296 706.758 1457.58)" fill="#3B251C"/>
<circle r="3.59962" transform="matrix(-0.976296 -0.21644 -0.21644 0.976296 695.712 1455.13)" fill="#3B251C"/>
<circle r="3.59962" transform="matrix(-0.976296 -0.21644 -0.21644 0.976296 684.668 1452.68)" fill="#3B251C"/>
<circle r="3.59962" transform="matrix(-0.976296 -0.21644 -0.21644 0.976296 673.623 1450.23)" fill="#3B251C"/>
</g>
<path d="M711.103 1395.03C708.876 1400.04 699.944 1405.65 699.944 1409.55L721.902 1401.72L711.103 1417.66L731.68 1411.78L721.902 1425.37L745.042 1420.69L731.68 1433.6" stroke="#322013" stroke-width="5.56777" stroke-linecap="round" stroke-linejoin="round"/>
<path d="M725.405 1433.09C715.335 1423.83 707.846 1419.2 699.79 1408.92C695.426 1408.92 689.666 1409.43 673.05 1409.43C651.399 1409.43 645.66 1400.17 636.093 1389.38C628.826 1394 632.569 1403.77 627.533 1417.14C623.505 1427.84 615.953 1443.88 615.953 1463.42C619.477 1469.6 654.219 1466.51 665.297 1466.51C667.814 1454.17 687.449 1443.88 696.191 1441.31C703.864 1439.06 712.817 1438.23 725.405 1433.09Z" fill="#3C251C"/>
<rect x="542.124" y="526.829" width="80" height="205" rx="38.9901" fill="#EBBAAA"/>
<circle cx="541.376" cy="666.541" r="5.14231" fill="#E5EBF9"/>
<path d="M574.124 666.829C569.124 652.329 571.624 632.329 571.624 632.329L549.124 639.829L522.124 587.329C490.958 592.829 489.624 594.829 467.124 604.829C440.284 616.758 445.624 656.829 441.624 711.329V988.829L515.124 998.829H571.624L581.624 683.329C581.624 683.329 579.124 681.329 574.124 666.829Z" fill="#33353C"/>
<path d="M592.123 652.829C592.123 652.829 596.123 641.329 589.123 636.329L598.624 632.329H622.124L653.124 590.329C653.124 590.329 697.624 596.329 712.624 604.329C727.624 612.329 736.624 699.829 736.624 699.829L743.624 991.329L705.624 1001.83H569.124C563.125 892.829 563.159 678.193 576.123 671.329C586.124 666.035 592.123 652.829 592.123 652.829Z" fill="#2D2E32"/>
<circle cx="586.624" cy="706.329" r="7.5" fill="#3D4353"/>
<ellipse cx="581.624" cy="776.829" rx="7.5" ry="8" fill="#3D4353"/>
<circle cx="579.624" cy="848.329" r="7.5" fill="#3D4353"/>
<circle cx="582.624" cy="917.329" r="7.5" fill="#3D4353"/>
<path d="M446.124 985.829C467.624 991.617 518.824 999.987 549.624 998.829" stroke="#27282E" stroke-width="33"/>
<rect x="556.124" y="977.829" width="56" height="37" rx="8" fill="#282B32" stroke="#41475A" stroke-width="11"/>
<rect x="554.124" y="990.829" width="35" height="12" rx="6" fill="#41475A"/>
<path d="M639.125 670.329C644.714 638.68 645.625 630.33 645.625 583.829C645.625 583.829 645.905 585.306 690.765 596.068C735.625 606.83 742.258 636.83 742.258 636.83C751.302 655.349 739.704 747.902 742.258 853.893C744.811 959.883 742.258 983.33 733.124 1029.33C711.624 1037.83 688.124 1047.83 634.624 1054.33C634.624 1041.99 630.507 1023.77 630.124 1009.83C628.876 964.319 621.047 930.78 621.658 853.893C622.197 786.05 630.913 716.832 639.125 670.329Z" fill="#CCA179"/>
<path d="M679.123 966.33C679.124 941.33 677.4 927.33 674.123 910.33C673.275 905.93 696.437 895.163 708.123 890.33L742.124 894.33C737.29 915.997 740.224 953.23 734.624 956.83C727.624 961.33 695.624 972.33 679.123 966.33Z" fill="#C49972"/>
<path d="M673.624 905.33C696.124 900.83 733.124 891.33 744.124 879.33" stroke="#BC9068" stroke-width="19"/>
<path d="M643.124 1054.33C636.124 1004.33 628.124 961.33 628.124 923.33C628.124 896.835 621.624 811.33 628.124 741.33C651.124 699.329 648.624 641.83 663.124 589.33" stroke="#BC9068" stroke-width="34"/>
<path d="M781.124 877.829C781.124 894.829 756.624 982.329 747.624 1014.33" stroke="#EBBAAA" stroke-width="67" stroke-linecap="round" stroke-linejoin="bevel"/>
<path d="M384.625 759.829C408.71 658.829 436.466 630.829 458.124 609.829C458.124 609.829 440.124 704.829 440.124 752.829C440.124 800.829 447.624 875.829 447.624 875.829C440.624 917.829 453.624 979.329 444.124 1001.83C418.624 1009.83 435.124 1024.33 413.624 1024.33L389.624 948.329C384.291 923.996 373.996 804.403 384.625 759.829Z" fill="#C2956B"/>
<path d="M481.124 1021.87L473.073 990.829C468.644 1001.83 425.595 1002.51 404.124 1001.47C407.647 1009.01 409.163 1017.43 413.189 1028.08C429.695 1035.17 465.357 1026.89 481.124 1021.87Z" fill="#C28E5E"/>
<path d="M532.458 671.329C527.409 639.68 526.586 631.33 526.586 584.829C526.586 584.829 526.333 585.306 485.81 596.068C445.286 606.83 439.294 637.83 439.294 637.83C431.124 656.349 441.601 748.902 439.294 854.893C436.987 960.883 439.294 984.33 447.545 1030.33C466.967 1038.83 488.195 1048.83 536.524 1055.33C536.524 1042.99 540.243 1024.77 540.589 1010.83C541.717 965.319 548.789 931.78 548.237 854.893C547.75 787.05 539.876 717.832 532.458 671.329Z" fill="#CCA179"/>
<path d="M493.327 966.33C493.327 941.33 494.884 927.33 497.844 910.33C498.61 905.93 477.687 895.163 467.13 890.33L436.417 894.33C432.626 916.329 431.358 948.729 436.417 952.329C442.74 956.829 478.421 972.33 493.327 966.33Z" fill="#C49972"/>
<path d="M498.294 905.33C477.969 900.83 444.545 891.33 434.609 879.33" stroke="#BC9068" stroke-width="19"/>
<path d="M528.845 1055.33C535.168 1005.33 542.395 962.33 542.395 924.33C542.395 897.835 548.267 812.33 542.395 742.33C521.618 700.329 523.877 641.83 510.778 589.33" stroke="#BC9068" stroke-width="34"/>
<path d="M808.125 784.829C777.124 654.829 754.124 647.829 739.125 629.829V855.829C732.124 891.329 722.123 944.329 725.125 979.329C750.625 987.329 769.624 996.329 791.124 996.329L816.124 926.829C821.457 902.496 818.754 829.403 808.125 784.829Z" fill="#C2956B"/>
<path d="M714.124 991.829L724.124 963.829C728.524 976.229 774.791 983.996 796.124 982.829C792.624 991.329 792.124 996.329 788.124 1008.33C771.724 1016.33 724.124 1000.33 714.124 991.829Z" fill="#C28E5E"/>
<path d="M794.625 734.329C783.425 743.529 752.958 749.33 739.125 751.33C739.125 755.329 739.126 758.829 739.125 768.829C762.625 767.829 791.125 760.829 799.625 752.329C798.625 746.329 796.625 740.329 794.625 734.329Z" fill="#4A623F"/>
<path d="M804.125 769.329C792.925 778.529 752.958 783.83 739.125 785.83C739.125 789.829 739.126 793.329 739.125 803.329C762.625 802.329 799.625 793.329 808.125 784.829C807.125 778.829 806.125 775.329 804.125 769.329Z" fill="#4A623F"/>
<path d="M799.625 752.329C789.125 761.829 753.625 768.83 739.125 768.83C739.125 772.829 739.126 776.329 739.125 786.329C759.625 786.329 792.625 777.329 804.625 769.829C803.625 763.829 801.625 758.329 799.625 752.329Z" fill="#C42016"/>
<path d="M546.177 610.329C539.125 600.329 542.782 578.803 546.177 571.329L520.125 582.329C520.125 582.329 512.127 594.329 517.125 623.329C520.572 643.329 529.123 660.829 555.123 676.329C558.123 649.829 567.113 636.479 572.125 631.829C563.625 629.829 555.549 623.618 546.177 610.329Z" fill="#454851"/>
<path d="M620.124 600.829C623.564 589.453 623.124 573.829 622.124 568.829L652.124 583.329C652.124 583.329 658.124 596.829 652.124 624.329C645.551 654.456 631.981 674.329 625.124 682.329C614.124 667.829 604.124 645.329 589.124 636.329C599.624 633.829 613.624 622.329 620.124 600.829Z" fill="#454951"/>
<circle cx="623.124" cy="657.829" r="6" fill="#686B72"/>
<path d="M726.774 451.112C760.438 451.112 787.728 423.822 787.728 390.158C787.728 356.495 760.438 329.205 726.774 329.205C693.111 329.205 665.821 356.495 665.821 390.158C665.821 423.822 693.111 451.112 726.774 451.112Z" fill="#EBBAAA"/>
<path d="M442.832 454.197C409.169 454.197 381.879 426.907 381.879 393.243C381.879 359.58 409.169 332.29 442.832 332.29C476.496 332.29 503.786 359.58 503.786 393.243C503.786 426.907 476.496 454.197 442.832 454.197Z" fill="#EBBAAA"/>
<path d="M423.102 284.467C423.102 197.278 493.782 126.598 580.971 126.598C668.16 126.598 738.84 197.278 738.84 284.467V359.03L736.305 440.866C733.706 524.782 664.928 591.463 580.971 591.463C499.858 591.463 432.832 528.181 428.174 447.202L423.102 359.03V284.467Z" fill="#F4D4C9"/>
<path fill-rule="evenodd" clip-rule="evenodd" d="M540.125 475.432V489.299C540.125 510.599 557.393 527.866 578.693 527.866C599.993 527.866 617.26 510.599 617.26 489.299V475.432H540.125Z" fill="#393939"/>
<mask id="mask2" mask-type="alpha" maskUnits="userSpaceOnUse" x="540" y="468" width="78" height="60">
<path fill-rule="evenodd" clip-rule="evenodd" d="M540.635 468.829C540.3 470.875 540.125 472.975 540.125 475.116V489.299C540.125 510.599 557.393 527.866 578.693 527.866C599.993 527.866 617.26 510.599 617.26 489.299V475.116C617.26 472.975 617.086 470.875 616.75 468.829H540.635Z" fill="#434343"/>
</mask>
<g mask="url(#mask2)">
<ellipse cx="580.75" cy="528.772" rx="23.2582" ry="12.6667" fill="#FF6C6C"/>
<rect x="540.125" y="473.432" width="77.1347" height="15.907" fill="white"/>
</g>
<path d="M612.761 322.704L664.035 317.198C664.75 317.121 665.454 317.425 665.888 317.999L676.033 331.41C677.018 332.711 676.16 334.585 674.532 334.691L611.376 338.795C608.584 338.976 606.435 336.367 607.147 333.661L609.235 325.735C609.668 324.091 611.071 322.885 612.761 322.704Z" fill="#393939"/>
<path d="M537.643 323.067L486.37 317.561C485.654 317.484 484.951 317.788 484.517 318.362L474.371 331.773C473.387 333.074 474.244 334.948 475.872 335.054L539.028 339.158C541.821 339.339 543.97 336.73 543.257 334.024L541.169 326.098C540.736 324.454 539.333 323.249 537.643 323.067Z" fill="#393939"/>
<path d="M636.625 369.829V387.829" stroke="black" stroke-width="24" stroke-linecap="round"/>
<path d="M518.625 369.829V387.829" stroke="black" stroke-width="24" stroke-linecap="round"/>
<path d="M571.625 381.829C561.111 400.38 544.445 442.329 581.125 442.329" stroke="#EBBAAA" stroke-width="17.4839"/>
<path d="M689.475 230.986C686.288 204.231 683.41 185.02 681.285 167.183C679.78 154.549 679.623 151.327 715.539 177.8C751.455 204.273 756.84 262.354 747.069 311.721L736.27 370.343L725.181 367.602L725.472 293.208C707.375 274.992 692.663 257.741 689.475 230.986Z" fill="#6E6C6C"/>
<path d="M442.464 259.525C443.947 232.624 440.916 234.009 441.905 216.075C442.606 203.372 446.983 206.151 424.306 229.444C411.79 242.3 416.502 297.535 419.167 333.659L422.333 366.953L427.391 367.232L429.675 325.818C438.615 297.121 440.98 286.425 442.464 259.525Z" fill="#6E6C6C"/>
<path fill-rule="evenodd" clip-rule="evenodd" d="M582.961 105.001L582.96 105C582.886 105 582.812 105 582.737 105C582.663 105 582.588 105 582.514 105L582.513 105.001C534.992 105.169 410.125 134.829 416.931 258.241C429.567 242.705 449.081 235.929 466.413 225.791C502.9 204.449 532.693 196.635 572.225 196.635C606.196 196.635 647.862 204.501 676.003 218.285C701.176 230.615 727.522 239.863 752.125 258.241C747.849 132.119 630.48 105.169 582.961 105.001Z" fill="#272727"/>
<path d="M652.625 220.829L659.625 202.829L704.125 220.829L675.625 228.829V217.829L652.625 220.829Z" fill="#272727"/>
<path d="M588.537 235.563C629.537 216.563 663.46 209.693 681.287 199.408C663.537 172.563 619.994 175.398 603.539 188.563C596.498 197.749 579.953 214.994 588.537 235.563Z" fill="#272727"/>
<path d="M551.623 232.829C593.124 204.329 615.46 209.693 633.286 199.408C615.536 172.564 568.079 178.665 551.624 191.829C544.583 201.016 534.624 213.829 551.623 232.829Z" fill="#272727"/>
<path d="M532.879 235.566C587.901 203.684 611.727 213.969 629.554 203.684C617.213 198.199 643.953 159.005 556.019 177.972C529.794 183.629 524.295 214.997 532.879 235.566Z" fill="#272727"/>
<path d="M502.372 242.103C539.397 219.477 556.399 214.838 574.225 204.553C561.884 199.068 529.843 183.745 513.388 196.909C506.347 206.096 493.788 221.533 502.372 242.103Z" fill="#272727"/>
<path d="M464.879 248.566C519.901 216.684 552.798 210.113 570.625 199.829C558.283 194.344 575.953 172.005 488.019 190.973C461.794 196.629 456.295 227.997 464.879 248.566Z" fill="#272727"/>
<path d="M437.985 265.198C486.486 225.698 485.659 200.983 503.486 190.699C491.145 185.214 465.984 174.198 444.485 201.698C418.26 207.355 429.401 244.629 437.985 265.198Z" fill="#272727"/>
</svg>
