<svg width="1200" height="1600" viewBox="0 0 1200 1600" fill="none" xmlns="http://www.w3.org/2000/svg">
<path d="M494 681.749C494 749.563 441 838.816 416 937.749" stroke="#F6DDD6" stroke-width="74" stroke-linecap="round" stroke-linejoin="bevel"/>
<rect width="304.121" height="146.058" rx="73.029" transform="matrix(0.990257 -0.139251 0.139096 0.990279 453 535.098)" fill="#3F2B18"/>
<path d="M668.696 1013.1C680.835 1071.81 678.812 1289.42 668.696 1360.27" stroke="#F6DDD6" stroke-width="60" stroke-linecap="round" stroke-linejoin="bevel"/>
<path d="M543.53 1007.03C531.392 1065.74 533.415 1283.35 543.53 1354.2" stroke="#F6DDD6" stroke-width="60" stroke-linecap="round" stroke-linejoin="bevel"/>
<rect x="460" y="579.749" width="270" height="258" rx="112" fill="#E1E8EE"/>
<rect width="144.772" height="233.685" rx="72.386" transform="matrix(0.275493 -0.961303 0.96122 0.275782 528 698.988)" fill="#E1E8EE"/>
<path d="M730 682.749C774.509 761.697 819.88 903.544 803.695 948.079" stroke="#F6DDD6" stroke-width="74" stroke-linecap="round" stroke-linejoin="bevel"/>
<path d="M372 711.749L510 601.749L528 731.749L464 787.749L372 711.749Z" fill="#E1E8EE"/>
<path d="M484.5 748.5L407.5 684.249" stroke="#9DB7C9" stroke-width="11"/>
<path d="M506.5 724.749L435 665.749" stroke="#9DB7C9" stroke-width="11"/>
<path d="M519.5 692.749L448 633.749" stroke="#9DB7C9" stroke-width="11"/>
<path d="M539.5 667.749L468 608.749" stroke="#9DB7C9" stroke-width="11"/>
<path d="M465 794.749L366 715.749L386 699.749L480 773.749L465 794.749Z" fill="#2D3941"/>
<path d="M828 712.749L690 602.749L672 732.749L736 788.749L828 712.749Z" fill="#E1E8EE"/>
<path d="M714 745.749L791 682.749" stroke="#9DB7C9" stroke-width="11"/>
<path d="M697 716.749L774 653.749" stroke="#9DB7C9" stroke-width="11"/>
<path d="M686 686.749L763 623.749" stroke="#9DB7C9" stroke-width="11"/>
<path d="M619 649.749L697.5 590.749" stroke="#9DB7C9" stroke-width="11" stroke-linecap="round" stroke-linejoin="bevel"/>
<path d="M703.5 598.749L677 591.249L690.25 585.999L703.5 580.749V598.749Z" fill="#3F2B18"/>
<path d="M501 595.749L532 615.249" stroke="#9DB7C9" stroke-width="11" stroke-linecap="round" stroke-linejoin="bevel"/>
<path d="M638 683.749L715 620.749" stroke="#9DB7C9" stroke-width="11"/>
<path d="M735 795.749L834 716.749L814 700.749L720 774.749L735 795.749Z" fill="#2D3941"/>
<path d="M501.5 604.749L496 600.249L494.5 590.749L503 585.749L513.5 596.249L501.5 604.749Z" fill="#3F2B18"/>
<path d="M455 823.5L508 667.749L532 594.749L577 604.749L661 594.749L758 840C758 840 758 850.5 751.5 856C745 861.5 738.5 864.5 738.5 864.5L606 893.749L484 868.5C484 868.5 464.5 856.5 458.5 848C452.5 839.5 455 823.5 455 823.5Z" fill="#EAF0F5"/>
<mask id="mask0" mask-type="alpha" maskUnits="userSpaceOnUse" x="454" y="594" width="304" height="299">
<path d="M454.517 822.751L507.517 667L531.517 594L576.517 604L660.517 594L757.517 839.251C757.517 839.251 757.517 849.751 751.017 855.251C744.517 860.751 738.017 863.751 738.017 863.751L605.517 893L483.517 867.751C483.517 867.751 464.017 855.751 458.017 847.251C452.017 838.751 454.517 822.751 454.517 822.751Z" fill="#EAF0F5"/>
</mask>
<g mask="url(#mask0)">
<path d="M442 831.749L761 843.749" stroke="#9DB7C9" stroke-width="11"/>
<path d="M441 803.749L758 810.749" stroke="#9DB7C9" stroke-width="11"/>
<path d="M439 776.749L751 775.749" stroke="#9DB7C9" stroke-width="11"/>
<path d="M746 740.749L435 747.749" stroke="#9DB7C9" stroke-width="11"/>
<path d="M755 707.749L438 714.749" stroke="#9DB7C9" stroke-width="11"/>
<path d="M757 680.749L445 679.749" stroke="#9DB7C9" stroke-width="11"/>
<path d="M757 648.749L445 647.749" stroke="#9DB7C9" stroke-width="11"/>
<path d="M758 612.749L446 611.749" stroke="#9DB7C9" stroke-width="11"/>
</g>
<ellipse cx="592.5" cy="625.749" rx="64.5" ry="67" fill="#2D3A41"/>
<rect x="553.376" y="556.623" width="78.2017" height="117.369" rx="39.1009" fill="#E6CBC3"/>
<path d="M427 1265.75L477 877.749H533C549 1001.75 535.8 1280.95 515 1285.75C494.2 1290.55 433.667 1276.42 427 1265.75Z" fill="#495433"/>
<path d="M793.105 1265.75L743.105 877.749H687.105C671.105 1001.75 684.305 1280.95 705.105 1285.75C725.905 1290.55 786.438 1276.42 793.105 1265.75Z" fill="#495433"/>
<path d="M492.337 1307.75C505.337 1317.75 607.424 1328.42 614.091 1317.75V1109.75L597.337 902.749H514.196C498.196 1026.75 479.337 1297.75 492.337 1307.75Z" fill="#4F5B36"/>
<path d="M603 1306.75C628 1314.75 660 1313.75 730 1306.75C730 1306.75 716.909 1205.75 711 1091.75C705.091 977.749 698 878.749 698 878.749L594 892.749C603 1030.75 609 1107.75 603 1306.75Z" fill="#54613A"/>
<path d="M476.631 861.559C476.837 859.428 478.685 857.838 480.823 857.95L610 864.749L739.177 857.95C741.315 857.838 743.163 859.428 743.369 861.559L748.547 915.068C748.784 917.522 746.767 919.604 744.307 919.445L610 910.749L475.693 919.445C473.233 919.604 471.216 917.522 471.453 915.068L476.631 861.559Z" fill="#414931"/>
<path d="M518.5 868.249L513 920.249" stroke="#4F5B36" stroke-width="12" stroke-linecap="round"/>
<path d="M601.721 872L601.721 913" stroke="#4F5B36" stroke-width="12" stroke-linecap="round"/>
<path d="M694.669 870L704.413 924" stroke="#4F5B36" stroke-width="12" stroke-linecap="round"/>
<path d="M732.053 349.685C713.618 272.771 634.119 233.251 603.302 223.805C589.233 197.492 628.892 153.34 651 149.165C683.157 143.093 731.903 171.18 770.09 246.07C818.099 340.224 794.59 594.758 783 677.749C742 677.749 712 670.749 688 646.749C729.053 576.749 732.053 416.479 732.053 416.479C732.053 416.479 742.241 392.19 732.053 349.685Z" fill="#3F2B18"/>
<ellipse cx="729.546" cy="421.928" rx="59.0857" ry="56.0764" fill="#EBBAAA"/>
<path d="M430.505 314.894C430.505 233.507 500.252 167.53 586.288 167.53C672.325 167.53 742.072 233.507 742.072 314.894V461.465C729.508 556.539 654.129 608.829 586.288 608.829C518.447 608.829 439.718 545.447 430.505 461.465V314.894Z" fill="#F6DDD6"/>
<path fill-rule="evenodd" clip-rule="evenodd" d="M545 501.271V514.967C545 536.005 562.055 553.06 583.093 553.06C604.132 553.06 621.187 536.005 621.187 514.967V501.271H545Z" fill="#393939"/>
<mask id="mask1" mask-type="alpha" maskUnits="userSpaceOnUse" x="545" y="494" width="77" height="60">
<path fill-rule="evenodd" clip-rule="evenodd" d="M545.503 494.749C545.172 496.77 545 498.844 545 500.958V514.967C545 536.005 562.055 553.06 583.093 553.06C604.132 553.06 621.187 536.005 621.187 514.967V500.958C621.187 498.844 621.014 496.77 620.683 494.749H545.503Z" fill="#434343"/>
</mask>
<g mask="url(#mask1)">
<ellipse cx="583.093" cy="552.769" rx="22.9723" ry="12.511" fill="#FF6C6C"/>
<rect x="545" y="501.271" width="76.1865" height="15.7115" fill="white"/>
</g>
<path d="M651 150.165C680.547 170.546 691.483 157.047 734 240.49C734 240.49 761.352 287.372 767 322.165C772.572 356.492 793 381.165 793 381.165L744 367.165C744 367.165 725 341.165 697 306.165C669 271.165 664 259.165 657 246.165C650 233.165 638.088 177.53 651 150.165Z" fill="#3F2B18"/>
<path d="M505.035 364.35C505.035 364.35 515.034 360.184 526.534 360.184C538.034 360.184 547.354 364.35 547.354 364.35" stroke="#46413D" stroke-width="12" stroke-linecap="round"/>
<path d="M623.035 364.35C623.035 364.35 633.034 360.184 644.534 360.184C656.034 360.184 665.354 364.35 665.354 364.35" stroke="#46413D" stroke-width="12" stroke-linecap="round"/>
<ellipse cx="486.095" cy="468.549" rx="31.8647" ry="31.8828" fill="#F2CACA"/>
<path d="M478 359.749C490.434 305.044 621.667 243.989 651 234.534C663.097 230.635 653.041 143.609 633 141.165C540 129.824 461.366 203.749 429 255.165C375.725 339.796 381.712 422.73 407 613.165C412.92 657.749 422 675.749 429 683.749C429 683.749 469 692.749 508 655.749C485.493 574.265 465.566 414.454 478 359.749Z" fill="#352312"/>
<path d="M548 176.749C513 196.749 490 210.749 457 251.749" stroke="#795839" stroke-width="10" stroke-linecap="round"/>
<path d="M533 209.749C523 216.249 515 221.749 505 232.249" stroke="#795839" stroke-width="10" stroke-linecap="round"/>
<path d="M505.654 402.564L532.59 398.305" stroke="black" stroke-width="10" stroke-linecap="round"/>
<path d="M635.121 395.697L662.057 399.955" stroke="black" stroke-width="10" stroke-linecap="round"/>
<path d="M527.489 398.305L527.488 427.083" stroke="black" stroke-width="24" stroke-linecap="round"/>
<path d="M641.315 395.696L641.315 424.475" stroke="black" stroke-width="24" stroke-linecap="round"/>
<path d="M579.447 427.424C577.42 442.204 564.675 469.155 586.398 469.155" stroke="#EBBAAA" stroke-width="17"/>
<ellipse cx="686.387" cy="468.549" rx="31.8647" ry="31.8828" fill="#F2CACA"/>
<path d="M597.152 405.177C595.65 395.388 602.168 386.531 611.67 385.485C620.281 384.537 630.958 383.647 642.671 383.304C658.495 382.84 676.083 384.389 688.954 385.924C696.672 386.844 701.988 394.081 700.701 401.992L696.376 428.573C694.846 437.978 688.17 445.467 679.222 447.265C670.219 449.073 658.982 450.747 648.323 450.747C635.282 450.747 621.568 448.531 612.125 446.602C606.742 445.503 602.657 441.035 601.782 435.34L597.152 405.177Z" stroke="#282727" stroke-width="8.44085"/>
<path d="M713.949 388.379C713.574 386.128 699.724 383.377 692.847 382.283C697.349 386.034 699.099 399.477 699.412 405.729L711.604 401.978C712.542 398.383 714.324 390.63 713.949 388.379Z" fill="#282727"/>
<path d="M565.848 405.177C567.35 395.388 560.832 386.531 551.33 385.485C542.719 384.537 532.042 383.647 520.329 383.304C504.505 382.84 486.917 384.389 474.046 385.924C466.328 386.844 461.012 394.081 462.299 401.992L466.624 428.573C468.154 437.978 474.83 445.467 483.778 447.265C492.781 449.073 504.018 450.747 514.677 450.747C527.718 450.747 541.432 448.531 550.875 446.602C556.258 445.503 560.343 441.035 561.218 435.34L565.848 405.177Z" stroke="#282727" stroke-width="8.44085"/>
<path d="M449.051 388.379C449.426 386.128 463.276 383.377 470.153 382.283C465.651 386.034 463.901 399.477 463.588 405.729L451.396 401.978C450.458 398.383 448.676 390.63 449.051 388.379Z" fill="#282727"/>
<path d="M562.951 400.102C569.986 396.82 572.987 394.944 581.24 394.944C589.493 394.944 595.777 397.757 598.591 400.102" stroke="#282727" stroke-width="15.006"/>
<rect x="556" y="703.749" width="82" height="82" rx="4" fill="#EBAAAA"/>
<path d="M696.695 1356.36C692.881 1344.92 700.402 1335.7 704.639 1332.52C706.758 1335.49 709.406 1350.53 714.173 1362.18L726.62 1377.28L745.423 1399.79L768.728 1410.91L756.546 1425.21C748.248 1418.86 700.508 1367.8 696.695 1356.36Z" fill="#3B3937"/>
<path d="M624.286 1435.78C624.286 1435.78 623.608 1410.91 628.898 1397.14C634.188 1383.37 639.639 1347.86 639.639 1347.86C639.639 1347.86 649.025 1357.92 666.504 1357.92C683.982 1357.92 702.52 1353.71 702.52 1353.71C702.52 1353.71 734.984 1396.58 743.458 1401.88C751.933 1407.18 793.246 1418.3 793.246 1418.3C802.314 1418.3 809.665 1425.65 809.665 1434.72L809.665 1443.07L710.09 1443.07L624.286 1435.78Z" fill="#1C1B19"/>
<path d="M711.525 1366.42L716.822 1364.3" stroke="#ECECEC" stroke-width="6.35587" stroke-linecap="round"/>
<path d="M718.412 1375.96L723.709 1373.84" stroke="#ECECEC" stroke-width="6.35587" stroke-linecap="round"/>
<path d="M725.827 1385.49L731.124 1383.37" stroke="#ECECEC" stroke-width="6.35587" stroke-linecap="round"/>
<path d="M735.361 1395.02L740.658 1392.9" stroke="#ECECEC" stroke-width="6.35587" stroke-linecap="round"/>
<path d="M743.835 1403.5L749.132 1401.38" stroke="#ECECEC" stroke-width="6.35587" stroke-linecap="round"/>
<path d="M623.072 1434.75L716.822 1438.98L810.041 1434.75L811.511 1446.94C811.957 1450.64 809.14 1453.92 805.416 1454.05L718.766 1456.99L670.389 1457.52L622.013 1455.93L623.072 1434.75Z" fill="#D0CEC1"/>
<path d="M622.543 1446.93C637.374 1447.46 674.629 1449.05 690.869 1449.05C702.521 1449.05 733.771 1447.99 745.952 1446.93" stroke="#1C1B19" stroke-width="4.23725"/>
<path d="M743.304 1455.93L743.304 1446.4L743.304 1442.69L810.571 1439.51L811.526 1448.11C811.868 1451.19 809.516 1453.9 806.425 1453.99L743.304 1455.93Z" fill="#ECEADF"/>
<circle cx="661.209" cy="1392.9" r="19.0676" fill="#DCE0E4"/>
<path d="M661.164 1378.88C661.6 1378.12 662.721 1378.18 663.06 1378.99L666.227 1386.54C666.362 1386.86 666.646 1387.09 666.987 1387.17L674.997 1388.83C675.857 1389.01 676.138 1390.1 675.473 1390.67L669.276 1396.02C669.012 1396.24 668.877 1396.59 668.915 1396.93L669.803 1405.07C669.899 1405.94 668.952 1406.54 668.201 1406.09L661.205 1401.85C660.907 1401.66 660.539 1401.64 660.221 1401.79L652.76 1405.14C651.959 1405.5 651.093 1404.79 651.294 1403.94L653.167 1395.97C653.246 1395.63 653.154 1395.27 652.92 1395.02L647.42 1388.96C646.83 1388.31 647.242 1387.26 648.117 1387.19L656.27 1386.51C656.618 1386.48 656.929 1386.28 657.102 1385.98L661.164 1378.88Z" fill="#5B568E"/>
<path d="M517.748 1356.36C521.561 1344.92 514.04 1335.7 509.803 1332.52C507.684 1335.49 505.036 1350.53 500.269 1362.18L487.822 1377.28L469.02 1399.79L445.715 1410.91L457.897 1425.21C466.195 1418.86 513.934 1367.8 517.748 1356.36Z" fill="#3B3937"/>
<path d="M590.157 1435.78C590.157 1435.78 590.835 1410.91 585.544 1397.14C580.254 1383.37 574.803 1347.86 574.803 1347.86C574.803 1347.86 565.418 1357.92 547.939 1357.92C530.46 1357.92 511.922 1353.71 511.922 1353.71C511.922 1353.71 479.459 1396.58 470.984 1401.88C462.509 1407.18 421.197 1418.3 421.197 1418.3C412.129 1418.3 404.777 1425.65 404.777 1434.72L404.777 1443.07L504.352 1443.07L590.157 1435.78Z" fill="#1C1B19"/>
<path d="M502.917 1366.42L497.62 1364.3" stroke="#ECECEC" stroke-width="6.35587" stroke-linecap="round"/>
<path d="M496.031 1375.96L490.733 1373.84" stroke="#ECECEC" stroke-width="6.35587" stroke-linecap="round"/>
<path d="M488.615 1385.49L483.318 1383.37" stroke="#ECECEC" stroke-width="6.35587" stroke-linecap="round"/>
<path d="M479.082 1395.02L473.784 1392.9" stroke="#ECECEC" stroke-width="6.35587" stroke-linecap="round"/>
<path d="M470.607 1403.5L465.31 1401.38" stroke="#ECECEC" stroke-width="6.35587" stroke-linecap="round"/>
<path d="M591.37 1434.75L497.621 1438.98L404.402 1434.75L402.932 1446.94C402.486 1450.64 405.302 1453.92 409.026 1454.05L495.677 1456.99L544.053 1457.52L592.429 1455.93L591.37 1434.75Z" fill="#D0CEC1"/>
<path d="M591.899 1446.93C577.069 1447.46 539.814 1449.05 523.574 1449.05C511.921 1449.05 480.672 1447.99 468.49 1446.93" stroke="#1C1B19" stroke-width="4.23725"/>
<path d="M471.138 1455.93L471.138 1446.4L471.138 1442.69L403.871 1439.51L402.916 1448.11C402.575 1451.19 404.927 1453.9 408.017 1453.99L471.138 1455.93Z" fill="#ECEADF"/>
<circle r="19.0676" transform="matrix(-1 0 0 1 553.233 1392.9)" fill="#DCE0E4"/>
<path d="M553.278 1378.88C552.842 1378.12 551.722 1378.18 551.382 1378.99L548.216 1386.54C548.081 1386.86 547.796 1387.09 547.455 1387.17L539.445 1388.83C538.585 1389.01 538.304 1390.1 538.969 1390.67L545.166 1396.02C545.43 1396.24 545.565 1396.59 545.527 1396.93L544.639 1405.07C544.544 1405.94 545.491 1406.54 546.241 1406.09L553.237 1401.85C553.536 1401.66 553.904 1401.64 554.221 1401.79L561.683 1405.14C562.483 1405.5 563.349 1404.79 563.149 1403.94L561.276 1395.97C561.196 1395.63 561.288 1395.27 561.523 1395.02L567.022 1388.96C567.612 1388.31 567.201 1387.26 566.326 1387.19L558.172 1386.51C557.825 1386.48 557.514 1386.28 557.34 1385.98L553.278 1378.88Z" fill="#5B568E"/>
<path d="M265.791 1308.96C246.212 1335.48 234.531 1365.8 252.847 1372.12" stroke="#F6DDD6" stroke-width="49.2645" stroke-linecap="round"/>
<path d="M455.901 1320.32C475.481 1346.85 487.162 1377.17 468.845 1383.48" stroke="#F6DDD6" stroke-width="49.2645" stroke-linecap="round"/>
<path d="M227.264 1302.64L272.738 1261.59L310.634 1248.32H387.057L431.901 1261.59L492.976 1308.01L448.954 1359.48L440.111 1353.17C445.164 1378.43 442.638 1363.9 445.796 1404.96C399.058 1412.54 327.477 1413.38 282.844 1404.96V1359.48L227.264 1302.64Z" fill="#FFAEC9"/>
<path d="M280.949 1389.8C321.582 1393.59 419.269 1398.89 447.059 1389.8" stroke="#FFC8DA" stroke-width="16.4215"/>
<path d="M350.709 1296.73C333.53 1297.24 327.709 1274.21 321.182 1264.52C304.003 1272.04 301.568 1297.21 316.727 1313.38C335.675 1333.59 357.151 1310.69 350.709 1296.73Z" fill="#FFC8DA"/>
<path d="M350.172 1297.27C364.924 1297.7 377.664 1273.58 383.268 1265.38C387.607 1271.8 402.651 1293.75 389.635 1307.45C373.364 1324.58 351.298 1306.91 350.172 1297.27Z" fill="#FFC8DA"/>
<path d="M237.369 1437.8C226.253 1418.6 238.211 1403.69 280.318 1398.64L349.793 1408.75L447.059 1398.64L477.376 1437.8C472.744 1452.12 460.449 1469.38 458.428 1449.17C455.901 1423.91 445.796 1463.06 429.374 1463.06C396.582 1463.06 308.95 1474.43 260.106 1463.06C234 1462.64 248.485 1457 237.369 1437.8Z" fill="#E199B1"/>
<circle cx="238.001" cy="1194.64" r="36.001" fill="#EDCFC5"/>
<rect x="328.319" y="1223.06" width="50.5277" height="74.5283" rx="25.2638" fill="#E5CBC3"/>
<circle cx="452.743" cy="1166.85" r="37.2641" fill="#EBBAAA"/>
<circle cx="352.951" cy="1161.79" r="123.161" fill="#F6DDD6"/>
<path fill-rule="evenodd" clip-rule="evenodd" d="M341.052 1221.36L342.194 1228.99C343.947 1240.72 354.876 1248.81 366.606 1247.06C378.336 1245.31 386.423 1234.38 384.67 1222.65L383.529 1215.01L341.052 1221.36Z" fill="#393939"/>
<mask id="mask2" mask-type="alpha" maskUnits="userSpaceOnUse" x="340" y="1211" width="45" height="37">
<path fill-rule="evenodd" clip-rule="evenodd" d="M340.79 1217.68C340.773 1218.83 340.85 1220.01 341.026 1221.18L342.194 1228.99C343.947 1240.72 354.876 1248.81 366.606 1247.06C378.336 1245.31 386.423 1234.38 384.67 1222.65L383.503 1214.84C383.327 1213.66 383.058 1212.51 382.705 1211.42L340.79 1217.68Z" fill="#434343"/>
</mask>
<g mask="url(#mask2)">
<ellipse cx="366.582" cy="1246.9" rx="12.9501" ry="7.05281" transform="rotate(-8.5 366.582 1246.9)" fill="#FF6C6C"/>
<rect x="341.053" y="1221.36" width="42.9485" height="8.85702" transform="rotate(-8.5 341.053 1221.36)" fill="white"/>
</g>
<path d="M299.266 1130.85L304.95 1093.58L282.844 1119.48C257.58 1138.42 260.107 1146.64 263.265 1119.48C266.423 1092.32 236.106 1161.37 232.316 1187.06C230.632 1175.27 223.553 1144.91 227.895 1119.48C232.316 1093.58 236.738 1087.27 256.949 1064.53C277.16 1041.79 318.905 1024.19 390.215 1034.84C445.164 1043.05 471.27 1103.27 474.218 1136.53L425.585 1099.27L372.531 1119.48C377.162 1116.53 387.184 1108.36 390.215 1099.27C393.247 1090.17 357.793 1108.95 339.688 1119.48C346.425 1113.58 339.688 1099.27 339.688 1099.27C339.688 1099.27 306.003 1119.48 299.266 1130.85Z" fill="#373838"/>
<circle cx="321.119" cy="1196.09" r="12.6319" fill="#373838"/>
<path d="M321.75 1189.14C316.908 1189.77 313.54 1190.41 307.224 1189.14" stroke="#373838" stroke-width="7.57915" stroke-linecap="round"/>
<circle r="12.6319" transform="matrix(-0.968148 0.25038 0.25038 0.968148 391.815 1184.44)" fill="#373838"/>
<path d="M389.463 1177.87C394.31 1177.27 397.729 1177.04 403.527 1174.23" stroke="#373838" stroke-width="7.57915" stroke-linecap="round"/>
<path d="M455.764 1445.12L389.077 1453.77L368.878 1454.48" stroke="#F6DDD6" stroke-width="49.2645" stroke-linecap="round"/>
<path d="M303.055 1466.85C303.055 1466.85 289.16 1466.85 274.002 1454.22C258.844 1441.59 253.791 1445.38 253.791 1445.38" stroke="#F6DDD6" stroke-width="49.2645" stroke-linecap="round"/>
<path fill-rule="evenodd" clip-rule="evenodd" d="M468.849 1111.65C326.636 1070.18 237.927 1137 226.316 1158.39L222.211 1141.02L223.158 1123.65C243.548 1086.09 308.023 1036.04 456.849 1079.44L464.112 1095.55L468.849 1111.65Z" fill="#FFAEC9"/>
<g clip-path="url(#clip0)">
<path d="M273.047 1099.51C273.047 1099.51 249.43 1106.51 245.787 1140.39C245.382 1144.34 249.645 1146.69 251.992 1143.92C254.76 1140.38 258.657 1137.9 263.033 1136.89C265.753 1144.29 269.595 1151.23 274.425 1157.46C274.849 1158.09 275.475 1158.56 276.199 1158.78C276.923 1159.01 277.702 1158.98 278.408 1158.7C279.114 1158.43 279.705 1157.92 280.084 1157.26C280.462 1156.61 280.606 1155.84 280.491 1155.09C280.116 1130.51 294.27 1107.06 294.27 1107.06L273.047 1099.51Z" fill="#DF5B87"/>
<path d="M310.587 1091.53C310.587 1091.53 335.009 1088.32 352.12 1117.79C354.095 1121.23 351.155 1125.11 347.887 1123.54C343.919 1121.43 339.349 1120.75 334.939 1121.6C335.464 1129.47 334.777 1137.37 332.901 1145.03C332.769 1145.78 332.387 1146.46 331.817 1146.96C331.247 1147.46 330.524 1147.75 329.767 1147.79C329.01 1147.82 328.263 1147.6 327.65 1147.15C327.037 1146.71 326.594 1146.06 326.394 1145.33C316.74 1122.73 294.269 1107.06 294.269 1107.06L310.587 1091.53Z" fill="#DF5B87"/>
<path d="M219.433 1093.39C219.447 1094.26 219.643 1095.12 220.009 1095.91C220.375 1096.7 220.902 1097.41 221.556 1097.98C238.003 1112.48 281.715 1097.67 281.715 1097.67L284.72 1083.44L219.099 1065.71L219.433 1093.39Z" fill="#DF5B87"/>
<path d="M223.956 1057.95C222.589 1058.75 221.441 1059.87 220.615 1061.22C219.788 1062.57 219.309 1064.1 219.221 1065.68L219.554 1093.37C219.589 1094.06 219.734 1094.74 219.983 1095.38C238.469 1075.5 281.898 1097.63 281.898 1097.63L284.903 1083.4C284.903 1083.4 248.301 1044.32 223.956 1057.95Z" fill="#FF88B0"/>
<path d="M357.079 1064.13C357.42 1064.94 357.59 1065.8 357.577 1066.67C357.565 1067.54 357.37 1068.4 357.006 1069.19C347.876 1089.12 301.92 1093.37 301.92 1093.37L293.388 1081.6L346.125 1038.71L357.079 1064.13Z" fill="#DF5B87"/>
<path d="M338.53 1033.59C340.103 1033.77 341.609 1034.33 342.913 1035.22C344.217 1036.12 345.279 1037.33 346.002 1038.74L356.957 1064.16C357.205 1064.8 357.35 1065.48 357.385 1066.17C332.411 1055.53 301.736 1093.41 301.736 1093.41L293.204 1081.63C293.204 1081.63 310.746 1031.05 338.53 1033.59Z" fill="#FF88B0"/>
<path d="M265.365 1091.73C265.969 1094.57 267.202 1097.25 268.993 1099.61C270.785 1101.98 273.099 1103.98 275.805 1105.5C278.511 1107.03 281.554 1108.05 284.763 1108.5C287.971 1108.96 291.281 1108.84 294.503 1108.15C297.726 1107.47 300.798 1106.23 303.544 1104.51C306.29 1102.79 308.656 1100.62 310.507 1098.13C312.359 1095.63 313.659 1092.86 314.334 1089.98C315.01 1087.09 315.046 1084.14 314.442 1081.3C313.222 1075.56 309.467 1070.61 304.003 1067.53C298.538 1064.45 291.812 1063.49 285.304 1064.88C278.796 1066.26 273.039 1069.87 269.3 1074.9C265.561 1079.94 264.146 1085.99 265.365 1091.73Z" fill="#FF88B0"/>
</g>
<defs>
<clipPath id="clip0">
<rect x="202" y="1033.14" width="149.771" height="149.771" transform="rotate(-12 202 1033.14)" fill="white"/>
</clipPath>
</defs>
</svg>
