<svg width="1200" height="1600" viewBox="0 0 1200 1600" fill="none" xmlns="http://www.w3.org/2000/svg">
<path d="M457.658 683.116C441.738 714.282 419.683 768.452 412.5 819.5C405.376 870.126 488 914.5 529 944.5" stroke="#EBBAAA" stroke-width="74" stroke-linecap="round" stroke-linejoin="bevel"/>
<path d="M732.5 694C754.647 733.26 769.116 779.063 777 831C787.626 901 654.5 960.5 612.5 988" stroke="#EBBAAA" stroke-width="74" stroke-linecap="round" stroke-linejoin="bevel"/>
<path d="M521 1023.5C519.167 1035 509.6 1060.3 486 1069.5" stroke="#0036A2" stroke-width="5" stroke-linecap="round"/>
<path d="M510 615.94C510 601.061 522.061 589 536.94 589H648.06C662.939 589 675 601.061 675 615.94C675 655.185 643.185 687 603.94 687H581.06C541.815 687 510 655.185 510 615.94Z" fill="#EBBAAA"/>
<path d="M539 504.911C539 483.973 555.973 467 576.911 467H608.089C629.027 467 646 483.973 646 504.911V600.5C646 630.047 622.047 654 592.5 654C562.953 654 539 630.047 539 600.5V504.911Z" fill="#EBBAAA"/>
<path d="M727.267 459.533C759.999 459.533 786.533 432.999 786.533 400.267C786.533 367.535 759.999 341 727.267 341C694.535 341 668 367.535 668 400.267C668 432.999 694.535 459.533 727.267 459.533Z" fill="#EBBAAA"/>
<path d="M456.266 462.533C423.534 462.533 397 435.999 397 403.267C397 370.535 423.534 344 456.266 344C488.998 344 515.533 370.535 515.533 403.267C515.533 435.999 488.998 462.533 456.266 462.533Z" fill="#EBBAAA"/>
<path d="M438 315.09C438 231.093 506.093 163 590.09 163C675.181 163 743.718 232.808 742.155 317.883L740.732 395.366C740.578 403.778 739.816 412.167 738.453 420.469L729.074 477.616C719.819 533.998 674.835 577.729 618.214 585.387L615.225 585.791C599.482 587.921 583.522 587.894 567.786 585.712L563.103 585.063C508.753 577.527 464.987 536.679 453.725 482.978L441.722 425.748C439.247 413.948 438 401.923 438 389.866V315.09Z" fill="#F4D4C9"/>
<path d="M639.39 346.486L696.596 349.983" stroke="#393939" stroke-width="24" stroke-linecap="round"/>
<path d="M548.817 347.703L491.583 350.7" stroke="#393939" stroke-width="24" stroke-linecap="round"/>
<path d="M590.114 407C579.891 425.038 576.784 448.229 596.298 448.229" stroke="#EBBAAA" stroke-width="17"/>
<path d="M452.5 1192V1123.5L602 1022.5L634.5 1071L532 1192H452.5Z" fill="#020202"/>
<path d="M422.5 991.5L464 963L594.5 954.5L536.5 1066.5L435.5 1203L405.5 1179L373 1170.5L405.5 1078L434.137 1041.18L422.5 991.5Z" fill="#10171B"/>
<path fill-rule="evenodd" clip-rule="evenodd" d="M445.976 975.878L422.5 992L431.891 1032.09L458 1007L445.976 975.878ZM482.396 1140.12L469.5 1129.5L441 1166.5L446.618 1188.47L482.396 1140.12ZM399.523 1177.94L419.5 1155L405.5 1129.5L384.067 1139.5L373 1171L399.523 1177.94ZM406.919 1076.68L441 1057L428.228 1049.28L406.919 1076.68Z" fill="#312E2A"/>
<path d="M432.5 1109.5L479.5 1047L513.5 1066.5L489.5 1176L432.5 1109.5Z" fill="#312E2A"/>
<path d="M660 1029C672.139 1087.7 670.116 1339.65 660 1410.5" stroke="#F6DDD6" stroke-width="60" stroke-linecap="round" stroke-linejoin="bevel"/>
<path d="M535.123 1024.19C522.984 1082.9 525.007 1335.65 535.123 1406.5" stroke="#F6DDD6" stroke-width="60" stroke-linecap="round" stroke-linejoin="bevel"/>
<path d="M684.566 1084.92L506.528 1064.68L468.088 967.513L708.844 977.634L684.566 1084.92Z" fill="#617EAC"/>
<path d="M587 991.292L732.557 981L707 1360L620.5 1356L617.33 1165.15L587 991.292Z" fill="#617EAC"/>
<path d="M456.5 972L587.455 993.829L571.269 1186.57L575.5 1359.5L490 1356L456.5 972Z" fill="#617EAC"/>
<path d="M485.262 1351H578.327L575.293 1394.52H492.849L485.262 1351Z" fill="#6A8AB9"/>
<path d="M615.756 1351H713.879L704.775 1394.52H617.779L615.756 1351Z" fill="#6A8AB9"/>
<path d="M781 642.5C775.4 635.7 771 631.667 769.5 631L729 632L705 797L837 766C823.5 721.5 786.6 649.3 781 642.5Z" fill="black"/>
<path d="M416.5 641.5C420.1 637.5 427 632.5 430 631.5L475 676.5V795L353.5 763C375.5 725.167 412.9 645.5 416.5 641.5Z" fill="black"/>
<path d="M429 631.5C434.6 625.5 483.333 604.667 507 595L578 611.5L675.5 595C703.833 602.5 758.5 622.5 768.5 629.5C775.28 634.246 753 638.5 751 660C748.51 686.764 724.5 778.5 724.5 801.5C724.5 880 737 992.5 732 1007C731.049 1009.76 665.172 1016.43 593.5 1017C544.972 1017.39 492.306 1005.89 455.5 1006.5C448.5 920 468.97 798.239 461.5 739.5C450.5 653 422 639 429 631.5Z" fill="#0C0F10"/>
<path d="M493 621.438C493 603.523 507.523 589 525.438 589H659.562C677.477 589 692 603.523 692 621.438C692 668.692 653.692 707 606.438 707H578.562C531.308 707 493 668.692 493 621.438Z" fill="#1E2529"/>
<path d="M517 613.741C517 600.077 528.077 589 541.741 589H643.259C656.923 589 668 600.077 668 613.741C668 649.782 638.782 679 602.741 679H582.259C546.218 679 517 649.782 517 613.741Z" fill="#EBBAAA"/>
<path d="M539 504.911C539 483.973 555.973 467 576.911 467H608.089C629.027 467 646 483.973 646 504.911V600.5C646 630.047 622.047 654 592.5 654C562.953 654 539 630.047 539 600.5V504.911Z" fill="#EBBAAA"/>
<path d="M727.267 459.533C759.999 459.533 786.533 432.999 786.533 400.267C786.533 367.535 759.999 341 727.267 341C694.535 341 668 367.535 668 400.267C668 432.999 694.535 459.533 727.267 459.533Z" fill="#EBBAAA"/>
<path d="M456.266 462.533C423.534 462.533 397 435.999 397 403.267C397 370.535 423.534 344 456.266 344C488.998 344 515.533 370.535 515.533 403.267C515.533 435.999 488.998 462.533 456.266 462.533Z" fill="#EBBAAA"/>
<path d="M438 315.09C438 231.093 506.093 163 590.09 163C675.181 163 743.718 232.808 742.155 317.883L740.732 395.366C740.578 403.778 739.816 412.167 738.453 420.469L729.074 477.616C719.819 533.998 674.835 577.729 618.214 585.387L615.225 585.791C599.482 587.921 583.522 587.894 567.786 585.712L563.103 585.063C508.753 577.527 464.987 536.679 453.725 482.978L441.722 425.748C439.247 413.948 438 401.923 438 389.866V315.09Z" fill="#F4D4C9"/>
<path d="M639.39 346.486L696.596 349.983" stroke="#393939" stroke-width="24" stroke-linecap="round"/>
<path d="M548.817 347.703L491.582 350.7" stroke="#393939" stroke-width="24" stroke-linecap="round"/>
<path d="M590.114 407C579.891 425.038 576.783 448.229 596.298 448.229" stroke="#EBBAAA" stroke-width="17"/>
<path d="M729 200.003C739.413 215.422 760.54 303.89 741.015 365C737.51 362.963 732.34 325.581 723.5 319C713.514 311.566 714.481 265.282 704.969 254C695.456 242.718 621.362 245.13 590.322 245.13C559.282 245.13 481.035 239.766 469.019 258.099C457.004 276.432 461.009 314.509 454 322.5C448.393 328.893 439.628 357.322 437.626 365C437.626 329.744 420.468 274.275 437.626 219.746C443.838 200.003 482.684 144.971 580.309 149.234C620.817 151.003 665.418 155.345 684.442 169.447C699.462 178.379 697.96 182.14 704.969 190.132C708.473 190.132 722.692 190.664 729 200.003Z" fill="#2C2929"/>
<path d="M445 310V230.017L537 189L545.5 264.881L496.111 281.5L507 264.881L473.622 281.5V264.881L445 310Z" fill="#2C2929"/>
<path d="M739 316L733.5 222.5L647 182L634 235L641 280.5L673 269.615L683.5 286.5L715.489 269.615L739 316Z" fill="#2C2929"/>
<path d="M520.241 286.453L517.151 255.263L512 182H683L625.313 295V278.463L603.681 286.453L599.56 268.695L579.988 286.453L574.837 278.463L544.964 286.453L549.084 278.463L520.241 286.453Z" fill="#2C2929"/>
<path d="M683 159C685.5 160.833 691.3 165.5 694.5 169.5C696.145 171.556 697.932 174.105 699.5 179.5C700.233 182.023 698.243 176.645 695.5 172.5C692.695 168.26 685 163 688 166.5C693 176.5 709 213.2 707 190C705 166.8 690.167 159.667 683 159Z" fill="#2C2929"/>
<path d="M712.5 181C706.9 181 699.833 188.667 697 192.5L712.5 199L726.5 197L715.5 192.5L730.5 194.5L720.5 188L730.5 191C729.667 190.333 727.7 188.8 726.5 188C725.3 187.2 718.667 185 715.5 184H722.5C721.5 183 718.1 181 712.5 181Z" fill="#2C2929"/>
<path d="M639 395L685 388" stroke="black" stroke-width="18" stroke-linecap="round"/>
<path d="M544 395L498 388" stroke="black" stroke-width="18" stroke-linecap="round"/>
<mask id="mask0" mask-type="alpha" maskUnits="userSpaceOnUse" x="547" y="443" width="89" height="65">
<path d="M547 475.5C547 457.551 561.551 443 579.5 443H603.5C621.449 443 636 457.551 636 475.5C636 493.449 621.449 508 603.5 508H579.5C561.551 508 547 493.449 547 475.5Z" fill="#434343"/>
</mask>
<g mask="url(#mask0)">
<rect x="550" y="486" width="203" height="42" fill="white"/>
</g>
<mask id="mask1" mask-type="alpha" maskUnits="userSpaceOnUse" x="492" y="728" width="210" height="194">
<path d="M533.566 746.326C533.566 737.2 526.936 728.464 514.612 728.464H492.616V784H506.266V764.188H514.612C526.936 764.188 533.566 755.452 533.566 746.326ZM519.916 746.326C519.916 749.212 517.732 751.942 513.988 751.942H506.266V740.71H513.988C517.732 740.71 519.916 743.44 519.916 746.326ZM582.702 764.5V728.464H569.052V764.188C569.052 769.336 566.088 772.3 561.564 772.3C557.04 772.3 554.232 769.336 554.232 764.188V728.464H540.582V764.5C540.582 776.668 550.02 784.468 561.564 784.468C573.108 784.468 582.702 776.668 582.702 764.5ZM644.803 784V728.464H631.387L618.907 752.956L606.427 728.464H593.011V784H606.661V757.402L614.539 771.13H623.275L631.153 757.402V784H644.803ZM701.323 784L681.121 728.464H670.591L650.389 784H664.663L667.393 775.732H684.475L687.049 784H701.323ZM680.887 764.344H671.215L676.207 749.524L680.887 764.344Z" fill="white"/>
<path d="M533.566 815.326C533.566 806.2 526.936 797.464 514.612 797.464H492.616V853H506.266V833.188H514.612C526.936 833.188 533.566 824.452 533.566 815.326ZM519.916 815.326C519.916 818.212 517.732 820.942 513.988 820.942H506.266V809.71H513.988C517.732 809.71 519.916 812.44 519.916 815.326ZM582.702 833.5V797.464H569.052V833.188C569.052 838.336 566.088 841.3 561.564 841.3C557.04 841.3 554.232 838.336 554.232 833.188V797.464H540.582V833.5C540.582 845.668 550.02 853.468 561.564 853.468C573.108 853.468 582.702 845.668 582.702 833.5ZM644.803 853V797.464H631.387L618.907 821.956L606.427 797.464H593.011V853H606.661V826.402L614.539 840.13H623.275L631.153 826.402V853H644.803ZM701.323 853L681.121 797.464H670.591L650.389 853H664.663L667.393 844.732H684.475L687.049 853H701.323ZM680.887 833.344H671.215L676.207 818.524L680.887 833.344Z" fill="white"/>
<path d="M533.566 883.326C533.566 874.2 526.936 865.464 514.612 865.464H492.616V921H506.266V901.188H514.612C526.936 901.188 533.566 892.452 533.566 883.326ZM519.916 883.326C519.916 886.212 517.732 888.942 513.988 888.942H506.266V877.71H513.988C517.732 877.71 519.916 880.44 519.916 883.326ZM582.702 901.5V865.464H569.052V901.188C569.052 906.336 566.088 909.3 561.564 909.3C557.04 909.3 554.232 906.336 554.232 901.188V865.464H540.582V901.5C540.582 913.668 550.02 921.468 561.564 921.468C573.108 921.468 582.702 913.668 582.702 901.5ZM644.803 921V865.464H631.387L618.907 889.956L606.427 865.464H593.011V921H606.661V894.402L614.539 908.13H623.275L631.153 894.402V921H644.803ZM701.323 921L681.121 865.464H670.591L650.389 921H664.663L667.393 912.732H684.475L687.049 921H701.323ZM680.887 901.344H671.215L676.207 886.524L680.887 901.344Z" fill="white"/>
</mask>
<g mask="url(#mask1)">
<path d="M474.5 937.5V715.5L710 710V937.5H474.5Z" fill="#0C0F10"/>
<path d="M488 742.5H504.5L479.5 766.5H504.5L496 783C482.167 785.833 457 791.7 467 792.5C477 793.3 516.833 792.833 535.5 792.5L543 760C545 761.667 548.4 766.1 546 770.5C543.6 774.9 550.667 780.667 554.5 783H575.5C576.3 783 575.833 767.667 575.5 760C569.833 755.833 560.4 746.5 568 742.5C577.5 737.5 585 725.5 588 734C590.4 740.8 589 754.167 588 760V782.25C588.163 779.221 590.379 775.987 598.5 783C607.3 773 608.833 758.167 608.5 752L616 792.5H627.5V816.5C627.5 819.5 633.5 825 641 816.5C647 809.7 652.5 797.667 654.5 792.5C656.667 789.667 664.1 785.7 676.5 792.5C692 801 698 816.5 695 816.5C692 816.5 658 827 676.5 827C691.3 827 707 812.333 713 805L695 770.5C686.833 767.5 671.7 759.6 676.5 752C682.5 742.5 677.5 725.5 689 734C700.5 742.5 702 762.5 707.5 766.5C713 770.5 721.5 761 725.5 783C729.5 805 738 825.5 725.5 833C715.5 839 704.667 851.5 700.5 857L689 841.5V857L695 877L676.5 888.5C680.833 891.333 690.6 897 695 897C699.4 897 696.833 908.667 695 914.5H676.5C673.5 923.333 666.2 939.9 661 935.5C661 912.7 667.667 900.333 671 897C669.833 894.167 666.2 888.5 661 888.5C654.5 888.5 638 885.5 654.5 877C672.1 848.6 661.833 841.5 654.5 841.5L661 827C654 830.167 640.2 837.5 641 841.5C641.8 845.5 634.333 850.167 630.5 852L616 857L608.5 841.5V833L598.5 841.5C597.167 848.333 593.2 861 588 857L579.5 821.5L568 827V841.5V857H546C551.667 859.333 561.3 865.3 554.5 870.5C547.7 875.7 539 881 535.5 883L533.5 865.5L524.5 827H510.5V841.5L524.5 877L510.5 883C512.5 877.167 515.3 865.5 510.5 865.5C492.5 865.5 482.333 873.167 479.5 877C479.667 880.833 481.6 888.5 488 888.5C494.4 888.5 505.667 894.167 510.5 897L479.5 914.5C475.333 916.333 467 913.7 467 888.5C467 857 462.5 851.5 471 836.5C477.8 824.5 485.167 818.167 488 816.5L424 770.5L488 742.5Z" fill="#93948B"/>
<path d="M598.5 742L608.5 721H584.5L580.5 750L553.5 721H510L486 760L528 787.5L510 806.5H480L502 836.5L480 848L464.5 940.5L528 957.5L608.5 933.5V903L580.5 929.5L567.5 910L553.5 933.5V897L528 915L486 933.5V886H510L528 848L565.5 863L571.5 897L598.5 876L584.5 848L571.5 836.5L584.5 823.5L598.5 787.5V811.5L618.5 806.5V772.5H640L632 806.5L653 811.5V848L647 830.5L640 856L653 886H625.5L618.5 922L633 915L653 897H672L666 876L658 840.5L705 886L700 836.5L672 823.5L715.5 811.5L690 733L666 742L640 710L653 733L618.5 760V733L598.5 742Z" fill="#D3D3D3"/>
<path d="M722.156 886.604L705.676 887.403L729.483 862.22L704.513 863.432L712.203 846.539C725.883 843.039 750.736 835.96 740.709 835.645C730.682 835.331 690.918 837.727 672.289 838.964L666.373 871.79C664.294 870.222 660.684 865.958 662.868 861.447C665.052 856.936 657.714 851.519 653.772 849.374L632.797 850.391C631.998 850.43 633.207 865.723 633.911 873.364C639.773 877.252 649.648 886.117 642.25 890.48C633.004 895.935 626.094 908.284 622.686 899.94C619.959 893.264 620.71 879.845 621.426 873.97L620.348 851.746C620.332 854.78 618.275 858.118 609.824 851.506C601.518 861.921 600.706 876.811 601.338 882.954L591.884 842.865L580.397 843.422L579.234 819.451C579.089 816.454 572.83 811.251 565.75 820.105C560.087 827.188 555.176 839.473 553.429 844.731C551.402 847.666 544.17 851.988 531.455 845.797C515.561 838.058 508.817 822.867 511.814 822.722C514.81 822.576 548.261 810.441 529.783 811.337C515.001 812.055 500.03 827.465 494.392 835.08L514.043 868.667C522.345 871.268 537.843 878.426 533.417 886.249C527.885 896.029 533.703 912.767 521.804 904.834C509.906 896.901 507.439 876.997 501.751 873.268C496.064 869.54 488.034 879.44 482.973 857.66C477.911 835.88 468.428 815.816 480.55 807.719C490.247 801.241 500.462 788.231 504.358 782.536L516.595 797.46L515.844 781.978L508.882 762.293L526.803 749.91C522.337 747.29 512.308 742.103 507.913 742.316C503.518 742.529 505.516 730.752 507.065 724.837L525.543 723.94C528.112 714.972 534.6 698.071 540.007 702.214C541.112 724.987 535.053 737.662 531.885 741.153C533.187 743.927 537.091 749.411 542.285 749.159C548.777 748.844 565.403 751.041 549.334 760.33C533.131 789.55 543.73 796.144 551.055 795.788L545.265 810.586C552.103 807.084 565.532 799.091 564.539 795.134C563.546 791.178 570.778 786.155 574.518 784.138L588.758 778.441L597.001 793.559L597.412 802.049L606.989 793.075C607.989 786.185 611.338 773.341 616.725 777.084L626.936 812.131L638.156 806.08L637.453 791.597L636.702 776.115L658.676 775.049C652.903 772.993 642.992 767.5 649.532 761.977C656.072 756.453 664.505 750.738 667.904 748.571L670.75 765.953L681.605 803.972L695.588 803.294L694.885 788.811L679.182 754.031L692.875 747.359C691.16 753.283 688.928 765.071 693.723 764.839C711.701 763.967 721.485 755.816 724.129 751.85C723.777 748.029 721.474 740.465 715.082 740.775C708.689 741.086 697.161 735.972 692.196 733.376L722.312 714.394C726.385 712.361 734.836 714.587 736.057 739.758C737.583 771.221 742.345 776.496 734.581 791.891C728.371 804.206 721.32 810.889 718.57 812.691L784.724 855.536L722.156 886.604Z" fill="#1F6F1D"/>
</g>
<path d="M391.764 1484.55C391.563 1461.6 394.69 1447.64 414.639 1438.26C434.589 1428.88 453.38 1410.85 487.894 1395.39C487.894 1395.39 492.437 1394.54 499.832 1398.54C506.143 1401.95 514.248 1410.32 526.462 1410.22C539.725 1410.1 551.543 1407.29 558.886 1403.44C562.059 1394.75 569.096 1394.69 569.096 1394.69C569.096 1394.69 579.006 1413.55 579.171 1432.49C579.336 1451.44 579.319 1482.91 579.319 1482.91L391.764 1484.55Z" fill="#CE604D"/>
<path d="M481.794 1399.26C483.96 1404.13 483.96 1410.08 483.96 1413.87L465.553 1405.75L469.884 1421.45L453.102 1416.04V1431.74L440.109 1424.7V1438.23" stroke="#B14432" stroke-width="5.41368" stroke-linecap="round" stroke-linejoin="round"/>
<path d="M399.311 1440.02C405.432 1437.8 411.914 1436.12 424.341 1433.3L419.06 1448.51L419.211 1465.83L383.839 1466.14C382.395 1466.15 379.816 1464.23 381.047 1456.42C382.586 1446.66 390.614 1443.17 399.311 1440.02Z" fill="#EF8F83"/>
<path d="M579.912 1479.95L578.885 1461.73L420.279 1464.2L380.733 1461.3L379.525 1475.27C379.108 1480.1 382.726 1484.32 387.557 1484.66L420.478 1486.93L575.655 1484.53C578.116 1484.49 580.05 1482.41 579.912 1479.95Z" fill="#E9EAEB"/>
<path d="M801.412 1486.55C801.612 1463.6 798.486 1449.64 778.536 1440.26C758.586 1430.88 739.795 1412.85 705.281 1397.39C705.281 1397.39 700.738 1396.54 693.343 1400.54C687.033 1403.95 678.927 1412.32 666.713 1412.22C653.451 1412.1 641.632 1409.29 634.289 1405.44C631.117 1396.75 624.079 1396.69 624.079 1396.69C624.079 1396.69 614.17 1415.55 614.004 1434.49C613.839 1453.44 613.856 1484.91 613.856 1484.91L801.412 1486.55Z" fill="#CE604D"/>
<path d="M711.381 1401.26C709.215 1406.13 709.215 1412.08 709.215 1415.87L727.622 1407.75L723.291 1423.45L740.073 1418.04V1433.74L753.066 1426.7V1440.23" stroke="#B14432" stroke-width="5.41368" stroke-linecap="round" stroke-linejoin="round"/>
<path d="M793.864 1442.02C787.744 1439.8 781.262 1438.12 768.834 1435.3L774.115 1450.51L773.964 1467.83L809.337 1468.14C810.78 1468.15 813.36 1466.23 812.128 1458.42C810.589 1448.66 802.561 1445.17 793.864 1442.02Z" fill="#EF8F83"/>
<path d="M613.263 1481.95L614.291 1463.73L772.896 1466.2L812.443 1463.3L813.651 1477.27C814.068 1482.1 810.449 1486.32 805.618 1486.66L772.697 1488.93L617.52 1486.53C615.059 1486.49 613.125 1484.41 613.263 1481.95Z" fill="#E9EAEB"/>
</svg>
