<svg width="1200" height="1600" viewBox="0 0 1200 1600" fill="none" xmlns="http://www.w3.org/2000/svg">
<path d="M461.834 644.017C471.834 603.017 520.834 591.017 542.834 591.017L597.548 618.017C600.548 626.35 602.348 644.417 585.548 650.017C564.548 657.017 555.511 715.017 526.511 703.017C497.511 691.017 457.089 663.472 461.834 644.017Z" fill="#757C82"/>
<path d="M731.834 639.017C723.298 604.017 685.834 600.684 672.834 591.017L601.798 628.017C598.798 636.35 596.998 654.417 613.798 660.017C634.798 667.017 643.834 725.017 672.834 713.017C701.834 701.017 736.58 658.472 731.834 639.017Z" fill="#757C82"/>
<path d="M670.834 1110.02C682.834 1168.02 678.834 1317.02 678.834 1392.02" stroke="#EA872C" stroke-width="74" stroke-linecap="round" stroke-linejoin="bevel"/>
<path d="M518.247 1109.02C509.834 1211.52 529.834 1332.02 542.834 1398.52" stroke="#EA872C" stroke-width="74" stroke-linecap="round" stroke-linejoin="bevel"/>
<path d="M458.834 1044.02H620.834L606.834 1234.4L574.834 1363.02H502.834L459.834 1286.71L452.834 1198.9L458.834 1044.02Z" fill="#484D5D"/>
<path d="M476.834 1059.02L467.834 1190.02C469.168 1226.02 463.834 1267.02 472.834 1288.02C480.044 1304.84 501.501 1337.02 515.834 1359.02" stroke="#383B46" stroke-width="5" stroke-dasharray="8 8"/>
<path d="M606.834 1054.02H762.841L768.834 1191.66L755.848 1302.68L710.894 1363.31L641.04 1371.02L618.989 1247.64L606.834 1054.02Z" fill="#484D5D"/>
<path d="M592.835 1146.02C586.435 1141.22 586.168 1103.35 586.835 1085.02V1069.02L616.335 1065.52L612.835 1160.02C608.835 1157.35 599.235 1150.82 592.835 1146.02Z" fill="#3A4051"/>
<path d="M639.834 1043.02H733.834L737.645 1110.07C738.339 1122.3 730.415 1133.35 718.618 1136.61L691.834 1144.02L671.202 1146.21C656.897 1147.73 644.263 1136.9 643.585 1122.53L639.834 1043.02Z" fill="#3A4051"/>
<mask id="mask0" mask-type="alpha" maskUnits="userSpaceOnUse" x="453" y="1046" width="169" height="320">
<path d="M459.834 1046.02H621.834L607.834 1236.4L575.834 1365.02H503.834L460.834 1288.71L453.834 1200.9L459.834 1046.02Z" fill="#484D5D"/>
</mask>
<g mask="url(#mask0)">
<path d="M417.834 1135.52H461.834L505.834 1140.02L510.473 1211.92C511.266 1224.21 503.328 1235.37 491.459 1238.65L464.834 1246.02L445.479 1248.08C430.709 1249.65 417.834 1238.07 417.834 1223.22V1135.52Z" fill="#3A4051"/>
</g>
<path d="M748.834 1044.02L755.834 1175.02C754.501 1211.02 748.396 1281 742 1297C738.402 1306 716 1339 699.834 1357.02" stroke="#383B46" stroke-width="5" stroke-dasharray="8 8"/>
<path d="M577.834 1353.02H496.834L499.834 1376.02C531.467 1376.02 546.202 1376.02 577.834 1376.02V1353.02Z" fill="#3A4051"/>
<path d="M718.834 1353.02H639.834V1376.02C679.138 1376.02 677.531 1376.02 716.834 1376.02L718.834 1353.02Z" fill="#3A4051"/>
<path d="M499.834 683.017C477.834 717.017 445.834 761.017 425.834 797.017C354.834 894.017 390.834 992.017 524.834 964.017" stroke="#EBBAAA" stroke-width="87" stroke-linecap="round" stroke-linejoin="bevel"/>
<path d="M474.834 1049.86C474.834 1060.16 482.656 1068.77 492.908 1069.77L598.834 1080.02L703.157 1078.33C714.076 1078.16 722.834 1069.26 722.834 1058.34V672.017C722.834 660.972 713.88 652.017 702.834 652.017H494.834C483.789 652.017 474.834 660.972 474.834 672.017L474.834 1049.86Z" fill="#2A2C31"/>
<ellipse cx="592.859" cy="663.896" rx="70.0249" ry="70.8789" fill="#1C1C1C"/>
<rect x="555.643" y="577.033" width="76.8567" height="115.285" rx="38.4283" fill="#EBBAAA"/>
<path d="M424.899 706.617C428.245 662.835 464.746 629.017 508.655 629.017H536.183C545.12 629.017 553.248 634.195 557.027 642.294L580.834 693.334L569.834 889.254L551.901 1100.44C551.356 1106.87 544.965 1111.1 538.837 1109.11L419.734 1070.27C415.619 1068.93 412.834 1065.09 412.834 1060.76V864.517L424.899 706.617Z" fill="#ABB0B4"/>
<circle cx="558.5" cy="817.5" r="9.5" fill="#4D4F56"/>
<circle cx="552.5" cy="885.5" r="9.5" fill="#4D4F56"/>
<circle cx="542.5" cy="1010.5" r="9.5" fill="#4D4F56"/>
<circle cx="533.5" cy="1079.5" r="9.5" fill="#4D4F56"/>
<path d="M414.834 944.017C435.501 953.35 504.834 978.017 576.834 960.017" stroke="#EBBAAA" stroke-width="86" stroke-linecap="round" stroke-linejoin="bevel"/>
<path d="M332.834 828.017C348.834 781.617 411.501 704.684 440.834 672.017L412.834 862.017C422.168 868.684 446.034 882.817 466.834 886.017C492.835 890.017 510.834 896.017 532.834 918.017C510.834 922.017 508.834 968.017 520.834 1008.02C520.834 1019.02 505.834 1029.02 490.834 1029.02L401.834 1044.02L332.834 968.017C326.168 940.684 316.834 874.417 332.834 828.017Z" fill="#939AA0"/>
<path d="M364.834 855.017L414.834 863.017L364.834 876.017V855.017Z" fill="#7B838A"/>
<path d="M376.834 892.017L412.834 863.017L395.834 903.017L376.834 892.017Z" fill="#7B838A"/>
<path d="M559.834 917.017H530.834C507.834 917.017 500.834 946.017 500.834 960.017C500.835 994.017 502.168 995.684 507.834 1014.02C522.501 1014.35 537.834 1016.02 547.834 1008.02C540.834 957.017 548.834 934.017 559.834 917.017Z" fill="#7B838A"/>
<ellipse cx="430.672" cy="432.826" rx="58.0695" ry="55.0806" fill="#EBBAAA"/>
<ellipse cx="757.739" cy="437.096" rx="58.0695" ry="55.0806" fill="#EBBAAA"/>
<path d="M423.808 340.572C420.002 244.212 497.091 164.017 593.527 164.017C690.194 164.017 767.372 244.582 763.221 341.161L757.614 471.613C753.832 559.617 681.385 629.017 593.3 629.017C504.993 629.017 432.447 559.28 428.961 471.042L423.808 340.572Z" fill="#EED4CC"/>
<mask id="mask1" mask-type="alpha" maskUnits="userSpaceOnUse" x="543" y="466" width="89" height="65">
<path d="M543 498.5C543 480.551 557.551 466 575.5 466H599.5C617.449 466 632 480.551 632 498.5C632 516.449 617.449 531 599.5 531H575.5C557.551 531 543 516.449 543 498.5Z" fill="#434343"/>
</mask>
<g mask="url(#mask1)">
<rect x="546" y="509" width="203" height="42" fill="white"/>
</g>
<path d="M551.751 346.102L490.131 340.128C489.422 340.059 488.73 340.373 488.315 340.95L476.018 358.037C475.085 359.334 475.973 361.148 477.57 361.204L552.239 363.854C554.666 363.94 556.61 361.86 556.359 359.443L555.344 349.67C555.147 347.777 553.645 346.285 551.751 346.102Z" fill="#393939"/>
<path d="M626.917 346.102L688.537 340.128C689.246 340.059 689.937 340.373 690.353 340.95L702.65 358.037C703.583 359.334 702.695 361.148 701.098 361.204L626.429 363.854C624.002 363.94 622.058 361.86 622.309 359.443L623.324 349.67C623.521 347.777 625.023 346.285 626.917 346.102Z" fill="#393939"/>
<path d="M509.972 417.139L538.201 418.619" stroke="black" stroke-width="24" stroke-linecap="round"/>
<path d="M676.201 416.139L647.972 417.619" stroke="black" stroke-width="24" stroke-linecap="round"/>
<rect x="413.834" y="295.017" width="23" height="138" rx="11.5" fill="#393939"/>
<rect x="747.834" y="314.017" width="23" height="122" rx="11.5" fill="#2C2929"/>
<path d="M587.293 435.018C585.301 449.535 543.335 484.017 598.334 484.017" stroke="#EBBAAA" stroke-width="17"/>
<path d="M573.834 416.017C573.834 416.017 577.334 412.017 589.334 412.017C601.334 412.017 605.834 416.017 605.834 416.017" stroke="#D5A600" stroke-width="8" stroke-linecap="round"/>
<path d="M607.834 417.717C607.834 420.268 607.703 422.753 607.584 425.006C607.528 426.061 607.475 427.066 607.439 428.001C607.323 431.065 607.365 433.76 607.884 436.482C608.891 441.76 611.836 447.862 620.663 456.689C629.863 465.889 634.889 469.377 639.799 470.88C642.274 471.637 644.909 471.945 648.343 472.042C650.514 472.103 652.832 472.08 655.546 472.053C657.263 472.036 659.137 472.017 661.232 472.017C662.111 472.017 662.964 472.018 663.793 472.019C673.426 472.028 679.882 472.035 685.583 470.662C691.454 469.249 696.692 466.3 703.506 459.486C713.244 449.747 716.522 443.5 717.67 438.046C718.259 435.246 718.333 432.449 718.227 429.149C718.193 428.105 718.139 426.972 718.082 425.769C717.965 423.327 717.834 420.593 717.834 417.717C717.834 403.087 715.33 394.685 708.148 389.433C700.485 383.829 686.578 381.017 661.232 381.017C636.927 381.017 623.812 385.963 616.73 392.536C609.759 399.007 607.834 407.808 607.834 417.717Z" stroke="#D5A600" stroke-width="8"/>
<path d="M569.267 417.717C569.267 420.268 569.399 422.753 569.518 425.006C569.574 426.061 569.627 427.066 569.662 428.001C569.779 431.065 569.737 433.76 569.217 436.482C568.21 441.76 565.266 447.862 556.439 456.689C547.239 465.889 542.212 469.377 537.302 470.88C534.828 471.637 532.193 471.945 528.758 472.042C526.588 472.103 524.269 472.08 521.555 472.053C519.839 472.036 517.965 472.017 515.869 472.017C514.991 472.017 514.138 472.018 513.308 472.019C503.675 472.028 497.219 472.035 491.518 470.662C485.648 469.249 480.41 466.3 473.596 459.486C463.857 449.747 460.58 443.5 459.432 438.046C458.842 435.246 458.769 432.449 458.875 429.149C458.908 428.105 458.962 426.972 459.02 425.769C459.137 423.327 459.267 420.593 459.267 417.717C459.267 403.087 461.771 394.685 468.954 389.433C476.616 383.829 490.523 381.017 515.869 381.017C540.174 381.017 553.289 385.963 560.371 392.536C567.343 399.007 569.267 407.808 569.267 417.717Z" stroke="#D5A600" stroke-width="8"/>
<path d="M465.834 237.017C435.834 257.887 444.501 290.017 435.834 317.017C435.834 350.005 424.463 390.788 411.834 392.017C400.537 393.117 387.834 358.362 387.834 326.017C387.834 221.017 447 156.017 539 156.017C569.157 156.017 679.834 128.017 679.834 216.017C634.834 241.017 500.834 212.669 465.834 237.017Z" fill="#393939"/>
<path d="M539.834 227.017C624.731 227.017 708.714 247.517 725.714 267.517C734.39 310.557 728.852 385.017 777.834 385.017C799.834 385.017 795.984 285.932 793.834 267.517C778.789 138.641 633.457 109.768 546.834 136.017C493.834 152.078 454.938 227.017 539.834 227.017Z" fill="#2C2929"/>
<path d="M515.834 160.017C520.834 146.017 547.634 118.217 614.834 119.017" stroke="#2C2929" stroke-width="9" stroke-linecap="round"/>
<path d="M443.834 163.017C468.834 152.017 493.834 148.017 510.834 159.017" stroke="#393939" stroke-width="9" stroke-linecap="round"/>
<path d="M579.834 258.017C554.663 237.398 511.834 218.067 490.834 225.734C555.834 199.734 551.834 200.489 612.834 240.489C661.634 272.489 732.501 275.017 750.834 272.017C729.834 291.017 726.834 290.392 712.834 293.017C663.71 302.228 608.834 281.773 579.834 258.017Z" fill="#2C2929"/>
<path d="M616.834 236.889C591.663 216.27 544.834 211.373 523.834 219.04C588.834 193.039 600.834 179.04 661.834 219.039C710.634 251.039 721.501 263.04 739.834 260.04C758.167 257.04 772.834 255.517 739.834 277.017C700.834 298.517 645.834 260.645 616.834 236.889Z" fill="#393939"/>
<path d="M476 663C503 663 526 663.846 540 673C566 690 565.055 757 575 798C584 705.5 595.5 653 553.5 633L529.5 624.017L506 617C488 621 484 641 476 663Z" fill="#8A9096"/>
<path d="M522 701L548 660L570 692C573 738.667 576.7 824.8 573.5 792C570.3 759.2 538.333 717.333 522 701Z" fill="#8A9096"/>
<path d="M767.508 685.402C765.182 646.412 729.244 618.26 690.831 625.338C687.079 626.029 683.586 627.726 680.724 630.248L652.466 655.148L619.834 737.301L635.298 1095.88C635.569 1102.17 641.514 1106.64 647.633 1105.17L777.179 1073.92C781.67 1072.84 784.834 1068.82 784.834 1064.2V994.017L779.834 892.017L767.508 685.402Z" fill="#ABB0B4"/>
<path d="M783.834 1079.02C812.834 1039.02 816.834 977.017 826.834 960.017" stroke="#EBBAAA" stroke-width="82" stroke-linecap="round" stroke-linejoin="bevel"/>
<path d="M860.834 822.017C844.834 774.017 785.834 655.017 747.834 645.017L774.834 886.017V978.017L748.834 1052.02L828.834 1096.02C833.501 1083.35 846.434 1054.02 860.834 1038.02C878.834 1018.02 880.834 882.017 860.834 822.017Z" fill="#939AA0"/>
<path d="M761 1021L746.835 1048.02C738.499 1069.45 770.863 1082.52 783.911 1087.59C815.599 1099.91 817.636 1099.27 836.776 1100.64C842.403 1087.09 849.514 1073.4 845.682 1061.18C795.612 1049.22 783.911 1040 761 1021Z" fill="#7B838A"/>
<path d="M803.834 819.017L770.834 857.017L820.834 841.017L803.834 819.017Z" fill="#7B838A"/>
<path d="M805.834 858.017L768.834 863.017L799.834 878.017L805.834 858.017Z" fill="#7B838A"/>
<path d="M721.566 663C694.566 663 671.566 663.846 657.566 673C631.566 690 632.511 757 622.566 798C613.566 705.5 602.066 653 644.066 633L668.066 624.017L691.566 617C709.566 621 713.566 641 721.566 663Z" fill="#8A9096"/>
<path d="M675.566 701L649.566 660L627.566 692C624.566 738.667 620.866 824.8 624.066 792C627.266 759.2 659.233 717.333 675.566 701Z" fill="#8A9096"/>
<path d="M401.598 1477.04C401.398 1454.09 404.524 1440.13 424.474 1430.75C444.423 1421.37 463.214 1403.34 497.728 1387.88C497.728 1387.88 502.271 1387.03 509.666 1391.03C515.977 1394.44 524.083 1402.81 536.296 1402.7C549.559 1402.59 561.378 1399.78 568.72 1395.93C571.893 1387.24 578.93 1387.17 578.93 1387.17C578.93 1387.17 588.84 1406.04 589.005 1424.98C589.171 1443.93 589.154 1475.4 589.154 1475.4L401.598 1477.04Z" fill="#DCE1E6"/>
<path d="M491.629 1391.74C493.795 1396.62 493.795 1402.57 493.795 1406.36L475.388 1398.24L479.719 1413.94L462.937 1408.53V1424.23L449.944 1417.19V1430.72" stroke="white" stroke-width="5.41368" stroke-linecap="round" stroke-linejoin="round"/>
<path d="M583.12 1397.16C579.268 1402.39 565.375 1405.52 560.149 1406.29C554.922 1407.05 549.322 1406.38 551.563 1415.02C553.147 1421.13 568.378 1418.67 574.332 1418.61C579.174 1418.57 585.964 1433.2 588.493 1428.24C588.493 1411.23 585.286 1402.03 583.12 1397.16Z" fill="#518C2D"/>
<path d="M409.145 1432.51C415.266 1430.29 421.748 1428.61 434.175 1425.79L428.894 1441L429.045 1458.32L393.673 1458.63C392.229 1458.64 389.65 1456.72 390.881 1448.91C392.42 1439.15 400.448 1435.66 409.145 1432.51Z" fill="#EAF4FB"/>
<path d="M459.992 1433.42L476.471 1464.83" stroke="#518C2D" stroke-width="17.3238"/>
<path d="M482.693 1421.52L502.44 1459.26" stroke="#518C2D" stroke-width="17.3238"/>
<path d="M504.928 1408.39L532.231 1461.58" stroke="#518C2D" stroke-width="17.3238"/>
<path d="M589.746 1472.44L588.719 1454.22L430.114 1456.69L390.567 1453.78L389.359 1467.76C388.942 1472.58 392.561 1476.81 397.391 1477.15L430.312 1479.42L585.489 1477.02C587.95 1476.98 589.885 1474.9 589.746 1472.44Z" fill="#C7CBCF"/>
<path d="M817.246 1479.04C817.447 1456.09 814.32 1442.13 794.371 1432.75C774.421 1423.37 755.63 1405.34 721.116 1389.88C721.116 1389.88 716.573 1389.03 709.178 1393.03C702.867 1396.44 694.762 1404.81 682.548 1404.7C669.285 1404.59 657.467 1401.78 650.124 1397.93C646.951 1389.24 639.914 1389.17 639.914 1389.17C639.914 1389.17 630.004 1408.04 629.839 1426.98C629.674 1445.93 629.691 1477.4 629.691 1477.4L817.246 1479.04Z" fill="#DCE1E6"/>
<path d="M727.215 1393.74C725.05 1398.62 725.05 1404.57 725.05 1408.36L743.456 1400.24L739.125 1415.94L755.908 1410.53V1426.23L768.9 1419.19V1432.72" stroke="white" stroke-width="5.41368" stroke-linecap="round" stroke-linejoin="round"/>
<path d="M635.724 1399.16C639.576 1404.39 653.469 1407.52 658.695 1408.29C663.922 1409.05 669.523 1408.38 667.281 1417.02C665.697 1423.13 650.467 1420.67 644.512 1420.61C639.67 1420.57 632.88 1435.2 630.352 1430.24C630.352 1413.23 633.559 1404.03 635.724 1399.16Z" fill="#518C2D"/>
<path d="M809.699 1434.51C803.578 1432.29 797.096 1430.61 784.669 1427.79L789.95 1443L789.799 1460.32L825.171 1460.63C826.615 1460.64 829.194 1458.72 827.963 1450.91C826.424 1441.15 818.396 1437.66 809.699 1434.51Z" fill="#EAF4FB"/>
<path d="M758.852 1435.42L742.373 1466.83" stroke="#518C2D" stroke-width="17.3238"/>
<path d="M736.151 1423.52L716.404 1461.26" stroke="#518C2D" stroke-width="17.3238"/>
<path d="M713.916 1410.39L686.613 1463.58" stroke="#518C2D" stroke-width="17.3238"/>
<path d="M629.098 1474.44L630.125 1456.22L788.73 1458.69L828.277 1455.78L829.485 1469.76C829.902 1474.58 826.283 1478.81 821.453 1479.15L788.532 1481.42L633.355 1479.02C630.894 1478.98 628.959 1476.9 629.098 1474.44Z" fill="#C7CBCF"/>
<path d="M475.78 583.2C472.18 594 465.34 608.76 459.58 618.3L476.5 624.96C482.44 616.32 490 603 496.66 590.58L475.78 583.2ZM421.24 616.68C418.72 607.5 411.7 593.82 405.76 583.56L387.4 590.04C393.16 601.02 399.46 615.42 401.98 624.24L421.24 616.68ZM429.7 714.42H450.58V667.26C463.54 680.58 477.22 694.98 484.6 704.52L500.08 690.12C491.08 679.68 474.16 663.3 459.58 649.44H495.4V629.82H450.58V577.44H429.7V629.82H383.98V649.44H419.44C409 665.46 394.06 681.3 380.02 690.48C384.88 694.44 391.72 702.18 395.14 707.04C407.2 697.5 419.62 682.92 429.7 666.9V714.42ZM382 608.4C376.42 599.94 364.72 586.98 355.72 577.98L339.88 589.14C348.7 599.04 360.04 612.54 365.08 621L382 608.4ZM376.42 635.94H335.38V655.56H355.9V704.34C347.8 707.94 338.8 714.96 329.98 724.68L345.82 746.28C352.12 735.12 359.86 722.88 365.08 722.88C369.04 722.88 375.52 728.82 383.8 733.32C397.12 740.88 412.24 743.04 436 743.04C455.08 743.04 484.96 741.78 498.1 741.06C498.28 734.58 502.06 723.42 504.58 717.12C486.04 720 456.34 721.8 437.08 721.8C416.2 721.8 399.46 720.72 387.04 713.34C382.72 710.82 379.3 708.48 376.42 706.5V635.94Z" fill="white"/>
<path d="M475.78 583.2L479.779 571.886L468.259 567.814L464.396 579.405L475.78 583.2ZM459.58 618.3L449.307 612.098L441.963 624.262L455.185 629.466L459.58 618.3ZM476.5 624.96L472.105 636.126L480.983 639.621L486.389 631.758L476.5 624.96ZM496.66 590.58L507.235 596.251L513.844 583.926L500.659 579.266L496.66 590.58ZM421.24 616.68L425.625 627.85L435.668 623.908L432.812 613.503L421.24 616.68ZM405.76 583.56L416.145 577.548L411.156 568.93L401.766 572.244L405.76 583.56ZM387.4 590.04L383.406 578.724L370.333 583.338L376.773 595.615L387.4 590.04ZM401.98 624.24L390.442 627.537L394.07 640.236L406.365 635.41L401.98 624.24ZM429.7 714.42H417.7V726.42H429.7V714.42ZM450.58 714.42V726.42H462.58V714.42H450.58ZM450.58 667.26L459.181 658.892L438.58 637.719V667.26H450.58ZM484.6 704.52L475.109 711.862L483.15 722.258L492.773 713.306L484.6 704.52ZM500.08 690.12L508.253 698.906L516.713 691.036L509.169 682.285L500.08 690.12ZM459.58 649.44V637.44H429.54L451.312 658.137L459.58 649.44ZM495.4 649.44V661.44H507.4V649.44H495.4ZM495.4 629.82H507.4V617.82H495.4V629.82ZM450.58 629.82H438.58V641.82H450.58V629.82ZM450.58 577.44H462.58V565.44H450.58V577.44ZM429.7 577.44V565.44H417.7V577.44H429.7ZM429.7 629.82V641.82H441.7V629.82H429.7ZM383.98 629.82V617.82H371.98V629.82H383.98ZM383.98 649.44H371.98V661.44H383.98V649.44ZM419.44 649.44L429.494 655.992L441.583 637.44H419.44V649.44ZM380.02 690.48L373.453 680.436L359.718 689.417L372.44 699.783L380.02 690.48ZM395.14 707.04L385.326 713.946L392.631 724.326L402.585 716.451L395.14 707.04ZM429.7 666.9H441.7V625.296L419.543 660.509L429.7 666.9ZM382 608.4L389.167 618.025L398.258 611.255L392.017 601.793L382 608.4ZM355.72 577.98L364.205 569.495L357.064 562.354L348.809 568.17L355.72 577.98ZM339.88 589.14L332.969 579.33L321.971 587.078L330.92 597.122L339.88 589.14ZM365.08 621L354.771 627.142L361.579 638.569L372.247 630.625L365.08 621ZM376.42 635.94H388.42V623.94H376.42V635.94ZM335.38 635.94V623.94H323.38V635.94H335.38ZM335.38 655.56H323.38V667.56H335.38V655.56ZM355.9 655.56H367.9V643.56H355.9V655.56ZM355.9 704.34L360.774 715.306L367.9 712.138V704.34H355.9ZM329.98 724.68L321.093 716.616L314.508 723.874L320.303 731.776L329.98 724.68ZM345.82 746.28L336.143 753.376L347.134 768.363L356.27 752.179L345.82 746.28ZM383.8 733.32L389.723 722.884L389.627 722.829L389.53 722.777L383.8 733.32ZM498.1 741.06L498.757 753.042L509.789 752.438L510.095 741.393L498.1 741.06ZM504.58 717.12L515.722 721.577L523.54 702.031L502.738 705.262L504.58 717.12ZM387.04 713.34L393.17 703.024L393.128 702.999L393.086 702.975L387.04 713.34ZM376.42 706.5H364.42V712.812L369.622 716.389L376.42 706.5ZM464.396 579.405C461.078 589.358 454.612 603.311 449.307 612.098L469.853 624.502C476.068 614.209 483.282 598.642 487.164 586.995L464.396 579.405ZM455.185 629.466L472.105 636.126L480.895 613.794L463.975 607.134L455.185 629.466ZM486.389 631.758C492.731 622.532 500.555 608.71 507.235 596.251L486.085 584.909C479.445 597.29 472.149 610.108 466.611 618.162L486.389 631.758ZM500.659 579.266L479.779 571.886L471.781 594.514L492.661 601.894L500.659 579.266ZM432.812 613.503C429.843 602.687 422.098 587.83 416.145 577.548L395.375 589.572C401.302 599.81 407.597 612.313 409.668 619.857L432.812 613.503ZM401.766 572.244L383.406 578.724L391.394 601.356L409.754 594.876L401.766 572.244ZM376.773 595.615C382.363 606.269 388.244 619.846 390.442 627.537L413.518 620.943C410.676 610.994 403.957 595.771 398.027 584.465L376.773 595.615ZM406.365 635.41L425.625 627.85L416.855 605.51L397.595 613.07L406.365 635.41ZM429.7 726.42H450.58V702.42H429.7V726.42ZM462.58 714.42V667.26H438.58V714.42H462.58ZM441.979 675.628C455.056 689.068 468.224 702.964 475.109 711.862L494.091 697.178C486.216 686.996 472.024 672.092 459.181 658.892L441.979 675.628ZM492.773 713.306L508.253 698.906L491.907 681.334L476.427 695.734L492.773 713.306ZM509.169 682.285C499.702 671.303 482.309 654.489 467.848 640.743L451.312 658.137C466.011 672.111 482.458 688.057 490.991 697.955L509.169 682.285ZM459.58 661.44H495.4V637.44H459.58V661.44ZM507.4 649.44V629.82H483.4V649.44H507.4ZM495.4 617.82H450.58V641.82H495.4V617.82ZM462.58 629.82V577.44H438.58V629.82H462.58ZM450.58 565.44H429.7V589.44H450.58V565.44ZM417.7 577.44V629.82H441.7V577.44H417.7ZM429.7 617.82H383.98V641.82H429.7V617.82ZM371.98 629.82V649.44H395.98V629.82H371.98ZM383.98 661.44H419.44V637.44H383.98V661.44ZM409.386 642.888C399.649 657.831 385.818 672.352 373.453 680.436L386.587 700.524C402.302 690.248 418.351 673.089 429.494 655.992L409.386 642.888ZM372.44 699.783C376.268 702.902 382.388 709.77 385.326 713.946L404.954 700.134C401.052 694.59 393.492 685.978 387.6 681.177L372.44 699.783ZM402.585 716.451C415.977 705.857 429.255 690.14 439.857 673.291L419.543 660.509C409.985 675.7 398.423 689.143 387.695 697.629L402.585 716.451ZM417.7 666.9V714.42H441.7V666.9H417.7ZM392.017 601.793C385.736 592.269 373.313 578.603 364.205 569.495L347.235 586.465C356.127 595.357 367.104 607.611 371.983 615.007L392.017 601.793ZM348.809 568.17L332.969 579.33L346.791 598.95L362.631 587.79L348.809 568.17ZM330.92 597.122C339.836 607.131 350.406 619.816 354.771 627.142L375.389 614.858C369.674 605.264 357.564 590.949 348.84 581.158L330.92 597.122ZM372.247 630.625L389.167 618.025L374.833 598.775L357.913 611.375L372.247 630.625ZM376.42 623.94H335.38V647.94H376.42V623.94ZM323.38 635.94V655.56H347.38V635.94H323.38ZM335.38 667.56H355.9V643.56H335.38V667.56ZM343.9 655.56V704.34H367.9V655.56H343.9ZM351.026 693.374C340.878 697.884 330.573 706.17 321.093 716.616L338.867 732.744C347.027 723.75 354.722 717.996 360.774 715.306L351.026 693.374ZM320.303 731.776L336.143 753.376L355.497 739.184L339.657 717.584L320.303 731.776ZM356.27 752.179C359.377 746.676 362.56 741.417 365.42 737.641C366.87 735.728 367.916 734.628 368.518 734.117C369.481 733.3 368.162 734.88 365.08 734.88V710.88C359.389 710.88 355.144 713.99 352.991 715.816C350.477 717.95 348.215 720.607 346.29 723.149C342.4 728.283 338.563 734.724 335.37 740.381L356.27 752.179ZM365.08 734.88C363.342 734.88 362.52 734.31 363.277 734.676C363.855 734.957 364.769 735.492 366.28 736.474C368.926 738.194 373.378 741.313 378.07 743.863L389.53 722.777C385.942 720.827 383.014 718.726 379.36 716.351C377.721 715.286 375.755 714.054 373.746 713.08C371.915 712.193 368.798 710.88 365.08 710.88V734.88ZM377.877 743.756C394.012 752.914 411.761 755.04 436 755.04V731.04C412.719 731.04 400.228 728.846 389.723 722.884L377.877 743.756ZM436 755.04C455.407 755.04 485.541 753.766 498.757 753.042L497.443 729.078C484.379 729.794 454.754 731.04 436 731.04V755.04ZM510.095 741.393C510.14 739.78 510.747 736.608 511.981 732.389C513.137 728.432 514.579 724.434 515.722 721.577L493.438 712.663C492.061 716.106 490.353 720.838 488.945 725.656C487.613 730.212 486.24 735.86 486.105 740.727L510.095 741.393ZM502.738 705.262C484.962 708.023 455.903 709.8 437.08 709.8V733.8C456.777 733.8 487.118 731.977 506.422 728.978L502.738 705.262ZM437.08 709.8C415.789 709.8 402.353 708.48 393.17 703.024L380.91 723.656C396.567 732.96 416.611 733.8 437.08 733.8V709.8ZM393.086 702.975C389.179 700.695 386.071 698.573 383.218 696.611L369.622 716.389C372.529 718.387 376.261 720.945 380.994 723.705L393.086 702.975ZM388.42 706.5V635.94H364.42V706.5H388.42Z" fill="black"/>
<path d="M741.96 576.72C741.24 607.14 744.66 687.78 671.58 726.84C678.78 731.7 685.62 738.54 689.4 744.3C726.84 722.34 745.74 689.76 755.64 658.08C766.08 689.04 786.06 724.14 826.02 743.22C828.9 737.1 835.02 729.9 841.68 724.68C778.86 696.96 767.88 629.1 765.36 604.8C766.08 594 766.44 584.28 766.62 576.72H741.96Z" fill="white"/>
<path d="M741.96 576.72V564.72H730.241L729.963 576.436L741.96 576.72ZM671.58 726.84L665.923 716.257L648.36 725.644L664.866 736.786L671.58 726.84ZM689.4 744.3L679.367 750.884L685.628 760.424L695.471 754.651L689.4 744.3ZM755.64 658.08L767.011 654.246L755.206 619.238L744.186 654.501L755.64 658.08ZM826.02 743.22L820.849 754.049L831.739 759.249L836.878 748.33L826.02 743.22ZM841.68 724.68L849.083 734.125L864.833 721.78L846.524 713.701L841.68 724.68ZM765.36 604.8L753.387 604.002L753.319 605.021L753.424 606.038L765.36 604.8ZM766.62 576.72L778.617 577.006L778.909 564.72H766.62V576.72ZM729.963 576.436C729.202 608.605 731.85 681.02 665.923 716.257L677.237 737.423C757.47 694.54 753.278 605.675 753.957 577.004L729.963 576.436ZM664.866 736.786C670.942 740.887 676.58 746.636 679.367 750.884L699.433 737.716C694.66 730.444 686.618 722.513 678.294 716.894L664.866 736.786ZM695.471 754.651C736.174 730.777 756.575 695.32 767.094 661.659L744.186 654.501C734.905 684.2 717.506 713.903 683.329 733.949L695.471 754.651ZM744.269 661.914C755.255 694.492 776.818 733.025 820.849 754.049L831.191 732.391C795.302 715.255 776.905 683.588 767.011 654.246L744.269 661.914ZM836.878 748.33C838.768 744.314 843.494 738.505 849.083 734.125L834.277 715.235C826.546 721.295 819.032 729.886 815.162 738.11L836.878 748.33ZM846.524 713.701C790.362 688.919 779.801 627.721 777.296 603.562L753.424 606.038C755.959 630.479 767.358 705.001 836.836 735.659L846.524 713.701ZM777.333 605.598C778.067 594.592 778.433 584.697 778.617 577.006L754.623 576.434C754.447 583.863 754.093 593.408 753.387 604.002L777.333 605.598ZM766.62 564.72H741.96V588.72H766.62V564.72Z" fill="black"/>
</svg>
