<svg width="1200" height="1600" viewBox="0 0 1200 1600" fill="none" xmlns="http://www.w3.org/2000/svg">
<path d="M670.834 1117.53C682.834 1175.53 678 1324 678 1399" stroke="#EBBAAA" stroke-width="57" stroke-linecap="round" stroke-linejoin="bevel"/>
<path d="M550 1193.5C544 1294 535 1340.5 538 1410" stroke="#EBBAAA" stroke-width="57" stroke-linecap="round" stroke-linejoin="bevel"/>
<ellipse cx="602.5" cy="1037.5" rx="127.5" ry="54.5" fill="#1D1F1E"/>
<path d="M466.666 940H621L593.666 1202.58L575.666 1382.55H566.666V1399H508.666V1382.55H499.666L480.166 1194.79L471.666 1062.28L460 1048.77L466.666 940Z" fill="#1D1F1E"/>
<path d="M607 954H763L756.007 1041.08L749.16 1063.42L732.161 1196.92L716.661 1381.86H707.662V1399H649.164V1381.86H640.164L624.165 1212.51L607 954Z" fill="#1D1F1E"/>
<path d="M761.722 723.188C807.073 803.584 823.491 952.648 806.999 998" stroke="#EBBAAA" stroke-width="74" stroke-linecap="round" stroke-linejoin="bevel"/>
<path d="M444 656.5C444 643.983 488.048 654.264 515.5 640.5C539.585 628.423 546.175 591.83 563 586.5L578.5 582.016C585.045 581.81 630.016 583.68 636.5 584.576L664.5 594.5C699.091 599.283 674.983 637.754 671.5 672.5L734.5 797.88L727.5 990.5C727.572 992.314 643.5 895.5 617 899.5L545.5 943.5L463.5 1012.93C461.758 1012.84 460.855 1007.74 461 1006L471.007 797.88L444 656.5Z" fill="#001018"/>
<path d="M730.5 619C744.5 622.5 774.8 628.8 784 638C795.5 649.5 874 877.5 876 908.5C878 939.5 876.8 967.02 871.5 975.5C869 979.5 864.681 980.263 852.5 980C845.18 979.842 849 999 845 999C838.832 998.372 782 991.5 772.5 987C768.278 985 777.322 970.35 772.5 969L771.869 968.823C763.04 966.353 761.009 965.785 760 962C756.8 950 739.333 737 730.5 619Z" fill="#001018"/>
<path d="M486 620C471.991 623.5 441.673 632.8 432.467 642C420.96 653.5 341.739 812.664 345.5 843.5C350.5 884.5 360.026 892.442 379.5 897C403 902.5 440.499 893 454.5 887C462.749 883.465 470.824 879.235 476.884 876.356C476.483 895.623 476.117 912.577 475.733 926.004C468.41 945.235 462.509 961.557 464.5 961C473.869 958.378 472.966 961.874 474 958C474.687 955.424 475.225 943.816 475.733 926.004C486.164 898.615 499.482 865.325 497 866.5C494.432 867.715 492.899 868.703 491.908 869.509L486 873C484.355 873 481.109 874.35 476.884 876.356C478.43 802.131 480.489 693.572 486 620Z" fill="#001018"/>
<path d="M568.446 563.911C568.446 542.973 585.42 526 606.357 526H608.87C629.808 526 646.781 542.973 646.781 563.911V698H568.446V563.911Z" fill="#EBBAAA"/>
<circle cx="608.5" cy="709.5" r="7.5" fill="#EDF2FF"/>
<ellipse cx="602.5" cy="781" rx="7.5" ry="8" fill="#EDF2FF"/>
<circle cx="598.5" cy="852.5" r="7.5" fill="#EDF2FF"/>
<circle cx="598.5" cy="923.5" r="7.5" fill="#EDF2FF"/>
<ellipse cx="464.248" cy="412.866" rx="54.2949" ry="51.5003" fill="#EBBAAA"/>
<ellipse cx="753.248" cy="416.858" rx="54.2949" ry="51.5003" fill="#EBBAAA"/>
<path d="M451.471 371.368C441.765 280.136 512.005 200.049 603.723 197.77C695.973 195.477 770.305 272.84 764.33 364.924L762.703 390.001L754.416 457.151C745.3 531.018 682.549 586.501 608.121 586.501C533.763 586.501 471.048 531.12 461.848 457.334L453.453 390.001L451.471 371.368Z" fill="#EED4CC"/>
<path d="M639.983 334.776L693.583 330.081C694.172 330.03 694.754 330.242 695.172 330.66L712.288 347.789C713.589 349.091 712.589 351.311 710.751 351.199L685.162 349.635L639.59 351.347C637.159 351.439 635.21 349.357 635.461 346.937L636.353 338.348C636.551 336.442 638.073 334.944 639.983 334.776Z" fill="#393939"/>
<path d="M572.185 334.771L519.034 330.082C518.442 330.03 517.857 330.244 517.439 330.666L500.459 347.777C499.164 349.082 500.167 351.295 502.001 351.182L527.378 349.621L572.567 351.331C574.997 351.423 576.947 349.343 576.697 346.923L575.812 338.345C575.616 336.438 574.094 334.939 572.185 334.771Z" fill="#393939"/>
<path d="M602.689 414.915C600.826 428.489 561.587 460.73 613.012 460.73" stroke="#EBBAAA" stroke-width="17"/>
<path d="M511.33 244.394C490.76 250.965 495.747 267.123 494.5 282.5C492.567 306.342 454.11 276.595 454.11 390.171C449.616 390.608 448.228 367.109 439.813 368.044C434.67 369.914 430.313 373.545 426.313 377.045C423.026 365.796 422.467 340.416 420.36 303.543C413.36 181.043 509.813 105.543 595.762 117.177C624.619 121.083 663.83 149.614 663.83 231.894C621.755 255.269 549.304 232.263 511.33 244.394Z" fill="#393939"/>
<path d="M706 253C718.162 259.698 724.963 262.848 730.919 277.081C744.476 309.484 751.547 293.349 762.741 391.209C767.238 391.646 767.534 369.066 775.953 370.001C779.453 371.501 783.953 374.001 789.453 378.501C792.742 367.253 801 332 801 300C801 155.5 695 110.355 604.752 116.793C542.911 121.204 570.46 158.192 570.46 240.478C632.637 249.831 671.066 233.76 706 253Z" fill="#2C2929"/>
<path d="M679.703 236.943C694.527 210.389 679.703 139.94 669.048 122.825C658.393 105.711 625.038 108.822 645.421 149.274C653.297 164.904 667.01 180.703 666.268 206.841C665.527 232.98 646.966 261.123 640.789 267.001C644.804 265.791 664.879 263.496 679.703 236.943Z" fill="#393939" stroke="#393939"/>
<path d="M651.574 209.747C655.583 192.34 649.904 145.161 646.563 123.747C643.981 121.675 636.084 118.773 625.149 123.747C611.482 129.964 646.581 168.509 638.362 213.374C633.806 238.242 638.362 260.001 638.362 260.001C638.362 260.001 646.563 231.507 651.574 209.747Z" fill="#393939"/>
<path d="M612.865 104.013C630.092 104.842 639.549 113.516 640.953 120.082C640.953 123.884 637.77 141.646 634.399 163.625C630.186 191.099 612.865 215.98 605.375 234.642C599.382 249.571 591.453 264.001 591.453 277.001C572.953 258.001 563.943 248.409 556.453 211.501C547.09 165.366 591.33 102.976 612.865 104.013Z" fill="#393939"/>
<path d="M548.219 271.814C545.874 270.604 540.829 262.763 538.953 244.501C537.983 235.06 549.014 230.992 566.983 204.001C583.772 178.781 602.832 133.72 612.953 118.767C608.731 114.098 601.695 105.797 566.983 112.541C530.481 119.633 499.904 163.384 498.965 213.19C498.215 253.034 531.958 274.235 548.219 271.814Z" fill="#393939"/>
<path d="M680.832 504.168C679.924 506.151 678.302 509.694 674 512.352" stroke="#EBBAAA" stroke-width="8" stroke-linecap="round"/>
<path d="M655.953 392.001C659.122 388.848 665.911 384.433 675.869 382.542C686.13 380.592 696.237 384.434 698.953 385.852" stroke="black" stroke-width="18" stroke-linecap="round"/>
<path d="M562.953 393.001C559.49 389.532 552.069 384.677 541.185 382.596C529.969 380.451 518.922 384.677 515.953 386.238" stroke="black" stroke-width="18" stroke-linecap="round"/>
<path d="M401.597 1484.55C401.397 1461.6 404.524 1447.64 424.473 1438.26C444.423 1428.88 463.214 1410.85 497.728 1395.39C497.728 1395.39 502.271 1394.54 509.666 1398.54C515.976 1401.95 524.082 1410.32 536.296 1410.22C549.558 1410.1 561.377 1407.29 568.72 1403.44C571.892 1394.75 578.93 1394.69 578.93 1394.69C578.93 1394.69 588.839 1413.55 589.005 1432.49C589.17 1451.44 589.153 1482.91 589.153 1482.91L401.597 1484.55Z" fill="#E9EAEB"/>
<path d="M491.629 1399.26C493.794 1404.13 493.794 1410.08 493.794 1413.87L475.388 1405.75L479.719 1421.45L462.936 1416.04V1431.74L449.943 1424.7V1438.23" stroke="white" stroke-width="5.41368" stroke-linecap="round" stroke-linejoin="round"/>
<path d="M409.145 1440.02C415.265 1437.8 421.747 1436.12 434.175 1433.3L428.894 1448.51L429.045 1465.83L393.672 1466.14C392.229 1466.15 389.649 1464.23 390.881 1456.42C392.42 1446.66 400.448 1443.17 409.145 1440.02Z" fill="#DEDEDE"/>
<path d="M589.746 1479.95L588.719 1461.73L430.113 1464.2L390.567 1461.3L389.359 1475.27C388.942 1480.1 392.56 1484.32 397.391 1484.66L430.312 1486.93L585.489 1484.53C587.95 1484.49 589.884 1482.41 589.746 1479.95Z" fill="#E9EAEB"/>
<path d="M817.246 1486.55C817.447 1463.6 814.32 1449.64 794.371 1440.26C774.421 1430.88 755.63 1412.85 721.116 1397.39C721.116 1397.39 716.573 1396.54 709.178 1400.54C702.867 1403.95 694.762 1412.32 682.548 1412.22C669.285 1412.1 657.467 1409.29 650.124 1405.44C646.951 1396.75 639.914 1396.69 639.914 1396.69C639.914 1396.69 630.004 1415.55 629.839 1434.49C629.674 1453.44 629.691 1484.91 629.691 1484.91L817.246 1486.55Z" fill="#E9EAEB"/>
<path d="M727.215 1401.26C725.05 1406.13 725.05 1412.08 725.05 1415.87L743.456 1407.75L739.125 1423.45L755.908 1418.04V1433.74L768.9 1426.7V1440.23" stroke="white" stroke-width="5.41368" stroke-linecap="round" stroke-linejoin="round"/>
<path d="M809.699 1442.02C803.578 1439.8 797.096 1438.12 784.669 1435.3L789.95 1450.51L789.799 1467.83L825.171 1468.14C826.615 1468.15 829.194 1466.23 827.963 1458.42C826.424 1448.66 818.396 1445.17 809.699 1442.02Z" fill="#DEDEDE"/>
<path d="M629.098 1481.95L630.125 1463.73L788.73 1466.2L828.277 1463.3L829.485 1477.27C829.902 1482.1 826.283 1486.32 821.453 1486.66L788.532 1488.93L633.355 1486.53C630.894 1486.49 628.959 1484.41 629.098 1481.95Z" fill="#E9EAEB"/>
<path d="M599 975.5L594.132 963.923L572 1029.5H551L464 1016L538.5 629.5L588 650.5L592 668.5L602 676.5L601.922 683.632L610.5 662L626 643.5L684 612.5L729.5 1019L660 1029.5L644.5 1024.5L599 1029.5V975.5Z" fill="#91B3CC"/>
<path d="M618 696L610.5 661.5L599 691L580.5 934.5L599 975V1029.5L618 1027.5V973L600 929L618 696Z" fill="#B0CCE6"/>
<path d="M653 599.5C650.93 592.739 649.5 590.5 647 588L656 590C656 590 660.5 591 668 601.5C675.5 612 683 611 683 611C683 611 684.5 608.5 678.5 636C671.927 666.127 664.357 683 657.5 691C656.165 692.558 640.5 684 637.5 668C637.5 656.5 638 642.5 631.5 644.5C626.721 645.97 631.5 650 623 653.5C614.5 657 615 662.77 619 668C623 673.23 604.5 681.5 599 691C601 644.5 660.5 624 653 599.5Z" fill="#B0CCE6"/>
<path d="M562 600.5C560 593.5 562 589.25 568.052 585L555.776 589.25L548 592C548 592 521.5 646.5 549.5 672C552.827 675.03 568.5 641.5 585.5 651.5C590.732 654.578 582.415 670.866 589.5 672C594.635 672.822 599.772 675.438 602.809 677.314C603.19 677.706 603.587 678.101 604 678.5C606.675 680.202 605.683 679.09 602.809 677.314C589.817 663.963 595.097 654.9 591.5 651.5C586 646.301 591.151 641.83 585.5 640.5C577 638.5 566.467 616.136 562 600.5Z" fill="#B0CCE6"/>
<path d="M542 601C544 597.4 546 594 548.5 591.5C552.5 587.5 562 585 566.5 585.5C561 589 552.9 602.201 550.5 619.001C547.5 640.001 555.5 638.001 556.5 659.001C557.3 675.801 542.167 697.833 534.5 745.5V886.001L493.5 1037.5L452.5 1028L456.5 1012.5C454.333 1008.83 450.8 1002.4 448 994C444.5 983.5 452.5 880 452.5 852.5C452.5 825 434.5 645 439.5 637C444.5 629 522.5 610.501 526.5 609.501C530.5 608.501 539.5 605.5 542 601Z" fill="#071D2C"/>
<path d="M683 606C677 594 656.333 588.833 651 589C654.666 593.167 670.5 601 674.5 620C677.888 636.094 643.5 675.5 643 685C641.684 710 648.833 764.667 663 803C665 829 671.7 903 674.5 935C677.3 967 711.166 994.167 718.5 1009.5L718.5 1026L764 1009.5C767.833 884 791.7 645.9 782.5 635.5C771 622.5 686.535 613.071 683 606Z" fill="#071D2C"/>
<circle cx="607.5" cy="702.5" r="7.5" fill="#C1DBF3"/>
<circle cx="603.5" cy="755.5" r="7.5" fill="#C1DBF3"/>
<circle cx="599.5" cy="808.5" r="7.5" fill="#C1DBF3"/>
<circle cx="595.5" cy="861.5" r="7.5" fill="#C1DBF3"/>
<circle cx="591.5" cy="917.5" r="7.5" fill="#C1DBF3"/>
<path d="M422 836.5C466.5 821 504.5 804.5 579.5 736.5" stroke="#EBBAAA" stroke-width="74" stroke-linecap="round" stroke-linejoin="bevel"/>
<path d="M578 735L545 702" stroke="#EBBAAA" stroke-width="24" stroke-linecap="round"/>
<path d="M375.156 807.411C364.656 820.911 398.684 889.67 402.656 891.911C422.156 902.911 504.973 873.099 530.156 854.912C557.156 835.412 565.252 829.31 571.5 821.5C575.5 816.5 578.557 806.768 574.156 800.911C569.756 795.054 583.491 788.662 581.156 785.411L580.167 784.203C573.219 775.388 542.33 732.216 533.656 727.411C529.568 725.146 514.703 740.403 511.656 736.911C506.5 731 498 727.499 491.5 729.5C480.286 732.952 462.656 730.08 375.156 807.411Z" fill="#001018"/>
<mask id="mask0" mask-type="alpha" maskUnits="userSpaceOnUse" x="384" y="699" width="233" height="175">
<path d="M422 836.5C466.5 821 504.5 804.5 579.5 736.5" stroke="#EBBAAA" stroke-width="74" stroke-linecap="round" stroke-linejoin="bevel"/>
</mask>
<g mask="url(#mask0)">
<path d="M590 703L582.421 710.759M604.316 712.552L598 720M613 726.5L606.684 733.948" stroke="#E1AA98" stroke-width="10" stroke-linecap="round"/>
</g>
<path d="M654 486C654.333 488.667 656.1 495 660.5 499" stroke="#C99584" stroke-width="11" stroke-linecap="round"/>
<path d="M562 486C561.59 488.667 559.415 495 554 499" stroke="#C99584" stroke-width="11" stroke-linecap="round"/>
<path d="M558.5 492C566 496.833 587.048 504.5 611.5 504.5C636.5 504.5 651.333 495.5 656 492" stroke="#C99584" stroke-width="11"/>
</svg>
