<svg width="1200" height="1600" viewBox="0 0 1200 1600" fill="none" xmlns="http://www.w3.org/2000/svg">
<path d="M674.545 1205.77V1433.77" stroke="#EBBAAA" stroke-width="54" stroke-linecap="round" stroke-linejoin="bevel"/>
<path d="M526.545 1205.77V1451.27" stroke="#EBBAAA" stroke-width="54" stroke-linecap="round" stroke-linejoin="bevel"/>
<rect x="648" y="1377" width="57" height="59" fill="#071532"/>
<rect x="498" y="1377" width="57" height="59" fill="#071532"/>
<path d="M606.875 1069C670.388 1069 721.875 1042.81 721.875 1010.5C721.875 978.192 670.388 952 606.875 952C543.362 952 491.875 978.192 491.875 1010.5C491.875 1042.81 543.362 1069 606.875 1069Z" fill="#A5A5A3"/>
<path d="M602.875 980.768H467.875L478.5 1338.5L492.114 1372.51H558.614L574.614 1332.01L602.875 980.768Z" fill="#A5A5A3"/>
<path d="M601.59 986.79H737.047C737.047 986.79 766.899 1215.87 730.5 1328C725.915 1342.12 710.239 1375 710.239 1375L642.239 1378L634.239 1336L601.59 986.79Z" fill="#A5A5A3"/>
<path d="M488 1369H560V1409H492.165L488 1369Z" fill="#9A9A99"/>
<path d="M640 1371H714L710.39 1409H643.378L640 1371Z" fill="#9A9A99"/>
<path d="M450.501 980.001C455.301 976.001 454.999 960.832 452.999 953.499C548.833 946.832 745.059 939.381 748.001 953.5C750.501 965.501 752.501 967.002 752.501 980.001C752.501 989.487 662.501 999.001 605.501 1000C548.501 1001 478 993.14 462.499 994.001C446.996 994.862 444.501 985.001 450.501 980.001Z" fill="#181E30"/>
<ellipse cx="610.5" cy="581" rx="56.5" ry="54" fill="#202F2E"/>
<rect x="560.001" y="490" width="89" height="123" rx="37.911" fill="#EBBAAA"/>
<path d="M568.159 585.989C560.502 577.286 560.559 556.989 560.559 537.715C550.997 537.326 552.387 552.545 542.68 570.454C538.441 578.273 544.097 610.473 564.495 622.792C581.92 633.315 609.118 624.776 614.79 617.348C610.923 612.529 601.239 601.817 595.659 601.989C588.684 602.205 577.73 596.869 568.159 585.989Z" fill="#4D6B69"/>
<mask id="mask0" mask-type="alpha" maskUnits="userSpaceOnUse" x="541" y="537" width="74" height="91">
<path d="M568.16 585.989C560.503 577.286 560.56 556.989 560.56 537.715C550.997 537.326 552.388 552.545 542.68 570.454C538.442 578.273 544.097 610.473 564.496 622.792C581.92 633.315 609.119 624.776 614.791 617.348C610.924 612.529 601.24 601.817 595.66 601.989C588.684 602.205 577.731 596.869 568.16 585.989Z" fill="#4D6B69"/>
</mask>
<g mask="url(#mask0)">
<path d="M598.406 626.5C586.806 617.3 593.573 606.333 598.406 602C607.406 604.5 625.806 610.5 627.406 614.5C629.406 619.5 612.906 638 598.406 626.5Z" fill="#202F2E"/>
</g>
<path d="M653.182 576.626C664.782 565.826 655.334 548.5 649.001 542C673.501 536.499 668.682 569.626 679.682 571.126C687.671 572.216 671.682 576.626 668.682 599.626C665.682 622.626 602.182 653.126 606.182 625.626C610.182 598.126 638.682 590.126 653.182 576.626Z" fill="#4D6B69"/>
<path d="M653.181 576.734C664.781 565.934 654.833 548.107 648.5 541.607C673 536.107 668.681 569.734 679.682 571.234C687.67 572.324 671.681 576.734 668.681 599.734C665.681 622.734 602.181 653.234 606.181 625.734C610.181 598.234 638.681 590.234 653.181 576.734Z" fill="#4D6B69"/>
<path opacity="0.5" d="M745.521 434.318C767.327 437.852 788.801 417.293 793.484 388.399C798.166 359.505 784.284 333.217 762.477 329.683C740.67 326.149 719.196 346.708 714.514 375.602C709.832 404.496 723.714 430.784 745.521 434.318Z" fill="#C99584"/>
<path opacity="0.5" d="M462.761 434.567C440.85 437.386 420.061 416.135 416.326 387.104C412.592 358.072 427.327 332.252 449.238 329.433C471.148 326.615 491.938 347.865 495.673 376.897C499.407 405.929 484.672 431.749 462.761 434.567Z" fill="#C99584"/>
<path d="M456 294C456 211.157 523.157 144 606 144C688.843 144 756 211.157 756 294V362.231L752.532 400.818C746.193 471.345 696.883 530.596 628.679 549.637C616.862 552.936 604.374 552.987 592.531 549.784L587.841 548.516C519.545 530.046 469.115 472.232 460.092 402.06L456 370.231V294Z" fill="#F4D5CC"/>
<path d="M445.375 249.054C444.704 188.044 498.377 168.054 488.876 179.554C479.375 191.053 501.877 219.554 488.876 228.554C475.874 237.554 480.499 255.5 480.499 266.5C480.499 277.5 465.2 286.055 458.875 307.555C452.55 329.055 457.875 370.912 457.875 370.912C458.375 372.055 457.875 373.555 456.875 373.555C455.875 373.555 454.375 373.055 453.969 370.912C453.969 370.912 446.374 340.054 445.375 249.054Z" fill="#868686"/>
<path d="M763.869 250.588C764.487 194.25 714.944 175.792 723.714 186.411C732.484 197.03 711.713 223.347 723.714 231.658C735.715 239.969 729.792 257.406 732.999 271.5C736.207 285.594 745.568 284.755 751.407 304.608C757.245 324.462 752.33 363.113 752.33 363.113C751.868 364.169 752.33 365.554 753.253 365.554C754.176 365.554 755.561 365.092 755.936 363.113C755.936 363.113 762.946 334.619 763.869 250.588Z" fill="#868686"/>
<path d="M610.293 219.43C527.772 211.81 475.965 231.975 463.155 258.172C450.346 284.369 452.137 352.787 450.133 344.271C448.13 335.756 444.999 270.642 444.999 256.33C444.999 163.43 513.621 149.414 575.732 155.091C637.842 160.769 685.928 226.415 610.293 219.43Z" fill="#2A2A2A"/>
<path d="M599.324 218.94C674.624 206.576 739.124 233.079 747.124 263.84C757.124 305.96 757.911 355.66 758.624 345.714C762.624 331.99 763.999 267.153 763.999 253.952C763.999 127.445 566.999 42.5267 462.999 189.71C462.999 189.71 523.166 218.94 599.324 218.94Z" fill="#2A2A2A"/>
<path d="M607.874 365.554C597.874 380.554 587.874 415.554 617.874 415.554" stroke="#EBBAAA" stroke-width="17"/>
<path d="M668 345V349" stroke="black" stroke-width="26" stroke-linecap="round"/>
<path d="M542.5 345V349" stroke="black" stroke-width="26" stroke-linecap="round"/>
<path d="M582 463C587 469.5 599.125 473 609.5 473C619.875 473 631 469.5 635 463" stroke="#C99584" stroke-width="10" stroke-linecap="round"/>
<path d="M679.575 691L676.495 685.06C677.615 684.5 678.815 683.28 678.815 681.34C678.815 679 677.115 676.76 673.955 676.76H668.315V691H671.815V685.7H672.995L675.515 691H679.575ZM675.315 681.34C675.315 682.08 674.755 682.78 673.795 682.78H671.815V679.9H673.795C674.755 679.9 675.315 680.6 675.315 681.34ZM684.862 691V676.76H681.362V691H684.862ZM697.309 686.64C697.309 685.32 697.009 684.26 696.249 683.52C695.649 682.92 694.729 682.52 693.449 682.34L691.729 682.1C691.229 682.04 690.929 681.86 690.749 681.68C690.529 681.46 690.469 681.2 690.469 681.02C690.469 680.4 690.969 679.7 692.189 679.7C692.809 679.7 693.989 679.64 694.889 680.54L697.089 678.34C695.869 677.12 694.329 676.64 692.289 676.64C689.049 676.64 687.089 678.54 687.089 681.14C687.089 682.36 687.409 683.32 688.069 684C688.709 684.66 689.669 685.08 690.929 685.26L692.649 685.5C693.109 685.56 693.409 685.7 693.589 685.88C693.789 686.1 693.869 686.38 693.869 686.72C693.869 687.54 693.209 688 691.829 688C690.689 688 689.389 687.74 688.649 687L686.409 689.24C687.849 690.72 689.629 691.12 691.809 691.12C694.809 691.12 697.309 689.54 697.309 686.64ZM709.284 691V687.88H703.104V685.38H708.384V682.26H703.104V679.88H709.284V676.76H699.604V691H709.284Z" fill="white"/>
<path d="M671.935 708L666.755 693.76H664.055L658.875 708H662.535L663.235 705.88H667.615L668.275 708H671.935ZM666.695 702.96H664.215L665.495 699.16L666.695 702.96ZM683.706 701.78V699.8H678.126V702.72H680.226V702.92C680.226 703.46 680.086 704.04 679.686 704.44C679.366 704.78 678.866 705 678.126 705C677.486 705 677.006 704.74 676.746 704.4C676.426 703.98 676.226 703.48 676.226 700.88C676.226 698.28 676.426 697.8 676.746 697.38C677.006 697.04 677.486 696.76 678.126 696.76C679.326 696.76 679.886 697.28 680.166 698.36H683.686C683.346 696.02 681.786 693.64 678.126 693.64C676.406 693.64 675.206 694.2 674.166 695.24C672.666 696.74 672.726 698.74 672.726 700.88C672.726 703.02 672.666 705.02 674.166 706.52C675.206 707.56 676.466 708.12 678.126 708.12C679.686 708.12 681.046 707.78 682.266 706.52C683.346 705.42 683.706 704.08 683.706 701.78ZM697.56 708L692.38 693.76H689.68L684.5 708H688.16L688.86 705.88H693.24L693.9 708H697.56ZM692.32 702.96H689.84L691.12 699.16L692.32 702.96ZM702.506 708V693.76H699.006V708H702.506ZM716.513 708V693.76H713.013V700.92L708.453 693.76H705.393V708H708.893V700.84L713.453 708H716.513Z" fill="#FF0000"/>
<path d="M495.795 1025.17C488.291 1023.57 471.264 1014.67 468.378 1016.17C471 1052 453.718 1094 448.501 1125C440.002 1175.5 471.499 1174.5 464.501 1206.67C461.492 1220.5 510.946 1214.17 510.946 1206.67C510.946 1199.17 511.668 1173.17 510.946 1152.67C510.225 1132.17 522.49 1029.67 516.718 1028.17C510.946 1026.67 505.174 1027.17 495.795 1025.17Z" fill="#BCBEBB"/>
<path d="M505.173 1032.67C499.401 1032.17 475.591 1025.17 468.377 1020.67C463.326 1025.17 454.668 1056.17 464.048 1060.17C473.427 1064.17 502.287 1077.5 505.173 1074C508.059 1070.5 510.945 1033.17 505.173 1032.67Z" fill="#B1B2AF"/>
<path d="M716.732 1025.17C723.029 1023.57 737.317 1014.67 739.739 1016.17C739.739 1036 756.5 1053.5 760 1093.5C760 1125.5 756 1217 738.528 1206.67C732.854 1203.32 704.018 1214.17 704.018 1206.67C704.018 1199.17 703.412 1173.17 704.018 1152.67C704.623 1132.17 694.331 1029.67 699.174 1028.17C704.018 1026.67 708.861 1027.17 716.732 1025.17Z" fill="#BCBEBB"/>
<path d="M708.862 1032.67C713.705 1032.17 733.685 1025.17 739.739 1020.67C743.977 1025.17 761.371 1052.5 753.5 1056.5C745.63 1060.5 712.922 1079 710.5 1075.5C708.078 1072 704.018 1033.17 708.862 1032.67Z" fill="#B1B2AF"/>
<path d="M605.321 230C605.321 230 562.852 216.055 531 220.122C613.44 163.76 706.075 224.285 687.628 220.973C652.029 214.581 625.306 224.77 605.321 230Z" fill="#2A2A2A"/>
<path d="M511.632 125.248L512.555 146.578L516.898 196.077L693.384 147.069L618.948 89.5319L621.128 100.372L597.748 101.334L595.837 114.155L573.295 108.125L569.033 114.838L537.148 118.162L542.454 122.218L511.632 125.248Z" fill="#2C2929"/>
<path d="M468.152 166.899L459.439 197.27L574.29 179.817L705.546 203.361L705.269 190.865L695.907 187.046L695.689 177.227L683.886 177.479L683.55 162.305L668.376 162.629L664.746 151.097L651.258 151.385L642.992 139.952L629.16 143.819L624.787 136.769L610.455 137.074L610.277 129.041L591.065 137.488L585.829 129.563L577.576 137.776L568.968 129.922L553.128 138.297L542.834 130.48L532.052 138.747L524.465 138.908L516.192 146.229L512.662 139.16L498.666 154.64L489.314 151.267L477.475 168.933L468.152 166.899Z" fill="#272727"/>
<path d="M708.767 161.017C705.151 164.192 680.099 147.221 668.025 138.339L660.374 122.223L671.126 109.991L679.972 127.849L684.314 113.872L695.227 137.327L698 126.571C699.243 128.867 701.324 133.183 702.687 136.052C704.05 138.922 702.06 146.576 702.687 151.107L703.209 155.015C705.236 158.318 712.384 157.842 708.767 161.017Z" fill="#2C2929"/>
<path d="M693.87 295.112L634.53 292.322C633.224 292.261 632.212 293.447 632.477 294.727L635.298 308.31C635.489 309.233 636.3 309.897 637.243 309.903L684.517 310.196C684.616 310.196 684.715 310.204 684.813 310.22L701.709 312.854C702.519 312.98 703.325 312.599 703.741 311.891L707.499 305.499C708.051 304.56 707.75 303.352 706.822 302.782L694.823 295.406C694.535 295.229 694.207 295.128 693.87 295.112Z" fill="#393939"/>
<path d="M516.726 294.831L576.1 292.742C577.401 292.697 578.398 293.885 578.127 295.158L575.135 309.206C574.938 310.134 574.115 310.795 573.167 310.79L526.402 310.507C526.304 310.506 526.207 310.513 526.111 310.526L508.696 312.981C507.878 313.096 507.072 312.696 506.67 311.974L502.929 305.256C502.408 304.321 502.716 303.141 503.629 302.58L515.749 295.126C516.044 294.945 516.381 294.843 516.726 294.831Z" fill="#393939"/>
<path d="M616 609C611.305 614.868 606.334 629.499 605.5 635.499C605.5 644.666 599.1 656 619.5 634C637.028 615.098 630.5 601.499 627 601.499C622.843 601 620 604 616 609Z" fill="#202F2E"/>
<circle cx="601.5" cy="615.5" r="4.5" fill="#C4C4C4"/>
<path d="M434.244 631.427C458.504 579.037 498.153 582.99 515 584.975L483.552 766.555L388.914 823C370.353 798.4 394.866 724.813 396.438 718.812C401.729 698.619 415.542 671.815 434.244 631.427Z" fill="#22293D"/>
<path d="M778.538 625.101C754.343 570.861 714.802 574.955 698 577.009L729.363 765L820 730.298C817.499 722.308 815.565 717.535 813.997 711.322C808.72 690.416 797.189 666.915 778.538 625.101Z" fill="#22293D"/>
<path d="M486.127 587.5C494.527 579.9 529.96 570.667 546.627 567C546.627 582.5 551.769 603.425 577.127 615.5C608.627 630.5 638.627 620.5 658.627 602C672.147 589.494 675.794 577.167 676.127 568C690.46 570.833 721.027 576.2 728.627 579C738.127 582.5 736.627 606.5 740.127 644.5C743.627 682.5 747.627 803.5 755.627 842.5C763.627 881.5 755.627 895 747.627 905.5C739.627 916 766.627 932 755.627 949.5C744.627 967 643.127 973 607.627 975.5C572.127 978 476.627 968.5 463.627 965C450.626 961.5 447.127 942.5 441.127 931.5C435.127 920.5 455.127 885.5 453.127 870C451.527 857.6 459.46 786.5 463.627 752.5C467.627 700.667 477.727 595.1 486.127 587.5Z" fill="#1D2438"/>
<path d="M708.173 751.039C692.22 751.496 676.077 767.98 670 776.164C670 789.298 708.173 803.573 725.836 801.86C743.498 800.147 744.637 769.883 738.94 763.031C733.242 756.179 728.115 750.468 708.173 751.039Z" fill="#EBBEAA"/>
<path d="M499 763.5C507.001 761.001 516.5 757 551.625 764.005C547.625 767.205 542.125 796.172 541.625 801.505C537.625 801.838 526 797.865 518.5 793.249C509 787.403 497.334 786.667 491.001 785C491.167 783.5 470.501 788.5 478.5 775C480.355 771.869 488.72 766.713 499 763.5Z" fill="#EBBEAA"/>
<path d="M527.178 759.567C525.351 759.737 522.032 760.629 520.93 761.314L529.823 769.227C530.136 768.421 532.078 765.872 532.915 764.861C534.485 762.966 540.157 761.273 537.792 760.911C534.704 760.437 528.911 759.405 527.178 759.567Z" fill="#3F3A3D"/>
<path d="M528.453 785.908C522.722 793.63 513.009 795.318 506.775 789.882C500.541 784.446 499.982 773.801 505.713 766.079C511.444 758.357 521.157 756.669 527.391 762.105C533.625 767.541 534.184 778.186 528.453 785.908Z" fill="#868686" stroke="#A9A9A9"/>
<path d="M526.953 784.6C522.001 791.271 513.581 792.76 508.153 788.028C502.726 783.295 502.264 774.061 507.216 767.389C512.167 760.718 520.588 759.229 526.015 763.961C531.443 768.694 531.904 777.928 526.953 784.6Z" fill="#2D272B" stroke="#F5F5F5" stroke-width="0.5"/>
<ellipse cx="516.934" cy="775.643" rx="1.41431" ry="1.65856" transform="rotate(23.929 516.934 775.643)" fill="#C4C4C4"/>
<rect x="520.314" y="766.859" width="0.942874" height="8.84566" transform="rotate(23.929 520.314 766.859)" fill="#C4C4C4"/>
<rect width="1.0719" height="2.94341" transform="matrix(0.00835507 0.999965 -0.990177 0.139818 519.457 774.951)" fill="#C4C4C4"/>
<rect x="522.107" y="762.816" width="0.942874" height="1.10571" transform="rotate(23.929 522.107 762.816)" fill="#C4C4C4"/>
<rect x="525.933" y="768.146" width="0.942874" height="1.10571" transform="rotate(23.929 525.933 768.146)" fill="#C4C4C4"/>
<rect x="511.216" y="766.452" width="0.942874" height="1.10571" transform="rotate(23.929 511.216 766.452)" fill="#C4C4C4"/>
<rect x="516.452" y="763.938" width="0.942874" height="1.10571" transform="rotate(23.929 516.452 763.938)" fill="#C4C4C4"/>
<rect x="523.104" y="783.824" width="0.942874" height="1.10571" transform="rotate(23.929 523.104 783.824)" fill="#C4C4C4"/>
<rect x="506.728" y="776.559" width="0.942874" height="1.10571" transform="rotate(23.929 506.728 776.559)" fill="#C4C4C4"/>
<rect x="527.59" y="773.718" width="0.942874" height="1.10571" transform="rotate(23.929 527.59 773.718)" fill="#C4C4C4"/>
<rect x="516.549" y="786.966" width="0.942874" height="1.10571" transform="rotate(23.929 516.549 786.966)" fill="#C4C4C4"/>
<rect x="507.93" y="783.141" width="0.942874" height="1.10571" transform="rotate(23.929 507.93 783.141)" fill="#C4C4C4"/>
<rect x="527.071" y="779.535" width="0.942874" height="1.10571" transform="rotate(23.929 527.071 779.535)" fill="#C4C4C4"/>
<rect x="511.345" y="787.072" width="0.942874" height="1.10571" transform="rotate(23.929 511.345 787.072)" fill="#C4C4C4"/>
<rect x="507.25" y="770.741" width="0.942874" height="1.10571" transform="rotate(23.929 507.25 770.741)" fill="#C4C4C4"/>
<path d="M479.875 877.244C387.342 860.457 383.042 820.079 382.875 800.746C388.075 728.746 439.5 722.999 469.5 763.5C481.5 775.667 478.604 780.291 506.875 785.745C535.375 791.244 567.375 792.744 620.375 776.244L712.5 840.5C676 868 592.875 897.744 479.875 877.244Z" fill="#22293D"/>
<path d="M827.875 759.744C827.875 745.824 806.74 689.73 795.375 662.244L743.875 696.095C751.813 712.03 735.049 767.808 715.999 774.5C692.186 782.865 586.117 763.025 577.999 769C571.505 773.78 566.499 817.249 566.499 829C617.372 849.316 737.577 888.208 783.038 855.343C806.945 838.061 827.875 807.546 827.875 759.744Z" fill="#22293D"/>
<path d="M549.298 762.616C552.898 760.616 565.298 763.771 579.298 767.938C575.298 771.138 570.298 810.105 569.798 815.438C565.798 815.772 554.798 809.732 547.298 805.117C537.798 799.271 538.798 791.117 539.298 786.617C539.465 785.117 539.998 781.417 540.798 778.617C541.798 775.117 544.798 765.116 549.298 762.616Z" fill="#181E30"/>
<g opacity="0.8">
<path d="M598.5 740C598.5 739 597.5 737.5 596 737.5C594.5 737.5 593.5 739 593.5 740C593.5 741 594 744.5 596 744.5C598 744.5 598.5 741 598.5 740Z" fill="#AE777C"/>
<path d="M594.5 738.5C594.5 737.3 592.5 736.333 591.5 736C591 739 591.499 745.5 596 745.5C600.817 745.5 601.333 739.333 601 736C600 736.5 598 737.7 598 738.5C598 739.5 598 743 596 743C594 743 594.5 740 594.5 738.5Z" fill="#F8F8F8"/>
<path d="M690.156 878C690.156 877 689.156 875.5 687.656 875.5C686.156 875.5 685.156 877 685.156 878C685.156 879 685.656 882.5 687.656 882.5C689.656 882.5 690.156 879 690.156 878Z" fill="#AE777C"/>
<path d="M686.156 876.5C686.156 875.3 684.156 874.333 683.156 874C682.656 877 683.156 883.5 687.656 883.5C692.473 883.5 692.99 877.333 692.656 874C691.656 874.5 689.656 875.7 689.656 876.5C689.656 877.5 689.656 881 687.656 881C685.656 881 686.156 878 686.156 876.5Z" fill="#F8F8F8"/>
<path d="M646.156 945C646.156 944 645.156 942.5 643.656 942.5C642.156 942.5 641.156 944 641.156 945C641.156 946 641.656 949.5 643.656 949.5C645.656 949.5 646.156 946 646.156 945Z" fill="#AE777C"/>
<path d="M642.156 943.5C642.156 942.3 640.156 941.333 639.156 941C638.656 944 639.156 950.5 643.656 950.5C648.473 950.5 648.99 944.333 648.656 941C647.656 941.5 645.656 942.7 645.656 943.5C645.656 944.5 645.656 948 643.656 948C641.656 948 642.156 945 642.156 943.5Z" fill="#F8F8F8"/>
<path d="M533.156 918C533.156 917 532.156 915.5 530.656 915.5C529.156 915.5 528.156 917 528.156 918C528.156 919 528.656 922.5 530.656 922.5C532.656 922.5 533.156 919 533.156 918Z" fill="#AE777C"/>
<path d="M529.156 916.5C529.156 915.3 527.156 914.333 526.156 914C525.656 917 526.156 923.5 530.656 923.5C535.473 923.5 535.99 917.333 535.656 914C534.656 914.5 532.656 915.7 532.656 916.5C532.656 917.5 532.656 921 530.656 921C528.656 921 529.156 918 529.156 916.5Z" fill="#F8F8F8"/>
<path d="M654.156 668C654.156 667 653.156 665.5 651.656 665.5C650.156 665.5 649.156 667 649.156 668C649.156 669 649.656 672.5 651.656 672.5C653.656 672.5 654.156 669 654.156 668Z" fill="#AE777C"/>
<path d="M650.156 666.5C650.156 665.3 648.156 664.333 647.156 664C646.656 667 647.156 673.5 651.656 673.5C656.473 673.5 656.99 667.333 656.656 664C655.656 664.5 653.656 665.7 653.656 666.5C653.656 667.5 653.656 671 651.656 671C649.656 671 650.156 668 650.156 666.5Z" fill="#F8F8F8"/>
<path d="M699.156 610C699.156 609 698.156 607.5 696.656 607.5C695.156 607.5 694.156 609 694.156 610C694.156 611 694.656 614.5 696.656 614.5C698.656 614.5 699.156 611 699.156 610Z" fill="#AE777C"/>
<path d="M695.156 608.5C695.156 607.3 693.156 606.333 692.156 606C691.656 609 692.156 615.5 696.656 615.5C701.473 615.5 701.99 609.333 701.656 606C700.656 606.5 698.656 607.7 698.656 608.5C698.656 609.5 698.656 613 696.656 613C694.656 613 695.156 610 695.156 608.5Z" fill="#F8F8F8"/>
<path d="M529.156 668C529.156 667 528.156 665.5 526.656 665.5C525.156 665.5 524.156 667 524.156 668C524.156 669 524.656 672.5 526.656 672.5C528.656 672.5 529.156 669 529.156 668Z" fill="#AE777C"/>
<path d="M525.156 666.5C525.156 665.3 523.156 664.333 522.156 664C521.656 667 522.156 673.5 526.656 673.5C531.473 673.5 531.99 667.333 531.656 664C530.656 664.5 528.656 665.7 528.656 666.5C528.656 667.5 528.656 671 526.656 671C524.656 671 525.156 668 525.156 666.5Z" fill="#F8F8F8"/>
<path d="M510.156 609C510.156 608 509.156 606.5 507.656 606.5C506.156 606.5 505.156 608 505.156 609C505.156 610 505.656 613.5 507.656 613.5C509.656 613.5 510.156 610 510.156 609Z" fill="#AE777C"/>
<path d="M506.156 607.5C506.156 606.3 504.156 605.333 503.156 605C502.656 608 503.156 614.5 507.656 614.5C512.473 614.5 512.99 608.333 512.656 605C511.656 605.5 509.656 606.7 509.656 607.5C509.656 608.5 509.656 612 507.656 612C505.656 612 506.156 609 506.156 607.5Z" fill="#F8F8F8"/>
<path d="M456.156 715C456.156 714 455.156 712.5 453.656 712.5C452.156 712.5 451.156 714 451.156 715C451.156 716 451.656 719.5 453.656 719.5C455.656 719.5 456.156 716 456.156 715Z" fill="#AE777C"/>
<path d="M452.156 713.5C452.156 712.3 450.156 711.333 449.156 711C448.656 714 449.156 720.5 453.656 720.5C458.473 720.5 458.99 714.333 458.656 711C457.656 711.5 455.656 712.7 455.656 713.5C455.656 714.5 455.656 718 453.656 718C451.656 718 452.156 715 452.156 713.5Z" fill="#F8F8F8"/>
<path d="M411.156 768C411.156 767 410.156 765.5 408.656 765.5C407.156 765.5 406.156 767 406.156 768C406.156 769 406.656 772.5 408.656 772.5C410.656 772.5 411.156 769 411.156 768Z" fill="#AE777C"/>
<path d="M407.156 766.5C407.156 765.3 405.156 764.333 404.156 764C403.656 767 404.156 773.5 408.656 773.5C413.473 773.5 413.99 767.333 413.656 764C412.656 764.5 410.656 765.7 410.656 766.5C410.656 767.5 410.656 771 408.656 771C406.656 771 407.156 768 407.156 766.5Z" fill="#F8F8F8"/>
<path d="M563 837.581C562 837.581 560.5 838.581 560.5 840.081C560.5 841.581 562 842.581 563 842.581C564 842.581 567.5 842.081 567.5 840.081C567.5 838.081 564 837.581 563 837.581Z" fill="#AE777C"/>
<path d="M561.5 841.581C560.3 841.581 559.333 843.581 559 844.581C562 845.081 568.5 844.582 568.5 840.081C568.5 835.264 562.333 834.748 559 835.081C559.5 836.081 560.7 838.081 561.5 838.081C562.5 838.081 566 838.081 566 840.081C566 842.081 563 841.581 561.5 841.581Z" fill="#F8F8F8"/>
<path d="M721.156 711C721.156 710 720.156 708.5 718.656 708.5C717.156 708.5 716.156 710 716.156 711C716.156 712 716.656 715.5 718.656 715.5C720.656 715.5 721.156 712 721.156 711Z" fill="#AE777C"/>
<path d="M717.156 709.5C717.156 708.3 715.156 707.333 714.156 707C713.656 710 714.156 716.5 718.656 716.5C723.473 716.5 723.99 710.333 723.656 707C722.656 707.5 720.656 708.7 720.656 709.5C720.656 710.5 720.656 714 718.656 714C716.656 714 717.156 711 717.156 709.5Z" fill="#F8F8F8"/>
<path d="M799.156 766C799.156 765 798.156 763.5 796.656 763.5C795.156 763.5 794.156 765 794.156 766C794.156 767 794.656 770.5 796.656 770.5C798.656 770.5 799.156 767 799.156 766Z" fill="#AE777C"/>
<path d="M795.156 764.5C795.156 763.3 793.156 762.333 792.156 762C791.656 765 792.156 771.5 796.656 771.5C801.473 771.5 801.99 765.333 801.656 762C800.656 762.5 798.656 763.7 798.656 764.5C798.656 765.5 798.656 769 796.656 769C794.656 769 795.156 766 795.156 764.5Z" fill="#F8F8F8"/>
<path d="M665.5 802.156C666.5 802.156 668 801.156 668 799.656C668 798.156 666.5 797.156 665.5 797.156C664.5 797.156 661 797.656 661 799.656C661 801.656 664.5 802.156 665.5 802.156Z" fill="#AE777C"/>
<path d="M667 798.156C668.2 798.156 669.167 796.156 669.5 795.156C666.5 794.656 660 795.156 660 799.656C660 804.473 666.167 804.99 669.5 804.656C669 803.656 667.8 801.656 667 801.656C666 801.656 662.5 801.656 662.5 799.656C662.5 797.656 665.5 798.156 667 798.156Z" fill="#F8F8F8"/>
</g>
<path d="M404.333 1489.66C404.154 1469.1 406.955 1456.59 424.829 1448.18C442.704 1439.78 459.54 1423.63 490.464 1409.78C490.464 1409.78 494.535 1409.01 501.161 1412.59C506.815 1415.65 514.078 1423.15 525.021 1423.06C536.904 1422.95 547.493 1420.43 554.072 1416.98C556.915 1409.2 563.22 1409.14 563.22 1409.14C563.22 1409.14 572.099 1426.04 572.247 1443.02C572.395 1459.99 572.38 1488.19 572.38 1488.19L404.333 1489.66Z" fill="#DCE1E6"/>
<path d="M484.999 1413.24C486.939 1417.6 486.939 1422.94 486.939 1426.33L470.447 1419.06L474.328 1433.12L459.291 1428.27V1442.34L447.65 1436.03V1448.16" stroke="white" stroke-width="5.70373" stroke-linecap="round" stroke-linejoin="round"/>
<path d="M411.094 1449.76C416.578 1447.77 422.386 1446.26 433.521 1443.74L428.789 1457.37L428.924 1472.89L397.231 1473.16C395.938 1473.17 393.627 1471.45 394.73 1464.45C396.109 1455.71 403.302 1452.58 411.094 1449.76Z" fill="#EAF4FB"/>
<path d="M572.87 1484.83L571.99 1469.21L429.882 1471.42L394.449 1468.82L393.486 1479.96C393.046 1485.04 396.859 1489.5 401.948 1489.85L430.06 1491.8L568.385 1489.65C570.978 1489.61 573.016 1487.42 572.87 1484.83Z" fill="#C7CBCF"/>
<path d="M799.813 1491.45C799.993 1470.89 797.191 1458.38 779.317 1449.98C761.442 1441.57 744.606 1425.42 713.682 1411.57C713.682 1411.57 709.611 1410.8 702.986 1414.39C697.331 1417.44 690.069 1424.94 679.125 1424.85C667.242 1424.74 656.653 1422.23 650.074 1418.77C647.231 1410.99 640.926 1410.93 640.926 1410.93C640.926 1410.93 632.047 1427.83 631.899 1444.81C631.751 1461.79 631.766 1489.98 631.766 1489.98L799.813 1491.45Z" fill="#DCE1E6"/>
<path d="M719.147 1415.03C717.207 1419.39 717.207 1424.73 717.207 1428.12L733.699 1420.85L729.818 1434.92L744.855 1430.06V1444.13L756.496 1437.83V1449.95" stroke="white" stroke-width="5.70373" stroke-linecap="round" stroke-linejoin="round"/>
<path d="M793.052 1451.55C787.568 1449.56 781.76 1448.06 770.625 1445.53L775.357 1459.16L775.222 1474.68L806.915 1474.96C808.208 1474.97 810.519 1473.24 809.416 1466.25C808.037 1457.5 800.844 1454.38 793.052 1451.55Z" fill="#EAF4FB"/>
<path d="M631.276 1486.62L632.156 1471.01L774.264 1473.22L809.698 1470.62L810.66 1481.75C811.1 1486.84 807.287 1491.29 802.198 1491.64L774.087 1493.59L635.761 1491.44C633.168 1491.4 631.13 1489.21 631.276 1486.62Z" fill="#C7CBCF"/>
<path d="M510.82 1447.78C506.634 1448.91 503.27 1448.72 501.376 1447.24C496.5 1443.36 499.7 1437.52 501.055 1435.23C498.628 1438.02 496.215 1440.83 494.324 1443.89C491.343 1448.68 490.048 1453.94 491.997 1457.34C495.492 1463.47 504.054 1460.71 509.518 1458.3L560.222 1435.88L510.82 1447.78Z" fill="#EAF4FB"/>
<path d="M689.2 1448.84C693.263 1450.03 696.547 1449.9 698.421 1448.44C703.248 1444.63 700.235 1438.74 698.955 1436.43C701.271 1439.26 703.572 1442.1 705.36 1445.19C708.179 1450.02 709.345 1455.3 707.382 1458.67C703.86 1464.75 695.56 1461.87 690.276 1459.38L641.24 1436.25L689.2 1448.84Z" fill="#EAF4FB"/>
</svg>
