<svg width="1200" height="1600" viewBox="0 0 1200 1600" fill="none" xmlns="http://www.w3.org/2000/svg">
<path d="M425.371 962.221L442.621 972.817L455.639 951.924L449.081 937.914L428.512 940.895L425.371 962.221Z" fill="#C4C4C4"/>
<path d="M669.238 1093.36C681.238 1153.26 676.404 1306.59 676.404 1384.05" stroke="#EBBAAA" stroke-width="57" stroke-linecap="round" stroke-linejoin="bevel"/>
<path d="M548.403 1171.82C542.403 1275.61 533.403 1323.63 536.403 1395.41" stroke="#EBBAAA" stroke-width="57" stroke-linecap="round" stroke-linejoin="bevel"/>
<path d="M584.418 1071.05C648.202 1071.05 699.909 1045.75 699.909 1014.55C699.909 983.35 648.202 958.056 584.418 958.056C520.635 958.056 468.928 983.35 468.928 1014.55C468.928 1045.75 520.635 1071.05 584.418 1071.05Z" fill="#2E2E2D"/>
<path d="M460.274 951.336H595.274L585.274 1316.4L582.274 1352.03L505.774 1347.9L481 1316.4L460.274 951.336Z" fill="#2E2E2D"/>
<path d="M593.988 957.554H729.446V1322.08L713.274 1344.8L634.774 1351.52L630.274 1322.08L593.988 957.554Z" fill="#2E2E2D"/>
<path opacity="0.2" fill-rule="evenodd" clip-rule="evenodd" d="M468.785 1041.82L497.385 961.703L514.175 967.939L485.575 1041.82H468.785Z" fill="white"/>
<path opacity="0.2" fill-rule="evenodd" clip-rule="evenodd" d="M726.264 1041.82L697.665 961.703L680.875 967.939L709.474 1041.82H726.264Z" fill="white"/>
<g filter="url(#filter0_i)">
<path fill-rule="evenodd" clip-rule="evenodd" d="M592.389 615.034C630.635 615.034 661.64 590.196 661.64 559.556C661.64 557.65 661.52 555.766 661.285 553.908L644.039 550.339C641.577 549.829 639.068 549.572 636.554 549.572H532.188C529.599 549.572 527.017 549.845 524.485 550.385L524.062 550.475C523.455 553.43 523.139 556.463 523.139 559.556C523.139 590.196 554.143 615.034 592.389 615.034Z" fill="#EBBAAA"/>
</g>
<path d="M430.566 700.258C398.86 762.333 372.859 926.333 398.86 943.333" stroke="#EBBAAA" stroke-width="74" stroke-linecap="round" stroke-linejoin="bevel"/>
<path d="M745.582 675.521C790.934 755.917 807.351 904.982 790.86 950.333" stroke="#EBBAAA" stroke-width="74" stroke-linecap="round" stroke-linejoin="bevel"/>
<path d="M427.859 608.836C427.859 585.336 479.359 561.352 515.359 549.946L562.359 534.352C568.905 534.146 613.876 536.016 620.359 536.912L693.359 561.352C727.951 566.134 781.343 581.09 777.859 615.836L740.408 768.635L743.859 965.336C743.932 967.15 661.174 977.429 659.359 977.336L521.859 968.615L447.359 965.266C445.618 965.173 444.715 960.078 444.859 958.336L454.867 750.216L427.859 608.836Z" fill="#EBBAAA"/>
<path d="M769.359 584.836C760.159 575.636 729.859 566.336 715.859 562.836C724.693 680.836 743.159 919.836 746.359 931.836C750.359 946.836 837.859 952.836 845.859 946.836C853.859 940.836 862.859 884.336 860.859 853.336C858.859 822.336 780.859 596.336 769.359 584.836Z" fill="#495B7E"/>
<path d="M424.778 584.319C433.39 575.126 461.754 565.833 474.859 562.336C466.591 680.245 449.304 919.059 446.308 931.05C442.564 946.038 360.654 952.034 353.166 946.038C345.677 940.043 337.252 883.587 339.124 852.611C340.996 821.635 414.013 595.81 424.778 584.319Z" fill="#495B7E"/>
<path d="M447.604 934.05C443.772 949.038 359.945 955.034 352.281 949.038C350.579 947.707 347.158 938.407 347.158 938.407L448.756 925.679C448.756 925.679 447.877 932.981 447.604 934.05Z" fill="white"/>
<path d="M746.794 933.05C750.826 948.038 839.021 954.034 847.084 948.038C848.876 946.707 852.474 937.407 852.474 937.407L745.582 924.679C745.582 924.679 746.507 931.981 746.794 933.05Z" fill="white"/>
<path fill-rule="evenodd" clip-rule="evenodd" d="M559.393 596.825L554.86 598.336L527.859 545.836C501.013 550.573 496.303 552.714 481.132 559.608C478.691 560.717 475.979 561.95 472.859 563.336C451.611 572.78 450.531 599.86 449.019 637.774C448.621 647.752 448.193 658.481 447.359 669.836L441.859 968.336L515.86 979.836L564.859 980.331C564.859 980.333 564.859 980.334 564.86 980.336L565.359 980.336L711.359 980.336L749.359 969.836L742.359 658.336C742.359 658.336 733.36 570.836 718.359 562.836C703.359 554.836 658.859 548.836 658.859 548.836L627.86 590.836L594.859 594.836L592.96 596.102C586.202 572.392 574.998 543.469 564.86 548.836C561.879 550.414 560.198 568.553 559.393 596.825Z" fill="#3F4F6D"/>
<path d="M590.418 610.534C619.073 610.534 642.302 588.284 642.302 560.836C642.302 533.388 619.073 511.138 590.418 511.138C561.763 511.138 538.533 533.388 538.533 560.836C538.533 588.284 561.763 610.534 590.418 610.534Z" fill="#EBBAAA"/>
<path d="M372.561 704.635C380.655 711.173 412.159 727.236 447.274 724.248" stroke="white" stroke-width="28"/>
<path d="M820.295 704.635C812.201 711.173 780.696 727.236 745.581 724.248" stroke="white" stroke-width="28"/>
<path d="M727.867 445.923C760.243 445.923 783.663 409.753 786.489 382.945C789.314 356.137 760.243 329.059 727.867 329.059C695.492 329.059 669.246 353.184 669.246 382.945C669.246 412.705 695.492 445.923 727.867 445.923Z" fill="#EBBAAA"/>
<path d="M459.379 452.104C427.003 452.104 403.583 415.934 400.758 389.126C397.933 362.318 427.003 335.24 459.379 335.24C491.755 335.24 518 359.365 518 389.126C518 418.886 491.755 452.104 459.379 452.104Z" fill="#EBBAAA"/>
<path d="M432.494 290.247C432.494 199.772 504.268 126.428 592.805 126.428C681.343 126.428 753.117 199.772 753.117 290.247L742.266 416.892C729.422 495.749 667.713 555.492 592.805 555.492C517.898 555.492 458.672 487.885 443.344 416.892L432.494 290.247Z" fill="#F4D4C9"/>
<path d="M708.967 251.654L698.847 168.766C697.317 156.241 685.943 153.046 722.43 179.291C758.916 205.536 764.749 289.28 755.394 326.235L748.389 372.984L744.484 367.457L740.789 313.525C722.405 295.466 712.205 278.178 708.967 251.654Z" fill="#272727"/>
<path d="M448.027 258.285C447.517 231.581 444.55 233.171 444.21 215.368C443.969 202.757 443.83 199.569 433.074 230.04C422.319 260.512 424.569 297.762 429.971 333.282L435.67 365.969L440.816 365.875L440.031 324.763C446.941 295.738 448.537 284.99 448.027 258.285Z" fill="#272727"/>
<path fill-rule="evenodd" clip-rule="evenodd" d="M592.817 107.205L592.816 107.204C592.742 107.204 592.668 107.204 592.593 107.204C592.519 107.204 592.445 107.204 592.37 107.204L592.37 107.205C544.94 107.371 431.378 134.032 427.11 258.803C439.72 243.434 428.894 268.833 446.193 258.803C462.795 249.178 480.67 213.662 520.495 208.508C560.319 203.353 566.812 211.085 588.281 211.085C605.593 211.085 617.514 203.783 645.899 205.93C674.285 208.078 684.689 225.458 698.433 232.132C723.558 244.33 733.076 240.622 757.631 258.803C753.363 134.033 640.243 107.371 592.817 107.205Z" fill="#272727"/>
<path d="M634.884 326.438L674.305 324.862" stroke="#393939" stroke-width="18.4652" stroke-linecap="round"/>
<path d="M547.239 327.241L503.985 324.746" stroke="#393939" stroke-width="18.4652" stroke-linecap="round"/>
<path d="M590.821 363.451L577.921 410.03C573.687 425.319 585.186 440.436 601.05 440.436H612.142" stroke="#EBBAAA" stroke-width="17.4393"/>
<path d="M506.463 370.369C510.209 368.462 520.827 365.792 533.334 370.369" stroke="#393939" stroke-width="12" stroke-linecap="round"/>
<path d="M648.96 370.369C652.705 368.462 663.324 365.792 675.831 370.369" stroke="#393939" stroke-width="12" stroke-linecap="round"/>
<path d="M563.915 483.954C583.152 491.773 604.02 486.09 616.226 486.09" stroke="#C99584" stroke-width="15.6368" stroke-linecap="round"/>
<path d="M469.487 144.965L459.716 180.021L588.522 159.875L735.725 187.052L735.414 172.628L724.914 168.22L724.67 156.887L711.434 157.177L711.057 139.662L694.038 140.036L689.968 126.725L674.84 127.057L665.57 113.86L650.058 118.324L645.154 110.185L629.08 110.538L628.881 101.266L607.334 111.016L601.462 101.868L592.207 111.348L582.552 102.283L564.788 111.95L553.243 102.926L541.151 112.469L532.642 112.655L523.364 121.105L519.405 112.946L503.709 130.814L493.22 126.921L479.943 147.312L469.487 144.965Z" fill="#272727"/>
<path d="M624.853 162.256C630.666 179.57 643.074 192.161 620.102 235.974L683.553 218.08C669.773 196.296 619.041 144.943 624.853 162.256Z" fill="#272727"/>
<path d="M579.41 162.752C567.179 194.362 555.977 231.199 555.977 231.199L618.12 211.585C618.12 211.585 593.106 197.347 579.41 162.752Z" fill="#272727"/>
<path d="M625.252 166.801C613.021 198.411 601.819 235.248 601.819 235.248L663.962 215.633C663.962 215.633 638.949 201.395 625.252 166.801Z" fill="#272727"/>
<path d="M590.11 124.81C681.051 109.684 709.199 139.92 714.396 152.26C719.593 164.6 721.541 184.503 714.396 193.261C704.003 205.999 655.068 178.339 615.227 184.708C575.387 191.077 567.592 213.768 539.443 232.079C516.925 246.728 494.55 250.125 486.178 249.993C491.808 234.07 480.635 188.472 486.178 172.867C493.107 153.362 541.64 132.872 590.11 124.81Z" fill="#272727"/>
<path d="M568.715 368.847C574.629 368.302 589.867 367.539 603.514 368.847" stroke="black" stroke-width="10.808"/>
<path d="M605.408 367.627C602.223 356.944 609.737 346.302 620.818 345.802L693.264 342.533C704.344 342.033 713.261 351.933 711.55 362.837L708.071 385.002C706.825 392.943 700.211 398.839 692.14 399.203L629.648 402.023C621.578 402.387 614.202 397.123 611.882 389.342L605.408 367.627Z" fill="white" fill-opacity="0.29" stroke="black" stroke-width="8.64643"/>
<path d="M463.387 362.065C461.913 351.146 471.044 341.383 482.116 342.042L554.469 346.345C565.54 347.004 572.827 357.744 569.413 368.372L562.464 390.011C559.978 397.754 552.486 402.91 544.42 402.43L482.018 398.719C473.952 398.239 467.463 392.251 466.389 384.296L463.387 362.065Z" fill="white" fill-opacity="0.29" stroke="black" stroke-width="8.64643"/>
<path d="M713.382 367.74L750.436 330.176" stroke="black" stroke-width="11.8888" stroke-linecap="round"/>
<path d="M461.308 367.74L430.607 332.092" stroke="black" stroke-width="11.8888" stroke-linecap="round"/>
<path d="M581.708 509.835H597.409" stroke="#EBBAAA" stroke-width="17.4393" stroke-linecap="round"/>
<path d="M440.998 797.666C440.998 793.707 443.894 790.344 447.808 789.755L483.211 784.43C488.048 783.702 492.401 787.448 492.401 792.341V986.866C492.401 993.07 485.645 996.913 480.312 993.743L444.91 972.696C442.485 971.254 440.998 968.641 440.998 965.819V797.666Z" fill="#C4C4C4"/>
<mask id="mask0" mask-type="alpha" maskUnits="userSpaceOnUse" x="440" y="784" width="53" height="211">
<path d="M440.998 797.666C440.998 793.707 443.894 790.344 447.808 789.755L483.211 784.43C488.048 783.702 492.401 787.448 492.401 792.341V986.866C492.401 993.07 485.645 996.913 480.312 993.743L444.91 972.696C442.485 971.254 440.998 968.641 440.998 965.819V797.666Z" fill="#C4C4C4"/>
</mask>
<g mask="url(#mask0)">
<path d="M452.285 879.866C452.213 874.391 454.264 870.829 458.448 868.919C456.061 864.28 452.481 861.122 447.783 859.439C443.334 857.831 438.499 860.022 436.718 859.545C434.836 859.041 430.508 854.954 427.121 854.046C420.134 852.302 412.76 856.805 412.868 870.016C412.9 873.92 413.534 878.113 414.769 882.587C416.419 888.484 422.317 903.43 428.352 904.831C431.509 905.589 433.72 903.614 437.829 904.715C441.815 905.783 443.901 908.998 447.423 909.941C453.513 911.469 458.648 900.695 460.128 895.621C451.921 888.854 452.287 880.146 452.285 879.866ZM444.994 853.516C448.375 849.607 448.029 845.131 447.915 843.525C444.894 842.923 441.418 844.224 439.451 846.44C437.283 848.803 436.024 852.105 436.334 856.291C439.602 857.463 442.567 856.265 444.994 853.516Z" fill="white"/>
</g>
<path d="M577.079 1452.7C573.213 1461.24 572.827 1469 560.071 1472.49C555.819 1473.66 544.97 1473.27 540.718 1472.49C553.861 1443 567.772 1434 577.079 1434C578.238 1443.31 577.465 1450.76 577.079 1452.7Z" fill="#654934"/>
<path d="M541.131 1472.49C524.896 1469.78 519.484 1465.12 505.955 1465.12C483.535 1465.12 478.897 1480.64 446.427 1480.64C427.873 1480.64 408.545 1475.21 398.108 1459.69L396.176 1456.58C396.176 1444.94 406.226 1442.22 413.184 1441.84C416.663 1441.45 420.142 1441.06 423.62 1440.28L439.082 1450.37C441.015 1451.54 443.721 1451.15 444.881 1449.21C446.04 1447.27 445.654 1444.55 443.721 1443.39L434.444 1437.57C437.536 1436.79 440.242 1436.01 442.175 1435.24L454.158 1442.61C456.477 1443.78 458.796 1443 459.956 1441.06C461.116 1439.12 460.342 1436.4 458.41 1435.24L451.065 1430.97C453.385 1429.42 454.544 1427.87 456.477 1425.92L468.073 1432.91C470.006 1434.07 472.712 1433.69 473.872 1431.36C475.031 1429.42 474.258 1426.7 472.325 1425.54L463.048 1420.1C464.594 1419.33 466.141 1418.16 468.46 1417C469.233 1416.61 469.62 1416.22 470.393 1415.84L481.216 1422.43C483.535 1423.6 485.855 1422.82 487.014 1420.88C488.174 1418.94 487.401 1416.22 485.468 1415.06L477.35 1410.4C479.283 1408.46 480.829 1406.52 482.762 1404.58L493.199 1410.79C495.132 1411.95 497.451 1411.57 498.997 1409.24C500.157 1407.3 499.384 1404.58 497.451 1403.42L487.787 1397.6C489.333 1395.27 490.88 1392.55 492.426 1390.22L502.089 1396.04C504.022 1397.21 506.728 1396.43 507.888 1394.49C509.047 1392.55 508.274 1389.84 506.341 1388.67L496.291 1382.46C507.115 1360.73 505.182 1356.46 512.526 1352.97C513.299 1353.36 517.165 1356.85 525.669 1357.63C538.038 1359.18 541.517 1372.76 545.383 1376.64C547.702 1379.75 556.206 1380.13 562.004 1379.75C565.483 1379.75 568.189 1382.46 568.189 1385.57V1385.95C568.189 1395.66 570.122 1405.75 572.827 1415.06C574.76 1421.66 576.306 1428.64 577.08 1434.85C570.122 1435.63 555.046 1440.67 541.131 1472.49Z" fill="#423023"/>
<path d="M396.174 1462.79C396.56 1463.57 397.333 1464.73 398.493 1465.51C418.594 1488.79 461.5 1489.18 486.626 1474.82C487.399 1474.82 494.357 1469 515.617 1472.1C517.936 1472.49 520.642 1473.27 523.348 1474.04C529.919 1475.21 565.481 1488.4 577.078 1466.67C577.464 1466.28 577.464 1465.89 577.464 1465.51C579.01 1467.83 579.783 1470.55 579.783 1472.88C579.783 1472.88 579.01 1482.49 572.053 1484.82C572.053 1484.82 570.12 1480.55 569.347 1486.76L556.204 1491.03V1488.7H551.952V1491.03H538.81C538.81 1491.03 538.423 1487.54 536.877 1487.15C535.331 1486.76 532.625 1491.03 532.625 1491.03H519.482V1485.21C519.482 1485.21 517.936 1478.22 503.247 1482.1C503.247 1482.1 495.13 1485.98 493.584 1487.54H485.08V1490.64L476.576 1493.74L472.324 1492.19L470.777 1492.58V1495.68L460.727 1496.46V1493.74H455.315V1496.46H446.038V1493.74L438.694 1493.36V1496.46H432.896V1494.52C432.896 1494.52 431.736 1491.42 429.03 1494.52L424.005 1493.36V1490.25L420.14 1489.86L418.98 1491.8L413.182 1490.25C413.182 1490.25 414.342 1487.54 411.249 1488.31L410.863 1489.09L405.837 1486.76V1484.43H401.585C401.585 1484.43 394.241 1472.88 395.014 1467.83L396.174 1462.79Z" fill="#545454"/>
<path d="M468.36 1462.95C459.03 1465.78 444.794 1469.8 423.38 1465.31" stroke="#7C593E" stroke-width="7" stroke-linecap="round"/>
<path d="M630.03 1446.23C633.366 1454.99 633.278 1462.76 645.797 1467.03C649.969 1468.45 660.822 1468.72 665.113 1468.21C653.798 1437.97 640.462 1428.13 631.173 1427.57C629.446 1436.79 629.763 1444.27 630.03 1446.23Z" fill="#654934"/>
<path d="M664.701 1468.18C681.072 1466.46 686.758 1462.15 700.262 1462.97C722.64 1464.34 726.321 1480.12 758.73 1482.1C777.25 1483.24 796.873 1479 808.239 1464.14L810.358 1461.16C811.069 1449.54 801.204 1446.21 794.283 1445.4C790.834 1444.8 787.385 1444.2 783.96 1443.21L767.911 1452.34C765.91 1453.38 763.233 1452.83 762.194 1450.82C761.156 1448.82 761.707 1446.13 763.708 1445.09L773.323 1439.84C770.284 1438.88 767.631 1437.94 765.749 1437.05L753.338 1443.67C750.952 1444.69 748.684 1443.78 747.645 1441.77C746.606 1439.76 747.544 1437.1 749.544 1436.05L757.136 1432.24C754.916 1430.55 753.853 1428.93 752.043 1426.88L740.041 1433.14C738.041 1434.18 735.364 1433.63 734.349 1431.23C733.31 1429.23 734.247 1426.56 736.248 1425.52L745.84 1420.66C744.344 1419.79 742.871 1418.54 740.628 1417.23C739.88 1416.8 739.518 1416.39 738.77 1415.95L727.563 1421.88C725.177 1422.9 722.91 1421.98 721.871 1419.97C720.832 1417.97 721.77 1415.3 723.77 1414.26L732.157 1410.11C730.346 1408.05 728.922 1406.02 727.111 1403.97L716.314 1409.52C714.314 1410.57 712.023 1410.04 710.622 1407.62C709.583 1405.61 710.521 1402.95 712.521 1401.91L722.522 1396.69C721.121 1394.27 719.744 1391.46 718.343 1389.04L708.342 1394.26C706.341 1395.31 703.688 1394.37 702.649 1392.36C701.61 1390.35 702.548 1387.69 704.548 1386.64L714.959 1381.06C705.484 1358.71 707.674 1354.57 700.557 1350.63C699.762 1350.97 695.69 1354.22 687.154 1354.48C674.713 1355.27 670.411 1368.61 666.315 1372.25C663.811 1375.21 655.299 1375.07 649.535 1374.33C646.063 1374.12 643.196 1376.67 643.006 1379.76L642.982 1380.15C642.39 1389.84 639.844 1399.79 636.574 1408.92C634.241 1415.39 632.271 1422.26 631.12 1428.41C638.018 1429.61 652.756 1435.57 664.701 1468.18Z" fill="#423023"/>
<path d="M809.98 1467.36C809.547 1468.11 808.704 1469.22 807.499 1469.93C786.013 1491.94 743.163 1489.7 718.962 1473.84C718.19 1473.79 711.601 1467.55 690.191 1469.35C687.853 1469.6 685.104 1470.21 682.356 1470.82C675.726 1471.58 639.424 1482.57 629.177 1460.17C628.815 1459.76 628.839 1459.38 628.863 1458.99C627.177 1461.22 626.239 1463.88 626.097 1466.21C626.097 1466.21 626.281 1475.85 633.084 1478.6C633.084 1478.6 635.274 1474.45 635.666 1480.7L648.523 1485.76L648.665 1483.44L652.91 1483.7L652.767 1486.02L665.885 1486.82C665.885 1486.82 666.485 1483.36 668.052 1483.07C669.619 1482.78 672.058 1487.2 672.058 1487.2L685.176 1488.01L685.532 1482.2C685.532 1482.2 687.502 1475.32 701.927 1480.09C701.927 1480.09 709.792 1484.46 711.24 1486.1L719.728 1486.62L719.538 1489.72L727.837 1493.34L732.176 1492.05L733.695 1492.53L733.506 1495.63L743.49 1497.02L743.656 1494.31L749.057 1494.64L748.891 1497.35L758.151 1497.92L758.317 1495.21L765.671 1495.27L765.482 1498.37L771.269 1498.72L771.388 1496.78C771.388 1496.78 772.735 1493.76 775.246 1497.02L780.333 1496.17L780.522 1493.07L784.404 1492.92L785.443 1494.92L791.325 1493.73C791.325 1493.73 790.334 1490.95 793.373 1491.91L793.712 1492.71L798.87 1490.69L799.012 1488.37L803.256 1488.63C803.256 1488.63 811.293 1477.55 810.829 1472.46L809.98 1467.36Z" fill="#545454"/>
<path d="M737.919 1463.11C747.059 1466.5 761.022 1471.38 782.67 1468.21" stroke="#7C593E" stroke-width="7" stroke-linecap="round"/>
<path d="M713.27 1037.84L710.793 1309.02L694.902 1343.54" stroke="#585857" stroke-width="4" stroke-dasharray="8 9"/>
<path d="M487.826 1037.84L496.004 1309.02L521.895 1348.54" stroke="#585857" stroke-width="4" stroke-dasharray="8 9"/>
<path d="M635.628 664.251H710.878L703.353 734.306L673.253 750.789L643.153 734.306L635.628 664.251Z" fill="#495B7E"/>
<rect opacity="0.7" x="631.865" y="649.727" width="82.7755" height="15.0501" fill="#6077A3"/>
<defs>
<filter id="filter0_i" x="523.139" y="549.572" width="138.501" height="65.4617" filterUnits="userSpaceOnUse" color-interpolation-filters="sRGB">
<feFlood flood-opacity="0" result="BackgroundImageFix"/>
<feBlend mode="normal" in="SourceGraphic" in2="BackgroundImageFix" result="shape"/>
<feColorMatrix in="SourceAlpha" type="matrix" values="0 0 0 0 0 0 0 0 0 0 0 0 0 0 0 0 0 0 127 0" result="hardAlpha"/>
<feOffset dy="-8.20673"/>
<feComposite in2="hardAlpha" operator="arithmetic" k2="-1" k3="1"/>
<feColorMatrix type="matrix" values="0 0 0 0 1 0 0 0 0 1 0 0 0 0 1 0 0 0 1 0"/>
<feBlend mode="normal" in2="shape" result="effect1_innerShadow"/>
</filter>
</defs>
</svg>
