<svg width="1200" height="1600" viewBox="0 0 1200 1600" fill="none" xmlns="http://www.w3.org/2000/svg">
<path d="M672 1236V1464" stroke="#EBBAAA" stroke-width="44" stroke-linecap="round" stroke-linejoin="bevel"/>
<path d="M524 1236V1481.5" stroke="#EBBAAA" stroke-width="44" stroke-linecap="round" stroke-linejoin="bevel"/>
<path d="M724.375 700C768.375 778 800.375 930 784.375 974" stroke="#EBBAAA" stroke-width="74" stroke-linecap="round" stroke-linejoin="bevel"/>
<path d="M477.185 700C433.185 778 401.185 930 417.185 974" stroke="#EBBAAA" stroke-width="74" stroke-linecap="round" stroke-linejoin="bevel"/>
<path d="M645 1471.82C645 1471.82 645.499 1438.75 647.992 1441.25C650.486 1443.76 661.949 1450.27 677.418 1450.27C692.879 1450.27 702.355 1444.76 705.846 1441.25C709.337 1437.75 712.583 1471.82 712.583 1471.82L645 1471.82Z" fill="#DCE1E9"/>
<path d="M553.583 1474.82C553.583 1474.82 553.084 1441.75 550.591 1444.25C548.097 1446.76 536.634 1453.27 521.165 1453.27C505.704 1453.27 496.228 1447.76 492.737 1444.25C489.246 1440.75 486 1474.82 486 1474.82L553.583 1474.82Z" fill="#DCE1E9"/>
<path d="M597.999 1110C661.511 1110 712.999 1086.49 712.999 1057.5C712.999 1028.51 661.511 1005 597.999 1005C534.486 1005 482.999 1028.51 482.999 1057.5C482.999 1086.49 534.486 1110 597.999 1110Z" fill="#E2D3BD"/>
<path d="M596.999 987H746.999L726.999 1430H632.827L596.999 987Z" fill="#E2D3BD"/>
<path d="M598.999 987H448.999L468.999 1430H563.17L598.999 987Z" fill="#E2D3BD"/>
<path d="M795.561 650.162C785.151 618.122 750.731 600.592 718.691 611.002L671.171 626.442C639.131 636.852 621.591 671.272 632.001 703.312L684.45 859.14L848 806L795.561 650.162Z" fill="#BFD5DF"/>
<path d="M398.439 650.162C408.849 618.122 443.269 600.592 475.309 611.002L522.829 626.442C554.869 636.852 572.409 671.272 561.999 703.312L509.55 859.14L346 806L398.439 650.162Z" fill="#BFD5DF"/>
<rect x="733" y="821.282" width="117" height="20" transform="rotate(-15 733 821.282)" fill="#3E5C78"/>
<rect width="117" height="20" transform="matrix(-0.965926 -0.258819 -0.258819 0.965926 460.19 821.282)" fill="#3E5C78"/>
<path d="M768.903 632.68C769.541 613.666 756.698 596.833 738.19 592.426L662.084 574.306C651.535 571.794 640.665 576.992 635.997 586.78L613 635L600 705V1010L626 1031H759.22C765.038 1031 769.628 1026.05 769.192 1020.25L760 898L768.903 632.68Z" fill="#E4EFF4"/>
<path d="M431.096 632.68C430.458 613.666 443.301 596.833 461.809 592.426L537.915 574.306C548.464 571.794 559.334 576.992 564.002 586.78L587 635L600 705V1010L574 1031H440.78C434.962 1031 430.372 1026.05 430.808 1020.25L440 898L431.096 632.68Z" fill="#D2E1E8"/>
<path d="M637 721H737L727 814.095L687 836L647 814.095L637 721Z" fill="#BFD5DF"/>
<rect x="632" y="711" width="110" height="20" fill="#3E5C78"/>
<rect x="562" y="495" width="76" height="115" rx="37.911" fill="#EBBAAA"/>
<path d="M610 641L638 552L674 573L651 668L610 641Z" fill="#3E5C78"/>
<path d="M590 641L562 552L526 573L549 668L590 641Z" fill="#3E5C78"/>
<path opacity="0.5" d="M750 430C772.091 430 790 412.092 790 390C790 367.909 772.091 350 750 350C727.908 350 710 367.909 710 390C710 412.092 727.908 430 750 430Z" fill="#C99584"/>
<path opacity="0.5" d="M450 430C427.908 430 410 412.092 410 390C410 367.909 427.908 350 450 350C472.091 350 490 367.909 490 390C490 412.092 472.091 430 450 430Z" fill="#C99584"/>
<path d="M450 272C450 189.157 517.157 122 600 122C682.843 122 750 189.157 750 272V471.01C750 494.844 733.177 515.365 709.806 520.039L634.283 535.143C611.652 539.67 588.348 539.67 565.717 535.143L490.194 520.039C466.823 515.365 450 494.844 450 471.01V272Z" fill="#F4D5CC"/>
<path d="M560 468C560 468 574.667 476.5 600 476.5C625.333 476.5 640 468 640 468" stroke="#C99584" stroke-width="15.3993" stroke-linecap="round"/>
<path d="M619 335C619 333.343 620.343 332 622 332H716C717.657 332 719 333.343 719 335V363C719 371.284 712.284 378 704 378H634C625.716 378 619 371.284 619 363V335Z" stroke="#393939" stroke-width="12"/>
<rect x="575" y="340" width="50" height="10" fill="#393939"/>
<path d="M479 335C479 333.343 480.343 332 482 332H576C577.657 332 579 333.343 579 335V362C579 370.284 572.284 377 564 377H494C485.716 377 479 370.284 479 362V335Z" stroke="#393939" stroke-width="12"/>
<path d="M754.991 256.486C755.224 250.216 750.683 245 745 245C739.103 245 734.488 250.595 735.046 257.07L744.461 366.773C744.619 368.607 746.012 370 747.674 370C749.411 370 750.831 368.494 750.906 366.589L754.991 256.486Z" fill="#6E6C6C"/>
<path d="M445.009 256.486C444.776 250.216 449.317 245 455 245C460.896 245 465.512 250.595 464.954 257.07L455.539 366.773C455.381 368.607 453.988 370 452.326 370C450.589 370 449.169 368.494 449.094 366.589L445.009 256.486Z" fill="#6E6C6C"/>
<path d="M595.325 208.179C671.473 208.179 732.36 207.971 735.5 263.625C748.345 281.724 756.39 279.71 759.39 246.772C768.995 141.285 663.157 81.5177 589.861 105.126C589.861 105.126 519.168 208.179 595.325 208.179Z" fill="#393939"/>
<path d="M604.675 208.179C528.527 208.179 467.639 207.971 464.5 263.625C451.654 281.724 443.61 279.71 440.61 246.772C431.005 141.285 536.843 81.5177 610.139 105.126C610.139 105.126 680.832 208.179 604.675 208.179Z" fill="#393939"/>
<path d="M556.937 222.402V206.24L530 222.402V189L680.848 197.62L662.531 220.247L647.446 215.937L628.051 222.402L620.509 210.55L601.114 222.402V206.24L574.177 222.402V206.24L556.937 222.402Z" fill="#393939"/>
<path d="M674 350H654" stroke="black" stroke-width="18" stroke-linecap="round"/>
<path d="M544 350H524" stroke="black" stroke-width="18" stroke-linecap="round"/>
<path d="M644 290L704 293.5" stroke="#393939" stroke-width="18" stroke-linecap="round"/>
<path d="M554 290L494 293.5" stroke="#393939" stroke-width="18" stroke-linecap="round"/>
<path d="M600 380C590 395 580 430 610 430" stroke="#EBBAAA" stroke-width="17"/>
<path d="M817.416 1522.29C817.615 1499.49 814.489 1495.55 794.539 1486.23C774.589 1476.91 755.797 1463.95 721.282 1448.59C721.282 1448.59 716.739 1447.74 709.344 1451.71C703.034 1455.1 694.928 1463.42 682.715 1463.32C669.452 1463.2 657.633 1460.41 650.29 1456.58C647.117 1447.94 640.08 1447.88 640.08 1447.88C640.08 1447.88 630.171 1466.62 630.007 1485.46C629.843 1504.29 629.86 1520.66 629.86 1520.66L817.416 1522.29Z" fill="#161616"/>
<path d="M755.502 1487.48C750.003 1491.46 743.003 1496.93 726.503 1495.43C700.438 1493.08 695.502 1477.54 679.002 1477.54C664.288 1477.54 656.503 1490.46 650.503 1490.46" stroke="white" stroke-width="7"/>
<path d="M727.381 1447.46C725.216 1452.3 725.216 1458.22 725.216 1461.99L743.622 1453.92L739.291 1469.52L756.074 1464.14V1479.74L769.066 1472.75V1486.2" stroke="white" stroke-width="5.41368" stroke-linecap="round" stroke-linejoin="round"/>
<path d="M809.867 1487.97C803.746 1485.77 797.264 1484.1 784.837 1481.3L790.119 1496.41L789.968 1513.63L825.341 1513.94C826.784 1513.95 829.364 1512.04 828.132 1504.28C826.592 1494.58 818.564 1491.11 809.867 1487.97Z" fill="#393A40"/>
<path d="M654.003 1489.47C649.532 1484.76 635.502 1479.53 630.502 1481.02L629.503 1498.91L629.504 1513.93C658.269 1513.93 660.504 1513.93 660.504 1513.93C658.964 1504.23 662.503 1498.41 654.003 1489.47Z" fill="#393A40"/>
<path d="M629.083 1522.83L629.294 1509.54L707.097 1512.76L788.9 1512L828.446 1509.12L829.412 1517.79C829.959 1522.68 826.314 1527.05 821.397 1527.39L788.702 1529.63L633.347 1527.23C630.954 1527.19 629.045 1525.22 629.083 1522.83Z" fill="#D3D5E0"/>
<path d="M631.004 1513.82L706.504 1516.31L789.004 1516.31L826.504 1513.83" stroke="black" stroke-width="2"/>
<path d="M381.685 1522.29C381.486 1499.49 384.613 1495.55 404.563 1486.23C424.513 1476.91 443.305 1463.95 477.82 1448.59C477.82 1448.59 482.363 1447.74 489.757 1451.71C496.068 1455.1 504.173 1463.42 516.387 1463.32C529.649 1463.2 541.468 1460.41 548.811 1456.58C551.984 1447.94 559.022 1447.88 559.022 1447.88C559.022 1447.88 568.93 1466.62 569.095 1485.46C569.259 1504.29 569.241 1520.66 569.241 1520.66L381.685 1522.29Z" fill="#161616"/>
<path d="M443.599 1487.48C449.099 1491.46 456.099 1496.93 472.599 1495.43C498.664 1493.08 503.6 1477.54 520.1 1477.54C534.814 1477.54 542.599 1490.46 548.599 1490.46" stroke="white" stroke-width="7"/>
<path d="M471.72 1447.46C473.886 1452.3 473.886 1458.22 473.886 1461.99L455.479 1453.92L459.81 1469.52L443.028 1464.14V1479.74L430.035 1472.75V1486.2" stroke="white" stroke-width="5.41368" stroke-linecap="round" stroke-linejoin="round"/>
<path d="M389.235 1487.97C395.355 1485.77 401.837 1484.1 414.265 1481.3L408.983 1496.41L409.133 1513.63L373.761 1513.94C372.317 1513.95 369.738 1512.04 370.97 1504.28C372.509 1494.58 380.537 1491.11 389.235 1487.97Z" fill="#393A40"/>
<path d="M545.099 1489.47C549.57 1484.76 563.6 1479.53 568.599 1481.02L569.598 1498.91L569.598 1513.93C540.832 1513.93 538.598 1513.93 538.598 1513.93C540.137 1504.23 536.599 1498.41 545.099 1489.47Z" fill="#393A40"/>
<path d="M570.018 1522.83L569.807 1509.54L492.004 1512.76L410.202 1512L370.655 1509.12L369.689 1517.79C369.143 1522.68 372.788 1527.05 377.704 1527.39L410.399 1529.63L565.755 1527.23C568.147 1527.19 570.056 1525.22 570.018 1522.83Z" fill="#D3D5E0"/>
<path d="M568.098 1513.82L492.598 1516.31L410.098 1516.31L372.598 1513.83" stroke="black" stroke-width="2"/>
</svg>
