<svg width="1200" height="1600" viewBox="0 0 1200 1600" fill="none" xmlns="http://www.w3.org/2000/svg">
<path d="M576.143 1076.7C646.05 1076.7 702.72 1052.91 702.72 1023.57C702.72 994.219 646.05 970.429 576.143 970.429C506.237 970.429 449.566 994.219 449.566 1023.57C449.566 1052.91 506.237 1076.7 576.143 1076.7Z" fill="#2D3343"/>
<path d="M657.227 1225.88L673.667 1389.54" stroke="#EBBAAA" stroke-width="60" stroke-linecap="round" stroke-linejoin="bevel"/>
<path d="M524.613 1225.39V1375.94" stroke="#EBBAAA" stroke-width="60" stroke-linecap="round" stroke-linejoin="bevel"/>
<path d="M434.738 964.107H582.698L571.738 1307.47L559.81 1400.12L485.5 1392.23L453.757 1259.11L434.738 964.107Z" fill="#2D3343"/>
<path d="M581.289 969.956H745.504L729.883 1275.23L709 1410.23L634.85 1393.44L621.058 1312.81L581.289 969.956Z" fill="#2D3343"/>
<g filter="url(#filter0_i)">
<path fill-rule="evenodd" clip-rule="evenodd" d="M591.871 619.835C632.733 619.835 665.857 594.868 665.857 564.069C665.857 562.152 665.729 560.259 665.479 558.392L646.778 554.751C644.328 554.273 641.837 554.033 639.341 554.033H527.255C524.684 554.033 522.12 554.288 519.6 554.794L518.871 554.94C518.222 557.91 517.885 560.96 517.885 564.069C517.885 594.868 551.01 619.835 591.871 619.835Z" fill="#EBBAAA"/>
</g>
<path d="M418.977 705.506C385.102 767.904 357.324 932.757 385.102 949.846" stroke="#EBBAAA" stroke-width="77.9647" stroke-linecap="round" stroke-linejoin="bevel"/>
<path d="M755.537 680.641C803.99 761.455 821.531 911.295 803.911 956.883" stroke="#EBBAAA" stroke-width="77.9647" stroke-linecap="round" stroke-linejoin="bevel"/>
<path d="M416.084 613.605C416.084 589.983 471.106 565.874 509.568 554.409L559.782 538.734C566.775 538.526 614.822 540.406 621.749 541.308L699.741 565.874C736.697 570.681 793.742 585.715 790.02 620.642L750.007 774.236L753.694 971.96C753.772 973.784 665.354 984.116 663.416 984.023L516.512 975.257L436.918 971.89C435.056 971.797 434.092 966.675 434.247 964.924L444.939 755.721L416.084 613.605Z" fill="#EBBAAA"/>
<path d="M780.94 589.481C771.111 580.233 738.739 570.884 723.781 567.366C733.219 685.98 752.948 926.224 756.367 938.286C760.641 953.364 854.125 959.396 862.672 953.364C871.219 947.333 880.834 890.539 878.697 859.378C876.561 828.216 793.226 601.041 780.94 589.481Z" fill="#232935"/>
<path d="M412.794 591.978C421.995 582.737 452.299 573.396 466.301 569.881C457.466 688.403 438.997 928.461 435.797 940.514C431.796 955.58 344.285 961.607 336.284 955.58C328.283 949.553 319.282 892.803 321.283 861.666C323.283 830.529 401.293 603.529 412.794 591.978Z" fill="#232935"/>
<path d="M578.479 630.191C573.137 615.616 575.808 595.511 575.808 595.511H553.5L522.922 550.277C489.624 555.806 488.2 557.816 464.161 567.868C435.485 579.86 441.191 620.139 436.917 674.923L431.041 974.976L510.102 986.536L562.987 987.038L586.491 646.777C586.491 646.777 583.821 644.766 578.479 630.191Z" fill="#232935"/>
<path d="M417.24 628.382L393.479 693.162M408.345 693.289L400.597 714.413" stroke="white" stroke-opacity="0.25" stroke-width="3" stroke-linecap="round"/>
<path d="M598.78 629.689C584.891 619.135 593.507 615.944 596 607.734L594.507 599.533L631.5 583.734L662.884 553.294C662.884 553.294 710.427 559.325 726.453 567.367C742.479 575.408 752.094 663.364 752.094 663.364L759.573 976.485L718.974 987.039H562.455C561.031 881.828 567.835 655.185 581.686 648.286C599.849 639.239 601.986 632.125 598.78 629.689Z" fill="#232935"/>
<path d="M568.999 740.734C570.599 723.534 573.333 687.234 574.499 671.234C575.5 667.734 578.1 659.734 580.5 655.734C583.5 650.734 595.5 642.234 593 647.734C590.5 653.234 592 720.734 589.5 744.234C587 767.734 586.5 896.234 586.5 912.234V986.234H562.499C562.833 972.568 563.299 938.634 562.499 912.234C561.499 879.234 566.999 762.234 568.999 740.734Z" fill="#1E232F"/>
<path d="M589 604.736C592.675 593.3 636.5 574.736 640 540.236C640 540.236 668.885 527.293 676.5 540.236C684.115 553.178 694 572.736 671.5 600.736C656.471 619.439 598 645.234 587 654.734C576 664.234 574.501 671.734 574.501 671.734C574.501 671.734 568.5 648.734 595.001 639.736C604 630.236 582.056 626.348 589 604.736Z" fill="#191D27"/>
<path d="M544.5 678.735V597.235C555.7 591.235 558.167 599.735 558 604.735V732.735L544.5 718.735V678.735Z" fill="white" fill-opacity="0.15"/>
<path d="M557 587.236C549.466 577.184 533 550.278 548.622 541.734C548.622 541.734 517.5 522.734 498.5 536.734C493.351 540.529 479.5 525.734 453.5 545.734C439.093 556.817 432.5 581.734 454.5 573.234C464.894 577.871 473.628 580.234 503.5 580.234C543.078 580.234 586.698 649.611 585.499 646.234C574.498 615.234 576.344 606.236 576.344 595.01C567.262 592.999 564.535 597.288 557 587.236Z" fill="#1E232F"/>
<ellipse cx="465.614" cy="386.889" rx="48.6139" ry="47.4923" fill="#EBBAAA"/>
<ellipse cx="718.439" cy="390.571" rx="48.6139" ry="47.4923" fill="#EBBAAA"/>
<path d="M448.315 290.053C450.529 250.291 479.559 217.157 518.686 209.737L569.47 200.105C589.516 196.304 610.119 196.557 630.065 200.851L730.023 222.368L736.475 290.053V417.039C736.475 497.754 670.489 562.892 589.781 561.849C509.871 560.815 445.902 495.247 446.842 415.336L448.315 290.053Z" fill="#F4D4CA"/>
<path d="M617.715 469.578C592.731 475.658 582.554 474.601 570.834 469.579" stroke="#C99584" stroke-width="15" stroke-linecap="round"/>
<path d="M506.498 325.785L556.065 325.785" stroke="#272727" stroke-opacity="0.88" stroke-width="20" stroke-linecap="round"/>
<path d="M627.643 324.111L675.606 324.111" stroke="#272727" stroke-opacity="0.88" stroke-width="20" stroke-linecap="round"/>
<path d="M627.643 371.367C627.643 371.367 649.828 368.262 667.408 374.837" stroke="black" stroke-width="16" stroke-linecap="round"/>
<path d="M554.292 372.646C554.292 372.646 531.259 369.485 512.95 376.358" stroke="black" stroke-width="16" stroke-linecap="round"/>
<path d="M440.78 240.181C440.78 240.181 487.203 233.668 468.162 243.529C449.122 253.39 481.122 266.552 475.278 280.364C469.434 294.177 457.504 296.48 452.675 305.479C448.602 313.07 448.872 347.483 449.056 358.075C449.086 359.781 447.713 361.188 446.008 361.188C444.639 361.188 443.446 360.28 443.12 358.951C441.266 351.386 435.514 325.684 435.514 297.945C435.513 264.877 440.78 240.181 440.78 240.181Z" fill="#5C5F60"/>
<path d="M737.556 228.46C737.556 228.46 692.477 232.984 711.768 242.992C731.059 253 698.638 266.358 704.559 280.377C710.479 294.396 722.566 296.733 727.459 305.867C731.587 313.572 731.312 348.51 731.125 359.254C731.095 360.982 732.485 362.407 734.213 362.407C735.6 362.407 736.809 361.486 737.138 360.139C739.016 352.466 744.845 326.377 744.846 298.22C744.847 264.658 737.556 228.46 737.556 228.46Z" fill="#5C5F60"/>
<path d="M440.536 241.337C457.278 161.068 520.484 128 598.341 128C676.198 128 718.056 183.253 726.009 198.322C733.963 213.392 739.712 230.971 737.732 235.576C735.752 240.18 713.035 237.989 680.804 232.227C648.573 226.466 633.504 225.111 607.551 235.576C581.599 246.041 550.624 252.319 529.276 241.337C507.928 230.355 491.312 225.112 481.139 235.576C470.966 246.04 438.541 257.478 440.536 241.337Z" fill="#272727"/>
<path d="M612.064 236.689C638.516 232.45 649.972 227.222 671.152 213.898C666.191 200.738 645.742 179.282 642.161 199.647C638.58 220.012 631.338 224.698 612.064 236.689Z" fill="#272727"/>
<path d="M557.739 247.715C587.542 245.706 610.62 219.809 618.433 207.112C587.458 178.648 529.693 223.018 527.182 235.576C525.173 245.622 514.066 247.854 508.764 247.715C512.671 248.552 527.935 249.724 557.739 247.715Z" fill="#272727"/>
<path d="M587.285 387.917C582.68 397.832 565.178 431.028 600.339 431.028" stroke="#EBBAAA" stroke-width="17"/>
<rect x="641" y="671.734" width="65" height="16" fill="#C4C4C4" fill-opacity="0.09"/>
<ellipse cx="617.708" cy="613.321" rx="9.37921" ry="5.24067" transform="rotate(-23.36 617.708 613.321)" fill="black" fill-opacity="0.76"/>
<ellipse cx="557.707" cy="600.321" rx="9.37921" ry="5.24067" transform="rotate(33.9612 557.707 600.321)" fill="black" fill-opacity="0.76"/>
<path d="M561.5 602.234C569.666 606.734 582.8 616.734 570 620.734C557.2 624.734 556 610.068 557 602.234" stroke="#D9D9D9" stroke-width="2" stroke-linecap="round"/>
<path d="M618.449 615.645C619.444 624.916 618.78 641.41 608.164 633.216C597.549 625.021 608.878 615.63 615.869 611.958" stroke="#D9D9D9" stroke-width="2" stroke-linecap="round"/>
<path d="M606.013 391L603.813 363.394C603.813 363.394 614.69 347.877 655.642 343.045C696.594 338.213 714.813 356.734 714.813 356.734L711.266 392.525C709.3 412.355 692.35 427.299 672.429 426.763L642.871 425.968C623.453 425.445 607.556 410.363 606.013 391Z" fill="white" fill-opacity="0.22" stroke="#666666"/>
<path d="M605.313 384.734L604.02 367.445C603.825 364.847 604.656 362.279 606.638 360.587C612.396 355.674 627.117 345.697 654.761 342.122C682.621 338.519 702.562 347.956 710.852 352.948C713.619 354.614 715.015 357.726 714.835 360.951L713.784 379.847" stroke="black" stroke-width="5"/>
<path d="M569.933 389.618L571.313 364.613C571.313 364.613 561.559 348.598 521.331 344.178C481.102 339.757 462.811 358.234 462.811 358.234L466.806 392.84C469.078 412.517 486.085 427.149 505.881 426.458L533.316 425.5C552.967 424.814 568.849 409.251 569.933 389.618Z" fill="white" fill-opacity="0.22" stroke="#666666"/>
<path d="M570.813 385.734L572.146 367.836C572.341 365.211 571.492 362.62 569.471 360.934C563.719 356.132 549.204 346.539 522.188 343.265C494.906 339.958 475.447 349.305 467.303 354.282C464.547 355.967 463.179 359.088 463.385 362.311L464.558 380.752" stroke="black" stroke-width="5"/>
<path d="M571.813 370.235C582.313 365.235 591.813 363.235 604.313 370.235" stroke="black" stroke-width="7"/>
<path d="M371.267 1450.73C369.243 1445.92 370.699 1439.32 371.833 1437.53C372.966 1435.73 510.552 1427.47 510.552 1427.47C533.388 1425.68 578.653 1418.14 581.781 1431.13C585.651 1447.19 585.474 1450.82 582.836 1463.25C578.616 1467.4 535.926 1471.03 522.085 1467.92C522.085 1460.66 521.007 1456 521.007 1456C521.007 1456 513.292 1460.7 504.24 1462.74C485.778 1466.88 482.242 1471.03 425.058 1471.03C379.194 1466.88 375.796 1461.5 371.267 1450.73Z" fill="#131313"/>
<path d="M520.066 1380.87C531.589 1381.01 549.209 1377.35 558.717 1364.48C559.49 1363.44 561.039 1363.27 561.943 1364.21C570.762 1373.32 565.109 1368.11 568.578 1383.47C571.979 1398.53 574.851 1396.38 578.253 1410.37C580.607 1420.06 588.235 1442.66 578.253 1442.66H532.726C521.954 1442.66 507.406 1454.69 471.537 1458.07C411.994 1463.68 397.444 1456 385.555 1452.37C358.505 1444.12 372.232 1425.24 385.555 1419.21C405.072 1410.37 433.044 1403.73 447.272 1396.41C458.351 1390.71 462.156 1388.94 467.844 1382.94C475.319 1375.06 478.361 1370.1 480.688 1366.24C481.59 1364.75 483.946 1365.1 484.868 1366.59C490.964 1376.4 509.362 1380.73 520.066 1380.87Z" fill="#2D2B30"/>
<path d="M484.21 1371.02C486.543 1376.07 495.901 1381.72 495.901 1385.65L472.896 1377.76L484.21 1393.82L462.653 1387.9L472.896 1401.59L448.654 1396.87L462.653 1409.88" stroke="black" stroke-width="5.41368" stroke-linecap="round" stroke-linejoin="round"/>
<path d="M392.443 1436.65C402.496 1439.57 417.834 1443.74 440.906 1439.09" stroke="#59555F" stroke-width="7" stroke-linecap="round"/>
<path d="M469.227 1409.37C479.776 1400.04 487.621 1395.38 496.061 1385.01C500.633 1385.01 506.668 1385.53 524.075 1385.53C546.757 1385.53 552.77 1376.2 562.792 1365.32C570.405 1369.99 566.485 1379.83 571.76 1393.3C575.98 1404.08 583.892 1420.25 583.892 1439.94C580.2 1446.15 543.803 1443.05 532.198 1443.05C529.56 1430.61 508.991 1420.25 499.832 1417.66C491.794 1415.38 482.414 1414.55 469.227 1409.37Z" fill="#1D1D20"/>
<path d="M824.294 1450.73C826.317 1445.92 824.861 1439.32 823.728 1437.53C822.595 1435.73 685.009 1427.47 685.009 1427.47C662.173 1425.68 616.908 1418.14 613.779 1431.13C609.91 1447.19 610.087 1450.82 612.724 1463.25C616.944 1467.4 659.634 1471.03 673.476 1467.92C673.476 1460.66 674.553 1456 674.553 1456C674.553 1456 682.269 1460.7 691.321 1462.74C709.783 1466.88 713.318 1471.03 770.502 1471.03C816.366 1466.88 819.764 1461.5 824.294 1450.73Z" fill="#131313"/>
<path d="M675.495 1380.87C663.972 1381.01 646.351 1377.35 636.843 1364.48C636.07 1363.44 634.522 1363.27 633.617 1364.21C624.799 1373.32 630.451 1368.11 626.983 1383.47C623.581 1398.53 620.709 1396.38 617.308 1410.37C614.953 1420.06 607.326 1442.66 617.308 1442.66H662.835C673.606 1442.66 688.155 1454.69 724.024 1458.07C783.566 1463.68 798.117 1456 810.005 1452.37C837.056 1444.12 823.328 1425.24 810.005 1419.21C790.488 1410.37 762.517 1403.73 748.289 1396.41C737.21 1390.71 733.405 1388.94 727.717 1382.94C720.241 1375.06 717.199 1370.1 714.872 1366.24C713.97 1364.75 711.614 1365.1 710.693 1366.59C704.597 1376.4 686.199 1380.73 675.495 1380.87Z" fill="#2D2B30"/>
<path d="M711.351 1371.02C709.018 1376.07 699.66 1381.72 699.66 1385.65L722.664 1377.76L711.351 1393.82L732.908 1387.9L722.664 1401.59L746.907 1396.87L732.908 1409.88" stroke="black" stroke-width="5.41368" stroke-linecap="round" stroke-linejoin="round"/>
<path d="M803.117 1436.65C793.065 1439.57 777.727 1443.74 754.654 1439.09" stroke="#59555F" stroke-width="7" stroke-linecap="round"/>
<path d="M726.334 1409.37C715.784 1400.04 707.939 1395.38 699.499 1385.01C694.928 1385.01 688.893 1385.53 671.486 1385.53C648.803 1385.53 642.791 1376.2 632.768 1365.32C625.155 1369.99 629.076 1379.83 623.801 1393.3C619.581 1404.08 611.669 1420.25 611.669 1439.94C615.361 1446.15 651.758 1443.05 663.363 1443.05C666 1430.61 686.57 1420.25 695.728 1417.66C703.767 1415.38 713.147 1414.55 726.334 1409.37Z" fill="#1D1D20"/>
<defs>
<filter id="filter0_i" x="517.885" y="554.033" width="147.973" height="65.8019" filterUnits="userSpaceOnUse" color-interpolation-filters="sRGB">
<feFlood flood-opacity="0" result="BackgroundImageFix"/>
<feBlend mode="normal" in="SourceGraphic" in2="BackgroundImageFix" result="shape"/>
<feColorMatrix in="SourceAlpha" type="matrix" values="0 0 0 0 0 0 0 0 0 0 0 0 0 0 0 0 0 0 127 0" result="hardAlpha"/>
<feOffset dy="-8.64643"/>
<feComposite in2="hardAlpha" operator="arithmetic" k2="-1" k3="1"/>
<feColorMatrix type="matrix" values="0 0 0 0 1 0 0 0 0 1 0 0 0 0 1 0 0 0 1 0"/>
<feBlend mode="normal" in2="shape" result="effect1_innerShadow"/>
</filter>
</defs>
</svg>
