<svg width="1200" height="1600" viewBox="0 0 1200 1600" fill="none" xmlns="http://www.w3.org/2000/svg">
<path d="M487.293 575.405C481.521 535.171 509.484 498.061 549.75 492.517L697.151 472.222C741.179 466.161 781.553 498.079 785.802 542.307C789.947 585.447 758.034 623.472 714.806 626.902L566.433 638.675C527.544 641.76 492.831 614.008 487.293 575.405Z" fill="#2F200F"/>
<path d="M672.538 1043.93C684.677 1098.31 683.022 1304.11 683.022 1403.98" stroke="#F6DDD6" stroke-width="60" stroke-linejoin="bevel"/>
<path d="M565.373 1038.31C553.234 1092.68 549.843 1328.88 565.373 1395.57" stroke="#F6DDD6" stroke-width="60" stroke-linejoin="bevel"/>
<path d="M796.947 1314.8L746.947 911.729H690.947C674.947 1040.54 688.147 1330.59 708.947 1335.57C729.747 1340.56 790.281 1325.88 796.947 1314.8Z" fill="#C8CEE7"/>
<ellipse opacity="0.44" rx="13.5584" ry="13.8265" transform="matrix(-0.194294 0.980943 -0.982446 -0.186545 689.637 1049.88)" fill="white"/>
<ellipse opacity="0.44" rx="13.5584" ry="13.8265" transform="matrix(-0.194294 0.980943 -0.982446 -0.186545 697.8 1110.92)" fill="white"/>
<path d="M430.842 1291.62L502.035 829.479L694.631 911.728C710.631 1033.14 690.049 1343.18 668.742 1344.46C538.094 1352.31 538.765 1355.29 480.843 1337.02C432.14 1321.66 433.887 1296.39 430.842 1291.62Z" fill="#BCC5E9"/>
<path d="M715.12 629.5L769.843 855.92C769.843 855.92 769.843 866.201 763.343 871.586C756.843 876.971 747.697 912.203 747.697 912.203C747.697 912.203 637.843 945.019 612.843 945.019C587.843 945.019 562.843 940.123 562.843 940.123L517.911 912.203C517.911 912.203 488.343 885.783 482.343 877.46C476.343 869.138 478.843 853.472 478.843 853.472L485.735 734.28L526.622 629.5L600.843 639.292L715.12 629.5Z" fill="#BCC5E8"/>
<path d="M627.953 965.468L448.802 908.948C446.292 908.157 444.826 905.555 445.448 902.999L449.343 886.98L634.457 944.021V960.699C634.457 964.078 631.175 966.484 627.953 965.468Z" fill="white"/>
<path d="M621.103 1031.06L630.213 939.469C630.45 937.085 632.367 935.224 634.773 935.04L646.087 934.178L642.989 1033.82L626.979 1036.51C623.704 1037.06 620.776 1034.34 621.103 1031.06Z" fill="white"/>
<path d="M676.539 1020.25L647.465 950.343C646.543 948.125 644.173 946.878 641.821 947.374L633.149 949.201L660.031 1028.62L672.504 1027.14C675.801 1026.75 677.813 1023.32 676.539 1020.25Z" fill="white"/>
<path d="M653.925 965.826L770.262 921.63C772.374 920.828 773.686 918.709 773.462 916.46L771.841 900.199L640.841 939.853L647.343 962.53C648.149 965.343 651.189 966.865 653.925 965.826Z" fill="white"/>
<rect x="572.842" y="539.606" width="89.3252" height="114.555" rx="44.6626" fill="#F1D3CB"/>
<path d="M454.348 302.559C454.348 222.872 524.094 158.274 610.131 158.274C696.167 158.274 765.914 222.872 765.914 302.559L755.914 446.068C743.351 539.155 677.972 590.353 610.131 590.353C542.29 590.353 473.561 528.295 464.348 446.068L454.348 302.559Z" fill="#F6DDD6"/>
<path fill-rule="evenodd" clip-rule="evenodd" d="M570.845 486.02C570.843 486.182 570.842 486.346 570.842 486.509V498.634C570.842 519.672 587.897 536.727 608.936 536.727C629.974 536.727 647.029 519.672 647.029 498.634V486.509C647.029 486.346 647.028 486.182 647.026 486.02H570.845Z" fill="#393939"/>
<mask id="mask0" mask-type="alpha" maskUnits="userSpaceOnUse" x="570" y="479" width="78" height="58">
<path fill-rule="evenodd" clip-rule="evenodd" d="M571.461 479.635C571.055 481.865 570.842 484.162 570.842 486.509V498.634C570.842 519.672 587.897 536.727 608.936 536.727C629.974 536.727 647.029 519.672 647.029 498.634V486.509C647.029 484.162 646.817 481.865 646.41 479.635H571.461Z" fill="#434343"/>
</mask>
<g mask="url(#mask0)">
<ellipse cx="608.935" cy="536.442" rx="22.9723" ry="12.2496" fill="#FF6C6C"/>
<rect x="570.842" y="486.02" width="76.1865" height="15.3832" fill="white"/>
</g>
<path d="M512.167 353.596C512.167 353.596 525.787 348.326 541.843 346.94C557.899 345.554 571.252 348.496 571.252 348.496" stroke="#46413D" stroke-width="12" stroke-linecap="round"/>
<path d="M646.921 346.453C646.921 346.453 660.654 344.532 675.645 346.949C690.637 349.366 702.09 355.346 702.09 355.346" stroke="#46413D" stroke-width="12" stroke-linecap="round"/>
<path d="M529.496 388.397L556.432 384.228" stroke="black" stroke-width="10" stroke-linecap="round"/>
<path d="M658.963 381.674L685.9 385.844" stroke="black" stroke-width="10" stroke-linecap="round"/>
<path d="M551.331 384.227L550.286 402.667" stroke="black" stroke-width="24" stroke-linecap="round"/>
<path d="M665.158 381.673L664.113 400.112" stroke="black" stroke-width="24" stroke-linecap="round"/>
<path d="M614.241 368.104C612.213 382.575 575.518 453.597 617.241 453.597" stroke="#EBBAAA" stroke-width="17"/>
<path d="M717.606 451.752C717.174 458.323 708.808 468.033 699.562 463.656C690.315 459.279 683.691 442.473 684.122 435.902C684.554 429.331 693.268 414.334 702.514 418.711C711.76 423.088 718.037 445.181 717.606 451.752Z" fill="#F2CACA"/>
<path d="M501.47 459.806C501.901 466.377 510.268 476.086 519.514 471.71C528.76 467.333 535.385 450.526 534.953 443.956C534.522 437.385 525.808 422.388 516.562 426.764C507.316 431.141 501.038 453.235 501.47 459.806Z" fill="#F2CACA"/>
<path d="M501.842 346.476C526.842 320.286 532.842 219.438 605.842 219.438C618.552 219.438 643.342 152.369 605.842 143.068C523.842 143.068 470.842 199.856 452.843 244.078C415.82 335.034 356.42 420.21 380.42 526.115C390.163 569.105 476.742 634.247 452.843 663.707C428.944 693.167 495.366 632.246 534.366 596.019C501.842 504.27 476.842 372.666 501.842 346.476Z" fill="#3D2C18"/>
<path d="M593.342 158.734C571.842 162.161 568.543 162.65 550.842 171.462" stroke="#6E5232" stroke-width="10" stroke-linecap="round"/>
<path d="M595.342 176.847C580.842 177.826 574.842 180.764 564.342 187.128" stroke="#6E5232" stroke-width="10" stroke-linecap="round"/>
<path d="M495.086 616.831C508.217 617.461 526.604 602.27 534.156 594.596C532.119 620.513 513.7 630.058 505.656 634.636C494.947 640.731 489.802 662.253 482.778 671.314C480.944 666.732 462.337 647.623 465.949 633.413C470.465 615.651 478.672 616.044 495.086 616.831Z" fill="#3D2C18"/>
<path d="M498.343 566.532C487.843 546.316 489.824 509.664 486.843 489.672C508.704 518.44 511.443 547.296 522.809 561.147C553.343 598.353 523.871 625.36 528.343 645.839C516.809 630.663 513.843 620.872 513.843 599.821C513.843 571.698 511.189 591.265 498.343 566.532Z" fill="#3D2C18"/>
<path d="M471.47 594.031C484.601 594.661 502.988 579.47 510.54 571.796C508.503 597.713 510.417 656.9 494.403 643.056C478.388 629.213 450.345 633.063 443.321 642.124C441.487 637.542 438.72 624.824 442.333 610.614C446.849 592.851 455.056 593.244 471.47 594.031Z" fill="#3D2C18"/>
<path d="M624.335 227.112C697.335 227.112 673.092 262.8 749.847 301.585C774.847 345.399 714.57 527.382 759.75 586.006C777.096 608.513 783.567 620.133 784.957 625.908C782.073 627.083 779.367 625.998 776.335 629.391C776.335 629.391 787.188 635.175 784.957 625.908C788.732 624.371 792.813 618.965 798.335 594.598C808.63 549.17 837.395 577.085 835.944 522.802C834.011 450.536 797.477 296.019 776.335 244.078C758.335 199.856 706.335 143.068 624.335 143.068C582.342 151.88 611.626 227.112 624.335 227.112Z" fill="#3D2C18"/>
<path fill-rule="evenodd" clip-rule="evenodd" d="M751.789 379.387C752.717 395.082 749.636 415.095 746.339 436.512C745.348 442.95 744.337 449.514 743.41 456.127C743.843 456.14 744.278 456.146 744.715 456.146C767.691 456.146 786.316 438.838 786.316 417.488C786.316 398.379 771.395 382.508 751.789 379.387Z" fill="#EBBAAA"/>
<ellipse cx="763.408" cy="443.381" rx="10.4328" ry="10.2148" fill="white"/>
<path d="M781.83 558.122C784.973 536.138 772.504 492.375 765.877 473.242C792.695 497.661 799.232 536.92 802.516 554.395C806.889 577.661 818.805 625.829 826.988 645.177C821.831 644.619 807.959 639.087 793.727 621.423C775.937 599.343 777.901 585.603 781.83 558.122Z" fill="#3D2C18"/>
<path d="M786.923 552.577C772.859 534.555 768.033 498.157 761.406 479.024C788.224 503.443 806.823 527.939 820.562 539.547C857.469 570.728 822.904 605.91 831.087 625.259C816.939 612.377 812.211 603.273 808.32 582.57C803.122 554.911 804.129 574.626 786.923 552.577Z" fill="#3D2C18"/>
<path d="M753.133 580.218C756.276 558.233 759.76 542.114 753.133 522.981C779.951 547.401 826.482 564.275 808.925 580.527C791.367 596.779 790.107 647.924 798.291 667.273C793.134 666.715 779.262 661.182 765.03 643.518C747.24 621.438 749.204 607.698 753.133 580.218Z" fill="#3D2C18"/>
<path d="M739.039 281.694C748.728 301.764 783.673 331.656 799.934 344.094C763.83 338.081 747.365 362.994 692.218 311.403C637.07 259.811 637.373 236.22 619.69 224.438C624.315 222.135 671.829 228.035 693.625 235.159C720.871 244.065 726.927 256.608 739.039 281.694Z" fill="#3D2C18"/>
<path d="M491.546 679.023C479.346 699.757 415.843 793.89 456.843 901.592L593.506 698.904" stroke="#F6DDD6" stroke-width="74" stroke-linecap="round" stroke-linejoin="bevel"/>
<path d="M495.644 612.823C536.305 605.271 573.502 600.787 593.308 602.125L512.395 747.252C465.27 757.951 422.654 757.059 401.77 747.252C399.77 715.134 454.982 620.375 495.644 612.823Z" fill="#BCC5E8"/>
<path d="M757.407 612.823C734.111 612.823 681.429 600.623 661.623 601.96L743.73 747.251C790.855 757.95 859.593 791.193 861.593 759.075C863.593 726.957 798.385 612.823 757.407 612.823Z" fill="#BCC5E8"/>
<path d="M587.757 639.576L654.669 632.209L632.096 739.82L587.757 666.425V639.576Z" fill="#F1D3CB"/>
<path d="M636.344 720.618C644.344 679.887 655.838 613.289 662.141 602.22C667.005 602.22 685.658 601.416 687.882 605.514C690.106 609.613 693.458 602.342 680.102 632.452C666.746 662.562 645.677 728.298 634.344 756.366L577.498 685.443L544.538 610.393C543.871 606.476 563.463 596.115 587.463 605.514C597.045 630.656 626.344 771.531 636.344 720.618Z" fill="white"/>
<path d="M565.587 573.421H611.184L604.184 698.906H575.587L565.587 573.421Z" fill="#0A0A08"/>
<ellipse cx="588.386" cy="575.357" rx="25.2483" ry="24.7208" fill="#878787"/>
<path d="M764.539 698.871C760.473 678.845 740.943 665.906 720.917 669.972C700.891 674.037 687.953 693.567 692.018 713.593L764.539 698.871ZM764.293 883.643L728.033 891.004L799.265 895.725L764.293 883.643ZM692.018 713.593L728.033 891.004L800.554 876.283L764.539 698.871L692.018 713.593ZM799.265 895.725C807.122 872.981 819.453 843.788 831.699 810.892C837.435 795.484 842.906 779.818 846.755 765.957C850.088 753.954 854.092 737.162 852.218 722.484L778.813 731.855C778.579 730.015 778.963 733.518 775.453 746.157C772.46 756.937 767.865 770.259 762.349 785.075C752.091 812.63 737.172 848.835 729.321 871.562L799.265 895.725Z" fill="#F6DDD6"/>
<path d="M762.073 613.802C738.776 613.802 806.637 676.659 786.831 677.997L781.623 700.677C828.747 711.376 859.593 788.91 861.593 756.792C863.593 724.674 809.799 627.792 762.073 613.802Z" fill="#BCC5E8"/>
<path d="M583.505 698.904L515.174 800.248" stroke="#F6DDD6" stroke-width="74" stroke-linecap="round" stroke-linejoin="bevel"/>
<path d="M643.431 1384.15C646.593 1377.13 651.019 1370.11 656.5 1363.3C657.133 1362.47 658.186 1362.27 659.03 1362.89C692.968 1392.61 702.35 1401.49 741.266 1419.53C741.477 1419.32 741.898 1419.32 742.32 1419.53C754.124 1423.86 776.258 1429.64 785.322 1435.83C787.009 1437.28 788.695 1446.74 785.322 1448.39C772.674 1455.2 718.232 1461.01 701.79 1453.17C689.986 1447.6 679.055 1439.3 668.937 1429.19C663.667 1424.03 657.133 1418.25 656.5 1429.39V1451.52C656.5 1452.34 655.657 1453.17 654.814 1453.17H648.068C647.014 1453.17 646.382 1452.34 646.382 1451.52V1435.83C640.585 1431.38 632.68 1408.91 643.431 1384.15Z" fill="#414141"/>
<path d="M603.623 1384.15C600.461 1377.13 596.034 1370.11 590.554 1363.3C589.921 1362.47 588.867 1362.27 588.024 1362.89C554.086 1392.61 544.703 1401.49 505.788 1419.53C505.577 1419.32 505.155 1419.32 504.734 1419.53C492.929 1423.86 470.796 1429.64 461.731 1435.83C460.045 1437.28 458.359 1446.74 461.731 1448.39C474.379 1455.2 528.821 1461.01 545.264 1453.17C557.068 1447.6 567.998 1439.3 578.117 1429.19C583.386 1424.03 589.921 1418.25 590.554 1429.39V1451.52C590.554 1452.34 591.397 1453.17 592.24 1453.17H598.985C600.039 1453.17 600.672 1452.34 600.672 1451.52V1435.83C606.469 1431.38 614.374 1408.91 603.623 1384.15Z" fill="#414141"/>
<g opacity="0.5">
<ellipse rx="13.5547" ry="13.8301" transform="matrix(-0.157131 0.987578 -0.988567 -0.150785 678.269 991.151)" fill="white"/>
<ellipse rx="13.5547" ry="13.8301" transform="matrix(-0.157131 0.987578 -0.988567 -0.150785 724.593 980.392)" fill="white"/>
<ellipse rx="13.5547" ry="13.8301" transform="matrix(-0.157131 0.987578 -0.988567 -0.150785 735.058 1041.1)" fill="white"/>
<ellipse rx="13.5547" ry="13.8301" transform="matrix(-0.157131 0.987578 -0.988567 -0.150785 745.522 1101.81)" fill="white"/>
<ellipse rx="13.5547" ry="13.8301" transform="matrix(-0.157131 0.987578 -0.988567 -0.150785 755.926 1162.89)" fill="white"/>
<ellipse rx="13.5547" ry="13.8301" transform="matrix(-0.157131 0.987578 -0.988567 -0.150785 766.372 1223.73)" fill="white"/>
<ellipse rx="13.5547" ry="13.8301" transform="matrix(-0.157131 0.987578 -0.988567 -0.150785 776.916 1283.95)" fill="white"/>
<ellipse rx="13.5551" ry="13.8297" transform="matrix(-0.194264 0.981196 -0.982203 -0.186575 708.845 1176.08)" fill="white"/>
<ellipse rx="13.5551" ry="13.8297" transform="matrix(-0.194264 0.981196 -0.982203 -0.186575 717.012 1237.13)" fill="white"/>
<ellipse rx="13.5551" ry="13.8297" transform="matrix(-0.194264 0.981196 -0.982203 -0.186575 725.18 1298.18)" fill="white"/>
<ellipse rx="13.5547" ry="13.8301" transform="matrix(-0.157131 0.987578 -0.988567 -0.150785 668.138 1054.82)" fill="white"/>
<ellipse rx="13.5547" ry="13.8301" transform="matrix(-0.157131 0.987578 -0.988567 -0.150785 657.951 1118.8)" fill="white"/>
<ellipse rx="13.5547" ry="13.8301" transform="matrix(-0.157131 0.987578 -0.988567 -0.150785 647.799 1182.61)" fill="white"/>
<ellipse rx="13.5547" ry="13.8301" transform="matrix(-0.157131 0.987578 -0.988567 -0.150785 637.745 1245.84)" fill="white"/>
<ellipse rx="13.5547" ry="13.8301" transform="matrix(-0.157131 0.987578 -0.988567 -0.150785 623.588 982.81)" fill="white"/>
<ellipse rx="13.5547" ry="13.8301" transform="matrix(-0.157131 0.987578 -0.988567 -0.150785 613.457 1046.48)" fill="white"/>
<ellipse rx="13.5547" ry="13.8301" transform="matrix(-0.157131 0.987578 -0.988567 -0.150785 603.267 1110.46)" fill="white"/>
<ellipse rx="13.5547" ry="13.8301" transform="matrix(-0.157131 0.987578 -0.988567 -0.150785 593.115 1174.27)" fill="white"/>
<ellipse rx="13.5547" ry="13.8301" transform="matrix(-0.157131 0.987578 -0.988567 -0.150785 583.064 1237.5)" fill="white"/>
<ellipse rx="13.5547" ry="13.8301" transform="matrix(-0.157131 0.987578 -0.988567 -0.150785 568.907 974.47)" fill="white"/>
<ellipse rx="13.5547" ry="13.8301" transform="matrix(-0.157131 0.987578 -0.988567 -0.150785 558.776 1038.14)" fill="white"/>
<ellipse rx="13.5547" ry="13.8301" transform="matrix(-0.157131 0.987578 -0.988567 -0.150785 548.583 1102.12)" fill="white"/>
<ellipse rx="13.5547" ry="13.8301" transform="matrix(-0.157131 0.987578 -0.988567 -0.150785 538.431 1165.93)" fill="white"/>
<ellipse rx="13.5547" ry="13.8301" transform="matrix(-0.157131 0.987578 -0.988567 -0.150785 528.383 1229.16)" fill="white"/>
<ellipse rx="13.5547" ry="13.8301" transform="matrix(-0.157131 0.987578 -0.988567 -0.150785 514.225 966.129)" fill="white"/>
<ellipse rx="13.5547" ry="13.8301" transform="matrix(-0.157131 0.987578 -0.988567 -0.150785 504.095 1029.8)" fill="white"/>
<ellipse rx="13.5547" ry="13.8301" transform="matrix(-0.157131 0.987578 -0.988567 -0.150785 493.9 1093.78)" fill="white"/>
<ellipse rx="13.5547" ry="13.8301" transform="matrix(-0.157131 0.987578 -0.988567 -0.150785 483.747 1157.59)" fill="white"/>
<ellipse rx="13.5547" ry="13.8301" transform="matrix(-0.157131 0.987578 -0.988567 -0.150785 473.702 1220.82)" fill="white"/>
<ellipse rx="13.5547" ry="13.8301" transform="matrix(-0.157131 0.987578 -0.988567 -0.150785 626.206 1309.52)" fill="white"/>
<ellipse rx="13.5547" ry="13.8301" transform="matrix(-0.157131 0.987578 -0.988567 -0.150785 571.525 1301.18)" fill="white"/>
<ellipse rx="13.5547" ry="13.8301" transform="matrix(-0.157131 0.987578 -0.988567 -0.150785 516.844 1292.84)" fill="white"/>
<ellipse rx="13.5547" ry="13.8301" transform="matrix(-0.157131 0.987578 -0.988567 -0.150785 462.163 1284.5)" fill="white"/>
<ellipse rx="13.5547" ry="13.8301" transform="matrix(-0.157131 0.987578 -0.988567 -0.150785 459.544 957.79)" fill="white"/>
<ellipse rx="13.5547" ry="13.8301" transform="matrix(-0.157131 0.987578 -0.988567 -0.150785 449.413 1021.46)" fill="white"/>
<ellipse rx="13.5547" ry="13.8301" transform="matrix(-0.157131 0.987578 -0.988567 -0.150785 439.216 1085.44)" fill="white"/>
<ellipse rx="13.5547" ry="13.8301" transform="matrix(-0.157131 0.987578 -0.988567 -0.150785 429.063 1149.25)" fill="white"/>
<ellipse rx="13.5547" ry="13.8301" transform="matrix(-0.157131 0.987578 -0.988567 -0.150785 419.021 1212.48)" fill="white"/>
<ellipse rx="13.5547" ry="13.8301" transform="matrix(-0.157131 0.987578 -0.988567 -0.150785 404.863 949.449)" fill="white"/>
<ellipse rx="13.5547" ry="13.8301" transform="matrix(-0.157131 0.987578 -0.988567 -0.150785 394.732 1013.12)" fill="white"/>
<ellipse rx="13.5547" ry="13.8301" transform="matrix(-0.157131 0.987578 -0.988567 -0.150785 384.532 1077.1)" fill="white"/>
<ellipse rx="13.5547" ry="13.8301" transform="matrix(-0.157131 0.987578 -0.988567 -0.150785 374.38 1140.91)" fill="white"/>
<ellipse rx="13.5547" ry="13.8301" transform="matrix(-0.157131 0.987578 -0.988567 -0.150785 364.34 1204.14)" fill="white"/>
</g>
</svg>
