<svg width="1200" height="1600" viewBox="0 0 1200 1600" fill="none" xmlns="http://www.w3.org/2000/svg">
<ellipse cx="598.601" cy="1078.09" rx="100.994" ry="36.1482" fill="#695959"/>
<path d="M666.103 1254.85V1422.86" stroke="#DCE1E9" stroke-width="54" stroke-linecap="round" stroke-linejoin="bevel"/>
<path d="M530.048 1254.85L546.777 1407.94" stroke="#DCE1E9" stroke-width="54" stroke-linecap="round" stroke-linejoin="bevel"/>
<path d="M521.593 1390.31C518.045 1384.84 512.779 1384.56 508.514 1381.42C506.422 1384.41 506.578 1388.77 504.684 1394.62L492.369 1409.82L470.961 1432.75L450.557 1443.82L462.863 1458.01C471.105 1451.59 517.879 1401.78 521.593 1390.31Z" fill="#3B3937"/>
<path d="M593.908 1465.46C593.908 1465.46 594.369 1440.59 588.958 1426.86C583.548 1413.14 577.787 1377.68 577.787 1377.68C577.787 1377.68 568.49 1387.82 551.012 1387.97L518.074 1388.26C518.074 1388.26 489.397 1428.3 480.969 1433.67C472.541 1439.04 424.801 1449.46 424.801 1449.46C415.734 1449.54 408.447 1456.95 408.526 1466.02L408.599 1474.37L508.17 1473.5L593.908 1465.46Z" fill="#1C1B19"/>
<path d="M450.132 1452.43C437.645 1454.04 421.65 1454.68 418.616 1450.71L439.063 1444.53L465.97 1433.8L473 1437.24L472.026 1440.24L487.109 1449.61L480.687 1458.67L480.588 1458.63C475.66 1456.47 462.741 1450.81 450.132 1452.43Z" fill="#303030"/>
<path d="M509.461 1398.53L504.146 1396.46" stroke="white" stroke-width="6.35587" stroke-linecap="round"/>
<path d="M501.54 1407.6L496.224 1405.53" stroke="white" stroke-width="6.35587" stroke-linecap="round"/>
<path d="M494.619 1416.66L489.303 1414.59" stroke="white" stroke-width="6.35587" stroke-linecap="round"/>
<path d="M486.697 1425.73L481.382 1423.66" stroke="white" stroke-width="6.35587" stroke-linecap="round"/>
<path d="M474.777 1434.84L469.461 1432.77" stroke="white" stroke-width="6.35587" stroke-linecap="round"/>
<path d="M595.112 1464.42L501.404 1469.47L408.151 1466.05L406.787 1478.25C406.374 1481.95 409.219 1485.22 412.944 1485.31L499.617 1487.5L547.996 1487.6L596.356 1485.59L595.112 1464.42Z" fill="#303030"/>
<path d="M691.598 1389.31C695.146 1383.84 700.411 1383.56 704.676 1380.42C706.769 1383.41 706.612 1387.77 708.506 1393.62L720.821 1408.82L742.229 1431.75L762.633 1442.82L750.327 1457.01C742.085 1450.59 695.311 1400.78 691.598 1389.31Z" fill="#3B3937"/>
<path d="M619.283 1464.46C619.283 1464.46 618.822 1439.59 624.232 1425.86C629.642 1412.14 635.403 1376.68 635.403 1376.68C635.403 1376.68 644.7 1386.82 662.178 1386.97L695.116 1387.26C695.116 1387.26 723.793 1427.3 732.221 1432.67C740.649 1438.04 788.389 1448.46 788.389 1448.46C797.456 1448.54 804.743 1455.95 804.664 1465.02L804.591 1473.37L705.02 1472.5L619.283 1464.46Z" fill="#1C1B19"/>
<path d="M763.058 1451.43C775.545 1453.04 791.54 1453.68 794.575 1449.71L774.128 1443.53L747.22 1432.8L740.19 1436.24L741.164 1439.24L726.081 1448.61L732.503 1457.67L732.602 1457.63C737.53 1455.47 750.449 1449.81 763.058 1451.43Z" fill="#303030"/>
<path d="M703.729 1397.53L709.045 1395.46" stroke="white" stroke-width="6.35587" stroke-linecap="round"/>
<path d="M711.65 1406.6L716.966 1404.53" stroke="white" stroke-width="6.35587" stroke-linecap="round"/>
<path d="M718.572 1415.66L723.887 1413.59" stroke="white" stroke-width="6.35587" stroke-linecap="round"/>
<path d="M726.493 1424.73L731.808 1422.66" stroke="white" stroke-width="6.35587" stroke-linecap="round"/>
<path d="M738.414 1433.84L743.729 1431.77" stroke="white" stroke-width="6.35587" stroke-linecap="round"/>
<path d="M618.078 1463.42L711.787 1468.47L805.039 1465.05L806.403 1477.25C806.817 1480.95 803.971 1484.22 800.247 1484.31L713.574 1486.5L665.195 1486.6L616.834 1484.59L618.078 1463.42Z" fill="#303030"/>
<path d="M456.778 983.937H591.778L586.778 1343.73L578.778 1371.94L502.278 1367.94L490.663 1337.24L456.778 983.937Z" fill="#695959"/>
<path d="M590.492 989.958H725.949L720.777 1335.94L709.777 1364.94L631.777 1378.36L624.516 1343.94L590.492 989.958Z" fill="#695959"/>
<path d="M494.278 1359.94H580.778L585.778 1367.91L580.778 1383.94L560.778 1390.41H501.778L498.278 1383.94L500.278 1374.91L492.278 1372.91L494.278 1359.94Z" fill="#544B4B"/>
<path d="M628.778 1359.94L717.778 1361.41L710.278 1377.41L711.778 1385.91L690.278 1388.91H667.278L624.278 1383.91L628.778 1359.94Z" fill="#544B4B"/>
<path d="M424.308 759.895C392.601 821.97 366.601 985.97 392.601 1002.97" stroke="#EBBAAA" stroke-width="74" stroke-linecap="round" stroke-linejoin="bevel"/>
<path d="M747.323 737.157C792.675 817.554 809.093 966.618 792.601 1011.97" stroke="#EBBAAA" stroke-width="74" stroke-linecap="round" stroke-linejoin="bevel"/>
<rect x="389.263" y="710.504" width="109.872" height="16.687" transform="rotate(18 389.263 710.504)" fill="#F1EDED"/>
<rect x="802.343" y="748.991" width="109.872" height="16.687" transform="rotate(162 802.343 748.991)" fill="#F1EDED"/>
<path d="M460.154 666.085C460.989 631.67 488.54 603.881 522.946 602.758L603.27 600.13C609.815 599.923 616.371 600.264 622.854 601.16L701.261 612.003C735.852 616.786 760.465 648.058 756.982 682.804L742.15 830.692L749.591 1042.57C749.664 1044.38 663.415 1042.66 661.601 1042.57H522.946L444.137 1030.67C442.395 1030.58 441.065 1029.06 441.21 1027.32L456.609 812.273L460.154 666.085Z" fill="#D7DADD"/>
<path d="M590.715 689.743C630.562 689.743 662.865 657.441 662.865 617.593C662.865 577.745 630.562 545.442 590.715 545.442C550.867 545.442 518.564 577.745 518.564 617.593C518.564 657.441 550.867 689.743 590.715 689.743Z" fill="#E9E4E0"/>
<rect x="551.601" y="539.97" width="88" height="119" rx="37.911" fill="#EBBAAA"/>
<rect x="423.745" y="592.97" width="147.712" height="359.643" rx="73.856" transform="rotate(16.5 423.745 592.97)" fill="#514D72"/>
<path d="M338.802 994.97C332.402 976.57 336.601 887.97 344.601 857.97L452.802 876.97C440.601 914.97 438.601 964.97 429.601 1013.97L429.447 1013.98C408.302 1014.98 346.782 1017.91 338.802 994.97Z" fill="#514D72"/>
<path opacity="0.2" d="M365.601 855.97L438.101 877.97L359.101 870.47L365.601 855.97Z" fill="white"/>
<path opacity="0.2" d="M383.601 884.97L439.601 881.97L391.101 897.47L383.601 884.97Z" fill="white"/>
<rect width="157.985" height="388.308" rx="78.9925" transform="matrix(-0.945519 0.325568 0.325568 0.945519 751.979 586.97)" fill="#514D72"/>
<path d="M602.601 868.97C601.807 801.813 579.601 709.622 579.601 677.47C572.601 677.47 565.601 676.47 560.601 673.47C560.871 647.627 562.698 621.125 551.715 596.97L466.192 613.442C452.87 631.775 429.432 686.549 425.67 791.467C422.681 874.847 425.772 931.03 425.67 984.97C425.644 998.903 445.601 1009.15 445.601 1046.65C462.058 1051.41 548.527 1063.57 602.601 1046.65C612.601 980.97 603.776 968.388 602.601 868.97Z" fill="#43405E"/>
<path d="M524.601 1030.47C502.201 1032.07 462.601 1024.97 439.601 1016.97V1050.97C452.601 1060.97 486.101 1059.97 504.601 1059.97C527.601 1059.97 564.601 1066.97 604.601 1060.97L602.601 1030.47C588.601 1033.47 547.001 1028.87 524.601 1030.47Z" fill="#514D72"/>
<path d="M853.601 998.97C860.001 980.57 861.601 915.97 853.601 885.97L739.601 880.97C751.802 918.97 737.601 957.97 746.601 1006.97C767.601 1007.97 845.601 1021.97 853.601 998.97Z" fill="#514D72"/>
<path opacity="0.2" d="M820.101 846.97L747.601 868.97L826.601 861.47L820.101 846.97Z" fill="white"/>
<path opacity="0.2" d="M806.601 878.97L750.601 875.97L799.101 891.47L806.601 878.97Z" fill="white"/>
<path d="M594.601 856.97C594.601 760.762 604.601 707.082 604.601 675.97C610.101 675.97 616.051 676.47 623.601 673.97C627.184 647.37 636.865 617.852 646.982 594.97L705.025 604.329C719.464 606.658 732.136 615.054 735.346 629.323C742.46 660.948 746.544 720.015 753.039 797.094C759.601 874.97 756.342 940.517 759.601 993.97C760.618 1010.64 737.724 1037.83 738.601 1048.69C709.842 1052.79 651.483 1065.07 600.601 1048.69C600.601 983.196 594.601 953.177 594.601 856.97Z" fill="#43405E"/>
<path d="M663.601 1034.97C686.001 1036.57 729.601 1034.47 748.601 1018.97L750.601 1053.97C730.601 1058.97 703.101 1062.97 695.601 1062.97C663.213 1062.97 635.601 1067.97 595.601 1061.97V1028.47C609.601 1031.47 641.201 1033.37 663.601 1034.97Z" fill="#514D72"/>
<path d="M584.101 992.97C584.101 965.77 579.934 796.97 572.601 716.97L562.101 674.97L583.601 675.97C585.312 689.839 589.601 723.97 595.601 752.97L605.101 675.97L622.101 674.97C622.101 693.636 614.601 735.37 614.601 752.97V1064.97L584.101 1062.97V992.97Z" fill="#9B9FA6"/>
<path d="M594.601 751.97C597.934 850.136 602.101 1022.97 599.101 1063.47" stroke="white" stroke-width="12"/>
<path d="M704.289 609.969C715.489 604.369 690.289 592.969 679.289 586.969C670.289 584.303 650.489 578.17 639.289 594.97C625.289 615.97 611.918 741.118 622.289 715.97C662.289 618.97 690.289 616.969 704.289 609.969Z" fill="#B7BECB"/>
<path d="M488.601 611.969C477.401 606.369 502.601 594.969 513.601 588.969C522.601 586.303 542.401 580.17 553.601 596.97C567.601 617.97 580.971 743.118 570.601 717.97C530.601 620.97 502.601 618.969 488.601 611.969Z" fill="#B7BECB"/>
<path d="M537.601 640.97V737.5" stroke="#E8ECF3" stroke-width="14" stroke-linecap="round"/>
<path d="M649.601 640.97V749.97" stroke="#E8ECF3" stroke-width="14" stroke-linecap="round"/>
<path opacity="0.5" d="M747.479 468.971C769.57 468.971 787.479 451.062 787.479 428.971C787.479 406.879 769.57 388.971 747.479 388.971C725.388 388.971 707.479 406.879 707.479 428.971C707.479 451.062 725.388 468.971 747.479 468.971Z" fill="#C99584"/>
<path opacity="0.5" d="M447.479 468.971C425.388 468.971 407.479 451.062 407.479 428.971C407.479 406.879 425.388 388.971 447.479 388.971C469.57 388.971 487.479 406.879 487.479 428.971C487.479 451.062 469.57 468.971 447.479 468.971Z" fill="#C99584"/>
<rect x="446.979" y="178.971" width="301" height="420" rx="150.5" fill="#F4D5CC"/>
<path fill-rule="evenodd" clip-rule="evenodd" d="M545.479 484.991V504.791C545.479 535.271 570.189 559.971 600.659 559.971C631.139 559.971 655.839 535.271 655.839 504.791V484.991H545.479Z" fill="#393939"/>
<mask id="mask0" mask-type="alpha" maskUnits="userSpaceOnUse" x="545" y="484" width="111" height="76">
<path fill-rule="evenodd" clip-rule="evenodd" d="M545.569 484.971C545.509 485.991 545.479 487.021 545.479 488.052V507.338C545.479 536.411 570.189 559.971 600.659 559.971C631.139 559.971 655.839 536.411 655.839 507.338V488.052C655.839 487.021 655.809 485.991 655.749 484.971H545.569Z" fill="white"/>
</mask>
<g mask="url(#mask0)">
<path d="M600.659 577.664C619.038 577.664 633.936 569.554 633.936 559.551C633.936 549.547 619.038 541.438 600.659 541.438C582.28 541.438 567.381 549.547 567.381 559.551C567.381 569.554 582.28 577.664 600.659 577.664Z" fill="#FF6C6C"/>
</g>
<rect x="545.479" y="484.991" width="110.363" height="22.7466" fill="white"/>
<path d="M442.339 315.238C446.425 278.324 444.452 283.005 462.202 243.561C479.952 204.118 495.631 232.465 479.952 249.455C464.272 266.444 462.202 295.458 462.202 295.458L453.018 405.745C452.86 407.579 451.467 408.973 449.805 408.973C448.068 408.973 446.648 407.466 446.573 405.561C446.573 405.561 438.253 352.152 442.339 315.238Z" fill="#6E6C6C"/>
<path d="M749.535 309.533C745.45 272.618 747.423 277.3 729.673 237.856C711.923 198.413 696.243 226.76 711.923 243.75C727.603 260.739 729.673 289.753 729.673 289.753L738.857 400.04C739.015 401.874 740.408 403.267 742.07 403.267C743.806 403.267 745.227 401.761 745.301 399.856C745.301 399.856 753.621 346.447 749.535 309.533Z" fill="#6E6C6C"/>
<path d="M641.479 328.971L701.479 332.471" stroke="#393939" stroke-width="18" stroke-linecap="round"/>
<path d="M551.479 328.971L491.479 332.471" stroke="#393939" stroke-width="18" stroke-linecap="round"/>
<path d="M597.479 418.97C587.479 433.97 577.479 468.97 607.479 468.97" stroke="#EBBAAA" stroke-width="17"/>
<path d="M660.016 375.378V403.268" stroke="black" stroke-width="24" stroke-linecap="round"/>
<path d="M534.939 375.378V403.268" stroke="black" stroke-width="24" stroke-linecap="round"/>
<path d="M501.973 252.062C445.911 239.165 463.298 195.125 483.073 179.773C487.989 174.409 509.511 169.38 523.675 151.73C537.839 134.08 569.472 127.4 583.518 126.265C604.243 122.681 651.921 116.621 697.803 162.435C743.685 208.25 739.961 232.846 720.841 246.999C701.722 261.152 610.036 255.945 610.036 255.945C597.375 260.025 558.036 264.958 501.973 252.062Z" fill="black"/>
<path opacity="0.3" d="M512.659 255.233C449.107 245.539 459.699 207.21 473.613 191.95C496.503 160.982 485.73 189.257 512.659 165.021C495.155 222.918 535.548 205.414 543.627 235.036C550.09 258.733 566.965 258.374 574.595 255.233C580.43 259.272 576.211 264.927 512.659 255.233Z" fill="#C4C4C4"/>
<path opacity="0.3" d="M615.368 253.619C551.816 243.925 562.408 205.596 576.322 190.336C599.212 159.368 619.407 186.074 646.336 161.839C628.832 219.736 638.257 203.801 646.336 233.422C652.799 257.119 669.674 256.761 677.304 253.619C683.139 257.658 678.92 263.313 615.368 253.619Z" fill="#C4C4C4"/>
<path opacity="0.3" d="M660.099 230.586C644.401 212.381 652.83 180.586 665.952 160.715C648.471 215.083 673.941 230.586 708.694 250.697C679.45 254.071 682.773 256.884 660.099 230.586Z" fill="#C4C4C4"/>
<path d="M636.032 117.48C640.498 119.353 651.01 124.326 657.33 129.235C660.578 131.757 664.223 134.977 668.573 142.601C670.606 146.165 665.621 138.723 659.943 133.427C654.135 128.009 640.529 122.827 646.362 127.049C657.605 140.415 695.296 190.325 683.795 155.814C672.294 121.303 647.161 115.879 636.032 117.48Z" fill="#2C2929"/>
<path d="M580.095 404.072C585.84 403.458 600.646 402.599 613.904 404.072" stroke="black" stroke-width="10.2584"/>
<path d="M615.109 401.877C612.237 391.765 619.454 381.656 629.937 381.108L701.789 377.352C712.272 376.803 720.633 386.098 718.966 396.447L715.108 420.401C713.887 427.988 707.548 433.674 699.863 434.075L638.516 437.283C630.831 437.685 623.863 432.695 621.758 425.282L615.109 401.877Z" fill="white" fill-opacity="0.29" stroke="black" stroke-width="8.20673"/>
<path d="M477.749 395.593C476.276 385.22 484.809 376.067 495.281 376.789L567.048 381.735C577.521 382.456 584.549 392.681 581.489 402.742L574.403 426.039C572.159 433.415 565.099 438.289 557.421 437.76L496.15 433.537C488.472 433.008 482.239 427.219 481.159 419.613L477.749 395.593Z" fill="white" fill-opacity="0.29" stroke="black" stroke-width="8.20673"/>
<path d="M720.646 402.825L749.004 384.458" stroke="black" stroke-width="11.2843" stroke-linecap="round"/>
<path d="M475.742 402.825L443.18 378.897" stroke="black" stroke-width="11.2843" stroke-linecap="round"/>
</svg>
