<svg width="1200" height="1600" viewBox="0 0 1200 1600" fill="none" xmlns="http://www.w3.org/2000/svg">
<path d="M672 1236V1464" stroke="#EBBAAA" stroke-width="44" stroke-linecap="round" stroke-linejoin="bevel"/>
<path d="M524 1236V1481.5" stroke="#EBBAAA" stroke-width="44" stroke-linecap="round" stroke-linejoin="bevel"/>
<path d="M724.375 700C768.375 778 800.375 930 784.375 974" stroke="#EBBAAA" stroke-width="74" stroke-linecap="round" stroke-linejoin="bevel"/>
<path d="M477.185 700C433.185 778 401.185 930 417.185 974" stroke="#EBBAAA" stroke-width="74" stroke-linecap="round" stroke-linejoin="bevel"/>
<path d="M645 1471.82C645 1471.82 645.499 1438.75 647.992 1441.25C650.486 1443.76 661.949 1450.27 677.418 1450.27C692.879 1450.27 702.355 1444.76 705.846 1441.25C709.337 1437.75 712.583 1471.82 712.583 1471.82L645 1471.82Z" fill="#DCE1E9"/>
<path d="M553.583 1474.82C553.583 1474.82 553.084 1441.75 550.591 1444.25C548.097 1446.76 536.634 1453.27 521.165 1453.27C505.704 1453.27 496.228 1447.76 492.737 1444.25C489.246 1440.75 486 1474.82 486 1474.82L553.583 1474.82Z" fill="#DCE1E9"/>
<path d="M599.999 1110C663.511 1110 714.999 1086.49 714.999 1057.5C714.999 1028.51 663.511 1005 599.999 1005C536.486 1005 484.999 1028.51 484.999 1057.5C484.999 1086.49 536.486 1110 599.999 1110Z" fill="#252424"/>
<path d="M596.999 987H746.999L726.999 1430H632.827L596.999 987Z" fill="#252424"/>
<rect x="432" y="571" width="170" height="392.822" rx="85" transform="rotate(15 432 571)" fill="#DCB245"/>
<rect width="170" height="392.822" rx="85" transform="matrix(-0.965926 0.258819 0.258819 0.965926 766.207 571)" fill="#DCB245"/>
<path d="M447.155 633.666C448.856 612.315 463.968 594.418 484.732 589.164L600 559.999L715.268 589.164C736.032 594.418 751.144 612.315 752.845 633.666L770 848.999L755 952.999L747.9 965.069C746.103 968.124 742.824 969.999 739.281 969.999H455L445 952.999L430 848.999L447.155 633.666Z" fill="#EEC55D"/>
<path d="M600 645C627.614 645 650 622.614 650 595C650 567.386 627.614 545 600 545C572.386 545 550 567.386 550 595C550 622.614 572.386 645 600 645Z" fill="#DCB245"/>
<path d="M602.999 987H452.999L472.999 1430H567.17L602.999 987Z" fill="#252424"/>
<path d="M455 970H745L748.824 1005.94C749.452 1011.85 744.821 1017 738.88 1017H461.12C455.179 1017 450.548 1011.85 451.176 1005.94L455 970Z" fill="#DCB245"/>
<rect x="562" y="495" width="76" height="115" rx="37.911" fill="#EBBAAA"/>
<path opacity="0.5" d="M750 430C772.091 430 790 412.092 790 390C790 367.909 772.091 350 750 350C727.908 350 710 367.909 710 390C710 412.092 727.908 430 750 430Z" fill="#C99584"/>
<path opacity="0.5" d="M449.999 430C427.908 430 409.999 412.092 409.999 390C409.999 367.909 427.908 350 449.999 350C472.091 350 489.999 367.909 489.999 390C489.999 412.092 472.091 430 449.999 430Z" fill="#C99584"/>
<rect x="450" y="125" width="300" height="420" rx="150" fill="#F4D5CC"/>
<path fill-rule="evenodd" clip-rule="evenodd" d="M545 430V449.805C545 480.293 569.629 505 600 505C630.381 505 655 480.293 655 449.805V430H545Z" fill="#393939"/>
<mask id="mask0" mask-type="alpha" maskUnits="userSpaceOnUse" x="545" y="430" width="110" height="75">
<path fill-rule="evenodd" clip-rule="evenodd" d="M545.09 430C545.03 431.021 545 432.051 545 433.081V452.367C545 481.44 569.629 505 600 505C630.381 505 655 481.44 655 452.367V433.081C655 432.051 654.97 431.021 654.91 430H545.09Z" fill="white"/>
</mask>
<g mask="url(#mask0)">
<path d="M600 520C616.569 520 630 511.941 630 502C630 492.059 616.569 484 600 484C583.431 484 570 492.059 570 502C570 511.941 583.431 520 600 520Z" fill="#FF6C6C"/>
</g>
<rect x="545" y="430" width="110" height="20" fill="white"/>
<path d="M619 325C619 323.343 620.343 322 622 322H716C717.657 322 719 323.343 719 325V353C719 361.284 712.284 368 704 368H634C625.716 368 619 361.284 619 353V325Z" stroke="#393939" stroke-width="12"/>
<rect x="575" y="330" width="50" height="10" fill="#393939"/>
<path d="M479 325C479 323.343 480.343 322 482 322H576C577.657 322 579 323.343 579 325V352C579 360.284 572.284 367 564 367H494C485.716 367 479 360.284 479 352V325Z" stroke="#393939" stroke-width="12"/>
<path d="M754.991 256.486C755.223 250.216 750.683 245 745 245C739.103 245 734.488 250.595 735.045 257.07L744.461 366.773C744.619 368.607 746.012 370 747.674 370C749.41 370 750.831 368.494 750.905 366.589L754.991 256.486Z" fill="#6E6C6C"/>
<path d="M445.008 256.486C444.776 250.216 449.317 245 455 245C460.896 245 465.511 250.595 464.954 257.07L455.538 366.773C455.381 368.607 453.988 370 452.326 370C450.589 370 449.168 368.494 449.094 366.589L445.008 256.486Z" fill="#6E6C6C"/>
<path d="M595.325 208.179C671.473 208.179 732.36 207.971 735.5 263.625C748.345 281.724 756.39 279.71 759.389 246.772C768.994 141.285 663.157 81.5177 589.86 105.126C589.86 105.126 519.167 208.179 595.325 208.179Z" fill="#393939"/>
<path d="M604.675 208.179C528.527 208.179 467.639 207.971 464.5 263.625C451.654 281.724 443.61 279.71 440.61 246.772C431.005 141.285 536.843 81.5177 610.139 105.126C610.139 105.126 680.832 208.179 604.675 208.179Z" fill="#393939"/>
<path d="M485.868 245.234C483.245 210.564 478.145 194.734 483.051 181.014L727.451 175L756 265.534L745.362 334.344C740.038 300.754 727.451 239.524 704.367 222.09C668.705 195.156 635.633 220.024 618.039 239.524C618.039 215.684 607.819 216.224 598.813 211.354C600.125 233.894 553.552 243.059 531.46 243.059C552.168 233.894 555.531 217.211 545.709 209.081C515.498 211.354 508.378 214.894 485.868 245.234Z" fill="#393939"/>
<path d="M674 340H654" stroke="black" stroke-width="18" stroke-linecap="round"/>
<path d="M544 340H524" stroke="black" stroke-width="18" stroke-linecap="round"/>
<path d="M644 295L704 298.5" stroke="#393939" stroke-width="18" stroke-linecap="round"/>
<path d="M554 295L494 298.5" stroke="#393939" stroke-width="18" stroke-linecap="round"/>
<path d="M600 365C590 380 580 415 610 415" stroke="#EBBAAA" stroke-width="17"/>
<path d="M372.336 1522.29C372.16 1502.11 375.307 1500.59 395.267 1492.33C415.226 1484.06 462.217 1470.65 478.562 1448.1C478.562 1448.1 483.106 1447.34 490.496 1450.85C496.803 1453.85 504.9 1461.2 517.114 1461.09C530.376 1460.98 542.198 1458.49 549.545 1455.1C552.726 1447.45 559.764 1447.39 559.764 1447.39C559.764 1447.39 569.654 1463.97 569.799 1480.63C569.944 1497.29 569.894 1524.96 569.894 1524.96L372.336 1522.29Z" fill="#545454"/>
<path d="M533.106 1484.57C536.606 1482.52 556.648 1474.91 565.603 1469.7C570.032 1472.95 569.479 1492.51 569.577 1503.79L525.597 1506.23C528.022 1497.66 531.94 1485.76 533.106 1484.57Z" fill="#666666"/>
<path d="M418.689 1496.66C406.203 1498.31 390.208 1498.96 387.172 1494.89L407.618 1488.56L434.523 1477.55L441.554 1481.08L440.581 1484.17L455.665 1493.78L449.246 1503.06L449.147 1503.02C444.218 1500.81 431.298 1495 418.689 1496.66Z" fill="#666666"/>
<path d="M475.354 1451.46C477.52 1456.45 477.522 1462.56 477.523 1466.45L459.114 1458.11L463.449 1474.22L446.665 1468.66L446.669 1484.76L433.674 1477.54L433.677 1491.42" stroke="#393939" stroke-width="5.41368" stroke-linecap="round" stroke-linejoin="round"/>
<path d="M569.46 1521.8L569.456 1503.24L411.051 1514.28L371.248 1510.17L370.422 1517.06C369.834 1521.97 373.473 1526.38 378.408 1526.73L411.054 1529.05L491.251 1526.11L565.128 1526.13C567.521 1526.13 569.461 1524.19 569.46 1521.8Z" fill="#393939"/>
<path d="M827.874 1522.29C828.05 1502.11 824.902 1500.59 804.943 1492.33C784.984 1484.06 737.993 1470.65 721.648 1448.1C721.648 1448.1 717.104 1447.34 709.713 1450.85C703.406 1453.85 695.309 1461.2 683.096 1461.09C669.833 1460.98 658.011 1458.49 650.665 1455.1C647.483 1447.45 640.446 1447.39 640.446 1447.39C640.446 1447.39 630.556 1463.97 630.41 1480.63C630.265 1497.29 630.315 1524.96 630.315 1524.96L827.874 1522.29Z" fill="#545454"/>
<path d="M667.103 1484.57C663.604 1482.52 643.561 1474.91 634.607 1469.7C630.178 1472.95 630.731 1492.51 630.632 1503.79L674.613 1506.23C672.187 1497.66 668.269 1485.76 667.103 1484.57Z" fill="#666666"/>
<path d="M781.52 1496.66C794.006 1498.31 810.001 1498.96 813.037 1494.89L792.592 1488.56L765.687 1477.55L758.655 1481.08L759.629 1484.17L744.544 1493.78L750.963 1503.06L751.063 1503.02C755.991 1500.81 768.911 1495 781.52 1496.66Z" fill="#666666"/>
<path d="M724.856 1451.46C722.689 1456.45 722.688 1462.56 722.687 1466.45L741.095 1458.11L736.761 1474.22L753.544 1468.66L753.541 1484.76L766.535 1477.54L766.532 1491.42" stroke="#393939" stroke-width="5.41368" stroke-linecap="round" stroke-linejoin="round"/>
<path d="M630.749 1521.8L630.753 1503.24L789.158 1514.28L828.962 1510.17L829.787 1517.06C830.375 1521.97 826.736 1526.38 821.801 1526.73L789.155 1529.05L708.958 1526.11L635.081 1526.13C632.689 1526.13 630.749 1524.19 630.749 1521.8Z" fill="#393939"/>
</svg>
