<svg width="1200" height="1600" viewBox="0 0 1200 1600" fill="none" xmlns="http://www.w3.org/2000/svg">
<path d="M588.582 1413.9L593.33 1282.93L525.398 1291.62C532.062 1328.58 523.801 1426.18 516.845 1447.05C509.889 1467.92 451.631 1452.48 532.606 1478.03L573.365 1443.79L588.582 1413.9Z" fill="#F6DDD6"/>
<path d="M605.829 1420.8C602.566 1415.36 599.307 1410.79 596.146 1409.93C595.054 1409.63 592.616 1409.25 591.699 1409.93C554.773 1442.26 580.286 1456.66 502.085 1457.82C501.855 1457.6 501.397 1457.6 500.938 1457.82C488.094 1462.54 464.012 1468.82 454.15 1475.56C452.315 1477.13 450.481 1487.43 454.15 1489.23C467.911 1496.64 527.146 1502.96 545.035 1494.42C557.879 1488.36 571.605 1448.6 582.614 1437.6C588.348 1431.98 595.457 1425.69 596.146 1437.82L594.312 1492.63C594.312 1493.53 595.23 1494.42 596.147 1494.42H603.486C604.633 1494.42 605.321 1493.53 605.321 1492.63L607.154 1444.83C608.002 1441.45 609.091 1426.23 605.829 1420.8Z" fill="black"/>
<mask id="mask0" mask-type="alpha" maskUnits="userSpaceOnUse" x="452" y="1395" width="163" height="104">
<path d="M608.532 1418.95C605.092 1411.31 600.275 1403.68 594.312 1396.27C593.624 1395.37 592.477 1395.14 591.56 1395.82C554.634 1428.15 544.426 1437.82 502.085 1457.44C501.855 1457.22 501.397 1457.22 500.938 1457.44C488.094 1462.16 464.012 1468.45 454.15 1475.18C452.315 1476.75 450.481 1487.05 454.15 1488.85C467.911 1496.26 527.146 1502.58 545.035 1494.05C557.879 1487.98 569.771 1478.96 580.78 1467.95C586.514 1462.34 593.624 1456.05 594.312 1468.18V1492.25C594.312 1493.15 595.229 1494.05 596.147 1494.05H603.486C604.633 1494.05 605.321 1493.15 605.321 1492.25V1475.18C611.629 1470.33 620.229 1445.89 608.532 1418.95Z" fill="black"/>
</mask>
<g mask="url(#mask0)">
<path d="M496.079 1454.18C490.094 1462.88 493.358 1472.67 501.519 1481.38C509.261 1489.64 525.455 1502.05 536.335 1501.51" stroke="white" stroke-width="5.43454"/>
<path d="M477.581 1454.18C471.597 1462.88 474.861 1472.67 483.021 1481.38C490.763 1489.64 506.958 1502.05 517.838 1501.51" stroke="white" stroke-width="5.43454"/>
</g>
<path d="M651.556 1416.36L645.446 1275.38L715.784 1299.94C709.739 1338.99 717.066 1428.23 724.101 1448.4C731.136 1468.57 790.049 1453.65 708.163 1478.34L666.944 1445.25L651.556 1416.36Z" fill="#F6DDD6"/>
<path d="M635.617 1423.55C638.916 1418.3 642.212 1413.88 645.41 1413.04C646.513 1412.75 648.979 1412.39 649.906 1413.04C687.248 1444.3 661.447 1458.22 740.53 1459.34C740.762 1459.12 741.225 1459.12 741.689 1459.34C754.678 1463.9 779.031 1469.97 789.004 1476.49C790.86 1478.01 792.715 1487.96 789.004 1489.7C775.088 1496.86 715.186 1502.97 697.095 1494.72C684.107 1488.86 670.227 1450.42 659.094 1439.79C653.295 1434.36 646.105 1428.28 645.41 1440L647.264 1492.98C647.264 1493.85 646.336 1494.72 645.408 1494.72H637.986C636.826 1494.72 636.131 1493.85 636.131 1492.98L634.277 1446.78C633.419 1443.51 632.318 1428.8 635.617 1423.55Z" fill="black"/>
<mask id="mask1" mask-type="alpha" maskUnits="userSpaceOnUse" x="627" y="1399" width="165" height="100">
<path d="M632.884 1421.76C636.363 1414.38 641.234 1407 647.264 1399.84C647.96 1398.97 649.12 1398.75 650.047 1399.4C687.389 1430.66 697.712 1440.01 740.53 1458.97C740.762 1458.76 741.226 1458.76 741.69 1458.97C754.678 1463.53 779.031 1469.61 789.004 1476.12C790.86 1477.64 792.715 1487.6 789.004 1489.33C775.088 1496.5 715.187 1502.6 697.096 1494.35C684.108 1488.49 672.081 1479.77 660.948 1469.13C655.15 1463.71 647.96 1457.63 647.264 1469.35V1492.62C647.264 1493.49 646.337 1494.35 645.409 1494.35H637.987C636.827 1494.35 636.131 1493.49 636.131 1492.62V1476.12C629.753 1471.43 621.056 1447.81 632.884 1421.76Z" fill="black"/>
</mask>
<g mask="url(#mask1)">
<path d="M746.603 1455.82C752.655 1464.23 749.354 1473.7 741.102 1482.11C733.272 1490.09 716.896 1502.09 705.893 1501.57" stroke="white" stroke-width="5.43454"/>
<path d="M765.309 1455.82C771.36 1464.23 768.06 1473.7 759.808 1482.11C751.978 1490.09 735.601 1502.09 724.599 1501.57" stroke="white" stroke-width="5.43454"/>
</g>
<path d="M482.465 640.562C417.25 640.562 413.99 732.95 398.23 822.076" stroke="#F6DDD6" stroke-width="80.4312" stroke-linecap="round" stroke-linejoin="bevel"/>
<path d="M738.432 639.476C795.495 672.083 863.97 879.139 738.432 879.139" stroke="#F6DDD6" stroke-width="80.4312" stroke-linecap="round" stroke-linejoin="bevel"/>
<path d="M467.249 731.863V600.347L540.615 591.652L559.092 572.087L573.765 565.566L655.827 562.849L664.522 567.196L691.695 591.652L750.388 600.347L757.996 748.71L742.78 864.465V896.529C742.78 896.529 757.996 920.985 757.996 940.549V1339.99H486.813C486.813 1339.99 475.4 963.918 480.835 940.549C486.269 917.181 486.813 896.529 486.813 896.529V869.357L467.249 731.863Z" fill="#EED1C9"/>
<path d="M467.249 731.863V600.347L540.615 591.652L559.092 572.087L573.765 565.566L655.827 562.849L664.522 567.196L691.695 591.652L750.388 600.347L757.996 748.71L742.78 864.465V896.529C742.78 896.529 757.996 920.985 757.996 940.549V1339.99H486.813C486.813 1339.99 475.4 963.918 480.835 940.549C486.269 917.181 486.813 896.529 486.813 896.529V869.357L467.249 731.863Z" fill="black" fill-opacity="0.62"/>
<rect x="570.504" y="512.851" width="85.8657" height="111.951" rx="42.9329" fill="#EED1C9"/>
<path d="M770.496 412.855V489.482" stroke="#DFC5B2" stroke-width="1.08691"/>
<path d="M768.865 416.659L765.061 506.873" stroke="#DFC5B2" stroke-width="1.08691"/>
<path d="M446.597 412.855V489.482" stroke="#DFC5B2" stroke-width="1.08691"/>
<path d="M444.967 416.659L441.163 506.873" stroke="#DFC5B2" stroke-width="1.08691"/>
<ellipse cx="467.342" cy="367.288" rx="64.2207" ry="60.9499" fill="#EBBAAA"/>
<circle cx="445.51" cy="412.855" r="6.52145" fill="#FDF2EC"/>
<ellipse cx="749.938" cy="367.288" rx="64.2207" ry="60.9499" fill="#EBBAAA"/>
<path d="M445.51 272.55C445.51 189.763 517.288 122.651 605.829 122.651C694.371 122.651 766.148 189.763 766.148 272.55L755.279 421.644C742.35 518.354 660.175 569.37 605.829 569.37C551.484 569.37 465.861 507.071 456.38 421.644L445.51 272.55Z" fill="#F6DDD6"/>
<path d="M506.377 396.552L493.334 412.312" stroke="#F9D5C5" stroke-width="21.7382" stroke-linecap="round"/>
<path d="M541.158 398.726L528.115 414.486" stroke="#F9D5C5" stroke-width="21.7382" stroke-linecap="round"/>
<path d="M684.63 396.552L694.412 412.312" stroke="#F9D5C5" stroke-width="21.7382" stroke-linecap="round"/>
<path d="M716.15 396.552L725.933 412.312" stroke="#F9D5C5" stroke-width="21.7382" stroke-linecap="round"/>
<path fill-rule="evenodd" clip-rule="evenodd" d="M560.521 446.321V463.761C560.521 490.551 582.238 512.268 609.028 512.268C635.817 512.268 657.535 490.551 657.535 463.761V446.321H560.521Z" fill="#393939"/>
<mask id="mask2" mask-type="alpha" maskUnits="userSpaceOnUse" x="560" y="443" width="98" height="70">
<path fill-rule="evenodd" clip-rule="evenodd" d="M560.601 443.109C560.548 444.04 560.521 444.978 560.521 445.922V463.761C560.521 490.551 582.238 512.268 609.028 512.268C635.817 512.268 657.535 490.551 657.535 463.761V445.922C657.535 444.978 657.508 444.04 657.454 443.109H560.601Z" fill="#434343"/>
</mask>
<g mask="url(#mask2)">
<ellipse cx="609.028" cy="511.896" rx="29.2521" ry="15.9311" fill="#FF6C6C"/>
<rect x="560.521" y="446.32" width="97.0133" height="20.0065" fill="white"/>
</g>
<path d="M499.805 296.556L562.899 297.173" stroke="#62360D" stroke-width="13.0429" stroke-linecap="round"/>
<path d="M518.879 335.685L547.235 341.271" stroke="black" stroke-width="10.8691" stroke-linecap="round"/>
<path d="M658.676 338.436L687.891 332.968" stroke="black" stroke-width="10.8691" stroke-linecap="round"/>
<path d="M541.691 340.375L541.691 361.77" stroke="black" stroke-width="26.0858" stroke-linecap="round"/>
<path d="M665.41 338.436L665.41 359.831" stroke="black" stroke-width="26.0858" stroke-linecap="round"/>
<path d="M645.504 295.911L707.558 294.901" stroke="#62360D" stroke-width="13.0429" stroke-linecap="round"/>
<path d="M605.889 366.118C603.685 382.182 589.833 411.476 613.444 411.476" stroke="#EBBAAA" stroke-width="18.4774"/>
<path d="M440.427 239.708C450.755 183.082 502.925 121.565 553.467 109.172C604.008 96.7795 596.942 105.475 606.181 105.475C615.42 105.475 602.317 95.5862 666.505 109.172C730.693 122.758 772.948 200.979 777.561 244.928C781.749 284.836 776.805 298.666 770.496 309.056C762.344 306.01 764.918 319.462 765.061 323.729C767.235 388.293 741.149 287.861 729.002 232.536C716.855 177.211 673.57 164.168 606.181 167.972C584.443 169.2 566.509 167.972 521.945 198.949C460.557 241.621 458.993 340.844 449.124 331.445C446.199 328.659 450.754 306.446 441.515 310.793C435.475 300.197 432.746 281.824 440.427 239.708Z" fill="#2D1B14"/>
<path d="M500.399 237.392C544.051 181.104 598.914 171.418 607.175 167.287C611.828 164.96 608.805 133.177 607.175 131.963C598.047 125.162 575.075 131.029 546.592 147.013C497.102 174.784 441.952 254.538 446.909 370.21C450.874 462.748 461.779 484.797 489.865 520.639C469.978 489.141 473.895 493.486 466.184 470.135C453.01 430.243 464.601 283.553 500.399 237.392Z" fill="#2D1B14"/>
<path d="M500.399 251.522C544.051 195.234 598.914 185.547 607.175 181.417C611.828 179.09 608.805 147.307 607.175 146.093C598.047 139.292 575.075 145.159 546.592 161.142C497.102 188.914 441.952 268.668 446.909 384.34C450.874 476.878 461.779 498.927 489.865 534.769C469.978 503.271 473.895 507.616 466.184 484.265C453.01 444.373 464.601 297.683 500.399 251.522Z" fill="#2D1B14"/>
<path d="M490.465 228.274C536.691 173.701 594.236 164.769 602.925 160.813C607.819 158.585 604.941 127.502 603.245 126.299C593.747 119.566 569.635 125.075 539.66 140.416C487.578 167.071 434.291 244.404 433.243 357.527C432.699 416.185 430.038 422.533 460.904 470.08C450.92 441.843 441.986 415.678 442.153 397.624C442.319 379.73 452.556 273.029 490.465 228.274Z" fill="#2D1B14"/>
<path d="M720.672 246.951C693.196 197.482 619.787 187.593 611.826 180.63C607.599 176.933 610.239 143.804 613.411 143.013C635.604 137.472 699.687 161.141 728.219 204.087C756.752 247.033 768.788 346.011 765.668 399.813C764.477 420.334 751.624 459.049 742.783 469.375C749.024 453.615 755.254 434.356 756.073 418.191C759.946 341.663 748.147 296.42 720.672 246.951Z" fill="#2D1B14"/>
<circle cx="770.496" cy="415.029" r="6.52145" fill="#FDF2EC"/>
<path d="M582.461 598.717L570.505 576.978V567.196L559.636 572.087L565.614 603.608L593.33 636.758L652.566 628.607L673.761 593.826L664.522 567.196L656.371 562.849V569.37L652.566 578.609L640.61 593.826L627.567 610.129L582.461 598.717Z" fill="black"/>
<path d="M752.453 593.083L749.76 600.982L752.453 745.129L761.881 756.318L770.411 600.982L761.881 591.108L758.738 595.058L752.453 593.083Z" fill="black" fill-opacity="0.62"/>
<path d="M462.357 595.456L467.248 600.347V718.277V734.037L469.966 748.167L468.879 749.797L441.706 604.695V595.456H451.488L456.923 600.347L462.357 595.456Z" fill="black" fill-opacity="0.62"/>
<path d="M460.184 606.325L469.422 748.71L461.814 697.082L456.923 600.347L460.184 606.325Z" fill="black" fill-opacity="0.62"/>
<path d="M424.857 600.627L442.25 603.065L474.673 745.971L469.878 751.49L440.635 726.452L436.911 699.884L414.349 683.97L425.651 646.27L413.489 634.524L424.857 600.627Z" fill="black" fill-opacity="0.62"/>
<path d="M787.697 596.705L769.865 606.682L758.998 750.831L763.346 757.395L774.215 744.267L774.215 717.464L782.182 705.494L780.41 681.474L788.062 664.091L787.3 632.955L795.688 610.397L787.697 596.705Z" fill="black" fill-opacity="0.62"/>
<path d="M735.715 597.63L700.934 593.282C700.934 593.282 697.13 633.498 677.565 656.323C658.001 679.148 613.438 706.864 613.438 706.864C613.438 706.864 566.701 682.952 545.506 656.323C524.311 629.694 524.855 593.282 524.855 593.282L483.009 597.63C483.009 597.63 492.247 625.346 492.247 648.171C492.247 670.996 493.334 705.777 487.356 717.733C481.378 729.689 468.335 749.253 468.335 749.253C468.335 749.253 489.53 853.053 498.769 875.335C508.008 897.616 498.225 907.942 492.247 916.637C486.269 925.333 487.356 943.266 487.356 968.809C487.356 994.351 505.29 1335.1 505.29 1335.1L656.37 1317.71V1307.38H672.131L665.609 1326.94L687.347 1335.1L747.127 1326.94C747.127 1326.94 754.736 978.229 754.736 963.918C754.736 932.941 747.127 911.203 747.127 911.203C747.127 911.203 729.737 892.725 735.715 875.335C741.693 857.944 754.736 729.689 754.736 729.689C754.736 729.689 746.584 712.842 741.693 699.799C736.802 686.756 735.715 667.192 735.715 648.171V597.63Z" fill="black"/>
<path d="M496.595 873.161V911.203" stroke="#353333" stroke-width="3.26072"/>
<path d="M490.073 873.161V911.203" stroke="#353333" stroke-width="3.26072"/>
<path d="M503.116 873.161V911.203" stroke="#353333" stroke-width="3.26072"/>
<path d="M509.638 873.705V911.746" stroke="#353333" stroke-width="3.26072"/>
<path d="M516.159 873.705V911.746" stroke="#353333" stroke-width="3.26072"/>
<path d="M522.681 873.705V911.746" stroke="#353333" stroke-width="3.26072"/>
<path d="M529.202 873.705V911.746" stroke="#353333" stroke-width="3.26072"/>
<path d="M535.724 873.705V911.746" stroke="#353333" stroke-width="3.26072"/>
<path d="M542.245 873.705V911.746" stroke="#353333" stroke-width="3.26072"/>
<path d="M548.767 873.161V911.203" stroke="#353333" stroke-width="3.26072"/>
<path d="M555.288 873.161V911.203" stroke="#353333" stroke-width="3.26072"/>
<path d="M561.809 873.705V911.746" stroke="#353333" stroke-width="3.26072"/>
<path d="M568.331 873.705V911.746" stroke="#353333" stroke-width="3.26072"/>
<path d="M574.852 873.705V911.746" stroke="#353333" stroke-width="3.26072"/>
<path d="M581.374 873.705V911.746" stroke="#353333" stroke-width="3.26072"/>
<path d="M587.895 873.705V911.746" stroke="#353333" stroke-width="3.26072"/>
<path d="M594.417 873.705V911.746" stroke="#353333" stroke-width="3.26072"/>
<path d="M600.938 873.161V911.203" stroke="#353333" stroke-width="3.26072"/>
<path d="M607.459 873.161V911.203" stroke="#353333" stroke-width="3.26072"/>
<path d="M613.981 873.705V911.746" stroke="#353333" stroke-width="3.26072"/>
<path d="M620.502 873.705V911.746" stroke="#353333" stroke-width="3.26072"/>
<path d="M627.024 873.705V911.746" stroke="#353333" stroke-width="3.26072"/>
<path d="M633.545 873.705V911.746" stroke="#353333" stroke-width="3.26072"/>
<path d="M640.067 873.705V911.746" stroke="#353333" stroke-width="3.26072"/>
<path d="M646.588 873.705V911.746" stroke="#353333" stroke-width="3.26072"/>
<path d="M653.11 873.161V911.203" stroke="#353333" stroke-width="3.26072"/>
<path d="M659.631 873.161V911.203" stroke="#353333" stroke-width="3.26072"/>
<path d="M666.153 873.705V911.746" stroke="#353333" stroke-width="3.26072"/>
<path d="M672.674 873.705V911.746" stroke="#353333" stroke-width="3.26072"/>
<path d="M679.195 873.705V911.746" stroke="#353333" stroke-width="3.26072"/>
<path d="M685.717 873.705V911.746" stroke="#353333" stroke-width="3.26072"/>
<path d="M692.238 873.705V911.746" stroke="#353333" stroke-width="3.26072"/>
<path d="M698.76 873.705V911.746" stroke="#353333" stroke-width="3.26072"/>
<path d="M705.281 873.161V911.203" stroke="#353333" stroke-width="3.26072"/>
<path d="M711.803 873.161V911.203" stroke="#353333" stroke-width="3.26072"/>
<path d="M718.324 873.705V911.746" stroke="#353333" stroke-width="3.26072"/>
<path d="M724.845 873.705V911.746" stroke="#353333" stroke-width="3.26072"/>
<path d="M731.367 873.705V911.746" stroke="#353333" stroke-width="3.26072"/>
<path d="M737.888 873.705V911.746" stroke="#353333" stroke-width="3.26072"/>
<path d="M643.327 1351.94L615.068 918.268L534.637 932.397L488.443 1340.53L643.327 1351.94Z" fill="black" fill-opacity="0.33"/>
<path d="M627.024 1347.05L646.588 985.656L728.106 979.135L740.062 1347.05H627.024Z" fill="black" fill-opacity="0.36"/>
<path d="M503.116 895.443C504.855 891.53 499.856 877.146 497.138 870.444L735.715 868.813C735.171 871.712 734.084 878.922 734.084 884.574C734.084 890.226 742.055 905.044 746.04 911.746C660.537 913.92 490.291 917.616 493.334 915.007C497.138 911.746 500.943 900.334 503.116 895.443Z" fill="black" fill-opacity="0.21"/>
<ellipse cx="620.502" cy="940.549" rx="6.52145" ry="5.97799" fill="white" fill-opacity="0.6"/>
<ellipse cx="620.502" cy="991.634" rx="6.52145" ry="5.97799" fill="white" fill-opacity="0.6"/>
<ellipse cx="620.502" cy="990.547" rx="6.52145" ry="5.97799" fill="white" fill-opacity="0.6"/>
<ellipse cx="620.502" cy="1042.72" rx="6.52145" ry="5.97799" fill="white" fill-opacity="0.6"/>
<ellipse cx="620.502" cy="1093.8" rx="6.52145" ry="5.97799" fill="white" fill-opacity="0.6"/>
<ellipse cx="620.502" cy="1144.89" rx="6.52145" ry="5.97799" fill="white" fill-opacity="0.6"/>
<path d="M517.027 581.716L579.742 585.238L560.422 757.288L521.09 755.079L517.027 581.716Z" fill="#968F8B"/>
<path d="M531.921 642.193L531.921 662.844L531.921 748.167L543.334 748.167L554.203 644.366L531.921 642.193Z" fill="#EEC981"/>
<path d="M517.789 614.476L517.789 603.064L577.027 603.064L577.027 616.65C577.027 616.65 568.876 629.278 546.051 628.606C531.269 628.172 520.869 618.281 517.789 614.476Z" fill="#EEC981"/>
<path d="M529.298 755.444L552.604 757.165L551.284 775.05L544.239 774.53L542.998 791.331L533.784 790.651L535.025 773.849L527.979 773.329L529.298 755.444Z" fill="#292929"/>
<path d="M582.708 588.021C581.653 606.799 565.251 621.148 546.072 620.071C526.893 618.994 512.201 602.899 513.255 584.121C513.936 571.989 516.99 574.341 518.621 575.277C520.252 576.214 520.796 548.106 522.97 542.128C525.144 536.149 534.924 532.888 552.315 534.518C569.706 536.149 580.575 542.127 580.575 549.191C580.575 556.256 578.401 581.67 579.488 581.256C580.575 580.842 583.399 575.707 582.708 588.021Z" fill="#292929"/>
<mask id="mask3" mask-type="alpha" maskUnits="userSpaceOnUse" x="513" y="534" width="70" height="87">
<path d="M582.708 588.021C581.653 606.799 565.251 621.148 546.072 620.071C526.893 618.994 512.201 602.899 513.255 584.121C513.936 571.989 516.99 574.341 518.621 575.277C520.252 576.214 520.796 548.106 522.97 542.128C525.144 536.149 534.924 532.888 552.315 534.518C569.706 536.149 580.575 542.127 580.575 549.191C580.575 556.256 578.401 581.67 579.488 581.256C580.575 580.842 583.399 575.707 582.708 588.021Z" fill="#292929"/>
</mask>
<g mask="url(#mask3)">
<path d="M527.571 534.589L512.898 593.825M533.007 534.589L511.813 619.368" stroke="black" stroke-width="1.08691"/>
<path d="M541.155 531.327L519.419 613.932M546.592 531.327L525.397 616.106" stroke="black" stroke-width="1.08691"/>
<path d="M554.198 531.327L529.745 623.715M559.635 531.327L535.723 628.063" stroke="black" stroke-width="1.08691"/>
<path d="M567.784 531.327L543.331 623.715M573.221 531.327L549.309 628.063" stroke="black" stroke-width="1.08691"/>
<path d="M579.742 531.326L555.289 623.714M585.179 531.326L561.267 628.062" stroke="black" stroke-width="1.08691"/>
<path d="M593.872 531.326L569.419 623.714M599.309 531.326L575.397 628.062" stroke="black" stroke-width="1.08691"/>
<path d="M515.073 534.59L607.462 559.043M515.073 529.153L611.809 553.065" stroke="black" stroke-width="1.08691"/>
<path d="M515.073 546.547L607.462 571M515.073 541.11L611.809 565.022" stroke="black" stroke-width="1.08691"/>
<path d="M515.073 558.503L607.462 582.956M515.073 553.066L611.809 576.978" stroke="black" stroke-width="1.08691"/>
<path d="M515.073 571.546L607.462 595.999M515.073 566.109L611.809 590.021" stroke="black" stroke-width="1.08691"/>
<path d="M506.378 582.415L598.766 606.868M506.378 576.978L603.114 600.89" stroke="black" stroke-width="1.08691"/>
<path d="M506.378 594.371L598.766 618.824M506.378 588.934L603.114 612.846" stroke="black" stroke-width="1.08691"/>
<path d="M506.378 606.327L598.766 630.78M506.378 600.89L603.114 624.802" stroke="black" stroke-width="1.08691"/>
</g>
<path d="M399.86 826.424C450.945 801.969 488.443 739.471 522.137 698.169" stroke="#F6DDD6" stroke-width="80.4312" stroke-linecap="round" stroke-linejoin="bevel"/>
</svg>
