<svg width="1200" height="1600" viewBox="0 0 1200 1600" fill="none" xmlns="http://www.w3.org/2000/svg">
<path d="M574.819 1077.75C643.756 1077.75 699.641 1052.82 699.641 1022.06C699.641 991.299 643.756 966.364 574.819 966.364C505.881 966.364 449.996 991.299 449.996 1022.06C449.996 1052.82 505.881 1077.75 574.819 1077.75Z" fill="#363636"/>
<path d="M654.777 1234.11L670.989 1405.65" stroke="#EBBAAA" stroke-width="58.3634" stroke-linecap="round" stroke-linejoin="bevel"/>
<path d="M524 1233.6L526.059 1434.18" stroke="#EBBAAA" stroke-width="58.3634" stroke-linecap="round" stroke-linejoin="bevel"/>
<path d="M435.373 959.739H581.282L570.474 1319.62L567.231 1384.75L484.55 1380.67L454.128 1268.93L435.373 959.739Z" fill="#363636"/>
<path d="M579.893 965.869H741.831L726.427 1285.84L708.817 1387.62H629L619.11 1325.22L579.893 965.869Z" fill="#363636"/>
<path opacity="0.2" fill-rule="evenodd" clip-rule="evenodd" d="M448.629 1075.65L477.228 995.529L494.018 1001.77L465.419 1075.65H448.629Z" fill="white"/>
<path opacity="0.2" fill-rule="evenodd" clip-rule="evenodd" d="M731.648 1075.65L703.049 995.529L686.259 1001.77L714.858 1075.65H731.648Z" fill="white"/>
<path d="M783.219 697.767C819.219 752.713 823.831 884.715 811.031 946.05" stroke="#EBBAAA" stroke-width="65" stroke-linecap="round" stroke-linejoin="bevel"/>
<path d="M500.03 620.05C395.83 660.572 373.211 758.736 387.211 944.736" stroke="#EBBAAA" stroke-width="65" stroke-linecap="round" stroke-linejoin="bevel"/>
<path d="M425.329 708.471C408.278 632.811 465.811 560.871 543.369 560.871H649.432C719.335 560.871 774.696 619.932 770.18 689.688L751.906 971.935C751.765 974.112 752.507 976.311 752.594 978.491C752.866 985.308 743.949 1000.64 658.219 1000.64C568.12 1000.64 481.001 1000.64 452.185 1000.64C446.662 1000.64 442.219 996.166 442.219 990.643L442.221 796.895C442.221 787.945 441.228 779.023 439.26 770.293L425.329 708.471Z" fill="#11151D"/>
<path d="M662.708 584.489C660.39 610.857 624.529 629.245 582.61 625.56C540.692 621.874 508.589 597.511 510.908 571.143C511.206 567.746 522.931 569.324 524.285 566.222C533.436 545.245 554.487 526.861 591.005 530.072C632.924 533.757 665.027 558.12 662.708 584.489Z" fill="#EBBAAA"/>
<path d="M597.655 614.735C601.117 611.325 603.901 610.258 607.79 608.906C613.501 606.92 621.989 607.098 626.472 602.985C638.807 591.667 645.03 576.471 645.03 576.471V558.831C645.03 558.831 675.212 562.889 712.212 569.68C749.212 576.471 768.058 607.108 768.058 607.108V989.143C768.058 989.143 752.296 1001.13 726.279 1001.13C700.261 1001.13 597.656 1015.01 597.656 1015.01L582.742 822.423C582.742 822.423 597.655 660.049 597.655 614.735Z" fill="#62605B"/>
<path d="M864.029 719.05L768.029 607.05L739.029 673.05L757.029 790.05L864.029 719.05Z" fill="#62605B"/>
<path d="M646.029 566.05L640.029 553.05L656.029 558.05C659.029 566.05 661.029 565.05 661.029 577.05C661.029 589.05 657.012 608.195 646.029 641.247C646.029 641.247 615.713 598.314 597.781 614.745C605.498 603.909 622.906 605.665 630.976 597.814C643.84 585.298 646.029 566.05 646.029 566.05Z" fill="#8E8A7D"/>
<path d="M586.254 608.044C586.254 608.044 537.235 607.183 522.031 586.685C506.827 566.187 522.031 555.986 522.031 555.986C522.031 555.986 501.211 563.816 461.211 575.25C421.211 586.685 380.211 640.239 380.211 640.239L428.364 671.804V990.835C428.364 990.835 444.126 1002.82 470.144 1002.82C496.161 1002.82 576.16 1019.98 576.16 1019.98C576.16 1019.98 581.451 893.375 585.451 827.458C589.451 761.541 586.254 608.044 586.254 608.044Z" fill="#62605B"/>
<path d="M436.393 792.873L328.211 720.736C328.211 720.736 361.813 661.079 376.211 644.736C390.609 628.392 429.211 603.736 429.211 603.736L454.393 675.873L436.393 792.873Z" fill="#62605B"/>
<path d="M525.995 563.05C524.566 557.552 531.045 550.05 531.045 550.05L517.579 555.05C515.054 563.05 508.173 573.251 508.173 585.251C508.173 597.251 525.995 612.487 552.914 636.891C575.769 605.961 573.091 608.167 586.439 607.739C555.4 603.408 553.41 605.153 539.674 598.889C525.938 592.624 527.424 568.548 525.995 563.05Z" fill="#8E8A7D"/>
<path d="M723.27 443.038C753.684 443.038 775.686 408.218 778.34 382.411C780.994 356.605 753.684 330.538 723.27 330.538C692.855 330.538 668.199 353.762 668.199 382.411C668.199 411.06 692.855 443.038 723.27 443.038Z" fill="#EBBAAA"/>
<path d="M465.775 448.988C435.36 448.988 413.358 414.168 410.704 388.361C408.05 362.555 435.36 336.488 465.775 336.488C496.19 336.488 520.846 359.712 520.846 388.361C520.846 417.011 496.19 448.988 465.775 448.988Z" fill="#EBBAAA"/>
<path d="M446.932 308.267C446.932 218.655 512.947 146.011 594.381 146.011C675.815 146.011 741.831 218.655 741.831 308.267L731.851 433.704C723.559 488.526 694.523 534.021 659.957 556.273C645.277 565.723 642.456 570.981 621.918 570.981H565.745C539.052 570.981 533.652 560.93 516.972 544.527C490.6 518.592 465.547 476.777 456.912 433.704L446.932 308.267Z" fill="#F4D4C9"/>
<path d="M721.42 266.189L715.755 186.032C714.899 173.92 708.711 169.854 726.345 197.824C743.979 225.793 742.547 305.608 738.472 340.267L735.617 384.486L734.444 379.011L732.133 327.081C723.198 308.358 723.233 291.839 721.42 266.189Z" fill="#272727"/>
<path d="M459.3 270.902C459.61 245.192 458.077 246.653 458.284 229.513C458.43 217.372 458.427 214.3 452.346 243.369C446.266 272.438 446.611 308.337 448.585 342.646L450.769 374.234L453.371 374.266L453.848 334.685C457.955 306.917 458.99 296.612 459.3 270.902Z" fill="#272727"/>
<path fill-rule="evenodd" clip-rule="evenodd" d="M590.881 124.613L590.88 124.612C590.816 124.612 590.752 124.612 590.688 124.612C590.624 124.612 590.56 124.612 590.496 124.612L590.496 124.613C549.673 124.773 451.929 150.439 448.256 270.549C459.11 255.754 456.888 256.877 471.778 247.222C483.755 239.455 489.239 226.834 521.251 218.6C553.264 210.367 569.514 220.561 590.496 220.561C606.863 220.561 626.019 213.111 648.937 220.561C671.855 228.01 688.523 241.457 699.139 247.222C720.763 258.964 715.489 248.51 736.624 266.012C732.951 145.901 631.701 124.773 590.881 124.613Z" fill="#272727"/>
<path d="M568.076 344.272L509.534 334.983L487.774 335.983" stroke="#393939" stroke-width="19.4545" stroke-linecap="round"/>
<path d="M614.274 344.272L672.817 334.983L694.577 335.983" stroke="#393939" stroke-width="19.4545" stroke-linecap="round"/>
<path d="M589.254 374.182L574.817 431.925C571.976 443.286 580.569 454.291 592.279 454.291H609.284" stroke="#EBBAAA" stroke-width="18.3737"/>
<path d="M573.137 378.319C578.615 377.821 592.73 377.123 605.371 378.319" stroke="black" stroke-width="10.808"/>
<path d="M607.38 379.047C604.437 368.445 611.929 358.057 622.868 357.57L687.084 354.711C698.023 354.224 706.902 363.884 705.441 374.682L702.257 398.207C701.162 406.302 694.49 412.375 686.289 412.74L631.666 415.171C623.465 415.536 615.996 410.094 613.79 402.145L607.38 379.047Z" fill="white" fill-opacity="0.29" stroke="black" stroke-width="8.64643"/>
<path d="M475.535 373.975C474.311 363.165 483.402 353.641 494.332 354.282L558.464 358.045C569.394 358.686 576.66 369.17 573.488 379.722L566.567 402.744C564.188 410.657 556.597 415.991 548.401 415.51L493.86 412.31C485.664 411.829 479.122 405.665 478.205 397.559L475.535 373.975Z" fill="white" fill-opacity="0.29" stroke="black" stroke-width="8.64643"/>
<path d="M707.138 377.307L741.459 342.985" stroke="black" stroke-width="11.8888" stroke-linecap="round"/>
<path d="M473.648 377.307L445.211 344.735" stroke="black" stroke-width="11.8888" stroke-linecap="round"/>
<path d="M510.004 380.841C513.523 379.006 523.498 376.435 535.247 380.841" stroke="#393939" stroke-width="12.6429" stroke-linecap="round"/>
<path d="M643.872 380.841C647.391 379.006 657.366 376.435 669.116 380.841" stroke="#393939" stroke-width="12.6429" stroke-linecap="round"/>
<path d="M553.457 502.369C577.92 508.523 598.944 509.63 623.699 502.369" stroke="#C99584" stroke-width="16.4746" stroke-linecap="round"/>
<path d="M474.246 167.5L466.227 200.876L588.013 177.17L729.276 211.62L728.201 183.783L718.053 180.018L717.408 169.352L704.828 170.112L703.832 153.63L687.658 154.607L683.302 142.22L668.925 143.088L659.627 131L645.035 135.774L640.073 128.289L624.798 129.211L624.27 120.485L604.13 130.46L598.212 122.06L589.753 131.329L580.24 123.145L563.694 132.903L552.384 124.828L541.23 134.26L533.143 134.749L524.626 143.048L520.563 135.509L506.283 152.914L496.164 149.633L484.277 169.327L474.246 167.5Z" fill="#272727"/>
<path d="M605.278 618.887L595.767 774.971L592.876 874.153L606.254 1049.83" stroke="white" stroke-opacity="0.2" stroke-width="15"/>
<circle cx="602.233" cy="673.989" r="4.0218" fill="#62605B"/>
<circle cx="598.211" cy="731.089" r="4.0218" fill="#62605B"/>
<circle cx="594.19" cy="788.189" r="4.0218" fill="#62605B"/>
<circle cx="593.276" cy="845.29" r="4.0218" fill="#62605B"/>
<circle cx="595.141" cy="898.432" r="4.0218" fill="#62605B"/>
<circle cx="598.006" cy="951.575" r="4.0218" fill="#62605B"/>
<circle cx="602.871" cy="1004.72" r="4.0218" fill="#62605B"/>
<path d="M781.831 910.539C806.042 907.755 820.679 913.567 827.725 918.549C835.486 914.931 846.826 905.109 838.403 895.857C829.98 886.604 798.368 885.47 786.613 885.459C780.033 894.903 779.332 902.139 781.831 910.539Z" fill="#AFAFAF"/>
<path d="M830.37 884.186C833.342 883.35 836.506 883.508 839.379 884.637L852.662 889.853C855.485 890.961 857.911 892.89 859.627 895.39C862.478 899.543 863.084 904.84 861.242 909.529L856.687 921.128C854.817 925.889 850.585 929.318 845.539 930.159C842.944 930.592 840.28 930.313 837.83 929.351L823.354 923.666C820.861 922.687 818.716 920.989 817.19 918.787C814.625 915.086 814.074 910.349 815.72 906.158L821.029 892.639C822.648 888.515 826.105 885.387 830.37 884.186Z" fill="#3C3C3C"/>
<rect x="833.811" y="888.867" width="29.719" height="30.6755" rx="14.8595" transform="rotate(21.4402 833.811 888.867)" fill="#AFB0B1"/>
<path d="M388.261 1489.87C388.061 1466.92 391.188 1452.95 411.137 1443.58C431.087 1434.2 449.878 1416.17 484.392 1400.71C484.392 1400.71 488.935 1399.85 496.33 1403.85C502.64 1407.27 510.746 1415.64 522.96 1415.53C536.222 1415.42 548.041 1412.61 555.384 1408.75C558.556 1400.06 565.594 1400 565.594 1400C565.594 1400 575.503 1418.86 575.669 1437.81C575.834 1456.76 575.817 1488.23 575.817 1488.23L388.261 1489.87Z" fill="#363636"/>
<path d="M478.293 1404.57C480.458 1409.44 480.458 1415.4 480.458 1419.19L462.052 1411.07L466.383 1426.77L449.6 1421.35V1437.05L436.607 1430.02V1443.55" stroke="white" stroke-width="5.41368" stroke-linecap="round" stroke-linejoin="round"/>
<path d="M569.784 1409.98C565.931 1415.22 552.039 1418.35 546.812 1419.11C541.586 1419.88 535.985 1419.21 538.226 1427.85C539.811 1433.96 555.041 1431.49 560.996 1431.44C565.838 1431.4 572.628 1446.03 575.156 1441.06C575.156 1424.06 571.949 1414.86 569.784 1409.98Z" fill="#D3B98C"/>
<path d="M395.809 1445.33C401.93 1443.12 408.411 1441.43 420.839 1438.62L415.558 1453.82L415.709 1471.15L380.336 1471.46C378.893 1471.47 376.314 1469.54 377.545 1461.74C379.084 1451.98 387.112 1448.49 395.809 1445.33Z" fill="#363636"/>
<path d="M446.656 1446.24L463.134 1477.66" stroke="white" stroke-width="17.3238"/>
<path d="M469.357 1434.35L489.104 1472.09" stroke="white" stroke-width="17.3238"/>
<path d="M491.592 1421.22L518.895 1474.41" stroke="white" stroke-width="17.3238"/>
<path d="M576.41 1485.27L575.383 1467.05L416.777 1469.51L377.231 1466.61L376.023 1480.59C375.606 1485.41 379.224 1489.64 384.055 1489.97L416.976 1492.25L572.153 1489.84C574.614 1489.81 576.548 1487.73 576.41 1485.27Z" fill="black"/>
<path d="M809.629 1489.87C809.829 1466.92 806.703 1452.95 786.753 1443.58C766.804 1434.2 748.012 1416.17 713.498 1400.71C713.498 1400.71 708.955 1399.85 701.56 1403.85C695.25 1407.27 687.144 1415.64 674.93 1415.53C661.668 1415.42 649.849 1412.61 642.506 1408.75C639.334 1400.06 632.296 1400 632.296 1400C632.296 1400 622.387 1418.86 622.221 1437.81C622.056 1456.76 622.073 1488.23 622.073 1488.23L809.629 1489.87Z" fill="#363636"/>
<path d="M719.597 1404.57C717.432 1409.44 717.432 1415.4 717.432 1419.19L735.838 1411.07L731.507 1426.77L748.29 1421.35V1437.05L761.283 1430.02V1443.55" stroke="white" stroke-width="5.41368" stroke-linecap="round" stroke-linejoin="round"/>
<path d="M628.106 1409.98C631.959 1415.22 645.851 1418.35 651.078 1419.11C656.304 1419.88 661.905 1419.21 659.664 1427.85C658.079 1433.96 642.849 1431.49 636.894 1431.44C632.052 1431.4 625.262 1446.03 622.734 1441.06C622.734 1424.06 625.941 1414.86 628.106 1409.98Z" fill="#D3B98C"/>
<path d="M802.081 1445.33C795.961 1443.12 789.479 1441.43 777.051 1438.62L782.332 1453.82L782.181 1471.15L817.554 1471.46C818.997 1471.47 821.577 1469.54 820.345 1461.74C818.806 1451.98 810.778 1448.49 802.081 1445.33Z" fill="#363636"/>
<path d="M751.234 1446.24L734.756 1477.66" stroke="white" stroke-width="17.3238"/>
<path d="M728.533 1434.35L708.786 1472.09" stroke="white" stroke-width="17.3238"/>
<path d="M706.298 1421.22L678.995 1474.41" stroke="white" stroke-width="17.3238"/>
<path d="M621.48 1485.27L622.507 1467.05L781.113 1469.51L820.659 1466.61L821.867 1480.59C822.284 1485.41 818.666 1489.64 813.835 1489.97L780.914 1492.25L625.737 1489.84C623.276 1489.81 621.342 1487.73 621.48 1485.27Z" fill="black"/>
</svg>
