<svg width="1200" height="1600" viewBox="0 0 1200 1600" fill="none" xmlns="http://www.w3.org/2000/svg">
<path d="M429.624 669.801C395.575 732.592 387.697 858.682 501.868 900.154" stroke="#EBBAAA" stroke-width="79.4664" stroke-linecap="round" stroke-linejoin="bevel"/>
<path d="M763.964 704.218C812.666 785.541 830.296 936.324 812.586 982.198" stroke="#EBBAAA" stroke-width="69.8015" stroke-linecap="round" stroke-linejoin="bevel"/>
<path d="M670.835 1236.6L686.943 1407.04" stroke="#EBBAAA" stroke-width="57.989" stroke-linecap="round" stroke-linejoin="bevel"/>
<path d="M540.897 1236.09V1392.88" stroke="#EBBAAA" stroke-width="57.989" stroke-linecap="round" stroke-linejoin="bevel"/>
<path fill-rule="evenodd" clip-rule="evenodd" d="M452.839 963.991H597.812L597.629 970.082H757.332L743.201 1296.94L724.529 1349.38L640.23 1355.96L635.398 1327.13L608.466 1080.35C603.827 1080.73 599.098 1080.99 594.294 1081.13L587.073 1321.57L583.851 1356.46L501.7 1352.42L473.022 1321.57L452.839 963.991Z" fill="#2E2E2D"/>
<mask id="mask0" mask-type="alpha" maskUnits="userSpaceOnUse" x="452" y="963" width="306" height="394">
<path fill-rule="evenodd" clip-rule="evenodd" d="M452.839 963.991H597.812L597.629 970.082H757.332L726.14 1318.03L724.529 1349.38L640.23 1355.96L635.398 1327.13L608.466 1080.35C603.827 1080.73 599.098 1080.99 594.294 1081.13L587.073 1321.57L583.851 1356.46L501.7 1352.42L495.794 1321.57L474.317 1142.78L452.839 963.991Z" fill="#2E2E2D"/>
</mask>
<g mask="url(#mask0)">
<path opacity="0.3" d="M608.867 1031.68H560.164L543.503 1039.37L592.205 1053.47L663.978 1031.68L640.908 1017.58L608.867 1031.68Z" fill="#C4C4C4"/>
<path opacity="0.3" d="M448.796 1053.26L429.29 1044.03L420.051 1053.26V1069.69H448.796L462.141 1079.96L516.549 1069.69L500.124 1027.6H484.725H469.327V1053.26H448.796Z" fill="#C4C4C4"/>
<path opacity="0.3" d="M486.195 1257.19L466.69 1247.95L457.451 1257.19V1273.61H486.195L499.54 1283.88L553.948 1273.61L537.523 1231.52H522.124H506.726V1257.19H486.195Z" fill="#C4C4C4"/>
<path opacity="0.3" d="M518.124 1153.85L498.619 1163.09L489.38 1153.85V1137.43H518.124L531.469 1127.16L585.877 1137.43L569.452 1179.52H554.053H538.655V1153.85H518.124Z" fill="#C4C4C4"/>
<path opacity="0.3" d="M488.142 1178.86H454.738L442.212 1188.04L459.749 1198.06V1207.25H482.296L498.997 1198.06L512.358 1212.26L525.719 1202.24L488.142 1178.86Z" fill="#C4C4C4"/>
<path opacity="0.3" d="M574.988 1073.61H541.584L529.058 1082.8L546.595 1092.82V1102.01H569.142L585.843 1092.82L599.204 1107.02L612.565 1096.99L574.988 1073.61Z" fill="#C4C4C4"/>
<path opacity="0.3" d="M558.421 1311.16H525.018L512.492 1320.35L530.029 1330.37V1339.55H552.576L569.277 1330.37L582.638 1344.56L595.999 1334.54L558.421 1311.16Z" fill="#C4C4C4"/>
<path opacity="0.3" d="M771.987 1053.26L791.492 1044.03L800.731 1053.26V1069.69H771.987L758.642 1079.96L704.234 1069.69L720.659 1027.6H736.057H751.456V1053.26H771.987Z" fill="#C4C4C4"/>
<path opacity="0.3" d="M734.588 1257.19L754.093 1247.95L763.332 1257.19V1273.61H734.588L721.243 1283.88L666.835 1273.61L683.26 1231.52H698.658H714.057V1257.19H734.588Z" fill="#C4C4C4"/>
<path opacity="0.3" d="M702.659 1153.85L722.164 1163.09L731.403 1153.85V1137.43H702.659L689.314 1127.16L634.906 1137.43L651.331 1179.52H666.729H682.128V1153.85H702.659Z" fill="#C4C4C4"/>
<path opacity="0.3" d="M732.641 1178.86H766.044L778.57 1188.04L761.034 1198.06V1207.25H738.487L721.785 1198.06L708.424 1212.26L695.063 1202.24L732.641 1178.86Z" fill="#C4C4C4"/>
<path opacity="0.3" d="M645.795 1073.61H679.198L691.724 1082.8L674.188 1092.82V1102.01H651.641L634.939 1092.82L621.578 1107.02L608.217 1096.99L645.795 1073.61Z" fill="#C4C4C4"/>
<path opacity="0.3" d="M662.361 1311.16H695.764L708.29 1320.35L690.754 1330.37V1339.55H668.207L651.506 1330.37L638.144 1344.56L624.783 1334.54L662.361 1311.16Z" fill="#C4C4C4"/>
</g>
<rect x="556.411" y="504.758" width="84.1214" height="119.899" rx="40.7115" fill="#EBBAAA"/>
<path d="M442.213 629.901C442.213 612.219 454.208 596.792 471.344 592.434L532.986 576.758C536.1 575.966 539.301 575.565 542.514 575.565H647.115C649.662 575.565 652.204 575.817 654.701 576.317L741.179 593.624C759.247 597.239 772.252 613.105 772.252 631.531V930.045C772.252 973.933 736.673 1009.51 692.785 1009.51H521.679C477.791 1009.51 442.213 973.933 442.213 930.045V629.901Z" fill="#484D5D"/>
<path fill-rule="evenodd" clip-rule="evenodd" d="M601.551 644.09C641.587 644.09 674.043 618.089 674.043 586.015C674.043 584.02 673.918 582.048 673.672 580.104L655.618 576.367C653.041 575.833 650.415 575.564 647.783 575.564H538.53C535.82 575.564 533.117 575.849 530.467 576.415L530.024 576.509C529.389 579.602 529.058 582.778 529.058 586.015C529.058 618.089 561.514 644.09 601.551 644.09Z" fill="#EBBAAA"/>
<path d="M406.071 626.472C415.939 603.123 443.724 591.392 468.795 599.99C493.862 608.586 507.136 634.393 498.763 658.252L453.057 798.654C443.666 825.414 407.849 844.512 379.44 835.666C349.827 826.445 334.574 795.634 346.111 768.338L406.071 626.472Z" fill="#484D5D"/>
<rect width="111.061" height="250.388" rx="55.5303" transform="matrix(-0.954783 0.297304 0.331148 0.943579 790.084 583.414)" fill="#484D5D"/>
<path opacity="0.2" fill-rule="evenodd" clip-rule="evenodd" d="M422.997 932.222C425.459 930.206 419.02 918.264 429.958 932.222L467.331 967.648C478.65 979.909 495.055 986.95 512.305 986.95L682.733 989.984C698.767 989.984 714.125 983.899 725.337 973.103L770.145 927.936C777.274 921.532 774.748 925.787 777.08 927.936C779.411 930.085 777.516 936.067 775.235 938.263L733.781 980.884C720.346 993.82 701.945 1001.11 682.733 1001.11L512.305 998.076C491.636 998.076 471.98 989.641 458.417 974.949L421.044 939.523C418.904 937.204 420.536 934.238 422.997 932.222Z" fill="white"/>
<path fill-rule="evenodd" clip-rule="evenodd" d="M418.257 837.516C437.12 826.955 443.418 802.06 460.501 819.737C470.82 836.092 490.326 855.849 516.164 865.234C536.638 872.671 546.835 894.334 538.939 913.62C531.044 932.906 508.045 942.511 487.571 935.074C445.129 919.657 414.903 894.131 395.468 863.328C384.256 845.56 399.393 848.076 418.257 837.516Z" fill="#EBBAAA"/>
<path d="M478.881 1097.24L477.383 1101.44H481.838H498.521H500.672L501.449 1099.43L529.865 1026.03L531.014 1023.06L528.03 1021.95L511.347 1015.75L508.366 1014.65L507.296 1017.64L478.881 1097.24Z" fill="#5B5B5B" stroke="#2E2E2D" stroke-width="6.28091"/>
<path d="M732.102 1097.24L733.6 1101.44H729.144H712.462H710.31L709.533 1099.43L681.117 1026.03L679.968 1023.06L682.952 1021.95L699.635 1015.75L702.616 1014.65L703.686 1017.64L732.102 1097.24Z" fill="#5B5B5B" stroke="#2E2E2D" stroke-width="6.28091"/>
<path d="M726.182 437.589C752.273 437.589 773.423 417.666 773.423 393.09C773.423 368.514 752.273 348.592 726.182 348.592C700.092 348.592 678.941 368.514 678.941 393.09C678.941 417.666 700.092 437.589 726.182 437.589Z" fill="#EBBAAA"/>
<path d="M480.317 450.687C452.786 450.687 430.468 429.665 430.468 403.732C430.468 377.8 452.786 356.777 480.317 356.777C507.848 356.777 530.166 377.8 530.166 403.732C530.166 429.665 507.848 450.687 480.317 450.687Z" fill="#EBBAAA"/>
<path d="M458.282 309.018C458.282 235.555 521.506 176.002 599.496 176.002C678.342 176.002 741.914 236.818 740.693 311.078L738.527 442.815C701.192 536.681 665.931 571.08 600.598 570.74C535.265 570.4 504.639 534.934 462.854 448.242L458.282 373.371V309.018Z" fill="#F4D4C9"/>
<path d="M450.874 295.108C450.626 290.157 455.468 286.04 461.527 286.04C467.814 286.04 472.734 290.457 472.14 295.569L462.101 382.177C461.933 383.625 460.448 384.725 458.675 384.725C456.824 384.725 455.309 383.536 455.23 382.031L450.874 295.108Z" fill="#272727"/>
<path d="M751.163 295.205C751.676 290.292 747.134 285.965 741.168 285.676C734.978 285.375 729.893 289.533 730.199 294.647L735.369 381.276C735.456 382.724 736.858 383.89 738.603 383.974C740.426 384.063 741.982 382.952 742.142 381.46L751.163 295.205Z" fill="#272727"/>
<path d="M659.008 384.725V396.078" stroke="black" stroke-width="21.4774" stroke-linecap="round"/>
<path d="M539.407 384.725V396.078" stroke="black" stroke-width="21.4774" stroke-linecap="round"/>
<path d="M576.725 347.67L508.224 338.338" stroke="#393939" stroke-width="19.3297" stroke-linecap="round"/>
<path d="M621.294 347.67L689.795 338.338" stroke="#393939" stroke-width="19.3297" stroke-linecap="round"/>
<path d="M604.876 371.16C595.397 408.512 569.125 453.195 617.881 453.195" stroke="#EBBAAA" stroke-width="18.2558"/>
<path d="M747.549 234.951C736.795 213.293 709.382 203.803 697.947 200.019L659.471 216.175C682.65 206.442 682.742 278.879 697.947 304.38C713.153 329.88 736.269 329.124 737.351 351.975C737.351 351.975 744.304 355.687 747.086 355.469C749.867 355.25 756.821 358.089 756.821 358.089C757.284 327.814 758.304 256.609 747.549 234.951Z" fill="#1E1E1E"/>
<path d="M452.925 265.954C467.296 182.553 525.706 174.693 554.447 166.396L483.984 262.461L463.761 352.507C454.954 340.863 445.498 309.062 452.925 265.954Z" fill="#181818"/>
<path d="M563.976 153.295C661.325 136.703 691.457 169.87 697.02 183.406C702.583 196.942 704.669 218.775 697.02 228.382C685.895 242.355 679.068 248.988 636.419 255.974C593.771 262.961 577.93 235.888 547.798 255.974C523.692 272.043 475.895 249.306 466.932 249.16C479.712 175.365 486.439 209.944 492.373 192.827C499.79 171.431 512.09 162.139 563.976 153.295Z" fill="#272727"/>
<path d="M528.211 146.862C520.671 183.273 555.634 173.975 540.023 176.756C524.411 179.536 614.806 203.404 550.72 195.534C486.634 187.665 559.742 229.481 562.478 219.461C565.214 209.441 576.559 199.878 576.559 199.878L619.646 180.659C618.877 176.966 598.969 178.149 576.429 173.167C571.805 168.225 551.523 166.546 528.211 146.862Z" fill="#272727"/>
<path d="M570.601 130.282C570.601 157.505 604.34 158.621 623.827 157.505L647.543 167.716C658.777 172.553 619.335 218.945 582.024 208.365C552.176 199.9 547.279 181.164 545.864 171.673C543.158 153.514 545.864 143.982 570.601 130.282Z" fill="#272727"/>
<path d="M646.542 490.198C646.843 492.608 648.44 498.332 652.416 501.947" stroke="#C99584" stroke-width="10.4682" stroke-linecap="round"/>
<path d="M563.394 490.198C563.023 492.608 561.058 498.332 556.163 501.947" stroke="#C99584" stroke-width="10.4682" stroke-linecap="round"/>
<path d="M560.23 495.62C567.009 499.988 586.031 506.917 608.131 506.917C630.725 506.917 644.131 498.783 648.349 495.62" stroke="#C99584" stroke-width="10.4682"/>
<path d="M668.224 706.123L749.43 702.431L749.503 777.107L677.672 776.288L668.224 706.123Z" fill="#6D717D"/>
<path opacity="0.3" d="M514.449 580.605C516.045 609.325 544.832 661.473 602.271 659.558C659.71 657.643 688.955 611.098 688.955 580.605" stroke="white" stroke-width="8.37454"/>
<circle cx="535.35" cy="1413.42" r="28.1297" fill="white"/>
<path d="M445.348 1467.83H576.676C574.925 1457.26 570.347 1428.83 570.347 1420.27C571.071 1410.68 572.423 1401.13 574.396 1391.7C575.52 1385.4 576.676 1378.93 577.112 1375.13C573.867 1375.24 567.614 1376.15 562.38 1376.92C554.71 1378.18 546.976 1379.05 539.211 1379.52C532.825 1379.26 526.524 1377.99 520.556 1375.75C515.674 1374.23 508.287 1371.93 507.678 1373.77C506.261 1377.39 504.535 1380.89 502.517 1384.23L507.983 1389.57C508.868 1390.43 509.216 1391.68 508.896 1392.86C508.576 1394.04 507.636 1394.96 506.434 1395.27C505.231 1395.58 503.949 1395.24 503.073 1394.38L498.908 1390.3C498.275 1391.33 497.612 1392.38 496.934 1393.45L502.212 1398.62C503.568 1399.94 503.568 1402.09 502.212 1403.42C500.856 1404.74 498.658 1404.74 497.302 1403.42L493.113 1399.32C492.314 1400.52 491.499 1401.72 490.669 1402.94L495.967 1408.12C496.844 1408.98 497.186 1410.23 496.865 1411.4C496.544 1412.57 495.608 1413.49 494.41 1413.8C493.212 1414.12 491.934 1413.78 491.057 1412.92L486.674 1408.64C485.93 1409.67 485.18 1410.71 484.422 1411.73L489.609 1416.81C490.486 1417.66 490.828 1418.91 490.507 1420.09C490.186 1421.26 489.25 1422.17 488.052 1422.49C486.854 1422.8 485.576 1422.47 484.699 1421.61L480.25 1417.26C479.371 1418.39 478.491 1419.51 477.611 1420.6L482.971 1425.84C484.327 1427.17 484.327 1429.32 482.971 1430.65C481.615 1431.97 479.417 1431.97 478.061 1430.65L473.208 1425.9C472.141 1427.14 471.087 1428.32 470.047 1429.44L475.581 1434.86C476.471 1435.71 476.823 1436.97 476.504 1438.15C476.185 1439.33 475.243 1440.25 474.036 1440.56C472.83 1440.87 471.545 1440.53 470.671 1439.66L465.235 1434.34C463.955 1435.55 462.612 1436.7 461.213 1437.78L465.164 1441.65C466.054 1442.5 466.407 1443.76 466.088 1444.94C465.768 1446.12 464.826 1447.04 463.62 1447.36C462.414 1447.67 461.129 1447.32 460.254 1446.45L455.044 1441.36C449.698 1443.8 444.015 1445.47 438.175 1446.31C437.574 1450.96 436.269 1455.5 434.303 1459.78C432.956 1462.48 431.221 1464.99 429.151 1467.22C435.388 1467.61 442.409 1467.83 445.348 1467.83ZM527.674 1460.05C527.341 1460.35 526.952 1460.6 526.528 1460.76C525.687 1461.12 524.729 1461.12 523.888 1460.76C523.468 1460.59 523.081 1460.35 522.744 1460.05C522.109 1459.4 521.75 1458.54 521.736 1457.64C521.742 1457.42 521.765 1457.2 521.806 1456.99C521.838 1456.77 521.907 1456.55 522.013 1456.34C522.089 1456.13 522.195 1455.92 522.326 1455.73C522.465 1455.56 522.604 1455.39 522.743 1455.23C524.136 1453.97 526.281 1453.97 527.674 1455.23C527.823 1455.39 527.962 1455.56 528.089 1455.73C528.221 1455.92 528.326 1456.13 528.403 1456.34C528.508 1456.55 528.578 1456.77 528.611 1456.99C528.651 1457.2 528.674 1457.42 528.681 1457.64C528.667 1458.54 528.307 1459.4 527.674 1460.05ZM548.507 1460.05C547.146 1461.38 544.938 1461.38 543.577 1460.05C542.216 1458.72 542.216 1456.56 543.577 1455.23C544.938 1453.89 547.146 1453.89 548.507 1455.23C549.146 1455.87 549.507 1456.74 549.514 1457.64C549.5 1458.54 549.141 1459.4 548.507 1460.05ZM535.625 1386.31C550.966 1386.31 563.403 1398.48 563.403 1413.48C563.403 1428.49 550.966 1440.65 535.625 1440.65C520.284 1440.65 507.848 1428.49 507.848 1413.48C507.865 1398.48 520.291 1386.33 535.625 1386.31Z" fill="#2E2E2D"/>
<path d="M420.111 1466.39C423.361 1463.78 426.044 1460.55 428.004 1456.91C429.45 1453.77 430.468 1450.46 431.033 1447.06C425.223 1447.44 418.681 1447.45 410.623 1447.45C395.685 1447.45 388.106 1454.32 384.778 1458.73L418.323 1466.04C418.911 1466.2 419.508 1466.31 420.111 1466.39Z" fill="#C4C6D0"/>
<path d="M445.345 1474.62C443.626 1474.62 429.463 1474.32 421.249 1473.4C421.18 1473.41 421.113 1473.43 421.045 1473.43C420.866 1473.41 420.69 1473.37 420.518 1473.31C419.186 1473.18 417.866 1472.94 416.569 1472.62L382.845 1465.27V1484.81C382.843 1486.07 383.559 1487.23 384.702 1487.82L404.36 1491.67C413.305 1493.38 422.358 1494.49 431.456 1495H577.288C577.288 1481.41 577.288 1491.67 577.288 1481.41V1474.62H445.345ZM552.983 1488.21H434.928C433.011 1488.21 431.456 1486.69 431.456 1484.81C431.456 1482.94 433.011 1481.41 434.928 1481.41H552.983C554.901 1481.41 556.455 1482.94 556.455 1484.81C556.455 1486.69 554.901 1488.21 552.983 1488.21Z" fill="#C4C6D0"/>
<path d="M535.06 1396.68L531.138 1408.25H518.445L528.713 1415.4L524.791 1426.97L535.06 1419.82L545.329 1426.97L541.406 1415.4L551.675 1408.25H538.982L535.06 1396.68Z" fill="#2E2E2D"/>
<circle r="28.1297" transform="matrix(-1 0 0 1 690.312 1413.42)" fill="white"/>
<path d="M780.314 1467.83H648.986C650.737 1457.26 655.315 1428.83 655.315 1420.27C654.591 1410.68 653.239 1401.13 651.266 1391.7C650.142 1385.4 648.986 1378.93 648.55 1375.13C651.795 1375.24 658.048 1376.15 663.282 1376.92C670.952 1378.18 678.686 1379.05 686.451 1379.52C692.837 1379.26 699.137 1377.99 705.106 1375.75C709.988 1374.23 717.375 1371.93 717.984 1373.77C719.401 1377.39 721.127 1380.89 723.145 1384.23L717.679 1389.57C716.794 1390.43 716.446 1391.68 716.766 1392.86C717.086 1394.04 718.026 1394.96 719.228 1395.27C720.431 1395.58 721.713 1395.24 722.589 1394.38L726.754 1390.3C727.387 1391.33 728.05 1392.38 728.728 1393.45L723.45 1398.62C722.094 1399.94 722.094 1402.09 723.45 1403.42C724.806 1404.74 727.004 1404.74 728.36 1403.42L732.549 1399.32C733.348 1400.52 734.162 1401.72 734.993 1402.94L729.695 1408.12C728.818 1408.98 728.476 1410.23 728.797 1411.4C729.118 1412.57 730.054 1413.49 731.252 1413.8C732.45 1414.12 733.728 1413.78 734.605 1412.92L738.988 1408.64C739.732 1409.67 740.482 1410.71 741.24 1411.73L736.053 1416.81C735.176 1417.66 734.834 1418.91 735.155 1420.09C735.476 1421.26 736.412 1422.17 737.61 1422.49C738.808 1422.8 740.086 1422.47 740.963 1421.61L745.412 1417.26C746.291 1418.39 747.171 1419.51 748.051 1420.6L742.691 1425.84C741.335 1427.17 741.335 1429.32 742.691 1430.65C744.047 1431.97 746.245 1431.97 747.601 1430.65L752.454 1425.9C753.521 1427.14 754.575 1428.32 755.615 1429.44L750.081 1434.86C749.191 1435.71 748.839 1436.97 749.158 1438.15C749.477 1439.33 750.419 1440.25 751.626 1440.56C752.832 1440.87 754.117 1440.53 754.991 1439.66L760.427 1434.34C761.707 1435.55 763.05 1436.7 764.449 1437.78L760.498 1441.65C759.608 1442.5 759.255 1443.76 759.574 1444.94C759.894 1446.12 760.836 1447.04 762.042 1447.36C763.248 1447.67 764.533 1447.32 765.408 1446.45L770.618 1441.36C775.964 1443.8 781.647 1445.47 787.487 1446.31C788.088 1450.96 789.393 1455.5 791.359 1459.78C792.706 1462.48 794.441 1464.99 796.511 1467.22C790.274 1467.61 783.253 1467.83 780.314 1467.83ZM697.988 1460.05C698.321 1460.35 698.71 1460.6 699.134 1460.76C699.975 1461.12 700.933 1461.12 701.774 1460.76C702.194 1460.59 702.581 1460.35 702.918 1460.05C703.553 1459.4 703.912 1458.54 703.926 1457.64C703.92 1457.42 703.897 1457.2 703.856 1456.99C703.824 1456.77 703.754 1456.55 703.649 1456.34C703.573 1456.13 703.467 1455.92 703.336 1455.73C703.197 1455.56 703.058 1455.39 702.919 1455.23C701.526 1453.97 699.381 1453.97 697.988 1455.23C697.839 1455.39 697.7 1455.56 697.573 1455.73C697.441 1455.92 697.336 1456.13 697.259 1456.34C697.154 1456.55 697.084 1456.77 697.051 1456.99C697.011 1457.2 696.987 1457.42 696.981 1457.64C696.995 1458.54 697.355 1459.4 697.988 1460.05ZM677.155 1460.05C678.516 1461.38 680.724 1461.38 682.085 1460.05C683.446 1458.72 683.446 1456.56 682.085 1455.23C680.724 1453.89 678.516 1453.89 677.155 1455.23C676.516 1455.87 676.155 1456.74 676.148 1457.64C676.162 1458.54 676.521 1459.4 677.155 1460.05ZM690.037 1386.31C674.696 1386.31 662.259 1398.48 662.259 1413.48C662.259 1428.49 674.696 1440.65 690.037 1440.65C705.378 1440.65 717.814 1428.49 717.814 1413.48C717.797 1398.48 705.371 1386.33 690.037 1386.31Z" fill="#2E2E2D"/>
<path d="M805.551 1466.39C802.301 1463.78 799.618 1460.55 797.658 1456.91C796.212 1453.77 795.194 1450.46 794.629 1447.06C800.439 1447.44 806.981 1447.45 815.039 1447.45C829.977 1447.45 837.556 1454.32 840.884 1458.73L807.339 1466.04C806.751 1466.2 806.154 1466.31 805.551 1466.39Z" fill="#C4C6D0"/>
<path d="M780.317 1474.62C782.036 1474.62 796.199 1474.32 804.413 1473.4C804.482 1473.41 804.549 1473.43 804.617 1473.43C804.796 1473.41 804.972 1473.37 805.144 1473.31C806.476 1473.18 807.796 1472.94 809.093 1472.62L842.817 1465.27V1484.81C842.819 1486.07 842.103 1487.23 840.96 1487.82L821.302 1491.67C812.357 1493.38 803.304 1494.49 794.206 1495H648.374C648.374 1481.41 648.374 1491.67 648.374 1481.41V1474.62H780.317ZM672.679 1488.21H790.734C792.651 1488.21 794.206 1486.69 794.206 1484.81C794.206 1482.94 792.651 1481.41 790.734 1481.41H672.679C670.761 1481.41 669.207 1482.94 669.207 1484.81C669.207 1486.69 670.761 1488.21 672.679 1488.21Z" fill="#C4C6D0"/>
<path d="M691.593 1396.68L695.516 1408.25H708.208L697.94 1415.4L701.862 1426.97L691.593 1419.82L681.325 1426.97L685.247 1415.4L674.978 1408.25H687.671L691.593 1396.68Z" fill="#2E2E2D"/>
</svg>
