<svg width="1200" height="1600" viewBox="0 0 1200 1600" fill="none" xmlns="http://www.w3.org/2000/svg">
<rect x="554.879" y="547" width="86.2658" height="67.6518" fill="#EBBAAA"/>
<path d="M583.559 1088.08C648.991 1088.08 702.034 1064.41 702.034 1035.22C702.034 1006.03 648.991 982.358 583.559 982.358C518.127 982.358 465.084 1006.03 465.084 1035.22C465.084 1064.41 518.127 1088.08 583.559 1088.08Z" fill="#445A73"/>
<path d="M659.451 1236.49L676 1418.5" stroke="#EBBAAA" stroke-width="55.3955" stroke-linecap="round" stroke-linejoin="bevel"/>
<path d="M535.324 1236V1410.5" stroke="#EBBAAA" stroke-width="55.3955" stroke-linecap="round" stroke-linejoin="bevel"/>
<path d="M451.205 976.07L615.429 964.27L579.435 1317.65L568.5 1390.5H500L463.5 1205.5L451.205 976.07Z" fill="#445A73"/>
<path d="M588.375 981.889H742.079L733 1206.5L705 1388.5H633.5L625.598 1322.97L588.375 981.889Z" fill="#445A73"/>
<path opacity="0.2" fill-rule="evenodd" clip-rule="evenodd" d="M463.785 1086.08L490.93 1010.04L506.866 1015.96L479.721 1086.08H463.785Z" fill="white"/>
<path opacity="0.2" fill-rule="evenodd" clip-rule="evenodd" d="M732.414 1086.08L705.269 1010.04L689.333 1015.96L716.478 1086.08H732.414Z" fill="white"/>
<path d="M512.698 585.175C541.287 579.451 570.327 590.326 589.443 612.342C622.453 650.359 615.564 708.54 574.589 737.797L463.087 817.413L354.714 811.215L369.981 713.357C369.981 713.357 375.974 641.285 409.434 617.73C428.943 603.996 476.462 592.432 512.698 585.175Z" fill="#030303"/>
<path d="M678.414 584.943C650.401 579.384 621.954 589.996 603.161 611.501C570.431 648.955 577.239 706.489 617.806 735.269L728.015 813.455L835.293 807.359L820.18 711.112C820.18 711.112 814.248 640.227 781.126 617.06C761.726 603.49 714.344 592.074 678.414 584.943Z" fill="#030303"/>
<path d="M807.5 820L747.5 815V794L800.5 801L835 796.5L845.5 815L807.5 820Z" fill="#282828"/>
<path d="M384.653 830L452 824.423V801L392.51 808.808L353.786 803.788L342 824.423L384.653 830Z" fill="#282828"/>
<path d="M455.562 683.228C459.834 626.103 507.43 581.934 564.715 581.934H639.169C699.621 581.934 748.626 630.939 748.626 691.391V837.84L748.627 1050.04L444.001 1040.04L444 837.84L455.562 683.228Z" fill="black"/>
<mask id="mask0" mask-type="alpha" maskUnits="userSpaceOnUse" x="443" y="581" width="306" height="477">
<path d="M455.486 683.322C458.418 643.602 480.161 598.655 513.69 581.921C538.414 581.921 547.149 581.921 564.647 581.921H639.541C656.725 581.921 675.556 581.921 688.968 584.577C725.406 602.345 748.999 648.111 748.999 691.378V841.713L748.999 1057.14L443.798 1046.99L443.797 841.713L455.486 683.322Z" fill="#393939"/>
</mask>
<g mask="url(#mask0)">
<path d="M680.239 588.98C680.239 630.64 633.286 651.434 589 651.434C584.5 647.434 570.091 642.29 557.5 634.934C530.693 619.272 513.152 597.454 519.862 588.98C519.862 547.321 555.764 513.55 600.05 513.55C644.337 513.55 680.239 547.321 680.239 588.98Z" fill="#EBBAAA"/>
</g>
<path fill-rule="evenodd" clip-rule="evenodd" d="M600.125 647.383C638.371 647.383 669.376 622.544 669.376 591.905C669.376 586.353 668.358 580.991 666.463 575.934L637.999 572.434H561.097C558.044 572.434 555.002 572.812 552.042 573.561L532.944 578.391C531.593 582.717 530.875 587.244 530.875 591.905C530.875 622.544 561.879 647.383 600.125 647.383Z" fill="#EBBAAA"/>
<path d="M473.9 1090.73L479.5 1205L510.5 1375" stroke="#697B8F" stroke-width="4" stroke-dasharray="8 9"/>
<path d="M725.566 1090.31L719.5 1206L693 1375" stroke="#697B8F" stroke-width="4" stroke-dasharray="8 9"/>
<path d="M553.311 412.997C553.311 440.057 542.575 467.187 514.047 467.187C485.519 467.187 450 440.057 450 412.997C450 385.936 473.127 364 501.655 364C530.184 364 553.311 385.936 553.311 412.997Z" fill="#EBBAAA"/>
<path d="M648 408.997C648 436.057 658.735 463.187 687.263 463.187C715.792 463.187 751.311 436.057 751.311 408.997C751.311 381.936 728.184 360 699.655 360C671.127 360 648 381.936 648 408.997Z" fill="#EBBAAA"/>
<path d="M476.289 336.38C472.865 264.86 529.928 205 601.53 205C674.959 205 732.672 267.816 726.467 340.981L718.705 432.5L708.426 479.25C703.488 506.962 685.265 530.487 659.667 542.194L631.333 555.153C621.468 559.665 610.747 562 599.899 562C588.92 562 578.073 559.608 568.112 554.99L542.973 543.336C515.991 530.828 496.34 506.507 489.779 477.5L483.788 447.174C481.858 437.405 480.65 427.506 480.174 417.559L476.289 336.38Z" fill="#EED4CC"/>
<mask id="mask1" mask-type="alpha" maskUnits="userSpaceOnUse" x="476" y="205" width="251" height="357">
<path d="M476.289 336.38C472.865 264.86 529.928 205 601.53 205C674.959 205 732.672 267.816 726.467 340.981L718.705 432.5L708.426 479.25C703.488 506.962 685.265 530.487 659.667 542.194L631.333 555.153C621.468 559.665 610.747 562 599.899 562C588.92 562 578.073 559.608 568.112 554.99L542.973 543.336C515.991 530.828 496.34 506.507 489.779 477.5L483.788 447.174C481.858 437.405 480.65 427.506 480.174 417.559L476.289 336.38Z" fill="#EED4CC"/>
</mask>
<g mask="url(#mask1)">
<path d="M578.999 547.5C574.599 548.3 563.5 546.5 560 550C554.5 559.5 576.4 567.5 600 567.5C623.6 567.5 643.999 553.889 638.999 550C634.499 546.5 623.499 549 618.999 547.5C614.524 546.008 612.5 537.5 600 537.5C587.5 537.5 584.499 546.5 578.999 547.5Z" fill="#CBBAB5" fill-opacity="0.45"/>
</g>
<path d="M582 499C596.5 502.5 606.5 502 620 499" stroke="#C99584" stroke-width="15.3993" stroke-linecap="round"/>
<path d="M650 401H652" stroke="black" stroke-width="24" stroke-linecap="round"/>
<path d="M550 401H552" stroke="black" stroke-width="24" stroke-linecap="round"/>
<path d="M625.964 239.644C687.046 238.09 680.062 320.993 712 333C729.269 329.5 715.29 375 726.269 375C728.138 370.784 730.002 369.5 734.001 372.5C748.001 366 746 269 698.324 220.541C685.353 207.356 667.883 201.439 654.908 207.988C640.222 215.402 611.492 226.545 625.964 239.644Z" fill="#393939"/>
<path d="M720.221 403.468C723.623 393.291 722.27 374.616 722.5 365.5L726.669 363.472C727.067 371.676 726.286 392.26 725.274 399.706C724.008 409.015 716.965 413.207 720.221 403.468Z" fill="#393939"/>
<path d="M479.907 407.498C477.284 397.121 480.027 378.646 480.48 369.56L476.485 367.231C475.475 375.362 474.712 395.896 475.162 403.379C475.724 412.732 482.417 417.429 479.907 407.498Z" fill="#1F1F20"/>
<path d="M577.004 239.429C495.2 216.639 520.588 331.757 490.5 344.5C473.5 341 486.959 376 475.892 376C474.158 372.087 471.5 372.5 465.5 378C462.5 380.5 459.567 353.483 459.499 341C459.346 312.994 465.5 239.43 505 216.5C521.102 207.153 534.748 200.881 547.827 207.49C562.631 214.97 591.592 226.213 577.004 239.429Z" fill="#1F1F20"/>
<path d="M604.228 161C539.267 161 498.324 225.789 495.048 249.661C491.773 273.534 496.687 286.904 502.692 301.692C508.697 316.48 521.798 335.456 537.083 335.456C544.456 335.456 576.388 336.68 584.576 335.456C592.765 334.232 607.895 320.668 612.417 320.668C616.938 320.668 620.605 335.456 634.253 335.456C645.641 335.456 668.098 331.686 675.741 324.341C683.383 316.995 713.408 254.559 705.765 231.298C698.123 208.037 669.19 161 604.228 161Z" fill="#1F1F20"/>
<path d="M600.09 418C589.867 436.038 586.759 459.229 606.274 459.229" stroke="#EBBAAA" stroke-width="17"/>
<path d="M643.427 359.374L630.969 367.744L633.17 370.601L650.923 366.379L665.389 365.389L682.349 364.228L672.845 349.843L643.427 359.374Z" fill="#393939"/>
<path d="M557.958 359.736L570.307 368.456L568.011 371.249L550.206 366.527L535.632 365.128L518.545 363.488L528.521 349.377L557.958 359.736Z" fill="#393939"/>
<path d="M589.5 392.5C592 395.5 596.5 396.5 600.5 396.5C605 396.5 609 396 611.5 392.5" stroke="#856A5A" stroke-width="4" stroke-linecap="round"/>
<path d="M610.855 395.581C609.876 392.505 611.501 389.222 614.579 388.25C622.948 385.607 639.481 380.922 654.063 380.017C671.502 378.934 686.958 381.694 694.338 383.351C697.046 383.959 698.83 386.449 698.692 389.222L697.658 410.097C697.48 413.686 695.378 416.884 692.008 418.134C686.153 420.306 675.545 423.582 660.407 425.711C644.026 428.015 631.309 426.319 624.746 424.965C621.615 424.318 619.249 421.928 618.279 418.882L610.855 395.581Z" fill="white" fill-opacity="0.25"/>
<path d="M616.715 415.9C615.151 411.935 610.141 394.863 611.559 392.232C613.331 388.943 626.289 382.439 652.849 380.154C678.161 377.975 695.896 380.283 698.536 386.273C700.503 390.734 698.998 401.774 697.466 409.384" stroke="#3F2C25" stroke-width="4"/>
<path d="M590.593 396.307C591.613 393.244 590.029 389.94 586.964 388.927C578.539 386.143 561.787 381.152 546.974 380.04C529.263 378.711 513.523 381.324 506.045 382.906C503.329 383.48 501.511 385.948 501.613 388.722L502.394 410.04C502.526 413.631 504.588 416.858 507.94 418.153C513.833 420.431 524.567 423.91 539.946 426.276C556.577 428.834 569.521 427.262 576.172 425.972C579.31 425.363 581.707 423.004 582.717 419.97L590.593 396.307Z" fill="white" fill-opacity="0.25"/>
<path d="M584.362 416.902C586 412.903 591.302 395.664 589.899 392.978C588.145 389.621 575.096 382.859 548.203 380.195C522.574 377.655 504.567 379.762 501.812 385.8C499.76 390.296 501.141 401.506 502.594 409.24" stroke="#3F2C25" stroke-width="4"/>
<path d="M640 636.5C625.6 638.1 600 647.167 589 651.5C598.667 653.667 622.6 656.7 641 651.5C664 645.001 700.5 618 711.5 609C722.5 600 750.258 614.524 744 597C731.5 562 709.5 557.167 694.5 551.5C694.5 545.5 690.4 544 684 544C677.6 544 659.5 550.5 641 553.5V573.5C645.5 573.167 655.9 574.7 661.5 583.5C668.5 594.5 658 634.5 640 636.5Z" fill="#FCF6EF"/>
<path d="M536 616C547.2 617.6 576.334 639.833 589 651.5C583 648 535.5 630 520.5 631C505.501 632 529 618.566 520.5 616C512.001 613.434 462.935 597.628 448.999 601.5C440 604 439.479 602.557 442.5 595C443.499 592.5 437 593 439.499 588.5C442.881 582.411 450.498 577 473.999 575C480.999 572.5 480.498 567.223 490.499 560C497.699 554.8 505 557.5 510 557.5H510.001C513.5 557.5 520.501 557.5 527.501 555.5C537.662 552.597 545.499 553 555 553V573C550.333 574 540 577.3 536 582.5C531 589 522 614 536 616Z" fill="#FCF6EF"/>
<path d="M776.5 858.5C759.833 901.333 683 945.5 618.5 956.5" stroke="#EBBAAA" stroke-width="65" stroke-linecap="round"/>
<path d="M780 831.5L737 829L744 841L734 846L729 861L780 875.5L812.5 907.5L827.5 892.5L812.5 881.5H827.5L834.5 861L780 831.5Z" fill="#FCF6EF"/>
<path d="M632.721 643C632.388 643.5 631.621 644.8 631.221 646C630.821 647.2 631.054 725.167 631.221 764" stroke="#D1C9C1" stroke-width="5" stroke-linecap="round"/>
<path d="M564.5 637.5C565 637.833 567 640.5 567 642C567 644.062 566.5 704.333 566.5 735.5" stroke="#D1C9C1" stroke-width="5" stroke-linecap="round"/>
<path d="M526.673 962.142C523.979 959.237 523.532 948.353 526.65 940.061C531.96 939.116 542.153 938.184 547.104 942.962C553.293 948.935 554.221 959.499 550.046 963.274C545.871 967.049 530.039 965.774 526.673 962.142Z" fill="#E6E6EB"/>
<path d="M532.984 785.644C551.759 780.543 577.909 788.782 588.637 793.538C591.331 837.834 595.492 929.6 590.585 942.297C584.452 958.167 545.441 945.84 528.929 944.226C512.417 942.612 496.368 927.476 469.953 908.445C443.539 889.413 450.689 871.503 457.888 868.642C465.087 865.781 465.07 848.796 473.776 823.343C482.481 797.89 509.517 792.02 532.984 785.644Z" fill="#171723"/>
<path d="M695.001 754C686.626 746.826 673.626 745.665 667.193 744.268L635.382 730.778L616.953 747.816C611.134 760.901 596.248 793.54 572.704 787.853C553.234 783.15 547.667 784.787 535.794 803.483C529.857 812.831 533.316 838.042 542.295 851.715C551.274 865.389 564.374 891.223 560.034 894.264C551.683 900.115 548.793 940.977 568.324 938.409C587.855 935.842 595.019 944.07 605.833 948.079C612.079 950.394 619.894 948.481 619.629 955.479C619.364 962.478 623.103 968.81 631.629 968.563C640.156 968.317 644.723 966.882 644.648 960.513C644.572 954.069 641.852 949.433 646.437 947.9C651.022 946.367 651.731 948.057 657.373 951.041C663.016 954.025 672.349 954.448 675.468 945.585C677.126 940.871 677.604 934.011 671.573 931.176C666.616 928.846 673.337 928.38 680.298 925.485C687.259 922.591 699.984 925.302 709.206 906.473C718.427 887.644 712.368 875.624 710.086 869.477C707.804 863.331 712.888 851.436 721.646 844.429C730.403 837.422 741.531 822.26 742.909 807.413C744.287 792.566 738.001 783 731.227 776.885C725.091 771.346 717.029 768.971 712.001 768.5C706.973 768.029 702.065 760.051 695.001 754Z" fill="#FDFDFF"/>
<path d="M584.028 775.84C587.939 772.901 596.547 770.822 600.363 770.151L606.183 782.137C601.498 784.95 590.844 791.412 585.711 794.76C580.578 798.108 571.253 820.287 567.233 830.958C567.502 828.489 568.176 822.94 568.717 820.493C569.258 818.047 571.831 809.37 573.05 805.338L563.485 819.751C564.317 814.451 567.741 801.722 574.771 793.208C581.801 784.695 592.862 777.416 597.514 774.841C594.921 775.444 588.887 777.16 585.492 779.202C582.097 781.243 574.39 785.633 570.961 787.573C573.687 784.886 580.117 778.779 584.028 775.84Z" fill="#171723"/>
<path d="M598.029 759.84C601.94 756.901 610.548 754.822 614.364 754.151L620.185 766.137C615.499 768.95 604.846 775.412 599.712 778.76C594.579 782.108 585.255 804.287 581.234 814.958C581.503 812.489 582.177 806.94 582.718 804.493C583.259 802.047 585.833 793.37 587.052 789.338L577.486 803.751C578.319 798.451 581.742 785.722 588.772 777.208C595.803 768.695 606.863 761.416 611.515 758.841C608.922 759.444 602.888 761.16 599.493 763.202C596.098 765.243 588.391 769.633 584.962 771.573C587.688 768.886 594.119 762.779 598.029 759.84Z" fill="#171723"/>
<path d="M595.302 695.253C593.898 703.788 605.407 721.514 611.337 729.31L627.012 743.665C629.467 742.315 636.329 739.212 644.127 737.601C651.925 735.99 663.234 741.443 667.914 744.372L660.225 733.576C656.381 728.179 648.433 729.477 648.6 726.59C648.767 723.702 637.029 705.539 630.977 700.313C624.925 695.087 608.188 671.12 601.361 673.063C594.535 675.007 597.058 684.584 595.302 695.253Z" fill="#171723"/>
<path d="M626.871 741.218C618.65 728.018 577.105 708.926 557.36 701.031C546.014 702.333 581.6 754.206 585.214 768.062C588.829 781.919 602.023 794.951 595.947 800.155C589.871 805.358 591.413 818.436 597.671 825.632C603.929 832.827 610.728 837.916 607.58 849.843C604.433 861.77 605.656 861.701 613.295 857.447C620.935 853.193 626.174 860.73 653.362 872.593C680.551 884.456 673.868 893.94 680.285 889.756C686.701 885.571 679.817 863.972 684.218 848.341C688.619 832.71 680.838 831.121 677.326 818.249C673.815 805.377 690.212 794.117 676.142 788.967C662.073 783.817 662.161 769.515 652.029 760.557C641.896 751.598 636.311 772.156 627.026 760.649C617.74 749.142 637.146 757.718 626.871 741.218Z" fill="#171723"/>
<path d="M591 789.999C588.201 795.199 591.167 803.166 593 806.5L602.501 799.5L595.501 783C595.167 783.166 593.8 784.799 591 789.999Z" fill="#171723"/>
<path d="M723.703 809.061C724.327 811.868 727.046 817.414 723.705 819.573C721.633 820.912 721.908 833.673 709.033 831.775" stroke="#665258" stroke-linecap="round"/>
<path d="M725.001 818C726.068 821.715 729.161 828.898 733.001 827.907" stroke="#665258" stroke-linecap="round"/>
<path d="M665.209 794.211C667.658 797.469 672.007 797.601 671.501 801.168C672.011 803.424 666.135 803.076 663.758 804.437C661.382 805.799 663.252 808.005 654.351 807.47C645.45 806.935 640.647 792.91 649.882 787.669C659.117 782.429 662.76 790.952 665.209 794.211Z" fill="#EBEBFF"/>
<path d="M647.181 796.447C647.681 792.918 648.273 788.748 653.399 788.166C661.207 787.637 663.638 794.2 663.331 798.738C663.023 803.275 659.227 806.337 654.238 805.956C649.248 805.576 646.68 799.975 647.181 796.447Z" fill="#6974F5"/>
<path d="M649.347 796.57C649.718 793.953 650.157 790.862 653.859 790.416C659.498 790.003 661.236 794.859 661.001 798.223C660.767 801.586 658.017 803.865 654.416 803.597C650.815 803.328 648.976 799.186 649.347 796.57Z" fill="#171723"/>
<path d="M657.413 792.737C657.305 793.5 657.177 794.401 658.155 794.823C659.667 795.391 660.532 794.17 660.738 793.208C660.944 792.247 660.373 791.388 659.365 791.174C658.357 790.96 657.521 791.974 657.413 792.737Z" fill="#ECECFF"/>
<path d="M412 869C420.5 886.5 507.5 951.5 572.5 935" stroke="#EBBAAA" stroke-width="65" stroke-linecap="round"/>
<path d="M444.5 825.5L447.929 846.5H460V863.5L419 885.5L397.5 925.5L366.5 911.5L379.5 895L366.5 899.5L349.5 885.5L355.905 879.863L344 854L352 825L386 829.5L444.5 825.5Z" fill="#FCF6EF"/>
<path d="M743.5 830L749 815.5L807 820L835 815.5L841.5 818L835 822L843.5 825L835 861.5L787 841L743.5 830Z" fill="#FCF6EF"/>
<path d="M715.531 805.471C712.029 802.791 709.681 798.819 710.665 797.017C710.863 795.62 714.264 795.587 717.083 794.531C719.901 793.475 724.487 793.64 725.882 795.779C727.277 797.918 726.201 808.926 723.993 809.098C721.785 809.27 719.033 808.151 715.531 805.471Z" fill="#DD91A9"/>
<path d="M816.166 1460C816.166 1429.3 796.44 1425.55 764.29 1415.03C748.543 1409.88 732.472 1405.39 716.166 1402.69C705.919 1400.99 703.166 1410 685.166 1410C669.114 1410 649.088 1402.05 644.941 1400.33C644.421 1400.11 643.805 1399.92 643.391 1400.3C643.291 1400.39 643.206 1400.51 643.144 1400.63C641.227 1404.57 631.166 1426.05 631.166 1443.24C631.166 1456.39 630.04 1469.32 633.666 1476C635.302 1479.01 645.517 1480.66 648.948 1480.66H810.604C813.676 1480.66 816.166 1463.07 816.166 1460Z" fill="#10100F"/>
<mask id="mask2" mask-type="alpha" maskUnits="userSpaceOnUse" x="631" y="1397" width="186" height="84">
<path d="M816.166 1460C816.166 1444.23 810.96 1435.57 801.538 1429.45C756.708 1400.35 698.58 1398.98 645.166 1397C644.73 1397 643.335 1400.24 643.144 1400.63C641.227 1404.57 631.166 1426.05 631.166 1443.24C631.166 1456.39 630.04 1469.32 633.666 1476C635.302 1479.01 645.517 1480.66 648.948 1480.66H810.604C813.676 1480.66 816.166 1463.07 816.166 1460Z" fill="#3B3734"/>
</mask>
<g mask="url(#mask2)">
<path d="M792.313 1439C807.813 1439 812.146 1430 813.813 1428.5C816.813 1432 814.313 1446.1 816.313 1452.5C818.313 1458.9 815.479 1465.17 813.813 1467.5L674.313 1474C673.479 1460.67 672.313 1434 674.313 1434C676.813 1434 692.813 1412.5 701.313 1412C708.113 1411.6 741.146 1420.17 756.813 1424.5C754.813 1426.5 751.513 1436.7 750.313 1441.5C748.813 1447.5 748.313 1447.5 753.813 1449C759.313 1450.5 760.313 1439 766.313 1439H792.313Z" fill="#363533"/>
<mask id="mask3" mask-type="alpha" maskUnits="userSpaceOnUse" x="673" y="1412" width="144" height="63">
<path d="M792.312 1439.01C807.812 1439.01 812.145 1430.01 813.812 1428.51C816.812 1432.01 814.312 1446.11 816.312 1452.51C818.312 1458.91 815.479 1465.18 813.812 1467.51L674.312 1474.01C673.479 1460.68 672.312 1434.01 674.312 1434.01C676.812 1434.01 692.812 1412.51 701.312 1412.01C708.112 1411.61 741.145 1420.18 756.812 1424.51C754.812 1426.51 751.512 1436.71 750.312 1441.51C748.812 1447.51 748.312 1447.51 753.812 1449.01C759.312 1450.51 760.312 1439.01 766.312 1439.01H792.312Z" fill="#363533"/>
</mask>
<g mask="url(#mask3)">
<path d="M741.999 1454C742.799 1450 747.999 1446 750.499 1444.5L779.5 1429H812.5C817.167 1440 825 1464.2 819 1473C811.5 1484 757.499 1470 748.999 1466C740.499 1462 740.999 1459 741.999 1454Z" fill="#272626"/>
</g>
<path d="M686.666 1434.5C684.266 1430.5 645.666 1424.83 630.166 1423L623.166 1466L701.166 1470.5C697.333 1460.17 689.066 1438.5 686.666 1434.5Z" fill="#363533"/>
<path d="M671.826 1446.37L669.444 1447.68C669.069 1447.89 669.11 1448.44 669.511 1448.59L683.222 1453.67C686.009 1454.71 689.111 1454.45 691.687 1452.97L693.636 1451.84C694.001 1451.63 693.959 1451.1 693.567 1450.94L680.241 1445.8C677.49 1444.74 674.41 1444.95 671.826 1446.37Z" fill="#C4C4C4"/>
<path d="M645.5 1435C645.5 1433 631.5 1428 631.5 1428L626.5 1445C626.5 1445 645.5 1437 645.5 1435Z" fill="#C4C4C4"/>
<path d="M668.666 1406C656.666 1405.2 646.666 1398.67 642.666 1395C638.666 1399 628.766 1410 631.166 1414C634.166 1419 657.166 1423 667.166 1423C677.166 1423 683.666 1407 668.666 1406Z" fill="black"/>
<path d="M727.666 1465.5C753.166 1464.5 775.166 1470.5 803.166 1464.5C853.166 1459 827.478 1462.27 840.166 1486.59H644.082C624.666 1482 618.224 1453.71 632.666 1456C664.166 1461 708.156 1466.27 727.666 1465.5Z" fill="#CDC7BB"/>
<path d="M745.725 1471.79C744.896 1471.13 744.654 1468.81 745 1465.5L768 1467C768 1470.03 767.793 1472.12 766.964 1473.44C765.928 1475.1 746.761 1472.62 745.725 1471.79Z" fill="#80DAF4"/>
<path d="M625.166 1464.5C631.966 1467.3 724.166 1467.5 727.166 1465.5C720.166 1464 668.647 1458.16 657.166 1457.5C639.666 1456.5 632.999 1455.17 625.166 1455.5C622.333 1457.5 618.366 1461.7 625.166 1464.5Z" fill="#AEAAAA"/>
</g>
<path d="M718.298 1402C714.254 1404.46 706.166 1408.15 706.166 1413.08L736.495 1406.1L724.869 1421.28L758.166 1411.81L744.872 1425" stroke="black" stroke-width="6.1597" stroke-linecap="round" stroke-linejoin="round"/>
<path d="M713.048 1389.91C713.048 1391.08 713.028 1392.19 713.009 1393.21L713.008 1393.25C712.989 1394.27 712.972 1395.19 712.974 1396.05C712.98 1397.84 713.075 1399.08 713.308 1399.97C713.52 1400.78 713.78 1401.05 713.994 1401.2C714.28 1401.4 714.984 1401.71 716.641 1401.71C719.967 1401.71 724.255 1400.46 727.665 1398.19C731.089 1395.91 733.067 1393.02 733.067 1389.91C733.067 1385.83 732.075 1382.55 730.481 1380.38C728.96 1378.3 726.793 1377.08 723.828 1377.08C717.981 1377.08 713.048 1382.12 713.048 1389.91Z" stroke="black" stroke-width="6.1597"/>
<path d="M706.26 1395.18C706.611 1395.97 706.96 1396.71 707.278 1397.39L707.287 1397.41C707.606 1398.1 707.89 1398.7 708.141 1399.27C708.666 1400.46 708.933 1401.24 709.023 1401.79C709.063 1402.04 709.053 1402.17 709.046 1402.22C709.042 1402.24 709.039 1402.25 709.035 1402.25C709.034 1402.26 709.034 1402.26 709.033 1402.26C709.013 1402.29 708.782 1402.63 707.729 1403.1C705.614 1404.04 702.483 1404.48 699.635 1404.01C696.763 1403.54 694.881 1402.3 694.118 1400.59C692.95 1397.96 692.696 1395.65 693.081 1393.94C693.439 1392.34 694.379 1391.06 696.17 1390.26C699.678 1388.7 704.09 1390.31 706.26 1395.18Z" stroke="black" stroke-width="6.1597"/>
<path d="M723.605 1457L735 1435.53L726.453 1431.48L711.802 1439.99L719.942 1428.65L711.802 1425L700 1446.47L708.14 1449.71L724.012 1440.39L715.872 1453.35L723.605 1457Z" fill="#383731" stroke="#80DAF4" stroke-width="6"/>
<path d="M723.605 1457L735 1435.53L726.453 1431.48L711.802 1439.99L719.942 1428.65L711.802 1425L700 1446.47L708.14 1449.71L724.012 1440.39L715.872 1453.35L723.605 1457Z" fill="#383731" stroke="#FF8D43" stroke-width="2"/>
<path d="M396 1460.26C396 1429.59 415.708 1425.84 447.83 1415.33C463.563 1410.19 479.619 1405.7 495.911 1403C506.149 1401.3 508.899 1410.3 526.883 1410.3C542.92 1410.3 562.927 1402.36 567.071 1400.64C567.592 1400.42 568.209 1400.23 568.622 1400.61C568.722 1400.71 568.806 1400.82 568.868 1400.95C570.784 1404.88 580.835 1426.34 580.835 1443.52C580.835 1456.65 581.96 1469.57 578.338 1476.24C576.703 1479.26 566.497 1480.9 563.07 1480.9H401.558C398.488 1480.9 396 1463.33 396 1460.26Z" fill="#10100F"/>
<mask id="mask4" mask-type="alpha" maskUnits="userSpaceOnUse" x="396" y="1397" width="186" height="84">
<path d="M396 1460.26C396 1444.5 401.201 1435.85 410.615 1429.74C455.405 1400.66 513.482 1399.29 566.848 1397.32C567.284 1397.32 568.678 1400.56 568.868 1400.95C570.784 1404.88 580.836 1426.34 580.836 1443.52C580.836 1456.65 581.961 1469.57 578.338 1476.25C576.703 1479.26 566.497 1480.9 563.07 1480.9H401.558C398.488 1480.9 396 1463.33 396 1460.26Z" fill="#3B3734"/>
</mask>
<g mask="url(#mask4)">
<path d="M419.833 1439.28C404.346 1439.28 400.017 1430.29 398.352 1428.79C395.354 1432.28 397.852 1446.37 395.854 1452.77C393.856 1459.16 396.687 1465.42 398.352 1467.75L537.728 1474.25C538.56 1460.93 539.726 1434.28 537.728 1434.28C535.23 1434.28 519.244 1412.8 510.752 1412.3C503.958 1411.9 470.954 1420.46 455.301 1424.79C457.299 1426.79 460.596 1436.98 461.795 1441.78C463.294 1447.77 463.793 1447.77 458.298 1449.27C452.803 1450.77 451.804 1439.28 445.81 1439.28H419.833Z" fill="#363533"/>
<mask id="mask5" mask-type="alpha" maskUnits="userSpaceOnUse" x="395" y="1412" width="144" height="63">
<path d="M419.833 1439.29C404.346 1439.29 400.017 1430.3 398.352 1428.8C395.354 1432.3 397.852 1446.39 395.854 1452.78C393.856 1459.17 396.687 1465.43 398.352 1467.77L537.728 1474.26C538.56 1460.94 539.726 1434.3 537.728 1434.3C535.23 1434.3 519.244 1412.81 510.752 1412.32C503.958 1411.92 470.954 1420.47 455.301 1424.8C457.299 1426.8 460.596 1436.99 461.795 1441.79C463.294 1447.78 463.793 1447.78 458.298 1449.28C452.803 1450.78 451.804 1439.29 445.81 1439.29H419.833Z" fill="#363533"/>
</mask>
<g mask="url(#mask5)">
<path d="M470.101 1454.26C469.302 1450.27 464.106 1446.27 461.609 1444.77L432.634 1429.29H399.663C395.001 1440.28 387.174 1464.46 393.169 1473.25C400.662 1484.24 454.615 1470.25 463.107 1466.25C471.6 1462.26 471.1 1459.26 470.101 1454.26Z" fill="#272626"/>
</g>
<path d="M525.384 1434.78C527.782 1430.79 566.348 1425.12 581.834 1423.29L588.828 1466.25L510.897 1470.75C514.727 1460.43 522.986 1438.78 525.384 1434.78Z" fill="#363533"/>
<path d="M540.215 1446.65L542.59 1447.95C542.965 1448.16 542.924 1448.71 542.523 1448.86L528.829 1453.94C526.043 1454.97 522.941 1454.71 520.364 1453.23L518.421 1452.11C518.057 1451.9 518.098 1451.36 518.491 1451.21L531.8 1446.08C534.551 1445.02 537.631 1445.22 540.215 1446.65Z" fill="#C4C4C4"/>
<path d="M566.513 1435.28C566.513 1433.28 580.501 1428.29 580.501 1428.29L585.496 1445.27C585.496 1445.27 566.513 1437.28 566.513 1435.28Z" fill="#C4C4C4"/>
<path d="M543.368 1406.31C555.357 1405.51 565.349 1398.98 569.345 1395.32C573.341 1399.31 583.233 1410.3 580.835 1414.3C577.837 1419.3 554.858 1423.29 544.867 1423.29C534.876 1423.29 528.381 1407.31 543.368 1406.31Z" fill="black"/>
<path d="M484.421 1465.76C458.944 1464.76 436.964 1470.75 408.988 1464.76C359.033 1459.26 384.698 1462.53 372.021 1486.82H567.931C587.33 1482.24 593.766 1453.97 579.337 1456.26C547.865 1461.26 503.915 1466.52 484.421 1465.76Z" fill="#CDC7BB"/>
<path d="M466.379 1472.04C467.207 1471.38 467.448 1469.06 467.103 1465.75L444.124 1467.25C444.124 1470.28 444.33 1472.37 445.159 1473.69C446.194 1475.34 465.344 1472.87 466.379 1472.04Z" fill="#80DAF4"/>
<path d="M586.829 1464.76C580.035 1467.55 487.917 1467.75 484.92 1465.75C491.914 1464.26 543.387 1458.42 554.858 1457.76C572.342 1456.76 579.003 1455.43 586.829 1455.76C589.66 1457.76 593.623 1461.96 586.829 1464.76Z" fill="#AEAAAA"/>
</g>
<path d="M493.782 1402.31C497.822 1404.77 505.903 1408.46 505.903 1413.38L475.6 1406.41L487.216 1421.57L453.949 1412.12L467.232 1425.29" stroke="black" stroke-width="6.1597" stroke-linecap="round" stroke-linejoin="round"/>
<path d="M499.023 1390.23C499.023 1391.4 499.043 1392.51 499.062 1393.53L499.063 1393.57C499.082 1394.59 499.099 1395.51 499.097 1396.37C499.091 1398.15 498.996 1399.4 498.764 1400.28C498.552 1401.09 498.293 1401.36 498.079 1401.51C497.795 1401.7 497.091 1402.01 495.436 1402.01C492.113 1402.01 487.83 1400.76 484.424 1398.5C481.003 1396.22 479.027 1393.33 479.027 1390.23C479.027 1386.15 480.019 1382.88 481.611 1380.71C483.13 1378.64 485.294 1377.42 488.256 1377.42C494.095 1377.42 499.023 1382.45 499.023 1390.23Z" stroke="black" stroke-width="6.1597"/>
<path d="M505.812 1395.5C505.46 1396.29 505.112 1397.03 504.794 1397.71L504.786 1397.73C504.466 1398.41 504.183 1399.02 503.932 1399.59C503.407 1400.77 503.14 1401.55 503.051 1402.1C503.011 1402.35 503.021 1402.48 503.028 1402.53C503.032 1402.55 503.035 1402.56 503.039 1402.56C503.039 1402.56 503.04 1402.56 503.04 1402.57C503.06 1402.6 503.29 1402.94 504.342 1403.4C506.454 1404.35 509.582 1404.79 512.427 1404.32C515.296 1403.85 517.175 1402.61 517.938 1400.9C519.104 1398.28 519.358 1395.97 518.974 1394.25C518.616 1392.66 517.678 1391.38 515.888 1390.59C512.385 1389.03 507.979 1390.63 505.812 1395.5Z" stroke="black" stroke-width="6.1597"/>
<path d="M488.479 1457.26L477.094 1435.81L485.633 1431.77L500.271 1440.27L492.139 1428.93L500.271 1425.29L512.063 1446.74L503.931 1449.98L488.073 1440.67L496.205 1453.62L488.479 1457.26Z" fill="#383731" stroke="#80DAF4" stroke-width="6"/>
<path d="M488.479 1457.26L477.094 1435.81L485.633 1431.77L500.271 1440.27L492.139 1428.93L500.271 1425.29L512.063 1446.74L503.931 1449.98L488.073 1440.67L496.205 1453.62L488.479 1457.26Z" fill="#383731" stroke="#FF8D43" stroke-width="2"/>
</svg>
