<svg width="1200" height="1600" viewBox="0 0 1200 1600" fill="none" xmlns="http://www.w3.org/2000/svg">
<path d="M385.561 1483C384.338 1480 384.549 1473.5 392.09 1470.5C399.632 1467.5 488.627 1483 488.627 1483C511.536 1481.14 573.068 1451.28 595.722 1465C602.889 1469.34 600.46 1483.09 597.814 1495.96C593.581 1500.25 550.753 1504 536.867 1500.78C536.867 1493.28 535.786 1488.45 535.786 1488.45C535.786 1488.45 527.373 1493.85 518.292 1495.96C499.77 1500.25 495.717 1505 438.347 1505C392.335 1500.71 389.026 1491.5 385.561 1483Z" fill="#383129"/>
<path d="M389.576 1477C395.107 1483.5 415.219 1495.5 439.856 1495.5C473.558 1495.5 499.186 1491 514.772 1486.5C527.242 1482.9 535.722 1480.33 538.404 1479.5C546.281 1480.17 564.549 1481.1 574.605 1479.5C587.175 1477.5 592.203 1476 596.225 1471.5" stroke="#67513B" stroke-dasharray="6 6"/>
<path d="M519.298 1342.5C524.205 1342.5 552.858 1357.46 567.686 1345.81C569.306 1344.54 572.593 1345.59 572.596 1347.65C572.622 1367.54 572.917 1402.17 575.916 1415.9C579.09 1430.44 581.771 1428.36 584.945 1441.86C587.143 1451.21 594.261 1473.02 584.945 1473.02H542.455C532.402 1473.02 518.824 1484.63 485.347 1487.89C429.775 1493.31 416.196 1485.89 405.1 1482.39C379.853 1474.43 392.665 1456.21 405.1 1450.39C423.315 1441.86 449.421 1435.46 462.7 1428.39C473.04 1422.89 476.591 1421.18 481.9 1415.39C490.655 1405.85 498.346 1355.63 499.531 1342.54C499.613 1341.63 500.89 1341.16 501.667 1341.64C506.846 1344.82 514.433 1342.5 519.298 1342.5Z" fill="#2D2B30"/>
<path d="M411.528 1467.22C420.911 1470.04 435.225 1474.06 456.759 1469.57" stroke="#59555F" stroke-width="7" stroke-linecap="round"/>
<path d="M476.057 1447C485.903 1438 521.811 1417.89 519.298 1342.5C523.564 1342.5 533.879 1348 549.465 1349C565.835 1348.51 565.565 1347.04 569.901 1344.6C570.018 1344.53 570.153 1344.43 570.264 1344.36C577.064 1339.8 574.006 1412.51 578.885 1425.39C582.824 1435.79 590.208 1451.39 590.208 1470.39C586.762 1476.39 552.793 1473.39 541.962 1473.39C536.895 1446.5 497.175 1467 488.627 1464.5C481.125 1462.31 476.057 1458 476.057 1447Z" fill="#1D1D20"/>
<path d="M488.124 1414.6C499.387 1405.8 503.711 1363 504.214 1342.5C502.202 1342 501.7 1340.6 500.191 1341.1C498.683 1341.6 498.683 1347.6 498.18 1352.6C497.63 1358.08 493.655 1375.1 491.644 1386.6C489.633 1398.1 487.621 1405.1 480.079 1414.6C474.046 1422.2 450.414 1430 442.873 1436.5C443.711 1436.33 445.889 1435.2 447.901 1435.6C450.414 1436.1 449.912 1436.6 452.928 1436.6C455.945 1436.6 474.046 1425.6 488.124 1414.6Z" fill="#1D1D20"/>
<path d="M501.7 1346.5L522.817 1353.5L501.7 1359.5L519.298 1368.5L497.677 1372.5L519.298 1381L495.666 1388.5L516.784 1398.5L491.644 1401.5L509.744 1415H483.599L501.7 1432.5L469.521 1425.5L483.599 1445L457.957 1432.5" stroke="black" stroke-width="5" stroke-linecap="round" stroke-linejoin="round"/>
<path d="M814.439 1483C815.662 1480 815.451 1473.5 807.91 1470.5C800.368 1467.5 711.373 1483 711.373 1483C688.464 1481.14 626.932 1451.28 604.278 1465C597.111 1469.34 599.54 1483.09 602.186 1495.96C606.419 1500.25 649.247 1504 663.133 1500.78C663.133 1493.28 664.214 1488.45 664.214 1488.45C664.214 1488.45 672.627 1493.85 681.708 1495.96C700.23 1500.25 704.283 1505 761.653 1505C807.665 1500.71 810.974 1491.5 814.439 1483Z" fill="#383129"/>
<path d="M810.424 1477C804.893 1483.5 784.781 1495.5 760.144 1495.5C726.442 1495.5 700.814 1491 685.228 1486.5C672.758 1482.9 664.278 1480.33 661.596 1479.5C653.719 1480.17 635.451 1481.1 625.395 1479.5C612.825 1477.5 607.797 1476 603.775 1471.5" stroke="#67513B" stroke-dasharray="6 6"/>
<path d="M680.702 1342.5C675.795 1342.5 647.142 1357.46 632.314 1345.81C630.694 1344.54 627.407 1345.59 627.404 1347.65C627.378 1367.54 627.083 1402.17 624.084 1415.9C620.91 1430.44 618.229 1428.36 615.055 1441.86C612.857 1451.21 605.739 1473.02 615.055 1473.02H657.545C667.598 1473.02 681.176 1484.63 714.653 1487.89C770.225 1493.31 783.804 1485.89 794.9 1482.39C820.147 1474.43 807.335 1456.21 794.9 1450.39C776.685 1441.86 750.579 1435.46 737.3 1428.39C726.96 1422.89 723.409 1421.18 718.1 1415.39C709.345 1405.85 701.654 1355.63 700.469 1342.54C700.387 1341.63 699.11 1341.16 698.333 1341.64C693.154 1344.82 685.567 1342.5 680.702 1342.5Z" fill="#2D2B30"/>
<path d="M788.472 1467.22C779.089 1470.04 764.775 1474.06 743.241 1469.57" stroke="#59555F" stroke-width="7" stroke-linecap="round"/>
<path d="M723.943 1447C714.097 1438 678.189 1417.89 680.702 1342.5C676.436 1342.5 666.121 1348 650.535 1349C634.165 1348.51 634.435 1347.04 630.099 1344.6C629.982 1344.53 629.847 1344.43 629.736 1344.36C622.936 1339.8 625.994 1412.51 621.115 1425.39C617.176 1435.79 609.792 1451.39 609.792 1470.39C613.238 1476.39 647.207 1473.39 658.038 1473.39C663.105 1446.5 702.825 1467 711.373 1464.5C718.875 1462.31 723.943 1458 723.943 1447Z" fill="#1D1D20"/>
<path d="M711.876 1414.6C700.613 1405.8 696.289 1363 695.786 1342.5C697.798 1342 698.3 1340.6 699.809 1341.1C701.317 1341.6 701.317 1347.6 701.82 1352.6C702.37 1358.08 706.345 1375.1 708.356 1386.6C710.367 1398.1 712.379 1405.1 719.921 1414.6C725.954 1422.2 749.586 1430 757.127 1436.5C756.289 1436.33 754.111 1435.2 752.099 1435.6C749.586 1436.1 750.088 1436.6 747.072 1436.6C744.055 1436.6 725.954 1425.6 711.876 1414.6Z" fill="#1D1D20"/>
<path d="M698.3 1346.5L677.183 1353.5L698.3 1359.5L680.702 1368.5L702.323 1372.5L680.702 1381L704.334 1388.5L683.216 1398.5L708.356 1401.5L690.256 1415H716.401L698.3 1432.5L730.479 1425.5L716.401 1445L742.043 1432.5" stroke="black" stroke-width="5" stroke-linecap="round" stroke-linejoin="round"/>
<path d="M600 1070C663.513 1070 715 1046.49 715 1017.5C715 988.505 663.513 965 600 965C536.487 965 485 988.505 485 1017.5C485 1046.49 536.487 1070 600 1070Z" fill="#E2D3BD"/>
<path d="M742 967H607V1393H716.171L742 967Z" fill="#E2D3BD"/>
<path d="M458 967H593V1393H483.829L458 967Z" fill="#E2D3BD"/>
<path d="M484 660C440 738 404 926 420 970" stroke="#EBBAAA" stroke-width="74" stroke-linecap="round" stroke-linejoin="bevel"/>
<path d="M716 660C760 738 796 926 780 970" stroke="#EBBAAA" stroke-width="74" stroke-linecap="round" stroke-linejoin="bevel"/>
<rect x="603" y="1358" width="120" height="35" fill="#D2BEA1"/>
<rect x="477" y="1358" width="120" height="35" fill="#D2BEA1"/>
<path d="M452.17 626.587C450.927 601.596 468.35 579.534 492.948 574.95L600 555L707.052 574.95C731.65 579.534 749.073 601.596 747.83 626.587L740 784L749.542 1001.56C749.792 1007.25 745.247 1012 739.552 1012H460.448C454.753 1012 450.208 1007.25 450.458 1001.56L460 784L452.17 626.587Z" fill="white"/>
<rect x="558.416" y="417" width="80" height="195" rx="40" fill="#EBBAAA"/>
<path d="M560 567C560 544.909 577.909 527 600 527C622.091 527 640 544.909 640 567V572C640 594.091 622.091 612 600 612C577.909 612 560 594.091 560 572V567Z" fill="#EBBAAA"/>
<path opacity="0.5" d="M750 402.001C772.091 402.001 790 384.092 790 362.001C790 339.91 772.091 322.001 750 322.001C727.909 322.001 710 339.91 710 362.001C710 384.092 727.909 402.001 750 402.001Z" fill="#DE8E7C"/>
<path opacity="0.5" d="M450 402.001C427.909 402.001 410 384.092 410 362.001C410 339.91 427.909 322.001 450 322.001C472.091 322.001 490 339.91 490 362.001C490 384.092 472.091 402.001 450 402.001Z" fill="#DE8E7C"/>
<path d="M505.212 941.607C501.081 937.831 492.248 939.375 485.167 949.253C479.187 965.377 474.863 966.816 467.615 962.327C460.816 976.342 457.223 965.059 447.744 966.816C440.161 968.221 439.433 986.312 438.849 995.505C446.749 994.041 458.707 996.547 474.863 993.893C501.847 989.46 478.266 974.879 503.048 976.342C511.021 976.813 512.067 980.631 520.957 979.585C530.162 965.766 521.738 956.714 505.212 941.607Z" fill="#67774C"/>
<path d="M694.32 941.607C698.451 937.831 707.284 939.375 714.365 949.253C720.345 965.377 724.669 966.816 731.917 962.327C738.715 976.342 742.309 965.059 751.788 966.816C759.371 968.221 760.098 986.312 760.682 995.505C752.783 994.041 740.825 996.547 724.669 993.893C697.684 989.46 721.266 974.879 696.483 976.342C688.511 976.813 687.465 980.631 678.574 979.585C669.37 965.766 677.793 956.714 694.32 941.607Z" fill="#67774C"/>
<path d="M558.452 688.122L471.64 868.286C471.64 868.286 395.286 826.448 366 799.254C366 799.254 378.052 730.222 395.286 667.203C405.28 630.66 429.358 602.119 447.825 584.588C462.621 570.542 481.969 563.017 502.017 559.239L539.626 552.15L558.452 688.122Z" fill="#D3551E"/>
<path d="M465.134 768.532L405.516 734.016L391.919 762.256L465.134 768.532Z" fill="#F67C47"/>
<path d="M445.713 771.973L388.894 778.652L397.922 796.303L445.713 785.007L445.713 771.973Z" fill="#F67C47"/>
<path d="M451.252 635.938C454.488 589.92 493.033 554.242 539.165 554.242C548.374 554.242 556.824 559.499 560.85 567.781L590.876 629.55C590.876 629.55 568.912 750.878 568.912 810.497C568.912 860.658 558.546 981.902 555.257 1019.1C554.727 1025.1 549.243 1029.38 543.288 1028.47L440.083 1012.73C434.823 1011.92 431.004 1007.3 431.209 1001.98L438.17 822.002L451.252 635.938Z" fill="#E66128"/>
<path d="M584.603 630.596C562.638 811.543 551.133 976.801 551.133 1019.68" stroke="#F77C47" stroke-width="13.5972"/>
<path d="M552.673 1033.72L434.482 1021.22C431.822 1020.94 429.802 1018.7 429.802 1016.02V997.719L558.452 1011.14V1028.51C558.452 1031.62 555.762 1034.04 552.673 1033.72Z" fill="#F67C47"/>
<path d="M642.127 687.859L728.94 868.023C728.94 868.023 805.293 826.186 834.58 798.991C834.58 798.991 822.528 729.959 805.293 666.941C793.937 625.417 764.396 594.225 745.565 577.778C735.041 568.586 721.865 563.368 708.133 560.78L660.954 551.888L642.127 687.859Z" fill="#D3551E"/>
<path d="M733.353 753.889L792.972 719.373L806.569 747.613L733.353 753.889Z" fill="#F67C47"/>
<path d="M752.775 757.33L809.594 764.009L800.566 781.66L752.775 770.364L752.775 757.33Z" fill="#F67C47"/>
<path d="M740.865 627.642C736.464 585.915 701.274 554.241 659.316 554.241C650.721 554.241 642.88 559.148 639.122 566.878L608.657 629.549C608.657 629.549 630.622 750.877 630.622 810.496C630.622 860.657 640.988 981.901 644.277 1019.1C644.807 1025.1 650.291 1029.38 656.246 1028.47L759.45 1012.72C764.711 1011.92 768.53 1007.3 768.325 1001.98L761.364 822.001L740.865 627.642Z" fill="#E66128"/>
<path d="M614.931 630.595C636.895 811.542 648.401 976.8 648.401 1019.68" stroke="#F77C47" stroke-width="13.5972"/>
<path d="M737.055 762.408L734.603 706.266L655.779 699.291C661.174 724.055 662.718 759.404 663.489 777.078C722.416 802.63 716.886 794.538 737.055 762.408Z" fill="#D3551E"/>
<path d="M658.197 699.421L738.421 688.59L744.566 711.354L713.055 736.809L668.535 719.908L658.197 699.421Z" fill="#FB7D46"/>
<path d="M646.861 1033.72L765.051 1021.22C767.712 1020.94 769.731 1018.7 769.731 1016.02V997.719L641.081 1011.14V1028.51C641.081 1031.62 643.772 1034.04 646.861 1033.72Z" fill="#F67C47"/>
<path d="M590.876 634.779L550.608 538.553L506.678 551.627L511.385 658.835L590.876 634.779Z" fill="#FB7D46"/>
<path d="M609.703 634.779L645.788 538.553L692.855 551.627L688.148 658.835L609.703 634.779Z" fill="#FB7D46"/>
<path d="M450 264C450 181.157 517.157 114 600 114C682.843 114 750 181.157 750 264V414C750 496.843 682.843 564 600 564C517.157 564 450 496.843 450 414V264Z" fill="#F4D5CC"/>
<path d="M644 286L700 282.5" stroke="#393939" stroke-width="18" stroke-linecap="round"/>
<path d="M500 282.5L556 286" stroke="#393939" stroke-width="18" stroke-linecap="round"/>
<path fill-rule="evenodd" clip-rule="evenodd" d="M545 429V448.805C545 479.293 569.629 504 600 504C630.381 504 655 479.293 655 448.805V429H545Z" fill="#393939"/>
<mask id="mask0" mask-type="alpha" maskUnits="userSpaceOnUse" x="545" y="429" width="110" height="75">
<path fill-rule="evenodd" clip-rule="evenodd" d="M545.09 429C545.03 430.021 545 431.051 545 432.081V451.367C545 480.44 569.629 504 600 504C630.381 504 655 480.44 655 451.367V432.081C655 431.051 654.97 430.021 654.91 429H545.09Z" fill="white"/>
</mask>
<g mask="url(#mask0)">
<path d="M600 519C616.569 519 630 510.941 630 501C630 491.059 616.569 483 600 483C583.431 483 570 491.059 570 501C570 510.941 583.431 519 600 519Z" fill="#FF6C6C"/>
</g>
<rect x="545" y="429" width="110" height="20" fill="white"/>
<path d="M700.765 210.986C697.577 184.231 694.7 165.02 692.575 147.183C691.07 134.549 690.913 131.327 726.829 157.8C762.745 184.273 768.129 242.354 758.359 291.721L747.56 350.343L736.47 347.602L736.761 273.208C718.665 254.992 703.953 237.741 700.765 210.986Z" fill="#6E6C6C"/>
<path d="M469.754 239.525C471.237 212.624 468.206 214.009 469.195 196.075C469.896 183.372 474.273 186.151 451.596 209.444C439.08 222.3 443.792 277.535 446.456 313.659L449.623 346.953L454.681 347.232L456.965 305.818C465.905 277.121 468.27 266.425 469.754 239.525Z" fill="#6E6C6C"/>
<path d="M602.286 202.478C526.434 202.478 465.783 202.269 462.656 258.107C449.861 276.266 441.847 274.245 438.86 241.198C429.292 135.363 501.209 94.3349 574.22 118.021C574.22 118.021 678.147 202.478 602.286 202.478Z" fill="#393939"/>
<path d="M596.098 202.096C674.264 202.096 736.764 201.888 739.987 257.611C753.173 275.732 761.431 273.716 764.51 240.737C774.369 135.119 633.745 19.6913 508 121.317C508 121.317 517.923 202.096 596.098 202.096Z" fill="#393939"/>
<path d="M741.19 259.458C743.815 224.799 761.554 218.69 756.646 204.974L599.632 158.989L590.128 130.998L515.596 124C515.596 124 490.586 212.473 557.247 220.046C623.907 227.619 604.001 243.972 621.602 263.466C621.602 239.634 631.826 240.173 640.835 235.305C639.523 257.838 686.116 267 708.217 267C687.5 257.838 684.136 241.16 693.962 233.033C724.186 235.305 718.672 229.127 741.19 259.458Z" fill="#393939"/>
<path d="M622 319C622 313.477 626.477 309 632 309H712C717.523 309 722 313.477 722 319V369C722 382.807 710.807 394 697 394H672C644.386 394 622 371.614 622 344V319Z" stroke="white" stroke-opacity="0.75" stroke-width="8"/>
<path d="M578 319C578 313.477 573.523 309 568 309H488C482.477 309 478 313.477 478 319V369C478 382.807 489.193 394 503 394H528C555.614 394 578 371.614 578 344V319Z" stroke="white" stroke-opacity="0.75" stroke-width="8"/>
<rect x="575" y="319" width="50" height="8" fill="#FCF4F2"/>
<path d="M667 354V334" stroke="black" stroke-width="24" stroke-linecap="round"/>
<path d="M533 354V334" stroke="black" stroke-width="24" stroke-linecap="round"/>
<path d="M596.416 352C586.416 367 576.416 402 606.416 402" stroke="#EBBAAA" stroke-width="17"/>
</svg>
