<svg width="1200" height="1600" viewBox="0 0 1200 1600" fill="none" xmlns="http://www.w3.org/2000/svg">
<path d="M686 1072.43C698.295 1133.26 702.394 1311 686 1405.4" stroke="#EBBAAA" stroke-width="93" stroke-linecap="round" stroke-linejoin="bevel"/>
<path d="M780.5 1467H801.5V1480.5C801.5 1486.3 796.799 1491 791 1491C785.201 1491 780.5 1486.3 780.5 1480.5V1467Z" fill="#E86B43"/>
<path d="M752.5 1467H773.5V1480.5C773.5 1486.3 768.799 1491 763 1491C757.201 1491 752.5 1486.3 752.5 1480.5V1467Z" fill="#E86B43"/>
<path d="M670.5 1467H691.5V1480.5C691.5 1486.3 686.799 1491 681 1491C675.201 1491 670.5 1486.3 670.5 1480.5V1467Z" fill="#E86B43"/>
<path d="M698.5 1467H719.5V1480.5C719.5 1486.3 714.799 1491 709 1491C703.201 1491 698.5 1486.3 698.5 1480.5V1467Z" fill="#E86B43"/>
<path d="M642.5 1467H663.5V1480.5C663.5 1486.3 658.799 1491 653 1491C647.201 1491 642.5 1486.3 642.5 1480.5V1467Z" fill="#E86B43"/>
<path d="M808 1465.5C805.661 1448.65 782.236 1430.11 759.287 1416.3C731.252 1399.43 698.557 1395.28 665.839 1395.28L636.041 1395.28C633.028 1395.13 630.5 1397.53 630.5 1400.55V1472C630.5 1475.87 633.634 1479 637.5 1479H801.213C805.21 1479 808.092 1469.5 808 1465.5Z" fill="#091928"/>
<mask id="mask0" mask-type="alpha" maskUnits="userSpaceOnUse" x="630" y="1395" width="178" height="85">
<path d="M806.5 1459.5C800.586 1429.34 775.336 1406.78 744.699 1404.3L636.555 1395.53C633.024 1395.25 630 1398.03 630 1401.58V1472C630 1475.87 633.134 1479 637 1479H797.5C803.299 1479 808 1474.3 808 1468.5V1463.5L806.5 1459.5Z" fill="#091928"/>
</mask>
<g mask="url(#mask0)">
<path d="M629.5 1407H682.5C732 1410 741.607 1436.55 776.5 1454C791.5 1461.5 807.333 1471.83 811.5 1457.5" stroke="#E86B43" stroke-width="7"/>
<path d="M747.449 1458.39L730.139 1493.39" stroke="#FFF7F5" stroke-width="16"/>
<path d="M726.639 1440.39L699.139 1492.39" stroke="#FFF7F5" stroke-width="16"/>
<path d="M703.64 1424.39L672.64 1485.36" stroke="#FFF7F5" stroke-width="16"/>
</g>
<path d="M495.085 1071.38C476.22 1178.36 505.933 1340.37 520.277 1409.59" stroke="#EBBAAA" stroke-width="93" stroke-linecap="round" stroke-linejoin="bevel"/>
<path d="M416.502 1467H395.502V1480.5C395.502 1486.3 400.203 1491 406.002 1491C411.801 1491 416.502 1486.3 416.502 1480.5V1467Z" fill="#E86B43"/>
<path d="M444.502 1467H423.502V1480.5C423.502 1486.3 428.203 1491 434.002 1491C439.801 1491 444.502 1486.3 444.502 1480.5V1467Z" fill="#E86B43"/>
<path d="M526.502 1467H505.502V1480.5C505.502 1486.3 510.203 1491 516.002 1491C521.801 1491 526.502 1486.3 526.502 1480.5V1467Z" fill="#E86B43"/>
<path d="M498.502 1467H477.502V1480.5C477.502 1486.3 482.203 1491 488.002 1491C493.801 1491 498.502 1486.3 498.502 1480.5V1467Z" fill="#E86B43"/>
<path d="M554.502 1467H533.502V1480.5C533.502 1486.3 538.203 1491 544.002 1491C549.801 1491 554.502 1486.3 554.502 1480.5V1467Z" fill="#E86B43"/>
<path d="M389.002 1465.5C391.34 1448.65 414.766 1430.11 437.715 1416.3C465.75 1399.43 498.445 1395.28 531.163 1395.28L560.961 1395.28C563.974 1395.13 566.502 1397.53 566.502 1400.55V1472C566.502 1475.87 563.368 1479 559.502 1479H395.789C391.792 1479 388.909 1469.5 389.002 1465.5Z" fill="#091928"/>
<mask id="mask1" mask-type="alpha" maskUnits="userSpaceOnUse" x="389" y="1395" width="179" height="85">
<path d="M390.502 1459.5C396.416 1429.34 421.666 1406.78 452.303 1404.3L560.447 1395.53C563.978 1395.25 567.002 1398.03 567.002 1401.58V1472C567.002 1475.87 563.868 1479 560.002 1479H399.502C393.703 1479 389.002 1474.3 389.002 1468.5V1463.5L390.502 1459.5Z" fill="#091928"/>
</mask>
<g mask="url(#mask1)">
<path d="M567.502 1407H514.502C465.002 1410 455.395 1436.55 420.502 1454C405.502 1461.5 389.669 1471.83 385.502 1457.5" stroke="#E86B43" stroke-width="7"/>
<path d="M449.553 1458.39L466.863 1493.39" stroke="#FFF7F5" stroke-width="16"/>
<path d="M470.363 1440.39L497.863 1492.39" stroke="#FFF7F5" stroke-width="16"/>
<path d="M493.362 1424.39L524.362 1485.36" stroke="#FFF7F5" stroke-width="16"/>
</g>
<path d="M413 982.373L601 1074.5L583.548 1239.27C583.548 1239.27 547 1266.23 481 1264.19C415 1262.14 383 1221.19 383 1221.19L413 982.373Z" fill="#27292D"/>
<path d="M585 1035.6L775 984.421L807 1217.34C807 1217.34 791 1237.81 713 1248.05C635 1258.28 607 1233.72 607 1233.72L585 1035.6Z" fill="#27292D"/>
<ellipse cx="593.886" cy="1024.47" rx="116.371" ry="56.4258" fill="#27292D"/>
<path d="M783.025 617.3C771.155 605.884 732.063 594.343 714 590C725.397 736.427 749.222 1003 753.35 1017.89C758.511 1036.51 871.402 1043.95 881.723 1036.51C892.045 1029.06 903.656 988.951 901.076 950.483C898.496 912.015 797.862 631.57 783.025 617.3Z" fill="#C9DDEF"/>
<path d="M411.85 612.279C422.961 600.871 459.556 589.34 476.464 585C465.796 731.313 443.493 1005.66 439.628 1020.54C434.797 1039.14 329.119 1046.58 319.457 1039.14C309.795 1031.7 298.926 983.642 301.341 945.204C303.757 906.766 397.961 626.538 411.85 612.279Z" fill="#C9DDEF"/>
<path d="M426.359 632.533C425.096 607.137 443.094 584.837 468.185 580.711L594.142 560L720.099 580.711C745.189 584.837 763.188 607.137 761.925 632.533L754.142 789C754.142 789 777.264 857.461 779.142 903C780.716 941.161 768.761 996.879 765.152 1012.68C764.52 1015.45 762.715 1017.76 760.125 1018.93C745.455 1025.55 690.53 1047 594.142 1047C497.754 1047 442.829 1025.55 428.159 1018.93C425.569 1017.76 423.764 1015.45 423.132 1012.68C419.523 996.879 407.568 941.161 409.142 903C411.02 857.461 434.142 789 434.142 789L426.359 632.533Z" fill="#B9D0E6"/>
<rect x="549.289" y="526.899" width="98.3097" height="128.473" rx="49.1549" transform="rotate(-1 549.289 526.899)" fill="#EBBAAA"/>
<path d="M884.166 1038.45C889.843 1037.46 902.874 1002.05 907.389 988.198L748.697 964C746.762 976.616 743.15 1003.96 744.182 1012.4C745.472 1022.94 775.146 1032.25 807.401 1037.21C839.655 1042.18 877.07 1039.7 884.166 1038.45Z" fill="#E3EEF7"/>
<path d="M310.739 1041.98C305.181 1040.99 292.422 1005.81 288 992.043L443.383 968C445.278 980.535 448.815 1007.7 447.804 1016.09C446.541 1026.57 417.486 1035.81 385.904 1040.74C354.322 1045.68 317.687 1043.21 310.739 1041.98Z" fill="#E3EEF7"/>
<path d="M653.473 575.912C657.911 561.795 653.473 551.714 652.183 545.51L688.308 558.539C688.308 558.539 700.565 573.43 692.824 607.555C684.343 644.939 646.838 659.673 637.991 669.6C634.121 673.943 635.411 621.205 605.737 615.621C619.284 612.519 645.087 602.591 653.473 575.912Z" fill="white"/>
<path d="M550.327 583.357C541.228 570.948 545.947 553.543 550.327 544.269L518.65 554.816C518.65 554.816 500.435 584.98 510.282 614.133C522.52 650.366 566.121 663.458 565.741 659.052C561.871 614.133 577.338 615.807 583.804 610.037C572.837 607.555 562.418 599.848 550.327 583.357Z" fill="white"/>
<ellipse cx="649.603" cy="646.023" rx="6.45089" ry="6.20453" fill="#DAE2F3"/>
<ellipse cx="550.259" cy="639.818" rx="6.45089" ry="6.20453" fill="#E5EBF9"/>
<ellipse cx="602.511" cy="698.761" rx="9.67634" ry="9.30679" fill="#EDF2FF"/>
<ellipse opacity="0.5" cx="873.844" cy="1017.98" rx="9.67634" ry="9.30679" fill="#A3C1D7"/>
<ellipse opacity="0.5" cx="326.06" cy="1019.5" rx="9.67634" ry="9.30679" fill="#A3C1D7"/>
<ellipse cx="594.77" cy="787.486" rx="9.67634" ry="9.92725" fill="#EDF2FF"/>
<ellipse cx="589.609" cy="876.211" rx="9.67634" ry="9.30679" fill="#EDF2FF"/>
<ellipse cx="589.609" cy="964.316" rx="9.67634" ry="9.30679" fill="#EDF2FF"/>
<ellipse cx="589.609" cy="1042.49" rx="9.67634" ry="9.30679" fill="#EDF2FF"/>
<ellipse cx="436.069" cy="383.826" rx="58.0695" ry="55.0806" fill="#EBBAAA"/>
<ellipse cx="763.137" cy="388.096" rx="58.0695" ry="55.0806" fill="#EBBAAA"/>
<path d="M429.206 291.573C425.4 195.212 502.489 115.018 598.925 115.018C695.593 115.018 772.77 195.583 768.619 292.161L763.013 422.613C759.231 510.618 686.784 580.018 598.698 580.018C510.391 580.018 437.845 510.281 434.36 422.043L429.206 291.573Z" fill="#EED4CC"/>
<path d="M557.802 284.48L498.878 286.021" stroke="#393939" stroke-width="22" stroke-linecap="round"/>
<path d="M640.726 283.934L699.614 286.502" stroke="#393939" stroke-width="22" stroke-linecap="round"/>
<path d="M560 481C560 481 574.667 489.5 600 489.5C625.333 489.5 640 481 640 481" stroke="#C99584" stroke-width="15.3993" stroke-linecap="round"/>
<path d="M521 363.429C524.667 361.596 534.9 359.029 546.5 363.429" stroke="black" stroke-width="21" stroke-linecap="round"/>
<path d="M649 364.429C652.667 362.596 662.9 360.029 674.5 364.429" stroke="black" stroke-width="21" stroke-linecap="round"/>
<path d="M587.036 354.561C589.806 342.163 580.786 330.242 568.101 329.538L495.033 325.483C481.789 324.747 471.322 336.555 473.64 349.615L479.373 381.912C481.116 391.732 489.653 398.886 499.626 398.886L560.651 398.886C570.283 398.886 578.625 392.202 580.725 382.802L587.036 354.561Z" fill="white" fill-opacity="0.29"/>
<path d="M724.326 348.106C726.067 335.163 715.464 323.895 702.439 324.848L629.862 330.158C616.844 331.11 607.994 343.79 611.589 356.338L619.735 384.773C622.263 393.597 630.331 399.678 639.509 399.678L699.399 399.678C709.699 399.678 718.411 392.059 719.785 381.852L724.326 348.106Z" fill="white" fill-opacity="0.29"/>
<path d="M612.624 353.636C608.167 351.236 596.683 347.877 586.398 353.636" stroke="#393939" stroke-width="9.25617"/>
<rect x="419.232" y="246.018" width="23" height="138" rx="11.5" fill="#393939"/>
<rect x="753.232" y="265.018" width="23" height="122" rx="11.5" fill="#2C2929"/>
<path d="M592.691 386.018C590.699 400.535 548.732 435.017 603.732 435.017" stroke="#EBBAAA" stroke-width="17"/>
<path d="M471.232 188.017C441.232 208.886 449.899 241.017 441.232 268.017C441.232 301.005 429.861 341.787 417.232 343.017C405.935 344.117 393.232 309.362 393.232 277.017C393.232 172.017 452.398 107.017 544.398 107.017C574.555 107.017 685.232 79.0171 685.232 167.017C640.232 192.017 506.232 163.669 471.232 188.017Z" fill="#393939"/>
<path d="M545.232 178.017C630.129 178.017 714.112 198.517 731.112 218.517C739.788 261.557 734.25 336.017 783.232 336.017C805.232 336.017 801.382 236.932 799.232 218.517C784.187 89.6407 638.855 60.7679 552.232 87.017C499.232 103.078 460.336 178.017 545.232 178.017Z" fill="#2C2929"/>
<path d="M521.232 111.017C526.232 97.0169 553.032 69.2169 620.232 70.0169" stroke="#2C2929" stroke-width="9" stroke-linecap="round"/>
<path d="M449.232 114.017C474.232 103.017 499.232 99.0171 516.232 110.017" stroke="#393939" stroke-width="9" stroke-linecap="round"/>
<path d="M585.232 209.018C560.062 188.398 517.232 169.068 496.232 176.734C561.232 150.734 557.232 151.49 618.232 191.49C667.032 223.49 737.899 226.017 756.232 223.018C735.232 242.018 732.232 241.393 718.232 244.018C669.108 253.228 614.232 232.773 585.232 209.018Z" fill="#2C2929"/>
<path d="M622.232 187.89C597.062 167.27 550.232 162.373 529.232 170.04C594.232 144.04 606.232 130.04 667.232 170.04C716.032 202.04 726.899 214.04 745.232 211.04C763.566 208.04 778.232 206.518 745.232 228.018C706.232 249.518 651.232 211.646 622.232 187.89Z" fill="#393939"/>
</svg>
