<svg width="1200" height="1600" viewBox="0 0 1200 1600" fill="none" xmlns="http://www.w3.org/2000/svg">
<path d="M480.382 1048C437.382 1104 377.382 1087 453.382 1193" stroke="#EBBAAA" stroke-width="74" stroke-linecap="round" stroke-linejoin="bevel"/>
<path d="M387 1155L456 1121L487 1179L506.58 1221.7L443 1250L412 1200L387 1155Z" fill="#E86B43"/>
<path d="M699 1106C711 1164 725 1286 715 1356" stroke="#EBBAAA" stroke-width="74" stroke-linecap="round" stroke-linejoin="bevel"/>
<path d="M679 1269H756V1324.5L752.5 1369H677L679.5 1324.5L679 1269Z" fill="#E86B43"/>
<path d="M606 1051L477 980L393 1069L527 1142L606 1051Z" fill="#122B42"/>
<path d="M545 1122L410 1050L391 1070L527 1143L545 1122Z" fill="#395875"/>
<ellipse cx="611.5" cy="999" rx="134.5" ry="59" fill="#122B42"/>
<path d="M616 1051L756 965L786 1165L636.484 1187L616 1051Z" fill="#122B42"/>
<path d="M632.484 1162L783 1140L787 1165L636.484 1187L632.484 1162Z" fill="#395875"/>
<path d="M463 747C456.333 801.667 434 869 360 909" stroke="#EBBAAA" stroke-width="74" stroke-linecap="round" stroke-linejoin="bevel"/>
<path d="M761 694C805 772 837 924 821 968" stroke="#EBBAAA" stroke-width="74" stroke-linecap="round" stroke-linejoin="bevel"/>
<path d="M435.974 653.014C446.384 620.974 480.798 603.439 512.838 613.85L560.362 629.291C592.402 639.702 609.937 674.115 599.526 706.156L563.553 816.871L400 763.73L435.974 653.014Z" fill="#DB5B32"/>
<path d="M818.403 671.014C807.992 638.974 773.579 621.439 741.538 631.85L694.015 647.291C661.974 657.702 644.44 692.115 654.85 724.156L690.824 834.871L854.376 781.73L818.403 671.014Z" fill="#DB5B32"/>
<rect x="836.383" y="768.397" width="106.597" height="16.1896" transform="rotate(162 836.383 768.397)" fill="#FFF7F5"/>
<rect x="423.003" y="733" width="106.597" height="16.1896" transform="rotate(18 423.003 733)" fill="#FFF7F5"/>
<path d="M483.887 660.581C484.696 627.189 511.425 600.232 544.81 599.141L622.739 596.593C629.089 596.385 635.445 596.718 641.739 597.589L717.813 608.108C751.37 612.748 775.251 643.095 771.869 676.803L757.475 820.28L764.697 995.84C764.769 997.603 763.312 999.047 761.55 998.959L468.351 984.298C466.657 984.214 465.37 982.743 465.512 981.052L480.45 802.414L483.887 660.581Z" fill="#E96B43"/>
<mask id="mask0" mask-type="alpha" maskUnits="userSpaceOnUse" x="466" y="596" width="310" height="403">
<path d="M482.882 659.234C484.594 626.554 511.042 600.627 543.749 599.564L623.34 596.977C629.676 596.771 636.019 597.103 642.299 597.97L721.184 608.863C753.6 613.339 777.193 641.889 775.48 674.568L758.635 995.991C758.548 997.645 757.137 998.916 755.482 998.83L468.876 983.809C467.221 983.723 465.95 982.311 466.037 980.656L482.882 659.234Z" fill="#E96B43"/>
</mask>
<g mask="url(#mask0)">
<rect x="522.94" y="595" width="30" height="440.759" transform="rotate(3 522.94 595)" fill="#D15229"/>
<rect x="582.99" y="637.476" width="30" height="381" transform="rotate(3 582.99 637.476)" fill="#D15229"/>
<rect x="649.498" y="595" width="30" height="429.879" transform="rotate(3 649.498 595)" fill="#D15229"/>
<rect x="710.031" y="606" width="30" height="420.943" transform="rotate(3 710.031 606)" fill="#D15229"/>
</g>
<ellipse cx="624.5" cy="626.5" rx="59.5" ry="63.5" fill="#FFF7F5"/>
<path d="M567.481 794.768C562.102 794.486 557.322 792.954 553.142 790.171C548.965 787.336 545.769 783.617 543.553 779.014C541.338 774.412 540.371 769.421 540.653 764.042C540.923 758.876 542.397 754.2 545.073 750.014C547.802 745.831 551.443 742.604 555.995 740.332C560.546 738.061 565.645 737.073 571.291 737.369C574.38 737.531 577.344 738.033 580.184 738.876C583.077 739.722 585.662 740.846 587.938 742.247L582.016 754.354C578.473 752.672 575.13 751.75 571.988 751.585C567.887 751.37 564.648 752.535 562.271 755.081C559.898 757.574 558.599 760.95 558.376 765.211C558.231 767.981 558.605 770.51 559.5 772.8C560.398 775.037 561.718 776.842 563.462 778.215C565.259 779.591 567.33 780.341 569.673 780.463C570.951 780.53 572.022 780.48 572.885 780.311L573.56 767.449L587.464 766.575L586.154 791.581C579.99 794.035 573.766 795.098 567.481 794.768ZM604.317 740.301L642.904 742.324L642.267 754.467L623.094 753.462L622.57 763.448L640.066 764.365L639.539 774.432L622.043 773.515L621.486 784.14L640.66 785.145L640.023 797.288L601.436 795.266L604.317 740.301ZM658.62 743.147L697.207 745.17L696.571 757.313L677.397 756.308L676.874 766.294L694.37 767.211L693.842 777.277L676.346 776.361L675.79 786.986L694.963 787.991L694.327 800.134L655.74 798.112L658.62 743.147Z" fill="#FFF7F5"/>
<rect x="584.808" y="559.016" width="76.8567" height="115.285" rx="38.4283" fill="#EBBAAA"/>
<ellipse cx="461.838" cy="422.809" rx="58.0695" ry="55.0806" fill="#EBBAAA"/>
<ellipse cx="790.905" cy="427.079" rx="58.0695" ry="55.0806" fill="#EBBAAA"/>
<path d="M450 324.197C450 226.334 529.334 147 627.197 147C725.061 147 804.395 226.334 804.395 324.197V445.46C804.395 543.323 725.061 622.657 627.197 622.657C529.334 622.657 450 543.323 450 445.46V324.197Z" fill="#F6DDD6"/>
<mask id="mask1" mask-type="alpha" maskUnits="userSpaceOnUse" x="450" y="147" width="355" height="476">
<path d="M450 324.197C450 226.334 529.334 147 627.197 147C725.061 147 804.395 226.334 804.395 324.197V445.46C804.395 543.323 725.061 622.657 627.197 622.657C529.334 622.657 450 543.323 450 445.46V324.197Z" fill="#F6DDD6"/>
</mask>
<g mask="url(#mask1)">
<path d="M519 496C480.702 496.56 466.043 445.564 452 429C448.333 461 440.8 526.2 440 531C439.2 535.8 465.667 595 479 624H714L798 525C801 483.333 817 410 805 438C793 466 756.333 496 729 496C729 496 668 483 620 483C572 483 519 496 519 496Z" fill="#D5CCC9"/>
<path d="M577.07 514C602 525 634 528 668.07 520" stroke="#C99584" stroke-width="15" stroke-linecap="round"/>
</g>
<path d="M524.032 355.275L580.374 353.8" stroke="#393939" stroke-width="24" stroke-linecap="round"/>
<path d="M567.252 398.728L567.252 426.995" stroke="black" stroke-width="24" stroke-linecap="round"/>
<path d="M685.098 398.728L685.098 426.995" stroke="black" stroke-width="24" stroke-linecap="round"/>
<path d="M669.06 354.208L725.402 355.683" stroke="#393939" stroke-width="24" stroke-linecap="round"/>
<path d="M623.333 235.625C538.436 235.625 463.651 235.625 463.651 290.385C454.975 333.424 446.132 311.712 441 272.516C445.805 158.154 574.066 134 627 134C670.383 164.742 708.23 235.625 623.333 235.625H623.333Z" fill="#393939"/>
<rect x="441" y="269" width="23.057" height="122" rx="11.5285" fill="#393939"/>
<path d="M629.667 235.625C714.564 235.625 789.349 235.625 789.349 290.385C798.025 333.424 806.868 311.713 812 272.516C807.195 158.154 679.434 134 626.5 134C583.117 164.742 544.77 235.625 629.667 235.625Z" fill="#393939"/>
<rect width="23.057" height="121" rx="11.5285" transform="matrix(-1 0 0 1 811.632 269)" fill="#393939"/>
<path d="M620.198 259.217C605.059 248.143 584.521 239.22 549 237L625.686 216.5L706.5 237C673.825 238.79 648.764 248.594 631.449 259.597C627.988 261.797 623.508 261.639 620.198 259.217Z" fill="#393939"/>
<circle cx="519.5" cy="1366.5" r="99.5" fill="white"/>
<path fill-rule="evenodd" clip-rule="evenodd" d="M424.824 1335.93C441.684 1283.73 497.865 1254.96 550.075 1271.82C602.273 1288.68 631.037 1344.86 614.176 1397.07C597.316 1449.28 541.135 1478.03 488.925 1461.18C436.727 1444.32 407.963 1388.13 424.824 1335.93ZM566.984 1313.09L538.061 1322.54L531.175 1343.84L546.456 1364.8L567.737 1366.05L587.028 1342.51L604.143 1349.2C599.552 1326.97 586.322 1307.07 566.96 1294.32L566.984 1313.09ZM512.953 1295.63L524.08 1280.25C500.829 1279.03 478.296 1287.3 461.423 1302.58L479.718 1307.41L481.442 1337.78L499.178 1349.19L524.176 1341.01L530.882 1320.22L512.953 1295.63ZM439.57 1399.23L450.053 1384.1L450.053 1384.09L479.195 1392.85L494.853 1380.94L494.804 1355.33L477.36 1344.11L447.041 1352.72L437.068 1340.53C430.751 1360.53 432.148 1381.16 439.57 1399.23ZM492.934 1448.79C483.386 1445.71 474.809 1441.04 467.254 1435.28L484.381 1426.92L483.749 1398.84L499.189 1387.11L524.286 1395.21L529.971 1413.86L511.641 1438.15L521.917 1452.84C512.345 1453.12 502.554 1451.9 492.934 1448.79ZM565.635 1439.56V1423.5L537.186 1411.65L531.282 1392.31L545.761 1372.3L567.299 1373.57L583.722 1399.19L601.191 1394.62C595.377 1411.5 584.847 1425.48 571.515 1435.51C569.61 1436.94 567.649 1438.29 565.635 1439.56Z" fill="#383535"/>
<path d="M821.395 1435.66L842.375 1436.58L841.786 1450.06C841.533 1455.86 836.631 1460.35 830.838 1460.09C825.044 1459.84 820.553 1454.94 820.806 1449.15L821.395 1435.66Z" fill="#E86B43"/>
<path d="M793.421 1434.44L814.401 1435.35L813.813 1448.84C813.56 1454.63 808.658 1459.13 802.865 1458.87C797.071 1458.62 792.58 1453.72 792.833 1447.93L793.421 1434.44Z" fill="#E86B43"/>
<path d="M711.499 1430.86L732.479 1431.78L731.89 1445.26C731.637 1451.06 726.736 1455.55 720.942 1455.3C715.149 1455.04 710.657 1450.14 710.91 1444.35L711.499 1430.86Z" fill="#E86B43"/>
<path d="M739.473 1432.08L760.453 1433L759.864 1446.49C759.611 1452.28 754.709 1456.77 748.916 1456.52C743.122 1456.26 738.631 1451.36 738.884 1445.57L739.473 1432.08Z" fill="#E86B43"/>
<path d="M683.526 1429.64L704.506 1430.56L703.917 1444.04C703.664 1449.84 698.762 1454.33 692.969 1454.08C687.176 1453.82 682.684 1448.92 682.937 1443.13L683.526 1429.64Z" fill="#E86B43"/>
<path d="M848.934 1435.36C847.333 1418.42 824.739 1398.88 802.414 1384.08C775.141 1366.01 742.658 1360.44 709.971 1359.01L680.201 1357.71C677.198 1357.42 674.568 1359.71 674.436 1362.73L671.319 1434.11C671.151 1437.97 674.145 1441.24 678.007 1441.41L841.565 1448.55C845.558 1448.73 848.852 1439.36 848.934 1435.36Z" fill="#091928"/>
<mask id="mask2" mask-type="alpha" maskUnits="userSpaceOnUse" x="670" y="1357" width="180" height="92">
<path d="M847.697 1429.3C843.104 1398.91 818.862 1375.28 788.362 1371.46L680.704 1357.98C677.189 1357.54 674.046 1360.19 673.892 1363.73L670.82 1434.09C670.651 1437.95 673.645 1441.22 677.508 1441.39L837.855 1448.39C843.648 1448.64 848.55 1444.15 848.803 1438.36L849.021 1433.36L847.697 1429.3Z" fill="#091928"/>
</mask>
<g mask="url(#mask2)">
<path d="M673.156 1369.13L726.105 1371.44C775.427 1376.6 783.866 1403.55 817.965 1422.5C832.624 1430.64 847.992 1441.66 852.78 1427.52" stroke="#E86B43" stroke-width="7"/>
<path d="M788.75 1425.62L769.931 1459.83" stroke="#FFF7F5" stroke-width="16"/>
<path d="M768.746 1406.73L739.004 1457.48" stroke="#FFF7F5" stroke-width="16"/>
<path d="M746.466 1389.74L712.836 1449.3" stroke="#FFF7F5" stroke-width="16"/>
</g>
<path d="M396.085 1327.23L377.543 1337.09L383.881 1349.01C386.603 1354.13 392.961 1356.07 398.081 1353.35C403.202 1350.63 405.145 1344.27 402.423 1339.15L396.085 1327.23Z" fill="#E86B43"/>
<path d="M420.807 1314.08L402.265 1323.94L408.603 1335.86C411.326 1340.98 417.684 1342.93 422.804 1340.2C427.924 1337.48 429.868 1331.12 427.145 1326L420.807 1314.08Z" fill="#E86B43"/>
<path d="M493.209 1275.59L474.667 1285.44L481.005 1297.36C483.728 1302.48 490.085 1304.43 495.206 1301.71C500.326 1298.98 502.27 1292.63 499.547 1287.51L493.209 1275.59Z" fill="#E86B43"/>
<path d="M468.487 1288.73L449.945 1298.59L456.283 1310.51C459.005 1315.63 465.363 1317.57 470.483 1314.85C475.603 1312.13 477.547 1305.77 474.824 1300.65L468.487 1288.73Z" fill="#E86B43"/>
<path d="M517.932 1262.44L499.39 1272.3L505.728 1284.22C508.45 1289.34 514.808 1291.28 519.928 1288.56C525.048 1285.84 526.992 1279.48 524.27 1274.36L517.932 1262.44Z" fill="#E86B43"/>
<path d="M371.1 1338.81C365.252 1322.84 377.232 1295.47 391.012 1272.5C407.847 1244.45 434.768 1225.44 463.656 1210.08L489.966 1196.09C492.554 1194.54 495.913 1195.47 497.33 1198.13L530.874 1261.22C532.689 1264.64 531.393 1268.87 527.98 1270.69L383.43 1347.55C379.901 1349.42 372.894 1342.39 371.1 1338.81Z" fill="#091928"/>
<mask id="mask3" mask-type="alpha" maskUnits="userSpaceOnUse" x="366" y="1195" width="167" height="153">
<path d="M369.607 1332.81C360.668 1303.4 372.375 1271.64 398.26 1255.06L489.629 1196.55C492.612 1194.64 496.591 1195.68 498.254 1198.81L531.316 1260.99C533.131 1264.4 531.835 1268.64 528.422 1270.45L386.709 1345.8C381.588 1348.53 375.231 1346.58 372.508 1341.46L370.161 1337.05L369.607 1332.81Z" fill="#280909"/>
</mask>
<g mask="url(#mask3)">
<path d="M501.242 1203.36L454.445 1228.24C412.148 1254.13 416.132 1282.09 393.514 1313.87C383.79 1327.54 374.662 1344.09 364.254 1333.39" stroke="#E86B43" stroke-width="7"/>
<path d="M419.81 1304.28L451.525 1327.05" stroke="#FFF7F5" stroke-width="16"/>
<path d="M429.734 1278.61L478.427 1311.62" stroke="#FFF7F5" stroke-width="16"/>
<path d="M442.53 1253.69L498.524 1292.97" stroke="#FFF7F5" stroke-width="16"/>
</g>
<path d="M608 409H644.72" stroke="black" stroke-width="14"/>
<rect x="497" y="389" width="107" height="64" rx="10" stroke="#393939" stroke-width="14"/>
<rect x="646" y="389" width="107" height="64" rx="10" stroke="#393939" stroke-width="14"/>
<path d="M619.5 422C614 433.5 602 462 627.5 462" stroke="#EBBAAA" stroke-width="17"/>
</svg>
