<svg width="1200" height="1600" viewBox="0 0 1200 1600" fill="none" xmlns="http://www.w3.org/2000/svg">
<path d="M663.5 1132L665 1443" stroke="#F6DDD6" stroke-width="68"/>
<path d="M530.5 1090L530 1440" stroke="#F6DDD6" stroke-width="68"/>
<path d="M386.685 1485.05C386.486 1462.24 389.613 1458.31 409.563 1448.98C429.513 1439.66 448.305 1426.71 482.82 1411.35C482.82 1411.35 487.362 1410.49 494.757 1414.47C501.068 1417.86 509.173 1426.18 521.387 1426.07C534.649 1425.96 546.468 1423.17 553.811 1419.34C556.984 1410.7 564.022 1410.64 564.022 1410.64C564.022 1410.64 573.93 1429.38 574.094 1448.21C574.259 1467.05 574.241 1483.42 574.241 1483.42L386.685 1485.05Z" fill="#161616"/>
<path d="M448.599 1450.24C454.099 1454.22 461.099 1459.68 477.599 1458.19C503.664 1455.84 508.6 1440.3 525.1 1440.3C539.814 1440.3 547.599 1453.22 553.599 1453.22" stroke="white" stroke-width="7"/>
<path d="M476.72 1410.22C478.886 1415.06 478.886 1420.98 478.886 1424.74L460.479 1416.67L464.81 1432.28L448.028 1426.9V1442.5L435.035 1435.51V1448.96" stroke="white" stroke-width="5.41368" stroke-linecap="round" stroke-linejoin="round"/>
<path d="M394.235 1450.73C400.356 1448.53 406.838 1446.86 419.265 1444.06L413.983 1459.17L414.133 1476.39L378.761 1476.69C377.317 1476.71 374.738 1474.79 375.97 1467.03C377.509 1457.34 385.538 1453.87 394.235 1450.73Z" fill="#393A40"/>
<path d="M550.099 1452.22C554.57 1447.52 568.6 1442.28 573.6 1443.77L574.599 1461.66L574.598 1476.68C545.832 1476.69 543.598 1476.69 543.598 1476.69C545.137 1466.99 541.599 1461.17 550.099 1452.22Z" fill="#393A40"/>
<path d="M575.019 1485.59L574.807 1472.3L497.004 1475.52L415.202 1474.76L375.655 1471.88L374.689 1480.54C374.143 1485.44 377.788 1489.81 382.704 1490.15L415.399 1492.39L570.755 1489.99C573.147 1489.95 575.057 1487.98 575.019 1485.59Z" fill="#D3D5E0"/>
<path d="M573.098 1476.57L497.598 1479.06L415.098 1479.07L377.598 1476.58" stroke="black" stroke-width="2"/>
<path d="M799.411 1485.05C799.61 1462.24 796.484 1458.31 776.534 1448.98C756.584 1439.66 737.792 1426.71 703.277 1411.35C703.277 1411.35 698.734 1410.49 691.339 1414.47C685.029 1417.86 676.924 1426.18 664.71 1426.07C651.447 1425.96 639.629 1423.17 632.286 1419.34C629.113 1410.7 622.075 1410.64 622.075 1410.64C622.075 1410.64 612.167 1429.38 612.002 1448.21C611.838 1467.05 611.856 1483.42 611.856 1483.42L799.411 1485.05Z" fill="#161616"/>
<path d="M737.498 1450.24C731.998 1454.22 724.998 1459.68 708.498 1458.19C682.433 1455.84 677.497 1440.3 660.997 1440.3C646.283 1440.3 638.498 1453.22 632.498 1453.22" stroke="white" stroke-width="7"/>
<path d="M709.376 1410.22C707.211 1415.06 707.211 1420.98 707.211 1424.74L725.617 1416.67L721.286 1432.28L738.069 1426.9V1442.5L751.062 1435.51V1448.96" stroke="white" stroke-width="5.41368" stroke-linecap="round" stroke-linejoin="round"/>
<path d="M791.862 1450.73C785.741 1448.53 779.259 1446.86 766.832 1444.06L772.114 1459.17L771.963 1476.39L807.336 1476.69C808.779 1476.71 811.359 1474.79 810.127 1467.03C808.587 1457.34 800.559 1453.87 791.862 1450.73Z" fill="#393A40"/>
<path d="M635.998 1452.22C631.527 1447.52 617.497 1442.28 612.497 1443.77L611.498 1461.66L611.499 1476.68C640.264 1476.69 642.499 1476.69 642.499 1476.69C640.959 1466.99 644.498 1461.17 635.998 1452.22Z" fill="#393A40"/>
<path d="M611.078 1485.59L611.289 1472.3L689.092 1475.52L770.895 1474.76L810.441 1471.88L811.407 1480.54C811.954 1485.44 808.309 1489.81 803.392 1490.15L770.697 1492.39L615.342 1489.99C612.949 1489.95 611.04 1487.98 611.078 1485.59Z" fill="#D3D5E0"/>
<path d="M612.999 1476.57L688.499 1479.06L770.999 1479.07L808.499 1476.58" stroke="black" stroke-width="2"/>
<path d="M587 1035C650.512 1035 701.999 1011.49 701.999 982.5C701.999 953.505 650.512 930 587 930C523.487 930 472 953.505 472 982.5C472 1011.49 523.487 1035 587 1035Z" fill="#252424"/>
<path d="M586 953H716L707 1389H612.828L586 953Z" fill="#252424"/>
<path d="M588 953H458L478 1389H572.171L588 953Z" fill="#252424"/>
<path d="M756.708 470.5C756.708 460.992 757.708 420.667 756.708 403L733.208 406L675.707 454.5C665.041 479.167 615.509 567.4 618.709 581C622.709 598 687.266 611.739 708.209 626.5C791.209 685 774.708 579 771.208 558C767.708 537 756.708 498.5 756.708 470.5Z" fill="#17100F"/>
<path d="M388.709 549.5C394.228 523.631 411.21 385.667 417.71 329.5L441.21 320L672.209 543.5C623.542 613.333 382.61 757.1 366.21 765.5C345.71 776 354.152 678.951 358.21 659C364.21 629.5 380.709 587 388.709 549.5Z" fill="#17100F" stroke="black"/>
<path d="M518 928.967V575H654V928.967C654 928.967 606.325 938 586 938C565.675 938 518 928.967 518 928.967Z" fill="#FAF3EA"/>
<rect x="546" y="493" width="80" height="116" rx="40" fill="#EBBAAA"/>
<path d="M546 529L560.509 536.254C576.556 544.278 595.444 544.278 611.491 536.254L626 529V579C626 601.091 608.091 619 586 619C563.909 619 546 601.091 546 579V529Z" fill="#EADFD2"/>
<path d="M519 968V909H655V968H519Z" fill="#EADFD2"/>
<path d="M386.765 651.849C393.177 604.005 437.517 570.674 485.259 577.809C531.991 584.793 564.465 627.993 558.188 674.825L529.207 891.055C522.794 938.899 478.454 972.231 430.713 965.096C383.981 958.111 351.506 914.911 357.783 868.079L386.765 651.849Z" fill="#2B4166"/>
<path d="M785.509 635.312C779.229 587.35 734.827 553.866 686.986 561.016C640.357 567.984 607.904 611.02 614.025 657.767L644.438 890.025C650.719 937.988 695.121 971.471 742.962 964.322C789.59 957.353 822.043 914.318 815.922 867.57L785.509 635.312Z" fill="#2B4166"/>
<path d="M407.883 1101.14L450.831 567.729L543.5 561L576 750.5C567.41 863.883 555.624 1119.18 555.624 1132.93C555.624 1146.67 450.831 1115.46 407.883 1101.14Z" fill="#3C557C"/>
<path d="M480.301 918.237L440.434 997.032L428.188 981.44L468.466 912.777L480.301 918.237Z" fill="#62789C"/>
<path d="M576.5 749.5L544.5 549.5L474 558.5L559.5 746.5L567.5 887L576.5 749.5Z" fill="#62789C"/>
<path d="M765.211 1095.13L722.5 567.5L625 563.5L597.5 753C606.09 866.383 617.469 1113.17 617.469 1126.91C617.469 1140.66 722.263 1109.45 765.211 1095.13Z" fill="#3C557C"/>
<path d="M681.031 917.237L720.898 996.032L733.143 980.44L692.866 911.777L681.031 917.237Z" fill="#62789C"/>
<path d="M597.5 754L627 552C627 552 678.833 557 690.5 557L621 762.5L607 916L597.5 754Z" fill="#62789C"/>
<path d="M690 557L621 762L607 901" stroke="white" stroke-width="5" stroke-linecap="round"/>
<path d="M481 558L558 750L566 887" stroke="white" stroke-width="5" stroke-linecap="round"/>
<circle cx="545.747" cy="770.874" r="9.87807" fill="#536F9D"/>
<circle cx="539.734" cy="904.872" r="9.87807" fill="#536F9D"/>
<circle cx="544.028" cy="837.873" r="9.87807" fill="#536F9D"/>
<circle cx="532.003" cy="969.294" r="9.87807" fill="#536F9D"/>
<circle cx="525.991" cy="1025.13" r="9.87807" fill="#536F9D"/>
<path opacity="0.5" d="M744 400C766.091 400 784 382.091 784 360C784 337.909 766.091 320 744 320C721.909 320 704 337.909 704 360C704 382.091 721.909 400 744 400Z" fill="#DE8E7C"/>
<path opacity="0.5" d="M430 400C407.909 400 390 382.091 390 360C390 337.909 407.909 320 430 320C452.091 320 470 337.909 470 360C470 382.091 452.091 400 430 400Z" fill="#DE8E7C"/>
<path d="M435 275C435 192.157 502.157 125 585 125C667.843 125 735 192.157 735 275V381C735 463.843 667.843 531 585 531C502.157 531 435 463.843 435 381V275Z" fill="#F4D5CC"/>
<path d="M608 313C608 307.477 612.477 303 618 303H698C703.523 303 708 307.477 708 313V363C708 376.807 696.807 388 683 388H658C630.386 388 608 365.614 608 338V313Z" stroke="white" stroke-opacity="0.75" stroke-width="8"/>
<path d="M564 313C564 307.477 559.523 303 554 303H474C468.477 303 464 307.477 464 313V363C464 376.807 475.193 388 489 388H514C541.614 388 564 365.614 564 338V313Z" stroke="white" stroke-opacity="0.75" stroke-width="8"/>
<rect x="561" y="313" width="50" height="8" fill="white" fill-opacity="0.75"/>
<path d="M647.537 325.407V353.297" stroke="black" stroke-width="24" stroke-linecap="round"/>
<path d="M522.46 325.407V353.297" stroke="black" stroke-width="24" stroke-linecap="round"/>
<path fill-rule="evenodd" clip-rule="evenodd" d="M621.135 434.603V448.469C621.135 469.769 603.868 487.037 582.567 487.037C561.267 487.037 544 469.769 544 448.469V434.603H621.135Z" fill="#393939"/>
<mask id="mask0" mask-type="alpha" maskUnits="userSpaceOnUse" x="544" y="428" width="78" height="60">
<path fill-rule="evenodd" clip-rule="evenodd" d="M620.625 428C620.96 430.046 621.135 432.146 621.135 434.287V448.47C621.135 469.77 603.868 487.037 582.567 487.037C561.267 487.037 544 469.77 544 448.47V434.287C544 432.146 544.174 430.046 544.51 428H620.625Z" fill="#434343"/>
</mask>
<g mask="url(#mask0)">
<ellipse rx="23.2582" ry="12.6667" transform="matrix(-1 0 0 1 580.51 487.942)" fill="#FF6C6C"/>
<rect width="77.1347" height="15.907" transform="matrix(-1 0 0 1 621.135 432.604)" fill="white"/>
</g>
<path d="M648.852 169.512C601.252 143.112 580.852 141.012 524.852 181.512C468.352 167.012 518.852 130.012 540.852 119.012C562.852 108.012 612.352 104.012 653.852 125.012C695.352 146.012 708.352 202.512 648.852 169.512Z" fill="#311E1C"/>
<path d="M495.556 219.071C522.493 187.512 573.493 185.012 586.493 176.012C591.494 173.591 591.493 126.967 579.493 117.512C562.993 104.512 504.493 130.013 478.493 154.513C452.493 179.013 426.713 230 414.993 303.513C409.493 338.013 405.493 447.513 405.493 486.513C405.493 525.513 409.993 576.013 405.493 620.513C402.423 650.874 397.999 706 398 780.5C398 797.513 445.762 802.658 448.493 789C452.493 769 448.999 656.013 453 620.513C457.41 581.387 464.493 554.013 458.993 517.513C453.494 481.013 436.993 444.513 443.493 423.013C449.993 401.513 447.493 349.013 448.493 316.513C449.493 284.013 468.241 251.073 495.556 219.071Z" fill="#311E1C"/>
<path d="M450 640.5C443.6 610.1 431.167 471 429 406C430 406.333 439.1 408.6 441.5 409C443.9 409.4 445.833 409.167 446.5 409C449.333 421.5 450.574 440.148 460 459C467.5 474 481 488.833 487.5 495.5C493.167 517.667 505.3 569.6 508.5 600C512.5 638 508.5 757 499.5 757C478.607 757 463.906 760 460 747.5C452.5 723.5 458 678.5 450 640.5Z" fill="#311E1C"/>
<path d="M671.501 216C641.952 187.634 594.499 181.501 589.999 174.501C585.332 158.501 584.413 122.612 605 115.501C632.501 106.001 711.5 144.5 735.5 207C753.39 253.589 765 311.5 765 361.5C765 391 741 544 738.5 569C736 594 737 612.5 738.5 665C740 717.5 740 761.975 729 765C709 770.5 646.5 762.5 638 761C629.5 759.5 635 724.8 635 705.5C635 679 653 589.5 662.5 555C669.801 528.487 706 444 708.5 437C718.731 408.352 729 379.5 720.5 316.5C720.5 305.5 719.999 292 718.5 284.5C714.716 265.574 696.501 240 671.501 216Z" fill="#311E1C"/>
<path d="M626.953 280.598L683.047 281.903" stroke="#393939" stroke-width="18" stroke-linecap="round"/>
<path d="M482.961 282.202L539.038 280.299" stroke="#393939" stroke-width="18" stroke-linecap="round"/>
<path d="M583 363C573 378 563 413 593 413" stroke="#EBBAAA" stroke-width="17"/>
</svg>
