<svg width="1200" height="1600" viewBox="0 0 1200 1600" fill="none" xmlns="http://www.w3.org/2000/svg">
<ellipse cx="592.359" cy="626.631" rx="59.9748" ry="36.2795" fill="#EBBAAA"/>
<path d="M719.07 1050.28C719.07 1075.41 666.904 1096.03 596.488 1096.03C526.071 1096.03 468.988 1075.65 468.988 1050.51C468.988 1025.38 526.071 1005 596.488 1005C666.904 1005 719.07 1025.14 719.07 1050.28Z" fill="#2D2D2D"/>
<path d="M664.824 1105.85C676.824 1161.63 670.609 1326.91 670.609 1399.04" stroke="#EBBAAA" stroke-width="57" stroke-linecap="round" stroke-linejoin="bevel"/>
<path d="M543.988 1178.92C537.988 1291.03 528.988 1342.89 531.988 1420.42" stroke="#EBBAAA" stroke-width="57" stroke-linecap="round" stroke-linejoin="bevel"/>
<path d="M430.566 750.362C398.859 810.067 372.859 967.803 398.859 984.154" stroke="#EBBAAA" stroke-width="74" stroke-linecap="round" stroke-linejoin="bevel"/>
<path d="M745.581 726.57C790.933 803.896 807.35 947.268 790.859 990.887" stroke="#EBBAAA" stroke-width="74" stroke-linecap="round" stroke-linejoin="bevel"/>
<path d="M455.859 973.575H590.859L580.859 1313.57V1371.98H495.859L474.571 1313.57L455.859 973.575Z" fill="#2D2D2D"/>
<path d="M589.573 979.366H725.031V1307.04L710.359 1369.04H625.859V1318.86L589.573 979.366Z" fill="#2D2D2D"/>
<path d="M427.859 662.43C427.859 639.827 479.359 616.759 515.359 605.789L530.075 605.789C489.575 690.358 592.334 681.18 598.817 682.043L693.359 616.759C727.95 621.359 781.343 635.744 777.859 669.162L740.407 816.125L743.859 1005.31C743.931 1007.06 661.173 1016.95 659.359 1016.86L521.859 1008.47L447.359 1005.25C445.617 1005.16 444.715 1000.26 444.859 998.582L454.867 798.41L427.859 662.43Z" fill="white"/>
<path d="M769.359 639.346C760.159 630.498 729.859 621.553 715.859 618.187C724.692 731.68 743.159 961.552 746.359 973.094C750.359 987.521 837.859 993.292 845.859 987.521C853.859 981.75 862.859 927.408 860.859 897.592C858.859 867.776 780.859 650.407 769.359 639.346Z" fill="#07080C"/>
<path d="M424.777 641.734C433.389 632.892 461.753 623.955 474.859 620.591C466.59 733.996 449.303 963.691 446.308 975.223C442.563 989.639 360.654 995.406 353.165 989.639C345.676 983.873 337.251 929.573 339.123 899.78C340.996 869.987 414.012 652.786 424.777 641.734Z" fill="#07080C"/>
<path d="M579.859 678.3C574.859 664.354 577.359 645.117 577.359 645.117L554.859 652.331L527.859 601.836C496.692 607.126 495.359 609.05 472.859 618.668C446.018 630.141 451.359 668.682 447.359 721.1L441.859 1008.2L515.859 1019.26L577.359 1025.96L587.359 694.17C587.359 694.17 584.859 692.246 579.859 678.3Z" fill="#07080C"/>
<path d="M598.859 677.818C585.859 667.719 588.025 659.704 590.359 651.849L594.859 648.964L627.859 645.117L658.859 604.721C658.859 604.721 703.359 610.492 718.359 618.186C733.359 625.88 742.359 710.039 742.359 710.039L749.359 1009.64L711.359 1019.74L573.999 1025.73C573.731 1005.49 564.634 974.561 564.98 947.579C566.353 840.366 572.501 700.886 582.859 695.612C599.859 686.955 601.859 680.149 598.859 677.818Z" fill="#07080C"/>
<path opacity="0.5" d="M582.858 695.612C572.5 700.887 566.352 840.366 564.979 947.579C564.633 974.562 582.59 1006.8 582.858 1027.04" stroke="#545454" stroke-width="15"/>
<path d="M631.859 618.186C635.298 607.245 631.859 599.431 630.859 594.622L658.859 604.721C658.859 604.721 668.359 616.263 662.359 642.713C655.786 671.689 626.716 683.109 619.859 690.803C616.859 694.169 617.859 653.292 594.859 648.964C605.359 646.56 625.359 638.865 631.859 618.186Z" fill="#07080C"/>
<path d="M551.911 623.957C544.859 614.339 548.516 600.848 551.911 593.66L527.359 601.836C527.359 601.836 513.241 625.215 520.873 647.811C530.359 675.895 564.153 686.043 563.859 682.627C560.859 647.811 572.848 649.109 577.859 644.636C569.359 642.712 561.283 636.739 551.911 623.957Z" fill="#07080C"/>
<path d="M704.503 474.561C737.235 474.561 763.77 449.04 763.77 417.558C763.77 386.076 737.235 360.555 704.503 360.555C671.771 360.555 645.237 386.076 645.237 417.558C645.237 449.04 671.771 474.561 704.503 474.561Z" fill="#EBBAAA"/>
<path d="M477.221 484.046C444.489 484.046 417.955 458.525 417.955 427.043C417.955 395.561 444.489 370.04 477.221 370.04C509.953 370.04 536.488 395.561 536.488 427.043C536.488 458.525 509.953 484.046 477.221 484.046Z" fill="#EBBAAA"/>
<path d="M438.859 324.973C438.859 242.828 505.451 176.235 587.597 176.235C673.369 176.235 741.365 248.586 736.048 334.193L726.7 484.717C722.293 555.677 663.456 610.973 592.359 610.973C523.067 610.973 464.172 560.345 453.772 491.838L440.839 406.649C439.521 397.965 438.859 389.194 438.859 380.41V324.973Z" fill="#F4D4C9"/>
<path d="M639.407 529.947C639.734 532.562 641.466 538.771 645.78 542.693" stroke="#C99584" stroke-width="10.4682" stroke-linecap="round"/>
<path d="M549.21 529.947C548.807 532.562 546.676 538.771 541.366 542.693" stroke="#C99584" stroke-width="10.4682" stroke-linecap="round"/>
<path d="M545.778 535.829C553.131 540.568 573.766 548.084 597.74 548.084C622.25 548.084 636.792 539.261 641.368 535.829" stroke="#C99584" stroke-width="10.4682"/>
<path d="M435.868 307.409C435.601 301.957 440.823 297.423 447.359 297.423C454.14 297.423 459.447 302.287 458.806 307.917L444.978 403.301C444.796 404.896 443.195 406.107 441.283 406.107C439.286 406.107 437.652 404.798 437.567 403.141L435.868 307.409Z" fill="#272727"/>
<path d="M754.757 307.517C755.31 302.107 750.41 297.342 743.976 297.023C737.299 296.692 731.814 301.271 732.145 306.902L737.721 402.31C737.815 403.905 739.328 405.189 741.21 405.282C743.176 405.379 744.854 404.156 745.027 402.512L754.757 307.517Z" fill="#272727"/>
<path d="M597.57 387.689C579.009 432.751 573.367 490.688 608.798 490.688" stroke="#EBBAAA" stroke-width="17"/>
<path d="M451.444 246.731C463.044 222.878 483.985 206.852 496.319 202.685L537.819 220.478C512.819 209.759 492.219 229.423 475.819 257.508C459.419 285.593 449.611 346.855 448.444 372.022C448.444 372.022 446.319 374.127 443.319 373.887C440.319 373.646 436.4 376.288 436.4 376.288C430.126 315.063 439.844 270.584 451.444 246.731Z" fill="#1E1E1E"/>
<path d="M750.999 271.454C735.499 179.602 680.865 174.792 649.865 165.655L725.865 271.454L742.365 370.04C751.865 357.216 759.01 318.93 750.999 271.454Z" fill="#181818"/>
<path d="M673.303 170.525L693.175 192.731L693.174 175.717L686.53 161.928L675.749 161.928L668.298 150.426L661.054 153.354L654.909 143.867L647.745 145.702L637.531 136.601L629.269 143.41L616.052 135.019L607.837 140.751L601.271 133.186L596.012 139.284L579.839 130.527L579.014 137.176L566.451 135.617L562.022 141.069L550.195 136.601L541.982 145.334L530.158 143.867L526.01 153.105L508.252 173.72L524.547 170.978L526.331 169.287L536.446 159.7L593.523 160.427L673.303 170.525Z" fill="#181818"/>
<path d="M591.813 244.777C667.961 244.777 728.848 244.569 731.988 300.223C744.833 318.322 750 359.669 753 326.731C762.605 221.244 659.645 118.116 586.348 141.724C586.348 141.724 515.655 244.777 591.813 244.777Z" fill="#272727"/>
<path d="M601.163 244.778C525.015 244.778 464.127 244.569 460.988 300.223C448.142 318.322 441.999 355.67 439 322.731C429.394 217.244 533.331 118.116 606.627 141.724C606.627 141.724 677.32 244.778 601.163 244.778Z" fill="#272727"/>
<path d="M613.365 412.919L611.795 392.761C611.795 392.761 621.986 369.863 662.938 365.031C703.89 360.198 721.995 385.38 721.995 385.38L718.826 414.836C716.707 434.527 699.819 449.289 680.022 448.757L650.228 447.955C630.784 447.432 614.875 432.311 613.365 412.919Z" fill="white" fill-opacity="0.22" stroke="black" stroke-width="2"/>
<path d="M617.608 428.029L611.705 389.855C611.265 387.01 612.081 384.118 614.29 382.272C620.286 377.263 634.966 367.611 662.057 364.107C689.916 360.504 709.858 369.941 718.148 374.933C720.915 376.6 722.311 379.711 722.131 382.937L721.08 401.833" stroke="black" stroke-width="8"/>
<path d="M577.698 412.138L579.036 392.976C579.036 392.976 568.856 370.584 528.627 366.163C488.398 361.742 470.827 386.598 470.827 386.598L474.094 414.835C476.371 434.509 493.375 449.135 513.168 448.444L541.117 447.468C560.555 446.79 576.343 431.542 577.698 412.138Z" fill="white" fill-opacity="0.22" stroke="black" stroke-width="2"/>
<path d="M573.608 427.635L579.09 390.207C579.507 387.358 578.666 384.471 576.438 382.647C570.473 377.763 555.999 368.464 529.484 365.25C502.202 361.943 482.743 371.29 474.599 376.267C471.843 377.952 470.475 381.073 470.681 384.297L471.854 402.738" stroke="black" stroke-width="8"/>
<path d="M576.609 392.22C587.109 387.221 599.109 385.22 611.609 392.22" stroke="black" stroke-width="7"/>
<rect x="685.556" y="864.096" width="10.9219" height="100.396" transform="rotate(-21.1868 685.556 864.096)" fill="#545454"/>
<rect width="10.9219" height="100.396" transform="matrix(-0.932407 -0.36141 -0.36141 0.932407 490.827 860.148)" fill="#545454"/>
<path d="M390.996 1457.97C390.996 1427.28 410.721 1423.53 442.872 1413.01C458.619 1407.86 474.689 1403.36 490.996 1400.66C501.243 1398.96 503.996 1407.97 521.996 1407.97C538.048 1407.97 558.073 1400.02 562.22 1398.3C562.741 1398.08 563.357 1397.89 563.771 1398.28C563.871 1398.37 563.955 1398.48 564.018 1398.61C565.935 1402.55 575.996 1424.03 575.996 1441.22C575.996 1454.36 577.122 1467.29 573.496 1473.97C571.859 1476.99 561.644 1478.63 558.214 1478.63H396.558C393.486 1478.63 390.996 1461.05 390.996 1457.97Z" fill="#4E4B48"/>
<mask id="mask0" mask-type="alpha" maskUnits="userSpaceOnUse" x="390" y="1394" width="187" height="85">
<path d="M390.996 1457.97C390.996 1442.2 396.201 1433.55 405.623 1427.43C450.454 1398.32 508.582 1396.95 561.995 1394.97C562.432 1394.97 563.827 1398.22 564.018 1398.61C565.935 1402.55 575.996 1424.03 575.996 1441.22C575.996 1454.36 577.122 1467.29 573.496 1473.97C571.859 1476.99 561.644 1478.63 558.214 1478.63H396.558C393.486 1478.63 390.996 1461.05 390.996 1457.97Z" fill="#9F7352"/>
</mask>
<g mask="url(#mask0)">
<path d="M414.496 1436.97C398.995 1436.97 394.662 1427.97 392.996 1426.47C389.996 1429.97 392.496 1444.07 390.496 1450.47C388.496 1456.87 391.329 1463.14 392.996 1465.47L532.496 1471.97C533.329 1458.64 534.496 1431.97 532.496 1431.97C529.996 1431.97 513.996 1410.47 505.496 1409.97C498.696 1409.57 465.662 1418.14 449.996 1422.47C451.996 1424.47 455.295 1434.67 456.495 1439.47C457.995 1445.47 458.495 1445.47 452.995 1446.97C447.495 1448.47 446.496 1436.97 440.496 1436.97H414.496Z" fill="#333230"/>
<path d="M520.496 1432.47C522.896 1428.47 561.496 1422.81 576.996 1420.97L583.996 1463.97L505.996 1468.47C509.829 1458.14 518.096 1436.47 520.496 1432.47Z" fill="#272625"/>
<path d="M538.496 1403.97C550.496 1403.17 560.496 1396.64 564.496 1392.97C568.496 1396.97 578.396 1407.97 575.996 1411.97C572.996 1416.97 549.996 1420.97 539.996 1420.97C529.996 1420.97 523.496 1404.97 538.496 1403.97Z" fill="#CDC7BB"/>
<path d="M479.495 1463.47C453.995 1462.47 431.995 1468.47 403.995 1462.47C353.995 1456.97 379.684 1460.24 366.996 1484.56H563.079C582.495 1479.97 588.937 1451.68 574.495 1453.97C542.995 1458.97 499.006 1464.24 479.495 1463.47Z" fill="#CDC7BB"/>
<path d="M581.996 1462.47C575.196 1465.27 482.996 1465.47 479.996 1463.47C486.996 1461.97 538.514 1456.13 549.996 1455.48C567.496 1454.48 574.162 1453.14 581.996 1453.48C584.829 1455.48 588.796 1459.67 581.996 1462.47Z" fill="#882929"/>
</g>
<path d="M488.864 1399.97C492.908 1402.44 500.996 1406.13 500.996 1411.05L470.666 1404.08L482.292 1419.25L448.996 1409.79L462.29 1422.97" stroke="#CDC7BB" stroke-width="6.1597" stroke-linecap="round" stroke-linejoin="round"/>
<path d="M494.114 1387.89C494.114 1389.05 494.134 1390.16 494.153 1391.19L494.154 1391.22C494.173 1392.25 494.19 1393.17 494.187 1394.03C494.182 1395.81 494.087 1397.06 493.854 1397.95C493.642 1398.76 493.382 1399.03 493.167 1399.17C492.882 1399.37 492.177 1399.68 490.52 1399.68C487.194 1399.68 482.906 1398.43 479.497 1396.16C476.073 1393.88 474.095 1390.99 474.095 1387.89C474.095 1383.8 475.087 1380.52 476.68 1378.35C478.202 1376.28 480.369 1375.05 483.334 1375.05C489.18 1375.05 494.114 1380.1 494.114 1387.89Z" stroke="#CDC7BB" stroke-width="6.1597"/>
<path d="M500.902 1393.15C500.55 1393.94 500.202 1394.69 499.884 1395.37L499.875 1395.39C499.555 1396.07 499.271 1396.68 499.02 1397.25C498.495 1398.43 498.228 1399.21 498.139 1399.76C498.099 1400.01 498.109 1400.14 498.116 1400.19C498.12 1400.22 498.123 1400.22 498.127 1400.23C498.127 1400.23 498.128 1400.23 498.128 1400.23C498.148 1400.26 498.379 1400.6 499.432 1401.07C501.547 1402.01 504.678 1402.46 507.526 1401.99C510.398 1401.52 512.28 1400.28 513.044 1398.56C514.211 1395.94 514.466 1393.63 514.081 1391.91C513.723 1390.31 512.783 1389.04 510.991 1388.24C507.483 1386.68 503.072 1388.28 500.902 1393.15Z" stroke="#CDC7BB" stroke-width="6.1597"/>
<path d="M481.996 1457.47L467.996 1430.97L478.496 1425.97L496.496 1436.47L486.496 1422.47L496.496 1417.97L510.996 1444.47L500.996 1448.47L481.496 1436.97L491.496 1452.97L481.996 1457.47Z" fill="#882929" stroke="#CDC7BB" stroke-width="2"/>
<path d="M811.652 1457.97C811.652 1427.28 791.926 1423.53 759.776 1413.01C744.029 1407.86 727.958 1403.36 711.652 1400.66C701.405 1398.96 698.652 1407.97 680.652 1407.97C664.6 1407.97 644.574 1400.02 640.427 1398.3C639.907 1398.08 639.29 1397.89 638.877 1398.28C638.776 1398.37 638.692 1398.48 638.63 1398.61C636.712 1402.55 626.652 1424.03 626.652 1441.22C626.652 1454.36 625.526 1467.29 629.152 1473.97C630.788 1476.99 641.003 1478.63 644.433 1478.63H806.089C809.161 1478.63 811.652 1461.05 811.652 1457.97Z" fill="#4E4B48"/>
<mask id="mask1" mask-type="alpha" maskUnits="userSpaceOnUse" x="626" y="1394" width="186" height="85">
<path d="M811.652 1457.97C811.652 1442.2 806.446 1433.55 797.024 1427.43C752.194 1398.32 694.065 1396.95 640.652 1394.97C640.216 1394.97 638.821 1398.22 638.63 1398.61C636.712 1402.55 626.652 1424.03 626.652 1441.22C626.652 1454.36 625.526 1467.29 629.152 1473.97C630.788 1476.99 641.003 1478.63 644.433 1478.63H806.089C809.161 1478.63 811.652 1461.05 811.652 1457.97Z" fill="#9F7352"/>
</mask>
<g mask="url(#mask1)">
<path d="M788.152 1436.97C803.652 1436.97 807.985 1427.97 809.652 1426.47C812.652 1429.97 810.152 1444.07 812.152 1450.47C814.152 1456.87 811.319 1463.14 809.652 1465.47L670.152 1471.97C669.319 1458.64 668.152 1431.97 670.152 1431.97C672.652 1431.97 688.652 1410.47 697.152 1409.97C703.952 1409.57 736.985 1418.14 752.652 1422.47C750.652 1424.47 747.352 1434.67 746.152 1439.47C744.652 1445.47 744.152 1445.47 749.652 1446.97C755.152 1448.47 756.152 1436.97 762.152 1436.97H788.152Z" fill="#333230"/>
<path d="M682.152 1432.47C679.752 1428.47 641.152 1422.81 625.652 1420.97L618.652 1463.97L696.652 1468.47C692.819 1458.14 684.552 1436.47 682.152 1432.47Z" fill="#272625"/>
<path d="M664.152 1403.97C652.152 1403.17 642.152 1396.64 638.152 1392.97C634.152 1396.97 624.252 1407.97 626.652 1411.97C629.652 1416.97 652.652 1420.97 662.652 1420.97C672.652 1420.97 679.152 1404.97 664.152 1403.97Z" fill="#CDC7BB"/>
<path d="M723.152 1463.47C748.652 1462.47 770.652 1468.47 798.652 1462.47C848.652 1456.97 822.964 1460.24 835.652 1484.56H639.568C620.152 1479.97 613.71 1451.68 628.152 1453.97C659.652 1458.97 703.641 1464.24 723.152 1463.47Z" fill="#CDC7BB"/>
<path d="M620.652 1462.47C627.452 1465.27 719.652 1465.47 722.652 1463.47C715.652 1461.97 664.133 1456.13 652.652 1455.48C635.152 1454.48 628.485 1453.14 620.652 1453.48C617.819 1455.48 613.852 1459.67 620.652 1462.47Z" fill="#882929"/>
</g>
<path d="M713.784 1399.97C709.74 1402.44 701.652 1406.13 701.652 1411.05L731.981 1404.08L720.355 1419.25L753.652 1409.79L740.357 1422.97" stroke="#CDC7BB" stroke-width="6.1597" stroke-linecap="round" stroke-linejoin="round"/>
<path d="M708.534 1387.89C708.534 1389.05 708.514 1390.16 708.495 1391.19L708.494 1391.22C708.475 1392.25 708.458 1393.17 708.46 1394.03C708.466 1395.81 708.561 1397.06 708.793 1397.95C709.006 1398.76 709.266 1399.03 709.48 1399.17C709.765 1399.37 710.47 1399.68 712.127 1399.68C715.453 1399.68 719.741 1398.43 723.151 1396.16C726.575 1393.88 728.553 1390.99 728.553 1387.89C728.553 1383.8 727.561 1380.52 725.967 1378.35C724.446 1376.28 722.279 1375.05 719.313 1375.05C713.467 1375.05 708.534 1380.1 708.534 1387.89Z" stroke="#CDC7BB" stroke-width="6.1597"/>
<path d="M701.745 1393.15C702.097 1393.94 702.445 1394.69 702.764 1395.37L702.772 1395.39C703.092 1396.07 703.376 1396.68 703.627 1397.25C704.152 1398.43 704.419 1399.21 704.508 1399.76C704.549 1400.01 704.539 1400.14 704.532 1400.19C704.527 1400.22 704.524 1400.22 704.521 1400.23C704.52 1400.23 704.52 1400.23 704.519 1400.23C704.499 1400.26 704.268 1400.6 703.215 1401.07C701.1 1402.01 697.969 1402.46 695.121 1401.99C692.249 1401.52 690.367 1400.28 689.603 1398.56C688.436 1395.94 688.182 1393.63 688.566 1391.91C688.925 1390.31 689.864 1389.04 691.656 1388.24C695.164 1386.68 699.576 1388.28 701.745 1393.15Z" stroke="#CDC7BB" stroke-width="6.1597"/>
<path d="M720.652 1457.47L734.652 1430.97L724.152 1425.97L706.152 1436.47L716.152 1422.47L706.152 1417.97L691.652 1444.47L701.652 1448.47L721.152 1436.97L711.152 1452.97L720.652 1457.47Z" fill="#882929" stroke="#CDC7BB" stroke-width="2"/>
<path d="M571.37 354.793L514.709 336.739L491.068 346.504" stroke="#393939" stroke-width="19.4545" stroke-linecap="round"/>
<path d="M616.961 354.793L673.622 336.739L697.263 346.504" stroke="#393939" stroke-width="19.4545" stroke-linecap="round"/>
<path d="M658.529 399.692V417.692" stroke="black" stroke-width="24" stroke-linecap="round"/>
<path d="M529.529 399.692V417.692" stroke="black" stroke-width="24" stroke-linecap="round"/>
</svg>
