<svg width="1200" height="1600" viewBox="0 0 1200 1600" fill="none" xmlns="http://www.w3.org/2000/svg">
<path d="M592.145 1109.92C655.928 1109.92 707.635 1085.43 707.635 1055.21C707.635 1025 655.928 1000.51 592.145 1000.51C528.361 1000.51 476.655 1025 476.655 1055.21C476.655 1085.43 528.361 1109.92 592.145 1109.92Z" fill="black"/>
<path d="M421.707 761.925C390 824 364 988 390 1005" stroke="#EBBAAA" stroke-width="74" stroke-linecap="round" stroke-linejoin="bevel"/>
<path d="M757.722 737.188C803.074 817.584 819.492 966.648 803 1012" stroke="#EBBAAA" stroke-width="74" stroke-linecap="round" stroke-linejoin="bevel"/>
<path d="M677.326 1264.92V1432.92" stroke="#DCE1E9" stroke-width="54" stroke-linecap="round" stroke-linejoin="bevel"/>
<path d="M541.271 1264.92L558 1418" stroke="#DCE1E9" stroke-width="54" stroke-linecap="round" stroke-linejoin="bevel"/>
<path d="M468 994H603L598 1353.79L590 1382L513.5 1378L501.886 1347.3L468 994Z" fill="black"/>
<mask id="mask0" mask-type="alpha" maskUnits="userSpaceOnUse" x="468" y="994" width="136" height="388">
<path d="M468 994H603L598 1353.79L590 1382L513.5 1378L501.886 1347.3L468 994Z" fill="black"/>
</mask>
<g mask="url(#mask0)">
<path d="M527 1313C511.8 1311.8 499 1304.5 494.5 1301L490 1317.5C497.167 1322.83 514.6 1333.5 527 1333.5H606V1313C586 1313.5 542.2 1314.2 527 1313Z" fill="white"/>
<path d="M527 1284C511.8 1282.8 499 1275.5 494.5 1272L490 1288.5C497.167 1293.83 514.6 1304.5 527 1304.5H606V1284C586 1284.5 542.2 1285.2 527 1284Z" fill="white"/>
<path d="M527 1342C511.8 1340.8 499 1333.5 494.5 1330L490 1346.5C497.167 1351.83 514.6 1362.5 527 1362.5H606V1342C586 1342.5 542.2 1343.2 527 1342Z" fill="white"/>
</g>
<path d="M601.715 1000.02H737.172L732 1346L721 1375L644.5 1388.5L635.739 1354L601.715 1000.02Z" fill="black"/>
<path d="M511.5 1370H593.5L581 1417L523 1413.5L511.5 1370Z" fill="black"/>
<path d="M640 1370L722.5 1371L710.5 1416L651 1417.5L640 1370Z" fill="black"/>
<rect x="386.663" y="712.534" width="109.872" height="16.687" transform="rotate(18 386.663 712.534)" fill="#F1EDED"/>
<rect x="812.742" y="749.021" width="109.872" height="16.687" transform="rotate(162 812.742 749.021)" fill="#F1EDED"/>
<path d="M470.553 666.116C471.388 631.7 498.939 603.912 533.345 602.788L613.669 600.16C620.214 599.954 626.77 600.294 633.253 601.191L711.66 612.034C746.251 616.816 770.864 648.088 767.381 682.834L752.548 830.722L759.99 1042.6C760.062 1044.41 673.814 1042.69 672 1042.6H533.345L454.536 1030.7C452.794 1030.61 451.464 1029.09 451.609 1027.35L467.008 812.303L470.553 666.116Z" fill="#41569F"/>
<rect x="543" y="540" width="116" height="119" rx="37.911" fill="#EBBAAA"/>
<path d="M402.592 657.632C412.579 623.914 449.249 605.932 482.023 618.68C509.197 629.25 524.868 657.796 519.197 686.396L475.656 905.996C467.591 946.674 426.308 971.619 386.546 959.841C349.241 948.791 327.958 909.592 339.008 872.287L402.592 657.632Z" fill="#403F47"/>
<path d="M336.201 997C329.801 978.6 334 890 342 860L450.201 879C438 917 436 967 427 1016L426.847 1016.01C405.701 1017.01 344.182 1019.94 336.201 997Z" fill="#403F47"/>
<path d="M363 858L435.5 880L356.5 872.5L363 858Z" fill="#333337"/>
<path d="M381 887L437 884L388.5 899.5L381 887Z" fill="#333337"/>
<path d="M785.753 654.886C773.698 619.874 732.507 604.792 700.694 623.74C679.328 636.466 668.371 661.332 673.398 685.687L722.43 923.264C731.441 966.921 776.751 992.733 818.9 978.221C857.504 964.928 878.023 922.857 864.731 884.253L785.753 654.886Z" fill="#413F47"/>
<path d="M700 636.238L749 617.5L782.305 643.937L791.5 683.5L730.396 706.985L700 636.238Z" fill="url(#paint0_linear)"/>
<path d="M758 776.238L812.5 751.5L840 820L788.396 846.985L758 776.238Z" fill="url(#paint1_linear)"/>
<path d="M370.673 747.175L428.837 761.289L408.269 832.179L351 821.619L370.673 747.175Z" fill="url(#paint2_linear)"/>
<path d="M417.673 680.175L537.209 710.507L514.821 780.916L398 754.619L417.673 680.175Z" fill="url(#paint3_linear)"/>
<path d="M353.104 911.726L534.034 895.022L534.959 969.005L359.67 988.446L353.104 911.726Z" fill="url(#paint4_linear)"/>
<rect x="728" y="879.238" width="107" height="77" transform="rotate(-23.2506 728 879.238)" fill="url(#paint5_linear)"/>
<rect x="681" y="725.238" width="107" height="77" transform="rotate(-23.2506 681 725.238)" fill="url(#paint6_linear)"/>
<path d="M612.5 862.5C611.706 795.344 602 736.152 602 704C598.771 704 587.15 690.601 574 684C558.65 676.294 541.579 675.116 538.886 673.5C539.156 647.657 540.983 621.155 530 597L476.591 613.473C463.269 631.805 439.831 686.579 436.07 791.497C432.308 896.415 439.988 999.438 436.07 1046.68C452.527 1051.44 563.427 1063.92 617.5 1047C617.5 979.311 613.676 961.918 612.5 862.5Z" fill="#46454B"/>
<rect x="452" y="664" width="107" height="77" fill="url(#paint7_linear)"/>
<rect x="510" y="973" width="107" height="77" fill="url(#paint8_linear)"/>
<rect x="457" y="741" width="150" height="77" fill="url(#paint9_linear)"/>
<rect x="448" y="895" width="150" height="77" fill="url(#paint10_linear)"/>
<rect x="435" y="818" width="217" height="77" fill="url(#paint11_linear)"/>
<path d="M533 1031C510.6 1032.6 459 1020 436 1012V1046C449 1056 482.722 1059.14 501 1062C533 1067 570 1058 610 1052L608 1021.5C594 1024.5 555.4 1029.4 533 1031Z" fill="#343537"/>
<path d="M864 999C870.4 980.6 872 916 864 886L750 881C762.201 919 764.201 969 773.201 1018L773.355 1018.01C794.5 1019.01 856.02 1021.94 864 999Z" fill="#403F47"/>
<path d="M805.104 922.92L860.02 917L864.682 990.664L811.67 999.639L805.104 922.92Z" fill="url(#paint12_linear)"/>
<path d="M830.5 847L758 869L837 861.5L830.5 847Z" fill="#333337"/>
<path d="M817 879L761 876L809.5 891.5L817 879Z" fill="#333337"/>
<path d="M608 866C608.747 801.017 601.5 736.112 601.5 705C604.146 705 615.072 693.624 625.5 686.5C636.565 678.941 647.229 675.413 651.303 674.065L651.5 674C655.084 647.4 664.764 617.882 674.882 595L716.947 603.664C730.474 606.45 742.37 614.501 745.996 627.828C754.477 658.998 760.7 718.588 763.438 797.125C766.978 898.648 772.313 1003.01 776 1048.72C747.241 1052.82 666.882 1062.37 616 1046C616 980.501 606.894 962.201 608 866Z" fill="#46454B"/>
<rect x="627" y="664" width="107" height="77" fill="url(#paint13_linear)"/>
<rect x="685" y="973" width="107" height="77" fill="url(#paint14_linear)"/>
<rect x="632" y="741" width="150" height="77" fill="url(#paint15_linear)"/>
<rect x="623" y="895" width="150" height="77" fill="url(#paint16_linear)"/>
<rect x="610" y="818" width="182" height="77" fill="url(#paint17_linear)"/>
<path d="M654.5 652.5L601 706.5C603.312 704.167 612.248 696.9 629.5 686.5C646.752 676.1 706.355 651.167 731.5 648C731.5 644.167 724 635.5 724 627.5C724 622.5 732.5 614.333 739.5 613C734.5 610 728.8 608.9 724 604.5C719.2 600.1 696.5 600.5 684.5 600L654.5 652.5Z" fill="#333337"/>
<path d="M471.501 604C472.301 600.4 476.167 596.833 478.001 595.5C498.167 613.5 530.401 646.6 498.001 635C457.501 620.5 456.001 608 460.001 606C464.001 604 470.501 608.5 471.501 604Z" fill="#41569F"/>
<path d="M551 629.5C550.2 621.1 545.834 600.667 544 592.5C534 590 520.167 582.167 515.5 578.5C505.667 580 477.6 584.1 476 602.5C474 625.5 521.5 649.5 534 660C546.5 670.5 557.5 660 575.5 665C589.9 669 603.834 663.333 609 660C602.334 658.5 586.9 654.3 578.5 649.5C570.1 644.7 561 647.5 557.5 649.5C555.667 646.333 551.8 637.9 551 629.5Z" fill="#4E65B4"/>
<path d="M657 623C650.5 614 659.5 593.999 659.5 593.999C669.5 591.5 678 586.5 689 580C697.167 579.333 721.3 580.3 720.5 591.5C719.5 605.5 693.5 610.5 680 620C666.5 629.5 683 639 638.5 661.5C602.9 679.5 562.834 675 549 667.5C554.667 670.166 569.7 673.9 584.5 667.5C599.3 661.1 615.5 657.833 620.5 658.5C622.834 656.5 634 652 644.5 640.5C655 629 663.5 632 657 623Z" fill="#4E65B4"/>
<path d="M474.5 618C468.1 618.8 462.5 616 460.5 614.5C460.5 618.833 465.1 631.8 483.5 649C501.9 666.2 548.834 678.833 570 683L601 704.5C596.667 699.5 584.4 687.7 570 680.5C555.6 673.3 512.334 633.5 492.5 614.5C489.167 615.333 480.9 617.2 474.5 618Z" fill="#333337"/>
<path d="M689 1029C711.4 1030.6 755 1028.5 774 1013L776 1048C756 1053 728.5 1057 721 1057C688.612 1057 654 1058.5 614 1052.5V1023C628 1026 666.6 1027.4 689 1029Z" fill="#343537"/>
<ellipse cx="458.589" cy="408.081" rx="58.0695" ry="55.0806" fill="#EBBAAA"/>
<ellipse cx="753.589" cy="408.081" rx="58.0695" ry="55.0806" fill="#EBBAAA"/>
<path d="M434.327 315.398C430.521 219.037 507.61 138.843 604.046 138.843C700.714 138.843 777.891 219.408 773.74 315.987L768.134 446.438C764.352 534.443 691.905 603.843 603.819 603.843C515.512 603.843 442.966 534.106 439.481 445.868L434.327 315.398Z" fill="#EED4CC"/>
<path d="M520.481 393.227L548.729 392.182" stroke="black" stroke-width="24" stroke-linecap="round"/>
<path d="M686.704 392.703L658.507 390.706" stroke="black" stroke-width="24" stroke-linecap="round"/>
<path d="M498 350.441L558.499 346.743" stroke="#393939" stroke-width="20" stroke-linecap="round"/>
<path d="M703.597 347.735L643 346.403" stroke="#393939" stroke-width="20" stroke-linecap="round"/>
<rect x="436.519" y="273" width="11" height="138" rx="5.5" fill="#393939"/>
<rect x="761.519" y="289" width="11" height="122" rx="5.5" fill="#393939"/>
<path d="M597.813 409.844C595.82 424.361 553.854 458.843 608.853 458.843" stroke="#EBBAAA" stroke-width="17"/>
<path d="M661 177C651 180.03 483.549 209.5 567.549 220.5C604.641 225.358 672.712 220.475 701 229.5C736.909 240.956 736.846 267.804 741.019 288.5C749.695 331.54 754.641 334.158 771.049 359.158C777.715 369.315 780.019 301.841 771.049 243.5C758.357 160.956 699.519 165.327 661 177Z" fill="#2C2929"/>
<path d="M496 236.5C466 257.37 485.305 290.473 468 305.234C446 324 452.019 354.41 446.519 366C437.614 384.767 425.519 337.58 425.519 305.234C425.519 200.235 491 131.5 583 131.5C595.163 131.5 610.376 106.026 642.5 110C685 110 753 188.5 723.5 242C703.742 224.059 662.22 224.889 619.5 224C568.166 222.931 515.103 223.211 496 236.5Z" fill="#393939"/>
<path d="M596 221C565.761 196.729 500.747 150.614 482.603 160.323C459.924 172.458 469.881 221 596 221Z" fill="#393939"/>
<path d="M467 175.5C491 175.499 529.167 199.667 553 217.5H459.5C432.5 217.5 443.23 175.501 467 175.5Z" fill="#393939"/>
<path d="M584.256 100.035C659.259 102.005 688.365 177.149 699 228C644.333 202.668 535 149.32 535 138.591C535 125.18 541.717 98.917 584.256 100.035Z" fill="#393939"/>
<path d="M535.5 128.5C580.3 125.7 616.833 189.333 629.5 221.5L489 185.5C485.833 167.667 490.7 131.3 535.5 128.5Z" fill="#393939"/>
<path d="M615.867 371.217C613.719 360.542 620.508 350.129 631.259 348.397C641.907 346.682 655.225 345 666.5 345C680.277 345 705.716 347.512 723.902 349.526C735.354 350.794 743.2 361.561 741.067 372.885L733.419 413.498C731.707 422.589 723.984 429.319 714.744 429.772L645.691 433.157C635.808 433.642 627.057 426.827 625.105 417.127L615.867 371.217Z" fill="white" fill-opacity="0.14"/>
<path d="M588.133 371.217C590.281 360.542 583.492 350.129 572.741 348.397C562.093 346.682 548.775 345 537.5 345C523.723 345 498.284 347.512 480.098 349.526C468.646 350.794 460.8 361.561 462.933 372.885L470.581 413.498C472.293 422.589 480.016 429.319 489.256 429.772L558.309 433.157C568.192 433.642 576.943 426.827 578.895 417.127L588.133 371.217Z" fill="white" fill-opacity="0.14"/>
<path d="M619.298 370.526C617.518 361.681 623.143 353.25 631.815 351.853C642.409 350.146 655.508 348.5 666.5 348.5C680.06 348.5 705.33 350.99 723.566 353.01C732.946 354.05 739.421 362.863 737.684 372.205L729.978 413.657C728.57 421.234 722.104 426.827 714.403 427.129L645.392 429.835C637.296 430.152 630.168 424.545 628.569 416.602L619.298 370.526Z" stroke="url(#paint18_linear)" stroke-width="7"/>
<path d="M584.702 370.526C586.482 361.681 580.857 353.25 572.185 351.853C561.591 350.146 548.492 348.5 537.5 348.5C523.94 348.5 498.67 350.99 480.434 353.01C471.054 354.05 464.579 362.863 466.316 372.205L474.022 413.657C475.43 421.234 481.896 426.827 489.597 427.129L558.608 429.835C566.704 430.152 573.832 424.545 575.431 416.602L584.702 370.526Z" stroke="url(#paint19_linear)" stroke-width="7"/>
<path d="M585 372C586.5 369.5 593.2 366.5 602 366.5C610.8 366.5 615.5 369.5 618.5 372" stroke="#33120C" stroke-width="7" stroke-linecap="round"/>
<path fill-rule="evenodd" clip-rule="evenodd" d="M550 486.731V505.068C550 533.235 572.833 556.068 601 556.068C629.167 556.068 652 533.235 652 505.068V486.731H550Z" fill="#393939"/>
<mask id="mask1" mask-type="alpha" maskUnits="userSpaceOnUse" x="550" y="478" width="102" height="79">
<path fill-rule="evenodd" clip-rule="evenodd" d="M550.674 478C550.231 480.705 550 483.482 550 486.313V505.069C550 533.235 572.833 556.069 601 556.069C629.167 556.069 652 533.235 652 505.069V486.313C652 483.482 651.769 480.705 651.326 478H550.674Z" fill="#434343"/>
</mask>
<g mask="url(#mask1)">
<ellipse cx="601" cy="555.679" rx="30.7557" ry="16.75" fill="#FF6C6C"/>
<rect x="550" y="486.731" width="102" height="21.0349" fill="white"/>
</g>
<path d="M609 1049.5L600 717H604L614.5 1023.5V1048L609 1049.5Z" fill="#58575E" stroke="#333337"/>
<path d="M604.5 703H600L596 708.5L600 718H605L608.5 708.5L604.5 703Z" fill="#D1D6DF"/>
<path d="M598.5 709H606" stroke="#333337"/>
<path d="M600 718H605L603.5 735H598L600 718Z" fill="#333337"/>
<rect x="643" y="690" width="53" height="10" fill="#333337"/>
<path d="M417 1464C417 1433.3 436.726 1429.55 468.876 1419.03C484.623 1413.88 500.694 1409.39 517 1406.69C527.247 1404.99 530 1414 548 1414C564.052 1414 584.078 1406.05 588.225 1404.33C588.745 1404.11 589.361 1403.92 589.775 1404.3C589.875 1404.39 589.96 1404.51 590.022 1404.63C591.939 1408.57 602 1430.05 602 1447.24C602 1460.39 603.126 1473.32 599.5 1480C597.864 1483.01 587.649 1484.66 584.218 1484.66H422.562C419.49 1484.66 417 1467.07 417 1464Z" fill="#DEDEDE"/>
<mask id="mask2" mask-type="alpha" maskUnits="userSpaceOnUse" x="417" y="1401" width="186" height="84">
<path d="M417 1464C417 1448.23 422.206 1439.57 431.628 1433.45C476.458 1404.35 534.587 1402.98 588 1401C588.436 1401 589.831 1404.24 590.022 1404.63C591.94 1408.57 602 1430.05 602 1447.24C602 1460.39 603.126 1473.32 599.5 1480C597.864 1483.01 587.649 1484.66 584.219 1484.66H422.563C419.491 1484.66 417 1467.07 417 1464Z" fill="#3B3734"/>
</mask>
<g mask="url(#mask2)">
<path d="M440.5 1443C425 1443 420.667 1434 419 1432.5C416 1436 418.5 1450.1 416.5 1456.5C414.5 1462.9 417.333 1469.17 419 1471.5L558.5 1478C559.333 1464.67 560.5 1438 558.5 1438C556 1438 540 1416.5 531.5 1416C524.7 1415.6 491.667 1424.17 476 1428.5C478 1430.5 481.3 1440.7 482.5 1445.5C484 1451.5 484.5 1451.5 479 1453C473.5 1454.5 472.5 1443 466.5 1443H440.5Z" fill="#E9EAEB"/>
<path d="M546.5 1438.5C548.9 1434.5 587.5 1428.83 603 1427L610 1470L532 1474.5C535.833 1464.17 544.1 1442.5 546.5 1438.5Z" fill="#E4E1D9"/>
<path d="M564.5 1410C576.5 1409.2 586.5 1402.67 590.5 1399C594.5 1403 604.4 1414 602 1418C599 1423 576 1427 566 1427C556 1427 549.5 1411 564.5 1410Z" fill="#272625"/>
<path d="M505.5 1469.5C480 1468.5 458 1474.5 430 1468.5C380 1463 405.688 1466.27 393 1490.59H589.084C608.5 1486 614.942 1457.71 600.5 1460C569 1465 525.011 1470.27 505.5 1469.5Z" fill="#CDC7BB"/>
<path d="M608 1468.5C601.2 1471.3 509 1471.5 506 1469.5C513 1468 564.519 1462.16 576 1461.5C593.5 1460.5 600.167 1459.17 608 1459.5C610.833 1461.5 614.8 1465.7 608 1468.5Z" fill="#272625"/>
</g>
<path d="M514.868 1406C518.912 1408.46 527 1412.15 527 1417.08L496.671 1410.1L508.297 1425.28L475 1415.81L488.294 1429" stroke="#CDC7BB" stroke-width="6.1597" stroke-linecap="round" stroke-linejoin="round"/>
<path d="M520.118 1393.91C520.118 1395.08 520.138 1396.19 520.157 1397.21L520.158 1397.25C520.177 1398.27 520.194 1399.19 520.192 1400.05C520.186 1401.84 520.091 1403.08 519.858 1403.97C519.646 1404.78 519.386 1405.05 519.172 1405.2C518.886 1405.4 518.182 1405.71 516.525 1405.71C513.199 1405.71 508.911 1404.46 505.501 1402.19C502.077 1399.91 500.099 1397.02 500.099 1393.91C500.099 1389.83 501.091 1386.55 502.685 1384.38C504.206 1382.3 506.373 1381.08 509.338 1381.08C515.185 1381.08 520.118 1386.12 520.118 1393.91Z" stroke="#CDC7BB" stroke-width="6.1597"/>
<path d="M526.906 1399.18C526.555 1399.97 526.206 1400.71 525.888 1401.39L525.879 1401.41C525.56 1402.1 525.276 1402.7 525.025 1403.27C524.5 1404.46 524.233 1405.24 524.143 1405.79C524.103 1406.04 524.113 1406.17 524.12 1406.22C524.124 1406.24 524.127 1406.25 524.131 1406.25C524.132 1406.26 524.132 1406.26 524.133 1406.26C524.153 1406.29 524.384 1406.63 525.437 1407.1C527.552 1408.04 530.683 1408.48 533.531 1408.01C536.403 1407.54 538.285 1406.3 539.048 1404.59C540.216 1401.96 540.47 1399.65 540.085 1397.94C539.727 1396.34 538.788 1395.06 536.996 1394.26C533.488 1392.7 529.076 1394.31 526.906 1399.18Z" stroke="#CDC7BB" stroke-width="6.1597"/>
<path d="M508 1463.5L494 1437L504.5 1432L522.5 1442.5L512.5 1428.5L522.5 1424L537 1450.5L527 1454.5L507.5 1443L517.5 1459L508 1463.5Z" fill="black" stroke="black"/>
<path d="M818.166 1464C818.166 1433.3 798.44 1429.55 766.289 1419.03C750.542 1413.88 734.472 1409.39 718.166 1406.69C707.919 1404.99 705.166 1414 687.166 1414C671.114 1414 651.088 1406.05 646.941 1404.33C646.421 1404.11 645.804 1403.92 645.39 1404.3C645.29 1404.39 645.206 1404.51 645.143 1404.63C643.226 1408.57 633.166 1430.05 633.166 1447.24C633.166 1460.39 632.04 1473.32 635.666 1480C637.302 1483.01 647.517 1484.66 650.947 1484.66H812.603C815.675 1484.66 818.166 1467.07 818.166 1464Z" fill="#DEDEDE"/>
<mask id="mask3" mask-type="alpha" maskUnits="userSpaceOnUse" x="633" y="1401" width="186" height="84">
<path d="M818.165 1464C818.165 1448.23 812.96 1439.57 803.538 1433.45C758.707 1404.35 700.579 1402.98 647.166 1401C646.729 1401 645.334 1404.24 645.143 1404.63C643.226 1408.57 633.165 1430.05 633.165 1447.24C633.165 1460.39 632.039 1473.32 635.665 1480C637.302 1483.01 647.517 1484.66 650.947 1484.66H812.603C815.675 1484.66 818.165 1467.07 818.165 1464Z" fill="#DEDEDE"/>
</mask>
<g mask="url(#mask3)">
<path d="M794.666 1443C810.166 1443 814.499 1434 816.166 1432.5C819.166 1436 816.666 1450.1 818.666 1456.5C820.666 1462.9 817.832 1469.17 816.166 1471.5L676.665 1478C675.832 1464.67 674.665 1438 676.665 1438C679.165 1438 695.166 1416.5 703.666 1416C710.466 1415.6 743.499 1424.17 759.166 1428.5C757.166 1430.5 753.866 1440.7 752.666 1445.5C751.166 1451.5 750.666 1451.5 756.166 1453C761.666 1454.5 762.666 1443 768.666 1443H794.666Z" fill="#E9EAEB"/>
<path d="M688.666 1438.5C686.266 1434.5 647.666 1428.83 632.166 1427L625.166 1470L703.166 1474.5C699.332 1464.17 691.066 1442.5 688.666 1438.5Z" fill="#E4E1D9"/>
<path d="M670.665 1410C658.665 1409.2 648.665 1402.67 644.665 1399C640.665 1403 630.765 1414 633.165 1418C636.165 1423 659.165 1427 669.165 1427C679.165 1427 685.665 1411 670.665 1410Z" fill="#272625"/>
<path d="M729.666 1469.5C755.166 1468.5 777.166 1474.5 805.166 1468.5C855.166 1463 829.477 1466.27 842.165 1490.59H646.082C626.666 1486 620.224 1457.71 634.666 1460C666.166 1465 710.155 1470.27 729.666 1469.5Z" fill="#CDC7BB"/>
<path d="M627.166 1468.5C633.966 1471.3 726.166 1471.5 729.166 1469.5C722.166 1468 670.647 1462.16 659.166 1461.5C641.666 1460.5 634.999 1459.17 627.166 1459.5C624.332 1461.5 620.366 1465.7 627.166 1468.5Z" fill="#272625"/>
</g>
<path d="M720.297 1406C716.253 1408.46 708.166 1412.15 708.166 1417.08L738.495 1410.1L726.869 1425.28L760.166 1415.81L746.871 1429" stroke="#CDC7BB" stroke-width="6.1597" stroke-linecap="round" stroke-linejoin="round"/>
<path d="M715.048 1393.91C715.048 1395.08 715.027 1396.19 715.008 1397.21L715.008 1397.25C714.989 1398.27 714.971 1399.19 714.974 1400.05C714.979 1401.84 715.074 1403.08 715.307 1403.97C715.519 1404.78 715.779 1405.05 715.994 1405.2C716.279 1405.4 716.984 1405.71 718.641 1405.71C721.967 1405.71 726.255 1404.46 729.664 1402.19C733.088 1399.91 735.067 1397.02 735.067 1393.91C735.067 1389.83 734.074 1386.55 732.481 1384.38C730.959 1382.3 728.792 1381.08 725.827 1381.08C719.981 1381.08 715.048 1386.12 715.048 1393.91Z" stroke="#CDC7BB" stroke-width="6.1597"/>
<path d="M708.259 1399.18C708.611 1399.97 708.959 1400.71 709.277 1401.39L709.286 1401.41C709.606 1402.1 709.89 1402.7 710.141 1403.27C710.666 1404.46 710.933 1405.24 711.022 1405.79C711.062 1406.04 711.052 1406.17 711.045 1406.22C711.041 1406.24 711.038 1406.25 711.034 1406.25C711.034 1406.26 711.033 1406.26 711.033 1406.26C711.013 1406.29 710.782 1406.63 709.729 1407.1C707.614 1408.04 704.483 1408.48 701.635 1408.01C698.763 1407.54 696.881 1406.3 696.117 1404.59C694.95 1401.96 694.696 1399.65 695.08 1397.94C695.438 1396.34 696.378 1395.06 698.17 1394.26C701.678 1392.7 706.089 1394.31 708.259 1399.18Z" stroke="#CDC7BB" stroke-width="6.1597"/>
<path d="M727.166 1463.5L741.166 1437L730.666 1432L712.666 1442.5L722.666 1428.5L712.666 1424L698.166 1450.5L708.166 1454.5L727.666 1443L717.666 1459L727.166 1463.5Z" fill="black" stroke="black"/>
<defs>
<linearGradient id="paint0_linear" x1="718.159" y1="678.502" x2="792.998" y2="646.348" gradientUnits="userSpaceOnUse">
<stop stop-color="#C4C4C4" stop-opacity="0"/>
<stop offset="0.458333" stop-color="#C4C4C4" stop-opacity="0.26"/>
<stop offset="1" stop-color="#C4C4C4" stop-opacity="0"/>
</linearGradient>
<linearGradient id="paint1_linear" x1="776.159" y1="818.502" x2="831.549" y2="794.704" gradientUnits="userSpaceOnUse">
<stop stop-color="#C4C4C4" stop-opacity="0"/>
<stop offset="0.458333" stop-color="#C4C4C4" stop-opacity="0.26"/>
<stop offset="1" stop-color="#C4C4C4" stop-opacity="0"/>
</linearGradient>
<linearGradient id="paint2_linear" x1="358.921" y1="791.648" x2="417.206" y2="807.05" gradientUnits="userSpaceOnUse">
<stop stop-color="#C4C4C4" stop-opacity="0"/>
<stop offset="0.458333" stop-color="#C4C4C4" stop-opacity="0.26"/>
<stop offset="1" stop-color="#C4C4C4" stop-opacity="0"/>
</linearGradient>
<linearGradient id="paint3_linear" x1="405.92" y1="724.648" x2="526.035" y2="756.39" gradientUnits="userSpaceOnUse">
<stop stop-color="#C4C4C4" stop-opacity="0"/>
<stop offset="0.458333" stop-color="#C4C4C4" stop-opacity="0.26"/>
<stop offset="1" stop-color="#C4C4C4" stop-opacity="0"/>
</linearGradient>
<linearGradient id="paint4_linear" x1="357.026" y1="957.559" x2="539.41" y2="941.95" gradientUnits="userSpaceOnUse">
<stop stop-color="#C4C4C4" stop-opacity="0"/>
<stop offset="0.458333" stop-color="#C4C4C4" stop-opacity="0.26"/>
<stop offset="1" stop-color="#C4C4C4" stop-opacity="0"/>
</linearGradient>
<linearGradient id="paint5_linear" x1="728" y1="925.238" x2="821.974" y2="925.238" gradientUnits="userSpaceOnUse">
<stop stop-color="#C4C4C4" stop-opacity="0"/>
<stop offset="0.458333" stop-color="#C4C4C4" stop-opacity="0.26"/>
<stop offset="1" stop-color="#C4C4C4" stop-opacity="0"/>
</linearGradient>
<linearGradient id="paint6_linear" x1="681" y1="771.238" x2="774.974" y2="771.238" gradientUnits="userSpaceOnUse">
<stop stop-color="#C4C4C4" stop-opacity="0"/>
<stop offset="0.458333" stop-color="#C4C4C4" stop-opacity="0.26"/>
<stop offset="1" stop-color="#C4C4C4" stop-opacity="0"/>
</linearGradient>
<linearGradient id="paint7_linear" x1="452" y1="710" x2="545.974" y2="710" gradientUnits="userSpaceOnUse">
<stop stop-color="#C4C4C4" stop-opacity="0"/>
<stop offset="0.458333" stop-color="#C4C4C4" stop-opacity="0.26"/>
<stop offset="1" stop-color="#C4C4C4" stop-opacity="0"/>
</linearGradient>
<linearGradient id="paint8_linear" x1="510" y1="1019" x2="603.974" y2="1019" gradientUnits="userSpaceOnUse">
<stop stop-color="#C4C4C4" stop-opacity="0"/>
<stop offset="0.458333" stop-color="#C4C4C4" stop-opacity="0.26"/>
<stop offset="1" stop-color="#C4C4C4" stop-opacity="0"/>
</linearGradient>
<linearGradient id="paint9_linear" x1="457" y1="787" x2="588.739" y2="787" gradientUnits="userSpaceOnUse">
<stop stop-color="#C4C4C4" stop-opacity="0"/>
<stop offset="0.458333" stop-color="#C4C4C4" stop-opacity="0.36"/>
<stop offset="0.826677" stop-color="#C4C4C4" stop-opacity="0"/>
<stop offset="1" stop-color="#C4C4C4" stop-opacity="0"/>
</linearGradient>
<linearGradient id="paint10_linear" x1="448" y1="941" x2="579.739" y2="941" gradientUnits="userSpaceOnUse">
<stop stop-color="#C4C4C4" stop-opacity="0"/>
<stop offset="0.458333" stop-color="#C4C4C4" stop-opacity="0.36"/>
<stop offset="0.826677" stop-color="#C4C4C4" stop-opacity="0"/>
<stop offset="1" stop-color="#C4C4C4" stop-opacity="0"/>
</linearGradient>
<linearGradient id="paint11_linear" x1="435" y1="864" x2="625.583" y2="864" gradientUnits="userSpaceOnUse">
<stop stop-color="#C4C4C4" stop-opacity="0"/>
<stop offset="0.203125" stop-color="#C4C4C4" stop-opacity="0.14"/>
<stop offset="0.40625" stop-color="#C4C4C4" stop-opacity="0"/>
<stop offset="0.6875" stop-color="#C4C4C4" stop-opacity="0.22"/>
<stop offset="0.963542" stop-color="#C4C4C4" stop-opacity="0"/>
</linearGradient>
<linearGradient id="paint12_linear" x1="809.026" y1="968.752" x2="864.457" y2="964.008" gradientUnits="userSpaceOnUse">
<stop stop-color="#C4C4C4" stop-opacity="0"/>
<stop offset="0.458333" stop-color="#C4C4C4" stop-opacity="0.26"/>
<stop offset="1" stop-color="#C4C4C4" stop-opacity="0"/>
</linearGradient>
<linearGradient id="paint13_linear" x1="627" y1="710" x2="720.974" y2="710" gradientUnits="userSpaceOnUse">
<stop stop-color="#C4C4C4" stop-opacity="0"/>
<stop offset="0.458333" stop-color="#C4C4C4" stop-opacity="0.26"/>
<stop offset="1" stop-color="#C4C4C4" stop-opacity="0"/>
</linearGradient>
<linearGradient id="paint14_linear" x1="685" y1="1019" x2="778.974" y2="1019" gradientUnits="userSpaceOnUse">
<stop stop-color="#C4C4C4" stop-opacity="0"/>
<stop offset="0.458333" stop-color="#C4C4C4" stop-opacity="0.26"/>
<stop offset="1" stop-color="#C4C4C4" stop-opacity="0"/>
</linearGradient>
<linearGradient id="paint15_linear" x1="632" y1="787" x2="763.739" y2="787" gradientUnits="userSpaceOnUse">
<stop stop-color="#C4C4C4" stop-opacity="0"/>
<stop offset="0.458333" stop-color="#C4C4C4" stop-opacity="0.36"/>
<stop offset="0.826677" stop-color="#C4C4C4" stop-opacity="0"/>
<stop offset="1" stop-color="#C4C4C4" stop-opacity="0"/>
</linearGradient>
<linearGradient id="paint16_linear" x1="623" y1="941" x2="754.739" y2="941" gradientUnits="userSpaceOnUse">
<stop stop-color="#C4C4C4" stop-opacity="0"/>
<stop offset="0.458333" stop-color="#C4C4C4" stop-opacity="0.36"/>
<stop offset="0.826677" stop-color="#C4C4C4" stop-opacity="0"/>
<stop offset="1" stop-color="#C4C4C4" stop-opacity="0"/>
</linearGradient>
<linearGradient id="paint17_linear" x1="610" y1="864" x2="769.844" y2="864" gradientUnits="userSpaceOnUse">
<stop stop-color="#C4C4C4" stop-opacity="0"/>
<stop offset="0.203125" stop-color="#C4C4C4" stop-opacity="0.14"/>
<stop offset="0.40625" stop-color="#C4C4C4" stop-opacity="0"/>
<stop offset="0.6875" stop-color="#C4C4C4" stop-opacity="0.22"/>
<stop offset="0.963542" stop-color="#C4C4C4" stop-opacity="0"/>
</linearGradient>
<linearGradient id="paint18_linear" x1="678.5" y1="345" x2="686.5" y2="442.5" gradientUnits="userSpaceOnUse">
<stop stop-color="#180000"/>
<stop offset="1" stop-color="#A65A3B"/>
</linearGradient>
<linearGradient id="paint19_linear" x1="525.5" y1="345" x2="517.5" y2="442.5" gradientUnits="userSpaceOnUse">
<stop stop-color="#180000"/>
<stop offset="1" stop-color="#A65A3B"/>
</linearGradient>
</defs>
</svg>
