<svg width="1200" height="1600" viewBox="0 0 1200 1600" fill="none" xmlns="http://www.w3.org/2000/svg">
<path d="M498.921 656L466.421 483.5L757.921 448.5L733.921 656H498.921Z" fill="#1A1416"/>
<path d="M681.117 995.602C693.256 1054.31 694.421 1302.25 694.421 1388.25" stroke="#F6DDD6" stroke-width="64" stroke-linecap="round" stroke-linejoin="bevel"/>
<path d="M563.421 980C551.282 1038.7 540.421 1278.25 555.951 1375.25" stroke="#F6DDD6" stroke-width="64" stroke-linecap="round" stroke-linejoin="bevel"/>
<path d="M482.603 689.382V624L475.94 592L601.864 564L724.94 592C786.114 684.899 725.017 676.396 747.097 769.296C769.176 862.195 743.402 885.008 741.439 892C739.477 898.992 709.439 892 709.439 892L676.6 870.5C676.6 870.5 646.513 876.993 601.864 875.495C557.214 873.996 530.229 866.005 530.229 866.005C530.229 866.005 508.098 875.695 502.261 882.5C496.425 889.305 477.103 886.495 466.44 875.495C455.776 864.495 456.08 869.293 458.128 833.226C461.097 780.969 472.172 730.754 482.603 689.382Z" fill="#F9F7F3"/>
<path d="M486 873.181L508 840.681C513.333 841.515 526.5 842.681 536.5 840.681C549 838.181 570.5 843.181 593 845.681C615.5 848.181 629.5 843.181 635 843.181C640.5 843.181 644 840.681 656 843.181C665.6 845.181 699.667 842.348 715.5 840.681L729 880.681L486 873.181Z" fill="#CF3303"/>
<path d="M452.064 912.551L484.098 857.182C484.098 857.182 552.67 869.881 603.724 870.897C654.778 871.913 729.857 865.817 729.857 865.817L759.388 912.551C759.388 912.551 779.409 1006.02 786.416 1079.67C793.424 1153.33 774.905 1271.18 774.905 1271.18L714.341 1255.94H689.815L675.8 1271.18H603.724H585H564.183L431.043 1255.94C431.043 1255.94 417.528 1148.25 425.537 1079.67C433.545 1011.1 452.064 912.551 452.064 912.551Z" fill="url(#paint0_linear)"/>
<path d="M554 966.958L566 868.5L584 870L602 942.458L587.231 1263L554 966.958Z" fill="url(#paint1_linear)"/>
<path d="M628 953.5L630 871L648.5 870.5L659 920.5L636.5 1158L628 953.5Z" fill="url(#paint2_linear)"/>
<path d="M462 954.62L513.429 861L527 928.794V954.62L493.429 1240L462 1055.99V954.62Z" fill="url(#paint3_linear)"/>
<path d="M678 953.636L722.736 869L734.541 930.288L761.879 1045.28C761.879 1045.28 766.228 1155.01 722.736 1157.93C679.243 1160.85 690.427 1072.13 690.427 1072.13L678 953.636Z" fill="url(#paint4_linear)"/>
<path d="M478 1048.6C478 935.152 559.418 917 599.368 917C711.127 917 721.271 980.838 740.963 1037C762.708 1099.02 759.168 1177.49 626.17 1183.73C507.836 1189.27 478 1109.1 478 1048.6Z" fill="#F0D180" stroke="#3F3E4C"/>
<path d="M491 1048.8C491 947.248 563.471 931 599.031 931C698.509 931 707.538 988.144 725.066 1038.42C744.422 1093.93 741.271 1164.18 622.888 1169.76C517.558 1174.72 491 1102.96 491 1048.8Z" fill="#ADACBB" stroke="#3F3E4C"/>
<path d="M483 1048.66C483 938.608 561.436 921 599.922 921C707.588 921 717.36 982.926 736.331 1037.41C757.279 1097.57 753.869 1173.69 625.743 1179.74C511.743 1185.12 483 1107.35 483 1048.66Z" stroke="#3F3E4C"/>
<path d="M486 1048.71C486 942.064 562.05 925 599.366 925C703.756 925 713.231 985.013 731.625 1037.81C751.936 1096.11 748.63 1169.88 624.401 1175.74C513.869 1180.96 486 1105.59 486 1048.71Z" stroke="#3F3E4C"/>
<path d="M500 1048.93C500 955.024 567.103 940 600.029 940C692.138 940 700.498 992.84 716.728 1039.33C734.65 1090.66 731.732 1155.61 622.118 1160.77C524.59 1165.36 500 1099.01 500 1048.93Z" stroke="#3F3E4C"/>
<path d="M508 1049.04C508 961.937 570.331 948 600.916 948C686.475 948 694.24 997.014 709.316 1040.14C725.964 1087.75 723.254 1148 621.434 1152.79C530.842 1157.05 508 1095.5 508 1049.04Z" stroke="#3F3E4C"/>
<path d="M515 1049.14C515 967.985 573.156 955 601.692 955C681.519 955 688.765 1000.67 702.831 1040.84C718.363 1085.21 715.835 1141.35 620.836 1145.8C536.312 1149.77 515 1092.42 515 1049.14Z" stroke="#3F3E4C"/>
<path d="M526 1050.28C526 977.625 578.191 966 603.8 966C675.44 966 681.943 1006.89 694.566 1042.86C708.505 1082.57 706.236 1132.83 620.981 1136.83C545.126 1140.38 526 1089.03 526 1050.28Z" stroke="#3F3E4C"/>
<path d="M534 1052.41C534 987.402 580.823 977 603.798 977C668.069 977 673.903 1013.58 685.228 1045.77C697.733 1081.3 695.698 1126.27 619.211 1129.84C551.159 1133.02 534 1087.08 534 1052.41Z" stroke="#F9E8BE"/>
<path d="M539 1057.47C539 995.858 583.437 986 605.241 986C666.238 986 671.774 1020.67 682.522 1051.17C694.39 1084.85 692.458 1127.47 619.869 1130.85C555.284 1133.86 539 1090.33 539 1057.47Z" stroke="black" stroke-width="3"/>
<path d="M613.5 1131.5H565.5" stroke="black" stroke-width="2"/>
<path d="M657 1138.5L616.5 1131.5L653.5 1143L657 1138.5Z" stroke="black" stroke-width="2"/>
<path d="M614 1131L592 1172" stroke="black" stroke-width="2"/>
<path d="M615.5 1131.5L620 1164" stroke="black" stroke-width="2"/>
<path d="M549 1062.55C549 1006.04 587.472 997 606.35 997C659.159 997 663.952 1028.8 673.257 1056.78C683.533 1087.67 681.86 1126.76 619.014 1129.86C563.098 1132.63 549 1092.69 549 1062.55Z" fill="#C4C4C4" stroke="#F9E8BE"/>
<path d="M560 1063.65C560 1013.09 592.508 1005 608.458 1005C653.08 1005 657.13 1033.45 664.993 1058.48C673.675 1086.12 672.261 1121.1 619.159 1123.88C571.913 1126.35 560 1090.62 560 1063.65Z" fill="#C4C4C4" stroke="#3F3E4D"/>
<path d="M566 1063.75C566 1019.14 594.929 1012 609.123 1012C648.833 1012 652.437 1037.1 659.434 1059.19C667.16 1083.58 665.902 1114.44 618.646 1116.89C576.601 1119.07 566 1087.55 566 1063.75Z" fill="#C4C4C4" stroke="#3F3E4D"/>
<path d="M574 1066.84C574 1027.32 599.648 1021 612.233 1021C647.439 1021 650.635 1043.24 656.838 1062.8C663.688 1084.4 662.573 1111.73 620.676 1113.9C583.399 1115.84 574 1087.91 574 1066.84Z" fill="#C4C4C4" stroke="#3F3E4D"/>
<path d="M579 1070.91C579 1035.64 601.964 1030 613.232 1030C644.754 1030 647.615 1049.84 653.169 1067.3C659.302 1086.58 658.304 1110.98 620.792 1112.92C587.415 1114.64 579 1089.72 579 1070.91Z" fill="#C4C4C4" stroke="#3F3E4D"/>
<path d="M584 1074.97C584 1043.1 604.876 1038 615.12 1038C643.776 1038 646.377 1055.93 651.426 1071.71C657.002 1089.13 656.094 1111.17 621.992 1112.92C591.65 1114.48 584 1091.96 584 1074.97Z" fill="#C4C4C4" stroke="#3F3E4D"/>
<path d="M591 1075.08C591 1050.01 607.701 1046 615.896 1046C638.821 1046 640.902 1060.11 644.941 1072.52C649.402 1086.22 648.676 1103.56 621.394 1104.94C597.12 1106.17 591 1088.45 591 1075.08Z" fill="#C4C4C4" stroke="#3F3E4D"/>
<path d="M597 1076.18C597 1057.06 610.122 1054 616.561 1054C634.574 1054 636.208 1064.76 639.382 1074.23C642.887 1084.68 642.317 1097.9 620.881 1098.95C601.809 1099.89 597 1086.38 597 1076.18Z" fill="#C4C4C4" stroke="#3F3E4D"/>
<path d="M606 1076.73C606 1060.58 614.649 1058 618.893 1058C630.764 1058 631.842 1067.09 633.934 1075.08C636.244 1083.91 635.868 1095.07 621.74 1095.96C609.169 1096.75 606 1085.34 606 1076.73Z" fill="#C4C4C4" stroke="#3F3E4D"/>
<path d="M614 1078.28C614 1065.11 618.772 1063 621.113 1063C627.663 1063 628.258 1070.41 629.412 1076.93C630.686 1084.13 630.479 1093.24 622.684 1093.97C615.749 1094.61 614 1085.3 614 1078.28Z" fill="#C4C4C4" stroke="#3F3E4D"/>
<path d="M457.921 624C448.421 745.5 421.501 791.5 541.5 914" stroke="#F6DDD6" stroke-width="70" stroke-linecap="round" stroke-linejoin="bevel"/>
<path d="M762.421 658C790.513 757.844 762.421 853 654.921 920" stroke="#F6DDD6" stroke-width="70" stroke-linecap="round" stroke-linejoin="bevel"/>
<path d="M664.5 870.5C662 867.999 673.802 852.813 703.302 883.813C732.553 914.552 718.5 925 714 920.5" stroke="black" stroke-width="2"/>
<path d="M509 809.5L413.5 817.5C413.5 817.5 405.149 782.519 405.149 743.019C405.149 703.519 402.649 642.52 418.149 619.02C433.649 595.52 495.649 597.019 495.649 597.019L495.649 733.5C495.649 749 509 809.5 509 809.5Z" fill="#F9F7F3" fill-opacity="0.84"/>
<path d="M414.5 822L413 814L509 809.5L512 816L414.5 822Z" fill="white"/>
<path d="M801.921 823.775C801.921 823.775 816.42 778.275 814.92 734.275C813.42 690.275 809.421 638.275 792.421 615.775C775.421 593.275 734.421 597.275 734.421 597.275L717.421 601.275C717.421 601.275 721.5 691.5 721.5 703.5C721.5 715.5 715.5 803 715.5 803L801.921 823.775Z" fill="#F9F7F3" fill-opacity="0.84"/>
<path d="M713 807.5L716 801L802.5 822L800 829L713 807.5Z" fill="white"/>
<ellipse cx="604.42" cy="597.97" rx="55" ry="57.5" fill="white"/>
<rect x="565.204" y="525" width="78.2017" height="117.369" rx="39.1009" fill="#E6CBC3"/>
<ellipse cx="478.883" cy="401.403" rx="64.4617" ry="55.4031" fill="#EBBAAA"/>
<ellipse cx="728.883" cy="405.98" rx="64.4617" ry="55.4031" fill="#EBBAAA"/>
<path d="M428 610L436.5 605L444.5 612C444.5 612 450.667 606.667 453 605L460.5 612L472.5 605L481.5 614L489.5 607.5L495.5 614L506 607.5L511.5 616.5L521.5 610L528 616.5L536.5 610L542.5 619L550.5 612" stroke="white" stroke-opacity="0.5"/>
<path d="M556.5 631L548.5 638L542.5 629L534 635.5L527.5 629L517.5 635.5L512 626.5L501.5 633L495.5 626.5L487.5 633L478.5 624L466.5 631L459 624C456.667 625.667 450.5 631 450.5 631L442.5 624L434 629L426.5 624L420.5 631L414.5 626.5" stroke="white" stroke-opacity="0.5"/>
<path d="M408 650.5L414 655L420 648L427.5 653L436 648L444 655C444 655 450.167 649.667 452.5 648L460 655L472 648L481 657L489 650.5L495 657L504 648L511 657L519.5 650.5L527.5 659.5L535 650.5L543 659.5L550.5 650.5L557.5 659.5L568 653L574 659.5L582 653L589 662.5L596.5 655L606 665L618.5 657L625 665L635 655L643 665L650 655L655.5 665L666.5 655L676.5 665L682 655L691 665L700 657L707 665L714.5 657L723.5 668L727.5 659.5L736.5 668L744 659.5L752.5 668L758.5 659.5L766.5 668L773.5 659.5L779 668L785.5 659.5L792.5 668L801.5 659.5L809 668" stroke="white" stroke-opacity="0.5"/>
<path d="M405.5 675.5L412 684L419 675.5L430 684L435 675.5L442.5 684C442.5 684 451.167 677.167 453.5 675.5L461.5 684L470.5 675.5L478.5 684L487.5 675.5L494.5 684L503 675.5L511 684L518 675.5L527 684L532.5 675.5L541 684L549 675.5L558 684L565 675.5L573 684L580 675.5L590 684L599 675.5L605.5 684L615 675.5L623 684L633 675.5L641.5 684L650 675.5L657 684L664 675.5L675 684L682 675.5L691.5 684L698 675.5L706.5 684L713.5 675.5L723.5 684L727.5 675.5L736.5 684L744 675.5L752.5 684L758.5 675.5L766.5 684L773.5 675.5L779 684L785.5 675.5L792.5 684L801.5 675.5L809 684" stroke="white" stroke-opacity="0.5"/>
<path d="M405.5 694L412 702.5L419 694L430 702.5L435 694L442.5 702.5C442.5 702.5 451.167 695.667 453.5 694L461.5 702.5L470.5 694L478.5 702.5L487.5 694L494.5 702.5L503 694L511 702.5L518 694L527 702.5L532.5 694L541 702.5L549 694L558 702.5L565 694L573 702.5L580 694L590 702.5L599 694L605.5 702.5L615 694L623 702.5L633 694L641.5 702.5L650 694L657 702.5L664 694L675 702.5L682 694L691.5 702.5L698 694L706.5 702.5L713.5 694L723.5 702.5L727.5 694L736.5 702.5L744 694L752.5 702.5L758.5 694L766.5 702.5L773.5 694L779 702.5L785.5 694L792.5 702.5L801.5 694L809 702.5L812.5 696" stroke="white" stroke-opacity="0.5"/>
<path d="M405.5 712L412 720.5L419 712L430 720.5L435 712L442.5 720.5C442.5 720.5 451.167 713.667 453.5 712L461.5 720.5L470.5 712L478.5 720.5L487.5 712L494.5 720.5L503 712L511 720.5L518 712L527 720.5L532.5 712L541 720.5L549 712L558 720.5L565 712L573 720.5L580 712L590 720.5L599 712L605.5 720.5L615 712L623 720.5L633 712L641.5 720.5L650 712L657 720.5L664 712L675 720.5L682 712L691.5 720.5L698 712L706.5 720.5L713.5 712L723.5 720.5L727.5 712L736.5 720.5L744 712L752.5 720.5L758.5 712L766.5 720.5L773.5 712L779 720.5L785.5 712L792.5 720.5L801.5 712L809 720.5L814 712" stroke="white" stroke-opacity="0.5"/>
<path d="M405.5 730L412 738.5L419 730L430 738.5L435 730L442.5 738.5C442.5 738.5 451.167 731.667 453.5 730L461.5 738.5L470.5 730L478.5 738.5L487.5 730L494.5 738.5L503 730L511 738.5L518 730L527 738.5L532.5 730L541 738.5L549 730L558 738.5L565 730L573 738.5L580 730L590 738.5L599 730L605.5 738.5L615 730L623 738.5L633 730L641.5 738.5L650 730L657 738.5L664 730L675 738.5L682 730L691.5 738.5L698 730L706.5 738.5L713.5 730L723.5 738.5L727.5 730L736.5 738.5L744 730L752.5 738.5L758.5 730L766.5 738.5L773.5 730L779 738.5L785.5 730L792.5 738.5L801.5 730L809 738.5L814 730" stroke="white" stroke-opacity="0.5"/>
<path d="M405.5 748L412 756.5L419 748L430 756.5L435 748L442.5 756.5C442.5 756.5 451.167 749.667 453.5 748L461.5 756.5L470.5 748L478.5 756.5L487.5 748L494.5 756.5L503 748L511 756.5L518 748L527 756.5L532.5 748L541 756.5L549 748L558 756.5L565 748L573 756.5L580 748L590 756.5L599 748L605.5 756.5L615 748L623 756.5L633 748L641.5 756.5L650 748L657 756.5L664 748L675 756.5L682 748L691.5 756.5L698 748L706.5 756.5L713.5 748L723.5 756.5L727.5 748L736.5 756.5L744 748L752.5 756.5L758.5 748L766.5 756.5L773.5 748L779 756.5L785.5 748L792.5 756.5L801.5 748L809 756.5L814 748" stroke="white" stroke-opacity="0.5"/>
<path d="M405.5 766L412 774.5L419 766L430 774.5L435 766L442.5 774.5C442.5 774.5 451.167 767.667 453.5 766L461.5 774.5L470.5 766L478.5 774.5L487.5 766L494.5 774.5L503 766L511 774.5L518 766L527 774.5L532.5 766L541 774.5L549 766L558 774.5L565 766L573 774.5L580 766L590 774.5L599 766L605.5 774.5L615 766L623 774.5L633 766L641.5 774.5L650 766L657 774.5L664 766L675 774.5L682 766L691.5 774.5L698 766L706.5 774.5L713.5 766L723.5 774.5L727.5 766L736.5 774.5L744 766L752.5 774.5L758.5 766L766.5 774.5L773.5 766L779 774.5L785.5 766L792.5 774.5L801.5 766L809 774.5L814 766" stroke="white" stroke-opacity="0.5"/>
<path d="M410 792.5L419 784L430 792.5L435 784L442.5 792.5C442.5 792.5 451.167 785.667 453.5 784L461.5 792.5L470.5 784L478.5 792.5L487.5 784L494.5 792.5L503 784L511 792.5L518 784L527 792.5L532.5 784L541 792.5L549 784L558 792.5L565 784L573 792.5L580 784L590 792.5L599 784L605.5 792.5L615 784L623 792.5L633 784L641.5 792.5L650 784L657 792.5L664 784L675 792.5L682 784L691.5 792.5L698 784L706.5 792.5L713.5 784L723.5 792.5L727.5 784L736.5 792.5L744 784L752.5 792.5L758.5 784L766.5 792.5L773.5 784L779 792.5L785.5 784L792.5 792.5L801.5 784L809 792.5L814 784" stroke="white" stroke-opacity="0.5"/>
<path d="M411 802L417.5 810.5L424.5 802L435.5 810.5L440.5 802L448 810.5C448 810.5 456.667 803.667 459 802L467 810.5L476 802L483 808L493 802L501 808L508.5 802L516.5 810.5L523.5 802L532.5 810.5L538 802L546.5 810.5L554.5 802L563.5 810.5L570.5 802L578.5 810.5L585.5 802L595.5 810.5L604.5 802L611 810.5L620.5 802L628.5 810.5L638.5 802L647 810.5L655.5 802L662.5 810.5L669.5 802L680.5 810.5L687.5 802L697 810.5L703.5 802L712 810.5" stroke="white" stroke-opacity="0.5"/>
<path d="M516.5 829.5L523.5 821L532.5 829.5L538 821L546.5 829.5L554.5 821L563.5 829.5L570.5 821L578.5 829.5L585.5 821L595.5 829.5L604.5 821L611 829.5L620.5 821L628.5 829.5L638.5 821L647 829.5L655.5 821L662.5 829.5L669.5 821L680.5 829.5L687.5 821L697 829.5L706.5 821" stroke="white" stroke-opacity="0.5"/>
<path d="M725.623 793.75L732.551 803.574L742.375 796.646L747.825 806.214L756.17 799.03L765.561 809.28L773.907 802.096L781.82 812.09L789.673 804.822L796.601 814.645L804.947 807.462" stroke="white" stroke-opacity="0.5"/>
<path d="M643.096 640.425L649.265 644.691L654.991 637.465L662.678 642.173L670.979 636.849L679.243 643.536C679.243 643.536 685.2 637.969 687.467 636.214L695.231 642.92L706.953 635.464L716.292 644.111L724.036 637.308L730.282 643.572L740.524 636.672L746.366 645.454L756.109 638.574L762.854 644.819L771.098 637.997L777.44 646.759L785.164 639.457L794.5 650L801.5 638.574" stroke="white" stroke-opacity="0.5"/>
<path d="M655 624L663.5 619L671.5 626C671.5 626 677.667 620.667 680 619L687.5 626L699.5 619L708.5 628L716.5 621.5L722.5 628L733 621.5L738.5 630.5L748.5 624L755 630.5L763.5 624L769.5 633L777.5 626" stroke="white" stroke-opacity="0.5"/>
<path d="M472.5 591L481.5 600L489.5 593.5L495.5 600L506 593.5L511.5 602.5L521.5 596L528 602.5L536.5 596L542.5 605L550.5 598" stroke="white" stroke-opacity="0.5"/>
<path d="M659 599L668 608L676 601.5L682 608L692.5 601.5L698 610.5L708 604L714.5 610.5L723 604L729 613L737 606" stroke="white" stroke-opacity="0.5"/>
<path d="M509.5 584L512 588.5L522 582L528.5 588.5L537 582L543 591L551 584" stroke="white" stroke-opacity="0.5"/>
<path d="M659 586L661.5 590.5L671.5 584L678 590.5L686.5 584L692.5 593L700.5 586" stroke="white" stroke-opacity="0.5"/>
<path d="M430 312.582C430 236.045 507.007 174 602 174C696.993 174 774 236.045 774 312.582L749.631 450.418C735.76 539.826 654.678 589 602 589C549.322 589 462.248 529.395 452.076 450.418L430 312.582Z" fill="#F6DDD6"/>
<ellipse cx="495.5" cy="455" rx="51.5" ry="32" fill="#FFCACA"/>
<ellipse cx="708" cy="455" rx="54" ry="32" fill="#FFCACA"/>
<path d="M519 555.5C513.038 550.333 487.5 524.833 480.5 517C462.167 553 452.6 633 461 651C471.5 673.5 523.001 666.5 529.001 661.5C535.001 656.5 526.5 562 519 555.5Z" fill="#282023"/>
<path d="M624.921 286C634.121 276.4 651.255 248.5 656.921 237.5C484.921 169 450.421 318 447.421 337.5C444.421 357 450.373 449.651 443.921 447.5C439.421 446 437.921 444 430.421 438C430.421 438 419.921 632.5 421.421 647.5C422.921 662.5 484.5 692 492.5 662C498.616 639.066 483.475 534.87 473.345 449.652C466.265 390.084 461.633 339.788 468.421 333C481.621 319.8 550.255 316.5 580.421 313C601.377 310.569 615.66 295.664 624.862 286.062L624.921 286Z" fill="#2D2427"/>
<path d="M690.5 553.5C698.1 547.5 710.667 533.333 714.5 529C732.333 567.167 760.6 648.1 747 654.5C730 662.5 670 658.5 665 652.5C660 646.5 669.167 594 674 565C676 563.667 682.9 559.5 690.5 553.5Z" fill="#282023"/>
<path d="M700.421 329.5C680.421 316.3 642.754 262 626.421 236.5C720.921 212 760.421 282 768.421 329.5C776.421 377 760.421 453 767.421 450C773.021 447.6 778.754 440 781.421 438C783.088 506.333 801.549 641.597 781.421 651.5C755 664.5 680 665.5 692.5 630.5C705 595.5 741.921 373.5 737.921 362C733.921 350.5 725.421 346 700.421 329.5Z" fill="#2D2427"/>
<path d="M511.961 345.35C511.961 345.35 522.997 341.184 535.688 341.184C548.38 341.184 558.666 345.35 558.666 345.35" stroke="#46413D" stroke-width="12" stroke-linecap="round"/>
<path d="M642.188 345.35C642.188 345.35 653.223 341.184 665.915 341.184C678.607 341.184 688.892 345.35 688.892 345.35" stroke="#46413D" stroke-width="12" stroke-linecap="round"/>
<path d="M512.645 383.564L542.372 379.306" stroke="black" stroke-width="10" stroke-linecap="round"/>
<path d="M655.526 376.697L685.254 380.956" stroke="black" stroke-width="10" stroke-linecap="round"/>
<path d="M536.742 379.305L536.741 408.083" stroke="black" stroke-width="24" stroke-linecap="round"/>
<path d="M662.363 376.696L662.362 405.475" stroke="black" stroke-width="24" stroke-linecap="round"/>
<path fill-rule="evenodd" clip-rule="evenodd" d="M557.155 473.52C557.052 474.718 557 475.93 557 477.155V483.27C557 506.488 575.822 525.31 599.04 525.31C622.259 525.31 641.081 506.488 641.081 483.27V477.155C641.081 475.93 641.028 474.718 640.926 473.52H557.155Z" fill="#393939"/>
<mask id="mask0" mask-type="alpha" maskUnits="userSpaceOnUse" x="557" y="467" width="85" height="59">
<path fill-rule="evenodd" clip-rule="evenodd" d="M558.234 467C557.428 470.252 557 473.653 557 477.153V483.268C557 506.487 575.822 525.309 599.04 525.309C622.259 525.309 641.081 506.486 641.081 483.268V477.153C641.081 473.653 640.653 470.252 639.847 467H558.234Z" fill="#434343"/>
</mask>
<g mask="url(#mask0)">
<ellipse cx="599.04" cy="525.02" rx="25.3526" ry="12.511" fill="#FF6C6C"/>
<rect x="557" y="473.521" width="84.0808" height="15.7115" fill="white"/>
</g>
<path d="M598.498 408.424C596.261 423.204 582.196 450.155 606.17 450.155" stroke="#EBBAAA" stroke-width="17"/>
<path d="M434.42 253C451.42 171.5 543.921 153.5 605.421 148C680.92 148 755.421 186 776.421 253C793.221 306.6 771.088 397.667 753.921 436.5V362.5L627.421 253L466.421 313.5L449.42 436.5C438.754 402.5 420.82 318.2 434.42 253Z" fill="#2D2427"/>
<circle cx="657.5" cy="875.5" r="3.5" fill="#DFCDA9"/>
<circle cx="652.5" cy="875.5" r="3.5" fill="#DFCDA9"/>
<circle cx="662.5" cy="878.5" r="3.5" fill="#DFCDA9"/>
<circle cx="667.5" cy="882.5" r="3.5" fill="#DFCDA9"/>
<circle cx="672.5" cy="886.5" r="3.5" fill="#DFCDA9"/>
<circle cx="676.5" cy="890.5" r="3.5" fill="#DFCDA9"/>
<circle cx="681.5" cy="894.5" r="3.5" fill="#DFCDA9"/>
<circle cx="686.5" cy="898.5" r="3.5" fill="#DFCDA9"/>
<circle cx="690.5" cy="903.5" r="3.5" fill="#DFCDA9"/>
<circle cx="694.5" cy="908.5" r="3.5" fill="#DFCDA9"/>
<circle cx="698.5" cy="913.5" r="3.5" fill="#DFCDA9"/>
<circle cx="701.5" cy="919.5" r="3.5" fill="#DFCDA9"/>
<circle cx="704.5" cy="925.5" r="3.5" fill="#DFCDA9"/>
<circle cx="705.5" cy="931.5" r="3.5" fill="#DFCDA9"/>
<circle cx="703.5" cy="937.5" r="3.5" fill="#DFCDA9"/>
<circle cx="697.5" cy="937.5" r="3.5" fill="#DFCDA9"/>
<path d="M419 1431C419 1400.3 438.726 1396.55 470.876 1386.03C486.623 1380.88 502.694 1376.39 519 1373.69C529.247 1371.99 532 1381 550 1381C566.052 1381 586.078 1373.05 590.225 1371.33C590.745 1371.11 591.361 1370.92 591.775 1371.3C591.875 1371.39 591.96 1371.51 592.022 1371.63C593.939 1375.57 604 1397.05 604 1414.24C604 1427.39 605.126 1440.32 601.5 1447C599.864 1450.01 589.649 1451.66 586.218 1451.66H424.562C421.49 1451.66 419 1434.07 419 1431Z" fill="#DEDEDE"/>
<mask id="mask1" mask-type="alpha" maskUnits="userSpaceOnUse" x="419" y="1368" width="186" height="84">
<path d="M419 1431C419 1415.23 424.206 1406.57 433.628 1400.45C478.458 1371.35 536.586 1369.98 590 1368C590.436 1368 591.831 1371.24 592.022 1371.63C593.939 1375.57 604 1397.05 604 1414.24C604 1427.39 605.126 1440.32 601.5 1447C599.864 1450.01 589.649 1451.66 586.218 1451.66H424.562C421.49 1451.66 419 1434.07 419 1431Z" fill="#3B3734"/>
</mask>
<g mask="url(#mask1)">
<path d="M442.5 1410C427 1410 422.667 1401 421 1399.5C418 1403 420.5 1417.1 418.5 1423.5C416.5 1429.9 419.333 1436.17 421 1438.5H613C613.833 1425.17 607.048 1379.54 600.5 1381C582.5 1385 542 1383.5 533.5 1383C526.7 1382.6 493.667 1391.17 478 1395.5C480 1397.5 483.3 1407.7 484.5 1412.5C486 1418.5 486.5 1418.5 481 1420C475.5 1421.5 474.5 1410 468.5 1410H442.5Z" fill="#E9EAEB"/>
<path d="M566.5 1377C578.5 1376.2 588.5 1369.67 592.5 1366C596.5 1370 606.4 1381 604 1385C601 1390 578 1394 568 1394C558 1394 551.5 1378 566.5 1377Z" fill="#CDC7BB"/>
<path d="M507.5 1436.5C482 1435.5 460 1441.5 432 1435.5C382 1430 407.688 1433.27 395 1457.59H591.084C610.5 1453 616.942 1424.71 602.5 1427C571 1432 527.01 1437.27 507.5 1436.5Z" fill="#CDC7BB"/>
<path d="M610 1435.5C603.2 1438.3 511 1438.5 508 1436.5C515 1435 566.519 1429.16 578 1428.5C595.5 1427.5 602.167 1426.17 610 1426.5C612.833 1428.5 616.8 1432.7 610 1435.5Z" fill="#DEDEDE"/>
</g>
<path d="M516.868 1373C520.912 1375.46 529 1379.15 529 1384.08L498.671 1377.1L510.297 1392.28L477 1382.81L490.294 1396" stroke="#CDC7BB" stroke-width="6.1597" stroke-linecap="round" stroke-linejoin="round"/>
<path d="M522.118 1360.91C522.118 1362.08 522.138 1363.19 522.157 1364.21L522.158 1364.25C522.177 1365.27 522.194 1366.19 522.192 1367.05C522.186 1368.84 522.091 1370.08 521.858 1370.97C521.646 1371.78 521.386 1372.05 521.172 1372.2C520.886 1372.4 520.182 1372.71 518.525 1372.71C515.199 1372.71 510.911 1371.46 507.501 1369.19C504.077 1366.91 502.099 1364.02 502.099 1360.91C502.099 1356.83 503.091 1353.55 504.685 1351.38C506.206 1349.3 508.373 1348.08 511.338 1348.08C517.185 1348.08 522.118 1353.12 522.118 1360.91Z" stroke="#CDC7BB" stroke-width="6.1597"/>
<path d="M528.906 1366.18C528.555 1366.97 528.206 1367.71 527.888 1368.39L527.879 1368.41C527.56 1369.1 527.276 1369.7 527.025 1370.27C526.5 1371.46 526.233 1372.24 526.143 1372.79C526.103 1373.04 526.113 1373.17 526.12 1373.22C526.124 1373.24 526.127 1373.25 526.131 1373.25C526.132 1373.26 526.132 1373.26 526.133 1373.26C526.153 1373.29 526.384 1373.63 527.437 1374.1C529.552 1375.04 532.683 1375.48 535.531 1375.01C538.403 1374.54 540.285 1373.3 541.048 1371.59C542.216 1368.96 542.47 1366.65 542.085 1364.94C541.727 1363.34 540.788 1362.06 538.996 1361.26C535.488 1359.7 531.076 1361.31 528.906 1366.18Z" stroke="#CDC7BB" stroke-width="6.1597"/>
<path d="M834.165 1431C834.165 1400.3 814.439 1396.55 782.289 1386.03C766.542 1380.88 750.471 1376.39 734.165 1373.69C723.918 1371.99 721.165 1381 703.165 1381C687.113 1381 667.087 1373.05 662.941 1371.33C662.42 1371.11 661.804 1370.92 661.39 1371.3C661.29 1371.39 661.205 1371.51 661.143 1371.63C659.226 1375.57 649.165 1397.05 649.165 1414.24C649.165 1427.39 648.039 1440.32 651.665 1447C653.301 1450.01 663.516 1451.66 666.947 1451.66H828.603C831.675 1451.66 834.165 1434.07 834.165 1431Z" fill="#DEDEDE"/>
<mask id="mask2" mask-type="alpha" maskUnits="userSpaceOnUse" x="648" y="1368" width="187" height="84">
<path d="M834.165 1431C834.165 1415.23 828.959 1406.57 819.537 1400.45C774.707 1371.35 716.579 1369.98 663.165 1368C662.729 1368 661.334 1371.24 661.143 1371.63C659.226 1375.57 649.165 1397.05 649.165 1414.24C649.165 1427.39 648.039 1440.32 651.665 1447C653.301 1450.01 663.516 1451.66 666.947 1451.66H828.603C831.675 1451.66 834.165 1434.07 834.165 1431Z" fill="#DEDEDE"/>
</mask>
<g mask="url(#mask2)">
<path d="M810.665 1410C826.165 1410 830.498 1401 832.165 1399.5C835.165 1403 832.665 1417.1 834.665 1423.5C836.665 1429.9 833.832 1436.17 832.165 1438.5H642C641.167 1425.17 651.103 1378.87 653 1379.5C674 1386.5 709.5 1383 718 1382.5C724.8 1382.1 759.498 1391.17 775.165 1395.5C773.165 1397.5 769.865 1407.7 768.665 1412.5C767.165 1418.5 766.665 1418.5 772.165 1420C777.665 1421.5 778.665 1410 784.665 1410H810.665Z" fill="#E9EAEB"/>
<path d="M686.665 1377C674.665 1376.2 664.665 1369.67 660.665 1366C656.665 1370 646.765 1381 649.165 1385C652.165 1390 675.165 1394 685.165 1394C695.165 1394 701.665 1378 686.665 1377Z" fill="#CDC7BB"/>
<path d="M745.665 1436.5C771.165 1435.5 793.165 1441.5 821.165 1435.5C871.165 1430 845.477 1433.27 858.165 1457.59H662.081C642.665 1453 636.223 1424.71 650.665 1427C682.165 1432 726.155 1437.27 745.665 1436.5Z" fill="#CDC7BB"/>
<path d="M643.165 1435.5C649.965 1438.3 742.165 1438.5 745.165 1436.5C738.165 1435 686.646 1429.16 675.165 1428.5C657.665 1427.5 650.998 1426.17 643.165 1426.5C640.332 1428.5 636.365 1432.7 643.165 1435.5Z" fill="#DEDEDE"/>
</g>
<path d="M736.297 1373C732.253 1375.46 724.165 1379.15 724.165 1384.08L754.494 1377.1L742.868 1392.28L776.165 1382.81L762.871 1396" stroke="#CDC7BB" stroke-width="6.1597" stroke-linecap="round" stroke-linejoin="round"/>
<path d="M731.047 1360.91C731.047 1362.08 731.027 1363.19 731.008 1364.21L731.007 1364.25C730.988 1365.27 730.971 1366.19 730.974 1367.05C730.979 1368.84 731.074 1370.08 731.307 1370.97C731.519 1371.78 731.779 1372.05 731.993 1372.2C732.279 1372.4 732.983 1372.71 734.64 1372.71C737.966 1372.71 742.254 1371.46 745.664 1369.19C749.088 1366.91 751.066 1364.02 751.066 1360.91C751.066 1356.83 750.074 1353.55 748.48 1351.38C746.959 1349.3 744.792 1348.08 741.827 1348.08C735.98 1348.08 731.047 1353.12 731.047 1360.91Z" stroke="#CDC7BB" stroke-width="6.1597"/>
<path d="M724.259 1366.18C724.61 1366.97 724.959 1367.71 725.277 1368.39L725.286 1368.41C725.605 1369.1 725.889 1369.7 726.14 1370.27C726.665 1371.46 726.932 1372.24 727.022 1372.79C727.062 1373.04 727.052 1373.17 727.045 1373.22C727.041 1373.24 727.038 1373.25 727.034 1373.25C727.033 1373.26 727.033 1373.26 727.032 1373.26C727.012 1373.29 726.782 1373.63 725.728 1374.1C723.613 1375.04 720.482 1375.48 717.634 1375.01C714.762 1374.54 712.88 1373.3 712.117 1371.59C710.949 1368.96 710.695 1366.65 711.08 1364.94C711.438 1363.34 712.378 1362.06 714.169 1361.26C717.677 1359.7 722.089 1361.31 724.259 1366.18Z" stroke="#CDC7BB" stroke-width="6.1597"/>
<defs>
<linearGradient id="paint0_linear" x1="605.5" y1="857.182" x2="605.5" y2="1271.18" gradientUnits="userSpaceOnUse">
<stop stop-color="#F23F05"/>
<stop offset="1" stop-color="#EF591E"/>
</linearGradient>
<linearGradient id="paint1_linear" x1="569.385" y1="871" x2="570.58" y2="1274.52" gradientUnits="userSpaceOnUse">
<stop stop-color="#E34208"/>
<stop offset="1" stop-color="#E34208" stop-opacity="0"/>
</linearGradient>
<linearGradient id="paint2_linear" x1="629.25" y1="870" x2="636.5" y2="1116" gradientUnits="userSpaceOnUse">
<stop stop-color="#E34208"/>
<stop offset="1" stop-color="#E34208" stop-opacity="0"/>
</linearGradient>
<linearGradient id="paint3_linear" x1="487.714" y1="861" x2="477.791" y2="1181.96" gradientUnits="userSpaceOnUse">
<stop stop-color="#E34208"/>
<stop offset="1" stop-color="#E34208" stop-opacity="0"/>
</linearGradient>
<linearGradient id="paint4_linear" x1="700.368" y1="869" x2="706.948" y2="1170.79" gradientUnits="userSpaceOnUse">
<stop stop-color="#E34208"/>
<stop offset="1" stop-color="#E34208" stop-opacity="0"/>
</linearGradient>
</defs>
</svg>
