<svg width="1200" height="1600" viewBox="0 0 1200 1600" fill="none" xmlns="http://www.w3.org/2000/svg">
<path d="M672 1236V1436" stroke="#EBBAAA" stroke-width="44" stroke-linecap="round" stroke-linejoin="bevel"/>
<path d="M528 1236V1436" stroke="#EBBAAA" stroke-width="44" stroke-linecap="round" stroke-linejoin="bevel"/>
<rect x="433" y="574" width="170" height="320" rx="85" transform="rotate(15 433 574)" fill="#503868"/>
<rect x="485" y="531" width="230" height="475" rx="112" fill="#503868"/>
<path d="M600 1097C663.512 1097 714.999 1073.49 714.999 1044.5C714.999 1015.5 663.512 992 600 992C536.487 992 485 1015.5 485 1044.5C485 1073.49 536.487 1097 600 1097Z" fill="#252424"/>
<path d="M599 974H729V1410H634.829L599 974Z" fill="#252424"/>
<path d="M601 974H471V1410H565.171L601 974Z" fill="#252424"/>
<path d="M452.17 641.587C450.927 616.596 468.35 594.533 492.948 589.949L600 570L707.052 589.949C731.65 594.533 749.073 616.596 747.83 641.587L740 799L749.542 1016.56C749.792 1022.25 745.247 1027 739.552 1027H460.448C454.753 1027 450.208 1022.25 450.458 1016.56L460 799L452.17 641.587Z" fill="#503868"/>
<rect width="90" height="290" rx="45" transform="matrix(-0.965926 0.258819 0.258819 0.965926 780 580)" fill="#503868"/>
<rect x="330" y="835" width="105" height="205" rx="52.5" transform="rotate(-45 330 835)" fill="#503868"/>
<rect width="105" height="205" rx="52.5" transform="matrix(0.707107 0.707107 0.707107 -0.707107 660 918)" fill="#503868"/>
<rect x="620" y="588" width="20" height="135" rx="10" fill="#F7F7F7"/>
<rect x="560" y="640" width="20" height="135" rx="10" fill="#F7F7F7"/>
<path d="M485 899C485 867.52 510.52 842 542 842H600H658C689.48 842 715 867.52 715 899V904.5V967H485V904.5V899Z" fill="#664C81"/>
<ellipse cx="722.5" cy="930" rx="37.5" ry="30" fill="#EBBAAA"/>
<path d="M600 678C638.659 678 670 646.659 670 608C670 569.34 638.659 538 600 538C561.34 538 530 569.34 530 608C530 646.659 561.34 678 600 678Z" fill="#503868"/>
<rect x="561" y="454" width="76" height="194" rx="37.911" fill="#EBBAAA"/>
<path opacity="0.5" d="M750 430C772.091 430 790 412.092 790 390C790 367.909 772.091 350 750 350C727.909 350 710 367.909 710 390C710 412.092 727.909 430 750 430Z" fill="#C99584"/>
<path opacity="0.5" d="M450 430C427.908 430 410 412.092 410 390C410 367.909 427.908 350 450 350C472.091 350 490 367.909 490 390C490 412.092 472.091 430 450 430Z" fill="#C99584"/>
<rect x="450" y="122" width="300" height="410" rx="150" fill="#F4D5CC"/>
<path d="M570 468C570 468 581 476.5 600 476.5C619 476.5 630 468 630 468" stroke="#C99584" stroke-width="15.3993" stroke-linecap="round"/>
<path d="M619 335C619 333.343 620.343 332 622 332H716C717.657 332 719 333.343 719 335V348C719 364.568 705.569 378 689 378H649C632.431 378 619 364.568 619 348V335Z" stroke="#393939" stroke-width="12"/>
<rect x="575" y="340" width="50" height="10" fill="#393939"/>
<path d="M479 335C479 333.343 480.343 332 482 332H576C577.657 332 579 333.343 579 335V347C579 363.568 565.569 377 549 377H509C492.431 377 479 363.568 479 347V335Z" stroke="#393939" stroke-width="12"/>
<path d="M754.991 256.486C755.224 250.216 750.683 245 745 245C739.104 245 734.488 250.595 735.046 257.07L744.461 366.773C744.619 368.607 746.012 370 747.674 370C749.411 370 750.831 368.494 750.906 366.589L754.991 256.486Z" fill="#6E6C6C"/>
<path d="M445.009 256.486C444.776 250.216 449.317 245 455 245C460.896 245 465.512 250.595 464.954 257.07L455.539 366.773C455.381 368.607 453.988 370 452.326 370C450.589 370 449.169 368.494 449.094 366.589L445.009 256.486Z" fill="#6E6C6C"/>
<path d="M595.325 208.179C671.473 208.179 732.36 207.971 735.5 263.625C748.345 281.724 756.39 279.71 759.39 246.772C768.995 141.285 663.157 81.5177 589.861 105.126C589.861 105.126 519.168 208.179 595.325 208.179Z" fill="#393939"/>
<path d="M604.675 208.179C528.527 208.179 467.64 207.971 464.5 263.625C451.655 281.724 443.61 279.71 440.61 246.772C431.005 141.285 536.843 81.5177 610.139 105.126C610.139 105.126 680.832 208.179 604.675 208.179Z" fill="#393939"/>
<path d="M715.132 246.22C717.755 211.55 722.855 195.72 717.949 182L473.549 175.986L451.5 261L462 288.5C467.324 254.91 473.549 240.51 496.633 223.076C532.295 196.142 565.367 221.01 582.961 240.51C582.961 216.67 593.181 217.21 602.187 212.34C600.875 234.88 647.448 244.045 669.54 244.045C648.832 234.88 645.469 218.197 655.291 210.067C685.502 212.34 692.622 215.88 715.132 246.22Z" fill="#393939"/>
<path d="M674 350H654" stroke="black" stroke-width="18" stroke-linecap="round"/>
<path d="M544 350H524" stroke="black" stroke-width="18" stroke-linecap="round"/>
<path d="M644 290L704 293.5" stroke="#393939" stroke-width="18" stroke-linecap="round"/>
<path d="M554 290L494 293.5" stroke="#393939" stroke-width="18" stroke-linecap="round"/>
<path d="M600 380C590 395 580 430 610 430" stroke="#EBBAAA" stroke-width="17"/>
<path d="M642.917 1453.59C642.917 1453.59 643.416 1420.52 645.909 1423.02C648.403 1425.53 659.866 1432.04 675.335 1432.04C690.796 1432.04 700.272 1426.53 703.763 1423.03C707.254 1419.52 710.5 1453.59 710.5 1453.59L642.917 1453.59Z" fill="#DCE1E9"/>
<path d="M811.489 1510.21C813.404 1505.88 813.226 1501.48 812.154 1499.86C811.082 1498.25 680.894 1488.02 680.894 1488.02C659.286 1486.41 615.167 1476.34 612.207 1488.02C602.116 1527.85 628.932 1527.85 646.076 1527.85C669.648 1527.85 672.446 1521.58 687.858 1523.54C695.894 1524.57 707.681 1530 761.791 1530C805.189 1530 807.203 1519.9 811.489 1510.21Z" fill="#DEDEDE"/>
<path d="M643.478 1426.14L643.415 1426.03C643.415 1426.03 640.423 1422.02 635.934 1425.03C631.446 1428.04 628.548 1434.92 626.136 1445.85C622.92 1460.41 620.205 1458.33 616.989 1471.86C614.763 1481.23 614.31 1495.28 619.669 1503.08C627.993 1515.2 638.429 1514.01 656.117 1514.01C666.301 1514.01 683.453 1511.4 698.997 1515.57C720.698 1521.38 780.467 1524.41 795.477 1519.73C821.053 1511.75 813.164 1488.51 802.445 1479.67C783.633 1464.14 740.363 1468.68 731.192 1456.6C723.689 1446.71 720.156 1429.89 717.5 1422.43C714.5 1414.01 705.423 1412.06 706.501 1422.43C707.5 1432.05 704.356 1446.37 677.02 1445.85C655.205 1445.43 652.003 1440.16 643.478 1426.14Z" fill="#3B3247"/>
<mask id="mask0" mask-type="alpha" maskUnits="userSpaceOnUse" x="615" y="1410" width="198" height="116">
<path d="M677.054 1447.16C655.196 1446.73 647.946 1432.63 647.053 1425.63H633.543C632.472 1427.25 631.25 1431.02 628.839 1442.32C625.624 1457.39 620.266 1460.08 617.052 1474.07C614.827 1483.76 614.374 1498.29 619.731 1506.37C628.051 1518.91 638.482 1517.67 656.161 1517.67C666.341 1517.67 683.484 1514.98 699.02 1519.28C720.712 1525.3 780.452 1528.43 795.454 1523.59C821.018 1515.34 814.157 1489.67 803.01 1480.15C784.207 1464.09 740.328 1468.14 731.161 1455.64C723.662 1445.42 718.084 1421.06 712.708 1415.06C703.065 1404.29 704.792 1412.51 706.521 1422.94C708.663 1435.86 704.377 1447.7 677.054 1447.16Z" fill="#252424"/>
</mask>
<g mask="url(#mask0)">
<path d="M789.119 1498.79C798.976 1498.79 815.5 1488.71 815.5 1485.66C816.214 1495.17 816.429 1514.63 810 1520.23C801.964 1527.23 727.509 1528.39 719.473 1525.16C711.437 1521.93 710 1517.22 724 1519.73C732.056 1521.17 756.439 1512.24 765.011 1505.78C773.582 1499.32 776.797 1498.79 789.119 1498.79Z" fill="#DEDEDE"/>
<path opacity="0.5" d="M675.915 1478.78C682.816 1480.66 688.378 1480.41 691.529 1478.01C699.647 1471.76 694.449 1462.23 692.245 1458.5C696.213 1463.07 700.156 1467.66 703.234 1472.66C708.087 1480.47 710.146 1489.05 706.872 1494.54C701.003 1504.46 686.896 1499.88 677.904 1495.89L594.462 1458.87L675.915 1478.78Z" fill="#7F8389"/>
</g>
<path d="M712.24 1460.26L734.858 1452.09L733.251 1473.62L757.895 1464.47L762.181 1483.84L782.003 1472" stroke="#2A2A2A" stroke-width="6.44516" stroke-linecap="round" stroke-linejoin="round"/>
<path d="M557.083 1453.59C557.083 1453.59 556.584 1420.52 554.091 1423.02C551.597 1425.53 540.134 1432.04 524.665 1432.04C509.204 1432.04 499.728 1426.53 496.237 1423.03C492.746 1419.52 488.756 1455.09 488.756 1455.09L557.083 1453.59Z" fill="#DCE1E9"/>
<path d="M388.511 1510.21C386.596 1505.88 386.774 1501.48 387.846 1499.86C388.918 1498.25 519.106 1488.02 519.106 1488.02C540.714 1486.41 584.833 1476.34 587.793 1488.02C597.884 1527.85 571.068 1527.85 553.924 1527.85C530.352 1527.85 527.554 1521.58 512.142 1523.54C504.106 1524.57 492.319 1530 438.209 1530C394.811 1530 392.797 1519.9 388.511 1510.21Z" fill="#DEDEDE"/>
<path d="M556.522 1426.14L556.585 1426.03C556.585 1426.03 559.577 1422.02 564.066 1425.03C568.554 1428.04 571.452 1434.92 573.864 1445.85C577.08 1460.41 579.795 1458.33 583.011 1471.86C585.237 1481.23 585.69 1495.28 580.331 1503.08C572.007 1515.2 561.571 1514.01 543.883 1514.01C533.699 1514.01 516.547 1511.4 501.003 1515.57C479.302 1521.38 419.533 1524.41 404.523 1519.73C378.947 1511.75 386.836 1488.51 397.555 1479.67C416.367 1464.14 459.637 1468.68 468.808 1456.6C476.311 1446.71 479.844 1429.89 482.5 1422.43C485.5 1414.01 494.577 1412.06 493.499 1422.43C492.5 1432.05 495.644 1446.37 522.98 1445.85C544.795 1445.43 547.997 1440.16 556.522 1426.14Z" fill="#3B3247"/>
<mask id="mask1" mask-type="alpha" maskUnits="userSpaceOnUse" x="387" y="1410" width="198" height="116">
<path d="M522.946 1447.16C544.804 1446.73 552.054 1432.63 552.947 1425.63H566.457C567.528 1427.25 568.75 1431.02 571.161 1442.32C574.376 1457.39 579.734 1460.08 582.948 1474.07C585.173 1483.76 585.626 1498.29 580.269 1506.37C571.949 1518.91 561.518 1517.67 543.839 1517.67C533.659 1517.67 516.516 1514.98 500.98 1519.28C479.288 1525.3 419.548 1528.43 404.546 1523.59C378.982 1515.34 385.843 1489.67 396.99 1480.15C415.793 1464.09 459.672 1468.14 468.839 1455.64C476.338 1445.42 481.916 1421.06 487.292 1415.06C496.935 1404.29 495.208 1412.51 493.479 1422.94C491.337 1435.86 495.623 1447.7 522.946 1447.16Z" fill="#252424"/>
</mask>
<g mask="url(#mask1)">
<path d="M410.881 1498.79C401.024 1498.79 384.5 1488.71 384.5 1485.66C383.786 1495.17 383.571 1514.63 390 1520.23C398.036 1527.23 472.491 1528.39 480.527 1525.16C488.563 1521.93 490 1517.22 476 1519.73C467.944 1521.17 443.561 1512.24 434.989 1505.78C426.418 1499.32 423.203 1498.79 410.881 1498.79Z" fill="#DEDEDE"/>
<path opacity="0.5" d="M524.085 1478.78C517.184 1480.66 511.622 1480.41 508.471 1478.01C500.353 1471.76 505.551 1462.23 507.755 1458.5C503.787 1463.07 499.844 1467.66 496.766 1472.66C491.913 1480.47 489.854 1489.05 493.128 1494.54C498.997 1504.46 513.104 1499.88 522.096 1495.89L605.538 1458.87L524.085 1478.78Z" fill="#7F8389"/>
</g>
<path d="M487.76 1460.26L465.142 1452.09L466.749 1473.62L442.105 1464.47L437.819 1483.84L417.997 1472" stroke="#2A2A2A" stroke-width="6.44516" stroke-linecap="round" stroke-linejoin="round"/>
</svg>
