<svg width="573" height="1383" viewBox="0 0 573 1383" fill="none" xmlns="http://www.w3.org/2000/svg">
<path d="M274.679 988.439C338.82 988.439 390.817 963.809 390.817 933.426C390.817 903.043 338.82 878.413 274.679 878.413C210.537 878.413 158.54 903.043 158.54 933.426C158.54 963.809 210.537 988.439 274.679 988.439Z" fill="#35383E"/>
<path d="M103.284 638.49C71.399 700.914 45.2526 865.835 71.3989 882.931" stroke="#EBBAAA" stroke-width="74" stroke-linecap="round" stroke-linejoin="bevel"/>
<path d="M441.186 613.615C486.792 694.463 503.302 844.364 486.718 889.971" stroke="#EBBAAA" stroke-width="74" stroke-linecap="round" stroke-linejoin="bevel"/>
<path d="M360.338 1144.31V1313.26" stroke="#DCE1E9" stroke-width="54" stroke-linecap="round" stroke-linejoin="bevel"/>
<path d="M223.519 1144.31L240.342 1298.25" stroke="#DCE1E9" stroke-width="54" stroke-linecap="round" stroke-linejoin="bevel"/>
<path d="M215.016 1280.52C211.448 1275.02 206.153 1274.75 201.865 1271.59C199.76 1274.59 199.918 1278.98 198.013 1284.86L185.629 1300.15L164.1 1323.21L143.582 1334.34L155.957 1348.61C164.246 1342.15 211.282 1292.06 215.016 1280.52Z" fill="#3B3937"/>
<path d="M287.736 1356.1C287.736 1356.1 288.2 1331.09 282.759 1317.29C277.319 1303.48 271.526 1267.82 271.526 1267.82C271.526 1267.82 262.176 1278.02 244.6 1278.18L211.477 1278.46C211.477 1278.46 182.639 1318.72 174.164 1324.12C165.688 1329.53 117.681 1340.01 117.681 1340.01C108.562 1340.08 101.234 1347.54 101.314 1356.66L101.387 1365.06L201.518 1364.19L287.736 1356.1Z" fill="#1C1B19"/>
<path d="M200.607 1300.26C203.087 1296.38 208.143 1288.03 208.524 1285.61C231.687 1289.43 262.855 1288.65 274.376 1283.53C277.471 1292.55 279.058 1304.79 279.058 1304.79C277.082 1308.83 254.91 1316.78 246.376 1318.36C241.82 1314.88 238.438 1314.01 234.901 1312.03C229.352 1308.92 210.836 1300.84 200.607 1300.26Z" fill="#D0271C"/>
<path d="M251.404 1336.46C254.923 1334.45 275.08 1326.99 284.086 1321.88C288.538 1325.06 287.978 1344.25 288.075 1355.31L243.848 1357.71C246.289 1349.31 250.231 1337.64 251.404 1336.46Z" fill="#D0271C"/>
<path d="M224.16 1332.19C219.426 1333.74 215.546 1333.77 213.266 1332.23C207.39 1328.19 210.661 1321.39 212.059 1318.72C209.463 1322.03 206.886 1325.36 204.926 1328.94C201.832 1334.53 200.711 1340.55 203.189 1344.24C207.634 1350.91 217.285 1347.22 223.398 1344.13L280.121 1315.41L224.16 1332.19Z" fill="#D0271C"/>
<path d="M143.154 1343C130.598 1344.62 114.513 1345.26 111.461 1341.26L132.023 1335.05L159.081 1324.26L166.151 1327.71L165.172 1330.74L180.339 1340.16L173.881 1349.27L173.781 1349.22C168.825 1347.05 155.834 1341.36 143.154 1343Z" fill="#D0271C"/>
<path d="M202.816 1288.8L197.468 1286.71" stroke="#1C1B19" stroke-width="6.35587" stroke-linecap="round"/>
<path d="M194.851 1297.92L189.503 1295.83" stroke="#1C1B19" stroke-width="6.35587" stroke-linecap="round"/>
<path d="M187.891 1307.03L182.543 1304.94" stroke="#1C1B19" stroke-width="6.35587" stroke-linecap="round"/>
<path d="M179.925 1316.15L174.577 1314.06" stroke="#1C1B19" stroke-width="6.35587" stroke-linecap="round"/>
<path d="M167.937 1325.3L162.589 1323.22" stroke="#1C1B19" stroke-width="6.35587" stroke-linecap="round"/>
<path d="M288.948 1355.05L194.713 1360.13L100.937 1356.69L99.5617 1369C99.1479 1372.7 101.993 1375.96 105.718 1376.06L192.917 1378.26L241.567 1378.37L290.199 1376.34L288.948 1355.05Z" fill="#D0CEC1"/>
<path d="M289.76 1375.41C274.78 1376.04 237.151 1377.88 220.742 1378.02C208.969 1378.12 110.264 1376.97 100.182 1374.05" stroke="#D0271C" stroke-width="6"/>
<path d="M385.976 1279.52C389.543 1274.02 394.839 1273.74 399.127 1270.58C401.232 1273.58 401.074 1277.97 402.979 1283.85L415.363 1299.14L436.892 1322.2L457.41 1333.33L445.035 1347.6C436.746 1341.14 389.71 1291.05 385.976 1279.52Z" fill="#3B3937"/>
<path d="M313.256 1355.09C313.256 1355.09 312.792 1330.08 318.233 1316.28C323.673 1302.48 329.466 1266.81 329.466 1266.81C329.466 1266.81 338.816 1277.01 356.392 1277.17L389.515 1277.46C389.515 1277.46 418.353 1317.72 426.828 1323.12C435.304 1328.52 483.311 1339 483.311 1339C492.43 1339.08 499.758 1346.53 499.678 1355.65L499.605 1364.05L399.474 1363.18L313.256 1355.09Z" fill="#1C1B19"/>
<path d="M400.385 1299.25C397.905 1295.37 392.849 1287.02 392.468 1284.6C369.305 1288.42 338.136 1287.65 326.616 1282.52C323.521 1291.54 321.934 1303.78 321.934 1303.78C323.91 1307.82 346.082 1315.77 354.616 1317.35C359.172 1313.87 362.554 1313 366.091 1311.02C371.64 1307.91 390.156 1299.83 400.385 1299.25Z" fill="#D0271C"/>
<path d="M349.588 1335.46C346.069 1333.44 325.913 1325.98 316.907 1320.87C312.454 1324.05 313.014 1343.24 312.917 1354.3L357.144 1356.7C354.703 1348.3 350.761 1336.63 349.588 1335.46Z" fill="#D0271C"/>
<path d="M376.832 1331.18C381.566 1332.74 385.446 1332.76 387.726 1331.22C393.603 1327.18 390.332 1320.38 388.933 1317.71C391.529 1321.03 394.107 1324.35 396.067 1327.93C399.16 1333.53 400.281 1339.55 397.803 1343.24C393.358 1349.9 383.707 1346.21 377.594 1343.12L320.871 1314.4L376.832 1331.18Z" fill="#D0271C"/>
<path d="M457.838 1341.99C470.394 1343.61 486.479 1344.25 489.531 1340.26L468.969 1334.04L441.911 1323.25L434.841 1326.71L435.82 1329.73L420.653 1339.15L427.111 1348.26L427.211 1348.22C432.166 1346.05 445.157 1340.36 457.838 1341.99Z" fill="#D0271C"/>
<path d="M398.175 1287.79L403.523 1285.7" stroke="#1C1B19" stroke-width="6.35587" stroke-linecap="round"/>
<path d="M406.141 1296.91L411.489 1294.83" stroke="#1C1B19" stroke-width="6.35587" stroke-linecap="round"/>
<path d="M413.101 1306.02L418.449 1303.94" stroke="#1C1B19" stroke-width="6.35587" stroke-linecap="round"/>
<path d="M421.067 1315.14L426.415 1313.06" stroke="#1C1B19" stroke-width="6.35587" stroke-linecap="round"/>
<path d="M433.055 1324.3L438.403 1322.21" stroke="#1C1B19" stroke-width="6.35587" stroke-linecap="round"/>
<path d="M312.043 1354.04L406.278 1359.12L500.055 1355.68L501.43 1367.99C501.844 1371.69 498.999 1374.96 495.274 1375.05L408.075 1377.25L359.425 1377.36L310.792 1375.34L312.043 1354.04Z" fill="#D0CEC1"/>
<path d="M311.232 1374.4C326.212 1375.03 363.841 1376.87 380.25 1377.01C392.023 1377.12 490.728 1375.97 500.81 1373.04" stroke="#D0271C" stroke-width="6"/>
<path d="M149.837 871.868H285.595L280.567 1233.68L272.522 1262.05L195.592 1258.02L183.913 1227.15L149.837 871.868Z" fill="#35383E"/>
<path d="M284.302 877.924H420.52L415.319 1225.85L404.257 1255.01L325.819 1268.5L318.517 1233.89L284.302 877.924Z" fill="#35383E"/>
<path d="M192.073 1249.98H274.533V1274.12H196.843L192.073 1249.98Z" fill="#1D1F23"/>
<path d="M322.803 1249.98H405.263L401.241 1272.1H326.567L322.803 1249.98Z" fill="#1D1F23"/>
<rect x="68.0439" y="588.823" width="110.489" height="16.7807" transform="rotate(18 68.0439 588.823)" fill="#F1EDED"/>
<rect x="496.514" y="625.514" width="110.489" height="16.7807" transform="rotate(162 496.514 625.514)" fill="#F1EDED"/>
<path d="M152.404 542.144C153.244 507.535 180.95 479.59 215.549 478.461L296.324 475.818C302.906 475.61 309.498 475.952 316.017 476.854L394.865 487.758C429.65 492.568 454.402 524.015 450.898 558.956L435.983 707.674L443.467 920.739C443.539 922.564 356.806 920.833 354.982 920.739H215.549L136.297 908.778C134.545 908.685 133.208 907.161 133.353 905.409L148.839 689.152L152.404 542.144Z" fill="#A6612E"/>
<path d="M283.698 565.935C323.77 565.935 356.254 533.45 356.254 493.379C356.254 453.308 323.77 420.823 283.698 420.823C243.627 420.823 211.143 453.308 211.143 493.379C211.143 533.45 243.627 565.935 283.698 565.935Z" fill="#9A4E16"/>
<rect x="244.311" y="415.642" width="78.7747" height="119.199" rx="37.911" fill="#EBBAAA"/>
<path d="M429.666 348.479C462.582 348.479 489.265 321.796 489.265 288.88C489.265 255.964 462.582 229.281 429.666 229.281C396.75 229.281 370.066 255.964 370.066 288.88C370.066 321.796 396.75 348.479 429.666 348.479Z" fill="#EBBAAA"/>
<path d="M149.099 351.497C116.183 351.497 89.4999 324.814 89.4999 291.898C89.4999 258.982 116.183 232.299 149.099 232.299C182.015 232.299 208.698 258.982 208.698 291.898C208.698 324.814 182.015 351.497 149.099 351.497Z" fill="#EBBAAA"/>
<path d="M130.73 177.303C130.73 92.7118 199.305 24.1368 283.897 24.1368V24.1368C369.416 24.1368 438.369 94.1661 437.045 179.675L434.696 331.37C433.43 413.091 366.822 478.675 285.092 478.675V478.675V478.675C205.781 478.675 140.244 416.799 135.689 337.619L130.73 251.406V177.303Z" fill="#F4D4C9"/>
<path d="M259.449 388.17C277.55 398.226 298.668 397.221 320.792 388.17" stroke="#C99584" stroke-width="15.3993" stroke-linecap="round"/>
<path d="M287.723 110.514C211.094 110.514 149.263 110.514 145.201 166.361C139.149 249.558 124.68 256.251 113.711 217.668C112.039 211.788 100.475 172.458 100.236 166.361C104.578 47.8194 243.257 5.18365 291.036 5.18365C330.195 37.048 364.362 110.514 287.723 110.514Z" fill="#272727"/>
<path d="M123.049 166.187C122.784 158.075 127.961 151.329 134.441 151.329C141.164 151.329 146.425 158.566 145.79 166.942L135.055 308.85C134.875 311.222 133.287 313.025 131.392 313.025C129.412 313.025 127.792 311.077 127.707 308.611L123.049 166.187Z" fill="#272727"/>
<path d="M444.347 165.52C444.612 157.773 439.435 151.329 432.956 151.329C426.233 151.329 420.971 158.241 421.606 166.242L432.341 301.782C432.521 304.048 434.11 305.769 436.005 305.769C437.985 305.769 439.604 303.908 439.689 301.554L444.347 165.52Z" fill="#272727"/>
<path d="M283.049 110.513C362.013 110.513 418.298 118.287 421.554 175.17C429.628 219.782 454.722 287.113 473.379 154.44C468.915 35.8986 329.335 5.18268 280.1 5.18268C239.749 37.0471 204.076 110.513 283.049 110.513Z" fill="#272727"/>
<path d="M163.999 40.6603L149.989 65.682L285.262 58.384L435.029 89.1398V74.5438L424.4 69.8523V58.384H410.873V40.6603H393.48L389.615 27.1069H374.156L364.976 13.5534L349.033 17.7237L344.202 9.38314H327.776V0L305.553 9.38314L299.755 0L290.093 9.38314L280.431 0L262.072 9.38314L250.477 0L237.916 9.38314H229.22L219.558 17.7237L215.693 9.38314L199.267 27.1069L188.638 22.9366L174.628 43.2667L163.999 40.6603Z" fill="#272727"/>
<path d="M348.519 253.333V282.241" stroke="black" stroke-width="24" stroke-linecap="round"/>
<path d="M218.875 253.333V282.241" stroke="black" stroke-width="24" stroke-linecap="round"/>
<path d="M333.25 202.79L390.778 206.306" stroke="#393939" stroke-width="24" stroke-linecap="round"/>
<path d="M242.169 204.015L184.613 207.029" stroke="#393939" stroke-width="24" stroke-linecap="round"/>
<path d="M283.698 295.652C273.418 313.79 270.293 337.111 289.917 337.111" stroke="#EBBAAA" stroke-width="17"/>
<path d="M134.752 218.22V137.788L227.269 96.5403V152.224L198.486 189.347V172.848L175.871 189.347L163.535 172.848L134.752 218.22Z" fill="#272727"/>
<path d="M430.404 224.255V130.965L337.887 89.5024V145.477L347.139 194.195L363.586 177.61L382.089 194.195L406.76 177.61L430.404 224.255Z" fill="#272727"/>
<path d="M220.775 197.558L207.308 163.177L202.129 89.5024H374.089L326.437 206.154L316.078 186.507L304.683 197.558L290.181 176.684L280.857 197.558L265.319 186.507L245.637 197.558L239.421 186.507L220.775 197.558Z" fill="#272727"/>
<path d="M383.139 40.1383C388.079 40.4824 401.134 40.6545 403.251 24.1382" stroke="#272727" stroke-width="9" stroke-linecap="round"/>
<path d="M128.719 70.3955C135.255 66.2373 146.819 54.5869 160.898 70.3958" stroke="#272727" stroke-width="9" stroke-linecap="round"/>
<path d="M397.218 61.3436C403.959 57.7051 415.884 47.511 430.403 61.3438" stroke="#272727" stroke-width="9" stroke-linecap="round"/>
<path d="M102.001 200.12C91.309 181.487 102.001 165.96 111.623 164.924" stroke="#272727" stroke-width="9" stroke-linecap="round"/>
<rect x="102.718" y="470.63" width="148.541" height="361.663" rx="74.2707" transform="rotate(16.5 102.718 470.63)" fill="#D1D6DF"/>
<path d="M17.2974 874.887C10.8615 856.384 15.0841 767.286 23.1289 737.118L131.937 756.224C119.668 794.438 117.657 844.718 108.606 893.994L108.452 894.001C87.1875 895.014 25.3228 897.96 17.2974 874.887Z" fill="#D1D6DF"/>
<path d="M44.2465 735.107L117.154 757.23L37.71 749.688L44.2465 735.107Z" fill="#BAC1CF"/>
<path d="M62.3477 764.269L118.662 761.252L69.8898 776.839L62.3477 764.269Z" fill="#BAC1CF"/>
<circle cx="90.0022" cy="877.401" r="7.54194" fill="#9CA8BB"/>
<rect width="158.872" height="390.488" rx="79.4361" transform="matrix(-0.945519 0.325568 0.325568 0.945519 445.868 462.586)" fill="#D1D6DF"/>
<path d="M269.505 738.124C268.706 670.591 272.522 585.927 272.522 553.594C265.482 553.594 258.443 552.588 253.415 549.571C253.687 523.583 255.524 496.933 244.48 472.642L158.476 489.207C145.079 507.642 121.51 562.724 117.727 668.231C113.944 773.738 121.667 877.34 117.727 924.846C134.277 929.632 227.195 945.586 281.572 928.569C281.572 860.5 270.687 838.101 269.505 738.124Z" fill="#D6DCE7"/>
<path d="M215.202 912.095C192.676 913.704 140.786 898.016 117.657 889.971V924.162C130.73 934.218 164.641 937.38 183.022 940.252C215.202 945.28 243.359 940.252 283.583 934.218L281.572 903.547C267.494 906.564 237.727 910.486 215.202 912.095Z" fill="#C4CAD3"/>
<path d="M548.06 876.901C554.496 858.398 556.105 793.435 548.06 763.267L433.42 758.239C445.69 796.452 447.701 846.733 456.752 896.008L456.906 896.015C478.17 897.028 540.035 899.974 548.06 876.901Z" fill="#D1D6DF"/>
<path d="M514.373 724.046L441.466 746.17L520.909 738.628L514.373 724.046Z" fill="#BAC1CF"/>
<path d="M500.796 756.227L444.482 753.21L493.254 768.797L500.796 756.227Z" fill="#BAC1CF"/>
<circle r="7.54194" transform="matrix(-1 0 0 1 475.356 879.414)" fill="#9CA8BB"/>
<path d="M298.668 740.638C299.419 675.29 297.662 583.372 297.662 552.085C303.193 552.085 309.176 552.588 316.769 550.074C320.372 523.325 330.107 493.641 340.281 470.63L398.777 480.063C413.216 482.391 425.98 490.703 429.716 504.843C438.08 536.504 444.215 595.909 446.934 673.89C450.493 775.983 455.858 880.933 459.566 926.903C430.645 931.019 355.869 943.369 304.701 926.903C304.701 861.036 297.555 837.379 298.668 740.638Z" fill="#D6DCE7"/>
<path d="M269.505 694.882C243.761 720.626 147.49 784.047 116.651 795.444V893.994L184.028 909.078C184.028 909.078 181.638 880.075 196.095 854.775C220.23 812.539 231.292 784.382 269.505 756.225V694.882Z" fill="#43519A"/>
<path d="M429.398 506.33C417.33 554.6 328.836 652.647 298.668 673.765V749.186C386.156 645.608 415.319 617.451 441.968 597.338C441.968 580.746 436.94 520.409 429.398 506.33Z" fill="#43519A"/>
<path d="M216.207 515.381C211.179 504.319 200.453 488.229 197.101 479.179C194.084 481.525 166.429 482.698 137.769 488.229C104.183 494.711 93.5223 516.889 86.483 528.957C79.4437 541.024 57.3202 609.909 53.8005 637.563C60.8398 642.591 92.014 629.015 105.59 614.937C114.419 605.78 124.194 577.729 145.814 559.628C159.715 547.99 221.633 527.317 216.207 515.381Z" fill="#43519A"/>
<path d="M200.356 445.489C194.322 459.568 192.646 469.289 194.322 482.697C194.322 504.19 235.795 535.634 253.561 550.144C260.693 521.916 260.693 470.7 254.567 470.7C241.075 470.7 215.44 458.562 200.356 445.489Z" fill="#C4CAD3"/>
<path d="M369.925 445.489C375.959 458.562 377.635 469.289 375.959 482.697C375.959 504.19 333.48 536.64 315.714 551.149C308.582 522.922 309.588 470.7 315.714 470.7C329.206 470.7 354.841 458.562 369.925 445.489Z" fill="#C4CAD3"/>
<rect x="305.536" y="609.91" width="19.1063" height="7.03915" rx="3.51957" transform="rotate(-3 305.536 609.91)" fill="#EAF0FA"/>
<rect x="305.707" y="685.832" width="19.1063" height="7.03915" rx="3.51957" transform="rotate(-3 305.707 685.832)" fill="#EAF0FA"/>
<path d="M372.078 907.067C394.603 908.676 438.448 906.564 457.555 890.977L459.566 926.173C439.454 931.201 411.799 935.224 404.257 935.224C371.687 935.224 343.92 936.229 303.696 930.196V900.53C317.774 903.547 349.552 905.458 372.078 907.067Z" fill="#C4CAD3"/>
<rect x="305.707" y="760.241" width="19.1063" height="7.03915" rx="3.51957" transform="rotate(-3 305.707 760.241)" fill="#EAF0FA"/>
<rect x="307.718" y="831.64" width="19.1063" height="7.03915" rx="3.51957" transform="rotate(-3 307.718 831.64)" fill="#EAF0FA"/>
<circle cx="253.918" cy="612.924" r="7.54194" fill="#9CA8BB"/>
<rect x="312.293" y="913.701" width="19.1063" height="7.03915" rx="3.51957" transform="rotate(5.5 312.293 913.701)" fill="#9CA8BB"/>
<circle cx="251.907" cy="686.335" r="7.54194" fill="#9CA8BB"/>
<circle cx="252.912" cy="764.773" r="7.54194" fill="#9CA8BB"/>
<circle cx="258.946" cy="837.177" r="7.54194" fill="#9CA8BB"/>
<circle cx="267.997" cy="918.632" r="7.54194" fill="#9CA8BB"/>
<path d="M138.775 761.253H156.876L161.904 847.736L142.797 849.747L138.775 761.253Z" fill="#EAF0FA"/>
<path d="M428.392 763.265H410.291L405.263 849.748L424.37 851.76L428.392 763.265Z" fill="#EAF0FA"/>
</svg>
