<svg width="22" height="22" viewBox="0 0 22 22" fill="none" xmlns="http://www.w3.org/2000/svg">
<path d="M11 21.6562C16.8853 21.6562 21.6562 16.8853 21.6562 11C21.6562 5.11472 16.8853 0.34375 11 0.34375C5.11472 0.34375 0.34375 5.11472 0.34375 11C0.34375 16.8853 5.11472 21.6562 11 21.6562Z" fill="#EA4C89"/>
<path fill-rule="evenodd" clip-rule="evenodd" d="M11 0C4.92733 0 0 4.92733 0 11C0 17.0727 4.92733 22 11 22C17.0607 22 22 17.0727 22 11C22 4.92733 17.0607 0 11 0ZM18.2657 5.0705C19.5781 6.6692 20.3655 8.70932 20.3894 10.9165C20.0792 10.8569 16.9772 10.2245 13.8514 10.6182C13.7798 10.4631 13.7202 10.2961 13.6486 10.1291C13.4577 9.67574 13.243 9.21044 13.0282 8.76899C16.488 7.3612 18.0629 5.33297 18.2657 5.0705ZM11 1.62256C13.3861 1.62256 15.5694 2.51736 17.2278 3.98482C17.0607 4.22343 15.641 6.12039 12.3004 7.37309C10.7614 4.54555 9.05534 2.23102 8.79285 1.8731C9.49671 1.70607 10.2365 1.62256 11 1.62256ZM7.00329 2.50542C7.25381 2.83948 8.92409 5.16594 10.487 7.93382C6.09653 9.10305 2.21909 9.07919 1.80152 9.07919C2.40998 6.16811 4.37852 3.7462 7.00329 2.50542ZM1.5987 11.012C1.5987 10.9165 1.5987 10.821 1.5987 10.7256C2.00434 10.7375 6.56182 10.7972 11.2505 9.38939C11.525 9.9143 11.7755 10.4512 12.0141 10.988C11.8948 11.0239 11.7635 11.0597 11.6443 11.0954C6.80043 12.6583 4.22343 16.9295 4.00868 17.2874C2.51735 15.6291 1.5987 13.4219 1.5987 11.012ZM11 20.4013C8.8286 20.4013 6.8243 19.6616 5.23753 18.4208C5.40455 18.0749 7.31342 14.4002 12.6106 12.551C12.6345 12.539 12.6464 12.539 12.6703 12.5271C13.9945 15.9512 14.5315 18.8264 14.6746 19.6496C13.5412 20.1388 12.3004 20.4013 11 20.4013ZM16.2375 18.7907C16.1421 18.218 15.641 15.474 14.4121 12.0976C17.359 11.6323 19.936 12.3959 20.2582 12.5033C19.8525 15.1161 18.3492 17.3709 16.2375 18.7907Z" fill="#C32361"/>
</svg>
