<svg width="24" height="24" viewBox="0 0 24 24" fill="none" xmlns="http://www.w3.org/2000/svg">
<g clip-path="url(#clip0)">
<path d="M8.6674 23C10.691 23 12.3333 21.3573 12.3333 19.3333V15.6666H8.6674C6.6438 15.6666 5.00146 17.3093 5.00146 19.3333C5.00146 21.3573 6.6438 23 8.6674 23Z" fill="#0ACF83"/>
<path d="M5.00146 12C5.00146 9.97604 6.6438 8.33337 8.6674 8.33337H12.3333V15.6667H8.6674C6.6438 15.6667 5.00146 14.024 5.00146 12Z" fill="#A259FF"/>
<path d="M5.00159 4.66667C5.00159 2.64267 6.64392 1 8.66752 1H12.3335V8.33333H8.66752C6.64392 8.33333 5.00159 6.69067 5.00159 4.66667Z" fill="#F24E1E"/>
<path d="M12.3333 1H15.9992C18.0228 1 19.6652 2.64267 19.6652 4.66667C19.6652 6.69067 18.0228 8.33333 15.9992 8.33333H12.3333V1Z" fill="#FF7262"/>
<path d="M19.6652 12C19.6652 14.024 18.0228 15.6667 15.9992 15.6667C13.9757 15.6667 12.3333 14.024 12.3333 12C12.3333 9.97604 13.9757 8.33337 15.9992 8.33337C18.0228 8.33337 19.6652 9.97604 19.6652 12Z" fill="#1ABCFE"/>
</g>
<defs>
<clipPath id="clip0">
<rect x="5" y="1" width="14.6667" height="22" fill="white"/>
</clipPath>
</defs>
</svg>
