<svg width="24" height="25" viewBox="0 0 24 25" fill="none" xmlns="http://www.w3.org/2000/svg">
<path d="M8.02742 19.229C8.02742 19.3258 7.91613 19.4032 7.77581 19.4032C7.61613 19.4177 7.50484 19.3403 7.50484 19.229C7.50484 19.1322 7.61613 19.0548 7.75645 19.0548C7.90161 19.0403 8.02742 19.1177 8.02742 19.229ZM6.52258 19.0113C6.48871 19.1081 6.58548 19.2193 6.73065 19.2484C6.85645 19.2968 7.00161 19.2484 7.03065 19.1516C7.05968 19.0548 6.96774 18.9435 6.82258 18.9C6.69677 18.8661 6.55645 18.9145 6.52258 19.0113ZM8.66129 18.929C8.52097 18.9629 8.42419 19.0548 8.43871 19.1661C8.45322 19.2629 8.57903 19.3258 8.72419 19.2919C8.86452 19.2581 8.96129 19.1661 8.94677 19.0693C8.93226 18.9774 8.80161 18.9145 8.66129 18.929ZM11.8452 0.387085C5.13387 0.387085 0 5.48225 0 12.1935C0 17.5597 3.37742 22.1516 8.20161 23.7677C8.82097 23.879 9.03871 23.4968 9.03871 23.1823C9.03871 22.8823 9.02419 21.2274 9.02419 20.2113C9.02419 20.2113 5.6371 20.9371 4.92581 18.7693C4.92581 18.7693 4.37419 17.3613 3.58065 16.9984C3.58065 16.9984 2.47258 16.2387 3.65806 16.2532C3.65806 16.2532 4.8629 16.35 5.52581 17.5016C6.58548 19.3693 8.36129 18.8322 9.05323 18.5129C9.16452 17.7387 9.47903 17.2016 9.82742 16.8822C7.12258 16.5822 4.39355 16.1903 4.39355 11.5355C4.39355 10.2048 4.76129 9.53709 5.53548 8.68547C5.40968 8.37096 4.99839 7.07418 5.66129 5.39999C6.67258 5.08547 9 6.70644 9 6.70644C9.96774 6.43547 11.0081 6.29515 12.0387 6.29515C13.0694 6.29515 14.1097 6.43547 15.0774 6.70644C15.0774 6.70644 17.4048 5.08063 18.4161 5.39999C19.079 7.07902 18.6677 8.37096 18.5419 8.68547C19.3161 9.54193 19.7903 10.2097 19.7903 11.5355C19.7903 16.2048 16.9403 16.5774 14.2355 16.8822C14.6806 17.2645 15.0581 17.9903 15.0581 19.1274C15.0581 20.7581 15.0435 22.7758 15.0435 23.1726C15.0435 23.4871 15.2661 23.8693 15.8806 23.7581C20.7194 22.1516 24 17.5597 24 12.1935C24 5.48225 18.5565 0.387085 11.8452 0.387085ZM4.70323 17.0758C4.64032 17.1242 4.65484 17.2355 4.7371 17.3274C4.81452 17.4048 4.92581 17.4387 4.98871 17.3758C5.05161 17.3274 5.0371 17.2161 4.95484 17.1242C4.87742 17.0468 4.76613 17.0129 4.70323 17.0758ZM4.18065 16.6839C4.14677 16.7468 4.19516 16.8242 4.29193 16.8726C4.36935 16.921 4.46613 16.9064 4.5 16.8387C4.53387 16.7758 4.48548 16.6984 4.38871 16.65C4.29193 16.621 4.21452 16.6355 4.18065 16.6839ZM5.74839 18.4064C5.67097 18.4693 5.7 18.6145 5.81129 18.7064C5.92258 18.8177 6.0629 18.8322 6.12581 18.7548C6.18871 18.6919 6.15968 18.5468 6.0629 18.4548C5.95645 18.3435 5.81129 18.329 5.74839 18.4064ZM5.19677 17.6952C5.11935 17.7435 5.11935 17.8693 5.19677 17.9806C5.27419 18.0919 5.40484 18.1403 5.46774 18.0919C5.54516 18.029 5.54516 17.9032 5.46774 17.7919C5.4 17.6806 5.27419 17.6322 5.19677 17.6952Z" fill="#161516"/>
</svg>
