<svg width="255" height="55" viewBox="0 0 255 55" fill="none" xmlns="http://www.w3.org/2000/svg">
<rect x="208" width="46.6667" height="24" rx="12" fill="#0052CC"/>
<path d="M221.189 6.97061C221.264 7.08794 221.328 7.24794 221.381 7.45061C221.445 7.64261 221.477 7.84527 221.477 8.05861C221.477 8.47461 221.387 8.77327 221.205 8.95461C221.035 9.12527 220.8 9.21061 220.501 9.21061H217.141V11.0186H220.645C220.731 11.1359 220.8 11.2906 220.853 11.4826C220.917 11.6746 220.949 11.8773 220.949 12.0906C220.949 12.4959 220.859 12.7893 220.677 12.9706C220.507 13.1413 220.272 13.2266 219.973 13.2266H217.173V16.6026C217.056 16.6346 216.869 16.6666 216.613 16.6986C216.368 16.7306 216.123 16.7466 215.877 16.7466C215.632 16.7466 215.413 16.7253 215.221 16.6826C215.04 16.6506 214.885 16.5866 214.757 16.4906C214.629 16.3946 214.533 16.2613 214.469 16.0906C214.405 15.9199 214.373 15.6959 214.373 15.4186V8.45861C214.373 7.99994 214.507 7.63727 214.773 7.37061C215.04 7.10394 215.403 6.97061 215.861 6.97061H221.189Z" fill="white"/>
<path d="M225.657 13.5306V16.6026C225.54 16.6346 225.353 16.6666 225.097 16.6986C224.852 16.7306 224.607 16.7466 224.361 16.7466C224.116 16.7466 223.897 16.7253 223.705 16.6826C223.524 16.6506 223.369 16.5866 223.241 16.4906C223.124 16.3946 223.033 16.2613 222.969 16.0906C222.905 15.9199 222.873 15.6959 222.873 15.4186V7.88261C222.873 7.65861 222.932 7.48794 223.049 7.37061C223.177 7.24261 223.348 7.14127 223.561 7.06661C223.924 6.93861 224.345 6.84794 224.825 6.79461C225.305 6.73061 225.817 6.69861 226.361 6.69861C227.833 6.69861 228.943 7.00794 229.689 7.62661C230.436 8.24528 230.809 9.08261 230.809 10.1386C230.809 10.7999 230.639 11.3653 230.297 11.8346C229.956 12.3039 229.551 12.6666 229.081 12.9226C229.465 13.4453 229.844 13.9359 230.217 14.3946C230.591 14.8533 230.884 15.2693 231.097 15.6426C230.991 16.0159 230.793 16.3039 230.505 16.5066C230.228 16.6986 229.913 16.7946 229.561 16.7946C229.327 16.7946 229.124 16.7679 228.953 16.7146C228.783 16.6613 228.633 16.5866 228.505 16.4906C228.377 16.3946 228.26 16.2773 228.153 16.1386C228.047 15.9999 227.945 15.8506 227.849 15.6906L226.505 13.5306H225.657ZM226.665 11.4026C227.071 11.4026 227.391 11.3013 227.625 11.0986C227.86 10.8853 227.977 10.5759 227.977 10.1706C227.977 9.76527 227.844 9.46127 227.577 9.25861C227.321 9.04528 226.911 8.93861 226.345 8.93861C226.185 8.93861 226.057 8.94394 225.961 8.95461C225.865 8.96527 225.759 8.98127 225.641 9.00261V11.4026H226.665Z" fill="white"/>
<path d="M232.623 8.45861C232.623 7.99994 232.757 7.63727 233.023 7.37061C233.29 7.10394 233.653 6.97061 234.111 6.97061H239.391C239.466 7.08794 239.53 7.24261 239.583 7.43461C239.647 7.62661 239.679 7.82928 239.679 8.04261C239.679 8.44794 239.589 8.73594 239.407 8.90661C239.237 9.07728 239.007 9.16261 238.719 9.16261H235.343V10.6506H238.943C239.018 10.7679 239.082 10.9226 239.135 11.1146C239.199 11.2959 239.231 11.4933 239.231 11.7066C239.231 12.1119 239.146 12.3999 238.975 12.5706C238.805 12.7413 238.575 12.8266 238.287 12.8266H235.343V14.5066H239.455C239.53 14.6239 239.594 14.7786 239.647 14.9706C239.711 15.1626 239.743 15.3653 239.743 15.5786C239.743 15.9839 239.653 16.2773 239.471 16.4586C239.301 16.6293 239.071 16.7146 238.783 16.7146H234.111C233.653 16.7146 233.29 16.5813 233.023 16.3146C232.757 16.0479 232.623 15.6853 232.623 15.2266V8.45861Z" fill="white"/>
<path d="M241.389 8.45861C241.389 7.99994 241.522 7.63727 241.789 7.37061C242.056 7.10394 242.418 6.97061 242.877 6.97061H248.157C248.232 7.08794 248.296 7.24261 248.349 7.43461C248.413 7.62661 248.445 7.82928 248.445 8.04261C248.445 8.44794 248.354 8.73594 248.173 8.90661C248.002 9.07728 247.773 9.16261 247.485 9.16261H244.109V10.6506H247.709C247.784 10.7679 247.848 10.9226 247.901 11.1146C247.965 11.2959 247.997 11.4933 247.997 11.7066C247.997 12.1119 247.912 12.3999 247.741 12.5706C247.57 12.7413 247.341 12.8266 247.053 12.8266H244.109V14.5066H248.221C248.296 14.6239 248.36 14.7786 248.413 14.9706C248.477 15.1626 248.509 15.3653 248.509 15.5786C248.509 15.9839 248.418 16.2773 248.237 16.4586C248.066 16.6293 247.837 16.7146 247.549 16.7146H242.877C242.418 16.7146 242.056 16.5813 241.789 16.3146C241.522 16.0479 241.389 15.6853 241.389 15.2266V8.45861Z" fill="white"/>
<path d="M23.56 43.04C23.56 43.8667 23.4133 44.48 23.12 44.88C22.8267 45.28 22.36 45.6667 21.72 46.04C21.3467 46.2533 20.88 46.4667 20.32 46.68C19.76 46.8667 19.1467 47.0267 18.48 47.16C17.8133 47.32 17.1067 47.44 16.36 47.52C15.64 47.6 14.92 47.64 14.2 47.64C12.28 47.64 10.48 47.3867 8.79999 46.88C7.11999 46.3467 5.65333 45.56 4.39999 44.52C3.17333 43.4533 2.19999 42.1333 1.47999 40.56C0.759994 38.9867 0.399994 37.16 0.399994 35.08C0.399994 32.8933 0.786661 30.9867 1.55999 29.36C2.35999 27.7333 3.39999 26.3867 4.67999 25.32C5.98666 24.2267 7.46666 23.4133 9.12 22.88C10.8 22.3467 12.52 22.08 14.28 22.08C16.8133 22.08 18.8133 22.4933 20.28 23.32C21.7733 24.12 22.52 25.1733 22.52 26.48C22.52 27.1733 22.3467 27.7733 22 28.28C21.6533 28.7867 21.2533 29.1867 20.8 29.48C20.1333 29.08 19.2933 28.6933 18.28 28.32C17.2933 27.92 16.1733 27.72 14.92 27.72C12.68 27.72 10.8933 28.36 9.55999 29.64C8.25333 30.92 7.59999 32.6933 7.59999 34.96C7.59999 36.1867 7.77333 37.2533 8.11999 38.16C8.49333 39.04 8.98666 39.7733 9.59999 40.36C10.2133 40.92 10.92 41.3467 11.72 41.64C12.52 41.9067 13.3733 42.04 14.28 42.04C14.8667 42.04 15.3867 41.9867 15.84 41.88C16.2933 41.7733 16.64 41.6533 16.88 41.52V37.76H12.6C12.44 37.4667 12.28 37.08 12.12 36.6C11.9867 36.12 11.92 35.6133 11.92 35.08C11.92 34.12 12.1333 33.4267 12.56 33C13.0133 32.5733 13.5867 32.36 14.28 32.36H21.04C21.84 32.36 22.4533 32.5867 22.88 33.04C23.3333 33.4667 23.56 34.08 23.56 34.88V43.04Z" fill="#333333"/>
<path d="M28.1625 26.48C28.1625 25.3333 28.4958 24.4267 29.1625 23.76C29.8292 23.0933 30.7358 22.76 31.8825 22.76H45.0825C45.2692 23.0533 45.4292 23.44 45.5625 23.92C45.7225 24.4 45.8025 24.9067 45.8025 25.44C45.8025 26.4533 45.5758 27.1733 45.1225 27.6C44.6958 28.0267 44.1225 28.24 43.4025 28.24H34.9625V31.96H43.9625C44.1492 32.2533 44.3092 32.64 44.4425 33.12C44.6025 33.5733 44.6825 34.0667 44.6825 34.6C44.6825 35.6133 44.4692 36.3333 44.0425 36.76C43.6158 37.1867 43.0425 37.4 42.3225 37.4H34.9625V41.6H45.2425C45.4292 41.8933 45.5892 42.28 45.7225 42.76C45.8825 43.24 45.9625 43.7467 45.9625 44.28C45.9625 45.2933 45.7358 46.0267 45.2825 46.48C44.8558 46.9067 44.2825 47.12 43.5625 47.12H31.8825C30.7358 47.12 29.8292 46.7867 29.1625 46.12C28.4958 45.4533 28.1625 44.5467 28.1625 43.4V26.48Z" fill="#333333"/>
<path d="M50.0766 26.48C50.0766 25.3333 50.4099 24.4267 51.0766 23.76C51.7432 23.0933 52.6499 22.76 53.7966 22.76H66.9966C67.1832 23.0533 67.3432 23.44 67.4766 23.92C67.6366 24.4 67.7166 24.9067 67.7166 25.44C67.7166 26.4533 67.4899 27.1733 67.0366 27.6C66.6099 28.0267 66.0366 28.24 65.3166 28.24H56.8766V31.96H65.8766C66.0632 32.2533 66.2232 32.64 66.3566 33.12C66.5166 33.5733 66.5966 34.0667 66.5966 34.6C66.5966 35.6133 66.3832 36.3333 65.9566 36.76C65.5299 37.1867 64.9566 37.4 64.2366 37.4H56.8766V41.6H67.1566C67.3432 41.8933 67.5032 42.28 67.6366 42.76C67.7966 43.24 67.8766 43.7467 67.8766 44.28C67.8766 45.2933 67.6499 46.0267 67.1966 46.48C66.7699 46.9067 66.1966 47.12 65.4766 47.12H53.7966C52.6499 47.12 51.7432 46.7867 51.0766 46.12C50.4099 45.4533 50.0766 44.5467 50.0766 43.4V26.48Z" fill="#333333"/>
<path d="M78.8706 23.8C78.8706 24.4133 78.8573 25.3067 78.8306 26.48C78.804 27.6267 78.7506 28.88 78.6706 30.24C78.5906 31.5733 78.484 32.92 78.3506 34.28C78.2173 35.6133 78.0573 36.7733 77.8706 37.76C77.764 37.84 77.604 37.92 77.3906 38C77.1773 38.08 76.9506 38.1467 76.7106 38.2C76.4706 38.2533 76.2306 38.2933 75.9906 38.32C75.7506 38.3467 75.5373 38.36 75.3506 38.36C74.5773 38.36 73.924 38.24 73.3906 38C72.884 37.76 72.564 37.2933 72.4306 36.6C72.2973 35.9867 72.1773 35.0533 72.0706 33.8C71.9906 32.5467 71.9106 31.1867 71.8306 29.72C71.7506 28.2533 71.6839 26.8 71.6306 25.36C71.6039 23.92 71.5906 22.6933 71.5906 21.68C72.1239 21.3867 72.724 21.16 73.3906 21C74.084 20.8133 74.764 20.72 75.4306 20.72C76.524 20.72 77.3639 20.9733 77.9506 21.48C78.5639 21.9867 78.8706 22.76 78.8706 23.8ZM71.5106 43.96C71.5106 42.8667 71.844 41.9733 72.5106 41.28C73.204 40.56 74.1506 40.2 75.3506 40.2C76.5506 40.2 77.484 40.56 78.1506 41.28C78.844 41.9733 79.1906 42.8667 79.1906 43.96C79.1906 45.0533 78.844 45.96 78.1506 46.68C77.484 47.3733 76.5506 47.72 75.3506 47.72C74.1506 47.72 73.204 47.3733 72.5106 46.68C71.844 45.96 71.5106 45.0533 71.5106 43.96Z" fill="#333333"/>
<path d="M100.992 34C102.112 34 102.966 33.7467 103.552 33.24C104.166 32.7067 104.472 31.9067 104.472 30.84C104.472 29.8267 104.152 29.0533 103.512 28.52C102.899 27.96 101.992 27.68 100.792 27.68C100.366 27.68 100.006 27.6933 99.7125 27.72C99.4458 27.72 99.1658 27.7467 98.8725 27.8V34H100.992ZM98.9125 46.84C98.6192 46.92 98.1525 47 97.5125 47.08C96.8992 47.16 96.2858 47.2 95.6725 47.2C95.0592 47.2 94.5125 47.1467 94.0325 47.04C93.5792 46.96 93.1925 46.8 92.8725 46.56C92.5525 46.32 92.3125 45.9867 92.1525 45.56C91.9925 45.1333 91.9125 44.5733 91.9125 43.88V25.04C91.9125 24.48 92.0592 24.0533 92.3525 23.76C92.6725 23.44 93.0992 23.1867 93.6325 23C94.5392 22.68 95.5658 22.4533 96.7125 22.32C97.8858 22.16 99.0592 22.08 100.232 22.08C103.912 22.08 106.726 22.8667 108.672 24.44C110.619 26.0133 111.592 28.1467 111.592 30.84C111.592 32.1467 111.379 33.3333 110.952 34.4C110.552 35.44 109.939 36.3467 109.112 37.12C108.312 37.8667 107.286 38.4533 106.032 38.88C104.806 39.28 103.379 39.48 101.752 39.48H98.9125V46.84Z" fill="#333333"/>
<path d="M124.329 47.64C122.755 47.64 121.289 47.4267 119.929 47C118.595 46.5467 117.422 45.88 116.409 45C115.422 44.12 114.635 43.0133 114.049 41.68C113.489 40.3467 113.209 38.7867 113.209 37C113.209 35.24 113.489 33.7333 114.049 32.48C114.635 31.2 115.395 30.16 116.329 29.36C117.262 28.5333 118.329 27.9333 119.529 27.56C120.729 27.16 121.955 26.96 123.209 26.96C124.622 26.96 125.902 27.1733 127.049 27.6C128.222 28.0267 129.222 28.6133 130.049 29.36C130.902 30.1067 131.555 31 132.009 32.04C132.489 33.08 132.729 34.2133 132.729 35.44C132.729 36.3467 132.475 37.04 131.969 37.52C131.462 38 130.755 38.3067 129.849 38.44L119.969 39.92C120.262 40.8 120.862 41.4667 121.769 41.92C122.675 42.3467 123.715 42.56 124.889 42.56C125.982 42.56 127.009 42.4267 127.969 42.16C128.955 41.8667 129.755 41.5333 130.369 41.16C130.795 41.4267 131.155 41.8 131.449 42.28C131.742 42.76 131.889 43.2667 131.889 43.8C131.889 45 131.329 45.8933 130.209 46.48C129.355 46.9333 128.395 47.24 127.329 47.4C126.262 47.56 125.262 47.64 124.329 47.64ZM123.209 31.92C122.569 31.92 122.009 32.0267 121.529 32.24C121.075 32.4533 120.702 32.7333 120.409 33.08C120.115 33.4 119.889 33.7733 119.729 34.2C119.595 34.6 119.515 35.0133 119.489 35.44L126.329 34.32C126.249 33.7867 125.955 33.2533 125.449 32.72C124.942 32.1867 124.195 31.92 123.209 31.92Z" fill="#333333"/>
<path d="M156.122 37.28C156.122 38.9333 155.869 40.4133 155.362 41.72C154.855 43 154.135 44.08 153.202 44.96C152.295 45.84 151.202 46.5067 149.922 46.96C148.642 47.4133 147.215 47.64 145.642 47.64C144.069 47.64 142.642 47.4 141.362 46.92C140.082 46.44 138.975 45.76 138.042 44.88C137.135 43.9733 136.429 42.88 135.922 41.6C135.415 40.32 135.162 38.88 135.162 37.28C135.162 35.7067 135.415 34.28 135.922 33C136.429 31.72 137.135 30.64 138.042 29.76C138.975 28.8533 140.082 28.16 141.362 27.68C142.642 27.2 144.069 26.96 145.642 26.96C147.215 26.96 148.642 27.2133 149.922 27.72C151.202 28.2 152.295 28.8933 153.202 29.8C154.135 30.68 154.855 31.76 155.362 33.04C155.869 34.32 156.122 35.7333 156.122 37.28ZM142.122 37.28C142.122 38.9067 142.429 40.16 143.042 41.04C143.682 41.8933 144.562 42.32 145.682 42.32C146.802 42.32 147.655 41.88 148.242 41C148.855 40.12 149.162 38.88 149.162 37.28C149.162 35.68 148.855 34.4533 148.242 33.6C147.629 32.72 146.762 32.28 145.642 32.28C144.522 32.28 143.655 32.72 143.042 33.6C142.429 34.4533 142.122 35.68 142.122 37.28Z" fill="#333333"/>
<path d="M168.359 26.96C169.959 26.96 171.439 27.1733 172.799 27.6C174.186 28 175.373 28.6267 176.359 29.48C177.346 30.3333 178.119 31.4133 178.679 32.72C179.239 34 179.519 35.5333 179.519 37.32C179.519 39.0267 179.279 40.52 178.799 41.8C178.319 43.08 177.639 44.16 176.759 45.04C175.879 45.8933 174.813 46.5333 173.559 46.96C172.333 47.3867 170.959 47.6 169.439 47.6C168.293 47.6 167.226 47.4267 166.239 47.08V53.72C165.973 53.8 165.546 53.88 164.959 53.96C164.373 54.0667 163.773 54.12 163.159 54.12C162.573 54.12 162.039 54.08 161.559 54C161.106 53.92 160.719 53.76 160.399 53.52C160.079 53.28 159.839 52.9467 159.679 52.52C159.519 52.12 159.439 51.5867 159.439 50.92V31.72C159.439 31 159.586 30.4133 159.879 29.96C160.199 29.5067 160.626 29.0933 161.159 28.72C161.986 28.1867 163.013 27.76 164.239 27.44C165.466 27.12 166.839 26.96 168.359 26.96ZM168.439 42.24C171.186 42.24 172.559 40.6 172.559 37.32C172.559 35.6133 172.213 34.3467 171.519 33.52C170.853 32.6933 169.879 32.28 168.599 32.28C168.093 32.28 167.639 32.3467 167.239 32.48C166.839 32.5867 166.493 32.72 166.199 32.88V41.68C166.519 41.84 166.866 41.9733 167.239 42.08C167.613 42.1867 168.013 42.24 168.439 42.24Z" fill="#333333"/>
<path d="M189.758 46.96C189.464 47.0133 189.024 47.08 188.438 47.16C187.878 47.2667 187.304 47.32 186.718 47.32C186.131 47.32 185.598 47.28 185.118 47.2C184.664 47.12 184.278 46.96 183.958 46.72C183.638 46.48 183.384 46.16 183.198 45.76C183.038 45.3333 182.958 44.7867 182.958 44.12V20.92C183.251 20.8667 183.678 20.8 184.238 20.72C184.824 20.6133 185.411 20.56 185.998 20.56C186.584 20.56 187.104 20.6 187.558 20.68C188.038 20.76 188.438 20.92 188.758 21.16C189.078 21.4 189.318 21.7333 189.478 22.16C189.664 22.56 189.758 23.0933 189.758 23.76V46.96Z" fill="#333333"/>
<path d="M204.329 47.64C202.755 47.64 201.289 47.4267 199.929 47C198.595 46.5467 197.422 45.88 196.409 45C195.422 44.12 194.635 43.0133 194.049 41.68C193.489 40.3467 193.209 38.7867 193.209 37C193.209 35.24 193.489 33.7333 194.049 32.48C194.635 31.2 195.395 30.16 196.329 29.36C197.262 28.5333 198.329 27.9333 199.529 27.56C200.729 27.16 201.955 26.96 203.209 26.96C204.622 26.96 205.902 27.1733 207.049 27.6C208.222 28.0267 209.222 28.6133 210.049 29.36C210.902 30.1067 211.555 31 212.009 32.04C212.489 33.08 212.729 34.2133 212.729 35.44C212.729 36.3467 212.475 37.04 211.969 37.52C211.462 38 210.755 38.3067 209.849 38.44L199.969 39.92C200.262 40.8 200.862 41.4667 201.769 41.92C202.675 42.3467 203.715 42.56 204.889 42.56C205.982 42.56 207.009 42.4267 207.969 42.16C208.955 41.8667 209.755 41.5333 210.369 41.16C210.795 41.4267 211.155 41.8 211.449 42.28C211.742 42.76 211.889 43.2667 211.889 43.8C211.889 45 211.329 45.8933 210.209 46.48C209.355 46.9333 208.395 47.24 207.329 47.4C206.262 47.56 205.262 47.64 204.329 47.64ZM203.209 31.92C202.569 31.92 202.009 32.0267 201.529 32.24C201.075 32.4533 200.702 32.7333 200.409 33.08C200.115 33.4 199.889 33.7733 199.729 34.2C199.595 34.6 199.515 35.0133 199.489 35.44L206.329 34.32C206.249 33.7867 205.955 33.2533 205.449 32.72C204.942 32.1867 204.195 31.92 203.209 31.92Z" fill="#333333"/>
</svg>
