<svg width="221" height="58" viewBox="0 0 221 58" fill="none" xmlns="http://www.w3.org/2000/svg">
<rect x="173.453" width="46.6667" height="24" rx="12" fill="#0052CC"/>
<path d="M186.643 6.97061C186.717 7.08794 186.781 7.24794 186.835 7.45061C186.899 7.64261 186.931 7.84527 186.931 8.05861C186.931 8.47461 186.84 8.77327 186.659 8.95461C186.488 9.12527 186.253 9.21061 185.955 9.21061H182.595V11.0186H186.099C186.184 11.1359 186.253 11.2906 186.307 11.4826C186.371 11.6746 186.403 11.8773 186.403 12.0906C186.403 12.4959 186.312 12.7893 186.131 12.9706C185.96 13.1413 185.725 13.2266 185.427 13.2266H182.627V16.6026C182.509 16.6346 182.323 16.6666 182.067 16.6986C181.821 16.7306 181.576 16.7466 181.331 16.7466C181.085 16.7466 180.867 16.7253 180.675 16.6826C180.493 16.6506 180.339 16.5866 180.211 16.4906C180.083 16.3946 179.987 16.2613 179.923 16.0906C179.859 15.9199 179.827 15.6959 179.827 15.4186V8.45861C179.827 7.99994 179.96 7.63727 180.227 7.37061C180.493 7.10394 180.856 6.97061 181.315 6.97061H186.643Z" fill="white"/>
<path d="M191.111 13.5306V16.6026C190.993 16.6346 190.807 16.6666 190.551 16.6986C190.305 16.7306 190.06 16.7466 189.815 16.7466C189.569 16.7466 189.351 16.7253 189.159 16.6826C188.977 16.6506 188.823 16.5866 188.695 16.4906C188.577 16.3946 188.487 16.2613 188.423 16.0906C188.359 15.9199 188.327 15.6959 188.327 15.4186V7.88261C188.327 7.65861 188.385 7.48794 188.503 7.37061C188.631 7.24261 188.801 7.14127 189.015 7.06661C189.377 6.93861 189.799 6.84794 190.279 6.79461C190.759 6.73061 191.271 6.69861 191.815 6.69861C193.287 6.69861 194.396 7.00794 195.143 7.62661C195.889 8.24528 196.263 9.08261 196.263 10.1386C196.263 10.7999 196.092 11.3653 195.751 11.8346C195.409 12.3039 195.004 12.6666 194.535 12.9226C194.919 13.4453 195.297 13.9359 195.671 14.3946C196.044 14.8533 196.337 15.2693 196.551 15.6426C196.444 16.0159 196.247 16.3039 195.959 16.5066C195.681 16.6986 195.367 16.7946 195.015 16.7946C194.78 16.7946 194.577 16.7679 194.407 16.7146C194.236 16.6613 194.087 16.5866 193.959 16.4906C193.831 16.3946 193.713 16.2773 193.607 16.1386C193.5 15.9999 193.399 15.8506 193.303 15.6906L191.959 13.5306H191.111ZM192.119 11.4026C192.524 11.4026 192.844 11.3013 193.079 11.0986C193.313 10.8853 193.431 10.5759 193.431 10.1706C193.431 9.76527 193.297 9.46127 193.031 9.25861C192.775 9.04528 192.364 8.93861 191.799 8.93861C191.639 8.93861 191.511 8.94394 191.415 8.95461C191.319 8.96527 191.212 8.98127 191.095 9.00261V11.4026H192.119Z" fill="white"/>
<path d="M198.077 8.45861C198.077 7.99994 198.21 7.63727 198.477 7.37061C198.743 7.10394 199.106 6.97061 199.565 6.97061H204.845C204.919 7.08794 204.983 7.24261 205.037 7.43461C205.101 7.62661 205.133 7.82928 205.133 8.04261C205.133 8.44794 205.042 8.73594 204.861 8.90661C204.69 9.07728 204.461 9.16261 204.173 9.16261H200.797V10.6506H204.397C204.471 10.7679 204.535 10.9226 204.589 11.1146C204.653 11.2959 204.685 11.4933 204.685 11.7066C204.685 12.1119 204.599 12.3999 204.429 12.5706C204.258 12.7413 204.029 12.8266 203.741 12.8266H200.797V14.5066H204.909C204.983 14.6239 205.047 14.7786 205.101 14.9706C205.165 15.1626 205.197 15.3653 205.197 15.5786C205.197 15.9839 205.106 16.2773 204.925 16.4586C204.754 16.6293 204.525 16.7146 204.237 16.7146H199.565C199.106 16.7146 198.743 16.5813 198.477 16.3146C198.21 16.0479 198.077 15.6853 198.077 15.2266V8.45861Z" fill="white"/>
<path d="M206.842 8.45861C206.842 7.99994 206.976 7.63727 207.242 7.37061C207.509 7.10394 207.872 6.97061 208.33 6.97061H213.61C213.685 7.08794 213.749 7.24261 213.802 7.43461C213.866 7.62661 213.898 7.82928 213.898 8.04261C213.898 8.44794 213.808 8.73594 213.626 8.90661C213.456 9.07728 213.226 9.16261 212.938 9.16261H209.562V10.6506H213.162C213.237 10.7679 213.301 10.9226 213.354 11.1146C213.418 11.2959 213.45 11.4933 213.45 11.7066C213.45 12.1119 213.365 12.3999 213.194 12.5706C213.024 12.7413 212.794 12.8266 212.506 12.8266H209.562V14.5066H213.674C213.749 14.6239 213.813 14.7786 213.866 14.9706C213.93 15.1626 213.962 15.3653 213.962 15.5786C213.962 15.9839 213.872 16.2773 213.69 16.4586C213.52 16.6293 213.29 16.7146 213.002 16.7146H208.33C207.872 16.7146 207.509 16.5813 207.242 16.3146C206.976 16.0479 206.842 15.6853 206.842 15.2266V8.45861Z" fill="white"/>
<path d="M28.984 51.8631C28.984 52.8976 28.8004 53.6652 28.4333 54.1658C28.0662 54.6664 27.4822 55.1503 26.6813 55.6175C26.2141 55.8845 25.63 56.1515 24.9292 56.4184C24.2284 56.652 23.4608 56.8523 22.6265 57.0191C21.7922 57.2194 20.9078 57.3696 19.9734 57.4697C19.0724 57.5698 18.1713 57.6198 17.2702 57.6198C14.8674 57.6198 12.6148 57.3028 10.5123 56.6687C8.40986 56.0013 6.57437 55.0168 5.00587 53.7153C3.47073 52.3804 2.25264 50.7284 1.35158 48.7595C0.450528 46.7905 0 44.5045 0 41.9014C0 39.1649 0.483901 36.7788 1.4517 34.743C2.45288 32.7073 3.7544 31.022 5.35628 29.6871C6.99153 28.3188 8.8437 27.301 10.9128 26.6335C13.0153 25.9661 15.1678 25.6324 17.3704 25.6324C20.5407 25.6324 23.0437 26.1496 24.8792 27.1842C26.748 28.1853 27.6824 29.5036 27.6824 31.1388C27.6824 32.0065 27.4655 32.7574 27.0317 33.3914C26.5978 34.0255 26.0973 34.5261 25.5299 34.8932C24.6956 34.3926 23.6444 33.9087 22.3762 33.4415C21.1414 32.9409 19.7398 32.6906 18.1713 32.6906C15.368 32.6906 13.1321 33.4916 11.4634 35.0934C9.82819 36.6953 9.01056 38.9146 9.01056 41.7512C9.01056 43.2864 9.22748 44.6213 9.66133 45.7559C10.1285 46.8572 10.7459 47.775 11.5135 48.5092C12.2811 49.21 13.1654 49.7439 14.1666 50.111C15.1678 50.4448 16.2357 50.6116 17.3704 50.6116C18.1046 50.6116 18.7553 50.5449 19.3227 50.4114C19.89 50.2779 20.3238 50.1277 20.6242 49.9609V45.2554H15.2679C15.0677 44.8883 14.8674 44.4044 14.6672 43.8037C14.5003 43.2029 14.4169 42.5689 14.4169 41.9014C14.4169 40.7 14.6839 39.8323 15.2178 39.2984C15.7852 38.7644 16.5027 38.4974 17.3704 38.4974H25.8303C26.8315 38.4974 27.599 38.7811 28.133 39.3484C28.7003 39.8824 28.984 40.65 28.984 41.6511V51.8631Z" fill="#333333"/>
<path d="M34.7438 31.1388C34.7438 29.7038 35.161 28.5691 35.9953 27.7348C36.8296 26.9005 37.9643 26.4834 39.3993 26.4834H55.9187C56.1523 26.8504 56.3525 27.3343 56.5194 27.9351C56.7196 28.5358 56.8197 29.1698 56.8197 29.8373C56.8197 31.1054 56.5361 32.0065 55.9687 32.5405C55.4348 33.0744 54.7173 33.3414 53.8162 33.3414H43.2538V37.9968H54.517C54.7506 38.3639 54.9509 38.8478 55.1177 39.4485C55.318 40.0159 55.4181 40.6333 55.4181 41.3007C55.4181 42.5689 55.1511 43.4699 54.6171 44.0039C54.0832 44.5378 53.3657 44.8048 52.4646 44.8048H43.2538V50.061H56.1189C56.3525 50.4281 56.5527 50.912 56.7196 51.5127C56.9198 52.1134 57.02 52.7475 57.02 53.4149C57.02 54.6831 56.7363 55.6008 56.169 56.1681C55.635 56.7021 54.9175 56.9691 54.0164 56.9691H39.3993C37.9643 56.9691 36.8296 56.5519 35.9953 55.7176C35.161 54.8833 34.7438 53.7486 34.7438 52.3136V31.1388Z" fill="#333333"/>
<path d="M62.1686 31.1388C62.1686 29.7038 62.5857 28.5691 63.42 27.7348C64.2543 26.9005 65.389 26.4834 66.824 26.4834H83.3434C83.577 26.8504 83.7772 27.3343 83.9441 27.9351C84.1443 28.5358 84.2445 29.1698 84.2445 29.8373C84.2445 31.1054 83.9608 32.0065 83.3934 32.5405C82.8595 33.0744 82.142 33.3414 81.2409 33.3414H70.6785V37.9968H81.9417C82.1754 38.3639 82.3756 38.8478 82.5425 39.4485C82.7427 40.0159 82.8428 40.6333 82.8428 41.3007C82.8428 42.5689 82.5758 43.4699 82.0419 44.0039C81.5079 44.5378 80.7904 44.8048 79.8893 44.8048H70.6785V50.061H83.5436C83.7772 50.4281 83.9775 50.912 84.1443 51.5127C84.3446 52.1134 84.4447 52.7475 84.4447 53.4149C84.4447 54.6831 84.161 55.6008 83.5937 56.1681C83.0597 56.7021 82.3422 56.9691 81.4412 56.9691H66.824C65.389 56.9691 64.2543 56.5519 63.42 55.7176C62.5857 54.8833 62.1686 53.7486 62.1686 52.3136V31.1388Z" fill="#333333"/>
<path d="M98.2034 27.7849C98.2034 28.5524 98.1867 29.6704 98.1533 31.1388C98.12 32.5738 98.0532 34.1423 97.9531 35.8443C97.853 37.5129 97.7195 39.1983 97.5526 40.9002C97.3858 42.5689 97.1855 44.0206 96.9519 45.2554C96.8184 45.3555 96.6182 45.4556 96.3512 45.5557C96.0842 45.6558 95.8006 45.7393 95.5002 45.806C95.1999 45.8727 94.8995 45.9228 94.5992 45.9562C94.2988 45.9895 94.0318 46.0062 93.7982 46.0062C92.8304 46.0062 92.0128 45.8561 91.3453 45.5557C90.7113 45.2554 90.3108 44.6713 90.1439 43.8037C89.9771 43.0361 89.8269 41.8681 89.6934 40.2995C89.5933 38.731 89.4932 37.029 89.3931 35.1936C89.2929 33.3581 89.2095 31.5393 89.1428 29.7372C89.1094 27.9351 89.0927 26.3999 89.0927 25.1318C89.7602 24.7647 90.511 24.481 91.3453 24.2808C92.213 24.0472 93.064 23.9304 93.8983 23.9304C95.2666 23.9304 96.3178 24.2474 97.052 24.8815C97.8196 25.5155 98.2034 26.4834 98.2034 27.7849ZM88.9926 53.0144C88.9926 51.6462 89.4097 50.5282 90.2441 49.6605C91.1117 48.7595 92.2965 48.3089 93.7982 48.3089C95.3 48.3089 96.468 48.7595 97.3023 49.6605C98.17 50.5282 98.6039 51.6462 98.6039 53.0144C98.6039 54.3827 98.17 55.5174 97.3023 56.4184C96.468 57.2861 95.3 57.72 93.7982 57.72C92.2965 57.72 91.1117 57.2861 90.2441 56.4184C89.4097 55.5174 88.9926 54.3827 88.9926 53.0144Z" fill="#333333"/>
<path d="M135.499 49.3602C135.066 49.7273 134.498 50.0276 133.797 50.2612C133.13 50.4615 132.346 50.5616 131.445 50.5616C130.243 50.5616 129.242 50.4114 128.441 50.111C127.674 49.8107 127.173 49.2934 126.939 48.5592C126.005 45.6225 125.237 43.253 124.637 41.4509C124.036 39.6154 123.569 38.0135 123.235 36.6453H122.985C122.885 38.6142 122.801 40.4163 122.734 42.0516C122.701 43.6535 122.668 45.222 122.634 46.7571C122.634 48.2922 122.601 49.8441 122.534 51.4126C122.501 52.9811 122.434 54.7164 122.334 56.6187C121.9 56.7855 121.333 56.919 120.632 57.0191C119.931 57.1526 119.23 57.2194 118.53 57.2194C117.061 57.2194 115.91 56.9858 115.076 56.5186C114.275 56.0513 113.874 55.2003 113.874 53.9656L115.326 28.4356C115.593 28.0018 116.177 27.5346 117.078 27.034C117.979 26.5334 119.247 26.2831 120.882 26.2831C122.651 26.2831 124.036 26.5668 125.037 27.1341C126.038 27.6681 126.773 28.5524 127.24 29.7872C127.54 30.5882 127.857 31.5059 128.191 32.5405C128.558 33.575 128.908 34.6429 129.242 35.7442C129.609 36.8455 129.96 37.9468 130.293 39.0481C130.627 40.116 130.927 41.0838 131.194 41.9515H131.445C132.246 39.1482 133.047 36.445 133.848 33.842C134.648 31.2056 135.383 29.003 136.05 27.2342C136.551 26.9673 137.185 26.7503 137.952 26.5835C138.753 26.3832 139.638 26.2831 140.605 26.2831C142.241 26.2831 143.576 26.5334 144.61 27.034C145.645 27.5012 146.245 28.1853 146.412 29.0864C146.546 29.7539 146.679 30.7884 146.813 32.19C146.98 33.5583 147.146 35.1101 147.313 36.8455C147.48 38.5809 147.647 40.4163 147.814 42.352C147.981 44.2876 148.131 46.1564 148.264 47.9585C148.431 49.7273 148.565 51.3625 148.665 52.8643C148.765 54.3327 148.832 55.4673 148.865 56.2683C148.298 56.602 147.697 56.8356 147.063 56.9691C146.462 57.1359 145.678 57.2194 144.71 57.2194C143.442 57.2194 142.374 57.0025 141.506 56.5686C140.639 56.1348 140.172 55.2838 140.105 54.0156C139.905 50.378 139.771 47.1075 139.704 44.2041C139.671 41.3007 139.604 38.8645 139.504 36.8956H139.254C138.92 38.1971 138.436 39.8323 137.802 41.8013C137.168 43.7703 136.401 46.2899 135.499 49.3602Z" fill="#333333"/>
<path d="M154.415 31.1388C154.415 29.7038 154.833 28.5691 155.667 27.7348C156.501 26.9005 157.636 26.4834 159.071 26.4834H175.59C175.824 26.8504 176.024 27.3343 176.191 27.9351C176.391 28.5358 176.491 29.1698 176.491 29.8373C176.491 31.1054 176.208 32.0065 175.64 32.5405C175.106 33.0744 174.389 33.3414 173.488 33.3414H162.925V37.9968H174.189C174.422 38.3639 174.622 38.8478 174.789 39.4485C174.989 40.0159 175.09 40.6333 175.09 41.3007C175.09 42.5689 174.823 43.4699 174.289 44.0039C173.755 44.5378 173.037 44.8048 172.136 44.8048H162.925V50.061H175.79C176.024 50.4281 176.224 50.912 176.391 51.5127C176.591 52.1134 176.691 52.7475 176.691 53.4149C176.691 54.6831 176.408 55.6008 175.84 56.1681C175.307 56.7021 174.589 56.9691 173.688 56.9691H159.071C157.636 56.9691 156.501 56.5519 155.667 55.7176C154.833 54.8833 154.415 53.7486 154.415 52.3136V31.1388Z" fill="#333333"/>
</svg>
