<svg width="1200" height="1600" viewBox="0 0 1200 1600" fill="none" xmlns="http://www.w3.org/2000/svg">
<path d="M467 651.365C369.5 592.365 324.5 560.865 243 494.865" stroke="#FBD2C5" stroke-width="74" stroke-linecap="round" stroke-linejoin="bevel"/>
<path d="M740 610.365C816 515.365 879 419.865 933.5 318.865" stroke="#FBD2C5" stroke-width="74" stroke-linecap="round" stroke-linejoin="bevel"/>
<path d="M685.022 613.226C665.584 640.742 672.135 678.801 699.651 698.238L703.818 701.578C731.334 721.015 769.4 714.458 788.837 686.942L979.814 393.095L876 319.365L685.022 613.226Z" fill="black"/>
<path d="M528.796 771.729C555.837 791.821 594.042 786.186 614.135 759.145L617.574 755.06C637.667 728.019 632.026 689.807 604.985 669.714L315.809 471.734L239.607 573.747L528.796 771.729Z" fill="black"/>
<path d="M884 913.37C893.6 891.77 896.832 879.87 893.5 869.37C837.9 694.17 763 651.37 732.5 651.87L506 715.87L334 1000.37C334 1000.37 461 994.366 499 1042.37L668.5 997.87C701.5 1016.37 730.5 1057.37 784 1049.37C837.5 1041.37 872 940.37 884 913.37Z" fill="black"/>
<path d="M684 851.865L473 1403.87" stroke="#EBBAAA" stroke-width="54" stroke-linecap="round" stroke-linejoin="bevel"/>
<path d="M522 896.865L645 1403.87" stroke="#EBBAAA" stroke-width="54" stroke-linecap="round" stroke-linejoin="bevel"/>
<path d="M586.432 1473.97C589.996 1470.87 591.692 1466.81 591.398 1464.9C591.105 1462.98 477.117 1398.59 477.117 1398.59C458.163 1387.98 422.319 1360.19 414.703 1369.5C388.743 1401.25 413.11 1412.61 428.688 1419.87C450.108 1429.86 455.294 1425.37 468.47 1433.67C475.34 1438 483.76 1447.91 532.929 1470.83C572.363 1489.21 578.453 1480.92 586.432 1473.97Z" fill="#DEDEDE"/>
<path d="M491.377 1358.81C471.681 1349.17 465.493 1339.36 463.65 1322.97L464.747 1320.62C456.012 1316.55 451.938 1328.4 445.14 1337.26C436.076 1349.07 434.486 1346.04 425.861 1356.91C419.889 1364.44 413.555 1376.96 415.135 1386.29C417.589 1400.77 427.575 1404.11 443.648 1411.6C452.902 1415.92 469.584 1420.83 481.954 1431.18C499.224 1445.63 552.255 1473.68 567.868 1475.8C594.473 1479.42 597.101 1455.06 591.09 1442.52C580.541 1420.51 539.309 1406.29 536.069 1391.48C533.419 1379.36 541.33 1355.08 538.888 1347.55C534.508 1334.06 530.715 1340.26 528.036 1350.12C524.719 1362.32 515.997 1370.86 491.377 1358.81Z" fill="#252424"/>
<mask id="mask0" mask-type="alpha" maskUnits="userSpaceOnUse" x="413" y="1323" width="180" height="157">
<path d="M490.958 1360.01C471.277 1350.36 470.634 1334.54 472.772 1327.83L462.55 1323.07C460.895 1324.07 456.143 1326.01 449.188 1335.21C439.914 1347.48 433.91 1347.64 425.09 1358.94C418.983 1366.76 412.446 1379.71 413.91 1389.28C416.184 1404.15 426.183 1407.45 442.248 1414.93C451.498 1419.25 468.21 1424.07 480.513 1434.55C497.689 1449.17 550.651 1477.31 566.325 1479.28C593.035 1482.64 596.003 1457.56 590.126 1444.75C579.81 1422.26 538.435 1405.79 535.374 1390.6C532.87 1378.17 540.64 1357.74 538.285 1350.03C534.061 1336.21 530.77 1340.42 527.944 1350.58C524.444 1363.17 515.558 1372.07 490.958 1360.01Z" fill="#726E7F"/>
</mask>
<g mask="url(#mask0)">
<path d="M532.879 1355.25C534.978 1347.7 534.766 1342.31 534.397 1340.55L538.613 1336.59L549.81 1341.81C552.885 1348.78 556.427 1363.98 545.994 1369.07C532.954 1375.44 530.255 1364.7 532.879 1355.25Z" fill="#D9D8DD"/>
</g>
<mask id="mask1" mask-type="alpha" maskUnits="userSpaceOnUse" x="413" y="1322" width="181" height="158">
<path d="M490.853 1360.01C471.172 1350.37 470.529 1334.54 472.667 1327.83L460.392 1322.11C458.738 1323.12 456.039 1326.01 449.083 1335.21C439.809 1347.48 433.805 1347.65 424.985 1358.94C418.879 1366.76 412.341 1379.71 413.805 1389.28C416.079 1404.15 426.078 1407.45 442.143 1414.94C451.393 1419.25 468.105 1424.07 480.408 1434.55C497.584 1449.17 550.546 1477.31 566.22 1479.29C592.93 1482.65 597.516 1456.52 591.401 1443.19C581.085 1420.7 539.505 1405.79 536.444 1390.6C533.941 1378.17 539.141 1353.78 536.786 1346.07C532.561 1332.25 530.666 1340.42 527.84 1350.59C524.34 1363.18 515.454 1372.07 490.853 1360.01Z" fill="#252424"/>
</mask>
<g mask="url(#mask1)">
<path d="M570.921 1454.17C579.878 1458.34 584.689 1453.87 585.975 1451.11C582.615 1460.01 573.846 1478.4 565.644 1480.74C555.392 1483.67 502.458 1454.85 496.517 1448.52C490.576 1442.2 505.659 1431.45 510.172 1438.3C514.686 1445.14 535.553 1452.5 546.064 1450.29C556.576 1448.07 559.724 1448.95 570.921 1454.17Z" fill="#DEDEDE"/>
<path d="M585.536 1447.67C588.649 1442.01 591.547 1441.98 592.608 1442.67L608.219 1451.13L592.657 1479.43L566.765 1481.59C562.947 1479.61 555.989 1474.19 558.712 1468.35C562.116 1461.05 569.418 1464.45 575.841 1462.11C582.265 1459.77 581.646 1454.74 585.536 1447.67Z" fill="#DEDEDE"/>
</g>
<path d="M517.306 1386.76L541.302 1388.95L530.765 1407.74L557.016 1409.9L552.742 1429.24L575.746 1426.93" stroke="#2A2A2A" stroke-width="6.44516" stroke-linecap="round" stroke-linejoin="round"/>
<path d="M776 1468C777.919 1463.68 777.741 1459.29 776.666 1457.67C775.591 1456.06 645.074 1445.86 645.074 1445.86C623.411 1444.25 579.181 1434.2 576.213 1445.86C566.096 1485.6 592.98 1485.6 610.167 1485.6C633.8 1485.6 636.604 1479.34 652.056 1481.31C660.112 1482.33 671.928 1487.75 726.175 1487.75C769.683 1487.75 771.703 1477.67 776 1468Z" fill="#DEDEDE"/>
<path d="M641.19 1403.77C619.266 1403.36 609.513 1397.08 600.919 1383V1380.41C591.282 1380.41 592.595 1392.87 590.177 1403.77C586.953 1418.31 584.231 1416.23 581.007 1429.73C578.775 1439.08 578.321 1453.1 583.694 1460.89C592.039 1472.98 602.501 1471.79 620.234 1471.79C630.444 1471.79 647.639 1469.19 663.222 1473.35C684.979 1479.15 744.899 1482.17 759.947 1477.5C785.587 1469.54 777.679 1446.35 766.933 1437.52C748.073 1422.03 704.693 1426.56 695.499 1414.5C687.977 1404.64 684.891 1379.29 679.499 1373.5C669.827 1363.12 669.011 1370.35 670.746 1380.41C672.894 1392.87 668.595 1404.29 641.19 1403.77Z" fill="#252424"/>
<mask id="mask2" mask-type="alpha" maskUnits="userSpaceOnUse" x="579" y="1370" width="199" height="114">
<path d="M641.318 1405.04C619.404 1404.61 612.135 1390.54 611.24 1383.55H599.962C598.888 1385.17 595.397 1388.93 592.98 1400.2C589.758 1415.24 584.386 1417.93 581.163 1431.89C578.932 1441.56 578.479 1456.06 583.849 1464.12C592.19 1476.63 602.647 1475.4 620.372 1475.4C630.577 1475.4 647.763 1472.71 663.339 1477.01C685.086 1483.01 744.978 1486.14 760.018 1481.31C785.646 1473.07 777.741 1449.08 767.001 1439.95C748.15 1423.92 703.689 1426.47 694.499 1414C686.98 1403.8 685.388 1381.99 679.999 1376C670.331 1365.26 669.126 1370.46 670.859 1380.87C673.006 1393.76 668.71 1405.58 641.318 1405.04Z" fill="#726E7F"/>
</mask>
<g mask="url(#mask2)">
<path d="M677.306 1383.02C676.017 1375.28 673.546 1370.49 672.472 1369.05L674.619 1363.68H686.974C692.703 1368.7 702.335 1380.98 695.03 1390C685.899 1401.28 678.917 1392.69 677.306 1383.02Z" fill="#D9D8DD"/>
</g>
<mask id="mask3" mask-type="alpha" maskUnits="userSpaceOnUse" x="579" y="1368" width="199" height="116">
<path d="M641.224 1405.09C619.311 1404.66 612.042 1390.58 611.147 1383.6H597.603C596.529 1385.21 595.304 1388.97 592.887 1400.25C589.664 1415.29 584.293 1417.98 581.07 1431.94C578.839 1441.61 578.385 1456.11 583.755 1464.17C592.097 1476.68 602.554 1475.45 620.278 1475.45C630.483 1475.45 647.67 1472.76 663.246 1477.06C684.992 1483.06 744.884 1486.19 759.924 1481.35C785.553 1473.12 778.674 1447.5 767.499 1438C748.649 1421.97 704.658 1426.02 695.468 1413.55C687.95 1403.34 682.358 1379.04 676.968 1373.05C667.301 1362.31 669.032 1370.51 670.766 1380.92C672.913 1393.81 668.616 1405.62 641.224 1405.09Z" fill="#252424"/>
</mask>
<g mask="url(#mask3)">
<path d="M753.573 1456.6C763.455 1456.6 765.926 1450.51 765.926 1447.47C766.642 1456.96 766.463 1477.33 760.018 1482.92C751.962 1489.9 691.807 1486.14 683.75 1482.92C675.694 1479.7 684.824 1463.58 691.807 1467.88C698.789 1472.18 720.81 1470.03 729.403 1463.58C737.997 1457.14 741.22 1456.6 753.573 1456.6Z" fill="#DEDEDE"/>
<path d="M764.075 1444.54C764.504 1438.09 767.118 1436.84 768.372 1437.02L786.096 1438.09L783.947 1470.32L761.389 1483.21C757.092 1483.03 748.499 1481.06 748.499 1474.61C748.499 1466.56 756.555 1466.56 761.389 1461.72C766.223 1456.89 763.538 1452.59 764.075 1444.54Z" fill="#DEDEDE"/>
</g>
<path d="M676.499 1418.15L699.174 1410L697.563 1431.48L722.27 1422.35L726.566 1441.69L746.439 1429.87" stroke="#2A2A2A" stroke-width="6.44516" stroke-linecap="round" stroke-linejoin="round"/>
<path d="M598.5 903.365L722 915.865L537 1372.5C537 1372.5 506.5 1369.5 489 1364C471.5 1358.5 443.5 1339.5 443.5 1339.5L598.5 903.365Z" fill="black"/>
<path d="M453.55 900.732L597.5 927.865L687.5 1395.37C687.5 1395.37 674.5 1404.67 643.5 1409.37C612.5 1414.06 589.5 1409.37 589.5 1409.37L453.55 900.732Z" fill="#252424"/>
<path d="M618.5 989C598.1 955.8 531.667 928.167 501 918.5H628.5C633.667 955.833 638.9 1022.2 618.5 989Z" fill="black"/>
<path d="M475.811 639.277C476.551 606.739 500.985 580.467 531.498 579.405L602.734 576.92C608.538 576.725 614.352 577.047 620.101 577.895L689.637 588.146C720.314 592.668 732.088 622.721 728.998 655.571C728.998 655.571 741 740.578 741 795.636C741 850.694 722.444 914.821 722.444 914.821C722 916.865 721.174 917.949 719.565 917.861L461.606 903.088C460.061 903.001 458.882 901.568 459.01 899.921L472.666 777.488L475.811 639.277Z" fill="#F3F6F9"/>
<path d="M683 674.865C639 655.265 637.333 617.698 642 601.365L707 546.365C715.833 551.865 745.8 578.765 795 642.365C842.54 703.819 880.526 819.707 895.064 875.271C895.924 877.962 896.37 879.795 896.5 880.865C896.05 879.077 895.571 877.211 895.064 875.271C891.498 864.12 880.812 838.232 856 790.865C817.5 717.365 738 699.365 683 674.865Z" fill="#252424"/>
<path d="M484.216 888.83L725.5 910.138L719.719 938.572L481.671 917.264L484.216 888.83Z" fill="black"/>
<path d="M544 657.865L592 611.365L544 566.865L473 588.365C473 588.365 437 624.865 432 700.365C427 775.865 292 977.865 325.5 997.365C359 1016.87 479 959.365 501.5 921.365C524 883.365 544 657.865 544 657.865Z" fill="#252424"/>
<path fill-rule="evenodd" clip-rule="evenodd" d="M592 611.5L544 658C544 658 525.215 869.8 503.575 917.459C501.406 918.411 499.524 918.627 498 918C481 911 469 651 469 651L529 644.5L515 606L560.998 582.759L592 611.5Z" fill="black"/>
<rect x="574" y="536.865" width="76" height="115" rx="37.911" fill="#EBBAAA"/>
<path d="M732.5 508C764.256 508 790 482.256 790 450.5C790 418.744 764.256 393 732.5 393C700.744 393 675 418.744 675 450.5C675 482.256 700.744 508 732.5 508Z" fill="#EBBAAA"/>
<path d="M491.5 508C459.744 508 434 482.256 434 450.5C434 418.744 459.744 393 491.5 393C523.256 393 549 418.744 549 450.5C549 482.256 523.256 508 491.5 508Z" fill="#EBBAAA"/>
<path d="M467.933 366.447C458.63 281.892 524.838 208 609.903 208C695.037 208 761.267 282.006 751.854 366.618L736.624 503.519C729.437 568.126 674.825 617 609.819 617C544.755 617 490.113 568.04 482.998 503.366L467.933 366.447Z" fill="#F6DDD6"/>
<path d="M457.634 390.653C456.822 384.582 461.222 379.064 467.316 378.5C473.639 377.916 479.091 382.895 479.075 389.243L472.243 418.855C472.239 420.653 471.87 422.145 470.088 422.31C468.226 422.482 467.567 421.159 467.316 419.314L457.634 390.653Z" fill="#393939"/>
<path d="M760.694 307.586C761.342 301.495 756.794 296.098 750.687 295.699C744.35 295.286 739.035 300.411 739.223 306.757L743.373 414.26C743.426 416.057 743.834 417.512 745.62 417.628C747.486 417.75 748.109 416.383 748.31 414.532L760.694 307.586Z" fill="#393939"/>
<path d="M673.613 437V450" stroke="black" stroke-width="24" stroke-linecap="round"/>
<path d="M548.613 437V450" stroke="black" stroke-width="24" stroke-linecap="round"/>
<path d="M653.009 425.771L708.466 421.719" stroke="#393939" stroke-width="24" stroke-linecap="round"/>
<path d="M567.475 425.639L512 421.85" stroke="#393939" stroke-width="24" stroke-linecap="round"/>
<path d="M611.849 455C601.93 472.5 598.915 495 617.849 495" stroke="#EBBAAA" stroke-width="17"/>
<path d="M748 407C748.5 403 750.5 398 753.5 397C756.5 396 758.316 252.743 715.5 218.296C672.684 183.848 570.207 169.869 499.172 218.296C428.137 266.722 485.5 366.5 461.576 393.873C452.855 403.851 469.655 407.508 469.006 413L472.767 382.889C472.767 382.889 493.014 345.024 508.284 298.018C520.448 260.575 596.835 283.041 611.918 283.041C627.001 283.041 696.162 261.548 708.254 298.018C724.31 346.445 732.567 363.688 741 377.5C743.109 396.804 747.059 414.53 748 407Z" fill="#393939"/>
<path d="M487.152 204.488C456 236.5 450.45 325.858 465.735 366.572C465.735 389.344 398.691 384.879 387.652 419.625C378.663 447.915 464.111 437.039 555.58 419.625C647.05 402.211 865.185 329.777 831.497 319.242C810.08 312.544 791.34 314.33 766.022 325.858C766.022 275.848 701 167.5 652 167.5C618.396 167.5 607.917 176.963 586.5 185C565.083 193.037 534.247 156.095 487.152 204.488Z" fill="black"/>
<path fill-rule="evenodd" clip-rule="evenodd" d="M776.669 276.164C773.817 271.29 768.121 270.069 758.375 275.906C739.222 287.375 667.499 296.816 603.521 305.237C546.924 312.687 496.388 319.339 493.669 325.892C487.875 339.852 498.571 364.17 504.364 367.322C510.157 370.474 594.382 361.828 630.033 357.865C665.684 353.902 735.5 334.898 766.397 325.892C773.814 318.129 780.803 295.214 778.581 281.896C777.981 280.004 777.343 278.092 776.669 276.164Z" fill="white"/>
<path d="M334 645.5L419 526L467 557L382.5 681.5L334 645.5Z" fill="white"/>
<path d="M653.5 537H568.5C576.667 544.167 596.4 558.5 610 558.5C623.6 558.5 644.667 544.167 653.5 537Z" fill="white"/>
<rect x="610.949" y="899.687" width="24" height="35" transform="rotate(3.70535 610.949 899.687)" stroke="#252424" stroke-width="10" stroke-linejoin="round"/>
<circle cx="681.5" cy="500.5" r="25.5" fill="#FBD2C5"/>
<circle cx="543.5" cy="500.5" r="25.5" fill="#FBD2C5"/>
</svg>
