<svg width="1200" height="1600" viewBox="0 0 1200 1600" fill="none" xmlns="http://www.w3.org/2000/svg">
<path d="M661.139 1118.72C673.434 1178.15 677.532 1351.79 661.139 1444" stroke="#EBBAAA" stroke-width="75.8201" stroke-linecap="round" stroke-linejoin="bevel"/>
<path d="M504.798 1117.7C485.933 1222.2 515.646 1380.47 529.99 1448.1" stroke="#EBBAAA" stroke-width="75.8201" stroke-linecap="round" stroke-linejoin="bevel"/>
<path d="M429.368 1051.74H586.343L573.024 1252.4L410.113 1241.13L429.368 1051.74Z" fill="#27292D"/>
<ellipse cx="583.362" cy="1071.87" rx="116.371" ry="55.1229" fill="#27292D"/>
<path d="M578.146 1051.74H730.506L753.352 1232.45L607.35 1246.79L578.146 1051.74Z" fill="#27292D"/>
<path d="M671.385 1103.83L668.311 1078.22L712.369 1073.1L715.442 1097.69L671.385 1103.83Z" fill="#E7EEF8"/>
<path d="M376.4 1444.41C390.558 1432.08 443.725 1413.79 468.776 1404.18L535.745 1371.69C535.745 1371.69 549.367 1414.74 549.49 1428.82L549.703 1453.22C549.798 1464.11 541.051 1473 530.167 1473.1L376.662 1474.44C369.776 1463.86 364.484 1454.78 376.4 1444.41Z" fill="#C4C4C4"/>
<path d="M376.4 1444.41C390.558 1432.08 443.725 1413.79 468.776 1404.18L535.745 1371.69C535.745 1371.69 549.367 1414.74 549.49 1428.82L549.703 1453.22C549.798 1464.11 541.051 1473 530.167 1473.1L376.662 1474.44C369.776 1463.86 364.484 1454.78 376.4 1444.41Z" fill="#EBBAAA"/>
<path d="M398.897 1453.6L417.213 1450.62" stroke="#DCB1A3" stroke-width="28.1549" stroke-linecap="round"/>
<g filter="url(#filter0_i)">
<path d="M363.37 1475.66C363.325 1470.56 367.417 1466.4 372.51 1466.35L572.941 1464.61L574.554 1488.16L363.495 1490L363.37 1475.66Z" fill="#D2D7DC"/>
</g>
<path fill-rule="evenodd" clip-rule="evenodd" d="M404.264 1423.87C419.732 1416.69 432.393 1422.8 437.635 1439.43C439.091 1444.06 442.295 1452.08 442.894 1456.17C443.504 1460.33 443.845 1464.15 444.036 1466.9C444.132 1468.3 444.192 1469.45 444.229 1470.27C444.247 1470.69 444.259 1471.02 444.268 1471.27C444.272 1471.39 444.275 1471.49 444.277 1471.56L444.28 1471.66L444.281 1471.69L444.281 1471.71C444.281 1471.72 438 1471.32 424.676 1471.73C411.353 1472.15 411.353 1472.15 411.353 1472.15L411.353 1472.16L411.353 1472.16C411.352 1472.15 411.351 1472.11 411.349 1472.04C411.345 1471.92 411.337 1471.72 411.325 1471.44C411.301 1470.89 411.258 1470.05 411.186 1469.01C411.04 1466.9 410.784 1464.08 410.351 1461.13C409.909 1458.11 409.341 1455.38 408.68 1453.29C408.282 1452.02 407.982 1451.41 407.884 1451.22C405.374 1446.25 402.446 1440.12 397.676 1436.38C391.393 1431.44 391.911 1429.6 404.264 1423.87Z" fill="#2E2622"/>
<path d="M443.746 1410.4C447.823 1407.91 467.225 1400.29 476.416 1396.8C502.884 1424.03 505.983 1458.19 506.268 1471.34L468.872 1471.66C470.324 1461.92 457.734 1428.21 443.746 1410.4Z" fill="#2E2622"/>
<mask id="path-13-inside-1" fill="white">
<rect x="459.377" y="1440.35" width="40.9838" height="24.5903" rx="6.14758" transform="rotate(-18.5 459.377 1440.35)"/>
</mask>
<rect x="459.377" y="1440.35" width="40.9838" height="24.5903" rx="6.14758" transform="rotate(-18.5 459.377 1440.35)" stroke="#5C6167" stroke-width="14.3443" mask="url(#path-13-inside-1)"/>
<mask id="path-14-inside-2" fill="white">
<rect x="405.13" y="1447.04" width="34.5612" height="19.6708" rx="6.14758" transform="rotate(-18.5 405.13 1447.04)"/>
</mask>
<rect x="405.13" y="1447.04" width="34.5612" height="19.6708" rx="6.14758" transform="rotate(-18.5 405.13 1447.04)" stroke="#5C6167" stroke-width="14.3443" mask="url(#path-14-inside-2)"/>
<path d="M818.309 1444.3C804.151 1431.98 750.984 1413.68 725.933 1404.08L658.964 1371.58C658.964 1371.58 645.342 1414.64 645.219 1428.71L645.006 1453.12C644.911 1464 653.657 1472.9 664.541 1472.99L818.047 1474.33C824.932 1463.76 830.225 1454.67 818.309 1444.3Z" fill="#C4C4C4"/>
<path d="M818.309 1444.3C804.151 1431.98 750.984 1413.68 725.933 1404.08L658.964 1371.58C658.964 1371.58 645.342 1414.64 645.219 1428.71L645.006 1453.12C644.911 1464 653.657 1472.9 664.541 1472.99L818.047 1474.33C824.932 1463.76 830.225 1454.67 818.309 1444.3Z" fill="#EBBAAA"/>
<path d="M795.812 1453.49L777.496 1450.52" stroke="#DCB1A3" stroke-width="28.1549" stroke-linecap="round"/>
<g filter="url(#filter1_i)">
<path d="M831.339 1475.55C831.383 1470.46 827.291 1466.29 822.198 1466.25L621.767 1464.5L620.155 1488.05L831.214 1489.89L831.339 1475.55Z" fill="#D2D7DC"/>
</g>
<path fill-rule="evenodd" clip-rule="evenodd" d="M790.445 1423.76C774.977 1416.59 762.316 1422.7 757.074 1439.33C755.617 1443.95 752.414 1451.98 751.814 1456.07C751.204 1460.22 750.863 1464.04 750.673 1466.8C750.576 1468.19 750.517 1469.34 750.48 1470.17C750.462 1470.58 750.449 1470.92 750.441 1471.16C750.437 1471.28 750.434 1471.38 750.431 1471.46L750.429 1471.55L750.428 1471.59L750.427 1471.61C750.427 1471.61 756.709 1471.21 770.032 1471.63C783.356 1472.04 783.356 1472.05 783.356 1472.05L783.356 1472.05L783.356 1472.06C783.356 1472.04 783.357 1472 783.359 1471.94C783.364 1471.82 783.371 1471.61 783.383 1471.34C783.408 1470.78 783.451 1469.95 783.523 1468.9C783.669 1466.79 783.925 1463.97 784.357 1461.03C784.8 1458.01 785.368 1455.28 786.028 1453.18C786.426 1451.92 786.727 1451.31 786.824 1451.11C789.335 1446.14 792.263 1440.01 797.032 1436.27C803.316 1431.34 802.797 1429.49 790.445 1423.76Z" fill="#2E2622"/>
<path d="M750.962 1410.3C746.886 1407.8 727.484 1400.19 718.293 1396.69C691.824 1423.92 688.726 1458.08 688.44 1471.23L725.837 1471.56C724.385 1461.81 736.974 1428.11 750.962 1410.3Z" fill="#2E2622"/>
<mask id="path-20-inside-3" fill="white">
<rect width="40.9838" height="24.5903" rx="6.14758" transform="matrix(-0.948324 -0.317305 -0.317305 0.948324 735.332 1440.25)"/>
</mask>
<rect width="40.9838" height="24.5903" rx="6.14758" transform="matrix(-0.948324 -0.317305 -0.317305 0.948324 735.332 1440.25)" stroke="#5C6167" stroke-width="14.3443" mask="url(#path-20-inside-3)"/>
<mask id="path-21-inside-4" fill="white">
<rect width="34.5612" height="19.6708" rx="6.14758" transform="matrix(-0.948324 -0.317305 -0.317305 0.948324 789.579 1446.93)"/>
</mask>
<rect width="34.5612" height="19.6708" rx="6.14758" transform="matrix(-0.948324 -0.317305 -0.317305 0.948324 789.579 1446.93)" stroke="#5C6167" stroke-width="14.3443" mask="url(#path-21-inside-4)"/>
<path d="M768.731 746.052C815.918 826.392 861.269 904 758 962" stroke="#EBBAAA" stroke-width="76.9895" stroke-linecap="round" stroke-linejoin="bevel"/>
<path d="M462.397 662.95C418.309 743.176 350.686 802.603 350.686 997.276" stroke="#EBBAAA" stroke-width="80.9431" stroke-linecap="round" stroke-linejoin="bevel"/>
<path d="M430.681 617.285C470.782 579.165 535.481 586.016 566.708 631.69C595.828 674.282 583.16 732.595 538.994 759.267L421.612 830.152L307.559 734.33L430.681 617.285Z" fill="#A97EAC"/>
<path d="M756.35 616.296C719.724 574.826 654.674 576.012 619.585 618.79C586.864 658.682 594.401 717.878 636.075 748.297L746.832 829.143L868.803 743.626L756.35 616.296Z" fill="#A97EAC"/>
<g filter="url(#filter2_i)">
<path d="M432.337 698.71C435.637 640.066 483.625 593.904 542.352 592.879L620.364 591.517C681.788 590.445 732.643 638.99 734.424 700.398L738.929 855.723L735.855 1052L426.866 1052L423.194 861.181L432.337 698.71Z" fill="#B684B9"/>
</g>
<circle cx="578.45" cy="634.911" r="70.7471" transform="rotate(-1 578.45 634.911)" fill="#9D769F"/>
<rect x="530.739" y="551.245" width="93.9921" height="122.831" rx="46.996" transform="rotate(-1 530.739 551.245)" fill="#EBBAAA"/>
<path d="M734.679 1015.65L666.635 1009.7L671.614 847.122L758.006 854.68L734.679 1015.65Z" fill="#ED3535"/>
<path d="M711.487 853.077L732.017 854.404C732.017 854.404 721.761 872.483 730.019 913.033C730.019 913.033 748.399 981.636 717.824 1014L681.988 1011.5C681.988 1011.5 726.831 976.633 717.824 917.809C716.133 906.765 702.987 885.5 711.487 853.077Z" fill="white"/>
<path d="M759.768 867.221L668.118 859.203L670.743 842.117L760.149 849.939L759.768 867.221Z" fill="#E8E8E8"/>
<path d="M756.588 850.782L674.103 843.566L676.025 834.499L756.271 841.519L756.588 850.782Z" fill="#EFEFEF"/>
<circle cx="745.789" cy="960.789" r="43.0445" transform="rotate(-1 745.789 960.789)" fill="#EBBAAA"/>
<path d="M705.197 583.339C684.705 747.274 490.031 1021.87 418.31 1021.87" stroke="#484F56" stroke-width="47.1314"/>
<ellipse cx="413.258" cy="422.282" rx="59.4978" ry="56.4354" fill="#EBBAAA"/>
<ellipse cx="748.37" cy="426.657" rx="59.4978" ry="56.4354" fill="#EBBAAA"/>
<path d="M406.226 317.513C402.326 218.782 481.311 136.615 580.119 136.615C679.164 136.615 758.24 219.162 753.987 318.116L748.242 451.776C744.367 541.945 670.139 613.052 579.886 613.052C489.407 613.052 415.077 541.6 411.506 451.192L406.226 317.513Z" fill="#EED4CC"/>
<path d="M537.4 503.42C563.623 514.991 584.532 518.789 620.393 503.42" stroke="#C99584" stroke-width="15.778" stroke-linecap="round"/>
<path d="M538.799 319.171L474.244 313.97C473.484 313.909 472.752 314.275 472.345 314.92L459.385 335.496C458.542 336.834 459.469 338.583 461.05 338.636L542.109 341.349C544.862 341.441 546.921 338.845 546.203 336.185L542.427 322.189C541.976 320.518 540.524 319.31 538.799 319.171Z" fill="#393939"/>
<path d="M615.982 319.174L681.332 313.968C682.088 313.908 682.816 314.27 683.223 314.91L696.332 335.486C697.184 336.825 696.257 338.583 694.671 338.635L612.625 341.35C609.867 341.442 607.809 338.837 608.535 336.175L612.354 322.181C612.809 320.514 614.26 319.311 615.982 319.174Z" fill="#393939"/>
<path d="M517.289 386.338L517.289 415.301" stroke="black" stroke-width="24.5903" stroke-linecap="round"/>
<path d="M638.035 386.338L638.034 415.301" stroke="black" stroke-width="24.5903" stroke-linecap="round"/>
<path d="M573.732 414.281C571.69 429.156 547.646 465.511 580.434 465.511" stroke="#EBBAAA" stroke-width="17.4181"/>
<path d="M696.42 251.612C693.081 223.582 690.066 203.455 687.84 184.768C686.263 171.532 686.099 168.155 723.727 195.891C761.354 223.626 766.996 284.475 756.76 336.195L747.284 395.562L735.665 392.69L734.132 316.8C715.174 297.716 699.76 279.642 696.42 251.612Z" fill="#6E6C6C"/>
<path d="M433.325 281.51C434.879 253.327 431.704 254.777 432.74 235.989C433.474 222.68 438.06 225.592 414.302 249.996C401.189 263.464 406.126 321.332 408.918 359.178L412.234 394.059L417.534 394.351L419.927 350.963C429.293 320.898 431.771 309.693 433.325 281.51Z" fill="#6E6C6C"/>
<path fill-rule="evenodd" clip-rule="evenodd" d="M583.999 119.711L583.998 119.71C583.919 119.71 583.839 119.71 583.76 119.71C583.68 119.71 583.601 119.71 583.521 119.71L583.52 119.711C532.705 119.886 411.034 148.061 406.461 279.916C419.972 263.674 440.839 256.59 459.373 245.991C498.389 223.679 530.247 215.51 572.519 215.51C608.844 215.51 653.399 223.733 683.49 238.143C710.408 251.034 734.272 260.703 760.581 279.916C756.008 148.062 634.812 119.886 583.999 119.711Z" fill="#272727"/>
<path d="M531.565 237.066V220.904L504.627 237.066V203.664L655.475 212.284L637.158 234.911L622.073 230.601L602.679 237.066L595.136 225.214L575.741 237.066V220.904L548.804 237.066V220.904L531.565 237.066Z" fill="#272727"/>
<path d="M451.691 159.615L441.263 196.661L578.731 175.372L735.835 204.091L735.504 188.848L724.298 184.19L724.037 172.213L709.91 172.52L709.508 154.011L691.345 154.406L687.001 140.339L670.856 140.69L660.962 126.744L644.407 131.462L639.172 122.861L622.018 123.234L621.805 113.435L598.81 123.738L592.542 114.071L582.664 124.089L572.361 114.509L553.401 124.725L541.08 115.189L528.175 125.274L519.093 125.471L509.192 134.401L504.966 125.778L488.214 144.66L477.02 140.546L462.85 162.096L451.691 159.615Z" fill="#272727"/>
<path d="M622.204 700.143L657.04 679.651L693.926 700.143V741.127L657.04 808.75L583.27 767.766L622.204 700.143Z" fill="#CED9EA"/>
<rect x="533.306" y="745.979" width="172.132" height="267.42" rx="86.0661" transform="rotate(32.5 533.306 745.979)" fill="#B6C3D6"/>
<rect x="555.326" y="711.413" width="172.132" height="267.42" rx="86.0661" transform="rotate(32.5 555.326 711.413)" fill="#DCE3ED"/>
<rect x="520.31" y="804.516" width="135.247" height="173.157" rx="22.5411" transform="rotate(32.5 520.31 804.516)" fill="#6B7A89"/>
<path d="M477.513 852.623C480.914 841.183 510.116 816.704 525.47 807.858C541.067 812.933 622.024 858.435 636.944 878.874C625.662 889.909 613.081 906.797 590.165 925.605C569.774 922.335 474.113 864.063 477.513 852.623Z" fill="#B2C2DA"/>
<rect x="528.918" y="876.817" width="27.6641" height="75.8201" rx="13.832" transform="rotate(32.5 528.918 876.817)" fill="#B2C2DA"/>
<circle cx="506.176" cy="938.257" r="13.8321" transform="rotate(32.5 506.176 938.257)" fill="#E7EEF8"/>
<defs>
<filter id="filter0_i" x="363.369" y="1464.61" width="211.184" height="25.3944" filterUnits="userSpaceOnUse" color-interpolation-filters="sRGB">
<feFlood flood-opacity="0" result="BackgroundImageFix"/>
<feBlend mode="normal" in="SourceGraphic" in2="BackgroundImageFix" result="shape"/>
<feColorMatrix in="SourceAlpha" type="matrix" values="0 0 0 0 0 0 0 0 0 0 0 0 0 0 0 0 0 0 127 0" result="hardAlpha"/>
<feOffset dy="-11.15"/>
<feComposite in2="hardAlpha" operator="arithmetic" k2="-1" k3="1"/>
<feColorMatrix type="matrix" values="0 0 0 0 0.180392 0 0 0 0 0.14902 0 0 0 0 0.133333 0 0 0 1 0"/>
<feBlend mode="normal" in2="shape" result="effect1_innerShadow"/>
</filter>
<filter id="filter1_i" x="620.155" y="1464.5" width="211.184" height="25.3944" filterUnits="userSpaceOnUse" color-interpolation-filters="sRGB">
<feFlood flood-opacity="0" result="BackgroundImageFix"/>
<feBlend mode="normal" in="SourceGraphic" in2="BackgroundImageFix" result="shape"/>
<feColorMatrix in="SourceAlpha" type="matrix" values="0 0 0 0 0 0 0 0 0 0 0 0 0 0 0 0 0 0 127 0" result="hardAlpha"/>
<feOffset dy="-11.15"/>
<feComposite in2="hardAlpha" operator="arithmetic" k2="-1" k3="1"/>
<feColorMatrix type="matrix" values="0 0 0 0 0.180392 0 0 0 0 0.14902 0 0 0 0 0.133333 0 0 0 1 0"/>
<feBlend mode="normal" in2="shape" result="effect1_innerShadow"/>
</filter>
<filter id="filter2_i" x="423.194" y="591.5" width="315.735" height="460.503" filterUnits="userSpaceOnUse" color-interpolation-filters="sRGB">
<feFlood flood-opacity="0" result="BackgroundImageFix"/>
<feBlend mode="normal" in="SourceGraphic" in2="BackgroundImageFix" result="shape"/>
<feColorMatrix in="SourceAlpha" type="matrix" values="0 0 0 0 0 0 0 0 0 0 0 0 0 0 0 0 0 0 127 0" result="hardAlpha"/>
<feOffset dy="-23.5657"/>
<feComposite in2="hardAlpha" operator="arithmetic" k2="-1" k3="1"/>
<feColorMatrix type="matrix" values="0 0 0 0 0.615686 0 0 0 0 0.462745 0 0 0 0 0.623529 0 0 0 1 0"/>
<feBlend mode="normal" in2="shape" result="effect1_innerShadow"/>
</filter>
</defs>
</svg>
