<svg width="1200" height="1600" viewBox="0 0 1200 1600" fill="none" xmlns="http://www.w3.org/2000/svg">
<path d="M582.145 1103.92C645.928 1103.92 697.635 1079.43 697.635 1049.21C697.635 1019 645.928 994.508 582.145 994.508C518.361 994.508 466.654 1019 466.654 1049.21C466.654 1079.43 518.361 1103.92 582.145 1103.92Z" fill="#445A73"/>
<path d="M424.707 753.925C393 816 367 980 393 997" stroke="#EBBAAA" stroke-width="74" stroke-linecap="round" stroke-linejoin="bevel"/>
<path d="M747.722 731.188C793.074 811.584 809.491 960.648 793 1006" stroke="#EBBAAA" stroke-width="74" stroke-linecap="round" stroke-linejoin="bevel"/>
<path d="M667.326 1258.92V1426.92" stroke="#EBBAAA" stroke-width="54" stroke-linecap="round" stroke-linejoin="bevel"/>
<path d="M531.271 1258.92L548 1412" stroke="#EBBAAA" stroke-width="54" stroke-linecap="round" stroke-linejoin="bevel"/>
<path d="M574 1398C544.4 1404 524.667 1400.5 519.5 1398L522.5 1431.5L554 1446.5L578 1426.5C577 1418 575 1408 574 1398Z" fill="#91979C"/>
<path d="M640 1399C669.6 1405 689.333 1401.5 694.5 1399V1432.5L663 1447.5L639 1427.5C640 1419 639 1409 640 1399Z" fill="#91979C"/>
<path d="M407 1470C407 1439.3 426.726 1435.55 458.876 1425.03C474.623 1419.88 490.694 1415.39 507 1412.69C517.247 1410.99 520 1420 538 1420C554.052 1420 574.078 1412.05 578.225 1410.33C578.745 1410.11 579.361 1409.92 579.775 1410.3C579.875 1410.39 579.96 1410.51 580.022 1410.63C581.939 1414.57 592 1436.05 592 1453.24C592 1466.39 593.126 1479.32 589.5 1486C587.864 1489.01 577.649 1490.66 574.218 1490.66H412.562C409.49 1490.66 407 1473.07 407 1470Z" fill="#4E4B48"/>
<mask id="mask0" mask-type="alpha" maskUnits="userSpaceOnUse" x="407" y="1407" width="186" height="84">
<path d="M407 1470C407 1454.23 412.206 1445.57 421.628 1439.45C466.458 1410.35 524.586 1408.98 578 1407C578.436 1407 579.831 1410.24 580.022 1410.63C581.939 1414.57 592 1436.05 592 1453.24C592 1466.39 593.126 1479.32 589.5 1486C587.864 1489.01 577.649 1490.66 574.218 1490.66H412.562C409.49 1490.66 407 1473.07 407 1470Z" fill="#3B3734"/>
</mask>
<g mask="url(#mask0)">
<path d="M430.5 1449C415 1449 410.667 1440 409 1438.5C406 1442 408.5 1456.1 406.5 1462.5C404.5 1468.9 407.333 1475.17 409 1477.5L548.5 1484C549.333 1470.67 550.5 1444 548.5 1444C546 1444 530 1422.5 521.5 1422C514.7 1421.6 481.667 1430.17 466 1434.5C468 1436.5 471.3 1446.7 472.5 1451.5C474 1457.5 474.5 1457.5 469 1459C463.5 1460.5 462.5 1449 456.5 1449H430.5Z" fill="#333230"/>
<path d="M536.5 1444.5C538.9 1440.5 577.5 1434.83 593 1433L600 1476L522 1480.5C525.833 1470.17 534.1 1448.5 536.5 1444.5Z" fill="#272625"/>
<path d="M554.5 1416C566.5 1415.2 576.5 1408.67 580.5 1405C584.5 1409 594.4 1420 592 1424C589 1429 566 1433 556 1433C546 1433 539.5 1417 554.5 1416Z" fill="#CDC7BB"/>
<path d="M495.5 1475.5C470 1474.5 448 1480.5 420 1474.5C370 1469 395.688 1472.27 383 1496.59H579.084C598.5 1492 604.942 1463.71 590.5 1466C559 1471 515.01 1476.27 495.5 1475.5Z" fill="#CDC7BB"/>
<path d="M598 1474.5C591.2 1477.3 499 1477.5 496 1475.5C503 1474 554.519 1468.16 566 1467.5C583.5 1466.5 590.167 1465.17 598 1465.5C600.833 1467.5 604.8 1471.7 598 1474.5Z" fill="#882929"/>
</g>
<path d="M504.868 1412C508.912 1414.46 517 1418.15 517 1423.08L486.671 1416.1L498.297 1431.28L465 1421.81L478.294 1435" stroke="#CDC7BB" stroke-width="6.1597" stroke-linecap="round" stroke-linejoin="round"/>
<path d="M510.118 1399.91C510.118 1401.08 510.138 1402.19 510.157 1403.21L510.158 1403.25C510.177 1404.27 510.194 1405.19 510.192 1406.05C510.186 1407.84 510.091 1409.08 509.858 1409.97C509.646 1410.78 509.386 1411.05 509.172 1411.2C508.886 1411.4 508.182 1411.71 506.525 1411.71C503.199 1411.71 498.911 1410.46 495.501 1408.19C492.077 1405.91 490.099 1403.02 490.099 1399.91C490.099 1395.83 491.091 1392.55 492.685 1390.38C494.206 1388.3 496.373 1387.08 499.338 1387.08C505.185 1387.08 510.118 1392.12 510.118 1399.91Z" stroke="#CDC7BB" stroke-width="6.1597"/>
<path d="M516.906 1405.18C516.555 1405.97 516.206 1406.71 515.888 1407.39L515.879 1407.41C515.56 1408.1 515.276 1408.7 515.025 1409.27C514.5 1410.46 514.233 1411.24 514.143 1411.79C514.103 1412.04 514.113 1412.17 514.12 1412.22C514.124 1412.24 514.127 1412.25 514.131 1412.25C514.132 1412.26 514.132 1412.26 514.133 1412.26C514.153 1412.29 514.384 1412.63 515.437 1413.1C517.552 1414.04 520.683 1414.48 523.531 1414.01C526.403 1413.54 528.285 1412.3 529.048 1410.59C530.216 1407.96 530.47 1405.65 530.085 1403.94C529.727 1402.34 528.788 1401.06 526.996 1400.26C523.488 1398.7 519.076 1400.31 516.906 1405.18Z" stroke="#CDC7BB" stroke-width="6.1597"/>
<path d="M498 1469.5L484 1443L494.5 1438L512.5 1448.5L502.5 1434.5L512.5 1430L527 1456.5L517 1460.5L497.5 1449L507.5 1465L498 1469.5Z" fill="#882929" stroke="#CDC7BB" stroke-width="2"/>
<path d="M808.166 1470C808.166 1439.3 788.44 1435.55 756.289 1425.03C740.542 1419.88 724.472 1415.39 708.166 1412.69C697.919 1410.99 695.166 1420 677.166 1420C661.114 1420 641.088 1412.05 636.941 1410.33C636.421 1410.11 635.804 1409.92 635.39 1410.3C635.29 1410.39 635.206 1410.51 635.143 1410.63C633.226 1414.57 623.166 1436.05 623.166 1453.24C623.166 1466.39 622.04 1479.32 625.666 1486C627.302 1489.01 637.517 1490.66 640.947 1490.66H802.603C805.675 1490.66 808.166 1473.07 808.166 1470Z" fill="#4E4B48"/>
<mask id="mask1" mask-type="alpha" maskUnits="userSpaceOnUse" x="623" y="1407" width="186" height="84">
<path d="M808.166 1470C808.166 1454.23 802.96 1445.57 793.538 1439.45C748.708 1410.35 690.579 1408.98 637.166 1407C636.729 1407 635.334 1410.24 635.143 1410.63C633.226 1414.57 623.166 1436.05 623.166 1453.24C623.166 1466.39 622.04 1479.32 625.666 1486C627.302 1489.01 637.517 1490.66 640.947 1490.66H802.603C805.675 1490.66 808.166 1473.07 808.166 1470Z" fill="#3B3734"/>
</mask>
<g mask="url(#mask1)">
<path d="M784.666 1449C800.166 1449 804.499 1440 806.166 1438.5C809.166 1442 806.666 1456.1 808.666 1462.5C810.666 1468.9 807.832 1475.17 806.166 1477.5L666.666 1484C665.832 1470.67 664.666 1444 666.666 1444C669.166 1444 685.166 1422.5 693.666 1422C700.466 1421.6 733.499 1430.17 749.166 1434.5C747.166 1436.5 743.866 1446.7 742.666 1451.5C741.166 1457.5 740.666 1457.5 746.166 1459C751.666 1460.5 752.666 1449 758.666 1449H784.666Z" fill="#333230"/>
<path d="M678.666 1444.5C676.266 1440.5 637.666 1434.83 622.166 1433L615.166 1476L693.166 1480.5C689.332 1470.17 681.066 1448.5 678.666 1444.5Z" fill="#272625"/>
<path d="M660.665 1416C648.665 1415.2 638.665 1408.67 634.665 1405C630.665 1409 620.765 1420 623.165 1424C626.165 1429 649.165 1433 659.165 1433C669.165 1433 675.665 1417 660.665 1416Z" fill="#CDC7BB"/>
<path d="M719.666 1475.5C745.166 1474.5 767.166 1480.5 795.166 1474.5C845.166 1469 819.477 1472.27 832.166 1496.59H636.082C616.666 1492 610.224 1463.71 624.666 1466C656.166 1471 700.155 1476.27 719.666 1475.5Z" fill="#CDC7BB"/>
<path d="M617.166 1474.5C623.966 1477.3 716.166 1477.5 719.166 1475.5C712.166 1474 660.647 1468.16 649.166 1467.5C631.666 1466.5 624.999 1465.17 617.166 1465.5C614.332 1467.5 610.366 1471.7 617.166 1474.5Z" fill="#882929"/>
</g>
<path d="M710.297 1412C706.253 1414.46 698.166 1418.15 698.166 1423.08L728.495 1416.1L716.869 1431.28L750.166 1421.81L736.871 1435" stroke="#CDC7BB" stroke-width="6.1597" stroke-linecap="round" stroke-linejoin="round"/>
<path d="M705.048 1399.91C705.048 1401.08 705.027 1402.19 705.008 1403.21L705.008 1403.25C704.989 1404.27 704.971 1405.19 704.974 1406.05C704.979 1407.84 705.074 1409.08 705.307 1409.97C705.519 1410.78 705.779 1411.05 705.994 1411.2C706.279 1411.4 706.984 1411.71 708.641 1411.71C711.967 1411.71 716.255 1410.46 719.664 1408.19C723.088 1405.91 725.067 1403.02 725.067 1399.91C725.067 1395.83 724.074 1392.55 722.481 1390.38C720.959 1388.3 718.792 1387.08 715.827 1387.08C709.981 1387.08 705.048 1392.12 705.048 1399.91Z" stroke="#CDC7BB" stroke-width="6.1597"/>
<path d="M698.259 1405.18C698.611 1405.97 698.959 1406.71 699.277 1407.39L699.286 1407.41C699.606 1408.1 699.89 1408.7 700.141 1409.27C700.666 1410.46 700.933 1411.24 701.022 1411.79C701.062 1412.04 701.052 1412.17 701.045 1412.22C701.041 1412.24 701.038 1412.25 701.034 1412.25C701.034 1412.26 701.033 1412.26 701.033 1412.26C701.013 1412.29 700.782 1412.63 699.729 1413.1C697.614 1414.04 694.483 1414.48 691.635 1414.01C688.763 1413.54 686.881 1412.3 686.117 1410.59C684.95 1407.96 684.696 1405.65 685.08 1403.94C685.438 1402.34 686.378 1401.06 688.17 1400.26C691.678 1398.7 696.089 1400.31 698.259 1405.18Z" stroke="#CDC7BB" stroke-width="6.1597"/>
<path d="M717.166 1469.5L731.166 1443L720.666 1438L702.666 1448.5L712.666 1434.5L702.666 1430L688.166 1456.5L698.166 1460.5L717.666 1449L707.666 1465L717.166 1469.5Z" fill="#882929" stroke="#CDC7BB" stroke-width="2"/>
<path d="M458 988H593L588 1347.79V1372H496L491.886 1341.3L458 988Z" fill="#445A73"/>
<path d="M591.714 994.021H727.172L722 1344L716 1372L629 1378L625.739 1348L591.714 994.021Z" fill="#445A73"/>
<path d="M490 1360H590V1384H492.785L490 1360Z" fill="#3E4A57"/>
<path d="M625 1362H719L715 1384H628.743L625 1362Z" fill="#3E4A57"/>
<rect x="389.663" y="704.534" width="109.872" height="16.687" transform="rotate(18 389.663 704.534)" fill="#F1EDED"/>
<rect x="802.742" y="743.022" width="109.872" height="16.687" transform="rotate(162 802.742 743.022)" fill="#F1EDED"/>
<path d="M460.553 660.116C461.388 625.7 488.939 597.912 523.345 596.788L603.669 594.16C610.214 593.954 616.769 594.294 623.253 595.191L701.66 606.034C736.251 610.816 760.864 642.088 757.38 676.834L742.548 824.722L749.99 1036.6C750.062 1038.41 663.814 1036.69 662 1036.6H523.345L444.536 1024.7C442.794 1024.61 441.464 1023.09 441.608 1021.35L457.007 806.303L460.553 660.116Z" fill="#D7DADD"/>
<path d="M591.114 683.774C630.962 683.774 663.264 651.471 663.264 611.624C663.264 571.776 630.962 539.473 591.114 539.473C551.266 539.473 518.963 571.776 518.963 611.624C518.963 651.471 551.266 683.774 591.114 683.774Z" fill="#E9E4E0"/>
<rect x="552" y="534" width="88" height="119" rx="37.911" fill="#EBBAAA"/>
<path d="M737.267 463.533C769.999 463.533 796.533 436.999 796.533 404.267C796.533 371.535 769.999 345 737.267 345C704.535 345 678 371.535 678 404.267C678 436.999 704.535 463.533 737.267 463.533Z" fill="#EBBAAA"/>
<path d="M458.267 466.533C425.535 466.533 399 439.999 399 407.267C399 374.535 425.535 348 458.267 348C490.999 348 517.533 374.535 517.533 407.267C517.533 439.999 490.999 466.533 458.267 466.533Z" fill="#EBBAAA"/>
<path d="M432 300.151C432 212.807 502.807 142 590.151 142C679.689 142 751.371 216.264 748.204 305.746L743.13 449.091C740.268 529.938 673.898 594 593 594C517.04 594 452.987 537.393 443.647 462.009L432 368V300.151Z" fill="#F4D4C9"/>
<path d="M566 494C584 504 605 503 627 494" stroke="#C99584" stroke-width="15.3993" stroke-linecap="round"/>
<path d="M599.411 207C523.209 207 458.429 226.896 454.39 282.431C448.372 365.164 433.984 371.819 423.076 333.452C421.413 327.604 420.313 274.563 420.076 268.5C424.393 150.62 551.898 122.154 599.411 122.154C638.352 153.84 675.622 207 599.411 207Z" fill="#272727"/>
<path d="M430.362 282.26C430.099 274.194 435.247 267.485 441.69 267.485C448.375 267.485 453.608 274.681 452.976 283.011L442.301 424.126C442.122 426.486 440.542 428.278 438.658 428.278C436.689 428.278 435.078 426.341 434.994 423.889L430.362 282.26Z" fill="#272727"/>
<path d="M751.866 281.597C752.13 273.893 746.981 267.485 740.538 267.485C733.853 267.485 728.62 274.359 729.252 282.314L739.927 417.098C740.106 419.351 741.686 421.063 743.57 421.063C745.539 421.063 747.15 419.212 747.234 416.871L751.866 281.597Z" fill="#272727"/>
<path d="M600 203C678.523 203 716.763 234.434 720 291C728.029 335.362 743.447 400.932 762 269C752 135 636.795 122 587.835 122C547.709 153.686 521.468 203 600 203Z" fill="#272727"/>
<path d="M499.764 150.596L489 175.579L592.932 168.292L708 199V184.427L699.834 179.743V168.292H689.441V150.596H676.078L673.108 137.064H661.23L654.178 123.532L641.929 127.696L638.217 119.368H625.597V110L608.522 119.368L604.068 110L596.644 119.368L589.22 110L575.115 119.368L566.207 110L556.556 119.368H549.875L542.451 127.696L539.481 119.368L526.861 137.064L518.695 132.901L507.931 153.199L499.764 150.596Z" fill="#272727"/>
<path d="M656.573 375.916V404.663" stroke="black" stroke-width="24" stroke-linecap="round"/>
<path d="M527.653 375.916V404.663" stroke="black" stroke-width="24" stroke-linecap="round"/>
<path d="M635.354 328.407L692.632 326.404" stroke="#393939" stroke-width="20" stroke-linecap="round"/>
<path d="M549.855 328.624L492.545 328.122" stroke="#393939" stroke-width="20" stroke-linecap="round"/>
<path d="M592.114 411C581.891 429.038 578.784 452.229 598.298 452.229" stroke="#EBBAAA" stroke-width="17"/>
<path d="M532.542 233.453L519.151 199.263L502 156L686 166L637.614 242L627.313 222.463L615.982 233.453L601.56 212.695L592.289 233.453L576.837 222.463L557.265 233.453L551.084 222.463L532.542 233.453Z" fill="#272727"/>
<rect x="424.144" y="587" width="147.712" height="359.643" rx="73.856" transform="rotate(16.5 424.144 587)" fill="#A3A7AE"/>
<path d="M339.201 989C332.801 970.6 337 882 345 852L453.201 871C441 909 439 959 430 1008L429.847 1008.01C408.701 1009.01 347.182 1011.94 339.201 989Z" fill="#A3A7AE"/>
<path d="M366 850L438.5 872L359.5 864.5L366 850Z" fill="#969BA3"/>
<path d="M384 879L440 876L391.5 891.5L384 879Z" fill="#969BA3"/>
<rect width="157.985" height="388.308" rx="78.9925" transform="matrix(-0.945519 0.325568 0.325568 0.945519 752.378 581)" fill="#A3A7AE"/>
<path d="M804 729.841C795 725.5 762 735 744 746V777.841C744 771.441 790 758.508 813 752.841C812 748.508 808.8 737.841 804 729.841Z" fill="#E8ECF3"/>
<path d="M813 753.458C791.5 750.5 764.5 763 746.5 774C746.5 785 753 809.858 753 803.458C753 797.058 798 785.124 821 779.458C820 775.124 817.801 761.458 813 753.458Z" fill="#3D507B"/>
<path d="M383 729.075C392 724.733 425 734.233 443 745.233V777.075C443 770.675 397 757.741 374 752.075C375 747.741 378.2 737.075 383 729.075Z" fill="#E8ECF3"/>
<path d="M374 752.691C395.5 749.733 422.5 762.233 440.5 773.233C440.5 784.234 434 809.091 434 802.691C434 796.291 389 784.358 366 778.691C367 774.358 369.2 760.691 374 752.691Z" fill="#3D507B"/>
<path d="M603 863C602.206 795.844 580 703.652 580 671.5C573 671.5 566 670.5 561 667.5C561.27 641.657 563.098 615.155 552.115 591L466.591 607.472C453.269 625.805 429.831 680.579 426.07 785.497C423.08 868.877 426.171 925.061 426.07 979C426.043 992.933 446 1003.18 446 1040.68C462.457 1045.44 548.927 1057.6 603 1040.68C613 975 604.176 962.418 603 863Z" fill="#AEB4BF"/>
<path d="M525 1024.5C502.6 1026.1 463 1019 440 1011V1045C453 1055 486.5 1054 505 1054C528 1054 565 1061 605 1055L603 1024.5C589 1027.5 547.4 1022.9 525 1024.5Z" fill="#B7BECB"/>
<path d="M854 993C860.4 974.6 862 910 854 880L740 875C752.201 913 738 952 747 1001C768 1002 846 1016 854 993Z" fill="#A3A7AE"/>
<path d="M820.5 841L748 863L827 855.5L820.5 841Z" fill="#969BA3"/>
<path d="M807 873L751 870L799.5 885.5L807 873Z" fill="#969BA3"/>
<path d="M595 851C595 754.793 605 701.112 605 670C610.5 670 616.45 670.5 624 668C627.584 641.4 637.264 611.882 647.382 589L705.425 598.36C719.863 600.688 732.535 609.084 735.745 623.353C742.859 654.979 746.943 714.045 753.438 791.125C760 869 756.741 934.547 760 988C761.017 1004.67 738.124 1031.86 739 1042.72C710.241 1046.82 651.882 1059.1 601 1042.72C601 977.226 595 947.207 595 851Z" fill="#AEB4BF"/>
<path d="M558.361 792.535C554.7 799.967 552.372 807.977 551.212 815.624C545.701 829.31 539.948 838.992 532.831 846.664L549.537 778.35L551.304 771.123L543.945 772.217L517.761 776.109L514.45 776.601L513.643 779.849L513.03 782.318C508.741 778.989 502.305 776.23 493.233 777.578C474.632 780.343 464.197 797.077 458.778 813.327C453.281 829.81 452.123 848.052 453.572 857.693C454.594 864.497 457.405 870.802 462.117 875.199C465.673 878.517 470.136 880.572 475.226 880.984C466.829 886.78 456.328 897.05 458.267 911.343L458.272 911.379L458.277 911.414C459.158 917.275 462.03 922.819 467.12 926.541C472.239 930.284 479.057 931.792 487.084 930.599C510.319 927.145 518.399 906.007 522.695 888.864L522.73 888.728L522.756 888.59C523.066 886.97 523.602 884.585 524.074 882.548C524.217 881.933 524.352 881.357 524.471 880.854C533.053 875.13 541.431 868.881 549.204 860.238C551.739 857.419 554.196 854.361 556.569 851.004C558.698 854.176 561.396 856.9 564.7 859.068C572.442 864.146 582.714 865.647 594.896 863.836C615.22 860.815 629.793 850.249 640.063 837.546C642.278 841.13 645.178 844.183 648.809 846.566C656.551 851.644 666.823 853.144 679.005 851.334C713.219 846.248 731.136 819.78 739.663 797.729L740.555 795.424L739.264 793.315C737.719 790.79 735.171 788.907 732.796 787.708C730.401 786.5 727.416 785.598 724.528 785.752L721.289 785.924L720.126 788.953C712.01 810.091 697.12 822.121 682.533 824.289C677.951 824.971 675.192 824.425 673.57 823.698C672.02 823.002 671.12 821.969 670.532 820.815C670.299 820.356 670.114 819.873 669.969 819.385C683.358 818.549 693.453 815.527 700.974 810.518C709.582 804.785 714.264 796.822 716.848 788.019L716.858 787.985L716.868 787.951C720.719 774.104 718.031 763.194 710.364 756.336C703.025 749.772 692.269 747.992 682.072 749.508C662.389 752.434 649.682 765.39 642.47 780.033C638.788 787.508 636.454 795.567 635.301 803.254C627.045 823.276 612.592 834.686 598.425 836.792C593.842 837.473 591.083 836.928 589.462 836.2C587.911 835.504 587.011 834.471 586.424 833.317C586.19 832.858 586.005 832.375 585.86 831.888C599.249 831.051 609.344 828.029 616.866 823.02C625.473 817.287 630.155 809.324 632.739 800.521L632.749 800.487L632.759 800.453C636.61 786.607 633.922 775.696 626.255 768.839C618.917 762.275 608.161 760.495 597.963 762.011C578.28 764.936 565.574 777.892 558.361 792.535ZM479.601 905.525C479.601 905.525 479.603 905.524 479.608 905.524C479.603 905.525 479.601 905.525 479.601 905.525ZM599.55 795.628L599.545 795.644L599.541 795.66C598.536 799.512 597.328 802.269 595.26 804.138C594.124 805.165 592.473 806.146 589.912 806.752C590.388 805.566 590.937 804.31 591.56 803.05C592.894 800.355 594.47 797.836 596.239 795.956C597.585 794.525 598.876 793.637 600.102 793.191C599.984 793.889 599.798 794.701 599.55 795.628ZM601.812 792.858C601.812 792.858 601.808 792.857 601.802 792.856C601.809 792.857 601.812 792.857 601.812 792.858ZM683.658 783.125L683.654 783.141L683.65 783.157C682.645 787.01 681.437 789.767 679.369 791.636C678.233 792.663 676.581 793.644 674.021 794.25C674.497 793.064 675.046 791.808 675.669 790.548C677.003 787.853 678.579 785.334 680.348 783.454C681.694 782.023 682.985 781.134 684.211 780.689C684.093 781.387 683.907 782.199 683.658 783.125ZM685.921 780.355C685.921 780.355 685.917 780.355 685.911 780.354C685.918 780.355 685.921 780.355 685.921 780.355ZM488.864 848.221C488.773 848.235 488.694 848.243 488.628 848.248C488.545 848.031 488.443 847.679 488.363 847.147C488.08 845.265 488.173 841.854 488.839 837.484C489.489 833.22 490.627 828.415 492.186 823.883C493.759 819.313 495.683 815.249 497.806 812.315C500.007 809.274 501.88 808.171 503.172 807.979C503.769 807.89 503.996 808.016 504.131 808.099C504.369 808.248 504.718 808.582 505.098 809.226C505.461 809.842 505.732 810.539 505.914 811.132L499.553 837.266C499.547 837.278 499.541 837.292 499.534 837.305C499.393 837.597 499.174 838.033 498.882 838.57C498.293 839.651 497.432 841.089 496.342 842.543C493.985 845.689 491.35 847.852 488.864 848.221Z" fill="#3D507B" stroke="#E8ECF3" stroke-width="10"/>
<path d="M664 1029C686.4 1030.6 730 1028.5 749 1013L751 1048C731 1053 703.5 1057 696 1057C663.612 1057 636 1062 596 1056V1022.5C610 1025.5 641.6 1027.4 664 1029Z" fill="#B7BECB"/>
<path d="M584.5 987C584.5 959.8 580.333 791 573 711L562.5 669L584 670C585.711 683.869 590 718 596 747L605.5 670L622.5 669C622.5 687.667 615 729.4 615 747V1059L584.5 1057V987Z" fill="#9B9FA6"/>
<path d="M595 746C598.333 844.167 602.5 1017 599.5 1057.5" stroke="#AEB4BF" stroke-width="12"/>
<path d="M704.688 604C715.888 598.4 690.688 587 679.688 581C670.688 578.333 650.888 572.2 639.688 589C625.688 610 612.317 735.148 622.688 710C662.688 613 690.688 611 704.688 604Z" fill="#B7BECB"/>
<path d="M489 606C477.8 600.4 503 589 514 583C523 580.333 542.8 574.2 554 591C568 612 581.371 737.148 571 712C531 615 503 613 489 606Z" fill="#B7BECB"/>
<path d="M538 635V731.53" stroke="#E8ECF3" stroke-width="14" stroke-linecap="round"/>
<path d="M650 635V744" stroke="#E8ECF3" stroke-width="14" stroke-linecap="round"/>
<path d="M574 386H610.72" stroke="black" stroke-width="14"/>
<path d="M469.009 375.166C468.828 369.738 472.757 365.252 477.927 364.738C488.726 363.664 503.466 362.5 516.5 362.5C531.698 362.5 551.781 365.319 564.39 367.382C568.562 368.065 571.763 371.335 572.357 375.524C573.298 382.155 574.268 390.077 574.506 395.771C574.622 398.571 574.038 402.582 572.963 407.159C571.915 411.622 570.51 416.176 569.257 419.891C568.281 422.782 565.879 424.905 562.861 425.524C552.968 427.552 535.317 430.5 516.5 430.5C498.339 430.5 482.648 423.459 474.137 418.683L470.956 424.352L474.137 418.683C471.888 417.421 470.332 414.848 470.222 411.566L469.009 375.166Z" stroke="#393939" stroke-width="13"/>
<path d="M716.011 375.166C716.192 369.738 712.263 365.252 707.093 364.738C696.294 363.664 681.554 362.5 668.52 362.5C653.322 362.5 633.239 365.319 620.63 367.382C616.458 368.065 613.257 371.335 612.663 375.524C611.722 382.155 610.752 390.077 610.514 395.771C610.398 398.571 610.982 402.582 612.057 407.159C613.105 411.622 614.51 416.176 615.763 419.891C616.739 422.782 619.141 424.905 622.159 425.524C632.052 427.552 649.703 430.5 668.52 430.5C686.681 430.5 702.372 423.459 710.883 418.683L714.064 424.352L710.883 418.683C713.132 417.421 714.688 414.848 714.798 411.566L716.011 375.166Z" stroke="#393939" stroke-width="13"/>
</svg>
