<svg width="1200" height="1600" viewBox="0 0 1200 1600" fill="none" xmlns="http://www.w3.org/2000/svg">
<path d="M535 1222C539.667 1286.33 547.6 1417.2 542 1426" stroke="black" stroke-width="68" stroke-linecap="round"/>
<path d="M676 1179C680.667 1243.33 688.6 1374.2 683 1383" stroke="black" stroke-width="68" stroke-linecap="round"/>
<path d="M463.987 1007.42L586.854 1018.79V1367H497.854L463.987 1007.42Z" fill="#2B2B2B"/>
<path d="M498 1366L495 1346H587V1366H498Z" fill="#1B1919"/>
<ellipse cx="604.297" cy="1035.93" rx="118.297" ry="60.9254" fill="#2B2B2B"/>
<path d="M606 1019.6H731.913L730.913 1369.31H639.707L606 1019.6Z" fill="#2B2B2B"/>
<path d="M638 1369L635 1349H733V1369H638Z" fill="#1B1919"/>
<path d="M404.177 1459.42C402.299 1454.77 403.65 1448.41 404.702 1446.68C405.753 1444.94 533.449 1436.97 533.449 1436.97C554.644 1435.24 596.655 1427.97 599.559 1440.5C603.15 1456 602.986 1459.5 600.538 1471.5C596.621 1475.5 557 1479 544.153 1476C544.153 1469 543.153 1464.5 543.153 1464.5C543.153 1464.5 535.992 1469.04 527.591 1471C510.456 1475 507.175 1479 454.101 1479C411.534 1475 408.38 1469.81 404.177 1459.42Z" fill="#272727"/>
<path d="M542.279 1392C552.922 1392.14 569.171 1388.64 578.025 1376.37C578.803 1375.29 580.395 1375.12 581.301 1376.09C589.263 1384.65 584.105 1379.78 587.304 1394.51C590.46 1409.05 593.126 1406.97 596.283 1420.47C598.468 1429.82 605.547 1451.62 596.283 1451.62H554.028C544.031 1451.62 530.529 1463.24 497.238 1466.5C441.976 1471.92 428.471 1464.5 417.437 1461C392.331 1453.04 405.072 1434.82 417.437 1429C435.551 1420.47 461.512 1414.06 474.717 1407C485 1401.5 488.531 1399.79 493.811 1394C500.548 1386.61 503.405 1381.89 505.543 1378.21C506.433 1376.68 508.851 1377.02 509.796 1378.52C515.633 1387.78 532.45 1391.87 542.279 1392Z" fill="#563D2A"/>
<path d="M509 1382.5C511.165 1387.37 519.851 1392.83 519.851 1396.62L498.5 1389L509 1404.5L488.993 1398.78L498.5 1412L476 1407.44L488.993 1420" stroke="#2C221B" stroke-width="5.41368" stroke-linecap="round" stroke-linejoin="round"/>
<path d="M423.83 1445.82C433.16 1448.65 447.396 1452.67 468.809 1448.18" stroke="#7C593E" stroke-width="7" stroke-linecap="round"/>
<path d="M495.094 1419.5C504.886 1410.5 512.167 1406 520 1396C524.243 1396 529.844 1396.5 546 1396.5C567.052 1396.5 572.632 1387.5 581.934 1377C589 1381.5 585.361 1391 590.257 1404C594.174 1414.4 601.517 1430 601.517 1449C598.09 1455 564.309 1452 553.539 1452C551.091 1440 532 1430 523.5 1427.5C516.039 1425.31 507.334 1424.5 495.094 1419.5Z" fill="#423023"/>
<path d="M824.147 1459.81C826.025 1455.17 824.673 1448.8 823.622 1447.07C822.57 1445.34 694.874 1437.37 694.874 1437.37C673.68 1435.64 631.668 1428.36 628.765 1440.89C625.173 1456.39 625.337 1459.89 627.785 1471.89C631.702 1475.89 671.323 1479.39 684.17 1476.39C684.17 1469.39 685.17 1464.89 685.17 1464.89C685.17 1464.89 692.331 1469.43 700.732 1471.39C717.867 1475.39 721.148 1479.39 774.222 1479.39C816.789 1475.39 819.943 1470.2 824.147 1459.81Z" fill="#272727"/>
<path d="M686.045 1392.39C675.401 1392.53 659.152 1389.03 650.298 1376.76C649.52 1375.68 647.928 1375.51 647.022 1376.48C639.06 1385.04 644.218 1380.17 641.02 1394.9C637.863 1409.44 635.198 1407.36 632.041 1420.86C629.855 1430.21 622.776 1452.02 632.041 1452.02H674.295C684.292 1452.02 697.794 1463.63 731.085 1466.89C786.348 1472.31 799.852 1464.89 810.886 1461.39C835.992 1453.43 823.251 1435.22 810.886 1429.39C792.772 1420.86 766.811 1414.46 753.606 1407.39C743.323 1401.89 739.792 1400.18 734.513 1394.39C727.775 1387.01 724.918 1382.28 722.781 1378.61C721.89 1377.08 719.472 1377.42 718.527 1378.92C712.69 1388.17 695.873 1392.27 686.045 1392.39Z" fill="#563D2A"/>
<path d="M719.323 1382.89C717.158 1387.77 708.472 1393.22 708.472 1397.01L729.823 1389.39L719.323 1404.89L739.33 1399.18L729.823 1412.39L752.323 1407.84L739.33 1420.39" stroke="#2C221B" stroke-width="5.41368" stroke-linecap="round" stroke-linejoin="round"/>
<path d="M804.493 1446.22C795.163 1449.04 780.928 1453.06 759.514 1448.57" stroke="#7C593E" stroke-width="7" stroke-linecap="round"/>
<path d="M733.229 1419.89C723.438 1410.89 716.156 1406.39 708.323 1396.39C704.08 1396.39 698.479 1396.89 682.323 1396.89C661.272 1396.89 655.691 1387.89 646.389 1377.39C639.323 1381.89 642.962 1391.39 638.066 1404.39C634.15 1414.79 626.806 1430.39 626.806 1449.39C630.233 1455.39 664.014 1452.39 674.784 1452.39C677.232 1440.39 696.323 1430.39 704.823 1427.89C712.284 1425.7 720.99 1424.89 733.229 1419.89Z" fill="#423023"/>
<path d="M433.707 760.925C421 835 400 992 426 1009" stroke="#EBBAAA" stroke-width="74" stroke-linecap="round" stroke-linejoin="bevel"/>
<path d="M748.722 736.188C794.074 816.584 795.492 961.648 779 1007" stroke="#EBBAAA" stroke-width="74" stroke-linecap="round" stroke-linejoin="bevel"/>
<path d="M431 669.5C431 646 482.5 622.016 518.5 610.61L565.5 595.016C572.045 594.81 617.017 596.68 623.5 597.576L696.5 622.016C731.091 626.798 759.484 645.254 756 680L743.548 829.299L747 1026C747.072 1027.81 666.814 1005.09 665 1005L525 1029.28L450.5 1025.93C448.758 1025.84 447.856 1020.74 448 1019L458.008 810.88L431 669.5Z" fill="#EBBAAA"/>
<path d="M766.108 645.982C758.007 636.789 731.327 627.497 719 624C726.778 741.901 727.629 971.209 730.447 983.199C733.969 998.186 818.499 1013.67 825.543 1007.68C832.588 1001.68 840.512 945.23 838.751 914.256C836.99 883.282 776.234 657.472 766.108 645.982Z" fill="#322B1F"/>
<path d="M824.641 1008C829.041 1007.2 839.141 978.667 842.641 967.5L719.641 948C718.141 958.167 715.341 980.2 716.141 987C717.141 995.5 740.141 1003 765.141 1007C790.141 1011 819.141 1009 824.641 1008Z" fill="#3F3627"/>
<path d="M427.918 641.983C436.53 632.79 464.894 623.497 478 620C469.731 737.909 452.444 976.723 449.449 988.714C445.704 1003.7 385.489 1013 378 1007C370.511 1001 362.086 944.548 363.958 913.572C365.831 882.596 417.153 653.474 427.918 641.983Z" fill="#322B1F"/>
<path d="M375.625 1010.62C371.316 1009.82 361.427 981.47 358 970.375L478.435 951C479.904 961.102 482.645 982.994 481.862 989.75C480.883 998.196 458.362 1005.65 433.884 1009.62C409.405 1013.6 381.01 1011.61 375.625 1010.62Z" fill="#3F3627"/>
<rect x="555.447" y="539" width="78.3349" height="118.533" rx="37.911" fill="#EBBAAA"/>
<path d="M552 600.181L555.5 597.681L607.5 614.181L632 598.681L641.5 602.681L651.5 634.181L593 647.181L546 631.181L552 600.181Z" fill="#EBBAAA"/>
<path d="M737.267 472.533C769.999 472.533 796.533 445.999 796.533 413.267C796.533 380.535 769.999 354 737.267 354C704.535 354 678 380.535 678 413.267C678 445.999 704.535 472.533 737.267 472.533Z" fill="#EBBAAA"/>
<path d="M458.267 475.533C425.535 475.533 399 448.999 399 416.267C399 383.535 425.535 357 458.267 357C490.999 357 517.533 383.535 517.533 416.267C517.533 448.999 490.999 475.533 458.267 475.533Z" fill="#EBBAAA"/>
<path d="M440 303.5C440 218.724 508.724 150 593.5 150C678.276 150 747 218.724 747 303.5V376L744.535 455.57C742.008 537.164 675.133 602 593.5 602C514.632 602 449.46 540.47 444.931 461.732L440 376V303.5Z" fill="#F4D4C9"/>
<path d="M566 508C584 518 605 517 627 508" stroke="#C99584" stroke-width="15.3993" stroke-linecap="round"/>
<path d="M656.5 394V412" stroke="black" stroke-width="24" stroke-linecap="round"/>
<path d="M527.5 394V412" stroke="black" stroke-width="24" stroke-linecap="round"/>
<path d="M641.364 335.657L698.622 333.154" stroke="#393939" stroke-width="24" stroke-linecap="round"/>
<path d="M550.855 335.624L493.545 335.122" stroke="#393939" stroke-width="24" stroke-linecap="round"/>
<path d="M592.114 425C581.891 443.038 578.784 466.229 598.298 466.229" stroke="#EBBAAA" stroke-width="17"/>
<path d="M583.784 686.409C578.973 671.925 581.378 650.948 581.378 650.948L559.729 659.44L533.749 607C503.761 612.494 502.478 614.491 480.828 624.48C455.002 636.395 460.141 676.42 456.292 730.857L451 1029.01L522.203 1040.5L569.832 1041L591 702.89C591 702.89 588.595 700.892 583.784 686.409Z" fill="#E5EBF9"/>
<path d="M605.597 391.152C602.317 378.892 611.137 366.716 623.809 366.013L694.478 362.091C707.15 361.387 717.264 372.512 715.36 385.059L711.224 412.33C709.803 421.692 702.013 428.775 692.558 429.3L633.155 432.597C623.701 433.122 615.174 426.945 612.727 417.798L605.597 391.152Z" fill="white" fill-opacity="0.29"/>
<path d="M601.572 399.278C602.207 402.531 605.358 404.653 608.61 404.018C611.863 403.383 613.985 400.232 613.35 396.98L601.572 399.278ZM605.225 386.673L611.114 385.523L611.072 385.309L611.015 385.098L605.225 386.673ZM619.842 367.868L619.719 361.87L619.447 361.875L619.176 361.905L619.842 367.868ZM698.325 366.256L698.947 360.288L698.576 360.25L698.202 360.257L698.325 366.256ZM714.151 381.934L720.107 382.661L720.113 382.608L720.119 382.556L714.151 381.934ZM706.483 395.246C706.082 398.535 708.423 401.527 711.712 401.928C715.002 402.329 717.994 399.988 718.395 396.699L706.483 395.246ZM613.35 396.98L611.114 385.523L599.336 387.822L601.572 399.278L613.35 396.98ZM611.015 385.098C611.028 385.146 610.859 384.333 611.15 382.991C611.417 381.758 612.054 380.18 613.483 378.556L604.473 370.63C598.756 377.13 598.401 384.442 599.436 388.247L611.015 385.098ZM613.483 378.556C615.127 376.686 616.807 375.493 618.17 374.763C619.618 373.987 620.523 373.83 620.508 373.831L619.176 361.905C615.766 362.286 609.693 364.695 604.473 370.63L613.483 378.556ZM619.965 373.867L698.449 372.255L698.202 360.257L619.719 361.87L619.965 373.867ZM697.704 372.224C698.451 372.301 700.068 372.631 701.783 373.371C703.516 374.118 704.875 375.078 705.678 376.136L715.235 368.88C712.748 365.604 709.378 363.578 706.536 362.352C703.676 361.119 700.873 360.489 698.947 360.288L697.704 372.224ZM705.678 376.136C706.911 377.761 707.555 379.178 707.877 380.181C708.238 381.303 708.142 381.711 708.183 381.312L720.119 382.556C720.448 379.391 719.238 374.152 715.235 368.88L705.678 376.136ZM708.195 381.208L706.483 395.246L718.395 396.699L720.107 382.661L708.195 381.208Z" fill="black"/>
<path d="M470.867 384.106C469.185 371.527 479.493 360.582 492.15 361.508L562.739 366.672C575.396 367.598 584.002 379.927 580.506 392.127L572.91 418.643C570.302 427.746 561.668 433.773 552.224 433.082L492.888 428.741C483.444 428.05 475.779 420.831 474.524 411.445L470.867 384.106Z" fill="white" fill-opacity="0.29"/>
<path d="M467.034 397.33C467.563 400.601 470.643 402.824 473.914 402.295C477.186 401.767 479.409 398.686 478.88 395.415L467.034 397.33ZM471.095 384.849L477.018 383.892L476.983 383.676L476.932 383.464L471.095 384.849ZM486.314 366.53L486.386 360.53L486.114 360.527L485.843 360.548L486.314 366.53ZM564.809 367.467L565.624 361.523L565.254 361.472L564.88 361.468L564.809 367.467ZM580.117 383.651L586.046 384.571L586.054 384.519L586.061 384.466L580.117 383.651ZM572.02 396.707C571.513 399.981 573.756 403.048 577.03 403.555C580.305 404.063 583.371 401.82 583.879 398.546L572.02 396.707ZM478.88 395.415L477.018 383.892L465.171 385.807L467.034 397.33L478.88 395.415ZM476.932 383.464C476.944 383.512 476.801 382.694 477.136 381.362C477.443 380.138 478.131 378.582 479.612 377.005L470.863 368.791C464.938 375.102 464.346 382.398 465.257 386.235L476.932 383.464ZM479.612 377.005C481.316 375.19 483.034 374.051 484.419 373.366C485.891 372.638 486.802 372.51 486.786 372.511L485.843 360.548C482.422 360.818 476.274 363.028 470.863 368.791L479.612 377.005ZM486.243 372.529L564.737 373.467L564.88 361.468L486.386 360.53L486.243 372.529ZM563.993 373.412C564.738 373.514 566.343 373.896 568.034 374.691C569.741 375.494 571.068 376.498 571.836 377.581L581.624 370.639C579.245 367.284 575.943 365.15 573.142 363.832C570.324 362.506 567.542 361.786 565.624 361.523L563.993 373.412ZM571.836 377.581C573.016 379.245 573.613 380.682 573.903 381.696C574.227 382.828 574.118 383.233 574.172 382.836L586.061 384.466C586.493 381.314 585.454 376.039 581.624 370.639L571.836 377.581ZM574.187 382.732L572.02 396.707L583.879 398.546L586.046 384.571L574.187 382.732Z" fill="black"/>
<path d="M579.5 389.5C583.833 387.167 595 383.9 605 389.5" stroke="black" stroke-width="10"/>
<path d="M599.458 685.912C587.491 675.424 589.486 667.1 591.633 658.943L596.696 654.948L626.154 651.951L654.691 610C654.691 610 695.655 615.993 709.463 623.984C723.271 631.974 731.556 719.373 731.556 719.373L738 1030.51H666L584.729 1016C583.502 911.455 572.795 711.246 584.729 704.391C600.379 695.401 602.22 688.332 599.458 685.912Z" fill="#DAE2F3"/>
<circle cx="632" cy="680" r="5" fill="#DAE2F3"/>
<circle cx="555" cy="675" r="5" fill="#E5EBF9"/>
<circle cx="595.5" cy="722.5" r="7.5" fill="#EDF2FF"/>
<circle cx="816.641" cy="991.5" r="7.5" fill="#332918"/>
<circle cx="387.5" cy="992.5" r="7.5" fill="#332918"/>
<ellipse cx="589.5" cy="794" rx="7.5" ry="8" fill="#EDF2FF"/>
<circle cx="585.5" cy="865.5" r="7.5" fill="#EDF2FF"/>
<path d="M703 251.5C699.9 225.486 697.103 206.806 695.036 189.463C693.573 177.178 693.421 174.045 728.342 199.786C763.264 225.526 768.5 282 759 330L744.5 387L733.717 384.335L738 312C720.405 294.288 706.1 277.514 703 251.5Z" fill="#6E6C6C"/>
<path d="M458.825 279.247C460.267 253.091 457.32 254.438 458.282 237C458.963 224.649 463.219 227.351 441.17 250C429 262.5 433.582 316.206 436.172 351.33L439.251 383.703L444.17 383.974L446.39 343.707C455.083 315.804 457.382 305.404 458.825 279.247Z" fill="#6E6C6C"/>
<path fill-rule="evenodd" clip-rule="evenodd" d="M598.664 129.084L598.663 129.083C598.589 129.083 598.515 129.084 598.441 129.084C598.367 129.084 598.293 129.083 598.22 129.083L598.219 129.084C551.058 129.247 438.137 155.396 433.893 277.768C446.432 262.695 465.799 256.12 483 246.283C519.21 225.575 548.777 217.995 588.009 217.995C621.722 217.995 663.072 225.626 691 239C715.982 250.964 738.13 259.938 762.547 277.769C758.303 155.396 645.822 129.247 598.664 129.084Z" fill="#272727"/>
<path d="M475.87 166.119L466.192 200.501L593.775 180.743L739.581 207.397L739.274 193.25L728.873 188.927L728.631 177.811L715.52 178.096L715.147 160.918L698.29 161.284L694.258 148.23L679.274 148.555L670.092 135.612L654.728 139.99L649.869 132.008L633.949 132.354L633.751 123.26L612.409 132.822L606.592 123.85L597.425 133.148L587.862 124.257L570.266 133.738L558.831 124.888L546.854 134.247L538.425 134.43L529.236 142.718L525.314 134.715L509.767 152.24L499.378 148.422L486.227 168.421L475.87 166.119Z" fill="#272727"/>
<mask id="mask0" mask-type="alpha" maskUnits="userSpaceOnUse" x="452" y="149" width="278" height="85">
<path d="M465.436 190.283L452.384 165.736L583.341 175.66L729.147 149.005L728.839 163.152L718.439 167.475L718.197 178.591L705.086 178.306L704.713 195.484L687.856 195.118L683.824 208.173L668.84 207.847L659.658 220.79L644.293 216.412L639.435 224.394L623.514 224.048L623.317 233.143L601.975 223.58L596.158 232.552L586.991 223.254L577.428 232.145L559.832 222.664L548.396 231.514L536.42 222.155L527.991 221.972L518.802 213.684L514.88 221.687L499.333 204.162L488.943 207.98L475.792 187.981L465.436 190.283Z" fill="#272727"/>
</mask>
<g mask="url(#mask0)">
<rect x="533" y="177" width="156.116" height="106.091" fill="#272727"/>
</g>
<path d="M635 622.5C638.439 611.124 635 603 634 598L662 608.5C662 608.5 671.5 620.5 665.5 648C658.927 678.127 629.857 690 623 698C620 701.5 621 659 598 654.5C608.5 652 628.5 644 635 622.5Z" fill="#E5EBF9"/>
<path d="M555.052 629.5C548 619.5 551.658 605.474 555.052 598L530.5 606.5C530.5 606.5 516.382 630.808 524.014 654.301C533.5 683.5 567.294 694.051 567 690.5C564 654.301 575.989 655.65 581 651C572.5 649 564.424 642.789 555.052 629.5Z" fill="#DAE2F3"/>
<path d="M574.682 734.783C567.451 703.994 561.87 648.733 543.285 603C543.285 603 524 605 505.619 609.884C487.238 614.768 465.582 623.653 465.582 623.653C453.88 641.669 454.873 690.682 451.569 793.79C448.265 896.898 442.442 1000.11 439 1046.54C453.455 1051.22 547.531 1072.63 595.027 1056C595.027 1044 599.21 1032.56 599.705 1019C601.32 974.727 595.817 932.577 595.027 857.78C594.329 791.782 585.307 780.022 574.682 734.783Z" fill="#483E2D"/>
<path d="M491 624.611L543 601C551 624.611 559.135 651.821 568 680.581C578 713.024 595 774.044 595 893L491 697.361L525 660.003L491 673.767V624.611Z" fill="#5A4D37"/>
<path d="M638.76 746.884C638.76 716.613 640.933 645.814 659.399 602L711.465 612.649C725.434 615.506 737.38 624.298 738.472 638.515C740.775 668.493 735.791 723.291 738.257 797.517C741.54 896.297 744.58 999.407 748 1043.88C719.021 1055.52 652.295 1072.43 605.105 1056.49C605.105 1046.14 601.608 1040 597.111 1020.61C596.907 985.826 594.452 947.968 595.112 887.722C595.805 824.495 638.76 777.156 638.76 746.884Z" fill="#483E2D"/>
<path d="M700 619.419L658 602C652.667 621.355 639.865 661.754 631 690.065C621 722 599 754.903 599 872L700 692.968L666 656.194L700 669.742V619.419Z" fill="#5A4D37"/>
<circle cx="685" cy="753" r="38" fill="#E5EBF9"/>
<path d="M685 728V735.353C675.254 735.353 667.353 743.254 667.353 753C667.353 762.746 675.254 770.647 685 770.647C694.746 770.647 702.647 762.746 702.647 753H710C710 766.807 698.807 778 685 778C671.193 778 660 766.807 660 753C660 739.193 671.193 728 685 728Z" fill="#3973FF"/>
<path d="M702.647 735.353H685V742.706H702.647V735.353Z" fill="#50E3C2"/>
<path d="M702.647 742.338H695.294V753H702.647V742.338Z" fill="#50E3C2"/>
<path d="M685 735.353V742.706C679.315 742.706 674.706 747.315 674.706 753C674.706 758.685 679.315 763.294 685 763.294C690.685 763.294 695.294 758.685 695.294 753H702.647C702.647 762.746 694.746 770.647 685 770.647C675.254 770.647 667.353 762.746 667.353 753C667.353 743.254 675.254 735.353 685 735.353Z" fill="#50E3C2"/>
<circle cx="582.5" cy="923.5" r="8.5" fill="#332918"/>
<circle cx="582.5" cy="988.5" r="8.5" fill="#332918"/>
</svg>
