<svg width="1200" height="1600" viewBox="0 0 1200 1600" fill="none" xmlns="http://www.w3.org/2000/svg">
<path d="M661 1110C673 1168 686 1301 676 1371" stroke="#EBBAAA" stroke-width="74" stroke-linecap="round" stroke-linejoin="bevel"/>
<path d="M508.412 1109C490 1211 508.412 1310 526 1374" stroke="#EBBAAA" stroke-width="74" stroke-linecap="round" stroke-linejoin="bevel"/>
<path d="M434.793 1064.63H588L574 1235L415 1215L434.793 1064.63Z" fill="#45474A"/>
<ellipse cx="585.09" cy="1084.27" rx="113.577" ry="53.7997" fill="#45474A"/>
<path d="M580 1064.63H728.702L747 1217L608.502 1231L580 1064.63Z" fill="#45474A"/>
<path d="M490 683C468 717 436 761 416 797C384 875 386 911 396 995" stroke="#EBBAAA" stroke-width="74" stroke-linecap="round" stroke-linejoin="bevel"/>
<path d="M574 1037L565 1093" stroke="#E5ECF3" stroke-width="13" stroke-linecap="round"/>
<path d="M594 1048L599 1107" stroke="#E5ECF3" stroke-width="13" stroke-linecap="round"/>
<path d="M419.89 736.136C424.496 681.777 469.962 640 524.515 640H631.292C685.507 640 730.808 681.275 735.839 735.257L749 876.477L740 1079L418 1085L408 876.477L419.89 736.136Z" fill="#D04040"/>
<ellipse cx="583.025" cy="653.879" rx="70.0249" ry="70.8789" fill="#993030"/>
<rect x="545.808" y="577.016" width="76.8567" height="115.285" rx="38.4283" fill="#EBBAAA"/>
<path d="M717 700C725 737 754 775 766 839C778 903 859 940 903 918" stroke="#EBBAAA" stroke-width="74" stroke-linecap="round" stroke-linejoin="bevel"/>
<path d="M325.884 777.804C322.065 773.882 322.11 767.617 325.985 763.75L452.993 637L512.3 770.727L402.993 857L325.884 777.804Z" fill="#2E2622"/>
<path d="M415.189 701.746C418.462 657.902 454.99 624 498.955 624H526.481C535.347 624 543.424 629.096 547.24 637.099L571.993 689L559.993 887V1054.58C559.993 1059.87 555.87 1064.25 550.587 1064.56L403.183 1073.33C397.221 1073.69 392.279 1068.77 392.604 1062.81L404.493 845L415.189 701.746Z" fill="#2E2622"/>
<path d="M573.993 690L547.993 612L510.993 623L533.993 718L573.993 690Z" fill="#45474A"/>
<path d="M842.109 777.804C845.928 773.882 845.883 767.617 842.008 763.75L715 637L655.693 770.727L765 857L842.109 777.804Z" fill="#2E2622"/>
<path d="M752.805 701.746C749.531 657.902 713.003 624 669.038 624H641.513C632.646 624 624.569 629.096 620.753 637.099L596 689L608 887V1054.58C608 1059.87 612.123 1064.25 617.406 1064.56L764.81 1073.33C770.773 1073.69 775.715 1068.77 775.389 1062.81L763.5 845L752.805 701.746Z" fill="#2E2622"/>
<path d="M594 690L620 612L657 623L634 718L594 690Z" fill="#45474A"/>
<ellipse cx="420.838" cy="440.809" rx="58.0695" ry="55.0806" fill="#EBBAAA"/>
<ellipse cx="747.905" cy="445.079" rx="58.0695" ry="55.0806" fill="#EBBAAA"/>
<path d="M409.592 339.162C407.955 241.798 486.432 161.99 583.81 161.99C681.187 161.99 759.665 241.798 758.027 339.162L755.852 468.474C754.273 562.362 677.711 637.647 583.81 637.647C489.908 637.647 413.346 562.362 411.767 468.474L409.592 339.162Z" fill="#EED4CC"/>
<path fill-rule="evenodd" clip-rule="evenodd" d="M547.646 516.178L550.404 533.592C554.65 560.398 579.822 578.686 606.628 574.441C633.434 570.195 651.723 545.023 647.477 518.217L644.719 500.803L547.646 516.178Z" fill="#393939"/>
<mask id="mask0" mask-type="alpha" maskUnits="userSpaceOnUse" x="547" y="497" width="102" height="79">
<path fill-rule="evenodd" clip-rule="evenodd" d="M547.22 512.954C547.315 513.902 547.437 514.854 547.588 515.807L550.405 533.591C554.65 560.397 579.823 578.686 606.629 574.441C633.435 570.195 651.724 545.023 647.478 518.217L644.661 500.432C644.51 499.479 644.333 498.536 644.13 497.605L547.22 512.954Z" fill="#434343"/>
</mask>
<g mask="url(#mask0)">
<ellipse cx="606.57" cy="574.07" rx="29.635" ry="16.1304" transform="rotate(-9 606.57 574.07)" fill="#FF6C6C"/>
<rect x="547.646" y="516.177" width="98.2832" height="20.2568" transform="rotate(-9 547.646 516.177)" fill="white"/>
</g>
<path d="M485.177 361.483L541.23 355.592" stroke="#393939" stroke-width="24" stroke-linecap="round"/>
<path d="M527.252 405.728L527.252 433.995" stroke="black" stroke-width="24" stroke-linecap="round"/>
<path d="M645.098 405.728L645.098 433.995" stroke="black" stroke-width="24" stroke-linecap="round"/>
<path d="M624 344L680.053 349.891" stroke="#393939" stroke-width="24" stroke-linecap="round"/>
<path d="M397.231 238.04C397.231 204.253 421.709 174.992 455.052 169.533L612.717 143.716C651.968 137.289 688.822 164.411 694.357 203.797C699.81 242.594 672.752 278.455 633.949 283.86L475 306C433.973 311.917 397.231 279.492 397.231 238.04Z" fill="#393939"/>
<rect x="402" y="274" width="23" height="123" rx="11.5" fill="#393939"/>
<path d="M468 277C452.8 286.6 436 288 424 338L416 288C439.667 280.334 483.2 267.4 468 277Z" fill="#393939"/>
<rect x="738" y="289" width="23" height="122" rx="11.5" fill="#393939"/>
<rect x="632" y="183.863" width="102.327" height="152.17" rx="51.1636" transform="rotate(-20.5 632 183.863)" fill="#393939"/>
<path d="M656.935 131C654.202 166.148 654 206.239 654 206.239L709.026 168.894C709.026 168.894 680.419 161.755 656.935 131Z" fill="#393939"/>
<path d="M441 331.252C445.67 302.488 451.862 288.088 445.67 265H755V351L737.524 341.29C737.524 309.756 702.231 321.783 683.216 302.488C652.922 271.748 618.59 304.693 598.648 324.539C598.648 300.283 587.062 300.834 576.859 295.873C578.343 318.806 541.424 334.021 516.38 334.021C516.38 309.214 516.569 310.757 505.438 302.488C481.726 310.52 468.154 302.488 441 331.252Z" fill="#393939"/>
<circle cx="513.358" cy="424.654" r="49.6536" fill="white" fill-opacity="0.55" stroke="#2E2622" stroke-width="10"/>
<circle cx="649.138" cy="427.216" r="49.6536" fill="white" fill-opacity="0.55" stroke="#2E2622" stroke-width="10"/>
<path d="M562.888 424.494L599.607 424.815" stroke="#2E2622" stroke-width="10" stroke-linecap="round"/>
<path d="M577.459 433C575.467 447.518 562.941 473.991 584.29 473.991" stroke="#EBBAAA" stroke-width="17"/>
<circle cx="621" cy="808" r="7" fill="#45474A"/>
<circle cx="625" cy="869" r="7" fill="#45474A"/>
<circle cx="626" cy="927" r="7" fill="#45474A"/>
<circle cx="626" cy="985" r="7" fill="#45474A"/>
<circle cx="616" cy="747" r="7" fill="#45474A"/>
<path d="M840.167 819.162L944.237 830.1L918.664 986.361L832.693 977.325L840.167 819.162Z" fill="#042D98"/>
<mask id="mask1" mask-type="alpha" maskUnits="userSpaceOnUse" x="835" y="815" width="112" height="168">
<path d="M842.523 815L946.594 825.938L921.02 982.199L835.049 973.163L842.523 815Z" fill="#042D98"/>
</mask>
<g mask="url(#mask1)">
<path d="M912.077 895.08L913.401 896.206C911.625 897.41 909.762 898.483 907.829 899.413C909.316 898.103 910.664 896.643 911.852 895.057C911.035 894.414 910.189 893.794 909.316 893.197C911.166 890.746 912.539 887.969 913.363 885.011C913.422 884.805 913.52 884.613 913.653 884.445C913.786 884.277 913.951 884.138 914.138 884.034C914.325 883.93 914.531 883.864 914.744 883.841C914.956 883.817 915.172 883.835 915.377 883.895C915.587 883.949 915.784 884.045 915.956 884.176C916.128 884.308 916.272 884.473 916.38 884.661C916.487 884.849 916.556 885.057 916.582 885.272C916.608 885.487 916.59 885.705 916.531 885.913C915.586 889.178 914.082 892.254 912.085 895.005L912.077 895.08ZM863.482 891.49C860.83 886.466 859.738 880.763 860.348 875.115C860.943 871.576 861.943 868.117 863.328 864.806C863.481 864.4 863.79 864.071 864.186 863.892C864.581 863.713 865.032 863.699 865.439 863.852C865.845 864.006 866.174 864.314 866.353 864.71C866.532 865.106 866.546 865.557 866.393 865.963C865.125 869.018 864.193 872.201 863.612 875.458C863.066 880.532 864.076 885.652 866.507 890.139C865.524 890.592 864.56 891.097 863.616 891.656C864.351 893.084 865.211 894.444 866.186 895.719C864.656 894.785 863.193 893.744 861.81 892.604C862.374 892.284 862.906 891.923 863.466 891.64L863.482 891.49Z" fill="white"/>
<path d="M916.509 899.112C924.335 907.29 928.674 918.191 928.61 929.51C928.546 940.83 924.083 951.681 916.165 959.77C913.61 949.79 905.993 945.386 896.876 944.428C885.62 943.245 880.987 938.243 881.866 929.877C882.745 921.51 887.692 921.006 890.622 920.555C893.514 920.262 896.343 919.523 899.008 918.364C900.146 917.649 899.861 915.305 897.778 915.996C897.087 916.332 896.33 916.511 895.562 916.522C894.794 916.533 894.033 916.376 893.333 916.06C897.385 916.486 897.606 914.385 898.881 915.24C900.157 916.095 900.426 915.705 900.72 915.433C901.014 915.16 900.834 914.345 901.656 913.028C901.834 912.76 901.929 912.446 901.928 912.125C901.928 911.803 901.832 911.489 901.652 911.223C901.473 910.956 901.219 910.749 900.922 910.627C900.624 910.505 900.297 910.474 899.983 910.538C897.844 910.579 895.712 910.291 893.662 909.684C891.668 908.986 889.766 908.047 888 906.889C898.099 907.761 908.168 904.906 916.307 898.863C915.415 897.973 914.447 897.074 913.509 896.255C917.285 893.634 920.759 890.602 923.867 887.215C924.24 886.882 924.725 886.701 925.225 886.708C925.725 886.715 926.205 886.909 926.569 887.252C926.933 887.595 927.155 888.063 927.192 888.562C927.228 889.061 927.076 889.555 926.766 889.948C923.67 893.296 920.239 896.316 916.525 898.962L916.509 899.112ZM858.423 894.865C848.669 886.254 843.89 873.612 844.217 857.146C844.231 856.619 844.451 856.12 844.83 855.755C845.209 855.39 845.717 855.189 846.243 855.196C846.769 855.209 847.269 855.429 847.634 855.809C847.999 856.188 848.199 856.696 848.192 857.222C847.85 872.992 852.42 884.852 861.902 892.803C860.765 893.518 859.699 894.279 858.629 895.077C864.259 899.789 870.851 903.214 877.944 905.111C877.18 905.524 876.55 906.102 875.775 906.628C873.275 904.671 870.261 903.482 867.099 903.203C863.937 902.925 860.762 903.569 857.959 905.059C859.511 907.625 861.909 909.571 864.74 910.56C867.572 911.55 870.659 911.523 873.473 910.483C875.424 909.967 876.699 910.101 876.624 910.814C868.714 909.565 860.873 926.418 858.806 946.079C857.816 953.348 859.371 960.735 863.209 966.988C857.038 963.401 851.842 958.352 848.078 952.286C844.315 946.22 842.099 939.323 841.627 932.2C841.154 925.077 842.439 917.947 845.367 911.437C848.296 904.927 852.78 899.237 858.423 894.865Z" fill="white"/>
<path d="M866.414 889.939C873.216 886.715 880.736 885.306 888.244 885.849C895.751 886.392 902.99 888.869 909.257 893.039C907.119 895.925 904.393 898.326 901.259 900.082C898.126 901.838 894.656 902.911 891.078 903.229C888.556 903.226 886.041 902.962 883.574 902.44C881.5 901.957 879.506 901.444 877.636 900.83C872.878 898.484 868.966 894.72 866.44 890.056L866.414 889.939ZM858.386 894.862L858.562 894.994L858.644 894.927L858.469 894.794L858.386 894.862ZM863.482 891.49L863.502 891.302L863.482 891.49Z" fill="white"/>
</g>
<rect x="842.844" y="793.698" width="104.643" height="23.3778" transform="rotate(6 842.844 793.698)" fill="#ECF1F5"/>
<rect x="834.804" y="806.285" width="118.002" height="23.3778" transform="rotate(6 834.804 806.285)" fill="#DDE3E6"/>
<ellipse cx="908.5" cy="956.5" rx="43.5" ry="42.5" fill="#EBBAAA"/>
<path d="M400 1425C414 1412 466.333 1393 491 1383L557 1349L570 1410V1436C570 1447.6 560.598 1457 549 1457H400C393.333 1445.67 388.217 1435.94 400 1425Z" fill="#C4C4C4"/>
<path d="M400 1425C414 1412 466.333 1393 491 1383L557 1349L570 1410V1436C570 1447.6 560.598 1457 549 1457H400C393.333 1445.67 388.217 1435.94 400 1425Z" fill="#EBBAAA"/>
<path d="M377 1468C377 1456.95 385.954 1448 397 1448H574L578 1468H377Z" fill="#2E2622"/>
<path d="M407 1448.5C407 1448.5 405 1442.5 407 1436.5C409 1430.5 415.5 1419.5 415.5 1419.5" stroke="#2E2622" stroke-width="17" stroke-linecap="round"/>
<path d="M406.5 1453C406.5 1453 413 1422 451 1422C489 1422 504 1453 504 1453" stroke="#2E2622" stroke-width="19"/>
<path d="M422 1435L440 1432" stroke="#DCB1A3" stroke-width="30" stroke-linecap="round"/>
<path d="M800 1425C786 1412 733.667 1393 709 1383L643 1349L630 1410V1436C630 1447.6 639.402 1457 651 1457H800C806.667 1445.67 811.783 1435.94 800 1425Z" fill="#C4C4C4"/>
<path d="M800 1425C786 1412 733.667 1393 709 1383L643 1349L630 1410V1436C630 1447.6 639.402 1457 651 1457H800C806.667 1445.67 811.783 1435.94 800 1425Z" fill="#EBBAAA"/>
<path d="M823 1468C823 1456.95 814.046 1448 803 1448H626L622 1468H823Z" fill="#2E2622"/>
<path d="M793 1448.5C793 1448.5 795 1442.5 793 1436.5C791 1430.5 784.5 1419.5 784.5 1419.5" stroke="#2E2622" stroke-width="17" stroke-linecap="round"/>
<path d="M793.5 1453C793.5 1453 787 1422 749 1422C711 1422 696 1453 696 1453" stroke="#2E2622" stroke-width="19"/>
<path d="M778 1435L760 1432" stroke="#DCB1A3" stroke-width="30" stroke-linecap="round"/>
</svg>
