<svg width="1200" height="1600" viewBox="0 0 1200 1600" fill="none" xmlns="http://www.w3.org/2000/svg">
<path d="M680.998 1200V1448" stroke="#EBBAAA" stroke-width="55" stroke-linecap="round" stroke-linejoin="bevel"/>
<path fill-rule="evenodd" clip-rule="evenodd" d="M701.499 1412C701.499 1412 704.999 1434 731.999 1437.5L728.999 1462.23H667.999L701.499 1412Z" fill="#EBBAAA"/>
<path fill-rule="evenodd" clip-rule="evenodd" d="M491.499 1416C491.499 1416 487.999 1438 460.999 1441.5L463.999 1466.23H524.999L491.499 1416Z" fill="#EBBAAA"/>
<path d="M709.374 716C753.374 794 785.374 946 769.374 990" stroke="#EBBAAA" stroke-width="74" stroke-linecap="round" stroke-linejoin="bevel"/>
<path d="M482.184 716C438.184 794 406.184 946 422.184 990" stroke="#EBBAAA" stroke-width="74" stroke-linecap="round" stroke-linejoin="bevel"/>
<path d="M518.999 1200L518.999 1465" stroke="#EBBAAA" stroke-width="55" stroke-linecap="round" stroke-linejoin="bevel"/>
<rect x="425.377" y="595.478" width="147.712" height="359.643" rx="73.856" transform="rotate(10 425.377 595.478)" fill="#216F74"/>
<rect width="147.712" height="359.643" rx="73.856" transform="matrix(-0.984808 0.173648 0.173648 0.984808 766.467 595.478)" fill="#216F74"/>
<path d="M376.2 975C369.8 956.6 373.999 868 381.999 838L490.2 857C477.999 895 475.999 945 466.999 994L466.846 994.007C445.7 995.014 384.181 997.944 376.2 975Z" fill="#216F74"/>
<path d="M813.999 980C820.399 961.6 821.999 897 813.999 867L699.999 862C712.2 900 714.2 950 723.2 999L723.353 999.007C744.499 1000.01 806.018 1002.94 813.999 980Z" fill="#216F74"/>
<path d="M599.998 1111C663.51 1111 714.998 1087.49 714.998 1058.5C714.998 1029.51 663.51 1006 599.998 1006C536.485 1006 484.998 1029.51 484.998 1058.5C484.998 1087.49 536.485 1111 599.998 1111Z" fill="#E2D3BD"/>
<path d="M598.998 938H728.998V1404H634.827L598.998 938Z" fill="#E2D3BD"/>
<path d="M600.998 938H470.998V1404H565.169L600.998 938Z" fill="#E2D3BD"/>
<path d="M452.271 638.63C450.985 612.771 469.651 590.208 495.292 586.626L599.999 572L704.706 586.626C730.347 590.208 749.013 612.771 747.727 638.63L739.999 794L749.596 1041.61C749.816 1047.28 745.279 1052 739.604 1052H460.394C454.719 1052 450.182 1047.28 450.402 1041.61L459.999 794L452.271 638.63Z" fill="white"/>
<path d="M766.73 664.068C768.648 636.448 751.418 611.101 725.029 602.724L664.142 583.394C652.752 579.779 640.491 585.487 635.926 596.531L612.999 652L599.999 722V1017L625.999 1038H758.383C764.498 1038 769.181 1032.56 768.272 1026.51L749.999 905L766.73 664.068Z" fill="#2F7F84"/>
<path d="M435.614 676.273C432.571 627.902 470.982 587 519.448 587H541.486C550.353 587 558.43 592.096 562.246 600.099L586.999 652L599.999 722V1017L573.999 1038H441.615C435.5 1038 430.817 1032.56 431.726 1026.51L449.999 905L435.614 676.273Z" fill="#2F7F84"/>
<circle cx="599.999" cy="819" r="7" fill="white"/>
<circle cx="598.999" cy="880" r="7" fill="white"/>
<circle cx="599.999" cy="938" r="7" fill="white"/>
<circle cx="599.999" cy="762" r="7" fill="white"/>
<rect x="561.999" y="534" width="76" height="115" rx="37.911" fill="#EBBAAA"/>
<path d="M609.999 644L636.999 565L673.999 586L650.999 671L609.999 644Z" fill="#216F74"/>
<path d="M589.999 644L562.999 565L525.999 586L548.999 671L589.999 644Z" fill="#216F74"/>
<path d="M742.499 449C774.255 449 799.999 423.256 799.999 391.5C799.999 359.744 774.255 334 742.499 334C710.743 334 684.999 359.744 684.999 391.5C684.999 423.256 710.743 449 742.499 449Z" fill="#EBBAAA"/>
<path d="M755.499 424C773.448 424 787.999 409.449 787.999 391.5C787.999 373.551 773.448 359 755.499 359C737.55 359 722.999 373.551 722.999 391.5C722.999 409.449 737.55 424 755.499 424Z" fill="#FFFBFB"/>
<rect x="761.467" y="397.014" width="17.8425" height="65.8671" rx="8.92125" transform="rotate(15 761.467 397.014)" fill="#E0E6ED"/>
<path d="M457.499 449C425.743 449 399.999 423.256 399.999 391.5C399.999 359.744 425.743 334 457.499 334C489.255 334 514.999 359.744 514.999 391.5C514.999 423.256 489.255 449 457.499 449Z" fill="#EBBAAA"/>
<path d="M446.499 424C428.55 424 413.999 409.449 413.999 391.5C413.999 373.551 428.55 359 446.499 359C464.448 359 478.999 373.551 478.999 391.5C478.999 409.449 464.448 424 446.499 424Z" fill="#FFFBFB"/>
<rect width="17.8425" height="65.8671" rx="8.92125" transform="matrix(-0.965926 0.258819 0.258819 0.965926 438.531 397.014)" fill="#E0E6ED"/>
<rect x="449.999" y="117" width="300" height="470" rx="150" fill="#F4D5CC"/>
<path d="M624.999 329C624.999 327.343 626.342 326 627.999 326H721.999C723.656 326 724.999 327.343 724.999 329V371C724.999 387.569 711.568 401 694.999 401H654.999C638.43 401 624.999 387.569 624.999 371V329Z" stroke="#393939" stroke-width="12"/>
<rect x="574.999" y="342" width="50" height="10" fill="#393939"/>
<path d="M474.999 329C474.999 327.343 476.342 326 477.999 326H571.999C573.656 326 574.999 327.343 574.999 329V371C574.999 387.569 561.568 401 544.999 401H504.999C488.43 401 474.999 387.569 474.999 371V329Z" stroke="#393939" stroke-width="12"/>
<path d="M597.79 200.62C523.86 200.62 469.207 200.62 465.288 254.5C462.015 299.5 440.741 282 438.999 237.52C443.188 123.154 554.89 99 600.987 99C638.766 129.742 671.73 200.62 597.79 200.62Z" fill="#393939"/>
<path d="M444.459 251.21C444.209 245.09 449.099 240 455.219 240C461.569 240 466.539 245.46 465.939 251.78L455.799 358.85C455.629 360.64 454.129 362 452.339 362C450.469 362 448.939 360.53 448.859 358.67L444.459 251.21Z" fill="#393939"/>
<path d="M753.979 251.21C754.229 245.09 749.339 240 743.219 240C736.869 240 731.899 245.46 732.499 251.78L742.639 358.85C742.809 360.64 744.309 362 746.099 362C747.969 362 749.499 360.53 749.579 358.67L753.979 251.21Z" fill="#393939"/>
<path d="M599.373 200.62C675.555 200.62 741.56 200.62 744.701 255.5C752.491 298.54 760.855 285 763 237.52C758.692 123.154 644.028 99 596.528 99C557.598 129.742 523.182 200.62 599.373 200.62Z" fill="#393939"/>
<path d="M490.867 238.22C488.244 203.55 483.144 187.72 488.05 174L732.45 167.986L760.999 258.52L750.361 327.33C745.037 293.74 732.45 232.51 709.366 215.076C673.704 188.142 640.632 213.01 623.038 232.51C623.038 208.67 612.818 209.21 603.812 204.34C605.124 226.88 558.551 236.045 536.459 236.045C557.167 226.88 560.53 210.197 550.708 202.067C520.497 204.34 513.377 207.88 490.867 238.22Z" fill="#393939"/>
<path fill-rule="evenodd" clip-rule="evenodd" d="M544.999 467.02V486.82C544.999 517.3 569.709 542 600.179 542C630.659 542 655.359 517.3 655.359 486.82V467.02H544.999Z" fill="#393939"/>
<mask id="mask0" mask-type="alpha" maskUnits="userSpaceOnUse" x="544" y="467" width="112" height="75">
<path fill-rule="evenodd" clip-rule="evenodd" d="M545.089 467C545.029 468.021 544.999 469.051 544.999 470.081V489.367C544.999 518.44 569.709 542 600.179 542C630.659 542 655.359 518.44 655.359 489.367V470.081C655.359 469.051 655.329 468.021 655.269 467H545.089Z" fill="white"/>
</mask>
<g mask="url(#mask0)">
<path d="M600.179 559.693C618.558 559.693 633.456 551.584 633.456 541.58C633.456 531.576 618.558 523.467 600.179 523.467C581.8 523.467 566.901 531.576 566.901 541.58C566.901 551.584 581.8 559.693 600.179 559.693Z" fill="#FF6C6C"/>
</g>
<rect x="544.999" y="467.02" width="110.363" height="22.7466" fill="white"/>
<path d="M662.537 338.407V366.297" stroke="black" stroke-width="24" stroke-linecap="round"/>
<path d="M537.459 338.407V366.297" stroke="black" stroke-width="24" stroke-linecap="round"/>
<path d="M652.847 287.437L708.147 293.247" stroke="#393939" stroke-width="24" stroke-linecap="round"/>
<path d="M551.147 287.437L495.847 293.247" stroke="#393939" stroke-width="24" stroke-linecap="round"/>
<path d="M600.848 389C590.929 406.5 587.914 429 606.848 429" stroke="#EBBAAA" stroke-width="17"/>
<path d="M839.411 1492.02C839.569 1473.93 838.969 1466.9 808.499 1462.52C778.03 1458.15 770.041 1446.99 735.499 1434.74C735.499 1434.74 722.499 1439.5 724.999 1454.5C710.999 1468 672.999 1459.5 661.16 1441.66C657.971 1434.8 650.934 1434.74 650.934 1434.74C650.934 1434.74 641.059 1447.59 640.929 1462.52C640.799 1477.46 640.855 1494.38 640.855 1494.38L839.411 1492.02Z" fill="#8D5D42"/>
<path d="M640.384 1494.32L641.29 1483.2L799.895 1485.67L839.442 1482.77L840.275 1489.44C840.891 1494.37 837.237 1498.81 832.277 1499.15L799.696 1501.41L644.634 1499C642.13 1498.96 640.181 1496.81 640.384 1494.32Z" fill="#67432F"/>
<path d="M360.546 1492.02C360.388 1473.93 360.988 1466.9 391.458 1462.52C421.927 1458.15 429.916 1446.99 464.458 1434.74C464.458 1434.74 477.458 1439.5 474.958 1454.5C488.958 1468 526.958 1459.5 538.797 1441.66C541.986 1434.8 549.023 1434.74 549.023 1434.74C549.023 1434.74 558.898 1447.59 559.028 1462.52C559.158 1477.46 559.102 1494.38 559.102 1494.38L360.546 1492.02Z" fill="#8D5D42"/>
<path d="M559.573 1494.32L558.667 1483.2L400.062 1485.67L360.515 1482.77L359.682 1489.44C359.067 1494.37 362.72 1498.81 367.68 1499.15L400.261 1501.41L555.323 1499C557.827 1498.96 559.776 1496.81 559.573 1494.32Z" fill="#67432F"/>
<path d="M632 747H732L722 840.095L682 862L642 840.095L632 747Z" fill="#216F74"/>
</svg>
