<svg width="1200" height="1600" viewBox="0 0 1200 1600" fill="none" xmlns="http://www.w3.org/2000/svg">
<path d="M770 1112C782 1170 778 1319 778 1394" stroke="#4A4E54" stroke-width="74" stroke-linecap="round" stroke-linejoin="bevel"/>
<path d="M617.412 1111C609 1213.5 629 1334 642 1400.5" stroke="#4A4E54" stroke-width="74" stroke-linecap="round" stroke-linejoin="bevel"/>
<path d="M552 1046H714L697 1226L675 1365H596L570 1288L557 1184L552 1046Z" fill="#33353A"/>
<path d="M575.999 1037V1173C577.333 1209 585.144 1267.76 590.376 1290C594.376 1307 602.667 1339 617 1361" stroke="#C8CFE2" stroke-width="14"/>
<path d="M706 1056H862.006L852 1191.5L836.5 1293L814.5 1365L740.205 1373L718.154 1249.62L706 1056Z" fill="#33353A"/>
<path d="M848 1046L839.5 1173.5C838.167 1209.5 828.896 1270 822.5 1286C818.902 1295 805 1336 799 1359" stroke="#C8CFE2" stroke-width="14"/>
<path d="M677 1355H596L599 1378C630.632 1378 645.368 1378 677 1378V1355Z" fill="#282A2F"/>
<path d="M818 1355H739V1378C778.304 1378 776.696 1378 816 1378L818 1355Z" fill="#282A2F"/>
<path d="M500.764 1479.02C500.563 1456.07 503.69 1442.11 523.639 1432.73C543.589 1423.35 562.38 1405.32 596.894 1389.86C596.894 1389.86 601.437 1389.01 608.832 1393.01C615.143 1396.42 623.248 1404.79 635.462 1404.69C648.725 1404.57 660.543 1401.76 667.886 1397.91C671.059 1389.22 678.096 1389.16 678.096 1389.16C678.096 1389.16 688.006 1408.02 688.171 1426.97C688.336 1445.91 688.319 1477.38 688.319 1477.38L500.764 1479.02Z" fill="#DCE1E6"/>
<path d="M590.794 1393.73C592.96 1398.6 592.96 1404.55 592.96 1408.34L574.553 1400.22L578.884 1415.92L562.102 1410.51V1426.21L549.109 1419.17V1432.71" stroke="white" stroke-width="5.41368" stroke-linecap="round" stroke-linejoin="round"/>
<path d="M682.286 1399.14C678.433 1404.37 664.541 1407.5 659.314 1408.27C654.088 1409.04 648.487 1408.36 650.728 1417.01C652.313 1423.12 667.543 1420.65 673.498 1420.6C678.34 1420.55 685.13 1435.19 687.658 1430.22C687.658 1413.22 684.451 1404.01 682.286 1399.14Z" fill="#37393F"/>
<path d="M508.311 1434.49C514.432 1432.27 520.914 1430.59 533.341 1427.77L528.06 1442.98L528.211 1460.3L492.839 1460.61C491.395 1460.62 488.816 1458.7 490.047 1450.89C491.586 1441.13 499.614 1437.64 508.311 1434.49Z" fill="#EAF4FB"/>
<path d="M559.157 1435.4L575.636 1466.81" stroke="#37393F" stroke-width="17.3238"/>
<path d="M581.859 1423.5L601.606 1461.24" stroke="#37393F" stroke-width="17.3238"/>
<path d="M604.094 1410.37L631.397 1463.56" stroke="#37393F" stroke-width="17.3238"/>
<path d="M688.912 1474.42L687.885 1456.2L529.279 1458.67L489.733 1455.77L488.525 1469.74C488.108 1474.57 491.726 1478.8 496.557 1479.13L529.478 1481.41L684.655 1479C687.116 1478.96 689.05 1476.88 688.912 1474.42Z" fill="#C7CBCF"/>
<path d="M916.412 1481.02C916.612 1458.07 913.486 1444.11 893.536 1434.73C873.587 1425.35 854.796 1407.32 820.282 1391.86C820.282 1391.86 815.739 1391.01 808.344 1395.01C802.033 1398.42 793.927 1406.79 781.714 1406.69C768.451 1406.57 756.632 1403.76 749.29 1399.91C746.117 1391.22 739.08 1391.16 739.08 1391.16C739.08 1391.16 729.17 1410.02 729.005 1428.97C728.839 1447.91 728.856 1479.38 728.856 1479.38L916.412 1481.02Z" fill="#DCE1E6"/>
<path d="M826.381 1395.73C824.216 1400.6 824.216 1406.55 824.216 1410.34L842.622 1402.22L838.291 1417.92L855.074 1412.51V1428.21L868.067 1421.17V1434.71" stroke="white" stroke-width="5.41368" stroke-linecap="round" stroke-linejoin="round"/>
<path d="M734.89 1401.14C738.742 1406.37 752.635 1409.5 757.862 1410.27C763.088 1411.04 768.689 1410.36 766.447 1419.01C764.863 1425.12 749.633 1422.65 743.678 1422.6C738.836 1422.55 732.046 1437.19 729.518 1432.22C729.518 1415.22 732.725 1406.01 734.89 1401.14Z" fill="#37393F"/>
<path d="M908.865 1436.49C902.744 1434.27 896.262 1432.59 883.835 1429.77L889.116 1444.98L888.965 1462.3L924.337 1462.61C925.781 1462.62 928.36 1460.7 927.129 1452.89C925.59 1443.13 917.562 1439.64 908.865 1436.49Z" fill="#EAF4FB"/>
<path d="M858.018 1437.4L841.54 1468.81" stroke="#37393F" stroke-width="17.3238"/>
<path d="M835.317 1425.5L815.57 1463.24" stroke="#37393F" stroke-width="17.3238"/>
<path d="M813.082 1412.37L785.779 1465.56" stroke="#37393F" stroke-width="17.3238"/>
<path d="M728.264 1476.42L729.291 1458.2L887.896 1460.67L927.443 1457.77L928.651 1471.74C929.068 1476.57 925.449 1480.8 920.619 1481.13L887.698 1483.41L732.521 1481C730.06 1480.96 728.125 1478.88 728.264 1476.42Z" fill="#C7CBCF"/>
<path d="M889.732 751.051C936.919 831.391 934 907 846 931" stroke="#EBBAAA" stroke-width="82" stroke-linecap="round" stroke-linejoin="bevel"/>
<path d="M606.001 633C504.001 677.049 434 851.001 316.001 679.001" stroke="#EBBAAA" stroke-width="82" stroke-linecap="round" stroke-linejoin="bevel"/>
<path d="M549.537 603.309C591.813 568.688 654.669 577.703 685.51 622.811C715.792 667.104 702.512 727.754 656.49 755.338L508 844.338L426.002 704.478L549.537 603.309Z" fill="#2E3032"/>
<path d="M877.351 621.296C840.725 579.825 775.675 581.011 740.586 623.79C707.865 663.682 715.402 722.877 757.076 753.297L867.833 834.142L989.804 748.626L877.351 621.296Z" fill="#2E3032"/>
<path d="M553.338 703.709C556.638 645.066 604.626 598.903 663.353 597.878L741.365 596.516C802.789 595.444 853.643 643.99 855.424 705.397L859.93 860.723L861.856 1057C861.856 1057 759.001 1063 701.001 1063C643.001 1063 541.867 1057 541.867 1057L544.195 866.18L553.338 703.709Z" fill="#2E3032"/>
<circle cx="698.972" cy="632.971" r="70.7471" transform="rotate(-1 698.972 632.971)" fill="#424649"/>
<rect x="651.739" y="556.245" width="93.9921" height="122.831" rx="46.996" transform="rotate(-1 651.739 556.245)" fill="#EBBAAA"/>
<ellipse cx="550.258" cy="427.281" rx="59.4978" ry="56.4354" fill="#EBBAAA"/>
<ellipse cx="855.372" cy="431.656" rx="59.4978" ry="56.4354" fill="#EBBAAA"/>
<path d="M529.525 322.177C524.391 224.019 602.597 141.615 700.89 141.615C799.589 141.615 877.944 224.673 872.197 323.205L864.026 463.315C858.959 550.194 787.027 618.052 700.001 618.052C613.118 618.052 541.443 550.029 536.905 463.264L529.525 322.177Z" fill="#EED4CC"/>
<path d="M675.001 518.875C691.889 534.266 727.114 529.373 736.765 513.471" stroke="#C99584" stroke-width="15" stroke-linecap="round"/>
<path d="M660.62 346.404L596.191 334.116C595.517 333.988 594.823 334.205 594.343 334.695L579.866 349.477C578.696 350.671 579.371 352.688 581.024 352.937L661.321 365.051C664.125 365.474 666.501 362.99 665.954 360.207L663.873 349.638C663.55 347.997 662.263 346.717 660.62 346.404Z" fill="#393939"/>
<path d="M733.383 346.403L797.813 334.115C798.487 333.987 799.181 334.204 799.661 334.694L814.138 349.476C815.307 350.67 814.632 352.687 812.98 352.936L732.682 365.05C729.878 365.473 727.502 362.989 728.05 360.206L730.13 349.637C730.453 347.996 731.741 346.716 733.383 346.403Z" fill="#393939"/>
<path d="M635.289 393.809L635.289 422.772" stroke="black" stroke-width="24.5903" stroke-linecap="round"/>
<path d="M762.035 392.809L762.035 421.772" stroke="black" stroke-width="24.5903" stroke-linecap="round"/>
<path d="M695.443 406.972C690.442 426.972 659.443 477.972 709.443 477.972" stroke="#EBBAAA" stroke-width="17.4181"/>
<path d="M826.942 250.5C823.603 222.47 811.067 208.455 808.84 189.768C807.263 176.531 807.099 173.155 844.727 200.891C882.355 228.626 887.996 289.475 877.76 341.194L868.284 400.562L856.666 397.69L855.133 321.8C839.442 292 830.282 278.53 826.942 250.5Z" fill="#272727"/>
<path d="M550.442 286.5C551.997 258.317 552.705 259.777 553.742 240.988C554.476 227.68 559.061 230.592 535.303 254.995C522.191 268.464 527.128 326.332 529.919 364.177L532.643 390.708L537.942 391L540.928 355.963C550.294 325.898 548.888 314.683 550.442 286.5Z" fill="#272727"/>
<path fill-rule="evenodd" clip-rule="evenodd" d="M705 124.711L704.999 124.71C704.92 124.71 704.84 124.71 704.76 124.71C704.681 124.71 704.601 124.71 704.522 124.71L704.521 124.711C653.705 124.886 532.034 153.061 527.462 284.916C540.973 268.674 561.84 261.59 580.374 250.991C619.39 228.679 646.04 227 697.521 227C749.001 227 784.909 236.58 815 250.991C841.919 263.881 855.273 265.703 881.581 284.916C877.009 153.062 755.812 124.886 705 124.711Z" fill="#272727"/>
<path d="M696.696 235.737C751.719 203.855 775.545 214.14 793.372 203.855C781.03 198.37 807.77 159.176 719.837 178.143C693.611 183.8 688.112 215.168 696.696 235.737Z" fill="#272727"/>
<path d="M666.19 242.274C703.214 219.647 720.216 215.009 738.043 204.724C725.701 199.239 693.661 183.916 677.206 197.08C670.164 206.266 657.605 221.704 666.19 242.274Z" fill="#272727"/>
<path d="M628.696 248.737C683.719 216.855 716.616 210.284 734.442 200C722.101 194.514 739.77 172.176 651.837 191.143C625.611 196.8 620.112 228.168 628.696 248.737Z" fill="#272727"/>
<path d="M572.691 164.615L562.263 201.661L699.732 180.372L856.836 209.091L856.505 193.848L845.298 189.19L845.038 177.213L830.911 177.52L830.509 159.011L812.345 159.406L808.001 145.339L791.856 145.69L781.963 131.744L765.408 136.461L760.173 127.861L743.019 128.234L742.806 118.435L719.81 128.738L713.543 119.071L703.665 129.089L693.361 119.509L674.402 129.725L662.08 120.189L649.175 130.274L640.094 130.471L630.192 139.401L625.967 130.778L609.215 149.66L598.02 145.546L583.85 167.096L572.691 164.615Z" fill="#272727"/>
<path d="M853.694 211.305L837.539 207.496L860.404 287.564L864.943 382.46L871.113 381.289L871.852 374.354L876.699 373.434L875.115 365.085L882.607 363.663L880.57 352.93L885.847 349.457L884.036 339.916L888.691 333.164L885.061 323.659L888.021 320.009L886.097 309.871L890.063 309.119L883.494 296.156L886.782 291.825L881.684 286.615L884.518 279.899L878.402 269.322L881.01 261.413L875.573 254.414L874.554 249.047L874.554 240.935L878.402 235.935L863.554 231.983L864.072 225.089L853.837 218.074L853.694 211.305Z" fill="#272727"/>
<path d="M556.022 200.305L572.178 196.496L545.645 263L534.602 354.085L527.109 352.663L529.146 341.93L523.87 338.457L525.68 328.916L521.026 322.164L524.656 312.659L521.696 309.009L523.62 298.871L519.653 298.119L526.223 285.156L522.935 280.825L528.033 275.615L525.198 268.899L531.315 258.322L528.706 250.413L534.144 243.414L535.162 238.047L535.162 229.935L531.315 224.935L546.163 220.983L545.645 214.089L555.879 207.074L556.022 200.305Z" fill="#272727"/>
<path d="M610.16 756.36H633.86V748.14H600.62V792H610.16V774.24H631.1V766.02H610.16V756.36ZM663.918 792.84C676.998 792.84 687.618 782.64 687.618 770.04C687.618 757.56 676.998 747.3 663.918 747.3C650.898 747.3 640.338 757.56 640.338 770.04C640.338 782.64 650.898 792.84 663.918 792.84ZM663.918 755.94C671.778 755.94 678.078 762.54 678.078 770.04C678.078 777.6 671.778 784.26 663.918 784.26C656.118 784.26 649.758 777.6 649.758 770.04C649.758 762.54 656.118 755.94 663.918 755.94ZM706.571 792V778.32H713.051C716.651 783.12 719.951 787.5 723.551 792H734.891C731.351 787.32 727.331 782.04 723.551 777.3C729.011 774.96 732.491 769.74 732.491 763.38C732.491 754.38 726.071 748.14 716.651 748.14H697.151V792H706.571ZM706.571 770.1V756.36H716.651C722.231 756.36 723.071 761.1 723.071 763.38C723.071 767.94 719.591 770.1 716.651 770.1H706.571Z" fill="white"/>
<path d="M610.16 756.36V754.36H608.16V756.36H610.16ZM633.86 756.36V758.36H635.86V756.36H633.86ZM633.86 748.14H635.86V746.14H633.86V748.14ZM600.62 748.14V746.14H598.62V748.14H600.62ZM600.62 792H598.62V794H600.62V792ZM610.16 792V794H612.16V792H610.16ZM610.16 774.24V772.24H608.16V774.24H610.16ZM631.1 774.24V776.24H633.1V774.24H631.1ZM631.1 766.02H633.1V764.02H631.1V766.02ZM610.16 766.02H608.16V768.02H610.16V766.02ZM610.16 758.36H633.86V754.36H610.16V758.36ZM635.86 756.36V748.14H631.86V756.36H635.86ZM633.86 746.14H600.62V750.14H633.86V746.14ZM598.62 748.14V792H602.62V748.14H598.62ZM600.62 794H610.16V790H600.62V794ZM612.16 792V774.24H608.16V792H612.16ZM610.16 776.24H631.1V772.24H610.16V776.24ZM633.1 774.24V766.02H629.1V774.24H633.1ZM631.1 764.02H610.16V768.02H631.1V764.02ZM612.16 766.02V756.36H608.16V766.02H612.16ZM663.918 794.84C678.028 794.84 689.618 783.818 689.618 770.04H685.618C685.618 781.462 675.968 790.84 663.918 790.84V794.84ZM689.618 770.04C689.618 756.382 678.028 745.3 663.918 745.3V749.3C675.968 749.3 685.618 758.738 685.618 770.04H689.618ZM663.918 745.3C649.858 745.3 638.338 756.392 638.338 770.04H642.338C642.338 758.728 651.938 749.3 663.918 749.3V745.3ZM638.338 770.04C638.338 783.808 649.858 794.84 663.918 794.84V790.84C651.938 790.84 642.338 781.472 642.338 770.04H638.338ZM663.918 757.94C670.652 757.94 676.078 763.623 676.078 770.04H680.078C680.078 761.457 672.905 753.94 663.918 753.94V757.94ZM676.078 770.04C676.078 776.534 670.635 782.26 663.918 782.26V786.26C672.921 786.26 680.078 778.666 680.078 770.04H676.078ZM663.918 782.26C657.255 782.26 651.758 776.528 651.758 770.04H647.758C647.758 778.672 654.981 786.26 663.918 786.26V782.26ZM651.758 770.04C651.758 763.628 657.239 757.94 663.918 757.94V753.94C654.997 753.94 647.758 761.452 647.758 770.04H651.758ZM706.571 792V794H708.571V792H706.571ZM706.571 778.32V776.32H704.571V778.32H706.571ZM713.051 778.32L714.651 777.12L714.051 776.32H713.051V778.32ZM723.551 792L721.989 793.249L722.59 794H723.551V792ZM734.891 792V794H738.912L736.486 790.793L734.891 792ZM723.551 777.3L722.763 775.462L720.351 776.495L721.987 778.547L723.551 777.3ZM697.151 748.14V746.14H695.151V748.14H697.151ZM697.151 792H695.151V794H697.151V792ZM706.571 770.1H704.571V772.1H706.571V770.1ZM706.571 756.36V754.36H704.571V756.36H706.571ZM708.571 792V778.32H704.571V792H708.571ZM706.571 780.32H713.051V776.32H706.571V780.32ZM711.451 779.52C715.051 784.319 718.368 788.722 721.989 793.249L725.113 790.751C721.535 786.278 718.251 781.921 714.651 777.12L711.451 779.52ZM723.551 794H734.891V790H723.551V794ZM736.486 790.793C732.945 786.113 728.912 780.815 725.115 776.053L721.987 778.547C725.75 783.265 729.757 788.527 733.296 793.207L736.486 790.793ZM724.339 779.138C730.556 776.474 734.491 770.516 734.491 763.38H730.491C730.491 768.964 727.466 773.446 722.763 775.462L724.339 779.138ZM734.491 763.38C734.491 758.387 732.7 754.041 729.492 750.946C726.29 747.855 721.809 746.14 716.651 746.14V750.14C720.913 750.14 724.352 751.545 726.715 753.824C729.072 756.099 730.491 759.373 730.491 763.38H734.491ZM716.651 746.14H697.151V750.14H716.651V746.14ZM695.151 748.14V792H699.151V748.14H695.151ZM697.151 794H706.571V790H697.151V794ZM708.571 770.1V756.36H704.571V770.1H708.571ZM706.571 758.36H716.651V754.36H706.571V758.36ZM716.651 758.36C718.752 758.36 719.711 759.19 720.252 760.066C720.883 761.088 721.071 762.417 721.071 763.38H725.071C725.071 762.063 724.839 759.882 723.655 757.964C722.381 755.9 720.13 754.36 716.651 754.36V758.36ZM721.071 763.38C721.071 766.636 718.697 768.1 716.651 768.1V772.1C720.486 772.1 725.071 769.244 725.071 763.38H721.071ZM716.651 768.1H706.571V772.1H716.651V768.1Z" fill="white"/>
<path d="M644.78 831.58H618.26V839.92H634.64C633.26 844.6 627.5 848.26 621.86 848.26C614.06 848.26 607.64 841.6 607.64 834.1C607.64 826.6 614.06 820 621.86 820C626.6 820 630.86 822.94 633.56 826.66L641.72 821.92C637.4 815.5 630.02 811.36 621.86 811.36C608.84 811.36 598.22 821.62 598.22 834.1C598.22 846.64 608.84 856.84 621.86 856.84C633.68 856.84 643.82 848.86 644.78 837.64C644.84 836.74 644.9 835.9 644.9 835.12C644.9 834.16 644.84 832.78 644.78 831.58ZM664.48 820.36H688.24V812.14H655V856H688.24V847.78H664.48V838.42H685.48V830.14H664.48V820.36ZM709.251 841.78L713.511 837.34L727.251 856H738.891L720.051 830.74L738.111 812.14H726.351L709.251 830.44V812.14H699.771V856H709.251V841.78ZM765.218 856.78C777.098 856.78 784.778 849.46 784.778 838.24V812.2H775.298V838.24C775.298 846.52 768.938 848.62 765.218 848.62C761.378 848.62 755.018 846.52 755.018 838.24V812.2H745.538V838.24C745.538 849.46 753.278 856.78 765.218 856.78ZM808.017 856V812.14H798.537V856H808.017Z" fill="#E37F5E"/>
<path d="M644.78 831.58L646.778 831.48L646.683 829.58H644.78V831.58ZM618.26 831.58V829.58H616.26V831.58H618.26ZM618.26 839.92H616.26V841.92H618.26V839.92ZM634.64 839.92L636.558 840.486L637.315 837.92H634.64V839.92ZM633.56 826.66L631.941 827.835L633.003 829.297L634.565 828.389L633.56 826.66ZM641.72 821.92L642.725 823.649L644.572 822.576L643.379 820.803L641.72 821.92ZM644.78 837.64L646.773 837.81L646.774 837.792L646.776 837.773L644.78 837.64ZM644.78 829.58H618.26V833.58H644.78V829.58ZM616.26 831.58V839.92H620.26V831.58H616.26ZM618.26 841.92H634.64V837.92H618.26V841.92ZM632.722 839.354C632.202 841.118 630.793 842.85 628.761 844.166C626.741 845.473 624.265 846.26 621.86 846.26V850.26C625.095 850.26 628.319 849.217 630.934 847.524C633.537 845.84 635.698 843.402 636.558 840.486L632.722 839.354ZM621.86 846.26C615.181 846.26 609.64 840.512 609.64 834.1H605.64C605.64 842.688 612.939 850.26 621.86 850.26V846.26ZM609.64 834.1C609.64 827.699 615.17 822 621.86 822V818C612.95 818 605.64 825.501 605.64 834.1H609.64ZM621.86 822C625.764 822 629.486 824.452 631.941 827.835L635.179 825.485C632.234 821.428 627.436 818 621.86 818V822ZM634.565 828.389L642.725 823.649L640.715 820.191L632.555 824.931L634.565 828.389ZM643.379 820.803C638.697 813.845 630.703 809.36 621.86 809.36V813.36C629.337 813.36 636.103 817.155 640.061 823.037L643.379 820.803ZM621.86 809.36C607.807 809.36 596.22 820.445 596.22 834.1H600.22C600.22 822.795 609.873 813.36 621.86 813.36V809.36ZM596.22 834.1C596.22 847.818 607.81 858.84 621.86 858.84V854.84C609.87 854.84 600.22 845.462 600.22 834.1H596.22ZM621.86 858.84C634.515 858.84 645.708 850.256 646.773 837.81L642.787 837.469C641.932 847.464 632.845 854.84 621.86 854.84V858.84ZM646.776 837.773C646.834 836.899 646.9 835.982 646.9 835.12H642.9C642.9 835.818 642.846 836.581 642.784 837.507L646.776 837.773ZM646.9 835.12C646.9 834.103 646.837 832.675 646.778 831.48L642.782 831.68C642.843 832.885 642.9 834.217 642.9 835.12H646.9ZM664.48 820.36V818.36H662.48V820.36H664.48ZM688.24 820.36V822.36H690.24V820.36H688.24ZM688.24 812.14H690.24V810.14H688.24V812.14ZM655 812.14V810.14H653V812.14H655ZM655 856H653V858H655V856ZM688.24 856V858H690.24V856H688.24ZM688.24 847.78H690.24V845.78H688.24V847.78ZM664.48 847.78H662.48V849.78H664.48V847.78ZM664.48 838.42V836.42H662.48V838.42H664.48ZM685.48 838.42V840.42H687.48V838.42H685.48ZM685.48 830.14H687.48V828.14H685.48V830.14ZM664.48 830.14H662.48V832.14H664.48V830.14ZM664.48 822.36H688.24V818.36H664.48V822.36ZM690.24 820.36V812.14H686.24V820.36H690.24ZM688.24 810.14H655V814.14H688.24V810.14ZM653 812.14V856H657V812.14H653ZM655 858H688.24V854H655V858ZM690.24 856V847.78H686.24V856H690.24ZM688.24 845.78H664.48V849.78H688.24V845.78ZM666.48 847.78V838.42H662.48V847.78H666.48ZM664.48 840.42H685.48V836.42H664.48V840.42ZM687.48 838.42V830.14H683.48V838.42H687.48ZM685.48 828.14H664.48V832.14H685.48V828.14ZM666.48 830.14V820.36H662.48V830.14H666.48ZM709.251 841.78L707.808 840.395L707.251 840.976V841.78H709.251ZM713.511 837.34L715.122 836.154L713.713 834.241L712.068 835.955L713.511 837.34ZM727.251 856L725.641 857.186L726.24 858H727.251V856ZM738.891 856V858H742.878L740.495 854.804L738.891 856ZM720.051 830.74L718.617 829.347L717.429 830.57L718.448 831.936L720.051 830.74ZM738.111 812.14L739.546 813.533L742.841 810.14H738.111V812.14ZM726.351 812.14V810.14H725.483L724.89 810.775L726.351 812.14ZM709.251 830.44H707.251V835.51L710.713 831.805L709.251 830.44ZM709.251 812.14H711.251V810.14H709.251V812.14ZM699.771 812.14V810.14H697.771V812.14H699.771ZM699.771 856H697.771V858H699.771V856ZM709.251 856V858H711.251V856H709.251ZM710.695 843.165L714.955 838.725L712.068 835.955L707.808 840.395L710.695 843.165ZM711.901 838.526L725.641 857.186L728.862 854.814L715.122 836.154L711.901 838.526ZM727.251 858H738.891V854H727.251V858ZM740.495 854.804L721.655 829.544L718.448 831.936L737.288 857.196L740.495 854.804ZM721.486 832.133L739.546 813.533L736.677 810.747L718.617 829.347L721.486 832.133ZM738.111 810.14H726.351V814.14H738.111V810.14ZM724.89 810.775L707.79 829.075L710.713 831.805L727.813 813.505L724.89 810.775ZM711.251 830.44V812.14H707.251V830.44H711.251ZM709.251 810.14H699.771V814.14H709.251V810.14ZM697.771 812.14V856H701.771V812.14H697.771ZM699.771 858H709.251V854H699.771V858ZM711.251 856V841.78H707.251V856H711.251ZM784.778 812.2H786.778V810.2H784.778V812.2ZM775.298 812.2V810.2H773.298V812.2H775.298ZM755.018 812.2H757.018V810.2H755.018V812.2ZM745.538 812.2V810.2H743.538V812.2H745.538ZM765.218 858.78C771.569 858.78 776.986 856.817 780.83 853.168C784.684 849.509 786.778 844.323 786.778 838.24H782.778C782.778 843.377 781.032 847.461 778.076 850.267C775.11 853.083 770.747 854.78 765.218 854.78V858.78ZM786.778 838.24V812.2H782.778V838.24H786.778ZM784.778 810.2H775.298V814.2H784.778V810.2ZM773.298 812.2V838.24H777.298V812.2H773.298ZM773.298 838.24C773.298 841.793 771.971 843.783 770.444 844.942C768.823 846.172 766.764 846.62 765.218 846.62V850.62C767.392 850.62 770.373 850.018 772.862 848.128C775.445 846.167 777.298 842.967 777.298 838.24H773.298ZM765.218 846.62C763.603 846.62 761.514 846.168 759.882 844.938C758.344 843.779 757.018 841.792 757.018 838.24H753.018C753.018 842.968 754.872 846.171 757.474 848.132C759.982 850.022 762.993 850.62 765.218 850.62V846.62ZM757.018 838.24V812.2H753.018V838.24H757.018ZM755.018 810.2H745.538V814.2H755.018V810.2ZM743.538 812.2V838.24H747.538V812.2H743.538ZM743.538 838.24C743.538 844.328 745.65 849.515 749.528 853.172C753.395 856.819 758.839 858.78 765.218 858.78V854.78C759.656 854.78 755.261 853.081 752.273 850.263C749.296 847.455 747.538 843.372 747.538 838.24H743.538ZM808.017 856V858H810.017V856H808.017ZM808.017 812.14H810.017V810.14H808.017V812.14ZM798.537 812.14V810.14H796.537V812.14H798.537ZM798.537 856H796.537V858H798.537V856ZM810.017 856V812.14H806.017V856H810.017ZM808.017 810.14H798.537V814.14H808.017V810.14ZM796.537 812.14V856H800.537V812.14H796.537ZM798.537 858H808.017V854H798.537V858Z" fill="#E37F5E"/>
<path d="M371.95 662.416L215.545 722.454L129.403 498.046L285.808 438.008C291.418 435.854 297.705 438.512 299.859 444.122L378.17 648.13C380.345 653.797 377.561 660.262 371.95 662.416Z" fill="#4C5B60"/>
<path opacity="0.3" d="M151.452 489.68L129.351 498.164L215.493 722.572L237.594 714.089L151.452 489.68Z" fill="#CCDDE5"/>
<g opacity="0.11">
<g opacity="0.11">
<g opacity="0.11">
<path opacity="0.11" d="M201.644 734.682C201.417 734.769 201.169 734.8 200.933 734.695C200.463 734.485 200.267 733.975 200.477 733.505L320.748 463.477C320.957 463.006 321.467 462.811 321.938 463.02C322.408 463.23 322.604 463.74 322.395 464.21L202.18 734.216C202.075 734.452 201.87 734.595 201.644 734.682Z" fill="#102D3B"/>
</g>
</g>
<g opacity="0.11">
<g opacity="0.11">
<path opacity="0.11" d="M198.598 726.749C198.371 726.836 198.122 726.867 197.887 726.762C197.417 726.552 197.221 726.042 197.43 725.572L317.702 455.544C317.911 455.073 318.421 454.878 318.892 455.087C319.362 455.297 319.558 455.807 319.348 456.277L199.134 726.283C199.029 726.519 198.824 726.662 198.598 726.749Z" fill="#102D3B"/>
</g>
</g>
<g opacity="0.11">
<g opacity="0.11">
<path opacity="0.11" d="M195.554 718.815C195.327 718.902 195.079 718.933 194.843 718.828C194.373 718.619 194.177 718.109 194.386 717.638L314.658 447.61C314.867 447.14 315.377 446.944 315.848 447.153C316.318 447.363 316.514 447.873 316.304 448.343L196.09 718.35C195.985 718.585 195.78 718.728 195.554 718.815Z" fill="#102D3B"/>
</g>
</g>
<g opacity="0.11">
<g opacity="0.11">
<path opacity="0.11" d="M192.506 710.881C192.28 710.968 192.031 710.998 191.796 710.894C191.325 710.684 191.13 710.174 191.339 709.704L311.61 439.676C311.82 439.205 312.33 439.009 312.8 439.219C313.271 439.428 313.467 439.938 313.257 440.409L193.043 710.415C192.938 710.65 192.733 710.794 192.506 710.881Z" fill="#102D3B"/>
</g>
</g>
<g opacity="0.11">
<g opacity="0.11">
<path opacity="0.11" d="M189.461 702.948C189.234 703.035 188.986 703.065 188.751 702.96C188.28 702.751 188.084 702.241 188.294 701.77L308.565 431.742C308.775 431.272 309.285 431.076 309.755 431.285C310.226 431.495 310.421 432.005 310.212 432.475L189.997 702.482C189.893 702.717 189.688 702.861 189.461 702.948Z" fill="#102D3B"/>
</g>
</g>
<g opacity="0.11">
<g opacity="0.11">
<path opacity="0.11" d="M186.417 695.015C186.19 695.102 185.942 695.132 185.706 695.028C185.236 694.818 185.04 694.308 185.249 693.837L305.521 423.81C305.73 423.339 306.24 423.143 306.711 423.353C307.181 423.562 307.377 424.072 307.167 424.543L186.953 694.549C186.848 694.784 186.643 694.928 186.417 695.015Z" fill="#102D3B"/>
</g>
</g>
</g>
<path d="M320.808 498.693L154.202 562.648L178.566 626.116L345.172 562.162L320.808 498.693Z" fill="#FF9852"/>
<path d="M361.799 671.612L347.509 677.097C343.791 678.524 340.204 678.21 339.508 676.397L252.409 449.496C251.713 447.682 254.168 445.049 257.886 443.622L272.176 438.137C275.894 436.709 279.48 437.023 280.177 438.837L367.254 665.681C367.972 667.551 365.517 670.184 361.799 671.612Z" fill="#B7C8CE"/>
<path d="M262.332 734.5L234.984 731.007L229.658 717.134L252.326 708.433L262.332 734.5Z" fill="#EA3939"/>
<circle cx="297.611" cy="677.599" r="53.2353" transform="rotate(-1 297.611 677.599)" fill="#EBBAAA"/>
</svg>
