<svg width="1200" height="1600" viewBox="0 0 1200 1600" fill="none" xmlns="http://www.w3.org/2000/svg">
<path d="M672.669 1213V1441" stroke="#EBBAAA" stroke-width="44" stroke-linecap="round" stroke-linejoin="bevel"/>
<path d="M524.669 1213V1458.5" stroke="#EBBAAA" stroke-width="44" stroke-linecap="round" stroke-linejoin="bevel"/>
<path d="M725.045 677C769.045 755 801.045 907 785.045 951" stroke="#EBBAAA" stroke-width="74" stroke-linecap="round" stroke-linejoin="bevel"/>
<path d="M477.854 677C433.854 755 401.854 907 417.854 951" stroke="#EBBAAA" stroke-width="74" stroke-linecap="round" stroke-linejoin="bevel"/>
<rect x="432.67" y="549" width="170" height="392.822" rx="85" transform="rotate(15 432.67 549)" fill="#393939"/>
<rect width="170" height="392.822" rx="85" transform="matrix(-0.965926 0.258819 0.258819 0.965926 766.877 549)" fill="#393939"/>
<rect x="450.67" y="596" width="300" height="344" fill="white"/>
<path d="M645.67 1448.82C645.67 1448.82 646.169 1415.75 648.662 1418.25C651.156 1420.76 662.619 1427.27 678.088 1427.27C693.549 1427.27 703.025 1421.76 706.516 1418.25C710.007 1414.75 713.253 1448.82 713.253 1448.82L645.67 1448.82Z" fill="#DCE1E9"/>
<path d="M554.253 1451.82C554.253 1451.82 553.754 1418.75 551.261 1421.25C548.767 1423.76 537.304 1430.27 521.835 1430.27C506.374 1430.27 496.898 1424.76 493.407 1421.25C489.916 1417.75 486.67 1451.82 486.67 1451.82L554.253 1451.82Z" fill="#DCE1E9"/>
<path d="M598.668 1087C662.181 1087 713.668 1063.49 713.668 1034.5C713.668 1005.51 662.181 982 598.668 982C535.156 982 483.668 1005.51 483.668 1034.5C483.668 1063.49 535.156 1087 598.668 1087Z" fill="#416E97"/>
<path d="M597.668 964H747.668L727.668 1407H633.497L597.668 964Z" fill="#416E97"/>
<path d="M599.668 964H449.668L469.668 1407H563.84L599.668 964Z" fill="#416E97"/>
<path d="M769.573 609.68C770.211 590.666 757.368 573.833 738.861 569.426L670.325 553.108C656.758 549.878 643.462 559.367 642.106 573.247L623.67 762L600.67 892V987L626.67 1008H759.89C765.708 1008 770.298 1003.05 769.862 997.25L760.67 875L769.573 609.68Z" fill="#494949"/>
<path d="M431.767 609.68C431.129 590.666 443.972 573.833 462.479 569.426L531.015 553.108C544.582 549.878 557.878 559.367 559.234 573.247L577.67 762L600.67 892V987L574.67 1008H441.45C435.632 1008 431.042 1003.05 431.478 997.25L440.67 875L431.767 609.68Z" fill="#494949"/>
<path d="M562.67 509.911C562.67 488.973 579.732 472 600.67 472C621.608 472 638.67 488.973 638.67 509.911V581.573C638.67 585.173 638.157 588.754 637.147 592.209L600.67 717L564.193 592.209C563.183 588.754 562.67 585.173 562.67 581.573V509.911Z" fill="#EBBAAA"/>
<path d="M610.669 618L638.669 529L674.669 550L681.669 675L610.669 618Z" fill="white"/>
<path d="M590.669 618L562.669 529L526.669 550L519.669 675L590.669 618Z" fill="white"/>
<path opacity="0.5" d="M750.67 407.001C772.761 407.001 790.67 389.092 790.67 367.001C790.67 344.909 772.761 327.001 750.67 327.001C728.579 327.001 710.67 344.909 710.67 367.001C710.67 389.092 728.579 407.001 750.67 407.001Z" fill="#C99584"/>
<path opacity="0.5" d="M450.669 407.001C428.578 407.001 410.669 389.092 410.669 367.001C410.669 344.909 428.578 327.001 450.669 327.001C472.761 327.001 490.669 344.909 490.669 367.001C490.669 389.092 472.761 407.001 450.669 407.001Z" fill="#C99584"/>
<path d="M450.67 249C450.67 166.157 517.827 98.9998 600.67 98.9998C683.513 98.9998 750.67 166.157 750.67 249V442.962C750.67 464.483 736.898 483.59 716.481 490.396L655.95 510.573C620.067 522.534 581.273 522.534 545.39 510.573L484.859 490.396C464.441 483.59 450.67 464.483 450.67 442.962V249Z" fill="#F4D5CC"/>
<path fill-rule="evenodd" clip-rule="evenodd" d="M544.67 398V417.805C544.67 448.293 569.299 473 599.67 473C630.05 473 654.67 448.293 654.67 417.805V398H544.67Z" fill="#393939"/>
<mask id="mask0" mask-type="alpha" maskUnits="userSpaceOnUse" x="544" y="398" width="111" height="75">
<path fill-rule="evenodd" clip-rule="evenodd" d="M544.76 398C544.7 399.021 544.67 400.051 544.67 401.081V420.367C544.67 449.44 569.299 473 599.67 473C630.05 473 654.67 449.44 654.67 420.367V401.081C654.67 400.051 654.64 399.021 654.58 398H544.76Z" fill="white"/>
</mask>
<g mask="url(#mask0)">
<path d="M599.67 488C616.238 488 629.67 479.941 629.67 470C629.67 460.059 616.238 452 599.67 452C583.101 452 569.67 460.059 569.67 470C569.67 479.941 583.101 488 599.67 488Z" fill="#FF6C6C"/>
</g>
<rect x="544.67" y="398" width="110" height="20" fill="white"/>
<path d="M619.67 312C619.67 310.343 621.013 309 622.67 309H716.67C718.327 309 719.67 310.343 719.67 312V340C719.67 348.284 712.954 355 704.67 355H634.67C626.386 355 619.67 348.284 619.67 340V312Z" stroke="#393939" stroke-width="12"/>
<rect x="575.67" y="317" width="50" height="10" fill="#393939"/>
<path d="M479.67 312C479.67 310.343 481.013 309 482.67 309H576.67C578.327 309 579.67 310.343 579.67 312V339C579.67 347.284 572.954 354 564.67 354H494.67C486.386 354 479.67 347.284 479.67 339V312Z" stroke="#393939" stroke-width="12"/>
<path d="M755.661 233.486C755.894 227.216 751.353 222.001 745.67 222.001C739.773 222.001 735.158 227.595 735.716 234.07L745.131 343.773C745.289 345.607 746.682 347.001 748.344 347.001C750.081 347.001 751.501 345.494 751.576 343.589L755.661 233.486Z" fill="#6E6C6C"/>
<path d="M445.678 233.486C445.446 227.216 449.987 222.001 455.67 222.001C461.566 222.001 466.181 227.595 465.624 234.07L456.209 343.773C456.051 345.607 454.658 347.001 452.996 347.001C451.259 347.001 449.838 345.494 449.764 343.589L445.678 233.486Z" fill="#6E6C6C"/>
<path d="M595.995 185.179C672.143 185.179 733.03 184.971 736.17 240.625C749.015 258.724 757.06 256.71 760.059 223.772C769.665 118.285 663.827 58.5177 590.531 82.126C590.531 82.126 519.837 185.179 595.995 185.179Z" fill="#393939"/>
<path d="M605.345 185.179C529.197 185.179 468.309 184.971 465.17 240.625C452.324 258.724 444.28 256.71 441.28 223.772C431.675 118.285 537.513 58.5177 610.809 82.126C610.809 82.126 681.502 185.179 605.345 185.179Z" fill="#393939"/>
<path d="M486.607 206.402V190.24L459.67 206.402V173L610.518 181.62L592.201 204.247L577.116 199.937L557.721 206.402L550.179 194.55L530.784 206.402V190.24L503.847 206.402V190.24L486.607 206.402Z" fill="#393939"/>
<path d="M627.607 205.402V189.24L600.67 205.402V172L751.518 180.62L733.201 203.247L718.116 198.937L698.721 205.402L691.179 193.55L671.784 205.402V189.24L644.847 205.402V189.24L627.607 205.402Z" fill="#393939"/>
<path d="M674.67 327H654.67" stroke="black" stroke-width="18" stroke-linecap="round"/>
<path d="M544.67 327H524.67" stroke="black" stroke-width="18" stroke-linecap="round"/>
<path d="M644.67 267L704.67 270.5" stroke="#393939" stroke-width="18" stroke-linecap="round"/>
<path d="M554.67 267L494.67 270.5" stroke="#393939" stroke-width="18" stroke-linecap="round"/>
<path d="M600.67 357C590.67 364.5 580.67 382 610.67 382" stroke="#EBBAAA" stroke-width="17"/>
<path d="M641.587 1447.59C641.587 1447.59 642.086 1414.52 644.579 1417.02C647.073 1419.53 658.536 1426.04 674.005 1426.04C689.466 1426.04 698.942 1420.53 702.433 1417.03C705.924 1413.52 709.17 1447.59 709.17 1447.59L641.587 1447.59Z" fill="#DCE1E9"/>
<path d="M810.159 1504.21C812.074 1499.88 811.896 1495.48 810.824 1493.86C809.752 1492.25 679.564 1482.02 679.564 1482.02C657.956 1480.41 613.837 1470.34 610.877 1482.02C600.786 1521.85 627.602 1521.85 644.746 1521.85C668.318 1521.85 671.116 1515.58 686.528 1517.54C694.564 1518.57 706.351 1524 760.461 1524C803.858 1524 805.873 1513.9 810.159 1504.21Z" fill="#5B5D60"/>
<path d="M642.148 1420.14L642.085 1420.03C642.085 1420.03 639.093 1416.02 634.604 1419.03C630.116 1422.04 627.218 1428.92 624.806 1439.85C621.59 1454.41 618.875 1452.33 615.659 1465.86C613.433 1475.23 612.98 1489.28 618.339 1497.08C626.663 1509.2 637.099 1508.01 654.787 1508.01C664.971 1508.01 682.122 1505.4 697.666 1509.57C719.368 1515.38 779.137 1518.41 794.147 1513.73C819.723 1505.75 811.834 1482.51 801.115 1473.67C782.303 1458.14 739.033 1462.68 729.862 1450.6C722.359 1440.71 718.825 1423.89 716.17 1416.43C713.17 1408.01 704.093 1406.06 705.171 1416.43C706.17 1426.05 703.026 1440.37 675.69 1439.85C653.875 1439.43 650.673 1434.16 642.148 1420.14Z" fill="#393939"/>
<mask id="mask1" mask-type="alpha" maskUnits="userSpaceOnUse" x="614" y="1404" width="198" height="116">
<path d="M675.724 1441.16C653.866 1440.73 646.615 1426.63 645.723 1419.63H632.213C631.142 1421.25 629.92 1425.02 627.509 1436.32C624.294 1451.39 618.936 1454.08 615.722 1468.07C613.496 1477.76 613.044 1492.29 618.401 1500.37C626.721 1512.91 637.151 1511.67 654.831 1511.67C665.01 1511.67 682.153 1508.98 697.69 1513.28C719.382 1519.3 779.122 1522.43 794.124 1517.59C819.688 1509.34 812.827 1483.67 801.68 1474.15C782.877 1458.09 738.998 1462.14 729.831 1449.64C722.332 1439.42 716.754 1415.06 711.378 1409.06C701.735 1398.29 703.462 1406.51 705.191 1416.94C707.333 1429.86 703.047 1441.7 675.724 1441.16Z" fill="#393939"/>
</mask>
<g mask="url(#mask1)">
<path d="M787.789 1492.79C797.646 1492.79 814.17 1482.71 814.17 1479.66C814.884 1489.17 815.099 1508.63 808.67 1514.23C800.634 1521.23 726.179 1522.39 718.143 1519.16C710.106 1515.93 708.67 1511.22 722.67 1513.73C730.726 1515.17 755.109 1506.24 763.68 1499.78C772.252 1493.32 775.467 1492.79 787.789 1492.79Z" fill="#5B5D60"/>
<path opacity="0.5" d="M674.584 1472.78C681.485 1474.66 687.048 1474.41 690.199 1472.01C698.317 1465.76 693.119 1456.23 690.915 1452.5C694.883 1457.07 698.826 1461.66 701.904 1466.66C706.757 1474.47 708.816 1483.05 705.542 1488.54C699.673 1498.46 685.565 1493.88 676.574 1489.89L593.132 1452.87L674.584 1472.78Z" fill="#7F8389"/>
</g>
<path d="M710.91 1454.26L733.528 1446.09L731.921 1467.62L756.565 1458.47L760.851 1477.84L780.673 1466" stroke="#2A2A2A" stroke-width="6.44516" stroke-linecap="round" stroke-linejoin="round"/>
<path d="M554.753 1447.59C554.753 1447.59 554.254 1414.52 551.761 1417.02C549.267 1419.53 537.804 1426.04 522.335 1426.04C506.874 1426.04 497.398 1420.53 493.907 1417.03C490.416 1413.52 487.17 1447.59 487.17 1447.59L554.753 1447.59Z" fill="#DCE1E9"/>
<path d="M386.181 1504.21C384.266 1499.88 384.443 1495.48 385.516 1493.86C386.588 1492.25 516.776 1482.02 516.776 1482.02C538.384 1480.41 582.503 1470.34 585.463 1482.02C595.554 1521.85 568.738 1521.85 551.594 1521.85C528.021 1521.85 525.224 1515.58 509.811 1517.54C501.775 1518.57 489.989 1524 435.879 1524C392.481 1524 390.467 1513.9 386.181 1504.21Z" fill="#5B5D60"/>
<path d="M554.191 1420.14L554.254 1420.03C554.254 1420.03 557.247 1416.02 561.736 1419.03C566.224 1422.04 569.122 1428.92 571.534 1439.85C574.75 1454.41 577.465 1452.33 580.681 1465.86C582.907 1475.23 583.36 1489.28 578.001 1497.08C569.676 1509.2 559.241 1508.01 541.553 1508.01C531.369 1508.01 514.217 1505.4 498.673 1509.57C476.972 1515.38 417.202 1518.41 402.193 1513.73C376.617 1505.75 384.506 1482.51 395.224 1473.67C414.037 1458.14 457.307 1462.68 466.478 1450.6C473.981 1440.71 477.514 1423.89 480.17 1416.43C483.17 1408.01 492.247 1406.06 491.169 1416.43C490.17 1426.05 493.314 1440.37 520.65 1439.85C542.465 1439.43 545.667 1434.16 554.191 1420.14Z" fill="#393939"/>
<mask id="mask2" mask-type="alpha" maskUnits="userSpaceOnUse" x="384" y="1404" width="199" height="116">
<path d="M520.616 1441.16C542.474 1440.73 549.724 1426.63 550.617 1419.63H564.126C565.198 1421.25 566.42 1425.02 568.831 1436.32C572.045 1451.39 577.404 1454.08 580.618 1468.07C582.843 1477.76 583.296 1492.29 577.939 1500.37C569.619 1512.91 559.188 1511.67 541.509 1511.67C531.329 1511.67 514.186 1508.98 498.65 1513.28C476.958 1519.3 417.218 1522.43 402.216 1517.59C376.652 1509.34 383.513 1483.67 394.66 1474.15C413.463 1458.09 457.342 1462.14 466.508 1449.64C474.008 1439.42 479.586 1415.06 484.962 1409.06C494.605 1398.29 492.878 1406.51 491.149 1416.94C489.007 1429.86 493.293 1441.7 520.616 1441.16Z" fill="#393939"/>
</mask>
<g mask="url(#mask2)">
<path d="M408.551 1492.79C398.693 1492.79 382.17 1482.71 382.17 1479.66C381.456 1489.17 381.241 1508.63 387.67 1514.23C395.706 1521.23 470.161 1522.39 478.197 1519.16C486.233 1515.93 487.67 1511.22 473.67 1513.73C465.614 1515.17 441.231 1506.24 432.659 1499.78C424.088 1493.32 420.873 1492.79 408.551 1492.79Z" fill="#5B5D60"/>
<path opacity="0.5" d="M521.755 1472.78C514.854 1474.66 509.292 1474.41 506.141 1472.01C498.023 1465.76 503.221 1456.23 505.425 1452.5C501.457 1457.07 497.513 1461.66 494.436 1466.66C489.583 1474.47 487.524 1483.05 490.798 1488.54C496.667 1498.46 510.774 1493.88 519.766 1489.89L603.208 1452.87L521.755 1472.78Z" fill="#7F8389"/>
</g>
<path d="M485.43 1454.26L462.812 1446.09L464.419 1467.62L439.775 1458.47L435.489 1477.84L415.667 1466" stroke="#2A2A2A" stroke-width="6.44516" stroke-linecap="round" stroke-linejoin="round"/>
</svg>
