<svg width="1200" height="1600" viewBox="0 0 1200 1600" fill="none" xmlns="http://www.w3.org/2000/svg">
<rect width="304.121" height="146.058" rx="73.029" transform="matrix(0.990257 -0.139251 0.139096 0.990279 440 517.098)" fill="#2F200F"/>
<path d="M635.696 1000.36C647.835 1059.06 635.116 1308.15 625 1379" stroke="#F6DDD6" stroke-width="60" stroke-linecap="round" stroke-linejoin="bevel"/>
<path d="M510.53 994.283C498.391 1052.99 495 1308 510.53 1380" stroke="#F6DDD6" stroke-width="60" stroke-linecap="round" stroke-linejoin="bevel"/>
<path d="M625 665.749L702 602.749" stroke="#9DB7C9" stroke-width="11"/>
<path d="M394 1253L444 865H500C516 989 502.8 1268.2 482 1273C461.2 1277.8 400.667 1263.67 394 1253Z" fill="#BF7E68"/>
<path d="M760.105 1253L710.105 865H654.105C638.105 989 651.305 1268.2 672.105 1273C692.905 1277.8 753.438 1263.67 760.105 1253Z" fill="#BF7E68"/>
<path d="M459.337 1295C472.337 1305 574.424 1315.67 581.091 1305V1097L564.337 890H481.196C465.196 1014 446.337 1285 459.337 1295Z" fill="#C99584"/>
<path d="M567.198 1293.63C592.75 1301.62 625.456 1300.62 697 1293.63C697 1293.63 683.62 1192.77 677.581 1078.94C671.541 965.107 664.294 866.251 664.294 866.251L558 880.231C567.198 1018.03 573.331 1094.92 567.198 1293.63Z" fill="#D79D8A"/>
<mask id="mask0" mask-type="alpha" maskUnits="userSpaceOnUse" x="395" y="865" width="367" height="445">
<path fill-rule="evenodd" clip-rule="evenodd" d="M445 865L395 1253C399.689 1260.5 431.032 1269.72 456.45 1272.86C457.06 1285.55 458.312 1293.44 460.337 1295C473.337 1305 575.424 1315.67 582.091 1305V1296.95C606.07 1301.1 638.689 1299.42 698 1293.63C698 1293.63 697.026 1286.28 695.484 1273.32C721.513 1270.75 756.155 1260.92 761.105 1253L711.105 865H655.105C654.993 865.871 654.882 866.749 654.772 867.635L559 880.231C559.22 883.521 559.438 886.777 559.654 890H503.666C502.888 881.129 502.001 872.761 501 865H445Z" fill="#C7B697"/>
</mask>
<g mask="url(#mask0)">
<path fill-rule="evenodd" clip-rule="evenodd" d="M483.909 817.631L462.056 1318.15L475.623 1318.75L497.477 818.223L483.909 817.631ZM508.33 818.393L486.477 1318.92L507.15 1319.82L529.004 819.295L508.33 818.393Z" fill="#C57B5C"/>
<rect x="410.759" y="1318.17" width="501" height="13.8527" transform="rotate(-84 410.759 1318.17)" fill="#AC6C57"/>
<path fill-rule="evenodd" clip-rule="evenodd" d="M538.718 824.041L543.09 1325.02L550.203 1324.96L545.831 823.979L538.718 824.041ZM563.575 1324.93L559.203 823.951L572.783 823.832L577.155 1324.81L563.575 1324.93ZM590.527 1324.78L586.155 823.798L606.847 823.617L611.219 1324.6L590.527 1324.78Z" fill="#C57B5C"/>
<path fill-rule="evenodd" clip-rule="evenodd" d="M620.772 821.689L655.72 1321.47L662.816 1320.97L627.868 821.193L620.772 821.689ZM677.031 1320.56L642.083 820.779L652.01 820.085L652 819.948L665.547 819L700.495 1318.78L690.569 1319.47L690.578 1319.61L677.031 1320.56Z" fill="#C57B5C"/>
<rect x="723.68" y="1319.2" width="501" height="13.58" transform="rotate(-96 723.68 1319.2)" fill="#AC6C57"/>
</g>
<path d="M410 666C410 733.814 387 908 428 1018" stroke="#F6DDD6" stroke-width="74" stroke-linecap="round" stroke-linejoin="bevel"/>
<path d="M691 660C691 727.814 861 774 861 628" stroke="#F6DDD6" stroke-width="79" stroke-linecap="round" stroke-linejoin="bevel"/>
<path d="M442 805.5L495 649.749L519 576.749L564 586.749L648 576.749L745 822C745 822 745 832.5 738.5 838C732 843.5 709 883 709 883C709 883 601 899 576 899C551 899 526 894 526 894L476 875.749C476 875.749 451.5 838.5 445.5 830C439.5 821.5 442 805.5 442 805.5Z" fill="#0A0A08"/>
<ellipse cx="579.5" cy="607.749" rx="64.5" ry="67" fill="#30373C"/>
<rect x="536" y="539" width="83" height="117" rx="41.5" fill="#DBC0B8"/>
<path d="M515 713.749L432 886C432 886 355 872 327 846C327 846 348.552 768 359 693.749C369.448 619.498 432 596 432 596L497 583.749L515 713.749Z" fill="#657792"/>
<path d="M327.648 854.593C322.531 835.004 340.778 817.342 360.19 823.093L411.747 838.37C419.575 840.689 426.12 846.099 429.871 853.351L451.684 895.522C453.217 898.486 454.245 901.686 454.725 904.99L466.663 987.135C468.15 997.367 461.593 1007.05 451.54 1009.46L392.088 1023.73C381.498 1026.27 370.821 1019.88 368.068 1009.34L327.648 854.593Z" fill="#657692"/>
<path d="M415.833 960.25L368.333 976.692C359.79 979.649 355.143 988.859 357.84 997.487C360.661 1006.52 370.402 1011.41 379.329 1008.28L426.773 991.679C435.648 988.573 440.206 978.782 436.811 970.013C433.578 961.661 424.297 957.32 415.833 960.25Z" fill="#8A9BB6"/>
<circle cx="422.5" cy="974.5" r="9.5" fill="#2E3A4D"/>
<path d="M438 826L381 793L368 820L438 826Z" fill="#576985"/>
<path d="M424 827L358.61 834.686L369 855L424 842L424 827Z" fill="#576985"/>
<path d="M414.992 673.814C412.817 625.975 451.016 586 498.905 586H516.687C525.45 586 533.451 590.979 537.322 598.841L563 651C563 651 554 727 554 784C554 829.478 546.043 918.879 542.826 953.164C542.186 959.985 535.026 964.057 528.789 961.222L416.12 910.009C412.174 908.215 409.832 904.082 410.323 899.774L421 806L414.992 673.814Z" fill="#7B899F"/>
<path d="M442 764V710L533 700C528 724 528 758 528 775C461 802 467 794 442 764Z" fill="#576985"/>
<path d="M532 700L438 693L432 715L470 738L521 720L532 700Z" fill="#8A9BB6"/>
<path d="M535.136 963.746L410.929 909.984C408.896 909.104 407.684 906.99 407.952 904.791L412.5 867.5L546 915L542.104 959.592C541.807 962.991 538.268 965.101 535.136 963.746Z" fill="#576985"/>
<path d="M568 658L527.5 567L485.5 579.5L490 682L568 658Z" fill="#576985"/>
<path d="M640.154 714.749C640.154 714.749 631 886 735 886C839 886 827 840 839 810C839 810 837.84 745.251 794.997 684C752.154 622.749 723.154 597 723.154 597L658.154 584.749L640.154 714.749Z" fill="#546277"/>
<path d="M737.309 677.345C741.003 628.593 702.442 587 653.549 587H638.467C629.704 587 621.702 591.979 617.832 599.841L592.154 652C592.154 652 594.154 723 592.154 785C590.541 834.987 605.078 920.074 610.773 951.171C611.902 957.339 618.386 960.836 624.204 958.499L728.415 916.644C732.358 915.06 734.87 911.157 734.678 906.912L729.154 785L737.309 677.345Z" fill="#7B899F"/>
<path d="M714.153 764V710L623.153 700C628.153 724 628.153 758 628.153 775C695.153 802 689.153 794 714.153 764Z" fill="#576985"/>
<path d="M624.154 700L718.154 693L724.154 715L686.154 738L635.154 720L624.154 700Z" fill="#8A9BB6"/>
<path d="M617.738 963.773L733.635 918.805C735.643 918.026 736.927 916.048 736.821 913.897L734.999 877L603.999 917.5L610.997 959.925C611.513 963.057 614.779 964.921 617.738 963.773Z" fill="#576985"/>
<path d="M587.152 659L627.652 568L669.652 580.5L665.152 683L587.152 659Z" fill="#576985"/>
<path d="M784.985 880.358C770.386 882.563 759.88 867.99 751.757 855.66C737.479 833.988 731.342 816.861 732.001 795.431C732.897 766.325 748.182 739.989 764.771 716.056L766.58 713.446L821.671 644.758C828.139 636.693 839.689 634.887 848.311 640.594L902.092 676.19C909.988 681.417 913.137 691.465 909.635 700.263L894.781 737.591C893.99 739.578 892.99 741.474 891.796 743.248L851.764 816C842.331 830.019 812.301 876.231 784.985 880.358Z" fill="#657692"/>
<path d="M801.353 684.738L843.314 712.413C850.86 717.39 860.995 715.471 866.199 708.079C871.644 700.345 869.597 689.638 861.683 684.457L819.627 656.926C811.76 651.776 801.218 654.121 796.327 662.152C791.669 669.801 793.876 679.807 801.353 684.738Z" fill="#8A9BB6"/>
<path d="M417.505 296.894C417.505 215.507 487.252 149.53 573.288 149.53C659.325 149.53 729.072 215.507 729.072 296.894L719.072 443.465C706.508 538.539 641.13 590.829 573.288 590.829C505.447 590.829 436.718 527.447 427.505 443.465L417.505 296.894Z" fill="#F6DDD6"/>
<path fill-rule="evenodd" clip-rule="evenodd" d="M534 484.271V497.967C534 519.005 551.055 536.06 572.093 536.06C593.132 536.06 610.187 519.005 610.187 497.967V484.271H534Z" fill="#393939"/>
<mask id="mask1" mask-type="alpha" maskUnits="userSpaceOnUse" x="534" y="477" width="77" height="60">
<path fill-rule="evenodd" clip-rule="evenodd" d="M534.503 477.749C534.172 479.77 534 481.844 534 483.958V497.967C534 519.005 551.055 536.06 572.093 536.06C593.132 536.06 610.187 519.005 610.187 497.967V483.958C610.187 481.844 610.014 479.77 609.683 477.749H534.503Z" fill="#434343"/>
</mask>
<g mask="url(#mask1)">
<ellipse cx="572.093" cy="535.769" rx="22.9723" ry="12.511" fill="#FF6C6C"/>
<rect x="534" y="484.271" width="76.1865" height="15.7115" fill="white"/>
</g>
<path d="M492.035 346.35C492.035 346.35 502.034 342.184 513.534 342.184C525.034 342.184 534.354 346.35 534.354 346.35" stroke="#46413D" stroke-width="12" stroke-linecap="round"/>
<path d="M610.035 346.35C610.035 346.35 620.034 342.184 631.534 342.184C643.034 342.184 652.354 346.35 652.354 346.35" stroke="#46413D" stroke-width="12" stroke-linecap="round"/>
<path d="M492.654 384.564L519.59 380.306" stroke="black" stroke-width="10" stroke-linecap="round"/>
<path d="M622.121 377.697L649.057 381.955" stroke="black" stroke-width="10" stroke-linecap="round"/>
<path d="M514.489 380.305L514.489 409.083" stroke="black" stroke-width="24" stroke-linecap="round"/>
<path d="M628.315 377.696L628.315 406.475" stroke="black" stroke-width="24" stroke-linecap="round"/>
<path d="M570.447 409.424C568.42 424.204 555.675 451.155 577.398 451.155" stroke="#EBBAAA" stroke-width="17"/>
<path d="M678.786 440.26C678.354 442.707 669.988 446.324 660.742 444.694C651.496 443.063 644.871 436.803 645.302 434.356C645.734 431.908 654.448 426.322 663.694 427.952C672.94 429.582 679.218 437.812 678.786 440.26Z" fill="#F2CACA"/>
<path d="M462.65 443.26C463.081 445.707 471.447 449.324 480.694 447.694C489.94 446.063 496.565 439.803 496.133 437.356C495.701 434.908 486.988 429.322 477.742 430.952C468.495 432.582 462.218 440.812 462.65 443.26Z" fill="#F2CACA"/>
<path d="M465 341.749C490 315 496 212 569 212C581.71 212 606.5 143.5 569 134C487 134 434 192 416 237.165C378.978 330.063 370 487 394 595.165C403.742 639.073 409 657.749 416 665.749C416 665.749 451 647 490 610C467.493 528.516 440 368.498 465 341.749Z" fill="#3D2C18"/>
<path d="M556.5 150C535 153.5 531.701 154 514 163" stroke="#6E5232" stroke-width="10" stroke-linecap="round"/>
<path d="M558.5 168.5C544 169.5 538 172.5 527.5 179" stroke="#6E5232" stroke-width="10" stroke-linecap="round"/>
<path d="M445.467 587.147C452.621 565.633 448.448 519.418 445.467 499C467.328 528.382 466.5 569 466.5 587.147C466.5 611.309 469.316 661.848 473.787 682.764C468.819 681.27 456.199 673.203 445.467 652.884C432.052 627.486 436.523 614.04 445.467 587.147Z" fill="#3D2C18"/>
<path d="M451.5 582.5C441 561.853 442.981 524.418 440 504C461.862 533.382 464.6 562.854 475.967 577C506.5 615 477.028 642.584 481.5 663.5C469.967 648 467 638 467 616.5C467 587.776 464.347 607.762 451.5 582.5Z" fill="#3D2C18"/>
<path d="M461.5 566.5C451 545.853 452.981 508.418 450 488C471.862 517.382 474.6 546.854 485.967 561C516.5 599 487.028 626.584 491.5 647.5C479.967 632 477 622 477 600.5C477 571.776 474.347 591.762 461.5 566.5Z" fill="#3D2C18"/>
<path d="M413.467 604.147C420.621 582.633 416.448 536.418 413.467 516C435.328 545.382 488.552 601.408 468.28 614.555C448.009 627.703 437.316 678.848 441.787 699.764C436.819 698.27 424.199 690.203 413.467 669.884C400.052 644.486 404.523 631.04 413.467 604.147Z" fill="#3D2C18"/>
<path d="M684 335C652 304 660.493 212 587.493 212C574.783 212 545.5 143 587.493 134C669.493 134 721.493 192 739.493 237.165C776.515 330.063 785.493 487 761.493 595.165C751.75 639.073 746.493 657.749 739.492 665.749C739.492 665.749 704.493 647 665.493 610C688 528.516 709 379.749 684 335Z" fill="#3D2C18"/>
<path d="M710.026 587.147C702.871 565.633 707.045 519.418 710.026 499C688.164 528.382 688.993 569 688.993 587.147C688.993 611.309 686.177 661.848 681.705 682.764C686.674 681.27 699.294 673.203 710.026 652.884C723.441 627.486 718.969 614.04 710.026 587.147Z" fill="#3D2C18"/>
<path d="M703.993 582.5C714.493 561.853 712.512 524.418 715.493 504C693.631 533.382 679.867 561.354 668.5 575.5C637.967 613.5 678.464 642.584 673.993 663.5C685.526 648 688.493 638 688.493 616.5C688.493 587.776 691.146 607.762 703.993 582.5Z" fill="#3D2C18"/>
<path d="M742.333 604.147C735.178 582.633 739.352 536.418 742.333 516C720.472 545.382 667.248 601.408 687.519 614.555C707.791 627.703 718.484 678.848 714.012 699.764C718.981 698.27 731.601 690.203 742.333 669.884C755.748 644.486 751.277 631.04 742.333 604.147Z" fill="#3D2C18"/>
<path d="M373 1445C373 1414.3 392.726 1410.55 424.876 1400.03C440.623 1394.88 456.694 1390.39 473 1387.69C483.247 1385.99 486 1395 504 1395C520.052 1395 540.078 1387.05 544.225 1385.33C544.745 1385.11 545.361 1384.92 545.775 1385.3C545.875 1385.39 545.96 1385.51 546.022 1385.63C547.939 1389.57 558 1411.05 558 1428.24C558 1441.39 559.126 1454.32 555.5 1461C553.864 1464.01 543.649 1465.66 540.218 1465.66H378.562C375.49 1465.66 373 1448.07 373 1445Z" fill="#D0D4DB"/>
<mask id="mask2" mask-type="alpha" maskUnits="userSpaceOnUse" x="373" y="1382" width="186" height="84">
<path d="M373 1445C373 1429.23 378.206 1420.57 387.628 1414.45C432.458 1385.35 490.586 1383.98 544 1382C544.436 1382 545.831 1385.24 546.022 1385.63C547.939 1389.57 558 1411.05 558 1428.24C558 1441.39 559.126 1454.32 555.5 1461C553.864 1464.01 543.649 1465.66 540.218 1465.66H378.562C375.49 1465.66 373 1448.07 373 1445Z" fill="#D0D4DB"/>
</mask>
<g mask="url(#mask2)">
<path d="M472.632 1407.04C472.818 1404.58 475.713 1403.39 477.578 1404.99L488.17 1414.08C488.914 1414.72 489.923 1414.96 490.873 1414.71L504.538 1411.2C506.968 1410.57 509.046 1413.03 508.028 1415.32L502.419 1427.94C502.011 1428.86 502.091 1429.93 502.63 1430.77L509.998 1442.35C511.328 1444.44 509.694 1447.15 507.224 1446.95L493.067 1445.8C492.105 1445.72 491.163 1446.11 490.538 1446.85L481.341 1457.67C479.736 1459.56 476.664 1458.8 476.126 1456.38L473.151 1442.98C472.933 1442 472.238 1441.2 471.299 1440.83L458.407 1435.87C456.065 1434.97 455.798 1431.77 457.958 1430.49L470.109 1423.31C470.953 1422.82 471.5 1421.94 471.575 1420.96L472.632 1407.04Z" fill="#E4E9F1"/>
<path d="M520.5 1391C532.5 1390.2 542.5 1383.67 546.5 1380C550.5 1384 560.4 1395 558 1399C555 1404 532 1408 522 1408C512 1408 505.5 1392 520.5 1391Z" fill="#AEB5C0"/>
<path d="M393.145 1411.02C380.196 1403.7 385.274 1418.2 373.639 1424.36L349 1471.59H545.084C549.875 1464.74 572.623 1446.5 558 1446.5C526 1446.5 481 1451.5 461.5 1452.5C443.017 1453.45 386.893 1454.92 390 1438.5C393.593 1419.51 404.951 1417.69 393.145 1411.02Z" fill="#AEB5C0"/>
</g>
<path d="M470.868 1387C474.912 1389.46 483 1393.15 483 1398.08L452.671 1391.1L464.297 1406.28L431 1396.81L444.294 1410" stroke="#AEB5C0" stroke-width="6.1597" stroke-linecap="round" stroke-linejoin="round"/>
<path d="M476.118 1374.91C476.118 1376.08 476.138 1377.19 476.157 1378.21L476.158 1378.25C476.177 1379.27 476.194 1380.19 476.192 1381.05C476.186 1382.84 476.091 1384.08 475.858 1384.97C475.646 1385.78 475.386 1386.05 475.172 1386.2C474.886 1386.4 474.182 1386.71 472.525 1386.71C469.199 1386.71 464.911 1385.46 461.501 1383.19C458.077 1380.91 456.099 1378.02 456.099 1374.91C456.099 1370.83 457.091 1367.55 458.685 1365.38C460.206 1363.3 462.373 1362.08 465.338 1362.08C471.185 1362.08 476.118 1367.12 476.118 1374.91Z" stroke="#AEB5C0" stroke-width="6.1597"/>
<path d="M482.906 1380.18C482.555 1380.97 482.206 1381.71 481.888 1382.39L481.879 1382.41C481.56 1383.1 481.276 1383.7 481.025 1384.27C480.5 1385.46 480.233 1386.24 480.143 1386.79C480.103 1387.04 480.113 1387.17 480.12 1387.22C480.124 1387.24 480.127 1387.25 480.131 1387.25C480.132 1387.26 480.132 1387.26 480.133 1387.26C480.153 1387.29 480.384 1387.63 481.437 1388.1C483.552 1389.04 486.683 1389.48 489.531 1389.01C492.403 1388.54 494.285 1387.3 495.048 1385.59C496.216 1382.96 496.47 1380.65 496.085 1378.94C495.727 1377.34 494.788 1376.06 492.996 1375.26C489.488 1373.7 485.076 1375.31 482.906 1380.18Z" stroke="#AEB5C0" stroke-width="6.1597"/>
<path d="M768.166 1443C768.166 1412.3 748.44 1408.55 716.289 1398.03C700.542 1392.88 684.472 1388.39 668.166 1385.69C657.919 1383.99 655.166 1393 637.166 1393C621.114 1393 601.088 1385.05 596.941 1383.33C596.421 1383.11 595.804 1382.92 595.39 1383.3C595.29 1383.39 595.206 1383.51 595.143 1383.63C593.226 1387.57 583.166 1409.05 583.166 1426.24C583.166 1439.39 582.04 1452.32 585.666 1459C587.302 1462.01 597.517 1463.66 600.947 1463.66H762.603C765.675 1463.66 768.166 1446.07 768.166 1443Z" fill="#D0D4DB"/>
<mask id="mask3" mask-type="alpha" maskUnits="userSpaceOnUse" x="583" y="1380" width="186" height="84">
<path d="M768.166 1443C768.166 1427.23 762.96 1418.57 753.538 1412.45C708.708 1383.35 650.579 1381.98 597.166 1380C596.729 1380 595.334 1383.24 595.143 1383.63C593.226 1387.57 583.166 1409.05 583.166 1426.24C583.166 1439.39 582.04 1452.32 585.666 1459C587.302 1462.01 597.517 1463.66 600.947 1463.66H762.603C765.675 1463.66 768.166 1446.07 768.166 1443Z" fill="#D0D4DB"/>
</mask>
<g mask="url(#mask3)">
<path d="M668.534 1405.04C668.348 1402.58 665.453 1401.39 663.588 1402.99L652.995 1412.08C652.252 1412.72 651.243 1412.96 650.293 1412.71L636.627 1409.2C634.198 1408.57 632.119 1411.03 633.138 1413.32L638.746 1425.94C639.154 1426.86 639.075 1427.93 638.535 1428.77L631.168 1440.35C629.837 1442.44 631.472 1445.15 633.942 1444.95L648.098 1443.8C649.061 1443.72 650.002 1444.11 650.627 1444.85L659.825 1455.67C661.429 1457.56 664.502 1456.8 665.039 1454.38L668.015 1440.98C668.233 1440 668.928 1439.2 669.866 1438.83L682.759 1433.87C685.1 1432.97 685.367 1429.77 683.207 1428.49L671.057 1421.31C670.213 1420.82 669.665 1419.94 669.591 1418.96L668.534 1405.04Z" fill="#E4E9F1"/>
<path d="M620.665 1389C608.665 1388.2 598.665 1381.67 594.665 1378C590.665 1382 580.765 1393 583.165 1397C586.165 1402 609.165 1406 619.165 1406C629.165 1406 635.665 1390 620.665 1389Z" fill="#AEB5C0"/>
<path d="M748.021 1409.02C760.97 1401.7 755.891 1416.2 767.526 1422.36L792.166 1469.59H596.082C591.291 1462.74 568.543 1444.5 583.166 1444.5C615.166 1444.5 660.166 1449.5 679.666 1450.5C698.149 1451.45 754.272 1452.92 751.166 1436.5C747.572 1417.51 736.215 1415.69 748.021 1409.02Z" fill="#AEB5C0"/>
</g>
<path d="M670.297 1385C666.253 1387.46 658.166 1391.15 658.166 1396.08L688.495 1389.1L676.869 1404.28L710.166 1394.81L696.871 1408" stroke="#AEB5C0" stroke-width="6.1597" stroke-linecap="round" stroke-linejoin="round"/>
<path d="M665.048 1372.91C665.048 1374.08 665.027 1375.19 665.008 1376.21L665.008 1376.25C664.989 1377.27 664.971 1378.19 664.974 1379.05C664.979 1380.84 665.074 1382.08 665.307 1382.97C665.519 1383.78 665.779 1384.05 665.994 1384.2C666.279 1384.4 666.984 1384.71 668.641 1384.71C671.967 1384.71 676.255 1383.46 679.664 1381.19C683.088 1378.91 685.067 1376.02 685.067 1372.91C685.067 1368.83 684.074 1365.55 682.481 1363.38C680.959 1361.3 678.792 1360.08 675.827 1360.08C669.981 1360.08 665.048 1365.12 665.048 1372.91Z" stroke="#AEB5C0" stroke-width="6.1597"/>
<path d="M658.259 1378.18C658.611 1378.97 658.959 1379.71 659.277 1380.39L659.286 1380.41C659.606 1381.1 659.89 1381.7 660.141 1382.27C660.666 1383.46 660.933 1384.24 661.022 1384.79C661.062 1385.04 661.052 1385.17 661.045 1385.22C661.041 1385.24 661.038 1385.25 661.034 1385.25C661.034 1385.26 661.033 1385.26 661.033 1385.26C661.013 1385.29 660.782 1385.63 659.729 1386.1C657.614 1387.04 654.483 1387.48 651.635 1387.01C648.763 1386.54 646.881 1385.3 646.117 1383.59C644.95 1380.96 644.696 1378.65 645.08 1376.94C645.438 1375.34 646.378 1374.06 648.17 1373.26C651.678 1371.7 656.089 1373.31 658.259 1378.18Z" stroke="#AEB5C0" stroke-width="6.1597"/>
<circle cx="610.5" cy="732.5" r="9.5" fill="#2E3A4D"/>
<circle cx="610.5" cy="802.5" r="9.5" fill="#2E3A4D"/>
<circle cx="618.5" cy="866.5" r="9.5" fill="#2E3A4D"/>
<circle cx="629.5" cy="933.5" r="9.5" fill="#2E3A4D"/>
</svg>
