<svg width="1200" height="1600" viewBox="0 0 1200 1600" fill="none" xmlns="http://www.w3.org/2000/svg">
<ellipse cx="578" cy="1414.5" rx="49" ry="48.5" fill="black"/>
<ellipse cx="1020" cy="1414.5" rx="49" ry="48.5" fill="black"/>
<circle cx="617.5" cy="1399.5" r="41.5" fill="black"/>
<circle cx="983.5" cy="1399.5" r="41.5" fill="black"/>
<path d="M573.691 1428.15V720L614.532 744.656V1400.05" stroke="#0F0F0F" stroke-width="10" stroke-linecap="round" stroke-linejoin="round"/>
<path d="M983.674 1428.15V749.797L1024.52 723.398V1400.03" stroke="#0F0F0F" stroke-width="10" stroke-linecap="round" stroke-linejoin="round"/>
<rect x="823.451" y="770.97" width="98.176" height="143.396" fill="#B50101"/>
<rect x="818.739" y="765.533" width="107.601" height="10.8736" fill="#FFEB35"/>
<path d="M666.053 770.63C646.362 772.048 614.743 769.786 606.71 764.174C591.439 790.679 592.852 834.261 596.544 865.095C600.236 895.93 630.798 937.627 643.276 951.065C649.943 942.648 678.259 928.697 695.899 927.279C713.539 925.861 748.046 928.035 760.695 933.055C762.233 912.676 764.387 870.916 760.695 836.892C757.003 802.868 727.043 759.795 717.471 746.505C709.438 754.184 685.744 769.213 666.053 770.63Z" fill="#FFEB35"/>
<path d="M864.451 873.507C861.868 863.562 843.318 848.772 843.318 848.772C824.021 843.143 794.47 847.438 773.784 851.852C753.099 856.266 727.227 875.301 719.105 882.778C725.383 885.494 737.207 898.819 739.622 907.716C742.037 916.613 743.393 934.423 741.015 941.297C755.014 940.413 783.617 938.09 806.474 933.414C829.331 928.738 856.189 909.899 864.449 903.918C858.562 900.443 868.776 890.158 864.451 873.507Z" fill="#71AC5C"/>
<path d="M957.984 875.106C956.669 870.042 947.223 862.51 947.223 862.51C937.396 859.644 922.349 861.831 911.815 864.079C901.282 866.326 888.107 876.019 883.972 879.827C887.168 881.21 893.189 887.995 894.419 892.525C895.649 897.056 896.339 906.125 895.128 909.626C902.257 909.175 916.822 907.992 928.462 905.611C940.101 903.23 953.777 893.637 957.983 890.592C954.985 888.822 960.187 883.585 957.984 875.106Z" fill="#AC965C"/>
<path d="M1014.98 878.272C1013.66 873.208 1004.21 865.677 1004.21 865.677C994.389 862.81 979.341 864.997 968.807 867.245C958.274 869.493 945.1 879.186 940.964 882.993C944.16 884.376 950.181 891.161 951.411 895.692C952.641 900.223 953.332 909.292 952.121 912.792C959.249 912.342 973.815 911.159 985.454 908.778C997.093 906.397 1010.77 896.804 1014.98 893.758C1011.98 891.989 1017.18 886.751 1014.98 878.272Z" fill="#AC5C5C"/>
<path d="M977.324 853.602C972.493 850.524 959.654 850.198 959.654 850.198C950.062 853.608 940.358 863.797 934.109 871.471C927.859 879.145 925.258 893.938 925.02 899.159C928.482 898.39 938.17 900.096 942.531 902.819C946.893 905.542 954.287 911.997 956.026 915.328C961.066 910.943 971.167 901.786 978.151 893.384C985.134 884.983 988.19 869.98 989.058 865.294C985.453 865.659 985.411 858.753 977.324 853.602Z" fill="#FF9B00"/>
<path d="M811.354 1026.16C791.663 1027.58 760.044 1025.32 752.01 1019.7C736.74 1046.21 738.153 1089.79 741.845 1120.63C745.537 1151.46 776.099 1193.16 788.577 1206.6C795.243 1198.18 823.559 1184.23 841.199 1182.81C858.839 1181.39 893.347 1183.57 905.995 1188.59C907.534 1168.21 909.688 1126.45 905.995 1092.42C902.303 1058.4 872.344 1015.33 862.772 1002.04C854.738 1009.71 831.045 1024.74 811.354 1026.16Z" fill="#71AC5C"/>
<ellipse rx="43.4935" ry="13.6322" transform="matrix(0.993354 -0.1151 0.152937 0.988236 823.186 1077.6)" fill="#E8DCC5"/>
<path d="M786.145 1111.45C804.602 1113.94 849.37 1111.72 874.503 1097.86" stroke="#E8DCC5" stroke-width="5"/>
<path d="M956.258 1090.41C969.149 1096.35 991.379 1102.8 998.727 1101.02C1000.15 1122.87 984.486 1152.11 971.575 1172.11C958.664 1192.11 923.844 1212.7 910.838 1218.67C909.153 1211.27 894.635 1194.65 883.137 1189.23C871.639 1183.81 847.478 1176.57 837.196 1176.78C843.028 1162.55 855.657 1133.66 869.644 1111.49C883.631 1089.32 918.506 1067.65 929.489 1061.04C932.352 1068.29 943.367 1084.48 956.258 1090.41Z" fill="#0959A3"/>
<ellipse rx="31.5274" ry="10.3249" transform="matrix(-0.876821 -0.454018 -0.577367 0.834854 930.868 1122.35)" fill="white"/>
<path d="M944.594 1154.69C931.222 1151.72 901.576 1138.9 889.19 1123.14" stroke="white" stroke-width="5"/>
<rect x="605.891" y="1046.89" width="98.176" height="143.396" fill="#C4B000"/>
<rect x="601.179" y="1041.45" width="107.601" height="10.8736" fill="#FFEB35"/>
<ellipse cx="660.871" cy="1091.06" rx="22.7768" ry="19.7085" fill="#FFEB35"/>
<rect x="702.496" y="1076.79" width="98.176" height="143.396" fill="#FF9B00"/>
<rect x="697.785" y="1071.35" width="107.601" height="10.8736" fill="#FFEB35"/>
<rect width="95.0423" height="93.3951" transform="matrix(0.89458 -0.446908 0.555028 0.831832 567.561 1126.01)" fill="#B50101"/>
<rect width="104.166" height="11.3206" transform="matrix(0.89458 -0.446908 0.555028 0.831832 560.338 1123.34)" fill="#FFEB35"/>
<ellipse rx="22.0498" ry="20.5186" transform="matrix(0.89458 -0.446908 0.555028 0.831832 640.7 1140.48)" fill="#FFEB35"/>
<path d="M1022.94 883.105H573.692L620.075 951.065H987.164L1022.94 883.105Z" fill="black" stroke="black" stroke-width="10" stroke-linecap="round" stroke-linejoin="round"/>
<path d="M1022.94 1151.55H573.692L620.075 1219.51H987.164L1022.94 1151.55Z" fill="black" stroke="black" stroke-width="10" stroke-linecap="round" stroke-linejoin="round"/>
<ellipse rx="43.4935" ry="13.6322" transform="matrix(0.993354 -0.1151 0.152937 0.988236 677.885 822.069)" fill="#FFBA35"/>
<path d="M640.844 855.921C659.301 858.413 704.069 856.193 729.202 842.329" stroke="#CEBB13" stroke-width="5"/>
<ellipse cx="878.429" cy="815.145" rx="22.7768" ry="19.7085" fill="#FFEB35"/>
<ellipse cx="751.777" cy="1120.97" rx="22.7768" ry="19.7085" fill="#E8DCC5"/>
<rect x="298" y="558" width="367" height="199" rx="50" fill="#395875"/>
<path d="M137.5 1033.5C127 993.5 227.5 683.5 305.5 610.5L651 595C751.5 740 821.001 1017.5 802 1042C782.999 1066.5 712.092 1033.5 467.5 1033.5C222.909 1033.5 148 1073.5 137.5 1033.5Z" fill="#395875"/>
<path d="M383.899 1110C371.536 1168 357.112 1290 367.414 1360" stroke="#F5D0C3" stroke-width="130" stroke-linecap="round" stroke-linejoin="bevel"/>
<path d="M257.82 1445.4L231.904 1446.51L232.71 1464.67C232.979 1470.74 238.118 1475.44 244.187 1475.18L248.123 1475.01C254.193 1474.75 258.895 1469.62 258.625 1463.55L257.82 1445.4Z" fill="black"/>
<path d="M292.373 1443.92L266.458 1445.03L267.263 1463.18C267.532 1469.25 272.671 1473.96 278.741 1473.7L282.676 1473.53C288.746 1473.27 293.448 1468.14 293.179 1462.07L292.373 1443.92Z" fill="black"/>
<path d="M393.567 1439.57L367.651 1440.68L368.457 1458.83C368.726 1464.9 373.865 1469.61 379.935 1469.35L383.87 1469.18C389.94 1468.92 394.642 1463.79 394.373 1457.72L393.567 1439.57Z" fill="black"/>
<path d="M359.014 1441.05L333.098 1442.17L333.904 1460.32C334.173 1466.39 339.312 1471.1 345.381 1470.84L349.317 1470.67C355.386 1470.41 360.088 1465.27 359.819 1459.21L359.014 1441.05Z" fill="black"/>
<path d="M428.121 1438.09L402.205 1439.2L403.01 1457.35C403.28 1463.42 408.418 1468.13 414.488 1467.87L418.424 1467.7C424.493 1467.44 429.195 1462.31 428.926 1456.24L428.121 1438.09Z" fill="black"/>
<path d="M223.801 1445.04C226.027 1421.87 261.09 1394.7 291.564 1376.25C319.095 1359.58 350.953 1354.16 383.125 1352.78L432.229 1350.67C435.939 1350.32 439.188 1353.1 439.351 1356.76L443.2 1443.52C443.409 1448.21 439.71 1452.19 434.939 1452.39L232.904 1461.07C227.972 1461.28 223.902 1449.89 223.801 1445.04Z" fill="black"/>
<mask id="mask0" mask-type="alpha" maskUnits="userSpaceOnUse" x="223" y="1350" width="221" height="111">
<path d="M225.328 1437.67C231.004 1400.72 260.533 1372.06 297.644 1367.49L431.603 1350.99C435.949 1350.46 439.834 1353.74 440.028 1358.12L443.883 1445C444.055 1448.86 441.062 1452.13 437.2 1452.29L237.277 1460.88C230.236 1461.18 224.274 1455.72 223.962 1448.68L223.692 1442.61L225.328 1437.67Z" fill="black"/>
</mask>
<g mask="url(#mask0)">
<path d="M298.142 1433.19L321.389 1474.77" stroke="#FFF7F5" stroke-width="16"/>
<path d="M322.854 1410.24L359.593 1471.92" stroke="#FFF7F5" stroke-width="16"/>
<path d="M350.375 1389.59L391.916 1461.97" stroke="#FFF7F5" stroke-width="16"/>
</g>
<path d="M566.907 1110C578.907 1168 592.907 1290 582.907 1360" stroke="#F5D0C3" stroke-width="130" stroke-linecap="round" stroke-linejoin="bevel"/>
<path d="M481.907 1060L316.407 972C316.407 972 296.065 1011.86 281.5 1060C269.771 1098.76 262.9 1146.41 264.907 1156C269.407 1177.5 422.407 1209 444.407 1198C466.407 1187 481.907 1060 481.907 1060Z" fill="black"/>
<ellipse cx="480.907" cy="1031" rx="174" ry="100" fill="black"/>
<path d="M471 1055.5L641 963C641 963 660.139 1016.37 673 1069C684.404 1115.67 689.992 1161.75 686 1169.5C677.506 1186 519.994 1212 505 1198C490.006 1184 471 1055.5 471 1055.5Z" fill="black"/>
<path d="M292.407 748.5C275.407 774.5 256.407 823 240.907 849.5" stroke="#F5D0C3" stroke-width="130" stroke-linecap="round" stroke-linejoin="bevel"/>
<path d="M665.407 715.5C747.907 600.5 771.907 581.5 842.407 485.5" stroke="#F4D4C9" stroke-width="130" stroke-linecap="round" stroke-linejoin="bevel"/>
<ellipse cx="815.5" cy="521" rx="33.5" ry="34" fill="#B18989"/>
<circle cx="873.5" cy="549.5" r="33.5" fill="#B18989"/>
<circle cx="770.5" cy="473.5" r="33.5" fill="#B18989"/>
<path d="M239.184 635.213C250.254 604.71 283.564 588.842 314.426 598.87L364.908 615.273C396.948 625.683 414.483 660.097 404.072 692.137L368.099 802.852C368.099 802.852 208.045 766.481 204.546 749.711C202.441 739.624 222.701 680.632 239.184 635.213Z" fill="black"/>
<path d="M597.658 646.77C575.717 670.686 576.998 707.564 600.132 730.329L640.637 770.186C663.576 792.76 700.093 793.654 723.622 771.695C759.91 737.83 806.374 692.664 805.871 683.877C805.045 669.481 694.545 564.481 683.295 563.259C676.428 562.513 631.563 609.812 597.658 646.77Z" fill="black"/>
<path d="M312.615 638.363C322.062 614.862 344.925 599.855 370.253 599.925L509.726 600.309L634.751 610.146C660.934 612.207 683.063 630.21 689.796 655.596C709.057 728.225 744.874 874.527 736 927.444C724 999 678.179 1031.38 636.5 1045.5C594.821 1059.62 367 1061.5 321 1038.5C275 1015.5 241.763 993.551 229.5 927.444C220.167 877.13 282.363 713.621 312.615 638.363Z" fill="black"/>
<ellipse cx="489.407" cy="632.5" rx="59.5" ry="63.5" fill="#38383A"/>
<path d="M539.849 759.331H486.118C461.692 759.331 441.89 779.132 441.89 803.559V803.559C441.89 827.985 461.691 847.786 486.118 847.786H496.718C520.538 847.786 539.849 828.476 539.849 804.655V804.655H486.483H490.504" stroke="white" stroke-width="10"/>
<path d="M441.159 804.655H385.235" stroke="white" stroke-width="10"/>
<path d="M539.483 804.655H571.649" stroke="white" stroke-width="10"/>
<path d="M564.338 818.179V790.034L587 804.655L564.338 818.179Z" fill="white"/>
<circle cx="540.214" cy="758.966" r="10.9655" fill="white"/>
<circle cx="540.215" cy="758.966" r="6.57931" fill="black"/>
<circle cx="488.311" cy="758.966" r="10.9655" fill="white"/>
<circle cx="488.31" cy="758.966" r="6.57931" fill="black"/>
<circle cx="488.311" cy="847.421" r="10.9655" fill="white"/>
<circle cx="488.31" cy="847.421" r="6.57931" fill="black"/>
<circle cx="385.966" cy="803.559" r="10.9655" fill="white"/>
<circle cx="385.966" cy="803.559" r="6.57931" fill="black"/>
<circle cx="442.256" cy="803.559" r="10.9655" fill="white"/>
<circle cx="442.256" cy="803.559" r="6.57931" fill="black"/>
<circle cx="488.311" cy="803.559" r="12.4276" fill="white"/>
<circle cx="488.311" cy="803.559" r="10.9655" fill="black"/>
<circle cx="488.311" cy="803.559" r="6.57931" fill="white"/>
<circle cx="540.214" cy="803.559" r="10.9655" fill="white"/>
<circle cx="540.215" cy="803.559" r="6.57931" fill="black"/>
<path d="M443 728L486.495 700H494.262L523 745.5L492.709 773L486.495 722.5V788L467.854 800V741L443 728Z" fill="#395875"/>
<path d="M386.045 735.981C346.545 773.481 299.045 814.481 248.045 853.981" stroke="#F5D0C3" stroke-width="130" stroke-linecap="round" stroke-linejoin="bevel"/>
<rect x="451.947" y="561.016" width="76.8567" height="115.285" rx="38.4283" fill="#EBBAAA"/>
<ellipse cx="328.976" cy="424.809" rx="58.0695" ry="55.0806" fill="#EBBAAA"/>
<ellipse cx="658.044" cy="429.079" rx="58.0695" ry="55.0806" fill="#EBBAAA"/>
<path d="M321.406 312.5C324.048 266.422 357.844 228.119 403.235 219.761L467.076 208.006C490.406 203.71 514.35 203.996 537.571 208.85L657.906 234L672.906 384.5L677.024 416.4C691.279 526.831 605.269 624.657 493.922 624.657C384.512 624.657 299.105 530.047 310.262 421.208L321.406 312.5Z" fill="#F4D4CA"/>
<path d="M449.4 522C473.9 535 507.4 531.5 529.9 522" stroke="#C99584" stroke-width="15" stroke-linecap="round"/>
<path d="M389.907 352L447.513 355.8" stroke="#272727" stroke-width="24" stroke-linecap="round"/>
<path d="M536.198 356.208L592.907 352" stroke="#272727" stroke-width="24" stroke-linecap="round"/>
<path d="M490.24 237.625C405.343 237.625 333.407 237.625 328.907 291.5C320.23 334.539 309.907 319 307.907 274.516C312.712 160.154 440.972 136 493.907 136C537.289 166.742 575.136 237.625 490.24 237.625Z" fill="#272727"/>
<path d="M308.366 282.21C308.116 276.095 313.006 271 319.126 271C325.475 271 330.446 276.464 329.847 282.785L319.705 389.851C319.536 391.636 318.037 393 316.244 393C314.379 393 312.846 391.529 312.77 389.666L308.366 282.21Z" fill="#272727"/>
<path d="M496.465 237.625C581.361 237.625 654.907 237.625 658.407 292.5C667.084 335.539 676.407 322 678.798 274.516C673.992 160.154 546.232 136 493.298 136C449.915 166.742 411.568 237.625 496.465 237.625Z" fill="#272727"/>
<path d="M678.638 282.099C678.816 276.023 673.939 271 667.86 271C661.467 271 656.478 276.531 657.135 282.89L668.061 388.647C668.258 390.552 669.863 392 671.778 392C673.799 392 675.454 390.393 675.514 388.373L678.638 282.099Z" fill="#272727"/>
<path d="M487.104 261.217C471.965 250.143 451.428 241.22 415.907 239L492.593 218.5L573.407 239C540.732 240.79 515.671 250.594 498.356 261.597C494.894 263.797 490.415 263.639 487.104 261.217Z" fill="#272727"/>
<path d="M689.009 1445.4L714.507 1446.51L713.715 1464.67C713.45 1470.74 708.315 1475.44 702.245 1475.18L698.726 1475.02C692.657 1474.76 687.951 1469.62 688.216 1463.55L689.009 1445.4Z" fill="black"/>
<path d="M655.011 1443.92L680.51 1445.03L679.717 1463.18C679.452 1469.25 674.317 1473.96 668.248 1473.69L664.729 1473.54C658.659 1473.27 653.954 1468.14 654.219 1462.07L655.011 1443.92Z" fill="black"/>
<path d="M555.447 1439.57L580.945 1440.68L580.153 1458.83C579.888 1464.9 574.753 1469.61 568.684 1469.34L565.164 1469.19C559.095 1468.93 554.39 1463.79 554.655 1457.72L555.447 1439.57Z" fill="black"/>
<path d="M589.444 1441.05L614.943 1442.17L614.15 1460.32C613.885 1466.39 608.75 1471.09 602.681 1470.83L599.162 1470.67C593.092 1470.41 588.387 1465.27 588.652 1459.21L589.444 1441.05Z" fill="black"/>
<path d="M521.449 1438.09L546.947 1439.2L546.155 1457.35C545.89 1463.42 540.755 1468.12 534.685 1467.86L531.166 1467.71C525.097 1467.44 520.392 1462.31 520.657 1456.24L521.449 1438.09Z" fill="black"/>
<path d="M722.479 1445.04C720.319 1422.18 686.718 1395.43 657.027 1377C629.228 1359.75 596.854 1354.13 564.167 1352.71L517.409 1350.67C513.758 1350.32 510.562 1353.1 510.402 1356.76L506.614 1443.52C506.409 1448.21 510.048 1452.19 514.742 1452.39L713.523 1461.07C718.376 1461.28 722.38 1449.89 722.479 1445.04Z" fill="black"/>
<mask id="mask1" mask-type="alpha" maskUnits="userSpaceOnUse" x="505" y="1350" width="218" height="111">
<path d="M720.977 1437.67C715.395 1400.73 685.932 1372.01 648.864 1367.37L518.02 1350.99C513.748 1350.46 509.929 1353.68 509.741 1357.99L505.942 1445C505.773 1448.86 508.768 1452.13 512.63 1452.3L709.015 1460.87C716.056 1461.18 722.014 1455.72 722.321 1448.68L722.586 1442.61L720.977 1437.67Z" fill="black"/>
</mask>
<g mask="url(#mask1)">
<path d="M649.337 1433.19L626.464 1474.77" stroke="#FFF7F5" stroke-width="16"/>
<path d="M625.023 1410.24L588.876 1471.92" stroke="#FFF7F5" stroke-width="16"/>
<path d="M597.945 1389.59L557.073 1461.97" stroke="#FFF7F5" stroke-width="16"/>
</g>
<circle cx="384.901" cy="483" r="61" fill="#FFCACA"/>
<circle cx="604.901" cy="483" r="61" fill="#FFCACA"/>
<path d="M466.907 413L517.907 413" stroke="white" stroke-width="10"/>
<path d="M337.281 389.85C336.787 382.906 342.288 377 349.251 377H461.143C468.261 377 473.814 383.16 473.079 390.239L466.641 452.239C466.006 458.354 460.853 463 454.706 463H353.655C347.358 463 342.132 458.132 341.686 451.85L337.281 389.85Z" fill="white" fill-opacity="0.2" stroke="white" stroke-width="10"/>
<path d="M515.812 390.175C515.118 383.117 520.663 377 527.754 377H639.041C646.184 377 651.746 383.203 650.97 390.304L644.193 452.304C643.528 458.39 638.387 463 632.264 463H533.853C527.681 463 522.515 458.318 521.911 452.175L515.812 390.175Z" fill="white" fill-opacity="0.2" stroke="white" stroke-width="10"/>
<path d="M487.407 426C481.907 437.5 469.907 466 495.407 466" stroke="#EBBAAA" stroke-width="17"/>
<path d="M558 420C567.059 414.999 580.235 417.142 586 420" stroke="black" stroke-width="24" stroke-linecap="round"/>
<path d="M400 420C409.059 414.999 422.235 417.142 428 420" stroke="black" stroke-width="24" stroke-linecap="round"/>
<path d="M523.004 490C521.837 511.167 533.407 539 563.907 546.5" stroke="#C99584" stroke-width="15" stroke-linecap="round"/>
<path d="M493.499 699C428.999 699 401.165 626.167 391.499 599C371.332 586 320.601 568.2 335.001 603C353.001 646.5 442.999 701 493.499 701C514.499 701 554.499 697 580.999 683.5C615.534 665.906 626.5 625.5 632 609.5L608 602.5L584 603C566 638.666 557.999 699 493.499 699Z" fill="#395875"/>
<path d="M843.999 705C858.832 711.833 886.399 714.9 903.999 698.5" stroke="white" stroke-width="10" stroke-linecap="round"/>
</svg>
