<svg width="1200" height="1600" viewBox="0 0 1200 1600" fill="none" xmlns="http://www.w3.org/2000/svg">
<ellipse cx="596.426" cy="628.7" rx="123.836" ry="64.3837" fill="#484D5D"/>
<path d="M586.609 1102.07C652.041 1102.07 705.084 1078.41 705.084 1049.21C705.084 1020.02 652.041 996.351 586.609 996.351C521.178 996.351 468.135 1020.02 468.135 1049.21C468.135 1078.41 521.178 1102.07 586.609 1102.07Z" fill="#918179"/>
<path d="M437.079 709.029C404.553 769.012 397.027 889.463 506.091 929.08" stroke="#EBBAAA" stroke-width="75.9123" stroke-linecap="round" stroke-linejoin="bevel"/>
<path d="M756.466 741.907C802.989 819.593 819.831 963.632 802.913 1007.46" stroke="#EBBAAA" stroke-width="66.6797" stroke-linecap="round" stroke-linejoin="bevel"/>
<path d="M667.502 1250.48L682.89 1413.3" stroke="#EBBAAA" stroke-width="55.3955" stroke-linecap="round" stroke-linejoin="bevel"/>
<path d="M543.375 1249.99V1399.77" stroke="#EBBAAA" stroke-width="55.3955" stroke-linecap="round" stroke-linejoin="bevel"/>
<path d="M459.256 990.063H597.745L587.487 1331.65L584.409 1364.98L505.932 1361.12L500.29 1331.65L459.256 990.063Z" fill="#918179"/>
<path d="M596.426 995.881H750.13L720.333 1328.26L718.794 1358.22L638.266 1364.5L633.65 1336.96L596.426 995.881Z" fill="#918179"/>
<rect x="558.195" y="551.368" width="80.3592" height="114.537" rx="38.8907" fill="#EBBAAA"/>
<path d="M736.186 464.917C765.054 464.917 788.456 442.873 788.456 415.681C788.456 388.489 765.054 366.445 736.186 366.445C707.318 366.445 683.916 388.489 683.916 415.681C683.916 442.873 707.318 464.917 736.186 464.917Z" fill="#EBBAAA"/>
<path d="M464.146 479.411C433.684 479.411 408.99 456.151 408.99 427.457C408.99 398.764 433.684 375.503 464.146 375.503C494.608 375.503 519.302 398.764 519.302 427.457C519.302 456.151 494.608 479.411 464.146 479.411Z" fill="#EBBAAA"/>
<path d="M439.766 322.659C439.766 241.376 509.72 175.482 596.013 175.482C683.252 175.482 753.593 242.773 752.242 324.938L749.845 470.701C708.536 574.559 669.521 612.62 597.232 612.244C524.944 611.868 491.058 572.627 444.824 476.705L439.766 393.863V322.659Z" fill="#F4D4C9"/>
<path d="M571.073 525.279C589.538 534.941 611.081 533.975 633.65 525.279" stroke="#C99584" stroke-width="15.7972" stroke-linecap="round"/>
<path d="M431.569 307.267C431.295 301.789 436.652 297.234 443.356 297.234C450.312 297.234 455.757 302.121 455.099 307.777L443.991 403.605C443.805 405.207 442.162 406.424 440.201 406.424C438.152 406.424 436.476 405.109 436.389 403.444L431.569 307.267Z" fill="#272727"/>
<path d="M763.827 307.375C764.395 301.939 759.368 297.152 752.767 296.831C745.918 296.499 740.292 301.099 740.631 306.757L746.351 402.609C746.447 404.211 747.999 405.501 749.93 405.595C751.947 405.692 753.669 404.464 753.845 402.812L763.827 307.375Z" fill="#272727"/>
<path d="M661.86 406.425V418.987" stroke="black" stroke-width="20.5168" stroke-linecap="round"/>
<path d="M529.526 406.425V418.987" stroke="black" stroke-width="20.5168" stroke-linecap="round"/>
<path d="M646.328 359.604L705.075 357.4" stroke="#393939" stroke-width="18.4652" stroke-linecap="round"/>
<path d="M553.395 361.616L494.784 357.257" stroke="#393939" stroke-width="18.4652" stroke-linecap="round"/>
<path d="M601.965 391.416C591.478 432.745 582.398 482.184 616.355 482.184" stroke="#EBBAAA" stroke-width="17.4393"/>
<path d="M759.828 240.707C747.928 216.743 717.598 206.242 704.946 202.055L662.373 219.931C688.019 209.163 688.122 289.311 704.946 317.526C721.769 345.742 747.347 344.905 748.544 370.189C748.544 370.189 756.238 374.296 759.315 374.054C762.393 373.813 770.087 376.953 770.087 376.953C770.599 343.455 771.728 264.671 759.828 240.707Z" fill="#1E1E1E"/>
<path d="M433.839 275.01C449.739 182.73 514.367 174.033 546.168 164.853L468.204 271.145L451.278 370.189C441.532 357.306 425.62 322.707 433.839 275.01Z" fill="#181818"/>
<path d="M556.711 150.359C664.425 132 697.765 168.697 703.92 183.675C710.075 198.652 712.383 222.809 703.92 233.438C691.61 248.899 633.65 228.123 586.461 235.854C539.272 243.584 530.04 271.124 496.7 293.348C470.028 311.128 443.527 315.251 433.61 315.09C440.278 295.764 455.256 252.378 461.821 233.438C470.028 209.764 499.301 160.144 556.711 150.359Z" fill="#272727"/>
<path d="M583.148 406.424C588.894 405.81 603.699 404.951 616.958 406.424" stroke="black" stroke-width="10.2584"/>
<path d="M618.163 404.229C615.29 394.117 622.507 384.008 632.991 383.46L704.842 379.703C715.326 379.155 723.686 388.45 722.019 398.799L718.162 422.753C716.94 430.34 710.601 436.025 702.916 436.427L641.57 439.635C633.885 440.036 626.917 435.047 624.811 427.633L618.163 404.229Z" fill="white" fill-opacity="0.29" stroke="black" stroke-width="8.20673"/>
<path d="M480.802 397.945C479.329 387.571 487.862 378.419 498.335 379.141L570.102 384.086C580.574 384.808 587.602 395.033 584.542 405.094L577.456 428.391C575.213 435.767 568.152 440.64 560.474 440.111L499.203 435.889C491.525 435.36 485.293 429.571 484.213 421.965L480.802 397.945Z" fill="white" fill-opacity="0.29" stroke="black" stroke-width="8.20673"/>
<path d="M723.7 405.177L763.756 372.162" stroke="black" stroke-width="11.2843" stroke-linecap="round"/>
<path d="M478.796 405.177L438.739 372.162" stroke="black" stroke-width="11.2843" stroke-linecap="round"/>
<path d="M517.139 143.239C508.797 183.526 547.482 173.238 530.208 176.315C512.935 179.391 612.953 205.8 542.044 197.093C471.136 188.385 552.027 234.654 555.054 223.567C558.081 212.479 570.635 201.898 570.635 201.898L618.309 180.634C617.457 176.547 595.43 177.857 570.49 172.344C565.374 166.876 542.933 165.018 517.139 143.239Z" fill="#272727"/>
<path d="M564.041 124.894C564.041 155.014 601.372 156.25 622.934 155.014L649.174 166.313C661.604 171.665 617.963 222.995 576.68 211.289C543.654 201.924 538.236 181.192 536.671 170.691C533.676 150.598 536.671 140.052 564.041 124.894Z" fill="#272727"/>
<path d="M449.104 670.914C449.104 654.023 460.563 639.285 476.933 635.123L535.818 620.148C538.793 619.391 541.851 619.009 544.92 619.009H648.559C651.073 619.009 653.581 619.265 656.044 619.775L734.938 636.105C752.085 639.654 764.383 654.758 764.383 672.269V957.634C764.383 999.56 730.396 1033.55 688.471 1033.55H525.017C483.091 1033.55 449.104 999.56 449.104 957.634V670.914Z" fill="#484D5D"/>
<g filter="url(#filter0_i)">
<path fill-rule="evenodd" clip-rule="evenodd" d="M601.316 684.471C639.562 684.471 670.567 659.632 670.567 628.993C670.567 627.086 670.447 625.202 670.212 623.345L652.966 619.775C650.504 619.266 647.996 619.009 645.481 619.009H541.115C538.526 619.009 535.944 619.281 533.412 619.821L532.989 619.911C532.382 622.866 532.066 625.9 532.066 628.993C532.066 659.632 563.07 684.471 601.316 684.471Z" fill="#EBBAAA"/>
</g>
<path d="M554.146 703.186C558.404 725.912 561.243 782.86 538.535 828.847M642.379 703.186C635.756 711.207 627.094 721.635 635.041 774.038C642.989 826.441 644.542 832.426 647.38 840.893" stroke="white" stroke-width="11.2843" stroke-linecap="round"/>
<path d="M642.434 712.738C649.062 712.738 654.808 707.626 654.808 700.874C654.808 694.122 649.062 689.009 642.434 689.009C635.805 689.009 630.059 694.122 630.059 700.874C630.059 707.626 635.805 712.738 642.434 712.738Z" stroke="white" stroke-width="7.18089"/>
<path d="M553.655 712.738C560.284 712.738 566.03 707.626 566.03 700.874C566.03 694.122 560.284 689.009 553.655 689.009C547.026 689.009 541.281 694.122 541.281 700.874C541.281 707.626 547.026 712.738 553.655 712.738Z" stroke="white" stroke-width="7.18089"/>
<path d="M414.579 667.639C424.006 645.334 450.548 634.128 474.498 642.341C498.444 650.553 511.125 675.206 503.126 697.997L459.464 832.12C450.493 857.683 416.278 875.927 389.14 867.477C360.85 858.668 346.28 829.235 357.301 803.16L414.579 667.639Z" fill="#484D5D"/>
<rect width="106.093" height="239.19" rx="53.0467" transform="matrix(-0.954783 0.297304 0.331148 0.943579 781.418 626.507)" fill="#484D5D"/>
<path fill-rule="evenodd" clip-rule="evenodd" d="M430.749 959.715C433.1 957.789 426.949 946.382 437.398 959.715L473.1 993.557C483.913 1005.27 499.583 1012 516.062 1012L678.868 1014.89C694.185 1014.89 708.856 1009.08 719.567 998.768L762.37 955.621C769.18 949.504 766.768 953.568 768.995 955.621C771.222 957.673 769.412 963.388 767.233 965.486L727.633 1006.2C714.799 1018.56 697.221 1025.52 678.868 1025.52L516.062 1022.62C496.317 1022.62 477.541 1014.57 464.584 1000.53L428.883 966.69C426.838 964.475 428.397 961.641 430.749 959.715Z" fill="white"/>
<path fill-rule="evenodd" clip-rule="evenodd" d="M426.22 869.244C444.24 859.155 450.256 835.373 466.575 852.26C476.433 867.883 495.067 886.756 519.748 895.722C539.307 902.827 549.048 923.521 541.506 941.944C533.963 960.367 511.993 969.543 492.435 962.438C451.891 947.711 423.017 923.327 404.451 893.902C393.741 876.928 408.2 879.332 426.22 869.244Z" fill="#EBBAAA"/>
<path fill-rule="evenodd" clip-rule="evenodd" d="M682.38 995.603C689.007 995.603 691.896 985.889 686.889 981.549C685.764 980.575 685.024 979.163 684.795 977.693C675.451 917.813 669.597 927.446 675.585 894.937C675.592 894.899 675.615 894.864 675.647 894.844C675.763 894.772 675.713 894.591 675.576 894.591H521.167C521.032 894.591 520.982 894.769 521.097 894.84C521.133 894.862 521.156 894.903 521.159 894.945C525.024 940.637 520.814 929.775 512 977.793C511.74 979.205 511.011 980.552 509.927 981.492C504.905 985.851 507.806 995.603 514.456 995.603H682.38Z" fill="#737681"/>
<path d="M647.451 1407.01C647.451 1407.01 647.963 1375.13 650.521 1377.54C653.079 1379.96 664.838 1386.24 680.707 1386.24C696.567 1386.24 706.288 1380.93 709.869 1377.54C713.451 1374.16 717.544 1408.46 717.544 1408.46L647.451 1407.01Z" fill="#C46868"/>
<path d="M820.38 1461.61C822.344 1457.44 822.162 1453.19 821.062 1451.63C819.962 1450.08 686.41 1440.21 686.41 1440.21C664.243 1438.66 618.985 1428.95 615.948 1440.21C605.596 1478.62 633.105 1478.62 650.692 1478.62C674.874 1478.62 677.743 1472.57 693.554 1474.47C701.798 1475.46 713.889 1480.69 769.397 1480.69C813.916 1480.69 815.983 1470.95 820.38 1461.61Z" fill="#767676"/>
<path d="M648.027 1380.54L647.963 1380.44C647.963 1380.44 644.893 1376.58 640.288 1379.48C635.684 1382.37 632.711 1389.01 630.237 1399.55C626.938 1413.6 624.153 1411.59 620.854 1424.63C618.57 1433.66 618.105 1447.21 623.603 1454.74C632.142 1466.43 642.847 1465.27 660.992 1465.27C671.44 1465.27 689.034 1462.76 704.98 1466.78C727.243 1472.38 788.556 1475.31 803.954 1470.79C830.191 1463.1 822.098 1440.69 811.102 1432.16C791.804 1417.19 747.415 1421.56 738.008 1409.91C730.31 1400.38 726.686 1384.16 723.962 1376.97C720.884 1368.85 711.573 1366.97 712.679 1376.97C713.703 1386.24 710.478 1400.05 682.436 1399.55C660.057 1399.15 656.772 1394.07 648.027 1380.54Z" fill="#252424"/>
<mask id="mask0" mask-type="alpha" maskUnits="userSpaceOnUse" x="619" y="1364" width="203" height="113">
<path d="M682.471 1400.82C660.048 1400.4 652.61 1386.8 651.694 1380.06H637.836C636.736 1381.61 635.483 1385.25 633.009 1396.15C629.712 1410.68 624.215 1413.27 620.918 1426.77C618.635 1436.11 618.17 1450.12 623.666 1457.91C632.201 1470 642.901 1468.81 661.038 1468.81C671.48 1468.81 689.066 1466.21 705.004 1470.36C727.256 1476.16 788.541 1479.19 803.931 1474.51C830.155 1466.55 823.116 1441.8 811.682 1432.62C792.393 1417.14 747.38 1421.05 737.976 1408.99C730.283 1399.13 724.561 1375.65 719.046 1369.86C709.154 1359.48 710.925 1367.4 712.699 1377.46C714.896 1389.92 710.499 1401.34 682.471 1400.82Z" fill="#252424"/>
</mask>
<g mask="url(#mask0)">
<path d="M824.494 1437.94C824.494 1440.88 807.544 1450.6 797.432 1450.6C784.791 1450.6 781.494 1451.11 772.7 1457.34C766.022 1462.07 780.63 1476.35 784.425 1482.34C776.163 1483.25 772.972 1483.15 783.756 1484.97C785.744 1485.3 785.627 1484.24 784.425 1482.34C793.71 1481.31 809.399 1479.01 818.852 1471.27C825.447 1465.88 825.227 1447.11 824.494 1437.94Z" fill="#767676"/>
</g>
<path d="M718.566 1413.44L741.769 1405.57L740.12 1426.33L765.401 1417.5L769.798 1436.19L790.132 1424.77" stroke="white" stroke-width="6.61171" stroke-linecap="round" stroke-linejoin="round"/>
<g clip-path="url(#clip0)">
<path d="M723.555 1463.31C726.771 1464 729.611 1463.83 732.086 1462.81C732.559 1462.61 733.736 1461.97 734.153 1461.67C735.261 1460.9 736.096 1460.08 736.776 1459.11C738.866 1456.12 739.504 1451.66 738.601 1446.36C737.827 1441.82 735.996 1437.05 732.389 1430.18C731.857 1429.17 730.261 1426.2 730.247 1426.19C730.241 1426.19 730.307 1426.43 730.392 1426.72C731.128 1429.21 731.559 1432.04 731.561 1434.4C731.565 1438.18 730.579 1441.17 728.662 1443.2C727.34 1444.59 725.465 1445.62 723.586 1445.97C720.296 1446.59 716.013 1445.62 711.147 1443.17C710.812 1443 694.381 1434.03 674.634 1423.25C654.886 1412.46 638.725 1403.64 638.722 1403.64C638.714 1403.64 682.421 1436.33 705.112 1453.29C708.706 1455.97 709.674 1456.66 711.403 1457.79C715.823 1460.66 719.978 1462.55 723.555 1463.31Z" fill="white"/>
</g>
<path d="M575.268 1407.01C575.268 1407.01 574.756 1375.13 572.198 1377.54C569.64 1379.96 557.881 1386.24 542.012 1386.24C526.152 1386.24 516.431 1380.93 512.85 1377.54C509.268 1374.16 505.175 1408.46 505.175 1408.46L575.268 1407.01Z" fill="#C46868"/>
<path d="M402.339 1461.61C400.375 1457.44 400.557 1453.19 401.657 1451.63C402.757 1450.08 536.309 1440.21 536.309 1440.21C558.476 1438.66 603.734 1428.95 606.771 1440.21C617.123 1478.62 589.614 1478.62 572.027 1478.62C547.845 1478.62 544.976 1472.57 529.165 1474.47C520.921 1475.46 508.83 1480.69 453.322 1480.69C408.803 1480.69 406.736 1470.95 402.339 1461.61Z" fill="#767676"/>
<path d="M574.692 1380.54L574.756 1380.44C574.756 1380.44 577.826 1376.58 582.431 1379.48C587.035 1382.37 590.008 1389.01 592.482 1399.55C595.781 1413.6 598.566 1411.59 601.865 1424.63C604.149 1433.66 604.614 1447.21 599.116 1454.74C590.577 1466.43 579.872 1465.27 561.727 1465.27C551.279 1465.27 533.685 1462.76 517.739 1466.78C495.476 1472.38 434.162 1475.31 418.765 1470.79C392.528 1463.1 400.621 1440.69 411.617 1432.16C430.915 1417.19 475.304 1421.56 484.711 1409.91C492.409 1400.38 496.033 1384.16 498.757 1376.97C501.835 1368.85 511.146 1366.97 510.04 1376.97C509.016 1386.24 512.241 1400.05 540.283 1399.55C562.662 1399.15 565.947 1394.07 574.692 1380.54Z" fill="#252424"/>
<mask id="mask1" mask-type="alpha" maskUnits="userSpaceOnUse" x="400" y="1364" width="204" height="113">
<path d="M540.248 1400.82C562.671 1400.4 570.109 1386.8 571.025 1380.06H584.883C585.983 1381.61 587.236 1385.25 589.71 1396.15C593.007 1410.68 598.504 1413.27 601.801 1426.77C604.084 1436.11 604.549 1450.12 599.053 1457.91C590.518 1470 579.818 1468.81 561.681 1468.81C551.239 1468.81 533.653 1466.21 517.715 1470.36C495.463 1476.16 434.178 1479.19 418.788 1474.51C392.564 1466.55 399.603 1441.8 411.037 1432.62C430.326 1417.14 475.339 1421.05 484.743 1408.99C492.436 1399.13 498.158 1375.65 503.673 1369.86C513.565 1359.48 511.794 1367.4 510.02 1377.46C507.823 1389.92 512.219 1401.34 540.248 1400.82Z" fill="#252424"/>
</mask>
<g mask="url(#mask1)">
<path d="M398.225 1437.94C398.225 1440.88 415.175 1450.6 425.287 1450.6C437.928 1450.6 441.225 1451.11 450.019 1457.34C456.697 1462.07 442.089 1476.35 438.294 1482.34C446.556 1483.25 449.747 1483.15 438.963 1484.97C436.975 1485.3 437.092 1484.24 438.294 1482.34C429.009 1481.31 413.32 1479.01 403.867 1471.27C397.272 1465.88 397.492 1447.11 398.225 1437.94Z" fill="#767676"/>
</g>
<path d="M504.153 1413.44L480.95 1405.57L482.599 1426.33L457.318 1417.5L452.922 1436.19L432.587 1424.77" stroke="white" stroke-width="6.61171" stroke-linecap="round" stroke-linejoin="round"/>
<g clip-path="url(#clip1)">
<path d="M499.164 1463.31C495.948 1464 493.108 1463.83 490.633 1462.81C490.161 1462.61 488.983 1461.97 488.566 1461.67C487.459 1460.9 486.623 1460.08 485.944 1459.11C483.854 1456.12 483.215 1451.66 484.118 1446.36C484.892 1441.82 486.723 1437.05 490.33 1430.18C490.862 1429.17 492.458 1426.2 492.472 1426.19C492.478 1426.19 492.412 1426.43 492.327 1426.72C491.591 1429.21 491.16 1432.04 491.158 1434.4C491.154 1438.18 492.14 1441.17 494.057 1443.2C495.379 1444.59 497.254 1445.62 499.133 1445.97C502.424 1446.59 506.706 1445.62 511.572 1443.17C511.907 1443 528.338 1434.03 548.085 1423.25C567.833 1412.46 583.994 1403.64 583.998 1403.64C584.005 1403.64 540.298 1436.33 517.607 1453.29C514.013 1455.97 513.045 1456.66 511.316 1457.79C506.896 1460.66 502.741 1462.55 499.164 1463.31Z" fill="white"/>
</g>
<defs>
<filter id="filter0_i" x="532.066" y="619.009" width="138.501" height="65.4617" filterUnits="userSpaceOnUse" color-interpolation-filters="sRGB">
<feFlood flood-opacity="0" result="BackgroundImageFix"/>
<feBlend mode="normal" in="SourceGraphic" in2="BackgroundImageFix" result="shape"/>
<feColorMatrix in="SourceAlpha" type="matrix" values="0 0 0 0 0 0 0 0 0 0 0 0 0 0 0 0 0 0 127 0" result="hardAlpha"/>
<feOffset dy="-8.20673"/>
<feComposite in2="hardAlpha" operator="arithmetic" k2="-1" k3="1"/>
<feColorMatrix type="matrix" values="0 0 0 0 1 0 0 0 0 1 0 0 0 0 1 0 0 0 1 0"/>
<feBlend mode="normal" in2="shape" result="effect1_innerShadow"/>
</filter>
<clipPath id="clip0">
<rect width="112.412" height="38.8172" transform="matrix(-0.96931 -0.245842 -0.274843 0.961489 746.943 1430)" fill="white"/>
</clipPath>
<clipPath id="clip1">
<rect width="112.412" height="38.8172" transform="matrix(0.96931 -0.245842 0.274843 0.961489 475.776 1430)" fill="white"/>
</clipPath>
</defs>
</svg>
