<svg width="1200" height="1600" viewBox="0 0 1200 1600" fill="none" xmlns="http://www.w3.org/2000/svg">
<path d="M474.64 460.32L417.15 448C402.366 530.13 404.83 641.005 417.15 688.229L550.61 659.484L474.64 460.32Z" fill="#1F1F20"/>
<path d="M704.651 460.32L762.142 448C790.887 536.29 774.461 677.963 762.142 725.187L628.681 659.484V548.609L704.651 460.32Z" fill="#1F1F20"/>
<rect x="408.585" y="605.741" width="188.149" height="348.924" rx="94.0746" transform="rotate(12 408.585 605.741)" fill="#36383A"/>
<path d="M448.53 719.501C453.095 663.552 499.833 620.472 555.968 620.472H639.742C695.541 620.472 742.117 663.055 747.105 718.631L758.025 840.295C758.715 847.976 758.63 855.707 757.771 863.371L738.294 1037.28H456.61L438.799 862.335C438.088 855.357 438.018 848.329 438.588 841.338L448.53 719.501Z" fill="#7E8083"/>
<rect x="546.453" y="555.795" width="90.3423" height="118.061" rx="45.1712" fill="#EBBAAA"/>
<rect width="153.276" height="376.734" rx="76.6381" transform="matrix(-0.945519 0.325568 0.325568 0.945519 752.048 565.035)" fill="#36383A"/>
<path d="M455.183 1046.52L576.324 1056.78V1396.6H488.575L455.183 1046.52Z" fill="#404B62"/>
<ellipse cx="593.781" cy="1076.57" rx="116.6" ry="55.2317" fill="#404B62"/>
<path d="M603.016 1056.78H727.237V1396.59H637.256L603.016 1056.78Z" fill="#404B62"/>
<path d="M476.654 1324.73H576.235V1405.83H486.767L476.654 1324.73Z" fill="#8C8379"/>
<path d="M732.37 1319.6L626.628 1315.49L631.761 1396.59H729.442L732.37 1319.6Z" fill="#8C8379"/>
<path d="M405.38 1459.38C405.38 1417.91 439 1384.29 480.473 1384.29H576.933C577.571 1384.29 578.089 1384.8 578.089 1385.44V1454.68C578.089 1460.35 573.492 1464.94 567.822 1464.94H410.942C407.87 1464.94 405.38 1462.45 405.38 1459.38Z" fill="#CEB56F"/>
<mask id="mask0" mask-type="alpha" maskUnits="userSpaceOnUse" x="405" y="1384" width="174" height="81">
<path d="M405.38 1459.38C405.38 1417.91 439 1384.29 480.473 1384.29H578.089V1454.68C578.089 1460.35 573.492 1464.94 567.822 1464.94H410.942C407.87 1464.94 405.38 1462.45 405.38 1459.38Z" fill="#CEB56F"/>
</mask>
<g mask="url(#mask0)">
<path d="M425.411 1414.05C412.462 1406.73 417.541 1421.23 405.906 1427.39L381.266 1474.62H577.35C582.141 1467.77 597.804 1443.58 584.023 1438.69C552.198 1427.39 515.753 1449.47 497.274 1448.44C478.795 1447.41 425.898 1455.11 429.004 1438.69C432.597 1419.69 437.217 1420.72 425.411 1414.05Z" fill="#B69F62"/>
<ellipse cx="555.216" cy="1432.38" rx="34.1391" ry="20.1662" transform="rotate(-25 555.216 1432.38)" fill="#B69F62"/>
</g>
<path d="M478.282 1383.25C482.388 1386.33 490.601 1390.95 490.601 1397.11L459.803 1388.38L471.609 1407.37L440.297 1397.11L453.643 1416.1" stroke="#EED99F" stroke-width="6.1597" stroke-linecap="round" stroke-linejoin="round"/>
<path d="M483.415 1371.44C483.415 1372.61 483.435 1373.72 483.454 1374.74L483.455 1374.78C483.474 1375.8 483.491 1376.72 483.489 1377.58C483.483 1379.37 483.388 1380.61 483.155 1381.5C482.943 1382.31 482.683 1382.58 482.469 1382.73C482.184 1382.93 481.479 1383.24 479.822 1383.24C476.496 1383.24 472.208 1381.99 468.798 1379.72C465.374 1377.44 463.396 1374.55 463.396 1371.44C463.396 1367.36 464.388 1364.08 465.982 1361.91C467.503 1359.83 469.67 1358.61 472.636 1358.61C478.482 1358.61 483.415 1363.65 483.415 1371.44Z" stroke="#EED99F" stroke-width="6.1597"/>
<path d="M490.204 1376.71C489.852 1377.5 489.504 1378.24 489.185 1378.92L489.177 1378.94C488.857 1379.63 488.573 1380.23 488.322 1380.8C487.797 1381.99 487.53 1382.77 487.441 1383.32C487.4 1383.57 487.41 1383.7 487.417 1383.75C487.422 1383.78 487.425 1383.78 487.428 1383.79C487.429 1383.79 487.429 1383.79 487.43 1383.79C487.45 1383.82 487.681 1384.16 488.734 1384.63C490.849 1385.57 493.98 1386.01 496.828 1385.55C499.7 1385.07 501.582 1383.83 502.346 1382.12C503.513 1379.49 503.767 1377.18 503.383 1375.47C503.024 1373.87 502.085 1372.59 500.293 1371.79C496.785 1370.23 492.373 1371.84 490.204 1376.71Z" stroke="#EED99F" stroke-width="6.1597"/>
<path d="M801.39 1459.38C801.39 1417.91 767.769 1384.29 726.297 1384.29H629.837C629.199 1384.29 628.681 1384.8 628.681 1385.44V1454.68C628.681 1460.35 633.278 1464.94 638.948 1464.94H795.827C798.899 1464.94 801.39 1462.45 801.39 1459.38Z" fill="#CEB56F"/>
<mask id="mask1" mask-type="alpha" maskUnits="userSpaceOnUse" x="628" y="1384" width="174" height="81">
<path d="M801.39 1459.38C801.39 1417.91 767.769 1384.29 726.297 1384.29H628.681V1454.68C628.681 1460.35 633.278 1464.94 638.948 1464.94H795.827C798.899 1464.94 801.39 1462.45 801.39 1459.38Z" fill="#CEB56F"/>
</mask>
<g mask="url(#mask1)">
<path d="M781.359 1414.05C794.308 1406.73 789.229 1421.23 800.864 1427.39L825.503 1474.62H629.419C624.629 1467.77 608.966 1443.58 622.746 1438.69C654.572 1427.39 691.016 1449.47 709.496 1448.44C727.975 1447.41 780.872 1455.11 777.766 1438.69C774.172 1419.69 769.553 1420.72 781.359 1414.05Z" fill="#B69F62"/>
<ellipse rx="34.1391" ry="20.1662" transform="matrix(-0.906308 -0.422618 -0.422618 0.906308 651.553 1432.38)" fill="#B69F62"/>
</g>
<path d="M728.488 1383.25C724.382 1386.33 716.169 1390.95 716.169 1397.11L746.967 1388.38L735.161 1407.37L766.473 1397.11L753.127 1416.1" stroke="#EED99F" stroke-width="6.1597" stroke-linecap="round" stroke-linejoin="round"/>
<path d="M723.355 1371.44C723.355 1372.61 723.335 1373.72 723.316 1374.74L723.315 1374.78C723.296 1375.8 723.279 1376.72 723.281 1377.58C723.287 1379.37 723.382 1380.61 723.615 1381.5C723.827 1382.31 724.087 1382.58 724.301 1382.73C724.586 1382.93 725.291 1383.24 726.948 1383.24C730.274 1383.24 734.562 1381.99 737.972 1379.72C741.396 1377.44 743.374 1374.55 743.374 1371.44C743.374 1367.36 742.382 1364.08 740.788 1361.91C739.267 1359.83 737.1 1358.61 734.134 1358.61C728.288 1358.61 723.355 1363.65 723.355 1371.44Z" stroke="#EED99F" stroke-width="6.1597"/>
<path d="M716.566 1376.71C716.918 1377.5 717.266 1378.24 717.585 1378.92L717.593 1378.94C717.913 1379.63 718.197 1380.23 718.448 1380.8C718.973 1381.99 719.24 1382.77 719.329 1383.32C719.37 1383.57 719.36 1383.7 719.353 1383.75C719.348 1383.78 719.345 1383.78 719.342 1383.79C719.341 1383.79 719.341 1383.79 719.34 1383.79C719.32 1383.82 719.089 1384.16 718.036 1384.63C715.921 1385.57 712.79 1386.01 709.942 1385.55C707.07 1385.07 705.188 1383.83 704.424 1382.12C703.257 1379.49 703.003 1377.18 703.387 1375.47C703.746 1373.87 704.685 1372.59 706.477 1371.79C709.985 1370.23 714.397 1371.84 716.566 1376.71Z" stroke="#EED99F" stroke-width="6.1597"/>
<path d="M553.738 735.453C553.738 704.244 556.818 653.324 538.339 608.153H473.662C462.027 625.947 437.936 686.997 434.651 788.837C431.366 890.678 423.7 1007.85 420.278 1053.7C434.651 1058.32 519.347 1073.72 566.571 1057.3C566.571 991.594 561.951 953.096 560.925 856.594C560.231 791.407 553.738 766.662 553.738 735.453Z" fill="#36383A"/>
<rect x="322" y="929.788" width="125.431" height="212.399" rx="62.7157" transform="rotate(-67 322 929.788)" fill="#424648"/>
<path d="M493.168 668.723C519.86 649.218 513.7 579.921 531.153 579.921C586.077 628.172 577.607 710.815 558.871 827.849C530.126 685.149 513.957 698.495 493.168 668.723Z" fill="#5A5E65"/>
<path d="M634.719 730.833C634.719 699.624 636.894 626.632 655.373 581.46H699.857C718.221 581.46 734.509 591.353 738.204 609.342C745.657 645.621 751.411 709.941 753.807 784.217C757.092 886.058 762.826 1015.55 766.248 1061.4C739.556 1065.51 666.544 1077.83 619.32 1061.4C619.32 995.7 626.506 948.476 627.533 851.974C628.226 786.788 634.719 762.042 634.719 730.833Z" fill="#36383A"/>
<rect x="702.644" y="1025.49" width="124.009" height="212.399" rx="62.0045" transform="rotate(-124 702.644 1025.49)" fill="#424648"/>
<path d="M695.289 664.103C668.597 644.597 674.757 575.301 657.305 575.301C602.381 623.552 610.85 706.194 629.586 823.229C658.331 680.529 674.501 693.875 695.289 664.103Z" fill="#5A5E65"/>
<path d="M502.417 417.258C502.417 448.488 490.028 479.799 457.103 479.799C424.179 479.799 383.187 448.488 383.187 417.258C383.187 386.028 409.877 360.711 442.802 360.711C475.726 360.711 502.417 386.028 502.417 417.258Z" fill="#EBBAAA"/>
<path d="M670.906 416.258C670.906 447.488 683.295 478.799 716.22 478.799C749.144 478.799 790.136 447.488 790.136 416.258C790.136 385.028 763.445 359.711 730.521 359.711C697.596 359.711 670.906 385.028 670.906 416.258Z" fill="#EBBAAA"/>
<path d="M444.107 318.71C440.629 235.245 507.355 165.681 590.892 165.681C676.574 165.681 744.075 238.703 737.352 324.121L724.422 488.412C719.056 556.59 662.165 609.179 593.776 609.179C516.891 609.179 453.683 548.55 450.483 471.732L444.107 318.71Z" fill="#EED4CC"/>
<mask id="mask2" mask-type="alpha" maskUnits="userSpaceOnUse" x="443" y="165" width="295" height="445">
<path d="M444.107 318.683C440.629 235.218 507.355 165.654 590.892 165.654C676.574 165.654 744.075 238.676 737.352 324.094L724.422 488.385C719.056 556.563 662.165 609.152 593.776 609.152C516.891 609.152 453.683 548.524 450.483 471.705L444.107 318.683Z" fill="#7E6056"/>
</mask>
<g mask="url(#mask2)">
<path d="M549.494 591.02C543.47 587.608 555.234 571.792 559.741 564.985C562.67 563.33 574.667 570.211 593.335 571.392C616.67 572.869 617.872 560.014 624.566 568.847C631.26 577.679 645.393 587.931 627.877 593.073C600.489 601.112 557.688 595.663 549.494 591.02Z" fill="#CAC4C1"/>
</g>
<path d="M560.925 501.384C586.518 512.677 584.465 509.597 619.442 501.384" stroke="#C99584" stroke-width="15.3993" stroke-linecap="round"/>
<path d="M544.552 478.799C540.856 482.495 537.537 487.525 536.339 489.578" stroke="#CAC3C1" stroke-width="8.21294"/>
<path d="M558.871 476.746C555.176 480.441 551.856 487.525 550.658 489.578" stroke="#CAC3C1" stroke-width="8.21294"/>
<path d="M624.575 476.746C628.271 480.441 631.59 487.525 632.788 489.578" stroke="#CAC3C1" stroke-width="8.21294"/>
<path d="M612.255 478.799C615.951 482.495 617.731 485.985 618.928 488.038" stroke="#CAC3C1" stroke-width="8.21294"/>
<path d="M509.594 339.461L546.937 342.541" stroke="#787574" stroke-width="20.5323" stroke-linecap="round"/>
<path d="M667.106 340.206L629.763 343.285" stroke="#787574" stroke-width="20.5323" stroke-linecap="round"/>
<path d="M519.196 392.056L537.334 393.691" stroke="black" stroke-width="24.6388" stroke-linecap="round"/>
<path d="M659.428 391.582L641.256 393.261" stroke="black" stroke-width="24.6388" stroke-linecap="round"/>
<rect x="423.64" y="348.352" width="23.6707" height="110.463" rx="11.8354" transform="rotate(-4 423.64 348.352)" fill="#1F1F20"/>
<rect x="727.952" y="329.939" width="23.6707" height="127.997" rx="11.8354" transform="rotate(4 727.952 329.939)" fill="#1F1F20"/>
<path d="M583.693 390.993C581.647 405.897 559.026 454.16 580.944 454.16H595.83" stroke="#EBBAAA" stroke-width="17.4525"/>
<path d="M589.67 195.452C519.038 193.81 449.023 288.875 449.023 352.525C437.388 403.856 429.586 356.074 407 372.5C398.787 347.861 397.692 250.89 509.594 162.601C554.134 127.459 591.894 135.722 597.369 144.619C607.171 160.547 611.394 158.494 589.67 195.452Z" fill="#1F1F20"/>
<path d="M601.237 195.453C671.868 193.81 727.75 287.848 727.75 351.498C739.385 402.829 754.5 362.5 779.5 383C779.5 356.308 801.153 252.077 685.145 160.548C640.605 125.405 601.066 135.722 595.59 144.619C585.788 160.548 579.512 158.494 601.237 195.453Z" fill="#1F1F20"/>
<path d="M421.675 629.712C431.53 600.145 425.781 536.632 421.675 508.571C451.789 548.951 505.036 634.229 477.112 652.297C449.188 670.366 454.526 732.373 460.686 761.119C453.842 759.065 436.458 747.978 421.675 720.054C403.195 685.149 409.355 666.67 421.675 629.712Z" fill="#1F1F20"/>
<path d="M520.887 589.674C489.061 575.301 477.769 566.061 460.316 540.396C456.894 556.137 458.263 606.51 466.476 632.792C474.689 659.073 476.742 714.921 515.753 714.921C515.753 714.921 510.62 672.83 520.887 652.297C531.153 631.765 542.395 599.387 520.887 589.674Z" fill="#1F1F20"/>
<path d="M453.753 650.102C460.908 628.588 456.735 582.373 453.753 561.955C475.615 591.337 528.839 647.363 508.567 660.51C488.295 673.658 477.602 724.803 482.074 745.72C477.106 744.226 464.485 736.158 453.753 715.839C440.338 690.441 444.81 676.995 453.753 650.102Z" fill="#1F1F20"/>
<rect x="490.088" y="825.474" width="211.483" height="132.495" rx="3.82198" fill="#2B2927"/>
<rect x="504.461" y="816.556" width="35.6719" height="20.3839" rx="2.54799" fill="#2B2927"/>
<rect x="547.776" y="816.556" width="21.6579" height="20.3839" rx="2.54799" fill="#2B2927"/>
<rect x="579.404" y="816.556" width="122.167" height="14.3726" rx="2.54799" fill="#2B2927"/>
<rect x="490.088" y="843.31" width="211.483" height="94.2756" fill="#313131"/>
<circle cx="679.913" cy="847.132" r="12.7399" fill="#FF2929"/>
<circle cx="620.673" cy="902.551" r="50.3228" fill="#5D5F61" stroke="#444549" stroke-width="17.8359"/>
<mask id="mask3" mask-type="alpha" maskUnits="userSpaceOnUse" x="579" y="861" width="85" height="85">
<circle cx="621.31" cy="903.188" r="42.0418" fill="#C6C6C6"/>
</mask>
<g mask="url(#mask3)">
<rect x="658.777" y="825.474" width="31.8499" height="139.55" transform="rotate(40 658.777 825.474)" fill="white"/>
<rect x="640.941" y="780.884" width="31.8499" height="139.55" transform="rotate(40 640.941 780.884)" fill="white"/>
</g>
<path d="M549.003 947.919C549.844 972.001 530.239 983.501 505.591 984.361C480.942 985.222 456.479 975.262 455.638 951.18C454.797 927.097 466.443 878.895 491.091 878.034C515.74 877.174 548.162 923.837 549.003 947.919Z" fill="#EBBAAA"/>
<path d="M645.107 956.176C684.118 940.263 685.537 893.481 672.826 873.533C676.932 867.373 683.941 867.362 688.738 867.373C702.658 867.406 713.468 877.256 724.156 892.526C738.529 913.058 730.83 955.149 701.058 973.628C671.286 992.107 630.054 989.013 613.674 975.611C608.028 970.991 601.476 965.415 617.388 961.892C623.177 962.141 632.343 961.382 645.107 956.176Z" fill="#EBBAAA"/>
</svg>
