<svg width="1200" height="1600" viewBox="0 0 1200 1600" fill="none" xmlns="http://www.w3.org/2000/svg">
<path d="M663 1311.5L650.5 1443" stroke="#EBBAAA" stroke-width="54" stroke-linecap="round" stroke-linejoin="bevel"/>
<path d="M537 1311.5L549.5 1443" stroke="#EBBAAA" stroke-width="54" stroke-linecap="round" stroke-linejoin="bevel"/>
<path d="M600 1070C663.512 1070 714.999 1046.49 714.999 1017.5C714.999 988.505 663.512 965 600 965C536.487 965 485 988.505 485 1017.5C485 1046.49 536.487 1070 600 1070Z" fill="#667A8C"/>
<path d="M739 967H609V1403L666 1413L703.171 1403L739 967Z" fill="#667A8C"/>
<path d="M740 967H680L666 1413L703 1403.5L740 967Z" fill="url(#paint0_linear)"/>
<path d="M461 967H591V1403L534 1413L496.829 1403L461 967Z" fill="#667A8C"/>
<path d="M460 967H520L534 1413L497 1403.5L460 967Z" fill="url(#paint1_linear)"/>
<path d="M484 660C440 738 404 926 420 970" stroke="#EBBAAA" stroke-width="74" stroke-linecap="round" stroke-linejoin="bevel"/>
<path d="M716 660C760 738 796 926 780 970" stroke="#EBBAAA" stroke-width="74" stroke-linecap="round" stroke-linejoin="bevel"/>
<rect width="160" height="360" rx="80" transform="matrix(-0.939693 0.34202 0.34202 0.939693 750 545)" fill="#373434"/>
<rect x="450.001" y="545" width="160" height="360" rx="80" transform="rotate(20 450.001 545)" fill="#373434"/>
<path d="M452.17 626.587C450.927 601.596 468.35 579.534 492.948 574.95L600 555L707.052 574.95C731.65 579.534 749.073 601.596 747.83 626.587L740 784L749.542 1001.56C749.792 1007.25 745.247 1012 739.552 1012H460.448C454.753 1012 450.208 1007.25 450.458 1001.56L460 784L452.17 626.587Z" fill="#373434"/>
<rect x="560" y="417" width="80" height="195" rx="40" fill="#EBBAAA"/>
<path d="M560 567C560 544.909 577.909 527 600 527C622.091 527 640 544.909 640 567V572C640 594.091 622.091 612 600 612C577.909 612 560 594.091 560 572V567Z" fill="#EBBAAA"/>
<path opacity="0.5" d="M748 402.001C770.091 402.001 788 384.092 788 362.001C788 339.91 770.091 322.001 748 322.001C725.909 322.001 708 339.91 708 362.001C708 384.092 725.909 402.001 748 402.001Z" fill="#DE8E7C"/>
<path opacity="0.5" d="M448 402.001C425.909 402.001 408 384.092 408 362.001C408 339.91 425.909 322.001 448 322.001C470.091 322.001 488 339.91 488 362.001C488 384.092 470.091 402.001 448 402.001Z" fill="#DE8E7C"/>
<path d="M450 264C450 181.157 517.157 114 600 114C682.843 114 750 181.157 750 264V384C750 466.843 682.843 534 600 534C517.157 534 450 466.843 450 384V264Z" fill="#F4D5CC"/>
<path d="M642 282L698 278.5" stroke="#393939" stroke-width="18" stroke-linecap="round"/>
<path d="M498 278.5L554 282" stroke="#393939" stroke-width="18" stroke-linecap="round"/>
<path d="M623 319C623 313.477 627.477 309 633 309H698C703.523 309 708 313.477 708 319V345C708 361.569 694.569 375 678 375H653C636.431 375 623 361.569 623 345V319Z" fill="black" fill-opacity="0.2" stroke="#FCEBE6" stroke-width="12"/>
<path d="M488 319C488 313.477 492.478 309 498 309H563C568.523 309 573 313.477 573 319V345C573 361.569 559.569 375 543 375H518C501.432 375 488 361.569 488 345V319Z" fill="black" fill-opacity="0.2" stroke="#FCEBE6" stroke-width="12"/>
<rect x="573" y="319" width="50" height="10" fill="#F9EAE6"/>
<path d="M663 331V343" stroke="black" stroke-width="24" stroke-linecap="round"/>
<path d="M533.5 331V343" stroke="black" stroke-width="24" stroke-linecap="round"/>
<path d="M638 454C638 454 623.333 462.5 598 462.5C572.667 462.5 558 454 558 454" stroke="#C99584" stroke-width="15.3993" stroke-linecap="round"/>
<path d="M752.991 228.487C753.224 222.216 748.683 217.001 743 217.001C737.104 217.001 732.488 222.595 733.046 229.071L742.461 378.774C742.619 380.608 744.012 382.001 745.674 382.001C747.411 382.001 748.831 380.495 748.906 378.589L752.991 228.487Z" fill="#6E6C6C"/>
<path d="M462.991 228.487C463.224 222.216 458.683 217.001 453 217.001C447.104 217.001 442.488 222.595 443.046 229.071L452.461 378.774C452.619 380.608 454.012 382.001 455.674 382.001C457.411 382.001 458.831 380.495 458.906 378.589L462.991 228.487Z" fill="#6E6C6C"/>
<path d="M591.29 209.056C668.434 209.056 704.426 214.844 737.857 274.514C750.871 292.514 749.284 274.559 763.579 257.381C777.874 240.204 772.808 214.347 757.106 201.915C765.21 162.135 734.312 129.814 701.894 129.814C680.619 87.0503 611.223 84.0668 591.29 103.46C591.29 103.46 514.137 209.056 591.29 209.056Z" fill="#393939"/>
<path d="M608.71 209.056C531.566 209.056 495.574 214.844 462.143 274.514C449.129 292.514 450.716 274.559 436.421 257.381C422.126 240.204 427.192 214.347 442.894 201.915C434.79 162.135 465.688 129.814 498.106 129.814C519.381 87.0503 588.777 84.0668 608.71 103.46C608.71 103.46 685.863 209.056 608.71 209.056Z" fill="#393939"/>
<path d="M713.632 259.234C716.255 224.564 721.355 208.734 716.449 195.014L469.049 189L447 274.014L460.5 301.514C465.824 267.924 472.049 253.524 495.133 236.09C530.795 209.156 563.867 234.024 581.461 253.524C581.461 229.684 591.681 230.224 600.687 225.354C599.375 247.894 645.948 257.059 668.04 257.059C647.332 247.894 643.969 231.211 653.791 223.081C684.002 225.354 691.122 228.894 713.632 259.234Z" fill="#393939"/>
<path d="M598 352C588 367 578 402 608 402" stroke="#EBBAAA" stroke-width="17"/>
<path d="M794 1484.47C794 1453.96 774.292 1450.24 742.17 1439.78C726.437 1434.66 710.381 1430.2 694.089 1427.51C683.852 1425.82 681.101 1434.78 663.117 1434.78C647.076 1434.78 627.063 1426.87 622.926 1425.16C622.408 1424.95 621.795 1424.76 621.381 1425.14C621.28 1425.23 621.195 1425.34 621.132 1425.47C619.217 1429.38 609.165 1450.73 609.165 1467.82C609.165 1480.88 608.04 1493.73 611.663 1500.37C613.298 1503.37 623.504 1505 626.931 1505H788.443C791.512 1505 794 1487.52 794 1484.47Z" fill="#E0E2E4"/>
<mask id="mask0" mask-type="alpha" maskUnits="userSpaceOnUse" x="609" y="1421" width="185" height="84">
<path d="M794 1484.47C794 1468.82 788.816 1460.22 779.433 1454.14C734.607 1425.11 676.524 1423.82 623.153 1421.86C622.717 1421.86 621.323 1425.08 621.132 1425.47C619.217 1429.38 609.165 1450.73 609.165 1467.82C609.165 1480.88 608.04 1493.73 611.663 1500.37C613.298 1503.37 623.504 1505 626.931 1505H788.443C791.512 1505 794 1487.52 794 1484.47Z" fill="#E0E2E4"/>
</mask>
<g mask="url(#mask0)">
<path d="M770.522 1463.6C786.008 1463.6 790.338 1454.66 792.003 1453.16C795 1456.64 792.503 1470.66 794.501 1477.02C796.499 1483.38 793.668 1489.61 792.003 1491.92L652.628 1498.38C651.795 1485.13 650.629 1458.63 652.628 1458.63C655.125 1458.63 671.111 1437.26 679.603 1436.77C686.397 1436.37 719.401 1444.88 735.054 1449.19C733.056 1451.18 729.759 1461.31 728.56 1466.08C727.061 1472.05 726.561 1472.05 732.057 1473.54C737.552 1475.03 738.551 1463.6 744.545 1463.6H770.522Z" fill="#C2C6CA"/>
<path d="M664.615 1459.13C662.218 1455.15 623.652 1449.52 608.166 1447.7L601.172 1490.43L679.103 1494.91C675.273 1484.64 667.013 1463.1 664.615 1459.13Z" fill="#9EA5AC"/>
<path d="M646.632 1430.8C634.643 1430.01 624.652 1423.51 620.655 1419.87C616.659 1423.85 606.768 1434.78 609.165 1438.75C612.163 1443.72 635.142 1447.7 645.133 1447.7C655.124 1447.7 661.618 1431.8 646.632 1430.8Z" fill="#C2C6CA"/>
<path d="M705.579 1489.94C731.056 1488.94 753.037 1494.91 781.012 1488.94C830.967 1483.48 805.302 1486.72 817.979 1510.89H622.07C602.671 1506.34 596.235 1478.22 610.664 1480.5C642.136 1485.47 686.086 1490.7 705.579 1489.94Z" fill="#E0E2E4"/>
<path d="M603.171 1488.94C609.965 1491.73 702.082 1491.92 705.08 1489.94C698.086 1488.45 646.613 1482.64 635.142 1481.99C617.658 1480.99 610.997 1479.67 603.171 1480C600.34 1481.99 596.377 1486.16 603.171 1488.94Z" fill="#F1F5F9"/>
</g>
<path d="M696.219 1426.83C692.179 1429.27 684.098 1432.94 684.098 1437.83L714.401 1430.9L702.785 1445.99L736.052 1436.58L722.769 1449.69" stroke="#EBE5D9" stroke-width="6.1597" stroke-linecap="round" stroke-linejoin="round"/>
<path d="M690.977 1414.81C690.977 1415.97 690.956 1417.08 690.937 1418.1L690.937 1418.13C690.918 1419.15 690.901 1420.06 690.903 1420.92C690.909 1422.69 691.004 1423.92 691.235 1424.8C691.445 1425.6 691.702 1425.87 691.914 1426.01C692.2 1426.21 692.906 1426.52 694.564 1426.52C697.89 1426.52 702.176 1425.27 705.582 1423.02C709.006 1420.75 710.972 1417.88 710.972 1414.81C710.972 1410.76 709.983 1407.51 708.394 1405.36C706.877 1403.3 704.712 1402.08 701.744 1402.08C695.891 1402.08 690.977 1407.1 690.977 1414.81Z" stroke="#EBE5D9" stroke-width="6.1597"/>
<path d="M684.187 1420.05C684.538 1420.84 684.886 1421.58 685.204 1422.25L685.213 1422.27C685.532 1422.95 685.816 1423.55 686.067 1424.12C686.591 1425.3 686.857 1426.07 686.945 1426.61C686.985 1426.86 686.975 1426.99 686.968 1427.03C686.965 1427.06 686.962 1427.06 686.959 1427.07C686.959 1427.07 686.958 1427.07 686.957 1427.07C686.937 1427.1 686.707 1427.44 685.653 1427.9C683.539 1428.84 680.41 1429.28 677.566 1428.82C674.695 1428.35 672.823 1427.11 672.065 1425.42C670.901 1422.82 670.648 1420.53 671.031 1418.83C671.388 1417.24 672.325 1415.97 674.118 1415.18C677.628 1413.62 682.026 1415.22 684.187 1420.05Z" stroke="#EBE5D9" stroke-width="6.1597"/>
<path d="M703.081 1483.97L717.069 1457.64L706.578 1452.67L688.594 1463.1L698.585 1449.19L688.594 1444.72L674.107 1471.05L684.098 1475.03L703.581 1463.6L693.59 1479.5L703.081 1483.97Z" fill="#9EA5AC" stroke="#E0E2E4" stroke-width="2"/>
<path d="M406 1484.47C406 1453.96 425.708 1450.24 457.83 1439.78C473.563 1434.66 489.619 1430.2 505.911 1427.51C516.148 1425.82 518.899 1434.78 536.883 1434.78C552.924 1434.78 572.937 1426.87 577.074 1425.16C577.592 1424.95 578.205 1424.76 578.619 1425.14C578.72 1425.23 578.805 1425.34 578.868 1425.47C580.783 1429.38 590.835 1450.73 590.835 1467.82C590.835 1480.88 591.96 1493.73 588.337 1500.37C586.702 1503.37 576.496 1505 573.069 1505H411.557C408.488 1505 406 1487.52 406 1484.47Z" fill="#E0E2E4"/>
<mask id="mask1" mask-type="alpha" maskUnits="userSpaceOnUse" x="406" y="1421" width="185" height="84">
<path d="M406 1484.47C406 1468.82 411.184 1460.22 420.567 1454.14C465.393 1425.11 523.476 1423.82 576.847 1421.86C577.283 1421.86 578.677 1425.08 578.868 1425.47C580.783 1429.38 590.835 1450.73 590.835 1467.82C590.835 1480.88 591.96 1493.73 588.337 1500.37C586.702 1503.37 576.496 1505 573.069 1505H411.557C408.488 1505 406 1487.52 406 1484.47Z" fill="#E0E2E4"/>
</mask>
<g mask="url(#mask1)">
<path d="M429.478 1463.6C413.992 1463.6 409.662 1454.66 407.997 1453.16C405 1456.64 407.497 1470.66 405.499 1477.02C403.501 1483.38 406.332 1489.61 407.997 1491.92L547.372 1498.38C548.205 1485.13 549.371 1458.63 547.372 1458.63C544.875 1458.63 528.889 1437.26 520.397 1436.77C513.603 1436.37 480.599 1444.88 464.946 1449.19C466.944 1451.18 470.241 1461.31 471.44 1466.08C472.939 1472.05 473.439 1472.05 467.943 1473.54C462.448 1475.03 461.449 1463.6 455.455 1463.6H429.478Z" fill="#C2C6CA"/>
<path d="M535.385 1459.13C537.782 1455.15 576.348 1449.52 591.834 1447.7L598.828 1490.43L520.897 1494.91C524.727 1484.64 532.987 1463.1 535.385 1459.13Z" fill="#9EA5AC"/>
<path d="M553.368 1430.8C565.357 1430.01 575.348 1423.51 579.345 1419.87C583.341 1423.85 593.232 1434.78 590.835 1438.75C587.837 1443.72 564.858 1447.7 554.867 1447.7C544.876 1447.7 538.382 1431.8 553.368 1430.8Z" fill="#C2C6CA"/>
<path d="M494.421 1489.94C468.944 1488.94 446.963 1494.91 418.988 1488.94C369.033 1483.48 394.698 1486.72 382.021 1510.89H577.93C597.329 1506.34 603.765 1478.22 589.336 1480.5C557.864 1485.47 513.914 1490.7 494.421 1489.94Z" fill="#E0E2E4"/>
<path d="M596.829 1488.94C590.035 1491.73 497.918 1491.92 494.92 1489.94C501.914 1488.45 553.387 1482.64 564.858 1481.99C582.342 1480.99 589.003 1479.67 596.829 1480C599.66 1481.99 603.623 1486.16 596.829 1488.94Z" fill="#F1F5F9"/>
</g>
<path d="M503.781 1426.83C507.821 1429.27 515.902 1432.94 515.902 1437.83L485.599 1430.9L497.215 1445.99L463.948 1436.58L477.231 1449.69" stroke="#EBE5D9" stroke-width="6.1597" stroke-linecap="round" stroke-linejoin="round"/>
<path d="M509.023 1414.81C509.023 1415.97 509.044 1417.08 509.063 1418.1L509.063 1418.13C509.082 1419.15 509.099 1420.06 509.097 1420.92C509.091 1422.69 508.996 1423.92 508.765 1424.8C508.555 1425.6 508.298 1425.87 508.086 1426.01C507.8 1426.21 507.094 1426.52 505.436 1426.52C502.11 1426.52 497.824 1425.27 494.418 1423.02C490.994 1420.75 489.028 1417.88 489.028 1414.81C489.028 1410.76 490.017 1407.51 491.606 1405.36C493.123 1403.3 495.288 1402.08 498.256 1402.08C504.109 1402.08 509.023 1407.1 509.023 1414.81Z" stroke="#EBE5D9" stroke-width="6.1597"/>
<path d="M515.813 1420.05C515.462 1420.84 515.114 1421.58 514.796 1422.25L514.787 1422.27C514.468 1422.95 514.184 1423.55 513.933 1424.12C513.409 1425.3 513.143 1426.07 513.055 1426.61C513.015 1426.86 513.025 1426.99 513.032 1427.03C513.035 1427.06 513.038 1427.06 513.041 1427.07C513.041 1427.07 513.042 1427.07 513.043 1427.07C513.063 1427.1 513.293 1427.44 514.347 1427.9C516.461 1428.84 519.59 1429.28 522.434 1428.82C525.305 1428.35 527.177 1427.11 527.935 1425.42C529.099 1422.82 529.352 1420.53 528.969 1418.83C528.612 1417.24 527.675 1415.97 525.882 1415.18C522.372 1413.62 517.974 1415.22 515.813 1420.05Z" stroke="#EBE5D9" stroke-width="6.1597"/>
<path d="M496.919 1483.97L482.931 1457.64L493.422 1452.67L511.406 1463.1L501.415 1449.19L511.406 1444.72L525.893 1471.05L515.902 1475.03L496.419 1463.6L506.41 1479.5L496.919 1483.97Z" fill="#9EA5AC" stroke="#E0E2E4" stroke-width="2"/>
<defs>
<linearGradient id="paint0_linear" x1="660" y1="1403" x2="740" y2="1004" gradientUnits="userSpaceOnUse">
<stop stop-color="#758899"/>
<stop offset="1" stop-color="#758899" stop-opacity="0"/>
</linearGradient>
<linearGradient id="paint1_linear" x1="540" y1="1403" x2="460" y2="1004" gradientUnits="userSpaceOnUse">
<stop stop-color="#758899"/>
<stop offset="1" stop-color="#758899" stop-opacity="0"/>
</linearGradient>
</defs>
</svg>
