<svg width="1200" height="1600" viewBox="0 0 1200 1600" fill="none" xmlns="http://www.w3.org/2000/svg">
<path d="M398.038 1067.69C399.403 1040.54 395.008 1006.78 415.943 993.771C436.878 980.76 434.766 1093.81 435.225 1153.44" stroke="#797979" stroke-width="12"/>
<path d="M787.864 1478.04H652.624C654.427 1467.38 659.141 1438.7 659.141 1430.06C658.396 1420.38 657.003 1410.75 654.972 1401.24C653.814 1394.88 652.624 1388.35 652.175 1384.52C655.517 1384.63 661.955 1385.55 667.345 1386.32C675.244 1387.6 683.209 1388.47 691.205 1388.94C697.781 1388.68 704.269 1387.4 710.415 1385.15C715.443 1383.61 723.05 1381.29 723.677 1383.15C725.136 1386.8 726.914 1390.33 728.992 1393.7L723.363 1399.09C722.452 1399.95 722.094 1401.22 722.423 1402.41C722.753 1403.59 723.72 1404.52 724.959 1404.84C726.197 1405.15 727.517 1404.81 728.419 1403.94L732.709 1399.82C733.36 1400.86 734.043 1401.93 734.741 1403L729.306 1408.21C727.909 1409.55 727.909 1411.72 729.306 1413.06C730.702 1414.4 732.966 1414.4 734.362 1413.06L738.676 1408.92C739.499 1410.13 740.338 1411.35 741.193 1412.57L735.737 1417.8C734.834 1418.67 734.482 1419.93 734.812 1421.11C735.143 1422.3 736.106 1423.22 737.34 1423.54C738.574 1423.85 739.89 1423.51 740.794 1422.65L745.307 1418.32C746.073 1419.37 746.846 1420.41 747.626 1421.45L742.285 1426.56C741.381 1427.43 741.029 1428.69 741.359 1429.87C741.69 1431.06 742.654 1431.98 743.888 1432.3C745.121 1432.61 746.438 1432.28 747.341 1431.41L751.922 1427.02C752.828 1428.16 753.733 1429.29 754.64 1430.39L749.12 1435.68C747.724 1437.02 747.724 1439.19 749.12 1440.53C750.516 1441.87 752.78 1441.87 754.176 1440.53L759.174 1435.74C760.273 1436.99 761.358 1438.18 762.43 1439.31L756.731 1444.78C755.814 1445.64 755.451 1446.91 755.78 1448.1C756.109 1449.29 757.079 1450.22 758.321 1450.53C759.563 1450.85 760.886 1450.5 761.787 1449.62L767.385 1444.26C768.703 1445.48 770.085 1446.64 771.527 1447.73L767.458 1451.63C766.541 1452.49 766.178 1453.76 766.507 1454.95C766.835 1456.14 767.806 1457.07 769.048 1457.39C770.29 1457.7 767.344 1447.08 768.245 1446.21L777.879 1451.33C783.384 1453.8 789.237 1455.49 795.251 1456.33C795.87 1461.03 797.214 1465.61 799.239 1469.92C800.625 1472.65 802.412 1475.18 804.544 1477.43C798.121 1477.82 790.891 1478.04 787.864 1478.04ZM703.086 1470.19C703.428 1470.5 703.829 1470.74 704.266 1470.91C705.132 1471.28 706.118 1471.28 706.984 1470.91C707.417 1470.74 707.815 1470.49 708.163 1470.19C708.816 1469.53 709.186 1468.67 709.2 1467.76C709.194 1467.54 709.17 1467.32 709.128 1467.11C709.096 1466.88 709.024 1466.66 708.915 1466.46C708.836 1466.24 708.728 1466.03 708.592 1465.84C708.449 1465.67 708.306 1465.5 708.163 1465.33C706.729 1464.06 704.519 1464.06 703.086 1465.33C702.932 1465.49 702.789 1465.66 702.658 1465.84C702.523 1466.03 702.414 1466.24 702.335 1466.46C702.227 1466.66 702.154 1466.88 702.12 1467.11C702.079 1467.32 702.055 1467.54 702.049 1467.76C702.063 1468.67 702.433 1469.53 703.086 1470.19ZM694.897 1395.8C679.099 1395.8 666.292 1408.07 666.292 1423.21C666.292 1438.35 679.099 1450.63 694.897 1450.63C710.696 1450.63 723.502 1438.35 723.502 1423.21C723.484 1408.08 710.688 1395.81 694.897 1395.8Z" fill="black"/>
<path d="M813.852 1476.59C810.505 1473.95 807.742 1470.7 805.723 1467.02C804.235 1463.86 803.186 1460.52 802.604 1457.09C808.588 1457.48 815.324 1457.48 823.623 1457.48C839.006 1457.48 846.811 1464.42 850.237 1468.86L815.693 1476.24C815.087 1476.39 814.472 1476.51 813.852 1476.59Z" fill="#C4C6D0"/>
<path d="M812.681 1483.66C804.223 1484.59 789.637 1484.89 787.868 1484.89H651.993V1491.75V1505.45H802.17C811.54 1504.94 820.862 1503.82 830.073 1502.1L850.317 1498.21C851.494 1497.62 852.231 1496.45 852.229 1495.17V1475.46L817.501 1482.87C816.165 1483.2 814.806 1483.44 813.434 1483.57C813.257 1483.63 813.076 1483.67 812.892 1483.69C812.821 1483.69 812.752 1483.67 812.681 1483.66Z" fill="#C4C6D0"/>
<path d="M693.501 1406.26L697.458 1417.93H710.264L699.904 1425.15L703.861 1436.82L693.501 1429.61L683.141 1436.82L687.098 1425.15L676.738 1417.93H689.544L693.501 1406.26Z" fill="#3A4061"/>
<path d="M446.379 1478.04H581.619C579.816 1467.38 575.102 1438.7 575.102 1430.06C575.847 1420.38 577.24 1410.75 579.271 1401.24C580.429 1394.88 581.62 1388.35 582.068 1384.52C578.727 1384.63 572.288 1385.55 566.898 1386.32C558.999 1387.6 551.034 1388.47 543.038 1388.94C536.462 1388.68 529.974 1387.4 523.828 1385.15C518.8 1383.61 511.193 1381.29 510.566 1383.15C509.107 1386.8 507.329 1390.33 505.252 1393.7L510.88 1399.09C511.791 1399.95 512.15 1401.22 511.82 1402.41C511.49 1403.59 510.523 1404.52 509.285 1404.84C508.046 1405.15 506.726 1404.81 505.824 1403.94L501.534 1399.82C500.883 1400.86 500.201 1401.93 499.502 1403L504.937 1408.21C506.334 1409.55 506.334 1411.72 504.937 1413.06C503.541 1414.4 501.278 1414.4 499.881 1413.06L495.567 1408.92C494.745 1410.13 493.906 1411.35 493.05 1412.57L498.506 1417.8C499.409 1418.67 499.762 1419.93 499.431 1421.11C499.1 1422.3 498.137 1423.22 496.903 1423.54C495.669 1423.85 494.353 1423.51 493.45 1422.65L488.936 1418.32C488.171 1419.37 487.398 1420.41 486.618 1421.45L491.958 1426.56C492.862 1427.43 493.214 1428.69 492.884 1429.87C492.553 1431.06 491.589 1431.98 490.356 1432.3C489.122 1432.61 487.805 1432.28 486.902 1431.41L482.321 1427.02C481.416 1428.16 480.51 1429.29 479.604 1430.39L485.123 1435.68C486.519 1437.02 486.519 1439.19 485.123 1440.53C483.727 1441.87 481.463 1441.87 480.067 1440.53L475.069 1435.74C473.971 1436.99 472.885 1438.18 471.814 1439.31L477.512 1444.78C478.429 1445.64 478.792 1446.91 478.463 1448.1C478.135 1449.29 477.164 1450.22 475.922 1450.53C474.68 1450.85 473.357 1450.5 472.456 1449.62L466.859 1444.26C465.54 1445.48 464.158 1446.64 462.716 1447.73L466.785 1451.63C467.702 1452.49 468.065 1453.76 467.737 1454.95C467.408 1456.14 466.438 1457.07 465.195 1457.39C463.953 1457.7 464.89 1455.83 463.989 1454.95L456.364 1451.33C450.859 1453.8 445.006 1455.49 438.992 1456.33C438.373 1461.03 437.03 1465.61 435.005 1469.92C433.618 1472.65 431.831 1475.18 429.699 1477.43C436.122 1477.82 443.352 1478.04 446.379 1478.04ZM531.158 1470.19C530.815 1470.5 530.415 1470.74 529.977 1470.91C529.111 1471.28 528.125 1471.28 527.259 1470.91C526.827 1470.74 526.428 1470.49 526.08 1470.19C525.427 1469.53 525.057 1468.67 525.043 1467.76C525.049 1467.54 525.073 1467.32 525.115 1467.11C525.147 1466.88 525.219 1466.66 525.328 1466.46C525.407 1466.24 525.515 1466.03 525.651 1465.84C525.794 1465.67 525.937 1465.5 526.08 1465.33C527.514 1464.06 529.724 1464.06 531.157 1465.33C531.311 1465.49 531.454 1465.66 531.585 1465.84C531.721 1466.03 531.829 1466.24 531.908 1466.46C532.016 1466.66 532.089 1466.88 532.123 1467.11C532.164 1467.32 532.188 1467.54 532.195 1467.76C532.18 1468.67 531.81 1469.53 531.158 1470.19ZM552.611 1470.19C551.209 1471.54 548.936 1471.54 547.535 1470.19C546.133 1468.85 546.133 1466.67 547.535 1465.33C548.936 1463.98 551.209 1463.98 552.611 1465.33C553.27 1465.98 553.641 1466.85 553.648 1467.76C553.634 1468.67 553.264 1469.53 552.611 1470.19ZM539.346 1395.8C555.144 1395.8 567.951 1408.07 567.951 1423.21C567.951 1438.35 555.144 1450.63 539.346 1450.63C523.548 1450.63 510.741 1438.35 510.741 1423.21C510.759 1408.08 523.555 1395.81 539.346 1395.8Z" fill="black"/>
<path d="M420.389 1476.59C423.736 1473.95 426.499 1470.7 428.518 1467.02C430.007 1463.86 431.055 1460.52 431.637 1457.09C425.653 1457.48 418.917 1457.48 410.619 1457.48C395.236 1457.48 387.431 1464.42 384.004 1468.86L418.549 1476.24C419.154 1476.39 419.769 1476.51 420.389 1476.59Z" fill="#C4C6D0"/>
<path d="M446.376 1484.89C444.606 1484.89 430.02 1484.59 421.562 1483.66C421.491 1483.67 421.422 1483.69 421.351 1483.69C421.168 1483.67 420.986 1483.63 420.809 1483.57C419.437 1483.44 418.078 1483.2 416.742 1482.87L382.014 1475.46V1495.17C382.012 1496.45 382.749 1497.62 383.926 1498.21L404.17 1502.1C413.381 1503.82 422.704 1504.94 432.073 1505.45H582.25C582.25 1491.75 582.25 1502.1 582.25 1491.75V1484.89H446.376Z" fill="#C4C6D0"/>
<path d="M530.964 1406.26L527.006 1417.93H514.201L524.561 1425.15L520.603 1436.82L530.964 1429.61L541.324 1436.82L537.367 1425.15L547.727 1417.93H534.921L530.964 1406.26Z" fill="#3A4061"/>
<path d="M785.008 734.031C821.008 788.977 825.621 920.979 812.821 982.314" stroke="#EBBAAA" stroke-width="65" stroke-linecap="round" stroke-linejoin="bevel"/>
<path d="M501.82 656.314C397.62 696.835 350.834 810.922 410.819 1002.31" stroke="#EBBAAA" stroke-width="65" stroke-linecap="round" stroke-linejoin="bevel"/>
<path d="M443.323 983.621L596.408 994.522L606.819 1175.31L596.408 1238.31V1304.31L589.819 1463.31L548.319 1487.81L450.819 1452.31L474.819 1400.31L450.819 1329.31L443.323 1165.31V983.621Z" fill="#303539"/>
<path d="M601.208 992.738L758.028 998.065L771.819 1133.31L771.819 1157.31L771.819 1278.31L765.819 1363.31L771.819 1415.31L771.819 1464.31L727.819 1478.31L645.819 1464.31L634.729 1310.31L617.968 1174.41L601.208 992.738Z" fill="#303539"/>
<rect x="549.329" y="1006.97" width="109.998" height="122.106" fill="#303539"/>
<path fill-rule="evenodd" clip-rule="evenodd" d="M543.514 597.134C466.486 597.134 409.066 668.154 425.198 743.474L441.327 818.786C443.111 827.115 444.01 835.609 444.01 844.127L444.008 1047.77C444.008 1054.05 449.68 1058.85 455.892 1057.95C485.681 1053.62 567.788 1044.63 660.008 1059.87C741.206 1073.29 757.727 1067.92 760.332 1063.49C761.127 1062.14 760.818 1060.51 760.506 1058.87C760.322 1057.9 760.138 1056.92 760.178 1056L771.171 805.424L817.819 749.314L772.614 694.639C761.717 639.287 712.903 597.134 653.884 597.134H543.514Z" fill="#191919"/>
<path opacity="0.1" d="M532.749 784.623C532.748 784.732 532.747 784.84 532.747 784.948C532.747 799.296 537.926 812.455 546.509 822.664C550.861 815.889 567.201 793.084 595.172 784.041M532.749 784.623L595.634 785.468M532.749 784.623C539.508 784.647 565.429 784.182 592.356 776.335M532.749 784.623C532.752 784.136 532.763 783.647 532.777 783.151L531.278 783.108M595.172 784.041C595.172 784.041 595.172 784.041 595.172 784.041L595.634 785.468M595.172 784.041C595.171 784.041 595.17 784.041 595.169 784.042L595.634 785.468M595.172 784.041C595.426 783.958 595.68 783.877 595.935 783.798M595.634 785.468C595.939 785.368 596.246 785.272 596.554 785.177C596.35 784.718 596.144 784.258 595.935 783.798M595.935 783.798C596.418 783.649 596.902 783.506 597.388 783.37C596.051 780.413 594.618 777.457 593.128 774.543M595.935 783.798C594.803 781.303 593.602 778.807 592.356 776.335M592.356 776.335C592.757 776.219 593.158 776.1 593.559 775.98L593.128 774.543M592.356 776.335C592.169 775.965 591.981 775.595 591.793 775.226L593.128 774.543M593.128 774.543C563.075 783.539 533.911 783.161 531.278 783.108M531.278 783.108C531.264 783.591 531.253 784.075 531.249 784.561L531.278 783.108ZM601.207 796.597C608.702 816.418 612.12 833.12 613.245 839.409C606.497 842.122 599.134 843.617 591.424 843.617C578.304 843.617 566.181 839.289 556.399 831.987C559.19 826.907 571.592 807.249 601.207 796.597ZM519.47 784.852C519.47 824.527 551.749 856.806 591.424 856.806C631.104 856.806 663.379 824.527 663.379 784.852C663.379 745.176 631.104 712.897 591.424 712.897C551.749 712.897 519.47 745.176 519.47 784.852ZM626.111 832.246C624.953 826.06 621.786 811.095 615.39 793.14C631.021 791.037 644.76 794.322 649.14 795.554C646.393 810.536 637.937 823.551 626.111 832.246ZM585.88 764.328C562.032 770.411 540.934 771.073 534.391 771.122C538.507 754.134 550.041 740.007 565.358 732.381C568.221 736.367 577.228 749.174 585.88 764.328ZM600.46 759.794C592.227 744.846 583.412 732.265 579.888 727.4C583.619 726.652 587.475 726.258 591.424 726.258C605.834 726.258 619.047 731.484 629.272 740.138C626.614 743.466 617.888 752.985 600.46 759.794ZM650.051 782.539C644.395 781.49 627.705 778.869 610.649 780.809C610.365 780.121 610.074 779.431 609.778 778.739C608.725 776.269 607.607 773.813 606.446 771.389C624.735 763.603 634.61 753.342 638.006 749.297C645.134 758.591 649.547 770.068 650.051 782.539Z" fill="white" stroke="white" stroke-width="3"/>
<mask id="mask0" mask-type="alpha" maskUnits="userSpaceOnUse" x="414" y="592" width="316" height="152">
<path d="M416.175 720.095C404.477 655.649 453.317 596.073 518.806 594.903L635.007 592.829C638.25 592.771 641.487 593.1 644.651 593.809C656.198 596.395 666.053 603.868 671.658 614.289L728.455 719.873C731.369 725.29 728.734 731.942 722.797 733.551C696.896 740.569 630.915 754.251 576.008 730.196C520.058 705.684 452.608 720.356 427.786 727.234C422.59 728.673 417.138 725.4 416.175 720.095Z" fill="#11151D"/>
</mask>
<g mask="url(#mask0)">
<path d="M656.215 603.036C656.215 629.506 622.102 650.964 580.022 650.964C537.941 650.964 503.829 629.506 503.829 603.036C503.829 599.626 515.647 600.171 516.723 596.962C524.003 575.265 543.363 555.108 580.022 555.108C622.102 555.108 656.215 576.566 656.215 603.036Z" fill="#EBBAAA"/>
</g>
<rect x="535.588" y="528.503" width="91.7357" height="107.344" fill="#EBBAAA"/>
<path d="M342.748 789.152L359.058 750.388L372.648 723.501L395.556 703.468L481.132 767.664C481.132 767.664 449.007 789.607 439.873 802.945C425.139 824.457 429.238 816.377 424.333 832.768C419.427 849.16 420.71 865.504 420.71 865.504C408.68 872.562 414.556 870.263 396.556 878.781C378.556 887.3 374.616 895.744 349.436 888.744C338.119 862.378 339.072 842.587 339.07 814.377C339.069 800.723 342.748 789.152 342.748 789.152Z" fill="black"/>
<path d="M835.96 751.822H828.499L835.96 741.344L811.744 723.412L714.938 779.086C714.938 779.086 752.355 786.823 762.011 798.762C768.939 807.328 774.485 836.281 776.347 847.351C776.316 847.281 776.416 848.001 776.693 849.774C777.242 853.295 777.08 851.709 776.347 847.351C776.537 847.77 781.523 876.907 781.523 876.907C792.213 876.599 806.377 889.517 831.792 891.186C857.206 892.856 858.191 880.599 858.191 880.599C858.191 880.599 862.949 843.233 858.19 823.498C853.43 803.762 850.507 785.738 844.507 770.211C838.507 754.684 835.96 751.822 835.96 751.822Z" fill="black"/>
<path d="M621.819 636.314L646.819 614.314V595.314C646.819 595.314 682.57 596.314 707.819 601.314C733.067 606.314 769.847 647.314 769.847 647.314V1058.81C769.847 1058.81 754.085 1071.72 728.067 1071.72C702.05 1071.72 646.819 1068.39 646.819 1068.39L621.819 636.314Z" fill="#5C625B"/>
<path opacity="0.1" d="M626.819 636.314L651.819 1068.39" stroke="white" stroke-width="8"/>
<path d="M863.819 756.314L767.819 644.314L738.819 710.314L756.819 827.314L863.819 756.314Z" fill="#5C625B"/>
<path d="M647.819 599.314L641.819 586.314L657.819 591.314C660.819 599.314 662.819 598.314 662.819 610.314C662.819 622.314 656.905 629.393 645.922 662.444L616.819 630.314L647.819 599.314Z" fill="#6C7A6A"/>
<path d="M577.95 633.127L523.82 625.316L514.82 595.314C514.82 595.314 517.43 598.136 492.182 603.136C466.933 608.136 430.154 649.136 430.154 649.136V1060.63C430.154 1060.63 445.916 1073.55 471.933 1073.55C497.951 1073.55 547.82 1102.31 547.82 1102.31C547.82 1102.31 543.82 857.894 547.82 786.894C551.82 715.894 577.95 633.127 577.95 633.127Z" fill="#5C625B"/>
<path d="M443.182 829.136L336.182 758.136C336.182 758.136 371.314 705.216 385.712 688.872C400.11 672.528 432.182 646.136 432.182 646.136L461.182 712.136L443.182 829.136Z" fill="#5C625B"/>
<path d="M518.329 599.314C516.631 593.816 524.329 586.314 524.329 586.314L508.329 591.314C505.329 599.314 499.329 618.314 499.329 630.314C499.329 642.314 532.662 657.981 549.329 664.314L578.032 632.895C578.032 632.895 549.462 627.515 540.952 621.515C532.443 615.515 520.027 604.812 518.329 599.314Z" fill="#6C7A6A"/>
<path d="M537.724 515.985H625.542" stroke="black" stroke-width="0.961119"/>
<path d="M723.475 325.974C720.613 269.988 664.834 207.435 573.276 207.435C515.336 207.435 457.387 261.991 450.233 314.341C443.08 366.691 443.082 456.85 455.238 503.384C467.13 548.904 523.903 600.086 541.789 602.995C559.676 605.903 615.465 608.811 638.355 594.997C661.244 581.182 719.184 512.109 723.475 474.3C727.766 436.492 726.337 381.96 723.475 325.974Z" fill="#F4D6CD"/>
<path d="M554.501 334.667L501.75 324.671L481.187 334.667" stroke="#6F6C6C" stroke-width="15.6151" stroke-linecap="round"/>
<path d="M610.826 337.394L669.835 328.306L692.187 337.394" stroke="#6F6C6C" stroke-width="15.6151" stroke-linecap="round"/>
<path d="M544.111 515.985C544.111 515.985 559.297 519.613 580.755 519.613C602.212 519.613 619.157 515.985 619.157 515.985" stroke="#C99584" stroke-width="15.0288" stroke-linecap="round"/>
<path d="M582.216 357.389C580.146 378.298 555.124 457.308 577.311 457.308H603.854" stroke="#EBBAAA" stroke-width="17.0326"/>
<path d="M564.868 183.27C564.336 175.695 574.768 161.196 620.753 163.793C678.233 167.039 746.892 235.206 758.069 279.027C744.757 282.316 760.874 293.346 764.135 304.731C770.014 325.253 769.846 349.871 769.846 370.749C769.846 442.161 739.394 464.133 735.862 471.827C723.033 499.771 730.143 433.869 730.143 433.869C730.479 431.304 728.378 409.452 725.837 377.556C723.628 349.809 722.569 329.34 724.068 326.869L683.024 279.027L579.238 210.861L564.868 183.27Z" fill="black"/>
<path d="M653.742 273.777C633.145 262.473 591.393 221.908 579.684 211.088C595.651 211.088 659.073 201.122 689.411 256.304C719.748 311.487 761.262 345.57 735.715 340.701C715.277 336.806 674.34 285.082 653.742 273.777Z" fill="black"/>
<path fill-rule="evenodd" clip-rule="evenodd" d="M724.423 462.697C726.47 438.206 726.549 408.045 725.611 375.603C742.31 383.287 753.88 399.972 753.88 419.318C753.88 435.907 740.815 452.522 724.423 462.697Z" fill="#EBBAAA"/>
<path fill-rule="evenodd" clip-rule="evenodd" d="M448.521 462.697C446.475 438.206 446.396 408.045 447.334 375.603C430.635 383.287 419.065 399.972 419.065 419.318C419.065 435.907 432.13 452.522 448.521 462.697Z" fill="#EBBAAA"/>
<path d="M536.78 166.473C576.66 163.876 585.708 178.375 585.246 185.949C585.246 185.949 575.626 213.924 568.017 222.69C560.408 231.456 536.78 223.716 507.35 243.729C477.92 263.742 447.582 306.352 447.582 334.698C447.582 363.044 448.434 487.829 444.002 468.353C438.464 444.008 439.003 417.701 432.925 408.301C420.003 388.32 412.394 413.623 412.394 374.398C412.394 353.52 402.035 327.933 407.133 307.41C409.961 296.026 423.939 284.996 412.394 281.707C422.088 237.886 486.93 169.719 536.78 166.473Z" fill="black"/>
<path d="M495.492 379.199C502.347 375.261 520.884 369.748 540.196 379.199" stroke="black" stroke-width="15.6151" stroke-linecap="round"/>
<path d="M632.749 379.199C639.603 375.261 658.14 369.748 677.452 379.199" stroke="black" stroke-width="15.6151" stroke-linecap="round"/>
<path fill-rule="evenodd" clip-rule="evenodd" d="M521.802 499.329V511.444C521.802 530.093 548.595 545.206 581.632 545.206C614.681 545.206 641.463 530.093 641.463 511.444V499.329H521.802Z" fill="#393939"/>
<mask id="mask1" mask-type="alpha" maskUnits="userSpaceOnUse" x="521" y="499" width="121" height="47">
<path fill-rule="evenodd" clip-rule="evenodd" d="M521.9 499.318C521.835 499.942 521.802 500.573 521.802 501.203V513.003C521.802 530.792 548.595 545.207 581.632 545.207C614.681 545.207 641.463 530.792 641.463 513.003V501.203C641.463 500.573 641.43 499.942 641.365 499.318H521.9Z" fill="white"/>
</mask>
<g mask="url(#mask1)">
<path d="M581.633 556.032C601.561 556.032 617.715 551.07 617.715 544.949C617.715 538.829 601.561 533.867 581.633 533.867C561.706 533.867 545.551 538.829 545.551 544.949C545.551 551.07 561.706 556.032 581.633 556.032Z" fill="#FF6C6C"/>
</g>
<rect x="521.802" y="499.329" width="119.664" height="13.9176" fill="white"/>
<path d="M659.979 718.596L737.553 715.069L737.623 786.405L669.004 785.623L659.979 718.596Z" fill="#6C7A6A"/>
<path d="M359.991 1052.41C359.991 1052.41 392.755 1064.74 406.208 1064.74C419.661 1064.74 485.669 1064.74 485.669 1064.74L464.528 1389.98H449.332L386.47 1337.94L359.991 1052.41Z" fill="#4F4F4F"/>
<path d="M358.82 1052.31C358.82 1052.31 394.728 1070.56 420.096 1072.38C445.465 1074.19 470.196 1064.74 470.196 1064.74C470.196 1064.74 449.055 1210.31 449.055 1248.31C449.055 1286.31 449.055 1389.98 449.055 1389.98L370.997 1337.94C370.997 1337.94 360.77 1312.85 348.818 1248.31C338.817 1194.31 358.82 1052.31 358.82 1052.31Z" fill="#797979"/>
<path d="M403.59 993.771C418.091 988.278 425.852 1005.25 430.036 1031.19C435.763 1066.69 434.79 1118.99 435.225 1153.44" stroke="#797979" stroke-width="12"/>
</svg>
