<svg width="1200" height="1600" viewBox="0 0 1200 1600" fill="none" xmlns="http://www.w3.org/2000/svg">
<path d="M671.428 1171C683.742 1230.52 684.139 1331.08 671.428 1403.94" stroke="#1B2334" stroke-width="81.0687" stroke-linecap="round" stroke-linejoin="bevel"/>
<path d="M516.526 1114.56C507.894 1219.74 518.526 1342.37 531.867 1410.61" stroke="#1B2334" stroke-width="81.0687" stroke-linecap="round" stroke-linejoin="bevel"/>
<path d="M437.887 1018.1H598.973L585.304 1224.01L417.101 1211.42L437.887 1018.1Z" fill="#1A2336"/>
<path d="M415.959 1212.31L418.011 1189.73L588.358 1202.05L586.306 1224.62L415.959 1212.31Z" fill="#2E3748"/>
<ellipse cx="595.914" cy="1069.53" rx="119.418" ry="56.5664" fill="#1A2336"/>
<path d="M590.563 1018.1H754.096L772.409 1203.54L618.479 1218.26L590.563 1018.1Z" fill="#1A2336"/>
<path d="M774.098 1211.28L772.046 1188.71L615.039 1201.02L617.091 1223.6L774.098 1211.28Z" fill="#2E3748"/>
<path d="M736.128 734.869C784.55 817.313 810.013 915.478 810.013 1013.99" stroke="#EBBAAA" stroke-width="79.0163" stroke-linecap="round" stroke-linejoin="bevel"/>
<path d="M458.117 710.241C409.695 792.684 384.232 890.849 384.232 989.363" stroke="#EBBAAA" stroke-width="79.0163" stroke-linecap="round" stroke-linejoin="bevel"/>
<g filter="url(#filter0_i)">
<path d="M431.788 618.988C472.704 574.598 543.833 578.103 580.187 626.3C610.496 666.482 604.94 723.189 567.409 756.724L452.902 859.038C452.902 859.038 412.881 851.855 386.198 840.567C359.515 829.278 330.784 810.807 330.784 810.807L391.458 674.51C398.168 659.437 407.295 645.56 418.478 633.428L431.788 618.988Z" fill="#6A88C8"/>
</g>
<g filter="url(#filter1_i)">
<path d="M755.177 620.066C714.261 575.676 643.133 579.181 606.778 627.378C576.47 667.56 582.026 724.267 619.557 757.802L734.063 860.116C734.063 860.116 774.085 852.933 800.767 841.645C827.45 830.357 856.182 811.885 856.182 811.885L795.507 675.589C788.797 660.515 779.671 646.638 768.488 634.506L755.177 620.066Z" fill="#6A88C8"/>
</g>
<g filter="url(#filter2_i)">
<path d="M444.398 699.217C445.88 637.53 495.748 587.989 557.443 586.912L634.056 585.575C697.064 584.475 749.239 634.254 751.101 697.245L755.449 844.376L757.267 1036.71C757.267 1036.71 651.715 1042.67 592.197 1042.72C532.679 1042.77 428.903 1036.97 428.903 1036.97L435.161 945.83L440.357 867.434L444.398 699.217Z" fill="#6A88C8"/>
</g>
<path d="M466.24 836.461C466.24 815.425 442.636 803.624 442.636 803.624L440.586 877.509C440.586 877.509 466.24 899.572 466.24 914.452L466.24 836.461Z" fill="#1A2336"/>
<path d="M453.928 749.235C447.771 715.371 433.402 716.398 433.402 716.398C433.402 716.398 405.184 762.063 405.184 846.211C416.985 851.342 445.206 858.012 460.085 859.551C460.085 822.608 460.085 783.1 453.928 749.235Z" fill="#1A2336"/>
<path d="M457.005 955.499C457.005 934.462 437.507 923.688 437.507 923.688L433.402 999.112C433.402 999.112 457.005 1018.61 457.005 1033.49L457.005 955.499Z" fill="#1A2336"/>
<path d="M532.944 640.46C504.211 648.67 455.981 694.848 435.457 722.555" stroke="#1A2336" stroke-width="11.288"/>
<path d="M435.457 716.398C475.478 733.843 458.033 930.871 458.033 1060.17" stroke="#1A2336" stroke-width="11.288"/>
<path d="M722.305 836.17C722.287 815.133 747.059 803.353 747.059 803.353L749.276 877.241C749.276 877.241 722.36 899.282 722.373 914.162L722.305 836.17Z" fill="#1A2336"/>
<path d="M735.155 748.953C741.59 715.093 756.676 716.133 756.676 716.133C756.676 716.133 786.343 761.824 786.415 845.972C774.03 851.093 744.408 857.739 728.787 859.265C728.755 822.322 728.72 782.813 735.155 748.953Z" fill="#1A2336"/>
<path d="M732.105 955.217C732.087 934.181 752.548 923.423 752.548 923.423L756.923 998.852C756.923 998.852 732.16 1018.33 732.173 1033.21L732.105 955.217Z" fill="#1A2336"/>
<path d="M652.101 640.108C682.275 648.343 732.952 694.564 754.524 722.289" stroke="#1A2336" stroke-width="11.288"/>
<path d="M754.519 716.132C712.516 733.542 731.003 930.588 731.116 1059.89" stroke="#1A2336" stroke-width="11.288"/>
<circle cx="590.327" cy="622.986" r="72.5997" transform="rotate(-1 590.327 622.986)" fill="#5374BA"/>
<rect x="541.858" y="544.25" width="96.4534" height="126.047" rx="48.2267" transform="rotate(-1 541.858 544.25)" fill="#EBBAAA"/>
<ellipse cx="445.549" cy="426.434" rx="61.0558" ry="57.9132" fill="#EBBAAA"/>
<ellipse cx="743.143" cy="426.434" rx="61.0558" ry="57.9132" fill="#EBBAAA"/>
<ellipse cx="755.283" cy="443.817" rx="22.063" ry="28.2201" transform="rotate(8.5 755.283 443.817)" fill="#F2F7FB"/>
<rect x="752.978" y="445.601" width="16.419" height="55.4141" rx="8.20949" transform="rotate(8.5 752.978 445.601)" fill="#DDE4EA"/>
<ellipse rx="22.063" ry="28.2201" transform="matrix(-0.989016 0.147809 0.147809 0.989016 431.009 442.791)" fill="#F2F7FB"/>
<rect width="16.419" height="55.4141" rx="8.20949" transform="matrix(-0.989016 0.147809 0.147809 0.989016 435.366 445.601)" fill="#DDE4EA"/>
<path d="M427.427 321.585C422.495 226.023 498.649 145.838 594.338 145.838C690.418 145.838 766.715 226.652 761.196 322.573L752.987 465.225C748.123 549.766 678.147 615.831 593.466 615.831C508.922 615.831 439.194 549.608 434.836 465.176L427.427 321.585Z" fill="#EED4CC"/>
<path d="M565.731 526.425C573.479 529.119 610.422 529.632 629.112 520.88" stroke="#C99584" stroke-width="15.3928" stroke-linecap="round"/>
<path d="M550.91 347.062L484.934 332.995C484.201 332.839 483.45 333.085 482.963 333.64L467.732 351.026C466.65 352.261 467.385 354.248 469.026 354.525L551.873 368.498C554.697 368.974 557.087 366.545 556.587 363.706L554.272 350.558C553.966 348.821 552.627 347.428 550.91 347.062Z" fill="#635F5F"/>
<path d="M625.706 347.061L691.682 332.994C692.416 332.838 693.166 333.084 693.653 333.639L708.884 351.025C709.966 352.26 709.231 354.247 707.59 354.524L624.743 368.497C621.919 368.973 619.529 366.544 620.029 363.705L622.344 350.557C622.65 348.82 623.989 347.427 625.706 347.061Z" fill="#635F5F"/>
<path d="M524.98 398.084L524.979 427.806" stroke="black" stroke-width="25.2342" stroke-linecap="round"/>
<path d="M655.045 397.058L655.044 426.779" stroke="black" stroke-width="25.2342" stroke-linecap="round"/>
<path d="M586.708 411.591C581.577 432.115 549.766 484.45 601.075 484.45" stroke="#EBBAAA" stroke-width="17.8743"/>
<path d="M717.547 251.022C714.12 222.258 701.256 207.876 698.971 188.7C697.353 175.117 697.184 171.652 735.798 200.113C774.411 228.575 780.2 291.018 769.696 344.091L759.971 405.014L748.049 402.066L746.476 324.189C730.374 293.609 720.974 279.786 717.547 251.022Z" fill="#272727"/>
<path d="M444.067 288.991C445.661 260.07 446.389 261.568 447.452 242.287C448.205 228.63 452.911 231.618 428.531 256.661C415.075 270.482 420.141 329.865 423.006 368.702L425.801 395.927L431.239 396.227L434.303 360.273C443.915 329.42 442.472 317.912 444.067 288.991Z" fill="#272727"/>
<path fill-rule="evenodd" clip-rule="evenodd" d="M593.294 122.237L593.293 122.236C593.213 122.236 593.133 122.236 593.053 122.236C592.972 122.236 592.892 122.236 592.812 122.236L592.811 122.237C541.566 122.417 407.071 157.126 423.491 293.609C437.116 276.963 448.924 262.519 467.615 251.657C506.961 228.79 533.836 227.069 585.752 227.069C637.667 227.069 673.879 236.888 704.225 251.657C731.371 264.868 745.711 280.269 770.341 293.609C765.73 158.476 644.536 122.417 593.294 122.237Z" fill="#272727"/>
<path d="M656.606 248.769C607.05 206.31 581.086 212.232 565.022 198.521C578.5 195.294 558.849 150.747 644.028 186.329C669.431 196.941 669.114 229.62 656.606 248.769Z" fill="#272727"/>
<path d="M553.043 242.581C591.037 219.362 608.485 214.602 626.778 204.048C614.113 198.419 581.234 182.694 564.348 196.203C557.122 205.631 544.234 221.472 553.043 242.581Z" fill="#272727"/>
<path d="M590.871 241.273L584.2 216.132L636.023 209.975L624.222 241.273L605.237 226.394L590.871 241.273Z" fill="#272727"/>
<path d="M514.568 249.213C571.031 216.496 604.79 209.753 623.083 199.199C610.418 193.571 628.551 170.647 538.314 190.111C511.402 195.916 505.759 228.105 514.568 249.213Z" fill="#272727"/>
<path d="M460.743 162.888L450.042 200.904L591.11 179.057L752.328 208.529L751.988 192.887L740.489 188.107L740.222 175.816L725.725 176.131L725.312 157.137L706.673 157.543L702.215 143.108L685.647 143.468L675.494 129.157L658.506 133.997L653.134 125.171L635.531 125.554L635.312 115.498L611.714 126.072L605.283 116.151L595.147 126.432L584.573 116.601L565.117 127.085L552.473 117.299L539.23 127.647L529.91 127.85L519.75 137.013L515.414 128.165L498.223 147.542L486.735 143.32L472.194 165.434L460.743 162.888Z" fill="#272727"/>
<path d="M738.955 182.068L722.376 178.159L745.84 260.324L750.498 357.705L756.83 356.503L757.587 349.386L762.562 348.442L760.937 339.875L768.625 338.416L766.535 327.401L771.95 323.838L770.092 314.047L774.868 307.118L771.143 297.364L774.18 293.618L772.206 283.215L776.276 282.443L769.535 269.141L772.909 264.697L767.677 259.35L770.586 252.458L764.309 241.604L766.986 233.488L761.406 226.305L760.361 220.798L760.361 212.473L764.31 207.343L749.073 203.287L749.604 196.213L739.102 189.013L738.955 182.068Z" fill="#272727"/>
<path d="M449.793 200.539L466.372 196.631L439.143 264.875L427.811 358.346L420.123 356.887L422.213 345.872L416.798 342.309L418.656 332.518L413.88 325.589L417.605 315.835L414.568 312.089L416.542 301.686L412.471 300.914L419.213 287.612L415.839 283.168L421.071 277.821L418.161 270.929L424.438 260.075L421.761 251.959L427.341 244.777L428.386 239.269L428.386 230.944L424.438 225.814L439.675 221.759L439.143 214.684L449.646 207.485L449.793 200.539Z" fill="#272727"/>
<path d="M589.898 764.115C602.119 764.115 613.424 762.393 621.873 759.441C626.072 757.974 629.872 756.098 632.733 753.735C635.557 751.402 638.129 748.003 638.129 743.592C638.129 739.18 635.557 735.781 632.733 733.448C629.872 731.085 626.072 729.209 621.873 727.742C613.424 724.79 602.119 723.068 589.898 723.068C577.678 723.068 566.372 724.79 557.923 727.742C553.725 729.209 549.925 731.085 547.064 733.448C544.239 735.781 541.668 739.18 541.668 743.592C541.668 748.003 544.239 751.402 547.064 753.735C549.925 756.098 553.725 757.974 557.923 759.441C566.372 762.393 577.678 764.115 589.898 764.115Z" fill="#1A2336" stroke="#5374BA" stroke-width="11.288"/>
<rect x="753.311" y="780.286" width="86.8137" height="109.746" rx="13.104" transform="rotate(-16.5 753.311 780.286)" fill="#E3581C"/>
<rect x="759.593" y="778.425" width="86.8137" height="109.746" rx="13.104" transform="rotate(-16.5 759.593 778.425)" fill="#FF7033"/>
<rect x="764.888" y="767.461" width="72.8908" height="109.746" rx="13.104" transform="rotate(-16.5 764.888 767.461)" fill="#3D424E"/>
<rect x="775.912" y="778.717" width="58.1488" height="75.3478" transform="rotate(-16.5 775.912 778.717)" fill="#24262A"/>
<circle cx="828.139" cy="851.226" r="5.73298" transform="rotate(-16.5 828.139 851.226)" fill="#24262A"/>
<path d="M770.524 815.333L853.763 790.677L870.278 846.431C872.333 853.37 868.374 860.661 861.435 862.717L803.325 879.93C796.386 881.985 789.095 878.026 787.039 871.087L770.524 815.333Z" fill="white" fill-opacity="0.6"/>
<path d="M765.89 815.922C764.249 817.153 748.958 825.158 742.287 822.079C743.826 834.393 745.878 843.115 745.879 861.074C755.115 864.152 771.533 864.153 778.203 854.404C776.151 845.852 767.532 814.69 765.89 815.922Z" fill="#FF7033"/>
<path d="M385.638 1464.69C385.351 1440.26 389.059 1446.69 410.266 1436.65C431.473 1426.6 451.419 1407.35 488.11 1390.78C488.11 1390.78 492.943 1389.86 500.828 1394.09C507.557 1397.7 516.212 1406.59 529.213 1406.44C543.331 1406.27 555.903 1403.24 563.707 1399.12C567.057 1389.86 574.548 1389.77 574.548 1389.77C574.548 1389.77 585.157 1409.82 585.393 1429.98C585.63 1450.15 585.495 1464.09 585.495 1464.09L385.638 1464.69Z" fill="#DCE1E6"/>
<path d="M570.863 1464.14C570.863 1464.14 571.776 1426.62 529.141 1408.65" stroke="#D0D4D8" stroke-width="2.11953"/>
<path d="M459.09 1465C459.09 1465 456.821 1418.17 513.206 1406.82" stroke="#D0D4D8" stroke-width="2.11953"/>
<path d="M412.73 1447.04C412.73 1447.04 515.549 1467.75 515.363 1405.47" stroke="#D0D4D8" stroke-width="2.11953"/>
<path d="M528.195 1431.28L528.15 1416.38" stroke="#D0D4D8" stroke-width="21.1953"/>
<path d="M482.068 1393.87C484.389 1399.05 484.408 1405.39 484.42 1409.42L464.8 1400.84L469.46 1417.54L451.578 1411.83L451.628 1428.54L437.775 1421.09L437.818 1435.49" stroke="black" stroke-width="5.73721" stroke-linecap="round" stroke-linejoin="round"/>
<path d="M394.394 1437.53C400.902 1435.14 407.797 1433.33 421.017 1430.3L415.444 1446.5L415.66 1464.94L378.007 1465.38C376.47 1465.4 373.718 1463.36 375.004 1455.04C376.611 1444.65 385.146 1440.91 394.394 1437.53Z" fill="#EAF4FB"/>
<path d="M585.765 1464.09L555.959 1464.18L556.003 1479.11C556.012 1482.03 558.391 1484.4 561.318 1484.39L580.527 1484.33C583.453 1484.32 585.818 1481.94 585.81 1479.02L585.765 1464.09Z" fill="#C6CBCF"/>
<path d="M554.895 1464.18L525.089 1464.27L525.134 1479.2C525.142 1482.12 527.522 1484.49 530.448 1484.48L549.657 1484.42C552.583 1484.41 554.949 1482.04 554.94 1479.11L554.895 1464.18Z" fill="#C6CBCF"/>
<path d="M524.023 1464.28L494.217 1464.37L494.262 1479.29C494.271 1482.22 496.65 1484.58 499.576 1484.57L518.785 1484.52C521.712 1484.51 524.077 1482.13 524.068 1479.2L524.023 1464.28Z" fill="#C6CBCF"/>
<path d="M493.154 1464.37L463.348 1464.46L463.392 1479.38C463.401 1482.31 465.78 1484.68 468.707 1484.67L487.915 1484.61C490.842 1484.6 493.207 1482.22 493.198 1479.3L493.154 1464.37Z" fill="#C6CBCF"/>
<path d="M462.282 1464.46L432.476 1464.55L432.52 1479.48C432.529 1482.4 434.909 1484.77 437.835 1484.76L457.044 1484.7C459.97 1484.69 462.335 1482.31 462.327 1479.39L462.282 1464.46Z" fill="#C6CBCF"/>
<path d="M431.41 1464.55L401.604 1464.64L401.649 1479.57C401.657 1482.5 404.037 1484.86 406.963 1484.85L426.172 1484.8C429.098 1484.79 431.464 1482.41 431.455 1479.48L431.41 1464.55Z" fill="#C6CBCF"/>
<path d="M400.54 1464.65L376.057 1464.72L376.101 1479.65C376.11 1482.57 378.489 1484.94 381.416 1484.93L395.302 1484.89C398.228 1484.88 400.594 1482.5 400.585 1479.57L400.54 1464.65Z" fill="#C6CBCF"/>
<path d="M508.885 1441.75C503.896 1443.39 499.807 1443.42 497.404 1441.79C491.211 1437.54 494.658 1430.37 496.132 1427.56C493.397 1431.05 490.68 1434.55 488.615 1438.33C485.355 1444.23 484.173 1450.57 486.785 1454.46C491.469 1461.48 501.64 1457.59 508.082 1454.33L567.859 1424.07L508.885 1441.75Z" fill="black"/>
<path d="M815.506 1464.82C815.718 1440.5 812.046 1446.91 790.904 1436.98C769.762 1427.04 749.848 1407.93 713.271 1391.55C713.271 1391.55 708.457 1390.64 700.62 1394.88C693.932 1398.5 685.342 1407.37 672.399 1407.26C658.343 1407.13 645.818 1404.15 638.037 1400.07C634.675 1390.86 627.216 1390.8 627.216 1390.8C627.216 1390.8 616.715 1410.79 616.539 1430.87C616.364 1450.94 616.539 1464.82 616.539 1464.82L815.506 1464.82Z" fill="#DCE1E6"/>
<path d="M631.108 1464.82C631.108 1464.82 624.546 1428.79 666.937 1410.77" stroke="#D0D4D8" stroke-width="2.11953"/>
<path d="M742.382 1465.35C742.382 1465.35 744.501 1418.72 688.334 1407.59" stroke="#D0D4D8" stroke-width="2.11953"/>
<path d="M788.483 1447.33C788.483 1447.33 683.364 1470.12 683.364 1408.12" stroke="#D0D4D8" stroke-width="2.11953"/>
<path d="M673.498 1431.97V1417.13" stroke="#D0D4D8" stroke-width="21.1953"/>
<path d="M719.296 1394.6C717.001 1399.77 717.001 1406.08 717.001 1410.09L736.507 1401.49L731.917 1418.13L749.703 1412.39V1429.03L763.472 1421.57V1435.91" stroke="black" stroke-width="5.73721" stroke-linecap="round" stroke-linejoin="round"/>
<path d="M806.709 1437.8C800.222 1435.45 793.353 1433.67 780.183 1430.69L785.78 1446.8L785.62 1465.16L823.106 1465.48C824.636 1465.5 827.369 1463.46 826.064 1455.18C824.433 1444.84 815.926 1441.14 806.709 1437.8Z" fill="#EAF4FB"/>
<path d="M616.271 1464.82H645.944V1479.66C645.944 1482.58 643.572 1484.96 640.645 1484.96H621.569C618.643 1484.96 616.271 1482.58 616.271 1479.66V1464.82Z" fill="#C6CBCF"/>
<path d="M647.004 1464.82H676.677V1479.66C676.677 1482.58 674.305 1484.95 671.378 1484.95H652.303C649.376 1484.95 647.004 1482.58 647.004 1479.66V1464.82Z" fill="#C6CBCF"/>
<path d="M677.738 1464.82H707.411V1479.66C707.411 1482.58 705.039 1484.95 702.112 1484.95H683.036C680.11 1484.95 677.738 1482.58 677.738 1479.66V1464.82Z" fill="#C6CBCF"/>
<path d="M708.471 1464.82H738.144V1479.66C738.144 1482.58 735.772 1484.96 732.845 1484.96H713.77C710.843 1484.96 708.471 1482.58 708.471 1479.66V1464.82Z" fill="#C6CBCF"/>
<path d="M739.202 1464.82H768.876V1479.66C768.876 1482.58 766.503 1484.96 763.577 1484.96H744.501C741.575 1484.96 739.202 1482.58 739.202 1479.66V1464.82Z" fill="#C6CBCF"/>
<path d="M769.936 1464.82H799.609V1479.66C799.609 1482.58 797.237 1484.96 794.31 1484.96H775.235C772.308 1484.96 769.936 1482.58 769.936 1479.66V1464.82Z" fill="#C6CBCF"/>
<path d="M800.669 1464.82H825.044V1479.66C825.044 1482.58 822.672 1484.96 819.745 1484.96H805.968C803.042 1484.96 800.669 1482.58 800.669 1479.66V1464.82Z" fill="#C6CBCF"/>
<path d="M693.795 1443.56C698.784 1445.2 702.873 1445.23 705.276 1443.6C711.469 1439.34 708.021 1432.18 706.548 1429.37C709.283 1432.86 712 1436.36 714.065 1440.14C717.325 1446.03 718.507 1452.37 715.895 1456.26C711.211 1463.29 701.04 1459.4 694.598 1456.14L634.821 1425.88L693.795 1443.56Z" fill="black"/>
<defs>
<filter id="filter0_i" x="330.784" y="587.806" width="268.917" height="271.233" filterUnits="userSpaceOnUse" color-interpolation-filters="sRGB">
<feFlood flood-opacity="0" result="BackgroundImageFix"/>
<feBlend mode="normal" in="SourceGraphic" in2="BackgroundImageFix" result="shape"/>
<feColorMatrix in="SourceAlpha" type="matrix" values="0 0 0 0 0 0 0 0 0 0 0 0 0 0 0 0 0 0 127 0" result="hardAlpha"/>
<feOffset dy="-20.5237"/>
<feComposite in2="hardAlpha" operator="arithmetic" k2="-1" k3="1"/>
<feColorMatrix type="matrix" values="0 0 0 0 0.32549 0 0 0 0 0.454902 0 0 0 0 0.729412 0 0 0 1 0"/>
<feBlend mode="normal" in2="shape" result="effect1_innerShadow"/>
</filter>
<filter id="filter1_i" x="587.264" y="588.884" width="268.917" height="271.233" filterUnits="userSpaceOnUse" color-interpolation-filters="sRGB">
<feFlood flood-opacity="0" result="BackgroundImageFix"/>
<feBlend mode="normal" in="SourceGraphic" in2="BackgroundImageFix" result="shape"/>
<feColorMatrix in="SourceAlpha" type="matrix" values="0 0 0 0 0 0 0 0 0 0 0 0 0 0 0 0 0 0 127 0" result="hardAlpha"/>
<feOffset dy="-20.5237"/>
<feComposite in2="hardAlpha" operator="arithmetic" k2="-1" k3="1"/>
<feColorMatrix type="matrix" values="0 0 0 0 0.32549 0 0 0 0 0.454902 0 0 0 0 0.729412 0 0 0 1 0"/>
<feBlend mode="normal" in2="shape" result="effect1_innerShadow"/>
</filter>
<filter id="filter2_i" x="428.903" y="585.557" width="328.364" height="457.162" filterUnits="userSpaceOnUse" color-interpolation-filters="sRGB">
<feFlood flood-opacity="0" result="BackgroundImageFix"/>
<feBlend mode="normal" in="SourceGraphic" in2="BackgroundImageFix" result="shape"/>
<feColorMatrix in="SourceAlpha" type="matrix" values="0 0 0 0 0 0 0 0 0 0 0 0 0 0 0 0 0 0 127 0" result="hardAlpha"/>
<feOffset dy="-20.5237"/>
<feComposite in2="hardAlpha" operator="arithmetic" k2="-1" k3="1"/>
<feColorMatrix type="matrix" values="0 0 0 0 0.32549 0 0 0 0 0.454902 0 0 0 0 0.729412 0 0 0 1 0"/>
<feBlend mode="normal" in2="shape" result="effect1_innerShadow"/>
</filter>
</defs>
</svg>
