<svg width="1200" height="1600" viewBox="0 0 1200 1600" fill="none" xmlns="http://www.w3.org/2000/svg">
<ellipse cx="593.75" cy="613.588" rx="59.9748" ry="36.2795" fill="#EBBAAA"/>
<ellipse cx="597.88" cy="1015.84" rx="127.5" ry="52.4186" fill="#2E2E2D"/>
<path d="M666.214 1092.81C678.214 1148.59 673.38 1291.39 673.38 1363.53" stroke="#EBBAAA" stroke-width="57" stroke-linecap="round" stroke-linejoin="bevel"/>
<path d="M545.38 1165.88C539.38 1262.54 530.38 1307.26 533.38 1374.11" stroke="#EBBAAA" stroke-width="57" stroke-linecap="round" stroke-linejoin="bevel"/>
<path d="M581.395 1072.02C645.178 1072.02 696.885 1048.47 696.885 1019.41C696.885 990.348 645.178 966.791 581.395 966.791C517.611 966.791 465.904 990.348 465.904 1019.41C465.904 1048.47 517.611 1072.02 581.395 1072.02Z" fill="#2E2E2D"/>
<path d="M431.957 737.32C400.25 797.024 374.25 954.761 400.25 971.112" stroke="#EBBAAA" stroke-width="74" stroke-linecap="round" stroke-linejoin="bevel"/>
<path d="M746.972 713.527C792.324 790.853 808.741 934.225 792.25 977.845" stroke="#EBBAAA" stroke-width="74" stroke-linecap="round" stroke-linejoin="bevel"/>
<path d="M457.25 960.532H592.25L582.25 1300.53L579.25 1333.71L502.75 1329.87L497.25 1300.53L457.25 960.532Z" fill="#2E2E2D"/>
<path d="M590.964 966.323H726.422L711.75 1297.16L710.25 1326.98L631.75 1333.23L627.25 1305.82L590.964 966.323Z" fill="#2E2E2D"/>
<path d="M429.25 649.387C429.25 626.785 480.75 603.716 516.75 592.747L531.466 592.747C490.966 677.316 593.725 668.138 600.208 669L694.75 603.716C729.341 608.316 782.734 622.701 779.25 656.12L741.798 803.083L745.25 992.272C745.322 994.017 662.564 1003.9 660.75 1003.81L523.25 995.426L448.75 992.204C447.008 992.115 446.106 987.215 446.25 985.539L456.258 785.367L429.25 649.387Z" fill="white"/>
<path d="M770.75 626.303C761.55 617.455 731.25 608.51 717.25 605.144C726.083 718.637 744.55 948.509 747.75 960.051C751.75 974.478 839.25 980.249 847.25 974.478C855.25 968.707 864.25 914.365 862.25 884.549C860.25 854.733 782.25 637.364 770.75 626.303Z" fill="#C9DDEF"/>
<path d="M846.75 975.921C851.15 975.152 861.25 947.708 864.75 936.968L741.75 918.212C740.25 927.991 737.45 949.183 738.25 955.723C739.25 963.898 762.25 971.112 787.25 974.959C812.25 978.806 841.25 976.883 846.75 975.921Z" fill="#E3EEF7"/>
<path d="M426.168 628.691C434.78 619.849 463.144 610.912 476.25 607.548C467.981 720.953 450.694 950.648 447.699 962.181C443.954 976.596 362.045 982.363 354.556 976.596C347.067 970.83 338.642 916.53 340.514 886.737C342.387 856.944 415.403 639.743 426.168 628.691Z" fill="#C9DDEF"/>
<path d="M352.875 977.475C348.566 976.71 338.677 949.442 335.25 938.771L455.685 920.136C457.154 929.852 459.895 950.908 459.112 957.406C458.133 965.529 435.612 972.697 411.134 976.519C386.655 980.342 358.26 978.431 352.875 977.475Z" fill="#E3EEF7"/>
<path d="M581.25 665.256C576.25 651.31 578.75 632.074 578.75 632.074L556.25 639.287L529.25 588.792C498.083 594.082 496.75 596.006 474.25 605.624C447.409 617.098 452.75 655.638 448.75 708.057L443.25 995.157L517.25 1006.22L565.336 1011.96L588.75 681.126C588.75 681.126 586.25 679.203 581.25 665.256Z" fill="#B3CBE1"/>
<path d="M600.25 664.776C587.25 654.677 589.416 646.662 591.75 638.807L596.25 635.921L629.25 632.074L660.25 591.678C660.25 591.678 704.75 597.449 719.75 605.144C734.75 612.838 743.75 696.996 743.75 696.996L750.75 996.6L712.75 1006.7L584.25 1025.31C583.982 1005.07 566.025 961.519 566.371 934.536C567.744 827.323 573.892 687.843 584.25 682.569C601.25 673.913 603.25 667.106 600.25 664.776Z" fill="#B3CBE1"/>
<path d="M633.25 605.143C636.689 594.202 633.25 586.388 632.25 581.579L660.25 591.678C660.25 591.678 669.75 603.22 663.75 629.67C657.177 658.646 628.107 670.066 621.25 677.76C618.25 681.126 619.25 640.249 596.25 635.921C606.75 633.517 626.75 625.822 633.25 605.143Z" fill="#A3C1D7"/>
<path d="M553.302 610.914C546.25 601.296 549.908 587.805 553.302 580.617L528.75 588.793C528.75 588.793 514.632 612.172 522.264 634.768C531.75 662.852 565.544 673 565.25 669.585C562.25 634.768 574.239 636.066 579.25 631.593C570.75 629.669 562.674 623.696 553.302 610.914Z" fill="#A3C1D7"/>
<ellipse cx="630.25" cy="659.485" rx="5" ry="4.80905" fill="#DAE2F3"/>
<ellipse cx="553.25" cy="654.677" rx="5" ry="4.80905" fill="#E5EBF9"/>
<ellipse cx="593.75" cy="700.362" rx="7.5" ry="7.21357" fill="#EDF2FF"/>
<ellipse opacity="0.5" cx="838.75" cy="960.051" rx="7.5" ry="7.21357" fill="#A3C1D7"/>
<ellipse opacity="0.5" cx="364.75" cy="960.051" rx="7.5" ry="7.21357" fill="#A3C1D7"/>
<ellipse cx="587.75" cy="769.132" rx="7.5" ry="7.69447" fill="#EDF2FF"/>
<ellipse cx="583.75" cy="837.901" rx="7.5" ry="7.21357" fill="#EDF2FF"/>
<ellipse cx="583.75" cy="906.19" rx="7.5" ry="7.21357" fill="#EDF2FF"/>
<ellipse cx="583.75" cy="966.784" rx="7.5" ry="7.21357" fill="#EDF2FF"/>
<path d="M392.346 1447.99C390.468 1443.52 391.819 1437.4 392.871 1435.73C393.923 1434.07 521.619 1426.4 521.619 1426.4C542.813 1424.74 584.825 1417.74 587.728 1429.79C591.32 1444.7 591.155 1448.07 588.707 1459.61C584.791 1463.46 545.169 1466.82 532.323 1463.94C532.323 1457.2 531.323 1452.88 531.323 1452.88C531.323 1452.88 524.162 1457.24 515.761 1459.13C498.626 1462.97 495.344 1466.82 442.271 1466.82C399.703 1462.97 396.55 1457.98 392.346 1447.99Z" fill="#272727"/>
<path d="M530.448 1383.14C541.099 1383.28 557.362 1379.91 566.212 1368.08C566.991 1367.04 568.533 1366.87 569.437 1367.81C577.447 1376.09 572.27 1371.37 575.473 1385.56C578.63 1399.54 581.295 1397.54 584.452 1410.53C586.638 1419.52 593.717 1440.49 584.452 1440.49H542.198C532.201 1440.49 518.698 1451.66 485.407 1454.8C430.145 1460.01 416.641 1452.88 405.607 1449.51C380.5 1441.85 393.241 1424.33 405.606 1418.73C423.721 1410.53 449.681 1404.36 462.887 1397.57C473.169 1392.28 476.701 1390.64 481.98 1385.07C488.737 1377.94 491.591 1373.4 493.73 1369.85C494.634 1368.36 497.002 1368.71 497.958 1370.17C503.787 1379.08 520.615 1383.02 530.448 1383.14Z" fill="#565656"/>
<path d="M497.169 1374.01C499.335 1378.69 508.02 1383.94 508.02 1387.58L486.669 1380.26L497.169 1395.17L477.162 1389.67L486.669 1402.38L464.169 1398L477.162 1410.07" stroke="#2C221B" stroke-width="5.41368" stroke-linecap="round" stroke-linejoin="round"/>
<path opacity="0.2" d="M412 1434.91C421.33 1437.63 435.565 1441.49 456.979 1437.18" stroke="white" stroke-width="7" stroke-linecap="round"/>
<path d="M483.264 1409.59C493.055 1400.94 500.336 1396.61 508.169 1386.99C512.412 1386.99 518.013 1387.47 534.169 1387.47C555.221 1387.47 560.802 1378.82 570.104 1368.72C577.169 1373.04 573.531 1382.18 578.426 1394.69C582.343 1404.69 589.687 1419.69 589.687 1437.97C586.26 1443.74 552.479 1440.85 541.708 1440.85C539.26 1429.31 520.169 1419.69 511.669 1417.29C504.209 1415.18 495.503 1414.4 483.264 1409.59Z" fill="#2F2F2F"/>
<path d="M813.735 1447.99C815.613 1443.52 814.262 1437.4 813.21 1435.73C812.158 1434.07 684.462 1426.4 684.462 1426.4C663.268 1424.74 621.256 1417.74 618.353 1429.79C614.761 1444.7 614.926 1448.07 617.374 1459.61C621.29 1463.46 660.912 1466.82 673.758 1463.94C673.758 1457.2 674.758 1452.88 674.758 1452.88C674.758 1452.88 681.919 1457.24 690.32 1459.13C707.455 1462.97 710.737 1466.82 763.81 1466.82C806.378 1462.97 809.531 1457.98 813.735 1447.99Z" fill="#272727"/>
<path d="M675.633 1383.14C664.982 1383.28 648.719 1379.91 639.869 1368.08C639.09 1367.04 637.548 1366.87 636.644 1367.81C628.634 1376.09 633.811 1371.37 630.608 1385.56C627.451 1399.54 624.786 1397.54 621.629 1410.53C619.443 1419.52 612.365 1440.49 621.629 1440.49H663.883C673.881 1440.49 687.383 1451.66 720.674 1454.8C775.936 1460.01 789.44 1452.88 800.475 1449.51C825.581 1441.85 812.84 1424.33 800.475 1418.73C782.36 1410.53 756.4 1404.36 743.194 1397.57C732.912 1392.28 729.381 1390.64 724.101 1385.07C717.344 1377.94 714.49 1373.4 712.351 1369.85C711.447 1368.36 709.079 1368.71 708.123 1370.17C702.294 1379.08 685.466 1383.02 675.633 1383.14Z" fill="#565656"/>
<path d="M708.912 1374.01C706.746 1378.69 698.061 1383.94 698.061 1387.58L719.412 1380.26L708.912 1395.17L728.919 1389.67L719.412 1402.38L741.912 1398L728.919 1410.07" stroke="#2C221B" stroke-width="5.41368" stroke-linecap="round" stroke-linejoin="round"/>
<path opacity="0.2" d="M794.082 1434.91C784.752 1437.63 770.516 1441.49 749.102 1437.18" stroke="white" stroke-width="7" stroke-linecap="round"/>
<path d="M722.817 1409.59C713.026 1400.94 705.745 1396.61 697.912 1386.99C693.669 1386.99 688.068 1387.47 671.912 1387.47C650.86 1387.47 645.279 1378.82 635.977 1368.72C628.912 1373.04 632.55 1382.18 627.655 1394.69C623.738 1404.69 616.394 1419.69 616.394 1437.97C619.821 1443.74 653.602 1440.85 664.373 1440.85C666.821 1429.31 685.912 1419.69 694.412 1417.29C701.872 1415.18 710.578 1414.4 722.817 1409.59Z" fill="#2F2F2F"/>
<path d="M723.535 467.38C756.267 467.38 782.802 441.859 782.802 410.377C782.802 378.895 756.267 353.374 723.535 353.374C690.803 353.374 664.269 378.895 664.269 410.377C664.269 441.859 690.803 467.38 723.535 467.38Z" fill="#EBBAAA"/>
<path d="M472.38 467.38C439.648 467.38 413.113 441.859 413.113 410.377C413.113 378.895 439.648 353.374 472.38 353.374C505.112 353.374 531.646 378.895 531.646 410.377C531.646 441.859 505.112 467.38 472.38 467.38Z" fill="#EBBAAA"/>
<path d="M440.25 315.457C440.25 231.363 508.421 163.192 592.514 163.192C677.566 163.192 746.128 232.867 744.759 317.908L742.608 451.449C741.3 532.727 675.038 597.93 593.75 597.93C514.833 597.93 449.573 536.457 444.862 457.68L440.25 380.561V315.457Z" fill="#F4D4C9"/>
<path d="M434.26 294.366C433.993 288.914 439.215 284.379 445.75 284.379C452.531 284.379 457.838 289.243 457.198 294.874L446.369 390.258C446.188 391.852 444.586 393.064 442.675 393.064C440.678 393.064 439.044 391.754 438.958 390.097L434.26 294.366Z" fill="#272727"/>
<path d="M756.148 294.473C756.701 289.063 751.802 284.298 745.367 283.979C738.691 283.648 733.206 288.227 733.536 293.859L739.113 389.266C739.206 390.861 740.719 392.145 742.601 392.238C744.567 392.335 746.246 391.113 746.418 389.468L756.148 294.473Z" fill="#272727"/>
<path d="M637.157 350.677L694.318 346.677" stroke="#393939" stroke-width="18" stroke-linecap="round"/>
<path d="M551.086 347.383L493.814 345.971" stroke="#393939" stroke-width="18" stroke-linecap="round"/>
<path d="M595.029 413.263C581.438 441.43 577.307 477.645 603.25 477.645" stroke="#EBBAAA" stroke-width="17"/>
<path d="M444.21 228.114C455.81 204.262 485.377 193.81 497.71 189.642L539.21 207.436C514.21 196.717 493.61 216.38 477.21 244.465C460.81 272.55 451.002 333.812 449.835 358.98C449.835 358.98 447.71 361.085 444.71 360.844C441.71 360.604 437.791 363.245 437.791 363.245C431.518 302.02 432.61 251.967 444.21 228.114Z" fill="#1E1E1E"/>
<path d="M760.757 262.259C745.257 170.406 682.257 161.749 651.257 152.612L727.257 258.411L743.757 356.997C753.257 344.173 768.768 309.734 760.757 262.259Z" fill="#181818"/>
<path d="M574.757 239.175C541.957 239.175 500.257 215.291 491.257 201.184L558.257 168.963L662.757 174.734L676.757 263.221C647.757 231.962 607.557 239.175 574.757 239.175Z" fill="#181818"/>
<path d="M632.757 138.185C527.757 119.911 495.257 156.439 489.257 171.346C483.257 186.254 484.007 189.14 492.257 199.72C504.257 215.109 560.757 194.43 606.757 202.124C652.757 209.819 658.757 258.39 691.257 280.512C717.257 298.209 743.09 302.313 752.757 302.152C746.257 282.916 731.657 239.731 725.257 220.879C717.257 197.315 688.721 147.925 632.757 138.185Z" fill="#393939"/>
<path d="M564.641 529.717C589.158 539.929 615.754 532.507 631.311 532.506" stroke="#C99584" stroke-width="15.6368" stroke-linecap="round"/>
<path d="M504.922 390.301C511.777 390.326 529.952 385.74 549.626 390.301" stroke="black" stroke-width="15.6151" stroke-linecap="round"/>
<path d="M639.922 393.064C658.211 388.341 665.691 391.756 684.626 393.064" stroke="black" stroke-width="15.6151" stroke-linecap="round"/>
<path d="M443.96 325.072L442.334 339.712L443.959 342.045L441.358 348.501L442.334 339.712L440.442 336.997L436.012 325.073L426.338 313.129L431.938 311.45L427.56 304.613L428.346 299.138L423.573 290.382L430.529 283.93L426.28 271.523L433.061 266.288L428.026 259.357L434.458 256.555L430.558 241.715L436.466 242.563L437.95 232.222L443.638 229.934L442.453 219.519L451.816 214.965L453.213 205.232L462.095 204.023L463.666 193.073L474.825 194.675L476.047 186.158L483.268 187.194L487.182 180.927L487.182 214.965L453.213 259.357L443.96 325.072Z" fill="#272727"/>
<path d="M745.852 293.986L748.708 308.437L747.285 310.899L750.422 317.112L748.708 308.437L750.363 305.571L753.771 293.316L747.285 279.398L756.68 279.398L760.465 272.216L759.22 266.827L751.749 258.92L755.761 251.857L758.947 239.136L751.749 234.492L756.18 227.161L749.535 224.911L752.167 209.796L746.353 211.139L744.001 200.96L738.14 199.16L738.441 188.683L728.728 184.936L726.514 175.355L717.561 174.901L695.106 167.312L702.15 179.096L704.087 179.972L715.071 184.936L731.084 229.287L745.852 293.986Z" fill="#181818"/>
<path d="M563.915 586.458C559.271 583.713 568.36 570.954 571.843 565.463C574.104 564.127 583.352 569.662 597.751 570.597C615.751 571.766 616.69 561.404 621.846 568.517C627.001 575.63 637.894 583.881 624.377 588.042C603.243 594.546 570.232 590.193 563.915 586.458Z" fill="#CAC4C1"/>
</svg>
