<svg width="1200" height="1600" viewBox="0 0 1200 1600" fill="none" xmlns="http://www.w3.org/2000/svg">
<path d="M674.545 1205.77V1433.77" stroke="#EBBAAA" stroke-width="44" stroke-linecap="round" stroke-linejoin="bevel"/>
<path d="M526.545 1205.77V1451.27" stroke="#EBBAAA" stroke-width="44" stroke-linecap="round" stroke-linejoin="bevel"/>
<path d="M606.875 1069C670.388 1069 721.875 1042.81 721.875 1010.5C721.875 978.191 670.388 952 606.875 952C543.362 952 491.875 978.191 491.875 1010.5C491.875 1042.81 543.362 1069 606.875 1069Z" fill="#4D5457"/>
<path d="M602.875 980.768H467.875L474.761 1296.99L482.761 1325.2H560.261L570.875 1290.5L602.875 980.768Z" fill="#4D5457"/>
<path d="M601.59 986.789H737.047L727.375 1288.5L714.375 1324.23L638.375 1330.92L631.114 1296.5L601.59 986.789Z" fill="#4D5457"/>
<path d="M479.875 1321H561.875V1345H484.618L479.875 1321Z" fill="#434A4C"/>
<path d="M633.875 1323H715.875L711.875 1345H637.618L633.875 1323Z" fill="#434A4C"/>
<path d="M457.545 939.768H747.545L751.369 975.71C751.997 981.618 747.366 986.768 741.425 986.768H463.665C457.724 986.768 453.093 981.618 453.721 975.71L457.545 939.768Z" fill="#B2BDC0"/>
<path d="M434.559 607.418C458.74 553.111 498.26 557.209 515.052 559.266L483.706 747.49L389.376 806C370.875 780.5 395.308 704.221 396.875 698C402.149 677.068 415.918 649.283 434.559 607.418Z" fill="#333742"/>
<path d="M778.936 608.173C754.755 553.866 715.235 557.964 698.443 560.021L729.789 748.245L820.375 713.5C817.875 705.5 815.943 700.721 814.375 694.5C809.102 673.568 797.577 650.038 778.936 608.173Z" fill="#343844"/>
<path d="M483.171 592.565C487.327 562.327 512.69 540.151 543.223 539.813L612.202 539.049L675.76 545.745C704.819 548.807 728.395 571.378 732.222 600.434C740.562 663.755 753.507 774.516 753.507 851.947C753.507 966.171 771.669 977.096 743.549 992.062C715.43 1007.03 490.464 1004.92 459.749 981.719C429.034 958.515 448.132 934.342 448.131 886.964C448.131 852.061 471.084 680.493 483.171 592.565Z" fill="#383C48"/>
<ellipse cx="603.25" cy="570.401" rx="49.3747" ry="65.4012" fill="#2E2A2B"/>
<rect x="569.875" y="490" width="69" height="115" rx="34.5" fill="#EBBAAA"/>
<path d="M566.382 639.447C533.799 633.117 463.541 564.276 500.197 528.67C523.617 498.997 561.291 538.561 566.382 558.342C570.455 574.168 581.656 613.071 588.783 623.621C596.929 631.204 598.966 645.777 566.382 639.447Z" fill="#40424E"/>
<path d="M643.368 639.447C675.952 633.117 746.21 564.276 709.553 528.67C686.134 498.997 648.459 538.561 643.368 558.342C639.295 574.168 628.095 613.071 620.967 623.621C612.821 631.204 610.785 645.777 643.368 639.447Z" fill="#40424E"/>
<path d="M563.182 622.866L563.182 762.437" stroke="#2E2A2B" stroke-width="14" stroke-linecap="round"/>
<path d="M563.182 760.775L563.182 773.237" stroke="#40424E" stroke-width="10" stroke-linecap="round"/>
<path d="M644.505 622.866L644.505 783.537" stroke="#2E2A2B" stroke-width="14" stroke-linecap="round"/>
<path d="M644.505 781.477L644.505 795.896" stroke="#40424E" stroke-width="10" stroke-linecap="round"/>
<path opacity="0.5" d="M754.875 434.554C776.966 434.554 794.875 415.078 794.875 391.054C794.875 367.029 776.966 347.554 754.875 347.554C732.784 347.554 714.875 367.029 714.875 391.054C714.875 415.078 732.784 434.554 754.875 434.554Z" fill="#C99584"/>
<path opacity="0.5" d="M454.875 434.554C432.784 434.554 414.875 415.078 414.875 391.054C414.875 367.029 432.784 347.554 454.875 347.554C476.966 347.554 494.875 367.029 494.875 391.054C494.875 415.078 476.966 434.554 454.875 434.554Z" fill="#C99584"/>
<path d="M454.875 294.322C454.875 211.48 522.032 144.322 604.875 144.322C687.718 144.322 754.875 211.48 754.875 294.322V349.168C754.875 358.079 754.194 366.976 752.837 375.783L743.67 435.289C733.144 503.619 674.345 554.054 605.209 554.054C537.541 554.054 479.545 505.687 467.392 439.119L457.717 386.123C455.826 375.765 454.875 365.257 454.875 354.728V294.322Z" fill="#F4D5CC"/>
<path d="M445.375 249.054C444.705 188.044 498.378 168.054 488.876 179.554C479.375 191.053 501.878 219.554 488.876 228.554C475.875 237.554 490.376 266.555 483.376 277.555C476.376 288.555 465.201 286.055 458.876 307.555C452.551 329.055 457.876 370.912 457.876 370.912C458.376 372.055 457.876 373.555 456.876 373.555C455.876 373.555 454.376 373.055 453.969 370.912C453.969 370.912 446.375 340.054 445.375 249.054Z" fill="#868686"/>
<path d="M763.869 250.588C764.488 194.25 714.945 175.792 723.715 186.411C732.485 197.03 711.714 223.347 723.715 231.658C735.716 239.969 722.331 266.748 728.793 276.906C735.254 287.063 745.569 284.755 751.408 304.608C757.246 324.462 752.331 363.113 752.331 363.113C751.869 364.169 752.331 365.554 753.254 365.554C754.177 365.554 755.561 365.092 755.936 363.113C755.936 363.113 762.946 334.619 763.869 250.588Z" fill="#868686"/>
<path d="M609.875 212.554C526.874 212.554 469.662 226.054 456.875 253.742C444.088 281.43 447.015 290.054 446.375 282.554C445.736 275.054 444.875 266.68 444.875 251.554C444.875 153.366 513.375 138.552 575.375 144.553C637.375 150.553 685.736 212.554 609.875 212.554Z" fill="#706F6F"/>
<path d="M599.199 212.063C675.348 212.063 751.735 183.399 754.875 239.053C766.875 258.053 762.375 280.054 763.875 249.053C770.335 115.554 566.875 25.6812 462.875 181.181C462.875 181.181 523.042 212.063 599.199 212.063Z" fill="#706F6F"/>
<path d="M607.875 365.554C597.875 380.554 587.875 415.554 617.875 415.554" stroke="#EBBAAA" stroke-width="17"/>
<path d="M667.875 341V355" stroke="black" stroke-width="24" stroke-linecap="round"/>
<path d="M542.375 341V355" stroke="black" stroke-width="24" stroke-linecap="round"/>
<path d="M564.875 219.054C526.375 209.68 476.375 231.054 445.375 236.554C445.375 169.054 517.375 100.054 599.875 98.0536C682.375 96.0536 733.375 150.554 746.375 177.554C751.431 188.054 739.875 207.482 712.875 219.054C681.375 232.554 622.375 233.054 564.875 219.054Z" fill="#2B2A2A"/>
<path d="M638.656 314.46L630.401 296.673L686.909 283.66L704.988 293.964L705.953 303.917L678.195 302.589L638.656 314.46Z" fill="#393939"/>
<path d="M567.132 313.878L575.068 295.931L517.923 284.037L499.944 294.696L499.181 304.667L527.09 302.791L567.132 313.878Z" fill="#393939"/>
<path d="M560.875 451.554C565.875 458.054 580.075 471 606.875 471C633.675 471 650.875 458.054 654.875 451.554" stroke="#C99584" stroke-width="16" stroke-linecap="round"/>
<path d="M498.765 876.931C503.64 849.769 527.273 830 554.869 830H602.466H687.885C694.409 830 701.04 831.101 705.84 835.52C713.911 842.948 725.695 859.567 729.915 894.949C736.576 950.801 729.915 959.897 729.915 959.897C729.915 959.897 661.223 978 602.466 978C543.709 978 483.875 959.897 483.875 959.897L495.532 894.949L498.765 876.931Z" fill="#40424E"/>
<path d="M679.575 691L676.495 685.06C677.615 684.5 678.815 683.28 678.815 681.34C678.815 679 677.115 676.76 673.955 676.76H668.315V691H671.815V685.7H672.995L675.515 691H679.575ZM675.315 681.34C675.315 682.08 674.755 682.78 673.795 682.78H671.815V679.9H673.795C674.755 679.9 675.315 680.6 675.315 681.34ZM684.862 691V676.76H681.362V691H684.862ZM697.309 686.64C697.309 685.32 697.009 684.26 696.249 683.52C695.649 682.92 694.729 682.52 693.449 682.34L691.729 682.1C691.229 682.04 690.929 681.86 690.749 681.68C690.529 681.46 690.469 681.2 690.469 681.02C690.469 680.4 690.969 679.7 692.189 679.7C692.809 679.7 693.989 679.64 694.889 680.54L697.089 678.34C695.869 677.12 694.329 676.64 692.289 676.64C689.049 676.64 687.089 678.54 687.089 681.14C687.089 682.36 687.409 683.32 688.069 684C688.709 684.66 689.669 685.08 690.929 685.26L692.649 685.5C693.109 685.56 693.409 685.7 693.589 685.88C693.789 686.1 693.869 686.38 693.869 686.72C693.869 687.54 693.209 688 691.829 688C690.689 688 689.389 687.74 688.649 687L686.409 689.24C687.849 690.72 689.629 691.12 691.809 691.12C694.809 691.12 697.309 689.54 697.309 686.64ZM709.284 691V687.88H703.104V685.38H708.384V682.26H703.104V679.88H709.284V676.76H699.604V691H709.284Z" fill="white"/>
<path d="M671.935 708L666.755 693.76H664.055L658.875 708H662.535L663.235 705.88H667.615L668.275 708H671.935ZM666.695 702.96H664.215L665.495 699.16L666.695 702.96ZM683.706 701.78V699.8H678.126V702.72H680.226V702.92C680.226 703.46 680.086 704.04 679.686 704.44C679.366 704.78 678.866 705 678.126 705C677.486 705 677.006 704.74 676.746 704.4C676.426 703.98 676.226 703.48 676.226 700.88C676.226 698.28 676.426 697.8 676.746 697.38C677.006 697.04 677.486 696.76 678.126 696.76C679.326 696.76 679.886 697.28 680.166 698.36H683.686C683.346 696.02 681.786 693.64 678.126 693.64C676.406 693.64 675.206 694.2 674.166 695.24C672.666 696.74 672.726 698.74 672.726 700.88C672.726 703.02 672.666 705.02 674.166 706.52C675.206 707.56 676.466 708.12 678.126 708.12C679.686 708.12 681.046 707.78 682.266 706.52C683.346 705.42 683.706 704.08 683.706 701.78ZM697.56 708L692.38 693.76H689.68L684.5 708H688.16L688.86 705.88H693.24L693.9 708H697.56ZM692.32 702.96H689.84L691.12 699.16L692.32 702.96ZM702.506 708V693.76H699.006V708H702.506ZM716.513 708V693.76H713.013V700.92L708.453 693.76H705.393V708H708.893V700.84L713.453 708H716.513Z" fill="#FF0000"/>
<path d="M717.375 737C703.375 737.4 689.208 751.834 683.875 759C683.875 770.5 717.375 783 732.875 781.5C748.375 780 749.375 753.5 744.375 747.5C739.375 741.5 734.875 736.5 717.375 737Z" fill="#EBBEAA"/>
<path d="M466.374 756.5C474.874 751 495.874 750 500.374 750C502.874 757.167 504.674 771.8 491.874 773C475.874 774.5 457.874 762 466.374 756.5Z" fill="#EBBEAA"/>
<path d="M479.875 860.5C387.342 843.713 383.042 803.335 382.875 784.002C388.075 712.002 458.375 717.5 463.375 752C475.375 764.166 478.604 763.547 506.875 769.001C535.375 774.5 567.375 776 620.375 759.5L676.875 821.5C640.375 849 592.875 881 479.875 860.5Z" fill="#333742"/>
<path d="M827.875 743C827.875 729.08 806.74 672.986 795.375 645.5L743.875 679.351C751.813 695.285 751.216 751.838 732.166 758.53C708.353 766.896 558.44 742.397 550.323 748.372C543.828 753.153 537.875 792.789 537.875 804.54C588.747 824.856 737.577 871.463 783.038 838.599C806.945 821.317 827.875 790.802 827.875 743Z" fill="#343844"/>
<path d="M501.875 742C505.475 740 534.375 747.833 548.375 752C544.375 755.2 539.375 794.166 538.875 799.5C534.875 799.833 525.875 781.615 518.375 777C508.875 771.154 498.208 767.667 491.875 766C492.042 764.5 492.575 760.8 493.375 758C494.375 754.5 497.375 744.5 501.875 742Z" fill="#2F323D"/>
<path d="M495.795 1025.17C488.291 1023.57 471.264 1014.67 468.378 1016.17C460.442 1023.17 465.492 1201.17 469.821 1206.67C474.15 1212.17 510.946 1214.17 510.946 1206.67C510.946 1199.17 511.668 1173.17 510.946 1152.67C510.225 1132.17 522.49 1029.67 516.718 1028.17C510.946 1026.67 505.174 1027.17 495.795 1025.17Z" fill="#2F3034"/>
<path d="M505.173 1032.67C499.401 1032.17 475.591 1025.17 468.377 1020.67C463.326 1025.17 454.668 1056.17 464.048 1060.17C473.427 1064.17 497.958 1063.67 500.844 1060.17C503.73 1056.67 510.945 1033.17 505.173 1032.67Z" fill="#3B4345"/>
<path d="M503.009 1038.17C501.566 1044 498.392 1055.97 497.237 1057.17C495.794 1058.67 472.707 1060.67 465.492 1055.67" stroke="black" stroke-dasharray="6 6"/>
<path d="M469.821 1019.17C476.314 1022 490.455 1027.87 495.073 1028.67C499.691 1029.47 509.022 1030.67 513.11 1031.17C511.186 1053.5 507.05 1101.97 505.895 1117.17C504.452 1136.17 505.895 1198.17 505.895 1200.67C505.895 1203.17 498.681 1212.17 475.593 1203.17" stroke="black" stroke-dasharray="6 6"/>
<path d="M716.732 1025.17C723.029 1023.57 737.318 1014.67 739.739 1016.17C746.399 1023.17 742.161 1201.17 738.528 1206.67C734.895 1212.17 704.018 1214.17 704.018 1206.67C704.018 1199.17 703.413 1173.17 704.018 1152.67C704.623 1132.17 694.331 1029.67 699.175 1028.17C704.018 1026.67 708.862 1027.17 716.732 1025.17Z" fill="#2F3034"/>
<path d="M708.862 1032.67C713.705 1032.17 733.685 1025.17 739.739 1020.67C743.977 1025.17 751.242 1056.17 743.372 1060.17C735.501 1064.17 714.916 1063.67 712.494 1060.17C710.072 1056.67 704.018 1033.17 708.862 1032.67Z" fill="#3B4345"/>
<path d="M710.677 1038.17C711.888 1044 714.552 1055.97 715.52 1057.17C716.731 1058.67 736.105 1060.67 742.16 1055.67" stroke="black" stroke-dasharray="6 6"/>
<path d="M738.528 1019.17C733.079 1022 721.213 1027.87 717.338 1028.67C713.463 1029.47 705.633 1030.67 702.202 1031.17C703.816 1053.5 707.288 1101.97 708.256 1117.17C709.467 1136.17 708.256 1198.17 708.256 1200.67C708.256 1203.17 714.311 1212.17 733.685 1203.17" stroke="black" stroke-dasharray="6 6"/>
<path d="M373.02 1472.5C373.516 1469.3 372.072 1467.09 379.571 1464.09C387.071 1461.09 475.571 1476.59 475.571 1476.59C498.353 1474.74 559.543 1444.87 582.071 1458.59C589.198 1462.93 586.783 1476.68 584.152 1489.55C579.942 1493.84 537.352 1497.59 523.543 1494.38C523.543 1486.87 522.468 1482.04 522.468 1482.04C522.468 1482.04 514.102 1487.45 505.071 1489.55C486.652 1493.84 484.07 1494 427.02 1494C381.263 1489.71 372.523 1475.7 373.02 1472.5Z" fill="#463E35"/>
<path d="M506.427 1336.5C511.302 1336.5 539.745 1351.43 554.503 1339.85C556.125 1338.58 559.426 1339.62 559.429 1341.68C559.456 1361.58 559.75 1396.18 562.73 1409.9C565.887 1424.44 568.552 1422.36 571.709 1435.86C573.895 1445.21 580.974 1467.02 571.709 1467.02H529.455C519.458 1467.02 505.956 1478.63 472.665 1481.89C417.402 1487.31 403.898 1479.89 392.864 1476.39C367.758 1468.43 380.499 1450.21 392.864 1444.39C410.978 1435.86 436.939 1429.46 450.144 1422.39C460.427 1416.89 463.958 1415.18 469.237 1409.39C477.941 1399.85 485.587 1349.66 486.769 1336.55C486.851 1335.64 488.132 1335.17 488.911 1335.65C494.06 1338.82 501.594 1336.5 506.427 1336.5Z" fill="#766464"/>
<path d="M399.257 1461.22C408.587 1464.04 422.822 1468.06 444.236 1463.57" stroke="#BDAFAF" stroke-width="7" stroke-linecap="round"/>
<path d="M463.427 1441C473.218 1432 508.927 1411.89 506.427 1336.5C510.67 1336.5 520.927 1342 536.427 1343C552.704 1342.51 552.437 1341.04 556.748 1338.6C556.865 1338.53 557 1338.43 557.111 1338.36C563.872 1333.81 560.831 1406.51 565.683 1419.39C569.6 1429.79 576.943 1445.39 576.943 1464.39C573.516 1470.39 539.736 1467.39 528.965 1467.39C523.927 1440.5 484.427 1461 475.927 1458.5C468.466 1456.31 463.427 1452 463.427 1441Z" fill="#473E3E"/>
<path d="M475.427 1408.6C486.627 1399.8 490.927 1357 491.427 1336.5C489.427 1336 488.927 1334.6 487.427 1335.1C485.927 1335.6 485.927 1341.6 485.427 1346.6C484.88 1352.08 480.927 1369.1 478.927 1380.6C476.927 1392.1 474.927 1399.1 467.427 1408.6C461.427 1416.2 437.927 1424 430.427 1430.5C431.26 1430.33 433.427 1429.2 435.427 1429.6C437.927 1430.1 437.427 1430.6 440.427 1430.6C443.427 1430.6 461.427 1419.6 475.427 1408.6Z" fill="#473E3E"/>
<path d="M445.427 1426.5L470.927 1439L456.927 1419.5L488.927 1426.5L470.927 1409H496.927L478.927 1395.5L503.927 1392.5L482.927 1382.5L506.427 1375L484.927 1366.5L506.427 1362.5L488.927 1353.5L509.927 1347.5L488.927 1340.5L510.876 1342" stroke="#272222" stroke-width="5" stroke-linecap="round" stroke-linejoin="round"/>
<path d="M495.875 1344C483.542 1355.33 462.375 1379.5 457.375 1391" stroke="#272222" stroke-width="5" stroke-linecap="round"/>
<path d="M457.375 1391C456.375 1392.5 455.875 1393.5 454.875 1395" stroke="#766464" stroke-width="3" stroke-linecap="round"/>
<path d="M499.875 1344.5C503.208 1348.67 510.975 1359.7 515.375 1370.5" stroke="#272222" stroke-width="5" stroke-linecap="round"/>
<path d="M515.875 1371C516.375 1372 517.375 1373.5 517.875 1374.5" stroke="#766464" stroke-width="3" stroke-linecap="round"/>
<path d="M381.778 1486.77C378.237 1485.94 379.431 1479.99 380.858 1476.08C383.788 1476.93 389.708 1480.34 389.655 1482.83C389.523 1489.14 386.204 1487.8 381.778 1486.77Z" fill="#463E35"/>
<path d="M374.652 1480.04C373.346 1479.34 373.905 1472.02 375.87 1468.18C380.527 1469.24 382.886 1474.75 382.886 1474.75C382.886 1474.75 384.33 1478.8 381.176 1481.22C379.898 1481.69 376.635 1481.09 374.652 1480.04Z" fill="#463E35"/>
<path d="M390.11 1491.33C386.158 1490.54 388.078 1482.49 389.532 1478.57C392.808 1479.4 399.232 1482.3 398.715 1487.33C398.069 1493.62 395.05 1492.33 390.11 1491.33Z" fill="#463E35"/>
<path d="M400.983 1494.64C396.606 1494.25 397.791 1486.05 398.931 1482C402.579 1482.49 409.875 1484.72 409.875 1489.78C409.875 1496.1 406.456 1495.12 400.983 1494.64Z" fill="#463E35"/>
<path d="M412.501 1496.64C407.394 1496.25 408.777 1488.05 410.107 1484C414.363 1484.49 422.875 1486.72 422.875 1491.78C422.875 1498.1 418.886 1497.12 412.501 1496.64Z" fill="#463E35"/>
<path d="M424.983 1498.64C420.606 1498.25 421.791 1490.05 422.931 1486C426.579 1486.49 433.875 1488.72 433.875 1493.78C433.875 1500.1 430.456 1499.12 424.983 1498.64Z" fill="#463E35"/>
<path d="M436.501 1499.64C431.394 1499.25 432.777 1491.05 434.107 1487C438.363 1487.49 446.875 1489.72 446.875 1494.78C446.875 1501.1 442.886 1500.12 436.501 1499.64Z" fill="#463E35"/>
<path d="M449.501 1500.64C444.394 1500.25 445.777 1492.05 447.107 1488C451.363 1488.49 459.875 1490.72 459.875 1495.78C459.875 1502.1 455.886 1501.12 449.501 1500.64Z" fill="#463E35"/>
<path d="M462.708 1501.27C458.314 1501.37 458.575 1493.09 459.254 1488.94C460.731 1488.97 466.627 1487.28 468.639 1487.88C471.64 1488.79 470.661 1492.44 471 1495.45C471.707 1501.73 468.2 1501.14 462.708 1501.27Z" fill="#463E35"/>
<path d="M474.415 1500.27C470.021 1500.37 470.282 1492.09 470.961 1487.94C472.438 1487.97 478.334 1486.28 480.346 1486.88C483.347 1487.79 482.368 1491.44 482.707 1494.45C483.414 1500.73 479.907 1500.14 474.415 1500.27Z" fill="#463E35"/>
<path d="M485.415 1498.92C481.021 1499.02 481.282 1490.74 481.961 1486.59C483.438 1486.62 489.334 1484.92 491.346 1485.53C494.347 1486.44 493.368 1490.08 493.707 1493.09C494.414 1499.37 490.907 1498.79 485.415 1498.92Z" fill="#463E35"/>
<path d="M496.415 1496.92C492.021 1497.02 492.282 1488.74 492.961 1484.59C494.438 1484.62 500.334 1482.92 502.346 1483.53C505.347 1484.44 504.368 1488.08 504.707 1491.09C505.414 1497.37 501.907 1496.79 496.415 1496.92Z" fill="#463E35"/>
<path d="M506.415 1493.92C502.021 1494.02 502.282 1485.74 502.961 1481.59C504.438 1481.62 510.334 1479.92 512.346 1480.53C515.347 1481.44 514.368 1485.08 514.707 1488.09C515.414 1494.37 511.907 1493.79 506.415 1493.92Z" fill="#463E35"/>
<path d="M516.415 1491.92C512.021 1492.02 512.282 1483.74 512.961 1479.59C514.438 1479.62 520.334 1477.92 522.346 1478.53C525.347 1479.44 524.368 1483.08 524.707 1486.09C525.414 1492.37 521.907 1491.79 516.415 1491.92Z" fill="#463E35"/>
<path d="M377.426 1471C382.926 1477.5 402.926 1489.5 427.426 1489.5C460.941 1489.5 486.426 1485 501.926 1480.5C514.326 1476.9 522.759 1474.33 525.426 1473.5C533.259 1474.17 551.426 1475.1 561.426 1473.5C573.926 1471.5 578.926 1470 582.926 1465.5" stroke="#67513B"/>
<path d="M490.484 1341C480.484 1341.17 458.736 1361 464.984 1373.5C474.983 1393.5 491.484 1358 494.484 1344" stroke="#272222" stroke-width="5" stroke-linecap="round"/>
<path d="M497.628 1344C495.961 1351.83 496.247 1408 507.128 1408C533.127 1408 540.627 1377.5 504.127 1345.5" stroke="#272222" stroke-width="5" stroke-linecap="round"/>
<path d="M826.855 1472.5C826.358 1469.3 827.804 1467.09 820.297 1464.09C812.789 1461.09 724.195 1476.59 724.195 1476.59C701.388 1474.74 640.134 1444.87 617.581 1458.59C610.446 1462.93 612.864 1476.68 615.498 1489.55C619.713 1493.84 662.348 1497.59 676.172 1494.38C676.172 1486.87 677.248 1482.04 677.248 1482.04C677.248 1482.04 685.623 1487.45 694.663 1489.55C713.102 1493.84 715.687 1494 772.798 1494C818.603 1489.71 827.353 1475.7 826.855 1472.5Z" fill="#463E35"/>
<path d="M693.307 1336.5C688.426 1336.5 659.942 1351.43 645.171 1339.84C643.549 1338.57 640.251 1339.61 640.248 1341.68C640.222 1361.57 639.927 1396.18 636.943 1409.9C633.783 1424.44 631.115 1422.36 627.955 1435.86C625.767 1445.21 618.68 1467.02 627.955 1467.02H670.254C680.262 1467.02 693.779 1478.63 727.105 1481.89C782.426 1487.31 795.945 1479.89 806.991 1476.39C832.124 1468.43 819.369 1450.21 806.991 1444.39C788.857 1435.86 762.869 1429.46 749.65 1422.39C739.356 1416.89 735.821 1415.18 730.536 1409.39C721.823 1399.85 714.168 1349.66 712.986 1336.55C712.904 1335.64 711.623 1335.17 710.845 1335.65C705.69 1338.82 698.146 1336.5 693.307 1336.5Z" fill="#766464"/>
<path d="M800.59 1461.22C791.25 1464.04 777 1468.06 755.563 1463.57" stroke="#BDAFAF" stroke-width="7" stroke-linecap="round"/>
<path d="M736.352 1441C726.55 1432 690.804 1411.89 693.306 1336.5C689.059 1336.5 678.791 1342 663.274 1343C646.979 1342.51 647.247 1341.04 642.932 1338.6C642.815 1338.53 642.679 1338.43 642.568 1338.36C635.8 1333.81 638.844 1406.51 633.987 1419.39C630.066 1429.79 622.714 1445.39 622.714 1464.39C626.145 1470.39 659.962 1467.39 670.744 1467.39C675.788 1440.5 715.33 1461 723.839 1458.5C731.307 1456.31 736.352 1452 736.352 1441Z" fill="#473E3E"/>
<path d="M724.34 1408.6C713.128 1399.8 708.824 1357 708.323 1336.5C710.325 1336 710.826 1334.6 712.327 1335.1C713.829 1335.6 713.829 1341.6 714.33 1346.6C714.877 1352.08 718.834 1369.1 720.837 1380.6C722.839 1392.1 724.841 1399.1 732.349 1408.6C738.355 1416.2 761.88 1424 769.388 1430.5C768.554 1430.33 766.385 1429.2 764.383 1429.6C761.88 1430.1 762.381 1430.6 759.378 1430.6C756.374 1430.6 738.355 1419.6 724.34 1408.6Z" fill="#473E3E"/>
<path d="M754.372 1426.5L728.844 1439L742.859 1419.5L710.825 1426.5L728.844 1409H702.817L720.836 1395.5L695.809 1392.5L716.832 1382.5L693.307 1375L714.83 1366.5L693.307 1362.5L710.825 1353.5L689.803 1347.5L710.825 1340.5L688.853 1342" stroke="#272222" stroke-width="5" stroke-linecap="round" stroke-linejoin="round"/>
<path d="M703.869 1344C716.215 1355.33 737.404 1379.5 742.41 1391" stroke="#272222" stroke-width="5" stroke-linecap="round"/>
<path d="M742.41 1391C743.411 1392.5 743.912 1393.5 744.913 1395" stroke="#766464" stroke-width="3" stroke-linecap="round"/>
<path d="M699.864 1344.5C696.527 1348.67 688.752 1359.7 684.348 1370.5" stroke="#272222" stroke-width="5" stroke-linecap="round"/>
<path d="M683.848 1371C683.347 1372 682.346 1373.5 681.846 1374.5" stroke="#766464" stroke-width="3" stroke-linecap="round"/>
<path d="M818.088 1486.77C821.632 1485.94 820.437 1479.99 819.009 1476.08C816.076 1476.93 810.15 1480.34 810.202 1482.83C810.335 1489.14 813.658 1487.8 818.088 1486.77Z" fill="#463E35"/>
<path d="M825.221 1480.04C826.528 1479.34 825.969 1472.02 824.002 1468.18C819.34 1469.24 816.978 1474.75 816.978 1474.75C816.978 1474.75 815.533 1478.8 818.69 1481.22C819.97 1481.69 823.237 1481.09 825.221 1480.04Z" fill="#463E35"/>
<path d="M809.748 1491.33C813.704 1490.54 811.782 1482.49 810.327 1478.57C807.047 1479.4 800.616 1482.3 801.133 1487.33C801.78 1493.62 804.802 1492.33 809.748 1491.33Z" fill="#463E35"/>
<path d="M798.861 1494.64C803.244 1494.25 802.057 1486.05 800.916 1482C797.264 1482.49 789.96 1484.72 789.96 1489.78C789.96 1496.1 793.383 1495.12 798.861 1494.64Z" fill="#463E35"/>
<path d="M787.333 1496.64C792.445 1496.25 791.061 1488.05 789.729 1484C785.469 1484.49 776.948 1486.72 776.948 1491.78C776.948 1498.1 780.941 1497.12 787.333 1496.64Z" fill="#463E35"/>
<path d="M774.837 1498.64C779.22 1498.25 778.033 1490.05 776.891 1486C773.24 1486.49 765.936 1488.72 765.936 1493.78C765.936 1500.1 769.359 1499.12 774.837 1498.64Z" fill="#463E35"/>
<path d="M763.306 1499.64C768.419 1499.25 767.034 1491.05 765.702 1487C761.442 1487.49 752.921 1489.72 752.921 1494.78C752.921 1501.1 756.915 1500.12 763.306 1499.64Z" fill="#463E35"/>
<path d="M750.292 1500.64C755.405 1500.25 754.02 1492.05 752.689 1488C748.428 1488.49 739.907 1490.72 739.907 1495.78C739.907 1502.1 743.901 1501.12 750.292 1500.64Z" fill="#463E35"/>
<path d="M737.073 1501.27C741.471 1501.37 741.21 1493.09 740.53 1488.94C739.051 1488.97 733.15 1487.28 731.135 1487.88C728.13 1488.79 729.111 1492.44 728.772 1495.45C728.064 1501.73 731.574 1501.14 737.073 1501.27Z" fill="#463E35"/>
<path d="M725.353 1500.27C729.752 1500.37 729.491 1492.09 728.81 1487.94C727.332 1487.97 721.43 1486.28 719.416 1486.88C716.411 1487.79 717.392 1491.44 717.053 1494.45C716.345 1500.73 719.855 1500.14 725.353 1500.27Z" fill="#463E35"/>
<path d="M714.341 1498.92C718.739 1499.02 718.478 1490.74 717.798 1486.59C716.319 1486.62 710.418 1484.92 708.403 1485.53C705.398 1486.44 706.379 1490.08 706.04 1493.09C705.332 1499.37 708.842 1498.79 714.341 1498.92Z" fill="#463E35"/>
<path d="M703.33 1496.92C707.728 1497.02 707.467 1488.74 706.787 1484.59C705.309 1484.62 699.407 1482.92 697.393 1483.53C694.388 1484.44 695.368 1488.08 695.029 1491.09C694.321 1497.37 697.832 1496.79 703.33 1496.92Z" fill="#463E35"/>
<path d="M693.319 1493.92C697.717 1494.02 697.456 1485.74 696.776 1481.59C695.297 1481.62 689.396 1479.92 687.381 1480.53C684.376 1481.44 685.357 1485.08 685.018 1488.09C684.31 1494.37 687.821 1493.79 693.319 1493.92Z" fill="#463E35"/>
<path d="M683.307 1491.92C687.706 1492.02 687.445 1483.74 686.764 1479.59C685.286 1479.62 679.384 1477.92 677.37 1478.53C674.365 1479.44 675.346 1483.08 675.007 1486.09C674.299 1492.37 677.809 1491.79 683.307 1491.92Z" fill="#463E35"/>
<path d="M822.445 1471C816.939 1477.5 796.918 1489.5 772.392 1489.5C738.841 1489.5 713.329 1485 697.812 1480.5C685.399 1476.9 676.957 1474.33 674.287 1473.5C666.445 1474.17 648.259 1475.1 638.249 1473.5C625.736 1471.5 620.73 1470 616.726 1465.5" stroke="#67513B"/>
<path d="M709.266 1341C719.277 1341.17 741.047 1361 734.793 1373.5C724.783 1393.5 708.265 1358 705.261 1344" stroke="#272222" stroke-width="5" stroke-linecap="round"/>
<path d="M702.115 1344C703.783 1351.83 703.497 1408 692.604 1408C666.578 1408 659.07 1377.5 695.609 1345.5" stroke="#272222" stroke-width="5" stroke-linecap="round"/>
</svg>
