<svg width="1200" height="1600" viewBox="0 0 1200 1600" fill="none" xmlns="http://www.w3.org/2000/svg">
<path d="M686.547 1102.85C698.955 1160.52 693.956 1308.18 693.956 1382.76" stroke="#EBBAAA" stroke-width="57" stroke-linecap="round" stroke-linejoin="bevel"/>
<path d="M561.609 1178.4C555.405 1278.34 546.1 1324.59 549.202 1393.7" stroke="#EBBAAA" stroke-width="57" stroke-linecap="round" stroke-linejoin="bevel"/>
<path d="M798.81 697.832C836.032 752.753 848.233 905.759 834.998 967.068" stroke="#EBBAAA" stroke-width="70" stroke-linecap="round" stroke-linejoin="bevel"/>
<path d="M479.315 639.21C371.576 679.714 313.882 839.123 446.435 967.067" stroke="#EBBAAA" stroke-width="70" stroke-linecap="round" stroke-linejoin="bevel"/>
<path d="M450.75 587.77C489.35 554.942 547.785 562.231 577.137 603.536C607.241 645.898 593.399 705.059 547.626 729.668L431.201 792.263L326 719.63L420.177 613.77L450.75 587.77Z" fill="#11151D"/>
<path d="M745.114 587.77C706.514 554.942 648.08 562.231 618.727 603.536C588.623 645.898 602.465 705.059 648.238 729.668L764.663 792.263L874 725.834L775.687 613.77L745.114 587.77Z" fill="#11151D"/>
<path d="M445.52 947.313L603.804 958.21L595.864 1324.69H546.426L489.149 1318.89L445.52 947.313Z" fill="#3A4061"/>
<path d="M608.766 956.427L770.913 961.752L748.316 1319.61L643.426 1319.61L608.766 956.427Z" fill="#3A4061"/>
<rect x="555.126" y="970.651" width="113.734" height="122.053" fill="#3A4061"/>
<path d="M409.45 695.477C401.409 623.761 457.531 560.996 529.696 560.996H667.335C736.315 560.996 791.338 618.573 788.211 687.482L773.394 1013.98C773.151 1019.32 768.751 1023.53 763.404 1023.53H669.564H455.17C450.078 1023.53 445.799 1019.7 445.232 1014.64L409.45 695.477Z" fill="#11151D"/>
<mask id="mask0" mask-type="alpha" maskUnits="userSpaceOnUse" x="414" y="550" width="340" height="158">
<path d="M415.718 674.682C404.627 615.611 449.942 560.996 510.045 560.996L541.064 556.86C567.832 547.173 597.275 547.976 623.475 559.109L627.917 560.996H656.453C723.386 560.996 770.053 627.391 747.385 690.368C746.559 692.662 744.767 694.44 742.43 695.137C724.785 700.401 646.516 721.023 582.711 694C524.362 669.287 453.917 684.42 428.802 691.215C423.758 692.579 418.484 689.414 417.52 684.278L415.718 674.682Z" fill="#11151D"/>
</mask>
<g mask="url(#mask0)">
<ellipse cx="586.861" cy="566.895" rx="78.7809" ry="47.9072" fill="#EBBAAA"/>
<path d="M586.861 622.302C609.759 622.302 630.851 616.674 646.465 607.179C661.944 597.765 673.142 583.744 673.142 566.895C673.142 550.046 661.944 536.025 646.465 526.611C630.851 517.116 609.759 511.488 586.861 511.488C563.963 511.488 542.872 517.116 527.258 526.611C511.778 536.025 500.58 550.046 500.58 566.895C500.58 583.744 511.778 597.765 527.258 607.179C542.872 616.674 563.963 622.302 586.861 622.302Z" stroke="white" stroke-opacity="0.29" stroke-width="15"/>
</g>
<rect x="540.919" y="492.396" width="94.8513" height="107.297" fill="#EBBAAA"/>
<path d="M644.416 375.44C644.416 408.175 657.571 440.996 692.532 440.996C727.493 440.996 771.02 408.175 771.02 375.44C771.02 342.705 742.678 316.168 707.718 316.168C672.757 316.168 644.416 342.705 644.416 375.44Z" fill="#EBBAAA"/>
<path d="M538.102 385.305C538.102 418.04 524.947 450.86 489.986 450.86C436.159 448.8 408.795 399.603 408.795 366.868C408.795 334.133 439.839 326.033 474.8 326.033C509.761 326.033 538.102 352.57 538.102 385.305Z" fill="#EBBAAA"/>
<path d="M444.414 281.814C444.414 209.38 505.782 150.662 581.483 150.662H594.538C670.239 150.662 731.607 209.38 731.607 281.814C731.607 281.814 750.686 333.981 731.607 409.768C712.529 485.554 694.324 556.699 615.885 567.2H558.563C558.267 567.2 557.968 567.174 557.677 567.12C495.006 555.499 461.517 472.477 444.414 409.768C427.271 346.912 444.414 281.814 444.414 281.814Z" fill="#F4D6CD"/>
<path d="M466.759 284.625C461.274 302.926 445.162 364.625 441.353 380.639C432.973 367.675 423.795 310.248 425.623 284.625C427.909 252.597 432.943 213.376 476.364 172.197C519.785 131.019 446.678 122.266 570.453 135.571C584.106 137.039 645.803 129.901 664.375 144.265C723.196 155.268 732.345 218.234 740.877 251.43C749.41 284.625 743.009 360.817 732.345 374.544C732.345 374.544 728.339 335.741 722.714 309.79C717.088 283.84 703.643 266.568 689.931 241.404C676.219 216.24 628.316 215.996 600.892 215.996C600.892 215.996 558.172 199.981 526.177 215.996C494.183 232.011 512.465 259.461 512.465 259.461C499.515 260.224 472.244 266.324 466.759 284.625Z" fill="black"/>
<path d="M709.523 153.913C715.445 183.263 677.222 192.337 667.153 196.279L667.23 198.778C714.558 197.82 684.268 235.651 681.7 225.996C678.929 215.582 667.441 205.645 667.441 205.645L659.098 201.825C641.148 204.137 609.263 205.477 654.595 199.764L623.814 185.673C624.634 181.631 644.455 184.426 666.753 179.194C668.702 173.059 684.04 175.996 709.523 153.913Z" fill="black"/>
<path d="M673.586 134.999C673.586 163.288 639.423 164.449 619.691 163.288L595.678 173.9C584.303 178.927 624.24 227.137 662.019 216.142C692.242 207.346 697.201 187.874 698.633 178.012C701.373 159.141 698.633 149.235 673.586 134.999Z" fill="black"/>
<path d="M705.406 232.193C705.406 260.482 681.909 207.217 662.178 206.057C657.965 207.918 519.473 202.035 510.373 206.056C498.998 211.083 555.935 278.247 662.178 265.587C703.637 260.647 723.002 261.064 731.287 262.823C731.247 263.641 731.153 264.557 731.004 265.587C730.13 271.601 744.235 265.573 731.287 262.823C731.994 248.662 716.93 264.154 705.406 232.193Z" fill="black"/>
<path d="M630.291 331.894L676.595 327.202L698.827 331.894" stroke="#6F6C6C" stroke-width="16.2468" stroke-linecap="round"/>
<path d="M551.059 331.894L508.075 327.202L485.843 331.894" stroke="#6F6C6C" stroke-width="16.2468" stroke-linecap="round"/>
<path d="M559.78 494.605C577.272 503.954 604.003 503.379 622.069 495.799" stroke="#C99584" stroke-width="15.6368" stroke-linecap="round"/>
<path d="M587.627 378.201C583.635 395.041 569.354 409.9 574.437 427.875C579.519 445.851 604.347 440.383 604.347 440.383" stroke="#EBBAAA" stroke-width="17.7217"/>
<rect x="517.128" y="706.062" width="34.4676" height="186.97" fill="#B5EDBE"/>
<rect x="567.796" y="706.062" width="34.4676" height="186.97" fill="#B5EDBE"/>
<rect x="618.464" y="706.062" width="34.4676" height="186.97" fill="#B5EDBE"/>
<rect x="669.132" y="706.062" width="34.4676" height="186.97" fill="#B5EDBE"/>
<rect x="576.003" y="795.55" width="65.598" height="42.378" fill="#11151D"/>
<path d="M665.6 818.738C665.6 815.219 662.493 812.341 658.696 812.341H652.136H651.791V837.928H652.136H658.696C662.493 837.928 665.6 835.05 665.6 831.531V818.738Z" fill="#EE7061"/>
<path d="M562.03 812.341C558.233 812.341 555.126 815.219 555.126 818.738V831.531C555.126 835.05 558.233 837.928 562.03 837.928H568.244H568.935V812.341H568.244H562.03Z" fill="#EE7061"/>
<path d="M595.865 786.751H588.96C581.365 786.751 575.496 792.509 575.496 799.545V850.721H644.543V799.545C644.543 792.509 638.328 786.751 630.733 786.751H623.829C623.829 780.674 618.995 775.877 613.126 774.277V760.844C615.198 759.564 616.579 757.645 616.579 755.086C616.579 751.248 613.472 748.37 609.329 748.37C605.186 748.37 602.424 751.248 602.424 755.086C602.424 757.645 603.805 759.884 605.877 760.844V773.958C600.698 775.557 596.21 780.674 595.865 786.751ZM596.555 799.545C600.353 799.545 603.46 802.424 603.46 805.942C603.46 809.461 600.353 812.339 596.555 812.339C592.758 812.339 589.651 809.461 589.651 805.942C589.651 802.424 592.758 799.545 596.555 799.545ZM624.174 799.545C627.971 799.545 631.078 802.424 631.078 805.942C631.078 809.461 627.971 812.339 624.174 812.339C620.376 812.339 617.269 809.461 617.269 805.942C617.269 802.424 620.376 799.545 624.174 799.545ZM631.078 831.53V837.927H589.651V831.53H631.078Z" fill="#EE7061"/>
<path d="M489.669 1318.91L544.724 1322.97L596.987 1318.91L586.333 1350.98H544.724H511.149L489.669 1318.91Z" fill="#646985"/>
<path d="M748.67 1318.79H643.426L662.084 1349.56H701.551H731.424L748.67 1318.79Z" fill="#646985"/>
<path d="M401.514 1472.69C401.306 1448.96 404.539 1434.52 425.166 1424.83C445.793 1415.13 465.223 1396.49 500.909 1380.5C500.909 1380.5 505.606 1379.62 513.252 1383.76C519.777 1387.28 528.158 1395.94 540.786 1395.83C554.5 1395.71 566.72 1392.8 574.312 1388.82C577.592 1379.83 584.869 1379.77 584.869 1379.77C584.869 1379.77 595.115 1399.27 595.286 1418.86C595.457 1438.46 595.439 1470.99 595.439 1470.99L401.514 1472.69Z" fill="#161616"/>
<path d="M494.602 1384.5C496.841 1389.53 496.841 1395.69 496.841 1399.61L477.809 1391.21L482.287 1407.45L464.935 1401.85V1418.08L451.501 1410.81V1424.8" stroke="white" stroke-width="5.41368" stroke-linecap="round" stroke-linejoin="round"/>
<path d="M409.317 1426.64C415.646 1424.35 422.348 1422.61 435.197 1419.7L429.737 1435.42L429.893 1453.33L393.319 1453.65C391.827 1453.67 389.16 1451.67 390.433 1443.6C392.024 1433.51 400.325 1429.9 409.317 1426.64Z" fill="#161616"/>
<path d="M596.06 1468.09L594.99 1449.09L430.998 1451.64L390.108 1448.64L388.833 1463.39C388.416 1468.22 392.035 1472.45 396.865 1472.78L431.203 1475.15L591.804 1472.66C594.264 1472.62 596.199 1470.55 596.06 1468.09Z" fill="#808080"/>
<path d="M835.414 1474.76C835.621 1451.03 832.389 1436.59 811.762 1426.9C791.135 1417.2 771.705 1398.56 736.019 1382.57C736.019 1382.57 731.322 1381.69 723.676 1385.82C717.151 1389.35 708.77 1398.01 696.141 1397.9C682.428 1397.78 670.208 1394.87 662.616 1390.89C659.336 1381.9 652.059 1381.84 652.059 1381.84C652.059 1381.84 641.813 1401.34 641.642 1420.93C641.471 1440.52 641.489 1473.06 641.489 1473.06L835.414 1474.76Z" fill="#161616"/>
<path d="M742.326 1386.56C740.087 1391.6 740.087 1397.76 740.087 1401.68L759.118 1393.28L754.64 1409.51L771.993 1403.92V1420.15L785.427 1412.87V1426.87" stroke="white" stroke-width="5.41368" stroke-linecap="round" stroke-linejoin="round"/>
<path d="M827.611 1428.71C821.282 1426.42 814.58 1424.68 801.73 1421.77L807.191 1437.49L807.035 1455.4L843.608 1455.72C845.101 1455.73 847.768 1453.74 846.495 1445.67C844.904 1435.58 836.603 1431.97 827.611 1428.71Z" fill="#161616"/>
<path d="M640.867 1470.16L641.938 1451.16L805.93 1453.71L846.82 1450.71L848.095 1465.46C848.512 1470.28 844.893 1474.51 840.062 1474.85L805.725 1477.22L645.124 1474.73C642.663 1474.69 640.729 1472.61 640.867 1470.16Z" fill="#808080"/>
<path d="M524.311 370.296L523.945 388.503" stroke="black" stroke-width="24.6388" stroke-linecap="round"/>
<path d="M651.298 370.296L650.932 388.503" stroke="black" stroke-width="24.6388" stroke-linecap="round"/>
</svg>
