<svg width="1200" height="1600" viewBox="0 0 1200 1600" fill="none" xmlns="http://www.w3.org/2000/svg">
<path d="M669.238 1130.29C681.238 1190.19 676.403 1343.52 676.403 1420.97" stroke="#EBBAAA" stroke-width="57" stroke-linecap="round" stroke-linejoin="bevel"/>
<path d="M548.403 1208.75C542.403 1312.54 533.403 1360.56 536.403 1432.33" stroke="#EBBAAA" stroke-width="57" stroke-linecap="round" stroke-linejoin="bevel"/>
<path d="M584.418 1107.97C648.201 1107.97 699.908 1082.68 699.908 1051.48C699.908 1020.27 648.201 994.98 584.418 994.98C520.634 994.98 468.927 1020.27 468.927 1051.48C468.927 1082.68 520.634 1107.97 584.418 1107.97Z" fill="#2E2E2D"/>
<path d="M460.273 988.26H595.273L585.273 1353.33L582.273 1388.96L505.773 1384.83L500.273 1353.33L460.273 988.26Z" fill="#2E2E2D"/>
<path d="M593.988 994.478H729.445L714.773 1349.71L713.273 1381.73L634.773 1388.44L630.273 1359.01L593.988 994.478Z" fill="#2E2E2D"/>
<g filter="url(#filter0_i)">
<path fill-rule="evenodd" clip-rule="evenodd" d="M592.39 651.958C630.636 651.958 661.64 627.12 661.64 596.48C661.64 594.574 661.52 592.689 661.286 590.832L644.04 587.263C641.577 586.753 639.069 586.496 636.554 586.496H532.188C529.599 586.496 527.017 586.768 524.485 587.308L524.063 587.398C523.455 590.354 523.139 593.387 523.139 596.48C523.139 627.12 554.144 651.958 592.39 651.958Z" fill="#EBBAAA"/>
</g>
<path d="M430.566 737.183C398.859 799.258 372.859 963.258 398.859 980.258" stroke="#EBBAAA" stroke-width="74" stroke-linecap="round" stroke-linejoin="bevel"/>
<path d="M745.581 712.445C790.933 792.842 807.35 941.906 790.859 987.258" stroke="#EBBAAA" stroke-width="74" stroke-linecap="round" stroke-linejoin="bevel"/>
<path d="M427.859 645.76C427.859 622.26 479.359 598.275 515.359 586.87L562.359 571.276C568.904 571.069 613.876 572.939 620.359 573.836L693.359 598.275C727.95 603.058 781.343 618.014 777.859 652.76L740.407 805.559L743.859 1002.26C743.931 1004.07 661.173 1014.35 659.359 1014.26L521.859 1005.54L447.359 1002.19C445.617 1002.1 444.715 997.002 444.859 995.26L454.867 787.14L427.859 645.76Z" fill="#EBBAAA"/>
<path d="M769.359 621.76C760.159 612.56 729.859 603.26 715.859 599.76C724.692 717.76 743.159 956.76 746.359 968.76C750.359 983.76 837.859 989.76 845.859 983.76C853.859 977.76 862.859 921.26 860.859 890.26C858.859 859.26 780.859 633.26 769.359 621.76Z" fill="#565885"/>
<path d="M424.777 624.243C433.389 615.05 461.753 605.757 474.859 602.26C466.59 720.168 449.303 958.983 446.308 970.974C442.563 985.962 360.654 991.958 353.165 985.962C345.676 979.967 337.251 923.511 339.123 892.535C340.996 861.559 414.012 635.734 424.777 624.243Z" fill="#565885"/>
<path d="M447.605 970.974C443.773 985.963 359.946 991.958 352.282 985.963C350.58 984.631 347.159 975.331 347.159 975.331L448.757 962.604C448.757 962.604 447.878 969.905 447.605 970.974Z" fill="white"/>
<path d="M746.794 969.974C750.825 984.963 839.02 990.958 847.084 984.963C848.875 983.631 852.474 974.331 852.474 974.331L745.582 961.604C745.582 961.604 746.506 968.905 746.794 969.974Z" fill="white"/>
<path fill-rule="evenodd" clip-rule="evenodd" d="M577.359 627.76C577.359 627.76 574.859 647.76 579.859 662.26C583.466 672.719 585.771 676.674 586.777 678.067C600.156 670.12 601.611 663.982 598.859 661.76C585.859 651.26 588.025 642.926 590.359 634.76L594.859 631.76L627.859 627.76L658.859 585.76C658.859 585.76 703.359 591.76 718.359 599.76C733.359 607.76 742.359 695.26 742.359 695.26L749.359 1006.76L711.359 1017.26H565.359H564.859C564.859 1017.26 564.859 1017.26 564.859 1017.25L515.859 1016.76L441.859 1005.26L447.359 706.76C448.192 695.405 448.62 684.676 449.018 674.698C450.53 636.784 451.611 609.703 472.859 600.26C475.978 598.873 478.69 597.641 481.132 596.532C496.302 589.638 501.013 587.497 527.859 582.76L554.859 635.26L577.359 627.76Z" fill="#494B7E"/>
<mask id="mask0" mask-type="alpha" maskUnits="userSpaceOnUse" x="441" y="582" width="309" height="436">
<path fill-rule="evenodd" clip-rule="evenodd" d="M577.359 627.76C577.359 627.76 574.859 647.76 579.859 662.26C583.466 672.719 585.771 676.674 586.777 678.067C600.156 670.12 601.611 663.982 598.859 661.76C585.859 651.26 588.025 642.926 590.359 634.76L594.859 631.76L627.859 627.76L658.859 585.76C658.859 585.76 703.359 591.76 718.359 599.76C733.359 607.76 742.359 695.26 742.359 695.26L749.359 1006.76L711.359 1017.26H565.359H564.859C564.859 1017.26 564.859 1017.26 564.859 1017.25L515.859 1016.76L441.859 1005.26L447.359 706.76C448.192 695.405 448.62 684.676 449.018 674.698C450.53 636.784 451.611 609.703 472.859 600.26C475.978 598.873 478.69 597.641 481.132 596.532C496.302 589.638 501.013 587.497 527.859 582.76L554.859 635.26L577.359 627.76Z" fill="#494B7E"/>
</mask>
<g mask="url(#mask0)">
<path d="M660.038 608.312C660.038 648.9 641.981 701.463 594.001 701.463C546.022 701.463 522.84 627.94 522.84 587.351C522.84 546.762 546.022 540.218 594.001 540.218C641.981 540.218 660.038 567.723 660.038 608.312Z" fill="#D0D0D0"/>
</g>
<path d="M631.859 599.76C635.298 588.383 631.859 580.26 630.859 575.26L658.859 585.76C658.859 585.76 668.359 597.76 662.359 625.26C655.786 655.386 626.716 667.26 619.859 675.26C616.859 678.76 617.859 636.26 594.859 631.76C605.359 629.26 625.359 621.26 631.859 599.76Z" fill="white"/>
<path d="M551.911 605.76C544.859 595.76 548.516 581.733 551.911 574.26L527.359 582.76C527.359 582.76 513.241 607.068 520.873 630.561C530.359 659.76 564.153 670.311 563.859 666.76C560.859 630.561 572.848 631.91 577.859 627.26C569.359 625.26 561.283 619.049 551.911 605.76Z" fill="white"/>
<path d="M714.324 477.604C743.192 477.604 764.075 444.555 766.594 420.06C769.113 395.566 743.192 370.825 714.324 370.825C685.456 370.825 662.054 392.868 662.054 420.06C662.054 447.253 685.456 477.604 714.324 477.604Z" fill="#EBBAAA"/>
<path d="M469.924 483.251C441.056 483.251 420.173 450.202 417.654 425.707C415.135 401.213 441.056 376.472 469.924 376.472C498.792 376.472 522.194 398.515 522.194 425.707C522.194 452.9 498.792 483.251 469.924 483.251Z" fill="#EBBAAA"/>
<path d="M445.951 345.362C445.951 262.696 509.949 195.681 588.894 195.681C667.84 195.681 731.838 262.696 731.838 345.362L722.163 461.078C710.71 533.13 655.687 587.716 588.894 587.716C522.102 587.716 469.292 525.944 455.626 461.078L445.951 345.362Z" fill="#F4D4C9"/>
<path d="M692.471 310.1L683.448 234.365C682.084 222.921 671.942 220.002 704.476 243.982C737.009 267.962 742.21 344.479 733.868 378.245L727.623 420.959L724.141 415.909L720.846 366.631C704.454 350.131 695.359 334.335 692.471 310.1Z" fill="#6E6C6C"/>
<path d="M460.65 316.949C461.994 292.582 459.248 293.837 460.144 277.592C460.779 266.085 460.869 263.17 449.254 290.23C437.639 317.29 437.133 351.381 439.547 384.102L442.415 414.261L446.997 414.514L449.066 377C457.164 351.005 459.306 341.317 460.65 316.949Z" fill="#6E6C6C"/>
<path fill-rule="evenodd" clip-rule="evenodd" d="M588.904 178.116L588.904 178.116C588.837 178.116 588.771 178.116 588.705 178.116C588.639 178.116 588.572 178.116 588.506 178.116L588.506 178.116C546.215 178.268 444.955 202.629 441.15 316.631C452.394 302.589 443.639 311.237 459.064 302.073C473.867 293.279 488.908 275.386 524.417 270.677C559.927 265.967 565.717 273.031 584.86 273.031C600.296 273.031 610.926 266.36 636.236 268.322C661.546 270.284 670.823 286.164 683.079 292.262C705.481 303.407 713.968 300.02 735.863 316.632C732.057 202.629 631.193 178.268 588.904 178.116Z" fill="#272727"/>
<path d="M626.399 377.71L661.579 377.709" stroke="#393939" stroke-width="18.4652" stroke-linecap="round"/>
<path d="M548.234 376.472L509.724 379.574" stroke="#393939" stroke-width="18.4652" stroke-linecap="round"/>
<path d="M587.124 412.249L576.292 452.328C572.169 467.582 583.658 482.589 599.461 482.589H606.135" stroke="#EBBAAA" stroke-width="17.4393"/>
<path d="M511.904 418.569C515.244 416.827 524.711 414.387 535.864 418.569" stroke="#393939" stroke-width="12" stroke-linecap="round"/>
<path d="M638.964 418.569C642.304 416.827 651.772 414.387 662.924 418.569" stroke="#393939" stroke-width="12" stroke-linecap="round"/>
<path d="M563.131 529.352C580.284 536.496 598.891 531.304 609.775 531.304" stroke="#C99584" stroke-width="15.6368" stroke-linecap="round"/>
<path d="M478.938 212.618L470.225 244.648L585.076 226.241L716.332 251.073L716.055 237.893L706.693 233.866L706.475 223.511L694.672 223.776L694.336 207.773L679.161 208.114L675.532 195.952L662.043 196.255L653.777 184.198L639.946 188.276L635.573 180.84L621.241 181.162L621.063 172.69L601.851 181.598L596.615 173.24L588.362 181.902L579.754 173.619L563.914 182.452L553.619 174.207L542.838 182.926L535.25 183.097L526.978 190.817L523.448 183.362L509.452 199.688L500.1 196.131L488.261 214.763L478.938 212.618Z" fill="#272727"/>
<path fill-rule="evenodd" clip-rule="evenodd" d="M703.958 1423.74C703.958 1423.74 707.057 1436.88 731.964 1436.88V1458.35H670.964L703.958 1423.74Z" fill="#EBBAAA"/>
<path d="M803.512 1486.02C803.512 1456.96 774.631 1436.88 731.964 1436.88V1448.16C649.857 1448.16 649.857 1433.41 649.857 1433.41C641.478 1433.41 641.478 1486.02 641.478 1486.02H803.512Z" fill="#2E2E2D"/>
<path d="M807.964 1490.56C807.964 1482.28 800.47 1481.97 783.242 1481.97H641.964C640.308 1481.97 638.964 1483.32 638.964 1484.97V1487.56C638.964 1489.22 640.308 1490.56 641.964 1490.56H807.964Z" fill="#BF9176"/>
<path fill-rule="evenodd" clip-rule="evenodd" d="M510.865 1423.74C510.865 1423.74 507.766 1436.88 482.859 1436.88V1458.35H543.859L510.865 1423.74Z" fill="#EBBAAA"/>
<path d="M411.311 1486.02C411.311 1456.96 440.193 1436.88 482.859 1436.88V1448.16C564.966 1448.16 564.966 1433.41 564.966 1433.41C573.345 1433.41 573.345 1486.02 573.345 1486.02H411.311Z" fill="#2E2E2D"/>
<path d="M406.859 1490.56C406.859 1482.28 414.353 1481.97 431.581 1481.97H572.859C574.516 1481.97 575.859 1483.32 575.859 1484.97V1487.56C575.859 1489.22 574.516 1490.56 572.859 1490.56H406.859Z" fill="#BF9176"/>
<defs>
<filter id="filter0_i" x="523.139" y="586.496" width="138.501" height="65.4617" filterUnits="userSpaceOnUse" color-interpolation-filters="sRGB">
<feFlood flood-opacity="0" result="BackgroundImageFix"/>
<feBlend mode="normal" in="SourceGraphic" in2="BackgroundImageFix" result="shape"/>
<feColorMatrix in="SourceAlpha" type="matrix" values="0 0 0 0 0 0 0 0 0 0 0 0 0 0 0 0 0 0 127 0" result="hardAlpha"/>
<feOffset dy="-8.20673"/>
<feComposite in2="hardAlpha" operator="arithmetic" k2="-1" k3="1"/>
<feColorMatrix type="matrix" values="0 0 0 0 1 0 0 0 0 1 0 0 0 0 1 0 0 0 1 0"/>
<feBlend mode="normal" in2="shape" result="effect1_innerShadow"/>
</filter>
</defs>
</svg>
