<svg width="1200" height="1600" viewBox="0 0 1200 1600" fill="none" xmlns="http://www.w3.org/2000/svg">
<path d="M667 1028.49C679.139 1087.19 677.116 1339.14 667 1409.99" stroke="#F6DDD6" stroke-width="60" stroke-linecap="round" stroke-linejoin="bevel"/>
<path d="M542.123 1023.68C529.984 1082.39 532.007 1335.14 542.123 1405.99" stroke="#F6DDD6" stroke-width="60" stroke-linecap="round" stroke-linejoin="bevel"/>
<path d="M691.566 1084.41L513.528 1064.17L475.088 967L715.844 977.122L691.566 1084.41Z" fill="#556681"/>
<path d="M594 990.779L739.557 980.487L714 1359.49L627.5 1355.49L619.5 1205L594 990.779Z" fill="#556681"/>
<path d="M463.5 971.487L594.455 993.316L586.269 1186.05L582.5 1358.99L497 1355.49L463.5 971.487Z" fill="#556681"/>
<path d="M492.261 1350.49H585.326L582.292 1394.01H499.848L492.261 1350.49Z" fill="#6D7F9A"/>
<path d="M622.755 1350.49H720.878L711.774 1394.01H624.778L622.755 1350.49Z" fill="#6D7F9A"/>
<path d="M404.764 1490.02C404.563 1467.07 407.69 1453.11 427.639 1443.73C447.589 1434.36 466.38 1416.33 500.894 1400.87C500.894 1400.87 505.437 1400.01 512.832 1404.01C519.143 1407.42 527.248 1415.79 539.462 1415.69C552.725 1415.57 564.543 1412.76 571.886 1408.91C575.058 1400.22 582.096 1400.16 582.096 1400.16C582.096 1400.16 592.006 1419.02 592.171 1437.97C592.336 1456.91 592.319 1488.38 592.319 1488.38L404.764 1490.02Z" fill="#161616"/>
<path d="M494.794 1404.73C496.96 1409.6 496.96 1415.55 496.96 1419.34L478.553 1411.22L482.884 1426.92L466.102 1421.51V1437.21L453.109 1430.17V1443.71" stroke="white" stroke-width="5.41368" stroke-linecap="round" stroke-linejoin="round"/>
<path d="M412.311 1445.49C418.432 1443.27 424.914 1441.59 437.341 1438.78L432.06 1453.98L432.211 1471.3L396.839 1471.61C395.395 1471.62 392.816 1469.7 394.047 1461.89C395.586 1452.13 403.614 1448.64 412.311 1445.49Z" fill="#161616"/>
<path d="M592.912 1485.43L591.885 1467.2L433.28 1469.67L393.733 1466.77L392.525 1480.74C392.108 1485.57 395.726 1489.8 400.557 1490.13L433.478 1492.41L588.655 1490C591.116 1489.96 593.05 1487.88 592.912 1485.43Z" fill="#808080"/>
<path d="M807.412 1490.02C807.612 1467.07 804.486 1453.11 784.536 1443.73C764.587 1434.36 745.795 1416.33 711.281 1400.87C711.281 1400.87 706.739 1400.01 699.343 1404.01C693.033 1407.42 684.927 1415.79 672.713 1415.69C659.451 1415.57 647.632 1412.76 640.289 1408.91C637.117 1400.22 630.079 1400.16 630.079 1400.16C630.079 1400.16 620.17 1419.02 620.004 1437.97C619.839 1456.91 619.856 1488.38 619.856 1488.38L807.412 1490.02Z" fill="#161616"/>
<path d="M717.381 1404.73C715.215 1409.6 715.215 1415.55 715.215 1419.34L733.622 1411.22L729.291 1426.92L746.073 1421.51V1437.21L759.066 1430.17V1443.71" stroke="white" stroke-width="5.41368" stroke-linecap="round" stroke-linejoin="round"/>
<path d="M799.864 1445.49C793.744 1443.27 787.262 1441.59 774.834 1438.78L780.116 1453.98L779.964 1471.3L815.337 1471.61C816.78 1471.62 819.36 1469.7 818.128 1461.89C816.589 1452.13 808.561 1448.64 799.864 1445.49Z" fill="#161616"/>
<path d="M619.263 1485.43L620.291 1467.2L778.896 1469.67L818.442 1466.77L819.651 1480.74C820.068 1485.57 816.449 1489.8 811.618 1490.13L778.697 1492.41L623.52 1490C621.059 1489.96 619.125 1487.88 619.263 1485.43Z" fill="#808080"/>
<path d="M481.59 671.869C447.902 713.978 425 737 399 805" stroke="#E0C1A1" stroke-width="120" stroke-linecap="round" stroke-linejoin="bevel"/>
<rect x="423.69" y="524.487" width="328.453" height="151.594" rx="75.7968" fill="#FFB2B2"/>
<path d="M766.667 660.915C752.697 629.815 717.315 614.5 685.079 625.6C653.161 636.59 634.705 669.918 642.325 702.804L697.234 939.756C708.367 987.797 758.183 1016.06 805.134 1000.98C849.695 986.663 874.06 938.786 859.406 894.336L825.999 793L766.667 660.915Z" fill="#E0C1A1"/>
<path d="M769.501 932C742.337 938.791 755.667 958.333 756.001 971C808.001 971 837.666 981.167 844.999 983.5C846.999 978.5 850.192 971 853 965C868.446 932 805.5 923 769.501 932Z" fill="#DBB793"/>
<path d="M436.145 705.973C436.203 648.117 483.161 601.336 541.016 601.336H654.453C709.055 601.336 754.58 643.165 757.95 697.663C760.6 740.52 763.001 789.442 763.001 826C763 872.636 759.093 939.108 755.746 987.486C753.307 1022.75 723.871 1049.8 688.523 1049.8H511.042C475.896 1049.8 446.555 1023.04 443.906 987.993C440.524 943.249 436.652 883.279 436.36 840C436.122 804.771 436.099 752.575 436.145 705.973Z" fill="#E3C7AB"/>
<ellipse cx="600.549" cy="622.392" rx="65.2694" ry="66.3222" fill="#DBB793"/>
<rect x="560.342" y="535.03" width="80.9095" height="121.364" rx="40.4548" fill="#EED1C9"/>
<rect x="501.59" y="727.665" width="94.746" height="94.746" rx="26" fill="#FF6C75"/>
<rect x="608.652" y="733.665" width="82.746" height="82.746" rx="41.373" stroke="#FF6C75" stroke-width="12"/>
<rect x="507.59" y="833.675" width="82.746" height="82.746" rx="20" stroke="#FF6C75" stroke-width="12"/>
<rect x="608.652" y="833.675" width="82.746" height="82.746" rx="20" fill="#FFFAF5" stroke="#FF6C75" stroke-width="12"/>
<path d="M506.855 643.446C521.172 666.185 547.912 683.45 583.705 683.45C583.705 656.43 564.755 628.708 542.648 597.126C533.472 584.017 525.804 569.755 506.855 569.755C500.889 584.844 492.537 620.707 506.855 643.446Z" fill="#C09F7B"/>
<path d="M690.03 643.446C675.713 666.185 648.973 683.45 613.18 683.45C613.18 656.43 632.13 628.708 654.237 597.126C663.413 584.017 671.081 569.755 690.03 569.755C695.996 584.844 704.348 620.707 690.03 643.446Z" fill="#C09F7B"/>
<path d="M560.543 667.659L560.543 814.59" stroke="#FFF0E0" stroke-width="14" stroke-linecap="round"/>
<path d="M634.236 665.554L634.236 855.046" stroke="#FFF0E0" stroke-width="14" stroke-linecap="round"/>
<path d="M386.999 988C352.936 910 374 847 394.064 823" stroke="#F6DDD6" stroke-width="84" stroke-linecap="round" stroke-linejoin="bevel"/>
<path d="M370 948.739C370 906.63 370 857 391.999 809" stroke="#E0C1A1" stroke-width="111" stroke-linecap="round" stroke-linejoin="bevel"/>
<path d="M768.458 465.533V466.586L765.3 469.744L757.931 470.797V470.271L755.299 467.639L768.458 465.533Z" fill="#231202"/>
<path d="M435.856 298.65C435.856 213.488 508.44 144.45 597.976 144.45C687.513 144.45 760.097 213.488 760.097 298.65V452.021C747.023 551.505 668.577 606.222 597.976 606.222C527.375 606.222 445.443 539.899 435.856 452.021V298.65Z" fill="#F6DDD6"/>
<path fill-rule="evenodd" clip-rule="evenodd" d="M554.391 489.242C554.283 490.504 554.228 491.781 554.228 493.07V499.507C554.228 523.95 574.043 543.765 598.485 543.765C622.928 543.765 642.743 523.95 642.743 499.507V493.07C642.743 491.781 642.687 490.504 642.579 489.242H554.391Z" fill="#393939"/>
<mask id="mask0" mask-type="alpha" maskUnits="userSpaceOnUse" x="554" y="482" width="89" height="62">
<path fill-rule="evenodd" clip-rule="evenodd" d="M555.528 482.379C554.679 485.802 554.228 489.382 554.228 493.068V499.505C554.228 523.948 574.043 543.762 598.485 543.762C622.928 543.762 642.743 523.948 642.743 499.505V493.068C642.743 489.382 642.292 485.802 641.443 482.379H555.528Z" fill="#434343"/>
</mask>
<g mask="url(#mask0)">
<ellipse cx="598.485" cy="543.458" rx="26.6895" ry="13.1707" fill="#FF6C6C"/>
<rect x="554.228" y="489.243" width="88.5147" height="16.54" fill="white"/>
</g>
<path d="M500.766 349.169C500.766 349.169 525.67 336.083 556.18 346.55" stroke="#583311" stroke-width="14" stroke-linecap="round"/>
<path d="M697.027 349.121C697.027 349.121 672.123 336.035 641.613 346.502" stroke="#583311" stroke-width="14" stroke-linecap="round"/>
<circle cx="477.379" cy="470.797" r="38.9511" fill="#F2CACA"/>
<path d="M677.399 374.474C677.399 374.474 673.714 377.632 664.239 379.737" stroke="black" stroke-width="10" stroke-linecap="round"/>
<path d="M657.932 383.251L657.932 404.362" stroke="black" stroke-width="24" stroke-linecap="round"/>
<path d="M521.067 373.42C521.067 373.42 527.91 377.105 539.49 377.105" stroke="black" stroke-width="10" stroke-linecap="round"/>
<path d="M539.348 381.858L539.349 404.421" stroke="black" stroke-width="24" stroke-linecap="round"/>
<path d="M593.99 416.4C591.88 431.866 578.617 460.068 601.224 460.068" stroke="#EBBAAA" stroke-width="17"/>
<ellipse cx="712.198" cy="468.692" rx="38.4248" ry="38.9511" fill="#F2CACA"/>
<path d="M729.506 537.647C738.981 497.643 742.666 410.792 742.666 377.104C742.666 348.574 729.548 240.561 673.185 221.3C631.599 207.088 540.014 220.773 531.592 208.667C502.642 267.62 513.141 291.431 484.746 307.098C454.217 323.941 456.322 483.957 464.21 522.381C465.06 523.763 465.94 525.167 466.849 526.592C483.119 552.096 511.591 578.703 530.014 586.598C528.961 597.301 518.539 612.418 521 644C522.579 659 531.592 682 531.592 703C514.328 703.842 473 684 458 661C458 678 468.906 712.484 447 697C425.02 681.464 403.073 631.079 405.779 558.904C400.58 513.049 398.239 327.939 398.422 307.098C398.904 252.165 453.546 128.667 565.806 108.657C584.755 105.279 598.967 115.836 603.178 119.712C606.336 115.835 617.916 109.287 627.917 110.571C702.119 120.092 752.763 166.185 780.564 271.831C793.441 320.762 780.986 487.072 774.248 522.381C754.246 511.328 720.031 577.65 729.506 537.647Z" fill="#4D2909"/>
<path d="M510.014 296.396C510.013 263.762 517.383 218.494 533.174 191.123C543.701 186.21 570.02 179.332 561.598 191.123C553.176 202.913 550.72 266.217 554.229 296.396C543.702 302.01 524.751 302.713 510.014 296.396Z" fill="#4D2909"/>
<path d="M697.398 296.146C697.398 245.512 683.715 210.603 674.239 181.295C629.547 176.402 537.693 154.792 546.858 191.291C556.333 229.021 556.333 258.497 566.295 296.146C610.987 301.739 634.835 302.438 697.398 296.146Z" fill="#4D2909"/>
<path d="M668.977 187.612C681.609 202 708.138 253.092 713.191 296.044" stroke="#4D2909" stroke-width="13" stroke-linecap="round"/>
<path d="M788.726 609.758C792.298 573.417 780.133 519.223 777.5 467.639C777.5 467.639 766.352 466.586 763.986 467.639C761.619 468.692 757.931 470.271 757.931 470.271C752.142 486.588 751.881 503.958 726.615 539.751C710.77 562.199 686.084 578.702 672.925 586.071C669.767 623.619 689.999 658 680.999 690C689.421 694.211 714 678 726.615 665C726.615 681 712.769 702 726.615 702C753.459 702 783 668 788.726 609.758Z" fill="#4D2909"/>
<path d="M336.259 995.683L315.938 952.105C354.206 977.952 405.005 951.533 423.036 940.005L426.953 981.87C418.574 1004.89 403.75 1009.07 379.228 1015.05C357.243 1020.4 340.87 1004.46 336.259 995.683Z" fill="#DBB793"/>
<path d="M768.487 964.368C732.349 971.484 733.067 1004.23 739.227 1019.22C766.433 1040.96 828.034 1016.75 835.22 1006.37C844.952 992.32 813.66 955.474 768.487 964.368Z" fill="#F2CCC1"/>
<path d="M724.799 1040.54C734.162 1025.55 761.028 995.447 793.582 994.958C826.136 994.47 856.577 1019.32 867.729 1031.8" stroke="#CF8388" stroke-width="17"/>
<rect x="662.52" y="1032.78" width="282" height="201" rx="23" transform="rotate(-6.5 662.52 1032.78)" fill="#CF8388"/>
<rect x="649.604" y="1034.25" width="282" height="201" rx="23" transform="rotate(-6.5 649.604 1034.25)" fill="#FCA9AE"/>
<path d="M774.186 1134.33L655.356 1084.73L652.434 1059.09C650.808 1044.82 661.056 1031.94 675.323 1030.31L903.845 1004.27C918.112 1002.65 930.995 1012.9 932.621 1027.16L934.635 1044.84L835.087 1125.56C817.944 1139.46 794.554 1142.83 774.186 1134.33Z" fill="#F1C3C6"/>
<circle cx="800.665" cy="1110.13" r="12.5" transform="rotate(-6.5 800.665 1110.13)" fill="#E29398"/>
<path d="M789.487 955.368C753.349 962.484 754.067 995.23 760.227 1010.22C787.433 1031.96 849.034 1007.75 856.22 997.372C865.952 983.32 834.66 946.474 789.487 955.368Z" fill="#F6DDD6"/>
</svg>
