<svg width="1200" height="1600" viewBox="0 0 1200 1600" fill="none" xmlns="http://www.w3.org/2000/svg">
<path d="M679.62 1050.86C692.645 1113.85 690.474 1347.36 679.62 1423.38" stroke="#F6DDD6" stroke-width="64.3816" stroke-linecap="round" stroke-linejoin="bevel"/>
<path d="M545.315 1044.34C532.29 1107.33 534.461 1340.84 545.315 1416.86" stroke="#F6DDD6" stroke-width="64.3816" stroke-linecap="round" stroke-linejoin="bevel"/>
<rect x="468.561" y="598.733" width="276.841" height="353.026" rx="120.179" fill="#EED1C9"/>
<g filter="url(#filter0_i)">
<path d="M465.341 1253.28C465.341 1192.12 462.76 1096.62 469.633 1033.31C476.507 970 475.001 966.742 474.999 863.771C483.782 818.926 474.999 783.644 474.999 738.226L454.712 649.976C480.679 636.224 533.843 595.491 530.563 628.495C526.463 669.75 543.672 686.721 600.542 728.569C668.143 685.648 667.07 621.267 699.26 621.267C764.799 621.267 720.722 859.478 731.452 980.73C742.182 1101.98 751.84 1242.55 751.84 1242.55C705.7 1282.25 521.037 1289.77 465.341 1253.28Z" fill="#D1DEED"/>
</g>
<path d="M509.335 876.647C535.803 883.8 611.917 895.961 704.626 887.377" stroke="#C4D2E2" stroke-width="18.2415"/>
<path d="M576.817 891.947C569.036 886.456 551.688 878.661 544.542 891.413C535.609 907.354 565.364 917.996 576.817 891.947Z" stroke="#B5C6DA" stroke-width="10.7303" stroke-linejoin="round"/>
<path d="M582.288 891.91C590.429 884.127 609.355 871.979 619.941 885.644C633.174 902.726 600.236 920.371 582.288 891.91Z" stroke="#B5C6DA" stroke-width="10.7303" stroke-linejoin="round"/>
<path d="M579.619 895.425C575.505 903.294 567.923 922.894 570.498 938.346" stroke="#B5C6DA" stroke-width="10.7303" stroke-linecap="round"/>
<path d="M580.157 895.961C592.497 907.228 589.17 965.279 586.595 980.731" stroke="#B5C6DA" stroke-width="10.7303" stroke-linecap="round"/>
<path d="M525.431 615.902C534.015 641.654 533.478 694.233 598.933 717.303C651.511 696.379 663.315 654.531 667.07 612.683" stroke="#C4D2E2" stroke-width="21.4605"/>
<rect x="555.476" y="561.042" width="83.9125" height="125.94" rx="41.9563" fill="#EED1C9"/>
<path d="M556.549 612.683C559.231 620.551 573.181 630.388 594.641 630.388C616.102 630.388 635.953 622.876 640.245 612.683" stroke="#37383A" stroke-width="13.9493" stroke-linecap="round"/>
<path d="M394.522 1474.32C394.522 1441.38 415.688 1437.36 450.187 1426.08C467.083 1420.55 484.327 1415.72 501.825 1412.83C512.82 1411 515.774 1420.67 535.088 1420.67C552.313 1420.67 573.801 1412.14 578.25 1410.29C578.809 1410.06 579.47 1409.86 579.914 1410.27C580.022 1410.37 580.112 1410.49 580.179 1410.62C582.237 1414.85 593.032 1437.9 593.032 1456.34C593.032 1470.45 594.24 1484.32 590.349 1491.49C588.593 1494.73 577.633 1496.49 573.952 1496.49H400.491C397.194 1496.49 394.522 1477.62 394.522 1474.32Z" fill="#DEDEDE"/>
<mask id="mask0" mask-type="alpha" maskUnits="userSpaceOnUse" x="394" y="1406" width="200" height="91">
<path d="M394.522 1474.32C394.522 1457.4 400.108 1448.11 410.218 1441.55C458.322 1410.32 520.695 1408.85 578.009 1406.72C578.478 1406.72 579.974 1410.2 580.179 1410.62C582.237 1414.85 593.032 1437.9 593.032 1456.34C593.032 1470.45 594.24 1484.32 590.349 1491.49C588.593 1494.73 577.633 1496.49 573.952 1496.49H400.491C397.194 1496.49 394.522 1477.62 394.522 1474.32Z" fill="#3B3734"/>
</mask>
<g mask="url(#mask0)">
<path d="M419.738 1451.79C403.106 1451.79 398.457 1442.13 396.668 1440.52C393.449 1444.28 396.132 1459.41 393.986 1466.28C391.84 1473.14 394.88 1479.87 396.668 1482.37H602.689C603.583 1468.06 596.303 1419.11 589.276 1420.67C569.962 1424.96 526.504 1423.35 517.384 1422.82C510.087 1422.39 474.642 1431.58 457.831 1436.23C459.977 1438.38 463.518 1449.32 464.805 1454.47C466.415 1460.91 466.951 1460.91 461.05 1462.52C455.148 1464.13 454.075 1451.79 447.637 1451.79H419.738Z" fill="#E9EAEB"/>
<path d="M552.792 1416.38C565.669 1415.52 576.399 1408.51 580.691 1404.58C584.983 1408.87 595.606 1420.67 593.031 1424.96C589.812 1430.33 565.132 1434.62 554.402 1434.62C543.672 1434.62 536.697 1417.45 552.792 1416.38Z" fill="#CDC7BB"/>
<path d="M489.485 1480.23C462.123 1479.15 438.516 1485.59 408.471 1479.15C354.82 1473.25 382.384 1476.76 368.77 1502.85H579.173C600.007 1497.93 606.919 1467.57 591.422 1470.03C557.622 1475.4 510.42 1481.05 489.485 1480.23Z" fill="#CDC7BB"/>
<path d="M599.47 1479.15C592.174 1482.16 493.241 1482.37 490.021 1480.23C497.533 1478.62 552.814 1472.35 565.133 1471.64C583.911 1470.57 591.065 1469.14 599.47 1469.5C602.51 1471.64 606.767 1476.15 599.47 1479.15Z" fill="#DEDEDE"/>
</g>
<path d="M499.537 1412.09C503.876 1414.73 512.555 1418.69 512.555 1423.97L480.01 1416.49L492.486 1432.78L456.757 1422.62L471.023 1436.77" stroke="#CDC7BB" stroke-width="6.60953" stroke-linecap="round" stroke-linejoin="round"/>
<path d="M505.17 1399.12C505.17 1400.37 505.192 1401.56 505.213 1402.66L505.213 1402.7C505.234 1403.79 505.252 1404.78 505.249 1405.71C505.244 1407.62 505.142 1408.96 504.892 1409.91C504.664 1410.78 504.385 1411.07 504.155 1411.23C503.849 1411.44 503.093 1411.77 501.315 1411.77C497.746 1411.77 493.145 1410.43 489.486 1408C485.812 1405.55 483.69 1402.45 483.69 1399.12C483.69 1394.73 484.754 1391.22 486.464 1388.89C488.097 1386.66 490.422 1385.35 493.604 1385.35C499.877 1385.35 505.17 1390.76 505.17 1399.12Z" stroke="#CDC7BB" stroke-width="6.60953"/>
<path d="M512.453 1404.77C512.076 1405.62 511.702 1406.42 511.361 1407.15L511.352 1407.16C511.009 1407.9 510.704 1408.55 510.434 1409.16C509.871 1410.43 509.584 1411.27 509.489 1411.86C509.445 1412.13 509.456 1412.27 509.464 1412.32C509.468 1412.35 509.471 1412.35 509.475 1412.36C509.476 1412.36 509.476 1412.36 509.477 1412.36C509.499 1412.4 509.746 1412.76 510.876 1413.27C513.146 1414.28 516.505 1414.75 519.561 1414.25C522.643 1413.74 524.662 1412.41 525.482 1410.57C526.735 1407.76 527.007 1405.28 526.595 1403.44C526.21 1401.72 525.202 1400.35 523.279 1399.49C519.515 1397.82 514.782 1399.54 512.453 1404.77Z" stroke="#CDC7BB" stroke-width="6.60953"/>
<path d="M832.495 1474.32C832.495 1441.38 811.328 1437.36 776.83 1426.07C759.933 1420.55 742.689 1415.72 725.192 1412.82C714.197 1411 711.243 1420.67 691.928 1420.67C674.704 1420.67 653.216 1412.14 648.766 1410.29C648.208 1410.06 647.546 1409.86 647.102 1410.27C646.995 1410.37 646.904 1410.49 646.837 1410.62C644.78 1414.85 633.985 1437.9 633.985 1456.34C633.985 1470.45 632.776 1484.32 636.667 1491.49C638.423 1494.73 649.384 1496.49 653.065 1496.49H826.526C829.822 1496.49 832.495 1477.62 832.495 1474.32Z" fill="#DEDEDE"/>
<mask id="mask1" mask-type="alpha" maskUnits="userSpaceOnUse" x="633" y="1406" width="200" height="91">
<path d="M832.495 1474.32C832.495 1457.4 826.909 1448.11 816.799 1441.55C768.695 1410.31 706.322 1408.84 649.008 1406.72C648.539 1406.72 647.043 1410.2 646.838 1410.62C644.78 1414.85 633.985 1437.9 633.985 1456.34C633.985 1470.45 632.777 1484.32 636.668 1491.49C638.424 1494.73 649.385 1496.49 653.065 1496.49H826.526C829.823 1496.49 832.495 1477.62 832.495 1474.32Z" fill="#DEDEDE"/>
</mask>
<g mask="url(#mask1)">
<path d="M807.278 1451.79C823.91 1451.79 828.559 1442.13 830.348 1440.52C833.567 1444.28 830.884 1459.41 833.03 1466.28C835.176 1473.14 832.136 1479.87 830.348 1482.37H626.296C625.402 1468.06 636.064 1418.38 638.099 1419.06C660.633 1426.57 698.725 1422.82 707.846 1422.28C715.143 1421.85 752.375 1431.58 769.185 1436.23C767.039 1438.38 763.498 1449.32 762.211 1454.47C760.601 1460.91 760.065 1460.91 765.966 1462.52C771.868 1464.13 772.941 1451.79 779.379 1451.79H807.278Z" fill="#E9EAEB"/>
<path d="M674.224 1416.38C661.348 1415.52 650.618 1408.51 646.326 1404.58C642.033 1408.87 631.411 1420.67 633.986 1424.96C637.205 1430.33 661.884 1434.62 672.615 1434.62C683.345 1434.62 690.32 1417.45 674.224 1416.38Z" fill="#CDC7BB"/>
<path d="M737.532 1480.22C764.894 1479.15 788.5 1485.59 818.545 1479.15C872.197 1473.25 844.632 1476.76 858.247 1502.85H647.844C627.01 1497.93 620.098 1467.57 635.594 1470.03C669.395 1475.4 716.596 1481.05 737.532 1480.22Z" fill="#CDC7BB"/>
<path d="M627.546 1479.15C634.843 1482.16 733.776 1482.37 736.995 1480.23C729.484 1478.62 674.203 1472.35 661.883 1471.64C643.105 1470.57 635.952 1469.14 627.546 1469.5C624.506 1471.64 620.25 1476.15 627.546 1479.15Z" fill="#DEDEDE"/>
</g>
<path d="M727.48 1412.09C723.141 1414.73 714.462 1418.69 714.462 1423.97L747.007 1416.49L734.531 1432.77L770.26 1422.62L755.995 1436.77" stroke="#CDC7BB" stroke-width="6.60953" stroke-linecap="round" stroke-linejoin="round"/>
<path d="M721.846 1399.12C721.846 1400.37 721.824 1401.56 721.804 1402.66L721.803 1402.7C721.783 1403.79 721.764 1404.78 721.767 1405.71C721.773 1407.62 721.875 1408.96 722.125 1409.91C722.352 1410.78 722.631 1411.07 722.861 1411.23C723.167 1411.44 723.924 1411.77 725.702 1411.77C729.271 1411.77 733.872 1410.43 737.53 1407.99C741.204 1405.55 743.327 1402.45 743.327 1399.12C743.327 1394.73 742.262 1391.21 740.552 1388.88C738.92 1386.66 736.595 1385.35 733.413 1385.35C727.14 1385.35 721.846 1390.76 721.846 1399.12Z" stroke="#CDC7BB" stroke-width="6.60953"/>
<path d="M714.562 1404.77C714.939 1405.62 715.313 1406.41 715.655 1407.14L715.664 1407.16C716.007 1407.9 716.311 1408.55 716.581 1409.16C717.144 1410.43 717.431 1411.27 717.527 1411.86C717.57 1412.13 717.559 1412.27 717.551 1412.32C717.547 1412.35 717.544 1412.35 717.54 1412.36C717.539 1412.36 717.539 1412.36 717.538 1412.36C717.516 1412.4 717.269 1412.76 716.139 1413.26C713.869 1414.27 710.51 1414.75 707.454 1414.25C704.372 1413.74 702.353 1412.41 701.533 1410.57C700.28 1407.75 700.008 1405.28 700.42 1403.43C700.805 1401.72 701.813 1400.35 703.736 1399.49C707.5 1397.82 712.234 1399.54 714.562 1404.77Z" stroke="#CDC7BB" stroke-width="6.60953"/>
<rect x="586.594" y="622.34" width="21.4605" height="16.0954" rx="8.0477" fill="#FFDD64"/>
<path d="M803.344 756.468C793.043 715.264 770.438 663.472 760.423 642.727V829.434C779.022 822.28 813.645 797.672 803.344 756.468Z" fill="#E3E9EC"/>
<path d="M630.051 711.401C641.318 691.013 665.986 648.901 665.986 608.39C665.986 608.39 666.286 609.676 714.398 619.052C762.51 628.428 761.497 648.092 761.497 648.092C771.197 664.226 758.757 751.329 761.496 843.667C764.235 936.005 761.496 948.54 761.496 990.388C738.437 997.793 711.566 1012.62 654.188 1018.29C654.188 1007.54 649.772 991.661 649.362 979.518C642.657 939.869 640.244 890.06 637.026 843.667C634.778 811.27 630.051 749.493 630.051 711.401Z" fill="#EBF4F9"/>
<path d="M629.514 713.547L653.121 594.978L676.191 601.952L692.286 614.292C680.483 648.092 677.8 678.674 683.702 712.474C667.07 700.671 638.456 708.897 629.514 713.547Z" fill="#F7FAFF"/>
<path d="M863.434 697.452C840.901 765.052 825.878 784.367 800.125 815.485" stroke="#F6DDD6" stroke-width="79.404" stroke-linecap="round" stroke-linejoin="bevel"/>
<path d="M887.087 633.707C888.696 626.173 883.892 618.761 876.358 617.151C868.824 615.542 861.412 620.345 859.803 627.88L887.087 633.707ZM921.751 649.544C926.499 643.478 925.43 634.71 919.363 629.962C913.296 625.214 904.529 626.283 899.78 632.35L921.751 649.544ZM877.073 679.972C878.183 675.28 884.242 647.027 887.087 633.707L859.803 627.88C856.903 641.457 850.941 669.248 849.923 673.553L877.073 679.972ZM885.137 692.628C897.735 682.122 905.351 670.499 921.751 649.544L899.78 632.35C881.563 655.627 876.859 663.205 867.268 671.203L885.137 692.628Z" fill="#F6DDD6"/>
<path d="M824.804 701.744C794.759 739.3 799.931 737.154 780.811 767.199C770.796 782.937 747.173 810.688 759.191 843.308C774.213 884.083 805.491 876.11 828.56 864.307C854.945 850.808 883.821 803.681 893.479 721.058C852.704 721.058 847.338 710.328 824.804 701.744Z" fill="#F2F7FA"/>
<path d="M800.125 728.183L821.077 692.086C833.647 707.192 880.363 720.522 899.917 720.522C897.234 728.183 894.015 745.738 889.723 755.932C854.63 755.932 821.077 742.622 800.125 728.183Z" fill="#E4EBEF"/>
<path d="M396.655 756.468C406.956 715.264 429.561 663.472 439.576 642.727V829.434C420.977 822.28 386.354 797.672 396.655 756.468Z" fill="#E3E9EC"/>
<path d="M569.948 711.401C558.682 691.013 534.013 648.901 534.013 608.39C534.013 608.39 533.713 609.676 485.601 619.052C437.489 628.428 438.503 648.092 438.503 648.092C428.802 664.226 441.242 751.329 438.503 843.667C435.764 936.005 438.503 948.54 438.503 990.388C461.562 997.793 488.433 1012.62 545.812 1018.29C545.812 1007.54 550.228 991.661 550.638 979.518C557.342 939.869 559.755 890.06 562.974 843.667C565.221 811.27 569.948 749.493 569.948 711.401Z" fill="#EBF4F9"/>
<path d="M570.486 713.547L546.88 594.978L523.81 601.952L507.714 614.292C519.518 648.092 522.2 678.674 516.298 712.474C532.93 700.671 561.544 708.897 570.486 713.547Z" fill="#F7FAFF"/>
<path d="M336.566 697.452C359.099 765.052 374.122 784.367 399.875 815.485" stroke="#F6DDD6" stroke-width="79.404" stroke-linecap="round" stroke-linejoin="bevel"/>
<path d="M312.913 633.706C311.304 626.172 316.107 618.76 323.641 617.151C331.175 615.542 338.587 620.345 340.196 627.879L312.913 633.706ZM278.249 649.544C273.501 643.477 274.57 634.71 280.637 629.962C286.704 625.214 295.471 626.283 300.219 632.349L278.249 649.544ZM322.926 679.971C321.817 675.279 315.758 647.026 312.913 633.706L340.196 627.879C343.096 641.456 349.058 669.247 350.076 673.552L322.926 679.971ZM314.862 692.628C302.264 682.121 294.649 670.498 278.249 649.544L300.219 632.349C318.437 655.627 323.141 663.204 332.731 671.203L314.862 692.628Z" fill="#F6DDD6"/>
<path d="M375.196 701.744C405.24 739.3 400.069 737.154 419.189 767.199C429.204 782.937 452.827 810.688 440.809 843.308C425.786 884.083 394.508 876.11 371.439 864.307C345.055 850.808 316.178 803.681 306.521 721.058C347.296 721.058 352.662 710.328 375.196 701.744Z" fill="#F2F7FA"/>
<path d="M399.875 728.183L378.923 692.086C366.353 707.192 319.637 720.522 300.083 720.522C302.766 728.183 305.985 745.738 310.277 755.932C345.37 755.932 378.923 742.622 399.875 728.183Z" fill="#E4EBEF"/>
<rect width="220.205" height="156.724" rx="78.362" transform="matrix(0.990257 -0.139251 0.139096 0.990279 421.348 437.08)" fill="#3D230C"/>
<path d="M748.621 549.374C756.293 537.724 747.905 469.254 735.744 443.144L648.829 555.812C648.829 572.98 652.048 580.491 683.166 580.491C712.038 580.491 734.135 571.371 748.621 549.374Z" fill="#3D230C"/>
<ellipse cx="449.338" cy="416.509" rx="63.4006" ry="60.1715" fill="#EBBAAA"/>
<ellipse cx="743.842" cy="417.136" rx="63.4006" ry="60.1715" fill="#EBBAAA"/>
<path d="M436.37 302.146C436.37 214.677 505.309 143.77 590.349 143.77C675.389 143.77 744.328 214.677 744.328 302.146V459.671C731.911 561.849 657.404 618.047 590.349 618.047C523.293 618.047 445.476 549.928 436.37 459.671V302.146Z" fill="#F6DDD6"/>
<path fill-rule="evenodd" clip-rule="evenodd" d="M549.039 497.322V511.826C549.039 534.104 567.099 552.164 589.377 552.164C611.655 552.164 629.715 534.104 629.715 511.826V497.322H549.039Z" fill="#393939"/>
<mask id="mask2" mask-type="alpha" maskUnits="userSpaceOnUse" x="549" y="494" width="81" height="59">
<path fill-rule="evenodd" clip-rule="evenodd" d="M549.105 494.65C549.061 495.424 549.038 496.204 549.038 496.99V511.824C549.038 534.102 567.098 552.162 589.376 552.162C611.654 552.162 629.714 534.102 629.714 511.824V496.99C629.714 496.204 629.692 495.424 629.647 494.65H549.105Z" fill="#434343"/>
</mask>
<g mask="url(#mask2)">
<ellipse cx="589.376" cy="551.854" rx="24.326" ry="13.2483" fill="#FF6C6C"/>
<rect x="549.038" y="497.321" width="80.6761" height="16.6374" fill="white"/>
</g>
<path d="M458.197 323.65C466.781 292.747 494.68 253.545 509.702 237.808C524.724 222.07 566.921 207.257 579.081 204.395C579.081 194.38 579.081 152.353 531.868 170.596C497.838 183.744 477.511 164.842 436.736 237.808C395.961 310.774 442.808 521.475 444.954 452.801C447.1 384.128 447.466 362.279 458.197 323.65Z" fill="#3D230C"/>
<path d="M484.246 261.869C509.036 225.245 528.884 213.417 562.836 188.837C567.713 193.091 579.543 204.528 604.298 219.418C571.479 229.628 516.078 260.451 470.1 349.791C465.856 318.593 470.328 282.431 484.246 261.869Z" fill="#3D230C"/>
<path d="M567.766 128.339C606.766 110.395 697.634 148.659 743.256 238.196C743.256 238.196 755.163 273.667 771.154 307.943C776.448 319.289 779.595 351.5 781.451 382.993C784.125 428.349 760.69 470.836 722.331 495.186C722.331 495.186 709.991 391.639 663.851 334.768C624.052 285.713 573.076 245.44 557.062 224.279C553.186 219.157 549.173 213.152 548.435 206.771C546.397 189.162 556.62 151.96 567.766 128.339Z" fill="#543415"/>
<path d="M610.737 301.931C594.105 272.423 569.962 239.269 552.257 217.808C559.589 217.808 565.67 206.861 587.13 227.893C613.956 254.182 614.492 268.667 610.737 301.931Z" fill="#543415"/>
<path d="M487.823 354.01L549.3 351.324" stroke="#62360D" stroke-width="13.9493" stroke-linecap="round"/>
<path d="M503.6 396.358L532.503 391.789" stroke="black" stroke-width="10.7303" stroke-linecap="round"/>
<path d="M642.521 388.99L671.424 393.559" stroke="black" stroke-width="10.7303" stroke-linecap="round"/>
<path d="M527.03 391.789L527.03 422.669" stroke="black" stroke-width="25.7526" stroke-linecap="round"/>
<path d="M649.169 388.99L649.168 419.87" stroke="black" stroke-width="25.7526" stroke-linecap="round"/>
<path d="M626.138 349.328L687.559 353.086" stroke="#62360D" stroke-width="13.9493" stroke-linecap="round"/>
<path d="M584.928 423.033C582.752 438.892 569.077 467.812 592.386 467.812" stroke="#EBBAAA" stroke-width="18.2415"/>
<path d="M559.401 181.553C509.964 181.553 480.608 193.913 455.394 206.813C446.99 196.063 435.407 160.255 475.354 138.552C559.401 92.8918 641.908 89.4382 719.65 138.552C780.058 176.715 814.689 304.103 777.393 349.791C770.039 328.291 762.799 307.328 748.504 291.017C677.065 209.503 598.797 181.553 559.401 181.553Z" fill="#B82E36"/>
<defs>
<filter id="filter0_i" x="454.712" y="615.901" width="297.128" height="660.991" filterUnits="userSpaceOnUse" color-interpolation-filters="sRGB">
<feFlood flood-opacity="0" result="BackgroundImageFix"/>
<feBlend mode="normal" in="SourceGraphic" in2="BackgroundImageFix" result="shape"/>
<feColorMatrix in="SourceAlpha" type="matrix" values="0 0 0 0 0 0 0 0 0 0 0 0 0 0 0 0 0 0 127 0" result="hardAlpha"/>
<feOffset dy="-19.3145"/>
<feComposite in2="hardAlpha" operator="arithmetic" k2="-1" k3="1"/>
<feColorMatrix type="matrix" values="0 0 0 0 0.768627 0 0 0 0 0.823529 0 0 0 0 0.886275 0 0 0 1 0"/>
<feBlend mode="normal" in2="shape" result="effect1_innerShadow"/>
</filter>
</defs>
</svg>
