<svg width="1200" height="1600" viewBox="0 0 1200 1600" fill="none" xmlns="http://www.w3.org/2000/svg">
<path d="M513.29 1013.65L636.156 1025.03V1401.54H547.157L513.29 1013.65Z" fill="#2B2B2B"/>
<ellipse cx="653.926" cy="1047.16" rx="118.297" ry="60.9254" fill="#2B2B2B"/>
<path d="M663.573 1025.83H789.485V1401.54H698.279L663.573 1025.83Z" fill="#2B2B2B"/>
<path d="M835.179 741.516C879.858 820.719 937.737 921.246 860.565 1000.45" stroke="#EBBAAA" stroke-width="75.1413" stroke-linecap="round" stroke-linejoin="bevel"/>
<path d="M537.66 655.205C515.321 732.378 407.686 894.845 312.236 827.827" stroke="#EBBAAA" stroke-width="75.1413" stroke-linecap="round" stroke-linejoin="bevel"/>
<path d="M507.489 610.103C547.27 573.586 610.29 581.374 639.985 626.476C667.676 668.536 654.321 725.225 610.767 750.5L495.012 817.673L385.347 722.223L507.489 610.103Z" fill="#C65829"/>
<path d="M825.308 614.685C790.274 573.592 726.774 573.642 691.804 614.789C659.193 653.16 665.54 711.054 705.69 741.449L812.395 822.228L932.875 740.855L825.308 614.685Z" fill="#E06F3F"/>
<path d="M507.59 689.482C511.862 632.357 559.457 588.188 616.742 588.188H691.197C751.648 588.188 800.654 637.193 800.654 697.645V844.093L800.655 1056.3L496.029 1046.3L496.028 844.093L507.59 689.482Z" fill="#D8612E"/>
<mask id="mask0" mask-type="alpha" maskUnits="userSpaceOnUse" x="496" y="588" width="306" height="476">
<path d="M507.717 689.589C511.937 632.418 559.552 588.188 616.878 588.188H691.772C752.224 588.188 801.23 637.193 801.23 697.645V847.979L801.23 1063.41L496.029 1053.25L496.028 847.979L507.717 689.589Z" fill="#D8612E"/>
</mask>
<g mask="url(#mask0)">
<path d="M488.92 977.095L805.732 964.91" stroke="#F19F3E" stroke-width="16.2468"/>
<path d="M491.966 719.177L806.748 712.069" stroke="#F19F3E" stroke-width="16.2468"/>
<path d="M493.997 753.701L810.809 741.516" stroke="#F19F3E" stroke-width="9.13881"/>
<path d="M488.92 658.252L805.732 651.144" stroke="#F19F3E" stroke-width="9.13881"/>
<path d="M483.843 996.388L800.655 984.203" stroke="#F19F3E" stroke-width="11.1697"/>
<path d="M484.858 933.432H802.686" stroke="#FFAB48" stroke-width="10.1542"/>
<path d="M489.935 1023.8L805.732 1032.94" stroke="#FFAB48" stroke-width="10.1542"/>
<path d="M488.92 887.738H802.686" stroke="#E2852F" stroke-width="16.2468"/>
<path d="M489.935 769.948H803.701" stroke="#E2852F" stroke-width="16.2468"/>
<path d="M490.951 835.951H804.717" stroke="#E2852F" stroke-width="8.12339"/>
<path d="M495.012 613.573H808.778" stroke="#E2852F" stroke-width="8.12339"/>
<path d="M487.904 629.82L804.717 635.912" stroke="#FFAB48" stroke-width="11.1697"/>
</g>
<path d="M449.261 1470.22C447.341 1465.9 448.723 1456.26 449.798 1454.65C450.873 1453.03 581.391 1442.83 581.391 1442.83C603.054 1441.22 647.284 1431.17 650.251 1442.83C660.368 1482.57 633.484 1482.57 616.297 1482.57C592.664 1482.57 589.86 1476.32 574.408 1478.28C566.352 1479.3 554.536 1484.72 500.289 1484.72C456.781 1484.72 453.558 1479.89 449.261 1470.22Z" fill="#29282D"/>
<path d="M585.274 1400.74C607.198 1400.33 616.951 1394.05 625.545 1379.97H636.287C645.924 1379.97 633.869 1389.84 636.287 1400.74C639.511 1415.28 642.233 1413.2 645.457 1426.7C647.689 1436.05 648.143 1450.07 642.77 1457.86C634.425 1469.95 623.963 1468.76 606.23 1468.76C596.02 1468.76 578.825 1466.16 563.242 1470.32C541.485 1476.12 481.565 1479.14 466.517 1474.47C440.877 1466.51 448.785 1443.32 459.531 1434.49C478.391 1419 514.82 1420.07 524.014 1408.01C531.537 1398.15 535.818 1374.34 541.21 1368.55C550.882 1358.17 557.453 1367.32 555.718 1377.38C553.57 1389.84 557.869 1401.26 585.274 1400.74Z" fill="#504D5A"/>
<mask id="mask1" mask-type="alpha" maskUnits="userSpaceOnUse" x="449" y="1363" width="198" height="118">
<path d="M585.146 1402.01C607.06 1401.58 614.329 1387.51 615.224 1380.53H626.502C627.576 1382.14 631.067 1385.9 633.484 1397.18C636.706 1412.21 642.078 1414.9 645.301 1428.86C647.532 1438.53 647.986 1453.03 642.615 1461.09C634.274 1473.6 623.817 1472.37 606.093 1472.37C595.887 1472.37 578.701 1469.68 563.125 1473.98C541.378 1479.98 481.486 1483.11 466.446 1478.28C440.818 1470.04 448.723 1446.05 459.463 1436.92C478.314 1420.9 514.726 1422 523.916 1409.53C531.435 1399.32 535.714 1374.7 541.103 1368.71C550.771 1357.97 557.338 1367.43 555.605 1377.84C553.458 1390.73 557.755 1402.55 585.146 1402.01Z" fill="#726E7F"/>
</mask>
<g mask="url(#mask1)">
<path d="M549.158 1379.99C550.447 1372.25 552.918 1367.46 553.992 1366.02L551.845 1360.65H539.491C533.762 1365.67 524.13 1377.95 531.434 1386.97C540.565 1398.25 547.547 1389.66 549.158 1379.99Z" fill="#D9D8DD"/>
</g>
<mask id="mask2" mask-type="alpha" maskUnits="userSpaceOnUse" x="449" y="1363" width="198" height="118">
<path d="M585.209 1402.01C607.123 1401.58 614.392 1387.51 615.287 1380.53H628.83C629.904 1382.14 631.13 1385.9 633.547 1397.18C636.769 1412.21 642.141 1414.9 645.363 1428.86C647.594 1438.53 648.048 1453.03 642.678 1461.09C634.337 1473.6 623.88 1472.37 606.155 1472.37C595.95 1472.37 578.764 1469.68 563.188 1473.98C541.441 1479.98 481.549 1483.11 466.509 1478.28C440.881 1470.04 448.786 1446.05 459.526 1436.92C478.377 1420.9 514.789 1422 523.979 1409.53C531.498 1399.32 535.777 1374.7 541.166 1368.71C550.834 1357.97 557.401 1367.43 555.668 1377.84C553.521 1390.73 557.817 1402.55 585.209 1402.01Z" fill="#4F4A56"/>
</mask>
<g mask="url(#mask2)">
<path d="M472.891 1453.57C463.009 1453.57 460.538 1447.48 460.538 1444.44C459.822 1453.93 460.001 1474.3 466.446 1479.89C474.503 1486.87 534.658 1483.11 542.714 1479.89C550.77 1476.67 541.64 1460.55 534.658 1464.85C527.675 1469.15 505.654 1467 497.061 1460.55C488.467 1454.11 485.245 1453.57 472.891 1453.57Z" fill="#29282D"/>
<path d="M539.609 1437.06C515.218 1446.68 491.271 1458.98 475.158 1467.14C478.597 1467.14 466.51 1473.7 491.271 1470.32C496.89 1469.55 580.966 1428.96 643.806 1425.74C659.919 1415.53 551.963 1432.18 539.609 1437.06Z" fill="#29282D"/>
<path d="M636.072 1416.86C632.742 1418.39 629.455 1419.99 626.082 1421.44C616.164 1425.72 604.085 1429.18 593.719 1432.13C584.713 1434.68 575.694 1437.16 566.37 1438.32C562.084 1438.85 557.77 1439.24 553.455 1438.81C551.747 1438.64 550.024 1438.26 548.403 1437.71C546.665 1437.12 546.115 1435.82 546.68 1434.05C546.998 1433.09 547.462 1432.13 548.012 1431.26C549.764 1428.52 552.095 1426.28 554.469 1424.08C554.628 1423.94 554.773 1423.79 554.932 1423.65C537.863 1429.69 520.664 1438.38 503.132 1442.76C503.305 1442.86 503.465 1442.89 503.624 1442.9C505.81 1443.06 508.011 1443.19 510.197 1443.38C517.653 1444.06 524.992 1441.79 532.231 1443.74C539.195 1445.62 545.608 1448.55 551.009 1453.42C555.381 1457.36 559.587 1467.22 561.093 1473C561.223 1473.54 561.556 1473.45 561.904 1473.45C567.435 1473.45 572.103 1468.17 577.634 1468.17C577.894 1468.17 578.14 1468.17 578.459 1468.17C578.401 1467.91 578.386 1467.75 578.329 1467.59C577.561 1465.31 577.17 1462.96 577.17 1460.56C577.199 1452.79 580.269 1446.66 587.247 1442.9C590.114 1441.35 593.183 1440.08 596.267 1439C606.184 1435.53 617.974 1432.04 627.921 1428.64C628.311 1428.51 628.731 1428.21 628.977 1427.87C631.511 1424.33 634.016 1420.76 636.535 1417.19C636.68 1416.99 636.796 1416.79 637.042 1416.41C636.535 1413.72 639.402 1415.33 636.072 1416.86ZM569.425 1450C568.049 1451.83 567.369 1454 566.79 1456.39C564.082 1452.5 560.637 1449.58 557.075 1446.7C562.765 1446.98 568.31 1446.27 573.754 1444.74C572.277 1446.5 570.771 1448.19 569.425 1450Z" fill="#D9D8DD"/>
<path d="M640.923 1399.84C640.923 1426.07 610.488 1445.23 557.871 1473.11C561.31 1473.11 564.061 1476.49 588.822 1473.11C594.442 1472.34 643.331 1437.83 649.177 1426.07C645.394 1414.3 640.923 1383.39 640.923 1399.84Z" fill="#29282D"/>
<path d="M462.15 1441.22C461.72 1434.77 459.106 1433.52 457.853 1433.7L440.129 1434.77L442.277 1467L464.835 1479.89C469.132 1479.71 477.726 1477.74 477.726 1471.3C477.726 1463.24 469.669 1463.24 464.835 1458.41C460.002 1453.57 462.687 1449.27 462.15 1441.22Z" fill="#29282D"/>
</g>
<path d="M545.517 1413.92L522.842 1405.77L524.453 1427.25L499.747 1418.12L495.45 1437.46L475.577 1425.64" stroke="#2A2A2A" stroke-width="6.44516" stroke-linecap="round" stroke-linejoin="round"/>
<path d="M882.007 1470.22C883.926 1465.9 882.545 1456.26 881.47 1454.65C880.395 1453.03 749.877 1442.83 749.877 1442.83C728.214 1441.22 683.984 1431.17 681.017 1442.83C670.9 1482.57 697.784 1482.57 714.971 1482.57C738.604 1482.57 741.408 1476.32 756.86 1478.28C764.916 1479.3 776.732 1484.72 830.979 1484.72C874.487 1484.72 877.71 1479.89 882.007 1470.22Z" fill="#29282D"/>
<path d="M745.994 1400.74C724.07 1400.33 714.317 1394.05 705.723 1379.97H694.981C685.344 1379.97 697.399 1389.84 694.981 1400.74C691.757 1415.28 689.035 1413.2 685.811 1426.7C683.579 1436.05 683.125 1450.07 688.498 1457.86C696.843 1469.95 707.305 1468.76 725.038 1468.76C735.248 1468.76 752.443 1466.16 768.026 1470.32C789.783 1476.12 849.703 1479.14 864.751 1474.47C890.391 1466.51 882.483 1443.32 871.737 1434.49C852.877 1419 816.448 1420.07 807.254 1408.01C799.731 1398.15 795.45 1374.34 790.058 1368.55C780.386 1358.17 773.815 1367.32 775.55 1377.38C777.698 1389.84 773.399 1401.26 745.994 1400.74Z" fill="#504D5A"/>
<mask id="mask3" mask-type="alpha" maskUnits="userSpaceOnUse" x="684" y="1363" width="198" height="118">
<path d="M746.122 1402.01C724.208 1401.58 716.939 1387.51 716.044 1380.53H704.766C703.692 1382.14 700.201 1385.9 697.784 1397.18C694.562 1412.21 689.19 1414.9 685.967 1428.86C683.736 1438.53 683.282 1453.03 688.653 1461.09C696.994 1473.6 707.451 1472.37 725.175 1472.37C735.381 1472.37 752.567 1469.68 768.143 1473.98C789.89 1479.98 849.782 1483.11 864.822 1478.28C890.45 1470.04 882.545 1446.05 871.805 1436.92C852.954 1420.9 816.542 1422 807.352 1409.53C799.833 1399.32 795.554 1374.7 790.165 1368.71C780.497 1357.97 773.93 1367.43 775.663 1377.84C777.81 1390.73 773.513 1402.55 746.122 1402.01Z" fill="#726E7F"/>
</mask>
<g mask="url(#mask3)">
<path d="M782.11 1379.99C780.821 1372.25 778.35 1367.46 777.276 1366.02L779.423 1360.65H791.777C797.506 1365.67 807.138 1377.95 799.834 1386.97C790.703 1398.25 783.721 1389.66 782.11 1379.99Z" fill="#D9D8DD"/>
</g>
<mask id="mask4" mask-type="alpha" maskUnits="userSpaceOnUse" x="684" y="1363" width="198" height="118">
<path d="M746.059 1402.01C724.145 1401.58 716.876 1387.51 715.981 1380.53H702.438C701.364 1382.14 700.138 1385.9 697.721 1397.18C694.499 1412.21 689.127 1414.9 685.904 1428.86C683.673 1438.53 683.22 1453.03 688.59 1461.09C696.931 1473.6 707.388 1472.37 725.113 1472.37C735.318 1472.37 752.504 1469.68 768.08 1473.98C789.827 1479.98 849.719 1483.11 864.759 1478.28C890.387 1470.04 882.482 1446.05 871.742 1436.92C852.891 1420.9 816.479 1422 807.289 1409.53C799.77 1399.32 795.491 1374.7 790.102 1368.71C780.434 1357.97 773.867 1367.43 775.6 1377.84C777.747 1390.73 773.451 1402.55 746.059 1402.01Z" fill="#4F4A56"/>
</mask>
<g mask="url(#mask4)">
<path d="M858.377 1453.57C868.259 1453.57 870.73 1447.48 870.73 1444.44C871.446 1453.93 871.267 1474.3 864.822 1479.89C856.765 1486.87 796.611 1483.11 788.554 1479.89C780.498 1476.67 789.628 1460.55 796.611 1464.85C803.593 1469.15 825.614 1467 834.207 1460.55C842.801 1454.11 846.023 1453.57 858.377 1453.57Z" fill="#29282D"/>
<path d="M791.659 1437.06C816.05 1446.68 839.997 1458.98 856.11 1467.14C852.671 1467.14 864.758 1473.7 839.997 1470.32C834.378 1469.55 750.302 1428.96 687.462 1425.74C671.349 1415.53 779.305 1432.18 791.659 1437.06Z" fill="#29282D"/>
<path d="M695.196 1416.86C698.526 1418.39 701.813 1419.99 705.186 1421.44C715.104 1425.72 727.183 1429.18 737.549 1432.13C746.555 1434.68 755.574 1437.16 764.898 1438.32C769.184 1438.85 773.498 1439.24 777.812 1438.81C779.521 1438.64 781.244 1438.26 782.865 1437.71C784.603 1437.12 785.153 1435.82 784.588 1434.05C784.27 1433.09 783.806 1432.13 783.256 1431.26C781.504 1428.52 779.173 1426.28 776.799 1424.08C776.64 1423.94 776.495 1423.79 776.336 1423.65C793.405 1429.69 810.604 1438.38 828.136 1442.76C827.963 1442.86 827.803 1442.89 827.644 1442.9C825.458 1443.06 823.257 1443.19 821.071 1443.38C813.615 1444.06 806.276 1441.79 799.037 1443.74C792.073 1445.62 785.66 1448.55 780.259 1453.42C775.887 1457.36 771.68 1467.22 770.175 1473C770.044 1473.54 769.711 1473.45 769.364 1473.45C763.833 1473.45 759.165 1468.17 753.634 1468.17C753.374 1468.17 753.128 1468.17 752.809 1468.17C752.867 1467.91 752.881 1467.75 752.939 1467.59C753.707 1465.31 754.098 1462.96 754.098 1460.56C754.069 1452.79 750.999 1446.66 744.021 1442.9C741.154 1441.35 738.085 1440.08 735.001 1439C725.084 1435.53 713.294 1432.04 703.347 1428.64C702.957 1428.51 702.537 1428.21 702.291 1427.87C699.757 1424.33 697.252 1420.76 694.733 1417.19C694.588 1416.99 694.472 1416.79 694.226 1416.41C694.733 1413.72 691.866 1415.33 695.196 1416.86ZM761.843 1450C763.219 1451.83 763.899 1454 764.478 1456.39C767.186 1452.5 770.631 1449.58 774.193 1446.7C768.503 1446.98 762.958 1446.27 757.514 1444.74C758.991 1446.5 760.497 1448.19 761.843 1450Z" fill="#D9D8DD"/>
<path d="M690.345 1399.84C690.345 1426.07 720.78 1445.23 773.397 1473.11C769.958 1473.11 767.207 1476.49 742.446 1473.11C736.826 1472.34 687.937 1437.83 682.091 1426.07C685.874 1414.3 690.345 1383.39 690.345 1399.84Z" fill="#29282D"/>
<path d="M869.118 1441.22C869.548 1434.77 872.162 1433.52 873.415 1433.7L891.139 1434.77L888.991 1467L866.432 1479.89C862.136 1479.71 853.542 1477.74 853.542 1471.3C853.542 1463.24 861.599 1463.24 866.432 1458.41C871.266 1453.57 868.581 1449.27 869.118 1441.22Z" fill="#29282D"/>
</g>
<path d="M785.751 1413.92L808.426 1405.77L806.815 1427.25L831.521 1418.12L835.818 1437.46L855.691 1425.64" stroke="#2A2A2A" stroke-width="6.44516" stroke-linecap="round" stroke-linejoin="round"/>
<circle cx="651.388" cy="629.82" r="69.0488" fill="#C65829"/>
<rect x="606.254" y="547.362" width="91.7357" height="119.882" rx="45.8679" fill="#EBBAAA"/>
<path d="M591.711 412.059C591.711 443.771 579.131 475.564 545.699 475.564C512.266 475.564 470.642 443.771 470.642 412.059C470.642 380.347 497.744 354.64 531.177 354.64C564.609 354.64 591.711 380.347 591.711 412.059Z" fill="#EBBAAA"/>
<path d="M721.452 412.059C721.452 443.771 734.032 475.564 767.465 475.564C800.897 475.564 842.521 443.771 842.521 412.059C842.521 380.347 815.419 354.64 781.987 354.64C748.554 354.64 721.452 380.347 721.452 412.059Z" fill="#EBBAAA"/>
<path d="M502.119 308.613C498.247 223.045 566.575 151.555 652.231 151.555C739.151 151.555 807.942 225.081 802.164 311.809L796.593 404.396L784.279 500.86C782.338 516.064 779.779 531.428 772.671 545.008C754.713 579.315 720.949 601.388 669.115 601.388H640.828C573.947 601.388 524.46 560.771 516.336 523.708L502.416 419.627V315.178L502.119 308.613Z" fill="#EED4CC"/>
<path d="M612.705 514.408C631.32 507.09 646.493 508.769 672.558 517.022" stroke="#C99584" stroke-width="15.6368" stroke-linecap="round"/>
<path d="M688.451 337.378L727.544 330.27L749.884 337.378" stroke="#6F6C6C" stroke-width="16.2468" stroke-linecap="round"/>
<path d="M609.248 336.942L570.154 329.834L547.814 336.942" stroke="#6F6C6C" stroke-width="16.2468" stroke-linecap="round"/>
<path d="M578.455 380.994L596.872 382.655" stroke="black" stroke-width="25.0188" stroke-linecap="round"/>
<path d="M720.871 380.616L702.419 382.321" stroke="black" stroke-width="25.0188" stroke-linecap="round"/>
<path d="M643.968 397.281C641.891 412.414 618.921 461.422 641.176 461.422H656.292" stroke="#EBBAAA" stroke-width="17.7217"/>
<path d="M761.053 286.942V210.672C761.053 199.147 761.312 196.231 798.585 223.892C835.857 251.553 830.94 328.147 815.409 360.689L801.173 402.365L784.996 395.755L788.231 346.433C770.113 328.11 761.053 311.349 761.053 286.942Z" fill="#6E6C6C"/>
<path d="M529.537 280.842V204.579C529.537 193.054 529.357 190.139 503.533 217.798C477.708 245.456 479.496 316.516 490.256 349.055L496.706 379.01H508.431V341.439C525.434 315.038 529.537 305.247 529.537 280.842Z" fill="#6E6C6C"/>
<path d="M682.227 211.074C626.163 198.415 586.572 221.104 568.487 228.032C550.402 234.961 540.229 243.857 526.242 252.896C512.678 251.992 505.754 228.597 507.45 215.599C507.45 194.123 530.96 168.803 566.226 148.91C610.309 124.043 692.143 117.25 759.512 157.952C813.767 190.732 809.246 248.378 791.161 265.333C773.076 282.288 752.307 226.899 682.227 211.074Z" fill="#1F1F20"/>
<path d="M577.53 220.705C619.54 228.875 608.496 198.82 608.496 184.603V152.3C608.496 139.169 692.767 157.968 700.061 198.82C705.895 231.502 672.345 252.317 657.758 252.803C627.126 253.824 592.117 246.967 577.53 220.705Z" fill="#1F1F20"/>
<path d="M688.301 239.335C711.416 245.642 697.458 204.156 688.301 193.557C688.301 189.803 697.458 179.892 697.458 171.783C697.458 161.647 743.825 172.621 747.838 204.156C751.048 229.384 738.882 240.261 732.384 244.987C719.95 254.03 696.327 259.608 688.301 239.335Z" fill="#1F1F20"/>
<path d="M551.532 246.117C574.647 252.424 577.53 216.729 577.53 210.938C584.312 182.819 608.048 179.428 620.482 179.428H620.506C630.635 179.428 641.339 179.428 645.349 210.938C648.559 236.166 620.482 246.117 599.571 254.03C585.192 259.47 559.558 266.39 551.532 246.117Z" fill="#1F1F20"/>
<path d="M569.668 119.744C569.668 148.944 602.338 150.141 621.207 148.944L644.171 159.897C655.048 165.085 616.857 214.846 580.729 203.498C551.827 194.419 547.086 174.321 545.716 164.141C543.096 144.663 545.716 134.438 569.668 119.744Z" fill="#1F1F20"/>
<path d="M603.578 119.744C603.578 148.944 636.248 150.141 655.117 148.944L678.08 159.897C688.958 165.085 650.767 214.846 614.639 203.498C585.737 194.419 580.996 174.321 579.626 164.141C577.005 144.663 579.626 134.438 603.578 119.744Z" fill="#1F1F20"/>
<path d="M793.479 175.475C793.479 192.25 770.498 192.838 759.658 192.15L746.466 198.442C740.217 201.423 762.157 230.01 782.912 223.49C799.515 218.274 802.239 206.728 803.026 200.88C804.532 189.69 803.026 182.257 793.479 175.475Z" fill="#1F1F20"/>
<path d="M625.442 381.138C625.442 381.138 631.999 377.623 644.825 377.959C657.652 378.294 664.683 382.508 664.683 382.508" stroke="#2E2622" stroke-width="27.4164" stroke-linecap="round"/>
<path d="M625.378 393.558C624.985 408.572 620.606 420.154 611.896 427.928C603.132 435.752 589.122 440.494 567.848 439.937C541.006 439.234 528.616 435.249 521.793 428.224C518.383 424.713 516.005 420.079 514.108 413.692C512.19 407.237 510.871 399.387 509.339 389.603C507.897 380.394 508.529 373.871 510.44 369.201C512.29 364.682 515.534 361.415 520.414 359.008C525.432 356.533 532.14 355 540.627 354.201C549.076 353.405 558.942 353.363 570.107 353.655C596.008 354.333 609.642 359.97 616.815 366.986C623.85 373.868 625.653 383.054 625.378 393.558Z" fill="#353232" stroke="#2E2622" stroke-width="10.1542"/>
<path d="M495.233 370.463C495.006 368.038 496.949 365.96 499.383 366.024L514.093 366.409L513.429 391.786L500.79 391.455C498.734 391.401 497.043 389.82 496.852 387.773L495.233 370.463Z" fill="#2E2622"/>
<path d="M666.735 394.641C666.342 409.655 670.109 421.45 678.4 429.67C686.743 437.942 700.485 443.41 721.76 443.967C748.601 444.67 761.183 441.339 768.365 434.68C771.954 431.353 774.571 426.849 776.8 420.57C779.052 414.225 780.781 406.454 782.823 396.764C784.745 387.644 784.455 381.096 782.79 376.333C781.18 371.723 778.111 368.29 773.364 365.632C768.482 362.897 761.864 361.016 753.43 359.773C745.034 358.536 735.184 357.978 724.019 357.685C698.118 357.007 684.208 361.922 676.678 368.554C669.292 375.058 667.01 384.137 666.735 394.641Z" fill="#353232" stroke="#2E2622" stroke-width="10.1542"/>
<path d="M797.911 378.389C798.264 375.979 796.433 373.803 793.999 373.739L779.289 373.354L778.624 398.731L791.263 399.062C793.319 399.116 795.09 397.625 795.389 395.591L797.911 378.389Z" fill="#2E2622"/>
<path d="M852.949 944.093C877.319 944.093 891.197 951.54 897.628 957.294C905.751 954.586 918.139 946.124 910.828 935.97C903.517 925.816 872.242 921.077 860.565 919.723C852.949 928.354 851.426 935.462 852.949 944.093Z" fill="#1D1C1C"/>
<path d="M921.425 919.566L942.335 930.684L947.04 944.254L928.51 979.104L915.158 981.796L894.248 970.678L890.009 958.633L908.539 923.783L921.425 919.566Z" fill="#3C3C3C"/>
<rect x="918.948" y="933.525" width="21.7475" height="31.5757" rx="3.04627" transform="rotate(28 918.948 933.525)" fill="#AFB0B1"/>
<circle cx="858.534" cy="997.403" r="39.6015" fill="#EBBAAA"/>
<path d="M309.19 498.83C292.435 475.475 324.015 511.015 342.699 555.694C366.054 611.542 281.774 600.373 283.804 638.959C285.835 677.545 319.292 692.361 309.19 716.131C300.559 736.44 293.959 759.794 283.804 759.794" stroke="#DDE1E4" stroke-width="13.2005"/>
<path d="M284.582 750.595C290.162 753.008 291.211 760.471 286.512 764.329L224.709 815.073C219.808 819.097 212.392 816.204 211.51 809.925L199.917 727.439C199.035 721.159 205.366 716.335 211.186 718.852L284.582 750.595Z" fill="#CAB28D"/>
<path d="M274.892 718.796C275.351 711.051 286.117 709.538 288.693 716.857L350.086 891.317C351.576 895.552 348.816 900.091 344.37 900.715L272.05 910.879C267.604 911.504 263.7 907.902 263.965 903.421L274.892 718.796Z" fill="#E0C398"/>
<rect x="253.26" y="889.804" width="104.38" height="26.9647" rx="13.4824" transform="rotate(-8 253.26 889.804)" fill="#CAB28D"/>
<rect x="258.54" y="839.873" width="80.0243" height="26.9647" rx="13.4824" transform="rotate(-8 258.54 839.873)" fill="#CAB28D"/>
<path d="M292.425 749.049C287.716 752.906 288.767 760.382 294.357 762.792L372.616 796.533C378.435 799.042 384.759 794.218 383.877 787.943L371.545 700.197C370.663 693.922 363.255 691.028 358.353 695.044L292.425 749.049Z" fill="#CAB28D"/>
<rect x="366.508" y="801.861" width="110.468" height="26.9647" rx="13.4824" transform="rotate(-98 366.508 801.861)" fill="#E0C398"/>
<rect x="201.988" y="824.983" width="110.468" height="26.9647" rx="13.4824" transform="rotate(-98 201.988 824.983)" fill="#E0C398"/>
<path d="M329.37 865.215C330.224 889.668 310.317 901.345 285.288 902.219C260.259 903.093 235.418 892.979 234.564 868.525C233.711 844.072 245.536 795.126 270.565 794.252C295.594 793.378 328.516 840.761 329.37 865.215Z" fill="#EED4CC"/>
<circle cx="273.143" cy="462.782" r="70.5719" fill="#2A89E0"/>
</svg>
