<svg width="1200" height="1600" viewBox="0 0 1200 1600" fill="none" xmlns="http://www.w3.org/2000/svg">
<path d="M406.141 1088.56C428.141 1048.18 474.341 976.176 483.141 1011.19C494.141 1054.97 528.141 1128.26 496.141 1160.84" stroke="#323337" stroke-width="57"/>
<path d="M303.141 1152.69C325.905 1040.45 381.141 1066.16 407.141 1060.06C525.141 1060.06 510.377 1134.64 512.377 1167.21C514.377 1199.79 504.377 1368.77 476.377 1395.24C448.377 1421.7 283.141 1365.45 262.141 1332.87C262.141 1266.44 273.141 1232.09 303.141 1152.69Z" fill="#3F4244"/>
<path d="M472.012 1241.21C475.448 1204.58 467.141 1080.76 450.641 1063.97C536.641 1081.27 517.118 1166.92 517.118 1232.05C517.118 1308.71 487.048 1395.89 472.012 1400.98C456.977 1406.07 395.833 1391.82 417.885 1395.89C439.937 1399.97 465.998 1305.32 472.012 1241.21Z" fill="#37383B"/>
<path d="M440.141 1357.3V1252.45L400.141 1257.54C396.141 1293.17 390.541 1366.26 400.141 1373.59C412.141 1382.75 440.141 1362.39 440.141 1357.3Z" fill="#37383C"/>
<path d="M298.514 1212.33L298.616 1212.34C331.416 1207.45 406.283 1233.38 439.616 1246.95C440.283 1250.34 437.816 1259.98 422.616 1271.38C403.616 1285.63 412.431 1362.64 400.616 1369.11C374.141 1383.61 270.141 1336.78 257.616 1326.35C255.283 1307.69 259.641 1252.54 269.641 1232.95C280.97 1210.75 287.245 1211.32 298.514 1212.33Z" fill="#4F5256"/>
<path d="M280.641 1238.04C312.141 1241.09 389.141 1265.52 401.141 1273.67" stroke="#37383B" stroke-width="8" stroke-linecap="round"/>
<path d="M569.292 1093.14C556.929 1153.95 537.498 1326.95 547.801 1400.34" stroke="#F5D0C3" stroke-width="85" stroke-linecap="round" stroke-linejoin="bevel"/>
<path d="M747.292 1138.23C759.292 1199.04 773.292 1326.95 763.292 1400.34" stroke="#F5D0C3" stroke-width="85" stroke-linecap="round" stroke-linejoin="bevel"/>
<path d="M674.639 1087.9L509.138 955.797C509.138 955.797 479.292 1024.99 479.292 1113.06C479.292 1215.81 496.885 1346.87 501.292 1358.93C505.699 1370.98 554.292 1367.31 588.292 1351.06C626.292 1196.42 674.639 1087.9 674.639 1087.9Z" fill="#232526"/>
<path d="M502.271 1366.07L496.792 1335.32C522.654 1350.98 569.579 1345.18 592.292 1335.32C592.292 1359.11 589.308 1363.17 589.308 1371.29C562.451 1389.86 513.213 1383.48 502.271 1366.07Z" fill="#3F4244"/>
<ellipse cx="661.792" cy="1045.64" rx="174" ry="104.845" fill="#232526"/>
<path d="M651.386 1081.09L821.386 984.105C821.386 984.105 839.292 1031.29 839.292 1117.26C839.292 1203.23 825.386 1291.3 809.292 1352.11C785.792 1373.08 743.286 1387.76 728.292 1373.08C713.298 1358.4 651.386 1081.09 651.386 1081.09Z" fill="#232526"/>
<path d="M838.792 1101.63C806.792 1117.11 769.125 1114.19 754.792 1110.79C758.125 1139.64 766.792 1201.8 774.792 1219.72C797.792 1227.86 811.792 1226.84 832.792 1219.72C837.792 1180.02 842.792 1133.19 838.792 1101.63Z" fill="#3F4244"/>
<path d="M771.792 1129.63C785.792 1129.63 816.292 1129.63 832.792 1120.46" stroke="#232526" stroke-width="8"/>
<path d="M812.292 1372.41V1340.86C786.43 1356.52 739.505 1350.72 716.792 1340.85C716.792 1364.65 719.776 1368.71 719.776 1376.83C746.633 1395.4 801.35 1389.82 812.292 1372.41Z" fill="#3F4244"/>
<path d="M515.292 686.346C498.292 713.606 427.292 870.873 457.292 969.428" stroke="#F5D0C3" stroke-width="100" stroke-linecap="round" stroke-linejoin="bevel"/>
<path d="M821.292 683.201C838.292 710.46 906.292 798.53 876.292 897.085" stroke="#F5D0C3" stroke-width="100" stroke-linecap="round" stroke-linejoin="bevel"/>
<path d="M463.292 664.328C492.432 609.045 540.056 613.217 560.292 615.311L522.519 806.918L411.792 770.746C417.792 761.834 422.404 762.924 424.292 756.592C430.647 735.284 440.828 706.946 463.292 664.328Z" fill="#D13227"/>
<path d="M411.046 769.174L459.403 781.755L508.292 792.24L500.852 813.209L459.403 804.821L398.292 784.901L411.046 769.174Z" fill="#E23F34"/>
<path d="M405.292 801.152L470.297 810.064L533.046 820.548L537.292 847.284L503.292 844.663C503.292 844.663 476.792 853.574 453.292 838.372C429.792 823.169 396.792 814.257 396.792 814.257L405.292 801.152Z" fill="#D13227"/>
<path d="M398.792 784.376L464.292 804.821L518.292 809.539L509.292 834.702L455.792 822.12L404.292 801.151L398.792 784.376Z" fill="#B62C23"/>
<path d="M878.292 665.097C849.152 609.814 801.528 613.986 781.292 616.08L819.065 807.686L929.792 771.515C923.792 762.603 919.18 763.693 917.292 757.36C910.937 736.052 900.756 707.715 878.292 665.097Z" fill="#D13227"/>
<path d="M930.538 769.942L882.181 782.524L833.292 793.008L840.732 813.977L882.181 805.59L943.292 785.669L930.538 769.942Z" fill="#E23F34"/>
<path d="M936.292 801.92L871.287 810.832L808.538 821.317L804.292 848.052L835.792 856.301C835.792 856.301 860.792 839.14 888.292 839.14C915.792 839.14 936.292 867.499 936.292 867.499L941.792 832.888L936.292 801.92Z" fill="#D13227"/>
<path d="M942.792 785.145L877.292 805.589L823.292 810.307L832.292 835.47L885.792 822.889L937.292 801.92L942.792 785.145Z" fill="#B62C23"/>
<path d="M521.802 649.741C526.692 619.71 552.438 597.788 582.871 597.504L677.074 596.622L765.199 604.466C793.629 606.996 816.882 628.323 821.305 656.545C831.335 720.541 847.356 835.264 847.356 915.144C847.356 1031.42 869.242 1042.54 835.356 1057.78C801.471 1073.01 530.37 1070.87 493.356 1047.25C456.343 1023.63 479.357 999.02 479.357 950.791C479.357 915.08 507.298 738.828 521.802 649.741Z" fill="#E23D32"/>
<ellipse cx="665.792" cy="637.592" rx="59.5" ry="66.5766" fill="#CC2217"/>
<path d="M630.292 702.072C598.292 695.362 529.292 622.39 565.292 584.646C588.292 553.193 625.292 595.131 630.292 616.1C634.292 632.875 645.292 674.113 652.292 685.297C660.292 693.335 662.292 708.782 630.292 702.072Z" fill="#F06057"/>
<path d="M706.293 701.848C738.293 695.138 807.293 622.166 771.293 584.422C748.293 552.969 711.293 594.907 706.293 615.876C702.293 632.651 691.293 673.89 684.293 685.073C676.293 693.111 674.293 708.559 706.293 701.848Z" fill="#F06057"/>
<path d="M627.6 854.359L631.563 854.069L631.299 850.104L625.339 760.743L625.071 756.725L621.055 757.019L600.106 758.555L596.143 758.846L596.407 762.811L598.437 793.235L584.15 794.282L582.124 763.911L581.856 759.893L577.84 760.188L556.892 761.724L552.929 762.014L553.193 765.979L559.153 855.34L559.421 859.358L563.437 859.064L584.385 857.528L588.348 857.237L588.084 853.272L585.988 821.844L600.275 820.797L602.367 852.172L602.635 856.19L606.651 855.895L627.6 854.359ZM718.913 753.882L718.645 749.865L714.629 750.159L693.68 751.695L689.717 751.986L689.981 755.95L693.815 813.433C694.044 816.865 693.256 819.158 692.155 820.566C691.092 821.926 689.408 822.888 686.893 823.073C684.385 823.257 682.694 822.551 681.55 821.411C680.339 820.206 679.286 818.055 679.053 814.568L675.219 757.086L674.951 753.068L670.936 753.362L649.987 754.898L646.024 755.189L646.288 759.154L650.155 817.138C651.62 839.099 669.023 852.079 688.783 850.631C708.487 849.186 724.245 833.84 722.78 811.867L718.913 753.882ZM771.111 843.838L775.074 843.547L774.809 839.582L768.849 750.221L768.581 746.204L764.566 746.498L743.617 748.034L739.654 748.324L739.918 752.289L745.878 841.651L746.146 845.668L750.162 845.374L771.111 843.838Z" fill="#E23D32" stroke="#F06057" stroke-width="8"/>
<path d="M618.292 680.054L618.292 822.134" stroke="#CC2217" stroke-width="14" stroke-linecap="round"/>
<path d="M618.292 820.441L618.292 833.127" stroke="#FFAB49" stroke-width="10" stroke-linecap="round"/>
<path d="M716.292 680.054L716.292 843.612" stroke="#CC2217" stroke-width="14" stroke-linecap="round"/>
<path d="M716.292 841.515L716.292 856.193" stroke="#FFAB49" stroke-width="10" stroke-linecap="round"/>
<rect x="628.332" y="562.645" width="76.8567" height="120.871" rx="38.4283" fill="#EBBAAA"/>
<ellipse cx="518.455" cy="419.838" rx="58.0695" ry="57.7493" fill="#EBBAAA"/>
<ellipse cx="820.455" cy="424.316" rx="58.0695" ry="57.7493" fill="#EBBAAA"/>
<path d="M497.406 298.533C500.049 251.801 534.252 212.91 580.264 204.321L642.637 192.677C666.251 188.269 690.503 188.563 714.003 193.543L833.906 218.949L848.906 371.527V439.25C848.906 536.314 770.22 615 673.156 615C576.092 615 497.406 536.314 497.406 439.25V298.533Z" fill="#F4D4CA"/>
<path d="M603.431 394.484L603.43 423.967" stroke="black" stroke-width="24.5903" stroke-linecap="round"/>
<path d="M729.176 394.484L729.175 423.967" stroke="black" stroke-width="24.5903" stroke-linecap="round"/>
<path d="M700.141 508C670.297 515.393 658.141 514.108 644.141 508" stroke="#C99584" stroke-width="15" stroke-linecap="round"/>
<path d="M567.292 345.538L624.897 349.522" stroke="#272727" stroke-width="24" stroke-linecap="round"/>
<path d="M712.583 347.914L769.291 343.502" stroke="#272727" stroke-width="24" stroke-linecap="round"/>
<path d="M740.386 231.318C808.386 253.335 819.043 257.005 824.386 284.789C833.062 329.914 855.495 317.274 857.886 267.489C837.495 122.262 723.386 109.697 698.386 124.376C668.386 141.99 659.269 205.054 740.386 231.318Z" fill="#484A4B"/>
<path d="M855.349 291.08C855.349 279.703 841.294 274.35 833.725 282.843L830.986 285.917C828.088 289.17 826.876 293.59 827.71 297.867L844.174 382.273C844.533 384.112 846.145 385.44 848.019 385.44C850.125 385.44 851.855 383.775 851.934 381.67L855.349 291.08Z" fill="#484A4B"/>
<path d="M783.292 242.851C693.292 209.301 524.886 259.102 507.886 280.071C499.209 325.196 486.292 308.903 484.292 262.264C505.292 133.812 625.411 68.7438 761.292 121.231C837.292 150.587 857.292 217.688 783.292 242.851Z" fill="#272727"/>
<path d="M485.292 188.856C513.292 192.001 518.792 184.487 534.792 174.702V199.864L523.792 222.93C505.792 222.93 493.292 218.212 485.292 188.856Z" fill="#272727"/>
<path d="M463.292 217.164C491.292 220.309 496.792 212.795 512.792 203.01V228.173L501.792 251.238C483.792 251.238 471.292 246.52 463.292 217.164Z" fill="#272727"/>
<path d="M563.32 191.476C560.588 228.327 560.386 270.361 560.386 270.361L615.412 231.206C615.412 231.206 586.804 223.721 563.32 191.476Z" fill="#272727"/>
<path d="M532.32 203.3C529.588 240.152 529.386 282.185 529.386 282.185L567.386 248.384C567.386 248.384 555.804 235.545 532.32 203.3Z" fill="#272727"/>
<path d="M598.227 179.944C595.494 216.795 595.292 258.828 595.292 258.828L650.318 219.674C650.318 219.674 621.711 212.188 598.227 179.944Z" fill="#272727"/>
<path d="M482.395 239.541C483.434 227.127 499.099 222.348 506.891 232.067C509.076 234.794 510.145 238.248 509.881 241.733L499.016 385.136C498.868 387.082 497.246 388.585 495.295 388.585C493.529 388.585 492.006 387.348 491.643 385.62L477.511 318.258C476.703 314.405 476.459 310.455 476.787 306.532L482.395 239.541Z" fill="#272727"/>
<path d="M663.792 421.087C658.292 433.145 637.385 473.51 679.386 473.51" stroke="#EBBAAA" stroke-width="17"/>
<path d="M405.292 1490.61C405.292 1447.85 436.617 1411.55 478.915 1405.28L502.523 1401.79H513.384C513.384 1401.79 512.258 1421.55 548.852 1421.55C585.445 1421.55 590.512 1401.79 590.512 1401.79H595.131C597.684 1401.79 599.754 1403.86 599.754 1406.41V1485.44C599.754 1491.82 594.579 1497 588.195 1497H411.682C408.153 1497 405.292 1494.14 405.292 1490.61Z" fill="#3B3F45"/>
<path d="M498.292 1385.72C497.892 1391.83 493.125 1400.82 490.792 1404.55C493.292 1409.98 499.992 1420.84 506.792 1420.84C515.292 1420.84 517.292 1400.48 516.292 1396.92C515.292 1393.35 498.792 1378.08 498.292 1385.72Z" fill="#3B3F45"/>
<mask id="mask0" mask-type="alpha" maskUnits="userSpaceOnUse" x="405" y="1401" width="195" height="97">
<path d="M405.292 1490.43C405.292 1441.47 444.981 1401.79 493.94 1401.79H502.523H526.831H551.139H575.447H599.754V1485.44C599.754 1491.82 594.579 1497 588.195 1497H411.859C408.232 1497 405.292 1494.06 405.292 1490.43Z" fill="#CEB56F"/>
</mask>
<g mask="url(#mask0)">
<path d="M471.95 1454.25L488.428 1486.23" stroke="#666E79" stroke-width="17.3238"/>
<path d="M494.651 1442.15L514.398 1480.56" stroke="#666E79" stroke-width="17.3238"/>
<path d="M516.886 1428.78L544.189 1482.93" stroke="#666E79" stroke-width="17.3238"/>
<path d="M427.846 1436.92C413.266 1428.28 418.984 1445.4 405.884 1452.67L378.141 1508.42H598.923C604.318 1500.34 623.809 1458.45 608.292 1452.67C579.792 1442.07 529.568 1478.73 508.761 1477.52C487.954 1476.31 428.394 1485.39 431.892 1466C435.937 1443.58 441.139 1444.8 427.846 1436.92Z" fill="#555D65"/>
</g>
<path d="M487.376 1400.56C492 1404.2 501.247 1409.65 501.247 1416.92L466.57 1406.62L479.863 1429.04L444.607 1416.92L459.634 1439.34" stroke="#7F8389" stroke-width="6.93557" stroke-linecap="round" stroke-linejoin="round"/>
<path d="M908.254 1490.61C908.254 1447.85 876.93 1411.55 834.632 1405.28L811.023 1401.79H800.162C800.162 1401.79 801.288 1421.55 764.695 1421.55C728.101 1421.55 723.034 1401.79 723.034 1401.79H718.416C715.862 1401.79 713.792 1403.86 713.792 1406.41V1485.44C713.792 1491.82 718.967 1497 725.351 1497H901.865C905.394 1497 908.254 1494.14 908.254 1490.61Z" fill="#3B3F45"/>
<path d="M815.254 1385.72C815.654 1391.83 820.421 1400.82 822.754 1404.55C820.254 1409.98 813.554 1420.84 806.754 1420.84C798.254 1420.84 796.254 1400.48 797.254 1396.92C798.254 1393.35 814.754 1378.08 815.254 1385.72Z" fill="#3B3F45"/>
<mask id="mask1" mask-type="alpha" maskUnits="userSpaceOnUse" x="713" y="1401" width="196" height="97">
<path d="M908.254 1490.43C908.254 1441.47 868.565 1401.79 819.606 1401.79H811.023H786.715H762.408H738.1H713.792V1485.44C713.792 1491.82 718.967 1497 725.351 1497H901.688C905.314 1497 908.254 1494.06 908.254 1490.43Z" fill="#CEB56F"/>
</mask>
<g mask="url(#mask1)">
<path d="M841.597 1454.25L825.118 1486.23" stroke="#666E79" stroke-width="17.3238"/>
<path d="M818.896 1442.15L799.149 1480.56" stroke="#666E79" stroke-width="17.3238"/>
<path d="M796.661 1428.78L769.358 1482.93" stroke="#666E79" stroke-width="17.3238"/>
<path d="M885.7 1436.92C900.28 1428.28 894.562 1445.4 907.663 1452.67L935.405 1508.42H714.623C709.229 1500.34 689.738 1458.45 705.254 1452.67C733.754 1442.07 783.979 1478.73 804.785 1477.52C825.592 1476.31 885.153 1485.39 881.655 1466C877.609 1443.58 872.407 1444.8 885.7 1436.92Z" fill="#555D65"/>
</g>
<path d="M826.17 1400.56C821.546 1404.2 812.299 1409.65 812.299 1416.92L846.977 1406.62L833.684 1429.04L868.939 1416.92L853.912 1439.34" stroke="#7F8389" stroke-width="6.93557" stroke-linecap="round" stroke-linejoin="round"/>
<path d="M879.792 886.839C847.792 949.953 794.792 960.133 758.792 960.133" stroke="#F5D0C3" stroke-width="97" stroke-linecap="round" stroke-linejoin="bevel"/>
<path d="M541.738 936.009C547.307 909.653 570.568 890.793 597.506 890.793H665.723H771.711C777.309 890.793 782.974 891.567 787.586 894.74C797.183 901.345 813.308 917.988 818.792 957.048C826.792 1014.02 818.792 1023.3 818.792 1023.3C818.792 1023.3 736.292 1041.77 665.723 1041.77C595.154 1041.77 523.292 1023.3 523.292 1023.3L537.292 957.048L541.738 936.009Z" fill="#CC2217"/>
</svg>
