<svg width="1200" height="1600" viewBox="0 0 1200 1600" fill="none" xmlns="http://www.w3.org/2000/svg">
<path d="M852.834 717.04C888.834 771.986 893.446 903.988 880.646 965.323" stroke="#EBBAAA" stroke-width="65" stroke-linecap="round" stroke-linejoin="bevel"/>
<path d="M604.542 670.819L330.52 706.241L302.52 554.241" stroke="#EBBAAA" stroke-width="65" stroke-linecap="round" stroke-linejoin="round"/>
<path d="M648.338 1095.99C717.276 1095.99 773.16 1071.06 773.16 1040.3C773.16 1009.54 717.276 984.605 648.338 984.605C579.401 984.605 523.516 1009.54 523.516 1040.3C523.516 1071.06 579.401 1095.99 648.338 1095.99Z" fill="#363636"/>
<path d="M728.297 1212.35L743.727 1417.83" stroke="#EBBAAA" stroke-width="58.3634" stroke-linecap="round" stroke-linejoin="bevel"/>
<path d="M597.52 1211.84L596.327 1417.83" stroke="#EBBAAA" stroke-width="58.3634" stroke-linecap="round" stroke-linejoin="bevel"/>
<path d="M508.893 937.98H654.801L643.993 1331.26L640.751 1369.64L558.069 1365.19L527.647 1275.86L508.893 937.98Z" fill="#363636"/>
<path d="M653.412 944.68H815.351L799.947 1294.33L782.336 1361.85L697.493 1369.08L692.63 1337.38L653.412 944.68Z" fill="#363636"/>
<path opacity="0.2" fill-rule="evenodd" clip-rule="evenodd" d="M522.148 1083.89L550.748 1003.77L567.538 1010.01L538.938 1083.89H522.148Z" fill="white"/>
<path opacity="0.2" fill-rule="evenodd" clip-rule="evenodd" d="M805.168 1083.89L776.569 1003.77L759.779 1010.01L788.378 1083.89H805.168Z" fill="white"/>
<path d="M445.666 1475.49C445.666 1428.79 483.521 1390.94 530.218 1390.94H542.897H553.758C553.758 1390.94 552.632 1409.79 589.226 1409.79C625.819 1409.79 630.886 1390.94 630.886 1390.94H635.505C638.058 1390.94 640.128 1393.01 640.128 1395.56V1470.19C640.128 1476.58 634.953 1481.75 628.569 1481.75H451.929C448.47 1481.75 445.666 1478.95 445.666 1475.49Z" fill="#3B3F45"/>
<mask id="mask0" mask-type="alpha" maskUnits="userSpaceOnUse" x="445" y="1390" width="196" height="92">
<path d="M445.666 1475.49C445.666 1428.79 483.521 1390.94 530.218 1390.94H542.897H567.205H591.513H615.821H640.128V1470.19C640.128 1476.58 634.953 1481.75 628.569 1481.75H451.929C448.47 1481.75 445.666 1478.95 445.666 1475.49Z" fill="#CEB56F"/>
</mask>
<g mask="url(#mask0)">
<path d="M468.22 1424.45C453.64 1416.2 459.358 1432.54 446.258 1439.47L418.515 1492.65H639.297C644.692 1484.94 664.183 1444.98 648.666 1439.47C620.166 1429.36 569.942 1464.33 549.135 1463.17C528.328 1462.01 468.768 1470.68 472.266 1452.19C476.312 1430.8 481.513 1431.96 468.22 1424.45Z" fill="#555D65"/>
<path d="M551.554 1435.34C544.793 1437.22 539.343 1436.97 536.256 1434.57C528.303 1428.32 533.395 1418.79 535.555 1415.06C531.667 1419.63 527.803 1424.21 524.788 1429.22C520.034 1437.03 518.017 1445.6 521.224 1451.1C526.974 1461.02 540.795 1456.44 549.605 1452.45L631.354 1415.43L551.554 1435.34Z" fill="#7F8389"/>
</g>
<path d="M527.75 1389.77C532.374 1393.24 541.621 1398.44 541.621 1405.37L506.944 1395.55L520.237 1416.93L484.981 1405.37L500.008 1426.76" stroke="#7F8389" stroke-width="6.93557" stroke-linecap="round" stroke-linejoin="round"/>
<path d="M533.53 1376.47C533.53 1377.79 533.553 1379.04 533.574 1380.19L533.575 1380.23C533.596 1381.38 533.616 1382.42 533.613 1383.39C533.607 1385.4 533.5 1386.8 533.238 1387.8C532.999 1388.71 532.706 1389.02 532.465 1389.18C532.143 1389.4 531.35 1389.75 529.484 1389.75C525.739 1389.75 520.911 1388.34 517.072 1385.79C513.217 1383.23 510.989 1379.97 510.989 1376.47C510.989 1371.87 512.107 1368.18 513.901 1365.74C515.614 1363.4 518.054 1362.03 521.393 1362.03C527.975 1362.03 533.53 1367.7 533.53 1376.47Z" stroke="#7F8389" stroke-width="6.93557"/>
<path d="M541.174 1382.41C540.777 1383.3 540.385 1384.13 540.027 1384.9L540.017 1384.92C539.657 1385.69 539.338 1386.37 539.055 1387.01C538.464 1388.35 538.163 1389.23 538.063 1389.85C538.017 1390.13 538.028 1390.27 538.036 1390.33C538.041 1390.36 538.045 1390.37 538.049 1390.37C538.049 1390.37 538.05 1390.37 538.05 1390.37C538.073 1390.41 538.333 1390.79 539.519 1391.32C541.9 1392.38 545.425 1392.88 548.632 1392.35C551.866 1391.82 553.985 1390.42 554.845 1388.49C556.159 1385.54 556.446 1382.94 556.013 1381.01C555.609 1379.2 554.551 1377.77 552.534 1376.87C548.584 1375.11 543.617 1376.92 541.174 1382.41Z" stroke="#7F8389" stroke-width="6.93557"/>
<path d="M887.129 1474.99C887.129 1428.29 849.274 1390.44 802.577 1390.44H789.898H779.037C779.037 1390.44 780.163 1409.29 743.569 1409.29C706.976 1409.29 701.909 1390.44 701.909 1390.44H697.29C694.737 1390.44 692.666 1392.51 692.666 1395.06V1469.69C692.666 1476.08 697.842 1481.25 704.226 1481.25H880.866C884.325 1481.25 887.129 1478.45 887.129 1474.99Z" fill="#3B3F45"/>
<mask id="mask1" mask-type="alpha" maskUnits="userSpaceOnUse" x="692" y="1390" width="196" height="92">
<path d="M887.129 1474.99C887.129 1428.29 849.274 1390.44 802.577 1390.44H789.898H765.59H741.282H716.974H692.666V1469.69C692.666 1476.08 697.842 1481.25 704.226 1481.25H880.866C884.325 1481.25 887.129 1478.45 887.129 1474.99Z" fill="#CEB56F"/>
</mask>
<g mask="url(#mask1)">
<path d="M864.575 1423.95C879.155 1415.7 873.437 1432.04 886.537 1438.97L914.28 1492.15H693.498C688.103 1484.44 668.612 1444.48 684.129 1438.97C712.629 1428.86 762.853 1463.83 783.66 1462.67C804.467 1461.51 864.027 1470.18 860.529 1451.69C856.483 1430.3 851.282 1431.46 864.575 1423.95Z" fill="#555D65"/>
<path d="M779.466 1435.34C786.227 1437.22 791.676 1436.97 794.764 1434.57C802.717 1428.32 797.625 1418.79 795.465 1415.06C799.353 1419.63 803.216 1424.21 806.232 1429.22C810.986 1437.03 813.003 1445.6 809.796 1451.1C804.045 1461.02 790.224 1456.44 781.415 1452.45L699.666 1415.43L779.466 1435.34Z" fill="#7F8389"/>
</g>
<path d="M805.045 1389.27C800.421 1392.74 791.174 1397.94 791.174 1404.87L825.851 1395.05L812.558 1416.43L847.814 1404.87L832.787 1426.26" stroke="#7F8389" stroke-width="6.93557" stroke-linecap="round" stroke-linejoin="round"/>
<path d="M799.265 1375.97C799.265 1377.29 799.242 1378.54 799.221 1379.69L799.22 1379.73C799.199 1380.88 799.179 1381.92 799.182 1382.89C799.188 1384.9 799.295 1386.3 799.557 1387.3C799.796 1388.21 800.089 1388.52 800.33 1388.68C800.652 1388.9 801.445 1389.25 803.311 1389.25C807.056 1389.25 811.884 1387.84 815.723 1385.29C819.578 1382.73 821.806 1379.47 821.806 1375.97C821.806 1371.37 820.688 1367.68 818.894 1365.24C817.181 1362.9 814.741 1361.53 811.402 1361.53C804.82 1361.53 799.265 1367.2 799.265 1375.97Z" stroke="#7F8389" stroke-width="6.93557"/>
<path d="M791.621 1381.91C792.017 1382.8 792.41 1383.63 792.768 1384.4L792.778 1384.42C793.138 1385.19 793.457 1385.87 793.74 1386.51C794.331 1387.85 794.632 1388.73 794.732 1389.35C794.778 1389.63 794.766 1389.77 794.759 1389.83C794.754 1389.86 794.75 1389.87 794.746 1389.87C794.746 1389.87 794.745 1389.87 794.745 1389.87C794.722 1389.91 794.462 1390.29 793.276 1390.82C790.895 1391.88 787.37 1392.38 784.163 1391.85C780.929 1391.32 778.81 1389.92 777.95 1387.99C776.636 1385.04 776.349 1382.44 776.782 1380.51C777.186 1378.7 778.244 1377.27 780.261 1376.37C784.211 1374.61 789.178 1376.42 791.621 1381.91Z" stroke="#7F8389" stroke-width="6.93557"/>
<path d="M548.188 586.435C602.941 578.482 651.797 621.447 650.904 676.769C650.071 728.357 606.046 768.64 554.587 764.899L417.823 754.956L380.074 610.856L548.188 586.435Z" fill="#F2D957"/>
<path d="M833.928 601.537C797.303 560.067 732.253 561.253 697.164 604.031C664.442 643.924 671.979 703.119 713.654 733.538L824.411 814.384L946.381 728.868L833.928 601.537Z" fill="#F2D957"/>
<path d="M509.914 683.951C513.215 625.308 561.202 579.145 619.93 578.12L697.941 576.758C759.365 575.686 810.22 624.232 812.001 685.64L816.506 840.965L818.432 1037.24C818.432 1037.24 715.577 1043.24 657.577 1043.24C599.577 1043.24 498.443 1037.24 498.443 1037.24L500.771 846.422L509.914 683.951Z" fill="#F2D957"/>
<circle cx="656.028" cy="620.152" r="70.7471" transform="rotate(-1 656.028 620.152)" fill="#F6E68B"/>
<rect x="608.316" y="536.486" width="93.9921" height="122.831" rx="46.996" transform="rotate(-1 608.316 536.486)" fill="#EBBAAA"/>
<path d="M782.565 451.826C812.98 451.826 834.982 417.007 837.636 391.2C840.29 365.393 812.98 339.326 782.565 339.326C752.15 339.326 727.494 362.551 727.494 391.2C727.494 419.849 752.15 451.826 782.565 451.826Z" fill="#EBBAAA"/>
<path d="M536.07 458.776C505.655 458.776 483.653 423.957 480.999 398.15C478.345 372.343 505.655 346.276 536.07 346.276C566.485 346.276 591.141 369.501 591.141 398.15C591.141 426.799 566.485 458.776 536.07 458.776Z" fill="#EBBAAA"/>
<path d="M509.702 312.055C509.702 222.443 577.178 149.799 660.414 149.799C743.65 149.799 811.126 222.443 811.126 312.055L800.925 437.492C792.45 492.314 772.772 537.81 737.44 560.061C722.435 569.512 724.552 574.77 703.56 574.77H616.144C588.86 574.77 588.341 564.718 571.292 548.315C544.336 522.38 528.729 480.565 519.903 437.492L509.702 312.055Z" fill="#F4D4C9"/>
<path d="M779.123 270.349L769.616 190.556C768.179 178.499 756.03 175.423 790.306 200.688C824.583 225.953 820.063 306.569 811.274 342.144L804.694 387.148L802.489 381.827L799.017 329.909C781.747 312.524 782.165 295.882 779.123 270.349Z" fill="#272727"/>
<path d="M531.298 277.565C532.714 251.892 529.822 253.213 530.765 236.098C531.434 223.975 531.529 220.904 519.292 249.414C507.055 277.923 506.522 313.84 509.065 348.315L512.086 380.09L516.914 380.356L519.093 340.832C527.625 313.445 529.883 303.238 531.298 277.565Z" fill="#272727"/>
<path fill-rule="evenodd" clip-rule="evenodd" d="M666.162 131.294L666.161 131.293C666.092 131.293 666.023 131.293 665.954 131.293C665.885 131.293 665.816 131.293 665.748 131.293L665.747 131.294C621.749 131.454 516.403 157.119 512.444 277.23C524.143 262.435 521.748 263.557 537.796 253.902C550.705 246.135 556.615 233.515 591.117 225.281C625.619 217.048 643.133 227.242 665.747 227.242C683.387 227.242 704.034 219.792 728.734 227.242C753.434 234.691 771.399 248.138 782.84 253.902C806.146 265.645 793.421 259.729 816.2 277.23C812.241 157.119 710.157 131.454 666.162 131.294Z" fill="#272727"/>
<path d="M637.371 348.061L580.71 330.007L557.068 339.771" stroke="#393939" stroke-width="19.4545" stroke-linecap="round"/>
<path d="M682.961 348.061L739.622 330.007L763.264 339.771" stroke="#393939" stroke-width="19.4545" stroke-linecap="round"/>
<path d="M658.549 367.971L644.112 425.714C641.271 437.075 649.864 448.08 661.574 448.08H678.579" stroke="#EBBAAA" stroke-width="18.3737"/>
<path d="M566.635 384.63C573.684 382.794 589.52 372.741 617.206 384.63" stroke="#393939" stroke-width="12.6429" stroke-linecap="round"/>
<path d="M750.225 386.63C743.175 384.794 727.34 374.741 699.653 386.63" stroke="#393939" stroke-width="12.6429" stroke-linecap="round"/>
<path d="M543.541 171.288L535.522 204.664L657.308 180.958L798.571 215.408L797.495 187.572L787.347 183.806L786.703 173.14L774.123 173.9L773.127 157.418L756.953 158.395L752.597 146.008L738.22 146.876L728.922 134.788L714.33 139.562L709.368 132.077L694.093 133L693.565 124.274L673.425 134.248L667.507 125.848L659.048 135.117L649.535 126.934L632.989 136.691L621.679 128.616L610.525 138.048L602.438 138.537L593.921 146.836L589.858 139.297L575.578 156.702L565.459 153.421L553.572 173.115L543.541 171.288Z" fill="#272727"/>
<rect x="540.922" y="795.769" width="242.833" height="166.438" fill="white"/>
<rect x="540.922" y="839.366" width="242.833" height="98.6138" fill="#67A447"/>
<path d="M570.279 892.744L571.395 888.673C572.719 883.891 574.114 878.269 575.368 873.228H575.647C577.042 878.139 578.366 883.891 579.761 888.673L580.876 892.744H570.279ZM586.244 912.712H599.351L583.246 864.633H568.327L552.223 912.712H564.911L567.909 901.662H583.246L586.244 912.712Z" fill="black"/>
<path d="M619.998 913.617C630.943 913.617 638.403 904.958 638.403 888.414C638.403 872 630.943 863.729 619.998 863.729C609.052 863.729 601.662 871.871 601.662 888.414C601.662 904.958 609.052 913.617 619.998 913.617ZM619.998 904.699C616.303 904.699 613.375 901.597 613.375 888.414C613.375 875.296 616.303 872.582 619.998 872.582C623.693 872.582 626.691 875.296 626.691 888.414C626.691 901.597 623.693 904.699 619.998 904.699Z" fill="black"/>
<path d="M644.215 912.712H680.189V903.019H670.638C668.337 903.019 664.782 903.342 662.202 903.665C670.15 896.234 677.819 887.122 677.819 878.85C677.819 869.674 670.847 863.729 660.808 863.729C653.418 863.729 648.677 866.184 643.588 871.16L650.351 877.364C652.791 874.908 655.579 872.711 659.135 872.711C663.248 872.711 665.897 875.102 665.897 879.496C665.897 886.476 657.183 895.2 644.215 906.121V912.712Z" fill="black"/>
<path d="M706.08 905.022C702.803 905.022 699.596 902.631 698.551 894.618C700.642 891.452 703.291 890.288 705.871 890.288C709.287 890.288 712.076 892.033 712.076 897.332C712.076 902.761 709.357 905.022 706.08 905.022ZM722.742 869.48C719.466 866.378 714.446 863.729 707.614 863.729C696.877 863.729 686.978 871.677 686.978 889.061C686.978 906.573 696.599 913.617 706.359 913.617C715.631 913.617 723.439 907.543 723.439 897.332C723.439 886.863 716.886 882.211 708.241 882.211C705.313 882.211 700.921 883.891 698.341 886.928C698.829 876.459 703.082 872.905 708.45 872.905C711.309 872.905 714.516 874.585 716.189 876.265L722.742 869.48Z" fill="black"/>
<path d="M745.705 913.617C756.023 913.617 764.877 908.577 764.877 899.594C764.877 893.39 760.624 889.513 754.838 887.897V887.574C760.415 885.506 763.204 881.758 763.204 876.976C763.204 868.381 756.162 863.729 745.426 863.729C739.291 863.729 734.132 865.926 729.322 869.674L735.596 876.718C738.733 874.197 741.383 872.711 744.868 872.711C748.703 872.711 750.794 874.52 750.794 877.816C750.794 881.629 748.006 884.149 739.152 884.149V892.227C750.027 892.227 752.398 894.683 752.398 898.819C752.398 902.437 749.26 904.312 744.45 904.312C740.407 904.312 736.781 902.437 733.644 899.659L727.927 906.896C731.692 910.968 737.478 913.617 745.705 913.617Z" fill="black"/>
<path fill-rule="evenodd" clip-rule="evenodd" d="M747.486 572.594L658.57 825.614L566.635 590.181L589.643 582.155L659.03 757.457L722.873 578.86L747.486 572.594Z" fill="white"/>
<mask id="mask2" mask-type="alpha" maskUnits="userSpaceOnUse" x="568" y="572" width="182" height="254">
<path fill-rule="evenodd" clip-rule="evenodd" d="M749.224 572.594L660.309 825.614L568.373 590.181L591.381 582.155L660.768 757.457L724.611 578.86L749.224 572.594Z" fill="white"/>
</mask>
<g mask="url(#mask2)">
<rect opacity="0.5" x="608.316" y="692.123" width="99.5141" height="75.5684" fill="#F2D957"/>
<rect x="604.543" y="712.447" width="99.5141" height="75.5684" fill="#86DB5B"/>
<rect x="604.543" y="731.303" width="99.5141" height="75.5684" fill="#2A89E0"/>
</g>
<circle cx="658.799" cy="806.872" r="48.6389" fill="white" stroke="#C9CD0E" stroke-width="6"/>
<mask id="mask3" mask-type="alpha" maskUnits="userSpaceOnUse" x="613" y="761" width="92" height="92">
<circle cx="658.799" cy="806.872" r="42.6389" fill="white" stroke="#C9CD0E" stroke-width="6"/>
</mask>
<g mask="url(#mask3)">
<path d="M647.659 754.933H693.928L653.928 858.812H607.659L647.659 754.933Z" fill="#F2D957"/>
</g>
<path d="M676.885 792.327C678.366 792.327 679.786 791.739 680.833 790.692C681.88 789.644 682.468 788.224 682.468 786.743C682.468 785.263 681.88 783.843 680.833 782.795C679.786 781.748 678.366 781.16 676.885 781.16C675.404 781.16 673.984 781.748 672.937 782.795C671.89 783.843 671.302 785.263 671.302 786.743C671.302 788.224 671.89 789.644 672.937 790.692C673.984 791.739 675.404 792.327 676.885 792.327ZM666.835 831.131L669.627 818.848L675.489 824.431V841.181H681.072V820.243L675.21 814.66L676.885 806.285C678.798 808.477 681.157 810.234 683.806 811.438C686.454 812.642 689.33 813.265 692.239 813.264V807.681C687.326 807.765 682.747 805.196 680.235 800.981L677.443 796.514C676.438 794.839 674.652 793.723 672.697 793.723C671.86 793.723 671.302 794.002 670.464 794.002L655.947 800.143V813.264H661.531V803.773L666.556 801.818L662.089 824.431L648.41 821.639L647.293 827.223L666.835 831.131ZM641.989 802.098C641.249 802.098 640.539 801.804 640.015 801.28C639.492 800.756 639.197 800.046 639.197 799.306C639.197 798.566 639.492 797.856 640.015 797.332C640.539 796.808 641.249 796.514 641.989 796.514H650.364V802.098H641.989ZM644.781 790.931C644.04 790.931 643.33 790.637 642.807 790.113C642.283 789.59 641.989 788.88 641.989 788.139C641.989 787.399 642.283 786.689 642.807 786.165C643.33 785.642 644.04 785.348 644.781 785.348H658.739V790.931H644.781ZM639.197 813.264C638.457 813.264 637.747 812.97 637.223 812.447C636.7 811.923 636.406 811.213 636.406 810.473C636.406 809.732 636.7 809.022 637.223 808.499C637.747 807.975 638.457 807.681 639.197 807.681H650.364V813.264H639.197Z" fill="#B79A00"/>
<path fill-rule="evenodd" clip-rule="evenodd" d="M604.543 473.441V493.241C604.543 523.721 629.253 548.421 659.723 548.421C690.203 548.421 714.903 523.721 714.903 493.241V473.441H604.543Z" fill="#393939"/>
<mask id="mask4" mask-type="alpha" maskUnits="userSpaceOnUse" x="604" y="473" width="111" height="76">
<path fill-rule="evenodd" clip-rule="evenodd" d="M604.633 473.422C604.573 474.442 604.543 475.473 604.543 476.503V495.789C604.543 524.862 629.253 548.422 659.723 548.422C690.203 548.422 714.903 524.862 714.903 495.789V476.503C714.903 475.473 714.873 474.442 714.813 473.422H604.633Z" fill="white"/>
</mask>
<g mask="url(#mask4)">
<path d="M659.723 566.115C678.101 566.115 693 558.005 693 548.002C693 537.998 678.101 529.889 659.723 529.889C641.344 529.889 626.445 537.998 626.445 548.002C626.445 558.005 641.344 566.115 659.723 566.115Z" fill="#FF6C6C"/>
</g>
<rect x="604.543" y="473.441" width="110.363" height="22.7466" fill="white"/>
<rect x="236.13" y="498.911" width="88.8132" height="95.448" rx="33" transform="rotate(-10.4302 236.13 498.911)" fill="#EBBAAA"/>
<rect x="288.307" y="462.02" width="31.8488" height="78.5532" rx="15.9244" transform="rotate(-10.4469 288.307 462.02)" fill="#EBBAAA"/>
<path d="M888.107 903.18L851.672 913.1L850.834 921.918L884.757 925.225L924.543 948.923L927.894 923.571L888.107 903.18Z" fill="black"/>
<path d="M889.783 923.021L891.04 910.345L923.287 926.327L921.193 941.759L889.783 923.021Z" fill="white" fill-opacity="0.3"/>
<path d="M637.371 348.062L580.71 330.007L557.068 339.772" stroke="#393939" stroke-width="19.4545" stroke-linecap="round"/>
<path d="M682.961 348.062L739.622 330.007L763.264 339.772" stroke="#393939" stroke-width="19.4545" stroke-linecap="round"/>
</svg>
