<svg width="1200" height="1600" viewBox="0 0 1200 1600" fill="none" xmlns="http://www.w3.org/2000/svg">
<path d="M530.5 1090V1401" stroke="#F6DDD6" stroke-width="68"/>
<path d="M663.5 1132V1384" stroke="#F6DDD6" stroke-width="68"/>
<path d="M584.967 1300.42C580.398 1293 570.119 1294.78 565.551 1296.6L566.693 1300.96C568.596 1301.33 573.431 1302.06 575.259 1304.24C577.543 1306.97 575.83 1312.42 577.543 1313.51C579.256 1314.61 583.825 1313.51 586.109 1313.51C588.393 1313.51 590.677 1309.7 584.967 1300.42Z" fill="black"/>
<path d="M581.772 1308.5L579.272 1307.5L581.772 1306.5L580.272 1308.5V1303L583.772 1305.5H581.272C579.772 1304.83 576.872 1303.4 577.272 1303C577.672 1302.6 578.105 1301.17 578.272 1300.5L573.772 1298C573.605 1298.5 573.372 1299.5 573.772 1299.5C574.172 1299.5 575.272 1298.5 575.771 1298L580.771 1301.5" stroke="#EACE56" stroke-opacity="0.78" stroke-linecap="round" stroke-linejoin="round"/>
<path d="M382.558 1435C381.342 1432 381.551 1425.5 389.051 1422.5C396.55 1419.5 485.05 1435 485.05 1435C507.833 1433.14 569.022 1403.28 591.551 1417C598.678 1421.34 596.262 1435.09 593.631 1447.96C589.421 1452.25 546.831 1456 533.022 1452.78C533.022 1445.28 531.947 1440.45 531.947 1440.45C531.947 1440.45 523.581 1445.85 514.551 1447.96C496.132 1452.25 492.101 1457 435.051 1457C389.294 1452.71 386.003 1443.5 382.558 1435Z" fill="#383129"/>
<path d="M386.551 1429C392.051 1435.5 412.051 1447.5 436.551 1447.5C470.066 1447.5 495.551 1443 511.051 1438.5C523.451 1434.9 531.884 1432.33 534.551 1431.5C542.384 1432.17 560.551 1433.1 570.551 1431.5C583.051 1429.5 588.051 1428 592.051 1423.5" stroke="#67513B" stroke-dasharray="6 6"/>
<path d="M515.551 1294.5C520.426 1294.5 548.869 1309.43 563.627 1297.85C565.249 1296.58 568.55 1297.62 568.553 1299.68C568.58 1319.58 568.874 1354.18 571.854 1367.9C575.011 1382.44 577.677 1380.36 580.833 1393.86C583.019 1403.21 590.098 1425.02 580.833 1425.02H538.579C528.582 1425.02 515.08 1436.63 481.789 1439.89C426.526 1445.31 413.022 1437.89 401.988 1434.39C376.882 1426.43 389.623 1408.21 401.988 1402.39C420.102 1393.86 446.063 1387.46 459.268 1380.39C469.551 1374.89 473.082 1373.18 478.361 1367.39C487.065 1357.85 494.711 1307.66 495.893 1294.55C495.975 1293.64 497.256 1293.17 498.035 1293.65C503.184 1296.82 510.718 1294.5 515.551 1294.5Z" fill="#2D2B30"/>
<path d="M408.381 1419.22C417.711 1422.04 431.946 1426.06 453.36 1421.57" stroke="#59555F" stroke-width="7" stroke-linecap="round"/>
<path d="M472.551 1399C482.342 1390 518.051 1369.89 515.551 1294.5C519.794 1294.5 530.051 1300 545.551 1301C561.828 1300.51 561.561 1299.04 565.872 1296.6C565.989 1296.53 566.124 1296.43 566.235 1296.36C572.996 1291.81 569.955 1364.51 574.807 1377.39C578.724 1387.79 586.067 1403.39 586.067 1422.39C582.64 1428.39 548.86 1425.39 538.089 1425.39C533.051 1398.5 493.551 1419 485.051 1416.5C477.59 1414.31 472.551 1410 472.551 1399Z" fill="#1D1D20"/>
<path d="M484.551 1366.6C495.751 1357.8 500.051 1315 500.551 1294.5C498.551 1294 498.051 1292.6 496.551 1293.1C495.051 1293.6 495.051 1299.6 494.551 1304.6C494.004 1310.08 490.051 1327.1 488.051 1338.6C486.051 1350.1 484.051 1357.1 476.551 1366.6C470.551 1374.2 447.051 1382 439.551 1388.5C440.384 1388.33 442.551 1387.2 444.551 1387.6C447.051 1388.1 446.551 1388.6 449.551 1388.6C452.551 1388.6 470.551 1377.6 484.551 1366.6Z" fill="#1D1D20"/>
<path d="M498.051 1298.5L519.051 1305.5L498.051 1311.5L515.551 1320.5L494.051 1324.5L515.551 1333L492.051 1340.5L513.051 1350.5L488.051 1353.5L506.051 1367H480.051L498.051 1384.5L466.051 1377.5L480.051 1397L454.551 1384.5" stroke="black" stroke-width="5" stroke-linecap="round" stroke-linejoin="round"/>
<path d="M609.348 1300.47C613.942 1293 624.278 1294.8 628.872 1296.62L627.724 1301.01C625.81 1301.38 620.948 1302.11 619.11 1304.31C616.813 1307.05 618.536 1312.54 616.813 1313.64C615.09 1314.73 610.496 1313.64 608.199 1313.64C605.902 1313.64 603.605 1309.79 609.348 1300.47Z" fill="black"/>
<path d="M612.56 1308.59L615.074 1307.59L612.56 1306.58L614.069 1308.59V1303.06L610.549 1305.58H613.063C614.571 1304.91 617.488 1303.46 617.085 1303.06C616.683 1302.66 616.248 1301.22 616.08 1300.55L620.605 1298.03C620.773 1298.54 621.008 1299.54 620.605 1299.54C620.203 1299.54 619.097 1298.54 618.594 1298.03L613.566 1301.55" stroke="#EACE56" stroke-opacity="0.78" stroke-linecap="round" stroke-linejoin="round"/>
<path d="M812.888 1435.8C814.111 1432.78 813.901 1426.25 806.359 1423.23C798.818 1420.21 709.823 1435.8 709.823 1435.8C686.913 1433.93 625.381 1403.9 602.727 1417.7C595.56 1422.06 597.989 1435.89 600.635 1448.83C604.868 1453.14 647.696 1456.92 661.583 1453.68C661.583 1446.13 662.664 1441.28 662.664 1441.28C662.664 1441.28 671.076 1446.71 680.157 1448.83C698.679 1453.14 702.733 1457.92 760.102 1457.92C806.114 1453.61 809.423 1444.35 812.888 1435.8Z" fill="#383129"/>
<path d="M808.873 1429.77C803.342 1436.3 783.23 1448.37 758.594 1448.37C724.891 1448.37 699.264 1443.84 683.677 1439.32C671.208 1435.7 662.727 1433.12 660.046 1432.28C652.169 1432.95 633.9 1433.89 623.844 1432.28C611.275 1430.27 606.247 1428.76 602.224 1424.24" stroke="#67513B" stroke-dasharray="6 6"/>
<path d="M679.152 1294.51C674.246 1294.51 645.604 1309.55 630.773 1297.85C629.154 1296.58 625.856 1297.62 625.854 1299.68C625.827 1319.69 625.532 1354.52 622.534 1368.33C619.359 1382.95 616.679 1380.86 613.504 1394.43C611.306 1403.83 604.188 1425.76 613.504 1425.76H655.995C666.048 1425.76 679.626 1437.44 713.103 1440.72C768.674 1446.16 782.254 1438.71 793.35 1435.19C818.596 1427.18 805.784 1408.86 793.35 1403.01C775.134 1394.43 749.028 1387.99 735.749 1380.89C725.409 1375.36 721.858 1373.64 716.549 1367.81C707.794 1358.21 700.102 1307.71 698.918 1294.55C698.837 1293.64 697.556 1293.17 696.778 1293.65C691.6 1296.85 684.015 1294.51 679.152 1294.51Z" fill="#2D2B30"/>
<path d="M786.921 1419.93C777.539 1422.77 763.224 1426.81 741.69 1422.3" stroke="#59555F" stroke-width="7" stroke-linecap="round"/>
<path d="M722.392 1399.6C712.546 1390.55 676.638 1370.33 679.152 1294.51C674.885 1294.51 664.571 1300.04 648.984 1301.05C632.614 1300.55 632.884 1299.08 628.549 1296.63C628.432 1296.56 628.296 1296.46 628.185 1296.38C621.386 1291.8 624.444 1364.91 619.564 1377.87C615.626 1388.33 608.241 1404.01 608.241 1423.12C611.687 1429.15 645.657 1426.14 656.487 1426.14C661.554 1399.1 701.275 1419.71 709.822 1417.2C717.325 1414.99 722.392 1410.66 722.392 1399.6Z" fill="#1D1D20"/>
<path d="M710.325 1367.02C699.062 1358.17 694.738 1315.13 694.236 1294.51C696.247 1294.01 696.75 1292.61 698.258 1293.11C699.766 1293.61 699.766 1299.64 700.269 1304.67C700.819 1310.18 704.794 1327.3 706.806 1338.86C708.817 1350.43 710.828 1357.47 718.37 1367.02C724.403 1374.66 748.035 1382.5 755.577 1389.04C754.739 1388.87 752.56 1387.73 750.549 1388.14C748.035 1388.64 748.538 1389.14 745.521 1389.14C742.504 1389.14 724.403 1378.08 710.325 1367.02Z" fill="#1D1D20"/>
<path d="M696.75 1298.54L675.632 1305.58L696.75 1311.61L679.152 1320.66L700.772 1324.68L679.152 1333.23L702.783 1340.77L681.666 1350.83L706.806 1353.84L688.705 1367.42H714.85L696.75 1385.02L728.929 1377.98L714.85 1397.59L740.493 1385.02" stroke="black" stroke-width="5" stroke-linecap="round" stroke-linejoin="round"/>
<path d="M444.5 1270L456.5 914.5L534.324 903.922L535 886H572.986L572.5 877L671 900.5L671.115 906.467L698 914.5L761.5 1270L678.337 1282L678.5 1290.5L610.614 1285.25L611.5 1297H519.5L520.077 1281.69L444.5 1270Z" fill="black"/>
<path d="M759.499 470.5C759.499 460.992 760.499 420.667 759.499 403L735.999 406L678.498 454.5C667.832 479.167 618.3 567.4 621.5 581C625.5 598 690.057 611.739 711 626.5C794 685 777.499 579 773.999 558C770.499 537 759.499 498.5 759.499 470.5Z" fill="#17100F"/>
<path d="M391.5 549.5C397.019 523.631 414.001 385.667 420.501 329.5L444.001 320L675 543.5C626.333 613.333 385.401 757.1 369.001 765.5C348.501 776 356.943 678.951 361.001 659C367.001 629.5 383.5 587 391.5 549.5Z" fill="#17100F" stroke="black"/>
<rect x="544" y="493" width="81" height="116" rx="40.5" fill="#EBBAAA"/>
<path d="M519 928V869H655V928H519Z" fill="#E5CECB"/>
<path d="M519 879.833V605H655V879.833C655 879.833 607.325 888 587 888C566.675 888 519 879.833 519 879.833Z" fill="#E7D6D3"/>
<path d="M582 587C552.8 587 534.5 573 529 566L513 599.5C523.5 610.833 552 633.5 582 633.5C612 633.5 641.167 618.5 652 611L641 566C633.5 573 611.2 587 582 587Z" fill="#E6CECB"/>
<rect x="398.428" y="564.832" width="172.976" height="357.699" rx="86.4881" transform="rotate(8.5 398.428 564.832)" fill="#67513B"/>
<rect x="333" y="856.496" width="106.139" height="208.103" rx="53.0694" transform="rotate(-45 333 856.496)" fill="#67513B"/>
<path d="M407.883 1101.14L450.831 567.729L543.5 561L576 750.5C567.41 863.883 555.624 1119.18 555.624 1132.93C555.624 1146.67 450.831 1115.46 407.883 1101.14Z" fill="#67513B"/>
<path d="M576.5 749.5L543 558.5C519 555 488.5 556.334 474 558.5L559.5 746.5L570.5 829.5L576.5 749.5Z" fill="#82684B"/>
<path d="M765.211 1095.13L722.5 567.5L625 563.5L597.5 753C606.09 866.383 617.469 1113.17 617.469 1126.91C617.469 1140.66 722.263 1109.45 765.211 1095.13Z" fill="#67513B"/>
<path d="M597.5 754L625 562C648.5 557 678.833 557 690.5 557L621 762.5L607 916L597.5 754Z" fill="#82684B"/>
<rect x="629.627" y="840.153" width="226.766" height="158.908" rx="20" transform="rotate(-4.5 629.627 840.153)" fill="#363030"/>
<rect width="90.5429" height="252.008" rx="45.2714" transform="matrix(-0.981627 0.190809 0.190809 0.981627 775.066 562)" fill="#67513B"/>
<path d="M719.318 914.026C716.645 934.285 730.901 952.875 751.16 955.548C771.419 958.221 790.009 943.965 792.682 923.706L719.318 914.026ZM738.318 770.026L719.318 914.026L792.682 923.706L811.682 779.706L738.318 770.026Z" fill="#F6DDD6"/>
<rect width="90.5429" height="178.39" rx="45.2714" transform="matrix(-0.998135 -0.0610485 -0.0610485 0.998135 819.963 741.527)" fill="#67513B"/>
<circle cx="545.747" cy="770.874" r="9.87807" fill="#C4C4C4"/>
<circle cx="539.734" cy="904.872" r="9.87807" fill="#C4C4C4"/>
<circle cx="544.028" cy="837.873" r="9.87807" fill="#C4C4C4"/>
<circle cx="532.003" cy="969.294" r="9.87807" fill="#C4C4C4"/>
<circle cx="525.991" cy="1025.13" r="9.87807" fill="#C4C4C4"/>
<path d="M716 436C738.091 436 756 416.077 756 391.5C756 366.923 738.091 347 716 347C693.909 347 676 366.923 676 391.5C676 416.077 693.909 436 716 436Z" fill="#E4C1C1"/>
<path d="M454 436C431.909 436 414 416.077 414 391.5C414 366.923 431.909 347 454 347C476.091 347 494 366.923 494 391.5C494 416.077 476.091 436 454 436Z" fill="#E4C1C1"/>
<path d="M447.814 291.864C444.867 213.979 507.009 149 584.95 149C663.678 149 725.845 215.228 722.868 293.9C721.933 318.609 721.423 339.348 721.84 348.757C722.576 365.353 714.529 414.323 706.487 458.225C697.641 506.519 660.13 544.182 612.127 554.492C595.215 558.124 577.709 558.167 560.778 554.628C511.342 544.296 472.915 505.07 464.553 455.263C457.276 411.915 449.921 364.527 449.68 348.757C449.536 339.334 448.79 317.638 447.814 291.864Z" fill="#F6DDD6"/>
<path fill-rule="evenodd" clip-rule="evenodd" d="M531.332 430.02V449.82C531.332 480.3 555.961 505 586.331 505C616.71 505 641.329 480.3 641.329 449.82V430.02H531.332Z" fill="#393939"/>
<mask id="mask0" mask-type="alpha" maskUnits="userSpaceOnUse" x="531" y="430" width="111" height="75">
<path fill-rule="evenodd" clip-rule="evenodd" d="M531.422 430C531.362 431.021 531.332 432.051 531.332 433.081V452.367C531.332 481.44 555.961 505 586.331 505C616.71 505 641.329 481.44 641.329 452.367V433.081C641.329 432.051 641.299 431.021 641.239 430H531.422Z" fill="white"/>
</mask>
<g mask="url(#mask0)">
<path d="M586.33 522.693C604.649 522.693 619.498 514.583 619.498 504.58C619.498 494.576 604.649 486.467 586.33 486.467C568.012 486.467 553.162 494.576 553.162 504.58C553.162 514.583 568.012 522.693 586.33 522.693Z" fill="#FF6C6C"/>
</g>
<rect x="531.332" y="430.02" width="110" height="22.7466" fill="white"/>
<path d="M550.5 297.5C533.5 291.5 517.5 290.834 504.5 293.001C491.5 295.167 486.832 301 486.832 301" stroke="#62360D" stroke-width="12" stroke-linecap="round"/>
<path d="M616 296.855C630.501 290.5 650.992 290.234 662.246 292.175C673.501 294.115 680.008 300.495 680.008 300.495" stroke="#62360D" stroke-width="12" stroke-linecap="round"/>
<path d="M586.002 365C576.002 380 566.002 415 596.002 415" stroke="#EBBAAA" stroke-width="17"/>
<path d="M627 339C639.055 333.339 656.534 334.005 671 339" stroke="black" stroke-width="14" stroke-linecap="round"/>
<path d="M494 339C506.055 333.339 523.534 334.005 538 339" stroke="black" stroke-width="14" stroke-linecap="round"/>
<path d="M565.745 336.335C576.515 331.207 588.823 329.155 601.644 336.335" stroke="#FFFAED" stroke-width="7"/>
<path d="M603.513 358.441L601.835 336.889C601.835 336.889 612.287 313.403 654.29 308.447C696.294 303.491 714.864 329.319 714.864 329.319L711.516 360.426C709.398 380.117 692.51 394.879 672.713 394.347L640.376 393.477C620.933 392.953 605.023 377.832 603.513 358.441Z" fill="white" fill-opacity="0.22"/>
<path d="M603.523 346.194L601.688 333.758C601.271 330.933 602.086 328.072 604.272 326.234C610.342 321.127 625.414 311.118 653.388 307.5C681.884 303.814 702.303 313.431 710.848 318.562C713.721 320.287 715.116 323.548 714.817 326.885L713.783 338.387" stroke="black" stroke-width="8"/>
<path d="M566.803 357.641L568.236 337.111C568.236 337.111 557.794 314.144 516.533 309.609C475.271 305.075 457.249 330.569 457.249 330.569L460.704 360.425C462.98 380.098 479.985 394.725 499.778 394.034L530.221 392.971C549.66 392.292 565.448 377.044 566.803 357.641Z" fill="white" fill-opacity="0.22"/>
<path d="M566.087 345.566L568.121 334.332C568.655 331.383 567.823 328.352 565.5 326.458C559.338 321.434 544.503 311.956 517.412 308.672C489.496 305.289 469.566 314.823 461.178 319.936C458.323 321.677 456.955 324.938 457.274 328.266L458.392 339.925" stroke="black" stroke-width="8"/>
<path d="M647.852 201.512C600.252 175.112 579.852 173.012 523.852 213.512C467.352 199.012 517.852 162.012 539.852 151.012C561.852 140.012 611.352 136.012 652.852 157.012C694.352 178.012 707.352 234.512 647.852 201.512Z" fill="#311E1C"/>
<path d="M496.556 250.071C523.493 218.512 574.493 206.012 587.493 197.012C592.494 194.591 592.493 157.967 580.493 148.512C563.993 135.512 505.493 161.013 479.493 185.513C453.493 210.013 427.713 261 415.993 334.513C410.493 369.013 406.493 478.513 406.493 517.513C406.493 556.513 410.993 607.013 406.493 651.513C403.423 681.874 398.999 737 399 811.5C399 828.513 446.762 833.658 449.493 820C453.493 800 449.999 687.013 454 651.513C458.41 612.387 465.493 585.013 459.993 548.513C454.494 512.013 437.993 475.513 444.493 454.013C450.993 432.513 448.493 380.013 449.493 347.513C450.493 315.013 469.241 282.073 496.556 250.071Z" fill="#311E1C"/>
<path d="M459.5 667.5C453.1 637.1 440.667 498 438.5 433C439.5 433.333 448.6 435.6 451 436C453.4 436.4 455.333 436.167 456 436C458.833 448.5 460.074 467.148 469.5 486C477 501 490.5 515.833 497 522.5C502.667 544.667 514.8 596.6 518 627C522 665 518 784 509 784C488.107 784 473.406 787 469.5 774.5C462 750.5 467.5 705.5 459.5 667.5Z" fill="#311E1C"/>
<path d="M672.501 238C642.952 209.634 595.499 203.501 590.999 196.501C586.332 180.501 585.413 153.612 606 146.501C633.501 137.001 706 175.5 730 238C747.889 284.589 760 394 759.5 404C759 414 742 575 739.5 600C737 625 738 643.5 739.5 696C741 748.5 741 792.975 730 796C710 801.5 647.5 793.5 639 792C630.5 790.5 636 755.8 636 736.5C636 710 654 620.5 663.5 586C670.801 559.487 707 475 709.5 468C711.5 462.4 714.501 443.667 715.501 435.5L715.526 435.508C716.684 435.839 717.867 436.177 727.001 433C738.501 429 751.001 415.5 754.001 402.5C757.001 389.5 754.501 376.5 747.501 364.5C741.901 354.9 726 348.667 721.5 347.5C721.5 336.5 720.999 323 719.5 315.5C715.716 296.574 697.501 262 672.501 238Z" fill="#311E1C"/>
</svg>
