<svg width="1200" height="1600" viewBox="0 0 1200 1600" fill="none" xmlns="http://www.w3.org/2000/svg">
<path d="M576.607 1085.02C645.545 1085.02 701.43 1060.08 701.43 1029.32C701.43 998.564 645.545 973.629 576.607 973.629C507.67 973.629 451.785 998.564 451.785 1029.32C451.785 1060.08 507.67 1085.02 576.607 1085.02Z" fill="#363636"/>
<path d="M656.567 1241.37L672.779 1412.91" stroke="#EBBAAA" stroke-width="58.3634" stroke-linecap="round" stroke-linejoin="bevel"/>
<path d="M525.789 1240.86V1398.66" stroke="#EBBAAA" stroke-width="58.3634" stroke-linecap="round" stroke-linejoin="bevel"/>
<path d="M437.163 967.004H583.072L572.263 1326.89L569.021 1362.01L486.34 1357.94L455.918 1276.2L437.163 967.004Z" fill="#363636"/>
<path d="M581.682 973.134H743.621L728.217 1293.1L710.607 1354.88L625.764 1361.5L620.9 1332.49L581.682 973.134Z" fill="#363636"/>
<g filter="url(#filter0_i)">
<path fill-rule="evenodd" clip-rule="evenodd" d="M592.114 606.163C632.409 606.163 665.075 579.994 665.075 547.713C665.075 545.704 664.949 543.719 664.702 541.763L646.531 538.002C643.937 537.465 641.295 537.194 638.645 537.194H528.687C525.959 537.194 523.239 537.481 520.572 538.05L520.126 538.145C519.486 541.258 519.154 544.454 519.154 547.713C519.154 579.994 551.819 606.163 592.114 606.163Z" fill="#EBBAAA"/>
</g>
<path d="M421.62 695.957C388.215 761.358 360.821 934.145 388.215 952.056" stroke="#EBBAAA" stroke-width="77.9647" stroke-linecap="round" stroke-linejoin="bevel"/>
<path d="M753.513 669.895C801.295 754.598 818.592 911.649 801.217 959.431" stroke="#EBBAAA" stroke-width="77.9647" stroke-linecap="round" stroke-linejoin="bevel"/>
<path d="M418.768 599.633C418.768 574.874 473.028 549.605 510.956 537.588L560.475 521.158C567.37 520.941 614.751 522.911 621.582 523.856L698.493 549.605C734.938 554.643 791.191 570.401 787.521 607.008L748.062 767.994L751.699 975.234C751.775 977.145 664.583 987.974 662.672 987.876L517.805 978.689L439.313 975.159C437.478 975.062 436.527 969.694 436.679 967.859L447.223 748.588L418.768 599.633Z" fill="#EBBAAA"/>
<path d="M778.565 574.348C768.872 564.655 736.949 554.856 722.199 551.169C731.505 675.491 750.961 927.296 754.333 939.939C758.547 955.743 850.735 962.064 859.164 955.743C867.592 949.421 877.075 889.894 874.967 857.233C872.86 824.572 790.681 586.464 778.565 574.348Z" fill="#E8E8E8"/>
<path d="M415.522 576.963C424.595 567.278 454.479 557.487 468.287 553.803C459.575 678.029 441.362 929.639 438.206 942.272C434.261 958.063 347.963 964.38 340.073 958.063C332.182 951.747 323.306 892.266 325.279 859.63C327.251 826.994 404.18 589.07 415.522 576.963Z" fill="#E8E8E8"/>
<path d="M578.912 617.017C573.644 601.74 576.278 580.669 576.278 580.669L552.573 588.571L524.126 533.258C491.29 539.052 489.885 541.16 466.179 551.695C437.901 564.264 443.527 606.481 439.313 663.901L433.518 978.394L511.483 990.511L563.635 991.037L586.814 634.401C586.814 634.401 584.18 632.294 578.912 617.017Z" fill="#E8E8E8"/>
<path d="M598.93 616.491C585.234 605.428 587.516 596.648 589.975 588.044L594.716 584.884L629.484 580.669L662.145 536.419C662.145 536.419 709.029 542.741 724.833 551.169C740.636 559.597 750.118 651.786 750.118 651.786L757.494 979.975L717.458 991.038H563.109C561.704 880.763 568.413 643.214 582.073 635.982C599.984 626.5 602.091 619.044 598.93 616.491Z" fill="#E8E8E8"/>
<mask id="mask0" mask-type="alpha" maskUnits="userSpaceOnUse" x="325" y="533" width="551" height="459">
<path fill-rule="evenodd" clip-rule="evenodd" d="M578.912 617.017C573.644 601.74 576.278 580.669 576.278 580.669L552.573 588.571L524.126 533.258C495.842 538.249 490.878 540.505 474.896 547.767C472.323 548.936 469.466 550.235 466.179 551.695C463.142 553.045 460.496 554.737 458.187 556.753C443.193 561.462 422.751 569.246 415.522 576.963C404.18 589.07 327.251 826.994 325.279 859.63C323.306 892.265 332.182 951.746 340.073 958.063C347.09 963.681 416.136 959.305 434.094 947.158L433.519 978.394L511.483 990.511L563.109 991.032C563.109 991.034 563.109 991.036 563.109 991.037H563.635H717.458L757.494 979.975L756.67 943.313C771.822 956.614 851.363 961.593 859.164 955.742C867.592 949.421 877.075 889.894 874.968 857.233C872.86 824.572 790.681 586.463 778.565 574.347C769.705 565.487 742.267 556.538 726.353 552.25C725.853 551.805 725.346 551.443 724.833 551.169C709.029 542.74 662.145 536.419 662.145 536.419L629.484 580.669L594.716 584.883L589.975 588.044C587.516 596.648 585.234 605.428 598.93 616.49C601.829 618.832 600.296 625.299 586.2 633.671C585.142 632.204 582.712 628.037 578.912 617.017Z" fill="#DAE2F3"/>
</mask>
<g mask="url(#mask0)">
<path opacity="0.15" d="M825.229 610.521C732.906 619.06 530.329 631.014 458.605 610.521C386.881 590.029 347.604 583.838 336.93 583.305" stroke="black" stroke-width="21.0716"/>
<path opacity="0.1" d="M825.229 663.199C732.906 671.738 530.329 683.692 458.605 663.199C386.881 642.707 347.604 636.516 336.93 635.982" stroke="black" stroke-width="21.0716"/>
<path opacity="0.15" d="M875.265 723.173C773.482 731.711 550.146 743.665 471.073 723.173C391.999 702.68 348.697 696.49 336.93 695.956" stroke="black" stroke-width="21.0716"/>
<path opacity="0.1" d="M875.265 775.851C773.482 784.39 550.146 796.344 471.073 775.851C391.999 755.359 348.697 749.168 336.93 748.635" stroke="black" stroke-width="21.0716"/>
<path opacity="0.15" d="M875.265 835.824C773.482 844.363 550.146 856.317 471.073 835.824C391.999 815.332 348.697 809.141 336.93 808.607" stroke="black" stroke-width="21.0716"/>
<path opacity="0.1" d="M908.48 888.503C784.676 897.041 513.023 908.995 416.843 888.503C320.662 868.01 267.992 861.82 253.68 861.286" stroke="black" stroke-width="21.0716"/>
<path opacity="0.15" d="M908.48 948.475C784.676 957.014 513.023 968.968 416.843 948.475C320.662 927.983 267.992 921.792 253.68 921.259" stroke="black" stroke-width="21.0716"/>
<path opacity="0.6" d="M825.229 1001.15C732.906 1009.69 530.329 1021.65 458.605 1001.15C386.881 980.662 347.604 974.471 336.93 973.938" stroke="black" stroke-width="21.0716"/>
<path opacity="0.1" d="M753.161 536.4C762.233 572.156 782.298 648.469 789.983 667.681C799.589 691.696 825.205 806.966 834.81 829.38C844.416 851.794 834.81 919.035 834.81 944.651C834.81 965.143 827.339 982.007 823.604 987.877" stroke="black" stroke-width="21.0716"/>
<path opacity="0.15" d="M701.216 536.4C710.288 572.156 730.354 648.469 738.039 667.681C747.644 691.696 773.26 806.966 782.866 829.38C792.472 851.794 782.866 919.035 782.866 944.651C782.866 965.143 775.395 982.007 771.659 987.877" stroke="black" stroke-width="21.0716"/>
<path opacity="0.1" d="M442.077 536.4C433.005 572.156 412.939 648.469 405.255 667.681C395.649 691.696 370.033 806.966 360.427 829.38C350.821 851.794 360.427 919.035 360.427 944.651C360.427 965.143 367.899 982.007 371.634 987.877" stroke="black" stroke-width="21.0716"/>
<path opacity="0.15" d="M494.022 536.4C484.95 572.156 464.884 648.469 457.199 667.681C447.594 691.696 421.978 806.966 412.372 829.38C402.766 851.794 412.372 919.035 412.372 944.651C412.372 965.143 419.843 982.007 423.579 987.877" stroke="black" stroke-width="21.0716"/>
</g>
<circle cx="630.537" cy="610.696" r="5.26789" fill="#DAE2F3"/>
<circle cx="549.412" cy="605.428" r="5.26789" fill="#E5EBF9"/>
<circle opacity="0.1" cx="592.082" cy="655.473" r="7.90183" fill="#EDF2FF"/>
<circle cx="850.208" cy="939.94" r="7.90183" fill="white"/>
<circle cx="350.813" cy="939.94" r="7.90183" fill="white"/>
<ellipse cx="585.76" cy="730.804" rx="7.90183" ry="8.42862" fill="white"/>
<ellipse cx="586.814" cy="669.894" rx="7.90183" ry="8.42862" fill="white"/>
<circle cx="581.546" cy="806.135" r="7.90183" fill="white"/>
<circle cx="581.546" cy="880.938" r="7.90183" fill="white"/>
<circle cx="581.546" cy="947.314" r="7.90183" fill="white"/>
<path opacity="0.1" fill-rule="evenodd" clip-rule="evenodd" d="M511.926 573.234C515.185 560.768 518.555 550.354 522.046 533.578L542.565 535.821C538.713 554.328 535.315 567.262 532.005 579.86C525.891 603.134 520.077 625.262 512.258 679.272C499.453 767.729 489.005 927.943 492.891 983.001L471.872 984.485C467.832 927.247 478.509 765.333 491.404 676.253C499.359 621.304 505.643 597.268 511.926 573.234Z" fill="black"/>
<path opacity="0.15" fill-rule="evenodd" clip-rule="evenodd" d="M538.488 992.833C530.734 882.981 544.579 681.417 566.653 575.355L575.643 580.493C575.643 593.55 575.643 602.54 577.927 612.445C560.084 720.962 552.559 892.92 559.507 991.35L538.488 992.833Z" fill="black"/>
<path opacity="0.1" fill-rule="evenodd" clip-rule="evenodd" d="M676.781 573.234C673.522 560.769 670.556 553.673 667.065 536.897L646.143 535.821C649.994 554.328 653.392 567.262 656.702 579.86C662.816 603.134 668.63 625.263 676.449 679.273C689.207 767.398 695.345 936.927 691.441 992.227L712.46 993.71C716.484 936.715 710.247 765.664 697.303 676.253C689.348 621.304 683.064 597.268 676.781 573.234Z" fill="black"/>
<path opacity="0.15" fill-rule="evenodd" clip-rule="evenodd" d="M641.175 993.898C648.929 884.045 633.676 683.987 611.602 577.925L603.468 582.633L594.05 585.415C615.737 689.616 627.771 884.534 620.156 992.414L641.175 993.898Z" fill="black"/>
<path d="M633.698 551.168C637.322 539.182 633.698 530.623 632.645 525.355L662.145 536.418C662.145 536.418 672.154 549.061 665.832 578.034C658.907 609.775 628.28 622.285 621.055 630.713C617.895 634.401 618.948 589.624 594.716 584.883C605.778 582.249 626.85 573.82 633.698 551.168Z" fill="white"/>
<path d="M549.467 557.49C542.037 546.955 545.89 532.177 549.467 524.303L523.599 533.258C523.599 533.258 508.725 558.868 516.766 583.62C526.76 614.384 562.365 625.5 562.055 621.759C558.894 583.62 571.525 585.042 576.805 580.142C567.85 578.035 559.341 571.492 549.467 557.49Z" fill="white"/>
<path d="M720.582 422.468C750.997 422.468 772.999 387.648 775.653 361.841C778.307 336.035 750.997 309.968 720.582 309.968C690.167 309.968 665.511 333.192 665.511 361.841C665.511 390.491 690.167 422.468 720.582 422.468Z" fill="#EBBAAA"/>
<path d="M463.087 428.417C432.673 428.417 410.67 393.597 408.016 367.791C405.363 341.984 432.673 315.917 463.087 315.917C493.502 315.917 518.158 339.142 518.158 367.791C518.158 396.44 493.502 428.417 463.087 428.417Z" fill="#EBBAAA"/>
<path d="M432.772 283.141C432.772 196.045 502.463 125.44 588.432 125.44C674.4 125.44 744.092 196.045 744.092 283.141L733.556 405.056C721.085 480.969 685.129 538.48 612.395 538.48H564.469C491.735 538.48 458.19 473.398 443.307 405.056L432.772 283.141Z" fill="#F4D4C9"/>
<path d="M698.596 245.99L689.089 166.198C687.652 154.14 687.503 151.065 721.779 176.33C756.056 201.594 761.536 282.21 752.747 317.786L746.167 362.789L731.962 357.468L728.491 305.55C711.22 288.165 701.638 271.524 698.596 245.99Z" fill="#6E6C6C"/>
<path d="M453.316 253.206C454.732 227.533 451.84 228.855 452.783 211.74C453.452 199.616 453.547 196.546 441.31 225.055C429.073 253.565 428.54 289.482 431.083 323.957L434.104 355.731L438.932 355.998L441.111 316.474C449.643 289.087 451.901 278.879 453.316 253.206Z" fill="#6E6C6C"/>
<path fill-rule="evenodd" clip-rule="evenodd" d="M594.497 106.935L594.496 106.935C594.424 106.935 594.352 106.935 594.279 106.935C594.206 106.935 594.134 106.935 594.062 106.935L594.061 106.935C547.771 107.095 436.937 132.761 432.772 252.872C445.079 238.076 459.84 242.982 476.724 233.327C512.265 213.002 545.532 194.202 584.04 194.202C617.129 194.202 656.153 208.841 683.564 221.968C708.085 233.711 731.386 235.37 755.351 252.872C751.186 132.761 640.784 107.095 594.497 106.935Z" fill="#272727"/>
<path d="M627.83 316.377L679.295 316.375" stroke="#393939" stroke-width="19.4545" stroke-linecap="round"/>
<path d="M551.011 316.542L499.603 318.564" stroke="#393939" stroke-width="19.4545" stroke-linecap="round"/>
<path d="M586.567 353.611L575.154 395.838C570.81 411.91 582.915 427.721 599.564 427.721H606.596" stroke="#EBBAAA" stroke-width="18.3737"/>
<path d="M570.45 357.749C575.928 357.251 590.043 356.553 602.683 357.749" stroke="black" stroke-width="10.808"/>
<path d="M606.404 362.275C602.801 351.474 610.322 340.439 621.629 339.936L682.948 337.206C694.256 336.703 703.253 347.003 701.162 358.057L699.374 367.511C697.92 375.201 691.414 380.813 683.548 381.163L627.098 383.676C619.233 384.026 611.993 379.026 609.486 371.512L606.404 362.275Z" fill="white" fill-opacity="0.29" stroke="black" stroke-width="8.64643"/>
<path d="M474.415 357.37C472.568 346.296 481.792 336.134 493.089 336.797L554.331 340.391C565.629 341.053 572.91 352.183 569.073 362.924L565.78 372.143C563.11 379.617 555.758 384.513 547.897 384.052L491.533 380.744C483.671 380.283 477.285 374.581 476 366.875L474.415 357.37Z" fill="white" fill-opacity="0.29" stroke="black" stroke-width="8.64643"/>
<path d="M704.45 356.737L750.16 325.019" stroke="black" stroke-width="11.8888" stroke-linecap="round"/>
<path d="M470.961 356.737L432.772 329.938" stroke="black" stroke-width="11.8888" stroke-linecap="round"/>
<path d="M507.316 360.271C510.835 358.435 520.81 355.865 532.56 360.271" stroke="#393939" stroke-width="12.6429" stroke-linecap="round"/>
<path d="M641.185 360.271C644.703 358.435 654.678 355.865 666.428 360.271" stroke="#393939" stroke-width="12.6429" stroke-linecap="round"/>
<path d="M550.769 475.88C576.6 486.639 604.622 478.819 621.012 478.819" stroke="#C99584" stroke-width="16.4746" stroke-linecap="round"/>
<path d="M473.973 143.286L464.473 177.032L589.699 157.639L732.81 183.801L732.508 169.915L722.3 165.672L722.063 154.762L709.194 155.042L708.828 138.181L692.282 138.54L688.325 125.727L673.618 126.046L664.605 113.343L649.525 117.639L644.756 109.805L629.13 110.145L628.936 101.218L607.988 110.604L602.279 101.798L593.281 110.924L583.895 102.197L566.625 111.503L555.4 102.817L543.645 112.003L535.372 112.182L526.352 120.317L522.503 112.462L507.243 129.663L497.046 125.915L484.138 145.545L473.973 143.286Z" fill="#272727"/>
<mask id="mask1" mask-type="alpha" maskUnits="userSpaceOnUse" x="439" y="131" width="272" height="83">
<path d="M451.999 171.848L439.188 147.755L567.725 157.495L710.836 131.333L710.534 145.219L700.326 149.462L700.089 160.372L687.22 160.092L686.854 176.953L670.308 176.593L666.351 189.407L651.644 189.087L642.631 201.791L627.551 197.494L622.782 205.329L607.156 204.989L606.962 213.916L586.015 204.53L580.305 213.336L571.307 204.21L561.921 212.937L544.651 203.631L533.426 212.317L521.671 203.131L513.398 202.951L504.379 194.817L500.529 202.672L485.269 185.471L475.072 189.219L462.164 169.588L451.999 171.848Z" fill="#272727"/>
</mask>
<g mask="url(#mask1)">
<rect x="518.612" y="153.818" width="153.231" height="104.131" fill="#272727"/>
</g>
<path d="M381.024 1495.82C380.813 1471.64 384.107 1456.93 405.126 1447.05C426.144 1437.17 445.942 1418.17 482.305 1401.89C482.305 1401.89 487.091 1400.99 494.883 1405.2C501.532 1408.8 510.072 1417.62 522.94 1417.5C536.913 1417.38 549.365 1414.42 557.101 1410.36C560.443 1401.2 567.858 1401.14 567.858 1401.14C567.858 1401.14 578.298 1421.01 578.473 1440.97C578.647 1460.94 578.629 1494.09 578.629 1494.09L381.024 1495.82Z" fill="#DCE1E6"/>
<path d="M475.879 1405.96C478.16 1411.09 478.16 1417.36 478.16 1421.36L458.768 1412.8L463.331 1429.34L445.649 1423.64V1440.18L431.96 1432.76V1447.02" stroke="white" stroke-width="5.70373" stroke-linecap="round" stroke-linejoin="round"/>
<path d="M388.976 1448.9C395.425 1446.56 402.254 1444.79 415.347 1441.83L409.783 1457.85L409.942 1476.1L372.675 1476.42C371.154 1476.44 368.436 1474.41 369.734 1466.18C371.355 1455.9 379.813 1452.22 388.976 1448.9Z" fill="#EAF4FB"/>
<path d="M579.253 1490.98L578.171 1471.78L411.068 1474.38L369.402 1471.32L368.13 1486.04C367.69 1491.13 371.503 1495.58 376.592 1495.93L411.277 1498.33L574.768 1495.8C577.361 1495.76 579.399 1493.57 579.253 1490.98Z" fill="#C7CBCF"/>
<path d="M818.943 1497.93C819.154 1473.75 815.86 1459.04 794.841 1449.16C773.823 1439.28 754.025 1420.28 717.662 1403.99C717.662 1403.99 712.876 1403.09 705.084 1407.31C698.436 1410.9 689.895 1419.72 677.027 1419.61C663.054 1419.49 650.602 1416.53 642.866 1412.47C639.524 1403.31 632.109 1403.25 632.109 1403.25C632.109 1403.25 621.669 1423.12 621.494 1443.08C621.32 1463.04 621.338 1496.2 621.338 1496.2L818.943 1497.93Z" fill="#DCE1E6"/>
<path d="M724.088 1408.06C721.807 1413.2 721.807 1419.47 721.807 1423.46L741.199 1414.91L736.636 1431.45L754.318 1425.74V1442.28L768.007 1434.87V1449.13" stroke="white" stroke-width="5.70373" stroke-linecap="round" stroke-linejoin="round"/>
<path d="M810.991 1451.01C804.542 1448.67 797.713 1446.9 784.62 1443.93L790.184 1459.95L790.025 1478.21L827.292 1478.53C828.813 1478.54 831.531 1476.51 830.234 1468.29C828.612 1458.01 820.154 1454.33 810.991 1451.01Z" fill="#EAF4FB"/>
<path d="M620.714 1493.09L621.796 1473.89L788.899 1476.49L830.565 1473.43L831.837 1488.15C832.277 1493.23 828.464 1497.69 823.375 1498.04L788.69 1500.44L625.199 1497.9C622.606 1497.86 620.568 1495.67 620.714 1493.09Z" fill="#C7CBCF"/>
<path opacity="0.2" fill-rule="evenodd" clip-rule="evenodd" d="M450.417 1082.91L479.016 1002.79L495.806 1009.03L467.207 1082.91H450.417Z" fill="white"/>
<path opacity="0.2" fill-rule="evenodd" clip-rule="evenodd" d="M733.438 1082.91L704.839 1002.79L688.049 1009.03L716.648 1082.91H733.438Z" fill="white"/>
<defs>
<filter id="filter0_i" x="519.154" y="537.194" width="145.921" height="68.9686" filterUnits="userSpaceOnUse" color-interpolation-filters="sRGB">
<feFlood flood-opacity="0" result="BackgroundImageFix"/>
<feBlend mode="normal" in="SourceGraphic" in2="BackgroundImageFix" result="shape"/>
<feColorMatrix in="SourceAlpha" type="matrix" values="0 0 0 0 0 0 0 0 0 0 0 0 0 0 0 0 0 0 127 0" result="hardAlpha"/>
<feOffset dy="-8.64643"/>
<feComposite in2="hardAlpha" operator="arithmetic" k2="-1" k3="1"/>
<feColorMatrix type="matrix" values="0 0 0 0 1 0 0 0 0 1 0 0 0 0 1 0 0 0 1 0"/>
<feBlend mode="normal" in2="shape" result="effect1_innerShadow"/>
</filter>
</defs>
</svg>
