<svg width="1200" height="1600" viewBox="0 0 1200 1600" fill="none" xmlns="http://www.w3.org/2000/svg">
<path d="M582.145 1092.92C645.928 1092.92 697.635 1068.43 697.635 1038.21C697.635 1008 645.928 983.508 582.145 983.508C518.361 983.508 466.654 1008 466.654 1038.21C466.654 1068.43 518.361 1092.92 582.145 1092.92Z" fill="#35383E"/>
<path d="M424.707 742.925C393 805 367 969 393 986" stroke="#EBBAAA" stroke-width="74" stroke-linecap="round" stroke-linejoin="bevel"/>
<path d="M747.722 720.188C793.074 800.584 809.491 949.648 793 995" stroke="#EBBAAA" stroke-width="74" stroke-linecap="round" stroke-linejoin="bevel"/>
<path d="M667.326 1247.92V1415.92" stroke="#EBBAAA" stroke-width="54" stroke-linecap="round" stroke-linejoin="bevel"/>
<path d="M531.271 1247.92L548 1401" stroke="#EBBAAA" stroke-width="54" stroke-linecap="round" stroke-linejoin="bevel"/>
<path d="M574 1387C544.4 1393 524.667 1389.5 519.5 1387L522.5 1420.5L554 1435.5L578 1415.5C577 1407 575 1397 574 1387Z" fill="#91979C"/>
<path d="M640 1388C669.6 1394 689.333 1390.5 694.5 1388V1421.5L663 1436.5L639 1416.5C640 1408 639 1398 640 1388Z" fill="#91979C"/>
<path d="M408.763 1481.02C408.563 1458.07 411.69 1444.11 431.639 1434.73C451.589 1425.35 470.38 1407.32 504.894 1391.86C504.894 1391.86 509.437 1391.01 516.832 1395.01C523.142 1398.42 531.248 1406.79 543.462 1406.69C556.724 1406.57 568.543 1403.76 575.886 1399.91C579.058 1391.22 586.096 1391.16 586.096 1391.16C586.096 1391.16 596.005 1410.02 596.171 1428.97C596.336 1447.91 596.319 1479.38 596.319 1479.38L408.763 1481.02Z" fill="#3D507B"/>
<path d="M498.795 1395.73C500.96 1400.6 500.96 1406.55 500.96 1410.34L482.554 1402.22L486.885 1417.92L470.102 1412.51V1428.21L457.109 1421.17V1434.71" stroke="white" stroke-width="5.41368" stroke-linecap="round" stroke-linejoin="round"/>
<path d="M416.311 1436.49C422.431 1434.27 428.913 1432.59 441.341 1429.77L436.06 1444.98L436.211 1462.3L400.838 1462.61C399.395 1462.62 396.815 1460.7 398.047 1452.89C399.586 1443.13 407.614 1439.64 416.311 1436.49Z" fill="#2B3C61"/>
<path d="M596.912 1476.43L595.885 1458.2L437.279 1460.67L397.733 1457.77L396.525 1471.74C396.108 1476.57 399.726 1480.8 404.557 1481.13L437.478 1483.41L592.655 1481C595.116 1480.96 597.05 1478.88 596.912 1476.43Z" fill="#808080"/>
<path d="M806.412 1481.02C806.612 1458.07 803.486 1444.11 783.536 1434.73C763.587 1425.35 744.795 1407.32 710.282 1391.86C710.282 1391.86 705.739 1391.01 698.344 1395.01C692.033 1398.42 683.927 1406.79 671.714 1406.69C658.451 1406.57 646.632 1403.76 639.289 1399.91C636.117 1391.22 629.079 1391.16 629.079 1391.16C629.079 1391.16 619.17 1410.02 619.005 1428.97C618.839 1447.91 618.856 1479.38 618.856 1479.38L806.412 1481.02Z" fill="#3D507B"/>
<path d="M716.381 1395.73C714.215 1400.6 714.215 1406.55 714.215 1410.34L732.622 1402.22L728.291 1417.92L745.073 1412.51V1428.21L758.066 1421.17V1434.71" stroke="white" stroke-width="5.41368" stroke-linecap="round" stroke-linejoin="round"/>
<path d="M798.865 1436.49C792.744 1434.27 786.262 1432.59 773.834 1429.77L779.116 1444.98L778.964 1462.3L814.337 1462.61C815.78 1462.62 818.36 1460.7 817.129 1452.89C815.59 1443.13 807.562 1439.64 798.865 1436.49Z" fill="#2B3C61"/>
<path d="M618.263 1476.43L619.291 1458.2L777.896 1460.67L817.443 1457.77L818.651 1471.74C819.068 1476.57 815.449 1480.8 810.618 1481.13L777.697 1483.41L622.52 1481C620.059 1480.96 618.125 1478.88 618.263 1476.43Z" fill="#808080"/>
<path d="M458 977H593L588 1336.79V1361H496L491.886 1330.3L458 977Z" fill="#35383E"/>
<path d="M591.714 983.021H727.172L722 1333L716 1361L629 1367L625.739 1337L591.714 983.021Z" fill="#35383E"/>
<path d="M490 1349H590V1373H492.785L490 1349Z" fill="#3E4A57"/>
<path d="M625 1351H719L715 1373H628.743L625 1351Z" fill="#3E4A57"/>
<rect x="389.663" y="693.534" width="109.872" height="16.687" transform="rotate(18 389.663 693.534)" fill="#F1EDED"/>
<rect x="802.742" y="732.021" width="109.872" height="16.687" transform="rotate(162 802.742 732.021)" fill="#F1EDED"/>
<path d="M460.553 649.116C461.388 614.7 488.939 586.912 523.345 585.788L603.669 583.16C610.214 582.954 616.769 583.294 623.253 584.191L701.66 595.034C736.251 599.816 760.864 631.088 757.38 665.834L742.548 813.722L749.99 1025.6C750.062 1027.41 663.814 1025.69 662 1025.6H523.345L444.536 1013.7C442.794 1013.61 441.464 1012.09 441.608 1010.35L457.007 795.303L460.553 649.116Z" fill="#D7DADD"/>
<path d="M591.114 672.774C630.962 672.774 663.264 640.471 663.264 600.623C663.264 560.776 630.962 528.473 591.114 528.473C551.266 528.473 518.963 560.776 518.963 600.623C518.963 640.471 551.266 672.774 591.114 672.774Z" fill="#E9E4E0"/>
<rect x="552" y="523" width="88" height="119" rx="37.911" fill="#EBBAAA"/>
<rect x="546" y="448" width="96" height="194" rx="48" fill="#EBBAAA"/>
<rect x="424.144" y="576" width="147.712" height="359.643" rx="73.856" transform="rotate(16.5 424.144 576)" fill="#A3A7AE"/>
<path d="M339.201 978C332.801 959.6 337 871 345 841L453.201 860C441 898 439 948 430 997L429.847 997.007C408.701 998.014 347.182 1000.94 339.201 978Z" fill="#A3A7AE"/>
<path d="M366 839L438.5 861L359.5 853.5L366 839Z" fill="#969BA3"/>
<path d="M384 868L440 865L391.5 880.5L384 868Z" fill="#969BA3"/>
<rect width="157.985" height="388.308" rx="78.9925" transform="matrix(-0.945519 0.325568 0.325568 0.945519 752.378 570)" fill="#A3A7AE"/>
<path d="M603 852C602.206 784.844 580 692.652 580 660.5C573 660.5 566 659.5 561 656.5C561.27 630.657 563.098 604.155 552.115 580L466.591 596.472C453.269 614.805 429.831 669.579 426.07 774.497C423.08 857.877 426.171 914.061 426.07 968C426.043 981.933 446 992.179 446 1029.68C462.457 1034.44 548.927 1046.6 603 1029.68C613 964 604.176 951.418 603 852Z" fill="#AEB4BF"/>
<path d="M525 1013.5C502.6 1015.1 463 1008 440 1000V1034C453 1044 486.5 1043 505 1043C528 1043 565 1050 605 1044L603 1013.5C589 1016.5 547.4 1011.9 525 1013.5Z" fill="#B7BECB"/>
<path d="M854 982C860.4 963.6 862 899 854 869L740 864C752.201 902 738 941 747 990C768 991 846 1005 854 982Z" fill="#A3A7AE"/>
<path d="M820.5 830L748 852L827 844.5L820.5 830Z" fill="#969BA3"/>
<path d="M807 862L751 859L799.5 874.5L807 862Z" fill="#969BA3"/>
<path d="M595 840C595 743.793 605 690.112 605 659C610.5 659 616.45 659.5 624 657C627.584 630.4 637.264 600.882 647.382 578L705.425 587.36C719.863 589.688 732.535 598.084 735.745 612.353C742.859 643.979 746.943 703.045 753.438 780.125C760 858 756.741 923.547 760 977C761.017 993.673 738.124 1020.86 739 1031.72C710.241 1035.82 651.882 1048.1 601 1031.72C601 966.226 595 936.207 595 840Z" fill="#AEB4BF"/>
<path d="M664 1018C686.4 1019.6 730 1017.5 749 1002L751 1037C731 1042 703.5 1046 696 1046C663.612 1046 636 1051 596 1045V1011.5C610 1014.5 641.6 1016.4 664 1018Z" fill="#B7BECB"/>
<path d="M584.5 976C584.5 948.8 580.333 780 573 700L562.5 658L584 659C585.711 672.869 590 707 596 736L605.5 659L622.5 658C622.5 676.667 615 718.4 615 736V1048L584.5 1046V976Z" fill="#9B9FA6"/>
<path d="M595 735C598.333 833.167 602.5 1006 599.5 1046.5" stroke="#AEB4BF" stroke-width="12"/>
<path d="M704.688 593C715.888 587.4 690.688 576 679.688 570C670.688 567.333 650.888 561.2 639.688 578C625.688 599 612.317 724.148 622.688 699C662.688 602 690.688 600 704.688 593Z" fill="#B7BECB"/>
<path d="M489 595C477.8 589.4 503 578 514 572C523 569.333 542.8 563.2 554 580C568 601 581.371 726.148 571 701C531 604 503 602 489 595Z" fill="#B7BECB"/>
<path opacity="0.5" d="M744 443.001C766.091 443.001 784 425.092 784 403.001C784 380.91 766.091 363.001 744 363.001C721.909 363.001 704 380.91 704 403.001C704 425.092 721.909 443.001 744 443.001Z" fill="#C99584"/>
<path opacity="0.5" d="M444 443.001C421.908 443.001 404 425.092 404 403.001C404 380.91 421.908 363.001 444 363.001C466.091 363.001 484 380.91 484 403.001C484 425.092 466.091 443.001 444 443.001Z" fill="#C99584"/>
<path d="M444 305C444 222.157 511.157 155 594 155C676.843 155 744 222.157 744 305V475C744 530.228 699.228 575 644 575H544C488.772 575 444 530.228 444 475V305Z" fill="#F4D5CC"/>
<mask id="mask0" mask-type="alpha" maskUnits="userSpaceOnUse" x="444" y="155" width="300" height="420">
<path d="M444 305C444 222.157 511.157 155 594 155C676.843 155 744 222.157 744 305V475C744 530.228 699.228 575 644 575H544C488.772 575 444 530.228 444 475V305Z" fill="#F4D5CC"/>
</mask>
<g mask="url(#mask0)">
<path d="M498.018 460C459.72 460.56 445.06 409.564 431.018 393C427.351 425 419.818 490.2 419.018 495C418.218 499.8 444.684 559 458.018 588H693.018L777.018 489C780.018 447.333 796.018 374 784.018 402C772.018 430 735.351 460 708.018 460C708.018 460 647.018 447 599.018 447C551.018 447 498.018 460 498.018 460Z" fill="#D5CCC9"/>
</g>
<path d="M638 316L698 319.5" stroke="#393939" stroke-width="18" stroke-linecap="round"/>
<path d="M548 316L488 319.5" stroke="#393939" stroke-width="18" stroke-linecap="round"/>
<path d="M619 360C619 354.477 623.477 350 629 350H709C714.523 350 719 354.477 719 360V395C719 411.569 705.569 425 689 425H649C632.431 425 619 411.569 619 395V360Z" stroke="#393939" stroke-width="12"/>
<path d="M469 360C469 354.477 473.477 350 479 350H559C564.523 350 569 354.477 569 360V395C569 411.569 555.569 425 539 425H499C482.431 425 469 411.569 469 395V360Z" stroke="#393939" stroke-width="12"/>
<rect x="569" y="366" width="50" height="10" fill="#393939"/>
<path d="M656.537 362.407V390.297" stroke="black" stroke-width="24" stroke-linecap="round"/>
<path d="M531.46 362.407V390.297" stroke="black" stroke-width="24" stroke-linecap="round"/>
<path d="M554 486C554 486 568.667 494.5 594 494.5C619.333 494.5 634 486 634 486" stroke="#C99584" stroke-width="15.3993" stroke-linecap="round"/>
<path d="M748.991 269.487C749.224 263.216 744.683 258.001 739 258.001C733.104 258.001 728.488 263.595 729.046 270.071L738.461 419.774C738.619 421.608 740.012 423.001 741.674 423.001C743.411 423.001 744.831 421.495 744.906 419.589L748.991 269.487Z" fill="#6E6C6C"/>
<path d="M454.991 269.487C455.224 263.216 450.683 258.001 445 258.001C439.104 258.001 434.488 263.595 435.046 270.071L444.461 419.774C444.619 421.608 446.012 423.001 447.674 423.001C449.411 423.001 450.831 421.495 450.906 419.589L454.991 269.487Z" fill="#6E6C6C"/>
<path d="M589.324 251.179C665.473 251.179 701 257 734 317C746.845 335.099 745.279 317.044 759.389 299.772C773.5 282.5 768.5 256.5 753 244C761 204 730.5 171.5 698.5 171.5C677.5 128.5 609 125.5 589.324 145C589.324 145 513.167 251.179 589.324 251.179Z" fill="#393939"/>
<path d="M596.377 246.703C520.229 246.703 484.702 252.523 451.702 312.523C438.856 330.622 440.423 312.567 426.312 295.295C412.202 278.023 417.202 252.023 432.702 239.523C424.702 199.523 455.201 167.023 487.201 167.023C508.201 124.023 576.701 121.023 596.377 140.523C596.377 140.523 672.534 246.703 596.377 246.703Z" fill="#393939"/>
<path d="M706.632 294.234C709.255 259.564 714.355 243.734 709.449 230.014L465.049 224L443 309.014L453.5 336.514C458.824 302.924 465.049 288.524 488.133 271.09C523.795 244.156 556.867 269.024 574.461 288.524C574.461 264.684 584.681 265.224 593.687 260.354C592.375 282.894 638.948 292.059 661.04 292.059C640.332 282.894 636.969 266.211 646.791 258.081C677.002 260.354 684.122 263.894 706.632 294.234Z" fill="#393939"/>
<path d="M594 393C584 408 574 443 604 443" stroke="#EBBAAA" stroke-width="17"/>
<path d="M680.192 765V719.432H668.992V742.344L654.4 719.432H644.608V765H655.808V742.088L670.4 765H680.192ZM723.469 751.56C723.469 745.16 719.693 742.792 717.837 741.64C719.245 740.68 722.829 737.8 722.829 732.616C722.829 724.744 717.773 719.432 708.301 719.432H689.421V765H709.261C717.389 765 723.469 760.264 723.469 751.56ZM711.629 733.192C711.629 734.984 710.669 736.904 707.597 736.904H700.621V729.48H707.597C710.669 729.48 711.629 731.4 711.629 733.192ZM712.269 750.92C712.269 752.84 711.245 754.952 708.173 754.952H700.621V746.952H708.173C711.245 746.952 712.269 749 712.269 750.92Z" fill="#3D507B"/>
<path d="M680.192 765V775H690.192V765H680.192ZM680.192 719.432H690.192V709.432H680.192V719.432ZM668.992 719.432V709.432H658.992V719.432H668.992ZM668.992 742.344L660.557 747.716L678.992 776.661V742.344H668.992ZM654.4 719.432L662.835 714.06L659.887 709.432H654.4V719.432ZM644.608 719.432V709.432H634.608V719.432H644.608ZM644.608 765H634.608V775H644.608V765ZM655.808 765V775H665.808V765H655.808ZM655.808 742.088L664.243 736.716L645.808 707.771V742.088H655.808ZM670.4 765L661.965 770.372L664.913 775H670.4V765ZM690.192 765V719.432H670.192V765H690.192ZM680.192 709.432H668.992V729.432H680.192V709.432ZM658.992 719.432V742.344H678.992V719.432H658.992ZM677.427 736.972L662.835 714.06L645.965 724.804L660.557 747.716L677.427 736.972ZM654.4 709.432H644.608V729.432H654.4V709.432ZM634.608 719.432V765H654.608V719.432H634.608ZM644.608 775H655.808V755H644.608V775ZM665.808 765V742.088H645.808V765H665.808ZM647.373 747.46L661.965 770.372L678.835 759.628L664.243 736.716L647.373 747.46ZM670.4 775H680.192V755H670.4V775ZM717.837 741.64L712.203 733.378L699.508 742.033L712.563 750.136L717.837 741.64ZM689.421 719.432V709.432H679.421V719.432H689.421ZM689.421 765H679.421V775H689.421V765ZM700.62 736.904H690.62V746.904H700.62V736.904ZM700.62 729.48V719.48H690.62V729.48H700.62ZM700.62 754.952H690.62V764.952H700.62V754.952ZM700.62 746.952V736.952H690.62V746.952H700.62ZM733.469 751.56C733.469 746.199 731.823 741.863 729.289 738.553C726.913 735.45 724.111 733.765 723.11 733.144L712.563 750.136C713.418 750.667 713.432 750.742 713.408 750.711C713.371 750.662 713.359 750.625 713.37 750.657C713.383 750.694 713.469 750.959 713.469 751.56H733.469ZM723.47 749.902C725.67 748.402 732.829 742.911 732.829 732.616H712.829C712.829 732.685 712.823 732.721 712.821 732.732C712.819 732.744 712.817 732.748 712.817 732.749C712.817 732.75 712.803 732.788 712.747 732.867C712.686 732.951 712.596 733.053 712.48 733.158C712.366 733.262 712.264 733.336 712.203 733.378L723.47 749.902ZM732.829 732.616C732.829 726.493 730.807 720.358 725.983 715.802C721.215 711.299 714.872 709.432 708.3 709.432V729.432C711.201 729.432 712.122 730.221 712.25 730.342C712.322 730.41 712.829 730.867 712.829 732.616H732.829ZM708.3 709.432H689.421V729.432H708.3V709.432ZM679.421 719.432V765H699.421V719.432H679.421ZM689.421 775H709.26V755H689.421V775ZM709.26 775C715.205 775 721.324 773.258 726.085 768.992C730.996 764.593 733.469 758.39 733.469 751.56H713.469C713.469 752.565 713.296 753.163 713.165 753.476C713.04 753.776 712.897 753.955 712.74 754.096C712.429 754.374 711.444 755 709.26 755V775ZM701.629 733.192C701.629 732.459 701.814 730.742 703.281 729.087C704.957 727.196 706.939 726.904 707.596 726.904V746.904C711.326 746.904 715.324 745.652 718.248 742.353C720.963 739.29 721.629 735.717 721.629 733.192H701.629ZM707.596 726.904H700.62V746.904H707.596V726.904ZM710.62 736.904V729.48H690.62V736.904H710.62ZM700.62 739.48H707.596V719.48H700.62V739.48ZM707.596 739.48C706.939 739.48 704.957 739.188 703.281 737.297C701.814 735.642 701.629 733.925 701.629 733.192H721.629C721.629 730.667 720.963 727.094 718.248 724.031C715.324 720.732 711.326 719.48 707.596 719.48V739.48ZM702.269 750.92C702.269 750.28 702.419 748.78 703.69 747.254C704.36 746.451 705.211 745.814 706.144 745.411C707.05 745.02 707.79 744.952 708.173 744.952V764.952C712.214 764.952 716.238 763.438 719.055 760.058C721.606 756.996 722.269 753.48 722.269 750.92H702.269ZM708.173 744.952H700.62V764.952H708.173V744.952ZM710.62 754.952V746.952H690.62V754.952H710.62ZM700.62 756.952H708.173V736.952H700.62V756.952ZM708.173 756.952C707.308 756.952 705.336 756.552 703.757 754.697C702.426 753.133 702.269 751.57 702.269 750.92H722.269C722.269 748.35 721.599 744.803 718.988 741.735C716.129 738.376 712.109 736.952 708.173 736.952V756.952Z" fill="#E8ECF3"/>
</svg>
