<svg width="1200" height="1600" viewBox="0 0 1200 1600" fill="none" xmlns="http://www.w3.org/2000/svg">
<path d="M749.5 1125L720.5 1018L762 979L783.5 1105.5L749.5 1125Z" fill="#424657"/>
<path d="M713.955 878.065L622.455 895.065L595.955 924.065C586.622 935.398 571.555 959.765 585.955 966.565C603.955 975.065 666.455 970.565 690.955 975.065C715.455 979.565 745.955 994.565 749.455 1027.57C752.255 1053.97 742.5 1078 767.5 1081.5C767.5 1084.67 766.355 1071.97 769.955 1105.57C773.555 1139.17 781.788 1150.23 785.455 1151.57C783.5 1159.5 779.6 1163.6 782 1184C784.4 1204.4 802.788 1205.9 812.455 1205.57C808.122 1205.23 798.255 1199.87 793.455 1181.07C787.455 1157.57 826.455 1123.57 829.455 1098.07C832.455 1072.57 783.5 957.5 775 902C768.2 857.6 740.5 837.167 733 845L734.455 861.065L713.955 878.065Z" fill="#6A6E7E"/>
<mask id="mask0" mask-type="alpha" maskUnits="userSpaceOnUse" x="580" y="843" width="250" height="363">
<path d="M713.955 878.065L622.455 895.065L595.955 924.065C586.622 935.398 571.555 959.765 585.955 966.565C603.955 975.065 666.455 970.565 690.955 975.065C715.455 979.565 745.955 994.565 749.455 1027.57C752.255 1053.97 742.5 1078 767.5 1081.5C767.5 1084.67 766.355 1071.97 769.955 1105.57C773.555 1139.17 781.788 1150.23 785.455 1151.57C783.5 1159.5 779.6 1163.6 782 1184C784.4 1204.4 802.788 1205.9 812.455 1205.57C808.122 1205.23 798.255 1199.87 793.455 1181.07C787.455 1157.57 826.455 1123.57 829.455 1098.07C832.455 1072.57 783.5 957.5 775 902C768.2 857.6 740.5 837.167 733 845L734.455 861.065L713.955 878.065Z" fill="#6A6E7E"/>
</mask>
<g mask="url(#mask0)">
<path d="M769.5 1072.5C759.5 1070.9 750 1071.5 748 1065L739 1072.5C737.333 1076.17 740.7 1082.7 767.5 1081.5C801 1080 821 1085 823.5 1094C826 1103 822 1108 809.5 1123.5C800.37 1134.82 795 1134.5 785.5 1152L778 1153.5V1199L815.5 1209L827.5 1146.5C832.333 1131.83 839.9 1099.6 831.5 1088C821 1073.5 782 1074.5 769.5 1072.5Z" fill="black"/>
</g>
<path d="M818 1460C818.201 1437.05 814.735 1443.11 794.786 1433.73C774.836 1424.35 756.045 1406.32 721.531 1390.86C721.531 1390.86 716.988 1390.01 709.593 1394C703.283 1397.42 695.177 1405.79 682.963 1405.68C669.701 1405.57 657.882 1402.76 650.539 1398.9C647.367 1390.21 640.329 1390.15 640.329 1390.15C640.329 1390.15 630.42 1409.01 630.254 1427.96C630.089 1446.91 630.254 1460 630.254 1460L818 1460Z" fill="#DCE1E6"/>
<path d="M644 1460C644 1460 644 1422 684 1405" stroke="#D0D4D8" stroke-width="2"/>
<path d="M749 1460.5C749 1460.5 751 1416.5 698 1406" stroke="#D0D4D8" stroke-width="2"/>
<path d="M792.5 1443.5C792.5 1443.5 695 1458.5 695 1400" stroke="#D0D4D8" stroke-width="2"/>
<path d="M684 1429V1415" stroke="#D0D4D8" stroke-width="20"/>
<path d="M727.216 1393.74C725.05 1398.62 725.05 1404.57 725.05 1408.36L743.457 1400.24L739.126 1415.94L755.908 1410.53V1426.23L768.901 1419.19V1432.72" stroke="black" stroke-width="5.41368" stroke-linecap="round" stroke-linejoin="round"/>
<path d="M809.699 1434.51C803.579 1432.29 797.097 1430.61 784.669 1427.79L789.95 1443L789.799 1460.32L825.172 1460.63C826.615 1460.64 829.195 1458.72 827.963 1450.91C826.424 1441.15 818.396 1437.66 809.699 1434.51Z" fill="#EAF4FB"/>
<path d="M630.001 1460H658.001V1474C658.001 1476.76 655.762 1479 653.001 1479H635.001C632.239 1479 630.001 1476.76 630.001 1474V1460Z" fill="#C6CBCF"/>
<path d="M659.001 1460H687.001V1474C687.001 1476.76 684.762 1479 682.001 1479H664.001C661.239 1479 659.001 1476.76 659.001 1474V1460Z" fill="#C6CBCF"/>
<path d="M688.001 1460H716.001V1474C716.001 1476.76 713.762 1479 711.001 1479H693.001C690.239 1479 688.001 1476.76 688.001 1474V1460Z" fill="#C6CBCF"/>
<path d="M717.001 1460H745.001V1474C745.001 1476.76 742.762 1479 740.001 1479H722.001C719.239 1479 717.001 1476.76 717.001 1474V1460Z" fill="#C6CBCF"/>
<path d="M746.001 1460H774.001V1474C774.001 1476.76 771.762 1479 769.001 1479H751.001C748.239 1479 746.001 1476.76 746.001 1474V1460Z" fill="#C6CBCF"/>
<path d="M775.001 1460H803.001V1474C803.001 1476.76 800.762 1479 798.001 1479H780.001C777.239 1479 775.001 1476.76 775.001 1474V1460Z" fill="#C6CBCF"/>
<path d="M804.001 1460H827.001V1474C827.001 1476.76 824.762 1479 822.001 1479H809.001C806.239 1479 804.001 1476.76 804.001 1474V1460Z" fill="#C6CBCF"/>
<path d="M400.959 1461.58C400.689 1438.53 404.188 1444.6 424.199 1435.12C444.21 1425.64 463.031 1407.47 497.653 1391.84C497.653 1391.84 502.214 1390.97 509.654 1394.96C516.003 1398.37 524.17 1406.76 536.438 1406.61C549.76 1406.46 561.623 1403.6 568.987 1399.71C572.148 1390.97 579.217 1390.89 579.217 1390.89C579.217 1390.89 589.227 1409.8 589.45 1428.83C589.673 1447.87 589.547 1461.02 589.547 1461.02L400.959 1461.58Z" fill="#DCE1E6"/>
<path d="M575.739 1461.06C575.739 1461.06 575.625 1422.89 535.394 1405.93" stroke="#D0D4D8" stroke-width="2"/>
<path d="M470.27 1461.88C470.27 1461.88 468.129 1417.68 521.335 1406.98" stroke="#D0D4D8" stroke-width="2"/>
<path d="M426.524 1444.93C426.524 1444.93 524.506 1459.7 524.33 1400.94" stroke="#D0D4D8" stroke-width="2"/>
<path d="M535.479 1430.06L535.437 1415.99" stroke="#D0D4D8" stroke-width="20"/>
<path d="M491.952 1394.75C494.142 1399.64 494.159 1405.62 494.171 1409.43L475.657 1401.33L480.055 1417.09L463.181 1411.7L463.228 1427.47L450.156 1420.44L450.197 1434.03" stroke="black" stroke-width="5.41368" stroke-linecap="round" stroke-linejoin="round"/>
<path d="M409.221 1435.95C415.362 1433.7 421.868 1431.99 434.343 1429.13L429.084 1444.42L429.288 1461.82L393.758 1462.23C392.308 1462.25 389.711 1460.32 390.924 1452.48C392.441 1442.67 400.494 1439.14 409.221 1435.95Z" fill="#EAF4FB"/>
<path d="M589.801 1461.02L561.676 1461.1L561.718 1475.19C561.726 1477.95 563.972 1480.18 566.733 1480.17L584.859 1480.12C587.62 1480.11 589.852 1477.86 589.844 1475.1L589.801 1461.02Z" fill="#C6CBCF"/>
<path d="M560.671 1461.1L532.546 1461.19L532.588 1475.27C532.596 1478.03 534.842 1480.27 537.603 1480.26L555.728 1480.2C558.49 1480.2 560.722 1477.95 560.714 1475.19L560.671 1461.1Z" fill="#C6CBCF"/>
<path d="M531.542 1461.19L503.416 1461.28L503.459 1475.36C503.467 1478.12 505.712 1480.35 508.474 1480.35L526.599 1480.29C529.36 1480.28 531.592 1478.04 531.584 1475.28L531.542 1461.19Z" fill="#C6CBCF"/>
<path d="M502.412 1461.28L474.286 1461.36L474.329 1475.45C474.337 1478.21 476.582 1480.44 479.343 1480.43L497.469 1480.38C500.23 1480.37 502.462 1478.12 502.454 1475.36L502.412 1461.28Z" fill="#C6CBCF"/>
<path d="M473.282 1461.37L445.156 1461.45L445.199 1475.53C445.207 1478.3 447.452 1480.53 450.213 1480.52L468.339 1480.47C471.1 1480.46 473.332 1478.21 473.324 1475.45L473.282 1461.37Z" fill="#C6CBCF"/>
<path d="M444.152 1461.45L416.026 1461.54L416.069 1475.62C416.077 1478.38 418.322 1480.62 421.083 1480.61L439.209 1480.55C441.97 1480.55 444.202 1478.3 444.194 1475.54L444.152 1461.45Z" fill="#C6CBCF"/>
<path d="M415.022 1461.54L391.919 1461.61L391.961 1475.7C391.97 1478.46 394.215 1480.69 396.976 1480.68L410.079 1480.64C412.841 1480.63 415.073 1478.39 415.064 1475.63L415.022 1461.54Z" fill="#C6CBCF"/>
<path d="M461 1013.42L583.866 1024.79V1395L485.5 1390.5L461 1013.42Z" fill="#101C28"/>
<path d="M635 1104.5V1387.5" stroke="#EAEAEA" stroke-dasharray="5 5"/>
<path d="M475.717 1407L472 1387H586V1407H475.717Z" fill="#070F16"/>
<ellipse cx="601.31" cy="1041.93" rx="118.297" ry="60.9254" fill="#101C28"/>
<path d="M603.013 1025.6H728.925L739.5 1399.5L634 1396.5L603.013 1025.6Z" fill="#101C28"/>
<path d="M632.735 1410L629 1390H751V1410H632.735Z" fill="#070F16"/>
<path d="M574 1035.5V1387.5" stroke="#817F7F" stroke-dasharray="5 5"/>
<path d="M585.5 1392L472 1392" stroke="#817F7F" stroke-dasharray="5 5"/>
<path d="M750.5 1395L630 1395" stroke="#817F7F" stroke-dasharray="5 5"/>
<path d="M618 1104.5L643.5 1386" stroke="#817F7F" stroke-dasharray="5 5"/>
<path d="M798.5 993.5C816 905.5 806.5 787 798.5 742" stroke="#EBBAAA" stroke-width="90" stroke-linecap="round" stroke-linejoin="bevel"/>
<path d="M393 607.5C417.5 572.5 485 579.5 526.5 560H681.5C738.5 579.5 772.05 571 797.5 607.5C835.5 662 854.5 766.5 864.5 861C864.5 861 826.5 862.197 809 867.5C791.5 872.803 758 884.5 758 884.5L731 792V819.5L738.5 919L758 1020C725.333 1025.67 651.8 1037.5 619 1039.5C586.2 1041.5 474.5 1027.33 432 1020C432 989.667 450.5 919 450.5 919C450.5 919 456 893 450.5 867.5C448.557 858.491 444.05 838.28 439.812 818.866C398.833 817.142 327 813.5 327 813.5C327 813.5 342.622 731.644 357.5 688.5C367.5 659.5 376.082 631.667 393 607.5Z" fill="#CFD1D9"/>
<mask id="mask1" mask-type="alpha" maskUnits="userSpaceOnUse" x="327" y="560" width="538" height="481">
<path d="M393 608C417.5 573 485 580 526.5 560.5H681.5C738.5 580 772.05 571.5 797.5 608C835.5 662.5 854.5 767 864.5 861.5C864.5 861.5 826.5 862.697 809 868C791.5 873.303 758 885 758 885L731 792.5V820L738.5 919.5L758 1020.5C725.333 1026.17 651.8 1038 619 1040C586.2 1042 474.5 1027.83 432 1020.5C432 990.167 450.5 919.5 450.5 919.5C450.5 919.5 456 893.5 450.5 868C448.557 858.991 444.05 838.78 439.812 819.366C398.833 817.642 327 814 327 814C327 814 342.622 732.144 357.5 689C367.5 660 376.082 632.167 393 608Z" fill="#CFD1D9"/>
</mask>
<g mask="url(#mask1)">
<path d="M564 777.5L330 721L295 777.5L312.5 1020L575 1124L737.5 1080L883 777.5H564Z" fill="black"/>
<path d="M411.5 660.5L373.5 622L331 679V751L354 772L436 798.5L445.5 851L468 837.5H498.5H573H652L737.5 851L734.5 813.5C734.5 813.5 764.5 820 797.5 813.5C830.5 807 853 785.5 853 785.5L873 736.5L847 660.5L724.5 699.5L661 683H487.5L411.5 660.5Z" fill="#EDEDF3"/>
<path d="M713.955 878.065L622.455 895.065L595.955 924.065C586.622 935.398 571.555 959.765 585.955 966.565C603.955 975.065 666.455 970.565 690.955 975.065C715.455 979.565 745.955 994.565 749.455 1027.57C752.255 1053.97 761.288 1056.23 765.455 1054.07C765.455 1057.23 766.355 1071.97 769.955 1105.57C773.555 1139.17 781.788 1150.23 785.455 1151.57C782.788 1152.9 778.055 1160.67 780.455 1181.07C782.855 1201.47 802.788 1205.9 812.455 1205.57C808.122 1205.23 798.255 1199.87 793.455 1181.07C787.455 1157.57 826.455 1123.57 829.455 1098.07C832.455 1072.57 783.5 957.5 775 902C768.2 857.6 740.5 837.167 733 845L734.455 861.065L713.955 878.065Z" fill="#767986"/>
<path d="M642.5 948.5L622.5 939C608.5 939 571 950.2 583 965C598 983.5 696.612 973.34 723 988C741 998 746.5 1017.5 748 1024H760L771 994.5L743.5 944.5L680.5 939L642.5 948.5Z" fill="#6A6E7E"/>
<path d="M545.5 891C577.1 887 590.333 902.334 593 910.5L584 928.5L452 942.5V928.5C470 917.667 513.9 895 545.5 891Z" fill="#6A6E7E"/>
<path d="M565 946.5L472.5 1005.5L465 978.5L518.5 931H585.5L565 946.5Z" fill="#767986"/>
<path d="M542 904C558.4 902 581.167 919.167 590.5 925.5L576.5 931H542L477.5 995L439 940C444.167 938.667 437.8 927.901 457 919.5C481 909 521.5 906.5 542 904Z" fill="#8E919D"/>
</g>
<path d="M519.5 1128L458 967.5L424.5 1166L519.5 1128Z" fill="#424657"/>
<path d="M485 1173C476.2 1162.2 470.667 1110.83 469 1086.5C450.833 1131.67 414.7 1227.2 415.5 1248C416.5 1274 424.5 1260.5 440 1259C455.5 1257.5 469 1213 469 1208.5C469 1204 496 1186.5 485 1173Z" fill="#4F5363"/>
<path d="M408.5 1048.5C400.5 1024.9 405.167 974.333 408.5 952L427 906.5L453 899C461.833 936 493.1 1096 481.5 1104C467 1114 446.5 1171.5 446.5 1198C446.5 1219.2 421.167 1253.5 408.5 1268C408.5 1254.83 405.8 1222.4 395 1198C381.499 1167.5 418.5 1078 408.5 1048.5Z" fill="#6A6E7E"/>
<mask id="mask2" mask-type="alpha" maskUnits="userSpaceOnUse" x="391" y="906" width="94" height="362">
<path d="M408.5 1048.5C400.5 1024.9 405.167 974.333 408.5 952L427 906.5L453.5 918C462.333 955 493.1 1096 481.5 1104C467 1114 446.5 1171.5 446.5 1198C446.5 1219.2 421.167 1253.5 408.5 1268C408.5 1254.83 405.8 1222.4 395 1198C381.499 1167.5 418.5 1078 408.5 1048.5Z" fill="#6A6E7E"/>
</mask>
<g mask="url(#mask2)">
<path d="M431.5 1206.5C429.1 1216.1 411.167 1248.17 402.5 1263L396 1301L457.5 1247L505 1124.5L490.5 1079C467.5 1092.5 448.6 1131.5 443 1149.5C436 1172 434.5 1194.5 431.5 1206.5Z" fill="black"/>
</g>
<ellipse cx="596" cy="599" rx="89" ry="77" fill="#C2C5CE"/>
<rect x="531" y="537" width="130" height="115" rx="57.5" fill="#EBBAAA"/>
<path d="M388 891.5C408.5 927 418.5 943.5 449.5 985" stroke="#EBBAAA" stroke-width="90" stroke-linecap="round" stroke-linejoin="bevel"/>
<ellipse cx="448.069" cy="394.081" rx="58.0695" ry="55.0806" fill="#EBBAAA"/>
<ellipse cx="743.069" cy="394.081" rx="58.0695" ry="55.0806" fill="#EBBAAA"/>
<path d="M423.808 301.398C420.002 205.037 497.091 124.843 593.527 124.843C690.195 124.843 767.372 205.408 763.221 301.987L757.615 432.438C753.832 520.443 681.386 589.843 593.3 589.843C504.993 589.843 432.447 520.106 428.962 431.868L423.808 301.398Z" fill="#EED4CC"/>
<path d="M510.126 380.916L538.046 376.494" stroke="black" stroke-width="24" stroke-linecap="round"/>
<path d="M676.046 379.916L648.126 375.494" stroke="black" stroke-width="24" stroke-linecap="round"/>
<path d="M500 333.471L547.18 334.951" stroke="#393939" stroke-width="24" stroke-linecap="round"/>
<path d="M685.18 332.471L638 333.951" stroke="#393939" stroke-width="24" stroke-linecap="round"/>
<rect x="426" y="259" width="11" height="138" rx="5.5" fill="#393939"/>
<rect x="751" y="275" width="11" height="122" rx="5.5" fill="#393939"/>
<path d="M587.293 395.844C585.301 410.361 543.334 444.843 598.334 444.843" stroke="#EBBAAA" stroke-width="17"/>
<path d="M473 210C443 230.87 468.305 276.472 451 291.234C429 310 441.5 340.41 436 352C427.095 370.766 415 323.579 415 291.234C415 186.234 470.5 143 562.5 143C574.663 143 614.876 139.025 647 142.999C680 121.234 665.5 137.467 665.5 185.5C606 158.501 508 185.652 473 210Z" fill="#393939"/>
<path d="M534.03 122.658C481.03 138.718 473.03 195.5 557.03 206.5C594.122 211.358 660.712 197.476 689 206.5C724.909 217.956 726.328 253.804 730.5 274.5C739.176 317.54 744.122 320.158 760.53 345.158C767.196 355.315 769.5 287.841 760.53 229.5C747.839 146.956 620.653 96.4086 534.03 122.658Z" fill="#2C2929"/>
<path d="M620.5 130C636.1 127.2 655.666 134.5 663.5 138.5C673.499 142.702 680 145 691 145C699.8 145 700.166 127.667 696.5 119C700 120.833 706.5 128.6 704.5 145C702 165.5 690.5 177 669 183.5C647.5 190 648.5 171 620.5 183.5C592.499 196 618.248 204.527 585 226C561 241.5 537 230.5 523.5 226C510.218 221.573 502 221.5 496 231C491.2 238.6 476.667 247.333 472.5 246C474.5 244.667 482 235.839 482 226C482 214 472.5 207.5 489 193C505.5 178.5 547.5 168.5 567 164C586.5 159.5 601 133.5 620.5 130Z" fill="#2C2929"/>
<path d="M485.5 140.5C499 140.5 509 139.5 519.5 140.5C519.5 136.5 524.4 127.6 544 124C568.5 119.5 567.5 123 574.5 124C581.5 125 627.5 129.5 657 128.5C680.6 127.7 728 147.5 728 186C689.167 184.333 570.5 147.8 574.5 159C579.5 173 541 191 523.5 206.5C509.5 218.9 496.5 232.5 485.5 231.5C475 235.5 458.2 222.1 467 214.5C478 205 444 202.5 448.5 179C453 155.5 472 140.5 485.5 140.5Z" fill="#2C2929"/>
<path d="M620.239 220.583C641.542 224.501 666.956 199.827 677 187C646.167 187 586.322 189.239 593.61 198.194C602.72 209.389 593.61 215.686 620.239 220.583Z" fill="#2C2929"/>
<path d="M621.5 123.5C616 115.667 600.7 100.6 583.5 103C562 106 549.5 145.5 535.5 144.5C521.5 143.5 490.5 145 479.5 156C470.7 164.8 467.833 191 467.5 203" stroke="#393939" stroke-width="3" stroke-linecap="round"/>
<path d="M665 160.234C649.167 159.401 613.9 160.334 599.5 170.734C581.5 183.734 555.5 176.734 546.5 202.234C537.5 227.734 515 216.234 514 226.234C513 236.234 519 238.234 510 247.234" stroke="#393939" stroke-width="3" stroke-linecap="round"/>
<path d="M552.5 200C551.833 208.333 549 225.7 543 228.5C537 231.3 534.5 238.333 534 241.5" stroke="#393939" stroke-width="3" stroke-linecap="round"/>
<path d="M699.5 153.5C704.5 148.5 717.5 140 729.5 146" stroke="#393939" stroke-width="3" stroke-linecap="round"/>
<path d="M558 492C577 497.5 603.1 499.2 621.5 492" stroke="#C99584" stroke-width="16" stroke-linecap="round"/>
<path d="M622.5 456.5C623.833 471.167 635.1 500.7 669.5 501.5" stroke="#EBBAAA" stroke-width="10" stroke-linecap="round"/>
<path d="M339 800L322 818V827L333.5 829.5L322 834.5V848L333.5 855L383 860.5L442 881L447.5 878L449 866L442 851V842.5L444 840.5L439.5 818L339 800Z" fill="black"/>
<path d="M317.5 865.5L332.5 849L401 853.5L446 874.5L332.5 899L317.5 865.5Z" fill="black"/>
<path d="M318.5 833L347.289 822.5L386.546 798L436.5 801L443.5 837.5L386.546 870.545L347.289 884.55L322.5 874.613L324.392 853.891L316 845.5L318.5 833Z" fill="black"/>
<path d="M340.5 916.5V895L362.5 873H444V883V895L455 911.5C447.5 909.833 428.4 897.5 400 905.5C371.6 913.5 358.667 930.833 359 931.5L348.5 936L340.5 916.5Z" fill="black"/>
<path d="M733.5 827L741 820.5L804 829.5L855 815H873V827L861 842.5L873 849.5V863.5L868.5 873.5L875.5 883.5L870.5 894.5L861 892.5L873 910L866 921H852C843.5 912.833 829.9 903.1 807.5 901.5C785.1 899.9 768.167 908.5 762 913.5L750 910V887L757.5 874.5H741L743 854L757.5 849.5L741 842.5L733.5 827Z" fill="black"/>
<path d="M801 954.5L757.5 963.5L756.5 971.5L797 974.5L844.5 996L848.5 973L801 954.5Z" fill="black"/>
<path d="M803 972.5L804.5 961L843 975.5L840.5 989.5L803 972.5Z" fill="white" fill-opacity="0.3"/>
<path d="M555.5 931C559.433 918.084 575.5 897 592.5 894C609.5 891 625 894 625 894C627.5 895.5 622.817 904.143 616.856 915.624C609.404 929.975 631.759 940.343 616.856 941.299C604.932 942.065 588 960 589 969C582.79 969.319 555.652 971.26 549 957C544.243 946.803 549 933 555.5 931Z" fill="#A6A8B1"/>
<path d="M517.257 1439.94C512.549 1441.49 508.691 1441.51 506.424 1439.98C500.58 1435.96 503.833 1429.2 505.223 1426.55C502.642 1429.84 500.079 1433.15 498.13 1436.71C495.054 1442.27 493.939 1448.26 496.403 1451.93C500.823 1458.56 510.42 1454.89 516.499 1451.81L572.905 1423.26L517.257 1439.94Z" fill="black"/>
<path d="M703.153 1439.94C707.86 1441.49 711.719 1441.51 713.986 1439.98C719.83 1435.96 716.577 1429.2 715.187 1426.55C717.768 1429.84 720.331 1433.15 722.28 1436.71C725.356 1442.27 726.471 1448.26 724.007 1451.93C719.587 1458.56 709.989 1454.89 703.911 1451.81L647.505 1423.26L703.153 1439.94Z" fill="black"/>
</svg>
