<svg width="1200" height="1600" viewBox="0 0 1200 1600" fill="none" xmlns="http://www.w3.org/2000/svg">
<ellipse cx="592.36" cy="633.9" rx="59.9748" ry="36.2795" fill="#EBBAAA"/>
<path d="M719.07 1057.54C719.07 1082.68 666.905 1103.3 596.488 1103.3C526.072 1103.3 468.988 1082.92 468.988 1057.78C468.988 1032.65 526.072 1012.27 596.488 1012.27C666.905 1012.27 719.07 1032.41 719.07 1057.54Z" fill="#766A61"/>
<path d="M664.824 1113.12C676.824 1168.9 670.609 1334.18 670.609 1406.31" stroke="#EBBAAA" stroke-width="57" stroke-linecap="round" stroke-linejoin="bevel"/>
<path d="M543.988 1186.19C537.988 1282.85 528.988 1327.58 531.988 1394.42" stroke="#EBBAAA" stroke-width="57" stroke-linecap="round" stroke-linejoin="bevel"/>
<path d="M430.566 757.631C398.86 817.335 372.859 975.072 398.859 991.423" stroke="#EBBAAA" stroke-width="74" stroke-linecap="round" stroke-linejoin="bevel"/>
<path d="M745.582 733.839C790.933 811.165 807.351 954.536 790.859 998.156" stroke="#EBBAAA" stroke-width="74" stroke-linecap="round" stroke-linejoin="bevel"/>
<path d="M455.859 980.844H590.859L580.859 1320.84V1379.24H495.859L474.571 1320.84L455.859 980.844Z" fill="#766A61"/>
<path d="M589.574 986.635H725.031V1314.31L710.359 1376.31H625.859V1326.13L589.574 986.635Z" fill="#766A61"/>
<path d="M427.859 669.698C427.859 647.096 479.359 624.027 515.359 613.058L530.076 613.058C489.576 697.627 592.334 688.449 598.818 689.311L693.359 624.027C727.95 628.627 781.343 643.012 777.859 676.431L740.408 823.394L743.859 1012.58C743.932 1014.33 661.173 1024.21 659.359 1024.12L521.859 1015.74L447.359 1012.52C445.617 1012.43 444.715 1007.53 444.859 1005.85L454.867 805.678L427.859 669.698Z" fill="white"/>
<path d="M769.359 646.615C760.159 637.766 729.859 628.821 715.859 625.455C724.693 738.949 743.159 968.821 746.359 980.363C750.359 994.79 837.859 1000.56 845.859 994.79C853.859 989.019 862.859 934.677 860.859 904.861C858.859 875.045 780.859 657.676 769.359 646.615Z" fill="#2E2E2D"/>
<path d="M424.778 649.003C433.39 640.161 461.754 631.223 474.859 627.859C466.59 741.265 449.304 970.959 446.308 982.492C442.564 996.908 360.654 1002.67 353.165 996.908C345.677 991.142 337.252 936.841 339.124 907.049C340.996 877.256 414.012 660.055 424.778 649.003Z" fill="#2E2E2D"/>
<path d="M579.859 685.568C574.859 671.622 577.359 652.386 577.359 652.386L554.859 659.599L527.859 609.104C496.693 614.394 495.359 616.318 472.859 625.936C446.019 637.41 451.359 675.95 447.359 728.369L441.859 1015.47L515.859 1026.53L577.359 1033.23L587.359 701.438C587.359 701.438 584.859 699.515 579.859 685.568Z" fill="#2E2E2D"/>
<path d="M598.859 685.087C585.859 674.988 588.026 666.973 590.359 659.118L594.859 656.232L627.859 652.385L658.859 611.989C658.859 611.989 703.359 617.76 718.359 625.455C733.359 633.149 742.359 717.307 742.359 717.307L749.359 1016.91L711.359 1027.01L582.859 1034.31C582.591 1014.07 564.634 981.83 564.98 954.847C566.353 847.634 572.501 708.154 582.859 702.88C599.859 694.224 601.859 687.417 598.859 685.087Z" fill="#2E2E2D"/>
<path d="M582.859 702.881C572.501 708.155 566.353 847.635 564.98 954.848C564.634 981.83 582.591 1014.07 582.859 1034.31" stroke="#545454" stroke-width="15"/>
<path d="M631.859 625.455C635.299 614.513 631.859 606.7 630.859 601.891L658.859 611.99C658.859 611.99 668.359 623.531 662.359 649.981C655.786 678.957 626.717 690.377 619.859 698.072C616.859 701.438 617.859 660.561 594.859 656.233C605.359 653.828 625.359 646.134 631.859 625.455Z" fill="#545454"/>
<path d="M551.912 631.226C544.859 621.608 548.517 608.117 551.912 600.929L527.359 609.104C527.359 609.104 513.242 632.484 520.874 655.08C530.359 683.163 564.154 693.311 563.859 689.896C560.859 655.08 572.848 656.377 577.859 651.905C569.359 649.981 561.284 644.008 551.912 631.226Z" fill="#545454"/>
<path d="M704.504 481.83C737.236 481.83 763.77 456.309 763.77 424.827C763.77 393.345 737.236 367.824 704.504 367.824C671.772 367.824 645.237 393.345 645.237 424.827C645.237 456.309 671.772 481.83 704.504 481.83Z" fill="#EBBAAA"/>
<path d="M477.222 491.315C444.49 491.315 417.955 465.794 417.955 434.312C417.955 402.83 444.49 377.309 477.222 377.309C509.954 377.309 536.488 402.83 536.488 434.312C536.488 465.794 509.954 491.315 477.222 491.315Z" fill="#EBBAAA"/>
<path d="M438.859 335.768C438.859 251.675 507.03 183.504 591.123 183.504C676.175 183.504 744.737 253.178 743.368 338.22L741.217 471.761C739.909 553.039 673.647 618.242 592.359 618.242C513.442 618.242 448.182 556.768 443.471 477.992L438.859 400.873V335.768Z" fill="#F4D4C9"/>
<path d="M432.869 314.678C432.602 309.226 437.824 304.691 444.359 304.691C451.14 304.691 456.447 309.555 455.806 315.186L444.978 410.57C444.797 412.164 443.195 413.376 441.283 413.376C439.287 413.376 437.653 412.066 437.567 410.409L432.869 314.678Z" fill="#272727"/>
<path d="M754.757 314.786C755.31 309.376 750.411 304.61 743.976 304.291C737.299 303.96 731.815 308.539 732.145 314.171L737.721 409.579C737.815 411.174 739.328 412.457 741.21 412.55C743.176 412.648 744.854 411.425 745.027 409.781L754.757 314.786Z" fill="#272727"/>
<path d="M635.766 370.988L692.927 366.988" stroke="#393939" stroke-width="24" stroke-linecap="round"/>
<path d="M549.695 367.694L492.424 366.282" stroke="#393939" stroke-width="24" stroke-linecap="round"/>
<path d="M593.638 433.574C580.047 461.742 575.916 497.957 601.859 497.957" stroke="#EBBAAA" stroke-width="17"/>
<path d="M442.819 248.425C454.419 224.573 483.986 214.121 496.319 209.953L537.819 227.747C512.819 217.028 492.219 236.691 475.819 264.776C459.419 292.861 449.611 354.123 448.444 379.291C448.444 379.291 446.319 381.396 443.319 381.155C440.319 380.915 436.4 383.556 436.4 383.556C430.127 322.331 431.219 272.278 442.819 248.425Z" fill="#1E1E1E"/>
<path d="M759.366 282.57C743.866 190.717 680.866 182.061 649.866 172.924L725.866 278.723L742.366 377.308C751.866 364.484 767.377 330.045 759.366 282.57Z" fill="#181818"/>
<path d="M563.25 550.028C587.767 560.24 614.364 552.818 629.921 552.818" stroke="#C99584" stroke-width="15.6368" stroke-linecap="round"/>
<path d="M503.531 410.612C510.386 410.637 528.561 406.051 548.235 410.612" stroke="black" stroke-width="15.6151" stroke-linecap="round"/>
<path d="M638.531 413.376C656.82 408.652 664.3 412.068 683.235 413.376" stroke="black" stroke-width="15.6151" stroke-linecap="round"/>
<path d="M445.007 268.038L438.345 281.176L439.048 283.931L434.346 289.063L438.345 281.176L437.527 277.969L437.565 265.248L432.699 250.669L438.533 251.062L436.833 243.124L439.491 238.273L438.096 228.399L446.874 224.799L447.251 211.691L455.438 209.169L453.157 200.912L460.163 200.546L461.721 185.282L466.955 188.149L471.975 178.987L478.104 178.841L480.651 168.674L491.016 167.696L495.741 159.073L504.482 161.059L509.798 151.358L519.684 156.775L523.818 149.229L530.215 152.734L536.081 148.239L524.132 180.111L476.74 209.753L445.007 268.038Z" fill="#272727"/>
<path d="M749.198 268.038L755.86 281.176L755.157 283.931L759.859 289.063L755.86 281.176L756.678 277.969L756.64 265.248L761.506 250.669L755.673 251.062L757.372 243.124L754.714 238.273L756.109 228.399L747.331 224.799L746.954 211.691L738.767 209.169L741.048 200.912L734.042 200.546L732.484 185.282L727.25 188.149L722.23 178.987L716.101 178.841L713.555 168.674L703.189 167.696L698.464 159.073L689.723 161.059L684.407 151.358L674.521 156.775L670.387 149.229L663.99 152.734L658.124 148.239L670.073 180.111L717.465 209.753L749.198 268.038Z" fill="#272727"/>
<path d="M691.427 176.125L708.582 181.052L710.483 183.786L718.881 184.01L708.582 181.052L706.369 177.87L694.94 167.906L676.419 166.867L681.446 157.544L675.704 149.931L669.211 148.272L656.663 151.439L651.172 143.664L639.121 133.671L630.248 138.319L624.69 129.984L618.703 135.37L603.766 124.639L602.108 131.13L589.841 127.997L584.76 132.846L573.591 126.919L564.341 134.545L552.797 131.596L547.515 140.235L527.295 158.441L543.807 157.78L545.79 156.328L557.034 148.096L613.562 156.028L691.427 176.125Z" fill="#181818"/>
<path d="M591.813 252.046C667.961 252.046 728.849 251.837 731.988 307.491C744.834 325.59 752.879 323.576 755.878 290.638C765.483 185.151 659.645 125.384 586.349 148.992C586.349 148.992 515.656 252.046 591.813 252.046Z" fill="#272727"/>
<path d="M601.164 252.046C525.015 252.046 464.128 251.837 460.988 307.491C448.143 325.59 440.098 323.576 437.099 290.638C427.494 185.151 533.331 125.384 606.628 148.992C606.628 148.992 677.321 252.046 601.164 252.046Z" fill="#272727"/>
<path d="M613.365 420.187L611.796 400.029C611.796 400.029 621.986 377.131 662.938 372.299C703.891 367.467 721.996 392.649 721.996 392.649L718.826 422.105C716.707 441.796 699.82 456.558 680.022 456.025L650.229 455.224C630.785 454.7 614.875 439.579 613.365 420.187Z" fill="white" fill-opacity="0.22" stroke="black" stroke-width="2"/>
<path d="M617.609 435.298L611.705 397.124C611.265 394.278 612.081 391.386 614.291 389.54C620.287 384.532 634.967 374.879 662.058 371.376C689.917 367.773 709.858 377.209 718.148 382.202C720.916 383.868 722.311 386.98 722.132 390.205L721.081 409.101" stroke="black" stroke-width="8"/>
<path d="M577.699 419.407L579.037 400.245C579.037 400.245 568.856 377.853 528.627 373.432C488.398 369.011 470.827 393.867 470.827 393.867L474.095 422.104C476.371 441.777 493.376 456.404 513.169 455.713L541.117 454.737C560.556 454.058 576.344 438.81 577.699 419.407Z" fill="white" fill-opacity="0.22" stroke="black" stroke-width="2"/>
<path d="M573.608 434.903L579.09 397.476C579.508 394.627 578.667 391.74 576.439 389.916C570.473 385.032 555.999 375.732 529.484 372.519C502.202 369.212 482.743 378.559 474.6 383.536C471.843 385.221 470.476 388.341 470.681 391.565L471.855 410.006" stroke="black" stroke-width="8"/>
<path d="M576.61 399.489C587.11 394.489 599.11 392.489 611.61 399.489" stroke="black" stroke-width="7"/>
<path d="M391.874 1471.65C389.996 1467.01 391.347 1460.64 392.399 1458.91C393.451 1457.18 521.146 1449.21 521.146 1449.21C542.341 1447.48 584.352 1440.2 587.256 1452.73C590.847 1468.23 590.683 1471.73 588.235 1483.73C584.319 1487.73 544.697 1491.23 531.851 1488.23C531.851 1481.23 530.851 1476.73 530.851 1476.73C530.851 1476.73 523.69 1481.27 515.289 1483.23C498.153 1487.24 494.872 1491.23 441.798 1491.23C399.231 1487.23 396.078 1482.04 391.874 1471.65Z" fill="#272727"/>
<path d="M529.976 1404.23C540.62 1404.37 556.868 1400.87 565.722 1388.6C566.501 1387.52 568.092 1387.35 568.998 1388.32C576.961 1396.88 571.802 1392.01 575.001 1406.74C578.158 1421.28 580.823 1419.21 583.98 1432.71C586.165 1442.05 593.244 1463.86 583.98 1463.86H541.726C531.728 1463.86 518.226 1475.47 484.935 1478.73C429.673 1484.15 416.169 1476.73 405.134 1473.23C380.028 1465.27 392.769 1447.06 405.134 1441.23C423.249 1432.71 449.209 1426.3 462.415 1419.23C472.697 1413.73 476.228 1412.02 481.508 1406.23C488.245 1398.85 491.102 1394.13 493.24 1390.45C494.13 1388.92 496.549 1389.26 497.494 1390.76C503.331 1400.01 520.148 1404.11 529.976 1404.23Z" fill="#563D2A"/>
<path d="M496.697 1394.73C498.863 1399.61 507.548 1405.06 507.548 1408.85L486.197 1401.23L496.697 1416.73L476.69 1411.02L486.197 1424.23L463.697 1419.68L476.69 1432.23" stroke="#2C221B" stroke-width="5.41368" stroke-linecap="round" stroke-linejoin="round"/>
<path d="M411.527 1458.06C420.857 1460.88 435.093 1464.9 456.506 1460.42" stroke="#7C593E" stroke-width="7" stroke-linecap="round"/>
<path d="M482.792 1431.73C492.583 1422.73 499.864 1418.23 507.697 1408.23C511.94 1408.23 517.541 1408.73 533.697 1408.73C554.749 1408.73 560.329 1399.73 569.631 1389.23C576.697 1393.73 573.058 1403.23 577.954 1416.23C581.871 1426.63 589.214 1442.23 589.214 1461.23C585.787 1467.23 552.007 1464.23 541.236 1464.23C538.788 1452.23 519.697 1442.23 511.197 1439.73C503.737 1437.54 495.031 1436.73 482.792 1431.73Z" fill="#423023"/>
<path d="M811.845 1472.04C813.723 1467.4 812.371 1461.04 811.32 1459.3C810.268 1457.57 682.572 1449.6 682.572 1449.6C661.378 1447.87 619.366 1440.6 616.463 1453.13C612.871 1468.63 613.036 1472.13 615.484 1484.13C619.4 1488.13 659.022 1491.63 671.868 1488.63C671.868 1481.63 672.868 1477.13 672.868 1477.13C672.868 1477.13 680.029 1481.67 688.43 1483.63C705.565 1487.63 708.847 1491.63 761.92 1491.63C804.487 1487.63 807.641 1482.44 811.845 1472.04Z" fill="#272727"/>
<path d="M673.743 1404.63C663.099 1404.77 646.851 1401.27 637.997 1388.99C637.218 1387.92 635.627 1387.74 634.72 1388.72C626.758 1397.28 631.917 1392.41 628.718 1407.14C625.561 1421.68 622.896 1419.6 619.739 1433.1C617.553 1442.45 610.474 1464.25 619.739 1464.25H661.993C671.99 1464.25 685.493 1475.87 718.784 1479.13C774.046 1484.54 787.55 1477.13 798.584 1473.63C823.691 1465.66 810.95 1447.45 798.584 1441.63C780.47 1433.1 754.509 1426.69 741.304 1419.63C731.021 1414.13 727.49 1412.42 722.211 1406.63C715.474 1399.24 712.616 1394.52 710.479 1390.84C709.589 1389.31 707.17 1389.65 706.225 1391.15C700.388 1400.41 683.571 1404.5 673.743 1404.63Z" fill="#563D2A"/>
<path d="M707.021 1395.13C704.856 1400 696.171 1405.46 696.171 1409.25L717.521 1401.63L707.021 1417.13L727.029 1411.41L717.521 1424.63L740.021 1420.07L727.029 1432.63" stroke="#2C221B" stroke-width="5.41368" stroke-linecap="round" stroke-linejoin="round"/>
<path d="M792.191 1458.45C782.861 1461.28 768.626 1465.29 747.212 1460.81" stroke="#7C593E" stroke-width="7" stroke-linecap="round"/>
<path d="M720.927 1432.13C711.136 1423.13 703.855 1418.63 696.021 1408.63C691.779 1408.63 686.177 1409.13 670.021 1409.13C648.97 1409.13 643.389 1400.13 634.087 1389.63C627.021 1394.13 630.66 1403.63 625.765 1416.63C621.848 1427.03 614.504 1442.63 614.504 1461.63C617.931 1467.63 651.712 1464.63 662.483 1464.63C664.931 1452.63 684.021 1442.63 692.521 1440.13C699.982 1437.93 708.688 1437.13 720.927 1432.13Z" fill="#423023"/>
<rect x="627.609" y="724.312" width="10.9219" height="100.396" fill="#545454"/>
<rect width="3.41211" height="100.396" transform="matrix(-1 0 0 1 646.943 724.312)" fill="#545454"/>
</svg>
