<svg width="1200" height="1600" viewBox="0 0 1200 1600" fill="none" xmlns="http://www.w3.org/2000/svg">
<path d="M685.917 1027.03C740.214 1095.37 801.35 1166.8 717.902 1320.54" stroke="#F6DDD6" stroke-width="50" stroke-linecap="round" stroke-linejoin="bevel"/>
<path d="M558.977 1025.33C549.685 1095.13 562.814 1351.81 576.656 1434.97" stroke="#F6DDD6" stroke-width="50" stroke-linecap="round" stroke-linejoin="bevel"/>
<path d="M433.689 747.202C432.441 816.241 378.457 832.947 522.957 917.948" stroke="#F6DDD6" stroke-width="61.467" stroke-linecap="round" stroke-linejoin="bevel"/>
<path d="M514.974 757.319C466.075 727.013 478.175 652.584 534.223 639.614L585.349 627.784C595.272 625.487 605.524 624.97 615.628 626.256L670.861 633.284C723.686 640.006 750.147 700.736 719.103 744.001C707.601 760.03 703.364 780.155 707.428 799.461L712.897 825.451C723.639 876.486 686.008 924.961 633.903 927.21L600.984 928.631C553.275 930.69 520.126 881.756 539.733 838.213C552.941 808.882 542.316 774.264 514.974 757.319Z" fill="#FBE8E3"/>
<path d="M753.5 703.028C814 790.528 952 731.528 868.5 619.028" stroke="#F6DDD6" stroke-width="61.467" stroke-linecap="round" stroke-linejoin="bevel"/>
<rect x="563.711" y="508.932" width="72.5086" height="119.507" rx="36.2543" transform="rotate(-2.47128 563.711 508.932)" fill="#FBE8E3"/>
<path d="M359.154 743.682L546 620.028L568.5 757.225L485 839.028L359.154 743.682Z" fill="#4E542B"/>
<path d="M481.115 852.067L352 748.451L375.846 729.374L499 827.028L481.115 852.067Z" fill="#303415"/>
<path d="M841 690.585L695.894 672.028L686 771.822L793.593 832.028L841 690.585Z" fill="#4E542B"/>
<path d="M744.403 650.255L712.807 641.313L728.605 635.054L744.403 628.794V650.255Z" fill="#3F2B18"/>
<path d="M813.511 843.541L864.849 690.758L837.899 687.295L788.165 832.73L813.511 843.541Z" fill="#303415"/>
<path d="M450.327 908.635L510.808 733.067L539.423 646.028L593.077 657.951L693.231 646.028L796.5 889.028C796.5 889.028 813 922.028 800 933.028C787 944.028 762 944.028 762 944.028L627.654 1002.53L490.5 956.028C490.5 956.028 461.654 947.982 454.5 937.847C447.346 927.712 450.327 908.635 450.327 908.635Z" fill="#676B3B"/>
<path d="M809.385 666.948L437.385 665.756" stroke="#9DB7C9" stroke-width="11"/>
<ellipse cx="612.058" cy="677.42" rx="76.9038" ry="79.8846" fill="#303415"/>
<rect x="565.41" y="595" width="93.2405" height="139.94" rx="46.6203" fill="#E6CBC3"/>
<path d="M509 786.028H584V841.028C584 852.074 575.046 861.028 564 861.028H529C517.954 861.028 509 852.074 509 841.028V786.028Z" fill="#4E542B"/>
<ellipse cx="475.8" cy="506.634" rx="44.7999" ry="47.6338" fill="#EBBAAA"/>
<ellipse cx="759.8" cy="506.634" rx="44.7999" ry="47.6338" fill="#EBBAAA"/>
<path d="M466 404.137C466 331.358 534.5 306 619 306C703.5 306 772 331.358 772 404.137V535.206C759.661 620.223 696.397 668.041 619 666.983C541.603 665.924 475.048 610.304 466 535.206V404.137Z" fill="#F6DDD6"/>
<path d="M618.187 484.406C564.522 484.217 495.08 486.613 467.067 495.668C461.016 461.702 481.137 396.766 513.441 356.881C545.746 316.996 596.591 323.782 619.065 333.998C634.122 325.39 675.577 318.241 720.944 358.507C766.311 398.774 773.225 468.186 771.011 495.668C742.43 488.232 671.853 484.596 618.187 484.406Z" fill="black"/>
<path d="M659.687 472.289C669.384 465.291 692.792 457.094 708.846 480.287" stroke="black" stroke-width="10"/>
<path d="M524.092 481.78C530.398 471.62 548.927 455.134 572.598 470.474" stroke="black" stroke-width="10"/>
<path fill-rule="evenodd" clip-rule="evenodd" d="M798.453 491C813.11 507.441 828.714 527.351 845.5 551.454C859.668 571.798 871.33 591.974 880.677 611.815C867.669 644.162 836.001 666.998 799 666.998C750.399 666.998 711 627.599 711 578.998C711 530.58 750.104 491.294 798.453 491Z" fill="#FF0000" fill-opacity="0.03"/>
<path fill-rule="evenodd" clip-rule="evenodd" d="M380.141 657.591C381.403 635.601 384.448 610.489 389.622 581.576C393.989 557.173 400.008 534.66 407.429 514.021C439.501 500.346 478.04 506.591 504.204 532.755C538.57 567.121 538.57 622.839 504.204 657.205C469.967 691.443 414.537 691.571 380.141 657.591Z" fill="#FF0000" fill-opacity="0.03"/>
<circle cx="684.5" cy="528.5" r="30.5" fill="white"/>
<circle cx="684.5" cy="510.5" r="11.5" fill="black"/>
<circle cx="553.5" cy="528.5" r="30.5" fill="white"/>
<circle cx="553.5" cy="510.5" r="11.5" fill="black"/>
<path opacity="0.6" d="M625.68 523.843C623.943 540.531 630.607 573.36 607 567.6" stroke="#E1BFB4" stroke-width="17.4146"/>
<path d="M584 599C586.5 603.667 597.4 613 621 613C644.6 613 653.167 603.667 654.5 599" stroke="#FE9287" stroke-width="10"/>
<path fill-rule="evenodd" clip-rule="evenodd" d="M596.836 201.575C538.111 199.762 478.909 197.934 388 328.456C329.001 413.163 308.493 554.49 356 626.265C393.849 683.447 459.505 718.5 617.468 718.5C764.5 718.5 828.5 710 880 636C931.5 562 934.839 448.121 851.5 328.456C759.369 196.165 702.853 198.64 643.013 201.26C634.6 201.628 626.121 201.999 617.468 201.999C610.564 201.999 603.703 201.788 596.836 201.575ZM619 658C694.111 658 755 597.11 755 522C755 446.889 694.111 386 619 386C543.889 386 483 446.889 483 522C483 597.11 543.889 658 619 658Z" fill="#FFEDD3"/>
<path d="M548.52 1390.76C551.836 1379.17 543.925 1370.29 539.555 1367.29C537.566 1370.35 535.569 1385.49 531.309 1397.34L519.524 1412.96L501.71 1436.26L478.906 1448.37L491.693 1462.14C499.71 1455.43 545.203 1402.36 548.52 1390.76Z" fill="#3B3937"/>
<path d="M624.49 1466.2C624.49 1466.2 624.096 1441.33 618.216 1427.8C612.337 1414.27 605.36 1379.02 605.36 1379.02C605.36 1379.02 596.417 1389.48 578.955 1390.24C561.492 1390.99 542.79 1387.58 542.79 1387.58C542.79 1387.58 512.206 1431.82 503.967 1437.48C495.729 1443.13 454.934 1456.03 454.934 1456.03C445.874 1456.42 438.847 1464.08 439.238 1473.14L439.598 1481.48L539.081 1477.19L624.49 1466.2Z" fill="#1C1B19"/>
<mask id="mask0" mask-type="alpha" maskUnits="userSpaceOnUse" x="438" y="1379" width="187" height="102">
<path d="M624.49 1466.2C624.49 1466.2 624.096 1441.33 618.216 1427.8C612.337 1414.27 605.36 1379.02 605.36 1379.02C605.36 1379.02 596.417 1389.48 578.955 1390.24C561.492 1390.99 542.79 1387.58 542.79 1387.58C542.79 1387.58 512.206 1431.82 503.967 1437.48C495.729 1443.13 459.5 1455 455 1455.5C445.675 1456.54 437.977 1463.61 438.528 1472.98L439 1481L539.081 1477.19L624.49 1466.2Z" fill="#1C1B19"/>
</mask>
<g mask="url(#mask0)">
<circle cx="455" cy="1482" r="31" fill="#D0CEC1"/>
</g>
<path d="M534.137 1401.46L528.753 1399.57" stroke="#ECECEC" stroke-width="6.35587" stroke-linecap="round"/>
<path d="M527.668 1411.28L522.285 1409.39" stroke="#ECECEC" stroke-width="6.35587" stroke-linecap="round"/>
<path d="M520.67 1421.12L515.287 1419.24" stroke="#ECECEC" stroke-width="6.35587" stroke-linecap="round"/>
<path d="M511.557 1431.06L506.173 1429.17" stroke="#ECECEC" stroke-width="6.35587" stroke-linecap="round"/>
<path d="M503.456 1439.89L498.072 1438" stroke="#ECECEC" stroke-width="6.35587" stroke-linecap="round"/>
<path d="M625.454 1465.91L531.974 1474.18L438.659 1473.97L437.716 1486.21C437.43 1489.92 440.386 1493.09 444.111 1493.05L530.809 1492.26L579.163 1490.7L627.425 1487.03L625.454 1465.91Z" fill="#D0CEC1"/>
<path d="M626.508 1478.05C611.714 1479.22 574.562 1482.42 558.337 1483.12C546.696 1483.62 515.429 1483.91 503.213 1483.37" stroke="#1C1B19" stroke-width="4.23725"/>
<path d="M506.247 1492.26L505.836 1482.73L505.676 1479.03L438.335 1478.75L437.751 1487.38C437.542 1490.47 440.009 1493.08 443.101 1493.04L506.247 1492.26Z" fill="#ECEADF"/>
<circle r="19.0676" transform="matrix(-0.99907 0.0431186 0.0431186 0.99907 585.549 1425.75)" fill="#DCE0E4"/>
<path d="M584.989 1411.73C584.52 1410.99 583.404 1411.11 583.099 1411.93L580.261 1419.6C580.14 1419.93 579.866 1420.18 579.528 1420.26L571.597 1422.27C570.746 1422.49 570.512 1423.59 571.201 1424.13L577.623 1429.2C577.896 1429.42 578.046 1429.76 578.023 1430.1L577.487 1438.27C577.429 1439.14 578.401 1439.71 579.131 1439.22L585.938 1434.68C586.228 1434.49 586.595 1434.45 586.919 1434.58L594.518 1437.61C595.333 1437.94 596.168 1437.18 595.93 1436.34L593.716 1428.46C593.621 1428.13 593.698 1427.77 593.921 1427.5L599.154 1421.21C599.716 1420.53 599.26 1419.51 598.382 1419.47L590.207 1419.15C589.858 1419.13 589.539 1418.95 589.353 1418.65L584.989 1411.73Z" fill="#5B568E"/>
<path d="M730.071 1342.53C734.075 1331.17 745.579 1328.4 750.831 1328.44C750.677 1332.06 743.563 1345.57 740.175 1357.67L740.688 1377.13L741.642 1406.28L753.067 1429.13L734.815 1433.12C732.21 1423.09 726.067 1353.89 730.071 1342.53Z" fill="#3B3937"/>
<path d="M625.277 1361.05C625.277 1361.05 639.928 1340.94 652.47 1333.22C665.012 1325.5 690.954 1300.66 690.954 1300.66C690.954 1300.66 692.146 1314.29 705.808 1324.82C719.469 1335.35 736.529 1343.18 736.529 1343.18C736.529 1343.18 735.728 1396.7 739.118 1406C742.508 1415.3 768.009 1449 768.009 1449C775.094 1454.46 776.411 1464.64 770.949 1471.72L765.719 1478.51L687.89 1418.52L625.277 1361.05Z" fill="#1C1B19"/>
<mask id="mask1" mask-type="alpha" maskUnits="userSpaceOnUse" x="625" y="1300" width="150" height="179">
<path d="M625.277 1361.05C625.277 1361.05 639.928 1340.94 652.47 1333.22C665.013 1325.5 690.955 1300.66 690.955 1300.66C690.955 1300.66 692.147 1314.29 705.808 1324.82C719.47 1335.35 736.529 1343.18 736.529 1343.18C736.529 1343.18 735.728 1396.7 739.119 1406C742.509 1415.3 764.915 1445.57 768.26 1448.53C775.186 1454.67 777.386 1464.75 771.623 1471.99L766.481 1478.45L687.89 1418.52L625.277 1361.05Z" fill="#1C1B19"/>
</mask>
<g mask="url(#mask1)">
<ellipse rx="30.5942" ry="30.9984" transform="matrix(-0.817913 -0.575292 -0.576256 0.817303 752.989 1470.19)" fill="#D0CEC1"/>
</g>
<path d="M735.519 1359.43L740.952 1360.95" stroke="#ECECEC" stroke-width="6.35587" stroke-linecap="round"/>
<path d="M735.082 1371.13L740.515 1372.65" stroke="#ECECEC" stroke-width="6.35587" stroke-linecap="round"/>
<path d="M735.057 1383.15L740.49 1384.66" stroke="#ECECEC" stroke-width="6.35587" stroke-linecap="round"/>
<path d="M736.688 1396.45L742.121 1397.96" stroke="#ECECEC" stroke-width="6.35587" stroke-linecap="round"/>
<path d="M738.138 1408.26L743.571 1409.78" stroke="#ECECEC" stroke-width="6.35587" stroke-linecap="round"/>
<path d="M624.671 1360.26L695.36 1420.09L770.807 1472.9L764.507 1483.45C762.6 1486.65 758.371 1487.53 755.349 1485.36L685.885 1435.53L647.751 1406.8L610.909 1376.4L624.671 1360.26Z" fill="#D0CEC1"/>
<path d="M616.821 1369.59C628.09 1378.94 656.238 1402.64 668.932 1412.43C678.039 1419.45 703.111 1437.44 713.279 1443.94" stroke="#1C1B19" stroke-width="4.23725"/>
<path d="M705.712 1449.47L711.532 1441.92L713.796 1438.99L768.312 1477L763.805 1484.39C762.197 1487.03 758.684 1487.73 756.181 1485.93L705.712 1449.47Z" fill="#ECEADF"/>
<ellipse cx="680.024" cy="1350.09" rx="18.817" ry="19.0676" transform="rotate(37.6254 680.024 1350.09)" fill="#DCE0E4"/>
<path d="M688.521 1338.97C689.334 1338.63 690.185 1339.37 689.955 1340.22L687.834 1348.07C687.742 1348.41 687.823 1348.77 688.051 1349.04L693.283 1355.17C693.85 1355.84 693.415 1356.87 692.544 1356.92L684.428 1357.42C684.084 1357.44 683.771 1357.63 683.591 1357.92L679.322 1364.9C678.862 1365.65 677.743 1365.54 677.43 1364.72L674.567 1357.18C674.442 1356.85 674.161 1356.61 673.817 1356.53L665.978 1354.7C665.122 1354.5 664.867 1353.41 665.548 1352.85L671.871 1347.67C672.138 1347.45 672.282 1347.12 672.257 1346.77L671.656 1338.65C671.591 1337.78 672.549 1337.21 673.284 1337.68L680.06 1342.05C680.354 1342.24 680.723 1342.27 681.045 1342.13L688.521 1338.97Z" fill="#5B568E"/>
<rect x="505" y="166.593" width="63.1845" height="98.287" rx="31.5923" transform="rotate(-30 505 166.593)" fill="#FFEDD3"/>
<rect x="586.282" y="144.446" width="63" height="98" rx="31.5" fill="#FFEDD3"/>
<rect x="678.172" y="135" width="63.1845" height="98.287" rx="31.5923" transform="rotate(30 678.172 135)" fill="#FFEDD3"/>
<circle cx="551" cy="289" r="43" fill="white"/>
<path fill-rule="evenodd" clip-rule="evenodd" d="M567.5 328.72C583.06 322.249 594 306.902 594 289C594 271.097 583.06 255.75 567.5 249.279C551.94 255.75 541 271.097 541 289C541 306.902 551.94 322.249 567.5 328.72Z" fill="black"/>
<circle cx="673" cy="289" r="43" fill="white"/>
<path fill-rule="evenodd" clip-rule="evenodd" d="M689.5 328.72C705.06 322.249 716 306.902 716 289C716 271.097 705.06 255.75 689.5 249.279C673.94 255.75 663 271.097 663 289C663 306.902 673.94 322.249 689.5 328.72Z" fill="black"/>
<path d="M607.46 322.22C603.372 321.416 596.177 320 594.246 329.812C592.694 337.701 600.358 340.187 603.889 340.372C600.224 339.141 592.47 338.839 590.771 347.473C589.073 356.108 596.428 358.438 600.318 358.524" stroke="black" stroke-width="5"/>
<path fill-rule="evenodd" clip-rule="evenodd" d="M434.561 268.89C419.961 285.139 404.503 304.762 388 328.456C372.256 351.06 359.253 377.696 349.552 405.967C365.429 428.945 391.956 444 422 444C470.601 444 510 404.601 510 356C510 311.664 477.212 274.985 434.561 268.89Z" fill="#FF0000" fill-opacity="0.5"/>
<path fill-rule="evenodd" clip-rule="evenodd" d="M804.453 268.002C819.11 284.443 834.714 304.353 851.5 328.456C865.668 348.799 877.33 368.976 886.677 388.817C873.669 421.164 842.001 444 805 444C756.399 444 717 404.601 717 356C717 307.582 756.104 268.296 804.453 268.002Z" fill="#FF0000" fill-opacity="0.5"/>
<path d="M719.559 1084.16L540.814 1071.61L498.22 976.19L739.188 975.921L719.559 1084.16Z" fill="#002774"/>
<path d="M608.653 992.444L758.338 993.491L817.903 1156.07L792.599 1300.3L663.985 1283.61L685.527 1161.79L608.653 992.444Z" fill="#002774"/>
<path d="M494.105 1005.4L627.481 999.639L616.065 1187.36L615.31 1367.01L495.619 1365.16L488.184 1192.88L494.105 1005.4Z" fill="#002774"/>
<path d="M540.5 1057.59C554.959 1049.36 562.826 1016.78 564.996 1001.33L494.062 1004.4L492 1065.59C502.895 1066.79 526.041 1065.82 540.5 1057.59Z" fill="#001744"/>
<path d="M719.5 1044.59C703.632 1037.76 689.129 1011.6 685.5 996.59L756.102 988.082L778 1046.47C766.693 1048.61 739.5 1053.2 719.5 1044.59Z" fill="#001744"/>
<path d="M489.951 955.528L761.698 943.8L759.753 997.934L493.988 1009.4L489.951 955.528Z" fill="#221512"/>
<path d="M488.086 1354.98L621.114 1349.24L619.959 1392.85L497.542 1398.13L488.086 1354.98Z" fill="#6E86B7"/>
<path d="M659.565 1264.5L805.34 1292.82L788.104 1333.81L653.252 1307.61L659.565 1264.5Z" fill="#6E86B7"/>
<mask id="path-79-inside-1" fill="white">
<rect x="591.597" y="945.136" width="59" height="67" rx="6" transform="rotate(-2.47128 591.597 945.136)"/>
</mask>
<rect x="591.597" y="945.136" width="59" height="67" rx="6" transform="rotate(-2.47128 591.597 945.136)" stroke="black" stroke-width="28" mask="url(#path-79-inside-1)"/>
<path d="M535 955.028L542 1009.03" stroke="#001744" stroke-width="20" stroke-linecap="round"/>
<path d="M713.047 948.028L703.762 1001.77" stroke="#001744" stroke-width="20" stroke-linecap="round"/>
</svg>
