<svg width="1200" height="1600" viewBox="0 0 1200 1600" fill="none" xmlns="http://www.w3.org/2000/svg">
<path fill-rule="evenodd" clip-rule="evenodd" d="M792 463C792 463 754.008 582.376 792 687H460V463H792Z" fill="#3F3232"/>
<path d="M678 1271V1421" stroke="#EBBAAA" stroke-width="54" stroke-linecap="round" stroke-linejoin="bevel"/>
<path d="M574 1271V1421" stroke="#EBBAAA" stroke-width="54" stroke-linecap="round" stroke-linejoin="bevel"/>
<path d="M751.723 696.188C797.074 776.584 813.492 925.648 797 971" stroke="#EBBAAA" stroke-width="74" stroke-linecap="round" stroke-linejoin="bevel"/>
<path d="M703 746C669 836 463 878 379 710" stroke="#96CCE0" stroke-width="100" stroke-linecap="round" stroke-linejoin="bevel"/>
<path d="M330.5 599.5L357 666.5L381 599.5" stroke="#F6DDD6" stroke-width="30" stroke-linecap="round" stroke-linejoin="bevel"/>
<ellipse cx="361.5" cy="671" rx="37.5" ry="30" fill="#F6DDD6"/>
<rect x="628" y="652.999" width="170" height="320" rx="85" transform="rotate(-15 628 652.999)" fill="#96CCE0"/>
<path d="M807.5 792L735 814L814 806.5L807.5 792Z" fill="#7EBFD7"/>
<path d="M794 824L738 821L786.5 836.5L794 824Z" fill="#7EBFD7"/>
<rect x="461" y="609" width="170" height="235" rx="85" transform="rotate(15 461 609)" fill="#96CCE0"/>
<path d="M514.396 721.615L440.439 705.163L512.935 737.438L514.396 721.615Z" fill="#7EBFD7"/>
<path d="M486.918 742.856L439.614 712.734L474.245 750.059L486.918 742.856Z" fill="#7EBFD7"/>
<path d="M429.665 1462.02C429.467 1439.33 432.573 1425.52 452.385 1416.25C472.197 1406.98 490.86 1389.15 525.136 1373.86C525.136 1373.86 529.648 1373.01 536.992 1376.97C543.259 1380.34 551.308 1388.62 563.438 1388.51C576.609 1388.4 588.346 1385.62 595.638 1381.81C598.789 1373.22 605.778 1373.16 605.778 1373.16C605.778 1373.16 615.619 1391.81 615.782 1410.54C615.946 1429.28 615.928 1460.4 615.928 1460.4L429.665 1462.02Z" fill="#DCE1E6"/>
<path d="M519.079 1377.68C521.229 1382.5 521.229 1388.38 521.229 1392.13L502.95 1384.1L507.25 1399.63L490.584 1394.27L490.583 1409.8L477.68 1402.84L477.68 1416.22" stroke="white" stroke-width="5.41368" stroke-linecap="round" stroke-linejoin="round"/>
<path d="M609.939 1383.03C606.113 1388.2 592.316 1391.3 587.125 1392.05C581.935 1392.81 576.373 1392.15 578.598 1400.69C580.172 1406.74 595.297 1404.3 601.211 1404.24C606.019 1404.2 612.762 1418.67 615.273 1413.76C615.273 1396.95 612.089 1387.85 609.939 1383.03Z" fill="#3F3232" fill-opacity="0.5"/>
<path d="M437.162 1417.99C443.241 1415.79 449.678 1414.13 462.02 1411.35L456.775 1426.38L456.924 1443.51L421.796 1443.82C420.362 1443.83 417.8 1441.93 419.023 1434.21C420.552 1424.56 428.525 1421.11 437.162 1417.99Z" fill="#EAF4FB"/>
<path d="M487.659 1418.89L504.023 1449.95" stroke="#3F3232" stroke-width="17.3238"/>
<path d="M510.204 1407.12L529.813 1444.44" stroke="#3F3232" stroke-width="17.3238"/>
<path d="M532.286 1394.14L559.398 1446.73" stroke="#3F3232" stroke-width="17.3238"/>
<path d="M616.513 1457.42L615.497 1439.45L457.985 1441.9L418.711 1439.03L417.52 1452.74C417.101 1457.57 420.722 1461.8 425.555 1462.14L458.182 1464.38L612.256 1462C614.718 1461.96 616.652 1459.88 616.513 1457.42Z" fill="#C7CBCF"/>
<path d="M854 954C860.4 935.6 862 871 854 841L740 836C752.201 874 754.201 924 763.201 973L763.354 973.007C784.5 974.014 846.019 976.944 854 954Z" fill="#96CCE0"/>
<path d="M444 1325.5L493.712 897H549.39C565.298 1021.14 552.174 1340.72 531.494 1345.52C510.814 1350.33 450.629 1336.18 444 1325.5Z" fill="#482625"/>
<path d="M808 1325.5L758.288 897H702.61C686.702 1021.14 699.826 1340.72 720.506 1345.52C741.187 1350.33 801.372 1336.18 808 1325.5Z" fill="#482625"/>
<path d="M508.962 1367.55C521.887 1377.56 623.387 1388.24 630.016 1377.56V1169.32L613.358 922.029H530.695C514.787 1046.17 496.037 1357.53 508.962 1367.55Z" fill="#653B3A"/>
<path d="M618.988 1366.55C643.845 1374.55 675.661 1373.55 745.258 1366.55C745.258 1366.55 732.242 1265.43 726.367 1151.3C720.492 1037.16 713.442 898.001 713.442 898.001L610.04 912.017C618.988 1050.18 624.954 1167.31 618.988 1366.55Z" fill="#522F2E"/>
<path d="M483.169 677.027C479.202 649.827 497.936 624.526 525.109 620.383L626 605L726.891 620.383C754.064 624.526 772.798 649.827 768.831 677.027L756 765L772.058 901.494C774.156 919.329 760.221 935 742.264 935H509.736C491.778 935 477.844 919.329 479.942 901.494L496 765L483.169 677.027Z" fill="#BEE1EE"/>
<path d="M589 610.911C589 589.973 606.062 573 627 573C647.938 573 665 589.973 665 610.911V683.177C665 690.876 662.656 698.393 658.28 704.727L627 750L595.72 704.727C591.344 698.393 589 690.876 589 683.177V610.911Z" fill="#EBBAAA"/>
<path d="M626 713C664.66 713 696 681.659 696 643C696 604.34 664.66 573 626 573C587.34 573 556 604.34 556 643C556 681.659 587.34 713 626 713Z" fill="#BEE1EE"/>
<rect x="587" y="489" width="76" height="194" rx="37.911" fill="#EBBAAA"/>
<path opacity="0.5" d="M476 485.001C448.386 485.001 426 462.615 426 435.001C426 407.387 448.386 385.001 476 385.001C503.614 385.001 526 407.387 526 435.001C526 462.615 503.614 485.001 476 485.001Z" fill="#C99584"/>
<path d="M776 470.001C803.614 470.001 826 447.615 826 420.001C826 392.387 803.614 370.001 776 370.001C748.386 370.001 726 392.387 726 420.001C726 447.615 748.386 470.001 776 470.001Z" fill="#E4C1C1"/>
<rect x="471" y="168" width="310" height="440" rx="155" fill="#F6DDD6"/>
<path d="M635.206 138.597C671.136 121.975 762.91 178.681 796.046 246.729C819.029 293.929 837.205 350.159 809.145 382.519C809.145 382.519 791.403 378.7 781 372.5C744 350.45 751.856 313.999 713.856 281.999C675.856 249.999 643.466 240.779 633.536 233.729C623.606 226.669 622.436 165.799 635.206 138.597Z" fill="#271E1E"/>
<circle cx="526" cy="461" r="30" fill="#F2CACA"/>
<path d="M524.365 347.58C536.665 293.21 597.905 241.18 626.895 231.78C638.855 227.91 646.855 135 626.895 135C576.375 135 496.235 186.1 467.635 231.78C420.675 306.8 404.065 390.9 429.065 580.19C435.175 626.51 420.255 646.65 409.855 657.72C438.535 687.33 546.015 698 546.015 698C546.015 698 564.105 675.38 551.795 630.53C529.545 549.54 512.075 401.96 524.365 347.58Z" fill="#3F3232"/>
<path d="M481.855 248.324C481.855 248.324 435.855 328 440.855 443" stroke="#615252" stroke-width="9" stroke-linecap="round"/>
<path d="M461.111 375.81C461.111 375.81 453.004 456.093 467.43 532.046" stroke="#615252" stroke-width="9" stroke-linecap="round"/>
<path fill-rule="evenodd" clip-rule="evenodd" d="M571 483.02V502.82C571 533.3 595.629 558 625.999 558C656.378 558 680.997 533.3 680.997 502.82V483.02H571Z" fill="#393939"/>
<mask id="mask0" mask-type="alpha" maskUnits="userSpaceOnUse" x="571" y="483" width="110" height="75">
<path fill-rule="evenodd" clip-rule="evenodd" d="M571.09 483C571.03 484.021 571 485.051 571 486.081V505.367C571 534.44 595.629 558 625.999 558C656.378 558 680.997 534.44 680.997 505.367V486.081C680.997 485.051 680.967 484.021 680.907 483H571.09Z" fill="white"/>
</mask>
<g mask="url(#mask0)">
<path d="M625.998 575.693C644.316 575.693 659.166 567.583 659.166 557.58C659.166 547.576 644.316 539.467 625.998 539.467C607.68 539.467 592.83 547.576 592.83 557.58C592.83 567.583 607.68 575.693 625.998 575.693Z" fill="#FF6C6C"/>
</g>
<rect x="571" y="483.02" width="110" height="22.7466" fill="white"/>
<path d="M541 391L571 391" stroke="black" stroke-width="10" stroke-linecap="round"/>
<path d="M681 391L711 391" stroke="black" stroke-width="10" stroke-linecap="round"/>
<path d="M685 390L685 419" stroke="black" stroke-width="24" stroke-linecap="round"/>
<path d="M567.003 390L567.003 419" stroke="black" stroke-width="24" stroke-linecap="round"/>
<path d="M664 347L721 350" stroke="#271E1E" stroke-width="12" stroke-linecap="round"/>
<path d="M588 347L531 350" stroke="#271E1E" stroke-width="12" stroke-linecap="round"/>
<circle cx="726" cy="461" r="30" fill="#F2CACA"/>
<path d="M626 415C616 430 606 465 636 465" stroke="#EBBAAA" stroke-width="17"/>
<path d="M822.335 1462.28C822.533 1439.58 819.427 1425.78 799.615 1416.51C779.803 1407.23 761.14 1389.4 726.864 1374.11C726.864 1374.11 722.352 1373.27 715.008 1377.22C708.741 1380.6 700.692 1388.88 688.562 1388.77C675.391 1388.65 663.654 1385.88 656.362 1382.06C653.211 1373.47 646.222 1373.41 646.222 1373.41C646.222 1373.41 636.381 1392.06 636.218 1410.8C636.054 1429.53 636.072 1460.65 636.072 1460.65L822.335 1462.28Z" fill="#DCE1E6"/>
<path d="M732.921 1377.93C730.771 1382.75 730.771 1388.64 730.771 1392.39L749.05 1384.36L744.75 1399.88L761.416 1394.53L761.417 1410.05L774.32 1403.09L774.32 1416.48" stroke="white" stroke-width="5.41368" stroke-linecap="round" stroke-linejoin="round"/>
<path d="M642.061 1383.28C645.887 1388.45 659.684 1391.55 664.875 1392.31C670.065 1393.07 675.627 1392.4 673.402 1400.95C671.828 1406.99 656.703 1404.55 650.789 1404.5C645.981 1404.46 639.238 1418.93 636.727 1414.01C636.727 1397.2 639.911 1388.1 642.061 1383.28Z" fill="#3F3232" fill-opacity="0.5"/>
<path d="M814.838 1418.24C808.759 1416.05 802.322 1414.39 789.98 1411.6L795.225 1426.64L795.076 1443.77L830.204 1444.07C831.638 1444.09 834.2 1442.18 832.977 1434.46C831.448 1424.81 823.475 1421.36 814.838 1418.24Z" fill="#EAF4FB"/>
<path d="M764.341 1419.14L747.977 1450.2" stroke="#3F3232" stroke-width="17.3238"/>
<path d="M741.796 1407.38L722.187 1444.7" stroke="#3F3232" stroke-width="17.3238"/>
<path d="M719.714 1394.39L692.602 1446.99" stroke="#3F3232" stroke-width="17.3238"/>
<path d="M635.487 1457.68L636.503 1439.71L794.015 1442.15L833.289 1439.28L834.48 1453C834.899 1457.83 831.278 1462.06 826.445 1462.39L793.818 1464.64L639.744 1462.25C637.282 1462.21 635.348 1460.13 635.487 1457.68Z" fill="#C7CBCF"/>
</svg>
