<?xml version="1.0" encoding="UTF-8"?>
<svg width="593px" height="1346px" viewBox="0 0 593 1346" version="1.1" xmlns="http://www.w3.org/2000/svg" xmlns:xlink="http://www.w3.org/1999/xlink">
    <!-- Generator: Sketch 55.2 (78181) - https://sketchapp.com -->
    <title>gee_me_036</title>
    <desc>Created with Sketch.</desc>
    <defs>
        <path d="M22.824,0 L172,23.349 L152.577,168.64 C152.577,168.64 124.772,188.68 74.559,187.16 C24.346,185.64 0,155.2 0,155.2 L22.824,0 Z" id="path-1"></path>
        <path d="M146.413,0.468 L0,23.384 L19.063,165.98 C19.063,165.98 46.353,185.65 95.636,184.16 C144.92,182.67 168.814,152.797 168.814,152.797 L146.413,0.468 Z" id="path-3"></path>
        <path d="M43.848,4.067 C49.048,1.267 54.348,0.9 56.348,1.067 C60.348,14.4 69.548,48.067 74.348,76.067 C79.148,104.067 122.014,136.401 142.848,149.067 C158.348,138.234 193.348,110.767 209.348,87.567 C225.348,64.367 229.348,20.234 229.348,1.067 C230.848,1.067 237.348,-1.333 243.348,1.067 C249.348,3.467 270.181,15.4 280.848,19.567 C266.348,42.067 263.348,74.067 263.348,94.067 C263.348,119.067 276.848,189.567 273.848,203.067 C270.848,216.567 280.848,301.067 280.848,331.567 C280.848,362.067 293.348,410.067 280.848,419.067 C268.348,428.067 198.348,424.067 175.348,419.067 C152.348,414.067 84.848,419.067 73.848,424.067 C62.848,429.067 21.848,415.067 7.848,419.067 C-6.1523,423.067 2.848,400.067 2.848,389.067 C2.848,378.067 -1.1523,348.567 2.848,322.067 C6.048,300.867 7.014,234.4 7.348,203.566 C11.681,188.066 21.048,146.267 21.848,105.067 C22.648,63.867 17.181,30.901 14.348,19.567 C22.014,15.567 38.648,6.867 43.848,4.067 Z" id="path-5"></path>
        <path d="M12.5,3 C15.5,1.5 19.167,0.667 21.5,0 C26,17.333 34.5,60.1 32.5,92.5 C30.5,124.9 19.667,169.333 14.5,187.5 C13.833,185.167 12.5,179.7 12.5,176.5 C12.5,172.5 11,105.5 11,80.5 C11,55.5 5.5,23.5 0,10.5 C1.5,8 8,5.25 12.5,3 Z" id="path-7"></path>
        <path d="M21.074,3.038 C18.036,1.519 14.323,0.675 11.961,0 C7.404,17.552 -1.204,60.86 0.822,93.669 C2.847,126.479 13.817,171.474 19.049,189.87 C19.724,187.508 21.074,181.972 21.074,178.731 C21.074,174.681 22.593,106.834 22.593,81.518 C22.593,56.202 28.163,23.797 33.732,10.633 C32.213,8.101 25.631,5.316 21.074,3.038 Z" id="path-9"></path>
        <path d="M32.059,82.139 C21.259,57.739 20.058,17.639 24.558,0.639 C14.058,-1.86 3.725,3.639 2.558,5.639 C-1.941,20.64 -0.442,65.14 6.559,83.64 C19.443,117.686 56.5,150.5 90.058,170.5 L109.5,156.5 C95,145 42.859,106.539 32.059,82.139 Z" id="path-11"></path>
        <path d="M58,82.139 C68.8,57.739 70.001,17.639 65.501,0.639 C76.001,-1.86 86.334,3.639 87.501,5.639 C92,20.64 90.5,65.14 83.5,83.64 C70.616,117.686 36.667,146.639 19.5,156.639 L0,141.639 C14.833,131.973 47.2,106.539 58,82.139 Z" id="path-13"></path>
        <path d="M0.5,32.5 C0.5,14.551 15.051,0 33,0 L57,0 C74.949,0 89.5,14.551 89.5,32.5 C89.5,50.449 74.949,65 57,65 L33,65 C15.051,65 0.5,50.449 0.5,32.5 Z" id="path-15"></path>
    </defs>
    <g id="GEE!-ME" stroke="none" stroke-width="1" fill="none" fill-rule="evenodd">
        <g id="gee_me_036" transform="translate(-304.000000, -127.000000)">
            <g transform="translate(304.000000, 127.000000)">
                <g id="lower-limb" transform="translate(35.499700, 834.000200)">
                    <ellipse id="Oval" fill="#092978" fill-rule="nonzero" cx="208.9433" cy="41.9378" rx="88.5353" ry="41.9378"></ellipse>
                    <path d="M264.115442,20.7041738 C282.504108,16.9017715 300.493524,28.7262751 304.295926,47.1149417 C310.544721,77.3345225 313.57019,149.529469 313.353316,237.62947 L313.345752,240.304008 C313.075774,324.839842 309.799236,404.304243 304.658944,440.305599 C302.004774,458.894754 284.783657,471.812613 266.194501,469.158444 C247.605346,466.504274 234.687487,449.283157 237.341656,430.694001 C247.465411,359.789691 248.338782,117.308778 238.020768,62.4880802 L237.704674,60.8846583 C233.902272,42.4959917 245.726775,24.506576 264.115442,20.7041738 Z" id="Path" fill="#F8CCBE" fill-rule="nonzero"></path>
                    <path d="M112.827674,42.3079417 C116.630076,23.9192751 134.619492,12.0947715 153.008158,15.8971738 C171.212938,19.661552 182.984182,37.3306221 179.528319,55.5261319 L179.418926,56.0776583 C168.874368,107.071834 169.541617,350.145488 179.478006,424.493062 L179.781944,426.694001 C182.436113,445.283157 169.518254,462.504274 150.929099,465.158444 C132.339943,467.812613 115.118826,454.894754 112.464656,436.305599 C107.324674,400.306417 104.047855,320.660924 103.777848,235.900232 L103.764702,230.54693 C103.61484,143.430778 106.64202,72.2221685 112.827674,42.3079417 Z" id="Path" fill="#F8CCBE" fill-rule="nonzero"></path>
                    <path d="M71.3243,10.9998 L219.5003,30.8488 L201.0773,179.6398 C201.0773,179.6398 173.2723,199.6798 123.0593,198.1598 C72.8463,196.6398 48.5003,166.1998 48.5003,166.1998 L71.3243,10.9998 Z" id="Path" fill="#092978" fill-rule="nonzero"></path>
                    <g id="Clipped" transform="translate(48.500300, 10.999800)">
                        <mask id="mask-2" fill="white">
                            <use xlink:href="#path-1"></use>
                        </mask>
                        <g id="Path"></g>
                        <g id="Group" mask="url(#mask-2)" fill-rule="nonzero">
                            <g transform="translate(-60.000000, 49.000000)" id="Path">
                                <path d="M136,107.85 C101.2,106.65 63.8333,92.682 58,84.349 L45,107.85 C60.8333,119.18 98.4,143.15 122,148.35 C145.6,153.55 195.5,134.85 217.5,124.85 L217.5,101.349 C200.167,105.515 170.8,109.05 136,107.85 Z" fill="#FFFFFF"></path>
                                <path d="M82.499,53.079 L80.8969508,0.0308035981 L51.012,43.889 L0.065584515,29.0222077 L32.543,70.996 L2.65935308,114.855168 L53.167,96.74 L80.5215389,124.819453 L83.028,86.03 L133.447756,67.9466897 L82.499,53.079 Z M56.8551236,60.1784047 L68.205,43.52 L68.8137198,63.6689791 L88.161,69.314 L69.6510265,75.954427 L68.581,92.501 L56.9133149,80.5235262 L38.49,87.13 L49.840559,70.4736433 L37.504,54.531 L56.8551236,60.1784047 Z" fill="#FFFFFF"></path>
                                <path d="M21.0342037,100.993223 L55.4989278,88.6324037 L75.0105241,108.656582 L76.8000369,80.9919302 L111.264982,68.6308306 L76.1157873,58.3741422 L75.0099273,21.7759166 L54.392,52.034 L19.2444597,41.7761712 L41.6512771,70.7342593 L21.0342037,100.993223 Z M57.7311209,61.3417435 L67.757,46.627 L68.2951255,64.4238326 L73.8736407,66.0535156 L85.386,69.412 L69.154938,75.2358635 L68.188,90.191 L57.6396563,79.3657853 L41.509,85.15 L51.535042,70.4372725 L40.638,56.353 L57.7311209,61.3417435 Z" fill="#000000"></path>
                                <path d="M137,116.85 C97.501,115.35 68.1666,98.849 58,89.849 C55,89.015 50.3,89.749 55.5,99.349 C62,111.35 106.501,127.85 137,127.85 C161.56,127.85 201.667,120.85 219.5,115.35 L219.5,104.849 C208.167,108.85 175.772,118.32 137,116.85 Z" fill="#000000"></path>
                            </g>
                        </g>
                    </g>
                    <path d="M345.9133,12.4678 L200.4813,31.9488 L218.5633,177.9798 C218.5633,177.9798 245.8533,197.6498 295.1363,196.1598 C344.4203,194.6698 368.3143,164.7968 368.3143,164.7968 L345.9133,12.4678 Z" id="Path" fill="#074099" fill-rule="nonzero"></path>
                    <g id="Clipped" transform="translate(199.500300, 11.999800)">
                        <mask id="mask-4" fill="white">
                            <use xlink:href="#path-3"></use>
                        </mask>
                        <g id="Path"></g>
                        <g id="Group" mask="url(#mask-4)" fill-rule="nonzero">
                            <g transform="translate(12.000000, 48.000000)" id="Path">
                                <path d="M82.222,106.41 C116.378,105.235 153.052,91.527 158.778,83.348 L171.537,106.41 C155.997,117.54 118.81323,131.140569 95.6502296,136.240569 C72.4872296,141.350569 23.824,132.91 2.232,123.1 L2.232,100.033 C19.244,104.122 48.067,107.59 82.222,106.41 Z" fill="#FFFFFF"></path>
                                <path d="M165.687,43.486 L136.184622,0.187910106 L134.603,52.559 L84.3048151,67.2366432 L134.086,85.091 L136.561287,123.369733 L163.554,95.661 L213.423367,113.545904 L183.921,70.247 L215.983395,28.8092877 L165.687,43.486 Z M148.289256,63.1489975 L148.877,43.677 L159.845965,59.7753958 L178.544,54.318 L166.624517,69.7246854 L177.592,85.821 L159.807539,79.4435006 L148.5,91.049 L147.46388,75.0153706 L129.591,68.604 L148.289256,63.1489975 Z" fill="#FFFFFF"></path>
                                <path d="M162.315938,51.6306954 L142.081377,21.9321452 L140.996683,57.8530925 L106.498579,67.9211239 L140.325,80.053 L142.081935,107.205703 L161.232025,87.551311 L195.057631,99.6833837 L174.822604,69.985672 L196.814226,41.5645939 L162.315938,51.6306954 Z M148.817171,63.9049501 L149.334,46.786 L158.979546,60.9385489 L175.42,56.14 L164.939358,69.6862726 L174.581,83.84 L159.089947,78.284679 L148.903,88.74 L147.970667,74.296937 L132.374,68.702 L148.817171,63.9049501 Z" fill="#000000"></path>
                                <path d="M81.243,115.24 C120.011,113.77 148.802,97.577 158.78,88.744 C161.724,87.926 166.337,88.646 161.234,98.068 C154.854,109.85 111.177,126.04 81.243,126.04 C57.138,126.04 17.774,119.17 0.271,113.77 L0.271,103.466 C11.394,107.39 43.189,116.69 81.243,115.24 Z" fill="#000000"></path>
                            </g>
                        </g>
                    </g>
                    <path d="M120.4033,408.1498 C116.7403,402.4998 111.3033,402.2198 106.8993,398.9798 C104.7393,402.0598 104.9003,406.5698 102.9453,412.5998 L90.2293,428.2998 L68.1243,451.9798 L47.0564,463.3998 L59.7632,478.0598 C68.2733,471.4198 116.5693,419.9998 120.4033,408.1498 Z" id="Path" fill="#E6DBDB" fill-rule="nonzero"></path>
                    <path d="M195.0723,485.7498 C195.0723,485.7498 195.5483,460.0698 189.9623,445.8998 C184.3763,431.7298 178.4283,395.1098 178.4283,395.1098 C178.4283,395.1098 168.8283,405.5798 150.7813,405.7398 L116.7723,406.0398 C116.7723,406.0398 87.1623,447.3698 78.4593,452.9198 C69.7573,458.4598 20.4642,469.2198 20.4642,469.2198 C11.1015,469.3098 3.5775,476.9598 3.65854089,486.3198 L3.7345,494.9498 L106.5453,494.0498 L195.0723,485.7498 Z" id="Path" fill="#F2EAEA" fill-rule="nonzero"></path>
                    <path d="M91.1773,466.0998 C87.0263,457.7998 84.6373,449.7598 85.4983,445.9698 L65.8803,455.7798 L23.0299,469.7198 C23.0299,468.6898 17.764,469.4098 11.1557,472.2998 C4.5475,475.1898 3.5836,482.7998 3.9278,486.2398 L99.4373,489.8498 L110.7953,489.3398 C105.1163,486.7498 96.8563,477.4598 91.1773,466.0998 Z" id="Path" fill="#D11137" fill-rule="nonzero"></path>
                    <path d="M152.6133,446.9998 C140.6363,449.8998 115.6153,436.8498 104.6023,429.9698 L116.4763,406.2198 C128.0063,406.2198 152.9253,405.9098 160.3593,404.6698 C167.7933,403.4298 175.5023,397.9598 178.4263,395.3798 L181.5243,411.3798 L185.6543,431.5098 C179.6313,435.4698 164.5903,444.1098 152.6133,446.9998 Z" id="Path" fill="#000000" fill-rule="nonzero"></path>
                    <path d="M105.6093,428.4098 C108.1563,424.4298 113.3473,415.8498 113.7393,413.3698 C137.5223,417.2898 169.5253,416.4998 181.3533,411.2298 C184.5323,420.4998 186.1613,433.0598 186.1613,433.0598 C184.1323,437.2098 161.3663,445.3798 152.6043,446.9998 C147.9263,443.4298 144.4543,442.5298 140.8223,440.4998 C135.1243,437.3098 116.1123,429.0098 105.6093,428.4098 Z" id="Path" fill="#D11137" fill-rule="nonzero"></path>
                    <path d="M156.8483,465.0698 C160.5503,462.9498 181.5263,453.7098 191.2213,449.7298 C195.9043,453.0798 195.3163,473.2598 195.4173,484.8898 L148.9013,487.4098 C151.4693,478.5698 155.6153,466.2998 156.8483,465.0698 Z" id="Path" fill="#D11137" fill-rule="nonzero"></path>
                    <path d="M134.3313,463.4498 C129.4803,464.7598 125.5833,464.5498 123.3893,462.8298 C117.7403,458.3298 121.4473,451.5598 123.0173,448.9098 C120.2053,452.1498 117.4103,455.3998 115.2193,458.9498 C111.7653,464.4998 110.2653,470.5998 112.5233,474.5298 C116.5723,481.6298 126.4923,478.4398 132.8223,475.6398 L191.5643,449.6698 L134.3313,463.4498 Z" id="Path" fill="#000000" fill-rule="nonzero"></path>
                    <path d="M46.6193,472.2998 C33.7263,473.9598 17.2109,474.6198 14.0773,470.5198 L35.1895,464.1398 L62.9723,453.0498 L70.2313,456.6098 L69.2263,459.7098 C69.2263,459.7098 77.7563,469.2098 77.2403,473.3298 C76.7243,477.4598 72.3743,479.5298 67.4313,477.9798 C62.4873,476.4298 59.7273,470.6098 46.6193,472.2998 Z" id="Path" fill="#F2EAEA" fill-rule="nonzero"></path>
                    <path d="M111.8283,424.7998 C106.4593,432.2398 92.0383,447.5198 85.4983,454.2298 L83.4333,446.9998 C87.5633,442.3598 94.2753,435.1298 99.9543,428.9298 C105.8943,422.4498 112.0003,412.7598 116.4743,406.2198 L122.1533,406.2198 C121.2933,409.9998 117.1973,417.3698 111.8283,424.7998 Z" id="Path" fill="#D11137" fill-rule="nonzero"></path>
                    <path d="M99.4295039,413.345262 C100.044365,411.76846 101.779565,410.960188 103.368909,411.476192 L103.544838,411.539004 L109.032838,413.679004 C110.66804,414.316638 111.47673,416.159135 110.839096,417.794338 C110.224235,419.37114 108.489035,420.179412 106.899691,419.663408 L106.723762,419.600596 L101.235762,417.460596 C99.6005597,416.822962 98.7918703,414.980465 99.4295039,413.345262 Z" id="Path" fill="#BF0328" fill-rule="nonzero"></path>
                    <path d="M91.2505752,422.71508 C91.8655334,421.138315 93.6007835,420.33015 95.1900952,420.846253 L95.3660205,420.909075 L100.85302,423.049075 C102.488184,423.68681 103.296759,425.529357 102.659025,427.16452 C102.044067,428.741285 100.308817,429.54945 98.7195048,429.033347 L98.5435795,428.970525 L93.0565795,426.830525 C91.4214164,426.19279 90.6128407,424.350243 91.2505752,422.71508 Z" id="Path" fill="#BF0328" fill-rule="nonzero"></path>
                    <path d="M84.1025039,432.065262 C84.7173649,430.48846 86.4525651,429.680188 88.0419087,430.196192 L88.2178378,430.259004 L93.7058378,432.399004 C95.3410403,433.036638 96.1497297,434.879135 95.5120961,436.514338 C94.8972351,438.09114 93.1620349,438.899412 91.5726913,438.383408 L91.3967622,438.320596 L85.9087622,436.180596 C84.2735597,435.542962 83.4648703,433.700465 84.1025039,432.065262 Z" id="Path" fill="#BF0328" fill-rule="nonzero"></path>
                    <path d="M75.9255039,441.435262 C76.5403649,439.85846 78.2755651,439.050188 79.8649087,439.566192 L80.0408378,439.629004 L85.5288378,441.769004 C87.1640403,442.406638 87.9727297,444.249135 87.3350961,445.884338 C86.7202351,447.46114 84.9850349,448.269412 83.3956913,447.753408 L83.2197622,447.690596 L77.7317622,445.550596 C76.0965597,444.912962 75.2878703,443.070465 75.9255039,441.435262 Z" id="Path" fill="#BF0328" fill-rule="nonzero"></path>
                    <path d="M63.6155039,450.835262 C64.2303649,449.25846 65.9655651,448.450188 67.5549087,448.966192 L67.7308378,449.029004 L73.2188378,451.169004 C74.8540403,451.806638 75.6627297,453.649135 75.0250961,455.284338 C74.4102351,456.86114 72.6750349,457.669412 71.0856913,457.153408 L70.9097622,457.090596 L65.4217622,454.950596 C63.7865597,454.312962 62.9778703,452.470465 63.6155039,450.835262 Z" id="Path" fill="#BF0328" fill-rule="nonzero"></path>
                    <path d="M196.3163,484.6698 L99.5583,489.8898 L3.2718,486.3598 L1.8388,499.1798 C1.425,502.8798 4.2703,506.1398 7.9949,506.2398 L97.7133,508.4998 L147.6673,508.6098 L197.6013,506.5398 L196.3163,484.6698 Z" id="Path" fill="#E7E5DD" fill-rule="nonzero"></path>
                    <path d="M1.83759864,500.839101 C9.50542684,503.068616 97.0696554,505.46099 125.414916,505.266604 L127.434183,505.24712 C133.913676,505.164871 143.488355,504.859449 155.981786,504.361199 L164.236526,504.022103 L197.021633,502.582475 L197.274967,508.577125 L169.288542,509.812097 L156.125893,510.360226 C143.37097,510.868542 133.649191,511.176209 127.110363,511.25148 L124.53184,511.272015 C94.6510101,511.420316 10.346613,509.102638 0.444779685,506.675595 L0.162401356,506.600499 L1.83759864,500.839101 Z" id="Path" fill="#536E83" fill-rule="nonzero"></path>
                    <path d="M159.8443,431.5098 C153.2353,431.0998 149.8623,428.2398 149.0023,426.8698 C148.3143,430.4798 149.5183,437.8098 159.8443,438.2298 C170.1693,438.6398 173.0943,430.8298 173.2673,426.8698 C171.5463,428.5898 166.4523,431.9298 159.8443,431.5098 Z" id="Path" fill="#000000" fill-rule="nonzero"></path>
                    <path d="M153.1313,426.3498 C152.7183,429.2398 153.9923,432.0298 154.6803,433.0598 C160.8753,437.7098 167.5873,433.0598 167.5873,428.4198 C167.5873,423.7698 164.4893,422.7398 161.3923,422.7398 C158.2943,422.7398 153.6483,422.7398 153.1313,426.3498 Z" id="Path" fill="#000000" fill-rule="nonzero"></path>
                    <path d="M297.7043,408.7698 C301.2553,403.0798 306.6673,402.6998 310.9983,399.3898 C313.2043,402.4298 313.1213,406.9198 315.1753,412.8998 L328.1153,428.3098 L350.5493,451.5198 L371.7373,462.5398 L359.3323,477.3598 C350.7393,470.8898 301.7303,420.4998 297.7043,408.7698 Z" id="Path" fill="#E6DBDB" fill-rule="nonzero"></path>
                    <path d="M224.6633,487.3698 C224.6633,487.3698 223.7423,461.7998 229.0613,447.5798 C234.3803,433.3698 239.6693,396.7798 239.6693,396.7798 C239.6693,396.7798 249.4153,407.0498 267.3963,406.8898 L301.2833,406.5998 C301.2833,406.5998 331.5013,447.2698 340.2673,452.6398 C349.0333,458.0098 398.3283,467.8698 398.3283,467.8698 C407.6573,467.7898 415.2863,475.2898 415.3683,484.6198 L415.4433,493.2098 L313.0023,494.1098 L224.6633,487.3698 Z" id="Path" fill="#F2EAEA" fill-rule="nonzero"></path>
                    <path d="M327.8283,465.9998 C331.8193,457.6498 334.0593,449.5998 333.1363,445.8398 L352.8513,455.2698 L395.7833,468.4098 C395.7653,467.3798 401.0233,468.0098 407.6573,470.7798 C414.2913,473.5398 415.3833,481.0998 415.1003,484.5398 L320.0123,489.7998 L308.6883,489.4798 C314.3003,486.8098 322.3683,477.4098 327.8283,465.9998 Z" id="Path" fill="#D11137" fill-rule="nonzero"></path>
                    <path d="M266.2913,448.0398 C278.2743,450.7098 302.9743,437.2798 313.8263,430.2298 L301.5833,406.7698 C290.0973,406.9698 265.2663,407.0998 257.8383,405.9898 C250.4103,404.8898 242.6363,399.5698 239.6773,397.0498 L236.8693,413.0498 L233.1053,433.1798 C239.1743,437.0198 254.3093,445.3598 266.2913,448.0398 Z" id="Path" fill="#000000" fill-rule="nonzero"></path>
                    <path d="M312.7963,428.6998 C310.1893,424.7798 304.8683,416.3198 304.4353,413.8498 C280.8103,418.1798 248.9133,417.9398 237.0373,412.8998 C234.0323,422.1798 232.6273,434.7298 232.6273,434.7298 C234.7203,438.8298 257.5433,446.5698 266.3013,448.0298 C270.8993,444.3898 274.3433,443.4398 277.9253,441.3498 C283.5463,438.0698 302.3433,429.4798 312.7963,428.6998 Z" id="Path" fill="#D11137" fill-rule="nonzero"></path>
                    <path d="M262.3843,466.1098 C258.6603,464.0598 237.6023,455.2198 227.8743,451.4298 C223.2663,454.8398 224.2043,474.9298 224.3053,486.5198 L270.6903,488.2298 C267.9793,479.4698 263.6353,467.3098 262.3843,466.1098 Z" id="Path" fill="#D11137" fill-rule="nonzero"></path>
                    <path d="M284.7903,464.0998 C289.6453,465.3198 293.5243,465.0498 295.6803,463.2898 C301.2293,458.7098 297.4183,452.0398 295.8083,449.4198 C298.6663,452.5998 301.5073,455.7898 303.7523,459.2898 C307.2893,464.7498 308.8903,470.7998 306.7083,474.7598 C302.7983,481.9098 292.8603,478.8998 286.5053,476.2198 L227.5323,451.3698 L284.7903,464.0998 Z" id="Path" fill="#000000" fill-rule="nonzero"></path>
                    <path d="M372.3283,471.3898 C385.2023,472.8198 401.6673,473.1998 404.7173,469.0498 L383.5733,463.0598 L355.7023,452.4998 L348.5323,456.1698 L349.5883,459.2498 C349.5883,459.2498 341.2543,468.8498 341.8403,472.9598 C342.4263,477.0598 346.7953,479.0398 351.6933,477.4098 C356.5923,475.7898 359.2403,469.9398 372.3283,471.3898 Z" id="Path" fill="#F2EAEA" fill-rule="nonzero"></path>
                    <path d="M306.5363,425.2098 C312.0143,432.5198 326.6473,447.4898 333.2783,454.0698 L335.2103,446.8298 C331.0153,442.2698 324.2033,435.1898 318.4373,429.1198 C312.4063,422.7598 306.1553,413.2098 301.5843,406.7698 L295.9263,406.8698 C296.8493,410.6298 301.0583,417.8998 306.5363,425.2098 Z" id="Path" fill="#D11137" fill-rule="nonzero"></path>
                    <path d="M314.552025,411.840113 C316.17557,411.173354 318.032227,411.948981 318.698987,413.572525 C319.341933,415.138086 318.643681,416.920406 317.137254,417.64356 L316.966575,417.719487 L311.536575,419.949487 C309.91303,420.616246 308.056373,419.840619 307.389613,418.217075 C306.746667,416.651514 307.444919,414.869194 308.951346,414.14604 L309.122025,414.070113 L314.552025,411.840113 Z" id="Path" fill="#BF0328" fill-rule="nonzero"></path>
                    <path d="M322.864025,421.030113 C324.48757,420.363354 326.344227,421.138981 327.010987,422.762525 C327.653933,424.328086 326.955681,426.110406 325.449254,426.83356 L325.278575,426.909487 L319.848575,429.139487 C318.22503,429.806246 316.368373,429.030619 315.701613,427.407075 C315.058667,425.841514 315.756919,424.059194 317.263346,423.33604 L317.434025,423.260113 L322.864025,421.030113 Z" id="Path" fill="#BF0328" fill-rule="nonzero"></path>
                    <path d="M330.152662,430.228213 C331.777256,429.564015 333.632688,430.342569 334.296887,431.967162 C334.937364,433.533735 334.236302,435.314952 332.728737,436.035729 L332.557938,436.111387 L327.127938,438.331387 C325.503344,438.995585 323.647912,438.217031 322.983713,436.592438 C322.343236,435.025865 323.044298,433.244648 324.551863,432.523871 L324.722662,432.448213 L330.152662,430.228213 Z" id="Path" fill="#BF0328" fill-rule="nonzero"></path>
                    <path d="M338.458025,439.410113 C340.08157,438.743354 341.938227,439.518981 342.604987,441.142525 C343.247933,442.708086 342.549681,444.490406 341.043254,445.21356 L340.872575,445.289487 L335.442575,447.519487 C333.81903,448.186246 331.962373,447.410619 331.295613,445.787075 C330.652667,444.221514 331.350919,442.439194 332.857346,441.71604 L333.028025,441.640113 L338.458025,439.410113 Z" id="Path" fill="#BF0328" fill-rule="nonzero"></path>
                    <path d="M350.889852,448.568136 C352.514488,447.904042 354.369871,448.682716 355.033964,450.307352 C355.67434,451.873966 354.973164,453.655138 353.465552,454.375818 L353.294748,454.451464 L347.863748,456.671464 C346.239112,457.335558 344.383729,456.556884 343.719636,454.932248 C343.07926,453.365634 343.780436,451.584462 345.288048,450.863782 L345.458852,450.788136 L350.889852,448.568136 Z" id="Path" fill="#BF0328" fill-rule="nonzero"></path>
                    <path d="M223.4063,486.3198 L319.8913,489.8398 L415.7553,484.6398 L417.4033,497.3698 C417.8813,501.0598 415.0933,504.3698 411.3713,504.5298 L322.0533,508.3498 L272.2893,509.3298 L222.5063,508.1298 L223.4063,486.3198 Z" id="Path" fill="#E7E5DD" fill-rule="nonzero"></path>
                    <path d="M417.432157,499.034281 L419.208443,504.765319 C410.755979,507.385089 323.705979,511.28559 294.481843,511.591515 L292.404685,511.60806 C286.033182,511.640224 276.750508,511.509407 264.677586,511.241418 L256.855982,511.058409 L222.866978,510.158879 L223.015622,504.160721 L251.494243,504.922003 L263.213693,505.207011 C276.811477,505.516034 286.997075,505.658564 293.562394,505.599903 L295.273178,505.581866 C324.088835,505.219213 408.171395,501.443631 417.177692,499.106111 L417.432157,499.034281 Z" id="Path" fill="#536E83" fill-rule="nonzero"></path>
                    <path d="M258.8173,432.7298 C265.3933,432.1998 268.7043,429.2998 269.5373,427.9098 C270.2863,431.4998 269.2133,438.8298 258.9343,439.4198 C248.6543,440.0098 245.6043,432.2698 245.3633,428.3298 C247.1083,430.0198 252.2413,433.2598 258.8173,432.7298 Z" id="Path" fill="#000000" fill-rule="nonzero"></path>
                    <path d="M265.4153,427.4698 C265.8773,430.3398 264.6573,433.1398 263.9893,434.1798 C257.8983,438.9198 251.1313,434.4098 251.0503,429.7798 C250.9693,425.1498 254.0373,424.0698 257.1233,424.0098 C260.2093,423.9598 264.8383,423.8798 265.4153,427.4698 Z" id="Path" fill="#000000" fill-rule="nonzero"></path>
                </g>
                <g id="upper-limb" transform="translate(0.000000, 326.000000)">
                    <path d="M354.908731,164.708335 C374.123637,157.754369 395.337699,167.693825 402.291665,186.908731 L403.509067,190.26048 C423.279474,244.491172 437.582626,273.720976 462.698675,309.069336 L465.846751,313.4907 C499.059645,360.028843 509.776258,371.270353 562.621607,418.381592 C577.874833,431.97973 579.216546,455.368381 565.618408,470.621607 C552.02027,485.874833 528.631619,487.216546 513.378393,473.618408 L508.246277,469.036067 C454.757663,421.195542 440.743024,405.841111 403.545411,353.576101 L402.375369,351.930725 C372.329422,309.644021 355.203643,274.249356 332.708335,212.091269 C325.754369,192.876363 335.693825,171.662301 354.908731,164.708335 Z" id="Path" fill="#F8CCBE" fill-rule="nonzero"></path>
                    <g id="path" transform="translate(404.000000, 300.000000)" fill-rule="nonzero">
                        <path d="M0,94.5 C0,146.690909 42.3090911,189 94.5,189 C146.690909,189 189,146.690909 189,94.5 C189,42.3090911 146.690909,0 94.5,0 C42.3090911,0 0,42.3090911 0,94.5 Z" id="Path" fill="#E57E25"></path>
                        <path d="M2.46796718,102.258318 C14.7256014,90.5445892 34.8777109,86.8253854 49.3629384,93.593046 C36.3167597,112.217581 26.9466763,133.164734 21.7565998,155.307991 C23.3510245,157.235099 25.0334026,159.081392 26.7735375,160.873247 C27.2734755,160.420965 27.623059,159.826374 27.7752954,159.169402 C32.6834886,136.899386 41.9761759,115.830914 55.1108239,97.1940237 C63.7599728,103.911085 68.0049818,114.967496 67.0439652,129.1539 L67.0303049,129.336635 L67.0370152,129.523206 C67.8868319,150.060482 79.7178802,168.853864 98.6817802,179.788452 C104.442298,183.13035 110.683648,185.562818 117.185543,187 C122.740437,185.650914 128.16098,183.798327 133.37999,181.465199 C123.058528,182.264484 112.131219,179.723943 102.060197,173.918158 C85.171709,164.179499 74.6232942,147.557352 73.8072689,129.421527 C75.1445438,108.880415 67.0099342,97.6683667 59.1698606,91.6690554 C64.2013561,85.0878267 69.6971035,78.8753626 75.6149866,73.0792717 C99.8479031,95.6053347 122.552098,119.723913 143.576351,145.274366 L158.176613,163.048079 L163.406844,158.742541 L148.806342,140.969068 C127.687776,115.302582 104.889078,91.0678379 80.5607468,68.4248114 C85.2714951,64.1556868 90.2134638,60.1492087 95.3642361,56.4235508 C103.454989,66.6566968 116.464421,71.6701518 132.723335,70.5996427 C148.020993,71.2941307 162.377765,79.6270272 172.136996,93.4781773 C179.72687,104.249935 183.58915,117.061032 183.203305,129.011693 C185.333541,123.492056 186.939531,117.783929 188,111.962924 C185.939024,103.936866 182.439606,96.3516696 177.671828,89.5759991 C166.652971,73.9361107 150.306103,64.5499714 132.825188,63.8247878 L132.638737,63.818313 L132.45588,63.8317423 C118.678114,64.7598046 107.764225,60.7458752 100.990616,52.5180152 C118.653475,40.7528289 138.344156,32.36834 159.063336,27.7900706 C159.716119,27.6284822 160.304165,27.2716126 160.74907,26.7670438 C158.96615,25.0269404 157.115292,23.3579271 155.200817,21.7639006 C134.557657,26.6147588 114.94469,35.1112549 97.2833933,46.8541972 C90.6959964,33.6164794 93.0012378,15.0127868 102.92655,2.24581488 L104.304326,0.474342961 C101.141093,0.158702235 97.9641512,0 94.7852296,0 L94.7852296,2.07986678 C85.3945881,16.953804 83.9964409,36.3227283 91.6505422,50.7597328 C86.0419164,54.8032324 80.6697687,59.1654196 75.5605849,63.8247878 C64.5140072,53.6915406 53.1652014,43.8932112 41.5295751,34.4431023 L30.3077298,25.3512092 C28.6438468,26.8987477 27.0359279,28.5054627 25.4870695,30.1682603 L37.2709058,39.7138728 C48.6745547,48.9740002 59.7997298,58.5723193 70.6316006,68.4960348 C64.4309808,74.5903592 58.678204,81.1247277 53.4181406,88.0481735 C53.0320564,87.8515298 52.6392619,87.6484112 52.2701932,87.4757485 C36.2152255,79.9519689 15.0980253,83.1054623 0.643473672,94.8465297 L0,94.8465297 C0,97.9969056 0.162486089,101.106514 0.460377253,104.175355 L2.46772752,102.258078 L2.46796718,102.258318 Z" id="Path" fill="#38454F"></path>
                    </g>
                    <path d="M156.5,148.94 C156.5,134.061 168.561,122 183.44,122 L294.56,122 C309.439,122 321.5,134.061 321.5,148.94 C321.5,188.185 289.685,220 250.44,220 L227.56,220 C188.315,220 156.5,188.185 156.5,148.94 Z" id="Path" fill="#EBBAAA" fill-rule="nonzero"></path>
                    <path d="M191,37.911 C191,16.973 207.974,0 228.911,0 L249.089,0 C270.027,0 287,16.973 287,37.911 L287,139 C287,165.51 265.51,187 239,187 C212.491,187 191,165.51 191,139 L191,37.911 Z" id="Path" fill="#EBBAAA" fill-rule="nonzero"></path>
                    <path d="M427.5,175.5 C421.9,168.7 417.5,164.667 416,164 L375.5,165 L351.5,330 L483.5,299 C470,254.5 433.1,182.3 427.5,175.5 Z" id="Path" fill="#FAFAFB" fill-rule="nonzero"></path>
                    <path d="M75.0926,164.5 C80.6926,158.5 129.426,137.667 153.093,128 L224.093,144.5 L321.593,128 C349.926,135.5 404.593,155.5 414.593,162.5 C421.373,167.246 399.093,171.5 397.093,193 C394.603,219.764 369,308 369,331 C369,409.5 383.093,525.5 378.093,540 C377.142,542.756 322.371237,538.663 250.699237,539.234 C202.171237,539.621 138.399,538.894 101.593,539.5 C94.5926,453 115.062,331.239 107.593,272.5 C96.5926,186 68.0926,172 75.0926,164.5 Z" id="Path" fill="#FAFAFB" fill-rule="nonzero"></path>
                    <path d="M147,152.238 C147,135.538 160.538,122 177.238,122 L298.762,122 C315.462,122 329,135.538 329,152.238 C329,196.29 293.29,232 249.238,232 L226.762,232 C182.71,232 147,196.29 147,152.238 Z" id="Path" fill="#F2F0F5" fill-rule="nonzero"></path>
                    <path d="M45.5783765,223.169777 C54.8734521,204.97165 77.1610963,197.754301 95.3592232,207.049377 C113.55735,216.344452 120.774699,238.632096 111.479623,256.830223 C100.190025,278.933277 93.7310279,306.538552 85.6648611,363.153607 L85.544,364.003 L85.6944668,364.035958 C87.1039744,364.333725 88.7316114,364.602073 90.5707147,364.826821 L91.0775263,364.887025 C110.485251,367.127098 141.762185,363.922748 191.552836,355.071175 C211.671921,351.494488 230.881139,364.904752 234.457825,385.023836 C238.034512,405.142921 224.624248,424.352139 204.505164,427.928825 L199.449187,428.820208 C145.547984,438.241133 110.630711,441.635177 82.5926487,438.398975 C61.2239796,435.932566 43.6862203,429.394677 30.4253754,416.516995 C14.4943724,401.046308 8.58855498,379.81022 11.8909496,356.344422 L12.8156506,349.83398 C16.7660961,322.295332 20.0183711,303.323943 24.0358683,285.696565 L24.1907679,285.019236 C29.7012907,261.005343 36.4578216,241.026223 45.5783765,223.169777 Z" id="Path" fill="#F8CCBE" fill-rule="nonzero"></path>
                    <path d="M63,174.5 C66.6,170.5 73.5,165.5 76.5,164.5 L121.5,209.5 L121.5,328 L0,296 C22,258.167 59.4,178.5 63,174.5 Z" id="Path" fill="#FAFAFB" fill-rule="nonzero"></path>
                    <g id="Clipped" transform="translate(98.000000, 126.000000)">
                        <g id="Group">
                            <mask id="mask-6" fill="white">
                                <use xlink:href="#path-5"></use>
                            </mask>
                            <use id="Path" fill="#0254D2" fill-rule="nonzero" xlink:href="#path-5"></use>
                            <polygon id="Path" fill="#074099" fill-rule="nonzero" mask="url(#mask-6)" points="80.727 -3.038 81.802 32.546 115.977 42.519 82.467 54.538 83.542 90.123 61.756 61.966 28.246 73.985 48.292 44.565 26.506 16.409 60.681 26.382"></polygon>
                            <polygon id="Path" fill="#074099" fill-rule="nonzero" mask="url(#mask-6)" points="96.825 106.919 97.603 132.631 122.296 139.837 98.083 148.522 98.86 174.234 83.118 153.889 58.905 162.573 73.389 141.315 57.647 120.97 82.341 128.177"></polygon>
                            <polygon id="Path" fill="#074099" fill-rule="nonzero" mask="url(#mask-6)" points="39.825 191.919 40.603 217.631 65.296 224.837 41.083 233.522 41.86 259.234 26.118 238.889 1.9046 247.573 16.389 226.315 0.6474 205.97 25.341 213.177"></polygon>
                            <polygon id="Path" fill="#0A50BF" fill-rule="nonzero" mask="url(#mask-6)" points="223.825 69.919 224.603 95.631 249.296 102.837 225.083 111.522 225.86 137.234 210.118 116.889 185.905 125.573 200.389 104.315 184.647 83.97 209.341 91.177"></polygon>
                            <polygon id="Path" fill="#074099" fill-rule="nonzero" mask="url(#mask-6)" points="275.825 -7.081 276.603 18.631 301.296 25.837 277.083 34.522 277.86 60.234 262.118 39.889 237.905 48.573 252.389 27.315 236.647 6.97 261.341 14.177"></polygon>
                            <polygon id="Path" fill="#074099" fill-rule="nonzero" mask="url(#mask-6)" points="140.825 180.919 141.603 206.631 166.296 213.837 142.083 222.522 142.86 248.234 127.118 227.889 102.905 236.573 117.389 215.315 101.647 194.97 126.341 202.177"></polygon>
                            <polygon id="Path" fill="#074099" fill-rule="nonzero" mask="url(#mask-6)" points="240.825 131.919 241.603 157.631 266.296 164.837 242.083 173.522 242.86 199.234 227.118 178.889 202.905 187.573 217.389 166.315 201.647 145.97 226.341 153.177"></polygon>
                            <polygon id="Path" fill="#074099" fill-rule="nonzero" mask="url(#mask-6)" points="48.825 89.919 49.603 115.631 74.296 122.837 50.083 131.522 50.86 157.234 35.118 136.889 10.905 145.573 25.389 124.315 9.647 103.97 34.341 111.177"></polygon>
                            <polygon id="Path" fill="#074099" fill-rule="nonzero" mask="url(#mask-6)" points="279.825 65.919 280.603 91.631 305.296 98.837 281.083 107.522 281.86 133.234 266.118 112.889 241.905 121.573 256.389 100.315 240.647 79.97 265.341 87.177"></polygon>
                            <polygon id="Path" fill="#074099" fill-rule="nonzero" mask="url(#mask-6)" points="174.178 279 174.956 304.712 199.649 311.918 175.436 320.603 176.213 346.315 160.471 325.97 136.258 334.654 150.742 313.396 135 293.051 159.694 300.258"></polygon>
                            <polygon id="Path" fill="#074099" fill-rule="nonzero" mask="url(#mask-6)" points="272.178 318 272.956 343.712 297.649 350.918 273.436 359.603 274.213 385.315 258.471 364.97 234.258 373.654 248.742 352.396 233 332.051 257.694 339.258"></polygon>
                            <polygon id="Path" fill="#074099" fill-rule="nonzero" mask="url(#mask-6)" points="256.178 239 256.956 264.712 281.649 271.918 257.436 280.603 258.213 306.315 242.471 285.97 218.258 294.654 232.742 273.396 217 253.051 241.694 260.258"></polygon>
                            <polygon id="Path" fill="#074099" fill-rule="nonzero" mask="url(#mask-6)" points="229.178 380 229.956 405.712 254.649 412.918 230.436 421.603 231.213 447.315 215.471 426.97 191.258 435.654 205.742 414.396 190 394.051 214.694 401.258"></polygon>
                            <polygon id="Path" fill="#074099" fill-rule="nonzero" mask="url(#mask-6)" points="108.178 323 108.955 348.712 133.648 355.918 109.435 364.603 110.212 390.315 94.47 369.97 70.257 378.654 84.741 357.396 69 337.051 93.693 344.258"></polygon>
                            <polygon id="Path" fill="#074099" fill-rule="nonzero" mask="url(#mask-6)" points="100.825 228.919 101.603 254.631 126.296 261.837 102.083 270.522 102.86 296.234 87.118 275.889 62.905 284.573 77.389 263.315 61.647 242.97 86.341 250.177"></polygon>
                            <polygon id="Path" fill="#074099" fill-rule="nonzero" mask="url(#mask-6)" points="27.825 272.919 28.603 298.631 53.296 305.837 29.083 314.522 29.86 340.234 14.118 319.889 -10.0954 328.573 4.389 307.315 -11.3526 286.97 13.341 294.177"></polygon>
                            <polygon id="Path" fill="#074099" fill-rule="nonzero" mask="url(#mask-6)" points="33.825 345.919 34.603 371.631 59.296 378.837 35.083 387.522 35.86 413.234 20.118 392.889 -4.0954 401.573 10.389 380.315 -5.3526 359.97 19.341 367.177"></polygon>
                            <polygon id="Path" fill="#0A50BF" fill-rule="nonzero" mask="url(#mask-6)" points="20.825 -1.081 21.603 24.631 46.296 31.837 22.083 40.522 22.86 66.234 7.118 45.889 -17.0954 54.573 -2.6109 33.315 -18.3526 12.97 6.341 20.177"></polygon>
                        </g>
                    </g>
                    <path d="M102.5,148 C104.1,147.2 109.167,145.667 111.5,145 C117.5,149.5 126,207.1 124,239.5 C122,271.9 111.5,316.5 104.5,332.5 C103.833,330.167 102.5,324.7 102.5,321.5 C102.5,317.5 109.417,266.959 106,234.5 C103,206 100.5,165 93,153 C95.5,151.667 100.9,148.8 102.5,148 Z" id="Path" fill="#FFFFFF" fill-rule="nonzero"></path>
                    <g id="Clipped" transform="translate(90.000000, 145.000000)">
                        <mask id="mask-8" fill="white">
                            <use xlink:href="#path-7"></use>
                        </mask>
                        <g id="Path"></g>
                        <path d="M22,73 C22,37.4 15.5,12.167 11,1 L-5,3 C-2.3333,70.667 7.3677,204.213 12,188 C18,167 22,117.5 22,73 Z" id="Path" fill="#4A516D" fill-rule="nonzero" mask="url(#mask-8)"></path>
                    </g>
                    <path d="M373.073,141.038 C371.453,140.228 366.322,138.675 363.959,138 C357.884,142.557 349.276,200.885 351.301,233.695 C353.327,266.504 363.959,311.668 371.048,327.87 C371.723,325.508 373.073,319.972 373.073,316.731 C373.073,312.681 366.069,261.501 369.529,228.632 C372.567,199.771 375.099,158.253 382.693,146.101 C380.162,144.751 374.693,141.848 373.073,141.038 Z" id="Path" fill="#FFFFFF" fill-rule="nonzero"></path>
                    <g id="Clipped" transform="translate(352.000000, 138.000000)">
                        <mask id="mask-10" fill="white">
                            <use xlink:href="#path-9"></use>
                        </mask>
                        <g id="Path"></g>
                        <path d="M11.455,73.923 C11.455,37.873 18.037,12.321 22.594,1.013 L38.796,3.038 C36.096,71.56 26.272,206.795 21.581,190.377 C15.505,169.111 11.455,118.986 11.455,73.923 Z" id="Path" fill="#4A516D" fill-rule="nonzero" mask="url(#mask-10)"></path>
                    </g>
                    <path d="M171,144.541 C171,132.092 181.092,122 193.541,122 L284.459,122 C296.908,122 307,132.092 307,144.541 C307,177.379 280.379,204 247.541,204 L230.459,204 C197.621,204 171,177.379 171,144.541 Z" id="Path" fill="#EBBAAA" fill-rule="nonzero"></path>
                    <path d="M183.059,203.139 C172.259,178.739 171.058,138.639 175.558,121.639 C165.058,119.14 154.725,124.639 153.558,126.639 C149.059,141.64 151.149,185.927 157.559,204.64 C169.5,239.5 223.5,282.5 242,290.5 L260.5,277.5 C246.5,266.5 193.859,227.539 183.059,203.139 Z" id="Path" fill="#FFFFFF" fill-rule="nonzero"></path>
                    <g id="Clipped" transform="translate(151.000000, 121.000000)">
                        <mask id="mask-12" fill="white">
                            <use xlink:href="#path-11"></use>
                        </mask>
                        <g id="Path"></g>
                        <path d="M24.001,91 C12.001,67.4 9.501,28.5 14.5,-4.5 L29.501,-2.5 L40.501,78 L126,155.5 L110.5,170 C92.5,158.5 36.001,114.6 24.001,91 Z" id="Path" fill="#4A516D" fill-rule="nonzero" mask="url(#mask-12)"></path>
                    </g>
                    <path d="M299,203.139 C309.8,178.739 311.001,138.639 306.501,121.639 C317.001,119.14 327.334,124.639 328.501,126.639 C333,141.64 331.5,186.14 324.5,204.64 C311.616,238.686 277.667,267.639 260.5,277.639 L241,262.639 C255.833,252.973 288.2,227.539 299,203.139 Z" id="Path" fill="#FFFFFF" fill-rule="nonzero"></path>
                    <g id="Clipped" transform="translate(241.000000, 121.000000)">
                        <mask id="mask-14" fill="white">
                            <use xlink:href="#path-13"></use>
                        </mask>
                        <g id="Path"></g>
                        <path d="M66.058,91 C78.058,67.4 80.557,28.5 75.559,-4.5 L60.558,-2.5 L49.558,78 L-9.942,140.5 L1.559,154 C19.559,142.5 54.058,114.6 66.058,91 Z" id="Path" fill="#4A516D" fill-rule="nonzero" mask="url(#mask-14)"></path>
                    </g>
                    <polygon id="Path-Copy" fill="#FFFFFF" fill-rule="nonzero" points="160.5 362 151 358 156 380.5 170.5 386.5 175.5 349 178 369 190 373.5 197 343.5 197 360.5 207.5 365 212.5 344.5 207.5 341 207.5 315 194 308 186 340 184 322 169.5 316.5"></polygon>
                    <path d="M254.499,330.5 C256.099,324.5 266.833,317.333 271.999,314.5 L282,320 L281,354.5 C280.5,356.167 279,360.1 277,362.5 C275,364.9 269.5,367.167 267,368 L257.499,360.5 C259.333,360 263.4,358.8 265,358 C266.6,357.2 269.333,354.667 270.5,353.5 L271.999,326.5 C269,327.833 263,331.6 263,336 C263,340.4 265,342.833 266,343.5 L266,350.5 C264.333,350 260.299,348.5 257.499,346.5 C253.999,344 252.499,338 254.499,330.5 Z" id="Path-Copy-2" fill="#FFFFFF" fill-rule="nonzero"></path>
                    <polygon id="Path-Copy-3" fill="#FFFFFF" fill-rule="nonzero" points="227.5 403.5 254 386 254 476.5 237 476.5 237 415 227.5 421"></polygon>
                    <polygon id="Path-Copy-4" fill="#FFFFFF" fill-rule="nonzero" points="286 352.5 286 316 297.5 324.5 297.5 360.5"></polygon>
                    <path d="M303.5,335 C307.1,328.2 315.667,325.833 319.5,325.5 L325,335 C323.333,335.167 319.4,335.9 317,337.5 C314,339.5 312.5,345 314.5,351 C316.1,355.8 323.833,356.667 327.5,356.5 L327.5,368.5 C326.333,368.833 321.7,368.7 312.5,365.5 C301,361.5 299,343.5 303.5,335 Z" id="Path-Copy-5" fill="#FFFFFF" fill-rule="nonzero"></path>
                    <polygon id="Path-Copy-6" fill="#FFFFFF" fill-rule="nonzero" points="299.5 296 298.5 283 291 293.5 277 289.5 287 301 278.5 312.5 292.5 307.5 299.5 319 299.5 304.5 313 300"></polygon>
                    <polygon id="Path-Copy-7" fill="#FFFFFF" fill-rule="nonzero" points="226.5 326.5 231.5 308.5 238.5 326.5 262 324 243.5 339.5 253.5 360.5 234.5 346.5 218 360.5 223 339.5 201 326.5"></polygon>
                    <path d="M11.8910487,356.343718 C14.7387847,336.108584 33.4511481,322.013313 53.6862821,324.861049 C72.9096595,327.566398 86.5918105,344.589573 85.4703896,363.634226 L85.447,363.982 L85.6944668,364.035958 C87.1039744,364.333725 88.7316114,364.602073 90.5707147,364.826821 L91.0775263,364.887025 C110.485251,367.127098 141.762185,363.922748 191.552836,355.071175 C211.671921,351.494488 230.881139,364.904752 234.457825,385.023836 C238.034512,405.142921 224.624248,424.352139 204.505164,427.928825 L199.449187,428.820208 C145.547984,438.241133 110.630711,441.635177 82.5926487,438.398975 C61.2239796,435.932566 43.6862203,429.394677 30.4253754,416.516995 C14.4943724,401.046308 8.58855498,379.81022 11.8910487,356.343718 Z" id="Path" fill="#F8CCBE" fill-rule="nonzero"></path>
                    <path d="M556.309627,433.327582 C565.326627,428.684582 572.974627,429.963582 581.579627,446.676582 C590.185627,463.389582 591.270627,483.492582 574.941627,491.900582 C558.612627,500.307582 535.560627,512.681582 526.954627,495.968582 C518.349627,479.254582 539.980627,441.735582 556.309627,433.327582 Z" id="Path" fill="#EBBAAA" fill-rule="nonzero"></path>
                </g>
                <g id="hand" transform="translate(49.500300, 0.500000)">
                    <path d="M317.2667,318.033 C349.9987,318.033 376.5327,291.499 376.5327,258.767 C376.5327,226.035 349.9987,199.5 317.2667,199.5 C284.5347,199.5 257.9997,226.035 257.9997,258.767 C257.9997,291.499 284.5347,318.033 317.2667,318.033 Z" id="Path" fill="#EBBAAA" fill-rule="nonzero"></path>
                    <path d="M59.2667,321.033 C26.5345,321.033 -1.13686838e-13,294.499 -1.13686838e-13,261.767 C-1.13686838e-13,229.035 26.5345,202.5 59.2667,202.5 C91.9987,202.5 118.5327,229.035 118.5327,261.767 C118.5327,294.499 91.9987,321.033 59.2667,321.033 Z" id="Path" fill="#EBBAAA" fill-rule="nonzero"></path>
                    <path d="M35.796,176.517 C33.7146,91.5245 102.0447,21.5 187.0637,21.5 C273.1737,21.5 341.9247,93.2605 338.2377,179.292 L335.2757,248.387 C334.7597,260.43 332.9997,272.388 330.0227,284.069 L313.0867,350.529 C305.6927,379.545 286.6407,404.219 260.4377,418.711 C215.7767,443.413 160.9537,442.705 116.6787,417.318 C92.9287,403.7 74.8677,381.545 66.5127,355.473 L45.6711,290.438 C40.583,274.561 37.7925,258.038 37.3843,241.37 L35.796,176.517 Z" id="Path" fill="#F4D4C9" fill-rule="nonzero"></path>
                    <path d="M288.087221,196.614327 C294.642108,195.636518 300.748565,200.157634 301.726373,206.712521 C302.689139,213.166564 298.320876,219.185868 291.929255,220.302919 L291.628179,220.351673 L234.533179,228.868673 C227.978292,229.846482 221.871835,225.325366 220.894027,218.770479 C219.931261,212.316436 224.299524,206.297132 230.691145,205.180081 L230.992221,205.131327 L288.087221,196.614327 Z" id="Path" fill="#393939" fill-rule="nonzero"></path>
                    <path d="M75.8793499,206.843518 C77.1607766,200.445118 83.3104406,196.262371 89.7023989,197.377487 L90.0021818,197.43365 L146.420182,208.73265 C152.918557,210.034099 157.131499,216.357106 155.83005,222.855482 C154.548623,229.253882 148.398959,233.436629 142.007001,232.321513 L141.707218,232.26535 L85.2892182,220.96635 C78.7908425,219.664901 74.577901,213.341894 75.8793499,206.843518 Z" id="Path" fill="#393939" fill-rule="nonzero"></path>
                    <path d="M179.717769,261.308938 L194.507631,269.691062 C189.891892,277.835315 187.260296,286.541021 187.543645,292.473213 C187.752566,296.84717 188.915807,298.176029 193.040453,298.227434 L193.2967,298.229 L193.2967,315.229 C179.427263,315.229 171.189782,306.406492 170.563005,293.284287 C170.11546,283.914495 173.511293,272.471918 179.370292,261.928103 L179.717769,261.308938 Z" id="Path" fill="#EBBAAA" fill-rule="nonzero"></path>
                    <path d="M325.9987,58.5032 C336.4127,73.9218 355.5247,162.39 335.9997,223.5 C332.4947,221.463 329.3397,184.081 320.4997,177.5 C310.5137,170.066 311.4807,123.782 301.9687,112.5 C292.4557,101.218 218.3607,103.631 187.3217,103.631 C156.2817,103.631 78.0347,98.2665 66.0187,116.6 C54.0037,134.933 58.0087,173.009 50.9997,181 C45.3924,187.393 39.0022,215.822 36.9997,223.5 C36.9996,188.244 19.841,138.029 36.9993,83.5 C43.2118,63.7568 89.6027,0 187.3217,0 C254.0007,0 262.4177,13.8453 281.4417,27.9477 C296.4607,36.8792 294.9597,40.6404 301.9687,48.6317 C305.4727,48.6317 319.6917,49.1639 325.9987,58.5032 Z" id="Path" fill="#2C2929" fill-rule="nonzero"></path>
                    <polygon id="Path" fill="#2C2929" fill-rule="nonzero" points="34.5003 140.135 45.0981 84.851 141.7217 65.0008 140.0927 118.236 88.9367 125.159 101.9317 114.678 66.6467 123.081 68.8487 111.594"></polygon>
                    <polygon id="Path" fill="#2C2929" fill-rule="nonzero" points="322.5737 153.823 329.5117 88.6876 249.1407 52.7014 229.2327 88.1339 230.1417 120.23 263.3017 115.664 271.4717 128.305 305.4157 119.59"></polygon>
                    <polygon id="Path" fill="#2C2929" fill-rule="nonzero" points="107.8007 121.459 108.8697 99.616 113.4727 48.5 282.9647 64.3003 210.8137 137.076 213.0047 125.646 190.5047 129.169 188.7737 116.514 167.0207 126.98 162.9747 120.982 132.3057 123.744 137.4487 118.602"></polygon>
                    <path d="M279.9997,17.5 C282.4997,19.3333 288.2997,24 291.4997,28 C293.1447,30.0557 294.9317,32.6046 296.4997,38 C297.2327,40.5227 295.2427,35.1454 292.4997,31 C289.6947,26.7595 281.9997,21.5 284.9997,25 C289.9997,35 305.9997,71.7 303.9997,48.5 C301.9997,25.3 287.1667,18.1667 279.9997,17.5 Z" id="Path" fill="#2C2929" fill-rule="nonzero"></path>
                    <path d="M308.9997,39.5 C303.3997,39.5 296.3327,47.1667 293.4997,51 L308.9997,57.5 L322.9997,55.5 L311.9997,51 L326.9997,53 L316.9997,46.5 L326.9997,49.5 C326.1667,48.8333 324.1997,47.3 322.9997,46.5 C321.7997,45.7 315.1667,43.5 311.9997,42.5 L318.9997,42.5 C317.9997,41.5 314.5997,39.5 308.9997,39.5 Z" id="Path" fill="#2C2929" fill-rule="nonzero"></path>
                    <path d="M277.913988,241.519079 C282.874013,241.195599 287.157141,244.954262 287.480621,249.914288 C287.798324,254.785742 284.178374,259.004256 279.349962,259.459822 L279.085412,259.480921 L233.085412,262.480921 C228.125387,262.804401 223.842259,259.045738 223.518779,254.085712 C223.201076,249.214258 226.821026,244.995744 231.649438,244.540178 L231.913988,244.519079 L277.913988,241.519079 Z" id="Path" fill="#000000" fill-rule="nonzero"></path>
                    <path d="M88.0121395,250.526971 C88.2687214,245.651915 92.359031,241.887706 97.2075323,242.002324 L97.4727295,242.01244 L144.972729,244.51244 C149.936422,244.773687 153.748507,249.009337 153.48726,253.973029 C153.230679,258.848085 149.140369,262.612294 144.291868,262.497676 L144.026671,262.48756 L96.5266705,259.98756 C91.5629779,259.726313 87.7508926,255.490663 88.0121395,250.526971 Z" id="Path" fill="#000000" fill-rule="nonzero"></path>
                    <g id="Clipped" transform="translate(143.499700, 301.500000)">
                        <mask id="mask-16" fill="white">
                            <use xlink:href="#path-15"></use>
                        </mask>
                        <g id="Path"></g>
                        <rect id="Rectangle" fill="#FFFFFF" fill-rule="nonzero" mask="url(#mask-16)" x="3.5" y="43" width="203" height="42"></rect>
                    </g>
                </g>
            </g>
        </g>
    </g>
</svg>