<?xml version="1.0" encoding="UTF-8"?>
<svg width="514px" height="1329px" viewBox="0 0 514 1329" version="1.1" xmlns="http://www.w3.org/2000/svg" xmlns:xlink="http://www.w3.org/1999/xlink">
    <!-- Generator: Sketch 55.2 (78181) - https://sketchapp.com -->
    <title>gee_me_004</title>
    <desc>Created with Sketch.</desc>
    <defs>
        <path d="M0.1138,438.38 C0.1138,396.91 33.7339,363.29 75.2069,363.29 L171.6669,363.29 C172.3049,363.29 172.8219,363.8 172.8219,364.44 L172.8219,433.68 C172.8219,439.35 168.2259,443.94 162.5559,443.94 L5.6762,443.94 C2.6042,443.94 0.1138,441.45 0.1138,438.38 Z" id="path-1"></path>
        <path d="M396.1239,438.38 C396.1239,396.91 362.5029,363.29 321.0299,363.29 L224.5699,363.29 C223.9319,363.29 223.4149,363.8 223.4149,364.44 L223.4149,433.68 C223.4149,439.35 228.0109,443.94 233.6809,443.94 L390.5609,443.94 C393.6329,443.94 396.1239,441.45 396.1239,438.38 Z" id="path-3"></path>
        <circle id="path-5" cx="42.0418" cy="42.3918884" r="42.0418"></circle>
    </defs>
    <g id="GEE!-ME" stroke="none" stroke-width="1" fill="none" fill-rule="evenodd">
        <g id="gee_me_004" transform="translate(-341.000000, -136.000000)">
            <g transform="translate(321.000000, 136.000000)">
                <g id="lower-limb" transform="translate(84.266100, 885.000000)">
                    <polygon id="Path" fill="#404B62" fill-rule="nonzero" points="49.9169 25.518 171.0579 35.784 171.0579 375.59 83.3079 375.59"></polygon>
                    <ellipse id="Oval" fill="#404B62" fill-rule="nonzero" cx="188.5139" cy="55.567" rx="116.6" ry="55.2317"></ellipse>
                    <polygon id="Path" fill="#404B62" fill-rule="nonzero" points="197.7499 35.784 321.9699 35.784 321.9699 375.59 231.9899 375.59"></polygon>
                    <polygon id="Path" fill="#8C8379" fill-rule="nonzero" points="71.3869 303.73 170.9689 303.73 170.9689 384.83 81.5009 384.83"></polygon>
                    <polygon id="Path" fill="#8C8379" fill-rule="nonzero" points="327.1039 298.6 221.3619 294.49 226.4949 375.59 324.1759 375.59"></polygon>
                    <mask id="mask-2" fill="white">
                        <use xlink:href="#path-1"></use>
                    </mask>
                    <use id="Path" fill="#CEB56F" fill-rule="nonzero" xlink:href="#path-1"></use>
                    <path d="M20.1449,393.05 C7.1956,385.73 12.2741,400.23 0.6391,406.39 L-24,453.62 L172.0839,453.62 C176.8749,446.77 192.5379,422.58 178.7569,417.69 C146.9319,406.39 110.4869,428.47 92.0079,427.44 C73.5289,426.41 20.6309,434.11 23.7379,417.69 C27.3309,398.69 31.9509,399.72 20.1449,393.05 Z" id="Path" fill="#B69F62" fill-rule="nonzero" mask="url(#mask-2)"></path>
                    <ellipse id="Oval" fill="#B69F62" fill-rule="nonzero" mask="url(#mask-2)" transform="translate(149.950900, 411.380000) rotate(-25.000000) translate(-149.950900, -411.380000) " cx="149.9509" cy="411.38" rx="34.1391" ry="20.1662"></ellipse>
                    <path d="M55.3768224,364.416892 C52.6692415,363.649402 50.4354461,366.616071 51.9213154,369.006098 L59.2582599,380.807603 L35.9899036,373.183263 C33.1743874,372.260703 30.8074989,375.456848 32.5110969,377.880895 L45.8570969,396.870895 C46.8351351,398.262544 48.756146,398.597841 50.1477948,397.619803 C51.5394436,396.641765 51.8747413,394.720754 50.8967031,393.329105 L42.8806709,381.923107 L65.3838964,389.296737 C68.1166178,390.192167 70.476787,387.186098 68.9584846,384.743902 L61.3551392,372.51389 L84.4949776,379.073108 C86.4610332,379.630406 88.41475,378.153516 88.41475,376.11 C88.41475,371.287461 85.3986017,367.516939 79.8830781,363.379877 C78.8028495,362.569623 75.3808359,360.173952 74.864002,359.786264 C73.5033182,358.765585 71.5728426,359.041214 70.552164,360.401898 C69.5314855,361.762582 69.8071142,363.693057 71.167798,364.713736 C71.792371,365.182242 75.214483,367.577981 76.1870181,368.307457 C77.6033062,369.369781 78.7692239,370.365821 79.6873354,371.30795 L55.3768224,364.416892 Z" id="Path" fill="#EED99F" fill-rule="nonzero" mask="url(#mask-2)"></path>
                    <path d="M81.22875,350.44 C81.22875,351.392979 81.2394165,352.190259 81.266788,353.663028 L81.2682158,353.72264 C81.2959756,355.212904 81.3043613,355.836798 81.301738,356.588603 C81.2959308,358.667576 81.1770495,360.100818 80.8683901,361.279817 C80.5141583,362.63325 79.9073214,363.595465 78.9678932,364.25394 C77.9456318,364.968808 76.5110707,365.31985 74.5559,365.31985 C70.4756952,365.31985 65.6124516,363.804851 61.824889,361.283511 C57.5522426,358.438408 55.05005,354.651214 55.05005,350.44 C55.05005,345.880294 56.158478,341.911886 58.2298259,339.092058 C60.3922089,336.134953 63.523706,334.53015 67.3689,334.53015 C75.2613048,334.53015 81.22875,341.316344 81.22875,350.44 Z M75.1420687,356.569256 C75.1444837,355.876954 75.1364687,355.280632 75.110012,353.856972 L75.1085842,353.79736 C75.0801077,352.268623 75.06905,351.442105 75.06905,350.44 C75.06905,344.554614 71.6705668,340.68985 67.3689,340.68985 C65.4977135,340.68985 64.2096234,341.34996 63.198051,342.733294 C61.9629299,344.414733 61.20975,347.111277 61.20975,350.44 C61.20975,352.344984 62.5411005,354.36005 65.238558,356.156254 C68.0290928,358.013883 71.7086834,359.16015 74.5559,359.16015 C74.7261053,359.16015 74.879421,359.156082 75.0163029,359.148771 C75.0951191,358.562209 75.1388428,357.723957 75.1420687,356.569256 Z" id="Path" fill="#EED99F" fill-rule="nonzero" mask="url(#mask-2)"></path>
                    <path d="M79.2494578,363.78993 C79.3162646,363.979729 79.3351156,364.033285 79.4599253,364.24501 C79.4790635,364.285086 79.499641,364.328103 79.5217942,364.374414 L79.5829409,364.472132 L79.6419717,364.55465 C80.1279938,365.253614 80.9310574,365.870953 82.2135888,366.44286 C84.9808382,367.672751 88.7297499,368.127043 92.0519833,367.590446 C95.8176979,366.961344 98.6375266,365.181563 99.8908559,362.376336 C101.255441,359.303702 101.686915,356.309117 101.120538,353.793517 C100.532823,351.166849 98.8874719,349.141299 96.2829879,347.977933 C90.9300106,345.598149 84.8510704,348.33558 82.1236898,354.456475 C81.8504564,355.069698 81.7099064,355.373228 81.1290409,356.615331 L81.1013186,356.676138 C81.0282286,356.833851 80.7258077,357.484313 80.6621531,357.621914 C80.4898877,357.994298 80.3594572,358.281233 80.2372317,358.558797 C79.6245406,359.947562 79.2760878,360.94747 79.1335981,361.828024 C79.0539473,362.325811 79.0436611,362.768908 79.100796,363.177015 L79.1308586,363.354008 C79.1419894,363.414421 79.1466625,363.439784 79.1680378,363.515224 C79.1889261,363.610477 79.2077976,363.679276 79.2439519,363.771553 C79.2457525,363.777563 79.2475876,363.783688 79.2494578,363.78993 Z M79.737491,364.688174 L80.0527295,365.033379 L80.888449,365.593792 L82.1629,362.79 L79.6419717,364.55465 L79.737491,364.688174 Z M93.7757568,353.60427 C94.5917878,353.968778 94.9450574,354.40368 95.1103658,355.142488 C95.3629565,356.264397 95.1216621,357.939066 94.2641445,359.869949 C93.9594332,360.551941 92.9363836,361.197656 91.0533756,361.512255 C89.3381647,361.789254 87.3695231,361.647405 85.8038609,361.202661 C85.8264402,361.150697 85.8497199,361.097528 85.8737096,361.043151 C85.9788743,360.804333 86.094951,360.548975 86.2526469,360.208086 C86.3128875,360.077864 86.6157124,359.426534 86.7054481,359.232435 L86.7274814,359.183862 C87.3074544,357.94444 87.4555097,357.624702 87.7501183,356.963507 C89.152957,353.815218 91.6852544,352.674893 93.7757568,353.60427 Z" id="Path" fill="#EED99F" fill-rule="nonzero" mask="url(#mask-2)"></path>
                    <mask id="mask-4" fill="white">
                        <use xlink:href="#path-3"></use>
                    </mask>
                    <use id="Path" fill="#CEB56F" fill-rule="nonzero" xlink:href="#path-3"></use>
                    <path d="M376.0919,393.05 C389.0409,385.73 383.9629,400.23 395.5979,406.39 L420.2369,453.62 L224.1529,453.62 C219.3619,446.77 203.6989,422.58 217.4799,417.69 C249.3049,406.39 285.7499,428.47 304.2289,427.44 C322.7079,426.41 375.6059,434.11 372.4989,417.69 C368.9059,398.69 364.2859,399.72 376.0919,393.05 Z" id="Path" fill="#B69F62" fill-rule="nonzero" mask="url(#mask-4)"></path>
                    <ellipse id="Oval" fill="#B69F62" fill-rule="nonzero" mask="url(#mask-4)" transform="translate(246.286900, 411.380000) scale(-1, 1) rotate(-24.999981) translate(-246.286900, -411.380000) " cx="246.2869" cy="411.38" rx="34.1391028" ry="20.1662017"></ellipse>
                    <path d="M327.279315,384.743902 C325.761013,387.186098 328.121182,390.192167 330.853904,389.296737 L353.357129,381.923107 L345.341097,393.329105 C344.363059,394.720754 344.698356,396.641765 346.090005,397.619803 C347.481654,398.597841 349.402665,398.262544 350.380703,396.870895 L363.726703,377.880895 C365.430301,375.456848 363.063413,372.260703 360.247896,373.183263 L336.97954,380.807603 L344.316485,369.006098 C345.802347,366.616081 343.568578,363.649421 340.861003,364.416885 L316.549485,371.308004 C317.467822,370.365678 318.634081,369.369433 320.050823,368.306898 C321.023856,367.577138 324.445912,365.181766 325.069714,364.713952 C326.430517,363.693432 326.706371,361.762989 325.685852,360.402186 C324.665332,359.041383 322.734889,358.765529 321.374086,359.786048 C320.857907,360.173151 317.435754,362.568591 316.355051,363.379102 C310.83871,367.516274 307.82205,371.287068 307.82205,376.11 C307.82205,378.153505 309.775747,379.630393 311.741797,379.073115 L334.882714,372.513804 L327.279315,384.743902 Z" id="Path" fill="#EED99F" fill-rule="nonzero" mask="url(#mask-4)"></path>
                    <path d="M315.00905,350.44 C315.00905,351.318454 314.99892,352.099632 314.974565,353.414869 L314.969584,353.68264 L314.96905,353.78 C314.941867,355.210612 314.933288,355.834436 314.93471,356.586588 C314.940879,358.661953 315.060305,360.097868 315.367642,361.276876 C315.72322,362.635459 316.331835,363.599474 317.272667,364.255868 C318.287739,364.968214 319.725159,365.31985 321.6819,365.31985 C325.762322,365.31985 330.625644,363.804727 334.411905,361.283515 C338.684937,358.438155 341.18775,354.651048 341.18775,350.44 C341.18775,345.881737 340.078971,341.913181 338.004597,339.087449 C335.845691,336.13509 332.713217,334.53015 328.8679,334.53015 C320.975614,334.53015 315.00905,341.316206 315.00905,350.44 Z M321.094577,356.571121 C321.093097,355.879127 321.10132,355.281231 321.128216,353.83736 L321.12875,353.74 C321.130702,353.663975 321.130702,353.663975 321.133209,353.528914 C321.158221,352.178192 321.16875,351.366265 321.16875,350.44 C321.16875,344.554328 324.56655,340.68985 328.8679,340.68985 C330.739423,340.68985 332.028399,341.350264 333.035826,342.727942 C334.274491,344.415272 335.02805,347.11242 335.02805,350.44 C335.02805,352.344448 333.696208,354.359711 330.997889,356.156489 C328.208538,358.013874 324.529161,359.16015 321.6819,359.16015 C321.511435,359.16015 321.357883,359.156069 321.220798,359.148735 C321.141918,358.561276 321.097896,357.722447 321.094577,356.571121 Z" id="Path" fill="#EED99F" fill-rule="nonzero" mask="url(#mask-4)"></path>
                    <path d="M316.704521,364.386768 C316.677907,364.428283 316.654828,364.464282 316.633734,364.496556 C316.151747,365.225508 315.321253,365.863934 314.020746,366.444402 C311.257029,367.672721 307.507116,368.127053 304.168204,367.587716 C300.41956,366.961202 297.599155,365.181298 296.342748,362.369157 C294.982498,359.303641 294.551159,356.309993 295.115767,353.795723 C295.706013,351.165097 297.350549,349.140551 299.959459,347.975862 C305.306684,345.597963 311.385757,348.335642 314.11311,354.456475 C314.390517,355.079064 314.588325,355.505936 315.107184,356.611967 L315.125357,356.653829 C315.202452,356.819955 315.4971,357.45254 315.575089,357.620978 C315.74596,357.990025 315.877685,358.279739 315.99971,358.556849 C316.611959,359.944615 316.960609,360.94683 317.104069,361.833413 C317.185039,362.339472 317.196602,362.802007 317.127069,363.236587 L317.105941,363.354008 C317.099922,363.385307 317.0958,363.406742 317.090557,363.429909 C317.073272,363.574327 317.057794,363.666384 316.978975,363.817402 C316.934283,363.948499 316.90074,364.012482 316.704521,364.386768 Z M302.466403,353.602328 C301.645311,353.968887 301.292234,354.403551 301.125914,355.14481 C300.874618,356.263859 301.116047,357.93946 301.969856,359.863664 C302.277191,360.551547 303.300979,361.19764 305.166983,361.509554 C306.896386,361.788881 308.869523,361.647116 310.434032,361.202914 C310.411156,361.150248 310.38756,361.096346 310.363232,361.041203 C310.258447,360.803247 310.141478,360.545984 309.985461,360.209022 C309.909607,360.045192 309.60551,359.392343 309.532896,359.23577 L309.517404,359.199867 C308.991027,358.077718 308.783509,357.629682 308.486682,356.963507 C307.083895,353.815335 304.55173,352.674991 302.466403,353.602328 Z" id="Path" fill="#EED99F" fill-rule="nonzero" mask="url(#mask-4)"></path>
                </g>
                <g id="upper-limb" transform="translate(0.267200, 311.796112)">
                    <path d="M383.3838,12.5238884 L440.8748,0.203888436 C469.6198,88.4938884 453.1938,230.166888 440.8748,277.390888 L307.4138,211.687888 L307.4138,100.812888 L383.3838,12.5238884 Z" id="Path" fill="#1F1F20" fill-rule="nonzero"></path>
                    <rect id="Rectangle" fill="#36383A" fill-rule="nonzero" transform="translate(143.063857, 348.152664) rotate(12.000000) translate(-143.063857, -348.152664) " x="48.9893571" y="173.690664" width="188.149" height="348.924" rx="94.0745"></rect>
                    <path d="M127.2628,271.703888 C131.8278,215.755888 178.5668,172.675888 234.7008,172.675888 L318.4748,172.675888 C374.2738,172.675888 420.8498,215.258888 425.8378,270.833888 L436.7578,392.498888 C437.4478,400.179888 437.3628,407.910888 436.5038,415.574888 L417.0278,589.482888 L135.3438,589.482888 L117.5318,414.538888 C116.8208,407.560888 116.7508,400.531888 117.3208,393.540888 L127.2628,271.703888 Z" id="Path" fill="#7E8083" fill-rule="nonzero"></path>
                    <rect id="Rectangle" fill="#EBBAAA" fill-rule="nonzero" x="225.1848" y="107.998888" width="90.3423" height="118.061" rx="45.17115"></rect>
                    <rect id="Rectangle" fill="#36383A" fill-rule="nonzero" transform="translate(419.644382, 320.294346) scale(-1, 1) rotate(18.999984) translate(-419.644382, -320.294346) " x="343.006355" y="131.92728" width="153.276054" height="376.734132" rx="76.6380269"></rect>
                    <path d="M232.4708,287.656888 C232.4708,256.447888 235.5508,205.527888 217.0718,160.356888 L152.3948,160.356888 C140.7598,178.150888 116.6688,239.200888 113.3828,341.040888 C110.0978,442.881888 102.4328,560.052888 99.0106,605.907888 C113.3828,610.527888 198.0788,625.926888 245.3038,609.501888 C245.3038,543.797888 240.6838,505.299888 239.6568,408.797888 C238.9638,343.610888 232.4708,318.865888 232.4708,287.656888 Z" id="Path" fill="#36383A" fill-rule="nonzero"></path>
                    <rect id="Rectangle" fill="#424648" fill-rule="nonzero" transform="translate(122.994853, 465.757417) rotate(-67.000000) translate(-122.994853, -465.757417) " x="60.2793533" y="359.557917" width="125.431" height="212.399" rx="62.7155"></rect>
                    <path d="M171.9008,220.926888 C198.5928,201.420888 192.4328,132.124888 209.8858,132.124888 C264.8098,180.375888 256.3398,263.017888 237.6038,380.052888 C208.8588,237.352888 192.6898,250.698888 171.9008,220.926888 Z" id="Path" fill="#5A5E65" fill-rule="nonzero"></path>
                    <path d="M313.4518,283.036888 C313.4518,251.827888 315.6268,178.835888 334.1058,133.664888 L378.5898,133.664888 C396.9538,133.664888 413.2418,143.556888 416.9368,161.545888 C424.3898,197.824888 430.1438,262.144888 432.5398,336.421888 C435.8248,438.261888 441.5588,567.752888 444.9808,613.607888 C418.2888,617.714888 345.2768,630.033888 298.0528,613.607888 C298.0528,547.904888 305.2388,500.679888 306.2658,404.177888 C306.9588,338.991888 313.4518,314.246888 313.4518,283.036888 Z" id="Path" fill="#36383A" fill-rule="nonzero"></path>
                    <rect id="Rectangle" fill="#424648" fill-rule="nonzero" transform="translate(434.747699, 466.899822) rotate(-124.000000) translate(-434.747699, -466.899822) " x="372.743199" y="360.700322" width="124.009" height="212.399" rx="62.0045"></rect>
                    <path d="M374.0228,216.306888 C347.3308,196.801888 353.4898,127.504888 336.0378,127.504888 C281.1138,175.755888 289.5828,258.398888 308.3188,375.432888 C337.0638,232.732888 353.2338,246.078888 374.0228,216.306888 Z" id="Path" fill="#5A5E65" fill-rule="nonzero"></path>
                    <g id="Group-6" transform="translate(168.820800, 368.759888)">
                        <rect id="Rectangle" fill="#2B2927" fill-rule="nonzero" x="8.52651283e-14" y="8.918" width="211.483" height="132.495" rx="3.82198"></rect>
                        <rect id="Rectangle" fill="#2B2927" fill-rule="nonzero" x="14.372" y="1.95399252e-14" width="35.6719" height="20.3839" rx="2.54799"></rect>
                        <rect id="Rectangle" fill="#2B2927" fill-rule="nonzero" x="57.688" y="1.95399252e-14" width="21.6579" height="20.3839" rx="2.54799"></rect>
                        <rect id="Rectangle" fill="#2B2927" fill-rule="nonzero" x="89.316" y="7.37188088e-14" width="122.167" height="14.3726" rx="2.54799"></rect>
                        <rect id="Rectangle" fill="#313131" fill-rule="nonzero" x="8.52651283e-14" y="26.754" width="211.483" height="94.2756"></rect>
                        <circle id="Oval" fill="#FF2929" fill-rule="nonzero" cx="189.825" cy="30.576" r="12.7399"></circle>
                        <circle id="Oval" stroke="#444549" stroke-width="17.8359" fill="#5D5F61" fill-rule="nonzero" cx="130.584" cy="85.995" r="50.3228"></circle>
                        <g id="Group-5" transform="translate(89.179200, 44.240112)">
                            <mask id="mask-6" fill="white">
                                <use xlink:href="#path-5"></use>
                            </mask>
                            <g id="Oval"></g>
                            <rect id="Rectangle" fill="#FFFFFF" fill-rule="nonzero" mask="url(#mask-6)" transform="translate(46.858514, 28.365000) rotate(40.000000) translate(-46.858514, -28.365000) " x="30.933564" y="-41.41" width="31.8499" height="139.55"></rect>
                            <rect id="Rectangle" fill="#FFFFFF" fill-rule="nonzero" mask="url(#mask-6)" transform="translate(29.022514, -16.225000) rotate(40.000000) translate(-29.022514, 16.225000) " x="13.097564" y="-86" width="31.8499" height="139.55"></rect>
                        </g>
                    </g>
                    <path d="M227.7358,500.122888 C228.5768,524.204888 208.9718,535.704888 184.3238,536.564888 C159.6748,537.425888 135.2118,527.465888 134.3708,503.383888 C133.5298,479.300888 145.1758,431.098888 169.8248,430.237888 C194.4728,429.377888 226.8948,476.040888 227.7358,500.122888 Z" id="Path" fill="#EBBAAA" fill-rule="nonzero"></path>
                    <path d="M323.8398,508.379888 C362.8508,492.466888 364.2698,445.684888 351.5588,425.736888 C355.6648,419.576065 362.6728,419.565888 367.4708,419.576065 C381.3908,419.609888 392.2008,429.459888 402.8888,444.729888 C417.2618,465.261888 409.5618,507.352888 379.7908,525.831888 C350.0188,544.310888 308.7868,541.216888 292.4068,527.814888 C286.7598,523.194888 280.2088,517.618888 296.1208,514.095888 C301.9088,514.344888 311.0758,513.585888 323.8398,508.379888 Z" id="Path" fill="#EBBAAA" fill-rule="nonzero"></path>
                </g>
                <g id="head" transform="translate(62.186500, -0.000006)" fill-rule="nonzero">
                    <path d="M91.4535,324.320006 L33.9633,312.000006 C19.18,394.130006 21.6438,505.005006 33.9632,552.229006 L167.4235,523.484006 L91.4535,324.320006 Z" id="Path" fill="#1F1F20"></path>
                    <path d="M119.2305,281.258006 C119.2305,312.488006 106.8405,343.799006 73.9165,343.799006 C40.9915,343.799006 2.84217094e-13,312.488006 2.84217094e-13,281.258006 C2.84217094e-13,250.028006 26.6906,224.711006 59.6155,224.711006 C92.5395,224.711006 119.2305,250.028006 119.2305,281.258006 Z" id="Path" fill="#EBBAAA"></path>
                    <path d="M287.7195,280.258006 C287.7195,311.488006 300.1085,342.799006 333.0325,342.799006 C365.9575,342.799006 406.9495,311.488006 406.9495,280.258006 C406.9495,249.028006 380.2585,223.711006 347.3345,223.711006 C314.4095,223.711006 287.7195,249.028006 287.7195,280.258006 Z" id="Path" fill="#EBBAAA"></path>
                    <path d="M60.9205,182.710006 C57.4425,99.2446059 124.1685,29.6807059 207.7055,29.6807059 C293.3875,29.6807059 360.8885,102.703006 354.1655,188.121006 L341.2355,352.412006 C335.8695,420.590006 278.9785,473.179006 210.5895,473.179006 C133.7045,473.179006 70.4965,412.550006 67.2965,335.732006 L60.9205,182.710006 Z" id="Path" fill="#EED4CC"></path>
                    <path d="M166.3075,455.021006 C160.2835,451.608006 172.0475,435.793006 176.5545,428.985006 C179.4835,427.331006 191.4805,434.211006 210.1485,435.392006 C233.4835,436.869006 234.6855,424.015006 241.3795,432.847006 C248.0735,441.679006 262.2065,451.932006 244.6895,457.073006 C217.3025,465.113006 174.5015,459.663006 166.3075,455.021006 Z" id="Path" fill="#CAC4C1"></path>
                    <path d="M174.62949,372.429499 C187.522727,378.117958 193.359364,380.061368 200.068033,380.399026 C204.607768,380.627518 208.920886,380.027444 215.576784,378.451543 C216.98485,378.118159 231.828947,374.333067 238.014391,372.880831 C242.154221,371.90887 244.722286,367.764945 243.750325,363.625115 C242.778364,359.485285 238.634439,356.91722 234.494609,357.889181 C228.1231,359.385102 213.260272,363.17497 212.028821,363.466538 C206.66761,364.735898 203.62473,365.159247 200.842124,365.019194 C196.623279,364.806853 192.051837,363.284712 180.84551,358.340513 C176.954944,356.624006 172.409514,358.38643 170.693007,362.276996 C168.9765,366.167562 170.738924,370.712992 174.62949,372.429499 Z" id="Path" fill="#C99584"></path>
                    <path d="M158.461787,339.895293 C155.133315,343.223766 151.667852,347.974502 149.605731,351.508338 L156.699269,355.647674 C158.43348,352.675774 161.500025,348.471907 164.269213,345.702719 L158.461787,339.895293 Z" id="Path" fill="#CAC3C1"></path>
                    <path d="M175.016906,348.456247 C176.298761,346.371039 177.505088,344.73255 178.58782,343.650112 L172.78118,337.8419 C171.163815,339.458828 169.609345,341.57018 168.020267,344.155151 C166.662232,346.364281 163.66983,351.945159 163.924731,351.508338 L171.017268,355.64709 C171.128257,355.422697 173.865631,350.329037 175.016906,348.456247 Z" id="Path" fill="#CAC3C1"></path>
                    <path d="M253.148269,351.508338 C253.403801,351.94624 250.410398,346.364292 249.052264,344.155088 C247.463233,341.570298 245.909015,339.459095 244.292213,337.842293 L238.484787,343.649719 C239.56736,344.732291 240.773702,346.370949 242.055701,348.456309 C243.206913,350.328922 245.944131,355.421511 246.055741,355.647085 L253.148269,351.508338 Z" id="Path" fill="#CAC3C1"></path>
                    <path d="M226.164787,345.702719 C227.626159,347.164091 228.83498,348.670584 229.921248,350.306347 C230.344768,350.944108 230.737823,351.582255 231.166518,352.317169 C231.374009,352.672871 232.056029,353.869784 232.193979,354.106385 L239.289021,349.969627 C239.178609,349.780257 238.496026,348.582357 238.2607,348.178937 C237.757338,347.316021 237.283428,346.546601 236.763002,345.762915 C235.387865,343.692156 233.839805,341.762885 231.972213,339.895293 L226.164787,345.702719 Z" id="Path" fill="#CAC3C1"></path>
                    <path d="M125.562627,213.692414 L162.905627,216.772414 C168.556278,217.238472 173.51485,213.035529 173.980908,207.384879 C174.446966,201.734228 170.244023,196.775656 164.593373,196.309598 L127.250373,193.229598 C121.599722,192.76354 116.64115,196.966483 116.175092,202.617133 C115.709034,208.267784 119.911977,213.226356 125.562627,213.692414 Z" id="Path" fill="#787574"></path>
                    <path d="M283.075899,193.974575 L245.732899,197.053575 C240.082236,197.519483 235.879162,202.477943 236.345069,208.128606 C236.810977,213.77927 241.769437,217.982344 247.420101,217.516437 L284.763101,214.437437 C290.413764,213.971529 294.616838,209.013069 294.150931,203.362405 C293.685023,197.711742 288.726563,193.508668 283.075899,193.974575 Z" id="Path" fill="#787574"></path>
                    <path d="M134.903426,268.325652 L153.040426,269.960652 C159.816764,270.57152 165.805278,265.573419 166.416146,258.79708 C167.027014,252.020742 162.028913,246.032228 155.252574,245.42136 L137.115574,243.78636 C130.339236,243.175492 124.350722,248.173593 123.739854,254.949932 C123.128986,261.72627 128.127087,267.714784 134.903426,268.325652 Z" id="Path" fill="#000000"></path>
                    <path d="M275.107016,243.314862 L256.936016,244.993862 C250.161059,245.619867 245.17635,251.619533 245.802356,258.39449 C246.428361,265.169447 252.428027,270.154156 259.202984,269.52815 L277.373984,267.84915 C284.148941,267.223144 289.13365,261.223479 288.507644,254.448522 C287.881639,247.673565 281.881973,242.688856 275.107016,243.314862 Z" id="Path" fill="#000000"></path>
                    <rect id="Rectangle" fill="#1F1F20" transform="translate(56.112774, 266.623373) rotate(-4.000000) translate(-56.112774, -266.623373) " x="44.2774244" y="211.391873" width="23.6707" height="110.463" rx="11.83535"></rect>
                    <rect id="Rectangle" fill="#1F1F20" transform="translate(352.107710, 258.607201) rotate(4.000000) translate(-352.107710, -258.607201) " x="340.27236" y="194.608701" width="23.6707" height="127.997" rx="11.83535"></rect>
                    <path d="M197.024785,307.095143 C196.762481,302.68722 197.968647,295.935971 200.536056,286.763242 C201.185463,284.443072 201.909602,282.000193 202.800172,279.099878 C202.79415,279.119489 205.871579,269.24152 206.620814,266.707909 C207.970753,262.142962 208.779509,258.890792 209.151669,256.179803 L191.861331,253.806209 C191.641436,255.408022 190.999866,257.987907 189.884758,261.758749 C189.177834,264.149281 186.144583,273.885448 186.116475,273.976987 C185.186577,277.005379 184.423206,279.580609 183.729473,282.059148 C180.67122,292.985543 179.193863,301.25472 179.603104,308.131862 C180.262743,319.216839 186.511733,326.886256 197.7575,326.886256 L212.6435,326.886256 L212.6435,309.433756 L197.7575,309.433756 C197.603312,309.433756 197.47557,309.429272 197.372089,309.422627 C197.245036,309.015353 197.093362,308.247549 197.024785,307.095143 Z" id="Path" fill="#EBBAAA"></path>
                    <path d="M206.4825,59.4526059 C135.8515,57.8100059 65.8365,152.875006 65.8365,216.525006 C54.2015,267.856006 46.3985,220.074006 23.8133,236.500006 C15.6004,211.861006 14.5057,114.890006 126.4065,26.6009059 C170.9475,-8.54122406 208.7075,-0.277929056 214.1825,8.61941594 C223.9845,24.5476059 228.2075,22.4944059 206.4825,59.4526059 Z" id="Path" fill="#1F1F20"></path>
                    <path d="M218.0495,59.4525059 C288.6815,57.8099059 344.5635,151.848006 344.5635,215.498006 C356.1985,266.829006 371.3135,226.5 396.3135,247 C396.3135,220.308006 417.9665,116.077006 301.9585,24.5476059 C257.4175,-10.5945941 217.8785,-0.278021056 212.4035,8.61932594 C202.6015,24.5475059 196.3255,22.4943059 218.0495,59.4525059 Z" id="Path" fill="#1F1F20"></path>
                    <path d="M38.4879,493.712006 C48.3435,464.145006 42.5945,400.632006 38.4879,372.571006 C68.6025,412.951006 121.8495,498.229006 93.9255,516.297006 C66.0015,534.366006 71.3395,596.373006 77.4995,625.119006 C70.6555,623.065006 53.2715,611.978006 38.4879,584.054006 C20.0088,549.149006 26.1685,530.670006 38.4879,493.712006 Z" id="Path" fill="#1F1F20"></path>
                    <path d="M137.6995,453.674006 C105.8745,439.301006 94.5815,430.061006 77.1295,404.396006 C73.7075,420.137006 75.0765,470.510006 83.2895,496.792006 C91.5025,523.073006 93.5555,578.921006 132.5665,578.921006 C132.5665,578.921006 127.4335,536.830006 137.6995,516.297006 C147.9655,495.765006 159.2075,463.387006 137.6995,453.674006 Z" id="Path" fill="#1F1F20"></path>
                    <path d="M70.5665,514.102006 C77.7215,492.588006 73.5475,446.373006 70.5665,425.955006 C92.4285,455.337006 145.6525,511.363006 125.3805,524.510006 C105.1085,537.657006 94.4155,588.803006 98.8875,609.719006 C93.9185,608.225006 81.2985,600.158006 70.5665,579.839006 C57.1515,554.441006 61.6235,540.994006 70.5665,514.102006 Z" id="Path" fill="#1F1F20"></path>
                </g>
            </g>
        </g>
    </g>
</svg>