<?xml version="1.0" encoding="UTF-8"?>
<svg width="475px" height="1351px" viewBox="0 0 475 1351" version="1.1" xmlns="http://www.w3.org/2000/svg" xmlns:xlink="http://www.w3.org/1999/xlink">
    <!-- Generator: Sketch 55.2 (78181) - https://sketchapp.com -->
    <title>gee_me_064</title>
    <desc>Created with Sketch.</desc>
    <defs>
        <rect id="path-1" x="84.9274504" y="309" width="46" height="34" rx="6"></rect>
    </defs>
    <g id="GEE!-ME" stroke="none" stroke-width="1" fill="none" fill-rule="evenodd">
        <g id="gee_me_064" transform="translate(-363.000000, -125.000000)">
            <g transform="translate(363.000000, 125.000000)">
                <g id="lower-limb" transform="translate(32.573637, 844.863000)" fill-rule="nonzero">
                    <path d="M273.611586,101.969359 C290.349482,98.3685852 306.837231,109.018327 310.438004,125.756223 C316.778797,155.230867 319.151067,203.098239 319.256066,273.294029 L319.253184,285.487913 C319.232448,296.669354 319.161945,307.935499 319.033072,321.733328 L318.381835,383.602977 C318.321241,390.721153 318.301316,395.523642 318.297917,401.092867 L318.297363,402.997 C318.297363,420.117827 304.41819,433.997 287.297363,433.997 C270.176536,433.997 256.297363,420.117827 256.297363,402.997 L256.307921,395.448959 C256.327733,389.154011 256.379932,382.556883 256.500864,370.987708 L257.012271,323.629341 C257.174663,306.761699 257.251868,293.789316 257.25917,280.45844 L257.256267,273.582514 C257.158099,208.540269 254.967822,163.420285 249.979881,139.527946 L249.824722,138.795777 C246.223948,122.057881 256.87369,105.570132 273.611586,101.969359 Z" id="Path" fill="#EBBAAA"></path>
                    <path d="M128.356914,203.426426 C129.417618,186.338488 144.129999,173.345847 161.217937,174.406551 C178.305875,175.467255 191.298516,190.179636 190.237812,207.267574 C189.202625,223.944438 188.033674,239.895065 186.649309,256.679496 L185.870092,265.901457 L181.612897,313.863989 L181.247826,318.091144 C179.891646,333.954239 179.02725,345.993692 178.458952,357.585328 L178.386489,359.095018 C177.52906,377.350128 177.461054,394.248697 178.266185,412.187017 C179.033852,429.290625 165.790954,443.778156 148.687346,444.545822 C131.583738,445.313489 117.096207,432.070591 116.328541,414.966983 C115.472617,395.896992 115.506397,377.846724 116.341325,358.691132 L116.454765,356.186133 C117.049638,343.520974 117.950596,330.727897 119.366837,314.057377 L120.204841,304.482514 C121.148632,293.951241 123.680961,265.684181 124.565393,255.117949 C126.046828,237.419386 127.277083,220.822497 128.356914,203.426426 Z" id="Path" fill="#EBBAAA"></path>
                    <path d="M195.310363,111.493 C259.094363,111.493 310.801363,87.936 310.801363,58.877 C310.801363,29.817 259.094363,6.26 195.310363,6.26 C131.527363,6.26 79.820363,29.817 79.820363,58.877 C79.820363,87.936 131.527363,111.493 195.310363,111.493 Z" id="Path" fill="#9D8A7D"></path>
                    <polygon id="Path" fill="#9D8A7D" points="71.166363 -4.54747351e-13 206.166363 -4.54747351e-13 189.426363 379.647 183.426363 397.647 186.426363 420.647 110.426363 405.647 110.426363 397.647 104.426363 392.647 106.926363 383.147"></polygon>
                    <polygon id="Path" fill="#847266" points="110.59962 403.197649 186.59962 414.697649 185.253106 423.596351 109.253106 412.096351"></polygon>
                    <polygon id="Path" fill="#9D8A7D" points="207.426363 6.648 342.883363 6.648 328.926363 369.827 328.926363 383.647 324.926363 395.147 328.926363 412.647 251.426363 420.647 251.426363 403.147 244.426363 378.487"></polygon>
                    <polygon id="Path" fill="#847266" points="325.487484 403.73594 327.365242 413.55806 259.365242 426.55806 257.487484 416.73594"></polygon>
                    <path d="M3.06036304,498.007 C2.86016304,475.057 -3.54843696,464.027 27.940063,457.007 C59.428563,449.977 78.696363,422.657 103.078363,405.507 C103.078363,405.507 110.645363,402.507 118.005363,406.507 C124.286363,409.917 123.480363,429.637 145.834363,429.437 C168.189363,429.247 170.796363,426.517 178.103363,422.667 C181.260363,413.977 188.264363,413.907 188.264363,413.907 C188.264363,413.907 198.127363,432.777 198.293363,451.717 C198.458363,470.667 198.442785,502.137 198.442785,502.137 L3.06036304,498.007 Z" id="Path" fill="#484D51"></path>
                    <path d="M22.782063,455.437 C28.873463,453.217 35.324363,451.537 47.692263,448.727 L53.813963,455.437 C53.813963,455.437 63.766263,457.507 71.736363,459.207 C79.705363,460.907 65.757363,473.007 65.757363,473.007 C65.757363,473.007 42.867263,473.507 30.426963,473.007 C17.986663,472.507 4.60616304,471.007 4.60616304,471.007 C3.05676304,469.507 1.70226304,470.687 4.60496304,464.507 C8.03406304,457.207 14.126763,458.587 22.782063,455.437 Z" id="Path" fill="#EAF4FB"></path>
                    <path d="M88.645363,456.007 C94.948363,450.837 111.636363,436.807 116.015363,434.007 C142.387363,444.007 161.797363,483.007 162.295363,485.507 C162.793363,488.007 117.366363,493.977 116.017363,489.007 C113.046363,478.077 97.123363,463.677 88.788363,456.137 L88.645363,456.007 Z" id="Path" fill="#EA503B"></path>
                    <path d="M140.705363,450.917 C134.542363,453.137 129.447363,453.307 126.399363,451.347 C118.542363,446.217 122.604363,437.137 124.348363,433.567 C121.053363,438.027 117.783363,442.507 115.332363,447.297 C111.462363,454.787 110.197363,462.767 113.578363,467.557 C119.646363,476.197 132.194363,470.997 140.115363,466.697 L191.154363,433.567 L140.705363,450.917 Z" id="Path" fill="#EAF4FB"></path>
                    <path d="M51.326863,447.507 C57.297663,445.007 87.651363,418.507 89.641363,416.507 C90.968363,419.837 94.916363,427.107 100.091363,429.507 C106.561363,432.507 120.293363,409.667 123.479363,413.507 C125.967363,416.507 131.441363,422.007 129.450363,424.507 C127.460363,427.007 92.628363,454.007 89.643363,455.507 C86.657363,457.007 76.705363,459.007 73.719363,459.507 C70.734363,460.007 57.796263,459.007 54.810563,457.507 C51.824763,456.007 45.356063,450.007 51.326863,447.507 Z" id="Path" fill="#D2D8DD"></path>
                    <path d="M95.0482949,410.517222 C96.4233613,409.930658 98.0135769,410.569866 98.600141,411.944932 C98.8333742,412.491694 99.1411557,413.107819 99.5615375,413.875801 L99.8985309,414.481549 C100.196589,415.009814 101.417507,417.113461 101.697833,417.606399 C103.388074,420.578588 104.454259,422.825349 105.173043,425.232527 C105.775373,427.249709 103.951566,429.129106 101.945534,428.638883 L101.790903,428.596462 L90.119,425.042 L92.7429858,434.266641 C93.2849645,436.17262 91.66738,437.974189 89.7446648,437.685174 L89.5791567,437.655236 L76.912,434.975 L81.984039,443.06963 C83.1471791,444.925704 81.7394688,447.296539 79.5947225,447.212484 L79.4325132,447.201531 L66.001,445.916 L71.1589506,451.097549 C72.1695714,452.113005 72.207924,453.72934 71.2767676,454.790429 L71.1498144,454.925588 C70.1343581,455.936208 68.5180231,455.974561 67.4569345,455.043405 L67.3217755,454.916451 L56.8717755,444.416451 C55.1225053,442.658812 56.463731,439.702963 58.8852031,439.801339 L59.0482129,439.812469 L74.479,441.289 L68.9366871,432.44437 C67.696162,430.464809 69.3752308,427.977606 71.6355813,428.330279 L71.7905694,428.358764 L86.307,431.429 L83.5547402,421.747359 C82.9835978,419.73882 84.7994176,417.890453 86.7893983,418.374443 L86.9468235,418.417538 L97.787,421.718 L97.7344961,421.619735 C97.5811158,421.33577 97.4201793,421.043608 97.2512754,420.742075 L96.8621358,420.056088 C96.4528947,419.344373 95.4644738,417.639688 95.1835701,417.141826 C94.4951029,415.921617 94.0056312,414.971721 93.6205851,414.069068 C93.0340211,412.694002 93.6732285,411.103786 95.0482949,410.517222 Z" id="Path" fill="#FFFFFF"></path>
                    <path d="M58.293163,446.007 C59.785963,444.007 60.780063,443.007 62.273963,442.507 L69.240363,448.507 L64.761363,452.507 C62.439263,450.337 59.288563,448.007 58.293163,446.007 Z" id="Path" fill="#EA503B"></path>
                    <path d="M190.055363,416.507 C186.649363,425.027 177.040363,429.097 172.378363,430.317 C167.716363,431.537 167.490363,429.077 175.791363,439.987 C181.882363,447.997 188.742363,442.507 198.123363,449.517 C195.872363,430.347 192.020363,424.477 190.055363,416.507 Z" id="Path" fill="#EA503B"></path>
                    <path d="M199.463363,498.907 L198.440363,480.687 L40.592563,483.147 L1.23476304,480.247 L0.0323630363,494.227 C-0.382136964,499.047 3.23406304,503.277 8.06166304,503.607 L40.790963,505.887 L195.206363,503.487 C197.666363,503.447 199.601363,501.367 199.463363,498.907 Z" id="Path" fill="#DBE0E3"></path>
                    <path d="M197.381126,479.516395 C199.032792,479.385373 200.477946,480.618098 200.608968,482.269763 C200.73999,483.921429 199.507265,485.366583 197.8556,485.497605 L196.52463,485.596051 C191.754735,485.925812 184.444357,486.207619 173.198612,486.521336 L125.444635,487.742931 C120.656283,487.870605 116.322033,487.989407 112.965658,488.086963 L110.980752,488.145638 C74.8920291,489.233467 25.1339293,487.820525 1.76898717,485.492215 C0.120298498,485.327924 -1.08304327,483.858213 -0.918751882,482.209524 C-0.754460499,480.560835 0.715250226,479.357494 2.3639389,479.521785 L3.78093301,479.658775 C26.9496066,481.833007 73.7169586,483.152507 108.633443,482.210213 L120.650759,481.869769 L171.010234,480.579251 L179.140991,480.344058 C187.867161,480.072079 193.626813,479.814214 197.381126,479.516395 Z" id="Path" fill="#F7FBFF"></path>
                    <path d="M438.175363,497.007 C438.375363,474.057 444.784363,463.027 413.295363,456.007 C381.807363,448.977 362.539363,421.657 338.157363,404.507 C338.157363,404.507 330.589363,401.507 323.229363,405.507 C316.949363,408.917 317.755363,428.637 295.400363,428.437 C273.046363,428.247 270.439363,425.517 263.132363,421.667 C259.975363,412.977 252.971363,412.907 252.971363,412.907 C252.971363,412.907 243.108363,431.777 242.942363,450.717 C242.777363,469.667 242.792008,501.137 242.792008,501.137 L438.175363,497.007 Z" id="Path" fill="#484D51"></path>
                    <path d="M418.453363,454.437 C412.362363,452.217 405.911363,450.537 393.543363,447.727 L387.421363,454.437 C387.421363,454.437 377.469363,456.507 369.499363,458.207 C361.530363,459.907 375.478363,472.007 375.478363,472.007 C375.478363,472.007 398.368363,472.507 410.808363,472.007 C423.249363,471.507 436.629363,470.007 436.629363,470.007 C438.178363,468.507 439.533363,469.687 436.630363,463.507 C433.201363,456.207 427.108363,457.587 418.453363,454.437 Z" id="Path" fill="#EAF4FB"></path>
                    <path d="M352.590363,455.007 C346.287363,449.837 329.599363,435.807 325.220363,433.007 C298.848363,443.007 279.438363,482.007 278.940363,484.507 C278.442363,487.007 323.869363,492.977 325.218363,488.007 C328.189363,477.077 344.112363,462.677 352.447363,455.137 L352.590363,455.007 Z" id="Path" fill="#EA503B"></path>
                    <path d="M300.529363,449.917 C306.693363,452.137 311.788363,452.307 314.836363,450.347 C322.693363,445.217 318.631363,436.137 316.887363,432.567 C320.182363,437.027 323.452363,441.507 325.903363,446.297 C329.773363,453.787 331.038363,461.767 327.656363,466.557 C321.589363,475.197 309.041363,469.997 301.120363,465.697 L250.081363,432.567 L300.529363,449.917 Z" id="Path" fill="#EAF4FB"></path>
                    <path d="M389.908363,446.507 C383.938363,444.007 353.584363,417.507 351.594363,415.507 C350.267363,418.837 346.319363,426.107 341.143363,428.507 C334.674363,431.507 320.942363,408.667 317.756363,412.507 C315.268363,415.507 309.794363,421.007 311.784363,423.507 C313.775363,426.007 348.606363,453.007 351.592363,454.507 C354.577363,456.007 364.530363,458.007 367.515363,458.507 C370.501363,459.007 383.439363,458.007 386.425363,456.507 C389.410363,455.007 395.879363,449.007 389.908363,446.507 Z" id="Path" fill="#D2D8DD"></path>
                    <path d="M342.635585,410.944932 C343.222149,409.569866 344.812365,408.930658 346.187431,409.517222 C347.562498,410.103786 348.201705,411.694002 347.615141,413.069068 C347.230095,413.971721 346.740623,414.921617 346.052156,416.141826 L344.243833,419.282601 C344.066859,419.593799 343.898058,419.895038 343.737019,420.187493 L343.448,420.718 L354.288903,417.417538 C356.286517,416.809288 358.168203,418.590558 357.721157,420.589162 L357.680986,420.747359 L354.927,430.429 L369.445157,427.358764 C371.730721,426.875277 373.488148,429.307746 372.379124,431.308653 L372.299039,431.44437 L366.756,440.289 L382.187513,438.812469 C384.656004,438.57625 386.08892,441.488753 384.476012,443.297547 L384.363951,443.416451 L373.913951,453.916451 C372.85939,454.976058 371.145518,454.980148 370.085912,453.925588 C369.070455,452.914967 369.024388,451.298833 369.950469,450.233312 L370.076776,450.097549 L375.232,444.916 L361.803213,446.201531 C359.622761,446.410186 358.133499,444.089711 359.169243,442.209754 L359.251687,442.06963 L364.323,433.975 L351.656569,436.655236 C349.717932,437.065334 348.031442,435.3281 348.45153,433.429709 L348.49274,433.266641 L351.115,424.042 L339.444824,427.596462 C337.430922,428.209671 335.541709,426.396034 336.021098,424.387386 L336.062683,424.232527 C336.696904,422.108546 337.601593,420.109458 338.966799,417.626728 L339.672853,416.370729 C340.092721,415.64029 341.074203,413.947665 341.337195,413.481549 L341.674189,412.875801 C342.09457,412.107819 342.402352,411.491694 342.635585,410.944932 Z" id="Path" fill="#FFFFFF"></path>
                    <path d="M382.942363,445.007 C381.449363,443.007 380.455363,442.007 378.961363,441.507 L371.994363,447.507 L376.474363,451.507 C378.796363,449.337 381.947363,447.007 382.942363,445.007 Z" id="Path" fill="#EA503B"></path>
                    <path d="M251.180363,415.507 C254.586363,424.027 264.195363,428.097 268.857363,429.317 C273.519363,430.537 273.745363,428.077 265.444363,438.987 C259.353363,446.997 252.493363,441.507 243.112363,448.517 C245.363363,429.347 249.215363,423.477 251.180363,415.507 Z" id="Path" fill="#EA503B"></path>
                    <path d="M241.772363,497.907 L242.795363,479.687 L400.643363,482.147 L440.000363,479.247 L441.203363,493.227 C441.617363,498.047 438.001363,502.277 433.173363,502.607 L400.444363,504.887 L246.029363,502.487 C243.568363,502.447 241.634363,500.367 241.772363,497.907 Z" id="Path" fill="#DBE0E3"></path>
                    <path d="M438.871897,478.521784 C440.520587,478.357498 441.990293,479.560845 442.154579,481.209534 C442.318865,482.858224 441.115518,484.32793 439.466829,484.492216 L438.033534,484.630803 C414.360281,486.853131 366.608179,488.184357 331.341668,487.177524 L319.951272,486.855923 C299.984693,486.317598 267.592109,485.527507 269.451415,485.577082 L261.218193,485.34322 C252.183154,485.06694 246.257352,484.805175 242.380126,484.497605 C240.728461,484.366583 239.495736,482.921429 239.626758,481.269763 C239.75778,479.618098 241.202934,478.385373 242.8546,478.516395 L244.128526,478.610401 C248.441031,478.907285 255.055333,479.16844 265.029826,479.453028 L270.56434,479.601101 C277.110788,479.758422 313.111889,480.645182 328.417657,481.0888 L330.435754,481.148362 C366.275811,482.228722 415.777332,480.823071 438.871897,478.521784 Z" id="Path" fill="#F7FBFF"></path>
                </g>
                <g id="upper-limb" transform="translate(0.217360, 464.200244)">
                    <path d="M52.5516098,140.096999 C62.1358252,122.049476 84.5357745,115.18861 102.583297,124.772826 C120.630819,134.357041 127.491685,156.75699 117.90747,174.804513 C105.35061,198.449663 95.5706106,236.745887 91.8279422,276.875162 L91.7163793,278.091749 C88.1714039,317.420313 91.0332587,352.82385 98.6258675,371.338595 L98.8573929,371.894465 C106.81929,390.714094 98.0173597,412.424811 79.1977306,420.386709 C60.3781015,428.348606 38.6673845,419.546675 30.7054871,400.727046 C4.17493028,338.016462 15.7722032,209.354329 52.5516098,140.096999 Z" id="Path" fill="#EBBAAA" fill-rule="nonzero"></path>
                    <path d="M381.151768,77.8711831 C400.724504,71.9993625 421.351392,83.1061484 427.223213,102.678884 C459.545265,210.41906 466.322505,359.386879 444.391871,417.39514 C437.165566,436.50929 415.812407,446.146293 396.698256,438.919987 C377.775247,431.765944 368.140791,410.766173 374.961671,391.800451 L375.173409,391.226372 C381.270744,375.098437 384.583768,333.814062 382.380496,285.384819 C379.866747,230.131088 370.863246,172.339888 356.344067,123.942627 C350.472247,104.369892 361.579033,83.7430037 381.151768,77.8711831 Z" id="Path" fill="#EBBAAA" fill-rule="nonzero"></path>
                    <path d="M76.78214,71.9657557 C76.78214,49.3627557 128.28264,26.2947557 164.28264,15.3247557 L211.28264,0.325755664 C217.82764,0.127755664 262.79864,1.92575566 269.28264,2.78875566 L342.28264,26.2947557 C376.87364,30.8947557 363.26564,66.8917557 359.78264,100.310756 L353.78264,222.310756 L342.28264,396.810756 C342.35464,398.555756 310.09664,426.480756 308.28264,426.391968 L170.78264,418.004756 L96.28214,414.782756 C94.54024,414.693756 93.63784,409.792756 93.78214,408.117756 L103.78964,207.945756 L76.78214,71.9657557 Z" id="Path" fill="#EBBAAA" fill-rule="nonzero"></path>
                    <path d="M417.02264,46.4337557 C407.82264,37.5857557 377.52264,28.6407557 363.52264,25.2747557 C340.78364,271.309756 277.78264,288.309756 463.78264,254.309756 C463.78264,224.426756 428.52264,57.4947557 417.02264,46.4337557 Z" id="Path" fill="#DDD2C4" fill-rule="nonzero"></path>
                    <path d="M462.41164,292.687756 C466.47864,290.840756 469.38564,261.742756 470.08564,250.467756 L346.30664,263.106756 C347.30364,272.949756 349.89864,294.167756 352.31064,300.298756 C355.32564,307.963756 379.39864,309.188756 404.56564,306.653756 C429.73264,304.118756 457.32764,294.995756 462.41164,292.687756 Z" id="Path" fill="#D3C9BC" fill-rule="nonzero"></path>
                    <path d="M472.28064,291.106756 C477.28164,282.309756 472.28064,274.809756 464.78164,274.809756 L353.78164,274.809756 C354.77864,284.652756 357.36964,300.178756 359.78164,306.309756 C362.79664,313.974756 385.11364,308.844756 410.28064,306.309756 C435.44764,303.775756 469.52164,295.960756 472.28064,291.106756 Z" id="Path" fill="#DDD2C4" fill-rule="nonzero"></path>
                    <path d="M72.44044,48.8227557 C81.05264,39.9817557 109.41664,31.0437557 122.52264,27.6797557 C114.25364,141.084756 128.77764,262.777756 125.78264,274.310756 C122.03764,288.726756 69.77074,276.076756 62.28194,270.310756 C54.79304,264.543756 11.90964,287.103756 13.78194,257.310756 C15.65414,227.517756 61.67514,59.8757557 72.44044,48.8227557 Z" id="Path" fill="#DDD2C4" fill-rule="nonzero"></path>
                    <path d="M16.27764,297.105756 C12.23694,295.426756 8.48387,266.664756 7.44781,255.504756 L129.06164,263.377756 C128.39264,273.180756 126.51164,294.331756 124.34064,300.506756 C121.62664,308.224756 98.08844,310.348756 73.36264,308.781756 C48.63684,307.215756 21.32844,299.203756 16.27764,297.105756 Z" id="Path" fill="#D3C9BC" fill-rule="nonzero"></path>
                    <path d="M8.92444,284.603756 C4.59853,284.760756 3.77979,300.696756 0,306.359756 L119.58364,323.966756 C121.37564,318.709756 124.82164,307.290756 124.25864,303.666756 C123.55464,299.137756 101.31664,293.818756 77.01274,290.220756 C52.70834,286.622756 14.33194,284.405756 8.92444,284.603756 Z" id="Path" fill="#DDD2C4" fill-rule="nonzero"></path>
                    <path d="M227.52264,85.3887557 C222.52264,71.4427557 225.02264,52.2057557 225.02264,52.2057557 L202.52264,59.4197557 L175.52264,8.92475566 C144.35564,14.2147557 143.02264,16.1387557 120.52264,25.7567557 C93.68184,37.2297557 99.02264,75.7707557 95.02234,128.188756 L95.02234,289.310756 L89.52234,415.288756 L163.52264,426.349756 L243.78264,436.310756 L235.02264,101.258756 C235.02264,101.258756 232.52264,99.3347557 227.52264,85.3887557 Z" id="Path" fill="#DED4C9" fill-rule="nonzero"></path>
                    <path d="M246.52164,84.9067557 C233.52164,74.8077557 235.68864,66.7927557 238.02164,58.9377557 L242.52164,56.0527557 L275.52164,52.2057557 L306.52164,11.8097557 C306.52164,11.8097557 351.02164,17.5807557 366.02164,25.2747557 C381.02164,32.9687557 374.78264,231.310756 374.78264,231.310756 L383.78264,423.310756 L329.78264,429.310756 L230.52164,445.439756 C230.25364,425.198756 212.29664,381.649756 212.64264,354.667756 C214.01564,247.454756 220.16364,122.401756 230.52164,117.127756 C247.52164,108.471756 249.52164,87.2377557 246.52164,84.9067557 Z" id="Path" fill="#E4DBD0" fill-rule="nonzero"></path>
                    <path d="M279.52264,25.2737557 C282.96164,14.3327557 279.52264,6.51875566 278.52264,1.70975566 L306.52264,11.8087557 C306.52264,11.8087557 316.02264,23.3507557 310.02264,49.8007557 C303.44964,78.7767557 274.37964,90.1967557 267.52264,97.8907557 C264.52264,101.256756 265.52264,60.3807557 242.52264,56.0517557 C253.02264,53.6477557 273.02264,45.9527557 279.52264,25.2737557 Z" id="Path" fill="#DDD2C4" fill-rule="nonzero"></path>
                    <path d="M199.57464,31.0457557 C192.52264,21.4277557 196.17964,7.93675566 199.57464,0.748755664 L175.02264,8.92475566 C175.02264,8.92475566 160.90464,32.3037557 168.53664,54.8997557 C178.02264,82.9837557 211.81664,93.1317557 211.52264,89.7167557 C208.52264,54.8997557 220.51064,56.1977557 225.52264,51.7247557 C217.02264,49.8007557 208.94664,43.8277557 199.57464,31.0457557 Z" id="Path" fill="#E4DBD0" fill-rule="nonzero"></path>
                    <ellipse id="Oval" fill="#E5EBF9" fill-rule="nonzero" cx="276.52264" cy="79.6167557" rx="5" ry="4.80905"></ellipse>
                    <ellipse id="Oval" fill="#EDF2FF" fill-rule="nonzero" cx="237.28264" cy="128.013326" rx="7.5" ry="7.21357"></ellipse>
                    <ellipse id="Oval" fill="#EDF2FF" fill-rule="nonzero" cx="234.02264" cy="189.263756" rx="7.5" ry="7.69447"></ellipse>
                    <ellipse id="Oval" fill="#EDF2FF" fill-rule="nonzero" cx="230.02264" cy="258.032756" rx="7.5" ry="7.21357"></ellipse>
                    <ellipse id="Oval" fill="#EDF2FF" fill-rule="nonzero" cx="230.02264" cy="326.320756" rx="7.5" ry="7.21357"></ellipse>
                    <ellipse id="Oval" fill="#EDF2FF" fill-rule="nonzero" cx="230.02264" cy="386.915756" rx="7.5" ry="7.21357"></ellipse>
                    <rect id="Rectangle" fill="#A7A7A7" fill-rule="nonzero" transform="translate(65.173419, 497.938278) rotate(3.000000) translate(-65.173419, -497.938278) " x="20.7811192" y="394.476278" width="88.7846" height="206.924" rx="44.3923"></rect>
                    <rect id="Rectangle" fill="#C4C4C4" fill-rule="nonzero" transform="translate(86.698801, 496.742750) rotate(3.000000) translate(-86.698801, -496.742750) " x="42.3065012" y="389.97675" width="88.7846" height="213.532" rx="44.3923"></rect>
                    <path d="M93.8076352,402.822483 C94.0645983,399.729686 96.7801157,397.430788 99.8729129,397.687751 C102.892072,397.938596 105.154687,400.532315 105.021676,403.532784 L105.007645,403.753029 L88.7661448,599.235029 C88.5091817,602.327826 85.7936643,604.626724 82.7008671,604.36976 C79.6817079,604.118915 77.4190935,601.525197 77.5521036,598.524727 L77.5661352,598.304483 L93.8076352,402.822483 Z" id="Path" fill="#9B9B9B" fill-rule="nonzero"></path>
                    <path d="M16.55074,437.810756 C19.24804,416.232756 34.90664,397.539756 51.38984,390.046623 C65.99954,390.046623 118.25964,389.934756 95.78214,396.228756 C73.30504,402.521756 58.12274,463.847756 57.37344,493.441756 L14.30274,476.022756 C13.17884,472.275756 13.85354,459.388756 16.55074,437.810756 Z" id="Path" fill="#ADADAD" fill-rule="nonzero"></path>
                    <path d="M131.440084,21.113985 C138.162753,56.9682197 136.335899,195.257009 126.369557,371.611487 L125.749206,382.455715 L85.816074,380.143797 L86.42263,369.538901 C96.0686977,198.795941 97.9599836,62.6122119 92.3025743,29.4773833 L92.1251963,28.4855264 L131.440084,21.113985 Z" id="Path" fill="#999999" fill-rule="nonzero"></path>
                    <path d="M124.92745,299 L90.9274504,299 C82.0908944,299 74.9274504,306.163444 74.9274504,315 L74.9274504,337 C74.9274504,345.836556 82.0908944,353 90.9274504,353 L124.92745,353 C133.764006,353 140.92745,345.836556 140.92745,337 L140.92745,315 C140.92745,306.163444 133.764006,299 124.92745,299 Z M120.927,319 L120.927,333 L94.927,333 L94.927,319 L120.927,319 Z" id="Rectangle" fill="#3E3E3E" fill-rule="nonzero" transform="translate(107.927450, 326.000000) rotate(1.500000) translate(-107.927450, -326.000000) "></path>
                    <rect id="Rectangle" fill="#725037" fill-rule="nonzero" transform="translate(106.007591, 404.208164) rotate(1.500000) translate(-106.007591, -404.208164) " x="90.1962907" y="388.208164" width="31.6226" height="32" rx="2"></rect>
                    <rect id="Rectangle" fill="#8D5E3B" fill-rule="nonzero" transform="translate(107.194513, 379.343989) rotate(1.500000) translate(-107.194513, -379.343989) " x="86.1945127" y="363.343989" width="42" height="32" rx="2"></rect>
                    <mask id="mask-2" fill="white">
                        <use xlink:href="#path-1"></use>
                    </mask>
                    <g id="Rectangle" transform="translate(107.927450, 326.000000) rotate(1.500000) translate(-107.927450, -326.000000) "></g>
                </g>
                <g id="hand" transform="translate(59.603700, 0.000012)" fill-rule="nonzero">
                    <path d="M310.4213,338.711988 C343.1533,338.711988 369.6883,313.190988 369.6883,281.708988 C369.6883,250.226988 343.1533,224.705988 310.4213,224.705988 C277.6893,224.705988 251.1553,250.226988 251.1553,281.708988 C251.1553,313.190988 277.6893,338.711988 310.4213,338.711988 Z" id="Path" fill="#EBBAAA"></path>
                    <path d="M59.2663,338.711988 C26.5345,338.711988 4.8316906e-13,313.190988 4.8316906e-13,281.708988 C4.8316906e-13,250.226988 26.5345,224.705988 59.2663,224.705988 C91.9983,224.705988 118.5333,250.226988 118.5333,281.708988 C118.5333,313.190988 91.9983,338.711988 59.2663,338.711988 Z" id="Path" fill="#EBBAAA"></path>
                    <path d="M27.1365,199.788988 C27.1365,115.695988 95.3073,47.5243884 179.4003,47.5243884 C264.4533,47.5243884 333.0143,117.198988 331.6453,202.239988 L329.3703,343.539988 C328.1303,420.512988 265.3793,482.261988 188.3963,482.261988 C105.1203,482.261988 36.2568,417.393988 31.2854,334.266988 L27.1365,264.892988 L27.1365,199.788988 Z" id="Path" fill="#F4D4C9"></path>
                    <path d="M214.48096,373.384601 C218.416755,371.774503 222.91259,373.659853 224.522688,377.595648 C226.132786,381.531443 224.247436,386.027278 220.31164,387.637376 C195.365947,397.842432 172.245863,398.124385 152.657019,387.241693 C148.939754,385.176546 147.600447,380.488974 149.665595,376.771708 C151.730743,373.054442 156.418315,371.715136 160.135581,373.780283 C175.236474,382.169669 193.552351,381.946304 214.48096,373.384601 Z" id="Path" fill="#C99584"></path>
                    <path d="M21.4061,187.497988 C21.1391,182.045988 26.361,177.511988 32.8962982,177.511988 C39.6773,177.511988 40.0373,233.881988 39.3962982,239.511988 L33.5157,283.389988 C33.3341,284.984988 31.7323,286.195988 29.8209,286.195988 C27.824,286.195988 26.1901,284.886988 26.1047,283.229988 L21.4061,247.011988 L21.4061,187.497988 Z" id="Path" fill="#575757"></path>
                    <path d="M343.0343,178.805988 C343.5883,173.395988 338.6883,168.630988 332.2533,168.311988 C325.5773,167.980988 320.0923,172.559988 320.4233,178.191988 L325.9993,273.598988 C326.0933,275.193988 327.6053,276.477988 329.4873,276.570988 C331.4533,276.667988 333.1323,275.445988 333.3043,273.800988 L343.0343,178.805988 Z" id="Path" fill="#575757"></path>
                    <path d="M243.6363,265.395988 C250.161757,265.395988 255.470693,270.604533 255.6325,277.091014 L255.6363,277.395988 L255.6363,289.208988 C255.6363,295.836405 250.263717,301.208988 243.6363,301.208988 C237.110843,301.208988 231.801907,296.000444 231.6401,289.513963 L231.6363,289.208988 L231.6363,277.395988 C231.6363,270.768571 237.008883,265.395988 243.6363,265.395988 Z" id="Path" fill="#000000"></path>
                    <path d="M118.6363,262.395988 C125.161757,262.395988 130.470693,267.604533 130.6325,274.091014 L130.6363,274.395988 L130.6363,286.208988 C130.6363,292.836405 125.263717,298.208988 118.6363,298.208988 C112.110843,298.208988 106.801907,293.000444 106.6401,286.513963 L106.6363,286.208988 L106.6363,274.395988 C106.6363,267.768571 112.008883,262.395988 118.6363,262.395988 Z" id="Path" fill="#000000"></path>
                    <path d="M271.959485,210.20659 C277.471507,209.860962 282.220071,214.049152 282.565699,219.561174 C282.905468,224.979772 278.863807,229.660572 273.49023,230.146036 L273.211115,230.167387 L216.022115,233.753387 C210.510093,234.099015 205.761529,229.910825 205.415901,224.398803 C205.076132,218.980205 209.117793,214.299405 214.49137,213.813941 L214.770485,213.79259 L271.959485,210.20659 Z" id="Path" fill="#393939"></path>
                    <path d="M88.7934081,213.218876 L146.037408,215.493876 C151.555899,215.713193 155.851729,220.364605 155.632412,225.883097 C155.416813,231.308054 150.918085,235.551445 145.523029,235.485377 L145.243192,235.478101 L87.9991919,233.203101 C82.4807008,232.983784 78.1848711,228.332371 78.4041879,222.81388 C78.6197874,217.388923 83.1185152,213.145532 88.5135715,213.2116 L88.7934081,213.218876 Z" id="Path" fill="#393939"></path>
                    <path d="M173.953881,285.817134 L189.264719,293.204843 C182.526315,307.170013 178.68861,320.600743 178.904743,329.87559 C179.091595,337.893909 181.604583,340.920422 188.537133,341.008979 L188.8553,341.010988 L188.8553,358.010988 C171.749431,358.010988 162.300798,347.069375 161.909357,330.271637 C161.624505,318.047903 166.002295,302.510319 173.572707,286.612321 L173.953881,285.817134 Z" id="Path" fill="#EBBAAA"></path>
                    <path d="M31.0965,112.445988 C42.6963,88.5930884 72.2633,78.1414884 84.5963,73.9735884 L126.0963,91.7670884 C101.0963,81.0480884 80.4963,100.711988 64.0963,128.796988 C47.6963,156.881988 40.5633,214.344988 39.3963,239.511988 C39.3963,239.511988 34.5965,245.415988 31.5965,245.175988 C28.5965,244.934988 25.5446387,280.148247 21.3962982,246.957776 C17.2479577,213.767306 19.4965,136.298988 31.0965,112.445988 Z" id="Path" fill="#575757"></path>
                    <path d="M347.3703,154.507988 C331.9453,55.6594884 269.2483,46.3438884 238.3963,36.5106884 C238.3963,36.5106884 268.0073,118.370988 296.8683,139.355988 C325.7293,160.340988 325.7293,247.510988 325.7293,247.510988 L325.7913,247.421988 C347.3853,216.817988 355.3353,205.550988 347.3703,154.507988 Z" id="Path" fill="#575757"></path>
                    <path d="M177.3963,143.722988 C210.1963,143.722988 251.8963,119.837988 260.8963,105.730988 L193.8963,73.5106884 L89.3963,79.2815884 L75.3963,167.767988 C104.3963,136.508988 144.5963,143.722988 177.3963,143.722988 Z" id="Path" fill="#181818"></path>
                    <path d="M152.3963,4.51677842 C257.3963,-13.7571116 304.3963,28.0111884 317.3973,48.0108884 C330.3993,68.0108884 341.3973,106.510988 317.3973,119.510988 C300.2383,128.804988 232.3953,116.815988 186.3953,124.510988 C140.3953,132.204988 136.3963,136.510988 93.8963,146.843988 C63.3353,154.273988 51.3973,151.010988 34.3958,146.843988 C34.3958,110.869988 34.9958,93.3623884 41.3963,74.5108884 C49.3963,50.9465884 96.4323,14.2565884 152.3963,4.51677842 Z" id="Path" fill="#181818"></path>
                    <path d="M198.2613,296.253173 L196.3963,269.056173 C196.3963,269.056173 206.5883,250.539173 247.5403,245.707173 C288.4923,240.874173 307.2123,262.396173 307.2123,262.396173 L303.3833,298.457173 C301.2903,318.172173 284.3923,332.964173 264.5743,332.431173 L235.1503,331.640173 C215.5723,331.113173 199.6013,315.792173 198.2613,296.253173 Z" id="Path-Copy" fill-opacity="0.22" fill="#FFFFFF"></path>
                    <path d="M162.3603,294.040101 L164.3953,269.182101 C164.3953,269.182101 152.1413,250.046101 111.9133,245.625101 C71.6843,241.204101 54.3963,261.682101 54.3963,261.682101 L58.3893,296.285101 C60.6603,315.964101 77.6673,330.597101 97.4653,329.906101 L125.8123,328.916101 C145.0773,328.243101 160.7863,313.252101 162.3603,294.040101 Z" id="Path-Copy-2" fill-opacity="0.22" fill="#FFFFFF"></path>
                    <path d="M247.305894,243.720957 C231.489666,245.587142 218.987256,249.577113 209.420362,255.076768 C204.590899,257.853048 200.810306,260.84428 197.960343,263.854411 C196.209853,265.703279 195.145519,267.180927 194.644174,268.09178 L194.360778,268.606658 L196.265986,296.389999 C197.67652,316.957484 214.488176,333.084715 235.096484,333.639449 L264.520554,334.430451 C285.381892,334.991511 303.168997,319.42065 305.372124,298.668312 L309.293113,261.740974 L308.72133,261.083608 C308.183275,260.465017 307.155172,259.441565 305.625668,258.149968 C303.113771,256.028782 300.079049,253.915032 296.510739,251.94682 C283.54113,244.793028 267.170351,241.376629 247.305894,243.720957 Z M294.578814,255.449342 C297.909607,257.286545 300.728587,259.250026 303.044925,261.206071 L303.381393,261.49328 C303.929714,261.966484 304.415768,262.411885 304.839946,262.823344 L305.125,263.105 L301.39448,298.245998 C299.411666,316.923105 283.403304,330.936851 264.62807,330.431896 L235.204046,329.640896 L234.64866,329.621723 C216.355415,328.850946 201.5134,314.441969 200.256613,296.116333 L198.435,269.567 L198.612333,269.312593 C198.643996,269.267793 198.677256,269.221166 198.712133,269.172745 C199.263459,268.407322 199.975985,267.543474 200.864993,266.604504 C203.449675,263.874562 206.923915,261.12572 211.41389,258.544598 C220.498645,253.322107 232.481914,249.497813 247.774658,247.693395 C266.791546,245.449094 282.326115,248.690985 294.578814,255.449342 Z" id="Path" fill="#000000"></path>
                    <path d="M245.648123,243.426157 C258.873983,241.715658 271.294938,242.673029 282.767991,245.730629 C291.284885,248.000404 298.611448,251.231143 304.638492,254.860456 C308.716936,257.317545 310.962767,261.823797 310.807118,266.632905 L310.792355,266.968893 L309.741355,285.864893 L300.755245,285.365084 L301.806216,266.469605 C301.90175,264.748388 301.198707,263.295241 299.994917,262.570009 C294.660989,259.35807 288.104741,256.467012 280.450359,254.427098 C270.078112,251.662866 258.831974,250.796047 246.802571,252.351808 C225.305849,255.132436 210.441908,261.814071 201.158077,269.663041 C200.412782,270.293317 200.01163,271.358703 200.09612,272.663009 L200.117688,272.910318 L202.750688,297.013318 L193.803912,297.990659 L191.170944,273.887952 C190.706031,269.634631 192.142552,265.500447 195.346979,262.79055 C205.93674,253.837486 222.41123,246.431878 245.648123,243.426157 Z" id="Path" fill="#000000"></path>
                    <path d="M64.3944861,253.909659 C60.9636258,255.801999 58.06525,257.835228 55.6826193,259.876625 L55.1601213,260.331335 C54.0768272,261.289381 53.3101512,262.067284 52.8506609,262.594613 L52.1923798,263.372424 L56.2844861,298.834271 C58.6750178,319.549054 76.5771815,334.952136 97.4170626,334.224771 L125.764106,333.23477 C146.04278,332.526358 162.578763,316.746657 164.235621,296.523297 L166.32573,270.992132 L165.961565,270.423446 C165.3949,269.538536 164.235525,268.086023 162.393495,266.259724 C159.380427,263.27239 155.50618,260.299552 150.683993,257.536304 C140.6585,251.791416 127.870256,247.699562 112.013782,245.956958 C92.5526589,243.818261 76.7393543,247.100668 64.3944861,253.909659 Z M111.576824,249.93302 C126.893688,251.616321 139.153114,255.53897 148.695254,261.006883 C153.210828,263.594433 156.807908,266.354592 159.577224,269.100256 C160.533482,270.048346 161.315926,270.922287 161.935567,271.698599 L162.152444,271.974619 L162.223,272.068 L160.248968,296.196804 C158.757796,314.397818 143.875321,328.599636 125.624475,329.237208 L97.2774939,330.227207 L96.7156202,330.2425 C78.2007101,330.604103 62.3880828,316.832623 60.2581139,298.375706 L56.371,264.688 C56.8939473,264.156919 57.5306656,263.560625 58.2851543,262.914192 C60.4659557,261.045719 63.1411155,259.169077 66.3263668,257.412206 C77.9580978,250.996556 92.9457194,247.885539 111.576824,249.93302 Z" id="Path" fill="#000000"></path>
                    <path d="M77.8440268,247.094757 C89.0646296,244.021064 101.225859,242.993312 114.192721,244.564678 C136.942756,247.321898 153.152783,254.42322 163.653355,263.108214 C166.823221,265.731552 168.304561,269.741682 167.960307,273.903456 L167.925191,274.271034 L165.251191,298.986034 L156.303409,298.017943 L158.977482,273.30227 C159.132079,271.87538 158.719181,270.707089 157.916252,270.042596 C148.727804,262.442856 134.126971,256.046492 113.109936,253.499306 C101.33711,252.072637 90.3466433,253.001447 80.2218232,255.77497 C72.738547,257.824886 66.3304427,260.701752 61.1135996,263.889894 C59.9755796,264.585259 59.2965753,265.936069 59.3289806,267.549198 L59.3392086,267.793086 L60.5132086,286.234086 L51.5313914,286.805891 L50.3573695,268.364547 C50.0435479,263.429128 52.2614477,258.751696 56.4207368,256.210243 C62.3260556,252.601357 69.5012057,249.380131 77.8440268,247.094757 Z" id="Path" fill="#000000"></path>
                    <path d="M159.272532,272.842977 C172.271406,266.653037 184.805781,266.046191 197.006176,272.683554 L197.487598,272.949322 L194.067002,279.056655 C184.045791,273.443976 173.862008,273.78604 162.79355,278.922531 L162.282068,279.163 L159.272532,272.842977 Z" id="Path" fill="#000000"></path>
                </g>
            </g>
        </g>
    </g>
</svg>