<?xml version="1.0" encoding="UTF-8"?>
<svg width="607px" height="1352px" viewBox="0 0 607 1352" version="1.1" xmlns="http://www.w3.org/2000/svg" xmlns:xlink="http://www.w3.org/1999/xlink">
    <!-- Generator: Sketch 55.2 (78181) - https://sketchapp.com -->
    <title>gee_me_09</title>
    <desc>Created with Sketch.</desc>
    <defs>
        <path d="M230.327843,93.7908551 L283,135.775908 L191,211.775908 L139.782992,166.961026 C139.203567,166.810163 138.624412,166.65182 138.045632,166.485937 L52.5738859,141.989084 C14.1434699,130.974635 -8.08156209,90.8916516 2.93288752,52.4612357 C13.9473371,14.0308197 54.0303204,-8.1942123 92.4607363,2.82023731 L177.932482,27.3170901 C208.662166,36.1244513 229.030286,63.51795 230.327843,93.7908551 Z" id="path-1"></path>
        <path d="M6,126 C54.5141455,82.506146 91.6983375,50.3589793 117.552576,29.5585 C143.406815,8.75802066 158.222623,-0.930309873 162,0.493508406 L202,25.251 L98,202 L6,126 Z" id="path-3"></path>
        <path d="M1,229.5 L54,73.749 L78,0.749 L123,10.749 L207,0.749 L304,246 C304,246 304,256.5 297.5,262 C291,267.5 284.5,270.5 284.5,270.5 L152,299.749 L30,274.5 C30,274.5 10.5,262.5 4.5,254 C-1.5,245.5 1,229.5 1,229.5 Z" id="path-5"></path>
        <path d="M0.503,-2.84217094e-14 C0.172,2.021 8.52651283e-13,4.095 8.52651283e-13,6.209 L8.52651283e-13,20.218 C8.52651283e-13,41.256 17.055,58.311 38.093,58.311 C59.132,58.311 76.187,41.256 76.187,20.218 L76.187,6.209 C76.187,4.095 76.014,2.021 75.683,-2.84217094e-14 L0.503,-2.84217094e-14 Z" id="path-7"></path>
        <path d="M0.79,6.68 C0.773,7.83 0.85,9.01 1.026,10.18 L2.193,17.99 C3.946,29.72 14.876,37.81 26.606,36.06 C38.336,34.31 46.423,23.38 44.67,11.65 L43.503,3.84 C43.327,2.66 43.058,1.51 42.705,0.42 L0.79,6.68 Z" id="path-9"></path>
    </defs>
    <g id="GEE!-ME" stroke="none" stroke-width="1" fill="none" fill-rule="evenodd">
        <g id="gee_me_009" transform="translate(-297.000000, -124.000000)">
            <g id="gee_me_09" transform="translate(297.000000, 124.000000)">
                <g id="upper-limb" transform="translate(128.000000, 352.623000)">
                    <rect id="Rectangle" fill="#3F2B18" fill-rule="nonzero" transform="translate(247.737016, 93.619508) rotate(-7.995712) translate(-247.737016, -93.619508) " x="95.676534" y="20.5905013" width="304.120965" height="146.058014" rx="73.029"></rect>
                    <path d="M91,189.126 C91,205.080848 86.9662538,224.891523 78.6066312,250.791891 C74.95927,262.092401 70.5668485,274.381799 64.670769,289.982596 C61.4440464,298.520379 49.6850288,329.008412 48.0510454,333.288343 C32.0625226,375.167455 22.0338837,404.773804 14.1276227,436.061092 C9.12121254,455.872859 21.1233256,475.991967 40.9350925,480.998377 C60.7468594,486.004787 80.8659671,474.002674 85.8723773,454.190908 C92.9140677,426.324967 102.14322,399.078846 117.184132,359.681833 C118.736025,355.616924 130.558311,324.964853 133.892117,316.143732 C140.180401,299.505175 144.950211,286.159896 149.029362,273.521585 C159.552266,240.918786 165,214.163686 165,189.126 C165,168.691464 148.434536,152.126 128,152.126 C107.565464,152.126 91,168.691464 91,189.126 Z" id="Path" fill="#F6DDD6" fill-rule="nonzero"></path>
                    <path d="M331.769296,208.296903 C352.389202,244.871537 373.850101,297.36658 388.094933,346.080472 C395.251143,370.552983 400.237713,392.891244 402.569223,411.029303 C403.702676,419.847043 404.176336,427.438552 404.014021,433.51953 C403.942504,436.198884 403.749641,438.47872 403.464429,440.309739 C403.264041,441.596205 403.054739,442.448027 402.92025,442.81809 C395.940525,462.023654 405.851526,483.251025 425.05709,490.23075 C444.262654,497.210475 465.490025,487.299474 472.46975,468.09391 C483.715955,437.148607 477.356216,387.6728 459.120567,325.311278 C443.357173,271.404273 419.769722,213.707515 396.230704,171.955097 C386.195192,154.154571 363.629624,147.859783 345.829097,157.895296 C328.028571,167.930808 321.733783,190.496376 331.769296,208.296903 Z" id="Path" fill="#F6DDD6" fill-rule="nonzero"></path>
                    <g id="Group-7" transform="translate(179.000000, 84.350092)">
                        <mask id="mask-2" fill="white">
                            <use xlink:href="#path-1"></use>
                        </mask>
                        <use id="Combined-Shape" fill="#E1E8EE" fill-rule="nonzero" xlink:href="#path-1"></use>
                        <g id="Group-4" mask="url(#mask-2)" fill="#9DB7C9" fill-rule="nonzero">
                            <g transform="translate(74.000000, 13.775908)" id="Path">
                                <polygon points="98.4828078 159.256765 175.482808 96.2567651 168.517192 87.7432349 91.5171922 150.743235"></polygon>
                                <polygon points="81.4828078 130.256765 158.482808 67.2567651 151.517192 58.7432349 74.5171922 121.743235"></polygon>
                                <polygon points="70.4828078 100.256765 147.482808 37.2567651 140.517192 28.7432349 63.5171922 91.7432349"></polygon>
                                <polygon points="3.30447894 63.3966372 81.8044789 4.39663723 75.1955211 -4.39663723 -3.30447894 54.6033628"></polygon>
                                <polygon points="22.4872396 97.2531353 122.49674 15.2531353 115.52226 6.74686472 15.5127604 88.7468647"></polygon>
                            </g>
                        </g>
                        <polygon id="Path" fill="#2D3941" fill-rule="nonzero" points="190 218.775908 289 139.775908 269 123.775908 175 197.775908"></polygon>
                    </g>
                    <g id="Group-8" transform="translate(0.000000, 93.126000)">
                        <mask id="mask-4" fill="white">
                            <use xlink:href="#path-3"></use>
                        </mask>
                        <use id="Path" fill="#E1E8EE" fill-rule="nonzero" xlink:href="#path-3"></use>
                        <polygon id="Path" fill="#9DB7C9" fill-rule="nonzero" mask="url(#mask-4)" points="125 159.608107 37.965868 86.251 30 95.8938933 117.034132 169.251"></polygon>
                        <polygon id="Path" fill="#9DB7C9" fill-rule="nonzero" mask="url(#mask-4)" points="144.018524 134.772709 60.5185238 65.2727088 53.4814762 73.7272912 136.981476 143.227291"></polygon>
                        <polygon id="Path" fill="#9DB7C9" fill-rule="nonzero" mask="url(#mask-4)" points="157.000548 102.757811 85.5005475 43.7578111 78.4994525 52.2421889 149.999452 111.242189"></polygon>
                        <polygon id="Path" fill="#9DB7C9" fill-rule="nonzero" mask="url(#mask-4)" points="177.000548 77.7578111 105.500548 18.7578111 98.4994525 27.2421889 169.999452 86.2421889"></polygon>
                        <polygon id="Path" fill="#9DB7C9" fill-rule="nonzero" mask="url(#mask-4)" points="132.071519 14.6555341 163.071519 34.1555341 168.928481 24.8444659 137.928481 5.34446586"></polygon>
                        <polygon id="Path" fill="#2D3941" fill-rule="nonzero" points="99 209 0 130 20 114 114 188"></polygon>
                    </g>
                    <g id="Group-9" transform="translate(88.000000, 64.000000)">
                        <g id="Clipped" transform="translate(0.000000, 37.377000)">
                            <mask id="mask-6" fill="white">
                                <use xlink:href="#path-5"></use>
                            </mask>
                            <use id="Path" fill="#EAF0F5" fill-rule="nonzero" xlink:href="#path-5"></use>
                            <g id="Group" mask="url(#mask-6)" fill="#9DB7C9" fill-rule="nonzero">
                                <g transform="translate(-19.000000, 17.000000)" id="Path">
                                    <polygon points="6.79324968 226.245113 325.79325 238.245113 326.20675 227.252887 7.20675032 215.252887"></polygon>
                                    <polygon points="5.8785785 198.24766 322.878578 205.24766 323.121422 194.25034 6.1214215 187.25034"></polygon>
                                    <polygon points="4.01762811 171.248972 316.017628 170.248972 315.982372 159.249028 3.98237189 160.249028"></polygon>
                                    <polygon points="310.876237 124.250393 -0.123762866 131.250393 0.123762866 142.247607 311.123763 135.247607"></polygon>
                                    <polygon points="319.878578 91.2503405 2.8785785 98.2503405 3.1214215 109.24766 320.121422 102.24766"></polygon>
                                    <polygon points="322.017628 64.2490283 10.0176281 63.2490283 9.98237189 74.2489717 321.982372 75.2489717"></polygon>
                                    <polygon points="322.017628 32.2490283 10.0176281 31.2490283 9.98237189 42.2489717 321.982372 43.2489717"></polygon>
                                    <polygon points="323.017628 -3.75097175 11.0176281 -4.75097175 10.9823719 6.24897175 322.982372 7.24897175"></polygon>
                                </g>
                            </g>
                        </g>
                        <ellipse id="Oval" fill="#2D3A41" fill-rule="nonzero" cx="138.5" cy="69.126" rx="64.5" ry="67"></ellipse>
                        <rect id="Rectangle" fill="#E6CBC3" fill-rule="nonzero" x="99.376" y="7.10542736e-14" width="78.2017" height="117.369" rx="39.10085"></rect>
                        <rect id="Rectangle" fill="#EBAAAA" fill-rule="nonzero" x="102" y="147.126" width="82" height="82" rx="4"></rect>
                    </g>
                </g>
                <g id="lower-limb" transform="translate(164.883102, 717.944430)" fill-rule="nonzero">
                    <path d="M236.434405,161.234445 C247.17742,213.188372 246.415364,425.937579 236.114095,498.085159 C233.772181,514.487355 245.170292,529.682459 261.572488,532.024373 C277.974684,534.366287 293.169787,522.968176 295.511702,506.56598 C300.635165,470.682488 303.890383,399.100771 304.158331,324.295652 C304.441601,245.212872 301.42902,179.250272 295.191392,149.084695 C291.836331,132.859401 275.963317,122.426015 259.738023,125.781076 C243.512729,129.136137 233.079344,145.009151 236.434405,161.234445 Z" id="Path" fill="#F6DDD6"></path>
                    <path d="M111.269405,143.012695 C105.031777,173.178271 102.019196,239.141293 102.302466,318.224652 C102.570414,393.030327 105.825632,464.612497 110.949095,500.49598 C113.291009,516.898176 128.486113,528.296287 144.888309,525.954373 C161.290505,523.612459 172.688616,508.417355 170.346702,492.015159 C160.045433,419.867586 159.283376,207.116376 170.026392,155.162445 C173.381453,138.937151 162.948067,123.064137 146.722773,119.709076 C130.497479,116.354015 114.624465,126.787401 111.269405,143.012695 Z" id="Path" fill="#F6DDD6"></path>
                    <path d="M24.1168983,407.80557 L74.1168983,19.8045697 L130.116898,19.8045697 C146.116898,143.80457 132.916898,423.00557 112.116898,427.80557 C91.3168983,432.60557 30.7838983,418.47557 24.1168983,407.80557 Z" id="Path" fill="#495433"></path>
                    <path d="M390.221898,407.80557 L340.221898,19.8045697 L284.221898,19.8045697 C268.221898,143.80457 281.421898,423.00557 302.221898,427.80557 C323.021898,432.60557 383.554898,418.47557 390.221898,407.80557 Z" id="Path" fill="#495433"></path>
                    <path d="M89.4538983,449.80557 C102.453898,459.80557 204.540898,470.47557 211.207898,459.80557 L211.207898,251.80457 L194.453898,44.8045697 L111.312898,44.8045697 C95.3128983,168.80457 76.4538983,439.80557 89.4538983,449.80557 Z" id="Path" fill="#4F5B36"></path>
                    <path d="M200.116898,448.80557 C225.116898,456.80557 257.116898,455.80557 327.116898,448.80557 C327.116898,448.80557 314.025898,347.80557 308.116898,233.80457 C302.207898,119.80457 295.116898,20.8045697 295.116898,20.8045697 L191.116898,34.8045697 C200.116898,172.80457 206.116898,249.80457 200.116898,448.80557 Z" id="Path" fill="#54613A"></path>
                    <path d="M73.7478983,3.61456968 C73.9538983,1.48356968 75.8018983,-0.106430319 77.9398983,0.00556968074 L207.116898,6.80456968 L336.293898,0.00556968074 C338.431898,-0.106430319 340.279898,1.48356968 340.485898,3.61456968 L345.663898,57.1235697 C345.900898,59.5775697 343.883898,61.6595697 341.423898,61.5005697 L207.116898,52.8045697 L72.8098983,61.5005697 C70.3498983,61.6595697 68.3328983,59.5775697 68.5698983,57.1235697 L73.7478983,3.61456968 Z" id="Path" fill="#414931"></path>
                    <path d="M109.650181,9.67347455 L104.150181,61.6734745 C103.801637,64.9688017 106.190476,67.9227431 109.485803,68.2712873 C112.78113,68.6198315 115.735072,66.2309919 116.083616,62.9356648 L121.583616,10.9356648 C121.93216,7.64033767 119.543321,4.6863963 116.247993,4.33785208 C112.952666,3.98930786 109.998725,6.37814741 109.650181,9.67347455 Z" id="Path" fill="#4F5B36"></path>
                    <path d="M192.837898,14.0555697 L192.837898,55.0555697 C192.837898,58.3692782 195.52419,61.0555697 198.837898,61.0555697 C202.151607,61.0555697 204.837898,58.3692782 204.837898,55.0555697 L204.837898,14.0555697 C204.837898,10.7418612 202.151607,8.05556968 198.837898,8.05556968 C195.52419,8.05556968 192.837898,10.7418612 192.837898,14.0555697 Z" id="Path" fill="#4F5B36"></path>
                    <path d="M285.881256,13.1210295 L295.625256,67.1210295 C296.213694,70.3820731 299.334314,72.5486487 302.595358,71.9602115 C305.856402,71.3717743 308.022977,68.2511535 307.43454,64.9901099 L297.69054,10.9901099 C297.102103,7.72906622 293.981482,5.56249062 290.720439,6.15092783 C287.459395,6.73936504 285.292819,9.85998585 285.881256,13.1210295 Z" id="Path" fill="#4F5B36"></path>
                    <g id="Group-2" transform="translate(219.129898, 474.575570)">
                        <path d="M74.682,23.84 C70.868,12.4 78.389,3.18 82.627,0 C84.745,2.97 87.393,18.01 92.16,29.66 L104.607,44.76 L123.41,67.27 L146.715,78.39 L134.533,92.69 C126.235,86.34 78.495,35.28 74.682,23.84 Z" id="Path" fill="#3B3937"></path>
                        <path d="M2.273,103.26 C2.273,103.26 1.595,78.39 6.885,64.62 C12.175,50.85 17.626,15.34 17.626,15.34 C17.626,15.34 27.012,25.4 44.491,25.4 C61.969,25.4 80.507,21.19 80.507,21.19 C80.507,21.19 112.971,64.06 121.445,69.36 C129.92,74.66 171.233,85.78 171.233,85.78 C180.301,85.78 187.652,93.13 187.652,102.2 L187.652,110.55 L88.077,110.55 L2.273,103.26 Z" id="Path" fill="#1C1B19"></path>
                        <path d="M97.5798316,46.390408 L102.876832,44.270408 C104.506297,43.6182527 105.298563,41.7686338 104.646408,40.1391684 C103.994253,38.509703 102.144634,37.7174367 100.515168,38.369592 L95.2181684,40.489592 C93.588703,41.1417473 92.7964367,42.9913662 93.448592,44.6208316 C94.1007473,46.250297 95.9503662,47.0425633 97.5798316,46.390408 Z" id="Path" fill="#ECECEC"></path>
                        <path d="M104.994832,55.920408 L110.291832,53.800408 C111.921297,53.1482527 112.713563,51.2986338 112.061408,49.6691684 C111.409253,48.039703 109.559634,47.2474367 107.930168,47.899592 L102.633168,50.019592 C101.003703,50.6717473 100.211437,52.5213662 100.863592,54.1508316 C101.515747,55.780297 103.365366,56.5725633 104.994832,55.920408 Z" id="Path" fill="#ECECEC"></path>
                        <path d="M114.528832,65.450408 L119.825832,63.330408 C121.455297,62.6782527 122.247563,60.8286338 121.595408,59.1991684 C120.943253,57.569703 119.093634,56.7774367 117.464168,57.429592 L112.167168,59.549592 C110.537703,60.2017473 109.745437,62.0513662 110.397592,63.6808316 C111.049747,65.310297 112.899366,66.1025633 114.528832,65.450408 Z" id="Path" fill="#ECECEC"></path>
                        <path d="M123.002639,73.9304849 L128.300639,71.8104849 C129.930147,71.1584357 130.722534,69.3088683 130.070485,67.6793605 C129.418436,66.0498527 127.568868,65.2574659 125.939361,65.9095151 L120.641361,68.0295151 C119.011853,68.6815643 118.219466,70.5311317 118.871515,72.1606395 C119.523564,73.7901473 121.373132,74.5825341 123.002639,73.9304849 Z" id="Path" fill="#ECECEC"></path>
                        <path d="M1.059,102.23 L94.808,106.46 L188.028,102.23 L189.498,114.42 C189.944,118.12 187.127,121.4 183.403,121.53 L96.752,124.47 L48.376,125 L1.5063506e-12,123.41 L1.059,102.23 Z" id="Path" fill="#D0CEC1"></path>
                        <path d="M0.454337203,116.527273 C3.4776633,116.635315 21.1757041,117.315545 26.2323981,117.50238 C29.4567392,117.621514 32.4803313,117.730328 35.3756177,117.831002 C50.5742702,118.359486 61.8096408,118.648625 68.856,118.648625 C81.8014841,118.648625 112.782601,117.507476 124.123655,116.52065 L123.756345,112.29935 C112.547927,113.274635 81.6865159,114.411375 68.856,114.411375 C61.8743583,114.411375 50.673342,114.12312 35.5228655,113.596311 C32.6308472,113.495751 29.6102799,113.387046 26.3888499,113.26802 C21.3375506,113.081383 3.63593627,112.401016 0.605662798,112.292727 L0.454337203,116.527273 Z" id="Path" fill="#1C1B19"></path>
                        <path d="M121.291,123.41 L121.291,113.88 L121.291,110.17 L188.558,106.99 L189.513,115.59 C189.855,118.67 187.503,121.38 184.412,121.47 L121.291,123.41 Z" id="Path" fill="#ECEADF"></path>
                        <circle id="Oval" fill="#DCE0E4" cx="39.196" cy="60.38" r="19.0676"></circle>
                        <path d="M39.151,46.36 C39.587,45.6 40.708,45.66 41.047,46.47 L44.214,54.02 C44.349,54.34 44.633,54.57 44.974,54.65 L52.984,56.31 C53.844,56.49 54.125,57.58 53.46,58.15 L47.263,63.5 C46.999,63.72 46.864,64.07 46.902,64.41 L47.79,72.55 C47.886,73.42 46.939,74.02 46.188,73.57 L39.192,69.33 C38.894,69.14 38.526,69.12 38.208,69.27 L30.747,72.62 C29.946,72.98 29.08,72.27 29.281,71.42 L31.154,63.45 C31.233,63.11 31.141,62.75 30.907,62.5 L25.407,56.44 C24.817,55.79 25.229,54.74 26.104,54.67 L34.257,53.99 C34.605,53.96 34.916,53.76 35.089,53.46 L39.151,46.36 Z" id="Path" fill="#5B568E"></path>
                    </g>
                    <g id="Group-3" transform="translate(0.000000, 474.575570)">
                        <path d="M114.864898,23.84 C118.677898,12.4 111.156898,3.18 106.919898,0 C104.800898,2.97 102.152898,18.01 97.3858983,29.66 L84.9388983,44.76 L66.1358983,67.27 L42.8318983,78.39 L55.0138983,92.69 C63.3118983,86.34 111.050898,35.28 114.864898,23.84 Z" id="Path" fill="#3B3937"></path>
                        <path d="M187.273898,103.26 C187.273898,103.26 187.951898,78.39 182.660898,64.62 C177.370898,50.85 171.919898,15.34 171.919898,15.34 C171.919898,15.34 162.533898,25.4 145.055898,25.4 C127.576898,25.4 109.038898,21.19 109.038898,21.19 C109.038898,21.19 76.5758983,64.06 68.1008983,69.36 C59.6258983,74.66 18.3138983,85.78 18.3138983,85.78 C9.24589832,85.78 1.89389832,93.13 1.89389832,102.2 L1.89389832,110.55 L101.468898,110.55 L187.273898,103.26 Z" id="Path" fill="#1C1B19"></path>
                        <path d="M94.3285378,40.4895151 L89.0305378,38.3695151 C87.40103,37.7174659 85.5514626,38.5098527 84.8994134,40.1393605 C84.2473642,41.7688683 85.039751,43.6184357 86.6692588,44.2704849 L91.9672588,46.3904849 C93.5967667,47.0425341 95.4463341,46.2501473 96.0983832,44.6206395 C96.7504324,42.9911317 95.9580456,41.1415643 94.3285378,40.4895151 Z" id="Path" fill="#ECECEC"></path>
                        <path d="M86.9127299,50.019592 L81.6157299,47.899592 C79.9862646,47.2474367 78.1366456,48.039703 77.4844903,49.6691684 C76.832335,51.2986338 77.6246013,53.1482527 79.2540667,53.800408 L84.5510667,55.920408 C86.1805321,56.5725633 88.0301511,55.780297 88.6823064,54.1508316 C89.3344616,52.5213662 88.5421953,50.6717473 86.9127299,50.019592 Z" id="Path" fill="#ECECEC"></path>
                        <path d="M77.3787299,59.549592 L72.0817299,57.429592 C70.4522646,56.7774367 68.6026456,57.569703 67.9504903,59.1991684 C67.298335,60.8286338 68.0906013,62.6782527 69.7200667,63.330408 L75.0170667,65.450408 C76.6465321,66.1025633 78.4961511,65.310297 79.1483064,63.6808316 C79.8004616,62.0513662 79.0081953,60.2017473 77.3787299,59.549592 Z" id="Path" fill="#ECECEC"></path>
                        <path d="M68.9047299,68.029592 L63.6077299,65.909592 C61.9782646,65.2574367 60.1286456,66.049703 59.4764903,67.6791684 C58.824335,69.3086338 59.6166013,71.1582527 61.2460667,71.810408 L66.5430667,73.930408 C68.1725321,74.5825633 70.0221511,73.790297 70.6743064,72.1608316 C71.3264616,70.5313662 70.5341953,68.6817473 68.9047299,68.029592 Z" id="Path" fill="#ECECEC"></path>
                        <path d="M188.486898,102.23 L94.7378983,106.46 L1.51889832,102.23 L0.0488983183,114.42 C-0.397101682,118.12 2.41889832,121.4 6.14289832,121.53 L92.7938983,124.47 L141.169898,125 L189.545898,123.41 L188.486898,102.23 Z" id="Path" fill="#D0CEC1"></path>
                        <path d="M188.94023,112.292727 C185.911495,112.400969 168.21158,113.08129 163.157831,113.26802 C159.936152,113.387056 156.915316,113.495772 154.023037,113.596342 C138.873237,114.123128 127.672417,114.411375 120.690898,114.411375 C107.859386,114.411375 76.9981076,113.27464 65.7905686,112.299351 L65.4232281,116.520649 C76.7634194,117.507481 107.744411,118.648625 120.690898,118.648625 C127.737134,118.648625 138.972309,118.359494 154.170285,117.831033 C157.065832,117.730349 160.089694,117.621525 163.314285,117.50238 C168.373428,117.315452 186.069775,116.635267 189.091566,116.527273 L188.94023,112.292727 Z" id="Path" fill="#1C1B19"></path>
                        <path d="M68.2548983,123.41 L68.2548983,113.88 L68.2548983,110.17 L0.987898318,106.99 L0.0328983183,115.59 C-0.308101682,118.67 2.04389832,121.38 5.13389832,121.47 L68.2548983,123.41 Z" id="Path" fill="#ECEADF"></path>
                        <circle id="Oval" fill="#DCE0E4" transform="translate(150.349898, 60.380000) scale(-1, 1) translate(-150.349898, -60.380000) " cx="150.349898" cy="60.38" r="19.0676"></circle>
                        <path d="M150.394898,46.36 C149.958898,45.6 148.838898,45.66 148.498898,46.47 L145.332898,54.02 C145.197898,54.34 144.912898,54.57 144.571898,54.65 L136.561898,56.31 C135.701898,56.49 135.420898,57.58 136.085898,58.15 L142.282898,63.5 C142.546898,63.72 142.681898,64.07 142.643898,64.41 L141.755898,72.55 C141.660898,73.42 142.607898,74.02 143.357898,73.57 L150.354898,69.33 C150.652898,69.14 151.020898,69.12 151.338898,69.27 L158.799898,72.62 C159.599898,72.98 160.466898,72.27 160.265898,71.42 L158.392898,63.45 C158.312898,63.11 158.404898,62.75 158.639898,62.5 L164.138898,56.44 C164.728898,55.79 164.317898,54.74 163.442898,54.67 L155.288898,53.99 C154.941898,53.96 154.630898,53.76 154.457898,53.46 L150.394898,46.36 Z" id="Path" fill="#5B568E"></path>
                    </g>
                </g>
                <g id="head" transform="translate(150.000000, -0.000007)">
                    <path d="M344.053,209.685007 C325.618,132.771007 246.119,93.2509073 215.302,83.8053073 C201.233,57.4926073 240.892,13.3400073 263,9.16539726 C295.157,3.09319726 343.903,31.1800073 382.09,106.070007 C430.099,200.225007 406.59,454.758007 395,537.749007 C354,537.749007 324,530.749007 300,506.749007 C341.053,436.749007 344.053,276.479007 344.053,276.479007 C344.053,276.479007 354.241,252.190007 344.053,209.685007 Z" id="Path" fill="#3F2B18" fill-rule="nonzero"></path>
                    <ellipse id="Oval" fill="#EBBAAA" fill-rule="nonzero" cx="341.546" cy="281.928007" rx="59.0857" ry="56.0764"></ellipse>
                    <path d="M42.505,174.894007 C42.505,93.5071073 112.252,27.5300073 198.288,27.5300073 C284.325,27.5300073 354.072,93.5070073 354.072,174.894007 L354.072,321.465007 C341.508,416.539007 266.13,468.829007 198.288,468.829007 C130.447,468.829007 51.718,405.447007 42.505,321.465007 L42.505,174.894007 Z" id="Path" fill="#F6DDD6" fill-rule="nonzero"></path>
                    <path d="M157,361.271007 L157,374.967007 C157,396.005007 174.055,413.060007 195.093,413.060007 C216.132,413.060007 233.187,396.005007 233.187,374.967007 L233.187,361.271007 L157,361.271007 Z" id="Path" fill="#393939"></path>
                    <g id="Group-6" transform="translate(157.000000, 354.749007)">
                        <mask id="mask-8" fill="white">
                            <use xlink:href="#path-7"></use>
                        </mask>
                        <g id="Path"></g>
                        <ellipse id="Oval" fill="#FF6C6C" fill-rule="nonzero" mask="url(#mask-8)" cx="38.093" cy="54.762" rx="22.9723" ry="12.511"></ellipse>
                        <rect id="Rectangle" fill="#FFFFFF" fill-rule="nonzero" mask="url(#mask-8)" x="-7" y="6.522" width="91" height="19"></rect>
                    </g>
                    <path d="M263,10.1653073 C292.547,30.5458073 303.483,17.0470073 346,100.490007 C346,100.490007 373.352,147.372007 379,182.165007 C384.572,216.492007 405,241.165007 405,241.165007 L356,227.165007 C356,227.165007 337,201.165007 309,166.165007 C281,131.165007 276,119.165007 269,106.165007 C262,93.1653073 250.088,37.5301073 263,10.1653073 Z" id="Path" fill="#3F2B18" fill-rule="nonzero"></path>
                    <path d="M119.342574,229.888518 C119.550531,229.801875 120.033681,229.615856 120.757235,229.362884 C122.011886,228.924228 123.440193,228.481792 125.006373,228.067498 C129.461833,226.888919 134.072525,226.184007 138.534,226.184007 C142.977769,226.184007 147.436141,226.883051 151.657803,228.0501 C153.135454,228.458587 154.470381,228.894085 155.632296,229.324865 C156.295754,229.570843 156.729982,229.74922 156.905505,229.827678 C159.930739,231.179944 163.479404,229.823736 164.83167,226.798502 C166.183937,223.773269 164.827729,220.224603 161.802495,218.872337 C161.395518,218.69042 160.720528,218.41314 159.803829,218.073274 C158.33215,217.527648 156.674109,216.98674 154.855197,216.483914 C149.658109,215.047214 144.152731,214.184007 138.534,214.184007 C132.932975,214.184007 127.325292,215.041345 121.937627,216.466516 C120.058713,216.963535 118.33491,217.497505 116.796827,218.035255 C115.844741,218.368127 115.144407,218.637765 114.727426,218.811497 C111.668591,220.085935 110.222051,223.598747 111.496489,226.657582 C112.770927,229.716417 116.283739,231.162956 119.342574,229.888518 Z" id="Path" fill="#46413D" fill-rule="nonzero"></path>
                    <path d="M237.342574,229.888518 C237.550531,229.801875 238.033681,229.615856 238.757235,229.362884 C240.011886,228.924228 241.440193,228.481792 243.006373,228.067498 C247.461833,226.888919 252.072525,226.184007 256.534,226.184007 C260.977769,226.184007 265.436141,226.883051 269.657803,228.0501 C271.135454,228.458587 272.470381,228.894085 273.632296,229.324865 C274.295754,229.570843 274.729982,229.74922 274.905505,229.827678 C277.930739,231.179944 281.479404,229.823736 282.83167,226.798502 C284.183937,223.773269 282.827729,220.224603 279.802495,218.872337 C279.395518,218.69042 278.720528,218.41314 277.803829,218.073274 C276.33215,217.527648 274.674109,216.98674 272.855197,216.483914 C267.658109,215.047214 262.152731,214.184007 256.534,214.184007 C250.932975,214.184007 245.325292,215.041345 239.937627,216.466516 C238.058713,216.963535 236.33491,217.497505 234.796827,218.035255 C233.844741,218.368127 233.144407,218.637765 232.727426,218.811497 C229.668591,220.085935 228.222051,223.598747 229.496489,226.657582 C230.770927,229.716417 234.283739,231.162956 237.342574,229.888518 Z" id="Path" fill="#46413D" fill-rule="nonzero"></path>
                    <ellipse id="Oval" fill="#F2CACA" fill-rule="nonzero" cx="98.095" cy="328.549007" rx="31.8647" ry="31.8828"></ellipse>
                    <path d="M90,219.749007 C102.434,165.044007 233.667,103.989007 263,94.5342073 C275.097,90.6350073 265.041,3.60930726 245,1.16530726 C152,-10.1761927 73.366,63.7489073 41,115.165007 C-12.275,199.796007 -6.288,282.730007 19,473.165007 C24.92,517.749007 34,535.749007 41,543.749007 C41,543.749007 81,552.749007 120,515.749007 C97.493,434.265007 77.566,274.454007 90,219.749007 Z" id="Path" fill="#352312" fill-rule="nonzero"></path>
                    <path d="M157.519305,32.4077915 C134.481256,45.5723912 123.205811,52.648545 110.673122,62.4328374 C95.3532716,74.3930712 81.1169068,88.7203064 65.1049416,108.61396 C63.3735029,110.765142 63.7137716,113.912627 65.864953,115.644066 C68.0161343,117.375504 71.1636198,117.035236 72.8950584,114.884054 C88.4453712,95.5639687 102.143007,81.7789013 116.826878,70.3151772 C128.877287,60.9074021 139.835498,54.0303353 162.480695,41.090223 C164.878282,39.7201731 165.711266,36.6658998 164.341216,34.2683126 C162.971166,31.8707253 159.916893,31.0377417 157.519305,32.4077915 Z" id="Path" fill="#795839" fill-rule="nonzero"></path>
                    <path d="M142.275058,65.5567892 C129.150569,74.0877071 122.366415,79.3642712 113.37931,88.8007314 C111.47488,90.8003831 111.552072,93.9652667 113.551724,95.8696969 C115.551376,97.7741271 118.716259,97.6969348 120.62069,95.6972831 C128.980523,86.9194576 135.197257,82.0842205 147.724942,73.9412253 C150.04024,72.4362816 150.697162,69.3393636 149.192218,67.0240655 C147.687274,64.7087674 144.590356,64.0518454 142.275058,65.5567892 Z" id="Path" fill="#795839" fill-rule="nonzero"></path>
                    <path d="M118.434877,267.502654 L145.370877,263.243654 C148.098416,262.812388 149.959913,260.25167 149.528647,257.524131 C149.09738,254.796591 146.536663,252.935094 143.809123,253.366361 L116.873123,257.625361 C114.145584,258.056627 112.284087,260.617345 112.715353,263.344884 C113.14662,266.072423 115.707337,267.93392 118.434877,267.502654 Z" id="Path" fill="#000000" fill-rule="nonzero"></path>
                    <path d="M246.340302,260.635682 L273.276302,264.893682 C276.003857,265.32485 278.564507,263.46326 278.995675,260.735705 C279.426843,258.00815 277.565253,255.4475 274.837698,255.016332 L247.901698,250.758332 C245.174143,250.327165 242.613493,252.188754 242.182325,254.916309 C241.751157,257.643864 243.612747,260.204515 246.340302,260.635682 Z" id="Path" fill="#000000" fill-rule="nonzero"></path>
                    <path d="M127.489,258.30459 L127.488,287.08259 C127.488,293.710007 132.860166,299.083007 139.487583,299.083007 C146.115,299.083007 151.48777,293.710841 151.488,287.083424 L151.489,258.305424 C151.489,251.678007 146.116834,246.305007 139.489417,246.305007 C132.862,246.305007 127.48923,251.677173 127.489,258.30459 Z" id="Path" fill="#000000" fill-rule="nonzero"></path>
                    <path d="M241.315,255.696007 L241.315,284.475007 C241.315,291.102424 246.687583,296.475007 253.315,296.475007 C259.942417,296.475007 265.315,291.102424 265.315,284.475007 L265.315,255.696007 C265.315,249.06859 259.942417,243.696007 253.315,243.696007 C246.687583,243.696007 241.315,249.06859 241.315,255.696007 Z" id="Path" fill="#000000" fill-rule="nonzero"></path>
                    <path d="M183.025827,286.269087 C182.69514,288.680314 182.321584,290.305757 180.550351,297.420003 C180.121451,299.142703 179.817072,300.392814 179.525096,301.646951 C177.364876,310.925762 176.69753,317.266741 178.106702,323.143154 C180.314537,332.350088 187.623139,337.655007 198.398,337.655007 L198.398,320.655007 C197.272009,320.655007 196.389586,320.549695 195.739082,320.374116 C195.346869,320.268252 195.122174,320.163794 195.003621,320.077743 C194.974242,320.056419 194.964718,320.046031 194.93275,319.993839 C194.838007,319.839161 194.733206,319.575811 194.638031,319.178918 C194.038449,316.678594 194.499026,312.302376 196.082309,305.501649 C196.350727,304.348701 196.637006,303.172928 197.046765,301.527112 C199.012999,293.629633 199.415971,291.87619 199.868173,288.578927 L183.025827,286.269087 Z" id="Path" fill="#EBBAAA" fill-rule="nonzero"></path>
                    <ellipse id="Oval" fill="#F2CACA" fill-rule="nonzero" cx="298.387" cy="328.549007" rx="31.8647" ry="31.8828"></ellipse>
                    <path d="M204.981434,265.81734 C203.118846,253.686348 211.28554,242.602395 223.208156,241.289928 C233.344819,240.173965 243.878155,239.397828 254.5473,239.085395 C268.495149,238.676409 284.679964,239.732827 301.453546,241.733251 C311.59204,242.941778 318.534808,252.423799 316.866643,262.6698 L312.541664,289.250675 C310.721435,300.43973 302.68788,309.265852 292.053052,311.402801 C280.895397,313.643752 270.077727,314.967432 260.323,314.967432 C248.790966,314.967432 236.024743,313.34045 223.280617,310.737102 C216.143282,309.279664 210.750079,303.399771 209.611434,295.98034 L204.981434,265.81734 Z M213.324541,264.53651 L217.954585,294.699803 C218.566367,298.686185 221.357699,301.72941 224.969697,302.466977 C237.205289,304.966443 249.447022,306.526582 260.323,306.526582 C269.443641,306.526582 279.736224,305.267153 290.390572,303.127289 C297.480167,301.702714 302.939988,295.704243 304.210357,287.895215 L308.535423,261.313804 C309.43991,255.758376 305.77173,250.748593 300.454212,250.114735 C284.058617,248.159391 268.255792,247.127906 254.794537,247.522624 C244.363876,247.828072 234.053838,248.587757 224.131804,249.680091 C217.059022,250.458677 212.179798,257.08083 213.324541,264.53651 Z" id="Path" fill="#282727" fill-rule="nonzero"></path>
                    <path d="M325.949,248.379007 C325.574,246.128007 311.725,243.377007 304.847,242.282007 C309.349,246.034007 311.099,259.477007 311.412,265.729007 L323.604,261.978007 C324.542,258.383007 326.324,250.630007 325.949,248.379007 Z" id="Path" fill="#282727" fill-rule="nonzero"></path>
                    <path d="M163.791804,241.289924 C153.655181,240.173965 143.121845,239.397828 132.452537,239.085391 C118.504851,238.676409 102.320036,239.732827 85.5462123,241.733279 C75.4079601,242.941778 68.4651922,252.423799 70.1334234,262.67021 L74.4583567,289.2508 C76.2785654,300.43973 84.3121198,309.265852 94.946572,311.402726 C106.104603,313.643752 116.922273,314.967432 126.677,314.967432 C138.209034,314.967432 150.975257,313.34045 163.719697,310.737037 C170.856718,309.279664 176.249921,303.399771 177.388585,295.980212 L182.018566,265.81734 C183.881154,253.686348 175.71446,242.602395 163.791804,241.289924 Z M169.045434,294.699675 C168.433633,298.686185 165.642301,301.72941 162.030617,302.466913 C149.794711,304.966443 137.552978,306.526582 126.677,306.526582 C117.556359,306.526582 107.263776,305.267153 96.6090522,303.127213 C89.5198326,301.702714 84.0600115,295.704243 82.7896636,287.895339 L78.4646433,261.314215 C77.5600902,255.758376 81.2282704,250.748593 86.545546,250.114764 C102.941383,248.159391 118.744208,247.127906 132.2053,247.522619 C142.636124,247.828072 152.946162,248.587757 162.868156,249.680086 C169.940978,250.458677 174.820202,257.08083 173.675459,264.53651 L169.045434,294.699675 Z" id="Path" fill="#282727" fill-rule="nonzero"></path>
                    <path d="M61.051,248.379007 C61.426,246.128007 75.275,243.377007 82.153,242.282007 C77.651,246.034007 75.901,259.477007 75.588,265.729007 L63.396,261.978007 C62.458,258.383007 60.676,250.630007 61.051,248.379007 Z" id="Path" fill="#282727" fill-rule="nonzero"></path>
                    <path d="M178.123486,266.901297 C178.844137,266.565048 181.577189,265.269508 182.211258,264.975875 C183.464901,264.395321 184.381419,264.00165 185.219097,263.688958 C187.569659,262.81153 189.715423,262.447007 193.24,262.447007 C198.76417,262.447007 203.670592,264.101718 205.787696,265.865972 L215.394304,254.338043 C210.485052,250.247 202.164937,247.441007 193.24,247.441007 C187.973057,247.441007 184.052523,248.107027 179.971287,249.63049 C178.717381,250.098554 177.476498,250.631548 175.905422,251.359103 C175.195447,251.687887 172.435904,252.995986 171.778514,253.302718 L178.123486,266.901297 Z" id="Path" fill="#282727" fill-rule="nonzero"></path>
                </g>
                <g id="baby" transform="translate(0.000000, 891.653533)">
                    <path d="M83.6077438,291.936859 C91.6878862,280.992429 89.3659221,265.569966 78.421492,257.489824 C67.4770618,249.409681 52.0545986,251.731645 43.9744562,262.676075 C32.0772098,278.790715 23.1605871,295.487857 19.2885218,310.186767 C16.6710676,320.122996 16.1771873,329.50904 18.6898617,338.376335 C22.0939525,350.389463 30.7263772,359.581236 42.8126715,363.751563 C55.6726749,368.188856 69.6949037,361.360899 74.132196,348.500896 C77.487628,338.776302 74.4013441,328.387122 67.1362094,321.980488 C69.3814074,314.176743 75.3758242,303.086869 83.6077438,291.936859 Z" id="Path" fill="#F6DDD6" fill-rule="nonzero"></path>
                    <path d="M243.555905,359.849298 C247.986792,372.71151 262.005619,379.546449 274.867831,375.115562 C286.958577,370.950436 295.59598,361.759536 299.001932,349.744232 C301.515506,340.877002 301.021642,331.491101 298.404028,321.554267 C294.532342,306.856798 285.616767,290.15884 273.720065,274.039355 C265.641734,263.093588 250.219655,260.769072 239.273888,268.847403 C228.328121,276.925734 226.003604,292.347812 234.081935,303.29358 C242.313425,314.446871 248.30768,325.537263 250.554531,333.341693 C243.293779,339.745465 240.206941,350.12775 243.555905,359.849298 Z" id="Path" fill="#F6DDD6" fill-rule="nonzero"></path>
                    <path d="M25.2637,270.986467 L70.7386,229.936467 L108.634,216.666467 L185.057,216.666467 L229.901,229.936467 L290.976,276.356467 L246.954,327.826467 L238.111,321.516467 C243.164,346.776467 240.638,332.246467 243.796,373.306467 C197.058,380.886467 125.477,381.726467 80.8441,373.306467 L80.8441,327.826467 L25.2637,270.986467 Z" id="Path" fill="#FFAEC9" fill-rule="nonzero"></path>
                    <path d="M78.1866571,371.696996 C102.479724,373.962917 136.995366,375.964922 166.655219,376.560825 C205.476583,377.340794 233.783553,375.848718 247.611619,371.325612 L242.506381,355.717851 C221.078245,362.72691 141.750824,361.133125 79.7117429,355.346467 L78.1866571,371.696996 Z" id="Path" fill="#FFC8DA" fill-rule="nonzero"></path>
                    <path d="M148.709,265.076467 C131.53,265.586467 125.709,242.556467 119.182,232.866467 C102.003,240.386467 99.5685,265.556467 114.727,281.726467 C133.675,301.936467 155.152,279.036467 148.709,265.076467 Z" id="Path" fill="#FFC8DA" fill-rule="nonzero"></path>
                    <path d="M148.172,265.616467 C162.924,266.046467 175.664,241.926467 181.268,233.726467 C185.607,240.146467 200.651,262.096467 187.635,275.796467 C171.364,292.926467 149.298,275.256467 148.172,265.616467 Z" id="Path" fill="#FFC8DA" fill-rule="nonzero"></path>
                    <path d="M36.9226446,406.506467 C25.8065446,387.306467 37.7647446,372.396467 79.8711446,367.346467 L149.346745,377.456467 L246.612745,367.346467 L276.928745,406.506467 C272.297745,420.826467 264.957987,414.481467 257.981745,417.876467 C246.057182,423.679576 245.349745,431.766467 228.927745,431.766467 C196.135745,431.766467 108.503745,443.136467 59.6600446,431.766467 C33.5541446,431.346467 48.0387446,425.706467 36.9226446,406.506467 Z" id="Path" fill="#E199B1" fill-rule="nonzero"></path>
                    <circle id="Oval" fill="#EDCFC5" fill-rule="nonzero" cx="36.001" cy="162.986467" r="36.001"></circle>
                    <rect id="Rectangle" fill="#E5CBC3" fill-rule="nonzero" x="126.319" y="191.406467" width="50.5277" height="74.5283" rx="25.2638"></rect>
                    <circle id="Oval" fill="#EBBAAA" fill-rule="nonzero" cx="250.743" cy="135.196467" r="37.2641"></circle>
                    <circle id="Oval" fill="#F6DDD6" fill-rule="nonzero" cx="150.951" cy="130.136467" r="123.161"></circle>
                    <path d="M139.052,189.706467 L140.193,197.336467 C141.946,209.066467 152.876,217.156467 164.606,215.406467 C176.336,213.656467 184.423,202.726467 182.67,190.996467 L181.529,183.356467 L139.052,189.706467 Z" id="Path" fill="#393939"></path>
                    <g id="Clipped" transform="translate(138.000000, 179.346467)">
                        <mask id="mask-10" fill="white">
                            <use xlink:href="#path-9"></use>
                        </mask>
                        <g id="Path"></g>
                        <g id="Group" mask="url(#mask-10)" fill-rule="nonzero">
                            <g transform="translate(1.000000, 4.000000)">
                                <ellipse id="Oval" fill="#FF6C6C" transform="translate(25.582000, 31.900000) rotate(-8.500000) translate(-25.582000, -31.900000) " cx="25.582" cy="31.9" rx="12.9501" ry="7.05281"></ellipse>
                                <rect id="Rectangle" fill="#FFFFFF" transform="translate(21.944949, 7.565770) rotate(-8.500000) translate(-21.944949, -7.565770) " x="0.470699359" y="3.13726039" width="42.9485" height="8.85702"></rect>
                            </g>
                        </g>
                    </g>
                    <path d="M97.2656,99.1924674 L102.95,61.9274674 L80.844,87.8234674 C55.5802,106.771467 58.1066,114.986467 61.2646,87.8234674 C64.4226,60.6644674 34.106,129.716467 30.3164,155.406467 C28.6322,143.616467 21.5526,113.256467 25.8952,87.8234674 C30.3164,61.9274674 34.7376,55.6114674 54.9487,32.8744674 C75.1597,10.1374674 116.905,-7.46553256 188.215,3.18946744 C243.164,11.4004674 269.27,71.6124674 272.218,104.876467 L223.585,67.6124674 L170.531,87.8234674 C175.162,84.8754674 185.184,76.7074674 188.215,67.6124674 C191.247,58.5174674 155.793,77.2964674 137.688,87.8234674 C144.425,81.9284674 137.688,67.6124674 137.688,67.6124674 C137.688,67.6124674 104.003,87.8234674 97.2656,99.1924674 Z" id="Path" fill="#373838" fill-rule="nonzero"></path>
                    <circle id="Oval" fill="#373838" fill-rule="nonzero" cx="119.119" cy="164.436467" r="12.6319"></circle>
                    <path d="M119.261054,153.728568 L119.18396,153.738615 C118.832237,153.784526 117.305488,153.988534 116.910115,154.039695 C116.102051,154.144258 115.469242,154.218479 114.868551,154.276928 C111.876319,154.568081 109.399647,154.460667 105.971042,153.771255 C103.919187,153.358674 101.921367,154.68757 101.508787,156.739425 C101.096207,158.79128 102.425102,160.7891 104.476958,161.20168 C108.657949,162.04238 111.883882,162.18229 115.60256,161.820451 C116.29472,161.753102 117.001874,161.670161 117.882738,161.556178 C118.297708,161.502482 119.830112,161.297718 120.164966,161.254009 L120.238946,161.244367 C122.314377,160.97433 123.777937,159.072952 123.5079,156.997521 C123.237862,154.922091 121.336485,153.45853 119.261054,153.728568 Z" id="Path" fill="#373838" fill-rule="nonzero"></path>
                    <circle id="Oval" fill="#373838" fill-rule="nonzero" transform="translate(189.814000, 152.786467) scale(-1, 1) rotate(14.499995) translate(-189.814000, -152.786467) " cx="189.814" cy="152.786467" r="12.6319044"></circle>
                    <path d="M187.928645,149.977326 C188.331459,149.927452 189.720205,149.759811 189.684501,149.764157 C191.179909,149.582137 192.140431,149.45039 193.150715,149.277656 C196.55783,148.695123 199.548371,147.74659 203.179743,145.986646 C205.063133,145.073862 205.849964,142.807114 204.937179,140.923725 C204.024394,139.040335 201.757647,138.253504 199.874257,139.166289 C196.892407,140.611442 194.585017,141.343295 191.873401,141.806915 C191.011407,141.954294 190.152459,142.07211 188.768735,142.240535 C188.814689,142.234941 187.413771,142.404052 186.997355,142.455609 C184.920291,142.712778 183.444973,144.605048 183.702142,146.682112 C183.95931,148.759177 185.85158,150.234494 187.928645,149.977326 Z" id="Path" fill="#373838" fill-rule="nonzero"></path>
                    <path d="M166.012705,398.20942 C152.417085,398.68731 141.783063,410.096143 142.260953,423.691763 C142.738842,437.287383 154.147676,447.921404 167.743295,447.443514 L189.09833,446.69288 L256.93347,437.894086 C270.424471,436.144188 279.942516,423.788999 278.192618,410.297998 C276.442721,396.806997 264.087532,387.288952 250.59653,389.038849 L185.05567,397.540055 L166.012705,398.20942 Z" id="Path" fill="#F6DDD6" fill-rule="nonzero"></path>
                    <path d="M101.909329,410.584111 C101.93247,410.585505 101.916004,410.583752 101.862232,410.577195 C101.629945,410.569716 101.396846,410.565453 101.162977,410.564449 C101.489296,410.565904 101.735528,410.573642 101.909329,410.584111 Z M101.778988,410.566792 C101.114479,410.48161 100.227439,410.299367 99.1622453,409.986119 C95.5839493,408.933829 91.7254697,406.938355 87.76957,403.642272 C72.0195947,390.519284 57.549906,385.639245 44.3675934,390.159382 C41.5880661,391.112466 39.1214649,392.437958 37.0102645,394.021557 C26.1275427,402.184621 23.9228248,417.624281 32.0858892,428.507003 C36.9860634,435.03975 44.508311,438.445435 52.0929303,438.358544 C53.2538397,439.125137 54.6375214,440.160441 56.23403,441.490663 C65.5416428,449.24583 75.4202945,454.354731 85.2632797,457.249316 C91.681978,459.1369 97.0789056,459.828717 101.055,459.828717 C114.659016,459.828717 125.68725,448.800483 125.68725,435.196467 C125.68725,421.862566 115.092611,411.003176 101.862232,410.577195 C101.840517,410.574547 101.812719,410.571115 101.778988,410.566792 Z" id="Path" fill="#F6DDD6" fill-rule="nonzero"></path>
                    <path d="M266.849,80.0014674 C124.636,38.5224674 35.927,105.350467 24.3163,126.736467 L20.2109,109.366467 L21.1583,92.0014674 C41.5485,54.4404674 106.023,4.38246744 254.849,47.7894674 L262.112,63.8954674 L266.849,80.0014674 Z" id="Path" fill="#FFAEC9"></path>
                    <g id="Group" transform="translate(17.000000, 1.346467)" fill-rule="nonzero">
                        <path d="M54.0475,66.508 C54.0475,66.508 30.4302,73.506 26.7871,107.39 C26.3818,111.34 30.6449,113.69 32.9921,110.92 C35.7604,107.38 39.6569,104.901 44.033,103.886 C46.7533,111.29 50.5954,118.23 55.4249,124.46 C55.8493,125.09 56.475,125.56 57.1989,125.78 C57.9228,126.01 58.7019,125.98 59.4079,125.7 C60.114,125.43 60.705,124.92 61.0836,124.26 C61.4623,123.61 61.6062,122.84 61.4915,122.09 C61.1159,97.511 75.2698,74.055 75.2698,74.055 L54.0475,66.508 Z" id="Path" fill="#DF5B87"></path>
                        <path d="M91.587,58.529 C91.587,58.529 116.009,55.316 133.12,84.79 C135.095,88.23 132.155,92.109 128.887,90.538 C124.919,88.432 120.349,87.749 115.939,88.602 C116.464,96.471 115.777,104.374 113.901,112.03 C113.769,112.78 113.387,113.46 112.817,113.96 C112.247,114.46 111.524,114.75 110.767,114.79 C110.01,114.82 109.263,114.6 108.65,114.15 C108.037,113.71 107.594,113.06 107.394,112.33 C97.74,89.726 75.2693,74.055 75.2693,74.055 L91.587,58.529 Z" id="Path" fill="#DF5B87"></path>
                        <path d="M0.4327,60.392 C0.4469,61.263 0.6432,62.121 1.009,62.911 C1.3747,63.701 1.9019,64.406 2.5564,64.981 C19.0033,79.476 62.7154,64.666 62.7154,64.666 L65.7202,50.438 L0.0993,32.71 L0.4327,60.392 Z" id="Path" fill="#DF5B87"></path>
                        <path d="M4.9563,24.947 C3.5891,25.745 2.441,26.87 1.6147,28.22 C0.7884,29.57 0.3095,31.104 0.221,32.684 L0.5544,60.366 C0.5895,61.056 0.7341,61.736 0.9826,62.38 C19.4694,42.501 62.8982,64.627 62.8982,64.627 L65.9029,50.399 C65.9029,50.399 29.3015,11.319 4.9563,24.947 Z" id="Path" fill="#FF88B0"></path>
                        <path d="M138.079,31.134 C138.42,31.935 138.59,32.799 138.577,33.67 C138.565,34.54 138.37,35.399 138.006,36.19 C128.876,56.121 82.9196,60.371 82.9196,60.371 L74.3877,48.596 L127.125,5.71 L138.079,31.134 Z" id="Path" fill="#DF5B87"></path>
                        <path d="M119.53,0.594 C121.103,0.767 122.609,1.327 123.913,2.224 C125.218,3.122 126.279,4.328 127.003,5.736 L137.957,31.16 C138.206,31.805 138.35,32.484 138.385,33.174 C113.411,22.533 82.7364,60.41 82.7364,60.41 L74.2045,48.635 C74.2045,48.635 91.746,-1.954 119.53,0.594 Z" id="Path" fill="#FF88B0"></path>
                        <path d="M46.3656,58.731 C46.9696,61.573 48.2024,64.252 49.9936,66.615 C51.7848,68.978 54.0994,70.979 56.8051,72.504 C59.5108,74.029 62.5547,75.048 65.7629,75.503 C68.9712,75.958 72.2811,75.839 75.5035,75.154 C78.7259,74.469 81.7978,73.231 84.544,71.511 C87.29,69.791 89.656,67.622 91.508,65.128 C93.359,62.634 94.66,59.865 95.335,56.977 C96.01,54.09 96.046,51.141 95.442,48.299 C94.223,42.56 90.467,37.606 85.003,34.526 C79.5385,31.446 72.8125,30.493 66.3045,31.876 C59.7965,33.26 54.0397,36.866 50.3004,41.902 C46.5611,46.939 45.1458,52.992 46.3656,58.731 Z" id="Path" fill="#FF88B0"></path>
                    </g>
                </g>
            </g>
        </g>
    </g>
</svg>