<?xml version="1.0" encoding="UTF-8"?>
<svg width="532px" height="1339px" viewBox="0 0 532 1339" version="1.1" xmlns="http://www.w3.org/2000/svg" xmlns:xlink="http://www.w3.org/1999/xlink">
    <!-- Generator: Sketch 55.2 (78181) - https://sketchapp.com -->
    <title>gee_me_030</title>
    <desc>Created with Sketch.</desc>
    <defs>
        <path d="M138.440817,46.4533333 C138.440817,46.4533333 135.902649,66.7563636 140.978985,81.4760606 C144.641053,92.0935303 146.981244,96.1084545 148.002603,97.5225606 C161.585863,89.4551515 163.063076,83.2241515 160.269061,80.9684848 C147.070588,70.3093939 149.269656,61.8491212 151.63929,53.5593939 L156.207992,50.5139394 L189.711809,46.4533333 L221.185092,3.8169697 C221.185092,3.8169697 266.364481,9.90787879 281.593489,18.0290909 C296.822496,26.150303 305.959901,114.976061 305.959901,114.976061 L313.066771,431.195758 L274.486618,441.854848 L126.257611,441.854848 L125.749977,441.854848 C125.749977,441.854848 125.749977,441.854848 125.749977,441.849773 L76.0018855,441.347273 L0.872114504,429.67303 L6.45608397,126.650303 C7.30180153,115.123258 7.73633588,104.231697 8.14041221,94.1025152 C9.67549618,55.6140606 10.773,28.1227424 32.3453969,18.5366667 C35.5120153,17.1286515 38.2654198,15.8779848 40.7447023,14.7521818 C56.1463053,7.75372727 60.929229,5.58028788 88.1850916,0.771515152 L115.597305,54.0669697 L138.440817,46.4533333 Z" id="path-1"></path>
    </defs>
    <g id="GEE!-ME" stroke="none" stroke-width="1" fill="none" fill-rule="evenodd">
        <g id="gee_me_030" transform="translate(-334.000000, -130.000000)">
            <g transform="translate(334.000000, 130.000000)">
                <g id="lower-limb" transform="translate(69.910181, 828.627576)">
                    <path d="M260.70141,115.810711 C276.370527,112.67217 291.617436,122.828762 294.756334,138.496094 C301.068396,170.001796 303.462449,221.898603 303.568196,297.919237 L303.56703,310.033205 C303.545539,324.603802 303.452043,339.192853 303.27151,358.376435 L302.682469,417.806374 C302.620547,425.55336 302.599387,430.790161 302.595212,436.777247 L302.594392,439.266212 C302.594392,455.244814 289.6397,468.19803 273.659277,468.19803 C257.678855,468.19803 244.724163,455.244814 244.724163,439.266212 L244.736102,430.653483 C244.748698,426.615897 244.772919,422.427975 244.81627,417.055331 L245.403316,357.886782 C245.588801,338.183364 245.681695,323.389557 245.698758,308.491666 L245.701597,302.613521 C245.688993,228.097851 243.422459,176.860039 238.013442,149.861754 C234.874544,134.194422 245.032294,118.949251 260.70141,115.810711 Z" id="Path" fill="#EBBAAA" fill-rule="nonzero"></path>
                    <path d="M114.818192,222.161025 C115.740465,206.209055 129.421215,194.024994 145.375002,194.947162 C161.328789,195.86933 173.514238,209.548521 172.591965,225.50049 C171.54377,243.630445 170.360044,260.971853 168.957881,279.22332 L168.204599,288.804772 C166.792254,306.355928 163.933852,340.452799 163.847535,341.515693 L163.233515,349.201856 C161.931083,365.809141 161.101354,378.595763 160.554858,391.084025 C159.675117,411.187439 159.605159,429.817678 160.431742,449.590033 C161.099144,465.554694 148.69679,479.037583 132.730311,479.704909 C116.763831,480.372235 103.279405,467.971295 102.612003,452.006634 C101.714149,430.529415 101.790278,410.255982 102.739948,388.554576 L102.894113,385.172178 C103.523409,371.894146 104.457541,358.156273 105.887267,340.302599 L109.762667,293.489941 C110.254785,287.48093 110.684581,282.169688 110.958862,278.651706 C112.466505,259.31432 113.718869,241.17531 114.818192,222.161025 Z" id="Path" fill="#EBBAAA" fill-rule="nonzero"></path>
                    <path d="M180.269926,121.526833 C245.026712,121.526833 297.523132,95.8495909 297.523132,64.1738182 C297.523132,32.4990606 245.026712,6.82181818 180.269926,6.82181818 C115.512124,6.82181818 63.0157046,32.4990606 63.0157046,64.1738182 C63.0157046,95.8495909 115.512124,121.526833 180.269926,121.526833 Z" id="Path" fill="#2E2E2D" fill-rule="nonzero"></path>
                    <polygon id="Path" fill="#2E2E2D" fill-rule="nonzero" points="54.2295824 1.13686838e-13 191.290651 1.13686838e-13 181.137979 370.601364 178.092178 406.771212 100.424239 402.578636 94.8402695 370.601364"></polygon>
                    <polygon id="Path" fill="#2E2E2D" fill-rule="nonzero" points="189.986033 6.31221212 327.511079 6.31221212 312.615079 366.926515 311.092178 399.431667 231.393705 406.243333 226.825002 376.367424"></polygon>
                    <path d="M301.634964,442.078182 C301.634964,442.078182 304.781277,455.417273 330.068537,455.417273 L330.068537,477.212576 L268.137239,477.212576 L301.634964,442.078182 Z" id="Path" fill="#EBBAAA"></path>
                    <path d="M402.708873,505.301818 C402.708873,475.801515 373.386941,455.417273 330.068537,455.417273 L330.068537,466.868182 C246.707995,466.868182 246.707995,451.894697 246.707995,451.894697 C238.201071,451.894697 238.201071,505.301818 238.201071,505.301818 L402.708873,505.301818 Z" id="Path" fill="#2E2E2D" fill-rule="nonzero"></path>
                    <path d="M407.228842,509.910606 C407.228842,501.505152 399.62043,501.190455 382.129407,501.190455 L238.694491,501.190455 C237.013208,501.190455 235.648689,502.560909 235.648689,504.235909 L235.648689,506.865152 C235.648689,508.550303 237.013208,509.910606 238.694491,509.910606 L407.228842,509.910606 Z" id="Path" fill="#BF9176" fill-rule="nonzero"></path>
                    <path d="M105.593979,442.078182 C105.593979,442.078182 102.447666,455.417273 77.1604069,455.417273 L77.1604069,477.212576 L139.091705,477.212576 L105.593979,442.078182 Z" id="Path" fill="#EBBAAA"></path>
                    <path d="M4.52017252,505.301818 C4.52017252,475.801515 33.8430176,455.417273 77.1604069,455.417273 L77.1604069,466.868182 C160.520949,466.868182 160.520949,451.894697 160.520949,451.894697 C169.027873,451.894697 169.027873,505.301818 169.027873,505.301818 L4.52017252,505.301818 Z" id="Path" fill="#2E2E2D" fill-rule="nonzero"></path>
                    <path d="M5.54223334e-13,509.910606 C5.54223334e-13,501.505152 7.60861527,501.190455 25.0994351,501.190455 L168.534453,501.190455 C170.21675,501.190455 171.580254,502.560909 171.580254,504.235909 L171.580254,506.865152 C171.580254,508.550303 170.21675,509.910606 168.534453,509.910606 L5.54223334e-13,509.910606 Z" id="Path" fill="#BF9176" fill-rule="nonzero"></path>
                </g>
                <g id="upper-limb" transform="translate(0.871995, 405.309673)">
                    <path d="M59.6534659,151.351228 C69.0905903,132.877443 91.7185591,125.55091 110.194449,134.986959 C128.670339,144.423009 135.997706,167.0484 126.560581,185.522185 C113.477345,211.133472 99.6649546,262.757613 92.4506793,312.73296 L92.234092,314.246831 C88.8052109,338.431861 87.252758,360.104987 87.7919616,376.005848 L87.8196854,376.770726 C88.0302167,382.223293 88.4869122,386.659094 89.0682676,389.799106 L89.1952824,390.457727 L89.2276964,390.493392 C99.8952308,402.704195 101.736559,420.894338 92.6925285,435.226943 L92.356789,435.749568 C81.0033339,453.111831 57.7230413,457.983981 40.3588,446.631819 C27.9498338,438.519251 21.1660487,426.662437 17.1819785,412.18896 C14.6084558,402.839772 13.2236233,392.04286 12.7458424,379.668773 C11.9340686,358.644579 13.7820752,332.381589 17.8480394,303.703002 C26.0655018,245.742528 42.0037271,185.90174 59.6534659,151.351228 Z" id="Path" fill="#EBBAAA" fill-rule="nonzero"></path>
                    <path d="M394.475065,110.610495 C412.544792,100.418385 435.456479,106.802786 445.649751,124.870455 C469.70887,167.515466 487.467581,227.768353 496.634635,290.743497 C505.363831,350.710678 505.184797,404.942199 494.204275,435.13636 C487.114539,454.631664 465.561306,464.689019 446.063782,457.600091 C426.761232,450.582052 416.70987,429.389955 423.389936,410.050541 L423.597492,409.465082 C429.214315,394.019981 429.35918,350.138772 422.28824,301.563355 C414.346248,247.004054 399.087824,195.234299 380.213481,161.779351 C370.02021,143.711683 376.405338,120.802606 394.475065,110.610495 Z" id="Path" fill="#EBBAAA" fill-rule="nonzero"></path>
                    <path d="M90.3587969,75.6285091 C90.3587969,51.7724485 142.645158,27.4250546 179.194776,15.8462364 L226.912334,0.0159636797 C233.557257,-0.193157532 279.215853,1.7051758 285.79783,2.61475156 L359.912334,27.4250546 C395.03144,32.2795091 449.239601,47.4621152 445.70241,82.7345697 L407.678624,237.848706 L411.183326,437.530024 C411.256425,439.371509 327.234944,449.806252 325.39325,449.712479 L185.794013,440.859721 L110.156608,437.458964 C108.388013,437.364555 107.472242,432.192358 107.61844,430.423964 L117.779234,219.15063 L90.3587969,75.6285091 Z" id="Path" fill="#EBBAAA" fill-rule="nonzero"></path>
                    <path d="M437.072639,51.2648728 C427.732181,41.9254788 396.969585,32.4845697 382.755845,28.9315394 C391.7237,148.719418 410.472639,391.34063 413.721494,403.522449 C417.782563,418.749721 506.61844,424.84063 514.740578,418.749721 C522.862715,412.658812 532.00012,355.302752 529.969585,323.833055 C527.939051,292.363358 448.748211,62.9391152 437.072639,51.2648728 Z" id="Path" fill="#565885" fill-rule="nonzero"></path>
                    <path d="M87.2299465,53.785494 C95.9736305,44.4532061 124.770364,35.0194031 138.076456,31.4694182 C129.681211,151.164918 112.130288,393.597312 109.089563,405.769994 C105.287387,420.9861 22.1276649,427.071933 14.5244305,420.9861 C6.92126724,414.899252 -1.63231405,357.587858 0.268475252,326.142524 C2.16927876,294.697191 76.3003924,65.4506 87.2299465,53.785494 Z" id="Path" fill="#565885" fill-rule="nonzero"></path>
                    <path d="M110.406364,405.769994 C106.51586,420.9861 21.4092618,427.071933 13.6281527,420.9861 C11.8997618,419.633918 8.42696937,410.193009 8.42696937,410.193009 L111.575952,397.273176 C111.575952,397.273176 110.683532,404.684797 110.406364,405.769994 Z" id="Path" fill="#FFFFFF" fill-rule="nonzero"></path>
                    <path d="M414.163135,404.754842 C418.255677,419.970949 507.797166,426.056782 515.98428,419.970949 C517.802624,418.618767 521.45657,409.177858 521.45657,409.177858 L412.932631,396.258024 C412.932631,396.258024 413.870738,403.669645 414.163135,404.754842 Z" id="Path" fill="#FFFFFF" fill-rule="nonzero"></path>
                    <path d="M242.141341,57.3557819 C242.141341,57.3557819 239.603173,77.6588122 244.679509,92.3785091 C248.341578,102.995979 250.681769,107.010903 251.703127,108.425009 C265.286387,100.3576 266.763601,94.1266 263.969585,91.8709334 C250.771112,81.2118425 252.970181,72.7515697 255.339814,64.4618425 L259.908517,61.4163879 L293.412334,57.3557819 L324.885616,14.7194182 C324.885616,14.7194182 370.065005,20.8103273 385.294013,28.9315394 C400.523021,37.0527516 409.660425,125.878509 409.660425,125.878509 L416.767295,442.098206 L378.187143,452.757297 L229.958135,452.757297 L229.450502,452.757297 C229.450502,452.757297 229.450502,452.757297 229.450502,452.752221 L179.70241,452.249721 L104.572639,440.575479 L110.156608,137.552752 C111.002326,126.025706 111.43686,115.134145 111.840937,105.004964 C113.376021,66.5165091 114.473524,39.025191 136.045921,29.4391152 C139.21254,28.0311 141.965944,26.7804334 144.445227,25.6546303 C159.84683,18.6561758 164.629753,16.4827364 191.885616,11.6739637 L219.29783,64.9694182 L242.141341,57.3557819 Z" id="Path" fill="#494B7E"></path>
                    <g id="Clipped" transform="translate(103.700524, 10.902449)">
                        <mask id="mask-2" fill="white">
                            <use xlink:href="#path-1"></use>
                        </mask>
                        <g id="Path"></g>
                        <path d="M222.382092,26.7106667 C222.382092,67.9146515 204.049412,121.273045 155.336893,121.273045 C106.625389,121.273045 83.0894656,46.6360606 83.0894656,5.43207576 C83.0894656,-35.7719091 106.625389,-42.4150606 155.336893,-42.4150606 C204.049412,-42.4150606 222.382092,-14.4933182 222.382092,26.7106667 Z" id="Path" fill="#D0D0D0" fill-rule="nonzero" mask="url(#mask-2)"></path>
                    </g>
                    <path d="M297.473402,28.9315394 C300.964906,17.3831758 297.473402,9.13608489 296.458135,4.06032732 L324.885616,14.7194182 C324.885616,14.7194182 334.530654,26.9012364 328.439051,54.8179031 C321.7657,85.4013728 292.251883,97.4542667 285.290196,105.575479 C282.244395,109.128509 283.259662,65.9845697 259.908517,61.4163879 C270.568822,58.8785091 290.874166,50.757297 297.473402,28.9315394 Z" id="Path" fill="#FFFFFF" fill-rule="nonzero"></path>
                    <path d="M216.304822,35.0224485 C209.145158,24.8709334 212.85799,10.6324182 216.304822,3.0451758 L191.377982,11.6739637 C191.377982,11.6739637 177.04444,36.3502667 184.79296,60.1992213 C194.423784,89.8406303 228.733723,100.551494 228.435234,96.946691 C225.389433,60.1992213 237.561471,61.5686606 242.648975,56.8482061 C234.019204,54.8179031 225.819906,48.512797 216.304822,35.0224485 Z" id="Path" fill="#FFFFFF" fill-rule="nonzero"></path>
                </g>
                <g id="hand" transform="translate(80.697480, 0.700526)">
                    <path d="M301.371925,309.533838 C330.681673,309.533838 351.883497,275.984096 354.440955,251.117959 C356.998413,226.252838 330.681673,201.136974 301.371925,201.136974 C272.063192,201.136974 248.303909,223.513959 248.303909,251.117959 C248.303909,278.722974 272.063192,309.533838 301.371925,309.533838 Z" id="Path" fill="#EBBAAA" fill-rule="nonzero"></path>
                    <path d="M53.2406269,315.266399 C23.9318941,315.266399 2.72966358,281.716656 0.172205568,256.851535 C-2.38525245,231.985399 23.9318941,206.869535 53.2406269,206.869535 C82.5493598,206.869535 106.308642,229.247535 106.308642,256.851535 C106.308642,284.455535 82.5493598,315.266399 53.2406269,315.266399 Z" id="Path" fill="#EBBAAA" fill-rule="nonzero"></path>
                    <path d="M28.9016269,175.288171 C28.9016269,91.3690471 93.8766956,23.3391759 174.026963,23.3391759 C254.178245,23.3391759 319.153314,91.3689456 319.153314,175.288171 L309.330604,292.757444 C297.702749,365.900126 241.839703,421.314202 174.026963,421.314202 C106.215238,421.314202 52.5989781,358.606262 38.7243369,292.757444 L28.9016269,175.288171 Z" id="Path" fill="#F4D4C9" fill-rule="nonzero"></path>
                    <path d="M279.185291,139.491899 L270.024535,62.6093986 C268.639711,50.9915986 258.343886,48.0283714 291.373574,72.3718062 C324.403261,96.7153426 329.68468,174.390777 321.215322,208.669399 L314.873963,252.03058 L311.338803,246.904065 L307.993497,196.879429 C291.351238,180.128414 282.117383,164.094096 279.185291,139.491899 Z" id="Path" fill="#6E6C6C" fill-rule="nonzero"></path>
                    <path d="M45.4660765,146.44477 C46.8303497,121.708565 44.042441,122.982554 44.9519565,106.491412 C45.596535,94.8098572 45.6878797,91.8511965 33.8958334,119.320799 C22.1039902,146.790706 21.5909123,181.398261 24.0415861,214.615087 L26.9536727,245.231097 L31.6056255,245.487599 L33.7058347,207.40557 C41.9272001,181.016765 44.1018033,171.18199 45.4660765,146.44477 Z" id="Path" fill="#6E6C6C" fill-rule="nonzero" transform="translate(34.354583, 171.736487) rotate(-5.000000) translate(-34.354583, -171.736487) "></path>
                    <path d="M174.037115,5.50785682 L174.037115,5.50785682 C173.969093,5.50785682 173.902085,5.50785682 173.835077,5.50785682 C173.76807,5.50785682 173.700047,5.50785682 173.633039,5.50785682 L173.633039,5.50785682 C130.696375,5.66278924 27.8904208,30.3921441 24.0273292,146.122868 C35.4429934,131.867096 26.5543292,140.646126 42.2148254,131.343277 C57.2438254,122.416035 72.514459,104.251929 108.565581,99.4715805 C144.617719,94.6904198 150.496115,101.861247 169.931375,101.861247 C185.603039,101.861247 196.395329,95.0888668 222.091741,97.0808986 C247.788154,99.0726259 257.206787,115.193232 269.649902,121.383626 C292.393917,132.69749 301.01049,129.259171 323.239764,146.122868 C319.375657,30.3924486 216.971749,5.66279939 174.037115,5.50785682 Z" id="Path" fill="#272727"></path>
                    <path d="M247.821391,198.75279 C252.998263,198.75279 257.195213,202.948729 257.195213,208.125011 C257.195213,213.210481 253.144752,217.350077 248.093468,217.4939 L247.821924,217.497765 L212.104825,217.49878 C206.927953,217.49878 202.731003,213.302841 202.731003,208.126559 C202.731003,203.041089 206.781464,198.901493 211.832747,198.75767 L212.104292,198.753805 L247.821391,198.75279 Z" id="Path" fill="#393939" fill-rule="nonzero"></path>
                    <path d="M131.993592,197.527306 C137.153751,197.1117 141.673839,200.957443 142.089493,206.117014 C142.497854,211.186065 138.792607,215.637379 133.769165,216.186119 L133.498806,216.211764 L94.4008675,219.360764 C89.2407091,219.77637 84.7206206,215.930627 84.3049672,210.771056 C83.896606,205.702005 87.6018531,201.250691 92.6252954,200.701951 L92.8956535,200.676306 L131.993592,197.527306 Z" id="Path" fill="#393939" fill-rule="nonzero"></path>
                    <path d="M163.683787,240.879137 L180.776093,245.498084 L169.778668,286.184529 C167.140503,295.943926 174.391225,305.546645 184.446605,305.739643 L184.755291,305.742602 L191.531184,305.742602 L191.531184,323.446134 L184.755291,323.446134 C163.101188,323.446134 147.298145,303.09039 152.521672,282.198622 L152.686413,281.565395 L163.683787,240.879137 Z" id="Path" fill="#EBBAAA" fill-rule="nonzero"></path>
                    <path d="M93.0445482,244.203857 C99.9261387,240.615125 111.339551,239.782099 122.326081,243.901209 C125.476208,245.082266 127.072345,248.593093 125.891153,251.742861 C124.709962,254.892629 121.198735,256.488584 118.048608,255.307527 C110.497667,252.476501 102.832353,252.972152 98.9011667,254.892522 L98.6785377,255.00488 C95.6955779,256.560486 92.0161996,255.403662 90.4604164,252.421042 C88.9046332,249.438422 90.0615884,245.759463 93.0445482,244.203857 Z" id="Path" fill="#393939" fill-rule="nonzero"></path>
                    <path d="M222.044396,244.203857 C228.925949,240.615144 240.340315,239.782074 251.326096,243.901272 C254.476188,245.082422 256.072222,248.593296 254.890938,251.743029 C253.709653,254.892762 250.198379,256.488614 247.048287,255.307464 C239.498214,252.476509 231.83213,252.972203 227.901009,254.892525 L227.678385,255.00488 C224.695425,256.560486 221.016047,255.403662 219.460264,252.421042 C217.90448,249.438422 219.061436,245.759463 222.044396,244.203857 Z" id="Path" fill="#393939" fill-rule="nonzero"></path>
                    <path d="M144.47122,359.014018 C146.156919,354.967622 150.804074,353.053743 154.850931,354.73925 C168.610537,360.470095 186.041445,360.119391 195.433121,355.274569 L195.794937,355.083539 C199.651627,352.999411 204.467804,354.436001 206.552169,358.292252 C208.636533,362.148503 207.19978,366.964131 203.343089,369.048259 C189.689628,376.42649 166.97547,376.984883 148.746475,369.392547 C144.699618,367.70704 142.785521,363.060415 144.47122,359.014018 Z" id="Path" fill="#C99584" fill-rule="nonzero"></path>
                    <polygon id="Path" fill="#272727" fill-rule="nonzero" points="62.3922453 40.5331017 53.5462224 73.0488108 170.150673 54.3629168 303.410581 79.5703471 303.129352 66.1913608 293.624421 62.1027365 293.403093 51.5907411 281.419894 51.8602638 281.078764 35.614388 265.672085 35.9608592 261.98768 23.6145865 248.292741 23.9225835 239.900543 11.6821911 225.858383 15.822385 221.418619 8.2735153 206.86781 8.60080015 206.687093 2.13162821e-14 187.18178 9.04350773 181.865841 0.558292727 173.486841 9.35160621 164.747421 0.943319394 148.665589 9.90983803 138.213413 1.54010667 127.267818 10.3911214 119.56397 10.5644077 111.16568 18.4019865 107.581787 10.8339305 93.3721079 27.4070911 83.8773292 23.7962986 71.8575811 42.7103986"></polygon>
                </g>
            </g>
        </g>
    </g>
</svg>