<?xml version="1.0" encoding="UTF-8"?>
<svg width="622px" height="1360px" viewBox="0 0 622 1360" version="1.1" xmlns="http://www.w3.org/2000/svg" xmlns:xlink="http://www.w3.org/1999/xlink">
    <!-- Generator: Sketch 55.2 (78181) - https://sketchapp.com -->
    <title>gee_me_054</title>
    <desc>Created with Sketch.</desc>
    <defs>
        <path d="M177.342085,60.3380282 C177.342085,45.2343662 172.356056,36.9402817 163.332169,31.0884507 C120.396394,3.2084507 64.7235493,1.89633803 13.5674366,0 C13.1489014,0 11.8128451,3.10309859 11.6299155,3.48619718 C9.79391549,7.25014085 0.158985915,27.8321127 0.158985915,44.2957746 C0.158985915,56.8805634 -0.91943662,69.2642254 2.55335211,75.6619718 C4.12022535,78.5543662 13.9036056,80.1250704 17.1886761,80.1250704 L172.014141,80.1250704 C174.956338,80.1250704 177.342085,63.2783099 177.342085,60.3380282 Z" id="path-1"></path>
        <path d="M0,60.3380282 C0,45.2343662 4.98602817,36.9402817 14.0099155,31.0884507 C56.9456901,3.2084507 112.617577,1.89633803 163.774648,0 C164.192225,0 165.528282,3.10309859 165.711211,3.48619718 C167.547211,7.25014085 177.183099,27.8321127 177.183099,44.2957746 C177.183099,56.8805634 178.261521,69.2642254 174.788732,75.6619718 C173.221859,78.5543662 163.438479,80.1250704 160.152451,80.1250704 L5.32698592,80.1250704 C2.38478873,80.1250704 0,63.2783099 0,60.3380282 Z" id="path-3"></path>
        <linearGradient x1="50%" y1="45.2173913%" x2="50%" y2="66.9565217%" id="linearGradient-5">
            <stop stop-color="#EBBAAA" offset="0%"></stop>
            <stop stop-color="#F4D5CC" offset="100%"></stop>
        </linearGradient>
    </defs>
    <g id="GEE!-ME" stroke="none" stroke-width="1" fill="none" fill-rule="evenodd">
        <g id="gee_me_054" transform="translate(-289.000000, -120.000000)">
            <g transform="translate(289.000000, 120.000000)">
                <g id="lower-limb" transform="translate(106.873239, 795.887324)">
                    <path d="M204,229.859155 C264.829352,229.859155 314.140845,178.399437 314.140845,114.929577 C314.140845,51.4558873 264.829352,0 204,0 C143.170648,0 93.8591549,51.4558873 93.8591549,114.929577 C93.8591549,178.399437 143.170648,229.859155 204,229.859155 Z" id="Path" fill="#C88497" fill-rule="nonzero"></path>
                    <path d="M133.126761,288.28169 C147.265561,288.28169 158.754094,299.628835 158.982451,313.713217 L158.985915,314.140845 L158.985915,532.507042 C158.985915,546.788659 147.408377,558.366197 133.126761,558.366197 C118.98796,558.366197 107.499427,547.019052 107.27107,532.934671 L107.267606,532.507042 L107.267606,314.140845 C107.267606,299.859228 118.845144,288.28169 133.126761,288.28169 Z" id="Path" fill="#EBBAAA" fill-rule="nonzero"></path>
                    <path d="M271.042254,291.15493 C285.181054,291.15493 296.669587,302.502075 296.897944,316.586456 L296.901408,317.014085 L296.901408,535.380282 C296.901408,549.661899 285.32387,561.239437 271.042254,561.239437 C256.903453,561.239437 245.41492,549.892292 245.186563,535.80791 L245.183099,535.380282 L245.183099,317.014085 C245.183099,302.732468 256.760637,291.15493 271.042254,291.15493 Z" id="Path" fill="#EBBAAA" fill-rule="nonzero"></path>
                    <path d="M204,18.1971831 L347.661972,18.1971831 L347.661972,118.760563 C347.661972,252.84507 299.774648,458.760563 299.774648,458.760563 C299.774648,458.760563 268.243718,476.632113 242.309859,468.338028 C229.465521,464.229296 213.577465,458.760563 213.577465,458.760563 L208.788732,238.478873 L204,18.1971831 Z" id="Path" fill="#E0A1B2" fill-rule="nonzero"></path>
                    <path d="M204,18.1971831 L60.3380282,18.1971831 L60.3380282,118.760563 C60.3380282,252.84507 108.225352,458.760563 108.225352,458.760563 C108.225352,458.760563 139.756282,476.632113 165.690141,468.338028 C178.534479,464.229296 194.422535,458.760563 194.422535,458.760563 L199.211268,238.478873 L204,18.1971831 Z" id="Path" fill="#E0A1B2" fill-rule="nonzero"></path>
                    <path d="M405.285746,544 C405.285746,514.597183 386.393239,511.015211 355.600732,500.939718 C340.519099,495.997746 325.128113,491.697465 309.511099,489.111549 C299.69707,487.48338 297.060394,496.112676 279.820958,496.112676 C264.447211,496.112676 245.26738,488.498592 241.295606,486.851268 C240.797577,486.640563 240.206648,486.458592 239.810141,486.822535 C239.714366,486.91831 239.633915,487.023662 239.573577,487.148169 C237.737577,490.912113 228.102648,511.494085 228.102648,527.957746 C228.102648,540.542535 227.024225,552.926197 230.497014,559.323944 C232.063887,562.216338 241.847268,563.787042 245.132338,563.787042 L399.957803,563.787042 C402.9,563.787042 405.285746,546.940282 405.285746,544 Z" id="Path" fill="#D0D4DB" fill-rule="nonzero"></path>
                    <g id="Clipped" transform="translate(227.943662, 483.661972)">
                        <mask id="mask-2" fill="white">
                            <use xlink:href="#path-1"></use>
                        </mask>
                        <g id="Path"></g>
                        <g id="Group" mask="url(#mask-2)" fill-rule="nonzero">
                            <g transform="translate(-4.788732, -1.915493)" id="Path">
                                <path d="M86.7086197,25.8974648 C86.5304789,23.5509859 83.7578028,22.4016901 81.9716056,23.9340845 L71.8261972,32.6495775 C71.1145915,33.2529577 70.1482254,33.4828169 69.2383662,33.2529577 L56.1498028,29.8816901 C53.8234366,29.2783099 51.8322817,31.6343662 52.8082254,33.8276056 L58.1792676,45.9239437 C58.5700282,46.795493 58.4943662,47.8202817 57.9771831,48.6247887 L50.9214648,59.715493 C49.6467042,61.7171831 51.2126197,64.3126761 53.5782535,64.1211268 L67.1361127,63.0197183 C68.0584225,62.9430986 68.959662,63.3166197 69.5582535,64.0253521 L78.3676056,74.388169 C79.903831,76.1983099 82.8469859,75.4704225 83.3612958,73.1526761 L86.2115493,60.3284507 C86.420338,59.3802817 87.0859718,58.6140845 87.984338,58.2692958 L100.332563,53.5092958 C102.574648,52.6473239 102.830366,49.5825352 100.761634,48.3566197 L89.1250141,41.4895775 C88.3166761,41.0107042 87.791831,40.1678873 87.7209577,39.2292958 L86.7086197,25.8974648 Z" fill="#E4E9F1"></path>
                                <path d="M40.8622535,10.5352113 C29.3692958,9.76901408 19.791831,3.51492958 15.9608451,0 C12.1298592,3.83098592 2.64816901,14.3661972 4.94676056,18.1971831 C7.82,22.9859155 29.848169,26.8169014 39.4256338,26.8169014 C49.0030986,26.8169014 55.2284507,11.4929577 40.8622535,10.5352113 Z" fill="#AEB5C0"></path>
                                <path d="M162.837014,29.7092958 C175.238873,22.6985915 170.374479,36.5859155 181.517859,42.4856338 L205.116732,87.72 L17.3179718,87.72 C12.7294085,81.1594366 -9.05740845,63.6901408 4.94771831,63.6901408 C35.5956056,63.6901408 78.6941972,68.4788732 97.3702535,69.4366197 C115.072282,70.3464789 168.823887,71.7543662 165.849127,56.028169 C162.406986,37.8405634 151.529859,36.0974648 162.837014,29.7092958 Z" fill="#AEB5C0"></path>
                            </g>
                        </g>
                    </g>
                    <path d="M310.019073,485.930628 C311.410872,485.083985 313.225489,485.525921 314.072132,486.91772 C314.918776,488.30952 314.47684,490.124136 313.08504,490.97078 L308.774445,493.467686 C308.606207,493.566736 308.462655,493.652203 308.352341,493.719335 C308.1306,493.854276 307.915648,493.987788 307.707478,494.119833 L307.399,494.317 L328.319565,489.502894 C330.959601,488.895309 332.923857,491.854114 331.419401,494.038279 L331.322933,494.170999 L325.596,501.647 L348.930312,495.018353 C351.809174,494.200441 353.900699,497.674409 351.926989,499.832097 L351.813135,499.950579 L339.079896,512.573677 C337.922967,513.720598 336.055328,513.712486 334.908407,512.555558 C333.807363,511.444906 333.770798,509.679264 334.79321,508.525068 L334.926527,508.384069 L339.527,503.822 L318.652505,509.753478 C315.973768,510.514533 313.860774,507.496519 315.409228,505.253535 L315.50456,505.122523 L321.655,497.09 L300.595195,501.937106 C298.805051,502.349095 297.094212,501.044674 296.989033,499.23882 L296.983918,499.062535 C296.983918,495.014345 299.776571,492.087736 304.922636,488.902399 L305.285477,488.679729 C305.521039,488.536377 305.87415,488.328489 306.28397,488.089861 L310.019073,485.930628 Z" id="Path" fill="#AEB5C0" fill-rule="nonzero"></path>
                    <path d="M316.848394,461.633946 C309.39037,461.633946 303.727843,467.961108 303.578168,476.523222 L303.56109,478.606627 L303.503978,482.382504 L303.504274,482.77198 C303.509837,484.752547 303.623893,486.124946 303.919354,487.253531 C304.259123,488.551707 304.842022,489.474989 305.7431,490.103648 C306.715283,490.785895 308.091967,491.122673 309.966028,491.122673 C313.874038,491.122673 318.531868,489.67157 322.158146,487.256888 C326.250627,484.531754 328.647687,480.904666 328.647687,476.871549 C328.647687,472.505889 327.585758,468.705018 325.599034,465.998683 C323.521788,463.173519 320.52387,461.633946 316.848394,461.633946 Z M316.848394,467.533377 C318.633888,467.533377 319.872773,468.169604 320.844766,469.491565 C322.026538,471.101387 322.748256,473.684572 322.748256,476.871549 C322.748256,478.695527 321.47269,480.625639 318.888384,482.346496 C316.216893,484.125401 312.692982,485.223242 309.966028,485.223242 L309.617828,485.216665 L309.524,485.211 L309.507636,485.08169 L309.468602,484.682129 C309.433961,484.250682 309.412633,483.722046 309.40585,483.08249 L309.406605,481.917627 L309.468004,478.068542 L309.474561,476.871549 C309.474561,471.234568 312.728791,467.533377 316.848394,467.533377 Z" id="Path" fill="#AEB5C0" fill-rule="nonzero"></path>
                    <path d="M289.155032,474.523965 C286.668199,475.62023 285.086927,477.562488 284.522024,480.087194 C283.982067,482.505748 284.395151,485.372697 285.699239,488.300469 C286.903016,490.994791 289.613644,492.70908 293.20221,493.296345 C296.390178,493.811262 299.981645,493.376127 302.628584,492.199709 L302.908084,492.070416 C303.994551,491.549195 304.705256,490.978749 305.133805,490.335926 L304.875,490.163 L305.417,489.796 L305.469832,489.662186 L305.570171,489.303031 C305.593383,489.210528 305.599981,489.16152 305.614826,489.051254 C305.666933,488.679518 305.657082,488.255143 305.581627,487.78355 C305.455678,487.005189 305.164598,486.133769 304.665298,484.970171 L304.297442,484.140869 L303.495602,482.411155 L303.486,482.401 L303.025159,481.402163 C302.919315,481.169736 302.81817,480.945268 302.717046,480.718314 C300.103283,474.852404 294.275942,472.23211 289.155032,474.523965 Z M297.328362,483.119432 L297.859818,484.291665 L298.511613,485.692136 L298.517,485.698 L298.849178,486.412733 L299.125613,487.024814 L299.192,487.178 L299.062283,487.21592 C297.585769,487.612651 295.757291,487.733154 294.148925,487.473375 C292.36434,487.181323 291.383558,486.561045 291.086887,485.89703 C290.268569,484.059842 290.037621,482.45698 290.279406,481.373986 C290.437006,480.669628 290.771771,480.258441 291.549882,479.915412 C293.562235,479.014837 295.9848,480.104156 297.328362,483.119432 Z" id="Path" fill="#AEB5C0" fill-rule="nonzero"></path>
                    <path d="M-1.25215644e-12,542.084507 C-1.25215644e-12,512.68169 18.892507,509.099718 49.6840563,499.024225 C64.7656901,494.082254 80.1576338,489.781972 95.7746479,487.196056 C105.588676,485.567887 108.225352,494.197183 125.464789,494.197183 C140.838535,494.197183 160.018366,486.583099 163.990141,484.935775 C164.488169,484.72507 165.078141,484.543099 165.474648,484.907042 C165.570423,485.002817 165.651831,485.108169 165.711211,485.232676 C167.547211,488.99662 177.183099,509.578592 177.183099,526.042254 C177.183099,538.627042 178.261521,551.010704 174.788732,557.408451 C173.221859,560.300845 163.438479,561.871549 160.152451,561.871549 L5.32698592,561.871549 C2.38478873,561.871549 -1.25215644e-12,545.024789 -1.25215644e-12,542.084507 Z" id="Path" fill="#D0D4DB" fill-rule="nonzero"></path>
                    <g id="Clipped" transform="translate(0.000000, 481.746479)">
                        <mask id="mask-4" fill="white">
                            <use xlink:href="#path-3"></use>
                        </mask>
                        <g id="Path"></g>
                        <g id="Group" mask="url(#mask-4)" fill-rule="nonzero">
                            <g transform="translate(-22.985915, -1.915493)" id="Path">
                                <path d="M118.408113,25.8974648 C118.586254,23.5509859 121.35893,22.4016901 123.145127,23.9340845 L133.289577,32.6495775 C134.002141,33.2529577 134.968507,33.4828169 135.878366,33.2529577 L148.965972,29.8816901 C151.293296,29.2783099 153.283493,31.6343662 152.308507,33.8276056 L146.936507,45.9239437 C146.545746,46.795493 146.622366,47.8202817 147.138592,48.6247887 L154.195268,59.715493 C155.46907,61.7171831 153.904113,64.3126761 151.538479,64.1211268 L137.979662,63.0197183 C137.05831,62.9430986 136.156113,63.3166197 135.557521,64.0253521 L126.749127,74.388169 C125.211944,76.1983099 122.269746,75.4704225 121.754479,73.1526761 L118.905183,60.3284507 C118.696394,59.3802817 118.030761,58.6140845 117.131437,58.2692958 L104.784169,53.5092958 C102.541127,52.6473239 102.285408,49.5825352 104.354141,48.3566197 L115.991718,41.4895775 C116.800056,41.0107042 117.323944,40.1678873 117.395775,39.2292958 L118.408113,25.8974648 Z" fill="#E4E9F1"></path>
                                <path d="M164.253521,10.5352113 C175.746479,9.76901408 185.323944,3.51492958 189.15493,0 C192.985915,3.83098592 202.467606,14.3661972 200.169014,18.1971831 C197.295775,22.9859155 175.267606,26.8169014 165.690141,26.8169014 C156.112676,26.8169014 149.887324,11.4929577 164.253521,10.5352113 Z" fill="#AEB5C0"></path>
                                <path d="M42.2797183,29.7092958 C29.8778592,22.6985915 34.7412958,36.5859155 23.5979155,42.4856338 L0,87.72 L187.798761,87.72 C192.387324,81.1594366 214.174141,63.6901408 200.169014,63.6901408 C169.521127,63.6901408 126.422535,68.4788732 107.746479,69.4366197 C90.0444507,70.3464789 36.2918873,71.7543662 39.2676056,56.028169 C42.7087887,37.8405634 53.5868732,36.0974648 42.2797183,29.7092958 Z" fill="#AEB5C0"></path>
                            </g>
                        </g>
                    </g>
                    <path d="M91.2126566,485.002227 C92.027943,483.661976 93.7408285,483.202531 95.1094025,483.92635 L99.3901068,486.401749 C99.6336124,486.544662 99.8428919,486.668901 99.9999168,486.764453 L100.717997,487.208948 C105.63748,490.309138 108.301828,493.193037 108.301828,497.147042 C108.301828,498.983983 106.646932,500.358683 104.863492,500.056166 L104.690551,500.021613 L83.629,495.174 L89.7811868,503.20703 C91.4744165,505.41787 89.4454996,508.493036 86.7901383,507.878429 L86.6332413,507.837985 L65.757,501.906 L70.3583405,506.468654 C71.4689503,507.56974 71.5207864,509.335 70.5083955,510.497997 L70.3763034,510.640143 C69.2752174,511.750753 67.5099577,511.802589 66.3469607,510.790198 L66.2048144,510.658106 L53.4725327,498.035008 C51.3472548,495.927955 53.3478081,492.400935 56.1963318,493.061801 L56.3554347,493.10286 L79.688,499.732 L73.9628132,492.255506 C72.3156131,490.104766 74.1941251,487.090795 76.8054147,487.554621 L76.9661814,487.587401 L97.886,492.402 C97.6838622,492.271024 97.475686,492.138973 97.2607241,492.005474 L96.6707973,491.646861 C95.5144627,490.961009 92.7392079,489.383445 92.1997486,489.055287 C90.8079491,488.208644 90.366013,486.394027 91.2126566,485.002227 Z" id="Path" fill="#AEB5C0" fill-rule="nonzero"></path>
                    <path d="M88.4363944,459.718454 C84.7605863,459.718454 81.7623435,461.258367 79.6874856,464.082138 C77.6996521,466.788286 76.6380592,470.589014 76.6380592,474.956056 C76.6380592,478.989332 79.0345253,482.616503 83.1266374,485.341391 C86.7541621,487.756195 91.4119165,489.20718 95.3197183,489.20718 C97.1922761,489.20718 98.566222,488.870972 99.5452893,488.186309 C100.445023,487.555657 101.026219,486.634099 101.365483,485.337853 C101.660573,484.210688 101.77476,482.840425 101.781626,480.856406 L101.774377,479.649981 L101.713622,475.775023 L101.710617,474.956056 C101.710617,466.217568 95.9959785,459.718454 88.4363944,459.718454 Z M88.4363944,465.617885 C92.5568673,465.617885 95.8111859,469.318939 95.8111859,474.956056 L95.8176509,476.179311 L95.8782638,479.959697 C95.8816887,480.281984 95.8828306,480.554225 95.8822196,480.839888 L95.8801849,481.136623 C95.8711497,482.004231 95.8358444,482.669701 95.7771969,483.166466 L95.76,483.296 L95.667817,483.301176 C95.5612484,483.305438 95.445282,483.307749 95.3197183,483.307749 C92.5928066,483.307749 89.0686917,482.209916 86.3960668,480.430778 C83.8125864,478.71047 82.5374901,476.780548 82.5374901,474.956056 C82.5374901,471.767983 83.2588455,469.185378 84.4417785,467.574986 C85.4123993,466.254023 86.6509734,465.617885 88.4363944,465.617885 Z" id="Path" fill="#AEB5C0" fill-rule="nonzero"></path>
                    <path d="M100.110447,488.356491 L100.151942,488.420433 C100.616203,489.116824 101.411606,489.728274 102.652891,490.282314 C105.304102,491.460634 108.895568,491.89577 112.077488,491.381836 C115.672649,490.793498 118.383575,489.078789 119.58477,486.386727 C120.890727,483.457268 121.30394,480.589419 120.762712,478.171462 C120.197819,475.646801 118.617456,473.704697 116.115629,472.601771 C111.094864,470.354686 105.375561,472.850972 102.699871,478.514981 L102.131793,479.767222 L101.801,480.48 L101.787982,480.497 L100.9073,482.403831 C100.8559,482.517701 100.807818,482.625471 100.760994,482.731806 L100.489451,483.364736 C100.070798,484.372763 99.8196535,485.156051 99.7048317,485.857739 C99.6431321,486.243268 99.6244872,486.591973 99.6475143,486.916156 L99.6725764,487.154887 C99.6826529,487.227579 99.6826529,487.227579 99.7123174,487.380727 L99.7847743,487.643817 C99.8362254,487.820815 99.8744545,487.914509 99.9677281,488.092213 L100.110447,488.356491 Z M113.720779,477.993218 C114.513388,478.342689 114.847625,478.753432 115.005686,479.459848 C115.247911,480.541997 115.017091,482.143969 114.196917,483.983744 C113.901504,484.64581 112.92121,485.265863 111.130774,485.558866 L110.783916,485.608595 C109.267831,485.799227 107.594087,485.668802 106.221388,485.299543 L106.093,485.262 L106.436165,484.497996 L106.767,483.782 L106.773176,483.776643 L107.560283,482.08234 C107.69873,481.779683 107.825844,481.497844 107.956427,481.203939 C109.299922,478.188815 111.723334,477.099265 113.720779,477.993218 Z" id="Path" fill="#AEB5C0" fill-rule="nonzero"></path>
                </g>
                <g id="upper-limb" transform="translate(0.000000, 279.661972)" fill-rule="nonzero">
                    <path d="M310.873239,186.760563 C371.702592,186.760563 430.591549,164.248732 430.591549,136.478873 C430.591549,0 371.702592,0 310.873239,0 C250.043887,0 191.15493,0 191.15493,136.478873 C191.15493,164.248732 250.043887,186.760563 310.873239,186.760563 Z" id="Path" fill="#2D2427"></path>
                    <path d="M443.620006,209.097353 C464.426187,213.829054 480.747252,225.999253 491.593475,244.537893 C496.680756,253.233204 500.343897,262.822248 503.292498,274.005323 L503.566858,275.058427 C505.481815,282.497298 506.852653,289.365976 508.82749,300.745122 L511.362955,315.448872 C511.931155,318.672999 512.267036,320.435931 512.797894,323.117864 L513.184033,325.042857 C517.424104,345.807978 522.549947,358.327436 530.417939,366.639649 C540.250595,377.02745 556.910881,383.098592 585.746479,383.098592 C605.317584,383.098592 621.183099,398.964107 621.183099,418.535211 C621.183099,438.106316 605.317584,453.971831 585.746479,453.971831 C538.676392,453.971831 503.287798,441.075945 478.946498,415.360351 C468.301772,404.114631 460.304691,390.981899 454.283494,375.962918 C449.746038,364.644907 446.481466,352.786825 443.612535,338.577627 L442.848836,334.718217 C442.328418,332.042206 441.92475,329.834268 441.205869,325.697347 L439.028215,313.047554 C435.798569,294.555554 433.569276,285.986343 430.681373,280.785051 L406.647887,381.706986 L451.408169,524.449521 C453.089014,529.810986 449.853746,535.436789 444.346704,536.552563 C419.728789,541.544338 355.733127,553.577465 310.873239,553.577465 C266.013352,553.577465 202.01769,541.544338 177.399775,536.552563 C171.892732,535.436789 168.657465,529.810986 170.33831,524.449521 L215.098592,381.706986 L191.065105,280.785047 C188.11111,286.105381 185.846214,294.949551 182.494929,314.33286 L180.435088,326.303717 C179.574538,331.241237 179.172762,333.35199 178.386081,337.317726 C175.455945,352.088823 172.133896,364.312024 167.462985,375.962918 C161.441788,390.981899 153.444707,404.114631 142.799981,415.360351 C118.458681,441.075945 83.0700864,453.971831 36,453.971831 C16.4288953,453.971831 0.563380282,438.106316 0.563380282,418.535211 C0.563380282,398.964107 16.4288953,383.098592 36,383.098592 C64.8355977,383.098592 81.4958837,377.02745 91.3285402,366.639649 C99.1965318,358.327436 104.322375,345.807978 108.562446,325.042857 L109.282169,321.42002 C109.723682,319.150584 110.075996,317.227218 110.705463,313.609203 L112.918989,300.745122 C114.893826,289.365976 116.264664,282.497298 118.179621,275.058427 C121.175026,263.422436 124.906745,253.504933 130.153004,244.537893 C140.999227,225.999253 157.320292,213.829054 178.126473,209.097353 C181.521658,190.450736 195.889321,174.768383 215.690479,170.730761 L310.873239,151.323944 L406.056,170.730761 C425.857158,174.768383 440.224821,190.450736 443.620006,209.097353 Z" id="Combined-Shape" fill="#F4D5CC"></path>
                    <path d="M176.570366,332.751775 C171.395662,306.884958 188.114085,281.705803 213.960789,276.435324 L310.873239,256.676056 L407.78569,276.435324 C433.632394,281.705803 450.350817,306.884958 445.176113,332.751775 L425.802817,429.59431 C425.802817,429.59431 454.535211,496.112676 454.535211,534.422535 C454.535211,534.422535 367.473183,553.577465 310.873239,553.577465 C254.273296,553.577465 167.211268,534.422535 167.211268,534.422535 C167.211268,496.112676 195.943662,429.59431 195.943662,429.59431 L176.570366,332.751775 Z" id="Path" fill="#E0A1B2"></path>
                    <path d="M192.394932,427.426885 C195.363455,423.165619 201.171768,422.059219 205.489719,424.881953 L206.150499,425.325842 C206.424987,425.505773 206.807337,425.751333 207.295799,426.056798 L208.128916,426.57116 C209.422277,427.359859 210.911863,428.224592 212.592818,429.149614 C218.552492,432.429199 225.553142,435.727377 233.52392,438.816054 C256.411817,447.685114 282.369062,453.014085 310.873239,453.014085 C339.33932,453.014085 364.616069,447.701683 386.410087,438.87012 C393.65137,435.935744 399.983329,432.81409 405.367588,429.704006 L406.095928,429.279994 C407.99911,428.1633 409.627013,427.137429 410.974064,426.231041 L411.890005,425.603217 C412.121992,425.440487 412.280421,425.3255 412.364597,425.261854 C416.583806,422.07172 422.590265,422.905951 425.780399,427.12516 C428.970533,431.344369 428.136303,437.350829 423.917093,440.540963 L423.369979,440.94335 C422.937412,441.254733 422.369433,441.650925 421.667441,442.123272 C419.998153,443.246484 418.037311,444.482166 415.789636,445.800992 C409.468886,449.509697 402.060854,453.195876 393.603998,456.622837 C369.605762,466.347613 341.907159,472.169014 310.873239,472.169014 C279.877417,472.169014 251.602268,466.364182 226.60284,456.676904 C217.813055,453.270862 210.043458,449.610414 203.357886,445.931371 L202.093822,445.228085 C200.447656,444.301933 198.958757,443.422972 197.630191,442.60245 L196.650006,441.98947 C195.794419,441.447485 195.169132,441.031776 194.778998,440.759998 C190.438819,437.736502 189.371436,431.767065 192.394932,427.426885 Z" id="Path" fill="#B3818E"></path>
                    <path d="M195.980641,497.374573 C200.573203,494.750252 206.423642,496.345826 209.047962,500.938388 C211.62542,505.448939 210.132348,511.172845 205.727304,513.86206 L205.368955,514.07651 L204.932832,514.351686 C204.824536,514.421569 204.708786,514.497279 204.585846,514.578821 C203.64896,515.200225 202.580038,515.969614 201.411882,516.88745 C198.00263,519.566149 194.569611,522.852038 191.364966,526.743393 C182.232854,537.832386 176.788732,551.44269 176.788732,567.943662 C176.788732,573.23315 172.500755,577.521127 167.211268,577.521127 C161.92178,577.521127 157.633803,573.23315 157.633803,567.943662 C157.633803,546.733366 164.760104,528.917614 176.578696,514.566466 C180.706797,509.553772 185.130293,505.319855 189.577554,501.825578 C191.159179,500.582873 192.643623,499.514399 193.998221,498.615941 L194.495507,498.289855 C195.126336,497.881168 195.626908,497.576706 195.980641,497.374573 Z" id="Path" fill="#B3818E"></path>
                    <path d="M208.172242,496.654302 C210.837339,492.085283 216.701749,490.541849 221.270769,493.206946 C225.758198,495.824452 227.327134,501.52803 224.856878,506.05949 L224.6116,506.50259 L224.346804,507.011687 C224.194654,507.311533 224.028761,507.650417 223.851412,508.027087 C223.055846,509.716781 222.246978,511.699707 221.485192,513.941554 C219.144051,520.831257 217.803455,528.4455 217.98172,536.486901 C218.211947,546.872213 220.972989,557.210156 226.83601,567.36517 C229.480761,571.945996 227.911262,577.803485 223.330436,580.448236 C218.749609,583.092987 212.892121,581.523488 210.24737,576.942661 C202.734152,563.929434 199.131402,550.439954 198.831496,536.911432 C198.600175,526.476758 200.326079,516.674061 203.348738,507.778733 C204.349297,504.834205 205.428657,502.18817 206.521318,499.86748 C206.850365,499.168622 207.16453,498.534044 207.459173,497.965727 L207.817562,497.288903 C207.932505,497.076703 208.031777,496.898611 208.113894,496.755276 L208.172242,496.654302 Z" id="Path" fill="#B3818E"></path>
                    <path d="M163.278761,268.473577 C168.677577,252.278085 182.28907,240.180789 199.006535,236.722366 L310.873239,213.577465 L422.739944,236.722366 C439.457408,240.180789 453.068901,252.278085 458.467718,268.473577 L478.478873,328.507042 C478.478873,328.507042 461.579437,341.192394 449.746479,347.661972 C401.711662,373.926254 310.873239,366.816901 310.873239,366.816901 C310.873239,366.816901 220.035775,373.926254 172,347.661972 C160.168,341.192394 143.267606,328.507042 143.267606,328.507042 L163.278761,268.473577 Z" id="Path" fill="#ECB3C3"></path>
                    <rect id="Rectangle" fill="url(#linearGradient-5)" x="277.352113" y="86.1971831" width="67.0422535" height="110.140845" rx="33.5211268"></rect>
                    <path d="M193.549296,429.070423 C171.068973,429.070423 152.84507,447.294325 152.84507,469.774648 C152.84507,492.254971 171.068973,510.478873 193.549296,510.478873 C216.029619,510.478873 234.253521,492.254971 234.253521,469.774648 C234.253521,447.294325 216.029619,429.070423 193.549296,429.070423 Z M193.549296,448.225352 C205.450643,448.225352 215.098592,457.8733 215.098592,469.774648 C215.098592,481.675995 205.450643,491.323944 193.549296,491.323944 C181.647948,491.323944 172,481.675995 172,469.774648 C172,457.8733 181.647948,448.225352 193.549296,448.225352 Z" id="Oval" fill="#B3818E"></path>
                    <path d="M246.225352,443.43662 C223.745029,443.43662 205.521127,461.660522 205.521127,484.140845 C205.521127,506.621168 223.745029,524.84507 246.225352,524.84507 C268.705675,524.84507 286.929577,506.621168 286.929577,484.140845 C286.929577,461.660522 268.705675,443.43662 246.225352,443.43662 Z M246.225352,462.591549 C258.1267,462.591549 267.774648,472.239498 267.774648,484.140845 C267.774648,496.042192 258.1267,505.690141 246.225352,505.690141 C234.324005,505.690141 224.676056,496.042192 224.676056,484.140845 C224.676056,472.239498 234.324005,462.591549 246.225352,462.591549 Z" id="Oval" fill="#B3818E"></path>
                </g>
                <g id="head" transform="translate(94.422535, 0.000000)">
                    <path d="M216.342479,1.36103961e-14 C216.410479,1.36103961e-14 216.273521,1.36103961e-14 216.342479,1.36103961e-14 C259.253352,1.36103961e-14 323.510479,12.1483437 350.62907,68.0004789 C364.938761,97.4727324 372.231042,118.321915 369.797408,154.197183 C340.031606,116.341296 259.141296,90.9860113 216.341521,90.9860113 C162.295887,90.9860113 105.231437,121.480563 62.8865915,154.197183 C60.9471549,118.150479 67.7452394,97.4727324 82.0549296,68.0004789 C109.173521,12.1482479 172.312958,1.36103961e-14 216.342479,1.36103961e-14 Z" id="Path" fill="#B3818E"></path>
                    <path d="M218.366197,274.873239 C334.184563,274.873239 436.732394,277.904507 436.732394,225.070423 C436.732394,146.42507 334.184563,63.2112676 218.366197,63.2112676 C102.547831,63.2112676 0,146.42507 0,225.070423 C0,277.904507 102.547831,274.873239 218.366197,274.873239 Z" id="Path" fill="#ECB3C3" fill-rule="nonzero"></path>
                    <path d="M368.732394,308.394366 C389.889972,308.394366 407.042254,291.242085 407.042254,270.084507 C407.042254,248.92693 389.889972,231.774648 368.732394,231.774648 C347.574817,231.774648 330.422535,248.92693 330.422535,270.084507 C330.422535,291.242085 347.574817,308.394366 368.732394,308.394366 Z" id="Path" fill="#EFC6BD" fill-rule="nonzero"></path>
                    <path d="M64.1690141,308.394366 C43.0114366,308.394366 25.8591549,291.242085 25.8591549,270.084507 C25.8591549,248.92693 43.0114366,231.774648 64.1690141,231.774648 C85.3265915,231.774648 102.478873,248.92693 102.478873,270.084507 C102.478873,291.242085 85.3265915,308.394366 64.1690141,308.394366 Z" id="Path" fill="#EFC6BD" fill-rule="nonzero"></path>
                    <path d="M72.7887324,186.760563 C72.7887324,107.417972 137.108113,43.0985915 216.450704,43.0985915 C295.793296,43.0985915 360.112676,107.417972 360.112676,186.760563 L360.112676,252.245521 L355.537521,292.516845 C347.504901,363.213859 287.68693,416.619718 216.534986,416.619718 C146.955662,416.619718 87.9517746,365.484676 78.0592113,296.612169 L74.4896901,271.752901 C73.3566761,263.86969 72.7887324,255.915606 72.7887324,247.950986 L72.7887324,186.760563 Z" id="Path" fill="#F4D5CC" fill-rule="nonzero"></path>
                    <path d="M260.298208,327.851191 C261.718322,325.62006 264.678241,324.962601 266.909372,326.382715 C269.140503,327.802829 269.797963,330.762748 268.377848,332.993879 C265.477827,337.550082 258.907401,342.761023 250.669815,346.717588 C240.571475,351.567883 228.591425,354.366197 215.431662,354.366197 C202.277564,354.366197 190.941856,351.582518 181.458404,346.649251 C174.262854,342.906145 168.594855,338.153317 164.816092,333.40411 C163.169414,331.33454 163.512235,328.321925 165.581806,326.675247 C167.651376,325.028569 170.66399,325.37139 172.310669,327.440961 C175.270212,331.16056 179.899805,335.042645 185.878314,338.15265 C193.999482,342.377261 203.819486,344.788732 215.431662,344.788732 C227.137216,344.788732 237.702783,342.320815 246.5232,338.084314 C253.122117,334.914813 258.235561,330.9063 260.168531,328.048668 L260.298208,327.851191 Z" id="Path" fill="#C99584" fill-rule="nonzero"></path>
                    <circle id="Oval" fill="#F2CACA" fill-rule="nonzero" cx="125.464789" cy="289.239437" r="28.7323944"></circle>
                    <path d="M158.985915,217.408451 C161.630659,217.408451 163.774648,219.552439 163.774648,222.197183 C163.774648,224.770447 161.744985,226.869658 159.199224,226.98125 L158.985915,226.985915 L130.253521,226.985915 C127.608777,226.985915 125.464789,224.841927 125.464789,222.197183 C125.464789,219.623919 127.494452,217.524708 130.040212,217.413117 L130.253521,217.408451 L158.985915,217.408451 Z" id="Path" fill="#000000" fill-rule="nonzero"></path>
                    <path d="M302.647887,217.408451 C305.292631,217.408451 307.43662,219.552439 307.43662,222.197183 C307.43662,224.770447 305.406956,226.869658 302.861196,226.98125 L302.647887,226.985915 L273.915493,226.985915 C271.270749,226.985915 269.126761,224.841927 269.126761,222.197183 C269.126761,219.623919 271.156424,217.524708 273.702184,217.413117 L273.915493,217.408451 L302.647887,217.408451 Z" id="Path" fill="#000000" fill-rule="nonzero"></path>
                    <path d="M273.915493,209.746479 C280.165226,209.746479 285.249841,214.734944 285.404811,220.947348 L285.408451,221.239437 L285.408451,249.971831 C285.408451,256.319216 280.262878,261.464789 273.915493,261.464789 C267.66576,261.464789 262.581145,256.476324 262.426175,250.26392 L262.422535,249.971831 L262.422535,221.239437 C262.422535,214.892051 267.568108,209.746479 273.915493,209.746479 Z" id="Path" fill="#000000" fill-rule="nonzero"></path>
                    <path d="M158.989746,209.746479 C165.23948,209.746479 170.324094,214.734944 170.479065,220.947348 L170.482704,221.239437 L170.482704,249.971831 C170.482704,256.319216 165.337132,261.464789 158.989746,261.464789 C152.740013,261.464789 147.655398,256.476324 147.500428,250.26392 L147.496789,249.971831 L147.496789,221.239437 C147.496789,214.892051 152.642361,209.746479 158.989746,209.746479 Z" id="Path" fill="#000000" fill-rule="nonzero"></path>
                    <path d="M257.935831,174.317802 L312.52738,177.191041 C315.696686,177.357847 318.130694,180.0623 317.963888,183.231606 C317.800962,186.327207 315.217046,188.721312 312.143658,188.675555 L311.923324,188.668114 L257.331775,185.794874 C254.162469,185.628069 251.728461,182.923616 251.895267,179.75431 C252.058193,176.658709 254.642109,174.264604 257.715497,174.310361 L257.935831,174.317802 Z" id="Path" fill="#271E1E" fill-rule="nonzero"></path>
                    <path d="M174.965577,174.317802 C178.134883,174.150996 180.839336,176.585004 181.006142,179.75431 C181.169068,182.849911 178.850743,185.502029 175.789532,185.779145 L175.569634,185.794874 L120.978085,188.668114 C117.808779,188.834919 115.104326,186.400912 114.93752,183.231606 C114.774594,180.136004 117.092919,177.483887 120.15413,177.20677 L120.374028,177.191041 L174.965577,174.317802 Z" id="Path" fill="#271E1E" fill-rule="nonzero"></path>
                    <circle id="Oval" fill="#F2CACA" fill-rule="nonzero" cx="307.43662" cy="289.239437" r="28.7323944"></circle>
                    <path d="M209.677112,240.66737 L223.224297,249.698827 C218.620004,256.605265 215.014085,266.972285 215.014085,274.514085 C215.014085,281.783261 217.638046,284.840568 225.670288,284.927658 L226.028169,284.929577 L226.028169,301.211268 C208.268562,301.211268 198.732394,290.483079 198.732394,274.514085 C198.732394,263.69981 203.229808,250.573122 209.336229,241.185045 L209.677112,240.66737 Z" id="Path" fill="#EBBAAA" fill-rule="nonzero"></path>
                    <path d="M311.604732,189.128113 C292.488113,176.496394 256.485465,124.534817 240.873239,100.133352 C331.200225,76.6887718 368.955549,143.673465 376.602197,189.128113 C384.248845,234.581803 368.955549,312.097014 375.646366,309.226648 C380.999211,306.929972 386.479437,304.445577 389.028,302.532 C390.620732,367.922141 408.266254,487.781239 389.028,497.258141 C363.774141,509.69831 292.085859,510.655099 304.033746,477.162704 C315.981634,443.67031 351.272676,231.232563 347.449352,220.228056 C343.626028,209.223549 335.501465,204.917521 311.604732,189.128113 Z" id="Path" fill="#2D2427" fill-rule="nonzero"></path>
                    <path d="M121.296676,189.128113 C140.413296,176.496394 176.415944,124.534817 192.028169,100.133352 C101.701183,76.6887718 63.9458592,143.673465 56.2992113,189.128113 C48.6525634,234.581803 63.9458592,312.097014 57.2550423,309.226648 C51.9021972,306.929972 46.4219718,304.445577 43.8734085,302.532 C42.2806761,367.922141 24.6351549,487.781239 43.8734085,497.258141 C69.1272676,509.69831 140.815549,510.655099 128.867662,477.162704 C116.919775,443.67031 81.6287324,231.232563 85.4520563,220.228056 C89.2753803,209.223549 97.3999437,204.917521 121.296676,189.128113 Z" id="Path" fill="#2D2427" fill-rule="nonzero"></path>
                    <path d="M216.38462,35.4365772 C216.448789,35.4365772 216.320451,35.4365772 216.38462,35.4365772 C274.215268,35.4365772 367.098479,59.6591775 359.696056,141.746479 C331.897465,115.151775 256.354254,99.3575775 216.38462,99.3575775 C165.91138,99.3575775 112.619493,118.762479 73.0741408,141.746479 C67.059493,57.640631 157.552169,35.4365772 216.38462,35.4365772 Z" id="Path" fill="#ECB3C3"></path>
                </g>
            </g>
        </g>
    </g>
</svg>