<?xml version="1.0" encoding="UTF-8"?>
<svg width="510px" height="1424px" viewBox="0 0 510 1424" version="1.1" xmlns="http://www.w3.org/2000/svg" xmlns:xlink="http://www.w3.org/1999/xlink">
    <!-- Generator: Sketch 55.2 (78181) - https://sketchapp.com -->
    <title>gee_me_10</title>
    <desc>Created with Sketch.</desc>
    <defs>
        <path d="M7.127,0.228 L168.551,0.228 L141.183,292.04 L121.134,463.11 C121.134,463.11 98.996,467.76 80.692,467.24 C62.388,466.72 41.642,463.11 41.642,463.11 L12.356,308.78 L12.356,128.129 L0.155,113.998 L7.127,0.228 Z" id="path-1"></path>
        <path d="M161.826,0 L0.402,0 L27.77,291.812 L47.819,462.882 C47.819,462.882 69.957,467.532 88.261,467.012 C106.565,466.492 127.31,462.882 127.31,462.882 L156.596,308.552 L156.596,127.9 L168.798,113.769 L161.826,0 Z" id="path-3"></path>
        <path d="M68.11,37.35 C46.051,36.93 36.238,30.61 27.591,16.45 L16.783,16.45 C7.086,16.45 19.216,26.38 16.783,37.35 C13.539,51.98 10.8,49.89 7.556,63.47 C5.31,72.87 4.853,86.98 10.259,94.81 C18.656,106.99 29.183,105.79 47.025,105.79 C57.298,105.79 74.599,103.17 90.279,107.35 C112.17,113.19 172.461,116.23 187.601,111.53 C213.4,103.52 205.443,80.19 194.631,71.31 C175.654,55.72 138.999,56.79 129.749,44.66 C122.18,34.74 117.872,10.78 112.447,4.96 C102.715,-5.49 96.104,3.71 97.849,13.84 C100.01,26.38 95.685,37.87 68.11,37.35 Z" id="path-5"></path>
        <path d="M68.11,37.35 C46.051,36.93 36.238,30.61 27.591,16.45 L16.783,16.45 C7.086,16.45 19.216,26.38 16.783,37.35 C13.539,51.98 10.8,49.89 7.556,63.47 C5.31,72.87 4.853,86.98 10.259,94.81 C18.656,106.99 29.183,105.79 47.025,105.79 C57.298,105.79 74.599,103.17 90.279,107.35 C112.17,113.19 172.461,116.23 187.601,111.53 C213.4,103.52 205.443,80.19 194.631,71.31 C175.654,55.72 138.999,56.79 129.749,44.66 C122.18,34.74 117.872,10.78 112.447,4.96 C102.715,-5.49 96.104,3.71 97.849,13.84 C100.01,26.38 95.685,37.87 68.11,37.35 Z" id="path-7"></path>
    </defs>
    <g id="GEE!-ME" stroke="none" stroke-width="1" fill="none" fill-rule="evenodd">
        <g id="gee_me_010" transform="translate(-345.000000, -88.000000)">
            <g id="gee_me_10" transform="translate(345.000000, 88.000000)">
                <g id="lower-limb" transform="translate(40.000000, 844.000000)">
                    <g id="Group-5" transform="translate(59.000000, 0.000000)">
                        <ellipse id="Oval" fill="#384138" fill-rule="nonzero" cx="153.385" cy="122.08" rx="133.357" ry="57.0035"></ellipse>
                        <path d="M60.0055423,263.375289 C58.8755514,282.302098 57.5882179,300.359249 56.0382355,319.613073 C54.9094752,333.634491 51.2167798,376.290287 51.1026607,377.65125 C49.3290023,398.803556 48.2468887,414.226826 47.5580866,429.473669 C46.5728886,451.281324 46.4939735,471.669178 47.4261941,493.263541 C48.2234396,511.731283 63.8407981,526.056051 82.3085407,525.258806 C100.776283,524.46156 115.101051,508.844202 114.303806,490.376459 C113.459497,470.818525 113.530814,452.393608 114.429781,432.494711 C115.072827,418.260699 116.100446,403.614128 117.808463,383.24465 C117.907508,382.063464 121.614097,339.247174 122.762277,324.98453 C124.347462,305.293418 125.667196,286.781784 126.826458,267.364711 C127.928106,248.912625 113.862797,233.061191 95.4107111,231.959542 C76.9586249,230.857894 61.1071909,244.923203 60.0055423,263.375289 Z" id="Path" fill="#2C2F34" fill-rule="nonzero"></path>
                        <g id="Clipped">
                            <mask id="mask-2" fill="white">
                                <use xlink:href="#path-1"></use>
                            </mask>
                            <use id="Path" fill="#384138" fill-rule="nonzero" xlink:href="#path-1"></use>
                            <g id="Group" mask="url(#mask-2)" fill-rule="nonzero">
                                <g transform="translate(-23.000000, 128.000000)" id="Path">
                                    <path d="M109.549,142.72 C106.775,145.5 97.144,150.65 98.864,151.28 C95.809,151.9 85.158,159.81 72.702,139.86 C62.601,130.09 61.007,136.33 51.843,138.19 C44.511,139.68 36.668,132.41 33.663,128.58 C41.3,127.03 58.072,128 67.722,115.39 C79.785,99.62 72.092,120.7 94.424,113.2 C116.756,105.7 106.061,113.85 109.726,113.1 C121.879,116.55 120.646,131.59 109.549,142.72 Z" fill="#7C6832"></path>
                                    <path d="M138.686,224.51 C135.072,226.05 132.454,228.45 125.571,228.45 C122.506,227.88 109.67,231.22 105.592,208.06 C99.889,195.21 96.074,200.4 86.878,198.69 C79.522,197.33 74.976,187.64 73.623,182.97 C81.286,184.39 96.472,191.58 110.144,183.5 C127.234,173.4 112.248,193.47 135.722,191.47 C150.758,190.19 148.126,198.92 151.803,199.61 C161.781,207.35 153.144,218.35 138.686,224.51 Z" fill="#7C6832"></path>
                                    <path d="M83.646,297.98 C88.439,300.03 102.837,301.57 101.038,303.2 C105.103,302.45 136.983,317.13 142.391,286.42 C149.954,269.38 140.156,266.01 152.35,263.75 C162.106,261.94 168.134,249.09 169.929,242.9 C159.767,244.78 139.628,254.31 121.497,243.6 C98.833,230.2 118.763,252.3 87.577,254.17 C56.39,256.04 73.592,260.75 68.715,261.66 C55.483,271.93 64.472,289.81 83.646,297.98 Z" fill="#7C6832"></path>
                                    <path d="M60.283,177.64 C63.943,176.07 66.036,172.41 72.311,172.41 C85.387,172.41 90.824,169.07 100.029,184.96 C108.919,193.33 112.057,189.15 122.516,189.15 C130.884,189.15 137.857,195.42 140.297,198.56 C131.581,198.56 110.802,200.44 97.414,207.97 C80.679,217.39 92.184,187.06 66.036,189.15 C39.888,191.24 57.668,198.56 53.485,198.56 C40.934,194.38 45.64,183.92 60.283,177.64 Z" fill="#B69B55"></path>
                                    <path d="M127.226,254.29 C123.71,252.78 107.491,269.98 107.757,270.72 C104.205,270.38 96.059,255.01 86.957,270.73 C78.067,279.1 75.452,265.79 64.992,265.79 C56.625,265.79 49.652,272.07 47.211,275.21 C55.928,275.21 76.707,277.09 90.095,284.62 C106.83,294.03 97.417,273.12 123.565,275.21 C149.713,277.3 139.255,265.79 143.438,265.79 C155.989,261.61 141.869,260.56 127.226,254.29 Z" fill="#B69B55"></path>
                                    <path d="M158.08,118.96 C155.204,116.4 141.427,136.63 142.286,135.1 C140.075,135.51 128.956,106.18 128.742,137.6 C126.064,154.62 122.594,147 115.961,148.23 C110.655,149.22 108.453,162.01 108.015,168.29 C113.542,167.26 123.964,159.21 135.118,172.01 C149.061,188.01 134.036,153.19 151.357,154.11 C168.679,155.03 167.137,158.58 169.79,158.08 C176.27,148.62 169.586,129.22 158.08,118.96 Z" fill="#B69B55"></path>
                                    <path d="M68.528,159.38 C65.921,160.5 63.945,162.22 59.068,162.22 C56.857,161.81 47.598,164.22 44.657,147.52 C40.543,138.25 37.791,141.99 31.158,140.76 C25.851,139.78 22.573,132.79 21.596,129.42 C27.124,130.45 38.078,135.63 47.94,129.8 C60.267,122.52 50.295,130.1 66.39,135.55 C70.221,136.85 73.882,137.48 76.649,139.62 C83.847,145.21 78.957,154.94 68.528,159.38 Z" fill="#B69B55"></path>
                                    <path d="M54.931,105.4 C52.324,106.51 44.492,107.35 45.471,108.24 C43.26,107.83 34.001,110.24 31.059,93.53 C26.945,84.26 24.194,88.01 17.561,86.78 C12.254,85.79 8.975,78.81 7.999,75.44 C13.527,76.46 24.481,81.64 34.343,75.82 C46.67,68.53 35.83,80.55 52.793,81.57 C69.756,82.58 60.399,85.15 63.052,85.64 C70.25,91.23 65.36,100.95 54.931,105.4 Z" fill="#B69B55"></path>
                                    <path d="M84.694,78.57 C80.968,76.98 72.143,78.57 64.298,84.32 C56.977,93.22 55.931,102.63 46.516,90.08 C40.637,103.32 35.405,95.01 25.926,96.77 C18.343,98.17 16.012,107.62 14.617,112.43 C22.517,110.97 34.054,111.2 50.179,108.38 C77.113,103.67 55.548,92.56 79.465,96.77 C84.341,97.63 87.147,99.1 90.938,98.39 C101.224,90.41 99.598,84.93 84.694,78.57 Z" fill="#67774C"></path>
                                    <path d="M121.528,93.64 C125.659,89.87 134.493,91.41 141.573,101.29 C147.553,117.41 151.877,118.85 159.125,114.36 C165.924,128.38 169.517,117.09 178.996,118.85 C186.579,120.26 187.307,138.35 187.891,147.54 C179.992,146.08 168.033,148.58 151.877,145.93 C124.893,141.5 148.474,126.91 123.692,128.38 C115.719,128.85 114.673,132.67 105.783,131.62 C96.579,117.8 105.002,108.75 121.528,93.64 Z" fill="#67774C"></path>
                                    <path d="M71.668,203.22 C67.473,199.97 58.224,201.61 50.559,210.61 C43.86,225.15 43.949,241.41 32.25,218.34 C27.656,240.65 20.982,225.51 11.054,227.35 C3.111,228.82 1.828,244.96 0.953,253.17 C9.227,251.63 21.616,253.52 38.528,250.68 C66.775,245.95 40.256,234.58 66.037,235.17 C71.668,235.3 68.129,247.2 80.906,238.54 C91.14,227.35 88.451,216.2 71.668,203.22 Z" fill="#67774C"></path>
                                    <path d="M36.864,44.16 C40.479,45.7 43.096,48.1 49.979,48.1 C53.044,47.53 65.881,50.87 69.958,27.71 C75.662,14.86 79.477,20.05 88.672,18.35 C96.029,16.98 100.574,7.3 101.927,2.62 C94.265,4.04 79.078,11.23 65.407,3.15 C48.317,-6.948 63.302,13.12 39.828,11.12 C24.792,9.84 27.425,18.58 23.747,19.26 C13.769,27 22.406,38 36.864,44.16 Z" fill="#7C6832"></path>
                                    <path d="M136.638,40.92 C132.978,39.35 130.884,35.69 124.609,35.69 C111.534,35.69 106.096,32.34 96.892,48.24 C88.002,56.61 84.864,52.42 74.404,52.42 C66.037,52.42 59.064,58.7 56.623,61.84 C65.34,61.84 86.119,63.72 99.507,71.25 C116.242,80.66 104.737,50.33 130.884,52.42 C157.032,54.51 139.253,61.84 143.436,61.84 C155.987,57.65 151.281,47.19 136.638,40.92 Z" fill="#B69B55"></path>
                                    <path d="M140.938,32.73 C145.133,29.49 154.382,31.12 162.047,40.12 C168.746,54.66 168.657,70.92 180.355,47.85 C184.95,70.16 191.623,55.02 201.552,56.86 C209.494,58.33 210.777,74.47 211.652,82.68 C203.379,81.14 190.99,83.03 174.078,80.2 C145.831,75.46 172.35,64.09 146.569,64.68 C140.938,64.81 144.476,76.71 131.7,68.05 C121.466,56.86 124.155,45.71 140.938,32.73 Z" fill="#67774C"></path>
                                    <path d="M74.003,306.77 C78.199,303.52 87.448,305.15 95.113,314.16 C101.812,328.7 101.722,344.96 113.421,321.89 C118.016,344.2 124.689,329.05 134.618,330.89 C142.56,332.37 143.843,348.51 144.718,356.71 C136.444,355.18 124.056,357.07 107.144,354.23 C78.897,349.5 103.047,337.19 77.265,337.78 C67.372,338 63.816,338.8 62.965,339.65 C63.409,340.3 63.887,340.96 64.401,341.62 C65.268,342.07 65.932,342.3 64.766,342.08 C64.643,341.93 64.521,341.77 64.401,341.62 C63.448,341.12 62.25,340.37 62.965,339.65 C55.156,328.21 58.318,318.9 74.003,306.77 Z" fill="#67774C"></path>
                                </g>
                            </g>
                        </g>
                        <path d="M184.125523,267.364394 C185.285082,286.789533 186.605271,305.307719 188.191202,325.006711 C189.338971,339.263244 193.044716,382.067757 193.142726,383.236497 C194.850154,403.597078 195.877579,418.236954 196.52087,432.46462 C197.421063,452.374153 197.492857,470.807635 196.648185,490.376657 C195.851049,508.844405 210.17591,524.461678 228.643657,525.258815 C247.111405,526.055951 262.728678,511.73109 263.525815,493.263343 C264.458418,471.657131 264.378977,451.26002 263.392452,429.441079 C262.703401,414.201349 261.62151,398.785389 259.848485,377.642585 C259.735406,376.294147 256.043567,333.650263 254.915213,319.634879 C253.364513,300.373487 252.076747,282.310111 250.946477,263.375606 C249.845003,244.923509 233.993702,230.85805 215.541606,231.959523 C197.089509,233.060997 183.02405,248.912298 184.125523,267.364394 Z" id="Path" fill="#2C2F34" fill-rule="nonzero"></path>
                        <g id="Group-4" transform="translate(142.000000, 0.228000)">
                            <mask id="mask-4" fill="white">
                                <use xlink:href="#path-3"></use>
                            </mask>
                            <use id="Path" fill="#384138" fill-rule="nonzero" xlink:href="#path-3"></use>
                            <g id="Group" mask="url(#mask-4)" fill-rule="nonzero">
                                <g transform="translate(-49.000000, 110.772000)" id="Path">
                                    <path d="M144.667,176.46 C147.44,179.24 157.072,184.38 155.352,185.02 C158.407,185.64 169.057,193.55 181.514,173.6 C191.615,163.82 193.209,170.06 202.373,171.93 C209.704,173.42 217.548,166.14 220.553,162.31 C212.916,160.76 196.144,161.73 186.494,149.12 C174.431,133.36 182.124,154.43 159.792,146.93 C137.459,139.43 148.155,147.58 144.49,146.84 C132.337,150.28 133.57,165.32 144.667,176.46 Z" fill="#7C6832"></path>
                                    <path d="M142.969,242.11 C139.355,243.65 136.738,246.04 129.855,246.04 C126.79,245.47 113.953,248.82 109.875,225.66 C104.172,212.81 100.357,217.99 91.162,216.29 C83.805,214.93 79.26,205.24 77.906,200.57 C85.569,201.99 100.755,209.17 114.427,201.1 C131.517,191 116.531,211.06 140.005,209.07 C155.041,207.79 152.409,216.52 156.086,217.2 C166.065,224.95 157.428,235.94 142.969,242.11 Z" fill="#7C6832"></path>
                                    <path d="M195.661,230.26 C200.453,232.31 214.852,233.85 213.053,235.48 C217.117,234.73 248.998,249.41 254.406,218.7 C261.969,201.66 252.171,198.29 264.365,196.03 C274.121,194.22 280.149,181.37 281.944,175.18 C271.782,177.06 251.643,186.59 233.512,175.88 C210.848,162.48 230.778,184.58 199.591,186.45 C168.405,188.32 185.607,193.03 180.73,193.93 C167.498,204.21 176.487,222.09 195.661,230.26 Z" fill="#7C6832"></path>
                                    <path d="M142.632,272.13 C146.147,270.63 162.367,287.82 162.1,288.57 C165.652,288.22 173.799,272.85 182.9,288.57 C191.791,296.94 194.406,283.64 204.865,283.64 C213.233,283.64 220.206,289.91 222.646,293.05 C213.93,293.05 193.151,294.94 179.763,302.47 C163.028,311.88 172.44,290.96 146.292,293.05 C120.145,295.14 130.602,283.64 126.42,283.64 C113.868,279.46 127.989,278.41 142.632,272.13 Z" fill="#B69B55"></path>
                                    <path d="M67.982,136.34 C70.858,133.78 84.634,154.01 83.776,152.48 C85.987,152.89 97.106,123.56 97.319,154.99 C99.997,172 103.467,164.39 110.1,165.62 C115.406,166.6 117.609,179.4 118.046,185.67 C112.519,184.65 102.097,176.59 90.943,189.39 C77.001,205.39 92.026,170.57 74.704,171.49 C57.382,172.41 58.924,175.96 56.271,175.47 C49.792,166.01 56.476,146.6 67.982,136.34 Z" fill="#B69B55"></path>
                                    <path d="M149.446,239.29 C152.052,240.4 154.028,242.13 158.906,242.13 C161.116,241.72 170.376,244.13 173.317,227.43 C177.431,218.16 180.183,221.9 186.816,220.67 C192.122,219.69 195.401,212.7 196.377,209.33 C190.85,210.35 179.896,215.54 170.034,209.71 C157.707,202.43 167.678,210.01 151.584,215.46 C147.753,216.76 144.092,217.39 141.324,219.53 C134.127,225.12 139.016,234.85 149.446,239.29 Z" fill="#B69B55"></path>
                                    <path d="M186.021,122.4 C188.628,123.51 196.459,124.35 195.481,125.24 C197.692,124.83 206.951,127.24 209.892,110.53 C214.006,101.26 216.758,105.01 223.391,103.78 C228.697,102.79 231.976,95.81 232.952,92.44 C227.425,93.46 216.471,98.64 206.609,92.82 C194.282,85.53 205.122,97.55 188.159,98.57 C171.196,99.58 180.552,102.15 177.9,102.64 C170.702,108.23 175.592,117.95 186.021,122.4 Z" fill="#B69B55"></path>
                                    <path d="M156.258,95.57 C159.983,93.98 168.808,95.57 176.654,101.32 C183.974,110.22 185.021,119.63 194.435,107.08 C200.314,120.32 205.546,112.01 215.025,113.77 C222.608,115.17 224.939,124.61 226.334,129.43 C218.435,127.97 206.898,128.2 190.772,125.38 C163.839,120.67 185.404,109.56 161.487,113.77 C156.61,114.63 153.805,116.1 150.014,115.39 C139.728,107.41 141.354,101.93 156.258,95.57 Z" fill="#67774C"></path>
                                    <path d="M135.2,121.6 C131.069,117.82 124.4,98.64 117.319,108.52 C111.339,124.65 107.015,126.09 99.767,121.6 C92.968,135.61 89.375,124.33 79.896,126.09 C72.313,127.49 71.585,145.58 71.001,154.77 C78.901,153.31 90.859,155.82 107.015,153.16 C133.999,148.73 110.418,134.15 135.2,135.61 C143.173,136.08 144.219,139.9 153.109,138.85 C162.314,125.04 151.726,136.7 135.2,121.6 Z" fill="#67774C"></path>
                                    <path d="M89.786,262.06 C93.981,258.81 103.231,260.44 110.895,269.45 C117.594,283.99 117.505,300.24 129.204,277.18 C133.799,299.48 140.472,284.34 150.4,286.18 C158.343,287.65 159.626,303.79 160.501,312 C152.227,310.47 139.839,312.35 122.927,309.52 C94.68,304.79 121.199,293.42 95.417,294 C89.786,294.13 93.325,306.03 80.549,297.37 C70.314,286.18 73.003,275.04 89.786,262.06 Z" fill="#67774C"></path>
                                    <path d="M107.408,44.43 C103.794,45.97 101.177,48.36 94.294,48.36 C91.229,47.79 63.416,50.45 59.339,27.29 C53.635,14.442 46.569,21.22 37.374,19.52 C30.017,18.16 43.699,7.559 42.345,2.887 C50.008,4.307 65.194,11.493 78.866,3.414 C95.956,-6.684 80.97,13.382 104.444,11.386 C119.481,10.107 116.848,18.84 120.525,19.52 C130.504,27.27 121.867,38.26 107.408,44.43 Z" fill="#7C6832"></path>
                                    <path d="M104.314,84.54 C107.974,86.11 110.067,89.77 116.342,89.77 C129.418,89.77 134.855,93.12 144.06,77.22 C152.95,68.85 156.088,73.04 166.547,73.04 C174.915,73.04 181.888,66.76 184.328,63.62 C175.612,63.62 154.833,61.74 141.445,54.21 C124.71,44.8 136.215,75.13 110.067,73.04 C83.919,70.95 101.699,63.62 97.516,63.62 C84.965,67.81 89.671,78.27 104.314,84.54 Z" fill="#B69B55"></path>
                                    <path d="M70.722,76.92 C66.526,73.68 57.277,75.31 49.613,84.32 C42.913,98.86 43.003,115.11 31.304,92.05 C26.709,114.35 20.036,99.21 10.107,101.05 C2.165,102.52 0.882,118.66 0.007,126.87 C8.281,125.34 20.669,127.22 37.581,124.39 C65.828,119.66 39.309,108.29 65.091,108.87 C70.722,109 67.183,120.9 79.959,112.24 C90.193,101.05 87.505,89.9 70.722,76.92 Z" fill="#67774C"></path>
                                    <path d="M235.98,3.709 C231.784,0.465 222.535,2.096 214.871,11.103 C208.171,25.64 208.261,41.9 196.562,18.83 C191.967,41.14 185.294,26 175.366,27.84 C167.423,29.31 166.14,45.45 165.265,53.65 C173.539,52.12 185.927,54.01 202.839,51.17 C231.086,46.44 204.567,35.07 230.349,35.66 C235.98,35.79 232.441,47.69 245.217,39.03 C255.451,27.84 252.763,16.69 235.98,3.709 Z" fill="#67774C"></path>
                                    <path d="M166.948,323.77 C162.753,320.52 153.503,322.15 145.839,331.16 C139.14,345.7 139.229,361.96 127.53,338.89 C122.935,361.2 116.262,346.05 106.334,347.89 C98.391,349.37 97.108,365.5 96.233,373.71 C104.507,372.18 116.895,374.06 133.808,371.23 C162.054,366.5 137.905,354.19 163.686,354.78 C173.579,355 177.136,355.8 177.986,356.65 C177.543,357.3 177.064,357.95 176.55,358.62 C175.683,359.07 175.02,359.3 176.185,359.08 C176.309,358.93 176.431,358.77 176.55,358.62 C177.503,358.12 178.701,357.37 177.986,356.65 C185.796,345.21 182.633,335.9 166.948,323.77 Z" fill="#67774C"></path>
                                </g>
                            </g>
                        </g>
                        <path d="M44.641,468.19 C40.016,466.29 38.159,453.17 37.809,446.84 C79.429,451.11 111.492,447.87 123.053,446.1 C123.053,456.03 123.053,459 121.5,466 C100.193,472.37 50.421,470.56 44.641,468.19 Z" id="Path" fill="#675D40" fill-rule="nonzero"></path>
                        <path d="M189.999,464 C188.378,459.5 187.729,452.87 187.378,446.54 C228.999,450.81 261.061,447.58 272.622,445.8 C272.622,455.73 274.087,459.92 267.781,467.14 C246.474,473.51 195.78,466.37 189.999,464 Z" id="Path" fill="#675D40" fill-rule="nonzero"></path>
                    </g>
                    <g id="Group-3" transform="translate(224.000000, 458.000000)">
                        <g id="Clipped">
                            <path d="M204.964,107.26 C206.895,102.91 205.505,93.2 204.424,91.58 C203.342,89.96 72.018,79.69 72.018,79.69 C50.221,78.07 5.718,67.96 2.732,79.69 C-7.448,119.68 19.603,119.68 36.896,119.68 C60.674,119.68 63.496,113.39 79.043,115.36 C87.149,116.39 99.039,121.84 153.621,121.84 C197.397,121.84 200.64,116.98 204.964,107.26 Z" id="Path" fill="#29282D" fill-rule="nonzero"></path>
                            <mask id="mask-6" fill="white">
                                <use xlink:href="#path-5"></use>
                            </mask>
                            <use id="Path" fill="#504D5A" fill-rule="nonzero" xlink:href="#path-5"></use>
                            <path d="M181.188,90.5 C191.131,90.5 193.617,84.38 193.617,81.32 C194.338,90.86 194.158,111.36 187.673,116.98 C179.566,124.01 119.04,120.23 110.934,116.98 C102.827,113.74 123.299,105.99 129.575,105.99 C137.824,105.99 148.222,104.01 156.869,97.53 C165.516,91.04 168.758,90.5 181.188,90.5 Z" id="Path" fill="#29282D" fill-rule="nonzero" mask="url(#mask-6)"></path>
                            <path d="M91.145,77.44 C98.124,79.72 103.829,79.71 107.165,77.34 C115.761,71.18 110.874,60.99 108.788,56.99 C112.642,61.94 116.47,66.91 119.392,72.27 C124.004,80.65 125.721,89.7 122.118,95.3 C115.657,105.4 101.424,99.99 92.401,95.42 L8.667,53 L91.145,77.44 Z" id="Path" fill="#29282D" fill-rule="nonzero" mask="url(#mask-6)"></path>
                            <path d="M191.995,78.07 C192.428,71.59 195.058,70.33 196.319,70.51 L214.152,71.59 L211.991,104.01 L189.293,116.98 C184.97,116.8 176.323,114.82 176.323,108.34 C176.323,100.23 184.43,100.23 189.293,95.37 C194.157,90.5 191.455,86.18 191.995,78.07 Z" id="Path" fill="#29282D" fill-rule="nonzero" mask="url(#mask-6)"></path>
                            <path d="M104.449,16.47 C103.152,8.68 100.666,3.86 99.585,2.41 L101.746,-2.99 L114.177,-2.99 C119.941,2.05 129.632,14.41 122.283,23.49 C113.096,34.84 106.07,26.19 104.449,16.47 Z" id="Path" fill="#7F8389" fill-rule="nonzero" mask="url(#mask-6)"></path>
                        </g>
                        <path d="M120.31255,62.4590841 C120.093396,65.3820358 122.972265,67.5513889 125.721566,66.5350135 L146.256631,58.9435075 L149.580201,73.8934255 C150.174749,76.5677879 153.209501,77.879458 155.564792,76.4800648 L175.559792,64.6000648 C177.470733,63.464682 178.099448,60.9951486 176.964065,59.0842076 C175.828682,57.1732666 173.359149,56.5445524 171.448208,57.6799352 L156.23159,66.7208664 L153.113799,52.6965745 C152.584579,50.3160641 150.076764,48.9493949 147.789434,49.7949865 L128.807963,56.8121522 L129.96045,41.4409159 C130.178424,38.5336943 127.329279,36.366418 124.58572,37.3524879 L101.77072,45.5524879 C99.678935,46.304302 98.5926738,48.6094946 99.3444879,50.7012798 C100.096302,52.793065 102.401495,53.8793262 104.49328,53.1275121 L121.469676,47.0259803 L120.31255,62.4590841 Z" id="Path" fill="#2A2A2A" fill-rule="nonzero"></path>
                    </g>
                    <g id="Group-3" transform="translate(103.000000, 519.000000) scale(-1, 1) translate(-103.000000, -519.000000) translate(0.000000, 458.000000)">
                        <g id="Clipped">
                            <path d="M204.964,107.26 C206.895,102.91 205.505,93.2 204.424,91.58 C203.342,89.96 72.018,79.69 72.018,79.69 C50.221,78.07 5.718,67.96 2.732,79.69 C-7.448,119.68 19.603,119.68 36.896,119.68 C60.674,119.68 63.496,113.39 79.043,115.36 C87.149,116.39 99.039,121.84 153.621,121.84 C197.397,121.84 200.64,116.98 204.964,107.26 Z" id="Path" fill="#29282D" fill-rule="nonzero"></path>
                            <mask id="mask-8" fill="white">
                                <use xlink:href="#path-7"></use>
                            </mask>
                            <use id="Path" fill="#504D5A" fill-rule="nonzero" xlink:href="#path-7"></use>
                            <path d="M181.188,90.5 C191.131,90.5 193.617,84.38 193.617,81.32 C194.338,90.86 194.158,111.36 187.673,116.98 C179.566,124.01 119.04,120.23 110.934,116.98 C102.827,113.74 123.299,105.99 129.575,105.99 C137.824,105.99 148.222,104.01 156.869,97.53 C165.516,91.04 168.758,90.5 181.188,90.5 Z" id="Path" fill="#29282D" fill-rule="nonzero" mask="url(#mask-8)"></path>
                            <path d="M91.145,77.44 C98.124,79.72 103.829,79.71 107.165,77.34 C115.761,71.18 110.874,60.99 108.788,56.99 C112.642,61.94 116.47,66.91 119.392,72.27 C124.004,80.65 125.721,89.7 122.118,95.3 C115.657,105.4 101.424,99.99 92.401,95.42 L8.667,53 L91.145,77.44 Z" id="Path" fill="#29282D" fill-rule="nonzero" mask="url(#mask-8)"></path>
                            <path d="M191.995,78.07 C192.428,71.59 195.058,70.33 196.319,70.51 L214.152,71.59 L211.991,104.01 L189.293,116.98 C184.97,116.8 176.323,114.82 176.323,108.34 C176.323,100.23 184.43,100.23 189.293,95.37 C194.157,90.5 191.455,86.18 191.995,78.07 Z" id="Path" fill="#29282D" fill-rule="nonzero" mask="url(#mask-8)"></path>
                            <path d="M104.449,16.47 C103.152,8.68 100.666,3.86 99.585,2.41 L101.746,-2.99 L114.177,-2.99 C119.941,2.05 129.632,14.41 122.283,23.49 C113.096,34.84 106.07,26.19 104.449,16.47 Z" id="Path" fill="#7F8389" fill-rule="nonzero" mask="url(#mask-8)"></path>
                        </g>
                        <path d="M120.31255,62.4590841 C120.093396,65.3820358 122.972265,67.5513889 125.721566,66.5350135 L146.256631,58.9435075 L149.580201,73.8934255 C150.174749,76.5677879 153.209501,77.879458 155.564792,76.4800648 L175.559792,64.6000648 C177.470733,63.464682 178.099448,60.9951486 176.964065,59.0842076 C175.828682,57.1732666 173.359149,56.5445524 171.448208,57.6799352 L156.23159,66.7208664 L153.113799,52.6965745 C152.584579,50.3160641 150.076764,48.9493949 147.789434,49.7949865 L128.807963,56.8121522 L129.96045,41.4409159 C130.178424,38.5336943 127.329279,36.366418 124.58572,37.3524879 L101.77072,45.5524879 C99.678935,46.304302 98.5926738,48.6094946 99.3444879,50.7012798 C100.096302,52.793065 102.401495,53.8793262 104.49328,53.1275121 L121.469676,47.0259803 L120.31255,62.4590841 Z" id="Path" fill="#2A2A2A" fill-rule="nonzero"></path>
                    </g>
                </g>
                <g id="upper-limb" transform="translate(0.837400, 448.030346)" fill-rule="nonzero">
                    <path d="M351.515451,165.251479 C383.145749,233.453658 407.1135,361.445951 407.1135,470.460654 C407.1135,492.69735 425.139904,510.723754 447.3766,510.723754 C469.613296,510.723754 487.6397,492.69735 487.6397,470.460654 C487.6397,350.474314 461.538578,211.089419 424.567749,131.371829 C415.212142,111.198994 391.27461,102.429898 371.101775,111.785505 C350.92894,121.141112 342.159844,145.078644 351.515451,165.251479 Z" id="Path" fill="#EBBAAA"></path>
                    <path d="M110.791607,98.3188232 C107.142893,104.958402 103.659854,111.143483 97.7520238,121.526555 C97.2131867,122.473566 95.3638362,125.722669 95.2587221,125.907368 C79.9129714,152.871956 72.3336425,166.775115 63.7312677,184.532957 C52.2817128,208.168219 42.9411467,231.503051 35.1655478,256.812948 C17.062043,315.740607 7.87205,384.639492 7.87205,472.552654 C7.87205,495.931226 26.8241276,514.883304 50.2027,514.883304 C73.5812724,514.883304 92.53335,495.931226 92.53335,472.552654 C92.53335,392.655308 100.616431,332.055123 116.093874,281.675404 C122.545424,260.675339 130.288238,241.332054 139.923307,221.442424 C147.470562,205.862662 154.379351,193.189509 168.838769,167.78233 C168.941071,167.602572 170.793255,164.348491 171.335891,163.394803 C177.436816,152.672366 181.085514,146.193111 184.987593,139.092485 C196.246928,118.603829 188.765086,92.8669969 168.276431,81.6076612 C147.787775,70.3483255 122.050943,77.8301676 110.791607,98.3188232 Z" id="Path" fill="#EBBAAA"></path>
                    <path d="M108.0306,156.746654 C111.0496,95.055654 161.3896,46.274654 223.1446,45.196654 L273.2526,44.321654 C337.5506,43.199654 390.7656,94.055654 392.5556,158.339654 L397.0766,320.667654 L399.2476,525.959654 C399.2476,525.959654 302.3996,532.049654 247.7816,531.941126 C193.1626,531.839654 97.9136,525.379654 97.9136,525.379654 L99.7586,325.801654 L108.0306,156.746654 Z" id="Path" fill="#2E3032"></path>
                    <path d="M208.42678,251.88276 C211.141625,259.1223 213.688435,265.745917 218.053302,276.981122 C218.395437,277.861779 219.682006,281.172387 219.978325,281.935083 C230.866505,309.960205 236.244715,324.493286 242.002352,342.259657 C249.450608,365.242782 255.253166,387.574747 259.750139,411.558721 C261.879234,422.91395 272.810438,430.39321 284.165667,428.264115 C295.520896,426.13502 303.000156,415.203816 300.871061,403.848587 C296.031548,378.037724 289.781869,353.98495 281.802048,329.361571 C275.728747,310.621153 270.138585,295.515335 258.975995,266.783905 C258.678712,266.018728 257.392282,262.708481 257.05118,261.830482 C252.742081,250.738824 250.242322,244.237574 247.60042,237.192548 C243.54383,226.375046 231.485996,220.894244 220.668494,224.950834 C209.850992,229.007424 204.37019,241.065258 208.42678,251.88276 Z" id="Path" fill="#F4FCFF"></path>
                    <path d="M182.011764,355.632638 C196.843024,353.019681 269.620102,357.670013 336.325468,364.30964 C349.515124,365.622494 361.271732,355.994443 362.584586,342.804786 C363.89744,329.61513 354.269389,317.858522 341.079732,316.545668 C267.036721,309.175677 195.135315,304.581299 173.683436,308.36067 C160.629643,310.660474 151.911812,323.107024 154.211616,336.160818 C156.51142,349.214611 168.95797,357.932442 182.011764,355.632638 Z" id="Path" fill="#FFF06A"></path>
                    <ellipse id="Oval" fill="#424649" transform="translate(253.634600, 89.286654) rotate(-1.000000) translate(-253.634600, -89.286654) " cx="253.6346" cy="89.286654" rx="68.7176" ry="73.997"></ellipse>
                    <rect id="Rectangle" fill="#EBBAAA" transform="translate(248.720045, 65.236500) rotate(-1.000000) translate(-248.720045, -65.236500) " x="199.565195" y="1" width="98.3097" height="128.473" rx="49.15485"></rect>
                    <path d="M212.3256,193.286654 L125.5126,373.449654 C125.5126,373.449654 49.1591,331.612654 19.8728,304.417654 C19.8728,304.417654 31.9245,235.386654 49.1591,172.367654 C59.1526,135.824654 83.2306,107.283654 101.6986,89.752654 C116.4946,75.706654 135.8416,68.181654 155.8896,64.402654 L193.4986,57.314654 L212.3256,193.286654 Z" id="Path" fill="#5788A8"></path>
                    <path d="M19.983,303.357654 C22.0579,286.542654 38.8386,275.697654 55.0227,280.712654 L97.1186,293.758654 C110.8466,298.012654 119.9286,311.049654 119.1636,325.400654 L118.9486,329.447654 C118.8646,331.019654 118.6626,332.582654 118.3446,334.124654 L95.8736,442.925654 C93.9286,452.343654 85.8136,459.222654 76.2046,459.597654 L24.9305,461.600654 C12.042,462.104654 1.773,450.937654 3.3526,438.136654 L19.983,303.357654 Z" id="Path" fill="#5788A8"></path>
                    <path d="M5.2297,462.092654 L0,417.116654 C33.47,411.259654 79.4916,419.557654 98.3176,424.438654 L93.0886,462.092654 C93.0886,462.092654 65.8936,465.229654 49.159,465.229654 C32.424,465.229654 5.2297,462.092654 5.2297,462.092654 Z" id="Path" fill="#6EA5C9"></path>
                    <polygon id="Path" fill="#4F7F9D" points="114.0066 293.696654 54.3887 259.180654 40.7915 287.420654"></polygon>
                    <polygon id="Path" fill="#4F7F9D" points="94.5866 297.137654 37.767 303.816654 46.7953 321.467654 94.5866 310.171654"></polygon>
                    <path d="M105.1246,141.102654 C108.3606,95.084654 146.9056,59.406654 193.0376,59.406654 C202.2466,59.406654 210.6966,64.663654 214.7226,72.945654 L244.7496,134.713654 C244.7496,134.713654 222.7846,256.042654 222.7846,315.660654 C222.7846,365.822654 212.4186,487.065654 209.1296,524.267654 C208.5996,530.269654 203.1156,534.539654 197.1606,533.629654 L93.9566,517.888654 C88.6956,517.086654 84.8766,512.462654 85.0816,507.145654 L92.0426,327.165654 L105.1246,141.102654 Z" id="Path" fill="#5991B6"></path>
                    <path d="M231.726538,134.940429 C212.600155,292.510168 198.207,469.911176 198.207,524.847654 L211.8042,524.847654 C211.8042,470.57588 226.158814,293.649902 245.224662,136.578879 L231.726538,134.940429 Z" id="Path" fill="#5383A2"></path>
                    <path d="M116.3526,267.572654 L118.8036,211.430654 L197.6276,204.455654 C192.2326,229.219654 190.6886,264.567654 189.9176,282.242654 C130.9906,307.794654 136.5206,299.702654 116.3526,267.572654 Z" id="Path" fill="#5383A2"></path>
                    <polygon id="Path" fill="#6EA5C9" points="195.2096 204.585654 114.9846 193.754654 108.8396 216.518654 140.3506 241.974654 184.8716 225.073654"></polygon>
                    <path d="M206.5456,538.879654 L88.3546,526.389654 C85.6946,526.109654 83.6746,523.863654 83.6746,521.187654 L83.6746,502.883654 L212.3256,516.300654 L212.3256,533.679654 C212.3256,536.789654 209.6346,539.209654 206.5456,538.879654 Z" id="Path" fill="#5383A2"></path>
                    <polygon id="Path" fill="#5383A3" points="244.7496 139.943654 204.4806 43.717654 160.5516 56.791654 165.2576 163.999654"></polygon>
                    <path d="M295.9996,193.023654 L382.8126,373.187654 C382.8126,373.187654 459.1656,331.350654 488.4526,304.155654 C488.4526,304.155654 476.4006,235.123654 459.1656,172.105654 C447.8096,130.581654 418.2686,99.389654 399.4376,82.942654 C388.9136,73.750654 375.7376,68.532654 362.0056,65.944654 L314.8266,57.052654 L295.9996,193.023654 Z" id="Path" fill="#5788A8"></path>
                    <path d="M488.3426,303.358654 C486.2676,286.542654 469.4866,275.697654 453.3026,280.712654 L411.2066,293.758654 C397.4786,298.013654 388.3966,311.049654 389.1616,325.400654 L389.3766,329.447654 C389.4606,331.019654 389.6626,332.583654 389.9806,334.124654 L412.4516,442.925654 C414.3966,452.343654 422.5116,459.222654 432.1206,459.597654 L483.3946,461.600654 C496.2836,462.104654 506.5526,450.937654 504.9726,438.136654 L488.3426,303.358654 Z" id="Path" fill="#5788A8"></path>
                    <path d="M503.0956,462.092654 L508.3256,417.117654 C474.8556,411.260654 428.8336,419.557654 410.0076,424.438654 L415.2366,462.092654 C415.2366,462.092654 442.4316,465.229654 459.1666,465.229654 C475.9016,465.229654 503.0956,462.092654 503.0956,462.092654 Z" id="Path" fill="#6EA5C9"></path>
                    <polygon id="Path" fill="#4F7F9D" points="392.2266 279.053654 451.8446 244.537654 465.4416 272.777654"></polygon>
                    <polygon id="Path" fill="#4F7F9D" points="411.6476 282.494654 468.4666 289.173654 459.4386 306.824654 411.6476 295.528654"></polygon>
                    <path d="M394.7386,132.806654 C390.3376,91.079654 355.1476,59.406654 313.1886,59.406654 C304.5936,59.406654 296.7526,64.312654 292.9956,72.042654 L262.5306,134.713654 C262.5306,134.713654 284.4946,256.042654 284.4946,315.660654 C284.4946,365.822654 294.8616,487.065654 298.1496,524.267654 C298.6806,530.269654 304.1646,534.539654 310.1186,533.629654 L413.3236,517.888654 C418.5836,517.086654 422.4036,512.462654 422.1976,507.145654 L415.2366,327.165654 L394.7386,132.806654 Z" id="Path" fill="#5991B6"></path>
                    <path d="M262.054538,136.578879 C281.120386,293.649902 295.475,470.57588 295.475,524.847654 L309.0722,524.847654 C309.0722,469.911176 294.679045,292.510168 275.552662,134.940429 L262.054538,136.578879 Z" id="Path" fill="#5383A2"></path>
                    <path d="M390.9276,267.572654 L388.4756,211.430654 L309.6516,204.455654 C315.0466,229.219654 316.5906,264.567654 317.3616,282.242654 C376.2886,307.794654 370.7586,299.702654 390.9276,267.572654 Z" id="Path" fill="#5383A2"></path>
                    <polygon id="Path" fill="#6EA5C9" points="312.0696 204.585654 392.2946 193.754654 398.4396 216.518654 366.9286 241.974654 322.4076 225.073654"></polygon>
                    <path d="M300.7336,538.879654 L418.9246,526.389654 C421.5856,526.109654 423.6046,523.863654 423.6046,521.187654 L423.6046,502.883654 L294.9546,516.300654 L294.9546,533.679654 C294.9546,536.789654 297.6456,539.209654 300.7336,538.879654 Z" id="Path" fill="#5383A2"></path>
                    <polygon id="Path" fill="#5383A3" points="263.5756 139.943654 299.6606 43.717654 346.7276 56.791654 342.0216 163.999654"></polygon>
                </g>
                <g id="head" transform="translate(46.001000, 0.245700)" fill-rule="nonzero">
                    <ellipse id="Oval" fill="#EBBAAA" cx="56.789" cy="325.0583" rx="56.789" ry="53.866"></ellipse>
                    <ellipse id="Oval" fill="#EBBAAA" cx="351.459" cy="329.2333" rx="56.789" ry="53.866"></ellipse>
                    <path d="M42.304,276.5813 C32.441,183.8693 103.782,102.4673 196.986,100.0843 C290.821,97.6843 366.469,176.3603 360.391,270.0293 L358.372,301.1433 L353.416,367.4423 C347.547,445.9593 282.129,506.6693 203.392,506.6693 C127.502,506.6693 63.495,450.1473 54.105,374.8403 L44.917,301.1433 L42.304,276.5813 Z" id="Path" fill="#EED4CC"></path>
                    <path d="M227.484,245.3333 L283.213,237.4953 C283.825,237.4093 284.445,237.5983 284.904,238.0133 L303.72,254.9663 C305.15,256.2553 304.227,258.6293 302.301,258.6123 L275.488,258.3803 L227.981,262.6633 C225.447,262.8923 223.297,260.8243 223.427,258.2823 L223.889,249.2623 C223.991,247.2603 225.499,245.6123 227.484,245.3333 Z" id="Path" fill="#393939"></path>
                    <path d="M162.485,246.6113 L107.532,236.8813 C106.92,236.7723 106.291,236.9423 105.816,237.3433 L86.564,253.6253 C85.096,254.8663 85.939,257.2643 87.861,257.3133 L114.445,257.9993 L161.374,263.9013 C163.898,264.2183 166.118,262.2283 166.079506,259.6853 L165.939,250.6663 C165.908,248.6613 164.46,246.9603 162.485,246.6113 Z" id="Path" fill="#393939"></path>
                    <path d="M183.409161,307.254138 C183.365793,307.570042 183.189805,308.234717 182.868022,309.167914 C182.503168,310.226018 181.988463,311.525942 181.29432,313.148783 C180.47783,315.057661 176.910273,322.942006 176.290267,324.348946 C174.145624,329.215645 172.52535,333.243397 171.191351,337.195096 C167.061369,349.429319 166.212575,359.454484 170.292839,367.991197 C175.439012,378.757998 187.15683,384.01075 204.781,384.01075 L204.781,366.22985 C193.313786,366.22985 188.025468,363.859253 186.335434,360.32337 C184.75757,357.02217 185.257267,351.120226 188.038228,342.882198 C189.17454,339.516108 190.61241,335.941782 192.561328,331.51923 C193.114057,330.264958 196.738704,322.254445 197.642505,320.14144 C199.557273,315.664891 200.628784,312.557425 201.024839,309.672462 L183.409161,307.254138 Z" id="Path" fill="#EBBAAA"></path>
                    <path d="M98.429,149.0573 C76.914,155.9303 72.193,185.7583 70.889,201.8413 C68.867,226.7793 46.58,182.7373 46.58,301.5303 C41.88,301.9883 40.428,277.4103 31.626,278.3883 C26.248,280.3443 21.69,284.1403 17.506,287.8013 C14.068,276.0363 9.6673,249.4903 7.4635,210.9243 C0.1418,82.7973 96.842,3.8282 186.739,15.9969 C216.922,20.0825 257.934,49.9237 257.934,135.9833 C213.926,160.4313 138.147,136.3693 98.429,149.0573 Z" id="Path" fill="#6C4242"></path>
                    <path d="M302.041,157.8483 C314.761,164.8543 317.777,192.1203 324.005,207.0073 C338.186,240.8993 346.68,200.0503 358.388,302.4053 C363.091,302.8633 363.401,279.2463 372.207,280.2243 C375.868,281.7933 378.483,284.4083 384.235,289.1143 C387.675,277.3493 394.083,239.4313 394.083,205.9613 C394.083,54.8234 290.535,8.6505 196.142,15.384 C131.46,19.998 112.726,57.1395 112.726,143.2053 C177.76,152.9873 265.502,137.7243 302.041,157.8483 Z" id="Path" fill="#845959"></path>
                    <polygon id="Path" fill="#845959" points="156.856 11.8315 136.674 39.5984 258.262 64.3019 375.588 150.1893 385.247 124.0593 377.313 116.6973 380.799 106.5973 368.886 102.4853 374.273 86.8763 358.956 81.5893 359.673 68.4779 346.057 63.7785 342.093 49.0519 326.785 47.8783 325.065 39.0643 310.599 34.0711 313.452 25.8075 291.027 27.3156 288.774 17.2897 277.412 22.6162 271.755 11.4154 252.735 14.0984 245.376 2.3102 231.461 6.7555 223.802 4.112 212.757 8.5203 211.889 0 192.035 10.6158 183.942 3.7123 165.424 17.3578"></polygon>
                    <path d="M251.474073,310.277377 C254.340063,307.425224 260.07314,304.446717 267.149871,303.102037 C270.538492,302.458284 274.353656,302.627902 278.234272,303.464117 C279.80137,303.801804 281.303756,304.233496 282.652489,304.712602 C283.648302,305.066342 284.459505,305.411977 284.838249,305.609885 C289.701992,308.151362 295.705108,306.268793 298.246585,301.405051 C300.788062,296.541308 298.905493,290.538192 294.041751,287.996715 C286.541313,284.077472 274.486975,281.479941 263.440502,283.578493 C252.502553,285.656861 243.168597,290.506133 237.455927,296.191223 C233.566143,300.062227 233.550918,306.353589 237.421923,310.243373 C241.292927,314.133157 247.584289,314.148382 251.474073,310.277377 Z" id="Path" fill="#000000"></path>
                    <path d="M159.453939,297.259051 C153.34175,291.138426 143.302739,285.889902 131.519524,283.637594 C119.65971,281.369964 106.670569,284.186532 98.6376751,288.4126 C93.7810486,290.967648 91.9152511,296.975998 94.4702998,301.832625 C97.0253485,306.689251 103.033698,308.555049 107.890325,306 C108.343192,305.761749 109.267147,305.365489 110.392322,304.963223 C111.901026,304.423839 113.579184,303.938574 115.32955,303.559025 C119.676413,302.61645 123.959641,302.424922 127.787937,303.156903 C135.695098,304.668321 142.124952,308.029932 145.392061,311.301549 C149.26979,315.18463 155.561169,315.188968 159.444249,311.311239 C163.32733,307.43351 163.331668,301.142131 159.453939,297.259051 Z" id="Path" fill="#000000"></path>
                    <path d="M237.869205,404.801321 C238.635132,410.922156 241.813556,418.355263 247.175658,423.229159 C250.381593,426.143203 255.342816,425.906578 258.256859,422.700642 C261.170903,419.494707 260.934278,414.533484 257.728342,411.619441 C255.497483,409.591695 253.77632,405.566558 253.436795,402.853279 C252.898858,398.554408 248.97785,395.505568 244.678979,396.043505 C240.380108,396.581442 237.331268,400.50245 237.869205,404.801321 Z" id="Path" fill="#C99584"></path>
                    <path d="M149.75002,416.697415 C155.968852,420.704578 161.320966,423.505497 168.38706,425.949501 C177.877595,429.232065 188.673164,431.0218 201.201,431.0218 C213.886212,431.0218 225.215611,428.977446 235.121057,425.388003 C242.34539,422.770116 248.227923,419.546084 252.451083,416.379363 C255.917257,413.780265 256.620161,408.863391 254.021063,405.397217 C251.421965,401.931043 246.505091,401.228139 243.038917,403.827237 C240.031786,406.082124 235.513395,408.558512 229.775943,410.637597 C221.561342,413.614328 212.037913,415.3328 201.201,415.3328 C190.407109,415.3328 181.345148,413.830469 173.51544,411.122349 C167.809376,409.148749 163.501251,406.89418 158.24798,403.509185 C154.606151,401.162538 149.751532,402.212491 147.404885,405.85432 C145.058238,409.496149 146.108191,414.350768 149.75002,416.697415 Z" id="Path" fill="#C99584"></path>
                    <path d="M208.507,300.0913 C204.862,286.9893 214.24,273.9233 227.808,273.1993 L302.654,269.2033 C316.222,268.4793 327.045,280.4673 324.931,293.8763 L320.782,320.1773 C319.222,330.0693 310.97,337.5073 300.961,338.0413 L237.412,341.4343 C227.403,341.9683 218.345,335.4553 215.656,325.7903 L208.507,300.0913 Z" id="Path" fill-opacity="0.3" fill="#D39800"></path>
                    <path d="M205.631,309.1923 C206.32,312.0543 209.198,313.8253 212.058,313.1483 C214.918,312.4723 216.678,309.6033 215.989,306.7413 L205.631,309.1923 Z M208.004,296.3173 L213.183,295.0913 L213.136,294.8963 L213.074,294.7043 L208.004,296.3173 Z M222.865,276.5413 L222.558,271.2233 L222.326,271.2363 L222.096,271.2683 L222.865,276.5413 Z M306.354,272.0843 L306.684,266.7713 L306.366,266.7493 L306.047,266.7663 L306.354,272.0843 Z M323.783,287.5703 L329.089,288.0713 L329.094,288.0223 L329.097,287.9743 L323.783,287.5703 Z M317.177,301.5053 C316.913,304.4333 319.075,307.0303 322.005,307.3063 C324.935,307.5823 327.525,305.4333 327.789,302.5053 L317.177,301.5053 Z M215.989,306.7413 L213.183,295.0913 L202.825,297.5423 L205.631,309.1923 L215.989,306.7413 Z M213.074,294.7043 C213.081,294.7263 213.01,294.4903 212.987,294.0053 C212.965,293.5463 212.99,292.9453 213.121,292.2473 C213.378,290.8773 214.045,289.1163 215.612,287.2773 L207.488,280.3523 C201.844,286.9763 201.745,294.2383 202.934,297.9293 L213.074,294.7043 Z M215.612,287.2773 C217.369,285.2143 219.21,283.8533 220.745,282.9953 C221.514,282.5653 222.192,282.2693 222.725,282.0773 C222.991,281.9813 223.209,281.9143 223.375,281.8713 C223.457,281.8503 223.521,281.8353 223.568,281.8253 C223.615,281.8153 223.637,281.8123 223.634,281.8133 L222.096,271.2683 C218.818,271.7323 212.687,274.2503 207.488,280.3523 L215.612,287.2773 Z M223.172,281.8583 L306.661,277.4013 L306.047,266.7663 L222.558,271.2233 L223.172,281.8583 Z M306.024,277.3963 C306.946,277.4583 308.802,277.7633 310.769,278.5023 C312.76,279.2503 314.415,280.2723 315.443,281.4843 L323.558,274.6183 C320.923,271.5113 317.432,269.6443 314.479,268.5353 C311.503,267.4173 308.617,266.8993 306.684,266.7713 L306.024,277.3963 Z M315.443,281.4843 C316.878,283.1773 317.658,284.6783 318.065,285.7653 C318.512,286.9583 318.448,287.4683 318.47,287.1673 L329.097,287.9743 C329.317,284.9023 327.905,279.7443 323.558,274.6183 L315.443,281.4843 Z M318.478,287.0703 L317.177,301.5053 L327.789,302.5053 L329.089,288.0713 L318.478,287.0703 Z" id="Shape" fill="#877253"></path>
                    <path d="M64.842,292.8983 C62.973,279.4563 74.014,267.6553 87.568,268.6093 L162.327,273.8693 C175.88,274.8233 185.018,288.0443 181.135,301.0813 L173.516,326.6583 C170.652,336.2763 161.475,342.6353 151.476,341.9313 L88.003,337.4653 C78.005,336.7613 69.888,329.1863 68.509,319.2693 L64.842,292.8983 Z" id="Path" fill-opacity="0.3" fill="#D39800"></path>
                    <path d="M60.777,301.5733 C61.08,304.4963 63.698,306.6073 66.625,306.2893 C69.552,305.9703 71.68,303.3433 71.377,300.4203 L60.777,301.5733 Z M64.847,289.0973 L70.146,288.5203 L70.126,288.3203 L70.09,288.1233 L64.847,289.0973 Z M82.219,271.3153 L82.623,266.0043 L82.391,265.9883 L82.159,265.9923 L82.219,271.3153 Z M165.614,277.1833 L166.649,271.9553 L166.336,271.8953 L166.018,271.8723 L165.614,277.1833 Z M180.837,294.6903 L186.033,295.8403 L186.043,295.7923 L186.053,295.7453 L180.837,294.6903 Z M172.428,307.6963 C171.776,310.5673 173.574,313.4093 176.444,314.0443 C179.314,314.6783 182.168,312.8663 182.82,309.9953 L172.428,307.6963 Z M71.377,300.4203 L70.146,288.5203 L59.547,289.6733 L60.777,301.5733 L71.377,300.4203 Z M70.09,288.1233 C70.094,288.1453 70.055,287.9023 70.097,287.4183 C70.136,286.9603 70.241,286.3673 70.464,285.6913 C70.901,284.3643 71.797,282.6993 73.597,281.0683 L66.461,273.2003 C59.981,279.0753 58.916,286.2643 59.603,290.0703 L70.09,288.1233 Z M73.597,281.0683 C75.614,279.2393 77.621,278.1163 79.258,277.4543 C80.077,277.1223 80.789,276.9123 81.343,276.7873 C81.62,276.7253 81.845,276.6863 82.015,276.6643 C82.1,276.6533 82.165,276.6463 82.213,276.6423 C82.261,276.6383 82.283,276.6383 82.28,276.6383 L82.159,265.9923 C78.846,266.0483 72.429,267.7903 66.461,273.2003 L73.597,281.0683 Z M81.816,276.6263 L165.21,282.4943 L166.018,271.8723 L82.623,266.0043 L81.816,276.6263 Z M164.578,282.4113 C165.485,282.5853 167.285,283.1173 169.137,284.0923 C171.012,285.0793 172.517,286.2973 173.375,287.6253 L182.339,281.8183 C180.139,278.4113 176.926,276.1303 174.145,274.6663 C171.342,273.1903 168.549,272.3213 166.649,271.9553 L164.578,282.4113 Z M173.375,287.6253 C174.573,289.4813 175.146,291.0663 175.405,292.1943 C175.69,293.4333 175.559,293.9313 175.62,293.6353 L186.053,295.7453 C186.681,292.7263 185.967,287.4373 182.339,281.8183 L173.375,287.6253 Z M175.641,293.5403 L172.428,307.6963 L182.82,309.9953 L186.033,295.8403 L175.641,293.5403 Z" id="Shape" fill="#877253"></path>
                    <path d="M182.843814,302.001893 C188.7205,298.959155 197.983322,298.165355 205.031522,301.961405 L210.082478,292.583195 C199.555306,286.913426 186.688894,288.016045 177.946186,292.542707 L182.843814,302.001893 Z" id="Path" fill="#877253"></path>
                </g>
            </g>
        </g>
    </g>
</svg>