<?xml version="1.0" encoding="UTF-8"?>
<svg width="560px" height="1366px" viewBox="0 0 560 1366" version="1.1" xmlns="http://www.w3.org/2000/svg" xmlns:xlink="http://www.w3.org/1999/xlink">
    <!-- Generator: Sketch 55.2 (78181) - https://sketchapp.com -->
    <title>gee_me_042</title>
    <desc>Created with Sketch.</desc>
    <defs>
        <path d="M133.955,35.065 L42.455,52.065 L15.955,81.065 C6.622,92.398 -8.445,116.765 5.955,123.565 C23.955,132.065 86.455,127.565 110.955,132.065 C135.455,136.565 165.955,151.565 169.455,184.565 C172.255,210.965 162.5,235 187.5,238.5 C187.5,241.667 186.355,228.965 189.955,262.57 C193.555,296.17 201.788,307.23 205.455,308.57 C203.5,316.5 199.6,320.6 202,341 C204.4,361.4 222.788,362.9 232.455,362.57 C228.122,362.23 218.255,356.87 213.455,338.07 C207.455,314.57 246.455,280.57 249.455,255.065 C252.455,229.565 203.5,114.5 195,59 C188.2,14.6 160.5,-5.833 153,2 L154.455,18.065 L133.955,35.065 Z" id="path-1"></path>
        <path d="M65.9998,48 C90.5,13 158,20 199.5,0.5 L354.5,0.5 C411.5,20 445.05,11.5 470.5,48 C508.5,102.5 527.5,207 537.5,301.5 C537.5,301.5 499.5,302.697 482,308 C464.5,313.303 431,325 431,325 L404,232.5 L404,260 L411.5,359.5 L431,460.5 C398.333,466.167 324.8,478 292,480 C259.2,482 147.5,467.833 105,460.5 C105,430.167 123.5,359.5 123.5,359.5 C123.5,359.5 129,333.5 123.5,308 C121.557,298.991 117.05,278.78 112.812,259.366 C71.8334,257.642 0,254 0,254 C0,254 15.6222,172.144 30.4998,129 C40.5,100 49.0824,72.167 65.9998,48 Z" id="path-3"></path>
        <path d="M16.5,142.5 C8.4999,118.9 13.167,68.333 16.5,46 L35,0.5 L61.5,12 C70.333,49 101.1,190 89.5,198 C75,208 54.5,265.5 54.5,292 C54.5,313.2 29.167,347.5 16.5,362 C16.5,348.83 13.8,316.4 2.9996,292 C-10.5006,261.5 26.5,172 16.5,142.5 Z" id="path-5"></path>
    </defs>
    <g id="GEE!-ME" stroke="none" stroke-width="1" fill="none" fill-rule="evenodd">
        <g id="gee_me_042" transform="translate(-320.000000, -124.000000)">
            <g transform="translate(320.000000, 124.000000)">
                <g id="lower-limb" transform="translate(74.610841, 865.416000)" fill-rule="nonzero">
                    <path d="M427.390159,479.584 C427.590159,456.634 424.125159,462.694 404.175159,453.314 C384.226159,443.934 365.434159,425.904 330.920159,410.444 C330.920159,410.444 326.378159,409.594 318.982159,413.584 C312.672159,417.004 304.566159,425.374 292.352159,425.264 C279.090159,425.154 267.271159,422.344 259.928159,418.484 C256.756159,409.794 249.718159,409.734 249.718159,409.734 C249.718159,409.734 239.809159,428.594 239.643159,447.544 C239.478159,466.494 239.643159,479.584 239.643159,479.584 L427.390159,479.584 Z" id="Path" fill="#DCE1E6"></path>
                    <path d="M292.998018,423.663669 L293.780299,425.504331 C280.989576,430.940389 271.519336,438.860731 264.903841,448.618585 C260.303144,455.404613 257.344212,462.678655 255.700433,469.952376 C255.125558,472.496199 254.7563,474.856371 254.551485,476.971086 C254.492005,477.585221 254.450309,478.140743 254.423404,478.63318 L254.390981,479.437548 L254.389159,479.584 L252.389159,479.584 L252.393976,479.291243 C252.397406,479.165379 252.402879,479.011556 252.411052,478.830732 C252.437904,478.236622 252.486066,477.549918 252.5608,476.778284 C252.773445,474.582726 253.155615,472.140021 253.749628,469.511516 C255.445528,462.007156 258.498019,454.503117 263.248424,447.496269 C269.952606,437.6076 279.493578,429.550253 292.284089,423.97107 L292.998018,423.663669 Z" id="Path" fill="#D0D4D8"></path>
                    <path d="M307.583495,424.603065 C328.281147,428.703543 342.299377,438.093679 350.732621,451.177102 C354.589725,457.161052 357.037891,463.56349 358.353225,470.01413 C358.832565,472.364906 359.131673,474.589388 359.284753,476.642037 L359.333396,477.368794 C359.381604,478.185545 359.400749,478.892212 359.399631,479.477074 L359.388127,480.129408 L357.39019,480.038592 L357.394358,479.901391 C357.411827,479.156528 357.388251,478.104317 357.290292,476.790777 C357.143305,474.819834 356.855421,472.678828 356.39355,470.413723 C355.125279,464.193888 352.765382,458.022292 349.051579,452.260659 C341.010591,439.785787 327.683149,430.774981 307.903967,426.708077 L307.194823,426.564935 L307.583495,424.603065 Z" id="Path" fill="#D0D4D8"></path>
                    <path d="M305.389159,419.584 C305.389159,444.567567 323.246597,457.891963 353.283776,462.282012 C366.643376,464.234569 380.921156,464.193296 394.343638,462.950083 L395.662908,462.823273 C396.951683,462.694786 398.147998,462.561714 399.243036,462.428041 L400.415964,462.279603 L401.4975,462.131079 L401.737102,462.095628 L402.041216,464.072372 L401.518025,464.148327 L400.363243,464.303304 L400.032231,464.345466 C398.419341,464.5488 396.574765,464.751993 394.528092,464.941559 C380.960987,466.198167 366.53427,466.239871 352.994541,464.260988 C322.403224,459.789949 303.76448,446.066126 303.394764,420.366447 L303.389159,419.584 L305.389159,419.584 Z" id="Path" fill="#D0D4D8"></path>
                    <polygon id="Path" fill="#D0D4D8" points="303.389159 434.584 303.389159 448.584 283.389159 448.584 283.389159 434.584"></polygon>
                    <path d="M334.131074,412.225871 C334.737554,410.859472 336.336888,410.243435 337.703288,410.849915 C339.069687,411.456395 339.685723,413.055729 339.079244,414.422129 C338.495654,415.736957 338.057253,417.233047 337.748567,418.901164 C337.487375,420.312632 337.333391,421.617209 337.246554,423.1533 L337.216,423.76 L351.753652,417.347427 C353.793118,416.447744 355.959205,418.256179 355.493325,420.390825 L355.455534,420.543822 L352.458,431.408 L364.466645,427.537718 C366.159773,426.991906 367.892189,428.198046 367.998812,429.943447 L368.003999,430.114 L368.003,441.269 L377.000636,436.39406 C378.754114,435.443973 380.875478,436.651903 380.991978,438.604816 L380.996999,438.774 L380.996999,452.304 C380.996999,453.798946 379.785105,455.01084 378.290159,455.01084 C376.850581,455.01084 375.673477,453.887054 375.588259,452.468893 L375.583319,452.304 L375.583,443.318 L366.586682,448.19394 C364.833204,449.144027 362.71184,447.936097 362.595339,445.983184 L362.590319,445.814 L362.59,433.83 L349.345673,438.100282 C347.348704,438.744043 345.433865,436.974814 345.866694,434.963435 L345.905784,434.804178 L348.719,424.602 L335.531665,430.420573 C333.795052,431.186656 331.850369,429.974857 331.737479,428.114841 L331.732319,427.944 L331.734881,426.913254 C331.755148,423.09429 331.902717,420.739905 332.425264,417.916087 C332.806815,415.854209 333.362852,413.956676 334.131074,412.225871 Z" id="Path" fill="#000000"></path>
                    <path d="M419.088159,454.094 C412.968159,451.874 406.486159,450.194 394.058159,447.374 L399.340159,462.584 L399.188159,479.904 L434.561159,480.214039 C436.004159,480.224 438.584159,478.304 437.353159,470.494 C435.814159,460.734 427.785159,457.244 419.088159,454.094 Z" id="Path" fill="#EAF4FB"></path>
                    <path d="M239.389159,479.584 L267.389159,479.584 L267.389159,493.584 C267.389159,496.344 265.151159,498.584 262.389159,498.584 L244.389159,498.584 C241.628159,498.584 239.389159,496.344 239.389159,493.584 L239.389159,479.584 Z" id="Path" fill="#C6CBCF"></path>
                    <path d="M268.389159,479.584 L296.389159,479.584 L296.389159,493.584 C296.389159,496.344 294.151159,498.584 291.389159,498.584 L273.389159,498.584 C270.628159,498.584 268.389159,496.344 268.389159,493.584 L268.389159,479.584 Z" id="Path" fill="#C6CBCF"></path>
                    <path d="M297.389159,479.584 L325.389159,479.584 L325.389159,493.584 C325.389159,496.344 323.151159,498.584 320.389159,498.584 L302.389159,498.584 C299.628159,498.584 297.389159,496.344 297.389159,493.584 L297.389159,479.584 Z" id="Path" fill="#C6CBCF"></path>
                    <path d="M326.389159,479.584 L354.389159,479.584 L354.389159,493.584 C354.389159,496.344 352.151159,498.584 349.389159,498.584 L331.389159,498.584 C328.628159,498.584 326.389159,496.344 326.389159,493.584 L326.389159,479.584 Z" id="Path" fill="#C6CBCF"></path>
                    <path d="M355.389159,479.584 L383.389159,479.584 L383.389159,493.584 C383.389159,496.344 381.151159,498.584 378.389159,498.584 L360.389159,498.584 C357.628159,498.584 355.389159,496.344 355.389159,493.584 L355.389159,479.584 Z" id="Path" fill="#C6CBCF"></path>
                    <path d="M384.389159,479.584 L412.389159,479.584 L412.389159,493.584 C412.389159,496.344 410.151159,498.584 407.389159,498.584 L389.389159,498.584 C386.628159,498.584 384.389159,496.344 384.389159,493.584 L384.389159,479.584 Z" id="Path" fill="#C6CBCF"></path>
                    <path d="M413.389159,479.584 L436.389159,479.584 L436.389159,493.584 C436.389159,496.344 434.151159,498.584 431.389159,498.584 L418.389159,498.584 C415.628159,498.584 413.389159,496.344 413.389159,493.584 L413.389159,479.584 Z" id="Path" fill="#C6CBCF"></path>
                    <path d="M10.3485588,481.164 C10.0784588,458.114 13.5771588,464.184 33.5881588,454.704 C53.5991588,445.224 72.4201588,427.054 107.042159,411.424 C107.042159,411.424 111.603159,410.554 119.043159,414.544 C125.392159,417.954 133.559159,426.344 145.827159,426.194 C159.149159,426.044 171.012159,423.184 178.376159,419.294 C181.537159,410.554 188.606159,410.474 188.606159,410.474 C188.606159,410.474 198.616159,429.384 198.839159,448.414 C199.062159,467.454 198.936159,480.604 198.936159,480.604 L10.3485588,481.164 Z" id="Path" fill="#DCE1E6"></path>
                    <path d="M145.172625,424.592537 C158.439734,430.185631 168.298242,438.399111 175.188943,448.537946 C179.9533,455.548121 183.023732,463.055745 184.739575,470.563723 C185.340576,473.19351 185.729488,475.637407 185.948383,477.834032 L186.016578,478.577427 C186.056347,479.053762 186.084986,479.491194 186.104044,479.887452 L186.127434,480.562398 L186.128154,480.641013 L184.128163,480.646987 L184.119018,480.27869 L184.106354,479.983534 C184.079382,479.422747 184.031725,478.769774 183.95824,478.032351 C183.747377,475.916327 183.371557,473.5547 182.789843,471.009307 C181.126502,463.731059 178.149733,456.452455 173.534809,449.662152 C166.981574,440.019859 157.654732,432.171874 145.109254,426.740324 L144.395692,426.435463 L145.172625,424.592537 Z" id="Path" fill="#D0D4D8"></path>
                    <path d="M130.527001,425.583628 L130.921317,427.544372 C110.717268,431.60751 97.1475273,440.734209 89.0041526,453.398995 C85.2803897,459.190287 82.9164611,465.393222 81.6493445,471.647304 C81.186845,473.930053 80.8993627,476.089879 80.7537161,478.080971 C80.673856,479.172714 80.6443006,480.09061 80.6467406,480.809535 L80.6579877,481.415618 L78.6603299,481.512382 L78.653533,481.309128 C78.6326874,480.476606 78.6565091,479.336806 78.7590455,477.935062 C78.9106778,475.862142 79.2092882,473.618711 79.6891718,471.25016 C81.0030866,464.765098 83.4550664,458.331116 87.3219,452.317317 C95.6625515,439.345721 109.471465,429.972557 129.80658,425.73119 L130.527001,425.583628 Z" id="Path" fill="#D0D4D8"></path>
                    <path d="M134.719884,420.521009 C134.798173,446.8589 116.025353,460.933862 84.9634832,465.552925 C71.3136076,467.582733 56.7738088,467.571621 43.1294929,466.336441 L41.8205374,466.213446 C40.5417769,466.088798 39.3545433,465.959619 38.2673131,465.82974 L37.0998087,465.685119 L35.7641009,465.502828 L36.0622168,463.525172 L37.0702151,463.664422 C37.3475889,463.7009 37.6501038,463.73948 37.9769838,463.779812 L39.050069,463.90797 C40.3406197,464.057182 41.7650446,464.204743 43.3098098,464.344586 C56.8092367,465.56665 71.1999121,465.577648 84.6693075,463.574678 C114.566121,459.128865 132.434773,445.911499 132.716259,421.276989 L132.7194,420.526991 L134.719884,420.521009 Z" id="Path" fill="#D0D4D8"></path>
                    <polygon id="Path" fill="#D0D4D8" points="154.826114 435.544149 154.868114 449.614149 134.868203 449.673851 134.826203 435.603851"></polygon>
                    <path d="M100.235201,411.863405 C101.599673,411.252601 103.20095,411.86357 103.811754,413.228042 C104.594609,414.97686 105.161284,416.897239 105.550708,418.986781 C106.121884,422.051562 106.252982,424.559274 106.267,429.005475 C106.272964,430.903667 104.383209,432.199786 102.633787,431.557639 L102.475192,431.493885 L89.186,425.679 L92.0513831,435.946426 C92.6154495,437.967728 90.7709015,439.810945 88.7781137,439.297925 L88.6205216,439.252489 L75.287,434.993 L75.3239868,447.045933 C75.3299301,449.040082 73.261449,450.335983 71.4864548,449.513667 L71.3350864,449.437962 L62.265,444.559 L62.2929865,453.605834 C62.2973296,455.045405 61.1770999,456.225894 59.7592026,456.31539 L59.5943251,456.32084 C58.1547536,456.325171 56.9742648,455.204941 56.8847686,453.787044 L56.8793311,453.622166 L56.8383181,440.032166 C56.8323148,438.037974 58.9008283,436.742 60.6758596,437.564332 L60.8272312,437.640038 L69.896,442.517 L69.8633309,431.292067 C69.858028,429.512801 71.5343184,428.228962 73.229721,428.658549 L73.3937961,428.705511 L85.487,432.568 L82.4389346,421.641574 C81.8397979,419.4946 83.9389021,417.609044 85.9850958,418.374871 L86.1311253,418.434115 L100.77,424.839 L100.76986,424.816535 C100.691199,423.137349 100.545692,421.761379 100.286063,420.294505 L100.228664,419.97864 C99.913153,418.285693 99.4657794,416.769608 98.8705637,415.439958 C98.2597601,414.075486 98.8707292,412.474208 100.235201,411.863405 Z" id="Path" fill="#000000"></path>
                    <path d="M18.6101588,455.534 C24.7521588,453.284 31.2581588,451.574 43.7321588,448.714 L38.4731588,464.004 L38.6771588,481.404 L3.14715883,481.814153 C1.69715883,481.834 -0.899541169,479.904 0.313758831,472.064 C1.83035883,462.254 9.88385883,458.724 18.6101588,455.534 Z" id="Path" fill="#EAF4FB"></path>
                    <path d="M199.190159,480.604 L171.065159,480.684 L171.107159,494.774 C171.115159,497.534 173.360159,499.764 176.122159,499.754034 L194.247159,499.704 C197.009159,499.694 199.241159,497.444 199.232186,494.684 L199.190159,480.604 Z" id="Path" fill="#C6CBCF"></path>
                    <path d="M170.060159,480.684 L141.935159,480.774 L141.977159,494.854 C141.985159,497.614 144.231159,499.854 146.992159,499.844033 L165.117159,499.784 C167.879159,499.784 170.111159,497.534 170.10318,494.774 L170.060159,480.684 Z" id="Path" fill="#C6CBCF"></path>
                    <path d="M140.931159,480.774 L112.806159,480.864 L112.848159,494.944 C112.856159,497.704 115.101159,499.934 117.863159,499.934 L135.988159,499.874 C138.749159,499.864 140.981159,497.624 140.97318,494.864 L140.931159,480.774 Z" id="Path" fill="#C6CBCF"></path>
                    <path d="M111.801159,480.864 L83.6761588,480.944 L83.7181588,495.034 C83.7261588,497.794 85.9711588,500.024 88.7331588,500.014034 L106.858159,499.964 C109.620159,499.954 111.851159,497.704 111.84318,494.944 L111.801159,480.864 Z" id="Path" fill="#C6CBCF"></path>
                    <path d="M82.6711588,480.954 L54.5451588,481.034 L54.5871588,495.114 C54.5961588,497.884 56.8411588,500.114 59.6021588,500.104034 L77.7281588,500.054 C80.4891588,500.044 82.7211588,497.794 82.7131803,495.034 L82.6711588,480.954 Z" id="Path" fill="#C6CBCF"></path>
                    <path d="M53.5411588,481.034 L25.4151588,481.124 L25.4581588,495.204 C25.4661588,497.964 27.7111588,500.204 30.4721588,500.194033 L48.5981588,500.134 C51.3591588,500.134 53.5911588,497.884 53.5831803,495.124 L53.5411588,481.034 Z" id="Path" fill="#C6CBCF"></path>
                    <path d="M24.4111588,481.124 L1.30855883,481.194 L1.35075883,495.284 C1.35895883,498.044 3.60425883,500.274 6.36565883,500.264034 L19.4691588,500.224 C22.2301588,500.214 24.4621588,497.974 24.4541803,495.214 L24.4111588,481.124 Z" id="Path" fill="#C6CBCF"></path>
                    <polygon id="Path" fill="#101C28" points="70.3891588 33 193.255159 44.375 193.255159 414.584 94.8891588 410.084"></polygon>
                    <path d="M243.889159,124.084 L243.889159,129.084 L244.889159,129.084 L244.889159,124.084 L243.889159,124.084 Z M243.889159,134.084 L243.889159,139.084 L244.889159,139.084 L244.889159,134.084 L243.889159,134.084 Z M243.889159,144.084 L243.889159,149.084 L244.889159,149.084 L244.889159,144.084 L243.889159,144.084 Z M243.889159,154.084 L243.889159,159.084 L244.889159,159.084 L244.889159,154.084 L243.889159,154.084 Z M243.889159,164.084 L243.889159,169.084 L244.889159,169.084 L244.889159,164.084 L243.889159,164.084 Z M243.889159,174.084 L243.889159,179.084 L244.889159,179.084 L244.889159,174.084 L243.889159,174.084 Z M243.889159,184.084 L243.889159,189.084 L244.889159,189.084 L244.889159,184.084 L243.889159,184.084 Z M243.889159,194.084 L243.889159,199.084 L244.889159,199.084 L244.889159,194.084 L243.889159,194.084 Z M243.889159,204.084 L243.889159,209.084 L244.889159,209.084 L244.889159,204.084 L243.889159,204.084 Z M243.889159,214.084 L243.889159,219.084 L244.889159,219.084 L244.889159,214.084 L243.889159,214.084 Z M243.889159,224.084 L243.889159,229.084 L244.889159,229.084 L244.889159,224.084 L243.889159,224.084 Z M243.889159,234.084 L243.889159,239.084 L244.889159,239.084 L244.889159,234.084 L243.889159,234.084 Z M243.889159,244.084 L243.889159,249.084 L244.889159,249.084 L244.889159,244.084 L243.889159,244.084 Z M243.889159,254.084 L243.889159,259.084 L244.889159,259.084 L244.889159,254.084 L243.889159,254.084 Z M243.889159,264.084 L243.889159,269.084 L244.889159,269.084 L244.889159,264.084 L243.889159,264.084 Z M243.889159,274.084 L243.889159,279.084 L244.889159,279.084 L244.889159,274.084 L243.889159,274.084 Z M243.889159,284.084 L243.889159,289.084 L244.889159,289.084 L244.889159,284.084 L243.889159,284.084 Z M243.889159,294.084 L243.889159,299.084 L244.889159,299.084 L244.889159,294.084 L243.889159,294.084 Z M243.889159,304.084 L243.889159,309.084 L244.889159,309.084 L244.889159,304.084 L243.889159,304.084 Z M243.889159,314.084 L243.889159,319.084 L244.889159,319.084 L244.889159,314.084 L243.889159,314.084 Z M243.889159,324.084 L243.889159,329.084 L244.889159,329.084 L244.889159,324.084 L243.889159,324.084 Z M243.889159,334.084 L243.889159,339.084 L244.889159,339.084 L244.889159,334.084 L243.889159,334.084 Z M243.889159,344.084 L243.889159,349.084 L244.889159,349.084 L244.889159,344.084 L243.889159,344.084 Z M243.889159,354.084 L243.889159,359.084 L244.889159,359.084 L244.889159,354.084 L243.889159,354.084 Z M243.889159,364.084 L243.889159,369.084 L244.889159,369.084 L244.889159,364.084 L243.889159,364.084 Z M243.889159,374.084 L243.889159,379.084 L244.889159,379.084 L244.889159,374.084 L243.889159,374.084 Z M243.889159,384.084 L243.889159,389.084 L244.889159,389.084 L244.889159,384.084 L243.889159,384.084 Z M243.889159,394.084 L243.889159,399.084 L244.889159,399.084 L244.889159,394.084 L243.889159,394.084 Z M243.889159,404.084 L243.889159,407.084 L244.889159,407.084 L244.889159,404.084 L243.889159,404.084 Z" id="Path" fill="#EAEAEA"></path>
                    <polygon id="Path" fill="#070F16" points="85.1061588 426.584 81.3891588 406.584 195.389159 406.584 195.389159 426.584"></polygon>
                    <polygon id="Path" fill="#101C28" points="212.402159 45.186 338.314159 45.186 348.889159 419.084 243.389159 416.084"></polygon>
                    <polygon id="Path" fill="#070F16" points="242.124159 429.584 238.389159 409.584 360.389159 409.584 360.389159 429.584"></polygon>
                    <path d="M182.889159,55.084 L182.889159,60.084 L183.889159,60.084 L183.889159,55.084 L182.889159,55.084 Z M182.889159,65.084 L182.889159,70.084 L183.889159,70.084 L183.889159,65.084 L182.889159,65.084 Z M182.889159,75.084 L182.889159,80.084 L183.889159,80.084 L183.889159,75.084 L182.889159,75.084 Z M182.889159,85.084 L182.889159,90.084 L183.889159,90.084 L183.889159,85.084 L182.889159,85.084 Z M182.889159,95.084 L182.889159,100.084 L183.889159,100.084 L183.889159,95.084 L182.889159,95.084 Z M182.889159,105.084 L182.889159,110.084 L183.889159,110.084 L183.889159,105.084 L182.889159,105.084 Z M182.889159,115.084 L182.889159,120.084 L183.889159,120.084 L183.889159,115.084 L182.889159,115.084 Z M182.889159,125.084 L182.889159,130.084 L183.889159,130.084 L183.889159,125.084 L182.889159,125.084 Z M182.889159,135.084 L182.889159,140.084 L183.889159,140.084 L183.889159,135.084 L182.889159,135.084 Z M182.889159,145.084 L182.889159,150.084 L183.889159,150.084 L183.889159,145.084 L182.889159,145.084 Z M182.889159,155.084 L182.889159,160.084 L183.889159,160.084 L183.889159,155.084 L182.889159,155.084 Z M182.889159,165.084 L182.889159,170.084 L183.889159,170.084 L183.889159,165.084 L182.889159,165.084 Z M182.889159,175.084 L182.889159,180.084 L183.889159,180.084 L183.889159,175.084 L182.889159,175.084 Z M182.889159,185.084 L182.889159,190.084 L183.889159,190.084 L183.889159,185.084 L182.889159,185.084 Z M182.889159,195.084 L182.889159,200.084 L183.889159,200.084 L183.889159,195.084 L182.889159,195.084 Z M182.889159,205.084 L182.889159,210.084 L183.889159,210.084 L183.889159,205.084 L182.889159,205.084 Z M182.889159,215.084 L182.889159,220.084 L183.889159,220.084 L183.889159,215.084 L182.889159,215.084 Z M182.889159,225.084 L182.889159,230.084 L183.889159,230.084 L183.889159,225.084 L182.889159,225.084 Z M182.889159,235.084 L182.889159,240.084 L183.889159,240.084 L183.889159,235.084 L182.889159,235.084 Z M182.889159,245.084 L182.889159,250.084 L183.889159,250.084 L183.889159,245.084 L182.889159,245.084 Z M182.889159,255.084 L182.889159,260.084 L183.889159,260.084 L183.889159,255.084 L182.889159,255.084 Z M182.889159,265.084 L182.889159,270.084 L183.889159,270.084 L183.889159,265.084 L182.889159,265.084 Z M182.889159,275.084 L182.889159,280.084 L183.889159,280.084 L183.889159,275.084 L182.889159,275.084 Z M182.889159,285.084 L182.889159,290.084 L183.889159,290.084 L183.889159,285.084 L182.889159,285.084 Z M182.889159,295.084 L182.889159,300.084 L183.889159,300.084 L183.889159,295.084 L182.889159,295.084 Z M182.889159,305.084 L182.889159,310.084 L183.889159,310.084 L183.889159,305.084 L182.889159,305.084 Z M182.889159,315.084 L182.889159,320.084 L183.889159,320.084 L183.889159,315.084 L182.889159,315.084 Z M182.889159,325.084 L182.889159,330.084 L183.889159,330.084 L183.889159,325.084 L182.889159,325.084 Z M182.889159,335.084 L182.889159,340.084 L183.889159,340.084 L183.889159,335.084 L182.889159,335.084 Z M182.889159,345.084 L182.889159,350.084 L183.889159,350.084 L183.889159,345.084 L182.889159,345.084 Z M182.889159,355.084 L182.889159,360.084 L183.889159,360.084 L183.889159,355.084 L182.889159,355.084 Z M182.889159,365.084 L182.889159,370.084 L183.889159,370.084 L183.889159,365.084 L182.889159,365.084 Z M182.889159,375.084 L182.889159,380.084 L183.889159,380.084 L183.889159,375.084 L182.889159,375.084 Z M182.889159,385.084 L182.889159,390.084 L183.889159,390.084 L183.889159,385.084 L182.889159,385.084 Z M182.889159,395.084 L182.889159,400.084 L183.889159,400.084 L183.889159,395.084 L182.889159,395.084 Z M182.889159,405.084 L182.889159,407.084 L183.889159,407.084 L183.889159,405.084 L182.889159,405.084 Z" id="Path" fill="#817F7F"></path>
                    <path d="M194.889159,411.084 L189.889159,411.084 L189.889159,412.084 L194.889159,412.084 L194.889159,411.084 Z M184.889159,411.084 L179.889159,411.084 L179.889159,412.084 L184.889159,412.084 L184.889159,411.084 Z M174.889159,411.084 L169.889159,411.084 L169.889159,412.084 L174.889159,412.084 L174.889159,411.084 Z M164.889159,411.084 L159.889159,411.084 L159.889159,412.084 L164.889159,412.084 L164.889159,411.084 Z M154.889159,411.084 L149.889159,411.084 L149.889159,412.084 L154.889159,412.084 L154.889159,411.084 Z M144.889159,411.084 L139.889159,411.084 L139.889159,412.084 L144.889159,412.084 L144.889159,411.084 Z M134.889159,411.084 L129.889159,411.084 L129.889159,412.084 L134.889159,412.084 L134.889159,411.084 Z M124.889159,411.084 L119.889159,411.084 L119.889159,412.084 L124.889159,412.084 L124.889159,411.084 Z M114.889159,411.084 L109.889159,411.084 L109.889159,412.084 L114.889159,412.084 L114.889159,411.084 Z M104.889159,411.084 L99.8891588,411.084 L99.8891588,412.084 L104.889159,412.084 L104.889159,411.084 Z M94.8891588,411.084 L89.8891588,411.084 L89.8891588,412.084 L94.8891588,412.084 L94.8891588,411.084 Z M84.8891588,411.084 L81.3891588,411.084 L81.3891588,412.084 L84.8891588,412.084 L84.8891588,411.084 Z" id="Path" fill="#817F7F"></path>
                    <path d="M359.889159,414.084 L354.889159,414.084 L354.889159,415.084 L359.889159,415.084 L359.889159,414.084 Z M349.889159,414.084 L344.889159,414.084 L344.889159,415.084 L349.889159,415.084 L349.889159,414.084 Z M339.889159,414.084 L334.889159,414.084 L334.889159,415.084 L339.889159,415.084 L339.889159,414.084 Z M329.889159,414.084 L324.889159,414.084 L324.889159,415.084 L329.889159,415.084 L329.889159,414.084 Z M319.889159,414.084 L314.889159,414.084 L314.889159,415.084 L319.889159,415.084 L319.889159,414.084 Z M309.889159,414.084 L304.889159,414.084 L304.889159,415.084 L309.889159,415.084 L309.889159,414.084 Z M299.889159,414.084 L294.889159,414.084 L294.889159,415.084 L299.889159,415.084 L299.889159,414.084 Z M289.889159,414.084 L284.889159,414.084 L284.889159,415.084 L289.889159,415.084 L289.889159,414.084 Z M279.889159,414.084 L274.889159,414.084 L274.889159,415.084 L279.889159,415.084 L279.889159,414.084 Z M269.889159,414.084 L264.889159,414.084 L264.889159,415.084 L269.889159,415.084 L269.889159,414.084 Z M259.889159,414.084 L254.889159,414.084 L254.889159,415.084 L259.889159,415.084 L259.889159,414.084 Z M249.889159,414.084 L244.889159,414.084 L244.889159,415.084 L249.889159,415.084 L249.889159,414.084 Z M239.889159,414.084 L239.389159,414.084 L239.389159,415.084 L239.889159,415.084 L239.889159,414.084 Z" id="Path" fill="#817F7F"></path>
                    <path d="M226.891198,124.129108 L227.342282,129.108719 L228.338204,129.018502 L227.88712,124.038892 L226.891198,124.129108 Z M227.793365,134.08833 L228.244449,139.067941 L229.240371,138.977724 L228.789287,133.998113 L227.793365,134.08833 Z M228.695533,144.047551 L229.146616,149.027162 L230.142539,148.936945 L229.691455,143.957335 L228.695533,144.047551 Z M229.5977,154.006773 L230.048784,158.986384 L231.044706,158.896167 L230.593622,153.916556 L229.5977,154.006773 Z M230.499868,163.965995 L230.950951,168.945605 L231.946874,168.855389 L231.49579,163.875778 L230.499868,163.965995 Z M231.402035,173.925216 L231.853119,178.904827 L232.849041,178.81461 L232.397957,173.834999 L231.402035,173.925216 Z M232.304203,183.884438 L232.755286,188.864048 L233.751209,188.773832 L233.300125,183.794221 L232.304203,183.884438 Z M233.20637,193.843659 L233.657454,198.82327 L234.653376,198.733053 L234.202292,193.753442 L233.20637,193.843659 Z M234.108538,203.802881 L234.559621,208.782492 L235.555544,208.692275 L235.10446,203.712664 L234.108538,203.802881 Z M235.010705,213.762102 L235.461789,218.741713 L236.457711,218.651496 L236.006627,213.671886 L235.010705,213.762102 Z M235.912873,223.721324 L236.363956,228.700935 L237.359879,228.610718 L236.908795,223.631107 L235.912873,223.721324 Z M236.81504,233.680545 L237.266124,238.660156 L238.262046,238.569939 L237.810962,233.590329 L236.81504,233.680545 Z M237.717208,243.639767 L238.168291,248.619378 L239.164214,248.529161 L238.71313,243.54955 L237.717208,243.639767 Z M238.619375,253.598988 L239.070459,258.578599 L240.066381,258.488383 L239.615297,253.508772 L238.619375,253.598988 Z M239.521543,263.55821 L239.972626,268.537821 L240.968549,268.447604 L240.517465,263.467993 L239.521543,263.55821 Z M240.42371,273.517432 L240.874794,278.497042 L241.870716,278.406826 L241.419632,273.427215 L240.42371,273.517432 Z M241.325878,283.476653 L241.776961,288.456264 L242.772884,288.366047 L242.3218,283.386436 L241.325878,283.476653 Z M242.228045,293.435875 L242.679129,298.415485 L243.675051,298.325269 L243.223967,293.345658 L242.228045,293.435875 Z M243.130213,303.395096 L243.581296,308.374707 L244.577219,308.28449 L244.126135,303.304879 L243.130213,303.395096 Z M244.03238,313.354318 L244.483464,318.333929 L245.479386,318.243712 L245.028302,313.264101 L244.03238,313.354318 Z M244.934548,323.313539 L245.385631,328.29315 L246.381554,328.202933 L245.93047,323.223323 L244.934548,323.313539 Z M245.836715,333.272761 L246.287799,338.252372 L247.283721,338.162155 L246.832637,333.182544 L245.836715,333.272761 Z M246.738883,343.231982 L247.189966,348.211593 L248.185889,348.121376 L247.734805,343.141766 L246.738883,343.231982 Z M247.64105,353.191204 L248.092134,358.170815 L249.088056,358.080598 L248.636972,353.100987 L247.64105,353.191204 Z M248.543218,363.150425 L248.994301,368.130036 L249.990224,368.03982 L249.53914,363.060209 L248.543218,363.150425 Z M249.445385,373.109647 L249.896469,378.089258 L250.892391,377.999041 L250.441307,373.01943 L249.445385,373.109647 Z M250.347553,383.068869 L250.798636,388.048479 L251.794558,387.958263 L251.343475,382.978652 L250.347553,383.068869 Z M251.24972,393.02809 L251.700804,398.007701 L252.696726,397.917484 L252.245642,392.937873 L251.24972,393.02809 Z M252.151888,402.987312 L252.391198,405.629108 L253.38712,405.538892 L253.14781,402.897095 L252.151888,402.987312 Z" id="Path" fill="#817F7F"></path>
                    <path d="M126.646159,459.524 C121.938159,461.074 118.080159,461.094 115.813159,459.564 C109.969159,455.544 113.222159,448.784 114.612159,446.134 C112.031159,449.424 109.468159,452.734 107.519159,456.294 C104.443159,461.854 103.328159,467.844 105.792159,471.514 C110.212159,478.144 119.809159,474.474 125.888159,471.394 L182.294159,442.844 L126.646159,459.524 Z" id="Path" fill="#000000"></path>
                    <path d="M312.542159,459.524 C317.249159,461.074 321.108159,461.094 323.375159,459.564 C329.219159,455.544 325.966159,448.784 324.576159,446.134 C327.157159,449.424 329.720159,452.734 331.669159,456.294 C334.745159,461.854 335.860159,467.844 333.396159,471.514 C328.976159,478.144 319.378159,474.474 313.300159,471.394 L256.894159,442.844 L312.542159,459.524 Z" id="Path" fill="#000000"></path>
                    <ellipse id="Oval" fill="#101C28" cx="210.699159" cy="61.509" rx="118.297" ry="60.9254"></ellipse>
                </g>
                <g id="upper-limb" transform="translate(0.000000, 407.000000)">
                    <polygon id="Path" fill="#424657" fill-rule="nonzero" points="433.5 603 404.5 496 446 457 467.5 583.5"></polygon>
                    <path d="M397.955,356.065 L306.455,373.065 L279.955,402.065 C270.622,413.398 255.555,437.765 269.955,444.565 C287.955,453.065 350.455,448.565 374.955,453.065 C399.455,457.565 429.955,472.565 433.455,505.565 C436.255,531.965 426.5,556 451.5,559.5 C451.5,562.667 450.355,549.965 453.955,583.57 C457.555,617.17 465.788,628.23 469.455,629.57 C467.5,637.5 463.6,641.6 466,662 C468.4,682.4 486.788,683.9 496.455,683.57 C492.122,683.23 482.255,677.87 477.455,659.07 C471.455,635.57 510.455,601.57 513.455,576.065 C516.455,550.565 467.5,435.5 459,380 C452.2,335.6 424.5,315.167 417,323 L418.455,339.065 L397.955,356.065 Z" id="Path" fill="#6A6E7E" fill-rule="nonzero"></path>
                    <g id="Clipped" transform="translate(264.000000, 321.000000)">
                        <mask id="mask-2" fill="white">
                            <use xlink:href="#path-1"></use>
                        </mask>
                        <g id="Path"></g>
                        <path d="M189.5,229.5 C179.5,227.9 170,228.5 168,222 L159,229.5 C157.333,233.167 160.7,239.7 187.5,238.5 C221,237 241,242 243.5,251 C246,260 242,265 229.5,280.5 C220.37,291.82 215,291.5 205.5,309 L198,310.5 L198,356 L235.5,366 L247.5,303.5 C252.333,288.83 259.9,256.6 251.5,245 C241,230.5 202,231.5 189.5,229.5 Z" id="Path" fill="#000000" fill-rule="nonzero" mask="url(#mask-2)"></path>
                    </g>
                    <path d="M474.6235,175.694687 C499.092649,171.344616 522.455242,187.654351 526.805313,212.1235 L527.106228,213.841427 C532.001907,242.204868 535.94083,285.361314 537.047674,328.469975 C538.476778,384.129817 535.35001,436.456713 526.635749,480.276996 C521.788348,504.652497 498.098506,520.48315 473.723004,515.635749 C449.347503,510.788348 433.51685,487.098506 438.364251,462.723004 C445.599174,426.341677 448.349262,380.318587 447.077326,330.780025 L447.013003,328.39816 C445.911055,289.500558 442.306916,251.00779 438.194687,227.8765 C433.844616,203.407351 450.154351,180.044758 474.6235,175.694687 Z" id="Path" fill="#EBBAAA" fill-rule="nonzero"></path>
                    <path d="M76.9998,85.5 C101.5,50.5 169,57.5 210.5,38 L365.5,38 C422.5,57.5 456.05,49 481.5,85.5 C519.5,140 538.5,244.5 548.5,339 C548.5,339 510.5,340.197 493,345.5 C475.5,350.803 442,362.5 442,362.5 L415,270 L415,297.5 L422.5,397 L442,498 C409.333,503.667 335.8,515.5 303,517.5 C270.2,519.5 158.5,505.333 116,498 C116,467.667 134.5,397 134.5,397 C134.5,397 140,371 134.5,345.5 C132.557,336.491 128.05,316.28 123.812,296.866 C82.8334,295.142 11,291.5 11,291.5 C11,291.5 26.6222,209.644 41.4998,166.5 C51.5,137.5 60.0824,109.667 76.9998,85.5 Z" id="Path" fill="#CFD1D9" fill-rule="nonzero"></path>
                    <g id="Clipped" transform="translate(11.000000, 38.000000)">
                        <mask id="mask-4" fill="white">
                            <use xlink:href="#path-3"></use>
                        </mask>
                        <g id="Path"></g>
                        <g id="Group" mask="url(#mask-4)" fill-rule="nonzero">
                            <g transform="translate(-32.000000, 62.000000)" id="Path">
                                <polygon fill="#000000" points="269 155.5 35 99 0 155.5 17.5 398 280 502 442.5 458 588 155.5"></polygon>
                                <path d="M116.5,38.5 L78.5,0 L36,57 L36,129 L59,150 L141,176.5 L150.5,229 L173,215.5 L203.5,215.5 L278,215.5 L357,215.5 L442.5,229 L439.5,191.5 C439.5,191.5 469.5,198 502.5,191.5 C535.5,185 558,163.5 558,163.5 L578,114.5 L552,38.5 L429.5,77.5 L366,61 L192.5,61 L116.5,38.5 Z" fill="#EDEDF3"></path>
                                <path d="M418.955,256.065 L327.455,273.065 L300.955,302.065 C291.622,313.398 276.555,337.765 290.955,344.565 C308.955,353.065 371.455,348.565 395.955,353.065 C420.455,357.565 450.955,372.565 454.455,405.565 C457.255,431.965 466.288,434.232 470.455,432.065 C470.455,435.232 471.355,449.965 474.955,483.57 C478.555,517.17 486.788,528.23 490.455,529.57 C487.788,530.9 483.055,538.67 485.455,559.07 C487.855,579.47 507.788,583.9 517.455,583.57 C513.122,583.23 503.255,577.87 498.455,559.07 C492.455,535.57 531.455,501.57 534.455,476.065 C537.455,450.565 488.5,335.5 480,280 C473.2,235.6 445.5,215.167 438,223 L439.455,239.065 L418.955,256.065 Z" fill="#767986"></path>
                                <path d="M347.5,326.5 L327.5,317 C313.5,317 276,328.2 288,343 C303,361.5 401.612,351.34 428,366 C446,376 451.5,395.5 453,402 L465,402 L476,372.5 L448.5,322.5 L385.5,317 L347.5,326.5 Z" fill="#6A6E7E"></path>
                                <path d="M250.5,269 C282.1,265 295.333,280.334 298,288.5 L289,306.5 L157,320.5 L157,306.5 C175,295.667 218.9,273 250.5,269 Z" fill="#6A6E7E"></path>
                                <polygon fill="#767986" points="270 324.5 177.5 383.5 170 356.5 223.5 309 290.5 309"></polygon>
                                <path d="M247,282 C263.4,280 286.167,297.167 295.5,303.5 L281.5,309 L247,309 L182.5,373 L144,318 C149.167,316.667 142.8,305.901 162,297.5 C186,287 226.5,284.5 247,282 Z" fill="#8E919D"></path>
                            </g>
                        </g>
                    </g>
                    <polygon id="Path" fill="#424657" fill-rule="nonzero" points="203.5 606 142 445.5 108.5 644"></polygon>
                    <path d="M169,651 C160.2,640.2 154.667,588.83 153,564.5 C134.833,609.67 98.7,705.2 99.5,726 C100.5,752 108.5,738.5 124,737 C139.5,735.5 153,691 153,686.5 C153,682 180,664.5 169,651 Z" id="Path" fill="#4F5363" fill-rule="nonzero"></path>
                    <path d="M92.5,526.5 C84.4999,502.9 89.167,452.333 92.5,430 L111,384.5 L137,377 C145.833,414 177.1,574 165.5,582 C151,592 130.5,649.5 130.5,676 C130.5,697.2 105.167,731.5 92.5,746 C92.5,732.83 89.8,700.4 78.9996,676 C65.4994,645.5 102.5,556 92.5,526.5 Z" id="Path" fill="#6A6E7E" fill-rule="nonzero"></path>
                    <g id="Clipped" transform="translate(76.000000, 384.000000)">
                        <mask id="mask-6" fill="white">
                            <use xlink:href="#path-5"></use>
                        </mask>
                        <g id="Path"></g>
                        <path d="M39.5,300.5 C37.1,310.1 19.167,342.17 10.5,357 L4,395 L65.5,341 L113,218.5 L98.5,173 C75.5,186.5 56.6,225.5 51,243.5 C44,266 42.5,288.5 39.5,300.5 Z" id="Path" fill="#000000" fill-rule="nonzero" mask="url(#mask-6)"></path>
                    </g>
                    <ellipse id="Oval" fill="#C2C5CE" fill-rule="nonzero" cx="280" cy="77" rx="89" ry="77"></ellipse>
                    <rect id="Rectangle" fill="#EBBAAA" fill-rule="nonzero" x="215" y="15" width="130" height="115" rx="57.5"></rect>
                    <path d="M49.496653,330.530789 C71.0187538,318.102534 98.5409553,325.474552 110.969211,346.996653 L114.886989,353.760863 C134.651559,387.767858 144.089415,401.982464 169.552056,436.069548 C184.425334,455.980549 180.341453,484.178779 160.430452,499.052056 C140.519451,513.925334 112.321221,509.841453 97.4479436,489.930452 L94.0151661,485.324215 C67.2295293,449.291461 56.290668,432.282649 33.0307894,392.003347 C20.602534,370.481246 27.9745523,342.959045 49.496653,330.530789 Z" id="Path" fill="#EBBAAA" fill-rule="nonzero"></path>
                    <polygon id="Path" fill="#000000" fill-rule="nonzero" points="23 278 6 296 6 305 17.5 307.5 6 312.5 6 326 17.5 333 67 338.5 126 359 131.5 356 133 344 126 329 126 320.5 128 318.5 123.5 296"></polygon>
                    <polygon id="Path" fill="#000000" fill-rule="nonzero" points="1.5 343.5 16.5 327 85 331.5 130 352.5 16.5 377"></polygon>
                    <polygon id="Path" fill="#000000" fill-rule="nonzero" points="2.5 311 31.2894 300.5 70.5465 276 120.5 279 127.5 315.5 70.5465 348.545 31.2894 362.55 6.5 352.613 8.3923 331.891 0 323.5"></polygon>
                    <path d="M24.5,394.5 L24.5,373 L46.5,351 L128,351 L128,361 L128,373 L139,389.5 C131.5,387.833 112.4,375.5 84,383.5 C55.6,391.5 42.6667,408.833 43,409.5 L32.5,414 L24.5,394.5 Z" id="Path" fill="#000000" fill-rule="nonzero"></path>
                    <path d="M417.5,305 L425,298.5 L488,307.5 L539,293 L557,293 L557,305 L545,320.5 L557,327.5 L557,341.5 L552.5,351.5 L559.5,361.5 L554.5,372.5 L545,370.5 L557,388 L550,399 L536,399 C527.5,390.833 513.9,381.1 491.5,379.5 C469.1,377.9 452.167,386.5 446,391.5 L434,388 L434,365 L441.5,352.5 L425,352.5 L427,332 L441.5,327.5 L425,320.5 L417.5,305 Z" id="Path" fill="#000000" fill-rule="nonzero"></path>
                    <path d="M239.5,409 C243.433,396.084 259.5,375 276.5,372 C293.5,369 309,372 309,372 C311.5,373.5 306.817,382.143 300.856,393.624 C293.404,407.975 315.759,418.343 300.856,419.299 C288.932,420.065 272,438 273,447 C266.79,447.319 239.652,449.26 233,435 C228.243,424.803 233,411 239.5,409 Z" id="Path" fill="#A6A8B1" fill-rule="nonzero"></path>
                </g>
                <g id="head" transform="translate(73.999500, 0.686521)" fill-rule="nonzero">
                    <ellipse id="Oval" fill="#EBBAAA" cx="58.0695" cy="278.394479" rx="58.0695" ry="55.0806"></ellipse>
                    <ellipse id="Oval" fill="#EBBAAA" cx="353.0695" cy="278.394479" rx="58.0695" ry="55.0806"></ellipse>
                    <path d="M33.8085,185.711479 C30.0025,89.3504785 107.0915,9.15627852 203.5275,9.15627852 C300.1945,9.15627852 377.3725,89.7214785 373.2215,186.300479 L367.6145,316.751479 C363.8325,404.756479 291.3855,474.156479 203.3005,474.156479 C114.9935,474.156479 42.4475,404.419479 38.9615,316.181479 L33.8085,185.711479 Z" id="Path" fill="#EED4CC"></path>
                    <path d="M146.169325,248.955212 C152.715151,247.918477 158.862031,252.384478 159.898766,258.930304 C160.919551,265.375425 156.605614,271.433781 150.224301,272.608284 L149.923675,272.659745 L122.003675,277.081745 C115.457849,278.11848 109.310969,273.652479 108.274234,267.106653 C107.253449,260.661532 111.567386,254.603177 117.948699,253.428673 L118.249325,253.377212 L146.169325,248.955212 Z" id="Path" fill="#000000"></path>
                    <path d="M246.275244,257.930238 C247.296065,251.485123 253.270994,247.056358 259.702926,247.911267 L260.00474,247.955223 L287.92374,252.377223 C294.469561,253.413994 298.935527,259.560899 297.898756,266.106719 C296.877935,272.551834 290.903006,276.980599 284.471074,276.125691 L284.16926,276.081734 L256.25026,271.659734 C249.704439,270.622963 245.238473,264.476058 246.275244,257.930238 Z" id="Path" fill="#000000"></path>
                    <path d="M110.376746,205.790378 L157.556746,207.270378 C164.180904,207.478173 169.382395,213.016566 169.1746,219.640724 C168.970002,226.162973 163.597563,231.305991 157.109198,231.264343 L156.804254,231.258579 L109.624254,229.778579 C103.000096,229.570784 97.7986051,224.032392 98.0063998,217.408233 C98.2109977,210.885984 103.583437,205.742966 110.071802,205.784614 L110.376746,205.790378 Z" id="Path" fill="#393939"></path>
                    <path d="M294.804254,204.790378 C301.428413,204.582584 306.966805,209.784074 307.1746,216.408233 C307.379198,222.930481 302.33967,228.400115 295.861451,228.765219 L295.556746,228.778579 L248.376746,230.258579 C241.752587,230.466373 236.214195,225.264883 236.0064,218.640724 C235.801802,212.118476 240.84133,206.648842 247.319549,206.283738 L247.624254,206.270378 L294.804254,204.790378 Z" id="Path" fill="#393939"></path>
                    <path d="M267.816809,12.7911114 C278.504709,12.6470071 293.707985,16.5387333 307.23276,24.3041574 C309.581843,18.5081455 308.917441,9.02731002 306.5005,3.31347852 C309.979393,5.13572281 316.422213,12.8200201 314.535758,29.0177192 C315.714473,29.8706777 316.868506,30.7576018 317.993222,31.6775296 C324.080577,28.4848671 331.986577,26.556717 339.5005,30.3136785 L321.555849,34.7991279 C326.286746,39.2458034 330.319644,44.3532259 333.207611,50.1094688 C352.996212,67.7679052 366.775139,89.3901088 370.5305,113.813479 C378.804448,167.627347 377.486185,229.211809 372.000274,230.474155 L372.0005,275.813479 C372.0005,278.851045 369.538066,281.313479 366.5005,281.313479 C363.462934,281.313479 361.0005,278.851045 361.0005,275.813479 L360.999282,215.244864 L360.175199,213.996182 C351.429489,200.664448 347.017181,191.141504 340.5005,158.813479 C336.3275,138.117479 334.9095,102.269479 299.0005,90.8134785 C291.85224,88.5330501 282.258198,87.7153398 271.312391,87.6883308 L270.503079,88.3873778 C258.692911,98.4967626 243.651463,107.363177 230.2395,104.896479 C217.387569,102.533044 212.860355,99.8435058 210.591828,96.4346673 C207.889029,100.433503 203.269312,104.973121 195.0005,110.313479 C171.0005,125.813479 147.0005,114.813479 133.5005,110.313479 L132.488666,109.981589 C123.972175,107.235036 117.589767,106.407411 112.545708,108.957932 C111.493395,109.734245 110.45171,110.461444 109.421068,111.131159 C108.311212,112.14172 107.272466,113.37786 106.292679,114.861079 L106.0005,115.313479 C101.2005,122.913479 86.6675,131.646479 82.5005,130.313479 C84.0642165,129.271261 88.9900957,123.647334 91.0647648,116.540734 C82.6832349,116.390876 73.2241484,108.777291 74.6870328,102.427277 C58.265293,125.2809 76.311964,162.486061 61.0005,175.547479 C40.7579239,192.814396 49.7235815,219.939304 47.000741,233.191192 L47.0005,275.813479 C47.0005,278.851045 44.5380661,281.313479 41.5005,281.313479 C38.4629339,281.313479 36.0005,278.851045 36.0005,275.813479 L36.0011756,234.991767 C30.0361073,223.467506 25.0005,196.417848 25.0005,175.547479 C25.0005,127.452957 36.6445915,92.3172176 58.1068931,68.3592968 C58.0366938,66.7948022 58.1553537,65.1159094 58.5005,63.3134785 C63.0005,39.8134785 82.0005,24.8135785 95.5005,24.8135785 C102.507307,24.8135785 108.571268,24.5441939 114.251649,24.4248749 C121.137803,17.0531639 131.282424,10.8342062 144.0305,6.97117852 C181.861387,-4.49260275 227.428801,-1.30866994 267.816809,12.7911114 Z" id="Path" fill="#393939"></path>
                    <path d="M188.87241,279.00195 L205.71459,281.313007 C205.266971,284.5751 203.925383,287.815314 201.70866,291.773759 L201.26443,292.556132 C200.732178,293.481194 200.147661,294.455356 199.475957,295.542363 L198.284084,297.446967 L195.914005,301.173346 C194.715303,303.062849 193.846077,304.467208 193.048461,305.817967 L192.614736,306.561273 C189.242125,312.412585 188.191015,315.977739 188.667603,317.043974 L188.700677,317.100257 C188.747017,317.165324 188.838703,317.259608 189.025672,317.408901 C189.564188,317.838899 190.447765,318.301795 191.728521,318.743112 C195.159333,319.925283 200.458295,320.616258 207.691275,320.654777 L208.3345,320.656479 L208.3345,337.656479 C189.051238,337.656479 177.477481,333.668453 173.147455,323.981194 C171.102789,319.406809 171.184053,314.450861 172.784873,309.181719 C173.860815,305.640228 175.583022,302.025781 178.052219,297.784315 L178.410054,297.174066 C179.247221,295.756327 180.125084,294.333 181.26771,292.526384 L183.449411,289.072707 C187.442424,282.710457 188.601558,280.547894 188.84927,279.149059 L188.87241,279.00195 Z" id="Path" fill="#EBBAAA"></path>
                    <path d="M228.585305,368.863536 C232.699795,367.253519 237.340425,369.283794 238.950442,373.398284 C240.56046,377.512773 238.530184,382.153403 234.415695,383.763421 C215.646847,391.107753 188.561764,390.593862 165.776035,383.997993 C161.531995,382.769455 159.087448,378.333054 160.315986,374.089014 C161.544524,369.844974 165.980925,367.400427 170.224965,368.628964 C189.893199,374.322401 213.4907,374.770121 228.585305,368.863536 Z" id="Path" fill="#C99584"></path>
                    <path d="M232.047944,335.834001 C234.798033,335.584061 237.230037,337.610833 237.479977,340.360922 C238.212925,348.425549 241.739145,358.014507 247.53952,365.434133 C254.969156,374.937851 265.521278,380.487028 279.616748,380.81483 C282.377425,380.879032 284.56335,383.169049 284.499148,385.929726 C284.434947,388.690403 282.14493,390.876329 279.384252,390.812127 C262.221972,390.413004 248.895011,383.404587 239.66123,371.593074 C232.619729,362.585845 228.420955,351.167989 227.521023,341.266035 C227.271083,338.515946 229.297854,336.083941 232.047944,335.834001 Z" id="Path" fill="#EBBAAA"></path>
                </g>
            </g>
        </g>
    </g>
</svg>