<?xml version="1.0" encoding="UTF-8"?>
<svg width="480px" height="1359px" viewBox="0 0 480 1359" version="1.1" xmlns="http://www.w3.org/2000/svg" xmlns:xlink="http://www.w3.org/1999/xlink">
    <!-- Generator: Sketch 55.2 (78181) - https://sketchapp.com -->
    <title>gee_me_053</title>
    <desc>Created with Sketch.</desc>
    <defs>
        <path d="M173.975946,59.3819648 C173.975946,44.6424015 169.110114,36.5482596 160.303762,30.8281501 C118.403026,3.62959019 64.0722665,2.34910815 14.1493565,0.498484489 C13.7409108,0.498484489 12.4370623,3.52677776 12.2585425,3.89129454 C10.4668023,7.57384871 1.06413865,27.6503115 1.06413865,43.7170897 C1.06413865,56.0078479 0.0117132712,68.0929812 3.40078469,74.3364994 C4.92988586,77.1498213 14.4774216,78.6920077 17.6833,78.6920077 L168.776441,78.6920077 C171.647712,78.6920077 173.975946,62.2513661 173.975946,59.3819648 Z" id="path-1"></path>
        <path d="M0.285243902,59.3819648 C0.285243902,44.6424015 5.15088869,36.5482596 13.9570534,30.8281501 C55.8581641,3.62959019 110.187989,2.34910815 160.111833,0.498484489 C160.519344,0.498484489 161.823193,3.52677776 162.001713,3.89129454 C163.793453,7.57384871 173.197051,27.6503115 173.197051,43.7170897 C173.197051,56.0078479 174.249476,68.0929812 170.860405,74.3364994 C169.331304,77.1498213 159.783768,78.6920077 156.576955,78.6920077 L5.48428135,78.6920077 C2.61291722,78.6920077 0.285243902,62.2513661 0.285243902,59.3819648 Z" id="path-3"></path>
    </defs>
    <g id="GEE!-ME" stroke="none" stroke-width="1" fill="none" fill-rule="evenodd">
        <g id="gee_me_053" transform="translate(-360.000000, -131.000000)">
            <g transform="translate(343.000000, 131.000000)">
                <g id="lower-limb" transform="translate(75.492968, 888.882309)">
                    <path d="M163.987115,109.258107 C223.602433,109.258107 271.930816,86.3683226 271.930816,58.1229453 C271.930816,29.8878491 223.602433,6.99526053 163.987115,6.99526053 C104.370863,6.99526053 56.0424801,29.8878491 56.0424801,58.1229453 C56.0424801,86.3683226 104.370863,109.258107 163.987115,109.258107 Z" id="Path" fill="#1B1E21" fill-rule="nonzero"></path>
                    <path d="M243.602254,228.894385 C257.400216,228.894385 268.611798,239.967988 268.83465,253.712842 L268.838031,254.130162 L268.838031,411.152776 C268.838031,425.090111 257.539589,436.388553 243.602254,436.388553 C229.804292,436.388553 218.592709,425.31495 218.369858,411.570096 L218.366477,411.152776 L218.366477,254.130162 C218.366477,240.192827 229.664919,228.894385 243.602254,228.894385 Z" id="Path" fill="#EBBAAA" fill-rule="nonzero"></path>
                    <path d="M113.69579,229.04374 C127.41209,227.544785 139.76031,237.33487 141.475028,250.974167 L141.523725,251.388649 L157.159626,394.46616 C158.673721,408.321008 148.669565,420.779999 134.814716,422.294094 C121.098417,423.793049 108.750197,414.002964 107.035479,400.363668 L106.986782,399.949185 L91.3508812,256.871674 C89.8367856,243.016826 99.8409422,230.557836 113.69579,229.04374 Z" id="Path" fill="#EBBAAA" fill-rule="nonzero"></path>
                    <path d="M156.374323,384.122455 C128.708433,389.730405 110.264819,386.459101 105.435439,384.122455 L108.239414,415.433511 L137.681154,429.453388 L160.112956,410.760219 C159.178298,402.815623 157.308981,393.469039 156.374323,384.122455 Z" id="Path" fill="#3F4248" fill-rule="nonzero"></path>
                    <path d="M218.061778,385.057113 C245.727667,390.665063 264.171282,387.393759 269.000662,385.057113 L269.000662,416.36817 L239.558922,430.388046 L217.12712,411.694878 C218.061778,403.750281 217.12712,394.403697 218.061778,385.057113 Z" id="Path" fill="#3F4248" fill-rule="nonzero"></path>
                    <polygon id="Path" fill="#1B1E21" fill-rule="nonzero" points="47.9539462 0.912503551 174.132832 0.912503551 169.45954 352.811398 169.45954 375.439478 83.470966 375.439478 79.6257813 346.745464"></polygon>
                    <polygon id="Path" fill="#1B1E21" fill-rule="nonzero" points="172.930862 6.54008188 299.537822 6.54008188 294.013056 350.474751 288.405105 376.645187 207.089823 382.253138 204.041902 354.213385"></polygon>
                    <polygon id="Path" fill="#0A0A0B" fill-rule="nonzero" points="77.8630155 369.16792 171.328857 369.16792 171.328857 391.599722 80.4660392 391.599722"></polygon>
                    <polygon id="Path" fill="#0A0A0B" fill-rule="nonzero" points="204.041902 371.037237 291.899793 371.037237 288.161159 391.599722 207.540328 391.599722"></polygon>
                    <g id="Group-3" transform="translate(201.263600, 391.101237)">
                        <path d="M173.975946,59.3819648 C173.975946,30.6879514 155.538874,27.1829823 125.488671,17.3503757 C110.770605,12.5368849 95.7506442,8.34026861 80.5101041,5.81669088 C70.9326593,4.22777157 68.3595447,12.6490439 51.5356932,12.6490439 C36.5325563,12.6490439 17.8150868,5.21850949 13.9390583,3.61089702 C13.453036,3.40527217 12.8763517,3.22768707 12.4894031,3.58285727 C12.3959373,3.66697652 12.317426,3.77913553 12.2585425,3.89129454 C10.4668023,7.57384871 1.06413865,27.6503115 1.06413865,43.7170897 C1.06413865,56.0078479 0.0117132712,68.0929812 3.40078469,74.3364994 C4.92988586,77.1498213 14.4774216,78.6920077 17.6833,78.6920077 L168.776441,78.6920077 C171.647712,78.6920077 173.975946,62.2513661 173.975946,59.3819648 Z" id="Path" fill="#678EAB" fill-rule="nonzero"></path>
                        <mask id="mask-2" fill="white">
                            <use xlink:href="#path-1"></use>
                        </mask>
                        <g id="Path"></g>
                        <path d="M152.011473,39.754138 C166.498678,39.754138 170.548553,31.3422122 172.106629,29.9402246 C174.910604,33.2115291 172.573958,46.3902128 174.443275,52.3720266 C176.312592,58.3538405 173.66377,64.2141488 172.106629,66.3919029 L41.7217798,72.4671826 C40.9422747,60.0081859 39.852463,35.0808459 41.7217798,35.0808459 C44.0584258,35.0808459 59.0129605,14.98569 66.957557,14.5183607 C73.3132343,14.1444974 104.187806,22.15452 118.831099,26.201591 C116.961782,28.0709078 113.87741,37.6044236 112.755819,42.090784 C111.353832,47.6987345 110.886503,47.6987345 116.027124,49.1007222 C121.167745,50.5027098 122.102404,39.754138 127.710354,39.754138 L152.011473,39.754138 Z" id="Path" fill="#35455F" fill-rule="nonzero" mask="url(#mask-2)"></path>
                        <path d="M52.9376808,35.5481751 C50.6945006,31.8095415 14.6166857,26.5100282 0.129480232,24.7996033 L-6.41312869,64.9899153 L66.4902278,69.1958781 C62.9067475,59.5408567 55.180861,39.2868088 52.9376808,35.5481751 Z" id="Path" fill="#071427" fill-rule="nonzero" mask="url(#mask-2)"></path>
                        <path d="M91.2586759,64.5225861 C115.092466,63.5879276 135.654951,69.1958781 161.825386,63.5879276 C208.558307,58.4473063 184.547867,61.5036394 196.407748,84.2345321 L13.1361868,84.2345321 C-5.01114106,79.9444499 -11.0322106,53.5029633 2.46612627,55.6433311 C31.9078664,60.3166232 73.0225555,65.242273 91.2586759,64.5225861 Z" id="Path" fill="#D1CEC8" fill-rule="nonzero" mask="url(#mask-2)"></path>
                        <path d="M-4.54381185,63.5879276 C1.81186538,66.2049712 87.9873714,66.3919029 90.7913467,64.5225861 C84.2487378,63.1205984 36.0960708,57.6621933 25.3652575,57.0453187 C9.00873519,56.1106603 2.77736753,54.8675646 -4.54381185,55.1760019 C-7.19263381,57.0453187 -10.8994891,60.9708841 -4.54381185,63.5879276 Z" id="Path" fill="#DEDEDE" fill-rule="nonzero" mask="url(#mask-2)"></path>
                        <path d="M81.0058325,2.71245135 C82.3640803,1.88621751 84.1349526,2.31750006 84.9611864,3.67574788 C85.7874202,5.03399569 85.3561377,6.80486796 83.9978899,7.6311018 L83.1611594,8.12017967 C82.0569805,8.75801384 80.26529,9.78211853 79.5028032,10.2388777 L79.0498269,10.5159861 L78.449,10.896 L98.8651614,6.19860151 C101.440482,5.6059102 103.356863,8.49073655 101.892103,10.6219899 L101.796128,10.7541738 L96.21,18.047 L118.978283,11.5719735 C121.786412,10.7733132 123.828053,14.1600312 121.906194,16.2664832 L121.793155,16.3843123 L109.366871,28.7124568 C108.238257,29.8321575 106.415638,29.8249317 105.295937,28.6963176 C104.221025,27.612848 104.184687,25.8897833 105.182026,24.7630322 L105.312077,24.6253835 L109.807,20.165 L89.4319113,25.960793 C86.8185781,26.7040512 84.7562953,23.7610582 86.2642944,21.5720908 L86.3590828,21.4416931 L92.362,13.603 L71.8091336,18.3330664 C70.0621436,18.7351235 68.3925475,17.4621483 68.2899038,15.6998269 L68.2849122,15.5277918 C68.2849122,11.5771896 71.0102435,8.72113204 76.0322541,5.61258258 L76.6522707,5.23561251 C77.851324,4.52273901 80.5691686,2.97807774 81.0058325,2.71245135 Z" id="Path" fill="#0980D0" fill-rule="nonzero" mask="url(#mask-2)"></path>
                        <path d="M87.6705222,-20.9985189 C80.3936148,-20.9985189 74.8682817,-14.8261394 74.7202773,-6.47275117 L74.7081594,-4.77009075 L74.6488718,-1.00705002 L74.6480842,-0.379399413 C74.6535057,1.56172936 74.7646191,2.90132094 75.0531575,4.00346342 C75.3847362,5.27034431 75.9535832,6.17136912 76.8329396,6.78487363 C77.7816859,7.45067366 79.1251826,7.77933336 80.9540668,7.77933336 C84.7678681,7.77933336 89.3134127,6.36321111 92.852273,4.0067391 C96.8460981,1.3472995 99.1853737,-2.19235214 99.1853737,-6.12824369 C99.1853737,-10.3886623 98.1490438,-14.0979068 96.2102128,-16.7390012 C94.1907104,-19.4989052 91.2641411,-20.9985189 87.6705222,-20.9985189 Z M87.6705222,-15.2413035 C89.4195142,-15.2413035 90.6237462,-14.6242387 91.5666416,-13.3356563 C92.7238377,-11.7593067 93.4281583,-9.23839405 93.4281583,-6.12824369 C93.4281583,-4.34823561 92.1833412,-2.46465296 89.6613344,-0.785279305 C87.054244,0.950741595 83.6152833,2.02211791 80.9540668,2.02211791 L80.6594114,2.01736512 L80.522,2.01 L80.5066879,1.88324322 C80.4572974,1.46332376 80.4250692,0.919641974 80.4118751,0.229954361 L80.4048708,-0.631322439 C80.4048708,-0.900142798 80.4069667,-1.16411386 80.4119254,-1.51908809 L80.4680001,-4.9565966 L80.4744469,-6.12824369 C80.4744469,-11.6293363 83.6502291,-15.2413035 87.6705222,-15.2413035 Z" id="Path" fill="#0980D0" fill-rule="nonzero" mask="url(#mask-2)"></path>
                        <path d="M60.6510045,-8.43137081 C58.2118938,-7.34248539 56.6736718,-5.44928907 56.1234321,-2.99011709 C55.5960909,-0.641804995 55.9992457,2.15623275 57.2706148,5.02144328 C58.4466673,7.65373047 61.0888348,9.31758188 64.5943685,9.89125906 C67.6958942,10.4031005 71.2043282,9.98115079 73.7935044,8.83040582 L74.0662659,8.70422955 C74.9498292,8.28034954 75.5787374,7.82310894 76.0058541,7.31943383 L76.1279882,7.16692519 L76.1844476,7.08940757 L76.2545975,6.98695828 L76.3144182,6.86714216 L76.4252472,6.67794103 C76.4942957,6.55382924 76.5154225,6.4938076 76.5662588,6.34938052 L76.6208158,6.18022358 L76.6652899,6.00305461 L76.7052069,5.77651418 C76.7586085,5.39507408 76.7489945,4.98092979 76.6753586,4.52070563 C76.552446,3.7611076 76.2683836,2.91069526 75.7811196,1.77514757 L75.5001848,1.13778735 L74.0567576,-1.97979348 C73.9997728,-2.10572552 73.9436787,-2.23092294 73.8798337,-2.37421139 C71.3306905,-8.09509969 65.6488336,-10.6538946 60.6510045,-8.43137081 Z M71.47,4.9 L71.0316944,4.81286 L71.0536837,4.71347102 L71.124,4.475 L71.189747,4.32477007 L71.34,4.005 L71.457,3.811 L72.549,2.882 L72.5708906,2.87489486 C72.8516704,2.77856449 73.2434269,2.67919698 73.8441203,2.52683345 L71.47,4.9 Z M68.4989925,-0.293302895 L68.6210373,-0.0310104829 L69.1338263,1.0954965 L70.1052065,3.18293394 L70.44,3.929 L70.2400271,3.98598628 C68.8128129,4.35705465 67.0655161,4.46398484 65.5279773,4.21024775 C63.77101,3.92271913 62.8170034,3.32195281 62.5300389,2.67966331 C61.7320194,0.881189892 61.506366,-0.684924661 61.7412412,-1.73085333 C61.8962244,-2.42351142 62.2263036,-2.82976283 62.9941412,-3.17254748 C64.88415,-4.0130271 67.1668742,-3.03627576 68.4989925,-0.293302895 Z" id="Path" fill="#0980D0" fill-rule="nonzero" mask="url(#mask-2)"></path>
                    </g>
                    <g id="Group-2" transform="translate(0.001123, 391.101237)">
                        <path d="M0.285243902,59.3819648 C0.285243902,30.6879514 18.7220354,27.1829823 48.7715839,17.3503757 C63.48965,12.5368849 78.5105455,8.34026861 93.7510856,5.81669088 C103.32853,4.22777157 105.901645,12.6490439 122.725497,12.6490439 C137.728633,12.6490439 156.446103,5.21850949 160.322131,3.61089702 C160.808154,3.40527217 161.383903,3.22768707 161.770852,3.58285727 C161.864318,3.66697652 161.943764,3.77913553 162.001713,3.89129454 C163.793453,7.57384871 173.197051,27.6503115 173.197051,43.7170897 C173.197051,56.0078479 174.249476,68.0929812 170.860405,74.3364994 C169.331304,77.1498213 159.783768,78.6920077 156.576955,78.6920077 L5.48428135,78.6920077 C2.61291722,78.6920077 0.285243902,62.2513661 0.285243902,59.3819648 Z" id="Path" fill="#678EAB" fill-rule="nonzero"></path>
                        <mask id="mask-4" fill="white">
                            <use xlink:href="#path-3"></use>
                        </mask>
                        <g id="Path"></g>
                        <path d="M22.2497167,39.754138 C7.76241777,39.754138 3.71226245,31.3422122 2.15446727,29.9402246 C-0.649507981,33.2115291 1.68713806,46.3902128 -0.182178772,52.3720266 C-2.05149561,58.3538405 0.596672087,64.2141488 2.15446727,66.3919029 L132.53941,72.4671826 C133.31798,60.0081859 134.408727,35.0808459 132.53941,35.0808459 C130.202764,35.0808459 115.248229,14.98569 107.303633,14.5183607 C100.947955,14.1444974 70.0733839,22.15452 55.4300905,26.201591 C57.2994073,28.0709078 60.3837801,37.6044236 61.5053702,42.090784 C62.9073578,47.6987345 63.374687,47.6987345 58.2340658,49.1007222 C53.0934445,50.5027098 52.158786,39.754138 46.5508355,39.754138 L22.2497167,39.754138 Z" id="Path" fill="#35455F" fill-rule="nonzero" mask="url(#mask-4)"></path>
                        <path d="M121.323509,35.5481751 C123.566689,31.8095415 159.644504,26.5100282 174.131709,24.7996033 L180.674318,64.9899153 L107.770962,69.1958781 C111.353508,59.5408567 119.080329,39.2868088 121.323509,35.5481751 Z" id="Path" fill="#071427" fill-rule="nonzero" mask="url(#mask-4)"></path>
                        <path d="M83.0025138,64.5225861 C59.1687242,63.5879276 38.606239,69.1958781 12.4357099,63.5879276 C-34.297211,58.4473063 -10.2873317,61.5036394 -22.1465581,84.2345321 L161.125003,84.2345321 C179.272331,79.9444499 185.2934,53.5029633 171.795063,55.6433311 C142.353323,60.3166232 101.2377,65.242273 83.0025138,64.5225861 Z" id="Path" fill="#D1CEC8" fill-rule="nonzero" mask="url(#mask-4)"></path>
                        <path d="M178.805002,63.5879276 C172.449324,66.2049712 86.2738183,66.3919029 83.469843,64.5225861 C90.0124519,63.1205984 138.165119,57.6621933 148.895932,57.0453187 C165.252454,56.1106603 171.483822,54.8675646 178.805002,55.1760019 C181.452889,57.0453187 185.160679,60.9708841 178.805002,63.5879276 Z" id="Path" fill="#DEDEDE" fill-rule="nonzero" mask="url(#mask-4)"></path>
                        <path d="M89.2990686,3.67574788 C90.1253025,2.31750006 91.8961747,1.88621751 93.2544226,2.71245135 L94.7138712,3.55815222 C95.8326625,4.20157181 97.2615393,5.02249819 97.8744974,5.3954922 C103.122632,8.58905889 105.976277,11.4853573 105.976277,15.5277918 C105.976277,17.3204502 104.361275,18.6620103 102.620828,18.3667859 L102.452056,18.3330664 L81.899,13.603 L87.9021068,21.4416931 C89.5541249,23.5987234 87.5754765,26.5985847 84.9853929,26.0010005 L84.8292783,25.960793 L64.453,20.165 L68.9482554,24.6254597 C70.0316845,25.7004131 70.0816178,27.4231374 69.0932019,28.5577238 L68.9642415,28.6963944 C67.8892881,29.7798236 66.1665638,29.8297569 65.0319775,28.841341 L64.8933068,28.7123806 L52.4679578,16.3842361 C50.3955126,14.3280037 52.3467839,10.8885434 55.1247995,11.5312003 L55.2829071,11.5719735 L78.05,18.047 L72.4650612,10.7541738 C70.8582392,8.65615569 72.6892705,5.71641691 75.2359534,6.16604806 L75.3960283,6.19860151 L95.811,10.896 L95.2111661,10.5162753 L94.613304,10.1528925 C93.4775755,9.47974321 90.7869125,7.95018847 90.2623652,7.6311018 C88.9041173,6.80486796 88.4728348,5.03399569 89.2990686,3.67574788 Z" id="Path" fill="#0980D0" fill-rule="nonzero" mask="url(#mask-4)"></path>
                        <path d="M86.5897328,-20.9985189 C82.9957898,-20.9985189 80.0689097,-19.4985758 78.0478203,-16.7346929 C76.1118175,-14.0991169 75.075816,-10.3900113 75.075816,-6.12824369 C75.075816,-2.19219715 77.4145113,1.34753549 81.4079763,4.00673532 C84.9480535,6.36332635 89.4935251,7.77933336 93.3071229,7.77933336 C95.1345396,7.77933336 96.4753642,7.45122945 97.4308295,6.78307193 C98.308874,6.1676223 98.8760591,5.2682801 99.2071448,4.00328266 C99.4761097,2.97590621 99.5909449,1.74228868 99.610502,0.00138990744 L99.611283,-1.07955334 L99.549559,-5.03445314 L99.5439583,-6.12824369 C99.5439583,-14.6560762 93.9670807,-20.9985189 86.5897328,-20.9985189 Z M86.5897328,-15.2413035 C90.5364093,-15.2413035 93.6688282,-11.7620017 93.7834903,-6.43191254 L93.7998701,-4.39433547 L93.8550875,-0.9118692 C93.8562305,-0.735282182 93.8564342,-0.56864347 93.8560641,-0.395598318 L93.8540796,-0.104468089 C93.8452685,0.746585247 93.8108442,1.39786644 93.7536104,1.88350358 L93.737,2.01 L93.6908403,2.01380479 C93.5749739,2.01917168 93.4471649,2.02211791 93.3071229,2.02211791 C90.6459479,2.02211791 87.2067876,0.950749382 84.5985907,-0.785498937 C82.0773893,-2.46433635 80.8330314,-4.34773444 80.8330314,-6.12824369 C80.8330314,-9.2394629 81.5369973,-11.7598104 82.6914137,-13.331381 C83.6368883,-14.6243264 84.8408126,-15.2413035 86.5897328,-15.2413035 Z" id="Path" fill="#0980D0" fill-rule="nonzero" mask="url(#mask-4)"></path>
                        <path d="M99.6420118,-0.76547985 L98.8379295,0.96827039 C98.7840265,1.08648494 98.7343681,1.19647182 98.6869425,1.30278188 L98.6172273,1.46005821 C98.0470273,2.75251005 97.7209904,3.68890824 97.5865259,4.51063607 C97.5112606,4.98092979 97.5016465,5.39507408 97.5550481,5.77651418 L97.6007753,6.03211422 C97.6133608,6.13490837 97.6258814,6.2096024 97.6631397,6.30255063 L97.719,6.422 L97.7351544,6.46414186 C97.76616,6.54680489 97.7938036,6.60635517 97.8546112,6.71266097 L98.029,7.006 L98.0228577,7.01155203 C98.4759266,7.69115547 99.2521555,8.28786558 100.463518,8.82854956 C103.056862,9.98115079 106.565296,10.4031005 109.670635,9.89063223 C113.172889,9.31749442 115.815343,7.65323763 116.987225,5.02687146 C118.262074,2.15628956 118.665355,-0.642624152 118.135985,-2.99385055 C117.586541,-5.4494782 116.049202,-7.3425274 113.613982,-8.429679 C108.697092,-10.6162125 103.121986,-8.18042365 100.51272,-2.66236887 L99.6420118,-0.76547985 Z M100.44,2.548 L102.709,3.762 L103.012399,4.22899724 C103.044281,4.28080597 103.071119,4.32629252 103.093831,4.36717133 L103.11,4.4 L103.127992,4.44748196 L103.218282,4.75940336 C103.222304,4.7771732 103.224898,4.79197016 103.228561,4.81286 L102.993,4.859 L100.44,2.548 Z M103.82,3.929 L104.079551,3.34967241 L105.639202,-0.0309762692 C106.950261,-2.97330604 109.317803,-4.03936934 111.270845,-3.17085567 C112.034312,-2.83001905 112.363877,-2.42419977 112.518527,-1.73302345 C112.754613,-0.684422077 112.529086,0.880821438 111.727599,2.68553743 C111.443515,3.32220466 110.489987,3.92275075 108.737027,4.20962093 L108.378092,4.26192106 C106.929537,4.44583554 105.338646,4.32841441 104.019349,3.98514804 L103.82,3.929 Z" id="Path" fill="#0980D0" fill-rule="nonzero" mask="url(#mask-4)"></path>
                    </g>
                </g>
                <g id="upper-limb" transform="translate(0.502189, 443.028090)">
                    <path d="M65.7038506,189.824129 C74.3916341,172.815128 95.2229934,166.069449 112.231994,174.757233 C129.240994,183.445017 135.986673,204.276376 127.298889,221.285376 C114.606807,246.13402 106.567514,286.437975 108.101099,323.410233 C109.738472,362.884652 121.580512,392.869151 141.270134,407.599686 L141.869189,408.041391 C157.320327,419.268413 160.74465,440.895334 149.517629,456.346472 C138.290608,471.79761 116.663687,475.221933 101.212549,463.994912 C61.3200946,435.008475 41.4429072,385.272496 38.9957994,326.276675 C36.9855674,277.813222 47.3811101,225.696511 65.7038506,189.824129 Z" id="Path" fill="#EBBAAA" fill-rule="nonzero"></path>
                    <path d="M381.419179,154.182837 C398.05432,144.799034 419.146842,150.677404 428.530645,167.312545 C452.266056,209.389502 466.82891,267.332139 468.077759,321.418184 C468.722512,349.341609 465.791532,375.35181 459.068875,397.559068 C451.046494,424.059761 437.65555,445.273768 418.121838,458.824731 C402.428926,469.711246 380.882044,465.814891 369.995529,450.12198 C359.217879,434.585998 362.928919,413.312539 378.231034,402.325449 L378.698279,401.995671 C390.888431,393.539097 399.874471,363.855107 398.931466,323.014775 C397.934033,279.817232 386.161606,232.977135 368.289472,201.294303 C358.905668,184.659162 364.784039,163.566641 381.419179,154.182837 Z" id="Path" fill="#EBBAAA" fill-rule="nonzero"></path>
                    <path d="M130.007005,117.875381 C130.787445,85.7081768 156.539153,59.7358887 188.696076,58.6853327 L263.771579,56.2290504 C269.888918,56.0365107 276.016539,56.3542946 282.075929,57.1926832 L355.359692,67.3271844 C387.690461,71.796721 410.696143,101.025359 407.439793,133.501 L393.57694,271.725764 L400.531733,469.756516 C400.599963,471.451987 319.986609,469.84344 318.291139,469.756516 L188.696076,469.756516 L115.036581,458.639689 C113.408406,458.552766 112.16531,457.136758 112.300836,455.508583 L126.693641,254.510291 L130.007005,117.875381 Z" id="Path" fill="#1D1E1F" fill-rule="nonzero"></path>
                    <path d="M252.035073,139.98753 C289.279342,139.98753 319.470678,109.795259 319.470678,72.5509903 C319.470678,35.3076564 289.279342,5.11538552 252.035073,5.11538552 C214.790805,5.11538552 184.598534,35.3076564 184.598534,72.5509903 C184.598534,109.795259 214.790805,139.98753 252.035073,139.98753 Z" id="Path" fill="#363535" fill-rule="nonzero"></path>
                    <rect id="Rectangle" fill="#EBBAAA" fill-rule="nonzero" x="215.478713" y="0" width="82.2499407" height="111.224352" rx="35.4338352"></rect>
                    <rect id="Rectangle" fill="#1E4295" fill-rule="nonzero" transform="translate(114.426740, 230.292955) rotate(16.500000) translate(-114.426740, -230.292955) " x="45.3966077" y="62.2212766" width="138.060264" height="336.143357" rx="69.030132"></rect>
                    <path d="M77.9622333,446.085357 C63.9130088,434.502136 28.3199077,372.262297 20.1332346,344.421627 L111.663399,296.482062 C120.381892,332.751482 143.075399,373.647461 159.693625,417.145529 L159.574924,417.225909 C143.180081,428.302546 95.4816576,460.528634 77.9622333,446.085357 Z" id="Path" fill="#1E4295" fill-rule="nonzero"></path>
                    <path d="M73.4443749,441.722372 L100.193271,425.448099 C118.558374,414.274258 143.570768,402.337735 153.152886,396.508271 L159.292657,417.38854 C149.849803,424.046112 126.055269,439.362359 106.419965,447.369578 C86.7850349,455.377731 76.2549862,446.941504 73.4443749,441.722372 Z" id="Path" fill="#172F72" fill-rule="nonzero"></path>
                    <polygon id="Path" fill="#172F72" fill-rule="nonzero" points="41.6289762 295.35206 109.392179 315.914545 35.5536965 308.904607"></polygon>
                    <polygon id="Path" fill="#172F72" fill-rule="nonzero" points="58.4528277 322.457154 110.794166 319.653179 65.4627659 334.140384"></polygon>
                    <rect id="Rectangle" fill="#1E4295" fill-rule="nonzero" transform="translate(392.601776, 239.562386) scale(-1, 1) rotate(15.969219) translate(-392.601776, -239.562386) " x="318.770743" y="58.0946469" width="147.662066" height="362.935477" rx="73.831005"></rect>
                    <path d="M263.145358,307.502619 C262.403239,244.734699 241.648214,158.56667 241.648214,128.515532 C235.105605,128.515532 228.562996,127.580874 223.889704,124.776899 C224.142062,100.622521 225.850618,75.8522038 215.585264,53.2755298 L135.649538,68.6712232 C123.198018,85.806316 101.291494,137.001296 97.776244,235.063788 C94.9816153,312.995607 97.8706445,365.508455 97.776244,415.922996 C97.7510082,428.945591 116.403986,438.522101 116.403986,473.571792 C131.78566,478.020766 212.605573,489.388082 263.145358,473.571792 C272.491942,412.184362 264.244516,400.42449 263.145358,307.502619 Z" id="Path" fill="#173988" fill-rule="nonzero"></path>
                    <path d="M191.17479,458.449954 C170.238442,459.945407 133.225968,453.309332 111.728825,445.832065 L111.728825,477.610451 C123.879384,486.957035 155.190441,486.022377 172.481622,486.022377 C193.978766,486.022377 228.561127,492.564986 265.947464,486.957035 L264.078147,458.449954 C250.992929,461.253929 212.111139,456.9545 191.17479,458.449954 Z" id="Path" fill="#172F72" fill-rule="nonzero"></path>
                    <path d="M447.839469,446.217144 C460.938707,433.569346 488.034454,387.242067 494.014399,358.845275 L402.519752,299.714111 C396.669724,336.555541 368.37668,363.096102 355.217624,407.762493 C372.312526,417.453031 431.467057,462.026891 447.839469,446.217144 Z" id="Path" fill="#1E4295" fill-rule="nonzero"></path>
                    <path d="M413.052417,420.771069 C400.63548,414.492968 369.89363,397.377503 359.886243,392.317263 C356.60933,392.929464 355.902728,404.337904 361.057369,410.715079 C367.49997,418.685846 404.402154,438.915593 425.263729,447.369578 C441.95299,454.132766 449.648968,446.782613 451.410799,442.262604 C443.285813,436.582685 430.984774,429.839125 413.052417,420.771069 Z" id="Path" fill="#172F72" fill-rule="nonzero"></path>
                    <polygon id="Path" fill="#172F72" fill-rule="nonzero" points="466.432629 286.940134 398.669894 307.502619 472.507908 300.492681"></polygon>
                    <polygon id="Path" fill="#172F72" fill-rule="nonzero" points="453.81474 316.849203 401.473869 314.045228 446.804802 328.532434"></polygon>
                    <path d="M255.66809,296.286718 C255.66809,206.366036 265.480134,156.106649 265.480134,127.027556 C270.620756,127.027556 275.714644,128.429544 282.771315,126.092898 C286.120196,101.230984 295.170494,72.7930668 304.627368,51.4062129 L358.877746,60.1546157 C372.372344,62.3305005 384.216336,70.1778926 387.216589,83.5145335 C393.865749,113.074041 397.682894,168.280575 403.753501,240.324045 C409.886729,313.11057 406.840677,374.374625 409.886729,424.334921 C410.837277,439.918481 389.440142,465.325301 390.258902,475.484103 C363.379061,479.30966 308.83333,490.7882 261.276041,475.484103 C261.276041,414.264912 255.66809,386.2074 255.66809,296.286718 Z" id="Path" fill="#173988" fill-rule="nonzero"></path>
                    <path d="M322.026969,463.590575 C342.963317,465.086028 383.714424,463.123246 401.472934,448.63604 L403.342251,481.349085 C384.649083,486.022377 358.945976,489.76101 351.936038,489.76101 C321.664321,489.76101 295.856533,494.434303 258.470196,488.826352 L258.470196,457.515295 C271.555414,460.31927 301.09062,462.095121 322.026969,463.590575 Z" id="Path" fill="#172F72" fill-rule="nonzero"></path>
                    <path d="M245.852308,423.400263 C245.852308,397.977554 241.957586,240.207213 235.103736,165.43454 L225.289823,126.178886 L245.384044,127.113545 C246.983244,140.076322 250.5256,149.078018 256.13355,176.183112 L265.4792,127.113545 L281.368393,126.178886 C281.368393,143.626155 274.359389,182.632255 274.359389,199.082243 L274.359389,490.695669 L245.852308,488.826352 L245.852308,423.400263 Z" id="Path" fill="#143481" fill-rule="nonzero"></path>
                    <path d="M250.528829,174.971417 L261.738271,174.590831 L261.964259,181.363662 C265.590408,291.930013 267.869129,453.285013 265.538371,488.654414 L265.464812,489.70795 L254.279556,488.879413 C256.713157,456.025796 254.354165,289.59701 250.641738,178.326183 L250.528829,174.971417 Z" id="Path" fill="#122865" fill-rule="nonzero"></path>
                    <path d="M358.187968,65.4260892 C368.656142,60.1920021 345.10275,49.5368961 334.821508,43.9289456 C326.409582,41.4362116 307.903345,35.7039515 297.435171,51.4062129 C290.337375,62.0538416 270.153427,96.2698169 265.444617,127.113545 C260.339513,152.349322 260.480647,159.976135 267.81678,150.947334 C322.494298,83.6519283 345.10275,71.9686981 358.187968,65.4260892 Z" id="Path" fill="#172F72" fill-rule="nonzero"></path>
                    <path d="M156.594298,67.295406 C146.126124,62.0613189 169.679516,51.4062129 179.960759,45.7982624 C188.372684,43.3055284 206.878921,37.5732684 217.347095,53.2755298 C224.630888,64.2016867 238.278771,97.3512167 246.319637,130.852178 C251.927587,154.218639 250.677949,157.022614 246.319637,152.349322 C194.446095,96.7371462 169.679516,73.8380149 156.594298,67.295406 Z" id="Path" fill="#172F72" fill-rule="nonzero"></path>
                    <path d="M261.275106,172.911807 L250.526534,172.911807 L249.591876,180.389074 L246.673872,199.84212 C245.996245,204.363063 249.497476,208.428827 254.06889,208.428827 L257.733685,208.428827 C262.3051,208.428827 265.80633,204.363063 265.127768,199.84212 L262.209765,180.389074 L261.275106,172.911807 Z M251.927587,182.258391 L252.862246,175.715782 L259.454392,175.715782 L260.339513,182.258391 L251.927587,182.258391 Z M253.433322,204.690193 L258.954349,204.690193 C261.60691,204.690193 263.596798,202.265689 263.079932,199.6636 C262.68831,197.696144 260.961061,196.278268 258.954349,196.278268 L253.433322,196.278268 C251.462127,196.278268 249.755441,197.647542 249.327368,199.572004 C248.744141,202.198394 250.742441,204.690193 253.433322,204.690193 Z" id="Shape" fill="#09193F"></path>
                    <path d="M253.179095,171.494865 L253.741759,177.284139 C253.861396,178.515084 254.896063,179.454416 256.13355,179.454416 C257.371038,179.454416 258.405705,178.515084 258.525341,177.284139 L259.088006,171.494865 C259.258113,169.749858 257.886969,168.238515 256.13355,168.238515 C254.380131,168.238515 253.008987,169.749858 253.179095,171.494865 Z" id="Path" fill="#2E4A7A" fill-rule="nonzero"></path>
                    <path d="M96.7742902,274.789575 C107.448899,274.789575 120.602767,282.177837 133.325417,293.733532 C144.812201,304.166719 153.89844,316.257454 155.939732,324.649432 C157.851268,332.507967 157.147887,350.160635 154.531258,378.383536 L154.194266,381.966508 C153.87856,385.277907 153.539656,388.708734 153.169474,392.352609 L152.485149,398.97926 C151.688083,406.572271 150.115824,421.320787 149.803914,424.357961 L149.399987,428.381327 C148.837982,434.132816 148.585213,437.513374 148.637759,438.459208 C148.892003,443.035604 150.318969,448.701121 151.736641,452.297587 L151.894062,452.688519 L152.290288,453.651218 L153.042613,463.145908 L153.181892,465.021147 C153.381441,467.781777 153.538955,470.316858 153.656128,472.754376 L153.693694,473.563444 C153.892605,478.006355 153.941245,481.901952 153.808142,485.245753 L153.781048,485.866248 L140.710641,485.243847 C140.845835,482.404774 140.820233,478.93653 140.654319,474.910157 L140.62157,474.148688 C140.495626,471.335564 140.310814,468.376448 140.064012,465.054511 L139.398,456.672 L139.221244,456.20128 C137.520574,451.608701 136.003744,445.389107 135.611585,439.803002 L135.572688,439.185045 L135.557188,438.803527 C135.499656,436.694021 135.810025,432.71912 136.539911,425.453448 L138.084982,410.726871 C138.744398,404.506108 139.461091,397.743874 139.772532,394.727197 L140.272381,389.834358 C140.432753,388.246386 140.587115,386.698676 140.73617,385.183096 L141.168114,380.72461 C143.857239,352.518659 144.699105,333.801327 143.22525,327.742143 C141.94961,322.497849 134.245406,312.246137 124.527662,303.41973 C114.166767,294.009163 103.660567,288.054445 97.0710998,287.878789 L96.7742902,287.874792 L96.7742902,274.789575 Z" id="Path" fill="#142C6F" fill-rule="nonzero"></path>
                    <path d="M97.1541658,279.932926 C104.585222,279.468485 116.510054,286.343184 128.690069,297.178651 C140.177733,307.398197 149.240885,318.859619 150.944757,325.864426 C152.696945,333.067866 151.920943,351.244013 149.243166,379.722191 L149.076849,381.47862 C148.762179,384.779165 148.424265,388.199946 148.055059,391.834197 L147.37213,398.447234 L144.591705,424.795921 C143.788995,432.681662 143.435596,437.06885 143.500648,438.652687 L143.505052,438.744358 C143.793556,443.93742 145.355681,450.139681 146.9675,454.216521 L147.225235,454.851342 L147.916704,463.430709 L148.115073,466.096557 C148.320506,468.980327 148.476137,471.617987 148.583145,474.157848 L148.61379,474.91702 C148.758603,478.670416 148.784539,482.032826 148.672511,484.991005 L148.646386,485.618709 L145.845303,485.491387 C145.973409,482.673069 145.966009,479.438383 145.840577,475.808903 L145.811899,475.025122 C145.69651,472.034364 145.511657,468.918612 145.255249,465.425838 L144.462,455.501 L144.369319,455.27119 C142.709612,451.08154 141.125805,444.878363 140.741886,439.475574 L140.705394,438.899895 C140.630105,437.544685 140.831523,434.525982 141.332836,429.256432 L141.900884,423.546339 C142.257138,420.07737 144.236976,401.522714 144.859038,395.515605 L145.387121,390.349547 C145.708736,387.164959 146.006326,384.141055 146.285531,381.212498 L146.686255,376.934459 C149.131809,350.331035 149.813462,333.077123 148.220225,326.52715 C144.77588,312.367064 111.331474,282.503614 97.7349619,282.715759 L97.329073,282.731441 L97.1541658,279.932926 Z" id="Path" fill="#FFFFFF" fill-rule="nonzero" opacity="0.100000001"></path>
                    <path d="M406.146226,272.005227 L406.146226,285.090445 C399.479073,285.090445 388.693575,291.090816 378.060978,300.656254 L377.174741,301.462439 C367.783923,310.099828 360.431363,319.894451 359.18434,324.971736 C357.698718,331.021487 358.548689,349.737694 361.262793,377.934342 L361.698843,382.392323 C361.962168,385.044294 362.241901,387.794661 362.541845,390.68701 L365.685759,420.230097 C366.654796,429.576295 367.035622,434.202501 366.912076,436.404316 C366.577975,442.358588 361.862676,456.889369 358.504361,465.277036 L358.39,465.56 L358.359617,466.051795 L358.299169,467.183925 C358.028623,472.786654 358.071677,480.253794 358.434798,488.205192 L358.471093,488.979376 L345.400983,489.607986 L345.324811,487.937092 C344.930529,478.782846 344.943402,470.252872 345.372008,464.115083 L345.491476,462.516061 L345.894879,461.545908 C346.605215,459.837604 348.349561,455.086302 349.831318,450.68228 L350.216524,449.526949 C352.30153,443.212869 353.6582,438.119315 353.836474,435.833466 L353.847409,435.671243 C353.900247,434.729567 353.644985,431.349233 353.077877,425.600642 L352.564065,420.566349 C352.013192,415.347542 350.210112,398.599185 349.65693,393.291954 L349.148963,388.366945 C348.945181,386.368316 348.750864,384.432227 348.564615,382.542626 L348.237776,379.188081 C345.318571,348.860647 344.464153,330.046524 346.476732,321.850902 C348.53987,313.450778 357.712762,301.361035 369.3094,290.928314 C381.964899,279.543006 395.042047,272.208191 405.703408,272.009373 L406.146226,272.005227 Z" id="Path" fill="#142C6F" fill-rule="nonzero"></path>
                    <path d="M373.938098,294.389887 C386.072005,283.698303 397.955525,276.86383 405.467535,277.134159 L405.761781,277.148527 L405.588535,279.947145 C392.12528,279.113713 357.705042,309.442514 354.192042,323.745789 L354.093533,324.173571 C352.53427,331.392764 353.407037,349.973815 356.145822,378.426882 L356.360791,380.642011 C356.652294,383.622074 356.963779,386.713813 357.300942,389.982563 L360.572547,420.760248 C361.495263,429.659677 361.879744,434.330289 361.779528,436.116323 C361.482307,441.413324 356.942567,455.615277 354.011188,462.895189 L353.785,463.448 L353.768007,463.686436 C353.356804,469.547215 353.345744,478.294233 353.736834,487.697025 L353.80388,489.229385 L351.002855,489.357978 L350.935254,487.813003 C350.54033,478.318742 350.551414,469.476327 350.970509,463.495935 L351.022373,462.793067 L351.108671,462.58535 C353.846071,455.99652 358.530922,441.531553 358.961268,436.229726 L358.979956,435.959236 C359.062495,434.48825 358.723205,430.226602 357.931015,422.481341 L354.769852,392.759025 L354.023792,385.484107 C353.788743,383.149402 353.566531,380.895755 353.354747,378.695541 L352.943931,374.352439 C350.437496,347.356193 349.753723,330.06192 351.468983,323.077039 C353.189867,316.070412 362.339995,304.609356 373.938098,294.389887 Z" id="Path" fill="#FFFFFF" fill-rule="nonzero" opacity="0.100000001"></path>
                    <path d="M330.48731,72.4368635 C333.219636,72.5312766 336.57374,73.492229 338.833509,74.9652267 C341.919427,76.9767382 342.96451,79.8974174 340.9648,83.0080761 C338.925982,86.1795718 336.014495,86.178027 333.235788,83.8214408 C331.579799,82.4170176 329.981899,80.2558113 328.550249,77.7964805 L328.283789,77.3319743 L330.724683,75.9520061 C332.073337,78.3375107 333.602573,80.4559269 335.049402,81.6829647 C336.659905,83.0488115 337.604902,83.0493129 338.606157,81.4918052 C339.670041,79.8368741 339.213035,78.5596856 337.302345,77.3142296 C335.589579,76.1977877 332.933746,75.4039571 330.749849,75.2575221 L330.390479,75.2391663 L330.48731,72.4368635 Z" id="Path" fill="#1E1C1C" fill-rule="nonzero"></path>
                    <path d="M193.017002,84.4342374 C192.559954,81.691015 188.902636,78.4907445 185.244383,77.5766486 C180.674838,77.5766486 182.50116,81.691015 185.244383,84.4342374 C187.987605,87.1774599 193.47405,87.1774599 193.017002,84.4342374 Z" id="Path" fill="#020D2B" fill-rule="nonzero"></path>
                    <path d="M187.023345,79.8328114 L187.119935,82.6351225 C184.92845,82.710659 182.137172,83.5102733 180.373433,84.6600328 C178.517091,85.8701585 178.076434,87.10199 179.107219,88.7055315 C180.075553,90.2119199 180.978821,90.2114581 182.541726,88.8859273 C183.870845,87.7586737 185.273071,85.8579078 186.531018,83.6958029 L186.765139,83.2874707 L189.206333,84.6669082 C187.739876,87.2621012 186.080317,89.5614154 184.355381,91.0243684 C181.624245,93.3407008 178.754403,93.3421683 176.748534,90.2217372 C174.782073,87.1626123 175.810641,84.2873098 178.842184,82.3110855 C180.952354,80.9354918 184.034083,80.0159536 186.636723,79.851741 L187.023345,79.8328114 Z" id="Path" fill="#1E1C1C" fill-rule="nonzero"></path>
                    <path d="M324.361745,77.1093194 C324.829075,74.3053441 328.567708,71.0340397 332.306342,70.0993813 C336.977765,70.0993813 335.110317,74.3053441 332.306342,77.1093194 C329.502367,79.9132947 323.894416,79.9132947 324.361745,77.1093194 Z" id="Path" fill="#020D2B" fill-rule="nonzero"></path>
                </g>
                <g id="head" transform="translate(55.216869, 0.000000)" fill-rule="nonzero">
                    <path d="M337.830396,476.940301 C333.085135,470.217303 323.330105,464.911247 319.045631,463.098944 L289.385181,479.411538 C292.021852,480.400406 299.766432,484.948454 309.653249,495.230631 C322.011302,508.083119 325.965842,509.566422 331.898119,509.071988 C336.644315,508.676627 337.171462,504.293079 336.841527,502.150842 C337.830396,503.139711 340.598854,504.325792 343.762673,501.162908 C347.717213,497.207434 343.762673,485.343815 337.830396,476.940301 Z" id="Path" fill="#F5D4A1"></path>
                    <path d="M56.0757469,478.266581 C61.5294788,472.013716 71.8518464,467.703072 76.3316641,466.330058 L104.3359,485.787777 C101.591743,486.505595 93.3611405,490.263857 82.3882507,499.554361 C68.6712038,511.168427 64.5559027,512.245153 58.6666201,511.131975 C53.955007,510.241246 53.8839729,505.787598 54.4372907,503.671532 C53.3437404,504.561326 50.4481686,505.463272 47.609611,501.959237 C44.060713,497.579428 49.2583484,486.084064 56.0757469,478.266581 Z" id="Path" fill="#F5D4A1"></path>
                    <path d="M33.3206466,367.197383 C36.0889179,334.374048 39.0879563,269.483519 40.2416987,241.141871 L358.592898,241.141871 C359.746267,267.341281 362.448364,328.243624 364.029806,362.253974 C366.007543,404.766913 337.831331,516.981067 187.058777,505.611882 C36.2866916,494.241763 29.8603542,408.227018 33.3206466,367.197383 Z" id="Path" fill="#76CCDB"></path>
                    <path d="M332.640238,373.778313 C364.104579,373.778313 389.611407,348.271484 389.611407,316.807144 C389.611407,285.343737 364.104579,259.836909 332.640238,259.836909 C301.176832,259.836909 275.670003,285.343737 275.670003,316.807144 C275.670003,348.271484 301.176832,373.778313 332.640238,373.778313 Z" id="Path" fill="#EBBAAA"></path>
                    <path d="M67.2514576,376.661734 C35.7877709,376.661734 10.2811297,351.154906 10.2811297,319.690565 C10.2811297,288.227158 35.7877709,262.72033 67.2514576,262.72033 C98.7157986,262.72033 124.222627,288.227158 124.222627,319.690565 C124.222627,351.154906 98.7157986,376.661734 67.2514576,376.661734 Z" id="Path" fill="#EBBAAA"></path>
                    <path d="M48.6022182,218.587629 C48.6022182,137.095696 114.66481,71.0340395 196.156743,71.0340395 C277.647741,71.0340395 343.710332,137.095696 343.710332,218.587629 L343.710332,288.279499 L336.546175,372.836177 C331.476588,432.674878 288.591656,482.68845 230.292337,497.091536 C207.94372,502.612564 184.486598,502.507882 162.198733,496.745713 C106.694977,482.397771 65.7288991,435.392865 59.1003016,378.448801 L48.6022182,288.279499 L48.6022182,218.587629 Z" id="Path" fill="#F4D4C9"></path>
                    <path d="M171.184539,265.952379 L169.477853,257.279684 C169.159134,255.657117 167.834723,254.422433 166.192528,254.217743 L124.348806,249.007957 C124.167482,248.985525 123.984289,248.989263 123.804834,249.020107 L100.901965,252.909221 C99.9803914,253.065309 99.3074374,253.863507 99.3074374,254.797231 L99.3074374,265.643942 C99.3074374,266.7431 100.229945,267.617006 101.327234,267.556253 L133.241146,265.807507 C133.361717,265.800964 133.483222,265.806572 133.602859,265.823396 L166.894457,270.485472 C169.502154,270.850924 171.692993,268.53671 171.184539,265.952379 Z" id="Path" fill="#393939"></path>
                    <path d="M225.198449,265.418689 L226.581743,257.377823 C226.862141,255.747778 228.157577,254.481316 229.79323,254.238305 L269.713425,248.298551 C269.893814,248.27238 270.077007,248.271446 270.257396,248.298551 L292.251778,251.496017 C293.176156,251.630608 293.868737,252.411983 293.891169,253.345706 L294.135671,263.610125 C294.161285,264.708349 293.260275,265.603751 292.161116,265.570104 L261.580962,264.624229 C261.460391,264.620491 261.338886,264.628903 261.220184,264.648531 L229.595082,269.848035 C226.995797,270.275174 224.751682,268.014236 225.198449,265.418689 Z" id="Path" fill="#393939"></path>
                    <path d="M259.83502,286.940134 C266.029392,286.940134 271.050921,291.961664 271.050921,298.156035 C271.050921,304.253619 266.185088,309.214727 260.124508,309.368273 L259.83502,309.371936 L242.306437,309.371936 C236.112065,309.371936 231.090536,304.350406 231.090536,298.156035 C231.090536,292.058451 235.956369,287.097343 242.016949,286.943797 L242.306437,286.940134 L259.83502,286.940134 Z" id="Path" fill="#000000"></path>
                    <path d="M150.947315,286.940134 C157.141686,286.940134 162.163216,291.961664 162.163216,298.156035 C162.163216,304.253619 157.297383,309.214727 151.236802,309.368273 L150.947315,309.371936 L131.786817,309.371936 C125.592446,309.371936 120.570916,304.350406 120.570916,298.156035 C120.570916,292.058451 125.436749,287.097343 131.49733,286.943797 L131.786817,286.940134 L150.947315,286.940134 Z" id="Path" fill="#000000"></path>
                    <path d="M190.801729,304.99265 L205.018594,313.050227 C199.130728,323.438833 194.579252,335.50332 193.95926,344.36705 L193.920025,345.002444 C193.453051,353.773105 196.471159,357.313971 206.430759,357.396071 L206.789417,357.397536 L206.789417,373.73901 C186.281992,373.73901 176.376029,361.549051 177.657616,343.226799 C178.464594,331.689805 183.615009,317.856997 190.400705,305.705477 L190.801729,304.99265 Z" id="Path" fill="#EBBAAA"></path>
                    <path d="M297.779348,168.035694 C281.388244,148.916321 292.10971,125.073185 290.123561,108.401683 C288.7169,96.5932086 288.571093,93.5808045 322.139351,118.324951 C355.708542,143.068164 360.741678,197.354059 351.60913,243.494407 L344.888936,295.724054 L337.411669,295.724054 L339.748315,267.312307 C339.748315,267.312307 338.346327,259.367711 328.999743,250.021126 C319.653159,240.674542 316.382789,189.735658 297.779348,168.035694 Z" id="Path" fill="#6E6C6C"></path>
                    <path d="M70.038609,200.236546 C71.4256421,175.0933 68.5926925,176.387802 69.5170696,159.625638 C70.1713305,147.752672 74.2632651,150.351022 53.0670815,172.122021 C41.3688967,184.137989 42.6848958,236.024617 45.1748258,269.787283 L48.134889,300.906735 L55.9514374,300.906735 C55.9514374,300.906735 55.0261255,289.196399 55.9514374,283.588449 C56.8758145,277.980498 63.5586222,273.07728 65.2868056,262.5577 C67.7599118,247.497549 69.2226522,215.039666 70.038609,200.236546 Z" id="Path" fill="#6E6C6C"></path>
                    <path d="M66.3625975,103.279755 C91.1282415,80.8479529 115.517218,74.305344 147.674141,74.305344 C148.833118,92.4098644 130.082,94.5995822 135.991846,132.721495 C143.379386,180.37412 158.633946,183.419237 141.251168,193.154639 C127.345321,200.943148 84.5875019,228.991312 72.9042717,242.07653 C61.2210415,255.161748 61.2210415,258.31435 55.1457618,259.367711 C49.0704821,260.421071 44.8645192,256.370261 39.2565687,246.089018 C33.6482444,235.807776 32.95155,235.066592 28.5053799,213.102119 C24.0592098,191.137646 30.3341325,135.912419 66.3625975,103.279755 Z" id="Path" fill="#272727"></path>
                    <path d="M138.328492,237.870567 C123.373957,238.805225 83.6743407,250.7782 77.1083653,243.943977 C41.1249509,164.96721 98.2512733,81.6028765 131.317619,71.0336656 C233.66365,38.320621 314.943415,85.4575947 337.878064,120.103606 C359.842536,153.28398 362.646512,224.785349 356.103903,232.729946 C348.050886,242.508342 330.150308,249.069644 312.642286,243.943977 C295.134265,238.817376 260.755659,243.508427 246.748868,237.870567 C235.543248,233.358971 196.278248,238.336961 173.378182,237.870567 C161.607094,237.63036 161.132288,190.252525 151.881039,190.202988 C139.730479,190.137562 145.596395,237.416323 138.328492,237.870567 Z" id="Path" fill="#272727"></path>
                    <path d="M221.592219,399.067003 C225.270843,397.562111 229.472912,399.32427 230.977804,403.002894 C232.482696,406.681518 230.720538,410.883588 227.041913,412.38848 C203.726211,421.926721 182.11683,422.19025 163.807952,412.018651 C160.333579,410.088444 159.081785,405.707165 161.011992,402.232791 C162.9422,398.758418 167.323479,397.506624 170.797853,399.436831 C184.91203,407.278041 202.031119,407.069271 221.592219,399.067003 Z" id="Path" fill="#C99584"></path>
                    <path d="M260.942092,270.957206 C241.284287,271.793641 224.761308,275.320575 211.819609,280.073086 C207.011137,281.839717 204.182086,286.662426 204.788979,291.800282 C205.632687,298.93586 206.738065,306.409659 208.124905,313.630117 C209.738917,322.034505 213.521072,331.165324 218.247112,339.911165 C220.279768,343.671394 224.263374,345.925652 228.595604,345.883433 L304.138011,345.122478 C309.146903,345.071367 313.559635,341.965008 315.041269,337.255967 C317.313942,330.037431 318.753083,322.842935 318.753083,316.381874 L318.748315,315.077439 C318.698776,308.02091 318.267329,297.187615 317.646503,285.086974 C317.386875,280.021086 314.000255,275.757118 309.127826,274.635755 C296.76625,271.788752 280.956094,270.189567 261.998551,270.914531 L260.942092,270.957206 Z M307.869635,280.10074 C310.238987,280.646034 311.911517,282.751854 312.045911,285.37416 L312.199034,288.411815 C312.769516,299.941084 313.145133,310.07637 313.145133,316.381874 C313.145133,322.167431 311.808267,328.850636 309.692011,335.572356 C308.956216,337.910915 306.71599,339.48793 304.081179,339.514816 L228.539671,340.275488 C226.25047,340.297788 224.205389,339.14051 223.180606,337.244754 C218.703607,328.95978 215.115965,320.29855 213.632204,312.5724 C212.273585,305.498871 211.187179,298.153343 210.358173,291.14211 C210.050446,288.536943 211.425898,286.192196 213.753167,285.337158 C226.171524,280.776832 242.128326,277.370752 261.180466,276.560088 C280.090857,275.755635 295.757018,277.311075 307.869635,280.10074 Z" id="Path" fill="#000000"></path>
                    <path d="M181.215566,286.219119 C188.735855,282.57015 199.889179,281.639391 209.295857,285.99665 L209.76471,286.218932 L205.685309,294.628279 C199.168261,291.466839 190.893544,292.048137 185.609175,294.479976 L185.295739,294.628092 L181.215566,286.219119 Z" id="Path" fill="#000000"></path>
                    <path d="M78.4643434,276.732192 C73.9450543,278.116434 70.9542637,282.251959 70.8118726,287.046634 L70.7378942,289.75408 C70.4920675,299.61528 70.5311136,308.700509 71.0257476,315.397651 C71.5295034,322.216966 73.2649741,329.652637 75.6689633,336.967406 C77.1762985,341.554362 81.4403648,344.627396 86.3253432,344.801194 L161.189981,347.479905 C165.480369,347.633887 169.486841,345.523475 171.62573,341.869592 C176.6746,333.240034 180.774904,324.187814 182.638411,315.799191 C184.228925,308.641069 185.541302,301.224924 186.583259,294.12148 C187.337995,288.97018 184.602553,284.040408 179.800753,282.15674 C166.769649,277.041563 150.050322,273.049341 130.06561,271.664247 C109.572049,270.243621 92.144879,272.543839 78.4643434,276.732192 Z M129.67783,277.258774 C149.067032,278.602595 165.231608,282.462354 177.752215,287.377142 C180.084132,288.291915 181.417484,290.694862 181.034614,293.308056 C180.011083,300.285889 178.72159,307.572721 177.163944,314.582917 C175.452922,322.285127 171.565433,330.867516 166.785681,339.037095 C165.709565,340.875434 163.656535,341.956869 161.390815,341.875552 L86.5253045,339.19681 C83.9443493,339.104984 81.7561637,337.527999 80.9966002,335.21658 C78.7227471,328.297783 77.0829211,321.271905 76.618462,314.984547 L76.5384762,313.814424 C76.0982963,306.842492 76.1168218,297.347714 76.4173554,287.212982 C76.4900478,284.765239 77.9422306,282.75723 80.1063747,282.09436 C92.9331475,278.16739 109.328464,275.96485 128.657757,277.191059 L129.67783,277.258774 Z" id="Path" fill="#000000"></path>
                    <path d="M15.5114782,270.878029 C24.6740281,265.464487 37.7238224,265.49907 43.1036228,266.192586 C49.8714844,269.836819 45.1860417,287.016776 41.5418085,290.140404 C37.897295,293.264033 17.5938971,304.196732 9.78482605,301.593708 C1.97584844,298.990685 8.74361657,291.702218 6.66129109,292.222823 C4.57887213,292.743428 0.934638964,290.140404 0.934638964,287.016776 C0.934638964,283.893147 4.05826739,277.645891 15.5114782,270.878029 Z" id="Path" fill="#EFD19F"></path>
                    <path d="M379.101173,263.019421 C369.898526,257.557277 356.789942,257.59186 351.386682,258.292853 C344.588911,261.968865 349.294916,279.301171 352.955973,282.452839 C356.616096,285.603572 377.009408,296.633476 384.853061,294.007086 C392.697649,291.381631 385.898944,284.027738 387.990709,284.553016 C390.082475,285.078294 393.743532,282.452839 393.743532,279.301171 C393.743532,276.149502 390.605884,269.847101 379.101173,263.019421 Z" id="Path" fill="#EFD19F"></path>
                    <path d="M354.466381,288.809451 C348.740664,292.017198 323.292719,211.439362 194.705218,213.521781 C66.1167823,215.604199 46.2889386,300.896453 40.886613,298.156035 C35.4843808,295.415616 20.6166759,210.501899 21.8661273,158.858283 C23.4279415,94.3032955 36.96273,3.19849438 194.705218,0.0748873583 C352.446584,-3.04871574 363.380219,92.2213438 363.900823,158.858283 C364.317681,212.16746 360.193033,285.601703 354.466381,288.809451 Z" id="Path" fill="#76CCDB"></path>
                    <path d="M173.358554,192.697591 C165.028879,186.866257 165.72333,169.096531 167.111298,160.940702 L191.58159,151.569817 L191.58159,182.285496 C191.58159,189.053358 183.770649,199.986057 173.358554,192.697591 Z" id="Path" fill="#FFFFFF"></path>
                    <path d="M196.787637,194.78001 C188.457961,188.948676 190.7189,159.725646 192.106868,151.569817 L215.858407,151.569817 L215.858407,182.285496 C215.858407,194.78001 207.198797,202.068476 196.787637,194.78001 Z" id="Path" fill="#FFFFFF"></path>
                    <path d="M153.056839,146.363769 C154.098048,134.38986 173.881028,127.101394 190.54038,126.580789 C213.967593,126.580789 223.337544,132.828046 231.66722,140.116512 C239.996896,147.404979 241.038105,161.460372 226.981777,164.063396 C212.925449,166.666419 204.075169,157.816139 194.183679,157.295534 C184.292189,156.774929 175.442843,164.063396 167.113167,164.063396 C158.783491,164.063396 152.015629,158.336744 153.056839,146.363769 Z" id="Path" fill="#F6D59F"></path>
                    <path d="M169.717125,128.663208 C169.19652,121.895347 175.443777,110.962647 192.103129,110.442042 C211.887044,110.442042 216.569682,119.292323 216.569682,125.018975 C216.569682,130.745627 210.84303,139.075303 194.184613,139.595908 C177.525262,140.116512 170.23773,135.43107 169.717125,128.663208 Z" id="Path" fill="#000000"></path>
                    <path d="M200.438413,79.7269236 C198.355994,52.6556641 225.425571,24.5431952 258.746143,27.1461254 C292.065781,29.7491491 304.036886,46.929012 307.160515,69.3148288 C310.284143,91.7007391 304.036886,116.689299 265.512136,124.49837 C226.987385,132.307441 202.520832,106.797809 200.438413,79.7269236 Z" id="Path" fill="#FFFFFF"></path>
                    <path d="M211.88424,79.2061319 C211.88424,74.000178 216.569682,63.5881767 227.502382,63.067572 C241.038105,63.067572 244.161733,75.5619922 244.161733,79.2061319 C244.161733,82.8503651 241.55871,96.9063191 227.502382,96.9063191 C213.446054,96.9063191 211.88424,84.4121793 211.88424,79.2061319 Z" id="Path" fill="#000000"></path>
                    <path d="M68.831965,84.5799505 C66.7495461,57.508691 93.8191231,29.3962221 127.139696,31.9992458 C160.459334,34.6022695 172.430439,51.7821324 175.554067,74.1679492 C178.677695,96.5539529 172.430439,121.54298 133.905688,129.352051 C95.3809373,137.161123 70.914384,111.65149 68.831965,84.5799505 Z" id="Path" fill="#FFFFFF"></path>
                    <path d="M80.2787266,84.0592523 C80.2787266,78.8532984 84.9641693,68.4412036 95.8968688,67.9205989 C109.431657,67.9205989 112.555286,80.4151126 112.555286,84.0592523 C112.555286,87.7034854 109.952262,101.76 95.8968688,101.76 C81.8405409,101.76 80.2787266,89.2652997 80.2787266,84.0592523 Z" id="Path" fill="#000000"></path>
                    <path d="M364.941098,28.7079396 C344.117843,11.6321977 321.557993,28.1873349 312.881559,38.5993362 L335.788167,92.7419486 C339.258554,95.1715931 349.948242,97.9475286 364.941098,89.6183201 C383.682869,79.2063188 390.971335,50.0526404 364.941098,28.7079396 Z" id="Path" fill="#76CCDB"></path>
                    <path d="M347.63029,46.0888475 C339.769812,39.5911022 331.254139,45.8907934 327.979096,49.8529039 L336.625621,70.4555794 C337.935078,71.3800501 341.969998,72.4366814 347.63029,69.2669743 C354.704719,65.3049573 357.455419,54.2111227 347.63029,46.0888475 Z" id="Path" fill="#000000"></path>
                    <path d="M17.350699,37.1236975 C38.7311038,20.0369266 61.8930609,36.6028123 70.8012903,47.0215432 L47.2834152,101.199205 C43.7195627,103.630252 32.7445231,106.408991 17.350699,98.0737075 C-1.89167462,87.6547897 -9.37483031,58.4822312 17.350699,37.1236975 Z" id="Path" fill="#76CCDB"></path>
                    <path d="M34.746468,54.4187103 C42.9213644,47.9208715 51.7772529,54.2205627 55.1840828,58.1826732 L46.1907995,78.7853487 C44.8290022,79.7099128 40.6323859,80.7664507 34.746468,77.5967436 C27.3890239,73.6347266 24.5278475,62.5408919 34.746468,54.4187103 Z" id="Path" fill="#000000"></path>
                </g>
            </g>
        </g>
    </g>
</svg>