<?xml version="1.0" encoding="UTF-8"?>
<svg width="507px" height="1429px" viewBox="0 0 507 1429" version="1.1" xmlns="http://www.w3.org/2000/svg" xmlns:xlink="http://www.w3.org/1999/xlink">
    <!-- Generator: Sketch 55.2 (78181) - https://sketchapp.com -->
    <title>gee_me_085</title>
    <desc>Created with Sketch.</desc>
    <g id="GEE!-ME" stroke="none" stroke-width="1" fill="none" fill-rule="evenodd">
        <g id="gee_me_085" transform="translate(-347.000000, -85.000000)" fill-rule="nonzero">
            <g transform="translate(331.000000, 85.000000)">
                <g id="lower-limb" transform="translate(40.000000, 874.000000)">
                    <path d="M268.999991,262.159998 L270.2054,503.159998 C270.293764,520.832889 284.692107,535.087964 302.364998,535.000009 C320.037889,534.911236 334.292964,520.512893 334.205009,502.840002 L332.9996,261.840002 C332.911236,244.167111 318.512893,229.912036 300.840002,229.999991 C283.167111,230.088764 268.912036,244.487107 268.999991,262.159998 Z" id="Path" fill="#EBBAAA"></path>
                    <path d="M123,262 L123,516 C123,533.673112 137.326888,548 155,548 C172.673112,548 187,533.673112 187,516 L187,262 C187,244.326888 172.673112,230 155,230 C137.326888,230 123,244.326888 123,262 Z" id="Path" fill="#EBBAAA"></path>
                    <path d="M229,123 C292.512,123 343.999,99.495 343.999,70.5 C343.999,41.505 292.512,18 229,18 C165.487,18 114,41.505 114,70.5 C114,99.495 165.487,123 229,123 Z" id="Path" fill="#E2D3BD"></path>
                    <polygon id="Path" fill="#E2D3BD" points="228 0 388 0 358 456 263.828 466 235.914 218"></polygon>
                    <polygon id="Path" fill="#E2D3BD" points="230 0 70 0 100 456 194.171 466 222.086 218"></polygon>
                    <g id="Group-183" transform="translate(257.000000, 473.000000)">
                        <path d="M197.874,75.04 C198.05,54.86 194.903,53.35 174.943,45.08 C154.984,36.81 107.993,23.4 91.648,0.85 C91.648,0.85 87.104,0.1 79.714,3.61 C73.407,6.6 65.31,13.95 53.096,13.85 C39.833,13.73 28.012,11.25 20.665,7.85 C17.484,0.21 10.446,0.14 10.446,0.14 C10.446,0.14 0.556,16.72 0.411,33.38 C0.266,50.04 0.316,77.72 0.316,77.72 L197.874,75.04 Z" id="Rectangle-82" fill="#8D5D42"></path>
                        <path d="M37.104,37.32 C33.604,35.27 13.562,27.66 4.607,22.46 C0.179,25.7 0.731,45.27 0.633,56.55 L44.613,58.98 C42.188,50.42 38.27,38.52 37.104,37.32 Z" id="Vector-456" fill="#A87C63"></path>
                        <path d="M151.521,49.42 C164.007,51.06 180.002,51.72 183.038,47.64 L162.592,41.31 L135.687,30.31 L128.656,33.83 L129.629,36.92 L114.545,46.53 L120.964,55.82 L121.063,55.77 C125.992,53.56 138.912,47.75 151.521,49.42 Z" id="Vector-454" fill="#A87C63"></path>
                        <path d="M104.147248,26.2662352 C103.586778,28.3477992 105.56586,30.2174082 107.6122,29.5395216 L120.837229,25.1584945 L120.83416,37.5093275 C120.833647,39.573587 123.05118,40.878713 124.855635,39.8761609 L133.828165,34.8910382 L133.82616,44.1694149 C133.825837,45.6643614 135.037469,46.87684 136.532415,46.87684 C138.027361,46.87684 139.239517,45.6655315 139.23984,44.1705851 L139.24284,30.2905851 C139.24284,28.2263642 137.025786,26.9213058 135.221365,27.9238391 L126.248983,32.9088792 L126.25184,21.4106725 C126.252298,19.5649328 124.445905,18.2600622 122.6938,18.8404784 L110.681734,22.81969 L113.709752,11.5737648 C114.304194,9.36603092 112.063124,7.46131927 109.980092,8.40388324 L95.4702275,14.9695397 C95.6441746,10.8628123 96.1505146,8.03132369 97.3397971,5.28598089 C97.9340449,3.91421765 97.3037441,2.32045076 95.9319809,1.72620293 C94.5602176,1.13195509 92.9664508,1.76225586 92.3722029,3.13401911 C90.4198923,7.64073793 89.982038,11.8942376 89.9801599,19.1993042 C89.9796544,21.1662695 92.0108678,22.4770079 93.8029081,21.6661168 L106.992873,15.6977096 L104.147248,26.2662352 Z" id="Vector-293" fill="#67432F"></path>
                        <path d="M0.75,74.55 L0.754,56 L159.159,67.03 L198.962,62.92 L199.788,69.82 C200.376,74.73 196.737,79.13 191.802,79.49 L159.156,81.81 L78.959,78.87 L5.082,78.88 C2.689,78.88 0.75,76.95 0.75,74.55 Z" id="Vector-414" fill="#67432F"></path>
                    </g>
                    <g id="Group-184" transform="translate(0.000000, 472.000000)">
                        <path d="M2.6659,75.29 C2.4898,55.11 5.6375,53.59 25.5967,45.32 C45.556,37.06 92.547,23.65 108.892,1.1 C108.892,1.1 113.436,0.34 120.827,3.85 C127.133,6.85 135.23,14.2 147.444,14.09 C160.707,13.98 172.528,11.49 179.875,8.1 C183.056,0.45 190.094,0.39 190.094,0.39 C190.094,0.39 199.984,16.97 200.129,33.63 C200.274,50.29 200.224,77.96 200.224,77.96 L2.6659,75.29 Z" id="Rectangle-82_2" fill="#8D5D42"></path>
                        <path d="M163.436,37.57 C166.936,35.52 186.978,27.91 195.933,22.7 C200.361,25.95 199.809,45.51 199.907,56.79 L155.927,59.23 C158.352,50.66 162.27,38.76 163.436,37.57 Z" id="Vector-456_2" fill="#A87C63"></path>
                        <path d="M49.0193,49.66 C36.533,51.31 20.5381,51.96 17.5024,47.89 L37.9479,41.56 L64.853,30.55 L71.884,34.08 L70.911,37.17 L85.995,46.78 L79.576,56.06 L79.477,56.02 C74.548,53.8 61.628,48 49.0193,49.66 Z" id="Vector-454_2" fill="#A87C63"></path>
                        <path d="M90.5610197,8.64438655 C88.4778932,7.70064841 86.2356575,9.6054805 86.8302483,11.8137648 L89.8591063,23.0628105 L77.8448201,19.0900217 C76.0929838,18.5107383 74.2877017,19.815544 74.2881601,21.6606725 L74.2910168,33.1588792 L65.318635,28.1738391 C63.5142141,27.1713058 61.29716,28.4763642 61.29716,30.5405851 L61.3001601,44.4205851 C61.3004832,45.9155315 62.5126386,47.12684 64.0075851,47.12684 C65.5025315,47.12684 66.7141631,45.9143614 66.7138399,44.4194149 L66.7118345,35.1410382 L75.684365,40.1261609 C77.4888198,41.128713 79.7063528,39.823587 79.7058399,37.7593275 L79.7027709,25.4063743 L92.9291799,29.7799783 C94.9752593,30.4565596 96.9530516,28.5871645 96.3927517,26.5062352 L93.5479964,15.9409388 L106.73598,21.9156135 C108.528135,22.7275301 110.560346,21.4167971 110.55984,19.4493042 L110.555542,18.2900872 L110.541491,17.1155899 C110.441611,11.1873086 109.902555,7.37853986 108.167797,3.37401911 C107.573549,2.00225586 105.979782,1.37195509 104.608019,1.96620293 C103.236256,2.56045076 102.605955,4.15421765 103.200203,5.52598089 C104.337746,8.15188762 104.850533,10.8599151 105.0452,14.6883355 L105.069802,15.2174349 L90.5610197,8.64438655 Z" id="Vector-293_2" fill="#67432F"></path>
                        <path d="M199.79,74.8 L199.786,56.24 L41.3812,67.28 L1.5775,63.17 L0.7522,70.06 C0.164,74.97 3.803,79.38 8.7381,79.73 L41.3844,82.05 L121.581,79.11 L195.458,79.13 C197.851,79.13 199.79,77.19 199.79,74.8 Z" id="Vector-414_2" fill="#67432F"></path>
                    </g>
                </g>
                <g id="upper-limb" transform="translate(0.001028, 438.000000)">
                    <path d="M381.495667,206.366705 C400.085927,239.322593 415.114873,290.319984 422.937394,344.064684 C429.83239,391.436805 429.761371,434.276182 424.391062,449.890457 L424.226704,450.35526 C417.243208,469.559453 427.150039,490.78877 446.354232,497.772267 C465.558425,504.755764 486.787742,494.848932 493.771239,475.64474 C504.587336,445.901128 504.763832,392.479175 496.165799,333.406316 C487.136666,271.371584 469.645104,212.017856 445.948276,170.009295 C435.908455,152.211199 413.341364,145.921874 395.543267,155.961696 C377.745171,166.001517 371.455846,188.568608 381.495667,206.366705 Z" id="Path" fill="#EBBAAA"></path>
                    <path d="M92.0357591,170.012132 C68.3384157,212.021109 50.8466746,271.375018 41.8174702,333.410186 C33.2194776,392.482712 33.3959199,445.904811 44.2116814,475.648401 C51.1949912,494.852662 72.4242118,504.7597 91.6284726,497.77639 C110.640691,490.862914 120.540701,469.98702 113.960902,450.936318 L113.756462,450.359599 C108.224004,435.145214 108.081237,391.919112 115.045873,344.068564 C122.868449,290.323537 137.897525,239.326074 156.488184,206.369868 C166.528095,188.571822 160.238885,166.004699 142.440839,155.964787 C124.642793,145.924876 102.07567,152.214087 92.0357591,170.012132 Z" id="Path" fill="#EBBAAA"></path>
                    <rect id="Rectangle-69" fill="#2D3870" transform="translate(133.267759, 247.718076) rotate(15.000000) translate(-133.267759, -247.718076) " x="48.2677594" y="51.3070763" width="170" height="392.822" rx="85"></rect>
                    <rect id="Rectangle-285" fill="#2D3870" transform="translate(404.937160, 247.718107) scale(-1, 1) rotate(14.999995) translate(-404.937160, -247.718107) " x="319.937147" y="51.3070759" width="170.000027" height="392.822061" rx="85"></rect>
                    <path d="M472.998972,182.84 C463.998972,178.499 430.998972,187.999 412.998972,198.999 L412.998972,230.84 C412.998972,224.44 458.998972,211.507 481.998972,205.84 C480.998972,201.507 477.798972,190.84 472.998972,182.84 Z" id="Vector-602" fill="#E8ECF3"></path>
                    <path d="M481.998972,206.458 C460.498972,203.5 433.498972,216.001 415.498972,227.001 C415.498972,238.001 421.998972,262.858 421.998972,256.458 C421.998972,250.058 466.998972,238.125 489.998972,232.458 C488.998972,228.125 486.798972,214.458 481.998972,206.458 Z" id="Vector-603" fill="#3D507B"></path>
                    <path d="M64.9989716,182.84 C73.9989716,178.499 106.998972,187.999 124.998972,198.999 L124.998972,230.84 C124.998972,224.44 78.9989716,211.507 55.9989716,205.84 C56.9989716,201.507 60.1989716,190.84 64.9989716,182.84 Z" id="Vector-604" fill="#E8ECF3"></path>
                    <path d="M55.9989716,206.458 C77.4989716,203.5 104.498972,216.001 122.498972,227.001 C122.498972,238.001 115.998972,262.858 115.998972,256.458 C115.998972,250.058 70.9989716,238.125 47.9989716,232.458 C48.9989716,228.125 51.1988716,214.458 55.9989716,206.458 Z" id="Vector-605" fill="#3D507B"></path>
                    <path d="M516.998972,450 C523.398972,431.6 524.997972,367 516.997972,337 L402.998972,332 C415.199972,370 417.199972,420 426.199972,469 L426.352972,469.007 C447.498972,470.014 509.017972,472.944 516.998972,450 Z" id="Vector-449" fill="#2D3870"></path>
                    <path d="M21.4164716,450 C15.0164716,431.6 13.4166716,367 21.4165716,337 L135.415972,332 C123.214972,370 121.214972,420 112.214972,469 L112.061972,469.007 C90.9162716,470.014 29.3970716,472.944 21.4164716,450 Z" id="Vector-450" fill="#2D3870"></path>
                    <path d="M101.215972,104.533 C99.9531716,79.137 117.950972,56.837 143.041972,52.711 L268.998972,32 L394.955972,52.711 C420.046972,56.837 438.044972,79.137 436.781972,104.533 L428.998972,261 C428.998972,261 432.120972,329.461 433.998972,375 C435.557972,412.808 430.938972,467.851 429.446972,484.232 C429.171972,487.25 427.544972,489.934 424.854972,491.331 C411.281972,498.381 363.507972,519 268.998972,519 C174.489972,519 126.715972,498.381 113.142972,491.331 C110.452972,489.934 108.825972,487.25 108.550972,484.232 C107.058972,467.851 102.439972,412.808 103.998972,375 C105.876972,329.461 108.998972,261 108.998972,261 L101.215972,104.533 Z" id="Rectangle-284" fill="#455191"></path>
                    <path d="M268.998972,140 C307.657972,140 338.998972,108.66 338.998972,70 C338.998972,31.34 307.657972,0 268.998972,0 C230.338972,0 198.998972,31.34 198.998972,70 C198.998972,108.66 230.338972,140 268.998972,140 Z" id="Path" fill="#5D6AAF"></path>
                    <path d="M358.598972,331.8 L358.598972,257.8 C358.598972,203.4 318.198972,173 271.798972,173 C225.398972,173 184.998972,203.4 184.998972,257.8 L184.998972,331.8 C184.998972,386.2 225.398972,416.6 271.798972,416.6 C318.198972,416.6 358.598972,386.2 358.598972,331.8 Z M306.598972,331.4 C306.598972,355.4 292.198972,369.8 271.798972,369.8 C251.398972,369.8 236.998972,355.4 236.998972,331.4 L236.998972,258.6 C236.998972,234.6 251.398972,219.8 271.798972,219.8 C292.198972,219.8 306.598972,234.6 306.598972,258.6 L306.598972,331.4 Z" id="0" fill="#FFFFFF"></path>
                </g>
                <g id="head" transform="translate(78.999500, -0.000011)">
                    <rect id="Path" fill="#EBBAAA" x="142.0005" y="344.000011" width="96" height="194" rx="48"></rect>
                    <path d="M340.0005,330.000011 C362.0915,330.000011 380.0005,312.091011 380.0005,290.000011 C380.0005,267.909011 362.0915,250.000011 340.0005,250.000011 C317.9095,250.000011 300.0005,267.909011 300.0005,290.000011 C300.0005,312.091011 317.9095,330.000011 340.0005,330.000011 Z" id="Path" fill="#C99584" opacity="0.5"></path>
                    <path d="M40.0005,330.000011 C17.9086,330.000011 4.97379915e-14,312.091011 4.97379915e-14,290.000011 C4.97379915e-14,267.909011 17.9086,250.000011 40.0005,250.000011 C62.0915,250.000011 80.0005,267.909011 80.0005,290.000011 C80.0005,312.091011 62.0915,330.000011 40.0005,330.000011 Z" id="Path" fill="#C99584" opacity="0.5"></path>
                    <rect id="Path" fill="#F4D5CC" x="40.0005" y="42.0000114" width="300" height="430" rx="150"></rect>
                    <path d="M146.139778,368.661801 L146.488744,368.857589 L146.963863,369.11126 L147.150123,369.207991 C147.833865,369.560724 148.627234,369.944102 149.528421,370.34963 C152.020526,371.471061 154.920779,372.578182 158.214238,373.602361 C167.474778,376.482146 178.116608,378.199661 190.0005,378.199661 C201.884392,378.199661 212.526222,376.482146 221.786762,373.602361 C225.080221,372.578182 227.980474,371.471061 230.472579,370.34963 C231.223568,370.01169 231.899684,369.689132 232.499879,369.386872 L232.850877,369.207991 C233.301704,368.975415 233.639084,368.790537 233.861222,368.661801 C237.540427,366.529583 238.794507,361.818494 236.662289,358.13929 C234.573586,354.535171 230.010198,353.258201 226.366294,355.211901 L225.928913,355.454026 L225.556209,355.645208 C225.259462,355.793483 224.866466,355.982229 224.379038,356.204422 L224.153327,356.306643 C222.218284,357.177399 219.899732,358.062466 217.213988,358.897662 C209.39109,361.330377 200.282983,362.800361 190.0005,362.800361 C179.718017,362.800361 170.60991,361.330377 162.787012,358.897662 C160.307863,358.126712 158.141589,357.313268 156.301022,356.507811 L155.847673,356.306643 C154.919384,355.888919 154.296167,355.576148 153.988633,355.409298 L153.861222,355.338222 C150.182017,353.206004 145.470929,354.460085 143.338711,358.13929 C141.206493,361.818494 142.460573,366.529583 146.139778,368.661801 Z" id="Vector-220" fill="#C99584"></path>
                    <path d="M344.9915,156.486011 C345.2245,150.215011 340.6835,145.000011 335.0005,145.000011 C329.1045,145.000011 324.4885,150.594011 325.0465,157.070011 L334.4615,266.773011 C334.6195,268.607011 336.0125,270.000011 337.6745,270.000011 C339.4115,270.000011 340.8315,268.494011 340.9065,266.588011 L344.9915,156.486011 Z" id="Path" fill="#393939"></path>
                    <path d="M35.0095,156.486011 C34.7765,150.215011 39.3175,145.000011 45.0005,145.000011 C50.8965,145.000011 55.5125,150.594011 54.9545,157.070011 L45.5395,266.773011 C45.3815,268.607011 43.9885,270.000011 42.3265,270.000011 C40.5895,270.000011 39.1695,268.494011 39.0945,266.588011 L35.0095,156.486011 Z" id="Path" fill="#393939"></path>
                    <path d="M185.3255,108.179011 C261.4735,108.179011 322.3605,107.971011 325.5005,163.625011 C338.3455,181.724011 346.3905,179.710011 349.3905,146.772011 C358.9955,41.2847114 253.1575,-18.4822886 179.8615,5.12596144 C179.8615,5.12596144 109.1685,108.179011 185.3255,108.179011 Z" id="Path" fill="#393939"></path>
                    <path d="M194.6755,108.179011 C118.5275,108.179011 57.6405,107.971011 54.5005,163.625011 C41.6555,181.724011 33.6105,179.710011 30.6105,146.772011 C21.0055,41.2847114 126.8435,-18.4822886 200.1395,5.12596144 C200.1395,5.12596144 270.8325,108.179011 194.6755,108.179011 Z" id="Path" fill="#393939"></path>
                    <polygon id="Vector-438" fill="#393939" points="132.5425 127.453011 119.1515 93.2632114 114.0005 20.0000114 285.0005 20.0000114 237.6145 136.000011 227.3135 116.463011 215.9825 127.453011 201.5605 106.695011 192.2895 127.453011 176.8375 116.463011 157.2655 127.453011 151.0845 116.463011"></polygon>
                    <path d="M254.0005,241.000011 L234.0005,241.000011 C229.029937,241.000011 225.0005,245.029449 225.0005,250.000011 C225.0005,254.970574 229.029937,259.000011 234.0005,259.000011 L254.0005,259.000011 C258.971063,259.000011 263.0005,254.970574 263.0005,250.000011 C263.0005,245.029449 258.971063,241.000011 254.0005,241.000011 Z" id="Path" fill="#000000"></path>
                    <path d="M144.0005,241.000011 L124.0005,241.000011 C119.029937,241.000011 115.0005,245.029449 115.0005,250.000011 C115.0005,254.970574 119.029937,259.000011 124.0005,259.000011 L144.0005,259.000011 C148.971063,259.000011 153.0005,254.970574 153.0005,250.000011 C153.0005,245.029449 148.971063,241.000011 144.0005,241.000011 Z" id="Path" fill="#000000"></path>
                    <path d="M233.215997,198.965755 L273.215997,202.465755 C278.167641,202.899024 282.532975,199.236157 282.966243,194.284514 C283.399512,189.332871 279.736646,184.967537 274.785003,184.534268 L234.785003,181.034268 C229.833359,180.600999 225.468025,184.263866 225.034757,189.215509 C224.601488,194.167152 228.264354,198.532486 233.215997,198.965755 Z" id="Path" fill="#393939"></path>
                    <path d="M143.215997,181.034268 L103.215997,184.534268 C98.2643541,184.967537 94.6014877,189.332871 95.0347565,194.284514 C95.4680253,199.236157 99.8333592,202.899024 104.785003,202.465755 L144.785003,198.965755 C149.736646,198.532486 153.399512,194.167152 152.966243,189.215509 C152.532975,184.263866 148.167641,180.600999 143.215997,181.034268 Z" id="Path" fill="#393939"></path>
                    <path d="M182.928072,275.28506 C176.371859,285.11938 171.5005,299.124537 171.5005,310.625011 C171.5005,327.29852 181.457381,338.500011 200.0005,338.500011 L200.0005,321.500011 C191.321397,321.500011 188.5005,318.326502 188.5005,310.625011 C188.5005,302.750486 192.265505,291.926097 197.072928,284.714963 L182.928072,275.28506 Z" id="Path" fill="#EBBAAA"></path>
                </g>
            </g>
        </g>
    </g>
</svg>