<?xml version="1.0" encoding="UTF-8"?>
<svg width="510px" height="1398px" viewBox="0 0 510 1398" version="1.1" xmlns="http://www.w3.org/2000/svg" xmlns:xlink="http://www.w3.org/1999/xlink">
    <!-- Generator: Sketch 55.2 (78181) - https://sketchapp.com -->
    <title>gee_me_075</title>
    <desc>Created with Sketch.</desc>
    <defs>
        <path d="M185.166,60 C185.166,44.67 180.248,36.06 171.321,29.98 C126.741,-0.43 67.128,-0.000166023036 13.168,-0.000166023036 C12.732,-0.000166023036 12.334,0.24 12.143,0.63 C10.226,4.57 0.166,26.05 0.166,43.24 C0.166,56.39 -0.96,69.32 2.666,76 C4.302,79.01 14.517,80.66 17.947,80.66 L179.603,80.66 C182.675,80.66 185.166,63.07 185.166,60 Z" id="path-1"></path>
        <path d="M0,60 C0,44.67 4.918,36.06 13.844,29.98 C58.424,-0.43 118.038,-0.000166023036 171.997,-0.000166023036 C172.434,-0.000166023036 172.831,0.24 173.022,0.63 C174.939,4.57 185,26.05 185,43.24 C185,56.39 186.126,69.32 182.5,76 C180.864,79.01 170.649,80.66 167.218,80.66 L5.562,80.66 C2.49,80.66 0,63.07 0,60 Z" id="path-3"></path>
    </defs>
    <g id="GEE!-ME" stroke="none" stroke-width="1" fill="none" fill-rule="evenodd">
        <g id="gee_me_075" transform="translate(-345.000000, -101.000000)">
            <g transform="translate(345.000000, 101.000000)">
                <g id="lower-limb" transform="translate(67.000000, 878.000000)">
                    <path d="M286.490451,164.2002 L291.587,377.621 L292.388032,402.934849 C293.50114,439.175645 294.007283,461.433394 294.053067,478.796954 L294.0565,481.372318 L227.066057,482.172469 L224.611,379.455 L222.811851,323.974055 C222.495738,314.012882 222.21832,305.032869 221.961785,296.417871 L221.600928,284.058537 C220.293812,238.325768 219.580078,201.59898 219.50636,170.336593 L219.5,165 L286.490451,164.2002 Z" id="Path-Copy" fill="#EBBAAA" fill-rule="nonzero"></path>
                    <path d="M164.490451,164.2002 L169.587,377.621 L170.388032,402.934849 C171.50114,439.175645 172.007283,461.433394 172.053067,478.796954 L172.0565,481.372318 L105.066057,482.172469 L102.611,379.455 L100.811851,323.974055 C100.495738,314.012882 100.21832,305.032869 99.9617846,296.417871 L99.6009277,284.058537 C98.2938118,238.325768 97.5800784,201.59898 97.5063595,170.336593 L97.5,165 L164.490451,164.2002 Z" id="Path-Copy-2" fill="#EBBAAA" fill-rule="nonzero"></path>
                    <path d="M174.145,115.92 C237.929,115.92 289.635,91.427 289.635,61.214 C289.635,31.001 237.929,6.508 174.145,6.508 C110.362,6.508 58.655,31.001 58.655,61.214 C58.655,91.427 110.362,115.92 174.145,115.92 Z" id="Path" fill="#D2D7DB" fill-rule="nonzero"></path>
                    <polygon id="Path" fill="#D2D7DB" fill-rule="nonzero" points="50 0 185 0 180 409.79 180 434 88 434 83.886 403.3"></polygon>
                    <polygon id="Path" fill="#D2D7DB" fill-rule="nonzero" points="183.715 6.021 319.172 6.021 314 396 308 424 221 430 217.739 400"></polygon>
                    <g id="Group-6" transform="translate(212.000000, 439.000000)">
                        <path d="M185.166,60 C185.166,29.3 165.44,25.55 133.289,15.03 C117.542,9.88 101.472,5.39 85.166,2.69 C74.919,0.99 72.166,10 54.166,10 C38.114,10 18.088,2.05 13.941,0.33 C13.421,0.11 12.804,-0.08 12.39,0.3 C12.29,0.39 12.206,0.51 12.143,0.63 C10.226,4.57 0.166,26.05 0.166,43.24 C0.166,56.39 -0.96,69.32 2.666,76 C4.302,79.01 14.517,80.66 17.947,80.66 L179.603,80.66 C182.675,80.66 185.166,63.07 185.166,60 Z" id="Path" fill="#D0D4DB" fill-rule="nonzero"></path>
                        <g id="Clipped">
                            <mask id="mask-2" fill="white">
                                <use xlink:href="#path-1"></use>
                            </mask>
                            <g id="Path"></g>
                            <g id="Group" mask="url(#mask-2)" fill-rule="nonzero">
                                <g transform="translate(-29.000000, 5.000000)" id="Path">
                                    <path d="M104.643693,13.4558792 L117.686307,18.5441208 C111.911289,33.3471397 84.7534905,64.1091321 70.9142408,71.9252552 L70.498982,72.1550438 L63.831018,59.8449562 C74.5206566,54.0547353 99.5103503,25.8876207 104.498689,13.8166981 L104.643693,13.4558792 Z" fill="#DE9F40"></path>
                                    <path d="M31.0308145,9.91053281 C38.7229038,16.3880817 52.001432,21.2432264 69.5052849,24.4747069 C83.099805,26.9844645 97.9756152,28.3475865 114.405808,29.0047942 C134.258567,29.7989046 164.883757,45.7827215 172.15059,57.6443681 L172.363612,58.0025303 L161.968388,63.9974697 C160.218838,60.9637504 152.954212,55.3848743 143.968056,50.6073823 L143.50174,50.3610025 C133.040315,44.8681088 122.168985,41.3249175 113.926192,40.9952058 C96.9748262,40.3171511 81.5778608,38.9062738 67.3267151,36.2752931 C48.2512817,32.7536746 33.4088121,27.3798169 23.7501356,19.4624589 L23.3011855,19.0894672 L31.0308145,9.91053281 Z" fill="#576478"></path>
                                    <path d="M4.52981447,-4.58946719 C18.8247661,7.44838684 48.4915727,19.7603695 85.2266469,31.5607082 L87.4844941,32.2825319 C105.602732,38.0483756 128.591369,55.8397074 135.653505,67.6465961 L135.862612,68.0025303 L125.467388,73.9974697 C120.193936,64.8533049 99.3612909,48.6551222 83.8457781,43.7175547 C68.221706,38.746259 53.5627301,33.595808 39.7598295,27.9248489 C21.0246624,20.2274546 6.4859284,12.5956237 -2.74987492,4.96475531 L-3.19981447,4.58946719 L4.52981447,-4.58946719 Z" fill="#576478"></path>
                                    <path d="M194.021,21.02 C206.97,13.7 201.891,28.2 213.526,34.36 L238.166,81.59 L42.082,81.59 C37.291,74.74 18.429,59.41 33.052,59.41 C65.052,59.41 103.679,60.43 122.158,59.41 C140.637,58.38 193.535,62.08 190.428,45.65 C186.835,26.66 182.215,27.69 194.021,21.02 Z" fill="#AEB5C0"></path>
                                </g>
                            </g>
                        </g>
                        <path d="M101.629952,0.652185992 C102.650471,2.0129891 102.374617,3.94343249 101.013814,4.96395199 L98.9046397,6.51804059 C98.0214873,7.16975197 97.3345102,7.69168632 96.6744122,8.21884695 C95.2841795,9.32910014 94.1367815,10.3804723 93.2339832,11.3844846 L93.149,11.479 L121.708292,2.20088269 C124.38675,1.33061735 126.700882,4.20241141 125.359136,6.61417401 L125.275968,6.75548012 L117.937,18.565 L141.206152,10.9335399 C143.969688,10.0271299 146.301809,13.0895057 144.776296,15.4954419 L144.685803,15.6308948 L131.339803,34.6208948 C130.361765,36.0125436 128.440754,36.3478413 127.049105,35.3698031 C125.708999,34.4279885 125.348445,32.6117576 126.196918,31.2358365 L126.300197,31.0791052 L134.314,19.676 L111.813848,27.0564601 C109.133857,27.9354682 106.81121,25.0612975 108.154747,22.6460332 L108.238032,22.5045199 L115.595,10.663 L88.6177078,19.4291173 C86.6846244,20.0572009 84.7027718,18.6753644 84.5911011,16.6778166 L84.58615,16.5 C84.58615,11.6002308 87.5416608,7.62943235 92.8305601,3.40566658 L93.3843394,2.96882526 C93.6653382,2.74982306 93.9546444,2.52822745 94.2619046,2.29629357 L97.318186,0.0360480091 C98.6789891,-0.984471488 100.609432,-0.708617117 101.629952,0.652185992 Z" id="Path" fill="#FFFFFF" fill-rule="nonzero"></path>
                    </g>
                    <g id="Group-7" transform="translate(0.000000, 439.000000)">
                        <path d="M-3.97903932e-13,60 C-3.97903932e-13,29.3 19.726,25.55 51.876,15.03 C67.623,9.88 83.694,5.39 100,2.69 C110.247,0.99 113,10 131,10 C147.052,10 167.078,2.05 171.225,0.33 C171.745,0.11 172.361,-0.08 172.775,0.3 C172.875,0.39 172.96,0.51 173.022,0.63 C174.939,4.57 185,26.05 185,43.24 C185,56.39 186.126,69.32 182.5,76 C180.864,79.01 170.649,80.66 167.218,80.66 L5.562,80.66 C2.49,80.66 -3.97903932e-13,63.07 -3.97903932e-13,60 Z" id="Path" fill="#D0D4DB" fill-rule="nonzero"></path>
                        <g id="Clipped">
                            <mask id="mask-4" fill="white">
                                <use xlink:href="#path-3"></use>
                            </mask>
                            <g id="Path"></g>
                            <g id="Group" mask="url(#mask-4)" fill-rule="nonzero">
                                <g transform="translate(-24.000000, 5.000000)" id="Path">
                                    <path d="M133.521146,13.4554651 C138.103107,25.1981361 163.031247,53.4246345 174.005728,59.6626942 L174.333982,59.8449562 L167.666018,72.1550438 C154.100019,64.8067945 126.86502,34.1197175 120.6604,18.9979653 L120.478854,18.5445349 L133.521146,13.4554651 Z" fill="#DE9F40"></path>
                                    <path d="M207.135186,9.91053281 L214.864814,19.0894672 C205.219982,27.2114317 190.212772,32.6986493 170.839285,36.2752931 C156.588139,38.9062738 141.191174,40.3171511 124.239808,40.9952058 C116.16874,41.3180485 105.577516,44.7218705 95.3186057,50.0202467 L94.6642605,50.3610025 C85.6198699,55.1098658 78.2316024,60.7178121 76.2930053,63.8383006 L76.1976125,63.9974697 L65.8023875,58.0025303 C72.662453,46.1071767 103.7069,29.8069259 123.760192,29.0047942 C140.190385,28.3475865 155.066195,26.9844645 168.660715,24.4747069 C185.89107,21.2937183 199.027111,16.5394086 206.770532,10.2129796 L207.135186,9.91053281 Z" fill="#576478"></path>
                                    <path d="M233.635186,-4.58946719 L241.364814,4.58946719 C232.154624,12.3454174 217.447472,20.1012678 198.40517,27.9248489 C184.60227,33.595808 169.943294,38.746259 154.319494,43.7174681 C138.958867,48.6057457 118.387185,64.5304673 112.860463,73.7210469 L112.697612,73.9974697 L102.302388,68.0025303 C109.108717,56.2003552 132.379256,38.1066165 150.680778,32.2824453 L152.938609,31.5606267 C189.298582,19.8807803 218.734053,7.69959851 233.192792,-4.22087666 L233.635186,-4.58946719 Z" fill="#576478"></path>
                                    <path d="M44.145,21.02 C31.196,13.7 36.274,28.2 24.639,34.36 L0,81.59 L196.084,81.59 C200.875,74.74 219.736,59.41 205.114,59.41 C173.114,59.41 134.487,60.43 116.008,59.41 C97.529,58.38 44.631,62.08 47.738,45.65 C51.331,26.66 55.951,27.69 44.145,21.02 Z" fill="#AEB5C0"></path>
                                </g>
                            </g>
                        </g>
                        <path d="M83.536048,0.652185992 C84.5187705,-0.658217002 86.3452633,-0.962549561 87.6943446,-0.0720189158 L87.9180811,0.0885444324 L89.9188063,1.56173224 C90.8596458,2.25601303 91.604214,2.82170258 92.3354399,3.40566658 C97.6243392,7.62943235 100.57985,11.6002308 100.57985,16.5 C100.57985,18.5325601 98.6532283,19.990415 96.7189361,19.4793559 L96.5482922,19.4291173 L69.57,10.663 L76.9279683,22.5045199 C78.4165487,24.9001684 76.1740666,27.8373133 73.5093619,27.1038693 L73.3521525,27.0564601 L50.851,19.676 L58.8658031,31.0791052 C59.8076176,32.4192115 59.5315789,34.250194 58.2671623,35.2573264 L58.1168948,35.3698031 C56.7767885,36.3116176 54.945806,36.0355789 53.9386736,34.7711623 L53.8261969,34.6208948 L40.4801969,15.6308948 C38.807893,13.2513765 41.0578687,10.1281502 43.8039047,10.8864412 L43.9598475,10.9335399 L67.228,18.565 L59.8900317,6.75548012 C58.4036522,4.36337353 60.6376915,1.42884156 63.3005965,2.15397503 L63.4577078,2.20088269 L92.016,11.479 L91.9320168,11.3844846 C91.1044517,10.46414 90.0713549,9.50399995 88.8340859,8.49519023 L88.4915878,8.21884695 L87.7287102,7.62087676 C87.5526941,7.48532032 87.3710301,7.34692639 87.181073,7.20358552 L84.152186,4.96395199 C82.7913829,3.94343249 82.5155285,2.0129891 83.536048,0.652185992 Z" id="Path" fill="#FFFFFF" fill-rule="nonzero"></path>
                    </g>
                </g>
                <g id="upper-limb" transform="translate(0.837400, 458.000000)" fill-rule="nonzero">
                    <path d="M107.4596,79.587 C106.2166,54.596 123.6386,32.534 148.2376,27.95 L255.2896,8 L362.3406,27.95 C386.9396,32.534 404.3616,54.596 403.1186,79.587 L395.2896,237 L404.8316,454.562 C405.0806,460.251 400.5356,465 394.8406,465 L115.7376,465 C110.0426,465 105.4976,460.251 105.7476,454.562 L115.2896,237 L107.4596,79.587 Z" id="Path" fill="#373434"></path>
                    <path d="M107.062397,94.8211161 C117.102317,77.0230755 139.669443,70.7338763 157.467484,80.7737967 C175.087544,90.7133178 181.427789,112.930753 171.811107,130.643529 L171.514803,131.178884 C153.110447,163.804788 133.848396,224.370367 121.064471,288.034311 L120.459602,291.074015 C114.875441,319.395261 111.012753,346.295887 109.341893,368.45819 L109.254482,369.640905 C108.435195,380.95554 108.221255,390.712065 108.596723,398.453708 L108.666286,399.75047 C108.841149,402.71657 109.102871,405.262251 109.430851,407.331068 L109.561633,408.112775 C109.762027,409.247536 109.943569,409.998434 110.041317,410.298201 L110.060957,410.355507 C117.044318,429.559749 107.137336,450.788996 87.9330933,457.772357 C68.728851,464.755718 47.4996042,454.848736 40.5162433,435.644493 C29.6567347,405.780845 34.0067691,345.70537 48.5127291,273.465689 C62.6975819,202.825122 84.1017616,135.52406 107.062397,94.8211161 Z" id="Path" fill="#EBBAAA"></path>
                    <path d="M353.109716,80.7737967 C370.907757,70.7338763 393.474883,77.0230755 403.514803,94.8211161 C426.475438,135.52406 447.879618,202.825122 462.064471,273.465689 C476.570431,345.70537 480.920465,405.780845 470.060957,435.644493 C463.077596,454.848736 441.848349,464.755718 422.644107,457.772357 C403.631907,450.858829 393.731952,429.982909 400.311802,410.932225 L400.516243,410.355507 C400.626102,410.053395 400.882147,408.997591 401.146349,407.331068 C401.521184,404.966705 401.809477,401.979501 401.980477,398.453708 L402.042246,397.024036 C402.32779,389.523733 402.092351,380.269804 401.322718,369.640905 C399.644978,346.470741 395.524959,317.975217 389.512729,288.034311 C376.728804,224.370367 357.466753,163.804788 339.062397,131.178884 C329.022476,113.380843 335.311675,90.813717 353.109716,80.7737967 Z" id="Path" fill="#EBBAAA"></path>
                    <path d="M212.3256,149.569 L125.5126,329.733 C125.5126,329.733 49.1591,287.895 19.8728,260.701 C19.8728,260.701 31.9245,191.669 49.1591,128.651 C59.1526,92.108 83.2306,63.567 101.6986,46.035 C116.4946,31.989 135.8416,24.465 155.8896,20.686 L193.4986,13.598 L212.3256,149.569 Z" id="Path" fill="#5788A8"></path>
                    <path d="M19.983,259.641 C22.0579,242.825 38.8386,231.98 55.0227,236.995 L97.1186,250.041 C110.8466,254.296 119.9286,267.332 119.1636,281.683 L118.9486,285.73 C118.8646,287.302 118.6626,288.866 118.3446,290.407 L95.8736,399.208 C93.9286,408.626 85.8136,415.505 76.2046,415.88 L24.9305,417.883 C12.042,418.387 1.773,407.22 3.3526,394.419 L19.983,259.641 Z" id="Path" fill="#5788A8"></path>
                    <path d="M5.2297,418.375 L1.56319402e-13,373.399 C33.47,367.542 79.4916,375.84 98.3176,380.721 L93.0886,418.375 C93.0886,418.375 65.8936,421.512 49.159,421.512 C32.424,421.512 5.2297,418.375 5.2297,418.375 Z" id="Path" fill="#6EA5C9"></path>
                    <polygon id="Path" fill="#4F7F9D" points="114.0066 249.979 54.3887 215.463 40.7915 243.703"></polygon>
                    <polygon id="Path" fill="#4F7F9D" points="94.5866 253.422 37.767 260.1 46.7953 277.752 94.5866 266.455"></polygon>
                    <path d="M105.1246,97.386 C108.3606,51.368 146.9056,15.689 193.0376,15.689 C202.2466,15.689 210.6966,20.947 214.7226,29.229 L244.7496,90.997 C244.7496,90.997 222.7846,212.325 222.7846,271.944 C222.7846,322.106 212.4186,443.349 209.1296,480.551 C208.5996,486.551 203.1156,490.824 197.1606,489.915 L93.9566,474.172 C88.6956,473.37 84.8766,468.746 85.0816,463.428 L92.0426,283.449 L105.1246,97.386 Z" id="Path" fill="#5991B6"></path>
                    <path d="M231.726538,91.2237745 L245.224662,92.8622255 C226.349472,248.362538 212.091763,423.322692 211.808497,479.466193 L211.8042,481.131 L198.207,481.131 C198.207,426.743887 212.313731,252.329288 231.154177,95.9566738 L231.726538,91.2237745 Z" id="Path" fill="#5383A2"></path>
                    <path d="M116.3526,223.855 L118.8036,167.713 L197.6276,160.738 C192.2326,185.502 190.6886,220.851 189.9176,238.525 C130.9906,264.077 136.5206,255.985 116.3526,223.855 Z" id="Path" fill="#5383A2"></path>
                    <polygon id="Path" fill="#6EA5C9" points="195.2096 160.868 114.9846 150.037 108.8396 172.801 140.3506 198.256 184.8716 181.355"></polygon>
                    <path d="M206.5456,495.163 L88.3546,482.671 C85.6946,482.39 83.6746,480.146 83.6746,477.471 L83.6746,459.166 L212.3256,472.584 L212.3256,489.962 C212.3256,493.068 209.6346,495.489 206.5456,495.163 Z" id="Path" fill="#5383A2"></path>
                    <polygon id="Path" fill="#5383A3" points="244.7496 96.226 204.4806 -2.84217094e-13 160.5516 13.074 165.2576 120.283"></polygon>
                    <path d="M295.9996,149.308 L382.8126,329.471 C382.8126,329.471 459.1666,287.634 488.4526,260.439 C488.4526,260.439 476.4006,191.408 459.1666,128.389 C447.8096,86.865 418.2686,55.673 399.4386,39.226 C388.9136,30.034 375.7376,24.816 362.0066,22.228 L314.8266,13.336 L295.9996,149.308 Z" id="Path" fill="#5788A8"></path>
                    <path d="M488.3426,259.643 C486.2676,242.827 469.4866,231.982 453.3026,236.997 L411.2066,250.043 C397.4786,254.298 388.3966,267.334 389.1616,281.685 L389.3766,285.732 C389.4606,287.304 389.6626,288.867 389.9806,290.409 L412.4516,399.21 C414.3966,408.628 422.5116,415.507 432.1206,415.882 L483.3946,417.885 C496.2836,418.389 506.5526,407.222 504.9726,394.421 L488.3426,259.643 Z" id="Path" fill="#5788A8"></path>
                    <path d="M503.0956,418.377 L508.3256,373.401 C474.8556,367.544 428.8336,375.842 410.0076,380.723 L415.2366,418.377 C415.2366,418.377 442.4316,421.514 459.1666,421.514 C475.9016,421.514 503.0956,418.377 503.0956,418.377 Z" id="Path" fill="#6EA5C9"></path>
                    <polygon id="Path" fill="#4F7F9D" points="392.2266 235.336 451.8446 200.82 465.4416 229.061"></polygon>
                    <polygon id="Path" fill="#4F7F9D" points="411.6476 238.779 468.4666 245.458 459.4386 263.109 411.6476 251.813"></polygon>
                    <path d="M394.7376,89.09 C390.3366,47.363 355.1476,15.689 313.1886,15.689 C304.5936,15.689 296.7526,20.596 292.9946,28.326 L262.5296,90.997 C262.5296,90.997 284.4946,212.325 284.4946,271.944 C284.4946,322.106 294.8606,443.349 298.1496,480.551 C298.6796,486.551 304.1636,490.824 310.1186,489.915 L413.3226,474.172 C418.5836,473.37 422.4026,468.746 422.1976,463.428 L415.2366,283.449 L394.7376,89.09 Z" id="Path" fill="#5991B6"></path>
                    <path d="M275.552657,91.2237378 C294.488109,247.213417 308.78387,422.643905 309.067892,479.446173 L309.0722,481.131 L295.475,481.131 C295.475,427.3974 281.406372,253.455113 262.625105,97.5800754 L262.054543,92.8622622 L275.552657,91.2237378 Z" id="Path" fill="#5383A2"></path>
                    <path d="M390.9276,223.855 L388.4756,167.713 L309.6516,160.738 C315.0466,185.502 316.5906,220.851 317.3616,238.525 C376.2886,264.077 370.7586,255.985 390.9276,223.855 Z" id="Path" fill="#5383A2"></path>
                    <polygon id="Path" fill="#6EA5C9" points="312.0696 160.868 392.2946 150.037 398.4396 172.801 366.9286 198.256 322.4076 181.355"></polygon>
                    <path d="M300.7336,495.163 L418.9246,482.671 C421.5846,482.39 423.6046,480.146 423.6046,477.471 L423.6046,459.166 L294.9536,472.584 L294.9536,489.962 C294.9536,493.068 297.6446,495.489 300.7336,495.163 Z" id="Path" fill="#5383A2"></path>
                    <polygon id="Path" fill="#5383A3" points="263.5756 96.226 299.6606 -2.84217094e-13 346.7276 13.074 342.0216 120.283"></polygon>
                </g>
                <g id="hand" transform="translate(58.000200, 0.000000)" fill-rule="nonzero">
                    <rect id="Rectangle" fill="#EBBAAA" x="155.9998" y="410" width="78" height="96" rx="37.911"></rect>
                    <path d="M338.2668,353.533 C370.9988,353.533 397.5328,326.999 397.5328,294.267 C397.5328,261.535 370.9988,235 338.2668,235 C305.5348,235 278.9998,261.535 278.9998,294.267 C278.9998,326.999 305.5348,353.533 338.2668,353.533 Z" id="Path" fill="#EBBAAA"></path>
                    <path d="M59.2668,356.533 C26.5348,356.533 -4.68958206e-13,329.999 -4.68958206e-13,297.267 C-4.68958206e-13,264.535 26.5348,238 59.2668,238 C91.9988,238 118.5328,264.535 118.5328,297.267 C118.5328,329.999 91.9988,356.533 59.2668,356.533 Z" id="Path" fill="#EBBAAA"></path>
                    <path d="M32.9998,190.151 C32.9998,102.807 103.8068,32 191.1518,32 C280.6898,32 352.3708,106.264 349.2038,195.746 L344.1298,339.091 C341.2678,419.938 274.8978,484 193.9998,484 C118.0398,484 53.9868,427.393 44.6468,352.009 L32.9998,258 L32.9998,190.151 Z" id="Path" fill="#F4D4C9"></path>
                    <path d="M225.08446,376.873612 C229.020255,375.263514 233.51609,377.148864 235.126188,381.08466 C236.736286,385.020455 234.850936,389.51629 230.91514,391.126388 C205.969447,401.331444 182.849363,401.613396 163.260519,390.730705 C159.543254,388.665557 158.203947,383.977985 160.269095,380.260719 C162.334243,376.543454 167.021815,375.204147 170.739081,377.269295 C185.839974,385.65868 204.155851,385.435316 225.08446,376.873612 Z" id="Path" fill="#C99584"></path>
                    <g id="Group-2" transform="translate(21.075800, 0.000000)" fill="#272727">
                        <path d="M179.335,97.0005 C103.133,97.0005 38.353,116.896 34.314,172.432 C28.296,255.164 13.908,261.819 3,223.452 C1.337,217.605 0.237,164.564 -2.4158453e-13,158.5 C4.317,40.6209 131.822,12.1543 179.335,12.1543 C218.276,43.8407 255.546,97.0005 179.335,97.0005 Z" id="Path"></path>
                        <path d="M10.286,172.259 C10.023,164.193 15.171,157.484 21.614,157.484 C28.299,157.484 33.532,164.681 32.9,173.01 L22.225,314.125 C22.046,316.485 20.466,318.277 18.582,318.277 C16.613,318.277 15.002,316.34 14.918,313.888 L10.286,172.259 Z" id="Path"></path>
                        <path d="M331.79,171.598 C332.054,163.894 326.905,157.486 320.462,157.486 C313.777,157.486 308.544,164.36 309.176,172.315 L319.851,307.099 C320.03,309.352 321.61,311.064 323.494,311.064 C325.463,311.064 327.074,309.213 327.158,306.872 L331.79,171.598 Z" id="Path"></path>
                        <path d="M179.924,93 C258.447,93 305.887211,129.335493 309.124211,185.901493 C313.9875,258 326.602765,280.2895 336,159.5 C337,32 216.719,12 167.759,12 C127.633,43.6865 101.392,93 179.924,93 Z" id="Path"></path>
                        <polygon id="Path" points="79.689 40.5965 68.924 65.5789 172.856 58.2924 287.924 89 287.924 74.4269 279.758 69.7427 279.758 58.2924 269.365 58.2924 269.365 40.5965 256.002 40.5965 253.033 27.0643 241.155 27.0643 234.102 13.5322 221.853 17.6959 218.141 9.36842 205.521 9.36842 205.521 0 188.446 9.36842 183.992 0 176.568 9.36842 169.145 0 155.039 9.36842 146.131 0 136.48 9.36842 129.799 9.36842 122.375 17.6959 119.406 9.36842 106.785 27.0643 98.619 22.9006 87.855 43.1988"></polygon>
                        <polygon id="Path" points="112.466 123.453 99.075 89.2632 81.924 46 265.924 56 217.539 132 207.238 112.463 195.906 123.453 181.485 102.695 172.213 123.453 156.762 112.463 137.189 123.453 131.009 112.463"></polygon>
                    </g>
                    <path d="M257.5728,253.916 C264.098257,253.916 269.407193,259.124544 269.569,265.611025 L269.5728,265.916 L269.5728,294.663 C269.5728,301.290417 264.200217,306.663 257.5728,306.663 C251.047343,306.663 245.738407,301.454456 245.5766,294.967975 L245.5728,294.663 L245.5728,265.916 C245.5728,259.288583 250.945383,253.916 257.5728,253.916 Z" id="Path" fill="#000000"></path>
                    <path d="M128.6528,253.916 C135.178257,253.916 140.487193,259.124544 140.649,265.611025 L140.6528,265.916 L140.6528,294.663 C140.6528,301.290417 135.280217,306.663 128.6528,306.663 C122.127343,306.663 116.818407,301.454456 116.6566,294.967975 L116.6528,294.663 L116.6528,265.916 C116.6528,259.288583 122.025383,253.916 128.6528,253.916 Z" id="Path" fill="#000000"></path>
                    <g id="Group-3" transform="translate(76.000200, 239.000400)">
                        <polygon id="Path" fill="#000000" points="135.7196 29.9996 135.7196 43.9996 98.9996 43.9996 98.9996 29.9996"></polygon>
                        <path d="M49.6536,-5 C19.4692502,-5 -5,19.4692502 -5,49.6536 C-5,79.8379498 19.4692502,104.3072 49.6536,104.3072 C79.8379498,104.3072 104.3072,79.8379498 104.3072,49.6536 C104.3072,19.4692502 79.8379498,-5 49.6536,-5 Z M49.6536,5 C74.3151023,5 94.3072,24.9920977 94.3072,49.6536 C94.3072,74.3151023 74.3151023,94.3072 49.6536,94.3072 C24.9920977,94.3072 5,74.3151023 5,49.6536 C5,24.9920977 24.9920977,5 49.6536,5 Z" id="Oval" fill="#B98E4F"></path>
                        <path d="M185.4336,-2.438 C155.24925,-2.438 130.78,22.0312502 130.78,52.2156 C130.78,82.3999498 155.24925,106.8692 185.4336,106.8692 C215.61795,106.8692 240.0872,82.3999498 240.0872,52.2156 C240.0872,22.0312502 215.61795,-2.438 185.4336,-2.438 Z M185.4336,7.562 C210.095102,7.562 230.0872,27.5540977 230.0872,52.2156 C230.0872,76.8771023 210.095102,96.8692 185.4336,96.8692 C160.772098,96.8692 140.78,76.8771023 140.78,52.2156 C140.78,27.5540977 160.772098,7.562 185.4336,7.562 Z" id="Oval" fill="#B98E4F"></path>
                    </g>
                    <path d="M293.28249,206.410103 C298.801967,206.217184 303.432779,210.535213 303.625697,216.05469 C303.815346,221.480617 299.645665,226.047747 294.26071,226.38428 L293.98111,226.397897 L236.70311,228.399897 C231.183633,228.592816 226.552821,224.274787 226.359903,218.75531 C226.170254,213.329383 230.339935,208.762253 235.72489,208.42572 L236.00449,208.412103 L293.28249,206.410103 Z" id="Path" fill="#393939"></path>
                    <path d="M93.6323904,208.123384 L150.94239,208.625384 C156.465026,208.673758 160.902791,213.189955 160.854808,218.71259 C160.806861,224.141622 156.441653,228.522247 151.047137,228.623226 L150.76721,228.624616 L93.4572096,228.122616 C87.9345739,228.074242 83.4968088,223.558045 83.5447919,218.03541 C83.5927386,212.606378 87.9579469,208.225753 93.3524627,208.124774 L93.6323904,208.123384 Z" id="Path" fill="#393939"></path>
                    <path d="M185.718869,296.808938 L200.508731,305.191062 C195.892992,313.335315 193.261396,322.041021 193.544745,327.973213 C193.753666,332.34717 194.916907,333.676029 199.041553,333.727434 L199.2978,333.729 L199.2978,350.729 C185.428363,350.729 177.190882,341.906492 176.564105,328.784287 C176.11656,319.414495 179.512393,307.971918 185.371392,297.428103 L185.718869,296.808938 Z" id="Path" fill="#EBBAAA"></path>
                </g>
            </g>
        </g>
    </g>
</svg>