<?xml version="1.0" encoding="UTF-8"?>
<svg width="436px" height="1379px" viewBox="0 0 436 1379" version="1.1" xmlns="http://www.w3.org/2000/svg" xmlns:xlink="http://www.w3.org/1999/xlink">
    <!-- Generator: Sketch 55.2 (78181) - https://sketchapp.com -->
    <title>gee_me_081</title>
    <desc>Created with Sketch.</desc>
    <defs>
        <polygon id="path-1" points="25.5 279.76 0.004 0.949 0.004 279.76"></polygon>
        <polygon id="path-3" points="43.192 295 32.343 0.703 0.88 0.703 24.206 318.57"></polygon>
        <polygon id="path-5" points="0 181.66 32.5481 0.5 68.893 7.908 37.4303 265.84"></polygon>
        <path d="M0.7314,178.03 L15.9205,0.908 L133.636,0.908 C133.998,37.948 134.504,114.18 133.636,122.8 C132.768,131.42 141.954,188.8 146.655,216.41 L125.499,216.41 L65.828,305.31 L76.134,320.12 L15.9205,407 L0.7314,178.03 Z" id="path-7"></path>
        <polygon id="path-9" points="0.792 164.56 25.203 0.908 130.442 23.806 151.598 330.23 130.442 396.9 111.455 261.53 56.666 215.74 50.157 182.07"></polygon>
        <path d="M184.328,128.728 C64.169,128.728 31.4504,200.909 30.1108,237 C4.3243,158 -0.9334,0 184.328,0 C369.589,0 363.661,158 337.54,237 C336.535,200.909 304.486,128.728 184.328,128.728 Z" id="path-11"></path>
    </defs>
    <g id="GEE!-ME" stroke="none" stroke-width="1" fill="none" fill-rule="evenodd">
        <g id="gee_me_081" transform="translate(-382.000000, -112.000000)">
            <g transform="translate(383.000000, 112.000000)">
                <g id="lower-limb" transform="translate(0.000000, 867.000000)">
                    <polygon id="Path" fill="#000000" fill-rule="nonzero" points="216.1074 0 91.1074 0 96.1074 354 106.8224 409 174.8224 409 181.1074 364"></polygon>
                    <polygon id="Path" fill="#000000" fill-rule="nonzero" points="214.1074 0 339.1074 0 334.1074 354 323.3924 409 255.3924 409 249.1074 364"></polygon>
                    <g id="Clipped" transform="translate(353.107400, 27.000000)">
                        <mask id="mask-2" fill="white">
                            <use xlink:href="#path-1"></use>
                        </mask>
                        <use id="Path" fill="#BB462F" xlink:href="#path-1"></use>
                    </g>
                    <g id="Clipped" transform="translate(325.107400, 36.000000)">
                        <mask id="mask-4" fill="white">
                            <use xlink:href="#path-3"></use>
                        </mask>
                        <use id="Path" fill="#BB462F" xlink:href="#path-3"></use>
                    </g>
                    <g id="Clipped" transform="translate(40.107400, 16.000000)">
                        <mask id="mask-6" fill="white">
                            <use xlink:href="#path-5"></use>
                        </mask>
                        <use id="Path" fill="#BB462F" xlink:href="#path-5"></use>
                    </g>
                    <g id="Clipped" transform="translate(55.107400, 23.000000)">
                        <mask id="mask-8" fill="white">
                            <use xlink:href="#path-7"></use>
                        </mask>
                        <g id="Path"></g>
                        <rect id="Rectangle" fill="#EA5E42" fill-rule="nonzero" mask="url(#mask-8)" x="-347.533" y="-55.662" width="629.263" height="585.904"></rect>
                    </g>
                    <g id="Clipped" transform="translate(209.107400, 23.000000)">
                        <mask id="mask-10" fill="white">
                            <use xlink:href="#path-9"></use>
                        </mask>
                        <g id="Path"></g>
                        <rect id="Rectangle" fill="#EA5E42" fill-rule="nonzero" mask="url(#mask-10)" x="-52" y="-6" width="543.553" height="506.436"></rect>
                    </g>
                    <g id="Group" transform="translate(0.000000, 395.000000)">
                        <path d="M119.4034,13.15 C115.7404,7.5 110.3034,7.22 105.8994,3.98 C103.7384,7.06 103.9004,11.57 101.9444,17.6 L89.2294,33.3 L67.1244,56.98 L46.0563,68.4 L58.7631,83.06 C67.2734,76.42 115.5694,25 119.4034,13.15 Z" id="Path" fill="#010101" fill-rule="nonzero"></path>
                        <path d="M194.0724,90.75 C194.0724,90.75 194.5484,65.07 188.9614,50.9 C183.3754,36.73 177.4274,0.11 177.4274,0.11 C177.4274,0.11 167.8274,10.58 149.7804,10.74 L115.7714,11.04 C115.7714,11.04 86.1613,52.37 77.4589,57.92 C68.7565,63.46 19.4636,74.22 19.4636,74.22 C10.1009,74.31 2.5769,81.96 2.65794089,91.33 L2.7339,99.95 L105.5454,99.05 L194.0724,90.75 Z" id="Path" fill="#000000" fill-rule="nonzero"></path>
                        <path d="M90.1774,71.1 C86.0265,62.8 83.637,54.76 84.4981,50.97 L64.8799,60.78 L22.0296,74.72 C22.0296,73.68 16.7637,74.41 10.1554,77.3 C3.5472,80.19 2.5833,87.8 2.9275,91.24 L98.4374,94.85 L109.7954,94.34 C104.1164,91.75 95.8564,82.46 90.1774,71.1 Z" id="Path" fill="#1C1622" fill-rule="nonzero"></path>
                        <path d="M151.6124,52 C139.6354,54.89 114.6144,41.85 103.6014,34.97 L115.6084,11 C127.1384,11 151.6744,10.74 159.1084,9.5 C166.5424,8.26 174.6824,2.58 177.6074,-1.13686838e-13 L180.5234,16.38 L184.6534,36.51 C178.6304,40.47 163.5904,49.11 151.6124,52 Z" id="Path" fill="#000000" fill-rule="nonzero"></path>
                        <path d="M104.6094,33.42 C107.1554,29.44 112.3474,20.85 112.7384,18.37 C136.5214,22.3 168.5244,21.5 180.3534,16.23 C183.5314,25.5 185.1604,38.06 185.1604,38.06 C183.1314,42.21 160.3664,50.38 151.6034,52 C146.9254,48.43 143.4534,47.53 139.8214,45.5 C134.1234,42.31 115.1114,34.01 104.6094,33.42 Z" id="Path" fill="#2C407F" fill-rule="nonzero"></path>
                        <path d="M155.8474,70.07 C159.5494,67.95 180.5254,58.72 190.2204,54.73 C194.9044,58.08 194.3154,78.26 194.4164,89.89 L147.9004,92.41 C150.4684,83.58 154.6144,71.3 155.8474,70.07 Z" id="Path" fill="#192D6A" fill-rule="nonzero"></path>
                        <path d="M133.3304,68.45 C128.4804,69.76 124.5824,69.55 122.3894,67.83 C116.7404,63.33 120.4474,56.57 122.0174,53.91 C119.2054,57.15 116.4104,60.4 114.2194,63.95 C110.7654,69.5 109.2644,75.6 111.5234,79.53 C115.5714,86.63 125.4924,83.44 131.8224,80.64 L190.5644,54.67 L133.3304,68.45 Z" id="Path" fill="#2C407F" fill-rule="nonzero"></path>
                        <path d="M45.6183,77.3 C32.7254,78.96 16.2099,79.62 13.0764,75.52 L34.1885,69.14 L61.9714,58.05 L69.2304,61.61 L68.2249,64.71 C68.2249,64.71 76.7555,74.21 76.2392,78.33 C75.7229,82.46 71.3738,84.53 66.4301,82.98 C61.4864,81.43 58.7264,75.61 45.6183,77.3 Z" id="Path" fill="#2C407F" fill-rule="nonzero"></path>
                        <path d="M110.8274,29.8 C105.4584,37.24 91.0374,52.52 84.4977,59.23 L82.4326,52 C86.5627,47.36 93.4294,37.7 99.1084,31.5 C105.0494,25.02 110.9994,17.76 115.4734,11.22 L121.1524,11.22 C120.2924,15 116.1964,22.37 110.8274,29.8 Z" id="Path" fill="#1C1622" fill-rule="nonzero"></path>
                        <path d="M108.031938,18.6792039 L102.543938,16.5392039 C100.908735,15.9015703 99.0662376,16.7102597 98.4286039,18.3454622 C97.7909703,19.9806647 98.5996597,21.8231624 100.234862,22.4607961 L105.722862,24.6007961 C107.358065,25.2384297 109.200562,24.4297403 109.838196,22.7945378 C110.47583,21.1593353 109.66714,19.3168376 108.031938,18.6792039 Z" id="Path" fill="#2B2A2A" fill-rule="nonzero"></path>
                        <path d="M99.8519378,28.0492039 L94.3639378,25.9092039 C92.7287353,25.2715703 90.8862376,26.0802597 90.2486039,27.7154622 C89.6109703,29.3506647 90.4196597,31.1931624 92.0548622,31.8307961 L97.5428622,33.9707961 C99.1780647,34.6084297 101.020562,33.7997403 101.658196,32.1645378 C102.29583,30.5293353 101.48714,28.6868376 99.8519378,28.0492039 Z" id="Path" fill="#2B2A2A" fill-rule="nonzero"></path>
                        <path d="M92.7059378,37.3992039 L87.2179378,35.2592039 C85.5827353,34.6215703 83.7402376,35.4302597 83.1026039,37.0654622 C82.4649703,38.7006647 83.2736597,40.5431624 84.9088622,41.1807961 L90.3968622,43.3207961 C92.0320647,43.9584297 93.8745624,43.1497403 94.5121961,41.5145378 C95.1498297,39.8793353 94.3411403,38.0368376 92.7059378,37.3992039 Z" id="Path" fill="#2B2A2A" fill-rule="nonzero"></path>
                        <path d="M84.5281561,46.7692111 L79.0402561,44.6292111 C77.4050575,43.9915673 75.5625548,44.8002453 74.9249111,46.4354439 C74.2872673,48.0706425 75.0959453,49.9131452 76.7311439,50.5507889 L82.2190439,52.6907889 C83.8542425,53.3284327 85.6967452,52.5197547 86.3343889,50.8845561 C86.9720327,49.2493575 86.1633547,47.4068548 84.5281561,46.7692111 Z" id="Path" fill="#2B2A2A" fill-rule="nonzero"></path>
                        <path d="M72.2185561,56.1692111 L66.7306561,54.0292111 C65.0954575,53.3915673 63.2529548,54.2002453 62.6153111,55.8354439 C61.9776673,57.4706425 62.7863453,59.3131452 64.4215439,59.9507889 L69.9094439,62.0907889 C71.5446425,62.7284327 73.3871452,61.9197547 74.0247889,60.2845561 C74.6624327,58.6493575 73.8537547,56.8068548 72.2185561,56.1692111 Z" id="Path" fill="#2B2A2A" fill-rule="nonzero"></path>
                        <path d="M195.3164,89.67 L98.5584,94.89 L2.2714,91.36 L0.8383,104.18 C0.4245,107.88 3.2699,111.15 6.9945,111.24 L96.7134,113.5 L146.6664,113.61 L196.6004,111.54 L195.3164,89.67 Z" id="Path" fill="#E7E5DD" fill-rule="nonzero"></path>
                        <path d="M196.1484,110.58 C180.7674,111.23 142.1304,113.11 125.2824,113.26 C113.1934,113.37 10.352,111.73 -9.9475983e-14,108.72" id="Path" stroke="#536E83" stroke-width="6"></path>
                        <path d="M158.8434,36.52 C152.2354,36.1 148.8624,33.25 148.0014,31.87 C147.3134,35.48 148.5184,42.81 158.8434,43.23 C169.1684,43.64 172.0944,35.83 172.2664,31.87 C170.5454,33.59 165.4514,36.93 158.8434,36.52 Z" id="Path" fill="#000000" fill-rule="nonzero"></path>
                        <path d="M152.1314,31.35 C151.7184,34.24 152.9914,37.03 153.6804,38.06 C159.8754,42.71 166.5874,38.06 166.5874,33.42 C166.5874,28.77 163.4894,27.74 160.3914,27.74 C157.2944,27.74 152.6474,27.74 152.1314,31.35 Z" id="Path" fill="#000000" fill-rule="nonzero"></path>
                    </g>
                    <g id="Group-2" transform="translate(236.113400, 396.500000)">
                        <path d="M75.198,12.27 C78.749,6.58 84.161,6.2 88.491,2.89 C90.698,5.93 90.615,10.42 92.668,16.4 L105.609,31.81 L128.043,55.02 L149.23,66.04 L136.826,80.86 C128.232,74.39 79.224,24 75.198,12.27 Z" id="Path" fill="#010101" fill-rule="nonzero"></path>
                        <path d="M2.156,90.87 C2.156,90.87 1.235,65.3 6.554,51.08 C11.873,36.87 17.162,0.28 17.162,0.28 C17.162,0.28 26.908,10.55 44.89,10.39 L78.776,10.1 C78.776,10.1 108.994,50.77 117.76,56.14 C126.527,61.51 175.822,71.38 175.822,71.38 C185.151,71.29 192.779,78.79 192.861,88.12 L192.936,96.71 L90.495,97.61 L2.156,90.87 Z" id="Path" fill="#010101" fill-rule="nonzero"></path>
                        <path d="M105.322,69.5 C109.313,61.15 111.553,53.09 110.629,49.34 L130.345,58.77 L173.276,71.91 C173.258,70.88 178.517,71.51 185.151,74.28 C191.785,77.04 192.877,84.6 192.594,88.04 L97.506,93.3 L86.181,92.98 C91.794,90.31 99.862,80.91 105.322,69.5 Z" id="Path" fill="#1C1622" fill-rule="nonzero"></path>
                        <path d="M43.786,51.53 C55.768,54.21 80.468,40.78 91.32,33.73 L78.994,10 C67.507,10.2 42.922,10.1 35.494,9 C28.066,7.89 19.953,2.52 16.994,1.10134124e-13 L14.363,16.55 L10.599,36.68 C16.668,40.52 31.803,48.86 43.786,51.53 Z" id="Path" fill="#000000" fill-rule="nonzero"></path>
                        <path d="M90.289,32.2 C87.683,28.28 82.362,19.82 81.929,17.35 C58.303,21.67 26.406,21.44 14.531,16.4 C11.525,25.68 10.12,38.23 10.12,38.23 C12.214,42.33 35.036,50.07 43.794,51.53 C48.392,47.89 51.836,46.94 55.419,44.85 C61.04,41.57 79.836,32.98 90.289,32.2 Z" id="Path" fill="#2C407F" fill-rule="nonzero"></path>
                        <path d="M39.878,69.61 C36.153,67.56 15.095,58.72 5.367,54.93 C0.76,58.34 1.697,78.43 1.799,90.02 L48.184,91.73 C45.472,82.97 41.128,70.81 39.878,69.61 Z" id="Path" fill="#192D6A" fill-rule="nonzero"></path>
                        <path d="M62.284,67.6 C67.139,68.82 71.018,68.55 73.173,66.79 C78.723,62.22 74.912,55.54 73.302,52.92 C76.16,56.1 79.001,59.29 81.245,62.79 C84.783,68.25 86.384,74.31 84.202,78.26 C80.292,85.41 70.354,82.4 63.999,79.72 L5.026,54.87 L62.284,67.6 Z" id="Path" fill="#2C407F" fill-rule="nonzero"></path>
                        <path d="M149.822,74.89 C162.695,76.32 179.16,76.7 182.21,72.55 L161.067,66.56 L133.195,56 L126.025,59.67 L127.081,62.75 C127.081,62.75 118.748,72.35 119.334,76.46 C119.92,80.56 124.289,82.54 129.187,80.91 C134.085,79.29 136.733,73.44 149.822,74.89 Z" id="Path" fill="#2C407F" fill-rule="nonzero"></path>
                        <path d="M84.03,28.71 C89.508,36.02 104.141,51 110.773,57.57 L112.704,50.33 C108.509,45.77 102.87,37.07 97.104,31 C91.073,24.65 83.649,16.71 79.078,10.27 L73.42,10.37 C74.343,14.13 78.552,21.4 84.03,28.71 Z" id="Path" fill="#1C1622" fill-rule="nonzero"></path>
                        <path d="M89.0302747,23.4496868 L94.4602747,21.2196868 C96.0838189,20.5529274 96.8594462,18.6962695 96.1926868,17.0727253 C95.5259274,15.4491811 93.6692695,14.6735538 92.0457253,15.3403132 L86.6157253,17.5703132 C84.9921811,18.2370726 84.2165538,20.0937305 84.8833132,21.7172747 C85.5500726,23.3408189 87.4067305,24.1164462 89.0302747,23.4496868 Z" id="Path" fill="#2B2A2A" fill-rule="nonzero"></path>
                        <path d="M97.3412747,32.6396868 L102.771275,30.4096868 C104.394819,29.7429274 105.170446,27.8862695 104.503687,26.2627253 C103.836927,24.6391811 101.98027,23.8635538 100.356725,24.5303132 L94.9267253,26.7603132 C93.3031811,27.4270726 92.5275538,29.2837305 93.1943132,30.9072747 C93.8610726,32.5308189 95.7177305,33.3064462 97.3412747,32.6396868 Z" id="Path" fill="#2B2A2A" fill-rule="nonzero"></path>
                        <path d="M104.621638,41.8315869 L110.051638,39.6115869 C111.676231,38.9473884 112.454785,37.0919558 111.790587,35.4673623 C111.126388,33.8427687 109.270956,33.0642146 107.646362,33.7284131 L102.216362,35.9484131 C100.591769,36.6126116 99.8132146,38.4680442 100.477413,40.0926377 C101.141612,41.7172313 102.997044,42.4957854 104.621638,41.8315869 Z" id="Path" fill="#2B2A2A" fill-rule="nonzero"></path>
                        <path d="M112.936275,51.0196868 L118.366275,48.7896868 C119.989819,48.1229274 120.765446,46.2662695 120.098687,44.6427253 C119.431927,43.0191811 117.57527,42.2435538 115.951725,42.9103132 L110.521725,45.1403132 C108.898181,45.8070726 108.122554,47.6637305 108.789313,49.2872747 C109.456073,50.9108189 111.31273,51.6864462 112.936275,51.0196868 Z" id="Path" fill="#2B2A2A" fill-rule="nonzero"></path>
                        <path d="M125.358638,60.1715869 L130.788638,57.9515869 C132.413231,57.2873884 133.191785,55.4319558 132.527587,53.8073623 C131.863388,52.1827687 130.007956,51.4042146 128.383362,52.0684131 L122.953362,54.2884131 C121.328769,54.9526116 120.550215,56.8080442 121.214413,58.4326377 C121.878612,60.0572313 123.734044,60.8357854 125.358638,60.1715869 Z" id="Path" fill="#2B2A2A" fill-rule="nonzero"></path>
                        <path d="M0.9,89.82 L97.385,93.34 L193.249,88.14 L194.896,100.87 C195.375,104.56 192.587,107.88 188.864,108.03 L99.547,111.85 L49.783,112.83 L4.26325641e-14,111.63 L0.9,89.82 Z" id="Path" fill="#E7E5DD" fill-rule="nonzero"></path>
                        <path d="M0.434,110.66 C15.769,111.04 54.293,112.25 71.081,112.1 C83.126,112 185.553,108.58 195.814,105.4" id="Path" stroke="#536E83" stroke-width="6"></path>
                        <path d="M36.311,36.23 C42.887,35.7 46.198,32.8 47.031,31.41 C47.78,35 46.707,42.33 36.427,42.92 C26.148,43.51 23.098,35.78 22.857,31.83 C24.602,33.52 29.734,36.76 36.311,36.23 Z" id="Path" fill="#000000" fill-rule="nonzero"></path>
                        <path d="M42.909,30.97 C43.371,33.84 42.151,36.64 41.483,37.68 C35.392,42.42 28.625,37.91 28.544,33.28 C28.463,28.65 31.531,27.57 34.617,27.51 C37.703,27.46 42.332,27.38 42.909,30.97 Z" id="Path" fill="#000000" fill-rule="nonzero"></path>
                    </g>
                </g>
                <path d="M72.6074,303.5 C80.6074,294.5 84.4407,266.333 83.6074,243 L359.1074,243 C353.6074,259.667 358.9074,295.9 372.1074,313.5 C388.6074,335.5 410.6074,343 410.6074,343 C410.6074,343 380.1074,390 326.1074,382.5 C265.7744,381.167 138.4074,379.3 111.6074,382.5 C84.8074,385.7 51.7741,353.5 38.6074,337 C45.1074,335.667 63.4633,313.787 72.6074,303.5 Z" id="Path" fill="#A23A26" fill-rule="nonzero"></path>
                <g id="upper-limb" transform="translate(4.432272, 407.000123)" fill-rule="nonzero">
                    <path d="M45.2339285,89.4178774 C69.4147285,35.1108774 108.935128,39.2088774 125.727128,41.2658774 L105.675128,303.999877 L2.67482847,303.999877 C-4.32527153,254.999877 5.98322847,186.220877 7.55042847,179.999877 C12.8241285,159.067877 26.5929285,131.282877 45.2339285,89.4178774 Z" id="Path" fill="#19171D"></path>
                    <path d="M380.169128,92.1618774 C355.988128,37.8548774 316.468128,41.9528774 299.675128,44.0108774 L319.727128,306.743877 L425.175128,286.499877 C438.675128,244.999877 419.419128,188.964877 417.852128,182.743877 C412.578128,161.811877 398.810128,134.026877 380.169128,92.1618774 Z" id="Path" fill="#19171D"></path>
                    <path d="M93.8451285,74.5638774 C98.0021285,44.3258774 123.364128,22.1498774 153.897128,21.8118774 L222.877128,21.0478774 L286.434128,27.7438774 C315.493128,30.8058774 339.070128,53.3778774 342.897128,82.4328774 C351.236128,145.753877 364.182128,256.514877 364.182128,333.945877 C364.182128,448.169877 382.343128,459.094877 354.224128,474.060877 C326.105128,489.027877 101.138128,486.920877 70.4235285,463.717877 C39.7086285,440.513877 58.8061285,416.340877 58.8061285,368.962877 C58.8061285,334.059877 81.7584285,162.491877 93.8451285,74.5638774 Z" id="Path" fill="#000000"></path>
                    <path d="M149.675128,154.730877 C149.675128,150.556877 150.196128,147.610877 151.237128,145.891877 L171.159128,145.891877 C172.201128,148.346877 172.722128,150.310877 172.722128,151.783877 L172.722128,156.203877 L171.550128,162.095877 C167.383128,162.095877 165.300128,170.442877 165.300128,187.137877 L165.300128,332.969877 C165.300128,339.352877 165.560128,344.754877 166.081128,349.173877 C167.644128,356.047877 171.290128,359.484877 177.019128,359.484877 C181.771128,359.484877 185.417128,351.137877 187.956128,334.442877 C189.844128,316.765877 191.667128,307.927877 193.425128,307.927877 L194.206128,307.927877 C194.727128,308.418877 195.248128,310.873877 195.769128,315.292877 C193.230128,358.502877 191.277128,380.107877 189.909128,380.107877 L151.237128,380.107877 C150.717128,379.616877 150.196128,377.161877 149.675128,372.742877 C149.675128,371.268877 149.935128,368.813877 150.456128,365.376877 C154.883128,363.412877 157.097128,356.538877 157.097128,344.754877 L157.097128,179.771877 C157.097128,174.616877 156.706128,170.197877 155.925128,166.514877 C151.758128,163.322877 149.675128,159.394877 149.675128,154.730877 Z" id="Path" fill="#FFFFFF"></path>
                    <path d="M198.601128,275.520877 L198.601128,249.005877 C198.601128,240.412877 198.731128,234.029877 198.991128,229.855877 C202.702128,169.951877 209.083128,139.999877 218.132128,139.999877 L223.210128,139.999877 C225.228128,139.999877 227.051128,141.472877 228.679128,144.418877 C238.314128,168.724877 243.132128,207.514877 243.132128,260.789877 L243.132128,266.682877 C243.132128,272.819877 243.067128,278.712877 242.937128,284.358877 C242.807128,289.759877 242.611128,295.161877 242.351128,300.562877 C238.770128,357.520877 232.129128,385.999877 222.429128,385.999877 L218.523128,385.999877 C214.942128,385.999877 211.557128,381.089877 208.366128,371.268877 C201.856128,345.736877 198.601128,313.819877 198.601128,275.520877 Z M208.757128,262.262877 L208.757128,268.155877 C210.450128,331.987877 214.226128,363.903877 220.085128,363.903877 L222.820128,363.903877 C229.330128,345.490877 232.585128,312.592877 232.585128,265.209877 L232.585128,254.897877 C231.153128,192.047877 227.507128,160.622877 221.648128,160.622877 L220.085128,160.622877 C218.458128,160.622877 216.765128,163.568877 215.007128,169.460877 C210.840128,194.256877 208.757128,225.191877 208.757128,262.262877 Z" id="Shape" fill="#FFFFFF"></path>
                    <path d="M248.210128,145.891877 L264.616128,145.891877 C265.137128,146.382877 265.658128,148.837877 266.179128,153.256877 C266.179128,154.484877 266.049128,155.957877 265.788128,157.676877 C263.054128,164.059877 261.622128,168.969877 261.491128,172.406877 C261.491128,175.843877 264.486128,216.598877 270.476128,294.670877 L271.257128,294.670877 C271.973128,294.670877 275.098128,254.406877 280.632128,173.879877 L280.632128,170.933877 L277.116128,154.730877 C277.116128,150.556877 277.637128,147.610877 278.679128,145.891877 L291.960128,145.891877 C293.002128,148.346877 293.523128,150.310877 293.523128,151.783877 L293.523128,156.203877 C293.327128,159.149877 291.635128,162.586877 288.445128,166.514877 L277.116128,304.981877 C273.926128,355.065877 271.713128,380.107877 270.476128,380.107877 L269.304128,380.107877 L268.523128,378.634877 C263.575128,317.256877 259.668128,269.505877 256.804128,235.379877 C253.939128,201.253877 252.116128,180.262877 251.335128,172.406877 C248.210128,162.340877 246.648128,156.448877 246.648128,154.730877 C246.648128,150.556877 247.168128,147.610877 248.210128,145.891877 Z" id="Path" fill="#FFFFFF"></path>
                    <path d="M299.284128,363.903877 C302.409128,360.712877 303.972128,351.873877 303.972128,337.388877 L303.972128,187.137877 C303.972128,179.035877 303.581128,172.652877 302.800128,167.987877 C298.894128,162.340877 296.941128,157.430877 296.941128,153.256877 C297.461128,148.837877 297.982128,146.382877 298.503128,145.891877 L335.222128,145.891877 C336.719128,145.891877 337.631128,164.550877 337.956128,201.867877 C337.566128,206.777877 336.784128,209.233877 335.613128,209.233877 C333.790128,209.233877 332.357128,201.376877 331.316128,185.664877 C330.144128,172.897877 327.670128,166.514877 323.894128,166.514877 L316.081128,166.514877 C313.477128,166.514877 312.175128,171.424877 312.175128,181.245877 L312.175128,232.801877 C312.175128,241.640877 313.086128,246.059877 314.909128,246.059877 L324.284128,246.059877 C325.131128,246.059877 326.042128,244.586877 327.019128,241.640877 C328.711128,221.999877 329.883128,212.179877 330.534128,212.179877 L331.316128,212.179877 C332.878128,212.179877 333.659128,215.125877 333.659128,221.017877 L333.659128,294.670877 C333.008128,298.598877 332.487128,300.562877 332.097128,300.562877 L330.534128,300.562877 C329.688128,299.334877 328.907128,294.915877 328.191128,287.304877 C328.191128,274.538877 326.107128,268.155877 321.941128,268.155877 L316.081128,268.155877 C313.477128,268.155877 312.175128,273.065877 312.175128,282.885877 L312.175128,334.442877 C312.175128,351.137877 314.128128,359.484877 318.034128,359.484877 C324.675128,359.484877 329.623128,356.047877 332.878128,349.173877 C336.068128,324.622877 337.891128,312.346877 338.347128,312.346877 L340.300128,312.346877 C341.342128,314.065877 341.863128,317.011877 341.863128,321.185877 C341.863128,323.885877 341.211128,335.670877 339.909128,356.538877 C339.454128,372.250877 338.152128,380.107877 336.003128,380.107877 L298.503128,380.107877 C297.982128,379.616877 297.461128,377.161877 296.941128,372.742877 C296.941128,367.586877 297.722128,364.640877 299.284128,363.903877 Z" id="Path" fill="#FFFFFF"></path>
                    <path d="M96.2371285,143.770877 L112.644128,143.770877 C113.165128,144.262877 113.685128,146.717877 114.206128,151.136877 C114.206128,152.363877 114.076128,153.836877 113.816128,155.555877 C111.081128,161.938877 109.649128,166.848877 109.519128,170.285877 C109.519128,173.723877 112.514128,214.477877 118.503128,292.549877 L119.284128,292.549877 C120.001128,292.549877 123.126128,252.285877 128.659128,171.759877 L128.659128,168.812877 L125.144128,152.609877 C125.144128,148.435877 125.665128,145.489877 126.706128,143.770877 L139.987128,143.770877 C141.029128,146.226877 141.550128,148.190877 141.550128,149.663877 L141.550128,154.082877 C141.355128,157.028877 139.662128,160.465877 136.472128,164.393877 L125.144128,302.860877 C121.954128,352.944877 119.740128,377.986877 118.503128,377.986877 L117.331128,377.986877 L116.550128,376.513877 C111.602128,315.136877 107.696128,267.384877 104.831128,233.259877 C101.967128,199.133877 100.144128,178.142877 99.3631285,170.285877 C96.2371285,160.220877 94.6751285,154.327877 94.6751285,152.609877 C94.6751285,148.435877 95.1961285,145.489877 96.2371285,143.770877 Z" id="Path" fill="#DA4B2A"></path>
                    <path d="M60.0411285,492.818877 L66.8575285,451.720877 C67.6835285,446.739877 72.0922285,443.156877 77.1363285,443.365877 L346.589128,454.518877 C351.946128,454.740877 356.175128,459.148877 356.175128,464.510877 L356.175128,503.660877 C356.175128,509.314877 351.492128,513.843877 345.842128,513.655877 L69.5733285,504.449877 C63.5348285,504.248877 59.0525285,498.779877 60.0411285,492.818877 Z" id="Path" fill="#000000"></path>
                    <path d="M201.175128,109.999877 C168.592128,103.669877 74.2161285,46.2758774 110.872128,10.6698774 C134.292128,-19.0031226 171.966128,20.5608774 177.057128,40.3418774 C181.130128,56.1678774 203.047128,75.9498774 210.175128,86.4998774 C218.321128,94.0828774 233.758128,116.329877 201.175128,109.999877 Z" id="Path" fill="#19171D"></path>
                    <path d="M235.175128,108.499877 C267.758128,102.169877 356.885128,46.2758774 320.228128,10.6698774 C296.809128,-19.0031226 259.135128,20.5608774 254.044128,40.3418774 C249.971128,56.1678774 234.303128,77.9498774 227.175128,88.4998774 C219.029128,96.0828774 202.591128,114.829877 235.175128,108.499877 Z" id="Path" fill="#19171D"></path>
                    <circle id="Oval" fill="#C4C4C4" cx="173.675128" cy="81.9998774" r="11"></circle>
                    <circle id="Oval" fill="#C4C4C4" cx="261.675128" cy="81.9998774" r="11"></circle>
                    <path d="M165.675128,83.9998774 L165.675128,193.999877 C165.675128,197.865871 168.809135,200.999877 172.675128,200.999877 C176.541122,200.999877 179.675128,197.865871 179.675128,193.999877 L179.675128,83.9998774 C179.675128,80.1338841 176.541122,76.9998774 172.675128,76.9998774 C168.809135,76.9998774 165.675128,80.1338841 165.675128,83.9998774 Z" id="Path" fill="#3A3838"></path>
                    <path d="M254.675128,83.9998774 L254.675128,171.999877 C254.675128,175.865871 257.809135,178.999877 261.675128,178.999877 C265.541122,178.999877 268.675128,175.865871 268.675128,171.999877 L268.675128,83.9998774 C268.675128,80.1338841 265.541122,76.9998774 261.675128,76.9998774 C257.809135,76.9998774 254.675128,80.1338841 254.675128,83.9998774 Z" id="Path" fill="#3A3838"></path>
                    <path d="M331.033408,340.145577 L329.359241,340.810183 L327.453196,341.552491 L314.516196,346.370912 C302.968754,350.693643 286.827285,356.793511 279.196813,359.936977 L278.453342,360.245166 C258.162688,368.71336 241.414757,377.499278 226.54998,388.199113 C207.89412,401.627814 193.141473,417.553731 182.777967,436.74541 C174.905442,451.32416 180.341911,469.524514 194.920661,477.397039 C209.353624,485.190839 227.33612,479.940493 235.33303,465.68896 L235.57229,465.254345 C246.480538,445.053886 266.975763,430.177704 300.54111,416.044501 L302.224973,415.341897 L304.092452,414.583932 C316.951897,409.42304 348.551782,397.728025 349.352922,397.416558 C350.72005,396.885046 352.037755,396.365816 353.316849,395.854178 C368.700354,389.700776 376.182831,372.241663 370.029429,356.858157 C363.876027,341.474652 346.416914,333.992174 331.033408,340.145577 Z" id="Path" fill="#CDA497"></path>
                    <path d="M78.7736693,384.840255 L107.046836,398.363392 L112.190295,400.846762 L117.608826,403.478978 C125.138365,407.149452 132.071775,410.585571 138.758502,413.969201 L141.579919,415.401403 C149.97183,419.674969 157.714059,423.742447 164.844084,427.637689 L167.469461,429.079586 L169.676063,430.304084 C188.352354,440.71903 201.812079,449.545992 208.424633,455.693656 L208.908373,456.150325 C220.865585,467.619487 239.856413,467.223845 251.325576,455.266633 C262.794738,443.309421 262.399096,424.318593 250.441884,412.84943 C238.75197,401.636656 220.311759,389.637176 194.896378,375.68735 L192.339601,374.290465 C184.605394,370.084069 176.294099,365.734196 167.346148,361.191972 L163.598314,359.29687 L159.615103,357.298112 C152.9227,353.952634 145.941481,350.525532 138.368039,346.858542 L120.07123,338.074932 L105.130866,330.941628 C90.1870071,323.786372 72.272135,330.100282 65.1168789,345.04414 C58.0331753,359.83856 64.1506013,377.544871 78.7736693,384.840255 Z" id="Path" fill="#EBBAAA"></path>
                    <path d="M216.175128,381.999877 L185.175128,366.999877 L153.675128,426.999877 L185.175128,441.999877 C185.175128,445.999877 185.745128,425.486877 194.675128,408.999877 C201.175128,396.999877 209.175128,387.999877 216.175128,381.999877 Z" id="Path" fill="#161616"></path>
                    <path d="M264.543128,436.332877 L294.675128,421.999877 L261.175128,366.499877 L234.175128,380.999877 C235.474128,381.749877 246.862128,391.022877 256.675128,406.999877 C263.817128,418.628877 262.847128,427.270877 264.543128,436.332877 Z" id="Path" fill="#161616"></path>
                    <path d="M292.675128,431.000877 C401.175128,426.500877 435.674128,291.000877 429.175128,237.000877 L361.674128,237.000877 C364.634128,276.801877 276.675128,336.500877 259.175128,371.000877 C268.174128,382.500877 256.560128,432.497877 292.675128,431.000877 Z" id="Path" fill="#19171D"></path>
                    <path d="M148.175128,434.998877 C22.1751285,434.998877 -18.8243415,309.498877 7.67492847,222.499877 L64.1755285,222.499877 C61.2157285,262.300877 168.675128,326.999877 197.175128,377.499877 C190.675128,399.499877 184.320128,434.998877 148.175128,434.998877 Z" id="Path" fill="#19171D"></path>
                </g>
                <g id="head" transform="translate(35.107400, 0.000000)">
                    <rect id="Rectangle" fill="#EBBAAA" fill-rule="nonzero" x="149.875" y="379" width="69" height="115" rx="34.5"></rect>
                    <path d="M328,323.555 C350.091,323.555 368,304.079 368,280.055 C368,256.03 350.091,236.555 328,236.555 C305.909,236.555 288,256.03 288,280.055 C288,304.079 305.909,323.555 328,323.555 Z" id="Path" fill="#EBBAAA" fill-rule="nonzero"></path>
                    <path d="M40,323.555 C17.9086,323.555 0,304.079 0,280.055 C0,256.03 17.9086,236.555 40,236.555 C62.091,236.555 80,256.03 80,280.055 C80,304.079 62.091,323.555 40,323.555 Z" id="Path" fill="#EBBAAA" fill-rule="nonzero"></path>
                    <path d="M34.875,183.322 C34.875,100.48 102.032,33.3223 184.875,33.3223 C267.718,33.3223 334.875,100.48 334.875,183.322 L334.875,238.168 C334.875,247.079 334.194,255.976 332.837,264.783 L323.67,324.289 C313.144,392.619 254.345,443.054 185.209,443.054 C117.541,443.054 59.545,394.687 47.3924,328.119 L37.7173,275.123 C35.8263,264.765 34.875,254.257 34.875,243.728 L34.875,183.322 Z" id="Path" fill="#F4D5CC" fill-rule="nonzero"></path>
                    <path d="M234.775927,186.56343 L235.23113,186.364933 L235.54007,186.236119 C236.635694,185.785897 237.961303,185.320605 239.501649,184.876981 C245.440456,183.166586 252.406537,182.351684 260.212975,182.967981 C266.74909,183.483991 272.481522,184.717194 277.403561,186.431248 C279.641656,187.210645 281.53333,188.02818 283.072948,188.82095 C283.485666,189.033464 283.835733,189.22523 284.122651,189.391626 L284.415422,189.563523 L284.394467,189.549183 C288.968038,192.645034 295.185333,191.447104 298.281183,186.873533 C301.377034,182.299962 300.179104,176.082667 295.605533,172.986817 C294.886938,172.5004 293.760014,171.828212 292.228734,171.039735 C289.871608,169.826019 287.120525,168.637069 283.980961,167.543744 C277.473125,165.27745 270.063407,163.683417 261.787025,163.030019 C251.472927,162.215748 242.120495,163.309809 233.966572,165.658164 C231.708565,166.308477 229.69495,167.01526 227.938309,167.737113 L227.342259,167.986704 L226.803031,168.221409 C226.207252,168.485981 225.728392,168.717187 225.36962,168.904616 C220.474508,171.461904 218.579327,177.503268 221.136616,182.39838 C223.604174,187.121733 229.315602,189.051984 234.111071,186.88419 L234.371709,186.761875 L234.775927,186.56343 Z" id="Path" fill="#393939" fill-rule="nonzero"></path>
                    <path d="M144.020353,168.611758 L143.670644,168.462785 L143.254035,168.294446 C142.804186,168.116945 142.25494,167.912737 141.609157,167.688844 C139.952889,167.114615 138.057036,166.552018 135.934975,166.034197 C127.91744,164.077773 118.751231,163.216083 108.691841,164.03171 C100.975169,164.657386 93.8758291,165.998179 87.4624783,167.849175 C84.2136515,168.786838 81.3300357,169.80163 78.8310984,170.831653 C77.9227284,171.206069 77.1182208,171.561056 76.4199722,171.888977 L75.7289376,172.221963 L75.3554482,172.412034 C70.4644331,174.977149 68.5789186,181.021537 71.1440337,185.912552 C73.6641468,190.71776 79.5425237,192.621998 84.38609,190.254871 L84.921747,189.99201 C85.3329466,189.798898 85.8442053,189.573305 86.4527286,189.322482 C88.2877724,188.566105 90.4803593,187.794498 93.0084321,187.064856 C98.1737805,185.574053 103.96234,184.480816 110.308159,183.96629 C118.129264,183.332147 125.168933,183.993927 131.193732,185.464086 C132.524888,185.788912 133.694539,186.128208 134.691836,186.460943 L135.495378,186.740423 L135.957329,186.914888 L135.979647,186.924242 C141.0365,189.144621 146.935862,186.845206 149.156242,181.788353 C151.376621,176.7315 149.077206,170.832138 144.020353,168.611758 Z" id="Path" fill="#393939" fill-rule="nonzero"></path>
                    <path d="M26.0062287,156.594032 C25.3359287,95.5838321 79.0088287,75.5943321 69.5068287,87.0939321 C60.0058287,98.5935321 82.5088287,127.094032 69.5068287,136.094032 C56.5058287,145.094032 71.0068287,174.095032 64.0068287,185.095032 C57.0068287,196.095032 45.8317287,193.595032 39.5065287,215.095032 C33.1814287,236.595032 38.5065287,278.452032 38.5065287,278.452032 C39.0065287,279.595032 38.5065287,281.095032 37.5065287,281.095032 C36.5065287,281.095032 35.0065287,280.595032 34.6002287,278.452032 C34.6002287,278.452032 27.0059287,247.594032 26.0062287,156.594032 Z" id="Path" fill="#000000" fill-rule="nonzero"></path>
                    <path d="M340.993959,166.034283 C341.612959,109.696683 292.069959,91.2380831 300.839959,101.856983 C309.609959,112.475783 288.838959,138.793283 300.839959,147.104283 C312.840959,155.415283 299.455959,182.194283 305.917959,192.352283 C312.378959,202.509283 322.693959,200.201283 328.532959,220.054283 C334.370959,239.908283 329.455959,278.559283 329.455959,278.559283 C328.993959,279.615283 329.455959,281.000283 330.378959,281.000283 C331.301959,281.000283 332.685959,280.538283 333.060959,278.559283 C333.060959,278.559283 340.070959,250.065283 340.993959,166.034283 Z" id="Path" fill="#000000" fill-rule="nonzero"></path>
                    <path d="M180.802572,249.840048 C174.246359,259.674369 169.375,273.679526 169.375,285.18 C169.375,301.853509 179.331881,313.055 197.875,313.055 L197.875,296.055 C189.195897,296.055 186.375,292.881491 186.375,285.18 C186.375,277.305474 190.140005,266.481086 194.947428,259.269952 L180.802572,249.840048 Z" id="Path" fill="#EBBAAA" fill-rule="nonzero"></path>
                    <path d="M254.875,237 L240.875,237" id="Path" stroke="#000000" stroke-width="24" stroke-linecap="round"></path>
                    <path d="M129.375,237 L115.375,237" id="Path" stroke="#000000" stroke-width="24" stroke-linecap="round"></path>
                    <path d="M225.135,346.602 L225.135,349.469 C225.135,370.769 207.868,388.037 186.567,388.037 C165.267,388.037 148,370.769 148,349.469 L148,346.602 L225.135,346.602 Z" id="Path" fill="#FFFFFF"></path>
                    <mask id="mask-12" fill="white">
                        <use xlink:href="#path-11"></use>
                    </mask>
                    <use id="Path" fill="#BB462F" xlink:href="#path-11"></use>
                </g>
            </g>
        </g>
    </g>
</svg>