<?xml version="1.0" encoding="UTF-8"?>
<svg width="562px" height="1392px" viewBox="0 0 562 1392" version="1.1" xmlns="http://www.w3.org/2000/svg" xmlns:xlink="http://www.w3.org/1999/xlink">
    <!-- Generator: Sketch 55.2 (78181) - https://sketchapp.com -->
    <title>gee_me_089</title>
    <desc>Created with Sketch.</desc>
    <defs>
        <circle id="path-1" cx="42.073" cy="42.632" r="42.0418"></circle>
    </defs>
    <g id="GEE!-ME" stroke="none" stroke-width="1" fill="none" fill-rule="evenodd">
        <g id="gee_me_089" transform="translate(-319.000000, -104.000000)">
            <g transform="translate(319.000000, 104.000000)">
                <g id="lower-limb" transform="translate(37.495399, 849.000000)">
                    <path d="M304.504601,249 L304.504601,477" id="Path" stroke="#EBBAAA" stroke-width="44" stroke-linecap="round" stroke-linejoin="bevel"></path>
                    <path d="M156.504601,249 L156.504601,494.5" id="Path" stroke="#EBBAAA" stroke-width="44" stroke-linecap="round" stroke-linejoin="bevel"></path>
                    <path d="M230.504601,123 C294.017601,123 345.504601,99.495 345.504601,70.5 C345.504601,41.505 294.017601,18 230.504601,18 C166.991601,18 115.504601,41.505 115.504601,70.5 C115.504601,99.495 166.991601,123 230.504601,123 Z" id="Path" fill="#0F0F11" fill-rule="nonzero"></path>
                    <polygon id="Path" fill="#0F0F11" fill-rule="nonzero" points="229.504601 0 379.504601 0 359.504601 443 265.333601 443"></polygon>
                    <polygon id="Path" fill="#0F0F11" fill-rule="nonzero" points="231.504601 0 81.5046005 0 101.504601 443 195.675601 443"></polygon>
                    <polygon id="Path" fill="#C6C6C7" fill-rule="nonzero" points="130.748601 464 129.504601 448 178.504601 448 178.504601 464"></polygon>
                    <polygon id="Path" fill="#C6C6C7" fill-rule="nonzero" points="281.925601 473 280.504601 448 336.504601 448 336.504601 473"></polygon>
                    <polygon id="Path" fill="#0F0F11" fill-rule="nonzero" points="119.103601 458 117.504601 435 180.504601 435 180.504601 458"></polygon>
                    <polygon id="Path" fill="#0F0F11" fill-rule="nonzero" points="280.146601 458 278.504601 435 344.504601 435 343.191601 458"></polygon>
                    <path d="M12.2676005,538.02 C12.0673005,515.07 15.1936005,501.11 35.1432005,491.73 C55.0927005,482.35 73.8836005,464.32 108.397601,448.86 C108.397601,448.86 112.940601,448.01 120.335601,452.01 C126.646601,455.42 134.752601,463.79 146.965601,463.69 C160.228601,463.57 172.047601,460.76 179.389601,456.91 C182.562601,448.22 189.599601,448.16 189.599601,448.16 C189.599601,448.16 199.509601,467.02 199.674601,485.96 C199.840601,504.91 199.824092,536.38 199.824092,536.38 L12.2676005,538.02 Z" id="Path" fill="#465688" fill-rule="nonzero"></path>
                    <path d="M87.1501569,456.743449 C85.0621274,455.822293 82.841329,457.739805 83.4482253,459.939822 L86.445474,470.804935 L74.4360697,466.933703 C72.6883336,466.370321 70.8987605,467.673704 70.8987605,469.51 L70.8987605,480.664543 L61.9032005,475.790102 C60.0996206,474.812793 57.9067605,476.118651 57.9067605,478.17 L57.9067605,491.71 C57.9067605,493.204946 59.1186541,494.41684 60.6136005,494.41684 C62.108547,494.41684 63.3204405,493.204946 63.3204405,491.71 L63.3204405,482.715457 L72.3160006,487.589898 C74.1195804,488.567207 76.3124405,487.261349 76.3124405,485.21 L76.3124405,473.226548 L89.5581314,477.496297 C91.607643,478.156957 93.5706131,476.276005 92.9979758,474.200178 L90.1838471,463.99888 L103.371044,469.816551 C105.160288,470.605894 107.170441,469.295622 107.170441,467.34 L107.167904,466.312898 L107.157858,465.21318 C107.114905,462.033908 106.94999,459.881513 106.484278,457.350212 C106.102644,455.275904 105.544723,453.368508 104.772037,451.630413 C104.164752,450.264371 102.565055,449.649278 101.199013,450.256563 C99.8329716,450.863848 99.2178782,452.463546 99.8251636,453.829587 C100.411547,455.148612 100.851251,456.651851 101.15996,458.329788 C101.418903,459.737228 101.571454,461.037905 101.657413,462.570219 L101.686604,463.156355 L87.1501569,456.743449 Z" id="Path" fill="#FFFFFF" fill-rule="nonzero"></path>
                    <path d="M193.789601,458.14 C189.937601,463.37 176.044601,466.5 170.818601,467.27 C165.591601,468.03 159.991601,467.36 162.232601,476 C163.816601,482.12 179.046601,479.65 185.001601,479.6 C189.843601,479.55 196.633601,494.18 199.161601,489.22 C199.161601,472.21 195.955601,463.01 193.789601,458.14 Z" id="Path" fill="#FFFFFF" fill-rule="nonzero"></path>
                    <path d="M19.8149005,493.49 C25.9356005,491.27 32.4176005,489.59 44.8449005,486.77 L39.5637005,501.98 L39.7149005,519.3 L4.34250053,519.610039 C2.89900053,519.62 0.31960053,517.7 1.55080053,509.89 C3.08980053,500.13 11.1179005,496.64 19.8149005,493.49 Z" id="Path" fill="#2C3C6D" fill-rule="nonzero"></path>
                    <polygon id="Path" fill="#FFFFFF" fill-rule="nonzero" points="62.9912421 498.424191 79.4702421 529.834191 94.810959 521.785809 78.331959 490.375809"></polygon>
                    <polygon id="Path" fill="#FFFFFF" fill-rule="nonzero" points="85.687814 486.51574 105.434814 524.25574 120.784387 516.22426 101.037387 478.48426"></polygon>
                    <polygon id="Path" fill="#FFFFFF" fill-rule="nonzero" points="107.891625 473.32556 135.194625 526.51556 150.606576 518.60444 123.303576 465.41444"></polygon>
                    <path d="M201.188601,533.42 L200.157601,515.19 L40.9440005,517.67 L1.24570053,514.76 L0.0330005295,528.73 C-0.38599947,533.56 3.23460053,537.79 8.06740053,538.13 L41.1425005,540.4 L196.931601,537.99 C199.392601,537.95 201.327601,535.87 201.188601,533.42 Z" id="Path" fill="#E2E6EA" fill-rule="nonzero"></path>
                    <path d="M448.916601,540.02 C449.116601,517.07 445.990601,503.11 426.040601,493.73 C406.090601,484.35 387.299601,466.32 352.785601,450.86 C352.785601,450.86 348.242601,450.01 340.847601,454.01 C334.537601,457.42 326.431601,465.79 314.217601,465.69 C300.955601,465.57 289.136601,462.76 281.793601,458.91 C278.621601,450.22 271.583601,450.16 271.583601,450.16 C271.583601,450.16 261.674601,469.02 261.508601,487.96 C261.343601,506.91 261.360104,538.38 261.360104,538.38 L448.916601,540.02 Z" id="Path" fill="#465688" fill-rule="nonzero"></path>
                    <path d="M368.186225,476.200178 C367.613582,478.276025 369.576594,480.156984 371.626115,479.496282 L384.870761,475.226616 L384.870761,487.21 C384.870761,489.261311 387.063546,490.567172 388.867124,489.58994 L397.863761,484.71529 L397.863761,493.71 C397.863761,495.204946 399.075654,496.41684 400.570601,496.41684 C402.065547,496.41684 403.277441,495.204946 403.277441,493.71 L403.277441,480.17 C403.277441,478.118689 401.084655,476.812828 399.281077,477.79006 L390.284441,482.66471 L390.284441,471.51 C390.284441,469.673685 388.494832,468.370299 386.747087,468.933718 L374.738755,472.804834 L377.735976,461.939822 C378.342865,459.73983 376.122119,457.822323 374.034094,458.743427 L359.496628,465.156435 C359.575335,463.361526 359.732062,461.913321 360.023497,460.330006 C360.332335,458.652143 360.772221,457.148976 361.358849,455.830011 C361.966368,454.464074 361.351549,452.864271 359.985612,452.256752 C358.619675,451.649232 357.019872,452.264051 356.412352,453.629989 C355.639284,455.368144 355.081083,457.275611 354.699259,459.349994 L354.572471,460.074382 L354.46157,460.785154 C354.100091,463.257902 354.012761,465.620243 354.012761,469.34 C354.012761,471.295598 356.022869,472.605871 357.812107,471.816573 L371.000393,465.998738 L368.186225,476.200178 Z" id="Path" fill="#FFFFFF" fill-rule="nonzero"></path>
                    <path d="M267.394601,460.14 C271.246601,465.37 285.139601,468.5 290.365601,469.27 C295.592601,470.03 301.192601,469.36 298.951601,478 C297.367601,484.12 282.136601,481.65 276.182601,481.6 C271.340601,481.55 264.550601,496.18 262.021601,491.22 C262.021601,474.21 265.228601,465.01 267.394601,460.14 Z" id="Path" fill="#FFFFFF" fill-rule="nonzero"></path>
                    <path d="M441.369601,495.49 C435.248601,493.27 428.766601,491.59 416.338601,488.77 L421.620601,503.98 L421.468601,521.3 L456.841601,521.610039 C458.284601,521.62 460.864601,519.7 459.633601,511.89 C458.094601,502.13 450.066601,498.64 441.369601,495.49 Z" id="Path" fill="#2C3C6D" fill-rule="nonzero"></path>
                    <polygon id="Path" fill="#FFFFFF" fill-rule="nonzero" points="382.852242 492.375809 366.373242 523.785809 381.713959 531.834191 398.192959 500.424191"></polygon>
                    <polygon id="Path" fill="#FFFFFF" fill-rule="nonzero" points="360.145814 480.48426 340.398814 518.22426 355.748387 526.25574 375.495387 488.51574"></polygon>
                    <polygon id="Path" fill="#FFFFFF" fill-rule="nonzero" points="337.879625 467.41444 310.576625 520.60444 325.988576 528.51556 353.291576 475.32556"></polygon>
                    <path d="M259.222601,535.41 L260.256601,517.19 L420.080601,519.66 L459.930601,516.76 L461.148601,530.73 C461.569601,535.56 457.946601,539.79 453.111601,540.12 L419.882601,542.4 L263.479601,539.98 C261.018601,539.95 259.083601,537.87 259.222601,535.41 Z" id="Path" fill="#E2E6EA" fill-rule="nonzero"></path>
                </g>
                <g id="upper-limb" transform="translate(0.250190, 424.482900)">
                    <path d="M441.462544,154.202731 C423.247517,164.748274 416.910193,187.935627 427.120954,206.250868 L427.640875,207.158476 L428.313942,208.302957 C430.582877,212.105145 432.152343,214.044341 439.696988,222.742666 L444.544342,228.333358 L445.667062,229.637688 C450.609924,235.393083 454.11492,239.657074 457.751129,244.404654 L458.155772,244.934253 C469.365427,259.640795 476.35226,272.49449 478.341182,282.243241 L478.430749,282.697934 C482.396614,303.584825 502.543754,317.302027 523.430644,313.336161 C544.317535,309.370296 558.034737,289.223156 554.068871,268.336266 C549.516836,244.362216 537.376208,221.864919 519.386286,198.262986 L518.044126,196.512717 L517.066407,195.251424 C512.677897,189.616617 508.400276,184.483527 502.585272,177.748809 L495.492512,169.560077 L494.573031,168.474856 C494.430755,168.30514 494.287884,168.133929 494.135298,167.950617 L493.528886,167.214113 L493.190823,166.793237 C482.167997,149.50997 459.374162,143.832847 441.462544,154.202731 Z" id="Path" fill="#EBBAAA" fill-rule="nonzero"></path>
                    <path d="M119.370219,85.2944237 C116.515641,90.488839 113.606996,95.4725473 110.636571,100.272749 C100.447741,116.73788 89.8499339,130.643951 77.1916149,144.806943 L76.1607168,145.955912 C69.4009828,153.460928 45.9433483,177.678122 41.6749275,182.337343 C25.5142685,199.97761 14.4600243,215.412811 5.89352291,234.299684 C-3.33925112,254.655512 5.67776574,278.641813 26.0335938,287.874587 C46.1858635,297.015033 69.8963601,288.26886 79.3271062,268.341783 L79.6084971,267.734516 C83.9749143,258.10772 90.0267061,249.529155 100.190326,238.297951 L101.573006,236.782614 C105.469128,232.583774 128.462243,208.833927 136.304444,200.127099 C152.491628,182.155228 166.294412,164.152555 179.466908,142.865826 C183.170857,136.880251 186.781993,130.692886 190.307401,124.277776 C201.072356,104.689015 193.919248,80.082465 174.330486,69.3175094 C154.741725,58.5525539 130.135175,65.7056621 119.370219,85.2944237 Z" id="Path" fill="#EBBAAA" fill-rule="nonzero"></path>
                    <path d="M123.12281,59.1211 C163.22281,21.0001 227.92181,27.8511 259.14881,73.5251 C288.26981,116.1171 275.60181,174.4301 231.43481,201.1021 L114.05281,271.9871 L0,176.1651 L123.12281,59.1211 Z" id="Path" fill="#32A3DE" fill-rule="nonzero"></path>
                    <path d="M448.79181,58.1331 C412.16581,16.6621 347.11581,17.8481 312.02681,60.6271 C279.30581,100.5191 286.84281,159.7141 328.51681,190.1341 L439.27381,270.9791 L561.24381,185.4631 L448.79181,58.1331 Z" id="Path" fill="#32A3DE" fill-rule="nonzero"></path>
                    <path d="M124.77781,140.5461 C128.07781,81.9021 176.06581,35.7391 234.79281,34.7141 L312.80481,33.3531 C374.22881,32.2801 425.08281,80.8261 426.86381,142.2341 L431.36881,297.5591 L433.29581,493.8381 C433.29581,493.8381 330.44081,499.8381 272.44081,499.8381 C214.44081,499.8381 113.30681,493.8381 113.30681,493.8381 L115.63481,303.0161 L124.77781,140.5461 Z" id="Path" fill="#32A3DE" fill-rule="nonzero"></path>
                    <circle id="Oval" fill="#42B4EF" fill-rule="nonzero" transform="translate(270.892810, 72.747100) rotate(-1.000000) translate(-270.892810, -72.747100) " cx="270.89281" cy="72.7471" r="70.7471"></circle>
                    <path d="M209.62981,295.8571 L209.62981,289.9171 L192.88981,289.9171 L192.88981,298.6771 L199.18981,298.6771 L199.18981,299.2771 C199.18981,300.8971 198.76981,302.6371 197.56981,303.8371 C196.60981,304.8571 195.10981,305.5171 192.88981,305.5171 C190.96981,305.5171 189.52981,304.7371 188.74981,303.7171 C187.78981,302.4571 187.18981,300.9571 187.18981,293.1571 C187.18981,285.3571 187.78981,283.9171 188.74981,282.6571 C189.52981,281.6371 190.96981,280.7971 192.88981,280.7971 C196.48981,280.7971 198.16981,282.3571 199.00981,285.5971 L209.56981,285.5971 C208.54981,278.5771 203.86981,271.4371 192.88981,271.4371 C187.72981,271.4371 184.12981,273.1171 181.00981,276.2371 C176.50981,280.7371 176.68981,286.7371 176.68981,293.1571 C176.68981,299.5771 176.50981,305.5771 181.00981,310.0771 C184.12981,313.1971 187.90981,314.8771 192.88981,314.8771 C197.56981,314.8771 201.64981,313.8571 205.30981,310.0771 C208.54981,306.7771 209.62981,302.7571 209.62981,295.8571 Z M248.05781,293.1571 C248.05781,286.7371 248.23781,280.7371 243.73781,276.2371 C240.61781,273.1171 237.01781,271.4371 231.79781,271.4371 C226.57781,271.4371 222.97781,273.1171 219.85781,276.2371 C215.35781,280.7371 215.53781,286.7371 215.53781,293.1571 C215.53781,299.5771 215.35781,305.5771 219.85781,310.0771 C222.97781,313.1971 226.57781,314.8771 231.79781,314.8771 C237.01781,314.8771 240.61781,313.1971 243.73781,310.0771 C248.23781,305.5771 248.05781,299.5771 248.05781,293.1571 Z M237.55781,293.1571 C237.55781,300.9571 236.95781,302.3371 235.99781,303.5971 C235.21781,304.6171 233.71781,305.5171 231.79781,305.5171 C229.87781,305.5171 228.37781,304.6171 227.59781,303.5971 C226.63781,302.3371 226.03781,300.9571 226.03781,293.1571 C226.03781,285.3571 226.63781,283.9171 227.59781,282.6571 C228.37781,281.6371 229.87781,280.7971 231.79781,280.7971 C233.71781,280.7971 235.21781,281.6371 235.99781,282.6571 C236.95781,283.9171 237.55781,285.3571 237.55781,293.1571 Z M286.85681,295.8571 L286.85681,289.9171 L270.11681,289.9171 L270.11681,298.6771 L276.41681,298.6771 L276.41681,299.2771 C276.41681,300.8971 275.99681,302.6371 274.79681,303.8371 C273.83681,304.8571 272.33681,305.5171 270.11681,305.5171 C268.19681,305.5171 266.75681,304.7371 265.97681,303.7171 C265.01681,302.4571 264.41681,300.9571 264.41681,293.1571 C264.41681,285.3571 265.01681,283.9171 265.97681,282.6571 C266.75681,281.6371 268.19681,280.7971 270.11681,280.7971 C273.71681,280.7971 275.39681,282.3571 276.23681,285.5971 L286.79681,285.5971 C285.77681,278.5771 281.09681,271.4371 270.11681,271.4371 C264.95681,271.4371 261.35681,273.1171 258.23681,276.2371 C253.73681,280.7371 253.91681,286.7371 253.91681,293.1571 C253.91681,299.5771 253.73681,305.5771 258.23681,310.0771 C261.35681,313.1971 265.13681,314.8771 270.11681,314.8771 C274.79681,314.8771 278.87681,313.8571 282.53681,310.0771 C285.77681,306.7771 286.85681,302.7571 286.85681,295.8571 Z M325.28381,293.1571 C325.28381,286.7371 325.46381,280.7371 320.96381,276.2371 C317.84381,273.1171 314.24381,271.4371 309.02381,271.4371 C303.80381,271.4371 300.20381,273.1171 297.08381,276.2371 C292.58381,280.7371 292.76381,286.7371 292.76381,293.1571 C292.76381,299.5771 292.58381,305.5771 297.08381,310.0771 C300.20381,313.1971 303.80381,314.8771 309.02381,314.8771 C314.24381,314.8771 317.84381,313.1971 320.96381,310.0771 C325.46381,305.5771 325.28381,299.5771 325.28381,293.1571 Z M314.78381,293.1571 C314.78381,300.9571 314.18381,302.3371 313.22381,303.5971 C312.44381,304.6171 310.94381,305.5171 309.02381,305.5171 C307.10381,305.5171 305.60381,304.6171 304.82381,303.5971 C303.86381,302.3371 303.26381,300.9571 303.26381,293.1571 C303.26381,285.3571 303.86381,283.9171 304.82381,282.6571 C305.60381,281.6371 307.10381,280.7971 309.02381,280.7971 C310.94381,280.7971 312.44381,281.6371 313.22381,282.6571 C314.18381,283.9171 314.78381,285.3571 314.78381,293.1571 Z M364.08281,295.8571 L364.08281,289.9171 L347.34281,289.9171 L347.34281,298.6771 L353.64281,298.6771 L353.64281,299.2771 C353.64281,300.8971 353.22281,302.6371 352.02281,303.8371 C351.06281,304.8571 349.56281,305.5171 347.34281,305.5171 C345.42281,305.5171 343.98281,304.7371 343.20281,303.7171 C342.24281,302.4571 341.64281,300.9571 341.64281,293.1571 C341.64281,285.3571 342.24281,283.9171 343.20281,282.6571 C343.98281,281.6371 345.42281,280.7971 347.34281,280.7971 C350.94281,280.7971 352.62281,282.3571 353.46281,285.5971 L364.02281,285.5971 C363.00281,278.5771 358.32281,271.4371 347.34281,271.4371 C342.18281,271.4371 338.58281,273.1171 335.46281,276.2371 C330.96281,280.7371 331.14281,286.7371 331.14281,293.1571 C331.14281,299.5771 330.96281,305.5771 335.46281,310.0771 C338.58281,313.1971 342.36281,314.8771 347.34281,314.8771 C352.02281,314.8771 356.10281,313.8571 359.76281,310.0771 C363.00281,306.7771 364.08281,302.7571 364.08281,295.8571 Z" id="Shape" fill="#FFFFFF" fill-rule="nonzero"></path>
                    <path d="M169.64281,290.8011 C173.04381,279.3611 202.24581,254.8821 217.59981,246.0361 C233.19681,251.1111 314.15381,296.6131 329.07381,317.0521 C317.79181,328.0871 305.21081,344.9751 282.29481,363.7831 C261.90381,360.5131 166.24281,302.2411 169.64281,290.8011 Z" id="Path" fill="#7C8491" fill-rule="nonzero"></path>
                    <path d="M181.375916,32.6422495 C178.430827,54.4359063 182.805527,96.7417782 192.570384,137.643118 C204.382411,187.119289 222.280576,229.091149 245.313708,254.849183 L266.185912,236.185017 C246.877441,214.592284 230.634561,176.502129 219.804986,131.141082 L219.268939,128.869287 C210.611621,91.7436623 206.771147,53.8008707 209.123704,36.3919505 L181.375916,32.6422495 Z" id="Path" fill="#6B5B7B" fill-rule="nonzero"></path>
                    <path d="M337.710766,34.5800062 C342.185294,51.58321 340.964329,86.6281893 333.885601,124.708477 C325.83591,168.012094 311.47355,210.009877 292.686178,241.912961 L316.813442,256.121239 C337.411253,221.143824 352.808325,176.120383 361.414019,129.825723 C369.181741,88.0389656 370.532146,49.2787049 364.788854,27.4541938 L337.710766,34.5800062 Z" id="Path" fill="#6B5B7B" fill-rule="nonzero"></path>
                    <rect id="Rectangle" fill="#E6E6E6" fill-rule="nonzero" x="166.74981" y="240.5171" width="211" height="114" rx="3.82198"></rect>
                    <rect id="Rectangle" fill="#2B2927" fill-rule="nonzero" x="167.12281" y="238.5171" width="35.6719" height="20.3839" rx="2.54799"></rect>
                    <rect id="Rectangle" fill="#2B2927" fill-rule="nonzero" x="210.43781" y="238.5171" width="21.6579" height="20.3839" rx="2.54799"></rect>
                    <rect id="Rectangle" fill="#FCFAF9" fill-rule="nonzero" x="255.74981" y="232.5171" width="122" height="12" rx="2.54799"></rect>
                    <path d="M152.74981,265.2711 L344.23281,265.2711 C355.27881,265.2711 364.23281,274.2251 364.23281,285.2711 L364.23281,359.5471 L172.74981,359.5471 C161.70381,359.5471 152.74981,350.5921 152.74981,339.5471 L152.74981,265.2711 Z" id="Path" fill="#FCFAF9" fill-rule="nonzero"></path>
                    <circle id="Oval" fill="#FF2929" fill-rule="nonzero" cx="346.74981" cy="278.5171" r="8"></circle>
                    <path d="M268.18581,392.67085 C305.828848,392.67085 336.34456,362.155138 336.34456,324.5121 C336.34456,286.869062 305.828848,256.35335 268.18581,256.35335 C230.542772,256.35335 200.02706,286.869062 200.02706,324.5121 C200.02706,362.155138 230.542772,392.67085 268.18581,392.67085 Z M268.18581,374.83495 C240.393267,374.83495 217.86296,352.304643 217.86296,324.5121 C217.86296,296.719557 240.393267,274.18925 268.18581,274.18925 C295.978353,274.18925 318.50866,296.719557 318.50866,324.5121 C318.50866,352.304643 295.978353,374.83495 268.18581,374.83495 Z" id="Oval" fill="#E6E6E6" fill-rule="nonzero"></path>
                    <path d="M268.18581,383.75285 C300.903573,383.75285 327.42656,357.229863 327.42656,324.5121 C327.42656,291.794337 300.903573,265.27135 268.18581,265.27135 C235.468047,265.27135 208.94506,291.794337 208.94506,324.5121 C208.94506,357.229863 235.468047,383.75285 268.18581,383.75285 Z M268.18581,365.91695 C245.318543,365.91695 226.78096,347.379367 226.78096,324.5121 C226.78096,301.644833 245.318543,283.10725 268.18581,283.10725 C291.053077,283.10725 309.59066,301.644833 309.59066,324.5121 C309.59066,347.379367 291.053077,365.91695 268.18581,365.91695 Z" id="Oval" fill="#252626" fill-rule="nonzero"></path>
                    <g id="Clipped" transform="translate(226.749810, 282.517100)">
                        <mask id="mask-2" fill="white">
                            <use xlink:href="#path-1"></use>
                        </mask>
                        <use id="Oval" fill="#5D5F61" xlink:href="#path-1"></use>
                        <g id="Group" mask="url(#mask-2)" fill="#FFFFFF" fill-opacity="0.28" fill-rule="nonzero">
                            <g transform="translate(-28.000000, -80.000000)" id="Rectangle">
                                <rect transform="translate(74.887714, 108.605112) rotate(40.000000) translate(-74.887714, -108.605112) " x="58.962764" y="38.8301116" width="31.8499" height="139.55"></rect>
                                <rect transform="translate(57.051714, 64.015112) rotate(40.000000) translate(-57.051714, -64.015112) " x="41.126764" y="-5.75988844" width="31.8499" height="139.55"></rect>
                            </g>
                        </g>
                    </g>
                    <path d="M484.107911,255.297201 C435.977502,303.427611 374.391591,336.848678 334.528109,337.512286 L333.32681,337.52235 C312.066747,337.52235 294.83206,354.757037 294.83206,376.0171 C294.83206,397.277163 312.066747,414.51185 333.32681,414.51185 C396.950885,414.51185 476.837432,371.447276 538.547709,309.736999 C553.580844,294.703864 553.580844,270.330336 538.547709,255.297201 C523.514574,240.264066 499.141046,240.264066 484.107911,255.297201 Z" id="Path" fill="#EBBAAA" fill-rule="nonzero"></path>
                    <path d="M12.9481864,233.42425 C-1.46194442,249.055578 -0.471968224,273.408993 15.1593601,287.819124 C31.7021309,303.06949 51.7233438,308.539578 75.5349603,307.621172 C83.2845826,307.322272 91.3459781,306.39016 101.353193,304.788671 L104.78588,304.220198 C112.658116,302.877962 129.898922,299.786271 129.112087,299.923866 L131.566526,299.498172 L134.0782,299.070335 C151.895652,296.065119 165.857948,294.364992 180.904911,293.631547 C201.63261,292.621201 222.200752,293.739352 243.704721,297.450181 C264.655136,301.065486 284.569586,287.012603 288.184891,266.062189 C291.800196,245.111774 277.747313,225.197324 256.796899,221.582019 C229.551666,216.88045 203.35523,215.456326 177.156603,216.733346 C157.86395,217.673743 140.514955,219.845565 118.775329,223.578229 L93.7824102,227.994181 C92.3135101,228.248332 91.080985,228.458359 90.2272685,228.598403 L88.6557353,228.851046 L86.6284658,229.165264 C80.9265088,230.028836 76.5448878,230.511811 72.975933,230.671839 L72.5677082,230.688874 C70.646183,230.762986 69.0616563,230.735065 67.7955335,230.625005 L67.301944,230.576343 C67.0716532,230.55071 66.8659267,230.523322 66.6839015,230.495064 L66.5097448,230.466548 C50.8575942,216.842327 27.1047057,218.068026 12.9481864,233.42425 Z" id="Path" fill="#EBBAAA" fill-rule="nonzero"></path>
                </g>
                <g id="head" transform="translate(76.999900, 0.258670)">
                    <rect id="Rectangle" fill="#EBBAAA" fill-rule="nonzero" x="155.0001" y="356.74133" width="76" height="115" rx="37.911"></rect>
                    <rect id="Rectangle" fill="#EBBAAA" fill-rule="nonzero" transform="translate(194.490841, 477.891282) rotate(-1.000000) translate(-194.490841, -477.891282) " x="147.494791" y="416.475782" width="93.9921" height="122.831" rx="46.996"></rect>
                    <path d="M338.2681,349.27433 C371.0001,349.27433 397.5351,322.74033 397.5351,290.00833 C397.5351,257.27633 371.0001,230.74133 338.2681,230.74133 C305.5361,230.74133 279.0021,257.27633 279.0021,290.00833 C279.0021,322.74033 305.5361,349.27433 338.2681,349.27433 Z" id="Path" fill="#EBBAAA" fill-rule="nonzero"></path>
                    <path d="M59.2661,352.27433 C26.5341,352.27433 -1.53477231e-12,325.74033 -1.53477231e-12,293.00833 C-1.53477231e-12,260.27633 26.5341,233.74133 59.2661,233.74133 C91.9981,233.74133 118.5331,260.27633 118.5331,293.00833 C118.5331,325.74033 91.9981,352.27433 59.2661,352.27433 Z" id="Path" fill="#EBBAAA" fill-rule="nonzero"></path>
                    <path d="M41.0021,180.24133 C41.0021,95.46563 109.7261,26.74133 194.5021,26.74133 C279.2771,26.74133 348.0021,95.46563 348.0021,180.24133 L348.0021,252.74133 L337.8501,344.10533 C331.5631,400.69033 292.1891,448.25933 237.8411,465.21833 C209.7091,473.99633 179.4471,473.86033 151.4141,464.77133 C99.4861,447.93533 61.7541,402.89333 54.2811,348.81833 L41.0021,252.74133 L41.0021,180.24133 Z" id="Path" fill="#F4D4C9" fill-rule="nonzero"></path>
                    <path d="M163.262819,391.472035 C182.851663,402.354726 205.971747,402.072774 230.91744,391.867718 C234.853236,390.25762 236.738586,385.761785 235.128488,381.82599 C233.51839,377.890194 229.022555,376.004844 225.08676,377.614942 C204.158151,386.176646 185.842274,386.40001 170.741381,378.010625 C167.024115,375.945477 162.336543,377.284784 160.271395,381.002049 C158.206247,384.719315 159.545554,389.406887 163.262819,391.472035 Z" id="Path" fill="#C99584" fill-rule="nonzero"></path>
                    <path d="M243.5001,270.74133 L243.5001,284.74133 C243.5001,292.473316 249.768114,298.74133 257.5001,298.74133 C265.232086,298.74133 271.5001,292.473316 271.5001,284.74133 L271.5001,270.74133 C271.5001,263.009344 265.232086,256.74133 257.5001,256.74133 C249.768114,256.74133 243.5001,263.009344 243.5001,270.74133 Z" id="Path" fill="#000000" fill-rule="nonzero"></path>
                    <path d="M114.5001,270.74133 L114.5001,284.74133 C114.5001,292.473316 120.768114,298.74133 128.5001,298.74133 C136.232086,298.74133 142.5001,292.473316 142.5001,284.74133 L142.5001,270.74133 C142.5001,263.009344 136.232086,256.74133 128.5001,256.74133 C120.768114,256.74133 114.5001,263.009344 114.5001,270.74133 Z" id="Path" fill="#000000" fill-rule="nonzero"></path>
                    <path d="M235.523964,224.38589 L292.781964,221.88389 C299.403062,221.594568 304.535982,215.992565 304.24666,209.371466 C303.957338,202.750368 298.355335,197.617448 291.734236,197.90677 L234.476236,200.40877 C227.855138,200.698092 222.722218,206.300095 223.01154,212.921194 C223.300862,219.542292 228.902865,224.675212 235.523964,224.38589 Z" id="Path" fill="#393939" fill-rule="nonzero"></path>
                    <path d="M151.962209,200.36679 L94.6522085,199.86479 C88.0250458,199.806741 82.6056102,205.132059 82.5470902,211.759221 C82.4895105,218.386384 87.8148287,223.80582 94.4419915,223.86387 L151.751991,224.36587 C158.379154,224.423919 163.79859,219.098601 163.85711,212.471439 C163.914689,205.844276 158.589371,200.42484 151.962209,200.36679 Z" id="Path" fill="#393939" fill-rule="nonzero"></path>
                    <path d="M185.720169,297.550268 C179.648267,308.263853 176.108857,319.972098 176.565023,329.525486 C177.191604,342.647834 185.429242,351.47033 199.2991,351.47033 L199.2991,334.47033 L198.793953,334.464006 L198.318003,334.444552 C194.778883,334.243236 193.741739,332.820768 193.545677,328.714674 C193.262424,322.78258 195.894167,314.076865 200.510031,305.932392 L185.720169,297.550268 Z" id="Path" fill="#EBBAAA" fill-rule="nonzero"></path>
                    <path d="M305.9991,130.24033 C304.1531,114.74033 308.0661,112.58333 306.0001,95.24033 C304.5361,82.95583 294.4201,50.78523 329.3421,76.52593 C364.2641,102.26633 369.4991,158.74033 359.9991,206.74033 L345.4991,263.74033 L334.7171,261.07433 L338.9991,188.74033 C321.4041,171.02833 309.0991,156.25433 305.9991,130.24033 Z" id="Path" fill="#6E6C6C" fill-rule="nonzero"></path>
                    <path d="M59.8271,155.98933 C61.2691,129.83333 58.3221,131.18033 59.2841,113.74233 C59.9651,101.39033 64.2211,104.09333 42.1721,126.74233 C30.0021,139.24233 34.5841,192.94833 37.1741,228.07233 L40.2531,260.44533 L45.1711,260.71633 L47.3921,220.44933 C56.0851,192.54633 58.3841,182.14633 59.8271,155.98933 Z" id="Path" fill="#6E6C6C" fill-rule="nonzero"></path>
                    <path d="M199.5121,5.74133 L199.5121,5.74133 C199.4381,5.74133 199.3641,5.74133 199.2901,5.74133 C199.2171,5.74133 199.1431,5.74133 199.0691,5.74133 L199.0681,5.74133 C151.9811,5.91909 38.2371,34.95823 34.0001,167.74133 C46.5201,151.38533 57.3261,137.31033 74.5001,126.63733 C110.6541,104.16733 149.7041,102.21633 188.8751,102.21633 C210.4331,102.21633 238.9771,104.59033 254.5001,102.21633 C280.5001,98.24133 292.2021,102.75933 312.6701,126.63733 C331.1411,154.84833 338.1221,171.39333 362.5001,190.74133 C385.0001,50.74133 246.5971,5.9191 199.5121,5.74133 Z" id="Path" fill="#272727"></path>
                    <polygon id="Path" fill="#272727" fill-rule="nonzero" points="76.8711 42.85943 67.1931 77.24143 194.7761 57.48303 340.5821 84.13723 340.2741 69.99033 329.8741 65.66713 329.6321 54.55173 316.5211 54.83673 316.1481 37.65843 299.2911 38.02483 295.2591 24.96993 280.2751 25.29563 271.0931 12.35263 255.7291 16.73043 250.8701 8.74833 234.9501 9.09443 234.7521 2.13162821e-14 213.4101 9.56263 207.5931 0.59033 198.4261 9.88823 188.8631 0.99745 171.2671 10.47863 159.8321 1.62849 147.8551 10.98753 139.4261 11.17073 130.2371 19.45823 126.3151 11.45573 110.7681 28.98003 100.3791 25.16203 87.2281 45.16173"></polygon>
                    <polygon id="Path" fill="#272727" fill-rule="nonzero" points="121.0001 105.02933 121.0001 87.74133 101.0001 109.27333 107.6881 61.74133 255.4891 95.04413 214.0001 122.94733 214.0001 105.02933 192.5001 122.94733 187.0001 105.02933 165.5001 118.24133 160.5001 99.74133 139.5001 114.24133 133.5001 95.04413"></polygon>
                    <path d="M176.0001,258.04133 C182.3951,257.35833 187.7421,256.40133 202.5001,258.04133" id="Path" stroke="#000000" stroke-width="10.2584"></path>
                    <path d="M202.2271,259.05033 C199.7291,248.11233 207.9841,237.74133 219.1871,237.74133 L305.0581,237.74133 C316.2611,237.74133 324.6531,248.11233 322.3001,259.05033 L315.6221,290.09333 C313.8971,298.11133 306.8241,303.81733 298.6111,303.81733 L226.5091,303.81733 C218.2961,303.81733 211.1481,298.11133 209.3171,290.09333 L202.2271,259.05033 Z" id="Path" fill-opacity="0.29" fill="#FFFFFF" fill-rule="nonzero"></path>
                    <path d="M57.8781,259.44333 C55.5491,248.50633 63.9621,238.13533 75.1651,238.13533 L161.0211,238.13533 C172.2241,238.13533 180.4571,248.50633 177.9371,259.44333 L170.7821,290.49633 C168.9351,298.51433 161.7751,304.22133 153.5611,304.22133 L81.4741,304.22133 C73.2611,304.22133 66.2001,298.51433 64.4921,290.49633 L57.8781,259.44333 Z" id="Path" fill-opacity="0.29" fill="#FFFFFF" fill-rule="nonzero"></path>
                    <path d="M199.302411,259.718308 L199.218377,259.334035 C196.569771,246.661603 206.187447,234.74133 219.1871,234.74133 L305.0581,234.74133 C318.170915,234.74133 327.988121,246.874009 325.233004,259.681259 L318.554992,290.724315 C316.532524,300.124984 308.237183,306.81733 298.6111,306.81733 L226.5091,306.81733 C216.895844,306.81733 208.534809,300.142929 206.392411,290.761308 L199.302411,259.718308 Z M212.241809,289.42544 C213.761372,296.07965 219.696273,300.81733 226.5091,300.81733 L298.6111,300.81733 C305.411279,300.81733 311.261731,296.097421 312.689196,289.462401 L319.367196,258.419399 C321.318024,249.350909 314.351549,240.74133 305.0581,240.74133 L219.1871,240.74133 C209.911632,240.74133 203.082476,249.321447 205.151794,258.382372 L212.241809,289.42544 Z" id="Path" fill="#000000" fill-rule="nonzero"></path>
                    <path d="M54.9439165,260.068284 L54.8658449,259.684215 C52.4141308,247.021479 62.1867075,235.13533 75.1651,235.13533 L161.0211,235.13533 C174.15455,235.13533 183.813218,247.301895 180.860502,260.116918 L173.705538,291.169763 C171.544999,300.548865 163.17317,307.22133 153.5611,307.22133 L81.4741,307.22133 C71.8461344,307.22133 63.5611576,300.525258 61.5579165,291.121284 L54.9439165,260.068284 Z M67.4262656,289.871292 C68.8390857,296.503606 74.676274,301.22133 81.4741,301.22133 L153.5611,301.22133 C160.376554,301.22133 166.325094,296.48026 167.858698,289.822742 L175.013697,258.769747 C177.101032,249.710547 170.293426,241.13533 161.0211,241.13533 L75.1651,241.13533 C65.8691957,241.13533 58.8810414,249.74925 60.8122966,258.818438 L67.4262656,289.871292 Z" id="Path" fill="#000000" fill-rule="nonzero"></path>
                </g>
            </g>
        </g>
    </g>
</svg>