<?xml version="1.0" encoding="UTF-8"?>
<svg width="488px" height="1390px" viewBox="0 0 488 1390" version="1.1" xmlns="http://www.w3.org/2000/svg" xmlns:xlink="http://www.w3.org/1999/xlink">
    <!-- Generator: Sketch 55.2 (78181) - https://sketchapp.com -->
    <title>gee_me_055</title>
    <desc>Created with Sketch.</desc>
    <defs>
        <rect id="path-1" x="0" y="0.857575972" width="78.5865724" height="98.2332155" rx="39.2932862"></rect>
    </defs>
    <g id="GEE!-ME" stroke="none" stroke-width="1" fill="none" fill-rule="evenodd">
        <g id="gee_me_055" transform="translate(-356.000000, -106.000000)">
            <g transform="translate(356.000265, 106.921526)">
                <g id="lower-limb" transform="translate(32.416689, 896.930064)" fill-rule="nonzero">
                    <path d="M276.125348,201.378092 C289.552892,201.383263 300.459342,212.163787 300.671062,225.539732 L300.674195,225.94585 L300.593644,435.182599 C300.588423,448.745775 289.589063,459.736668 276.025888,459.731449 C262.598344,459.726278 251.691894,448.945754 251.480174,435.569808 L251.47704,435.163691 L251.557591,225.926941 C251.562813,212.363766 262.562172,201.372872 276.125348,201.378092 Z" id="Path" fill="#EDBC3D"></path>
                    <path d="M145.475171,201.378092 C158.902715,201.383263 169.809165,212.163787 170.020885,225.539732 L170.024019,225.94585 L169.943468,435.182599 C169.938246,448.745775 158.938887,459.736668 145.375711,459.731449 C131.948167,459.726278 121.041717,448.945754 120.829997,435.569808 L120.826863,435.163691 L120.907415,225.926941 C120.912636,212.363766 131.911995,201.372872 145.475171,201.378092 Z" id="Path" fill="#EDBC3D"></path>
                    <polygon id="Path" fill="#35383E" points="203.342763 0 321.222621 0 310.697915 399.809187 253.72265 399.809187 237.724388 357.568905"></polygon>
                    <polygon id="Path" fill="#35383E" points="219.060077 0 101.180218 0 111.705907 399.809187 168.681173 399.809187 184.678452 357.568905"></polygon>
                    <path d="M222.325349,338.334841 C226.829342,331.045936 236.961116,332.794488 241.465109,334.582332 L240.339356,338.8653 C238.463102,339.228763 233.696826,339.945866 231.895229,342.08735 C229.643724,344.769117 231.332353,350.122827 229.643724,351.193569 C227.955095,352.274134 223.451102,351.193569 221.199597,351.193569 C218.948091,351.193569 216.696586,347.450883 222.325349,338.334841 Z" id="Path" fill="#000000"></path>
                    <path d="M421.852727,470.537102 C423.052155,467.590106 422.844883,461.204947 415.452833,458.257951 C408.059801,455.310954 320.818883,470.537102 320.818883,470.537102 C298.360805,468.709965 238.042664,439.377527 215.835081,452.855124 C208.809441,457.118445 211.190614,470.625512 213.783971,483.268127 C217.934324,487.482332 259.918218,491.166078 273.530395,488.002968 C273.530395,480.635477 274.590332,475.890813 274.590332,475.890813 C274.590332,475.890813 282.83701,481.195406 291.738904,483.268127 C309.895349,487.482332 313.868883,492.14841 370.107399,492.14841 C415.212162,487.934205 418.456805,478.886926 421.852727,470.537102 Z" id="Path" fill="#383129"></path>
                    <path d="M417.542113,464.325207 C416.549056,465.49478 415.080812,466.82838 413.251431,468.20691 L413.842611,468.991437 C415.725906,467.57228 417.246351,466.191266 418.290932,464.961012 L417.542113,464.325207 Z M408.393306,471.446841 C406.780427,472.408253 405.055585,473.34045 403.24299,474.225617 L403.67405,475.108319 C405.511024,474.211247 407.259861,473.266082 408.89628,472.290638 L408.393306,471.446841 Z M397.887205,476.595342 C396.09176,477.31178 394.250073,477.971946 392.371678,478.569223 L392.669346,479.505369 C394.570285,478.900924 396.434113,478.232821 398.251272,477.507719 L397.887205,476.595342 Z M386.710986,480.147648 C384.815031,480.603299 382.899379,480.9913 380.969022,481.308001 L381.12806,482.277373 C383.082285,481.956757 385.021446,481.563995 386.940532,481.102784 L386.710986,480.147648 Z M375.140872,482.040203 C373.195035,482.209782 371.24432,482.304587 369.291814,482.322112 L369.300631,483.304405 C371.278868,483.286649 373.255084,483.190604 375.226158,483.018826 L375.140872,482.040203 Z M363.425513,482.288197 C361.449055,482.260059 359.48766,482.215905 357.541765,482.156006 L357.511541,483.137873 C359.462847,483.197939 361.429656,483.242214 363.411529,483.27043 L363.425513,482.288197 Z M351.656815,481.924834 C349.679416,481.830155 347.72057,481.719018 345.780901,481.591775 L345.716598,482.572 C347.662038,482.699622 349.626658,482.811086 351.609833,482.906042 L351.656815,481.924834 Z M339.909083,481.152743 C337.93215,480.986525 335.978764,480.803404 334.049873,480.603863 L333.948791,481.58098 C335.883939,481.781169 337.843585,481.964877 339.82678,482.131621 L339.909083,481.152743 Z M328.203534,479.939838 C326.228137,479.695041 324.283963,479.432952 322.37258,479.154297 L322.230866,480.126353 C324.149218,480.406024 326.10036,480.669053 328.082725,480.914714 L328.203534,479.939838 Z M316.562876,478.239638 C314.588893,477.905159 312.65925,477.553261 310.776875,477.185208 L310.588373,478.149284 C312.478887,478.518929 314.416662,478.87231 316.398765,479.208165 L316.562876,478.239638 Z M305.019323,475.976505 C303.041751,475.531427 301.135245,475.069884 299.306462,474.594688 L299.059414,475.545447 C300.898697,476.023372 302.815654,476.487445 304.803632,476.934865 L305.019323,475.976505 Z M293.360111,473.956717 L293.633914,473.013314 L289.362818,471.768675 C288.897747,471.632587 288.435918,471.49726 287.977407,471.36272 L287.700824,472.305312 L291.917031,473.537326 C292.394995,473.676422 292.876047,473.816228 293.360111,473.956717 Z M282.047818,470.636628 L282.327532,469.694961 L277.998851,468.402133 C277.548937,468.266962 277.109984,468.13481 276.682604,468.005871 L276.398868,468.946333 L281.288969,470.411016 C281.539586,470.485594 281.792561,470.560806 282.047818,470.636628 Z M270.894111,467.683867 L270.817531,466.704524 L269.450869,466.806691 C268.043758,466.907307 266.522227,467.002687 264.948631,467.08758 L265.001549,468.068486 C267.107467,467.954875 269.120916,467.822523 270.894111,467.683867 Z M259.069177,467.343382 C257.068282,467.409247 255.098058,467.451813 253.18776,467.468545 L253.196364,468.450839 C255.114836,468.434036 257.092932,468.391299 259.101496,468.325183 L259.069177,467.343382 Z M247.30947,467.430527 C245.195293,467.380467 243.233591,467.289285 241.447094,467.154671 L241.373284,468.134227 C243.177688,468.270189 245.15602,468.362144 247.286216,468.412584 L247.30947,467.430527 Z M235.476791,467.425908 L235.634547,466.456326 L233.492233,466.098169 C232.142847,465.865689 230.943547,465.644283 229.848953,465.424898 L229.655907,466.388075 L230.9434,466.638072 C232.279555,466.889773 233.768941,467.148032 235.476791,467.425908 Z M224.176014,464.03239 C222.039186,463.367547 220.35193,462.615519 218.915213,461.686136 L218.381664,462.510941 C219.899215,463.492614 221.666959,464.280515 223.884175,464.97037 L224.176014,464.03239 Z" id="Path" fill="#67513B"></path>
                    <path d="M290.753625,332.519435 C285.945109,332.519435 257.874968,347.2053 243.334487,335.790601 C241.742127,334.543039 238.508289,335.564664 238.505342,337.588269 C238.479801,357.126855 238.190013,391.135194 235.250876,404.622615 C232.13983,418.905724 229.512091,416.862473 226.400063,430.123958 C224.245809,439.308763 217.267321,460.733428 226.400063,460.733428 L268.052911,460.733428 C277.907667,460.733428 291.218268,472.138304 324.035038,475.340707 C378.510268,480.664947 391.822833,473.376042 402.699215,469.93788 C427.448091,462.118516 414.888975,444.220424 402.699215,438.503251 C384.843363,430.123958 359.251646,423.837032 346.234763,416.891943 C336.098077,411.489117 332.617674,409.809329 327.413279,404.121625 C318.831625,394.750177 311.293208,345.427279 310.131109,332.558728 C310.050558,331.664806 308.794155,331.20311 308.0299,331.674629 C302.95419,334.798445 295.5199,332.519435 290.753625,332.519435 Z" id="Path" fill="#2D2B30"></path>
                    <path d="M395.406025,451.743815 C397.224194,451.196209 399.142034,452.226203 399.68964,454.044372 C400.237247,455.862541 399.207252,457.780381 397.389083,458.327987 C390.224246,460.485932 385.384422,461.623689 379.061299,462.301535 C370.453267,463.224326 361.35651,462.799549 351.355781,460.709858 C349.49708,460.321475 348.305151,458.499854 348.693534,456.641152 C349.081916,454.782451 350.903538,453.590523 352.762239,453.978905 C362.052966,455.920238 370.427975,456.311313 378.328348,455.464384 C384.138405,454.841539 388.615023,453.789166 395.406025,451.743815 Z" id="Path" fill="#59555F"></path>
                    <path d="M333.141257,435.173145 C323.488862,426.332155 288.288953,406.577456 290.753625,332.519435 C286.570854,332.519435 276.45971,337.922261 261.180515,338.904594 C245.133137,338.423251 245.397385,336.979223 241.147816,334.582332 C241.032883,334.513569 240.900268,334.415336 240.791229,334.346572 C234.126105,329.876961 237.123201,401.292509 232.340226,413.944947 C228.47966,424.161201 221.240854,439.485583 221.240854,458.149894 C224.619095,464.043887 257.91819,461.09689 268.536218,461.09689 C273.501907,434.681979 312.439589,454.819788 320.818883,452.363958 C328.173604,450.21265 333.141257,445.978799 333.141257,435.173145 Z" id="Path" fill="#1D1D20"></path>
                    <path d="M321.312013,403.345583 C310.271582,394.70106 306.032819,352.657244 305.539688,332.519435 C307.511229,332.028269 308.00436,330.653004 309.48277,331.14417 C310.96118,331.635336 310.96118,337.529329 311.45431,342.440989 C311.993611,347.82417 315.890522,364.543463 317.862063,375.840283 C319.833604,387.137102 321.805144,394.013428 329.198176,403.345583 C335.112798,410.811307 358.278155,418.473498 365.671187,424.858657 C364.849957,424.691661 362.714367,423.581625 360.742826,423.974558 C358.278155,424.465724 358.771286,424.95689 355.813483,424.95689 C352.856664,424.95689 335.112798,414.151237 321.312013,403.345583 Z" id="Path" fill="#1D1D20"></path>
                    <path d="M307.230214,334.118141 C308.517381,333.690592 309.907433,334.38745 310.334982,335.674617 C310.744717,336.908152 310.121793,338.236177 308.936289,338.721006 L308.778506,338.779386 L295.636,343.144 L308.676837,346.857117 C310.762621,347.450962 311.091132,350.23184 309.280303,351.318092 L309.12444,351.404607 L298.286,356.958 L312.395122,359.574718 C314.764684,360.014034 315.127101,363.21586 313.003549,364.207306 L312.847633,364.274297 L298.08,370.092 L314.663295,375.366393 C316.729956,376.023672 316.973378,378.813266 315.130232,379.843709 L314.9718,379.925424 L301.955,386.101 L318.153652,388.038573 C320.300044,388.295237 321.069622,390.977713 319.460735,392.34189 L319.332266,392.444163 L307.506,401.282 L325.748226,401.282686 C327.901108,401.282686 328.988244,403.837502 327.568275,405.387974 L327.457055,405.50232 L315.907,416.692 L339.025954,411.653521 C341.176185,411.184799 342.783456,413.549925 341.626776,415.363007 L341.541564,415.488562 L333.457,426.709 L349.807206,418.722703 C350.975113,418.15219 352.374324,418.592525 353.012857,419.702819 L353.091749,419.851411 C353.662261,421.019319 353.221927,422.418529 352.111633,423.057063 L351.96304,423.135954 L326.826143,435.415106 C324.577363,436.513616 322.353587,433.951099 323.670584,431.897953 L323.755671,431.772922 L333.809,417.817 L308.527416,423.328811 C306.163478,423.844119 304.588196,421.010425 306.186753,419.27697 L306.295531,419.165524 L319.683,406.194 L300.118197,406.194346 C297.809714,406.194346 296.802051,403.320727 298.523451,401.87022 L298.647994,401.771384 L311.472,392.186 L292.925725,389.968494 C290.535829,389.682712 289.964968,386.516019 292.01706,385.386744 L292.164495,385.311325 L307.237,378.159 L290.009311,372.679543 C287.864944,371.99755 287.710177,369.061773 289.688363,368.125752 L289.853433,368.054325 L303.08,362.843 L290.305944,360.474752 C288.057971,360.057978 287.571275,357.093196 289.485468,355.956315 L289.633544,355.874545 L301.339,349.875 L286.630215,345.687053 C284.363651,345.041737 284.239663,341.918203 286.36094,341.056231 L286.528546,340.994466 L307.230214,334.118141 Z" id="Path" fill="#000000"></path>
                    <path d="M200.077491,338.334841 C195.573498,331.045936 185.441724,332.794488 180.937731,334.582332 L182.063483,338.8653 C183.939738,339.228763 188.706013,339.945866 190.507611,342.08735 C192.759116,344.769117 191.070487,350.122827 192.759116,351.193569 C194.447745,352.274134 198.951738,351.193569 201.203243,351.193569 C203.454748,351.193569 205.706254,347.450883 200.077491,338.334841 Z" id="Path" fill="#000000"></path>
                    <path d="M0.550210672,470.537102 C-0.64892219,467.590106 -0.442534204,461.204947 6.95039936,458.257951 C14.3432347,455.310954 101.583957,470.537102 101.583957,470.537102 C124.042035,468.709965 184.360176,439.377527 206.567759,452.855124 C213.593399,457.118445 211.212226,470.625512 208.618869,483.268127 C204.468515,487.482332 162.484621,491.166078 148.872445,488.002968 C148.872445,480.635477 147.812508,475.890813 147.812508,475.890813 C147.812508,475.890813 139.56583,481.195406 130.663936,483.268127 C112.507491,487.482332 108.533957,492.14841 52.2955393,492.14841 C7.19057958,487.934205 3.94642763,478.886926 0.550210672,470.537102 Z" id="Path" fill="#383129"></path>
                    <path d="M4.11161913,464.961018 C5.15624063,466.191276 6.67670929,467.572289 8.56001105,468.991438 L9.151188,468.206909 C7.32179766,466.828384 5.85352664,465.494782 4.86042624,464.325201 L4.11161913,464.961018 Z M13.5063724,472.290639 C15.1428022,473.266084 16.8916465,474.211249 18.7286263,475.108319 L19.1596853,474.225616 C17.3470832,473.340451 15.6222337,472.408253 14.0093447,471.446841 L13.5063724,472.290639 Z M24.1514353,477.507719 C25.9686069,478.232822 27.8324484,478.900925 29.7334035,479.50537 L30.0310691,478.569222 C28.1526581,477.971946 26.3109574,477.31178 24.5155001,476.595341 L24.1514353,477.507719 Z M35.4622772,481.102784 C37.3813866,481.563995 39.3205742,481.956758 41.2748284,482.277373 L41.4338643,481.308 C39.5034771,480.9913 37.5877986,480.603299 35.6918208,480.147647 L35.4622772,481.102784 Z M47.1768334,483.018826 C49.1478096,483.190592 51.1239317,483.286635 53.102079,483.304401 L53.1109009,482.322108 C51.1584819,482.304574 49.2078598,482.20977 47.262118,482.040203 L47.1768334,483.018826 Z M58.9915606,483.27043 C60.9734181,483.242214 62.9402111,483.197939 64.8915031,483.137873 L64.861279,482.156006 C62.9153981,482.215905 60.9540186,482.260059 58.9775766,482.288197 L58.9915606,483.27043 Z M70.7931694,482.906042 C72.7763317,482.811086 74.7409394,482.699622 76.6863688,482.572 L76.6220651,481.591775 C74.682407,481.719018 72.7235736,481.830155 70.7461879,481.924834 L70.7931694,482.906042 Z M82.5710435,482.132051 C84.5544784,481.965318 86.5143611,481.781618 88.4497435,481.581433 L88.3486756,480.604313 C86.4195508,480.803852 84.4659286,480.986965 82.4887561,481.153171 L82.5710435,482.132051 Z M94.3201612,480.914714 C96.3025195,480.669053 98.2536559,480.406024 100.172002,480.126353 L100.030288,479.154297 C98.11891,479.432952 96.1747419,479.695041 94.1993514,479.939838 L94.3201612,480.914714 Z M106.00409,479.208165 C107.98619,478.87231 109.923962,478.518929 111.814474,478.149284 L111.625972,477.185208 C109.743599,477.553261 107.813959,477.905159 105.83998,478.239638 L106.00409,479.208165 Z M117.59921,476.934865 C119.587187,476.487445 121.504144,476.023371 123.343426,475.545447 L123.096378,474.594688 C121.267596,475.069884 119.36109,475.531427 117.383518,475.976505 L117.59921,476.934865 Z M128.768926,473.013314 L129.042728,473.956717 L131.910356,473.122192 C132.853775,472.846889 133.784533,472.574527 134.702016,472.305312 L134.425433,471.36272 L130.211308,472.594126 C129.733577,472.733155 129.252757,472.872893 128.768926,473.013314 Z M140.075308,469.694961 L140.355021,470.636628 L144.003195,469.548048 C144.694783,469.340685 145.362396,469.139896 146.003972,468.946333 L145.720235,468.005871 L142.307448,469.030127 C141.585314,469.245815 140.840579,469.467644 140.075308,469.694961 Z M151.585309,466.704524 L151.508728,467.683867 L152.881363,467.786483 C154.294427,467.887528 155.821852,467.983278 157.40129,468.068486 L157.454209,467.08758 L155.900277,466.999386 C154.36832,466.908085 152.909213,466.808048 151.585309,466.704524 Z M163.301344,468.325183 C165.309907,468.391299 167.288004,468.434036 169.206476,468.450839 L169.215079,467.468545 C167.304782,467.451813 165.334558,467.409247 163.333662,467.343382 L163.301344,468.325183 Z M175.116624,468.412584 C177.24682,468.362144 179.225151,468.270189 181.029555,468.134227 L180.955746,467.154671 C179.169249,467.289285 177.207547,467.380467 175.09337,467.430527 L175.116624,468.412584 Z M186.768292,466.456326 L186.926048,467.425908 L188.563494,467.154087 C190.132949,466.887838 191.505684,466.636853 192.746933,466.388075 L192.553887,465.424898 C190.911995,465.753975 189.034516,466.0876 186.768292,466.456326 Z M198.518664,464.97037 C200.735881,464.280515 202.503624,463.492614 204.021176,462.510941 L203.487627,461.686136 C202.05091,462.615519 200.363653,463.367547 198.226825,464.03239 L198.518664,464.97037 Z" id="Path" fill="#67513B"></path>
                    <path d="M131.649215,332.519435 C136.457731,332.519435 164.527872,347.2053 179.068353,335.790601 C180.660713,334.543039 183.894551,335.564664 183.897498,337.588269 C183.923038,357.126855 184.212826,391.135194 187.151964,404.622615 C190.26301,418.905724 192.890748,416.862473 196.002777,430.123958 C198.157031,439.308763 205.135519,460.733428 196.002777,460.733428 L154.349929,460.733428 C144.495173,460.733428 131.184572,472.138304 98.3678015,475.340707 C43.8923753,480.664947 30.5803011,473.376042 19.7032319,469.93788 C-5.04554622,462.118516 7.51396332,444.220424 19.7032319,438.503251 C37.5595746,430.123958 63.1511937,423.837032 76.1680771,416.891943 C86.3047626,411.489117 89.7851654,409.809329 94.9895612,404.121625 C103.571215,394.750177 111.109632,345.427279 112.271731,332.558728 C112.352282,331.664806 113.608685,331.20311 114.372939,331.674629 C119.44865,334.798445 126.882939,332.519435 131.649215,332.519435 Z" id="Path" fill="#2D2B30"></path>
                    <path d="M22.7131127,454.044333 C23.2607404,452.226171 25.1785923,451.196199 26.9967549,451.743826 L28.4177588,452.167105 C34.4335135,453.937242 38.6790634,454.886024 44.0741826,455.464384 C51.9746052,456.311314 60.3497467,455.920238 69.64061,453.978903 C71.4993123,453.590526 73.3209304,454.78246 73.709308,456.641162 C74.0976855,458.499864 72.9057518,460.321482 71.0470495,460.70986 C61.0461922,462.799548 51.9493108,463.224326 43.3412358,462.301535 C37.0180238,461.623683 32.1778742,460.485838 25.0136198,458.327976 C23.1954572,457.780348 22.1654851,455.862496 22.7131127,454.044333 Z" id="Path" fill="#59555F"></path>
                    <path d="M89.2615824,435.173145 C98.9139782,426.332155 134.113886,406.577456 131.649215,332.519435 C135.831985,332.519435 145.94313,337.922261 161.222324,338.904594 C177.269703,338.423251 177.005455,336.979223 181.255024,334.582332 C181.369957,334.513569 181.502572,334.415336 181.611611,334.346572 C188.276734,329.876961 185.279639,401.292509 190.062614,413.944947 C193.92318,424.161201 201.161985,439.485583 201.161985,458.149894 C197.783745,464.043887 164.48465,461.09689 153.866621,461.09689 C148.900932,434.681979 109.96325,454.819788 101.583957,452.363958 C94.2292361,450.21265 89.2615824,445.978799 89.2615824,435.173145 Z" id="Path" fill="#1D1D20"></path>
                    <path d="M101.090826,403.345583 C112.131257,394.70106 116.370021,352.657244 116.863151,332.519435 C114.891611,332.028269 114.39848,330.653004 112.92007,331.14417 C111.44166,331.635336 111.44166,337.529329 110.948529,342.440989 C110.409229,347.82417 106.512317,364.543463 104.540777,375.840283 C102.569236,387.137102 100.597695,394.013428 93.2046637,403.345583 C87.2900418,410.811307 64.1246849,418.473498 56.7316531,424.858657 C57.5530792,424.691661 59.6888658,423.581625 61.6600135,423.974558 C64.1246849,424.465724 63.6315541,424.95689 66.5893563,424.95689 C69.546176,424.95689 87.2900418,414.151237 101.090826,403.345583 Z" id="Path" fill="#1D1D20"></path>
                    <path d="M112.067858,335.674617 C112.477592,334.441082 113.771292,333.749688 115.011271,334.070515 L115.172626,334.118141 L135.874294,340.994466 C138.110781,341.737344 138.099369,344.863318 135.942748,345.632605 L135.772625,345.687053 L121.063,349.875 L132.769295,355.874545 C134.803933,356.917295 134.421691,359.897345 132.262182,360.438785 L132.096896,360.474752 L119.322,362.843 L132.549406,368.054325 C134.642991,368.879144 134.59975,371.81868 132.563033,372.619391 L132.393529,372.679543 L115.165,378.159 L130.238345,385.311325 C132.412869,386.343177 131.945745,389.526826 129.64089,389.943943 L129.477114,389.968494 L110.93,392.186 L123.754845,401.771384 C125.603951,403.153377 124.690778,406.058405 122.443571,406.189738 L122.284642,406.194346 L102.719,406.194 L116.107309,419.165524 C117.844986,420.84904 116.356973,423.729517 114.028451,423.357716 L113.875424,423.328811 L88.593,417.817 L98.6471687,431.772922 C100.110152,433.803541 97.9606115,436.42864 95.7143163,435.477823 L95.576697,435.415106 L70.4397995,423.135954 C69.2211137,422.540637 68.7157737,421.070097 69.3110909,419.851411 C69.8816032,418.683504 71.2559226,418.170736 72.4420679,418.653993 L72.5956339,418.722703 L88.945,426.709 L80.8612752,415.488562 C79.5748381,413.702989 81.1040029,411.286628 83.2277786,411.625375 L83.3768858,411.653521 L106.495,416.692 L94.9457852,405.50232 C93.399561,404.00429 94.3964743,401.412937 96.4951688,401.28742 L96.6546142,401.282686 L114.896,401.282 L103.070574,392.444163 C101.339055,391.150054 102.011685,388.441641 104.086814,388.063038 L104.249188,388.038573 L120.446,386.101 L107.431039,379.925424 C105.471769,378.995714 105.606383,376.198757 107.571549,375.426019 L107.739544,375.366393 L124.321,370.092 L109.555207,364.274297 C107.313004,363.390926 107.568171,360.178774 109.841883,359.610729 L110.007717,359.574718 L124.116,356.958 L113.2784,351.404607 C111.348423,350.415496 111.5684,347.623936 113.556263,346.911583 L113.726003,346.857117 L126.766,343.144 L113.624334,338.779386 C112.390799,338.369651 111.699405,337.075951 112.020232,335.835972 L112.067858,335.674617 Z" id="Path" fill="#000000"></path>
                    <polygon id="Path" fill="#1D1F23" points="237.724388 371.321555 314.346296 371.321555 314.346296 399.809187 241.401257 399.809187"></polygon>
                    <polygon id="Path" fill="#1D1F23" points="184.678452 371.321555 108.056544 371.321555 108.056544 399.809187 181.001582 399.809187"></polygon>
                </g>
                <g id="upper-limb" transform="translate(0.000000, 295.618029)" fill-rule="nonzero">
                    <path d="M52.5549963,160.611307 C57.5509411,97.3854629 76.6216429,5.68434189e-14 76.6216429,5.68434189e-14 L414.052738,5.68434189e-14 C414.052738,5.68434189e-14 502.626682,248.694085 454.819523,317.293286 C407.012364,385.892488 151.278887,343.816254 52.5547998,343.816254 C-23.7349818,343.816254 46.9192584,231.935498 52.5549963,160.611307 Z" id="Path" fill="#17100F"></path>
                    <path d="M85.1986529,286.739521 C95.0201798,269.232863 117.174051,263.002833 134.680709,272.82436 C152.187367,282.645887 158.417397,304.799758 148.59587,322.306416 C130.609977,354.365877 111.787427,413.874888 99.2953658,476.427199 L98.6942094,479.465326 C93.145386,507.771004 89.3374675,534.631049 87.7542943,556.615316 L87.6151849,558.620557 C86.930109,568.89282 86.7664222,577.790773 87.1114046,584.942923 L87.1795021,586.219285 C87.3506941,589.138864 87.6070165,591.645615 87.9284342,593.684175 L88.0195802,594.240388 C88.2456082,595.567493 88.4537473,596.414592 88.551478,596.684827 C95.37833,615.561786 85.6097887,636.398841 66.7328303,643.225693 C47.855872,650.052545 27.0188167,640.284004 20.1919647,621.407045 C9.59703828,592.110968 13.8450463,533.122262 28.0103972,462.191176 C41.8658261,392.811982 62.7726439,326.713394 85.1986529,286.739521 Z" id="Path" fill="#EBBAAA"></path>
                    <path d="M352.555293,272.824481 C370.061884,263.002835 392.215798,269.232713 402.037444,286.739304 C424.463791,326.713141 445.370723,392.811585 459.226293,462.191141 C473.391623,533.121761 477.63978,592.11065 467.045287,621.406633 C460.218663,640.283674 439.381725,650.052466 420.504685,643.225842 C401.816414,636.467484 392.055138,615.977618 398.485648,597.252123 L398.685476,596.68524 C398.796248,596.37893 399.048824,595.331668 399.308525,593.684453 C399.675847,591.354635 399.958143,588.413306 400.12551,584.943105 C400.492713,577.329483 400.283499,567.737534 399.482524,556.615399 C397.842751,533.845896 393.816502,505.846176 387.941339,476.427233 C375.449168,413.874687 356.626549,354.365914 338.64047,322.306632 C328.818824,304.800041 335.048702,282.646128 352.555293,272.824481 Z" id="Path" fill="#EBBAAA"></path>
                    <circle id="Oval" fill="#C4C4C4" cx="243.618109" cy="293.717314" r="98.2332155"></circle>
                    <path d="M434.190547,249.512367 C404.90035,191.243371 276.03507,184.678445 276.03507,184.678445 L276.03507,593.328622 L472.501502,593.328622 L487.236484,526.654792 C487.236484,526.654792 465.293148,311.386523 434.190547,249.512367 Z" id="Path" fill="#E2C9BD"></path>
                    <polygon id="Path" fill="#CCA999" points="391.950265 444.645774 450.514943 410.739597 463.872696 438.480657"></polygon>
                    <polygon id="Path" fill="#CCA999" points="411.028138 448.025979 466.843268 454.586975 457.974774 471.92612 411.028138 460.829696"></polygon>
                    <path d="M53.0457694,249.512367 C82.335869,191.243371 211.201148,184.678445 211.201148,184.678445 L211.201148,593.328622 L14.7348153,593.328622 L-1.40687462e-12,526.654792 C-1.40687462e-12,526.654792 21.9433652,311.386523 53.0457694,249.512367 Z" id="Path" fill="#D8B9AA"></path>
                    <polygon id="Path" fill="#CCA999" points="94.6955722 444.645774 36.1308938 410.739597 22.773927 438.480657"></polygon>
                    <polygon id="Path" fill="#CCA999" points="75.6181906 448.025979 19.8029616 454.586975 28.6716528 471.92612 75.6181906 460.829696"></polygon>
                    <polygon id="Path" fill="#E2C9BD" points="66.7983213 637.533569 106.580809 178.293286 202.358194 173.872792 330.061374 398.826855 228.883127 686.64723"></polygon>
                    <polygon id="Path" fill="#E9D5CB" points="92.3389574 365.552318 118.368795 149.93041 188.607509 180.873873 208.254152 348.852671 219.059805 440.209562"></polygon>
                    <polygon id="Path" fill="#CCA999" points="273.70758 459.072693 278.362561 460.639717 211.563974 659.070812 206.908993 657.503789"></polygon>
                    <path d="M192.254522,647.158193 L205.384204,610.123429 L196.125513,606.841008 L182.995831,643.875772 L192.254522,647.158193 Z M218.513887,573.088665 L231.643569,536.053902 L222.384878,532.771481 L209.255196,569.806245 L218.513887,573.088665 Z M244.773251,499.019138 L257.902934,461.984375 L248.644243,458.701954 L235.51456,495.736718 L244.773251,499.019138 Z" id="Path" fill="#000000"></path>
                    <polygon id="Path" fill="#E2C9BD" points="236.250618 235.884473 207.762986 142.562919 147.840724 176.453378 147.840724 297.280233"></polygon>
                    <polygon id="Path" fill="#F4E4DC" points="420.435933 637.533569 380.653445 178.293286 282.911396 155.333237 204.324823 243.743131 258.351127 686.64723"></polygon>
                    <polygon id="Path" fill="#E9D5CB" points="420.435933 637.533569 311.890194 648.955145 250.9856 218.693661 204.324823 243.743131 258.351127 686.64723"></polygon>
                    <polygon id="Path" fill="#F4E4DC" points="204.324823 243.743131 277.999735 140.598254 322.204682 174.97988 277.999735 302.68306"></polygon>
                    <polygon id="Path" fill="#E2C9BD" points="204.324823 243.743131 274.070406 281.562919 322.204682 174.97988 277.999735 302.68306"></polygon>
                    <polygon id="Path" fill="#E9D5CB" points="293.717049 477.538184 401.773586 461.820869 429.278887 601.312035 325.151678 630.782"></polygon>
                    <polygon id="Path" fill="#CCA999" points="321.22235 533.531117 302.558039 504.061152 319.257685 541.389774 410.614576 518.796134"></polygon>
                    <polygon id="Path" fill="#000000" points="382.985403 485.435501 384.21548 495.181503 333.625374 501.566662 332.395297 491.82066"></polygon>
                    <polygon id="Path" fill="#CCAA99" points="293.717049 477.538184 329.081007 622.923343 429.278887 601.312035 317.293021 636.675993"></polygon>
                    <polygon id="Path" fill="#E9D5CB" points="193.519169 477.538184 85.4626323 461.820869 57.9573319 601.312035 162.08454 630.782"></polygon>
                    <polygon id="Path" fill="#CCA999" points="166.013869 533.531117 184.67818 504.061152 167.978533 541.389774 76.6216429 518.796134"></polygon>
                    <polygon id="Path" fill="#000000" points="104.250816 485.435501 154.840922 491.82066 153.610844 501.566662 103.020738 495.181503"></polygon>
                    <polygon id="Path" fill="#CCAA99" points="193.519169 477.538184 158.155212 622.923343 57.9573319 601.312035 169.943198 636.675993"></polygon>
                </g>
                <g id="head" transform="translate(39.360798, 0.000000)">
                    <rect id="Rectangle" fill="#EBBAAA" fill-rule="nonzero" x="169.875686" y="400.72757" width="68.7632509" height="113.95053" rx="34.3816254"></rect>
                    <path d="M336.872152,335.893647 C358.573834,335.893647 376.165438,318.301061 376.165438,296.600361 C376.165438,274.899661 358.573834,257.307075 336.872152,257.307075 C315.171453,257.307075 297.578866,274.899661 297.578866,296.600361 C297.578866,318.301061 315.171453,335.893647 336.872152,335.893647 Z" id="Path" fill="#E4C1C1" fill-rule="nonzero"></path>
                    <path d="M71.6424702,335.893647 C49.9418688,335.893647 32.3496751,318.301061 32.3496751,296.600361 C32.3496751,274.899661 49.9418688,257.307075 71.6424702,257.307075 C93.3441522,257.307075 110.935756,274.899661 110.935756,296.600361 C110.935756,318.301061 93.3441522,335.893647 71.6424702,335.893647 Z" id="Path" fill="#E4C1C1" fill-rule="nonzero"></path>
                    <path d="M66.7308094,211.136481 C66.7308094,135.182559 128.304371,73.6099795 204.257311,73.6099795 C280.211233,73.6099795 341.783813,135.182559 341.783813,211.136481 L341.783813,271.666806 C341.783813,287.557011 339.578477,303.370594 335.230675,318.6547 L317.208809,382.002354 C302.976781,432.031548 257.277707,466.542842 205.264202,466.542842 C154.161318,466.542842 109.035926,433.2074 94.018032,384.361916 L74.315396,320.282425 C69.28782,303.930524 66.7308094,286.92046 66.7308094,269.813146 L66.7308094,211.136481 Z" id="Path" fill="#F4D5CC" fill-rule="nonzero"></path>
                    <path d="M243.441559,350.62863 C243.514251,351.601139 243.550597,352.584453 243.550597,353.575626 L243.550597,373.222269 C243.550597,394.922969 225.958011,412.515555 204.257311,412.515555 C182.556612,412.515555 164.964025,394.922969 164.964025,373.222269 L164.964025,353.575626 C164.964025,352.584453 165.000371,351.601139 165.073064,350.62863 L243.441559,350.62863 Z" id="Path" fill="#393939"></path>
                    <g id="Clipped" transform="translate(164.964025, 313.424764)">
                        <mask id="mask-2" fill="white">
                            <use xlink:href="#path-1"></use>
                        </mask>
                        <g id="Rectangle" transform="translate(39.293286, 49.974184) scale(-1, 1) translate(-39.293286, -49.974184) "></g>
                        <circle id="Oval" fill="#FF6C6C" fill-rule="nonzero" mask="url(#mask-2)" transform="translate(39.293286, 104.002452) scale(-1, 1) translate(-39.293286, -104.002452) " cx="39.2932862" cy="104.002452" r="24.5583039"></circle>
                    </g>
                    <rect id="Rectangle" fill="#FFFFFF" fill-rule="nonzero" transform="translate(204.257311, 360.451951) scale(-1, 1) translate(-204.257311, -360.451951) " x="164.964025" y="350.62863" width="78.5865724" height="19.6466431"></rect>
                    <circle id="Oval" fill="#F2CACA" fill-rule="nonzero" cx="123.706074" cy="321.157683" r="29.4699647"></circle>
                    <path d="M253.398311,246.502715 C253.66102,243.876501 255.946759,241.941307 258.556295,242.087321 L258.77447,242.104336 L288.244434,245.052315 C290.943598,245.322321 292.91282,247.729309 292.642813,250.428474 C292.380104,253.054687 290.094365,254.989882 287.484829,254.843868 L287.266655,254.826853 L257.79669,251.878874 C255.097526,251.608868 253.128304,249.201879 253.398311,246.502715 Z" id="Path" fill="#000000" fill-rule="nonzero"></path>
                    <path d="M149.740153,242.104336 C152.439317,241.83433 154.846305,243.803551 155.116312,246.502715 C155.379021,249.128929 153.521905,251.478547 150.935154,251.852335 L150.717932,251.878874 L121.247968,254.826853 C118.548804,255.096859 116.141815,253.127638 115.871809,250.428474 C115.6091,247.80226 117.466215,245.452642 120.052966,245.078854 L120.270188,245.052315 L149.740153,242.104336 Z" id="Path" fill="#000000" fill-rule="nonzero"></path>
                    <path d="M263.19724,238.642764 C269.607406,238.642764 274.822545,243.759285 274.981494,250.131163 L274.985226,250.43075 L274.985226,279.900714 C274.985226,286.411039 269.707565,291.6887 263.19724,291.6887 C256.787075,291.6887 251.571936,286.57218 251.412987,280.200301 L251.409255,279.900714 L251.409255,250.43075 C251.409255,243.920425 256.686916,238.642764 263.19724,238.642764 Z" id="Path" fill="#000000" fill-rule="nonzero"></path>
                    <path d="M145.321311,238.642764 C151.731477,238.642764 156.946616,243.759285 157.105564,250.131163 L157.109297,250.43075 L157.109297,279.900714 C157.109297,286.411039 151.831636,291.6887 145.321311,291.6887 C138.911145,291.6887 133.696007,286.57218 133.537058,280.200301 L133.533325,279.900714 L133.533325,250.43075 C133.533325,243.920425 138.810986,238.642764 145.321311,238.642764 Z" id="Path" fill="#000000" fill-rule="nonzero"></path>
                    <path d="M194.564341,281.706002 L211.107412,283.987455 L210.979066,284.882499 C210.615623,287.308575 210.184803,289.219482 208.851236,294.577301 L207.809571,298.765991 C207.656048,299.394895 207.519882,299.963586 207.388112,300.526664 C205.836377,307.157498 205.385204,311.422371 205.9698,313.847791 L206.040477,314.120997 C206.152005,314.5183 206.233978,314.63954 206.313182,314.696738 C206.430066,314.781146 206.652471,314.884014 207.040119,314.988114 C207.617633,315.143201 208.379781,315.242348 209.334686,315.260626 L209.660138,315.26369 L209.660138,331.963336 C199.088021,331.963336 191.908641,326.77871 189.735073,317.760825 C188.37882,312.133889 188.974916,306.079822 190.985233,297.335886 L191.398485,295.580627 C191.554323,294.932522 191.722178,294.248106 191.91678,293.46509 L193.236296,288.150884 C194.016746,284.949651 194.294339,283.594529 194.525147,281.984835 L194.564341,281.706002 Z" id="Path" fill="#EBBAAA" fill-rule="nonzero"></path>
                    <circle id="Oval" fill="#F2CACA" fill-rule="nonzero" cx="284.808548" cy="321.157683" r="29.4699647"></circle>
                    <path d="M231.264975,201.971448 C245.213755,195.554535 266.039782,193.93445 280.910469,196.625435 C285.717281,197.495616 290.104785,199.145079 294.042952,201.346948 C296.159705,202.530446 298.02174,203.804209 299.623497,205.091765 L300.104406,205.485012 C300.867121,206.119838 301.435576,206.648907 301.805795,207.029883 C304.07435,209.364351 304.020915,213.095839 301.686447,215.364393 C299.413411,217.573248 295.815917,217.580717 293.53402,215.424605 L293.23023,215.130746 L293.173625,215.078496 C292.921649,214.846995 292.609139,214.57765 292.238107,214.279399 C291.130591,213.389133 289.809,212.485073 288.290273,211.635937 C285.441542,210.043182 282.271459,208.851404 278.811015,208.224957 C266.157971,205.935274 247.739647,207.368061 236.191541,212.680582 C233.234295,214.041016 229.734124,212.746543 228.373691,209.789298 C227.013257,206.832052 228.30773,203.331881 231.264975,201.971448 Z" id="Path" fill="#62360D" fill-rule="nonzero"></path>
                    <path d="M127.60652,196.625362 C142.476805,193.93445 163.302832,195.554535 177.251612,201.971448 C180.208857,203.331881 181.50333,206.832052 180.142896,209.789298 C178.782463,212.746543 175.282292,214.041016 172.325046,212.680582 C160.77694,207.368061 142.358616,205.935274 129.705974,208.224884 C126.245128,208.851404 123.075045,210.043182 120.226314,211.635937 C118.707587,212.485073 117.385996,213.389133 116.27848,214.279399 C115.981654,214.518 115.722283,214.738101 115.501396,214.935126 L115.16465,215.245044 C112.896096,217.579513 109.164609,217.632947 106.83014,215.364393 C104.495672,213.095839 104.442237,209.364351 106.710792,207.029883 L106.95668,206.783865 C107.406034,206.345345 108.05283,205.7672 108.89309,205.091765 C110.494847,203.804209 112.356882,202.530446 114.473635,201.346948 C118.411802,199.145079 122.799306,197.495616 127.60652,196.625362 Z" id="Path" fill="#62360D" fill-rule="nonzero"></path>
                    <path d="M206.463336,111.337895 C190.668979,120.053902 145.185629,132.593799 120.48206,161.666234 C93.8805055,192.97316 75.6218977,225.197584 74.6484066,256.991746 C73.9664829,279.263332 74.9566897,311.135809 73.4351784,335.459484 C75.5195509,335.722091 77.5188039,335.775342 79.0099613,335.402481 C86.0925762,366.64752 98.7224207,408.061661 121.74141,431.671033 C127.308286,453.446389 139.226922,502.497181 142.370385,532.360078 C146.299714,569.6887 142.370385,686.586227 133.529396,686.586227 C113.006513,686.586227 98.5652476,689.533223 94.7272758,677.254071 C87.3597847,653.6781 92.7626115,609.473153 84.9039543,572.144531 C83.7691332,566.754131 82.3238504,555.516167 80.7171603,540.717297 C80.1362503,545.125877 79.5670663,549.67096 79.0374666,554.390842 C75.140555,589.120213 78.5433536,699.654192 74.6484066,719.220283 C71.9882511,732.580983 25.4733499,727.548495 25.4733499,710.904842 C25.4733499,638.02169 29.7809748,584.093619 32.7710956,554.390842 C37.1535741,510.856828 32.7710956,461.453379 32.7710956,423.30058 L32.7710956,422.586425 C32.7708009,383.82851 32.7703097,277.816206 38.0936659,244.273492 C49.5070885,172.356955 78.5443359,122.477075 103.86493,98.5091527 C129.186506,74.5412304 186.158824,49.5944141 202.227813,62.3120792 C204.235912,63.9014259 205.898966,66.2754929 207.251562,69.1297 C209.956616,65.253487 213.770056,62.1540657 218.992293,60.3501654 C246.00741,51.0184028 317.225509,88.8371102 340.801481,150.23287 C358.375403,195.998743 373.947332,247.206736 377.638937,311.827492 C383.175361,408.744382 347.333007,502.103266 350.133636,600.140997 C351.607134,651.713435 371.015071,674.455407 340.801481,698.374213 C313.404237,720.064107 273.018597,721.90598 251.409255,694.444884 C204.257311,634.522623 295.225198,500.802658 320.663672,376.169266 C323.951537,360.062948 328.031163,342.934022 329.013495,334.911315 C381.568265,344.243471 394.338583,265.656898 341.783813,257.798241 C341.783813,224.833139 304.444385,169.554361 284.318364,150.23287 C257.930483,124.900575 217.005801,117.618919 206.463336,111.337895 Z" id="Combined-Shape" fill="#311E1C" fill-rule="nonzero"></path>
                    <path d="M200.427521,107.208643 C74.9222203,111.20486 36.1563105,269.219817 36.1563105,269.219817 C15.3545271,269.219817 7.04030388,243.963853 7.84366432,211.309312 L6.8448942,210.305428 L7.98227097,207.385704 C8.13100061,204.140238 8.36550762,200.830901 8.68264788,197.474351 L3.09975286,191.888665 L10.246944,184.739647 C10.4356148,183.484111 10.6347208,182.225068 10.8441101,180.963322 L0.282915402,170.398184 L12.2874073,158.393103 L5.66108572,146.431245 L16.331767,135.761153 L13.3734737,120.131266 L27.2373239,111.98675 L24.8525161,102.932594 L36.1902009,91.5945166 L29.7558271,85.160241 L51.5293175,76.2554 L49.0964737,65.8200855 L62.2002935,65.5853081 L62.4350709,52.4816848 L81.540449,46.244465 L83.1092334,31.8071293 L98.2135726,29.5715378 L104.215622,23.5692919 L116.604795,22.6194749 L113.552689,14.2324212 L137.04418,15.0485428 L141.520668,4.85272085 L165.132004,9.12340989 L170.680216,0 L196.921749,13.9093598 C198.742849,13.8613183 200.573579,13.8313935 202.413855,13.8194336 L204.257311,13.8134565 C206.716596,13.8134565 209.158999,13.8452297 211.584321,13.9091343 L237.824583,0 L243.373778,9.12340989 L266.985113,4.85272085 L271.461601,15.0485428 L294.95211,14.2324212 L291.900986,22.6194749 L304.289177,23.5692919 L310.291226,29.5715378 L325.395566,31.8071293 L326.96435,46.244465 L346.07071,52.4816848 L346.305488,65.5853081 L359.408816,65.8200855 L356.97558,76.2554 L378.748972,85.160241 L372.314696,91.5945166 L383.652774,102.932594 L381.267672,111.98675 L395.131325,120.131266 L392.173523,135.761153 L402.844597,146.431245 L396.217785,158.393103 L408.222866,170.398184 L397.668687,180.954319 C397.879293,182.223103 398.079502,183.489156 398.269158,184.751661 L405.405537,191.888665 L399.830821,197.46537 C400.14931,200.834661 400.384544,204.1564 400.533343,207.413735 L401.659905,210.305428 L400.670425,211.299285 C401.475774,243.958683 393.161969,269.219817 372.357919,269.219817 L372.164902,268.466527 C369.051317,256.578532 327.663378,107.962056 204.257311,107.135011 L200.427521,107.208643 Z" id="Path" fill="#8A8080"></path>
                </g>
            </g>
        </g>
    </g>
</svg>