<?xml version="1.0" encoding="UTF-8"?>
<svg width="430px" height="1307px" viewBox="0 0 430 1307" version="1.1" xmlns="http://www.w3.org/2000/svg" xmlns:xlink="http://www.w3.org/1999/xlink">
    <!-- Generator: Sketch 55.2 (78181) - https://sketchapp.com -->
    <title>gee_me_045</title>
    <desc>Created with Sketch.</desc>
    <defs>
        <linearGradient x1="50.0000235%" y1="0%" x2="50.0000235%" y2="100%" id="linearGradient-1">
            <stop stop-color="#F23F05" offset="0%"></stop>
            <stop stop-color="#EF591E" offset="100%"></stop>
        </linearGradient>
        <linearGradient x1="49.7342933%" y1="0.633713561%" x2="49.7711499%" y2="102.920152%" id="linearGradient-2">
            <stop stop-color="#E34208" offset="0%"></stop>
            <stop stop-color="#E34208" stop-opacity="0" offset="100%"></stop>
        </linearGradient>
        <linearGradient x1="49.6929219%" y1="0%" x2="49.2438893%" y2="84.6860158%" id="linearGradient-3">
            <stop stop-color="#E34208" offset="0%"></stop>
            <stop stop-color="#E34208" stop-opacity="0" offset="100%"></stop>
        </linearGradient>
        <linearGradient x1="48.0255631%" y1="0%" x2="48.6873328%" y2="104.425416%" id="linearGradient-4">
            <stop stop-color="#E34208" offset="0%"></stop>
            <stop stop-color="#E34208" stop-opacity="0" offset="100%"></stop>
        </linearGradient>
        <path d="M0,63 C0,47.23 5.2058,38.57 14.6276,32.45 C59.458,3.35 117.586,1.98 171,0 C171.436,0 172.831,3.24 173.022,3.63 C174.939,7.57 185,29.05 185,46.24 C185,59.39 186.126,72.32 182.5,79 C180.864,82.01 170.649,83.66 167.218,83.66 L5.5625,83.66 C2.4904,83.66 0,66.07 0,63 Z" id="path-5"></path>
        <path d="M415.165278,591 C415.165278,575.23 409.959278,566.57 400.537278,560.45 C355.707278,531.35 297.579278,529.98 244.165278,528 C243.729278,528 242.334278,531.24 242.143278,531.63 C240.226278,535.57 230.165278,557.05 230.165278,574.24 C230.165278,587.39 229.039278,600.32 232.665278,607 C234.301278,610.01 244.516278,611.66 247.947278,611.66 L409.603278,611.66 C412.675278,611.66 415.165278,594.07 415.165278,591 Z" id="path-7"></path>
        <path d="M127.630555,325.52 C127.527555,326.718 127.475555,327.93 127.475555,329.155 L127.475555,335.27 C127.475555,358.488 146.297555,377.31 169.515555,377.31 C192.734555,377.31 211.556555,358.488 211.556555,335.27 L211.556555,329.155 C211.556555,327.93 211.503555,326.718 211.401555,325.52 L127.630555,325.52 Z" id="path-9"></path>
    </defs>
    <g id="GEE!-ME" stroke="none" stroke-width="1" fill="none" fill-rule="evenodd">
        <g id="gee_me_045" transform="translate(-385.000000, -147.000000)">
            <g transform="translate(385.000000, 147.000000)">
                <g id="Group-4" transform="translate(13.999722, 695.000000)">
                    <path d="M255.637306,124.264962 C272.944274,120.686172 289.875526,131.815059 293.454316,149.122028 C299.467257,178.200506 303.134833,244.521729 305.313244,340.967403 L305.517085,350.292317 C306.870634,414.30294 307.421278,484.081254 307.421278,548.25 C307.421278,565.923112 293.09439,580.25 275.421278,580.25 C257.748166,580.25 243.421278,565.923112 243.421278,548.25 L243.41752,539.095999 C243.364716,474.767819 242.751549,405.368755 241.329563,342.412597 L241.13918,334.238391 C239.064473,247.819103 235.585675,186.24975 230.926232,162.802281 L230.78024,162.081972 C227.20145,144.775004 238.330338,127.843752 255.637306,124.264962 Z" id="Path" fill="#F6DDD6" fill-rule="nonzero"></path>
                    <path d="M113.084218,133.520133 C116.66295,116.213153 133.594165,105.084208 150.901145,108.66294 C168.208125,112.241672 179.33707,129.172886 175.758338,146.479867 C170.174425,173.48404 164.534833,246.69523 162.29707,324.188055 L162.151803,329.395083 C159.868161,414.239975 161.948832,488.967448 168.54887,530.191128 C171.342808,547.641996 159.461019,564.053654 142.010151,566.847592 C124.559282,569.64153 108.147624,557.75974 105.353686,540.308872 C97.8169398,493.234537 95.7034415,413.080456 98.3237372,322.340695 L98.4684023,317.482615 C100.899387,238.243746 106.650372,164.634638 113.084218,133.520133 Z" id="Path" fill="#F6DDD6" fill-rule="nonzero"></path>
                    <path d="M67.0002784,33.181 L89.0002784,0.681 C94.3332784,1.515 107.500278,2.681 117.500278,0.681 C130.000278,-1.819 151.500278,3.181 174.000278,5.681 C196.500278,8.181 210.500278,3.181 216.000278,3.181 C221.500278,3.181 225.000278,0.681 237.000278,3.181 C246.600278,5.181 280.667278,2.348 296.500278,0.681 L310.000278,40.681 L67.0002784,33.181 Z" id="Path" fill="#CF3303" fill-rule="nonzero"></path>
                    <path d="M33.0646784,72.551 L65.0982784,17.182 C65.0982784,17.182 133.670278,29.881 184.724278,30.897 C235.778278,31.913 310.857278,25.817 310.857278,25.817 L340.388278,72.551 C340.388278,72.551 360.409278,166.018 367.416278,239.675 C374.424278,313.33 355.905278,431.18 355.905278,431.18 L295.341278,415.94 L270.815278,415.94 L256.800278,431.18 L184.724278,431.18 L166.000283,431.18 L145.183278,431.18 L12.0428784,415.94 C12.0428784,415.94 -1.47162164,308.25 6.53677836,239.675 C14.5451784,171.098 33.0646784,72.551 33.0646784,72.551 Z" id="Path" fill="url(#linearGradient-1)" fill-rule="nonzero"></path>
                    <polygon id="Path" fill="url(#linearGradient-2)" fill-rule="nonzero" points="135.000278 126.958 147.000278 28.5 165.000278 30 183.000278 102.458 168.231278 423"></polygon>
                    <polygon id="Path" fill="url(#linearGradient-3)" fill-rule="nonzero" points="43.0002784 114.62 94.4292784 21 108.000278 88.794 108.000278 114.62 74.4292784 400 43.0002784 215.988"></polygon>
                    <path d="M259.000278,113.636 L303.736278,29 L315.541278,90.288 L342.879278,205.276 C342.879278,205.276 347.228278,315.01 303.736278,317.93 C260.243278,320.85 271.427278,232.126 271.427278,232.126 L259.000278,113.636 Z" id="Path" fill="url(#linearGradient-4)" fill-rule="nonzero"></path>
                    <path d="M0.000278361735,591 C0.000278361735,560.3 19.7259784,556.55 51.8762784,546.03 C67.6232784,540.88 83.6942784,536.39 100.000278,533.69 C110.247278,531.99 113.000278,541 131.000278,541 C147.052278,541 167.078278,533.05 171.225278,531.33 C171.745278,531.11 172.361278,530.92 172.775278,531.3 C172.875278,531.39 172.960278,531.51 173.022278,531.63 C174.939278,535.57 185.000278,557.05 185.000278,574.24 C185.000278,587.39 186.126278,600.32 182.500278,607 C180.864278,610.01 170.649278,611.66 167.218278,611.66 L5.56277836,611.66 C2.49067836,611.66 0.000278361735,594.07 0.000278361735,591 Z" id="Path" fill="#DEDEDE" fill-rule="nonzero"></path>
                    <g id="Group" transform="translate(0.000278, 528.000000)">
                        <mask id="mask-6" fill="white">
                            <use xlink:href="#path-5"></use>
                        </mask>
                        <g id="Path"></g>
                        <path d="M23.4999,42 C7.9999,42 3.6666,33 1.9999,31.5 C-1.0001,35 1.4999,49.1 -0.5001,55.5 C-2.5001,61.9 0.3332,68.17 1.9999,70.5 L194,70.5 C194.833,57.17 188.048,11.54 181.5,13 C163.5,17 123,15.5 114.5,15 C107.7,14.6 74.667,23.17 59,27.5 C61,29.5 64.3,39.7 65.5,44.5 C67,50.5 67.5,50.5 62,52 C56.5,53.5 55.5,42 49.5,42 L23.4999,42 Z" id="Path" fill="#E9EAEB" fill-rule="nonzero" mask="url(#mask-6)"></path>
                        <path d="M147.5,9 C159.5,8.2 169.5,1.67 173.5,-2 C177.5,2 187.4,13 185,17 C182,22 159,26 149,26 C139,26 132.5,10 147.5,9 Z" id="Path" fill="#CDC7BB" fill-rule="nonzero" mask="url(#mask-6)"></path>
                        <path d="M88.5,68.5 C63,67.5 40.9999,73.5 12.9999,67.5 C-37.0001,62 -11.3117,65.27 -24,89.59 L172.084,89.59 C191.5,85 197.942,56.71 183.5,59 C152,64 108.01,69.27 88.5,68.5 Z" id="Path" fill="#CDC7BB" fill-rule="nonzero" mask="url(#mask-6)"></path>
                        <path d="M191,67.5 C184.2,70.3 92,70.5 89,68.5 C96,67 147.519,61.16 159,60.5 C176.5,59.5 183.167,58.17 191,58.5 C193.833,60.5 197.8,64.7 191,67.5 Z" id="Path" fill="#DEDEDE" fill-rule="nonzero" mask="url(#mask-6)"></path>
                    </g>
                    <path d="M95.2370227,531.399385 C96.1210182,529.946182 98.0156914,529.484749 99.4688938,530.368744 L99.8658038,530.602088 C100.831612,531.162801 103.066868,532.437636 104.139292,533.075583 L104.411956,533.239355 C110.026985,536.656183 113.080128,539.754961 113.080128,544.08 C113.080128,545.999857 111.348842,547.436136 109.48464,547.116536 L109.30953,547.08139 L87.319,542.02 L93.7423999,550.40734 C95.5112438,552.716909 93.3897373,555.929593 90.6155043,555.283932 L90.4547513,555.242368 L68.654,549.042 L73.4634925,553.813682 C74.6245214,554.965628 74.6762562,556.812854 73.6134795,558.02668 L73.4805963,558.169214 C72.3286502,559.330243 70.4814247,559.381978 69.2675981,558.319201 L69.1250642,558.186318 L55.8310642,544.996318 C53.612241,542.794853 55.7042346,539.111463 58.6796543,539.805404 L58.8428055,539.847632 L83.202,546.775 L77.2261568,538.97266 C75.505598,536.726137 77.469244,533.577576 80.1974407,534.064967 L80.3620266,534.09861 L102.203,539.125 L101.718923,538.815855 L101.209934,538.501385 C100.250213,537.917381 96.879901,536.003685 96.2676629,535.631256 C94.8144606,534.74726 94.3530272,532.852587 95.2370227,531.399385 Z" id="Path" fill="#CDC7BB" fill-rule="nonzero"></path>
                    <path d="M92.3382784,505.00015 C88.4930843,505.00015 85.3615872,506.604953 83.1992043,509.562058 C81.1278563,512.381886 80.0194284,516.350294 80.0194284,520.91 C80.0194284,525.121214 82.5216209,528.908408 86.7942674,531.753511 C90.58183,534.274851 95.4450736,535.78985 99.5252784,535.78985 C101.480449,535.78985 102.91501,535.438808 103.937272,534.72394 C104.8767,534.065465 105.483537,533.10325 105.837768,531.749817 C106.125537,530.650617 106.2484,529.330758 106.269324,527.468154 L106.269324,526.198938 L106.205539,522.211728 L106.198128,520.91 C106.198128,511.78599 100.231374,505.00015 92.3382784,505.00015 Z M92.3382784,511.15985 C96.5637108,511.15985 99.9167867,514.887407 100.035192,520.596633 L100.043698,522.038295 C100.047331,522.421715 100.052962,522.829104 100.060953,523.310405 L100.109172,526.197481 C100.112231,526.503406 100.11319,526.765698 100.112596,527.043412 L100.110473,527.354895 C100.102093,528.164273 100.072061,528.804772 100.022483,529.302035 L99.985,529.618 L99.8887343,529.623286 C99.7774642,529.627737 99.6563817,529.63015 99.5252784,529.63015 C96.6780618,529.63015 92.9984711,528.483883 90.2079364,526.626254 C87.5104788,524.83005 86.1791284,522.814984 86.1791284,520.91 C86.1791284,517.581277 86.9323082,514.884733 88.1674294,513.203294 C89.1790017,511.81996 90.4670919,511.15985 92.3382784,511.15985 Z" id="Path" fill="#CDC7BB" fill-rule="nonzero"></path>
                    <path d="M106.520001,526.182881 L105.442741,528.502628 C105.356234,528.692347 105.279945,528.862259 105.20661,529.028797 L104.943387,529.640906 C104.494066,530.716965 104.225585,531.548723 104.103853,532.292639 C104.023326,532.795811 104.013039,533.238908 104.070174,533.647015 L104.118762,533.917728 C104.135822,534.057675 104.152415,534.148723 104.222473,534.291662 L104.246,534.338 L104.262872,534.382714 C104.296045,534.471156 104.325621,534.534869 104.39068,534.648607 L104.578,534.963 C105.055431,535.695508 105.885926,536.333934 107.181974,536.912416 C109.956617,538.145596 113.710324,538.597044 117.032757,538.048749 C120.779852,537.435543 123.607039,535.654939 124.860847,532.844965 C126.224819,529.773702 126.656294,526.779117 126.089916,524.263517 C125.50206,521.636218 123.857247,519.610826 121.251782,518.447672 C115.98818,516.106957 110.019551,518.717301 107.229884,524.628188 L106.520001,526.182881 Z M109.888,532.665 L107.154,530.191 L109.522,531.459 L109.73643,531.761783 C109.813262,531.872295 109.874706,531.963336 109.924123,532.040646 L110.032721,532.22507 L110.131081,532.56678 C110.134442,532.582466 110.136961,532.596834 110.14032,532.615992 L109.888,532.665 Z M112.120143,528.748188 L112.719489,527.433525 C114.122203,524.285498 116.655259,523.144907 118.744837,524.074138 C119.561678,524.438802 119.914282,524.872992 120.079744,525.612488 C120.332335,526.734397 120.09104,528.409066 119.233523,530.339949 C118.929578,531.021125 117.909389,531.663655 116.03388,531.97058 L115.671369,532.023783 C114.087122,532.228166 112.341312,532.094657 110.908275,531.709763 L110.774,531.671 L111.050802,531.050513 L112.120143,528.748188 Z" id="Path" fill="#CDC7BB" fill-rule="nonzero"></path>
                    <path d="M415.165278,591 C415.165278,560.3 395.439278,556.55 363.289278,546.03 C347.542278,540.88 331.471278,536.39 315.165278,533.69 C304.918278,531.99 302.165278,541 284.165278,541 C268.113278,541 248.087278,533.05 243.941278,531.33 C243.420278,531.11 242.804278,530.92 242.390278,531.3 C242.290278,531.39 242.205278,531.51 242.143278,531.63 C240.226278,535.57 230.165278,557.05 230.165278,574.24 C230.165278,587.39 229.039278,600.32 232.665278,607 C234.301278,610.01 244.516278,611.66 247.947278,611.66 L409.603278,611.66 C412.675278,611.66 415.165278,594.07 415.165278,591 Z" id="Path" fill="#DEDEDE" fill-rule="nonzero"></path>
                    <mask id="mask-8" fill="white">
                        <use xlink:href="#path-7"></use>
                    </mask>
                    <g id="Path"></g>
                    <path d="M391.665278,570 C407.165278,570 411.498278,561 413.165278,559.5 C416.165278,563 413.665278,577.1 415.665278,583.5 C417.665278,589.9 414.832278,596.17 413.165278,598.5 L223.000278,598.5 C222.167278,585.17 232.103278,538.87 234.000278,539.5 C255.000278,546.5 290.500278,543 299.000278,542.5 C305.800278,542.1 340.498278,551.17 356.165278,555.5 C354.165278,557.5 350.865278,567.7 349.665278,572.5 C348.165278,578.5 347.665278,578.5 353.165278,580 C358.665278,581.5 359.665278,570 365.665278,570 L391.665278,570 Z" id="Path" fill="#E9EAEB" fill-rule="nonzero" mask="url(#mask-8)"></path>
                    <path d="M267.665278,537 C255.665278,536.2 245.665278,529.67 241.665278,526 C237.665278,530 227.765278,541 230.165278,545 C233.165278,550 256.165278,554 266.165278,554 C276.165278,554 282.665278,538 267.665278,537 Z" id="Path" fill="#CDC7BB" fill-rule="nonzero" mask="url(#mask-8)"></path>
                    <path d="M326.665278,596.5 C352.165278,595.5 374.165278,601.5 402.165278,595.5 C452.165278,590 426.477278,593.27 439.165278,617.59 L243.081278,617.59 C223.665278,613 217.223278,584.71 231.665278,587 C263.165278,592 307.155278,597.27 326.665278,596.5 Z" id="Path" fill="#CDC7BB" fill-rule="nonzero" mask="url(#mask-8)"></path>
                    <path d="M224.165278,595.5 C230.965278,598.3 323.165278,598.5 326.165278,596.5 C319.165278,595 267.646278,589.16 256.165278,588.5 C238.665278,587.5 231.998278,586.17 224.165278,586.5 C221.332278,588.5 217.365278,592.7 224.165278,595.5 Z" id="Path" fill="#DEDEDE" fill-rule="nonzero" mask="url(#mask-8)"></path>
                    <path d="M315.696663,530.368744 C317.149865,529.484749 319.044538,529.946182 319.928534,531.399385 C320.812529,532.852587 320.351096,534.74726 318.897894,535.631256 L317.632232,536.368189 C316.375501,537.09229 314.608233,538.104262 313.955623,538.501385 C313.72409,538.642276 313.499647,538.781675 313.282284,538.919542 L312.962,539.125 L334.80353,534.09861 C337.561141,533.463966 339.612594,536.556033 338.038236,538.836823 L337.9394,538.97266 L331.963,546.775 L356.322751,539.847632 C359.329163,538.992579 361.514464,542.621387 359.451265,544.874804 L359.334493,544.996318 L346.040493,558.186318 C344.833022,559.384342 342.882984,559.376684 341.68496,558.169214 C340.533014,557.008185 340.495789,555.16061 341.568066,553.955168 L341.702064,553.813682 L346.511,549.042 L324.710805,555.242368 C321.912665,556.038187 319.704989,552.884096 321.325401,550.541552 L321.423157,550.40734 L327.846,542.02 L305.856027,547.08139 C303.985078,547.511975 302.197096,546.146922 302.090452,544.258531 L302.085428,544.08 C302.085428,539.851073 305.004384,536.794512 310.383066,533.46669 L311.026265,533.075583 C312.30296,532.316123 315.22766,530.654043 315.696663,530.368744 Z" id="Path" fill="#CDC7BB" fill-rule="nonzero" mask="url(#mask-8)"></path>
                    <path d="M322.827278,505.00015 C315.035377,505.00015 309.120739,511.61311 308.970362,520.560239 L308.962327,521.988901 C308.957394,522.505322 308.948647,523.071478 308.935077,523.820196 L308.898855,525.986928 C308.894391,526.385383 308.89322,526.708902 308.894447,527.060744 L308.90298,527.858075 C308.935324,529.515257 309.06029,530.728043 309.327839,531.750011 C309.68202,533.10325 310.288857,534.065465 311.225519,534.722004 C312.250547,535.438808 313.685108,535.78985 315.640278,535.78985 C319.720483,535.78985 324.583727,534.274851 328.370936,531.753746 C332.643936,528.908408 335.146128,525.121214 335.146128,520.91 C335.146128,516.350294 334.0377,512.381886 331.962429,509.556706 C329.803969,506.604953 326.672472,505.00015 322.827278,505.00015 Z M322.827278,511.15985 C324.698465,511.15985 325.986555,511.81996 326.994204,513.197942 C328.233248,514.884733 328.986428,517.581277 328.986428,520.91 C328.986428,522.814984 327.655078,524.83005 324.957267,526.626489 C322.167086,528.483883 318.487495,529.63015 315.640278,529.63015 L315.276822,529.623286 L315.179,529.618 L315.162623,529.481567 L315.125535,529.108311 C315.092157,528.707979 315.070013,528.225206 315.060022,527.649065 L315.053983,526.628945 C315.055377,526.166947 315.062158,525.664552 315.076827,524.841738 L315.119394,522.273551 L315.127128,520.91 C315.127128,515.024187 318.52502,511.15985 322.827278,511.15985 Z" id="Path" fill="#CDC7BB" fill-rule="nonzero" mask="url(#mask-8)"></path>
                    <path d="M293.917837,518.445862 C291.308706,519.611299 289.663355,521.636849 289.074744,524.267512 C288.509263,526.779117 288.940737,529.773702 290.302523,532.840051 C291.558517,535.654939 294.385704,537.435543 298.13688,538.04942 C301.455232,538.597044 305.208939,538.145596 307.979124,536.914402 L308.250725,536.789194 C309.396812,536.242666 310.144414,535.644075 310.586,534.963 L310.731271,534.72345 C310.812086,534.586713 310.849603,534.51495 310.8829,534.43341 L310.936,534.288 L310.960308,534.241344 C311.017779,534.119896 311.032642,534.034065 311.047616,533.910856 L311.06532,533.824008 L311.095382,533.647015 C311.152517,533.238908 311.142231,532.795811 311.063447,532.303413 C310.917839,531.413465 310.569009,530.411604 309.958088,529.026849 L308.115856,525.024001 L308.072489,524.926475 C305.345156,518.805688 299.265103,516.067945 293.917837,518.445862 Z M305.581,531.491 L308.01,530.192 L305.276,532.665 L305.025237,532.615992 L305.054307,532.489842 C305.068467,532.439918 305.09164,532.362573 305.132836,532.22507 L305.151,532.17 L305.27492,531.961579 C305.326262,531.879137 305.388911,531.782307 305.465708,531.665782 L305.581,531.491 Z M302.540809,527.646327 L304.188883,531.213794 L304.391,531.671 L304.255696,531.710496 C302.714213,532.124297 300.808905,532.247367 299.135757,531.971251 C297.256168,531.663655 296.235979,531.021125 295.929847,530.335035 C295.074516,528.409066 294.833222,526.734397 295.084916,525.616483 C295.251121,524.87368 295.604391,524.438778 296.425366,524.072067 C298.450729,523.171397 300.898974,524.222009 302.321876,527.165852 L302.540809,527.646327 Z" id="Path" fill="#CDC7BB" fill-rule="nonzero" mask="url(#mask-8)"></path>
                </g>
                <g id="upper-limb" transform="translate(-0.000032, 303.500000)" fill-rule="nonzero">
                    <polygon id="Path" fill="#1A1416" points="93.9210315 207.5 61.4210315 35 352.921032 0 328.921032 207.5"></polygon>
                    <path d="M77.6030315,240.882 L77.6030315,175.5 L70.9400315,143.5 L196.864032,115.5 L319.940032,143.5 C381.114032,236.399 320.017032,227.896 342.097032,320.796 C364.176032,413.695 338.402032,436.508 336.439032,443.5 C334.477032,450.492 304.439032,443.5 304.439032,443.5 L271.600032,422 C271.600032,422 241.513032,428.493 196.864032,426.995 C152.214032,425.496 125.229032,417.505 125.229032,417.505 C125.229032,417.505 103.098032,427.195 97.2610315,434 C91.4250315,440.805 72.1030315,437.995 61.4400315,426.995 C50.7760315,415.995 51.0799315,420.793 53.1285315,384.726 C56.0966315,332.469 67.1720315,282.254 77.6030315,240.882 Z" id="Path" fill="#F9F7F3"></path>
                    <path d="M73.0000315,600.099 C73.0000315,486.652 154.418032,468.5 194.368032,468.5 C306.127032,468.5 316.271032,532.338 335.963032,588.502 C357.708032,650.52 354.168032,728.99 221.170032,735.23 C102.836032,740.77 73.0000315,660.604 73.0000315,600.099 Z" id="Path" fill="#F0D180"></path>
                    <path d="M194.922032,470.5 C169.003904,470.5 142.18378,477.580862 120.835388,493.455067 C92.2333606,514.722918 76.0000315,549.672746 76.0000315,600.156 C76.0000315,634.577772 85.3926563,667.021671 105.075809,690.994151 C129.308935,720.508127 167.610924,735.749689 220.837313,733.237777 C280.816893,730.405592 317.596153,712.174516 333.712885,681.289509 C346.724854,656.354259 345.592132,624.357341 333.586922,589.311253 L331.953819,584.568702 C331.448873,583.082789 330.918,581.499227 330.295371,579.624178 L326.50248,568.133269 C321.409559,552.795964 318.067769,543.838235 313.703152,534.57545 L313.47647,534.096034 C307.375929,521.238045 300.33997,510.716408 291.515161,501.92432 C270.702033,481.188364 240.072251,470.5 194.922032,470.5 Z M194.922032,474.5 C239.081903,474.5 268.692589,484.832747 288.691992,504.757996 C297.163,513.197595 303.946969,523.342404 309.862597,535.810655 L310.524292,537.219965 C314.7402,546.295578 318.068474,555.357157 323.239323,571.002916 L326.206817,580.003221 C327.516478,583.956367 328.418568,586.62389 329.442269,589.563704 C341.462174,624.083348 342.708092,655.405479 330.166678,679.438991 C314.79705,708.8923 279.333529,726.471178 220.648698,729.242226 C168.631168,731.697088 131.558777,716.944822 108.167254,688.455849 C89.1354098,665.276612 80.0000315,633.721291 80.0000315,600.156 C80.0000315,550.894792 95.6740609,517.149118 123.222175,496.664933 C143.80029,481.363491 169.797079,474.5 194.922032,474.5 Z" id="Path" fill="#3F3E4C"></path>
                    <path d="M198.798032,511.5 C180.219813,511.5 160.98516,516.525289 145.208024,528.134548 C123.936842,543.78648 112.000032,569.218104 112.000032,603.911 C112.000032,627.661654 118.644086,650.371128 133.003309,667.676397 C150.801545,689.126254 178.493753,700.030509 215.00406,698.325493 C255.898936,696.415672 283.03327,683.106563 295.628797,659.221482 C305.796803,639.939744 304.975912,616.79763 296.522707,592.363072 L295.556574,589.58704 C295.346733,588.976123 295.128358,588.333957 294.886965,587.618293 L292.124072,579.347127 C288.946717,569.908176 286.785626,564.229265 283.821173,558.045942 C279.438891,548.905279 274.231058,541.198171 267.553513,534.614375 C251.914204,519.194634 229.632245,511.5 198.798032,511.5 Z M198.798032,545.5 C221.279208,545.5 234.958456,550.223858 243.682438,558.82536 L244.170125,559.313741 C250.607022,565.862092 254.458973,573.940916 260.343514,591.514801 L262.911614,599.199042 C263.227025,600.129501 263.512723,600.96208 263.801712,601.792831 L264.191877,602.907849 C270.044501,619.540442 270.61625,633.762904 265.554266,643.362018 C259.353716,655.120212 243.361734,662.964112 213.417983,664.362508 C187.103044,665.591405 169.800328,658.77818 159.168754,645.965353 C150.416589,635.417528 146.000032,620.321668 146.000032,603.911 C146.000032,579.681491 153.11061,564.532256 165.358789,555.519702 C174.610192,548.712261 186.90535,545.5 198.798032,545.5 Z" id="Path" fill="#F9E8BE"></path>
                    <path d="M200.241032,536 C185.487427,536 170.220133,539.983182 158.055835,548.921487 C141.75176,560.901693 132.500032,580.58512 132.500032,608.968 C132.500032,628.32294 137.846921,646.573378 149.061457,660.069883 C162.868207,676.686075 184.677325,685.261657 214.93891,683.850371 C249.035999,682.260342 269.991694,671.996391 279.193312,654.572088 C286.614172,640.519852 285.980823,622.531396 279.173933,602.850791 L278.174863,599.981403 C277.884125,599.134668 277.576311,598.226049 277.212858,597.143342 L275.115013,590.864361 C268.675746,571.770128 264.07432,562.417599 255.217894,553.697948 C243.351906,542.015214 225.908369,536 200.241032,536 Z M200.241032,539 C225.172116,539 241.857311,544.753708 253.113145,555.835712 L253.729736,556.451349 C261.856329,564.681579 266.244966,573.852357 272.508073,592.524036 L274.413954,598.23246 C274.992555,599.954975 275.432197,601.241667 275.892697,602.557472 L276.107298,603.168527 C282.884386,622.401113 283.585958,639.829793 276.540501,653.171162 C267.903675,669.525969 247.930622,679.308628 214.799159,680.853628 C185.436228,682.223004 164.543102,674.0076 151.368856,658.152617 C140.649897,645.25253 135.500032,627.674592 135.500032,608.968 C135.500032,581.509259 144.325061,562.733652 159.832228,551.339013 C171.420985,542.823614 186.076663,539 200.241032,539 Z" id="Path" fill="#000000"></path>
                    <polygon id="Path" fill="#000000" points="208.500032 682 208.500032 684 160.500032 684 160.500032 682"></polygon>
                    <path d="M211.670346,682.01461 L211.203226,683.954938 L248.864344,695.660421 L253.812545,689.298447 L211.670346,682.01461 Z M226.442,686.597 L250.187,690.701 L248.135,693.34 L226.442,686.597 Z" id="Path" fill="#000000"></path>
                    <polygon id="Path" fill="#000000" points="208.118871 682.027182 209.881192 682.972818 187.881192 723.972818 186.118871 723.027182"></polygon>
                    <polygon id="Path" fill="#000000" points="211.490581 682.862847 215.990581 715.362847 214.009482 715.637153 209.509482 683.137153"></polygon>
                    <path d="M11.4019579,239.231484 L11.8298028,235.047449 L14.8335069,206.856688 C16.2106246,193.784105 17.1956622,183.41598 18.0279309,172.771702 C19.5347285,153.500553 36.3785817,139.099702 55.64973,140.606499 C74.9208782,142.113297 89.3217298,158.95715 87.8149322,178.228298 L87.6412518,180.42024 C86.8798689,189.903618 86.0008128,199.238333 84.8600293,210.25011 L81.4179056,242.636326 L81.160736,245.138157 L80.8708896,248.053077 C80.030529,256.624736 79.4505174,263.674923 79.0699163,270.188071 L79.0284449,270.909594 C78.0761464,287.760202 78.5097999,301.162935 80.5517416,313.645933 C86.5603392,350.378279 108.72459,387.129858 161.502653,441.007779 C175.029334,454.816345 174.80082,476.975941 160.992253,490.502622 C147.183686,504.029302 125.02409,503.800788 111.49741,489.992221 C49.5127885,426.715885 20.1539729,378.034662 11.4698765,324.946194 C8.51379923,306.874813 7.92049823,288.537926 9.13996269,266.959903 L9.24094123,265.231835 C9.71202747,257.424464 10.409989,249.167406 11.4019579,239.231484 Z" id="Path" fill="#F6DDD6"></path>
                    <path d="M347.941536,175.808174 C366.549018,170.572793 385.877477,181.413022 391.112858,200.020504 C425.104359,320.832389 383.963917,429.198337 268.433725,501.203202 C252.029099,511.42748 230.442108,506.417318 220.21783,490.012693 C209.993552,473.608068 215.003713,452.021076 231.408338,441.796798 C319.465328,386.914768 348.755423,311.533859 324.481179,221.705969 L323.729205,218.979496 C318.493824,200.372014 329.334054,181.043555 347.941536,175.808174 Z" id="Path" fill="#F6DDD6"></path>
                    <path d="M104.000032,361 L8.50003155,369 C8.50003155,369 0.149131546,334.019 0.148831546,294.519 C0.148531546,255.019 -2.35106845,194.02 13.1489315,170.52 C28.6489315,147.02 90.6490315,148.519 90.6490315,148.519 L90.6490315,285 C90.6490315,300.5 104.000032,361 104.000032,361 Z" id="Path" fill-opacity="0.84" fill="#F9F7F3"></path>
                    <polygon id="Path" fill="#FFFFFF" points="9.50003155 373.5 8.00003155 365.5 104.000032 361 107.000032 367.5"></polygon>
                    <path d="M396.921032,375.275 C396.921032,375.275 411.420032,329.775 409.920032,285.775 C408.420032,241.775 404.421032,189.775 387.421032,167.275 C370.421032,144.775 329.421032,148.775 329.421032,148.775 L312.421032,152.775 C312.421032,152.775 316.500032,243 316.500032,255 C316.500032,267 310.500032,354.5 310.500032,354.5 L396.921032,375.275 Z" id="Path" fill-opacity="0.84" fill="#F9F7F3"></path>
                    <polygon id="Path" fill="#FFFFFF" points="308.000032 359 311.000032 352.5 397.500032 373.5 395.000032 380.5"></polygon>
                </g>
                <g id="head" transform="translate(9.000000, 0.000000)">
                    <ellipse id="Oval" fill="#FFFFFF" fill-rule="nonzero" cx="190.42" cy="452.97" rx="55" ry="57.5"></ellipse>
                    <rect id="Rectangle" fill="#E6CBC3" fill-rule="nonzero" x="151.204" y="380" width="78.2017" height="117.369" rx="39.10085"></rect>
                    <ellipse id="Oval" fill="#EBBAAA" fill-rule="nonzero" cx="64.883" cy="256.403" rx="64.4617" ry="55.4031"></ellipse>
                    <ellipse id="Oval" fill="#EBBAAA" fill-rule="nonzero" cx="314.883" cy="260.98" rx="64.4617" ry="55.4031"></ellipse>
                    <path d="M16,167.582 C16,91.0452 93.007,29 188,29 C282.993,29 360,91.0451 360,167.582 L335.631,305.418 C321.76,394.826 240.678,444 188,444 C135.322,444 48.2482,384.395 38.0762,305.418 L16,167.582 Z" id="Path" fill="#F6DDD6" fill-rule="nonzero"></path>
                    <path d="M178.551291,254.308938 L190.463801,261.095975 L189.815572,262.256893 C184.257475,272.308735 182.692513,273.995403 181.830539,281.756644 L181.774945,282.294438 C180.963494,290.796788 183.924323,294.39613 194.319028,294.539501 L194.978409,294.543975 L194.978409,308.308938 C175.343094,308.308938 166.341362,297.166457 168.222423,280.229308 C169.357115,270.012497 171.629445,266.699509 178.185174,254.961388 L178.551291,254.308938 Z" id="Path" fill="#EBBAAA" fill-rule="nonzero" opacity="0.699999988"></path>
                    <ellipse id="Oval" fill="#FFCACA" fill-rule="nonzero" cx="81.5" cy="310" rx="51.5" ry="32"></ellipse>
                    <ellipse id="Oval" fill="#FFCACA" fill-rule="nonzero" cx="294" cy="310" rx="54" ry="32"></ellipse>
                    <path d="M33.421,192.5 C36.3471562,173.479985 69.2416772,31.256692 230.468206,87.831859 L230.48152,87.8413761 C312.015354,76.1740702 346.950878,140.146151 354.421,184.5 C362.421,232 346.421,308 353.421,305 C359.021,302.6 364.754,295 367.421,293 C369.088,361.333 387.549,496.597 367.421,506.5 C353.89851,513.153509 327.650854,516.663645 306.921753,513.812795 L305.505896,513.864537 C282.280013,514.629995 254.343454,511.512145 251,507.5 C246,501.5 255.166,449 260,420 L260.491993,419.677845 C262.971868,418.073131 269.433333,414.078947 276.5,408.5 C283.850096,402.697293 295.844975,389.255852 300.093953,384.458694 L300.890676,380.015552 C313.89423,307.218019 326.330244,223.926576 323.921,217 C319.921,205.5 311.421,201 286.421,184.5 C271.657245,174.755922 247.266369,142.615585 228.936683,116.196511 L228.174002,117.386162 C222.180787,126.699761 215.77583,135.830238 211.209922,140.695296 L210.862,141.062 L208.697093,143.312744 C199.472066,152.837093 185.799667,165.751978 166.421,168 L164.56563,168.209841 C133.531814,171.63596 67.357,175.064 54.421,188 C47.6327,194.788 52.265,245.084 59.345,304.652 C61.9885588,326.890775 64.9733761,350.421988 67.8326145,373.464163 L69.5038565,375.252185 C78.9851573,385.300096 99.7070474,405.912834 105,410.5 C112.5,417 121.001,511.5 115.001,516.5 C111.609188,519.32651 93.6767866,522.792153 76.8304769,521.206406 C64.2585766,543.97137 8.84310422,516.720042 7.4211,502.5 C5.9211,487.5 16.421,293 16.421,293 L17.2020222,293.62771 C24.0319694,299.142219 25.5817143,301.053571 29.921,302.5 C36.3728,304.651 30.421,212 33.421,192.5 Z" id="Path" fill="#282023" fill-rule="nonzero"></path>
                    <path d="M121.688,190.184 C127.774145,190.184 133.74977,191.032945 139.394348,192.446804 C141.151873,192.887031 142.770832,193.356777 144.231057,193.832698 L144.771162,194.011412 C145.762037,194.344278 146.487576,194.614332 146.918373,194.788812 C149.989733,196.032763 151.47114,199.531014 150.227188,202.602373 C149.012166,205.602306 145.646476,207.085377 142.628567,205.993568 L142.070135,205.779486 C141.805254,205.681401 141.42906,205.547699 140.949838,205.386713 C139.641031,204.947044 138.139686,204.503253 136.478652,204.087196 C131.72823,202.897305 126.707355,202.184 121.688,202.184 C116.652917,202.184 111.468741,202.902174 106.463848,204.101747 C104.707328,204.52275 103.104945,204.972483 101.695601,205.418933 L100.893479,205.679986 L100.079999,205.963363 C96.979824,207.133654 93.5179277,205.569174 92.347637,202.468999 C91.1773463,199.368824 92.7418265,195.906928 95.8420012,194.736637 L96.2734569,194.578986 C96.6620411,194.440724 97.1730119,194.267162 97.7972863,194.066718 L98.071743,193.979192 C99.7447035,193.449235 101.621219,192.922562 103.666902,192.432253 C109.525446,191.028076 115.618458,190.184 121.688,190.184 Z" id="Path" fill="#46413D" fill-rule="nonzero"></path>
                    <path d="M251.915,190.184 C258.001168,190.184 263.976637,191.032951 269.620931,192.446825 C271.378376,192.887058 272.997247,193.356812 274.457385,193.832741 L274.997456,194.011458 C275.988279,194.344334 276.713779,194.614397 277.144561,194.788888 C280.215879,196.032943 281.697167,199.531244 280.453112,202.602561 C279.237988,205.602453 275.872249,207.08541 272.854376,205.993499 L272.296007,205.779421 C272.031167,205.681342 271.655022,205.547647 271.175856,205.386667 C269.867184,204.947007 268.365975,204.503225 266.705069,204.087175 C261.954988,202.897299 256.934332,202.184 251.915,202.184 C246.879479,202.184 241.69523,202.902172 236.690511,204.101738 C234.934068,204.522735 233.331789,204.97246 231.922564,205.4189 L231.120523,205.679944 L230.307167,205.9633 C227.207027,207.133683 223.745084,205.569307 222.5747,202.469167 C221.404317,199.369027 222.968693,195.907084 226.068833,194.7367 L226.674273,194.517646 C227.097625,194.369464 227.64206,194.187184 228.298498,193.979225 C229.971383,193.449259 231.847838,192.922578 233.893489,192.432262 C239.751895,191.028078 245.845021,190.184 251.915,190.184 Z" id="Path" fill="#46413D" fill-rule="nonzero"></path>
                    <path d="M127.663052,229.356516 C130.396576,228.964975 132.929943,230.863527 133.321484,233.597052 C133.702722,236.258642 131.912811,238.730469 129.294992,239.220159 L129.080948,239.255484 L99.3539482,243.513484 C96.6204236,243.905025 94.0870572,242.006473 93.6955159,239.272948 C93.3142784,236.611358 95.1041894,234.139531 97.7220085,233.649841 L97.9360518,233.614516 L127.663052,229.356516 Z" id="Path" fill="#000000" fill-rule="nonzero"></path>
                    <path d="M236.576536,230.987912 C236.957849,228.326333 239.36972,226.456416 242.019735,226.72135 L242.235088,226.747536 L271.963088,231.006536 C274.696601,231.398154 276.595083,233.931574 276.203464,236.665088 C275.822151,239.326667 273.41028,241.196584 270.760265,240.93165 L270.544912,240.905464 L240.816912,236.646464 C238.083399,236.254846 236.184917,233.721426 236.576536,230.987912 Z" id="Path" fill="#000000" fill-rule="nonzero"></path>
                    <path d="M122.742417,222.305 C129.267874,222.305 134.576629,227.513956 134.738211,234.000442 L134.742,234.305417 L134.741,263.083417 C134.74077,269.710834 129.368,275.083 122.740583,275.083 C116.215126,275.083 110.906371,269.874044 110.744789,263.387558 L110.741,263.082583 L110.742,234.304583 C110.74223,227.677166 116.115,222.305 122.742417,222.305 Z" id="Path" fill="#000000" fill-rule="nonzero"></path>
                    <path d="M248.363417,219.696 C254.888874,219.696 260.197629,224.904956 260.359211,231.391442 L260.363,231.696417 L260.362,260.475417 C260.36177,267.102834 254.989,272.475 248.361583,272.475 C241.836126,272.475 236.527371,267.266044 236.365789,260.779558 L236.362,260.474583 L236.363,231.695583 C236.36323,225.068166 241.736,219.696 248.363417,219.696 Z" id="Path" fill="#000000" fill-rule="nonzero"></path>
                    <g id="Group-3" transform="translate(15.524445, 3.000000)">
                        <mask id="mask-10" fill="white">
                            <use xlink:href="#path-9"></use>
                        </mask>
                        <use id="Path" fill="#393939" xlink:href="#path-9"></use>
                        <ellipse id="Oval" fill="#FF6C6C" fill-rule="nonzero" mask="url(#mask-10)" cx="169.515555" cy="377.02" rx="25.3526" ry="12.511"></ellipse>
                        <rect id="Rectangle" fill="#FFFFFF" fill-rule="nonzero" mask="url(#mask-10)" x="127.475555" y="325.521" width="84.0808" height="19"></rect>
                        <path d="M160.569272,259.151985 L177.377839,261.696015 L177.176609,262.953983 C176.773687,265.31824 176.264676,267.349318 174.819251,272.638296 L173.836906,276.227754 C173.619064,277.032154 173.434392,277.727216 173.259815,278.401463 L172.942923,279.650499 C171.422365,285.78643 171.00199,289.762028 171.590666,291.986198 C171.742267,292.558983 171.848407,292.715993 172.05965,292.854924 C172.703971,293.278683 174.060069,293.622442 176.31699,293.652818 L176.645555,293.655 L176.645555,310.655 C165.320121,310.655 157.603121,305.579656 155.156542,296.33586 C153.593826,290.431521 154.27449,284.14011 156.56184,275.081148 L157.052689,273.184673 C157.196887,272.639602 157.350594,272.067776 157.522786,271.43462 L158.992011,266.050293 C159.836485,262.90957 160.184759,261.442333 160.438093,259.967377 L160.569272,259.151985 Z" id="Path" fill="#EBBAAA" fill-rule="nonzero" mask="url(#mask-10)"></path>
                        <path d="M4.89605543,105 C21.8960554,23.5 114.396555,5.5 175.896555,0 C251.395555,0 325.896555,38 346.896555,105 C363.696555,158.6 341.563555,249.667 324.396555,288.5 L324.396555,214.5 L197.896555,105 L36.8965554,165.5 L19.8960554,288.5 C9.22935543,254.5 -8.70394457,170.2 4.89605543,105 Z" id="Path" fill="#2D2427" fill-rule="nonzero" mask="url(#mask-10)"></path>
                    </g>
                    <path d="M20.42046,105 C37.4205,23.5 129.921,5.5 191.421,0 C266.92,0 341.421,38 362.421,105 C379.221,158.6 357.088,249.667 339.921,288.5 L339.921,214.5 L213.421,105 L52.4209,165.5 L35.4205,288.5 C24.7538,254.5 6.82046,170.2 20.42046,105 Z" id="Path" fill="#2D2427" fill-rule="nonzero"></path>
                </g>
            </g>
        </g>
    </g>
</svg>