<?xml version="1.0" encoding="UTF-8"?>
<svg width="482px" height="1403px" viewBox="0 0 482 1403" version="1.1" xmlns="http://www.w3.org/2000/svg" xmlns:xlink="http://www.w3.org/1999/xlink">
    <!-- Generator: Sketch 55.2 (78181) - https://sketchapp.com -->
    <title>gee_me_100</title>
    <desc>Created with Sketch.</desc>
    <defs>
        <path d="M1.089,0 C1.029,1.021 0.999,2.051 0.999,3.081 L0.999,22.367 C0.999,51.44 25.709,75 56.179,75 C86.659,75 111.359,51.44 111.359,22.367 L111.359,3.081 C111.359,2.051 111.329,1.021 111.269,0 L1.089,0 Z" id="path-1"></path>
    </defs>
    <g id="GEE!-ME" stroke="none" stroke-width="1" fill="none" fill-rule="evenodd">
        <g id="gee_me_100" transform="translate(-359.000000, -99.000000)">
            <g transform="translate(359.000000, 99.000000)">
                <g id="lower-limb" transform="translate(0.614627, 839.000000)">
                    <path d="M293.883373,262 L293.883373,510 C293.883373,525.187831 306.195543,537.5 321.383373,537.5 C336.571204,537.5 348.883373,525.187831 348.883373,510 L348.883373,262 C348.883373,246.812169 336.571204,234.5 321.383373,234.5 C306.195543,234.5 293.883373,246.812169 293.883373,262 Z" id="Path" fill="#EBBAAA" fill-rule="nonzero"></path>
                    <path d="M341.884373,474 C341.884373,474 345.384373,496 372.384373,499.5 L369.384373,524.23 L308.384373,524.23 L341.884373,474 Z" id="Path" fill="#EBBAAA"></path>
                    <path d="M131.884373,478 C131.884373,478 128.384373,500 101.384373,503.5 L104.384373,528.23 L165.384373,528.23 L131.884373,478 Z" id="Path" fill="#EBBAAA"></path>
                    <path d="M131.884373,262 L131.884373,527 C131.884373,542.187831 144.196543,554.5 159.384373,554.5 C174.572204,554.5 186.884373,542.187831 186.884373,527 L186.884373,262 C186.884373,246.812169 174.572204,234.5 159.384373,234.5 C144.196543,234.5 131.884373,246.812169 131.884373,262 Z" id="Path" fill="#EBBAAA" fill-rule="nonzero"></path>
                    <path d="M240.383373,173 C303.895373,173 355.383373,149.495 355.383373,120.5 C355.383373,91.505 303.895373,68 240.383373,68 C176.870373,68 125.383373,91.505 125.383373,120.5 C125.383373,149.495 176.870373,173 240.383373,173 Z" id="Path" fill="#E2D3BD" fill-rule="nonzero"></path>
                    <polygon id="Path" fill="#E2D3BD" fill-rule="nonzero" points="239.383373 0 369.383373 0 369.383373 466 275.212373 466"></polygon>
                    <polygon id="Path" fill="#E2D3BD" fill-rule="nonzero" points="241.383373 0 111.383373 0 111.383373 466 205.555373 466"></polygon>
                    <path d="M479.796373,554.02 C479.954373,535.93 479.354373,528.9 448.884373,524.52 C418.415373,520.15 410.426373,508.99 375.884373,496.74 C375.884373,496.74 362.884373,501.5 365.384373,516.5 C351.384373,530 313.384373,521.5 301.545373,503.66 C298.356373,496.8 291.319373,496.74 291.319373,496.74 C291.319373,496.74 281.444373,509.59 281.314373,524.52 C281.184373,539.46 281.240373,556.38 281.240373,556.38 L479.796373,554.02 Z" id="Path" fill="#8D5D42" fill-rule="nonzero"></path>
                    <path d="M280.769373,556.32 L281.675373,545.2 L440.280373,547.67 L479.827373,544.76 L480.660373,551.44 C481.276373,556.37 477.622373,560.81 472.662373,561.15 L440.081373,563.4 L285.019373,561 C282.515373,560.96 280.566373,558.81 280.769373,556.32 Z" id="Path" fill="#67432F" fill-rule="nonzero"></path>
                    <path d="M0.93150329,554.02 C0.77364329,535.93 1.37373329,528.9 31.8430733,524.52 C62.3124733,520.15 70.3013733,508.99 104.843373,496.74 C104.843373,496.74 117.843373,501.5 115.343373,516.5 C129.343373,530 167.343373,521.5 179.182373,503.66 C182.371373,496.8 189.408373,496.74 189.408373,496.74 C189.408373,496.74 199.283373,509.59 199.413373,524.52 C199.543373,539.46 199.487373,556.38 199.487373,556.38 L0.93150329,554.02 Z" id="Path" fill="#8D5D42" fill-rule="nonzero"></path>
                    <path d="M199.958373,556.32 L199.052373,545.2 L40.4474733,547.67 L0.90081329,544.76 L0.0677832897,551.44 C-0.54809671,556.37 3.10575329,560.81 8.06542329,561.15 L40.6458733,563.4 L195.708373,561 C198.212373,560.96 200.161373,558.81 199.958373,556.32 Z" id="Path" fill="#67432F" fill-rule="nonzero"></path>
                </g>
                <g id="upper-limb" transform="translate(3.080526, 435.000000)" fill-rule="nonzero">
                    <path d="M315.067271,200.178884 C333.940936,233.636745 352.150982,286.42041 363.627255,339.560545 L364.224576,342.356083 C369.334069,366.529355 372.689565,389.248191 373.937218,408.044346 C374.563517,417.479684 374.640672,425.685136 374.196411,432.321654 C374.009746,435.110123 373.735968,437.539489 373.395625,439.564593 L373.315912,440.024728 C373.049107,441.518881 372.776591,442.606757 372.565408,443.229258 L372.521118,443.355507 C365.537757,462.559749 375.444739,483.788996 394.648981,490.772357 C413.853223,497.755718 435.08247,487.848736 442.065831,468.644493 C452.911826,438.818008 449.42514,386.290326 435.959693,323.939455 C423.034808,264.091616 402.490733,204.542533 379.519678,163.821116 C369.479757,146.023075 346.912631,139.733876 329.11459,149.773797 C311.31655,159.813717 305.027351,182.380843 315.067271,200.178884 Z" id="Path" fill="#EBBAAA"></path>
                    <path d="M87.8773418,163.820991 C64.9060777,204.542407 44.361875,264.091487 31.4369125,323.939423 C17.9714197,386.290238 14.4847143,438.817984 25.3307177,468.644493 C32.3140785,487.848736 53.5433254,497.755718 72.7475677,490.772357 C91.7597676,483.858829 101.659722,462.982909 95.0798723,443.932225 L94.875431,443.355507 C94.673352,442.799789 94.4051515,441.774476 94.1378724,440.338665 L94.0806368,440.024729 C93.7032159,437.911114 93.4011617,435.324622 93.2001382,432.321658 C92.7558786,425.68514 92.8330344,417.47969 93.4593364,408.044356 C94.730988,388.886732 98.1923406,365.654112 103.468736,340.959906 L103.769336,339.560577 C115.245667,286.420409 133.455805,233.636809 152.329607,200.179009 C162.369597,182.381008 156.080485,159.813857 138.282484,149.773867 C120.484482,139.733878 97.9173313,146.022989 87.8773418,163.820991 Z" id="Path" fill="#EBBAAA"></path>
                    <rect id="Rectangle" fill="#216F74" transform="translate(104.804960, 251.391567) rotate(10.000000) translate(-104.804960, -251.391567) " x="30.94896" y="71.5700672" width="147.712" height="359.643" rx="73.856"></rect>
                    <rect id="Rectangle" fill="#216F74" transform="translate(362.878139, 251.391598) scale(-1, 1) rotate(9.999988) translate(-362.878139, -251.391598) " x="289.022123" y="71.5700603" width="147.712031" height="359.643076" rx="73.856"></rect>
                    <path d="M14.1194743,441 C7.71947434,422.6 11.9185743,334 19.9184743,304 L128.119474,323 C115.918474,361 113.918474,411 104.918474,460 L104.765474,460.007 C83.6193743,461.014 22.1001743,463.944 14.1194743,441 Z" id="Path" fill="#216F74"></path>
                    <path d="M451.918474,446 C458.318474,427.6 459.918474,363 451.918474,333 L337.918474,328 C350.119474,366 352.119474,416 361.119474,465 L361.272474,465.007 C382.418474,466.014 443.937474,468.944 451.918474,446 Z" id="Path" fill="#216F74"></path>
                    <path d="M90.1903743,104.63 C88.9042743,78.771 107.570474,56.208 133.211474,52.626 L237.918474,38 L342.625474,52.626 C368.266474,56.208 386.932474,78.771 385.646474,104.63 L377.918474,260 L387.515474,507.613 C387.735474,513.283 383.198474,518 377.523474,518 L98.3134743,518 C92.6388743,518 88.1012743,513.283 88.3210743,507.613 L97.9184743,260 L90.1903743,104.63 Z" id="Path" fill="#FFFFFF"></path>
                    <path d="M404.649474,130.068 C406.567474,102.448 389.337474,77.101 362.948474,68.724 L302.061474,49.394 C290.671474,45.779 278.410474,51.487 273.845474,62.531 L250.918474,118 L237.918474,188 L237.918474,483 L263.918474,504 L396.302474,504 C402.417474,504 407.100474,498.56 406.191474,492.513 L387.918474,371 L404.649474,130.068 Z" id="Path" fill="#2F7F84"></path>
                    <path d="M73.5331743,142.273 C70.4909743,93.902 108.901474,53 157.367474,53 L179.405474,53 C188.272474,53 196.349474,58.096 200.165474,66.099 L224.918474,118 L237.918474,188 L237.918474,483 L211.918474,504 L79.5346743,504 C73.4195743,504 68.7364743,498.56 69.6458743,492.513 L87.9184743,371 L73.5331743,142.273 Z" id="Path" fill="#2F7F84"></path>
                    <circle id="Oval" fill="#FFFFFF" cx="237.918474" cy="285" r="7"></circle>
                    <circle id="Oval" fill="#FFFFFF" cx="236.918474" cy="346" r="7"></circle>
                    <circle id="Oval" fill="#FFFFFF" cx="237.918474" cy="404" r="7"></circle>
                    <circle id="Oval" fill="#FFFFFF" cx="237.918474" cy="228" r="7"></circle>
                    <rect id="Rectangle" fill="#EBBAAA" x="199.918474" y="0" width="76" height="115" rx="37.911"></rect>
                    <polygon id="Path" fill="#216F74" points="247.918474 110 274.918474 31 311.918474 52 288.918474 137"></polygon>
                    <polygon id="Path" fill="#216F74" points="227.918474 110 200.918474 31 163.918474 52 186.918474 137"></polygon>
                    <polygon id="Path" fill="#216F74" points="269.919474 213 369.919474 213 359.919474 306.095 319.919474 328 279.919474 306.095"></polygon>
                </g>
                <g id="head" transform="translate(40.999000, 0.000000)">
                    <path d="M342.5,350 C374.256,350 400,324.256 400,292.5 C400,260.744 374.256,235 342.5,235 C310.744,235 285,260.744 285,292.5 C285,324.256 310.744,350 342.5,350 Z" id="Path" fill="#EBBAAA" fill-rule="nonzero"></path>
                    <path d="M355.5,325 C373.449,325 388,310.449 388,292.5 C388,274.551 373.449,260 355.5,260 C337.551,260 323,274.551 323,292.5 C323,310.449 337.551,325 355.5,325 Z" id="Path" fill="#FFFBFB" fill-rule="nonzero"></path>
                    <rect id="Rectangle" fill="#E0E6ED" fill-rule="nonzero" transform="translate(361.561436, 332.134356) rotate(15.000000) translate(-361.561436, -332.134356) " x="352.640186" y="299.200806" width="17.8425" height="65.8671" rx="8.92125"></rect>
                    <path d="M57.5,350 C25.7437,350 0,324.256 0,292.5 C0,260.744 25.7437,235 57.5,235 C89.256,235 115,260.744 115,292.5 C115,324.256 89.256,350 57.5,350 Z" id="Path" fill="#EBBAAA" fill-rule="nonzero"></path>
                    <path d="M46.5,325 C28.5508,325 14,310.449 14,292.5 C14,274.551 28.5508,260 46.5,260 C64.449,260 79,274.551 79,292.5 C79,310.449 64.449,325 46.5,325 Z" id="Path" fill="#FFFBFB" fill-rule="nonzero"></path>
                    <rect id="Rectangle" fill="#E0E6ED" fill-rule="nonzero" transform="translate(38.438561, 332.134361) scale(-1, 1) rotate(14.999995) translate(-38.438561, -332.134361) " x="29.5173098" y="299.200806" width="17.8425028" height="65.8671103" rx="8.92125"></rect>
                    <rect id="Rectangle" fill="#F4D5CC" fill-rule="nonzero" x="50" y="18" width="300" height="470" rx="150"></rect>
                    <path d="M219,230 C219,225.029292 223.029292,221 228,221 L322,221 C326.970708,221 331,225.029292 331,230 L331,272 C331,291.882708 314.882708,308 295,308 L255,308 C235.117292,308 219,291.882708 219,272 L219,230 Z M231,233 L231,272 C231,285.255292 241.744708,296 255,296 L295,296 C308.255292,296 319,285.255292 319,272 L319,233 L231,233 Z" id="Path" fill="#393939" fill-rule="nonzero"></path>
                    <rect id="Rectangle" fill="#393939" fill-rule="nonzero" x="175" y="243" width="50" height="10"></rect>
                    <path d="M69,230 C69,225.029292 73.0292915,221 78,221 L172,221 C176.970708,221 181,225.029292 181,230 L181,272 C181,291.882708 164.882708,308 145,308 L105,308 C85.1172915,308 69,291.882708 69,272 L69,230 Z M81,233 L81,272 C81,285.255292 91.7447085,296 105,296 L145,296 C158.255292,296 169,285.255292 169,272 L169,233 L81,233 Z" id="Path" fill="#393939" fill-rule="nonzero"></path>
                    <path d="M197.791,101.62 C123.861,101.62 69.208,101.62 65.289,155.5 C62.016,200.5 40.7418,183 39,138.52 C43.1891,24.154 154.891,2.84217094e-14 200.988,2.84217094e-14 C238.767,30.742 271.731,101.62 197.791,101.62 Z" id="Path" fill="#393939" fill-rule="nonzero"></path>
                    <path d="M44.4599,152.21 C44.2099,146.09 49.0999,141 55.2199,141 C61.57,141 66.54,146.46 65.94,152.78 L55.7999,259.85 C55.6299,261.64 54.1299,263 52.3399,263 C50.4699,263 48.9399,261.53 48.8599,259.67 L44.4599,152.21 Z" id="Path" fill="#393939" fill-rule="nonzero"></path>
                    <path d="M353.98,152.21 C354.23,146.09 349.34,141 343.22,141 C336.87,141 331.9,146.46 332.5,152.78 L342.64,259.85 C342.81,261.64 344.31,263 346.1,263 C347.97,263 349.5,261.53 349.58,259.67 L353.98,152.21 Z" id="Path" fill="#393939" fill-rule="nonzero"></path>
                    <path d="M199.374,101.62 C275.556,101.62 341.561,101.62 344.702,156.5 C352.492,199.54 360.856,186 363.001,138.52 C358.693,24.154 244.029,-1.42108547e-14 196.529,-1.42108547e-14 C157.599,30.742 123.183,101.62 199.374,101.62 Z" id="Path" fill="#393939" fill-rule="nonzero"></path>
                    <path d="M90.868,139.22 C88.245,104.55 83.145,88.72 88.051,75 L332.451,68.9863 L361,159.52 L350.362,228.33 C345.038,194.74 332.451,133.51 309.367,116.076 C273.705,89.1421 240.633,114.01 223.039,133.51 C223.039,109.67 212.819,110.21 203.813,105.34 C205.125,127.88 158.552,137.045 136.46,137.045 C157.168,127.88 160.531,111.197 150.709,103.067 C120.498,105.34 113.378,108.88 90.868,139.22 Z" id="Path" fill="#393939" fill-rule="nonzero"></path>
                    <path d="M250.538,239.406 L250.538,267.296 C250.538,273.923417 255.910583,279.296 262.538,279.296 C269.165417,279.296 274.538,273.923417 274.538,267.296 L274.538,239.406 C274.538,232.778583 269.165417,227.406 262.538,227.406 C255.910583,227.406 250.538,232.778583 250.538,239.406 Z" id="Path" fill="#000000" fill-rule="nonzero"></path>
                    <path d="M125.46,239.406 L125.46,267.296 C125.46,273.923417 130.832583,279.296 137.46,279.296 C144.087417,279.296 149.46,273.923417 149.46,267.296 L149.46,239.406 C149.46,232.778583 144.087417,227.406 137.46,227.406 C130.832583,227.406 125.46,232.778583 125.46,239.406 Z" id="Path" fill="#000000" fill-rule="nonzero"></path>
                    <path d="M251.594355,200.372336 L306.894355,206.181336 C313.485507,206.873705 319.389967,202.091797 320.082336,195.500645 C320.774705,188.909493 315.992797,183.005033 309.401645,182.312664 L254.101645,176.503664 C247.510493,175.811295 241.606033,180.593203 240.913664,187.184355 C240.221295,193.775507 245.003203,199.679967 251.594355,200.372336 Z" id="Path" fill="#393939" fill-rule="nonzero"></path>
                    <path d="M149.894355,176.503664 L94.5943552,182.312664 C88.0032034,183.005033 83.2212951,188.909493 83.913664,195.500645 C84.606033,202.091797 90.5104931,206.873705 97.1016448,206.181336 L152.401645,200.372336 C158.992797,199.679967 163.774705,193.775507 163.082336,187.184355 C162.389967,180.593203 156.485507,175.811295 149.894355,176.503664 Z" id="Path" fill="#393939" fill-rule="nonzero"></path>
                    <path d="M193.454234,285.808647 C187.541197,296.240964 184.093544,307.645156 184.538803,316.967998 C185.153011,329.828296 193.250222,338.5 206.849,338.5 L206.849,321.5 L206.366366,321.494162 C202.700775,321.401684 201.7119,320.186589 201.519447,316.157002 C201.247154,310.455729 203.787007,302.054371 208.243766,294.191353 L193.454234,285.808647 Z" id="Path" fill="#EBBAAA" fill-rule="nonzero"></path>
                    <path d="M145,368.02 L145,387.82 C145,418.3 169.71,443 200.18,443 C230.66,443 255.36,418.3 255.36,387.82 L255.36,368.02 L145,368.02 Z" id="Path" fill="#393939"></path>
                    <g id="Clipped" transform="translate(144.001000, 368.000000)">
                        <mask id="mask-2" fill="white">
                            <use xlink:href="#path-1"></use>
                        </mask>
                        <g id="Path"></g>
                        <path d="M56.179,92.693 C74.558,92.693 89.457,84.583 89.457,74.58 C89.457,64.576 74.558,56.467 56.179,56.467 C37.8,56.467 22.902,64.576 22.902,74.58 C22.902,84.583 37.8,92.693 56.179,92.693 Z" id="Path" fill="#FF6C6C" fill-rule="nonzero" mask="url(#mask-2)"></path>
                    </g>
                    <rect id="Rectangle" fill="#FFFFFF" fill-rule="nonzero" x="145" y="368.02" width="110.363" height="22.7466"></rect>
                </g>
            </g>
        </g>
    </g>
</svg>