<?xml version="1.0" encoding="UTF-8"?>
<svg width="464px" height="1403px" viewBox="0 0 464 1403" version="1.1" xmlns="http://www.w3.org/2000/svg" xmlns:xlink="http://www.w3.org/1999/xlink">
    <!-- Generator: Sketch 55.2 (78181) - https://sketchapp.com -->
    <title>gee_me_078</title>
    <desc>Created with Sketch.</desc>
    <defs>
        <path d="M76.625,0.129 C76.96,2.175 77.135,4.275 77.135,6.415 L77.135,20.599 C77.135,41.899 59.868,59.166 38.567,59.166 C17.267,59.166 0,41.899 0,20.599 L0,6.415 C0,4.275 0.174,2.175 0.51,0.129 L76.625,0.129 Z" id="path-1"></path>
    </defs>
    <g id="GEE!-ME" stroke="none" stroke-width="1" fill="none" fill-rule="evenodd">
        <g id="gee_me_078" transform="translate(-368.000000, -97.000000)">
            <g transform="translate(368.000000, 97.489997)">
                <g id="lower-limb" transform="translate(4.000000, 889.510003)" fill-rule="nonzero">
                    <path d="M306.5,165.13 C323.996381,165.13 338.213128,179.171783 338.495713,196.600821 L338.5,197.13 L338.5,432.63 C338.5,450.303112 324.173112,464.63 306.5,464.63 C289.003619,464.63 274.786872,450.588217 274.504287,433.159179 L274.5,432.63 L274.5,197.13 C274.5,179.456888 288.826888,165.13 306.5,165.13 Z" id="Path" fill="#EBBAAA"></path>
                    <path d="M149.458,165.13 C166.954381,165.13 181.171128,179.171783 181.453713,196.600821 L181.458,197.13 L181.458,432.63 C181.458,450.303112 167.131112,464.63 149.458,464.63 C131.961619,464.63 117.744872,450.588217 117.462287,433.159179 L117.458,432.63 L117.458,197.13 C117.458,179.456888 131.784888,165.13 149.458,165.13 Z" id="Path" fill="#EBBAAA"></path>
                    <g id="Group-4" transform="translate(254.256049, 420.290000)">
                        <path d="M188.155951,89.86 C188.355951,66.91 185.229951,52.95 165.279951,43.57 C145.329951,34.19 126.538951,16.16 92.0249515,0.7 C92.0249515,0.7 87.4819515,-0.15 80.0869515,3.85 C73.7769515,7.26 65.6709515,15.63 53.4569515,15.53 C40.1949515,15.41 28.3759515,12.6 21.0329515,8.75 C17.8609515,0.06 10.8229515,2.27373675e-13 10.8229515,2.27373675e-13 C10.8229515,2.27373675e-13 0.913951486,18.86 0.747951486,37.81 C0.582951486,56.75 0.599455236,88.22 0.599455236,88.22 L188.155951,89.86 Z" id="Path" fill="#DCE1E6"></path>
                        <path d="M95.6517031,3.46998851 C96.2592227,2.10405115 97.8590256,1.48923206 99.224963,2.09675163 C100.5909,2.7042712 101.205719,4.30407414 100.5982,5.67001149 C100.011572,6.98897587 99.5716861,8.49214346 99.2628481,10.1700063 C99.0040315,11.5761118 98.8514565,12.8756586 98.7654177,14.4061134 L98.736,14.996 L113.273445,8.58342736 C115.312911,7.68374439 117.478998,9.49217871 117.013117,11.6268246 L116.975327,11.7798219 L113.978,22.644 L125.986437,18.7737179 C127.679566,18.2279056 129.411982,19.434046 129.518604,21.1794475 L129.523791,21.35 L129.523,32.505 L138.520428,27.6300604 C140.273906,26.6799729 142.39527,27.887903 142.511771,29.840816 L142.516791,30.01 L142.516791,43.55 C142.516791,45.0449465 141.304898,46.25684 139.809951,46.25684 C138.370373,46.25684 137.19327,45.1330539 137.108052,43.7148931 L137.103111,43.55 L137.103,34.554 L128.106475,39.4299396 C126.352997,40.3800271 124.231633,39.172097 124.115132,37.219184 L124.110111,37.05 L124.11,25.066 L110.865465,29.3362821 C108.868497,29.9800433 106.953657,28.2108137 107.386487,26.1994347 L107.425576,26.0401781 L110.239,15.838 L97.0514581,21.6565726 C95.3148448,22.4226562 93.3701621,21.2108568 93.2572713,19.3508411 L93.2521115,19.18 L93.2546492,18.1528809 C93.2747238,14.3474599 93.4208982,12.0026341 93.9386104,9.18999368 C94.3204344,7.11561095 94.8786345,5.20814374 95.6517031,3.46998851 Z" id="Path" fill="#FFFFFF"></path>
                        <path d="M6.63395149,9.98 C10.4859515,15.21 24.3779515,18.34 29.6049515,19.11 C34.8319515,19.88 40.4319515,19.2 38.1909515,27.85 C36.6069515,33.96 21.3759515,31.49 15.4209515,31.44 C10.5799515,31.39 3.78995149,46.03 1.26095149,41.06 C1.26095149,24.06 4.46795149,14.85 6.63395149,9.98 Z" id="Path" fill="#518C2D"></path>
                        <path d="M180.607951,45.33 C174.487951,43.11 168.005951,41.43 155.577951,38.61 L160.859951,53.82 L160.707951,71.14 L196.080951,71.4500388 C197.523951,71.46 200.103951,69.54 198.872951,61.73 C197.333951,51.97 189.304951,48.48 180.607951,45.33 Z" id="Path" fill="#EAF4FB"></path>
                        <polygon id="Path" fill="#518C2D" points="122.091593 42.2158091 137.43231 50.2641909 120.95331 81.6741909 105.612593 73.6258091"></polygon>
                        <polygon id="Path" fill="#518C2D" points="99.385165 30.3242605 114.734738 38.3557395 94.987738 76.0957395 79.638165 68.0642605"></polygon>
                        <polygon id="Path" fill="#518C2D" points="77.1189762 17.2544399 92.5309268 25.1655601 65.2279268 78.3555601 49.8159762 70.4444399"></polygon>
                        <path d="M0.00695148621,85.26 L1.03395149,67.04 L159.639951,69.51 L199.185951,66.61 L200.393951,80.58 C200.810951,85.41 197.192951,89.63 192.361951,89.97 L159.440951,92.24 L4.26395149,89.84 C1.80295149,89.8 -0.131048514,87.72 0.00695148621,85.26 Z" id="Path" fill="#C7CBCF"></path>
                    </g>
                    <g id="Group-5" transform="translate(0.492205, 420.290000)">
                        <path d="M12.2715951,89.86 C12.0712951,66.91 15.1976951,52.95 35.1471951,43.57 C55.0966951,34.19 73.8879951,16.16 108.401795,0.7 C108.401795,0.7 112.944795,-0.15 120.339795,3.85 C126.650795,7.26 134.756795,15.63 146.969795,15.53 C160.232795,15.41 172.050795,12.6 179.393795,8.75 C182.566795,0.06 189.603795,2.27373675e-13 189.603795,2.27373675e-13 C189.603795,2.27373675e-13 199.513795,18.86 199.678795,37.81 C199.843795,56.75 199.828217,88.22 199.828217,88.22 L12.2715951,89.86 Z" id="Path" fill="#DCE1E6"></path>
                        <path d="M101.203208,2.09656308 C102.569249,1.48927769 104.168947,2.10437105 104.776232,3.47041254 C105.548917,5.20850794 106.106839,7.11590383 106.488473,9.1902125 L106.615199,9.91457938 C107.069928,12.660363 107.174635,15.1060461 107.174635,19.18 C107.174635,21.0780965 105.281,22.3682542 103.533644,21.7207923 L103.375254,21.6565573 L90.187,15.838 L93.0017746,26.0401935 C93.5597184,28.0628024 91.7104083,29.9003843 89.7193417,29.3821361 L89.561899,29.3362878 L76.316,25.066 L76.3168351,37.05 C76.3168351,39.0443374 74.2441648,40.3340564 72.4716004,39.5061166 L72.3204566,39.4299313 L63.324,34.555 L63.3240351,43.55 C63.3240351,44.9895781 62.2002491,46.1666818 60.7820883,46.2519 L60.6171951,46.25684 C59.1776171,46.25684 58.0005133,45.1330539 57.9152951,43.7148931 L57.9103551,43.55 L57.9103551,30.01 C57.9103551,28.0156626 59.9830254,26.7259436 61.7555899,27.5538834 L61.9067337,27.6300687 L70.903,32.505 L70.9031551,21.35 C70.9031551,19.5710771 72.5826477,18.2922895 74.2765737,18.7263214 L74.4404912,18.7737122 L86.449,22.644 L83.4521156,11.7798065 C82.8593498,9.63096383 84.9642526,7.75164388 87.0081825,8.52375083 L87.1540365,8.58344271 L101.69,14.996 C101.617088,13.3182705 101.475738,11.9461868 101.220588,10.4845162 L101.164155,10.1697875 C100.855446,8.49185058 100.415742,6.98861166 99.8293582,5.66958746 C99.2220728,4.30354597 99.8371662,2.70384846 101.203208,2.09656308 Z" id="Path" fill="#FFFFFF"></path>
                        <path d="M193.793795,9.98 C189.940795,15.21 176.048795,18.34 170.821795,19.11 C165.595795,19.88 159.994795,19.2 162.235795,27.85 C163.820795,33.96 179.050795,31.49 185.005795,31.44 C189.847795,31.39 196.637795,46.03 199.165795,41.06 C199.165795,24.06 195.958795,14.85 193.793795,9.98 Z" id="Path" fill="#518C2D"></path>
                        <path d="M19.8188951,45.33 C25.9395951,43.11 32.4215951,41.43 44.8488951,38.61 L39.5676951,53.82 L39.7188951,71.14 L4.34653512,71.4500388 C2.90294512,71.46 0.323565119,69.54 1.55476512,61.73 C3.09376512,51.97 11.1218951,48.48 19.8188951,45.33 Z" id="Path" fill="#EAF4FB"></path>
                        <polygon id="Path" fill="#518C2D" points="78.3358837 42.2158665 94.8145837 73.6258665 79.4738065 81.6741335 62.9951065 50.2641335"></polygon>
                        <polygon id="Path" fill="#518C2D" points="101.041582 30.3242605 120.788582 68.0642605 105.439009 76.0957395 85.6920086 38.3557395"></polygon>
                        <polygon id="Path" fill="#518C2D" points="123.30777 17.2544399 150.61077 70.4444399 135.19882 78.3555601 107.89582 25.1655601"></polygon>
                        <path d="M200.419795,85.26 L199.392795,67.04 L40.7874951,69.51 L1.24081512,66.61 L0.0327151188,80.58 C-0.384274881,85.41 3.23436512,89.63 8.06489512,89.97 L40.9858951,92.24 L196.162795,89.84 C198.623795,89.8 200.558795,87.72 200.419795,85.26 Z" id="Path" fill="#C7CBCF"></path>
                    </g>
                    <path d="M231,158.13 C294.513,158.13 346,134.62 346,105.629 C346,76.634 294.513,53.129 231,53.129 C167.487,53.129 116,76.634 116,105.629 C116,134.62 167.487,158.13 231,158.13 Z" id="Path" fill="#2C2E32"></path>
                    <polygon id="Path" fill="#2C2E32" points="250 0.896 65 0.896 100 354.9 120.715 399.9 188.715 399.9 195 354.9"></polygon>
                    <polygon id="Path" fill="#2C2E32" points="206 0.896 391 0.896 356 354.9 335.285 399.9 267.285 399.9 261 354.9"></polygon>
                    <polygon id="Path" fill="#1D1F23" points="193 386.9 111 386.9 115 408.9 189.257 408.9"></polygon>
                    <polygon id="Path" fill="#1D1F23" points="263 386.9 345 386.9 341 408.9 266.743 408.9"></polygon>
                </g>
                <g id="upper-limb" transform="translate(0.000000, 435.510003)">
                    <path d="M85.7737967,131.950116 C95.813717,114.152075 118.380843,107.862876 136.178884,117.902797 C153.976925,127.942717 160.266124,150.509843 150.226203,168.307884 C131.821847,200.933788 112.559796,261.499367 99.7758709,325.163311 C93.7636409,355.104217 89.6436215,383.599741 87.9658818,406.769905 L87.8235875,408.80984 C87.1454329,418.922654 86.9667665,427.724896 87.2756136,434.873385 L87.3081229,435.582708 C87.4684356,438.888139 87.7318379,441.720201 88.072991,444.009472 L88.1422508,444.460068 C88.3917751,446.034007 88.6340232,447.063198 88.7527169,447.427201 L88.7723567,447.484507 C95.7557175,466.688749 85.8487356,487.917996 66.6444933,494.901357 C47.440251,501.884718 26.2110042,491.977736 19.2276433,472.773493 C8.3681347,442.909845 12.7181691,382.83437 27.2241291,310.594689 C41.4089819,239.954122 62.8131616,172.65306 85.7737967,131.950116 Z" id="Path" fill="#EBBAAA" fill-rule="nonzero"></path>
                    <path d="M331.821116,117.902797 C349.619157,107.862876 372.186283,114.152075 382.226203,131.950116 C405.186838,172.65306 426.591018,239.954122 440.775871,310.594689 C455.281831,382.83437 459.631865,442.909845 448.772357,472.773493 C441.788996,491.977736 420.559749,501.884718 401.355507,494.901357 C382.343307,487.987829 372.443352,467.111909 379.023202,448.061225 L379.227643,447.484507 C379.337502,447.182395 379.593547,446.126591 379.857749,444.460068 C380.209156,442.243478 380.484502,439.479469 380.658448,436.237462 L380.691877,435.582708 C381.067345,427.841065 380.853405,418.08454 380.034118,406.769905 L379.855103,404.39541 C378.074881,381.66618 374.032555,354.089271 368.224129,325.163311 C355.440204,261.499367 336.178153,200.933788 317.773797,168.307884 C307.733876,150.509843 314.023075,127.942717 331.821116,117.902797 Z" id="Path" fill="#EBBAAA" fill-rule="nonzero"></path>
                    <path d="M353.5,47.629 L344,329.129 C435,329.129 464,289.129 464,289.129 C460.846,208.232 446.5,94.629 353.5,47.629 Z" id="Path" fill="#2C2E32" fill-rule="nonzero"></path>
                    <path d="M110.5,47.629 L120,329.129 C29,329.129 0,289.129 0,289.129 C3.15424,208.232 17.5,94.629 110.5,47.629 Z" id="Path" fill="#2C2E32" fill-rule="nonzero"></path>
                    <path d="M69.5655,134.002 C66.9446,89.139 94.5734,48.037 137.106,33.527 L235,0.129 L332.894,33.527 C375.427,48.037 403.055,89.139 400.434,134.002 L394.877,229.129 C394.877,229.129 417.981,297.59 419.858,343.129 C421.431,381.29 409.484,437.009 405.879,452.809 C405.247,455.579 403.443,457.886 400.854,459.057 C386.192,465.684 331.31,487.129 235,487.129 C138.69,487.129 83.8082,465.684 69.1463,459.057 C66.5574,457.886 64.753,455.579 64.121,452.809 C60.5156,437.009 48.5691,381.29 50.1419,343.129 C52.0187,297.59 75.1227,229.129 75.1227,229.129 L69.5655,134.002 Z" id="Path" fill="#35383E" fill-rule="nonzero"></path>
                    <path d="M297.862179,197.998373 C325.691835,185.156159 308.928583,158.604981 277.926388,166.951822 C260.835845,171.546549 245.657718,189.661441 233.54693,196.44884 C240.334409,184.338195 258.442655,169.157454 263.044297,152.075752 C271.391238,121.067063 244.839745,104.31087 232.000428,132.134353 C219.158063,104.31087 192.606824,121.067063 200.949699,152.075752 C205.55439,169.156437 223.663652,184.338195 230.447066,196.44884 C218.339073,189.661441 203.165267,171.546549 186.070403,166.951822 C155.068208,158.604981 138.308005,185.156159 166.138932,197.998373 C138.308005,210.837537 155.068208,237.388462 186.070403,229.044669 C203.165267,224.447147 218.340089,206.332255 230.447066,199.547651 C223.663652,211.65855 205.55439,226.837259 200.949699,243.930649 C192.606824,274.933494 219.157047,291.689687 232.000428,263.863155 C244.839745,291.689687 271.391238,274.933494 263.044297,243.930649 C258.442655,226.837259 240.334409,211.65855 233.54693,199.547651 C245.657718,206.332255 260.835845,224.447147 277.926388,229.044669 C308.929599,237.388462 325.692851,210.837537 297.862179,197.998373 Z" id="Fill-1" fill="#6D6D6D" transform="translate(232.000000, 198.000000) rotate(-315.000000) translate(-232.000000, -198.000000) "></path>
                </g>
                <g id="hand" transform="translate(33.000179, 0.000000)">
                    <path d="M358.999821,374.139003 C358.999821,448.639003 358.999821,448.639003 199.499821,448.639003 C39.9998206,448.639003 39.9998206,448.639003 39.9998206,374.139003 C39.9998206,45.6389029 111.410821,45.6389029 199.499821,45.6389029 C287.588821,45.6389029 358.999821,45.6389029 358.999821,374.139003 Z" id="Path" fill="#AF682A" fill-rule="nonzero"></path>
                    <path d="M352.874821,346.192003 C374.966821,346.192003 392.874821,326.716003 392.874821,302.692003 C392.874821,278.667003 374.966821,259.192003 352.874821,259.192003 C330.783821,259.192003 312.874821,278.667003 312.874821,302.692003 C312.874821,326.716003 330.783821,346.192003 352.874821,346.192003 Z" id="Path" fill="#C99584" fill-rule="nonzero" opacity="0.5"></path>
                    <path d="M52.8749206,346.192003 C30.7835206,346.192003 12.8749206,326.716003 12.8749206,302.692003 C12.8749206,278.667003 30.7835206,259.192003 52.8749206,259.192003 C74.9668206,259.192003 92.8748206,278.667003 92.8748206,302.692003 C92.8748206,326.716003 74.9668206,346.192003 52.8749206,346.192003 Z" id="Path" fill="#C99584" fill-rule="nonzero" opacity="0.5"></path>
                    <rect id="Rectangle" fill="#EBBAAA" fill-rule="nonzero" x="167.874821" y="371.639003" width="69" height="115" rx="34.5"></rect>
                    <path d="M44.9743206,205.896003 C48.2699206,121.974003 117.261821,55.6389029 201.247821,55.6389029 C284.933821,55.6389029 353.789821,121.516003 357.488821,205.120003 L360.874821,281.639003 C377.644821,377.691003 303.721821,465.639003 206.216821,465.639003 L202.999821,465.639003 L200.970821,465.639003 C102.946821,465.639003 27.7684206,378.624003 41.9999206,281.639003 L44.9743206,205.896003 Z" id="Path" fill="#F4D5CC" fill-rule="nonzero"></path>
                    <path d="M241.134821,345.242003 L241.134821,359.109003 C241.134821,380.409003 223.867821,397.676003 202.566821,397.676003 C181.266821,397.676003 163.999821,380.409003 163.999821,359.109003 L163.999821,345.242003 L241.134821,345.242003 Z" id="Path" fill="#393939"></path>
                    <g id="Clipped" transform="translate(163.999821, 338.510003)">
                        <mask id="mask-2" fill="white">
                            <use xlink:href="#path-1"></use>
                        </mask>
                        <g id="Path"></g>
                        <g id="Group" mask="url(#mask-2)" fill-rule="nonzero">
                            <g transform="translate(0.000000, 4.000000)">
                                <ellipse id="Oval" fill="#FF6C6C" transform="translate(38.258000, 50.796000) scale(-1, 1) translate(-38.258000, -50.796000) " cx="38.258" cy="50.796" rx="23.2582" ry="12.6667"></ellipse>
                                <rect id="Rectangle" fill="#FFFFFF" transform="translate(38.567650, 8.685500) scale(-1, 1) translate(-38.567650, -8.685500) " x="0.0003" y="0.732" width="77.1347" height="15.907"></rect>
                            </g>
                        </g>
                    </g>
                    <path d="M238.016791,205.82366 C238.332959,200.403633 242.909607,196.244401 248.30251,196.410509 L248.582164,196.422974 L308.582164,199.922974 C314.095639,200.244593 318.304469,204.974871 317.98285,210.488346 C317.666682,215.908372 313.090034,220.067605 307.697131,219.901497 L307.417477,219.889032 L247.417477,216.389032 C241.904002,216.067413 237.695172,211.337134 238.016791,205.82366 Z" id="Path" fill="#AF682A" fill-rule="nonzero"></path>
                    <path d="M157.417477,196.422974 C162.930952,196.101354 167.661231,200.310185 167.98285,205.82366 C168.299018,211.243686 164.23701,215.90684 158.86137,216.368897 L158.582164,216.389032 L98.582164,219.889032 C93.0686891,220.210652 88.3384105,216.001821 88.0167912,210.488346 C87.700623,205.06832 91.7626316,200.405166 97.1382711,199.943109 L97.4174772,199.922974 L157.417477,196.422974 Z" id="Path" fill="#AF682A" fill-rule="nonzero"></path>
                    <path d="M265.999821,241.639003 C272.525277,241.639003 277.834213,246.847547 277.996021,253.334028 L277.999821,253.639003 L277.999821,266.639003 C277.999821,273.26642 272.627238,278.639003 265.999821,278.639003 C259.474364,278.639003 254.165428,273.430459 254.00362,266.943978 L253.999821,266.639003 L253.999821,253.639003 C253.999821,247.011586 259.372404,241.639003 265.999821,241.639003 Z" id="Path" fill="#000000" fill-rule="nonzero"></path>
                    <path d="M140.499821,241.639003 C147.025277,241.639003 152.334213,246.847547 152.496021,253.334028 L152.499821,253.639003 L152.499821,266.639003 C152.499821,273.26642 147.127238,278.639003 140.499821,278.639003 C133.974364,278.639003 128.665428,273.430459 128.50362,266.943978 L128.499821,266.639003 L128.499821,253.639003 C128.499821,247.011586 133.872404,241.639003 140.499821,241.639003 Z" id="Path" fill="#000000" fill-rule="nonzero"></path>
                    <path d="M207.874821,124.192003 C124.873821,124.192003 67.6618206,137.692003 54.8752206,165.380003 C42.0882206,193.068003 45.0150206,201.692003 44.3752206,194.192003 C43.7355206,186.692003 42.8752206,178.318003 42.8752206,163.192003 C42.8752206,65.0039029 111.375821,50.1899029 173.374821,56.1906029 C235.374821,62.1912029 283.735821,124.192003 207.874821,124.192003 Z" id="Path" fill="#706F6F" fill-rule="nonzero"></path>
                    <path d="M197.198821,123.702003 C273.347821,123.702003 349.735821,95.0380029 352.874821,150.692003 C364.874821,169.692003 360.374821,191.692003 361.874821,160.692003 C368.334821,27.1926029 164.874821,-62.6798971 60.8749206,92.8200029 C60.8749206,92.8200029 121.041821,123.702003 197.198821,123.702003 Z" id="Path" fill="#706F6F" fill-rule="nonzero"></path>
                    <path d="M213.267821,116.639003 C69.9998206,148.638003 19.2683206,241.638003 58.7683206,380.639003 C1.76842059,321.639003 -10.7316794,250.138003 8.26822059,176.639003 C39.9236206,54.1822029 177.522821,-58.6700971 303.267821,42.9556029 C303.267821,42.9556029 313.492821,94.2530029 213.267821,116.639003 Z" id="Path" fill="#D88439" fill-rule="nonzero"></path>
                    <path d="M191.999821,176.639003 C327.999821,194.638003 385.999821,241.638003 346.499821,380.639003 C403.499821,321.639003 415.999821,250.138003 396.999821,176.639003 C365.344821,54.1822029 226.508439,-62.9452477 100.762439,38.6804523 C100.762439,38.6804523 90.1938206,163.164003 191.999821,176.639003 Z" id="Path" fill="#E18D43" fill-rule="nonzero"></path>
                    <path d="M230.042549,124.48673 C230.402789,121.748905 232.914268,119.821491 235.652093,120.181731 C244.522749,121.348923 251.337262,124.292062 256.839347,129.055185 C260.867076,132.541966 263.637319,136.235021 267.58054,142.767334 L270.083752,146.975086 C270.69897,148.007074 271.218218,148.864597 271.718979,149.671523 L271.932684,150.014612 C280.276384,163.359517 289.409951,170.217679 308.406848,173.721961 C311.122455,174.222898 312.9178,176.830423 312.416863,179.54603 C311.915925,182.261637 309.308401,184.056982 306.592793,183.556045 C284.653274,179.508949 273.20537,170.913012 263.453596,155.316032 L262.759401,154.193494 C262.444842,153.679525 262.118418,153.139369 261.764807,152.548624 L259.656175,148.997773 L258.783531,147.545889 C255.486186,142.1185 253.260242,139.183362 250.294242,136.615713 C246.311002,133.167446 241.326106,131.014506 234.347548,130.096274 C231.609723,129.736034 229.682309,127.224556 230.042549,124.48673 Z" id="Path" fill-opacity="0.30706403" fill="#FFFFFF" fill-rule="nonzero"></path>
                    <path d="M284.231907,141.133346 C285.063459,138.5001 287.872232,137.039538 290.505477,137.87109 C300.076797,140.893612 306.038006,144.612215 310.861518,149.875929 L311.846097,150.981563 C312.343602,151.556366 312.796154,152.11397 313.693015,153.246644 L314.612116,154.410372 C317.306197,157.826233 318.821305,159.352428 321.341406,160.896416 C324.755909,162.988378 329.603145,164.578855 336.771705,165.698943 C339.500025,166.125243 341.366181,168.682567 340.939881,171.410887 C340.513581,174.139207 337.956256,176.005363 335.227936,175.579063 C319.906818,173.185138 313.670156,169.364127 306.760325,160.603058 L305.181309,158.610864 C304.568112,157.847472 304.255431,157.484808 303.725644,156.893327 C300.060367,152.801225 295.588708,149.963088 287.494164,147.406916 C284.860918,146.575365 283.400356,143.766592 284.231907,141.133346 Z" id="Path" fill-opacity="0.30706403" fill="#FFFFFF" fill-rule="nonzero"></path>
                    <path d="M198.802393,272.477051 L212.947248,281.906955 C208.139825,289.118089 204.374821,299.942477 204.374821,307.817003 C204.374821,315.410022 207.116815,318.60171 215.511576,318.690111 L215.874821,318.692003 L215.874821,335.692003 C197.331701,335.692003 187.374821,324.490512 187.374821,307.817003 C187.374821,296.521894 192.073756,282.810757 198.452797,273.007842 L198.802393,272.477051 Z" id="Path" fill="#EBBAAA" fill-rule="nonzero"></path>
                </g>
            </g>
        </g>
    </g>
</svg>