<?xml version="1.0" encoding="UTF-8"?>
<svg width="558px" height="1322px" viewBox="0 0 558 1322" version="1.1" xmlns="http://www.w3.org/2000/svg" xmlns:xlink="http://www.w3.org/1999/xlink">
    <!-- Generator: Sketch 55.2 (78181) - https://sketchapp.com -->
    <title>gee_me_079</title>
    <desc>Created with Sketch.</desc>
    <g id="GEE!-ME" stroke="none" stroke-width="1" fill="none" fill-rule="evenodd">
        <g id="gee_me_079" transform="translate(-318.000000, -139.000000)">
            <g transform="translate(305.000000, 139.000000)">
                <g id="lower-limb" transform="translate(88.999991, 821.977000)" fill-rule="nonzero">
                    <g id="Group-6" transform="translate(0.000000, 399.686374)">
                        <path d="M1.1766093,80.7966259 C-0.701390696,76.3266259 0.650109304,70.2066259 1.7017093,68.5366259 C2.7534093,66.8766259 130.449009,59.2066259 130.449009,59.2066259 C151.644009,57.5466259 193.655009,50.5466259 196.559009,62.5966259 C200.150009,77.5066259 199.986009,80.8766259 197.538009,92.4166259 C193.621009,96.2666259 154.000009,99.6266259 141.153009,96.7466259 C141.153009,90.0066259 140.153009,85.6866259 140.153009,85.6866259 C140.153009,85.6866259 132.992009,90.0466259 124.591009,91.9366259 C107.456009,95.7866259 104.175009,99.6266259 51.1010093,99.6266259 C8.5340093,95.7766259 5.3805093,90.7866259 1.1766093,80.7966259 Z" id="Path" fill="#1D1D1D"></path>
                        <path d="M139.279009,15.9466259 C149.929009,16.0866259 166.192009,12.7166259 175.042009,0.886625925 C175.821009,-0.153374075 177.364009,-0.323374075 178.268009,0.616625925 C186.278009,8.89662592 181.100009,4.17662592 184.304009,18.3666259 C187.460009,32.3466259 190.126009,30.3466259 193.283009,43.3366259 C195.468009,52.3266259 202.547009,73.2966259 193.283009,73.2966259 L151.028009,73.2966259 C141.031009,73.2966259 127.529009,84.4666259 94.2380093,87.6066259 C38.9760093,92.8166259 25.4710093,85.6866259 14.4370093,82.3166259 C-10.6690907,74.6566259 2.0718093,57.1366259 14.4370093,51.5366259 C32.5510093,43.3366259 58.5120093,37.1766259 71.7170093,30.3766259 C82,25.0866259 85.5310093,23.4466259 90.8110093,17.8766259 C97.5670093,10.7466259 100.422009,6.20662592 102.561009,2.65662592 C103.464009,1.16662592 105.832009,1.51662592 106.788009,2.97662592 C112.618009,11.8866259 129.446009,15.8266259 139.279009,15.9466259 Z" id="Path" fill="#000000"></path>
                        <path d="M104.863523,4.35992476 C106.168137,3.75640139 107.705671,4.27967575 108.380004,5.52700942 L108.45671,5.68013917 C108.827966,6.48266933 109.579262,7.47987591 110.736912,8.7124682 L111.212475,9.20958585 C111.542046,9.5480563 111.90387,9.90805426 112.341129,10.3340407 L115.144565,13.0447315 C116.111049,13.9938102 116.522407,14.4417064 117.143144,15.172681 C118.698296,17.0040171 119.557849,18.6099493 119.557849,20.3866259 C119.557849,22.1876454 117.839164,23.469873 116.133014,22.9967031 L115.973152,22.9471629 L102.521,18.335 L108.213137,26.4180853 C109.644206,28.4502029 107.812337,31.142416 105.43809,30.6249762 L105.282507,30.5866398 L92.891,27.18 L97.6675669,33.5653065 C99.1184525,35.5050093 97.4873048,38.1967253 95.1402891,37.8698932 L94.9827868,37.843591 L81.787,35.274 L87.8352972,40.8934572 C88.8849346,41.8685302 88.9865973,43.4821207 88.0977371,44.5788837 L87.976178,44.7189138 C87.001105,45.7685512 85.3875145,45.8702139 84.2907515,44.9813538 L84.1507214,44.8597946 L71.1577214,32.7897946 C69.2027913,30.9737393 70.7788484,27.7611073 73.3580873,28.1229958 L73.5172318,28.1496608 L89.129,31.188 L83.8254517,24.0979454 C82.3132744,22.076301 84.144945,19.3015849 86.5558635,19.8284589 L86.710512,19.866612 L99.442,23.366 L93.2868817,14.6251665 C91.8068403,12.5235078 93.8106354,9.77008807 96.2263743,10.458542 L96.3778666,10.506089 L109.32,14.943 L108.54442,14.1933065 C107.921416,13.5861388 107.432409,13.0949018 106.965186,12.603279 L106.79078,12.4186752 C105.270274,10.7997377 104.207774,9.38946425 103.543308,7.95311268 C102.915644,6.59631409 103.506724,4.98758906 104.863523,4.35992476 Z" id="Path" fill="#1C1B1B"></path>
                        <path d="M17.4698883,66.7370408 C18.0108982,64.8812972 19.9538508,63.815495 21.8095944,64.3565049 L23.2983861,64.7854778 C29.3567118,66.5086397 33.6797013,67.4403448 39.1484131,68.0064812 C47.1718667,68.8370917 55.6807103,68.4549625 65.1184127,66.5554343 C67.0134075,66.1740283 68.858795,67.4010345 69.240201,69.2960293 C69.621607,71.1910241 68.3946008,73.0364116 66.4996059,73.4178176 C56.3635815,75.4578972 47.1462176,75.8718459 38.4276055,74.9692706 C32.015135,74.3054336 27.0837595,73.1855006 19.8504242,71.0767469 C17.9946806,70.535737 16.9288784,68.5927844 17.4698883,66.7370408 Z" id="Path" fill-opacity="0.11" fill="#FFFFFF"></path>
                        <path d="M92.0940093,42.3966259 C101.886009,33.7466259 109.167009,29.4166259 117.000009,19.7966259 C121.243009,19.7966259 126.844009,20.2766259 143.000009,20.2766259 C164.052009,20.2766259 169.632009,11.6166259 178.934009,1.52662592 C186.000009,5.84662592 182.361009,14.9866259 187.257009,27.4866259 C191.174009,37.4966259 198.517009,52.4966259 198.517009,70.7766259 C195.090009,76.5466259 161.309009,73.6566259 150.539009,73.6566259 C148.091009,62.1166259 129.000009,52.4966259 120.500009,50.0966259 C113.039009,47.9866259 104.334009,47.2066259 92.0940093,42.3966259 Z" id="Path" fill="#1B1A1A"></path>
                    </g>
                    <g id="Group-5" transform="translate(224.418516, 399.686374)">
                        <path d="M198.147494,80.7966259 C200.025494,76.3266259 198.673494,70.2066259 197.621494,68.5366259 C196.570494,66.8766259 68.8744937,59.2066259 68.8744937,59.2066259 C47.6794937,57.5466259 5.66849369,50.5466259 2.76449369,62.5966259 C-0.826506306,77.5066259 -0.662506306,80.8766259 1.78549369,92.4166259 C5.70249369,96.2666259 45.3234937,99.6266259 58.1704937,96.7466259 C58.1704937,90.0066259 59.1704937,85.6866259 59.1704937,85.6866259 C59.1704937,85.6866259 66.3314937,90.0466259 74.7324937,91.9366259 C91.8674937,95.7866259 95.1484937,99.6266259 148.222494,99.6266259 C190.789494,95.7766259 193.943494,90.7866259 198.147494,80.7966259 Z" id="Path" fill="#1D1D1D"></path>
                        <path d="M60.0454937,15.9466259 C49.3944937,16.0866259 33.1314937,12.7166259 24.2814937,0.886625925 C23.5024937,-0.153374075 21.9594937,-0.323374075 21.0554937,0.616625925 C13.0464937,8.89662592 18.2234937,4.17662592 15.0204937,18.3666259 C11.8634937,32.3466259 9.19749369,30.3466259 6.04149369,43.3366259 C3.85549369,52.3266259 -3.22350631,73.2966259 6.04149369,73.2966259 L48.2954937,73.2966259 C58.2924937,73.2966259 71.7944937,84.4666259 105.085494,87.6066259 C160.348494,92.8166259 173.852494,85.6866259 184.886494,82.3166259 C209.992494,74.6566259 197.251494,57.1366259 184.886494,51.5366259 C166.772494,43.3366259 140.811494,37.1766259 127.606494,30.3766259 C117.323494,25.0866259 113.792494,23.4466259 108.513494,17.8766259 C101.756494,10.7466259 98.9024937,6.20662592 96.7624937,2.65662592 C95.8594937,1.16662592 93.4914937,1.51662592 92.5354937,2.97662592 C86.7054937,11.8866259 69.8774937,15.8266259 60.0454937,15.9466259 Z" id="Path" fill="#000000"></path>
                        <path d="M90.8667925,5.68013917 C91.4944568,4.32334058 93.1031819,3.73226045 94.4599805,4.35992476 C95.816779,4.98758906 96.4078592,6.59631409 95.7801949,7.95311268 C95.1631907,9.28686771 94.2029841,10.598137 92.8515575,12.0748683 L92.5327233,12.4186752 C92.0112525,12.973904 91.479962,13.5102428 90.7790834,14.1933065 L90.002,14.943 L102.945636,10.506089 C105.377206,9.6724469 107.46083,12.3659626 106.124615,14.4930012 L106.036621,14.6251665 L99.88,23.366 L112.612991,19.866612 C115.047307,19.1974093 116.961196,21.9160661 115.590059,23.9679206 L115.498051,24.0979454 L110.194,31.188 L125.806271,28.1496608 C128.425403,27.6398031 130.092942,30.8059168 128.281081,32.6769048 L128.165782,32.7897946 L115.172782,44.8597946 C114.077508,45.8772621 112.364792,45.8141876 111.347325,44.7189138 C110.372252,43.6692764 110.389552,42.052579 111.356676,41.0241668 L111.488206,40.8934572 L117.537,35.274 L104.340716,37.843591 C101.963053,38.3064429 100.248676,35.6669564 101.56375,33.6956927 L101.655936,33.5653065 L106.431,27.18 L94.0409964,30.5866398 C91.6444536,31.2454585 89.731146,28.6104994 91.0216336,26.5515108 L91.110366,26.4180853 L96.802,18.335 L83.350351,22.9471629 C81.6466755,23.5312528 79.8763633,22.3213012 79.7706361,20.5539139 L79.7656537,20.3866259 C79.7656537,18.7034586 80.5371088,17.1735356 81.9406135,15.4600239 L82.3526756,14.9708564 C82.9124748,14.3192675 83.3484029,13.8566917 84.320866,12.9056547 L86.9823739,10.3340407 C87.6382619,9.69506107 88.1244226,9.20455544 88.5865909,8.7124682 C89.6615521,7.56791821 90.3861355,6.62632836 90.7814112,5.85510449 L90.8667925,5.68013917 Z" id="Path" fill="#1C1B1B"></path>
                        <path d="M177.513909,64.3565049 C179.369652,63.815495 181.312605,64.8812972 181.853615,66.7370408 C182.394625,68.5927844 181.328822,70.535737 179.473079,71.0767469 C172.239743,73.1855006 167.308368,74.3054336 160.895897,74.9692706 C152.177285,75.8718459 142.959921,75.4578972 132.823897,73.4178176 C130.928902,73.0364116 129.701896,71.1910241 130.083302,69.2960293 C130.464708,67.4010345 132.310095,66.1740283 134.20509,66.5554343 C143.642793,68.4549625 152.151636,68.8370917 160.17509,68.0064812 C166.081299,67.3950539 170.651137,66.3572272 177.513909,64.3565049 Z" id="Path" fill-opacity="0.11" fill="#FFFFFF"></path>
                        <path d="M107.229494,42.3966259 C97.4374937,33.7466259 90.1564937,29.4166259 82.3234937,19.7966259 C78.0804937,19.7966259 72.4794937,20.2766259 56.3234937,20.2766259 C35.2714937,20.2766259 29.6914937,11.6166259 20.3894937,1.52662592 C13.3234937,5.84662592 16.9624937,14.9866259 12.0664937,27.4866259 C8.15049369,37.4966259 0.806493694,52.4966259 0.806493694,70.7766259 C4.23349369,76.5466259 38.0144937,73.6566259 48.7844937,73.6566259 C51.2324937,62.1166259 70.3234937,52.4966259 78.8234937,50.0966259 C86.2844937,47.9866259 94.9904937,47.2066259 107.229494,42.3966259 Z" id="Path" fill="#1B1A1A"></path>
                    </g>
                    <ellipse id="Oval" fill="#000000" cx="205.002009" cy="94.158" rx="100.994" ry="36.1482"></ellipse>
                    <polygon id="Path" fill="#000000" points="63.1800093 -3.97903932e-13 198.180009 -3.97903932e-13 189.000009 369.813 181.000009 398.023 104.500009 394.023 92.8860093 363.323"></polygon>
                    <polygon id="Path" fill="#000000" points="196.895009 6.021 332.352009 6.021 335.000009 364.603 324.000009 393.603 246.000009 407.023 238.739009 372.603"></polygon>
                    <polygon id="Path" fill="#000000" points="98.0000093 386.023 189.500009 386.023 187.824009 394.253 184.500009 410.023 164.500009 416.503 104.324009 415.753 103.324009 411.253 102.000009 404.753 100.324009 397.253"></polygon>
                    <polygon id="Path" fill="#000000" points="239.324009 389.023 326.324009 390.523 326.324009 404.023 326.324009 413.523 303.000009 416.273 280.000009 416.273 237.000009 411.273"></polygon>
                </g>
                <g id="upper-limb" transform="translate(0.675537, 378.010000)">
                    <path d="M91.0830526,203.09336 C100.378358,184.895351 122.666094,177.678284 140.864103,186.973589 C158.880132,196.175942 166.13374,218.112175 157.257785,236.20749 L156.983874,236.75464 C144.097257,261.983588 130.49248,312.837131 123.386649,362.066604 L123.173317,363.557881 C119.795985,387.381912 118.266873,408.73155 118.797974,424.39508 L118.825282,425.148542 C119.040625,430.726302 119.51744,435.223946 120.121703,438.333663 L120.18,438.63 L120.212129,438.666357 C130.71927,450.694892 132.532941,468.613537 123.624936,482.732238 L123.294246,483.247063 C112.11155,500.350207 89.1813451,505.149679 72.0782005,493.966983 C59.8558133,485.975514 53.1740087,474.295664 49.2498288,460.038207 C46.7149897,450.828549 45.3509715,440.192773 44.8803698,428.003365 C44.0807937,407.292941 45.9010169,381.421915 49.9058593,353.171369 C57.9998108,296.075852 73.6984957,237.128209 91.0830526,203.09336 Z" id="Path" fill="#EBBAAA" fill-rule="nonzero"></path>
                    <path d="M423.867626,164.96077 C441.665681,154.920876 464.232798,161.210108 474.272693,179.008163 C497.969999,221.017166 515.461863,280.371152 524.491155,342.406119 C533.08931,401.478995 532.912852,454.90106 522.09673,484.64474 C515.113234,503.848932 493.883917,513.755764 474.679724,506.772267 C455.667573,499.858605 445.767766,478.982615 452.347751,459.931977 L452.552196,459.35526 C458.084729,444.14113 458.227508,400.915246 451.262772,353.064631 C443.518341,299.857197 428.710778,249.342384 410.376882,216.359924 L409.820234,215.365837 C399.780339,197.567782 406.069571,175.000665 423.867626,164.96077 Z" id="Path" fill="#EBBAAA" fill-rule="nonzero"></path>
                    <rect id="Rectangle" fill="#F1EDED" fill-rule="nonzero" transform="translate(133.657521, 195.444298) rotate(18.000000) translate(-133.657521, -195.444298) " x="78.7215208" y="187.100798" width="109.872" height="16.687"></rect>
                    <rect id="Rectangle" fill="#F1EDED" fill-rule="nonzero" transform="translate(442.238939, 218.062018) rotate(162.000000) translate(-442.238939, -218.062018) " x="387.302939" y="209.718518" width="109.872" height="16.687"></rect>
                    <path d="M155.279463,125.707 C156.114463,91.291 212.418463,58.817 246.824463,57.693 L298.395463,59.751 C304.940463,59.545 311.495463,59.885 317.979463,60.782 L396.386463,71.625 C430.977463,76.408 455.590463,107.68 452.106463,142.426 L437.274463,290.314 L444.716463,502.189 C444.788463,504.003 358.540463,502.282 356.726463,502.189 L218.071463,502.189 L139.262463,490.294 C137.520463,490.202 136.190463,488.686 136.334463,486.944 L151.733463,271.895 L155.279463,125.707 Z" id="Path" fill="#1B1A1A" fill-rule="nonzero"></path>
                    <path d="M286.324463,149.693 C326.088463,149.693 358.324463,127.979 358.324463,101.193 C358.324463,74.407 326.088463,52.693 286.324463,52.693 C246.559463,52.693 214.324463,74.407 214.324463,101.193 C214.324463,127.979 246.559463,149.693 286.324463,149.693 Z" id="Path" fill="#222222" fill-rule="nonzero"></path>
                    <rect id="Rectangle" fill="#EBBAAA" fill-rule="nonzero" x="246.324463" y="0" width="88" height="119" rx="37.911"></rect>
                    <rect id="Rectangle" fill="#474A4F" fill-rule="nonzero" transform="translate(122.210988, 248.085640) rotate(16.500000) translate(-122.210988, -248.085640) " x="48.3549883" y="68.2641403" width="147.712" height="359.643" rx="73.856"></rect>
                    <path d="M17.5269633,455 C11.1269633,436.6 11.3250633,365.693 19.3248633,335.693 L131.526463,337 C128.325463,383.193 147.026463,423.887 131.526463,471.193 C110.526463,472.193 25.5269633,478 17.5269633,455 Z" id="Path" fill="#474A4F" fill-rule="nonzero"></path>
                    <path d="M84.5082903,121.287133 C95.5183743,127.219367 110.144366,132.731061 124.308912,135.498905 C142.65318,139.083493 158.903081,137.943357 171.620598,131.031827 L172.155852,130.736353 L174.601075,135.097647 C160.615532,142.938844 143.012914,144.248352 123.350015,140.406095 C108.98057,137.598213 94.2237595,132.093897 82.8872918,126.089853 L82.1366363,125.688867 L84.5082903,121.287133 Z" id="Path" fill="#5E5F64" fill-rule="nonzero"></path>
                    <path d="M108.75964,87.4050302 C121.023844,102.380781 167.146288,109.380933 193.150086,99.9443897 L193.931867,99.653394 L195.71506,104.324606 C168.301919,114.789327 119.789211,107.710177 105.319292,91.0798349 L104.891287,90.5729698 L108.75964,87.4050302 Z" id="Path" fill="#5E5F64" fill-rule="nonzero"></path>
                    <path d="M62.3309337,194.280147 L64.3223929,189.693853 L64.8331194,189.922897 C67.3954516,191.092211 75.8812936,195.146617 79.1449839,196.593448 L79.3420641,196.68043 C90.5393291,201.598547 100.498942,204.49547 110.899461,205.170596 C123.908406,206.015043 136.508127,203.145723 148.858114,195.754892 L149.519483,195.354624 L152.129444,199.619376 C138.667801,207.85769 124.824201,211.085013 110.575579,210.160095 C99.7958779,209.460355 89.5695251,206.549944 78.2514512,201.659195 L76.9205876,201.076304 C73.2135542,199.421325 64.1737903,195.096171 62.4252822,194.32157 L62.3309337,194.280147 Z" id="Path" fill="#5E5F64" fill-rule="nonzero"></path>
                    <path d="M48.813539,235.280149 L50.8049875,230.693851 L51.6660866,231.083702 C54.6395131,232.454765 62.8468616,236.372496 65.8246851,237.680431 C77.0219538,242.598552 86.981547,245.49547 97.3820966,246.170596 C110.391089,247.015044 122.990925,244.145721 135.341118,236.754883 L136.002498,236.354615 L138.612429,240.619385 C125.150582,248.857692 111.306877,252.085013 97.0582153,251.160095 C86.278484,250.460355 76.0521482,247.549949 64.7340711,242.659195 L63.4032169,242.076307 C60.0596898,240.583612 52.3777496,236.918619 49.6205361,235.645927 L48.813539,235.280149 Z" id="Path" fill="#5E5F64" fill-rule="nonzero"></path>
                    <path d="M72.2668614,160.754043 L74.3830651,156.223957 L81.0809231,159.393045 L81.6200623,159.646641 C84.8387704,161.154688 87.656867,162.425249 90.5173917,163.640033 C105.650905,170.066806 119.138277,173.641935 131.895382,173.587238 C143.462643,173.537643 153.686758,170.391055 162.444558,163.637982 L162.938716,163.251878 L166.042211,167.172122 C156.24933,174.92474 144.770325,178.532082 131.916819,178.587192 C118.354565,178.645342 104.265937,174.910836 88.5629687,168.242231 C86.171232,167.226528 83.8142704,166.175261 81.2454045,164.987498 L79.3449106,164.102151 L72.2668614,160.754043 Z" id="Path" fill="#5E5F64" fill-rule="nonzero"></path>
                    <path d="M38.7106261,270.274528 L40.7323005,265.701472 L47.0471435,268.503813 L48.5888081,269.177151 C50.5985619,270.049499 52.4393544,270.82574 54.2820024,271.573472 C66.4211838,276.499455 77.3309012,279.596731 88.4627735,280.69893 C102.233815,282.062441 115.292318,280.146666 127.700029,274.297339 L128.401657,273.962039 L130.581269,278.461961 C117.091166,284.996116 102.878712,287.150744 87.9701178,285.6746 C76.2927008,284.518385 64.9478418,281.297572 52.4019386,276.206545 L50.9891435,275.627687 C49.335932,274.943894 47.6543251,274.226127 45.8281044,273.428487 L38.7106261,270.274528 Z" id="Path" fill="#5E5F64" fill-rule="nonzero"></path>
                    <path d="M28.7841215,304.274526 L30.805805,299.701474 L32.6544635,300.515173 C48.1743456,307.314874 58.8521022,311.161225 72.1548974,313.850055 C91.5899728,317.778372 109.224493,316.780552 124.584973,309.547383 L125.232653,309.238042 L127.412274,313.737958 C110.79594,321.7864 91.8597984,322.934025 71.1643042,318.750945 C57.4288174,315.974658 46.4835638,312.032571 30.6677396,305.10359 L28.7841215,304.274526 Z" id="Path" fill="#5E5F64" fill-rule="nonzero"></path>
                    <path d="M21.836305,331.701474 C32.1933343,336.280176 50.3362246,341.006578 68.371521,343.342713 C90.542617,346.214563 110.933814,345.464356 126.804645,340.355187 L127.533925,340.116281 L129.115001,344.859719 C112.315722,350.45923 90.9246308,351.305817 67.7292305,348.301287 C49.5322866,345.944214 31.2220826,341.211466 20.3277632,336.498908 L19.8146215,336.274526 L21.836305,331.701474 Z" id="Path" fill="#5E5F64" fill-rule="nonzero"></path>
                    <path d="M16.6145327,362.075292 C28.9169876,366.17611 51.1221751,369.47867 73.5249399,370.273617 L74.3866617,370.302952 C100.71918,371.161305 124.500296,368.599031 141.280388,362.36281 L141.947847,362.111401 L143.731079,366.782599 C126.186775,373.480148 101.512719,376.189827 74.2237648,375.300298 C51.3785734,374.555621 28.5936139,371.229745 15.5309881,366.982514 L15.0333939,366.818708 L16.6145327,362.075292 Z" id="Path" fill="#5E5F64" fill-rule="nonzero"></path>
                    <path d="M13.543089,394.503987 C35.4945474,392.009503 105.442934,391.984558 141.421313,394.419633 L142.501085,394.494176 L142.149842,399.481824 C107.143595,397.016595 37.3480087,396.991943 14.7770659,399.398348 L14.1076375,399.472013 L13.543089,394.503987 Z" id="Path" fill="#5E5F64" fill-rule="nonzero"></path>
                    <path d="M15.2321108,424.452993 L14.4102158,419.521007 L15.4939448,419.346355 C29.6721945,417.136003 54.1577023,416.127784 77.0674085,417.239941 L79.0799642,417.342938 C107.821653,418.890161 132.021575,423.489962 147.912812,431.483531 L148.463782,431.763754 L146.177145,436.210246 C130.713549,428.257994 106.132148,423.656782 76.824968,422.234059 C53.9447921,421.123337 29.4617662,422.158465 15.7476966,424.368505 L15.2321108,424.452993 Z" id="Path" fill="#5E5F64" fill-rule="nonzero"></path>
                    <path d="M15.9134158,445.576007 C29.9023593,443.244808 55.0657925,442.153897 78.5705087,443.294941 L80.5830604,443.397938 C109.324691,444.945161 133.524575,449.544962 149.415812,457.538531 L149.966782,457.818754 L147.680145,462.265246 C132.216548,454.312994 107.635187,449.711782 78.3280678,448.289059 C55.4479388,447.178337 30.9649674,448.213464 17.2508966,450.423505 L16.7353108,450.507993 L15.9134158,445.576007 Z" id="Path" fill="#5E5F64" fill-rule="nonzero"></path>
                    <rect id="Rectangle" fill="#474A4F" fill-rule="nonzero" transform="translate(450.224883, 256.293726) scale(-1, 1) rotate(18.999984) translate(-450.224883, -256.293726) " x="371.232355" y="62.139658" width="157.985055" height="388.308136" rx="78.9925"></rect>
                    <path d="M274.824463,515.989 C281.324463,484.489 259.999463,431.907 258.824463,332.489 C258.289463,287.238 267.868463,231.018 269.824463,182.989 C270.770463,159.738 265.324463,129.681 265.324463,119.193 C259.324463,116.693 248.824463,103.193 243.824463,100.193 C238.824463,97.193 246.324463,84.193 246.324463,56.693 L160.439463,73.166 C147.116463,91.498 123.679463,146.272 119.917463,251.19 C116.928463,334.57 126.210463,391.254 126.109463,445.193 C126.083463,459.126 123.824463,486.193 130.824463,499.693 C137.824463,513.193 221.824463,515.989 274.824463,515.989 Z" id="Path" fill="#3E4044" fill-rule="nonzero"></path>
                    <path d="M487.448577,125.899355 L490.19635,130.076645 C466.460317,145.689934 417.052054,152.514305 397.785471,143.554651 L397.210919,143.278307 L399.438007,138.801693 C416.371428,147.225964 463.89548,140.888268 486.763219,126.342638 L487.448577,125.899355 Z" id="Path" fill="#5E5F64" fill-rule="nonzero"></path>
                    <path d="M498.763383,156.266414 L500.881544,160.795586 C472.560074,174.040711 425.812303,181.947922 408.719749,174.065027 L408.210919,173.821307 L410.438007,169.344693 C425.20296,176.690165 470.495698,169.209643 497.937332,156.648597 L498.763383,156.266414 Z" id="Path" fill="#5E5F64" fill-rule="nonzero"></path>
                    <path d="M470.250752,94.0318068 L473.266175,98.0201932 C462.365192,106.26189 444.75063,111.777128 425.39276,113.76628 C407.585311,115.596116 390.752427,114.129012 381.588302,109.757148 L381.210919,109.573307 L383.438007,105.096693 C391.491754,109.103382 407.68285,110.559765 424.881667,108.79247 C443.134603,106.916857 459.696141,101.788635 469.796128,94.3705655 L470.250752,94.0318068 Z" id="Path" fill="#5E5F64" fill-rule="nonzero"></path>
                    <path d="M563.325463,459 C569.725463,440.6 572.822463,377.693 564.822463,347.693 L449.325463,341 C461.526463,379 440.325463,417.693 449.325463,466.693 C470.325463,467.693 555.325463,482 563.325463,459 Z" id="Path" fill="#474A4F" fill-rule="nonzero"></path>
                    <path d="M508.706387,186.757225 L510.80654,191.294775 L503.049775,194.864439 L500.434218,196.041013 C483.818399,203.4447 471.758455,207.406764 459.387705,208.671715 C447.488568,209.888441 436.638641,208.166059 426.732861,203.004322 L426.139647,202.690486 L428.50528,198.285514 C437.636366,203.189246 447.685826,204.842199 458.87909,203.697651 C470.808123,202.477868 482.653772,198.537004 499.276139,191.081798 L503.60829,189.113092 L508.706387,186.757225 Z" id="Path" fill="#5E5F64" fill-rule="nonzero"></path>
                    <path d="M519.706387,219.359225 L521.80654,223.896775 L514.049775,227.466439 L511.434218,228.643013 C494.818399,236.0467 482.758455,240.008764 470.387705,241.273715 C458.488568,242.490441 447.638641,240.768059 437.732861,235.606322 L437.139647,235.292486 L439.50528,230.887514 C448.636366,235.791246 458.685826,237.444199 469.87909,236.299651 C481.808123,235.079868 493.653772,231.139004 510.276139,223.683798 L514.60829,221.715092 L519.706387,219.359225 Z" id="Path" fill="#5E5F64" fill-rule="nonzero"></path>
                    <path d="M530.383577,251.937355 L533.13135,256.114645 C509.787314,271.470083 461.424554,277.031281 441.795877,267.855866 L441.209919,267.573307 L443.437007,263.096693 C460.807403,271.738357 507.274732,266.623383 529.711097,252.372007 L530.383577,251.937355 Z" id="Path" fill="#5E5F64" fill-rule="nonzero"></path>
                    <path d="M542.761613,285.223774 L544.881314,289.752226 C529.60743,296.901703 514.364787,302.40042 499.196317,305.49492 C479.576313,309.497572 461.80437,309.045404 446.575053,303.08034 L445.884565,302.805401 L447.760362,298.170599 C462.112496,303.979197 479.164496,304.478598 498.19686,300.59583 C512.505778,297.676686 526.965666,292.524423 541.480731,285.819406 L542.761613,285.223774 Z" id="Path" fill="#5E5F64" fill-rule="nonzero"></path>
                    <path d="M551.261613,311.478774 L553.381314,316.007226 C539.478785,322.514792 520.222369,328.758188 501.899307,332.132043 C478.967975,336.354425 458.773596,336.03141 443.485489,330.045625 L442.884565,329.806401 L444.760362,325.171599 C459.075346,330.965162 478.610714,331.336153 500.99387,327.214707 C518.553465,323.981431 537.029331,318.037523 550.490607,311.836777 L551.261613,311.478774 Z" id="Path" fill="#5E5F64" fill-rule="nonzero"></path>
                    <path d="M560.761613,336.811774 L562.881314,341.340226 C536.107996,353.872417 488.284466,361.478565 449.239686,357.596271 L448.059229,357.475103 L448.585698,352.502897 C486.569715,356.524734 533.608224,349.22525 559.969157,337.178281 L560.761613,336.811774 Z" id="Path" fill="#5E5F64" fill-rule="nonzero"></path>
                    <path d="M565.381804,360.671503 L567.257123,365.306497 C530.052839,380.359356 465.872783,386.484753 441.9204,375.326744 L441.206952,374.983324 L443.433974,370.506676 C465.035047,381.252678 527.727668,375.509939 564.282162,361.110491 L565.381804,360.671503 Z" id="Path" fill="#5E5F64" fill-rule="nonzero"></path>
                    <path d="M516.543433,396.723929 C538.491092,395.88071 555.591695,395.763085 568.261692,396.562419 L569.493648,396.644006 L569.147279,401.631994 L567.936214,401.551826 C555.884834,400.792182 539.62423,400.876669 518.855282,401.640529 L514.56883,401.805207 C509.399859,402.011955 504.100974,402.25105 498.261962,402.537977 L461.516849,404.466259 L455.824396,404.737007 C450.952972,404.954662 447.278698,405.074697 444.472789,405.101304 L443.322463,405.107 L443.322463,400.107 L444.739842,400.098188 C448.243486,400.057009 453.150756,399.871106 460.062905,399.532093 L491.973658,397.84788 C499.273535,397.473184 505.652641,397.170654 511.764225,396.915651 L516.543433,396.723929 Z" id="Path" fill="#5E5F64" fill-rule="nonzero"></path>
                    <path d="M438.850278,437.458167 C459.549569,422.360938 521.239434,420.587935 565.58524,431.235903 L566.923684,431.56237 L565.721243,436.41563 C523.023261,425.836804 462.420758,427.318556 442.391127,441.077148 L441.796648,441.497833 L438.850278,437.458167 Z" id="Path" fill="#5E5F64" fill-rule="nonzero"></path>
                    <path d="M436.849234,458.905199 C457.547153,443.808275 519.236778,442.035604 563.583179,452.682913 L564.921641,453.009359 L563.719286,457.862641 C521.020723,447.284477 460.418376,448.765916 440.390129,462.524127 L439.795693,462.944801 L436.849234,458.905199 Z" id="Path" fill="#5E5F64" fill-rule="nonzero"></path>
                    <path d="M130.494891,164.484966 C141.827471,170.502372 160.137263,177.10262 180.291493,181.705761 C206.011582,187.58012 232.976426,189.957407 259.677852,187.820989 L261.108025,187.702214 L261.536902,192.683786 C233.822372,195.069805 205.839352,192.669537 179.178183,186.580239 C158.931964,181.956089 140.473211,175.343927 128.705333,169.19355 L128.150035,168.901034 L130.494891,164.484966 Z" id="Path" fill="#474A4F" fill-rule="nonzero"></path>
                    <path d="M137.494891,129.779966 C148.827471,135.797372 167.137263,142.39762 187.291493,147.000761 C213.011582,152.87512 239.976426,155.252407 266.677852,153.115989 L268.108025,152.997214 L268.536902,157.978786 C240.822372,160.364805 212.839352,157.964537 186.178183,151.875239 C165.931964,147.251089 147.473211,140.638927 135.705333,134.48855 L135.150035,134.196034 L137.494891,129.779966 Z" id="Path" fill="#474A4F" fill-rule="nonzero"></path>
                    <path d="M143.822463,123.988 L143.822463,118.988 L147.643957,118.990879 C187.052533,119.051884 211.023469,120.109173 255.234372,124.703644 L258.084175,125.001736 L257.560751,129.974264 L253.324374,129.532559 C210.186807,125.079586 186.466338,124.05081 147.629241,123.99086 L143.822463,123.988 Z" id="Path" fill="#474A4F" fill-rule="nonzero"></path>
                    <path d="M318.325463,331.193 C318.325463,234.986 314.823463,191.489 314.823463,174.489 C314.823463,157.489 319.323463,139.489 319.323463,127.989 C329.322463,106.682 337.324463,94.693 334.324463,60.193 L397.235463,65.774 C413.150463,67.186 427.254463,75.999 430.566463,91.629 C437.377463,123.767 441.421463,181.858 447.763463,257.124 C454.325463,335 451.065463,400.546 454.325463,454 C455.341463,470.672 458.819463,494.193 449.323463,507.193 C439.826463,520.193 361.824463,522.193 306.824463,517.693 C312.825463,462.968 318.325463,427.401 318.325463,331.193 Z" id="Path" fill="#3E4044" fill-rule="nonzero"></path>
                    <path d="M261.822463,145.988 C261.822463,159.898508 261.309332,175.291849 260.338194,192.258603 L260.239555,193.960527 C259.2865,210.204676 257.973449,227.162491 256.208091,246.957056 L252.111771,291.176463 L251.605835,296.912073 C250.732919,307.069523 250.325463,313.473761 250.325463,317.487853 C250.327889,358.721393 254.299771,403.553411 261.581683,462.392239 L262.318626,468.361993 C264.890424,489.453314 265.800404,500.551173 265.823029,513.970694 L265.823463,514.488 L260.823463,514.488 L260.816534,512.468508 C260.729256,499.944257 259.805297,489.05639 257.352667,468.94487 L256.180453,459.442689 C249.226468,402.746349 245.407085,359.055206 245.326756,318.746555 L245.325463,317.488 C245.325463,312.96928 245.804152,305.77624 246.836604,294.041806 L247.86484,282.819169 C248.84569,272.302271 250.470214,254.962173 251.083965,248.121471 L251.647318,241.765074 C253.199006,224.027758 254.375443,208.54216 255.248139,193.667677 L255.441356,190.291959 C256.314628,174.636694 256.789082,160.352986 256.820765,147.373655 L256.822463,145.988 L261.822463,145.988 Z" id="Path" fill="#474A4F" fill-rule="nonzero"></path>
                    <path d="M271.322536,175.389859 C272.263833,199.349472 271.476512,217.224017 268.947262,241.326848 L268.128144,248.852344 L266.990238,258.948849 C263.681019,288.422359 262.323463,307.89983 262.323463,336.488 C262.323463,369.269227 268.723496,426.974651 274.600273,457.589837 L274.77819,458.509224 C278.799661,479.119267 279.773065,496.072589 277.925645,515.098957 L277.811417,516.243072 L272.83751,515.732928 C274.74686,497.116763 273.915342,480.676057 270.103048,460.671352 L269.870731,459.466747 C263.888307,428.804869 257.323463,369.949694 257.323463,336.488 C257.323463,308.209777 258.643812,288.75199 261.841855,259.998083 L263.328102,246.777999 C263.436725,245.797819 263.537841,244.876946 263.636746,243.966837 C266.351683,218.984531 267.26002,201.072632 266.384685,177.123157 L266.32639,175.586141 L271.322536,175.389859 Z" id="Path" fill="#656566" fill-rule="nonzero"></path>
                    <path d="M439.14526,165.489577 L441.503666,169.898423 C417.037095,182.986226 392.164586,190.889835 367.383132,194.557807 C349.704487,197.174473 333.837729,197.463968 318.758722,196.287154 L317.656771,196.198441 L318.070155,191.215559 C333.120137,192.464118 348.952987,192.231232 366.651044,189.611693 C390.477421,186.085084 414.393174,178.552908 437.947877,166.125692 L439.14526,165.489577 Z" id="Path" fill="#474A4F" fill-rule="nonzero"></path>
                    <path d="M432.606228,133.192594 L434.964698,137.601406 C411.93155,149.922864 389.681047,157.438932 367.579762,161.272267 C352.615801,163.867677 341.392618,164.532544 323.734877,164.514493 L316.324463,164.49 L316.324463,159.49 L323.71612,159.514463 C341.118352,159.532736 352.101558,158.882219 366.725299,156.345819 C387.931315,152.667763 409.289538,145.514245 431.419929,133.823245 L432.606228,133.192594 Z" id="Path" fill="#474A4F" fill-rule="nonzero"></path>
                    <path d="M432.590452,119.500976 L433.058474,124.479024 L426.459047,125.092357 C375.824589,129.740702 349.840827,130.7351 328.47544,129.090021 L327.117771,128.981441 L327.531155,123.998559 L328.866936,124.105359 C350.56274,125.774933 377.291663,124.671196 430.923145,119.657293 L432.590452,119.500976 Z" id="Path" fill="#474A4F" fill-rule="nonzero"></path>
                    <path d="M142.412547,108.865252 C164.771402,100.105967 198.841858,96.8050379 252.355379,100.096276 L253.98296,100.198029 L253.665967,105.187971 L250.462625,104.990905 C199.059905,101.933313 166.262533,105.090196 144.893637,113.26628 L144.23638,113.520748 L142.412547,108.865252 Z" id="Path" fill="#474A4F" fill-rule="nonzero"></path>
                    <path d="M187.436713,77.7173304 L188.613785,77.5792945 C203.83325,75.8493942 223.455842,75.7210344 250.370836,77.3625327 L252.482919,77.4940267 L252.166008,82.4839733 L250.074742,82.3537638 C223.08104,80.7071676 203.579325,80.8578751 188.61046,82.6128788 L188.036963,82.6811696 C175.874117,84.1519566 167.40964,86.4330539 156.155148,90.7899148 L155.23638,91.1477475 L153.412547,86.4922525 C165.49711,81.7580142 174.484186,79.2836093 187.436713,77.7173304 Z" id="Path" fill="#474A4F" fill-rule="nonzero"></path>
                    <path d="M349.827974,94.8469019 C362.430708,93.4936985 370.454442,93.2488681 381.360123,94.3814152 C396.226315,95.9252586 412.839644,100.175528 432.678732,107.948708 L433.744635,108.368503 L431.904292,113.017497 C411.999974,105.138208 395.498568,100.876572 380.843654,99.3546697 C370.348417,98.2647469 362.631272,98.5001825 350.339128,99.8207573 L343.310113,100.594325 C340.493971,100.896003 339.0815,101.020244 337.223256,101.141247 L336.477697,101.188299 L336.17123,96.1977005 L337.930805,96.0802463 C339.049176,95.9976079 340.144299,95.8981582 341.732826,95.7330563 L349.827974,94.8469019 Z" id="Path" fill="#474A4F" fill-rule="nonzero"></path>
                    <path d="M343.827171,72.5050942 C356.430032,71.1520127 364.453752,70.9072338 375.359502,72.0397797 C390.225796,73.5836223 406.839298,77.8337775 426.678679,85.6067068 L427.744597,86.0264884 L425.90433,90.6755116 C405.999689,82.7964672 389.498082,78.5349393 374.843037,77.0130346 C364.103632,75.8977634 356.273126,76.1701619 343.473155,77.5728374 L337.04144,78.2810477 C334.402109,78.5620439 333.021377,78.6821603 331.223203,78.7992506 L330.477697,78.8462995 L330.17123,73.8557005 L331.930691,73.7382559 C333.04899,73.6556259 334.144041,73.5561899 335.732458,73.3911144 L343.827171,72.5050942 Z" id="Path" fill="#474A4F" fill-rule="nonzero"></path>
                    <path d="M444.64526,238.988577 L447.003666,243.397423 C422.55686,256.474653 396.75894,264.573113 370.639636,268.509336 C351.797765,271.348837 334.207329,271.815359 319.567879,270.677631 L318.656771,270.604441 L319.070155,265.621559 C333.516663,266.820053 351.06074,266.403449 369.894541,263.565164 C395.040212,259.775669 419.871809,252.05012 443.42798,239.634928 L444.64526,238.988577 Z" id="Path" fill="#474A4F" fill-rule="nonzero"></path>
                    <path d="M441.145228,204.284594 L443.503698,208.693406 C419.05399,221.772646 394.086206,229.613681 369.102297,233.194708 C351.395392,235.732698 335.585713,235.963779 320.265755,234.765007 L319.117655,234.672431 L319.531272,229.689569 C334.860753,230.962036 350.65081,230.788322 368.39288,228.245292 C392.412024,224.802547 416.41569,217.332629 439.949026,204.920009 L441.145228,204.284594 Z" id="Path" fill="#474A4F" fill-rule="nonzero"></path>
                    <path d="M449.14526,319.988577 L451.503666,324.397423 C427.061723,337.472052 400.533583,345.780966 373.40189,350.007458 C353.58745,353.094091 334.645695,353.767139 320.427596,352.666245 L319.656771,352.604441 L320.070155,347.621559 C333.98029,348.775555 352.853332,348.148147 372.632287,345.067042 C398.785482,340.992978 424.349667,333.055771 447.927496,320.635031 L449.14526,319.988577 Z" id="Path" fill="#474A4F" fill-rule="nonzero"></path>
                    <path d="M449.60626,362.480577 L451.964666,366.889423 C427.522603,379.964116 400.994303,388.273239 373.862903,392.499831 C354.047756,395.58668 335.104988,396.259669 320.888395,395.158264 L320.117655,395.096431 L320.531272,390.113569 C334.439669,391.268075 353.313657,390.640733 373.093274,387.559419 C399.246187,383.485258 424.810528,375.54785 448.388489,363.127035 L449.60626,362.480577 Z" id="Path" fill="#474A4F" fill-rule="nonzero"></path>
                    <path d="M446.145228,281.284594 L448.503698,285.693406 C424.09163,298.752511 398.120409,306.691409 371.594462,310.407819 C352.74342,313.048938 335.279078,313.36087 320.124526,312.177527 L319.117655,312.096431 L319.531272,307.113569 C334.567227,308.361671 352.021965,308.101183 370.900714,305.456181 C396.438765,301.87818 421.434941,294.307809 444.950788,281.918706 L446.145228,281.284594 Z" id="Path" fill="#474A4F" fill-rule="nonzero"></path>
                    <path d="M449.64526,401.488577 L452.003666,405.897423 C427.657733,418.920694 400.545625,426.730588 372.075356,430.268171 C352.160335,432.74272 333.439976,432.924068 317.659994,431.685423 L316.656771,431.604441 L317.070155,426.621559 C332.733152,427.920974 351.486446,427.788003 371.45882,425.306329 C398.921157,421.893986 425.057047,414.435589 448.529541,402.080614 L449.64526,401.488577 Z" id="Path" fill="#474A4F" fill-rule="nonzero"></path>
                    <path d="M450.64526,441.284577 L453.003666,445.693423 C428.689356,458.699778 400.904072,466.429826 371.284739,469.854579 C350.741005,472.229961 331.291787,472.330585 315.123858,471.056823 L314.117655,470.975431 L314.531272,465.992569 C330.585356,467.325184 350.091644,467.271731 370.710437,464.887671 C399.301397,461.581824 426.102595,454.197068 449.548688,441.866212 L450.64526,441.284577 Z" id="Path" fill="#474A4F" fill-rule="nonzero"></path>
                    <path d="M121.496891,239.984966 C132.318455,245.731031 152.668737,252.647026 174.767792,257.450033 C202.462852,263.469274 230.933184,265.95585 257.702687,263.818957 L259.110025,263.702214 L259.538902,268.683786 C231.823077,271.069917 202.347309,268.560891 173.705884,262.335967 L171.97749,261.955325 C150.706251,257.209396 131.182859,250.588758 120.037244,244.863248 L119.152035,244.401034 L121.496891,239.984966 Z" id="Path" fill="#474A4F" fill-rule="nonzero"></path>
                    <path d="M123.496891,205.781966 C134.318455,211.528031 154.668737,218.444026 176.767792,223.247033 C204.462852,229.266274 232.933184,231.75285 259.702687,229.615957 L261.110025,229.499214 L261.538902,234.480786 C233.823077,236.866917 204.347309,234.357891 175.705884,228.132967 L173.97749,227.752325 C152.706251,223.006396 133.182859,216.385758 122.037244,210.660248 L121.152035,210.198034 L123.496891,205.781966 Z" id="Path" fill="#474A4F" fill-rule="nonzero"></path>
                    <path d="M121.496891,320.484966 C132.60264,326.381928 152.2254,333.286073 173.537971,338.103006 C200.577807,344.21438 228.486277,346.748325 255.204892,344.615768 L256.610025,344.499214 L257.038902,349.480786 C229.344358,351.865085 200.423764,349.305679 172.435705,342.979994 C151.019953,338.13974 131.242325,331.219061 119.644076,325.160164 L119.152035,324.901034 L121.496891,320.484966 Z" id="Path" fill="#474A4F" fill-rule="nonzero"></path>
                    <path d="M125.496891,367.781966 C135.958341,373.336817 155.201286,379.540931 176.715331,383.736218 C202.968786,388.855702 230.71543,390.784906 257.616411,388.623506 L259.110025,388.499214 L259.538902,393.480786 C231.683955,395.878894 202.933837,393.943064 175.758345,388.643782 C154.088747,384.418161 134.624166,378.179401 123.594546,372.43081 L123.152035,372.198034 L125.496891,367.781966 Z" id="Path" fill="#474A4F" fill-rule="nonzero"></path>
                    <path d="M120.496891,280.781966 C131.481619,286.614669 151.262309,293.477019 172.77819,298.249316 C199.925777,304.270746 227.960162,306.752029 254.703675,304.61591 L256.110025,304.499214 L256.538902,309.480786 C228.829801,311.866338 199.787391,309.361566 171.695486,303.130684 L169.897124,302.726141 C149.264089,298.019849 130.349127,291.474027 119.10987,285.698269 L118.152035,285.198034 L120.496891,280.781966 Z" id="Path" fill="#474A4F" fill-rule="nonzero"></path>
                    <path d="M129.996891,403.281966 C140.834088,409.036332 159.659765,415.448867 180.502814,419.845326 C206.491901,425.327246 233.847904,427.472779 260.648724,425.323701 L262.110025,425.202214 L262.538902,430.183786 C234.755826,432.575707 206.390478,430.415873 179.470863,424.737674 C158.505549,420.315427 139.494055,413.879004 128.147622,407.958873 L127.652035,407.698034 L129.996891,403.281966 Z" id="Path" fill="#474A4F" fill-rule="nonzero"></path>
                    <path d="M128.496891,445.781966 C138.324778,451.000406 158.987563,456.849997 182.640796,460.722852 C210.237025,465.241313 239.418403,466.813304 266.547205,464.629382 L268.110025,464.499214 L268.538902,469.480786 C240.532559,471.891928 210.348712,470.32618 181.83288,465.657148 L180.191491,465.3845 C157.007015,461.47823 136.790186,455.729855 126.510703,450.386453 L126.152035,450.198034 L128.496891,445.781966 Z" id="Path" fill="#474A4F" fill-rule="nonzero"></path>
                    <g id="Group-4" transform="translate(263.788348, 496.715761)">
                        <path d="M13.3461152,0.711238702 L8.13611519,0.033238702 C6.73011519,-0.148761298 5.33311519,0.425238702 4.46211519,1.5442387 L2.68811519,3.8252387 C1.94211519,4.7842387 1.67311519,6.0292387 1.95511519,7.2112387 L4.62811519,18.3942387 C5.01411519,20.0082387 6.35711519,21.2162387 8.00211519,21.4312387 L8.54111519,21.5012387 C10.2171152,21.7192387 11.8501152,20.8602387 12.6191152,19.3542387 L17.7421152,9.3292387 C18.3081152,8.2212387 18.3261152,6.9112387 17.7901152,5.7872387 L16.4401152,2.9562387 C15.8561152,1.7322387 14.6911152,0.886238702 13.3461152,0.711238702 Z" id="Path" fill="#363333" fill-rule="nonzero"></path>
                        <path d="M13.7101152,10.4092387 L5.50111519,9.3412387 L4.04511519,14.9592387 L0.271115186,28.1692387 C-0.899884814,32.2692387 1.84911519,36.4512387 6.07711519,37.0012387 C10.3051152,37.5512387 14.0331152,34.2122387 13.9501152,29.9492387 L13.6811152,16.2132387 L13.7101152,10.4092387 Z M5.47011519,16.7192387 L6.90011519,11.5782387 L12.1791152,12.2652387 L12.2061152,17.5962387 L5.47011519,16.7192387 Z M4.76811519,31.8392387 L8.63611519,32.3422387 C10.4941152,32.5842387 12.1101152,31.0662387 11.9841152,29.1972387 C11.8891152,27.7822387 10.8091152,26.6312387 9.40311519,26.4482387 L5.53411519,25.9452387 C4.15311519,25.7662387 2.83211519,26.5692387 2.35711519,27.8792387 C1.70911519,29.6662387 2.88211519,31.5932387 4.76811519,31.8392387 Z" id="Shape" fill="#484747"></path>
                        <path d="M7.66511519,8.5232387 L7.51911519,13.0002387 C7.48811519,13.9522387 8.18611519,14.7732387 9.13011519,14.8952387 C10.0751152,15.0182387 10.9591152,14.4042387 11.1731152,13.4752387 L12.1781152,9.1102387 C12.4811152,7.7942387 11.5841152,6.5042387 10.2451152,6.3292387 C8.90611519,6.1552387 7.70911519,7.1732387 7.66511519,8.5232387 Z" id="Path" fill="#1E1D1D" fill-rule="nonzero"></path>
                    </g>
                    <path d="M397.818463,73.307 C409.018463,67.707 383.818463,56.307 372.818463,50.307 C363.818463,47.64 344.018463,41.507 332.818463,58.307 C318.818463,79.307 305.447463,204.456 315.818463,179.307 C355.818463,82.307 383.818463,80.307 397.818463,73.307 Z" id="Path" fill="#101848" fill-rule="nonzero"></path>
                    <path d="M185.131463,73.307 C173.931463,67.707 199.131463,56.307 210.131463,50.307 C219.131463,47.64 238.931463,41.507 250.131463,58.307 C264.131463,79.307 277.501463,204.456 267.131463,179.307 C227.131463,82.307 199.131463,80.307 185.131463,73.307 Z" id="Path" fill="#101848" fill-rule="nonzero"></path>
                    <path d="M181.824463,376.49 C181.824463,405.811924 180.648664,427.327495 175.957424,454.423307 L175.702732,455.880283 L159.946195,453.099717 C164.48574,427.375627 165.737755,406.955553 165.820027,379.512266 L165.824463,376.49 L181.824463,376.49 Z" id="Path" fill="#35373A" fill-rule="nonzero"></path>
                    <path d="M169.324463,381.49 L177.324463,381.49 L177.355597,387.310019 C177.535576,410.935747 176.643637,426.487856 172.493228,450.373902 L172.263598,451.685141 L164.385329,450.294859 C168.479766,427.093051 169.465707,412.101153 169.371052,389.914251 L169.32492,382.151866 L169.324463,381.49 Z" id="Path" fill="#474A4F" fill-rule="nonzero"></path>
                    <g id="Group-3" transform="translate(165.289482, 373.898216)">
                        <path d="M10.8449809,0.103783659 L5.59198087,0.000783659354 C4.17498087,-0.0272163406 2.84898087,0.696783659 2.10598087,1.90378366 L0.592980873,4.36578366 C-0.0440191273,5.39978366 -0.175019127,6.66778366 0.234980873,7.81078366 L4.11598087,18.6347837 C4.67598087,20.1967837 6.14298087,21.2507837 7.80298087,21.2837837 L8.34598087,21.2947837 C10.0359809,21.3277837 11.5639809,20.2947837 12.1639809,18.7137837 L16.1579809,8.18878366 C16.5999809,7.02478366 16.4749809,5.72178366 15.8189809,4.66278366 L14.1669809,1.99678366 C13.4519809,0.842783659 12.2019809,0.130783659 10.8449809,0.103783659 Z" id="Path" fill="#51545A" fill-rule="nonzero"></path>
                        <path d="M12.2699809,9.70278366 L3.99298087,9.53978366 L3.15998087,15.2837837 L0.854980873,28.8277837 C0.139980873,33.0307837 3.32998087,36.8867837 7.59298087,36.9707837 C11.8559809,37.0547837 15.1959809,33.3267837 14.6469809,29.0987837 L12.8759809,15.4747837 L12.2699809,9.70278366 Z M4.76998087,16.8777837 L5.62798087,11.6107837 L10.9499809,11.7147837 L11.5609809,17.0107837 L4.76998087,16.8777837 Z M5.72698087,31.9827837 L9.62698087,32.0597837 C11.4999809,32.0967837 12.9399809,30.4107837 12.6109809,28.5667837 C12.3619809,27.1707837 11.1609809,26.1457837 9.74398087,26.1177837 L5.84398087,26.0407837 C4.45098087,26.0137837 3.22598087,26.9567837 2.89798087,28.3107837 C2.44898087,30.1577837 3.82598087,31.9457837 5.72698087,31.9827837 Z" id="Shape" fill="#5E6167"></path>
                        <path d="M6.05398087,8.49078366 L6.39898087,12.9567837 C6.47298087,13.9067837 7.25598087,14.6457837 8.20798087,14.6647837 C9.16098087,14.6837837 9.97198087,13.9757837 10.0829809,13.0297837 L10.6039809,8.57978366 C10.7609809,7.23878366 9.72798087,6.05478366 8.37798087,6.02778366 C7.02798087,6.00178366 5.94898087,7.14478366 6.05398087,8.49078366 Z" id="Path" fill="#696B70" fill-rule="nonzero"></path>
                    </g>
                    <path d="M174.235463,404.49 L171.824463,404.49 C170.719463,404.49 169.825463,405.385 169.798463,406.489 C169.723463,409.567 169.468463,413.766 168.824463,416.99 C168.049463,420.862 167.291463,423.743 166.794463,425.633 L166.776463,425.701 C166.511463,426.709 167.092463,427.726 168.088463,428.033 L170.912463,428.902 C171.968463,429.227 173.078463,428.632 173.327463,427.556 C173.899463,425.083 174.517463,421.633 174.824463,419.49 C175.161463,417.126 175.879463,410.796 176.195463,406.575 C176.280463,405.439 175.373463,404.49 174.235463,404.49 Z" id="Path" fill="#1B1B1B" fill-rule="nonzero"></path>
                    <path d="M398.769463,376.49 L414.769463,376.49 L414.7739,379.512266 C414.854676,406.456584 416.063045,426.630757 420.403368,451.701771 L420.647732,453.099717 L404.891195,455.880283 C400.073658,428.580907 398.81334,407.10082 398.770601,378.053426 L398.769463,376.49 Z" id="Path" fill="#35373A" fill-rule="nonzero"></path>
                    <path d="M403.270463,381.49 L411.270463,381.49 L411.251116,385.760527 L411.239026,387.374853 C411.062168,410.55482 411.927884,425.662762 415.981106,448.990217 L416.209578,450.294746 L408.331349,451.685254 C404.139003,427.932584 403.126378,412.499766 403.223954,389.859814 L403.270009,382.140757 L403.270463,381.49 Z" id="Path" fill="#474A4F" fill-rule="nonzero"></path>
                    <g id="Group-2" transform="translate(398.885217, 373.898216)">
                        <path d="M5.57324618,0.103783659 L10.8272462,0.000783659354 C12.2442462,-0.0272163406 13.5702462,0.696783659 14.3132462,1.90378366 L15.8262462,4.36578366 C16.4632462,5.39978366 16.5952462,6.66778366 16.1852462,7.81078366 L12.3032462,18.6347837 C11.7432462,20.1967837 10.2762462,21.2507837 8.61624618,21.2837837 L8.07324618,21.2947837 C6.38324618,21.3277837 4.85424618,20.2947837 4.25524618,18.7137837 L0.260246184,8.18878366 C-0.181753816,7.02478366 -0.0557538161,5.72078366 0.600246184,4.66278366 L2.25224618,1.99678366 C2.96624618,0.842783659 4.21724618,0.130783659 5.57324618,0.103783659 Z" id="Path" fill="#51545A" fill-rule="nonzero"></path>
                        <path d="M4.14824618,9.70278366 L12.4262462,9.53978366 L13.2582462,15.2837837 L15.5632462,28.8277837 C16.2792462,33.0307837 13.0882462,36.8867837 8.82524618,36.9707837 C4.56224618,37.0547837 1.22224618,33.3267837 1.77124618,29.0987837 L3.54224618,15.4747837 L4.14824618,9.70278366 Z M11.6512462,16.8777837 L10.7932462,11.6107837 L5.47124618,11.7147837 L4.86024618,17.0107837 L11.6512462,16.8777837 Z M10.6922462,31.9827837 L6.79124618,32.0597837 C4.91724618,32.0967837 3.47824618,30.4107837 3.80724618,28.5667837 C4.05624618,27.1707837 5.25624618,26.1457837 6.67424618,26.1177837 L10.5752462,26.0407837 C11.9672462,26.0137837 13.1922462,26.9567837 13.5212462,28.3107837 C13.9702462,30.1577837 12.5922462,31.9457837 10.6922462,31.9827837 Z" id="Shape" fill="#5E6167"></path>
                        <path d="M10.3662462,8.49078366 L10.0202462,12.9567837 C9.94724618,13.9067837 9.16424618,14.6457837 8.21124618,14.6647837 C7.25824618,14.6837837 6.44724618,13.9757837 6.33624618,13.0287837 L5.81524618,8.57978366 C5.65824618,7.23878366 6.69124618,6.05478366 8.04124618,6.02778366 C9.39124618,6.00178366 10.4702462,7.14478366 10.3662462,8.49078366 Z" id="Path" fill="#696B70" fill-rule="nonzero"></path>
                    </g>
                    <path d="M406.356463,404.49 L408.768463,404.49 C409.872463,404.49 410.767463,405.385 410.793463,406.489 C410.868463,409.567 411.123463,413.766 411.768463,416.99 C412.542463,420.862 413.300463,423.743 413.798463,425.633 L413.816463,425.701 C414.081463,426.709 413.500463,427.726 412.503463,428.033 L409.679463,428.902 C408.624463,429.227 407.513463,428.632 407.264463,427.556 C406.692463,425.083 406.074463,421.633 405.768463,419.49 C405.430463,417.126 404.712463,410.796 404.396463,406.575 C404.312463,405.439 405.218463,404.49 406.356463,404.49 Z" id="Path" fill="#1B1B1B" fill-rule="nonzero"></path>
                </g>
                <g id="hand" transform="translate(102.879000, 0.000800)" fill-rule="nonzero">
                    <path d="M340,307.0092 C362.091,307.0092 380,289.1002 380,267.0092 C380,244.9172 362.091,227.0092 340,227.0092 C317.909,227.0092 300,244.9172 300,267.0092 C300,289.1002 317.909,307.0092 340,307.0092 Z" id="Path" fill="#E4CAC1"></path>
                    <path d="M40,307.0092 C17.909,307.0092 7.10542736e-15,289.1002 7.10542736e-15,267.0092 C7.10542736e-15,244.9172 17.909,227.0092 40,227.0092 C62.091,227.0092 80,244.9172 80,267.0092 C80,289.1002 62.091,307.0092 40,307.0092 Z" id="Path" fill="#E4CAC1"></path>
                    <path d="M39.121,167.2022 C39.121,84.0835 106.502,16.7023 189.621,16.7023 C272.74,16.7023 340.121,84.0835 340.121,167.2022 L340.121,226.7022 L344.447,282.1822 C347.167,317.0582 340.04,352.8252 315.572,377.8262 C288.826,405.1542 246.444,435.7022 190.621,435.7022 C135.864,435.7022 93.158,406.3102 65.53,379.3952 C39.129,353.6742 31.344,315.9292 34.545,279.2092 L39.121,226.7022 L39.121,167.2022 Z" id="Path" fill="#F4D5CC"></path>
                    <path d="M30.12,151.2032 C30.122,112.7032 44.429,89.7032 54.723,82.7033 C65.018,75.7032 69.121,82.7033 78.621,118.9992 C88.121,155.2952 54.723,156.2032 50.121,168.5002 C45.519,180.7962 43.121,234.9992 42.621,239.9992 C42.121,244.9992 41.242,253.8722 38.121,251.9992 C35.621,250.4992 37.195,228.9052 37.121,226.9992 L32.121,227.7032 C29.457,213.5822 30.12,176.3562 30.12,151.2032 Z" id="Path" fill="#000000"></path>
                    <path d="M346.94,136.5262 C343.44,109.5262 338.938,66.2282 309.438,54.0266 C279.938,41.8251 322.436,45.8227 296.62,95.4982 C270.803,145.1732 328.765,141.4132 331.193,155.3232 C333.622,169.2332 335.12,225.4982 336.12,234.9982 C337.12,244.4982 339.457,247.9982 341.12,247.9982 C344.622,247.9982 342.545,228.9042 342.62,226.9982 L348.94,228.0262 C350.568,211.5772 350.44,163.5262 346.94,136.5262 Z" id="Path" fill="#000000"></path>
                    <path d="M185.048572,235.987248 L199.193428,245.417152 C194.386005,252.628286 190.621,263.452674 190.621,271.3272 C190.621,278.920219 193.362995,282.111907 201.757755,282.200308 L202.121,282.2022 L202.121,299.2022 C183.577881,299.2022 173.621,288.000709 173.621,271.3272 C173.621,260.032091 178.319935,246.320954 184.698977,236.518039 L185.048572,235.987248 Z" id="Path" fill="#EBBAAA"></path>
                    <path d="M264.121,211.9992 C270.748417,211.9992 276.121,217.371783 276.121,223.9992 C276.121,230.524657 270.912456,235.833593 264.425975,235.9954 L264.121,235.9992 L247.121,235.9992 C240.493583,235.9992 235.121,230.626617 235.121,223.9992 C235.121,217.473743 240.329544,212.164807 246.816025,212.003 L247.121,211.9992 L264.121,211.9992 Z" id="Path" fill="#000000"></path>
                    <path d="M139.93651,337.183237 C141.841872,333.293154 146.485249,331.639492 150.405635,333.407513 L150.995527,333.683119 L151.29611,333.81882 C151.950222,334.111027 152.733046,334.442778 153.637955,334.804593 C156.278565,335.860406 159.330875,336.924479 162.741316,337.921752 C172.52105,340.781522 183.123237,342.4982 194.121,342.4982 C205.033418,342.4982 214.673506,340.811873 222.935777,338.020935 C225.772392,337.062746 228.218749,336.0473 230.258287,335.048335 L230.889987,334.733372 C231.533058,334.406641 231.979555,334.159556 232.224373,334.014318 L232.347021,333.939575 C236.081916,331.579121 241.023172,332.693326 243.383625,336.428221 C245.69687,340.088418 244.673052,344.907204 241.115921,347.320131 L240.894979,347.464825 C240.658991,347.61397 240.300762,347.827946 239.822038,348.09702 L239.171372,348.455138 C238.605398,348.760416 237.980132,349.082332 237.296213,349.417315 C234.648251,350.714287 231.563358,351.994779 228.056223,353.179465 C218.193494,356.511027 206.833582,358.4982 194.121,358.4982 C181.493763,358.4982 169.40845,356.541378 158.250684,353.278648 C154.333,352.133046 150.799373,350.901181 147.697795,349.661057 L147.004971,349.381116 C145.447111,348.744845 144.301922,348.229494 143.602037,347.88669 C139.634152,345.94322 137.99304,341.151121 139.93651,337.183237 Z" id="Path" fill="#C99584"></path>
                    <path d="M138.121,211.9992 C144.748417,211.9992 150.121,217.371783 150.121,223.9992 C150.121,230.524657 144.912456,235.833593 138.425975,235.9954 L138.121,235.9992 L119.121,235.9992 C112.493583,235.9992 107.121,230.626617 107.121,223.9992 C107.121,217.473743 112.329544,212.164807 118.816025,212.003 L119.121,211.9992 L138.121,211.9992 Z" id="Path" fill="#000000"></path>
                    <path d="M190.121,101.2032 C178.121,101.2032 137.714,95.9712 127.123,93.9852 C116.532,92.0002 73.62,89.9992 79.623,122.4992 C85.626,154.9992 29.122,154.0002 31.621,129.5002 C34.12,105.0002 38.951,79.4998 60.622,52.4998 C82.293,25.4998 111.619,-2.84217094e-14 196.622,-2.84217094e-14 C281.624,-2.84217094e-14 336.621,44 344.121,116.0002 C347.64,149.7832 282.712,142.9992 290.62,112.4992 C298.527,81.9994 242.621,93.9852 242.621,93.9852 C242.621,93.9852 202.121,101.2032 190.121,101.2032 Z" id="Path" fill="#000000"></path>
                    <path d="M161.658,183.9242 L157.915,191.4122 C157.143,192.9562 155.467,193.8302 153.759,193.5812 L112.812,187.6002 C112.355,187.5332 111.89,187.5462 111.437,187.6382 L87.691,192.4612 C85.668,192.8722 84.424,190.3222 85.993,188.9812 L106.233,171.6852 C107.115,170.9322 108.28,170.5982 109.427,170.7712 L158.676,178.1802 C161.363,178.5842 162.874,181.4932 161.658,183.9242 Z" id="Path" fill="#393939"></path>
                    <path d="M224.575,184.2392 L228.15,191.4072 C228.921,192.9532 230.599,193.8302 232.309,193.5792 L272.191,187.7392 C272.649,187.6722 273.115,187.6852 273.568,187.7772 L296.564,192.4602 C298.586,192.8722 299.832,190.3242 298.265,188.9812 L278.665,172.1902 C277.783,171.4342 276.615,171.0992 275.466,171.2722 L227.558,178.4982 C224.873,178.9032 223.363,181.8092 224.575,184.2392 Z" id="Path" fill="#393939"></path>
                </g>
            </g>
        </g>
    </g>
</svg>