<?xml version="1.0" encoding="UTF-8"?>
<svg width="446px" height="1383px" viewBox="0 0 446 1383" version="1.1" xmlns="http://www.w3.org/2000/svg" xmlns:xlink="http://www.w3.org/1999/xlink">
    <!-- Generator: Sketch 55.2 (78181) - https://sketchapp.com -->
    <title>gee_me_040</title>
    <desc>Created with Sketch.</desc>
    <defs>
        <path d="M0.587104046,0.437117409 C0.533375723,1.05474089 0.507,1.67724291 0.507,2.30072065 L0.507,13.9623887 C0.507,31.5417287 22.5903179,45.7870729 49.8208092,45.7870729 C77.0610694,45.7870729 99.1346185,31.5417287 99.1346185,13.9623887 L99.1346185,2.30072065 C99.1346185,1.67724291 99.1082428,1.05474089 99.0545145,0.437117409 L0.587104046,0.437117409 Z" id="path-1"></path>
        <ellipse id="path-3" cx="12.7007527" cy="12.2620364" rx="12.0849409" ry="12.0959768"></ellipse>
    </defs>
    <g id="GEE!-ME" stroke="none" stroke-width="1" fill="none" fill-rule="evenodd">
        <g id="gee_me_040" transform="translate(-377.000000, -109.000000)">
            <g transform="translate(377.000000, 109.000000)">
                <g id="lower-limb" transform="translate(36.000000, 789.000000)">
                    <ellipse id="Oval" fill="#3D3D3D" fill-rule="nonzero" cx="193.786461" cy="60.611799" rx="98.5367251" ry="60.611799"></ellipse>
                    <path d="M259.648028,280.807306 C274.051413,280.807306 285.754934,292.363244 285.987565,306.706785 L285.991094,307.142282 L285.991094,471.014104 C285.991094,485.55851 274.196902,497.34908 259.648028,497.34908 C245.244643,497.34908 233.541122,485.793142 233.308492,471.449601 L233.304962,471.014104 L233.304962,307.142282 C233.304962,292.597876 245.099155,280.807306 259.648028,280.807306 Z" id="Path" fill="#6E5243" fill-rule="nonzero"></path>
                    <path d="M124.04042,280.963186 C138.35855,279.398849 151.248647,289.615278 153.038695,303.848652 L153.089531,304.281188 L169.412476,453.590744 C170.9931,468.04906 160.550067,481.050796 146.08731,482.630934 C131.76918,484.195272 118.879083,473.978842 117.089035,459.745468 L117.038199,459.312932 L100.715255,310.003376 C99.1346305,295.54506 109.577663,282.543324 124.04042,280.963186 Z" id="Path" fill="#6E5243" fill-rule="nonzero"></path>
                    <polygon id="Path" fill="#3D3D3D" fill-rule="nonzero" points="55.414923 42.8951882 187.130447 42.8951882 182.252101 393.823366 174.446748 421.338538 99.8080621 417.43706 67.2148602 382.450558"></polygon>
                    <path d="M126.495539,386.488442 C128.318639,386.488442 129.808059,387.916799 129.905328,389.715075 L129.910381,389.90238 L129.910381,421.338538 C129.910381,424.520427 125.964457,425.943784 123.923913,423.585328 L123.810485,423.447778 L99.1006889,392.01162 C97.93543,390.529161 98.1929408,388.383052 99.6758554,387.21815 C101.107635,386.093418 103.158275,386.294618 104.34682,387.64416 L104.470798,387.79314 L123.080657,411.468384 L123.080697,389.90238 C123.080697,388.079841 124.509348,386.590878 126.308176,386.493638 L126.495539,386.488442 Z" id="Path" fill="#272727" fill-rule="nonzero"></path>
                    <polygon id="Path" fill="#3D3D3D" fill-rule="nonzero" points="185.875736 48.7688631 327.794612 48.7688631 328.573196 394.028193 302.2594 414.510952 226.157211 427.60041 219.071902 394.028193"></polygon>
                    <polygon id="Path" fill="#FFFFFF" opacity="0.2" points="73.4913395 101.075976 101.3945 22.9332768 117.775984 29.0156808 89.8728237 101.075976"></polygon>
                    <polygon id="Path" fill="#FFFFFF" opacity="0.2" points="316.608566 101.075976 288.705405 22.9332768 272.323921 29.0156808 300.227082 101.075976"></polygon>
                    <path d="M289.655335,391.802365 C290.820342,390.319708 292.967067,390.061911 294.45018,391.226561 C295.882151,392.35105 296.171927,394.390438 295.141612,395.864255 L295.026161,396.019933 L281.594689,413.111882 L298.015367,403.381316 C299.581726,402.452993 301.588564,402.920001 302.590774,404.413061 L302.694244,404.576941 C303.622851,406.142819 303.1557,408.149041 301.662182,409.150943 L301.498251,409.254381 L269.373371,428.293593 C266.172243,430.190781 262.720862,426.343869 264.841307,423.388316 L264.946515,423.248276 L289.655335,391.802365 Z" id="Path" fill="#272727" fill-rule="nonzero"></path>
                    <polygon id="Path" fill="#000000" fill-rule="nonzero" points="92.0027093 409.634104 176.398086 409.634104 181.276432 417.417553 176.398086 433.042971 156.884704 439.363366 99.3202276 439.363366 95.9053857 433.042971 97.8567239 424.245139 90.0513711 422.2944"></polygon>
                    <polygon id="Path" fill="#000000" fill-rule="nonzero" points="223.230203 409.634104 310.064753 411.077651 302.747235 426.683563 304.210739 434.974203 283.233853 437.900311 260.793464 437.900311 218.839692 433.023464"></polygon>
                    <path d="M184.879578,451.262873 C180.717374,444.503563 171.354853,446.13243 167.193624,447.780804 L168.233687,451.760311 C169.967451,452.091937 174.371622,452.755188 176.036113,454.744942 C178.117215,457.22238 176.556145,462.196765 178.117215,463.191641 C179.67731,464.186518 183.838539,463.191641 185.919641,463.191641 C187.999768,463.191641 190.08087,459.709572 184.879578,451.262873 Z" id="Path" fill="#000000" fill-rule="nonzero"></path>
                    <path d="M0.50836383,573.818045 C-0.599606,571.087011 -0.408862691,565.166518 6.42247965,562.435484 C13.2539195,559.704449 93.8681886,573.818045 93.8681886,573.818045 C114.62067,572.120902 170.358695,544.927602 190.878967,557.422085 C197.372045,561.372331 195.171911,573.896075 192.774692,585.610262 C188.939337,589.521494 150.144782,592.935287 137.566456,590.009178 C137.566456,583.171838 136.586885,578.782676 136.586885,578.782676 C136.586885,578.782676 128.966909,583.698538 120.740067,585.610262 C103.962461,589.521494 100.291018,593.852134 48.3239551,593.852134 C6.64444437,589.940902 3.64670106,581.552725 0.50836383,573.818045 Z" id="Path" fill="#383129" fill-rule="nonzero"></path>
                    <path d="M3.79651945,568.650321 C4.76362096,569.791304 6.17185613,571.072893 7.91597453,572.38995 L8.46501083,571.663333 C6.77081079,570.383971 5.41090047,569.146362 4.49147974,568.061632 L3.79651945,568.650321 Z M12.4964387,575.45181 C14.0127201,576.357652 15.6330105,577.235226 17.3347913,578.067949 L17.7352544,577.250052 C16.0561264,576.428413 14.4581271,575.562913 12.9637087,574.670131 L12.4964387,575.45181 Z M22.3608675,580.295781 C24.0455711,580.969029 25.7734104,581.589057 27.5355293,582.149661 L27.8117629,581.281922 C26.0706585,580.728004 24.3634536,580.115381 22.6989827,579.450218 L22.3608675,580.295781 Z M32.8460147,583.630159 C34.6254901,584.057328 36.423456,584.420563 38.2352696,584.716416 L38.3821111,583.817707 C36.5925883,583.525493 34.8165763,583.166693 33.0587,582.74471 L32.8460147,583.630159 Z M43.7072276,585.398183 C45.5347931,585.555063 47.3669993,585.641193 49.2009539,585.654187 L49.2074098,584.743591 C47.3975043,584.730767 45.5891346,584.645757 43.7851573,584.490902 L43.7072276,585.398183 Z M54.6737106,585.61926 C56.511756,585.592113 58.3356999,585.549967 60.1451285,585.493076 L60.1164938,584.582906 C58.3121227,584.639639 56.4932384,584.681668 54.6602544,584.70874 L54.6737106,585.61926 Z M65.6095889,585.274518 C67.4484114,585.185056 69.2698531,585.080178 71.0733222,584.960214 L71.0128455,584.051603 C69.2147734,584.171209 67.3987315,584.275776 65.5653108,584.364975 L65.6095889,585.274518 Z M76.5304004,584.546771 C78.3688358,584.390228 80.1851864,584.217845 81.9785512,584.030076 L81.8836674,583.12441 C80.0961594,583.311566 78.2856679,583.483393 76.4530933,583.639437 L76.5304004,584.546771 Z M87.4218684,583.404375 C89.2593594,583.17393 91.0675028,582.927262 92.8448035,582.66506 L92.7118191,581.764197 C90.9410517,582.025436 89.1394418,582.271212 87.3084834,582.500838 L87.4218684,583.404375 Z M98.2484427,581.804127 C100.086184,581.488973 101.882092,581.15744 103.633358,580.810736 L103.456405,579.917464 C101.712797,580.262652 99.9245372,580.592773 98.0944342,580.906617 L98.2484427,581.804127 Z M108.993858,579.670883 C110.837226,579.250492 112.61315,578.81458 114.315212,578.365852 L114.082933,577.485337 C112.390813,577.931443 110.624783,578.364927 108.791263,578.783072 L108.993858,579.670883 Z M119.589109,576.879409 L124.834018,575.344402 L124.576842,574.47083 L119.334381,576.00512 L119.589109,576.879409 Z M130.074227,573.793656 L133.692774,572.710684 C134.254483,572.541637 134.794062,572.378761 135.30935,572.222725 L135.045281,571.35121 L129.81419,572.92093 L130.074227,573.793656 Z M140.498086,570.294945 L140.429502,571.20298 L141.714705,571.295852 C143.032456,571.387023 144.442129,571.472615 145.892238,571.548314 L145.939739,570.638933 L144.510261,570.560385 C143.098084,570.478875 141.743529,570.388957 140.498086,570.294945 Z M151.359941,571.776733 C153.227008,571.834831 155.060501,571.870746 156.834577,571.882153 L156.840435,570.971552 C155.074119,570.960195 153.248087,570.924426 151.38828,570.866554 L151.359941,571.776733 Z M162.315673,571.830943 C164.298712,571.776882 166.13264,571.682731 167.796779,571.546071 L167.722204,570.638509 C166.075726,570.773718 164.258143,570.86703 162.290842,570.920662 L162.315673,571.830943 Z M173.106057,569.946405 L173.254937,570.844779 L174.904697,570.564886 C176.304689,570.321075 177.534217,570.089151 178.647445,569.857912 L178.462134,568.966336 L177.611755,569.138602 C176.300687,569.397814 174.824221,569.661843 173.106057,569.946405 Z M183.988144,568.477247 C186.016897,567.802665 187.631828,567.021459 189.024969,566.035547 L188.498664,565.29231 C187.183704,566.222895 185.64878,566.965398 183.700653,567.613171 L183.988144,568.477247 Z" id="Path" fill="#67513B" fill-rule="nonzero"></path>
                    <path d="M121.650366,445.86908 C126.090636,445.86908 151.999529,459.46573 165.443274,448.921986 C166.920437,447.761297 169.927449,448.717159 169.9294,450.589868 C169.953792,468.712233 170.222101,500.216666 172.936412,512.711149 C175.812685,525.956666 178.24015,524.064449 181.115447,536.354104 C183.106787,544.86908 189.554984,564.727602 181.115447,564.727602 L142.626276,564.727602 C133.520357,564.727602 121.221072,575.300607 90.8963006,578.275484 C40.557629,583.2011 28.2565882,576.451543 18.2056354,573.262085 C-4.66365807,566.01509 6.94202344,549.424055 18.2055378,544.118045 C34.7058585,536.354104 58.3534431,530.521395 70.3818821,524.09371 C79.7483054,519.080311 82.9650865,517.51972 87.7741595,512.252725 C95.7024466,503.562183 102.667748,457.85637 103.743911,445.917848 C103.818062,445.088784 104.985938,444.659622 105.694274,445.098538 C110.385291,447.985632 117.248147,445.86908 121.650366,445.86908 Z" id="Path" fill="#6C3F2E" fill-rule="nonzero"></path>
                    <path d="M20.9809441,558.516671 C21.4916485,556.832116 23.2716777,555.880395 24.9567506,556.390942 C38.7777553,560.578464 49.0164907,561.68008 64.350041,558.467516 C66.0733654,558.106458 67.7631806,559.210365 68.1243489,560.93316 C68.4855172,562.655955 67.3812715,564.345252 65.657947,564.706309 C56.4131128,566.643214 48.0040181,567.036936 40.0490469,566.181037 C34.2002449,565.551746 29.7075855,564.49102 23.1073265,562.491257 C21.4222536,561.980709 20.4702398,560.201227 20.9809441,558.516671 Z" id="Path" fill="#FFFFFF" fill-rule="nonzero"></path>
                    <path d="M82.4821303,541.035878 C91.4007215,532.833021 123.927578,514.525336 121.650366,445.86908 C125.514992,445.86908 134.857999,450.882479 148.976906,451.789572 C163.805125,451.340902 163.561208,450.004646 167.487301,447.790558 C167.593649,447.722282 167.717558,447.634499 167.819028,447.566223 C173.976476,443.420902 171.207527,509.619228 175.627308,521.352922 C179.194354,530.82376 185.883541,545.034893 185.883541,562.337947 C182.762376,567.800016 151.991724,565.068981 142.180395,565.068981 C137.590848,540.577454 101.610123,559.246026 93.8681886,556.973415 C87.0716777,554.973907 82.4821303,551.052922 82.4821303,541.035878 Z" id="Path" fill="#3A1719" fill-rule="nonzero"></path>
                    <path d="M93.4145025,511.530952 C103.616099,503.513415 107.53341,464.537651 107.988072,445.86908 C106.166498,445.42041 105.71086,444.142676 104.344923,444.6011 C102.978987,445.059523 102.978987,450.521592 102.523349,455.076567 C102.024782,460.060705 98.4235877,475.559326 96.6020135,486.034794 C94.7804393,496.500508 92.958865,502.879425 86.12723,511.530952 C80.6615317,518.456075 59.2553517,525.556765 52.4236191,531.467503 C53.1826896,531.321198 55.1563706,530.287306 56.97814,530.657947 C59.2553517,531.106617 58.7999093,531.56504 61.5326609,531.56504 C64.2654125,531.56504 80.6615317,521.547996 93.4145025,511.530952 Z" id="Path" fill="#1D1D20" fill-rule="nonzero"></path>
                    <path d="M103.549323,448.797583 C103.930188,447.654408 105.13033,447.014459 106.279898,447.312794 L106.429484,447.357064 L125.558452,453.726226 C127.626645,454.41485 127.619635,457.301494 125.630905,458.021305 L125.465316,458.074834 L111.869243,461.963261 L122.69255,467.526398 C124.573911,468.493323 124.222007,471.24661 122.228189,471.753967 L122.067382,471.789282 L110.264268,473.981764 L122.488971,478.816663 C124.424001,479.581841 124.386383,482.295416 122.508951,483.043251 L122.343525,483.102446 L106.421107,488.181192 L120.35352,494.8159 C122.364238,495.773481 121.933148,498.71515 119.804164,499.107404 L119.645365,499.13149 L102.510625,501.185793 L114.363244,510.070406 C116.07264,511.351678 115.228481,514.036579 113.151325,514.163705 L112.997157,514.168385 L94.9228467,514.167961 L107.297394,526.197191 C108.904366,527.759218 107.523916,530.424091 105.367768,530.080656 L105.2229,530.053258 L81.8722968,524.942867 L91.1638112,537.884497 C92.5155794,539.767293 90.5236196,542.194359 88.4442396,541.316648 L88.3114259,541.256099 L65.0836716,529.873537 C63.9543656,529.32013 63.4876447,527.956303 64.0412215,526.827344 C64.5707297,525.74747 65.8419467,525.273631 66.9398032,525.718785 L67.0883504,525.785214 L82.1796326,533.179862 L74.7117242,522.777899 C73.5237084,521.123184 74.9393044,518.88968 76.9040431,519.199335 L77.0487547,519.226576 L98.3991557,523.899222 L87.7262563,513.524023 C86.2981996,512.135908 87.2194054,509.741984 89.1585818,509.620132 L89.3137653,509.615292 L106.16353,509.614936 L95.2349505,501.423615 C93.6349979,500.224376 94.2554874,497.72257 96.1716196,497.365986 L96.3298027,497.341842 L111.297501,495.546207 L99.2657718,489.816447 C97.4555509,488.95435 97.5776748,486.372908 99.3887967,485.651133 L99.5529786,485.592364 L114.879182,480.703034 L101.229107,475.306127 C99.1554069,474.486114 99.3901963,471.518159 101.489741,470.986204 L101.650696,470.950947 L114.682097,468.529448 L104.668676,463.382599 C102.884082,462.465407 103.085945,459.885624 104.922047,459.221397 L105.083422,459.169237 L117.136881,455.720897 L104.990285,451.676859 C103.846759,451.296112 103.206613,450.096338 103.505039,448.947123 L103.549323,448.797583 Z" id="Path" fill="#000000" fill-rule="nonzero"></path>
                    <path d="M215.16142,451.262873 C219.322649,444.503563 228.685169,446.13243 232.847374,447.780804 L231.806335,451.760311 C230.072571,452.091937 225.6684,452.755188 224.003909,454.744942 C221.922807,457.22238 223.483877,462.196765 221.922807,463.191641 C220.362712,464.186518 216.201483,463.191641 214.120381,463.191641 C212.040254,463.191641 209.959152,459.709572 215.16142,451.262873 Z" id="Path" fill="#000000" fill-rule="nonzero"></path>
                    <path d="M399.531658,573.818045 C400.640018,571.087011 400.448787,565.166518 393.617152,562.435484 C386.786493,559.704449 306.171833,573.818045 306.171833,573.818045 C285.419352,572.120902 229.681327,544.927602 209.161055,557.422085 C202.667977,561.372331 204.868111,573.896075 207.26533,585.610262 C211.100685,589.521494 249.89524,592.935287 262.473566,590.009178 C262.473566,583.171838 263.453138,578.782676 263.453138,578.782676 C263.453138,578.782676 271.074089,583.698538 279.299955,585.610262 C296.077561,589.521494 299.749004,593.852134 351.716067,593.852134 C393.395675,589.940902 396.392931,581.552725 399.531658,573.818045 Z" id="Path" fill="#383129" fill-rule="nonzero"></path>
                    <path d="M395.548838,568.061628 C394.629394,569.146365 393.269475,570.383976 391.575282,571.663333 L392.124319,572.38995 C393.868428,571.072899 395.276669,569.791311 396.243792,568.650324 L395.548838,568.061628 Z M387.076594,574.670132 C385.582177,575.562915 383.984182,576.428415 382.305058,577.250052 L382.705522,578.067949 C384.407298,577.235227 386.027585,576.357654 387.543864,575.451809 L387.076594,574.670132 Z M377.341331,579.450218 C375.676858,580.115381 373.969649,580.728004 372.228537,581.281922 L372.50477,582.149661 C374.266896,581.589057 375.99474,580.96903 377.679446,580.295781 L377.341331,579.450218 Z M366.981568,582.74471 C365.223678,583.166693 363.447648,583.525493 361.658104,583.817707 L361.804943,584.716416 C363.616779,584.420563 365.414762,584.057328 367.194252,583.63016 L366.981568,582.74471 Z M356.254979,584.490902 C354.451093,584.645746 352.642811,584.730755 350.832989,584.743588 L350.839449,585.654185 C352.673319,585.641181 354.505436,585.555052 356.332908,585.398183 L356.254979,584.490902 Z M345.379768,584.70874 C343.546784,584.681668 341.727899,584.639639 339.923528,584.582906 L339.894894,585.493076 C341.704322,585.549967 343.528266,585.592113 345.366311,585.61926 L345.379768,584.70874 Z M334.474711,584.364975 C332.641291,584.275776 330.825249,584.171209 329.027177,584.051603 L328.9667,584.960214 C330.770169,585.080178 332.591611,585.185056 334.430433,585.274518 L334.474711,584.364975 Z M323.586929,583.639437 C321.754354,583.483393 319.943863,583.311566 318.156355,583.12441 L318.061471,584.030076 C319.854836,584.217845 321.671186,584.390228 323.509622,584.546771 L323.586929,583.639437 Z M312.731539,582.500838 C310.90058,582.271212 309.09897,582.025436 307.328203,581.764197 L307.195219,582.66506 C308.972519,582.927262 310.780663,583.17393 312.618154,583.404375 L312.731539,582.500838 Z M301.945588,580.906617 C300.115485,580.592773 298.327225,580.262652 296.583617,579.917464 L296.406664,580.810736 C298.15793,581.15744 299.953838,581.488973 301.791579,581.804127 L301.945588,580.906617 Z M291.248759,578.783072 C289.415239,578.364927 287.649209,577.931443 285.957089,577.485337 L285.72481,578.365852 C287.426872,578.81458 289.202796,579.250492 291.046164,579.670883 L291.248759,578.783072 Z M280.705651,576.005121 L275.463302,574.470831 L275.206119,575.344401 L280.450921,576.879409 L280.705651,576.005121 Z M270.226143,572.920932 L264.995173,571.35121 L264.731106,572.222725 L269.966097,573.793655 L270.226143,572.920932 Z M259.61069,571.20298 L259.5421,570.294946 L258.262312,570.387431 C256.949946,570.478233 255.545569,570.563506 254.100696,570.638933 L254.148197,571.548314 L255.58291,571.469476 C257.000317,571.38766 258.360082,571.297389 259.61069,571.20298 Z M248.649961,570.866623 C246.790295,570.924473 244.964397,570.960222 243.198211,570.971563 L243.204061,571.882163 C244.978006,571.870773 246.811365,571.834878 248.678292,571.776802 L248.649961,570.866623 Z M237.749356,570.920662 C235.782,570.86703 233.96437,570.773718 232.317862,570.638509 L232.243288,571.546071 C233.907458,571.682731 235.741432,571.776882 237.724526,571.830943 L237.749356,570.920662 Z M226.785199,570.844778 L226.934091,569.946406 L225.823706,569.759567 C224.209322,569.483354 222.819656,569.224183 221.57841,568.966337 L221.393088,569.857911 L222.250605,570.031643 C223.572124,570.29296 225.05795,570.558688 226.785199,570.844778 Z M216.340099,567.613171 C214.392177,566.96546 212.857287,566.223038 211.542242,565.292583 L211.016009,566.03587 C212.409211,567.021625 214.024083,567.802735 216.052605,568.477246 L216.340099,567.613171 Z" id="Path" fill="#67513B" fill-rule="nonzero"></path>
                    <path d="M278.389656,445.86908 C273.949386,445.86908 248.040493,459.46573 234.596748,448.921986 C233.119585,447.761297 230.112573,448.717159 230.110622,450.589868 C230.08623,468.712233 229.817921,500.216666 227.102634,512.711149 C224.227337,525.956666 221.799872,524.064449 218.9236,536.354104 C216.933235,544.86908 210.485038,564.727602 218.9236,564.727602 L257.413746,564.727602 C266.519666,564.727602 278.81895,575.300607 309.143721,578.275484 C359.482393,583.2011 371.783629,576.451543 381.833996,573.262085 C404.70368,566.01509 393.098096,549.424055 381.833996,544.118045 C365.334456,536.354104 341.686189,530.521395 329.65814,524.09371 C320.291717,519.080311 317.074936,517.51972 312.265863,512.252725 C304.337576,503.562183 297.372274,457.85637 296.296111,445.917848 C296.22196,445.088784 295.054084,444.659622 294.344773,445.098538 C289.654731,447.985632 282.791875,445.86908 278.389656,445.86908 Z" id="Path" fill="#6C3F2E" fill-rule="nonzero"></path>
                    <path d="M375.083593,556.390933 C376.768671,555.880402 378.548691,556.83214 379.059379,558.516701 C379.570068,560.201261 378.618037,561.980734 376.932959,562.491266 L375.445562,562.936326 C369.633069,564.651729 365.390002,565.600157 359.99125,566.181036 C352.036412,567.036937 343.627564,566.643214 334.383029,564.706304 C332.659707,564.345235 331.555473,562.655931 331.916653,560.933138 C332.277834,559.210346 333.967657,558.106451 335.690979,558.46752 C351.023929,561.680072 361.261909,560.578517 375.083593,556.390933 Z" id="Path" fill="#FFFFFF" fill-rule="nonzero"></path>
                    <path d="M317.558867,541.035878 C308.639301,532.833021 276.112444,514.525336 278.389656,445.86908 C274.52503,445.86908 265.182023,450.882479 251.063116,451.789572 C236.235872,451.340902 236.478814,450.004646 232.552721,447.790558 C232.446374,447.722282 232.322464,447.634499 232.220994,447.566223 C226.063546,443.420902 228.832495,509.619228 224.412714,521.352922 C220.845668,530.82376 214.156481,545.034893 214.156481,562.337947 C217.277646,567.800016 248.048298,565.068981 257.859627,565.068981 C262.449174,540.577454 298.429899,559.246026 306.171833,556.973415 C312.968344,554.973907 317.558867,551.052922 317.558867,541.035878 Z" id="Path" fill="#3A1719" fill-rule="nonzero"></path>
                    <path d="M306.62552,511.530952 C296.423923,503.513415 292.506612,464.537651 292.05195,445.86908 C293.873524,445.42041 294.329162,444.142676 295.695099,444.6011 C297.062011,445.059523 297.062011,450.521592 297.516673,455.076567 C298.01524,460.060705 301.616434,475.559326 303.438009,486.034794 C305.259583,496.500508 307.081157,502.879425 313.912792,511.530952 C319.37849,518.456075 340.78467,525.556765 347.616305,531.467503 C346.857235,531.321198 344.883456,530.287306 343.061882,530.657947 C340.78467,531.106617 341.240308,531.56504 338.507459,531.56504 C335.77461,531.56504 319.37849,521.547996 306.62552,511.530952 Z" id="Path" fill="#1D1D20" fill-rule="nonzero"></path>
                    <path d="M293.610538,447.357064 C294.803783,446.959762 296.093275,447.604705 296.490699,448.797583 C296.871563,449.940759 296.294934,451.1723 295.196002,451.622623 L295.049737,451.676859 L282.902085,455.720897 L294.9566,459.169237 C296.885775,459.721076 297.190825,462.290662 295.519501,463.299966 L295.371396,463.382573 L285.356869,468.529448 L298.389346,470.95095 C300.581818,471.358255 300.920667,474.316089 298.962154,475.240654 L298.810952,475.306113 L285.160759,480.703034 L300.488019,485.592364 C302.398283,486.201651 302.626707,488.77587 300.929943,489.736009 L300.775226,489.816447 L288.74244,495.546207 L303.710231,497.341844 C305.695716,497.579961 306.41055,500.056468 304.92995,501.323594 L304.805072,501.423615 L293.875436,509.614936 L310.726257,509.615292 C312.718089,509.615292 313.726984,511.973622 312.421651,513.412405 L312.313766,513.524023 L301.63981,523.899222 L322.992259,519.226573 C324.982597,518.791012 326.473851,520.974824 325.411542,522.655902 L325.329225,522.777966 L317.860309,533.179862 L332.951672,525.785214 C334.031877,525.255868 335.327038,525.659741 335.922083,526.683874 L335.998801,526.827344 C336.528309,527.907218 336.124312,529.201981 335.099864,529.796843 L334.95635,529.873537 L311.728596,541.256099 C309.646931,542.2762 307.583434,539.909515 308.79448,538.00531 L308.876259,537.88443 L318.167645,524.942867 L294.817107,530.053262 C292.62758,530.532413 291.164613,527.911921 292.639899,526.302914 L292.742629,526.197191 L305.116119,514.167961 L287.042865,514.168385 C284.906349,514.168385 283.97062,511.51399 285.556238,510.166605 L285.676778,510.070406 L297.528341,501.185793 L280.395621,499.131488 C278.184262,498.866282 277.652656,495.941108 279.544699,494.889442 L279.687477,494.8159 L293.618835,488.181192 L277.697473,483.102446 C275.715035,482.470139 275.568576,479.760289 277.390961,478.886947 L277.55199,478.816677 L289.77665,473.981764 L277.973596,471.789278 C275.893811,471.402908 275.440327,468.664576 277.204502,467.6064 L277.348397,467.526424 L288.169723,461.963261 L274.574706,458.074834 C272.478925,457.475337 272.362336,454.591038 274.318424,453.786791 L274.48157,453.726226 L293.610538,447.357064 Z" id="Path" fill="#000000" fill-rule="nonzero"></path>
                </g>
                <g id="upper-limb" transform="translate(59.000000, 0.000000)">
                    <path d="M210.660942,442.054113 C210.676572,442.058016 210.618936,442.168271 210.441145,442.374146 C210.556416,442.15266 210.645312,442.050211 210.660942,442.054113 Z M205.663231,445.783271 C205.436595,445.658381 205.201168,445.531539 204.954994,445.401769 C197.483827,441.45698 185.204462,438.161036 170.088243,438.161036 C154.973,438.161036 142.693636,441.45698 135.222468,445.401769 C134.976295,445.531539 134.740867,445.658381 134.514231,445.783271 C134.740867,445.908162 134.976295,446.035004 135.222468,446.164773 C142.693636,450.109563 154.973,453.405506 170.088243,453.405506 C185.204462,453.405506 197.483827,450.109563 204.954994,446.164773 C205.201168,446.035004 205.436595,445.908162 205.663231,445.783271 Z M129.51652,442.054113 C129.53215,442.050211 129.620069,442.15266 129.736318,442.374146 C129.558526,442.168271 129.50089,442.058016 129.51652,442.054113 Z M129.51652,449.512429 C129.50089,449.508526 129.558526,449.398271 129.736318,449.192397 C129.620069,449.413883 129.53215,449.516332 129.51652,449.512429 Z M210.441145,449.192397 C210.618936,449.398271 210.676572,449.508526 210.660942,449.512429 C210.645312,449.516332 210.556416,449.413883 210.441145,449.192397 Z M170.088243,481.701053 C246.745861,482.683591 238.120023,465.620401 238.120023,445.783271 C238.120023,425.946142 207.660948,409.86549 170.088243,409.86549 C132.515538,409.86549 102.057439,425.946142 102.057439,445.783271 C102.057439,465.620401 93.4316012,480.718514 170.088243,481.701053 Z" id="Shape" fill="#000000"></path>
                    <path d="M290.289249,328.799725 C311.870451,328.799725 329.364393,311.326737 329.364393,289.771385 C329.364393,268.217008 311.870451,250.743045 290.289249,250.743045 C268.709023,250.743045 251.214104,268.217008 251.214104,289.771385 C251.214104,311.326737 268.709023,328.799725 290.289249,328.799725 Z" id="Path" fill="#C99584" fill-rule="nonzero" opacity="0.5"></path>
                    <path d="M39.0751445,339.690583 C17.4945283,339.690583 0,303.215672 0,270.256239 C0,237.297781 17.4945283,220.336065 39.0751445,220.336065 C60.6553699,220.336065 78.150289,247.054866 78.150289,280.013324 C78.150289,312.972757 60.6553699,339.690583 39.0751445,339.690583 Z" id="Path" fill="#7B5B4A" fill-rule="nonzero"></path>
                    <path d="M298.512613,339.690583 C320.092838,339.690583 337.587757,303.215672 337.587757,270.256239 C337.587757,237.297781 320.092838,220.336065 298.512613,220.336065 C276.932387,220.336065 259.437468,247.054866 259.437468,280.013324 C259.437468,312.972757 276.932387,339.690583 298.512613,339.690583 Z" id="Path" fill="#7B5B4A" fill-rule="nonzero"></path>
                    <path d="M26.8968873,192.522518 C23.0896983,112.668583 86.8835838,45.8444543 166.924133,45.8444543 C246.964682,45.8444543 310.758763,112.668583 306.95089,192.522518 L300.470277,328.456275 C297.075624,399.656652 238.290977,455.64183 166.924133,455.64183 C95.557289,455.64183 36.7722509,399.656652 33.3775977,328.456275 L26.8968873,192.522518 Z" id="Path" fill="#8D6956" fill-rule="nonzero"></path>
                    <path d="M21.2336289,178.80113 C25.2248618,142.783826 23.2971873,147.351117 40.6371734,108.866247 C57.9757919,70.3807911 73.2932486,98.0388098 57.9757919,114.616097 C42.6593121,131.193385 40.6371734,159.502591 40.6371734,159.502591 L31.6650318,267.110555 C31.5108803,268.900004 30.1501861,270.259166 28.5264185,270.259166 C26.8301665,270.259166 25.442315,268.789749 25.3697329,266.930049 C25.3697329,266.930049 17.2422983,214.818433 21.2336289,178.80113 Z" id="Path" fill="#281515" fill-rule="nonzero"></path>
                    <path d="M311.55785,173.234713 C307.566324,137.217409 309.493705,141.7847 292.15411,103.29983 C274.814514,64.8142766 259.498035,92.4723928 274.814514,109.04968 C290.131971,125.626968 292.15411,153.936174 292.15411,153.936174 L301.125763,261.543162 C301.28011,263.332611 302.640902,264.692749 304.264474,264.692749 C305.961312,264.692749 307.34848,263.223332 307.421746,261.363632 C307.421746,261.363632 315.548399,209.252016 311.55785,173.234713 Z" id="Path" fill="#281515" fill-rule="nonzero"></path>
                    <path d="M75.2893681,209.959862 C71.4585056,212.732899 66.0885297,211.980344 63.1762149,208.214672 C60.2078941,204.376584 60.9167115,198.861781 64.7594029,195.897016 C65.4191265,195.388017 66.4548346,194.690726 67.8699033,193.87635 C70.0382531,192.628459 72.5905609,191.407729 75.5280313,190.286811 C84.7243853,186.777549 95.8271593,184.903582 108.790696,185.441566 C119.842204,185.900201 128.696448,187.298992 135.611307,189.39617 C141.376956,191.144809 145.091813,193.131189 147.133823,194.896662 C150.805088,198.070751 151.205043,203.616442 148.027147,207.28331 C144.971479,210.809144 139.720501,211.314091 136.057359,208.525964 L135.946335,208.438656 L135.748653,208.316485 C135.682246,208.277289 135.605548,208.233491 135.518243,208.18536 L135.379288,208.109946 C134.260398,207.511661 132.656495,206.85459 130.50233,206.201262 C125.078906,204.556415 117.687195,203.388675 108.060726,202.989179 C97.5207374,202.551772 88.7976404,204.024088 81.8035348,206.692988 C79.7461305,207.478079 78.028698,208.299501 76.6485816,209.093761 L76.2360967,209.336649 C76.1079016,209.413993 75.9890052,209.487619 75.8794035,209.557228 L75.4951329,209.805623 L75.2893681,209.959862 Z" id="Path" fill="#3D2020" fill-rule="nonzero"></path>
                    <path d="M199.887305,209.959862 C196.056442,212.732899 190.686466,211.980344 187.774151,208.214672 C184.805831,204.376584 185.514648,198.861781 189.357339,195.897016 C190.017063,195.388017 191.052771,194.690726 192.46784,193.87635 C194.636189,192.628459 197.188497,191.407729 200.125968,190.286811 C209.322322,186.777549 220.425096,184.903582 233.388632,185.441566 C244.440141,185.900201 253.294384,187.298992 260.209243,189.39617 C265.974892,191.144809 269.689749,193.131189 271.731759,194.896662 C275.403024,198.070751 275.802979,203.616442 272.625084,207.28331 C269.569415,210.809144 264.318438,211.314091 260.655295,208.525964 L260.544272,208.438656 L260.34659,208.316485 C260.280182,208.277289 260.203485,208.233491 260.116179,208.18536 L259.977225,208.109946 C258.858334,207.511661 257.254432,206.85459 255.100266,206.201262 C249.676842,204.556415 242.285131,203.388675 232.658662,202.989179 C222.118674,202.551772 213.395577,204.024088 206.401471,206.692988 C204.344067,207.478079 202.626634,208.299501 201.246518,209.093761 L200.834033,209.336649 C200.705838,209.413993 200.586942,209.487619 200.47734,209.557228 L200.093069,209.805623 L199.887305,209.959862 Z" id="Path" fill="#3D2020" fill-rule="nonzero"></path>
                    <path d="M89.7983538,231.856368 C94.9420731,230.190672 101.123361,229.360338 108.308866,229.731151 C113.940286,230.021765 118.563718,230.699396 122.294144,231.681167 C125.943646,232.64164 128.447377,233.804728 130.004002,234.975877 C133.88242,237.893863 134.658168,243.399671 131.736683,247.273444 C128.925442,251.001037 123.715128,251.859146 119.870188,249.318644 L119.63466,249.158352 C119.852314,249.313769 119.971156,249.384423 119.97107,249.384383 C119.578236,249.201896 118.958424,248.97755 118.083861,248.736905 L117.813822,248.664249 C115.307026,248.004512 111.873582,247.501291 107.401562,247.270509 C102.37592,247.011157 98.3388873,247.553453 95.2214544,248.562974 C94.5193482,248.790338 93.9405848,249.018333 93.4832762,249.230267 L93.1366154,249.399796 L93.0457341,249.447684 L93.0154384,249.468645 C89.0632183,251.904508 83.8853526,250.842667 81.2138196,247.048452 L81.0624999,246.826529 C78.389754,242.777542 79.5093535,237.331097 83.5631954,234.661553 C84.8823565,233.792856 86.9584449,232.776019 89.7983538,231.856368 Z" id="Path" fill="#252525" fill-rule="nonzero"></path>
                    <path d="M207.891599,231.856433 C213.035059,230.190685 219.216212,229.360335 226.401768,229.731151 C232.033188,230.021765 236.656619,230.699396 240.387046,231.681167 C244.036548,232.64164 246.540279,233.804728 248.096903,234.975877 C251.975322,237.893863 252.75107,243.399671 249.829585,247.273444 C247.018344,251.001037 241.80803,251.859146 237.96309,249.318644 L237.727561,249.158352 C237.945216,249.313769 238.064057,249.384423 238.063972,249.384383 C237.671138,249.201896 237.051326,248.97755 236.176763,248.736905 L235.906724,248.664249 C233.399928,248.004512 229.966484,247.501291 225.494463,247.270509 C220.468872,247.011159 216.432118,247.55344 213.3151,248.562909 C212.613131,248.790247 212.034506,249.018209 211.577332,249.230105 L211.302532,249.362782 L211.147428,249.443781 L211.109848,249.468319 C207.157801,251.904461 201.97986,250.842987 199.308057,247.048961 L199.156722,246.827049 C196.483688,242.778252 197.602901,237.331727 201.656554,234.661895 C202.975697,233.793076 205.051736,232.776144 207.891599,231.856433 Z" id="Path" fill="#252525" fill-rule="nonzero"></path>
                    <path d="M163.166908,235.842775 L178.496387,242.222407 C173.351139,254.556212 169.366329,272.86438 169.366329,286.842308 C169.366329,294.419639 170.50236,300.395564 172.595242,304.158241 C174.338973,307.293197 176.565657,308.713675 180.269743,308.792286 L180.600434,308.795749 L180.600434,325.382794 C170.551857,325.382794 162.749988,320.612824 158.078168,312.213622 C154.394317,305.590632 152.759393,296.990348 152.759393,286.842308 C152.759393,270.853773 157.059073,250.823271 162.860213,236.586667 L163.166908,235.842775 Z" id="Path" fill="#7B5B4A" fill-rule="nonzero"></path>
                    <path d="M169.421035,7.82324053 L169.420058,7.82324053 C169.357538,7.82324053 169.295017,7.82324053 169.232497,7.82324053 C169.169977,7.82324053 169.107457,7.82324053 169.044936,7.82324053 L169.04396,7.82324053 C129.063249,7.98013445 26.655696,46.6822952 23.0582428,163.875717 C33.6883428,149.440109 38.1920462,150.534854 52.7739133,141.114389 C64.5052486,133.536061 69.8751503,121.221644 101.228069,113.188636 C132.580012,105.154652 148.494341,119.979567 169.04396,119.979567 C185.074538,119.979567 203.835491,107.832972 226.280254,115.101024 C248.725994,122.369077 265.050613,135.490405 275.446555,141.114389 C296.625283,152.571158 290.040145,146.798866 310.739225,163.875717 C307.141382,46.6822952 209.399792,7.98013445 169.421035,7.82324053 Z" id="Path" fill="#342929"></path>
                    <polygon id="Path" fill="#342929" fill-rule="nonzero" points="57.9933757 45.8724571 50.7068382 78.4379968 161.373509 55.3072656 289.739266 88.9211065 288.762387 61.7604065 279.540653 58.0860834 278.955503 47.6799571 267.524069 48.4214956 266.618503 32.3392826 251.921364 33.2926474 247.963052 21.2063511 234.898277 22.0538515 226.449254 10.2589017 213.189104 14.916934 208.680809 7.61365834 194.799364 8.51413972 194.320694 1.13686838e-13 176.01985 9.73231178 170.641156 1.53605789 162.955075 10.5798122 154.310676 2.59540413 139.275538 12.1158701 128.997798 4.23741421 118.861705 13.4401017 111.512647 13.9168328 103.772838 22.0145304 100.081214 14.6583713 87.1053353 31.6409681 77.9099769 28.4395709 67.1086301 47.6548814"></polygon>
                    <path d="M120.254734,349.460352 L120.254734,361.433271 C120.254734,379.863429 142.338052,394.798599 169.568543,394.798599 C196.808803,394.798599 218.882353,379.863429 218.882353,361.433271 L218.882353,349.460352 L120.254734,349.460352 Z" id="Path" fill="#393939"></path>
                    <g id="Clipped" transform="translate(119.747734, 349.011526)">
                        <mask id="mask-2" fill="white">
                            <use xlink:href="#path-1"></use>
                        </mask>
                        <g id="Path"></g>
                        <path d="M49.8208092,56.4857166 C66.2450694,56.4857166 79.5599249,51.5818057 79.5599249,45.5333887 C79.5599249,39.4849717 66.2450694,34.5810607 49.8208092,34.5810607 C33.3955723,34.5810607 20.0807168,39.4849717 20.0807168,45.5333887 C20.0807168,51.5818057 33.3955723,56.4857166 49.8208092,56.4857166 Z" id="Path" fill="#FF6C6C" fill-rule="nonzero" mask="url(#mask-2)"></path>
                    </g>
                    <rect id="Rectangle" fill="#FFFFFF" fill-rule="nonzero" x="120.254734" y="349.460352" width="98.6305491" height="13.7540749"></rect>
                    <path d="M148.682879,107.59002 C142.133884,103.785733 141.136491,88.3464142 141.135514,79.780962 C141.134538,71.2156073 144.645439,66.5423539 144.645439,66.5423539 C144.645439,66.5423539 151.003942,95.3946397 165.590694,108.657445 C172.898723,115.30202 156.869121,112.345624 148.682879,107.59002 Z" id="Path" fill="#8D5454" fill-rule="nonzero" opacity="0.2"></path>
                    <path d="M109.54326,101.871393 C100.96822,92.8558462 102.76763,87.8966126 104.124514,73.9214421 C105.480422,59.9462717 120.824254,50.9300421 120.824254,50.9300421 C120.824254,50.9300421 124.961335,92.69583 142.490445,108.634028 C151.272584,116.619227 118.117324,110.887915 109.54326,101.871393 Z" id="Path" fill="#8D5454" fill-rule="nonzero" opacity="0.2"></path>
                </g>
                <g id="hand" transform="translate(0.000000, 256.000000)">
                    <path d="M383.430525,74.0835812 C391.021765,68.4473578 400.857274,65.4498336 411.698385,67.3506445 C421.768282,69.1162358 429.283834,74.4173629 434.502247,81.1737553 C437.177913,84.6379976 438.908642,88.0222804 440.205129,91.5265006 C441.511766,95.0581539 442.235562,98.3485352 442.745008,101.960433 C443.807574,109.493879 443.976922,120.215846 443.501678,134.339149 L443.47298,135.173856 C442.500324,162.884076 439.115057,200.493274 434.316943,234.920506 L433.790165,238.650608 C428.068834,278.631063 420.929517,311.401799 412.284877,333.106125 C409.284294,340.639769 405.997909,347.166717 402.128467,352.822688 C396.207954,361.476715 388.935336,368.281379 378.992432,372.320009 C365.131163,377.950209 350.125596,376.025855 337.950536,367.880894 C329.923364,362.510817 323.90129,355.180138 318.724016,345.99386 C308.925756,328.608357 315.063574,306.56431 332.433216,296.757103 C337.817804,293.716869 343.649671,292.20949 349.425944,292.094694 L349.872849,292.088096 L350.043178,291.479156 C354.48125,275.419604 358.790462,253.132352 362.466616,227.237679 L362.790701,224.933699 L363.175503,222.141469 C367.435316,190.88122 370.441772,157.048805 371.298692,132.635838 L371.359951,130.784423 C371.416485,128.961888 371.458854,127.226924 371.487166,125.587892 L371.505313,124.359106 L371.2933,123.974994 C366.615321,115.356767 365.443598,104.88332 368.881356,94.9208656 L369.080877,94.3575148 C370.449344,90.590792 371.972156,87.2780148 374.239386,83.8457825 C376.571829,80.3148283 379.40937,77.0691443 383.430525,74.0835812 Z" id="Path" fill="#6E5243" fill-rule="nonzero"></path>
                    <path d="M79.3741662,261.124818 C81.1815886,240.077252 96.3026476,222.579454 116.85017,217.755911 L227.753877,206.809146 L340.737291,217.755911 C361.28452,222.579454 376.405579,240.077252 378.213002,261.124818 L394.701339,453.125861 L380.062389,547.281656 L373.178179,558.139023 C371.388323,560.962036 368.27901,562.67245 364.938402,562.67245 L87.2837859,562.67245 L77.5244861,547.281656 L62.8855365,453.125861 L79.3741662,261.124818 Z" id="Path" fill="#000000" fill-rule="nonzero"></path>
                    <path d="M87.2837859,562.673427 L370.303089,562.673427 L373.046428,577.500596 C374.158013,583.506093 369.552599,589.047599 363.451085,589.047599 L94.1366686,589.047599 C88.0348616,589.047599 83.4294481,583.506093 84.5405444,577.500596 L87.2837859,562.673427 Z" id="Path" fill="#000000" fill-rule="nonzero"></path>
                    <rect id="Rectangle" fill="#636363" fill-rule="nonzero" x="193.223522" y="30.8685265" width="31.8175619" height="8.70302748" rx="1.68814"></rect>
                    <path d="M190.398205,44.3164238 C190.398205,38.1692881 206.543015,33.1855464 212.684542,33.1855464 L417.771347,33.1855464 C423.912875,33.1855464 428.89207,38.1692881 428.89207,44.3164238 L428.89207,148.691722 C428.89207,154.839834 423.912875,159.822599 417.771347,159.822599 L201.518927,159.822599 C195.3774,159.822599 190.398205,154.839834 190.398205,148.691722 L190.398205,44.3164238 Z" id="Path" fill="#121413" fill-rule="nonzero"></path>
                    <path d="M190.398205,55.6045695 L250.253943,55.6045695 C256.396446,55.6045695 261.374665,60.5873344 261.374665,66.735447 L261.374665,140.347715 C261.374665,146.494851 256.396446,151.478593 250.253943,151.478593 L190.398205,151.478593 L190.398205,55.6045695 Z" id="Path" fill="#434448" fill-rule="nonzero"></path>
                    <g id="Group" opacity="0.2" transform="translate(277.998017, 37.261904)" fill="#636363" fill-rule="nonzero">
                        <path d="M59.638744,0.24328245 C27.0842873,0.24328245 0.693685864,26.6579836 0.693685864,59.2421689 C0.693685864,91.8263541 27.0842873,118.241055 59.638744,118.241055 C92.1932007,118.241055 118.583802,91.8263541 118.583802,59.2421689 C118.583802,26.6579836 92.1932007,0.24328245 59.638744,0.24328245 Z M59.638744,8.48835662 C87.6437265,8.48835662 110.34625,31.2116124 110.34625,59.2421689 C110.34625,87.2727254 87.6437265,109.995981 59.638744,109.995981 C31.6337615,109.995981 8.93123755,87.2727254 8.93123755,59.2421689 C8.93123755,31.2116124 31.6337615,8.48835662 59.638744,8.48835662 Z" id="Oval"></path>
                        <path d="M59.638744,0.24328245 C27.0842873,0.24328245 0.693685864,26.6579836 0.693685864,59.2421689 C0.693685864,91.8263541 27.0842873,118.241055 59.638744,118.241055 C92.1932007,118.241055 118.583802,91.8263541 118.583802,59.2421689 C118.583802,26.6579836 92.1932007,0.24328245 59.638744,0.24328245 Z M59.638744,8.48835662 C87.6437265,8.48835662 110.34625,31.2116124 110.34625,59.2421689 C110.34625,87.2727254 87.6437265,109.995981 59.638744,109.995981 C31.6337615,109.995981 8.93123755,87.2727254 8.93123755,59.2421689 C8.93123755,31.2116124 31.6337615,8.48835662 59.638744,8.48835662 Z" id="Oval"></path>
                    </g>
                    <ellipse id="Oval" fill="#434448" fill-rule="nonzero" cx="337.638713" cy="96.5040728" rx="35.0211497" ry="35.0531308"></ellipse>
                    <rect id="Rectangle" fill="#121413" fill-rule="nonzero" x="312.731028" y="78.8538907" width="49.8190783" height="35.3006573" rx="9.70683"></rect>
                    <rect id="Rectangle" fill="#121413" fill-rule="nonzero" x="325.145833" y="78.8538907" width="26.7100324" height="2.79680513"></rect>
                    <rect id="Rectangle" fill="#121413" fill-rule="nonzero" x="325.145833" y="111.009868" width="26.7100324" height="3.20905298"></rect>
                    <ellipse id="Oval" fill="#2E2E2E" fill-rule="nonzero" cx="337.640665" cy="96.5040728" rx="12.0849409" ry="12.0959768"></ellipse>
                    <g id="Clipped" transform="translate(324.938936, 84.242036)">
                        <mask id="mask-4" fill="white">
                            <use xlink:href="#path-3"></use>
                        </mask>
                        <g id="Oval"></g>
                        <g id="Group" mask="url(#mask-4)" fill="#121413" fill-rule="nonzero">
                            <g transform="translate(7.048140, 7.046358)" id="Oval">
                                <ellipse cx="5.65066083" cy="5.21567881" rx="4.93267217" ry="4.93717666"></ellipse>
                            </g>
                        </g>
                    </g>
                    <path d="M374.531794,6.24774834 L428.250884,5.8355298 L421.480857,1.38806291 C420.675715,0.86057947 419.734919,0.579254967 418.772652,0.579254967 L376.18014,0.579254967 C375.269597,0.579254967 374.531794,1.31675497 374.531794,2.22812914 L374.531794,6.24774834 Z" id="Path" fill="#434448" fill-rule="nonzero"></path>
                    <path d="M374.531794,5.06188742 L426.420039,5.06188742 C427.784389,5.06188742 428.891094,6.16960265 428.891094,7.53519868 L428.891094,24.6539901 L374.531794,24.6539901 L374.531794,5.06188742 Z" id="Path" fill="#636363" fill-rule="nonzero"></path>
                    <rect id="Rectangle" fill="#FFFFFF" fill-rule="nonzero" opacity="0.65" x="385.322652" y="7.66706954" width="37.5405129" height="13.7372318" rx="1.68814"></rect>
                    <path d="M264.505448,29.2675166 C265.131019,28.4850828 266.077671,28.0289073 267.078975,28.0289073 L368.831387,28.0289073 C369.832691,28.0289073 370.780319,28.4850828 371.404914,29.2675166 L374.534722,33.1855464 L261.376617,33.1855464 L264.505448,29.2675166 Z" id="Path" fill="#222423" fill-rule="nonzero"></path>
                    <rect id="Rectangle" fill="#222423" fill-rule="nonzero" x="374.534722" y="24.6539901" width="35.4407996" height="8.53111672"></rect>
                    <rect id="Rectangle" fill="#FFFFFF" fill-rule="nonzero" x="386.934888" y="9.72816225" width="34.4604779" height="2.2921207"></rect>
                    <rect id="Rectangle" fill="#FFFFFF" fill-rule="nonzero" x="386.934888" y="13.378543" width="34.4604779" height="2.2921207"></rect>
                    <rect id="Rectangle" fill="#FFFFFF" fill-rule="nonzero" x="386.934888" y="17.0289238" width="34.4604779" height="2.2921207"></rect>
                    <path d="M229.776004,29.5840066 C230.150761,28.6452815 231.059352,28.0289073 232.070415,28.0289073 L250.552577,28.0289073 C251.563641,28.0289073 252.472231,28.6452815 252.847964,29.5840066 L254.285509,33.1855464 L228.337483,33.1855464 L229.776004,29.5840066 Z" id="Path" fill="#636363" fill-rule="nonzero"></path>
                    <path d="M185.855538,59.4152083 C195.626616,58.2850594 204.653687,58.4837381 213.066612,60.5281546 C219.145413,62.0053579 224.885241,64.4395687 230.145097,68.1900744 C237.13435,73.1737158 242.616434,80.0904569 245.670442,88.4968469 C252.48557,107.25601 242.816891,127.993114 224.074843,134.814466 C213.374305,138.709031 202.029607,137.22547 192.995997,131.744184 L192.505116,131.440083 L192.235152,131.481644 C184.508666,132.676728 173.991139,135.959009 163.041199,140.904083 L162.341702,141.22198 C133.07748,154.605324 109.415492,175.324214 100.615287,196.641575 C95.8829967,208.104867 94.7098738,217.593885 96.0944151,224.951019 C96.8383214,228.903966 98.279325,231.944864 100.054927,234.041085 L100.290468,234.311076 L100.451569,234.106156 C111.19776,220.675895 130.290983,216.523326 145.831433,224.968008 L146.353906,225.257436 C163.723693,235.064385 169.861837,257.108341 160.063835,274.49399 C148.879833,294.338968 129.977789,306.650467 108.32877,308.527058 C89.0178707,310.200974 69.6942938,303.383589 54.4249816,290.302107 C22.9438526,263.331685 14.1761961,216.742373 33.869834,169.037373 C50.6402575,128.413184 87.8864416,95.7997127 132.328643,75.475056 C150.942409,66.9624624 169.759673,61.2768989 185.855538,59.4152083 Z" id="Path" fill="#6E5243" fill-rule="nonzero"></path>
                    <path d="M367.627089,180.947334 L445.957181,216.112897 L428.82961,316.124735 C424.928818,338.902252 409.31589,357.932682 387.751741,366.191705 L371.533737,372.404288 L338.606835,243.463891 L367.627089,180.947334 Z" id="Path" fill="#000000" fill-rule="nonzero"></path>
                    <path d="M72.8847198,182.663609 C91.1696463,188.977781 110.494914,182.663609 113.154323,176.033924 L171.477851,231.36596 L198.143185,287.170778 L97.2360271,327.061225 L97.2360271,396.35399 L1.11650785,266.467053 C0.439083625,265.551772 0.0342170244,264.472384 0.0108139308,263.333411 C-0.5040756,238.275017 17.4861522,189.871573 28.6684555,156.144868 C30.7620205,149.830695 33.3228608,152.040265 40.6339426,149.830695 C45.4495715,167.101871 54.5997934,176.349437 72.8847198,182.663609 Z" id="Path" fill="#000000" fill-rule="nonzero"></path>
                </g>
            </g>
        </g>
    </g>
</svg>