<?xml version="1.0" encoding="UTF-8"?>
<svg width="511px" height="1339px" viewBox="0 0 511 1339" version="1.1" xmlns="http://www.w3.org/2000/svg" xmlns:xlink="http://www.w3.org/1999/xlink">
    <!-- Generator: Sketch 55.2 (78181) - https://sketchapp.com -->
    <title>gee_me_039</title>
    <desc>Created with Sketch.</desc>
    <defs>
        <path d="M187.73775,63.9061317 C187.73775,47.9093111 182.459444,39.124754 172.906583,32.9167298 C127.453944,3.39818319 68.5186111,2.00847843 14.36275,0 C13.9206944,0 12.5063194,3.28660106 12.3126667,3.68221045 C10.3690417,7.67887964 0.168305556,29.4678274 0.168305556,46.9050719 C0.168305556,60.2442089 -0.973333333,73.3601817 2.70302778,80.1362604 C4.36175,83.1895534 14.718625,84.8632854 18.1972778,84.8632854 L182.0985,84.8632854 C185.213167,84.8632854 187.73775,67.0202877 187.73775,63.9061317 Z" id="path-1"></path>
        <path d="M120.969111,27.398486 C136.684389,27.398486 141.077569,18.2690386 142.767722,16.747464 C145.809389,20.2978047 143.274667,34.6006056 145.302444,41.0926571 C147.330222,47.5847086 144.457875,53.9448902 142.767722,56.3084027 L1.33022222,62.9018925 C0.485652778,49.3801665 -0.697555556,22.3265708 1.33022222,22.3265708 C3.86494444,22.3265708 20.0871667,0.517335352 28.7052222,0.0101438304 C35.5996667,-0.395609387 69.0914583,8.29765329 84.9760556,12.6899319 C82.9482778,14.718698 79.6024444,25.065405 78.3857778,29.9344436 C76.8649444,36.0207419 76.358,36.0207419 81.9343889,37.5423164 C87.5107778,39.063891 88.5246667,27.398486 94.608,27.398486 L120.969111,27.398486 Z" id="path-3"></path>
        <path d="M0.000202777778,64.1698713 C0.000202777778,48.1831945 5.27364167,39.4087812 14.8177833,33.2109008 C60.2300694,3.71264194 119.113694,2.32293717 173.220889,0.324602574 C173.662944,0.324602574 175.076306,3.61120363 175.268944,4.00681302 C177.211556,7.99333838 187.403167,29.7619985 187.403167,47.1890992 C187.403167,60.5079485 188.543792,73.6137774 184.870472,80.3898562 C183.212764,83.4431491 172.865014,85.1067373 169.390417,85.1067373 L5.63499167,85.1067373 C2.52296111,85.1067373 0.000202777778,67.2840273 0.000202777778,64.1698713 Z" id="path-5"></path>
        <path d="M25.1775986,27.6825132 C9.47621111,27.6825132 5.08668056,18.5632097 3.39835278,17.0416351 C0.359423611,20.5919758 2.89181389,34.8846329 0.865861111,41.3665405 C-1.16009167,47.8484481 1.710025,54.2086298 3.39835278,56.5721423 L144.710333,63.1554883 C145.553889,49.6439061 146.736083,22.6207419 144.710333,22.6207419 C142.177639,22.6207419 125.969611,0.831794095 117.359667,0.324602574 C110.471306,-0.0811506435 77.0089167,8.60196821 61.1385139,12.984103 C63.1642639,15.012869 66.5070556,25.3494322 67.7227083,30.2184709 C69.2425278,36.2946253 69.7484583,36.2946253 64.1771389,37.8161998 C58.6058194,39.3377744 57.5929444,27.6825132 51.5156944,27.6825132 L25.1775986,27.6825132 Z" id="path-7"></path>
        <path d="M12.6594167,103.793702 C15.6321389,63.5024073 37.677125,17.9089326 71.6718056,0.934246783 C96.7391944,0.934246783 105.595514,0.934246783 123.336542,0.934246783 L199.270736,0.934246783 C216.693403,0.934246783 235.785944,0.934246783 249.384222,3.62844815 C286.328306,21.6520061 310.248986,68.0762604 310.248986,111.965572 L310.248986,264.462846 L310.248986,482.987328 L0.808069444,472.687282 L0.808069444,264.462846 L12.6594167,103.793702 Z" id="path-9"></path>
        <path d="M0.293013889,133.269644 C-3.17854167,60.720969 54.677,0 127.273472,0 C201.722319,0 260.236889,63.7194852 253.945708,137.936821 L246.075903,230.772142 L235.654139,278.19455 C230.647556,306.305132 212.171458,330.168494 186.217931,342.043876 L157.490403,355.189266 C147.488389,359.766162 136.618486,362.134746 125.619819,362.134746 C114.488333,362.134746 103.490681,359.708342 93.3913333,355.023921 L67.9031806,343.202301 C40.5464306,330.514398 20.6225,305.843588 13.970375,276.419379 L7.89616667,245.657199 C5.93936111,235.747691 4.71458333,225.706313 4.23197222,215.616245 L0.293013889,133.269644 Z" id="path-11"></path>
    </defs>
    <g id="GEE!-ME" stroke="none" stroke-width="1" fill="none" fill-rule="evenodd">
        <g id="gee_me_039" transform="translate(-345.000000, -130.000000)">
            <g transform="translate(345.000000, 130.000000)">
                <g id="lower-limb" transform="translate(54.750000, 814.823467)">
                    <path d="M190.163986,125.592793 C256.504764,125.592793 310.284472,101.58539 310.284472,71.9704769 C310.284472,42.355564 256.504764,18.3481605 190.163986,18.3481605 C123.823208,18.3481605 70.0435,42.355564 70.0435,71.9704769 C70.0435,101.58539 123.823208,125.592793 190.163986,125.592793 Z" id="Path" fill="#445A73" fill-rule="nonzero"></path>
                    <path d="M264.567175,248.154646 C279.858507,246.763625 293.399357,257.911441 295.03132,273.128875 L295.077117,273.591246 L311.855965,458.219104 C313.260351,473.672421 301.877545,487.338845 286.431755,488.743916 C271.140424,490.134936 257.599574,478.987121 255.967611,463.769687 L255.921813,463.307316 L239.142966,278.679458 C237.73858,263.22614 249.121386,249.559716 264.567175,248.154646 Z" id="Path" fill="#EBBAAA" fill-rule="nonzero"></path>
                    <path d="M141.259056,247.542176 C156.613464,247.542176 169.089744,259.870918 169.337734,275.173683 L169.341497,275.638304 L169.341497,452.648145 C169.341497,468.165208 156.768559,480.744273 141.259056,480.744273 C125.904647,480.744273 113.428367,468.415532 113.180377,453.112766 L113.176615,452.648145 L113.176615,275.638304 C113.176615,260.121241 125.749552,247.542176 141.259056,247.542176 Z" id="Path" fill="#EBBAAA" fill-rule="nonzero"></path>
                    <polygon id="Path" fill="#445A73" fill-rule="nonzero" points="55.9717361 11.9697199 222.476625 2.27373675e-13 185.982708 358.46268 174.895833 432.360484 105.444444 432.360484 68.4375 244.699621"></polygon>
                    <polygon id="Path" fill="#445A73" fill-rule="nonzero" points="195.046875 17.8724148 350.885653 17.8724148 341.680556 245.714005 313.291667 430.331718 240.798611 430.331718 232.786861 363.859198"></polygon>
                    <polygon id="Path" fill="#FFFFFF" opacity="0.2" points="68.7264583 123.564027 96.2484722 46.4283119 112.405806 52.4324451 84.8837917 123.564027"></polygon>
                    <polygon id="Path" fill="#FFFFFF" opacity="0.2" points="341.086417 123.564027 313.564403 46.4283119 297.407069 52.4324451 324.929083 123.564027"></polygon>
                    <path d="M76.9565972,128.376153 L77.3536129,136.481491 L81.4043074,136.282886 L81.0072917,128.177549 L76.9565972,128.376153 Z M77.7506286,144.586828 L78.1476443,152.692165 L82.1983388,152.493561 L81.8013231,144.388223 L77.7506286,144.586828 Z M78.54466,160.797503 L78.9416757,168.90284 L82.9923702,168.704236 L82.5953545,160.598898 L78.54466,160.797503 Z M79.3386914,177.008178 L79.7357071,185.113515 L83.7864016,184.91491 L83.3893859,176.809573 L79.3386914,177.008178 Z M80.1327228,193.218852 L80.5297385,201.32419 L84.5804329,201.125585 L84.1834172,193.020248 L80.1327228,193.218852 Z M80.9267542,209.429527 L81.3237699,217.534864 L85.3744643,217.33626 L84.9774486,209.230922 L80.9267542,209.429527 Z M81.7207856,225.640202 L82.1178013,233.745539 L86.1684957,233.546935 L85.77148,225.441597 L81.7207856,225.640202 Z M86.5655114,241.652272 L82.514817,241.850877 L82.6409056,244.425059 L83.6817424,250.135655 L87.6715054,249.407756 L86.6546037,243.82848 L86.6850694,244.093128 L86.5655114,241.652272 Z M85.1368324,258.11907 L86.5919225,266.102486 L90.5816855,265.374586 L89.1265954,257.391171 L85.1368324,258.11907 Z M88.0470125,274.085901 L89.5021026,282.069316 L93.4918656,281.341416 L92.0367755,273.358001 L88.0470125,274.085901 Z M90.9571926,290.052731 L92.4122827,298.036146 L96.4020457,297.308247 L94.9469556,289.324831 L90.9571926,290.052731 Z M93.8673727,306.019561 L95.3224627,314.002977 L99.3122258,313.275077 L97.8571357,305.291662 L93.8673727,306.019561 Z M96.7775528,321.986392 L98.2326428,329.969807 L102.222406,329.241907 L100.767316,321.258492 L96.7775528,321.986392 Z M99.6877329,337.953222 L101.142823,345.936637 L105.132586,345.208738 L103.677496,337.225323 L99.6877329,337.953222 Z M102.597913,353.920052 L104.053003,361.903468 L108.042766,361.175568 L106.587676,353.192153 L102.597913,353.920052 Z M105.508093,369.886883 L106.963183,377.870298 L110.952946,377.142398 L109.497856,369.158983 L105.508093,369.886883 Z M108.418273,385.853713 L109.873363,393.837128 L113.863126,393.109229 L112.408036,385.125814 L108.418273,385.853713 Z M111.328453,401.820544 L112.783543,409.803959 L116.773306,409.076059 L115.318216,401.092644 L111.328453,401.820544 Z" id="Path" fill="#697B8F" fill-rule="nonzero"></path>
                    <path d="M332.11831,127.748637 L331.693594,135.852569 L335.743586,136.06503 L336.168302,127.961098 L332.11831,127.748637 Z M331.268878,143.9565 L330.844163,152.060432 L334.894155,152.272893 L335.31887,144.168962 L331.268878,143.9565 Z M330.419447,160.164364 L329.994731,168.268296 L334.044723,168.480757 L334.469439,160.376825 L330.419447,160.164364 Z M329.570016,176.372227 L329.1453,184.476159 L333.195292,184.688621 L333.620008,176.584689 L329.570016,176.372227 Z M328.720584,192.580091 L328.295869,200.684023 L332.345861,200.896484 L332.770576,192.792552 L328.720584,192.580091 Z M327.871153,208.787955 L327.446438,216.891886 L331.49643,217.104348 L331.921145,209.000416 L327.871153,208.787955 Z M327.021722,224.995818 L326.597006,233.09975 L330.646998,233.312211 L331.071714,225.208279 L327.021722,224.995818 Z M326.172291,241.203682 L325.96806,245.100582 L325.989757,244.892533 L325.33746,249.054488 L329.344058,249.683047 L329.996355,245.521093 L330.018052,245.313044 L330.222283,241.416143 L326.172291,241.203682 Z M324.080953,257.071589 L322.824446,265.088691 L326.831044,265.717251 L328.087551,257.700149 L324.080953,257.071589 Z M321.567939,273.105793 L320.311432,281.122895 L324.31803,281.751454 L325.574537,273.734353 L321.567939,273.105793 Z M319.054925,289.139996 L317.798418,297.157098 L321.805016,297.785658 L323.061523,289.768556 L319.054925,289.139996 Z M316.541911,305.1742 L315.285403,313.191301 L319.292002,313.819861 L320.548509,305.802759 L316.541911,305.1742 Z M314.028896,321.208403 L312.772389,329.225505 L316.778987,329.854065 L318.035494,321.836963 L314.028896,321.208403 Z M311.515882,337.242607 L310.259375,345.259708 L314.265973,345.888268 L315.52248,337.871166 L311.515882,337.242607 Z M309.002868,353.27681 L307.746361,361.293912 L311.752959,361.922471 L313.009466,353.90537 L309.002868,353.27681 Z M306.489854,369.311013 L305.233347,377.328115 L309.239945,377.956675 L310.496452,369.939573 L306.489854,369.311013 Z M303.97684,385.345217 L302.720333,393.362319 L306.726931,393.990878 L307.983438,385.973777 L303.97684,385.345217 Z M301.463825,401.37942 L300.207318,409.396522 L304.213916,410.025082 L305.470424,402.00798 L301.463825,401.37942 Z" id="Path" fill="#697B8F" fill-rule="nonzero"></path>
                    <path d="M426.001639,502.860106 C426.001639,471.718547 406.001667,467.91461 373.405139,457.243301 C357.439431,452.019228 341.145222,447.464648 324.61275,444.725814 C314.223431,443.001363 311.432194,452.140954 293.182194,452.140954 C276.90725,452.140954 256.603111,444.076609 252.398514,442.33187 C251.871292,442.108706 251.246736,441.915973 250.826986,442.301438 C250.725597,442.392733 250.639417,442.514459 250.576556,442.636185 C248.632931,446.632854 238.432194,468.421802 238.432194,485.859046 C238.432194,499.198183 237.290556,512.314156 240.966917,519.090235 C242.625639,522.143528 252.982514,523.81726 256.461167,523.81726 L420.362389,523.81726 C423.477056,523.81726 426.001639,505.974262 426.001639,502.860106 Z" id="Path" fill="#10100F" fill-rule="nonzero"></path>
                    <g id="Clipped" transform="translate(238.263889, 438.953974)">
                        <mask id="mask-2" fill="white">
                            <use xlink:href="#path-1"></use>
                        </mask>
                        <g id="Path"></g>
                        <g id="Group" mask="url(#mask-2)">
                            <g transform="translate(-10.138889, -2.028766)">
                                <path d="M173.692347,44.6328539 C189.407625,44.6328539 193.800806,35.5034065 195.490958,33.9818319 C198.532625,37.5321726 195.997903,51.8349735 198.025681,58.327025 C200.053458,64.8190765 197.180097,71.1792581 195.490958,73.5427706 L54.0534583,80.1362604 C53.207875,66.6145344 52.0256806,39.5609387 54.0534583,39.5609387 C56.5881806,39.5609387 72.8104028,17.7517033 81.4284583,17.2445117 C88.3229028,16.8387585 121.814694,25.5320212 137.699292,29.9242998 C135.671514,31.9530659 132.325681,42.2997729 131.109014,47.1688115 C129.588181,53.2551098 129.081236,53.2551098 134.657625,54.7766843 C140.234014,56.2982589 141.247903,44.6328539 147.331236,44.6328539 L173.692347,44.6328539 Z" id="Path" fill="#363533" fill-rule="nonzero"></path>
                                <g id="Clipped" stroke-width="1" fill="none" fill-rule="evenodd" transform="translate(52.722222, 17.244512)">
                                    <mask id="mask-4" fill="white">
                                        <use xlink:href="#path-3"></use>
                                    </mask>
                                    <g id="Path"></g>
                                    <path d="M69.9573194,42.6040878 C70.7684306,38.5465556 76.0406528,34.4890235 78.575375,32.9674489 L107.979167,17.2445117 L141.4375,17.2445117 C146.169319,28.4027252 154.111111,52.9507949 148.027778,61.8773656 C140.423611,73.0355791 85.6725972,58.8342165 77.0545417,54.7766843 C68.4364861,50.7191522 68.9434306,47.676003 69.9573194,42.6040878 Z" id="Path" fill="#272626" fill-rule="nonzero" mask="url(#mask-4)"></path>
                                </g>
                                <path d="M66.5780278,40.0681302 C64.1446944,36.010598 25.0085833,30.2590462 9.29330556,28.4027252 L2.19608333,72.0211961 L81.2794167,76.5859198 C77.3931806,66.1073429 69.0113611,44.1256624 66.5780278,40.0681302 Z" id="Path" fill="#363533" fill-rule="nonzero"></path>
                                <path d="M51.5319167,52.1088569 L49.1168333,53.4376987 C48.736625,53.6507192 48.7781944,54.2086298 49.1847639,54.3607873 L63.0861944,59.5138531 C65.9119028,60.5688115 69.0569861,60.3050719 71.6687639,58.7936412 L73.6448333,57.6575322 C74.0149028,57.4445117 73.9723194,56.8967449 73.574875,56.7445874 L60.0637917,51.5306586 C57.2745833,50.4554126 54.1518056,50.668433 51.5319167,52.1088569 Z" id="Path" fill="#C4C4C4" fill-rule="nonzero"></path>
                                <path d="M24.8402778,40.5753217 C24.8402778,38.5465556 10.6458333,33.4746404 10.6458333,33.4746404 L5.57638889,50.7191522 C5.57638889,50.7191522 24.8402778,42.6040878 24.8402778,40.5753217 Z" id="Path" fill="#C4C4C4" fill-rule="nonzero"></path>
                                <path d="M48.3280278,11.1582135 C36.1613611,10.346707 26.0224722,3.72278577 21.9669167,0 C17.9113611,4.05753217 7.87386111,15.2157456 10.3071944,19.2732778 C13.3488611,24.345193 36.6683056,28.4027252 46.8071944,28.4027252 C56.9460833,28.4027252 63.5363611,12.1725965 48.3280278,11.1582135 Z" id="Path" fill="#000000" fill-rule="nonzero"></path>
                                <path d="M108.147472,71.5140045 C134.001639,70.4996215 156.307194,76.5859198 184.696083,70.4996215 C235.390528,64.9205148 209.34575,68.2375473 222.209972,92.9073429 L23.4025833,92.9073429 C3.71691667,88.2513248 -2.81455556,59.5544285 11.8280278,61.8773656 C43.7655278,66.9492808 88.3665,72.2950795 108.147472,71.5140045 Z" id="Path" fill="#CDC7BB" fill-rule="nonzero"></path>
                                <path d="M126.457292,77.8944739 C125.616778,77.2249811 125.371417,74.8716124 125.722222,71.5140045 L149.041667,73.0355791 C149.041667,76.1091597 148.831792,78.2292203 147.991278,79.5682059 C146.940889,81.2520818 127.507681,78.7364118 126.457292,77.8944739 Z" id="Path" fill="#80DAF4" fill-rule="nonzero"></path>
                                <path d="M4.22386111,70.4996215 C11.1183056,73.339894 104.598861,73.5427706 107.640528,71.5140045 C100.543306,69.99243 48.3087639,64.068433 36.6683056,63.3989402 C18.92525,62.3845572 12.1656528,61.0354277 4.22386111,61.3701741 C1.35151389,63.3989402 -2.67058333,67.659349 4.22386111,70.4996215 Z" id="Path" fill="#AEAAAA" fill-rule="nonzero"></path>
                            </g>
                        </g>
                    </g>
                    <path d="M325.151515,441.356788 C326.624901,440.460078 328.545889,440.928148 329.442162,442.402252 C330.338435,443.876356 329.870593,445.798281 328.397207,446.694991 L324.019598,449.230387 C323.760238,449.382302 323.541982,449.511617 323.386294,449.606401 C323.151545,449.749319 322.923985,449.890723 322.703603,450.030573 L322.379153,450.238986 L344.523755,445.140301 C347.319666,444.496528 349.399612,447.633069 347.803387,449.946663 L347.703179,450.084455 L341.644056,457.999016 L366.341854,450.972011 C369.390021,450.10466 371.605674,453.785661 369.513819,456.071489 L369.395425,456.194751 L355.916787,469.574463 C354.692546,470.789718 352.715424,470.781951 351.500761,469.557114 C350.332816,468.379386 350.295073,466.505237 351.382243,465.282456 L351.518102,465.138936 L356.393097,460.298622 L334.290854,466.58817 C331.45385,467.395436 329.215512,464.195979 330.85843,461.819743 L330.957543,461.6836 L337.468861,453.175625 L315.174203,458.309813 C313.277269,458.746591 311.464454,457.361904 311.356329,455.446352 L311.351235,455.265254 C311.351235,450.975501 314.310732,447.874978 319.764118,444.499292 L320.41625,444.102559 C321.710677,443.332176 324.675999,441.64619 325.151515,441.356788 Z" id="Path" fill="#000000" fill-rule="nonzero"></path>
                    <path d="M332.381167,415.623316 C324.481044,415.623316 318.484258,422.331391 318.331793,431.407207 L318.323646,432.856417 L318.257245,437.078207 C318.253983,437.407445 318.252983,437.691805 318.253635,437.996993 C318.260906,440.111467 318.381578,441.563072 318.694235,442.757921 C319.053335,444.130625 319.6686,445.106679 320.618272,445.772661 C321.657536,446.499775 323.112021,446.855866 325.094347,446.855866 C329.231222,446.855866 334.16201,445.319076 338.00182,442.761711 C342.334167,439.875448 344.871112,436.033782 344.871112,431.761998 C344.871112,427.13671 343.747289,423.111225 341.643195,420.245409 C339.454756,417.251202 336.279766,415.623316 332.381167,415.623316 Z M332.381167,421.871612 C334.278342,421.871612 335.584322,422.541216 336.605967,423.939017 C337.86222,425.65007 338.62586,428.385398 338.62586,431.761998 C338.62586,433.694382 337.276019,435.73843 334.540739,437.560708 C331.711805,439.444817 327.981108,440.607571 325.094347,440.607571 L324.725843,440.600609 L324.626944,440.595246 L324.616584,440.511326 C324.550775,439.980319 324.511179,439.259061 324.501117,438.305918 L324.501937,437.167502 L324.566229,433.145162 C324.571682,432.662382 324.57407,432.231161 324.57407,431.761998 C324.57407,425.791529 328.019155,421.871612 332.381167,421.871612 Z" id="Path" fill="#000000" fill-rule="nonzero"></path>
                    <path d="M303.070206,429.262419 C300.424837,430.444618 298.756633,432.499302 298.159847,435.167801 C297.586512,437.715531 298.023979,440.753187 299.404678,443.86364 C300.678117,446.719015 303.544571,448.525229 307.347846,449.147935 C310.712287,449.703436 314.518129,449.245494 317.326788,447.996593 L317.60209,447.869507 C318.763859,447.314801 319.522492,446.707483 319.970153,446.017123 L320.161371,445.698208 C320.214141,445.60591 320.243886,445.546087 320.270894,445.479916 L320.325014,445.332415 L320.349377,445.285088 C320.407646,445.161893 320.422716,445.074827 320.437898,444.949846 L320.455848,444.86175 L320.486328,444.68221 C320.544256,444.268234 320.533827,443.818764 320.453949,443.319283 C320.317675,442.485977 320.005836,441.555942 319.471487,440.312978 L319.179037,439.649772 L317.660511,436.369785 L317.421449,435.836243 C314.656237,429.62742 308.491739,426.8503 303.070206,429.262419 Z M314.894625,442.495185 L317.358375,441.177502 L314.586403,443.686071 L314.331875,443.636358 L314.352151,443.541679 C314.365099,443.493167 314.388757,443.414164 314.440968,443.239814 L314.459667,443.183952 L314.495347,443.121925 C314.54608,443.033176 314.61378,442.924862 314.705275,442.784222 L314.894625,442.495185 Z M311.592212,438.110628 L311.812941,438.595214 L313.483904,442.213992 L313.689111,442.677774 L313.551172,442.71805 C311.988753,443.137591 310.056982,443.262432 308.360597,442.982344 C306.454902,442.670324 305.420544,442.018553 305.110159,441.322595 C304.24295,439.368924 303.998304,437.670168 304.253494,436.536175 C304.422007,435.782688 304.780183,435.341531 305.612561,434.969545 C307.666054,434.055921 310.148302,435.121645 311.592212,438.110628 Z" id="Path" fill="#000000" fill-rule="nonzero"></path>
                    <path d="M333.083832,469.806902 L318.873619,463.431895 L303.897882,490.688783 L316.732604,495.799934 L323.366681,491.901726 L319.914673,497.401741 L333.481239,503.808323 L347.887283,476.651807 L334.898814,470.494215 L330.940431,472.793793 L333.083832,469.806902 Z M338.645986,479.005874 L339.529083,479.424815 L330.828903,495.82536 L328.713931,494.827207 L338.645986,479.005874 Z M335.185583,477.365617 L335.689486,477.603997 L316.21775,489.044209 L315.548583,488.777426 L335.185583,477.365617 Z M321.502139,471.281347 L323.797583,472.310946 L312.776611,487.672763 L312.545444,487.581469 L321.502139,471.281347 Z" id="Path" fill="#80DAF4" fill-rule="nonzero"></path>
                    <path d="M329.98874,470.641766 L319.749966,466.048431 L306.780775,489.653263 L316.561053,493.548048 L329.500708,485.945269 L322.848002,496.543553 L332.597126,501.147412 L345.101317,477.576038 L334.994688,472.784673 L323.772236,479.306132 L329.98874,470.641766 Z M320.626139,468.664239 L326.892986,471.476109 L316.604115,485.818174 L335.090278,475.074126 L342.31525,478.499697 L331.712,498.486086 L325.78075,495.68436 L335.63458,479.98999 L316.389097,491.295125 L309.662958,488.617154 L320.626139,468.664239 Z" id="Path" fill="#FF8D43" fill-rule="nonzero"></path>
                    <path d="M-3.69482223e-13,503.123846 C-3.69482223e-13,472.012718 19.9818236,468.208781 52.5498611,457.547615 C68.501375,452.333687 84.780375,447.779107 101.298653,445.040273 C111.678847,443.315821 114.467042,452.445269 132.700819,452.445269 C148.960556,452.445269 169.245431,444.391067 173.446986,442.646329 C173.975222,442.423164 174.600792,442.230431 175.019528,442.626041 C175.120917,442.717335 175.206083,442.828917 175.268944,442.960787 C177.211556,446.947313 187.402153,468.715973 187.402153,486.143073 C187.402153,499.461923 188.542778,512.567752 184.870472,519.34383 C183.212764,522.397123 172.865014,524.060712 169.390417,524.060712 L5.6346875,524.060712 C2.52275833,524.060712 -3.69482223e-13,506.238002 -3.69482223e-13,503.123846 Z" id="Path" fill="#10100F" fill-rule="nonzero"></path>
                    <g id="Clipped" transform="translate(0.000000, 438.953974)">
                        <mask id="mask-6" fill="white">
                            <use xlink:href="#path-5"></use>
                        </mask>
                        <g id="Path"></g>
                        <g id="Group" mask="url(#mask-6)">
                            <g transform="translate(-24.333333, -2.028766)">
                                <path d="M48.4970431,44.9168812 C32.7956556,44.9168812 28.406125,35.7975776 26.7177972,34.276003 C23.6788681,37.8161998 26.2112583,52.1088569 24.1853056,58.6009084 C22.1593528,65.082816 25.0294694,71.4328539 26.7177972,73.7963664 L168.029778,80.3898562 C168.873333,66.878274 170.055528,39.8449659 168.029778,39.8449659 C165.497083,39.8449659 149.289056,18.0560182 140.679111,17.5488266 C133.79075,17.1430734 100.328361,25.8261923 84.4579583,30.2184709 C86.4837083,32.2472369 89.8265,42.5838002 91.0421528,47.4528388 C92.5619722,53.5289932 93.0679028,53.5289932 87.4965833,55.0505678 C81.9252639,56.5721423 80.9123889,44.9168812 74.8351389,44.9168812 L48.4970431,44.9168812 Z" id="Path" fill="#363533" fill-rule="nonzero"></path>
                                <g id="Clipped" stroke-width="1" fill="none" fill-rule="evenodd" transform="translate(23.319444, 17.244512)">
                                    <mask id="mask-8" fill="white">
                                        <use xlink:href="#path-7"></use>
                                    </mask>
                                    <g id="Path"></g>
                                    <path d="M76.1440694,42.8779712 C75.3339722,38.8204391 70.0658056,34.7629069 67.534125,33.2413323 L38.1565931,17.5386828 L4.72806806,17.5386828 C0.000811111111,28.6867525 -7.93428889,53.2145344 -1.85632917,62.1309614 C5.74104444,73.279031 60.4429861,59.0878123 69.0529306,55.0404239 C77.6638889,50.9828917 77.1569444,47.9397426 76.1440694,42.8779712 Z" id="Path" fill="#272626" fill-rule="nonzero" mask="url(#mask-8)"></path>
                                </g>
                                <path d="M155.514333,40.3521575 C157.945639,36.3047691 197.047278,30.5532173 212.748361,28.6968963 L219.8395,72.2747918 L140.826125,76.8395155 C144.709319,66.3710825 153.083028,44.4096896 155.514333,40.3521575 Z" id="Path" fill="#363533" fill-rule="nonzero"></path>
                                <path d="M170.551319,52.3928842 L172.959306,53.7115821 C173.339514,53.9246026 173.297944,54.4825132 172.891375,54.6346707 L159.007181,59.7877366 C156.182486,60.8325511 153.037403,60.5688115 150.424611,59.0675246 L148.454625,57.9314156 C148.085569,57.7183952 148.127139,57.1706283 148.525597,57.0184709 L162.019444,51.8146858 C164.808653,50.7394398 167.931431,50.9423164 170.551319,52.3928842 Z" id="Path" fill="#C4C4C4" fill-rule="nonzero"></path>
                                <path d="M197.214569,40.859349 C197.214569,38.8305829 211.396847,33.7688115 211.396847,33.7688115 L216.461222,50.9930356 C216.461222,50.9930356 197.214569,42.8881151 197.214569,40.859349 Z" id="Path" fill="#C4C4C4" fill-rule="nonzero"></path>
                                <path d="M173.748111,11.4726722 C185.903625,10.6611658 196.034403,4.03724451 200.085903,0.324602574 C204.137403,4.37199092 214.166792,15.5200606 211.735486,19.5775927 C208.695847,24.6495079 185.397694,28.6968963 175.267931,28.6968963 C165.138167,28.6968963 158.552958,12.4870553 173.748111,11.4726722 Z" id="Path" fill="#000000" fill-rule="nonzero"></path>
                                <path d="M113.982403,71.7777441 C88.1515556,70.7633611 65.8657708,76.8395155 37.5021278,70.7633611 C-13.1471986,65.1842544 12.8748681,68.5012869 0.0217986111,93.140651 L198.652264,93.140651 C218.320694,88.4947767 224.846083,59.8181681 210.216681,62.1411052 C178.307569,67.2130204 133.747153,72.5486752 113.982403,71.7777441 Z" id="Path" fill="#CDC7BB" fill-rule="nonzero"></path>
                                <path d="M95.6898194,78.1480696 C96.5293194,77.4785768 96.7736667,75.1252082 96.423875,71.7676003 L73.1257222,73.2891749 C73.1257222,76.3627555 73.3345833,78.482816 74.1750972,79.8218017 C75.2244722,81.4955337 94.6404444,78.9900076 95.6898194,78.1480696 Z" id="Path" fill="#80DAF4" fill-rule="nonzero"></path>
                                <path d="M217.812736,70.7633611 C210.924375,73.5934898 117.526958,73.7963664 114.488333,71.7777441 C121.579472,70.2561696 173.767375,64.3321726 185.397694,63.6626798 C203.124528,62.6482967 209.878042,61.2991673 217.812736,61.6339137 C220.683056,63.6626798 224.701097,67.9230886 217.812736,70.7633611 Z" id="Path" fill="#AEAAAA" fill-rule="nonzero"></path>
                            </g>
                        </g>
                    </g>
                    <path d="M96.472996,442.715538 C97.3366974,441.29641 99.1502046,440.810593 100.598666,441.577852 L104.965362,444.105139 C105.291899,444.296309 105.571559,444.461915 105.7711,444.58347 C111.460089,448.049031 114.552056,451.188215 114.552056,455.569569 C114.552056,457.516882 112.79699,458.973784 110.907004,458.649842 L110.729472,458.614216 L88.4607917,453.489069 L94.9615507,461.977223 C96.755387,464.319493 94.6054411,467.578744 91.7926089,466.924722 L91.629618,466.882614 L69.5588611,460.609023 L74.419911,465.432348 C75.5974679,466.600457 75.6505671,468.474233 74.573454,469.705889 L74.438775,469.85052 C73.2712357,471.028651 71.3983725,471.081776 70.1673156,470.004138 L70.0227557,469.869393 L56.5552696,456.509968 C54.3048298,454.277586 56.424677,450.540448 59.4416851,451.243415 L59.6071181,451.286198 L84.2744444,458.29623 L78.2268937,450.399462 C76.4818466,448.120897 78.4723443,444.926492 81.2386301,445.420564 L81.4055145,445.454671 L103.511972,450.541272 L102.869557,450.133455 L102.246103,449.754048 C101.024559,449.028694 98.089202,447.357895 97.5160648,447.008735 C96.0430731,446.111378 95.5760753,444.189248 96.472996,442.715538 Z" id="Path" fill="#000000" fill-rule="nonzero"></path>
                    <path d="M93.5373333,415.968207 C89.6457815,415.968207 86.4747421,417.592495 84.2825208,420.581376 C82.1797895,423.448933 81.0575271,427.464798 81.0575271,432.086601 C81.0575271,436.34951 83.5937361,440.190265 87.9203406,443.075231 C91.7636651,445.626661 96.6888239,447.160181 100.817056,447.160181 C102.772917,447.160181 104.205434,446.813332 105.233101,446.125473 C106.239078,445.420906 106.85307,444.444806 107.21215,443.072184 C107.502616,441.969897 107.627405,440.625262 107.648676,438.73845 L107.6481,437.404975 L107.581648,433.179888 L107.576501,432.086601 C107.576501,422.841861 101.532249,415.968207 93.5373333,415.968207 Z M93.5373333,422.216502 C97.8923791,422.216502 101.331249,426.12726 101.331249,432.086601 L101.338174,433.388115 L101.401245,437.291003 C101.405709,437.672204 101.40715,437.979571 101.406447,438.30823 L101.404289,438.622725 C101.394704,439.542537 101.357266,440.250382 101.295816,440.775023 L101.279389,440.899561 L101.185448,440.904914 C101.072521,440.909437 100.949801,440.911886 100.817056,440.911886 C97.936825,440.911886 94.2085337,439.751028 91.3785868,437.872344 C88.6526589,436.054697 87.3027785,434.010481 87.3027785,432.086601 C87.3027785,428.713046 88.0647335,425.986493 89.3177737,424.277685 C90.3391098,422.885193 91.6445704,422.216502 93.5373333,422.216502 Z" id="Path" fill="#000000" fill-rule="nonzero"></path>
                    <path d="M107.981268,437.268172 L107.081692,439.198897 C106.926018,439.535355 106.791016,439.831981 106.66564,440.113488 L106.573239,440.322171 C105.95735,441.707073 105.600569,442.730055 105.455291,443.628276 L105.41526,443.924746 C105.373097,444.311591 105.375691,444.665488 105.422033,444.996669 L105.436333,445.084905 L105.496948,445.689432 L105.928485,446.337053 C106.419699,447.074232 107.25974,447.721577 108.573002,448.308587 C111.383025,449.559873 115.186617,450.018033 118.553007,449.461627 C122.348771,448.839504 125.212208,447.032993 126.483215,444.183083 C127.863807,441.079386 128.301435,438.041653 127.728722,435.490049 C127.131335,432.818854 125.46012,430.762059 122.813921,429.593614 C117.493477,427.223073 111.447294,429.864212 108.622755,435.859748 L107.981268,437.268172 Z M120.282778,435.30572 C121.113675,435.672626 121.46718,436.107691 121.634695,436.856725 C121.88993,437.993879 121.64536,439.691532 120.778721,441.639817 C120.469055,442.334161 119.43724,442.985121 117.539222,443.296207 L117.172261,443.350145 C115.568561,443.55735 113.801195,443.421979 112.35101,443.031861 L112.220264,442.994262 L112.550504,442.25647 L114.033466,439.052602 L114.190102,438.702487 C115.608334,435.513675 118.166886,434.362985 120.282778,435.30572 Z M110.518958,443.274232 L108.525653,441.469796 L109.375183,441.689245 C110.207669,441.914395 110.438543,442.036803 110.76759,442.413527 L110.793722,442.444466 L110.699792,442.387683 L110.774864,442.451208 C110.853867,442.523578 110.943578,442.622066 111.034236,442.742933 L111.085722,442.814716 L111.120194,442.872536 L110.518958,443.274232 Z" id="Path" fill="#000000" fill-rule="nonzero"></path>
                    <path d="M121.998877,490.961593 L107.034527,463.727727 L92.8303366,470.088826 L94.9790833,473.084921 L91.0215949,470.789494 L78.0404038,476.934191 L92.436354,504.070215 L105.997735,497.677841 L102.548778,492.18271 L109.173411,496.074082 L121.998877,490.961593 Z M86.3995556,479.709856 L87.2755556,479.294974 L97.1954444,495.099061 L95.0895972,496.091128 L86.3995556,479.709856 Z M90.237125,477.893096 L90.7329167,477.658774 L110.361806,489.048266 L109.686556,489.317078 L90.237125,477.893096 Z M104.404194,471.57349 L113.35075,487.857381 L113.128708,487.945632 L102.117875,472.597002 L104.404194,471.57349 Z" id="Path" fill="#80DAF4" fill-rule="nonzero"></path>
                    <path d="M119.116283,489.926789 L106.157648,466.343156 L95.9262881,470.925092 L102.138153,479.585087 L90.9258001,473.079213 L80.827005,477.859517 L93.3210717,501.410536 L103.063736,496.818175 L96.4167778,486.228282 L109.344498,493.822019 L119.116283,489.926789 Z M105.280194,468.957396 L116.233236,488.892051 L109.515208,491.570023 L90.2860724,480.275088 L100.129639,495.958244 L94.2054861,498.749826 L83.6133889,478.783724 L90.8282222,475.368297 L109.298474,486.085814 L99.0214583,471.760136 L105.280194,468.957396 Z" id="Path" fill="#FF8D43" fill-rule="nonzero"></path>
                </g>
                <g id="upper-limb" transform="translate(0.000008, 388.508706)">
                    <path d="M173.068798,41.7672218 C202.054867,35.9608933 231.498201,46.9923089 250.879701,69.3249659 C284.348173,107.888766 277.363492,166.906586 235.819395,196.584391 L122.768756,277.345511 L12.8909812,271.058365 L28.3695159,171.792869 C28.3695159,171.792869 34.4456506,98.6842544 68.3705756,74.7904618 C88.1501284,60.8589251 136.32952,49.1285995 173.068798,41.7672218 Z" id="Path" fill="#030303" fill-rule="nonzero"></path>
                    <path d="M341.086409,41.5318849 C312.684339,35.8929296 283.842242,46.6575625 264.788228,68.4718698 C231.603645,106.464572 238.506201,164.826086 279.636631,194.02003 L391.376312,273.330583 L500.144284,267.146904 L484.821381,169.515579 C484.821381,169.515579 478.806992,97.6110371 445.224964,74.1108251 C425.55552,60.3456472 377.515437,48.7654504 341.086409,41.5318849 Z" id="Path" fill="#030303" fill-rule="nonzero"></path>
                    <polygon id="Path" fill="#282828" fill-rule="nonzero" points="471.96527 279.96972 411.131937 274.897805 411.131937 253.595761 464.868048 260.696442 499.847214 256.131718 510.493048 274.897805"></polygon>
                    <polygon id="Path" fill="#282828" fill-rule="nonzero" points="43.2454964 290.11355 111.52777 284.456336 111.52777 260.696442 51.2117228 268.616745 11.9493825 263.524542 -4.47641924e-13 284.456336"></polygon>
                    <path d="M115.139242,141.230522 C119.470576,83.283891 167.727631,38.4796064 225.808256,38.4796064 L301.296339,38.4796064 C362.587951,38.4796064 412.274589,88.1894474 412.274589,149.510931 L412.274589,298.066313 L412.274589,513.322453 L103.416659,503.176593 L103.416659,298.066313 L115.139242,141.230522 Z" id="Path" fill="#000000" fill-rule="nonzero"></path>
                    <g id="Clipped" transform="translate(102.402770, 37.532173)">
                        <mask id="mask-10" fill="white">
                            <use xlink:href="#path-9"></use>
                        </mask>
                        <g id="Path"></g>
                        <path d="M240.533986,8.09477668 C240.533986,50.3539743 192.928861,71.4470553 148.027778,71.4470553 C143.465278,67.3895231 128.856153,62.1715367 116.090278,54.709735 C88.9109583,38.8224678 71.1263333,16.6906586 77.9295278,8.09477668 C77.9295278,-34.1634065 114.330167,-68.4201363 159.23125,-68.4201363 C204.133347,-68.4201363 240.533986,-34.1634065 240.533986,8.09477668 Z" id="Path" fill="#EED4CC" fill-rule="nonzero" mask="url(#mask-10)"></path>
                    </g>
                    <path d="M261.710062,104.869962 C300.487256,104.869962 331.922881,79.6737017 331.922881,48.5940197 C331.922881,42.962165 330.890742,37.5230431 328.969423,32.3933081 L300.110089,28.8429674 L222.140006,28.8429674 C219.044603,28.8429674 215.960353,29.2264042 212.959242,29.9861771 L193.595992,34.8856472 C192.226228,39.2738683 191.498256,43.8659803 191.498256,48.5940197 C191.498256,79.6737017 222.932867,104.869962 261.710062,104.869962 Z" id="Path" fill="#EED4CC"></path>
                    <path d="M302.138881,93.8304315 C287.538881,95.4534444 261.583326,104.650855 250.430548,109.046177 C260.231812,111.244345 284.497214,114.320969 303.15277,109.046177 C326.472214,102.453702 363.479159,75.0643452 374.631937,65.9348978 C385.784714,56.8054504 413.928242,71.5383497 407.583326,53.7623013 C394.909714,18.2588948 372.604159,13.3563815 357.395826,7.60787282 C357.395826,1.52157456 353.238881,5.68434189e-14 346.749992,5.68434189e-14 C340.261103,5.68434189e-14 321.909714,6.59348978 303.15277,9.63663891 L303.15277,29.9242998 C307.71527,29.5865102 318.259714,31.1415594 323.937492,40.0681302 C331.034714,51.2263437 320.388881,91.8016654 302.138881,93.8304315 Z" id="Path" fill="#FCF6EF" fill-rule="nonzero"></path>
                    <path d="M196.694437,73.0355791 C208.049992,74.658592 237.588631,97.2113702 250.430548,109.046177 C244.347214,105.495836 196.187492,87.2369417 180.979159,88.2513248 C165.771839,89.2657078 189.597214,75.638486 180.979159,73.0355791 C172.362117,70.4326722 122.614645,54.3993338 108.485089,58.327025 C99.3615089,60.8629826 98.8327659,59.3992279 101.895826,51.7335352 C102.908701,49.1975776 96.3196395,49.7047691 98.8535506,45.1400454 C102.282117,38.9634671 110.004909,33.4746404 133.832312,31.4458743 C140.929534,28.9099167 140.421576,23.5570174 150.561478,16.2301287 C157.861478,10.9553369 165.263881,13.6941711 170.333326,13.6941711 L170.334339,13.6941711 C173.881937,13.6941711 180.980173,13.6941711 188.077395,11.665405 C198.37952,8.72065102 206.325367,9.12944739 215.958326,9.12944739 L215.958326,29.4171083 C211.226506,30.4314913 200.749992,33.7789553 196.694437,39.0537472 C191.624992,45.6472369 182.499992,71.006813 196.694437,73.0355791 Z" id="Path" fill="#FCF6EF" fill-rule="nonzero"></path>
                    <path d="M409.826221,307.068481 C416.425561,290.100383 435.524044,281.697451 452.483877,288.300007 C469.443709,294.902563 477.842548,314.010354 471.243208,330.978453 C460.02336,359.826713 432.632228,386.663147 395.689059,409.0393 C362.007469,429.439944 322.284903,444.719609 285.879905,450.931239 C267.940369,453.992186 250.917323,441.923619 247.857867,423.97534 C244.798412,406.027061 256.8611,388.995718 274.800635,385.934771 C302.809956,381.15566 334.766445,368.863291 361.558936,352.635314 L363.089657,351.700278 C387.679307,336.551836 404.624976,319.889275 409.673868,307.451792 L409.826221,307.068481 Z" id="Path" fill="#EED4CC" fill-rule="nonzero"></path>
                    <polygon id="Path" fill="#FCF6EF" fill-rule="nonzero" points="444.083326 291.635125 400.486103 289.099167 407.583326 301.271764 397.444437 306.343679 392.374992 321.559425 444.083326 336.267979 477.034714 368.728236 492.243048 353.512491 477.034714 342.354277 492.243048 342.354277 499.34027 321.559425"></polygon>
                    <path d="M292.649119,99.0181994 C293.425099,97.8524956 294.998685,97.536869 296.163821,98.3132278 C297.328957,99.0895865 297.64443,100.663939 296.868449,101.829643 C296.446761,102.463118 295.896126,103.508059 295.642599,104.269011 C295.46024,104.816355 295.535231,167.918777 295.772649,223.153364 C295.778669,224.553922 294.648726,225.694181 293.248851,225.700228 C291.848976,225.706227 290.709272,224.575733 290.703252,223.175175 L290.606878,199.124897 C290.3991,142.64045 290.404733,103.951462 290.833302,102.66513 C291.248593,101.418649 291.998418,99.9957038 292.649119,99.0181994 Z" id="Path" fill="#D1C9C1" fill-rule="nonzero"></path>
                    <path d="M223.480605,93.4390927 C224.256585,92.2733888 225.830171,91.9577623 226.995307,92.734121 C228.398239,93.6689288 230.517626,97.0040939 230.652901,99.19445 L230.658895,99.5528143 L230.36964,141.51009 L230.217653,169.56385 C230.175387,179.241311 230.15277,187.546204 230.15277,194.254353 C230.15277,195.654923 229.017936,196.79031 227.618048,196.79031 C226.218159,196.79031 225.083326,195.654923 225.083326,194.254353 L225.106638,180.651216 C225.117938,176.918627 225.133231,172.906039 225.152269,168.632128 L225.300294,141.478519 L225.59027,99.4095382 C225.59027,99.3350694 225.332096,98.7185582 224.901076,98.0317535 C224.683207,97.6845911 224.442003,97.3456264 224.225647,97.0767025 L224.104254,96.9304074 L224.015708,96.8309765 L223.91179,96.7454918 C223.017675,95.9571357 222.789509,94.6348019 223.389274,93.5868467 L223.480605,93.4390927 Z" id="Path" fill="#D1C9C1" fill-rule="nonzero"></path>
                    <path d="M187.237895,424.156154 C184.506478,421.209372 184.05327,410.167812 187.214576,401.757562 C192.598326,400.797956 202.932895,399.853565 207.952659,404.700288 C214.227617,410.759198 215.168506,421.47514 210.93552,425.304436 C206.702534,429.133732 190.650645,427.840394 187.237895,424.156154 Z" id="Path" fill="#E6E6EB" fill-rule="nonzero"></path>
                    <path d="M193.636548,245.119576 C212.672312,239.945208 239.185506,248.301696 250.062506,253.127116 C252.793923,298.060227 257.012714,391.146101 252.037562,404.024709 C245.819381,420.123982 206.266562,407.619682 189.525228,405.982468 C172.783895,404.344239 156.511992,388.991552 129.730117,369.685814 C102.949256,350.380076 110.198562,332.212475 117.497548,329.31134 C124.796534,326.40919 124.779298,309.17888 133.606214,283.359788 C142.432117,257.540696 169.843617,251.587282 193.636548,245.119576 Z" id="Path" fill="#171723" fill-rule="nonzero"></path>
                    <path d="M357.903784,213.020439 C349.412464,205.743255 336.231909,204.565556 329.709562,203.148463 L297.456742,189.464436 L278.771784,206.747494 C272.871964,220.020696 257.779214,253.129145 233.908214,247.360348 C214.167798,242.589705 208.523478,244.25025 196.485576,263.215155 C190.466117,272.697608 193.973159,298.271219 203.076867,312.140878 C212.180576,326.011552 225.46252,352.217123 221.062242,355.301862 C212.595256,361.237017 209.665117,402.686737 229.467381,400.081802 C249.269645,397.47788 256.533145,405.824224 267.497339,409.890886 C273.830089,412.239182 281.753631,410.298668 281.484951,417.39732 C281.21627,424.496987 285.007201,430.920061 293.651617,430.669508 C302.297048,430.41997 306.927478,428.96433 306.851437,422.503724 C306.774381,415.96704 304.016603,411.26436 308.665284,409.709311 C313.313964,408.154262 314.032812,409.868569 319.753173,412.895488 C325.474548,415.922407 334.937173,416.351491 338.099492,407.361014 C339.78052,402.579213 340.265159,395.620545 334.150395,392.744769 C329.124548,390.381257 335.938895,389.908554 342.996576,386.971915 C350.054256,384.036291 362.955992,386.786283 372.306076,367.686465 C381.655145,348.586646 375.511992,336.393762 373.198298,330.15835 C370.884603,323.923952 376.039214,311.857865 384.918853,304.750083 C393.797478,297.642301 405.080034,282.262226 406.477173,267.201681 C407.874312,252.141136 401.501006,242.437547 394.632923,236.234595 C388.411701,230.615927 380.237728,228.206768 375.139895,227.728993 C370.042062,227.251219 365.065895,219.158471 357.903784,213.020439 Z" id="Path" fill="#FDFDFF" fill-rule="nonzero"></path>
                    <path d="M245.389492,235.17355 C249.354812,232.192279 258.082367,230.084391 261.951367,229.402725 L267.852201,241.56112 C263.102131,244.41458 252.300159,250.970537 247.095867,254.366692 C241.891576,257.762846 232.437062,280.259833 228.361228,291.084315 C228.633964,288.580818 229.317326,282.950992 229.865839,280.469811 C230.414353,277.987615 233.023089,269.186828 234.25902,265.095821 L224.561173,279.717139 C225.404728,274.339894 228.876284,261.427812 236.003923,252.792369 C243.131562,244.156927 254.346187,236.773232 259.062798,234.161196 C256.433784,234.772869 250.315978,236.512536 246.873826,238.583906 C243.431673,240.655276 235.617631,245.108418 232.141006,247.075307 C234.904867,244.350674 241.424173,238.154822 245.389492,235.17355 Z" id="Path" fill="#171723" fill-rule="nonzero"></path>
                    <path d="M259.584951,218.943422 C263.55027,215.96215 272.277826,213.854262 276.146826,213.172597 L282.048673,225.330992 C277.297589,228.184451 266.496631,234.740409 261.291326,238.136563 C256.087034,241.532718 246.633534,264.029705 242.556687,274.854186 C242.829423,272.350689 243.512784,266.720863 244.061298,264.239682 C244.609812,261.757487 247.219562,252.956699 248.455492,248.865693 L238.756631,263.48701 C239.601201,258.109765 243.071742,245.197684 250.199381,236.562241 C257.328034,227.926798 268.541645,220.543104 273.258256,217.931067 C270.629242,218.54274 264.511437,220.282407 261.069284,222.353777 C257.627131,224.425148 249.813089,228.878289 246.336464,230.845178 C249.100326,228.120545 255.620645,221.924693 259.584951,218.943422 Z" id="Path" fill="#171723" fill-rule="nonzero"></path>
                    <path d="M256.820076,153.427464 C255.396576,162.085223 267.065423,180.066177 273.077784,187.975322 L288.970492,202.535776 C291.459589,201.166359 298.416895,198.018728 306.323201,196.384557 C314.229506,194.750386 325.695576,200.282831 330.440576,203.252945 L322.644784,192.30268 C318.747395,186.82704 310.689006,188.144724 310.858326,185.215185 C311.027645,182.285647 299.126617,163.861408 292.990562,158.561257 C286.854506,153.260091 269.885048,128.948372 262.963228,130.919319 C256.042423,132.890265 258.600464,142.605011 256.820076,153.427464 Z" id="Path" fill="#171723" fill-rule="nonzero"></path>
                    <path d="M288.827534,200.054595 C280.492353,186.665753 238.370339,167.299152 218.351103,159.289584 C206.84752,160.61031 242.92777,213.229402 246.591964,227.285708 C250.257173,241.342014 263.634423,254.561453 257.474034,259.839288 C251.313645,265.118138 252.877062,278.383225 259.221978,285.682725 C265.566895,292.982226 272.460326,298.144421 269.268603,310.242967 C266.077895,322.341514 267.317881,322.271522 275.062978,317.956336 C282.809089,313.641151 288.120853,321.285541 315.686464,333.319167 C343.253089,345.352793 336.47727,354.974217 342.983395,350.729023 C349.488506,346.48383 342.508895,324.574171 346.97102,308.71835 C351.433145,292.862528 343.544076,291.250674 339.983298,278.193535 C336.423534,265.137411 353.04827,253.714444 338.782853,248.490371 C324.518451,243.267313 324.607673,228.759606 314.334951,219.671749 C304.061214,210.584905 298.398645,231.438592 288.984687,219.766086 C279.569714,208.093581 299.245242,216.791915 288.827534,200.054595 Z" id="Path" fill="#171723" fill-rule="nonzero"></path>
                    <path d="M252.458326,249.538229 C249.620451,254.812006 252.627645,262.89461 254.486103,266.275549 L264.119062,259.174868 L257.021839,242.437547 C256.683201,242.606949 255.297214,244.263437 252.458326,249.538229 Z" id="Path" fill="#171723" fill-rule="nonzero"></path>
                    <path d="M327.698006,253.809796 C330.18102,257.114656 334.590423,257.248554 334.077395,260.866858 C334.594478,263.155307 328.636867,262.802301 326.226853,264.182877 C323.817853,265.564466 325.713826,267.802195 316.689201,267.2595 C307.664576,266.716805 302.794867,252.490083 312.158131,247.173702 C321.521395,241.858335 325.214992,250.503921 327.698006,253.809796 Z" id="Path" fill="#EBEBFF" fill-rule="nonzero"></path>
                    <path d="M309.419617,256.077956 C309.926562,252.498198 310.526784,248.268221 315.723978,247.67785 C323.640423,247.142256 326.105187,253.798637 325.793923,258.401908 C325.481645,263.005178 321.632923,266.110204 316.574631,265.724739 C311.515326,265.338259 308.911659,259.657714 309.419617,256.077956 Z" id="Path" fill="#6974F5" fill-rule="nonzero"></path>
                    <path d="M311.615701,256.201711 C311.991853,253.548085 312.436951,250.411612 316.190367,249.960212 C321.907687,249.541272 323.669826,254.467116 323.431562,257.878486 C323.194312,261.290871 320.406117,263.601635 316.755103,263.32978 C313.104089,263.057926 311.239548,258.855337 311.615701,256.201711 Z" id="Path" fill="#171723" fill-rule="nonzero"></path>
                    <path d="M319.793728,252.314595 C319.684228,253.088569 319.554451,254.002528 320.546034,254.430598 C322.079034,255.006768 322.956048,253.768206 323.164909,252.792369 C323.37377,251.817547 322.794839,250.946192 321.772839,250.729114 C320.750839,250.512036 319.903228,251.540621 319.793728,252.314595 Z" id="Path" fill="#ECECFF" fill-rule="nonzero"></path>
                    <path d="M56.5756221,300.02 C72.2905762,292.383302 91.0893231,298.370566 99.6026312,313.351727 L99.7098889,313.544784 L99.7863521,313.635462 C100.12351,314.033448 100.5862,314.545503 101.160484,315.144658 L101.381045,315.373372 C103.791678,317.858265 107.2213,320.927826 111.356109,324.238532 C121.127457,332.062368 133.394173,340.126509 146.269874,346.944849 C176.431585,362.91701 204.950711,369.631547 224.989306,364.819135 L225.593933,364.669773 C243.233041,360.189971 261.162192,370.864666 265.639811,388.512371 C270.117431,406.160076 259.447937,424.097964 241.808829,428.577766 C220.662445,433.948311 197.911561,433.334308 174.231622,427.833552 C154.683551,423.292612 134.79781,415.471028 115.44018,405.220178 C81.1933722,387.08475 50.1399033,362.220502 41.3321713,344.078098 C33.3811529,327.700376 40.2058783,307.974893 56.5756221,300.02 Z" id="Path" fill="#EED4CC" fill-rule="nonzero"></path>
                    <polygon id="Path" fill="#FCF6EF" fill-rule="nonzero" points="103.923603 285.548827 107.400228 306.850871 119.638881 306.850871 119.638881 324.095382 78.0694367 346.411809 56.2708256 386.987131 24.84027 372.785768 38.0208256 356.048448 24.84027 360.613172 7.60415893 346.411809 14.0984214 340.693732 2.02777004 314.458743 10.1388812 285.041635 44.6111034 289.606359"></polygon>
                    <polygon id="Path" fill="#FCF6EF" fill-rule="nonzero" points="407.076381 290.11355 412.65277 275.404996 471.458326 279.96972 499.847214 275.404996 506.437492 277.940954 499.847214 281.998486 508.46527 285.041635 499.847214 322.066616 451.180548 301.271764"></polygon>
                    <path d="M378.718923,265.231749 C375.168284,262.513202 372.787673,258.484073 373.785339,256.656154 C373.986089,255.239061 377.434326,255.205587 380.292478,254.134398 C383.149617,253.06321 387.799312,253.230583 389.213687,255.400348 C390.628062,257.570114 389.537117,268.736442 387.298451,268.910916 C385.059784,269.08539 382.269562,267.950295 378.718923,265.231749 Z" id="Path" fill="#DD91A9" fill-rule="nonzero"></path>
                    <rect id="Rectangle" fill="#EED4CC" fill-rule="nonzero" x="215.835645" y="3.04314913" width="87.4639361" height="68.6248388"></rect>
                </g>
                <g id="hand" transform="translate(109.500000, 0.000000)">
                    <path d="M104.745875,255.621484 C104.745875,283.070689 93.8607639,310.590901 64.9365417,310.590901 C36.0123194,310.590901 7.531753e-13,283.070689 7.531753e-13,255.621484 C7.531753e-13,228.171264 23.4482083,205.919758 52.3724306,205.919758 C81.2976667,205.919758 104.745875,228.171264 104.745875,255.621484 Z" id="Path" fill="#FFD6C8" fill-rule="nonzero"></path>
                    <path d="M200.75,251.563952 C200.75,279.013157 211.634097,306.533369 240.558319,306.533369 C269.483556,306.533369 305.495875,279.013157 305.495875,251.563952 C305.495875,224.113732 282.047667,201.862226 253.122431,201.862226 C224.198208,201.862226 200.75,224.113732 200.75,251.563952 Z" id="Path" fill="#FFD6C8" fill-rule="nonzero"></path>
                    <path d="M26.654125,177.902498 C23.1825694,105.353823 81.0381111,44.6328539 153.634583,44.6328539 C228.083431,44.6328539 286.598,108.352339 280.306819,182.569674 L272.437014,275.404996 L262.01525,322.827403 C257.008667,350.937986 238.532569,374.801347 212.579042,386.67673 L183.851514,399.82212 C173.8495,404.399016 162.979597,406.7676 151.980931,406.7676 C140.849444,406.7676 129.851792,404.341196 119.752444,399.656775 L94.2642917,387.835155 C66.9075417,375.147252 46.9836111,350.476442 40.3314861,321.052233 L34.2572778,290.290053 C32.3004722,280.380545 31.0756944,270.339167 30.5930833,260.249099 L26.654125,177.902498 Z" id="Path" fill="#EED4CC" fill-rule="nonzero"></path>
                    <g id="Clipped" transform="translate(26.361111, 44.632854)">
                        <mask id="mask-12" fill="white">
                            <use xlink:href="#path-11"></use>
                        </mask>
                        <g id="Path"></g>
                        <path d="M104.429542,347.426192 C99.9684306,348.237699 88.7152778,346.411809 85.1666667,349.96215 C79.5902778,359.598789 101.794444,367.713853 125.722222,367.713853 C149.65,367.713853 170.332319,353.907086 165.262875,349.96215 C160.700375,346.411809 149.547597,348.947767 144.985097,347.426192 C140.447944,345.912733 138.395833,337.282362 125.722222,337.282362 C113.048611,337.282362 110.005931,346.411809 104.429542,347.426192 Z" id="Path" fill-opacity="0.523164336" fill="#987F67" fill-rule="nonzero" mask="url(#mask-12)"></path>
                    </g>
                    <path d="M171.217483,337.712632 C174.059721,337.080715 176.875831,338.873658 177.50744,341.717283 C178.139048,344.560907 176.346979,347.378389 173.50474,348.010306 C158.116209,351.431646 147.319155,351.54417 132.59634,347.988655 C129.766052,347.305149 128.025472,344.455539 128.708645,341.623872 C129.391818,338.792205 132.24004,337.050777 135.070327,337.734282 C148.156416,340.894533 157.336204,340.798864 171.217483,337.712632 Z" id="Path" fill="#CD9E8E" fill-rule="nonzero"></path>
                    <path d="M204.805556,231.279334 C211.52502,231.279334 216.972222,236.729191 216.972222,243.45193 C216.972222,250.071243 211.691337,255.456538 205.114766,255.620672 L204.805556,255.624527 L202.777778,255.624527 C196.058313,255.624527 190.611111,250.17467 190.611111,243.45193 C190.611111,236.832618 195.891996,231.447323 202.468567,231.283188 L202.777778,231.279334 L204.805556,231.279334 Z" id="Path" fill="#000000" fill-rule="nonzero"></path>
                    <path d="M103.416667,231.279334 C110.136131,231.279334 115.583333,236.729191 115.583333,243.45193 C115.583333,250.071243 110.302448,255.456538 103.725877,255.620672 L103.416667,255.624527 L101.388889,255.624527 C94.6694244,255.624527 89.2222222,250.17467 89.2222222,243.45193 C89.2222222,236.832618 94.5031075,231.447323 101.079678,231.283188 L101.388889,231.279334 L103.416667,231.279334 Z" id="Path" fill="#000000" fill-rule="nonzero"></path>
                    <path d="M178.407944,79.7748357 C240.338306,78.1988902 233.257306,162.294186 265.638889,174.473883 C283.147736,170.923543 268.974583,217.077971 280.106069,217.077971 C282.001028,212.801332 283.890917,211.498864 287.945458,214.542014 C302.139903,207.948524 300.111111,109.553369 251.772944,60.3974822 C238.621792,47.0229432 220.909153,41.0202301 207.753944,47.6641347 C192.863972,55.1839591 163.734944,66.4875337 178.407944,79.7748357 Z" id="Path" fill="#987F67" fill-rule="nonzero"></path>
                    <path d="M273.974069,245.955428 C277.423319,235.632051 276.051528,216.688448 276.284722,207.441332 L280.511625,205.384164 C280.915153,213.706162 280.123306,234.586223 279.09725,242.139319 C277.813667,251.58221 270.672847,255.834504 273.974069,245.955428 Z" id="Path" fill="#987F67" fill-rule="nonzero"></path>
                    <path d="M30.322375,250.043391 C27.6629444,239.517139 30.4440417,220.776412 30.9033333,211.559727 L26.8528472,209.197229 C25.8288194,217.445178 25.0552222,238.274519 25.5114722,245.865148 C26.0812778,255.352672 32.8672361,260.117229 30.322375,250.043391 Z" id="Path" fill="#765C43" fill-rule="nonzero"></path>
                    <path d="M128.767944,79.5574534 C45.8277778,56.439461 71.5683889,173.213005 41.0625,186.139288 C23.8263889,182.588948 37.4723194,218.092354 26.2516111,218.092354 C24.4935278,214.123073 21.7986111,214.542014 15.7152778,220.12112 C12.6736111,222.657078 9.699875,195.251491 9.63093056,182.588948 C9.47580556,154.180136 15.7152778,79.5575549 55.7638889,56.2981575 C72.0895278,46.8167192 85.9250556,40.4551173 99.1857083,47.1586677 C114.195319,54.7459485 143.558556,66.15086 128.767944,79.5574534 Z" id="Path" fill="#765C43" fill-rule="nonzero"></path>
                    <path d="M156.370056,0 C90.5068194,0 48.9951667,65.7205587 45.6736667,89.9365193 C42.3531806,114.152581 47.3354306,127.714883 53.4238333,142.715579 C59.5122361,157.716276 72.7951944,176.965208 88.2924861,176.965208 C95.7678889,176.965208 128.143389,178.206813 136.445111,176.965208 C144.747847,175.723603 160.087986,161.964512 164.672792,161.964512 C169.256583,161.964512 172.974514,176.965208 186.812069,176.965208 C198.358236,176.965208 221.127139,173.140984 228.876292,165.690341 C236.624431,158.238683 267.066444,94.9044603 259.317292,71.3088963 C251.569153,47.7133323 222.234306,0 156.370056,0 Z" id="Path" fill="#765C43" fill-rule="nonzero"></path>
                    <path d="M144.676945,256.4451 L159.672221,264.947784 C154.992248,273.2094 152.323954,282.040329 152.61114,288.057745 C152.82289,292.494537 154.00226,293.842454 158.184639,293.894596 L158.444472,293.896185 L158.444472,311.140696 C144.381977,311.140696 136.029928,302.191306 135.394645,288.880219 C134.941037,279.375786 138.384187,267.768764 144.324637,257.073178 L144.676945,256.4451 Z" id="Path" fill="#EBBAAA" fill-rule="nonzero"></path>
                    <polygon id="Path" fill="#393939" fill-rule="nonzero" points="196.113486 201.227222 183.482458 209.717608 185.714028 212.6157 203.713597 208.332975 218.380514 207.328736 235.576069 206.151037 225.940069 191.559137"></polygon>
                    <polygon id="Path" fill="#393939" fill-rule="nonzero" points="109.457417 201.594428 121.977931 210.439849 119.650042 213.27302 101.59775 208.483104 86.8213333 207.063982 69.4970139 205.400394 79.6115694 191.086435"></polygon>
                    <path d="M162.092985,233.650478 C162.74392,232.738725 164.010369,232.527547 164.921677,233.1788 C165.832986,233.830052 166.044061,235.097118 165.393126,236.008871 C162.697184,239.785029 158.929209,240.915973 152.590278,240.915973 C147.282366,240.915973 142.611856,239.408622 139.879718,236.128459 C139.162769,235.2677 139.279009,233.988432 140.139348,233.271133 C140.999688,232.553834 142.278333,232.670132 142.995282,233.53089 C144.810734,235.710494 148.367634,236.858441 152.590278,236.858441 C157.742087,236.858441 160.364685,236.071278 162.092985,233.650478 Z" id="Path" fill="#856A5A" fill-rule="nonzero"></path>
                    <path d="M163.089097,237.954989 C162.0965,234.834746 163.744069,231.504527 166.864819,230.518547 C175.350056,227.837532 192.112681,223.085148 206.897208,222.167131 C224.578417,221.068554 240.249083,223.868251 247.731583,225.549084 C250.477194,226.165829 252.285972,228.691643 252.146056,231.504527 L251.097694,252.679773 C250.917222,256.320394 248.786028,259.564391 245.369222,260.832369 C239.432903,263.035609 228.677569,266.358728 213.329319,268.51835 C196.720806,270.855488 183.827181,269.135095 177.173028,267.76162 C173.998542,267.105314 171.599681,264.680939 170.616208,261.591128 L163.089097,237.954989 Z" id="Path" fill-opacity="0.25" fill="#FFFFFF" fill-rule="nonzero"></path>
                    <path d="M205.492428,220.284811 L207.089113,220.152116 C233.0016,218.077852 250.702669,220.56521 253.843306,227.694599 C255.753462,232.028792 255.106021,241.140382 253.00487,251.785198 L252.890924,252.356904 L248.915132,251.556131 L249.121301,250.510892 C250.96545,240.967983 251.543202,232.532606 250.132336,229.331316 C248.028137,224.554689 230.957648,222.240427 206.581071,224.264729 L205.840158,224.327401 C193.658065,225.375957 183.540123,227.37403 175.967117,229.969336 C170.11657,231.974347 166.277954,234.238924 165.587904,235.520346 C165.314721,236.027464 165.928942,240.265316 167.250348,245.5634 L167.465995,246.415307 C168.568434,250.70953 170.012565,255.456452 170.836525,257.614723 L170.916818,257.821809 L167.144154,259.310667 C166.238515,257.013603 164.61493,251.682435 163.425639,246.984256 L163.090394,245.632175 C161.562795,239.348319 161.046375,235.398668 162.017702,233.595561 C164.952576,228.145501 181.985883,222.308103 205.492428,220.284811 Z" id="Path" fill="#3F2C25" fill-rule="nonzero"></path>
                    <path d="M142.545681,238.691431 C143.579847,235.584375 141.973847,232.232854 138.866278,231.205284 C130.324264,228.381241 113.339597,223.318456 98.3208611,222.190462 C80.363875,220.842347 64.4052639,223.49293 56.8234028,225.097684 C54.0696806,225.679939 52.2264306,228.183437 52.3298472,230.997335 L53.1216944,252.621953 C53.2555278,256.264603 55.3461667,259.538017 58.7447222,260.851643 C64.7195694,263.162407 75.6026528,266.691446 91.19525,269.091476 C108.057236,271.686268 121.181014,270.091658 127.924389,268.783104 C131.105972,268.165344 133.536264,265.772415 134.560292,262.694777 L142.545681,238.691431 Z" id="Path" fill-opacity="0.25" fill="#FFFFFF" fill-rule="nonzero"></path>
                    <path d="M50.6867954,227.191151 C53.9900853,219.947962 72.2926076,217.686596 98.9562798,220.249661 L99.7668223,220.328806 C123.558705,222.686761 140.740273,228.823895 143.639397,234.375265 C144.596755,236.208989 144.019101,240.212249 142.386798,246.56417 L142.152238,247.465746 C140.953147,252.021724 139.29755,257.282465 138.291017,259.882521 L138.104606,260.35163 L134.351672,258.81367 L134.52441,258.378349 C135.461747,255.951334 137.070274,250.840351 138.230369,246.43254 L138.414219,245.724018 C139.70038,240.695347 140.307836,236.757873 140.044799,236.254049 C139.357453,234.937891 135.491155,232.589316 129.580738,230.478157 C121.936056,227.747531 111.70401,225.589263 99.3669444,224.366567 L97.8701676,224.222776 C73.570476,221.963974 56.5575925,224.09278 54.3763371,228.875662 C52.874104,232.168709 53.3948896,240.987349 55.220119,250.912479 L55.3173843,251.435852 L51.3315602,252.185041 C49.2544183,241.123482 48.6620574,231.629581 50.6867954,227.191151 Z" id="Path" fill="#3F2C25" fill-rule="nonzero"></path>
                </g>
            </g>
        </g>
    </g>
</svg>