<?xml version="1.0" encoding="UTF-8"?>
<svg width="524px" height="1415px" viewBox="0 0 524 1415" version="1.1" xmlns="http://www.w3.org/2000/svg" xmlns:xlink="http://www.w3.org/1999/xlink">
    <!-- Generator: Sketch 55.2 (78181) - https://sketchapp.com -->
    <title>gee_me_057</title>
    <desc>Created with Sketch.</desc>
    <defs>
        <path d="M186.539,87.99 C186.539,87.99 187.217,63.13 181.926,49.36 C176.636,35.59 171.185,0.07 171.185,0.07 C171.185,0.07 161.799,10.13 144.321,10.13 C126.842,10.13 108.304,5.92 108.304,5.92 C108.304,5.92 75.841,48.8 67.366,54.1 C58.891,59.39 22.1847,69.69 17.6673,69.99 C8.3066,70.62 0.3106,77.36 0.4572,86.74 L0.5827,94.78 L100.734,95.29 L186.539,87.99 Z" id="path-1"></path>
        <path d="M0.235,87.99 C0.235,87.99 -0.447,63.13 4.869,49.36 C10.185,35.59 15.662,0.07 15.662,0.07 C15.662,0.07 25.093,10.13 42.656,10.13 C60.219,10.13 78.846,5.92 78.846,5.92 C78.846,5.92 111.466,48.8 119.982,54.1 C128.497,59.39 165.381,69.69 169.92,69.99 C179.328,70.62 187.36,77.4 187.212,86.83 L187.087,94.78 L86.452,95.29 L0.235,87.99 Z" id="path-3"></path>
        <path d="M86.777,22.899 C95.3892,13.706 123.753,4.413 136.859,0.916 C128.59,118.825 111.303,357.639 108.307,369.63 C104.563,384.619 22.6537,390.614 15.1648,384.619 C7.67595,378.623 -0.749008,322.167 1.1232,291.191 C2.99542,260.215 76.0118,34.39 86.777,22.899 Z" id="path-5"></path>
        <path d="M54.359,22.916 C45.159,13.716 14.859,4.416 0.859,0.916 C9.692,118.916 28.159,357.916 31.359,369.916 C35.359,384.916 122.859,390.916 130.859,384.916 C138.859,378.916 147.859,322.416 145.859,291.416 C143.859,260.416 65.859,34.416 54.359,22.916 Z" id="path-7"></path>
        <path d="M151.958,51.557 C145.201,27.846 133.997,-1.077 123.859,4.29 C120.877,5.869 119.196,24.007 118.392,52.279 L113.859,53.79 L113.859,1.916 C83.859,1.916 54.359,8.79 31.859,18.79 C10.61,28.234 9.53,55.314 8.018,93.228 C7.62,103.206 7.192,113.935 6.359,125.29 L0.859,423.79 L74.859,435.29 L123.858,435.785 C123.858,435.79 123.858,435.79 123.858,435.79 L124.359,435.79 L270.358,435.79 L308.358,425.29 L301.358,113.79 C301.358,113.79 292.358,26.29 277.358,18.29 C262.358,10.29 182.859,0.916 182.859,0.916 L186.858,46.29 L153.858,50.29 L151.958,51.557 Z" id="path-9"></path>
        <path d="M162.746,0.916011111 C162.817,0.916011111 162.674,0.916011111 162.746,0.916011111 C207.55,0.916011111 284.642,23.6003 312.957,81.9165 C327.898,112.689 325.512,134.458 322.971,171.916 C291.892,132.39 207.432,105.916 162.745,105.916 C106.315,105.916 46.733,137.756 2.5199,171.916 C0.4953,134.279 -2.4073,112.689 12.534,81.9165 C40.849,23.6003 116.774,0.916011111 162.746,0.916011111 Z" id="path-11"></path>
        <path d="M150.79,0.916055556 C150.857,0.916055556 150.723,0.916055556 150.79,0.916055556 C211.172,0.916055556 308.152,26.207 300.424,111.916 C271.399,84.148 192.523,67.657 150.79,67.657 C98.09,67.657 42.447,87.918 1.156,111.916 C-5.123,24.1 89.362,0.916055556 150.79,0.916055556 Z" id="path-13"></path>
    </defs>
    <g id="GEE!-ME" stroke="none" stroke-width="1" fill="none" fill-rule="evenodd">
        <g id="gee_me_057" transform="translate(-338.000000, -93.000000)">
            <g transform="translate(338.000000, 93.916015)">
                <g id="lower-limb" transform="translate(58.026833, 866.373985)">
                    <path d="M267.612886,114.085247 C283.046348,110.993401 298.064076,120.998258 301.155921,136.431719 C307.198656,166.595037 309.58821,220.831461 309.798196,300.8054 L309.813101,315.835803 C309.804513,332.55427 309.714045,349.305292 309.533011,370.569476 L308.908822,437.79944 C308.852242,445.235665 308.836297,449.79578 308.832932,455.322531 L308.832167,458.13 C308.832167,473.870115 296.072283,486.63 280.332167,486.63 C264.592052,486.63 251.832167,473.870115 251.832167,458.13 L251.845974,448.408868 C251.87081,441.253132 251.937631,433.028935 252.109924,415.010156 L252.552314,368.038322 C252.73795,345.805154 252.821342,328.539221 252.813235,310.844746 L252.80435,303.590285 C252.646028,227.077315 250.405568,174.138546 245.421438,148.415168 L245.266414,147.628281 C242.174569,132.19482 252.179425,117.177092 267.612886,114.085247 Z" id="Path" fill="#EBBAAA" fill-rule="nonzero"></path>
                    <path d="M123.92267,218.845189 C124.831075,203.131308 138.306099,191.129099 154.019979,192.037503 C169.733859,192.945907 181.736069,206.420931 180.827665,222.134811 C179.795232,239.99417 178.629306,257.076751 177.248228,275.055808 L176.806058,280.741019 C175.574933,296.29865 172.306436,335.289063 172.21473,336.418444 L171.609943,343.989888 C170.327097,360.349303 169.509845,372.94508 168.971567,385.24695 C168.105055,405.050313 168.036149,423.402488 168.850302,442.879734 C169.507668,458.606116 157.291816,471.887768 141.565434,472.545134 C125.839051,473.2025 112.557399,460.986649 111.900033,445.260266 C111.052529,424.985131 111.086081,405.799054 111.913619,385.420303 L112.026054,382.755254 C112.632529,368.89479 113.560714,354.868556 115.036819,336.340572 L119.280289,284.981273 C119.622263,280.780574 119.916056,277.126486 120.121375,274.492725 C121.606347,255.443957 122.839879,237.575679 123.92267,218.845189 Z" id="Path" fill="#EBBAAA" fill-rule="nonzero"></path>
                    <polygon id="Path" fill="#F2EFEF" fill-rule="nonzero" points="109.832167 408.13 109.832167 457.13 170.832167 459.63 169.332167 413.63"></polygon>
                    <polygon id="Path" fill="#F2EFEF" fill-rule="nonzero" points="250.832167 411.63 250.832167 457.13 311.832167 459.63 311.832167 411.63"></polygon>
                    <path d="M188.392167,119.712 C252.176167,119.712 303.883167,94.418 303.883167,63.216 C303.883167,32.014 252.176167,6.72 188.392167,6.72 C124.609167,6.72 72.9021675,32.014 72.9021675,63.216 C72.9021675,94.418 124.609167,119.712 188.392167,119.712 Z" id="Path" fill="#2E2E2D" fill-rule="nonzero"></path>
                    <polygon id="Path" fill="#2E2E2D" fill-rule="nonzero" points="64.2461675 0 199.246167 0 185.832167 385.13 182.832167 420.76 106.332167 416.62 81.5581675 385.13"></polygon>
                    <polygon id="Path" fill="#2E2E2D" fill-rule="nonzero" points="197.832167 6.626 333.289167 6.626 333.289167 395.63 317.117167 418.35 238.617167 425.06 234.117167 395.63"></polygon>
                    <path d="M114.865167,446.06 C118.678167,434.62 111.157167,425.4 106.920167,422.22 C104.801167,425.19 102.153167,440.23 97.3861675,451.89 L84.9391675,466.98 L66.1361675,489.49 L42.8321675,500.61 L55.0141675,514.91 C63.3111675,508.56 111.051167,457.5 114.865167,446.06 Z" id="Path" fill="#3B3937" fill-rule="nonzero"></path>
                    <path d="M187.512167,524.7 C187.512167,524.7 188.190167,499.84 182.899167,486.07 C177.609167,472.3 172.158167,436.78 172.158167,436.78 C172.158167,436.78 162.772167,446.84 145.294167,446.84 C127.815167,446.84 109.277167,442.63 109.277167,442.63 C109.277167,442.63 76.8141675,485.51 68.3391675,490.81 C59.8641675,496.1 18.5517675,507.23 18.5517675,507.23 C9.48366749,507.23 2.13236749,514.58 2.13236749,523.64 L2.13236749,532 L101.707167,532 L187.512167,524.7 Z" id="Path" fill="#1C1B19" fill-rule="nonzero"></path>
                    <g id="Clipped" transform="translate(0.973167, 436.710000)">
                        <mask id="mask-2" fill="white">
                            <use xlink:href="#path-1"></use>
                        </mask>
                        <g id="Path"></g>
                        <circle id="Oval" fill="#D0CEC1" fill-rule="nonzero" mask="url(#mask-2)" transform="translate(16.524700, 96.470000) rotate(2.471290) translate(-16.524700, -96.470000) " cx="16.5247" cy="96.47" r="31"></circle>
                    </g>
                    <path d="M91.7867595,452.819168 C92.4156235,451.247898 94.1579455,450.455095 95.7426357,450.985218 L95.9179991,451.049592 L101.214999,453.169592 C102.844464,453.821747 103.636731,455.671366 102.984576,457.300832 C102.355711,458.872102 100.61339,459.664905 99.0286993,459.134782 L98.8533359,459.070408 L93.5563359,456.950408 C91.9268705,456.298253 91.1346042,454.448634 91.7867595,452.819168 Z" id="Path" fill="#ECECEC" fill-rule="nonzero"></path>
                    <path d="M84.8997595,462.359168 C85.5286235,460.787898 87.2709455,459.995095 88.8556357,460.525218 L89.0309991,460.589592 L94.3279991,462.709592 C95.9574645,463.361747 96.7497308,465.211366 96.0975755,466.840832 C95.4687115,468.412102 93.7263895,469.204905 92.1416993,468.674782 L91.9663359,468.610408 L86.6693359,466.490408 C85.0398705,465.838253 84.2476042,463.988634 84.8997595,462.359168 Z" id="Path" fill="#ECECEC" fill-rule="nonzero"></path>
                    <path d="M77.4847595,471.889168 C78.1136235,470.317898 79.8559455,469.525095 81.4406357,470.055218 L81.6159991,470.119592 L86.9129991,472.239592 C88.5424645,472.891747 89.3347308,474.741366 88.6825755,476.370832 C88.0537115,477.942102 86.3113895,478.734905 84.7266993,478.204782 L84.5513359,478.140408 L79.2543359,476.020408 C77.6248705,475.368253 76.8326042,473.518634 77.4847595,471.889168 Z" id="Path" fill="#ECECEC" fill-rule="nonzero"></path>
                    <path d="M67.9488407,481.433974 C68.5751454,479.861682 70.3161742,479.066043 71.9017255,479.593584 L72.0771935,479.657673 L77.3741935,481.767673 C79.0047186,482.417174 79.7999955,484.265501 79.1504943,485.896026 C78.5241896,487.468318 76.7831608,488.263957 75.1976095,487.736416 L75.0221415,487.672327 L69.7251415,485.562327 C68.0946164,484.912826 67.2993394,483.064499 67.9488407,481.433974 Z" id="Path" fill="#ECECEC" fill-rule="nonzero"></path>
                    <path d="M59.4767595,489.899168 C60.1056235,488.327898 61.8479455,487.535095 63.4326357,488.065218 L63.6079991,488.129592 L68.9049991,490.249592 C70.5344645,490.901747 71.3267308,492.751366 70.6745755,494.380832 C70.0457115,495.952102 68.3033895,496.744905 66.7186993,496.214782 L66.5433359,496.150408 L61.2463359,494.030408 C59.6168705,493.378253 58.8246042,491.528634 59.4767595,489.899168 Z" id="Path" fill="#ECECEC" fill-rule="nonzero"></path>
                    <path d="M188.487167,524.45 L94.7381675,528.69 L1.51876749,524.45 L0.0486674877,536.64 C-0.397432512,540.34 2.41926749,543.62 6.14296749,543.75 L92.7941675,546.69 L141.170167,547.22 L189.546167,545.63 L188.487167,524.45 Z" id="Path" fill="#D0CEC1" fill-rule="nonzero"></path>
                    <path d="M188.9405,534.512727 L189.091835,538.747273 L162.114401,539.766585 L154.169474,540.051065 C139.786002,540.551196 128.951826,540.836961 121.858672,540.866143 L120.189967,540.868079 L118.611071,540.860178 C105.236045,540.75872 78.4214556,539.761457 66.7798962,538.852231 L65.4234972,538.740649 L65.7908377,534.519351 L67.1505934,534.631086 C78.9959821,535.55437 106.830483,536.576076 119.681628,536.62921 L121.45435,536.630274 C127.436663,536.613415 136.259207,536.403267 147.772147,536.027382 L156.216912,535.739379 L188.9405,534.512727 Z" id="Path" fill="#1C1B19" fill-rule="nonzero"></path>
                    <path d="M68.2551675,545.64 L68.2551675,536.1 L68.2551675,532.39 L0.988367488,529.22 L0.0329674877,537.81 C-0.308432512,540.89 2.04386749,543.6 5.13426749,543.69 L68.2551675,545.64 Z" id="Path" fill="#ECEADF" fill-rule="nonzero"></path>
                    <ellipse id="Oval" fill="#DCE0E4" fill-rule="nonzero" transform="translate(150.350167, 482.610000) scale(-1, 1) translate(-150.350167, -482.610000) " cx="150.350167" cy="482.61" rx="19.0676017" ry="19.0675983"></ellipse>
                    <path d="M150.395167,468.58 C149.959167,467.82 148.838167,467.89 148.499167,468.7 L145.332167,476.24 C145.197167,476.56 144.913167,476.8 144.572167,476.87 L136.562167,478.54 C135.702167,478.71 135.421167,479.8 136.086167,480.38 L142.283167,485.72 C142.547167,485.95 142.682167,486.29 142.644167,486.64 L141.756167,494.77 C141.660167,495.64 142.607167,496.24 143.358167,495.79 L150.354167,491.55 C150.652167,491.37 151.020167,491.34 151.338167,491.49 L158.799167,494.85 C159.600167,495.21 160.466167,494.49 160.265167,493.64 L158.392167,485.67 C158.313167,485.33 158.405167,484.98 158.639167,484.72 L164.139167,478.66 C164.729167,478.01 164.317167,476.96 163.442167,476.89 L155.289167,476.21 C154.941167,476.18 154.630167,475.98 154.457167,475.68 L150.395167,468.58 Z" id="Path" fill="#5B568E" fill-rule="nonzero"></path>
                    <path d="M308.207167,446.06 C304.375167,434.62 311.933167,425.4 316.190167,422.23 C318.319167,425.19 320.980167,440.23 325.770167,451.89 L338.277167,466.98 L357.170167,489.49 L380.588167,500.61 L368.347167,514.92 C360.009167,508.56 312.039167,457.5 308.207167,446.06 Z" id="Path" fill="#3B3937" fill-rule="nonzero"></path>
                    <path d="M235.210167,524.7 C235.210167,524.7 234.528167,499.84 239.844167,486.07 C245.160167,472.3 250.637167,436.78 250.637167,436.78 C250.637167,436.78 260.068167,446.84 277.631167,446.84 C295.194167,446.84 313.821167,442.63 313.821167,442.63 C313.821167,442.63 346.441167,485.51 354.956167,490.81 C363.472167,496.1 404.984167,507.23 404.984167,507.23 C414.097167,507.23 421.482167,514.61 421.482167,523.72 L421.482167,532 L321.427167,532 L235.210167,524.7 Z" id="Path" fill="#1C1B19" fill-rule="nonzero"></path>
                    <g id="Clipped" transform="translate(234.973167, 436.710000)">
                        <mask id="mask-4" fill="white">
                            <use xlink:href="#path-3"></use>
                        </mask>
                        <g id="Path"></g>
                        <ellipse id="Oval" fill="#D0CEC1" fill-rule="nonzero" mask="url(#mask-4)" transform="translate(171.071000, 96.470000) scale(-1, 1) rotate(2.483126) translate(-171.071000, -96.470000) " cx="171.071" cy="96.47" rx="31.1491164" ry="31.00029"></ellipse>
                    </g>
                    <path d="M327.254312,451.047605 C328.884875,450.398198 330.733155,451.193582 331.382562,452.824145 C332.008776,454.396473 331.291556,456.171246 329.777502,456.878293 L329.606023,456.952395 L324.283023,459.072395 C322.65246,459.721802 320.80418,458.926418 320.154773,457.295855 C319.528559,455.723527 320.245779,453.948754 321.759833,453.241707 L321.931312,453.167605 L327.254312,451.047605 Z" id="Path" fill="#ECECEC" fill-rule="nonzero"></path>
                    <path d="M334.173312,460.587605 C335.803875,459.938198 337.652155,460.733582 338.301562,462.364145 C338.927776,463.936473 338.210556,465.711246 336.696502,466.418293 L336.525023,466.492395 L331.202023,468.612395 C329.57146,469.261802 327.72318,468.466418 327.073773,466.835855 C326.447559,465.263527 327.164779,463.488754 328.678833,462.781707 L328.850312,462.707605 L334.173312,460.587605 Z" id="Path" fill="#ECECEC" fill-rule="nonzero"></path>
                    <path d="M341.628312,470.117605 C343.258875,469.468198 345.107155,470.263582 345.756562,471.894145 C346.382776,473.466473 345.665556,475.241246 344.151502,475.948293 L343.980023,476.022395 L338.657023,478.142395 C337.02646,478.791802 335.17818,477.996418 334.528773,476.365855 C333.902559,474.793527 334.619779,473.018754 336.133833,472.311707 L336.305312,472.237605 L341.628312,470.117605 Z" id="Path" fill="#ECECEC" fill-rule="nonzero"></path>
                    <path d="M351.207914,479.655777 C352.839486,479.008911 354.686525,479.807174 355.333391,481.438746 C355.957154,483.012049 355.237169,484.785701 353.722016,485.490388 L353.550421,485.564223 L348.228421,487.674223 C346.596849,488.321089 344.74981,487.522826 344.102944,485.891254 C343.479181,484.317951 344.199166,482.544299 345.714319,481.839612 L345.885914,481.765777 L351.207914,479.655777 Z" id="Path" fill="#ECECEC" fill-rule="nonzero"></path>
                    <path d="M359.725312,488.127605 C361.355875,487.478198 363.204155,488.273582 363.853562,489.904145 C364.479776,491.476473 363.762556,493.251246 362.248502,493.958293 L362.077023,494.032395 L356.754023,496.152395 C355.12346,496.801802 353.27518,496.006418 352.625773,494.375855 C351.999559,492.803527 352.716779,491.028754 354.230833,490.321707 L354.402312,490.247605 L359.725312,488.127605 Z" id="Path" fill="#ECECEC" fill-rule="nonzero"></path>
                    <path d="M234.228167,524.45 L328.429167,528.69 L422.098167,524.45 L423.574167,536.63 C424.023167,540.33 421.204167,543.62 417.478167,543.75 L330.383167,546.69 L281.773167,547.22 L233.164167,545.63 L234.228167,524.45 Z" id="Path" fill="#D0CEC1" fill-rule="nonzero"></path>
                    <path d="M233.621865,538.747286 L233.77247,534.512714 L260.884217,535.532162 L268.85789,535.816304 C284.081515,536.343116 295.336695,536.631375 302.352167,536.631375 L304.417351,536.623012 C317.932162,536.520864 345.32799,535.501621 356.637252,534.592709 L357.518376,534.519275 L357.883959,538.740725 L356.502544,538.85374 C344.313828,539.799913 315.633965,540.84085 302.854778,540.868079 L300.770702,540.864218 C294.18778,540.829031 284.524099,540.584033 271.922793,540.160582 L263.087592,539.852182 L233.621865,538.747286 Z" id="Path" fill="#1C1B19" fill-rule="nonzero"></path>
                    <path d="M355.043167,545.64 L355.043167,536.1 L355.043167,532.39 L422.634167,529.22 L423.593167,537.81 C423.936167,540.88 421.583167,543.6 418.491167,543.69 L355.043167,545.64 Z" id="Path" fill="#ECEADF" fill-rule="nonzero"></path>
                    <ellipse id="Oval" fill="#DCE0E4" fill-rule="nonzero" cx="272.549167" cy="482.61" rx="19.1595" ry="19.0676"></ellipse>
                    <path d="M272.508167,468.57 C272.945167,467.81 274.062167,467.88 274.403167,468.68 L277.590167,476.24 C277.725167,476.56 278.009167,476.8 278.350167,476.87 L286.404167,478.54 C287.265167,478.71 287.546167,479.8 286.878167,480.38 L280.654167,485.72 C280.389167,485.95 280.253167,486.29 280.291167,486.64 L281.183167,494.77 C281.279167,495.64 280.334167,496.25 279.583167,495.8 L272.539167,491.54 C272.242167,491.37 271.876167,491.34 271.559167,491.49 L264.047167,494.85 C263.246167,495.21 262.382167,494.49 262.583167,493.64 L264.466167,485.67 C264.546167,485.33 264.453167,484.98 264.218167,484.72 L258.694167,478.66 C258.102167,478.01 258.514167,476.96 259.390167,476.89 L267.588167,476.21 C267.935167,476.18 268.246167,475.99 268.420167,475.68 L272.508167,468.57 Z" id="Path" fill="#5B568E" fill-rule="nonzero"></path>
                </g>
                <g id="upper-limb" transform="translate(0.000000, 301.999985)">
                    <path d="M255.859,195 C319.372,195 380.859,171.495 380.859,142.5 C380.859,0 319.372,0 255.859,0 C192.346,0 130.859,0 130.859,142.5 C130.859,171.495 192.346,195 255.859,195 Z" id="Path" fill="#2D2427" fill-rule="nonzero"></path>
                    <path d="M59.6132033,296.466529 C68.908416,278.268472 91.1961146,271.051291 109.394171,280.346503 C127.592228,289.641716 134.809409,311.929415 125.514197,330.127471 C112.497531,355.611345 98.7480986,407.240105 91.7039089,456.930845 L91.382849,459.228567 C88.1775424,482.508012 86.7679309,503.291927 87.3559117,518.521529 C87.5632809,523.892709 88.0131123,528.262298 88.5857281,531.355438 L88.711,532.004 L88.7427656,532.039357 C99.2499072,544.067892 101.063578,561.986537 92.1555726,576.105238 L91.8248827,576.620063 C80.6421864,593.723207 57.7119818,598.522679 40.6088372,587.339983 C28.3864511,579.348515 21.7046473,567.668667 17.7804658,553.411212 C15.2456265,544.201556 13.8816065,533.565784 13.4110008,521.376377 C12.6114184,500.665972 14.4316248,474.794963 18.4364411,446.544405 C26.5303164,389.449028 42.2288692,330.501371 59.6132033,296.466529 Z" id="Path" fill="#EBBAAA" fill-rule="nonzero"></path>
                    <path d="M389.401991,256.332867 C407.199993,246.292878 429.767144,252.58199 439.807133,270.379991 C463.504497,312.388576 480.996384,371.742319 490.02569,433.777231 C498.623847,492.849983 498.447389,546.27206 487.631267,576.01574 C480.64777,595.219932 459.418453,605.126764 440.21426,598.143267 C421.202109,591.229605 411.302302,570.353615 417.882287,551.302977 L418.086733,550.72626 C423.619265,535.512131 423.762044,492.286256 416.79731,444.435769 C408.974658,390.691044 393.945476,339.693791 375.354867,306.738009 C365.314878,288.940007 371.60399,266.372856 389.401991,256.332867 Z" id="Path" fill="#EBBAAA" fill-rule="nonzero"></path>
                    <path d="M431.359,198 C422.159,188.8 391.859,179.5 377.859,176 C386.692,294 405.159,533 408.359,545 C412.359,560 499.859,566 507.859,560 C515.859,554 524.859,497.5 522.859,466.5 C520.859,435.5 442.859,209.5 431.359,198 Z" id="Path" fill="#F2EEE2" fill-rule="nonzero"></path>
                    <path d="M86.777,196.983 C95.3892,187.79 123.753,178.497 136.859,175 C128.59,292.909 111.303,531.723 108.307,543.714 C104.563,558.703 22.6537,564.698 15.1648,558.703 C7.67595,552.707 -0.749008,496.251 1.1232,465.275 C2.99542,434.299 76.0118,208.474 86.777,196.983 Z" id="Path" fill="#F2EEE2" fill-rule="nonzero"></path>
                    <g id="Clipped" transform="translate(0.000000, 174.084000)">
                        <mask id="mask-6" fill="white">
                            <use xlink:href="#path-5"></use>
                        </mask>
                        <g id="Path"></g>
                        <g id="Group" mask="url(#mask-6)" fill="#000000" fill-rule="nonzero">
                            <g transform="translate(-27.000000, 75.000000)" id="Path">
                                <path d="M46.1899494,73.0288571 L62.5276506,52.8031429 L62.7144307,52.9473483 C63.2126699,53.3186242 64.1415761,53.9279841 65.3695337,54.6601045 L65.6371968,54.8188244 C67.5069989,55.9216613 69.8160919,57.1659158 72.4137176,58.459482 C78.4329978,61.4569646 85.4527723,64.4565766 92.7130242,67.0548003 C110.393888,73.3822449 127.314195,76.6220628 140.788301,75.6289884 L141.470442,75.5748396 L143.675558,101.48116 C126.053364,102.981142 105.790759,99.2376597 84.9608345,91.8926569 L83.9525008,91.5344497 C68.1953538,85.8954451 52.8817157,78.3002192 46.4561395,73.2411009 L46.1899494,73.0288571 Z"></path>
                                <path d="M50.928997,117.587921 C50.9032633,117.523587 50.963888,117.627243 51.1434751,117.863669 C51.4905934,118.320649 52.0083048,118.879786 52.6934448,119.511036 C54.3539902,121.040971 56.7328485,122.753293 59.7234852,124.531643 C66.0603105,128.299767 74.6353073,132.070821 84.3243153,135.336169 C104.347738,142.084375 126.105517,145.72187 140.825619,144.626252 L141.470442,144.57484 L143.675558,170.48116 C124.949771,172.075078 99.4496587,167.870478 76.0207847,159.974581 L74.4985587,159.455846 C50.0277005,151.023566 32.3108139,140.358299 26.9504418,127.638141 L26.788603,127.244079 L50.928997,117.587921 Z"></path>
                                <path d="M29.29443,180.663788 C33.1868395,185.90357 52.1434232,195.158813 75.7823273,202.509455 L76.5000803,202.731613 C101.503565,210.434763 126.773857,214.725622 141.484029,213.613901 L141.970442,213.57484 L144.175558,239.48116 C125.566551,241.065138 97.0341999,236.263757 68.8449797,227.579137 L67.097888,227.036011 C38.9812206,218.215996 17.1209231,207.492289 8.67986708,196.508013 L8.42308998,196.168212 L29.29443,180.663788 Z"></path>
                                <path d="M18.1764487,239.863562 C28.2957554,249.204475 49.5124871,258.203187 75.5777688,264.450973 C99.4908023,270.18287 124.657947,272.879081 140.836506,271.626343 L141.470442,271.57484 L143.675558,297.48116 C124.452177,299.117433 96.2518067,296.142974 69.5173012,289.734777 L67.6481526,289.280777 C38.7824055,282.176617 14.8842951,271.954598 0.986008367,259.375047 L0.54115134,258.968438 L18.1764487,239.863562 Z"></path>
                                <path d="M76.0276506,-9.19685714 C79.7395278,-6.19851854 88.9421918,-1.48140368 99.2217699,1.9711264 C112.744981,6.51307284 126.908072,8.6662482 140.561014,7.64746616 L141.470442,7.57483957 L143.675558,33.4811604 C125.928247,34.9917914 107.943464,32.3276971 90.9437551,26.6181236 C78.1597488,22.3244487 66.4483594,16.3617501 60.0345162,11.3038309 L59.6899494,11.0288571 L76.0276506,-9.19685714 Z"></path>
                            </g>
                        </g>
                    </g>
                    <g id="Clipped" transform="translate(377.000000, 175.084000)">
                        <mask id="mask-8" fill="white">
                            <use xlink:href="#path-7"></use>
                        </mask>
                        <g id="Path"></g>
                        <g id="Group" mask="url(#mask-8)" fill="#000000" fill-rule="nonzero">
                            <g transform="translate(17.000000, 74.000000)" id="Path">
                                <path d="M85.6902105,51.8030935 L102.02779,72.0289065 C95.7978424,77.0612013 79.2705218,85.0724566 62.3178568,91.0539156 C40.3645408,98.7997692 19.3262689,102.879214 1.58654741,101.54755 L0.757422988,101.481159 L2.96257701,75.5748412 C16.528646,76.7295893 34.5409158,73.2836096 53.6668932,66.5353344 C61.4098744,63.8033554 68.9305065,60.6600064 75.3371324,57.5545353 L76.5094781,56.9803902 C78.8126951,55.840552 80.8611256,54.7549095 82.5478493,53.7861692 L83.0670174,53.4848876 C84.3194134,52.7503464 85.2232464,52.1619928 85.6180783,51.8596971 L85.6902105,51.8030935 Z"></path>
                                <path d="M106.19735,108.977639 L127.52065,123.854361 C109.899393,149.111496 41.9243063,173.377842 1.95981366,170.574424 L0.757422988,170.481159 L2.96257701,144.574841 C33.9567803,147.213078 93.1503492,126.38339 105.827509,109.488377 L106.19735,108.977639 Z"></path>
                                <path d="M127.391401,175.436619 L149.326599,189.395381 C142.099627,200.752053 117.380308,212.884488 84.4001076,223.800355 L83.3981885,224.130764 C51.2747017,234.685828 20.0048085,240.939833 1.31977201,239.526342 L0.757422988,239.481159 L2.96257701,213.574841 C17.1887654,214.785779 45.9188807,209.078074 75.2820615,199.429986 C89.1445849,194.875068 101.996191,189.805947 111.841447,185.005013 L113.088793,184.390138 C117.385303,182.248715 120.950295,180.222113 123.629722,178.407498 C124.837229,177.589726 125.819795,176.844917 126.555291,176.204361 L126.768505,176.015354 C127.1896,175.635068 127.400397,175.405483 127.397493,175.425035 L127.391401,175.436619 Z"></path>
                                <path d="M133.769281,243.028837 L134.17341,242.668106 C134.283949,242.565906 134.334015,242.517909 134.32671,242.537416 L134.318291,242.552856 L156.399709,256.279144 C148.397942,269.151552 122.583954,279.231506 85.3502356,287.706184 L83.4214158,288.140855 C52.2111026,295.104325 19.7608535,298.962553 1.32317591,297.52724 L0.757422988,297.481159 L2.96257701,271.574841 C18.4543857,272.893509 49.8527338,269.120721 79.5800144,262.354566 C94.6088677,258.933885 108.092966,255.001549 118.295188,251.017742 C123.421783,249.015888 127.592934,247.049189 130.622451,245.223838 C131.970118,244.41184 133.027583,243.665688 133.769281,243.028837 Z"></path>
                                <path d="M67.6384749,-9.15489701 L84.0795251,10.986897 C77.7935571,16.1179155 65.9848589,22.2355113 53.0736786,26.6185185 C36.5192736,32.238305 19.0207763,34.9165718 1.72360229,33.5810486 L0.744739674,33.501159 L2.97326033,7.59684096 C16.7338897,8.78065311 31.0532039,6.63658196 44.7158214,1.99848148 C54.6924071,-1.38830781 63.6428822,-5.99278313 67.4332347,-8.99005343 L67.6384749,-9.15489701 Z"></path>
                            </g>
                        </g>
                    </g>
                    <path d="M254.958,209.641 C248.201,185.93 236.997,157.007 226.859,162.374 C223.877,163.953 222.196,182.091 221.392,210.363 L216.859,211.874 L216.859,160 C186.859,160 157.359,166.874 134.859,176.874 C113.61,186.318 112.53,213.398 111.018,251.312 C110.62,261.29 110.192,272.019 109.359,283.374 L103.859,581.874 L177.859,593.374 L226.858,593.869 C226.858,593.874 226.858,593.874 226.858,593.874 L227.359,593.874 L373.358,593.874 L411.358,583.374 L404.358,271.874 C404.358,271.874 395.358,184.374 380.358,176.374 C365.358,168.374 285.859,159 285.859,159 L289.858,204.374 L256.858,208.374 L254.958,209.641 Z" id="Path" fill="#FDF9EF"></path>
                    <g id="Clipped" transform="translate(103.000000, 158.084000)">
                        <mask id="mask-10" fill="white">
                            <use xlink:href="#path-9"></use>
                        </mask>
                        <g id="Path"></g>
                        <g id="Group" mask="url(#mask-10)" fill="#000000" fill-rule="nonzero">
                            <g transform="translate(-6.000000, 37.000000)" id="Path">
                                <path d="M165.011401,50.0458945 C232.631701,49.3269936 295.402215,51.5508873 316.847952,55.7782953 L317.498006,55.9096776 L312.219994,81.3683224 C293.733278,77.5357104 230.299006,75.2957812 163.180153,76.0678078 L161.145163,76.092126 C88.0359438,76.9985436 28.5235285,81.2080547 9.64659803,87.3776815 L9.08703587,87.5652385 L0.630964133,62.9787615 C22.4230842,55.483758 82.3947902,51.1388701 158.511355,50.1238624 L165.011401,50.0458945 Z"></path>
                                <path d="M165.011401,112.045895 C232.631701,111.326994 295.402215,113.550887 316.847952,117.778295 L317.498006,117.909678 L312.219994,143.368322 C293.733278,139.53571 230.299006,137.295781 163.180153,138.067808 L161.145163,138.092126 C88.0359438,138.998544 28.5235285,143.208055 9.64659803,149.377682 L9.08703587,149.565238 L0.630964133,124.978762 C22.4230842,117.483758 82.3947902,113.13887 158.511355,112.123862 L165.011401,112.045895 Z"></path>
                                <path d="M165.011401,183.045895 C232.631701,182.326994 295.402215,184.550887 316.847952,188.778295 L317.498006,188.909678 L312.219994,214.368322 C293.733278,210.53571 230.299006,208.295781 163.180153,209.067808 L161.145163,209.092126 C88.0359438,209.998544 28.5235285,214.208055 9.64659803,220.377682 L9.08703587,220.565238 L0.630964133,195.978762 C22.4230842,188.483758 82.3947902,184.13887 158.511355,183.123862 L165.011401,183.045895 Z"></path>
                                <path d="M311.899664,246.787502 L315.818336,272.490498 L314.367635,272.705055 C290.113343,276.189394 227.273266,280.414032 166.070469,282.548442 L164.178166,282.613785 C88.7932725,285.190934 29.4466654,284.350004 2.16017633,279.18313 L1.34314286,279.025233 L6.37485714,253.516767 C30.0836496,258.193484 86.9787691,259.121593 158.869763,256.77662 L163.289834,256.628965 C224.142856,254.548611 287.261935,250.32416 310.525519,246.990467 L311.899664,246.787502 Z"></path>
                                <path d="M311.899375,310.064546 L315.818625,335.767454 L314.367981,335.982034 C289.864595,339.502664 225.975947,343.778633 164.178166,345.891285 L159.62922,346.043281 C86.4096192,348.432657 28.8957229,347.52321 2.16039586,342.461159 L1.34336015,342.303276 L6.37463985,316.794724 C30.0837073,321.471075 86.9796801,322.399066 158.869817,320.054119 L163.289834,319.906465 C224.145091,317.826034 287.262951,313.601522 310.525306,310.26753 L311.899375,310.064546 Z"></path>
                                <path d="M165.011401,-11.9541055 C232.631701,-12.6730064 295.402215,-10.4491127 316.847952,-6.22170473 L317.498006,-6.09032237 L312.219994,19.3683224 C293.733278,15.5357104 230.299006,13.2957812 163.180153,14.0678078 L161.145163,14.092126 C88.0359438,14.9985436 28.5235285,19.2080547 9.64659803,25.3776815 L9.08703587,25.5652385 L0.630964133,0.978761505 C22.4230842,-6.51624198 82.3947902,-10.8611299 158.511355,-11.8761376 L165.011401,-11.9541055 Z"></path>
                            </g>
                        </g>
                    </g>
                    <path d="M199.859,179.623 C199.859,169.338 208.197,161 218.482,161 L293.597,161 C303.882,161 312.22,169.338 312.22,179.623 C312.22,206.754 290.226,228.747 263.096,228.747 L248.983,228.747 C221.852,228.747 199.859,206.754 199.859,179.623 Z" id="Path" stroke="#E2DBD0" stroke-width="20" fill="#EBBAAA" fill-rule="nonzero"></path>
                    <path d="M199.859,179.623 C199.859,169.338 208.197,161 218.482,161 L293.597,161 C303.882,161 312.22,169.338 312.22,179.623 C312.22,206.754 290.226,228.747 263.096,228.747 L248.983,228.747 C221.852,228.747 199.859,206.754 199.859,179.623 Z" id="Path" fill="#EBBAAA" fill-rule="nonzero"></path>
                    <path d="M200.359,179.623 C200.359,169.338 208.697,161 218.982,161 L294.097,161 C304.382,161 312.72,169.338 312.72,179.623 C312.72,206.754 290.726,228.747 263.596,228.747 L249.483,228.747 C222.352,228.747 200.359,206.754 200.359,179.623 Z" id="Path" stroke="#E2DBD0" stroke-width="20" fill="#EBBAAA" fill-rule="nonzero"></path>
                    <path d="M258.285,46 C279.223,46 296.196,62.973 296.196,83.911 L296.196,160.84 L296.193641,161.116718 C305.49168,162.158531 312.72,170.046826 312.72,179.623 C312.72,206.754 290.726,228.747 263.596,228.747 L249.483,228.747 C222.352,228.747 200.359,206.754 200.359,179.623 C200.359,170.047168 207.586803,162.159096 216.88436,161.11683 L216.882,160.84 L216.882,160.84 L216.882,83.911 C216.882,62.973 233.856,46 254.793,46 L258.285,46 Z" id="Path" fill="#EBBAAA" fill-rule="nonzero"></path>
                </g>
                <g id="head" transform="translate(66.358750, 0.000000)">
                    <path d="M150.02325,385.910985 C150.02325,364.972985 166.99725,347.999985 187.93425,347.999985 L191.42625,347.999985 C212.36425,347.999985 229.33725,364.972985 229.33725,385.910985 L229.33725,462.839985 C229.33725,484.741985 211.58225,502.496985 189.68025,502.496985 C167.77825,502.496985 150.02325,484.741985 150.02325,462.839985 L150.02325,385.910985 Z" id="Path" fill="#EBBAAA" fill-rule="nonzero"></path>
                    <path d="M139.50025,354.999985 C144.81925,361.684985 159.92525,374.999985 188.43625,374.999985 C216.94725,374.999985 235.24425,361.684985 239.50025,354.999985" id="Path" stroke="#C99584" stroke-width="10" stroke-linecap="round"></path>
                    <circle id="Oval" fill="#F2CACA" fill-rule="nonzero" cx="94.5002504" cy="311.999985" r="30"></circle>
                    <path d="M99.5002504,241.999985 L129.50025,241.999985" id="Path" stroke="#000000" stroke-width="10" stroke-linecap="round"></path>
                    <path d="M249.50025,241.999985 L279.50025,241.999985" id="Path" stroke="#000000" stroke-width="10" stroke-linecap="round"></path>
                    <path d="M249.50025,240.999985 L249.50025,270.999985" id="Path" stroke="#000000" stroke-width="24" stroke-linecap="round"></path>
                    <path d="M129.50425,240.999985 L129.50425,270.999985" id="Path" stroke="#000000" stroke-width="24" stroke-linecap="round"></path>
                    <path d="M232.50025,197.999985 L289.50025,200.999985" id="Path" stroke="#271E1E" stroke-width="12" stroke-linecap="round"></path>
                    <path d="M146.50025,197.999985 L89.5002504,200.999985" id="Path" stroke="#271E1E" stroke-width="12" stroke-linecap="round"></path>
                    <circle id="Oval" fill="#F2CACA" fill-rule="nonzero" cx="284.50025" cy="311.999985" r="30"></circle>
                    <path d="M189.50025,265.999985 C179.50025,280.999985 169.50025,315.999985 199.50025,315.999985" id="Path" stroke="#EBBAAA" stroke-width="17"></path>
                    <path d="M288.85225,204.471985 C268.89225,191.282985 231.30125,137.028985 215.00025,111.550985 C309.31125,87.0721847 348.73325,157.011985 356.71725,204.471985 C364.70125,251.930985 365.50525,261.413985 366.00025,268.999985 C367.50025,291.999985 369.69125,305.499985 369.69125,322.878985 C371.35425,391.153985 389.77825,516.300985 369.69125,526.195985 C343.32325,539.184985 268.47225,540.183985 280.94725,505.213985 C293.42225,470.243985 330.26925,248.433985 326.27725,236.943985 C322.28525,225.453985 313.80225,220.957985 288.85225,204.471985 Z" id="Path" fill="#2D2427" fill-rule="nonzero"></path>
                    <path d="M189.38725,9.99999578 C189.45825,9.99999578 189.31525,9.99999578 189.38725,9.99999578 C234.19125,9.99999578 311.28325,32.6842847 339.59825,91.0004847 C354.53925,121.772985 352.15325,143.541985 349.61225,180.999985 C318.53325,141.473985 234.07325,114.999985 189.38625,114.999985 C132.95625,114.999985 73.3742504,146.839985 29.1611504,180.999985 C27.1365504,143.362985 24.2339504,121.772985 39.1752504,91.0004847 C67.4902504,32.6842847 143.41525,9.99999578 189.38725,9.99999578 Z" id="Path" fill="#614D4E"></path>
                    <path d="M189.48725,5.32907052e-15 C189.49525,5.32907052e-15 189.47925,5.32907052e-15 189.48725,5.32907052e-15 C194.46525,5.32907052e-15 203.03125,2.52047467 206.17725,9.00005467 C207.83725,12.4192847 207.57225,14.8379847 207.29025,18.9999847 C203.83725,14.6081847 194.45225,11.6666847 189.48725,11.6666847 C183.21725,11.6666847 176.59725,15.2044847 171.68425,18.9999847 C171.45925,14.8180847 171.13725,12.4192847 172.79725,9.00005467 C175.94325,2.52047467 184.37925,5.32907052e-15 189.48725,5.32907052e-15 Z" id="Path" fill="#272727"></path>
                    <path d="M90.1472504,207.471985 C110.10725,194.282985 147.69925,140.028985 164.00025,114.550985 C69.6882504,90.0721847 30.2671504,160.011985 22.2831504,207.471985 C14.2990504,254.930985 14.5000504,257.499985 12.0000504,279.999985 C11.3284504,286.043985 9.85425035,303.499985 9.30905035,325.878985 C7.64565035,394.153985 -10.7784496,519.300985 9.30905035,529.195985 C35.6772504,542.184985 110.52725,543.183985 98.0522504,508.213985 C85.5772504,473.243985 48.7302504,251.433985 52.7222504,239.943985 C56.7142504,228.453985 65.1972504,223.957985 90.1472504,207.471985 Z" id="Path" fill="#2D2427" fill-rule="nonzero"></path>
                    <path d="M189.43125,90.0000402 C189.49825,90.0000402 189.36425,90.0000402 189.43125,90.0000402 C249.81325,90.0000402 346.79325,115.290985 339.06525,200.999985 C310.04025,173.231985 231.16425,156.740985 189.43125,156.740985 C136.73125,156.740985 81.0882504,177.001985 39.7972504,200.999985 C33.5179504,113.183985 128.00325,90.0000402 189.43125,90.0000402 Z" id="Path" fill="#413F3F"></path>
                    <path d="M40.0002504,204.999985 C40.0002504,122.156985 107.15725,54.9999847 190.00025,54.9999847 C272.84225,54.9999847 340.00025,122.156985 340.00025,204.999985 L340.00025,273.373985 L337.13425,312.984985 C332.56825,376.089985 287.71925,429.478985 226.52625,445.558985 C204.30825,451.396985 180.80025,451.899985 158.37625,446.916985 C100.28025,434.006985 56.0822504,386.734985 47.1022504,327.903985 L42.0022504,294.493985 C40.6692504,285.763985 40.0002504,276.944985 40.0002504,268.113985 L40.0002504,204.999985 Z" id="Path" fill="#F4D5CC" fill-rule="nonzero"></path>
                    <path d="M222.826233,364.608584 C224.699252,362.57948 227.862547,362.452949 229.891651,364.325967 C231.920755,366.198986 232.047286,369.362281 230.174268,371.391385 C223.369614,378.763093 205.463558,384.499985 192.00025,384.499985 C177.748252,384.499985 167.268504,381.046431 154.610164,372.080107 C152.356774,370.483956 151.823977,367.363287 153.420128,365.109898 C155.016279,362.856509 158.136948,362.323711 160.390337,363.919862 C171.386997,371.709163 179.855697,374.499985 192.00025,374.499985 C202.781148,374.499985 217.798292,369.735983 222.630811,364.813756 L222.826233,364.608584 Z" id="Path" fill="#C99584" fill-rule="nonzero"></path>
                    <path d="M100.00025,241.999985 L130.00025,241.999985" id="Path" stroke="#000000" stroke-width="10" stroke-linecap="round"></path>
                    <path d="M250.00025,241.999985 L280.00025,241.999985" id="Path" stroke="#000000" stroke-width="10" stroke-linecap="round"></path>
                    <path d="M250.00025,240.999985 L250.00025,270.999985" id="Path" stroke="#000000" stroke-width="24" stroke-linecap="round"></path>
                    <path d="M130.00425,240.999985 L130.00425,270.999985" id="Path" stroke="#000000" stroke-width="24" stroke-linecap="round"></path>
                    <path d="M233.50025,205.999985 L290.00125,205.999985" id="Path" stroke="#271E1E" stroke-width="12" stroke-linecap="round"></path>
                    <path d="M146.50025,205.999985 L89.5022504,205.999985" id="Path" stroke="#271E1E" stroke-width="12" stroke-linecap="round"></path>
                    <path d="M182.927823,261.285033 L197.072678,270.714936 C192.265255,277.926071 188.50025,288.750459 188.50025,296.624985 C188.50025,304.218004 191.242245,307.409692 199.637006,307.498092 L200.00025,307.499985 L200.00025,324.499985 C181.457131,324.499985 171.50025,313.298494 171.50025,296.624985 C171.50025,285.329876 176.199186,271.618739 182.578227,261.815824 L182.927823,261.285033 Z" id="Path" fill="#EBBAAA" fill-rule="nonzero"></path>
                    <path d="M281.35225,207.471985 C261.39225,194.282985 223.80125,140.028985 207.50025,114.550985 C301.81125,90.0721847 341.23325,160.011985 349.21725,207.471985 C357.20125,254.930985 358.00525,264.413985 358.50025,271.999985 C360.00025,294.999985 362.19125,308.499985 362.19125,325.878985 C363.85425,394.153985 382.27825,519.300985 362.19125,529.195985 C335.82325,542.184985 232.28425,545.596985 263.50025,511.499985 C281.35225,491.999985 293.90625,448.321985 303.00025,396.499985 C315.32125,326.286985 321.07425,246.554985 318.77725,239.943985 C314.78525,228.453985 306.30225,223.957985 281.35225,207.471985 Z" id="Path" fill="#2D2427" fill-rule="nonzero"></path>
                    <path d="M105.64725,207.471985 C125.60725,194.282985 163.19925,140.028985 179.50025,114.550985 C85.1882504,90.0721847 45.7672504,160.011985 37.7832504,207.471985 C29.7990504,254.930985 30.0000504,257.499985 27.5000504,279.999985 C26.8284504,286.043985 25.3542504,303.499985 24.8090504,325.878985 C23.1457504,394.153985 4.72155035,519.300985 24.8090504,529.195985 C51.1772504,542.184985 147.46825,540.770985 124.00025,511.999985 C105.64725,489.499985 92.2482504,451.343985 82.5002504,394.499985 C71.1812504,328.499985 66.0772504,246.116985 68.2222504,239.943985 C72.2142504,228.453985 80.6972504,223.957985 105.64725,207.471985 Z" id="Path" fill="#2D2427" fill-rule="nonzero"></path>
                    <path d="M189.98725,5.32907052e-15 C189.99525,5.32907052e-15 189.97925,5.32907052e-15 189.98725,5.32907052e-15 C194.96525,5.32907052e-15 203.53125,2.52047467 206.67725,9.00005467 C208.33725,12.4192847 208.07225,14.8379847 207.79025,18.9999847 C204.33725,14.6081847 194.95225,11.6666847 189.98725,11.6666847 C183.71725,11.6666847 177.09725,15.2044847 172.18425,18.9999847 C171.95925,14.8180847 171.63725,12.4192847 173.29725,9.00005467 C176.44325,2.52047467 184.87925,5.32907052e-15 189.98725,5.32907052e-15 Z" id="Path" fill="#272727"></path>
                    <path d="M190.38725,9.99999578 C190.45825,9.99999578 190.31525,9.99999578 190.38725,9.99999578 C235.19125,9.99999578 312.28325,32.6842847 340.59825,91.0004847 C355.53925,121.772985 353.15325,143.541985 350.61225,180.999985 C319.53325,141.473985 235.07325,114.999985 190.38625,114.999985 C133.95625,114.999985 74.3742504,146.839985 30.1611504,180.999985 C28.1365504,143.362985 25.2339504,121.772985 40.1752504,91.0004847 C68.4902504,32.6842847 144.41525,9.99999578 190.38725,9.99999578 Z" id="Path" fill="#614D4E"></path>
                    <g id="Clipped" transform="translate(27.641250, 9.083985)">
                        <mask id="mask-12" fill="white">
                            <use xlink:href="#path-11"></use>
                        </mask>
                        <g id="Path"></g>
                    </g>
                    <path d="M190.43125,90.0000402 C190.49825,90.0000402 190.36425,90.0000402 190.43125,90.0000402 C250.81325,90.0000402 347.79325,115.290985 340.06525,200.999985 C311.04025,173.231985 232.16425,156.740985 190.43125,156.740985 C137.73125,156.740985 82.0882504,177.001985 40.7972504,200.999985 C34.5182504,113.183985 129.00325,90.0000402 190.43125,90.0000402 Z" id="Path" fill="#715E5F"></path>
                    <g id="Clipped" transform="translate(39.641250, 89.083985)">
                        <mask id="mask-14" fill="white">
                            <use xlink:href="#path-13"></use>
                        </mask>
                        <g id="Path"></g>
                    </g>
                    <g id="Group-2" transform="translate(100.641250, 29.083985)">
                        <polygon id="Path" fill="#FFFFFF" fill-rule="nonzero" points="38.0200514 10.5645 32.0011835 10.5645 29.3565294 24.1909045 18.9147055 24.1909045 21.5593596 10.5645 15.5404917 10.5645 9.0200514 43.5645 15.0389193 43.5645 17.8203659 29.567309 28.2621898 29.567309 25.4807432 43.5645 31.4996112 43.5645"></polygon>
                        <path d="M64.0200514,43.5645 L59.1036634,10.5645 L54.1872755,10.5645 L36.0200514,43.5645 L42.6220581,43.5645 L45.7591818,37.5392191 L57.0434628,37.5392191 L57.7458039,43.5645 L64.0200514,43.5645 Z M56.5752354,32.5336011 L48.2876099,32.5336011 L54.9832621,19.8341629 L56.5752354,32.5336011 Z" id="Shape" fill="#FFFFFF" fill-rule="nonzero"></path>
                        <path d="M94.0200514,19.2779831 C94.0200514,14.1333202 90.8002899,10.5645 85.2347022,10.5645 L73.5975642,10.5645 L67.0200514,43.5645 L73.0916017,43.5645 L75.6214143,30.7723652 L81.9229475,30.7723652 C89.7883649,30.7723652 94.0200514,25.1642191 94.0200514,19.2779831 Z M87.9025046,19.7878146 C87.9025046,22.2906236 86.1086374,25.3496124 82.1529305,25.3496124 L76.7253325,25.3496124 L78.6111928,15.9872528 L84.2227771,15.9872528 C86.9365761,15.9872528 87.9025046,17.7021404 87.9025046,19.7878146 Z" id="Shape" fill="#FFFFFF" fill-rule="nonzero"></path>
                        <path d="M122.020051,19.2779831 C122.020051,14.1333202 118.80029,10.5645 113.234702,10.5645 L101.597564,10.5645 L95.0200514,43.5645 L101.091602,43.5645 L103.621414,30.7723652 L109.922947,30.7723652 C117.788365,30.7723652 122.020051,25.1642191 122.020051,19.2779831 Z M115.902505,19.7878146 C115.902505,22.2906236 114.108637,25.3496124 110.15293,25.3496124 L104.725332,25.3496124 L106.611193,15.9872528 L112.222777,15.9872528 C114.936576,15.9872528 115.902505,17.7021404 115.902505,19.7878146 Z" id="Shape" fill="#FFFFFF" fill-rule="nonzero"></path>
                        <polygon id="Path" fill="#FFFFFF" fill-rule="nonzero" points="150.020051 10.5645 143.33507 10.5645 134.910161 24.2372528 131.430308 10.5645 125.020051 10.5645 130.926645 30.0307921 128.22518 43.5645 134.269136 43.5645 136.924813 30.2625337"></polygon>
                        <path d="M163.020051,10.5645 L155.760927,10.5645 L152.62954,33.1798846 L157.041949,33.1798846 L163.020051,10.5645 Z M157.089394,40.1491154 C157.089394,38.2568077 155.476256,36.6414231 153.531,36.6414231 C151.585745,36.6414231 150.020051,38.2568077 150.020051,40.1491154 C150.020051,42.0414231 151.585745,43.5645 153.531,43.5645 C155.476256,43.5645 157.089394,42.0414231 157.089394,40.1491154 Z" id="Shape" fill="#FFFFFF" fill-rule="nonzero"></path>
                        <path d="M46.2635902,4.59904709 C47.9769107,2.09010538 50.814345,0.5645 53.8747537,0.5645 L58.7270437,0.5645 C61.8833429,0.5645 64.7115348,2.1721861 66.3844195,4.66771973 C68.0619255,2.16484081 70.895894,0.5645 74.0417953,0.5645 L85.7335037,0.5645 C89.0931369,0.5645 92.4215768,1.34181839 95.3329508,3.05140583 C96.9954378,1.49688565 99.2147829,0.5645 101.616666,0.5645 L113.308375,0.5645 C115.808459,0.5645 118.293525,0.995423767 120.600674,1.92116368 C122.028633,1.04532511 123.685344,0.5645 125.400975,0.5645 L131.870695,0.5645 C134.135097,0.5645 136.245843,1.39556726 137.878292,2.80364798 C139.529226,1.37819507 141.65268,0.5645 143.885889,0.5645 L150.632883,0.5645 C151.502829,0.5645 152.354291,0.68785426 153.167627,0.921970852 C153.976342,0.688903587 154.828959,0.5645 155.706992,0.5645 L162.777472,0.5645 C165.634546,0.5645 168.331033,1.89796188 170.081324,4.17640135 C171.831614,6.4549574 172.440461,9.42245516 171.728792,12.2148318 L165.906044,35.0668498 C165.832104,35.3559978 165.745456,35.6389664 165.647255,35.9154058 C166.035438,37.1461502 166.243393,38.4485987 166.243393,39.7860247 C166.243393,47.0115762 160.372122,52.5645 153.535015,52.5645 C149.209545,52.5645 145.393565,50.3814327 143.110678,47.0460874 C141.619177,50.268222 138.387782,52.4245897 134.735857,52.4245897 L128.635835,52.4245897 C125.863098,52.4245897 123.23824,51.1688946 121.482173,49.0035493 C119.727261,46.8383206 119.027145,43.9921951 119.575916,41.2499529 L120.407737,37.0954327 C117.676591,38.5203027 114.575747,39.3544013 111.238064,39.5215942 L110.171716,44.9201502 C109.311012,49.2830202 105.515828,52.4245897 101.108331,52.4245897 L95.0083095,52.4245897 C92.237883,52.4245897 89.6130251,51.1705269 87.8581136,49.0078632 C86.1020467,46.845083 85.4007752,44.001639 85.9460802,41.2606794 L86.3492824,39.2358274 C85.4735596,39.3800516 84.5781966,39.4757735 83.6643486,39.5215942 L82.5980001,44.9201502 C81.7372963,49.2830202 77.9421123,52.4245897 73.5334602,52.4245897 L67.4334384,52.4245897 C66.7806899,52.4245897 66.1348732,52.3547511 65.5063861,52.2196211 C64.877899,52.3548677 64.2320823,52.4245897 63.5793338,52.4245897 L57.3868874,52.4245897 C54.3426531,52.4245897 51.6138176,50.9320964 49.9224479,48.6000247 C48.199885,50.9805987 45.4375456,52.4245897 42.460319,52.4245897 L35.9443867,52.4245897 C35.2812404,52.4245897 34.6296471,52.3531188 33.9965388,52.2154238 C33.3657411,52.3526525 32.7118373,52.4245897 32.045225,52.4245897 L25.9452033,52.4245897 C24.0320146,52.4245897 22.1892997,51.8268229 20.6538965,50.7449664 C19.1439101,51.8093341 17.3127482,52.4245897 15.3625898,52.4245897 L9.26256801,52.4245897 C6.49214146,52.4245897 3.86843892,51.1705269 2.11237204,49.0078632 C0.35746048,46.845083 -0.344966268,44.001639 0.201494015,41.2606794 L6.80985092,8.05529821 C7.67633129,3.6989574 11.4680494,0.5645 15.8709249,0.5645 L21.9709467,0.5645 C23.88298,0.5645 25.7268502,1.16226682 27.2622534,2.24423991 C28.7710846,1.17998879 30.6022464,0.5645 32.5535602,0.5645 L38.653582,0.5645 C41.4240085,0.5645 44.047711,1.81856278 45.8037779,3.98134305 C45.9655209,4.18164798 46.1191768,4.38778251 46.2635902,4.59904709 Z M156.127524,42.0712265 C156.551522,41.5963475 156.846125,41.0042937 156.954724,40.3492803 C156.984762,40.1661143 157.000936,39.977935 157.000936,39.7860247 C157.000936,39.5942309 156.984762,39.4051188 156.954724,39.2203206 C156.682071,37.5628498 155.239093,36.24163 153.535015,36.24163 C153.231169,36.24163 152.936565,36.2836031 152.656981,36.3619529 C151.190896,36.7722399 150.115305,38.1805538 150.115305,39.7860247 C150.115305,40.5768677 150.115305,42.0712265 152.656981,43.2371457 C154.109876,43.2371457 155.266724,42.848506 156.127524,42.0712265 Z M152.656981,32.7438722 L156.954724,32.7438722 L162.777472,9.89185426 L155.706992,9.89185426 L152.656981,32.7438722 Z M58.7270437,9.89185426 L53.8747537,9.89185426 L35.9443867,43.0972354 L42.460319,43.0972354 L45.5565422,37.0344552 L56.6937031,37.0344552 L57.3868874,43.0972354 L63.5793338,43.0972354 L58.7270437,9.89185426 Z M54.6603625,19.2192085 L48.0520056,31.9976839 L56.2315803,31.9976839 L54.6603625,19.2192085 Z M67.4334384,43.0972354 L73.5334602,43.0972354 L76.0751359,30.2254865 L82.4062191,30.2254865 C82.4836247,30.2254865 82.5610303,30.2250202 82.6372805,30.2239709 C84.8589362,30.1927242 86.7871438,29.7115493 88.4057291,28.9029843 C92.2736975,26.971639 94.3832884,23.1719081 94.5496526,19.1725717 C94.5565844,19.0019978 94.5600503,18.8309574 94.5600503,18.6595673 C94.5600503,15.8216031 93.588437,13.4601502 91.7884685,11.9057466 C90.3050541,10.6248677 88.2601604,9.89185426 85.7335037,9.89185426 L74.0417953,9.89185426 L67.4334384,43.0972354 Z M86.9800801,22.956213 C87.9528487,21.8663117 88.4138163,20.4477377 88.4138163,19.1725717 C88.4138163,18.9988498 88.4080398,18.8275762 88.3941761,18.6595673 C88.3560509,18.1943655 88.2636264,17.7545807 88.1065046,17.3567691 C88.0833985,17.297657 88.0579817,17.2394776 88.0325649,17.1822309 C87.6351393,16.3137377 86.9061405,15.6706166 85.7335037,15.4406973 C85.426192,15.3803027 85.087687,15.3483565 84.7168334,15.3483565 L79.0789345,15.3483565 L77.1842308,24.7689843 L82.6372805,24.7689843 C83.045104,24.7689843 83.4309766,24.7366883 83.7925877,24.6757108 C83.8965653,24.6584552 83.9982324,24.6387511 84.0975888,24.6168318 C84.3124759,24.5696121 84.5192759,24.5120157 84.7168334,24.4449753 C85.6560981,24.1277287 86.4070478,23.5992175 86.9800801,22.956213 Z M95.0083095,43.0972354 L101.108331,43.0972354 L103.650007,30.2254865 L109.98109,30.2254865 C110.058496,30.2254865 110.134746,30.2250202 110.212152,30.2239709 C114.991657,30.1568139 118.410211,28.0062758 120.328021,24.992491 C121.430184,23.2605179 122.037876,21.243361 122.123368,19.1725717 C122.131456,19.0019978 122.134921,18.8309574 122.134921,18.6595673 C122.134921,15.7575942 121.118251,13.3538184 119.239722,11.8017466 C118.387105,11.097648 117.357726,10.568787 116.165449,10.2482758 C115.296658,10.0149753 114.342375,9.89185426 113.308375,9.89185426 L101.616666,9.89185426 L95.0083095,43.0972354 Z M114.553796,22.956213 C115.526565,21.8663117 115.988687,20.4477377 115.988687,19.1725717 C115.988687,18.9988498 115.981756,18.8275762 115.967892,18.6595673 C115.929767,18.1943655 115.837342,17.7545807 115.68022,17.3567691 C115.657114,17.297657 115.632853,17.2394776 115.606281,17.1822309 C115.21001,16.3137377 114.479856,15.6706166 113.308375,15.4406973 C112.999908,15.3803027 112.662558,15.3483565 112.291705,15.3483565 L106.653806,15.3483565 L104.759102,24.7689843 L110.212152,24.7689843 C110.619975,24.7689843 111.004692,24.7366883 111.366303,24.6757108 C111.470281,24.6584552 111.571948,24.6387511 111.671305,24.6168318 C111.886192,24.5696121 112.092992,24.5120157 112.291705,24.4449753 C113.229814,24.1277287 113.980764,23.5992175 114.553796,22.956213 Z M128.635835,43.0972354 L134.735857,43.0972354 L137.416169,29.7124821 L150.632883,9.89185426 L143.885889,9.89185426 L135.382829,23.6497018 L131.870695,9.89185426 L125.400975,9.89185426 L131.36236,29.4792982 L128.635835,43.0972354 Z M25.9452033,43.0972354 L28.7641527,29.0129305 L18.1815392,29.0129305 L15.3625898,43.0972354 L9.26256801,43.0972354 L15.8709249,9.89185426 L21.9709467,9.89185426 L19.2906341,23.603065 L29.8732476,23.603065 L32.5535602,9.89185426 L38.653582,9.89185426 L32.045225,43.0972354 L25.9452033,43.0972354 Z" id="Shape" fill="#3F3334"></path>
                    </g>
                    <path d="M174.67325,253.157985 C180.05025,228.160985 164.85125,203.916985 140.08725,197.991985 L120.27925,193.251985 C117.21725,192.519985 114.08225,192.089985 110.91825,191.970985 L97.3012504,191.454985 C70.2202504,190.429985 46.9912504,211.785985 45.9292504,238.684985 L44.9962504,262.339985 C44.2682504,280.772985 54.2952504,297.676985 70.7622504,305.780985 L77.2082504,308.953985 C88.8862504,314.700985 102.56525,315.387985 115.05925,310.853985 L140.30125,301.693985 C156.39725,295.853985 168.44025,282.129985 172.00225,265.570985 L174.67325,253.157985 Z" id="Path" stroke="#C9A38D" stroke-width="4" fill-opacity="0.98" fill="#302F35" fill-rule="nonzero"></path>
                    <path d="M204.91025,256.254985 C199.98425,231.245985 215.41825,206.169985 240.03925,199.177985 L259.39425,193.680985 C262.45525,192.811985 265.58625,192.248985 268.74025,192.000985 L281.92425,190.961985 C308.76025,188.847985 331.42325,209.448985 332.06725,236.539985 L332.63625,260.466985 C333.07825,279.030985 322.90125,296.497985 306.47925,305.362985 L300.36225,308.664985 C288.65225,314.985985 275.01625,316.233985 262.65625,312.115985 L238.13125,303.942985 C222.31325,298.671985 210.63525,285.317985 207.37625,268.774985 L204.91025,256.254985 Z" id="Path" stroke="#C9A38D" stroke-width="4" fill-opacity="0.98" fill="#302F35" fill-rule="nonzero"></path>
                    <path d="M168.240182,219.304849 C182.113591,212.368144 196.79853,212.303657 211.533926,218.979478 L212.108056,219.242985 L207.892444,228.310984 C195.861715,222.718032 184.340367,222.614184 173.225045,227.996797 L172.712318,228.249121 L168.240182,219.304849 Z" id="Path" fill="#C9A38D" fill-rule="nonzero"></path>
                    <path d="M115.043611,182.482524 C115.424942,181.74708 116.330267,181.460014 117.065711,181.841345 L120.059485,183.386456 C151.870566,199.724799 169.133319,205.9421 188.1747,206.735535 C210.095899,207.64897 233.569044,200.332309 267.889101,181.852278 C268.618507,181.459521 269.5282,181.732429 269.920957,182.461835 C270.313714,183.191241 270.040806,184.100934 269.3114,184.493691 C234.55977,203.206107 210.6053,210.672799 188.049801,209.732934 C167.854295,208.891408 149.791401,202.189049 115.68479,184.504624 C114.949345,184.123293 114.66228,183.217968 115.043611,182.482524 Z" id="Path" fill="#C9A38D" fill-rule="nonzero"></path>
                </g>
            </g>
        </g>
    </g>
</svg>