<?xml version="1.0" encoding="UTF-8"?>
<svg width="552px" height="1378px" viewBox="0 0 552 1378" version="1.1" xmlns="http://www.w3.org/2000/svg" xmlns:xlink="http://www.w3.org/1999/xlink">
    <!-- Generator: Sketch 55.2 (78181) - https://sketchapp.com -->
    <title>gee_me_013</title>
    <desc>Created with Sketch.</desc>
    <defs>
        <path d="M237.9163,107.167482 L233.1003,49.187482 L219.4243,0.277482011 C219.4243,0.277482011 207.9873,0.277482011 204.4873,18.857482 C189.9873,33.697482 136.4873,40.347482 130.9873,7.01748201 C116.4873,3.43748201 111.8173,7.01748201 111.8173,7.01748201 L56.758,59.957482 L15.5303,78.657482 L1.9376,94.687482 L0,121.737482 L237.9163,107.167482 Z" id="path-1"></path>
        <path d="M26,0.72998611 C20.801,-0.50001389 6.501,20.6899861 0,31.4399861 C0,41.6799861 17.998,43.2099861 31.498,40.1399861 C34.5,31.4399861 40.5,21.0999861 40.5,12.4499861 C40.5,8.04998611 32.499,2.26998611 26,0.72998611 Z" id="path-3"></path>
        <path d="M238.0823,107.167482 L233.2663,49.187482 L219.5903,0.277482011 C219.5903,0.277482011 208.1533,0.277482011 204.6533,18.857482 C190.1533,33.697482 136.6533,40.347482 131.1533,7.01748201 C116.6533,3.43748201 111.9833,7.01748201 111.9833,7.01748201 L56.924,59.957482 L15.6963,78.657482 L2.1036,94.687482 L0.166,121.737482 L238.0823,107.167482 Z" id="path-5"></path>
        <path d="M26.1325232,0.72998611 C20.9335232,-0.50001389 6.6335232,20.6899861 0.132523202,31.4399861 C0.132523202,41.6799861 18.1305232,43.2099861 31.6305232,40.1399861 C34.6325232,31.4399861 40.6325232,21.0999861 40.6325232,12.4499861 C40.6325232,8.04998611 32.6315232,2.26998611 26.1325232,0.72998611 Z" id="path-7"></path>
    </defs>
    <g id="GEE!-ME" stroke="none" stroke-width="1" fill="none" fill-rule="evenodd">
        <g id="gee_me_013" transform="translate(-324.000000, -111.000000)">
            <g transform="translate(324.000000, 111.000000)">
                <g id="lower-limb" transform="translate(13.000000, 869.000000)">
                    <path d="M303.421652,99.6411746 C308.808436,126.292942 312.766089,183.176825 313.259873,244.699325 C313.797836,311.72631 310.278222,374.603684 303.185738,415.443655 C298.79157,440.746173 315.741137,464.820093 341.043655,469.214262 C366.346173,473.60843 390.420093,456.658863 394.814262,431.356345 C403.031835,384.037877 406.835782,316.08094 406.256877,243.952925 C405.719248,176.967445 401.408642,115.01053 394.578348,81.2168254 C389.490605,56.0445987 364.960052,39.7629081 339.787825,44.8506516 C314.615599,49.9383952 298.333908,74.4689479 303.421652,99.6411746 Z" id="Path" fill="#EBBAAA" fill-rule="nonzero"></path>
                    <path d="M112.291565,81.3056474 C102.859547,134.792417 103.617418,201.30037 112.005228,277.718584 C117.935062,331.743094 126.958906,384.978019 137.744345,437.025429 C142.955389,462.17242 167.565438,478.333699 192.712429,473.122655 C217.85942,467.911611 234.020699,443.301562 228.809655,418.154571 C218.573367,368.757201 210.013815,318.261305 204.450022,267.571666 C196.94048,199.15502 196.273059,140.584659 203.878435,97.4563526 C208.338329,72.1653369 191.451368,48.0474592 166.160353,43.5875651 C140.869337,39.127671 116.751459,56.0146316 112.291565,81.3056474 Z" id="Path" fill="#EBBAAA" fill-rule="nonzero"></path>
                    <path d="M76,0.373 L271.093,34.13 L246.548,227.27 C246.548,227.27 210,254.24 144,252.19 C78,250.14 46,209.2 46,209.2 L76,0.373 Z" id="Path" fill="#27292D" fill-rule="nonzero"></path>
                    <path d="M248,53.603 L438,2.421 L470,215.34 C470,215.34 454,235.81 376,246.05 C298,256.28 270,231.72 270,231.72 L248,53.603 Z" id="Path" fill="#27292D" fill-rule="nonzero"></path>
                    <g id="Group" transform="translate(0.546841, 366.530014)">
                        <g id="Group-8" transform="translate(5.496859, 9.462504)">
                            <mask id="mask-2" fill="white">
                                <use xlink:href="#path-1"></use>
                            </mask>
                            <use id="Path" fill="#35393F" fill-rule="nonzero" xlink:href="#path-1"></use>
                            <polygon id="Path-2" fill="#F37694" fill-rule="nonzero" mask="url(#mask-2)" points="221.0823 108.443945 241.0823 108.443945 241.0823 54.1904781 218.5998 -12 199.662405 -5.56765499 221.0823 57.4944203"></polygon>
                        </g>
                        <path d="M87.4230182,46.9916677 C84.2417221,46.5606921 82.2071212,50.2824816 84.2872422,52.7277794 L90.5210599,60.0559785 L78.3558935,56.808408 C74.9841031,55.9082865 72.5160691,59.956897 74.8609148,62.5416384 L81.3355104,69.678635 L65.9492981,67.4753294 C62.6393274,67.0013416 60.6129547,70.994671 62.9499114,73.3861566 L74.9499114,85.6661566 C76.300894,87.0486622 78.5168241,87.0742166 79.8993297,85.723234 C81.2818353,84.3722513 81.3073897,82.1563212 79.9564071,80.7738156 L75.1602467,75.8657449 L89.9570204,77.9846428 C93.2025835,78.4494075 95.2483452,74.5966532 93.0454037,72.1683338 L88.0255659,66.634928 L99.5504249,69.7115642 C102.86649,70.5968096 105.342935,66.676462 103.119076,64.0621928 L95.5425607,55.1555779 L112.9833,57.5183045 C116.444063,57.9871399 118.38168,53.6545511 115.725077,51.3875829 L100.725077,38.5875829 C99.2546719,37.3328375 97.0455013,37.5076639 95.790756,38.9780687 C94.5360106,40.4484734 94.710837,42.657644 96.1812418,43.9123894 L102.12357,48.9831765 L87.4230182,46.9916677 Z" id="Path" fill="#66696D" fill-rule="nonzero"></path>
                        <g id="Group-9" transform="translate(101.982159, 0.000000)">
                            <mask id="mask-4" fill="white">
                                <use xlink:href="#path-3"></use>
                            </mask>
                            <use id="Path" fill="#495059" fill-rule="nonzero" xlink:href="#path-3"></use>
                            <path d="M34.672758,1.7408297e-13 C32.737337,22.5663695 27.426619,37.300307 19.2752841,44.2859562 L26.4332749,52.6383911 C37.2526715,43.3662277 43.4741943,26.1053735 45.6325232,0.93997222 L34.672758,1.7408297e-13 Z" id="Path-3" fill="#F37694" fill-rule="nonzero" mask="url(#mask-4)"></path>
                        </g>
                        <path d="M248.157159,114.859986 C245.035159,108.739986 238.665159,104.909986 231.876159,105.069986 L141.216159,107.149986 C131.678159,107.369986 124.355159,115.269986 124.861159,124.799986 C125.367159,134.319986 133.509159,141.869986 143.048159,141.649986 L233.708159,139.569986 C246.250159,139.279986 253.923159,126.159986 248.157159,114.859986 Z" id="Path" fill="#D7E3EE" fill-rule="nonzero"></path>
                        <rect id="Rectangle" fill="#D7E3EE" fill-rule="nonzero" transform="translate(102.153196, 124.855074) scale(-1, 1) rotate(3.035487) translate(-102.153196, -124.855074) " x="42.5959644" y="114.583201" width="119.114462" height="20.5437474" rx="10.2718737"></rect>
                        <path d="M105.170159,128.189986 C104.770159,120.649986 98.3211592,114.669986 90.7681592,114.839986 L11.2245592,116.669986 C3.28945921,116.849986 -1.98804079,124.629986 0.714959211,132.169986 C2.42095921,136.919986 6.91275921,140.179986 11.9279592,140.299986 L91.5811592,142.169986 C99.3961592,142.349986 105.584159,135.989986 105.170159,128.189986 Z" id="Path" fill="#D7E3EE" fill-rule="nonzero"></path>
                        <rect id="Rectangle" fill="#35393F" fill-rule="nonzero" transform="translate(214.627961, 123.042008) scale(-1, 1) rotate(1.952863) translate(-214.627961, -123.042008) " x="188.751311" y="113.829561" width="51.7533003" height="18.4248951" rx="9.21244753"></rect>
                    </g>
                    <g id="Group-3" transform="translate(280.389567, 366.530014)">
                        <g id="Group-10" transform="translate(6.528133, 9.462504)">
                            <mask id="mask-6" fill="white">
                                <use xlink:href="#path-5"></use>
                            </mask>
                            <use id="Path" fill="#35393F" fill-rule="nonzero" transform="translate(119.124150, 61.007482) scale(-1, 1) translate(-119.124150, -61.007482) " xlink:href="#path-5"></use>
                            <polygon id="Path-2" fill="#F37694" fill-rule="nonzero" mask="url(#mask-6)" transform="translate(17.709948, 48.221973) scale(-1, 1) translate(-17.709948, -48.221973) " points="18.4198954 108.443945 38.4198954 108.443945 38.4198954 54.1904781 15.9373952 -12 -3 -5.56765499 18.4198954 57.4944203"></polygon>
                        </g>
                        <path d="M158.623816,46.9916677 C155.44252,46.5606921 153.407919,50.2824816 155.48804,52.7277794 L161.721858,60.0559785 L149.556692,56.808408 C146.184901,55.9082865 143.716867,59.956897 146.061713,62.5416384 L152.536308,69.678635 L137.150096,67.4753294 C133.840125,67.0013416 131.813753,70.994671 134.150709,73.3861566 L146.150709,85.6661566 C147.501692,87.0486622 149.717622,87.0742166 151.100128,85.723234 C152.482633,84.3722513 152.508188,82.1563212 151.157205,80.7738156 L146.361045,75.8657449 L161.157818,77.9846428 C164.403382,78.4494075 166.449143,74.5966532 164.246202,72.1683338 L159.226364,66.634928 L170.751223,69.7115642 C174.067288,70.5968096 176.543733,66.676462 174.319874,64.0621928 L166.743359,55.1555779 L184.184098,57.5183045 C187.644861,57.9871399 189.582478,53.6545511 186.925875,51.3875829 L171.925875,38.5875829 C170.45547,37.3328375 168.246299,37.5076639 166.991554,38.9780687 C165.736809,40.4484734 165.911635,42.657644 167.38204,43.9123894 L173.324368,48.9831765 L158.623816,46.9916677 Z" id="Path" fill="#66696D" fill-rule="nonzero" transform="translate(160.654045, 62.234953) scale(-1, 1) translate(-160.654045, -62.234953) "></path>
                        <g id="Group-11" transform="translate(107.492610, 0.000000)">
                            <mask id="mask-8" fill="white">
                                <use xlink:href="#path-7"></use>
                            </mask>
                            <use id="Path" fill="#495059" fill-rule="nonzero" transform="translate(20.382523, 21.114577) scale(-1, 1) translate(-20.382523, -21.114577) " xlink:href="#path-7"></use>
                            <path d="M10.3974739,0 C8.46205283,22.5663695 3.15133489,37.300307 -5,44.2859562 L2.15799074,52.6383911 C12.9773873,43.3662277 19.1989101,26.1053735 21.3572391,0.93997222 L10.3974739,0 Z" id="Path-3" fill="#F37694" fill-rule="nonzero" mask="url(#mask-8)" transform="translate(8.178620, 26.319196) scale(-1, 1) translate(-8.178620, -26.319196) "></path>
                        </g>
                        <path d="M123.32072,114.859986 C120.19872,108.739986 113.82872,104.909986 107.03972,105.069986 L16.3797205,107.149986 C6.84172048,107.369986 -0.481279516,115.269986 0.0247204837,124.799986 C0.530720484,134.319986 8.67272048,141.869986 18.2117205,141.649986 L108.87172,139.569986 C121.41372,139.279986 129.08672,126.159986 123.32072,114.859986 Z" id="Path" fill="#D7E3EE" fill-rule="nonzero" transform="translate(62.635427, 123.359917) scale(-1, 1) translate(-62.635427, -123.359917) "></path>
                        <rect id="Rectangle" fill="#D7E3EE" fill-rule="nonzero" transform="translate(147.954097, 124.855074) rotate(3.035487) translate(-147.954097, -124.855074) " x="88.3968659" y="114.583201" width="119.114462" height="20.5437474" rx="10.2718737"></rect>
                        <path d="M250.087666,128.189986 C249.687666,120.649986 243.238666,114.669986 235.685666,114.839986 L156.142066,116.669986 C148.206966,116.849986 142.929466,124.629986 145.632466,132.169986 C147.338466,136.919986 151.830266,140.179986 156.845466,140.299986 L236.498666,142.169986 C244.313666,142.349986 250.501666,135.989986 250.087666,128.189986 Z" id="Path" fill="#D7E3EE" fill-rule="nonzero" transform="translate(197.512400, 128.505082) scale(-1, 1) translate(-197.512400, -128.505082) "></path>
                        <rect id="Rectangle" fill="#35393F" fill-rule="nonzero" transform="translate(35.479331, 123.042008) rotate(1.952863) translate(-35.479331, -123.042008) " x="9.60268112" y="113.829561" width="51.7533003" height="18.4248951" rx="9.21244753"></rect>
                    </g>
                </g>
                <g id="upper-limb" transform="translate(0.000000, 416.000000)" fill-rule="nonzero">
                    <path d="M77.8627528,104.525347 C63.0083274,127.780386 40.3072046,179.758236 25.4845324,229.158909 C15.7726826,261.526346 9.09673265,293.105248 6.241789,323.039212 C2.76187305,359.525985 4.98773407,392.943537 14.2664993,422.704348 C22.4857929,449.066998 50.5199974,463.775094 76.8826476,455.555801 C103.245298,447.336507 117.953394,419.302303 109.734101,392.939652 C99.99702,361.708836 104.600719,313.439245 121.265843,257.898091 C128.026604,235.365976 136.419482,212.821906 145.367479,192.334037 C152.231543,176.617664 158.947711,163.349966 162.137247,158.356653 C177.002352,135.084894 170.187412,104.168858 146.915653,89.3037528 C123.643894,74.4386479 92.7278578,81.2535875 77.8627528,104.525347 Z" id="Path" fill="#EBBAAA"></path>
                    <path d="M383.863753,155.285653 C384.166883,155.760213 384.714568,156.710483 385.413795,158.025489 C386.325439,159.739976 387.361075,161.823839 388.478057,164.209578 C391.060958,169.726345 393.876774,176.418272 396.722356,183.897073 C403.51812,201.757804 409.859031,222.379304 414.946731,244.070387 C427.793699,298.842608 431.323952,353.711628 422.747172,402.799164 C417.9943,430.001302 436.193026,455.905956 463.395164,460.658828 C490.597302,465.4117 516.501956,447.212974 521.254828,420.010836 C532.392726,356.265246 528.014212,288.212128 512.304519,221.234863 C500.64185,171.511822 482.60065,124.095664 468.138247,101.454347 C453.273142,78.1825875 422.357106,71.3676479 399.085347,86.2327528 C375.813588,101.097858 368.998648,132.013894 383.863753,155.285653 Z" id="Path" fill="#EBBAAA"></path>
                    <path d="M126.449,94.956 C131.593,65.003 157.388,43.133 187.782,42.856 L282.073,41.994 L368.917,47.76 C398.224,49.706 422.336,71.63 426.818,100.671 C437.094,167.256 454.486,285.254 460,355.105 C468,456.445 474.241,477.36 440.355,492.235 C406.47,507.11 143,520.934 98.3555,481.955 C53.7112,442.976 76.6435,387.942 82,355.105 C85.8951,331.227 112.32,177.213 126.449,94.956 Z" id="Path" fill="#3E4043"></path>
                    <path d="M113,277.309 L0,228.174 L51.9106,131.437 C68.7588,100.039 96.1673,75.612 129.289,62.474 L158,51.085 L113,277.309 Z" id="Path" fill="#3E4043"></path>
                    <path d="M430,283.45 L552,239.434 L492.161,130.459 C475.251,99.665 448.134,75.731 415.478,62.778 L386,51.085 L430,283.45 Z" id="Path" fill="#3E4043"></path>
                    <ellipse id="Oval" fill="#242527" cx="277.5" cy="75.652" rx="74.5" ry="74.7254"></ellipse>
                    <rect id="Rectangle" fill="#EBBAAA" x="225" y="11.163" width="101" height="117.718" rx="50.5"></rect>
                    <path d="M226.754,212.123 C217.405,232.231 203.121,272.562 202.714,296.486 L349.625,296.486 C346.169,273.611 337.605,233.599 325.585,212.124 C300.185,195.32 233.28,198.088 226.754,212.123 Z" id="Path" fill="#FD90AA"></path>
                    <path d="M276.17,223.811881 L289.709813,212.426779 L300.024187,224.693221 L288.621164,234.28158 L300.025187,243.870779 L289.710813,256.137221 L276.17,244.751278 L262.629187,256.137221 L252.314813,243.870779 L263.718836,234.28158 L252.315813,224.693221 L262.630187,212.426779 L276.17,223.811881 Z" id="Combined-Shape" fill="#FFFFFF"></path>
                    <path d="M181.395492,233.086533 C182.699244,244.204202 185.59169,256.561038 189.573825,265.810537 C192.193583,271.895575 195.265127,276.688767 199.017015,279.964062 C204.041451,284.350256 210.189159,285.821183 216.511683,283.589752 C222.592637,281.443048 226.671094,276.520166 228.91749,269.777963 C230.645068,264.59291 231.319545,258.28974 231.14283,251.021582 C230.86586,239.630026 228.428669,225.921572 225.131421,214.476514 C224.008357,210.578256 219.937772,208.328516 216.039514,209.451579 C212.141256,210.574643 209.891516,214.645228 211.014579,218.543486 C217.892267,242.416586 218.497495,267.309166 211.621779,269.736438 C209.431916,270.509314 206.483177,267.935145 203.067425,260.001213 C199.720593,252.227364 197.137882,241.193749 195.986508,231.375467 C195.51401,227.34627 191.864665,224.462995 187.835467,224.935492 C183.80627,225.40799 180.922995,229.057335 181.395492,233.086533 Z" id="Path" fill="#FEC899"></path>
                    <path d="M358.097492,232.742467 C356.946116,242.560765 354.363407,253.59434 351.016589,261.368056 C347.600892,269.301759 344.652403,271.875568 342.462081,271.102388 C335.58658,268.675636 336.191792,243.783725 343.069451,219.90938 C344.192456,216.011105 341.942655,211.940554 338.04438,210.817549 C334.146105,209.694544 330.075554,211.944345 328.952549,215.84262 C325.655279,227.288395 323.218138,240.996854 322.94117,252.388332 C322.764455,259.656505 323.438934,265.959622 325.16653,271.144583 C327.412977,277.886755 331.491578,282.809517 337.572176,284.955702 C343.894432,287.187447 350.042276,285.716833 355.066835,281.330771 C358.818798,278.055589 361.890379,273.26246 364.510161,267.177444 C368.492304,257.928048 371.384752,245.571236 372.688508,234.453533 C373.161005,230.424335 370.27773,226.77499 366.248533,226.302492 C362.219335,225.829995 358.56999,228.71327 358.097492,232.742467 Z" id="Path" fill="#FEC899"></path>
                    <path d="M181.277,288.732 L174,338.866 L375,338.866 L368.889,293.358 C356.055,277.773 322.914,265.042 273.498,265.042 C222.748,265.042 193.092,280.835 181.277,288.732 Z" id="Path" fill="#F37694"></path>
                    <ellipse id="Oval" fill="#D23C61" cx="274.834" cy="337.499" rx="100.166" ry="38.2792"></ellipse>
                    <path d="M352.295,344.451 C352.295,388.179 317.913,423.628 275.501,423.628 C233.089,423.628 198.707,388.179 198.707,344.451 C218.476,296.027 338.609,301.506 352.295,344.451 Z" id="Path" fill="#FEC899"></path>
                    <ellipse id="Oval" fill="#2C3139" cx="241.445" cy="346.133" rx="15.3588" ry="15.7218"></ellipse>
                    <ellipse id="Oval" fill="#2C3139" cx="308.222" cy="346.133" rx="15.3588" ry="15.7218"></ellipse>
                    <path d="M258.139,367.323 C258.139,365.11 256.346,363.316 254.133,363.316 C251.92,363.316 250.126,365.11 250.126,367.323 L258.139,367.323 Z M278.84,367.323 C278.84,365.11 277.047,363.316 274.834,363.316 C272.621,363.316 270.827,365.11 270.827,367.323 L278.84,367.323 Z M250.126,367.323 C250.126,376.68 257.395,381.864 264.351,382.093 C267.837,382.208 271.486,381.12 274.302,378.548 C277.177,375.921 278.84,372.059 278.84,367.323 L270.827,367.323 C270.827,370.106 269.903,371.712 268.897,372.632 C267.831,373.606 266.305,374.14 264.616,374.084 C261.221,373.972 258.139,371.637 258.139,367.323 L250.126,367.323 Z" id="Shape" fill="#CB7646"></path>
                    <path d="M279.509,367.323 C279.509,365.11 277.715,363.316 275.502,363.316 C273.289,363.316 271.495,365.11 271.495,367.323 L279.509,367.323 Z M300.21,367.323 C300.21,365.11 298.416,363.316 296.203,363.316 C293.99,363.316 292.196,365.11 292.196,367.323 L300.21,367.323 Z M271.495,367.323 C271.495,376.68 278.764,381.864 285.72,382.093 C289.206,382.208 292.856,381.12 295.671,378.548 C298.546,375.921 300.21,372.059 300.21,367.323 L292.196,367.323 C292.196,370.106 291.272,371.712 290.266,372.632 C289.2,373.606 287.674,374.14 285.985,374.084 C282.59,373.972 279.509,371.637 279.509,367.323 L271.495,367.323 Z" id="Shape" fill="#CB7646"></path>
                </g>
                <g id="head" transform="translate(65.093500, 0.000000)" fill-rule="nonzero">
                    <ellipse id="Oval" fill="#EBBAAA" cx="58.0695" cy="300.242" rx="58.0695" ry="56.3824"></ellipse>
                    <ellipse id="Oval" fill="#EBBAAA" cx="360.0695" cy="304.612" rx="58.0695" ry="56.3824"></ellipse>
                    <path d="M37.4065,185.278 C40.0495,138.081 74.5415,98.7712 120.9955,90.0154 L182.3265,78.4552 C206.1415,73.9664 230.6115,74.2657 254.3095,79.3357 L373.9065,104.923 L388.9065,258.98 L392.3695,311.873 C399.2075,416.329 316.3265,504.813 211.6465,504.813 C107.9755,504.813 25.46,417.953 30.776,314.417 L37.4065,185.278 Z" id="Path" fill="#F4D4CA"></path>
                    <path d="M85.9065,414.061 C79.8695,389.343 61.9065,392.906 47.9065,393.588 C57.9065,430.439 115.9065,504.14 209.9065,504.14 C317.9065,504.14 365.2395,430.439 377.9065,393.588 C363.9065,385.399 351.9065,393.588 341.9065,414.061 C324.5555,449.583 259.9065,472.408 232.9065,446.817 C220.4125,434.975 197.4605,437.278 183.9065,446.817 C135.9065,480.597 91.9065,438.628 85.9065,414.061 Z" id="Path" fill="#D0C8C6"></path>
                    <path d="M160.5053,396.589844 C186.087022,415.129801 222.983368,415.433689 258.808293,397.201146 C262.499845,395.322387 263.969404,390.806759 262.090646,387.115207 C260.211887,383.423655 255.696259,381.954096 252.004707,383.832854 C220.884898,399.670801 189.966288,399.416148 169.3077,384.444156 C165.953761,382.01344 161.264371,382.761861 158.833656,386.1158 C156.40294,389.469739 157.151361,394.159129 160.5053,396.589844 Z" id="Path" fill="#C99584"></path>
                    <path d="M243.9065,371.068 C243.9065,390.171076 256.902385,403.659 278.4065,403.659 C282.272493,403.659 285.4065,400.524993 285.4065,396.659 C285.4065,392.793007 282.272493,389.659 278.4065,389.659 C264.753173,389.659 257.9065,382.553105 257.9065,371.068 C257.9065,367.202007 254.772493,364.068 250.9065,364.068 C247.040507,364.068 243.9065,367.202007 243.9065,371.068 Z" id="Path" fill="#C99584"></path>
                    <path d="M160.828149,251.48236 C167.428703,252.078469 173.262751,247.210904 173.85886,240.610351 C174.454969,234.009797 169.587404,228.175749 162.986851,227.57964 L109.445312,222.744199 L90.5321194,229.198001 C84.2598221,231.338315 80.9101874,238.158083 83.050501,244.430381 C85.1908146,250.702678 92.0105832,254.052313 98.2828806,251.911999 L112.367688,247.105801 L160.828149,251.48236 Z" id="Path" fill="#272727"></path>
                    <path d="M315.939333,253.283232 C321.838968,256.302665 329.0693,253.967801 332.088732,248.068167 C335.108165,242.168532 332.773301,234.9382 326.873667,231.918768 L308.846154,222.692287 L251.246855,227.269715 C244.640267,227.794741 239.710188,233.576057 240.235215,240.182645 C240.760241,246.789233 246.541557,251.719312 253.148145,251.194285 L303.966846,247.155713 L315.939333,253.283232 Z" id="Path" fill="#272727"></path>
                    <path d="M195.705548,297.863036 C195.462091,298.384123 194.126711,301.187184 193.716233,302.061682 C192.759422,304.100111 191.938057,305.918603 191.146236,307.779715 C188.762867,313.381637 186.991154,318.585285 185.920137,323.653809 C181.246239,345.772743 191.675267,361.143 218.9995,361.143 L218.9995,344.143 C209.999502,344.143 205.269604,342.241032 203.315121,339.360523 C201.686896,336.960852 201.353939,332.842243 202.552859,327.168429 C203.364288,323.328391 204.801325,319.107709 206.789294,314.435145 C207.490359,312.787347 208.22995,311.149902 209.105268,309.285088 C209.485658,308.474691 210.829819,305.653199 211.107452,305.058964 L195.705548,297.863036 Z" id="Path" fill="#EBBAAA"></path>
                    <path d="M119.0005,306.295 C130.851733,306.295 136.75215,306.771847 143.477677,308.837256 C149.813077,310.782858 156.526155,307.224223 158.471756,300.888823 C160.417358,294.553423 156.858723,287.840345 150.523323,285.894744 C140.820278,282.914939 133.149267,282.295 119.0005,282.295 C112.373083,282.295 107.0005,287.667583 107.0005,294.295 C107.0005,300.922417 112.373083,306.295 119.0005,306.295 Z" id="Path" fill="#000000"></path>
                    <path d="M296.9065,281.272 C282.757733,281.272 275.086722,281.891939 265.383677,284.871744 C259.048277,286.817345 255.489642,293.530423 257.435244,299.865823 C259.380845,306.201223 266.093923,309.759858 272.429323,307.814256 C279.15485,305.748847 285.055267,305.272 296.9065,305.272 C303.533917,305.272 308.9065,299.899417 308.9065,293.272 C308.9065,286.644583 303.533917,281.272 296.9065,281.272 Z" id="Path" fill="#000000"></path>
                    <path d="M195.2415,100.316 C119.0395,100.316 54.2605,120.682 50.2205,177.53 C44.2035,262.218 29.815,269.03 18.9065,229.756 C17.244,223.771 16.1439,169.476 15.9065,163.269 C20.2242,42.6037 147.7295,13.4642 195.2415,13.4642 C234.1825,45.8996 271.4535,100.316 195.2415,100.316 Z" id="Path" fill="#272727"></path>
                    <path d="M26.1935,177.355 C25.9303,169.098 31.0786,162.231 37.5215,162.231 C44.2075,162.231 46.5385,201.319 45.9065,209.845 L43.4065,322.332 C39.7635,326.581 36.3745,326.824 34.4897,326.824 C32.5209,326.824 30.9101,324.841 30.8259,322.332 L26.1935,177.355 Z" id="Path" fill="#272727"></path>
                    <path d="M397.4055,181.696 C393.6965,165.317 388.8125,169.397 382.3695,169.397 C375.6835,169.397 370.4515,176.433 371.0835,184.577 L381.7585,322.545 C381.9375,324.852 383.5165,326.604 385.4015,326.604 C387.3705,326.604 393.6135,324.942 393.6975,322.545 L397.4065,234.925 L397.4055,181.696 Z" id="Path" fill="#272727"></path>
                    <path d="M240.6395,103.387 C319.1625,103.387 357.4025,135.564 360.6405,193.467 C368.6685,238.878 391.9065,301.972 402.6405,170.947 C392.6405,33.78 277.4345,20.4727 228.4745,20.4727 C188.3485,52.9081 162.1085,103.387 240.6395,103.387 Z" id="Path" fill="#272727"></path>
                    <polygon id="Path" fill="#272727" points="85.8655 51.3613 71.9065 82.9683 206.6865 73.7496 355.9065 112.6 355.9065 94.1625 345.3165 88.2362 345.3165 73.7496 331.8385 73.7496 331.8385 51.3613 314.5095 51.3613 305.9065 37.3627 295.2555 34.2409 286.1095 17.1204 270.2255 22.3883 265.4115 11.8526 249.0455 11.8526 240.4065 4.60636 226.9035 11.8526 221.1265 -4.26325641e-14 211.4995 11.8526 201.8725 -4.26325641e-14 183.5815 11.8526 170.9065 4.60636 161.4065 17.1204 150.8485 11.8526 141.2215 22.3883 137.3705 11.8526 125.4065 29.1736 114.9065 26.1027 96.4555 54.6537"></polygon>
                    <path d="M135.9065,147.867 C135.9065,147.867 120.9065,136.618 120.9065,107.482 C120.9065,78.3458 100.9065,67.5599 100.9065,67.5599 L306.9065,79.8436 C306.9065,79.8436 306.4065,79.8921 298.9065,112.088 C291.4065,144.284 224.4065,152.522 224.4065,152.522 L217.9065,142.797 L202.9735,147.867 L187.5215,136.618 L167.9495,147.867 L161.7685,136.618 L135.9065,147.867 Z" id="Path" fill="#272727"></path>
                </g>
            </g>
        </g>
    </g>
</svg>