<?xml version="1.0" encoding="UTF-8"?>
<svg width="576px" height="1345px" viewBox="0 0 576 1345" version="1.1" xmlns="http://www.w3.org/2000/svg" xmlns:xlink="http://www.w3.org/1999/xlink">
    <!-- Generator: Sketch 55.2 (78181) - https://sketchapp.com -->
    <title>gee_me_017</title>
    <desc>Created with Sketch.</desc>
    <defs>
        <path d="M355.365814,409 C355.365814,378.3 335.639814,374.55 303.488814,364.03 C287.741814,358.88 271.671814,354.39 255.365814,351.69 C245.118814,349.99 242.365814,359 224.365814,359 C208.313814,359 188.287814,351.05 184.140814,349.33 C183.620814,349.11 183.003814,348.92 182.589814,349.3 C182.489814,349.39 182.405814,349.51 182.342814,349.63 C180.425814,353.57 170.365814,375.05 170.365814,392.24 C170.365814,405.39 169.239814,418.32 172.865814,425 C174.501814,428.01 184.716814,429.66 188.146814,429.66 L349.802814,429.66 C352.874814,429.66 355.365814,412.07 355.365814,409 Z" id="path-1"></path>
        <path d="M132.199093,409 C132.199093,378.3 112.473093,374.55 80.3220928,364.03 C64.5750928,358.88 48.5050928,354.39 32.1990928,351.69 C21.9520928,349.99 19.1990928,359 1.19909284,359 C-14.8529072,359 -34.8789072,351.05 -39.0259072,349.33 C-39.5459072,349.11 -40.1629072,348.92 -40.5769072,349.3 C-40.6769072,349.39 -40.7609072,349.51 -40.8239072,349.63 C-42.7409072,353.57 -52.8009072,375.05 -52.8009072,392.24 C-52.8009072,405.39 -53.9269072,418.32 -50.3009072,425 C-48.6649072,428.01 -38.4499072,429.66 -35.0199072,429.66 L126.636093,429.66 C129.708093,429.66 132.199093,412.07 132.199093,409 Z" id="path-3"></path>
    </defs>
    <g id="GEE!-ME" stroke="none" stroke-width="1" fill="none" fill-rule="evenodd">
        <g id="gee_me_017" transform="translate(-312.000000, -128.000000)">
            <g transform="translate(309.000000, 128.000000)">
                <g id="lower-limb" transform="translate(151.800186, 915.000000)">
                    <path d="M175.967179,73.4964073 C187.727697,130.338913 192.53427,280.029305 183.571683,342.76741 C180.681803,362.996568 194.738066,381.738252 214.967224,384.628131 C235.196383,387.518011 253.938066,373.461748 256.827946,353.23259 C267.003936,282.000657 261.9208,123.697286 248.43245,58.5035927 C244.292299,38.4928606 224.714139,25.627213 204.703407,29.7673645 C184.692675,33.9075159 171.827027,53.4856753 175.967179,73.4964073 Z" id="Path" fill="#EBBAAA" fill-rule="nonzero"></path>
                    <path d="M22.7357899,61.9736476 C14.7647371,159.100717 27.1064862,286.375004 48.5225052,364.304571 C53.93742,384.008604 74.3003512,395.592224 94.004385,390.177309 C113.708419,384.762394 125.292039,364.399463 119.877124,344.695429 C111.359094,313.699643 103.627046,268.507337 98.983074,220.616372 C93.7886669,167.049049 92.7285969,113.83262 96.4878391,68.0263524 C98.1592474,47.6602864 83.0042329,29.7953837 62.6381669,28.1239754 C42.2721008,26.4525671 24.4071981,41.6075816 22.7357899,61.9736476 Z" id="Path" fill="#EBBAAA" fill-rule="nonzero"></path>
                    <polygon id="Path" fill="#32405F" fill-rule="nonzero" points="0.199814475 0.183 121.340814 10.449 121.340814 350.26 33.5908145 350.26"></polygon>
                    <polygon id="Path" fill="#32405F" fill-rule="nonzero" points="148.032814 10.449 272.253814 10.449 272.253814 350.26 182.272814 350.26"></polygon>
                    <path d="M123.199814,330 L30.1998145,330 L30.1998145,353 C66.5188145,353 86.8808145,353 123.199814,353 L123.199814,330 Z" id="Path" fill="#2A3144" fill-rule="nonzero"></path>
                    <path d="M272.199814,327 L179.199814,327 L179.199814,350 C215.518814,350 235.880814,350 272.199814,350 L272.199814,327 Z" id="Path" fill="#2A3144" fill-rule="nonzero"></path>
                    <mask id="mask-2" fill="white">
                        <use xlink:href="#path-1"></use>
                    </mask>
                    <use id="Path" fill="#D0D4DB" fill-rule="nonzero" xlink:href="#path-1"></use>
                    <path d="M245.843507,367.455879 C241.216466,379.316305 215.828447,407.996248 205.030832,413.844956 L211.698797,426.155044 C225.402481,418.732215 253.05277,387.496665 258.886122,372.544121 L245.843507,367.455879 Z" id="Path" fill="#DE6161" fill-rule="nonzero" mask="url(#mask-2)"></path>
                    <path d="M313.562427,412.00253 C306.702361,400.107177 275.657915,383.806926 255.604623,383.004794 C239.17443,382.347587 224.298619,380.984464 210.704099,378.474707 C193.200246,375.243226 179.921718,370.388082 172.229629,363.910533 L164.5,373.089467 C174.144833,381.211432 189.152043,386.698649 208.52553,390.275293 C222.776675,392.906274 238.173641,394.317151 255.125006,394.995206 C263.367799,395.324917 274.239129,398.868109 284.700554,404.361002 C293.900882,409.191743 301.387488,414.911445 303.167202,417.99747 L313.562427,412.00253 Z" id="Path" fill="#458AD6" fill-rule="nonzero" mask="url(#mask-2)"></path>
                    <path d="M277.062427,422.00253 C270.256098,410.200355 246.985559,392.106616 228.684309,386.282532 C190.90868,374.263014 160.316314,361.694057 145.729629,349.410533 L138,358.589467 C147.210191,366.345417 161.917343,374.101268 180.959644,381.924849 C194.762545,387.595808 209.42152,392.746259 225.045593,397.717555 C240.561105,402.655122 261.393751,418.853305 266.667202,427.99747 L277.062427,422.00253 Z" id="Path" fill="#458AD6" fill-rule="nonzero" mask="url(#mask-2)"></path>
                    <path d="M335.220814,375.02 C348.169814,367.7 343.090814,382.2 354.725814,388.36 L379.364814,435.59 L183.281814,435.59 C178.490814,428.74 159.628814,413.41 174.251814,413.41 C206.251814,413.41 244.878814,414.43 263.357814,413.41 C281.836814,412.38 334.733814,416.08 331.627814,399.65 C328.034814,380.66 323.414814,381.69 335.220814,375.02 Z" id="Path" fill="#AEB5C0" fill-rule="nonzero" mask="url(#mask-2)"></path>
                    <path d="M278.437846,371.50452 C276.92007,373.947154 279.281145,376.952725 282.01369,376.056451 L304.51239,368.676883 L296.499011,380.079105 C295.520973,381.470754 295.856271,383.391765 297.24792,384.369803 C298.639569,385.347841 300.560579,385.012544 301.538618,383.620895 L314.884618,364.630895 C316.588483,362.206468 314.220622,359.010006 311.404939,359.933549 L288.137571,367.56524 L295.475783,355.75548 C296.9913,353.31648 294.639103,350.313572 291.908131,351.200875 L263.34757,360.480303 C264.262782,359.44779 265.438309,358.365241 266.872226,357.22 C267.532463,356.692681 268.219496,356.17066 269.103174,355.518491 C269.063103,355.548065 270.773659,354.293233 271.212916,353.963736 C272.5736,352.943057 272.849229,351.012582 271.82855,349.651898 C270.807872,348.291214 268.877396,348.015585 267.516712,349.036264 C267.10844,349.342518 265.430066,350.573742 265.445478,350.562367 C264.504127,351.257099 263.759528,351.82286 263.028165,352.406986 C257.739948,356.630583 254.784964,360.60083 254.784964,365.5 C254.784964,367.59233 256.826564,369.075662 258.816498,368.429125 L285.795437,359.663572 L278.437846,371.50452 Z" id="Path" fill="#FFFFFF" fill-rule="nonzero" mask="url(#mask-2)"></path>
                    <mask id="mask-4" fill="white">
                        <use xlink:href="#path-3"></use>
                    </mask>
                    <use id="Path" fill="#D0D4DB" fill-rule="nonzero" transform="translate(39.616454, 389.371405) scale(-1, 1) translate(-39.616454, -389.371405) " xlink:href="#path-3"></use>
                    <path d="M84.3261819,367.455879 C79.6991409,379.316305 54.3111219,407.996248 43.5135072,413.844956 L50.1814712,426.155044 C63.8851556,418.732215 91.5354447,387.496665 97.3687965,372.544121 L84.3261819,367.455879 Z" id="Path" fill="#DE6161" fill-rule="nonzero" mask="url(#mask-4)" transform="translate(70.441152, 396.805461) scale(-1, 1) translate(-70.441152, -396.805461) "></path>
                    <path d="M137.899629,412.00253 C131.039563,400.107177 99.9951169,383.806926 79.9418247,383.004794 C63.5116317,382.347587 48.6358215,380.984464 35.0413014,378.474707 C17.5374485,375.243226 4.25892028,370.388082 -3.43316904,363.910533 L-11.162798,373.089467 C-1.51796517,381.211432 13.4892445,386.698649 32.8627316,390.275293 C47.1138773,392.906274 62.5108426,394.317151 79.4622083,394.995206 C87.7050013,395.324917 98.5763314,398.868109 109.037756,404.361002 C118.238084,409.191743 125.72469,414.911445 127.504404,417.99747 L137.899629,412.00253 Z" id="Path" fill="#458AD6" fill-rule="nonzero" mask="url(#mask-4)" transform="translate(63.368415, 390.954001) scale(-1, 1) translate(-63.368415, -390.954001) "></path>
                    <path d="M164.399629,422.00253 C157.5933,410.200355 134.322761,392.106616 116.021511,386.282532 C78.2458816,374.263014 47.6535163,361.694057 33.066831,349.410533 L25.337202,358.589467 C34.5473928,366.345417 49.254545,374.101268 68.296846,381.924849 C82.0997466,387.595808 96.7587225,392.746259 112.382795,397.717555 C127.898307,402.655122 148.730953,418.853305 154.004404,427.99747 L164.399629,422.00253 Z" id="Path" fill="#458AD6" fill-rule="nonzero" mask="url(#mask-4)" transform="translate(94.868415, 388.704001) scale(-1, 1) translate(-94.868415, -388.704001) "></path>
                    <path d="M89.461322,375.02 C102.410322,367.7 97.331322,382.2 108.966322,388.36 L133.605322,435.59 L-62.477678,435.59 C-67.268678,428.74 -86.130678,413.41 -71.507678,413.41 C-39.507678,413.41 -0.880677991,414.43 17.598322,413.41 C36.077322,412.38 88.974322,416.08 85.868322,399.65 C82.275322,380.66 77.655322,381.69 89.461322,375.02 Z" id="Path" fill="#AEB5C0" fill-rule="nonzero" mask="url(#mask-4)" transform="translate(28.320068, 404.296599) scale(-1, 1) translate(-28.320068, -404.296599) "></path>
                    <path d="M10.5941986,371.50452 C9.07642279,373.947154 11.4374977,376.952725 14.1700422,376.056451 L36.6687423,368.676883 L28.6553639,380.079105 C27.6773257,381.470754 28.0126234,383.391765 29.4042722,384.369803 C30.795921,385.347841 32.7169319,385.012544 33.6949701,383.620895 L47.0409701,364.630895 C48.7448354,362.206468 46.3769748,359.010006 43.5612918,359.933549 L20.2939236,367.56524 L27.6321353,355.75548 C29.1476527,353.31648 26.7954556,350.313572 24.0644837,351.200875 L-4.49607765,360.480303 C-3.58086546,359.44779 -2.40533816,358.365241 -0.971421894,357.22 C-0.311184713,356.692681 0.375848191,356.17066 1.25952645,355.518491 C1.21945522,355.548065 2.93001132,354.293233 3.36926898,353.963736 C4.72995279,352.943057 5.00558152,351.012582 3.98490296,349.651898 C2.96422441,348.291214 1.03374878,348.015585 -0.326935028,349.036264 C-0.735207224,349.342518 -2.41358183,350.573742 -2.3981695,350.562367 C-3.33952054,351.257099 -4.08411901,351.82286 -4.81548285,352.406986 C-10.1036995,356.630583 -13.058683,360.60083 -13.058683,365.5 C-13.058683,367.59233 -11.0170837,369.075662 -9.02714979,368.429125 L17.9517898,359.663572 L10.5941986,371.50452 Z" id="Path" fill="#FFFFFF" fill-rule="nonzero" mask="url(#mask-4)" transform="translate(17.277991, 366.675039) scale(-1, 1) translate(-17.277991, -366.675039) "></path>
                </g>
                <g id="upper-limb" transform="translate(0.160746, 425.000000)" fill-rule="nonzero">
                    <path d="M456.839254,68 C448.839254,38 425.802254,22.667 412.802254,13 L359.802254,48 C356.802254,56.333 355.002254,74.4 371.802254,80 C392.802254,87 401.839254,145 430.839254,133 C459.839254,121 461.999254,87.349 456.839254,68 Z" id="Path" fill="#2E3137"></path>
                    <path d="M118.839254,55 C128.839254,14 158.445254,9.667 171.445254,0 L224.445254,35 C227.445254,43.333 229.245254,61.4 212.445254,67 C191.445254,74 182.408254,132 153.408254,120 C124.408254,108 114.094254,74.455 118.839254,55 Z" id="Path" fill="#2E3137"></path>
                    <path d="M186.90066,215.937655 C189.3374,212.275687 191.91109,208.436951 194.774924,204.189347 C198.286233,198.981415 210.467699,181.018054 212.594629,177.869339 C219.520904,167.615659 224.687704,159.85311 229.360556,152.631431 C242.411834,132.461273 236.640842,105.529977 216.470684,92.4786982 C196.300526,79.4274194 169.369231,85.1984114 156.317952,105.368569 C152.01663,112.016067 147.133785,119.352005 140.501233,129.170856 C138.441792,132.219661 126.231404,150.225671 122.63912,155.553704 C119.682696,159.938637 117.01297,163.920614 114.470577,167.741357 C100.14347,189.272338 89.4666072,206.298782 80.8134122,221.874532 L78.5944189,226.489299 C45.5612359,307.007682 34.9804823,415.166496 46.6442638,513.142261 C49.484256,536.998195 71.1255803,554.034982 94.9815145,551.19499 C118.837449,548.354998 135.874236,526.713674 133.034244,502.857739 C123.129015,419.653816 131.941112,327.375156 158.128435,261.870423 C165.26165,249.241037 174.496324,234.579068 186.90066,215.937655 Z" id="Path" fill="#EBBAAA"></path>
                    <rect id="Rectangle" fill="#EBBAAA" x="248.647254" y="23.016" width="76.8567" height="115.285" rx="38.4283"></rect>
                    <path d="M413.80703,291.963117 C413.873986,292.010752 413.941016,292.058301 414.00812,292.105766 C413.900251,292.029467 413.809416,291.964566 413.734559,291.911152 L413.80703,291.963117 Z M413.734559,291.911152 C413.412064,291.681035 413.386133,291.664119 413.572323,291.867562 C414.346926,292.713937 415.350008,293.988883 416.505625,295.655958 C419.412335,299.84913 422.688261,305.655137 426.079119,312.760113 C433.441497,328.186745 440.68724,348.312525 446.746998,370.396718 C459.835576,418.096757 465.516091,467.482458 461.203272,500.416717 C458.11971,523.963919 474.708768,545.55242 498.25597,548.635982 C521.803173,551.719544 543.391673,535.130486 546.475236,511.583283 C552.480258,465.726745 545.549061,405.467766 529.68151,347.640032 C522.346352,320.907769 513.399208,296.056175 503.693139,275.718731 C491.985724,251.187803 479.384109,233.008919 463.670388,221.894234 C463.118236,221.503685 462.125653,220.480883 460.830068,218.676742 C458.968073,216.083859 457.004011,212.553566 455.042727,208.144586 C450.935325,198.911117 447.248342,186.805955 443.83739,171.710642 C440.843074,158.459174 433.05727,114.675516 432.858108,113.680138 C432.524488,112.012763 432.196019,110.429486 431.868063,108.91269 C426.84928,85.7008196 403.963814,70.9524081 380.751944,75.9711909 C357.540073,80.9899737 342.791662,103.87544 347.810445,127.08731 C348.040507,128.151351 348.279593,129.303785 348.529583,130.553192 C348.377296,129.792087 356.430739,175.080817 359.95225,190.665414 C364.500237,210.792722 369.721927,227.93666 376.46643,243.098348 C385.695759,263.845942 397.566891,280.409262 413.80703,291.963117 L413.734559,291.911152 Z" id="Path" fill="#EBBAAA"></path>
                    <rect id="Rectangle" fill="#33363F" transform="translate(144.171747, 288.652754) rotate(12.000000) translate(-144.171747, -288.652754) " x="50.0972473" y="75.9102543" width="188.149" height="425.485" rx="94.0745"></rect>
                    <path d="M123.832254,154 C123.832254,107.608 161.440254,70 207.832254,70 L229.320254,70 C238.186254,70 246.263254,75.096 250.080254,83.099 L274.832254,135 L262.832254,333 L274.412254,619.6 C274.641254,625.27 270.101254,630 264.420254,630 L133.832254,630 C128.310254,630 123.832254,625.52 123.832254,620 L123.832254,308 L123.832254,154 Z" id="Path" fill="#3E414A"></path>
                    <rect id="Rectangle" fill="#33363F" transform="translate(434.316973, 303.424431) scale(-1, 1) rotate(12.000013) translate(-434.316973, -303.424431) " x="340.24243" y="84.7813312" width="188.149086" height="437.286199" rx="94.0745428"></rect>
                    <rect id="Rectangle" fill="#2E3137" transform="translate(76.500000, 473.074671) rotate(17.000000) translate(-76.500000, -473.074671) " x="9" y="435.074671" width="135" height="76" rx="8"></rect>
                    <rect id="Rectangle" fill="#2E3137" transform="translate(504.499802, 476.074700) scale(-1, 1) rotate(17.000012) translate(-504.499802, -476.074700) " x="436.999781" y="438.074688" width="135.000043" height="76.0000243" rx="8"></rect>
                    <path d="M134.339254,83.5 C158.839254,69.5 181.686254,107 191.686254,119 C204.686254,104.667 221.939254,80.7 220.339254,69.5 C213.339254,66 199.339254,64 170.339254,44 L158.839254,53 C140.839254,57 124.394254,89.183 134.339254,83.5 Z" id="Path" fill="#2E3137"></path>
                    <path d="M202.839254,111 L202.839254,279 C202.839254,282.865993 205.973261,286 209.839254,286 C213.705247,286 216.839254,282.865993 216.839254,279 L216.839254,111 C216.839254,107.134007 213.705247,104 209.839254,104 C205.973261,104 202.839254,107.134007 202.839254,111 Z" id="Path" fill="#85899C"></path>
                    <path d="M204.839254,277 L204.839254,292 C204.839254,294.761424 207.07783,297 209.839254,297 C212.600678,297 214.839254,294.761424 214.839254,292 L214.839254,277 C214.839254,274.238576 212.600678,272 209.839254,272 C207.07783,272 204.839254,274.238576 204.839254,277 Z" id="Path" fill="#C6C8D2"></path>
                    <path d="M455.408254,144.589 C452.380254,104.038 415.979254,74.309 375.641254,79.443 L344.704254,83.381 C341.497254,83.789 338.411254,84.869 335.649254,86.55 L293.839254,112 L247.839254,192 L247.839254,620 C247.839254,625.52 252.316254,630 257.839254,630 L468.463254,630 C474.131254,630 478.666254,625.29 478.457254,619.63 L466.339254,291 L455.408254,144.589 Z" id="Path" fill="#3E414A"></path>
                    <path d="M389.840254,185 C403.832254,185 415.941254,189.068 425.719254,196.846 C435.798254,204.864 440.839254,214.436 440.839254,225.624 L440.839254,241 L420.380254,241 L420.380254,225.145 C420.380254,218.924 417.597254,213.539 411.955254,209.111 C410.600254,207.975 409.172254,207.077 407.517254,206.18 C403.004254,203.727 397.664254,202.65 392.098254,202.65 L389.841254,202.65 L389.840254,185 Z M418.422254,241 L402.476254,241 L402.476254,228.735 C402.476254,226.701 401.649254,225.145 399.919254,223.829 C398.264254,222.454 396.008254,221.795 393.751254,221.795 L389.840254,221.795 L389.840254,204.205 L392.097254,204.205 C397.963254,204.205 403.002254,205.522 407.516254,208.214 C408.645254,208.633 409.773254,209.53 410.599254,210.188 C415.941254,214.437 418.422254,219.343 418.422254,225.146 L418.422254,241 Z M400.521254,241 L389.839254,241 L389.839254,223.352 L393.751254,223.352 C395.481254,223.352 397.136254,223.829 398.564254,224.907 C399.693254,225.804 400.521254,227.18 400.521254,228.735 L400.521254,241 Z" id="Shape" fill="#FFFFFF"></path>
                    <path d="M341.839254,409.708 C341.839254,407.617 343.451254,405.878 345.537254,405.72 L469.689254,396.314 C471.954254,396.143 473.907254,397.889 473.989254,400.159 L478.696254,531.034 C478.775254,533.229 477.069254,535.078 474.874254,535.174 L346.014254,540.817 C343.738254,540.917 341.839254,539.099 341.839254,536.821 L341.839254,409.708 Z" id="Path" fill="#2F3137"></path>
                    <path d="M356.839254,129 L356.839254,297 C356.839254,300.865993 359.973261,304 363.839254,304 C367.705247,304 370.839254,300.865993 370.839254,297 L370.839254,129 C370.839254,125.134007 367.705247,122 363.839254,122 C359.973261,122 356.839254,125.134007 356.839254,129 Z" id="Path" fill="#85899C"></path>
                    <path d="M358.839254,295 L358.839254,310 C358.839254,312.761424 361.07783,315 363.839254,315 C366.600678,315 368.839254,312.761424 368.839254,310 L368.839254,295 C368.839254,292.238576 366.600678,290 363.839254,290 C361.07783,290 358.839254,292.238576 358.839254,295 Z" id="Path" fill="#C6C8D2"></path>
                    <path d="M341.839254,402.877 C341.839254,400.703 343.576254,398.927 345.749254,398.878 L470.215254,396.081 C472.271254,396.035 474.028254,397.557 474.276254,399.599 L478.302254,432.797 C478.589254,435.159 476.763254,437.248 474.383254,437.279 L345.891254,438.947346 C343.662254,438.976 341.839254,437.177 341.839254,434.948 L341.839254,402.877 Z" id="Path" fill="#474952"></path>
                    <path d="M224.839254,409.634 C224.839254,407.573 223.273254,405.85 221.222254,405.652 L125.040254,396.409 C122.736254,396.188 120.725254,397.963 120.659254,400.278 L116.949254,531.109 C116.888254,533.275 118.562254,535.096 120.726254,535.216 L220.617254,540.765 C222.910254,540.893 224.839254,539.068 224.839254,536.772 L224.839254,409.634 Z" id="Path" fill="#2D2E32"></path>
                    <path d="M234.839254,402.865 C234.839254,400.696 233.110254,398.922 230.941254,398.866 L121.941254,396.094 C119.859254,396.041 118.084254,397.595 117.862254,399.666 L114.306254,432.86 C114.055254,435.2 115.871254,437.251 118.225254,437.285 L230.780254,438.94 C233.012254,438.973 234.839254,437.173 234.839254,434.941 L234.839254,402.865 Z" id="Path" fill="#474952"></path>
                    <path d="M246.839254,174 L306.839254,174 L306.839254,631 C306.839254,634.31 304.153254,637 300.839254,637 L252.839254,637 C249.525254,637 246.839254,634.31 246.839254,631 L246.839254,174 Z" id="Path" fill="#2E3137"></path>
                    <path d="M438.839254,91 C427.639254,88.6 404.839254,112 394.839254,124 C381.839254,109.667 356.239254,78.2 357.839254,67 C366.339254,67 382.339254,71.5 405.339254,37 L411.839254,53 C425.506254,66.667 450.039254,93.4 438.839254,91 Z" id="Path" fill="#2E3137"></path>
                </g>
                <g id="head" transform="translate(65.767500, 0.000000)" fill-rule="nonzero">
                    <ellipse id="Oval" fill="#EBBAAA" cx="58.0695" cy="313.809" rx="58.0695" ry="55.0806"></ellipse>
                    <ellipse id="Oval" fill="#EBBAAA" cx="385.1375" cy="318.079" rx="58.0695" ry="55.0806"></ellipse>
                    <path d="M51.2065,211.555 C47.4005,115.194 124.4895,35 220.9255,35 C317.5925,35 394.7705,115.565 390.6195,212.144 L385.0125,342.596 C381.2305,430.6 308.7835,500 220.6985,500 C132.3915,500 59.8455,430.263 56.3595,342.025 L51.2065,211.555 Z" id="Path" fill="#EED4CC"></path>
                    <path d="M176.124158,400.044347 C207.255994,413.781377 229.400069,414.590869 263.265541,400.077095 C267.174112,398.401993 268.984697,393.875531 267.309595,389.966959 C265.634493,386.058388 261.108031,384.247803 257.199459,385.922905 C227.430952,398.680837 209.711597,398.033094 182.340842,385.955653 C178.450357,384.238963 173.904844,386.001173 172.188153,389.891658 C170.471463,393.782143 172.233673,398.327656 176.124158,400.044347 Z" id="Path" fill="#C99584"></path>
                    <path d="M180.5975,213.174 L117.5925,208.097 C116.8495,208.037 116.1365,208.395 115.7395,209.025 L103.0895,229.106 C102.2665,230.413 103.1715,232.119 104.7155,232.171 L183.8285,234.819 C186.5155,234.909 188.5245,232.375 187.8235,229.779 L184.1385,216.119 C183.6985,214.488 182.2815,213.309 180.5975,213.174 Z" id="Path" fill="#4B362D"></path>
                    <path d="M255.9275,213.177 L319.7085,208.096 C320.4465,208.037 321.1565,208.39 321.5545,209.015 L334.3485,229.097 C335.1805,230.403 334.2755,232.119 332.7275,232.171 L252.6505,234.821 C249.9595,234.91 247.9505,232.368 248.6595,229.77 L252.3865,216.111 C252.8305,214.484 254.2475,213.311 255.9275,213.177 Z" id="Path" fill="#4B362D"></path>
                    <path d="M152.4845,278.728 L152.4845,306.995 C152.4845,313.622417 157.857083,318.995 164.4845,318.995 C171.111917,318.995 176.4845,313.622417 176.4845,306.995 L176.4845,278.728 C176.4845,272.100583 171.111917,266.728 164.4845,266.728 C157.857083,266.728 152.4845,272.100583 152.4845,278.728 Z" id="Path" fill="#583B2F"></path>
                    <path d="M270.3305,278.728 L270.3305,306.995 C270.3305,313.622417 275.703083,318.995 282.3305,318.995 C288.957917,318.995 294.3305,313.622417 294.3305,306.995 L294.3305,278.728 C294.3305,272.100583 288.957917,266.728 282.3305,266.728 C275.703083,266.728 270.3305,272.100583 270.3305,278.728 Z" id="Path" fill="#583B2F"></path>
                    <rect id="Rectangle" fill="#754936" x="38.2325" y="147" width="23" height="123" rx="11.5"></rect>
                    <path d="M372.2325,84.3446718 C390.881691,116.487086 398.2325,154.126067 398.2325,188 L376.2325,221.5 C376.2325,221.5 371.2325,206.5 365.7325,197 C360.2325,187.5 346.7325,175 346.7325,175 C344.2325,152.5 349.7325,121 335.2325,108 C321.006649,102.101442 291.732106,97.3649198 258.102449,94.7112261 L226.8975,114.483 C228.464914,106.310377 229.363266,99.2237334 229.722561,93.0189515 C225.415244,92.8422856 221.086554,92.7005561 216.756076,92.5954491 L192.2325,109.239 C192.2325,109.239 192.264478,102.892279 192.475135,93.0353882 L161.2325,114.239 C161.2325,114.239 161.274611,105.88122 161.580521,93.4521599 C145.197184,94.4692785 130.235855,96.2341296 118.068723,98.8648686 L95.2325,118.239 C95.2325,118.239 95.2547518,113.822714 95.3844064,106.636606 C94.6203092,107.079562 93.9024087,107.533975 93.2325,108 C79.2325,117.739 80.8995,144.5 72.2325,171.5 C54.7325,196 35.8325,221.4 38.2325,167 C40.3589297,118.799232 55.6256524,81.4014976 82.1107505,54.9256544 L91.7325,39 L98.9353126,40.6370029 C101.776213,38.5898479 104.70934,36.6357954 107.733187,34.7749388 L117.2325,22 L125.955042,25.1718336 C127.737675,24.3735702 129.544987,23.6015366 131.376753,22.8557466 L145.2325,9 L149.076033,16.6870666 C149.363007,16.602573 149.650479,16.5186312 149.938449,16.435241 L159.2325,9 L168.2325,9 L181.2325,0 L192.511701,8.45940108 C193.284918,8.38295195 194.060665,8.30950409 194.838933,8.23905803 L212.2325,0 L220.026773,7.01484568 C221.091354,7.00494893 222.159936,7 223.2325,7 C223.639731,7 224.046102,7.00093281 224.451617,7.002795 L232.2325,0 L237.149942,7.37616228 C238.659952,7.4592666 240.15717,7.55593762 241.641681,7.6659725 L261.2325,0 L261.2325,9 L278.2325,9 L281.708029,14.5608462 C283.456875,15.0564853 285.182275,15.5746158 286.88447,16.114674 L299.7325,13 L308.161148,24.5339387 C309.157865,25.0141169 310.144823,25.502859 311.122093,26 L325.2325,26 L328.408283,36.3212946 C329.671192,37.1984326 330.914082,38.0915096 332.137178,39 L347.2325,39 L347.2325,51.9221263 C348.593113,53.2599154 349.922289,54.6195854 351.220512,56 L361.2325,56 L361.2325,67 L372.2325,71.5 L372.2325,84.3446718 Z" id="Combined-Shape" fill="#754936"></path>
                    <rect id="Rectangle" fill="#754936" x="375.2325" y="162" width="23" height="122" rx="11.5"></rect>
                    <path d="M206.270478,304.84398 C205.950359,307.175881 205.518023,308.460003 201.695345,318.90619 C200.774721,321.421969 200.085961,323.375337 199.451621,325.305441 C196.153306,335.341209 195.014692,342.785855 196.929696,349.552079 C199.709337,359.373299 208.360897,364.5 221.2325,364.5 L221.2325,347.5 C217.774838,347.5 215.512874,347.002308 214.290103,346.277724 C213.723086,345.941724 213.485304,345.622555 213.287177,344.92252 C212.570309,342.389631 213.300525,337.615222 215.601756,330.613279 C216.166785,328.894068 216.798595,327.102213 217.659989,324.748291 C222.232535,312.252947 222.53695,311.348778 223.112522,307.15602 L206.270478,304.84398 Z" id="Path" fill="#EBBAAA"></path>
                    <path d="M201.350104,292.093033 C201.393694,292.058269 201.625209,291.895139 202.039055,291.642741 C202.820325,291.166258 203.774899,290.676307 204.897913,290.21057 C208.214531,288.835102 212.161293,288 216.7325,288 C221.253225,288 225.098257,288.87382 228.288486,290.310846 C229.364441,290.795506 230.272594,291.304567 231.010154,291.798488 C231.39631,292.057084 231.606766,292.220782 231.63776,292.248213 C233.705632,294.078341 236.865585,293.885611 238.695713,291.81774 C240.525841,289.749868 240.333111,286.589915 238.26524,284.759787 C237.907547,284.443218 237.344049,284.004916 236.574408,283.489512 C235.385641,282.693433 233.992465,281.912494 232.395514,281.193154 C227.948868,279.19018 222.711775,278 216.7325,278 C210.803707,278 205.562969,279.108898 201.067087,280.97343 C199.455726,281.641693 198.043112,282.366742 196.832195,283.105259 C196.050729,283.581861 195.477556,283.985731 195.114896,284.274967 C192.955996,285.996772 192.601661,289.142705 194.323467,291.301604 C196.045272,293.460504 199.191205,293.814839 201.350104,292.093033 Z" id="Path" fill="#2E2622"></path>
                    <path d="M203.2325,288.7 C203.2325,304.446586 198.743571,318.670935 189.975123,329.013618 C180.127451,340.627639 165.298191,347 145.8345,347 C122.239233,347 106.270695,340.75429 96.6801781,329.013088 C88.6470033,319.178697 85.2325,305.822526 85.2325,288.7 C85.2325,273.765143 89.9203887,263.619054 99.789095,257.187338 C109.455165,250.886451 124.287732,248 145.8345,248 C168.96104,248 184.183901,252.350541 193.057997,260.587328 C200.351203,267.356779 203.2325,276.401996 203.2325,288.7 Z M193.2325,288.7 C193.2325,278.925484 191.182662,272.490455 186.255008,267.916677 C179.531178,261.67573 166.669531,258 145.8345,258 C126.052627,258 112.940174,260.551713 105.249529,265.564907 C98.4353308,270.005913 95.2325,276.937863 95.2325,288.7 C95.2325,303.729187 98.0993396,314.943117 104.424859,322.686957 C111.931934,331.877504 125.028727,337 145.8345,337 C162.455721,337 174.470018,331.837272 182.347652,322.546648 C189.467194,314.148907 193.2325,302.217547 193.2325,288.7 Z" id="Path" fill="#2E2622"></path>
                    <path d="M231.2325,288.7 C231.2325,304.446586 235.721429,318.670935 244.489652,329.013352 C254.337549,340.627639 269.166809,347 288.6305,347 C312.225767,347 328.194305,340.75429 337.784859,329.013043 C345.817997,319.178697 349.2325,305.822526 349.2325,288.7 C349.2325,273.765143 344.544611,263.619054 334.675529,257.187093 C325.009835,250.886451 310.177268,248 288.6305,248 C265.50396,248 250.281099,252.350541 241.407008,260.587323 C234.113797,267.356779 231.2325,276.401996 231.2325,288.7 Z M241.2325,288.7 C241.2325,278.925484 243.282338,272.490455 248.209997,267.916672 C254.933822,261.67573 267.795469,258 288.6305,258 C308.412373,258 321.524826,260.551713 329.215095,265.564662 C336.029669,270.005913 339.2325,276.937863 339.2325,288.7 C339.2325,303.729187 336.36566,314.943117 330.040178,322.686912 C322.533066,331.877504 309.436273,337 288.6305,337 C272.009279,337 259.994982,331.837272 252.117123,322.546382 C244.997806,314.148907 241.2325,302.217547 241.2325,288.7 Z" id="Path" fill="#2E2622"></path>
                    <path d="M115.2325,554.258 C177.2325,542.126 202.0865,583.687 220.2325,612.5 C220.2325,603.907 225.2325,577.5 220.2325,561.5 C214.8865,544.393 191.2325,495.5 159.2325,476 C131.2325,483.5 115.2325,533.027 115.2325,554.258 Z" id="Path" fill="#484C58"></path>
                    <path d="M349.2325,572 C267.2325,556 206.2325,633 182.2325,671 C182.2325,659.667 175.8965,657.35 182.2325,613 C191.2325,550 247.5655,487.667 286.2325,477 C319.2325,500 341.2325,544 349.2325,572 Z" id="Path" fill="#474952"></path>
                </g>
            </g>
        </g>
    </g>
</svg>