<?xml version="1.0" encoding="UTF-8"?>
<svg width="623px" height="1393px" viewBox="0 0 623 1393" version="1.1" xmlns="http://www.w3.org/2000/svg" xmlns:xlink="http://www.w3.org/1999/xlink">
    <!-- Generator: Sketch 55.2 (78181) - https://sketchapp.com -->
    <title>gee_me_088</title>
    <desc>Created with Sketch.</desc>
    <defs>
        <path d="M143.603,17.52 C154.55,17.67 171.261,14.06 180.367,1.44 C181.168,0.33 182.805,0.16 183.737,1.16 C191.926,9.96 186.62,4.95 189.91,20.1 C193.157,35.06 195.898,32.92 199.145,46.8 C201.392,56.42 208.673,78.84 199.145,78.84 L155.688,78.84 C145.406,78.84 131.519,90.79 97.281,94.14 C40.4455,99.71 26.5568,92.09 15.2086,88.49 C-10.61221,80.3 2.4914,61.56 15.2086,55.58 C33.8385,46.8 60.538,40.21 74.1192,32.95 C84.6946,27.29 88.3262,25.53 93.756,19.58 C100.685,11.98 103.624,7.13 105.822,3.35 C106.737,1.77 109.225,2.12 110.197,3.66 C116.2,13.18 133.495,17.39 143.603,17.52 Z" id="path-1"></path>
        <path d="M60.434,17.12 C49.487,17.26 32.776,13.66 23.67,1.04 C22.869,-0.07 21.232,-0.24 20.3,0.76 C12.111,9.56 17.417,4.55 14.127,19.7 C10.88,34.65 8.139,32.52 4.892,46.4 C2.645,56.01 -4.636,78.44 4.892,78.44 L48.349,78.44 C58.631,78.44 72.518,90.39 106.756,93.74 C163.591,99.31 177.48,91.68 188.828,88.08 C214.649,79.89 201.546,61.16 188.828,55.17 C170.199,46.4 143.499,39.81 129.918,32.55 C119.342,26.89 115.711,25.13 110.281,19.18 C103.352,11.58 100.413,6.72 98.215,2.94 C97.3,1.37 94.812,1.72 93.84,3.26 C87.837,12.78 70.542,16.99 60.434,17.12 Z" id="path-3"></path>
        <path d="M77.119,0 C77.455,2.046 77.629,4.146 77.629,6.287 L77.629,20.47 C77.629,41.77 60.362,59.037 39.062,59.037 C17.762,59.037 0.494,41.77 0.494,20.47 L0.494,6.287 C0.494,4.146 0.669,2.046 1.004,0 L77.119,0 Z" id="path-5"></path>
    </defs>
    <g id="GEE!-ME" stroke="none" stroke-width="1" fill="none" fill-rule="evenodd">
        <g id="gee_me_088" transform="translate(-290.000000, -103.000000)">
            <g transform="translate(289.000000, 103.000000)">
                <g id="lower-limb" transform="translate(8.332157, 873.455035)">
                    <path d="M324.435026,450.442467 L324.111158,449.853621 C323.474972,448.493976 322.744024,447.159805 321.916445,445.859528 C323.051421,447.64278 323.852341,449.126054 324.435026,450.442467 Z M325.833141,454.304966 L325.762309,453.356787 L325.694355,452.259853 L325.63093,451.012686 C325.485022,447.833017 325.40645,443.698 325.403423,438.730948 L325.40882,436.040302 L325.428148,433.201458 C325.539686,420.853344 326.024901,404.914417 326.841786,386.06432 L326.989377,382.707751 C328.66577,345.114973 331.573818,297.582591 334.491952,257.354893 C335.889193,238.093349 321.407314,221.346096 302.145771,219.948855 C282.884227,218.551615 266.136974,233.033494 264.739733,252.295037 L264.105762,261.149906 L263.641286,267.784685 C261.119034,304.155366 258.71977,344.355144 257.216011,377.530434 L256.964594,383.203986 L256.716995,389.079682 C255.974584,407.2056 255.547615,422.6409 255.477966,434.950442 L255.469007,437.26927 C255.452135,445.688903 255.613094,452.603524 255.988791,458.113924 C256.223568,461.557431 256.547488,464.587056 257.025001,467.388947 C258.014199,473.19325 259.385078,477.860736 262.917241,483.410402 C273.286629,499.702582 294.9001,504.503954 311.19228,494.134566 C324.789891,485.480175 330.383312,468.993455 325.833141,454.304966 Z" id="Path" fill="#000000" fill-rule="nonzero"></path>
                    <path d="M180.819545,410.076277 L180.748684,409.127493 L180.680748,408.030524 L180.619643,406.833276 C180.459496,403.369854 180.379689,398.765098 180.390928,393.17986 L180.398931,391.113593 L180.422272,388.188967 C180.554392,375.217781 181.087995,358.394585 181.976125,338.479046 L182.255954,332.354733 L182.474832,327.746476 C184.193451,292.11029 186.83163,249.617632 189.477963,213.134749 C190.875124,193.873199 176.393176,177.126006 157.131627,175.728845 C137.870078,174.331684 121.122884,188.813632 119.725723,208.075181 L119.091846,216.929234 L118.608716,223.833468 C116.146127,259.372714 113.80256,298.539792 112.297786,331.221865 L111.951345,338.975102 L111.802959,342.457086 C110.982969,362.010689 110.518647,378.534144 110.460581,391.501804 L110.45557,393.039132 C110.439212,401.168255 110.588613,407.894387 110.936984,413.308221 L110.975072,413.883257 C111.20977,417.326591 111.533593,420.356043 112.01097,423.157737 C112.999889,428.961633 114.370374,433.628665 117.901765,439.178082 C128.269871,455.471077 149.882964,460.274149 166.17596,449.906043 C179.774658,441.252462 185.369304,424.765456 180.819545,410.076277 Z" id="Path" fill="#000000" fill-rule="nonzero"></path>
                    <polygon id="Path" fill="#764047" fill-rule="nonzero" points="372.649843 34.1349647 246.285843 45.8339647 246.285843 403.954965 337.818843 403.954965"></polygon>
                    <polygon id="Path" fill="#593036" fill-rule="nonzero" points="337.668843 402.924965 340.753843 382.354965 246.134843 382.354965 246.134843 402.924965"></polygon>
                    <ellipse id="Oval" fill="#764047" fill-rule="nonzero" transform="translate(228.345843, 63.454965) scale(-1, 1) translate(-228.345843, -63.454965) " cx="228.345843" cy="63.4549647" rx="121.664" ry="62.6595"></ellipse>
                    <polygon id="Path" fill="#764047" fill-rule="nonzero" points="226.594843 46.6659647 97.0978429 46.6659647 98.1268429 406.324965 191.928843 406.324965"></polygon>
                    <polygon id="Path" fill="#593036" fill-rule="nonzero" points="193.683843 406.004965 196.768843 385.434965 95.9798429 385.434965 95.9798429 406.004965"></polygon>
                    <path d="M434.162843,498.994965 C436.093843,494.224965 434.703843,487.674965 433.622843,485.894965 C432.540843,484.114965 301.210843,475.914965 301.210843,475.914965 C279.412843,474.134965 236.205843,466.654965 233.218843,479.544965 C229.525843,495.484965 229.694843,499.084965 232.211843,511.424965 C236.239843,515.544965 276.989843,519.144965 290.201843,516.054965 C290.201843,508.854965 291.229843,504.224965 291.229843,504.224965 C291.229843,504.224965 298.594843,508.894965 307.234843,510.914965 C324.857843,515.024965 328.232843,519.144965 382.816843,519.144965 C426.595843,515.024965 429.838843,509.684965 434.162843,498.994965 Z" id="Path" fill="#272727" fill-rule="nonzero"></path>
                    <path d="M292.129843,429.664965 C281.182843,429.804965 264.471843,426.204965 255.365843,413.584965 C254.565843,412.474965 252.928843,412.304965 251.996843,413.304965 C243.807843,422.104965 249.112843,417.094965 245.822843,432.244965 C242.576843,447.194965 239.835843,445.064965 236.588843,458.944965 C234.340843,468.554965 227.060843,490.984965 236.588843,490.984965 L280.045843,490.984965 C290.327843,490.984965 304.213843,502.934965 338.452843,506.284965 C395.287843,511.854965 409.176843,504.224965 420.524843,500.624965 C446.345843,492.434965 433.241843,473.704965 420.524843,467.714965 C401.894843,458.944965 375.194843,452.354965 361.613843,445.094965 C351.038843,439.434965 347.406843,437.674965 341.976843,431.724965 C335.047843,424.124965 332.109843,419.264965 329.911843,415.484965 C328.995843,413.914965 326.508843,414.264965 325.536843,415.804965 C319.533843,425.324965 302.237843,429.534965 292.129843,429.664965 Z" id="Path" fill="#8E5742" fill-rule="nonzero"></path>
                    <path d="M324.050621,440.964206 C322.592826,443.117353 324.620624,445.916165 327.120772,445.201698 L339.992808,441.523258 L334.89501,448.609182 C333.416441,450.664388 335.226482,453.466293 337.707835,452.963374 L351.510418,450.165875 L344.996793,456.463566 C343.891451,457.532264 343.861745,459.294673 344.930444,460.400015 C345.999143,461.505357 347.761551,461.535062 348.866893,460.466364 L362.229893,447.546364 C364.230264,445.612307 362.468859,442.263848 359.741851,442.816556 L343.562086,446.09586 L349.191676,438.270748 C350.733335,436.127847 348.705142,433.242883 346.166913,433.968232 L332.954859,437.743838 L339.460065,428.135723 C340.968517,425.907757 338.752716,423.048483 336.218786,423.953169 L322.655594,428.795622 L323.951206,427.492251 L324.47518,426.953875 C324.888327,426.525021 325.2491,426.138771 325.605298,425.743531 C327.148174,424.031541 328.227518,422.537992 328.899726,421.025749 C329.524241,419.620801 328.891575,417.975596 327.486627,417.351081 C326.081679,416.726566 324.436474,417.359233 323.811959,418.764181 C323.425083,419.634522 322.653805,420.701782 321.469313,422.016107 L321.015204,422.511321 L320.649279,422.899092 C320.268125,423.298559 319.835663,423.739134 319.301343,424.275015 L317.730984,425.847849 L316.920684,426.667892 C315.92257,427.687044 315.499205,428.16634 314.860809,428.948438 C313.282011,430.882623 312.411958,432.574618 312.411958,434.414965 C312.411958,436.33999 314.318957,437.684034 316.1319,437.03676 L330.081784,432.056247 L324.050621,440.964206 Z" id="Path" fill="#60391C" fill-rule="nonzero"></path>
                    <path d="M340.656843,457.944965 C330.586843,448.694965 323.098843,444.064965 315.041843,433.774965 C310.678843,433.774965 304.917843,434.294965 288.301843,434.294965 C266.651843,434.294965 260.911843,425.034965 251.344843,414.234965 C244.078843,418.864965 247.820843,428.634965 242.785843,442.004965 C238.757843,452.704965 231.204843,468.744965 231.204843,488.284965 C234.729843,494.454965 269.471843,491.374965 280.548843,491.374965 C283.066843,479.034965 302.700843,468.744965 311.442843,466.174965 C319.115843,463.914965 328.068843,463.094965 340.656843,457.944965 Z" id="Path" fill="#714433" fill-rule="nonzero"></path>
                    <path d="M1.21014287,499.404965 C-0.721387134,494.624965 0.668572866,488.074965 1.75020287,486.294965 C2.83184287,484.514965 134.161843,476.324965 134.161843,476.324965 C155.959843,474.544965 199.166843,467.054965 202.153843,479.944965 C205.846843,495.884965 205.677843,499.484965 203.160843,511.824965 C199.132843,515.944965 158.382843,519.544965 145.170843,516.454965 C145.170843,509.254965 144.142843,504.634965 144.142843,504.634965 C144.142843,504.634965 136.777843,509.294965 128.137843,511.314965 C110.514843,515.424965 107.139843,519.544965 52.5557429,519.544965 C8.77694287,515.424965 5.53364287,510.084965 1.21014287,499.404965 Z" id="Path" fill="#272727" fill-rule="nonzero"></path>
                    <path d="M143.242843,430.064965 C154.189843,430.214965 170.900843,426.604965 180.006843,413.984965 C180.806843,412.874965 182.443843,412.704965 183.375843,413.704965 C191.564843,422.504965 186.259843,417.494965 189.549843,432.644965 C192.795843,447.604965 195.536843,445.464965 198.783843,459.344965 C201.031843,468.964965 208.311843,491.384965 198.783843,491.384965 L155.326843,491.384965 C145.044843,491.384965 131.158843,503.334965 96.9198429,506.684965 C40.0849429,512.254965 26.1962429,504.634965 14.8480429,501.034965 C-10.9728071,492.844965 2.13076287,474.104965 14.8479429,468.124965 C33.4778429,459.344965 60.1774429,452.754965 73.7586429,445.494965 C84.3339429,439.834965 87.9655429,438.074965 93.3958429,432.124965 C100.324843,424.524965 103.262843,419.674965 105.460843,415.894965 C106.376843,414.314965 108.863843,414.664965 109.835843,416.204965 C115.838843,425.724965 133.134843,429.934965 143.242843,430.064965 Z" id="Path" fill="#8E5742" fill-rule="nonzero"></path>
                    <path d="M99.1528408,424.362791 C96.6186961,423.459182 94.4040645,426.319 95.9130753,428.546394 L102.414512,438.142922 L89.205462,434.368229 C86.6672162,433.642885 84.6390347,436.52789 86.1807334,438.67078 L91.8129826,446.499349 L75.6297023,443.226326 C72.9025211,442.674762 71.1424884,446.023825 73.143545,447.95709 L86.506245,460.86709 C87.6119884,461.935374 89.3743853,461.905006 90.4426686,460.799263 C91.5109518,459.693519 91.4805843,457.931122 90.3748408,456.862839 L83.863501,450.57209 L97.6659834,453.363603 C100.147011,453.865384 101.955933,451.063892 100.477652,449.009149 L95.3797296,441.923269 L108.251924,445.6017 C110.752457,446.316267 112.780255,443.516586 111.32161,441.363535 L105.291588,432.462845 L119.241845,437.437138 C121.054601,438.083519 122.960728,436.739515 122.960728,434.814965 C122.960728,433.066635 122.175505,431.452194 120.74336,429.636798 L120.335037,429.132966 L119.98971,428.721812 C119.497029,428.14667 118.993672,427.61306 117.995874,426.604826 L115.621904,424.222368 L115.110194,423.700546 C114.790545,423.371671 114.510151,423.076814 114.246653,422.792004 L113.903373,422.416107 C112.803487,421.195663 112.059893,420.188248 111.649523,419.353715 L111.560726,419.164181 C110.936211,417.759233 109.291007,417.126566 107.886059,417.751081 C106.481111,418.375596 105.848445,420.020801 106.472959,421.425749 C107.145168,422.937992 108.224512,424.431541 109.767388,426.143531 L110.273912,426.696237 L110.690666,427.138138 C110.978632,427.440003 111.289906,427.759686 111.642774,428.116925 L112.722996,429.20155 L99.1528408,424.362791 Z" id="Path" fill="#60391C" fill-rule="nonzero"></path>
                    <path d="M94.7158429,458.354965 C104.785843,449.094965 112.273843,444.464965 120.330843,434.184965 C124.693843,434.184965 130.454843,434.694965 147.070843,434.694965 C168.720843,434.694965 174.460843,425.434965 184.026843,414.644965 C191.293843,419.264965 187.551843,429.034965 192.586843,442.404965 C196.614843,453.104965 204.167843,469.144965 204.167843,488.684965 C200.642843,494.864965 165.900843,491.774965 154.823843,491.774965 C152.305843,479.434965 132.671843,469.144965 123.929843,466.574965 C116.256843,464.324965 107.303843,463.494965 94.7158429,458.354965 Z" id="Path" fill="#714433" fill-rule="nonzero"></path>
                    <g id="Clipped" transform="translate(0.667843, 412.544965)">
                        <mask id="mask-2" fill="white">
                            <use xlink:href="#path-1"></use>
                        </mask>
                        <g id="Path"></g>
                        <g id="Group" mask="url(#mask-2)" fill="#6C3F2E" fill-rule="nonzero">
                            <g transform="translate(40.000000, 58.000000)" id="Oval">
                                <circle transform="translate(6.028200, 30.390000) rotate(-7.500000) translate(-6.028200, -30.390000) " cx="6.0282" cy="30.39" r="3.59962"></circle>
                                <circle transform="translate(17.244100, 28.910000) rotate(-7.500000) translate(-17.244100, -28.910000) " cx="17.2441" cy="28.91" r="3.59962"></circle>
                                <circle transform="translate(28.460200, 27.440000) rotate(-7.500000) translate(-28.460200, -27.440000) " cx="28.4602" cy="27.44" r="3.59962"></circle>
                                <circle transform="translate(39.677100, 25.960000) rotate(-7.500000) translate(-39.677100, -25.960000) " cx="39.6771" cy="25.96" r="3.59962"></circle>
                                <circle transform="translate(50.893000, 24.480000) rotate(-7.500000) translate(-50.893000, -24.480000) " cx="50.893" cy="24.48" r="3.59962"></circle>
                                <circle transform="translate(7.236400, 39.570000) rotate(-7.500000) translate(-7.236400, -39.570000) " cx="7.2364" cy="39.57" r="3.59962"></circle>
                                <circle transform="translate(18.452400, 38.090000) rotate(-7.500000) translate(-18.452400, -38.090000) " cx="18.4524" cy="38.09" r="3.59962"></circle>
                                <circle transform="translate(29.668300, 36.610000) rotate(-7.500000) translate(-29.668300, -36.610000) " cx="29.6683" cy="36.61" r="3.59962"></circle>
                                <circle transform="translate(40.885400, 35.140000) rotate(-7.500000) translate(-40.885400, -35.140000) " cx="40.8854" cy="35.14" r="3.59962"></circle>
                                <circle transform="translate(52.101000, 33.660000) rotate(-7.500000) translate(-52.101000, -33.660000) " cx="52.101" cy="33.66" r="3.59962"></circle>
                                <circle transform="translate(4.819700, 21.210000) rotate(-7.500000) translate(-4.819700, -21.210000) " cx="4.8197" cy="21.21" r="3.59962"></circle>
                                <circle transform="translate(16.036000, 19.740000) rotate(-7.500000) translate(-16.036000, -19.740000) " cx="16.036" cy="19.74" r="3.59962"></circle>
                                <circle transform="translate(27.252400, 18.260000) rotate(-7.500000) translate(-27.252400, -18.260000) " cx="27.2524" cy="18.26" r="3.59962"></circle>
                                <circle transform="translate(38.468800, 16.780000) rotate(-7.500000) translate(-38.468800, -16.780000) " cx="38.4688" cy="16.78" r="3.59962"></circle>
                                <circle transform="translate(49.684900, 15.310000) rotate(-7.500000) translate(-49.684900, -15.310000) " cx="49.6849" cy="15.31" r="3.59962"></circle>
                                <circle transform="translate(63.654000, 23.780000) rotate(-12.500000) translate(-63.654000, -23.780000) " cx="63.654" cy="23.78" r="3.59962"></circle>
                                <circle transform="translate(74.699000, 21.330000) rotate(-12.500000) translate(-74.699000, -21.330000) " cx="74.699" cy="21.33" r="3.59962"></circle>
                                <circle transform="translate(85.744000, 18.890000) rotate(-12.500000) translate(-85.744000, -18.890000) " cx="85.744" cy="18.89" r="3.59962"></circle>
                                <circle transform="translate(96.789000, 16.440000) rotate(-12.500000) translate(-96.789000, -16.440000) " cx="96.789" cy="16.44" r="3.59962"></circle>
                                <circle transform="translate(107.834000, 13.990000) rotate(-12.500000) translate(-107.834000, -13.990000) " cx="107.834" cy="13.99" r="3.59962"></circle>
                                <circle transform="translate(65.658000, 32.820000) rotate(-12.500000) translate(-65.658000, -32.820000) " cx="65.658" cy="32.82" r="3.59962"></circle>
                                <circle transform="translate(76.703000, 30.370000) rotate(-12.500000) translate(-76.703000, -30.370000) " cx="76.703" cy="30.37" r="3.59962"></circle>
                                <circle transform="translate(87.747000, 27.920000) rotate(-12.500000) translate(-87.747000, -27.920000) " cx="87.747" cy="27.92" r="3.59962"></circle>
                                <circle transform="translate(98.792000, 25.480000) rotate(-12.500000) translate(-98.792000, -25.480000) " cx="98.792" cy="25.48" r="3.59962"></circle>
                                <circle transform="translate(109.837000, 23.030000) rotate(-12.500000) translate(-109.837000, -23.030000) " cx="109.837" cy="23.03" r="3.59962"></circle>
                                <circle transform="translate(61.650000, 14.750000) rotate(-12.500000) translate(-61.650000, -14.750000) " cx="61.65" cy="14.75" r="3.59962"></circle>
                                <circle transform="translate(72.696000, 12.300000) rotate(-12.500000) translate(-72.696000, -12.300000) " cx="72.696" cy="12.3" r="3.59962"></circle>
                                <circle transform="translate(83.740000, 9.850000) rotate(-12.500000) translate(-83.740000, -9.850000) " cx="83.74" cy="9.85" r="3.59962"></circle>
                                <circle transform="translate(94.786000, 7.400000) rotate(-12.500000) translate(-94.786000, -7.400000) " cx="94.786" cy="7.4" r="3.59962"></circle>
                                <circle transform="translate(105.830000, 4.950000) rotate(-12.500000) translate(-105.830000, -4.950000) " cx="105.83" cy="4.95" r="3.59962"></circle>
                            </g>
                        </g>
                    </g>
                    <g id="Clipped" transform="translate(230.667843, 412.544965)">
                        <mask id="mask-4" fill="white">
                            <use xlink:href="#path-3"></use>
                        </mask>
                        <g id="Path"></g>
                        <g id="Group" mask="url(#mask-4)" fill="#6C3F2E" fill-rule="nonzero">
                            <g transform="translate(49.000000, 58.000000)" id="Oval">
                                <circle transform="translate(109.009000, 29.990000) scale(-1, 1) rotate(-7.499988) translate(-109.009000, -29.990000) " cx="109.009" cy="29.99" r="3.5996204"></circle>
                                <circle transform="translate(97.793000, 28.510000) scale(-1, 1) rotate(-7.499988) translate(-97.793000, -28.510000) " cx="97.793" cy="28.51" r="3.5996204"></circle>
                                <circle transform="translate(86.577000, 27.030000) scale(-1, 1) rotate(-7.499988) translate(-86.577000, -27.030000) " cx="86.577" cy="27.03" r="3.5996204"></circle>
                                <circle transform="translate(75.360000, 25.560000) scale(-1, 1) rotate(-7.499988) translate(-75.360000, -25.560000) " cx="75.36" cy="25.56" r="3.5996204"></circle>
                                <circle transform="translate(64.144000, 24.080000) scale(-1, 1) rotate(-7.499988) translate(-64.144000, -24.080000) " cx="64.144" cy="24.08" r="3.5996204"></circle>
                                <circle transform="translate(107.801000, 39.160000) scale(-1, 1) rotate(-7.499988) translate(-107.801000, -39.160000) " cx="107.801" cy="39.16" r="3.5996204"></circle>
                                <circle transform="translate(96.585000, 37.690000) scale(-1, 1) rotate(-7.499988) translate(-96.585000, -37.690000) " cx="96.585" cy="37.69" r="3.5996204"></circle>
                                <circle transform="translate(85.369000, 36.210000) scale(-1, 1) rotate(-7.499988) translate(-85.369000, -36.210000) " cx="85.369" cy="36.21" r="3.5996204"></circle>
                                <circle transform="translate(74.152000, 34.730000) scale(-1, 1) rotate(-7.499988) translate(-74.152000, -34.730000) " cx="74.152" cy="34.73" r="3.5996204"></circle>
                                <circle transform="translate(62.936000, 33.260000) scale(-1, 1) rotate(-7.499988) translate(-62.936000, -33.260000) " cx="62.936" cy="33.26" r="3.5996204"></circle>
                                <circle transform="translate(110.217000, 20.810000) scale(-1, 1) rotate(-7.499988) translate(-110.217000, -20.810000) " cx="110.217" cy="20.81" r="3.5996204"></circle>
                                <circle transform="translate(99.002000, 19.330000) scale(-1, 1) rotate(-7.499988) translate(-99.002000, -19.330000) " cx="99.002" cy="19.33" r="3.5996204"></circle>
                                <circle transform="translate(87.785000, 17.860000) scale(-1, 1) rotate(-7.499988) translate(-87.785000, -17.860000) " cx="87.785" cy="17.86" r="3.5996204"></circle>
                                <circle transform="translate(76.569000, 16.380000) scale(-1, 1) rotate(-7.499988) translate(-76.569000, -16.380000) " cx="76.569" cy="16.38" r="3.5996204"></circle>
                                <circle transform="translate(65.352000, 14.900000) scale(-1, 1) rotate(-7.499988) translate(-65.352000, -14.900000) " cx="65.352" cy="14.9" r="3.5996204"></circle>
                                <circle transform="translate(51.384000, 23.380000) scale(-1, 1) rotate(-12.500022) translate(-51.384000, -23.380000) " cx="51.384" cy="23.38" r="3.59962028"></circle>
                                <circle transform="translate(40.339000, 20.930000) scale(-1, 1) rotate(-12.500022) translate(-40.339000, -20.930000) " cx="40.339" cy="20.93" r="3.59962028"></circle>
                                <circle transform="translate(29.294000, 18.480000) scale(-1, 1) rotate(-12.500022) translate(-29.294000, -18.480000) " cx="29.294" cy="18.48" r="3.59962028"></circle>
                                <circle transform="translate(18.249000, 16.040000) scale(-1, 1) rotate(-12.500022) translate(-18.249000, -16.040000) " cx="18.249" cy="16.04" r="3.59962028"></circle>
                                <circle transform="translate(7.204000, 13.590000) scale(-1, 1) rotate(-12.500022) translate(-7.204000, -13.590000) " cx="7.204" cy="13.59" r="3.59962028"></circle>
                                <circle transform="translate(49.380000, 32.420000) scale(-1, 1) rotate(-12.500022) translate(-49.380000, -32.420000) " cx="49.38" cy="32.42" r="3.59962028"></circle>
                                <circle transform="translate(38.335000, 29.970000) scale(-1, 1) rotate(-12.500022) translate(-38.335000, -29.970000) " cx="38.335" cy="29.97" r="3.59962028"></circle>
                                <circle transform="translate(27.290000, 27.520000) scale(-1, 1) rotate(-12.500022) translate(-27.290000, -27.520000) " cx="27.29" cy="27.52" r="3.59962028"></circle>
                                <circle transform="translate(16.246000, 25.070000) scale(-1, 1) rotate(-12.500022) translate(-16.246000, -25.070000) " cx="16.246" cy="25.07" r="3.59962028"></circle>
                                <circle transform="translate(5.200000, 22.620000) scale(-1, 1) rotate(-12.500022) translate(-5.200000, -22.620000) " cx="5.2" cy="22.62" r="3.59962028"></circle>
                                <circle transform="translate(53.386000, 14.340000) scale(-1, 1) rotate(-12.500022) translate(-53.386000, -14.340000) " cx="53.386" cy="14.34" r="3.59962028"></circle>
                                <circle transform="translate(42.342000, 11.900000) scale(-1, 1) rotate(-12.500022) translate(-42.342000, -11.900000) " cx="42.342" cy="11.9" r="3.59962028"></circle>
                                <circle transform="translate(31.297000, 9.450000) scale(-1, 1) rotate(-12.500022) translate(-31.297000, -9.450000) " cx="31.297" cy="9.45" r="3.59962028"></circle>
                                <circle transform="translate(20.252000, 7.000000) scale(-1, 1) rotate(-12.500022) translate(-20.252000, -7.000000) " cx="20.252" cy="7" r="3.59962028"></circle>
                                <circle transform="translate(9.207000, 4.550000) scale(-1, 1) rotate(-12.500022) translate(-9.207000, -4.550000) " cx="9.207" cy="4.55" r="3.59962028"></circle>
                            </g>
                        </g>
                    </g>
                </g>
                <g id="upper-limb" transform="translate(0.027269, 425.840000)">
                    <path d="M391.689642,241.767543 C484.718777,308.41752 623.658881,232.252758 623.658881,117.244 C623.658881,96.2278256 606.621905,79.19085 585.605731,79.19085 C564.589556,79.19085 547.552581,96.2278256 547.552581,117.244 C547.552581,171.466063 477.693637,209.761628 436.013819,179.900457 C418.929696,167.660674 395.157972,171.587788 382.918188,188.671911 C370.678405,205.756035 374.605518,229.527759 391.689642,241.767543 Z" id="Path" fill="#EBBAAA" fill-rule="nonzero"></path>
                    <path d="M54.9711155,184.104577 C30.3615428,227.730316 15.6944129,287.812999 10.7503045,352.68498 C6.42341742,409.458357 10.2268085,464.114147 21.2128732,494.325517 C28.3950697,514.076356 50.2286088,524.265254 69.9794478,517.083058 C89.5327785,509.972683 99.7144507,488.502528 92.9472508,468.909616 L92.7369884,468.316483 C86.1824259,450.29162 83.0590889,405.408396 86.6365322,358.46852 C90.8068856,303.749031 102.973062,253.911297 121.257946,221.497423 C131.583696,203.19282 125.115557,179.983334 106.810954,169.657585 C88.5063513,159.331835 65.2968649,165.799974 54.9711155,184.104577 Z" id="Path" fill="#EBBAAA" fill-rule="nonzero"></path>
                    <path d="M414.880731,134.214 C414.880731,110.045 361.914731,85.378 324.889731,73.648 L276.551731,57.61 C269.820731,57.398 223.568731,59.321 216.901731,60.243 L141.823731,85.378 C106.247731,90.297 77.0469308,109.278 80.6299308,145.013 L93.4358308,298.561 L89.8861308,500.861 C89.8119308,502.727 167.211731,504.329 169.077731,504.234 C169.077731,504.234 192.732731,513.203 246.212731,515.26 C299.692731,517.317 318.204731,504.234 318.204731,504.234 L394.825731,500.789 C396.616731,500.693 397.544731,495.453 397.396731,493.662 L387.103731,279.618 L414.880731,134.214 Z" id="Path" fill="#8D939E" fill-rule="nonzero"></path>
                    <path d="M418.049731,105.913 C409.192731,96.459 380.020731,86.901 366.542731,83.305 C348.030731,214.948 394.057731,359.882 471.445731,332.193 C557.070731,292.395 611.383731,217.185 614.401731,173.809 C601.031731,150.155 587.900731,138.775 549.608731,128.557 C516.697731,155.297 495.100731,184.094 471.445731,194.379 C461.268731,181.021 449.627731,161.582 443.593731,151.183 C434.935731,149.64 439.481731,143.984 439.481731,143.984 C439.481731,143.984 424.244731,112.526 418.049731,105.913 Z" id="Path" fill="#3A3A5F" fill-rule="nonzero"></path>
                    <path d="M407.125385,274.05848 C404.021498,253.660952 411.461154,235.468241 426.583513,221.445604 C439.3715,209.58758 456.67042,202.09362 469.387731,202.09362 C471.375746,202.09362 472.987351,200.482015 472.987351,198.494 C472.987351,196.505985 471.375746,194.89438 469.387731,194.89438 C454.757658,194.89438 435.748181,203.12936 421.688449,216.166646 C404.908996,231.725869 396.522309,252.234423 400.008076,275.14152 C400.30715,277.10691 402.14286,278.457727 404.10825,278.158654 C406.073641,277.859581 407.424458,276.023871 407.125385,274.05848 Z" id="Path" fill="#474765" fill-rule="nonzero"></path>
                    <path d="M515.629642,301.443501 C500.972808,291.52851 490.725291,272.058016 484.457248,246.238798 C480.135493,228.4367 478.131351,208.981138 478.131351,195.922 C478.131351,193.933985 476.519746,192.32238 474.531731,192.32238 C472.543716,192.32238 470.932111,193.933985 470.932111,195.922 C470.932111,209.519945 472.99397,229.535805 477.461214,247.937202 C484.111986,275.332949 495.130302,296.267977 511.59582,307.406499 C513.242456,308.520408 515.48032,308.088547 516.594229,306.441911 C517.708139,304.795275 517.276278,302.557411 515.629642,301.443501 Z" id="Path" fill="#474765" fill-rule="nonzero"></path>
                    <path d="M575.320731,245.28738 C556.209457,245.28738 538.526603,234.752814 524.110656,217.165235 C512.876367,203.459305 504.871351,186.240888 504.871351,178.437 C504.871351,176.448985 503.259746,174.83738 501.271731,174.83738 C499.283716,174.83738 497.672111,176.448985 497.672111,178.437 C497.672111,188.18736 506.350636,206.854465 518.542805,221.729015 C534.206856,240.839291 553.757543,252.48662 575.320731,252.48662 C577.308746,252.48662 578.920351,250.875015 578.920351,248.887 C578.920351,246.898985 577.308746,245.28738 575.320731,245.28738 Z" id="Path" fill="#474765" fill-rule="nonzero"></path>
                    <path d="M374.215385,224.69148 C371.111498,204.293952 378.551154,186.101241 393.673513,172.078604 C406.4615,160.22058 423.76042,152.72662 436.477731,152.72662 C438.465746,152.72662 440.077351,151.115015 440.077351,149.127 C440.077351,147.138985 438.465746,145.52738 436.477731,145.52738 C421.847658,145.52738 402.838181,153.76236 388.778449,166.799646 C371.998996,182.358869 363.612309,202.867423 367.098076,225.77452 C367.39715,227.73991 369.23286,229.090727 371.19825,228.791654 C373.163641,228.492581 374.514458,226.656871 374.215385,224.69148 Z" id="Path" fill="#474765" fill-rule="nonzero"></path>
                    <path d="M603.475731,205.297 C607.906731,204.48 618.076731,175.322 621.601731,163.911 L547.552731,113.131 C546.041731,123.52 517.949731,145.264 518.755731,152.212 C519.762731,160.898 532.661731,178.979 557.836731,183.066 C583.012731,187.154 597.936731,206.319 603.475731,205.297 Z" id="Path" fill="#2F2F43" fill-rule="nonzero"></path>
                    <circle id="Oval" fill="#7B8493" fill-rule="nonzero" transform="translate(247.240731, 78.162000) scale(-1, 1) translate(-247.240731, -78.162000) " cx="247.240731" cy="78.162" r="66.8501"></circle>
                    <circle id="Oval" fill="#E5EBF9" fill-rule="nonzero" transform="translate(287.350731, 139.873000) scale(-1, 1) translate(-287.350731, -139.873000) " cx="287.350731" cy="139.873" r="5.14231"></circle>
                    <path d="M282.436731,136.786 C288.026731,105.137 287.412731,103.578 301.778731,56.566 C301.778731,56.566 340.952731,67.878 355.159731,72.899 C369.367731,77.92 386.105731,87.052 386.105731,87.052 C395.150731,105.572 404.098731,221.734 406.652731,327.724 C409.206731,433.714 417.965731,455.61 406.652731,521.758 C395.479731,526.566 322.764731,548.58 286.052731,531.484 C286.052731,519.149 282.819731,507.389 282.436731,493.451 C281.188731,447.94 285.441731,404.612 286.052731,327.724 C286.591731,259.881 274.224731,183.29 282.436731,136.786 Z" id="Path" fill="#474765" fill-rule="nonzero"></path>
                    <path d="M396.832905,138.476155 L394.200315,137.001871 L391.612187,135.565074 C363.547689,120.051156 330.184975,103.73432 311.501749,97.9367255 C308.789327,97.0950334 305.908148,98.6115597 305.066456,101.323982 C304.224764,104.036404 305.74129,106.917582 308.453713,107.759275 L309.609805,108.12596 C328.820842,114.345863 363.955564,131.781815 391.790557,147.439845 C394.265811,148.832251 397.40117,147.954428 398.793576,145.479174 C400.185981,143.003919 399.308159,139.868561 396.832905,138.476155 Z" id="Path" fill="#3C3C56" fill-rule="nonzero"></path>
                    <rect id="Rectangle" fill="#EBBAAA" fill-rule="nonzero" transform="translate(246.609481, 60.953500) scale(-1, 1) translate(-246.609481, -60.953500) " x="206.327231" y="0" width="80.5645" height="121.907" rx="38.9901"></rect>
                    <path d="M319.232731,31.883 C333.631731,35.997 336.716731,50.395 336.716731,68.907 C336.716731,81.249 270.895731,183.067 277.066731,161.469 C291.464731,111.074 255.468731,91.534 259.582731,85.363 C263.695731,79.192 294.549731,35.997 319.232731,31.883 Z" id="Path" fill="#3C3C56" fill-rule="nonzero"></path>
                    <path d="M281.179731,527.602 C273.980731,494.692 281.179731,441.212 281.179731,401.102 C281.179731,374.606 285.979731,230.719 281.179731,152.213 C286.322731,135.415 287.350731,111.075 263.695731,90.506" id="Path" stroke="#606092" stroke-width="14.3985" stroke-linecap="round"></path>
                    <path d="M72.9154308,105.418 C79.4976308,97.19 103.426731,88.62 114.567731,85.363 C111.825731,198.323 105.620731,427.533 102.740731,440.697 C99.1412308,457.152 18.4069308,454.067 7.09379081,443.268 C-4.21929919,432.469 7.09379081,411.386 2.46571081,391.331 C-0.988269188,376.364 2.34084081,357.855 4.52263081,349.164 C5.26429081,346.209 7.49739081,348.028 7.09379081,346.593 C3.39132081,333.428 8.12226081,305.454 12.2361308,295.684 C13.0931308,293.284 18.9211308,295.17 14.8072308,293.627 C11.9275308,289.102 19.7781308,259.345 23.5492308,247.86 C25.7775308,246.489 28.4858308,248.58 25.6061308,245.289 C22.7264308,241.998 33.6624308,207.922 38.9761308,191.809 C41.5473308,191.809 41.5473308,191.809 41.5473308,189.238 C38.2562308,185.124 47.0324308,160.784 51.8319308,149.128 C56.4600308,148.099 55.9458308,147.688 53.8888308,146.042 C51.3177308,143.986 64.6877308,115.703 72.9154308,105.418 Z" id="Path" fill="#3A3A5F" fill-rule="nonzero"></path>
                    <path d="M6.57972081,458.694 C6.57972081,437.096 4.00857081,442.238 6.57972081,431.954 L91.2829308,418.584 C92.8256308,429.04 95.7053308,451.7 94.8825308,458.694 C93.8541308,467.436 86.7998308,465.379 61.0882308,469.493 C35.3767308,473.607 6.57972081,489.678 6.57972081,458.694 Z" id="Path" fill="#2F2F43" fill-rule="nonzero"></path>
                    <path d="M57.9120997,154.091262 L60.6138654,154.967465 L62.3615295,155.526246 C90.9035865,164.600538 119.16799,171.060619 128.841219,168.55239 C130.765594,168.053407 131.921103,166.088887 131.422121,164.164512 C130.923138,162.240136 128.958618,161.084627 127.034243,161.58361 C118.884029,163.696927 88.2340176,156.434445 60.150162,147.248738 C58.2606512,146.630714 56.2278927,147.661458 55.6098689,149.550969 C54.991845,151.44048 56.0225888,153.473238 57.9120997,154.091262 Z" id="Path" fill="#474765" fill-rule="nonzero"></path>
                    <path d="M44.5420997,194.716262 L47.2438654,195.592465 L48.9915295,196.151246 C77.5335865,205.225538 105.79799,211.685619 115.471219,209.17739 C117.395594,208.678407 118.551103,206.713887 118.052121,204.789512 C117.553138,202.865136 115.588618,201.709627 113.664243,202.20861 C105.514029,204.321927 74.8640176,197.059445 46.780162,187.873738 C44.8906512,187.255714 42.8578927,188.286458 42.2398689,190.175969 C41.621845,192.06548 42.6525888,194.098238 44.5420997,194.716262 Z" id="Path" fill="#474765" fill-rule="nonzero"></path>
                    <path d="M29.1151256,251.280205 L31.8157846,252.15619 L34.4361314,252.991749 C62.6698832,261.918143 90.4691986,268.224358 100.044495,265.742474 C101.968916,265.24367 103.124608,263.279258 102.625805,261.354836 C102.143628,259.494562 100.291921,258.352623 98.4306868,258.729128 L98.2381671,258.773526 C90.0867867,260.886336 59.4257489,253.621274 31.353536,244.437795 C29.4640566,243.819675 27.4312457,244.850315 26.8131258,246.739795 C26.1950058,248.629274 27.2256463,250.662085 29.1151256,251.280205 Z" id="Path" fill="#474765" fill-rule="nonzero"></path>
                    <path d="M16.7737997,298.591262 L19.4755698,299.467466 L22.0968684,300.30321 C50.3402284,309.231456 78.1284771,315.535018 87.7032885,313.052398 C89.6276683,312.553432 90.7831946,310.588922 90.2842287,308.664542 C89.7852628,306.740163 87.8207529,305.584636 85.8963731,306.083602 C77.7458164,308.196932 47.095842,300.934486 19.011862,291.748738 C17.1223512,291.130714 15.0895927,292.161458 14.4715689,294.050969 C13.853545,295.94048 14.8842888,297.973238 16.7737997,298.591262 Z" id="Path" fill="#474765" fill-rule="nonzero"></path>
                    <path d="M6.28474923,350.716182 C22.179886,360.153545 67.8604142,369.21862 93.9991308,369.21862 C95.987146,369.21862 97.5987508,367.607015 97.5987508,365.619 C97.5987508,363.630985 95.987146,362.01938 93.9991308,362.01938 C69.0384065,362.01938 24.55675,353.192215 9.96013239,344.525818 C8.25071038,343.510889 6.04218749,344.073886 5.02725846,345.783308 C4.01232942,347.49273 4.57532722,349.701253 6.28474923,350.716182 Z" id="Path" fill="#474765" fill-rule="nonzero"></path>
                    <path d="M210.685731,136.786 C205.095731,105.137 205.709731,103.578 191.343731,56.566 C191.343731,56.566 152.169731,67.878 137.961731,72.899 C123.754731,77.92 107.015731,87.052 107.015731,87.052 C97.9712308,105.572 89.0234308,221.734 86.4696308,327.724 C83.9157308,433.714 75.1569308,455.61 86.4695308,521.758 C97.6427308,526.566 170.357731,548.58 207.069731,531.484 C207.069731,519.149 210.302731,507.389 210.685731,493.451 C211.933731,447.94 207.680731,404.612 207.069731,327.724 C206.530731,259.881 218.897731,183.29 210.685731,136.786 Z" id="Path" fill="#474765" fill-rule="nonzero"></path>
                    <path d="M101.332702,145.380902 L104.776489,143.455397 L107.295824,142.061028 C134.613102,127.005199 167.041936,111.170873 184.669879,105.700234 C187.382278,104.858471 188.898729,101.977252 188.056965,99.2648522 C187.215202,96.5524524 184.333983,95.0360021 181.621583,95.8777657 C161.764662,102.040144 125.331272,120.081686 96.2905591,136.417098 C93.8152729,137.809447 92.9373792,140.944785 94.3297287,143.420072 C95.7220781,145.895358 98.8574163,146.773252 101.332702,145.380902 Z" id="Path" fill="#3C3C56" fill-rule="nonzero"></path>
                    <path d="M173.889731,31.883 C159.490731,35.997 156.404731,50.395 156.404731,68.907 C156.404731,81.249 222.226731,183.067 216.055731,161.469 C201.657731,111.074 237.653731,91.534 233.539731,85.363 C229.425731,79.192 198.572731,35.997 173.889731,31.883 Z" id="Path" fill="#3C3C56" fill-rule="nonzero"></path>
                    <path d="M211.942731,527.602 C219.141731,494.692 211.942731,441.212 211.942731,401.102 C211.942731,374.606 207.142731,230.719 211.942731,152.213 C206.799731,135.415 205.771731,111.075 229.425731,90.506" id="Path" stroke="#606092" stroke-width="14.3985" stroke-linecap="round"></path>
                </g>
                <g id="head" transform="translate(41.027200, 0.323930)">
                    <path d="M60.9538,349.95807 C27.2898,349.95807 -9.09494702e-13,322.66807 -9.09494702e-13,289.00407 C-9.09494702e-13,255.34107 27.2898,228.05107 60.9538,228.05107 C94.6168,228.05107 121.9068,255.34107 121.9068,289.00407 C121.9068,322.66807 94.6168,349.95807 60.9538,349.95807 Z" id="Path" fill="#EBBAAA" fill-rule="nonzero"></path>
                    <path d="M347.8958,353.04407 C381.5588,353.04407 408.8488,325.75407 408.8488,292.09007 C408.8488,258.42707 381.5588,231.13707 347.8958,231.13707 C314.2318,231.13707 286.9418,258.42707 286.9418,292.09007 C286.9418,325.75407 314.2318,353.04407 347.8958,353.04407 Z" id="Path" fill="#EBBAAA" fill-rule="nonzero"></path>
                    <path d="M364.6248,183.31307 C364.6248,96.12407 293.9438,25.44367 206.7558,25.44367 C119.5668,25.44367 48.8863,96.12407 48.8863,183.31307 L48.8863,257.87607 L51.4211,339.71107 C54.0203,423.62807 122.7988,490.30907 206.7558,490.30907 C287.8688,490.30907 354.8948,427.02707 359.5528,346.04807 L364.6248,257.87607 L364.6248,183.31307 Z" id="Path" fill="#F4D4C9" fill-rule="nonzero"></path>
                    <path d="M169.487223,197.15983 L110.563223,198.70083 C104.490167,198.859654 99.6957352,203.911592 99.8545598,209.984647 C100.013384,216.057703 105.065322,220.852135 111.138377,220.69331 L170.062377,219.15231 C176.135433,218.993486 180.929865,213.941548 180.77104,207.868493 C180.612216,201.795437 175.560278,197.001005 169.487223,197.15983 Z" id="Path" fill="#393939" fill-rule="nonzero"></path>
                    <path d="M252.218565,218.599626 L311.106565,221.167626 C317.175929,221.4323 322.310682,216.726669 322.575356,210.657305 C322.84003,204.587941 318.134399,199.453188 312.065035,199.188514 L253.177035,196.620514 C247.107671,196.35584 241.972918,201.061471 241.708244,207.130835 C241.44357,213.200199 246.149201,218.334952 252.218565,218.599626 Z" id="Path" fill="#393939" fill-rule="nonzero"></path>
                    <path d="M202.632321,301.382334 C207.37957,309.758876 210.08616,318.712525 209.794801,324.813568 L209.764165,325.338669 C209.4733,329.506028 208.159648,330.73312 203.8778,330.73312 L203.8778,348.21702 C218.142265,348.21702 226.614297,339.143404 227.258799,325.647572 C227.728015,315.822201 224.087964,303.78058 217.843279,292.761806 L202.632321,301.382334 Z" id="Path" fill="#EBBAAA" fill-rule="nonzero"></path>
                    <path d="M98.2528,129.83207 C101.4408,103.07707 104.3178,83.86597 106.4428,66.02947 C107.9488,53.39527 108.1048,50.17267 72.1888,76.64597 C36.2732,103.11907 30.8885,161.20007 40.6589,210.56707 L51.4578,269.18907 L62.5478,266.44807 L62.2568,192.05407 C80.3528,173.83807 95.0648,156.58707 98.2528,129.83207 Z" id="Path" fill="#6E6C6C" fill-rule="nonzero"></path>
                    <path d="M345.2638,158.37107 C343.7808,131.47107 346.8118,132.85607 345.8228,114.92207 C345.1218,102.21807 340.7448,104.99807 363.4218,128.29107 C375.9378,141.14707 371.2258,196.38207 368.5618,232.50607 L365.3958,265.80007 L360.3368,266.07907 L358.0528,224.66507 C349.1128,195.96807 346.7478,185.27207 345.2638,158.37107 Z" id="Path" fill="#6E6C6C" fill-rule="nonzero"></path>
                    <path d="M204.7658,3.84599 L204.7668,3.84599 C204.8408,3.84599 204.9148,3.84599 204.9898,3.84599 C205.0648,3.84599 205.1388,3.84599 205.2128,3.84599 L205.2138,3.84599 C252.7358,4.01483 366.5198,30.96477 370.7958,157.08707 C358.1608,141.55107 338.6458,134.77507 321.3138,124.63607 C284.8268,103.29507 255.0338,95.48147 215.5018,95.48147 C181.5308,95.48147 139.8648,103.34707 111.7238,117.13007 C86.5508,129.46107 64.2338,138.70907 39.6305,157.08707 C43.9065,30.96507 157.2468,4.01484 204.7658,3.84599 Z" id="Path" fill="#272727"></path>
                    <path d="M210.3548,115.94807 C173.3308,93.32157 156.3288,88.68287 138.5018,78.39827 C150.8428,72.91317 182.8838,57.58977 199.3388,70.75407 C206.3798,79.94067 218.9388,95.37817 210.3548,115.94807 Z" id="Path" fill="#272727" fill-rule="nonzero"></path>
                    <path d="M269.4918,115.94807 C214.4688,84.06597 190.6428,94.35077 172.8158,84.06617 C185.1578,78.58107 158.4178,39.38717 246.3508,58.35447 C272.5768,64.01127 278.0758,95.37897 269.4918,115.94807 Z" id="Path" fill="#272727" fill-rule="nonzero"></path>
                    <polygon id="Path" fill="#272727" fill-rule="nonzero" points="327.7328 44.07927 337.6868 79.43987 206.4728 59.11917 56.5165 86.53197 56.8327 71.98247 67.5288 67.53617 67.7778 56.10447 81.2618 56.39757 81.6458 38.73027 98.9828 39.10717 103.1288 25.68057 118.5398 26.01557 127.9838 12.70427 143.7848 17.20667 148.7818 8.99737 165.1558 9.35327 165.3588 0 187.3078 9.83477 193.2898 0.60713 202.7188 10.16977 212.5538 1.02585 230.6498 10.77687 242.4118 1.67485 254.7288 11.30027 263.3978 11.48867 272.8488 20.01207 276.8818 11.78177 292.8718 29.80497 303.5568 25.87817 317.0818 46.44717"></polygon>
                    <path d="M136.402828,278.624867 L136.667518,278.497068 C136.973175,278.344281 137.642055,278.101647 138.509594,277.876588 C139.69468,277.569151 141.050145,277.344881 142.500289,277.240705 C145.962083,276.992016 149.592481,277.437537 153.206909,278.723351 L153.748931,278.922544 C159.170972,280.97918 165.233638,278.250981 167.290274,272.828939 C169.34691,267.406898 166.618711,261.344232 161.196669,259.287596 C148.805401,254.58746 135.64003,255.533238 127.278082,259.713072 C122.091025,262.305894 119.987981,268.612731 122.580802,273.799788 C125.129677,278.898929 131.267737,281.017713 136.402828,278.624867 Z" id="Path" fill="#000000" fill-rule="nonzero"></path>
                    <path d="M264.402828,279.624867 L264.667518,279.497068 C264.973175,279.344281 265.642055,279.101647 266.509594,278.876588 C267.69468,278.569151 269.050145,278.344881 270.500289,278.240705 C273.962083,277.992016 277.592481,278.437537 281.206909,279.723351 L281.748931,279.922544 C287.170972,281.97918 293.233638,279.250981 295.290274,273.828939 C297.34691,268.406898 294.618711,262.344232 289.196669,260.287596 C276.805401,255.58746 263.64003,256.533238 255.278082,260.713072 C250.091025,263.305894 247.987981,269.612731 250.580802,274.799788 C253.129677,279.898929 259.267737,282.017713 264.402828,279.624867 Z" id="Path" fill="#000000" fill-rule="nonzero"></path>
                    <path d="M198.0088,260.23707 C200.7788,247.83907 191.7588,235.91807 179.0738,235.21407 L106.0058,231.15907 C92.7618,230.42307 82.2948,242.23107 84.6128,255.29107 L90.3458,287.58807 C92.0888,297.40807 100.6258,304.56207 110.5988,304.56207 L171.6238,304.56207 C181.2558,304.56207 189.5978,297.87807 191.6978,288.47807 L198.0088,260.23707 Z" id="Path" fill-opacity="0.29" fill="#FFFFFF" fill-rule="nonzero"></path>
                    <path d="M335.2988,253.78207 C337.0398,240.83907 326.4368,229.57107 313.4118,230.52407 L240.8348,235.83407 C227.8168,236.78607 218.9668,249.46607 222.5618,262.01407 L230.7078,290.44907 C233.2358,299.27307 241.3038,305.35407 250.4818,305.35407 L310.3718,305.35407 C320.6718,305.35407 329.3838,297.73507 330.7578,287.52807 L335.2988,253.78207 Z" id="Path" fill-opacity="0.29" fill="#FFFFFF" fill-rule="nonzero"></path>
                    <path d="M338.5348,267.36907 C338.5078,269.92507 336.4148,271.97507 333.8588,271.94907 C331.3028,271.92207 329.2518,269.82907 329.2788,267.27307 L338.5348,267.36907 Z M334.0288,255.50507 L329.4008,255.45707 L329.4068,254.89907 L329.5448,254.35807 L334.0288,255.50507 Z M316.7068,236.39407 L316.7348,231.76607 L316.9428,231.76707 L317.1508,231.78707 L316.7068,236.39407 Z M241.9738,235.94907 L241.4248,231.35407 L241.7118,231.31907 L242.0008,231.32107 L241.9738,235.94907 Z M225.9418,252.31607 L230.5378,251.76807 L230.5898,252.20507 L230.5588,252.64407 L225.9418,252.31607 Z M229.5358,267.05307 C229.3548,269.60307 227.1418,271.52307 224.5918,271.34207 C222.0428,271.16107 220.1218,268.94807 220.3028,266.39807 L229.5358,267.05307 Z M329.2788,267.27307 L329.4008,255.45707 L338.6568,255.55307 L338.5348,267.36907 L329.2788,267.27307 Z M329.5448,254.35807 C329.4148,254.86807 329.5458,254.97807 329.4178,254.39807 C329.3138,253.92507 329.0878,253.22607 328.6828,252.34207 C327.8748,250.57907 326.4998,248.39607 324.5538,246.25007 L331.4118,240.03307 C333.9628,242.84707 335.8748,245.81907 337.0968,248.48507 C337.7058,249.81507 338.1808,251.14807 338.4588,252.41107 C338.7118,253.56607 338.9058,255.11507 338.5118,256.65207 L329.5448,254.35807 Z M324.5538,246.25007 C320.7778,242.08407 316.9258,241.06507 316.2628,241.00107 L317.1508,231.78707 C320.2568,232.08707 326.1918,234.27507 331.4118,240.03307 L324.5538,246.25007 Z M316.6788,241.02207 L241.9458,240.57707 L242.0008,231.32107 L316.7348,231.76607 L316.6788,241.02207 Z M242.5228,240.54407 C241.6038,240.65407 239.7938,241.05907 237.8958,241.91207 C235.9838,242.77107 234.3448,243.92007 233.3228,245.30907 L225.8678,239.82307 C228.1618,236.70407 231.3398,234.70907 234.1028,233.46907 C236.8778,232.22207 239.5988,231.57207 241.4248,231.35407 L242.5228,240.54407 Z M233.3228,245.30907 C231.9758,247.14007 231.2578,248.76307 230.8908,249.96707 C230.4958,251.26107 230.5538,251.90307 230.5378,251.76807 L221.3468,252.86507 C221.0148,250.08507 222.0128,245.06307 225.8678,239.82307 L233.3228,245.30907 Z M230.5588,252.64407 L229.5358,267.05307 L220.3028,266.39807 L221.3258,251.98907 L230.5588,252.64407 Z" id="Shape" fill="#A49C72" fill-rule="nonzero"></path>
                    <path d="M83.0338,266.93907 C83.0608,269.49507 85.1538,271.54607 87.7098,271.51907 C90.2658,271.49307 92.3158,269.39907 92.2898,266.84307 L83.0338,266.93907 Z M87.5398,255.07507 L92.1678,255.02807 L92.1618,254.46907 L92.0238,253.92807 L87.5398,255.07507 Z M104.8618,235.96407 L104.8338,231.33607 L104.6248,231.33707 L104.4178,231.35707 L104.8618,235.96407 Z M179.5948,235.51907 L180.1438,230.92407 L179.8568,230.89007 L179.5678,230.89107 L179.5948,235.51907 Z M195.6268,251.88707 L191.0308,251.33807 L190.9788,251.77507 L191.0098,252.21407 L195.6268,251.88707 Z M192.0328,266.62407 C192.2138,269.17307 194.4268,271.09407 196.9768,270.91307 C199.5258,270.73207 201.4468,268.51807 201.2658,265.96907 L192.0328,266.62407 Z M92.2898,266.84307 L92.1678,255.02807 L82.9118,255.12307 L83.0338,266.93907 L92.2898,266.84307 Z M92.0238,253.92807 C92.1538,254.43807 92.0228,254.54907 92.1508,253.96807 C92.2548,253.49607 92.4808,252.79607 92.8858,251.91207 C93.6938,250.15007 95.0678,247.96707 97.0148,245.82007 L90.1568,239.60307 C87.6048,242.41807 85.6938,245.39007 84.4718,248.05507 C83.8618,249.38507 83.3878,250.71807 83.1098,251.98107 C82.8558,253.13607 82.6628,254.68607 83.0568,256.22307 L92.0238,253.92807 Z M97.0148,245.82007 C100.7908,241.65507 104.6428,240.63507 105.3058,240.57107 L104.4178,231.35707 C101.3118,231.65707 95.3768,233.84507 90.1568,239.60307 L97.0148,245.82007 Z M104.8888,240.59207 L179.6228,240.14707 L179.5678,230.89107 L104.8338,231.33607 L104.8888,240.59207 Z M179.0458,240.11507 C179.9648,240.22407 181.7748,240.62907 183.6728,241.48207 C185.5848,242.34107 187.2238,243.49107 188.2448,244.87907 L195.7008,239.39307 C193.4068,236.27507 190.2288,234.28007 187.4658,233.03907 C184.6908,231.79207 181.9698,231.14207 180.1438,230.92407 L179.0458,240.11507 Z M188.2448,244.87907 C189.5928,246.71007 190.3108,248.33307 190.6778,249.53707 C191.0728,250.83207 191.0148,251.47407 191.0308,251.33807 L200.2218,252.43507 C200.5538,249.65507 199.5558,244.63307 195.7008,239.39307 L188.2448,244.87907 Z M191.0098,252.21407 L192.0328,266.62407 L201.2658,265.96907 L200.2428,251.55907 L191.0098,252.21407 Z" id="Shape" fill="#A49C72" fill-rule="nonzero"></path>
                    <path d="M223.5968,259.31107 C219.1398,256.91107 207.6558,253.55207 197.3708,259.31107" id="Path" stroke="#A49C72" stroke-width="9.25617"></path>
                    <path d="M247.6018,366.28007 L247.6018,380.14607 C247.6018,401.44607 230.3348,418.71407 209.0348,418.71407 C187.7348,418.71407 170.4668,401.44607 170.4668,380.14607 L170.4668,366.28007 L247.6018,366.28007 Z" id="Path" fill="#393939"></path>
                    <g id="Clipped" transform="translate(169.972800, 359.676070)">
                        <mask id="mask-6" fill="white">
                            <use xlink:href="#path-5"></use>
                        </mask>
                        <g id="Path"></g>
                        <g id="Group" mask="url(#mask-6)" fill-rule="nonzero">
                            <g transform="translate(0.000000, 4.000000)">
                                <ellipse id="Oval" fill="#FF6C6C" transform="translate(37.005000, 55.942000) scale(-1, 1) translate(-37.005000, -55.942000) " cx="37.005" cy="55.942" rx="23.2582" ry="12.6667"></ellipse>
                                <rect id="Rectangle" fill="#FFFFFF" transform="translate(39.061650, 8.557500) scale(-1, 1) translate(-39.061650, -8.557500) " x="0.4943" y="0.604" width="77.1347" height="15.907"></rect>
                            </g>
                        </g>
                    </g>
                </g>
            </g>
        </g>
    </g>
</svg>