<?xml version="1.0" encoding="UTF-8"?>
<svg width="499px" height="1403px" viewBox="0 0 499 1403" version="1.1" xmlns="http://www.w3.org/2000/svg" xmlns:xlink="http://www.w3.org/1999/xlink">
    <!-- Generator: Sketch 55.2 (78181) - https://sketchapp.com -->
    <title>gee_me_096</title>
    <desc>Created with Sketch.</desc>
    <g id="GEE!-ME" stroke="none" stroke-width="1" fill="none" fill-rule="evenodd">
        <g id="gee_me_096" transform="translate(-351.000000, -99.000000)" fill-rule="nonzero">
            <g transform="translate(351.000000, 99.000000)">
                <g id="lower-limb" transform="translate(45.492084, 908.000000)">
                    <path d="M188.652916,115.92 C252.435916,115.92 304.142916,91.43 304.142916,61.214 C304.142916,31.001 252.435916,6.508 188.652916,6.508 C124.868916,6.508 73.1619161,31.001 73.1619161,61.214 C73.1619161,91.43 124.868916,115.92 188.652916,115.92 Z" id="Path" fill="#46799F"></path>
                    <path d="M235.633963,272.337444 L250.633963,440.837444 C252.20104,458.440942 267.741862,471.441031 285.34536,469.873954 C302.948859,468.306876 315.948947,452.766055 314.38187,435.162556 L299.38187,266.662556 C297.814793,249.059058 282.273971,236.058969 264.670472,237.626046 C247.066974,239.193124 234.066886,254.733945 235.633963,272.337444 Z" id="Path" fill="#EBBAAA"></path>
                    <path d="M114.518428,269.894755 L118.518428,412.894755 C119.012587,430.560957 133.734469,444.481648 151.400671,443.987488 C169.066873,443.493329 182.987564,428.771447 182.493405,411.105245 L178.493405,268.105245 C177.999245,250.439043 163.277363,236.518352 145.611161,237.012512 C127.944959,237.506671 114.024268,252.228553 114.518428,269.894755 Z" id="Path" fill="#EBBAAA"></path>
                    <path d="M12.2716161,492.26 C12.0713161,469.31 15.1977161,455.35 35.1472161,445.98 C55.0969161,436.6 73.8879161,418.57 108.401916,403.11 C108.401916,403.11 112.944916,402.25 120.339916,406.25 C126.650916,409.67 134.755916,418.04 146.969916,417.93 C160.232916,417.81 172.050916,415 179.393916,411.15 C182.566916,402.46 189.603916,402.4 189.603916,402.4 C189.603916,402.4 199.513916,421.26 199.678916,440.21 C199.843916,459.16 199.827412,490.63 199.827412,490.63 L12.2716161,492.26 Z" id="Path" fill="#DCE1E6"></path>
                    <path d="M87.1544725,410.993449 C85.0665114,410.072323 82.8457521,411.989687 83.4524983,414.189667 L86.4482385,425.05182 L74.4418204,421.174167 C72.6937962,420.609616 70.9030761,421.913072 70.9030761,423.75 L70.9030761,434.90471 L61.9064393,430.03006 C60.1028618,429.052828 57.9100761,430.358689 57.9100761,432.41 L57.9100761,445.95 C57.9100761,447.444946 59.1219697,448.65684 60.6169161,448.65684 C62.1118626,448.65684 63.3237561,447.444946 63.3237561,445.95 L63.3237561,436.95529 L72.3203929,441.82994 C74.1239704,442.807172 76.3167561,441.501311 76.3167561,439.45 L76.3167561,427.468724 L89.5600119,431.745833 C91.6097349,432.407822 93.5740104,430.52678 93.001334,428.450333 L90.187764,418.248704 L103.37536,424.066551 C105.164603,424.855894 107.174756,423.545622 107.174756,421.59 L107.172231,420.564191 L107.162232,419.465802 C107.119477,416.290283 106.955334,414.139632 106.491881,411.610715 C106.11017,409.52784 105.551286,407.613564 104.776353,405.870413 C104.169068,404.504371 102.56937,403.889278 101.203329,404.496563 C99.8372872,405.103848 99.2221938,406.703546 99.8294792,408.069587 C100.41746,409.392204 100.85801,410.901165 101.166882,412.586583 C101.424498,413.992311 101.576351,415.291508 101.661971,416.821282 L101.691051,417.406413 L87.1544725,410.993449 Z" id="Path" fill="#FFFFFF"></path>
                    <path d="M193.793916,412.38 C189.940916,417.61 176.048916,420.74 170.821916,421.51 C165.595916,422.28 159.994916,421.61 162.235916,430.25 C163.820916,436.36 179.050916,433.89 185.005916,433.84 C189.847916,433.8 196.637916,448.43 199.165916,443.46 C199.165916,426.46 195.958916,417.26 193.793916,412.38 Z" id="Path" fill="#B8CAD8"></path>
                    <path d="M19.8188161,447.73 C25.9395161,445.51 32.4215161,443.83 44.8488161,441.02 L39.5676161,456.22 L39.7188161,473.55 L4.34651614,473.850153 C2.90291614,473.87 0.323516139,471.94 1.55471614,464.13 C3.09371614,454.38 11.1218161,450.89 19.8188161,447.73 Z" id="Path" fill="#EAF4FB"></path>
                    <path d="M63.1388261,452.588787 L65.926205,457.902027 L80.980385,450.004453 L78.1930061,444.691213 L63.1388261,452.588787 Z M68.7135838,463.215267 L71.5009626,468.528507 L86.5551426,460.630933 L83.7677638,455.317693 L68.7135838,463.215267 Z M74.2883414,473.841747 L77.0757202,479.154987 L92.1299002,471.257413 L89.3425214,465.944173 L74.2883414,473.841747 Z" id="Path" fill="#B8CAD8"></path>
                    <path d="M85.8355795,440.690681 L88.6172367,446.006919 L103.67991,438.125557 L100.898253,432.809319 L85.8355795,440.690681 Z M91.398894,451.323156 L94.1805512,456.639394 L109.243225,448.758032 L106.461567,443.441794 L91.398894,451.323156 Z M96.9622085,461.955632 L99.7438658,467.271869 L114.806539,459.390507 L112.024882,454.07427 L96.9622085,461.955632 Z M102.525523,472.588107 L105.30718,477.904345 L120.369854,470.022983 L117.588196,464.706745 L102.525523,472.588107 Z" id="Path" fill="#B8CAD8"></path>
                    <path d="M108.039974,427.501627 L110.779945,432.839468 L125.90383,425.076215 L123.163859,419.738373 L108.039974,427.501627 Z M113.519917,438.17731 L116.259889,443.515152 L131.383774,435.751899 L128.643802,430.414057 L113.519917,438.17731 Z M118.99986,448.852994 L121.739832,454.190836 L136.863717,446.427582 L134.123745,441.089741 L118.99986,448.852994 Z M124.479804,459.528677 L127.219775,464.866519 L142.343661,457.103266 L139.603689,451.765424 L124.479804,459.528677 Z M129.959747,470.204361 L132.699719,475.542203 L147.823604,467.77895 L145.083632,462.441108 L129.959747,470.204361 Z" id="Path" fill="#B8CAD8"></path>
                    <path d="M200.419916,487.67 L199.392916,469.44 L40.7875161,471.91 L1.24081614,469.01 L0.0327161394,482.98 C-0.384283861,487.81 3.23441614,492.04 8.06491614,492.37 L40.9859161,494.65 L196.162916,492.24 C198.623916,492.2 200.558916,490.12 200.419916,487.67 Z" id="Path" fill="#C7CBCF"></path>
                    <path d="M418.919916,492.26 C419.119916,469.31 415.993916,455.35 396.043916,445.98 C376.093916,436.6 357.302916,418.57 322.788916,403.11 C322.788916,403.11 318.245916,402.25 310.850916,406.25 C304.540916,409.67 296.434916,418.04 284.220916,417.93 C270.958916,417.81 259.139916,415 251.796916,411.15 C248.624916,402.46 241.586916,402.4 241.586916,402.4 C241.586916,402.4 231.677916,421.26 231.511916,440.21 C231.346916,459.16 231.36342,490.63 231.36342,490.63 L418.919916,492.26 Z" id="Path" fill="#DCE1E6"></path>
                    <path d="M338.189541,428.450178 C337.616722,430.526662 339.581028,432.407845 341.63082,431.745833 L354.874076,427.468724 L354.874076,439.45 C354.874076,441.501311 357.066862,442.807172 358.870439,441.82994 L367.867076,436.95529 L367.867076,445.95 C367.867076,447.444946 369.07897,448.65684 370.573916,448.65684 C372.068863,448.65684 373.280756,447.444946 373.280756,445.95 L373.280756,432.41 C373.280756,430.358689 371.08797,429.052828 369.284393,430.03006 L360.287756,434.90471 L360.287756,423.75 C360.287756,421.913072 358.497036,420.609616 356.749012,421.174167 L344.742932,425.051711 L347.739291,414.189822 C348.346181,411.98983 346.125434,410.072323 344.037409,410.993427 L329.499812,417.406493 C329.578235,415.614763 329.734263,414.16819 330.024205,412.586801 C330.333206,410.901458 330.773939,409.392568 331.362165,408.070011 C331.969684,406.704074 331.354865,405.104271 329.988928,404.496752 C328.62299,403.889232 327.023187,404.504051 326.415668,405.869989 C325.64035,407.6132 325.081187,409.527548 324.699286,411.610497 C324.139285,414.664835 324.016076,417.167398 324.016076,421.59 C324.016076,423.545598 326.026185,424.855871 327.815423,424.066573 L341.003709,418.248738 L338.189541,428.450178 Z" id="Path" fill="#FFFFFF"></path>
                    <path d="M237.397916,412.38 C241.249916,417.61 255.141916,420.74 260.368916,421.51 C265.595916,422.28 271.195916,421.61 268.954916,430.25 C267.370916,436.36 252.139916,433.89 246.184916,433.84 C241.343916,433.8 234.553916,448.43 232.024916,443.46 C232.024916,426.46 235.231916,417.26 237.397916,412.38 Z" id="Path" fill="#B8CAD8"></path>
                    <path d="M411.371916,447.73 C405.251916,445.51 398.769916,443.83 386.341916,441.02 L391.623916,456.22 L391.471916,473.55 L426.844916,473.850153 C428.287916,473.87 430.867916,471.94 429.636916,464.13 C428.097916,454.38 420.068916,450.89 411.371916,447.73 Z" id="Path" fill="#EAF4FB"></path>
                    <path d="M352.998925,444.691025 L350.211413,450.004196 L365.265396,457.902145 L368.052908,452.588975 L352.998925,444.691025 Z M347.423902,455.317366 L344.63639,460.630537 L359.690373,468.528486 L362.477885,463.215315 L347.423902,455.317366 Z M341.848879,465.943707 L339.061367,471.256877 L354.11535,479.154827 L356.902862,473.841656 L341.848879,465.943707 Z" id="Path" fill="#B8CAD8"></path>
                    <path d="M330.292579,432.809319 L327.510922,438.125557 L342.573596,446.006919 L345.355253,440.690681 L330.292579,432.809319 Z M324.729265,443.441794 L321.947608,448.758032 L337.010281,456.639394 L339.791938,451.323156 L324.729265,443.441794 Z M319.16595,454.07427 L316.384293,459.390507 L331.446967,467.271869 L334.228624,461.955632 L319.16595,454.07427 Z M313.602636,464.706745 L310.820979,470.022983 L325.883652,477.904345 L328.665309,472.588107 L313.602636,464.706745 Z" id="Path" fill="#B8CAD8"></path>
                    <path d="M308.026974,419.738373 L305.287002,425.076215 L320.410887,432.839468 L323.150859,427.501627 L308.026974,419.738373 Z M302.54703,430.414057 L299.807058,435.751899 L314.930944,443.515152 L317.670915,438.17731 L302.54703,430.414057 Z M297.067087,441.089741 L294.327115,446.427582 L309.451,454.190836 L312.190972,448.852994 L297.067087,441.089741 Z M291.587143,451.765424 L288.847172,457.103266 L303.971057,464.866519 L306.711028,459.528677 L291.587143,451.765424 Z M286.1072,462.441108 L283.367228,467.77895 L298.491113,475.542203 L301.231085,470.204361 L286.1072,462.441108 Z" id="Path" fill="#B8CAD8"></path>
                    <path d="M230.770916,487.67 L231.797916,469.44 L390.403916,471.91 L429.949916,469.01 L431.157916,482.98 C431.574916,487.81 427.956916,492.04 423.125916,492.37 L390.204916,494.65 L235.027916,492.24 C232.566916,492.2 230.632916,490.12 230.770916,487.67 Z" id="Path" fill="#C7CBCF"></path>
                    <polygon id="Path" fill="#46799F" points="64.5059161 0 199.505916 0 189.505916 353.5 186.505916 388 110.005916 384 104.505916 353.5"></polygon>
                    <path d="M121.101409,42.3194672 C120.134869,48.3834165 117.18218,56.3936117 112.810734,63.3872193 C107.241837,72.296555 99.8802111,78.9661527 90.7838546,82.51219 L96.2319777,96.48781 C108.579886,91.6742187 118.353798,82.8191014 125.530348,71.3377807 C130.981362,62.6170383 134.635615,52.7036056 135.914423,44.6805328 L121.101409,42.3194672 Z" id="Path" fill="#2F5F83"></path>
                    <polygon id="Path" fill="#46799F" points="198.220916 6.021 333.677916 6.021 319.006916 350 317.505916 381 239.006916 387.5 234.506916 359"></polygon>
                    <path d="M268.509314,35.8103819 C268.271875,45.1988253 271.062216,56.8760908 276.828954,67.2355074 C284.310735,80.6758432 296.1659,91.1477003 312.450921,97.0510205 L317.562911,82.9489795 C304.771005,78.3119135 295.70388,70.3027767 289.935128,59.9397426 C285.490387,51.9551702 283.334025,42.9310377 283.504519,36.1896181 L268.509314,35.8103819 Z" id="Path" fill="#2F5F83"></path>
                    <path d="M309.303683,367.508356 L301.330423,368.161902 C299.954326,368.274697 298.930217,369.481682 299.043012,370.857779 C299.155807,372.233876 300.362792,373.257985 301.738889,373.14519 L309.712149,372.491644 C311.088246,372.378849 312.112355,371.171864 311.99956,369.795767 C311.886765,368.41967 310.67978,367.395561 309.303683,367.508356 Z M293.357163,368.815448 L285.383903,369.468994 C284.007806,369.581789 282.983697,370.788774 283.096492,372.164871 C283.209287,373.540968 284.416272,374.565076 285.792369,374.452282 L293.765629,373.798736 C295.141726,373.685941 296.165834,372.478956 296.05304,371.102859 C295.940245,369.726762 294.73326,368.702653 293.357163,368.815448 Z M277.410642,370.12254 L269.437382,370.776086 C268.061285,370.888881 267.037177,372.095866 267.149971,373.471963 C267.262766,374.84806 268.469752,375.872168 269.845848,375.759373 L277.819109,375.105827 C279.195205,374.993033 280.219314,373.786047 280.106519,372.409951 C279.993724,371.033854 278.786739,370.009745 277.410642,370.12254 Z M261.464122,371.429632 L253.490862,372.083178 C252.114765,372.195972 251.090656,373.402958 251.203451,374.779055 C251.316246,376.155151 252.523231,377.17926 253.899328,377.066465 L261.872588,376.412919 C263.248685,376.300124 264.272794,375.093139 264.159999,373.717042 C264.047204,372.340946 262.840219,371.316837 261.464122,371.429632 Z" id="Path" fill="#7096E0"></path>
                    <path d="M177.63276,372.503119 L169.642741,372.103618 C168.263752,372.034669 167.089966,373.096666 167.021017,374.475655 C166.952067,375.854644 168.014064,377.02843 169.393053,377.09738 L177.383072,377.496881 C178.762061,377.56583 179.935848,376.503833 180.004797,375.124844 C180.073746,373.745855 179.011749,372.572069 177.63276,372.503119 Z M161.652723,371.704117 L153.662704,371.304616 C152.283715,371.235667 151.109929,372.297664 151.040979,373.676653 C150.97203,375.055642 152.034027,376.229429 153.413016,376.298378 L161.403035,376.697879 C162.782024,376.766828 163.95581,375.704831 164.02476,374.325842 C164.093709,372.946853 163.031712,371.773067 161.652723,371.704117 Z M145.672685,370.905115 L137.682667,370.505614 C136.303677,370.436665 135.129891,371.498662 135.060942,372.877651 C134.991992,374.25664 136.053989,375.430427 137.432979,375.499376 L145.422997,375.898877 C146.801986,375.967827 147.975773,374.90583 148.044722,373.52684 C148.113672,372.147851 147.051675,370.974065 145.672685,370.905115 Z M129.692648,370.106114 L121.702629,369.706613 C120.32364,369.637663 119.149854,370.69966 119.080904,372.078649 C119.011955,373.457639 120.073952,374.631425 121.452941,374.700374 L129.44296,375.099875 C130.821949,375.168825 131.995735,374.106828 132.064685,372.727838 C132.133634,371.348849 131.071637,370.175063 129.692648,370.106114 Z" id="Path" fill="#7096E0"></path>
                    <path d="M314.00849,89.9464409 L313.837101,97.9446048 C313.807521,99.3249997 314.902573,100.46801 316.282968,100.49759 C317.663363,100.52717 318.806373,99.432118 318.835953,98.051723 L319.007342,90.0535591 C319.036922,88.6731641 317.94187,87.5301537 316.561475,87.5005738 C315.18108,87.4709939 314.03807,88.5660459 314.00849,89.9464409 Z M313.665711,105.942769 L313.494322,113.940933 C313.464742,115.321328 314.559794,116.464338 315.940189,116.493918 C317.320584,116.523498 318.463595,115.428446 318.493175,114.048051 L318.664564,106.049887 C318.694144,104.669492 317.599092,103.526481 316.218697,103.496902 C314.838302,103.467322 313.695291,104.562374 313.665711,105.942769 Z M313.322933,121.939096 L313.151544,129.93726 C313.121964,131.317655 314.217016,132.460666 315.597411,132.490246 C316.977806,132.519826 318.120816,131.424774 318.150396,130.044379 L318.321785,122.046215 C318.351365,120.66582 317.256313,119.522809 315.875918,119.493229 C314.495523,119.463649 313.352513,120.558701 313.322933,121.939096 Z M312.980155,137.935424 L312.808765,145.933588 C312.779185,147.313983 313.874237,148.456994 315.254632,148.486574 C316.635027,148.516153 317.778038,147.421101 317.807618,146.040706 L317.979007,138.042543 C318.008587,136.662148 316.913535,135.519137 315.53314,135.489557 C314.152745,135.459977 313.009734,136.555029 312.980155,137.935424 Z M312.637376,153.931752 L312.465987,161.929916 C312.436407,163.310311 313.531459,164.453321 314.911854,164.482901 C316.292249,164.512481 317.435259,163.417429 317.464839,162.037034 L317.636229,154.03887 C317.665808,152.658475 316.570756,151.515465 315.190361,151.485885 C313.809966,151.456305 312.666956,152.551357 312.637376,153.931752 Z M312.294598,169.92808 L312.123208,177.926244 C312.093629,179.306639 313.188681,180.449649 314.569076,180.479229 C315.94947,180.508809 317.092481,179.413757 317.122061,178.033362 L317.29345,170.035198 C317.32303,168.654803 316.227978,167.511793 314.847583,167.482213 C313.467188,167.452633 312.324178,168.547685 312.294598,169.92808 Z M311.951819,185.924408 L311.78043,193.922572 C311.75085,195.302967 312.845902,196.445977 314.226297,196.475557 C315.606692,196.505137 316.749703,195.410085 316.779282,194.02969 L316.950672,186.031526 C316.980252,184.651131 315.8852,183.50812 314.504805,183.478541 C313.12441,183.448961 311.981399,184.544013 311.951819,185.924408 Z M311.609041,201.920735 L311.437652,209.918899 C311.408072,211.299294 312.503124,212.442305 313.883519,212.471885 C315.263914,212.501465 316.406924,211.406413 316.436504,210.026018 L316.607893,202.027854 C316.637473,200.647459 315.542421,199.504448 314.162026,199.474868 C312.781631,199.445288 311.638621,200.54034 311.609041,201.920735 Z M311.266262,217.917063 L311.094873,225.915227 C311.065293,227.295622 312.160345,228.438633 313.54074,228.468212 C314.921135,228.497792 316.064146,227.40274 316.093726,226.022345 L316.265115,218.024181 C316.294695,216.643787 315.199643,215.500776 313.819248,215.471196 C312.438853,215.441616 311.295842,216.536668 311.266262,217.917063 Z M310.923484,233.913391 L310.752095,241.911555 C310.722515,243.29195 311.817567,244.43496 313.197962,244.46454 C314.578357,244.49412 315.721367,243.399068 315.750947,242.018673 L315.922336,234.020509 C315.951916,232.640114 314.856864,231.497104 313.476469,231.467524 C312.096074,231.437944 310.953064,232.532996 310.923484,233.913391 Z M310.580705,249.909719 L310.409316,257.907883 C310.379736,259.288278 311.474788,260.431288 312.855183,260.460868 C314.235578,260.490448 315.378589,259.395396 315.408169,258.015001 L315.579558,250.016837 C315.609138,248.636442 314.514086,247.493432 313.133691,247.463852 C311.753296,247.434272 310.610285,248.529324 310.580705,249.909719 Z M310.237927,265.906047 L310.066538,273.904211 C310.036958,275.284605 311.13201,276.427616 312.512405,276.457196 C313.8928,276.486776 315.03581,275.391724 315.06539,274.011329 L315.236779,266.013165 C315.266359,264.63277 314.171307,263.489759 312.790912,263.46018 C311.410517,263.4306 310.267507,264.525652 310.237927,265.906047 Z M309.895148,281.902374 L309.723759,289.900538 C309.694179,291.280933 310.789231,292.423944 312.169626,292.453524 C313.550021,292.483104 314.693032,291.388052 314.722612,290.007657 L314.894001,282.009493 C314.923581,280.629098 313.828529,279.486087 312.448134,279.456507 C311.067739,279.426927 309.924728,280.521979 309.895148,281.902374 Z M309.55237,297.898702 L309.380981,305.896866 C309.351401,307.277261 310.446453,308.420272 311.826848,308.449851 C313.207243,308.479431 314.350253,307.384379 314.379833,306.003984 L314.551222,298.00582 C314.580802,296.625425 313.48575,295.482415 312.105355,295.452835 C310.72496,295.423255 309.58195,296.518307 309.55237,297.898702 Z M309.209592,313.89503 L309.038202,321.893194 C309.008622,323.273589 310.103674,324.416599 311.484069,324.446179 C312.864464,324.475759 314.007475,323.380707 314.037055,322.000312 L314.208444,314.002148 C314.238024,312.621753 313.142972,311.478743 311.762577,311.449163 C310.382182,311.419583 309.239171,312.514635 309.209592,313.89503 Z M308.866813,329.891358 L308.695424,337.889522 C308.665844,339.269917 309.760896,340.412927 311.141291,340.442507 C312.521686,340.472087 313.664696,339.377035 313.694276,337.99664 L313.865666,329.998476 C313.895245,328.618081 312.800193,327.475071 311.419798,327.445491 C310.039403,327.415911 308.896393,328.510963 308.866813,329.891358 Z M308.524035,345.887686 L308.352645,353.885849 C308.323066,355.266244 309.418118,356.409255 310.798513,356.438835 C312.178908,356.468415 313.321918,355.373363 313.351498,353.992968 L313.522887,345.994804 C313.552467,344.614409 312.457415,343.471398 311.07702,343.441819 C309.696625,343.412239 308.553615,344.507291 308.524035,345.887686 Z M308.181256,361.884013 L308.009867,369.882177 C307.980287,371.262572 309.075339,372.405583 310.455734,372.435163 C311.836129,372.464743 312.97914,371.369691 313.008719,369.989296 L313.180109,361.991132 C313.209689,360.610737 312.114637,359.467726 310.734242,359.438146 C309.353847,359.408566 308.210836,360.503618 308.181256,361.884013 Z" id="Path" fill="#7096E0"></path>
                    <path d="M90.0172651,89.7160034 L90.7084759,97.6860867 C90.8277712,99.0616352 92.0395817,100.08003 93.4151303,99.9607343 C94.7906788,99.841439 95.8090733,98.6296285 95.6897779,97.2540799 L94.9985672,89.2839966 C94.8792718,87.9084481 93.6674614,86.8900536 92.2919128,87.009349 C90.9163642,87.1286443 89.8979697,88.3404548 90.0172651,89.7160034 Z M91.3996866,105.65617 L92.0908974,113.626253 C92.2101928,115.001802 93.4220032,116.020196 94.7975518,115.900901 C96.1731004,115.781606 97.1914948,114.569795 97.0721995,113.194247 L96.3809887,105.224163 C96.2616933,103.848615 95.0498829,102.83022 93.6743343,102.949516 C92.2987857,103.068811 91.2803913,104.280621 91.3996866,105.65617 Z M92.7821082,121.596337 L93.4733189,129.56642 C93.5926143,130.941968 94.8044247,131.960363 96.1799733,131.841067 C97.5555219,131.721772 98.5739163,130.509962 98.454621,129.134413 L97.7634102,121.16433 C97.6441149,119.788781 96.4323044,118.770387 95.0567558,118.889682 C93.6812072,119.008978 92.6628128,120.220788 92.7821082,121.596337 Z M94.1645297,137.536503 L94.8557405,145.506586 C94.9750358,146.882135 96.1868463,147.900529 97.5623948,147.781234 C98.9379434,147.661939 99.9563379,146.450128 99.8370425,145.07458 L99.1458317,137.104496 C99.0265364,135.728948 97.8147259,134.710553 96.4391774,134.829849 C95.0636288,134.949144 94.0452343,136.160955 94.1645297,137.536503 Z M95.5469512,153.47667 L96.238162,161.446753 C96.3574573,162.822302 97.5692678,163.840696 98.9448164,163.721401 C100.320365,163.602105 101.338759,162.390295 101.219464,161.014746 L100.528253,153.044663 C100.408958,151.669114 99.1971475,150.65072 97.8215989,150.770015 C96.4460503,150.889311 95.4276559,152.101121 95.5469512,153.47667 Z M96.9293727,169.416836 L97.6205835,177.38692 C97.7398789,178.762468 98.9516893,179.780863 100.327238,179.661567 C101.702786,179.542272 102.721181,178.330461 102.601886,176.954913 L101.910675,168.98483 C101.791379,167.609281 100.579569,166.590887 99.2040204,166.710182 C97.8284718,166.829477 96.8100774,168.041288 96.9293727,169.416836 Z M98.3117943,185.357003 L99.003005,193.327086 C99.1223004,194.702635 100.334111,195.721029 101.709659,195.601734 C103.085208,195.482438 104.103602,194.270628 103.984307,192.895079 L103.293096,184.924996 C103.173801,183.549448 101.961991,182.531053 100.586442,182.650348 C99.2108934,182.769644 98.1924989,183.981454 98.3117943,185.357003 Z M99.6942158,201.297169 L100.385427,209.267253 C100.504722,210.642801 101.716532,211.661196 103.092081,211.5419 C104.46763,211.422605 105.486024,210.210795 105.366729,208.835246 L104.675518,200.865163 C104.556222,199.489614 103.344412,198.47122 101.968863,198.590515 C100.593315,198.70981 99.5749204,199.921621 99.6942158,201.297169 Z M101.076637,217.237336 L101.767848,225.207419 C101.887143,226.582968 103.098954,227.601362 104.474502,227.482067 C105.850051,227.362772 106.868446,226.150961 106.74915,224.775413 L106.057939,216.805329 C105.938644,215.429781 104.726834,214.411386 103.351285,214.530682 C101.975736,214.649977 100.957342,215.861787 101.076637,217.237336 Z M102.459059,233.177503 L103.15027,241.147586 C103.269565,242.523134 104.481375,243.541529 105.856924,243.422234 C107.232473,243.302938 108.250867,242.091128 108.131572,240.715579 L107.440361,232.745496 C107.321066,231.369947 106.109255,230.351553 104.733707,230.470848 C103.358158,230.590144 102.339763,231.801954 102.459059,233.177503 Z M103.84148,249.117669 L104.532691,257.087752 C104.651987,258.463301 105.863797,259.481696 107.239346,259.3624 C108.614894,259.243105 109.633289,258.031294 109.513993,256.655746 L108.822782,248.685662 C108.703487,247.310114 107.491677,246.291719 106.116128,246.411015 C104.740579,246.53031 103.722185,247.742121 103.84148,249.117669 Z M105.223902,265.057836 L105.915113,273.027919 C106.034408,274.403468 107.246218,275.421862 108.621767,275.302567 C109.997316,275.183271 111.01571,273.971461 110.896415,272.595912 L110.205204,264.625829 C110.085909,263.25028 108.874098,262.231886 107.49855,262.351181 C106.123001,262.470477 105.104607,263.682287 105.223902,265.057836 Z M106.606323,280.998002 L107.297534,288.968086 C107.41683,290.343634 108.62864,291.362029 110.004189,291.242733 C111.379737,291.123438 112.398132,289.911628 112.278836,288.536079 L111.587625,280.565996 C111.46833,279.190447 110.25652,278.172053 108.880971,278.291348 C107.505423,278.410643 106.487028,279.622454 106.606323,280.998002 Z M107.988745,296.938169 L108.679956,304.908252 C108.799251,306.283801 110.011062,307.302195 111.38661,307.1829 C112.762159,307.063605 113.780553,305.851794 113.661258,304.476246 L112.970047,296.506162 C112.850752,295.130614 111.638941,294.112219 110.263393,294.231515 C108.887844,294.35081 107.86945,295.56262 107.988745,296.938169 Z M109.371166,312.878336 L110.062377,320.848419 C110.181673,322.223967 111.393483,323.242362 112.769032,323.123066 C114.14458,323.003771 115.162975,321.791961 115.043679,320.416412 L114.352469,312.446329 C114.233173,311.07078 113.021363,310.052386 111.645814,310.171681 C110.270266,310.290977 109.251871,311.502787 109.371166,312.878336 Z M110.753588,328.818502 L111.444799,336.788585 C111.564094,338.164134 112.775905,339.182528 114.151453,339.063233 C115.527002,338.943938 116.545396,337.732127 116.426101,336.356579 L115.73489,328.386495 C115.615595,327.010947 114.403784,325.992552 113.028236,326.111848 C111.652687,326.231143 110.634293,327.442954 110.753588,328.818502 Z M112.13601,344.758669 L112.82722,352.728752 C112.946516,354.104301 114.158326,355.122695 115.533875,355.0034 C116.909423,354.884104 117.927818,353.672294 117.808522,352.296745 L117.117312,344.326662 C116.998016,342.951113 115.786206,341.932719 114.410657,342.052014 C113.035109,342.17131 112.016714,343.38312 112.13601,344.758669 Z M113.518431,360.698835 L114.209642,368.668919 C114.328937,370.044467 115.540748,371.062862 116.916296,370.943566 C118.291845,370.824271 119.310239,369.61246 119.190944,368.236912 L118.499733,360.266829 C118.380438,358.89128 117.168627,357.872886 115.793079,357.992181 C114.41753,358.111476 113.399136,359.323287 113.518431,360.698835 Z" id="Path" fill="#7096E0"></path>
                </g>
                <g id="upper-limb" transform="translate(0.000000, 510.000275)">
                    <path d="M51.7562818,149.095296 C34.0438417,183.77261 23.829393,236.017879 21.4950527,292.205493 C19.2666908,345.842205 24.5496931,395.225377 37.3174729,423.312386 C45.7738696,441.915063 67.7095832,450.140249 86.3122606,441.683852 C104.728911,433.31202 112.974582,411.729109 104.932421,393.248128 L104.683727,392.689065 C97.8606345,377.679387 93.6449796,338.273307 95.4312723,295.277208 C97.3429498,249.263096 105.529532,207.027676 117.299557,183.464461 L117.657318,182.756155 C126.952508,164.558086 119.735298,142.270397 101.537229,132.975207 C83.3391606,123.680018 61.0514713,130.897227 51.7562818,149.095296 Z" id="Path" fill="#EBBAAA"></path>
                    <path d="M367.494696,159.36643 C385.403253,191.113831 397.873539,240.534316 402.698474,294.528437 C406.826655,340.725432 404.461958,384.461137 398.412184,401.836551 L398.227733,402.354986 C391.244236,421.559179 401.151068,442.788496 420.35526,449.771993 C439.559453,456.755489 460.78877,446.848658 467.772267,427.644465 C478.467522,398.233161 481.456487,344.473894 476.404776,287.942014 C470.725259,224.384568 455.826944,165.34166 431.947304,123.009021 C421.907483,105.210924 399.340392,98.9215996 381.542295,108.961421 C363.744199,119.001242 357.454874,141.568334 367.494696,159.36643 Z" id="Path" fill="#EBBAAA"></path>
                    <path d="M82,74.4997254 C82,50.9997254 133.5,27.0157254 169.5,15.6097254 L216.5,0.0157254159 C223.045,-0.190274584 268.017,1.67972542 274.5,2.57572542 L347.5,27.0157254 C382.091,31.7977254 435.484,46.7537254 432,81.4997254 L394.548,234.298725 L398,430.999725 C398.072,432.813725 315.314,443.092725 313.5,443.000353 L176,434.279725 L101.5,430.929725 C99.7581,430.836725 98.8557,425.741725 99,423.999725 L109.008,215.879725 L82,74.4997254 Z" id="Path" fill="#EBBAAA"></path>
                    <path d="M423.5,50.4997254 C414.3,41.2997254 384,31.9997254 370,28.4997254 C378.833,146.499725 397.3,385.499725 400.5,397.499725 C404.5,412.499725 475,416.999725 483,410.999725 C491,404.999725 484,289.999725 475,240.999725 C469.388,210.446725 435,61.9997254 423.5,50.4997254 Z" id="Path" fill="#C5C8CB"></path>
                    <path d="M483.65,413.615725 C487.402,412.820725 496.015,384.469725 499,373.374725 L394.105,353.999725 C392.826,364.101725 390.438,385.993725 391.12,392.749725 C391.973,401.195725 411.588,408.647725 432.908,412.621725 C454.228,416.596725 478.959,414.609725 483.65,413.615725 Z" id="Path" fill="#CED2D7"></path>
                    <path d="M78.9183,52.9827254 C88.4348,44.7297254 122.894,28.4967254 136,24.9997254 C127.731,142.908725 103.444,387.722725 100.449,399.713725 C96.7043,414.702725 24.4889,419.994725 17,413.999725 C9.51114,408.004725 15.1278,320.975725 17,289.999725 C18.8722,259.023725 42,84.9997254 78.9183,52.9827254 Z" id="Path" fill="#C5C8CB"></path>
                    <path d="M17.6246,415.615725 C13.3164,414.820725 3.42702,386.469725 -1.84741111e-13,375.374725 L120.435,355.999725 C121.904,366.101725 124.645,387.993725 123.862,394.749725 C122.883,403.195725 100.362,410.647725 75.8838,414.621725 C51.4051,418.596725 23.0099,416.609725 17.6246,415.615725 Z" id="Path" fill="#CED2D7"></path>
                    <path d="M273.177,70.7787254 C253.977,81.1787254 231.177,75.1117254 222.177,70.7787254 C199.511,107.778725 152.977,183.178725 148.177,188.778725 C142.177,195.778725 290.177,211.778725 307.177,211.778725 C324.177,211.778725 297.177,57.7787254 273.177,70.7787254 Z" id="Path" fill="#E3ECF1"></path>
                    <path d="M234,90.9997254 C229,76.4997254 231.5,56.4997254 231.5,56.4997254 L209,63.9997254 L182,11.4997254 C150.833,16.9997254 149.5,18.9997254 127,28.9997254 C100.159,40.9287254 105.5,80.9997254 101.5,135.499725 L96,433.999725 C96,433.999725 132,445.999725 157,445.999725 L219.5,445.999725 L241.5,107.499725 C241.5,107.499725 239,105.499725 234,90.9997254 Z" id="Path" fill="#D1D6DB"></path>
                    <path d="M253.174,90.9997254 C240.174,80.4997254 242.34,72.1667254 244.674,63.9997254 L249.174,60.9997254 L282.174,56.9997254 L313.174,14.9997254 C313.174,14.9997254 357.674,20.9997254 372.674,28.9997254 C387.674,36.9997254 396.674,124.499725 396.674,124.499725 L403.674,435.999725 C403.674,435.999725 361.174,441.499725 330.174,446.499725 C299.174,451.499725 219.174,446.499725 219.174,446.499725 C217.841,341.832725 224.209,116.363725 237.174,109.499725 C254.174,100.499725 256.174,93.4227254 253.174,90.9997254 Z" id="Path" fill="#D1D6DB"></path>
                    <path d="M397.602,127.999725 C380.458,139.230725 289.985,154.071725 245.261,158.082725 C242.155,172.456725 241.999995,190.171725 241.999995,201.704725 C251.783,213.235725 328.654,200.199725 397.602,178.639725 C399.466,163.598725 399.466,147.553725 397.602,127.999725 Z" id="Path" fill="#3A3A3C"></path>
                    <path d="M398.141,174.999725 C381.04,186.301725 289.865,201.742725 245.253,205.778725 C242.155,220.243725 241.999995,238.071725 241.999995,249.676725 C251.759,261.281725 331.224,248.162725 399.999995,226.466725 C399.999995,205.778725 399.071,189.632725 398.141,174.999725 Z" id="Path" fill="#866959"></path>
                    <path d="M101.398,129.999725 C118.542,141.230725 209.015,156.071725 253.739,160.082725 C256.845,174.456725 257.000005,192.171725 257.000005,203.704725 C247.217,215.235725 170.346,202.199725 101.398,180.639725 C99.5341,165.598725 99.5341,149.553725 101.398,129.999725 Z" id="Path" fill="#3A3A3C"></path>
                    <path d="M100.859,176.999725 C117.96,188.301725 209.135,203.742725 253.747,207.778725 C256.845,222.243725 257,240.071725 257,251.676725 C247.241,263.281725 167.776,250.162725 99,228.466725 C99,207.778725 99.9293,191.632725 100.859,176.999725 Z" id="Path" fill="#866959"></path>
                    <path d="M260.220876,125.272695 L260.24288,124.910745 L260.257508,124.863334 C260.32832,124.611058 260.454944,124.26504 260.642052,123.840052 C261.12087,122.752492 261.888195,121.390221 262.929971,119.812786 C265.066429,116.577804 268.17286,112.704857 272.166635,108.251495 C273.974134,106.235997 275.945463,104.12057 278.117705,101.857403 L279.674759,100.245066 L281.532144,98.3447134 C282.646996,97.2107792 283.827374,96.0213911 285.128995,94.7187359 L292.874355,86.9968473 L294.557522,85.299339 C299.397591,80.3913145 301.361313,78.1099161 302.733126,75.3662886 L281.266874,64.6331623 C281.352772,64.4613659 281.431203,64.3165228 281.503186,64.1925133 L281.689042,63.8899506 L281.638253,63.9548229 C281.436579,64.2106083 281.124555,64.5761116 280.71226,65.0347236 L280.18233,65.6155268 L279.467789,66.3784271 C278.955963,66.918578 278.370933,67.5242561 277.69907,68.2100166 L275.771011,70.1594689 L268.14075,77.7658626 L265.448638,80.4735481 C264.257163,81.6788419 263.143137,82.8163846 262.05056,83.9443822 L261.583463,84.427395 C258.927608,87.1781607 256.520221,89.7513193 254.299173,92.2279557 L253.307011,93.3409582 L252.342031,94.4373591 C242.35272,105.86408 236.8714,114.624171 236.299578,123.201497 C235.502455,135.158351 234.273,388.016161 234.273,446.999725 L258.273,446.999725 L258.278795,439.215613 C258.369681,370.592387 259.508777,141.003494 260.220876,125.272695 Z" id="Path" fill="#C5C8CB"></path>
                    <path d="M241.5,159.999725 C244,158.499725 254.333,157.332725 260,156.499725 L260,204.499725 C260,205.699725 246.667,207.999725 239.5,207.999725 C238,190.499725 239.5,161.199725 241.5,159.999725 Z" id="Path" fill="#272729"></path>
                    <path d="M239.609,207.499725 C242,207.499725 254.391,205.999725 260,203.999725 C260,219.499725 259.109,252.799725 259.109,253.999725 C259.109,255.199725 245.667,257.499725 238.5,257.499725 C237,239.999725 237.501,213.499725 239.609,207.499725 Z" id="Path" fill="#514239"></path>
                    <path d="M286,28.4997254 C289.439,17.1237254 286,8.99972542 285,3.99972542 L313,14.4997254 C313,14.4997254 322.5,26.4997254 316.5,53.9997254 C309.927,84.1267254 280.857,95.9997254 274,103.999725 C271,107.499725 272,64.9997254 249,60.4997254 C259.5,57.9997254 279.5,49.9997254 286,28.4997254 Z" id="Path" fill="#D7E1E9"></path>
                    <path d="M206.052,34.4997254 C199,24.4997254 202.658,10.4737254 206.052,2.99972542 L181.5,11.4997254 C181.5,11.4997254 167.382,35.8077254 175.014,59.3007254 C184.5,88.4997254 218.294,99.0507254 218,95.4997254 C215,59.3007254 226.989,60.6497254 232,55.9997254 C223.5,53.9997254 215.424,47.7887254 206.052,34.4997254 Z" id="Path" fill="#D7E1E9"></path>
                    <circle id="Oval" fill="#E2E9F9" cx="471.5" cy="394.499725" r="7.5"></circle>
                    <circle id="Oval" fill="#E2E9F9" cx="28.5" cy="394.499725" r="7.5"></circle>
                </g>
                <g id="head" transform="translate(49.998200, 0.322040)">
                    <rect id="Rectangle" fill="#EBBAAA" x="156.0018" y="459.67796" width="79" height="113" rx="37.911"></rect>
                    <path d="M338.2668,386.21096 C370.9988,386.21096 397.5328,359.67696 397.5328,326.94496 C397.5328,294.21296 370.9988,267.67796 338.2668,267.67796 C305.5348,267.67796 278.9998,294.21296 278.9998,326.94496 C278.9998,359.67696 305.5348,386.21096 338.2668,386.21096 Z" id="Path" fill="#EBBAAA"></path>
                    <path d="M59.2668,389.21096 C26.5345,389.21096 4.26325641e-13,362.67696 4.26325641e-13,329.94496 C4.26325641e-13,297.21296 26.5345,270.67796 59.2668,270.67796 C91.9988,270.67796 118.5328,297.21296 118.5328,329.94496 C118.5328,362.67696 91.9988,389.21096 59.2668,389.21096 Z" id="Path" fill="#EBBAAA"></path>
                    <path d="M41.0018,216.47996 C41.0018,132.64196 108.9658,64.67796 192.8038,64.67796 C277.9568,64.67796 346.4528,134.70596 344.5688,219.83796 L341.1758,373.21296 C339.4118,452.95496 274.2628,516.67796 194.5018,516.67796 C115.6338,516.67796 50.4618,455.14796 45.9332,376.40996 L41.0018,290.67796 L41.0018,216.47996 Z" id="Path" fill="#F4D4C9"></path>
                    <path d="M161.262519,421.408665 C180.851363,432.291356 203.971447,432.009404 228.91714,421.804348 C232.852936,420.19425 234.738286,415.698415 233.128188,411.76262 C231.51809,407.826824 227.022255,405.941474 223.08646,407.551572 C202.157851,416.113276 183.841974,416.33664 168.741081,407.947255 C165.023815,405.882107 160.336243,407.221414 158.271095,410.938679 C156.205947,414.655945 157.545254,419.343517 161.262519,421.408665 Z" id="Path" fill="#C99584"></path>
                    <path d="M31.0011,214.67796 C29.9903,205.29496 37.967,190.67796 44.5023,190.67796 C51.2828,190.67796 53.6418,195.20696 53.0008,201.06096 L48.0023,300.59396 C44.5023,305.17796 43.3383,303.67796 41.4268,303.67796 C39.4299,303.67796 37.7961,302.31596 37.7107,300.59396 L31.0011,214.67796 Z" id="Path" fill="#272727"></path>
                    <path d="M356.8988,201.17396 C357.4528,195.54896 352.5528,190.59396 346.1178,190.26196 C339.4418,189.91796 333.9568,194.67896 334.2878,200.53396 L339.8638,299.73096 C339.9578,301.38896 341.4698,302.72296 343.3518,302.81996 C345.3178,302.92196 346.9968,301.64996 347.1688,299.94096 L356.8988,201.17396 Z" id="Path" fill="#272727"></path>
                    <path d="M241.78204,256.662407 L288.11004,259.023407 C294.728868,259.36072 300.367934,254.268547 300.705247,247.64972 C301.04256,241.030892 295.950387,235.391826 289.33156,235.054513 L243.00356,232.693513 C236.384732,232.3562 230.745666,237.448373 230.408353,244.0672 C230.07104,250.686028 235.163213,256.325094 241.78204,256.662407 Z" id="Path" fill="#393939"></path>
                    <path d="M151.331552,232.688643 L104.984552,234.645643 C98.3630349,234.925237 93.2218902,240.519692 93.5014834,247.141208 C93.7810766,253.762725 99.3755316,258.90387 105.997048,258.624277 L152.344048,256.667277 C158.965565,256.387683 164.10671,250.793228 163.827117,244.171712 C163.547523,237.550195 157.953068,232.40905 151.331552,232.688643 Z" id="Path" fill="#393939"></path>
                    <path d="M181.608045,319.486588 C174.482774,332.057562 169.649308,345.197535 169.420491,356.266536 C169.068006,373.317899 179.795921,384.17796 200.0018,384.17796 L200.0018,367.17796 C193.985717,367.17796 190.385445,365.9749 188.549214,364.116049 C187.105988,362.655046 186.341858,360.246072 186.416859,356.617884 C186.574652,348.984688 190.54108,338.201795 196.397555,327.869332 L181.608045,319.486588 Z" id="Path" fill="#EBBAAA"></path>
                    <path d="M358.5018,103.17796 C322.4858,26.17796 266.3348,33.51126 254.0018,29.17796 L254.0018,127.67796 C279.0018,116.53296 303.6018,119.97796 320.0018,149.17796 C336.4018,178.37796 337.3348,238.01096 338.5018,264.17796 C338.5018,264.17796 349.5018,270.42796 352.5018,270.17796 C355.5018,269.92796 363.0018,273.17796 363.0018,273.17796 C363.5018,238.51096 370.1018,127.97796 358.5018,103.17796 Z" id="Path" fill="#1E1E1E"></path>
                    <path d="M23.0018,164.67796 C23.0001,86.07616 63.0018,51.67796 134.0018,37.17796 C134.0018,37.17796 144.0008,131.79796 106.0008,122.67796 C68.0008,113.55796 55.0008,167.67796 55.0008,167.67796 L49.0007,262.67796 C39.5007,249.34496 23.0033,234.17796 23.0018,164.67796 Z" id="Path" fill="#181818"></path>
                    <polygon id="Path" fill="#1E1E1E" points="311.1578 52.12446 289.9258 50.70066 333.5038 144.88696 348.2958 263.43796 364.0978 258.39496 363.7808 249.68496 369.7778 247.56596 366.2508 237.58296 375.5198 234.30896 370.9858 221.47396 377.0658 216.11696 373.0358 204.70896 377.7308 195.43096 371.3928 184.43596 374.4958 179.32996 370.2128 167.20796 375.1198 165.47396 364.4188 150.80796 367.8148 144.79596 360.3888 139.39896 362.7768 130.53496 353.0838 118.71996 354.9678 108.42996 346.7858 100.89396 344.5188 94.47676 337.6378 88.88716 340.9918 84.49406 327.4408 75.64666 326.8508 67.03266 312.5658 60.44946"></polygon>
                    <polygon id="Path" fill="#1E1E1E" points="63.4358 105.86996 80.5168 103.67096 51.4958 141.73196 49.9679 181.90996 43.8762 278.40996 30.8612 275.11596 30.6873 268.06396 25.7377 266.64896 28.0934 258.41096 20.4441 256.22296 23.4728 245.63096 18.2964 241.60396 20.9886 232.18896 16.7376 224.92596 21.3138 215.73096 18.5554 211.75896 21.4159 201.75496 17.3663 200.59696 22.2459 190.30396 18.5527 181.90896 22.2459 176.30396 20.4477 168.30396 23.4728 158.30396 30.8274 153.51996 37.0646 147.02796 38.5789 141.73196 43.8613 136.87596 40.9346 133.49296 51.4448 125.67696 51.4958 118.68896 62.7098 112.66496"></polygon>
                    <path d="M157.0018,137.67896 C97.0008,132.67896 84.6688,108.01196 83.0018,100.67896 C83.0018,84.67896 88.6018,61.67896 107.0018,45.67896 C130.0018,25.67896 198.0028,17.67876 240.0028,18.67876 C282.0028,19.67876 314.0018,67.67896 310.0018,89.67896 C306.0018,111.67896 297.0018,119.67896 255.0018,131.67896 C213.0018,143.67896 189.6458,140.39896 157.0018,137.67896 Z" id="Path" fill="#343333"></path>
                    <polygon id="Path" fill="#343333" points="94.3438 44.43166 87.6498 77.65316 189.7918 56.03546 308.3318 92.87566 307.4018 65.03556 298.8848 61.09866 298.3338 50.42826 287.7808 50.97346 286.9288 34.48276 273.3618 35.18366 269.6948 22.72886 257.6348 23.35196 249.8228 11.11136 237.5858 15.63396 233.4168 8.06836 220.6028 8.73036 220.1518 -3.55271368e-14 203.2658 9.62596 198.2928 1.12922 191.2058 10.24896 183.2168 1.908 169.3468 11.37816 159.8508 3.11511 150.5028 12.35166 143.7188 12.70216 136.5818 20.85176 133.1668 13.24726 121.2048 30.39986 112.7128 26.94806 102.7598 46.42846"></polygon>
                    <path d="M260.9978,300.17596 L248.9978,300.17596 C242.370383,300.17596 236.9978,305.548543 236.9978,312.17596 C236.9978,318.803377 242.370383,324.17596 248.9978,324.17596 L260.9978,324.17596 C267.625217,324.17596 272.9978,318.803377 272.9978,312.17596 C272.9978,305.548543 267.625217,300.17596 260.9978,300.17596 Z" id="Path" fill="#000000"></path>
                    <path d="M141.620829,300.377405 L129.637829,299.749405 C123.019495,299.402555 117.373096,304.486597 117.026245,311.104931 C116.679395,317.723265 121.763437,323.369664 128.381771,323.716515 L140.364771,324.344515 C146.983105,324.691365 152.629504,319.607323 152.976355,312.988989 C153.323205,306.370655 148.239163,300.724256 141.620829,300.377405 Z" id="Path" fill="#000000"></path>
                    <path d="M176.3678,306.03296 L174.0118,328.36496 C173.6818,331.49396 172.2178,334.39296 169.2968,335.69596 C163.8678,338.11596 151.9598,341.68896 126.9448,343.65796 C98.4158,345.90496 81.2818,337.59996 73.7288,332.57996 C70.6088,330.50596 69.1458,326.89596 69.1448,323.09196 L69.1438,299.47196 C69.1438,297.62496 68.7018,295.79296 68.7378,293.94496 C68.8328,288.99096 73.2648,279.17196 107.5008,280.67696 C137.4518,281.99396 158.2398,288.50996 168.9498,292.80996 C174.2148,294.92296 176.9718,300.31096 176.3678,306.03296 Z" id="Path" fill-opacity="0.3" fill="#FFFFFF"></path>
                    <path d="M207.1218,306.03296 L209.4788,328.36496 C209.8088,331.49396 211.2718,334.39296 214.1938,335.69596 C219.6228,338.11596 231.5308,341.68896 256.5448,343.65796 C285.0748,345.90496 302.2088,337.59996 309.7618,332.57996 C312.8818,330.50596 314.3448,326.89596 314.3448,323.09196 L314.3458,299.47196 C314.3468,297.62496 314.7888,295.79296 314.7528,293.94496 C314.6568,288.99096 310.2258,279.17196 275.9888,280.67696 C246.0388,281.99396 225.2508,288.50996 214.5398,292.80996 C209.2758,294.92296 206.5188,300.31096 207.1218,306.03296 Z" id="Path" fill-opacity="0.3" fill="#FFFFFF"></path>
                    <path d="M179.974694,316.142415 L181.577694,301.902415 C182.103847,297.219815 180.180648,292.765015 176.167282,290.490116 C167.345079,285.488974 153.200494,281.217057 132.482072,278.706018 C110.591209,276.052221 90.6282369,278.638303 74.0450759,283.933503 C68.3412404,285.754547 64.8122386,291.270705 65.1958488,297.308584 L66.254876,313.949013 L74.238724,313.440907 L73.179724,296.800907 C73.022772,294.330541 74.3676686,292.228342 76.4783673,291.554467 C92.0388757,286.585812 110.877037,284.145442 131.51941,286.647887 C151.246172,289.038739 164.384713,293.006813 172.222185,297.449728 C173.257106,298.036354 173.81623,299.331478 173.627814,301.008318 L172.024906,315.247505 L179.974694,316.142415 Z" id="Path" fill="#5E381C"></path>
                    <polygon id="Path" fill="#5D381C" points="61.0018 290.17796 72.0018 284.67796 71.0018 299.67796 61.0018 298.67796"></polygon>
                    <polygon id="Path" fill="#5D381C" points="323.9998 288.17796 312.9998 282.67796 313.9998 297.67796 323.9998 296.67796"></polygon>
                    <path d="M212.357076,315.181365 L210.279076,301.705365 C209.951916,299.584303 210.807834,297.767431 212.403127,297.004733 C222.123294,292.355835 236.574864,288.22296 256.512741,285.644935 C277.40517,282.942893 295.325331,285.23546 309.449006,290.109165 C311.369458,290.771813 312.581226,292.725745 312.450993,295.063467 L311.477965,312.568966 L319.465635,313.012954 L320.438635,295.507954 C320.761544,289.711658 317.477721,284.416613 312.058507,282.546725 C296.825708,277.29029 277.679159,274.840829 255.486748,277.710999 L253.556826,277.967519 C233.779951,280.668526 219.131259,284.918943 208.951941,289.787441 C204.031773,292.139735 201.528609,297.453248 202.37255,302.924724 L204.450524,316.400555 L212.357076,315.181365 Z" id="Path" fill="#5E381C"></path>
                    <path d="M177.721254,306.789536 C187.134228,302.308064 195.870807,302.30785 205.282066,306.789402 L208.721534,299.566518 C197.13438,294.048826 185.87096,294.0491 174.282346,299.566384 L177.721254,306.789536 Z" id="Path" fill="#5E381C"></path>
                </g>
            </g>
        </g>
    </g>
</svg>