<?xml version="1.0" encoding="UTF-8"?>
<svg width="541px" height="1370px" viewBox="0 0 541 1370" version="1.1" xmlns="http://www.w3.org/2000/svg" xmlns:xlink="http://www.w3.org/1999/xlink">
    <!-- Generator: Sketch 55.2 (78181) - https://sketchapp.com -->
    <title>gee_me_025</title>
    <desc>Created with Sketch.</desc>
    <g id="GEE!-ME" stroke="none" stroke-width="1" fill="none" fill-rule="evenodd">
        <g id="gee_me_025" transform="translate(-328.000000, -115.000000)">
            <g transform="translate(328.000000, 115.000000)">
                <g id="lower-limb" transform="translate(44.671196, 897.964600)" fill-rule="nonzero">
                    <path d="M288.544626,118.341652 C310.466878,113.806191 331.915092,127.90097 336.450552,149.823222 C349.981436,215.225057 350.107377,321.021525 336.688044,397.941719 C332.840652,419.995134 311.8439,434.754032 289.790485,430.90664 C267.73707,427.059248 252.978172,406.062496 256.825564,384.009081 C268.552818,316.787957 268.439069,221.233801 257.063055,166.247578 C252.527595,144.325326 266.622374,122.877112 288.544626,118.341652 Z" id="37" fill="#1B2334"></path>
                    <path d="M101.456274,98.2799397 C103.287352,75.9684475 122.858772,59.3657915 145.170264,61.1968697 C167.481756,63.0279478 184.084412,82.5993681 182.253334,104.91086 C174.79436,195.797671 182.11889,313.867766 196.977049,389.86812 C201.272322,411.838695 186.943659,433.131372 164.973084,437.426645 C143.002509,441.721918 121.709832,427.393255 117.414559,405.42268 C101.16028,322.281086 93.3737845,196.764207 101.456274,98.2799397 Z" id="36" fill="#1B2334"></path>
                    <polygon id="35" fill="#1A2336" points="63.2158039 5.1304 224.301804 5.1304 210.632804 211.0454 42.4301039 198.4554"></polygon>
                    <polygon id="34" fill="#2E3748" points="41.2878039 199.3454 43.3402039 176.7654 213.686804 189.0854 211.634804 211.6554"></polygon>
                    <ellipse id="33" fill="#1A2336" cx="221.242804" cy="56.5664" rx="119.418" ry="56.5664"></ellipse>
                    <polygon id="32" fill="#1A2336" points="215.891804 5.1304 379.424804 5.1304 397.737804 190.5754 243.807804 205.2954"></polygon>
                    <polygon id="31" fill="#2E3748" points="399.426804 198.3154 397.374804 175.7454 240.367804 188.0554 242.419804 210.6354"></polygon>
                    <path d="M10.9664039,451.7254 C10.6801039,427.2954 14.3882039,433.7254 35.5949039,423.6854 C56.8018039,413.6354 76.7478039,394.3854 113.438804,377.8154 C113.438804,377.8154 118.271804,376.8954 126.156804,381.1254 C132.885804,384.7354 141.540804,393.6254 154.541804,393.4754 C168.659804,393.3054 181.231804,390.2754 189.035804,386.1554 C192.385804,376.8954 199.876804,376.8054 199.876804,376.8054 C199.876804,376.8054 210.485804,396.8554 210.721804,417.0154 C210.958804,437.1854 210.823804,451.1254 210.823804,451.1254 L10.9664039,451.7254 Z" id="30" fill="#DCE1E6"></path>
                    <path d="M154.881411,394.708834 C168.413154,400.412256 178.50828,408.41031 185.597372,418.116164 C190.727964,425.140587 194.008901,432.664055 195.80564,440.218796 C196.448345,442.921174 196.856962,445.457137 197.077044,447.769231 C197.141379,448.445101 197.18644,449.071284 197.215129,449.644111 L197.233622,450.063669 C197.245264,450.370936 197.251068,450.634102 197.252709,450.851045 L197.251255,451.20118 L195.132353,451.14962 L195.133104,450.776924 C195.126553,450.105891 195.080183,449.158587 194.967052,447.970075 C194.755974,445.752578 194.362894,443.313042 193.743625,440.709204 C192.008968,433.415501 188.840507,426.14995 183.885776,419.366303 C177.150373,410.144692 167.596639,402.503616 154.786764,396.972775 L154.058196,396.661966 L154.881411,394.708834 Z" id="29" fill="#D0D4D8"></path>
                    <path d="M138.325674,392.816474 L138.743934,394.894326 C117.33664,399.2035 102.957332,408.874039 94.3267433,422.29096 C90.3784581,428.428876 87.8719971,435.003061 86.5284727,441.631442 C86.0380877,444.050794 85.7332702,446.339861 85.5788384,448.450089 C85.484754,449.735702 85.4565172,450.793834 85.4674979,451.587963 L85.4773271,451.984113 L83.3602807,452.086687 L83.3530765,451.871313 L83.3455839,451.358042 C83.3429234,450.540554 83.3760075,449.510898 83.4649614,448.29539 C83.6257421,446.098409 83.9423624,443.720707 84.4511852,441.210391 C85.8443403,434.337153 88.4441775,427.518052 92.5441683,421.144298 C101.38728,407.396994 116.027955,397.463036 137.58799,392.967618 L138.325674,392.816474 Z" id="28" fill="#D0D4D8"></path>
                    <path d="M141.752327,392.502239 C141.796419,407.457321 136.031958,418.574739 125.320319,426.158468 C116.323652,432.528015 104.110231,436.229614 89.4820848,437.706843 C76.3018814,439.037851 62.2128113,438.493643 48.5897001,436.778879 C45.9661853,436.448652 43.5550762,436.09689 41.3947419,435.743008 L40.7542032,435.636799 C40.0763156,435.523021 39.4652563,435.41594 38.9247231,435.317423 L37.8496465,435.1143 L38.2681613,433.0365 L38.995504,433.175383 L39.9758429,433.352448 C40.2104142,433.393774 40.4560121,433.436358 40.7123989,433.480082 L41.1050411,433.546507 C43.3980198,433.931365 45.9982718,434.316437 48.8544002,434.675942 C62.3319816,436.372388 76.2699887,436.910761 89.2691264,435.598038 C120.619333,432.432125 139.334824,419.372049 139.629025,393.302531 L139.632296,392.508561 L141.752327,392.502239 Z" id="27" fill="#D0D4D8"></path>
                    <polygon id="26" fill="#D0D4D8" points="164.076406 403.383394 164.121406 418.283394 142.926202 418.347406 142.881202 403.447406"></polygon>
                    <path d="M106.223834,378.28757 C107.669622,377.639756 109.366821,378.286642 110.014634,379.73243 C112.11501,384.420042 112.594773,388.849405 112.61741,396.446858 C112.623395,398.461471 110.614454,399.835925 108.758124,399.147749 L108.599435,399.083678 L94.515,392.924 L97.5518535,403.804393 C98.1506751,405.950385 96.1876632,407.906984 94.0713132,407.353112 L93.9162196,407.308071 L79.787,402.796 L79.8253961,415.566817 C79.8317291,417.683331 77.6330158,419.057653 75.7500464,418.178115 L75.5981149,418.101832 L65.986,412.932 L66.0153961,422.516834 C66.019958,424.044532 64.8294729,425.296873 63.3239069,425.388619 L63.1553698,425.394005 C61.6276715,425.398554 60.3753308,424.208069 60.2835846,422.702503 L60.2782117,422.533966 L60.2351981,408.133966 C60.2288916,406.017459 62.4275991,404.64315 64.3105619,405.522685 L64.4624929,405.598968 L74.074,410.767 L74.0382117,398.873983 C74.0325644,396.986646 75.8123147,395.62526 77.610781,396.084319 L77.7793882,396.132729 L90.596,400.225 L87.3657542,388.646407 C86.7305734,386.370115 88.9574328,384.371043 91.1269418,385.185689 L91.2781732,385.247122 L106.784,392.028 L106.776934,391.868171 C106.579994,387.887732 106.064853,385.073462 104.914539,382.387748 L104.778973,382.07837 C104.13116,380.632582 104.778046,378.935383 106.223834,378.28757 Z" id="25" fill="#000000"></path>
                    <path d="M19.7226039,424.5654 C26.2311039,422.1754 33.1259039,420.3654 46.3460039,417.3354 L40.7725039,433.5354 L40.9886039,451.9754 L3.3353039,452.415545 C1.7986039,452.4354 -0.953296104,450.3954 0.332503896,442.0754 C1.9397039,431.6854 10.4746039,427.9454 19.7226039,424.5654 Z" id="24" fill="#EAF4FB"></path>
                    <path d="M211.093804,451.1254 L181.287804,451.2154 L181.331804,466.1454 C181.340804,469.0654 183.719804,471.4354 186.646804,471.425432 L205.855804,471.3654 C208.781804,471.3554 211.146804,468.9754 211.138824,466.0554 L211.093804,451.1254 Z" id="23" fill="#C6CBCF"></path>
                    <path d="M180.223804,451.2154 L150.417804,451.3054 L150.462804,466.2354 C150.470804,469.1554 152.850804,471.5254 155.776804,471.515432 L174.985804,471.4554 C177.911804,471.4454 180.277804,469.0754 180.268829,466.1454 L180.223804,451.2154 Z" id="22" fill="#C6CBCF"></path>
                    <path d="M149.351804,451.3154 L119.545804,451.4054 L119.590804,466.3254 C119.599804,469.2554 121.978804,471.6154 124.904804,471.605432 L144.113804,471.5554 C147.040804,471.5454 149.405804,469.1654 149.396829,466.2354 L149.351804,451.3154 Z" id="21" fill="#C6CBCF"></path>
                    <path d="M118.482804,451.4054 L88.6768039,451.4954 L88.7208039,466.4154 C88.7298039,469.3454 91.1088039,471.7154 94.0358039,471.705432 L113.243804,471.6454 C116.170804,471.6354 118.535804,469.2554 118.526829,466.3354 L118.482804,451.4054 Z" id="20" fill="#C6CBCF"></path>
                    <path d="M87.6108039,451.4954 L57.8048039,451.5854 L57.8488039,466.5154 C57.8578039,469.4354 60.2378039,471.8054 63.1638039,471.795432 L82.3728039,471.7354 C85.2988039,471.7254 87.6638039,469.3454 87.6558241,466.4254 L87.6108039,451.4954 Z" id="19" fill="#C6CBCF"></path>
                    <path d="M56.7388039,451.5854 L26.9327039,451.6754 L26.9773039,466.6054 C26.9861039,469.5354 29.3655039,471.8954 32.2919039,471.885432 L51.5008039,471.8354 C54.4268039,471.8254 56.7928039,469.4454 56.7838295,466.5154 L56.7388039,451.5854 Z" id="18" fill="#C6CBCF"></path>
                    <path d="M25.8691039,451.6854 L1.3854039,451.7554 L1.4300039,466.6854 C1.4387039,469.6054 3.8182039,471.9754 6.7446039,471.965432 L20.6308039,471.9254 C23.5572039,471.9154 25.9225039,469.5354 25.9137284,466.6054 L25.8691039,451.6854 Z" id="17" fill="#C6CBCF"></path>
                    <path d="M134.213804,428.7854 C129.224804,430.4254 125.135804,430.4554 122.732804,428.8254 C116.539804,424.5754 119.986804,417.4054 121.460804,414.5954 C118.725804,418.0854 116.008804,421.5854 113.943804,425.3654 C110.683804,431.2654 109.501804,437.6054 112.113804,441.4954 C116.797804,448.5154 126.968804,444.6254 133.410804,441.3654 L193.187804,411.1054 L134.213804,428.7854 Z" id="16" fill="#000000"></path>
                    <path d="M440.834804,451.8554 C441.046804,427.5354 437.374804,433.9454 416.232804,424.0154 C395.090804,414.0754 375.176804,394.9654 338.599804,378.5854 C338.599804,378.5854 333.785804,377.6754 325.948804,381.9154 C319.260804,385.5354 310.670804,394.4054 297.727804,394.2954 C283.671804,394.1654 271.146804,391.1854 263.365804,387.1054 C260.003804,377.8954 252.544804,377.8354 252.544804,377.8354 C252.544804,377.8354 242.043804,397.8254 241.867804,417.9054 C241.692804,437.9754 241.867804,451.8554 241.867804,451.8554 L440.834804,451.8554 Z" id="15" fill="#DCE1E6"></path>
                    <path d="M291.851212,396.830097 L292.680396,398.780703 C279.917653,404.20602 270.877487,411.578046 265.022559,420.408441 C258.235829,430.644178 256.411158,441.353979 257.307952,450.32907 L257.367423,450.871669 C257.377536,450.955893 257.387721,451.036983 257.397933,451.114896 L257.472939,451.62845 L257.479418,451.665513 L255.39419,452.045287 L255.336907,451.690363 C255.294977,451.403686 255.246704,451.017982 255.198924,450.539804 C254.257607,441.119119 256.16314,429.934696 263.256054,419.237173 C269.233668,410.221743 278.373119,402.693465 291.138302,397.136771 L291.851212,396.830097 Z" id="14" fill="#D0D4D8"></path>
                    <path d="M313.8688,393.585849 C335.802489,397.932208 350.658194,407.883741 359.595602,421.748902 C363.683672,428.09098 366.278447,434.876596 367.672565,441.713285 C368.180612,444.204724 368.497636,446.562302 368.65989,448.737753 C368.749192,449.93507 368.783193,450.945379 368.781659,451.742278 L368.769476,452.433509 L366.652131,452.337291 L366.656545,452.191957 C366.675052,451.402604 366.65006,450.287493 366.546231,448.895399 C366.390435,446.806538 366.085307,444.537426 365.595774,442.136778 C364.251535,435.544691 361.750308,429.003717 357.814108,422.897244 C349.288925,409.671593 335.157232,400.119664 314.182778,395.811431 L313.456807,395.664951 L313.8688,393.585849 Z" id="13" fill="#D0D4D8"></path>
                    <path d="M309.752569,395.1554 C309.752569,421.592262 328.967161,434.425875 361.334822,436.953853 C374.212202,437.959601 388.028123,437.215799 401.513782,435.36102 L403.251962,435.115178 C405.531939,434.783709 407.65952,434.438544 409.610601,434.091966 L410.333936,433.961957 C410.792113,433.878631 411.223223,433.79831 411.626287,433.721495 L413.328369,433.384399 L413.587261,433.329696 L414.036346,435.401104 L413.16666,435.580308 L412.024215,435.803336 C411.614977,435.881331 411.177642,435.962813 410.713183,436.047282 L409.233993,436.31001 C406.965709,436.70349 404.477204,437.092923 401.802577,437.460783 C388.178708,439.334572 374.218981,440.086115 361.169785,439.066947 C346.222357,437.899524 333.737427,434.469857 324.529038,428.319484 C313.704513,421.089679 307.789889,410.330273 307.636115,395.741014 L307.633039,395.1554 L309.752569,395.1554 Z" id="12" fill="#D0D4D8"></path>
                    <polygon id="11" fill="#D0D4D8" points="309.424454 404.1654 309.424454 419.0054 288.229154 419.0054 288.229154 404.1654"></polygon>
                    <path d="M342.002917,380.471526 C342.645707,379.023497 344.34065,378.370723 345.788678,379.013513 C347.236706,379.656303 347.889481,381.351246 347.246691,382.799274 C346.628249,384.192452 346.16364,385.778518 345.836529,387.547377 C345.537349,389.1652 345.370985,390.65065 345.283766,392.456608 L345.273,392.692 L360.678549,385.900585 C362.840996,384.947184 365.137294,386.866193 364.640371,389.129743 L364.601133,389.288192 L361.425,400.802 L374.150775,396.69544 C375.947013,396.115748 377.785464,397.397056 377.895236,399.250047 L377.900409,399.4254 L377.9,411.248 L387.434282,406.083196 C389.295343,405.074879 391.547391,406.360371 391.664631,408.43545 L391.669409,408.6054 L391.669409,422.9454 C391.669409,424.529687 390.385091,425.814005 388.800804,425.814005 C387.273099,425.814005 386.024319,424.619786 385.937069,423.113952 L385.932199,422.9454 L385.932,413.422 L376.398326,418.587604 C374.537265,419.595921 372.285217,418.310429 372.167977,416.23535 L372.163199,416.0654 L372.163,403.365 L358.126832,407.89536 C356.006396,408.57968 353.972696,406.696303 354.441659,404.559387 L354.480475,404.402608 L357.463,393.588 L343.487059,399.750215 C341.643624,400.562967 339.579338,399.273039 339.466078,397.296469 L339.461199,397.1254 L339.463702,396.074815 C339.484341,392.007706 339.639844,389.505976 340.194974,386.504099 C340.599298,384.317703 341.188609,382.305935 342.002917,380.471526 Z" id="10" fill="#000000"></path>
                    <path d="M432.037804,424.8354 C425.550804,422.4854 418.681804,420.7054 405.511804,417.7254 L411.108804,433.8354 L410.948804,452.1954 L448.434804,452.515545 C449.964804,452.5354 452.697804,450.4954 451.392804,442.2154 C449.761804,431.8754 441.254804,428.1754 432.037804,424.8354 Z" id="09" fill="#EAF4FB"></path>
                    <path d="M241.599804,451.8554 L271.272804,451.8554 L271.272804,466.6954 C271.272804,469.6154 268.900804,471.9954 265.973804,471.9954 L246.897804,471.9954 C243.971804,471.9954 241.599804,469.6154 241.599804,466.6954 L241.599804,451.8554 Z" id="08" fill="#C6CBCF"></path>
                    <path d="M272.332804,451.8554 L302.005804,451.8554 L302.005804,466.6954 C302.005804,469.6154 299.633804,471.9854 296.706804,471.9854 L277.631804,471.9854 C274.704804,471.9854 272.332804,469.6154 272.332804,466.6954 L272.332804,451.8554 Z" id="07" fill="#C6CBCF"></path>
                    <path d="M303.066804,451.8554 L332.739804,451.8554 L332.739804,466.6954 C332.739804,469.6154 330.367804,471.9854 327.440804,471.9854 L308.364804,471.9854 C305.438804,471.9854 303.066804,469.6154 303.066804,466.6954 L303.066804,451.8554 Z" id="06" fill="#C6CBCF"></path>
                    <path d="M333.799804,451.8554 L363.472804,451.8554 L363.472804,466.6954 C363.472804,469.6154 361.100804,471.9954 358.173804,471.9954 L339.098804,471.9954 C336.171804,471.9954 333.799804,469.6154 333.799804,466.6954 L333.799804,451.8554 Z" id="05" fill="#C6CBCF"></path>
                    <path d="M364.530804,451.8554 L394.204804,451.8554 L394.204804,466.6954 C394.204804,469.6154 391.831804,471.9954 388.905804,471.9954 L369.829804,471.9954 C366.903804,471.9954 364.530804,469.6154 364.530804,466.6954 L364.530804,451.8554 Z" id="04" fill="#C6CBCF"></path>
                    <path d="M395.264804,451.8554 L424.937804,451.8554 L424.937804,466.6954 C424.937804,469.6154 422.565804,471.9954 419.638804,471.9954 L400.563804,471.9954 C397.636804,471.9954 395.264804,469.6154 395.264804,466.6954 L395.264804,451.8554 Z" id="03" fill="#C6CBCF"></path>
                    <path d="M425.997804,451.8554 L450.372804,451.8554 L450.372804,466.6954 C450.372804,469.6154 448.000804,471.9954 445.073804,471.9954 L431.296804,471.9954 C428.370804,471.9954 425.997804,469.6154 425.997804,466.6954 L425.997804,451.8554 Z" id="02" fill="#C6CBCF"></path>
                    <path d="M319.123804,430.5954 C324.112804,432.2354 328.201804,432.2654 330.604804,430.6354 C336.797804,426.3754 333.349804,419.2154 331.876804,416.4054 C334.611804,419.8954 337.328804,423.3954 339.393804,427.1754 C342.653804,433.0654 343.835804,439.4054 341.223804,443.2954 C336.539804,450.3254 326.368804,446.4354 319.926804,443.1754 L260.149804,412.9154 L319.123804,430.5954 Z" id="01" fill="#000000"></path>
                </g>
                <g id="upper-limb" transform="translate(0.784010, 427.398729)" fill-rule="nonzero">
                    <path d="M385.335429,158.403404 C404.15004,147.352981 428.360433,153.647099 439.410857,172.46171 C491.103087,260.473651 518.73714,365.417854 518.73714,471.593271 C518.73714,493.413019 501.048739,511.101421 479.22899,511.101421 C457.409241,511.101421 439.72084,493.413019 439.72084,471.593271 C439.72084,379.27501 415.729295,288.163744 371.277123,212.478832 C360.2267,193.664221 366.520818,169.453827 385.335429,158.403404 Z" id="25" fill="#EBBAAA"></path>
                    <path d="M93.2661415,147.832679 C104.316582,129.018078 128.526981,122.723982 147.341582,133.774422 C166.156183,144.824862 172.450279,169.035262 161.399839,187.849863 C116.94765,263.534648 92.95614,354.645872 92.95614,446.964271 C92.95614,468.784019 75.2677387,486.472421 53.44799,486.472421 C31.6282413,486.472421 13.93984,468.784019 13.93984,446.964271 C13.93984,340.78871 41.5738608,235.844524 93.2661415,147.832679 Z" id="24" fill="#EBBAAA"></path>
                    <path d="M101.00399,76.5892708 C141.91999,32.1992708 213.04899,35.7042708 249.40299,83.9012708 C279.71199,124.083271 274.15599,180.790271 236.62499,214.325271 L122.11799,316.639271 C122.11799,316.639271 82.09699,309.456271 55.41419,298.167271 C28.73139,286.879271 0,268.408271 0,268.408271 L60.67419,132.111271 C67.38429,117.038271 76.51089,103.161271 87.69359,91.0292708 L101.00399,76.5892708 Z" id="23" fill="#6A88C8"></path>
                    <path d="M424.39299,77.6672708 C383.47699,33.2772708 312.34899,36.7822708 275.99399,84.9792708 C245.68599,125.161271 251.24199,181.868271 288.77299,215.403271 L403.27899,317.717271 C403.27899,317.717271 443.30099,310.534271 469.98299,299.246271 C496.66599,287.958271 525.39799,269.486271 525.39799,269.486271 L464.72299,133.190271 C458.01299,118.116271 448.88699,104.239271 437.70399,92.1072708 L424.39299,77.6672708 Z" id="22" fill="#6A88C8"></path>
                    <path d="M113.61399,156.818271 C115.09599,95.1312708 164.96399,45.5902708 226.65899,44.5132708 L303.27199,43.1762708 C366.27999,42.0762708 418.45499,91.8552708 420.31699,154.845271 L417.015453,303.889718 L428.80899,494.569271 C428.80899,494.569271 320.93099,500.273271 261.41299,500.320495 C201.89499,500.366271 100.577972,493.305097 100.577972,493.305097 L105.867742,402.240462 L109.80199,324.957936 L113.61399,156.818271 Z" id="21" fill="#6A88C8"></path>
                    <path d="M135.45599,294.062271 C135.45599,273.026271 111.85199,261.225271 111.85199,261.225271 L109.320933,335.020128 C109.320933,335.020128 135.45599,357.173271 135.45599,372.053271 L135.45599,294.062271 Z" id="20" fill="#1A2336"></path>
                    <path d="M123.14399,206.836271 C116.98699,172.972271 102.61799,173.999271 102.61799,173.999271 C102.61799,173.999271 74.1922809,220.599815 74.1922809,304.747815 C85.9934809,309.878815 114.42199,315.613271 129.30099,317.152271 C129.30099,280.209271 129.30099,240.701271 123.14399,206.836271 Z" id="19" fill="#1A2336"></path>
                    <path d="M126.22099,413.100271 C126.22099,392.063271 106.72299,381.289271 106.72299,381.289271 L102.61799,456.713271 C102.61799,456.713271 126.22099,476.211271 126.22099,491.090271 L126.22099,413.100271 Z" id="18" fill="#1A2336"></path>
                    <path d="M200.609539,92.6354082 L203.710441,103.489133 C177.44654,110.992713 120.925706,159.956361 110.180001,183.597382 L109.868463,184.305957 L99.4775167,179.896062 C110.62324,153.633618 169.637773,102.183969 199.707281,92.9036528 L200.609539,92.6354082 Z" id="17" fill="#1A2336"></path>
                    <path d="M106.928245,168.825436 C123.146505,175.894914 131.180045,203.081011 134.650129,250.344576 L134.75389,251.782951 C137.230852,286.734277 137.206609,326.74755 135.4458,395.107783 L134.096845,445.134226 C133.258739,477.185288 132.940069,494.660981 132.897921,513.321711 L132.89299,517.771271 L121.60499,517.771271 L121.613851,511.817911 C121.681374,489.663482 122.146665,468.65052 123.41361,422.5021 L123.993464,401.232061 L124.267096,390.66912 C125.912771,325.192078 125.887101,286.347077 123.49413,252.580918 C120.439764,209.482105 113.232915,184.330044 102.736805,179.318794 L102.417735,179.173105 L106.928245,168.825436 Z" id="16" fill="#1A2336"></path>
                    <path d="M391.52098,293.770271 C391.50299,272.734271 416.27499,260.953271 416.27499,260.953271 L418.49199,334.841271 C418.49199,334.841271 391.57599,356.882271 391.58899,371.762271 L391.52098,293.770271 Z" id="15" fill="#1A2336"></path>
                    <path d="M404.37099,206.554271 C410.80599,172.694271 425.89199,173.734271 425.89199,173.734271 C425.89199,173.734271 455.55899,219.425271 455.63099,303.573271 C443.24599,308.694271 413.62399,315.340271 398.00299,316.866271 C397.97099,279.923271 397.93599,240.414271 404.37099,206.554271 Z" id="14" fill="#1A2336"></path>
                    <path d="M401.320978,412.818271 C401.30299,391.781271 421.76399,381.023271 421.76399,381.023271 L426.13899,456.452271 C426.13899,456.452271 401.37599,475.930271 401.38899,490.810271 L401.320978,412.818271 Z" id="13" fill="#1A2336"></path>
                    <path d="M322.802819,92.2643603 C355.192141,101.102886 410.906395,145.658209 428.220414,177.442363 L428.733263,178.40156 L418.736717,183.644459 C403.647372,154.873863 350.60154,112.122525 320.729227,103.407796 L319.831161,103.154181 L322.802819,92.2643603 Z" id="12" fill="#1A2336"></path>
                    <path d="M421.573876,168.519412 L425.896104,178.947129 C414.714836,183.5817 407.1163,208.257542 403.857899,251.010334 L403.760489,252.311404 C401.200047,287.131006 401.28835,327.362962 403.244556,396.660784 L404.750019,448.303427 C405.605585,478.918902 405.926013,495.896572 405.971086,514.493669 L405.975988,517.485338 L394.687992,517.495203 L394.681169,513.782358 C394.61775,491.395789 394.144929,471.024243 392.799326,425.527626 L392.083338,401.265288 L391.90097,394.839309 C389.992353,326.465864 389.93196,286.445742 392.502885,251.483582 C396.006673,203.835361 404.308523,176.163079 421.063556,168.73821 L421.573876,168.519412 Z" id="11" fill="#1A2336"></path>
                    <circle id="10" fill="#5374BA" transform="translate(259.542990, 80.586271) rotate(-1.000000) translate(-259.542990, -80.586271) " cx="259.54299" cy="80.5862708" r="72.5997"></circle>
                    <rect id="09" fill="#EBBAAA" transform="translate(260.393257, 64.023500) rotate(-1.000000) translate(-260.393257, -64.023500) " x="212.166557" y="1" width="96.4534" height="126.047" rx="48.2267"></rect>
                    <path d="M259.23,222.047 C271.451,222.047 282.756,220.325 291.205,217.373 C295.404,215.906 299.204,214.03 302.065,211.667 C304.889,209.334 307.461,205.935 307.461,201.523 C307.461,197.112 304.889,193.713 302.065,191.38 C299.204,189.017 295.404,187.141 291.205,185.674 C282.756,182.722 271.451,181 259.23,181 C247.01,181 235.704,182.722 227.255,185.674 C223.057,187.141 219.257,189.017 216.396,191.38 C213.571,193.713 211,197.112 211,201.523 C211,205.935 213.571,209.334 216.396,211.667 C219.257,214.03 223.057,215.906 227.255,217.373 C235.704,220.325 247.01,222.047 259.23,222.047 Z" id="08-copy" fill="#1A2336"></path>
                    <path d="M259.23,175.356 C246.584296,175.356 234.61057,177.125459 225.393396,180.345852 C220.34641,182.109531 216.09487,184.308534 212.801834,187.028367 C208.234037,190.80064 205.356,195.692617 205.356,201.523 C205.356,207.354134 208.233909,212.246254 212.802078,216.018834 C216.09487,218.738466 220.34641,220.937469 225.393103,222.701046 C234.61057,225.921541 246.584296,227.691 259.23,227.691 C271.876343,227.691 283.849165,225.921634 293.066604,222.701148 C298.11387,220.937791 302.365807,218.738733 305.659166,216.018633 C310.227303,212.244743 313.105,207.353597 313.105,201.523 C313.105,195.693154 310.227175,190.802151 305.659678,187.028791 C302.365807,184.308267 298.11387,182.109209 293.066502,180.345816 C283.849165,177.125366 271.876343,175.356 259.23,175.356 Z M259.23,186.644 C270.678349,186.644 281.408254,188.229686 289.343396,191.002148 C293.226368,192.358738 296.331495,193.964677 298.470834,195.731633 C300.663971,197.543456 301.817,199.503084 301.817,201.523 C301.817,203.543842 300.664052,205.503477 298.470322,207.315791 C296.331495,209.082323 293.226368,210.688262 289.343498,212.044816 C281.408254,214.817314 270.678349,216.403 259.23,216.403 C247.782281,216.403 237.051466,214.817217 229.116604,212.044852 C225.234401,210.688207 222.129361,209.082204 219.990166,207.315367 C217.796698,205.503912 216.644,203.544456 216.644,201.523 C216.644,199.50247 217.796779,197.543021 219.989922,195.731834 C222.129361,193.964796 225.234401,192.358793 229.116897,191.002046 C237.051466,188.229783 247.782281,186.644 259.23,186.644 Z" id="08" fill="#5374BA"></path>
                    <rect id="07" fill="#E3581C" transform="translate(479.731108, 278.172375) rotate(-16.500000) translate(-479.731108, -278.172375) " x="436.324258" y="223.299375" width="86.8137" height="109.746" rx="13.104"></rect>
                    <rect id="06" fill="#FF7033" transform="translate(486.013108, 276.311375) rotate(-16.500000) translate(-486.013108, -276.311375) " x="442.606258" y="221.438375" width="86.8137" height="109.746" rx="13.104"></rect>
                    <rect id="05" fill="#3D424E" transform="translate(484.633333, 267.324533) rotate(-16.500000) translate(-484.633333, -267.324533) " x="448.187933" y="212.451533" width="72.8908" height="109.746" rx="13.104"></rect>
                    <rect id="04" fill="#24262A" transform="translate(483.705064, 264.183174) rotate(-16.500000) translate(-483.705064, -264.183174) " x="454.630664" y="226.509274" width="58.1488" height="75.3478"></rect>
                    <circle id="03" fill="#24262A" transform="translate(497.354990, 308.827271) rotate(-16.500000) translate(-497.354990, -308.827271) " cx="497.35499" cy="308.827271" r="5.73298"></circle>
                    <path d="M439.73999,272.934271 L522.97899,248.277271 L539.49399,304.032271 C541.54899,310.971271 537.58999,318.262271 530.65099,320.318271 L472.54099,337.531271 C465.60199,339.586271 458.31099,335.627271 456.25499,328.688271 L439.73999,272.934271 Z" id="02" fill-opacity="0.6" fill="#FFFFFF"></path>
                    <path d="M435.10599,273.523271 C433.46499,274.754271 418.17399,282.759271 411.50299,279.680271 C413.04199,291.994271 415.09399,300.717271 415.09499,318.675271 C424.33099,321.754271 440.74899,321.754271 447.41899,312.005271 C445.36699,303.453271 436.74799,272.292271 435.10599,273.523271 Z" id="01" fill="#FF7033"></path>
                </g>
                <g id="hand" transform="translate(54.493200, 0.498430)">
                    <ellipse id="23" fill="#EBBAAA" fill-rule="nonzero" cx="61.0558" cy="310.93457" rx="61.0558" ry="57.9132"></ellipse>
                    <ellipse id="22" fill="#EBBAAA" fill-rule="nonzero" cx="358.6498" cy="310.93457" rx="61.0558" ry="57.9132"></ellipse>
                    <ellipse id="21" fill="#F2F7FB" fill-rule="nonzero" transform="translate(370.789800, 328.319570) rotate(8.500000) translate(-370.789800, -328.319570) " cx="370.7898" cy="328.31957" rx="22.063" ry="28.2201"></ellipse>
                    <rect id="20" fill="#DDE4EA" fill-rule="nonzero" transform="translate(372.508763, 358.718723) rotate(8.500000) translate(-372.508763, -358.718723) " x="364.299263" y="331.011673" width="16.419" height="55.4141" rx="8.20949"></rect>
                    <ellipse id="19" fill="#F2F7FB" fill-rule="nonzero" transform="translate(46.515800, 327.292570) scale(-1, 1) rotate(8.499976) translate(-46.515800, -327.292570) " cx="46.5158" cy="327.29257" rx="22.0630016" ry="28.2201021"></ellipse>
                    <rect id="18" fill="#DDE4EA" fill-rule="nonzero" transform="translate(46.848825, 358.718724) scale(-1, 1) rotate(8.499976) translate(-46.848825, -358.718724) " x="38.6393239" y="331.011672" width="16.4190012" height="55.4141041" rx="8.20949"></rect>
                    <path d="M42.9338,206.08657 C38.0019,110.52457 114.1558,30.33947 209.8448,30.33947 C305.9248,30.33947 382.2218,111.15357 376.7028,207.07457 L368.4938,349.72657 C363.6298,434.26757 293.6538,500.33257 208.9728,500.33257 C124.4288,500.33257 54.7008,434.10957 50.3428,349.67757 L42.9338,206.08657 Z" id="17" fill="#EED4CC" fill-rule="nonzero"></path>
                    <path d="M241.35492,398.410515 C245.204375,396.607924 249.786263,398.267235 251.588855,402.11669 C253.391446,405.966145 251.732135,410.548033 247.88268,412.350625 C238.316969,416.829977 224.510771,419.364611 209.210674,420.132178 L207.967192,420.190347 C195.553649,420.729026 183.84377,419.980376 178.711012,418.196365 C174.696015,416.800858 172.572499,412.414778 173.968005,408.399782 C175.336149,404.46351 179.578738,402.345271 183.528009,403.578733 L183.764588,403.656775 C186.624371,404.65076 197.098524,405.290654 207.923705,404.783721 L208.439426,404.758712 C221.920091,404.082421 233.964544,401.87122 241.35492,398.410515 Z" id="16" fill="#C99584" fill-rule="nonzero"></path>
                    <path d="M166.4168,231.56357 L100.4408,217.49657 C99.7078,217.34057 98.9568,217.58657 98.4698,218.14157 L83.2388,235.52757 C82.1568,236.76257 82.8918,238.74957 84.5328,239.02657 L167.3798,252.99957 C170.2038,253.47557 172.5938,251.04657 172.0938,248.20757 L169.7788,235.05957 C169.4728,233.32257 168.1338,231.92957 166.4168,231.56357 Z" id="15" fill="#635F5F" fill-rule="nonzero"></path>
                    <path d="M241.2128,231.56257 L307.1888,217.49557 C307.9228,217.33957 308.6728,217.58557 309.1598,218.14057 L324.3908,235.52657 C325.4728,236.76157 324.7378,238.74857 323.0968,239.02557 L240.2498,252.99857 C237.4258,253.47457 235.0358,251.04557 235.5358,248.20657 L237.8508,235.05857 C238.1568,233.32157 239.4958,231.92857 241.2128,231.56257 Z" id="14" fill="#635F5F" fill-rule="nonzero"></path>
                    <path d="M140.487225,269.96847 C147.352982,269.96847 152.937711,275.452835 153.100259,282.279442 L153.1039,282.585995 L153.1029,312.306995 C153.102666,319.275226 147.453607,324.92367 140.485375,324.92367 C133.619618,324.92367 128.034889,319.439305 127.872341,312.612698 L127.8687,312.306145 L127.8697,282.585145 C127.869934,275.616914 133.518993,269.96847 140.487225,269.96847 Z" id="13" fill="#000000" fill-rule="nonzero"></path>
                    <path d="M270.552225,268.94247 C277.417982,268.94247 283.002711,274.426835 283.165259,281.253442 L283.1689,281.559995 L283.1679,311.280995 C283.167666,318.249226 277.518607,323.89767 270.550375,323.89767 C263.684618,323.89767 258.099889,318.413305 257.937341,311.586698 L257.9337,311.280145 L257.9347,281.559145 C257.934934,274.590914 263.583993,268.94247 270.552225,268.94247 Z" id="12" fill="#000000" fill-rule="nonzero"></path>
                    <path d="M193.544491,293.924993 L210.885109,298.260147 L210.695908,298.993022 C210.103455,301.219238 209.283666,303.708459 208.136636,306.857306 L207.434422,308.755066 C206.440983,311.397728 204.188162,317.294469 203.693574,318.615275 L203.161518,320.045253 C201.608164,324.248725 200.433572,327.696412 199.460131,330.993181 C196.480212,341.085328 195.916389,348.422805 197.769364,352.844442 C199.62365,357.269206 204.782164,359.934071 216.064729,360.012633 L216.5818,360.01442 L216.5818,377.88872 C198.387033,377.88872 186.323672,371.778502 181.284111,359.752917 C177.430677,350.557713 178.269555,339.640731 182.317507,325.93146 C183.475364,322.010124 184.843761,318.019405 186.649353,313.164426 L187.327974,311.357673 C188.163135,309.154365 189.861542,304.703253 190.673011,302.546135 L190.978185,301.729968 C192.203673,298.417465 193.000263,296.027825 193.478348,294.18463 L193.544491,293.924993 Z" id="11" fill="#EBBAAA" fill-rule="nonzero"></path>
                    <path d="M333.0538,135.52357 C329.6268,106.75957 316.7628,92.37727 314.4778,73.20117 C312.8598,59.61817 312.6908,56.15357 351.3048,84.61507 C389.9178,113.07657 395.7068,175.51957 385.2028,228.59257 L375.4778,289.51557 L363.5558,286.56757 L361.9828,208.69057 C345.8808,178.11057 336.4808,164.28757 333.0538,135.52357 Z" id="10" fill="#272727" fill-rule="nonzero"></path>
                    <path d="M59.5738,173.49257 C61.1678,144.57157 61.8958,146.06957 62.9588,126.78857 C63.7118,113.13157 68.4178,116.12057 44.0378,141.16257 C30.582,154.98457 35.6482,214.36757 38.5125,253.20357 L41.3074,280.42857 L46.7458,280.72857 L49.8098,244.77457 C59.4218,213.92157 57.9788,202.41357 59.5738,173.49257 Z" id="09" fill="#272727" fill-rule="nonzero"></path>
                    <path d="M208.8008,6.73741 L208.7998,6.73741 C208.7198,6.73741 208.6398,6.73741 208.5598,6.73741 C208.4788,6.73741 208.3988,6.73741 208.3188,6.73741 L208.3178,6.73741 C157.0728,6.91832 22.578,41.62777 38.9981,178.11057 C52.6228,161.46457 64.4308,147.02057 83.1218,136.15857 C122.4678,113.29157 149.3428,111.57057 201.2588,111.57057 C253.1738,111.57057 289.3858,121.38957 319.7318,136.15857 C346.8778,149.36957 361.2178,164.77057 385.8478,178.11057 C381.2368,42.97737 260.0428,6.91832 208.8008,6.73741 Z" id="08" fill="#272727"></path>
                    <path d="M272.1128,133.27057 C222.5568,90.81147 196.5928,96.73307 180.5288,83.02217 C194.0068,79.79557 174.3558,35.24827 259.5348,70.83067 C284.9378,81.44277 284.6208,114.12157 272.1128,133.27057 Z" id="07" fill="#272727" fill-rule="nonzero"></path>
                    <path d="M168.5498,127.08157 C206.5438,103.86357 223.9918,99.10357 242.2848,88.54917 C229.6198,82.92037 196.7408,67.19567 179.8548,80.70477 C172.6288,90.13187 159.7408,105.97357 168.5498,127.08157 Z" id="06" fill="#272727" fill-rule="nonzero"></path>
                    <polygon id="05" fill="#272727" fill-rule="nonzero" points="206.3778 125.77557 199.7068 100.63357 251.5298 94.47647 239.7288 125.77557 220.7438 110.89557"></polygon>
                    <path d="M130.0748,133.71457 C186.5378,100.99757 220.2968,94.25497 238.5898,83.70097 C225.9248,78.07217 244.0578,55.14877 153.8208,74.61287 C126.9088,80.41777 121.2658,112.60657 130.0748,133.71457 Z" id="04" fill="#272727" fill-rule="nonzero"></path>
                    <polygon id="03" fill="#272727" fill-rule="nonzero" points="76.2498 47.38967 65.5488 85.40587 206.6168 63.55897 367.8348 93.03057 367.4948 77.38847 355.9958 72.60817 355.7288 60.31787 341.2318 60.63297 340.8188 41.63897 322.1798 42.04407 317.7218 27.60927 301.1538 27.96937 291.0008 13.65837 274.0128 18.49887 268.6408 9.67307 251.0378 10.05567 250.8188 -7.10542736e-15 227.2208 10.57337 220.7898 0.65273 210.6538 10.93347 200.0798 1.10289 180.6238 11.58617 167.9798 1.80063 154.7368 12.14887 145.4168 12.35147 135.2568 21.51497 130.9208 12.66657 113.7298 32.04327 102.2418 27.82167 87.7008 49.93537"></polygon>
                    <polygon id="02" fill="#272727" fill-rule="nonzero" points="354.4618 66.56897 337.8828 62.66067 361.3468 144.82557 366.0048 242.20657 372.3368 241.00457 373.0938 233.88757 378.0688 232.94357 376.4438 224.37557 384.1318 222.91657 382.0418 211.90257 387.4568 208.33857 385.5988 198.54757 390.3748 191.61857 386.6498 181.86557 389.6868 178.11957 387.7128 167.71657 391.7828 166.94357 385.0418 153.64157 388.4158 149.19757 383.1838 143.85057 386.0928 136.95957 379.8158 126.10457 382.4928 117.98957 376.9128 110.80657 375.8678 105.29957 375.8678 96.97427 379.8168 91.84407 364.5798 87.78867 365.1108 80.71417 354.6088 73.51477"></polygon>
                    <polygon id="01" fill="#272727" fill-rule="nonzero" points="65.2998 85.04037 81.8788 81.13207 54.6498 149.37657 43.3178 242.84757 35.6294 241.38857 37.7197 230.37357 32.3048 226.81057 34.1628 217.01957 29.3867 210.09057 33.1118 200.33657 30.0743 196.59057 32.0485 186.18757 27.9781 185.41557 34.7193 172.11357 31.3458 167.66957 36.5774 162.32257 33.6683 155.43057 39.945 144.57657 37.2682 136.46057 42.8478 129.27857 43.8928 123.77057 43.8928 115.44557 39.9448 110.31557 55.1818 106.26057 54.6498 99.18557 65.1528 91.98617"></polygon>
                </g>
            </g>
        </g>
    </g>
</svg>