<?xml version="1.0" encoding="UTF-8"?>
<svg width="474px" height="1443px" viewBox="0 0 474 1443" version="1.1" xmlns="http://www.w3.org/2000/svg" xmlns:xlink="http://www.w3.org/1999/xlink">
    <!-- Generator: Sketch 55.2 (78181) - https://sketchapp.com -->
    <title>gee_me_092</title>
    <desc>Created with Sketch.</desc>
    <g id="GEE!-ME" stroke="none" stroke-width="1" fill="none" fill-rule="evenodd">
        <g id="gee_me_092" transform="translate(-363.000000, -79.000000)">
            <g transform="translate(344.000000, 79.000000)">
                <g id="lower-limb" transform="translate(52.000000, 885.000000)">
                    <path d="M277,351.5 L264.5,483" id="Path" stroke="#EBBAAA" stroke-width="54" stroke-linecap="round" stroke-linejoin="bevel"></path>
                    <path d="M131,351.5 L143.5,483" id="Path" stroke="#EBBAAA" stroke-width="54" stroke-linecap="round" stroke-linejoin="bevel"></path>
                    <g id="Group-198" transform="translate(208.000000, 453.000000)">
                        <path d="M198.82,85.31 C200.705,80.64 199.348,74.24 198.293,72.49 C197.238,70.75 69.109,62.74 69.109,62.74 C47.842,61 5.688,53.68 2.775,66.28 C-0.829,81.87 -0.664,85.39 1.792,97.46 C5.722,101.48 45.478,105 58.368,101.98 C58.368,94.94 59.372,90.42 59.372,90.42 C59.372,90.42 66.557,94.98 74.987,96.96 C92.18,100.98 95.472,105 148.726,105 C191.438,100.98 194.602,95.76 198.82,85.31 Z" id="Vector-249" fill="#272727" fill-rule="nonzero"></path>
                        <path d="M60.249,17.51 C49.567,17.65 33.26,14.13 24.377,1.78 C23.599,0.7 22.005,0.53 21.098,1.5 C13.102,10.12 18.281,5.22 15.071,20.03 C11.903,34.65 9.229,32.56 6.061,46.14 C3.868,55.54 -3.235,77.47 6.061,77.47 L48.459,77.47 C58.49,77.47 72.038,89.15 105.442,92.43 C160.892,97.88 174.442,90.42 185.514,86.9 C210.705,78.89 197.921,60.57 185.514,54.72 C167.338,46.14 141.289,39.7 128.039,32.59 C117.722,27.06 114.179,25.34 108.881,19.52 C102.114,12.08 99.248,7.33 97.102,3.63 C96.213,2.1 93.792,2.44 92.849,3.94 C87,13.26 70.115,17.38 60.249,17.51 Z" id="Vector-248" fill="#563D2A" fill-rule="nonzero"></path>
                        <path d="M93.64,7.96 C91.468,12.85 82.753,18.34 82.753,22.15 L104.176,14.49 L93.64,30.08 L113.715,24.33 L104.176,37.62 L126.752,33.04 L113.715,45.67" id="Vector-293" stroke="#2C221B" stroke-width="5.41368" stroke-linecap="round" stroke-linejoin="round"></path>
                        <path d="M179.099,71.64 C169.737,74.48 155.454,78.52 133.967,74.01" id="Vector-707" stroke="#7C593E" stroke-width="7" stroke-linecap="round"></path>
                        <path d="M107.593,45.16 C97.769,36.11 90.463,31.59 82.603,21.53 C78.346,21.53 72.725,22.03 56.515,22.03 C35.392,22.03 29.792,12.98 20.459,2.42 C13.369,6.95 17.02,16.5 12.108,29.58 C8.178,40.04 0.809,55.72 0.809,74.83 C4.248,80.86 38.143,77.85 48.95,77.85 C51.406,65.78 70.562,55.72 79.091,53.21 C86.577,51 95.312,50.19 107.593,45.16 Z" id="Vector-706" fill="#423023" fill-rule="nonzero"></path>
                    </g>
                    <g id="Group-198_2" transform="translate(0.000000, 453.000000)">
                        <path d="M1.1798,85.31 C-0.7046,80.64 0.6514,74.24 1.7067,72.49 C2.762,70.75 130.891,62.74 130.891,62.74 C152.158,61 194.312,53.68 197.225,66.28 C200.829,81.87 200.664,85.39 198.207,97.46 C194.278,101.48 154.522,105 141.632,101.98 C141.632,94.94 140.628,90.42 140.628,90.42 C140.628,90.42 133.443,94.98 125.013,96.96 C107.82,100.98 104.528,105 51.274,105 C8.5622,100.98 5.3979,95.76 1.1798,85.31 Z" id="Vector-249_2" fill="#272727" fill-rule="nonzero"></path>
                        <path d="M139.751,17.51 C150.433,17.65 166.74,14.13 175.623,1.78 C176.401,0.7 177.995,0.53 178.902,1.5 C186.897,10.12 181.719,5.22 184.929,20.03 C188.097,34.65 190.771,32.56 193.939,46.14 C196.132,55.54 203.235,77.47 193.939,77.47 L151.541,77.47 C141.51,77.47 127.962,89.15 94.558,92.43 C39.1078,97.88 25.5577,90.42 14.4861,86.9 C-10.7053,78.89 2.0788,60.57 14.4861,54.72 C32.6618,46.14 58.711,39.7 71.961,32.59 C82.278,27.06 85.821,25.34 91.119,19.52 C97.886,12.08 100.752,7.33 102.898,3.63 C103.787,2.1 106.208,2.44 107.151,3.94 C113,13.26 129.885,17.38 139.751,17.51 Z" id="Vector-248_2" fill="#563D2A" fill-rule="nonzero"></path>
                        <path d="M106.36,7.96 C108.532,12.85 117.247,18.34 117.247,22.15 L95.824,14.49 L106.36,30.08 L86.284,24.33 L95.824,37.62 L73.248,33.04 L86.284,45.67" id="Vector-293_2" stroke="#2C221B" stroke-width="5.41368" stroke-linecap="round" stroke-linejoin="round"></path>
                        <path d="M20.9009,71.64 C30.2626,74.48 44.5463,78.52 66.033,74.01" id="Vector-707_2" stroke="#7C593E" stroke-width="7" stroke-linecap="round"></path>
                        <path d="M92.407,45.16 C102.231,36.11 109.537,31.59 117.397,21.53 C121.654,21.53 127.274,22.03 143.485,22.03 C164.608,22.03 170.208,12.98 179.541,2.42 C186.631,6.95 182.98,16.5 187.892,29.58 C191.822,40.04 199.191,55.72 199.191,74.83 C195.752,80.86 161.857,77.85 151.05,77.85 C148.593,65.78 129.438,55.72 120.909,53.21 C113.423,51 104.688,50.19 92.407,45.16 Z" id="Vector-706_2" fill="#423023" fill-rule="nonzero"></path>
                    </g>
                    <path d="M204,118 C267.513,118 319,91.585 319,59 C319,26.415 267.513,0 204,0 C140.487,0 89,26.415 89,59 C89,91.585 140.487,118 204,118 Z" id="Path" fill="#4D5457" fill-rule="nonzero"></path>
                    <polygon id="Path" fill="#4D5457" fill-rule="nonzero" points="209 45 344 45 324.394 397.49 311.438 433.3 235.695 440 228.458 405.5"></polygon>
                    <polygon id="Path" fill="#434A4C" fill-rule="nonzero" points="229 432 314 432 309.854 454 232.88 454"></polygon>
                    <polygon id="Path" fill="#4D5457" fill-rule="nonzero" points="199 45 64 45 83.606 397.49 96.562 433.3 172.305 440 179.542 405.5"></polygon>
                    <polygon id="Path" fill="#434A4C" fill-rule="nonzero" points="179 432 94 432 98.146 454 175.12 454"></polygon>
                </g>
                <g id="upper-limb" transform="translate(0.000000, 456.770000)">
                    <path d="M140,118.23 C96.0002,196.23 60.0002,384.23 76.0002,428.23" id="Path" stroke="#EBBAAA" stroke-width="74" stroke-linecap="round" stroke-linejoin="bevel"></path>
                    <path d="M372,118.23 C416,196.23 452,384.23 436,428.23" id="Path" stroke="#EBBAAA" stroke-width="74" stroke-linecap="round" stroke-linejoin="bevel"></path>
                    <rect id="Rectangle-287" fill="#A1A1B7" fill-rule="nonzero" transform="translate(134.339886, 237.414784) rotate(15.000000) translate(-134.339886, -237.414784) " x="49.3398862" y="37.4147841" width="170" height="400" rx="85"></rect>
                    <rect id="Rectangle-288" fill="#A1A1B7" fill-rule="nonzero" transform="translate(377.660090, 237.414815) scale(-1, 1) rotate(14.999995) translate(-377.660090, -237.414815) " x="292.660077" y="37.4147838" width="170.000027" height="400.000062" rx="85"></rect>
                    <path d="M103.155,86.897 C104.856,65.546 119.968,47.649 140.732,42.395 L256,13.23 L371.268,42.395 C392.032,47.649 407.144,65.546 408.845,86.897 L426,302.23 L411,406.23 L403.9,418.3 C402.103,421.355 398.824,423.23 395.281,423.23 L111,423.23 L101,406.23 L86,302.23 L103.155,86.897 Z" id="Rectangle-284" fill="#BFBFCB" fill-rule="nonzero"></path>
                    <path d="M256.67,100 C284.284,100 306.67,77.614 306.67,50 C306.67,22.385 284.284,0 256.67,0 C229.056,0 206.67,22.385 206.67,50 C206.67,77.614 229.056,100 256.67,100 Z" id="Path" fill="#A1A1B7" fill-rule="nonzero"></path>
                    <path d="M116,423.23 L396,423.23 L403.608,461.269 C404.845,467.457 400.112,473.23 393.802,473.23 L118.198,473.23 C111.888,473.23 107.155,467.457 108.392,461.269 L116,423.23 Z" id="Rectangle-312" fill="#A1A1B7" fill-rule="nonzero"></path>
                </g>
                <g id="head" transform="translate(70.999900, 0.000000)">
                    <rect id="Path" fill="#EBBAAA" fill-rule="nonzero" x="145.0001" y="342" width="80" height="195" rx="40"></rect>
                    <path d="M145.0001,492 C145.0001,469.909 162.9081,452 185.0001,452 C207.0911,452 225.0001,469.909 225.0001,492 L225.0001,497 C225.0001,519.091 207.0911,537 185.0001,537 C162.9081,537 145.0001,519.091 145.0001,497 L145.0001,492 Z" id="Path" fill="#EBBAAA" fill-rule="nonzero"></path>
                    <path d="M330.0001,327.002 C352.0911,327.002 370.0001,309.093 370.0001,287.002 C370.0001,264.911 352.0911,247.002 330.0001,247.002 C307.9091,247.002 290.0001,264.911 290.0001,287.002 C290.0001,309.093 307.9091,327.002 330.0001,327.002 Z" id="Path" fill="#DE8E7C" fill-rule="nonzero" opacity="0.5"></path>
                    <path d="M40.0001,327.002 C17.9086,327.002 5.54223334e-13,309.093 5.54223334e-13,287.002 C5.54223334e-13,264.911 17.9086,247.002 40.0001,247.002 C62.0911,247.002 80.0001,264.911 80.0001,287.002 C80.0001,309.093 62.0911,327.002 40.0001,327.002 Z" id="Path" fill="#DE8E7C" fill-rule="nonzero" opacity="0.5"></path>
                    <path d="M35.0001,189 C35.0001,106.157 102.1571,39 185.0001,39 C267.8431,39 335.0001,106.157 335.0001,189 L335.0001,309 C335.0001,391.843 267.8431,459 185.0001,459 C102.1571,459 35.0001,391.843 35.0001,309 L35.0001,189 Z" id="Path" fill="#F4D5CC" fill-rule="nonzero"></path>
                    <path d="M340.0001,188.001 L332.0001,140 L300.0001,140 L305.0001,185 C305.0001,185 319.1281,202.202 325.0001,215 C334.5851,235.891 335.0001,273 335.0001,273 L340.0001,188.001 Z" id="Path" fill="#868686" fill-rule="nonzero"></path>
                    <path d="M30.0001,188.001 L38.0001,140 L70.0001,140 L65.0001,185 C65.0001,185 50.8721,202.202 45.0001,215 C35.4141,235.891 35.0001,273 35.0001,273 L30.0001,188.001 Z" id="Path" fill="#868686" fill-rule="nonzero"></path>
                    <path d="M340.0001,188 C340.0001,188 340.0001,125 185.0001,125 C30.0001,125 30.0001,188 30.0001,188 C30.0001,147.834 20.318,105.993 45.0001,75 C74.7011,37.7047 142.6731,15 185.0001,15 C227.5151,15 295.2791,37.43 325.0001,75 C349.4561,105.915 340.0001,148.05 340.0001,188 Z" id="Union" fill="#272727"></path>
                    <polygon id="Vector-343" fill="#272727" fill-rule="nonzero" points="60.6841 40.1404 50.0001 74.9296 181.1801 57.6374 330.0001 88 330.0001 73.5906 319.4391 68.9591 319.4391 57.6374 305.9971 57.6374 305.9971 40.1404 288.7141 40.1404 284.8741 26.7602 269.5121 26.7602 260.3911 13.3801 244.5491 17.4971 239.7481 9.26316 223.4261 9.26316 223.4261 0 201.3431 9.26316 195.5821 0 185.9811 9.26316 176.3791 0 158.1371 9.26316 146.6151 0 134.1341 9.26316 125.4931 9.26316 115.8911 17.4971 112.0511 9.26316 95.7291 26.7602 85.1671 22.6433 71.2451 42.7135"></polygon>
                    <path d="M225.417984,215.859848 L281.417984,225.859848 C286.311143,226.733627 290.98617,223.475275 291.859948,218.582116 C292.733727,213.688957 289.475375,209.01393 284.582216,208.140152 L228.582216,198.140152 C223.689057,197.266373 219.01403,200.524725 218.140252,205.417884 C217.266473,210.311043 220.524825,214.98607 225.417984,215.859848 Z" id="Path" fill="#393939" fill-rule="nonzero"></path>
                    <path d="M88.5822157,225.859848 L144.582216,215.859848 C149.475375,214.98607 152.733727,210.311043 151.859948,205.417884 C150.98617,200.524725 146.311143,197.266373 141.417984,198.140152 L85.4179843,208.140152 C80.5248252,209.01393 77.2664734,213.688957 78.1402518,218.582116 C79.0140302,223.475275 83.6890567,226.733627 88.5822157,225.859848 Z" id="Path" fill="#393939" fill-rule="nonzero"></path>
                    <path d="M233.0001,265 L263.0001,265 C267.970663,265 272.0001,260.970563 272.0001,256 C272.0001,251.029437 267.970663,247 263.0001,247 L233.0001,247 C228.029537,247 224.0001,251.029437 224.0001,256 C224.0001,260.970563 228.029537,265 233.0001,265 Z" id="Path" fill="#000000" fill-rule="nonzero"></path>
                    <path d="M107.0001,265 L137.0001,265 C141.970663,265 146.0001,260.970563 146.0001,256 C146.0001,251.029437 141.970663,247 137.0001,247 L107.0001,247 C102.029537,247 98.0001,251.029437 98.0001,256 C98.0001,260.970563 102.029537,265 107.0001,265 Z" id="Path" fill="#000000" fill-rule="nonzero"></path>
                    <path d="M220.928513,368.454015 L220.555809,368.645196 C220.30852,368.768759 219.994391,368.920426 219.614474,369.096134 L219.152927,369.306631 C217.217884,370.177388 214.899332,371.062455 212.213588,371.897651 C204.39069,374.330366 195.282583,375.80035 185.0001,375.80035 C174.717617,375.80035 165.60951,374.330366 157.786612,371.897651 C155.307463,371.1267 153.141189,370.313257 151.300622,369.5078 L150.847273,369.306631 C149.764269,368.819287 149.096502,368.474795 148.860822,368.338211 C145.181617,366.205993 140.470529,367.460073 138.338311,371.139278 C136.249608,374.743397 137.410397,379.337712 140.917159,381.528054 L141.139378,381.661789 C141.329782,381.772135 141.604854,381.923727 141.963463,382.111249 L142.149723,382.207979 C142.833465,382.560712 143.626834,382.944091 144.528021,383.349619 C147.020126,384.47105 149.920379,385.57817 153.213838,386.602349 C162.474378,389.482134 173.116208,391.19965 185.0001,391.19965 C196.883992,391.19965 207.525822,389.482134 216.786362,386.602349 C220.079821,385.57817 222.980074,384.47105 225.472179,383.349619 C226.223168,383.011679 226.899284,382.68912 227.499479,382.38686 L227.850477,382.207979 C228.301304,381.975404 228.638684,381.790525 228.860822,381.661789 C232.540027,379.529571 233.794107,374.818483 231.661889,371.139278 C229.616701,367.610245 225.198865,366.312407 221.594805,368.093982 L221.365894,368.21189 L220.928513,368.454015 Z" id="Vector-220" fill="#C99584" fill-rule="nonzero"></path>
                    <path d="M175.927672,272.285048 C169.371459,282.119369 164.5001,296.124526 164.5001,307.625 C164.5001,324.298509 174.456981,335.5 193.0001,335.5 L193.0001,318.5 C184.320997,318.5 181.5001,315.326491 181.5001,307.625 C181.5001,299.750474 185.265105,288.926086 190.072528,281.714952 L175.927672,272.285048 Z" id="Path" fill="#EBBAAA" fill-rule="nonzero"></path>
                </g>
            </g>
        </g>
    </g>
</svg>