<?xml version="1.0" encoding="UTF-8"?>
<svg width="510px" height="1379px" viewBox="0 0 510 1379" version="1.1" xmlns="http://www.w3.org/2000/svg" xmlns:xlink="http://www.w3.org/1999/xlink">
    <!-- Generator: Sketch 55.2 (78181) - https://sketchapp.com -->
    <title>gee_me_070</title>
    <desc>Created with Sketch.</desc>
    <defs>
        <path d="M0.478,0.053 C0.459,0.582 0.449,1.114 0.449,1.648 L0.449,19.633 C0.449,43.289 19.625,62.465 43.281,62.465 C66.936,62.465 86.113,43.289 86.113,19.633 L86.113,1.648 C86.113,1.114 86.103,0.582 86.083,0.053 L0.478,0.053 Z" id="path-1"></path>
    </defs>
    <g id="GEE!-ME" stroke="none" stroke-width="1" fill="none" fill-rule="evenodd">
        <g id="gee_me_070" transform="translate(-345.000000, -111.000000)">
            <g transform="translate(345.000000, 111.000000)">
                <g id="lower-limb" transform="translate(50.428376, 835.211300)" fill-rule="nonzero">
                    <path d="M137.990404,234.711966 C157.003764,233.470861 173.423252,247.87812 174.664358,266.89148 L175.108216,273.756258 C177.768729,315.294173 180.364045,362.842234 181.939063,401.479472 L182.218335,408.512957 C183.106288,431.505113 183.594225,450.704347 183.620708,465.370621 L183.620708,467.996735 C183.604249,475.729781 183.448746,482.15709 183.131393,487.330331 C182.916409,490.834848 182.622504,493.889891 182.197324,496.662436 C181.342537,502.236407 180.181348,506.629732 177.14044,511.937954 C167.669169,528.471049 146.588465,534.195788 130.05537,524.724516 C116.00224,516.673936 109.758146,500.23554 114.017658,485.331772 L114.126,484.963 L114.176006,484.349015 C114.198041,484.058788 114.220399,483.740876 114.242506,483.397481 L114.306035,482.322992 C114.517344,478.433331 114.626277,472.987093 114.6217,466.2019 L114.613411,463.330034 C114.543928,449.376961 114.046826,430.874888 113.174227,408.727866 L112.908669,402.15614 C111.261548,362.362327 108.540736,313.206332 105.81089,271.38592 C104.569785,252.37256 118.977044,235.953072 137.990404,234.711966 Z M117.268808,477.639446 C115.872129,480.077495 115.10463,481.825019 114.637386,483.326083 L114.511,483.749 L114.689063,483.238941 C115.307187,481.505134 116.072445,479.79903 116.989224,478.136787 L117.268808,477.639446 Z" id="Path" fill="#694536"></path>
                    <path d="M278.333404,187.151966 C297.346764,185.910861 313.766252,200.31812 315.007358,219.33148 L315.421645,225.781208 C318.405485,272.979446 321.186738,333.154719 322.189074,381.056959 L322.291137,386.209648 C322.846565,415.967883 322.700718,440.47254 321.731131,458.722481 L321.628625,460.576847 C321.013556,471.275665 320.095868,479.910223 318.717353,486.811362 C317.624217,492.28383 316.215287,497.02181 313.942898,501.635445 C311.86719,505.849757 309.185394,509.749557 305.318563,513.336861 C298.88467,519.305659 290.333143,523.1087 280.580624,523.1087 C261.5268,523.1087 246.080624,507.662524 246.080624,488.6087 C246.080624,481.957183 247.962964,475.745311 251.224012,470.476714 L251.596,469.888 L251.609383,469.791729 C252.060232,466.327039 252.474029,461.532732 252.796377,455.653341 L252.897175,453.720326 C253.74913,436.540853 253.82665,412.248936 253.204174,382.500441 L253.108781,378.143509 C252.005533,329.845958 249.139425,269.563411 246.15389,223.82592 C244.912785,204.81256 259.320044,188.393072 278.333404,187.151966 Z" id="Path" fill="#694536"></path>
                    <polygon id="Path" fill="#748B9B" points="65.571624 31.7847 197.958624 41.8797 190.227624 427.3987 78.617624 427.3987"></polygon>
                    <polygon id="Path" fill="#DF4949" points="73.9015561 86.8614047 85.4975561 424.048405 78.5016919 424.288995 66.9056919 87.1019953"></polygon>
                    <polygon id="Path" fill="#D8E2EB" points="80.6655562 84.7144072 92.2615562 421.908407 85.2656918 422.148993 73.6696918 84.9549928"></polygon>
                    <polygon id="Path" fill="#DCEAF5" points="80.550624 436.5187 77.651624 420.9487 191.677624 420.9487 191.677624 428.4687 185.879624 436.5187 173.317624 430.0787 167.519624 439.2087 157.372624 430.0787 148.675624 439.2087 137.079624 431.6887 125.484624 436.5187 121.135624 431.6887 115.820624 439.2087 104.708624 434.9087 97.943624 439.2087 92.145624 431.6887"></polygon>
                    <ellipse id="Oval" fill="#748B9B" cx="209.211624" cy="67.3907" rx="117.747" ry="67.3907"></ellipse>
                    <polygon id="Path" fill="#748B9B" points="210.907624 45.2647 347.270624 45.2647 342.423624 424.1787 241.926624 424.1787"></polygon>
                    <polygon id="Path" fill="#DF4949" points="349.072692 85.7874061 356.068556 86.0279939 344.472556 423.218994 337.476692 422.978406"></polygon>
                    <polygon id="Path" fill="#D8E2EB" points="342.307692 83.6414047 349.303556 83.8819953 337.707556 421.068995 330.711692 420.828405"></polygon>
                    <polygon id="Path" fill="#506A7E" points="310.451624 265.41854 312.086486 273.320624 288.677 283.439 311.201233 287.607305 312.006631 295.474152 282.145631 307.644152 279.035617 300.013248 295.872 293.151 273.869015 289.080095 272.983762 281.246776 290.536 273.658 274.618624 273.65886 274.618624 265.41854"></polygon>
                    <polygon id="Path" fill="#506A7E" points="143.923624 256.82854 143.923624 265.06886 128.015 265.068 145.557596 272.646392 144.674326 280.479893 122.662 284.558 139.506631 291.423248 136.396617 299.054152 106.535617 286.884152 107.339922 279.017507 129.863 274.843 106.456652 264.731008 108.090624 256.82854"></polygon>
                    <polygon id="Path" fill="#DCEAF5" points="342.137624 435.4487 344.839624 419.8787 240.476624 419.8787 240.476624 430.6187 245.881624 435.4487 254.678624 430.6187 261.064624 438.1387 270.522624 429.0087 278.630624 438.1387 289.439624 430.6187 300.249624 435.4487 304.303624 430.6187 309.257624 438.1387 319.616624 433.8387 325.922624 438.1387 331.327624 430.6187"></polygon>
                    <g id="Group-5" transform="translate(0.000000, 450.658700)">
                        <path d="M12.115624,90.37 C11.918624,67.29 14.994724,53.25 34.623624,43.82 C54.252624,34.39 72.741624,16.26 106.701624,0.71 C106.701624,0.71 111.170624,-0.15 118.447624,3.87 C124.656624,7.31 132.632624,15.72 144.649624,15.62 C157.698624,15.5 169.327624,12.67 176.552624,8.8 C179.673624,0.06 186.598624,3.41060513e-13 186.598624,3.41060513e-13 C186.598624,3.41060513e-13 196.348624,18.97 196.511624,38.02 C196.674624,57.07 196.65813,88.72 196.65813,88.72 L12.115624,90.37 Z" id="Path" fill="#161616"></path>
                        <path d="M127.619739,29.060088 C131.922731,27.0474393 136.750728,26.4565658 141.39526,27.3834412 C154.062364,29.904169 162.84474,32.1169467 175.709154,35.9181155 L176.927395,36.2791865 L174.215853,45.4008135 L171.919817,44.7222384 C159.911134,41.19523 151.540392,39.1050125 139.535454,36.7160538 C136.883757,36.1868743 134.120587,36.5250443 131.652961,37.6792327 L126.483668,40.1139197 L100.591098,52.4103632 C99.8889485,52.7383266 99.202513,53.0575118 98.4697876,53.3972307 C87.935727,58.277638 72.5959709,56.140647 67.4293474,50.3655487 L67.2532664,50.1626214 L74.5359816,44.0373786 C75.0350884,44.6308004 78.0061833,45.846498 81.5302741,46.3543372 C86.0696227,47.0084802 90.690796,46.5134163 94.4682536,44.7633286 L99.1390019,42.5792783 L122.800594,31.3289663 C124.560776,30.4962254 126.111106,29.7663435 127.619739,29.060088 Z" id="Path" fill="#ECEFF5"></path>
                        <path d="M99.3703146,1.53569863 C101.057159,0.802093587 103.01932,1.5748465 103.752925,3.26169057 C104.53239,5.05398481 105.093331,7.01461688 105.476208,9.14236363 C106.037308,12.2605369 106.160264,14.805044 106.160264,19.29 C106.160264,21.6486026 103.785826,23.2406305 101.623205,22.3946939 L101.461446,22.3266513 L89.768,17.058 L92.1952386,26.0522525 C92.871078,28.5567125 90.5580499,30.8137451 88.0997664,30.1326037 L87.9356969,30.0828119 L75.798,26.076 L75.798264,37.26 C75.798264,39.7385886 73.1991354,41.3278927 71.0096485,40.2548485 L70.8539939,40.1736507 L63.014,35.832 L63.014264,43.79 C63.014264,45.5681463 61.6208407,47.0208411 59.8663669,47.1157117 L59.683624,47.12064 C57.9054777,47.12064 56.4527829,45.7272167 56.3579123,43.9727429 L56.352984,43.79 L56.352984,30.18 C56.352984,27.7014114 58.9521126,26.1121073 61.1415995,27.1851515 L61.2972541,27.2663493 L69.136,31.607 L69.136984,21.47 C69.136984,19.2621029 71.2383065,17.6831739 73.336734,18.2545622 L73.5115511,18.3071881 L84.154,21.82 L81.5030094,11.9977475 C80.7854334,9.33862391 83.4124449,7.03423726 85.929651,8.02698235 L86.0868022,8.09334867 L99.375,14.08 C99.2954061,12.8574042 99.1691257,11.7718133 98.9748971,10.6338688 L98.9202249,10.3220808 C98.6235647,8.67346585 98.2025349,7.20185711 97.6443226,5.91830943 C96.9107176,4.23146536 97.6834705,2.26930367 99.3703146,1.53569863 Z" id="Path" fill="#FFFFFF"></path>
                        <path d="M19.541624,45.59 C25.564024,43.35 31.941824,41.66 44.169624,38.83 L38.973624,54.12 L39.121624,71.54 L4.31792399,71.8501525 C2.89752399,71.87 0.359623991,69.93 1.57102399,62.08 C3.08532399,52.27 10.984424,48.76 19.541624,45.59 Z" id="Path" fill="#161616"></path>
                        <path d="M197.434015,86.16 L197.180624,67.42 L40.172624,69.9 L1.26102399,66.98 L0.0298239911,81.54 C-0.357576009,86.12 3.07492399,90.13 7.65902399,90.45 L40.367624,92.76 L193.376624,90.34 C195.649624,90.3 197.464624,88.43 197.434015,86.16 Z" id="Path" fill="#E1E6F0"></path>
                        <rect id="Rectangle" fill="#F03131" x="187.940624" y="71.81" width="10.4677" height="13.6159" rx="0.951612"></rect>
                    </g>
                    <g id="Group-6" transform="translate(236.737855, 450.658700)">
                        <path d="M186.292769,90.37 C186.489769,67.29 183.413769,53.25 163.784769,43.82 C144.155769,34.39 125.666769,16.26 91.7067686,0.71 C91.7067686,0.71 87.2367686,-0.15 79.9607686,3.87 C73.7517686,7.31 65.7757686,15.72 53.7587686,15.62 C40.7097686,15.5 29.0807686,12.67 21.8557686,8.8 C18.7347686,0.06 11.8097686,3.41060513e-13 11.8097686,3.41060513e-13 C11.8097686,3.41060513e-13 2.0597686,18.97 1.8967686,38.02 C1.7337686,57.07 1.75026222,88.72 1.75026222,88.72 L186.292769,90.37 Z" id="Path" fill="#161616"></path>
                        <path d="M57.0103539,27.3839951 C61.6568149,26.4564817 66.4860903,27.0475116 70.7889449,29.0606921 L75.9895783,31.5099217 L99.8291406,42.8431184 C101.32394,43.5469728 102.546818,44.1173332 103.938932,44.7627693 C107.717597,46.5134163 112.33877,47.0084802 116.878119,46.3543372 C120.292081,45.862368 123.187071,44.7060902 123.818436,44.0947943 L123.872411,44.0373786 L131.155126,50.1626214 C126.227112,56.0218699 110.951794,58.2823052 100.306832,53.5640961 L96.833964,51.950148 L68.7182428,38.6007915 C68.047048,38.2850577 67.3971131,37.9800702 66.7553934,37.6796828 C64.2877377,36.5251385 61.5238673,36.1868828 58.8704042,36.7165588 C46.8662637,39.1053582 38.4931004,41.1961501 26.4879472,44.722371 L24.1926454,45.4007821 L21.4808918,36.2792179 L23.8927202,35.566545 C36.112097,31.9792885 44.7401164,29.8257465 57.0103539,27.3839951 Z" id="Path" fill="#ECEFF5"></path>
                        <path d="M94.6554672,3.26169057 C95.3890723,1.5748465 97.351234,0.802093587 99.038078,1.53569863 C100.724922,2.26930367 101.497675,4.23146536 100.76407,5.91830943 C100.205858,7.20185711 99.7848279,8.67346585 99.4881677,10.3220808 C99.3002037,11.3666438 99.1700094,12.3537942 99.0814434,13.4249837 L99.033,14.08 L112.32159,8.09334867 C114.832804,6.96190906 117.525756,9.18911207 116.945868,11.8322277 L116.905332,11.9979374 L114.254,21.819 L124.896898,18.3071693 C126.993531,17.6151905 129.151475,19.115742 129.26659,21.2874991 L129.271409,21.47 L129.271,31.608 L137.111138,27.2663493 C139.279413,26.0655214 141.928967,27.5692577 142.051029,30.0044943 L142.055409,30.18 L142.055409,43.79 C142.055409,45.6294617 140.56423,47.12064 138.724769,47.12064 C136.946622,47.12064 135.493927,45.7272167 135.399057,43.9727429 L135.394129,43.79 L135.394,35.831 L127.554399,40.1736507 C125.386124,41.3744786 122.736571,39.8707423 122.614508,37.4355057 L122.610129,37.26 L122.61,26.076 L110.471639,30.0828307 C108.008232,30.8958609 105.626973,28.710791 106.171535,26.218632 L106.212205,26.0520626 L108.64,17.057 L96.9469468,22.3266513 C94.7965331,23.2955308 92.3696458,21.784661 92.2525403,19.4654318 L92.2481286,19.29 L92.2539849,17.7548988 C92.2839472,14.1861015 92.4384163,11.8863561 92.9321843,9.14236363 C93.3150619,7.01461688 93.8760021,5.05398481 94.6554672,3.26169057 Z" id="Path" fill="#FFFFFF"></path>
                        <path d="M178.866769,45.59 C172.843769,43.35 166.465769,41.66 154.238769,38.83 L159.434769,54.12 L159.285769,71.54 L194.089769,71.8501525 C195.510769,71.87 198.048769,69.93 196.836769,62.08 C195.322769,52.27 187.423769,48.76 178.866769,45.59 Z" id="Path" fill="#161616"></path>
                        <path d="M0.974377332,86.16 L1.2277686,67.42 L158.235769,69.9 L197.146769,66.98 L198.378769,81.54 C198.765769,86.12 195.332769,90.13 190.748769,90.45 L158.040769,92.76 L5.0317686,90.34 C2.7587686,90.3 0.943768597,88.43 0.974377332,86.16 Z" id="Path" fill="#E1E6F0"></path>
                        <rect id="Rectangle" fill="#F03131" transform="translate(5.233884, 78.617950) scale(-1, 1) translate(-5.233884, -78.617950) " x="-9.9475983e-13" y="71.81" width="10.4677686" height="13.6159" rx="0.951612"></rect>
                    </g>
                </g>
                <g id="upper-limb" transform="translate(0.355259, 376.104000)" fill-rule="nonzero">
                    <rect id="Rectangle" fill="#23180D" x="72.6833412" y="-5.54223334e-13" width="328.453" height="154.932" rx="77.4659"></rect>
                    <path d="M85.1408412,183.187 C85.2002412,125.329 132.158741,78.541 190.016741,78.541 L303.272741,78.541 C357.946741,78.541 403.500741,120.474 406.824741,175.047 C409.521741,219.306 411.993741,270.235 411.993741,308.152 C411.993741,356.221 408.018741,424.91 404.653741,474.454 C402.255741,509.768 372.797741,536.88 337.402741,536.88 L160.157741,536.88 C124.960741,536.88 95.5937412,510.027 92.9887412,474.927 C89.5857412,429.073 85.6479412,367.085 85.3528412,322.46 C85.1109412,285.876 85.0913412,231.389 85.1408412,183.187 Z" id="Path" fill="#26282C"></path>
                    <ellipse id="Oval" fill="#26282C" cx="249.542741" cy="100.059" rx="65.2694" ry="67.7826"></ellipse>
                    <rect id="Rectangle" fill="#EED1C9" x="209.335741" y="10.775" width="80.9095" height="124.037" rx="40.45475"></rect>
                    <path d="M155.848741,121.578 C170.165741,144.818 196.905741,164.507 232.698741,164.507 C232.698741,136.892 213.748741,106.515 191.641741,74.238 C182.465741,60.841 174.797741,46.264 155.848741,46.264 C149.882741,61.686 141.530741,98.338 155.848741,121.578 Z" id="Path" fill="#5F646C"></path>
                    <path d="M339.023741,121.578 C324.706741,144.818 297.966741,165.529 262.173741,165.529 C262.173741,137.914 281.123741,106.515 303.230741,74.238 C312.406741,60.841 320.074741,46.264 339.023741,46.264 C344.989741,61.686 353.341741,98.338 339.023741,121.578 Z" id="Path" fill="#5F646C"></path>
                    <path d="M123.160386,119.050268 C135.559031,98.4724945 162.2917,91.8420004 182.869473,104.240645 C203.447247,116.63929 210.077741,143.371958 197.679096,163.949732 L195.869338,166.941027 C193.046234,171.58866 189.980968,176.551086 186.387622,182.301472 L180.109117,192.299178 C176.181961,198.526203 167.872575,211.68984 165.13917,216.043722 L160.998858,222.658244 C159.870888,224.466375 158.784529,226.21342 157.725603,227.922446 L154.697763,232.827962 C145.030446,248.55398 137.532338,261.396761 131.546928,272.64182 L130.556,274.513 L129.903445,276.281828 C105.800149,342.173482 97.5881362,433.94262 106.443195,517.178687 L106.722506,519.75024 C109.369474,543.628362 92.158223,565.131196 68.280101,567.778165 C44.401979,570.425133 22.8991448,553.213882 20.2521767,529.33576 C9.44217455,431.819455 19.0424219,324.265699 49.2220219,243.627932 L50.1428545,241.19264 L52.1424393,236.72885 L52.9897433,235.09885 C60.8203449,220.106393 70.4170033,203.68555 83.077473,183.219965 L86.0174277,178.482799 C87.1619954,176.644103 88.3419361,174.754656 89.5719833,172.790457 L108.266271,143.121018 C114.511115,133.192709 119.108807,125.77459 123.160386,119.050268 Z" id="Path" fill="#EBBAAA"></path>
                    <path d="M52.4559412,178.147 C61.9480412,130.008 108.441741,99.822 156.275741,110.741 C204.085741,121.655 235.124741,169.5 225.602741,217.607 L179.721741,449.419 C171.325741,491.838 128.179741,516.502 87.1867412,502.315 L81.3762412,500.304 C73.6793412,497.64 65.4961412,496.955 57.5750412,498.31 C23.8812412,504.074 -5.73235878,473.245 0.949341217,439.359 L52.4559412,178.147 Z" id="Path" fill="#C8C0A8"></path>
                    <path d="M5.00744122,470.762 C5.14494122,465.7 9.79944122,462.158 14.6708412,463.409 L106.543741,487.001 C111.148741,488.184 113.844741,493.133 112.331741,497.625 L106.690741,514.373 C105.407741,518.183 101.503741,520.343 97.5827412,519.411 L10.8150412,498.785 C7.04044122,497.888 4.36544122,494.384 4.47164122,490.477 L5.00744122,470.762 Z" id="Path" fill="#B8B09B"></path>
                    <path d="M95.1677412,165.871 C95.1677412,119.479 132.776741,81.871 179.167741,81.871 L186.713741,81.871 C190.126741,81.871 193.358741,83.403 195.518741,86.046 C222.521741,119.078 237.272741,160.431 237.272741,203.096 L237.272741,307.132 L237.272741,546.928 C237.272741,552.815 232.213741,557.428 226.352741,556.886 L104.247741,545.596 C99.1037412,545.121 95.1677412,540.805 95.1677412,535.639 L95.1677412,284.181 L95.1677412,165.871 Z" id="Path" fill="#D9D1BA"></path>
                    <path d="M143.949741,113.706 C181.594741,140.994 217.825741,178.389 236.648186,252.673 C236.648186,243.988 236.648186,204.161 236.648186,186.475 C236.648186,158.681 211.238741,84.397 188.651741,84.397 C178.300741,93.998 164.183741,103.094 143.949741,113.706 Z" id="Path" fill="#C2BAA1"></path>
                    <path d="M209.981741,391.711 C209.981741,389.661 208.431741,387.942 206.391741,387.732 L116.347741,378.439 C114.030741,378.2 112.000741,379.983 111.938741,382.312 L108.445741,514.611 C108.388741,516.767 110.052741,518.581 112.205741,518.709 L205.742741,524.29 C208.041741,524.427 209.981741,522.6 209.981741,520.297 L209.981741,391.711 Z" id="Path" fill="#C2BAA1"></path>
                    <path d="M326.418009,104.240645 C346.995783,91.8420004 373.728452,98.4724945 386.127096,119.050268 L388.145913,122.384039 C390.677488,126.544478 393.465263,131.05434 396.740689,136.295458 L417.831007,169.785095 L420.92939,174.730627 C421.728243,176.008648 422.50701,177.257001 423.270055,178.482799 L425.516392,182.099634 C438.75315,203.462748 448.673879,220.430516 456.723119,235.915219 L457.145043,236.72885 L459.144576,241.192505 C490.049121,322.091295 499.95422,430.833361 489.034906,529.33576 C486.387938,553.213882 464.885103,570.425133 441.006981,567.778165 C417.128859,565.131196 399.917609,543.628362 402.564577,519.75024 C411.866693,435.836469 403.735856,342.852217 379.384088,276.281922 L378.728,274.509 L378.465946,274.010868 C372.243967,262.213475 364.34857,248.675823 353.995127,231.861531 L351.56188,227.922446 C350.326466,225.928583 349.053712,223.88297 347.721106,221.748981 L339.577247,208.784737 C334.929737,201.413178 328.789729,191.686901 327.377845,189.44223 L322.899861,182.301472 C318.525352,175.301002 314.93348,169.468322 311.608386,163.949732 C299.209742,143.371958 305.840236,116.63929 326.418009,104.240645 Z" id="Path" fill="#EBBAAA"></path>
                    <path d="M456.831741,178.147 C447.339741,130.008 400.845741,99.822 353.011741,110.741 C305.201741,121.655 274.162741,169.5 283.684741,217.607 L329.565741,449.419 C337.960741,491.838 381.107741,516.502 422.100741,502.315 L427.910741,500.304 C435.607741,497.64 443.790741,496.955 451.711741,498.31 C485.405741,504.074 515.019741,473.245 508.337741,439.359 L456.831741,178.147 Z" id="Path" fill="#C8C0A8"></path>
                    <path d="M504.279741,470.762 C504.142741,465.7 499.487741,462.158 494.616741,463.409 L402.743741,487.001 C398.138741,488.184 395.442741,493.133 396.955741,497.625 L402.596741,514.373 C403.879741,518.183 407.783741,520.343 411.704741,519.411 L498.472741,498.785 C502.246741,497.888 504.921741,494.384 504.815741,490.477 L504.279741,470.762 Z" id="Path" fill="#B8B09B"></path>
                    <path d="M414.119741,165.871 C414.119741,119.479 376.511741,81.871 330.119741,81.871 L322.573741,81.871 C319.160741,81.871 315.928741,83.403 313.768741,86.046 C286.765741,119.078 272.014741,160.431 272.014741,203.096 L272.014741,307.132 L272.014741,546.928 C272.014741,552.815 277.073741,557.428 282.934741,556.886 L405.039741,545.596 C410.183741,545.121 414.119741,540.805 414.119741,535.639 L414.119741,284.181 L414.119741,165.871 Z" id="Path" fill="#D9D1BA"></path>
                    <path d="M365.337741,113.706 C327.693741,140.994 291.461741,178.389 272.639297,252.673 C272.639297,243.988 272.639297,204.161 272.639297,186.475 C272.639297,158.681 298.048741,84.397 320.635741,84.397 C330.986741,93.998 345.103741,103.094 365.337741,113.706 Z" id="Path" fill="#C2BAA1"></path>
                    <path d="M299.305741,391.711 C299.305741,389.661 300.855741,387.942 302.895741,387.732 L392.939741,378.439 C395.256741,378.2 397.286741,379.983 397.348741,382.312 L400.841741,514.611 C400.898741,516.767 399.234741,518.581 397.081741,518.709 L303.544741,524.29 C301.245741,524.427 299.305741,522.6 299.305741,520.297 L299.305741,391.711 Z" id="Path" fill="#C2BAA1"></path>
                </g>
                <g id="hand" transform="translate(40.999504, 0.000000)">
                    <path d="M344.152496,208.458 C326.459496,133.014 250.159496,94.2494 220.582496,84.9844 C207.080496,59.1746 209.009496,5.69384 230.227496,1.599 C261.090496,-4.35715 344.008496,33.3649 380.657496,106.824 C426.735496,199.178 418.123496,444.596 407.000496,526 C357.499496,504.5 366.000496,485 310.510496,462.979 C333.775496,357.755 344.152496,273.975 344.152496,273.975 C344.152496,273.975 353.929496,250.151 344.152496,208.458 Z" id="Path" fill="#342B22" fill-rule="nonzero"></path>
                    <path d="M54.7424961,174.331 C54.7424961,94.5002 121.681496,29.7842 204.255496,29.7842 C286.829496,29.7842 353.768496,94.5001 353.768496,174.331 L353.768496,318.101 C341.711496,411.358 269.366496,462.648 204.255496,462.648 C139.144496,462.648 63.5844961,400.478 54.7424961,318.101 L54.7424961,174.331 Z" id="Path" fill="#F6DDD6" fill-rule="nonzero"></path>
                    <path d="M164.449496,350.95 L164.449496,367.633 C164.449496,391.288 183.625496,410.465 207.281496,410.465 C230.936496,410.465 250.113496,391.288 250.113496,367.633 L250.113496,350.95 L164.449496,350.95 Z" id="Path" fill="#393939"></path>
                    <g id="Clipped" transform="translate(164.000496, 348.000000)">
                        <mask id="mask-2" fill="white">
                            <use xlink:href="#path-1"></use>
                        </mask>
                        <g id="Path"></g>
                        <g id="Group" mask="url(#mask-2)" fill-rule="nonzero">
                            <g transform="translate(0.000000, 2.000000)">
                                <ellipse id="Oval" fill="#FF6C6C" cx="43.281" cy="60.13" rx="25.83" ry="14.3771"></ellipse>
                                <rect id="Rectangle" fill="#FFFFFF" x="0.449" y="0.951" width="85.6639" height="18.055"></rect>
                            </g>
                        </g>
                    </g>
                    <path d="M211.385496,3.5503 C246.267496,-12.8526 336.443496,28.4068 377.249496,110.255 C377.249496,110.255 399.367496,159.634 404.788496,193.762 C410.135496,227.433 392.601496,244.464 392.601496,244.464 L354.658496,276.61 C354.658496,276.61 324.641496,176.643 287.748496,145.064 C250.855496,113.486 219.403496,104.385 209.764496,97.4259 C200.126496,90.4669 198.992496,30.3921 211.385496,3.5503 Z" id="Path" fill="#342B22" fill-rule="nonzero"></path>
                    <path d="M136.508732,203.667645 C146.369806,203.175969 154.502471,204.216437 160.986173,206.297856 C162.952944,206.929235 164.643177,207.6202 166.063791,208.330404 C167.007033,208.801956 167.697276,209.212377 168.142638,209.521031 C170.756584,211.332603 171.407037,214.920195 169.595465,217.534141 C167.830343,220.081064 164.379113,220.763893 161.785301,219.121473 L161.582355,218.986969 C161.149016,218.686647 159.804064,218.014269 157.465895,217.263663 C152.315252,215.610187 145.569629,214.747173 137.08226,215.170355 C129.671553,215.539855 123.712707,216.71464 119.062523,218.410287 C117.176017,219.098184 115.672066,219.812696 114.520693,220.49811 C114.304886,220.626581 114.117118,220.74487 113.956622,220.851507 L113.614782,221.088532 C113.618045,221.08497 113.631815,221.072931 113.655875,221.051982 C111.257313,223.14038 107.619912,222.888942 105.531514,220.490379 C103.443116,218.091816 103.694554,214.454416 106.093117,212.366018 C106.616831,211.910027 107.454355,211.301458 108.629469,210.601911 C110.398438,209.548841 112.553758,208.524869 115.117072,207.59018 C120.869866,205.492477 127.965244,204.093625 136.508732,203.667645 Z" id="Path" fill="#23180D" fill-rule="nonzero"></path>
                    <path d="M103.782496,209.782 C115.716496,156.123 175.172496,104.782 203.324496,95.5079 C214.934496,91.6832 222.701496,-1.70530257e-13 203.324496,-1.70530257e-13 C154.272496,-1.70530257e-13 76.4684961,50.4288 48.7024961,95.5079 C3.10679607,169.535 -13.0178039,252.529 11.2524961,439.325 C17.1915961,485.034 22.5841961,555.586 37.9401961,593.436 C66.7324961,564.01 124.798496,555.586 124.798496,555.586 C124.798496,555.586 142.365496,533.264 130.404496,489.009 C108.803496,409.082 91.8484961,263.442 103.782496,209.782 Z" id="Path" fill="#342B22" fill-rule="nonzero"></path>
                    <path d="M39.2889961,504.526 C51.7824961,475.473 44.4947961,413.062 39.2889961,385.488 C77.4654961,425.168 144.967496,508.965 109.567496,526.72 C74.1684961,544.475 80.9354961,605.406 88.7444961,633.653 C80.0684961,631.635 58.0294961,620.74 39.2889961,593.301 C15.8626961,559.002 23.6713961,540.843 39.2889961,504.526 Z" id="Path" fill="#342B22" fill-rule="nonzero"></path>
                    <path d="M103.510496,495.62 C72.9664961,481.522 62.1274961,472.459 45.3778961,447.284 C42.0934961,462.725 43.4072961,512.135 51.2894961,537.914 C59.1724961,563.693 74.4004961,610.111 111.841496,610.111 C111.841496,610.111 101.988496,588.073 111.841496,567.933 C121.694496,547.793 124.152496,505.148 103.510496,495.62 Z" id="Path" fill="#342B22" fill-rule="nonzero"></path>
                    <path d="M61.5855745,98.3813035 C63.1787484,96.2633348 66.1872239,95.8379045 68.3051926,97.4310784 C70.4231613,99.0242523 70.8485915,102.032728 69.2554176,104.150697 C59.1533851,117.58036 46.8904997,142.727396 37.4407756,170.566219 C26.2402942,203.562762 19.7343561,237.517394 19.7343561,268.055 C19.7343561,270.705282 17.585878,272.85376 14.9355961,272.85376 C12.2853141,272.85376 10.1368361,270.705282 10.1368361,268.055 C10.1368361,236.373617 16.8366717,201.407029 28.3525666,167.481281 L28.9926809,165.611566 C38.6554537,137.626029 51.0321912,112.410993 61.5855745,98.3813035 Z" id="Path" fill="#65513D" fill-rule="nonzero"></path>
                    <path d="M63.8281166,145.283834 C64.7405829,142.795581 67.49741,141.518154 69.9856624,142.430621 C72.4739147,143.343087 73.7513418,146.099914 72.8388755,148.588166 L69.2305695,158.458795 C59.2378018,185.908 56.397856,194.934189 51.6243539,213.647136 C50.969269,216.215182 48.3564054,217.765943 45.7883598,217.110858 C43.2203142,216.455773 41.6695532,213.842909 42.3246382,211.274864 L43.2739101,207.584702 C48.1241017,188.908025 51.5168829,178.855987 63.8281166,145.283834 Z" id="Path" fill="#65513D" fill-rule="nonzero"></path>
                    <path d="M151.95207,251.411678 C154.568421,250.988945 157.032085,252.767223 157.454818,255.383574 C157.866126,257.929213 156.193788,260.330306 153.693195,260.847611 L153.482922,260.886322 L127.630922,265.063322 C125.014571,265.486055 122.550907,263.707777 122.128174,261.091426 C121.716866,258.545787 123.389204,256.144694 125.889797,255.627389 L126.10007,255.588678 L151.95207,251.411678 Z" id="Path" fill="#000000" fill-rule="nonzero"></path>
                    <path d="M247.384174,255.824574 C247.795482,253.278935 250.138891,251.52668 252.675157,251.823199 L252.886922,251.852678 L278.738922,256.029678 C281.355273,256.452411 283.133551,258.916075 282.710818,261.532426 C282.29951,264.078065 279.956101,265.83032 277.419835,265.533801 L277.20807,265.504322 L251.35607,261.327322 C248.739719,260.904589 246.961441,258.440925 247.384174,255.824574 Z" id="Path" fill="#000000" fill-rule="nonzero"></path>
                    <path d="M147.821904,244.63195 C154.084738,244.63195 159.179835,249.631275 159.33491,255.856707 L159.338546,256.149408 L159.337546,284.377408 C159.337321,290.738099 154.180779,295.89405 147.820088,295.89405 C141.557254,295.89405 136.462157,290.894725 136.307083,284.669293 L136.303446,284.376592 L136.304446,256.148592 C136.304671,249.787901 141.461213,244.63195 147.821904,244.63195 Z" id="Path" fill="#000000" fill-rule="nonzero"></path>
                    <path d="M258.067904,245.07295 C264.330738,245.07295 269.425835,250.072275 269.58091,256.297707 L269.584546,256.590408 L269.583546,284.818408 C269.583321,291.179099 264.426779,296.33505 258.066088,296.33505 C251.803254,296.33505 246.708157,291.335725 246.553083,285.110293 L246.549446,284.817592 L246.550446,256.589592 C246.550671,250.228901 251.707213,245.07295 258.067904,245.07295 Z" id="Path" fill="#000000" fill-rule="nonzero"></path>
                    <path d="M291.052676,220.631403 L290.897226,220.543965 C290.570155,220.358714 290.138413,220.137365 289.596793,219.88734 C287.917647,219.112209 285.738437,218.313166 283.01774,217.550805 C278.543856,216.297188 273.145469,215.29673 266.75109,214.65908 C257.795909,213.766065 250.854401,214.412588 245.735723,215.974202 C244.600311,216.320596 243.679966,216.678078 242.965533,217.017369 L242.677991,217.158994 L242.450211,217.280761 L242.513059,217.239357 C239.856372,218.987649 236.285431,218.25125 234.537139,215.594563 C232.788847,212.937876 233.525247,209.366935 236.181933,207.618643 C236.588582,207.351039 237.200734,207.00534 238.024852,206.613958 C239.24764,206.033244 240.695867,205.470721 242.375017,204.958444 C248.971808,202.945883 257.443712,202.156822 267.893902,203.19892 C274.941389,203.901699 280.996707,205.023902 286.125205,206.460947 C289.429916,207.386953 292.184249,208.396874 294.423811,209.430707 L295.024858,209.714504 C296.173321,210.269568 297.001243,210.747291 297.530962,211.108869 C300.1577,212.901842 300.833601,216.484727 299.040627,219.111466 C297.293627,221.670852 293.84733,222.37816 291.241927,220.754191 L291.052676,220.631403 Z" id="Path" fill="#23180D" fill-rule="nonzero"></path>
                    <path d="M191.523116,283.625662 L207.693876,285.796338 L207.569241,286.689136 C207.249757,288.879363 206.875432,290.654622 205.844008,294.947544 L204.55472,300.272603 C204.372355,301.035843 204.215947,301.704423 204.065343,302.365553 C202.534561,309.085494 202.088347,313.419299 202.679913,315.940207 L202.737421,316.172253 C203.019106,317.235019 203.398218,317.460046 205.761591,317.484658 L206.279496,317.4871 L206.279496,333.8029 C195.899666,333.8029 188.89293,328.605249 186.795605,319.667683 C185.490107,314.104419 186.066694,308.080119 188.015545,299.368552 L188.390962,297.727605 C188.498044,297.268814 188.610593,296.793631 188.733779,296.279598 L190.284082,289.857121 C191.000204,286.82697 191.263428,285.492364 191.484464,283.908206 L191.523116,283.625662 Z" id="Path" fill="#EBBAAA" fill-rule="nonzero"></path>
                    <g id="Group-2" transform="translate(84.767496, 225.403000)" fill-rule="nonzero">
                        <path d="M100.543,56.407 C100.543,83.464 79.109,105.218 52.888,105.218 C26.667,105.218 5.233,83.464 5.233,56.407 C5.233,29.351 26.667,7.597 52.888,7.597 C79.109,7.597 100.543,29.351 100.543,56.407 Z" id="Path-Copy" fill-opacity="0.2" fill="#FFFFFF"></path>
                        <path d="M230.544,56.407 C230.544,83.463 209.11,105.217 182.889,105.217 C156.667,105.217 135.233,83.463 135.233,56.407 C135.233,29.351 156.667,7.597 182.889,7.597 C209.11,7.597 230.544,29.351 230.544,56.407 Z" id="Path-Copy-2" fill-opacity="0.2" fill="#FFFFFF"></path>
                        <path d="M52.655,0.20124 C23.6934018,0.20124 0.20124,24.1949424 0.20124,53.81 C0.20124,83.4258877 23.6932353,107.41976 52.655,107.41976 C81.6167647,107.41976 105.10876,83.4258877 105.10876,53.81 C105.10876,24.1949424 81.6165982,0.20124 52.655,0.20124 Z M52.655,9.79876 C76.2701258,9.79876 95.51124,29.450658 95.51124,53.81 C95.51124,78.1702018 76.2702612,97.82224 52.655,97.82224 C29.0397388,97.82224 9.79876,78.1702018 9.79876,53.81 C9.79876,29.450658 29.0398742,9.79876 52.655,9.79876 Z" id="Path" fill="#A8AEB9"></path>
                        <path d="M182.889,2.79824 C153.926572,2.79824 130.43424,26.7917687 130.43424,56.407 C130.43424,86.0222313 153.926572,110.01576 182.889,110.01576 C211.850598,110.01576 235.34276,86.0220576 235.34276,56.407 C235.34276,26.7919424 211.850598,2.79824 182.889,2.79824 Z M182.889,12.39576 C206.504126,12.39576 225.74524,32.047658 225.74524,56.407 C225.74524,80.766342 206.504126,100.41824 182.889,100.41824 C159.273012,100.41824 140.03176,80.7664853 140.03176,56.407 C140.03176,32.0475147 159.273012,12.39576 182.889,12.39576 Z" id="Path" fill="#A8AEB9"></path>
                        <path d="M100.233754,48.8554305 L135.475754,49.1694305 C138.125931,49.1930431 140.255182,51.3605776 140.231764,54.0107544 C140.208595,56.5893048 138.15602,58.674707 135.604034,58.7637985 L135.390246,58.7665695 L100.148246,58.4525695 C97.4980688,58.4289569 95.3688179,56.2614224 95.392236,53.6112456 C95.4154049,51.0326952 97.4679797,48.947293 100.019966,48.8582015 L100.233754,48.8554305 Z" id="Path" fill="#A8AEB9"></path>
                    </g>
                </g>
            </g>
        </g>
    </g>
</svg>