<?xml version="1.0" encoding="UTF-8"?>
<svg width="532px" height="1368px" viewBox="0 0 532 1368" version="1.1" xmlns="http://www.w3.org/2000/svg" xmlns:xlink="http://www.w3.org/1999/xlink">
    <!-- Generator: Sketch 55.2 (78181) - https://sketchapp.com -->
    <title>gee_me_056</title>
    <desc>Created with Sketch.</desc>
    <defs>
        <path d="M0.1151,75.4 C0.1151,33.92 33.736,0.3 75.208,0.3 L172.824,0.3 L172.824,70.69 C172.824,76.36 168.227,80.96 162.557,80.96 L5.6776,80.96 C2.6055,80.96 0.1151,78.47 0.1151,75.4 Z" id="path-1"></path>
        <path d="M173.408,75.4 C173.408,33.92 139.788,0.3 98.315,0.3 L0.7,0.3 L0.7,70.69 C0.7,76.36 5.296,80.96 10.966,80.96 L167.846,80.96 C170.918,80.96 173.408,78.47 173.408,75.4 Z" id="path-3"></path>
        <path d="M0.225,0.646 C0.178,1.447 0.155,2.256 0.155,3.065 L0.155,18.21 C0.155,41.041 19.559,59.543 43.487,59.543 C67.423,59.543 86.82,41.041 86.82,18.21 L86.82,3.065 C86.82,2.256 86.796,1.447 86.749,0.646 L0.225,0.646 Z" id="path-5"></path>
    </defs>
    <g id="GEE!-ME" stroke="none" stroke-width="1" fill="none" fill-rule="evenodd">
        <g id="gee_me_056" transform="translate(-334.000000, -116.000000)">
            <g transform="translate(334.933594, 116.041033)">
                <g id="lower-limb" transform="translate(75.066406, 843.037967)">
                    <path d="M334.467,76.703 C334.467,101.841 277.093,122.457 199.647,122.457 C122.201,122.457 59.418,102.079 59.418,76.941 C59.418,51.804 122.201,31.426 199.647,31.426 C277.093,31.426 334.467,51.566 334.467,76.703 Z" id="Path" fill="#666666" fill-rule="nonzero"></path>
                    <path d="M268.996311,104.373223 C284.406037,101.165173 299.498726,111.056585 302.706777,126.466311 C309.414457,158.686354 311.713509,216.181471 311.412356,302.513638 L311.344316,316.343541 C311.26082,329.681748 311.125114,343.231913 310.920149,359.4063 L309.884899,434.283396 C309.697117,449.261019 309.668,455.640087 309.668,465.471 C309.668,481.211115 296.908115,493.971 281.168,493.971 C265.427885,493.971 252.668,481.211115 252.668,465.471 L252.688977,454.607387 C252.712033,449.659219 252.758637,444.368568 252.849687,436.783115 L253.933035,358.025291 C254.174718,338.858815 254.317706,323.41261 254.3913,307.570553 L254.419759,300.015047 C254.648554,220.2145 252.476099,165.76569 247.073119,138.913824 L246.903223,138.083689 C243.695173,122.673963 253.586585,107.581274 268.996311,104.373223 Z" id="Path" fill="#EBBAAA" fill-rule="nonzero"></path>
                    <path d="M113.455253,203.676188 C114.380226,187.963274 127.867899,175.97528 143.580812,176.900253 C159.293726,177.825226 171.28172,191.312899 170.356747,207.025812 C169.216812,226.390366 167.928791,244.909223 166.401604,264.414444 L165.554202,274.979125 C164.007921,293.818249 160.980495,329.287609 160.887397,330.413536 L160.341826,337.099029 C158.919429,354.783065 158.001584,368.405523 157.390898,381.573167 L157.316314,383.213291 C156.360379,404.660744 156.284186,424.540715 157.182218,445.639019 C157.851577,461.364895 145.645858,474.655859 129.919981,475.325218 C114.194105,475.994577 100.903141,463.788858 100.233782,448.062981 C99.26295,425.254318 99.3454603,403.725806 100.372847,380.67526 L100.575629,376.34253 C101.229098,363.014002 102.179632,349.185471 103.600891,331.591384 L104.199971,324.313961 C104.876719,316.344568 108.189963,277.44528 109.271706,263.818508 C110.90599,243.23134 112.263568,223.91984 113.455253,203.676188 Z" id="Path" fill="#EBBAAA" fill-rule="nonzero"></path>
                    <polygon id="Path" fill="#666666" fill-rule="nonzero" points="44.979 0 193.456 0 182.458 340.001 182.458 398.401 88.972 398.401 65.559 340.001"></polygon>
                    <polygon id="Path" fill="#666666" fill-rule="nonzero" points="192.043 5.793 341.023 5.793 341.023 333.471 324.887 395.471 231.951 395.471 231.951 345.291"></polygon>
                    <path d="M0.1151,519.321 C0.1151,477.841 33.736,444.221 75.208,444.221 L171.668,444.221 C172.306,444.221 172.824,444.741 172.824,445.381 L172.824,514.611 C172.824,520.281 168.227,524.881 162.557,524.881 L5.6776,524.881 C2.6055,524.881 0.1151,522.391 0.1151,519.321 Z" id="Path" fill="#D6AF85" fill-rule="nonzero"></path>
                    <g id="Clipped" transform="translate(0.000000, 443.921000)">
                        <mask id="mask-2" fill="white">
                            <use xlink:href="#path-1"></use>
                        </mask>
                        <g id="Path"></g>
                        <g id="Group" mask="url(#mask-2)" fill="#A58F75" fill-rule="nonzero">
                            <g transform="translate(-24.000000, 15.000000)">
                                <path d="M44.1461,15.06 C31.1972,7.75 36.2757,22.25 24.6406,28.41 L0.0016,75.64 L196.085,75.64 C200.876,68.79 216.539,44.59 202.758,39.7 C170.933,28.41 134.488,50.48 116.009,49.46 C97.53,48.43 44.6326,56.12 47.7393,39.7 C51.332,20.71 55.952,21.74 44.1461,15.06 Z" id="Path"></path>
                                <ellipse id="Oval" transform="translate(173.952000, 33.400000) rotate(-25.000000) translate(-173.952000, -33.400000) " cx="173.952" cy="33.4" rx="34.1391" ry="20.1662"></ellipse>
                            </g>
                        </g>
                    </g>
                    <path d="M70.553048,441.343186 C71.5357705,440.032783 73.3622633,439.72845 74.7113446,440.618981 L79.1101402,443.754414 C79.422563,443.979775 79.6902146,444.175065 79.8832171,444.319823 C85.3992908,448.457046 88.41585,452.227989 88.41585,457.051 C88.41585,459.034412 86.5753677,460.48404 84.6694717,460.058039 L84.4960776,460.014108 L61.356,453.455 L68.9595846,465.684902 C70.4486889,468.080133 68.2070592,471.017758 65.5422152,470.285099 L65.3849964,470.237737 L42.88,462.863 L50.8978031,474.270105 C51.8396176,475.610211 51.5635789,477.441194 50.2991623,478.448326 L50.1488948,478.560803 C48.8087885,479.502618 46.977806,479.226579 45.9706736,477.962162 L45.8581969,477.811895 L32.5121969,458.821895 C30.8407423,456.443585 33.08762,453.322038 35.8321382,454.076409 L35.9910036,454.124263 L59.259,461.748 L51.9224154,449.947098 C50.4662635,447.604871 52.5824775,444.708838 55.216062,445.316289 L55.3779224,445.357892 L79.687,452.248 L79.6443554,452.203549 C78.8088724,451.351947 77.7716364,450.456318 76.5307695,449.507581 L76.1873011,449.247511 C75.2141437,448.517613 71.7925325,446.122424 71.169186,445.654952 C69.8083829,444.634432 69.5325285,442.703989 70.553048,441.343186 Z" id="Path" fill="#978D73" fill-rule="nonzero"></path>
                    <path d="M67.371,415.47115 C63.5298388,415.47115 60.3996195,417.071568 58.23511,420.01735 C56.1566254,422.859931 55.05115,426.817768 55.05115,431.381 C55.05115,435.594391 57.5573288,439.383709 61.8308412,442.217736 C65.6135516,444.735851 70.4767952,446.25085 74.557,446.25085 C76.4862142,446.25085 77.8983667,445.909608 78.9123934,445.23359 C79.9074327,444.537158 80.5140476,443.576311 80.8695874,442.224258 C81.1575172,441.119726 81.280163,439.799352 81.3010507,437.938699 L81.3004685,436.623951 L81.2339481,432.338794 L81.22985,431.381 C81.22985,422.257206 75.2632855,415.47115 67.371,415.47115 Z M67.371,421.63085 C71.6723502,421.63085 75.07015,425.495328 75.07015,431.381 L75.0736859,432.297843 C75.0760805,432.605216 75.0797281,432.92067 75.0847406,433.263165 L75.1380768,436.420311 C75.1433756,436.844224 75.14506,437.16727 75.1443175,437.514412 L75.1421953,437.825855 C75.1338211,438.635188 75.1038136,439.276127 75.0542751,439.774121 L75.018,440.079 L74.9212406,440.084264 C74.809569,440.088732 74.6882326,440.09115 74.557,440.09115 C71.7097834,440.09115 68.0301928,438.944883 65.239658,437.087254 C62.5422363,435.298423 61.21085,433.28538 61.21085,431.381 C61.21085,428.045803 61.9621159,425.356112 63.203142,423.658849 C64.2082634,422.290946 65.4993297,421.63085 67.371,421.63085 Z" id="Path" fill="#978D73" fill-rule="nonzero"></path>
                    <path d="M82.2615578,435.100936 L81.5071719,436.750861 L80.7709149,438.326808 C80.5954625,438.704497 80.4514581,439.02003 80.3175997,439.320758 L80.2383317,439.499797 C79.6191974,440.903166 79.275833,441.887198 79.1343242,442.777591 C79.0633752,443.221013 79.0428247,443.637709 79.0936966,444.043046 L79.1178003,444.211862 L79.2086637,444.597238 L79.2294525,444.665873 C79.274985,444.814802 79.3032809,444.892336 79.3896632,445.048484 L79.416,445.095 L79.4102984,445.098351 L79.5099233,445.282309 C79.5452269,445.342735 79.5826245,445.402277 79.6221125,445.460966 L79.7468435,445.6345 C80.2708213,446.318638 81.0952637,446.884211 82.2136954,447.383416 C84.9883389,448.616596 88.742046,449.068044 92.0644789,448.519749 C95.816044,447.905812 98.6427638,446.121922 99.8956724,443.301238 C101.256004,440.247199 101.687312,437.253766 101.12385,434.729926 C100.533253,432.097731 98.8891875,430.081924 96.2835034,428.918672 C91.0164362,426.576415 85.0493548,429.182321 82.2615578,435.100936 Z M93.776559,434.545138 C94.598594,434.912121 94.9480112,435.340545 95.1128666,436.075277 C95.3646014,437.202847 95.1234644,438.876423 94.2676169,440.797863 C93.9589534,441.492756 92.9420565,442.1345 91.065602,442.44158 L90.7030904,442.494783 C89.1188434,442.699166 87.3730335,442.565657 85.9399964,442.180763 L85.805,442.142 L86.1807213,441.304373 L87.5085019,438.446507 L87.7531646,437.902381 C89.1546307,434.750697 91.6826261,433.61397 93.776559,434.545138 Z" id="Path" fill="#978D73" fill-rule="nonzero"></path>
                    <path d="M410.408,519.321 C410.408,477.841 376.788,444.221 335.315,444.221 L238.855,444.221 C238.217,444.221 237.7,444.741 237.7,445.381 L237.7,514.611 C237.7,520.281 242.296,524.881 247.966,524.881 L404.846,524.881 C407.918,524.881 410.408,522.391 410.408,519.321 Z" id="Path" fill="#D6AF85" fill-rule="nonzero"></path>
                    <g id="Clipped" transform="translate(237.000000, 443.921000)">
                        <mask id="mask-4" fill="white">
                            <use xlink:href="#path-3"></use>
                        </mask>
                        <g id="Path"></g>
                        <g id="Group" mask="url(#mask-4)" fill="#A58F75" fill-rule="nonzero">
                            <g transform="translate(-16.000000, 15.000000)">
                                <path d="M169.377,15.06 C182.326,7.75 177.248,22.25 188.883,28.41 L213.522,75.64 L17.438,75.64 C12.647,68.79 -3.016,44.59 10.765,39.7 C42.59,28.41 79.035,50.48 97.514,49.46 C115.993,48.43 168.891,56.12 165.784,39.7 C162.191,20.71 157.571,21.74 169.377,15.06 Z" id="Path"></path>
                                <ellipse id="Oval" transform="translate(39.572000, 33.400000) scale(-1, 1) rotate(-24.999981) translate(-39.572000, -33.400000) " cx="39.572" cy="33.4" rx="34.1391028" ry="20.1662017"></ellipse>
                            </g>
                        </g>
                    </g>
                    <path d="M335.657898,440.727264 C337.018582,439.706585 338.949057,439.982214 339.969736,441.342898 C340.990415,442.703582 340.714786,444.634057 339.354102,445.654736 L337.552541,446.944007 C336.423025,447.745336 335.08986,448.689633 334.452755,449.160729 L334.334882,449.248457 C333.09585,450.177825 332.04844,451.056463 331.190934,451.892654 L330.836,452.248 L355.145078,445.357892 C357.798507,444.605751 359.996913,447.439897 358.685299,449.803038 L358.600585,449.947098 L351.263,461.748 L374.531996,454.124263 C377.29439,453.21911 379.624925,456.278705 378.10291,458.683893 L378.010803,458.821895 L364.664803,477.811895 C363.686765,479.203544 361.765754,479.538841 360.374105,478.560803 C359.033999,477.618989 358.673445,475.802758 359.521918,474.426836 L359.625197,474.270105 L367.642,462.863 L345.138004,470.237737 C342.457834,471.115948 340.136026,468.241273 341.480099,465.826392 L341.563415,465.684902 L349.166,453.455 L326.026922,460.014108 C324.118692,460.555014 322.222085,459.179632 322.112171,457.229802 L322.10715,457.051 C322.10715,452.228461 325.123298,448.457939 330.638822,444.320877 L331.604219,443.616958 C333.052227,442.57611 335.251814,441.031876 335.657898,440.727264 Z" id="Path" fill="#978D73" fill-rule="nonzero"></path>
                    <path d="M343.153,415.47115 C335.36178,415.47115 329.446478,422.084454 329.296084,431.031252 L329.288048,432.459901 L329.222863,436.624408 C329.219691,436.949395 329.219117,437.230165 329.220169,437.531744 C329.225969,439.608576 329.344851,441.041818 329.653561,442.221011 C330.007742,443.57425 330.614579,444.536465 331.55124,445.193004 C332.629125,445.910233 334.038269,446.25085 335.966,446.25085 C340.046619,446.25085 344.910892,444.735629 348.697005,442.214515 C352.965901,439.384384 355.47185,435.594901 355.47185,431.381 C355.47185,426.817768 354.366375,422.859931 352.292142,420.023151 C350.123481,417.071704 346.99335,415.47115 343.153,415.47115 Z M343.153,421.63085 C345.023752,421.63085 346.314775,422.290999 347.32411,423.66465 C348.560884,425.356112 349.31215,428.045803 349.31215,431.381 C349.31215,433.285977 347.981174,435.298673 345.288186,437.084035 C342.493849,438.944734 338.813541,440.09115 335.966,440.09115 L335.601865,440.084268 L335.504,440.079 L335.488345,439.952567 C335.420404,439.374926 335.382816,438.578397 335.379838,437.512397 L335.389829,436.078237 L335.445116,432.744551 C335.450495,432.268617 335.45285,431.84351 335.45285,431.381 C335.45285,425.495614 338.851333,421.63085 343.153,421.63085 Z" id="Path" fill="#978D73" fill-rule="nonzero"></path>
                    <path d="M314.243559,428.916862 C311.633586,430.082675 309.988714,432.09947 309.400466,434.728512 C308.835415,437.252894 309.266859,440.247265 310.630016,443.305033 C311.879456,446.121607 314.706685,447.905818 318.463771,448.520447 C321.78189,449.068033 325.534594,448.616625 328.304846,447.385402 L328.575788,447.260505 C329.281895,446.923819 329.856818,446.557591 330.302105,446.148971 L330.435129,446.022616 C330.475402,445.985053 330.514599,445.94461 330.554047,445.900564 L330.611787,445.834357 C330.706929,445.726702 330.793992,445.616197 330.873002,445.502641 L330.92,445.43 L330.951676,445.387328 L331.036206,445.241329 L331.080143,445.144345 L331.185516,444.939351 C331.266396,444.775462 331.284093,444.711973 331.331285,444.54267 L331.401367,444.233038 L331.404746,444.211906 C331.482792,443.765931 331.471521,443.289115 331.389169,442.774413 C331.2591,441.95599 330.956778,441.056757 330.4223,439.815452 L329.991611,438.846489 L328.482938,435.587805 L328.399165,435.399619 C325.673763,429.270604 319.594389,426.53736 314.243559,428.916862 Z M322.647991,437.637185 L322.99552,438.404455 L324.376741,441.379537 L324.717,442.142 L324.581487,442.181514 C323.040226,442.595321 321.135544,442.718354 319.462479,442.442251 C317.581201,442.134486 316.564768,441.493034 316.258279,440.802129 C315.399625,438.876026 315.158622,437.20338 315.411478,436.073738 C315.575502,435.340669 315.925108,434.912014 316.751088,434.543067 C318.780861,433.640436 321.225291,434.687572 322.647991,437.637185 Z M328.358,440.641 L325.654,442.276 L325.774011,442.05061 L326.009,441.735 L326.053613,441.687545 C326.106712,441.633563 326.158019,441.588553 326.206875,441.550678 L326.1893,441.56266 C326.173299,441.572811 326.148653,441.587223 326.11,441.607 L326.170057,441.539311 C326.461393,441.214051 326.739439,441.085857 327.543286,440.860903 L328.358,440.641 Z" id="Path" fill="#978D73" fill-rule="nonzero"></path>
                </g>
                <g id="upper-limb" transform="translate(0.000000, 379.060767)" fill-rule="nonzero">
                    <path d="M420.710509,82.832816 C444.959335,73.5710576 472.125032,85.7204767 481.38679,109.969303 C496.858577,150.477018 511.639649,212.270535 519.534185,271.777714 C529.166593,344.384561 528.420039,408.171128 513.885458,454.945944 C506.182884,479.734169 479.843887,493.584826 455.055662,485.882252 C430.515319,478.256703 416.694887,452.365597 423.894732,427.796548 L424.119354,427.052456 C433.741462,396.086837 434.346291,344.409391 426.350627,284.139936 C419.368161,231.507735 406.26969,176.748472 393.574022,143.509097 C384.312264,119.260271 396.461683,92.0945744 420.710509,82.832816 Z" id="Path" fill="#EBBAAA"></path>
                    <path d="M50.0558071,109.96808 C59.3176886,85.7193009 86.4834465,73.5700197 110.732226,82.8319011 C134.981005,92.0937826 147.130286,119.259541 137.868405,143.50832 C121.59909,186.103447 109.717542,239.412314 110.943984,279.158882 C111.594355,300.236106 115.802299,315.478021 122.336947,324.049514 C128.161537,331.689623 137.486819,335.8982 155.669406,335.8982 C181.626789,335.8982 202.669406,356.940817 202.669406,382.8982 C202.669406,408.855583 181.626789,429.8982 155.669406,429.8982 C109.305966,429.8982 71.9936643,413.058852 47.5831305,381.039574 C27.4709895,354.658494 18.191786,321.047582 16.9887025,282.058018 C16.066725,252.178544 19.9520837,219.520958 27.522974,185.552691 C33.4991435,158.739448 41.6104951,132.078977 50.0558071,109.96808 Z" id="Path" fill="#EBBAAA"></path>
                    <path d="M63.217706,81.6802 C87.609106,48.2402 154.809406,54.9282 196.124406,36.2972 L350.436406,36.2972 C395.236406,58.7502 437.861406,56.2842 473.387406,81.6802 C522.170406,116.5542 518.685406,155.2492 530.134406,219.2632 C530.134406,219.2632 510.721406,234.0722 473.387406,246.0152 C451.048406,253.1612 431.738406,256.0312 419.831406,257.1842 C420.545406,268.7372 421.120406,280.1972 421.120406,287.0982 L421.120406,384.5522 L421.120406,486.3062 C388.599406,491.7202 312.903406,495.3822 280.249406,497.2932 C247.595406,499.2042 152.616406,493.3122 110.305406,486.3062 C106.820406,453.8212 110.305406,392.5912 110.305406,372.0492 C110.305406,351.5072 109.349406,311.4622 109.349406,283.7542 C109.349406,275.4542 109.251406,266.8832 109.160406,257.0432 C70.689206,252.5852 2.33058017e-12,234.0722 2.33058017e-12,234.0722 C2.33058017e-12,234.0722 14.557406,187.8712 29.368906,146.6502 C39.324706,118.9422 46.375506,104.7712 63.217706,81.6802 Z" id="Path" fill="#454B5E"></path>
                    <path d="M109.370406,257.4252 L109.370406,245.4852 C95.519706,244.0522 72.117406,240.2322 58.267006,236.4112 C45.609406,232.9192 19.103906,225.9042 4.298386,220.1722 L9.09494702e-13,234.5002 C6.686376,236.8882 23.975406,240.6142 37.730306,244.0522 C51.485106,247.4912 91.221306,254.0822 109.370406,257.4252 Z" id="Path" fill="#727889"></path>
                    <path d="M419.331406,245.9632 L419.809406,257.9032 C433.500406,255.9922 465.041406,249.4772 483.329406,243.0972 C503.866406,235.9332 522.970406,225.9032 530.134406,218.7402 L527.746406,205.3672 C516.761406,214.9192 496.702406,224.9482 478.553406,231.1572 C464.787406,235.8662 434.933406,243.2562 419.331406,245.9632 Z" id="Path" fill="#727889"></path>
                    <ellipse id="Oval" fill="#727889" cx="273.186406" cy="73.5502" rx="85.0125" ry="73.5502"></ellipse>
                    <rect id="Rectangle" fill="#EBBAAA" x="211.098406" y="14.3282" width="124.176" height="109.848" rx="54.9238"></rect>
                    <rect id="Rectangle" fill="#FFFFFF" opacity="0.5" x="160.464406" y="300.7752" width="74.1614" height="38.0831"></rect>
                    <path d="M230.050406,333.8512 C230.050406,333.8512 212.800406,327.0542 197.692406,333.8512 C182.584406,340.6492 165.335406,333.8512 165.335406,333.8512 L163.084406,304.0182 L232.352406,304.0182 L230.050406,333.8512 Z M151.675406,289.1012 L161.907406,425.0672 C162.572406,432.5252 166.869406,438.2682 172.139406,438.2682 L223.297406,438.2682 C228.413406,438.2682 232.863406,432.5252 233.528406,425.0672 L243.760406,289.1012 L151.675406,289.1012 Z" id="Shape" fill="#E4EBED" opacity="0.9"></path>
                    <path d="M58.4238795,260.803393 C83.9884818,256.304853 108.359473,273.382271 112.858013,298.946874 C115.275218,312.68353 119.582161,321.890226 125.091585,327.143812 C130.822473,332.608577 139.994641,335.8992 155.669406,335.8992 C181.626789,335.8992 202.669406,356.941817 202.669406,382.8992 C202.669406,408.856583 181.626789,429.8992 155.669406,429.8992 C116.93896,429.8992 84.3957211,418.223931 60.2218269,395.172588 C38.7171199,374.666485 25.9268287,347.325436 20.280399,315.237526 C15.7818594,289.672924 32.8592773,265.301933 58.4238795,260.803393 Z" id="Path" fill="#EBBAAA"></path>
                </g>
                <g id="head" transform="translate(96.326306, 0.000000)">
                    <path d="M291.5881,328.148967 C322.8531,328.148967 348.1991,302.802967 348.1991,271.537967 C348.1991,240.271967 322.8531,214.926967 291.5881,214.926967 C260.3221,214.926967 234.9761,240.271967 234.9761,271.537967 C234.9761,302.802967 260.3221,328.148967 291.5881,328.148967 Z" id="Path" fill="#EBBAAA" fill-rule="nonzero"></path>
                    <path d="M56.6111,331.014967 C25.3461,331.014967 -4.76063633e-13,305.669967 -4.76063633e-13,274.403967 C-4.76063633e-13,243.138967 25.3461,217.792967 56.6111,217.792967 C87.8771,217.792967 113.2221,243.138967 113.2221,274.403967 C113.2221,305.669967 87.8771,331.014967 56.6111,331.014967 Z" id="Path" fill="#EBBAAA" fill-rule="nonzero"></path>
                    <path d="M29.6071,157.895967 C29.6071,78.0822674 94.3081,13.3808674 174.1221,13.3808674 C255.5631,13.3808674 320.9181,80.6429674 318.5771,162.049967 L316.6441,229.254967 L313.3301,329.109967 C311.1831,393.798967 258.1211,445.129967 193.3961,445.129967 L176.2301,445.129967 L158.0911,445.129967 C95.7141,445.129967 43.7381,397.340967 38.5121,335.182967 L29.6071,229.254967 L29.6071,157.895967 Z" id="Path" fill="#F4D4C9" fill-rule="nonzero"></path>
                    <path d="M231.6311,22.4545674 C232.31552,23.0114879 232.982459,23.5781179 233.631875,24.1539115 C273.269292,23.3142386 340.219144,57.4457648 343.8661,154.271967 C335.664917,212.590979 328.14603,230.036856 321.674243,227.750374 L320.2651,258.681967 C320.1841,260.385967 318.6231,261.732967 316.7161,261.732967 C314.955314,261.732967 313.469763,260.574378 313.209883,259.021135 L313.1861,258.846967 L304.41826,175.709482 L303.9391,173.082967 L303.9391,173.082967 C300.941184,120.695067 263.618516,79.9263306 233.489223,96.6475836 C232.668636,97.2966935 231.815716,97.9277334 230.933932,98.5418203 C230.564507,105.262753 225.867078,112.762439 212.8881,120.796967 C170.80494,146.849287 150.655395,141.967123 123.189101,141.761416 L121.4981,141.754967 C121.4981,141.754967 158.3061,135.269967 178.8751,120.796967 C179.641812,120.257501 180.398623,119.683993 181.145208,119.079731 L179.725308,119.557414 C161.905372,125.476576 141.522234,129.450153 130.537245,131.450266 L128.4691,131.823967 C114.938796,134.252986 77.4694019,143.233057 56.3304695,136.799525 C50.5854809,143.903416 47.0685549,153.019322 46.2181,164.712967 L46.0661591,166.760517 C44.7337089,184.363074 42.996596,198.255326 40.9861178,208.781338 L35.4521,263.499967 C35.2791,265.209967 33.7491,266.508967 31.9231,266.508967 C30.0151,266.508967 28.4551,265.104967 28.3731,263.327967 L27.1137714,234.526138 C23.419069,232.704814 19.6875581,225.340835 16.3061,213.447967 C14.7181,207.862967 16.5331,187.387967 16.3061,181.596967 C16.3061,28.5004674 170.4981,-38.6784326 231.6311,22.4545674 Z" id="Path" fill="#272727" fill-rule="nonzero"></path>
                    <path d="M109.1101,181.118967 C119.474177,181.118967 129.515264,182.452048 138.901975,184.674922 C141.925832,185.391004 144.695571,186.157734 147.178273,186.935141 L147.848232,187.147395 C149.506463,187.678943 150.727778,188.114437 151.468427,188.402846 C157.644142,190.807674 160.70105,197.763579 158.296221,203.939294 C155.92839,210.019998 149.148439,213.07712 143.045341,210.874211 L142.392347,210.630864 C141.993173,210.487448 141.363891,210.271724 140.522187,210.001915 C138.445663,209.336282 136.045581,208.66227 133.371475,208.029013 C125.692873,206.210637 117.470148,205.118967 109.109539,205.118967 C100.815296,205.11858 93.1345041,206.190952 86.2928112,207.966994 C83.945281,208.576391 81.8893989,209.220792 80.1547492,209.851769 L79.6118704,210.052912 C79.3556823,210.149682 79.1224734,210.240579 78.9127045,210.324834 L78.4681935,210.507338 C72.435935,213.252244 65.3206366,210.587319 62.5757298,204.555061 C59.8737121,198.617056 62.4137899,191.629593 68.2477185,188.794445 L68.7648582,188.556828 C68.9406497,188.47959 69.152123,188.389102 69.3986826,188.286562 L69.5901717,188.207416 C70.2778419,187.924888 71.0657341,187.619438 71.9506777,187.297541 C74.3822799,186.413049 77.1613134,185.541981 80.2625,184.736941 C88.9914582,182.470983 98.6786632,181.11848 109.1101,181.118967 Z" id="Path" fill="#393939" fill-rule="nonzero"></path>
                    <path d="M238.617539,181.117967 C249.049567,181.11748 258.736626,182.469991 267.465313,184.73597 C270.566421,185.541022 273.345368,186.412105 275.776882,187.296615 L276.629333,187.612799 C277.17591,187.819613 277.678886,188.018159 278.137319,188.206518 L278.824103,188.495553 C278.9693,188.558398 279.09451,188.613959 279.199483,188.661729 C285.231669,191.406796 287.896405,198.522165 285.151338,204.554351 C282.449163,210.492283 275.512191,213.167177 269.542248,210.630926 L269.016229,210.405745 L268.363712,210.146608 C268.122921,210.053843 267.858998,209.954949 267.572403,209.850695 C265.8379,209.219736 263.782165,208.57535 261.434775,207.965964 C254.593436,206.189943 246.912874,205.11758 238.6181,205.117967 C230.257589,205.117967 222.03457,206.209643 214.355802,208.028024 C211.924753,208.603712 209.720186,209.213082 207.779315,209.819217 L207.205001,210.000923 C206.363295,210.270731 205.734016,210.486453 205.334846,210.629867 L204.967427,210.766089 C198.791712,213.170917 191.835807,210.114009 189.430979,203.938294 C187.02615,197.762579 190.083058,190.806674 196.258773,188.401846 L196.953013,188.140706 C197.681877,187.874338 198.66296,187.53619 199.879011,187.146386 C202.53021,186.296548 205.526584,185.455091 208.825398,184.673911 C218.212255,182.451042 228.253611,181.117967 238.617539,181.117967 Z" id="Path" fill="#393939" fill-rule="nonzero"></path>
                    <path d="M166.931181,259.740349 L182.877019,265.633586 C178.386855,277.78301 176.417623,290.81583 177.555936,300.35227 C178.510381,308.348315 180.913158,311.60322 184.445164,311.713081 L184.6321,311.715967 L184.6321,328.715967 C170.705706,328.715967 162.549145,318.061773 160.675764,302.367165 C159.220357,290.174207 161.478205,274.83444 166.641355,260.533737 L166.931181,259.740349 Z" id="Path" fill="#EBBAAA" fill-rule="nonzero"></path>
                    <path d="M237.1041,238.326967 C243.124627,238.326967 249.078863,239.476632 254.758275,241.38352 C256.732042,242.046222 258.539211,242.758205 260.151253,243.476333 L260.915248,243.823726 C261.541765,244.11484 262.026593,244.356781 262.358126,244.533316 C265.770501,246.350348 267.063782,250.589619 265.246751,254.001994 C263.46922,257.340186 259.37362,258.650419 256.001759,257.004721 L255.436016,256.718905 C255.20081,256.604828 254.871029,256.450437 254.45429,256.264789 C253.233168,255.720808 251.83683,255.170682 250.302175,254.655415 C245.957524,253.196678 241.453198,252.326967 237.1041,252.326967 C232.754526,252.326967 228.249906,253.196688 223.905087,254.655436 C222.562225,255.106294 221.325276,255.583839 220.218959,256.060604 L219.752892,256.264804 C219.127785,256.543271 218.698337,256.751413 218.490253,256.858651 L218.429126,256.890618 C215.016752,258.70765 210.77748,257.414368 208.960449,254.001994 C207.143418,250.589619 208.436699,246.350348 211.849074,244.533316 L212.126291,244.388902 C212.584688,244.154645 213.23343,243.842747 214.055995,243.476318 C215.668067,242.758188 217.475282,242.046202 219.449113,241.383499 C225.128669,239.476622 231.083174,238.326967 237.1041,238.326967 Z" id="Path" fill="#393939" fill-rule="nonzero"></path>
                    <path d="M115.7941,238.326967 C121.814627,238.326967 127.768863,239.476632 133.448275,241.38352 C135.422042,242.046222 137.229211,242.758205 138.841253,243.476333 L139.605248,243.823726 C140.231765,244.11484 140.716593,244.356781 141.048126,244.533316 C144.460501,246.350348 145.753782,250.589619 143.936751,254.001994 C142.15922,257.340186 138.06362,258.650419 134.691759,257.004721 L134.126016,256.718905 C133.89081,256.604828 133.561029,256.450437 133.14429,256.264789 C131.923168,255.720808 130.52683,255.170682 128.992175,254.655415 C124.647524,253.196678 120.143198,252.326967 115.7941,252.326967 C111.444966,252.326967 106.940403,253.196693 102.5954,254.655456 C101.06061,255.170737 99.6641308,255.720878 98.4428692,256.264877 L97.8838552,256.518787 C97.6652389,256.620211 97.486966,256.705731 97.3512939,256.772661 L97.1188728,256.890753 C93.7064236,258.707645 89.4672055,257.414189 87.6503141,254.00174 C85.8334228,250.589291 87.126878,246.350073 90.5393272,244.533182 L90.8165482,244.388779 C91.2749527,244.15454 91.923712,243.842659 92.7462995,243.476245 C94.3584364,242.758135 96.1656993,242.046167 98.1395501,241.383478 C103.819234,239.476617 109.773609,238.326967 115.7941,238.326967 Z" id="Path" fill="#393939" fill-rule="nonzero"></path>
                    <path d="M132.8961,349.618967 L132.8961,365.167967 C132.8961,389.103967 152.3001,408.499967 176.2281,408.499967 C200.1641,408.499967 219.5611,389.103967 219.5611,365.167967 L219.5611,349.618967 L132.8961,349.618967 Z" id="Path" fill="#393939"></path>
                    <g id="Clipped" transform="translate(132.740100, 348.958967)">
                        <mask id="mask-6" fill="white">
                            <use xlink:href="#path-5"></use>
                        </mask>
                        <g id="Path"></g>
                        <path d="M43.487,73.436 C57.92,73.436 69.62,67.068 69.62,59.212 C69.62,51.357 57.92,44.988 43.487,44.988 C29.054,44.988 17.354,51.357 17.354,59.212 C17.354,67.068 29.054,73.436 43.487,73.436 Z" id="Path" fill="#FF6C6C" fill-rule="nonzero" mask="url(#mask-6)"></path>
                    </g>
                    <rect id="Rectangle" fill="#FFFFFF" fill-rule="nonzero" x="132.8961" y="349.618967" width="86.6673" height="17.8628"></rect>
                    <g id="Group" opacity="0.7" transform="translate(125.740100, 427.958967)" fill="#C0C0C0" fill-rule="nonzero">
                        <path d="M29.6288269,2.00906482 C31.1414991,0.399059183 33.6729296,0.320154792 35.2829352,1.83282693 C36.839274,3.29507665 36.9648837,5.70929947 35.6051373,7.32293506 L35.4591731,7.48693518 L31.8691731,11.3079352 C30.3565009,12.9179408 27.8250704,12.9968452 26.2150648,11.4841731 C24.658726,10.0219233 24.5331163,7.60770053 25.8928627,5.99406494 L26.0388269,5.83006482 L29.6288269,2.00906482 Z" id="Path"></path>
                        <path d="M1.43582693,-1.81093518 C2.94849906,-3.42094082 5.47992955,-3.49984521 7.08993518,-1.98717307 C8.64627396,-0.524923346 8.77188369,1.88929947 7.41213727,3.50293506 L7.26617307,3.66693518 L3.67617307,7.48793518 C2.16350094,9.09794082 -0.367929552,9.17684521 -1.97793518,7.66417307 C-3.53427396,6.20192335 -3.65988369,3.78770053 -2.30013727,2.17406494 L-2.15417307,2.01006482 L1.43582693,-1.81093518 Z" id="Path"></path>
                        <path d="M15.5318269,2.00906482 C17.0444991,0.399059183 19.5759296,0.320154792 21.1859352,1.83282693 C22.742274,3.29507665 22.8678837,5.70929947 21.5081373,7.32293506 L21.3621731,7.48693518 L17.7721731,11.3079352 C16.2595009,12.9179408 13.7280704,12.9968452 12.1180648,11.4841731 C10.561726,10.0219233 10.4361163,7.60770053 11.7958627,5.99406494 L11.9418269,5.83006482 L15.5318269,2.00906482 Z" id="Path"></path>
                        <path d="M90.4930648,-1.98717307 C92.0494036,-3.4494228 94.4667627,-3.42443269 95.9925819,-1.96682984 L96.1471731,-1.81093518 L99.7371731,2.01006482 C101.249845,3.62007045 101.170941,6.15150094 99.5609352,7.66417307 C98.0045964,9.1264228 95.5872373,9.10143269 94.0614181,7.64382984 L93.9068269,7.48793518 L90.3168269,3.66693518 C88.8041548,2.05692955 88.8830592,-0.474500942 90.4930648,-1.98717307 Z" id="Path"></path>
                        <path d="M76.3974701,1.83244618 C77.9540122,0.37041283 80.3713678,0.395739012 81.8969843,1.85355398 L82.0515538,2.00947012 L85.6405538,5.83047012 C87.1530021,7.44068603 87.0737458,9.97210553 85.4635299,11.4845538 C83.9069878,12.9465872 81.4896322,12.921261 79.9640157,11.463446 L79.8094462,11.3075299 L76.2204462,7.48652988 C74.7079979,5.87631397 74.7872542,3.34489447 76.3974701,1.83244618 Z" id="Path"></path>
                        <path d="M62.3004701,1.83244618 C63.8570122,0.37041283 66.2743678,0.395739012 67.7999843,1.85355398 L67.9545538,2.00947012 L71.5435538,5.83047012 C73.0560021,7.44068603 72.9767458,9.97210553 71.3665299,11.4845538 C69.8099878,12.9465872 67.3926322,12.921261 65.8670157,11.463446 L65.7124462,11.3075299 L62.1234462,7.48652988 C60.6109979,5.87631397 60.6902542,3.34489447 62.3004701,1.83244618 Z" id="Path"></path>
                    </g>
                </g>
            </g>
        </g>
    </g>
</svg>