<?xml version="1.0" encoding="UTF-8"?>
<svg width="510px" height="1430px" viewBox="0 0 510 1430" version="1.1" xmlns="http://www.w3.org/2000/svg" xmlns:xlink="http://www.w3.org/1999/xlink">
    <!-- Generator: Sketch 55.2 (78181) - https://sketchapp.com -->
    <title>gee_me_026</title>
    <desc>Created with Sketch.</desc>
    <g id="GEE!-ME" stroke="none" stroke-width="1" fill="none" fill-rule="evenodd">
        <g id="gee_me_026" transform="translate(-345.000000, -85.000000)" fill-rule="nonzero">
            <g transform="translate(344.000000, 85.000000)">
                <g id="lower-limb" transform="translate(28.000000, 887.000000)">
                    <path d="M303,227 C315.028762,227 324.802775,236.653726 324.997053,248.63619 L325,249 L325,477 C325,489.150264 315.150264,499 303,499 C290.971238,499 281.197225,489.346274 281.002947,477.36381 L281,477 L281,249 C281,236.849736 290.849736,227 303,227 Z" id="09" fill="#EBBAAA"></path>
                    <path d="M155,227 C167.028762,227 176.802775,236.653726 176.997053,248.63619 L177,249 L177,494.5 C177,506.650264 167.150264,516.5 155,516.5 C142.971238,516.5 133.197225,506.846274 133.002947,494.86381 L133,494.5 L133,249 C133,236.849736 142.849736,227 155,227 Z" id="08" fill="#EBBAAA"></path>
                    <path d="M276,484.82 C276,484.82 276.499,451.75 278.992,454.25 C281.486,456.76 292.949,463.27 308.418,463.27 C323.879,463.27 333.355,457.76 336.846,454.25 C340.337,450.75 343.583,484.82 343.583,484.82 L276,484.82 Z" id="07" fill="#DCE1E9"></path>
                    <path d="M184.583,487.82 C184.583,487.82 184.084,454.75 181.591,457.25 C179.097,459.76 167.634,466.27 152.165,466.27 C136.704,466.27 127.228,460.76 123.737,457.25 C120.246,453.75 117,487.82 117,487.82 L184.583,487.82 Z" id="06" fill="#DCE1E9"></path>
                    <path d="M228.999,123 C292.511,123 343.999,99.495 343.999,70.5 C343.999,41.505 292.511,18 228.999,18 C165.486,18 113.999,41.505 113.999,70.5 C113.999,99.495 165.486,123 228.999,123 Z" id="05" fill="#E2D3BD"></path>
                    <polygon id="04" fill="#E2D3BD" points="227.999 -1.13686838e-13 377.999 -1.13686838e-13 357.999 443 263.827 443"></polygon>
                    <polygon id="03" fill="#E2D3BD" points="229.999 -1.13686838e-13 79.999 -1.13686838e-13 99.999 443 194.17 443"></polygon>
                    <g id="02" transform="translate(260.000000, 460.000000)">
                        <path d="M188.416,75.29 C188.615,52.49 185.489,48.55 165.539,39.23 C145.589,29.91 126.797,16.95 92.282,1.59 C92.282,1.59 87.739,0.74 80.344,4.71 C74.034,8.1 65.928,16.42 53.715,16.32 C40.452,16.2 28.633,13.41 21.29,9.58 C18.117,0.94 11.08,0.88 11.08,0.88 C11.08,0.88 1.171,19.62 1.007,38.46 C0.843,57.29 0.859498725,73.66 0.859498725,73.66 L188.416,75.29 Z" id="Rectangle-82" fill="#161616"></path>
                        <path d="M50.002,27.04 C55.7267962,27.04 60.3562089,28.5634912 65.8729148,31.7787251 L66.409626,32.0951636 C67.9068276,32.9878312 72.9936574,36.2548013 73.6447941,36.6585723 C81.5217913,41.5431117 88.1635578,44.0737668 97.8198751,44.9443738 C108.366533,45.9031609 114.801957,44.1747635 121.0968,40.0138307 L121.452988,39.77571 C121.737085,39.583663 122.024462,39.3851854 122.32994,39.1703511 L123.54209,38.3030378 L124.449904,37.6447044 L128.554096,43.3152956 L127.048314,44.4047488 L126.349114,44.901531 C126.012836,45.1379706 125.692943,45.3588713 125.373251,45.5749805 C117.666418,50.7847416 109.59402,53.0436166 97.1887175,51.9158609 C86.5762557,50.9590497 79.0339485,48.1538641 70.5366666,42.9650994 L69.5121821,42.3281063 C68.103421,41.4348777 64.3088226,39.0045202 62.9598204,38.1886949 L62.8248627,38.1076067 C58.0622648,35.2680312 54.4748674,34.04 50.002,34.04 C44.7124664,34.04 40.2789742,35.8292723 35.0113985,39.5011722 L34.3270314,39.9869507 C33.2469007,40.7753196 29.4587363,43.6152005 28.369447,44.346779 C25.9282033,45.9863445 23.9442534,46.8731966 21.8223885,46.9539408 L21.503,46.96 L21.503,39.96 C21.9778769,39.96 22.8584321,39.590114 24.2211733,38.6985097 L24.466678,38.535721 C25.4486568,37.8762135 29.6044359,34.7544017 30.4544319,34.1490688 C37.0189985,29.4740495 42.8320815,27.04 50.002,27.04 Z" id="Vector-909" fill="#FFFFFF"></path>
                        <path d="M95.910097,-0.645269642 C96.5205205,-2.00991171 98.1216276,-2.6213266 99.4862696,-2.01090303 C100.850912,-1.40047947 101.462327,0.200627578 100.851903,1.56526964 C100.264796,2.87778679 99.8248943,4.37502126 99.516453,6.0474176 C99.2462705,7.51237107 99.0925354,8.86089435 99.0095558,10.4808225 L98.993,10.816 L113.535084,4.4409688 C115.575881,3.54619342 117.737482,5.35804822 117.26822,7.49122304 L117.230189,7.64410694 L114.241,18.411 L126.247706,14.5623614 C127.94001,14.0198722 129.669238,15.2259155 129.775663,16.9696169 L129.78084,17.14 L129.78,28.21 L138.783497,23.3662698 C140.536757,22.4229751 142.651691,23.6313972 142.767835,25.5811001 L142.77284,25.75 L142.77284,39.2 C142.77284,40.6949465 141.560946,41.90684 140.066,41.90684 C138.626422,41.90684 137.449318,40.7830539 137.3641,39.3648931 L137.35916,39.2 L137.359,30.279 L128.356503,35.1237302 C126.603243,36.0670249 124.488309,34.8586028 124.372165,32.9088999 L124.36716,32.74 L124.367,20.85 L111.117294,25.0976386 C109.119268,25.7381307 107.207326,23.9657566 107.64346,21.9550857 L107.682811,21.7958931 L110.488,11.688 L97.3029163,17.4690312 C95.5669191,18.2301688 93.6269229,17.0182284 93.5143072,15.1606157 L93.50916,14.99 L93.5116858,13.9696622 C93.5316664,10.1893706 93.677161,7.86007364 94.1925612,5.06552818 C94.5746676,2.99371287 95.1342059,1.08928588 95.910097,-0.645269642 Z" id="Vector-293" fill="#FFFFFF"></path>
                        <path d="M180.867,40.97 C174.746,38.77 168.264,37.1 155.837,34.3 L161.119,49.41 L160.968,66.63 L196.341,66.940039 C197.784,66.95 200.364,65.04 199.132,57.28 C197.592,47.58 189.564,44.11 180.867,40.97 Z" id="Vector-415" fill="#393A40"></path>
                        <path d="M25.003,42.47 C20.532,37.76 6.502,32.53 1.502,34.02 L0.503,51.91 L0.504,66.93 C29.269,66.93 31.504,66.93 31.504,66.93 C29.964,57.23 33.503,51.41 25.003,42.47 Z" id="Vector-910" fill="#393A40"></path>
                        <path d="M0.0824423925,75.83 L0.294,62.54 L78.097,65.76 L159.9,65 L199.446,62.12 L200.412,70.79 C200.959,75.68 197.314,80.05 192.397,80.39 L159.702,82.63 L4.347,80.23 C1.954,80.19 0.045,78.22 0.0824423925,75.83 Z" id="Vector-414" fill="#D3D5E0"></path>
                        <polygon id="Vector-901" fill="#000000" points="2.03696221 65.8205434 77.504 68.31 159.938011 68.3121797 197.438011 65.8321797 197.569989 67.8278203 160.004 70.31 77.4710378 70.3094566 1.97103779 67.8194566"></polygon>
                    </g>
                    <g id="01" transform="translate(0.000000, 460.000000)">
                        <path d="M12.6854,75.29 C12.4863,52.49 15.6129,48.55 35.5629,39.23 C55.513,29.91 74.305,16.95 108.82,1.59 C108.82,1.59 113.363,0.74 120.757,4.71 C127.068,8.1 135.173,16.42 147.387,16.32 C160.649,16.2 172.468,13.41 179.811,9.58 C182.984,0.94 190.022,0.88 190.022,0.88 C190.022,0.88 199.93,19.62 200.095,38.46 C200.259,57.29 200.241583,73.66 200.241583,73.66 L12.6854,75.29 Z" id="Rectangle-82_2" fill="#161616"></path>
                        <path d="M151.1,27.04 C158.086074,27.04 163.784003,29.3508268 170.144048,33.7938753 L170.877947,34.3154861 C172.075054,35.187812 175.723485,37.9233212 176.635322,38.535721 C178.055056,39.4892294 178.988103,39.9120881 179.510971,39.9561294 L179.599,39.96 L179.599,46.96 C177.461856,46.96 175.492387,46.1512225 173.095384,44.5870618 L172.732553,44.346779 C171.565457,43.5629449 167.300163,40.3588657 166.586932,39.8509312 C161.099283,35.9428492 156.554831,34.04 151.1,34.04 C146.781369,34.04 143.288195,35.1847996 138.765712,37.8195904 L138.277137,38.1076067 C136.900384,38.92846 131.886944,42.1482963 131.146221,42.6076202 C122.409298,48.0254009 114.766937,50.937304 103.915875,51.9156262 C91.5080837,53.0436073 83.4360501,50.7848725 75.7283349,45.5750789 L75.083863,45.1333209 C74.8657483,44.9818141 74.642742,44.8249901 74.4100415,44.65966 L72.5471487,43.3154729 L76.6508513,37.6445271 L78.1316283,38.7157945 L78.7712482,39.1702505 C78.9749342,39.313479 79.1705654,39.4494323 79.3625393,39.5810557 L79.6483068,39.7756117 C86.05893,44.1086757 92.5365127,45.9212476 103.284718,44.9441391 C112.708592,44.0944899 119.262227,41.6626779 126.896607,37.0034741 L127.858132,36.4057061 C129.25556,35.5189648 133.371314,32.8828115 134.692374,32.0951636 C140.448259,28.6633663 145.190533,27.04 151.1,27.04 Z" id="Vector-909_2" fill="#FFFFFF"></path>
                        <path d="M101.614305,-2.01071273 C102.978842,-2.62137121 104.580054,-2.01023195 105.190713,-0.645694992 C105.966989,1.08892041 106.526807,2.99341908 106.909103,5.06530888 C107.469597,8.10294995 107.59284,10.5908768 107.59284,14.99 C107.59284,16.8855029 105.703944,18.1755796 103.957456,17.5328448 L103.799133,17.4690529 L90.612,11.687 L93.4181894,21.7958931 C93.9794778,23.8176199 92.1331195,25.6582629 90.1411807,25.1432193 L89.9836611,25.0976243 L76.734,20.85 L76.73484,32.74 C76.73484,34.7308806 74.6686632,36.0208102 72.8966684,35.1993755 L72.7455586,35.1237632 L63.742,30.28 L63.74204,39.2 C63.74204,40.6395781 62.6182539,41.8166818 61.2000931,41.9019 L61.0352,41.90684 C59.5956219,41.90684 58.4185182,40.7830539 58.3333,39.3648931 L58.32836,39.2 L58.32836,25.75 C58.32836,23.7591194 60.3945368,22.4691898 62.1665316,23.2906245 L62.3176414,23.3662368 L71.321,28.21 L71.32116,17.14 C71.32116,15.3628519 72.9975375,14.0843178 74.690507,14.5152913 L74.8543389,14.5623757 L86.859,18.411 L83.8708106,7.64410694 C83.2747151,5.49700712 85.3749443,3.61441663 87.4199276,4.381609 L87.5658668,4.44094708 L102.108,10.816 L102.092407,10.4809121 C102.015321,8.9767284 101.877201,7.70656419 101.641447,6.35990391 L101.585293,6.0476369 C101.276722,4.37531505 100.836639,2.87815226 100.249287,1.56569499 C99.6386288,0.201158033 100.249768,-1.40005424 101.614305,-2.01071273 Z" id="Vector-293_2" fill="#FFFFFF"></path>
                        <path d="M20.2346,40.97 C26.3554,38.77 32.8375,37.1 45.265,34.3 L39.983,49.41 L40.1333,66.63 L4.7609,66.940039 C3.3173,66.95 0.738,65.04 1.9696,57.28 C3.5092,47.58 11.5375,44.11 20.2346,40.97 Z" id="Vector-415_2" fill="#393A40"></path>
                        <path d="M176.099,42.47 C180.57,37.76 194.6,32.53 199.599,34.02 L200.598,51.91 L200.598,66.93 C171.832,66.93 169.598,66.93 169.598,66.93 C171.137,57.23 167.599,51.41 176.099,42.47 Z" id="Vector-910_2" fill="#393A40"></path>
                        <path d="M201.018558,75.83 L200.807,62.54 L123.004,65.76 L41.2018,65 L1.6553,62.12 L0.6891,70.79 C0.1429,75.68 3.7875,80.05 8.7042,80.39 L41.3993,82.63 L196.755,80.23 C199.147,80.19 201.056,78.22 201.018558,75.83 Z" id="Vector-414_2" fill="#D3D5E0"></path>
                        <polygon id="Vector-901_2" fill="#000000" points="199.065038 65.8205434 199.130962 67.8194566 123.598 70.31 41.0316106 70.3078203 3.53171064 67.8278203 3.66368936 65.8321797 41.0976 68.31 123.565038 68.3105434"></polygon>
                    </g>
                </g>
                <g id="upper-limb" transform="translate(0.595130, 395.000000)">
                    <path d="M364.600986,172.773797 C382.399027,162.733876 404.966153,169.023075 415.006073,186.821116 C437.977129,227.542533 458.521204,287.091616 471.446089,346.939455 C484.911535,409.290326 488.398221,461.818008 477.552227,491.644493 C470.568866,510.848736 449.339619,520.755718 430.135377,513.772357 C411.123177,506.858829 401.223222,485.982909 407.803072,466.932225 L408.007513,466.355507 C408.209592,465.799789 408.477793,464.774475 408.745072,463.338664 L408.802308,463.024728 C409.179729,460.911112 409.481783,458.32462 409.682807,455.321654 C410.127068,448.685136 410.049913,440.479684 409.423614,431.044346 C408.151968,411.886727 404.690628,388.654103 399.41425,363.959875 L399.113651,362.560545 C387.637378,309.42041 369.427332,256.636745 350.553667,223.178884 C340.513746,205.380843 346.802946,182.813717 364.600986,172.773797 Z" id="13" fill="#EBBAAA"></path>
                    <path d="M103.363738,186.820991 C113.403727,169.022989 135.970878,162.733878 153.768879,172.773867 C171.566881,182.813857 177.855992,205.381008 167.816003,223.179009 C148.942201,256.636809 130.732062,309.420409 119.255732,362.560577 L118.658409,365.356113 C113.548899,389.529364 110.19339,412.248197 108.945732,431.044356 C108.31943,440.47969 108.242274,448.68514 108.686534,455.321658 C108.873199,458.110125 109.146977,460.53949 109.48732,462.564594 L109.567033,463.024729 C109.833838,464.518881 110.106354,465.606757 110.317537,466.229258 L110.361827,466.355507 C117.345188,485.559749 107.438206,506.788996 88.2339635,513.772357 C69.0297212,520.755718 47.8004743,510.848736 40.8171135,491.644493 C29.9711101,461.817984 33.4578155,409.290238 46.9233083,346.939423 C59.8482708,287.091487 80.3924735,227.542407 103.363738,186.820991 Z" id="12" fill="#EBBAAA"></path>
                    <path d="M453.96587,155.162 C443.55587,123.122 409.13587,105.592 377.09587,116.002 L329.57587,131.442 C297.53587,141.852 279.99587,176.272 290.40587,208.312 L342.85487,364.14 L506.40487,311 L453.96587,155.162 Z" id="11" fill="#BFD5DF"></path>
                    <path d="M56.8435701,155.162 C67.2535701,123.122 101.67387,105.592 133.71387,116.002 L181.23387,131.442 C213.27387,141.852 230.81387,176.272 220.40387,208.312 L167.95487,364.14 L4.40487013,311 L56.8435701,155.162 Z" id="10" fill="#BFD5DF"></path>
                    <rect id="09" fill="#3E5C78" transform="translate(450.499721, 320.800344) rotate(-15.000000) translate(-450.499721, -320.800344) " x="391.999721" y="310.800344" width="117" height="20"></rect>
                    <rect id="08" fill="#3E5C78" transform="translate(59.500009, 320.800348) scale(-1, 1) rotate(-14.999995) translate(-59.500009, -320.800348) " x="1" y="310.800347" width="117.000018" height="20.0000031"></rect>
                    <path d="M427.30787,137.68 C427.94587,118.666 415.10287,101.833 396.59487,97.426 L320.48887,79.306 C309.93987,76.794 299.06987,81.992 294.40187,91.78 L271.40487,140 L258.40487,210 L258.40487,515 L284.40487,536 L417.62487,536 C423.44287,536 428.03287,531.052 427.59687,525.25 L418.40487,403 L427.30787,137.68 Z" id="07" fill="#E4EFF4"></path>
                    <path d="M89.5012701,137.68 C88.8631701,118.666 101.70587,101.833 120.21387,97.426 L196.31987,79.306 C206.86887,76.794 217.73887,81.992 222.40687,91.78 L245.40487,140 L258.40487,210 L258.40487,515 L232.40487,536 L99.1847701,536 C93.3664701,536 88.7766701,531.052 89.2128701,525.25 L98.4046701,403 L89.5012701,137.68 Z" id="06" fill="#D2E1E8"></path>
                    <polygon id="05" fill="#BFD5DF" points="295.40487 226 395.40487 226 385.40487 319.095 345.40487 341 305.40487 319.095"></polygon>
                    <rect id="04" fill="#3E5C78" x="290.40487" y="216" width="110" height="20"></rect>
                    <rect id="03" fill="#EBBAAA" x="220.40487" y="0" width="76" height="115" rx="37.911"></rect>
                    <polygon id="02" fill="#3E5C78" points="268.40487 146 296.40487 57 332.40487 78 309.40487 173"></polygon>
                    <polygon id="01" fill="#3E5C78" points="248.40487 146 220.40487 57 184.40487 78 207.40487 173"></polygon>
                </g>
                <g id="hand" transform="translate(68.999500, -0.000011)">
                    <path d="M340.0005,330.000011 C362.0915,330.000011 380.0005,312.092011 380.0005,290.000011 C380.0005,267.909011 362.0915,250.000011 340.0005,250.000011 C317.9085,250.000011 300.0005,267.909011 300.0005,290.000011 C300.0005,312.092011 317.9085,330.000011 340.0005,330.000011 Z" id="17" fill="#C99584" opacity="0.5"></path>
                    <path d="M40.0005,330.000011 C17.9086,330.000011 4.97379915e-14,312.092011 4.97379915e-14,290.000011 C4.97379915e-14,267.909011 17.9086,250.000011 40.0005,250.000011 C62.0915,250.000011 80.0005,267.909011 80.0005,290.000011 C80.0005,312.092011 62.0915,330.000011 40.0005,330.000011 Z" id="16" fill="#C99584" opacity="0.5"></path>
                    <path d="M40.0005,172.000011 C40.0005,89.1570114 107.1575,21.9998114 190.0005,21.9998114 C272.8435,21.9998114 340.0005,89.1571114 340.0005,172.000011 L340.0005,371.010011 C340.0005,394.844011 323.1775,415.364011 299.8065,420.039011 L224.2835,435.143011 C201.6525,439.669011 178.3485,439.669011 155.7175,435.143011 L80.1945,420.039011 C56.8235,415.364011 40.0005,394.844011 40.0005,371.010011 L40.0005,172.000011 Z" id="15" fill="#F4D5CC"></path>
                    <path d="M226.139778,361.338222 C229.818983,359.206004 234.530071,360.460085 236.662289,364.13929 C238.794507,367.818494 237.540427,372.529583 233.861222,374.661801 L233.512256,374.857589 C233.374862,374.932721 233.216442,375.0175 233.037137,375.11126 L232.850877,375.207991 C232.167135,375.560724 231.373766,375.944102 230.472579,376.34963 C227.980474,377.471061 225.080221,378.578182 221.786762,379.602361 C212.526222,382.482146 201.884392,384.199661 190.0005,384.199661 C178.116608,384.199661 167.474778,382.482146 158.214238,379.602361 C154.920779,378.578182 152.020526,377.471061 149.528421,376.34963 C148.777432,376.01169 148.101316,375.689132 147.501121,375.386872 L147.150123,375.207991 C146.699296,374.975415 146.361916,374.790537 146.139778,374.661801 C142.460573,372.529583 141.206493,367.818494 143.338711,364.13929 C145.427414,360.535171 149.990802,359.258201 153.634706,361.211901 L154.072087,361.454026 C154.372148,361.613098 154.890821,361.871133 155.621962,362.204422 L155.847673,362.306643 C157.782716,363.177399 160.101268,364.062466 162.787012,364.897662 C170.60991,367.330377 179.718017,368.800361 190.0005,368.800361 C200.282983,368.800361 209.39109,367.330377 217.213988,364.897662 C219.693137,364.126712 221.859411,363.313268 223.699978,362.507811 L224.153327,362.306643 C225.081616,361.888919 225.704833,361.576148 226.012367,361.409298 L226.139778,361.338222 Z" id="14" fill="#C99584"></path>
                    <path d="M306.0005,226.000011 L212.0005,226.000011 C207.029792,226.000011 203.0005,230.029303 203.0005,235.000011 L203.0005,263.000011 C203.0005,274.59772 212.402792,284.000011 224.0005,284.000011 L294.0005,284.000011 C305.598208,284.000011 315.0005,274.59772 315.0005,263.000011 L315.0005,235.000011 C315.0005,230.029303 310.971208,226.000011 306.0005,226.000011 Z M215,238 L303.0005,238 L303.0005,263.000011 C303.0005,267.970303 298.970792,272.000011 294.0005,272.000011 L224.0005,272.000011 L223.735152,271.996174 C218.887575,271.855793 215,267.881548 215,263.000011 L215,238 Z" id="13" fill="#393939"></path>
                    <rect id="12" fill="#393939" x="165.0005" y="240.000011" width="50" height="10"></rect>
                    <path d="M166.0005,226.000011 L72.0005,226.000011 C67.0297915,226.000011 63.0005,230.029303 63.0005,235.000011 L63.0005,262.000011 C63.0005,273.59772 72.4027915,283.000011 84.0005,283.000011 L154.0005,283.000011 C165.598208,283.000011 175.0005,273.59772 175.0005,262.000011 L175.0005,235.000011 C175.0005,230.029303 170.971208,226.000011 166.0005,226.000011 Z M75,238 L163.0005,238 L163.0005,262.000011 C163.0005,266.970303 158.970792,271.000011 154.0005,271.000011 L84.0005,271.000011 L83.7351518,270.996174 C78.8875753,270.855793 75,266.881548 75,262.000011 L75,238 Z" id="11" fill="#393939"></path>
                    <path d="M344.9915,156.486011 C345.2245,150.216011 340.6835,145.000011 335.0005,145.000011 C329.1035,145.000011 324.4885,150.595011 325.0465,157.070011 L334.4615,266.773011 C334.6195,268.607011 336.0125,270.000011 337.6745,270.000011 C339.4115,270.000011 340.8315,268.494011 340.9065,266.589011 L344.9915,156.486011 Z" id="10" fill="#6E6C6C"></path>
                    <path d="M35.0095,156.486011 C34.7765,150.216011 39.3175,145.000011 45.0005,145.000011 C50.8965,145.000011 55.5125,150.595011 54.9545,157.070011 L45.5395,266.773011 C45.3815,268.607011 43.9885,270.000011 42.3265,270.000011 C40.5895,270.000011 39.1695,268.494011 39.0945,266.589011 L35.0095,156.486011 Z" id="09" fill="#6E6C6C"></path>
                    <path d="M185.3255,108.179011 C261.4735,108.179011 322.3605,107.971011 325.5005,163.625011 C338.3455,181.724011 346.3905,179.710011 349.3905,146.772011 C358.9955,41.2847114 253.1575,-18.4822886 179.8615,5.12596144 C179.8615,5.12596144 109.1685,108.179011 185.3255,108.179011 Z" id="08" fill="#393939"></path>
                    <path d="M194.6755,108.179011 C118.5275,108.179011 57.6395,107.971011 54.5005,163.625011 C41.6545,181.724011 33.6105,179.710011 30.6109,146.772011 C21.0058,41.2847114 126.8435,-18.4822886 200.1395,5.12596144 C200.1395,5.12596144 270.8325,108.179011 194.6755,108.179011 Z" id="07" fill="#393939"></path>
                    <polygon id="06" fill="#393939" points="146.9375 122.402011 146.9375 106.240011 120.0005 122.402011 120.0005 89.0000114 270.8485 97.6199114 252.5315 120.247011 237.4465 115.937011 218.0515 122.402011 210.5095 110.550011 191.1145 122.402011 191.1145 106.240011 164.1775 122.402011 164.1775 106.240011"></polygon>
                    <path d="M264.0005,241.000011 C268.971063,241.000011 273.0005,245.029449 273.0005,250.000011 C273.0005,254.881814 269.113686,258.855803 264.265862,258.996174 L264.0005,259.000011 L244.0005,259.000011 C239.029937,259.000011 235.0005,254.970574 235.0005,250.000011 C235.0005,245.118209 238.887314,241.14422 243.735138,241.003849 L244.0005,241.000011 L264.0005,241.000011 Z" id="05" fill="#000000"></path>
                    <path d="M134.0005,241.000011 C138.971063,241.000011 143.0005,245.029449 143.0005,250.000011 C143.0005,254.881814 139.113686,258.855803 134.265862,258.996174 L134.0005,259.000011 L114.0005,259.000011 C109.029937,259.000011 105.0005,254.970574 105.0005,250.000011 C105.0005,245.118209 108.887314,241.14422 113.735138,241.003849 L114.0005,241.000011 L134.0005,241.000011 Z" id="04" fill="#000000"></path>
                    <path d="M225.015774,189.475902 C225.300062,184.602384 229.411702,180.861486 234.259474,181.003662 L234.524609,181.015285 L294.524609,184.515285 C299.486736,184.804742 303.274684,189.061993 302.985226,194.02412 C302.700938,198.897638 298.589298,202.638537 293.741526,202.496361 L293.476391,202.484738 L233.476391,198.984738 C228.514264,198.69528 224.726316,194.43803 225.015774,189.475902 Z" id="03" fill="#393939"></path>
                    <path d="M143.476391,181.015285 C148.438518,180.725828 152.695769,184.513775 152.985226,189.475902 C153.269515,194.34942 149.62072,198.543011 144.789298,198.965454 L144.524609,198.984738 L84.524609,202.484738 C79.5624816,202.774195 75.305231,198.986248 75.0157735,194.02412 C74.731485,189.150602 78.3802799,184.957012 83.2117025,184.534569 L83.476391,184.515285 L143.476391,181.015285 Z" id="02" fill="#393939"></path>
                    <path d="M182.928072,275.28506 L197.072928,284.714963 C192.265505,291.926097 188.5005,302.750486 188.5005,310.625011 C188.5005,318.218031 191.242495,321.409719 199.637255,321.498119 L200.0005,321.500011 L200.0005,338.500011 C181.457381,338.500011 171.5005,327.29852 171.5005,310.625011 C171.5005,299.329903 176.199435,285.618765 182.578477,275.81585 L182.928072,275.28506 Z" id="01" fill="#EBBAAA"></path>
                </g>
            </g>
        </g>
    </g>
</svg>