<?xml version="1.0" encoding="UTF-8"?>
<svg width="716px" height="1340px" viewBox="0 0 716 1340" version="1.1" xmlns="http://www.w3.org/2000/svg" xmlns:xlink="http://www.w3.org/1999/xlink">
    <!-- Generator: Sketch 55.2 (78181) - https://sketchapp.com -->
    <title>gee_me_074</title>
    <desc>Created with Sketch.</desc>
    <defs>
        <path d="M3.944,0.102 C3.813,0.722 3.696,1.349 3.596,1.982 L1.432,15.604 C-1.707,35.363 11.767,53.925 31.526,57.064 C51.285,60.202 69.847,46.729 72.985,26.97 L75.149,13.348 C75.25,12.715 75.333,12.082 75.4,11.452 L3.944,0.102 Z" id="path-1"></path>
        <polygon id="path-3" points="14.29 0.605 117.316 16.971 103.934 101.216 0.908 84.851"></polygon>
    </defs>
    <g id="GEE!-ME" stroke="none" stroke-width="1" fill="none" fill-rule="evenodd">
        <g id="gee_me_074" transform="translate(-242.000000, -130.000000)">
            <g transform="translate(211.000000, 130.000000)">
                <g id="lower-limb" transform="translate(169.816069, 890.688000)">
                    <path d="M240.24296,-24.7577344 C257.796079,-27.869843 274.548557,-16.1630907 277.660665,1.39002884 C283.678786,35.3338307 286.656747,110.182205 286.444342,199.996596 L286.436929,202.722799 C286.171891,288.984987 282.95228,371.553336 277.917154,412.684157 C275.751006,430.378931 259.650548,442.96737 241.955774,440.801223 C224.260999,438.635075 211.672561,422.534617 213.838708,404.839843 C224.045946,321.45921 224.891727,78.5693948 214.416107,14.5450063 L214.095196,12.6599712 C210.983088,-4.89314836 222.68984,-21.6456258 240.24296,-24.7577344 Z" id="Path" fill="#F6DDD6" fill-rule="nonzero"></path>
                    <path d="M89.9071873,-5.63491967 C93.0192675,-23.1880442 109.771726,-34.8948237 127.324851,-31.7827435 C144.702444,-28.7017841 156.350034,-12.25189 153.5616,5.10857897 L153.472674,5.63491967 C142.660695,66.6179313 143.419142,313.599675 153.729154,397.819843 C155.895301,415.514617 143.306862,431.615075 125.612088,433.781223 C107.917314,435.94737 91.8168559,423.358931 89.6507082,405.664157 C84.7163359,365.356377 81.5257206,285.250082 81.1507389,200.869565 L81.1313081,195.698372 C80.8517801,104.672534 83.8287265,28.6495374 89.9071873,-5.63491967 Z" id="Path" fill="#F6DDD6" fill-rule="nonzero"></path>
                    <path d="M147.134931,386.202 C153.060931,401.742 145.268931,419.142 129.730931,425.062 L95.1689309,438.242 C79.6309309,444.172 62.2309309,436.382 56.3049309,420.842 C50.3789309,405.302 25.6059309,402.772 41.1439309,396.852 L108.270931,368.792 C123.808931,362.872 141.208931,370.662 147.134931,386.202 Z" id="Path" fill="#F6DDD6"></path>
                    <path d="M56.1019309,390.592 C56.9069309,391.092 57.6469309,391.622 58.3269309,392.182 C69.6199309,401.542 79.3559309,419.362 94.0189309,418.962 L126.411931,418.072 C137.222931,417.782 146.133931,409.502 147.229931,398.742 L149.255931,378.862 C149.493931,376.522 152.776931,376.212 153.456931,378.462 L156.304931,387.902 L156.304931,414.912 L156.304931,434.412 C156.304931,442.102 150.100931,448.352 142.412931,448.402 L12.0389309,449.29225 C5.34193087,449.332 -0.436069127,444.562 0.0259308726,437.882 C1.11493087,422.122 9.87193087,395.212 56.1019309,390.592 Z" id="Path" fill="#CFB2B2" fill-rule="nonzero"></path>
                    <path d="M88.4549309,401.572 C83.6869309,396.312 73.4039309,388.992 65.1809309,387.022 L72.4979309,383.812 C80.5559309,386.362 88.1899309,390.632 95.8859309,397.542 C103.581931,404.452 108.596931,412.572 112.542931,421.062 L101.690931,423.112 C98.4749309,416.202 93.2239309,406.842 88.4549309,401.572 Z" id="Path" fill="#CFB2B2"></path>
                    <path d="M223.023931,386.202 C217.096931,401.742 224.888931,419.142 240.426931,425.062 L274.989931,438.242 C290.526931,444.172 307.927931,436.382 313.853931,420.842 C319.779931,405.302 344.552931,402.772 329.014931,396.852 L261.887931,368.792 C246.349931,362.872 228.949931,370.662 223.023931,386.202 Z" id="Path" fill="#F6DDD6"></path>
                    <path d="M314.056931,390.592 C313.251931,391.092 312.511931,391.622 311.831931,392.182 C300.537931,401.542 290.801931,419.362 276.139931,418.962 L243.745931,418.072 C232.934931,417.782 224.023931,409.502 222.927931,398.742 L220.902931,378.862 C220.663931,376.522 217.380931,376.212 216.701931,378.462 L213.852931,387.902 L213.852931,414.912 L213.852931,434.412 C213.852931,442.102 220.057931,448.352 227.745931,448.402 L358.118931,449.29225 C364.816931,449.332 370.593931,444.562 370.131931,437.882 C369.043931,422.122 360.285931,395.212 314.056931,390.592 Z" id="Path" fill="#CFB2B2" fill-rule="nonzero"></path>
                    <path d="M281.701931,401.572 C286.470931,396.312 296.753931,388.992 304.975931,387.022 L297.659931,383.812 C289.601931,386.362 281.967931,390.632 274.271931,397.542 C266.574931,404.452 261.560931,412.572 257.613931,421.062 L268.465931,423.112 C271.682931,416.202 276.933931,406.842 281.701931,401.572 Z" id="Path" fill="#CFB2B2"></path>
                </g>
                <g id="upper-limb" transform="translate(121.068000, 501.221396)">
                    <path d="M41.7654696,116.839445 L41.817033,116.043342 C42.9073877,98.2498503 58.2157699,84.7092822 76.0092617,85.7996369 C93.8027536,86.8899915 107.343322,102.198374 106.252967,119.991866 C105.39659,133.967071 102.891801,148.315077 98.7983732,164.473337 L97.9960143,167.593438 C95.6990267,176.424776 93.812008,182.864752 89.2130216,197.645309 L84.4107156,213.020721 C75.9384502,240.294162 72.0755365,255.154659 69.698405,271.553419 C66.6518819,292.570009 67.5214542,310.833209 72.8720853,328.223205 C78.1145926,345.261789 68.5519831,363.324182 51.5133991,368.566689 C34.4748152,373.809196 16.412422,364.246587 11.1699147,347.208003 C2.79283402,319.981795 1.4710221,292.220428 5.80936,262.29219 L6.19498947,259.704951 C9.21619113,239.987219 13.7706274,222.763507 22.9581012,193.231852 L28.2381775,176.317632 C32.0097764,164.157585 33.6513009,158.513953 35.532289,151.287144 L35.922925,149.777299 C39.1908564,137.075589 41.1115418,126.422175 41.7654696,116.839445 Z" id="Path" fill="#FBE8E3" fill-rule="nonzero"></path>
                    <path d="M138.687,125.254604 C92.1,93.5236039 107.09,21.1776039 162.502,10.8496039 L213.048,1.42760386 C222.859,-0.400396135 232.917,-0.473396135 242.753,1.21160386 L296.523,10.4246039 C347.949,19.2366039 371.286,79.8026039 339.068,120.842604 C327.132,136.047604 322.135,155.568604 325.297,174.638604 L329.553,200.310604 C337.911,250.722604 299.027,296.583604 247.927,296.583604 L215.643,296.583604 C168.854,296.583604 138.473,247.283604 159.506,205.487604 C173.674,177.333604 164.736,142.997604 138.687,125.254604 Z" id="Path" fill="#FBE8E3" fill-rule="nonzero"></path>
                    <path d="M333.645624,60.6239339 C349.195019,51.9053592 368.868095,57.4428331 377.58667,72.992228 L378.704842,74.9748478 C381.338684,79.6180914 384.15432,84.3965526 387.327641,89.6316091 L388.501883,91.5513348 C391.619358,96.5833601 408.308984,123.453227 413.211345,131.851919 C433.085467,165.900127 443.660151,193.84727 446.371468,227.237967 C449.546893,266.344289 440.681562,309.369914 418.287887,360.835275 C411.175194,377.181737 392.157791,384.667185 375.811329,377.554491 C359.464867,370.441798 351.979419,351.424395 359.092113,335.077933 C377.524076,292.717414 384.2633,260.010308 382.026446,232.462768 C380.2404,210.467067 373.04727,191.260502 357.98025,165.293792 L356.990024,163.599947 C351.562056,154.412926 333.860757,125.957168 332.859883,124.311884 L331.368499,121.851375 C327.693339,115.765163 324.407533,110.147632 321.27733,104.56498 C312.558755,89.0155849 318.096229,69.3425085 333.645624,60.6239339 Z" id="Path" fill="#FBE8E3" fill-rule="nonzero"></path>
                    <path d="M367.964,199.013604 C361.149,187.329604 354.502,166.707604 342.158,159.904604 C342.158,159.904604 367.11,149.955604 367.964,155.709604 L374.876,201.469604 C374.876,201.735604 374.769,202.000604 374.769,202.265604 C374.769,202.265604 393.77,306.086604 383.181,387.038604 C372.591,467.988604 417.335,604.848604 417.335,604.848604 C417.975,612.698604 413.572,619.808604 406.34,622.558604 C386.538,630.148604 315.765,654.878604 233.25,654.878604 C232.956,654.878604 232.636,655.018604 232.316,654.878604 C161.223,654.878604 87.407,633.748604 58.292,622.558604 C51.087,619.808604 46.657,612.698604 47.297,604.848604 C47.297,604.848604 53.968,475.908604 71.902,403.558604 C89.836,331.209604 89.862,202.265604 89.862,202.265604 C89.862,202.185604 89.836,202.132604 89.836,202.079604 C89.836,202.053604 89.862,202.053604 89.862,202.026604 L96.854,155.709604 L96.854,149.081604 C96.854,149.081604 108.524,159.539604 103.198,169.276604 L91.322,204.089604 C67.651,191.469604 18.556,151.307604 15.86,133.226604 C13.192,115.462604 67.072,61.9336039 119.298,21.6616039 C121.753,20.0436039 124.101,18.6126039 125.249,18.2416039 C134.696,15.1396039 148.813,11.9846039 163.438,10.8176039 C163.891,22.4306039 166.853,39.9016039 178.969,53.9006039 C191.005,67.8466039 208.912,75.0846039 232.209,75.4026039 C232.263,75.4026039 232.316,75.4026039 232.343,75.4026039 C232.369,75.4026039 232.449,75.4026039 232.476,75.4026039 C255.773,75.1106039 273.68,67.8726039 285.716,53.9006039 C297.832,39.8756039 300.794,22.4036039 301.248,10.8176039 C315.872,11.9846039 329.989,15.1396039 339.383,18.2146039 C340.691,18.6656039 343.493,20.3356039 346.241,22.2176039 C398.227,62.4376039 451.627,115.542604 448.958,133.226604 C446.263,151.307604 391.635,186.393604 367.964,199.013604 Z" id="Path" fill="#D2DCE3" fill-rule="nonzero"></path>
                    <polygon id="Path" fill="#97B4C7" fill-rule="nonzero" opacity="0.3" points="120.804 612.338604 148.07 617.038604 148.07 354.778604"></polygon>
                    <polygon id="Path" fill="#97B4C7" fill-rule="nonzero" opacity="0.3" points="374.76 598.268604 354.129 604.418604 347.494 470.918604"></polygon>
                    <path d="M113.558,17.3266039 C119.868,15.6606039 119.603,15.7836039 126.264,14.2066039 C133.096,17.5456039 137.528,23.7986039 142.719,36.1296039 C148.028,48.7436039 152.197,66.8626039 154.066,91.7296039 C157.808,141.485604 152.429,219.456604 127.183,337.272604 C126.37,341.066604 122.635,343.483604 118.841,342.670604 C115.047,341.857604 112.63,338.122604 113.443,334.328604 C138.545,217.181604 143.655,140.672604 140.054,92.7826039 C138.253,68.8256039 134.292,52.3296039 129.768,41.5816039 C125.125,30.5506039 122.059,26.5286039 119.956,24.0756039 C117.853,21.6216039 116.211,20.2966039 113.558,17.3266039 Z" id="Path" fill="#FFFFFF"></path>
                    <polygon id="Path" fill="#F7F3ED" fill-rule="nonzero" points="116.997 451.023604 146.129 335.040604 161.316 490.698604 124.802 494.928604"></polygon>
                    <polygon id="Path" fill="#FFFFFF" fill-rule="nonzero" points="28.475 280.077604 148.069 335.130604 126.008 495.758604 -2.55795385e-13 412.961604"></polygon>
                    <path d="M5.41231513,268.063771 C7.58988144,250.370399 23.6984601,237.792353 41.3918326,239.969919 C59.0852051,242.147485 71.6632512,258.256064 69.4856849,275.949436 C65.7542525,306.268432 67.6480862,329.765608 76.6456985,351.218867 L76.9482519,351.933225 C83.9580589,368.324071 76.3532243,387.294049 59.9623784,394.303856 C43.5715324,401.313663 24.6015551,393.708828 17.5917481,377.317982 C3.25986927,343.80613 0.361323817,309.104575 5.41231513,268.063771 Z" id="Path" fill="#FBE8E3" fill-rule="nonzero"></path>
                </g>
                <g id="hand" transform="translate(0.187000, 0.161915)">
                    <ellipse id="Oval" fill="#D9D0C1" fill-rule="nonzero" transform="translate(388.813000, 270.876085) rotate(13.537300) translate(-388.813000, -270.876085) " cx="388.813" cy="270.876085" rx="366.813" ry="134.048"></ellipse>
                    <ellipse id="Oval" fill="#EBBAAA" fill-rule="nonzero" cx="234.205" cy="332.404085" rx="43.8948" ry="46.6715"></ellipse>
                    <path d="M253.604,153.359085 C268.656,58.6008847 340.17,36.1107847 421.918,49.0958847 C503.665,62.0810847 564.69,105.624085 549.638,200.382085 L522.531,371.034085 C493.011,479.830085 421.918,532.368085 347.261,519.096085 C272.603,505.824085 219.719,423.179085 226.497,324.010085 L253.604,153.359085 Z" id="Path" fill="#F6DDD6" fill-rule="nonzero"></path>
                    <path d="M328.331,400.313085 L326.245,413.443085 C323.106,433.202085 336.58,451.765085 356.339,454.903085 C376.098,458.042085 394.66,444.568085 397.798,424.809085 L399.884,411.679085 L328.331,400.313085 Z" id="Path" fill="#393939"></path>
                    <g id="Clipped" transform="translate(324.813000, 397.838085)">
                        <mask id="mask-2" fill="white">
                            <use xlink:href="#path-1"></use>
                        </mask>
                        <g id="Path"></g>
                        <g id="Group" mask="url(#mask-2)" fill-rule="nonzero">
                            <g transform="translate(1.000000, 2.000000)">
                                <ellipse id="Oval" fill="#FF6C6C" transform="translate(30.570000, 54.789000) rotate(9.025720) translate(-30.570000, -54.789000) " cx="30.57" cy="54.789" rx="21.8458" ry="11.9628"></ellipse>
                                <rect id="Rectangle" fill="#FFFFFF" transform="translate(37.115371, 13.576439) rotate(9.025720) translate(-37.115371, -13.576439) " x="0.890071228" y="6.06493888" width="72.4506" height="15.023"></rect>
                            </g>
                        </g>
                    </g>
                    <g id="Clipped" transform="translate(304.813000, 322.838085)">
                        <mask id="mask-4" fill="white">
                            <use xlink:href="#path-3"></use>
                        </mask>
                        <g id="Path"></g>
                        <rect id="Rectangle" fill="#FFFFFF" fill-rule="nonzero" mask="url(#mask-4)" transform="translate(55.700430, 106.533071) rotate(9.025720) translate(-55.700430, -106.533071) " x="8.90013008" y="96.8287706" width="93.6006" height="19.4086"></rect>
                    </g>
                    <path d="M263.636939,217.389046 C264.032444,213.923666 267.102867,211.413807 270.552525,211.684816 L270.783039,211.707024 L342.324039,219.872024 C345.866427,220.276318 348.410355,223.475736 348.006061,227.018124 C347.610556,230.483504 344.540133,232.993363 341.090475,232.722353 L340.859961,232.700146 L269.318961,224.535146 C265.776573,224.130852 263.232645,220.931434 263.636939,217.389046 Z" id="Path" fill="#62360D" fill-rule="nonzero"></path>
                    <path d="M284.211074,270.53658 C284.446908,267.056686 287.398745,264.408376 290.857214,264.520569 L291.088504,264.532159 L342.910504,268.044159 C346.46773,268.285234 349.156001,271.364364 348.914926,274.921589 C348.679092,278.401483 345.727255,281.049793 342.268786,280.937601 L342.037496,280.926011 L290.215496,277.414011 C286.65827,277.172936 283.969999,274.093805 284.211074,270.53658 Z" id="Path" fill="#8BA569" fill-rule="nonzero"></path>
                    <path d="M436.555285,290.469956 C437.635918,287.155518 441.143665,285.311248 444.467798,286.264056 L444.694129,286.33337 L482.024129,298.50437 C485.413895,299.609562 487.265908,303.253447 486.160715,306.643213 C485.080082,309.957652 481.572335,311.801922 478.248202,310.849114 L478.021871,310.7798 L440.691871,298.6088 C437.302105,297.503607 435.450092,293.859723 436.555285,290.469956 Z" id="Path" fill="#8BA569" fill-rule="nonzero"></path>
                    <path d="M370.278597,330.262227 L388.471403,332.155943 L388.399228,332.914302 C388.239607,334.767577 388.184861,336.835143 388.181934,340.533328 L388.196081,347.190117 C388.195203,347.628756 388.193298,348.04503 388.190286,348.488856 L388.177329,349.797852 C388.044253,359.901704 387.153132,366.518915 384.372646,372.279 C379.822532,381.705069 370.795546,385.717683 359.324736,383.066903 L358.903986,382.966948 L363.240014,365.197221 C364.473443,365.498193 365.464955,365.614525 366.218961,365.589488 C366.673108,365.574407 366.94471,365.51624 367.101218,365.448226 C367.283186,365.369148 367.515002,365.125701 367.900291,364.32753 C369.205117,361.62444 369.81654,356.784336 369.895077,348.906575 L369.905039,346.016755 L369.890618,340.333777 C369.894782,336.129228 369.963645,333.713016 370.182743,331.25294 L370.278597,330.262227 Z" id="Path" fill="#E1BFB4" fill-rule="nonzero"></path>
                    <g id="Group-2" transform="translate(109.321363, 56.389902)">
                        <path d="M314.327637,95.1531826 C254.262637,176.237183 238.119637,188.887183 150.887637,187.777183 C146.313637,216.574183 149.107637,281.328183 164.139637,303.124183 C122.196637,314.389183 87.3666374,282.212183 68.9746374,242.612183 C68.9746374,242.612183 59.5266374,266.165183 71.7796374,285.163183 C84.0316374,304.162183 100.946637,310.931183 100.946637,310.931183 C-125.539763,325.449183 99.6626374,97.9091826 100.944637,95.1521826 C209.534637,55.6711826 308.455637,-48.7163174 389.705637,26.6441826 C474.725637,45.0521826 437.089637,153.654183 474.725637,153.654183 C539.231637,230.101183 549.923637,285.163183 474.725637,361.669183 C481.928637,345.544183 501.581637,282.464183 489.212637,270.466183 C461.471637,372.064183 434.378637,373.517183 351.693637,363.261183 C396.021637,305.993183 414.776637,271.143183 426.613637,196.624183 L389.705637,242.612183 C400.868637,196.687183 392.745637,97.7401826 376.925637,55.6711826 C372.850637,154.367183 363.406637,206.297183 283.203637,217.159183 C308.697637,203.198183 353.886637,116.157183 314.327637,95.1531826 Z" id="Path" fill="#8BA569"></path>
                        <path d="M150.886637,187.778183 C238.118637,188.888183 254.262637,176.238183 314.326637,95.1531826 C353.885637,116.157183 304.923637,165.864183 279.429637,179.825183 C345.929637,170.818183 393.870637,147.234183 393.870637,95.1531826 C400.586637,81.5351826 368.269637,53.2871826 384.206637,28.9621826 C295.293637,-3.75191743 201.244637,29.8851826 164.136637,88.1301826 C86.4536374,222.846183 122.417637,276.328183 164.138637,303.124183 C149.106637,281.328183 146.312637,216.575183 150.886637,187.778183 Z" id="Path" fill="#A1CC6A" fill-rule="nonzero"></path>
                    </g>
                    <path d="M316.233465,291.089341 C325.176569,290.211389 333.103,294.868538 338.271267,304.590075 C340.363327,308.525251 338.869186,313.411291 334.93401,315.503351 C330.998834,317.595412 326.112794,316.101271 324.020733,312.166095 C321.812551,308.012493 319.983707,306.937961 317.810285,307.151328 C315.703111,307.358191 312.982716,308.839113 310.951645,310.771886 L310.690739,311.026482 C307.540839,314.179332 302.431452,314.181723 299.278602,311.031824 C296.125753,307.881924 296.123362,302.772537 299.273261,299.619687 C303.759451,295.129296 309.865381,291.714502 316.233465,291.089341 Z" id="Path" fill="#000000" fill-rule="nonzero"></path>
                    <path d="M447.541486,312.310886 C456.68453,312.534001 464.28756,317.965027 468.668246,328.152261 C470.428833,332.246484 468.537047,336.992745 464.442824,338.753331 C460.427336,340.48006 455.784648,338.693542 453.946613,334.76166 L453.841754,334.527909 C451.890928,329.991288 449.817853,328.51044 447.147764,328.445283 C444.721797,328.386083 441.60157,329.561282 439.203516,331.277025 L438.894939,331.503826 C435.338368,334.189553 430.277985,333.483595 427.592259,329.927024 C424.906532,326.370453 425.61249,321.31007 429.169061,318.624343 C434.166137,314.850826 440.636191,312.281469 447.048381,312.304016 L447.541486,312.310886 Z" id="Path" fill="#000000" fill-rule="nonzero"></path>
                    <path d="M276.231,22.2241847 C280.189,7.66798473 294.303,-1.71711527 309.257,0.262984731 L506.258,26.3489847 C524.327,28.7416847 541.467,35.7771847 556.006,46.7692847 L591.403,73.5300847 C601.047,80.8210847 605.398,93.1710847 602.454,104.897085 L575.42,212.583085 L410.306,159.239085 L245.192,136.377085 L276.231,22.2241847 Z" id="Path" fill="#EBE4D9" fill-rule="nonzero"></path>
                    <path d="M726.435,294.986085 C633.595,239.394085 494.273,186.348085 336.643,164.320085 C221.676,148.255085 136.322,140.037085 73.9448,140.264085 C139.893,107.260085 273.605,105.260085 420.193,140.553085 C564.393,175.272085 681.074,236.454085 726.435,294.986085 Z" id="Path" fill="#E8E1D6"></path>
                    <path d="M514.993,168.372085 C527.905,146.535085 567.11,105.336085 620.637,115.230085 C596.868,190.154085 538.74,163.758085 514.993,168.372085 Z" id="Path" fill="#8BA569" fill-rule="nonzero"></path>
                    <path d="M512.276,168.225085 C536.453,160.543085 585.399,131.583085 587.768,77.2000847 C509.421,83.5500847 522.101,146.120085 512.276,168.225085 Z" id="Path" fill="#A1CC6A" fill-rule="nonzero"></path>
                </g>
            </g>
        </g>
    </g>
</svg>