<?xml version="1.0" encoding="UTF-8"?>
<svg width="486px" height="1409px" viewBox="0 0 486 1409" version="1.1" xmlns="http://www.w3.org/2000/svg" xmlns:xlink="http://www.w3.org/1999/xlink">
    <!-- Generator: Sketch 55.2 (78181) - https://sketchapp.com -->
    <title>gee_me_091</title>
    <desc>Created with Sketch.</desc>
    <defs>
        <path d="M64.109,39.46 C41.379,39.01 33.839,24.41 32.911,17.17 L21.213,17.17 C20.099,18.84 16.478,22.74 13.971,34.44 C10.628,50.04 5.057,52.83 1.714,67.31 C-0.6,77.34 -1.071,92.38 4.5,100.74 C13.152,113.72 23.998,112.44 42.382,112.44 C52.968,112.44 70.794,109.65 86.951,114.11 C109.507,120.33 171.63,123.58 187.23,118.56 C213.813,110.02 205.613,85.14 194.473,75.67 C174.92,59.05 137.152,60.19 127.62,47.26 C119.821,36.67 115.383,11.13 109.792,4.92 C99.765,-6.23 92.952,3.59 94.751,14.39 C96.978,27.76 92.521,40.01 64.109,39.46 Z" id="path-1"></path>
        <path d="M141.708,39.46 C164.437,39.01 171.977,24.41 172.905,17.17 L184.604,17.17 C185.718,18.84 189.338,22.74 191.845,34.44 C195.188,50.04 200.76,52.83 204.102,67.31 C206.416,77.34 206.887,92.38 201.317,100.74 C192.665,113.72 181.818,112.44 163.434,112.44 C152.849,112.44 135.022,109.65 118.866,114.11 C96.309,120.33 34.1869,123.58 18.5867,118.56 C-7.99654,110.02 0.20295,85.14 11.3435,75.67 C30.8964,59.05 68.6648,60.19 78.1968,47.26 C85.9954,36.67 90.4339,11.13 96.024,4.92 C106.052,-6.23 112.864,3.59 111.066,14.39 C108.839,27.76 113.296,40.01 141.708,39.46 Z" id="path-3"></path>
        <path d="M77.364,0.828 C77.7,2.874 77.874,4.974 77.874,7.115 L77.874,21.298 C77.874,42.598 60.607,59.865 39.307,59.865 C18.006,59.865 0.739,42.598 0.739,21.298 L0.739,7.115 C0.739,4.974 0.914,2.874 1.249,0.828 L77.364,0.828 Z" id="path-5"></path>
    </defs>
    <g id="GEE!-ME" stroke="none" stroke-width="1" fill="none" fill-rule="evenodd">
        <g id="gee_me_091" transform="translate(-357.000000, -96.000000)">
            <g transform="translate(357.000000, 96.000000)">
                <path d="M353.211198,575.990488 L356.266899,587.073363 L362.082155,608.032791 L364.792209,617.871358 L366.192137,623.001865 C367.539926,627.96221 368.741617,632.451126 369.890078,636.820124 L371.049589,641.260993 L371.750679,643.978464 C376.829829,663.761435 380.547388,680.386927 383.324265,696.215167 C389.870244,733.527352 391.012113,766.260639 386.148457,799.51019 C380.641801,837.155503 367.233407,876.018928 344.090979,918.832421 C335.161871,935.35127 341.314572,955.980914 357.833421,964.910021 C374.35227,973.839129 394.981914,967.686428 403.911021,951.167579 C430.718685,901.573402 446.731712,855.160602 453.432428,809.35231 C459.421046,768.412148 458.029234,728.513906 450.301348,684.464833 L449.862212,681.993985 L449.410375,679.51515 C446.202454,662.131743 442.041964,644.047581 436.530117,622.874153 L435.170433,617.690409 C433.220116,610.307836 431.10973,602.538135 428.438031,592.859859 L419.092936,559.110754 L418.790802,558.009512 C413.825493,539.900204 395.11982,529.244888 377.010512,534.210198 C358.901204,539.175507 348.245888,557.88118 353.211198,575.990488 Z" id="Path" fill="#EBBAAA" fill-rule="nonzero"></path>
                <g id="lower-limb" transform="translate(4.000000, 884.000000)">
                    <g id="Group-3" transform="translate(96.068327, 0.000000)" fill-rule="nonzero">
                        <path d="M296.306673,68.33 C307.506673,58.33 317.639673,41.034 317.806673,35.034 C304.973673,31.367 277.406673,26.734 269.806673,37.534 C260.306673,51.034 282.306673,80.83 296.306673,68.33 Z" id="Path" fill="#EBBAAA"></path>
                        <path d="M224.391377,453.511318 L224.320515,452.562518 L224.252579,451.465542 L224.191474,450.268285 C224.031326,446.804838 223.95152,442.200041 223.962759,436.614738 L223.970761,434.548452 L223.986926,432.367862 C224.10583,419.298381 224.642744,402.212005 225.547957,381.912786 L225.827771,375.788603 L226.046636,371.180444 C227.765152,335.545009 230.403123,293.052841 233.049821,256.559404 C234.446772,237.297839 219.964641,220.550804 200.703077,219.153853 C181.441512,217.756902 164.694477,232.239032 163.297526,251.500596 L162.821873,258.123873 L162.212945,266.793247 C159.633307,303.976904 157.181117,345.17734 155.681889,378.797214 L155.421581,384.781055 C154.539162,405.606339 154.054422,423.045209 154.0274,436.474012 L154.0274,439.03876 L154.040777,441.604305 C154.087918,447.749387 154.250585,452.970874 154.546902,457.318263 C154.781599,460.761606 155.105421,463.791063 155.582798,466.59276 C156.571716,472.396661 157.942202,477.063697 161.473595,482.613117 C171.841701,498.906113 193.454795,503.709184 209.74779,493.341078 C223.346487,484.687499 228.941133,468.200495 224.391377,453.511318 Z" id="Path" fill="#161616"></path>
                        <path d="M84.3773775,409.281319 L84.306517,408.332543 L84.2385818,407.235574 L84.1774772,406.038326 C84.017332,402.574905 83.9375294,397.970154 83.9487741,392.384932 L83.9567793,390.318649 L83.9729464,388.138066 C84.091868,375.068631 84.6288198,357.98244 85.5340753,337.684182 L85.8139472,331.559358 L86.0328604,326.950707 C87.7517609,291.311463 90.39046,248.815073 93.0367549,212.340308 C94.4342055,193.07878 79.9525094,176.331369 60.6909813,174.933918 C41.4294532,173.536468 24.682042,188.018164 23.2845913,207.279692 L22.8089893,213.899983 L22.3154571,220.907718 C19.7989481,257.000741 17.3908874,297.087791 15.8557751,330.426439 L15.5092961,338.179999 L15.2147164,345.208783 C14.4546653,363.985876 14.0384116,379.828789 14.0134159,392.244131 L14.0134159,394.808856 L14.0267882,397.374381 C14.0739228,403.519417 14.2365878,408.740892 14.5329035,413.088278 C14.7675996,416.531614 15.091422,419.561069 15.5687993,422.362767 C16.5577175,428.166664 17.928203,432.833699 21.4595949,438.383117 C31.8277012,454.676113 53.4407946,459.479184 69.7337902,449.111078 C83.3324866,440.457499 88.9271324,423.970496 84.3773775,409.281319 Z" id="Path" fill="#161616"></path>
                        <polygon id="Path" fill="#C5B493" points="268.857673 40.75 148.855673 45.037 151.908673 204.9 151.908673 410.75 222.857673 410.75 264.855673 204.9 292.857673 77.75"></polygon>
                        <polygon id="Path" fill="#998B6E" points="226.281673 414.75 228.857673 393.75 149.857673 393.75 149.857673 414.75"></polygon>
                        <ellipse id="Oval" fill="#C4B493" transform="translate(131.904673, 62.660000) scale(-1, 1) translate(-131.904673, -62.660000) " cx="131.904673" cy="62.66" rx="121.664" ry="62.6595"></ellipse>
                        <polygon id="Path" fill="#C5B493" points="132.154673 44.75 0.657673109 44.75 6.85767311 411.75 91.8576731 411.75"></polygon>
                        <polygon id="Path" fill="#998B6E" points="92.2556731 415.75 94.8576731 394.75 6.35767311 394.75 6.35767311 414.25"></polygon>
                    </g>
                    <g id="Group-2" transform="translate(0.000000, 395.000000)">
                        <path d="M427.941,114.96 C429.932,110.48 428.499,100.48 427.384,98.8 C426.269,97.13 290.89,86.55 290.89,86.55 C268.42,84.88 226.559,85.04 223.481,97.13 C215.681,127.77 236.857,127.77 254.684,127.77 C279.196,127.77 282.105,121.28 298.132,123.32 C306.489,124.38 318.745,130 375.012,130 C420.141,130 423.484,124.99 427.941,114.96 Z" id="Path" fill="#C9D1DC" fill-rule="nonzero"></path>
                        <path d="M288.109,39.46 C265.379,39.01 257.839,24.41 256.911,17.17 L245.213,17.17 C244.099,18.84 240.478,22.74 237.971,34.44 C234.628,50.04 229.057,52.83 225.714,67.31 C223.4,77.34 222.929,92.38 228.5,100.74 C237.152,113.72 247.998,112.44 266.382,112.44 C276.968,112.44 294.794,109.65 310.951,114.11 C333.507,120.33 395.63,123.58 411.23,118.56 C437.813,110.02 429.613,85.14 418.473,75.67 C398.92,59.05 361.152,60.19 351.62,47.26 C343.821,36.67 339.383,11.13 333.792,4.92 C323.765,-6.23 316.952,3.59 318.751,14.39 C320.978,27.76 316.521,40.01 288.109,39.46 Z" id="Path" fill="#3B434E" fill-rule="nonzero"></path>
                        <g id="Clipped" transform="translate(224.000000, 0.000000)">
                            <mask id="mask-2" fill="white">
                                <use xlink:href="#path-1"></use>
                            </mask>
                            <g id="Path"></g>
                            <g id="Group" mask="url(#mask-2)" fill-rule="nonzero">
                                <g transform="translate(32.000000, -4.000000)" id="Path">
                                    <path d="M125.024,80.88 C117.448,79.1 82.499,60.82 65.972,51.91 C37.56,60.27 16.39,89.79 0.234,119.32 C0.791,126 65.011,132.53 72.1,123.78 C81.571,112.08 98.841,88.12 125.024,80.88 Z" fill="#32373F"></path>
                                    <path d="M150.657,97.12 C159.364,97.12 161.54,90.75 161.54,87.56 C162.171,97.49 162.013,118.81 156.335,124.66 C149.237,131.96 90.93,128.03 83.832,124.66 C76.734,121.29 104.652,97.78 110.804,102.28 C116.956,106.77 121.792,111.17 129.363,104.43 C136.934,97.68 139.773,97.12 150.657,97.12 Z" fill="#32373F"></path>
                                    <path d="M155.665,93.69 C156.111,87.01 165.507,82.94 166.807,83.13 L185.191,84.24 L182.963,117.67 L159.565,131.04 C155.108,130.85 126.696,126.01 144.523,126.01 C152.88,126.01 154.551,122.68 159.565,117.67 C164.579,112.65 155.108,102.05 155.665,93.69 Z" fill="#C8D1DC"></path>
                                    <path d="M69.437,20.61 C68.1,12.59 65.537,7.62 64.423,6.13 L66.65,0.56 L79.465,0.56 C85.407,5.76 95.398,18.5 87.821,27.86 C78.351,39.56 71.108,30.64 69.437,20.61 Z" fill="#C8D1DC"></path>
                                </g>
                            </g>
                        </g>
                        <path d="M1.87561,114.96 C-0.11547,110.48 1.31735,100.48 2.43231,98.8 C3.54728,97.13 138.926,86.55 138.926,86.55 C161.396,84.88 203.258,85.04 206.336,97.13 C214.135,127.77 192.96,127.77 175.132,127.77 C150.62,127.77 147.711,121.28 131.684,123.32 C123.328,124.38 111.071,130 54.804,130 C9.6757,130 6.3324,124.99 1.87561,114.96 Z" id="Path" fill="#C9D1DC" fill-rule="nonzero"></path>
                        <path d="M141.708,39.46 C164.437,39.01 171.977,24.41 172.905,17.17 L184.604,17.17 C185.718,18.84 189.338,22.74 191.845,34.44 C195.188,50.04 200.76,52.83 204.102,67.31 C206.416,77.34 206.887,92.38 201.317,100.74 C192.665,113.72 181.818,112.44 163.434,112.44 C152.849,112.44 135.022,109.65 118.866,114.11 C96.309,120.33 34.1869,123.58 18.5867,118.56 C-7.99654,110.02 0.20295,85.14 11.3435,75.67 C30.8964,59.05 68.6648,60.19 78.1968,47.26 C85.9954,36.67 90.4339,11.13 96.024,4.92 C106.052,-6.23 112.864,3.59 111.066,14.39 C108.839,27.76 113.296,40.01 141.708,39.46 Z" id="Path" fill="#3B434E" fill-rule="nonzero"></path>
                        <g id="Clipped">
                            <mask id="mask-4" fill="white">
                                <use xlink:href="#path-3"></use>
                            </mask>
                            <g id="Path"></g>
                            <g id="Group" mask="url(#mask-4)" fill-rule="nonzero">
                                <g transform="translate(-12.000000, -4.000000)" id="Path">
                                    <path d="M60.792,80.88 C68.3686,79.1 103.3173,60.82 119.845,51.91 C148.257,60.27 169.427,89.79 185.583,119.32 C185.025,126 120.806,132.53 113.717,123.78 C104.2458,112.08 86.9757,88.12 60.792,80.88 Z" fill="#32373F"></path>
                                    <path d="M35.1597,97.12 C26.4529,97.12 24.2762,90.75 24.2762,87.56 C23.6452,97.49 23.803,118.81 29.4814,124.66 C36.5793,131.96 94.8868,128.03 101.9847,124.66 C109.083,121.29 81.164,97.78 75.0124,102.28 C68.8608,106.77 64.0248,111.17 56.4537,104.43 C48.8825,97.68 46.0433,97.12 35.1597,97.12 Z" fill="#32373F"></path>
                                    <path d="M30.1513,93.69 C29.7057,87.01 20.3092,82.94 19.0093,83.13 L0.625,84.24 L2.8534,117.67 L26.2516,131.04 C30.7084,130.85 59.1206,126.01 41.2933,126.01 C32.9368,126.01 31.2655,122.68 26.2516,117.67 C21.2377,112.65 30.7084,102.05 30.1513,93.69 Z" fill="#C8D1DC"></path>
                                    <path d="M116.379,20.61 C117.717,12.59 120.279,7.62 121.393,6.13 L119.166,0.56 L106.3517,0.56 C100.4093,5.76 90.4186,18.5 97.9952,27.86 C107.4659,39.56 114.708,30.64 116.379,20.61 Z" fill="#C8D1DC"></path>
                                </g>
                            </g>
                        </g>
                    </g>
                </g>
                <g id="upper-limb" transform="translate(-0.000305, 439.109381)" fill-rule="nonzero">
                    <path d="M427.319305,99.9246195 C404.044305,51.0226195 344.797305,31.2506195 296.818305,56.3756195 C248.121305,81.8776195 230.962305,143.129619 259.326305,190.218619 L347.400305,336.433619 L485.461305,251.440619 L463.000305,174.893619 L427.319305,99.9246195 Z" id="Path" fill="#294763"></path>
                    <path d="M393.679305,148.929619 C394.592305,87.1146195 345.310305,36.2186195 283.498305,35.1396195 L216.446305,33.9696195 C153.741305,32.8746195 102.324305,83.4136195 102.339302,146.128619 L102.376305,303.466619 L102.444305,479.860619 C102.444305,479.860619 197.353305,498.029619 255.354305,498.008638 C313.354305,497.988619 397.435305,479.971619 397.435305,479.971619 L391.394305,303.533619 L393.679305,148.929619 Z" id="Path" fill="#2E5880"></path>
                    <path d="M57.2163672,198.615065 C40.4000753,261.678349 32.7807489,310.421898 34.2397002,356.773193 C35.9249925,410.315405 50.1638897,459.481316 79.0213995,508.229306 C89.1495762,525.338483 111.229814,530.997702 128.338991,520.869525 C145.448168,510.741348 151.107387,488.661111 140.979211,471.551933 C118.318018,433.271167 107.508366,395.946198 106.20406,354.508046 C105.003615,316.369552 111.621365,274.033442 126.785443,217.166174 C131.908191,197.955204 120.48743,178.228829 101.27646,173.106081 C82.06549,167.983334 62.3391146,179.404095 57.2163672,198.615065 Z" id="Path" fill="#EBBAAA"></path>
                    <circle id="Oval" fill="#294763" transform="translate(251.964305, 65.929619) scale(-1, 1) rotate(-0.999999) translate(-251.964305, -65.929619) " cx="251.964305" cy="65.9296195" r="63.9296195"></circle>
                    <path d="M99.8690052,73.1706195 C132.863305,37.4026195 161.689305,38.5336195 179.000305,50.5496195 C200.060305,65.1666195 171.000305,105.890619 171.000305,105.890619 C207.660305,143.558619 247.012305,225.805619 202.496305,256.883619 L111.113305,294.891619 L0,256.883619 C0,256.883619 26.7369052,152.449619 99.8690052,73.1706195 Z" id="Path" fill="#2E5880"></path>
                </g>
                <path d="M356,922 C356,936.762701 365.901488,952.575524 384.46857,970.017329 L399.53143,953.982671 L398.55134,953.054887 L397.594644,952.134984 C384.364461,939.312013 378,928.837096 378,922 L356,922 Z" id="Path" fill="#998B6E" fill-rule="nonzero"></path>
                <path d="M84.9922,953 C92.9922,951.4 129.325,928.333 143.991,920 C154.992,938 187.191,949 187.991,953 C188.991,958 108.288,1044.91 102.992,1033 C94.9903,1015 74.9922,955 84.9922,953 Z" id="Path" fill="#C4B493" fill-rule="nonzero"></path>
                <path d="M86.3046768,976.489399 C109.398395,969.196569 133.545494,954.002855 156.770175,930.778175 L141.213825,915.221825 C120.408306,936.027345 99.2819634,949.320354 79.6797232,955.510601 L86.3046768,976.489399 Z" id="Path" fill="#998B6E" fill-rule="nonzero"></path>
                <g id="head" transform="translate(45.271900, 0.000000)">
                    <rect id="Rectangle" fill="#EBBAAA" fill-rule="nonzero" transform="translate(205.730100, 481.500000) scale(-1, 1) translate(-205.730100, -481.500000) " x="165.7301" y="418" width="80" height="127" rx="38.9901"></rect>
                    <path d="M60.9531,346.112 C27.2898,346.112 -4.97379915e-14,318.822 -4.97379915e-14,285.158 C-4.97379915e-14,251.495 27.2898,224.205 60.9531,224.205 C94.6171,224.205 121.9071,251.495 121.9071,285.158 C121.9071,318.822 94.6171,346.112 60.9531,346.112 Z" id="Path" fill="#EBBAAA" fill-rule="nonzero"></path>
                    <path d="M344.8951,349.196 C378.5591,349.196 405.8491,321.906 405.8491,288.242 C405.8491,254.579 378.5591,227.289 344.8951,227.289 C311.2321,227.289 283.9421,254.579 283.9421,288.242 C283.9421,321.906 311.2321,349.196 344.8951,349.196 Z" id="Path" fill="#EBBAAA" fill-rule="nonzero"></path>
                    <path d="M364.6251,179.467 C364.6251,92.2781 293.9451,21.5977 206.7561,21.5977 C119.5681,21.5977 48.8874,92.2781 48.8874,179.467 L48.8874,254.03 L51.4222,335.866 C54.0215,419.782 122.8001,486.463 206.7561,486.463 C287.8691,486.463 354.8961,423.181 359.5541,342.202 L364.6251,254.03 L364.6251,179.467 Z" id="Path" fill="#F4D4C9" fill-rule="nonzero"></path>
                    <path d="M174.9671,217.704 L123.6931,212.198 C122.9781,212.121 122.2741,212.425 121.8401,212.999 L111.6951,226.41 C110.7101,227.711 111.5681,229.585 113.1961,229.691 L176.3521,233.795 C179.1441,233.976 181.2941,231.367 180.5811,228.661 L178.4931,220.735 C178.0601,219.091 176.6571,217.885 174.9671,217.704 Z" id="Path" fill="#393939" fill-rule="nonzero"></path>
                    <path d="M250.0851,218.067 L301.3581,212.561 C302.0741,212.484 302.7771,212.788 303.2111,213.362 L313.3571,226.773 C314.3411,228.074 313.4841,229.948 311.8561,230.054 L248.7001,234.158 C245.9071,234.339 243.7581,231.73 244.4711,229.024 L246.5591,221.098 C246.9921,219.454 248.3951,218.249 250.0851,218.067 Z" id="Path" fill="#393939" fill-rule="nonzero"></path>
                    <path d="M139.1031,264.828 L139.1031,282.828 C139.1031,289.455417 144.475683,294.828 151.1031,294.828 C157.730517,294.828 163.1031,289.455417 163.1031,282.828 L163.1031,264.828 C163.1031,258.200583 157.730517,252.828 151.1031,252.828 C144.475683,252.828 139.1031,258.200583 139.1031,264.828 Z" id="Path" fill="#000000" fill-rule="nonzero"></path>
                    <path d="M257.1031,264.828 L257.1031,282.828 C257.1031,289.455417 262.475683,294.828 269.1031,294.828 C275.730517,294.828 281.1031,289.455417 281.1031,282.828 L281.1031,264.828 C281.1031,258.200583 275.730517,252.828 269.1031,252.828 C262.475683,252.828 257.1031,258.200583 257.1031,264.828 Z" id="Path" fill="#000000" fill-rule="nonzero"></path>
                    <path d="M197.2521,266.679 C200.3361,254.476 191.4941,242.425 178.9151,241.686 L107.6871,237.501 C95.1071,236.762 85.0591,247.704 86.8491,260.192 L91.3241,291.417 C92.6801,300.884 100.5311,308.111 110.0671,308.671 L169.1081,312.14 C178.6441,312.7 187.2021,306.437 189.5401,297.187 L197.2521,266.679 Z" id="Path" fill-opacity="0.29" fill="#FFFFFF" fill-rule="nonzero"></path>
                    <path d="M200.8711,274.566 C200.2361,277.819 197.0851,279.941 193.8331,279.306 C190.5811,278.671 188.4591,275.52 189.0931,272.268 L200.8711,274.566 Z M197.2181,261.961 L191.3291,260.811 L191.3711,260.597 L191.4281,260.386 L197.2181,261.961 Z M182.6011,243.156 L182.7251,237.158 L182.9971,237.163 L183.2671,237.193 L182.6011,243.156 Z M104.1181,241.544 L103.4961,235.576 L103.8681,235.538 L104.2411,235.545 L104.1181,241.544 Z M88.2931,257.222 L82.3371,257.949 L82.3301,257.896 L82.3251,257.844 L88.2931,257.222 Z M95.9601,270.534 C96.3621,273.823 94.0201,276.815 90.7311,277.216 C87.4421,277.617 84.4501,275.276 84.0491,271.987 L95.9601,270.534 Z M189.0931,272.268 L191.3291,260.811 L203.1071,263.11 L200.8711,274.566 L189.0931,272.268 Z M191.4281,260.386 C191.4151,260.434 191.5841,259.621 191.2931,258.279 C191.0261,257.046 190.3891,255.468 188.9601,253.844 L197.9711,245.918 C203.6881,252.418 204.0431,259.73 203.0081,263.535 L191.4281,260.386 Z M188.9601,253.844 C187.3161,251.974 185.6361,250.781 184.2741,250.051 C182.8261,249.275 181.9201,249.118 181.9351,249.119 L183.2671,237.193 C186.6771,237.574 192.7501,239.983 197.9711,245.918 L188.9601,253.844 Z M182.4781,249.155 L103.9951,247.543 L104.2411,235.545 L182.7251,237.158 L182.4781,249.155 Z M104.7401,247.512 C103.9931,247.59 102.3751,247.919 100.6601,248.659 C98.9281,249.406 97.5691,250.367 96.7661,251.424 L87.2081,244.168 C89.6951,240.892 93.0651,238.866 95.9071,237.64 C98.7671,236.407 101.5701,235.777 103.4961,235.576 L104.7401,247.512 Z M96.7661,251.424 C95.5321,253.049 94.8891,254.466 94.5661,255.47 C94.2051,256.591 94.3021,256.999 94.2601,256.601 L82.3251,257.844 C81.9951,254.68 83.2051,249.441 87.2081,244.168 L96.7661,251.424 Z M94.2481,256.496 L95.9601,270.534 L84.0491,271.987 L82.3371,257.949 L94.2481,256.496 Z" id="Shape" fill="#000000" fill-rule="nonzero"></path>
                    <path d="M331.7841,259.183 C333.3661,246.661 323.1391,235.906 310.5751,236.879 L239.4231,242.389 C226.8601,243.362 218.2201,255.578 221.5071,267.723 L229.7231,298.079 C232.2151,307.284 240.8741,313.387 250.3971,312.65 L309.3781,308.082 C318.9011,307.345 326.6301,299.972 327.8291,290.481 L331.7841,259.183 Z" id="Path" fill-opacity="0.29" fill="#FFFFFF" fill-rule="nonzero"></path>
                    <path d="M335.4101,272.618 C334.8811,275.89 331.8011,278.113 328.5291,277.584 C325.2581,277.055 323.0351,273.975 323.5641,270.704 L335.4101,272.618 Z M331.3491,260.138 L325.4261,259.18 L325.4611,258.965 L325.5111,258.752 L331.3491,260.138 Z M316.1291,241.818 L316.0581,235.819 L316.3301,235.815 L316.6011,235.837 L316.1291,241.818 Z M237.6351,242.756 L236.8201,236.811 L237.1901,236.761 L237.5631,236.756 L237.6351,242.756 Z M222.3271,258.94 L216.3981,259.859 L216.3901,259.807 L216.3831,259.755 L222.3271,258.94 Z M230.4231,271.995 C230.9311,275.27 228.6881,278.336 225.4141,278.844 C222.1391,279.352 219.0731,277.109 218.5651,273.834 L230.4231,271.995 Z M323.5641,270.704 L325.4261,259.18 L337.2721,261.095 L335.4101,272.618 L323.5641,270.704 Z M325.5111,258.752 C325.5001,258.8 325.6421,257.982 325.3081,256.651 C325.0011,255.427 324.3131,253.87 322.8321,252.293 L331.5801,244.08 C337.5051,250.39 338.0981,257.687 337.1871,261.523 L325.5111,258.752 Z M322.8321,252.293 C321.1281,250.478 319.4101,249.34 318.0251,248.655 C316.5521,247.927 315.6421,247.798 315.6581,247.8 L316.6011,235.837 C320.0221,236.107 326.1701,238.317 331.5801,244.08 L322.8321,252.293 Z M316.2011,247.818 L237.7071,248.755 L237.5631,236.756 L316.0581,235.819 L316.2011,247.818 Z M238.4501,248.7 C237.7061,248.802 236.1001,249.184 234.4101,249.979 C232.7031,250.782 231.3761,251.786 230.6081,252.869 L220.8191,245.928 C223.1981,242.573 226.5011,240.438 229.3021,239.121 C232.1201,237.795 234.9011,237.075 236.8201,236.811 L238.4501,248.7 Z M230.6081,252.869 C229.4271,254.534 228.8301,255.97 228.5401,256.984 C228.2171,258.116 228.3261,258.522 228.2721,258.124 L216.3831,259.755 C215.9511,256.603 216.9901,251.327 220.8191,245.928 L230.6081,252.869 Z M228.2561,258.02 L230.4231,271.995 L218.5651,273.834 L216.3981,259.859 L228.2561,258.02 Z" id="Shape" fill="#000000" fill-rule="nonzero"></path>
                    <path d="M222.9441,264.787 C218.6101,262.454 207.4441,259.187 197.4441,264.787" id="Path" stroke="#000000" stroke-width="10"></path>
                    <path d="M204.49772,281.138439 C210.797204,292.253308 215.666873,305.161219 216.330207,314.644608 C217.029399,324.640635 213.823225,328.58605 202.6031,328.58605 L202.6031,346.06995 C224.54419,346.06995 235.142675,333.027796 233.771493,313.424642 C232.89117,300.839072 227.179738,285.699918 219.70848,272.517561 L204.49772,281.138439 Z" id="Path" fill="#EBBAAA" fill-rule="nonzero"></path>
                    <path d="M98.2521,125.986 C101.4401,99.2313 104.3171,80.0199 106.4431,62.1833 C107.9481,49.5491 108.6421,29.5264 72.7261,55.9997 C36.8103,82.473 23.9576,146.634 33.728,196 L51.4573,265.343 L62.5471,262.602 L62.2561,188.208 C80.3521,169.992 95.0651,152.741 98.2521,125.986 Z" id="Path" fill="#272727" fill-rule="nonzero"></path>
                    <path d="M345.2641,154.525 C343.7811,127.624 346.8121,129.009 345.8231,111.075 C345.1221,98.3716 342.7171,75.7068 365.3941,99 C377.9101,111.856 393.8941,196.34 378.7281,229 L365.3951,261.953 L360.3371,262.232 L358.0531,220.818 C349.1131,192.121 346.7481,181.425 345.2641,154.525 Z" id="Path" fill="#272727" fill-rule="nonzero"></path>
                    <path d="M204.7671,-1.42108547e-14 L204.7671,-1.42108547e-14 C204.8421,-1.42108547e-14 204.9161,-1.42108547e-14 204.9911,-1.42108547e-14 C205.0651,-1.42108547e-14 205.1401,-1.42108547e-14 205.2141,-1.42108547e-14 L205.2151,-1.42108547e-14 C252.7361,0.168842 377.6031,29.8291 370.7961,153.241 C358.1611,137.705 338.6471,130.929 321.3141,120.791 C284.8271,99.4486 255.0351,91.6355 215.5021,91.6355 C181.5321,91.6355 139.8661,99.5007 111.7251,113.285 C86.5511,125.615 60.2061,134.863 35.6031,153.241 C39.8792,27.1188 157.2481,0.168849 204.7671,-1.42108547e-14 Z" id="Path" fill="#272727"></path>
                    <polygon id="Path" fill="#272727" fill-rule="nonzero" points="91.5281 32.0377 112.1991 30.6516 69.7741 122.345 55.3741 237.76 39.9896 232.85 40.2987 224.37 34.4599 222.307 37.8933 212.589 28.8697 209.401 33.284 196.906 27.3646 191.691 31.2885 180.584 26.7179 171.552 32.8875 160.848 29.8673 155.877 34.0364 144.076 29.2592 142.388 39.6769 128.11 36.3712 122.257 43.6008 117.003 41.276 108.373 50.7127 96.8715 48.8784 86.8536 56.8441 79.517 59.0511 73.2693 65.7501 67.8277 62.4841 63.5508 75.6771 54.9376 76.2511 46.5515 90.1581 40.1425"></polygon>
                    <polygon id="Path" fill="#272727" fill-rule="nonzero" points="135.1031 115.828 128.1031 97.8281 83.6031 115.828 112.1031 123.828 112.1031 112.828"></polygon>
                    <path d="M210.3161,124.734 C169.3161,105.734 135.3931,98.8639 117.5661,88.5792 C135.3161,61.7344 178.8591,64.5692 195.3141,77.7336 C202.3551,86.9201 218.9001,104.164 210.3161,124.734 Z" id="Path" fill="#272727" fill-rule="nonzero"></path>
                    <path d="M236.1041,127.828 C194.6041,99.3282 172.2681,104.692 154.4411,94.4074 C172.1911,67.5625 219.6481,73.6642 236.1041,86.8285 C243.1451,96.0151 253.1041,108.828 236.1041,127.828 Z" id="Path" fill="#272727" fill-rule="nonzero"></path>
                    <path d="M254.8491,130.565 C199.8271,98.6829 176.0001,108.968 158.1741,98.6831 C170.5151,93.1979 143.7751,54.0041 231.7091,72.9714 C257.9341,78.6282 263.4331,109.996 254.8491,130.565 Z" id="Path" fill="#272727" fill-rule="nonzero"></path>
                    <path d="M285.3561,137.102 C248.3311,114.476 231.3291,109.837 213.5021,99.5523 C225.8441,94.0671 257.8841,78.7437 274.3401,91.9081 C281.3811,101.095 293.9401,116.532 285.3561,137.102 Z" id="Path" fill="#272727" fill-rule="nonzero"></path>
                    <path d="M322.8491,143.566 C267.8271,111.683 234.9301,105.112 217.1031,94.8278 C229.4451,89.3426 211.7751,67.0042 299.7091,85.9715 C325.9341,91.6283 331.4331,122.996 322.8491,143.566 Z" id="Path" fill="#272727" fill-rule="nonzero"></path>
                    <path d="M349.7431,160.197 C301.2421,120.697 302.0681,95.9823 284.2421,85.6977 C296.5831,80.2126 321.7441,69.1974 343.2431,96.6973 C369.4681,102.354 358.3271,139.628 349.7431,160.197 Z" id="Path" fill="#272727" fill-rule="nonzero"></path>
                    <path d="M245.6021,369.432 L245.6021,383.298 C245.6021,404.598 228.3351,421.866 207.0351,421.866 C185.7341,421.866 168.4671,404.598 168.4671,383.298 L168.4671,369.432 L245.6021,369.432 Z" id="Path" fill="#393939"></path>
                    <g id="Clipped" transform="translate(167.728100, 362.000000)">
                        <mask id="mask-6" fill="white">
                            <use xlink:href="#path-5"></use>
                        </mask>
                        <g id="Path"></g>
                        <g id="Group" mask="url(#mask-6)" fill-rule="nonzero">
                            <g transform="translate(0.000000, 5.000000)">
                                <ellipse id="Oval" fill="#FF6C6C" transform="translate(37.250000, 55.770000) scale(-1, 1) translate(-37.250000, -55.770000) " cx="37.25" cy="55.77" rx="23.2582" ry="12.6667"></ellipse>
                                <rect id="Rectangle" fill="#FFFFFF" transform="translate(39.306650, 8.385500) scale(-1, 1) translate(-39.306650, -8.385500) " x="0.7393" y="0.432" width="77.1347" height="15.907"></rect>
                            </g>
                        </g>
                    </g>
                </g>
            </g>
        </g>
    </g>
</svg>