<?xml version="1.0" encoding="UTF-8"?>
<svg width="446px" height="1453px" viewBox="0 0 446 1453" version="1.1" xmlns="http://www.w3.org/2000/svg" xmlns:xlink="http://www.w3.org/1999/xlink">
    <!-- Generator: Sketch 55.2 (78181) - https://sketchapp.com -->
    <title>gee_me_067</title>
    <desc>Created with Sketch.</desc>
    <defs>
        <path d="M76.625,0 C76.96,2.046 77.135,4.146 77.135,6.287 L77.135,20.47 C77.135,41.77 59.868,59.037 38.567,59.037 C17.267,59.037 0,41.77 0,20.47 L0,6.287 C0,4.146 0.175,2.046 0.51,0 L76.625,0 Z" id="path-1"></path>
    </defs>
    <g id="GEE!-ME" stroke="none" stroke-width="1" fill="none" fill-rule="evenodd">
        <g id="gee_me_067" transform="translate(-377.000000, -75.000000)">
            <g transform="translate(377.000000, 75.000000)">
                <g id="lower-limb" transform="translate(8.000000, 905.000000)" fill-rule="nonzero">
                    <path d="M287.5,217 C299.528762,217 309.302775,226.653726 309.497053,238.63619 L309.5,239 L309.5,467 C309.5,479.150264 299.650264,489 287.5,489 C275.471238,489 265.697225,479.346274 265.502947,467.36381 L265.5,467 L265.5,239 C265.5,226.849736 275.349736,217 287.5,217 Z" id="07" fill="#EBBAAA"></path>
                    <path d="M139.5,217 C151.528762,217 161.302775,226.653726 161.497053,238.63619 L161.5,239 L161.5,467 C161.5,479.150264 151.650264,489 139.5,489 C127.471238,489 117.697225,479.346274 117.502947,467.36381 L117.5,467 L117.5,239 C117.5,226.849736 127.349736,217 139.5,217 Z" id="06" fill="#EBBAAA"></path>
                    <path d="M260.67,475.58 C260.67,475.58 261.169,442.51 263.662,445.02 C266.156,447.52 277.619,454.04 293.088,454.04 C308.548,454.04 318.025,448.53 321.516,445.02 C325.007,441.51 328.253,475.58 328.253,475.58 L260.67,475.58 Z" id="Vector-496" fill="#3F4347"></path>
                    <g id="Group-125" transform="translate(240.000000, 436.000000)">
                        <path d="M72.646,11.89 C76.045,6.37 81.294,5.96 85.469,2.73 C87.637,5.64 87.594,9.98 89.638,15.73 L102.329,30.5 L124.301,52.72 L144.959,63.18 L133.045,77.59 C124.649,71.42 76.653,23.19 72.646,11.89 Z" id="Vector-334" fill="#C2C6CA"></path>
                        <path d="M2.436,88.39 C2.436,88.39 1.32,63.71 6.36,49.94 C11.4,36.17 16.217,0.81 16.217,0.81 C16.217,0.81 25.765,10.64 43.217,10.34 L76.105,9.78 C76.105,9.78 105.787,48.79 114.342,53.9 C122.897,59.02 170.828,68.13 170.828,68.13 C179.883,67.98 187.352,75.19 187.513,84.25 L187.658,92.45 L88.236,94.16 L2.436,88.39 Z" id="Vector-236" fill="#E0E2E4"></path>
                        <path d="M87.463,31 C84.9,27.24 79.664,19.12 79.223,16.74 C56.328,21.11 25.367,21.16 13.797,16.39 C10.958,25.38 9.701,37.5 9.701,37.5 C11.768,41.44 33.986,48.72 42.499,50.06 C46.931,46.51 50.265,45.56 53.725,43.51 C59.153,40.3 77.324,31.84 87.463,31 Z" id="Vector-455" fill="#C2C6CA"></path>
                        <path d="M37.978,68.07 C34.432,66.17 14.228,59.32 5.155,54.51 C0.817,57.77 1.872,76.7 2.064,87.63 L46.032,88.85 C43.39,80.62 39.173,69.2 37.978,68.07 Z" id="Vector-456" fill="#C2C6CA"></path>
                        <path d="M62.692,63.2 C67.337,64.61 71.111,64.54 73.288,62.96 C78.899,58.82 75.541,52.19 74.111,49.59 C76.722,52.8 79.315,56.02 81.315,59.5 C84.468,64.95 85.716,70.86 83.402,74.57 C79.252,81.26 69.769,77.87 63.744,74.97 L7.83,48.05 L62.692,63.2 Z" id="Vector" fill="#C2C6CA"></path>
                        <path d="M145.608,71.72 C158.115,72.99 174.1,73.21 177.025,69.19 L156.452,63.58 L129.31,53.62 L122.382,57.22 L123.433,60.18 L108.621,69.88 L115.268,78.7 L115.366,78.66 C120.23,76.39 132.978,70.43 145.608,71.72 Z" id="Vector-454" fill="#C2C6CA"></path>
                        <path d="M89.0009242,14.6168521 C90.6208571,13.941366 92.4816618,14.7069914 93.1571479,16.3269242 C93.8085095,17.8890023 93.119858,19.6750544 91.6173442,20.4063037 L91.4470758,20.4831479 L86.1950758,22.6731479 C84.5751429,23.348634 82.7143382,22.5830086 82.0388521,20.9630758 C81.3874905,19.4009977 82.076142,17.6149456 83.5786558,16.8836963 L83.7489242,16.8068521 L89.0009242,14.6168521 Z" id="Vector-337" fill="#F1F5F9"></path>
                        <path d="M97.1459242,23.4168521 C98.7658571,22.741366 100.626662,23.5069914 101.302148,25.1269242 C101.953509,26.6890023 101.264858,28.4750544 99.7623442,29.2063037 L99.5920758,29.2831479 L94.3400758,31.4731479 C92.7201429,32.148634 90.8593382,31.3830086 90.1838521,29.7630758 C89.5324905,28.2009977 90.221142,26.4149456 91.7236558,25.6836963 L91.8939242,25.6068521 L97.1459242,23.4168521 Z" id="Vector-338" fill="#F1F5F9"></path>
                        <path d="M104.287171,32.2288385 C105.906007,31.5507275 107.768051,32.3133357 108.446162,33.9321715 C109.100054,35.4931917 108.414299,37.2803577 106.912972,38.0140415 L106.742829,38.0911615 L101.490829,40.2911615 C99.8719927,40.9692725 98.0099494,40.2066643 97.3318385,38.5878285 C96.6779457,37.0268083 97.3637013,35.2396423 98.8650278,34.5059585 L99.0351715,34.4288385 L104.287171,32.2288385 Z" id="Vector-339" fill="#F1F5F9"></path>
                        <path d="M112.431171,41.0288385 C114.050007,40.3507275 115.912051,41.1133357 116.590162,42.7321715 C117.244054,44.2931917 116.558299,46.0803577 115.056972,46.8140415 L114.886829,46.8911615 L109.634829,49.0911615 C108.015993,49.7692725 106.153949,49.0066643 105.475838,47.3878285 C104.821946,45.8268083 105.507701,44.0396423 107.009028,43.3059585 L107.179171,43.2288385 L112.431171,41.0288385 Z" id="Vector-340" fill="#F1F5F9"></path>
                        <path d="M124.570171,49.7588385 C126.189007,49.0807275 128.051051,49.8433357 128.729162,51.4621715 C129.383054,53.0231917 128.697299,54.8103577 127.195972,55.5440415 L127.025829,55.6211615 L121.773829,57.8211615 C120.154993,58.4992725 118.292949,57.7366643 117.614838,56.1178285 C116.960946,54.5568083 117.646701,52.7696423 119.148028,52.0359585 L119.318171,51.9588385 L124.570171,49.7588385 Z" id="Vector-341" fill="#F1F5F9"></path>
                        <path d="M1.19,87.39 L94.871,89.97 L187.874,84.15 L189.547,96.17 C190.06,99.87 187.3,103.21 183.576,103.4 L97.126,107.82 L48.832,109.19 L0.502,108.45 L1.19,87.39 Z" id="Rectangle-176" fill="#F1F5F9"></path>
                        <path d="M188.168051,98.4103769 L189.981949,104.129623 C181.830275,106.714981 101.165476,110.715691 70.4644623,111.293112 L67.5521239,111.337459 C60.4198708,111.416455 49.8151062,111.334632 35.915131,111.124267 L26.0352759,110.963284 L0.866641939,110.50961 L0.963358061,104.51039 L27.1810897,104.982099 L37.6192733,105.149008 C52.0029624,105.36014 62.6995344,105.426391 69.4466816,105.310439 L72.1836627,105.256519 C102.849787,104.581422 179.42175,100.756822 187.924623,98.4809872 L188.168051,98.4103769 Z" id="Vector-335" fill="#9EA5AC"></path>
                    </g>
                    <g id="Group-177" transform="translate(0.000000, 436.000000)">
                        <path d="M117.354,11.89 C113.955,6.37 108.706,5.96 104.531,2.73 C102.363,5.64 102.406,9.98 100.362,15.73 L87.6708,30.5 L65.6994,52.72 L45.0409,63.18 L56.955,77.59 C65.3511,71.42 113.347,23.19 117.354,11.89 Z" id="Vector-334_2" fill="#C2C6CA"></path>
                        <path d="M187.564,88.39 C187.564,88.39 188.68,63.71 183.64,49.94 C178.6,36.17 173.783,0.81 173.783,0.81 C173.783,0.81 164.235,10.64 146.783,10.34 L113.895,9.78 C113.895,9.78 84.2134,48.79 75.6584,53.9 C67.1034,59.02 19.1721,68.13 19.1721,68.13 C10.1168,67.98 2.6479,75.19 2.4873,84.25 L2.3417,92.45 L101.764,94.16 L187.564,88.39 Z" id="Vector-236_2" fill="#E0E2E4"></path>
                        <path d="M102.537,31 C105.1,27.24 110.336,19.12 110.777,16.74 C133.672,21.11 164.633,21.16 176.203,16.39 C179.042,25.38 180.299,37.5 180.299,37.5 C178.232,41.44 156.014,48.72 147.501,50.06 C143.069,46.51 139.735,45.56 136.275,43.51 C130.847,40.3 112.676,31.84 102.537,31 Z" id="Vector-455_2" fill="#C2C6CA"></path>
                        <path d="M152.022,68.07 C155.568,66.17 175.772,59.32 184.845,54.51 C189.183,57.77 188.128,76.7 187.936,87.63 L143.968,88.85 C146.61,80.62 150.827,69.2 152.022,68.07 Z" id="Vector-456_2" fill="#C2C6CA"></path>
                        <path d="M127.308,63.2 C122.663,64.61 118.889,64.54 116.712,62.96 C111.101,58.82 114.459,52.19 115.889,49.59 C113.278,52.8 110.685,56.02 108.685,59.5 C105.532,64.95 104.284,70.86 106.598,74.57 C110.748,81.26 120.231,77.87 126.256,74.97 L182.17,48.05 L127.308,63.2 Z" id="Vector_2" fill="#C2C6CA"></path>
                        <path d="M44.392,71.72 C31.8847,72.99 15.9004,73.21 12.9747,69.19 L33.5481,63.58 L60.69,53.62 L67.6183,57.22 L66.5675,60.18 L81.3789,69.88 L74.7319,78.7 L74.6338,78.66 C69.7705,76.39 57.0222,70.43 44.392,71.72 Z" id="Vector-454_2" fill="#C2C6CA"></path>
                        <path d="M96.8428521,16.3269242 C97.4942137,14.7648461 99.2477402,13.9971432 100.824655,14.5499663 L100.999076,14.6168521 L106.251076,16.8068521 C107.871009,17.4823382 108.636634,19.3431429 107.961148,20.9630758 C107.309786,22.5251539 105.55626,23.2928568 103.979345,22.7400337 L103.804924,22.6731479 L98.5529242,20.4831479 C96.9329914,19.8076618 96.167366,17.9468571 96.8428521,16.3269242 Z" id="Vector-337_2" fill="#F1F5F9"></path>
                        <path d="M88.6982852,25.1268449 C89.349689,23.5647844 91.1032363,22.7971289 92.680136,23.3499947 L92.8545551,23.4168852 L98.1061551,25.6068852 C99.7260697,26.2824151 100.491645,28.1432405 99.8161148,29.7631551 C99.164711,31.3252156 97.4111637,32.0928711 95.834264,31.5400053 L95.6598449,31.4731148 L90.4082449,29.2831148 C88.7883303,28.6075849 88.0227553,26.7467595 88.6982852,25.1268449 Z" id="Vector-338_2" fill="#F1F5F9"></path>
                        <path d="M81.5542301,33.9321914 C82.2081123,32.3711667 83.9628756,31.6062952 85.5388959,32.1616629 L85.7132086,32.2288301 L90.9653086,34.4288301 C92.5841491,35.1069301 93.3467699,36.9689682 92.6686699,38.5878086 C92.0147877,40.1488333 90.2600244,40.9137048 88.6840041,40.3583371 L88.5096914,40.2911699 L83.2575914,38.0911699 C81.6387509,37.4130699 80.8761301,35.5510318 81.5542301,33.9321914 Z" id="Vector-339_2" fill="#F1F5F9"></path>
                        <path d="M73.4094301,42.7321914 C74.0633123,41.1711667 75.8180756,40.4062952 77.3940959,40.9616629 L77.5684086,41.0288301 L82.8205086,43.2288301 C84.4393491,43.9069301 85.2019699,45.7689682 84.5238699,47.3878086 C83.8699877,48.9488333 82.1152244,49.7137048 80.5392041,49.1583371 L80.3648914,49.0911699 L75.1127914,46.8911699 C73.4939509,46.2130699 72.7313301,44.3510318 73.4094301,42.7321914 Z" id="Vector-340_2" fill="#F1F5F9"></path>
                        <path d="M61.2708385,51.4621715 C61.9247312,49.9011512 63.6794997,49.1362916 65.2555162,49.69167 L65.4298285,49.7588385 L70.6818285,51.9588385 C72.3006643,52.6369494 73.0632725,54.4989927 72.3851615,56.1178285 C71.7312688,57.6788488 69.9765003,58.4437084 68.4004838,57.88833 L68.2261715,57.8211615 L62.9741715,55.6211615 C61.3553357,54.9430506 60.5927275,53.0810073 61.2708385,51.4621715 Z" id="Vector-341_2" fill="#F1F5F9"></path>
                        <path d="M188.81,87.39 L95.129,89.97 L2.1265,84.15 L0.45336,96.17 C-0.06031,99.87 2.7002,103.21 6.4236,103.4 L92.874,107.82 L141.168,109.19 L189.498,108.45 L188.81,87.39 Z" id="Rectangle-176_2" fill="#F1F5F9"></path>
                        <path d="M1.83161534,98.4103664 C8.97801042,100.676802 86.8308453,104.574391 117.816553,105.256523 L121.714562,105.328087 C128.500361,105.418582 138.796132,105.348411 152.380727,105.149008 L163.861559,104.964171 L189.036642,104.51039 L189.133358,110.50961 L162.920912,110.981232 L151.666175,111.16005 C138.419421,111.351354 128.349954,111.417283 121.625014,111.327425 L120.450682,111.309561 C90.7714703,110.80179 9.89126421,106.821852 0.286883369,104.208406 L0.0177846555,104.129634 L1.83161534,98.4103664 Z" id="Vector-335_2" fill="#9EA5AC"></path>
                    </g>
                    <path d="M215,113.77 C278.513,113.77 330,90.264 330,61.269 C330,32.274 278.513,8.769 215,8.769 C151.487,8.769 100,32.274 100,61.269 C100,90.264 151.487,113.77 215,113.77 Z" id="05" fill="#35383E"></path>
                    <polygon id="04" fill="#35383E" points="216 0.769 71 0.769 96 354.77 106.715 409.77 174.715 409.77 181 364.77"></polygon>
                    <polygon id="03" fill="#35383E" points="214 0.769 359 0.769 334 354.77 323.285 409.77 255.285 409.77 249 364.77"></polygon>
                    <polygon id="02" fill="#1D1F23" points="252 406 328 406 324 428 255.743 428"></polygon>
                    <polygon id="01" fill="#1D1F23" points="178 406 102 406 106 428 174.257 428"></polygon>
                </g>
                <g id="upper-limb" transform="translate(0.000003, 406.000000)" fill-rule="nonzero">
                    <path d="M222.999997,126 C283.750997,126 332.999997,102.495 332.999997,73.5 C332.999997,44.505 283.750997,21 222.999997,21 C162.248997,21 112.999997,44.505 112.999997,73.5 C112.999997,102.495 162.248997,126 222.999997,126 Z" id="02" fill="#40424E"></path>
                    <path d="M388.169997,143.964 C373.397997,111.744 352.160997,103 352.160997,103 L338.999997,280.054 L338.999997,547 C482.761997,502.308 463.170997,307.544 388.169997,143.964 Z" id="Vector-878" fill="#40424E"></path>
                    <path d="M57.8298966,143.964 C72.6023966,111.744 93.8394966,103 93.8394966,103 L107,280.054 L107,547 C-36.7613034,502.308 -17.1707034,307.544 57.8298966,143.964 Z" id="Vector-1254" fill="#40424E"></path>
                    <path d="M75.0348966,143.863 C73.8514966,120.072 89.6158966,98.749 112.707997,92.906 L222.999997,65 L333.291997,92.906 C356.383997,98.749 372.148997,120.072 370.964997,143.863 L362.999997,304 L372.639997,528.609 C372.847997,533.461 369.572997,537.747 364.815997,538.724 C341.179997,543.576 271.415997,557 222.999997,557 C174.583997,557 104.819997,543.576 81.1836966,538.724 C76.4266966,537.747 73.1518966,533.461 73.3601966,528.609 L83.0000966,304 L75.0348966,143.863 Z" id="Rectangle-284" fill="#313C52"></path>
                    <path d="M107.999997,449 C107.999997,417.52 133.519997,392 164.999997,392 L222.999997,392 L280.999997,392 C312.479997,392 337.999997,417.52 337.999997,449 L337.999997,454.5 L337.999997,517 L107.999997,517 L107.999997,454.5 L107.999997,449 Z" id="Rectangle-78" fill="#40424E"></path>
                    <path d="M260.480997,172.425 C293.048997,166.005 352.554997,82.724 326.634997,60.077 C305.180997,41.332 265.568997,70.108 260.480997,90.17 C256.409997,106.22 245.213997,145.675 238.089997,156.375 C229.947997,164.066 227.911997,178.845 260.480997,172.425 Z" id="Vector-875" fill="#40424E"></path>
                    <path d="M185.518997,172.425 C152.950997,166.005 93.4454966,82.724 119.364997,60.077 C140.818997,41.332 180.430997,70.108 185.518997,90.17 C189.589997,106.22 200.785997,145.675 207.909997,156.375 C216.051997,164.066 218.087997,178.845 185.518997,172.425 Z" id="Vector-1253" fill="#40424E"></path>
                    <path d="M262.999997,149 C266.785448,149 269.869095,152.004783 269.995938,155.75935 L269.999997,156 L269.999997,316 C269.999997,319.865993 266.86599,323 262.999997,323 C259.214545,323 256.130898,319.995217 256.004056,316.24065 L255.999997,316 L255.999997,156 C255.999997,152.134007 259.134003,149 262.999997,149 Z" id="Vector-351" fill="#325944"></path>
                    <path d="M182.999997,149 C186.785448,149 189.869095,152.004783 189.995938,155.75935 L189.999997,156 L189.999997,251 C189.999997,254.865993 186.86599,258 182.999997,258 C179.214545,258 176.130898,254.995217 176.004056,251.24065 L175.999997,251 L175.999997,156 C175.999997,152.134007 179.134003,149 182.999997,149 Z" id="Vector-353" fill="#325944"></path>
                    <path d="M262.999997,308 C265.688751,308 267.881815,310.122307 267.995377,312.78311 L267.999997,313 L267.999997,328 C267.999997,330.761424 265.76142,333 262.999997,333 C260.311242,333 258.118178,330.877693 258.004616,328.21689 L257.999997,328 L257.999997,313 C257.999997,310.238576 260.238573,308 262.999997,308 Z" id="Vector-352" fill="#40424E"></path>
                    <path d="M182.999997,243 C185.688751,243 187.881815,245.122307 187.995377,247.78311 L187.999997,248 L187.999997,263 C187.999997,265.761424 185.76142,268 182.999997,268 C180.311242,268 178.118178,265.877693 178.004616,263.21689 L177.999997,263 L177.999997,248 C177.999997,245.238576 180.238573,243 182.999997,243 Z" id="Vector-352_2" fill="#40424E"></path>
                    <rect id="01" fill="#EBBAAA" x="187.999997" y="0" width="70" height="115" rx="35"></rect>
                    <path d="M222.934997,115 C185.434997,93 187.934997,61 187.934997,61 C154.563997,92.601 153.058997,127.056 175.727997,166.608 C179.934997,118.5 222.934997,115 222.934997,115 Z" id="Vector-1251" fill="#6686B7"></path>
                    <path d="M223.064997,115 C260.564997,93 258.064997,61 258.064997,61 C291.436997,92.601 292.940997,127.056 270.271997,166.608 C266.064997,118.5 223.064997,115 223.064997,115 Z" id="Vector-1252" fill="#6686B7"></path>
                </g>
                <g id="hand" transform="translate(33.999900, 0.000024)">
                    <path d="M340.0001,334.768976 C362.0911,334.768976 380.0001,316.859976 380.0001,294.768976 C380.0001,272.676976 362.0911,254.768976 340.0001,254.768976 C317.9091,254.768976 300.0001,272.676976 300.0001,294.768976 C300.0001,316.859976 317.9091,334.768976 340.0001,334.768976 Z" id="14" fill="#C99584" fill-rule="nonzero" opacity="0.5"></path>
                    <path d="M40,334.768976 C17.9086,334.768976 -1.26476607e-12,316.859976 -1.26476607e-12,294.768976 C-1.26476607e-12,272.676976 17.9086,254.768976 40,254.768976 C62.0914,254.768976 80.0001,272.676976 80.0001,294.768976 C80.0001,316.859976 62.0914,334.768976 40,334.768976 Z" id="13" fill="#C99584" fill-rule="nonzero" opacity="0.5"></path>
                    <path d="M39.0002,202.999976 C39.0002,120.156976 106.1571,52.9999762 189.0001,52.9999762 C271.8431,52.9999762 339.0001,120.156976 339.0001,202.999976 L339.0001,279.469976 L339.0001,312.999976 C339.0001,395.842976 271.8431,462.999976 189.0001,462.999976 C106.1571,462.999976 39.0002,395.842976 39.0002,312.999976 L39.0002,279.469976 L39.0002,202.999976 Z" id="12" fill="#F4D5CC" fill-rule="nonzero"></path>
                    <g id="Group-69" transform="translate(151.000100, 350.999976)">
                        <path d="M77.135,6.603 L77.135,20.469 C77.135,41.769 59.868,59.037 38.567,59.037 C17.267,59.037 0,41.769 0,20.469 L0,6.603 L77.135,6.603 Z" id="Subtract" fill="#393939"></path>
                        <g id="Clipped">
                            <mask id="mask-2" fill="white">
                                <use xlink:href="#path-1"></use>
                            </mask>
                            <g id="Subtract_2"></g>
                            <g id="Group" mask="url(#mask-2)" fill-rule="nonzero">
                                <g transform="translate(0.000000, 4.000000)">
                                    <ellipse id="Ellipse-43" fill="#FF6C6C" transform="translate(36.510000, 55.942000) scale(-1, 1) translate(-36.510000, -55.942000) " cx="36.51" cy="55.942" rx="23.2582" ry="12.6667"></ellipse>
                                    <rect id="Rectangle-64" fill="#FFFFFF" transform="translate(38.567650, 8.557500) scale(-1, 1) translate(-38.567650, -8.557500) " x="0.0003" y="0.604" width="77.1347" height="15.907"></rect>
                                </g>
                            </g>
                        </g>
                    </g>
                    <path d="M343.9921,161.254976 C344.2241,154.984976 339.6831,149.769976 334.0001,149.769976 C328.1041,149.769976 323.4891,155.363976 324.0461,161.838976 L333.4611,271.541976 C333.6191,273.375976 335.0121,274.769976 336.6741,274.769976 C338.4111,274.769976 339.8311,273.262976 339.9061,271.357976 L343.9921,161.254976 Z" id="11" fill="#A9D0BA" fill-rule="nonzero"></path>
                    <path d="M34.0087,161.254976 C33.7765,154.984976 38.3173,149.769976 44.0002,149.769976 C49.8966,149.769976 54.5117,155.363976 53.9545,161.838976 L44.5387,271.541976 C44.3809,273.375976 42.988,274.769976 41.3259,274.769976 C39.5894,274.769976 38.1687,273.262976 38.0944,271.357976 L34.0087,161.254976 Z" id="10" fill="#A9D0BA" fill-rule="nonzero"></path>
                    <path d="M235.9921,122.544976 C295.9861,122.544976 327.5251,121.822976 329.9821,177.414976 C340.0371,195.493976 354.2581,194.091976 356.6061,161.190976 C364.1241,55.8204762 262.9891,-48.5526238 155.0001,24.2758762 L189.0001,72.1631762 C189.0001,72.1631762 225.9931,87.1279762 235.9921,122.544976 Z" id="09" fill="#688274" fill-rule="nonzero"></path>
                    <path d="M142.0081,122.544976 C82.0141,122.544976 50.4755,121.822976 48.0179,177.414976 C37.9628,195.493976 23.7423,194.091976 21.3947,161.190976 C13.8761,55.8204762 115.0111,-48.5526238 223.0001,24.2758762 L189.0001,72.1631762 C189.0001,72.1631762 152.0071,87.1279762 142.0081,122.544976 Z" id="08" fill="#688274" fill-rule="nonzero"></path>
                    <path d="M234.0001,121.000976 C224.2721,89.9509762 205.5001,83.5004762 189.0001,72.0004762 C220.5001,72.0006762 290.0211,35.5005762 312.2501,108.300976 C332.2501,173.800976 361.2501,200.800976 361.2501,200.800976 L332.2501,200.800976 C235.2501,200.800976 245.2081,156.773976 234.0001,121.000976 Z" id="07" fill="#82A190" fill-rule="nonzero"></path>
                    <path d="M144.3331,121.000976 C154.0611,89.9509762 172.8331,83.5004762 189.3331,72.0004762 C157.8331,72.0006762 88.3121,35.5005762 66.0831,108.300976 C46.0837,173.800976 17.0832,200.800976 17.0832,200.800976 L46.0832,200.800976 C143.0831,200.800976 133.1251,156.773976 144.3331,121.000976 Z" id="06" fill="#82A190" fill-rule="nonzero"></path>
                    <path d="M224.017071,204.186633 C224.333239,198.766607 228.909887,194.607374 234.30279,194.773482 L234.582443,194.785947 L294.582443,198.285947 C300.095918,198.607566 304.304749,203.337845 303.983129,208.85132 C303.666961,214.271346 299.090313,218.430578 293.69741,218.26447 L293.417757,218.252006 L233.417757,214.752006 C227.904282,214.430386 223.695451,209.700108 224.017071,204.186633 Z" id="05" fill="#393939" fill-rule="nonzero"></path>
                    <path d="M143.417757,194.785947 C148.931232,194.464327 153.66151,198.673158 153.983129,204.186633 C154.299298,209.606659 150.237289,214.269813 144.861649,214.73187 L144.582443,214.752006 L84.5824434,218.252006 C79.0689685,218.573625 74.33869,214.364795 74.0170706,208.85132 C73.7009024,203.431293 77.762911,198.76814 83.1385505,198.306082 L83.4177566,198.285947 L143.417757,194.785947 Z" id="04" fill="#393939" fill-rule="nonzero"></path>
                    <path d="M182.927672,280.053025 L197.072528,289.482928 C192.265105,296.694062 188.5001,307.51845 188.5001,315.392976 C188.5001,322.985996 191.242095,326.177683 199.636855,326.266084 L200.0001,326.267976 L200.0001,343.267976 C181.456981,343.267976 171.5001,332.066485 171.5001,315.392976 C171.5001,304.097868 176.199035,290.38673 182.578077,280.583815 L182.927672,280.053025 Z" id="03" fill="#EBBAAA" fill-rule="nonzero"></path>
                    <path d="M248.5371,229.175976 C255.062557,229.175976 260.371493,234.384521 260.5333,240.871001 L260.5371,241.175976 L260.5371,269.065976 C260.5371,275.693393 255.164517,281.065976 248.5371,281.065976 C242.011643,281.065976 236.702707,275.857432 236.5409,269.370951 L236.5371,269.065976 L236.5371,241.175976 C236.5371,234.548559 241.909683,229.175976 248.5371,229.175976 Z" id="02" fill="#000000" fill-rule="nonzero"></path>
                    <path d="M123.4601,229.175976 C129.985557,229.175976 135.294493,234.384521 135.4563,240.871001 L135.4601,241.175976 L135.4601,269.065976 C135.4601,275.693393 130.087517,281.065976 123.4601,281.065976 C116.934643,281.065976 111.625707,275.857432 111.4639,269.370951 L111.4601,269.065976 L111.4601,241.175976 C111.4601,234.548559 116.832683,229.175976 123.4601,229.175976 Z" id="01" fill="#000000" fill-rule="nonzero"></path>
                </g>
            </g>
        </g>
    </g>
</svg>