<?xml version="1.0" encoding="UTF-8"?>
<svg width="630px" height="1332px" viewBox="0 0 630 1332" version="1.1" xmlns="http://www.w3.org/2000/svg" xmlns:xlink="http://www.w3.org/1999/xlink">
    <!-- Generator: Sketch 55.2 (78181) - https://sketchapp.com -->
    <title>gee_me_015</title>
    <desc>Created with Sketch.</desc>
    <defs>
        <path d="M-1.42108547e-14,15.349 C0.095,16.297 0.217,17.249 0.368,18.202 L3.185,35.986 C7.43,62.792 32.603,81.081 59.409,76.836 C86.215,72.59 104.504,47.418 100.258,20.612 L97.441,2.827 C97.29,1.874 97.113,0.931 96.91,2.27373675e-13 L-1.42108547e-14,15.349 Z" id="path-1"></path>
    </defs>
    <g id="GEE!-ME" stroke="none" stroke-width="1" fill="none" fill-rule="evenodd">
        <g id="gee_me_015" transform="translate(-285.000000, -134.000000)">
            <g transform="translate(285.000000, 134.000000)">
                <g id="lower-limb" transform="translate(54.000000, 899.471300)" fill-rule="nonzero">
                    <path d="M247.767364,87.0251073 C253.664399,115.527443 259.581929,162.262475 262.84308,208.151527 C266.547509,260.278136 266.547509,306.066631 262.371869,335.29611 C259.481989,355.525268 273.538252,374.266952 293.76741,377.156831 C313.996568,380.046711 332.738252,365.990448 335.628131,345.76129 C340.702491,310.240769 340.702491,259.832835 336.65692,202.905873 C333.178984,153.966336 326.86125,104.070594 320.232636,72.0322927 C316.092484,52.0215606 296.514325,39.155913 276.503593,43.2960645 C256.492861,47.4362159 243.627213,67.0143753 247.767364,87.0251073 Z" id="Path" fill="#EBBAAA"></path>
                    <path d="M95.0004579,71.9560597 C85.8386283,122.711361 84.5824053,175.298683 89.8856396,228.920274 C94.1117392,271.650836 102.278697,313.145894 113.322691,353.333271 C118.737606,373.037304 139.100537,384.620924 158.804571,379.206009 C178.508604,373.791094 190.092224,353.428163 184.677309,333.724129 C174.681423,297.350653 167.310727,259.901281 163.52636,221.637126 C158.862738,174.482726 159.956846,128.681775 167.823542,85.1013403 C171.453511,64.9918009 158.09418,45.7471269 137.98464,42.1171579 C117.875101,38.4871889 98.6304269,51.8465202 95.0004579,71.9560597 Z" id="Path" fill="#EBBAAA"></path>
                    <polygon id="Path" fill="#2B2D2F" points="57.793 34.1587 211 34.1587 197 204.5287 38 184.5287"></polygon>
                    <ellipse id="Oval" fill="#2B2D2F" cx="208.09" cy="53.7997" rx="113.577" ry="53.7997"></ellipse>
                    <polygon id="Path" fill="#2B2D2F" points="203 34.1587 351.702 34.1587 370 186.5287 231.502 200.5287"></polygon>
                    <path d="M190.582353,5.49729238 L181.582353,61.4972924 C181.012722,65.0416612 183.424224,68.3767167 186.968592,68.9463474 C190.512961,69.5159781 193.848017,67.1044764 194.417647,63.5601076 L203.417647,7.56010762 C203.987278,4.01573882 201.575776,0.680683286 198.031408,0.111052587 C194.487039,-0.458578113 191.151983,1.95292358 190.582353,5.49729238 Z" id="Path" fill="#E5ECF3"></path>
                    <path d="M210.523216,18.07758 L215.523216,77.07758 C215.826354,80.654609 218.971851,83.308622 222.54888,83.005484 C226.125909,82.7023459 228.779922,79.556849 228.476784,75.97982 L223.476784,16.97982 C223.173646,13.402791 220.028149,10.748778 216.45112,11.051916 C212.874091,11.3550541 210.220078,14.500551 210.523216,18.07758 Z" id="Path" fill="#E5ECF3"></path>
                    <g id="Group-3" transform="translate(0.000000, 313.528700)">
                        <path d="M23,76 C37,63 89.333,44 114,34 L180,0 L193,61 L193,87 C193,98.6 183.598,108 172,108 L23,108 C16.3335,96.67 11.2169,86.94 23,76 Z" id="Path" fill="#EBBAAA"></path>
                        <path d="M0,119 C0,107.95 8.9543,99 20,99 L197,99 L201,119 L0,119 Z" id="Path" fill="#2E2622"></path>
                        <path d="M38.063808,96.812064 C38.0588769,96.7972706 37.9839575,96.5225663 37.8904913,96.0552351 C37.4890983,94.0482699 37.4890983,91.9120653 38.063808,90.187936 C38.4923407,88.9023381 39.3344075,86.977614 40.4775361,84.6650778 C40.8012606,84.0101869 41.1456287,83.3309573 41.5078985,82.6317512 C42.4496378,80.8141287 43.4663228,78.9485472 44.4836236,77.146336 C44.8398869,76.5151934 45.1700159,75.9384001 45.4649624,75.4292418 C45.6384564,75.1297436 45.7590875,74.9236865 45.8178755,74.8241992 C48.2060647,70.7826481 46.8657502,65.5703138 42.8241992,63.1821245 C38.7826481,60.7939353 33.5703138,62.1342498 31.1821245,66.1758008 C31.0990607,66.3163704 30.9537198,66.5646357 30.754853,66.9079342 C30.429198,67.4701038 30.0677997,68.1015304 29.6793413,68.7897083 C28.5688657,70.7569844 27.4577744,72.7957981 26.4135891,74.8111489 C26.0035432,75.602566 25.610874,76.3770645 25.2377959,77.1317972 C23.7789958,80.0829329 22.6600031,82.6406307 21.936192,84.812064 C20.2886795,89.7546013 20.2886795,94.7295079 21.2206198,99.3892094 C21.4604869,100.588545 21.7189009,101.536063 21.936192,102.187936 C23.420698,106.641454 28.2344178,109.048314 32.687936,107.563808 C37.1414542,106.079302 39.5483141,101.265582 38.063808,96.812064 Z" id="Path" fill="#2E2622"></path>
                        <path d="M38.797811,105.949541 C38.8861623,105.528173 39.2241635,104.391022 39.8869599,102.789981 C41.0497924,99.9810613 42.6815362,97.1551363 44.8367519,94.5350701 C51.0287673,87.007522 60.2619172,82.5 74,82.5 C88.1208198,82.5 99.3915298,87.3526668 108.349338,95.5200805 C111.502051,98.3946131 114.128956,101.479236 116.236558,104.541845 C116.957464,105.589412 117.555672,106.546069 118.03294,107.381289 C118.285871,107.823918 118.423585,108.086364 118.448487,108.137829 L135.551513,99.8621712 C135.34204,99.429261 135.003192,98.7835043 134.52956,97.9546488 C133.795891,96.6707277 132.917536,95.2660571 131.888442,93.7706554 C128.996044,89.5676387 125.435449,85.3866369 121.150662,81.4799195 C108.85847,70.2723332 93.1291802,63.5 74,63.5 C54.4880828,63.5 39.9087327,70.617478 30.1632481,82.4649299 C26.7403388,86.6261137 24.1767701,91.0658137 22.3317901,95.5225186 C21.6760438,97.1065291 21.1531064,98.5958844 20.7472654,99.9612722 C20.4818921,100.854078 20.3050014,101.560123 20.202189,102.050459 L38.797811,105.949541 Z" id="Path" fill="#2E2622"></path>
                        <path d="M47.4659848,100.795909 L65.4659848,97.7959089 C73.6375396,96.4339831 79.1578347,88.70557 77.7959089,80.5340152 C76.4339831,72.3624604 68.70557,66.8421653 60.5340152,68.2040911 L42.5340152,71.2040911 C34.3624604,72.5660169 28.8421653,80.29443 30.2040911,88.4659848 C31.5660169,96.6375396 39.29443,102.157835 47.4659848,100.795909 Z" id="Path" fill="#DCB1A3"></path>
                    </g>
                    <g id="Group-2" transform="translate(245.000000, 310.528700)">
                        <path d="M178,76 C164,63 111.667,44 87,34 L21,0 L8,61 L8,87 C8,98.6 17.402,108 29,108 L178,108 C184.667,96.67 189.783,86.94 178,76 Z" id="Path" fill="#EBBAAA"></path>
                        <path d="M201,119 C201,107.95 192.046,99 181,99 L4,99 L0,119 L201,119 Z" id="Path" fill="#2E2622"></path>
                        <path d="M179.063808,102.187936 C179.281099,101.536063 179.539513,100.588545 179.77938,99.3892094 C180.71132,94.7295079 180.71132,89.7546013 179.063808,84.812064 C178.339997,82.6406307 177.221004,80.0829329 175.762204,77.1317972 C175.389126,76.3770645 174.996457,75.602566 174.586411,74.8111489 C173.542226,72.7957981 172.431134,70.7569844 171.320659,68.7897083 C170.9322,68.1015304 170.570802,67.4701038 170.245147,66.9079342 C170.04628,66.5646357 169.900939,66.3163704 169.817875,66.1758008 C167.429686,62.1342498 162.217352,60.7939353 158.175801,63.1821245 C154.13425,65.5703138 152.793935,70.7826481 155.182125,74.8241992 C155.240912,74.9236865 155.361544,75.1297436 155.535038,75.4292418 C155.829984,75.9384001 156.160113,76.5151934 156.516376,77.146336 C157.533677,78.9485472 158.550362,80.8141287 159.492101,82.6317512 C159.854371,83.3309573 160.198739,84.0101869 160.522464,84.6650778 C161.665593,86.977614 162.507659,88.9023381 162.936192,90.187936 C163.510902,91.9120653 163.510902,94.0482699 163.109509,96.0552351 C163.016042,96.5225663 162.941123,96.7972706 162.936192,96.812064 C161.451686,101.265582 163.858546,106.079302 168.312064,107.563808 C172.765582,109.048314 177.579302,106.641454 179.063808,102.187936 Z" id="Path" fill="#2E2622"></path>
                        <path d="M180.797811,102.050459 C180.694999,101.560123 180.518108,100.854078 180.252735,99.9612722 C179.846894,98.5958844 179.323956,97.1065291 178.66821,95.5225186 C176.82323,91.0658137 174.259661,86.6261137 170.836752,82.4649299 C161.091267,70.617478 146.511917,63.5 127,63.5 C107.87082,63.5 92.1415298,70.2723332 79.8493384,81.4799195 C75.5645515,85.3866369 72.0039564,89.5676387 69.1115578,93.7706554 C68.0824642,95.2660571 67.2041094,96.6707277 66.4704401,97.9546488 C65.9968085,98.7835043 65.6579598,99.429261 65.4484871,99.8621712 L82.5515129,108.137829 C82.5764152,108.086364 82.714129,107.823918 82.9670599,107.381289 C83.4443281,106.546069 84.0425358,105.589412 84.7634422,104.541845 C86.8710436,101.479236 89.4979485,98.3946131 92.6506616,95.5200805 C101.60847,87.3526668 112.87918,82.5 127,82.5 C140.738083,82.5 149.971233,87.007522 156.163248,94.5350701 C158.318464,97.1551363 159.950208,99.9810613 161.11304,102.789981 C161.775836,104.391022 162.113838,105.528173 162.202189,105.949541 L180.797811,102.050459 Z" id="Path" fill="#2E2622"></path>
                        <path d="M158.465985,71.2040911 L140.465985,68.2040911 C132.29443,66.8421653 124.566017,72.3624604 123.204091,80.5340152 C121.842165,88.70557 127.36246,96.4339831 135.534015,97.7959089 L153.534015,100.795909 C161.70557,102.157835 169.433983,96.6375396 170.795909,88.4659848 C172.157835,80.29443 166.63754,72.5660169 158.465985,71.2040911 Z" id="Path" fill="#DCB1A3"></path>
                    </g>
                </g>
                <g id="upper-limb" transform="translate(0.048753, 446.016000)">
                    <path d="M155.60121,189.320782 C158.045844,185.646952 160.626709,181.797514 163.497461,177.539649 C167.01482,172.322745 179.198446,154.356197 181.320334,151.214947 C188.224664,140.993754 193.370249,133.263078 198.015343,126.084297 C209.11643,108.928071 204.207771,86.0209918 187.051544,74.9199042 C169.895318,63.8188165 146.988239,68.7274763 135.887151,85.8837027 C131.558071,92.5740994 126.654011,99.9419099 119.999515,109.793249 C117.935031,112.849518 105.726804,130.852342 102.14057,136.171401 C99.1910633,140.546074 96.5285122,144.517349 93.9940132,148.32623 C79.7548743,169.725011 69.1593878,186.621683 60.6074276,202.015212 L58.7199772,205.94049 C41.4473827,248.042702 32.8989994,280.243888 30.3103446,313.896214 C28.0860395,342.812019 29.7978359,368.489441 36.2106756,422.357834 C38.6262773,442.649091 57.0338234,457.140173 77.3250806,454.724571 C97.6163379,452.30897 112.10742,433.901423 109.691818,413.610166 C103.832085,364.387912 102.352368,342.191745 104.092374,319.571786 C105.993208,294.861083 112.388483,270.431799 126.349475,236.067903 C133.60776,223.180092 142.983351,208.28308 155.60121,189.320782 Z" id="Path" fill="#EBBAAA" fill-rule="nonzero"></path>
                    <path d="M96.8412469,159.12 C101.447247,104.761 146.913247,62.984 201.466247,62.984 L308.243247,62.984 C362.458247,62.984 407.759247,104.259 412.790247,158.241 L425.951247,299.461 L416.951247,501.984 L94.9512469,507.984 L84.9512469,299.461 L96.8412469,159.12 Z" id="Path" fill="#D04040" fill-rule="nonzero"></path>
                    <ellipse id="Oval" fill="#993030" fill-rule="nonzero" cx="259.976247" cy="76.863" rx="70.0249" ry="70.8789"></ellipse>
                    <rect id="Rectangle" fill="#EBBAAA" fill-rule="nonzero" x="222.759247" y="-7.10542736e-14" width="76.8567" height="115.285" rx="38.4283"></rect>
                    <path d="M357.786923,130.803313 C360.367731,142.739553 364.401147,154.383818 370.518144,168.834607 C373.119773,174.980693 383.628643,198.427388 386.033521,204.038119 C396.074543,227.46445 402.460452,246.805217 406.584976,268.802676 C414.440519,310.698905 443.251314,345.741502 482.070597,366.397635 C519.83765,386.493865 563.140991,390.756386 596.49815,374.077806 C614.775354,364.939204 622.183655,342.714301 613.045053,324.437097 C603.906451,306.159893 581.681548,298.751592 563.404344,307.890194 C553.887671,312.64853 535.118854,310.80104 516.831896,301.070365 C496.724057,290.370781 482.726251,273.345237 479.317518,255.165324 C474.065803,227.15618 466.057526,202.901808 454.049028,174.885232 C451.300038,168.471667 440.882751,145.229305 438.664301,139.988442 C434.195757,129.431956 431.547048,121.78527 430.115571,115.164687 C425.797083,95.191682 406.104938,82.5011884 386.131934,86.8196759 C366.158929,91.1381634 353.468435,110.830309 357.786923,130.803313 Z" id="Path" fill="#EBBAAA" fill-rule="nonzero"></path>
                    <path d="M2.83524686,200.788 C-0.984053145,196.866 -0.939053145,190.601 2.93614686,186.734 L129.944247,59.984 L189.251247,193.711 L79.9442469,279.984 L2.83524686,200.788 Z" id="Path" fill="#2B2D2F" fill-rule="nonzero"></path>
                    <path d="M92.1402469,124.73 C95.4132469,80.886 131.941247,46.984 175.906247,46.984 L203.432247,46.984 C212.298247,46.984 220.375247,52.08 224.191247,60.083 L248.944247,111.984 L236.944247,309.984 L236.944247,477.562 C236.944247,482.854 232.821247,487.229 227.538247,487.544 L80.1342469,496.318 C74.1722469,496.673 69.2298469,491.755 69.5554469,485.791 L81.4442469,267.984 L92.1402469,124.73 Z" id="Path" fill="#2B2D2F" fill-rule="nonzero"></path>
                    <polygon id="Path" fill="#494C50" fill-rule="nonzero" points="250.944247 112.984 224.944247 34.984 187.944247 45.984 210.944247 140.984"></polygon>
                    <path d="M519.060247,200.788 C522.880247,196.866 522.835247,190.601 518.959247,186.734 L391.951247,59.984 L332.644247,193.711 L441.951247,279.984 L519.060247,200.788 Z" id="Path" fill="#2B2D2F" fill-rule="nonzero"></path>
                    <path d="M429.756247,124.73 C426.482247,80.886 389.954247,46.984 345.989247,46.984 L318.464247,46.984 C309.597247,46.984 301.520247,52.08 297.704247,60.083 L272.951247,111.984 L284.951247,309.984 L284.951247,477.562 C284.951247,482.854 289.074247,487.229 294.357247,487.544 L441.761247,496.318 C447.724247,496.673 452.666247,491.755 452.340247,485.791 L440.451247,267.984 L429.756247,124.73 Z" id="Path" fill="#2B2D2F" fill-rule="nonzero"></path>
                    <polygon id="Path" fill="#494C50" fill-rule="nonzero" points="270.951247 112.984 296.951247 34.984 333.951247 45.984 310.951247 140.984"></polygon>
                    <circle id="Oval" fill="#5F6368" fill-rule="nonzero" cx="297.951247" cy="230.984" r="7"></circle>
                    <circle id="Oval" fill="#5F6368" fill-rule="nonzero" cx="301.951247" cy="291.984" r="7"></circle>
                    <circle id="Oval" fill="#5F6368" fill-rule="nonzero" cx="302.951247" cy="349.984" r="7"></circle>
                    <circle id="Oval" fill="#5F6368" fill-rule="nonzero" cx="302.951247" cy="407.984" r="7"></circle>
                    <circle id="Oval" fill="#5F6368" fill-rule="nonzero" cx="292.951247" cy="169.984" r="7"></circle>
                    <g id="Group" transform="translate(508.644247, 219.087053)">
                        <polygon id="Path" fill="#056D46" fill-rule="nonzero" points="8.474 23.058947 112.544 33.996947 86.971 190.257947 1 181.221947"></polygon>
                        <polygon id="Rectangle" fill="#184936" points="8.89879687 14.896947 113.681023 26.9496814 108.295281 61.896947 7.307 51.1928455"></polygon>
                        <polygon id="Rectangle" fill="#184936" points="2.89879687 145.896947 93.0198906 154.803197 87.6341484 189.750463 1.307 182.192845"></polygon>
                        <circle id="Oval" fill="#DDE3E6" cx="53.807" cy="104.396947" r="31.5"></circle>
                        <rect id="Rectangle" fill="#FFFFFF" fill-rule="nonzero" transform="translate(61.964055, 17.688900) rotate(6.000000) translate(-61.964055, -17.688900) " x="9.64255459" y="6" width="104.643" height="23.3778"></rect>
                        <rect id="Rectangle" fill="#DDE3E6" fill-rule="nonzero" transform="translate(60.566964, 30.974098) rotate(6.000000) translate(-60.566964, -30.974098) " x="1.56596359" y="19.2851979" width="118.002" height="23.3778"></rect>
                    </g>
                    <ellipse id="Oval" fill="#EBBAAA" fill-rule="nonzero" cx="585.451247" cy="379.484" rx="43.5" ry="42.5"></ellipse>
                </g>
                <g id="head" transform="translate(39.220000, 0.000008)">
                    <ellipse id="Oval" fill="#EBBAAA" fill-rule="nonzero" cx="58.618" cy="309.808992" rx="58.0695" ry="55.0806"></ellipse>
                    <ellipse id="Oval" fill="#EBBAAA" fill-rule="nonzero" cx="385.685" cy="314.078992" rx="58.0695" ry="55.0806"></ellipse>
                    <path d="M47.372,208.161992 C45.735,110.797992 124.212,30.9898924 221.59,30.9898924 C318.967,30.9898924 397.445,110.797992 395.807,208.161992 L393.632,337.473992 C392.053,431.361992 315.491,506.646992 221.59,506.646992 C127.688,506.646992 51.126,431.361992 49.547,337.473992 L47.372,208.161992 Z" id="Path" fill="#EED4CC" fill-rule="nonzero"></path>
                    <path d="M185.426,385.177992 L188.184,402.591992 C192.43,429.397992 217.602,447.685992 244.408,443.440992 C271.214,439.194992 289.503,414.022992 285.257,387.216992 L282.499,369.802992 L185.426,385.177992 Z" id="Path" fill="#393939"></path>
                    <g id="Group-6" transform="translate(185.000000, 366.604992)">
                        <mask id="mask-2" fill="white">
                            <use xlink:href="#path-1"></use>
                        </mask>
                        <g id="Path"></g>
                        <ellipse id="Oval" fill="#FF6C6C" fill-rule="nonzero" mask="url(#mask-2)" transform="translate(59.350000, 73.465000) rotate(-9.000000) translate(-59.350000, -73.465000) " cx="59.35" cy="73.465" rx="29.635" ry="16.1304"></ellipse>
                        <rect id="Rectangle" fill="#FFFFFF" fill-rule="nonzero" mask="url(#mask-2)" transform="translate(50.547016, 20.889263) rotate(-9.000000) translate(-50.547016, -20.889263) " x="1.40541619" y="10.7608627" width="98.2832" height="20.2568"></rect>
                    </g>
                    <path d="M124.211466,242.417242 L180.264466,236.525242 C186.85557,235.832419 191.637072,229.92763 190.94425,223.336526 C190.251427,216.745422 184.346638,211.96392 177.755534,212.656743 L121.702534,218.548743 C115.11143,219.241565 110.329928,225.146355 111.02275,231.737459 C111.715573,238.328563 117.620362,243.110065 124.211466,242.417242 Z" id="Path" fill="#393939" fill-rule="nonzero"></path>
                    <path d="M153.032,274.727992 L153.032,302.994992 C153.032,309.622409 158.404583,314.994992 165.032,314.994992 C171.659417,314.994992 177.032,309.622409 177.032,302.994992 L177.032,274.727992 C177.032,268.100575 171.659417,262.727992 165.032,262.727992 C158.404583,262.727992 153.032,268.100575 153.032,274.727992 Z" id="Path" fill="#000000" fill-rule="nonzero"></path>
                    <path d="M270.878,274.727992 L270.878,302.994992 C270.878,309.622409 276.250583,314.994992 282.878,314.994992 C289.505417,314.994992 294.878,309.622409 294.878,302.994992 L294.878,274.727992 C294.878,268.100575 289.505417,262.727992 282.878,262.727992 C276.250583,262.727992 270.878,268.100575 270.878,274.727992 Z" id="Path" fill="#000000" fill-rule="nonzero"></path>
                    <path d="M260.525534,224.934242 L316.578534,230.826242 C323.169638,231.519065 329.074427,226.737563 329.76725,220.146459 C330.460072,213.555355 325.67857,207.650565 319.087466,206.957743 L263.034466,201.065743 C256.443362,200.37292 250.538573,205.154422 249.84575,211.745526 C249.152928,218.33663 253.93443,224.241419 260.525534,224.934242 Z" id="Path" fill="#393939" fill-rule="nonzero"></path>
                    <path d="M35.011,107.039992 C35.011,73.2530924 59.489,43.9922924 92.832,38.5325924 L250.497,12.7159924 C289.748,6.28906237 326.602,33.4108924 332.137,72.7970924 C337.59,111.593992 310.532,147.454992 271.729,152.859992 L112.78,174.999992 C71.753,180.916992 35.011,148.491992 35.011,107.039992 Z" id="Path" fill="#393939" fill-rule="nonzero"></path>
                    <rect id="Rectangle" fill="#393939" fill-rule="nonzero" x="39.78" y="142.999992" width="23" height="123" rx="11.5"></rect>
                    <path d="M105.78,145.999992 C90.58,155.599992 73.78,156.999992 61.78,206.999992 L53.78,156.999992 C77.447,149.333992 120.98,136.399992 105.78,145.999992 Z" id="Path" fill="#393939" fill-rule="nonzero"></path>
                    <rect id="Rectangle" fill="#393939" fill-rule="nonzero" x="375.78" y="157.999992" width="23" height="122" rx="11.5"></rect>
                    <rect id="Rectangle" fill="#393939" fill-rule="nonzero" transform="translate(344.348956, 106.211761) rotate(-20.500000) translate(-344.348956, -106.211761) " x="293.185456" y="30.1267605" width="102.327" height="152.17" rx="51.1635"></rect>
                    <path d="M294.715,0 C291.982,35.1482924 291.78,75.2392924 291.78,75.2392924 L346.806,37.8941924 C346.806,37.8941924 318.199,30.7546924 294.715,0 Z" id="Path" fill="#393939" fill-rule="nonzero"></path>
                    <path d="M78.78,200.251992 C83.45,171.487992 89.642,157.087992 83.45,133.999992 L392.78,133.999992 L392.78,219.999992 L375.304,210.289992 C375.304,178.755992 340.011,190.781992 320.996,171.487992 C290.702,140.747992 256.37,173.692992 236.428,193.538992 C236.428,169.281992 224.842,169.833992 214.639,164.872992 C216.123,187.805992 179.204,203.020992 154.16,203.020992 C154.16,178.213992 154.349,179.756992 143.218,171.487992 C119.506,179.519992 105.934,171.487992 78.78,200.251992 Z" id="Path" fill="#393939" fill-rule="nonzero"></path>
                    <circle id="Oval" fill-opacity="0.2" fill="#000000" cx="150.28" cy="293.499992" r="51.5"></circle>
                    <circle id="Oval" fill-opacity="0.2" fill="#000000" cx="287.28" cy="294.499992" r="51.5"></circle>
                    <path d="M151.138,348.307592 C181.32235,348.307592 205.7916,323.838342 205.7916,293.653992 C205.7916,263.469643 181.32235,239.000392 151.138,239.000392 C120.95365,239.000392 96.4844,263.469643 96.4844,293.653992 C96.4844,323.838342 120.95365,348.307592 151.138,348.307592 Z M151.138,338.307592 C126.476498,338.307592 106.4844,318.315495 106.4844,293.653992 C106.4844,268.99249 126.476498,249.000392 151.138,249.000392 C175.799502,249.000392 195.7916,268.99249 195.7916,293.653992 C195.7916,318.315495 175.799502,338.307592 151.138,338.307592 Z" id="Oval" fill="#2E2622" fill-rule="nonzero"></path>
                    <path d="M286.918,350.869592 C317.10235,350.869592 341.5716,326.400342 341.5716,296.215992 C341.5716,266.031643 317.10235,241.562392 286.918,241.562392 C256.73365,241.562392 232.2644,266.031643 232.2644,296.215992 C232.2644,326.400342 256.73365,350.869592 286.918,350.869592 Z M286.918,340.869592 C262.256498,340.869592 242.2644,320.877495 242.2644,296.215992 C242.2644,271.55449 262.256498,251.562392 286.918,251.562392 C311.579502,251.562392 331.5716,271.55449 331.5716,296.215992 C331.5716,320.877495 311.579502,340.869592 286.918,340.869592 Z" id="Oval" fill="#2E2622" fill-rule="nonzero"></path>
                    <path d="M200.624427,298.493803 L237.343427,298.813803 C240.104746,298.837867 242.362746,296.618884 242.387004,293.857565 C242.410875,291.096246 240.191891,288.838247 237.430573,288.814182 L200.711573,288.494182 C197.950254,288.470118 195.692254,290.689101 195.667996,293.45042 C195.644125,296.211739 197.863109,298.469738 200.624427,298.493803 Z" id="Path" fill="#2E2622" fill-rule="nonzero"></path>
                    <path d="M206.817899,300.844542 C206.494022,303.205007 206.127097,304.800752 204.388114,311.781673 C203.966469,313.474313 203.667198,314.702772 203.380061,315.935429 C201.251687,325.072383 200.593858,331.318756 201.98605,337.121718 C204.172672,346.236032 211.416146,351.490992 222.07,351.490992 L222.07,334.490992 C220.975335,334.490992 220.120454,334.389021 219.493918,334.219998 C219.124885,334.120442 218.920083,334.025282 218.818367,333.95149 C218.74844,333.900759 218.661769,333.75933 218.516969,333.155773 C217.93513,330.730542 218.385944,326.449876 219.936797,319.792177 C220.200358,318.66073 220.481515,317.506624 220.884005,315.890882 C222.818199,308.126309 223.21458,306.402462 223.660101,303.155443 L206.817899,300.844542 Z" id="Path" fill="#EBBAAA" fill-rule="nonzero"></path>
                </g>
            </g>
        </g>
    </g>
</svg>