<?xml version="1.0" encoding="UTF-8"?>
<svg width="492px" height="1361px" viewBox="0 0 492 1361" version="1.1" xmlns="http://www.w3.org/2000/svg" xmlns:xlink="http://www.w3.org/1999/xlink">
    <!-- Generator: Sketch 55.2 (78181) - https://sketchapp.com -->
    <title>gee_me_087</title>
    <desc>Created with Sketch.</desc>
    <defs>
        <path d="M183.550562,160.437837 C183.550562,151.162928 176.810975,142.284382 164.283273,142.284382 L141.923702,142.284382 L141.923702,198.726564 L155.799322,198.726564 L155.799322,178.591291 L164.283273,178.591291 C176.810975,178.591291 183.550562,169.712746 183.550562,160.437837 Z M169.674942,160.437837 C169.674942,163.370928 167.454843,166.145473 163.648959,166.145473 L155.799322,166.145473 L155.799322,154.7302 L163.648959,154.7302 C167.454843,154.7302 169.674942,157.504746 169.674942,160.437837 Z M233.498727,178.908382 L233.498727,142.284382 L219.623107,142.284382 L219.623107,178.591291 C219.623107,183.823291 216.610116,186.835655 212.011339,186.835655 C207.412562,186.835655 204.558149,183.823291 204.558149,178.591291 L204.558149,142.284382 L190.682529,142.284382 L190.682529,178.908382 C190.682529,191.274928 200.276529,199.2022 212.011339,199.2022 C223.746149,199.2022 233.498727,191.274928 233.498727,178.908382 Z M296.62619,198.726564 L296.62619,142.284382 L282.988438,142.284382 L270.302157,167.176019 L257.615876,142.284382 L243.978124,142.284382 L243.978124,198.726564 L257.853744,198.726564 L257.853744,171.694564 L265.861959,185.646564 L274.742355,185.646564 L282.75057,171.694564 L282.75057,198.726564 L296.62619,198.726564 Z M354.080405,198.726564 L333.544488,142.284382 L322.840438,142.284382 L302.304521,198.726564 L316.814455,198.726564 L319.589579,190.323655 L336.953926,190.323655 L339.570471,198.726564 L354.080405,198.726564 Z M333.30662,178.749837 L323.474752,178.749837 L328.549264,163.688019 L333.30662,178.749837 Z" id="path-1"></path>
        <path d="M152.307692,331.672277 C152.307692,313.438937 167.082554,298.657426 185.307692,298.657426 L209.676923,298.657426 C227.902062,298.657426 242.676923,313.438937 242.676923,331.672277 C242.676923,349.905618 227.902062,364.687129 209.676923,364.687129 L185.307692,364.687129 C167.082554,364.687129 152.307692,349.905618 152.307692,331.672277 Z" id="path-3"></path>
    </defs>
    <g id="GEE!-ME" stroke="none" stroke-width="1" fill="none" fill-rule="evenodd">
        <g id="gee_me_087" transform="translate(-354.000000, -130.000000)">
            <g transform="translate(354.000000, 130.000000)">
                <g id="Clothes" transform="translate(20.000000, 818.000000)">
                    <path d="M150.259542,70.1084337 C148.398557,81.7931727 138.685496,107.499598 114.725191,116.84739" id="Path" stroke="#0036A2" stroke-width="5" stroke-linecap="round"></path>
                    <polygon id="Path" fill="#020202" fill-rule="nonzero" points="80.7137405 241.315261 80.7137405 171.714859 232.496183 69.0923695 265.492366 118.371486 161.427481 241.315261"></polygon>
                    <polygon id="Path" fill="#10171B" fill-rule="nonzero" points="50.2557252 37.5943775 92.389313 8.63654618 224.881679 0 165.996183 113.799197 63.4541985 252.491968 32.9961832 228.106426 0 219.46988 32.9961832 125.483936 62.0703893 88.0734659"></polygon>
                    <path d="M74.0898328,21.7224378 L50.2557252,38.1034257 L59.7899977,78.8394739 L86.2977099,53.3443896 L74.0898328,21.7224378 Z M111.066168,188.602863 L97.9732824,177.812261 L69.0381679,215.405622 L74.7415328,237.738715 L111.066168,188.602863 Z M26.9277282,227.029398 L47.2099237,203.720884 L32.9961832,177.812261 L11.2357588,187.974936 L3.26849658e-13,219.977912 L26.9277282,227.029398 Z M34.4367458,124.138667 L69.0381679,104.147602 L56.0716832,96.3005382 L34.4367458,124.138667 Z" id="Shape" fill="#312E2A"></path>
                    <polygon id="Path" fill="#312E2A" fill-rule="nonzero" points="60.4083969 157.48996 108.125954 93.9859438 142.645038 113.799197 118.278626 225.058233"></polygon>
                </g>
                <g id="lower-limb" transform="translate(27.000000, 831.000000)" fill-rule="nonzero">
                    <path d="M255.07251,68.1042223 L255.170586,68.5983213 C265.989687,120.880745 265.311897,367.325776 255.155783,443.224313 L254.845122,445.47169 C252.465522,462.125261 264.047051,477.55324 280.71319,479.931045 C297.37933,482.308851 312.818952,470.736057 315.198553,454.082486 C320.335242,418.133493 323.64396,338.834505 323.975237,254.144786 L323.984363,251.57682 C324.273203,161.20296 321.207448,86.8726446 314.873089,56.2623683 C311.464038,39.7884107 295.335597,29.1951266 278.849206,32.601606 C262.527679,35.9740205 251.97415,51.8033092 255.07251,68.1042223 Z" id="Path" fill="#F6DDD6"></path>
                    <path d="M128.284071,51.3816978 C122.013119,81.6855658 118.945578,155.008917 119.165137,244.392116 L119.172796,247.105586 C119.446574,332.984991 122.770374,413.711463 127.958607,450.021183 C130.338208,466.674754 145.77783,478.247548 162.44397,475.869743 C179.110109,473.491937 190.691638,458.063958 188.312038,441.410388 C177.96496,368.99663 177.074942,121.546299 187.662231,65.3613043 L187.986574,63.7176508 C191.395624,47.2436933 180.794345,31.1274148 164.307954,27.7209355 C147.821563,24.3144561 131.693122,34.9077402 128.284071,51.3816978 Z" id="Path" fill="#F6DDD6"></path>
                    <polygon id="Path" fill="#617EAC" points="309.983152 119.209387 129.080173 98.6551341 90.0215983 0 334.651833 10.2761111"></polygon>
                    <polygon id="Path" fill="#6A8AB9" points="107.471962 389.365211 202.034559 389.365211 198.951736 433.552184 115.181051 433.552184"></polygon>
                    <polygon id="Path" fill="#6A8AB9" points="240.065865 389.365211 339.767856 389.365211 330.517355 433.552184 242.121419 433.552184"></polygon>
                    <path d="M12.4689896,524.961954 C12.2654664,501.66023 15.4421763,487.486284 35.7127027,477.962529 C55.9833308,468.438774 75.0769179,450.132452 110.146316,434.435517 C110.146316,434.435517 114.762421,433.57249 122.276421,437.633793 C128.688978,441.096054 136.924403,449.59433 149.33495,449.492797 C162.811378,449.370958 174.819552,446.517893 182.280716,442.608889 C185.503759,433.785709 192.655014,433.714636 192.655014,433.714636 C192.655014,433.714636 202.724486,452.873831 202.892141,472.1041 C203.059796,491.344521 203.043027,523.29682 203.043027,523.29682 L12.4689896,524.961954 Z" id="Path" fill="#CE604D"></path>
                    <path d="M88.5558925,442.439763 C86.4342673,441.504543 84.1777845,443.451436 84.7944401,445.685145 L87.8398921,456.716671 L75.6383229,452.786227 C73.8624532,452.214173 72.044046,453.537534 72.044046,455.401992 L72.044046,466.727622 L62.9028545,461.778307 C61.0702535,460.786082 58.8421664,462.111956 58.8421664,464.194713 L58.8421664,477.932069 C58.8421664,479.449926 60.0735617,480.680393 61.5925648,480.680393 C63.1115678,480.680393 64.3429631,479.449926 64.3429631,477.932069 L64.3429631,468.809696 L73.4841546,473.759011 C75.3167556,474.751236 77.5448427,473.425362 77.5448427,471.342605 L77.5448427,459.175568 L91.0026209,463.51067 C93.0851221,464.181498 95.0797226,462.271711 94.4978647,460.164051 L91.6384113,449.806267 L105.038923,455.713263 C106.856953,456.514658 108.899408,455.184305 108.899408,453.198736 L108.896831,452.155892 L108.886623,451.03932 C108.842979,447.811324 108.67541,445.625942 108.202204,443.055848 C107.814429,440.949749 107.247529,439.013121 106.46241,437.248388 C105.845352,435.861411 104.219913,435.236891 102.831889,435.853484 C101.443865,436.470076 100.818874,438.09429 101.435931,439.481267 C102.031751,440.820506 102.47853,442.346783 102.792207,444.050436 C103.055321,445.479471 103.210329,446.800103 103.29767,448.355936 L103.32733,448.95107 L88.5558925,442.439763 Z" id="Path" fill="#B14432"></path>
                    <path d="M20.137842,479.749502 C26.3569344,477.495479 32.9432425,475.789732 45.5706236,472.926513 L40.2044388,488.369617 L40.3580719,505.955057 L4.41646088,506.269848 C2.94963053,506.279962 0.328722946,504.330536 1.57973536,496.400843 C3.14360249,486.491264 11.3008903,482.947778 20.137842,479.749502 Z" id="Path" fill="#EF8F83"></path>
                    <path d="M203.645065,520.291456 L202.601539,501.792222 L41.4437662,504.300077 L1.2607841,501.345479 L0.033243406,515.539732 C-0.390466939,520.433602 3.28636341,524.728429 8.1946972,525.07364 L41.6454604,527.378429 L199.319562,524.941648 C201.820164,524.901034 203.785286,522.789157 203.645065,520.291456 Z" id="Path" fill="#7C3524"></path>
                    <path d="M428.709433,526.992605 C428.912651,503.690881 425.736348,489.516935 405.465313,479.99318 C385.195295,470.469425 366.100895,452.163103 331.031497,436.466169 C331.031497,436.466169 326.415391,435.603142 318.901391,439.664444 C312.489851,443.126705 304.25341,451.624981 291.842863,451.523448 C278.367451,451.401609 266.35826,448.548544 258.897097,444.63954 C255.674054,435.81636 248.522798,435.745287 248.522798,435.745287 C248.522798,435.745287 238.454343,454.904483 238.285672,474.134751 C238.118017,493.375172 238.134786,525.327471 238.134786,525.327471 L428.709433,526.992605 Z" id="Path" fill="#CE604D"></path>
                    <path d="M346.679948,462.194702 C346.09809,464.302363 348.092691,466.212149 350.175192,465.541321 L363.63297,461.206219 L363.63297,473.373257 C363.63297,475.456005 365.861042,476.78188 367.693643,475.789671 L376.835053,470.840314 L376.835053,479.96272 C376.835053,481.480578 378.066448,482.711044 379.585451,482.711044 C381.104454,482.711044 382.33585,481.480578 382.33585,479.96272 L382.33585,466.225364 C382.33585,464.142616 380.107778,462.816741 378.275177,463.80895 L369.133767,468.758307 L369.133767,457.432644 C369.133767,455.568186 367.31536,454.244824 365.53949,454.816878 L353.337921,458.747322 L356.383373,447.715796 C357.000028,445.482088 354.743546,443.535194 352.62192,444.470415 L337.850518,450.981706 C337.930492,449.159289 338.089741,447.688889 338.385866,446.081309 C338.699673,444.377732 339.146638,442.851527 339.742706,441.512349 C340.360002,440.125478 339.735289,438.501157 338.347371,437.884326 C336.959453,437.267496 335.333906,437.891738 334.71661,439.278609 C333.931102,441.043403 333.363919,442.980103 332.975951,445.086277 L332.847122,445.821767 L332.734436,446.543432 C332.367141,449.054077 332.278405,451.452623 332.278405,455.229387 C332.278405,457.214956 334.32086,458.54531 336.13889,457.743915 L349.539402,451.836918 L346.679948,462.194702 Z" id="Path" fill="#B14432"></path>
                    <path d="M421.039971,481.780153 C414.821488,479.52613 408.23518,477.820383 395.607189,474.957165 L400.973171,490.400268 L400.819741,507.985709 L436.761962,508.300499 C438.228182,508.310613 440.849699,506.361188 439.597874,498.431494 C438.034109,488.521916 429.876922,484.978429 421.039971,481.780153 Z" id="Path" fill="#EF8F83"></path>
                    <path d="M237.532748,522.322107 L238.57729,503.822874 L399.734555,506.330728 L439.916927,503.37613 L441.145382,517.570383 C441.568077,522.464253 437.891856,526.75908 432.983116,527.104291 L399.532352,529.40908 L241.858251,526.972299 C239.357649,526.931686 237.392527,524.819808 237.532748,522.322107 Z" id="Path" fill="#7C3524"></path>
                    <polygon id="Path" fill="#617EAC" points="210.847125 24.1444444 358.746421 13.6947126 332.778159 398.503142 244.886205 394.441839 241.665194 200.666935"></polygon>
                    <polygon id="Path" fill="#617EAC" points="78.2471248 4.55678161 211.309447 26.7203257 194.862982 222.415211 199.162067 397.995479 112.286205 394.441839"></polygon>
                </g>
                <g id="upper-limb" transform="translate(0.000000, 446.000000)">
                    <path d="M72.892753,79.0903241 C50.1115356,123.681812 30.196438,180.130828 23.2388166,229.566116 C19.1925802,258.316317 29.9980346,284.777488 51.098656,309.427974 C65.2939351,326.011398 83.4093987,341.219453 107.971365,358.643553 L110.436588,360.379309 L113.866134,362.751325 C125.129488,370.503391 148.024771,386.004826 155.493454,391.324449 L156.699083,392.192795 C173.462956,404.456487 196.99652,400.811202 209.262769,384.050823 C221.529017,367.290445 217.882972,343.761787 201.119099,331.498095 L200.019064,330.702332 C190.287855,323.725098 158.863791,302.510835 152.504581,298.017893 L150.714073,296.748045 L148.928589,295.471762 C130.352566,282.139187 117.168563,270.94657 108.249842,260.527406 C99.8838789,250.753995 97.1598665,244.083238 97.7281478,240.045362 C103.385013,199.85221 120.613581,151.018115 139.883016,113.30052 C149.33187,94.8055259 141.995399,72.1541578 123.496549,62.7072731 C104.997698,53.2603885 82.3416074,60.5953302 72.892753,79.0903241 Z" id="Path" fill="#EBBAAA" fill-rule="nonzero"></path>
                    <path d="M353.013978,125.733753 C372.783342,160.771609 386.321151,202.729862 393.822688,252.137031 C396.181918,267.675492 373.40212,291.434117 324.162407,319.868284 L319.297405,322.652217 C310.866589,327.442523 304.408952,330.916026 288.121796,339.482653 L274.514383,346.637855 L269.046837,349.539834 C257.020214,355.958958 249.896659,360.03923 243.186167,364.432088 C225.807679,375.808488 220.943948,399.115994 232.32272,416.49086 C243.587704,433.691977 266.548803,438.629937 283.869229,427.688466 L285.508739,426.631198 L286.783671,425.830271 C291.874207,422.675313 298.92093,418.795065 311.087926,412.37875 L330.005386,402.427115 L335.336967,399.604791 C345.225946,394.352932 350.826682,391.263696 358.562488,386.842927 L360.073921,385.977871 C391.404487,368.020714 415.416757,351.026792 433.766827,332.033076 C459.956289,304.924995 473.294531,274.444278 468.193837,240.849871 C459.390057,182.865775 443.061187,132.257081 418.531476,88.7823126 C408.32549,70.6939268 385.385312,64.3022544 367.293155,74.5061128 C349.200998,84.7099712 342.807992,107.645367 353.013978,125.733753 Z" id="Path" fill="#EBBAAA" fill-rule="nonzero"></path>
                    <path d="M159.595041,27.9243263 C159.595041,12.8025455 171.855397,0.544745921 186.980331,0.544745921 L299.937025,0.544745921 C315.061959,0.544745921 327.322314,12.8025455 327.322314,27.9243263 C327.322314,67.8096876 294.981446,100.143814 255.087769,100.143814 L231.829587,100.143814 C191.935909,100.143814 159.595041,67.8096876 159.595041,27.9243263 Z" id="Path" fill="#EBBAAA" fill-rule="nonzero"></path>
                    <path d="M435.07438,54.9177063 C429.381818,48.0067506 424.909091,43.9079441 423.384298,43.2300606 L382.214876,44.2463776 L357.818182,211.938685 L492,180.432858 C478.27686,135.206751 440.766942,61.828662 435.07438,54.9177063 Z" id="Path" fill="#000000" fill-rule="nonzero"></path>
                    <path d="M64.5495868,53.9013893 C68.2090909,49.8361212 75.2231405,44.7545361 78.2727273,43.7382191 L124.016529,89.4724848 L124.016529,209.906051 L0.508264463,177.383907 C22.8719008,138.933585 60.8900826,57.9666573 64.5495868,53.9013893 Z" id="Path" fill="#000000" fill-rule="nonzero"></path>
                    <path d="M77.255995,43.7382191 C82.948557,37.640317 132.487264,16.4673846 156.545455,6.64264802 L228.719008,23.4118788 L327.830579,6.64264802 C356.631893,14.2650256 412.202479,34.591366 422.367769,41.7055851 C429.259835,46.5290256 406.61157,50.8524382 404.578512,72.7032541 C402.047355,99.9039627 377.640496,193.136821 377.640496,216.512112 C377.640496,296.292998 390.347107,410.628662 385.264463,425.365259 C384.297744,428.166228 317.331868,434.948112 244.475207,435.528429 C195.145091,435.921744 141.608579,424.241212 104.194215,424.8571 C97.0784107,336.945678 117.88686,213.197902 110.293388,153.500457 C99.1113669,65.589035 70.1402926,51.3605967 77.255995,43.7382191 Z" id="Path" fill="#0C0F10" fill-rule="nonzero"></path>
                    <path d="M142.31405,33.5120373 C142.31405,15.3047179 157.077099,0.544745921 175.288215,0.544745921 L311.62914,0.544745921 C329.840256,0.544745921 344.603306,15.3047179 344.603306,33.5120373 C344.603306,81.5370816 305.662116,120.470154 257.627058,120.470154 L229.290298,120.470154 C181.25524,120.470154 142.31405,81.5370816 142.31405,33.5120373 Z" id="Path" fill="#1E2529" fill-rule="nonzero"></path>
                    <path d="M166.710744,25.6894452 C166.710744,11.8024895 177.970835,0.544745921 191.860686,0.544745921 L295.056669,0.544745921 C308.946521,0.544745921 320.206612,11.8024895 320.206612,25.6894452 C320.206612,62.3185268 290.505669,92.0132774 253.86895,92.0132774 L233.048405,92.0132774 C196.411686,92.0132774 166.710744,62.3185268 166.710744,25.6894452 Z" id="Path" fill="#EBBAAA" fill-rule="nonzero"></path>
                    <mask id="mask-2" fill="white">
                        <use xlink:href="#path-1"></use>
                    </mask>
                    <use id="Shape" fill="#598CBD" xlink:href="#path-1"></use>
                    <polygon id="Path" fill="#5A4438" fill-rule="nonzero" mask="url(#mask-2)" points="271.808765 51.0363636 287.466135 18.2 249.888446 18.2 243.625498 63.5454545 201.350598 18.2 133.241036 18.2 95.6633466 79.1818182 161.424303 122.181818 133.241036 151.890909 86.2689243 151.890909 120.715139 198.8 86.2689243 216.781818 62 361.418182 161.424303 388 287.466135 350.472727 287.466135 302.781818 243.625498 344.218182 223.270916 313.727273 201.350598 350.472727 201.350598 293.4 161.424303 321.545455 95.6633466 350.472727 95.6633466 276.2 133.241036 276.2 161.424303 216.781818 220.139442 240.236364 229.533865 293.4 271.808765 260.563636 249.888446 216.781818 229.533865 198.8 249.888446 178.472727 271.808765 122.181818 271.808765 159.709091 303.123506 151.890909 303.123506 98.7272727 336.786853 98.7272727 324.260956 151.890909 357.141434 159.709091 357.141434 216.781818 347.747012 189.418182 336.786853 229.290909 357.141434 276.2 314.083665 276.2 303.123506 332.490909 325.826693 321.545455 357.141434 293.4 386.890438 293.4 377.496016 260.563636 364.97012 205.054545 438.559761 276.2 430.731076 198.8 386.890438 178.472727 455 159.709091 415.073705 36.9636364 377.496016 51.0363636 336.786853 1 357.141434 36.9636364 303.123506 79.1818182 303.123506 36.9636364"></polygon>
                    <path d="M354.603341,265.051818 L337.850945,265.863855 L362.051449,240.269944 L336.668721,241.50172 L344.485829,224.333076 C358.391945,220.775967 383.655738,213.581459 373.463002,213.261319 C363.270267,212.942195 322.849011,215.377291 303.912093,216.634475 L297.898308,249.996097 C295.784945,248.402512 292.115275,244.068937 294.335374,239.48433 C296.555473,234.899724 289.096184,229.394335 285.089027,227.214335 L263.767333,228.248946 C262.95411,228.287566 264.18411,243.830102 264.899746,251.59578 C270.858639,255.547221 280.895845,264.556871 273.376581,268.992079 C263.977754,274.535072 256.95354,287.085571 253.489209,278.605421 C250.717135,271.820489 251.480548,258.182531 252.208383,252.211668 L251.112564,229.625039 C251.0963,232.708545 249.0053,236.101011 240.414614,229.381123 C231.971325,239.966065 231.145903,255.099025 231.787333,261.342261 L222.178085,220.599128 L210.501217,221.165216 L209.318994,196.803081 C209.171597,193.757179 202.808126,188.469282 195.612118,197.467752 C189.855515,204.666326 184.863341,217.15178 183.087465,222.495575 C181.026961,225.478466 173.675424,229.870988 160.750259,223.578969 C144.593548,215.713692 137.738077,200.27482 140.784614,200.127454 C143.830135,199.979072 177.834044,187.646065 159.050622,188.556685 C144.023275,189.2864 128.805837,204.947846 123.074647,212.6871 L143.050457,246.822139 C151.48968,249.46558 167.243845,256.740377 162.744688,264.691025 C157.12125,274.630606 163.035416,291.64172 150.939738,283.579277 C138.845077,275.516834 136.336283,255.28806 130.555283,251.498214 C124.774283,247.709384 116.611556,257.770923 111.466903,235.635538 C106.321234,213.500153 96.68149,193.108769 109.003854,184.87965 C118.861135,178.295948 129.244978,165.073664 133.205374,159.285738 L145.644639,174.453254 L144.881226,158.718634 L137.804151,138.712433 L156.021366,126.127379 C151.481548,123.464629 141.286779,118.192993 136.819135,118.409468 C132.35149,118.625944 134.382515,106.656778 135.957118,100.645263 L154.74054,99.7336265 C157.350986,90.6192955 163.947242,73.4425216 169.443614,77.653123 C170.566878,100.79771 164.406713,113.679529 161.187366,117.227491 C162.510887,120.046755 166.479416,125.620237 171.759267,125.364125 C178.358573,125.043986 195.259383,127.276834 178.924779,136.717403 C162.453961,166.414186 173.228151,173.11578 180.674226,172.753972 L174.788523,187.793431 C181.739548,184.234289 195.390515,176.110867 194.381102,172.0893 C193.371688,168.06875 200.723226,162.96379 204.525044,160.913878 L219.000416,155.12392 L227.379664,170.488601 L227.797457,179.117132 L237.532754,169.996703 C238.549283,162.994279 241.953639,149.940703 247.42968,153.744778 L257.809457,189.363641 L269.214911,183.213906 L268.500292,168.494587 L267.736878,152.759967 L290.074085,151.676573 C284.205664,149.587025 274.130845,144.004396 280.778945,138.391277 C287.427044,132.777142 295.999432,126.96889 299.454614,124.766531 L302.346639,142.432153 L313.38106,181.07151 L327.596201,180.382447 L326.881581,165.663128 L310.919027,130.315622 L324.837341,123.534755 C323.093994,129.555417 320.826118,141.535762 325.699358,141.299976 C343.975531,140.413748 353.92125,132.129748 356.608953,128.099034 C356.251135,124.215687 353.910069,116.528265 347.411399,116.84434 C340.913746,117.159398 329.195201,111.961953 324.148135,109.323594 L354.76192,90.0318643 C358.902242,87.9656918 367.492928,90.2290298 368.73411,115.809729 C370.285333,147.786111 375.125027,153.147184 367.233713,168.793384 C360.921069,181.309328 353.753523,188.101375 350.958069,189.932778 L418.205523,233.476881 L354.603341,265.051818 Z" id="Path" fill="#1F6F1D" fill-rule="nonzero" mask="url(#mask-2)"></path>
                </g>
                <g id="head" transform="translate(45.000000, 0.000000)">
                    <path d="M144.184615,361.549194 C144.184615,340.279503 161.418738,323.037624 182.678862,323.037624 L214.336523,323.037624 C235.596646,323.037624 252.830769,340.279503 252.830769,361.549194 L252.830769,458.652475 C252.830769,488.667547 228.509262,513 198.507692,513 C168.506123,513 144.184615,488.667547 144.184615,458.652475 L144.184615,361.549194 Z" id="Path" fill="#EBBAAA" fill-rule="nonzero"></path>
                    <path d="M335.348031,315.452335 C368.5836,315.452335 395.525815,288.497994 395.525815,255.247467 C395.525815,221.996941 368.5836,195.041584 335.348031,195.041584 C302.112462,195.041584 275.169231,221.996941 275.169231,255.247467 C275.169231,288.497994 302.112462,315.452335 335.348031,315.452335 Z" id="Path" fill="#EBBAAA" fill-rule="nonzero"></path>
                    <path d="M60.1788,318.499859 C26.9427231,318.499859 0,291.545519 0,258.294992 C0,225.044465 26.9427231,198.089109 60.1788,198.089109 C93.4133538,198.089109 120.356585,225.044465 120.356585,258.294992 C120.356585,291.545519 93.4133538,318.499859 60.1788,318.499859 Z" id="Path" fill="#EBBAAA" fill-rule="nonzero"></path>
                    <path d="M41.6308708,168.721129 C41.6308708,83.3936864 110.771354,14.2217823 196.060615,14.2217823 C282.460708,14.2217823 352.052123,85.1353468 350.465077,171.558374 L349.020185,250.268828 C348.863815,258.814087 348.090092,267.335982 346.706123,275.769499 L337.182831,333.821798 C327.785446,391.096978 282.109385,435.520747 224.617292,443.300061 L221.582308,443.710461 C205.597108,445.874204 189.391569,445.846776 173.413477,443.63021 L168.658431,442.970929 C113.472277,435.315547 69.0329538,393.82045 57.5976923,339.268741 L45.4103354,281.132127 C42.89736,269.145196 41.6308708,256.929701 41.6308708,244.681699 L41.6308708,168.721129 Z" id="Path" fill="#F4D4C9" fill-rule="nonzero"></path>
                    <path d="M246.119077,200.614491 L304.205169,204.166889" id="Path" stroke="#393939" stroke-width="24" stroke-linecap="round"></path>
                    <path d="M154.152646,201.85077 L96.0381231,204.895248" id="Path" stroke="#393939" stroke-width="24" stroke-linecap="round"></path>
                    <path d="M196.084985,262.087129 C185.704708,280.410879 182.549908,303.969261 202.364123,303.969261" id="Path" stroke="#EBBAAA" stroke-width="17"></path>
                    <path d="M144.184615,361.549194 C144.184615,340.279503 161.418738,323.037624 182.678862,323.037624 L214.336523,323.037624 C235.596646,323.037624 252.830769,340.279503 252.830769,361.549194 L252.830769,458.652475 C252.830769,488.667547 228.509262,513 198.507692,513 C168.506123,513 144.184615,488.667547 144.184615,458.652475 L144.184615,361.549194 Z" id="Path" fill="#EBBAAA" fill-rule="nonzero"></path>
                    <path d="M335.348031,315.452335 C368.5836,315.452335 395.525815,288.497994 395.525815,255.247467 C395.525815,221.996941 368.5836,195.041584 335.348031,195.041584 C302.112462,195.041584 275.169231,221.996941 275.169231,255.247467 C275.169231,288.497994 302.112462,315.452335 335.348031,315.452335 Z" id="Path" fill="#EBBAAA" fill-rule="nonzero"></path>
                    <path d="M60.1777846,318.499859 C26.9426215,318.499859 -0.000101538462,291.545519 -0.000101538462,258.294992 C-0.000101538462,225.044465 26.9426215,198.089109 60.1777846,198.089109 C93.4133538,198.089109 120.356585,225.044465 120.356585,258.294992 C120.356585,291.545519 93.4133538,318.499859 60.1777846,318.499859 Z" id="Path" fill="#EBBAAA" fill-rule="nonzero"></path>
                    <path d="M41.6307692,168.721129 C41.6307692,83.3936864 110.771354,14.2217823 196.060615,14.2217823 C282.460708,14.2217823 352.052123,85.1353468 350.465077,171.558374 L349.020185,250.268828 C348.863815,258.814087 348.090092,267.335982 346.706123,275.769499 L337.182831,333.821798 C327.785446,391.096978 282.109385,435.520747 224.617292,443.300061 L221.582308,443.710461 C205.597108,445.874204 189.391569,445.846776 173.413477,443.63021 L168.658431,442.970929 C113.472277,435.315547 69.0329538,393.82045 57.5976923,339.268741 L45.4102338,281.132127 C42.89736,269.145196 41.6307692,256.929701 41.6307692,244.681699 L41.6307692,168.721129 Z" id="Path" fill="#F4D4C9" fill-rule="nonzero"></path>
                    <path d="M245.37562,212.781877 L303.461712,216.334275 C310.178551,216.74506 315.956482,211.630543 316.367082,204.910681 C316.777682,198.190819 311.665465,192.410288 304.948626,191.999503 L246.862534,188.447105 C240.145695,188.03632 234.367764,193.150838 233.957164,199.870699 C233.546564,206.590561 238.658781,212.371093 245.37562,212.781877 Z" id="Path" fill="#393939" fill-rule="nonzero"></path>
                    <path d="M153.515495,189.677349 L95.3999568,192.721826 C88.6797862,193.073873 83.5172737,198.80949 83.8691625,205.532685 C84.2210512,212.25588 89.954088,217.420716 96.6742586,217.068669 L154.789797,214.024192 C161.509968,213.672145 166.67248,207.936528 166.320591,201.213333 C165.968703,194.490138 160.235666,189.325302 153.515495,189.677349 Z" id="Path" fill="#393939" fill-rule="nonzero"></path>
                    <path d="M188.576286,257.829674 C182.410969,268.712979 178.817107,280.606701 179.280291,290.31143 C179.916512,303.641657 188.280882,312.603915 202.364123,312.603915 L202.364123,295.334608 C197.96397,295.334608 196.738576,294.021622 196.522185,289.487773 C196.234575,283.461706 198.906806,274.618078 203.593683,266.344584 L188.576286,257.829674 Z" id="Path" fill="#EBBAAA" fill-rule="nonzero"></path>
                    <path d="M337.107692,51.8109684 C347.680892,67.4737219 369.132923,157.343703 349.307538,219.421782 C345.748615,217.352513 340.499077,179.378323 331.523077,172.693069 C321.383446,165.141303 322.365323,118.124091 312.706985,106.663366 C303.047631,95.2027433 227.813723,97.6533595 196.296185,97.6533595 C164.778646,97.6533595 85.3278462,92.2040805 73.1269846,110.827301 C60.9271385,129.450725 64.9937538,168.130925 57.8769231,176.248515 C52.1834585,182.74279 43.2843231,211.622151 41.2509138,219.421782 C41.2509138,183.607271 23.82864,127.259555 41.2510154,71.866932 C47.5589908,51.8109684 87.0022154,-4.09231774 186.129138,0.238171255 C227.260338,2.03504569 272.547508,6.44565715 291.864185,20.7714209 C307.115262,29.84441 305.590154,33.6651934 312.706985,41.7830882 C316.264892,41.7830882 330.702646,42.3237191 337.107692,51.8109684 Z" id="Path" fill="#2C2929" fill-rule="nonzero"></path>
                    <polygon id="Path" fill="#2C2929" fill-rule="nonzero" points="48.7384615 163.550495 48.7384615 82.3004377 142.153846 40.6336635 150.784615 117.716739 100.635785 134.59901 111.692308 117.716739 77.8008 134.59901 77.8008 117.716739"></polygon>
                    <polygon id="Path" fill="#2C2929" fill-rule="nonzero" points="347.261538 169.645545 341.676923 74.6643565 253.846154 33.5227724 240.646154 87.3623763 247.753846 133.583168 280.246154 122.525733 290.907692 139.678218 323.388831 122.525733"></polygon>
                    <polygon id="Path" fill="#2C2929" fill-rule="nonzero" points="125.137015 139.630473 121.999477 107.946374 116.769231 33.5227724 290.4 33.5227724 231.825508 148.312871 231.825508 131.513899 209.860708 139.630473 205.676308 121.591159 185.8032 139.630473 180.572954 131.513899 150.240369 139.630473 154.423754 131.513899"></polygon>
                    <path d="M290.4,10.1584159 C292.938462,12.0207583 298.827692,16.7613862 302.076923,20.8247526 C303.747231,22.9130181 305.561723,25.5022967 307.153846,30.9831684 C307.898123,33.545832 305.877508,28.083347 303.092308,23.8722773 C300.244154,19.5646011 292.430769,14.2217823 295.476923,17.7772278 C300.553846,27.9356436 316.8,65.2170298 314.769231,41.649505 C312.738462,18.0819803 297.677262,10.8356775 290.4,10.1584159 Z" id="Path" fill="#2C2929" fill-rule="nonzero"></path>
                    <path d="M320.353846,32.5069308 C314.667692,32.5069308 307.491969,40.2950835 304.615385,44.189109 L320.353846,50.7920793 L334.569231,48.7603961 L323.4,44.189109 L338.630769,46.2207922 L328.476923,39.6178219 L338.630769,42.6653466 C337.784954,41.988085 335.787692,40.4304951 334.569231,39.6178219 C333.350769,38.8051486 326.615723,36.5702971 323.4,35.5544555 L330.507692,35.5544555 C329.492308,34.5386139 326.04,32.5069308 320.353846,32.5069308 Z" id="Path" fill="#2C2929" fill-rule="nonzero"></path>
                    <path d="M247.097885,258.935551 L293.805578,251.82466 C298.795169,251.065032 302.22451,246.402549 301.465224,241.410712 C300.705939,236.418874 296.045553,232.98799 291.055961,233.747618 L244.348269,240.858509 C239.358677,241.618136 235.929336,246.28062 236.688622,251.272457 C237.447907,256.264294 242.108293,259.695178 247.097885,258.935551 Z" id="Path" fill="#000000" fill-rule="nonzero"></path>
                    <path d="M150.636347,240.858509 L103.928655,233.747618 C98.9390627,232.98799 94.2786766,236.418874 93.5193909,241.410712 C92.7601052,246.402549 96.1894459,251.065032 101.179038,251.82466 L147.88673,258.935551 C152.876322,259.695178 157.536708,256.264294 158.295994,251.272457 C159.055279,246.28062 155.625939,241.618136 150.636347,240.858509 Z" id="Path" fill="#000000" fill-rule="nonzero"></path>
                    <mask id="mask-4" fill="white">
                        <use xlink:href="#path-3"></use>
                    </mask>
                    <g id="Path"></g>
                    <rect id="Rectangle" fill="#FFFFFF" fill-rule="nonzero" mask="url(#mask-4)" x="155.353846" y="342.338614" width="206.123077" height="42.6653465"></rect>
                </g>
            </g>
        </g>
    </g>
</svg>