<?xml version="1.0" encoding="UTF-8"?>
<svg width="458px" height="1404px" viewBox="0 0 458 1404" version="1.1" xmlns="http://www.w3.org/2000/svg" xmlns:xlink="http://www.w3.org/1999/xlink">
    <!-- Generator: Sketch 55.2 (78181) - https://sketchapp.com -->
    <title>gee_me_047</title>
    <desc>Created with Sketch.</desc>
    <g id="GEE!-ME" stroke="none" stroke-width="1" fill="none" fill-rule="evenodd">
        <g id="gee_me_047" transform="translate(-371.000000, -98.000000)">
            <g transform="translate(371.000000, 98.000000)">
                <g id="lower-limb" transform="translate(7.785752, 845.487000)" fill-rule="nonzero">
                    <path d="M221.214248,117.513 C284.727248,117.513 336.214248,91.322 336.214248,59.013 C336.214248,26.704 284.727248,0.513 221.214248,0.513 C157.701248,0.513 106.214248,26.704 106.214248,59.013 C106.214248,91.322 157.701248,117.513 221.214248,117.513 Z" id="Path" fill="#6686B7"></path>
                    <path d="M268.769693,253.532047 C269.184433,238.626128 281.604281,226.878705 296.510201,227.293445 C311.267061,227.704038 322.928279,239.880837 322.757606,254.587531 L322.748803,255.033953 L316.203803,490.263953 C315.789063,505.169872 303.369215,516.917295 288.463295,516.502555 C273.706435,516.091962 262.045218,503.915163 262.215891,489.208469 L262.224693,488.762047 L268.769693,253.532047 Z" id="Path" fill="#EBBAAA"></path>
                    <path d="M430.528248,552.653 C430.723248,530.253 427.596248,526.393 407.645248,517.233 C387.693248,508.073 368.898248,490.473 334.381248,475.373 C334.381248,475.373 329.838248,474.543 322.444248,478.443 C316.134248,481.773 308.030248,489.943 295.816248,489.833 C282.554248,489.723 270.734248,486.973 263.391248,483.213 C260.217248,474.733 253.179248,474.673 253.179248,474.673 C253.179248,474.673 243.273248,493.073 243.112248,511.573 C242.951248,530.063 242.971349,551.013 242.971349,551.013 L430.528248,552.653 Z" id="Path" fill="#DCE1E6"></path>
                    <path d="M334.569248,520.793 C341.470248,522.673 347.033248,522.423 350.184248,520.023 C358.302248,513.773 353.104248,504.243 350.900248,500.513 C354.868248,505.083 358.811248,509.673 361.889248,514.673 C366.742248,522.483 368.801248,531.063 365.527248,536.553 C359.658248,546.473 345.550248,541.893 336.559248,537.903 L253.117248,500.883 L334.569248,520.793 Z" id="Path" fill="#EAF4FB"></path>
                    <path d="M338.018298,478.022317 C338.637234,476.661514 340.242129,476.060113 341.602932,476.67905 C342.963734,477.297986 343.565135,478.902881 342.946199,480.263683 C341.813564,482.753909 341.307554,485.328133 341.119668,488.989118 L341.106,489.266 L355.654306,483.006595 C357.698553,482.126922 359.846244,483.947997 359.367812,486.07638 L359.329135,486.228898 L356.363,496.726 L368.364829,492.950955 C370.054114,492.419435 371.772704,493.624672 371.8789,495.362495 L371.884088,495.532293 L371.887,506.363 L380.908283,501.599389 C382.660629,500.674049 384.758467,501.883268 384.874087,503.824256 L384.879088,503.992385 L384.882088,517.202385 C384.882088,518.697332 383.670809,519.90984 382.175863,519.90984 C380.736285,519.90984 379.558926,518.786648 379.473386,517.368507 L379.468408,517.203615 L379.466,508.482 L370.445213,513.246611 C368.692903,514.171933 366.595097,512.96278 366.479415,511.021833 L366.474408,510.853707 L366.471,499.222 L353.208667,503.395045 C351.208197,504.024476 349.306246,502.243769 349.751308,500.236039 L349.791361,500.077102 L352.574,490.225 L339.389147,495.899405 C337.655359,496.645483 335.729748,495.43364 335.617517,493.583606 L335.612365,493.4137 L335.616333,492.275835 C335.66406,485.974376 336.158955,482.110294 338.018298,478.022317 Z" id="Path" fill="#FFFFFF"></path>
                    <path d="M248.992248,484.413 C252.845248,489.523 266.738248,492.573 271.965248,493.323 C277.192248,494.073 282.792248,493.423 280.553248,501.853 C278.970248,507.823 263.739248,505.413 257.784248,505.353 C252.942248,505.313 246.155248,519.593 243.626244,514.743 C243.622248,498.153 246.827248,489.163 248.992248,484.413 Z" id="Path" fill="#C6CBCF"></path>
                    <path d="M422.973248,518.953 C416.852248,516.783 410.370248,515.143 397.942248,512.393 L403.226248,527.233 L403.079248,544.143 L438.451248,544.45304 C439.895248,544.463 442.474248,542.583 441.241248,534.963 C439.700248,525.433 431.671248,522.033 422.973248,518.953 Z" id="Path" fill="#EAF4FB"></path>
                    <path d="M242.511248,550.833 L243.404248,540.103 L402.010248,542.543 L441.556248,539.723 L442.357248,545.973 C442.991248,550.923 439.324248,555.383 434.347248,555.713 L401.815248,557.903 L246.761248,555.523 C244.254248,555.483 242.303248,553.333 242.511248,550.833 Z" id="Path" fill="#C7CBCF"></path>
                    <path d="M11.9005482,552.653 C11.7050482,530.253 14.8322482,526.393 34.7836482,517.233 C54.7351482,508.073 73.5301482,490.473 108.047248,475.373 C108.047248,475.373 112.590248,474.543 119.984248,478.443 C126.294248,481.773 134.398248,489.943 146.612248,489.833 C159.874248,489.723 171.694248,486.973 179.037248,483.213 C182.212248,474.733 189.249248,474.673 189.249248,474.673 C189.249248,474.673 199.155248,493.073 199.316248,511.573 C199.477248,530.063 199.457147,551.013 199.457147,551.013 L11.9005482,552.653 Z" id="Path" fill="#DCE1E6"></path>
                    <path d="M107.859248,520.793 C100.958248,522.673 95.3952482,522.423 92.2442482,520.023 C84.1263482,513.773 89.3241482,504.243 91.5283482,500.513 C87.5599482,505.083 83.6168482,509.673 80.5389482,514.673 C75.6863482,522.483 73.6274482,531.063 76.9010482,536.553 C82.7705482,546.473 96.8782482,541.893 105.869248,537.903 L189.311248,500.883 L107.859248,520.793 Z" id="Path" fill="#EAF4FB"></path>
                    <path d="M100.825565,476.67905 C102.186367,476.060113 103.791262,476.661514 104.410199,478.022317 C106.378914,482.350764 106.817938,486.428199 106.816137,493.4137 C106.815643,495.301202 104.941008,496.590503 103.197434,495.961871 L103.039344,495.899402 L89.853,490.225 L92.6368532,500.077165 C93.2069407,502.095314 91.3709208,503.943852 89.3772221,503.439771 L89.2195382,503.395048 L75.956,499.222 L75.9542881,510.853583 C75.9538613,512.835244 73.9046973,514.125236 72.1344995,513.320742 L71.9835057,513.246623 L62.961,508.482 L62.9600881,517.203594 C62.9597721,518.643172 61.8357276,519.820029 60.4175482,519.904936 L60.2526539,519.90984 C58.8130759,519.90984 57.6362189,518.785479 57.5513121,517.3673 L57.5464082,517.202406 L57.5493082,503.992406 C57.5497433,502.01075 59.5989036,500.720766 61.3690972,501.525258 L61.5200906,501.599377 L70.541,506.363 L70.5439082,495.532417 C70.5442897,493.76144 72.2101265,492.484169 73.8996382,492.904895 L74.0631582,492.950952 L86.065,496.726 L83.0994432,486.228835 C82.4944695,484.087186 84.5805405,482.195905 86.62814,482.948325 L86.7742948,483.006598 L101.321,489.266 L101.308828,488.989118 C101.128458,485.474572 100.654904,482.961586 99.6152258,480.562978 L99.4822978,480.263683 C98.8633614,478.902881 99.4647626,477.297986 100.825565,476.67905 Z" id="Path" fill="#FFFFFF"></path>
                    <path d="M193.436248,484.413 C189.583248,489.523 175.690248,492.573 170.463248,493.323 C165.236248,494.073 159.636248,493.423 161.875248,501.853 C163.458248,507.823 178.689248,505.413 184.644248,505.353 C189.486248,505.313 196.273248,519.593 198.802252,514.743 C198.806248,498.153 195.601248,489.163 193.436248,484.413 Z" id="Path" fill="#C6CBCF"></path>
                    <path d="M19.4549482,518.953 C25.5760482,516.783 32.0583482,515.143 44.4863482,512.393 L39.2019482,527.233 L39.3494482,544.143 L3.97714818,544.45304 C2.53354818,544.463 -0.0454418236,542.583 1.18739818,534.963 C2.72844818,525.433 10.7572482,522.033 19.4549482,518.953 Z" id="Path" fill="#EAF4FB"></path>
                    <path d="M199.917248,550.833 L199.024248,540.103 L40.4184482,542.543 L0.872418176,539.723 L0.0713481764,545.973 C-0.562661824,550.923 3.10384818,555.383 8.08154818,555.713 L40.6135482,557.903 L195.667248,555.523 C198.174248,555.483 200.125248,553.333 199.917248,550.833 Z" id="Path" fill="#C7CBCF"></path>
                    <polygon id="Path" fill="#6686B7" points="213.214248 43.513 353.214248 43.513 353.214248 171.513 343.214248 340.513 343.214248 479.513 289.214248 489.513 243.128248 479.513 243.128248 445.013 249.043248 370.513 249.043248 261.513"></polygon>
                    <path d="M89.2242399,38.1622452 L89.8732205,46.1358782 L93.860037,45.8113879 L93.2110564,37.8377548 L89.2242399,38.1622452 Z M90.5222011,54.1095113 L91.1711817,62.0831443 L95.1579983,61.758654 L94.5090177,53.785021 L90.5222011,54.1095113 Z M91.8201623,70.0567774 L92.4691429,78.0304105 L96.4559595,77.7059201 L95.8069789,69.7322871 L91.8201623,70.0567774 Z M93.1181235,86.0040435 L93.7671041,93.9776766 L97.7539207,93.6531863 L97.1049401,85.6795532 L93.1181235,86.0040435 Z M94.4160847,101.95131 L95.0650654,109.924943 L99.0518819,109.600452 L98.4029013,101.626819 L94.4160847,101.95131 Z M95.714046,117.898576 L96.3630266,125.872209 L100.349843,125.547719 L99.7008625,117.574085 L95.714046,117.898576 Z M97.0120072,133.845842 L97.6609878,141.819475 L101.647804,141.494985 L100.998824,133.521352 L97.0120072,133.845842 Z M98.3099684,149.793108 L98.958949,157.766741 L102.945766,157.442251 L102.296785,149.468618 L98.3099684,149.793108 Z M99.6079296,165.740374 L100.25691,173.714007 L104.243727,173.389517 L103.594746,165.415884 L99.6079296,165.740374 Z M100.905891,181.68764 L101.554871,189.661273 L105.541688,189.336783 L104.892707,181.36315 L100.905891,181.68764 Z M102.203852,197.634906 L102.852833,205.608539 L106.839649,205.284049 L106.190669,197.310416 L102.203852,197.634906 Z M103.925756,213.87555 L105.999477,221.602107 L109.862755,220.565247 L107.789035,212.83869 L103.925756,213.87555 Z M108.073197,229.328664 L110.146918,237.055221 L114.010196,236.018361 L111.936476,228.291804 L108.073197,229.328664 Z M112.220638,244.781778 L114.294359,252.508335 L118.157637,251.471475 L116.083917,243.744918 L112.220638,244.781778 Z M116.368079,260.234892 L118.4418,267.961449 L122.305078,266.924589 L120.231358,259.198032 L116.368079,260.234892 Z" id="Path" fill="#697B8F"></path>
                    <path d="M335.218219,69.138963 L335.722071,77.1230806 C335.791638,78.2254572 336.741687,79.0627144 337.844063,78.9931469 C338.94644,78.9235795 339.783697,77.9735311 339.71413,76.8711545 L339.210278,68.887037 C339.14071,67.7846604 338.190662,66.9474032 337.088285,67.0169706 C335.985909,67.0865381 335.148651,68.0365864 335.218219,69.138963 Z M336.225923,85.1071981 L336.729775,93.0913157 C336.799342,94.1936923 337.749391,95.0309495 338.851767,94.961382 C339.954144,94.8918146 340.791401,93.9417662 340.721834,92.8393896 L340.217982,84.8552721 C340.148414,83.7528955 339.198366,82.9156383 338.095989,82.9852057 C336.993613,83.0547732 336.156355,84.0048215 336.225923,85.1071981 Z M337.233627,101.075433 L337.737479,109.059551 C337.807047,110.161927 338.757095,110.999185 339.859472,110.929617 C340.961848,110.86005 341.799105,109.910001 341.729538,108.807625 L341.225686,100.823507 C341.156118,99.7211306 340.20607,98.8838734 339.103693,98.9534408 C338.001317,99.0230083 337.16406,99.9730566 337.233627,101.075433 Z M338.241331,117.043668 L338.745183,125.027786 C338.814751,126.130162 339.764799,126.96742 340.867176,126.897852 C341.969552,126.828285 342.80681,125.878236 342.737242,124.77586 L342.23339,116.791742 C342.163823,115.689366 341.213774,114.852108 340.111398,114.921676 C339.009021,114.991243 338.171764,115.941292 338.241331,117.043668 Z M339.249035,133.011903 L339.752887,140.996021 C339.822455,142.098398 340.772503,142.935655 341.87488,142.866087 C342.977256,142.79652 343.814514,141.846472 343.744946,140.744095 L343.241094,132.759977 C343.171527,131.657601 342.221478,130.820344 341.119102,130.889911 C340.016725,130.959478 339.179468,131.909527 339.249035,133.011903 Z M340.25674,148.980139 L340.760592,156.964256 C340.830159,158.066633 341.780207,158.90389 342.882584,158.834322 C343.984961,158.764755 344.822218,157.814707 344.75265,156.71233 L344.248798,148.728212 C344.179231,147.625836 343.229183,146.788579 342.126806,146.858146 C341.024429,146.927714 340.187172,147.877762 340.25674,148.980139 Z M341.264444,164.948374 L341.718219,172.138963 L343.714248,172.013 L341.719298,171.870965 L341.662831,172.664064 C341.584388,173.765844 342.413966,174.722605 343.515746,174.801049 C344.617527,174.879493 345.574288,174.049915 345.652732,172.948134 L345.718736,172.021072 L345.256503,164.696448 C345.186935,163.594071 344.236887,162.756814 343.13451,162.826381 C342.032134,162.895949 341.194876,163.845997 341.264444,164.948374 Z M341.09469,180.643864 L340.526549,188.623665 C340.448105,189.725445 341.277683,190.682206 342.379464,190.76065 C343.481245,190.839094 344.438006,190.009516 344.516449,188.907735 L345.084591,180.927935 C345.163034,179.826154 344.333456,178.869393 343.231676,178.790949 C342.129895,178.712506 341.173134,179.542084 341.09469,180.643864 Z M339.958408,196.603465 L339.390267,204.583266 C339.311823,205.685046 340.141401,206.641807 341.243182,206.720251 C342.344962,206.798695 343.301723,205.969117 343.380167,204.867336 L343.948308,196.887536 C344.026752,195.785755 343.197174,194.828994 342.095393,194.75055 C340.993613,194.672106 340.036852,195.501685 339.958408,196.603465 Z M338.822126,212.563066 L338.253985,220.542867 C338.175541,221.644647 339.005119,222.601408 340.106899,222.679852 C341.20868,222.758296 342.165441,221.928718 342.243885,220.826937 L342.812026,212.847137 C342.89047,211.745356 342.060892,210.788595 340.959111,210.710151 C339.857331,210.631707 338.90057,211.461286 338.822126,212.563066 Z M337.685844,228.522667 L337.117702,236.502468 C337.039258,237.604248 337.868837,238.561009 338.970617,238.639453 C340.072398,238.717897 341.029159,237.888319 341.107603,236.786538 L341.675744,228.806738 C341.754188,227.704957 340.924609,226.748196 339.822829,226.669752 C338.721048,226.591308 337.764287,227.420887 337.685844,228.522667 Z M336.549561,244.482268 L335.98142,252.462069 C335.902976,253.563849 336.732554,254.52061 337.834335,254.599054 C338.936115,254.677498 339.892876,253.84792 339.97132,252.746139 L340.539461,244.766339 C340.617905,243.664558 339.788327,242.707797 338.686547,242.629353 C337.584766,242.550909 336.628005,243.380488 336.549561,244.482268 Z M335.413279,260.441869 L334.845138,268.42167 C334.766694,269.52345 335.596272,270.480211 336.698053,270.558655 C337.799833,270.637099 338.756594,269.807521 338.835038,268.70574 L339.403179,260.72594 C339.481623,259.624159 338.652045,258.667398 337.550264,258.588954 C336.448484,258.51051 335.491723,259.340089 335.413279,260.441869 Z M334.276997,276.40147 L333.708856,284.381271 C333.630412,285.483051 334.45999,286.439812 335.56177,286.518256 C336.663551,286.5967 337.620312,285.767122 337.698756,284.665341 L338.266897,276.685541 C338.345341,275.58376 337.515763,274.626999 336.413982,274.548555 C335.312202,274.470111 334.355441,275.299689 334.276997,276.40147 Z M333.140714,292.361071 L332.572573,300.340871 C332.494129,301.442652 333.323708,302.399413 334.425488,302.477857 C335.527269,302.556301 336.48403,301.726723 336.562474,300.624942 L337.130615,292.645142 C337.209059,291.543361 336.37948,290.5866 335.2777,290.508156 C334.175919,290.429712 333.219158,291.25929 333.140714,292.361071 Z M332.004432,308.320672 L331.436291,316.300472 C331.357847,317.402253 332.187425,318.359014 333.289206,318.437458 C334.390986,318.515902 335.347747,317.686324 335.426191,316.584543 L335.994332,308.604742 C336.072776,307.502962 335.243198,306.546201 334.141418,306.467757 C333.039637,306.389313 332.082876,307.218891 332.004432,308.320672 Z M330.86815,324.280273 L330.719298,326.370965 L330.556528,332.361218 C330.526886,333.465389 331.397965,334.384527 332.502136,334.414169 C333.606308,334.443812 334.525446,333.572733 334.555088,332.468562 L334.713528,326.566672 L334.85805,324.564343 C334.936494,323.462563 334.106916,322.505802 333.005135,322.427358 C331.903355,322.348914 330.946594,323.178492 330.86815,324.280273 Z M330.341841,340.358336 L330.127153,348.355455 C330.097511,349.459627 330.968589,350.378765 332.072761,350.408407 C333.176932,350.438049 334.09607,349.566971 334.125712,348.462799 L334.3404,340.46568 C334.370042,339.361509 333.498964,338.442371 332.394792,338.412729 C331.290621,338.383087 330.371483,339.254165 330.341841,340.358336 Z M329.912465,356.352574 L329.697777,364.349693 C329.668135,365.453865 330.539214,366.373002 331.643385,366.402645 C332.747557,366.432287 333.666695,365.561208 333.696337,364.457037 L333.911025,356.459918 C333.940667,355.355746 333.069589,354.436609 331.965417,354.406966 C330.861245,354.377324 329.942107,355.248402 329.912465,356.352574 Z M329.48309,372.346812 L329.268402,380.34393 C329.23876,381.448102 330.109838,382.36724 331.21401,382.396882 C332.318181,382.426524 333.237319,381.555446 333.266961,380.451274 L333.481649,372.454156 C333.511291,371.349984 332.640213,370.430846 331.536041,370.401204 C330.43187,370.371562 329.512732,371.24264 329.48309,372.346812 Z M329.053714,388.341049 L328.839026,396.338168 C328.809384,397.44234 329.680463,398.361478 330.784634,398.39112 C331.888806,398.420762 332.807944,397.549684 332.837586,396.445512 L333.052274,388.448393 C333.081916,387.344221 332.210838,386.425084 331.106666,386.395442 C330.002494,386.365799 329.083356,387.236878 329.053714,388.341049 Z M328.624339,404.335287 L328.409651,412.332406 C328.380009,413.436577 329.251087,414.355715 330.355259,414.385357 C331.45943,414.415 332.378568,413.543921 332.40821,412.43975 L332.622898,404.442631 C332.65254,403.338459 331.781462,402.419321 330.67729,402.389679 C329.573119,402.360037 328.653981,403.231115 328.624339,404.335287 Z M328.194963,420.329525 L327.980275,428.326643 C327.950633,429.430815 328.821712,430.349953 329.925883,430.379595 C331.030055,430.409237 331.949193,429.538159 331.978835,428.433987 L332.193523,420.436868 C332.223165,419.332697 331.352087,418.413559 330.247915,418.383917 C329.143743,418.354275 328.224605,419.225353 328.194963,420.329525 Z M327.765588,436.323762 L327.5509,444.320881 C327.521258,445.425053 328.392336,446.34419 329.496508,446.373833 C330.600679,446.403475 331.519817,445.532396 331.549459,444.428225 L331.764147,436.431106 C331.793789,435.326934 330.922711,434.407797 329.818539,434.378154 C328.714368,434.348512 327.79523,435.21959 327.765588,436.323762 Z M327.336212,452.318 L327.121524,460.315119 C327.091882,461.41929 327.962961,462.338428 329.067132,462.36807 C330.171304,462.397712 331.090442,461.526634 331.120084,460.422462 L331.334772,452.425344 C331.364414,451.321172 330.493336,450.402034 329.389164,450.372392 C328.284992,450.34275 327.365854,451.213828 327.336212,452.318 Z M326.906837,468.312237 L326.714968,475.459328 C326.685326,476.5635 327.556405,477.482638 328.660576,477.51228 C329.764748,477.541922 330.683886,476.670844 330.713528,475.566672 L330.905396,468.419581 C330.935038,467.31541 330.06396,466.396272 328.959788,466.36663 C327.855617,466.336987 326.936479,467.208066 326.906837,468.312237 Z" id="Path" fill="#385683"></path>
                    <polygon id="Path" fill="#6686B7" points="229.214248 46.513 89.2142482 46.513 89.2142482 174.513 99.2142482 343.513 99.2142482 482.513 139.214248 492.513 199.300248 482.513 199.300248 448.013 193.385248 373.513 193.385248 264.513"></polygon>
                    <path d="M102.718219,68.887037 L102.214367,76.8711545 C102.144799,77.9735311 102.982056,78.9235795 104.084433,78.9931469 C105.18681,79.0627144 106.136858,78.2254572 106.206425,77.1230806 L106.710278,69.138963 C106.779845,68.0365864 105.942588,67.0865381 104.840211,67.0169706 C103.737835,66.9474032 102.787786,67.7846604 102.718219,68.887037 Z M101.710515,84.8552721 L101.206663,92.8393896 C101.137095,93.9417662 101.974352,94.8918146 103.076729,94.961382 C104.179106,95.0309495 105.129154,94.1936923 105.198721,93.0913157 L105.702573,85.1071981 C105.772141,84.0048215 104.934884,83.0547732 103.832507,82.9852057 C102.73013,82.9156383 101.780082,83.7528955 101.710515,84.8552721 Z M100.70281,100.823507 L100.198958,108.807625 C100.129391,109.910001 100.966648,110.86005 102.069025,110.929617 C103.171401,110.999185 104.12145,110.161927 104.191017,109.059551 L104.694869,101.075433 C104.764437,99.9730566 103.927179,99.0230083 102.824803,98.9534408 C101.722426,98.8838734 100.772378,99.7211306 100.70281,100.823507 Z M99.6951063,116.791742 L99.1912542,124.77586 C99.1216868,125.878236 99.958944,126.828285 101.061321,126.897852 C102.163697,126.96742 103.113746,126.130162 103.183313,125.027786 L103.687165,117.043668 C103.756733,115.941292 102.919475,114.991243 101.817099,114.921676 C100.714722,114.852108 99.7646738,115.689366 99.6951063,116.791742 Z M98.6874022,132.759977 L98.1835501,140.744095 C98.1139826,141.846472 98.9512399,142.79652 100.053616,142.866087 C101.155993,142.935655 102.106041,142.098398 102.175609,140.996021 L102.679461,133.011903 C102.749028,131.909527 101.911771,130.959478 100.809395,130.889911 C99.707018,130.820344 98.7569696,131.657601 98.6874022,132.759977 Z M97.679698,148.728212 L97.1758459,156.71233 C97.1062785,157.814707 97.9435357,158.764755 99.0459123,158.834322 C100.148289,158.90389 101.098337,158.066633 101.167905,156.964256 L101.671757,148.980139 C101.741324,147.877762 100.904067,146.927714 99.8016904,146.858146 C98.6993138,146.788579 97.7492655,147.625836 97.679698,148.728212 Z M96.6719938,164.696448 L96.2097602,172.021072 L96.2757647,172.948134 C96.3542086,174.049915 97.3109695,174.879493 98.4127501,174.801049 C99.5145306,174.722605 100.344109,173.765844 100.265665,172.664064 L100.209198,171.870965 L98.2142482,172.013 L100.210278,172.138963 L100.664053,164.948374 C100.73362,163.845997 99.8963628,162.895949 98.7939863,162.826381 C97.6916097,162.756814 96.7415613,163.594071 96.6719938,164.696448 Z M96.8439058,180.927935 L97.4120469,188.907735 C97.4904908,190.009516 98.4472518,190.839094 99.5490323,190.76065 C100.650813,190.682206 101.480391,189.725445 101.401947,188.623665 L100.833806,180.643864 C100.755362,179.542084 99.7986012,178.712506 98.6968206,178.790949 C97.5950401,178.869393 96.7654619,179.826154 96.8439058,180.927935 Z M97.9801881,196.887536 L98.5483292,204.867336 C98.6267731,205.969117 99.5835341,206.798695 100.685315,206.720251 C101.787095,206.641807 102.616673,205.685046 102.538229,204.583266 L101.970088,196.603465 C101.891644,195.501685 100.934883,194.672106 99.8331029,194.75055 C98.7313224,194.828994 97.9017441,195.785755 97.9801881,196.887536 Z M99.1164703,212.847137 L99.6846115,220.826937 C99.7630554,221.928718 100.719816,222.758296 101.821597,222.679852 C102.923377,222.601408 103.752956,221.644647 103.674512,220.542867 L103.106371,212.563066 C103.027927,211.461286 102.071166,210.631707 100.969385,210.710151 C99.8676046,210.788595 99.0380264,211.745356 99.1164703,212.847137 Z M100.252753,228.806738 L100.820894,236.786538 C100.899338,237.888319 101.856099,238.717897 102.957879,238.639453 C104.05966,238.561009 104.889238,237.604248 104.810794,236.502468 L104.242653,228.522667 C104.164209,227.420887 103.207448,226.591308 102.105667,226.669752 C101.003887,226.748196 100.174309,227.704957 100.252753,228.806738 Z M101.389035,244.766339 L101.957176,252.746139 C102.03562,253.84792 102.992381,254.677498 104.094161,254.599054 C105.195942,254.52061 106.02552,253.563849 105.947076,252.462069 L105.378935,244.482268 C105.300491,243.380488 104.34373,242.550909 103.24195,242.629353 C102.140169,242.707797 101.310591,243.664558 101.389035,244.766339 Z M102.525317,260.72594 L103.093458,268.70574 C103.171902,269.807521 104.128663,270.637099 105.230444,270.558655 C106.332224,270.480211 107.161802,269.52345 107.083359,268.42167 L106.515217,260.441869 C106.436773,259.340089 105.480013,258.51051 104.378232,258.588954 C103.276451,258.667398 102.446873,259.624159 102.525317,260.72594 Z M103.661599,276.685541 L104.229741,284.665341 C104.308184,285.767122 105.264945,286.5967 106.366726,286.518256 C107.468506,286.439812 108.298085,285.483051 108.219641,284.381271 L107.6515,276.40147 C107.573056,275.299689 106.616295,274.470111 105.514514,274.548555 C104.412734,274.626999 103.583155,275.58376 103.661599,276.685541 Z M104.797882,292.645142 L105.366023,300.624942 C105.444467,301.726723 106.401228,302.556301 107.503008,302.477857 C108.604789,302.399413 109.434367,301.442652 109.355923,300.340871 L108.787782,292.361071 C108.709338,291.25929 107.752577,290.429712 106.650797,290.508156 C105.549016,290.5866 104.719438,291.543361 104.797882,292.645142 Z M105.934164,308.604742 L106.502305,316.584543 C106.580749,317.686324 107.53751,318.515902 108.63929,318.437458 C109.741071,318.359014 110.570649,317.402253 110.492205,316.300472 L109.924064,308.320672 C109.84562,307.218891 108.888859,306.389313 107.787079,306.467757 C106.685298,306.546201 105.85572,307.502962 105.934164,308.604742 Z M107.070446,324.564343 L107.219298,326.655035 L107.373408,332.468562 C107.403051,333.572733 108.322188,334.443812 109.42636,334.414169 C110.530532,334.384527 111.40161,333.465389 111.371968,332.361218 L111.213528,326.459328 L111.060346,324.280273 C110.981903,323.178492 110.025142,322.348914 108.923361,322.427358 C107.821581,322.505802 106.992002,323.462563 107.070446,324.564343 Z M107.588096,340.46568 L107.802784,348.462799 C107.832426,349.566971 108.751564,350.438049 109.855736,350.408407 C110.959907,350.378765 111.830986,349.459627 111.801343,348.355455 L111.586656,340.358336 C111.557013,339.254165 110.637876,338.383087 109.533704,338.412729 C108.429532,338.442371 107.558454,339.361509 107.588096,340.46568 Z M108.017472,356.459918 L108.232159,364.457037 C108.261802,365.561208 109.180939,366.432287 110.285111,366.402645 C111.389283,366.373002 112.260361,365.453865 112.230719,364.349693 L112.016031,356.352574 C111.986389,355.248402 111.067251,354.377324 109.963079,354.406966 C108.858908,354.436609 107.98783,355.355746 108.017472,356.459918 Z M108.446847,372.454156 L108.661535,380.451274 C108.691177,381.555446 109.610315,382.426524 110.714487,382.396882 C111.818658,382.36724 112.689737,381.448102 112.660094,380.34393 L112.445407,372.346812 C112.415764,371.24264 111.496627,370.371562 110.392455,370.401204 C109.288283,370.430846 108.417205,371.349984 108.446847,372.454156 Z M108.876223,388.448393 L109.09091,396.445512 C109.120553,397.549684 110.03969,398.420762 111.143862,398.39112 C112.248034,398.361478 113.119112,397.44234 113.08947,396.338168 L112.874782,388.341049 C112.84514,387.236878 111.926002,386.365799 110.82183,386.395442 C109.717659,386.425084 108.846581,387.344221 108.876223,388.448393 Z M109.305598,404.442631 L109.520286,412.43975 C109.549928,413.543921 110.469066,414.415 111.573238,414.385357 C112.677409,414.355715 113.548488,413.436577 113.518845,412.332406 L113.304158,404.335287 C113.274515,403.231115 112.355378,402.360037 111.251206,402.389679 C110.147034,402.419321 109.275956,403.338459 109.305598,404.442631 Z M109.734974,420.436868 L109.949662,428.433987 C109.979304,429.538159 110.898441,430.409237 112.002613,430.379595 C113.106785,430.349953 113.977863,429.430815 113.948221,428.326643 L113.733533,420.329525 C113.703891,419.225353 112.784753,418.354275 111.680582,418.383917 C110.57641,418.413559 109.705332,419.332697 109.734974,420.436868 Z M110.164349,436.431106 L110.379037,444.428225 C110.408679,445.532396 111.327817,446.403475 112.431989,446.373833 C113.53616,446.34419 114.407239,445.425053 114.377596,444.320881 L114.162909,436.323762 C114.133266,435.21959 113.214129,434.348512 112.109957,434.378154 C111.005785,434.407797 110.134707,435.326934 110.164349,436.431106 Z M110.593725,452.425344 L110.808413,460.422462 C110.838055,461.526634 111.757192,462.397712 112.861364,462.36807 C113.965536,462.338428 114.836614,461.41929 114.806972,460.315119 L114.592284,452.318 C114.562642,451.213828 113.643504,450.34275 112.539333,450.372392 C111.435161,450.402034 110.564083,451.321172 110.593725,452.425344 Z M111.0231,468.419581 L111.214968,475.566672 C111.244611,476.670844 112.163748,477.541922 113.26792,477.51228 C114.372092,477.482638 115.24317,476.5635 115.213528,475.459328 L115.02166,468.312237 C114.992017,467.208066 114.07288,466.336987 112.968708,466.36663 C111.864536,466.396272 110.993458,467.31541 111.0231,468.419581 Z" id="Path" fill="#385683"></path>
                </g>
                <g id="upper-limb" transform="translate(0.000003, 416.000000)" fill-rule="nonzero">
                    <path d="M57.8298966,99.595 C72.6023966,67.665 93.8394966,59 93.8394966,59 L107,234.459 L107,499 C-36.7613034,454.71 -17.1707034,261.702 57.8298966,99.595 Z" id="Path" fill="#454B5E"></path>
                    <path d="M400.169997,99.595 C385.397997,67.665 364.160997,59 364.160997,59 L350.999997,234.459 L350.999997,499 C494.760997,454.71 475.170997,261.702 400.169997,99.595 Z" id="Path" fill="#454B5E"></path>
                    <path d="M228.999997,105 C304.110997,105 364.999997,81.495 364.999997,52.5 C364.999997,23.505 304.110997,0 228.999997,0 C153.888997,0 92.9999966,23.505 92.9999966,52.5 C92.9999966,81.495 153.888997,105 228.999997,105 Z" id="Path" fill="#35383E"></path>
                    <path d="M82.6216027,135.772 C80.2549027,88.19 111.784003,45.545 157.969003,33.859 L228.552003,16 L299.135003,33.859 C345.320003,45.545 376.849003,88.19 374.482003,135.772 L368.552003,255 L378.094003,472.562 C378.344003,478.251 373.799003,483 368.104003,483 L89.0002027,483 C83.3054027,483 78.7603027,478.251 79.0098027,472.562 L88.5520027,255 L82.6216027,135.772 Z" id="Path" fill="#FFFFFF"></path>
                    <path d="M121,187 L121,147 L110.928058,147 L110.928058,167.11236 L97.8057554,147 L89,147 L89,187 L99.0719424,187 L99.0719424,166.88764 L112.194245,187 L121,187 Z M157.999059,166.5 C157.999059,160.440608 158.170635,154.777624 153.881228,150.530387 C150.907238,147.585635 147.475713,146 142.5,146 C137.524287,146 134.092762,147.585635 131.118772,150.530387 C126.829365,154.777624 127.000941,160.440608 127.000941,166.5 C127.000941,172.559392 126.829365,178.222376 131.118772,182.469613 C134.092762,185.414365 137.524287,187 142.5,187 C147.475713,187 150.907238,185.414365 153.881228,182.469613 C158.170635,178.222376 157.999059,172.559392 157.999059,166.5 Z M148,166.5 C148,173.757282 147.427083,175.041262 146.510417,176.213592 C145.765625,177.162621 144.333333,178 142.5,178 C140.666667,178 139.234375,177.162621 138.489583,176.213592 C137.572917,175.041262 137,173.757282 137,166.5 C137,159.242718 137.572917,157.902913 138.489583,156.730583 C139.234375,155.781553 140.666667,155 142.5,155 C144.333333,155 145.765625,155.781553 146.510417,156.730583 C147.427083,157.902913 148,159.242718 148,166.5 Z M197,187 L188.246892,170.314607 C191.42984,168.741573 194.840142,165.314607 194.840142,159.865169 C194.840142,153.292135 190.008881,147 181.028419,147 L165,147 L165,187 L174.946714,187 L174.946714,172.11236 L178.300178,172.11236 L185.461812,187 L197,187 Z M185,159 C185,161.055556 183.4,163 180.657143,163 L175,163 L175,155 L180.657143,155 C183.4,155 185,156.944444 185,159 Z M229,187 L229,178.235955 L211.968354,178.235955 L211.968354,147 L202,147 L202,187 L229,187 Z M264.983828,167 C264.983828,160.707865 265.492988,155.595506 260.797407,150.932584 C258.025317,148.179775 254.121762,147 249.935341,147 L235,147 L235,187 L249.935341,187 C254.121762,187 258.025317,185.820225 260.797407,183.067416 C265.492988,178.404494 264.983828,173.292135 264.983828,167 Z M255,166.5 C255,173.4575 254.722222,174.55 253.944444,175.7 C253.055556,177.08 251.722222,178 249.277778,178 L245,178 L245,155 L249.277778,155 C251.722222,155 253.055556,155.92 253.944444,157.3 C254.722222,158.45 255,159.6 255,166.5 Z M298,155.764045 L298,147 L268,147 L268,155.764045 L278,155.764045 L278,187 L288,187 L288,155.764045 L298,155.764045 Z M331.999059,166.5 C331.999059,160.440608 332.170635,154.777624 327.881228,150.530387 C324.907238,147.585635 321.475713,146 316.5,146 C311.524287,146 308.092762,147.585635 305.118772,150.530387 C300.829365,154.777624 301.000941,160.440608 301.000941,166.5 C301.000941,172.559392 300.829365,178.222376 305.118772,182.469613 C308.092762,185.414365 311.524287,187 316.5,187 C321.475713,187 324.907238,185.414365 327.881228,182.469613 C332.170635,178.222376 331.999059,172.559392 331.999059,166.5 Z M322,166.5 C322,173.757282 321.427083,175.041262 320.510417,176.213592 C319.765625,177.162621 318.333333,178 316.5,178 C314.666667,178 313.234375,177.162621 312.489583,176.213592 C311.572917,175.041262 311,173.757282 311,166.5 C311,159.242718 311.572917,157.902913 312.489583,156.730583 C313.234375,155.781553 314.666667,155 316.5,155 C318.333333,155 319.765625,155.781553 320.510417,156.730583 C321.427083,157.902913 322,159.242718 322,166.5 Z M368,173.861878 L357.781793,173.861878 C357.150331,176.127072 355.887406,178.165746 352.557878,178.165746 C350.720897,178.165746 349.343161,177.429558 348.596888,176.466851 C347.678397,175.277624 347.046935,173.861878 347.046935,166.5 C347.046935,159.138122 347.678397,157.722376 348.596888,156.533149 C349.343161,155.570442 350.720897,154.834254 352.557878,154.834254 C355.887406,154.834254 357.150331,156.872928 357.781793,159.138122 L368,159.138122 C366.507453,150.247238 360.250236,146 352.500472,146 C347.735803,146 344.119246,147.585635 341.134152,150.530387 C336.828728,154.777624 337.000945,160.440608 337.000945,166.5 C337.000945,172.559392 336.828728,178.222376 341.134152,182.469613 C344.119246,185.414365 347.735803,187 352.500472,187 C360.250236,187 366.507453,182.752762 368,173.861878 Z" id="Shape" fill="#000000"></path>
                    <path d="M387.990997,246.116 C368.925997,187.585 420.988997,116.047 362.992997,58.016 C362.992997,58.016 310.496997,20.496 263.999997,27.5 C306.996997,50.012 324.995997,95.036 308.114997,216.1 C302.534997,256.121 329.289997,313.308 308.114997,375.184 C278.498997,461.73 275.998997,500.424 308.114997,513.258 C334.494997,523.799 342.533997,509.119 387.990997,476.238 C411.896997,458.946 412.107997,320.155 387.990997,246.116 Z" id="Path" fill="#343844"></path>
                    <path d="M359.84643,61.6627679 C360.584963,61.2874538 361.487915,61.5819009 361.863229,62.3204338 C362.238543,63.0589667 361.944096,63.9619181 361.205563,64.3372321 C349.913735,70.0756109 338.565365,84.8648966 331.419724,105.662284 C322.582518,131.382972 320.487148,164.361473 326.81172,203.565692 L327.005953,204.755604 C333.570523,244.507725 334.378158,288.543012 330.545719,333.577067 L330.337775,335.968325 C327.331661,369.815461 321.783404,402.356513 315.98121,424.363803 C311.69793,441.496923 308.909012,457.806032 308.575607,472.434179 C308.125083,492.200926 312.392446,505.907118 322.284576,511.705953 C322.999258,512.124905 323.238995,513.043897 322.820044,513.758579 C322.401092,514.473262 321.4821,514.712999 320.767417,514.294047 C309.672875,507.79035 305.103491,493.114107 305.576386,472.365821 C305.915869,457.47099 308.73818,440.966607 313.075558,423.617602 L313.481908,422.057324 C319.231969,399.709339 324.685329,367.061393 327.556524,333.322683 C331.315592,289.150785 330.587816,245.960822 324.318137,206.915232 L324.04604,205.244396 C317.407986,165.047291 319.486396,131.161733 328.582519,104.687466 C335.963783,83.2042995 347.793234,67.7880658 359.84643,61.6627679 Z" id="Path" fill="#78819C"></path>
                    <path d="M70.0085966,246.116 C89.0740966,187.585 37.0107966,116.047 95.0068966,58.016 C95.0068966,58.016 147.502997,20.496 193.999997,27.5 C151.002997,50.012 133.003997,95.036 149.884997,216.1 C155.464997,256.121 128.709997,313.308 149.884997,375.184 C179.500997,461.73 182.000997,500.424 149.884997,513.258 C123.504997,523.799 115.465997,509.119 70.0085966,476.238 C46.1028966,458.946 45.8915966,320.155 70.0085966,246.116 Z" id="Path" fill="#343844"></path>
                    <path d="M96.1366631,62.3204365 C96.5119757,61.5819028 97.4149265,61.2874539 98.1534601,61.6627665 C110.206704,67.7880581 122.036182,83.2042875 129.417461,104.687466 C138.422634,130.89698 140.549738,164.370312 134.150481,204.040378 L133.953953,205.244396 C127.433886,244.727023 126.6307,288.519758 130.443469,333.322683 L130.652857,335.729954 C133.644867,369.402313 139.163365,401.765832 144.92921,423.636197 C149.261813,440.966607 152.084124,457.47099 152.423607,472.365821 C152.896503,493.114107 148.327118,507.79035 137.232576,514.294047 C136.517893,514.712999 135.598901,514.473262 135.17995,513.758579 C134.760998,513.043897 135.000735,512.124905 135.715417,511.705953 C145.607547,505.907118 149.87491,492.200926 149.424386,472.434179 C149.090981,457.806032 146.302063,441.496923 142.023558,424.382398 C136.080067,401.838694 130.407379,368.278286 127.454274,333.577067 C123.675813,289.177295 124.40764,245.748354 130.720087,206.43781 L130.99404,204.755604 C137.55449,165.028437 135.506738,131.642768 126.580257,105.662284 C119.434602,84.8648874 108.086205,70.0756067 96.794333,64.3372335 C96.0557994,63.9619209 95.7613505,63.0589701 96.1366631,62.3204365 Z" id="Path" fill="#78819C"></path>
                </g>
                <g id="head" transform="translate(39.000000, 0.000000)">
                    <rect id="Rectangle" fill="#EBBAAA" fill-rule="nonzero" x="155" y="384" width="70" height="115" rx="35"></rect>
                    <path d="M40,319 C62.091,319 80,301.091 80,279 C80,256.909 62.091,239 40,239 C17.9086,239 0,256.909 0,279 C0,301.091 17.9086,319 40,319 Z" id="Path" fill="#C99584" fill-rule="nonzero" opacity="0.5"></path>
                    <path d="M340,319 C362.091,319 380,301.091 380,279 C380,256.909 362.091,239 340,239 C317.909,239 300,256.909 300,279 C300,301.091 317.909,319 340,319 Z" id="Path" fill="#C99584" fill-rule="nonzero" opacity="0.5"></path>
                    <path d="M40,188 C40,105.157 107.157,38 190,38 C272.843,38 340,105.157 340,188 L340,250.309 C340,259.754 339.234,269.184 337.711,278.506 L329.356,329.625 C318.195,397.913 259.194,448.054 190,448.054 C120.806,448.054 61.805,397.913 50.644,329.625 L42.2891,278.506 C40.7655,269.184 40,259.754 40,250.309 L40,188 Z" id="Path" fill="#F4D5CC" fill-rule="nonzero"></path>
                    <path d="M258,220 C264.525457,220 269.834393,225.208544 269.9962,231.695025 L270,232 L270,245 C270,251.627417 264.627417,257 258,257 C251.474543,257 246.165607,251.791456 246.0038,245.304975 L246,245 L246,232 C246,225.372583 251.372583,220 258,220 Z" id="Path" fill="#000000" fill-rule="nonzero"></path>
                    <path d="M122.5,220 C129.025457,220 134.334393,225.208544 134.4962,231.695025 L134.5,232 L134.5,245 C134.5,251.627417 129.127417,257 122.5,257 C115.974543,257 110.665607,251.791456 110.5038,245.304975 L110.5,245 L110.5,232 C110.5,225.372583 115.872583,220 122.5,220 Z" id="Path" fill="#000000" fill-rule="nonzero"></path>
                    <path d="M312,220 L218,220 C214.133861,220 211,223.133861 211,227 L211,255 C211,265.493139 219.506861,274 230,274 L300,274 C310.493139,274 319,265.493139 319,255 L319,227 C319,223.133861 315.866139,220 312,220 Z M219,228 L311,228 L311,255 C311,261.074861 306.074861,266 300,266 L230,266 L229.711605,265.996292 C223.770026,265.843357 219,260.978435 219,255 L219,228 Z" id="Path" fill="#393939" fill-rule="nonzero"></path>
                    <rect id="Rectangle" fill="#393939" fill-rule="nonzero" x="165" y="231" width="50" height="8"></rect>
                    <path d="M162,220 L68,220 C64.133861,220 61,223.133861 61,227 L61,254 C61,264.493139 69.506861,273 80,273 L150,273 C160.493139,273 169,264.493139 169,254 L169,227 C169,223.133861 165.866139,220 162,220 Z M69,228 L161,228 L161,254 C161,260.074861 156.074861,265 150,265 L80,265 L79.711605,264.996292 C73.7700263,264.843357 69,259.978435 69,254 L69,228 Z" id="Path" fill="#393939" fill-rule="nonzero"></path>
                    <path d="M344.994,126.034 C345.613,69.6967 296.07,51.2381 304.84,61.857 C313.61,72.4759 292.839,98.7934 304.84,107.104 C316.841,115.415 303.456,142.195 309.918,152.352 C316.379,162.51 326.694,160.201 332.533,180.055 C338.371,199.908 333.456,238.56 333.456,238.56 C332.994,239.615 333.456,241 334.379,241 C335.302,241 336.686,240.538 337.061,238.56 C337.061,238.56 344.071,210.065 344.994,126.034 Z" id="Path" fill="#868686" fill-rule="nonzero"></path>
                    <path d="M35.0057,126.034 C34.3871,69.6967 83.93,51.2381 75.16,61.857 C66.39,72.4759 87.161,98.7934 75.16,107.104 C63.159,115.415 76.544,142.195 70.082,152.352 C63.621,162.51 53.3059,160.201 47.4674,180.055 C41.629,199.908 46.5444,238.56 46.5444,238.56 C47.0059,239.615 46.5444,241 45.6213,241 C44.6983,241 43.3137,240.538 42.9386,238.56 C42.9386,238.56 35.9285,210.065 35.0057,126.034 Z" id="Path" fill="#868686" fill-rule="nonzero"></path>
                    <path d="M190.197,0 C234.425,0.168576 355.24,23.5 344.303,153 C332.716926,137.717103 314.914792,130.923891 298.963953,121.04542 L298.251,120.601 C293.243616,117.458936 288.371711,114.61057 283.586245,112.037604 L267.686,129.961 L263.653,121.731 L254.202,130.255 L245.533,130.443 L233.215,140.068 L221.454,130.966 L203.358,140.717 L193.523,131.574 L184.094,141.136 L178.112,131.908 L156.163,141.743 L155.959,132.39 L139.586,132.746 L134.589,124.537 L118.787,129.039 L109.344,115.728 L97.6634941,115.981016 L84.9289506,122.524522 C68.5342821,130.986575 52.8835797,139.54139 36.0883,153 C22.308193,30.24 143.10003,0.754728198 188.429689,0.0137228459 L189.78,0 L190.197,0 Z" id="Path" fill="#272727"></path>
                    <path d="M183.802572,254.839048 L197.947428,264.268952 C193.140005,271.480086 189.375,282.304474 189.375,290.179 C189.375,297.772019 192.116995,300.963707 200.511755,301.052108 L200.875,301.054 L200.875,318.054 C182.331881,318.054 172.375,306.852509 172.375,290.179 C172.375,278.883891 177.073935,265.172754 183.452977,255.369839 L183.802572,254.839048 Z" id="Path" fill="#EBBAAA" fill-rule="nonzero"></path>
                    <polygon id="Path" fill="#393939" fill-rule="nonzero" points="228.656 208.46 220.401 190.673 276.909 177.66 294.988 187.964 295.953 197.917 268.195 196.589"></polygon>
                    <polygon id="Path" fill="#393939" fill-rule="nonzero" points="152.132 207.878 160.068 189.931 102.923 178.037 84.944 188.696 84.181 198.667 112.09 196.791"></polygon>
                    <path d="M233.616708,342.933513 C235.063963,340.581723 238.143698,339.848453 240.495487,341.295708 C242.847277,342.742963 243.580547,345.822698 242.133292,348.174487 C239.267634,352.83118 232.780432,358.152874 224.649633,362.192335 C214.684002,367.143359 202.860515,370 189.875,370 C176.890772,370 165.695287,367.156333 156.330827,362.117569 C149.229181,358.296365 143.638627,353.447325 139.91188,348.602554 C138.22821,346.413783 138.637675,343.27455 140.826446,341.59088 C143.015217,339.90721 146.15445,340.316675 147.83812,342.505446 C150.725099,346.258519 155.241009,350.175453 161.069173,353.311431 C168.982978,357.569636 178.551294,360 189.875,360 C201.293783,360 211.59792,357.510445 220.200367,353.236665 C226.632145,350.041294 231.613061,346.002556 233.490762,343.131873 L233.616708,342.933513 Z" id="Path" fill="#C99584" fill-rule="nonzero"></path>
                </g>
            </g>
        </g>
    </g>
</svg>