<?xml version="1.0" encoding="UTF-8"?>
<svg width="556px" height="1327px" viewBox="0 0 556 1327" version="1.1" xmlns="http://www.w3.org/2000/svg" xmlns:xlink="http://www.w3.org/1999/xlink">
    <!-- Generator: Sketch 55.2 (78181) - https://sketchapp.com -->
    <title>gee_me_002</title>
    <desc>Created with Sketch.</desc>
    <defs>
        <rect id="path-1" x="0" y="1.13686838e-13" width="58.8938409" height="76.1983915" rx="6.02267574"></rect>
        <path d="M0.668522727,0.791981859 L0.668522727,16.8986243 C0.668522727,41.6387725 20.7242045,61.6952865 45.4655682,61.6952865 C70.205928,61.6952865 90.2626136,41.6387725 90.2626136,16.8986243 L90.2626136,0.791981859 L0.668522727,0.791981859 Z" id="path-3"></path>
    </defs>
    <g id="GEE!-ME" stroke="none" stroke-width="1" fill="none" fill-rule="evenodd">
        <g id="gee_me_002" transform="translate(-308.000000, -136.000000)">
            <g transform="translate(335.000000, 136.000000)">
                <g id="body" transform="translate(0.449697, 336.333315)">
                    <rect id="Rectangle" fill="#503216" fill-rule="nonzero" x="207.586345" y="0.340281179" width="224.405814" height="208.786092"></rect>
                    <path d="M321.3125,539.319571 C333.497481,598.246434 331.466818,816.677841 321.3125,887.795604" id="Path" stroke="#F6DDD6" stroke-width="60.2267574" stroke-linecap="round" stroke-linejoin="bevel"></path>
                    <path d="M195.67339,533.223619 C183.488409,592.150482 185.519072,810.584901 195.67339,881.702664" id="Path" stroke="#F6DDD6" stroke-width="60.2267574" stroke-linecap="round" stroke-linejoin="bevel"></path>
                    <path d="M61.3675758,320.883144 C61.3675758,388.954437 26.8442992,437.721046 10.5969886,482.424357" id="Path" stroke="#FBE8E3" stroke-width="74.2796674" stroke-linecap="round" stroke-linejoin="bevel"></path>
                    <polygon id="Path" fill="#CEAF9A" fill-rule="nonzero" points="39.584375 532.888357 75.1234848 423.162231 299.529299 423.162231 471.133864 475.993143 471.133864 547.111909 308.667784 569.463063 131.986061 569.463063"></polygon>
                    <polygon id="Path" fill="#6A8AB9" fill-rule="nonzero" points="345.682462 594.182132 166.97108 573.862627 128.385473 476.328405 370.052424 486.488659"></polygon>
                    <polygon id="Path" fill="#6A8AB9" fill-rule="nonzero" points="247.187784 499.696387 412.699356 499.696387 364.908011 833.952883 277.63267 833.952883 277.63267 674.211447"></polygon>
                    <polygon id="Path" fill="#6A8AB9" fill-rule="nonzero" points="99.9531818 502.743861 248.203617 502.743861 231.957311 696.214289 231.957311 828.87376 152.755436 815.975196"></polygon>
                    <path d="M21.1396643,325.794838 L85.442525,325.794838 C93.203733,325.794838 99.4954351,332.08654 99.4954351,339.847748 L99.4954351,365.584772 C99.4954351,373.34598 93.203733,379.637683 85.442525,379.637683 L21.1396643,379.637683 C13.3784564,379.637683 7.08675425,373.34598 7.08675425,365.584772 L7.08675425,339.847748 C7.08675425,332.08654 13.3784564,325.794838 21.1396643,325.794838 Z" id="Rectangle" fill="#E1C6B3" fill-rule="nonzero" transform="translate(53.291095, 352.716260) rotate(21.491877) translate(-53.291095, -352.716260) "></path>
                    <polygon id="Path" fill="#5C7CAC" fill-rule="nonzero" points="95.8918561 412.321415 418.792348 412.321415 413.715189 504.826703 97.9225189 504.826703"></polygon>
                    <path d="M153.883619,429.247933 L160.991441,503.414174 C161.361647,507.277079 164.793289,510.108473 168.656228,509.738269 C172.519166,509.368066 175.350584,505.936453 174.980377,502.073548 L167.872556,427.907308 C167.502349,424.044403 164.070707,421.213008 160.207769,421.583212 C156.34483,421.953416 153.513412,425.385028 153.883619,429.247933 Z" id="Path" fill="#51709D" fill-rule="nonzero"></path>
                    <path d="M344.666629,428.577621 L337.558807,502.743861" id="Path" stroke="#51709D" stroke-width="14.0529101" stroke-linecap="round"></path>
                    <path d="M67.3009659,154.642237 C81.6290341,108.202389 134.858902,86.5087105 177.560038,109.707054 C216.502992,130.862706 229.600417,180.456429 206.181042,218.080085 L138.080057,327.487008 C122.372784,352.720012 92.4609091,365.293351 63.4464205,358.857119 C11.7513447,347.390948 -9.05717803,284.916729 25.4379924,244.741466 L36.5147917,231.840895 C43.6878598,223.485436 49.0661553,213.742754 52.3134091,203.217125 L67.3009659,154.642237 Z" id="Path" fill="#E1C6B3" fill-rule="nonzero"></path>
                    <rect id="Rectangle" fill="#EFD6C5" fill-rule="nonzero" x="128.385473" y="104.480375" width="234.560133" height="330.193197" rx="112.42328"></rect>
                    <path d="M193.371705,433.438924 C148.693106,433.438924 99.493447,517.647976 39.584375,533.904181 C27.3993939,467.982984 63.1191856,412.863456 73.5525568,362.538981 C82.2533902,320.571973 93.8611932,282.905155 93.8611932,240.403132 L93.8611932,153.029164 C119.584261,140.15971 172.251004,102.041191 169.001742,132.92748 C164.939413,171.534839 162.90875,240.403132 252.264943,240.403132 C341.621136,240.403132 290.81642,153.029164 351.775455,153.029164 C437.069318,153.029164 482.303011,503.424423 474.179356,540.000133 C467.680833,569.260299 443.162311,511.089282 428.946667,494.61626 L390.361061,467.982984 L332.482652,433.438924 C294.573598,434.794026 238.049299,433.438924 193.371705,433.438924 Z" id="Path" fill="#EFD4C5" fill-rule="nonzero"></path>
                    <path d="M206.062337,433.5654 L188.16683,433.5654 C182.188095,425.332736 176.294492,415.445754 170.898381,404.449531 C154.821841,371.688674 145.099545,333.457277 145.099545,296.047637 L159.152576,296.047637 C159.152576,331.202086 168.343331,367.343285 183.514275,398.258714 C190.688937,412.879277 198.830086,425.242315 206.062337,433.5654 Z M340.733902,433.5654 L321.856874,433.5654 C327.653998,428.440124 332.668219,421.43572 336.560221,413.028695 C343.092613,398.918225 345.472352,382.667556 342.928545,371.140877 L356.651379,368.112456 C359.901553,382.839878 357.069828,402.177049 349.31298,418.932439 C346.849821,424.253051 343.975648,429.16249 340.733899,433.565402 Z M266.41689,433.5654 L250.379619,433.5654 C254.374988,427.663119 255.690106,422.915714 255.901372,416.127776 C255.938687,414.928847 255.946335,413.942485 255.946335,411.66281 C255.946335,404.782088 256.124594,401.39615 257.022193,396.680957 C258.224325,390.366011 260.589592,384.076766 264.500889,377.293083 L276.675285,384.312407 C271.082861,394.011806 269.999366,399.703534 269.999366,411.66281 C269.999366,414.088461 269.990967,415.171588 269.947601,416.56494 C269.752243,422.841754 268.756536,428.205735 266.41689,433.5654 Z" id="Combined-Shape" fill="#DDC1AD" fill-rule="nonzero"></path>
                    <ellipse id="Oval" fill="#6C4D4B" fill-rule="nonzero" cx="417.31678" cy="474.977318" rx="91.3869564" ry="91.4380698"></ellipse>
                    <ellipse id="Oval" fill="#8F5B47" cx="437.201818" cy="480.743026" rx="83.3143939" ry="83.313681"></ellipse>
                    <path d="M527.996439,482.089094 C527.996439,532.589201 487.080917,573.527365 436.609583,573.527365 C386.138249,573.527365 345.222727,532.589201 345.222727,482.089094 C345.222727,431.588988 386.138249,390.650824 436.609583,390.650824 C487.080917,390.650824 527.996439,431.588988 527.996439,482.089094 Z M517.958561,482.089094 C517.958561,437.131446 481.535887,400.688617 436.609583,400.688617 C391.683279,400.688617 355.260606,437.131446 355.260606,482.089094 C355.260606,527.046743 391.683279,563.489572 436.609583,563.489572 C481.535887,563.489572 517.958561,527.046743 517.958561,482.089094 Z" id="Path" fill="#E3A490" fill-rule="nonzero"></path>
                    <path d="M313.934679,81.960348 C352.930034,81.960348 384.542015,113.572329 384.542015,152.567684 L384.542015,245.924799 C384.542015,284.920153 352.930034,316.532134 313.934679,316.532134 C274.939324,316.532134 243.327343,284.920153 243.327343,245.924799 L243.327343,152.567684 C243.327343,113.572329 274.939324,81.960348 313.934679,81.960348 Z" id="Rectangle" fill="#EFD6C5" fill-rule="nonzero" transform="translate(313.934679, 199.246241) rotate(-74.007295) translate(-313.934679, -199.246241) "></path>
                    <path d="M347.643959,455.310136 L337.489641,189.123929 C337.288882,183.861223 332.859833,179.757702 327.597081,179.958459 C322.33433,180.159216 318.230774,184.588228 318.431533,189.850934 L328.585851,456.037141 C328.78661,461.299848 333.21566,465.403368 338.478411,465.202611 C343.741162,465.001854 347.844718,460.572842 347.643959,455.310136 Z" id="Path" fill="#E3A490" fill-rule="nonzero"></path>
                    <polygon id="Path" fill="#E3A490" fill-rule="nonzero" points="325.86257 465.659337 346.170203 469.722635 348.336578 458.895668 328.028945 454.83237"></polygon>
                    <path d="M396.453049,217.253974 C441.131648,296.500342 473.624261,450.928774 457.377955,495.632085" id="Path" stroke="#FBE8E3" stroke-width="74.2796674" stroke-linecap="round" stroke-linejoin="bevel"></path>
                    <path d="M322.607386,222.473627 C310.257784,190.636759 323.483693,154.572977 353.48892,138.272605 C390.724432,118.043441 437.170701,136.528036 450.33036,176.812711 L477.295114,259.360508 C484.79642,282.324971 478.036913,307.556971 460.06108,323.697741 C449.684924,333.012813 436.432917,338.490437 422.511383,339.217173 L419.396629,339.380789 C389.310095,340.951704 361.616591,323.029224 350.717462,294.934446 L322.607386,222.473627 Z" id="Path" fill="#E1C6B3" fill-rule="nonzero"></path>
                    <polygon id="Path" fill="#5C7CAC" fill-rule="nonzero" points="143.615947 802.454289 237.033466 802.454289 233.98697 846.148801 151.231686 846.148801"></polygon>
                    <polygon id="Path" fill="#5C7CAC" fill-rule="nonzero" points="274.604242 802.454289 373.09892 802.454289 363.960436 846.148801 276.634905 846.148801"></polygon>
                    <g id="Group-7" transform="translate(224.848485, 431.625094)">
                        <mask id="mask-2" fill="white">
                            <use xlink:href="#path-1"></use>
                        </mask>
                        <g id="Rectangle"></g>
                        <path d="M6.02272727,-14.0529101 L52.8711136,-14.0529101 C63.9586484,-14.0529101 72.9468712,-5.06476414 72.9468712,6.02267574 L72.9468712,70.1757158 C72.9468712,81.2631557 63.9586484,90.2513016 52.8711136,90.2513016 L6.02272727,90.2513016 C-5.06480748,90.2513016 -14.0530303,81.2631557 -14.0530303,70.1757158 L-14.0530303,6.02267574 C-14.0530303,-5.06476414 -5.06480748,-14.0529101 6.02272727,-14.0529101 Z M14.0530303,14.0529101 L14.0530303,62.1454815 L44.8408106,62.1454815 L44.8408106,14.0529101 L14.0530303,14.0529101 Z" id="Rectangle" fill="#51709D" fill-rule="nonzero" mask="url(#mask-2)"></path>
                    </g>
                    <path d="M405.860469,305.843275 L470.162664,305.843275 C477.923872,305.843275 484.215574,312.134977 484.215574,319.896185 L484.215574,345.63426 C484.215574,353.395468 477.923872,359.68717 470.162664,359.68717 L405.860469,359.68717 C398.099261,359.68717 391.807559,353.395468 391.807559,345.63426 L391.807559,319.896185 C391.807559,312.134977 398.099261,305.843275 405.860469,305.843275 Z" id="Rectangle" fill="#E1C6B3" fill-rule="nonzero" transform="translate(438.011566, 332.765222) rotate(-18.992124) translate(-438.011566, -332.765222) "></path>
                    <polygon id="Path" fill="#FFFFFF" fill-rule="nonzero" points="291.8975 870.44026 353.828201 871.514304 346.254621 927.274243 283.816004 926.180124"></polygon>
                    <path d="M292.116326,872.136647 C292.279943,871.152943 293.137178,870.44026 294.130928,870.460336 L352.62767,871.474153 C353.814148,871.504266 354.724583,872.538159 354.587064,873.722618 L353.87036,879.85571 C353.750909,880.879565 352.873598,881.642437 351.841705,881.622361 L293.034792,880.598506 C291.808163,880.578431 290.887689,879.474274 291.090455,878.259701 L292.116326,872.136647 Z" id="Path" fill="#FFA970" fill-rule="nonzero"></path>
                    <path d="M290.798352,889.3615 C290.962973,888.387834 291.820208,887.67515 292.813958,887.695226 L351.310701,888.709043 C352.497178,888.729119 353.407614,889.773049 353.270095,890.957509 L352.55339,897.0906 C352.433939,898.114455 351.556629,898.877327 350.524735,898.857252 L291.717822,897.833397 C290.491193,897.813321 289.57072,896.709164 289.773485,895.494591 L290.798352,889.3615 Z" id="Path" fill="#FFA970" fill-rule="nonzero"></path>
                    <path d="M320.330795,909.50735 C340.859261,909.868711 351.304678,899.650237 351.518485,887.444281 C351.518485,887.444281 351.518485,887.444281 351.518485,887.434243 L362.11447,887.895982 L402.167614,924.222754 L431.902822,936.780033 C438.345133,943.947017 442.298049,953.001107 443.170341,962.607274 L443.54375,966.712732 L273.085511,959.495559 L275.825852,918.892686 L285.017538,884.533321 L293.26767,882.756632 C292.875189,883.941091 292.65536,885.165702 292.633277,886.420426 C292.420473,898.626382 305.711629,909.256405 320.330795,909.50735 Z" id="Path" fill="#4CB4D4"></path>
                    <path d="M323.07214,917.176224 C292.59714,919.826201 293.086989,899.208574 282.334413,894.621303 C277.116723,902.661575 273.672727,925.457403 273.504091,935.11376 C301.166477,950.331054 345.123352,933.818884 424.466761,955.53063 C429.244792,953.242014 428.491951,946.225596 423.338504,945.000986 L390.258674,937.151432 C382.183201,934.300698 353.546136,914.526246 323.07214,917.176224 Z" id="Path" fill="#FFC9C6" fill-rule="nonzero"></path>
                    <path d="M268.992064,964.735286 C271.50053,956.80543 278.923542,951.465324 287.240928,951.605853 L339.70892,952.52933 C350.087083,952.710011 358.35428,961.272248 358.173598,971.651326 C357.992917,982.030404 349.43161,990.291507 339.052443,990.110827 L286.585455,989.197388 C274.017027,988.976556 265.201761,976.720411 268.992064,964.735286 Z" id="Path" fill="#D7E3EE" fill-rule="nonzero"></path>
                    <path d="M342.955095,960.248664 L405.898049,960.248664 C412.070261,960.248664 417.073827,965.25223 417.073827,971.424442 L417.073827,971.424445 C417.073827,977.596656 412.070261,982.600222 405.898049,982.600222 L342.955095,982.600222 C336.782883,982.600222 331.779317,977.596656 331.779317,971.424445 L331.779317,971.424442 C331.779317,965.25223 336.782883,960.248664 342.955095,960.248664 Z" id="Rectangle" fill="#D7E3EE" fill-rule="nonzero" transform="translate(374.426572, 971.424443) rotate(0.999433) translate(-374.426572, -971.424443) "></path>
                    <path d="M372.335038,974.913608 C372.476572,966.793034 379.171837,960.328695 387.290473,960.469224 L434.898125,961.302361 C443.10911,961.44289 449.13786,969.061575 447.392273,977.081772 C446.145568,982.813351 441.219981,987.009149 435.363883,987.32032 L387.815455,989.849844 C379.300322,990.301545 372.186477,983.435695 372.335038,974.913608 Z" id="Path" fill="#D7E3EE" fill-rule="nonzero"></path>
                    <path d="M299.29901,963.320541 L335.84581,963.320541 C339.77358,963.320541 342.957666,966.504628 342.957666,970.432398 L342.957666,970.43244 C342.957666,974.36021 339.77358,977.544296 335.84581,977.544296 L299.29901,977.544296 C295.37124,977.544296 292.187153,974.36021 292.187153,970.43244 L292.187153,970.432398 C292.187153,966.504628 295.37124,963.320541 299.29901,963.320541 Z" id="Rectangle" fill="#B6C2D3" fill-rule="nonzero" transform="translate(317.572410, 970.432419) rotate(0.999433) translate(-317.572410, -970.432419) "></path>
                    <path d="M389.440615,972.791947 L401.620473,972.791947 C404.14546,972.791947 406.192367,974.838853 406.192367,977.36384 L406.192367,977.36387 C406.192367,979.888857 404.14546,981.935764 401.620473,981.935764 L389.440615,981.935764 C386.915628,981.935764 384.868722,979.888857 384.868722,977.36387 L384.868722,977.36384 C384.868722,974.838853 386.915628,972.791947 389.440615,972.791947 Z" id="Rectangle" fill="#B6C2D3" fill-rule="nonzero" transform="translate(395.530544, 977.363855) rotate(-1.998865) translate(-395.530544, -977.363855) "></path>
                    <path d="M415.701102,971.925545 L420.012677,971.925545 C422.537664,971.925545 424.584571,973.972452 424.584571,976.497439 L424.584571,976.497466 C424.584571,979.022453 422.537664,981.06936 420.012677,981.06936 L415.701102,981.06936 C413.176115,981.06936 411.129208,979.022453 411.129208,976.497466 L411.129208,976.497439 C411.129208,973.972452 413.176115,971.925545 415.701102,971.925545 Z" id="Rectangle" fill="#B6C2D3" fill-rule="nonzero" transform="translate(417.856889, 976.497452) rotate(-1.998865) translate(-417.856889, -976.497452) "></path>
                    <path d="M273.920711,962.595172 L277.97438,962.595172 C281.902149,962.595172 285.086236,965.779259 285.086236,969.707029 L285.086236,969.707071 C285.086236,973.634841 281.902149,976.818927 277.97438,976.818927 L273.920711,976.818927 C269.992941,976.818927 266.808854,973.634841 266.808854,969.707071 L266.808854,969.707029 C266.808854,965.779259 269.992941,962.595172 273.920711,962.595172 Z" id="Rectangle" fill="#B6C2D3" fill-rule="nonzero" transform="translate(275.947545, 969.707050) rotate(0.999433) translate(-275.947545, -969.707050) "></path>
                    <polygon id="Path" fill="#FFFFFF" fill-rule="nonzero" points="224.768182 869.346141 162.865587 871.504266 171.410833 927.123676 233.820341 924.945475"></polygon>
                    <path d="M225.595303,871.03249 C225.413617,870.048786 224.544337,869.356178 223.551591,869.386292 L165.080947,871.434002 C163.89447,871.474153 163.003106,872.528121 163.161705,873.702543 L163.984811,879.825596 C164.12233,880.849451 165.012689,881.602286 166.044583,881.562135 L224.82339,879.514425 C226.050019,879.464236 226.95142,878.340003 226.727576,877.135468 L225.595303,871.03249 Z" id="Path" fill="#FFA970" fill-rule="nonzero"></path>
                    <path d="M226.195568,888.217191 C226.013883,887.243525 225.144602,886.54088 224.151856,886.581031 L165.681212,888.618703 C164.495739,888.658854 163.603371,889.72286 163.76197,890.897282 L164.585076,897.010298 C164.722595,898.034153 165.612955,898.786987 166.644848,898.756874 L225.423655,896.699126 C226.650284,896.658975 227.551686,895.534742 227.327841,894.330207 L226.195568,888.217191 Z" id="Path" fill="#FFA970" fill-rule="nonzero"></path>
                    <path d="M197.01947,908.874969 C176.500038,909.587652 165.877955,899.559897 165.452348,887.363979 C165.452348,887.353941 165.452348,887.353941 165.451345,887.343903 L154.864394,887.99636 L115.451667,925.01574 L85.940303,938.094984 C79.6234659,945.372384 75.8291477,954.496738 75.1244886,964.102906 L74.8233523,968.218401 L245.129015,958.020003 L241.682008,917.477358 L231.892064,883.278597 L223.611818,881.652475 C224.025379,882.836934 224.266288,884.051507 224.310455,885.306231 C224.736061,897.50215 211.632614,908.363042 197.01947,908.874969 Z" id="Path" fill="#4CB4D4"></path>
                    <path d="M194.412633,916.594032 C224.928788,918.712006 224.079583,898.104417 234.749848,893.326428 C240.107064,901.266322 243.949564,924.011961 244.285833,933.65828 C216.892462,949.357388 172.654527,933.618128 93.7015909,956.705052 C88.8854167,954.506776 89.5147917,947.470283 94.6471591,946.155332 L127.584451,937.733624 C135.608731,934.742361 163.896477,914.476057 194.412633,916.594032 Z" id="Path" fill="#FFC9C6" fill-rule="nonzero"></path>
                    <path d="M249.313807,963.199504 C246.667822,955.309799 239.152462,950.100184 230.838087,950.39128 L178.395189,952.218159 C168.020038,952.589557 159.904413,961.292324 160.265777,971.661364 C160.628144,982.040441 169.331989,990.150978 179.706136,989.789618 L232.150038,987.962739 C244.711439,987.521076 253.311894,975.114364 249.313807,963.199504 Z" id="Path" fill="#D7E3EE" fill-rule="nonzero"></path>
                    <path d="M112.539842,960.546291 L175.482847,960.546291 C181.655059,960.546291 186.658625,965.549857 186.658625,971.722068 L186.658625,971.722079 C186.658625,977.894291 181.655059,982.897857 175.482847,982.897857 L112.539842,982.897857 C106.36763,982.897857 101.364064,977.894291 101.364064,971.722079 L101.364064,971.722068 C101.364064,965.549857 106.36763,960.546291 112.539842,960.546291 Z" id="Rectangle" fill="#D7E3EE" fill-rule="nonzero" transform="translate(144.011344, 971.722074) scale(-1, 1) rotate(1.998867) translate(-144.011344, -971.722074) "></path>
                    <path d="M146.164564,975.174591 C145.881496,967.064054 139.073807,960.710132 130.959186,961.001228 L83.3726136,962.657463 C75.1656439,962.948559 69.2703977,970.667622 71.1565152,978.657705 C72.5025947,984.369209 77.5004545,988.474667 83.361572,988.675423 L130.946136,990.381847 C139.468295,990.682981 146.461686,983.696677 146.164564,975.174591 Z" id="Path" fill="#D7E3EE" fill-rule="nonzero"></path>
                    <path d="M182.56647,962.626066 L219.113401,962.626066 C223.041154,962.626066 226.225227,965.810139 226.225227,969.737892 L226.225227,969.737899 C226.225227,973.665653 223.041154,976.849726 219.113401,976.849726 L182.56647,976.849726 C178.638717,976.849726 175.454643,973.665653 175.454643,969.737899 L175.454643,969.737892 C175.454643,965.810139 178.638717,962.626066 182.56647,962.626066 Z" id="Rectangle" fill="#B6C2D3" fill-rule="nonzero" transform="translate(200.839935, 969.737896) scale(-1, 1) rotate(1.998867) translate(-200.839935, -969.737896) "></path>
                    <path d="M116.92389,973.461991 L129.103718,973.461991 C131.628705,973.461991 133.675611,975.508897 133.675611,978.033884 L133.675611,978.033904 C133.675611,980.558891 131.628705,982.605797 129.103718,982.605797 L116.92389,982.605797 C114.398903,982.605797 112.351997,980.558891 112.351997,978.033904 L112.351997,978.033884 C112.351997,975.508897 114.398903,973.461991 116.92389,973.461991 Z" id="Rectangle" fill="#B6C2D3" fill-rule="nonzero" transform="translate(123.013804, 978.033894) scale(-1, 1) rotate(-0.999431) translate(-123.013804, -978.033894) "></path>
                    <path d="M98.520426,972.978608 L102.831982,972.978608 C105.356969,972.978608 107.403875,975.025514 107.403875,977.550501 L107.403875,977.55052 C107.403875,980.075508 105.356969,982.122414 102.831982,982.122414 L98.520426,982.122414 C95.995439,982.122414 93.9485326,980.075508 93.9485326,977.55052 L93.9485326,977.550501 C93.9485326,975.025514 95.995439,972.978608 98.520426,972.978608 Z" id="Rectangle" fill="#B6C2D3" fill-rule="nonzero" transform="translate(100.676204, 977.550511) scale(-1, 1) rotate(-0.999431) translate(-100.676204, -977.550511) "></path>
                    <path d="M240.419507,961.175412 L244.473227,961.175412 C248.400981,961.175412 251.585054,964.359486 251.585054,968.287239 L251.585054,968.287246 C251.585054,972.214999 248.400981,975.399072 244.473227,975.399072 L240.419507,975.399072 C236.491754,975.399072 233.307681,972.214999 233.307681,968.287246 L233.307681,968.287239 C233.307681,964.359486 236.491754,961.175412 240.419507,961.175412 Z" id="Rectangle" fill="#B6C2D3" fill-rule="nonzero" transform="translate(242.446367, 968.287242) scale(-1, 1) rotate(1.998867) translate(-242.446367, -968.287242) "></path>
                    <ellipse id="Oval" fill="#DFC5B2" fill-rule="nonzero" cx="246.679867" cy="149.690594" rx="69.5555739" ry="72.6425034"></ellipse>
                    <rect id="Rectangle" fill="#EED1C9" fill-rule="nonzero" x="205.556686" y="81.112393" width="78.4979186" height="117.812571" rx="39.2486736"></rect>
                    <g id="Group" transform="translate(145.099545, 296.047637)"></g>
                </g>
                <g id="head" transform="translate(17.064394, 0.000000)">
                    <path d="M88.7336215,312.340482 L247.393952,312.340482 C287.879184,312.340482 320.698949,345.160247 320.698949,385.64548 L320.698949,385.645494 C320.698949,426.130726 287.879184,458.950492 247.393952,458.950492 L88.7336215,458.950492 C48.2483891,458.950492 15.4286237,426.130726 15.4286237,385.645494 L15.4286237,385.64548 C15.4286237,345.160247 48.2483891,312.340482 88.7336215,312.340482 Z" id="Rectangle" fill="#503216" fill-rule="nonzero" transform="translate(168.063787, 385.645487) rotate(-7.995712) translate(-168.063787, -385.645487) "></path>
                    <ellipse id="Oval" fill="#EBBAAA" fill-rule="nonzero" cx="69.5173295" cy="285.251991" rx="59.3095095" ry="56.2883289"></ellipse>
                    <path d="M368.294792,213.323175 C349.789962,136.118494 269.98983,96.4486349 239.056098,86.9673373 C224.933807,60.555194 226.95142,5.82628632 249.143163,1.63587918 C281.42197,-4.45927946 368.144223,34.143151 406.475871,109.316584 C454.666723,203.826419 448.045362,439.609469 436.412464,522.916953 C421.396869,490.902967 406.475871,461.528699 358.307181,466.347267 C382.640003,358.667848 368.294792,280.368605 368.294792,280.368605 C368.294792,280.368605 378.521383,255.988813 368.294792,213.323175 Z" id="Path" fill="#62360D" fill-rule="nonzero"></path>
                    <ellipse id="Oval" fill="#EBBAAA" fill-rule="nonzero" cx="365.778295" cy="285.838198" rx="59.3095095" ry="56.2883289"></ellipse>
                    <path d="M65.6045644,178.400689 C65.6045644,96.7059036 135.615758,30.479457 221.978655,30.479457 C308.340549,30.479457 378.351742,96.7059036 378.351742,178.400689 L378.351742,325.525624 C365.741155,420.957932 290.076629,473.446555 221.978655,473.446555 C153.880682,473.446555 74.8524621,409.825016 65.6045644,325.525624 L65.6045644,178.400689 Z" id="Path" fill="#F6DDD6" fill-rule="nonzero"></path>
                    <g id="Group-3" transform="translate(179.678030, 358.349206)">
                        <mask id="mask-4" fill="white">
                            <use xlink:href="#path-3"></use>
                        </mask>
                        <use id="Path" fill="#393939" xlink:href="#path-3"></use>
                        <ellipse id="Oval" fill="#FF6C6C" fill-rule="nonzero" mask="url(#mask-4)" cx="45.1704545" cy="58.2191988" rx="31.1174242" ry="17.0642479"></ellipse>
                        <rect id="Rectangle" fill="#FFFFFF" fill-rule="nonzero" mask="url(#mask-4)" x="-1.00378788" y="-1.00377929" width="97.3674242" height="20.0755858"></rect>
                    </g>
                    <path d="M229.436799,3.63315906 C265.91947,-13.1526204 360.232367,29.0698497 402.910417,112.827803 C402.910417,112.827803 426.043712,163.36006 431.713106,198.284553 C437.306212,232.741285 418.968011,250.168901 418.968011,250.168901 L378.351742,228.229297 C378.351742,228.229297 347.888788,180.765593 309.303182,148.449923 C270.717576,116.134252 237.822443,106.821188 227.741402,99.6996753 C217.661364,92.5782627 216.474886,31.1013986 229.436799,3.63315906 Z" id="Path" fill="#62360D" fill-rule="nonzero"></path>
                    <path d="M123.531031,225.776344 L181.04105,223.263884 C184.364141,223.118707 186.940348,220.307144 186.79517,216.984082 C186.649992,213.661019 183.838404,211.084834 180.515313,211.230011 L123.005294,213.742471 C119.682204,213.887648 117.105997,216.699211 117.251175,220.022274 C117.396353,223.345336 120.207941,225.921521 123.531031,225.776344 Z" id="Path" fill="#62360D" fill-rule="nonzero"></path>
                    <ellipse id="Oval" fill="#F2CACA" fill-rule="nonzero" cx="121.405133" cy="332.636396" rx="31.9853996" ry="32.0032943"></ellipse>
                    <path d="M116.896117,214.678277 C129.37822,159.766531 191.560871,107.227719 221.004981,97.7368853 C233.147803,93.8229491 241.270455,0 221.004981,0 C169.70339,0 88.3283144,51.6057989 59.2887311,97.7368853 C11.6007765,173.492209 -5.26285985,258.422978 20.120928,449.577687 C26.3323674,496.354806 11.1801894,516.692378 0.618333333,527.877491 C29.7412311,557.77606 138.876061,568.552635 138.876061,568.552635 C138.876061,568.552635 157.249394,545.70963 144.740189,500.422119 C122.147936,418.630168 104.415019,269.590023 116.896117,214.678277 Z" id="Path" fill="#7D430D" fill-rule="nonzero"></path>
                    <path d="M74.8022738,102.578805 C63.5107376,117.266439 50.2281013,143.91768 40.0235957,173.332075 C27.9726448,208.068832 20.9610985,243.873226 20.9610985,276.319359 C20.9610985,279.091219 23.2081542,281.338255 25.9800379,281.338255 C28.7519216,281.338255 30.9989773,279.091219 30.9989773,276.319359 C30.9989773,245.094923 37.7991922,210.36969 49.5070056,176.622024 C59.3851676,148.148311 72.2036486,122.428385 82.760302,108.69666 C84.4497156,106.49913 84.0377907,103.348152 81.8402419,101.658752 C79.6426931,99.9693532 76.4916875,100.381275 74.8022738,102.578805 Z" id="Path" fill="#AD6817" fill-rule="nonzero"></path>
                    <path d="M77.1280768,150.611315 C63.4304539,187.158684 60.2858789,196.476948 54.6328702,218.161067 C53.9336223,220.84328 55.541152,223.584491 58.2233882,224.283733 C60.9056245,224.982975 63.6468591,223.375459 64.3461071,220.693246 C69.8917341,199.421028 72.9419085,190.382499 86.5274914,154.13407 C87.5002817,151.538515 86.1847534,148.645807 83.5891767,147.673025 C80.9936001,146.700243 78.1008671,148.01576 77.1280768,150.611315 Z" id="Path" fill="#AD6817" fill-rule="nonzero"></path>
                    <path d="M141.822054,271.359331 L168.860085,267.084235 C171.597955,266.651339 173.466504,264.080943 173.033604,261.343096 C172.600704,258.605248 170.030286,256.736716 167.292415,257.169612 L140.254385,261.444708 C137.516514,261.877605 135.647966,264.448 136.080866,267.185848 C136.513766,269.923695 139.084183,271.792227 141.822054,271.359331 Z" id="Path" fill="#000000" fill-rule="nonzero"></path>
                    <path d="M270.21179,264.465375 L297.249821,268.740471 C299.987692,269.173367 302.558109,267.304835 302.991009,264.566987 C303.423909,261.82914 301.555361,259.258744 298.81749,258.825848 L271.77946,254.550752 C269.041589,254.117856 266.471171,255.986388 266.038271,258.724236 C265.605371,261.462083 267.47392,264.032479 270.21179,264.465375 Z" id="Path" fill="#000000" fill-rule="nonzero"></path>
                    <path d="M162.954924,262.126924 L162.954924,291.013684" id="Path" stroke="#000000" stroke-width="24.0907029" stroke-linecap="round"></path>
                    <path d="M277.213087,259.508063 L277.213087,288.395828" id="Path" stroke="#000000" stroke-width="24.0907029" stroke-linecap="round"></path>
                    <path d="M258.313268,221.390344 L315.77109,224.906583 C319.09114,225.10976 321.94728,222.583058 322.150458,219.263037 C322.353637,215.943016 319.826913,213.086901 316.506864,212.883724 L259.049042,209.367485 C255.728993,209.164308 252.872853,211.69101 252.669674,215.011031 C252.466496,218.331052 254.993219,221.187167 258.313268,221.390344 Z" id="Path" fill="#62360D" fill-rule="nonzero"></path>
                    <path d="M217.118314,291.354969 C215.083636,306.190827 202.29036,333.244686 224.095644,333.244686" id="Path" stroke="#EBBAAA" stroke-width="17.0642479"></path>
                    <ellipse id="Oval" fill="#F6E7D6" fill-rule="nonzero" cx="390.32392" cy="341.975559" rx="12.2107784" ry="12.2176"></ellipse>
                    <ellipse id="Oval" fill="#F6E7D6" fill-rule="nonzero" cx="386.743409" cy="366.841179" rx="8.63098977" ry="8.6358244"></ellipse>
                    <ellipse id="Oval" fill="#F2CACA" fill-rule="nonzero" cx="322.455814" cy="332.636396" rx="31.9853996" ry="32.0032943"></ellipse>
                </g>
            </g>
        </g>
    </g>
</svg>