<?xml version="1.0" encoding="UTF-8"?>
<svg width="543px" height="1348px" viewBox="0 0 543 1348" version="1.1" xmlns="http://www.w3.org/2000/svg" xmlns:xlink="http://www.w3.org/1999/xlink">
    <!-- Generator: Sketch 55.2 (78181) - https://sketchapp.com -->
    <title>gee_me_050</title>
    <desc>Created with Sketch.</desc>
    <defs>
        <path d="M66.5188,48 C91.019,13 158.519,20 200.019,0.5 L355.019,0.5 C412.019,20 445.569,11.5 471.019,48 C509.019,102.5 528.019,207 538.019,301.5 C538.019,301.5 500.019,302.697 482.519,308 C465.019,313.303 431.519,325 431.519,325 L412.546,260 L419,359.5 L431.519,460.5 C398.852,466.167 325.319,478 292.519,480 C259.719,482 162.5,474.333 120,467 C120,436.667 105.519,359.5 105.519,359.5 C105.519,359.5 111.019,350.5 105.519,325 C103.39,315.128 105.535,285.049 106.409,259.07 C64.7736,257.258 0.519043,254 0.519043,254 C0.519043,254 16.1412,172.144 31.0188,129 C41.019,100 49.6015,72.167 66.5188,48 Z" id="path-1"></path>
    </defs>
    <g id="GEE!-ME" stroke="none" stroke-width="1" fill="none" fill-rule="evenodd">
        <g id="gee_me_050" transform="translate(-329.000000, -126.000000)">
            <g transform="translate(329.000000, 126.000000)">
                <g id="lower-limb" transform="translate(53.037086, 864.999600)" fill-rule="nonzero">
                    <path d="M274.466507,53.7677645 C294.477239,49.627613 314.055398,62.4932606 318.19555,82.5039927 C324.59011,113.411033 329.286714,170.443646 330.783327,231.286127 L330.827698,233.130982 C332.377868,299.083677 329.995407,358.886897 323.404852,396.402362 C319.869146,416.528689 300.687279,429.978045 280.560952,426.442338 C260.434625,422.906632 246.985269,403.724765 250.520976,383.598438 C256.076572,351.974271 258.292945,296.340113 256.84813,234.869818 L256.763471,231.427994 C255.321162,175.283943 250.975077,122.846668 245.730278,97.4968073 C241.590127,77.4860753 254.455775,57.9079159 274.466507,53.7677645 Z" id="Path" fill="#EBBAAA"></path>
                    <path d="M92.4988894,85.9740476 C94.1702976,65.6079816 112.0352,50.4529671 132.401266,52.1243754 C152.767332,53.7957837 167.922347,71.6606864 166.250939,92.0267524 C162.645656,135.957029 164.730222,190.25827 171.416868,250.948375 C176.54836,297.523418 184.050535,344.827518 192.27556,386.901687 C196.196071,406.956608 183.116548,426.392535 163.061627,430.313046 C143.006706,434.233557 123.570779,421.154034 119.650268,401.099113 C111.054186,357.126847 103.236459,307.833071 97.8619604,259.052425 L97.4382027,255.160283 C90.6133714,191.712582 88.528137,134.357562 92.4988894,85.9740476 Z" id="Path" fill="#EBBAAA"></path>
                    <polygon id="Path" fill="#33353A" points="78.962914 24.0004 225.962914 24.0004 210.536914 215.2904 190.573914 363.0004 112.962914 363.0004 95.295914 281.1704 83.499914 170.6504"></polygon>
                    <polygon id="Path" fill="#33353A" points="225.962914 35.0004 361.962914 35.0004 353.239914 179.0504 339.726914 286.9504 325.962914 363.5004 255.780914 372.0004 236.557914 240.8304"></polygon>
                    <path d="M191.962914,344.0004 L110.962914,344.0004 L113.962914,377.0004 C145.594914,377.0004 160.329914,377.0004 191.962914,377.0004 L191.962914,344.0004 Z" id="Path" fill="#282A2F"></path>
                    <ellipse id="Oval" fill="#33353A" cx="221.790914" cy="60.9254" rx="118.297" ry="60.9254"></ellipse>
                    <path d="M329.962914,340.0004 L250.962914,340.0004 L250.962914,377.0004 C290.265914,377.0004 288.658914,377.0004 327.962914,377.0004 L329.962914,340.0004 Z" id="Path" fill="#282A2F"></path>
                    <rect id="Rectangle" fill="#DEDEE4" transform="translate(321.007611, 80.745498) rotate(-8.500000) translate(-321.007611, -80.745498) " x="295.007611" y="71.7454981" width="52" height="18" rx="9"></rect>
                    <path d="M10.736714,462.4804 C10.456414,438.5704 14.086814,444.8704 34.848814,435.0304 C55.610914,425.1904 75.138914,406.3504 111.060914,390.1304 C111.060914,390.1304 115.792914,389.2204 123.511914,393.3704 C130.099914,396.9004 138.573914,405.6004 151.301914,405.4504 C165.123914,405.2904 177.432914,402.3304 185.073914,398.2904 C188.352914,389.2204 195.686914,389.1304 195.686914,389.1304 C195.686914,389.1304 206.073914,408.7604 206.304914,428.5104 C206.535914,448.2504 206.404914,461.9004 206.404914,461.9004 L10.736714,462.4804 Z" id="Path" fill="#DCE1E6"></path>
                    <path d="M156.752,452.428 L157.645376,451.995957 L159.561276,451.076844 C169.349536,446.417283 177.45726,443.131508 185.425347,440.818105 C192.608161,438.732693 199.299861,437.591245 205.586461,437.506527 L206.338914,437.50144 L206.338914,446.83936 C200.796413,446.83936 194.708463,447.846426 188.028945,449.785715 C180.130986,452.078757 171.913942,455.470043 161.668669,460.42282 L160.923603,460.785969 C160.768379,460.884797 143.440215,469.532984 137.916473,472.032922 L137.110119,472.39013 L133.423709,463.81067 L133.858159,463.620067 C136.830328,462.294621 144.696301,458.429581 150.39156,455.6061 L156.752,452.428 Z" id="Path" fill="#FF5621"></path>
                    <path d="M154.431203,405.020106 C168.00421,410.739883 177.936527,418.822115 184.666049,428.658898 C189.225317,435.323343 192.088144,442.451005 193.580257,449.660302 C194.525682,454.228218 194.808735,458.186963 194.711658,461.21948 L194.690144,461.753163 L194.664781,462.156272 L189.495047,461.724528 L189.514128,461.382167 C189.631544,458.708217 189.393609,455.028355 188.500193,450.711726 C187.1409,444.144165 184.533995,437.653676 180.384394,431.588057 C174.333161,422.742754 165.412448,415.411079 153.116245,410.099205 L152.416625,409.800694 L154.431203,405.020106 Z" id="Path" fill="#D0D4D8"></path>
                    <path d="M135.121142,403.287523 L136.144686,408.373277 C115.594401,412.50917 101.879274,421.73304 93.6594701,434.512127 C89.9056267,440.348116 87.5204422,446.604565 86.2416062,452.914109 C85.7750718,455.215905 85.4853287,457.391854 85.3388018,459.394092 L85.2928857,460.093803 C85.2475402,460.878481 85.2301361,461.551202 85.2318555,462.099593 L85.2417411,462.664899 L80.0600869,462.915901 L80.0517025,462.668764 C80.0288382,461.755641 80.0546325,460.522331 80.1649078,459.015459 C80.3269726,456.8009 80.6456012,454.408023 81.1572584,451.883599 C82.5575578,444.974777 85.1712656,438.118902 89.2963898,431.705693 C98.1813773,417.892464 112.872937,407.923846 134.385128,403.438312 L135.121142,403.287523 Z" id="Path" fill="#D0D4D8"></path>
                    <path d="M142.011763,403.252667 C142.05618,418.404915 136.071704,429.829873 125.006281,437.671229 C115.809809,444.188178 103.419931,448.03372 88.6272013,449.684622 C75.1059546,451.193624 60.691869,450.784403 46.842583,449.191061 C44.4097046,448.911162 42.1763902,448.613059 40.1754767,448.312792 L38.7865943,448.098142 L36.7876452,447.760594 L37.7355828,442.660206 L38.383825,442.774215 L39.6051982,442.975406 C39.8293383,443.011122 40.0636265,443.047862 40.3078516,443.085526 L41.6031271,443.279859 C43.3755308,443.538577 45.3274628,443.794799 47.4355133,444.037327 C60.9286076,445.58969 74.9737896,445.988437 88.0518109,444.5289 C118.582124,441.121647 136.536571,428.580759 136.820125,404.016197 L136.823303,403.268133 L142.011763,403.252667 Z" id="Path" fill="#D0D4D8"></path>
                    <path d="M103.997412,390.587502 C105.412862,389.953202 107.074512,390.586449 107.708812,392.001898 C109.765008,396.590328 110.234756,400.927707 110.257385,408.371868 C110.26336,410.343209 108.298784,411.688401 106.482378,411.017561 L106.322545,410.953102 L92.536,404.917 L95.5080129,415.565454 C96.0940199,417.665216 94.174808,419.579852 92.1042001,419.040858 L91.9486574,418.995797 L78.116,414.578 L78.1533714,427.081988 C78.1595723,429.152345 76.0106204,430.497427 74.1680635,429.6407 L74.0152791,429.564177 L64.604,424.506 L64.6323715,433.892034 C64.6368206,435.385656 63.4744844,436.610422 62.0033477,436.703222 L61.8322796,436.70887 C60.3386583,436.713307 59.1138917,435.55097 59.0210915,434.079834 L59.0154564,433.908766 L58.9734432,419.808766 C58.9672895,417.738428 61.1162264,416.393381 62.9587659,417.250101 L63.1115488,417.326623 L72.522,422.384 L72.4874566,410.738812 C72.4819223,408.891051 74.2243387,407.558201 75.9850984,408.007611 L76.1501705,408.055003 L88.698,412.062 L85.534815,400.725346 C84.9127061,398.496224 87.0939885,396.538829 89.2182102,397.337475 L89.3662831,397.397698 L104.546,404.043 L104.539091,403.885988 C104.346095,399.986343 103.841741,397.230462 102.715718,394.601713 L102.583016,394.298902 C101.948716,392.883452 102.581962,391.221802 103.997412,390.587502 Z" id="Path" fill="#000000"></path>
                    <path d="M92.967914,367.45776 C89.1776883,367.45776 86.0835816,369.084347 83.942295,372.063901 C81.8906391,374.926067 80.795274,378.940656 80.795274,383.5504 C80.795274,387.80267 83.2716317,391.639042 87.4892805,394.512715 C91.2389133,397.059386 96.044361,398.59304 100.067914,398.59304 C102.009299,398.59304 103.435467,398.233837 104.447827,397.49687 C105.345752,396.865662 105.952644,395.886594 106.304859,394.514115 C106.56953,393.475979 106.693072,392.249457 106.725085,390.574724 L106.734,389.488975 C106.734,389.0265 106.729066,388.568017 106.717427,387.856052 L106.666775,384.646085 L106.661554,383.5504 C106.661554,374.317377 100.759846,367.45776 92.967914,367.45776 Z M92.967914,373.68304 C97.022672,373.68304 100.316741,377.427612 100.433093,383.231777 L100.441667,384.695519 L100.47474,386.944265 L100.477002,387.024097 L100.507002,389.051089 C100.508691,389.29537 100.509097,389.516445 100.508292,389.749667 L100.506541,390.047786 C100.49867,390.910035 100.467042,391.586177 100.41374,392.107101 L100.383,392.362 L100.159126,392.367337 L100.067914,392.36776 C97.3154669,392.36776 93.723118,391.221266 90.9907348,389.365492 C88.3443534,387.562389 87.020554,385.51156 87.020554,383.5504 C87.020554,380.160237 87.7718007,377.406866 88.9997396,375.693825 C89.9827163,374.326039 91.2058328,373.68304 92.967914,373.68304 Z" id="Path" fill="#000000"></path>
                    <path d="M119.670052,386.6549 C120.478899,387.015593 120.824866,387.441293 120.988786,388.171856 C121.239732,389.292969 120.999273,390.959833 120.142395,392.884331 C119.838587,393.568295 118.827772,394.206791 116.947372,394.520082 L116.586183,394.571667 C115.00702,394.769345 113.258134,394.633087 111.823951,394.248262 L111.734,394.223 L112.126924,393.351963 L112.421,392.715 L112.4317,392.70467 L113.558607,390.257677 L113.671921,390.005372 C115.070284,386.861466 117.58783,385.729732 119.670052,386.6549 Z M105.1509,396.986405 L105.332848,397.364971 C105.812165,398.210824 106.717008,398.909133 108.076252,399.5141 C110.854102,400.745791 114.618055,401.200528 117.953702,400.663462 C121.741945,400.032355 124.573624,398.243684 125.830553,395.413949 C127.19734,392.344225 127.630279,389.343094 127.06339,386.8105 C126.470344,384.167395 124.818116,382.134387 122.201604,380.967604 C116.913226,378.61788 110.920372,381.234407 108.121187,387.175605 L107.285077,389.005063 L107.177,389.237 L107.170397,389.24472 L106.283991,391.159999 L106.091082,391.5918 C105.475561,392.981684 105.12467,393.986841 104.981243,394.873186 C104.901089,395.374118 104.890727,395.820466 104.948337,396.231961 L104.978719,396.410839 L105.017304,396.583476 C105.025827,396.616016 105.035623,396.649081 105.049303,396.69149 L105.1509,396.986405 Z" id="Path" fill="#000000"></path>
                    <path d="M19.309114,435.8904 C25.681214,433.5604 32.431414,431.7904 45.374414,428.8104 L39.917714,444.6804 L40.129314,462.7304 L3.26541399,463.160548 C1.76091399,463.1804 -0.933286013,461.1804 0.325513987,453.0404 C1.89901399,442.8704 10.255014,439.2004 19.309114,435.8904 Z" id="Path" fill="#EAF4FB"></path>
                    <path d="M206.650914,461.9004 L166.742914,461.9904 L166.801914,476.6004 C166.812914,479.4704 169.144914,481.7804 172.010914,481.7804 L201.542914,481.7104 C204.407914,481.7104 206.720914,479.3804 206.709953,476.5104 L206.650914,461.9004 Z" id="Path" fill="#F0C533"></path>
                    <path d="M170.506914,461.9804 L125.407914,462.0704 L125.467914,476.6904 C125.479914,479.5504 127.811914,481.8704 130.676914,481.860432 L165.399914,481.7904 C168.264914,481.7804 170.577914,479.4504 170.56596,476.5904 L170.506914,461.9804 Z" id="Path" fill="#F0C533"></path>
                    <path d="M120.620914,462.1704 L91.439914,462.2604 L91.483914,476.8704 C91.491914,479.7404 93.821914,482.0504 96.686914,482.040432 L115.492914,481.9904 C118.357914,481.9804 120.673914,479.6504 120.66494,476.7804 L120.620914,462.1704 Z" id="Path" fill="#E7737A"></path>
                    <path d="M90.398914,462.2604 L61.217914,462.3504 L61.260914,476.9604 C61.269914,479.8304 63.598914,482.1404 66.464914,482.130432 L85.270914,482.0804 C88.135914,482.0704 90.450914,479.7404 90.4429347,476.8704 L90.398914,462.2604 Z" id="Path" fill="#E7737A"></path>
                    <path d="M60.173914,462.3504 L30.992714,462.4404 L31.036414,477.0504 C31.044914,479.9204 33.374514,482.2304 36.239614,482.220432 L55.045914,482.1704 C57.910914,482.1604 60.225914,479.8304 60.2179347,476.9704 L60.173914,462.3504 Z" id="Path" fill="#E7737A"></path>
                    <path d="M29.925314,462.4304 L1.35781399,462.5104 L1.40151399,477.1304 C1.41011399,479.9904 3.73971399,482.3104 6.60471399,482.300432 L24.796814,482.2504 C27.661914,482.2404 29.977614,479.9104 29.9690379,477.0404 L29.925314,462.4304 Z" id="Path" fill="#E7737A"></path>
                    <path d="M131.402914,436.9104 C126.518914,438.5204 122.515914,438.5504 120.162914,436.9504 C114.099914,432.7904 117.474914,425.7704 118.917914,423.0204 C116.239914,426.4404 113.579914,429.8704 111.557914,433.5604 C108.366914,439.3304 107.209914,445.5504 109.765914,449.3504 C114.352914,456.2304 124.309914,452.4204 130.616914,449.2304 L189.140914,419.6004 L131.402914,436.9104 Z" id="Path" fill="#000000"></path>
                    <path d="M432.152914,462.4804 C432.432914,438.5704 428.802914,444.8704 408.040914,435.0304 C387.278914,425.1904 367.750914,406.3504 331.828914,390.1304 C331.828914,390.1304 327.096914,389.2204 319.376914,393.3704 C312.789914,396.9004 304.315914,405.6004 291.586914,405.4504 C277.765914,405.2904 265.456914,402.3304 257.815914,398.2904 C254.536914,389.2204 247.202914,389.1304 247.202914,389.1304 C247.202914,389.1304 236.815914,408.7604 236.584914,428.5104 C236.353914,448.2504 236.484914,461.9004 236.484914,461.9004 L432.152914,462.4804 Z" id="Path" fill="#DCE1E6"></path>
                    <path d="M297.066338,457.863048 C302.047047,460.314821 307.277524,462.856894 309.331067,463.752199 L309.466119,463.81067 L305.779709,472.39013 L305.323798,472.190315 C302.942176,471.129923 297.718946,468.591504 292.814468,466.178024 L282.009,460.805 L281.221159,460.42282 L279.432346,459.564186 C270.295512,455.21083 262.763899,452.135101 255.538672,449.984961 L254.860883,449.785715 C248.448545,447.923998 242.581397,446.921417 237.218635,446.844189 L236.550914,446.83936 L236.550914,437.50144 C243.055417,437.50144 249.994355,438.649276 257.464481,440.818105 C265.946638,443.280759 274.587031,446.845302 285.244452,451.995957 L297.066338,457.863048 Z" id="Path" fill="#FF5621"></path>
                    <path d="M288.458625,405.020106 L290.473203,409.800694 C277.815032,415.134951 268.670841,422.575861 262.505434,431.588057 C258.355833,437.653676 255.748927,444.144165 254.389634,450.711726 C253.535063,454.840676 253.280213,458.387025 253.362425,461.027716 L253.388838,461.6384 L253.394781,461.724528 L248.225047,462.156272 L248.212981,461.989184 C248.206536,461.888288 248.19963,461.761542 248.192965,461.609747 C248.057732,458.53005 248.32304,454.426823 249.309571,449.660302 C250.801684,442.451005 253.664511,435.323343 258.223779,428.658898 C264.830946,419.000966 274.525501,411.034362 287.721887,405.334433 L288.458625,405.020106 Z" id="Path" fill="#D0D4D8"></path>
                    <path d="M307.767677,403.287521 C329.681621,407.69778 344.606992,417.735494 353.592863,431.705702 C357.717852,438.118765 360.331456,444.974481 361.731673,451.883163 C362.243308,454.407575 362.561916,456.800456 362.723962,459.015039 C362.824203,460.384987 362.854625,461.528875 362.842139,462.411675 L362.828738,462.915958 L357.64709,462.664842 L357.651029,462.538728 C357.669784,461.790073 357.647535,460.725702 357.550064,459.393623 C357.403555,457.391364 357.113831,455.215414 356.647318,452.913635 C355.368561,446.604237 352.983479,440.347955 349.22977,434.512117 C341.105633,421.881635 327.613033,412.724162 307.458264,408.519616 L306.744151,408.373279 L307.767677,403.287521 Z" id="Path" fill="#D0D4D8"></path>
                    <path d="M300.878816,403.252625 L306.066522,403.268175 C305.991411,428.326597 323.998891,441.087338 354.837856,444.528941 C367.91581,445.98843 381.96092,445.589674 395.453956,444.037327 L397.005365,443.853038 C399.033905,443.604363 400.900474,443.344794 402.581662,443.085526 L403.926089,442.871432 L405.153948,442.660205 L406.10188,447.760595 L405.379289,447.887862 L404.445342,448.043118 C404.110617,448.097363 403.752718,448.153986 403.37235,448.212645 L402.03849,448.412779 C400.214343,448.67908 398.209453,448.942262 396.046883,449.191061 C382.197661,450.784387 367.783654,451.193616 354.262482,449.684665 C339.469636,448.033795 327.07969,444.188275 317.883217,437.671328 C306.96337,429.933136 300.99176,418.704989 300.880152,403.848808 L300.878816,403.252625 Z" id="Path" fill="#D0D4D8"></path>
                    <path d="M335.180016,392.001898 C335.814316,390.586449 337.475966,389.953202 338.891416,390.587502 C340.306865,391.221802 340.940112,392.883452 340.305812,394.298902 C339.686653,395.680564 339.221666,397.25758 338.894207,399.019674 C338.622444,400.482057 338.460839,401.83261 338.367219,403.423712 L338.334,404.047 L353.522496,397.397719 C355.642454,396.46952 357.886069,398.355023 357.392937,400.570145 L357.354056,400.725192 L354.191,412.062 L366.739657,408.055003 C368.499874,407.492964 370.295798,408.75279 370.397822,410.567131 L370.402371,410.738812 L370.367,422.384 L379.778279,417.326623 C381.601897,416.346443 383.800288,417.609044 383.91195,419.637948 L383.916372,419.808766 L383.874372,433.908766 C383.869751,435.459834 382.608617,436.713478 381.057548,436.70887 C379.563927,436.704408 378.346107,435.534796 378.262072,434.063133 L378.257456,433.892034 L378.285,424.506 L368.874549,429.564177 C367.050913,430.544366 364.852506,429.281732 364.740876,427.252808 L364.736457,427.081988 L364.773,414.578 L350.941171,418.995797 C348.864531,419.65887 346.880405,417.811753 347.342492,415.722704 L347.381772,415.565608 L350.352,404.917 L336.567332,410.953081 C334.76147,411.743757 332.745085,410.477479 332.636989,408.544151 L332.632457,408.371868 L332.638314,407.30395 C332.671001,403.34778 332.828934,400.914715 333.371815,397.993418 C333.776024,395.818328 334.365155,393.82027 335.180016,392.001898 Z" id="Path" fill="#000000"></path>
                    <path d="M349.921914,367.45776 C342.229879,367.45776 336.379911,374.142617 336.231176,383.196464 L336.213438,385.432255 L336.15887,388.862994 C336.155811,389.1853 336.155243,389.466682 336.156292,389.771133 C336.162083,391.867607 336.279579,393.316266 336.583752,394.509356 C336.936571,395.884207 337.541578,396.861278 338.475892,397.521903 C339.453329,398.233814 340.880476,398.59304 342.821914,398.59304 C346.845687,398.59304 351.651221,397.059257 355.396091,394.515066 C359.617798,391.639486 362.094554,387.803023 362.094554,383.5504 C362.094554,378.940656 360.999189,374.926067 358.94974,372.066975 C356.804455,369.083839 353.711675,367.45776 349.921914,367.45776 Z M349.921914,373.68304 C351.683729,373.68304 352.906305,374.325828 353.892868,375.697697 C355.118027,377.406866 355.869274,380.160237 355.869274,383.5504 C355.869274,385.511625 354.545392,387.562301 351.894637,389.367843 C349.166533,391.221259 345.574403,392.36776 342.821914,392.36776 L342.643157,392.366092 L342.505,392.362 L342.496692,392.29375 C342.424463,391.698221 342.38463,390.869669 342.381542,389.751802 L342.38879,388.494708 L342.446006,384.911493 L342.453554,383.5504 C342.453554,377.565016 345.793433,373.68304 349.921914,373.68304 Z" id="Path" fill="#000000"></path>
                    <path d="M320.692052,380.9659 C318.071712,382.134387 316.419484,384.167395 315.826786,386.808944 C315.259549,389.343094 315.692488,392.344225 317.060395,395.416469 C318.316204,398.243684 321.147883,400.032355 324.919372,400.660718 C328.270845,401.200567 332.035828,400.745746 334.809586,399.515872 L335.094703,399.384435 C336.299912,398.808622 337.1119,398.150406 337.55698,397.364971 L337.309,397.224 L337.772298,396.901941 L337.871397,396.583646 L337.924448,396.379603 L337.9495,396.17027 C337.996328,395.778983 337.98648,395.354208 337.906521,394.866656 C337.775015,394.053935 337.465763,393.133029 336.935224,391.903845 L336.37446,390.65482 L335.719431,389.24472 L335.711,389.235 L334.905921,387.475428 C332.169413,381.323004 326.064742,378.578718 320.692052,380.9659 Z M329.874863,391.446129 L330.458128,392.70467 L330.468,392.715 L331.105082,394.109 L331.155,394.223 L331.063803,394.249036 C329.520407,394.662509 327.607634,394.788237 325.925871,394.517365 C324.062056,394.206791 323.051241,393.568295 322.748553,392.886851 C321.890555,390.959833 321.650095,389.292969 321.90139,388.1703 C322.064962,387.441293 322.410929,387.015593 323.223604,386.653196 C325.242615,385.756116 327.676043,386.798473 329.095343,389.740823 L329.874863,391.446129 Z" id="Path" fill="#000000"></path>
                    <path d="M423.580914,435.8904 C417.208914,433.5604 410.457914,431.7904 397.514914,428.8104 L402.971914,444.6804 L402.760914,462.7304 L439.623914,463.160548 C441.128914,463.1804 443.822914,461.1804 442.563914,453.0404 C440.990914,442.8704 432.634914,439.2004 423.580914,435.8904 Z" id="Path" fill="#EAF4FB"></path>
                    <path d="M236.238914,461.9004 L276.146914,461.9904 L276.087914,476.6004 C276.075914,479.4704 273.743914,481.7804 270.878914,481.7804 L241.346914,481.7104 C238.481914,481.7104 236.168914,479.3804 236.179875,476.5104 L236.238914,461.9004 Z" id="Path" fill="#F0C533"></path>
                    <path d="M272.382914,461.9804 L317.480914,462.0704 L317.421914,476.6904 C317.409914,479.5504 315.077914,481.8704 312.212914,481.860432 L277.489914,481.7904 C274.624914,481.7804 272.310914,479.4504 272.322868,476.5904 L272.382914,461.9804 Z" id="Path" fill="#F0C533"></path>
                    <path d="M322.267914,462.1704 L351.449914,462.2604 L351.405914,476.8704 C351.396914,479.7404 349.067914,482.0504 346.202914,482.040432 L327.396914,481.9904 C324.531914,481.9804 322.215914,479.6504 322.223893,476.7804 L322.267914,462.1704 Z" id="Path" fill="#E7737A"></path>
                    <path d="M352.490914,462.2604 L381.671914,462.3504 L381.628914,476.9604 C381.619914,479.8304 379.289914,482.1404 376.424914,482.130432 L357.618914,482.0804 C354.753914,482.0704 352.438914,479.7404 352.446893,476.8704 L352.490914,462.2604 Z" id="Path" fill="#E7737A"></path>
                    <path d="M382.714914,462.3504 L411.896914,462.4404 L411.852914,477.0504 C411.844914,479.9204 409.514914,482.2304 406.649914,482.220432 L387.843914,482.1704 C384.978914,482.1604 382.662914,479.8304 382.671888,476.9704 L382.714914,462.3504 Z" id="Path" fill="#E7737A"></path>
                    <path d="M412.963914,462.4304 L441.531914,462.5104 L441.487914,477.1304 C441.479914,479.9904 439.149914,482.3104 436.284914,482.300432 L418.092914,482.2504 C415.227914,482.2404 412.911914,479.9104 412.920888,477.0404 L412.963914,462.4304 Z" id="Path" fill="#E7737A"></path>
                    <path d="M311.486914,436.9104 C316.370914,438.5204 320.373914,438.5504 322.726914,436.9504 C328.789914,432.7904 325.414914,425.7704 323.971914,423.0204 C326.649914,426.4404 329.309914,429.8704 331.331914,433.5604 C334.522914,439.3304 335.679914,445.5504 333.123914,449.3504 C328.536914,456.2304 318.579914,452.4204 312.272914,449.2304 L253.748914,419.6004 L311.486914,436.9104 Z" id="Path" fill="#000000"></path>
                </g>
                <g id="upper-limb" transform="translate(0.000000, 406.000000)">
                    <path d="M464.493567,177.663812 C487.875198,173.507078 510.199453,189.091936 514.356188,212.473567 L514.805018,215.054951 C519.613698,243.324945 523.475156,285.94493 524.568333,328.52131 C525.993945,384.045123 522.875547,436.231935 514.19416,479.886907 C509.562199,503.179052 486.925239,518.306121 463.633093,513.67416 C440.340948,509.042199 425.213879,486.405239 429.84584,463.113093 C437.033771,426.968067 439.810925,381.416695 438.637252,332.365034 L438.596667,330.72869 C437.574847,290.9315 433.898598,251.234602 429.683812,227.526433 C425.527078,204.144802 441.111936,181.820547 464.493567,177.663812 Z" id="Path" fill="#EBBAAA" fill-rule="nonzero"></path>
                    <path d="M66.5188,85.5 C91.019,50.5 158.519,57.5 200.019,38 L355.019,38 C412.019,57.5 445.569,49 471.019,85.5 C509.019,140 528.019,244.5 538.019,339 C538.019,339 500.019,340.197 482.519,345.5 C465.019,350.803 431.519,362.5 431.519,362.5 L404.519,270 L404.519,297.5 L412.019,397 L419,499 C386.333,504.667 325.319,515.5 292.519,517.5 C259.719,519.5 166.519,514.333 124.019,507 L124.019,397 C124.019,397 129.519,371 124.019,345.5 C122.076,336.491 117.569,316.28 113.331,296.866 C72.3524,295.142 0.519043,291.5 0.519043,291.5 C0.519043,291.5 16.1412,209.644 31.0188,166.5 C41.019,137.5 49.6015,109.667 66.5188,85.5 Z" id="Path" fill="#EDEDF3" fill-rule="nonzero"></path>
                    <g id="Clipped" transform="translate(0.000000, 40.000000)">
                        <mask id="mask-2" fill="white">
                            <use xlink:href="#path-1"></use>
                        </mask>
                        <g id="Path"></g>
                        <g id="Group" mask="url(#mask-2)" fill-rule="nonzero">
                            <g transform="translate(-31.000000, 59.000000)">
                                <polygon id="Path" fill="#1F2123" points="269 135.5 17.4995 0 -0.0005 135.5 17.4995 378 280 482 442.5 438 707.48 20"></polygon>
                                <path d="M116.019,39.5 L78.019,1 L35.51904,58 L35.51904,78.5 L96.9995,115.5 L141,157 L150.019,230 L249,222 L356.519,218.5 L446,230 L442.019,164.5 C442.019,164.5 468,141.5 501,135 C534,128.5 551.519,115.5 551.519,115.5 L577.519,115.5 L551.519,39.5 L429.019,78.5 L365.519,62 L192.019,62 L116.019,39.5 Z" id="Path" fill="#EDEDF3"></path>
                                <path d="M335.547,132.033 L354,162.867 L324.356,162.867 L306.737,133.408 L293.388,111.117 L306.737,103.071 L315.141,98 L335.547,132.033 Z M306.737,150.739 L313.972,162.867 L284.35,162.867 L267.902,135.415 L267.183,134.219 L267.902,133.792 L288.96,121.077 L306.737,150.739 Z M267.902,152.722 L273.969,162.867 L244.326,162.867 L241,157.299 L262.776,144.182 L267.902,152.722 Z" id="Shape" fill="#000000"></path>
                            </g>
                        </g>
                    </g>
                    <path d="M180.770194,83.5075526 L181.229806,90.4924474 C165.915676,91.500131 147.356155,94.2137284 132.170588,98.1150412 L130.897479,98.4469316 C112.579701,103.292603 100.472022,109.579015 97.1569698,116.510094 L96.1978892,118.535727 C88.4318216,135.08266 71.3646686,174.55217 58.8373799,204.49699 L57.2302692,208.346154 L50.7687308,205.653846 L53.624719,198.823575 C66.6134505,167.862598 83.772004,128.272688 90.8420636,113.489836 C95.4473791,103.861087 109.458663,96.722628 130.428787,91.3352088 C145.594795,87.4389207 163.902046,84.7113333 179.332227,83.6063748 L180.770194,83.5075526 Z" id="Path" fill="#DEDEE4" fill-rule="nonzero"></path>
                    <path d="M349.229815,83.5075532 C364.95036,84.54202 383.930884,87.3171901 399.570773,91.3352081 C420.5411,96.7226601 434.552397,103.861118 439.15747,113.489906 L439.662275,114.555473 C443.250401,122.195317 449.677487,137.174687 458.770116,158.932975 L467.311148,179.474281 L487.230769,227.653846 L480.769231,230.346154 L458.243072,175.875828 L453.672291,164.89158 C443.453743,140.396786 436.407612,123.964355 432.84253,116.510094 C429.451467,109.41969 416.858674,103.00393 397.828977,98.1150419 C383.103627,94.3319766 365.205709,91.6657005 350.171106,90.5887412 L348.770185,90.4924468 L349.229815,83.5075532 Z" id="Path" fill="#DEDEE4" fill-rule="nonzero"></path>
                    <ellipse id="Oval" fill="#DEDEE4" fill-rule="nonzero" cx="269.519" cy="77" rx="89" ry="77"></ellipse>
                    <rect id="Rectangle" fill="#EBBAAA" fill-rule="nonzero" x="204.519" y="15" width="130" height="115" rx="57.5"></rect>
                    <rect id="Rectangle" fill="#F54141" fill-rule="nonzero" transform="translate(171.842073, 427.276582) rotate(19.000000) translate(-171.842073, -427.276582) " x="128.842073" y="365.276582" width="86" height="124"></rect>
                    <polygon id="Path" fill="#FF6464" fill-rule="nonzero" points="172.017 345.372 151.68 355.291 232.049 382.965 252.859 373.208"></polygon>
                    <polygon id="Path" fill="#C24545" fill-rule="nonzero" points="212.179 489.817 191.841 499.736 232.049 382.964 252.859 373.208"></polygon>
                    <rect id="Rectangle" fill="#FCAD37" fill-rule="nonzero" transform="translate(178.516242, 407.894264) rotate(19.000000) translate(-178.516242, -407.894264) " x="135.516242" y="403.394264" width="86" height="9"></rect>
                    <rect id="Rectangle" fill="#FCAD37" fill-rule="nonzero" transform="translate(153.773106, 479.753301) rotate(19.000000) translate(-153.773106, -479.753301) " x="110.773106" y="473.253301" width="86" height="13"></rect>
                    <rect id="Rectangle" fill="#FCAD37" fill-rule="nonzero" transform="translate(189.911106, 374.800301) rotate(19.000000) translate(-189.911106, -374.800301) " x="146.911106" y="368.300301" width="86" height="13"></rect>
                    <path d="M40.0158018,332.262754 C60.5813647,320.386866 86.8803572,327.431239 98.7562457,347.996802 L99.7780565,349.776977 C101.808222,353.335374 103.77147,356.905715 105.916563,360.913863 L113.579051,375.410776 L114.628433,377.363877 C118.386403,384.311012 121.194958,388.96215 124.306831,393.317748 C131.778816,403.77607 141.997375,413.517784 159.513338,425.671594 C179.024678,439.209937 183.866749,466.001998 170.328406,485.513338 C156.790063,505.024678 129.998002,509.866749 110.486662,496.328406 C85.2149424,478.793106 67.8606597,462.248652 54.331308,443.31201 C48.7410128,435.487435 44.200072,427.944631 38.7765144,417.893572 L37.5219041,415.553232 C36.0098194,412.710276 31.8720094,404.837368 31.0535163,403.296311 L30.1840693,401.664768 C28.050204,397.674671 26.1989849,394.32328 24.2817543,391.003198 C12.4058659,370.437635 19.4502389,344.138643 40.0158018,332.262754 Z" id="Path" fill="#EBBAAA" fill-rule="nonzero"></path>
                    <path d="M85.4995,480 C18.2995,452.8 1.66618,346.999 0.999512,293.999 C33.9995,281 74.4995,273.999 114.5,293.999 C109,342 128.5,382 152,412.5 C126.5,418 87.9995,454.5 85.4995,480 Z" id="Path" fill="#35383A" fill-rule="nonzero"></path>
                    <path d="M517,469.5 C555.5,385.5 539.999,339.5 535.499,302 C502.499,289.001 459.999,304 419.999,324 C425.499,372 431.999,388.5 431.999,438 C454.5,431.5 507,444 517,469.5 Z" id="Path" fill="#35383A" fill-rule="nonzero"></path>
                </g>
                <g id="head" transform="translate(78.999100, 0.000000)" fill-rule="nonzero">
                    <ellipse id="Oval" fill="#EBBAAA" cx="52.6379" cy="295.561" rx="52.6379" ry="49.9286"></ellipse>
                    <ellipse id="Oval" fill="#EBBAAA" cx="316.3379" cy="299.432" rx="52.6379" ry="49.9286"></ellipse>
                    <path d="M31.4459,255.814 C22.0369,167.366 90.1329,89.7228995 179.0519,87.5128995 C268.4859,85.2900995 340.5499,160.292 334.7579,249.566 L333.1799,273.878 L325.1459,338.978 C316.3089,410.591 255.4719,464.381 183.3159,464.381 C111.2279,464.381 50.4259,410.69 41.5069,339.156 L33.3679,273.878 L31.4459,255.814 Z" id="Path" fill="#EED4CC"></path>
                    <path d="M220.827564,371.479779 C224.482706,369.531133 229.025474,370.914521 230.97412,374.569663 C232.922767,378.224805 231.539379,382.767574 227.884236,384.71622 C198.568483,400.345171 168.199632,400.083152 147.109762,384.071485 C143.810698,381.566797 143.166727,376.861927 145.671415,373.562862 C148.176102,370.263797 152.880973,369.619827 156.180038,372.124514 C172.239972,384.317398 196.357301,384.525479 220.827564,371.479779 Z" id="Path" fill="#C99584"></path>
                    <path d="M105.1099,257.577 L107.313508,257.582756 C119.488793,257.649588 126.49734,258.325224 135.190284,260.994527 C140.469835,262.615695 143.435541,268.209833 141.814373,273.489384 C140.193205,278.768935 134.599067,281.73464 129.319516,280.113472 L128.561798,279.886499 C122.147149,278.014027 116.316249,277.577 105.1099,277.577 C99.5870525,277.577 95.1099,273.099847 95.1099,267.577 C95.1099,262.054152 99.5870525,257.577 105.1099,257.577 Z" id="Path" fill="#000000"></path>
                    <path d="M259.2569,256.607 C264.779747,256.607 269.2569,261.084152 269.2569,266.607 C269.2569,272.129847 264.779747,276.607 259.2569,276.607 L257.333946,276.611741 C246.947395,276.66555 241.390596,277.196006 235.048185,279.144196 C229.768787,280.765861 224.17437,277.800683 222.552704,272.521285 C220.931038,267.241887 223.896217,261.647469 229.175615,260.025803 L230.190995,259.720768 C238.930764,257.155427 246.198658,256.607 259.2569,256.607 Z" id="Path" fill="#000000"></path>
                    <path d="M223.6899,219.76 L252.3469,215.428 C253.1589,215.305 253.9639,215.692 254.3759,216.404 L264.0729,233.15 C264.8919,234.565 263.7589,236.312 262.1319,236.141 L248.3239,234.685 L224.0319,236.26 C221.6309,236.416 219.6359,234.43 219.7809,232.028 L220.2949,223.475 C220.4089,221.591 221.8239,220.042 223.6899,219.76 Z" id="Path" fill="#393939"></path>
                    <path d="M139.6519,219.777 L109.5929,215.415 C108.7969,215.3 108.0089,215.673 107.5929,216.362 L97.4809,233.127 C96.6299,234.539 97.7549,236.316 99.3949,236.15 L113.8729,234.685 L139.3649,236.272 C141.7669,236.421 143.7559,234.431 143.6049,232.029 L143.0699,223.486 C142.9509,221.597 141.5249,220.049 139.6519,219.777 Z" id="Path" fill="#393939"></path>
                    <path d="M170.069828,276.115342 L186.911972,278.426657 L186.832119,278.958468 C186.481823,281.109855 185.756409,283.575613 184.494329,287.243216 L180.847812,297.5609 C180.678326,298.045947 180.532328,298.466848 180.419998,298.795434 L179.883946,300.380789 C178.232035,305.323374 177.010067,309.544927 176.129412,313.534677 C174.155443,322.477621 174.208802,329.218618 176.282614,333.387807 C178.410267,337.665239 183.317163,340.168065 193.158701,340.248975 L193.6549,340.251 L193.6549,357.251 C177.526719,357.251 166.40266,351.696516 161.061637,340.958929 C156.876475,332.545082 156.795035,322.256539 159.529001,309.87048 C160.604484,304.99807 162.064128,300.00902 164.020883,294.217521 L165.037874,291.272293 C166.207024,287.941125 168.03482,282.822417 168.272065,282.138264 L168.85001,280.438351 C169.543868,278.349455 169.933653,276.965745 170.053821,276.222097 L170.069828,276.115342 Z" id="Path" fill="#EBBAAA"></path>
                    <path d="M178.2579,0.0119935228 C189.780542,0.516643674 202.096886,2.64192942 209.065728,5.81389113 C212.327508,5.08928395 215.624139,4.76199811 218.8969,4.86677952 C226.020951,5.0948688 230.325855,6.96635809 232.892046,9.66635241 C234.791437,10.2936779 236.650409,11.228543 238.360486,12.4465003 C304.804829,26.8624188 362.0009,77.4986701 362.0009,186 C362.0009,217.023 359.4739,255.218 356.2849,266.124 C350.9529,261.761 346.5899,259.337 343.1969,257.883 C327.1209,250.994 337.7849,335.44 316.4569,324.776 C316.4569,234.614 320.0569,208.563 311.6089,199.713 C291.2499,178.384 303.0409,148.038 291.2499,141.544 C285.930802,138.614475 280.18449,136.505437 274.04284,134.996299 L273.823565,135.802699 C271.688908,143.49982 269.1529,148.33 269.1529,148.33 L268.525904,147.304133 C267.365204,145.385818 264.712986,140.916617 261.586945,135.085011 C250.308025,150.636195 237.879873,158.026 216.4409,158.026 L217.663754,156.538161 C224.689335,147.949054 229.83696,140.903131 233.494843,133.77594 C224.253664,137.019448 213.745329,138.235032 202.60878,138.274054 L201.952101,139.018778 C196.987454,144.699675 193.6549,149.71007 193.6549,153.257685 C185.469133,147.666828 180.940785,142.456244 178.279934,136.89266 C171.381725,136.186126 164.42066,135.278483 157.528252,134.344241 C153.786688,137.938584 151.1309,141.550985 151.1309,145.422 C145.55743,140.214869 142.379795,136.15058 140.428648,132.043656 C129.333028,130.620531 118.727493,129.526055 109.208246,129.553294 L110.169906,130.607257 C117.103355,138.135204 123.699561,143.792339 124.7579,144.288 C116.539438,145.398321 98.7836248,142.324263 83.7699999,134.161557 C57.3181363,147.009685 54.8699677,188.527001 53.7269,202.622 C51.8529,225.737 36.2769,198.53 48.8799,327.956 C18.7693,336.197 31.5009,251.5 22.5009,255 L21.2962475,255.818012 C19.0044487,257.361233 19.3811333,257.042 16.0004,260 C12.8136,249.095 12.1266,219.747 10.0838,184 C4.59838031,88.0069735 58.3086723,25.4256554 123.106543,10.9144359 C129.891785,7.60873149 136.618354,5.28886069 142.9479,4.17295952 L144.392353,3.92361755 C155.576297,2.03481435 163.69656,1.64966672 169.701534,2.12166847 C172.685621,0.642043611 175.577441,-0.105402369 178.2579,0.0119935228 Z" id="Path" fill="#8B572A"></path>
                    <rect id="Rectangle" fill="#EBEEF0" transform="translate(120.742118, 410.670415) rotate(54.000000) translate(-120.742118, -410.670415) " x="111.742118" y="360.670415" width="18" height="100" rx="9"></rect>
                    <rect id="Rectangle" fill="#FFA16C" transform="translate(140.967542, 395.975784) rotate(54.000000) translate(-140.967542, -395.975784) " x="131.967542" y="370.975784" width="18" height="50" rx="9"></rect>
                    <circle id="Oval" fill="#FF4040" transform="translate(87.571900, 434.769000) rotate(54.000000) translate(-87.571900, -434.769000) " cx="87.5719" cy="434.769" r="9"></circle>
                    <circle id="Oval" fill="#EBEEF0" transform="translate(128.022900, 405.381000) rotate(54.000000) translate(-128.022900, -405.381000) " cx="128.0229" cy="405.381" r="9"></circle>
                </g>
            </g>
        </g>
    </g>
</svg>