<?xml version="1.0" encoding="UTF-8"?>
<svg width="467px" height="1350px" viewBox="0 0 467 1350" version="1.1" xmlns="http://www.w3.org/2000/svg" xmlns:xlink="http://www.w3.org/1999/xlink">
    <!-- Generator: Sketch 55.2 (78181) - https://sketchapp.com -->
    <title>gee_me_016</title>
    <desc>Created with Sketch.</desc>
    <defs>
        <path d="M66.5557002,25.6544744 C44.9010924,25.2421875 35.2667002,19.0387074 26.779191,5.13600852 L22.0794641,5.13600852 C16.1686057,11.5600142 18.557306,14.8774858 16.1686057,25.6544744 C12.9839918,40.0078125 10.2951458,37.9559659 7.11053183,51.2929688 C4.90594661,60.5166903 4.45716632,74.3618608 9.76485626,82.0610795 C18.0078378,94.0078125 28.3412916,92.8284801 45.8561889,92.8284801 C55.9412793,92.8284801 72.9258871,90.2588778 88.3177084,94.362571 C109.808339,100.086648 168.993637,103.078125 183.856127,98.4662642 C209.182487,90.6040483 201.371025,67.6981534 190.757563,58.9825994 C172.128386,43.6800426 136.145413,44.7347301 127.064324,32.8263494 C119.634517,23.0848722 115.42001,15.9992898 110.975359,7.11115057 C110.975359,-0.789417614 97.1475565,-0.789417614 96.1598563,5.13600852 C98.2810144,17.4470881 93.6244394,26.162642 66.5557002,25.6544744 Z" id="path-1"></path>
        <path d="M66.5557002,25.6544744 C44.9010924,25.2421875 35.2667002,19.0387074 26.779191,5.13600852 L22.0794641,5.13600852 C16.1686057,11.5600142 18.557306,14.8774858 16.1686057,25.6544744 C12.9839918,40.0078125 10.2951458,37.9559659 7.11053183,51.2929688 C4.90594661,60.5166903 4.45716632,74.3618608 9.76485626,82.0610795 C18.0078378,94.0078125 28.3412916,92.8284801 45.8561889,92.8284801 C55.9412793,92.8284801 72.9258871,90.2588778 88.3177084,94.362571 C109.808339,100.086648 168.993637,103.078125 183.856127,98.4662642 C209.182487,90.6040483 201.371025,67.6981534 190.757563,58.9825994 C172.128386,43.6800426 136.145413,44.7347301 127.064324,32.8263494 C119.634517,23.0848722 115.42001,15.9992898 110.975359,7.11115057 C110.975359,-0.789417614 97.1475565,-0.789417614 96.1598563,5.13600852 C98.2810144,17.4470881 93.6244394,26.162642 66.5557002,25.6544744 Z" id="path-3"></path>
        <path d="M-1.63424829e-13,32.0979759 C-1.63424829e-13,14.3705966 14.3724764,7.10542736e-14 32.1012156,7.10542736e-14 L55.8069795,7.10542736e-14 C73.5357187,7.10542736e-14 87.9081951,14.3705966 87.9081951,32.0979759 C87.9081951,49.8243963 73.5357187,64.1949929 55.8069795,64.1949929 L32.1012156,64.1949929 C14.3724764,64.1949929 -1.63424829e-13,49.8243963 -1.63424829e-13,32.0979759 Z" id="path-5"></path>
    </defs>
    <g id="GEE!-ME" stroke="none" stroke-width="1" fill="none" fill-rule="evenodd">
        <g id="gee_me_016" transform="translate(-367.000000, -124.000000)">
            <g transform="translate(367.000000, 124.000000)">
                <g id="lower-limb" transform="translate(39.000000, 834.588026)">
                    <path d="M120.458634,480.646876 C136.101763,490.607292 156.857537,486.000543 166.817953,470.357414 C170.212193,465.026659 171.529125,460.543669 172.479413,454.968186 C172.938007,452.27755 173.24907,449.368275 173.47452,446.061527 C173.835275,440.770217 173.98981,434.130418 173.973572,426.045313 C173.94523,411.93339 173.390426,393.209609 172.384744,370.65941 C170.743959,333.868453 167.914444,287.62267 165.070356,248.41879 C163.728515,229.92239 147.646443,216.015873 129.150043,217.357714 C110.653642,218.699555 96.7471247,234.781628 98.088966,253.278028 C100.891198,291.904946 103.684026,337.551114 105.294012,373.651488 C106.260887,395.33152 106.79021,413.19539 106.816289,426.180192 C106.829646,432.830578 106.70856,438.033182 106.472645,441.493424 C106.449662,441.830534 106.426623,442.134959 106.404733,442.402634 C102.035947,456.505358 107.404525,472.334961 120.458634,480.646876 Z" id="Path" fill="#D4D8DE" fill-rule="nonzero"></path>
                    <path d="M237.360412,210.811971 C244.297472,306.454678 248.655854,409.223267 245.202996,433.812156 C242.624142,452.176983 255.421202,469.155191 273.786029,471.734044 C292.150857,474.312898 309.129064,461.515838 311.707918,443.151011 C316.1583,411.458439 311.809057,308.905348 304.341875,205.953739 C303.000312,187.457319 286.918448,173.55056 268.422028,174.892123 C249.925607,176.233687 236.018848,192.315551 237.360412,210.811971 Z" id="Path" fill="#D4D8DE" fill-rule="nonzero"></path>
                    <polygon id="Path" fill="#495E6D" fill-rule="nonzero" points="57.4858439 38.9271733 182.796232 50.1615128 182.796232 394.055795 94.888037 394.055795"></polygon>
                    <ellipse id="Oval" fill="#495E6D" fill-rule="nonzero" cx="200.026326" cy="60.1704972" rx="116.846852" ry="60.1704972"></ellipse>
                    <polygon id="Path" fill="#495E6D" fill-rule="nonzero" points="201.709253 50.9621165 337.028975 50.9621165 325.090269 396.337756 235.002421 396.337756"></polygon>
                    <polygon id="Path" fill="#374D5E" fill-rule="nonzero" points="326.164273 385.167656 338.016676 45.4298011 315.298612 60.2443253 306.40931 385.167656"></polygon>
                    <polygon id="Path" fill="#374D5E" fill-rule="nonzero" points="102.441546 382.703523 66.8824209 46.9111577 58.4869692 42.9608736 94.0451355 385.167656"></polygon>
                    <polygon id="Path" fill="#82B9E0" fill-rule="nonzero" points="251.639956 135.570981 252.422233 143.149588 273.228911 146.61682 257.638021 152.332547 260.357543 159.750635 289.989508 148.887354 289.279096 141.281605 267.912167 137.721013 290.061373 129.108792 288.629747 121.476452 253.071581 121.476452 253.071581 129.377327 267.569009 129.377327"></polygon>
                    <polygon id="Path" fill="#82B9E0" fill-rule="nonzero" points="104.261448 157.082742 103.551036 164.68849 133.183001 175.551771 135.902523 168.133683 120.311633 162.417957 141.118311 158.950724 141.900588 151.372117 125.971536 145.178463 140.468963 145.178463 140.468963 137.277588 104.910797 137.277588 103.479172 144.909928 125.628377 153.522149"></polygon>
                    <polygon id="Path" fill="#303F4A" fill-rule="nonzero" points="236.279719 396.030937 233.316618 376.279517 327.151973 376.279517 325.176573 396.030937"></polygon>
                    <polygon id="Path" fill="#303F4A" fill-rule="nonzero" points="95.0328357 395.043366 92.0697351 375.291946 182.94199 375.291946 182.94199 395.043366"></polygon>
                    <g id="Clipped" transform="translate(215.829569, 406.437543)">
                        <g id="Group" transform="translate(0.507187, 0.258523)">
                            <path d="M184.75177,65.8955966 C185.117123,59.5291193 186.324419,61.4179688 188.411055,58.4648438 C204.359057,58.4648438 201.677883,91.3615057 201.677883,91.3615057 L172.418943,105.877841 C168.759657,105.695668 114.92616,105.091619 114.92616,98.4662642 C165.179004,100.930398 186.324419,92.4161932 186.324419,83.9307528 C186.324419,77.1711648 184.294359,73.8536932 184.75177,65.8955966 Z" id="Path" fill="#29282D" fill-rule="nonzero"></path>
                            <path d="M200.901148,94.2666903 C202.796957,90 201.432396,80.4790483 200.370858,78.887429 C199.30932,77.2958097 70.3914292,67.21875 70.3914292,67.21875 C48.9947741,65.6271307 5.30678029,55.7034801 2.37532444,67.21875 C-7.61770842,106.472301 18.9370431,106.472301 35.9139795,106.472301 C59.256308,106.472301 62.0257043,100.287997 77.2880698,102.224787 C85.2462485,103.231534 96.9174127,108.591264 150.49871,108.591264 C193.473259,108.591264 196.656914,103.816406 200.901148,94.2666903 Z" id="Path" fill="#29282D" fill-rule="nonzero"></path>
                            <mask id="mask-2" fill="white">
                                <use xlink:href="#path-1"></use>
                            </mask>
                            <use id="Path" fill="#3E3C47" fill-rule="nonzero" xlink:href="#path-1"></use>
                            <path d="M165.300789,64.8888494 C178.282813,61.3412642 184.561901,56.3267045 182.091692,50.0752841 L120.852361,21.9247159 L95.6650472,34.7631392 C117.889261,61.4275568 154.435127,67.8515625 165.300789,64.8888494 Z" id="Path" fill="#5E5B6A" fill-rule="nonzero" mask="url(#mask-2)"></path>
                            <path d="M109.493809,62.4151278 C112.291973,63.2397017 119.469581,65.5791903 123.815462,66.3654119 C109.493809,75.7521307 96.9816612,85.3018466 95.6650472,88.590554 C92.7019466,88.0919744 87.0720554,86.7112926 80.3547351,85.1292614 C92.2080965,75.2535511 96.8176838,69.1651278 109.493809,62.4151278 Z" id="Path" fill="#E8EEF3" fill-rule="nonzero" mask="url(#mask-2)"></path>
                            <path d="M86.7757454,56.4897017 C89.5739097,57.3142756 96.7515175,59.6537642 101.097398,60.4399858 C86.7757454,69.8267045 74.2635975,79.3764205 72.9469836,82.6651278 C69.983883,82.1665483 64.3539918,80.7858665 57.6366715,79.2038352 C69.4900329,69.328125 74.0996201,63.2397017 86.7757454,56.4897017 Z" id="Path" fill="#E8EEF3" fill-rule="nonzero" mask="url(#mask-2)"></path>
                            <path d="M64.0576817,50.5642756 C66.855846,51.3888494 74.0334538,53.7283381 78.3793347,54.5145597 C64.0576817,63.9012784 51.5464928,73.4509943 50.2289199,76.7397017 C47.2658193,76.2411222 41.6359281,74.8604403 34.9195667,73.2784091 C46.7719692,63.4026989 51.3815565,57.3142756 64.0576817,50.5642756 Z" id="Path" fill="#E8EEF3" fill-rule="nonzero" mask="url(#mask-2)"></path>
                            <path d="M100.603548,22.9122869 C85.7880452,32.2990057 40.3519179,41.6761364 17.6338542,9.08629261" id="Path" stroke="#29282D" stroke-width="16.7893786" mask="url(#mask-2)"></path>
                        </g>
                        <path d="M118.429689,48.4019027 C118.311457,50.9326989 121.053909,52.5803369 123.232829,51.2875807 L133.778727,45.0306832 L133.778727,53.7855114 C133.778727,56.1963062 136.354843,57.731814 138.475386,56.5849803 L150.685101,49.9817146 L154.896627,62.2318239 C155.729303,64.6538367 158.936076,65.150373 160.462246,63.0936035 L169.846357,50.4469416 C170.893774,49.0353723 170.598569,47.0419703 169.187,45.9945538 C167.775431,44.9471372 165.782029,45.2423413 164.734612,46.6539107 L158.951449,54.447692 L155.483769,44.3612159 C154.844582,42.5020041 152.689329,41.6612326 150.960012,42.5964828 L140.144025,48.445992 L140.144025,39.4417614 C140.144025,36.9749226 137.458958,35.4458935 135.337418,36.7046068 L125.063634,42.8000586 L125.789177,27.2696172 C125.913724,24.6036719 122.899002,22.9776041 120.739638,24.5460181 L107.142937,34.4217284 C105.720762,35.4546987 105.40525,37.4449872 106.43822,38.8671622 C107.47119,40.2893372 109.461479,40.6048499 110.883654,39.5718796 L119.121744,33.5882961 L118.429689,48.4019027 Z" id="Path" fill="#2A2A2A" fill-rule="nonzero"></path>
                    </g>
                    <g id="Clipped" transform="translate(101.500000, 461.437543) scale(-1, 1) translate(-101.500000, -461.437543) translate(0.000000, 406.437543)">
                        <g id="Group" transform="translate(0.507187, 0.258523)">
                            <path d="M184.75177,65.8955966 C185.117123,59.5291193 186.324419,61.4179688 188.411055,58.4648438 C204.359057,58.4648438 201.677883,91.3615057 201.677883,91.3615057 L172.418943,105.877841 C168.759657,105.695668 114.92616,105.091619 114.92616,98.4662642 C165.179004,100.930398 186.324419,92.4161932 186.324419,83.9307528 C186.324419,77.1711648 184.294359,73.8536932 184.75177,65.8955966 Z" id="Path" fill="#29282D" fill-rule="nonzero"></path>
                            <path d="M200.901148,94.2666903 C202.796957,90 201.432396,80.4790483 200.370858,78.887429 C199.30932,77.2958097 70.3914292,67.21875 70.3914292,67.21875 C48.9947741,65.6271307 5.30678029,55.7034801 2.37532444,67.21875 C-7.61770842,106.472301 18.9370431,106.472301 35.9139795,106.472301 C59.256308,106.472301 62.0257043,100.287997 77.2880698,102.224787 C85.2462485,103.231534 96.9174127,108.591264 150.49871,108.591264 C193.473259,108.591264 196.656914,103.816406 200.901148,94.2666903 Z" id="Path" fill="#29282D" fill-rule="nonzero"></path>
                            <mask id="mask-4" fill="white">
                                <use xlink:href="#path-3"></use>
                            </mask>
                            <use id="Path" fill="#3E3C47" fill-rule="nonzero" xlink:href="#path-3"></use>
                            <path d="M165.300789,64.8888494 C178.282813,61.3412642 184.561901,56.3267045 182.091692,50.0752841 L120.852361,21.9247159 L95.6650472,34.7631392 C117.889261,61.4275568 154.435127,67.8515625 165.300789,64.8888494 Z" id="Path" fill="#5E5B6A" fill-rule="nonzero" mask="url(#mask-4)"></path>
                            <path d="M109.493809,62.4151278 C112.291973,63.2397017 119.469581,65.5791903 123.815462,66.3654119 C109.493809,75.7521307 96.9816612,85.3018466 95.6650472,88.590554 C92.7019466,88.0919744 87.0720554,86.7112926 80.3547351,85.1292614 C92.2080965,75.2535511 96.8176838,69.1651278 109.493809,62.4151278 Z" id="Path" fill="#E8EEF3" fill-rule="nonzero" mask="url(#mask-4)"></path>
                            <path d="M86.7757454,56.4897017 C89.5739097,57.3142756 96.7515175,59.6537642 101.097398,60.4399858 C86.7757454,69.8267045 74.2635975,79.3764205 72.9469836,82.6651278 C69.983883,82.1665483 64.3539918,80.7858665 57.6366715,79.2038352 C69.4900329,69.328125 74.0996201,63.2397017 86.7757454,56.4897017 Z" id="Path" fill="#E8EEF3" fill-rule="nonzero" mask="url(#mask-4)"></path>
                            <path d="M64.0576817,50.5642756 C66.855846,51.3888494 74.0334538,53.7283381 78.3793347,54.5145597 C64.0576817,63.9012784 51.5464928,73.4509943 50.2289199,76.7397017 C47.2658193,76.2411222 41.6359281,74.8604403 34.9195667,73.2784091 C46.7719692,63.4026989 51.3815565,57.3142756 64.0576817,50.5642756 Z" id="Path" fill="#E8EEF3" fill-rule="nonzero" mask="url(#mask-4)"></path>
                            <path d="M100.603548,22.9122869 C85.7880452,32.2990057 40.3519179,41.6761364 17.6338542,9.08629261" id="Path" stroke="#29282D" stroke-width="16.7893786" mask="url(#mask-4)"></path>
                        </g>
                        <path d="M118.429689,48.4019027 C118.311457,50.9326989 121.053909,52.5803369 123.232829,51.2875807 L133.778727,45.0306832 L133.778727,53.7855114 C133.778727,56.1963062 136.354843,57.731814 138.475386,56.5849803 L150.685101,49.9817146 L154.896627,62.2318239 C155.729303,64.6538367 158.936076,65.150373 160.462246,63.0936035 L169.846357,50.4469416 C170.893774,49.0353723 170.598569,47.0419703 169.187,45.9945538 C167.775431,44.9471372 165.782029,45.2423413 164.734612,46.6539107 L158.951449,54.447692 L155.483769,44.3612159 C154.844582,42.5020041 152.689329,41.6612326 150.960012,42.5964828 L140.144025,48.445992 L140.144025,39.4417614 C140.144025,36.9749226 137.458958,35.4458935 135.337418,36.7046068 L125.063634,42.8000586 L125.789177,27.2696172 C125.913724,24.6036719 122.899002,22.9776041 120.739638,24.5460181 L107.142937,34.4217284 C105.720762,35.4546987 105.40525,37.4449872 106.43822,38.8671622 C107.47119,40.2893372 109.461479,40.6048499 110.883654,39.5718796 L119.121744,33.5882961 L118.429689,48.4019027 Z" id="Path" fill="#2A2A2A" fill-rule="nonzero"></path>
                    </g>
                </g>
                <g id="upper-limb" transform="translate(0.000052, 398.063991)">
                    <path d="M72.8985522,219.249396 C60.3473758,292.406357 44.1502432,464.670384 69.8316951,481.46005" id="Path" stroke="#EBBAAA" stroke-width="73.0831321" stroke-linecap="round" stroke-linejoin="bevel"></path>
                    <path d="M67.8549522,141.722195 C67.8549522,118.513317 118.723431,94.8259943 154.282556,83.5619318 L200.705424,68.1606179 C207.170546,67.9573509 251.591164,69.8040128 257.994913,70.6899503 L330.099905,94.8259943 C364.266661,99.5490767 392.311593,117.776953 388.869985,152.09169 L376.571679,299.540838 L379.980683,493.804687 C380.051644,495.596697 300.777675,473.156783 298.985431,473.064737 L160.702607,497.043537 L87.1158734,493.735653 C85.3952612,493.643608 84.5039337,488.61179 84.646527,486.89169 L94.5313923,281.350355 L67.8549522,141.722195 Z" id="Path" fill="#EBBAAA" fill-rule="nonzero"></path>
                    <path d="M56.2242549,89.8555398 C64.7308469,80.776598 98.3710528,63.698331 111.315679,60.24375 C103.147494,176.691797 89.5808087,431.594425 86.6220233,443.436648 C82.9234216,458.239666 18.9508465,423.185689 11.553835,417.265057 C-10.1764326,399.870384 5.06875843,316.011222 6.9180209,285.419531 C8.76728336,254.826882 45.590943,101.203977 56.2242549,89.8555398 Z" id="Path" fill="#D53126" fill-rule="nonzero"></path>
                    <path d="M20.9372746,460.720099 L11.059889,414.796129 C26.3698175,421.215341 62.2576647,419.075284 83.1647849,414.796129 C87.938829,423.849183 95.5190925,448.102202 77.7322419,457.757386 C60.4468171,467.139311 35.753353,465.986825 20.9372746,460.720099 Z" id="Path" fill="#B33229" fill-rule="nonzero"></path>
                    <path d="M394.006026,226.162393 C406.55749,299.320313 423.249624,469.114453 397.5675,485.904119" id="Path" stroke="#EBBAAA" stroke-width="73.0831321" stroke-linecap="round" stroke-linejoin="bevel"></path>
                    <path d="M410.680899,96.7685369 C402.174211,87.6895952 360.330244,67.6486151 347.384659,64.1949929 C355.552843,180.642081 377.324441,438.507422 380.283706,450.349645 C383.981349,465.152663 447.954595,430.099645 455.351798,424.178054 C477.081203,406.784339 461.836098,322.924219 459.987277,292.332528 C458.137496,261.739879 421.314498,108.117933 410.680899,96.7685369 Z" id="Path" fill="#D53126" fill-rule="nonzero"></path>
                    <path d="M435.294772,172.831641 C432.528252,197.324361 400.723346,212.336399 380.474533,221.718324 C375.535073,287.394673 366.25165,408.673189 366.64673,417.758842 C367.140581,429.116868 432.824562,434.548509 455.048776,423.684268 C477.272989,412.820987 461.744041,310.603551 461.469786,298.257955 C460.975936,276.036648 446.653324,218.755611 435.294772,172.831641 Z" id="Path" fill="#FFC736" fill-rule="nonzero"></path>
                    <path d="M445.967687,467.633097 L455.845648,421.709126 C440.535336,428.128338 404.647297,425.98924 383.740657,421.709126 C378.966133,430.76218 371.385774,455.016158 389.173008,464.670384 C406.45872,474.052308 431.152184,472.900781 445.967687,467.633097 Z" id="Path" fill="#F4B12F" fill-rule="nonzero"></path>
                    <path d="M383.931484,54.3183239 C383.931484,40.4837003 340.964607,1.48135653 338.989207,1.56319402e-13 L308.863392,36.5420455 L322.197344,96.2920099 C327.794632,88.8852273 342.530544,64.3503196 355.287219,69.132848 C367.139622,73.5769176 376.029882,77.8570313 376.523732,82.9598011 C377.511433,81.3135298 383.931484,63.7012074 383.931484,54.3183239 Z" id="Path" fill="#BE3228" fill-rule="nonzero"></path>
                    <path d="M90.5728241,54.3183239 C90.5728241,40.4837003 133.539893,1.48135653 135.515293,1.56319402e-13 L165.641108,36.5420455 L152.306197,96.2920099 C146.708909,88.8852273 131.972997,64.3503196 119.217281,69.132848 C107.363919,73.5769176 98.4746175,77.8570313 97.9807674,82.9598011 C96.9930672,81.3135298 90.5728241,63.7012074 90.5728241,54.3183239 Z" id="Path" fill="#BE3228" fill-rule="nonzero"></path>
                    <path d="M130.081983,348.790909 C155.390123,346.138849 173.81217,314.464666 178.46395,298.257955 C218.471562,304.888104 240.801258,304.775923 299.417909,298.257955 C299.417909,321.960618 321.43787,344.37081 338.495357,348.790909 L338.495357,420.617045 C281.926026,433.877344 177.843521,428.352699 130.081983,420.617045 C130.081983,392.991903 130.081983,379.731605 130.081983,348.790909 Z" id="Path" stroke="#C03228" stroke-width="13.8265696" fill="#D2382D" fill-rule="nonzero"></path>
                    <path d="M91.1634618,94.4160511 C92.5878597,69.5532315 113.00765,50.0913707 137.909203,49.8622159 L238.646952,48.9360085 L332.674094,57.1568182 C356.03656,59.1990767 374.445182,77.9715554 375.943034,101.378906 C380.574677,173.765945 389.697959,320.353125 389.697959,352.038814 C389.697959,394.505327 386.742529,428.578445 381.804028,439.442685 C348.333457,454.223651 97.3367799,505.611861 86.9638181,439.442685 C76.5909521,373.27255 78.0731737,322.905469 78.0731737,322.905469 L91.1634618,94.4160511 Z" id="Path" fill="#E23D32" fill-rule="nonzero"></path>
                    <path d="M287.947935,228.67395 C274.279915,214.649391 255.160439,205.936009 234.000464,205.936009 C231.911885,205.936009 229.843216,206.022332 227.798293,206.188361 C225.289668,207.813656 212.100689,217.867185 207.045534,252.172773 C229.511663,244.766597 255.971034,229.116891 287.947935,228.67395 Z M195.00947,255.282332 C198.656261,227.022185 208.014383,214.023803 213.145938,208.856156 C192.445241,214.799097 175.41169,229.368656 166.207103,248.407626 C175.016864,255.718803 184.554479,257.053214 195.00947,255.282332 Z M205.888932,262.080126 C205.528618,266.155567 205.275234,270.512626 205.154146,275.172332 L308.999948,275.172332 C308.031984,262.465714 303.88742,250.643214 297.357383,240.493361 C264.316797,233.751303 233.486763,254.391009 205.888932,262.080126 L205.888932,262.080126 Z M194.078525,264.484832 C183.143165,265.748509 172.776667,263.841303 163.05071,255.974538 C160.899743,262.05292 159.50952,268.489244 159.000096,275.172185 L193.559957,275.172185 C193.646532,271.418509 193.82455,267.861303 194.078525,264.484832 L194.078525,264.484832 Z M206.246591,304.801744 C232.606996,313.051744 261.998136,333.899538 293.465466,326.808067 C293.469448,326.822773 293.473578,326.837626 293.477855,326.852332 C302.237322,315.58792 307.850426,301.769097 308.999801,286.704979 L205.121109,286.704979 C205.25488,293.335126 205.650591,299.348803 206.246591,304.801744 Z M227.747263,355.679538 C229.827257,355.85045 231.913419,355.936009 234.000464,355.936009 C252.030593,355.936009 268.579204,349.609097 281.536626,339.062479 C252.611106,337.796303 228.432345,322.935126 207.745512,315.28542 C213.183252,345.582479 225.231705,354.186597 227.747263,355.679538 Z M168.317806,317.509097 C177.911761,334.601597 194.01835,347.567185 213.292983,353.057626 C208.555075,348.202332 200.013447,336.39292 195.87434,311.755126 C185.88202,309.698361 176.753832,310.662626 168.317806,317.509097 L168.317806,317.509097 Z M194.563318,302.071744 C194.066136,297.346891 193.724111,292.236891 193.57795,286.704979 L158.999948,286.704979 C159.630607,294.965273 161.605473,302.851009 164.702282,310.147332 C174.06704,302.342038 184.043433,300.604832 194.563318,302.071744 Z" id="Shape" fill="#C03228" fill-rule="nonzero" transform="translate(233.999948, 280.936009) rotate(-14.000000) translate(-233.999948, -280.936009) "></path>
                    <path d="M192.600529,150.791548 C160.992205,144.28125 123.168082,67.3830256 96.4992171,67.3830256 C119.217281,36.8680398 187.662028,47.0390625 192.600529,67.3830256 C196.55133,83.6578125 207.416032,123.665945 214.330893,134.516761 C222.232494,142.314737 224.207895,157.300888 192.600529,150.791548 Z" id="Path" fill="#CA2F25" fill-rule="nonzero"></path>
                    <path d="M267.668622,150.573899 C299.276946,144.06456 340.964607,81.4688565 375.041223,75.0582741 C340.470757,18.7648082 272.608082,46.8223722 267.668622,67.1653764 C263.717821,83.4411222 252.853119,123.449254 245.938258,134.299112 C238.036657,142.098047 236.061256,157.084197 267.668622,150.573899 Z" id="Path" fill="#CA2F25" fill-rule="nonzero"></path>
                    <path d="M177.783725,130.231854 L177.783725,268.073757 C177.783725,271.891859 180.878908,274.987042 184.69701,274.987042 C188.515111,274.987042 191.610295,271.891859 191.610295,268.073757 L191.610295,130.231854 C191.610295,126.413752 188.515111,123.318569 184.69701,123.318569 C180.878908,123.318569 177.783725,126.413752 177.783725,130.231854 Z" id="Path" fill="#F94B3F" fill-rule="nonzero"></path>
                    <path d="M179.758963,266.43228 L179.758963,278.739524 C179.758963,281.466732 181.969802,283.677571 184.69701,283.677571 C187.424218,283.677571 189.635057,281.466732 189.635057,278.739524 L189.635057,266.43228 C189.635057,263.705072 187.424218,261.494233 184.69701,261.494233 C181.969802,261.494233 179.758963,263.705072 179.758963,266.43228 Z" id="Path" fill="#FFC736" fill-rule="nonzero"></path>
                    <path d="M274.58314,130.231854 L274.58314,288.912464 C274.58314,292.730566 277.678323,295.825749 281.496424,295.825749 C285.314526,295.825749 288.409709,292.730566 288.409709,288.912464 L288.409709,130.231854 C288.409709,126.413752 285.314526,123.318569 281.496424,123.318569 C277.678323,123.318569 274.58314,126.413752 274.58314,130.231854 Z" id="Path" fill="#F94B3F" fill-rule="nonzero"></path>
                    <path d="M276.558378,286.876918 L276.558378,301.118075 C276.558378,303.845283 278.769217,306.056122 281.496424,306.056122 C284.223632,306.056122 286.434471,303.845283 286.434471,301.118075 L286.434471,286.876918 C286.434471,284.14971 284.223632,281.938871 281.496424,281.938871 C278.769217,281.938871 276.558378,284.14971 276.558378,286.876918 Z" id="Path" fill="#FFC736" fill-rule="nonzero"></path>
                    <rect id="Rectangle" fill="#EBBAAA" fill-rule="nonzero" x="190.777599" y="12.8393821" width="77.3744203" height="117.06456" rx="37.4413104"></rect>
                    <path d="M89.4289138,489.587855 L87.6097235,439.486364 C171.744712,461.312642 328.796716,454.698793 380.945369,439.486364 C380.945369,455.856072 383.218997,467.265874 380.945369,489.587855 C350.384199,503.874077 126.266392,512.40554 89.4289138,489.587855 Z" id="Path" fill="#C03228" fill-rule="nonzero"></path>
                </g>
                <g id="head" transform="translate(35.321242, 0.031641)">
                    <path d="M335.046197,350.165838 C367.376598,350.165838 393.586133,323.960689 393.586133,291.633558 C393.586133,259.307386 367.376598,233.101278 335.046197,233.101278 C302.714838,233.101278 276.506261,259.307386 276.506261,291.633558 C276.506261,323.960689 302.714838,350.165838 335.046197,350.165838 Z" id="Path" fill="#EBBAAA" fill-rule="nonzero"></path>
                    <path d="M59.4668121,353.128551 C27.136124,353.128551 0.926971663,326.923402 0.926971663,294.59723 C0.926971663,262.270099 27.136124,236.06495 59.4668121,236.06495 C91.797692,236.06495 118.006269,262.270099 118.006269,294.59723 C118.006269,326.923402 91.797692,353.128551 59.4668121,353.128551 Z" id="Path" fill="#EBBAAA" fill-rule="nonzero"></path>
                    <path d="M41.4223924,178.289169 C41.4223924,94.5642401 109.303959,26.691456 193.03984,26.691456 C276.77668,26.691456 344.658534,94.5642401 344.658534,178.289169 L344.658534,249.890945 L342.223805,328.47571 C339.727704,409.058629 273.672616,473.090625 193.03984,473.090625 C115.139062,473.090625 50.7668035,412.323366 46.2932887,334.560298 L41.4223924,249.890945 L41.4223924,178.289169 Z" id="Path" fill="#F4D4C9" fill-rule="nonzero"></path>
                    <g id="Group-3" transform="translate(150.073922, 327.911932)">
                        <mask id="mask-6" fill="white">
                            <use xlink:href="#path-5"></use>
                        </mask>
                        <g id="Path"></g>
                        <rect id="Rectangle" fill="#FFFFFF" fill-rule="nonzero" mask="url(#mask-6)" x="2.96310062" y="42.4674716" width="200.510813" height="41.4796129"></rect>
                    </g>
                    <path d="M242.429757,272.606037 L242.429757,290.383274 C242.429757,296.928584 247.735779,302.234606 254.281088,302.234606 C260.826398,302.234606 266.13242,296.928584 266.13242,290.383274 L266.13242,272.606037 C266.13242,266.060727 260.826398,260.754705 254.281088,260.754705 C247.735779,260.754705 242.429757,266.060727 242.429757,272.606037 Z" id="Path" fill="#000000" fill-rule="nonzero"></path>
                    <path d="M115.011635,272.606037 L115.011635,290.383274 C115.011635,296.928584 120.317657,302.234606 126.862967,302.234606 C133.408277,302.234606 138.714299,296.928584 138.714299,290.383274 L138.714299,272.606037 C138.714299,266.060727 133.408277,260.754705 126.862967,260.754705 C120.317657,260.754705 115.011635,266.060727 115.011635,272.606037 Z" id="Path" fill="#000000" fill-rule="nonzero"></path>
                    <path d="M203.479735,280.941903 C200.239503,268.833132 208.952361,256.808736 221.468345,256.11456 L291.27094,252.240021 C303.786924,251.545845 313.77708,262.532813 311.897573,274.924432 L307.811563,301.858274 C306.408645,311.104048 298.713214,318.099503 289.374172,318.617259 L230.699986,321.873366 C221.361903,322.392081 212.939602,316.291193 210.522133,307.257315 L203.479735,280.941903 Z" id="Path" fill-opacity="0.3" fill="#FFFFFF" fill-rule="nonzero"></path>
                    <path d="M70.4019959,273.982884 C68.7401663,261.559624 78.9221088,250.750036 91.4237084,251.664737 L161.147671,256.764631 C173.65023,257.679332 182.149246,269.85522 178.69709,281.904545 L171.193446,308.092436 C168.617754,317.082209 160.08901,323.034482 150.761476,322.351811 L92.1534559,318.064986 C82.824963,317.382315 75.254193,310.252628 74.0142936,300.983842 L70.4019959,273.982884 Z" id="Path" fill-opacity="0.3" fill="#FFFFFF" fill-rule="nonzero"></path>
                    <path d="M200.050957,265.811573 C200.813055,264.313101 201.81515,262.799222 203.110546,261.326634 L210.527887,267.849396 C208.997431,269.588672 208.296452,271.30206 207.999183,272.673153 C207.84863,273.368288 207.801643,273.976172 207.807396,274.447905 C207.810273,274.683771 207.825616,274.874574 207.842877,275.015518 C207.862055,275.161257 207.880275,275.228374 207.878357,275.221662 L198.346571,277.813317 C198.171188,277.168543 198.038635,276.405026 197.974118,275.549577 C193.075971,273.724917 187.479527,273.963278 183.009646,275.47022 L181.052228,288.092685 L171.291257,286.579687 L173.431593,272.777663 L178.317213,273.534958 L178.31717,273.534877 L178.312559,273.534162 L178.317122,273.534788 L178.31716,273.534859 L173.419127,272.862997 C173.3894,273.080646 173.469951,272.537003 173.124735,271.331783 C172.808287,270.223402 172.169639,268.702734 170.939329,266.968253 L178.996277,261.254723 C180.04528,262.733878 180.869961,264.195719 181.50385,265.59499 C187.234716,263.987605 193.847267,263.829001 200.050957,265.811573 Z M307.168181,262.441586 L303.119507,265.514702 C302.188384,264.287429 300.679984,263.250959 298.87815,262.474325 C297.089741,261.702486 295.394349,261.352521 294.559119,261.26527 L295.583259,251.442294 C297.28706,251.620618 299.763506,252.162994 302.332375,253.213839 C308.640671,254.490709 320.187077,257.757877 326.058125,261.742756 C326.496436,265.199254 326.497316,267.668182 326.496436,271.131392 L315.205632,275.709658 L313.914207,286.299716 L304.109125,285.104084 L305.799723,271.240696 L309.121464,271.645749 L309.121464,271.673262 L305.790133,271.32603 C305.768078,271.544638 305.830409,270.999077 305.446836,269.804403 C305.093949,268.707528 304.406394,267.208913 303.119507,265.514702 L307.168181,262.441586 L307.168181,262.441586 Z M74.5301992,274.086384 L74.5301992,274.086369 L75.5025565,273.92919 L77.3417885,285.310227 L67.5913655,286.885547 L65.7511745,275.505469 L69.0591132,274.970751 L69.2446582,275.045985 L65.8221355,275.85831 C65.6648488,275.196117 65.5559456,274.41236 65.5211114,273.536184 L57.154693,270.143821 C57.1541552,266.679652 57.154693,264.211683 57.5928667,260.754226 C64.1411273,256.311115 77.7464579,252.759695 83.2747023,251.866087 L83.1272813,252.074217 C83.9315518,251.870653 84.6552558,251.750877 85.2721581,251.702131 L86.0488932,261.548118 C86.0546468,261.547159 85.981768,261.552912 85.825462,261.584553 C85.6749097,261.615234 85.4725749,261.664134 85.2242115,261.737962 C84.7265257,261.887536 84.0859589,262.128196 83.3504579,262.491584 C81.8832916,263.216442 80.0891294,264.410156 78.3198994,266.294212 L75.1575636,263.325962 L75.1575636,263.325962 L78.3198994,266.294212 C76.7338255,267.98267 75.9772279,269.673047 75.635848,271.033594 C75.4622813,271.723935 75.396115,272.328942 75.3865257,272.801634 C75.381731,273.036541 75.3903614,273.228303 75.4037864,273.369247 C75.4181704,273.515945 75.4335133,273.58402 75.4325544,273.577308 L74.5301992,273.791479 L74.5301992,273.791389 L75.4325544,273.577308 L75.4737885,273.751811 L75.5025565,273.92919 L74.5301992,274.086384 Z M200.473483,288.778232 L210.168287,286.886506 C210.690906,289.563494 208.943731,292.156108 206.266392,292.678658 C203.590012,293.201207 200.996101,291.45522 200.473483,288.778232 Z M203.112464,276.517969 L207.878357,275.221662 L207.925345,275.395206 L207.959867,275.571626 L203.112464,276.517969 Z M217.550148,257.946839 L217.001639,253.038707 L217.22507,253.013778 L217.448501,253.009943 L217.550148,257.946839 Z M295.071189,256.354261 L294.969542,251.417365 L295.277359,251.410653 L295.583259,251.442294 L295.071189,256.354261 Z M304.109125,285.104084 L313.914207,286.299716 C313.583376,289.007386 311.120838,290.934588 308.413772,290.6038 C305.705747,290.27397 303.779253,287.811754 304.109125,285.104084 Z M210.168287,286.886506 L200.473483,288.778232 L198.265062,277.463352 L207.959867,275.571626 L210.168287,286.886506 Z M210.527887,267.849396 L203.110546,261.326634 C208.116172,255.637074 213.893739,253.385795 217.001639,253.038707 L218.097698,262.854013 C218.104411,262.853054 218.031532,262.861683 217.876185,262.898118 C217.726591,262.933594 217.526175,262.989205 217.280688,263.071662 C216.787797,263.236577 216.154901,263.497372 215.431867,263.88473 C213.989632,264.657528 212.234786,265.908771 210.527887,267.849396 Z M217.651795,262.883736 L217.448501,253.009943 L294.969542,251.417365 L295.172836,261.291158 L217.651795,262.883736 Z M67.5913655,286.885547 L77.3417885,285.310227 C77.7771437,288.002557 75.947501,290.537642 73.2548193,290.97294 C70.5621376,291.408239 68.0267207,289.577876 67.5913655,286.885547 Z M85.6605257,256.624645 L85.2721581,251.702131 L85.4946304,251.684872 L85.7190205,251.687749 L85.6605257,256.624645 Z M163.192115,257.550852 L163.25061,252.612997 L163.558427,252.616832 L163.863368,252.65902 L163.192115,257.550852 Z M171.291257,286.579687 L181.052228,288.092685 C180.634133,290.787891 178.110224,292.633594 175.414665,292.215554 C172.720066,291.798473 170.873162,289.274893 171.291257,286.579687 Z M85.6010719,261.5625 L85.7190205,251.687749 L163.25061,252.612997 L163.132661,262.488707 L85.6010719,261.5625 Z M162.520862,262.442685 L163.863368,252.65902 C165.661366,252.905433 168.311854,253.589062 171.002618,254.854687 C173.678998,256.113601 176.778267,258.129013 178.996277,261.254723 L170.939329,266.968253 C170.047522,265.711257 168.574602,264.626847 166.7977,263.790767 C165.035183,262.962358 163.352257,262.556783 162.520862,262.442685 Z" id="Combined-Shape" fill="#000000" fill-rule="nonzero"></path>
                    <path d="M227.611265,229.985156 L277.829587,221.465199 C278.530567,221.346307 279.242094,221.604226 279.705259,222.144034 L290.516261,234.751385 C291.565333,235.974822 290.832708,237.874219 289.234168,238.076527 L227.216185,245.930114 C224.474598,246.277202 222.198092,243.835121 222.737971,241.124574 L224.318292,233.184695 C224.646246,231.538423 225.956148,230.265128 227.611265,229.985156 Z" id="Path" fill="#272727" fill-rule="nonzero"></path>
                    <path d="M152.882634,229.839418 L102.523349,222.197727 C101.820452,222.0913 101.113719,222.361683 100.660144,222.909162 L90.070655,235.70348 C89.0426797,236.945135 89.8088665,238.831108 91.4112423,239.005611 L153.555805,245.775746 C156.304105,246.074893 158.537458,243.593501 157.950591,240.892543 L156.231226,232.982386 C155.874503,231.341868 154.542546,230.091584 152.882634,229.839418 Z" id="Path" fill="#272727" fill-rule="nonzero"></path>
                    <path d="M182.281698,291.181635 C174.721509,304.519712 170.224599,315.807641 169.997854,326.011569 C169.636607,342.268314 180.79648,352.108716 201.437209,352.108716 L201.437209,335.319338 C194.813361,335.319338 190.732786,334.139104 188.716638,332.361332 C187.373031,331.176585 186.716909,329.362766 186.783089,326.38456 C186.929691,319.787217 190.626938,310.506564 196.887916,299.460623 L182.281698,291.181635 Z" id="Path" fill="#EBBAAA" fill-rule="nonzero"></path>
                    <path d="M296.259306,165.944531 C293.197435,140.252344 281.507092,65.5468146 279.465526,48.4187855 C278.020415,36.2864276 301.297536,44.7248864 335.791287,70.1465945 C370.285039,95.5681108 364.90447,182.734197 355.521318,230.139524 L342.21038,273.799751 L331.560478,271.166868 L331.560478,216.312571 C314.180791,198.820099 299.321177,191.636719 296.259306,165.944531 Z" id="Path" fill="#272727" fill-rule="nonzero"></path>
                    <path d="M60.0166639,154.337216 C61.4417331,128.505043 58.5305107,129.834908 59.4803331,112.613778 C60.1531199,100.414879 60.0158008,69.158544 30.5583614,112.61282 C20.8901189,126.875071 35.0831791,190.838033 37.6418979,225.526705 L40.6825762,257.498118 L45.5410064,257.766584 L47.7343721,217.997195 C56.3202678,190.440128 58.5918823,180.169389 60.0166639,154.337216 Z" id="Path" fill="#272727" fill-rule="nonzero"></path>
                    <path d="M198.417532,5.95160156 L198.416573,5.95160156 C198.343694,5.95160156 198.270815,5.95160156 198.197936,5.95160156 C198.124099,5.95160156 198.05122,5.95160156 197.978341,5.95160156 L197.977382,5.95160156 C151.345466,6.12244176 9.81608172,53.3568324 35.495424,161.006676 C47.8941302,145.287038 67.0428563,149.293892 84.0514374,139.035618 C119.85509,117.441371 149.090057,109.53505 187.882702,109.53505 C221.217105,109.53505 262.103099,117.494105 289.71747,131.440909 C314.419565,143.916903 336.3187,142.411577 360.461737,161.006676 C356.26545,33.3916939 245.046571,6.12244176 198.417532,5.95160156 Z" id="Path" fill="#272727"></path>
                    <path d="M148.747719,154.124361 C196.087326,112.846768 221.127924,118.327308 236.473717,104.997017 C223.474431,102.00554 242.014427,58.9692081 160.328743,93.9280717 C135.96707,104.354616 136.547224,135.800604 148.747719,154.124361 Z" id="Path" fill="#272727" fill-rule="nonzero"></path>
                    <path d="M190.572507,151.130007 L210.32747,102.737109 C312.064427,102.737109 316.015228,120.514347 312.064427,136.316442 C308.113626,152.117578 289.346363,161.006676 265.6406,167.425888 C265.6406,157.055433 264.323027,139.936896 265.6406,130.390057 L234.033234,142.241868 L238.971735,121.501918 L190.572507,151.130007 Z" id="Path" fill="#272727" fill-rule="nonzero"></path>
                    <path d="M108.05447,167.108523 C139.689645,138.196662 155.300103,130.495526 170.645895,117.165234 C157.64661,114.173757 123.691778,105.355611 110.217821,121.21907 C105.122055,131.452415 95.8549343,148.784766 108.05447,167.108523 Z" id="Path" fill="#272727" fill-rule="nonzero"></path>
                    <path d="M61.2825503,185.76978 C108.623117,144.492188 139.28114,131.923189 154.626932,118.592898 C141.627647,115.60142 154.549259,90.6150107 72.8645339,125.57397 C48.5025727,136.000036 49.0827267,167.446023 61.2825503,185.76978 Z" id="Path" fill="#272727" fill-rule="nonzero"></path>
                    <polygon id="Path" fill="#272727" fill-rule="nonzero" points="76.8517741 42.6106214 67.2921786 76.566669 193.311218 57.0530327 337.329415 83.376978 337.025433 69.4054368 326.752392 65.1357741 326.514577 54.1581072 313.564197 54.439517 313.195008 37.4741016 296.545068 37.8359553 292.562622 24.9427841 277.762462 25.2644638 268.692881 12.481843 253.516819 16.8054865 248.717363 8.92227273 232.992793 9.26399148 232.79717 0.282282315 211.716963 9.72642401 205.971041 0.865294389 196.916803 10.0480078 187.47132 1.26737962 170.090674 10.6310582 158.795411 1.89059446 146.965064 11.1336648 138.640573 11.3145916 129.56332 19.4993501 125.690193 11.5960973 110.332893 28.9032315 100.071359 25.132532 87.0816632 44.8844318"></polygon>
                </g>
            </g>
        </g>
    </g>
</svg>