<?xml version="1.0" encoding="UTF-8"?>
<svg width="526px" height="1343px" viewBox="0 0 526 1343" version="1.1" xmlns="http://www.w3.org/2000/svg" xmlns:xlink="http://www.w3.org/1999/xlink">
    <!-- Generator: Sketch 55.2 (78181) - https://sketchapp.com -->
    <title>gee_me_073</title>
    <desc>Created with Sketch.</desc>
    <defs>
        <path d="M81.962,71.5 C74.464,69.5 71.552,43.5 71.552,0 C67.305,0 57.037,5.5 41.52,6.5 C25.225,6.01 25.493,4.54 21.178,2.1 C21.061,2.03 20.925,1.93 20.814,1.86 C14.046,-2.69 17.09,70.01 12.233,82.89 C8.312,93.29 0.96,108.89 0.96,127.89 C0.96,133.5 38.961,130 52.961,131 C58.004,104.11 88.582,98.42 95.959,93.5 C97.458,92.5 88.461,73.23 81.962,71.5 Z" id="path-1"></path>
        <path d="M15.036,71.5 C22.534,69.5 25.446,43.5 25.446,0 C29.693,0 39.961,5.5 55.478,6.5 C71.773,6.01 71.505,4.54 75.821,2.1 C75.938,2.03 76.073,1.93 76.184,1.86 C82.952,-2.69 79.908,70.01 84.766,82.89 C88.686,93.29 96.038,108.89 96.038,127.89 C96.038,133.5 58.038,130 44.038,131 C38.994,104.11 8.416,98.42 1.039,93.5 C-0.46,92.5 8.537,73.23 15.036,71.5 Z" id="path-3"></path>
        <path d="M0.96,0.307 C0.906,1.223 0.879,2.148 0.879,3.074 L0.879,20.396 C0.879,46.507 23.072,67.667 50.438,67.667 C77.813,67.667 99.997,46.507 99.997,20.396 L99.997,3.074 C99.997,2.148 99.97,1.223 99.916,0.307 L0.96,0.307 Z" id="path-5"></path>
    </defs>
    <g id="GEE!-ME" stroke="none" stroke-width="1" fill="none" fill-rule="evenodd">
        <g id="gee_me_073" transform="translate(-334.000000, -129.000000)">
            <g transform="translate(321.000000, 129.000000)">
                <g id="lower-limb" transform="translate(64.999959, 838.273000)">
                    <path d="M280.500041,243.917 C295.262612,243.917 307.257992,255.764754 307.496423,270.470506 L307.500041,270.917 L307.500041,438.927 C307.500041,453.838688 295.411729,465.927 280.500041,465.927 C265.737469,465.927 253.742089,454.079246 253.503658,439.373494 L253.500041,438.927 L253.500041,270.917 C253.500041,256.005312 265.588352,243.917 280.500041,243.917 Z" id="Path" fill="#DCE1E9" fill-rule="nonzero"></path>
                    <path d="M141.511697,244.076816 C156.186887,242.472975 169.398433,252.947395 171.233121,267.540198 L171.285225,267.983656 L188.015225,421.063656 C189.635266,435.887081 178.931809,449.217143 164.108384,450.837184 C149.433194,452.441025 136.221648,441.966605 134.38696,427.373802 L134.334856,426.930344 L117.604856,273.850344 C115.984815,259.026919 126.688272,245.696857 141.511697,244.076816 Z" id="Path" fill="#DCE1E9" fill-rule="nonzero"></path>
                    <g id="Group-6" transform="translate(222.000094, 337.720775)">
                        <path d="M213.979946,137.506225 C213.482946,134.306225 214.928946,132.096225 207.420946,129.096225 C199.913946,126.096225 111.318946,141.596225 111.318946,141.596225 C88.5129462,139.746225 27.2579462,109.876225 4.70594618,123.596225 C-2.42905382,127.936225 -0.0110538242,141.686225 2.62294618,154.556225 C6.83694618,158.846225 49.4729462,162.596225 63.2959462,159.386225 C63.2959462,151.876225 64.3729462,147.046225 64.3729462,147.046225 C64.3729462,147.046225 72.7469462,152.456225 81.7879462,154.556225 C100.225946,158.846225 102.810946,159.006225 159.921946,159.006225 C205.727946,154.716225 214.476946,140.706225 213.979946,137.506225 Z" id="Path" fill="#5F4A3D" fill-rule="nonzero"></path>
                        <path d="M80.4319462,1.50622479 C75.5509462,1.50622479 47.0669462,16.4362248 32.2949462,4.84622479 C30.6739462,3.57622479 27.3759462,4.61622479 27.3729462,6.68622479 C27.3459462,26.5762248 27.0519462,61.1862248 24.0679462,74.9062248 C20.9079462,89.4462248 18.2399462,87.3662248 15.0789462,100.866225 C12.8919462,110.216225 5.80494618,132.026225 15.0789462,132.026225 L57.3789462,132.026225 C67.3869462,132.026225 80.9029462,143.636225 114.229946,146.896225 C169.550946,152.316225 188.132946,145.116225 197.623946,141.006225 C221.819946,130.536225 206.493946,115.216225 194.114946,109.396225 C175.981946,100.866225 149.993946,94.4662248 136.773946,87.3962248 C126.480946,81.8962248 122.945946,80.1862248 117.659946,74.3962248 C108.946946,64.8562248 101.291946,14.6662248 100.109946,1.55622479 C100.027946,0.646224794 98.7479462,0.176224794 97.9689462,0.656224794 C92.8149462,3.82622479 85.2699462,1.50622479 80.4319462,1.50622479 Z" id="Path" fill="#DDB488" fill-rule="nonzero"></path>
                        <path d="M91.1259462,73.5062248 C83.6279462,71.5062248 80.7159462,45.5062248 80.7159462,2.00622479 C76.4689462,2.00622479 66.2009462,7.50622479 50.6839462,8.50622479 C34.3889462,8.01622479 34.6569462,6.54622479 30.3419462,4.10622479 C30.2249462,4.03622479 30.0899462,3.93622479 29.9779462,3.86622479 C23.2099462,-0.683775206 26.2539462,72.0162248 21.3969462,84.8962248 C17.4759462,95.2962248 10.1239462,110.896225 10.1239462,129.896225 C10.1239462,135.506225 48.1249462,132.006225 62.1249462,133.006225 C67.1679462,106.116225 97.7459462,100.426225 105.122946,95.5062248 C106.621946,94.5062248 97.6249462,75.2362248 91.1259462,73.5062248 Z" id="Path" fill="#B0865D" fill-rule="nonzero"></path>
                        <g id="Clipped" transform="translate(8.999946, 1.006225)">
                            <mask id="mask-2" fill="white">
                                <use xlink:href="#path-1"></use>
                            </mask>
                            <g id="Path"></g>
                            <g id="Group" mask="url(#mask-2)" fill-rule="nonzero">
                                <g transform="translate(11.000000, -9.000000)" id="Path">
                                    <path d="M0,50 L0,26.5 L69.5,22 L69.5,50 C65,51.17 52.4,53.5 38,53.5 C23.6,53.5 4.5,53.5 0,50 Z" fill="#ECCF5A"></path>
                                    <path d="M3.625,34.5 L0.125,7.5 L67.625,0 C70.958,10.5 73.925,32.1 59.125,34.5 C44.325,36.9 15.958,35.5 3.625,34.5 Z" fill="#473E3E"></path>
                                </g>
                            </g>
                        </g>
                        <path d="M111.464946,73.6062248 C101.686946,63.2362248 95.9479462,22.0062248 95.4479462,1.50622479 C97.4499462,1.00622479 97.9499462,-0.393775206 99.4519462,0.106224794 C100.953946,0.606224794 100.953946,6.60622479 101.453946,11.6062248 C102.001946,17.0862248 105.958946,34.1062248 107.960946,45.6062248 C109.962946,57.1062248 111.964946,64.1062248 119.472946,73.6062248 C125.479946,81.2062248 134.617946,83.5062248 142.125946,90.0062248 C140.125946,89.0062248 138.125946,88.5062248 137.125946,88.5062248 L133.125946,88.5062248 C130.122946,88.5062248 123.625946,86.5062248 111.464946,73.6062248 Z" id="Path" fill="#B0865D" fill-rule="nonzero"></path>
                        <path d="M97.7796785,3.01202975 C100.651293,2.81599726 101.492414,6.79007389 98.8994472,7.81998751 L98.739737,7.87819241 L85.392,12.322 L98.6360542,16.1022165 C100.758679,16.7080171 101.092126,19.5393419 99.2467432,20.6442248 L99.0923352,20.7299485 L88.082,26.385 L102.410744,29.0483118 C104.821153,29.4962808 105.190408,32.7528061 103.030808,33.7631809 L102.872244,33.8314623 L87.873,39.755 L104.715313,45.1243429 C106.816802,45.7943181 107.064677,48.6307461 105.190926,49.6805494 L105.029863,49.7638126 L91.785,56.063 L107.926483,58.0244763 C110.035646,58.2807433 110.862406,60.8645997 109.365153,62.3017306 L109.242101,62.4127426 L97.863,72.064 L115.334907,70.0231063 C117.718722,69.7446667 119.058792,72.6381136 117.389072,74.278406 L117.273277,74.3858538 L106.46,83.867 L124.164364,80.5490183 C125.467158,80.3048206 126.723192,81.1188885 127.046643,82.3850602 L127.082153,82.5456425 C127.32635,83.8484371 126.512282,85.1044705 125.246111,85.4279213 L125.085528,85.4634313 L98.4105285,90.4634313 C95.9629665,90.9222058 94.4533433,87.9321864 96.1865583,86.2332401 L96.3016152,86.1265958 L107.938,75.921 L90.2309849,77.9893433 C87.82655,78.2701915 86.4952983,75.3325669 88.2052663,73.706143 L88.3237913,73.599707 L101.647,62.297 L82.6324094,59.9879733 C80.2036946,59.6928802 79.6252106,56.4752821 81.7102311,55.3254408 L81.8600294,55.248637 L97.168,47.966 L79.6715789,42.3881067 C77.4893828,41.6924012 77.3331094,38.7033458 79.3489851,37.7517975 L79.5126486,37.6809873 L92.946,32.375 L79.9741487,29.9641377 C77.6862666,29.5389401 77.1912587,26.5205786 79.1414843,25.3637595 L79.2885571,25.2825011 L91.179,19.173 L76.2408381,14.9102331 C73.934134,14.2518958 73.8091801,11.0716164 75.9707488,10.1955652 L76.1371553,10.1342572 L78.53,9.337 L76.1472139,9.50041984 C74.8248082,9.59069465 73.6725164,8.63541982 73.4992516,7.34012435 L73.4827511,7.17649251 C73.3924763,5.85408686 74.3477511,4.701795 75.6430466,4.52853023 L75.8066785,4.51202975 L97.7796785,3.01202975 Z" id="Path" fill="#F2D996" fill-rule="nonzero"></path>
                        <path d="M89.1509466,7.31594741 C90.084461,6.29863914 91.6659153,6.23071082 92.6832236,7.16422524 L93.5714759,7.98595096 C108.031965,21.4693662 127.229419,44.4464058 131.826257,55.0085714 C132.377245,56.2745795 131.797608,57.7475466 130.5316,58.2985353 C129.265591,58.8495241 127.792624,58.2698864 127.241636,57.0038782 C122.89715,47.0215437 103.379011,23.7651234 89.3026688,10.8482243 C88.2853605,9.91470992 88.2174322,8.33325567 89.1509466,7.31594741 Z" id="Path" fill="#F2D996" fill-rule="nonzero"></path>
                        <path d="M128.700745,54.7589175 C129.389614,54.2987531 130.321089,54.4841547 130.781254,55.1730235 L131.112029,55.6761427 C131.32192,56.0013594 131.522498,56.3248828 131.785396,56.7589044 L132.580059,58.0731093 C132.832539,58.4839791 133.030284,58.7924493 133.284638,59.1735987 C133.744484,59.8626797 133.558653,60.7940695 132.869572,61.2539162 C132.180491,61.7137629 131.249101,61.5279318 130.789255,60.8388509 L130.459917,60.3375014 C130.320678,60.1216047 130.185552,59.9064751 130.032939,59.6582474 L128.994029,57.9435673 C128.74097,57.5319147 128.54174,57.2213147 128.286639,56.8394261 C127.826474,56.1505573 128.011876,55.2190818 128.700745,54.7589175 Z" id="Path" fill="#463E35" fill-rule="nonzero"></path>
                        <path d="M85.0370025,7.94420177 C85.899684,6.86617305 87.4729405,6.69159963 88.5509692,7.55428113 C89.6289979,8.41696262 89.8035713,9.9902191 88.9408898,11.0682478 C83.7861644,17.5097237 77.3177944,27.7932434 73.7868024,36.4503861 C73.2653566,37.7288459 71.8062447,38.3425269 70.5277849,37.821081 C69.2493251,37.2996352 68.635644,35.8405233 69.1570899,34.5620635 C72.8921198,25.404669 79.6057433,14.7312413 85.0370025,7.94420177 Z" id="Path" fill="#F2D996" fill-rule="nonzero"></path>
                        <path d="M44.7103928,32.9326714 C45.1393733,32.5036909 45.6269037,32.3677449 46.0503894,32.6653386 C46.25796,32.8112035 46.4040234,33.0373377 46.5050741,33.3351773 L48.1283386,32.7282279 L48.3412963,32.8701996 C48.8458053,33.206539 49.2151706,33.5998693 49.4577457,34.0560692 L49.5593505,34.2709524 L49.685214,34.3011535 C52.6877806,35.0517952 53.1695128,37.1672278 51.6649094,39.3798798 C51.1088896,40.197556 50.3237728,40.9360784 49.5958301,41.3404909 C48.6726966,41.8533429 47.8050976,41.8123833 47.5788749,40.9074926 C47.394561,40.170237 47.5198513,39.6181236 48.0917965,38.0865878 L48.3083601,37.5090147 C48.3989629,37.2633533 48.4637725,37.0769999 48.5249833,36.884623 C48.7528306,36.1685313 48.8386251,35.6081516 48.7737553,35.1436069 C48.1282036,35.0587645 47.4494879,35.0711999 46.7459362,35.1757554 L46.6755024,35.1875175 C46.5943034,36.6350326 46.1532017,38.1672174 45.4639462,39.0862248 C44.7746966,40.0052242 43.2127783,40.4906071 41.3180356,40.5188083 L41.094161,40.5209863 C40.2619972,41.0087331 39.3822332,41.2862248 38.5639462,41.2862248 C37.6789053,41.2862248 37.4138973,40.7014895 37.6599897,39.9727592 C36.6051475,39.6107823 35.7958846,39.091204 35.3439291,38.427911 C32.4158403,39.6404863 30.9537844,38.8828989 31.5195074,36.7812601 C31.9484844,35.1876272 33.4895466,33.2862248 34.5629462,33.2862248 C35.1534498,33.2862248 36.090725,33.5046535 37.1474466,33.8687704 L37.5172,33.9993043 C38.2275088,33.5436714 38.9944936,33.1677375 39.5563514,32.9917611 C39.9277553,32.8754357 40.1923641,32.8397817 40.4265251,32.942171 C40.9432008,33.1680926 40.8690976,33.5948008 40.5668017,33.9741521 L40.4986633,34.0546264 L40.4174996,34.1397782 C40.1842246,34.3730531 39.9840034,34.6773851 39.8332331,35.0206506 C40.1184078,35.1714677 40.3821576,35.3230015 40.621376,35.4742072 L40.685,35.516 L42.3972487,34.8747676 C42.4679739,34.7494225 42.5606685,34.6337851 42.6763002,34.5205432 L42.8010505,34.4065965 C42.8053798,34.4028856 44.0962826,33.5022195 44.6289808,33.0105971 L44.7103928,32.9326714 Z M49.791,35.369 L49.7946028,35.4848494 C49.7922731,35.9230117 49.7102595,36.3929346 49.5591644,36.9196313 L49.4779091,37.1878266 C49.3853871,37.4786099 49.2878035,37.7495563 49.1211952,38.1901549 L48.9496113,38.6503697 C48.5332485,39.7876958 48.4412491,40.2338836 48.5490174,40.664957 C48.5585439,40.703063 48.6742424,40.7085252 49.1101872,40.4663337 C49.696992,40.140331 50.3671994,39.5098985 50.8379829,38.8175698 C51.8812454,37.2833603 51.7340725,36.074948 50.0138199,35.4446627 L49.791,35.369 Z M42.6962027,36.645648 C42.3883349,36.8192977 42.0860069,37.0039308 41.7934288,37.1964296 L42.0753104,37.0177539 C42.1880986,37.5347752 41.8856479,37.9960606 41.2496415,38.2504631 C40.8559933,38.4079224 40.4891106,38.478911 40.1392497,38.4568468 C39.7902944,38.763001 39.4851283,39.0669288 39.2376918,39.349089 C39.6167978,39.4182303 40.0082864,39.4670772 40.4005418,39.4943774 L40.820046,39.5151835 C42.1523985,38.6489138 42.9536946,37.387897 42.7317007,36.7299447 L42.6962027,36.645648 Z M45.657,35.406 L45.4189138,35.4725086 C45.0423338,35.5837579 44.6630022,35.7179704 44.2830453,35.8736009 L43.9029588,36.0363134 L43.581,36.185 L43.6314182,36.2921854 C43.9945737,37.1666639 43.5705139,38.2717578 42.687747,39.2393659 L42.513,39.422 L42.5707354,39.4143334 C43.4174953,39.2798406 44.0936445,39.0235429 44.4816134,38.6812459 L44.5801897,38.5857868 L44.6639462,38.4862248 C45.1394879,37.8521691 45.4907649,36.7737117 45.6269257,35.6852463 L45.657,35.406 Z M38.697,37.329 L38.6119637,37.3614149 L38.608,37.33 L36.331,38.064 L36.350878,38.0857386 C36.677273,38.4303997 37.1916673,38.738051 37.8531255,38.9805228 L38.107986,39.0683394 L38.164,39.085 L38.2568989,38.9640078 C38.4084218,38.773364 38.5828702,38.5754079 38.7771756,38.3734412 L38.967,38.18 L38.9201351,38.167349 L39.1124895,38.0066526 C38.975581,37.8688827 38.862781,37.7038981 38.7745337,37.5167383 L38.7129588,37.3722894 L38.697,37.329 Z M34.5629462,34.2862248 C34.0641983,34.2862248 32.8102586,35.833368 32.485135,37.0411895 C32.1947843,38.1198309 32.6898792,38.4468113 34.7221848,37.6081035 L34.92,37.524 L34.9007787,37.4745973 L34.971,37.451 L34.9632718,37.375752 C34.9099707,36.5347746 35.4266369,35.6871306 36.3286006,34.8881305 L36.528,34.716 L36.3661733,34.6647207 C35.7626016,34.4761281 35.229636,34.3498422 34.8427484,34.3046869 L34.686103,34.2903566 L34.5629462,34.2862248 Z M40.546,36.636 L39.6326667,36.9795721 C39.6936779,37.1560031 39.7812154,37.2834809 39.8866576,37.3600911 C40.1282518,37.1600949 40.3822217,36.9640372 40.6465253,36.772938 L40.6841629,36.7460997 L40.546,36.636 Z M37.6455028,35.1201086 C36.6666626,35.8214086 36.0735259,36.5355276 35.981525,37.1267662 L38.5406121,36.3030681 C38.5440215,36.0552366 38.5725712,35.7985532 38.6250888,35.5405592 C38.3877714,35.4298718 38.1414126,35.32205 37.891247,35.2188946 L37.6455028,35.1201086 Z M47.987,33.848 L47.286,34.111 L47.3546035,34.1056849 C47.5227474,34.094803 47.689773,34.0888911 47.8556074,34.0880346 L48.1034566,34.0905521 L48.263,34.098 L48.2416209,34.0735342 L48.1762088,34.0092671 L48.1067096,33.9459784 L47.987,33.848 Z" id="Shape" fill="#473E3E" fill-rule="nonzero"></path>
                        <path d="M59.7083928,32.9326714 C60.2705843,32.3704799 60.93418,32.356655 61.3251768,32.9594417 C61.4904914,33.2143017 61.5961729,33.5742657 61.648259,34.0120629 L61.663,34.175 L61.926888,34.1418178 C62.349561,34.0950552 62.7678129,34.0780403 63.1790476,34.092809 L63.264,34.097 L63.177004,34.0099942 C63.1011242,33.9387652 63.0178108,33.8695975 62.926835,33.802157 L62.7845961,33.7022499 C62.5548317,33.5490737 62.4927448,33.238639 62.645921,33.0088747 C62.7990973,32.7791104 63.1095319,32.7170234 63.3392963,32.8701996 C63.9280769,33.26272 64.3226188,33.7074762 64.550419,34.2156553 L64.575,34.276 L64.683214,34.3011535 C67.6107164,35.0330292 68.1418506,37.0623092 66.7720219,39.214133 L66.6629094,39.3798798 C66.1068896,40.197556 65.3217728,40.9360784 64.5938301,41.3404909 C63.6706966,41.8533429 62.8030976,41.8123833 62.5768749,40.9074926 C62.392561,40.170237 62.5178513,39.6181236 63.0897965,38.0865878 L63.3063601,37.5090147 C63.3969629,37.2633533 63.4617725,37.0769999 63.5229833,36.884623 C63.7242279,36.2521399 63.8189337,35.7256818 63.7862622,35.2747988 L63.772,35.145 L63.6225972,35.1269701 C63.0649529,35.0670657 62.4844283,35.0786903 61.8908221,35.1552636 L61.672,35.186 L61.6656889,35.3172721 C61.5742293,36.6175183 61.1919137,37.9831665 60.6017817,38.886268 L60.4619462,39.0862248 C59.7309563,40.060878 58.0347592,40.5190941 56.2139112,40.525272 L56.088,40.524 L56.0006888,40.5756037 C55.280748,40.980868 54.4938009,41.246228 53.7362099,41.2820689 L53.5619462,41.2862248 C52.6953318,41.2862248 52.4272798,40.745643 52.6322656,40.0530962 L52.663,39.956 C51.5025895,39.5483357 50.5724176,38.9339528 50.1708768,38.1343115 L50.0977078,37.9719201 C49.6743183,36.9134462 50.2386138,35.819127 51.3972674,34.8207039 L51.522,34.715 L51.3804251,34.6692662 C50.7089998,34.4581196 50.1118693,34.3196947 49.7052649,34.2915404 L49.5619462,34.2862248 C48.7289241,34.2862248 48.3277172,36.418997 48.5594648,38.7364729 C48.586942,39.0112449 48.38647,39.2562662 48.111698,39.2837434 C47.8369261,39.3112206 47.5919048,39.1107486 47.5644276,38.8359767 C47.2680085,35.8717859 47.754392,33.2862248 49.5619462,33.2862248 C50.1641826,33.2862248 51.1416316,33.5204234 52.1945958,33.8852963 L52.513,33.999 L52.7394727,33.8591255 C53.4638477,33.4182016 54.2191022,33.0717546 54.727669,32.9423012 C55.1444795,32.836204 55.4223646,32.8332634 55.6467017,33.1101049 C55.9389314,33.4707289 55.7783148,33.776963 55.4154996,34.1397782 C55.1968315,34.3584463 55.0109244,34.6370835 54.8672687,34.9424618 L54.832,35.022 L54.9846345,35.102721 C55.5652285,35.4184447 56.0433208,35.7328145 56.3942379,36.0390914 L56.536,36.169 L56.8087431,36.0005508 L57.1221997,35.8155075 L57.268,35.733 L57.2592619,35.6912396 C57.1801951,35.2463084 57.3253708,34.8620444 57.6848031,34.5109554 L57.7990505,34.4065965 C57.8033798,34.4028856 59.0942826,33.5022195 59.6269808,33.0105971 L59.7083928,32.9326714 Z M64.793,35.37 C64.8001716,35.9221083 64.6877529,36.5220318 64.4759091,37.1878266 L64.3491282,37.5656764 C64.287066,37.7420103 64.2144,37.9383843 64.1191952,38.1901549 L63.9476113,38.6503697 C63.5312485,39.7876958 63.4392491,40.2338836 63.5470174,40.664957 C63.5565439,40.703063 63.6722424,40.7085252 64.1081872,40.4663337 C64.694992,40.140331 65.3651994,39.5098985 65.8359829,38.8175698 C66.8792454,37.2833603 66.7320725,36.074948 65.0118199,35.4446627 L64.793,35.37 Z M57.691,36.643 L57.3466009,36.8445297 L57.069,37.015 L57.0854749,37.0991732 C57.1450264,37.5366827 56.9088626,37.9362154 56.3846824,38.1900911 L56.2476415,38.2504631 C55.8702475,38.4014207 55.520616,38.4681895 55.2065288,38.4603559 L55.136,38.456 L55.0367024,38.5444961 C54.7656183,38.7891876 54.5222608,39.0307411 54.3138265,39.2612581 L54.239,39.345 L54.2844151,39.3543352 C54.6521973,39.4203842 55.0309031,39.4680381 55.4096896,39.4964116 L55.807,39.519 L55.8990374,39.4594827 C57.0807585,38.6635847 57.9516662,37.4766851 57.7334733,36.7503078 L57.691,36.643 Z M60.653,35.403 L60.3852237,35.4781981 C59.8780535,35.6284074 59.3674695,35.8199117 58.8591422,36.048903 L58.576,36.18 L58.6117643,36.2506782 C59.0160146,37.1525753 58.5448182,38.3005148 57.6519258,39.2725182 L57.488,39.443 L57.7077333,39.4099982 C58.516364,39.2707214 59.1887006,39.0050739 59.5663702,38.600128 L59.6619462,38.4862248 C60.1564545,37.8268804 60.5157495,36.6859872 60.6396872,35.5588036 L60.653,35.403 Z M52.643,35.119 L52.5080861,35.2176636 C51.3626554,36.0700471 50.7707681,36.9619884 51.0261845,37.6005295 C51.2820524,38.2401992 52.0867603,38.7379917 53.1138053,39.0672552 L53.163,39.082 L53.2266103,38.999793 C53.4219477,38.7504106 53.656638,38.4888108 53.9234085,38.2224285 L54.127,38.023 L54.100748,37.9979833 C53.8479121,37.7390162 53.6722106,37.3793656 53.5901827,36.9394062 L53.5663322,36.7898067 C53.5193067,36.4371154 53.5316633,36.0585491 53.5963611,35.6792416 L53.624,35.54 L53.5013532,35.4833223 L53.1018184,35.3078188 L52.643,35.119 Z M54.56,36.01 L54.549034,36.0999274 C54.5318824,36.2929527 54.5340411,36.4812502 54.5575601,36.6576429 C54.5985432,36.9650162 54.6885829,37.1882089 54.8382979,37.3212442 L54.885,37.356 L55.0599686,37.2155985 C55.1438703,37.1489181 55.2292089,37.0825198 55.3158706,37.0165195 L55.5797116,36.8198293 L55.682,36.746 L55.5698938,36.6555389 C55.3411766,36.4783311 55.0491096,36.2876986 54.7055378,36.0919407 L54.56,36.01 Z M60.5,33.529 L60.4887018,33.5535815 L60.4482343,33.6053797 C60.4388397,33.6158469 60.427992,33.6272857 60.4154996,33.6397782 C60.0432186,34.0120591 59.2293711,34.6152326 58.7736881,34.9412214 L58.58,35.077 L58.7145068,35.0184922 C59.228771,34.7991613 59.7460145,34.6153375 60.2617514,34.4705389 L60.675,34.363 C60.6521048,34.0073933 60.5969011,33.7337216 60.5240465,33.5738794 L60.5,33.529 Z" id="Path" fill="#473E3E" fill-rule="nonzero"></path>
                        <path d="M69.6303054,35.3354044 C70.0007893,34.5944367 70.9017988,34.2941001 71.6427666,34.664584 C72.3837343,35.0350679 72.6840708,35.9360774 72.313587,36.6770452 L72.1471873,36.9985628 C72.0299776,37.2174137 71.8946955,37.4552627 71.7082249,37.7720283 L70.8395706,39.2286761 C70.5831741,39.6634645 70.4386872,39.9233532 70.3110501,40.1781179 C69.9399738,40.9187891 69.0387244,41.218405 68.2980531,40.8473287 C67.5573819,40.4762524 67.257766,39.575003 67.6288423,38.8343317 L67.7297874,38.6369667 C67.8674194,38.3734995 68.0225626,38.0991025 68.2595031,37.6976864 L69.2563856,36.0211875 C69.4210163,35.736367 69.5311239,35.5337673 69.6303054,35.3354044 Z" id="Path" fill="#463E35" fill-rule="nonzero"></path>
                        <path d="M205.211946,151.776225 C208.756946,150.946225 207.561946,144.996225 206.133946,141.086225 C203.199946,141.936225 197.273946,145.346225 197.326946,147.836225 C197.459946,154.146225 200.781946,152.806225 205.211946,151.776225 Z" id="Path" fill="#5F4A3D" fill-rule="nonzero"></path>
                        <path d="M212.345946,145.046225 C213.652946,144.346225 213.093946,137.026225 211.125946,133.186225 C206.464946,134.246225 204.102946,139.756225 204.102946,139.756225 C204.102946,139.756225 202.657946,143.806225 205.814946,146.226225 C207.094946,146.696225 210.360946,146.096225 212.345946,145.046225 Z" id="Path" fill="#5F4A3D" fill-rule="nonzero"></path>
                        <path d="M196.871946,156.336225 C200.827946,155.546225 198.906946,147.496225 197.450946,143.576225 C194.170946,144.406225 187.739946,147.306225 188.257946,152.336225 C188.904946,158.626225 191.926946,157.336225 196.871946,156.336225 Z" id="Path" fill="#5F4A3D" fill-rule="nonzero"></path>
                        <path d="M185.985946,159.646225 C190.367946,159.256225 189.181946,151.056225 188.039946,147.006225 C184.387946,147.496225 177.084946,149.726225 177.084946,154.786225 C177.084946,161.106225 180.507946,160.126225 185.985946,159.646225 Z" id="Path" fill="#5F4A3D" fill-rule="nonzero"></path>
                        <path d="M174.456946,161.646225 C179.569946,161.256225 178.184946,153.056225 176.853946,149.006225 C172.592946,149.496225 164.071946,151.726225 164.071946,156.786225 C164.071946,163.106225 168.065946,162.126225 174.456946,161.646225 Z" id="Path" fill="#5F4A3D" fill-rule="nonzero"></path>
                        <path d="M161.961946,163.646225 C166.343946,163.256225 165.156946,155.056225 164.015946,151.006225 C160.363946,151.496225 153.059946,153.726225 153.059946,158.786225 C153.059946,165.106225 156.482946,164.126225 161.961946,163.646225 Z" id="Path" fill="#5F4A3D" fill-rule="nonzero"></path>
                        <path d="M150.429946,164.646225 C155.542946,164.256225 154.157946,156.056225 152.826946,152.006225 C148.565946,152.496225 140.045946,154.726225 140.045946,159.786225 C140.045946,166.106225 144.038946,165.126225 150.429946,164.646225 Z" id="Path" fill="#5F4A3D" fill-rule="nonzero"></path>
                        <path d="M137.416946,165.646225 C142.528946,165.256225 141.144946,157.056225 139.812946,153.006225 C135.552946,153.496225 127.031946,155.726225 127.031946,160.786225 C127.031946,167.106225 131.024946,166.126225 137.416946,165.646225 Z" id="Path" fill="#5F4A3D" fill-rule="nonzero"></path>
                        <path d="M124.196946,166.276225 C128.595946,166.376225 128.333946,158.096225 127.653946,153.946225 C126.175946,153.976225 120.273946,152.286225 118.259946,152.886225 C115.254946,153.796225 116.234946,157.446225 115.895946,160.456225 C115.188946,166.736225 118.698946,166.146225 124.196946,166.276225 Z" id="Path" fill="#5F4A3D" fill-rule="nonzero"></path>
                        <path d="M112.477946,165.276225 C116.875946,165.376225 116.614946,157.096225 115.934946,152.946225 C114.456946,152.976225 108.554946,151.286225 106.540946,151.886225 C103.535946,152.796225 104.515946,156.446225 104.176946,159.456225 C103.468946,165.736225 106.979946,165.146225 112.477946,165.276225 Z" id="Path" fill="#5F4A3D" fill-rule="nonzero"></path>
                        <path d="M101.464946,163.926225 C105.863946,164.026225 105.602946,155.746225 104.921946,151.596225 C103.443946,151.626225 97.5419462,149.926225 95.5279462,150.536225 C92.5229462,151.446225 93.5029462,155.086225 93.1639462,158.096225 C92.4569462,164.376225 95.9669462,163.796225 101.464946,163.926225 Z" id="Path" fill="#5F4A3D" fill-rule="nonzero"></path>
                        <path d="M90.4539462,161.926225 C94.8529462,162.026225 94.5919462,153.746225 93.9109462,149.596225 C92.4329462,149.626225 86.5309462,147.926225 84.5169462,148.536225 C81.5119462,149.446225 82.4929462,153.086225 82.1539462,156.096225 C81.4459462,162.376225 84.9559462,161.796225 90.4539462,161.926225 Z" id="Path" fill="#5F4A3D" fill-rule="nonzero"></path>
                        <path d="M80.4429462,158.926225 C84.8419462,159.026225 84.5809462,150.746225 83.8999462,146.596225 C82.4219462,146.626225 76.5199462,144.926225 74.5059462,145.536225 C71.5009462,146.446225 72.4809462,150.086225 72.1419462,153.096225 C71.4349462,159.376225 74.9449462,158.796225 80.4429462,158.926225 Z" id="Path" fill="#5F4A3D" fill-rule="nonzero"></path>
                        <path d="M70.4319462,156.926225 C74.8299462,157.026225 74.5689462,148.746225 73.8889462,144.596225 C72.4109462,144.626225 66.5089462,142.926225 64.4949462,143.536225 C61.4899462,144.446225 62.4699462,148.086225 62.1309462,151.096225 C61.4229462,157.376225 64.9339462,156.796225 70.4319462,156.926225 Z" id="Path" fill="#5F4A3D" fill-rule="nonzero"></path>
                        <path d="M3.47644766,130.838638 L4.2234447,130.173811 L4.53898094,130.520244 C8.18988704,134.434496 12.6799594,135.97111 25.4518568,138.012491 C33.2167923,139.253515 47.3841926,139.08549 59.3263474,138.173234 L61.3693825,138.00804 L61.5604215,138.028778 L65.1309002,139.124068 C70.0249235,140.610353 77.1698484,142.733019 85.0762187,145.026013 L86.0439624,145.300258 C101.739384,149.646822 127.564289,152.006225 160.123946,152.006225 C181.561108,152.006225 202.315783,145.007368 209.042883,137.413346 L209.242427,137.183048 L210.005466,137.829401 C203.278299,145.771026 182.044375,153.006225 160.123946,153.006225 L158.092489,153.003146 C126.06763,152.905709 100.710224,150.497783 85.2815915,146.125172 L80.0383605,144.600062 C72.5024207,142.395199 66.0333124,140.456186 62.1203972,139.24904 L61.356,139.012 L60.7748563,139.061433 C48.7166901,140.054733 34.0150691,140.296132 25.754661,139.070883 L25.2940309,138.999958 C12.311975,136.924987 7.65443235,135.329573 3.80897165,131.203848 L3.47644766,130.838638 Z" id="Path" fill-opacity="0.2" fill="#B0865D" fill-rule="nonzero"></path>
                        <path d="M96.4323934,3.50621736 C102.213919,3.60476312 110.702355,8.86912113 117.107885,15.9561309 C124.418238,24.0442269 127.590028,32.7557256 124.152567,39.6251529 C121.308991,45.3066236 117.407041,47.8316698 112.908214,46.7315462 C109.353136,45.8622028 105.902354,42.7767506 102.483869,37.9514214 C97.0311559,30.2547001 91.7150327,17.7985443 89.9415475,9.53054831 C89.6519716,8.1805442 90.5116186,6.85140201 91.8616227,6.56182613 C93.2116268,6.27225024 94.540769,7.13189717 94.8303448,8.48190128 C96.4652798,16.1039757 101.513452,27.9322969 106.563774,35.0610282 C109.347573,38.9904716 112.000064,41.3621474 114.095897,41.8746534 C115.997444,42.3396493 117.780026,41.1860974 119.681236,37.3874754 C121.956944,32.8396986 119.480416,26.037777 113.398507,19.3088187 C107.93382,13.2627472 100.729493,8.74556482 96.5791313,8.5143558 L96.347499,8.50586442 C94.9669862,8.48242148 93.8668636,7.34429046 93.8903066,5.96377761 C93.9137495,4.58326477 95.0518805,3.48314224 96.4323934,3.50621736 Z" id="Path" fill="#F2D996" fill-rule="nonzero"></path>
                        <path d="M88.7177682,6.56115353 C90.0681437,6.27331486 91.3961788,7.1346712 91.6840174,8.48504677 C92.6986757,13.2452468 92.8096498,29.9102908 91.7280771,43.6261866 L91.5875048,45.3244222 C89.9384416,64.4157355 86.645693,75.5062248 79.7289462,75.5062248 C65.5332336,75.5062248 55.9069528,66.9801629 55.2723729,53.8771583 C54.6146901,40.297118 63.5362106,23.9954973 81.0858321,8.62552937 C82.1245115,7.71585339 83.7039656,7.82043133 84.6136416,8.85911073 C85.5233176,9.89779014 85.4187396,11.4772442 84.3800602,12.3869202 C67.8762927,26.8409287 59.6930249,41.7935959 60.2665195,53.6352913 C60.7680434,63.9909132 68.1241029,70.5062248 79.7289462,70.5062248 C80.0933845,70.5062248 80.6015958,70.1561746 81.2613951,69.1786946 C82.1035902,67.9309987 82.9126265,65.98229 83.6404442,63.4233822 C84.9735026,58.7365299 85.9803378,52.2213747 86.6383263,44.514038 L86.781467,42.743987 C87.7866793,29.5657603 87.6713716,13.644119 86.7938749,9.52740282 C86.5060362,8.17702725 87.3673926,6.84899221 88.7177682,6.56115353 Z" id="Path" fill="#F2D996" fill-rule="nonzero"></path>
                    </g>
                    <g id="Group-7" transform="translate(0.000000, 337.720775)">
                        <path d="M0.0195405733,137.506225 C0.516940573,134.306225 -0.929459427,132.096225 6.57814057,129.096225 C14.0858406,126.096225 102.680041,141.596225 102.680041,141.596225 C125.487041,139.746225 186.742041,109.876225 209.294041,123.596225 C216.429041,127.936225 214.011041,141.686225 211.377041,154.556225 C207.162041,158.846225 164.527041,162.596225 150.703041,159.386225 C150.703041,151.876225 149.627041,147.046225 149.627041,147.046225 C149.627041,147.046225 141.252041,152.456225 132.212041,154.556225 C113.774041,158.846225 111.188041,159.006225 54.0770406,159.006225 C8.27204057,154.716225 -0.477659427,140.706225 0.0195405733,137.506225 Z" id="Path" fill="#5F4A3D" fill-rule="nonzero"></path>
                        <path d="M133.568041,1.50622479 C138.449041,1.50622479 166.932041,16.4362248 181.704041,4.84622479 C183.325041,3.57622479 186.624041,4.61622479 186.626041,6.68622479 C186.653041,26.5762248 186.948041,61.1862248 189.931041,74.9062248 C193.092041,89.4462248 195.760041,87.3662248 198.920041,100.866225 C201.108041,110.216225 208.194041,132.026225 198.920041,132.026225 L156.621041,132.026225 C146.613041,132.026225 133.096041,143.636225 99.7690406,146.896225 C44.4480406,152.316225 25.8656406,145.116225 16.3752406,141.006225 C-7.82065943,130.536225 7.50514057,115.216225 19.8836406,109.396225 C38.0170406,100.866225 64.0060406,94.4662248 77.2250406,87.3962248 C87.5190406,81.8962248 91.0530406,80.1862248 96.3390406,74.3962248 C105.052041,64.8562248 112.707041,14.6662248 113.889041,1.55622479 C113.971041,0.646224794 115.252041,0.176224794 116.030041,0.656224794 C121.185041,3.82622479 128.729041,1.50622479 133.568041,1.50622479 Z" id="Path" fill="#DDB488" fill-rule="nonzero"></path>
                        <path d="M122.874041,73.5062248 C130.372041,71.5062248 133.284041,45.5062248 133.284041,2.00622479 C137.531041,2.00622479 147.799041,7.50622479 163.316041,8.50622479 C179.611041,8.01622479 179.343041,6.54622479 183.658041,4.10622479 C183.775041,4.03622479 183.911041,3.93622479 184.022041,3.86622479 C190.790041,-0.683775206 187.746041,72.0162248 192.603041,84.8962248 C196.524041,95.2962248 203.876041,110.896225 203.876041,129.896225 C203.876041,135.506225 165.876041,132.006225 151.876041,133.006225 C146.832041,106.116225 116.254041,100.426225 108.877041,95.5062248 C107.378041,94.5062248 116.375041,75.2362248 122.874041,73.5062248 Z" id="Path" fill="#B0865D" fill-rule="nonzero"></path>
                        <g id="Clipped" transform="translate(108.000041, 1.006225)">
                            <mask id="mask-4" fill="white">
                                <use xlink:href="#path-3"></use>
                            </mask>
                            <g id="Path"></g>
                            <g id="Group" mask="url(#mask-4)" fill-rule="nonzero">
                                <g transform="translate(15.000000, -9.000000)" id="Path">
                                    <path d="M70.998,50 L70.998,26.5 L1.497,22 L1.497,50 C5.997,51.17 18.597,53.5 32.997,53.5 C47.398,53.5 66.498,53.5 70.998,50 Z" fill="#ECCF5A"></path>
                                    <path d="M67.372,34.5 L70.872,7.5 L3.372,0 C0.039,10.5 -2.928,32.1 11.872,34.5 C26.672,36.9 55.039,35.5 67.372,34.5 Z" fill="#473E3E"></path>
                                </g>
                            </g>
                        </g>
                        <path d="M102.536041,73.6062248 C112.314041,63.2362248 118.053041,22.0062248 118.553041,1.50622479 C116.551041,1.00622479 116.051041,-0.393775206 114.549041,0.106224794 C113.047041,0.606224794 113.047041,6.60622479 112.547041,11.6062248 C111.999041,17.0862248 108.042041,34.1062248 106.040041,45.6062248 C104.038041,57.1062248 102.036041,64.1062248 94.5280406,73.6062248 C88.5210406,81.2062248 79.3830406,83.5062248 71.8750406,90.0062248 C73.8750406,89.0062248 75.8750406,88.5062248 76.8750406,88.5062248 L80.8750406,88.5062248 C83.8780406,88.5062248 90.3750406,86.5062248 102.536041,73.6062248 Z" id="Path" fill="#B0865D" fill-rule="nonzero"></path>
                        <path d="M116.050468,3.00521505 L116.220316,3.01203028 L138.192316,4.51203028 C139.569822,4.6060708 140.610276,5.79899463 140.516235,7.17650023 C140.425956,8.4989056 139.322946,9.51068423 138.016121,9.50630963 L137.851765,9.50041931 L135.469,9.337 L137.861865,10.1342684 C140.137783,10.8921137 140.124599,14.0747607 137.927086,14.8561946 L137.758179,14.9102244 L122.82,19.173 L134.710481,25.2825276 C136.780325,26.3459246 136.389044,29.3794271 134.189033,29.9284629 L134.024838,29.9641377 L121.052,32.375 L134.486338,37.6809873 C136.616639,38.5222991 136.570942,41.515088 134.495475,42.3284969 L134.327408,42.3881067 L116.83,47.966 L132.139916,55.2486172 C134.349301,56.2995542 133.876251,59.5343767 131.534012,59.9627061 L131.367577,59.9879733 L112.352,62.297 L125.675249,73.5997521 C127.521288,75.1656959 126.282411,78.1433992 123.926673,78.0033474 L123.767991,77.989342 L106.061,75.921 L117.698372,86.1265958 C119.570623,87.768457 118.150996,90.8022397 115.74439,90.4880767 L115.589458,90.4634313 L88.9144583,85.4634313 C87.5573806,85.2090588 86.6634615,83.9027202 86.917834,82.5456425 C87.1620317,81.2428479 88.3757212,80.3669003 89.6730812,80.5239615 L89.8356229,80.5490183 L107.539,83.867 L96.7267096,74.3858538 C94.9222459,72.8034386 96.1712774,69.8695321 98.5077371,70.0091947 L98.6650905,70.0231076 L116.135,72.064 L104.757833,62.4126975 C103.137604,61.0383023 103.868759,58.4258386 105.909677,58.0494799 L106.073504,58.0244763 L122.213,56.063 L108.969165,49.7638324 C106.977302,48.8163636 107.114522,45.9723968 109.112844,45.185105 L109.283673,45.1243429 L126.125,39.755 L111.126743,33.8314623 C108.846445,32.9309125 109.106614,29.6638622 111.419549,29.0850179 L111.588243,29.0483118 L125.916,26.385 L114.9076,20.729922 C112.944219,19.721221 113.170148,16.8793669 115.19573,16.1561441 L115.363902,16.1022251 L128.606,12.322 L115.260216,7.87818115 C112.58397,6.98703265 113.232782,3.13172629 115.88556,3.00806652 L116.050468,3.00521505 Z" id="Path" fill="#F2D996" fill-rule="nonzero"></path>
                        <path d="M121.315689,7.16429344 C122.332959,6.23073797 123.914416,6.29860249 124.847972,7.31587309 C125.781527,8.33314368 125.713663,9.91460067 124.696392,10.8481561 L123.836812,11.6435034 C109.838037,24.699962 91.0147939,47.2234963 86.7572782,57.0040458 C86.2061969,58.2700137 84.7331875,58.8495437 83.4672196,58.2984624 C82.2012517,57.7473811 81.6217216,56.2743717 82.172803,55.0084038 C86.865203,44.2288192 106.76534,20.5172379 121.315689,7.16429344 Z" id="Path" fill="#F2D996" fill-rule="nonzero"></path>
                        <path d="M83.2163492,55.1735987 C83.6761958,54.4845178 84.6075857,54.2986867 85.2966666,54.7585334 C85.9857476,55.2183801 86.1715787,56.1497699 85.711732,56.8388509 L85.4064827,57.3036057 C85.2444591,57.5549071 85.0869662,57.807398 84.8936624,58.1244908 L83.9663748,59.6563561 C83.6989867,60.0911265 83.4847887,60.4251795 83.208732,60.8388509 C82.7488853,61.5279318 81.8174954,61.7137629 81.1284145,61.2539162 C80.4393336,60.7940695 80.2535025,59.8626797 80.7133492,59.1735987 L81.1155917,58.557413 C81.3097816,58.2522366 81.5090658,57.9270844 81.7831544,57.4723803 L82.4587063,56.3560935 C82.7260945,55.9213231 82.9402925,55.5872701 83.2163492,55.1735987 Z" id="Path" fill="#463E35" fill-rule="nonzero"></path>
                        <path d="M125.450018,7.55428113 C126.528046,6.69159963 128.101303,6.86617305 128.963984,7.94420177 C134.395667,14.7317701 141.108799,25.4048751 144.842972,34.5622473 C145.364316,35.8407485 144.750519,37.2998116 143.472018,37.821156 C142.193517,38.3425004 140.734454,37.7287035 140.213109,36.4502023 C136.683001,27.7932615 130.215174,17.5101633 125.060097,11.0682478 C124.197415,9.9902191 124.371989,8.41696262 125.450018,7.55428113 Z" id="Path" fill="#F2D996" fill-rule="nonzero"></path>
                        <path d="M167.948597,32.6653386 C168.339507,32.3906368 168.784988,32.4853415 169.188615,32.8389417 L169.288594,32.9326714 C169.7553,33.3993771 171.193366,34.4026795 171.197936,34.4065965 C171.368139,34.5524847 171.499192,34.6982574 171.598033,34.8724638 L173.311177,35.5164873 C173.475992,35.4102843 173.653923,35.303431 173.843424,35.1966085 L174.165697,35.0204727 C174.014983,34.6773851 173.814762,34.3730531 173.581487,34.1397782 C173.182304,33.7405952 173.006008,33.3683545 173.437933,33.0231155 C173.68481,32.8257858 173.962135,32.8493713 174.383713,32.973828 C174.973738,33.1480129 175.81741,33.5621125 176.582384,34.0646276 L176.483163,33.9998354 C177.518502,33.6200264 178.473882,33.3647931 179.136015,33.3016332 L179.320047,33.2888431 L179.436041,33.2862248 C180.50944,33.2862248 182.050502,35.1876272 182.479479,36.7812601 C183.045266,38.8831349 181.582818,39.6406564 178.653414,38.4268562 C178.203511,39.0896162 177.395553,39.6089306 176.339951,39.9721531 C176.586171,40.6990939 176.321893,41.2862248 175.435041,41.2862248 C174.593505,41.2862248 173.686949,40.9927413 172.820661,40.4705722 L172.904765,40.520198 C170.915921,40.5297288 169.252586,40.0429516 168.535041,39.0862248 C167.846102,38.1676396 167.405089,36.6364401 167.323551,35.1870212 C166.620272,35.0763459 165.942873,35.0573314 165.300348,35.1346921 L165.226603,35.1445168 C165.16893,35.5644866 165.230653,36.0513947 165.403846,36.6533872 L165.474003,36.884623 C165.51073,37.0000491 165.548752,37.1133068 165.592864,37.2385076 L166.073117,38.539032 C166.502082,39.7364094 166.585024,40.2478428 166.420112,40.9074926 C166.193889,41.8123833 165.32629,41.8533429 164.403157,41.3404909 C163.675214,40.9360784 162.890097,40.197556 162.334077,39.3798798 C160.829474,37.1672278 161.311206,35.0517952 164.313773,34.3011535 C164.395448,34.2807348 164.477617,34.2618021 164.565932,34.2431845 L164.448867,34.2437042 C164.652019,33.7796989 164.983715,33.3704104 165.44973,33.0178285 L165.65769,32.8701996 L165.870692,32.7281983 L167.493116,33.3356679 C167.59369,33.0393131 167.740121,32.8118402 167.948597,32.6653386 Z M164.205106,35.4822537 L164.208,35.369 L164.168751,35.3815334 C162.27648,35.9919966 162.081767,37.2304565 163.161004,38.8175698 C163.631787,39.5098985 164.301995,40.140331 164.8888,40.4663337 C165.324744,40.7085252 165.440443,40.703063 165.449969,40.664957 C165.564473,40.2069415 165.453458,39.7318633 164.967476,38.4288567 L164.69658,37.7022368 C164.645497,37.560814 164.602058,37.4356357 164.561226,37.311786 L164.521078,37.1878266 C164.34725,36.6415105 164.240737,36.1561371 164.212595,35.7050584 L164.205106,35.4822537 Z M171.304267,36.6475443 C171.012035,37.2844417 171.736393,38.5182225 173.017555,39.4071927 L173.178,39.514 L173.19762,39.5146572 C173.727528,39.4973896 174.258766,39.4408966 174.762507,39.3490648 C174.535812,39.0903518 174.265546,38.8174152 173.967099,38.5470662 L173.866204,38.4588734 C173.634302,38.474258 173.386156,38.4462081 173.120395,38.3747129 L172.917748,38.3129454 L172.749345,38.2504631 C172.11734,37.9976612 171.814707,37.5405716 171.926437,37.019408 L171.639445,36.8418884 L171.304267,36.6475443 Z M168.342,35.406 C168.450539,36.5908827 168.81987,37.7993311 169.335041,38.4862248 C169.63972,38.8924638 170.312797,39.2041042 171.198699,39.3747213 L171.484,39.423 L171.352344,39.2868799 C170.482497,38.3540243 170.039427,37.2854891 170.320101,36.4190443 L170.377205,36.2683088 L170.417,36.185 L170.093587,36.0350505 C169.714773,35.8659664 169.335369,35.7174912 168.957986,35.5913663 L168.581374,35.4727561 L168.342,35.406 Z M175.3,37.329 L175.285212,37.3732765 C175.208168,37.5725339 175.105433,37.7508588 174.97689,37.9032158 L174.881,38.005 L175.063808,38.1595162 L175.021775,38.171215 C175.228988,38.3756263 175.417766,38.5776833 175.585244,38.7744282 L175.745515,38.9692928 L175.834,39.085 L175.870193,39.0747903 C176.454011,38.8873184 176.940147,38.652212 177.303939,38.3854724 L177.452287,38.2692654 L177.557,38.175 L175.3,37.329 Z M179.447934,34.2860833 L179.354715,34.2881827 C179.049695,34.3020906 178.61434,34.3862213 178.105009,34.5258705 L177.651639,34.6588232 L177.469,34.716 L177.481331,34.7265122 C178.436593,35.5206854 179.016762,36.3657288 179.038785,37.2074527 L179.035693,37.3757371 L179.022,37.5 L179.075303,37.5232853 C181.138783,38.4081347 181.739917,38.1887806 181.560039,37.2404616 L181.539473,37.1432138 L181.513852,37.0411895 C181.188728,35.833368 179.934788,34.2862248 179.447934,34.2860833 Z M174.365668,36.9798666 L173.451824,36.6370042 L173.313582,36.7479341 C173.518341,36.8928875 173.716752,37.0417275 173.908812,37.1933797 L174.109514,37.3565262 C174.218418,37.2771097 174.305508,37.1511603 174.365668,36.9798666 Z M176.353405,35.1195831 C176.056036,35.2374562 175.761999,35.3623508 175.478073,35.4914857 L175.374171,35.5415036 C175.409888,35.7175094 175.434465,35.8937669 175.44741,36.0684145 L175.457,36.319 L178.030038,37.284819 C178.030066,36.7069755 177.50011,35.9890322 176.561406,35.273725 L176.353405,35.1195831 Z M166.011,33.848 L165.89234,33.9457883 L165.822902,34.0088958 L165.757579,34.0728926 L165.734,34.098 L165.896667,34.0904072 C166.061099,34.0862468 166.22686,34.0871781 166.39387,34.0931215 L166.645314,34.1057857 L166.711,34.111 L166.011,33.848 Z" id="Shape" fill="#473E3E" fill-rule="nonzero"></path>
                        <path d="M152.67281,32.9594417 C153.039369,32.3943292 153.645518,32.3711605 154.183086,32.8337033 L154.289594,32.9326714 C154.7563,33.3993771 156.194366,34.4026795 156.198936,34.4065965 C156.641338,34.7857983 156.825698,35.2018152 156.738725,35.6912396 L156.729,35.733 L156.875787,35.8155075 L157.189244,36.0005508 L157.461,36.169 L157.603749,36.0390914 C157.954666,35.7328145 158.432758,35.4184447 159.013352,35.102721 L159.165,35.022 L159.130718,34.9424618 C159.015793,34.6981591 158.873828,34.4709708 158.709681,34.2779095 L158.582487,34.1397782 C158.219672,33.776963 158.059055,33.4707289 158.351285,33.1101049 C158.575622,32.8332634 158.853507,32.836204 159.270318,32.9423012 C159.722377,33.0573709 160.36935,33.3438923 161.016293,33.7158181 L161.365663,33.9250654 L161.484,33.999 L161.53875,33.979177 C162.594834,33.595924 163.601076,33.3330292 164.263981,33.2918748 L164.436041,33.2862248 C166.243595,33.2862248 166.729978,35.8717859 166.433559,38.8359767 C166.406082,39.1107486 166.161061,39.3112206 165.886289,39.2837434 C165.611517,39.2562662 165.411045,39.0112449 165.438522,38.7364729 C165.67027,36.418997 165.269063,34.2862248 164.436041,34.2862248 C164.034239,34.2862248 163.372915,34.4317263 162.617562,34.6692662 L162.475,34.715 L162.600719,34.8207039 C163.704199,35.771583 164.268578,36.8094428 163.954087,37.82048 L163.900279,37.9719201 C163.572049,38.7924949 162.699636,39.4310052 161.585299,39.8642935 L161.334,39.956 L161.365721,40.0530962 C161.559918,40.7091932 161.329561,41.2289005 160.567919,41.2817891 L160.436041,41.2862248 C159.625651,41.2862248 158.772619,41.0120422 157.997298,40.5756037 L157.909,40.524 L157.784076,40.525272 C156.049935,40.5193883 154.428856,40.1034926 153.646943,39.2219547 L153.536041,39.0862248 C152.866612,38.1936532 152.430793,36.7175372 152.332298,35.3172721 L152.325,35.186 L152.107165,35.1552636 C151.513558,35.0786903 150.933034,35.0670657 150.37539,35.1269701 L150.225,35.145 L150.211725,35.2747988 C150.182683,35.6755837 150.254286,36.1360823 150.411896,36.6776804 L150.475003,36.884623 C150.51173,37.0000491 150.549752,37.1133068 150.593864,37.2385076 L151.074117,38.539032 C151.503082,39.7364094 151.586024,40.2478428 151.421112,40.9074926 C151.194889,41.8123833 150.32729,41.8533429 149.404157,41.3404909 C148.676214,40.9360784 147.891097,40.197556 147.335077,39.3798798 C145.868089,37.2225441 146.289361,35.1576276 149.094298,34.3599908 L149.314773,34.3011535 L149.422,34.276 L149.447568,34.2156553 C149.652588,33.7582941 149.992669,33.3523055 150.487856,32.989534 L150.65869,32.8701996 C150.888455,32.7170234 151.198889,32.7791104 151.352066,33.0088747 C151.505242,33.238639 151.443155,33.5490737 151.213391,33.7022499 C151.065348,33.8009452 150.934802,33.9031507 150.820983,34.0099942 L150.733,34.097 L150.818939,34.092809 C151.230174,34.0780403 151.648426,34.0950552 152.071099,34.1418178 L152.334,34.175 L152.349728,34.0120629 C152.393133,33.6472319 152.473757,33.3364517 152.595094,33.0955041 L152.67281,32.9594417 Z M149.204,35.37 L149.169751,35.3815334 C147.27748,35.9919966 147.082767,37.2304565 148.162004,38.8175698 C148.632787,39.5098985 149.302995,40.140331 149.8898,40.4663337 C150.325744,40.7085252 150.441443,40.703063 150.450969,40.664957 C150.565473,40.2069415 150.454458,39.7318633 149.968476,38.4288567 L149.69758,37.7022368 C149.62947,37.513673 149.574947,37.3539885 149.522078,37.1878266 C149.340497,36.6171454 149.231964,36.0948593 149.209101,35.6158327 L149.204,35.37 Z M156.306,36.643 C155.964082,37.3627605 156.860956,38.6256848 158.098949,39.4594827 L158.19,39.519 L158.209885,39.5183256 C158.713399,39.4977634 159.223195,39.4424006 159.713572,39.3543352 L159.758,39.345 L159.68416,39.2612581 C159.475726,39.0307411 159.232368,38.7891876 158.961284,38.5444961 L158.861,38.456 L158.791458,38.4603559 C158.52224,38.4670704 158.226909,38.418975 157.910363,38.3100328 L157.750345,38.2504631 C157.130538,38.0025404 156.847998,37.5731418 156.912512,37.0991732 L156.928,37.015 L156.651386,36.8445297 L156.306,36.643 Z M153.344,35.403 L153.3583,35.5588036 C153.482237,36.6859872 153.841532,37.8268804 154.336041,38.4862248 C154.688169,38.95573 155.408111,39.2580599 156.290253,39.4099982 L156.509,39.443 L156.498703,39.4328173 C155.508226,38.428823 154.959514,37.2026807 155.386222,36.2506782 L155.421,36.18 L155.138845,36.048903 C154.630517,35.8199117 154.119933,35.6284074 153.612763,35.4781981 L153.344,35.403 Z M161.489901,35.2176636 L161.354,35.119 L161.299952,35.1412196 C161.030368,35.2489876 160.760552,35.3636818 160.496634,35.4833223 L160.373,35.54 L160.401626,35.6792416 C160.453384,35.9826876 160.471644,36.2856592 160.4528,36.575288 L160.431655,36.7898067 C160.363869,37.2982002 160.178168,37.7102421 159.897239,37.9979833 L159.87,38.023 L160.074578,38.2224285 C160.341349,38.4888108 160.576039,38.7504106 160.771376,38.999793 L160.834,39.082 L160.884181,39.0672552 C161.837866,38.7615106 162.599842,38.3104525 162.908692,37.7354202 L162.971802,37.6005295 C163.227219,36.9619884 162.635331,36.0700471 161.489901,35.2176636 Z M159.437,36.01 L159.292449,36.0919407 C158.948877,36.2876986 158.65681,36.4783311 158.428093,36.6555389 L158.315,36.746 L158.418275,36.8198293 C158.596664,36.950005 158.770215,37.0822378 158.938018,37.2155985 L159.112,37.356 L159.159689,37.3212442 C159.288016,37.2072139 159.3725,37.0269456 159.419828,36.784203 L159.440427,36.6576429 C159.463946,36.4812502 159.466104,36.2929527 159.448953,36.0999274 L159.437,36.01 Z M153.497,33.529 L153.47394,33.5738794 C153.413228,33.7070812 153.364773,33.9193314 153.33697,34.1870423 L153.322,34.363 L153.349785,34.3693122 C153.993164,34.5256448 154.64065,34.7443286 155.28348,35.0184922 L155.417,35.077 L155.08197,34.8387482 C154.650497,34.5261788 154.024294,34.055423 153.666166,33.720507 L153.582487,33.6397782 C153.54501,33.6023008 153.522336,33.5743059 153.509285,33.5535815 L153.497,33.529 Z" id="Path" fill="#473E3E" fill-rule="nonzero"></path>
                        <path d="M142.35722,34.664584 C143.098188,34.2941001 143.999197,34.5944367 144.369681,35.3354044 L144.558545,35.6941564 C144.63049,35.8248245 144.714138,35.9714269 144.817622,36.1485147 L145.903857,37.9767463 C146.103916,38.3219084 146.23825,38.5690737 146.371144,38.8343317 C146.742221,39.575003 146.442605,40.4762524 145.701934,40.8473287 C144.961262,41.218405 144.060013,40.9187891 143.688937,40.1781179 L143.552162,39.9153572 C143.40273,39.6383126 143.204761,39.299552 142.863196,38.7292998 L142.291762,37.7720283 C142.012056,37.2968798 141.847524,36.9992939 141.6864,36.6770452 C141.315916,35.9360774 141.616252,35.0350679 142.35722,34.664584 Z" id="Path" fill="#463E35" fill-rule="nonzero"></path>
                        <path d="M8.78464057,151.776225 C5.24024057,150.946225 6.43554057,144.996225 7.86334057,141.086225 C10.7970406,141.936225 16.7230406,145.346225 16.6705406,147.836225 C16.5375406,154.146225 13.2150406,152.806225 8.78464057,151.776225 Z" id="Path" fill="#5F4A3D" fill-rule="nonzero"></path>
                        <path d="M1.65544057,145.046225 C0.348040573,144.346225 0.907040573,137.026225 2.87494057,133.186225 C7.53644057,134.246225 9.89814057,139.756225 9.89814057,139.756225 C9.89814057,139.756225 11.3433406,143.806225 8.18644057,146.226225 C6.90634057,146.696225 3.64004057,146.096225 1.65544057,145.046225 Z" id="Path" fill="#5F4A3D" fill-rule="nonzero"></path>
                        <path d="M17.1285406,156.336225 C13.1721406,155.546225 15.0938406,147.496225 16.5492406,143.576225 C19.8293406,144.406225 26.2603406,147.306225 25.7427406,152.336225 C25.0957406,158.626225 22.0740406,157.336225 17.1285406,156.336225 Z" id="Path" fill="#5F4A3D" fill-rule="nonzero"></path>
                        <path d="M28.0135406,159.646225 C23.6311406,159.256225 24.8180406,151.056225 25.9593406,147.006225 C29.6111406,147.496225 36.9150406,149.726225 36.9150406,154.786225 C36.9150406,161.106225 33.4917406,160.126225 28.0135406,159.646225 Z" id="Path" fill="#5F4A3D" fill-rule="nonzero"></path>
                        <path d="M39.5440406,161.646225 C34.4315406,161.256225 35.8162406,153.056225 37.1480406,149.006225 C41.4080406,149.496225 49.9290406,151.726225 49.9290406,156.786225 C49.9290406,163.106225 45.9360406,162.126225 39.5440406,161.646225 Z" id="Path" fill="#5F4A3D" fill-rule="nonzero"></path>
                        <path d="M52.0360406,163.646225 C47.6540406,163.256225 48.8400406,155.056225 49.9820406,151.006225 C53.6340406,151.496225 60.9370406,153.726225 60.9370406,158.786225 C60.9370406,165.106225 57.5140406,164.126225 52.0360406,163.646225 Z" id="Path" fill="#5F4A3D" fill-rule="nonzero"></path>
                        <path d="M63.5670406,164.646225 C58.4540406,164.256225 59.8390406,156.056225 61.1700406,152.006225 C65.4310406,152.496225 73.9510406,154.726225 73.9510406,159.786225 C73.9510406,166.106225 69.9580406,165.126225 63.5670406,164.646225 Z" id="Path" fill="#5F4A3D" fill-rule="nonzero"></path>
                        <path d="M76.5850406,165.646225 C71.4720406,165.256225 72.8570406,157.056225 74.1880406,153.006225 C78.4490406,153.496225 86.9700406,155.726225 86.9700406,160.786225 C86.9700406,167.106225 82.9760406,166.126225 76.5850406,165.646225 Z" id="Path" fill="#5F4A3D" fill-rule="nonzero"></path>
                        <path d="M89.8020406,166.276225 C85.4040406,166.376225 85.6650406,158.096225 86.3450406,153.946225 C87.8240406,153.976225 93.7250406,152.286225 95.7400406,152.886225 C98.7450406,153.796225 97.7640406,157.446225 98.1030406,160.456225 C98.8110406,166.736225 95.3010406,166.146225 89.8020406,166.276225 Z" id="Path" fill="#5F4A3D" fill-rule="nonzero"></path>
                        <path d="M101.522041,165.276225 C97.1230406,165.376225 97.3840406,157.096225 98.0650406,152.946225 C99.5430406,152.976225 105.445041,151.286225 107.459041,151.886225 C110.464041,152.796225 109.483041,156.446225 109.822041,159.456225 C110.530041,165.736225 107.020041,165.146225 101.522041,165.276225 Z" id="Path" fill="#5F4A3D" fill-rule="nonzero"></path>
                        <path d="M112.534041,163.926225 C108.135041,164.026225 108.396041,155.746225 109.077041,151.596225 C110.555041,151.626225 116.457041,149.926225 118.471041,150.536225 C121.476041,151.446225 120.496041,155.086225 120.835041,158.096225 C121.542041,164.376225 118.032041,163.796225 112.534041,163.926225 Z" id="Path" fill="#5F4A3D" fill-rule="nonzero"></path>
                        <path d="M123.546041,161.926225 C119.148041,162.026225 119.409041,153.746225 120.089041,149.596225 C121.567041,149.626225 127.469041,147.926225 129.483041,148.536225 C132.488041,149.446225 131.508041,153.086225 131.847041,156.096225 C132.555041,162.376225 129.044041,161.796225 123.546041,161.926225 Z" id="Path" fill="#5F4A3D" fill-rule="nonzero"></path>
                        <path d="M133.558041,158.926225 C129.159041,159.026225 129.420041,150.746225 130.101041,146.596225 C131.579041,146.626225 137.481041,144.926225 139.495041,145.536225 C142.500041,146.446225 141.520041,150.086225 141.859041,153.096225 C142.566041,159.376225 139.056041,158.796225 133.558041,158.926225 Z" id="Path" fill="#5F4A3D" fill-rule="nonzero"></path>
                        <path d="M143.570041,156.926225 C139.171041,157.026225 139.432041,148.746225 140.112041,144.596225 C141.591041,144.626225 147.492041,142.926225 149.507041,143.536225 C152.512041,144.446225 151.531041,148.086225 151.870041,151.096225 C152.578041,157.376225 149.068041,156.796225 143.570041,156.926225 Z" id="Path" fill="#5F4A3D" fill-rule="nonzero"></path>
                        <path d="M209.776501,130.173857 L210.52358,130.838592 L210.191136,131.203803 C206.40229,135.269744 201.823979,136.878189 189.266172,138.910035 L188.706951,138.999959 C180.541637,140.304973 165.511809,140.073474 153.22613,139.061433 L152.644,139.012 L149.837345,139.875101 C145.666557,141.145675 139.656233,142.937962 132.857541,144.923056 L129.203305,145.986439 C113.502443,150.53976 87.2003171,153.006225 53.8770406,153.006225 C32.1752776,153.006225 11.1466887,145.914999 4.20116136,138.067425 L3.99501535,137.829394 L4.75806579,137.183055 C11.2652444,144.865256 32.2228026,152.006225 53.8770406,152.006225 L55.9031594,152.003156 C88.1797915,151.905009 113.651894,149.455216 128.92477,145.026013 L137.076056,142.64404 C142.405926,141.074583 147.019136,139.691808 150.303298,138.687336 L152.440565,138.028778 L152.631604,138.00804 L154.674639,138.173234 C166.616794,139.08549 180.784194,139.253516 188.549125,138.012492 L189.63904,137.836181 C201.580701,135.880019 205.91685,134.321021 209.461046,130.520285 L209.776501,130.173857 Z" id="Path" fill-opacity="0.2" fill="#B0865D" fill-rule="nonzero"></path>
                        <path d="M117.566589,3.50621736 C118.947102,3.48313997 120.085235,4.58326057 120.10868,5.96377337 C120.131188,7.28906566 119.118217,8.39098063 117.815754,8.49775624 L117.651492,8.50586434 C113.542471,8.57564791 106.168999,13.1486984 100.60123,19.3088187 C94.5192637,26.0378405 92.0424748,32.839834 94.3176612,37.3872966 C96.2189622,41.1860998 98.0015446,42.3396503 99.903108,41.8746527 C101.998958,41.3621451 104.651479,38.9904704 107.435353,35.0610073 C112.485658,27.9324542 117.534093,16.1042986 119.169678,8.48173436 C119.459346,7.13175003 120.788547,6.27219387 122.138531,6.56186193 C123.488515,6.85153 124.348071,8.18073089 124.058403,9.53071522 C122.28425,17.7990734 116.96789,30.2549597 111.515228,37.9514423 C108.096666,42.7767744 104.645866,45.8622075 101.090786,46.7315469 C96.5919466,47.8316678 92.6899969,45.3066254 89.8462588,39.6248311 C86.4094519,32.7556135 89.5815046,24.0442205 96.8918516,15.9561309 C103.297355,8.86915066 111.785518,3.60476527 117.566589,3.50621736 Z" id="Path" fill="#F2D996" fill-rule="nonzero"></path>
                        <path d="M122.317906,8.48534548 C122.605579,7.13493476 123.933509,6.27341618 125.28392,6.56108988 C126.634331,6.84876358 127.495849,8.17669339 127.208175,9.52710411 C126.308855,13.7487345 126.210778,30.3801808 127.299899,43.7393333 L127.431508,45.2807673 C128.090084,52.6537397 129.073895,58.8927749 130.362525,63.4233758 C131.090351,65.982288 131.899392,67.9309968 132.741588,69.1786928 C133.40139,70.1561742 133.909602,70.5062248 134.274041,70.5062248 C145.878895,70.5062248 153.23493,63.9909078 153.736341,53.6353181 C154.309709,41.7936032 146.126157,26.8409386 129.621952,12.3869426 C128.58326,11.4772807 128.478661,9.89782799 129.388323,8.85913625 C130.297985,7.8204445 131.877437,7.71584514 132.916129,8.62550703 C150.466203,23.9954501 159.388028,40.2970596 158.73049,53.8771315 C158.096051,66.9801342 148.469778,75.5062248 134.274041,75.5062248 C127.286741,75.5062248 123.997781,64.1884683 122.365394,44.737525 L122.316433,44.1456162 C121.190509,30.3350374 121.290929,13.3062245 122.317906,8.48534548 Z" id="Path" fill="#F2D996" fill-rule="nonzero"></path>
                    </g>
                    <ellipse id="Oval" fill="#4E607A" fill-rule="nonzero" cx="213.002041" cy="94.158" rx="100.994" ry="36.1482"></ellipse>
                    <polygon id="Path" fill="#4E607A" fill-rule="nonzero" points="71.1780406 3.97903932e-13 206.178041 3.97903932e-13 199.002041 309.517 191.002041 337.727 114.502041 333.727 102.888041 303.027"></polygon>
                    <polygon id="Path" fill="#4E607A" fill-rule="nonzero" points="204.892041 6.022 340.350041 6.022 334.263041 303.727 323.263041 332.727 245.263041 346.147 238.001041 311.727"></polygon>
                    <polygon id="Path" fill="#899099" fill-rule="nonzero" points="108.678041 324.727 200.178041 324.727 198.502041 332.957 195.178041 348.727 175.178041 355.207 115.002041 354.457 114.002041 349.957 112.678041 343.457 111.002041 335.957"></polygon>
                    <polygon id="Path" fill="#899099" fill-rule="nonzero" points="241.002041 327.727 328.002041 329.227 328.002041 342.727 328.002041 352.227 304.678041 354.977 281.678041 354.977 238.678041 349.977"></polygon>
                </g>
                <g id="upper-limb" transform="translate(0.081526, 394.307000)">
                    <path d="M70.6757818,203.092912 C79.9707827,184.894747 102.258397,177.677307 120.456562,186.972307 C138.654727,196.267308 145.872168,218.554923 136.577167,236.753088 C123.690698,261.982789 110.086091,312.836865 102.980355,362.066403 L102.767026,363.557681 C99.3897252,387.381838 97.8606304,408.731519 98.3917311,424.395068 L98.4190382,425.14853 C98.6264056,430.519725 99.076235,434.889327 99.6488493,437.982477 L99.774,438.631 L99.8058828,438.666407 C110.313003,450.694959 112.126642,468.613607 103.218612,482.732293 L102.887921,483.247117 C91.705195,500.350242 68.7749819,505.149673 51.671857,493.966947 C39.4494917,485.975462 32.7677191,474.295616 28.8435588,460.03816 C26.3087357,450.828514 24.9447262,440.19275 24.4741261,428.003345 C23.6745535,407.292953 25.4947524,381.421942 29.4995474,353.171319 C37.5933429,296.076068 53.2917394,237.128161 70.6757818,203.092912 Z" id="Path" fill="#EBBAAA" fill-rule="nonzero"></path>
                    <path d="M408.461466,164.960867 C426.259467,154.920878 448.826618,161.20999 458.866607,179.007991 C482.563937,221.016514 500.055599,280.370314 509.084805,342.405841 C517.682731,401.478239 517.506389,454.900561 506.690988,484.644062 C499.707865,503.848391 478.478741,513.755636 459.274412,506.772513 C440.262126,499.859222 430.361913,478.983424 436.941527,459.932659 L437.145961,459.355938 C442.678321,444.141359 442.821008,400.914826 435.856394,353.064159 C428.033824,299.318877 413.004843,248.321599 394.414341,215.366009 C384.374352,197.568007 390.663464,175.000856 408.461466,164.960867 Z" id="Path" fill="#EBBAAA" fill-rule="nonzero"></path>
                    <rect id="Rectangle" fill="#F1EDED" fill-rule="nonzero" transform="translate(118.251532, 195.444298) rotate(18.000000) translate(-118.251532, -195.444298) " x="63.3155318" y="187.100798" width="109.872" height="16.687"></rect>
                    <rect id="Rectangle" fill="#F1EDED" fill-rule="nonzero" transform="translate(426.832950, 218.062018) rotate(162.000000) translate(-426.832950, -218.062018) " x="371.89695" y="209.718518" width="109.872" height="16.687"></rect>
                    <path d="M139.873474,125.707 C140.708474,91.291 197.012474,58.816 231.418474,57.693 L282.989474,59.751 C289.534474,59.545 296.089474,59.885 302.572474,60.782 L380.979474,71.625 C415.570474,76.408 440.184474,107.68 436.700474,142.425 L421.868474,290.313 L429.310474,502.189 C429.382474,504.003 343.134474,502.282 341.320474,502.189 L202.664474,502.189 L123.855474,490.294 C122.114474,490.201 120.784474,488.686 120.928474,486.944 L136.327474,271.894 L139.873474,125.707 Z" id="Path" fill="#1D2C43" fill-rule="nonzero"></path>
                    <polygon id="Path" fill="#121B2B" fill-rule="nonzero" points="165.551704 487.698928 243.995 494.693 308.918474 494.693 308.918474 497.693 243.918474 497.693 243.785245 497.687072 165.285245 490.687072"></polygon>
                    <path d="M270.918474,149.693 C310.682474,149.693 342.918474,127.979 342.918474,101.193 C342.918474,74.407 310.682474,52.693 270.918474,52.693 C231.153474,52.693 198.918474,74.407 198.918474,101.193 C198.918474,127.979 231.153474,149.693 270.918474,149.693 Z" id="Path" fill="#121B2B" fill-rule="nonzero"></path>
                    <rect id="Rectangle" fill="#EBBAAA" fill-rule="nonzero" x="230.918474" y="0" width="88" height="119" rx="37.911"></rect>
                    <rect id="Rectangle" fill="#16131B" fill-rule="nonzero" transform="translate(122.804999, 248.085640) rotate(16.500000) translate(-122.804999, -248.085640) " x="48.9489994" y="68.2641403" width="147.712" height="359.643" rx="73.856"></rect>
                    <path d="M18.1194743,455 C11.7194743,436.6 12.5404429,364.515828 20.5403429,334.515828 L132.119474,337 C128.918474,383.193 124.418474,426.693 108.918474,474 L108.765474,474.007 C87.6193743,475.014 26.1000743,477.944 18.1194743,455 Z" id="Path" fill="#16131B" fill-rule="nonzero"></path>
                    <polygon id="Path" fill="#413A4E" fill-rule="nonzero" opacity="0.2" points="44.9184743 316 117.418474 338 38.4184743 330.5"></polygon>
                    <polygon id="Path" fill="#413A4E" fill-rule="nonzero" opacity="0.2" points="62.9184743 345 118.918474 342 70.4184743 357.5"></polygon>
                    <rect id="Rectangle" fill="#16131B" fill-rule="nonzero" transform="translate(419.817894, 256.293726) scale(-1, 1) rotate(18.999984) translate(-419.817894, -256.293726) " x="340.825366" y="62.139658" width="157.985055" height="388.308136" rx="78.9925"></rect>
                    <path d="M243.918474,331.193 C243.123474,264.037 249.918474,151.345 249.918474,119.193 C243.918474,116.693 233.418474,103.193 228.418474,100.193 C223.418474,97.193 230.918474,84.193 230.918474,56.693 L145.032474,73.165 C131.710474,91.498 108.273474,146.272 104.511474,251.19 C101.522474,334.57 110.804474,391.254 110.703474,445.193 C110.677474,459.126 110.703474,479.693 111.918474,507.693 C128.418474,510.193 196.205474,516.193 249.205474,516.193 C252.918474,451.693 245.093474,430.611 243.918474,331.193 Z" id="Path" fill="#1B1821" fill-rule="nonzero"></path>
                    <path d="M190.918474,511.693 C172.918474,511.693 134.918474,508.752 111.918474,505.709 L112.418474,517.693 C125.418474,521.497 162.025474,522.627 180.418474,523.384 C198.918474,524.145 223.418474,523.384 249.418474,522.359 L249.418474,511.693 L190.918474,511.693 Z" id="Path" fill="#09090C" fill-rule="nonzero"></path>
                    <path d="M532.919474,459 C539.319474,440.6 540.919474,376 532.919474,346 L418.919474,341 C431.120474,379 416.919474,418 425.919474,467 C446.919474,468 524.919474,482 532.919474,459 Z" id="Path" fill="#16131B" fill-rule="nonzero"></path>
                    <polygon id="Path" fill="#413A4E" fill-rule="nonzero" opacity="0.2" points="499.419474 307 426.919474 329 505.919474 321.5"></polygon>
                    <polygon id="Path" fill="#413A4E" fill-rule="nonzero" opacity="0.2" points="485.919474 339 429.919474 336 478.419474 351.5"></polygon>
                    <path d="M302.918474,331.193 C302.918474,234.986 301.418474,190.193 301.418474,173.193 C301.418474,156.193 299.418474,134.193 299.418474,122.693 C309.417474,101.386 321.918474,94.693 318.918474,60.193 L381.828474,65.774 C397.744474,67.186 411.848474,75.999 415.160474,91.629 C421.971474,123.766 426.014474,181.858 432.356474,257.124 C438.918474,335 435.659474,400.546 438.918474,454 C439.935474,470.672 438.920474,499.693 438.921474,513.193 C410.162474,517.287 345.918474,525.693 290.918474,521.193 C296.919474,466.468 302.918474,427.4 302.918474,331.193 Z" id="Path" fill="#1B1821" fill-rule="nonzero"></path>
                    <path d="M346.918474,513.193 C369.418474,513.193 416.418474,512.693 438.918474,511.693 L438.918474,524.193 C419.092474,526.193 390.422474,526.193 374.339474,526.193 L373.918474,526.193 C341.655474,526.193 326.918474,527.693 288.918474,520.693 L290.918474,509.193 C304.918474,510.404 324.508474,513.193 346.918474,513.193 Z" id="Path" fill="#09090C" fill-rule="nonzero"></path>
                    <path d="M233.92193,114.561603 L238.915019,114.824397 L238.260292,126.859029 C237.889286,133.50278 237.448834,141.161628 236.921006,150.175066 L232.963792,217.011328 C229.232042,280.687495 227.564607,314.632815 227.905271,325.27054 L228.035943,328.646863 C228.234824,333.488619 228.484892,338.175812 229.268923,350.995083 L232.411344,401.539368 C234.410203,434.11512 235.373626,453.01876 235.414139,463.044759 L235.415151,464.107122 C235.407388,469.072936 235.25919,473.932811 234.921042,481.414698 L234.480678,490.823902 C233.804282,505.718638 233.71692,512.956539 234.322582,520.475751 L234.406799,521.473265 L229.42615,521.912735 L229.338853,520.879635 C228.720159,513.212206 228.796149,505.951549 229.453997,491.301003 L229.925449,481.204108 C230.23291,474.402541 230.381728,469.799199 230.410312,465.320015 L230.415141,463.376644 L230.407258,462.0599 C230.317511,452.709886 229.491011,436.085636 227.852127,408.932212 L226.723082,390.586657 L224.108903,348.521828 C223.492349,338.36057 223.253962,333.904662 223.073986,329.664277 L222.920252,325.787273 C222.532266,315.505642 224.111456,282.83358 227.735796,220.762093 L232.657503,137.344852 C232.983569,131.669976 233.267464,126.632429 233.516242,122.098639 L233.92193,114.561603 Z" id="Path" fill="#09090C" fill-rule="nonzero"></path>
                    <path d="M225.40993,106.561603 L230.403019,106.824397 L230.078289,112.785036 C229.356472,125.605174 228.355674,140.76118 226.552102,166.346905 L221.250833,240.6921 C217.472156,294.348888 216.160967,316.9471 216.443781,325.785239 L216.573943,329.146863 C216.772824,333.988619 217.022892,338.675812 217.806923,351.495083 L220.949344,402.039368 C222.948203,434.61512 223.911626,453.51876 223.952139,463.544759 L223.953152,464.60711 C223.944961,469.84865 223.780384,474.971766 223.401164,483.186228 L222.989753,491.974156 C222.321317,506.862039 222.260753,513.986093 222.916822,521.640122 L222.945799,521.973265 L217.96515,522.412735 L217.877848,521.379578 C217.24064,513.482832 217.34013,506.017409 218.052964,490.467159 L218.491173,481.091582 C218.779908,474.623144 218.920611,470.163284 218.948314,465.819973 L218.953141,463.876644 L218.945258,462.5599 C218.855511,453.209886 218.029011,436.585636 216.390127,409.432212 L215.261082,391.086657 L212.646903,349.021828 C212.030349,338.86057 211.791962,334.404662 211.611986,330.164277 L211.458252,326.287273 C211.072145,316.05542 212.840539,287.8869 218.220693,212.817541 L220.642003,179.011681 C223.2708,142.084255 224.472201,124.031978 225.316407,108.320178 L225.40993,106.561603 Z" id="Path" fill="#09090C" fill-rule="nonzero"></path>
                    <path d="M302.461403,121.79118 L307.457546,121.59482 L307.684136,127.706226 C308.364854,147.163603 308.856128,171.653693 309.218248,201.400315 L309.350054,212.97606 C309.432819,220.754942 309.508062,228.870352 309.580026,237.626106 L310.086289,304.581331 C310.176956,313.462241 310.270216,319.121066 310.386874,322.6915 L310.418696,323.598727 C311.38844,349.296944 307.820509,441.473454 304.987567,467.22022 L304.426419,472.160168 C304.320847,473.102642 304.21435,474.062786 304.104936,475.057887 L302.442801,490.44527 C301.806325,496.246317 301.282208,500.640859 300.701209,504.918366 C299.9709,510.295141 299.166519,515.325664 298.200592,520.45582 L297.872513,522.170174 L292.964436,521.215826 C293.950346,516.145431 294.767981,511.221143 295.504195,505.998101 L295.746703,504.245412 C296.27106,500.38492 296.749679,496.418481 297.310154,491.372028 L299.178895,474.111634 C299.382388,472.265163 299.576685,470.532199 299.77476,468.800033 L299.934989,467.406119 C302.695485,443.50888 306.246888,353.203736 305.474959,325.409743 L305.328894,320.729827 C305.23839,317.127 305.161708,311.989992 305.08694,304.674463 L304.556097,234.773994 C304.459148,223.289522 304.355541,212.883697 304.235228,202.836841 L304.079121,190.730659 C303.715157,164.497581 303.235125,142.71986 302.592178,125.231673 L302.461403,121.79118 Z" id="Path" fill="#09090C" fill-rule="nonzero"></path>
                    <path d="M311.961403,121.79118 L316.957546,121.59482 L317.184136,127.706226 C317.864854,147.163603 318.356128,171.653693 318.718248,201.400315 L318.850054,212.97606 C318.932819,220.754942 319.008062,228.870352 319.080026,237.626106 L319.586289,304.581331 C319.676956,313.462241 319.770216,319.121066 319.886874,322.6915 L319.918696,323.598727 C320.88844,349.296944 317.320509,441.473454 314.487567,467.22022 L312.017885,488.899776 L311.528837,493.028252 C310.7965,499.10477 310.134575,504.084951 309.401568,508.95118 C308.736321,513.367571 308.021401,517.609039 307.220919,521.851435 L306.872513,523.670174 L301.964436,522.715826 C302.894116,517.934612 303.707347,513.185455 304.457345,508.206425 L304.645033,506.947208 C305.390256,501.894105 306.073549,496.615367 306.854246,490.002312 L309.434989,467.406119 C312.195485,443.50888 315.746888,353.203736 314.974959,325.409743 L314.828894,320.729827 C314.73839,317.127 314.661708,311.989992 314.58694,304.674463 L314.056097,234.773994 C313.959148,223.289522 313.855541,212.883697 313.735228,202.836841 L313.579121,190.730659 C313.215157,164.497581 312.735125,142.71986 312.092178,125.231673 L311.961403,121.79118 Z" id="Path" fill="#09090C" fill-rule="nonzero"></path>
                    <path d="M297.460632,121.751908 L300.458317,121.634092 L300.653253,126.848372 C301.307794,145.251087 301.789314,168.23163 302.150007,195.981984 L302.350112,212.98685 C302.437465,221.196988 302.51644,229.782159 302.592024,239.099631 L303.086419,304.599958 C303.172296,313.009827 303.26054,318.532411 303.368902,322.133677 L303.419407,323.636436 C304.387247,349.28418 300.821241,441.410232 297.99401,467.10689 L295.44935,490.169769 L294.997695,494.157064 C294.584624,497.727053 294.203587,500.78999 293.797026,503.78112 C293.050539,509.273134 292.227606,514.412438 291.230027,519.707731 L290.890897,521.479304 L287.946051,520.906696 C289.08767,515.035514 290.002356,509.424677 290.82436,503.377069 L291.067662,501.555032 C291.469621,498.490842 291.857847,495.259126 292.292194,491.406732 L294.747858,469.102817 L294.928383,467.520872 C297.694598,443.574132 301.24802,353.219048 300.474358,325.375093 L300.316713,320.220387 C300.202388,315.433531 300.109778,308.073159 300.013913,296.78646 L299.556059,234.76536 C299.459101,223.27986 299.355484,212.872954 299.235156,202.824866 L299.079008,190.715609 C298.727082,165.350376 298.26664,144.148448 297.655262,126.95819 L297.460632,121.751908 Z" id="Path" fill="#7B7E8C" fill-rule="nonzero"></path>
                    <path d="M214.92193,90.0616029 L219.915019,90.3243971 L219.64925,95.2153814 C218.715136,111.889802 217.257614,132.897357 214.039276,176.890274 L210.353471,227.204777 C205.840209,289.349682 204.207292,315.553786 204.44695,324.968861 L204.585943,328.646863 C204.784824,333.488619 205.034892,338.175812 205.818923,350.995083 L208.961344,401.539368 C210.960203,434.11512 211.923626,453.01876 211.964139,463.044759 L211.965151,464.107122 C211.957388,469.072936 211.80919,473.932811 211.471042,481.414698 L211.030678,490.823902 C210.354282,505.718638 210.26692,512.956539 210.872582,520.475751 L210.956799,521.473265 L205.97615,521.912735 L205.888853,520.879635 C205.270159,513.212206 205.346149,505.951549 206.003997,491.301003 L206.475449,481.204108 C206.78291,474.402541 206.931728,469.799199 206.960312,465.320015 L206.965141,463.376644 L206.957258,462.0599 C206.867511,452.709886 206.041011,436.085636 204.402127,408.932212 L203.273082,390.586657 L200.658903,348.521828 C200.042349,338.36057 199.803962,333.904662 199.623986,329.664277 L199.470252,325.787273 C199.118599,316.46847 200.782175,289.785843 205.674991,222.599727 L210.48534,156.847491 C212.961485,122.632198 214.104132,105.478131 214.890253,90.6610513 L214.92193,90.0616029 Z" id="Path" fill="#09090C" fill-rule="nonzero"></path>
                    <path d="M235.918474,88.193 C229.518474,77.393 231.418474,63.693 230.918474,56.193 L215.916474,59.693 C215.916474,59.693 208.915474,84.193 222.415474,106.693 C229.887474,119.146 253.923474,128.762 264.540474,131.618 C265.764474,131.948 266.916474,131.003 266.916474,129.735 L266.916474,112.181 C266.916474,111.298 266.340474,110.525 265.507474,110.233 C256.864474,107.2 241.974474,98.413 235.918474,88.193 Z" id="Path" fill="#09090C" fill-rule="nonzero"></path>
                    <path d="M311.418474,97.193 C320.618474,87.993 318.918474,69.693 318.918474,59.693 L333.418474,61.193 C334.751474,67.026 337.418474,84.893 331.418474,103.693 C325.651474,121.762 300.025474,132.348 285.611474,133.145 C284.632474,133.199 283.802474,132.482 283.645474,131.514 L280.732474,113.62 C280.557474,112.548 281.267474,111.536 282.329474,111.312 C290.480474,109.587 302.914474,105.697 311.418474,97.193 Z" id="Path" fill="#09090C" fill-rule="nonzero"></path>
                    <circle id="Oval" fill="#C4C4C4" fill-rule="nonzero" cx="256.418474" cy="118.193" r="3.5"></circle>
                    <circle id="Oval" fill="#C4C4C4" fill-rule="nonzero" cx="295.418474" cy="120.193" r="4.5"></circle>
                    <circle id="Oval" fill="#ECECEC" fill-rule="nonzero" cx="255.418474" cy="118.193" r="2.5"></circle>
                    <g id="Group-8" transform="translate(283.550024, 470.698476)">
                        <path d="M13.34645,0.711523788 L8.13645,0.0335237879 C6.73045,-0.149476212 5.33245,0.425523788 4.46245,1.54352379 L2.68845,3.82452379 C1.94245,4.78352379 1.67345,6.02852379 1.95545,7.21052379 L4.62845,18.3935238 C5.01445,20.0075238 6.35745,21.2165238 8.00245,21.4305238 L8.54145,21.5005238 C10.21745,21.7185238 11.85045,20.8595238 12.61945,19.3535238 L17.74245,9.32852379 C18.30845,8.22052379 18.32645,6.91152379 17.79045,5.78752379 L16.44045,2.95652379 C15.85645,1.73152379 14.69145,0.886523788 13.34645,0.711523788 Z" id="Path" fill="#C4C4C4" fill-rule="nonzero"></path>
                        <path d="M13.71045,10.4085238 L5.50145,9.34052379 L4.04445,14.9585238 L0.271449999,28.1685238 C-0.900550001,32.2685238 1.84945,36.4505238 6.07745,37.0005238 C10.30545,37.5505238 14.03245,34.2115238 13.94945,29.9485238 L13.68145,16.2125238 L13.71045,10.4085238 Z M5.47045,16.7195238 L6.90045,11.5775238 L12.17845,12.2645238 L12.20645,17.5955238 L5.47045,16.7195238 Z M4.76745,31.8385238 L8.63645,32.3415238 C10.49445,32.5835238 12.10945,31.0665238 11.98445,29.1965238 C11.88945,27.7815238 10.80845,26.6315238 9.40245,26.4485238 L5.53445,25.9455238 C4.15345,25.7655238 2.83245,26.5695238 2.35745,27.8785238 C1.70945,29.6655238 2.88245,31.5935238 4.76745,31.8385238 Z" id="Shape" fill="#DCDCDC"></path>
                        <path d="M7.66545,8.52252379 L7.51945,12.9995238 C7.48845,13.9525238 8.18645,14.7725238 9.13045,14.8955238 C10.07545,15.0185238 10.95945,14.4035238 11.17345,13.4755238 L12.17845,9.10952379 C12.48145,7.79352379 11.58445,6.50352379 10.24545,6.32952379 C8.90645,6.15552379 7.70845,7.17252379 7.66545,8.52252379 Z" id="Path" fill="#B3AFAF" fill-rule="nonzero"></path>
                    </g>
                </g>
                <g id="hand" transform="translate(86.878900, 0.515825)">
                    <path d="M340.0001,322.791175 C362.0911,322.791175 380.0001,304.882175 380.0001,282.791175 C380.0001,260.699175 362.0911,242.791175 340.0001,242.791175 C317.9091,242.791175 300.0001,260.699175 300.0001,282.791175 C300.0001,304.882175 317.9091,322.791175 340.0001,322.791175 Z" id="Path" fill="#C99584" fill-rule="nonzero" opacity="0.5"></path>
                    <path d="M40.0001,322.791175 C17.9091,322.791175 -3.48165941e-13,304.882175 -3.48165941e-13,282.791175 C-3.48165941e-13,260.699175 17.9091,242.791175 40.0001,242.791175 C62.0911,242.791175 80.0001,260.699175 80.0001,282.791175 C80.0001,304.882175 62.0911,322.791175 40.0001,322.791175 Z" id="Path" fill="#C99584" fill-rule="nonzero" opacity="0.5"></path>
                    <path d="M39.1211,182.984175 C39.1211,99.8651751 106.5021,32.4841751 189.6211,32.4841751 C272.7401,32.4841751 340.1211,99.8651751 340.1211,182.984175 L340.1211,242.484175 L335.9701,307.120175 C334.1001,336.233175 325.3911,364.840175 305.9451,386.586175 C280.1761,415.402175 238.3751,451.484175 190.6211,451.484175 C142.1601,451.484175 99.8311,414.327175 74.1641,385.312175 C55.5501,364.270175 46.9141,336.866175 44.6021,308.868175 L39.1211,242.484175 L39.1211,182.984175 Z" id="Path" fill="#F4D5CC" fill-rule="nonzero"></path>
                    <path d="M138.0001,338.808175 L138.0001,356.591175 C138.0001,383.967175 160.1931,406.151175 187.5591,406.151175 C214.9341,406.151175 237.1181,383.967175 237.1181,356.591175 L237.1181,338.808175 L138.0001,338.808175 Z" id="Path" fill="#393939"></path>
                    <g id="Clipped" transform="translate(137.121100, 338.484175)">
                        <mask id="mask-6" fill="white">
                            <use xlink:href="#path-5"></use>
                        </mask>
                        <g id="Path"></g>
                        <path d="M50.438,83.557 C66.945,83.557 80.326,76.274 80.326,67.289 C80.326,58.305 66.945,51.021 50.438,51.021 C33.931,51.021 20.55,58.305 20.55,67.289 C20.55,76.274 33.931,83.557 50.438,83.557 Z" id="Path" fill="#FF6C6C" fill-rule="nonzero" mask="url(#mask-6)"></path>
                    </g>
                    <rect id="Rectangle" fill="#FFFFFF" fill-rule="nonzero" x="138.0001" y="338.808175" width="99.1211" height="20.4296"></rect>
                    <g id="Group-3" transform="translate(30.121100, 0.000000)" fill-rule="nonzero">
                        <path d="M-1.13686838e-13,166.983175 C0.001,128.483175 2.706,117.983175 13,110.983175 C23.294,103.983175 62.5,90.9831751 44.5,104.983175 C26.5,118.983175 24.603,149.278175 24.603,149.278175 L15.419,259.565175 C15.261,261.399175 13.868,262.792175 12.206,262.792175 C10.469,262.792175 9.049,261.286175 8.974,259.380175 C8.974,259.380175 -0.001,205.483175 -1.13686838e-13,166.983175 Z" id="Path" fill="#000000"></path>
                        <path d="M315.5,157.484175 C315.5,117.615175 309,82.1857751 279.5,69.9841751 C250,57.7825751 246.5,90.9841751 262,96.4841751 C277.5,101.984175 282.071,113.074175 284.5,126.984175 C286.929,140.894175 301.255,253.861175 301.255,253.861175 C301.413,255.695175 302.806,257.088175 304.468,257.088175 C306.205,257.088175 307.625,255.582175 307.7,253.676175 C307.7,253.676175 315.5,197.354175 315.5,157.484175 Z" id="Path" fill="#000000"></path>
                        <path d="M172.435,109.766175 C159.774,113.845175 70.999,105.483175 64.372,105.882175 C61.851,106.033175 43.499,103.201175 33.499,117.983175 C23.5,132.766175 9.506,112.483175 16,90.4831751 C22.494,68.4833751 22.836,63.1334751 37.001,45.4834751 C51.165,27.8334751 74.499,13.4833751 109.999,5.48337512 C145.499,-2.51662488 199.118,-8.33082488 245,37.4834751 C275.545,67.9834751 276.5,67.9833751 268,90.4831751 C259.5,112.983175 172.435,109.766175 172.435,109.766175 Z" id="Path" fill="#000000"></path>
                        <path d="M254.003,101.984175 C284.504,93.4841751 243.5,45.9837751 227,33.4836751 C205,17.9837751 183.694,4.60337512 150.5,19.9838751 C198.919,54.1946751 197.003,59.4837751 204,75.4837751 C212.89,95.8121751 205.451,107.537175 198.756,109.649175 C198.021,109.697175 197.446,109.796175 197.003,109.984175 C197.573,109.948175 198.162,109.836175 198.756,109.649175 C204.255,109.291175 218.719,111.817175 254.003,101.984175 Z" id="Path" fill="#C4C4C4" opacity="0.3"></path>
                        <path d="M191.498,77.9829751 C188.124,56.5596751 159.544,35.8625751 138.924,27.7172751 C185.028,59.2815751 182.02,77.0489751 176,109.483175 C193.002,109.483175 196.373,108.927175 191.498,77.9829751 Z" id="Path" fill="#C4C4C4" opacity="0.3"></path>
                    </g>
                    <path d="M290.7421,192.484175 C295.712663,192.484175 299.7421,196.513612 299.7421,201.484175 C299.7421,206.365978 295.855286,210.339967 291.007462,210.480338 L290.7421,210.484175 L233.7421,210.484175 C228.771537,210.484175 224.7421,206.454738 224.7421,201.484175 C224.7421,196.602372 228.628914,192.628384 233.476738,192.488012 L233.7421,192.484175 L290.7421,192.484175 Z" id="Path" fill="#393939" fill-rule="nonzero"></path>
                    <path d="M141.7421,192.484175 C146.712663,192.484175 150.7421,196.513612 150.7421,201.484175 C150.7421,206.365978 146.855286,210.339967 142.007462,210.480338 L141.7421,210.484175 L84.1211,210.484175 C79.1505373,210.484175 75.1211,206.454738 75.1211,201.484175 C75.1211,196.602372 79.0079137,192.628384 83.8557377,192.488012 L84.1211,192.484175 L141.7421,192.484175 Z" id="Path" fill="#393939" fill-rule="nonzero"></path>
                    <path d="M182.927672,268.076223 L197.072528,277.506127 C192.265105,284.717261 188.5001,295.541649 188.5001,303.416175 C188.5001,311.009194 191.242095,314.200882 199.636855,314.289283 L200.0001,314.291175 L200.0001,331.291175 C181.456981,331.291175 171.5001,320.089684 171.5001,303.416175 C171.5001,292.121066 176.199035,278.409929 182.578077,268.607014 L182.927672,268.076223 Z" id="Path" fill="#EBBAAA" fill-rule="nonzero"></path>
                    <path d="M252.1211,222.484175 C258.646557,222.484175 263.955493,227.692719 264.1173,234.1792 L264.1211,234.484175 L264.1211,251.484175 C264.1211,258.111592 258.748517,263.484175 252.1211,263.484175 C245.595643,263.484175 240.286707,258.275631 240.1249,251.78915 L240.1211,251.484175 L240.1211,234.484175 C240.1211,227.856758 245.493683,222.484175 252.1211,222.484175 Z" id="Path" fill="#000000" fill-rule="nonzero"></path>
                    <path d="M127.6211,222.484175 C134.146557,222.484175 139.455493,227.692719 139.6173,234.1792 L139.6211,234.484175 L139.6211,251.484175 C139.6211,258.111592 134.248517,263.484175 127.6211,263.484175 C121.095643,263.484175 115.786707,258.275631 115.6249,251.78915 L115.6211,251.484175 L115.6211,234.484175 C115.6211,227.856758 120.993683,222.484175 127.6211,222.484175 Z" id="Path" fill="#000000" fill-rule="nonzero"></path>
                    <g id="Group-2" transform="translate(43.931068, 177.484175)" fill-rule="nonzero">
                        <path d="M129.904064,61.7384119 C135.282064,36.7414119 120.082064,12.4984119 95.3190642,6.57241188 L75.5100642,1.83241188 C72.4490642,1.10041188 69.3130642,0.670411876 66.1500642,0.551411876 L52.5330642,0.0354118756 C25.4510642,-0.989588124 2.22306424,20.3664119 1.16106424,47.2654119 L0.227064236,70.9204119 C-0.499935764,89.3534119 9.52606424,106.257412 25.9930642,114.361412 L32.4400642,117.534412 C44.1170642,123.281412 57.7960642,123.968412 70.2900642,119.434412 L95.5320642,110.274412 C111.628064,104.434412 123.672064,90.7104119 127.234064,74.1514119 L129.904064,61.7384119 Z" id="Path-Copy" fill="#302F35"></path>
                        <path d="M160.104734,65.4422335 C155.178734,40.4332335 170.612734,15.3572335 195.233734,8.36523354 L214.588734,2.86823354 C217.649734,1.99923354 220.780734,1.43623354 223.934734,1.18823354 L237.118734,0.149233537 C263.954734,-1.96476646 286.617734,18.6362335 287.261734,45.7272335 L287.830734,69.6532335 C288.272734,88.2182335 278.095734,105.685234 261.673734,114.550234 L255.556734,117.852234 C243.846734,124.173234 230.210734,125.421234 217.850734,121.303234 L193.325734,113.130234 C177.507734,107.859234 165.829734,94.5052335 162.570734,77.9622335 L160.104734,65.4422335 Z" id="Path-Copy-2" fill="#302F35"></path>
                        <path d="M-1.02741095,47.6050994 L-1.9614107,71.260093 C-2.71952445,90.4819786 7.74248629,108.120837 24.9199124,116.574464 L31.3668674,119.747441 C43.5354858,125.736398 57.7798742,126.451534 70.7822857,121.733035 L96.0242742,112.573039 C112.765206,106.499043 125.291968,92.2252459 128.999306,74.9905983 L131.669311,62.5775748 C137.275354,36.5206305 121.416649,11.2253826 95.5945064,5.04592065 L75.7854632,0.305910318 C72.5932483,-0.457468121 69.3265381,-0.904758547 66.0352239,-1.02858605 L52.4187654,-1.5445656 C24.2374294,-2.61117329 0.0782439748,19.6003802 -1.02741095,47.6050994 Z M52.2673902,2.45256906 L65.8842989,2.9685656 C68.9134143,3.0825286 71.9188782,3.4940482 74.8548726,4.19615466 L94.663601,8.93608968 C118.368587,14.6088977 132.908456,37.8005515 127.758772,61.7363341 L125.088753,74.1494252 C121.672013,90.0331428 110.110481,103.207094 94.6598967,108.812923 L69.41779,117.972961 C57.4327937,122.322247 44.3191427,121.663879 33.1331927,116.158557 L26.6861968,112.985559 C10.9297885,105.231266 1.33957939,89.0622572 2.03547841,71.417819 L2.96947493,47.762907 C3.98784332,21.9690357 26.2852229,1.46919555 52.2673902,2.45256906 Z" id="Path" fill="#715B4E"></path>
                        <path d="M236.961671,-1.84458973 L223.777606,-0.805584598 C220.492618,-0.547285044 217.231161,0.0390297212 214.04253,0.944263342 L194.687325,6.44132155 C169.066439,13.7172744 153.015005,39.7970854 158.142437,65.8287453 L160.608435,78.3487373 C164.006136,95.5957956 176.190298,109.528345 192.693458,115.02766 L217.218418,123.200647 C230.105525,127.494264 244.31384,126.193869 256.506752,119.612195 L262.623769,116.310186 C279.706963,107.088257 290.290087,88.9232902 289.830167,69.6056305 L289.261169,45.6797035 C288.589961,17.4441659 264.944591,-4.04893815 236.961671,-1.84458973 Z M285.262299,45.7747636 L285.831299,69.7007834 C286.25536,87.5123188 276.485263,104.2818 260.723675,112.790294 L254.606699,116.092281 C243.37966,122.152581 230.315977,123.348215 218.482913,119.405775 L193.95805,111.232821 C178.825471,106.190222 167.653394,93.4149868 164.533018,77.57566 L162.067032,65.0557297 C157.342556,41.0698553 172.158562,16.9973251 195.7801,10.2891577 L215.135143,4.79214552 C218.069629,3.95906193 221.070211,3.41964507 224.091511,3.18207933 L237.275862,2.14305167 C262.964018,0.119472839 284.645486,19.8274346 285.262299,45.7747636 Z" id="Path" fill="#715B4E"></path>
                        <path d="M123.281964,28.303864 C137.155373,21.3671596 151.840312,21.3026723 166.575708,27.9784931 L167.149838,28.2420003 L162.934226,37.3099997 C150.903497,31.7170475 139.382148,31.6131991 128.266827,36.995812 L127.7541,37.248136 L123.281964,28.303864 Z" id="Path" fill="#715B4E"></path>
                        <path d="M98.3248251,6.50597877 L101.116207,6.75024552 C130.956338,9.29881753 153.144329,9.13140886 193.092561,6.50323569 C193.919201,6.44885147 194.633412,7.07488856 194.687796,7.90152866 C194.742181,8.72816877 194.116144,9.44238009 193.289503,9.49676431 L189.620305,9.7343686 C150.607403,12.2186864 128.563032,12.2258833 98.0572392,9.49402123 C97.232114,9.42012943 96.6231191,8.6913322 96.6970109,7.86620705 C96.7665561,7.08961868 97.4162252,6.50448128 98.1803284,6.49993282 L98.3248251,6.50597877 Z" id="Path" fill="#715B4E"></path>
                    </g>
                </g>
            </g>
        </g>
    </g>
</svg>