<?xml version="1.0" encoding="UTF-8"?>
<svg width="513px" height="1316px" viewBox="0 0 513 1316" version="1.1" xmlns="http://www.w3.org/2000/svg" xmlns:xlink="http://www.w3.org/1999/xlink">
    <!-- Generator: Sketch 55.2 (78181) - https://sketchapp.com -->
    <title>gee_me_037</title>
    <desc>Created with Sketch.</desc>
    <defs>
        <path d="M0.422,0 C0.362,1.021 0.332,2.051 0.332,3.081 L0.332,22.367 C0.332,51.44 24.961,75 55.331,75 C85.71,75 110.329,51.44 110.329,22.367 L110.329,3.081 C110.329,2.051 110.299,1.021 110.239,0 L0.422,0 Z" id="path-1"></path>
    </defs>
    <g id="GEE!-ME" stroke="none" stroke-width="1" fill="none" fill-rule="evenodd">
        <g id="gee_me_037" transform="translate(-354.000000, -142.000000)">
            <g transform="translate(332.000000, 142.000000)">
                <g id="lower-limb" transform="translate(49.999978, 735.000000)" fill-rule="nonzero">
                    <polygon id="Path" fill="#F6DDD6" points="182.500022 213 182.500022 524 114.500022 524 114.500022 213"></polygon>
                    <polygon id="Path" fill="#F6DDD6" points="315.500022 255 315.500022 507 247.500022 507 247.500022 255"></polygon>
                    <path d="M202.967022,423.42 C198.398022,416 188.119022,417.78 183.551022,419.6 L184.693022,423.96 C186.596022,424.33 191.431022,425.06 193.259022,427.24 C195.543022,429.97 193.830022,435.42 195.543022,436.51 C197.256022,437.61 201.825022,436.51 204.109022,436.51 C206.393022,436.51 208.677022,432.7 202.967022,423.42 Z" id="Path" fill="#000000"></path>
                    <path d="M191.297775,420.841602 C191.387002,420.574456 191.674858,420.439337 191.930966,420.525779 L192.014843,420.562921 L192.955,421.085 L193.166707,420.890101 L193.417115,420.646801 C193.567195,420.49642 193.792827,420.459404 193.98015,420.545781 L194.057753,420.590384 L199.057753,424.090384 C199.283978,424.248741 199.338995,424.560507 199.180638,424.786731 C199.039876,424.98782 198.777903,425.053633 198.562539,424.954557 L198.484291,424.909616 L196.739,423.688 L196.697868,423.85169 C196.474161,424.696246 196.183463,425.514715 195.877871,426.017985 L195.836,426.081 C195.979729,426.200749 196.190213,426.345342 196.458273,426.509042 L196.806981,426.71428 L197.249876,426.958563 L197.772,427.231 L197.772022,426 C197.772022,425.622363 198.168383,425.391414 198.48997,425.549609 L198.562641,425.593133 L202.062641,428.093133 C202.433718,428.358188 202.281116,428.923316 201.859794,428.992922 L201.772022,429 L199.826437,429.000252 C200.155878,429.034243 200.386821,429.407564 200.218171,429.727336 L200.172022,429.8 L199.41,430.816 L199.957717,431.035762 C200.185621,431.126923 200.309478,431.366966 200.26216,431.599256 L200.23626,431.685695 C200.145099,431.913599 199.905055,432.037456 199.672766,431.990138 L199.586327,431.964238 L198.788,431.645 L198.672022,431.8 C198.401737,432.16038 197.847221,432.003695 197.778962,431.586777 L197.772022,431.5 L197.772,431.238 L197.086327,430.964238 C196.697187,430.808583 196.669392,430.285965 197.00294,430.077886 L197.086327,430.035762 L197.772,429.761 L197.772,428.348 L197.424328,428.175919 C197.157219,428.041132 196.899174,427.906513 196.658651,427.775827 L196.312063,427.58322 C195.826362,427.306582 195.449758,427.061352 195.195768,426.848033 C194.730382,426.45717 194.507268,426.057647 194.918469,425.646447 C195.109128,425.455787 195.398721,424.728023 195.62836,423.957376 L195.688,423.748 L193.088,422.303 L192.954686,422.410443 C192.53823,422.733715 192.166324,422.948104 191.8767,422.991755 L191.772022,423 C191.154887,423 191.003324,422.515892 191.061554,421.891101 C191.091283,421.572126 191.184518,421.180694 191.297775,420.841602 Z M198.772,428.822 L198.772,429.361 L199.586327,429.035762 C199.613932,429.02472 199.641365,429.016222 199.66849,429.01009 L199.735,429 L199.272022,429 L199.068106,428.956528 L198.772,428.822 Z M198.772,426.971 L198.772,427.72 L199.128621,427.886182 L199.38,428 L200.213,428 L198.772,426.971 Z" id="Path" fill-opacity="0.78" fill="#EACE56"></path>
                    <path d="M0.558121905,558 C-0.658278095,555 -0.448878095,548.5 7.0507219,545.5 C14.5503219,542.5 103.050022,558 103.050022,558 C125.833022,556.14 187.022022,526.28 209.551022,540 C216.678022,544.34 214.262022,558.09 211.631022,570.96 C207.421022,575.25 164.831022,579 151.022022,575.78 C151.022022,568.28 149.947022,563.45 149.947022,563.45 C149.947022,563.45 141.581022,568.85 132.551022,570.96 C114.132022,575.25 110.101022,580 53.0510219,580 C7.2944219,575.71 4.0034219,566.5 0.558121905,558 Z" id="Path" fill="#383129"></path>
                    <path d="M4.16912876,552.322971 C5.23069022,553.577544 6.77661713,554.986085 8.6916549,556.433373 L9.29458637,555.63558 C7.43445281,554.229786 5.9416672,552.869663 4.93251505,551.677029 L4.16912876,552.322971 Z M13.7227755,559.798344 C15.3878724,560.793429 17.1673409,561.757405 19.0364284,562.672054 L19.4759769,561.773835 C17.6317906,560.871372 15.8768267,559.92067 14.2357643,558.939949 L13.7227755,559.798344 Z M24.5530281,565.11733 C26.4028537,565.856532 28.3001236,566.537268 30.2350936,567.152725 L30.5382009,566.199768 C28.6263114,565.591653 26.7517057,564.919049 24.9241035,564.188727 L24.5530281,565.11733 Z M36.0683815,568.778375 C38.0225763,569.24723 39.9971187,569.645851 41.9868972,569.97045 L42.147902,568.983496 C40.1825981,568.66289 38.2321614,568.269135 36.301683,567.805971 L36.0683815,568.778375 Z M47.9972342,570.718246 C50.0040411,570.890132 52.0159616,570.984324 54.0298129,570.998203 L54.0367047,569.998227 C52.0492483,569.984529 50.0634898,569.891562 48.0825731,569.721894 L47.9972342,570.718246 Z M60.0234312,570.959735 C62.0412333,570.929917 64.0435952,570.883625 66.0300665,570.821139 L65.9986261,569.821633 C64.0177074,569.883945 62.0209006,569.930108 60.0086554,569.959844 L60.0234312,570.959735 Z M72.0402617,570.580558 C74.05847,570.482267 76.0576544,570.367056 78.0371711,570.235286 L77.9707515,569.237494 C75.9971569,569.36887 74.0038977,569.483739 71.9916171,569.581742 L72.0402617,570.580558 Z M84.0285063,569.781082 C86.0473486,569.609085 88.0419956,569.419689 90.0114653,569.213394 L89.9072888,568.218835 C87.9442458,568.424457 85.9560283,568.613242 83.9436176,568.784692 L84.0285063,569.781082 Z M95.9891252,568.52603 C98.0069476,568.272897 99.9926174,568.001954 101.944503,567.713958 L101.798535,566.724668 C99.8538145,567.011608 97.87531,567.281573 95.8646521,567.533807 L95.9891252,568.52603 Z M107.877253,566.768699 C109.894881,566.422723 111.866696,566.058788 113.789627,565.678219 L113.595482,564.697246 C111.680939,565.076155 109.717503,565.438543 107.708244,565.783084 L107.877253,566.768699 Z M119.678135,564.426618 C121.702382,563.965221 123.652702,563.486827 125.522052,562.994414 L125.267327,562.0274 C123.408859,562.516948 121.469367,562.992685 119.4559,563.451625 L119.678135,564.426618 Z M131.315196,561.362105 L137.074755,559.674236 L136.792071,558.715023 L131.035382,560.402051 L131.315196,561.362105 Z M142.542103,557.010164 L142.828037,557.968413 L148.575956,556.240308 L148.285766,555.283339 L143.910706,556.601111 C143.462702,556.735237 143.006333,556.871641 142.542103,557.010164 Z M154.274791,554.13709 L154.19911,555.134222 L155.610012,555.236687 C157.056959,555.337251 158.605725,555.431583 160.199448,555.514923 L160.251669,554.516287 L158.68087,554.429782 C157.129279,554.339982 155.641633,554.240831 154.274791,554.13709 Z M166.203286,555.76571 C168.252897,555.829302 170.266093,555.868397 172.214079,555.88044 L172.220261,554.880459 C170.280843,554.868469 168.275887,554.829534 166.234297,554.766191 L166.203286,555.76571 Z M178.233496,555.822147 C180.41176,555.761789 182.425861,555.657174 184.252857,555.505655 L184.170207,554.509076 C182.362723,554.658978 180.366677,554.762655 178.205797,554.822531 L178.233496,555.822147 Z M190.081968,553.74439 L190.245364,554.73095 L191.372217,554.541579 C193.197706,554.230057 194.766153,553.937781 196.16676,553.646271 L195.962995,552.667251 L194.665591,552.928114 C193.317717,553.190309 191.811286,553.457977 190.081968,553.74439 Z M202.031562,552.12471 C204.256661,551.381088 206.027915,550.518778 207.556665,549.429339 L206.976318,548.61497 C205.533636,549.643073 203.850662,550.462406 201.714597,551.176272 L202.031562,552.12471 Z" id="Path" fill="#67513B"></path>
                    <path d="M133.551022,417.5 C138.426022,417.5 166.869022,432.43 181.627022,420.85 C183.249022,419.58 186.550022,420.62 186.553022,422.68 C186.580022,442.58 186.874022,477.18 189.854022,490.9 C193.011022,505.44 195.677022,503.36 198.833022,516.86 C201.019022,526.21 208.098022,548.02 198.833022,548.02 L156.579022,548.02 C146.582022,548.02 133.080022,559.63 99.7890219,562.89 C44.5263219,568.31 31.0220219,560.89 19.9879219,557.39 C-5.1183781,549.43 7.6226219,531.21 19.9878219,525.39 C38.1021219,516.86 64.0630219,510.46 77.2680219,503.39 C87.5510219,497.89 91.0820219,496.18 96.3610219,490.39 C105.065022,480.85 112.711022,430.66 113.893022,417.55 C113.975022,416.64 115.256022,416.17 116.035022,416.65 C121.184022,419.82 128.718022,417.5 133.551022,417.5 Z" id="Path" fill="#2D2B30"></path>
                    <path d="M23.0306125,541.207366 C23.5898747,539.357042 25.5432308,538.310428 27.3935556,538.869691 L28.8348238,539.300506 C34.936338,541.102155 39.2420311,542.067741 44.7134371,542.656328 C52.7254801,543.518223 61.2190644,543.120233 70.6417653,541.144492 C72.5336213,540.747809 74.388848,541.959887 74.7855302,543.851743 C75.1822124,545.743599 73.9701346,547.598826 72.0782786,547.995508 C61.9304638,550.12329 52.6996143,550.555827 43.9647317,549.616172 C37.5484441,548.92594 32.6372464,547.767358 25.3682882,545.570309 C23.5179634,545.011047 22.4713504,543.057691 23.0306125,541.207366 Z" id="Path" fill="#59555F"></path>
                    <path d="M90.5510219,522 C100.342022,513 136.051022,492.89 133.551022,417.5 C137.794022,417.5 148.051022,423 163.551022,424 C179.828022,423.51 179.561022,422.04 183.872022,419.6 C183.989022,419.53 184.124022,419.43 184.235022,419.36 C190.996022,414.81 187.955022,487.51 192.807022,500.39 C196.724022,510.79 204.067022,526.39 204.067022,545.39 C200.640022,551.39 166.860022,548.39 156.089022,548.39 C151.051022,521.5 111.551022,542 103.051022,539.5 C95.5900219,537.31 90.5510219,533 90.5510219,522 Z" id="Path" fill="#1D1D20"></path>
                    <path d="M102.551022,489.6 C113.751022,480.8 118.051022,438 118.551022,417.5 C116.551022,417 116.051022,415.6 114.551022,416.1 C113.051022,416.6 113.051022,422.6 112.551022,427.6 C112.004022,433.08 108.051022,450.1 106.051022,461.6 C104.051022,473.1 102.051022,480.1 94.5510219,489.6 C88.5510219,497.2 65.0510219,505 57.5510219,511.5 C58.3840219,511.33 60.5510219,510.2 62.5510219,510.6 C65.0510219,511.1 64.5510219,511.6 67.5510219,511.6 C70.5510219,511.6 88.5510219,500.6 102.551022,489.6 Z" id="Path" fill="#1D1D20"></path>
                    <path d="M113.679314,420.709431 C114.098468,419.451967 115.420036,418.749267 116.683969,419.081356 L116.841591,419.128292 L137.841591,426.128292 C140.116568,426.886617 140.10333,430.067967 137.906667,430.849751 L137.737825,430.90381 L122.815,435.167 L134.694392,441.27678 C136.763124,442.3407 136.371667,445.372871 134.172428,445.922131 L134.008292,445.957825 L121.047,448.368 L134.470169,453.675098 C136.599401,454.516888 136.553639,457.508271 134.479113,458.322009 L134.311122,458.381648 L116.832,463.959 L132.125856,471.242849 C134.336008,472.295302 133.85953,475.532022 131.515446,475.957156 L131.348885,475.982192 L112.537,478.239 L125.551022,488 C127.429364,489.408757 126.498374,492.361813 124.212669,492.495316 L124.051022,492.5 L104.209,492.5 L117.793718,505.707513 C119.559518,507.424262 118.040005,510.354496 115.669238,509.971256 L115.51678,509.94225 L89.881,504.334 L100.081831,518.541983 C101.567486,520.611289 99.375658,523.27977 97.0906154,522.30883 L96.9506289,522.244802 L71.4506289,509.744802 C70.2108591,509.137072 69.6984898,507.639377 70.3062201,506.399607 C70.8886283,505.211494 72.2883823,504.691428 73.4951834,505.185037 L73.6514149,505.255198 L90.217,513.376 L82.0202126,501.958017 C80.7142994,500.139066 82.2728825,497.682707 84.43357,498.028999 L84.5852641,498.05775 L108.026,503.185 L96.3083259,491.792487 C94.7375025,490.265298 95.755543,487.629247 97.8926708,487.504587 L98.0510219,487.5 L116.551,487.5 L104.551022,478.5 C102.792553,477.181148 103.478012,474.428518 105.588055,474.04275 L105.753159,474.017808 L122.182,472.046 L108.976188,465.757151 C106.985511,464.80921 107.122828,461.966716 109.120176,461.179142 L109.290921,461.118352 L126.116,455.748 L111.131875,449.824902 C108.852567,448.92378 109.112919,445.658005 111.425112,445.078902 L111.593752,445.042175 L125.905,442.379 L114.907652,436.72322 C112.945426,435.714075 113.171446,432.873625 115.196122,432.150134 L115.364219,432.09619 L128.595,428.316 L115.260452,423.871708 C114.002989,423.452554 113.300289,422.130986 113.632378,420.867053 L113.679314,420.709431 Z" id="Path" fill="#000000"></path>
                    <path d="M227.348022,423.47 C231.942022,416 242.278022,417.8 246.872022,419.63 L245.724022,424.01 C243.810022,424.38 238.948022,425.11 237.110022,427.31 C234.813022,430.05 236.536022,435.54 234.813022,436.64 C233.090022,437.73 228.496022,436.64 226.199022,436.64 C223.902022,436.64 221.605022,432.79 227.348022,423.47 Z" id="Path" fill="#000000"></path>
                    <path d="M238.36175,420.593172 C238.636076,420.440398 238.981678,420.575329 239.079919,420.873563 C239.194386,421.221053 239.287134,421.610967 239.31697,421.929641 C239.375541,422.555227 239.22296,423.04 238.605022,423.04 C238.300922,423.04 237.875387,422.804469 237.400723,422.435617 L237.28,422.339 L234.663,423.797 L234.668913,423.817271 C234.889992,424.59818 235.182006,425.370862 235.388847,425.647125 L235.438693,425.705566 C235.851813,426.116631 235.628468,426.516946 235.161475,426.910583 C234.906113,427.125833 234.527157,427.373707 234.039445,427.652741 C233.703118,427.845163 233.316039,428.051246 232.91046,428.256362 L232.569,428.425 L232.569,429.848 L233.260417,430.126042 C233.649408,430.282319 233.676315,430.805132 233.342309,431.01262 L233.258825,431.054594 L232.569,431.328 L232.569022,431.59 C232.569022,432.040361 232.031622,432.247785 231.7268,431.955407 L231.669165,431.890191 L231.551,431.733 L230.744825,432.054594 C230.516746,432.145318 230.26168,432.056422 230.136131,431.855337 L230.095428,431.774803 C230.004704,431.546724 230.0936,431.291658 230.294685,431.166109 L230.375219,431.125406 L230.929,430.905 L230.160165,429.880191 C229.910003,429.546973 230.151062,429.116418 230.50615,429.080181 L228.549022,429.08 C228.093261,429.08 227.888819,428.531946 228.190752,428.230262 L228.257966,428.173446 L231.777966,425.653446 C232.085212,425.433486 232.503942,425.621697 232.562193,425.975519 L232.569022,426.06 L232.569,427.307 L232.83952,427.168326 C232.964968,427.102644 233.087106,427.037473 233.204729,426.973362 L233.542848,426.784759 L233.893394,426.577499 C234.10903,426.445205 234.287585,426.325245 234.423306,426.221084 L234.52,426.141 L234.480158,426.07969 C234.173308,425.576948 233.882359,424.75846 233.655332,423.90502 L233.61,423.728 L231.852775,424.959601 C231.651694,425.100373 231.383016,425.072557 231.214565,424.905759 L231.156421,424.836753 C231.015649,424.635672 231.043464,424.366994 231.210263,424.198543 L231.279269,424.140399 L236.307269,420.620399 C236.507101,420.480501 236.778717,420.505222 236.95001,420.678898 C237.06781,420.798338 237.195135,420.920839 237.325113,421.041054 L237.413,421.121 L238.36175,420.593172 Z M231.569,428.899 L231.265923,429.036981 L231.063022,429.08 L230.59,429.079 L230.664212,429.090226 L230.746417,429.116042 L231.569,429.447 L231.569,428.899 Z M231.569,427.032 L230.107,428.079 L230.957,428.079 L231.252355,427.945771 L231.569,427.797 L231.569,427.032 Z" id="Path" fill-opacity="0.78" fill="#EACE56"></path>
                    <path d="M430.888022,558.8 C432.111022,555.78 431.901022,549.25 424.359022,546.23 C416.818022,543.21 327.823022,558.8 327.823022,558.8 C304.913022,556.93 243.381022,526.9 220.727022,540.7 C213.560022,545.06 215.989022,558.89 218.635022,571.83 C222.868022,576.14 265.696022,579.92 279.583022,576.68 C279.583022,569.13 280.664022,564.28 280.664022,564.28 C280.664022,564.28 289.076022,569.71 298.157022,571.83 C316.679022,576.14 320.733022,580.92 378.102022,580.92 C424.114022,576.61 427.423022,567.35 430.888022,558.8 Z" id="Path" fill="#383129"></path>
                    <path d="M426.491491,552.446838 C425.481294,553.639495 423.989351,554.999276 422.1311,556.405234 L422.734464,557.2027 C424.647345,555.755409 426.192177,554.347423 427.254553,553.093162 L426.491491,552.446838 Z M417.190485,559.714408 C415.55004,560.696745 413.795664,561.649515 411.951955,562.554535 L412.392599,563.452216 C414.261094,562.53503 416.039865,561.569012 417.704238,560.572345 L417.190485,559.714408 Z M406.507008,564.977138 C404.680618,565.710328 402.807097,566.386293 400.896137,566.998274 L401.201127,567.950629 C403.135026,567.331302 405.031073,566.64721 406.879553,565.905152 L406.507008,564.977138 Z M395.136749,568.616979 C393.207459,569.084809 391.258025,569.483755 389.293526,569.810091 L389.457397,570.796573 C391.446199,570.4662 393.419568,570.062355 395.372407,569.588815 L395.136749,568.616979 Z M383.361055,570.567265 C381.380557,570.743727 379.394993,570.844018 377.407499,570.865579 L377.418347,571.86552 C379.432055,571.843675 381.443599,571.742072 383.449803,571.563319 L383.361055,570.567265 Z M371.453146,570.834564 C369.441005,570.80671 367.444091,570.762518 365.46284,570.702262 L365.432441,571.7018 C367.419208,571.762224 369.421642,571.806538 371.439305,571.834468 L371.453146,570.834564 Z M359.470935,570.469033 C357.458598,570.373379 355.464983,570.260955 353.490713,570.132114 L353.425592,571.129991 C355.405739,571.259216 357.405234,571.371972 359.423455,571.467905 L359.470935,570.469033 Z M347.519535,569.687732 C345.50723,569.51926 343.518664,569.333561 341.554781,569.131122 L341.452244,570.125851 C343.422493,570.328946 345.417429,570.51524 347.436106,570.684245 L347.519535,569.687732 Z M335.596158,568.456537 C333.585255,568.208085 331.605783,567.942011 329.6593,567.659049 L329.515441,568.648647 C331.469003,568.932639 333.455555,569.199664 335.473538,569.448991 L335.596158,568.456537 Z M323.748235,566.731155 C321.739014,566.391736 319.774291,566.03457 317.856969,565.660926 L317.665689,566.642461 C319.591256,567.017713 321.564216,567.376376 323.581664,567.717185 L323.748235,566.731155 Z M311.99507,564.434719 C309.98279,563.983591 308.041452,563.515663 306.177619,563.033724 L305.927279,564.001882 C307.801684,564.486555 309.753549,564.95702 311.776312,565.410499 L311.99507,564.434719 Z M300.124506,562.389412 L300.403951,561.42925 L295.771484,560.07537 C295.394083,559.964599 295.018909,559.854363 294.646014,559.744679 L294.363826,560.704038 L298.946866,562.046313 C299.337355,562.1602 299.729919,562.274571 300.124506,562.389412 Z M288.893843,558.042794 L283.148903,556.319852 L282.859411,557.277032 L288.608515,559.001224 L288.893843,558.042794 Z M277.274609,555.845365 L277.194706,554.848562 L275.332947,554.989062 C274.040501,555.080992 272.653554,555.168765 271.220376,555.24826 L271.275759,556.246725 L272.697122,556.16431 C274.333249,556.065278 275.884625,555.956785 277.274609,555.845365 Z M265.237202,555.517942 C263.203834,555.588233 261.198459,555.635194 259.251056,555.656184 L259.261834,556.656126 C261.217425,556.635048 263.230694,556.587902 265.27175,556.517345 L265.237202,555.517942 Z M253.263465,555.631534 C251.117002,555.586683 249.119508,555.500981 247.293573,555.372086 L247.223157,556.369603 C249.066607,556.499735 251.080402,556.586137 253.242574,556.631315 L253.263465,555.631534 Z M241.217821,555.685759 L241.377369,554.698568 L240.25619,554.515136 C238.439974,554.214129 236.879741,553.935495 235.484047,553.661312 L235.291282,554.642557 L236.603256,554.892726 C237.964311,555.14497 239.480082,555.404908 241.217821,555.685759 Z M229.693193,552.283995 C227.496441,551.629513 225.757501,550.897192 224.281493,550.002472 L223.763119,550.857626 C225.318071,551.8002 227.134204,552.56503 229.407665,553.242365 L229.693193,552.283995 Z" id="Path" fill="#67513B"></path>
                    <path d="M297.152022,417.51 C292.246022,417.51 263.604022,432.55 248.773022,420.85 C247.154022,419.58 243.856022,420.62 243.853022,422.68 C243.827022,442.69 243.532022,477.52 240.533022,491.33 C237.359022,505.95 234.679022,503.86 231.504022,517.43 C229.306022,526.83 222.188022,548.76 231.504022,548.76 L273.995022,548.76 C284.048022,548.76 297.626022,560.44 331.103022,563.72 C386.674022,569.16 400.254022,561.71 411.350022,558.19 C436.596022,550.18 423.784022,531.86 411.350022,526.01 C393.134022,517.43 367.028022,510.99 353.749022,503.89 C343.409022,498.36 339.858022,496.64 334.549022,490.81 C325.794022,481.21 318.102022,430.71 316.918022,417.55 C316.837022,416.64 315.556022,416.17 314.778022,416.65 C309.600022,419.85 302.015022,417.51 297.152022,417.51 Z" id="Path" fill="#2D2B30"></path>
                    <path d="M403.906987,539.580114 C405.757078,539.020078 407.710871,540.065874 408.270907,541.915965 C408.830943,543.766056 407.785147,545.71985 405.935057,546.279886 L404.406472,546.737331 C397.925926,548.652434 393.22956,549.706073 387.237125,550.351145 C378.456632,551.296347 369.175837,550.862611 358.972561,548.725675 C357.080613,548.329433 355.868104,546.474488 356.264347,544.582539 C356.660589,542.690591 358.515534,541.478082 360.407482,541.874325 C369.886048,543.85948 378.429951,544.258778 386.487919,543.391355 C392.416879,542.753115 396.994964,541.672434 403.906987,539.580114 Z" id="Path" fill="#59555F"></path>
                    <path d="M340.392022,522.6 C330.546022,513.55 294.638022,493.33 297.152022,417.51 C292.885022,417.51 282.571022,423.04 266.984022,424.05 C250.614022,423.55 250.884022,422.08 246.549022,419.63 C246.432022,419.56 246.296022,419.46 246.185022,419.38 C239.386022,414.8 242.444022,487.91 237.564022,500.87 C233.626022,511.33 226.241022,527.02 226.241022,546.12 C229.687022,552.16 263.657022,549.14 274.487022,549.14 C279.554022,522.1 319.275022,542.71 327.822022,540.2 C335.325022,537.99 340.392022,533.66 340.392022,522.6 Z" id="Path" fill="#1D1D20"></path>
                    <path d="M328.325022,490.02 C317.063022,481.17 312.738022,438.13 312.236022,417.51 C314.247022,417.01 314.750022,415.61 316.258022,416.11 C317.766022,416.61 317.766022,422.64 318.269022,427.67 C318.819022,433.18 322.794022,450.3 324.806022,461.86 C326.817022,473.43 328.828022,480.47 336.370022,490.02 C342.403022,497.66 366.035022,505.5 373.577022,512.04 C372.739022,511.87 370.560022,510.73 368.549022,511.14 C366.035022,511.64 366.538022,512.14 363.521022,512.14 C360.504022,512.14 342.403022,501.08 328.325022,490.02 Z" id="Path" fill="#1D1D20"></path>
                    <path d="M313.959385,419.168314 C315.269231,418.731658 316.685051,419.439517 317.121708,420.749363 C317.540898,422.006815 316.905302,423.361933 315.694916,423.854656 L315.540659,423.911686 L302.089,428.395 L315.436434,432.206078 C317.558354,432.811968 317.892092,435.642149 316.04768,436.747477 L315.893352,436.83324 L304.798,442.539 L319.229036,445.222127 C321.638709,445.670179 322.008441,448.92539 319.849895,449.936472 L319.691407,450.004808 L304.586,455.978 L321.542957,461.388299 C323.643371,462.058483 323.891576,464.893255 322.019177,465.943655 L321.858229,466.026973 L308.534,472.373 L325.103223,474.357729 C327.285858,474.619054 328.070473,477.345321 326.436778,478.735534 L326.306322,478.839775 L314.202,487.92 L332.850022,487.92 C335.040772,487.92 336.148416,490.5195 334.703185,492.098674 L334.592859,492.21235 L322.773,503.705 L346.394719,498.537763 C348.582206,498.059193 350.220243,500.463362 349.046322,502.310123 L348.95983,502.438019 L340.683,513.966 L357.392636,505.775195 C358.58075,505.19279 360.005741,505.639089 360.657309,506.768459 L360.737827,506.919614 C361.320232,508.107728 360.873933,509.532719 359.744563,510.184287 L359.593408,510.264805 L333.950408,522.834805 C331.663053,523.956049 329.395773,521.351379 330.73282,519.259386 L330.819214,519.131981 L341.097,504.815 L315.284325,510.462237 C312.878517,510.98857 311.272004,508.105257 312.898924,506.33884 L313.007185,506.22765 L326.692,492.92 L306.705022,492.92 C304.35728,492.92 303.330126,489.999343 305.078239,488.520973 L305.204721,488.420225 L318.319,478.581 L299.368821,476.312271 C296.938108,476.021243 296.355424,472.801716 298.440972,471.649964 L298.590815,471.573027 L314.003,464.23 L296.392087,458.611701 C294.210874,457.915736 294.054336,454.92817 296.069066,453.976052 L296.232637,453.905192 L309.775,448.549 L296.695008,446.117873 C294.407781,445.692588 293.912444,442.675383 295.861692,441.518058 L296.008692,441.43676 L307.984,435.277 L292.94561,430.983922 C290.639572,430.325459 290.514294,427.146254 292.675041,426.269666 L292.841385,426.208314 L313.959385,419.168314 Z" id="Path" fill="#000000"></path>
                    <polygon id="Path" fill="#000000" points="62.5000219 393 74.5000219 37.5 152.324022 26.922 153.000022 9 190.986022 9 190.500022 0 289.000022 23.5 289.115022 29.467 316.000022 37.5 379.500022 393 296.337022 405 296.500022 413.5 228.614022 408.25 229.500022 420 137.500022 420 138.077022 404.69"></polygon>
                </g>
                <g id="upper-limb" transform="translate(0.791005, 229.000000)">
                    <path d="M426.707995,99.5 C426.707995,89.992 427.707995,49.667 426.707995,32 L403.207995,35 L345.706995,83.5 C335.040995,108.167 285.508995,196.4 288.708995,210 C292.708995,227 357.265995,240.739 378.208995,255.5 C461.208995,314 444.707995,208 441.207995,187 C437.707995,166 426.707995,127.5 426.707995,99.5 Z" id="Path" fill="#17100F" fill-rule="nonzero"></path>
                    <path d="M81.2089955,0.0360202977 C71.622494,108.17887 62.956226,174.208578 55.2101917,198.125147 C43.5911402,234 16.9016166,308.711054 22.5007467,354.292527 C28.0998767,399.874 29.2113879,404.49186 55.2101917,389.99593 C72.5427276,380.331977 182.874285,305.131221 386.204863,164.393664 L81.2089955,0.0360202977 Z" id="Path-2" fill="#17100F"></path>
                    <rect id="Rectangle" fill="#EBBAAA" fill-rule="nonzero" x="211.208995" y="122" width="81" height="116" rx="40.5"></rect>
                    <polygon id="Path" fill="#E5CECB" fill-rule="nonzero" points="186.208995 557 186.208995 498 322.208995 498 322.208995 557"></polygon>
                    <path d="M186.208995,508.833 L186.208995,234 L322.208995,234 L322.208995,508.833 C322.208995,508.833 274.533995,517 254.208995,517 C233.883995,517 186.208995,508.833 186.208995,508.833 Z" id="Path" fill="#E7D6D3" fill-rule="nonzero"></path>
                    <path d="M249.208995,216 C220.008995,216 201.708995,202 196.208995,195 L180.208995,228.5 C190.708995,239.833 219.208995,262.5 249.208995,262.5 C279.208995,262.5 308.375995,247.5 319.208995,240 L308.208995,195 C300.708995,202 278.408995,216 249.208995,216 Z" id="Path" fill="#E6CECB" fill-rule="nonzero"></path>
                    <rect id="Rectangle" fill="#67513B" fill-rule="nonzero" transform="translate(124.739060, 383.500733) rotate(8.500000) translate(-124.739060, -383.500733) " x="38.2510602" y="204.651233" width="172.976" height="357.699" rx="86.488"></rect>
                    <rect id="Rectangle" fill="#67513B" fill-rule="nonzero" transform="translate(111.310320, 521.545718) rotate(-45.000000) translate(-111.310320, -521.545718) " x="58.24082" y="417.494218" width="106.139" height="208.103" rx="53.0694"></rect>
                    <path d="M75.0917955,730.144 L118.039995,196.729 L210.708995,190 L243.208995,379.5 C234.618995,492.883 222.832995,748.182 222.832995,761.926 C222.832995,775.67 118.039995,744.46 75.0917955,730.144 Z" id="Path" fill="#67513B" fill-rule="nonzero"></path>
                    <path d="M243.708995,378.5 L210.208995,187.5 C186.208995,184 155.708995,185.333 141.208995,187.5 L226.708995,375.5 L237.708995,458.5 L243.708995,378.5 Z" id="Path" fill="#82684B" fill-rule="nonzero"></path>
                    <path d="M432.419995,724.132 L389.708995,196.5 L292.208995,192.5 L264.708995,382 C273.298995,495.383 284.677995,742.17 284.677995,755.914 C284.677995,769.657 389.471995,738.448 432.419995,724.132 Z" id="Path" fill="#67513B" fill-rule="nonzero"></path>
                    <path d="M264.708995,383 L292.208995,191 C315.708995,186 346.041995,186 357.708995,186 L288.208995,391.5 L274.208995,545 L264.708995,383 Z" id="Path" fill="#82684B" fill-rule="nonzero"></path>
                    <rect id="Rectangle" fill="#363030" fill-rule="nonzero" transform="translate(416.103363, 539.466142) rotate(-4.500000) translate(-416.103363, -539.466142) " x="302.720363" y="460.012142" width="226.766" height="158.908" rx="20"></rect>
                    <rect id="Rectangle" fill="#67513B" fill-rule="nonzero" transform="translate(421.878015, 323.327129) scale(-1, 1) rotate(11.000002) translate(-421.878015, -323.327129) " x="376.606573" y="197.323151" width="90.5428838" height="252.007955" rx="45.2714"></rect>
                    <path d="M386.526995,543.026 C383.853995,563.285 398.109995,581.875 418.368995,584.548 C438.627995,587.221 457.217995,572.965 459.890995,552.706 L386.526995,543.026 Z M405.526995,399.026 L386.526995,543.026 L459.890995,552.706 L478.890995,408.706 L405.526995,399.026 Z" id="Shape" fill="#F6DDD6" fill-rule="nonzero"></path>
                    <rect id="Rectangle" fill="#67513B" fill-rule="nonzero" transform="translate(436.539756, 456.791897) scale(-1, 1) rotate(-3.499997) translate(-436.539756, -456.791897) " x="391.268297" y="367.596879" width="90.542918" height="178.390035" rx="45.2714"></rect>
                    <circle id="Oval" fill="#C3996F" fill-rule="nonzero" cx="212.955995" cy="399.874" r="9.87807"></circle>
                    <circle id="Oval" fill="#C3996F" fill-rule="nonzero" cx="206.942995" cy="533.872" r="9.87807"></circle>
                    <circle id="Oval" fill="#C3996F" fill-rule="nonzero" cx="211.236995" cy="466.873" r="9.87807"></circle>
                    <circle id="Oval" fill="#C3996F" fill-rule="nonzero" cx="199.211995" cy="598.294" r="9.87807"></circle>
                    <circle id="Oval" fill="#C3996F" fill-rule="nonzero" cx="193.199995" cy="654.127" r="9.87807"></circle>
                </g>
                <g id="hand" transform="translate(67.000000, 0.000003)">
                    <path d="M317,293.999997 C339.091,293.999997 357,274.076997 357,249.499997 C357,224.922997 339.091,204.999997 317,204.999997 C294.909,204.999997 277,224.922997 277,249.499997 C277,274.076997 294.909,293.999997 317,293.999997 Z" id="Path" fill="#E4C1C1" fill-rule="nonzero"></path>
                    <path d="M55,293.999997 C32.9086,293.999997 15,274.076997 15,249.499997 C15,224.922997 32.9086,204.999997 55,204.999997 C77.091,204.999997 95,224.922997 95,249.499997 C95,274.076997 77.091,293.999997 55,293.999997 Z" id="Path" fill="#E4C1C1" fill-rule="nonzero"></path>
                    <path d="M48.814,149.863997 C45.867,71.9791972 108.009,6.9999972 185.95,6.9999972 C264.678,6.9999972 326.845,73.2276972 323.868,151.899997 C322.933,176.608997 322.423,197.347997 322.84,206.756997 C323.576,223.352997 315.529,272.322997 307.487,316.224997 C298.641,364.518997 261.13,402.181997 213.127,412.491997 C196.215,416.123997 178.709,416.166997 161.778,412.627997 C112.342,402.295997 73.915,363.069997 65.553,313.262997 C58.276,269.914997 50.921,222.526997 50.68,206.756997 C50.536,197.333997 49.79,175.637997 48.814,149.863997 Z" id="Path" fill="#F6DDD6" fill-rule="nonzero"></path>
                    <path d="M132.332,288.019997 L132.332,307.819997 C132.332,338.299997 156.961,362.999997 187.331,362.999997 C217.71,362.999997 242.329,338.299997 242.329,307.819997 L242.329,288.019997 L132.332,288.019997 Z" id="Path" fill="#393939"></path>
                    <g id="Clipped" transform="translate(132.000000, 287.999997)">
                        <mask id="mask-2" fill="white">
                            <use xlink:href="#path-1"></use>
                        </mask>
                        <g id="Path"></g>
                        <path d="M55.33,92.693 C73.649,92.693 88.498,84.583 88.498,74.58 C88.498,64.576 73.649,56.467 55.33,56.467 C37.012,56.467 22.162,64.576 22.162,74.58 C22.162,84.583 37.012,92.693 55.33,92.693 Z" id="Path" fill="#FF6C6C" fill-rule="nonzero" mask="url(#mask-2)"></path>
                    </g>
                    <rect id="Rectangle" fill="#FFFFFF" fill-rule="nonzero" x="132.332" y="288.019997" width="110" height="22.7466"></rect>
                    <path d="M104.513458,145.082658 C119.839875,142.527863 136.769314,143.938194 153.496921,149.842055 C156.621716,150.944924 158.260811,154.372123 157.157942,157.496918 C156.055073,160.621713 152.627874,162.260808 149.503079,161.157939 C134.704044,155.93475 119.827752,154.695459 106.486099,156.91941 C102.545513,157.575972 99.2936356,158.633976 96.6577079,159.961075 C95.1636992,160.713257 93.9906407,161.489167 93.1073206,162.22798 C92.8915669,162.408437 92.7158447,162.567971 92.5784789,162.702639 L92.4589693,162.821974 C92.4597004,162.819535 92.4791221,162.795765 92.516586,162.748951 C90.446096,165.336176 86.6702716,165.755073 84.0830462,163.684583 C81.4958208,161.614093 81.076924,157.838269 83.147414,155.251043 C83.6112461,154.671452 84.3555851,153.903852 85.408437,153.023242 C86.9899281,151.700476 88.9336667,150.414807 91.2614488,149.242848 C94.9803449,147.370512 99.3869609,145.936812 104.513458,145.082658 Z" id="Path" fill="#62360D" fill-rule="nonzero"></path>
                    <path d="M214.591648,149.359559 C228.55217,143.241421 249.391836,141.696956 264.265178,144.262191 C269.069267,145.090261 273.458721,146.662255 277.402347,148.76301 C279.525567,149.894041 281.395042,151.11249 283.004518,152.345157 L283.489195,152.722789 C284.25816,153.332646 284.832688,153.842154 285.208626,154.210754 C287.574748,156.530695 287.612185,160.329501 285.292243,162.695623 C283.031787,165.001076 279.367335,165.095731 276.99216,162.953048 L276.752131,162.729759 L276.637479,162.628385 C276.387767,162.409796 276.077302,162.154847 275.70805,161.872044 C274.60223,161.025116 273.280966,160.16397 271.760542,159.354046 C268.8999,157.830193 265.712135,156.688559 262.226224,156.0877 C249.512248,153.894895 231.009817,155.266144 219.408352,160.350435 C216.373305,161.680531 212.834658,160.298396 211.504562,157.263349 C210.174466,154.228302 211.556601,150.689655 214.591648,149.359559 Z" id="Path" fill="#62360D" fill-rule="nonzero"></path>
                    <path d="M179.929572,218.285046 L194.074428,227.714949 C189.267005,234.926083 185.502,245.750471 185.502,253.624997 C185.502,261.218017 188.243995,264.409704 196.638755,264.498105 L197.002,264.499997 L197.002,281.499997 C178.458881,281.499997 168.502,270.298506 168.502,253.624997 C168.502,242.329889 173.200935,228.618751 179.579977,218.815836 L179.929572,218.285046 Z" id="Path" fill="#EBBAAA" fill-rule="nonzero"></path>
                    <path d="M225.02456,196.66385 C238.399391,190.383061 257.506775,190.59005 274.284683,196.383335 C277.938965,197.64513 279.878458,201.630399 278.616662,205.284681 C277.354867,208.938962 273.369598,210.878455 269.715317,209.61666 C256.136088,204.927855 240.718477,204.760836 230.97544,209.336144 C227.476083,210.979434 223.307143,209.474794 221.663853,205.975437 C220.020563,202.47608 221.525203,198.30714 225.02456,196.66385 Z" id="Path" fill="#000000" fill-rule="nonzero"></path>
                    <path d="M92.0245601,196.66385 C105.399391,190.383061 124.506775,190.59005 141.284683,196.383335 C144.938965,197.64513 146.878458,201.630399 145.616662,205.284681 C144.354867,208.938962 140.369598,210.878455 136.715317,209.61666 C123.136088,204.927855 107.718477,204.760836 97.9754399,209.336144 C94.4760826,210.979434 90.3071432,209.474794 88.6638531,205.975437 C87.020563,202.47608 88.5252028,198.30714 92.0245601,196.66385 Z" id="Path" fill="#000000" fill-rule="nonzero"></path>
                    <path d="M165.240369,195.500805 C178.551325,189.162961 191.379731,188.542911 203.86778,195.338612 L204.354155,195.607135 L200.933845,201.714629 C190.622934,195.940325 180.143108,196.295044 168.759931,201.580983 L168.249631,201.820959 L165.240369,195.500805 Z" id="Path" fill="#000000" fill-rule="nonzero"></path>
                    <path d="M204.513,220.765882 L202.835,199.214882 C202.835,199.214882 213.287,175.728882 255.29,170.772882 C297.294,165.815882 315.864,191.644882 315.864,191.644882 L312.516,222.751882 C310.398,242.442882 293.51,257.204882 273.713,256.671882 L241.376,255.801882 C221.933,255.278882 206.023,240.157882 204.513,220.765882 Z" id="Path" fill-opacity="0.4" fill="#FFFFFF" fill-rule="nonzero"></path>
                    <path d="M253.874869,165.858931 C267.325311,164.119097 279.956307,165.085808 291.626163,168.184473 C300.297155,170.486858 307.761232,173.768183 313.907036,177.458542 C317.972107,179.899283 320.14188,184.441874 319.826041,189.23397 L319.799965,189.568684 L318.766965,201.070684 L310.799035,200.35508 L311.832067,188.852722 C312.008882,186.885947 311.216453,185.174311 309.788837,184.317145 C304.258059,180.99609 297.478239,178.015575 289.573087,175.916541 C278.879824,173.077188 267.290733,172.190219 254.901064,173.792841 C232.815259,176.649295 217.480918,183.515813 207.845903,191.620907 C206.91562,192.403452 206.452612,193.710049 206.612679,195.242529 L206.645153,195.499982 L208.480153,207.935982 L200.565847,209.103782 L198.730878,196.667995 C198.101735,192.405815 199.475189,188.208252 202.696057,185.498891 C213.489163,176.419596 230.249599,168.914491 253.874869,165.858931 Z" id="Path" fill="#000000" fill-rule="nonzero"></path>
                    <path d="M167.803,219.967882 L169.236,199.437882 C169.236,199.437882 158.794,176.470882 117.533,171.935882 C76.271,167.401882 58.249,192.895882 58.249,192.895882 L61.704,222.751882 C63.98,242.424882 80.985,257.051882 100.778,256.360882 L131.221,255.297882 C150.66,254.618882 166.448,239.370882 167.803,219.967882 Z" id="Path" fill-opacity="0.4" fill="#FFFFFF" fill-rule="nonzero"></path>
                    <path d="M81.9183044,169.585411 C93.3333227,166.468328 105.703013,165.429006 118.893216,167.027933 C141.857219,169.810807 158.294252,176.932572 169.027642,185.683717 C172.365329,188.405016 173.788323,192.698505 173.114567,197.028569 L173.057017,197.370464 L171.023017,208.605464 L163.150983,207.1803 L165.185009,195.945159 C165.494585,194.235533 165.020632,192.738731 163.972368,191.884055 C154.397444,184.077431 139.374861,177.568513 117.930641,174.969813 C105.799361,173.499249 94.4683075,174.451303 84.0256956,177.302853 C76.2952222,179.413802 69.6676444,182.381393 64.2596852,185.67852 C62.903714,186.504927 62.1335999,188.108312 62.2372386,189.967198 L62.2557355,190.211067 L63.3737355,201.870067 L55.4102645,202.633697 L54.2922392,190.974432 C53.8222089,186.06932 55.9606485,181.367754 60.0957585,178.847582 C66.1152969,175.177587 73.4244223,171.904824 81.9183044,169.585411 Z" id="Path" fill="#000000" fill-rule="nonzero"></path>
                    <path d="M248.852,59.5120972 C201.252,33.1120972 180.852,31.0116972 124.852,71.5120972 C68.352,57.0123972 118.852,20.0117972 140.852,9.0117872 C162.852,-1.9882128 212.352,-5.9882128 253.852,15.0117972 C295.352,36.0117972 308.352,92.5120972 248.852,59.5120972 Z" id="Path" fill="#311E1C" fill-rule="nonzero"></path>
                    <path d="M97.556,108.070997 C124.493,76.5123972 175.493,64.0123972 188.493,55.0123972 C193.494,52.5906972 193.493,15.9668972 181.493,6.5123572 C164.993,-6.4876428 106.493,19.0125972 80.493,43.5125972 C54.493,68.0125972 28.7127,118.999993 16.9933,192.512997 C11.4933,227.012997 7.4934,336.512997 7.4934,375.512997 C7.4934,414.512997 11.9934,465.012997 7.4934,509.512997 C4.4231,539.873997 3.41060513e-13,594.999993 3.41060513e-13,669.499993 C3.41060513e-13,686.512997 47.762,691.657997 50.493,677.999993 C54.493,657.999993 50.999,545.012997 55,509.512997 C59.41,470.386997 66.493,443.012997 60.993,406.512997 C55.494,370.012997 38.993,333.512997 45.493,312.012997 C51.993,290.512997 49.493,238.012997 50.493,205.512997 C51.493,173.012997 70.241,140.072997 97.556,108.070997 Z" id="Path" fill="#311E1C" fill-rule="nonzero"></path>
                    <path d="M60.5,525.499997 C54.1,495.099997 41.667,355.999997 39.5,290.999997 C40.5,291.332997 49.6,293.599997 52,293.999997 C54.4,294.399997 56.333,294.166997 57,293.999997 C59.833,306.499997 61.074,325.147997 70.5,343.999997 C78,358.999997 91.5,373.832997 98,380.499997 C103.667,402.666997 115.8,454.599997 119,484.999997 C123,522.999997 119,641.999997 110,641.999997 C89.107,641.999997 74.406,644.999997 70.5,632.499997 C63,608.499997 68.5,563.499997 60.5,525.499997 Z" id="Path" fill="#311E1C" fill-rule="nonzero"></path>
                    <path d="M273.501,96.0002972 C243.952,67.6337972 196.499,61.5004972 191.999,54.5004972 C187.332,38.5004972 186.413,11.6120972 207,4.5006572 C234.501,-4.9989828 307,33.4999972 331,96.0002972 C348.889,142.588997 361,251.999997 360.5,261.999997 C360,271.999997 343,432.999997 340.5,457.999997 C338,482.999997 339,501.499997 340.5,553.999997 C342,606.499997 342,650.974997 331,653.999997 C311,659.499997 248.5,651.499997 240,649.999997 C231.5,648.499997 237,613.799997 237,594.499997 C237,567.999997 255,478.499997 264.5,443.999997 C271.801,417.486997 308,332.999997 310.5,325.999997 C312.5,320.399997 315.501,301.666997 316.501,293.499997 L316.526,293.507997 C317.684,293.838997 318.867,294.176997 328.001,290.999997 C339.501,286.999997 352.001,273.499997 355.001,260.499997 C358.001,247.499997 355.501,234.499997 348.501,222.499997 C342.901,212.899997 327,206.666997 322.5,205.499997 C322.5,194.499997 321.999,180.999997 320.5,173.499997 C316.716,154.573997 298.501,119.999997 273.501,96.0002972 Z" id="Path" fill="#311E1C" fill-rule="nonzero"></path>
                </g>
            </g>
        </g>
    </g>
</svg>