<?xml version="1.0" encoding="UTF-8"?>
<svg width="508px" height="1415px" viewBox="0 0 508 1415" version="1.1" xmlns="http://www.w3.org/2000/svg" xmlns:xlink="http://www.w3.org/1999/xlink">
    <!-- Generator: Sketch 55.2 (78181) - https://sketchapp.com -->
    <title>gee_me_022</title>
    <desc>Created with Sketch.</desc>
    <defs>
        <path d="M0.09,0 C0.03,1.021 0,2.051 0,3.081 L0,22.367 C0,51.44 24.629,75 54.999,75 C85.378,75 109.997,51.44 109.997,22.367 L109.997,3.081 C109.997,2.051 109.967,1.021 109.907,0 L0.09,0 Z" id="path-1"></path>
    </defs>
    <g id="GEE!-ME" stroke="none" stroke-width="1" fill="none" fill-rule="evenodd">
        <g id="gee_me_022" transform="translate(-346.000000, -92.000000)">
            <g transform="translate(330.000000, 92.000000)">
                <g id="lower-limb" transform="translate(41.000000, 845.000000)" fill-rule="nonzero">
                    <path d="M300.510002,244.999991 C318.006164,244.912919 332.292941,258.883444 332.662667,276.310852 L332.6696,276.840002 L333.875009,517.840002 C333.962964,535.512893 319.707889,549.911236 302.034998,550.000009 C284.538836,550.087081 270.252059,536.116556 269.882333,518.689148 L269.8754,518.159998 L268.669991,277.159998 C268.582036,259.487107 282.837111,245.088764 300.510002,244.999991 Z" id="06" fill="#393939"></path>
                    <path d="M154.67,245 C172.166381,245 186.383128,259.041783 186.665713,276.470821 L186.67,277 L186.67,531 C186.67,548.673112 172.343112,563 154.67,563 C137.173619,563 122.956872,548.958217 122.674287,531.529179 L122.67,531 L122.67,277 C122.67,259.326888 136.996888,245 154.67,245 Z" id="05" fill="#393939"></path>
                    <g id="04" transform="translate(256.000000, 488.000000)">
                        <path d="M198.544,75.04 C198.72,54.86 195.572,53.35 175.613,45.08 C155.654,36.81 108.663,23.4 92.318,0.85 C92.318,0.85 87.774,0.1 80.383,3.61 C74.076,6.6 65.979,13.95 53.766,13.85 C40.503,13.73 28.682,11.25 21.335,7.85 C18.153,0.21 11.116,0.14 11.116,0.14 C11.116,0.14 1.226,16.72 1.081,33.38 C0.935,50.04 0.985,77.72 0.985,77.72 L198.544,75.04 Z" id="Rectangle-82" fill="#545454"></path>
                        <path d="M37.774,37.32 C34.274,35.27 14.232,27.66 5.277,22.46 C0.848,25.7 1.401,45.27 1.303,56.55 L45.283,58.98 C42.857,50.41 38.94,38.51 37.774,37.32 Z" id="Vector-456" fill="#666666"></path>
                        <path d="M152.19,49.42 C164.677,51.06 180.672,51.72 183.707,47.64 L163.262,41.31 L136.357,30.31 L129.326,33.83 L130.299,36.92 L115.214,46.53 L121.634,55.82 L121.733,55.77 C126.662,53.56 139.581,47.75 152.19,49.42 Z" id="Vector-454" fill="#666666"></path>
                        <path d="M93.0423841,3.13360089 C93.636863,1.76193772 95.2307359,1.13190533 96.6023991,1.72638414 C97.9740623,2.32086296 98.6040947,3.91473595 98.0096159,5.28639911 C97.4204067,6.64590337 96.978367,8.19296082 96.6676531,9.91776223 C96.4064248,11.3678643 96.2523985,12.7066899 96.1653651,14.2831164 L96.132,14.973 L110.650092,8.40388324 C112.684682,7.48323936 114.870044,9.27897958 114.416661,11.4202605 L114.379752,11.5737648 L111.351,22.819 L123.3638,18.8404784 C125.061152,18.2782002 126.809452,19.4852195 126.916646,21.23926 L126.92184,21.4106725 L126.918,32.908 L135.891365,27.9238391 C137.645663,26.949154 139.79041,28.1556415 139.907799,30.1203572 L139.91284,30.2905851 L139.90984,44.1705851 C139.909517,45.6655315 138.697361,46.87684 137.202415,46.87684 C135.762837,46.87684 134.585976,45.7524883 134.501064,44.3343092 L134.49616,44.1694149 L134.498,34.891 L125.525635,39.8761609 C123.771304,40.8508643 121.626525,39.6443134 121.509195,37.6795587 L121.50416,37.5093275 L121.507,25.158 L108.2822,29.5395216 C106.287019,30.2004611 104.355774,28.4396875 104.779936,26.4219186 L104.817248,26.2662352 L107.663,15.697 L94.4729081,21.6661168 C92.7335749,22.4531582 90.7689307,21.2415365 90.6553303,19.3711196 L90.6501601,19.1993042 L90.6529688,18.1450164 C90.6740481,14.2394042 90.8208614,11.8382754 91.339734,8.95796563 C91.720173,6.8461137 92.2750895,4.9040084 93.0423841,3.13360089 Z" id="Vector-293" fill="#393939"></path>
                        <path d="M1.41999961,74.55 L1.424,55.99 L159.828,67.03 L199.632,62.92 L200.457,69.81 C201.046,74.73 197.407,79.13 192.472,79.48 L159.825,81.81 L79.628,78.87 L5.752,78.88 C3.359,78.88 1.41999961,76.94 1.41999961,74.55 Z" id="Vector-414" fill="#393939"></path>
                    </g>
                    <g id="03" transform="translate(0.000000, 487.000000)">
                        <path d="M2.3361,75.29 C2.16,55.11 5.3077,53.59 25.2669,45.33 C45.2261,37.06 92.217,23.65 108.562,1.1 C108.562,1.1 113.106,0.34 120.497,3.85 C126.804,6.85 134.901,14.2 147.114,14.09 C160.377,13.98 172.198,11.49 179.545,8.1 C182.727,0.45 189.764,0.39 189.764,0.39 C189.764,0.39 199.654,16.97 199.799,33.63 C199.945,50.29 199.895,77.96 199.895,77.96 L2.3361,75.29 Z" id="Rectangle-82_2" fill="#545454"></path>
                        <path d="M163.106,37.57 C166.606,35.52 186.648,27.91 195.603,22.7 C200.032,25.95 199.479,45.51 199.577,56.79 L155.597,59.23 C158.022,50.66 161.94,38.76 163.106,37.57 Z" id="Vector-456_2" fill="#666666"></path>
                        <path d="M48.6895,49.66 C36.2032,51.31 20.2083,51.96 17.1726,47.89 L37.6181,41.56 L64.523,30.55 L71.554,34.08 L70.581,37.17 L85.665,46.78 L79.246,56.06 L79.147,56.02 C74.218,53.8 61.298,48 48.6895,49.66 Z" id="Vector-454_2" fill="#666666"></path>
                        <path d="M104.276204,1.97698984 C105.647533,1.38173977 107.24176,2.01087576 107.83701,3.38220441 C109.789981,7.88142974 110.22796,12.1381669 110.22984,19.4493042 C110.22984,21.3589297 108.315919,22.6498601 106.564677,21.9817819 L106.40598,21.9156135 L93.216,15.94 L96.0628613,26.5166425 C96.6089557,28.546073 94.7413216,30.3737537 92.7510974,29.8356194 L92.5978,29.7895216 L79.372,25.408 L79.3758399,37.7593275 C79.3763385,39.7662465 77.2803046,41.0556202 75.505636,40.2043983 L75.354365,40.1261609 L66.381,35.141 L66.3838399,44.4194149 C66.3841511,45.858993 65.2606195,47.0363396 63.8424771,47.1218643 L63.6775851,47.12684 C62.238007,47.12684 61.0606604,46.0036195 60.9751357,44.5854771 L60.9701601,44.4205851 L60.96716,30.5405851 C60.96716,28.5337037 63.062731,27.2443949 64.8373668,28.0956031 L64.988635,28.1738391 L73.961,33.158 L73.9581601,21.6606725 C73.9577158,19.8726122 75.6529598,18.5921448 77.3518379,19.0415466 L77.5162,19.0904784 L89.529,23.07 L86.5001387,11.8133575 C85.9197617,9.65652399 88.0453216,7.78947266 90.0854772,8.58313906 L90.2310197,8.64438655 L104.739,15.217 L104.725266,14.8938946 C104.545749,11.1096353 104.066904,8.41721669 103.001653,5.84584171 L102.87099,5.53779559 C102.27574,4.16646695 102.904876,2.57223991 104.276204,1.97698984 Z" id="Vector-293_2" fill="#393939"></path>
                        <path d="M199.46,74.8 L199.456,56.24 L41.0514,67.28 L1.2477,63.17 L0.4224,70.06 C-0.1658,74.97 3.4732,79.38 8.4082,79.73 L41.0546,82.05 L121.251,79.11 L195.128,79.13 C197.521,79.13 199.46,77.19 199.46,74.8 Z" id="Vector-414_2" fill="#393939"></path>
                    </g>
                    <polygon id="02" fill="#666666" points="228 0 68 0 118 456 192.171 466 220.086 218"></polygon>
                    <polygon id="01" fill="#666666" points="230 0 390 0 340 456 265.829 466 237.914 218"></polygon>
                </g>
                <g id="upper-limb" transform="translate(0.670928, 330.000000)" fill-rule="nonzero">
                    <path d="M395.543367,249.961696 C413.341464,239.921874 435.908555,246.211199 445.948376,264.009295 C469.645204,306.017856 487.136766,365.371584 496.165899,427.406316 C504.763932,486.479175 504.587436,539.901128 493.771339,569.64474 C486.787842,588.848932 465.558525,598.755764 446.354332,591.772267 C427.342181,584.858605 417.442374,563.982615 424.022359,544.931977 L424.226804,544.35526 C429.759326,529.141162 429.902136,485.915311 422.937494,438.064684 C415.114973,384.319984 400.086027,333.322593 381.495767,300.366705 C371.455946,282.568608 377.745271,260.001517 395.543367,249.961696 Z" id="14" fill="#EBBAAA"></path>
                    <path d="M92.0358762,264.011102 C102.075804,246.213066 124.642933,239.923877 142.44097,249.963805 C160.239006,260.003733 166.528195,282.570862 156.488267,300.368898 C137.897573,333.325094 122.868474,384.322543 115.045884,438.067572 L114.636521,440.932868 C108.155916,487.159384 108.330348,528.594672 113.592107,543.893787 L113.756462,544.358599 C120.739772,563.56286 110.832733,584.79208 91.6284726,591.77539 C72.4242118,598.7587 51.1949912,588.851662 44.2116814,569.647401 C33.3959175,539.903804 33.2194789,486.481693 41.8174839,427.409178 C50.8467056,365.373992 68.3384793,306.020081 92.0358762,264.011102 Z" id="13" fill="#EBBAAA"></path>
                    <rect id="12" fill="#8D5D42" transform="translate(133.267859, 341.718076) rotate(15.000000) translate(-133.267859, -341.718076) " x="48.2678594" y="145.307076" width="170" height="392.822" rx="85"></rect>
                    <rect id="11" fill="#8D5D42" transform="translate(404.937260, 341.718107) scale(-1, 1) rotate(14.999995) translate(-404.937260, -341.718107) " x="319.937247" y="145.307076" width="170.000027" height="392.822061" rx="85"></rect>
                    <g id="10" transform="translate(409.329072, 367.000000)" fill="#A87C63">
                        <polygon id="Vector-452" points="72.5 0 0 22 79 14.5"></polygon>
                        <polygon id="Vector-453" points="59 32 3 29 51.5 44.5"></polygon>
                    </g>
                    <g id="09" transform="translate(45.329072, 374.000000)" fill="#A87C63">
                        <polygon id="Vector-452_2" points="6.5 0 79 22 0 14.5"></polygon>
                        <polygon id="Vector-453_2" points="20 32 76 29 27.5 44.5"></polygon>
                    </g>
                    <path d="M516.998072,544 C523.398072,525.6 524.998072,461 516.998072,431 L402.999072,426 C415.200072,464 417.199072,514 426.199072,563 L426.353072,563.007 C447.499072,564.014 509.018072,566.944 516.998072,544 Z" id="08" fill="#8D5D42"></path>
                    <path d="M21.4164716,544 C15.0164716,525.6 13.4166716,461 21.4165716,431 L135.416072,426 C123.215072,464 121.215072,514 112.215072,563 L112.062072,563.007 C90.9162716,564.014 29.3970716,566.944 21.4164716,544 Z" id="07" fill="#8D5D42"></path>
                    <path d="M101.217072,198.533 C99.9536716,173.136 117.952072,150.837 143.042072,146.711 L268.999072,126 L394.957072,146.711 C420.047072,150.837 438.045072,173.136 436.782072,198.533 L428.999072,355 C428.999072,355 432.121072,496.461 433.999072,542 C435.695072,583.112 438.482072,835.21 438.936655,877.1 C438.976072,880.83 436.958072,884.07 433.546072,885.57 C416.963072,892.83 362.481072,913 268.999072,913 C175.726072,913 121.280072,892.92 104.565072,885.61 C101.096072,884.1 99.0610716,880.76 99.1654716,876.98 C100.332072,834.72 107.305072,583.072 108.999072,542 C110.877072,496.461 108.999072,355 108.999072,355 L101.217072,198.533 Z" id="06" fill="#AC785B"></path>
                    <path d="M258.829072,508 C258.829072,480.8 254.662072,312 247.329072,232 L236.829072,190 L258.329072,191 C260.040072,204.869 264.329072,239 270.329072,268 L279.829072,191 L296.829072,190 C296.829072,208.667 289.329072,250.4 289.329072,268 C289.329072,285.6 288.329072,816 288.329072,912 L258.829072,912 L258.829072,508 Z" id="05" fill="#8D5D42"></path>
                    <path d="M275.325616,276.796403 C279.022464,385.679832 283.993671,865.6579 281.393789,911.682213 L281.312678,912.94323 L269.345465,912.05677 C272.055564,875.470441 267.150782,396.44401 263.444464,280.601964 L263.332527,277.203597 L275.325616,276.796403 Z" id="04" fill="#45474A"></path>
                    <path d="M267.206646,265.32952 C270.813901,264.181757 274.663449,266.110119 275.922718,269.649484 L275.999552,269.877574 L282.999552,291.877574 C284.171735,295.561579 282.135502,299.498297 278.451497,300.67048 C274.844243,301.818243 270.994695,299.889881 269.735425,296.350516 L269.658591,296.122426 L262.658591,274.122426 C261.486408,270.438421 263.522641,266.501703 267.206646,265.32952 Z" id="03" fill="#A2A3A4"></path>
                    <path d="M268.998072,234 C307.658072,234 338.998072,202.66 338.998072,164 C338.998072,125.34 307.658072,94 268.998072,94 C230.338072,94 198.998072,125.34 198.998072,164 C198.998072,202.66 230.338072,234 268.998072,234 Z" id="02" fill="#8D5D42"></path>
                    <rect id="01" fill="#EBBAAA" x="220.999072" y="0" width="96" height="194" rx="48"></rect>
                    <g id="Group-276" transform="translate(271.329072, 111.000000)">
                        <polygon id="Vector-647" fill="#45474A" points="0 98.5 46.5 0 81 28.5 60 110.5"></polygon>
                        <polygon id="Vector-680" fill="#A2A3A4" points="50.8644497 5.62605412 60.1355503 9.37394588 22.1355503 103.373946 12.8644497 99.6260541"></polygon>
                        <polygon id="Vector-681" fill="#A2A3A4" points="65.2246793 18.0180039 74.7753207 20.9819961 47.7753207 107.981996 38.2246793 105.018004"></polygon>
                    </g>
                    <g id="Group-277" transform="translate(186.329072, 111.000000)">
                        <polygon id="Vector-647_2" fill="#45474A" points="81 98.5 34.5 0 0 28.5 21 110.5"></polygon>
                        <polygon id="Vector-680_2" fill="#A2A3A4" points="30.1355503 5.62605412 68.1355503 99.6260541 58.8644497 103.373946 20.8644497 9.37394588"></polygon>
                        <polygon id="Vector-681_2" fill="#A2A3A4" points="15.7753207 18.0180039 42.7753207 105.018004 33.2246793 107.981996 6.22467932 20.9819961"></polygon>
                    </g>
                </g>
                <g id="hand" transform="translate(79.668900, 0.687571)">
                    <path d="M337.3311,306.312429 C337.3311,306.312429 305.3311,399.312429 403.3311,464.312429 C403.3311,464.312429 373.3311,496.312429 315.3311,483.812429 C251.3311,470.019429 238.0011,442.137373 238.0011,442.137373 C238.0011,431.587411 238.0011,424.296602 238.0011,420.264947 C238.0011,393.93235 225.777767,355.948178 201.3311,306.312429 L337.3311,306.312429 Z" id="22" fill="#393939"></path>
                    <path d="M340.0011,315.313429 C362.0921,315.313429 380.0011,297.404429 380.0011,275.313429 C380.0011,253.221429 362.0921,235.313429 340.0011,235.313429 C317.9101,235.313429 300.0011,253.221429 300.0011,275.313429 C300.0011,297.404429 317.9101,315.313429 340.0011,315.313429 Z" id="21" fill="#E4C1C1" fill-rule="nonzero"></path>
                    <path d="M40.0001,315.313429 C17.9087,315.313429 9.23705556e-14,297.404429 9.23705556e-14,275.313429 C9.23705556e-14,253.221429 17.9087,235.313429 40.0001,235.313429 C62.0911,235.313429 80.0001,253.221429 80.0001,275.313429 C80.0001,297.404429 62.0911,315.313429 40.0001,315.313429 Z" id="20" fill="#E4C1C1" fill-rule="nonzero"></path>
                    <rect id="19" fill="#F6DDD6" fill-rule="nonzero" x="40.0011" y="27.3124294" width="300" height="400" rx="150"></rect>
                    <circle id="18" fill="#F2CACA" fill-rule="nonzero" cx="90.3311" cy="277.312429" r="30"></circle>
                    <circle id="17" fill="#F2CACA" fill-rule="nonzero" cx="290.3311" cy="277.312429" r="30"></circle>
                    <g id="16" transform="translate(135.331100, 316.312429)">
                        <path d="M0,0.02 L0,19.82 C0,50.3 24.629,75 54.999,75 C85.378,75 109.997,50.3 109.997,19.82 L109.997,0.02 L0,0.02 Z" fill="#393939"></path>
                        <g>
                            <g>
                                <mask id="mask-2" fill="white">
                                    <use xlink:href="#path-1"></use>
                                </mask>
                                <g></g>
                                <path d="M54.998,92.693 C73.316,92.693 88.166,84.583 88.166,74.58 C88.166,64.576 73.316,56.467 54.998,56.467 C36.68,56.467 21.83,64.576 21.83,74.58 C21.83,84.583 36.68,92.693 54.998,92.693 Z" fill="#FF6C6C" fill-rule="nonzero" mask="url(#mask-2)"></path>
                            </g>
                        </g>
                        <rect fill="#FFFFFF" fill-rule="nonzero" x="0" y="0.02" width="110" height="22.7466"></rect>
                    </g>
                    <path d="M135.3311,208.312429 C138.092524,208.312429 140.3311,210.551006 140.3311,213.312429 C140.3311,216.001184 138.208793,218.194248 135.54799,218.30781 L135.3311,218.312429 L105.3311,218.312429 C102.569676,218.312429 100.3311,216.073853 100.3311,213.312429 C100.3311,210.623675 102.453407,208.430611 105.11421,208.317049 L105.3311,208.312429 L135.3311,208.312429 Z" id="15" fill="#000000" fill-rule="nonzero"></path>
                    <path d="M275.3311,208.312429 C278.092524,208.312429 280.3311,210.551006 280.3311,213.312429 C280.3311,216.001184 278.208793,218.194248 275.54799,218.30781 L275.3311,218.312429 L245.3311,218.312429 C242.569676,218.312429 240.3311,216.073853 240.3311,213.312429 C240.3311,210.623675 242.453407,208.430611 245.11421,208.317049 L245.3311,208.312429 L275.3311,208.312429 Z" id="14" fill="#000000" fill-rule="nonzero"></path>
                    <path d="M249.3311,200.312429 C255.856557,200.312429 261.165493,205.520974 261.3273,212.007455 L261.3311,212.312429 L261.3311,231.312429 C261.3311,237.939846 255.958517,243.312429 249.3311,243.312429 C242.805643,243.312429 237.496707,238.103885 237.3349,231.617404 L237.3311,231.312429 L237.3311,212.312429 C237.3311,205.685012 242.703683,200.312429 249.3311,200.312429 Z" id="13" fill="#000000" fill-rule="nonzero"></path>
                    <path d="M131.3351,200.312429 C137.860557,200.312429 143.169493,205.520974 143.3313,212.007455 L143.3351,212.312429 L143.3351,231.312429 C143.3351,237.939846 137.962517,243.312429 131.3351,243.312429 C124.809643,243.312429 119.500707,238.103885 119.3389,231.617404 L119.3351,231.312429 L119.3351,212.312429 C119.3351,205.685012 124.707683,200.312429 131.3351,200.312429 Z" id="12" fill="#000000" fill-rule="nonzero"></path>
                    <path d="M228.646453,163.320722 L285.646453,166.320722 C288.955581,166.494887 291.496972,169.318654 291.322807,172.627782 C291.152601,175.861703 288.45186,178.362387 285.240592,178.311826 L285.015747,178.304136 L228.015747,175.304136 C224.706619,175.129972 222.165228,172.306205 222.339393,168.997076 C222.509599,165.763155 225.21034,163.262472 228.421608,163.313033 L228.646453,163.320722 Z" id="11" fill="#271E1E" fill-rule="nonzero"></path>
                    <path d="M152.015747,163.320722 C155.324875,163.146558 158.148642,165.687948 158.322807,168.997076 C158.493013,172.230997 156.069696,175.001368 152.870863,175.288181 L152.646453,175.304136 L95.646453,178.304136 C92.3373246,178.478301 89.5135577,175.936911 89.339393,172.627782 C89.1691867,169.393861 91.5925035,166.623491 94.7913372,166.336678 L95.015747,166.320722 L152.015747,163.320722 Z" id="10" fill="#271E1E" fill-rule="nonzero"></path>
                    <path d="M307.3311,194.312429 L213.3311,194.312429 C208.243516,194.312429 204.3311,198.565055 204.3311,203.573299 L204.3311,217.703734 C204.3311,238.920673 220.331516,256.312429 240.3311,256.312429 L280.3311,256.312429 C300.330684,256.312429 316.3311,238.920673 316.3311,217.703734 L316.3311,203.573299 C316.3311,198.565055 312.418684,194.312429 307.3311,194.312429 Z M216.331,206.312 L304.3311,206.312 L304.3311,217.703734 C304.3311,232.50636 293.469516,244.312429 280.3311,244.312429 L240.3311,244.312429 L239.937639,244.308896 C226.976539,244.076008 216.331,232.358333 216.331,217.703734 L216.331,206.312 Z" id="09" fill="#393939" fill-rule="nonzero"></path>
                    <rect id="08" fill="#393939" fill-rule="nonzero" x="166.3311" y="212.312429" width="50" height="10"></rect>
                    <path d="M167.3311,194.312429 L73.3311,194.312429 C68.2409262,194.312429 64.3311,198.569796 64.3311,203.579096 L64.3311,216.645763 C64.3311,237.892574 80.3289262,255.312429 100.3311,255.312429 L140.3311,255.312429 C160.333274,255.312429 176.3311,237.892574 176.3311,216.645763 L176.3311,203.579096 C176.3311,198.569796 172.421274,194.312429 167.3311,194.312429 Z M76.331,206.312 L164.3311,206.312 L164.3311,216.645763 C164.3311,231.482551 153.466926,243.312429 140.3311,243.312429 L100.3311,243.312429 L99.9377153,243.308889 C86.9790767,243.075531 76.331,231.334183 76.331,216.645763 L76.331,206.312 Z" id="07" fill="#393939" fill-rule="nonzero"></path>
                    <path d="M344.9921,141.798429 C345.2251,135.528429 340.6841,130.313429 335.0011,130.313429 C329.1041,130.313429 324.4891,135.907429 325.0471,142.382429 L334.4621,252.085429 C334.6201,253.919429 336.0131,255.313429 337.6751,255.313429 C339.4121,255.313429 340.8321,253.807429 340.9071,251.901429 L344.9921,141.798429 Z" id="05" fill="#393939" fill-rule="nonzero"></path>
                    <path d="M35.0091,141.798429 C34.7771,135.528429 39.3181,130.313429 45.0011,130.313429 C50.8971,130.313429 55.5121,135.907429 54.9551,142.382429 L45.5401,252.085429 C45.3821,253.919429 43.9891,255.313429 42.3271,255.313429 C40.5901,255.313429 39.1691,253.807429 39.0951,251.901429 L35.0091,141.798429 Z" id="04" fill="#393939" fill-rule="nonzero"></path>
                    <path d="M187.8901,103.433429 C260.2331,103.433429 326.321953,134.987789 329.304953,190.681789 C341.507953,208.794789 345.000682,165.02001 345.000682,131.93501 C345.000682,26.1930095 253.214575,-3.46266029 182.6991,0.312429414 C117.003477,9.27854467 115.5391,103.433429 187.8901,103.433429 Z" id="03" fill="#393939" fill-rule="nonzero"></path>
                    <path d="M195.8891,83.4337294 C121.6421,83.4337294 54.1773864,132.085958 51.1163864,187.779958 C38.5913864,205.892958 35.0005896,165.19155 35.0005896,132.09955 C35.0005896,23.3575502 130.5571,0.312429414 201.2161,0.312429414 C249.665752,5.13022015 270.1431,83.4337294 195.8891,83.4337294 Z" id="02" fill="#393939" fill-rule="nonzero"></path>
                    <path d="M182.928672,240.597478 L197.073528,250.027381 C192.266105,257.238515 188.5011,268.062904 188.5011,275.937429 C188.5011,283.530449 191.243095,286.722137 199.637855,286.810537 L200.0011,286.812429 L200.0011,303.812429 C181.457981,303.812429 171.5011,292.610938 171.5011,275.937429 C171.5011,264.642321 176.200035,250.931183 182.579077,241.128268 L182.928672,240.597478 Z" id="01" fill="#EBBAAA" fill-rule="nonzero"></path>
                </g>
            </g>
        </g>
    </g>
</svg>