<?xml version="1.0" encoding="UTF-8"?>
<svg width="475px" height="1339px" viewBox="0 0 475 1339" version="1.1" xmlns="http://www.w3.org/2000/svg" xmlns:xlink="http://www.w3.org/1999/xlink">
    <!-- Generator: Sketch 55.2 (78181) - https://sketchapp.com -->
    <title>gee_me_069</title>
    <desc>Created with Sketch.</desc>
    <defs>
        <path d="M0.673,0.984 C0.624,1.532 0.6,2.085 0.6,2.637 L0.6,12.985 C0.6,28.583 20.467,41.223 44.964,41.223 C69.47,41.223 89.328,28.583 89.328,12.985 L89.328,2.637 C89.328,2.085 89.304,1.532 89.256,0.984 L0.673,0.984 Z" id="path-1"></path>
    </defs>
    <g id="GEE!-ME" stroke="none" stroke-width="1" fill="none" fill-rule="evenodd">
        <g id="gee_me_069" transform="translate(-363.000000, -131.000000)">
            <g transform="translate(363.000000, 131.000000)">
                <g id="lower-limb" transform="translate(36.438375, 676.828000)" fill-rule="nonzero">
                    <path d="M118.809625,558.542 C122.744625,546.742 114.984625,537.232 110.612625,533.952 C108.426625,537.012 105.694625,552.532 100.776625,564.552 L87.9346251,580.132 L68.5346251,603.352 L44.4899251,614.832 L57.0586251,629.582 C65.6196251,623.032 114.875625,570.352 118.809625,558.542 Z" id="Path" fill="#E4E4E0"></path>
                    <path d="M193.267625,639.642 C193.267625,639.642 193.967625,613.992 188.509625,599.782 C183.050625,585.572 177.426625,548.932 177.426625,548.932 C177.426625,548.932 167.743625,559.312 149.709625,559.312 C131.676625,559.312 112.549625,554.972 112.549625,554.972 C112.549625,554.972 79.0556251,599.202 70.3116251,604.672 C61.5676251,610.132 18.9435251,621.612 18.9435251,621.612 C9.58762508,621.612 2.00292508,629.192 2.00292508,638.552 L2.00292508,647.172 L104.739625,647.172 L193.267625,639.642 Z" id="Path" fill="#F7F6F6"></path>
                    <path d="M94.7021516,565.037154 C95.3499565,563.413185 97.150427,562.593135 98.7877299,563.14241 L98.9624709,563.206527 L104.427471,565.386527 C106.109439,566.057467 106.929039,567.964877 106.258099,569.646846 C105.610294,571.270815 103.809823,572.090865 102.17252,571.54159 L101.997779,571.477473 L96.5327793,569.297473 C94.8508107,568.626533 94.0312108,566.719123 94.7021516,565.037154 Z" id="Path" fill="#ECECEC"></path>
                    <path d="M87.5961516,574.877154 C88.2439565,573.253185 90.044427,572.433135 91.6817299,572.98241 L91.8564709,573.046527 L97.3214709,575.226527 C99.0034394,575.897467 99.8230393,577.804877 99.1520986,579.486846 C98.5042936,581.110815 96.7038231,581.930865 95.0665203,581.38159 L94.8917793,581.317473 L89.4267793,579.137473 C87.7448107,578.466533 86.9252108,576.559123 87.5961516,574.877154 Z" id="Path" fill="#ECECEC"></path>
                    <path d="M79.945072,584.702351 C80.5954381,583.079405 82.3972001,582.262198 84.0336344,582.814055 L84.208274,582.878447 L89.673274,585.068447 C91.354182,585.74204 92.1707717,587.650741 91.4971782,589.331649 C90.846812,590.954595 89.04505,591.771802 87.4086158,591.219945 L87.2339762,591.155553 L81.7689762,588.965553 C80.0880682,588.29196 79.2714785,586.383259 79.945072,584.702351 Z" id="Path" fill="#ECECEC"></path>
                    <path d="M70.1091516,594.547154 C70.7569565,592.923185 72.557427,592.103135 74.1947299,592.65241 L74.3694709,592.716527 L79.8344709,594.896527 C81.5164394,595.567467 82.3360393,597.474877 81.6650986,599.156846 C81.0172936,600.780815 79.2168231,601.600865 77.5795203,601.05159 L77.4047793,600.987473 L71.9397793,598.807473 C70.2578107,598.136533 69.4382108,596.229123 70.1091516,594.547154 Z" id="Path" fill="#ECECEC"></path>
                    <path d="M61.365072,603.282351 C62.0154381,601.659405 63.8172001,600.842198 65.4536344,601.394055 L65.628274,601.458447 L71.093274,603.648447 C72.774182,604.32204 73.5907717,606.230741 72.9171782,607.911649 C72.266812,609.534595 70.46505,610.351802 68.8286158,609.799945 L68.6539762,609.735553 L63.1889762,607.545553 C61.5080682,606.87196 60.6914785,604.963259 61.365072,603.282351 Z" id="Path" fill="#ECECEC"></path>
                    <path d="M194.712625,638.442 L97.9866251,642.822 L1.80742508,638.442 L0.290725077,651.022 C-0.169574923,654.842 2.73662508,658.232 6.57852508,658.362 L95.9806251,661.402 L145.892625,661.942 L195.804625,660.302 L194.712625,638.442 Z" id="Path" fill="#E4E4E0"></path>
                    <path d="M194.436108,649.387521 L194.593142,653.756479 L165.583161,654.85356 L154.463438,655.244245 C141.122839,655.691317 131.044374,655.938099 124.413348,655.947605 L122.479002,655.943175 C108.741685,655.863393 79.8042113,654.785786 67.8910343,653.824376 L66.9977558,653.749715 L67.3754944,649.394285 L68.2703308,649.469021 C80.5251649,650.456654 111.151572,651.57611 124.019625,651.57611 L126.053718,651.569028 C132.467538,651.526649 141.679337,651.295057 153.530457,650.901165 L160.689759,650.655029 L194.436108,649.387521 Z" id="Path" fill="#F7F6F6"></path>
                    <path d="M70.4226251,660.792 L70.4226251,650.952 L70.4226251,647.132 L1.01972508,643.852 L0.0340250771,652.722 C-0.318274923,655.892 2.10872508,658.692 5.29722508,658.792 L70.4226251,660.792 Z" id="Path" fill="#ECEADF"></path>
                    <circle id="Oval" fill="#E4E4E0" transform="translate(154.953625, 595.932000) scale(-1, 1) translate(-154.953625, -595.932000) " cx="154.953625" cy="595.932" r="19.673"></circle>
                    <path d="M155.532625,581.222 C155.082625,580.442 153.926625,580.512 153.576625,581.342 L150.309625,589.132 C150.170625,589.462 149.876625,589.702 149.524625,589.772 L141.260625,591.492 C140.373625,591.682 140.083625,592.802 140.769625,593.392 L147.162625,598.902 C147.435625,599.142 147.574625,599.492 147.535625,599.852 L146.619625,608.242 C146.520625,609.142 147.497625,609.772 148.272625,609.302 L155.490625,604.922 C155.798625,604.732 156.177625,604.712 156.505625,604.862 L164.203625,608.322 C165.029625,608.692 165.923625,607.962 165.716625,607.072 L163.784625,598.862 C163.701625,598.512 163.796625,598.142 164.038625,597.872 L169.712625,591.622 C170.321625,590.952 169.897625,589.872 168.994625,589.802 L160.581625,589.102 C160.223625,589.072 159.902625,588.862 159.723625,588.552 L155.532625,581.222 Z" id="Path" fill="#F7F6F6"></path>
                    <path d="M287.762625,558.542 C283.827625,546.742 291.587625,537.232 295.959625,533.952 C298.145625,537.012 300.877625,552.532 305.795625,564.552 L318.637625,580.132 L338.037625,603.352 L362.082625,614.832 L349.513625,629.582 C340.951625,623.032 291.696625,570.352 287.762625,558.542 Z" id="Path" fill="#E4E4E0"></path>
                    <path d="M213.304625,639.642 C213.304625,639.642 212.604625,613.992 218.062625,599.782 C223.521625,585.572 229.145625,548.932 229.145625,548.932 C229.145625,548.932 238.828625,559.312 256.862625,559.312 C274.895625,559.312 294.022625,554.972 294.022625,554.972 C294.022625,554.972 327.516625,599.202 336.260625,604.672 C345.004625,610.132 387.628625,621.612 387.628625,621.612 C396.984625,621.612 404.569625,629.192 404.569625,638.552 L404.569625,647.172 L301.832625,647.172 L213.304625,639.642 Z" id="Path" fill="#F7F6F6"></path>
                    <path d="M307.609779,563.206527 C309.291748,562.535586 311.199158,563.355186 311.870099,565.037154 C312.517903,566.661124 311.776191,568.495255 310.210366,569.223715 L310.039471,569.297473 L304.574471,571.477473 C302.892502,572.148414 300.985092,571.328814 300.314152,569.646846 C299.666347,568.022876 300.408059,566.188745 301.973885,565.460285 L302.144779,565.386527 L307.609779,563.206527 Z" id="Path" fill="#ECECEC"></path>
                    <path d="M314.715779,573.046527 C316.397748,572.375586 318.305158,573.195186 318.976099,574.877154 C319.623903,576.501124 318.882191,578.335255 317.316366,579.063715 L317.145471,579.137473 L311.680471,581.317473 C309.998502,581.988414 308.091092,581.168814 307.420152,579.486846 C306.772347,577.862876 307.514059,576.028745 309.079885,575.300285 L309.250779,575.226527 L314.715779,573.046527 Z" id="Path" fill="#ECECEC"></path>
                    <path d="M322.363976,582.878447 C324.044884,582.204853 325.953585,583.021443 326.627178,584.702351 C327.277544,586.325297 326.538727,588.160596 324.974052,588.891525 L324.803274,588.965553 L319.338274,591.155553 C317.657366,591.829147 315.748665,591.012557 315.075072,589.331649 C314.424706,587.708703 315.163524,585.873404 316.728198,585.142475 L316.898976,585.068447 L322.363976,582.878447 Z" id="Path" fill="#ECECEC"></path>
                    <path d="M332.202779,592.716527 C333.884748,592.045586 335.792158,592.865186 336.463099,594.547154 C337.110903,596.171124 336.369191,598.005255 334.803366,598.733715 L334.632471,598.807473 L329.167471,600.987473 C327.485502,601.658414 325.578092,600.838814 324.907152,599.156846 C324.259347,597.532876 325.001059,595.698745 326.566885,594.970285 L326.737779,594.896527 L332.202779,592.716527 Z" id="Path" fill="#ECECEC"></path>
                    <path d="M340.944168,601.45837 C342.625119,600.784883 344.533768,601.601593 345.207255,603.282543 C345.857519,604.90553 345.118585,606.740783 343.553865,607.471613 L343.383082,607.54563 L337.917082,609.73563 C336.236131,610.409117 334.327482,609.592407 333.653995,607.911457 C333.003731,606.28847 333.742665,604.453217 335.307386,603.722387 L335.478168,603.64837 L340.944168,601.45837 Z" id="Path" fill="#ECECEC"></path>
                    <path d="M211.859625,638.442 L308.585625,642.822 L404.764625,638.442 L406.281625,651.022 C406.741625,654.842 403.835625,658.232 399.993625,658.362 L310.591625,661.402 L260.679625,661.942 L210.767625,660.302 L211.859625,638.442 Z" id="Path" fill="#E4E4E0"></path>
                    <path d="M211.979108,653.756479 L212.136142,649.387521 L241.148358,650.484694 C243.581503,650.573536 245.909024,650.656683 248.161572,650.73505 L257.641364,651.050024 C268.537826,651.392363 276.890995,651.57611 282.552625,651.57611 L284.093454,651.571335 C297.720241,651.491278 326.512459,650.419149 338.301919,649.469021 L339.196756,649.394285 L339.574494,653.749715 L338.669607,653.825312 C326.753121,654.786173 297.84489,655.862719 284.106633,655.943097 L282.158888,655.947605 L280.066288,655.937672 C273.33299,655.88561 263.697804,655.635857 251.304947,655.217211 L245.72838,655.024104 L211.979108,653.756479 Z" id="Path" fill="#F7F6F6"></path>
                    <path d="M336.149625,660.792 L336.149625,650.952 L336.149625,647.132 L405.552625,643.852 L406.538625,652.722 C406.890625,655.892 404.463625,658.692 401.274625,658.792 L336.149625,660.792 Z" id="Path" fill="#ECEADF"></path>
                    <circle id="Oval" fill="#E4E4E0" cx="251.616625" cy="595.932" r="19.673"></circle>
                    <path d="M251.038625,581.222 C251.487625,580.442 252.644625,580.512 252.994625,581.342 L256.261625,589.132 C256.400625,589.462 256.694625,589.702 257.046625,589.772 L265.310625,591.492 C266.197625,591.682 266.487625,592.802 265.801625,593.392 L259.408625,598.902 C259.135625,599.142 258.996625,599.492 259.035625,599.852 L259.951625,608.242 C260.049625,609.142 259.073625,609.772 258.298625,609.302 L251.080625,604.922 C250.772625,604.732 250.392625,604.712 250.064625,604.862 L242.366625,608.322 C241.540625,608.692 240.647625,607.962 240.854625,607.072 L242.786625,598.862 C242.869625,598.512 242.773625,598.142 242.532625,597.872 L236.858625,591.622 C236.249625,590.952 236.673625,589.872 237.576625,589.802 L245.988625,589.102 C246.347625,589.072 246.668625,588.862 246.846625,588.552 L251.038625,581.222 Z" id="Path" fill="#F7F6F6"></path>
                    <path d="M257.181625,363.17475 C272.412908,363.17475 284.789141,375.398671 285.035143,390.571329 L285.038875,391.032 L285.038875,547.862 C285.038875,563.247134 272.566759,575.71925 257.181625,575.71925 C241.950342,575.71925 229.574109,563.495329 229.328107,548.322671 L229.324375,547.862 L229.324375,391.032 C229.324375,375.646866 241.796491,363.17475 257.181625,363.17475 Z" id="Path" fill="#EBBAAA"></path>
                    <path d="M149.879625,363.17475 C165.110908,363.17475 177.487141,375.398671 177.733143,390.571329 L177.736875,391.032 L177.736875,545.792 C177.736875,561.177134 165.264759,573.64925 149.879625,573.64925 C134.648342,573.64925 122.272109,561.425329 122.026107,546.252671 L122.022375,545.792 L122.022375,391.032 C122.022375,375.646866 134.494491,363.17475 149.879625,363.17475 Z" id="Path" fill="#EBBAAA"></path>
                    <path d="M15.7523251,533.162 L60.1176251,135.983 L92.6176251,-3.41060513e-13 L210.688625,33.387 C227.096625,186.205 208.401625,579.582 187.071625,585.502 C165.741625,591.422 22.5892251,546.312 15.7523251,533.162 Z" id="Path" fill="#F7F6F6"></path>
                    <path d="M395.435625,533.162 L351.070625,135.983 L318.569625,-3.41060513e-13 L200.498625,33.387 C184.090625,186.205 202.785625,579.582 224.115625,585.502 C245.445625,591.422 388.598625,546.312 395.435625,533.162 Z" id="Path" fill="#F7F6F6"></path>
                </g>
                <g id="upper-limb" transform="translate(0.570825, 274.445000)" fill-rule="nonzero">
                    <path d="M80.697194,185.145416 C89.0961105,170.256382 107.974725,164.995102 122.863759,173.394019 C137.752793,181.792936 143.014072,200.67155 134.615156,215.560584 C114.936036,250.446404 99.1895366,303.878514 91.0008742,360.139008 C83.7291774,410.099459 83.8040528,455.285444 89.8451763,472.791308 L90.0300654,473.313293 C95.8719719,489.378698 87.5841881,507.138084 71.5187823,512.97999 C55.4533765,518.821897 37.693991,510.534113 31.8520846,494.468707 C21.2085817,465.198777 21.029821,411.075615 29.7413507,351.222742 C38.9394172,288.027101 56.746056,227.604382 80.697194,185.145416 Z" id="Path" fill="#EBBAAA"></path>
                    <path d="M203.353175,241.863 C220.493175,195.689 194.197175,144.779 146.623175,132.032 C102.031175,120.083 56.195975,146.546 44.247575,191.138 L8.09077498,326.077 C-5.51812502,376.866 34.624375,426.064 87.111175,422.923 C117.587175,421.099 144.111175,401.451 154.736175,372.829 L203.353175,241.863 Z" id="Path" fill="#F0F0EC"></path>
                    <polygon id="Path" fill="#FFFFFF" points="50.107975 299.207 124.910175 321.906 43.401575 314.168"></polygon>
                    <path d="M4.28827498,452.938 C-1.96012502,433.911 -0.804519276,363.664485 7.00588072,332.643485 L115.587175,344.604 C103.675175,383.897 124.374175,380.604 115.587175,431.271 C95.085175,432.305 12.098775,476.72 4.28827498,452.938 Z" id="Path" fill="#F0F0EC"></path>
                    <polygon id="Path" fill="#7EBFD7" points="408.605175 332.223 350.827175 329.128 400.867175 345.12"></polygon>
                    <path d="M350.063493,163.914075 C364.952496,155.515104 383.831129,160.776314 392.2301,175.665318 C416.181444,218.124285 433.988078,278.546977 443.186069,341.74279 C451.897475,401.595475 451.718627,455.718719 441.075185,484.988652 C435.233309,501.054069 417.473939,509.341887 401.408523,503.50001 C385.50376,497.716553 377.221823,480.25276 382.726141,464.315805 L382.897165,463.833348 C389.12092,446.717746 389.271583,401.123954 381.926531,350.65896 C373.737948,294.398391 357.991481,240.966402 338.31225,206.080682 C329.913279,191.191679 335.174489,172.313046 350.063493,163.914075 Z" id="Path" fill="#EBBAAA"></path>
                    <path d="M263.733175,241.318 C249.316175,194.613 276.577175,145.278 323.790175,132.627 C369.659175,120.337 416.829175,147.457 429.286175,193.281 L460.942175,309.734 C478.208175,373.251 419.152175,431.11 356.002175,412.546 C328.930175,404.588 307.648175,383.591 299.325175,356.629 L263.733175,241.318 Z" id="Path" fill="#F0F0EC"></path>
                    <polygon id="Path" fill="#FFFFFF" points="422.533175 299.208 347.731175 321.907 429.240175 314.169"></polygon>
                    <path d="M472.056175,432.82 C478.415175,413.794 470.759875,349.32313 462.810875,318.30213 L351.046175,344.605 C363.168175,383.898 342.103175,363.581 351.046175,414.248 C371.911175,415.282 464.107175,456.602 472.056175,432.82 Z" id="Path" fill="#F0F0EC"></path>
                    <path d="M88.938175,181.617 C84.845175,153.553 104.173175,127.448 132.209175,123.174 L236.303175,107.302 L340.397175,123.174 C368.433175,127.448 387.761175,153.553 383.668175,181.617 L370.430175,272.382 L385.982175,408.459 C386.573175,413.63 384.336175,418.719 380.127175,421.781 L358.565175,437.462 L115.072175,437.462 L97.176175,421.554 C93.823175,418.574 92.045175,414.204 92.365175,409.729 L102.176175,272.382 L88.938175,181.617 Z" id="Path" fill="#E6E6E3"></path>
                    <rect id="Rectangle" fill="#EBBAAA" x="199.159175" y="0" width="78.413" height="200.159" rx="39.1147"></rect>
                    <g id="Group" transform="translate(148.732703, 119.264065)">
                        <path d="M266.296472,343.957935 C266.167472,339.970935 269.295472,336.634935 273.281472,336.505935 L285.525472,336.109935 C289.368472,335.984935 292.634472,338.892935 292.956472,342.723935 L299.266472,417.876935 C299.611472,421.996935 296.435472,425.565935 292.302472,425.698935 L276.184472,426.220935 C272.197472,426.349935 268.861472,423.222935 268.732472,419.235935 L266.296472,343.957935 Z" id="Path" fill="#E3D08F"></path>
                        <path d="M215.507472,325.419935 C215.507472,321.431935 218.740472,318.197935 222.729472,318.197935 L267.613472,318.197935 C271.393472,318.197935 274.534472,321.112935 274.815472,324.882935 L284.055472,448.692935 C284.368472,452.881935 281.053472,456.452935 276.853472,456.452935 L222.729472,456.452935 C218.740472,456.452935 215.507472,453.218935 215.507472,449.229935 L215.507472,325.419935 Z" id="Path" fill="#E8D79D"></path>
                        <path d="M16.2509449,-2.27373675e-13 C22.4498913,34.7150983 47.9564937,94.0922606 83.2770535,150.381999 C127.408117,220.712878 182.651736,281.303117 245.465638,322.934721 L247.371403,324.190472 L251.102472,326.634596 L251.102472,364.110935 L234.594472,364.110935 L234.594297,335.526935 L234.388908,335.390473 C170.908153,292.832291 115.28163,231.878166 70.6701135,161.340738 L69.2938914,159.156122 C33.2959401,101.786837 7.14114099,41.1650376 0.204314741,4.02025675 L-4.26325641e-13,2.90187099 L16.2509449,-2.27373675e-13 Z" id="Path" fill="#CC8879"></path>
                    </g>
                    <path d="M292.252175,112.357 L284.211175,109.023 C280.755175,107.59 276.845175,109.638 276.055175,113.294 L271.393175,134.856 C267.775175,151.59 252.973175,163.533 235.853175,163.533 C219.873175,163.533 205.766175,153.1 201.086175,137.821 L193.855175,114.211 C192.613175,110.159 187.914175,108.327 184.258175,110.471 L181.853175,111.88 C178.665175,113.749 177.107175,117.511 178.042175,121.087 L187.996175,159.187 C190.245175,167.798 194.583175,175.722 200.625175,182.256 L202.255175,184.019 C211.464175,193.98 224.414175,199.644 237.980175,199.644 C254.889175,199.644 270.586175,190.865 279.436175,176.457 L282.396175,171.638 C285.694175,166.27 288.107175,160.406 289.543175,154.271 L297.128175,121.863 C298.049175,117.928 295.985175,113.905 292.252175,112.357 Z" id="Path" fill="#F4F3F3"></path>
                    <polygon id="Path" fill="#F4F3F3" points="239.399175 190.874 216.184175 190.874 167.176175 280.121 239.399175 280.121"></polygon>
                    <polygon id="Path" fill="#F4F3F3" points="242.494175 190.874 219.280175 190.874 190.907175 321.907 263.129175 321.907"></polygon>
                    <polygon id="Path" fill="#F7F6F6" points="228.049175 165.08 247.616175 165.08 288.923175 235.239 228.049175 235.239"></polygon>
                </g>
                <g id="hand" transform="translate(68.698300, -0.000000)">
                    <path d="M42.3017,408.573 C48.4287,329.472 84.0387,171.271 177.4607,171.271 C151.5107,256.593 76.5417,365.023 42.3017,408.573 Z" id="Path" fill="#272727" fill-rule="nonzero"></path>
                    <path d="M309.5257,413.732 C248.6517,335.835 279.3347,171.271 171.2717,171.271 C201.2887,248.061 181.0727,363.176 309.5257,413.732 Z" id="Path" fill="#272727" fill-rule="nonzero"></path>
                    <path d="M295.5967,355.954 C251.9857,296.288 268.2927,171.271 190.8737,171.271 C212.3797,230.088 203.5707,317.23 295.5967,355.954 Z" id="Path" fill="#272727" fill-rule="nonzero"></path>
                    <path d="M51.5877,268.255 C23.0967,268.255 -2.06057393e-13,245.159 -2.06057393e-13,216.668 C-2.06057393e-13,188.177 23.0967,165.08 51.5877,165.08 C80.0787,165.08 103.1747,188.177 103.1747,216.668 C103.1747,245.159 80.0787,268.255 51.5877,268.255 Z" id="Path" fill="#E4C1C1" fill-rule="nonzero"></path>
                    <path d="M290.9537,268.255 C319.4447,268.255 342.5407,245.159 342.5407,216.668 C342.5407,188.177 319.4447,165.08 290.9537,165.08 C262.4627,165.08 239.3657,188.177 239.3657,216.668 C239.3657,245.159 262.4627,268.255 290.9537,268.255 Z" id="Path" fill="#E4C1C1" fill-rule="nonzero"></path>
                    <path d="M30.8737,155.511 C25.8847,74.5729002 90.1817,6.19043017 171.2737,6.19043017 C252.3647,6.19043017 316.6617,74.5728002 311.6727,155.511 L305.3747,257.687 C302.2317,308.686 260.1147,353.488 213.0097,373.284 C179.7177,387.275 162.8287,387.275 129.5367,373.284 C82.4317,353.488 40.3157,308.686 37.1717,257.687 L30.8737,155.511 Z" id="Path" fill="#F6DDD6" fill-rule="nonzero"></path>
                    <path d="M126.9037,291.995 L126.9037,302.618 C126.9037,318.971 146.7697,332.223 171.2677,332.223 C195.7727,332.223 215.6317,318.971 215.6317,302.618 L215.6317,291.995 L126.9037,291.995 Z" id="Path" fill="#393939"></path>
                    <g id="Clipped" transform="translate(126.301700, 291.000000)">
                        <mask id="mask-2" fill="white">
                            <use xlink:href="#path-1"></use>
                        </mask>
                        <g id="Path"></g>
                        <path d="M44.967,50.715 C59.744,50.715 71.722,46.364 71.722,40.997 C71.722,35.63 59.744,31.279 44.967,31.279 C30.191,31.279 18.213,35.63 18.213,40.997 C18.213,46.364 30.191,50.715 44.967,50.715 Z" id="Path" fill="#FF6C6C" fill-rule="nonzero" mask="url(#mask-2)"></path>
                    </g>
                    <rect id="Rectangle" fill="#FFFFFF" fill-rule="nonzero" x="126.9037" y="291.995" width="88.7305" height="12.2038"></rect>
                    <path d="M114.5237,188.81025 C117.372799,188.81025 119.68245,191.119901 119.68245,193.969 C119.68245,196.745045 117.489724,199.008952 114.741768,199.123224 L114.5237,199.12775 L83.5717,199.12775 C80.722601,199.12775 78.41295,196.818099 78.41295,193.969 C78.41295,191.192955 80.6056759,188.929048 83.3536324,188.814776 L83.5717,188.81025 L114.5237,188.81025 Z" id="Path" fill="#000000" fill-rule="nonzero"></path>
                    <path d="M258.9687,188.81025 C261.817799,188.81025 264.12745,191.119901 264.12745,193.969 C264.12745,196.745045 261.934724,199.008952 259.186768,199.123224 L258.9687,199.12775 L228.0167,199.12775 C225.167601,199.12775 222.85795,196.818099 222.85795,193.969 C222.85795,191.192955 225.050676,188.929048 227.798632,188.814776 L228.0167,188.81025 L258.9687,188.81025 Z" id="Path" fill="#000000" fill-rule="nonzero"></path>
                    <path d="M232.143068,180.557 C238.878849,180.557 244.358587,185.935307 244.520994,192.632076 L244.5247,192.937369 L244.5257,212.540369 C244.526049,219.378206 238.983169,224.922 232.145332,224.922 C225.409551,224.922 219.929813,219.543693 219.767406,212.846924 L219.7637,212.541632 L219.7627,192.938632 C219.762351,186.100794 225.305231,180.557 232.143068,180.557 Z" id="Path" fill="#000000" fill-rule="nonzero"></path>
                    <path d="M110.399437,180.557 C117.135217,180.556313 122.61523,185.934684 122.777978,192.631445 L122.7817,192.936737 L122.7837,212.539737 C122.784398,219.377574 117.241801,224.921302 110.403963,224.922 C103.668183,224.922687 98.1881704,219.544317 98.0254216,212.847555 L98.0217001,212.542263 L98.0197001,192.939263 C98.0190024,186.101426 103.561599,180.557698 110.399437,180.557 Z" id="Path" fill="#000000" fill-rule="nonzero"></path>
                    <path d="M232.628632,140.048632 C239.660964,139.464477 245.622653,139.523547 250.337012,140.429938 C255.122363,141.350403 259.370212,142.693867 263.094703,144.359829 C265.793057,145.566801 268.083558,146.882081 269.981242,148.226052 C271.21618,149.100656 272.093799,149.846505 272.632659,150.38527 C275.050412,152.802598 275.050758,156.722205 272.63343,159.139959 C270.276536,161.497269 266.491536,161.55653 264.062842,159.317497 L263.869025,159.137071 L263.792494,159.071728 C263.54756,158.86357 263.225969,158.61336 262.825595,158.329808 C261.577906,157.446174 259.989134,156.533849 258.039374,155.661723 C255.180745,154.383061 251.844143,153.327796 247.998909,152.588163 C244.614089,151.937391 239.658859,151.888293 233.653556,152.387137 C229.683794,152.716893 225.420688,153.269228 221.050607,153.981852 C218.758182,154.355675 216.56153,154.753059 214.519217,155.152945 L212.88689,155.47971 C212.518119,155.555238 212.171494,155.62748 211.848366,155.695942 L210.810902,155.920863 C207.476282,156.675395 204.16137,154.583821 203.406837,151.249202 C202.669073,147.988685 204.652326,144.747009 207.85805,143.899205 L208.155432,143.827835 L208.937605,143.657242 C209.605312,143.514085 210.369921,143.355279 211.220969,143.184743 C213.642794,142.699449 216.282683,142.214817 219.057971,141.762254 C223.727485,141.000802 228.303892,140.407876 232.628632,140.048632 Z" id="Path" fill="#271E1E" fill-rule="nonzero"></path>
                    <path d="M97.3629092,140.429838 C102.076747,139.523547 108.038436,139.464477 115.070768,140.048632 C119.395508,140.407876 123.971915,141.000802 128.641429,141.762254 C131.416717,142.214817 134.056606,142.699449 136.478431,143.184743 L138.419915,143.584377 L139.620902,143.845138 C142.955521,144.59967 145.047095,147.914582 144.292563,151.249202 C143.554798,154.509718 140.369183,156.581822 137.110749,155.966966 L136.166281,155.763127 C135.756528,155.675276 135.304205,155.580414 134.81251,155.47971 L134.04584,155.324416 C131.76353,154.867078 129.268708,154.409078 126.648793,153.981852 C122.278712,153.269228 118.015606,152.716893 114.045844,152.387137 C108.040541,151.888293 103.085311,151.937391 99.7010119,152.588063 C95.8552573,153.327796 92.5186546,154.383061 89.6600259,155.661723 C87.7102662,156.533849 86.1214937,157.446174 84.8738053,158.329808 C84.5535056,158.556649 84.2836279,158.762152 84.0630823,158.941857 L83.8053071,159.156308 L83.8206588,159.14073 C81.4029052,161.558058 77.4832974,161.557713 75.0659698,159.139959 C72.6486422,156.722205 72.6489876,152.802598 75.0667412,150.38527 L75.3395671,150.12219 C75.8840947,149.613966 76.6732103,148.966102 77.7181582,148.226052 C79.6158425,146.882081 81.9063426,145.566801 84.6046973,144.359829 C88.3291884,142.693867 92.5770366,141.350403 97.3629092,140.429838 Z" id="Path" fill="#271E1E" fill-rule="nonzero"></path>
                    <path d="M163.973916,210.771104 L178.567484,220.500896 C173.607228,227.94071 169.722459,239.108636 169.722378,247.233088 L169.72899,247.875679 C169.884098,255.250519 172.794395,258.365034 181.223084,258.451303 L181.5877,258.45315 L181.5877,275.99285 C162.455641,275.99285 152.182678,264.435752 152.182678,247.232913 C152.182678,235.575424 157.034353,221.423661 163.6195,211.309059 L163.973916,210.771104 Z" id="Path" fill="#EBBAAA" fill-rule="nonzero"></path>
                    <path d="M172.7997,41.8706002 L172.7997,18.2245002 L172.7997,3.66863017 C161.0387,-2.06566983 138.0427,-0.30115083 118.5457,3.66863017 C93.2157,8.82613017 48.1137,50.5557002 37.2807,89.7622002 C26.3967,129.158 27.0437,138.28 28.9967,165.826 L29.0577,166.698 C39.3897,169.344 42.2837,183.297 42.2837,176.945 C42.2837,169.006 33.3857,114.957 94.9207,69.6431002 C133.4457,41.2737002 172.7997,47.1636002 172.7997,41.8706002 Z" id="Path" fill="#272727" fill-rule="nonzero"></path>
                    <path d="M175.3987,41.8706002 L175.3987,18.2245002 L175.3987,3.66863017 C187.1607,-2.06566983 210.1567,-0.30115083 229.6537,3.66863017 C254.9837,8.82613017 300.0857,50.5557002 310.9177,89.7622002 C321.8017,129.158 321.1557,138.28 319.2027,165.826 L319.1407,166.698 C308.8097,169.344 305.9157,183.297 305.9157,176.945 C305.9157,169.006 319.4727,113.409 257.9377,68.0955002 C219.4117,39.7260002 175.3987,47.1636002 175.3987,41.8706002 Z" id="Path" fill="#272727" fill-rule="nonzero"></path>
                </g>
            </g>
        </g>
    </g>
</svg>