<?xml version="1.0" encoding="UTF-8"?>
<svg width="519px" height="1372px" viewBox="0 0 519 1372" version="1.1" xmlns="http://www.w3.org/2000/svg" xmlns:xlink="http://www.w3.org/1999/xlink">
    <!-- Generator: Sketch 55.2 (78181) - https://sketchapp.com -->
    <title>gee_me_097</title>
    <desc>Created with Sketch.</desc>
    <defs>
        <path d="M0.004,76.04 C0.004,34.57 33.624,0.95 75.097,0.95 L172.712,0.95 L172.712,71.34 C172.712,77.01 168.116,81.61 162.446,81.61 L5.566,81.61 C2.494,81.61 0.004,79.12 0.004,76.04 Z" id="path-1"></path>
        <path d="M173.014,76.04 C173.014,34.57 139.393,0.95 97.92,0.95 L0.305,0.95 L0.305,71.34 C0.305,77.01 4.902,81.61 10.571,81.61 L167.451,81.61 C170.523,81.61 173.014,79.12 173.014,76.04 Z" id="path-3"></path>
    </defs>
    <g id="GEE!-ME" stroke="none" stroke-width="1" fill="none" fill-rule="evenodd">
        <g id="gee_me_092" transform="translate(-340.000000, -114.000000)">
            <g id="gee_me_097" transform="translate(340.000000, 114.000000)">
                <g id="lower-limb" transform="translate(76.000000, 875.000300)">
                    <polygon id="Path" fill="#333945" fill-rule="nonzero" points="50.004 32.9997 171.004 44.5837 171.004 427.9997 83.356 427.9997"></polygon>
                    <ellipse id="Oval" fill="#333945" fill-rule="nonzero" cx="188.405" cy="55.2317" rx="116.6" ry="55.2317"></ellipse>
                    <polygon id="Path" fill="#333945" fill-rule="nonzero" points="198.004 44.9997 322.004 44.9997 322.004 427.9997 232.183 427.9997"></polygon>
                    <polygon id="Path" fill="#3E485E" fill-rule="nonzero" points="71.004 376.9997 171.004 376.9997 171.004 436.9997 81.16 436.9997"></polygon>
                    <polygon id="Path" fill="#3E485E" fill-rule="nonzero" points="327.004 379.5797 221.004 376.9997 226.15 427.9997 324.069 427.9997"></polygon>
                    <path d="M0.004,491.0397 C0.004,449.5697 33.624,415.9497 75.097,415.9497 L171.557,415.9497 C172.195,415.9497 172.712,416.4697 172.712,417.1097 L172.712,486.3397 C172.712,492.0097 168.116,496.6097 162.446,496.6097 L5.566,496.6097 C2.494,496.6097 0.004,494.1197 0.004,491.0397 Z" id="Path" fill="#CEB56F" fill-rule="nonzero"></path>
                    <g id="Clipped" transform="translate(0.000000, 414.999700)">
                        <mask id="mask-2" fill="white">
                            <use xlink:href="#path-1"></use>
                        </mask>
                        <g id="Path"></g>
                        <g id="Group" mask="url(#mask-2)" fill="#B69F62" fill-rule="nonzero">
                            <g transform="translate(-25.000000, 16.000000)">
                                <path d="M45.035,14.71 C32.086,7.39 37.164,21.9 25.529,28.06 L0.89,75.28 L196.974,75.28 C201.765,68.44 217.428,44.24 203.647,39.35 C171.822,28.06 135.377,50.13 116.898,49.1 C98.419,48.08 45.521,55.77 48.628,39.35 C52.221,20.36 56.841,21.39 45.035,14.71 Z" id="Path"></path>
                                <ellipse id="Oval" transform="translate(174.841000, 33.040000) rotate(-25.000000) translate(-174.841000, -33.040000) " cx="174.841" cy="33.04" rx="34.1391" ry="20.1662"></ellipse>
                            </g>
                        </g>
                    </g>
                    <path d="M55.2660317,417.08634 C52.5586565,416.319787 50.3257855,419.286156 51.8114154,421.675798 L59.1463537,433.474076 L35.8808475,425.84324 C33.0655371,424.919848 30.6977243,428.11545 32.4007584,430.539971 L45.7467584,449.539971 C46.724452,450.931862 48.6453798,451.267635 50.0372707,450.289942 C51.4291617,449.312248 51.7649351,447.39132 50.7872416,445.999429 L42.7696938,434.585267 L65.2731525,441.96616 C68.0060348,442.862516 70.36712,439.856173 68.8485846,437.413602 L61.2433631,425.180572 L84.3859683,431.73306 C86.3518209,432.289662 88.30485,430.812831 88.30485,428.7697 C88.30485,424.054329 85.4212632,420.344737 80.1371712,416.314853 L79.5077691,415.842994 L78.0856618,414.818947 C76.7177471,413.843598 75.0969,412.703104 74.754102,412.445964 C73.3934182,411.425285 71.4629426,411.700914 70.442264,413.061598 C69.4215855,414.422282 69.6972142,416.352757 71.057898,417.373436 L71.659373,417.809171 L74.7690868,420.019844 C75.2440301,420.359035 75.6620182,420.659898 75.9464101,420.869945 L76.0771181,420.967157 C77.3530893,421.924232 78.4258427,422.827507 79.2972536,423.686029 L79.5802693,423.970558 L55.2660317,417.08634 Z" id="Path" fill="#EED99F" fill-rule="nonzero"></path>
                    <path d="M81.1288627,404.625209 L81.1883303,408.266943 L81.1891383,409.664644 C81.1692733,411.522346 81.0462041,412.850524 80.7584901,413.949517 C80.3974598,415.328925 79.7683133,416.319864 78.8579932,416.91364 C77.8357318,417.628508 76.4011707,417.97955 74.446,417.97955 C70.3657952,417.97955 65.5025516,416.464551 61.714989,413.943211 C57.4440417,411.099239 54.94015,407.312866 54.94015,403.1097 C54.94015,398.541525 56.0478725,394.572547 58.12411,391.74605 C60.2885194,388.800404 63.4186502,387.19985 67.259,387.19985 C75.0502202,387.19985 80.9655222,393.813154 81.115916,402.759952 L81.1288627,404.625209 Z M74.9074965,411.808413 C74.9712677,411.327853 75.011993,410.679351 75.0264542,409.832907 L75.0321687,409.238956 L75.0280684,408.246058 L74.9656671,404.357378 L74.95915,403.1097 C74.95915,397.224314 71.5606668,393.35955 67.259,393.35955 C65.3882478,393.35955 64.0972245,394.019699 63.088151,395.392994 C61.8526414,397.074962 61.09985,399.772219 61.09985,403.1097 C61.09985,405.005412 62.4324722,407.020596 65.128658,408.815954 C67.7978652,410.592816 71.2804996,411.71883 74.0700449,411.813385 L74.5299165,411.819513 L74.9074965,411.808413 Z" id="Path" fill="#EED99F" fill-rule="nonzero"></path>
                    <path d="M82.1500371,406.82862 L81.3030747,408.677411 L80.3673785,410.691706 L80.1273317,411.228497 L79.8603599,411.848695 C79.4060188,412.934843 79.1419831,413.753381 79.0223242,414.506291 C78.9597691,414.897252 78.9405837,415.252687 78.9646953,415.58839 L79.0019617,415.917872 L79.0807153,416.27137 L79.121661,416.413531 L79.1567816,416.513942 C79.1900086,416.59816 79.2376932,416.693879 79.3340213,416.877164 L79.3261073,416.881319 L79.386022,416.990246 L79.4603235,417.116028 L79.4759229,417.137313 C79.5380526,417.233208 79.6056975,417.326775 79.6788766,417.418172 L79.7927983,417.553658 C79.8664196,417.642114 79.936753,417.717104 80.0119983,417.7831 C80.5226061,418.278105 81.2186152,418.707887 82.1036888,419.10256 C84.8648422,420.342806 88.6219081,420.798087 91.9524789,420.248449 C95.7045083,419.63465 98.5306466,417.850886 99.7836724,415.029938 C101.145141,411.975965 101.576585,408.981594 101.011478,406.456962 C100.423286,403.82817 98.7784141,401.811375 96.1730879,400.647633 C90.9057077,398.305236 84.9380509,400.910766 82.1500371,406.82862 Z M84.2866745,413.319331 L84.1851279,413.259006 C84.249207,413.307848 84.3170756,413.367921 84.3876469,413.443846 L84.637989,413.77931 L84.7569264,414.0042 L82.0537803,412.370322 L82.8668751,412.589089 C83.7131574,412.825837 83.9773656,412.955307 84.2866745,413.319331 Z M85.6958685,413.867908 L86.1068709,412.951923 L87.3730408,410.227281 L87.6411646,409.631081 C89.0425603,406.479555 91.5714402,405.342588 93.665559,406.273838 C94.4868917,406.640714 94.8364975,407.069369 95.0004658,407.802188 C95.2533776,408.93208 95.0123746,410.604726 94.1560161,412.525667 C93.8467785,413.22185 92.8306197,413.863215 90.9537706,414.170253 C89.2248225,414.455575 87.2567471,414.315388 85.6958685,413.867908 Z" id="Path" fill="#EED99F" fill-rule="nonzero"></path>
                    <path d="M396.014,491.0397 C396.014,449.5697 362.393,415.9497 320.92,415.9497 L224.46,415.9497 C223.822,415.9497 223.305,416.4697 223.305,417.1097 L223.305,486.3397 C223.305,492.0097 227.902,496.6097 233.571,496.6097 L390.451,496.6097 C393.523,496.6097 396.014,494.1197 396.014,491.0397 Z" id="Path" fill="#CEB56F" fill-rule="nonzero"></path>
                    <g id="Clipped" transform="translate(223.000000, 414.999700)">
                        <mask id="mask-4" fill="white">
                            <use xlink:href="#path-3"></use>
                        </mask>
                        <g id="Path"></g>
                        <g id="Group" mask="url(#mask-4)" fill="#B69F62" fill-rule="nonzero">
                            <g transform="translate(-17.000000, 16.000000)">
                                <path d="M169.982,14.71 C182.931,7.39 177.853,21.9 189.488,28.06 L214.127,75.28 L18.043,75.28 C13.252,68.44 -2.411,44.24 11.37,39.35 C43.195,28.06 79.64,50.13 98.119,49.1 C116.598,48.08 169.496,55.77 166.389,39.35 C162.796,20.36 158.176,21.39 169.982,14.71 Z" id="Path"></path>
                                <ellipse id="Oval" transform="translate(40.177000, 33.040000) scale(-1, 1) rotate(-24.999981) translate(-40.177000, -33.040000) " cx="40.177" cy="33.04" rx="34.1391028" ry="20.1662017"></ellipse>
                            </g>
                        </g>
                    </g>
                    <path d="M327.169415,437.413602 C325.65088,439.856173 328.011965,442.862516 330.744848,441.96616 L353.248306,434.585267 L345.230758,445.999429 C344.253065,447.39132 344.588838,449.312248 345.980729,450.289942 C347.37262,451.267635 349.293548,450.931862 350.271242,449.539971 L363.617242,430.539971 C365.320276,428.11545 362.952463,424.919848 360.137152,425.84324 L336.871646,433.474076 L344.206585,421.675798 C345.692208,419.286167 343.459363,416.319806 340.751994,417.086333 L316.436751,423.970612 C317.263645,423.121746 318.291767,422.229126 319.522991,421.283706 L319.940923,420.966598 C320.913956,420.236838 324.336012,417.841466 324.959814,417.373652 C326.320617,416.353132 326.596471,414.422689 325.575952,413.061886 C324.59323,411.751483 322.766737,411.44715 321.417655,412.337681 L319.838198,413.46531 L317.137412,415.387564 C316.773858,415.649186 316.462257,415.875976 316.245151,416.038802 L315.524497,416.588378 C310.466621,420.513234 307.71215,424.161121 307.71215,428.7697 C307.71215,430.81282 309.66516,432.28965 311.631006,431.733067 L334.77469,425.180487 L327.169415,437.413602 Z" id="Path" fill="#EED99F" fill-rule="nonzero"></path>
                    <path d="M321.572,417.97955 C325.652422,417.97955 330.515744,416.464427 334.302005,413.943215 C338.573337,411.098987 341.07785,407.312701 341.07785,403.1097 C341.07785,398.542969 339.969776,394.573842 337.894697,391.747149 C335.729581,388.800542 332.598473,387.19985 328.758,387.19985 C320.966898,387.19985 315.052455,393.81302 314.902084,402.759947 L314.888056,404.66106 L314.828426,408.360578 L314.824997,409.256288 C314.830996,411.325805 314.950803,412.769094 315.257742,413.946576 C315.590834,415.219247 316.150778,416.160749 317.010633,416.806993 L317.199504,416.940968 C318.218638,417.637798 319.642958,417.97955 321.572,417.97955 Z M320.986877,409.573937 L320.988986,408.312872 L321.053128,404.244628 L321.058238,403.486908 C321.05865,403.362218 321.05885,403.237096 321.05885,403.1097 C321.05885,397.224028 324.45665,393.35955 328.758,393.35955 C330.629088,393.35955 331.920999,394.020003 332.93011,395.39335 C334.164979,397.075501 334.91815,399.773363 334.91815,403.1097 C334.91815,405.004876 333.585036,407.020258 330.887989,408.816189 C328.098638,410.673574 324.419261,411.81985 321.572,411.81985 L321.406733,411.818513 L321.109805,411.808377 C321.039597,411.278961 320.997088,410.546586 320.986877,409.573937 Z" id="Path" fill="#EED99F" fill-rule="nonzero"></path>
                    <path d="M314.118785,407.384438 L315.64656,410.682886 L316.028008,411.543522 C316.561431,412.782683 316.864013,413.684145 316.994169,414.503113 C317.061597,414.924536 317.080977,415.308822 317.052014,415.631052 L317.019321,415.887612 L316.951373,416.215945 C316.922002,416.329777 316.907811,416.38478 316.8704,416.478187 L316.716374,416.825887 L316.718702,416.827051 L316.691937,416.87937 L316.6732,416.920355 L316.574437,417.090372 C316.545725,417.137917 316.519437,417.178572 316.490218,417.219047 L316.306771,417.457778 C315.780781,418.097543 314.984568,418.624855 313.921928,419.099151 C311.153224,420.342777 307.395156,420.798097 304.068602,420.24912 C300.312956,419.634512 297.486236,417.850622 296.234617,415.032837 C294.872996,411.975899 294.441688,408.982466 295.005867,406.455423 C295.595747,403.826431 297.239812,401.810624 299.849559,400.645562 C305.112329,398.30522 311.078962,400.910722 313.866963,406.828618 L314.118785,407.384438 Z M302.356503,406.272028 C301.530406,406.640821 301.180989,407.069245 301.01685,407.800774 C300.764399,408.931547 301.005536,410.605123 301.862672,412.529462 C302.170047,413.221456 303.186943,413.8632 305.067479,414.170951 C306.668611,414.435183 308.478457,414.333427 309.980879,413.95869 L310.321899,413.867409 L309.948131,413.032738 L308.70397,410.358247 L308.252987,409.365872 C306.83027,406.416127 304.386663,405.369223 302.356503,406.272028 Z" id="Path" fill="#EED99F" fill-rule="nonzero"></path>
                </g>
                <g id="upper-limb" transform="translate(0.199677, 465.002000)" fill-rule="nonzero">
                    <ellipse id="Oval" fill="#B9A28D" cx="249.804323" cy="55.498" rx="111" ry="48.5"></ellipse>
                    <path d="M138.804323,453.675 C138.804323,463.962 146.607323,472.572 156.845323,473.579 L249.276323,482.676 C258.222323,483.557 267.231323,483.596 276.184323,482.794 L380.056323,473.484 C390.589323,472.54 398.567323,463.56 398.263323,452.989 L387.204323,68.425 C386.893323,57.608 378.034323,49 367.213323,49 L158.804323,49 C147.758323,49 138.804323,57.954 138.804323,69 L138.804323,453.675 Z" id="Path" fill="#2C2C2C"></path>
                    <ellipse id="Oval" fill="#504E4E" cx="254.804323" cy="58" rx="57" ry="58"></ellipse>
                    <path d="M213.967323,163.567 L127.154323,322.998 C127.154323,322.998 34.0919233,306.192 4.80572332,278.998 C4.80572332,278.998 25.7640233,194.998 40.8057233,139.998 C50.0923233,106.041 80.8263233,76.053 102.984323,58.076 C118.355323,45.606 137.185323,38.675 156.689323,35.303 L175.803323,31.998 L213.967323,163.567 Z" id="Path" fill="#AE9A87"></path>
                    <path d="M4.06312332,305.11 C-6.11437668,288.217 3.76872332,265.977 23.2418233,262.851 L89.2553233,252.253 C96.4093233,251.104 102.003323,258.319 99.1103233,264.961 C97.8733233,267.8 98.1543233,271.07 99.8553233,273.657 L152.901323,354.317 C160.635323,366.078 154.780323,381.968 141.264323,385.898 L82.8863233,402.873 C75.0773233,405.144 66.6643233,402.684 61.5833233,396.334 C51.9593233,384.305 36.1786233,363.307 25.0835233,342.096 C18.7558233,329.999 11.1362233,316.851 4.06312332,305.11 Z" id="Path" fill="#AE9A87"></path>
                    <polygon id="Path" fill="#8F7964" points="59.3453233 244.871 98.3703233 269.342 51.8813233 262.456"></polygon>
                    <polygon id="Path" fill="#8F7964" points="34.3350233 279.355 99.7893233 274.694 39.8062233 297.498"></polygon>
                    <path d="M108.462323,91.036 C110.740323,56.518 139.402323,29.686 173.995323,29.686 C180.109323,29.686 185.804323,32.792 189.114323,37.933 L236.804323,111.997 C236.804323,111.997 224.426323,226.322 224.426323,285.94 C224.426323,335.354 214.367323,453.748 210.923323,492.828 C210.340323,499.447 203.811323,503.746 197.461323,501.789 L102.036323,472.377 C101.218323,472.125 100.447323,471.783 99.7433233,471.297 C93.5933233,467.054 62.8043233,443.204 62.8043233,390.997 C94.8043233,335.997 94.8043233,297.997 94.8043233,297.997 L108.462323,91.036 Z" id="Path" fill="#C4B2A1"></path>
                    <path d="M244.55338,135.817262 L231.055266,134.178738 L230.338534,140.123364 L229.632444,146.060537 C223.441454,198.478768 218.461907,250.267926 213.791895,307.873824 L212.919601,318.794731 C210.869442,345.073025 204.840341,425.869685 203.146021,445.512674 L202.701551,450.538274 L202.225439,455.724199 C200.198808,477.355386 198.292575,491.942167 196.167009,501.52592 L209.441638,504.47008 L209.614016,503.681008 L209.870438,502.462546 C212.252064,490.89301 214.313423,473.767323 216.558227,448.224278 L216.869913,444.595844 C218.907089,420.273354 225.273682,334.798551 226.818318,315.505591 L227.344321,308.976382 L227.882409,302.381653 C232.738336,243.254445 237.96121,190.123363 244.55338,135.817262 Z" id="Path" fill="#AE9A87"></path>
                    <path d="M212.804323,64.998 C198.804323,30.998 170.804323,22.998 170.804323,22.998 L119.804323,78.998 L187.804323,130.998 C187.804323,130.998 226.804323,98.998 212.804323,64.998 Z" id="Path" fill="#B9A28D"></path>
                    <circle id="Oval" fill="#453E37" cx="212.804323" cy="298.998" r="10"></circle>
                    <circle id="Oval" fill="#453E37" cx="204.804323" cy="375.998" r="10"></circle>
                    <circle id="Oval" fill="#453E37" cx="197.804323" cy="452.998" r="10"></circle>
                    <path d="M159.805323,112.998 C165.296323,103.845 200.137323,77.665 209.804323,63.998 C218.471323,73.331 237.203323,95.198 242.803323,107.998 C249.803323,123.998 238.806323,256.998 222.805323,365.998 C215.805323,275.998 178.805323,143.998 159.805323,112.998 Z" id="Path" fill="#D6C2AE"></path>
                    <path d="M304.790323,163.567 L391.602323,322.998 C391.602323,322.998 484.665323,306.192 513.951323,278.998 C513.951323,278.998 492.993323,194.998 477.951323,139.998 C468.664323,106.041 437.931323,76.053 415.772323,58.076 C400.401323,45.606 381.571323,38.675 362.068323,35.303 L342.953323,31.998 L304.790323,163.567 Z" id="Path" fill="#AE9A87"></path>
                    <path d="M514.693323,305.11 C524.871323,288.217 514.988323,265.977 495.515323,262.851 L429.501323,252.253 C422.348323,251.104 416.753323,258.319 419.646323,264.961 C420.883323,267.8 420.603323,271.07 418.902323,273.657 L365.856323,354.317 C358.121323,366.078 363.976323,381.968 377.493323,385.898 L435.870323,402.873 C443.680323,405.144 452.092323,402.684 457.173323,396.334 C466.797323,384.305 482.578323,363.307 493.673323,342.096 C500.001323,329.999 507.620323,316.851 514.693323,305.11 Z" id="Path" fill="#AE9A87"></path>
                    <polygon id="Path" fill="#8F7964" points="459.411323 244.871 420.386323 269.342 466.876323 262.456"></polygon>
                    <polygon id="Path" fill="#8F7964" points="484.422323 279.355 418.967323 274.694 478.950323 297.498"></polygon>
                    <path d="M410.294323,91.036 C408.016323,56.518 379.354323,29.686 344.761323,29.686 C338.647323,29.686 332.952323,32.792 329.642323,37.933 L281.952323,111.997 C281.952323,111.997 294.330323,226.322 294.330323,285.94 C294.330323,335.354 304.390323,453.748 307.833323,492.828 C308.416323,499.447 314.945323,503.746 321.295323,501.789 L416.720323,472.377 C417.539323,472.125 418.309323,471.783 419.014323,471.297 C425.163323,467.054 455.952323,443.204 455.952323,390.997 C423.952323,335.997 423.952323,297.997 423.952323,297.997 L410.294323,91.036 Z" id="Path" fill="#C4B2A1"></path>
                    <path d="M287.70138,134.178738 L274.203266,135.817262 L274.917489,141.741092 C281.297409,195.019771 286.390862,247.416162 291.14836,305.730562 L292.152246,318.206667 C294.058421,342.477567 300.324316,426.51643 302.064755,446.693034 L302.517912,451.816332 L302.92378,456.250418 C305.026234,478.834364 307.012256,494.087429 309.315009,504.47008 L322.589638,501.52592 L322.347974,500.410262 L322.185967,499.632755 C320.004216,488.999942 318.03605,472.821327 315.899949,448.804442 L315.495383,444.161687 L314.863831,436.449142 C312.411337,405.873012 306.917902,332.228394 305.492158,314.420442 L304.700075,304.619282 L303.887133,294.752362 C299.169344,238.05712 294.073802,186.674556 287.70138,134.178738 Z" id="Path" fill="#AE9A87"></path>
                    <path d="M305.952323,64.998 C319.952323,30.998 347.952323,22.998 347.952323,22.998 L398.952323,78.998 L330.952323,130.998 C330.952323,130.998 291.952323,98.998 305.952323,64.998 Z" id="Path" fill="#B9A28D"></path>
                    <path d="M358.951323,112.998 C353.460323,103.845 318.619323,77.665 308.952323,63.998 C300.286323,73.331 281.553323,95.198 275.953323,107.998 C268.953323,123.998 279.951323,256.998 295.951323,365.998 C302.951323,275.998 339.951323,143.998 358.951323,112.998 Z" id="Path" fill="#D6C2AE"></path>
                </g>
                <g id="head" transform="translate(48.003500, -0.000001)">
                    <rect id="Rectangle" fill="#EBBAAA" fill-rule="nonzero" x="171.6425" y="446.035001" width="76.8567" height="115.285" rx="38.4283"></rect>
                    <ellipse id="Oval" fill="#EBBAAA" fill-rule="nonzero" cx="58.0695" cy="301.827001" rx="58.0695" ry="55.0806"></ellipse>
                    <ellipse id="Oval" fill="#EBBAAA" fill-rule="nonzero" cx="364.0695" cy="306.096001" rx="58.0695" ry="55.0806"></ellipse>
                    <path d="M39.8085,209.573001 C36.0025,113.212001 113.0915,33.017601 209.5265,33.017601 C306.1945,33.017601 383.3715,113.583001 379.2215,210.161001 L373.6145,340.613001 C369.8325,428.618001 297.3855,498.018001 209.3005,498.018001 C120.9935,498.018001 48.4475,428.281001 44.9615,340.043001 L39.8085,209.573001 Z" id="Path" fill="#EED4CC" fill-rule="nonzero"></path>
                    <path d="M157.750543,396.868486 C163.967013,400.875431 169.320915,403.677681 176.387701,406.12204 C185.878102,409.404712 196.674059,411.194501 209.2025,411.194501 C221.887846,411.194501 233.217355,409.150093 243.122662,405.560541 C250.347552,402.942336 256.23095,399.717505 260.453406,396.550447 C263.919239,393.950894 264.621498,389.033928 262.021946,385.568095 C259.422393,382.102262 254.505427,381.400003 251.039594,383.999555 C248.033655,386.254163 243.514939,388.73098 237.777338,390.810211 C229.562957,393.786994 220.039495,395.505501 209.2025,395.505501 C198.408038,395.505501 189.345765,394.003128 181.516299,391.294962 C175.810028,389.321198 171.500875,387.065773 166.250457,383.681516 C162.608975,381.334329 157.754201,382.383563 155.407015,386.025044 C153.059828,389.666526 154.109062,394.5213 157.750543,396.868486 Z" id="Path" fill="#C99584" fill-rule="nonzero"></path>
                    <path d="M168.7515,216.102001 L107.1315,210.129001 C106.4225,210.060001 105.7305,210.373001 105.3145,210.951001 L93.0185,228.038001 C92.0845,229.334001 92.9735,231.148001 94.5705,231.205001 L169.2385,233.854001 C171.6665,233.941001 173.6105,231.860001 173.3595,229.444001 L172.3445,219.670001 C172.1475,217.778001 170.6455,216.286001 168.7515,216.102001 Z" id="Path" fill="#38332F" fill-rule="nonzero"></path>
                    <path d="M242.9175,216.102001 L304.5375,210.129001 C305.2465,210.060001 305.9375,210.373001 306.3535,210.951001 L318.6505,228.038001 C319.5835,229.334001 318.6945,231.148001 317.0985,231.205001 L242.4295,233.854001 C240.0015,233.941001 238.0585,231.860001 238.3095,229.444001 L239.3245,219.670001 C239.5205,217.778001 241.0235,216.286001 242.9175,216.102001 Z" id="Path" fill="#38332F" fill-rule="nonzero"></path>
                    <path d="M143.8965,274.723001 L144.3185,288.158001" id="Path" stroke="#000000" stroke-width="24" stroke-linecap="round"></path>
                    <path d="M276.1505,274.713001 L275.8455,288.151001" id="Path" stroke="#000000" stroke-width="24" stroke-linecap="round"></path>
                    <rect id="Rectangle" fill="#33210D" fill-rule="nonzero" x="29.8345" y="164.018001" width="23" height="138" rx="11.5"></rect>
                    <rect id="Rectangle" fill="#553A1C" fill-rule="nonzero" x="363.8345" y="183.018001" width="23" height="122" rx="11.5"></rect>
                    <path d="M213.421512,292.156099 L196.579488,289.843903 L196.500103,290.413192 L196.453518,290.65955 C196.284927,291.433369 195.840478,292.430249 193.869642,296.191256 L188.369601,306.558957 C186.356031,310.343399 184.81247,313.42279 183.455555,316.44584 C178.160182,328.243318 176.422857,337.650274 179.998823,346.016879 C184.519271,356.593267 196.136381,361.517001 214.3345,361.517001 L214.3345,344.517001 L213.31054,344.511526 C201.893765,344.387831 196.847653,342.182508 195.630857,339.335599 C194.466059,336.610349 195.464033,331.206705 198.964851,323.407286 L199.388856,322.476065 L199.832907,321.526994 C200.742695,319.607346 201.7875,317.547691 203.055732,315.150562 L204.014764,313.351852 L207.168188,307.506863 L207.880317,306.168127 C208.326102,305.324196 208.718663,304.568103 209.08626,303.844163 L209.417037,303.187968 L209.924213,302.160962 C211.884049,298.135759 213.019954,295.081044 213.421512,292.156099 Z" id="Path" fill="#EBBAAA" fill-rule="nonzero"></path>
                    <path d="M188.0625,279.401001 C193.8085,278.787001 208.6135,277.928001 221.8725,279.401001" id="Path" stroke="#000000" stroke-width="15"></path>
                    <path d="M83.8835,272.628001 C82.9975,264.326001 88.8005,256.990001 96.8455,256.124001 C109.1185,254.804001 125.0005,253.576001 138.4165,254.083001 C151.4155,254.573001 166.6635,256.933001 178.7015,259.187001 C186.9935,260.740001 192.0835,269.110001 189.7605,277.566001 L182.0755,305.530001 C180.2085,312.325001 174.0125,317.055001 166.9765,317.055001 L138.6935,317.055001 C129.4835,317.055001 112.9325,315.603001 100.3415,314.342001 C93.2485,313.631001 87.6635,308.034001 86.8975,300.864001 L83.8835,272.628001 Z" id="Path" fill-opacity="0.29" fill="#FFFFFF" fill-rule="nonzero"></path>
                    <path d="M326.5825,272.628001 C327.4685,264.326001 321.6655,256.990001 313.6215,256.124001 C301.3475,254.804001 285.4655,253.576001 272.0495,254.083001 C259.0515,254.573001 243.8025,256.933001 231.7645,259.187001 C223.4725,260.740001 218.3825,269.110001 220.7065,277.566001 L228.3905,305.530001 C230.2575,312.325001 236.4535,317.055001 243.4895,317.055001 L271.7725,317.055001 C280.9825,317.055001 297.5335,315.603001 310.1245,314.342001 C317.2185,313.631001 322.8025,308.034001 323.5685,300.864001 L326.5825,272.628001 Z" id="Path" fill-opacity="0.29" fill="#FFFFFF" fill-rule="nonzero"></path>
                    <path d="M78.9117441,273.158702 L78.8776042,272.811492 C77.900688,261.948339 85.5933742,252.306346 96.3108178,251.152672 L98.7165266,250.899804 C113.496434,249.382845 127.229711,248.656675 138.604842,249.08655 C150.289526,249.527006 164.423784,251.426743 179.621941,254.272452 C190.845572,256.374514 197.664517,267.669329 194.581752,278.890966 L186.896822,306.854711 C184.433648,315.819504 176.264782,322.055001 166.9765,322.055001 L138.288558,322.054152 L137.451073,322.047396 C130.034724,321.959811 118.529252,321.120794 104.714378,319.795024 L99.8428008,319.317069 C90.3848235,318.369004 82.9421212,310.90831 81.9257441,301.394702 L78.9117441,273.158702 Z M91.8692082,300.332853 C92.3846992,305.158011 96.1105128,308.892831 100.839762,309.366889 L104.042302,309.683306 C118.812278,311.122063 131.069651,312.022996 138.310415,312.054165 L166.9765,312.055001 C171.759642,312.055001 175.983199,308.831055 177.254248,304.205036 L184.939123,276.241491 C186.490964,270.592605 183.182958,265.113266 177.78129,264.101593 C163.025002,261.338619 149.33018,259.497945 138.227681,259.079434 C126.811414,258.648006 112.635026,259.454624 97.3806311,261.095282 C92.0903176,261.664755 88.2610668,266.529628 88.8552616,272.097354 L91.8692082,300.332853 Z" id="Path" fill="#000000" fill-rule="nonzero"></path>
                    <path d="M331.554267,273.158594 C332.728618,262.154689 324.986889,252.318683 314.156697,251.152727 L311.750672,250.899846 L309.296988,250.654392 C295.450356,249.305694 282.604191,248.680563 271.860681,249.086568 C260.177058,249.527018 246.041154,251.426942 230.84429,254.272409 C219.6201,256.374576 212.801299,267.669851 215.885269,278.891041 L223.569204,306.854806 C226.032352,315.819504 234.201218,322.055001 243.4895,322.055001 L271.7725,322.055001 C279.912017,322.055001 293.819906,320.999934 310.622762,319.317113 C320.081814,318.369074 327.523841,310.908665 328.540208,301.395149 L331.554267,273.158594 Z M318.596744,300.3333 C318.081254,305.15845 314.356065,308.89284 309.62587,309.366926 L306.423398,309.683336 L302.5291,310.055611 C289.504893,311.27601 278.749852,312.025779 272.155585,312.054165 L243.4895,312.055001 C238.706358,312.055001 234.482801,308.831055 233.211822,304.205291 L225.527796,276.241196 C223.975322,270.592435 227.283017,265.11327 232.684941,264.10155 C247.439946,261.338817 261.136405,259.497956 272.237857,259.079452 C283.654491,258.648009 297.830358,259.454583 313.086861,261.095335 C318.286128,261.655077 322.074701,266.366052 321.637148,271.814929 L321.610738,272.097354 L318.596744,300.3333 Z" id="Path" fill="#000000" fill-rule="nonzero"></path>
                    <path d="M81.8335,104.235001 C51.8335,125.104001 60.4995,157.235001 51.8335,184.235001 C51.8335,217.223001 40.4615,258.005001 27.8335,259.235001 C16.5355,260.335001 19.2885,225.945001 12.9995,194.217001 C-8.9996,83.234501 62.9985,23.234501 154.9985,23.234501 C185.1565,23.234501 295.8335,-4.76509901 295.8335,83.234501 C250.8335,108.234001 116.8335,79.886701 81.8335,104.235001 Z" id="Path" fill="#33210D" fill-rule="nonzero"></path>
                    <path d="M155.5865,99.843001 C240.4835,99.843001 324.4665,120.343001 341.4665,140.343001 C350.1425,183.383001 344.6045,257.843001 393.5865,257.843001 C415.5865,257.843001 411.7365,158.758001 409.5865,140.343001 C394.5415,11.466801 249.2095,-17.405949 162.5865,8.84320099 C109.5865,24.903701 70.6905,99.843001 155.5865,99.843001 Z" id="Path" fill="#553A1C" fill-rule="nonzero"></path>
                    <path d="M380.9995,87.000001 C398.4995,62.171201 334.2715,66.800901 343.7915,68.970501 C279.4395,59.401201 341.3305,-10.977219 294.0015,42.999901 C255.5275,86.877001 281.6175,117.326001 258.3775,138.300001 C283.6905,150.997001 309.5795,147.968001 323.3055,144.162001 C372.4505,130.533001 359.4025,117.642001 380.9995,87.000001 Z" id="Path" fill="#553A1C" fill-rule="nonzero"></path>
                    <path d="M134.0185,42.310801 C151.7865,18.379401 169.0005,27.001001 202.0005,42.311001 C256.0015,67.364101 232.5875,96.481001 216.9995,105.001001 C171.8815,129.663001 148.8245,153.121001 138.6435,177.529001 C114.6395,166.528001 105.9025,148.255001 103.4425,137.601001 C94.6365,99.457001 113.5465,69.882701 134.0185,42.310801 Z" id="Path" fill="#553A1C" fill-rule="nonzero"></path>
                    <path d="M190.0005,68.650901 C164.7615,110.307001 134.0575,150.579001 113.0005,135.090001 C178.1755,187.617001 226.0305,166.964001 287.1955,86.154001 C329.5835,113.001001 359.9145,110.625001 378.2975,116.685001 C396.6805,122.746001 384.8775,71.704701 320.1465,27.329901 C281.0405,-16.105758 219.0785,20.657701 190.0005,68.650901 Z" id="Path" fill="#553A1C" fill-rule="nonzero"></path>
                    <path d="M104.1645,180.375001 C67.3645,177.175001 41.0535,158.375001 48.1645,126.375001 C60.1645,72.375001 116.1645,60.375001 146.1645,74.375001 C176.1645,88.375001 167.1645,127.375001 127.1645,141.375001 C107.1645,148.375001 93.1645,156.375001 104.1645,180.375001 Z" id="Path" fill="#553A1C" fill-rule="nonzero"></path>
                    <path d="M140.1645,2.99990099 C103.3645,6.19990099 77.0535,25.000001 84.1645,57.000001 C96.1645,111.000001 152.1645,123.000001 182.1645,109.000001 C212.1645,95.000001 203.1645,55.999901 163.1645,41.999901 C143.1645,34.999901 129.1645,26.999901 140.1645,2.99990099 Z" id="Path" fill="#553A1C" fill-rule="nonzero"></path>
                    <path d="M337.9605,7.83500099 C370.5855,25.159501 360.1805,79.189501 351.2505,91.695001 C319.1035,136.712001 284.7765,99.328001 262.6315,74.718901 C240.4875,50.109901 264.0105,17.726701 306.3005,20.468901 C327.4455,21.840001 338.7085,34.225101 337.9605,7.83500099 Z" id="Path" fill="#553A1C" fill-rule="nonzero"></path>
                    <path d="M327.7075,168.937001 C364.5075,165.737001 389.3745,134.603001 390.7075,117.937001 C378.7075,63.936501 315.7075,48.936401 285.7075,62.936401 C255.7075,76.936401 274.7075,113.937001 314.7075,127.937001 C334.7075,134.937001 338.7075,144.937001 327.7075,168.937001 Z" id="Path" fill="#553A1C" fill-rule="nonzero"></path>
                </g>
            </g>
        </g>
    </g>
</svg>