<?xml version="1.0" encoding="UTF-8"?>
<svg width="628px" height="1329px" viewBox="0 0 628 1329" version="1.1" xmlns="http://www.w3.org/2000/svg" xmlns:xlink="http://www.w3.org/1999/xlink">
    <!-- Generator: Sketch 55.2 (78181) - https://sketchapp.com -->
    <title>gee_me_095</title>
    <desc>Created with Sketch.</desc>
    <defs>
        <path d="M127.001,35.5 C147.401,35.1 154.168,22 155.001,15.5 L165.501,15.5 C166.501,17 169.75,20.5 172,31 C175,45 180.001,47.5 183.001,60.5 C185.078,69.5 185.5,83 180.501,90.5 C172.735,102.15 163.001,101 146.501,101 C137,101 121.001,98.5 106.501,102.5 C86.256,108.08 30.501,111 16.4996,106.5 C-7.3589,98.83 0.0002,76.5 9.9989,68 C27.548,53.08 61.445,54.11 70,42.5 C76.999,33 80.983,10.07 86,4.5 C95,-5.5 101.114,3.31 99.5,13 C97.501,25 101.501,36 127.001,35.5 Z" id="path-1"></path>
        <path d="M127.001,35.5 C147.401,35.1 154.168,22 155.001,15.5 L165.501,15.5 C166.501,17 169.75,20.5 172,31 C175,45 180.001,47.5 183.001,60.5 C185.078,69.5 185.5,83 180.501,90.5 C172.735,102.15 163.001,101 146.501,101 C137,101 121.001,98.5 106.501,102.5 C86.256,108.08 30.501,111 16.4996,106.5 C-7.3589,98.83 0.0002,76.5 9.9989,68 C27.548,53.08 61.445,54.11 70,42.5 C76.999,33 80.983,10.07 86,4.5 C95,-5.5 101.114,3.31 99.5,13 C97.501,25 101.501,36 127.001,35.5 Z" id="path-3"></path>
        <path d="M56.788,35.86 C36.636,35.46 29.951,22.36 29.128,15.86 L18.757,15.86 C17.769,17.36 14.559,20.86 12.336,31.36 C9.372,45.36 4.433,47.86 1.469,60.86 C-0.583,69.86 -1,83.36 3.939,90.86 C11.61,102.51 21.226,101.36 37.526,101.36 C46.911,101.36 62.716,98.86 77.04,102.86 C97.039,108.45 152.117,111.36 165.948,106.86 C189.517,99.19 182.247,76.86 172.37,68.36 C155.034,53.44 121.548,54.47 113.097,42.86 C106.183,33.36 102.248,10.44 97.292,4.86 C88.401,-5.14 82.361,3.67 83.956,13.36 C85.93,25.36 81.979,36.36 56.788,35.86 Z" id="path-5"></path>
        <path d="M56.788,35.86 C36.636,35.46 29.951,22.36 29.128,15.86 L18.757,15.86 C17.769,17.36 14.559,20.86 12.336,31.36 C9.372,45.36 4.433,47.86 1.469,60.86 C-0.583,69.86 -1,83.36 3.939,90.86 C11.61,102.51 21.226,101.36 37.526,101.36 C46.911,101.36 62.716,98.86 77.04,102.86 C97.039,108.45 152.117,111.36 165.948,106.86 C189.517,99.19 182.247,76.86 172.37,68.36 C155.034,53.44 121.548,54.47 113.097,42.86 C106.183,33.36 102.248,10.44 97.292,4.86 C88.401,-5.14 82.361,3.67 83.956,13.36 C85.93,25.36 81.979,36.36 56.788,35.86 Z" id="path-7"></path>
    </defs>
    <g id="GEE!-ME" stroke="none" stroke-width="1" fill="none" fill-rule="evenodd">
        <g id="gee_me_095" transform="translate(-286.000000, -136.000000)">
            <g transform="translate(285.000000, 136.000000)">
                <g id="lower-limb" transform="translate(76.609370, 861.000000)">
                    <polygon id="Path" fill="#000000" fill-rule="nonzero" points="156.29363 350.89 95.3306301 353.03 103.74563 408.1 165.20863 405.94"></polygon>
                    <polygon id="Path" fill="#000000" fill-rule="nonzero" points="250.62763 351.25 310.84963 353.39 302.53663 408.46 241.82063 406.3"></polygon>
                    <polygon id="Path" fill="#2E2622" fill-rule="nonzero" points="40.3906301 0 173.39063 0 173.39063 358 77.0506301 358"></polygon>
                    <ellipse id="Oval" fill="#2E2622" fill-rule="nonzero" cx="190.48163" cy="84.27" rx="113.577" ry="53.7997"></ellipse>
                    <polygon id="Path" fill="#2E2622" fill-rule="nonzero" points="199.39063 0 333.39063 0 333.39063 369 236.32663 369"></polygon>
                    <polygon id="Path" fill="#49403C" fill-rule="nonzero" points="64.0936301 317 173.40063 317 173.40063 370.8 75.1956301 370.8"></polygon>
                    <polygon id="Path" fill="#49403C" fill-rule="nonzero" points="228.05463 317 337.36163 317 337.36163 370.8 228.05463 370.8"></polygon>
                    <path d="M0.891930082,454 C-0.895069918,449.98 0.390830082,441 1.39153008,439.5 C2.39223008,438 123.89563,428.5 123.89563,428.5 C144.06263,427 181.63263,427.15 184.39563,438 C191.39563,465.5 172.39063,465.5 156.39063,465.5 C134.39063,465.5 131.77963,459.67 117.39563,461.5 C109.89563,462.45 98.8956301,467.5 48.3956301,467.5 C7.89253008,467.5 4.89193008,463 0.891930082,454 Z" id="Path" fill="#C6CFDB" fill-rule="nonzero"></path>
                    <path d="M127.39163,390.5 C147.79163,390.1 154.55863,377 155.39163,370.5 L165.89163,370.5 C166.89163,372 170.14063,375.5 172.39063,386 C175.39063,400 180.39163,402.5 183.39163,415.5 C185.46863,424.5 185.89063,438 180.89163,445.5 C173.12563,457.15 163.39163,456 146.89163,456 C137.39063,456 121.39163,453.5 106.89163,457.5 C86.6466301,463.08 30.8916301,466 16.8902301,461.5 C-6.96826992,453.83 0.390830082,431.5 10.3895301,423 C27.9386301,408.08 61.8356301,409.11 70.3906301,397.5 C77.3896301,388 81.3736301,365.07 86.3906301,359.5 C95.3906301,349.5 101.50463,358.31 99.8906301,368 C97.8916301,380 101.89163,391 127.39163,390.5 Z" id="Path" fill="#D9E0E9" fill-rule="nonzero"></path>
                    <g id="Clipped" transform="translate(0.390630, 355.000000)">
                        <mask id="mask-2" fill="white">
                            <use xlink:href="#path-1"></use>
                        </mask>
                        <g id="Path"></g>
                        <path d="M93.499,15 C94.699,7.8 96.999,3.33 97.999,2 L96,-3 L84.499,-3 C79.165,1.67 70.199,13.1 76.999,21.5 C85.499,32 91.999,24 93.499,15 Z" id="Path" fill="#FFC9C6" fill-rule="nonzero" mask="url(#mask-2)"></path>
                    </g>
                    <g id="Clipped" transform="translate(0.390630, 355.000000)">
                        <mask id="mask-4" fill="white">
                            <use xlink:href="#path-3"></use>
                        </mask>
                        <g id="Path"></g>
                        <g id="Group" mask="url(#mask-4)" fill-rule="nonzero">
                            <g transform="translate(-8.000000, 47.000000)">
                                <path d="M30.4995,36.5 C21.2995,36.5 18.9995,30.83 18.9995,28 C18.3328,36.83 18.4995,55.8 24.4995,61 C31.999,67.5 87.999,64 95.499,61 C102.999,58 94.499,43 87.999,47 C81.499,51 60.999,49 52.999,43 C44.999,37 41.999,36.5 30.4995,36.5 Z" id="Path" fill="#253A54"></path>
                                <path d="M20.5,25 C20.1,19 17.6667,17.83 16.5,18 L0,19 L2,49 L23,61 C27,60.83 35,59 35,53 C35,45.5 27.5,45.5 23,41 C18.5,36.5 21,32.5 20.5,25 Z" id="Path" fill="#463131"></path>
                                <polygon id="Path" fill="#253A54" points="150 27.5 137.5 54.5 127 54.5 136 35 118 31.5 122 22"></polygon>
                                <polygon id="Path" fill="#253A54" points="125.5 41 120 54.5 108.5 58 116 38.5"></polygon>
                                <circle id="Oval" fill="#FFC9C6" cx="167" cy="14" r="14"></circle>
                            </g>
                        </g>
                    </g>
                    <path d="M48.9305805,402.686017 C47.2255719,402.055905 45.3563871,403.074777 44.9620689,404.849209 L41.8612123,418.803063 L26.9238563,409.921392 C25.4997306,409.074615 23.6587999,409.542648 22.8120224,410.966774 C21.965245,412.3909 22.4332782,414.23183 23.8574039,415.078608 L42.3574039,426.078608 C44.1131329,427.122555 46.3760788,426.144798 46.8191913,424.150791 L50.0737826,409.50513 L69.8506797,416.813983 C71.8999727,417.571331 74.0456261,415.954272 73.882228,413.77563 L72.6240557,397 L90.3906301,397 C92.0474843,397 93.3906301,395.656854 93.3906301,394 C93.3906301,392.343146 92.0474843,391 90.3906301,391 L69.3906301,391 C67.6453765,391 66.2685047,392.484004 66.3990322,394.22437 L67.5497299,409.567006 L48.9305805,402.686017 Z" id="Path" fill="#C6CFDB" fill-rule="nonzero"></path>
                    <path d="M404.50763,454.39 C406.27663,450.34 405.00363,441.29 404.01363,439.77 C403.02263,438.26 282.75463,428.68 282.75463,428.68 C262.79263,427.17 225.60363,427.32 222.86863,438.26 C215.93963,465.99 234.75163,465.99 250.58963,465.99 C272.36563,465.99 274.94963,460.11 289.18863,461.95 C296.61163,462.91 307.50063,468 357.48663,468 C397.57863,468 400.54863,463.47 404.50763,454.39 Z" id="Path" fill="#C6CFDB" fill-rule="nonzero"></path>
                    <path d="M279.25463,390.54 C259.06663,390.13 252.37063,376.99 251.54563,370.47 L241.15563,370.47 C240.16663,371.97 236.95063,375.48 234.72363,386.02 C231.75563,400.07 226.80663,402.58 223.83763,415.62 C221.78263,424.66 221.36463,438.2 226.31163,445.73 C233.99663,457.42 243.62963,456.27 259.95863,456.27 C269.35963,456.27 285.19263,453.76 299.54263,457.77 C319.57663,463.38 374.75163,466.3 388.60763,461.79 C412.21763,454.09 404.93563,431.68 395.04063,423.15 C377.67463,408.18 344.12963,409.21 335.66363,397.56 C328.73663,388.03 324.79463,365.02 319.82963,359.43 C310.92363,349.39 304.87363,358.23 306.47063,367.96 C308.44863,380 304.48963,391.04 279.25463,390.54 Z" id="Path" fill="#D9E0E9" fill-rule="nonzero"></path>
                    <g id="Clipped" transform="translate(222.390630, 355.000000)">
                        <mask id="mask-6" fill="white">
                            <use xlink:href="#path-5"></use>
                        </mask>
                        <g id="Path"></g>
                        <path d="M89.885,15.36 C88.699,8.16 86.427,3.69 85.439,2.36 L87.414,-2.64 L98.775,-2.64 C104.044,2.03 112.902,13.46 106.184,21.86 C97.787,32.36 91.366,24.36 89.885,15.36 Z" id="Path" fill="#FFC9C6" fill-rule="nonzero" mask="url(#mask-6)"></path>
                    </g>
                    <g id="Clipped" transform="translate(222.390630, 355.000000)">
                        <mask id="mask-8" fill="white">
                            <use xlink:href="#path-7"></use>
                        </mask>
                        <g id="Path"></g>
                        <g id="Group" mask="url(#mask-8)" fill-rule="nonzero">
                            <g transform="translate(41.000000, 65.000000)" id="Path">
                                <path d="M119.02,18.86 C128.108,18.86 130.38,13.19 130.38,10.36 C131.039,19.19 130.874,38.16 124.947,43.36 C117.538,49.86 62.218,46.36 54.81,43.36 C47.401,40.36 55.797,25.36 62.218,29.36 C68.64,33.36 88.891,31.36 96.793,25.36 C104.696,19.36 107.66,18.86 119.02,18.86 Z" fill="#253A54"></path>
                                <path d="M128.898,7.36 C129.294,1.36 131.697,0.19 132.85,0.36 L149.149,1.36 L147.174,31.36 L126.429,43.36 C122.477,43.19 114.574,41.36 114.574,35.36 C114.574,27.86 121.983,27.86 126.429,23.36 C130.874,18.86 128.404,14.86 128.898,7.36 Z" fill="#463131"></path>
                                <polygon fill="#253A54" points="0.971 9.86 13.319 36.86 23.692 36.86 14.801 17.36 32.582 13.86 28.631 4.36"></polygon>
                                <polygon fill="#253A54" points="25.174 23.36 30.607 36.86 41.967 40.36 34.558 20.86"></polygon>
                            </g>
                        </g>
                    </g>
                    <circle id="Oval" fill="#FFC9C6" fill-rule="nonzero" transform="translate(247.390630, 416.000000) scale(-1, 1) translate(-247.390630, -416.000000) " cx="247.39063" cy="416" r="14"></circle>
                    <path d="M331.898755,414.11936 C331.737645,416.304007 333.896306,417.9191 335.946676,417.147983 L355.700051,409.718996 L358.959753,424.640279 C359.39871,426.649605 361.68346,427.631412 363.44329,426.566953 L381.94329,415.376953 C383.360979,414.519443 383.815093,412.675029 382.957583,411.25734 C382.100073,409.839651 380.255659,409.385537 378.83797,410.243047 L363.926432,419.262513 L360.821508,405.049721 C360.431158,403.262895 358.546486,402.238193 356.834584,402.882017 L338.227698,409.879824 L339.382505,394.22064 C339.510754,392.481593 338.1344,391 336.39063,391 L315.39063,391 C313.733776,391 312.39063,392.343146 312.39063,394 C312.39063,395.656854 313.733776,397 315.39063,397 L333.161244,397 L331.898755,414.11936 Z" id="Path" fill="#C6CFDB" fill-rule="nonzero"></path>
                </g>
                <g id="upper-limb" transform="translate(0.000000, 393.000000)" fill-rule="nonzero">
                    <path d="M106.147871,137.518297 C97.4729628,148.361933 89.5411945,158.885072 81.90718,169.653966 C75.8715334,178.168129 69.9940153,186.873475 63.9218135,196.258895 L62.0266578,199.199968 L60.4645119,201.641854 C55.2343616,209.843609 49.7488095,218.706382 43.2449524,229.419363 L17.5906106,272.063376 C0.504785162,300.455998 9.67075457,337.323564 38.0633763,354.409389 C66.1720718,371.324357 102.58706,362.50994 119.890908,334.782627 L144.670115,293.591738 L146.843876,290.010893 C153.76665,278.629028 159.34307,269.682908 164.673742,261.443624 C169.856138,253.433521 174.78948,246.126619 179.804181,239.05265 C186.09039,230.185032 192.623697,221.517242 199.852129,212.481703 C220.552701,186.605987 216.357419,148.848444 190.481703,128.147871 C164.605987,107.447299 126.848444,111.642581 106.147871,137.518297 Z" id="Path" fill="#FFB2B2"></path>
                    <rect id="Rectangle" fill="#FFB2B2" x="169" y="0" width="312" height="144" rx="72"></rect>
                    <path d="M99.6799,199.97 C105.011,147.339 149.701,108 202.601,108 L317.511,108 C369.93,108 414.371,146.646 420.154,198.745 C425.605,247.859 430.999,306.145 430.999,344.477 C430.999,386.95 424.375,439.813 418.391,478.909 C413.474,511.031 385.528,534 353.032,534 L167.503,534 C134.322,534 105.993,510.078 101.556,477.195 C96.214,437.599 90.2721,384.848 89.9992,344.477 C89.7517,307.852 94.6601,249.529 99.6799,199.97 Z" id="Path" fill="#FF9494"></path>
                    <ellipse id="Oval" fill="#FFB3B3" cx="261.113" cy="121.873" rx="70.0249" ry="70.8789"></ellipse>
                    <rect id="Rectangle" fill="#FFB2B2" x="224" y="171" width="21.3491" height="179.332" rx="10.6745"></rect>
                    <rect id="Rectangle" fill="#FFB2B2" x="283.316" y="170.549" width="21.3491" height="136.634" rx="10.6745"></rect>
                    <path d="M388.125309,219.555747 L388.853354,222.479558 L389.448187,224.929799 C391.963376,235.411366 394.338182,246.862692 397.471226,263.19435 L401.870967,286.3759 C405.612042,305.957145 407.978169,317.350607 410.982343,329.739265 C415.507507,348.400205 420.392386,363.869936 426.374068,377.324087 L428.807216,382.766072 L429.878583,385.224742 C430.464579,386.583185 431.110145,388.100576 431.912366,390.003461 L438.392933,405.47917 L439.179758,407.345742 C456.311503,447.876524 473.473514,476.596003 510.558024,521.165461 C523.628097,536.87353 546.957391,539.012049 562.665461,525.941976 C578.37353,512.871903 580.512049,489.542609 567.441976,473.834539 L565.784121,471.835135 C548.804208,451.284787 536.494742,434.129207 527.14692,418.486251 L526.187804,416.870129 L525.206842,415.19281 C518.909185,404.340776 514.100204,394.392843 508.212612,380.588273 L506.97673,377.672234 L499.470006,359.762094 L498.246844,356.887863 C497.042159,354.07681 496.097011,351.940099 494.8303,349.124131 L494.225687,347.782312 C486.963326,331.687819 482.08235,311.975202 473.86397,268.848256 L470.68323,252.061265 L469.136102,244.020479 C465.709393,226.390418 463.038787,213.978943 459.874691,201.444253 C454.87334,181.631208 434.757297,169.623958 414.944253,174.625309 C395.131208,179.62666 383.123958,199.742703 388.125309,219.555747 Z" id="Path" fill="#F6DDD6"></path>
                    <rect id="Rectangle" fill="#FFB2B2" transform="translate(452.976694, 303.237217) scale(-1, 1) rotate(18.999984) translate(-452.976694, -303.237217) " x="396.172674" y="108.906149" width="113.60804" height="388.662136" rx="56.8040199"></rect>
                    <path d="M173.93748,214.780908 L173.528417,215.160651 L173.324382,215.32917 L172.908595,215.657656 L172.451756,216.005302 L171.939849,216.38352 C171.49067,216.711078 170.985463,217.069126 170.427564,217.454273 L170.086529,217.688586 C167.756304,219.282152 164.788065,221.164788 161.25306,223.287449 L160.053831,224.003825 L158.727903,224.787822 C151.772433,228.87975 143.195316,233.610197 133.154237,238.9176 L130.225843,240.460049 L126.139581,242.595563 C125.677953,242.835785 125.213776,243.076998 124.747034,243.319215 L120.476665,245.52655 C112.226046,249.774982 103.623728,254.117905 93.5376195,259.146042 L67.7115277,271.979564 L62.3082602,274.696503 L59.9219458,275.916919 C55.7045537,278.097329 53.797466,279.243652 51.4840915,280.922813 L51.2847439,281.068083 C50.1857249,281.872038 49.0996931,282.743258 47.9097173,283.839925 C44.9510566,286.566591 42.4183382,289.519812 40.0020254,294.222678 L39.2339745,295.826836 L39.0104734,296.313155 C38.4061777,297.655468 38.1218438,298.555486 37.1534893,301.620671 L36.6939098,303.69588 L36.5487587,304.388596 C35.9977185,307.098551 35.9951452,308.262069 35.9833892,313.577635 L36.2688481,315.732277 L36.4569665,317.074168 C37.0803326,321.329326 37.5804041,322.469457 40.2716286,328.605276 L41.6369467,330.738753 L42.5004452,332.066283 C44.8293209,335.597395 45.6780469,336.362311 49.7556222,340.037233 L51.6537837,341.37564 C54.8339034,343.603677 55.3623116,343.840239 58.9731014,345.456745 L61.0180305,346.191235 L61.8483567,346.478059 C63.092915,346.895349 63.7602504,347.044862 65.6409227,347.466218 L68.3938226,347.871298 L69.1493046,347.973885 C70.7607569,348.182511 71.4196936,348.18601 73.3701463,348.196367 C77.2479161,348.15713 79.7532509,347.697683 82.6563151,346.946939 C83.7003566,346.676946 84.6444015,346.393243 85.6198617,346.074114 L86.4782437,345.786588 L87.1160525,345.565228 C88.967874,344.914084 91.2111637,344.055542 94.1403704,342.89382 C98.4129562,341.199315 102.194601,338.797904 105.404264,335.877164 L124.246002,326.521994 C135.193119,321.073042 144.4623,316.402558 153.365732,311.825054 L157.360632,309.764449 L160.308122,308.234811 C161.280809,307.728636 162.243746,307.226126 163.197111,306.727161 L167.341148,304.54933 L171.609388,302.28714 C198.132567,288.163123 215.0243,277.854167 224.546995,268.764735 C239.32875,254.655519 239.873951,231.23476 225.764735,216.453005 C211.808699,201.831731 188.742206,201.139565 173.93748,214.780908 Z" id="Path" fill="#F6DDD6"></path>
                    <path d="M226.363,188.511 C228.302,183.34 225.682,177.576 220.511,175.637 C215.34,173.698 209.576,176.318 207.637,181.489 L226.363,188.511 Z M256.877,206.76 C260.887,202.961 261.058,196.632 257.26,192.623 C253.461,188.613 247.132,188.442 243.123,192.24 L256.877,206.76 Z M210.785,229.714 C212.438,225.582 221.896,200.423 226.363,188.511 L207.637,181.489 C203.104,193.577 193.762,218.418 192.215,222.286 L210.785,229.714 Z M217.699,241.042 C230.398,233.312 238.645,224.032 256.877,206.76 L243.123,192.24 C223.355,210.968 217.602,217.688 207.301,223.958 L217.699,241.042 Z" id="Shape" fill="#F6DDD6"></path>
                    <path d="M130.112517,221.147457 L128.270648,222.377665 L125.684191,224.093228 C98.2176458,242.232705 83.8261959,249.141093 65.78905,254.635746 L63.4484877,255.336187 L61.3293247,255.955375 L51.8372396,258.668199 C48.8394321,259.527127 46.3077861,260.265825 43.7591269,261.030423 C12.0195558,270.552294 -5.99144842,304.001302 3.53042289,335.740873 C13.0522942,367.480444 46.5013021,385.491448 78.2408731,375.969577 L80.820603,375.204575 L94.4499078,371.294442 L96.7746064,370.617176 C97.5228706,370.397463 98.2505785,370.18197 98.9759674,369.96523 L100.859068,369.396803 L102.692074,368.832089 C132.535791,359.543648 157.830751,347.009803 196.887483,320.852543 C224.420282,302.413145 231.79194,265.145316 213.352543,237.612517 C194.913145,210.079718 157.645316,202.70806 130.112517,221.147457 Z" id="Path" fill="#FFB2B2"></path>
                    <g id="Group-3" transform="translate(451.939012, 501.326275)">
                        <path d="M22.5609884,139.173725 C46.2799884,70.2767248 65.2279884,20.6737248 77.5619884,1.17372478 C85.0619884,-7.32627522 78.8329884,33.1437248 91.0619884,32.6737248 C104.061988,32.1737248 115.061988,21.6737248 116.561988,18.1737248 C122.894988,24.1737248 133.761988,61.0737248 146.561988,100.673725 C162.561988,150.173725 180.061988,262.673725 176.561988,283.673725 C173.061988,304.673725 150.059988,329.673725 66.0599884,326.173725 C-17.9400116,322.673725 -8.94001164,230.673725 22.5609884,139.173725 Z" id="Path" fill="#8D95B1"></path>
                        <polygon id="Path" fill="#FFFFFF" points="81.1837833 49.0724204 53.1837833 173.07242 62.9381934 175.275029 90.9381934 51.2750291"></polygon>
                        <polygon id="Path" fill="#FFFFFF" points="91.079661 125.74201 84.579661 200.74201 94.5423157 201.60544 101.042316 126.60544"></polygon>
                    </g>
                </g>
                <g id="head" transform="translate(55.999600, 0.000000)">
                    <rect id="Rectangle" fill="#EED1C9" fill-rule="nonzero" x="171.8094" y="438.016" width="76.8567" height="115.285" rx="38.4283"></rect>
                    <ellipse id="Oval" fill="#EFC8BD" fill-rule="nonzero" cx="58.4094" cy="286.285" rx="58.4094" ry="55.7386"></ellipse>
                    <ellipse id="Oval" fill="#EFC8BD" fill-rule="nonzero" cx="350.1744" cy="286.866" rx="58.4094" ry="55.7386"></ellipse>
                    <path d="M54.5564,180.476 C54.5564,99.5796 123.5044,34 208.5564,34 C293.6084,34 362.5564,99.5796 362.5564,180.476 L362.5564,326.165 C350.1374,420.665 275.6204,472.641 208.5564,472.641 C141.4914,472.641 63.6634,409.64 54.5564,326.165 L54.5564,180.476 Z" id="Path" fill="#F6DDD6" fill-rule="nonzero"></path>
                    <path d="M111.607715,227.426219 L168.245715,224.938219 C171.556231,224.792795 174.122044,221.991201 173.976619,218.680685 C173.831195,215.370169 171.029601,212.804356 167.719085,212.949781 L111.081085,215.437781 C107.770569,215.583205 105.204756,218.384799 105.350181,221.695315 C105.495605,225.005831 108.297199,227.571644 111.607715,227.426219 Z" id="Path" fill="#62360D" fill-rule="nonzero"></path>
                    <circle id="Oval" fill="#F2CACA" fill-rule="nonzero" cx="112.5574" cy="344" r="37"></circle>
                    <path d="M244.333889,223.082673 L300.919889,226.564673 C304.227342,226.768196 307.07355,224.251963 307.277073,220.944511 C307.480596,217.637058 304.964363,214.79085 301.656911,214.587327 L245.070911,211.105327 C241.763458,210.901804 238.91725,213.418037 238.713727,216.725489 C238.510204,220.032942 241.026437,222.87915 244.333889,223.082673 Z" id="Path" fill="#62360D" fill-rule="nonzero"></path>
                    <path d="M212.192404,293.476846 L195.348396,291.179154 L195.226579,292.018842 L195.13544,292.579168 C194.920909,293.837578 194.615873,295.233131 194.010443,297.74317 L192.212844,305.082584 L191.887728,306.463883 L191.605689,307.703846 L191.329596,308.968356 C189.64682,316.858738 189.222001,322.535834 190.485534,327.833977 C192.67316,337.006949 199.93641,342.308 210.6414,342.308 L210.6414,325.308 C209.540335,325.308 208.680401,325.204806 208.049739,325.033644 C207.676429,324.932327 207.46753,324.834678 207.361162,324.757046 L207.316675,324.71531 L207.268693,324.646145 C207.201942,324.531086 207.123199,324.315566 207.021782,323.890313 C206.444244,321.468627 206.862588,317.273434 208.334284,310.801022 L208.724679,309.12858 L210.668134,301.186111 L211.123823,299.248087 C211.681583,296.811404 211.928497,295.411509 212.192404,293.476846 Z" id="Path" fill="#EBBAAA" fill-rule="nonzero"></path>
                    <circle id="Oval" fill="#FD9292" fill-rule="nonzero" transform="translate(376.557400, 318.818000) scale(-1, 1) rotate(-180.000000) translate(-376.557400, -318.818000) " cx="376.5574" cy="318.818" r="9"></circle>
                    <circle id="Oval" fill="#FD9292" fill-rule="nonzero" transform="translate(40.557000, 318.818000) scale(-1, 1) rotate(-180.000000) translate(-40.557000, -318.818000) " cx="40.557" cy="318.818" r="9"></circle>
                    <ellipse id="Oval" fill="#F2CACA" fill-rule="nonzero" cx="316.0574" cy="342" rx="36.5" ry="37"></ellipse>
                    <path d="M206.0034,0 C78.0034,0 22.0001,103.5 21.5001,160.5 C21.3149,181.603 23.854,211.5 29.5004,238 C44.5004,232 47.4934,243.464 55.9994,250 C65.4974,242 71.0004,204.5 100.0004,188.5 C126.9734,173.618 161.4994,150.5 169.5034,139 C177.5034,150.5 194.4994,156.5 234.0034,170 C287.5434,188.297 332.0034,184.5 348.5034,206 C361.7034,223.2 357.5004,242 361.5004,245.5 C365.5004,249 362.4994,229 381.4994,239.5 C387.9004,205.959 394.0134,116.693 365.5024,78 C321.8284,18.7285 279.5864,0 206.0034,0 Z" id="Path" fill="#231202" fill-rule="nonzero"></path>
                    <path d="M54.0004,559.5 C24.9981,539 32.335,412.667 40.0004,339 C40.0004,339 47.0004,341 51.0004,341.5 C55.0004,342 57.5004,342 57.5004,342 C59.0004,348.5 64.5004,368 83.0004,397 C98.4544,421.226 125.5004,446.5 143.0004,454 C142.0004,464.167 142.1624,483.5 144.5004,513.5 C147.5004,552 136.0004,575 115.5004,576 C99.1004,576.8 84.9994,556.5 83.0004,552 C80.4994,558 74.8084,574.208 54.0004,559.5 Z" id="Path" fill="#231202" fill-rule="nonzero"></path>
                    <path d="M388.7534,476 C384.8894,441.529 373.5014,388 371.0004,339 C371.0004,339 367.5004,340 365.2524,341 C363.0044,342 359.5004,343.5 359.5004,343.5 C354.0014,359 353.7534,375.5 329.7534,409.5 C314.7014,430.823 291.2534,446.5 278.7534,453.5 C275.7534,489.167 281.7814,545.514 295.7534,552.5 C303.7524,556.5 305.7534,551.5 317.2524,547 C328.7514,542.5 338.6004,566 351.7534,566 C377.2524,566 395.2534,534 388.7534,476 Z" id="Path" fill="#231202" fill-rule="nonzero"></path>
                    <path d="M156.914519,383.4577 C161.528822,396.761356 186.294688,408.5 210.4784,408.5 C233.294486,408.5 252.94993,398.199003 261.328846,385.025018 C263.551802,381.529913 262.520522,376.894509 259.025418,374.671554 C255.603128,372.494909 251.087556,373.43832 248.813997,376.759754 L248.671954,376.974982 C246.440428,380.483561 241.903306,384.460662 236.046195,387.530248 C228.79135,391.332357 220.123178,393.5 210.4784,393.5 C200.635414,393.5 190.813425,391.219741 182.746211,387.396005 C179.233962,385.731252 176.250722,383.854566 174.06881,381.991397 C172.405909,380.571419 171.414363,379.330781 171.124495,378.641509 L171.086281,378.5423 C169.728931,374.628876 165.456124,372.556769 161.5427,373.914119 C157.629276,375.271469 155.557169,379.544276 156.914519,383.4577 Z" id="Path" fill="#EBBAAA" fill-rule="nonzero"></path>
                    <rect id="Rectangle" stroke="#F1CA64" stroke-width="10" fill-opacity="0.2" fill="#FFFFFF" fill-rule="nonzero" stroke-linejoin="round" x="223.0004" y="231" width="109" height="79" rx="28"></rect>
                    <rect id="Rectangle" stroke="#F1CA64" stroke-width="10" fill-opacity="0.2" fill="#FFFFFF" fill-rule="nonzero" stroke-linejoin="round" x="80.0004" y="232" width="109" height="79" rx="28"></rect>
                    <path d="M259.769087,260.149175 C260.353087,260.304908 261.305753,260.509051 262.574892,260.704303 C267.478118,261.458645 272.973356,261.458645 278.642052,260.198935 C281.373984,259.591839 283.932794,258.822798 286.31153,257.927575 C288.526734,257.093896 290.476853,256.193445 292.152251,255.281959 L292.65553,255.003354 L293.156696,254.715241 C293.705626,254.393048 294.129139,254.121061 294.424712,253.91416 C296.686958,252.330587 297.237132,249.212935 295.65356,246.950688 C294.115232,244.753077 291.129234,244.171104 288.886034,245.591321 L288.498379,245.847573 L288.180286,246.041276 C288.011045,246.141523 287.804796,246.260015 287.562123,246.394225 L287.373299,246.497791 C286.093384,247.194117 284.561441,247.901479 282.78927,248.568425 C280.843506,249.300702 278.735816,249.934161 276.472748,250.437065 C272.141444,251.399577 267.858904,251.399577 264.095464,250.820586 L263.478483,250.719533 L263.078533,250.64647 C262.835871,250.599979 262.641728,250.558449 262.49957,250.525046 L262.345713,250.486825 C259.677529,249.77531 256.937741,251.361503 256.226225,254.029687 C255.51471,256.697871 257.100903,259.437659 259.769087,260.149175 Z" id="Path" fill="#000000" fill-rule="nonzero"></path>
                    <path d="M252.5104,260.838 L252.5104,280.891 C252.5104,287.518417 257.882983,292.891 264.5104,292.891 C271.137817,292.891 276.5104,287.518417 276.5104,280.891 L276.5104,260.838 C276.5104,254.210583 271.137817,248.838 264.5104,248.838 C257.882983,248.838 252.5104,254.210583 252.5104,260.838 Z" id="Path" fill="#000000" fill-rule="nonzero"></path>
                    <path d="M151.990411,253.855066 L151.72885,253.911046 C151.389109,253.980801 150.929505,254.065025 150.36249,254.152275 C146.301047,254.777232 141.682332,254.777232 137.007267,253.738112 C134.571336,253.196935 132.302736,252.515133 130.207989,251.726694 C128.49027,251.080165 126.981191,250.397928 125.689871,249.720171 L125.267509,249.494473 L124.869368,249.274256 C124.378231,248.997886 124.04638,248.792371 123.878896,248.679878 L123.828175,248.645165 C121.566107,247.061336 118.448393,247.611158 116.864565,249.873225 C115.280736,252.135293 115.830558,255.253007 118.092625,256.836835 L118.358136,257.01738 C118.845605,257.340437 119.557448,257.771987 120.487888,258.278277 C122.264371,259.244933 124.333647,260.200547 126.685364,261.085707 C129.213368,262.037218 131.93339,262.85469 134.838016,263.499995 C140.619006,264.784927 146.233045,264.834347 151.280409,264.124716 L151.883347,264.035948 C153.227044,263.829185 154.233247,263.61353 154.845938,263.450115 C157.514089,262.738475 159.100155,259.998613 158.388515,257.330462 C157.715342,254.806535 155.227288,253.250873 152.701832,253.692433 L152.485314,253.735196 L151.990411,253.855066 Z" id="Path" fill="#000000" fill-rule="nonzero"></path>
                    <path d="M137.8664,264.518 L137.8664,285.95 C137.8664,292.577417 143.238983,297.95 149.8664,297.95 C156.493817,297.95 161.8664,292.577417 161.8664,285.95 L161.8664,264.518 C161.8664,257.890583 156.493817,252.518 149.8664,252.518 C143.238983,252.518 137.8664,257.890583 137.8664,264.518 Z" id="Path" fill="#000000" fill-rule="nonzero"></path>
                    <path d="M189.0004,269 C191.3334,267.333 198.8004,264 206.0004,264 C213.2004,264 219.3334,267.333 222.0004,269" id="Path" stroke="#F1CA64" stroke-width="10"></path>
                </g>
            </g>
        </g>
    </g>
</svg>