<?xml version="1.0" encoding="UTF-8"?>
<svg width="496px" height="1339px" viewBox="0 0 496 1339" version="1.1" xmlns="http://www.w3.org/2000/svg" xmlns:xlink="http://www.w3.org/1999/xlink">
    <!-- Generator: Sketch 55.2 (78181) - https://sketchapp.com -->
    <title>gee_me_028</title>
    <desc>Created with Sketch.</desc>
    <defs>
        <path d="M1.6183655,0.577779468 C1.20486242,2.8501749 0.987926078,5.19084411 0.987926078,7.58348289 L0.987926078,19.9379772 C0.987926078,41.3759392 18.3581109,58.7551787 39.785922,58.7551787 C61.2127146,58.7551787 78.5828994,41.3759392 78.5828994,19.9379772 L78.5828994,7.58348289 C78.5828994,5.19084411 78.3669815,2.8501749 77.95246,0.577779468 L1.6183655,0.577779468 Z" id="path-1"></path>
    </defs>
    <g id="GEE!-ME" stroke="none" stroke-width="1" fill="none" fill-rule="evenodd">
        <g id="gee_me_028" transform="translate(-352.000000, -130.000000)">
            <g transform="translate(352.000000, 130.000000)">
                <g id="hand" transform="translate(-0.000003, 0.000000)">
                    <path d="M114.498599,440.556335 C108.619929,399.55743 137.099699,361.741916 178.109835,356.092517 L328.234878,335.4127 C373.076537,329.235452 414.197687,361.761278 418.525211,406.829095 C422.745794,450.789247 390.244044,489.537156 346.21717,493.032365 L195.101145,505.029186 C155.493457,508.172837 120.138944,479.894251 114.498599,440.556335 Z" id="Path" fill="#2F200F" fill-rule="nonzero"></path>
                    <path d="M309.475486,152.77019 C361.823346,152.77019 360.082763,211.287939 383.029129,233.064213 C390.083124,274.704076 357.600726,357.25419 378.681235,409.174859 C406.102804,444.776061 396.918147,459.868639 393.449202,463.665475 C393.019404,464.02111 392.65988,464.356365 392.377761,464.67124 C392.377761,464.67124 392.819781,464.354327 393.449202,463.665475 C400.67634,457.670631 427.655888,445.544395 434.250549,416.430221 C441.632496,383.837141 462.259781,403.864791 461.219913,364.919194 C459.833761,313.069856 433.635387,202.208548 418.474287,164.942281 C405.567083,133.214342 368.277457,92.4710053 309.475486,92.4710053 C279.363092,98.7933597 300.362122,152.77019 309.475486,152.77019 Z" id="Path" fill="#3D2C18" fill-rule="nonzero"></path>
                    <rect id="Rectangle" fill="#F1D3CB" fill-rule="nonzero" x="201.628586" y="404.076745" width="90.9759737" height="116.732852" rx="45.4879869"></rect>
                    <path d="M80.590124,162.243939 C80.590124,81.0426905 151.625268,15.2159802 239.252274,15.2159802 C326.87928,15.2159802 397.914221,81.0426905 397.914221,162.243939 L387.729416,308.481247 C374.934246,403.337962 308.347009,455.509308 239.252274,455.509308 C170.157539,455.509308 100.15819,392.271498 90.7749289,308.481247 L80.590124,162.243939 Z" id="Path" fill="#F6DDD6" fill-rule="nonzero"></path>
                    <path d="M199.594681,349.472 C199.592644,349.638099 199.591625,349.804198 199.591625,349.971316 L199.591625,362.32581 C199.591625,383.764791 216.96181,401.14403 238.389621,401.14403 C259.816414,401.14403 277.186599,383.764791 277.186599,362.32581 L277.186599,349.971316 C277.186599,349.804198 277.18558,349.638099 277.183543,349.472 L199.594681,349.472 Z" id="Path" fill="#393939"></path>
                    <g id="Clipped" transform="translate(198.603699, 342.387833)">
                        <mask id="mask-2" fill="white">
                            <use xlink:href="#path-1"></use>
                        </mask>
                        <g id="Path"></g>
                        <g id="Group" mask="url(#mask-2)" fill-rule="nonzero">
                            <g transform="translate(0.000000, 6.114068)">
                                <ellipse id="Oval" fill="#FF6C6C" cx="39.7849035" cy="52.350692" rx="23.3968394" ry="12.4824821"></ellipse>
                                <rect id="Rectangle" fill="#FFFFFF" x="0.987926078" y="0.970098859" width="77.5944641" height="15.6756563"></rect>
                            </g>
                        </g>
                    </g>
                    <path d="M169.531155,201.656478 C178.299932,200.899138 186.917254,201.248254 194.842053,202.290178 C196.357868,202.489472 197.744193,202.702051 198.98643,202.917474 L200.040105,203.107111 C200.617291,203.214984 201.048861,203.302948 201.324474,203.363725 C204.620321,204.090508 206.703266,207.352886 205.976861,210.650451 C205.266966,213.873072 202.136682,215.936691 198.918564,215.35048 L198.275361,215.219119 C198.039892,215.172697 197.729142,215.11381 197.347048,215.04507 C196.159746,214.83147 194.786251,214.616104 193.249706,214.414085 C186.142248,213.479622 178.385415,213.165367 170.582264,213.839309 C164.735275,214.344301 158.779846,215.420342 152.952347,216.897504 C150.024266,217.639718 147.322906,218.434172 144.919044,219.225675 L144.119983,219.492503 C143.864942,219.578913 143.621321,219.662705 143.389444,219.743621 L142.452496,220.077871 L142.037453,220.232537 C138.88991,221.451054 135.351032,219.885939 134.13315,216.736754 C132.915268,213.587569 134.479568,210.046847 137.627112,208.82833 L138.269818,208.586908 C138.894046,208.35804 139.737255,208.062164 140.779803,207.715768 L141.098528,207.61035 C143.762439,206.733222 146.734884,205.859045 149.950801,205.04387 C156.38033,203.414104 162.973337,202.222863 169.531155,201.656478 Z" id="Path" fill="#46413D" fill-rule="nonzero"></path>
                    <path d="M280.166638,200.78907 C288.628913,200.101312 298.00621,200.221782 307.30407,201.720937 C312.818069,202.610364 318.22773,203.990185 323.438785,205.727523 C326.76483,206.836409 329.816014,208.025821 332.534165,209.220166 L333.476324,209.640112 C334.658266,210.174843 335.540584,210.60559 336.092696,210.894042 C339.084333,212.457028 340.243144,216.150543 338.680972,219.14374 C337.155995,222.065669 333.601793,223.240101 330.650414,221.840389 L329.919681,221.476397 L329.778372,221.407845 C329.16664,221.112195 328.444428,220.778537 327.619797,220.416198 C325.232571,219.36726 322.529086,218.313388 319.575095,217.328543 C314.959589,215.789758 310.182347,214.571246 305.359195,213.793255 C297.158333,212.470976 288.717393,212.362535 281.156165,212.977062 L280.264503,213.053837 C279.979325,213.079828 279.706335,213.106148 279.44597,213.132587 L278.261415,213.26357 L277.922792,213.306802 C274.580357,213.774383 271.491928,211.442441 271.02459,208.098265 C270.557253,204.754088 272.88798,201.664048 276.230414,201.196468 L276.967459,201.10177 C277.751576,201.008087 278.829761,200.897722 280.166638,200.78907 Z" id="Path" fill="#46413D" fill-rule="nonzero"></path>
                    <path d="M184.13624,240.709713 C186.915588,240.279214 189.517501,242.184507 189.947776,244.965303 C190.366727,247.672921 188.57236,250.212232 185.91198,250.741404 L185.694403,250.779868 L158.260612,255.029146 C155.481265,255.459645 152.879352,253.554352 152.449077,250.773556 C152.030125,248.065938 153.824492,245.526627 156.484872,244.997455 L156.70245,244.958991 L184.13624,240.709713 Z" id="Path" fill="#000000" fill-rule="nonzero"></path>
                    <path d="M284.308663,242.362931 C284.727516,239.655298 287.205245,237.777622 289.901026,238.077977 L290.120044,238.10713 L317.553834,242.355389 C320.333198,242.785787 322.237592,245.388987 321.807418,248.169799 C321.388564,250.877432 318.910835,252.755108 316.215055,252.454753 L315.996037,252.4256 L288.562246,248.177342 C285.782883,247.746943 283.878489,245.143743 284.308663,242.362931 Z" id="Path" fill="#000000" fill-rule="nonzero"></path>
                    <path d="M167.517867,245.051873 C167.899793,238.309279 173.67251,233.1531 180.411591,233.535225 C187.046994,233.911472 192.14522,239.516639 191.93595,246.125177 L191.922238,246.435671 L190.857926,265.225222 C190.476,271.967817 184.703283,277.123995 177.964202,276.74187 C171.328799,276.365623 166.230573,270.760456 166.439843,264.151918 L166.453555,263.841424 L167.517867,245.051873 Z" id="Path" fill="#000000" fill-rule="nonzero"></path>
                    <path d="M283.448444,242.449355 C283.830349,235.70676 289.603051,230.550563 296.342133,230.932668 C302.977537,231.308894 308.07578,236.914046 307.86653,243.522585 L307.852819,243.833079 L306.788507,262.623649 C306.406602,269.366244 300.6339,274.52244 293.894818,274.140336 C287.259414,273.764109 282.161171,268.158958 282.370421,261.550419 L282.384132,261.239925 L283.448444,242.449355 Z" id="Path" fill="#000000" fill-rule="nonzero"></path>
                    <path d="M235.219356,228.112142 L252.365965,230.51636 L252.287438,231.034055 C251.887762,233.486031 251.018006,236.467548 249.469075,241.012541 L243.916872,256.817837 C243.737427,257.335592 243.579948,257.792967 243.451477,258.170332 C241.468947,263.993726 239.898069,269.040842 238.629137,273.802803 L238.27914,275.140063 C235.441258,286.186911 234.575027,294.802308 235.879357,300.469963 C237.049737,305.555568 239.687023,307.695509 246.479225,307.769029 L246.847083,307.770996 L246.847083,325.09419 C231.771358,325.09419 222.020426,317.452493 219.006688,304.357018 C216.861007,295.033477 218.115136,283.541272 221.899352,269.340125 C223.119444,264.761449 224.571907,260.017308 226.338437,254.729744 L227.531344,251.220333 C229.119312,246.636229 232.351813,237.536804 232.590468,236.848786 L233.023323,235.590501 C234.261348,231.959016 234.957013,229.611313 235.178028,228.369878 L235.219356,228.112142 Z" id="Path" fill="#EBBAAA" fill-rule="nonzero"></path>
                    <path d="M349.067896,314.553536 C348.627913,321.248441 340.107305,331.143042 330.690434,326.682829 C321.273564,322.222616 314.526131,305.09711 314.965096,298.401186 C315.405079,291.706281 324.280118,276.423148 333.696989,280.883361 C343.11386,285.343574 349.506862,307.857612 349.067896,314.553536 Z" id="Path" fill="#F2CACA" fill-rule="nonzero"></path>
                    <path d="M128.937597,322.759635 C129.376562,329.455559 137.898188,339.35016 147.315059,334.889947 C156.731929,330.429734 163.479363,313.304228 163.039379,306.608304 C162.600414,299.91238 153.725375,284.630266 144.308504,289.090479 C134.891634,293.550692 128.497613,316.06473 128.937597,322.759635 Z" id="Path" fill="#F2CACA" fill-rule="nonzero"></path>
                    <path d="M129.316471,207.275072 C154.778484,180.587163 160.889367,77.8222068 235.238443,77.8222068 C248.18333,77.8222068 273.431461,9.47834479 235.238443,0 C151.723042,0 97.7438817,57.8678236 79.4114365,102.930342 C41.7046406,195.615544 -18.7928969,282.410859 5.65073674,390.329262 C15.5730792,434.136563 103.752611,500.517004 79.4117421,530.53708 C55.0710768,560.557156 122.720792,498.477962 162.441531,461.562236 C129.316471,368.069977 103.854459,233.962981 129.316471,207.275072 Z" id="Path" fill="#3D2C18" fill-rule="nonzero"></path>
                    <path d="M221.705873,10.932289 C224.48327,10.489367 227.093668,12.3830066 227.536359,15.1618514 C227.97905,17.9406963 226.086397,20.5524544 223.309,20.9953764 L215.034038,22.3295501 C212.709611,22.7138376 211.185277,22.9824379 209.501727,23.297545 C205.408452,24.063676 202.354968,24.7890609 199.436812,25.704742 L198.951551,25.8591572 C194.436436,27.3158759 189.825451,29.3443104 181.491471,33.4953363 C178.973748,34.7493756 175.916659,33.7238928 174.663273,31.2048564 C173.409887,28.68582 174.434836,25.6271379 176.95256,24.3730986 L178.654594,23.5293183 C186.374904,19.7215011 191.054551,17.7001665 195.825817,16.1608058 C199.162081,15.0844216 202.539236,14.2549612 206.89394,13.4203756 L209.941784,12.8598809 C212.449542,12.4165929 215.456411,11.9289143 221.705873,10.932289 Z" id="Path" fill="#6E5232" fill-rule="nonzero"></path>
                    <path d="M224.201319,29.3382147 C227.007385,29.1486387 229.435753,31.270909 229.62523,34.0784381 C229.814707,36.8859672 227.693543,39.315601 224.887476,39.5051769 L223.642454,39.5945372 C212.045652,40.4789377 206.883039,42.4193641 195.611074,49.2550244 C193.205925,50.7135797 190.07439,49.9451972 188.616594,47.5387943 C187.158799,45.1323913 187.926781,41.9992236 190.33193,40.5406683 L191.587724,39.7846048 C203.745353,32.5212894 210.410856,30.2698892 224.201319,29.3382147 Z" id="Path" fill="#6E5232" fill-rule="nonzero"></path>
                    <path d="M122.435617,482.769901 C135.810303,483.410859 154.536085,467.932076 162.22765,460.112183 C160.153005,486.521901 141.393613,496.248365 133.200956,500.913399 C122.294048,507.123255 117.053966,529.055437 109.900159,538.2887 C108.032266,533.61857 89.0811959,514.1473 92.7606603,499.667148 C97.3600164,481.567468 105.718278,481.967939 122.435617,482.769901 Z" id="Path" fill="#3D2C18" fill-rule="nonzero"></path>
                    <path d="M125.75179,431.514646 C115.057745,410.914312 117.076373,373.565506 114.039264,353.19343 C136.305285,382.50835 139.093884,411.912943 150.670952,426.02727 C181.768217,463.940608 151.752578,491.461049 156.306204,512.329384 C144.560069,496.864867 141.538237,486.887726 141.538237,465.436517 C141.538237,436.778859 138.836209,456.718875 125.75179,431.514646 Z" id="Path" fill="#3D2C18" fill-rule="nonzero"></path>
                    <path d="M98.3830801,459.536441 C111.756849,460.178418 130.48365,444.698616 138.175215,436.878722 C136.10057,463.28946 138.049942,523.600669 121.738977,509.493475 C105.42903,495.3873 76.8675778,499.310494 69.7140764,508.543757 C67.8455721,503.874646 65.0282513,490.914859 68.7077158,476.434707 C73.3070718,458.334008 81.6657413,458.735498 98.3830801,459.536441 Z" id="Path" fill="#3D2C18" fill-rule="nonzero"></path>
                    <path d="M254.073202,85.6422023 C328.422278,85.6422023 303.731256,122.008274 381.904726,161.530631 C396.290763,186.756259 395.81004,239.398388 386.643716,320.9193 C380.851617,372.426251 371.973523,425.372046 391.990738,451.358875 C409.656283,474.293764 416.247888,486.134677 417.663576,492.019468 C414.726278,493.216806 411.97027,492.111179 408.882237,495.568684 C408.882237,495.568684 419.935806,501.462646 417.663576,492.019468 C421.50834,490.453247 425.664759,484.944471 431.288808,460.114221 C441.774065,413.82257 471.070656,442.268274 469.592841,386.953278 C467.624118,313.313399 430.414952,155.858814 408.882237,102.930342 C390.549588,57.8678236 337.588603,2.84217094e-14 254.073202,2.84217094e-14 C211.304151,8.97948776 241.128315,85.6422023 254.073202,85.6422023 Z" id="Path" fill="#3D2C18" fill-rule="nonzero"></path>
                    <path d="M386.059108,319.010692 C409.268241,318.318783 427.646722,300.361764 427.186369,278.733247 C426.779995,259.668563 411.870459,244.077688 392.439888,240.854555 L387.729416,308.481247 C387.247675,312.051863 386.690566,315.561338 386.059108,319.010692 Z" id="Path" fill="#EBBAAA"></path>
                    <ellipse id="Oval" fill="#FFFFFF" fill-rule="nonzero" cx="401.722116" cy="308.97934" rx="10.6256033" ry="10.4089977"></ellipse>
                    <path d="M414.478788,422.94476 C417.679872,400.542814 404.980439,355.947817 398.230968,336.451072 C425.544578,361.335331 432.202385,401.3407 435.547075,419.146905 C440.00089,442.856243 452.137104,491.938966 460.47133,511.654798 C455.219026,511.08619 441.090664,505.449019 426.59565,487.449202 C408.476882,464.94943 410.477178,450.948213 414.478788,422.94476 Z" id="Path" fill="#3D2C18" fill-rule="nonzero"></path>
                    <path d="M419.665909,417.294342 C405.341999,398.930738 400.426812,361.839741 393.677342,342.342996 C420.990952,367.227255 439.933671,392.187939 453.926574,404.016624 C491.515634,435.790418 456.310837,471.641278 464.646081,491.358129 C450.236619,478.231224 445.421244,468.954144 441.458336,447.857551 C436.164274,419.672715 437.189884,439.762525 419.665909,417.294342 Z" id="Path" fill="#3D2C18" fill-rule="nonzero"></path>
                    <path d="M385.251453,445.460837 C388.452537,423.057871 392.000923,406.632426 385.251453,387.135681 C412.565063,412.01892 459.955979,429.214738 442.074517,445.775711 C424.192036,462.336684 422.908751,514.454023 431.243995,534.170875 C425.991691,533.601247 411.86333,527.964076 397.368315,509.964259 C379.249547,487.464487 381.249843,473.46327 385.251453,445.460837 Z" id="Path" fill="#3D2C18" fill-rule="nonzero"></path>
                    <path d="M370.896989,141.262494 C380.765046,161.713034 416.355847,192.174342 432.917359,204.847787 C396.14512,198.72149 379.376857,224.107103 323.210714,171.535285 C267.043552,118.963468 267.352151,94.9236639 249.342361,82.9175696 C254.052833,80.5706844 302.444915,86.5822403 324.643716,93.8421871 C352.393235,102.917095 358.561153,115.698555 370.896989,141.262494 Z" id="Path" fill="#3D2C18" fill-rule="nonzero"></path>
                </g>
                <g id="lower-limb" transform="translate(57.004557, 699.460639)" fill-rule="nonzero">
                    <path d="M275.983912,211.872774 C282.864084,242.709606 286.013198,310.213243 287.06159,413.241628 L287.199336,428.420973 C287.438981,458.054414 287.49889,485.361207 287.461167,526.631302 L287.394819,582.961453 L287.394622,585.421034 L226.285792,585.421034 L226.36054,514.832751 C226.377309,478.216425 226.299035,452.758395 226.055946,424.5386 L225.989835,417.309304 C225.03296,318.876481 222.010168,251.694974 216.513819,225.975658 L216.34304,225.193447 L275.983912,211.872774 Z" id="Path" fill="#F6DDD6"></path>
                    <path d="M107.196676,206.140312 L166.837315,219.46203 C161.565954,243.086248 157.521396,312.409507 157.017099,388.002023 L157.002903,390.294584 C156.5446,470.519405 160.10287,540.156765 166.577996,569.054186 L166.775103,569.917364 L107.258888,583.784933 C99.2825166,549.5166 95.4809533,477.267923 95.8816432,392.517133 L95.8950716,389.945127 C96.3526008,309.855739 100.508855,237.201576 106.999284,207.041219 L107.196676,206.140312 Z" id="Path" fill="#F6DDD6"></path>
                    <path d="M372.870597,494.545597 L321.946572,83.8136882 L264.911665,83.8136882 C248.615977,215.077643 262.05992,510.635787 283.244314,515.720654 C304.428708,520.795331 366.081406,505.836243 372.870597,494.545597 Z" id="Path" fill="#C8CEE7"></path>
                    <ellipse id="Oval" fill="#FFFFFF" opacity="0.44" transform="translate(263.578474, 224.587057) rotate(101.186780) translate(-263.578474, -224.587057) " cx="263.578474" cy="224.587057" rx="13.8158887" ry="14.0822911"></ellipse>
                    <ellipse id="Oval" fill="#FFFFFF" opacity="0.44" transform="translate(271.892330, 286.795665) rotate(101.186780) translate(-271.892330, -286.795665) " cx="271.89233" cy="286.795665" rx="13.8158887" ry="14.0822911"></ellipse>
                    <path d="M5.96855898e-13,470.924913 L72.508478,5.68434189e-14 L268.663747,83.8136882 C284.959435,207.530844 263.997069,523.465141 242.296306,524.769475 C109.232848,532.768715 109.917267,535.805369 50.9238209,517.18803 C1.32137659,501.536015 3.10137495,475.785597 5.96855898e-13,470.924913 Z" id="Path" fill="#BCC5E9"></path>
                    <path d="M200.753505,138.574342 L18.290993,80.9808365 C15.7352181,80.1737795 14.2417183,77.5233308 14.8749076,74.9177186 L18.8421947,58.5951939 L207.377702,116.719605 L207.377702,133.714677 C207.377702,137.157916 204.035049,139.609658 200.753505,138.574342 Z" id="Path" fill="#FFFFFF"></path>
                    <path d="M193.775895,205.409262 L203.055271,112.081065 C203.296651,109.651741 205.248059,107.754342 207.699542,107.567863 L219.22263,106.689475 L216.066359,208.230905 L199.761505,210.963894 C196.425981,211.523331 193.44387,208.755696 193.775895,205.409262 Z" id="Path" fill="#FFFFFF"></path>
                    <path d="M250.237398,194.401901 L220.626096,123.161795 C219.686039,120.901627 217.27224,119.63092 214.877792,120.13635 L206.044511,121.998084 L233.423303,202.922875 L246.127829,201.420852 C249.485759,201.024456 251.534942,197.524152 250.237398,194.401901 Z" id="Path" fill="#FFFFFF"></path>
                    <path d="M227.204462,138.939148 L345.692445,93.9039392 C347.843476,93.085673 349.178704,90.9263878 348.950564,88.6356502 L347.300626,72.0644867 L213.879681,112.472365 L220.500823,135.580487 C221.322737,138.446966 224.418917,139.99892 227.204462,138.939148 Z" id="Path" fill="#FFFFFF"></path>
                    <path d="M216.517546,565.214038 C219.737981,558.060578 224.246794,550.907118 229.828067,543.96765 C230.472766,543.132061 231.546244,542.918068 232.404823,543.549856 C266.970014,573.834875 276.526416,582.893886 316.160585,601.266662 C316.375484,601.052669 316.804264,601.052669 317.234063,601.266662 C329.257225,605.678981 351.799254,611.568867 361.030761,617.876548 C362.748938,619.354114 364.466096,628.993962 361.030761,630.685521 C348.150039,637.624989 292.700905,643.535255 275.955049,635.546205 C263.932905,629.870312 252.800913,621.412517 242.494909,611.110312 C237.127517,605.852213 230.472766,599.962327 229.828067,611.324304 L229.828067,633.864837 C229.828067,634.710616 228.969488,635.546205 228.110909,635.546205 L221.24024,635.546205 C220.166761,635.546205 219.523082,634.710616 219.523082,633.864837 L219.523082,617.876548 C213.61895,613.341947 205.567862,590.454951 216.517546,565.214038 Z" id="Path" fill="#414141"></path>
                    <path d="M175.973874,565.214038 C172.753439,558.060578 168.244626,550.907118 162.663353,543.96765 C162.018655,543.132061 160.945176,542.918068 160.086597,543.549856 C125.521406,573.834875 115.966022,582.893886 76.3308353,601.266662 C76.1159359,601.052669 75.6871556,601.052669 75.2573569,601.266662 C63.2341947,605.678981 40.6920641,611.568867 31.4602513,617.876548 C29.7426858,619.354114 28.0252222,628.993962 31.4602513,630.685521 C44.3417889,637.624989 99.790515,643.535255 116.536371,635.546205 C128.558515,629.870312 139.691525,621.412517 149.996511,611.110312 C155.363903,605.852213 162.018655,599.962327 162.663353,611.324304 L162.663353,633.864837 C162.663353,634.710616 163.521932,635.546205 164.380511,635.546205 L171.25118,635.546205 C172.324659,635.546205 172.968338,634.710616 172.968338,633.864837 L172.968338,617.876548 C178.87247,613.341947 186.923558,590.454951 175.973874,565.214038 Z" id="Path" fill="#414141"></path>
                    <g id="Group" opacity="0.5" transform="translate(15.307558, 122.881567)" fill="#FFFFFF">
                        <ellipse id="Oval" transform="translate(236.690793, 41.864046) rotate(99.031513) translate(-236.690793, -41.864046) " cx="236.690793" cy="41.8640456" rx="13.8122197" ry="14.0858738"></ellipse>
                        <ellipse id="Oval" transform="translate(283.871901, 30.900502) rotate(99.031513) translate(-283.871901, -30.900502) " cx="283.871901" cy="30.9005019" rx="13.8122197" ry="14.0858738"></ellipse>
                        <ellipse id="Oval" transform="translate(294.529281, 92.766722) rotate(99.031513) translate(-294.529281, -92.766722) " cx="294.529281" cy="92.7667224" rx="13.8122197" ry="14.0858738"></ellipse>
                        <ellipse id="Oval" transform="translate(305.187680, 154.631924) rotate(99.031513) translate(-305.187680, -154.631924) " cx="305.18768" cy="154.631924" rx="13.8122197" ry="14.0858738"></ellipse>
                        <ellipse id="Oval" transform="translate(315.783951, 216.876198) rotate(99.031513) translate(-315.783951, -216.876198) " cx="315.783951" cy="216.876198" rx="13.8122197" ry="14.0858738"></ellipse>
                        <ellipse id="Oval" transform="translate(326.422998, 278.862662) rotate(99.031513) translate(-326.422998, -278.862662) " cx="326.422998" cy="278.862662" rx="13.8122197" ry="14.0858738"></ellipse>
                        <ellipse id="Oval" transform="translate(337.160838, 340.227529) rotate(99.031513) translate(-337.160838, -340.227529) " cx="337.160838" cy="340.227529" rx="13.8122197" ry="14.0858738"></ellipse>
                        <ellipse id="Oval" transform="translate(267.832871, 230.306768) rotate(101.182609) translate(-267.832871, -230.306768) " cx="267.832871" cy="230.306768" rx="13.8158737" ry="14.0822662"></ellipse>
                        <ellipse id="Oval" transform="translate(276.150801, 292.517414) rotate(101.182609) translate(-276.150801, -292.517414) " cx="276.150801" cy="292.517414" rx="13.8158737" ry="14.0822662"></ellipse>
                        <ellipse id="Oval" transform="translate(284.468731, 354.728061) rotate(101.182609) translate(-284.468731, -354.728061) " cx="284.468731" cy="354.728061" rx="13.8158737" ry="14.0822662"></ellipse>
                        <ellipse id="Oval" transform="translate(226.372567, 106.748578) rotate(99.031513) translate(-226.372567, -106.748578) " cx="226.372567" cy="106.748578" rx="13.8122197" ry="14.0858738"></ellipse>
                        <ellipse id="Oval" transform="translate(215.998324, 171.943909) rotate(99.031513) translate(-215.998324, -171.943909) " cx="215.998324" cy="171.943909" rx="13.8122197" ry="14.0858738"></ellipse>
                        <ellipse id="Oval" transform="translate(205.657692, 236.960913) rotate(99.031513) translate(-205.657692, -236.960913) " cx="205.657692" cy="236.960913" rx="13.8122197" ry="14.0858738"></ellipse>
                        <ellipse id="Oval" transform="translate(195.418908, 301.403194) rotate(99.031513) translate(-195.418908, -301.403194) " cx="195.418908" cy="301.403194" rx="13.8122197" ry="14.0858738"></ellipse>
                        <ellipse id="Oval" transform="translate(180.999261, 33.364471) rotate(99.031513) translate(-180.999261, -33.364471) " cx="180.999261" cy="33.3644715" rx="13.8122197" ry="14.0858738"></ellipse>
                        <ellipse id="Oval" transform="translate(170.681035, 98.249004) rotate(99.031513) translate(-170.681035, -98.249004) " cx="170.681035" cy="98.2490038" rx="13.8122197" ry="14.0858738"></ellipse>
                        <ellipse id="Oval" transform="translate(160.303737, 163.444335) rotate(99.031513) translate(-160.303737, -163.444335) " cx="160.303737" cy="163.444335" rx="13.8122197" ry="14.0858738"></ellipse>
                        <ellipse id="Oval" transform="translate(149.964123, 228.462357) rotate(99.031513) translate(-149.964123, -228.462357) " cx="149.964123" cy="228.462357" rx="13.8122197" ry="14.0858738"></ellipse>
                        <ellipse id="Oval" transform="translate(139.727376, 292.904639) rotate(99.031513) translate(-139.727376, -292.904639) " cx="139.727376" cy="292.904639" rx="13.8122197" ry="14.0858738"></ellipse>
                        <ellipse id="Oval" transform="translate(125.307729, 24.865916) rotate(99.031513) translate(-125.307729, -24.865916) " cx="125.307729" cy="24.8659163" rx="13.8122197" ry="14.0858738"></ellipse>
                        <ellipse id="Oval" transform="translate(114.989503, 89.749430) rotate(99.031513) translate(-114.989503, -89.749430) " cx="114.989503" cy="89.7494297" rx="13.8122197" ry="14.0858738"></ellipse>
                        <ellipse id="Oval" transform="translate(104.609150, 154.944760) rotate(99.031513) translate(-104.609150, -154.944760) " cx="104.60915" cy="154.94476" rx="13.8122197" ry="14.0858738"></ellipse>
                        <ellipse id="Oval" transform="translate(94.269536, 219.963802) rotate(99.031513) translate(-94.269536, -219.963802) " cx="94.2695359" cy="219.963802" rx="13.8122197" ry="14.0858738"></ellipse>
                        <ellipse id="Oval" transform="translate(84.035844, 284.395894) rotate(99.031513) translate(-84.035844, -284.395894) " cx="84.0358439" cy="284.395894" rx="13.8122197" ry="14.0858738"></ellipse>
                        <ellipse id="Oval" transform="translate(69.616197, 16.366342) rotate(99.031513) translate(-69.616197, -16.366342) " cx="69.6161971" cy="16.3663422" rx="13.8122197" ry="14.0858738"></ellipse>
                        <ellipse id="Oval" transform="translate(59.297971, 81.250875) rotate(99.031513) translate(-59.297971, -81.250875) " cx="59.2979713" cy="81.2508745" rx="13.8122197" ry="14.0858738"></ellipse>
                        <ellipse id="Oval" transform="translate(48.914563, 146.445186) rotate(99.031513) translate(-48.914563, -146.445186) " cx="48.9145626" cy="146.445186" rx="13.8122197" ry="14.0858738"></ellipse>
                        <ellipse id="Oval" transform="translate(38.574949, 211.465247) rotate(99.031513) translate(-38.574949, -211.465247) " cx="38.5749487" cy="211.465247" rx="13.8122197" ry="14.0858738"></ellipse>
                        <ellipse id="Oval" transform="translate(28.343905, 275.907529) rotate(99.031513) translate(-28.343905, -275.907529) " cx="28.3439047" cy="275.907529" rx="13.8122197" ry="14.0858738"></ellipse>
                        <ellipse id="Oval" transform="translate(183.666661, 366.283650) rotate(99.031513) translate(-183.666661, -366.283650) " cx="183.666661" cy="366.28365" rx="13.8122197" ry="14.0858738"></ellipse>
                        <ellipse id="Oval" transform="translate(127.975129, 357.785095) rotate(99.031513) translate(-127.975129, -357.785095) " cx="127.975129" cy="357.785095" rx="13.8122197" ry="14.0858738"></ellipse>
                        <ellipse id="Oval" transform="translate(72.283598, 349.286540) rotate(99.031513) translate(-72.283598, -349.286540) " cx="72.2835975" cy="349.28654" rx="13.8122197" ry="14.0858738"></ellipse>
                        <ellipse id="Oval" transform="translate(16.592066, 340.787985) rotate(99.031513) translate(-16.592066, -340.787985) " cx="16.5920657" cy="340.787985" rx="13.8122197" ry="14.0858738"></ellipse>
                    </g>
                </g>
                <g id="upper-limb" transform="translate(27.341078, 415.316645)" fill-rule="nonzero">
                    <path d="M319.194873,80.3631118 L374.928162,311.087675 C374.928162,311.087675 374.928162,321.563112 368.308039,327.051507 C361.687916,332.538884 355.578487,365.128587 355.578487,365.128587 C355.578487,365.128587 325.288732,373.356707 264.709222,389.812945 C212.370648,381.273562 183.753238,376.577709 178.856992,375.725387 C177.015349,375.404799 166.898429,367.957682 166.898429,367.957682 L118.801413,361.478612 C118.801413,361.478612 88.2259037,341.518412 82.1150208,333.03718 C76.0041378,324.556967 78.5503391,308.593135 78.5503391,308.593135 L85.5707251,187.135127 L127.213337,80.3631118 L202.804959,90.3412715 L319.194873,80.3631118 Z" id="Path" fill="#BCC5E8"></path>
                    <path d="M123.967637,149.949136 L120.134759,156.313988 C118.095456,159.717123 115.75415,163.648724 114.484871,165.85878 C109.996372,173.674115 105.90355,181.464276 102.056225,189.744777 C92.9931955,209.250912 86.3515497,229.244883 82.8171057,249.710826 L82.6150637,250.905065 L164.087378,130.008615 C175.606002,112.916139 198.675981,108.276719 215.879835,119.480928 L216.399351,119.825303 C233.482921,131.349931 238.119924,154.431935 226.921553,171.644758 L226.577357,172.164544 L87.3890633,378.705928 L20.9258552,371.041825 C5.69985395,331.024126 1.54352843,290.193192 6.66999904,249.464616 C10.7081997,217.382083 20.2171638,187.002778 33.712352,157.957418 C38.2393662,148.214038 42.992488,139.096656 48.1092606,130.089487 L49.3928747,127.846029 C51.0203754,125.028227 53.5971577,120.701322 55.6798879,117.226783 L59.3309727,111.173319 C69.918447,93.8203496 92.3819626,87.9964723 110.060004,98.0213418 L110.599656,98.3331808 C128.537049,108.893143 134.522097,132.002393 123.967637,149.949136 Z" id="Path" fill="#F6DDD6"></path>
                    <path d="M95.6628483,63.3690586 C137.075284,55.6734844 174.959703,51.1042373 195.131727,52.4666555 L112.723415,200.353743 C64.7279292,211.256146 21.3236516,210.347188 0.0538068219,200.353743 C-1.98325601,167.625135 54.2501074,71.0646327 95.6628483,63.3690586 Z" id="Path" fill="#BCC5E8"></path>
                    <path d="M362.264376,63.3690586 C338.536836,63.3690586 284.881247,50.9371194 264.709222,52.3005567 L348.334618,200.353743 C396.329493,211.256146 466.337805,245.130123 468.374766,212.401515 C470.411727,179.672906 403.998651,63.3690586 362.264376,63.3690586 Z" id="Path" fill="#BCC5E8"></path>
                    <polygon id="Path" fill="#F1D3CB" points="189.478142 90.6316897 257.626709 83.1236137 234.636549 192.78045 189.478142 117.990108"></polygon>
                    <path d="M238.963054,173.212374 C247.110898,131.70804 258.817312,63.8439179 265.236795,52.5644806 C270.190684,52.5644806 289.188401,51.7451954 291.453501,55.9211042 C293.718602,60.0980319 297.132549,52.6888 283.529723,83.3712335 C269.925879,114.053667 248.468532,181.039401 236.926093,209.641013 L179.029551,137.369667 L145.460434,60.8928608 C144.781107,56.9013932 164.735177,46.343416 189.178709,55.9211042 C198.93677,81.541089 228.778249,225.094321 238.963054,173.212374 Z" id="Path" fill="#FFFFFF"></path>
                    <polygon id="Path" fill="#0A0A08" points="166.898429 23.2179711 213.338084 23.2179711 206.208721 151.088617 177.083234 151.088617"></polygon>
                    <ellipse id="Oval" fill="#878787" cx="190.118766" cy="25.1907772" rx="25.714901" ry="25.1907772"></ellipse>
                    <path d="M369.526142,151.052952 C365.386019,130.64623 345.495095,117.46226 325.099004,121.604541 C304.702914,125.746823 291.524795,145.648116 295.665937,166.054838 L369.526142,151.052952 Z M369.276614,339.338747 L332.345493,346.83969 L404.894914,351.649424 L369.276614,339.338747 Z M295.665937,166.054838 L332.345493,346.83969 L406.206717,331.837804 L369.526142,151.052952 L295.665937,166.054838 Z M404.894914,351.649424 C412.897115,328.473028 425.455998,298.725028 437.92831,265.204648 C443.770314,249.50372 449.342421,233.538868 453.262553,219.414351 C456.657148,207.184176 460.734126,190.072937 458.825493,175.114868 L384.064951,184.664024 C383.825608,182.790062 384.216705,186.359659 380.642857,199.238944 C377.593526,210.222868 372.914627,223.798138 367.296688,238.89683 C356.849115,266.974671 341.654405,303.867979 333.658314,327.02807 L404.894914,351.649424 Z" id="Shape" fill="#F6DDD6"></path>
                    <path d="M367.014569,64.3666707 C343.288047,64.3666707 412.403152,128.418671 392.231128,129.782108 L386.926881,152.893287 C434.921756,163.79569 466.337805,242.80372 468.374766,210.075112 C470.411727,177.346503 415.622569,78.6236593 367.014569,64.3666707 Z" id="Path" fill="#BCC5E8"></path>
                    <path d="M153.902523,130.008689 C165.537456,112.743535 188.958313,108.184255 206.214472,119.825252 C223.298069,131.34984 227.935127,154.431834 216.736796,171.644683 L216.392602,172.16447 L146.798812,275.435162 C135.163879,292.700316 111.743022,297.259596 94.4868636,285.618598 C77.4032663,274.094011 72.7662083,251.012017 83.9645388,233.799168 L84.3087327,233.279381 L153.902523,130.008689 Z" id="Path" fill="#F6DDD6"></path>
                </g>
            </g>
        </g>
    </g>
</svg>