<?xml version="1.0" encoding="UTF-8"?>
<svg width="529px" height="1383px" viewBox="0 0 529 1383" version="1.1" xmlns="http://www.w3.org/2000/svg" xmlns:xlink="http://www.w3.org/1999/xlink">
    <!-- Generator: Sketch 55.2 (78181) - https://sketchapp.com -->
    <title>gee_me_071</title>
    <desc>Created with Sketch.</desc>
    <defs>
        <path d="M11.188,60.171 C12.188,52.171 12.688,48.671 14.688,44.171 L31.812,42 L55.313,42 L86.313,0 C86.313,0 130.812,6 145.812,14 C160.812,22 169.812,109.5 169.812,109.5 L176.812,429.5 L138.812,440 L2.312,440 C-3.687,331 9.311,124.17 9.312,109.5 C9.312,103.171 10.188,68.171 11.188,60.171 Z" id="path-1"></path>
        <path d="M135.999,68 C132.454,61.5 133.999,43.5 133.999,43.5 L111.874,41.671 L80.499,0 C49.332,5.5 47.999,7.5 25.499,17.5 C-1.342,29.429 3.999,69.5 -0.001,124 L11.999,432.5 L73.499,441.671 L124.374,442.671 L138.499,91.5 C138.499,91.5 139.544,74.5 135.999,68 Z" id="path-3"></path>
        <path d="M32.5,33.5 C26.429,22.876 28.5,12 27.729,0 L4.854,11.329 C4.854,11.329 -3.145,23.329 1.854,52.329 C5.3,72.329 -3.5,88 22.5,103.5 C25.5,77 54.989,63.15 60,58.5 C50.5,53.5 40.5,47.5 32.5,33.5 Z" id="path-5"></path>
        <path d="M18.999,35.5 C22.438,24.124 22.229,5.5 22.229,0 L51.354,14.329 C51.354,14.329 57.354,27.829 51.354,55.329 C44.781,85.456 38.356,74 31.499,82 C24.499,70 14.499,63 -0.001,63 C13.999,51 15.976,45.5 18.999,35.5 Z" id="path-7"></path>
        <path d="M0.081,0 C0.027,0.917 0,1.842 0,2.767 L0,20.089 C0,46.2 22.193,67.36 49.559,67.36 C76.934,67.36 99.118,46.2 99.118,20.089 L99.118,2.767 C99.118,1.842 99.091,0.917 99.038,0 L0.081,0 Z" id="path-9"></path>
    </defs>
    <g id="GEE!-ME" stroke="none" stroke-width="1" fill="none" fill-rule="evenodd">
        <g id="gee_me_071" transform="translate(-336.000000, -109.000000)">
            <g transform="translate(336.000000, 109.000000)">
                <g id="lower-limb" transform="translate(51.000018, 867.080500)" fill-rule="nonzero">
                    <path d="M135.470199,187.54338 C154.731748,186.146219 171.478941,200.628167 172.876102,219.889716 L173.054324,222.414529 C174.78811,247.6567 175.674945,281.042209 175.935417,322.367335 L175.986034,332.337199 C176.06663,352.80139 176.006173,373.155122 175.825344,399.947567 L175.467892,452.634414 L175.467732,456.9195 C175.467732,476.231655 159.812138,491.88725 140.499982,491.88725 C121.380949,491.88725 105.84571,476.543201 105.536917,457.497756 L105.54589,447.904354 L105.923373,394.609845 C106.085201,369.217295 106.130052,349.664993 106.039015,329.781752 L106.002193,322.952489 C105.742677,281.589705 104.840827,248.619714 103.123863,224.949284 C101.726702,205.687735 116.208649,188.940541 135.470199,187.54338 Z" id="Path" fill="#EBBAAA"></path>
                    <path d="M287.152965,174.92421 C306.419579,173.598717 323.11278,188.142869 324.438272,207.409483 C328.011152,259.342832 330.465732,369.991831 330.465732,420.4195 C330.465732,439.731655 314.810138,455.38725 295.497982,455.38725 C276.185827,455.38725 260.530232,439.731655 260.530232,420.4195 L260.527335,417.410802 C260.432861,367.117675 258.037321,261.188529 254.667692,212.209517 C253.3422,192.942904 267.886352,176.249703 287.152965,174.92421 Z" id="Path" fill="#EBBAAA"></path>
                    <polygon id="Path" fill="#314560" points="78.8549824 40.7495 198.856982 45.0375 195.804982 251.9195 189.499982 405.9195 95.9999824 405.9195 74.9999824 257.9195 56.4999824 55.4205"></polygon>
                    <polygon id="Path" fill="#314560" points="215.558982 44.7485 367.999982 35.4195 359.999982 268.4195 339.229982 404.4195 255.854982 411.7495"></polygon>
                    <ellipse id="Oval" fill="#314560" cx="215.807982" cy="62.6595" rx="121.664" ry="62.6595"></ellipse>
                    <polygon id="Path" fill="#2B3C54" points="97.0009824 414.9195 94.2939824 393.9195 190.000982 393.9195 189.000982 415.9195"></polygon>
                    <polygon id="Path" fill="#2B3C54" points="256.000982 416.9195 254.000982 394.9195 340.779982 394.9195 337.500982 414.9195"></polygon>
                    <g id="Group-6" transform="translate(0.000000, 415.582874)">
                        <path d="M1.17658245,80.7966259 C-0.701417553,76.3266259 0.650082447,70.2066259 1.70168245,68.5366259 C2.75338245,66.8766259 130.448982,59.2066259 130.448982,59.2066259 C151.643982,57.5466259 193.654982,50.5466259 196.558982,62.5966259 C200.149982,77.5066259 199.985982,80.8766259 197.537982,92.4166259 C193.620982,96.2666259 153.999982,99.6266259 141.152982,96.7466259 C141.152982,90.0066259 140.152982,85.6866259 140.152982,85.6866259 C140.152982,85.6866259 132.991982,90.0466259 124.590982,91.9366259 C107.455982,95.7866259 104.174982,99.6266259 51.1009824,99.6266259 C8.53398245,95.7766259 5.38048245,90.7866259 1.17658245,80.7966259 Z" id="Path" fill="#BF9A7D"></path>
                        <path d="M139.278982,15.9466259 C149.928982,16.0866259 166.191982,12.7166259 175.041982,0.886625925 C175.820982,-0.153374075 177.363982,-0.323374075 178.267982,0.616625925 C186.277982,8.89662592 181.099982,4.17662592 184.303982,18.3666259 C187.459982,32.3466259 190.125982,30.3466259 193.282982,43.3366259 C195.467982,52.3266259 202.546982,73.2966259 193.282982,73.2966259 L151.027982,73.2966259 C141.030982,73.2966259 127.528982,84.4666259 94.2379824,87.6066259 C38.9754824,92.8166259 25.4712824,85.6866259 14.4370824,82.3166259 C-10.6691176,74.6566259 2.07178245,57.1366259 14.4370824,51.5366259 C32.5512824,43.3366259 58.5119824,37.1766259 71.7169824,30.3766259 C81.9999824,25.0866259 85.5309824,23.4466259 90.8109824,17.8766259 C97.5669824,10.7466259 100.421982,6.20662592 102.560982,2.65662592 C103.463982,1.16662592 105.831982,1.51662592 106.787982,2.97662592 C112.617982,11.8866259 129.445982,15.8266259 139.278982,15.9466259 Z" id="Path" fill="#EAEAEA"></path>
                        <path d="M17.4699615,66.7370408 C18.0109714,64.8812972 19.953924,63.815495 21.8096676,64.3565049 L23.2984307,64.7854691 C29.3566618,66.5086001 33.6798541,67.4403417 39.1486219,68.006481 C47.1721182,68.8370917 55.6809049,68.4549622 65.1183703,66.5554374 C67.0133634,66.1740228 68.8587565,67.4010207 69.240171,69.2960138 C69.6215855,71.1910069 68.3945877,73.0363999 66.4995946,73.4178145 C56.3637933,75.4578968 47.1464771,75.8718464 38.427818,74.9692708 C32.015292,74.3054314 27.0836762,73.185455 19.8504973,71.0767469 C17.9947538,70.535737 16.9289515,68.5927844 17.4699615,66.7370408 Z" id="Path" fill="#FFFFFF"></path>
                        <path d="M92.0939824,42.3966259 C101.884982,33.7466259 109.165982,29.4166259 116.999982,19.7966259 C121.241982,19.7966259 126.843982,20.2766259 142.999982,20.2766259 C164.050982,20.2766259 169.631982,11.6166259 178.933982,1.52662592 C185.999982,5.84662592 182.360982,14.9866259 187.255982,27.4866259 C191.172982,37.4966259 198.516982,52.4966259 198.516982,70.7766259 C195.089982,76.5466259 161.308982,73.6566259 150.537982,73.6566259 C148.089982,62.1166259 128.999982,52.4966259 120.499982,50.0966259 C113.038982,47.9866259 104.332982,47.2066259 92.0939824,42.3966259 Z" id="Path" fill="#E3E3E3"></path>
                        <path d="M104.863496,4.35992476 C106.16811,3.75640139 107.705644,4.27967575 108.379977,5.52700942 L108.456684,5.68013917 C108.82794,6.48266933 109.579235,7.47987591 110.736885,8.7124682 L111.212449,9.20958585 C111.542019,9.5480563 111.903844,9.90805426 112.341102,10.3340407 L115.144538,13.0447315 C116.111022,13.9938102 116.522381,14.4417064 117.143117,15.172681 C118.698269,17.0040171 119.557822,18.6099493 119.557822,20.3866259 C119.557822,22.1876454 117.839137,23.469873 116.132987,22.9967031 L115.973125,22.9471629 L102.521,18.335 L108.21311,26.4180853 C109.644179,28.4502029 107.81231,31.142416 105.438063,30.6249762 L105.28248,30.5866398 L92.891,27.18 L97.6675401,33.5653065 C99.1184256,35.5050093 97.4872779,38.1967253 95.1402622,37.8698932 L94.9827599,37.843591 L81.787,35.274 L87.8352703,40.8934572 C88.8849078,41.8685302 88.9865704,43.4821207 88.0977103,44.5788837 L87.9761512,44.7189138 C87.0010781,45.7685512 85.3874877,45.8702139 84.2907247,44.9813538 L84.1506946,44.8597946 L71.1576946,32.7897946 C69.2027644,30.9737393 70.7788216,27.7611073 73.3580604,28.1229958 L73.517205,28.1496608 L89.129,31.188 L83.8254248,24.0979454 C82.3132475,22.076301 84.1449181,19.3015849 86.5558367,19.8284589 L86.7104851,19.866612 L99.442,23.366 L93.2868548,14.6251665 C91.8068135,12.5235078 93.8106085,9.77008807 96.2263474,10.458542 L96.3778397,10.506089 L109.32,14.943 L108.544393,14.1933065 C107.92139,13.5861388 107.432382,13.0949018 106.965159,12.603279 L106.790753,12.4186752 C105.270247,10.7997377 104.207747,9.38946425 103.543281,7.95311268 C102.915617,6.59631409 103.506697,4.98758906 104.863496,4.35992476 Z" id="Path" fill="#FFFFFF"></path>
                    </g>
                    <g id="Group-5" transform="translate(236.000489, 415.582874)">
                        <path d="M198.147494,80.7966259 C200.025494,76.3266259 198.673494,70.2066259 197.621494,68.5366259 C196.570494,66.8766259 68.8744937,59.2066259 68.8744937,59.2066259 C47.6794937,57.5466259 5.66849369,50.5466259 2.76449369,62.5966259 C-0.826506306,77.5066259 -0.662506306,80.8766259 1.78549369,92.4166259 C5.70249369,96.2666259 45.3234937,99.6266259 58.1704937,96.7466259 C58.1704937,90.0066259 59.1704937,85.6866259 59.1704937,85.6866259 C59.1704937,85.6866259 66.3314937,90.0466259 74.7324937,91.9366259 C91.8674937,95.7866259 95.1484937,99.6266259 148.222494,99.6266259 C190.789494,95.7766259 193.943494,90.7866259 198.147494,80.7966259 Z" id="Path" fill="#BF9A7D"></path>
                        <path d="M60.0454937,15.9466259 C49.3944937,16.0866259 33.1314937,12.7166259 24.2814937,0.886625925 C23.5024937,-0.153374075 21.9594937,-0.323374075 21.0554937,0.616625925 C13.0464937,8.89662592 18.2234937,4.17662592 15.0204937,18.3666259 C11.8634937,32.3466259 9.19749369,30.3466259 6.04149369,43.3366259 C3.85549369,52.3266259 -3.22350631,73.2966259 6.04149369,73.2966259 L48.2954937,73.2966259 C58.2924937,73.2966259 71.7944937,84.4666259 105.085494,87.6066259 C160.348494,92.8166259 173.852494,85.6866259 184.886494,82.3166259 C209.992494,74.6566259 197.251494,57.1366259 184.886494,51.5366259 C166.772494,43.3366259 140.811494,37.1766259 127.606494,30.3766259 C117.323494,25.0866259 113.792494,23.4466259 108.513494,17.8766259 C101.756494,10.7466259 98.9024937,6.20662592 96.7624937,2.65662592 C95.8594937,1.16662592 93.4914937,1.51662592 92.5354937,2.97662592 C86.7054937,11.8866259 69.8774937,15.8266259 60.0454937,15.9466259 Z" id="Path" fill="#EAEAEA"></path>
                        <path d="M177.513909,64.3565049 C179.369652,63.815495 181.312605,64.8812972 181.853615,66.7370408 C182.394625,68.5927844 181.328822,70.535737 179.473079,71.0767469 C172.239743,73.1855006 167.308368,74.3054336 160.895897,74.9692706 C152.177285,75.8718459 142.959921,75.4578972 132.823897,73.4178176 C130.928902,73.0364116 129.701896,71.1910241 130.083302,69.2960293 C130.464708,67.4010345 132.310095,66.1740283 134.20509,66.5554343 C143.642793,68.4549625 152.151636,68.8370917 160.17509,68.0064812 C166.081299,67.3950539 170.651137,66.3572272 177.513909,64.3565049 Z" id="Path" fill="#FFFFFF"></path>
                        <path d="M107.229494,42.3966259 C97.4384937,33.7466259 90.1574937,29.4166259 82.3244937,19.7966259 C78.0814937,19.7966259 72.4804937,20.2766259 56.3244937,20.2766259 C35.2724937,20.2766259 29.6914937,11.6166259 20.3904937,1.52662592 C13.3244937,5.84662592 16.9634937,14.9866259 12.0674937,27.4866259 C8.15049369,37.4966259 0.807493694,52.4966259 0.807493694,70.7766259 C4.23449369,76.5466259 38.0144937,73.6566259 48.7854937,73.6566259 C51.2334937,62.1166259 70.3244937,52.4966259 78.8244937,50.0966259 C86.2844937,47.9866259 94.9904937,47.2066259 107.229494,42.3966259 Z" id="Path" fill="#E3E3E3"></path>
                        <path d="M90.8667925,5.68013917 C91.4944568,4.32334058 93.1031819,3.73226045 94.4599805,4.35992476 C95.816779,4.98758906 96.4078592,6.59631409 95.7801949,7.95311268 C95.1631907,9.28686771 94.2029841,10.598137 92.8515575,12.0748683 L92.5327233,12.4186752 C92.0112525,12.973904 91.479962,13.5102428 90.7790834,14.1933065 L90.002,14.943 L102.945636,10.506089 C105.377206,9.6724469 107.46083,12.3659626 106.124615,14.4930012 L106.036621,14.6251665 L99.88,23.366 L112.612991,19.866612 C115.047307,19.1974093 116.961196,21.9160661 115.590059,23.9679206 L115.498051,24.0979454 L110.194,31.188 L125.806271,28.1496608 C128.425403,27.6398031 130.092942,30.8059168 128.281081,32.6769048 L128.165782,32.7897946 L115.172782,44.8597946 C114.077508,45.8772621 112.364792,45.8141876 111.347325,44.7189138 C110.372252,43.6692764 110.389552,42.052579 111.356676,41.0241668 L111.488206,40.8934572 L117.537,35.274 L104.340716,37.843591 C101.963053,38.3064429 100.248676,35.6669564 101.56375,33.6956927 L101.655936,33.5653065 L106.431,27.18 L94.0409964,30.5866398 C91.6444536,31.2454585 89.731146,28.6104994 91.0216336,26.5515108 L91.110366,26.4180853 L96.802,18.335 L83.350351,22.9471629 C81.6466755,23.5312528 79.8763633,22.3213012 79.7706361,20.5539139 L79.7656537,20.3866259 C79.7656537,18.7034586 80.5371088,17.1735356 81.9406135,15.4600239 L82.3526756,14.9708564 C82.9124748,14.3192675 83.3484029,13.8566917 84.320866,12.9056547 L86.9823739,10.3340407 C87.6382619,9.69506107 88.1244226,9.20455544 88.5865909,8.7124682 C89.6615521,7.56791821 90.3861355,6.62632836 90.7814112,5.85510449 L90.8667925,5.68013917 Z" id="Path" fill="#FFFFFF"></path>
                    </g>
                </g>
                <g id="upper-limb" transform="translate(0.929444, 407.000000)">
                    <path d="M58.4577376,235.169571 C67.752927,216.971502 90.0406164,209.754292 108.238685,219.049482 C126.254773,228.251719 133.508521,250.187906 124.632681,268.283277 L124.358774,268.830429 C111.472307,294.05948 97.8676455,344.913135 90.7618695,394.14257 L90.5485397,395.633845 C87.1167528,419.84217 85.5932759,441.495612 86.2005246,457.224554 L86.2526279,458.446154 C86.4872045,463.461028 86.9374397,467.530327 87.4969411,470.409703 L87.556,470.707 L87.5873642,470.742407 C98.0944846,482.770959 99.9081235,500.689607 91.0000936,514.808293 L90.6694028,515.323117 C79.4866764,532.426242 56.5564633,537.225673 39.4533384,526.042947 C27.2309735,518.051462 20.5492004,506.371616 16.6250407,492.114162 C14.0902175,482.904515 12.7262091,472.268751 12.2556119,460.079352 C11.4691514,439.708471 13.2172814,414.344799 17.0858769,386.634845 L17.2810718,385.247405 C25.3749443,328.152048 41.073464,269.204402 58.4577376,235.169571 Z" id="Path" fill="#EBBAAA" fill-rule="nonzero"></path>
                    <path d="M399.891547,193.773867 C417.689549,183.733878 440.256699,190.02299 450.296689,207.820991 C473.994005,249.82949 491.48567,309.183267 500.514885,371.218703 C509.112827,430.291077 508.936485,483.713177 498.12098,513.456309 C491.137721,532.660588 469.908527,542.567683 450.704247,535.584424 C431.692011,528.670998 421.791945,507.79513 428.371694,488.744411 L428.576132,488.167691 C434.108388,472.953735 434.251075,429.727487 427.286477,381.877047 C419.4639,328.131845 404.434915,277.134582 385.844423,244.179009 C375.804434,226.381007 382.093545,203.813856 399.891547,193.773867 Z" id="Path" fill="#EBBAAA" fill-rule="nonzero"></path>
                    <rect id="Rectangle" fill="#EBBAAA" fill-rule="nonzero" x="216.800556" y="0" width="80" height="205" rx="38.9901"></rect>
                    <circle id="Oval" fill="#E5EBF9" fill-rule="nonzero" cx="215.177556" cy="151.541" r="5.14231"></circle>
                    <path d="M251.070556,140 C247.525556,133.5 249.070556,115.5 249.070556,115.5 L226.945556,113.671 L195.570556,72 C164.403556,77.5 163.070556,79.5 140.570556,89.5 C113.729556,101.429 119.070556,141.5 115.070556,196 L127.070556,504.5 L188.570556,513.671 L239.445556,514.671 L253.570556,163.5 C253.570556,163.5 254.615556,146.5 251.070556,140 Z" id="Path" fill="#DEDEE2" fill-rule="nonzero"></path>
                    <path d="M252.070556,155 C253.070556,147 254.570556,137.5 261.070556,131 C267.570556,124.5 274.570556,117 274.570556,117 L296.383556,117 L327.383556,75 C327.383556,75 371.882556,81 386.882556,89 C401.882556,97 410.882556,184.5 410.882556,184.5 L406.570556,504.5 L379.882556,515 L243.382556,515 C237.383556,406 250.382556,199.17 250.382556,184.5 C250.382556,178.171 251.070556,163 252.070556,155 Z" id="Path" fill="#DEDEE2" fill-rule="nonzero"></path>
                    <g id="Clipped" transform="translate(241.070556, 81.000000)">
                        <mask id="mask-2" fill="white">
                            <use xlink:href="#path-1"></use>
                        </mask>
                        <g id="Path"></g>
                        <g id="Group" mask="url(#mask-2)">
                            <g transform="translate(-10.000000, 28.000000)">
                                <path d="M44,213.5 C44.4,175.5 52.77,35.5 43.27,0 C43.27,0 36.549,7.242 29.77,13.5 C22.99,19.758 21.77,30.5 21.77,30.5 L21.77,31 L0,405.5 L44,405.5 C43,356.833 43.6,251.5 44,213.5 Z" id="Path" fill="#CDCBD6" fill-rule="nonzero"></path>
                                <path d="M44,213.5 C44.4,175.5 52.77,35.5 43.27,0 C43.27,0 36.549,7.242 29.77,13.5 C22.99,19.758 21.77,30.5 21.77,30.5 L21.77,31 L0,405.5 L44,405.5 C43,356.833 43.6,251.5 44,213.5 Z" id="Path" fill="#CDCBD6" fill-rule="nonzero"></path>
                                <path d="M52.8610032,20.2612118 L53.8609968,20.2612118 L52.4540032,413.683788 L51.4540032,413.683788 L52.8610032,20.2612118 Z M61.3560032,19.9572118 L62.3559968,19.9572118 L60.9490032,413.379788 L59.9490032,413.379788 L61.3560032,19.9572118 Z M69.8500032,19.6522118 L70.8499968,19.6522118 L69.4430032,413.074788 L68.4430032,413.074788 L69.8500032,19.6522118 Z M77.3450032,19.3832131 L78.3449968,19.3832131 L76.9390032,412.806787 L75.9390032,412.806787 L77.3450032,19.3832131 Z" id="Shape" fill-opacity="0.32" fill="#000000" fill-rule="nonzero"></path>
                                <path d="M15.583,424.299 L16.99,30.876 L17.99,30.88 L16.583,424.299 L15.583,424.299 Z M24.078,423.991 L25.485,30.572 L26.485,30.572 L25.078,423.995 L24.078,423.991 Z M32.572,423.69 L33.979,30.267 L34.979,30.271 L33.572,423.69 L32.572,423.69 Z M40.068,423.421 L41.474,29.999 L42.474,29.999 L41.068,423.421 L40.068,423.421 Z" id="Shape" fill-opacity="0.13" fill="#000000" fill-rule="evenodd"></path>
                            </g>
                        </g>
                    </g>
                    <circle id="Oval" fill="#BAB8C6" fill-rule="nonzero" cx="265.570556" cy="153.5" r="5.5"></circle>
                    <circle id="Oval" fill="#BAB8C6" fill-rule="nonzero" cx="264.570556" cy="183.5" r="5.5"></circle>
                    <ellipse id="Oval" fill="#BAB8C6" fill-rule="nonzero" cx="263.570556" cy="231" rx="5.5" ry="6"></ellipse>
                    <circle id="Oval" fill="#BAB8C6" fill-rule="nonzero" cx="261.570556" cy="283.5" r="5.5"></circle>
                    <circle id="Oval" fill="#BAB8C6" fill-rule="nonzero" cx="261.570556" cy="336.5" r="5.5"></circle>
                    <circle id="Oval" fill="#BAB8C6" fill-rule="nonzero" cx="261.570556" cy="394.5" r="5.5"></circle>
                    <circle id="Oval" fill="#BAB8C6" fill-rule="nonzero" cx="261.570556" cy="447.5" r="5.5"></circle>
                    <g id="Clipped" transform="translate(115.070556, 72.000000)">
                        <mask id="mask-4" fill="white">
                            <use xlink:href="#path-3"></use>
                        </mask>
                        <g id="Path"></g>
                        <path d="M129.499395,53.9801184 L130.498605,54.0198816 L114.998605,443.519882 L113.999395,443.480118 L129.499395,53.9801184 Z M121.999395,53.9801184 L122.998605,54.0198816 L107.498605,443.519882 L106.499395,443.480118 L121.999395,53.9801184 Z M113.499395,53.9801184 L114.498605,54.0198816 L98.9986046,443.519882 L97.9993954,443.480118 L113.499395,53.9801184 Z M104.999395,53.9801184 L105.998605,54.0198816 L90.4986046,443.519882 L89.4993954,443.480118 L104.999395,53.9801184 Z" id="Shape" fill-opacity="0.32" fill="#000000" fill-rule="nonzero" mask="url(#mask-4)"></path>
                    </g>
                    <path d="M250.212556,134.5 C248.612556,130.5 248.569556,120.833 249.069556,115.5 C242.402556,117.333 230.567556,121.7 236.567556,124.5 C242.567556,127.3 250.547556,142.167 253.714556,149.5 C253.047556,146.667 251.812556,138.5 250.212556,134.5 Z" id="Path" fill="#CDCBD6" fill-rule="nonzero"></path>
                    <path d="M221.571556,90.5 C215.500556,79.876 217.571556,69 216.799556,57 L193.924556,68.329 C193.924556,68.329 185.926556,80.329 190.924556,109.329 C194.371556,129.329 185.571556,145 211.571556,160.5 C214.571556,134 244.060556,120.15 249.071556,115.5 C239.571556,110.5 229.571556,104.5 221.571556,90.5 Z" id="Path" fill="#CDCBD6" fill-rule="nonzero"></path>
                    <g id="Clipped" transform="translate(189.070556, 57.000000)">
                        <mask id="mask-6" fill="white">
                            <use xlink:href="#path-5"></use>
                        </mask>
                        <g id="Path"></g>
                        <g id="Group" mask="url(#mask-6)" stroke="#000000" stroke-opacity="0.12">
                            <g transform="translate(7.000000, -5.000000)" id="Path">
                                <path d="M21.216,5 C11.583,14.311 5.978,21.759 10.707,43.277 C15.436,64.795 27.418,77.919 30.999,81"></path>
                                <path d="M7.894,10 C-1.586,19.239 -1.624,31.216 3.03,52.568 C7.683,73.92 19.475,86.943 22.999,90"></path>
                                <path d="M30.939,1 C21.525,10.066 16.047,17.318 20.669,38.27 C25.291,59.222 37,72 40.5,75"></path>
                                <path d="M40.939,0 C31.525,9.066 26.047,16.318 30.669,37.27 C35.291,58.222 47,71 50.5,74"></path>
                            </g>
                        </g>
                    </g>
                    <path d="M270.070556,135.001 C281.070556,129.001 290.570556,126.501 296.570556,122.001 C294.570556,112.801 280.070556,115.001 274.570556,117.001 C272.903556,119.168 268.170556,124.601 262.570556,129.001 C256.970556,133.401 253.737556,143.168 253.070556,147.501 C255.403556,146.168 263.324556,138.681 270.070556,135.001 Z" id="Path" fill="#CDCBD6" fill-rule="nonzero"></path>
                    <path d="M293.069556,89.5 C296.508556,78.124 296.299556,59.5 296.299556,54 L325.424556,68.329 C325.424556,68.329 331.424556,81.829 325.424556,109.329 C318.851556,139.456 312.426556,128 305.569556,136 C298.569556,124 288.569556,117 274.069556,117 C288.069556,105 290.046556,99.5 293.069556,89.5 Z" id="Path" fill="#CDCBD6" fill-rule="nonzero"></path>
                    <g id="Clipped" transform="translate(274.070556, 54.000000)">
                        <mask id="mask-8" fill="white">
                            <use xlink:href="#path-7"></use>
                        </mask>
                        <g id="Path"></g>
                        <g id="Group" mask="url(#mask-8)" stroke="#000000" stroke-opacity="0.12">
                            <g transform="translate(12.000000, -5.000000)" id="Path">
                                <path d="M13.499,6.5 C20.832,15.5 25.099,22.7 21.499,43.5 C17.899,64.3 9.666,75 7.999,75"></path>
                                <path d="M5.499,0 C12.832,9 17.099,16.2 13.499,37 C9.899,57.8 1.666,68.5 -0.001,68.5"></path>
                                <path d="M20.499,12 C27.832,21 32.099,28.2 28.499,49 C24.899,69.8 16.666,80.5 14.999,80.5"></path>
                            </g>
                        </g>
                    </g>
                    <path d="M291.39934,121.029865 L291.739771,121.970135 L290.61139,122.383999 C275.920018,127.84156 260.448034,136.27888 255.177661,143.50809 L254.980008,143.785532 L254.159103,143.214468 C259.3873,135.698935 275.189654,127.045427 290.256612,121.448967 L291.39934,121.029865 Z" id="Path" fill-opacity="0.12" fill="#000000" fill-rule="nonzero"></path>
                    <path d="M289.376494,117.538776 L289.762617,118.461224 C278.66283,123.10743 265.426401,129.895469 258.746224,135.102789 L258.381903,135.390434 L257.757208,134.609566 C264.283189,129.388781 277.498178,122.558553 288.753282,117.800933 L289.376494,117.538776 Z" id="Path" fill-opacity="0.12" fill="#000000" fill-rule="nonzero"></path>
                    <path d="M284.853204,114.549232 L285.285907,115.450768 L284.456407,115.86286 C283.333383,116.441735 282.027711,117.203776 279.164753,118.934941 L274.766124,121.599004 C271.677257,123.453966 269.714996,124.558107 268.142832,125.288575 L267.772625,125.456906 L267.366487,124.543094 L267.726641,124.37926 C269.319941,123.638386 271.357787,122.48501 274.634531,120.51118 L280.55478,116.93178 C282.330813,115.871603 283.300834,115.324974 284.217695,114.861823 L284.853204,114.549232 Z" id="Path" fill-opacity="0.12" fill="#000000" fill-rule="nonzero"></path>
                    <path d="M231.904556,232.983 C225.757556,225.786 213.465556,201.996 208.343556,192 C203.391556,296.125 200.560556,520.068 212.444556,520.868 C227.298556,521.867 270.320556,526.865 273.393556,516.869 C276.466556,506.873 268.270556,275.966 265.196556,266.47 C262.122556,256.974 239.587556,241.98 231.904556,232.983 Z" id="Path" fill="#273447" fill-rule="nonzero"></path>
                    <path d="M282.071556,233 C288.071556,225.8 300.071556,202 305.071556,192 C309.905556,296.167 312.669556,520.2 301.068556,521 C286.567556,522 244.569556,527 241.569556,517 C238.569556,507 246.570556,276 249.571556,266.5 C252.572556,257 274.571556,242 282.071556,233 Z" id="Path" fill="#2B394D" fill-rule="nonzero"></path>
                    <path d="M308.069556,156.5 C313.658556,124.851 331.569556,65.317 301.299556,55.5 C301.299556,55.5 327.036556,62.932 367.800556,78.5 C408.563556,94.068 416.056556,121.83 416.056556,121.83 C425.101556,140.349 435.514556,226.01 438.068556,332 C440.622556,437.99 433.071556,475.5 421.068556,525 C399.568556,533.5 346.569556,539.5 292.569556,542.5 C292.569556,530.165 290.569556,499.83 290.069556,482 C289.569556,464.17 287.958556,433.388 288.569556,356.5 C289.108556,288.657 299.856556,203.003 308.069556,156.5 Z" id="Path" fill="#5E82AE" fill-rule="nonzero"></path>
                    <path d="M49.5695558,200.5 C68.6948558,119.445 77.8000558,107.5 145.799556,82.5 C145.799556,82.5 113.924556,189.829 113.924556,237.829 C113.924556,285.829 121.424556,360.829 121.424556,360.829 C114.424556,402.829 130.928556,477 121.428556,499.5 C95.9289558,507.5 22.9250558,505.5 10.9289558,491 C-1.06713925,476.5 -2.92651425,440.5 4.06957575,389 C11.0656558,337.5 39.0695558,245 49.5695558,200.5 Z" id="Path" fill="#5E82AE" fill-rule="nonzero"></path>
                    <path d="M217.070556,172.5 C212.021556,140.851 174.570556,87.5 213.800556,57 C213.800556,57 200.800556,63.5 160.300556,76.5 C119.800556,89.5 113.095556,122.83 113.095556,122.83 C104.925556,141.349 102.377556,229.01 100.070556,335 C97.7636558,440.99 91.8184558,470 100.068556,516 C119.490556,524.5 161.996556,533.83 210.324556,540.33 C210.324556,527.995 214.044556,509.768 214.389556,495.83 C215.517556,450.319 227.852556,416.78 227.300556,339.893 C226.813556,272.05 224.488556,219.003 217.070556,172.5 Z" id="Path" fill="#5E82AE" fill-rule="nonzero"></path>
                    <path d="M168.046556,498.187 C168.046556,464.902 170.112556,446.262 174.042556,423.628 C175.059556,417.77 147.284556,403.435 133.269556,397 L92.4973558,402.326 C87.4650558,431.615 85.7819558,474.753 92.4973558,479.546 C100.891556,485.537 148.258556,506.175 168.046556,498.187 Z" id="Path" fill="#577BA6" fill-rule="nonzero"></path>
                    <path d="M84.9072664,398.958232 L91.2318451,381.041768 L98.0005019,383.422102 C132.305821,395.437395 156.418988,403.090381 176.47782,407.580928 L177.12348,407.724689 L173.015631,426.275311 L171.660682,425.972076 C151.035397,421.307918 126.940773,413.672667 92.9338968,401.779083 L84.9072664,398.958232 Z" id="Path" fill="#4A6A90" fill-rule="nonzero"></path>
                    <path d="M522.069556,383 C514.569556,341.5 505.069556,299 492.569556,260 C470.078556,189.829 454.346556,134.035 438.299556,109 C425.242556,88.629 382.299556,83.5 371.799556,80 L417.069556,361.5 C417.069556,407.5 416.069556,459 414.069556,496.5 C439.569556,504.5 505.569556,512 517.569556,496.5 C529.569556,481 529.569556,424.5 522.069556,383 Z" id="Path" fill="#5E82AE" fill-rule="nonzero"></path>
                    <path d="M348.846556,511.606 C348.846556,477.392 346.515556,458.232 342.084556,434.967 C340.936556,428.945 408.104556,402.615 423.910556,396 L431.065556,404.867 C431.065556,444 431.481556,493.678 423.907556,498.605 C414.440556,504.763 371.162556,519.817 348.846556,511.606 Z" id="Path" fill="#577BA6" fill-rule="nonzero"></path>
                    <path d="M430.022371,393.001963 L436.116741,410.998037 L433.643091,411.82937 C408.570311,420.193311 373.600623,430.023209 345.975339,436.602323 L343.237931,437.249224 L338.901181,418.750776 L341.585233,418.116463 C368.676557,411.664126 403.100166,401.987902 427.605534,393.814155 L430.022371,393.001963 Z" id="Path" fill="#4A6A90" fill-rule="nonzero"></path>
                    <ellipse id="Oval" fill="#4A6A90" fill-rule="nonzero" transform="translate(508.553556, 478.056000) rotate(-18.454800) translate(-508.553556, -478.056000) " cx="508.553556" cy="478.056" rx="5" ry="5.5"></ellipse>
                    <ellipse id="Oval" fill="#4A6A90" fill-rule="nonzero" transform="translate(509.494556, 461.929000) rotate(-18.454800) translate(-509.494556, -461.929000) " cx="509.494556" cy="461.929" rx="5" ry="5.5"></ellipse>
                    <ellipse id="Oval" fill="#4A6A90" fill-rule="nonzero" transform="translate(510.440556, 445.800000) rotate(-18.454800) translate(-510.440556, -445.800000) " cx="510.440556" cy="445.8" rx="5" ry="5.5"></ellipse>
                    <ellipse id="Oval" fill="#4A6A90" fill-rule="nonzero" transform="translate(17.446356, 470.331000) rotate(-27.823700) translate(-17.446356, -470.331000) " cx="17.4463558" cy="470.331" rx="5" ry="5.5"></ellipse>
                    <ellipse id="Oval" fill="#4A6A90" fill-rule="nonzero" transform="translate(15.751056, 454.267000) rotate(-27.823700) translate(-15.751056, -454.267000) " cx="15.7510558" cy="454.267" rx="5" ry="5.5"></ellipse>
                    <ellipse id="Oval" fill="#4A6A90" fill-rule="nonzero" transform="translate(14.059656, 438.198000) rotate(-27.823700) translate(-14.059656, -438.198000) " cx="14.0596558" cy="438.198" rx="5" ry="5.5"></ellipse>
                    <path d="M168.075556,78 C171.305556,66 214.803556,56.5 214.803556,56.5 C204.073556,67.5 199.273556,75.2 204.073556,104 C208.873556,132.8 235.573556,211.5 227.303556,363.5 C227.303556,363.5 145.572556,132 148.072556,127.5 C149.151556,125.559 157.904556,126.688 167.509556,128.601 C166.756556,113.76 165.767556,86.571 168.075556,78 Z" id="Path" fill="#4A6A90" fill-rule="nonzero"></path>
                    <path d="M346.475556,76.5 C343.319556,64.5 300.824556,55 300.824556,55 C311.307556,66 315.996556,73.7 311.307556,102.5 C306.618556,131.3 280.533556,210 288.612556,362 C288.612556,362 368.458556,130.5 366.016556,126 C364.962556,124.059 356.411556,125.188 347.027556,127.101 C347.763556,112.26 348.729556,85.071 346.475556,76.5 Z" id="Path" fill="#4A6A90" fill-rule="nonzero"></path>
                    <ellipse id="Oval" fill="#263245" fill-rule="nonzero" cx="263.570556" cy="283" rx="6.5" ry="8"></ellipse>
                    <ellipse id="Oval" fill="#263245" fill-rule="nonzero" cx="262.570556" cy="338" rx="6.5" ry="8"></ellipse>
                    <ellipse id="Oval" fill="#263245" fill-rule="nonzero" cx="261.570556" cy="393" rx="6.5" ry="8"></ellipse>
                    <ellipse id="Oval" fill="#263245" fill-rule="nonzero" cx="260.570556" cy="448" rx="6.5" ry="8"></ellipse>
                </g>
                <g id="hand" transform="translate(72.000200, -0.000000)">
                    <ellipse id="Oval" fill="#EBBAAA" fill-rule="nonzero" cx="52.1568" cy="296.703" rx="52.1568" ry="49.4723"></ellipse>
                    <ellipse id="Oval" fill="#EBBAAA" fill-rule="nonzero" cx="329.7768" cy="300.539" rx="52.1568" ry="49.4723"></ellipse>
                    <path d="M39.8818,256.839 C30.5588,169.2 98.0328,92.2664 186.1388,90.0766 C274.7558,87.8742 346.1618,162.191 340.4218,250.649 L338.8588,274.739 L331.0738,337.825 C322.2168,409.594 261.2478,463.501 188.9348,463.501 C114.1028,463.501 51.8858,405.89 46.1398,331.279 L41.7868,274.739 L39.8818,256.839 Z" id="Path" fill="#EED4CC" fill-rule="nonzero"></path>
                    <path d="M224.1898,224.415 L274.9888,215.828 C275.5718,215.729 276.1688,215.894 276.6188,216.277 L294.1388,231.205 C295.5398,232.399 294.7208,234.692 292.8798,234.727 L268.4648,235.192 L225.1388,240.313 C222.7228,240.599 220.6138,238.679 220.6708,236.247 L220.8578,228.266 C220.9028,226.349 222.2998,224.734 224.1898,224.415 Z" id="Path" fill="#393939" fill-rule="nonzero"></path>
                    <path d="M149.6808,224.42 L99.3198,215.827 C98.7338,215.727 98.1338,215.892 97.6828,216.279 L80.2788,231.184 C78.8838,232.38 79.7038,234.667 81.5408,234.703 L105.7528,235.176 L148.7078,240.305 C151.1228,240.594 153.2338,238.678 153.1808,236.247 L153.0078,228.276 C152.9658,226.359 151.5708,224.742 149.6808,224.42 Z" id="Path" fill="#393939" fill-rule="nonzero"></path>
                    <path d="M177.016781,283.843959 L193.858819,286.156041 C193.540377,288.475693 192.799805,291.047275 191.511647,294.702798 L191.211301,295.545227 C190.422353,297.724935 188.105688,303.926831 187.598612,305.324317 C186.170229,309.260907 185.094841,312.505109 184.244942,315.546839 L184.088198,316.11491 C181.990481,323.815633 181.64896,329.479273 182.984256,332.75012 C184.185681,335.693048 187.357295,337.435863 194.929575,337.498265 L195.3548,337.5 L195.3548,354.5 C181.117749,354.5 171.36632,349.270045 167.245277,339.175425 C164.15074,331.595262 164.690597,322.642496 167.685873,311.646832 C168.641702,308.137982 169.808473,304.556765 171.328836,300.326695 L171.744987,299.178221 C172.503938,297.108333 174.793,290.978433 175.325823,289.482332 L175.685742,288.456659 C176.399247,286.389963 176.82075,284.946147 176.976426,284.093575 L177.016781,283.843959 Z" id="Path" fill="#EBBAAA" fill-rule="nonzero"></path>
                    <g id="Group-3" transform="translate(9.999819, 0.000000)" fill-rule="nonzero">
                        <path d="M87.6479806,137.286 C67.9069806,143.494 72.6929806,158.758 71.4969806,173.284 C69.6409806,195.806 32.7349806,167.705 32.7349806,274.994 C28.4219806,275.408 27.0899806,253.21 19.0139806,254.093 C14.0788806,255.859 14.8331806,255.423 11.3365806,257.39 C8.18188055,246.765 2.36738055,227.993 0.345280555,193.162 C-6.37261945,77.4431 86.1919806,6.12184002 168.675981,17.1121 C196.369981,20.8021 233.999981,47.7534 233.999981,125.478 C193.620981,147.559 124.090981,125.827 87.6479806,137.286 Z" id="Path" fill="#2A2A2A"></path>
                        <path d="M274.474981,145.331 C286.191981,151.663 292.744981,154.641 298.481981,168.097 C311.542981,198.731 318.355981,183.477 329.140981,275.994 C333.472981,276.408 333.167981,255.034 341.279981,255.918 C344.199981,257.368 345.792981,257.887 348.299981,259.363 C351.468981,248.728 365.999981,220.018 365.999981,189.765 C365.999981,53.1533 263.876981,10.4729 176.929981,16.5592 C117.350981,20.7297 143.891981,55.6987 143.891981,133.492 C203.794981,142.334 240.817981,127.141 274.474981,145.331 Z" id="Path" fill="#2C2929"></path>
                        <path d="M243.813981,152.843 C256.114981,122.669 243.813981,42.6122 234.971981,23.1642 C226.130981,3.71628002 198.452981,7.25092002 215.366981,53.2199 C221.901981,70.9806 233.280981,88.9344 232.665981,118.637 C232.050981,148.34 216.648981,180.321 211.522981,187 C214.854981,185.625 231.512981,183.017 243.813981,152.843 Z" id="Path" fill="#2A2A2A"></path>
                        <path d="M244.040981,144.47 C252.721981,112.919 224.743981,38.5011 211.301981,21.6328 C197.860981,4.76455002 167.060981,13.884 194.308981,54.579 C204.835981,70.3021 220.895981,85.2095 225.397981,113.891 C229.898981,142.572 218.013981,176.501 213.364981,183.981 C216.905981,181.97 235.358981,176.02 244.040981,144.47 Z" id="Path" fill="#2A2A2A"></path>
                        <path d="M122.830981,173.314 C112.591981,138.311 126.887981,46.771 135.760981,24.7066 C144.633981,2.64223002 170.038981,7.51858002 152.741981,59.7898 C146.058981,79.9855 134.900981,100.26 134.374981,134.376 C133.848981,168.492 146.881981,205.661 151.364981,213.481 C148.341981,211.803 133.068981,208.317 122.830981,173.314 Z" id="Path" fill="#2A2A2A"></path>
                        <path d="M68.0339806,165.276 C68.0339806,148.255 58.8229806,103.686 57.7189806,82.936 C59.1929806,80.6608 64.2519806,76.9687 72.7029806,80.4026 C83.2659806,84.6949 82.8949806,121.742 79.8059806,165.276 C78.3069806,186.414 81.8069806,199.914 81.8069806,199.914 C81.8069806,199.914 68.0339806,188.414 68.0339806,165.276 Z" id="Path" fill="#2A2A2A"></path>
                        <path d="M185.149981,0.0166601164 C201.617981,1.10013002 210.657981,12.4318 211.999981,21.0093 C211.999981,25.9753 208.956981,49.1796 205.734981,77.8916 C201.707981,113.782 185.149981,146.286 177.989981,170.664 C172.261981,190.167 164.682981,209.017 164.682981,226 C146.998981,201.179 138.385981,188.649 131.225981,140.434 C122.275981,80.1659 164.564981,-1.33767998 185.149981,0.0166601164 Z" id="Path" fill="#2A2A2A"></path>
                        <path d="M122.537981,218.757 C120.273981,217.18 115.406981,206.968 113.595981,183.182 C112.660981,170.886 123.304981,165.587 140.642981,130.432 C156.842981,97.5834 175.233981,38.8932 184.999981,19.4176 C180.925981,13.3359 174.136981,2.52433002 140.642981,11.3083 C105.421981,20.5451 75.9169806,77.53 75.0119806,142.4 C74.2879806,194.296 106.846981,221.91 122.537981,218.757 Z" id="Path" fill="#2A2A2A"></path>
                        <polygon id="Path" fill="#2A2A2A" points="297.929981 128.65 310.052981 92.9254 193.444981 105.969 65.0889806 68.8685 63.9559806 83.8308 72.8699806 89.0357 71.9789806 100.792 83.7889806 101.295 82.4119806 119.464 97.5949806 120.111 99.9169806 134.148 113.412981 134.723 120.373981 148.959 134.615981 145.277 138.185981 154.006 152.524981 154.618 151.796981 164.236 171.925981 155.445 176.257981 165.279 185.421981 156.02 193.128981 165.998 209.883981 157.063 219.277981 167.113 230.971981 157.961 238.563981 158.285 247.645981 150.095 250.372981 158.788 266.088981 141.231 275.043981 145.901 288.852981 125.582"></polygon>
                        <path d="M256.385981,123.028 C259.729981,118.321 286.089981,138.527 298.851981,149.218 L307.799981,170.206 L298.087981,187.984 L287.805981,164.768 L284.625981,184.196 L271.824981,153.624 L269.943981,168.512 C268.515981,165.538 266.087981,159.922 264.493981,156.185 C262.899981,152.448 264.255981,141.853 263.258981,135.781 L262.417981,130.543 C260.126981,126.292 253.042981,127.735 256.385981,123.028 Z" id="Path" fill="#2C2929"></path>
                        <path d="M49.6179806,165.122 C48.6719806,158.705 75.8839806,140.707 89.6069806,132.51 L107.390981,134.435 L112.621981,155.408 L92.7319806,153.709 L102.675981,168.314 L76.9049806,165.249 L84.8409806,175.819 C82.2299806,175.725 77.4519806,175.248 74.2849806,174.906 C71.1179806,174.564 65.4799806,167.023 61.2399806,164.685 L57.5939806,162.647 C53.7199806,162.793 50.5639806,171.539 49.6179806,165.122 Z" id="Path" fill="#2C2929"></path>
                    </g>
                    <path d="M141.9998,266 C146.970363,266 150.9998,270.029437 150.9998,275 C150.9998,279.881803 147.112986,283.855791 142.265162,283.996163 L141.9998,284 L103.9998,284 C99.0292373,284 94.9998,279.970563 94.9998,275 C94.9998,270.118197 98.8866137,266.144209 103.734438,266.003837 L103.9998,266 L141.9998,266 Z" id="Path" fill="#000000" fill-rule="nonzero"></path>
                    <path d="M269.4998,266 C274.470363,266 278.4998,270.029437 278.4998,275 C278.4998,279.881803 274.612986,283.855791 269.765162,283.996163 L269.4998,284 L231.4998,284 C226.529237,284 222.4998,279.970563 222.4998,275 C222.4998,270.118197 226.386614,266.144209 231.234438,266.003837 L231.4998,266 L269.4998,266 Z" id="Path" fill="#000000" fill-rule="nonzero"></path>
                    <path d="M135.9998,363.018 L135.9998,380.801 C135.9998,408.176 158.1928,430.36 185.5588,430.36 C212.9338,430.36 235.1178,408.176 235.1178,380.801 L235.1178,363.018 L135.9998,363.018 Z" id="Path" fill="#393939"></path>
                    <g id="Clipped" transform="translate(135.999800, 363.000000)">
                        <mask id="mask-10" fill="white">
                            <use xlink:href="#path-9"></use>
                        </mask>
                        <g id="Path"></g>
                        <path d="M49.559,83.251 C66.065,83.251 79.446,75.967 79.446,66.983 C79.446,57.998 66.065,50.715 49.559,50.715 C33.052,50.715 19.671,57.998 19.671,66.983 C19.671,75.967 33.052,83.251 49.559,83.251 Z" id="Path" fill="#FF6C6C" fill-rule="nonzero" mask="url(#mask-10)"></path>
                    </g>
                    <rect id="Rectangle" fill="#FFFFFF" fill-rule="nonzero" x="135.9998" y="363.018" width="99.1211" height="20.4296"></rect>
                    <g id="Group-2" transform="translate(54.999800, 226.000000)" fill-rule="nonzero">
                        <path d="M112.833994,28.7755459 C123.569092,24.6516488 133.903383,24.1822193 145.840231,28.5347288 L146.459094,28.7641647 L142.932906,38.1218353 C133.338734,34.5065279 125.456607,34.7427773 116.904802,37.9270688 L116.420006,38.1104541 L112.833994,28.7755459 Z" id="Path" fill="#CFAE8F"></path>
                        <path d="M198.394599,-0.0835354446 C181.700905,2.060676 168.494315,6.7640501 158.377163,13.2686033 C153.37431,16.4850541 149.449756,19.9384269 146.482784,23.3999144 C145.43815,24.6186614 144.587021,25.753934 143.914063,26.7772321 L143.661839,27.1683906 C143.43112,27.5339062 143.26441,27.8215588 143.157146,28.0229379 L142.982207,28.3648991 L145.375709,60.8168713 C146.857385,80.9067157 163.357147,96.710873 183.465721,97.2998872 L217.989729,98.3108874 C238.550831,98.9134519 255.897091,83.4250274 257.617496,62.9269519 L261.489442,16.8056871 L261.217877,16.4882485 C261.103591,16.3546581 260.899332,16.1316183 260.603673,15.8303708 L260.471362,15.6965093 C259.868623,15.0908485 259.142047,14.4187981 258.289507,13.6971752 C255.866341,11.6461123 252.914247,9.59912175 249.416622,7.69126847 C236.280414,0.525847033 219.349688,-2.77516127 198.394599,-0.0835354446 Z M248.458895,9.44704741 C251.834241,11.2882007 254.675017,13.258003 256.997369,15.2237329 C257.690276,15.8102368 258.29238,16.3593835 258.80492,16.860684 L259.172636,17.2275592 L259.425,17.488 L255.624505,62.7596587 C253.992944,82.1991845 237.54759,96.8831922 218.048293,96.311745 L183.524271,95.3007444 L182.952805,95.2796517 C164.128986,94.4412751 148.762551,79.5472268 147.370291,60.6697632 L145.019,28.79 L145.045622,28.7448552 C145.189056,28.4966283 145.368253,28.2058946 145.585096,27.8761629 C146.212214,26.9225681 147.012572,25.8550172 148.001301,24.7014927 C150.843939,21.3850618 154.622089,18.060516 159.458757,14.9509096 C169.321697,8.60979491 182.245395,4.00716984 198.649398,1.90016759 C219.181611,-0.737141028 235.688686,2.48126724 248.458895,9.44704741 Z" id="Path-Copy" fill="#CFAE8F"></path>
                        <path d="M11.5013574,7.74898249 C7.90155962,9.66859123 4.84417751,11.727888 2.31843117,13.7909506 C1.43016129,14.5165011 0.670749004,15.1920654 0.0388074331,15.8007149 L-0.445521243,16.2794319 C-0.543297515,16.3791544 -0.623626916,16.4635133 -0.686582682,16.5316176 L-1.04180284,16.9258948 L3.79868512,62.1132082 C5.96362261,82.3295567 23.3023986,97.3219726 43.6239601,96.5500078 L76.444997,95.3020064 C96.6787608,94.5334538 113.117767,78.3868745 114.281353,58.1411069 L116.044287,27.451124 L115.930544,27.216899 C115.808376,26.9653228 115.563002,26.5232049 115.179103,25.9179666 C114.550868,24.927518 113.753535,23.8289446 112.77185,22.6497922 C109.984575,19.3018555 106.277311,15.962199 101.530101,12.8520917 C91.6637224,6.38818936 78.641322,1.77002318 62.0387862,-0.216191305 C41.572241,-2.6646696 24.770607,0.673094095 11.5013574,7.74898249 Z M61.8012138,1.76964841 C78.1029943,3.71988258 90.8310531,8.23366564 100.434082,14.5250355 C105.012695,17.5246878 108.572162,20.7312024 111.234804,23.9294368 C112.160589,25.0414443 112.907377,26.0703764 113.490198,26.9892277 L113.599502,27.1632234 C113.703885,27.3310635 113.793567,27.4803256 113.869102,27.6100048 L114.016,27.87 L112.284646,58.0263798 C111.18017,77.243671 95.5721515,92.5740446 76.3690437,93.3034492 L43.548003,94.5514507 L42.9707316,94.5689392 C23.949598,94.9987693 7.81977189,80.8794847 5.78731488,61.9002489 L1.043,17.617 L1.30073847,17.3628437 L1.42622466,17.2412264 C2.01951183,16.6698066 2.73823762,16.0304365 3.58363636,15.3399038 C6.01122889,13.3570144 8.96076213,11.3703592 12.4424257,9.51374606 C25.3570085,2.62698535 41.7485669,-0.629313912 61.8012138,1.76964841 Z" id="Path-Copy-2" fill="#CFAE8F"></path>
                        <path d="M198.394599,-0.0835354446 C181.700905,2.060676 168.494315,6.7640501 158.377163,13.2686033 C153.37431,16.4850541 149.449756,19.9384269 146.482784,23.3999144 C145.43815,24.6186614 144.587021,25.753934 143.914063,26.7772321 L143.661839,27.1683906 C143.43112,27.5339062 143.26441,27.8215588 143.157146,28.0229379 L142.982207,28.3648991 L145.375709,60.8168713 C146.857385,80.9067157 163.357147,96.710873 183.465721,97.2998872 L217.989729,98.3108874 C238.550831,98.9134519 255.897091,83.4250274 257.617496,62.9269519 L261.489442,16.8056871 L261.217877,16.4882485 C261.103591,16.3546581 260.899332,16.1316183 260.603673,15.8303708 L260.471362,15.6965093 C259.868623,15.0908485 259.142047,14.4187981 258.289507,13.6971752 C255.866341,11.6461123 252.914247,9.59912175 249.416622,7.69126847 C236.280414,0.525847033 219.349688,-2.77516127 198.394599,-0.0835354446 Z M248.458895,9.44704741 C251.834241,11.2882007 254.675017,13.258003 256.997369,15.2237329 C257.690276,15.8102368 258.29238,16.3593835 258.80492,16.860684 L259.172636,17.2275592 L259.425,17.488 L255.624505,62.7596587 C253.992944,82.1991845 237.54759,96.8831922 218.048293,96.311745 L183.524271,95.3007444 L182.952805,95.2796517 C164.128986,94.4412751 148.762551,79.5472268 147.370291,60.6697632 L145.019,28.79 L145.045622,28.7448552 C145.189056,28.4966283 145.368253,28.2058946 145.585096,27.8761629 C146.212214,26.9225681 147.012572,25.8550172 148.001301,24.7014927 C150.843939,21.3850618 154.622089,18.060516 159.458757,14.9509096 C169.321697,8.60979491 182.245395,4.00716984 198.649398,1.90016759 C219.181611,-0.737141028 235.688686,2.48126724 248.458895,9.44704741 Z" id="Path" fill="#CFAE8F"></path>
                        <path d="M196.926324,-2.8779339 C211.137246,-4.87874789 224.455881,-3.69628991 236.718568,-0.0286382257 C245.710868,2.66087215 253.375315,6.43532184 259.588425,10.6035644 C263.207383,13.0297836 265.172231,17.169777 265.055346,21.5822816 L265.041786,21.9311771 L263.877786,44.7051771 L255.888214,44.2968229 L257.052239,21.5223397 C257.146009,19.6920385 256.420175,18.1109969 255.132523,17.2477298 C249.551623,13.5036241 242.601994,10.081195 234.426182,7.63588823 C223.235372,4.28882456 211.073776,3.20909111 198.041677,5.04393383 C184.933897,6.88943347 173.832086,10.3529876 164.579514,14.9971862 C157.859232,18.3703372 152.697321,22.0555631 148.950382,25.6227787 C148.186606,26.3500647 147.785694,27.4871536 147.859197,28.8419017 L147.878566,29.0984207 L150.262566,53.8444207 L142.299434,54.6115793 L139.915483,29.8660844 C139.548762,26.0645615 140.744007,22.3903331 143.433905,19.8289473 C147.740165,15.7292392 153.546962,11.5836116 160.990736,7.84731385 C171.020653,2.81293827 182.957925,-0.911264077 196.926324,-2.8779339 Z" id="Path" fill="#000000"></path>
                        <path d="M11.5713574,9.48025394 C7.97155962,11.3998627 4.91417751,13.4591594 2.38843117,15.5222221 C1.50016129,16.2477726 0.740749004,16.9233369 0.108807433,17.5319864 L-0.375521243,18.0107034 C-0.473297515,18.1104259 -0.553626916,18.1947847 -0.616582682,18.262889 L-0.971802838,18.6571663 L3.86868512,63.8444796 C6.03362261,84.0608281 23.3723986,99.053244 43.6939601,98.2812793 L76.514997,97.0332779 C96.7487608,96.2647252 113.187767,80.118146 114.351353,59.8723783 L116.114287,29.1823955 L116.000544,28.9481705 C115.878376,28.6965942 115.633002,28.2544763 115.249103,27.6492381 C114.620868,26.6587895 113.823535,25.560216 112.84185,24.3810637 C110.054575,21.0331269 106.347311,17.6934705 101.600101,14.5833631 C91.7337224,8.11946081 78.711322,3.50129463 62.1087862,1.51508014 C41.642241,-0.933398152 24.840607,2.40436554 11.5713574,9.48025394 Z M61.8712138,3.50091986 C78.1729943,5.45115403 90.9010531,9.96493708 100.504082,16.2563069 C105.082695,19.2559593 108.642162,22.4624739 111.304804,25.6607082 C112.230589,26.7727157 112.977377,27.8016479 113.560198,28.7204992 L113.669502,28.8944948 C113.773885,29.062335 113.863567,29.2115971 113.939102,29.3412763 L114.086,29.602 L112.354646,59.7576512 C111.25017,78.9749424 95.6421515,94.3053161 76.4390437,95.0347206 L43.618003,96.2827221 L43.0407316,96.3002106 C24.019598,96.7300408 7.88977189,82.6107561 5.85731488,63.6315204 L1.113,19.349 L1.37073847,19.0941151 L1.49622466,18.9724979 C2.08951183,18.4010781 2.80823762,17.761708 3.65363636,17.0711752 C6.08122889,15.0882859 9.03076213,13.1016306 12.5124257,11.2450175 C25.4270085,4.35825679 41.8185669,1.10195753 61.8712138,3.50091986 Z" id="Path" fill="#CFAE8F"></path>
                        <path d="M24.454503,1.54164312 C36.4472689,-2.14295771 49.4873753,-3.40629567 63.420266,-1.56762639 C87.9035278,1.66294997 105.095215,10.0476778 115.95015,20.1172904 C118.676416,22.6459596 119.915759,26.3083802 119.587207,30.1004652 L119.550515,30.4678123 L116.686515,55.7178123 L108.737485,54.8161877 L111.601349,29.5673858 C111.772358,28.0556509 111.358107,26.7694858 110.509642,25.9825166 C106.767875,22.5114549 101.656287,18.9569571 95.0415523,15.7308192 C85.9764837,11.309605 75.1361098,8.04762708 62.3736728,6.36361832 C49.6176078,4.68025015 37.7303341,5.83190057 26.803997,9.18885688 C18.8090065,11.6452001 12.0145745,15.0508494 6.55370726,18.768027 C5.3300673,19.6014379 4.62289264,21.0861509 4.65460866,22.8116034 L4.66419001,23.05969 L5.96419001,45.30969 L-2.02219001,45.77631 L-3.32212426,23.5274325 C-3.58875998,18.9857865 -1.6471424,14.6742651 2.05119171,12.1553609 C8.14185401,8.00948564 15.6468882,4.24765317 24.454503,1.54164312 Z" id="Path" fill="#000000"></path>
                    </g>
                </g>
            </g>
        </g>
    </g>
</svg>