<?xml version="1.0" encoding="UTF-8"?>
<svg width="707px" height="1383px" viewBox="0 0 707 1383" version="1.1" xmlns="http://www.w3.org/2000/svg" xmlns:xlink="http://www.w3.org/1999/xlink">
    <!-- Generator: Sketch 55.2 (78181) - https://sketchapp.com -->
    <title>gee_me_012</title>
    <desc>Created with Sketch.</desc>
    <g id="GEE!-ME" stroke="none" stroke-width="1" fill="none" fill-rule="evenodd">
        <g id="gee_me_012" transform="translate(-258.000000, -109.000000)">
            <g transform="translate(235.000000, 109.000000)">
                <g id="body" transform="translate(0.710954, 308.000000)">
                    <polygon id="Path" fill="#C6C6C7" fill-rule="nonzero" points="346.964046 1019 345.289046 975 411.289046 975 411.289046 1019"></polygon>
                    <path d="M518.701046,1072.02 C518.901046,1049.07 515.775046,1035.11 495.825046,1025.73 C475.876046,1016.35 457.084046,998.32 422.571046,982.86 C422.571046,982.86 418.028046,982.01 410.633046,986.01 C404.322046,989.42 396.216046,997.79 384.003046,997.69 C370.740046,997.57 358.921046,994.76 351.578046,990.91 C348.406046,982.22 341.368046,982.16 341.368046,982.16 C341.368046,982.16 331.459046,1001.02 331.294046,1019.97 C331.128046,1038.91 331.144555,1070.38 331.144555,1070.38 L518.701046,1072.02 Z" id="Path" fill="#504D5A" fill-rule="nonzero"></path>
                    <path d="M437.970671,1008.20018 C437.398028,1010.27603 439.36104,1012.15698 441.41056,1011.49628 L454.655206,1007.22662 L454.655206,1019.21 C454.655206,1021.26131 456.847992,1022.56717 458.651569,1021.58994 L467.648206,1016.71529 L467.648206,1025.71 C467.648206,1027.20495 468.8601,1028.41684 470.355046,1028.41684 C471.849993,1028.41684 473.061886,1027.20495 473.061886,1025.71 L473.061886,1012.17 C473.061886,1010.11869 470.869101,1008.81283 469.065523,1009.79006 L460.068886,1014.66471 L460.068886,1003.51 C460.068886,1001.67368 458.279277,1000.3703 456.531532,1000.93372 L444.523201,1004.80483 L447.520421,993.939822 C448.127311,991.73983 445.906564,989.822323 443.81854,990.743427 L429.281073,997.156435 C429.359781,995.361526 429.516508,993.913321 429.807943,992.330006 C430.116781,990.652143 430.556667,989.148976 431.143295,987.830011 C431.750814,986.464074 431.135995,984.864271 429.770058,984.256752 C428.40412,983.649232 426.804317,984.264051 426.196798,985.629989 C425.423729,987.368144 424.865529,989.275611 424.483705,991.349994 C423.920974,994.407211 423.797206,996.911718 423.797206,1001.34 C423.797206,1003.2956 425.807315,1004.60587 427.596553,1003.81657 L440.784839,997.998738 L437.970671,1008.20018 Z" id="Path" fill="#FFFFFF" fill-rule="nonzero"></path>
                    <path d="M337.179046,992.14 C341.031046,997.37 354.923046,1000.5 360.150046,1001.27 C365.377046,1002.04 370.977046,1001.36 368.736046,1010.01 C367.151046,1016.12 351.921046,1013.65 345.966046,1013.6 C341.124046,1013.55 334.334046,1028.19 331.806046,1023.22 C331.806046,1006.22 335.013046,997.01 337.179046,992.14 Z" id="Path" fill="#29282D" fill-rule="nonzero"></path>
                    <path d="M511.154046,1027.49 C505.033046,1025.27 498.551046,1023.59 486.123046,1020.77 L491.405046,1035.98 L491.253046,1053.3 L526.626046,1053.61004 C528.069046,1053.62 530.649046,1051.7 529.418046,1043.89 C527.879046,1034.13 519.851046,1030.64 511.154046,1027.49 Z" id="Path" fill="#29282D" fill-rule="nonzero"></path>
                    <polygon id="Path" fill="#FFFFFF" fill-rule="nonzero" points="452.636688 1024.37581 436.157688 1055.78581 451.498405 1063.83419 467.977405 1032.42419"></polygon>
                    <polygon id="Path" fill="#FFFFFF" fill-rule="nonzero" points="429.93026 1012.48426 410.18326 1050.22426 425.532833 1058.25574 445.279833 1020.51574"></polygon>
                    <polygon id="Path" fill="#FFFFFF" fill-rule="nonzero" points="407.66513 999.414325 380.36113 1052.60433 395.772963 1060.51567 423.076963 1007.32567"></polygon>
                    <path d="M329.007046,1067.41 L330.041046,1049.19 L489.865046,1051.67 L529.715046,1048.77 L530.933046,1062.73 C531.354046,1067.56 527.731046,1071.79 522.896046,1072.12 L489.667046,1074.4 L333.264046,1071.99 C330.803046,1071.95 328.868046,1069.87 329.007046,1067.41 Z" id="Path" fill="#DDDDDD" fill-rule="nonzero"></path>
                    <polygon id="Path" fill="#C6C6C7" fill-rule="nonzero" transform="translate(229.000000, 997.000000) scale(-1, 1) translate(-229.000000, -997.000000) " points="197.675 1019 196 975 262 975 262 1019"></polygon>
                    <path d="M276.135808,1072.02 C276.335808,1049.07 273.209808,1035.11 253.259808,1025.73 C233.310808,1016.35 214.518808,998.32 180.005808,982.86 C180.005808,982.86 175.462808,982.01 168.067808,986.01 C161.756808,989.42 153.650808,997.79 141.437808,997.69 C128.174808,997.57 116.355808,994.76 109.012808,990.91 C105.840808,982.22 98.8028083,982.16 98.8028083,982.16 C98.8028083,982.16 88.8938083,1001.02 88.7288083,1019.97 C88.5628083,1038.91 88.579317,1070.38 88.579317,1070.38 L276.135808,1072.02 Z" id="Path" fill="#504D5A" fill-rule="nonzero" transform="translate(182.361904, 1027.090000) scale(-1, 1) translate(-182.361904, -1027.090000) "></path>
                    <path d="M148.400625,1008.20018 C147.827982,1010.27603 149.790994,1012.15698 151.840514,1011.49628 L165.08516,1007.22662 L165.08516,1019.21 C165.08516,1021.26131 167.277946,1022.56717 169.081523,1021.58994 L178.07816,1016.71529 L178.07816,1025.71 C178.07816,1027.20495 179.290054,1028.41684 180.785,1028.41684 C182.279946,1028.41684 183.49184,1027.20495 183.49184,1025.71 L183.49184,1012.17 C183.49184,1010.11869 181.299054,1008.81283 179.495477,1009.79006 L170.49884,1014.66471 L170.49884,1003.51 C170.49884,1001.67368 168.709231,1000.3703 166.961486,1000.93372 L154.953154,1004.80483 L157.950375,993.939822 C158.557265,991.73983 156.336518,989.822323 154.248493,990.743427 L139.711027,997.156435 C139.789735,995.361526 139.946462,993.913321 140.237897,992.330006 C140.546735,990.652143 140.986621,989.148976 141.573248,987.830011 C142.180768,986.464074 141.565949,984.864271 140.200011,984.256752 C138.834074,983.649232 137.234271,984.264051 136.626752,985.629989 C135.853683,987.368144 135.295483,989.275611 134.913659,991.349994 C134.350928,994.407211 134.22716,996.911718 134.22716,1001.34 C134.22716,1003.2956 136.237269,1004.60587 138.026507,1003.81657 L151.214793,997.998738 L148.400625,1008.20018 Z" id="Path" fill="#FFFFFF" fill-rule="nonzero" transform="translate(158.859500, 1006.219662) scale(-1, 1) translate(-158.859500, -1006.219662) "></path>
                    <path d="M243.418481,992.14 C247.270481,997.37 261.162481,1000.5 266.389481,1001.27 C271.616481,1002.04 277.216481,1001.36 274.975481,1010.01 C273.390481,1016.12 258.160481,1013.65 252.205481,1013.6 C247.363481,1013.55 240.573481,1028.19 238.045481,1023.22 C238.045481,1006.22 241.252481,997.01 243.418481,992.14 Z" id="Path" fill="#29282D" fill-rule="nonzero" transform="translate(256.764240, 1008.194809) scale(-1, 1) translate(-256.764240, -1008.194809) "></path>
                    <path d="M102.578736,1027.49 C96.4577361,1025.27 89.9757361,1023.59 77.5477361,1020.77 L82.8297361,1035.98 L82.6777361,1053.3 L118.050736,1053.61004 C119.493736,1053.62 122.073736,1051.7 120.842736,1043.89 C119.303736,1034.13 111.275736,1030.64 102.578736,1027.49 Z" id="Path" fill="#29282D" fill-rule="nonzero" transform="translate(99.356868, 1037.190019) scale(-1, 1) translate(-99.356868, -1037.190019) "></path>
                    <polygon id="Path" fill="#FFFFFF" fill-rule="nonzero" transform="translate(155.221500, 1044.105000) scale(-1, 1) translate(-155.221500, -1044.105000) " points="155.790642 1024.37581 139.311642 1055.78581 154.652358 1063.83419 171.131358 1032.42419"></polygon>
                    <polygon id="Path" fill="#FFFFFF" fill-rule="nonzero" transform="translate(179.557500, 1035.370000) scale(-1, 1) translate(-179.557500, -1035.370000) " points="181.756214 1012.48426 162.009214 1050.22426 177.358786 1058.25574 197.105786 1020.51574"></polygon>
                    <polygon id="Path" fill="#FFFFFF" fill-rule="nonzero" transform="translate(205.570000, 1029.965000) scale(-1, 1) translate(-205.570000, -1029.965000) " points="211.516084 999.414325 184.212084 1052.60433 199.623916 1060.51567 226.927916 1007.32567"></polygon>
                    <path d="M76.3297644,1067.41 L77.3637644,1049.19 L237.187764,1051.67 L277.037764,1048.77 L278.255764,1062.73 C278.676764,1067.56 275.053764,1071.79 270.218764,1072.12 L236.989764,1074.4 L80.5867644,1071.99 C78.1257644,1071.95 76.1907644,1069.87 76.3297644,1067.41 Z" id="Path" fill="#DDDDDD" fill-rule="nonzero" transform="translate(177.305882, 1061.585000) scale(-1, 1) translate(-177.305882, -1061.585000) "></path>
                    <path d="M435.892046,286.497 C435.892046,254.088 443.525046,179.331 401.467046,132.423 C401.467046,132.423 250.204046,123.155 218.506046,151.918 C186.808046,180.681 172.325046,236.178 164.848046,341.934 C157.370046,447.69 127.076046,748.97 119.287046,796.59 C151.999046,801.39 365.287046,824.5 472.287046,796.59 C472.287046,728.36 450.124046,512.712 447.787046,412.5 C446.209046,344.807 435.892046,318.907 435.892046,286.497 Z" id="Path" fill="#27292B" fill-rule="nonzero"></path>
                    <polygon id="Path" fill="#404B62" fill-rule="nonzero" points="146.630046 611.728 272.463046 622.391 272.463046 975.36 181.315046 975.36"></polygon>
                    <ellipse id="Oval" fill="#404B62" fill-rule="nonzero" cx="285.129046" cy="586.911" rx="121.116" ry="57.3706"></ellipse>
                    <polygon id="Path" fill="#404B62" fill-rule="nonzero" points="300.185046 622.391 429.217046 622.391 429.217046 975.36 335.752046 975.36"></polygon>
                    <rect id="Rectangle" fill="#36383A" fill-rule="nonzero" transform="translate(149.129116, 324.521017) rotate(17.962000) translate(-149.129116, -324.521017) " x="51.4111159" y="143.302517" width="195.436" height="362.437" rx="97.7179"></rect>
                    <path d="M140.032046,268.21 C144.597046,212.261 191.336046,169.182 247.470046,169.182 L332.030046,169.182 C391.906046,169.182 440.309046,217.979 439.821046,277.853 L438.787046,405 L440.706046,602.13 L148.113046,602.13 L129.570046,420.005 C128.859046,413.027 128.789046,405.998 129.359046,399.007 L140.032046,268.21 Z" id="Path" fill="#2D2928" fill-rule="nonzero"></path>
                    <path d="M455.712046,159.896 C424.368046,129.583 373.964046,131.937 345.582046,165.04 C317.590046,197.69 322.375046,247.07 356.116046,273.736 L541.961046,420.619 C569.527046,442.406 609.512046,437.844 631.461046,410.407 C652.052046,384.668 649.681046,347.489 625.988046,324.575 L455.712046,159.896 Z" id="Path" fill="#36383A" fill-rule="nonzero"></path>
                    <polygon id="Path" fill="#343D51" fill-rule="nonzero" points="173.289046 951 273.289046 951 273.289046 979 177.789046 979"></polygon>
                    <polygon id="Path" fill="#343D51" fill-rule="nonzero" points="434.289046 952.42 324.289046 951 329.629046 979 431.244046 979"></polygon>
                    <path d="M248.916046,286.539 C248.916046,254.121 252.400046,179.344 233.205046,132.424 C233.205046,132.424 164.172046,123.153 149.705046,151.924 C135.239046,180.694 128.629046,236.206 125.217046,341.991 C121.804046,447.775 107.978046,749.14 104.424046,796.77 C119.353046,801.57 207.329046,817.56 256.382046,800.5 C256.382046,732.25 257.447046,512.611 256.381046,412.372 C255.661046,344.661 248.916046,318.957 248.916046,286.539 Z" id="Path" fill="#36383A" fill-rule="nonzero"></path>
                    <path d="M186.084046,219.301 C213.810046,199.04 207.411046,127.06 225.540046,127.06 C282.591046,177.179 273.793046,263.023 254.332046,384.589 C224.473046,236.363 207.678046,250.226 186.084046,219.301 Z" id="Path" fill="#5A5E65" fill-rule="nonzero"></path>
                    <path d="M322.207046,284.158 C322.207046,251.74 324.467046,175.92 343.661046,129 L391.007046,129 C409.372046,129 425.701046,138.867 429.468046,156.841 C437.322046,194.313 443.393046,261.686 445.907046,339.609 C449.319046,445.394 469.232046,746.71 472.787046,794.34 C445.061046,798.61 342.342046,811.4 293.288046,794.34 C293.288046,726.09 313.676046,510.229 314.742046,409.99 C315.463046,342.279 322.207046,316.575 322.207046,284.158 Z" id="Path" fill="#36383A" fill-rule="nonzero"></path>
                    <path d="M384.869046,214.503 C357.143046,194.241 363.542046,122.261 345.413046,122.261 C288.362046,172.381 297.160046,258.224 316.621046,379.791 C346.480046,231.565 363.275046,245.427 384.869046,214.503 Z" id="Path" fill="#5A5E65" fill-rule="nonzero"></path>
                    <g id="Group" transform="translate(177.289046, 1025.000000) scale(-1, 1) translate(-177.289046, -1025.000000) translate(76.289046, 975.000000)"></g>
                    <g id="Group-3" transform="translate(22.680531, 0.307000)" fill-rule="nonzero">
                        <path d="M232.837515,296.093 C274.101515,282.997 311.277515,308.731 338.160515,330.097 C363.298515,355.581 398.100515,391.482 397.566515,447.124 C397.031515,502.765 328.195515,523.594 303.898515,543.647 C279.600515,563.7 267.057515,627.605 232.622515,653.801 C198.187515,679.998 131.597515,704.693 63.5477154,641.812 C-4.50218456,578.929 -12.9190346,524.348 14.8751154,463.999 C42.6692154,403.65 125.414515,388.966 153.953515,372.656 C182.493515,356.347 191.573515,309.189 232.837515,296.093 Z" id="Path" fill="#D0B98E"></path>
                        <path d="M158.513515,442.681 C158.141515,398.373 198.363515,374.772 232.120515,374.83587 C265.877515,374.9 296.954515,407.305 300.100515,445.722 C303.246515,484.139 272.272515,508.6 229.167515,512.302 C186.063515,516.005 158.885515,486.99 158.513515,442.681 Z" id="Path" fill="#AB9265"></path>
                        <path d="M175.984515,443.136 C175.703515,409.623 206.094515,391.771 231.599515,391.818903 C257.104515,391.866 280.583515,416.376 282.959515,445.434 C285.336515,474.492 261.933515,492.993 229.365515,495.795 C196.798515,498.596 176.264515,476.65 175.984515,443.136 Z" id="Path" fill="#342B29"></path>
                        <path d="M109.652515,468.121 C119.779515,462.337 138.739515,487.75 159.740515,511.207 C183.261515,533.717 208.751515,557.77 201.146515,562.608 C193.540515,567.445 176.313515,554.573 168.922515,549.413 C161.531515,544.253 144.110515,540.378 130.924515,525.591 C117.739515,510.805 117.060515,495.787 114.700515,489.234 C112.340515,482.682 99.5265154,473.905 109.652515,468.121 Z" id="Path" fill="#967551"></path>
                        <polygon id="Path" fill="#967551" points="269.608515 366.529332 574.613056 86.693 608.608515 122.329526 312.004212 415.693"></polygon>
                        <path d="M583.139515,67.293 C581.351515,76.056 574.690515,88.116 571.584515,93.05 L603.368515,126.741 C605.254515,124.281 612.237515,118.929 625.077515,117.205 C641.127515,115.049 652.458515,99.789 663.320515,83.018 C674.183515,66.247 726.057515,49.357 694.741515,17.177 C663.425515,-15.002 653.122515,22.285 626.838515,35.223 C600.554515,48.162 585.375515,56.338 583.139515,67.293 Z" id="Path" fill="#D0B98E"></path>
                        <path d="M631.884515,9.826 C631.459515,6.316 634.566515,1.382 640.097515,4.8316906e-13 C648.095515,0.172 704.729515,64.403 705.622515,69.423 C706.514515,74.443 700.397515,79.813 694.931515,78.196 C689.464515,76.578 632.308515,13.336 631.884515,9.826 Z" id="Path" fill="#967551"></path>
                        <path d="M612.589515,25.915 C612.164515,22.405 615.271515,17.471 620.802515,16.09 C628.800515,16.261 685.434515,80.492 686.327515,85.513 C687.219515,90.533 681.102515,95.903 675.636515,94.285 C670.169515,92.667 613.014515,29.425 612.589515,25.915 Z" id="Path" fill="#967551"></path>
                        <path d="M588.202515,43.752 C587.761515,40.117 590.985515,35.007 596.724515,33.577 C605.024515,33.755 663.798515,100.274 664.724515,105.473 C665.650515,110.672 659.303515,116.233 653.630515,114.557 C647.957515,112.881 588.643515,47.387 588.202515,43.752 Z" id="Path" fill="#967551"></path>
                        <path d="M600.392515,63.948 C598.981515,70.887 593.726515,80.436 591.275515,84.343 L616.345515,111.016 C617.833515,109.068 623.342515,104.83 633.470515,103.464 C646.131515,101.756 651.445515,87.224 660.014515,73.945 C662.503515,70.089 668.162515,61.262 670.909515,55.675 C677.622515,42.021 684.396515,32.41 681.954515,30.406 C679.376515,28.289 675.595515,24.314 670.075515,24.65 C660.352515,34.943 647.827515,32.148 634.864515,38.554 C614.130515,48.8 602.156515,55.274 600.392515,63.948 Z" id="Path" fill="#E8D6B3"></path>
                        <polygon id="Path" fill="#000000" points="610.308192 57.3049027 139.666192 501.300903 141.724839 503.483097 612.366839 59.4870973"></polygon>
                        <polygon id="Path" fill="#000000" points="640.637191 42.4500813 144.528191 507.904081 146.58084 510.091919 642.68984 44.6379187"></polygon>
                        <polygon id="Path" fill="#000000" points="665.36744 31.9787863 148.92944 517.172786 150.983591 519.359214 667.421591 34.1652137"></polygon>
                        <polygon id="Path" fill="#000000" points="670.215375 39.0848476 155.581375 522.641881 157.635656 524.828186 672.269656 41.2711524"></polygon>
                        <polygon id="Path" fill="#000000" points="640.190355 89.451807 167.526355 534.404807 169.582676 536.589193 642.246676 91.636193"></polygon>
                        <polygon id="Path" fill="#000000" points="657.74332 60.8237818 161.07032 529.266782 163.128711 531.449218 659.801711 63.0062182"></polygon>
                        <polygon id="Path" fill="#292D34" points="180.608515 541.051718 131.261026 492.693 127.608515 496.391362 173.987673 544.693"></polygon>
                        <circle id="Oval" fill="#231B12" transform="translate(659.481515, 28.923000) rotate(1.230420) translate(-659.481515, -28.923000) " cx="659.481515" cy="28.923" r="10"></circle>
                        <circle id="Oval" fill="#231B12" transform="translate(676.091515, 47.284000) rotate(1.230420) translate(-676.091515, -47.284000) " cx="676.091515" cy="47.284" r="10"></circle>
                        <circle id="Oval" fill="#231B12" transform="translate(636.207515, 41.426000) rotate(1.230420) translate(-636.207515, -41.426000) " cx="636.207515" cy="41.426" r="10"></circle>
                        <circle id="Oval" fill="#231B12" transform="translate(662.599515, 69.999000) rotate(1.230420) translate(-662.599515, -69.999000) " cx="662.599515" cy="69.999" r="10"></circle>
                        <circle id="Oval" fill="#231B12" transform="translate(609.869515, 56.864000) rotate(1.230420) translate(-609.869515, -56.864000) " cx="609.869515" cy="56.864" r="10"></circle>
                        <circle id="Oval" fill="#231B12" transform="translate(645.088515, 93.629000) rotate(1.230420) translate(-645.088515, -93.629000) " cx="645.088515" cy="93.629" r="10"></circle>
                    </g>
                    <g id="Group-2" transform="translate(12.882775, 178.781374)" fill-rule="nonzero">
                        <path d="M617.234081,174.332384 L546.323081,21.614384 C537.717247,3.08036485 515.716048,-4.96801901 497.182029,3.63781546 C478.64801,12.2436499 470.599626,34.2448483 479.205461,52.7788674 L550.116461,205.496867 C558.722295,224.030886 580.723494,232.07927 599.257513,223.473436 C617.791532,214.867601 625.839916,192.866403 617.234081,174.332384 Z" id="Path" fill="#F4D4C9"></path>
                        <path d="M242.654339,265.697171 L81.3590389,213.717171 C61.9095282,207.449254 41.0614338,218.135047 34.7935167,237.584558 C28.5255996,257.034069 39.2113926,277.882163 58.6609033,284.15008 L219.956203,336.13008 C239.405714,342.397997 260.253808,331.712204 266.521725,312.262693 C272.789643,292.813183 262.10385,271.965088 242.654339,265.697171 Z" id="Path" fill="#F4D4C9"></path>
                        <rect id="Rectangle" fill="#424648" transform="translate(122.401195, 269.952222) rotate(-71.692400) translate(-122.401195, -269.952222) " x="67.4766945" y="159.640222" width="109.849" height="220.624" rx="54.9245"></rect>
                        <rect id="Rectangle" fill="#424648" transform="translate(557.789351, 138.312000) rotate(-24.525100) translate(-557.789351, -138.312000) " x="503.904351" y="28" width="107.77" height="220.624" rx="53.885"></rect>
                    </g>
                </g>
                <g id="haed" transform="translate(93.000200, 0.000000)">
                    <path d="M338.2678,350.121379 C370.9998,350.121379 397.5348,323.587379 397.5348,290.855379 C397.5348,258.123379 370.9998,231.588379 338.2678,231.588379 C305.5358,231.588379 279.0018,258.123379 279.0018,290.855379 C279.0018,323.587379 305.5358,350.121379 338.2678,350.121379 Z" id="Path" fill="#EBBAAA" fill-rule="nonzero"></path>
                    <path d="M59.2668,353.121379 C26.5348,353.121379 -1.42108547e-14,326.587379 -1.42108547e-14,293.855379 C-1.42108547e-14,261.123379 26.5348,234.588379 59.2668,234.588379 C91.9988,234.588379 118.5328,261.123379 118.5328,293.855379 C118.5328,326.587379 91.9988,353.121379 59.2668,353.121379 Z" id="Path" fill="#EBBAAA" fill-rule="nonzero"></path>
                    <path d="M41.0018,181.088379 C41.0018,96.3126791 109.7258,27.5883791 194.5018,27.5883791 C279.2778,27.5883791 348.0018,96.3126791 348.0018,181.088379 L348.0018,253.588379 L337.8498,344.952379 C331.5628,401.537379 292.1898,449.106379 237.8408,466.065379 C209.7088,474.843379 179.4468,474.707379 151.4138,465.618379 C99.4858,448.782379 61.7548,403.740379 54.2808,349.665379 L41.0018,253.588379 L41.0018,181.088379 Z" id="Path" fill="#F4D4C9" fill-rule="nonzero"></path>
                    <path d="M147.5018,132.088379 C200.5018,100.588379 254.5018,122.088379 270.5018,124.588379 C311.0018,179.588379 316.0018,148.588379 318.0018,164.588379 C320.0018,180.588379 334.5018,189.088379 339.5018,197.588379 C344.5018,206.088379 337.5018,264.588379 344.5018,264.588379 C351.5018,264.588379 349.5018,234.088379 352.0018,233.588379 C354.0018,233.188379 359.8348,235.421379 362.5018,236.588379 C367.0018,215.921379 376.5018,169.388379 378.5018,148.588379 C381.0018,122.588379 366.5018,105.088379 362.5018,98.5884791 C358.5018,92.0883791 349.0018,73.0883791 333.0018,53.5883791 C320.2018,37.9883791 294.0018,30.0883791 282.5018,36.5883791 C275.0018,26.5883791 269.2018,1.68841913 212.0018,0.088414133 C140.5018,-1.91158087 55.5008,30.0882791 33.0008,89.0883791 C24.5368,111.283379 29.0018,115.588379 17.5008,138.088379 C5.9995,160.588379 20.5008,245.588379 26.5008,244.588379 C32.5008,243.588379 38.0018,237.588379 38.0018,239.588379 C38.0018,244.088379 37.5018,261.088379 42.0018,261.088379 C46.5018,261.088379 44.0018,251.588379 45.0018,244.588379 C46.0018,237.588379 46.5018,208.588379 64.0018,197.588379 C81.5018,186.588379 101.0018,138.088379 110.5018,138.088379 C120.0018,138.088379 105.5018,158.588379 119.0018,158.588379 C132.5018,158.588379 123.9398,146.092379 147.5018,132.088379 Z" id="Path" fill="#613F2B" fill-rule="nonzero"></path>
                    <path d="M163.262519,392.319084 C182.851363,403.201775 205.971447,402.919823 230.91714,392.714767 C234.852936,391.104669 236.738286,386.608834 235.128188,382.673039 C233.51809,378.737244 229.022255,376.851893 225.08646,378.461992 C204.157851,387.023695 185.841974,387.247059 170.741081,378.857674 C167.023815,376.792526 162.336243,378.131833 160.271095,381.849099 C158.205947,385.566364 159.545254,390.253937 163.262519,392.319084 Z" id="Path" fill="#C99584" fill-rule="nonzero"></path>
                    <path d="M257.5018,285.588379 L281.5018,285.588379 C289.233786,285.588379 295.5018,279.320366 295.5018,271.588379 C295.5018,263.856393 289.233786,257.588379 281.5018,257.588379 L257.5018,257.588379 C249.769814,257.588379 243.5018,263.856393 243.5018,271.588379 C243.5018,279.320366 249.769814,285.588379 257.5018,285.588379 Z" id="Path" fill="#000000" fill-rule="nonzero"></path>
                    <path d="M119.9998,285.588379 L145.9998,285.588379 C153.731786,285.588379 159.9998,279.320366 159.9998,271.588379 C159.9998,263.856393 153.731786,257.588379 145.9998,257.588379 L119.9998,257.588379 C112.267814,257.588379 105.9998,263.856393 105.9998,271.588379 C105.9998,279.320366 112.267814,285.588379 119.9998,285.588379 Z" id="Path" fill="#000000" fill-rule="nonzero"></path>
                    <path d="M185.719869,298.397317 C179.64804,309.110772 176.108784,320.819153 176.565105,330.372666 C177.191882,343.494871 185.429363,352.317379 199.2988,352.317379 L199.2988,335.317379 C194.965784,335.317379 193.75893,334.024814 193.545745,329.561592 C193.262396,323.6294 195.893992,314.923694 200.509731,306.779441 L185.719869,298.397317 Z" id="Path" fill="#EBBAAA" fill-rule="nonzero"></path>
                    <path d="M212.5148,261.526379 C209.3978,249.879379 217.7778,238.312379 229.8158,237.644379 L313.0348,233.025379 C325.0728,232.357379 334.6808,242.925379 332.8728,254.845379 L327.6608,289.204379 C326.3118,298.098379 318.9108,304.827379 309.9288,305.326379 L240.9048,309.157379 C231.9228,309.655379 223.8218,303.787379 221.4968,295.097379 L212.5148,261.526379 Z" id="Path" fill-opacity="0.48" fill="#FFFFFF" fill-rule="nonzero"></path>
                    <path d="M211.3318,272.557379 C211.6488,274.183379 213.2248,275.244379 214.8508,274.927379 C216.4768,274.610379 217.5378,273.034379 217.2208,271.408379 L211.3318,272.557379 Z M211.8068,259.326379 L214.7508,258.751379 L214.7298,258.644379 L214.7008,258.539379 L211.8068,259.326379 Z M227.9538,238.552379 L227.8928,235.553379 L227.7568,235.556379 L227.6208,235.571379 L227.9538,238.552379 Z M314.6578,236.771379 L314.9688,233.787379 L314.7828,233.768379 L314.5968,233.772379 L314.6578,236.771379 Z M332.1408,254.091379 L335.1188,254.455379 L335.1218,254.428379 L335.1248,254.402379 L332.1408,254.091379 Z M327.2718,269.237379 C327.0708,270.881379 328.2418,272.377379 329.8868,272.578379 C331.5308,272.778379 333.0268,271.608379 333.2278,269.963379 L327.2718,269.237379 Z M217.2208,271.408379 L214.7508,258.751379 L208.8618,259.901379 L211.3318,272.557379 L217.2208,271.408379 Z M214.7008,258.539379 C214.3508,257.249379 214.1618,252.559379 218.2048,247.963379 L213.6998,244.000379 C208.2408,250.207379 208.0668,257.008379 208.9118,260.113379 L214.7008,258.539379 Z M218.2048,247.963379 C222.4958,243.084379 227.0558,241.671379 228.2868,241.534379 L227.6208,235.571379 C224.8098,235.885379 218.9108,238.075379 213.6998,244.000379 L218.2048,247.963379 Z M228.0158,241.552379 L314.7198,239.770379 L314.5968,233.772379 L227.8928,235.553379 L228.0158,241.552379 Z M314.3468,239.755379 C315.5288,239.878379 317.6738,240.333379 319.9148,241.299379 C322.1648,242.270379 324.2738,243.653379 325.6698,245.492379 L330.4488,241.864379 C328.2108,238.916379 325.0958,237.000379 322.2918,235.790379 C319.4778,234.577379 316.7398,233.972379 314.9688,233.787379 L314.3468,239.755379 Z M325.6698,245.492379 C328.9478,249.810379 329.2158,253.218379 329.1568,253.781379 L335.1248,254.402379 C335.3738,252.012379 334.4398,247.121379 330.4488,241.864379 L325.6698,245.492379 Z M329.1628,253.728379 L327.2718,269.237379 L333.2278,269.963379 L335.1188,254.455379 L329.1628,253.728379 Z" id="Shape" fill="#000000" fill-rule="nonzero"></path>
                    <path d="M64.3438,256.832379 C62.7518,245.083379 72.1918,234.762379 84.0358,235.301379 L166.6458,239.062379 C178.9048,239.620379 187.4268,251.479379 184.0468,263.275379 L174.6698,296.006379 C172.1918,304.654379 163.9898,310.379379 155.0178,309.723379 L86.0448,304.677379 C77.0848,304.021379 69.8088,297.180379 68.6028,288.278379 L64.3438,256.832379 Z" id="Path" fill-opacity="0.48" fill="#FFFFFF" fill-rule="nonzero"></path>
                    <path d="M62.7198,270.520379 C62.9838,272.156379 64.5238,273.268379 66.1598,273.003379 C67.7958,272.739379 68.9068,271.199379 68.6428,269.563379 L62.7198,270.520379 Z M63.6238,257.312379 L66.5848,256.833379 L66.5678,256.725379 L66.5428,256.619379 L63.6238,257.312379 Z M80.4378,237.073379 L80.4728,234.074379 L80.3368,234.072379 L80.2018,234.083379 L80.4378,237.073379 Z M167.1538,238.109379 L167.5608,235.137379 L167.3758,235.111379 L167.1888,235.109379 L167.1538,238.109379 Z M184.0648,255.988379 L187.0288,256.448379 L187.0328,256.422379 L187.0368,256.396379 L184.0648,255.988379 Z M178.7058,270.967379 C178.4518,272.605379 179.5738,274.138379 181.2108,274.392379 C182.8478,274.645379 184.3808,273.524379 184.6348,271.887379 L178.7058,270.967379 Z M68.6428,269.563379 L66.5848,256.833379 L60.6618,257.790379 L62.7198,270.520379 L68.6428,269.563379 Z M66.5428,256.619379 C66.2338,255.318379 66.1978,250.625379 70.3878,246.162379 L66.0138,242.055379 C60.3558,248.081379 59.9618,254.873379 60.7048,258.005379 L66.5428,256.619379 Z M70.3878,246.162379 C74.8348,241.426379 79.4388,240.161379 80.6728,240.064379 L80.2018,234.083379 C77.3818,234.305379 71.4138,236.303379 66.0138,242.055379 L70.3878,246.162379 Z M80.4018,240.073379 L167.1178,241.109379 L167.1888,235.109379 L80.4728,234.074379 L80.4018,240.073379 Z M166.7458,241.081379 C167.9228,241.243379 170.0518,241.767379 172.2608,242.806379 C174.4778,243.848379 176.5408,245.300379 177.8768,247.183379 L182.7708,243.712379 C180.6298,240.693379 177.5788,238.676379 174.8148,237.376379 C172.0428,236.072379 169.3248,235.379379 167.5608,235.137379 L166.7458,241.081379 Z M177.8768,247.183379 C181.0128,251.605379 181.1688,255.020379 181.0928,255.580379 L187.0368,256.396379 C187.3628,254.015379 186.5888,249.096379 182.7708,243.712379 L177.8768,247.183379 Z M181.0998,255.528379 L178.7058,270.967379 L184.6348,271.887379 L187.0288,256.448379 L181.0998,255.528379 Z" id="Shape" fill="#000000" fill-rule="nonzero"></path>
                    <path d="M183.3868,258.948811 C188.0728,257.500811 200.6568,255.403811 213.2408,258.948811" id="Path" stroke="#000000" stroke-width="10"></path>
                    <path d="M286.7048,200.684379 L225.8718,209.013379 C224.8208,209.156379 224.0658,210.095379 224.1488,211.152379 L224.9368,221.089379 C225.0238,222.180379 225.9698,222.999379 227.0618,222.927379 L287.1118,218.990379 C287.3058,218.977379 287.4998,218.993379 287.6878,219.036379 L309.5548,224.030379 C310.8068,224.316379 311.9998,223.364379 311.9998,222.080379 L311.9998,216.527379 C311.9998,215.825379 311.6328,215.175379 311.0318,214.813379 L288.0078,200.952379 C287.6168,200.716379 287.1568,200.622379 286.7048,200.684379 Z" id="Path" fill="#613F2B" fill-rule="nonzero"></path>
                    <path d="M104.2948,200.684379 L165.1278,209.013379 C166.1788,209.156379 166.9338,210.095379 166.8508,211.152379 L166.0628,221.089379 C165.9758,222.180379 165.0298,222.999379 163.9378,222.927379 L103.8878,218.990379 C103.6938,218.977379 103.4998,218.993379 103.3118,219.036379 L81.4448,224.030379 C80.1928,224.316379 78.9998,223.364379 78.9998,222.080379 L78.9998,216.527379 C78.9998,215.825379 79.3668,215.175379 79.9678,214.813379 L102.9918,200.952379 C103.3828,200.716379 103.8428,200.622379 104.2948,200.684379 Z" id="Path" fill="#613F2B" fill-rule="nonzero"></path>
                </g>
            </g>
        </g>
    </g>
</svg>