<?xml version="1.0" encoding="UTF-8"?>
<svg width="706px" height="1358px" viewBox="0 0 706 1358" version="1.1" xmlns="http://www.w3.org/2000/svg" xmlns:xlink="http://www.w3.org/1999/xlink">
    <!-- Generator: Sketch 55.2 (78181) - https://sketchapp.com -->
    <title>gee_me_035</title>
    <desc>Created with Sketch.</desc>
    <defs>
        <path d="M0.666,85.49 C0.666,38.79 38.521,0.94 85.218,0.94 L97.897,0.94 L122.205,0.94 L146.513,0.94 L170.821,0.94 L195.128,0.94 L195.128,80.19 C195.128,86.58 189.953,91.75 183.569,91.75 L6.929,91.75 C3.47,91.75 0.666,88.95 0.666,85.49 Z" id="path-1"></path>
        <path d="M195.129,84.99 C195.129,38.29 157.274,0.44 110.577,0.44 L97.898,0.44 L73.59,0.44 L49.282,0.44 L24.974,0.44 L0.666,0.44 L0.666,79.69 C0.666,86.08 5.842,91.25 12.226,91.25 L188.866,91.25 C192.325,91.25 195.129,88.45 195.129,84.99 Z" id="path-3"></path>
        <polygon id="path-5" points="188.486 3.594 99.57 256.614 0.635 10.181 23.643 5.155 100.03 188.457 166.999032 0.175931591"></polygon>
        <circle id="path-7" cx="42.799" cy="42.872" r="42.6389"></circle>
        <path d="M0.633,0.422 C0.573,1.442 0.543,2.473 0.543,3.503 L0.543,22.789 C0.543,51.862 25.253,75.422 55.723,75.422 C86.203,75.422 110.903,51.862 110.903,22.789 L110.903,3.503 C110.903,2.473 110.873,1.442 110.813,0.422 L0.633,0.422 Z" id="path-9"></path>
    </defs>
    <g id="GEE!-ME" stroke="none" stroke-width="1" fill="none" fill-rule="evenodd">
        <g id="gee_me_035" transform="translate(-250.000000, -121.000000)">
            <g transform="translate(245.000000, 121.000000)">
                <g id="lower-limb" transform="translate(209.000000, 813.980000)">
                    <path d="M203.338,158.013 C272.276,158.013 328.16,133.078 328.16,102.319 C328.16,71.56 272.276,46.625 203.338,46.625 C134.401,46.625 78.516,71.56 78.516,102.319 C78.516,133.078 134.401,158.013 203.338,158.013 Z" id="Path" fill="#363636" fill-rule="nonzero"></path>
                    <path d="M281.111826,245.27023 C297.022472,244.07546 310.909591,255.873791 312.356736,271.703901 L312.39677,272.184826 L327.82677,477.664826 C329.033608,493.736186 316.983533,507.742932 300.912174,508.94977 C285.001528,510.14454 271.114409,498.346209 269.667264,482.516099 L269.62723,482.035174 L254.19723,276.555174 C252.990392,260.483814 265.040467,246.477068 281.111826,245.27023 Z" id="Path" fill="#EBBAAA" fill-rule="nonzero"></path>
                    <path d="M152.689004,244.678289 C168.644178,244.771194 181.534452,257.651161 181.700096,273.546417 L181.701211,274.029004 L180.508211,480.019004 C180.414872,496.135342 167.274333,509.124549 151.157996,509.031711 C135.202822,508.938806 122.312548,496.058839 122.146904,480.163583 L122.145789,479.680996 L123.338789,273.690996 C123.432128,257.574658 136.572667,244.585451 152.689004,244.678289 Z" id="Path" fill="#EBBAAA" fill-rule="nonzero"></path>
                    <polygon id="Path" fill="#363636" fill-rule="nonzero" points="63.893 -1.13686838e-13 209.801 -1.13686838e-13 198.993 393.28 195.751 431.66 113.069 427.21 82.647 337.88"></polygon>
                    <polygon id="Path" fill="#363636" fill-rule="nonzero" points="208.412 6.699 370.351 6.699 354.947 356.35 337.336 423.87 252.493 431.1 247.63 399.4"></polygon>
                    <polygon id="Path" fill="#FFFFFF" opacity="0.2" points="77.148 145.906 105.748 65.791 122.538 72.027 93.938 145.906"></polygon>
                    <polygon id="Path" fill="#FFFFFF" opacity="0.2" points="360.168 145.906 331.569 65.791 314.779 72.027 343.378 145.906"></polygon>
                    <path d="M0.666,537.51 C0.666,490.81 38.521,452.96 85.218,452.96 L97.897,452.96 L108.758,452.96 C108.758,452.96 107.632,471.81 144.226,471.81 C180.819,471.81 185.886,452.96 185.886,452.96 L190.505,452.96 C193.058,452.96 195.128,455.03 195.128,457.58 L195.128,532.21 C195.128,538.6 189.953,543.77 183.569,543.77 L6.929,543.77 C3.47,543.77 0.666,540.97 0.666,537.51 Z" id="Path" fill="#3B3F45" fill-rule="nonzero"></path>
                    <g id="Clipped" transform="translate(0.000000, 452.020000)">
                        <mask id="mask-2" fill="white">
                            <use xlink:href="#path-1"></use>
                        </mask>
                        <g id="Path"></g>
                        <g id="Group" mask="url(#mask-2)" fill-rule="nonzero">
                            <g transform="translate(-27.000000, 25.000000)" id="Path">
                                <path d="M50.22,9.45 C35.64,1.2 41.358,17.54 28.257,24.47 L0.515,77.64 L221.297,77.64 C226.691,69.94 246.182,29.98 230.666,24.47 C202.166,14.36 151.941,49.32 131.135,48.17 C110.328,47.01 50.768,55.68 54.266,37.19 C58.311,15.8 63.513,16.96 50.22,9.45 Z" fill="#555D65"></path>
                                <path d="M133.554,20.34 C126.793,22.22 121.343,21.97 118.256,19.57 C110.303,13.32 115.395,3.79 117.555,0.06 C113.667,4.63 109.803,9.21 106.788,14.22 C102.034,22.03 100.017,30.6 103.224,36.1 C108.974,46.02 122.795,41.44 131.605,37.45 L213.354,0.43 L133.554,20.34 Z" fill="#7F8389"></path>
                            </g>
                        </g>
                    </g>
                    <path d="M79.976348,449.708561 C81.0862553,448.229538 83.1509005,447.889627 84.6707506,448.902626 L89.4845351,452.334368 C89.8231588,452.57809 90.1212839,452.794634 90.3515819,452.965283 L90.4814029,453.062015 C96.6933619,457.720565 100.088785,461.962671 100.088785,467.39 C100.088785,469.628371 98.0069025,471.263059 95.8555303,470.772418 L95.6761316,470.726579 L69.619,463.347 L78.1819703,477.118967 C79.8607485,479.819055 77.3288897,483.131239 74.3239576,482.29588 L74.1565539,482.245174 L48.818,473.937 L57.8455507,486.786551 C58.9085383,488.299648 58.5928898,490.368141 57.1593125,491.499939 L57.001449,491.617551 C55.4883522,492.680538 53.4198587,492.36489 52.2880611,490.931312 L52.1704493,490.773449 L37.1434493,469.383449 C35.2599811,466.702449 37.7977211,463.183662 40.8921312,464.04355 L41.0614461,464.094826 L67.257,472.683 L58.9990297,459.401033 C57.3570716,456.760165 59.7486905,453.493623 62.7200805,454.189755 L62.8888684,454.233421 L90.257,461.983 L90.206122,461.931166 C89.2598625,460.968017 88.0842043,459.954577 86.6769426,458.880453 L86.3203008,458.610651 C85.2288745,457.792155 81.3766734,455.095042 80.6685613,454.563652 C79.1367156,453.414105 78.8268011,451.240407 79.976348,449.708561 Z" id="Path" fill="#7F8389" fill-rule="nonzero"></path>
                    <path d="M76.393,420.582215 C72.0632561,420.582215 68.5378037,422.385406 66.1028511,425.711611 C63.7697951,428.884763 62.522215,433.351026 62.522215,438.49 C62.522215,443.232773 65.3438594,447.504802 70.15361,450.698826 C74.4193065,453.532252 79.8947964,455.237785 84.484,455.237785 C86.6728201,455.237785 88.2786216,454.846437 89.425438,454.060457 C90.4843531,453.357896 91.1866124,452.244558 91.5920359,450.700895 C91.8962674,449.539708 92.0369383,448.15732 92.0720268,446.263933 L92.0811177,445.080163 C92.0806084,444.627225 92.07611,444.164943 92.0664845,443.550135 L92.0039831,439.732614 L91.997785,438.49 C91.997785,428.218722 85.2794815,420.582215 76.393,420.582215 Z M76.393,427.517785 C81.2372718,427.517785 85.062215,431.865491 85.062215,438.49 L85.0686268,439.790497 L85.1432892,444.59751 C85.145605,444.879738 85.1460452,445.136221 85.1452316,445.399275 L85.1432031,445.728372 C85.1330472,446.799229 85.089086,447.610219 85.0155043,448.205188 L85.004,448.288 L84.8933606,448.294463 C84.7679487,448.299491 84.631577,448.302215 84.484,448.302215 C81.2819075,448.302215 77.1366437,447.011028 73.9907164,444.921391 C70.9586919,442.907907 69.457785,440.635502 69.457785,438.49 C69.457785,434.737768 70.3050994,431.704433 71.6948888,429.814195 C72.8329545,428.259582 74.2832558,427.517785 76.393,427.517785 Z" id="Path" fill="#7F8389" fill-rule="nonzero"></path>
                    <path d="M92.3580452,444.433404 L91.0939124,447.157017 C91.0218119,447.316077 90.9562297,447.462982 90.8834471,447.627579 C90.1926523,449.193844 89.7996846,450.324424 89.6394601,451.317816 C89.550165,451.86126 89.5375481,452.350165 89.5986348,452.808315 L89.6366386,453.040509 C89.6500686,453.104096 89.6717981,453.185779 89.7297435,453.4036 L89.7733356,453.526388 C89.8535737,453.750842 89.8971992,453.858389 89.9953606,454.025768 L90.049,454.115 L90.0437553,454.118591 C90.5820285,455.054718 91.5878393,455.828418 93.1041622,456.506033 C96.2302228,457.897731 100.457328,458.409479 104.197429,457.791377 C108.416934,457.099872 111.60066,455.089983 113.012547,451.921446 C114.546414,448.477832 115.032974,445.10703 114.396674,442.270865 C113.734955,439.306223 111.883769,437.033554 108.947061,435.723173 C103.017878,433.081309 96.2886759,436.024851 93.1511224,442.69273 L92.3580452,444.433404 Z M97.149,450.608 L97.307732,450.249628 L99.1213341,446.322318 L99.3413031,445.831993 C100.91998,442.290794 103.770237,441.009426 106.122624,442.057578 C107.050457,442.471585 107.442735,442.953177 107.628499,443.785436 C107.912755,445.052456 107.640956,446.93544 106.67725,449.099009 C106.33073,449.876665 105.181838,450.601962 103.071168,450.947866 L102.70472,451.002362 C100.858122,451.247201 98.8094482,451.079881 97.149,450.608 Z" id="Path" fill="#7F8389" fill-rule="nonzero"></path>
                    <path d="M442.129,537.01 C442.129,490.31 404.274,452.46 357.577,452.46 L344.898,452.46 L334.037,452.46 C334.037,452.46 335.163,471.31 298.569,471.31 C261.976,471.31 256.909,452.46 256.909,452.46 L252.29,452.46 C249.737,452.46 247.666,454.53 247.666,457.08 L247.666,531.71 C247.666,538.1 252.842,543.27 259.226,543.27 L435.866,543.27 C439.325,543.27 442.129,540.47 442.129,537.01 Z" id="Path" fill="#3B3F45" fill-rule="nonzero"></path>
                    <g id="Clipped" transform="translate(247.000000, 452.020000)">
                        <mask id="mask-4" fill="white">
                            <use xlink:href="#path-3"></use>
                        </mask>
                        <g id="Path"></g>
                        <g id="Group" mask="url(#mask-4)" fill-rule="nonzero">
                            <g transform="translate(-14.000000, 25.000000)" id="Path">
                                <path d="M186.575,8.95 C201.155,0.7 195.437,17.04 208.537,23.97 L236.28,77.14 L15.498,77.14 C10.104,69.44 -9.388,29.48 6.129,23.97 C34.629,13.86 84.854,48.82 105.66,47.67 C126.467,46.51 186.027,55.18 182.529,36.69 C178.484,15.3 173.282,16.46 186.575,8.95 Z" fill="#555D65"></path>
                                <path d="M101.466,20.34 C108.227,22.22 113.676,21.97 116.764,19.57 C124.717,13.32 119.625,3.79 117.465,0.06 C121.353,4.63 125.216,9.21 128.232,14.22 C132.986,22.03 135.003,30.6 131.796,36.1 C126.045,46.02 112.224,41.44 103.415,37.45 L21.666,0.43 L101.466,20.34 Z" fill="#7F8389"></path>
                            </g>
                        </g>
                    </g>
                    <path d="M357.963561,448.516348 C359.495407,447.366801 361.669105,447.676716 362.818652,449.208561 C363.968199,450.740407 363.658284,452.914105 362.126439,454.063652 L361.647682,454.412195 C360.427108,455.289177 357.654259,457.237627 356.601933,458.015951 L356.474699,458.110651 C355.064969,459.167854 353.875581,460.166545 352.904492,461.116359 L352.537,461.483 L379.906132,453.733421 C382.89817,452.886122 385.375604,456.088067 383.884627,458.750913 L383.79597,458.901033 L375.537,472.183 L401.733554,463.594826 C404.846929,462.57399 407.473898,466.026673 405.749924,468.736413 L405.651551,468.883449 L390.624551,490.273449 C389.523599,491.840585 387.360687,492.218502 385.793551,491.117551 C384.280454,490.054563 383.875975,488.001591 384.840821,486.450726 L384.949449,486.286551 L393.976,473.437 L368.638446,481.745174 C365.617274,482.735778 362.999962,479.490698 364.524072,476.769571 L364.61303,476.618967 L373.175,462.847 L347.118868,470.226579 C344.965188,470.836468 342.825098,469.278759 342.710991,467.075101 L342.706215,466.89 C342.706215,461.575741 345.961636,457.397834 351.929022,452.852647 L352.589517,452.357536 C354.024998,451.30329 357.416132,448.927157 357.963561,448.516348 Z" id="Path" fill="#7F8389" fill-rule="nonzero"></path>
                    <path d="M366.402,420.082215 C357.61885,420.082215 350.953748,427.542161 350.799933,437.632776 L350.792141,439.120857 C350.785856,439.811527 350.773391,440.569931 350.752849,441.643672 L350.752215,441.75 L350.71774,443.880176 C350.714785,444.187982 350.713833,444.467145 350.713833,444.75018 L350.722973,445.76418 C350.758054,447.657289 350.898667,449.039458 351.202439,450.198895 C351.608388,451.744558 352.310647,452.857896 353.411955,453.589055 C354.516378,454.346437 356.12218,454.737785 358.311,454.737785 C362.900204,454.737785 368.375693,453.032252 372.641716,450.198609 C377.451141,447.004802 380.272785,442.732773 380.272785,437.99 C380.272785,432.851026 379.025205,428.384763 376.687889,425.205805 C374.257196,421.885406 370.731744,420.082215 366.402,420.082215 Z M366.402,427.017785 C368.511744,427.017785 369.962045,427.759582 371.095851,429.308389 C372.489901,431.204433 373.337215,434.237768 373.337215,437.99 C373.337215,440.135502 371.836308,442.407907 368.80461,444.421174 C365.658356,446.511028 361.513092,447.802215 358.311,447.802215 L357.901639,447.794463 L357.79,447.788 L357.779325,447.704549 C357.705899,447.110194 357.661952,446.299326 357.651798,445.228679 L357.652868,443.964235 C357.657909,443.425224 357.668741,442.778646 357.687151,441.816328 L357.687785,441.71 L357.720589,439.793263 C357.729051,439.15443 357.732785,438.599963 357.732785,437.99 C357.732785,431.365491 361.557728,427.017785 366.402,427.017785 Z" id="Path" fill="#7F8389" fill-rule="nonzero"></path>
                    <path d="M333.849624,435.222422 C330.911231,436.533554 329.060045,438.806223 328.397499,441.774564 C327.762026,444.60703 328.248586,447.977832 329.78225,451.420991 C331.19434,454.589983 334.378066,456.599872 338.602168,457.292134 C342.337672,457.909479 346.564777,457.397731 349.686376,456.008023 L349.983681,455.870828 C350.661436,455.547682 351.22773,455.203053 351.687383,454.829995 L351.837,454.702 L351.858633,454.687134 C351.907675,454.649532 351.949361,454.60864 351.992245,454.561121 L352.055369,454.503106 C352.340447,454.224628 352.57182,453.930633 352.751245,453.618591 L352.736,453.609 L352.815888,453.506818 L353.076184,452.834311 C353.161732,452.602087 353.166605,452.552455 353.179602,452.4201 L353.203423,452.251849 C353.254339,451.815426 353.243095,451.350668 353.153914,450.807828 C353.006644,449.894667 352.65729,448.854605 352.056117,447.459072 L351.642262,446.527486 C351.48239,446.17696 351.282194,445.747257 350.919405,444.971291 L350.869681,444.869159 L349.937898,442.84308 L349.788303,442.508007 C346.716807,435.6182 339.869766,432.54003 333.849624,435.222422 Z M343.453697,445.331993 L343.950909,446.431662 C344.106101,446.768762 344.307563,447.202543 344.623468,447.882003 L344.676319,447.990841 L345.43118,449.624434 L345.645,450.108 C343.875522,450.611225 341.662884,450.768317 339.728429,450.448623 C337.613162,450.101962 336.46427,449.376665 336.117547,448.598554 C335.154044,446.43544 334.882245,444.552456 335.165674,443.289135 C335.352265,442.453177 335.744543,441.971585 336.674061,441.556827 C339.024763,440.509426 341.87502,441.790794 343.453697,445.331993 Z M349.745,448.422215 L347.672,449.621 L347.405708,449.330978 L347.53632,449.179943 C347.766312,448.940154 348.030137,448.871095 349.745,448.422215 Z" id="Path" fill="#7F8389" fill-rule="nonzero"></path>
                </g>
                <g id="upper-limb" transform="translate(0.036200, 331.480448)">
                    <path d="M598.986637,234.374769 C614.000378,224.537935 634.14575,228.734647 643.982584,243.748389 C664.303841,274.764273 676.505074,323.294588 681.386308,380.544168 C685.596586,429.924423 683.690945,481.662115 676.424397,516.48194 C672.757564,534.052656 655.541129,545.323981 637.970413,541.657149 C620.575404,538.026985 609.354428,521.116855 612.689672,503.730167 L612.795204,503.203165 C618.652536,475.13602 620.330759,429.572676 616.621292,386.066187 C612.617271,339.105002 602.896732,300.131276 590.004654,279.975719 L589.613017,279.370716 C579.776183,264.356975 583.972895,244.211603 598.986637,234.374769 Z" id="Path" fill="#EBBAAA" fill-rule="nonzero"></path>
                    <path d="M60.5955215,66.7983238 C78.0712504,63.5791106 94.8548074,74.9885361 98.3438818,92.3450084 L98.445529,92.8727735 L120.865,214.579 L364.339297,183.106732 C381.962429,180.828647 398.110453,193.121088 400.664402,210.639596 L400.737621,211.17205 C403.015706,228.795181 390.723265,244.943205 373.204757,247.497154 L372.672303,247.570373 L98.6498033,282.992373 C81.6911353,285.184565 65.9677177,273.865077 62.6187563,257.156299 L62.5210718,256.648331 L34.5210718,104.648331 C31.2693413,86.99608 42.94327,70.0500544 60.5955215,66.7983238 Z" id="Path" fill="#EBBAAA" fill-rule="nonzero"></path>
                    <path d="M339.7508,122.310568 C394.5038,114.357568 415.7608,165.966552 414.8678,221.288552 C414.0348,272.876552 370.0098,313.159552 318.5508,309.418552 L181.7868,299.475552 L144.0378,155.375552 L339.7508,122.310568 Z" id="Path" fill="#F2D957" fill-rule="nonzero"></path>
                    <path d="M597.8918,146.056552 C561.2668,104.586552 496.2168,105.772552 461.1278,148.550552 C428.4058,188.443552 435.9428,247.638552 477.6178,278.057552 L588.3748,358.903552 L710.3448,273.387552 L597.8918,146.056552 Z" id="Path" fill="#F2D957" fill-rule="nonzero"></path>
                    <path d="M273.8778,221.156446 C277.1788,161.319654 325.1658,114.216916 383.8938,113.17105 L461.9048,111.781324 C523.3288,110.687501 574.1838,160.22175 575.9648,222.879829 L580.4698,381.366771 L582.3958,581.641411 C582.3958,581.641411 479.5408,587.763552 421.5408,587.763552 C363.5408,587.763552 262.4068,581.641411 262.4068,581.641411 L264.7348,386.934858 L273.8778,221.156446 Z" id="Path" fill="#F2D957" fill-rule="nonzero"></path>
                    <circle id="Oval" fill="#F6E68B" fill-rule="nonzero" transform="translate(419.991800, 164.671552) rotate(-1.000000) translate(-419.991800, -164.671552) " cx="419.9918" cy="164.671552" r="70.7471"></circle>
                    <rect id="Rectangle" fill="#FFFFFF" fill-rule="nonzero" x="304.8858" y="340.288552" width="242.833" height="166.438"></rect>
                    <rect id="Rectangle" fill="#67A447" fill-rule="nonzero" x="304.8858" y="383.885552" width="242.833" height="98.6138"></rect>
                    <path d="M334.2428,437.263552 L335.3588,433.192552 C336.6828,428.410552 338.0778,422.788552 339.3318,417.747552 L339.6108,417.747552 C341.0058,422.658552 342.3298,428.410552 343.7248,433.192552 L344.8398,437.263552 L334.2428,437.263552 Z M350.2078,457.231552 L363.3148,457.231552 L347.2098,409.152552 L332.2908,409.152552 L316.1868,457.231552 L328.8748,457.231552 L331.8728,446.181552 L347.2098,446.181552 L350.2078,457.231552 Z" id="Shape" fill="#14270B" fill-rule="nonzero"></path>
                    <path d="M383.9618,458.136552 C394.9068,458.136552 402.3668,449.477552 402.3668,432.933552 C402.3668,416.519552 394.9068,408.248552 383.9618,408.248552 C373.0158,408.248552 365.6258,416.390552 365.6258,432.933552 C365.6258,449.477552 373.0158,458.136552 383.9618,458.136552 Z M383.9618,449.218552 C380.2668,449.218552 377.3388,446.116552 377.3388,432.933552 C377.3388,419.815552 380.2668,417.101552 383.9618,417.101552 C387.6568,417.101552 390.6548,419.815552 390.6548,432.933552 C390.6548,446.116552 387.6568,449.218552 383.9618,449.218552 Z" id="Shape" fill="#14270B" fill-rule="nonzero"></path>
                    <path d="M408.1788,457.231552 L444.1528,457.231552 L444.1528,447.538552 L434.6018,447.538552 C432.3008,447.538552 428.7458,447.861552 426.1658,448.184552 C434.1138,440.753552 441.7828,431.641552 441.7828,423.369552 C441.7828,414.193552 434.8108,408.248552 424.7718,408.248552 C417.3818,408.248552 412.6408,410.703552 407.5518,415.679552 L414.3148,421.883552 C416.7548,419.427552 419.5428,417.230552 423.0988,417.230552 C427.2118,417.230552 429.8608,419.621552 429.8608,424.015552 C429.8608,430.995552 421.1468,439.719552 408.1788,450.640552 L408.1788,457.231552 Z" id="Path" fill="#14270B" fill-rule="nonzero"></path>
                    <path d="M470.0438,449.541552 C466.7668,449.541552 463.5598,447.150552 462.5148,439.137552 C464.6058,435.971552 467.2548,434.807552 469.8348,434.807552 C473.2508,434.807552 476.0398,436.552552 476.0398,441.851552 C476.0398,447.280552 473.3208,449.541552 470.0438,449.541552 Z M486.7058,413.999552 C483.4298,410.897552 478.4098,408.248552 471.5778,408.248552 C460.8408,408.248552 450.9418,416.196552 450.9418,433.580552 C450.9418,451.092552 460.5628,458.136552 470.3228,458.136552 C479.5948,458.136552 487.4028,452.062552 487.4028,441.851552 C487.4028,431.382552 480.8498,426.730552 472.2048,426.730552 C469.2768,426.730552 464.8848,428.410552 462.3048,431.447552 C462.7928,420.978552 467.0458,417.424552 472.4138,417.424552 C475.2728,417.424552 478.4798,419.104552 480.1528,420.784552 L486.7058,413.999552 Z" id="Shape" fill="#14270B" fill-rule="nonzero"></path>
                    <path d="M509.6688,458.136552 C519.9868,458.136552 528.8408,453.096552 528.8408,444.113552 C528.8408,437.909552 524.5878,434.032552 518.8018,432.416552 L518.8018,432.093552 C524.3788,430.025552 527.1678,426.277552 527.1678,421.495552 C527.1678,412.900552 520.1258,408.248552 509.3898,408.248552 C503.2548,408.248552 498.0958,410.445552 493.2858,414.193552 L499.5598,421.237552 C502.6968,418.716552 505.3468,417.230552 508.8318,417.230552 C512.6668,417.230552 514.7578,419.039552 514.7578,422.335552 C514.7578,426.148552 511.9698,428.668552 503.1158,428.668552 L503.1158,436.746552 C513.9908,436.746552 516.3618,439.202552 516.3618,443.338552 C516.3618,446.956552 513.2238,448.831552 508.4138,448.831552 C504.3708,448.831552 500.7448,446.956552 497.6078,444.178552 L491.8908,451.415552 C495.6558,455.487552 501.4418,458.136552 509.6688,458.136552 Z" id="Path" fill="#14270B" fill-rule="nonzero"></path>
                    <g id="Clipped" transform="translate(324.963800, 113.519552)">
                        <g id="Group">
                            <mask id="mask-6" fill="white">
                                <use xlink:href="#path-5"></use>
                            </mask>
                            <use id="Path" fill="#FFFFFF" xlink:href="#path-5"></use>
                            <rect id="Rectangle" fill="#F2D957" fill-rule="nonzero" opacity="0.5" mask="url(#mask-6)" x="47.316" y="123.124" width="99.5141" height="75.5684"></rect>
                            <rect id="Rectangle" fill="#86DB5B" fill-rule="nonzero" mask="url(#mask-6)" x="43.543" y="143.447" width="99.5141" height="75.5684"></rect>
                            <rect id="Rectangle" fill="#2A89E0" fill-rule="nonzero" mask="url(#mask-6)" x="43.543" y="162.304" width="99.5141" height="75.5684"></rect>
                        </g>
                    </g>
                    <circle id="Oval" fill="#F2D957" cx="423.4638" cy="351.019552" r="48.5"></circle>
                    <path d="M422.7628,299.752652 C394.243423,299.752652 371.1239,322.872176 371.1239,351.391552 C371.1239,379.910929 394.243423,403.030452 422.7628,403.030452 C451.282177,403.030452 474.4017,379.910929 474.4017,351.391552 C474.4017,322.872176 451.282177,299.752652 422.7628,299.752652 Z M422.7628,305.752652 C447.968469,305.752652 468.4017,326.185884 468.4017,351.391552 C468.4017,376.597221 447.968469,397.030452 422.7628,397.030452 C397.557132,397.030452 377.1239,376.597221 377.1239,351.391552 C377.1239,326.185884 397.557132,305.752652 422.7628,305.752652 Z" id="Oval" fill="#A4A800" fill-rule="nonzero"></path>
                    <g id="Clipped" transform="translate(380.000000, 309.000000)">
                        <mask id="mask-8" fill="white">
                            <use xlink:href="#path-7"></use>
                        </mask>
                        <g id="Oval"></g>
                        <polygon id="Path" fill="#F2D957" fill-rule="nonzero" mask="url(#mask-8)" points="31.659 -9.068 77.928 -9.068 37.928 94.812 -8.341 94.812"></polygon>
                    </g>
                    <path d="M436.000537,331 C437.590938,331 439.117937,330.368082 440.243038,329.24288 C441.368138,328.117679 442,326.591617 442,325 C442,323.408383 441.368138,321.882321 440.243038,320.75712 C439.117937,319.631918 437.590938,319 436.000537,319 C434.409062,319 432.883138,319.631918 431.758037,320.75712 C430.632936,321.882321 430,323.408383 430,325 C430,326.591617 430.632936,328.117679 431.758037,329.24288 C432.883138,330.368082 434.409062,331 436.000537,331 Z M425.304632,373.988158 L428.347372,360.529605 L434.739198,366.64693 L434.739198,385 L440.825769,385 L440.825769,362.05921 L434.435033,355.941885 L436.261113,346.76535 C438.34557,349.167137 440.918435,351.092292 443.806368,352.411522 C446.69321,353.729656 449.828617,354.41228 453,354.41228 L453,348.29386 C447.643862,348.385899 442.651849,345.572127 439.913274,340.952632 L436.869443,336.05921 C435.773795,334.223903 433.825613,333 431.695368,333 C430.782873,333 430.173453,333.305702 429.260958,333.305702 L413.434566,340.035526 L413.434566,354.41228 L419.522227,354.41228 L419.522227,344.011842 L425.000467,341.870833 L420.130557,366.64693 L405.21775,363.588815 L404,369.70614 L425.304632,373.988158 Z M398.000269,342 C397.203994,342 396.441032,341.684041 395.879019,341.120903 C395.315931,340.558839 395,339.795809 395,338.999463 C395,338.204191 395.315931,337.441161 395.879019,336.878023 C396.441032,336.315959 397.203994,336 398.000269,336 L407,336 L407,342 L398.000269,342 Z M401.000358,330 C400.20406,330 399.441075,329.684041 398.879045,329.121977 C398.31594,328.558839 398,327.795809 398,327.000537 C398,326.204191 398.31594,325.441161 398.879045,324.879097 C399.441075,324.315959 400.20406,324 401.000358,324 L416,324 L416,330 L401.000358,330 Z M394.999355,354 C394.204112,354 393.441109,353.684097 392.877991,353.12106 C392.315948,352.559097 392,351.796203 392,351 C392,350.204871 392.315948,349.441977 392.877991,348.87894 C393.441109,348.316977 394.204112,348 394.999355,348 L407,348 L407,354 L394.999355,354 Z" id="Shape" fill="#B79A00" fill-rule="nonzero"></path>
                    <rect id="Rectangle" fill="#EBBAAA" fill-rule="nonzero" transform="translate(52.406600, 82.326708) rotate(-10.430200) translate(-52.406600, -82.326708) " x="8" y="34.6027078" width="88.8132" height="95.448" rx="33"></rect>
                    <rect id="Rectangle" fill="#EBBAAA" fill-rule="nonzero" transform="translate(74.052626, 42.276600) rotate(-10.446900) translate(-74.052626, -42.276600) " x="58.1282256" y="3" width="31.8488" height="78.5532" rx="15.9244"></rect>
                    <polygon id="Path" fill="#000000" fill-rule="nonzero" points="652.0708 447.698552 615.6358 457.618552 615.6358 468.448552 643.763605 468.448552 683.591931 489.198552 687.2508 466.436552"></polygon>
                    <polygon id="Path" fill-opacity="0.3" fill="#FFFFFF" fill-rule="nonzero" points="647.9638 465.195552 652.2198 452.519552 686.2508 470.405295 684.591931 484.397482"></polygon>
                </g>
                <g id="hand" transform="translate(244.820290, 0.273990)">
                    <rect id="Rectangle" fill="#EBBAAA" fill-rule="nonzero" transform="translate(175.556450, 472.797962) rotate(-1.000000) translate(-175.556450, -472.797962) " x="128.5604" y="411.382462" width="93.9921" height="122.831" rx="46.996"></rect>
                    <path d="M301.74471,327.55201 C332.15971,327.55201 354.16171,292.73301 356.81571,266.92601 C359.46971,241.11901 332.15971,215.05201 301.74471,215.05201 C271.32971,215.05201 246.67371,238.27701 246.67371,266.92601 C246.67371,295.57501 271.32971,327.55201 301.74471,327.55201 Z" id="Path" fill="#EBBAAA" fill-rule="nonzero"></path>
                    <path d="M55.2497098,334.50201 C24.8347098,334.50201 2.83270975,299.68301 0.178709754,273.87601 C-2.47529025,248.06901 24.8347098,222.00201 55.2497098,222.00201 C85.6647098,222.00201 110.32071,245.22701 110.32071,273.87601 C110.32071,302.52501 85.6647098,334.50201 55.2497098,334.50201 Z" id="Path" fill="#EBBAAA" fill-rule="nonzero"></path>
                    <path d="M28.8817098,187.78101 C28.8817098,98.17001 96.3577098,25.52531 179.59371,25.52531 C262.82971,25.52531 330.30571,98.17001 330.30571,187.78101 L320.10471,313.21801 C311.62971,368.04101 291.95171,413.53601 256.61971,435.78801 C241.61471,445.23801 243.73171,450.49601 222.73971,450.49601 L135.32371,450.49601 C108.03971,450.49601 107.52071,440.44501 90.4717098,424.04201 C63.5157098,398.10701 47.9087098,356.29201 39.0827098,313.21901 L28.8817098,187.78101 Z" id="Path" fill="#F4D4C9" fill-rule="nonzero"></path>
                    <path d="M298.30271,146.07501 L288.79571,66.28271 C287.35871,54.22521 275.20971,51.14981 309.48571,76.41471 C343.76271,101.68001 339.24271,182.29601 330.45371,217.87101 L323.87371,262.87401 L321.66871,257.55301 L318.19671,205.63501 C300.92671,188.25101 301.34471,171.60901 298.30271,146.07501 Z" id="Path" fill="#FFF03D" fill-rule="nonzero"></path>
                    <path d="M50.4777098,153.29101 C51.8937098,127.61801 49.0017098,128.94001 49.9447098,111.82401 C50.6137098,99.70101 50.7087098,96.63001 38.4717098,125.14001 C26.2347098,153.65001 25.7017098,189.56701 28.2447098,224.04201 L31.2657098,255.81601 L36.0937098,256.08201 L38.2727098,216.55901 C46.8047098,189.17201 49.0627098,178.96401 50.4777098,153.29101 Z" id="Path" fill="#FFF03D" fill-rule="nonzero"></path>
                    <path d="M185.34171,7.01951 L185.34071,7.01951 C185.27171,7.01951 185.20271,7.01951 185.13371,7.01951 C185.06471,7.01951 184.99571,7.01951 184.92771,7.01951 L184.92671,7.01951 C140.92871,7.18031 35.5827098,32.84571 31.6237098,152.95701 C43.3227098,138.16101 40.9277098,139.28401 56.9757098,129.62901 C69.8847098,121.86201 75.7947098,109.24101 110.29671,101.00801 C144.79871,92.77421 162.31271,102.96801 184.92671,102.96801 C202.56671,102.96801 223.21371,95.51901 247.91371,102.96801 C272.61371,110.41701 290.57871,123.86501 302.01971,129.62901 C325.32571,141.37101 312.60071,135.45501 335.37971,152.95701 C331.42071,32.84601 229.33671,7.18031 185.34171,7.01951 Z" id="Path" fill="#FFF03D"></path>
                    <path d="M72.5346147,206.506331 L99.4590747,195.386695 L159.503835,214.518869 C164.622488,216.149835 167.449817,221.621482 165.818851,226.740135 C164.216005,231.770536 158.903774,234.587942 153.862636,233.135547 L153.597585,233.055151 L100.319,216.079 L79.9608049,224.487689 C75.0825022,226.502398 69.5070613,224.257069 67.3682958,219.46903 L67.2570303,219.210105 C65.2423214,214.331802 67.4876507,208.756362 72.2756899,206.617596 L72.5346147,206.506331 Z" id="Path" fill="#393939" fill-rule="nonzero"></path>
                    <path d="M199.187585,214.518869 L259.232345,195.386695 L286.156805,206.506331 C291.12222,208.557016 293.485075,214.24469 291.434389,219.210105 C289.41968,224.088408 283.894478,226.454667 278.992596,224.591555 L278.730615,224.487689 L258.371,216.079 L205.093835,233.055151 C200.063434,234.657997 194.692107,231.954957 192.960332,227.002839 L192.872568,226.740135 C191.269723,221.709735 193.972763,216.338407 198.924881,214.606633 L199.187585,214.518869 Z" id="Path" fill="#393939" fill-rule="nonzero"></path>
                    <path d="M168.816192,241.467726 L186.641227,245.924294 L172.204079,303.668887 C170.834635,309.144735 174.892431,314.453308 180.490201,314.615353 L180.75371,314.61916 L197.75871,314.61916 L197.75871,332.99286 L180.75371,332.99286 C163.243599,332.99286 150.348255,316.700403 154.255631,299.726286 L154.379192,299.211726 L168.816192,241.467726 Z" id="Path" fill="#EBBAAA" fill-rule="nonzero"></path>
                    <path d="M91.4520092,251.687481 L91.572322,251.646315 C106.100075,246.73959 120.552847,246.677363 138.880028,254.547473 C142.087995,255.925047 143.571821,259.642362 142.194247,262.850328 C140.816673,266.058295 137.099358,267.542121 133.891391,266.164547 C118.848429,259.704756 107.679722,259.659635 96.1207458,263.45695 L95.4798813,263.672728 C94.410565,264.05256 88.8820969,266.089428 87.4080504,266.473362 C84.0295302,267.35334 80.5773355,265.327871 79.6973577,261.949351 C78.8369351,258.645909 80.7542628,255.27203 83.998156,254.301105 L84.2213691,254.238658 C85.0328241,254.027304 90.1206871,252.147604 91.4520092,251.687481 Z" id="Path" fill="#393939" fill-rule="nonzero"></path>
                    <path d="M216.338467,256.54744 C234.442707,248.773347 248.765585,248.739258 263.115129,253.468958 L263.646613,253.646305 C264.717518,254.007995 269.814756,255.892813 270.902706,256.212016 L270.997839,256.238603 C274.376389,257.118464 276.401978,260.570588 275.522117,263.949139 C274.642256,267.32769 271.190131,269.353278 267.811581,268.473417 L267.520684,268.392015 C265.61059,267.829901 260.131772,265.803713 259.601075,265.624474 C247.861935,261.659666 236.588572,261.611129 221.326952,268.16458 C218.118968,269.542112 214.401672,268.058237 213.02414,264.850252 C211.646608,261.642268 213.130483,257.924972 216.338467,256.54744 Z" id="Path" fill="#393939" fill-rule="nonzero"></path>
                    <polygon id="Path" fill="#FFF03D" fill-rule="nonzero" points="62.7207098 47.01451 54.7017098 80.39081 176.48771 56.68421 317.75071 91.13491 316.67471 63.29811 306.52671 59.53221 305.88271 48.86701 293.30271 49.62701 292.30671 33.14441 276.13271 34.12151 271.77671 21.73431 257.39971 22.60291 248.10171 10.51431 233.50971 15.28831 228.54771 7.80321 213.27271 8.72611 212.74471 1.0658141e-13 192.60471 9.97471 186.68671 1.57431 178.22771 10.84321 168.71471 2.66003 152.16871 12.41751 140.85871 4.34291 129.70471 13.77471 121.61771 14.26331 113.10071 22.56271 109.03771 15.02331 94.7577098 32.42871 84.6387098 29.14761 72.7517098 48.84131"></polygon>
                    <path d="M123.72271,349.16801 L123.72271,368.96801 C123.72271,399.44801 148.43271,424.14801 178.90271,424.14801 C209.38271,424.14801 234.08271,399.44801 234.08271,368.96801 L234.08271,349.16801 L123.72271,349.16801 Z" id="Path" fill="#393939"></path>
                    <g id="Clipped" transform="translate(123.179710, 348.726010)">
                        <mask id="mask-10" fill="white">
                            <use xlink:href="#path-9"></use>
                        </mask>
                        <g id="Path"></g>
                        <path d="M55.723,93.115 C74.102,93.115 89.001,85.005 89.001,75.002 C89.001,64.998 74.102,56.889 55.723,56.889 C37.344,56.889 22.446,64.998 22.446,75.002 C22.446,85.005 37.344,93.115 55.723,93.115 Z" id="Path" fill="#FF6C6C" fill-rule="nonzero" mask="url(#mask-10)"></path>
                    </g>
                    <rect id="Rectangle" fill="#FFFFFF" fill-rule="nonzero" x="123.72271" y="349.16801" width="110.363" height="22.7466"></rect>
                </g>
            </g>
        </g>
    </g>
</svg>