<?xml version="1.0" encoding="UTF-8"?>
<svg width="562px" height="1377px" viewBox="0 0 562 1377" version="1.1" xmlns="http://www.w3.org/2000/svg" xmlns:xlink="http://www.w3.org/1999/xlink">
    <!-- Generator: Sketch 55.2 (78181) - https://sketchapp.com -->
    <title>gee_me_003</title>
    <desc>Created with Sketch.</desc>
    <defs>
        <rect id="path-1" x="3" y="6" width="40.9838" height="24.5903" rx="6.14758"></rect>
        <rect id="path-3" x="3.17215" y="5.17215" width="34.5612" height="19.6708" rx="6.14758"></rect>
        <rect id="path-5" x="328.320148" y="417.226071" width="40.9838179" height="24.5903107" rx="6.14758"></rect>
        <rect id="path-7" x="389.604293" y="425.062143" width="34.5612151" height="19.6708086" rx="6.14758"></rect>
    </defs>
    <g id="GEE!-ME" stroke="none" stroke-width="1" fill="none" fill-rule="evenodd">
        <g id="gee_me_003" transform="translate(-319.000000, -111.000000)">
            <g transform="translate(319.000000, 111.000000)">
                <g id="lower-limb" transform="translate(56.185670, 902.876378)">
                    <path d="M260.829412,110.523895 C266.32245,137.075442 270.30568,193.008905 270.802559,253.502495 C271.343377,319.345616 267.803103,381.131321 260.628524,421.488056 C256.963802,442.101978 270.703843,461.783707 291.317764,465.448429 C311.931685,469.11315 331.613414,455.37311 335.278136,434.759188 C343.412733,389.00239 347.195872,322.978158 346.620101,252.87975 C346.085805,187.830715 341.801142,127.664446 335.077248,95.1633502 C330.835551,74.6603763 310.776032,61.4780069 290.273058,65.7197041 C269.770084,69.9614013 256.587715,90.0209206 260.829412,110.523895 Z" id="Path" fill="#EBBAAA" fill-rule="nonzero"></path>
                    <path d="M104.305319,95.0887252 C95.0070767,146.595025 95.75836,211.00037 104.081949,285.08266 C109.98474,337.619168 118.973162,389.422955 129.71923,440.089195 C134.063266,460.57073 154.188367,473.652758 174.669903,469.308723 C195.151438,464.964687 208.233466,444.839585 203.88943,424.35805 C193.611248,375.897824 185.018502,326.374475 179.427961,276.617085 C171.854191,209.208391 171.180192,151.428438 178.919341,108.55852 C182.638922,87.9544265 168.95132,68.2361926 148.347227,64.5166116 C127.743134,60.7970306 108.0249,74.4846321 104.305319,95.0887252 Z" id="Path" fill="#EBBAAA" fill-rule="nonzero"></path>
                    <polygon id="Path" fill="#27292D" fill-rule="nonzero" points="66.18233 35.8656224 223.15733 35.8656224 209.83833 236.523622 46.92733 225.253622"></polygon>
                    <ellipse id="Oval" fill="#27292D" fill-rule="nonzero" cx="220.17633" cy="55.9896224" rx="116.371" ry="55.1229"></ellipse>
                    <polygon id="Path" fill="#27292D" fill-rule="nonzero" points="214.96033 35.8656224 367.32033 35.8656224 390.16633 216.573622 244.16433 230.913622"></polygon>
                    <polygon id="Path" fill="#44484D" fill-rule="nonzero" points="308.19933 87.9566224 305.12533 62.3426224 349.18333 57.2196224 352.25633 81.8096224"></polygon>
                    <path d="M13.21413,428.533622 C27.37223,416.203622 80.53933,397.913622 105.59033,388.303622 L172.55933,355.813622 C172.55933,355.813622 186.18133,398.863622 186.30433,412.943622 L186.518097,437.343622 C186.61233,448.233622 177.86533,457.123622 166.98133,457.223622 L13.47613,458.563622 C6.59073003,447.983622 1.29783003,438.903622 13.21413,428.533622 Z" id="Path" fill="#C4C4C4" fill-rule="nonzero"></path>
                    <path d="M13.21413,428.533622 C27.37223,416.203622 80.53933,397.913622 105.59033,388.303622 L172.55933,355.813622 C172.55933,355.813622 186.18133,398.863622 186.30433,412.943622 L186.518097,437.343622 C186.61233,448.233622 177.86533,457.123622 166.98133,457.223622 L13.47613,458.563622 C6.59073003,447.983622 1.29783003,438.903622 13.21413,428.533622 Z" id="Path" fill="#EBBAAA" fill-rule="nonzero"></path>
                    <path d="M37.9725555,451.618359 L56.2880555,448.638359 C63.9619069,447.389795 69.1706313,440.156748 67.9220671,432.482897 C66.6735029,424.809046 59.440456,419.600321 51.7666046,420.848885 L33.4511046,423.828885 C25.7772532,425.077449 20.5685288,432.310496 21.8170929,439.984348 C23.0656571,447.658199 30.2987041,452.866924 37.9725555,451.618359 Z" id="Path" fill="#FFD4C6" fill-rule="nonzero"></path>
                    <path d="M0.183472133,459.783622 C0.139430026,454.683622 4.23183003,450.523622 9.32443003,450.473622 L209.75533,448.723622 L211.36833,472.283622 L0.309030026,474.123622 L0.183472133,459.783622 Z" id="Path" fill="#D2D7DC" fill-rule="nonzero"></path>
                    <path d="M41.07833,407.993622 C56.54633,400.813622 69.20733,406.923622 74.44933,423.553622 C75.90533,428.173622 79.10933,436.203622 79.70833,440.293622 C80.31833,444.453622 80.65933,448.273622 80.85033,451.023622 C80.94633,452.413622 81.00633,453.573622 81.04333,454.393622 C81.06133,454.813622 81.07333,455.143622 81.08233,455.383622 C81.08633,455.513622 81.08933,455.613622 81.09133,455.683622 L81.09433,455.783622 L81.09533,455.813622 L81.09533,455.833622 C81.09533,455.843622 74.81433,455.443622 61.49033,455.853622 C48.16733,456.273622 48.16733,456.273622 48.16733,456.273622 L48.16733,456.283622 L48.16733,456.283622 C48.16633,456.273622 48.16533,456.233622 48.16333,456.163622 C48.15933,456.043622 48.15133,455.843622 48.13933,455.563622 C48.11533,455.013622 48.07233,454.173622 48.00033,453.133622 C47.85433,451.023622 47.59833,448.203622 47.16533,445.253622 C46.72333,442.233622 46.15533,439.503622 45.49433,437.403622 C45.09633,436.143622 44.79633,435.533622 44.69833,435.343622 C42.18833,430.373622 39.25993,424.243622 34.49063,420.503622 C28.20683,415.563622 28.72563,413.713622 41.07833,407.993622 Z" id="Path" fill="#2E2622"></path>
                    <path d="M80.56033,394.523622 C84.63733,392.033622 104.03933,384.413622 113.23033,380.923622 C139.69833,408.153622 142.79733,442.313622 143.08233,455.453622 L105.68633,455.783622 C107.13833,446.033622 94.54833,412.333622 80.56033,394.523622 Z" id="Path" fill="#2E2622" fill-rule="nonzero"></path>
                    <g id="Group-2" transform="translate(96.033692, 411.336079)">
                        <mask id="mask-2" fill="white">
                            <use xlink:href="#path-1"></use>
                        </mask>
                        <g id="Rectangle" transform="translate(23.491900, 18.295150) rotate(-18.500000) translate(-23.491900, -18.295150) "></g>
                        <rect id="Rectangle" stroke="#5C6167" stroke-width="14.3443" mask="url(#mask-2)" transform="translate(23.491900, 18.295150) rotate(-18.500000) translate(-23.491900, -18.295150) " x="3" y="6" width="40.9838" height="24.5903" rx="6.14758"></rect>
                    </g>
                    <g id="Group-3" transform="translate(41.000000, 420.000000)">
                        <mask id="mask-4" fill="white">
                            <use xlink:href="#path-3"></use>
                        </mask>
                        <g id="Rectangle" transform="translate(20.452750, 15.007550) rotate(-18.500000) translate(-20.452750, -15.007550) "></g>
                        <path d="M9.31973,-2 L31.58577,-2 C38.9420538,-2 44.9055,3.96344625 44.9055,11.31973 L44.9055,18.69537 C44.9055,26.0516538 38.9420538,32.0151 31.58577,32.0151 L9.31973,32.0151 C1.96344625,32.0151 -4,26.0516538 -4,18.69537 L-4,11.31973 C-4,3.96344625 1.96344625,-2 9.31973,-2 Z M10.3443,12.3443 L10.3443,17.6708 L30.5612,17.6708 L30.5612,12.3443 L10.3443,12.3443 Z" id="Rectangle" fill="#5C6167" fill-rule="nonzero" mask="url(#mask-4)" transform="translate(20.452750, 15.007550) rotate(-18.500000) translate(-20.452750, -15.007550) "></path>
                    </g>
                    <path d="M455.12333,428.423622 C440.96533,416.103622 387.79833,397.803622 362.74733,388.203622 L295.77833,355.703622 C295.77833,355.703622 282.15633,398.763622 282.03333,412.833622 L281.819563,437.243622 C281.72533,448.123622 290.47133,457.023622 301.35533,457.113622 L454.86133,458.453622 C461.74633,447.883622 467.03933,438.793622 455.12333,428.423622 Z" id="Path" fill="#C4C4C4" fill-rule="nonzero"></path>
                    <path d="M455.12333,428.423622 C440.96533,416.103622 387.79833,397.803622 362.74733,388.203622 L295.77833,355.703622 C295.77833,355.703622 282.15633,398.763622 282.03333,412.833622 L281.819563,437.243622 C281.72533,448.123622 290.47133,457.023622 301.35533,457.113622 L454.86133,458.453622 C461.74633,447.883622 467.03933,438.793622 455.12333,428.423622 Z" id="Path" fill="#EBBAAA" fill-rule="nonzero"></path>
                    <path d="M434.879604,423.717675 L416.563604,420.747675 C408.889084,419.503226 401.658831,424.715829 400.414383,432.390349 C399.169934,440.064868 404.382536,447.295121 412.057056,448.53957 L430.373056,451.50957 C438.047576,452.754019 445.277829,447.541416 446.522277,439.866896 C447.766726,432.192376 442.554124,424.962124 434.879604,423.717675 Z" id="Path" fill="#FFD4C6" fill-rule="nonzero"></path>
                    <path d="M468.153682,459.673622 C468.19733,454.583622 464.10533,450.413622 459.01233,450.373622 L258.58133,448.623622 L256.96933,472.173622 L468.02833,474.013622 L468.153682,459.673622 Z" id="Path" fill="#D2D7DC" fill-rule="nonzero"></path>
                    <path d="M427.25933,407.883622 C411.79133,400.713622 399.13033,406.823622 393.88833,423.453622 C392.43133,428.073622 389.22833,436.103622 388.62833,440.183622 C388.01833,444.343622 387.67733,448.163622 387.48733,450.923622 C387.39033,452.313622 387.33133,453.463622 387.29433,454.293622 C387.27633,454.703622 387.26333,455.043622 387.25533,455.283622 C387.25133,455.403622 387.24833,455.503622 387.24533,455.583622 L387.24333,455.673622 L387.24233,455.713622 L387.24133,455.733622 C387.24133,455.733622 393.52333,455.333622 406.84633,455.753622 C420.17033,456.163622 420.17033,456.173622 420.17033,456.173622 L420.17033,456.173622 L420.17033,456.183622 C420.17033,456.163622 420.17133,456.123622 420.17333,456.063622 C420.17833,455.943622 420.18533,455.733622 420.19733,455.463622 C420.22233,454.903622 420.26533,454.073622 420.33733,453.023622 C420.48333,450.913622 420.73933,448.093622 421.17133,445.153622 C421.61433,442.133622 422.18233,439.403622 422.84233,437.303622 C423.24033,436.043622 423.54133,435.433622 423.63833,435.233622 C426.14933,430.263622 429.07733,424.133622 433.84633,420.393622 C440.13033,415.463622 439.61133,413.613622 427.25933,407.883622 Z" id="Path" fill="#2E2622"></path>
                    <path d="M387.77633,394.423622 C383.70033,391.923622 364.29833,384.313622 355.10733,380.813622 C328.63833,408.043622 325.54033,442.203622 325.25433,455.353622 L362.65133,455.683622 C361.19933,445.933622 373.78833,412.233622 387.77633,394.423622 Z" id="Path" fill="#2E2622" fill-rule="nonzero"></path>
                    <mask id="mask-6" fill="white">
                        <use xlink:href="#path-5"></use>
                    </mask>
                    <g id="Rectangle" transform="translate(348.812057, 429.521226) scale(-1, 1) rotate(-18.500012) translate(-348.812057, -429.521226) "></g>
                    <path d="M334.467728,410.053917 L363.156386,410.053917 C370.512671,410.053917 376.476119,416.017365 376.476119,423.373651 L376.476119,435.668801 C376.476119,443.025087 370.512671,448.988534 363.156386,448.988534 L334.467728,448.988534 C327.111442,448.988534 321.147995,443.025087 321.147995,435.668801 L321.147995,423.373651 C321.147995,416.017365 327.111442,410.053917 334.467728,410.053917 Z M335.492301,424.398224 L335.492301,434.644228 L362.131813,434.644228 L362.131813,424.398224 L335.492301,424.398224 Z" id="Rectangle" fill="#5C6167" fill-rule="nonzero" mask="url(#mask-6)" transform="translate(348.812057, 429.521226) scale(-1, 1) rotate(-18.500012) translate(-348.812057, -429.521226) "></path>
                    <mask id="mask-8" fill="white">
                        <use xlink:href="#path-7"></use>
                    </mask>
                    <g id="Rectangle" transform="translate(406.884901, 434.897547) scale(-1, 1) rotate(-18.500012) translate(-406.884901, -434.897547) "></g>
                    <path d="M395.751873,417.88999 L418.017928,417.88999 C425.374214,417.88999 431.337661,423.853438 431.337661,431.209723 L431.337661,438.585372 C431.337661,445.941657 425.374214,451.905105 418.017928,451.905105 L395.751873,451.905105 C388.395588,451.905105 382.43214,445.941657 382.43214,438.585372 L382.43214,431.209723 C382.43214,423.853438 388.395588,417.88999 395.751873,417.88999 Z M396.776446,432.234296 L396.776446,437.560799 L416.993355,437.560799 L416.993355,432.234296 L396.776446,432.234296 Z" id="Rectangle" fill="#5C6167" fill-rule="nonzero" mask="url(#mask-8)" transform="translate(406.884901, 434.897547) scale(-1, 1) rotate(-18.500012) translate(-406.884901, -434.897547) "></path>
                </g>
                <g id="upper-limb" transform="translate(-0.000000, 436.000000)">
                    <path d="M428.538097,216.546563 C445.453423,245.346387 452.625676,258.16144 459.726451,273.07692 C468.252168,290.985551 473.108945,305.635538 474.556683,317.911534 C475.909973,329.386664 474.29375,338.520429 469.454117,346.991927 C463.325546,357.719639 451.441705,368.601288 432.149447,379.436591 C413.612888,389.847464 407.025718,413.313994 417.436591,431.850553 C427.847464,450.387112 451.313994,456.974282 469.850553,446.563409 C530.853763,412.301567 557.674629,365.353182 551.016317,308.894466 C548.441074,287.057864 541.078769,264.850203 529.240549,239.983518 C520.848592,222.355856 512.990796,208.315906 494.923903,177.555437 C484.156801,159.223503 460.567371,153.090995 442.235437,163.858097 C423.903503,174.625199 417.770995,198.214629 428.538097,216.546563 Z" id="Path" fill="#EBBAAA" fill-rule="nonzero"></path>
                    <path d="M119.928409,94.4583237 C115.102659,103.239639 109.722917,112.218903 102.475945,123.734655 C99.8201854,127.954772 87.3241984,147.538975 83.8374057,153.091772 C57.8928735,194.409034 41.6809078,226.290089 28.4527975,267.009158 C11.8094581,318.241063 3.21455,376.93601 3.21455,448.276 C3.21455,470.62782 21.3342801,488.74755 43.6861,488.74755 C66.0379199,488.74755 84.15765,470.62782 84.15765,448.276 C84.15765,385.135378 91.5211926,334.849472 105.435548,292.017989 C116.26941,258.668948 129.680529,232.295797 152.386459,196.136084 C155.6723,190.903306 168.139603,171.364058 170.982541,166.846506 C179.008509,154.092895 185.150058,143.84211 190.865591,133.441676 C201.630546,113.852915 194.477438,89.246365 174.888676,78.4814094 C155.299915,67.7164539 130.693365,74.8695621 119.928409,94.4583237 Z" id="Path" fill="#EBBAAA" fill-rule="nonzero"></path>
                    <path d="M123.681,68.285 C163.782,30.164 228.481,37.016 259.708,82.689 C288.828,125.282 276.16,183.595 231.994,210.266 L114.612,281.151 L0.55878,185.33 L123.681,68.285 Z" id="Path" fill="#A97EAC" fill-rule="nonzero"></path>
                    <path d="M449.35,67.296 C412.724,25.825 347.674,27.011 312.585,69.79 C279.864,109.682 287.401,168.877 329.075,199.297 L439.832,280.142 L561.803,194.626 L449.35,67.296 Z" id="Path" fill="#A97EAC" fill-rule="nonzero"></path>
                    <path d="M125.337,149.71 C128.637,91.066 176.625,44.903 235.352,43.878 L313.364,42.517 C374.788,41.444 425.643,89.99 427.424,151.398 L431.929,306.723 L428.855,503.002 L119.866,503.002 L116.194,312.18 L125.337,149.71 Z" id="Path" fill="#B684B9" fill-rule="nonzero"></path>
                    <circle id="Oval" fill="#9D769F" fill-rule="nonzero" transform="translate(271.450000, 85.911000) rotate(-1.000000) translate(-271.450000, -85.911000) " cx="271.45" cy="85.911" r="70.7471"></circle>
                    <rect id="Rectangle" fill="#EBBAAA" fill-rule="nonzero" transform="translate(271.799741, 62.830952) rotate(-1.000000) translate(-271.799741, -62.830952) " x="224.803691" y="1.41545196" width="93.9921" height="122.831" rx="46.996"></rect>
                    <polygon id="Path" fill="#ED3535" fill-rule="nonzero" points="427.679 466.652 359.635 460.699 364.614 298.122 451.006 305.68"></polygon>
                    <path d="M404.487,304.077 L425.017,305.404 C425.017,305.404 414.761,323.483 423.019,364.033 C423.019,364.033 441.399,432.636 410.824,465 L374.988,462.5 C374.988,462.5 419.831,427.633 410.824,368.809 C409.133,357.765 395.987,336.5 404.487,304.077 Z" id="Path" fill="#FFFFFF" fill-rule="nonzero"></path>
                    <polygon id="Path" fill="#E8E8E8" fill-rule="nonzero" points="452.768 318.221 361.118 310.203 363.743 293.117 453.149 300.939"></polygon>
                    <polygon id="Path" fill="#EFEFEF" fill-rule="nonzero" points="449.588 301.782 367.103 294.566 369.025 285.499 449.271 292.519"></polygon>
                    <circle id="Oval" fill="#EBBAAA" fill-rule="nonzero" transform="translate(438.789000, 411.789000) rotate(-1.000000) translate(-438.789000, -411.789000) " cx="438.789" cy="411.789" r="43.0445"></circle>
                    <g id="Group-4" transform="translate(82.310000, 31.416017)"></g>
                    <path d="M374.813279,31.4160171 C365.827763,103.29971 318.58598,206.891378 254.434588,301.889886 C225.020235,345.448094 194.283781,383.637023 166.951573,410.63335 C153.49299,423.926543 141.190388,434.17217 130.681548,440.900612 C121.646555,446.685401 114.800033,449.3003 111.31,449.3003 L111.31,496.4317 C136.852406,496.4317 166.141875,477.678681 200.071833,444.165682 C229.806504,414.796414 262.450069,374.237969 293.494162,328.266364 C361.422233,227.675165 411.507318,117.848711 421.580721,37.2619829 L374.813279,31.4160171 Z" id="Path" fill="#484F56" fill-rule="nonzero"></path>
                    <polygon id="Path" fill="#CED9EA" fill-rule="nonzero" points="315.204 151.143 350.04 130.651 386.926 151.143 386.926 192.126 350.04 259.75 276.27 218.766"></polygon>
                    <rect id="Rectangle" fill="#B6C3D6" fill-rule="nonzero" transform="translate(227.050998, 355.992098) rotate(32.500000) translate(-227.050998, -355.992098) " x="140.984998" y="222.282098" width="172.132" height="267.42" rx="86.066"></rect>
                    <rect id="Rectangle" fill="#DCE3ED" fill-rule="nonzero" transform="translate(249.070998, 321.426098) rotate(32.500000) translate(-249.070998, -321.426098) " x="163.004998" y="187.716098" width="172.132" height="267.42" rx="86.066"></rect>
                    <rect id="Rectangle" fill="#6B7A89" fill-rule="nonzero" transform="translate(223.824487, 364.869646) rotate(32.500000) translate(-223.824487, -364.869646) " x="156.200987" y="278.291146" width="135.247" height="173.157" rx="22.5411"></rect>
                    <path d="M170.513,303.623 C173.914,292.183 203.116,267.704 218.47,258.858 C234.067,263.933 315.024,309.435 329.944,329.874 C318.662,340.909 306.081,357.797 283.165,376.605 C262.774,373.335 167.113,315.063 170.513,303.623 Z" id="Path" fill="#B2C2DA" fill-rule="nonzero"></path>
                    <rect id="Rectangle" fill="#B2C2DA" fill-rule="nonzero" transform="translate(213.214778, 367.221967) rotate(32.500000) translate(-213.214778, -367.221967) " x="199.382728" y="329.311917" width="27.6641" height="75.8201" rx="13.832"></rect>
                    <circle id="Oval" fill="#E7EEF8" fill-rule="nonzero" transform="translate(199.176000, 389.257000) rotate(32.500000) translate(-199.176000, -389.257000) " cx="199.176" cy="389.257" r="13.8321"></circle>
                </g>
                <g id="head" transform="translate(46.760200, 0.434450)">
                    <ellipse id="Oval" fill="#EBBAAA" fill-rule="nonzero" cx="59.4978" cy="308.84655" rx="59.4978" ry="56.4354"></ellipse>
                    <ellipse id="Oval" fill="#EBBAAA" fill-rule="nonzero" cx="394.6098" cy="313.22155" rx="59.4978" ry="56.4354"></ellipse>
                    <path d="M52.4658,204.07755 C48.5655,105.34755 127.5508,23.18025 226.3588,23.18025 C325.4038,23.18025 404.4798,105.72755 400.2268,204.68155 L394.4818,338.34155 C390.6068,428.51055 316.3788,499.61755 226.1258,499.61755 C135.6468,499.61755 61.3168,428.16555 57.7458,337.75655 L52.4658,204.07755 Z" id="Path" fill="#EED4CC" fill-rule="nonzero"></path>
                    <path d="M180.455015,397.20313 C212.35289,411.278191 235.041741,412.107552 269.740429,397.236685 C273.745121,395.520389 275.600231,390.882612 273.883935,386.877921 C272.167639,382.873229 267.529862,381.018119 263.525171,382.734415 C233.024188,395.806264 214.868875,395.142621 186.824585,382.76797 C182.838426,381.009061 178.181128,382.814605 176.42222,386.800765 C174.663311,390.786924 176.468855,395.444222 180.455015,397.20313 Z" id="Path" fill="#C99584" fill-rule="nonzero"></path>
                    <path d="M185.0388,205.73655 L120.4838,200.53555 C119.7238,200.47455 118.9918,200.84055 118.5848,201.48555 L105.6248,222.06155 C104.7818,223.39955 105.7088,225.14855 107.2898,225.20155 L188.3488,227.91455 C191.1018,228.00655 193.1608,225.41055 192.4428,222.75055 L188.6668,208.75455 C188.2158,207.08355 186.7638,205.87555 185.0388,205.73655 Z" id="Path" fill="#393939" fill-rule="nonzero"></path>
                    <path d="M262.2218,205.73955 L327.5718,200.53355 C328.3278,200.47355 329.0558,200.83555 329.4628,201.47555 L342.5718,222.05155 C343.4238,223.39055 342.4968,225.14855 340.9108,225.20055 L258.8648,227.91555 C256.1068,228.00755 254.0488,225.40255 254.7748,222.74055 L258.5938,208.74655 C259.0488,207.07955 260.4998,205.87655 262.2218,205.73955 Z" id="Path" fill="#393939" fill-rule="nonzero"></path>
                    <path d="M151.23365,272.90355 L151.23365,301.86555 C151.23365,308.655974 156.738376,314.1607 163.5288,314.1607 C170.319224,314.1607 175.82395,308.655974 175.82395,301.86555 L175.82395,272.90355 C175.82395,266.113126 170.319224,260.6084 163.5288,260.6084 C156.738376,260.6084 151.23365,266.113126 151.23365,272.90355 Z" id="Path" fill="#000000" fill-rule="nonzero"></path>
                    <path d="M271.97965,272.903125 L271.97865,301.865125 C271.97865,308.655549 277.482952,314.1607 284.273375,314.1607 C291.063799,314.1607 296.568716,308.656398 296.56895,301.865975 L296.56995,272.903975 C296.56995,266.113551 291.065648,260.6084 284.275225,260.6084 C277.484801,260.6084 271.979884,266.112702 271.97965,272.903125 Z" id="Path" fill="#000000" fill-rule="nonzero"></path>
                    <path d="M211.34368,299.662025 C211.015709,302.050978 210.572964,303.365932 206.655892,314.069534 C205.712477,316.647466 205.006659,318.649129 204.356623,320.626949 C200.977223,330.909216 199.810671,338.536983 201.772992,345.469589 C204.621244,355.532068 213.485649,360.7846 226.6738,360.7846 L226.6738,343.3665 C223.130986,343.3665 220.813262,342.856564 219.560303,342.114133 C218.97927,341.769847 218.735628,341.442835 218.532627,340.725661 C217.798106,338.130701 218.546201,333.239106 220.903922,326.065432 C221.48292,324.303755 222.130368,322.467626 223.013076,320.055581 C227.69864,307.252033 228.010181,306.326756 228.59992,302.031075 L211.34368,299.662025 Z" id="Path" fill="#EBBAAA" fill-rule="nonzero"></path>
                    <path d="M342.6598,138.17755 C339.3208,110.14755 336.3058,90.02005 334.0798,71.33325 C332.5028,58.09685 332.3388,54.72075 369.9668,82.45585 C407.5938,110.19055 413.2358,171.04055 402.9998,222.75955 L393.5238,282.12755 L381.9048,279.25555 L380.3718,203.36555 C361.4138,184.28055 345.9998,166.20755 342.6598,138.17755 Z" id="Path" fill="#6E6C6C" fill-rule="nonzero"></path>
                    <path d="M79.5648,168.07455 C81.1188,139.89155 77.9438,141.34255 78.9798,122.55355 C79.7138,109.24555 84.2998,112.15755 60.5418,136.56055 C47.4291,150.02955 52.3658,207.89755 55.1578,245.74255 L58.4738,280.62455 L63.7738,280.91655 L66.1668,237.52855 C75.5328,207.46355 78.0108,196.25755 79.5648,168.07455 Z" id="Path" fill="#6E6C6C" fill-rule="nonzero"></path>
                    <path d="M230.2388,6.27502 L230.2378,6.27502 C230.1588,6.27502 230.0788,6.27502 229.9998,6.27502 C229.9198,6.27502 229.8408,6.27502 229.7608,6.27502 L229.7598,6.27502 C178.9448,6.45154 57.2738,34.62635 52.7008,166.48055 C66.2118,150.23955 87.0788,143.15455 105.6128,132.55555 C144.6288,110.24355 176.4868,102.07555 218.7588,102.07555 C255.0838,102.07555 299.6388,110.29855 329.7298,124.70855 C356.6478,137.59955 380.5118,147.26855 406.8208,166.48055 C402.2478,34.62675 281.0518,6.45155 230.2388,6.27502 Z" id="Path" fill="#272727"></path>
                    <polygon id="Path" fill="#272727" fill-rule="nonzero" points="177.8048 123.63055 177.8048 107.46855 150.8668 123.63055 150.8668 90.22885 301.7148 98.84855 283.3978 121.47555 268.3128 117.16555 248.9188 123.63055 241.3758 111.77855 221.9808 123.63055 221.9808 107.46855 195.0438 123.63055 195.0438 107.46855"></polygon>
                    <polygon id="Path" fill="#272727" fill-rule="nonzero" points="97.9308 46.18035 87.5028 83.22645 224.9708 61.93715 382.0748 90.65665 381.7438 75.41365 370.5378 70.75535 370.2768 58.77875 356.1498 59.08575 355.7478 40.57635 337.5848 40.97125 333.2408 26.90475 317.0958 27.25565 307.2018 13.30975 290.6468 18.02685 285.4118 9.42625 268.2578 9.79905 268.0448 7.10542736e-15 245.0498 10.30355 238.7818 0.63607 228.9038 10.65445 218.6008 1.07474 199.6408 11.29055 187.3198 1.75468 174.4148 11.83885 165.3328 12.03625 155.4318 20.96595 151.2058 12.34335 134.4538 31.22565 123.2598 27.11175 109.0898 48.66115"></polygon>
                </g>
            </g>
        </g>
    </g>
</svg>