<?xml version="1.0" encoding="UTF-8"?>
<svg width="542px" height="1368px" viewBox="0 0 542 1368" version="1.1" xmlns="http://www.w3.org/2000/svg" xmlns:xlink="http://www.w3.org/1999/xlink">
    <!-- Generator: Sketch 55.2 (78181) - https://sketchapp.com -->
    <title>gee_me_061</title>
    <desc>Created with Sketch.</desc>
    <defs>
        <path d="M0.261,0.338 C0.205,0.884 0.177,1.435 0.177,1.987 L0.177,12.308 C0.177,27.867 23.389,40.475 52.011,40.475 C80.643,40.475 103.845,27.867 103.845,12.308 L103.845,1.987 C103.845,1.435 103.817,0.884 103.761,0.338 L0.261,0.338 Z" id="path-1"></path>
    </defs>
    <g id="GEE!-ME" stroke="none" stroke-width="1" fill="none" fill-rule="evenodd">
        <g id="gee_me_061" transform="translate(-328.000000, -116.000000)">
            <g transform="translate(307.000000, 116.000000)">
                <g id="lower-limb" transform="translate(59.126898, 835.174000)" fill-rule="nonzero">
                    <path d="M224.132102,122.868 C290.830102,122.868 344.900102,95.363 344.900102,61.434 C344.900102,27.505 290.830102,1.70530257e-13 224.132102,1.70530257e-13 C157.433102,1.70530257e-13 103.363102,27.505 103.363102,61.434 C103.363102,95.363 157.433102,122.868 224.132102,122.868 Z" id="Path" fill="#2D2D2D"></path>
                    <path d="M309.899102,201.6017 C325.402153,201.6017 337.999212,214.043729 338.249603,229.48711 L338.253402,229.956 L338.253402,469.396 C338.253402,485.055647 325.558749,497.7503 309.899102,497.7503 C294.396051,497.7503 281.798992,485.308271 281.548601,469.86489 L281.544802,469.396 L281.544802,229.956 C281.544802,214.296353 294.239455,201.6017 309.899102,201.6017 Z" id="Path" fill="#EBBAAA"></path>
                    <path d="M139.774102,201.6017 C155.277153,201.6017 167.874212,214.043729 168.124603,229.48711 L168.128402,229.956 L168.128402,487.776 C168.128402,503.435647 155.433749,516.1303 139.774102,516.1303 C124.271051,516.1303 111.673992,503.688271 111.423601,488.24489 L111.419802,487.776 L111.419802,229.956 C111.419802,214.296353 124.114455,201.6017 139.774102,201.6017 Z" id="Path" fill="#EBBAAA"></path>
                    <rect id="Rectangle" fill="#071532" x="280.972102" y="409.786" width="59.8591" height="61.9594"></rect>
                    <rect id="Rectangle" fill="#071532" x="109.795102" y="409.786" width="59.8591" height="61.9594"></rect>
                    <polygon id="Path" fill="#2D2D2D" points="246.316102 9.451 79.341102 9.451 91.238102 385.376 106.482102 421.116 180.942102 421.116 198.857102 378.556"></polygon>
                    <path d="M229.514102,0 L381.465102,0 C381.465102,0 414.951102,240.446 374.120102,358.136 C368.977102,372.956 351.392102,407.466 351.392102,407.466 L275.112102,410.616 L266.138102,366.526 L229.514102,0 Z" id="Path" fill="#2D2D2D"></path>
                    <polygon id="Path" fill="#707070" points="96.7823529 403.256 190.782353 403.256 184.767473 443.166 103.611612 443.166"></polygon>
                    <polygon id="Path" fill="#707070" points="272.570102 403.256 355.533102 403.256 351.486102 443.166 276.358102 443.166"></polygon>
                    <path d="M113.021102,53.078 C106.094102,52.144 90.373102,46.948 87.708102,47.823 C90.129102,68.74 74.173102,93.258 69.357102,111.355 C61.510102,140.835 90.590102,140.252 84.129102,159.032 C81.351102,167.106 127.010102,163.406 127.010102,159.032 C127.010102,154.653 127.676102,139.475 127.010102,127.508 C126.344102,115.541 137.668102,55.705 132.339102,54.829 C127.010102,53.953 121.681102,54.245 113.021102,53.078 Z" id="Path" fill="#707070"></path>
                    <path d="M121.678102,57.456 C116.349102,57.164 94.367102,53.078 87.706102,50.451 C83.043102,53.078 75.049102,71.175 83.709102,73.51 C92.368102,75.845 119.013102,83.627 121.678102,81.583 C124.342102,79.54 127.007102,57.748 121.678102,57.456 Z" id="Path" fill="#2D2D2D"></path>
                    <path d="M361.971102,53.078 C368.899102,52.144 384.619102,46.948 387.284102,47.823 C384.863102,68.74 400.819102,93.258 405.635102,111.355 C413.482102,140.835 384.402102,140.252 390.863102,159.032 C393.641102,167.106 347.982102,163.406 347.982102,159.032 C347.982102,154.653 347.316102,139.475 347.982102,127.508 C348.648102,115.541 337.324102,55.705 342.653102,54.829 C347.982102,53.953 353.311102,54.245 361.971102,53.078 Z" id="Path" fill="#707070"></path>
                    <path d="M353.312102,57.456 C358.641102,57.164 380.623102,53.078 387.285102,50.451 C391.947102,53.078 399.941102,71.175 391.281102,73.51 C382.622102,75.845 355.977102,83.627 353.312102,81.583 C350.648102,79.54 347.983102,57.748 353.312102,57.456 Z" id="Path" fill="#2D2D2D"></path>
                    <path d="M11.426902,528.096 C11.238502,506.496 14.180202,493.366 32.951202,484.536 C51.722102,475.716 69.403102,458.746 101.878102,444.206 C101.878102,444.206 106.153102,443.396 113.111102,447.166 C119.049102,450.376 126.676102,458.246 138.168102,458.146 C150.647102,458.036 161.768102,455.396 168.677102,451.766 C171.662102,443.596 178.284102,443.536 178.284102,443.536 C178.284102,443.536 187.608102,461.286 187.763102,479.116 C187.919102,496.936 187.903566,526.556 187.903566,526.556 L11.426902,528.096 Z" id="Path" fill="#A9AEB4"></path>
                    <path d="M94.9220332,445.099537 C96.43334,444.427369 98.2033964,445.107624 98.875565,446.618931 C99.6203655,448.293544 100.156112,450.128354 100.521339,452.121425 L100.646047,452.838558 C101.072807,455.437256 101.171012,457.751915 101.171012,461.586 C101.171012,463.691237 99.0655797,465.120547 97.1283325,464.391888 L96.9673333,464.326139 L85.423,459.233 L87.8191472,467.919473 C88.438077,470.162808 86.3804528,472.200517 84.1713088,471.612952 L84.0132892,471.566486 L72.136,467.738 L72.136012,478.396 C72.136012,480.607107 69.8332802,482.035521 67.8692892,481.107739 L67.7149892,481.029569 L59.911,476.804 L59.911012,484.516 C59.911012,486.11097 58.664211,487.414734 57.0920757,487.505826 L56.916102,487.51091 C55.3211319,487.51091 54.0173677,486.264109 53.9262761,484.691974 L53.921192,484.516 L53.921192,471.776 C53.921192,469.564893 56.2239239,468.136479 58.1879148,469.064261 L58.3422149,469.142431 L66.146,473.368 L66.146192,463.626 C66.146192,461.654053 68.0114294,460.237544 69.8892232,460.725839 L70.0599148,460.775514 L80.569,464.163 L77.9700568,454.742527 C77.3130834,452.361301 79.6502364,450.279111 81.9150256,451.143819 L82.0658707,451.205861 L95.077,456.945 L95.0733555,456.872305 C94.9982717,455.670109 94.876147,454.613907 94.683831,453.504966 L94.6296235,453.201071 C94.345035,451.648049 93.9403207,450.261995 93.4026391,449.053069 C92.7304705,447.541762 93.4107265,445.771706 94.9220332,445.099537 Z" id="Path" fill="#FFFFFF"></path>
                    <path d="M18.529702,486.186 C24.288802,484.106 30.387902,482.526 42.081102,479.876 L37.111902,494.176 L37.254202,510.476 L3.97140201,510.766162 C2.61300201,510.786 0.186002012,508.966 1.34450201,501.626 C2.79260201,492.436 10.346502,489.156 18.529702,486.186 Z" id="Path" fill="#EAF4FB"></path>
                    <path d="M188.418102,523.026 L187.494102,506.626 L38.257802,508.946 L1.04730201,506.216 L0.0362020123,517.906 C-0.425197988,523.246 3.57850201,527.926 8.92320201,528.296 L38.444502,530.336 L183.708102,528.086 C186.431102,528.046 188.571102,525.746 188.418102,523.026 Z" id="Path" fill="#C7CBCF"></path>
                    <path d="M440.396102,529.976 C440.585102,508.376 437.643102,495.246 418.872102,486.416 C400.101102,477.596 382.420102,460.636 349.945102,446.086 C349.945102,446.086 345.670102,445.276 338.712102,449.046 C332.774102,452.256 325.147102,460.136 313.655102,460.036 C301.176102,459.926 290.055102,457.276 283.146102,453.656 C280.161102,445.476 273.540102,445.416 273.540102,445.416 C273.540102,445.416 264.215102,463.166 264.060102,480.996 C263.904102,498.826 263.919638,528.436 263.919638,528.436 L440.396102,529.976 Z" id="Path" fill="#A9AEB4"></path>
                    <path d="M352.946655,448.501146 C353.6176,446.989296 355.387106,446.307608 356.898956,446.978553 C358.356811,447.625536 359.042743,449.294012 358.488284,450.767946 L358.421549,450.930854 C357.886557,452.136358 357.483277,453.514845 357.198891,455.057 C357.005075,456.108016 356.875103,457.09681 356.78985,458.18697 L356.745,458.835 L369.757333,453.095861 C372.017392,452.098872 374.417959,454.107623 373.892543,456.474251 L373.853147,456.632527 L371.255,466.049 L381.761654,462.656042 C383.638827,462.049774 385.560506,463.39053 385.671922,465.328238 L385.677012,465.506 L385.677,475.254 L393.479324,471.023333 C395.423707,469.968833 397.777827,471.313441 397.897273,473.483031 L397.902012,473.656 L397.902012,486.396 C397.902012,488.050043 396.561145,489.39091 394.907102,489.39091 C393.312132,489.39091 392.008368,488.144109 391.917276,486.571974 L391.912192,486.396 L391.912,478.686 L384.10988,482.918667 C382.165497,483.973167 379.811377,482.628559 379.691931,480.458969 L379.687192,480.286 L379.687,469.619 L367.81155,473.455958 C365.59631,474.171412 363.471323,472.202261 363.964354,469.96938 L364.004057,469.809473 L366.4,461.123 L354.855871,466.216139 C352.929721,467.065829 350.772231,465.716382 350.657017,463.64984 L350.652192,463.476 L350.654824,462.461602 C350.67477,458.871264 350.815004,456.646254 351.308391,453.970743 C351.673305,451.991906 352.206842,450.168177 352.946655,448.501146 Z" id="Path" fill="#FFFFFF"></path>
                    <path d="M433.294102,488.076 C427.534102,485.986 421.435102,484.406 409.742102,481.756 L414.711102,496.066 L414.569102,512.366 L447.852102,512.656041 C449.210102,512.666 451.637102,510.856 450.479102,503.506 C449.031102,494.326 441.477102,491.036 433.294102,488.076 Z" id="Path" fill="#EAF4FB"></path>
                    <path d="M263.405102,524.906 L264.329102,508.506 L413.565102,510.826 L450.776102,508.096 L451.787102,519.796 C452.248102,525.126 448.245102,529.806 442.900102,530.176 L413.379102,532.216 L268.115102,529.966 C265.392102,529.926 263.252102,527.626 263.405102,524.906 Z" id="Path" fill="#C7CBCF"></path>
                    <path d="M123.258102,484.106 C118.862102,485.296 115.329102,485.106 113.341102,483.546 C108.220102,479.466 111.580102,473.336 113.004102,470.926 C110.454102,473.866 107.921102,476.806 105.935102,480.026 C102.804102,485.056 101.444102,490.586 103.491102,494.156 C107.161102,500.586 116.153102,497.696 121.891102,495.156 L175.137102,471.616 L123.258102,484.106 Z" id="Path" fill="#EAF4FB"></path>
                    <path d="M324.238102,485.226 C328.504102,486.476 331.953102,486.336 333.921102,484.806 C338.990102,480.806 335.826102,474.626 334.482102,472.196 C336.914102,475.166 339.331102,478.146 341.208102,481.396 C344.169102,486.466 345.393102,492.016 343.331102,495.556 C339.633102,501.936 330.917102,498.916 325.368102,496.296 L273.872102,472.006 L324.238102,485.226 Z" id="Path" fill="#EAF4FB"></path>
                </g>
                <g id="upper-limb" transform="translate(0.733391, 335.908000)" fill-rule="nonzero">
                    <path d="M389.850609,108.155 C389.850609,145.315 343.436609,175.439 286.182609,175.439 C228.928609,175.439 182.514609,145.315 182.514609,108.155 C182.514609,70.995 228.928609,40.87 286.182609,40.87 C343.436609,40.87 389.850609,70.995 389.850609,108.155 Z" id="Path" fill="#565656"></path>
                    <path d="M104.765609,126.1 C104.765609,120.977 109.816609,117.382 114.656609,119.062 L282.173609,177.177 C285.171609,178.217 287.181609,181.042 287.181609,184.215 L287.181609,528.834 C287.181609,532.948 283.846609,536.283 279.731609,536.283 L112.215609,536.283 C108.100609,536.283 104.765609,532.948 104.765609,528.834 L104.765609,126.1 Z" id="Path" fill="#C43C3C"></path>
                    <path d="M104.765609,133.513 C104.765609,126.891 112.759609,123.56 117.461609,128.224 L166.358609,176.729 C167.768609,178.127 168.561609,180.031 168.561609,182.018 L168.561609,528.834 C168.561609,532.948 165.225609,536.283 161.111609,536.283 L112.215609,536.283 C108.100609,536.283 104.765609,532.948 104.765609,528.834 L104.765609,133.513 Z" id="Path" fill="#27212D"></path>
                    <path d="M64.4551429,244.375184 C72.4140171,227.090899 92.8776407,219.53116 110.161925,227.490034 C127.273367,235.369319 134.853782,255.50451 127.281191,272.67735 L127.047075,273.196816 C117.702294,293.490875 113.171524,331.27116 114.497105,374.731631 L114.539068,376.050342 C115.798047,414.041237 121.574392,451.380818 127.386287,465.815467 L127.562411,466.245847 C134.871984,483.814578 126.555293,503.982429 108.986562,511.292002 C91.4178309,518.601575 71.2499803,510.284884 63.940407,492.716153 C54.215321,469.34168 47.1913074,424.30069 45.6679747,378.332658 C43.884521,324.515227 49.5170606,276.816213 64.4551429,244.375184 Z" id="Path" fill="#EBBAAA"></path>
                    <rect id="Rectangle" fill="#E44343" transform="translate(111.419208, 227.508976) rotate(25.873726) translate(-111.419208, -227.508976) " x="51.0082206" y="97.6250012" width="120.821974" height="259.767949" rx="60.4109872"></rect>
                    <path d="M145.301609,437.908289 C145.576609,449.604465 134.952609,459.322567 121.577609,459.608522 L54.116509,461.047917 C40.756009,461.332123 29.707709,452.09586 29.432909,440.411927 L26.012509,295.011187 C25.353909,267.013821 50.784309,243.752641 82.797509,243.069671 C114.777609,242.387577 141.222609,264.496192 141.880609,292.463825 L145.301609,437.908289 Z" id="Path" fill="#E44343" transform="translate(85.653415, 352.054304) rotate(-5.000000) translate(-85.653415, -352.054304) "></path>
                    <path d="M467.603609,125.584 C467.603609,120.612 462.824609,117.035 458.053609,118.437 L257.641609,177.342 C254.470609,178.274 252.292609,181.184 252.292609,184.489 L252.292609,528.834 C252.292609,532.948 255.628609,536.283 259.742609,536.283 L460.153609,536.283 C464.268609,536.283 467.603609,532.948 467.603609,528.834 L467.603609,125.584 Z" id="Path" fill="#C43C3C"></path>
                    <path d="M470.594609,133.513 C470.594609,126.891 462.600609,123.56 457.898609,128.224 L409.002609,176.729 C407.591609,178.127 406.798609,180.031 406.798609,182.018 L406.798609,528.834 C406.798609,532.948 410.134609,536.283 414.248609,536.283 L463.145609,536.283 C467.259609,536.283 470.594609,532.948 470.594609,528.834 L470.594609,133.513 Z" id="Path" fill="#27212D"></path>
                    <path d="M367.733609,99.121 C363.032609,135.977 310.080609,165.356 284.192609,175.439 L424.407609,158.686 C424.407609,158.686 436.582609,191.726 460.091609,119.131 C483.600609,46.536 424.407609,16.753 424.407609,16.753 L367.733609,0 L305.182609,46.536 C327.992609,48.707 372.435609,62.265 367.733609,99.121 Z" id="Path" fill="#E44343"></path>
                    <path d="M283.331609,204.346 C250.030609,156.402 363.337609,136.014 368.058609,99.147 C372.780609,62.281 328.154609,48.72 305.251609,46.548 L368.058609,0 L368.058609,28.394 C368.058609,28.394 409.790609,40.031 409.790609,81.925 C409.790609,97.314 381.950609,114.887 368.058609,129.869 C344.135609,155.671 327.737609,173.476499 327.737609,173.476499 L283.331609,204.346 Z" id="Path" fill="#898176"></path>
                    <path d="M477.014971,246.113952 C494.299301,238.155176 514.762882,245.715032 522.721657,262.999362 C538.170626,296.550388 540.074977,341.537607 532.569558,393.668839 L532.232619,395.967866 C526.626172,433.563467 516.005581,473.235412 506.02358,497.227228 C498.713965,514.795942 478.546095,523.112585 460.977381,515.802971 C443.408667,508.493356 435.092024,488.325486 442.401638,470.756772 C450.205545,452.000021 459.463969,417.285984 464.221137,384.831907 L464.36391,383.849161 C470.082722,344.127368 468.761733,311.172946 460.385544,292.385607 L460.129561,291.820638 C452.170785,274.536308 459.730641,254.072727 477.014971,246.113952 Z" id="Path" fill="#EBBAAA"></path>
                    <path d="M438.271867,442.914574 C437.995867,456.289574 448.620867,467.402574 461.994867,467.729574 L529.456867,469.374574 C542.816867,469.700574 553.864867,459.138574 554.139867,445.776574 L557.560867,279.506574 C558.218867,247.490574 532.788867,220.890574 500.775867,220.109574 C468.795867,219.329574 442.350867,244.611574 441.692867,276.593574 L438.271867,442.914574 Z" id="Path" fill="#E44343" transform="translate(497.919981, 344.736961) rotate(4.000000) translate(-497.919981, -344.736961) "></path>
                    <path d="M213.607609,99.121 C218.309609,135.977 271.261609,165.356 297.149609,175.439 L156.933609,158.686 C156.933609,158.686 144.759609,191.726 121.249609,119.131 C97.740909,46.536 156.933609,16.753 156.933609,16.753 L213.607609,0 L276.158609,46.536 C253.349609,48.707 208.905609,62.265 213.607609,99.121 Z" id="Path" fill="#D84747"></path>
                    <path d="M153.917609,174.004 L142.645609,156.499 L189.578609,162.128 L197.941609,174.011 C199.748609,176.578 197.764609,180.092 194.633609,179.871 L159.656609,177.402 C157.314609,177.236 155.188609,175.977 153.917609,174.004 Z" id="Path" fill="#898176"></path>
                    <path d="M297.149609,175.439 C271.158609,165.356 219.620609,136.442 214.900609,99.586 C210.179609,62.73 253.176609,48.707 276.075609,46.536 L213.276609,0 L213.276609,28.387 C213.276609,28.387 171.551609,40.021 171.551609,81.902 C171.551609,97.288 199.387609,114.856 213.276609,129.834 C237.196609,155.628 252.895609,175.439 252.895609,175.439 L297.149609,175.439 Z" id="Path" fill="#898176"></path>
                    <path d="M266.169609,534.29 C265.333609,434.749 257.808609,231.6 266.169609,215.328 C270.323609,207.246 281.169609,204.492 294.392609,196.568 L294.392609,534.29 L266.169609,534.29 Z" id="Path" fill="#E44343"></path>
                    <path d="M331.46532,169.626182 L335.518852,168.784497 C376.82715,160.262403 415.331065,154.020337 423.069536,156.060664 L423.301317,156.127127 L429.099876,157.936316 L296.255,197.952 L296.255009,536.1524 L264.322785,536.1524 L264.235042,526.537274 C264.084315,511.914503 263.846031,497.644244 263.278271,469.339901 L261.884542,401.455685 L261.672479,390.686918 C259.466234,276.522155 259.842392,223.566851 264.513195,214.476633 C266.566648,210.481445 269.924772,207.624222 275.719445,204.40261 L276.213999,204.130969 C276.611633,203.936879 288.556109,197.834931 293.076201,195.183268 L293.435283,194.970483 L293.977886,194.642954 C296.341477,193.206096 298.866931,191.539984 301.688967,189.572643 L303.000632,188.651874 C304.037566,187.919102 305.122085,187.14164 306.313714,186.278091 L315.588785,179.525637 C324.979648,172.725417 326.982039,171.523115 330.852257,169.883518 L331.46532,169.626182 Z M292.53,532.427 L292.53,199.769 L290.564488,200.840005 C287.680279,202.395279 284.342973,204.137507 281.831174,205.43628 L277.99,207.404 L277.529755,207.657904 L276.635617,208.163881 C272.284453,210.672236 269.70884,212.876423 268.129041,215.622478 L267.974351,215.898921 L267.826127,216.179165 C263.573628,224.455288 263.239265,280.267431 265.468894,394.325058 L267.289207,483.835756 C267.672558,503.777632 267.852161,515.591737 267.975006,528.020287 L268.016,532.427 L292.53,532.427 Z M305.914,191.152 L409.695,159.89 L408.174426,160.04975 C391.860529,161.817267 364.244098,166.667036 336.222934,172.442904 L332.572,173.2 L331.940386,173.469918 C328.66836,174.886638 326.50969,176.224318 318.083835,182.318589 L307.986901,189.665064 L305.914,191.152 Z" id="Shape" fill="#E77070"></path>
                    <rect id="Rectangle" fill="#E44343" transform="translate(465.231116, 223.911974) scale(-1, 1) rotate(31.688786) translate(-465.231116, -223.911974) " x="404.266609" y="95.092" width="121.929014" height="257.639948" rx="60.9643"></rect>
                    <path d="M320.266609,307.837233 L320.266609,235.035233 C320.266609,233.789233 320.889609,232.625233 321.927609,231.934233 L352.305609,211.716233 C353.770609,210.741233 355.717609,210.924233 356.975609,212.154233 L375.716609,230.498233 C377.161609,231.912233 377.214609,234.220233 375.836609,235.699233 L366.060609,246.193233 C364.874609,247.466233 364.728609,249.391233 365.708609,250.830233 L378.056609,268.945233 C378.227609,269.196233 378.428609,269.425233 378.655609,269.627233 L398.571609,287.387233 C400.274609,288.906233 400.224609,291.585233 398.465609,293.038233 L378.524609,309.519233 C378.384609,309.635233 378.252609,309.761233 378.130609,309.896233 L357.103609,333.221233 C355.810609,334.655233 353.635609,334.863233 352.093609,333.701233 L321.747609,310.811233 C320.814609,310.107233 320.266609,309.006233 320.266609,307.837233 Z" id="Path" fill="#E44343"></path>
                    <path d="M350.757828,209.390592 L320.379798,229.608612 C318.563682,230.817606 317.473004,232.854272 317.473004,235.035233 L317.473004,307.837233 C317.473004,309.882662 318.432311,311.809314 320.064952,313.041231 L350.411314,335.931505 C353.110568,337.965573 356.91585,337.601198 359.178352,335.091974 L380.205552,311.766751 C380.233985,311.735292 380.268772,311.702026 380.306979,311.670369 L400.245318,295.191571 C403.323402,292.648958 403.411204,287.960522 400.431148,285.302444 L380.514904,267.542226 C380.457132,267.490815 380.407719,267.434546 380.365345,267.372349 L368.016948,249.256765 C367.771899,248.896943 367.808443,248.415407 368.104596,248.097529 L377.880675,237.603444 C380.292156,235.015215 380.199095,230.97595 377.670452,228.501554 L358.928631,210.156751 C356.727438,208.004551 353.320825,207.684843 350.757828,209.390592 Z M354.932593,214.074211 L355.021491,214.150642 L373.762491,232.494642 C374.123944,232.848342 374.137232,233.425068 373.792676,233.794878 L364.016542,244.289021 C361.940874,246.516952 361.685237,249.885403 363.399608,252.402728 L375.74827,270.5187 C376.047837,270.958415 376.400533,271.360049 376.798498,271.714184 L396.712314,289.472239 C397.138182,289.852094 397.125642,290.521651 396.686477,290.884418 L376.7449,307.365894 C376.498659,307.56992 376.269715,307.788853 376.05796,308.023172 L355.028665,331.350715 C354.705631,331.708975 354.160965,331.76113 353.774861,331.470174 L323.429904,308.580961 C323.197233,308.405398 323.060214,308.130212 323.060214,307.837233 L323.060214,235.035233 C323.060214,234.723545 323.216075,234.4325 323.475671,234.259686 L353.85342,214.041853 C354.186702,213.820044 354.619841,213.837686 354.932593,214.074211 Z" id="Path-Copy" fill="#000000"></path>
                    <polygon id="Path" fill="#000000" points="336.524214 224.161 336.524214 320.234 330.937004 320.234 330.937004 224.161"></polygon>
                    <polygon id="Path" fill="#898176" points="330.501609 241.026 336.951609 241.026 339.715609 267.599 327.737609 267.599"></polygon>
                </g>
                <g id="hand" transform="translate(98.221100, 0.825970)">
                    <rect id="Rectangle" fill="#EBBAAA" fill-rule="nonzero" x="149.9229" y="369.23303" width="81.9457" height="110.813" rx="35.3028"></rect>
                    <path d="M42.8349,304.26503 C19.1779,304.26503 0,282.37703 0,255.37703 C0,228.37603 19.1779,206.48803 42.8349,206.48803 C66.4929,206.48803 85.6709,228.37603 85.6709,255.37703 C85.6709,282.37703 66.4929,304.26503 42.8349,304.26503 Z" id="Path" fill="#EBBAAA" fill-rule="nonzero"></path>
                    <path d="M333.3719,304.26503 C309.7149,304.26503 290.5369,282.37703 290.5369,255.37703 C290.5369,228.37603 309.7149,206.48803 333.3719,206.48803 C357.0299,206.48803 376.2079,228.37603 376.2079,255.37703 C376.2079,282.37703 357.0299,304.26503 333.3719,304.26503 Z" id="Path" fill="#EBBAAA" fill-rule="nonzero"></path>
                    <path d="M28.6479,220.53703 C10.3569,121.57403 86.3269,30.27563 186.9659,30.27563 C284.2539,30.27563 359.3149,115.89703 346.5819,212.34803 L333.5619,310.97003 C324.0239,383.21503 262.4319,437.21103 189.5599,437.21103 C119.5209,437.21103 59.4569,387.23003 46.7269,318.35803 L28.6479,220.53703 Z" id="Path" fill="#F4D5CC" fill-rule="nonzero"></path>
                    <path d="M28.2149,153.47503 C32.5939,114.34503 30.4789,119.30703 49.5009,77.49723 C68.5219,35.68713 101.0099,65.21973 84.2069,83.22893 C67.4029,101.23803 68.9099,94.74503 65.6499,136.18303 C62.3909,177.62103 39.6589,249.41303 39.6589,249.41303 C39.4899,251.35703 37.9969,252.83403 36.2159,252.83403 C34.3549,252.83403 32.8319,251.23703 32.7529,249.21703 C32.7529,249.21703 23.8369,192.60403 28.2149,153.47503 Z" id="Path" fill="#272727" fill-rule="nonzero"></path>
                    <path d="M347.0579,147.87603 C342.6789,108.37603 344.7939,126.70703 325.7719,84.50043 C306.7499,42.29393 289.9469,59.30493 306.7499,77.48473 C323.5539,95.66503 314.2779,72.86063 314.2779,116.62703 C314.2779,160.39403 335.6139,244.72303 335.6139,244.72303 C335.7829,246.68603 337.2759,248.17703 339.0569,248.17703 C340.9179,248.17703 342.4409,246.56503 342.5199,244.52603 C342.5199,244.52603 351.4359,187.37603 347.0579,147.87603 Z" id="Path" fill="#272727" fill-rule="nonzero"></path>
                    <path d="M105.035736,174.542749 L150.986736,175.874749 C155.61338,176.008863 159.255296,179.868221 159.121181,184.494866 C158.989505,189.037389 155.266818,192.630667 150.752648,192.632898 L150.501064,192.629311 L104.550064,191.297311 C99.9234198,191.163197 96.2815045,187.303839 96.4156188,182.677194 C96.5472948,178.134671 100.269982,174.541393 104.784152,174.539162 L105.035736,174.542749 Z" id="Path" fill="#393939" fill-rule="nonzero"></path>
                    <path d="M275.710064,174.542749 C280.336709,174.408634 284.196067,178.05055 284.330181,182.677194 C284.461857,187.219718 280.953565,191.022603 276.447105,191.286319 L276.195736,191.297311 L230.244736,192.629311 C225.618091,192.763426 221.758733,189.12151 221.624619,184.494866 C221.492943,179.952342 225.001235,176.149457 229.507695,175.885741 L229.759064,175.874749 L275.710064,174.542749 Z" id="Path" fill="#393939" fill-rule="nonzero"></path>
                    <path d="M180.454082,220.647234 L194.825718,227.284826 C189.201086,239.463213 184.8461,257.536162 184.8461,271.306155 C184.8461,278.744163 186.075872,284.587282 188.355869,288.289749 C190.396809,291.604013 193.278468,293.252917 197.964942,293.337406 L198.3489,293.34083 L198.3489,309.17123 C187.968168,309.17123 179.869454,304.698859 174.876306,296.590529 C170.823577,290.009339 169.0157,281.419418 169.0157,271.306155 C169.0157,255.400509 173.744913,235.504951 180.12274,221.373007 L180.454082,220.647234 Z" id="Path" fill="#EBBAAA" fill-rule="nonzero"></path>
                    <path d="M256.0839,209.99763 C262.157391,209.99763 267.099182,214.843016 267.254534,220.87905 L267.2583,221.17203 L267.2583,248.17703 C267.2583,254.348481 262.255351,259.35143 256.0839,259.35143 C250.010409,259.35143 245.068618,254.506044 244.913266,248.47001 L244.9095,248.17703 L244.9095,221.17203 C244.9095,215.000579 249.912449,209.99763 256.0839,209.99763 Z" id="Path" fill="#000000" fill-rule="nonzero"></path>
                    <path d="M189.4499,12.08713 L189.4489,12.08713 C189.3799,12.08713 189.3109,12.08713 189.2409,12.08713 C189.1719,12.08713 189.1019,12.08713 189.0329,12.08713 L189.0319,12.08713 C144.7469,12.20293 40.0439,23.50663 31.0009,135.82603 C42.7749,125.16903 40.3659,125.97803 56.5179,119.02303 C69.5119,113.42903 79.1859,85.71463 113.9139,79.78433 C148.6419,73.85393 166.2699,81.19633 189.0319,81.19633 C206.7889,81.19633 227.5699,75.83073 252.4319,81.19633 C277.2939,86.56183 300.9639,114.87203 312.4799,119.02303 C335.9389,127.48103 323.1299,123.22003 346.0579,135.82603 C331.0439,24.43783 233.7329,12.20293 189.4499,12.08713 Z" id="Path" fill="#272727"></path>
                    <polygon id="Path" fill="#272727" fill-rule="nonzero" points="68.1449 45.45663 60.1299 77.72693 181.8519 54.80593 323.0409 88.11503 321.9659 61.20063 311.8239 57.55953 311.1799 47.24773 298.6059 47.98253 297.6109 32.04613 281.4449 32.99083 277.0909 21.01413 262.7219 21.85393 253.4289 10.16593 238.8439 14.78173 233.8849 7.54463 218.6169 8.43693 218.0899 0 197.9609 9.64413 192.0449 1.52213 183.5909 10.48393 174.0829 2.57188 157.5459 12.00603 146.2419 4.19903 135.0929 13.31823 127.0109 13.79063 118.4979 21.81503 114.4369 14.52543 100.1649 31.35413 90.0509 28.18183 78.1699 47.22283"></polygon>
                    <path d="M120.5939,209.99763 C126.667391,209.99763 131.609182,214.843016 131.764534,220.87905 L131.7683,221.17203 L131.7683,248.17703 C131.7683,254.348481 126.765351,259.35143 120.5939,259.35143 C114.520409,259.35143 109.578618,254.506044 109.423266,248.47001 L109.4195,248.17703 L109.4195,221.17203 C109.4195,215.000579 114.422449,209.99763 120.5939,209.99763 Z" id="Path" fill="#000000" fill-rule="nonzero"></path>
                    <g id="Clipped" transform="translate(135.778900, 341.174030)">
                        <mask id="mask-2" fill="white">
                            <use xlink:href="#path-1"></use>
                        </mask>
                        <g id="Path"></g>
                        <path d="M0.177,0.349 L0.177,10.945 C0.177,27.257 23.389,40.475 52.011,40.475 C80.643,40.475 103.845,27.257 103.845,10.945 L103.845,0.349 L0.177,0.349 Z" id="Path" fill="#393939" mask="url(#mask-2)"></path>
                        <path d="M52.421,49.729 C68.111,49.729 80.83,45.49 80.83,40.26 C80.83,35.03 68.111,30.79 52.421,30.79 C36.731,30.79 24.012,35.03 24.012,40.26 C24.012,45.49 36.731,49.729 52.421,49.729 Z" id="Path" fill="#FF6C6C" fill-rule="nonzero" mask="url(#mask-2)"></path>
                        <rect id="Rectangle" fill="#FFFFFF" fill-rule="nonzero" mask="url(#mask-2)" x="6.067" y="-0.11" width="92.7032" height="12.9585"></rect>
                    </g>
                </g>
            </g>
        </g>
    </g>
</svg>