<?xml version="1.0" encoding="UTF-8"?>
<svg width="537px" height="1385px" viewBox="0 0 537 1385" version="1.1" xmlns="http://www.w3.org/2000/svg" xmlns:xlink="http://www.w3.org/1999/xlink">
    <!-- Generator: Sketch 55.2 (78181) - https://sketchapp.com -->
    <title>gee_me_043</title>
    <desc>Created with Sketch.</desc>
    <defs>
        <path d="M0,63 C0,47.23 5.206,38.57 14.628,32.45 C59.458,3.35 117.586,1.98 171,0 C171.436,0 172.831,3.24 173.022,3.63 C174.939,7.57 185,29.05 185,46.24 C185,59.39 186.126,72.32 182.5,79 C180.864,82.01 170.649,83.66 167.218,83.66 L5.562,83.66 C2.49,83.66 0,66.07 0,63 Z" id="path-1"></path>
        <path d="M185.166,63 C185.166,47.23 179.96,38.57 170.538,32.45 C125.708,3.35 67.579,1.98 14.166,0 C13.729,0 12.334,3.24 12.143,3.63 C10.226,7.57 0.166,29.05 0.166,46.24 C0.166,59.39 -0.96,72.32 2.666,79 C4.302,82.01 14.517,83.66 17.947,83.66 L179.603,83.66 C182.675,83.66 185.166,66.07 185.166,63 Z" id="path-3"></path>
        <polygon id="path-5" points="0 0 135 0 130 359.79 122 388 45.5 384 33.886 353.3"></polygon>
        <linearGradient x1="19.8459016%" y1="67.3786181%" x2="101.637158%" y2="33.0115043%" id="linearGradient-7">
            <stop stop-color="#C4C4C4" stop-opacity="0" offset="0%"></stop>
            <stop stop-color="#C4C4C4" stop-opacity="0.26" offset="45.8333%"></stop>
            <stop stop-color="#C4C4C4" stop-opacity="0" offset="100%"></stop>
        </linearGradient>
        <linearGradient x1="29.4572462%" y1="70.1701838%" x2="79.2739413%" y2="45.2468974%" id="linearGradient-8">
            <stop stop-color="#C4C4C4" stop-opacity="0" offset="0%"></stop>
            <stop stop-color="#C4C4C4" stop-opacity="0.26" offset="45.8333%"></stop>
            <stop stop-color="#C4C4C4" stop-opacity="0" offset="100%"></stop>
        </linearGradient>
        <linearGradient x1="16.6078917%" y1="52.3187144%" x2="79.3940867%" y2="70.4378617%" id="linearGradient-9">
            <stop stop-color="#C4C4C4" stop-opacity="0" offset="0%"></stop>
            <stop stop-color="#C4C4C4" stop-opacity="0.26" offset="45.8333%"></stop>
            <stop stop-color="#C4C4C4" stop-opacity="0" offset="100%"></stop>
        </linearGradient>
        <linearGradient x1="5.689431%" y1="46.9342299%" x2="91.9732201%" y2="63.4350648%" id="linearGradient-10">
            <stop stop-color="#C4C4C4" stop-opacity="0" offset="0%"></stop>
            <stop stop-color="#C4C4C4" stop-opacity="0.26" offset="45.8333%"></stop>
            <stop stop-color="#C4C4C4" stop-opacity="0" offset="100%"></stop>
        </linearGradient>
        <linearGradient x1="2.15676851%" y1="54.4704349%" x2="102.447549%" y2="50.0610183%" id="linearGradient-11">
            <stop stop-color="#C4C4C4" stop-opacity="0" offset="0%"></stop>
            <stop stop-color="#C4C4C4" stop-opacity="0.26" offset="45.8333%"></stop>
            <stop stop-color="#C4C4C4" stop-opacity="0" offset="100%"></stop>
        </linearGradient>
        <linearGradient x1="0%" y1="59.7402597%" x2="87.8261682%" y2="59.7402597%" id="linearGradient-12">
            <stop stop-color="#C4C4C4" stop-opacity="0" offset="0%"></stop>
            <stop stop-color="#C4C4C4" stop-opacity="0.26" offset="45.8333%"></stop>
            <stop stop-color="#C4C4C4" stop-opacity="0" offset="100%"></stop>
        </linearGradient>
        <linearGradient x1="0%" y1="59.7402597%" x2="87.826%" y2="59.7402597%" id="linearGradient-13">
            <stop stop-color="#C4C4C4" stop-opacity="0" offset="0%"></stop>
            <stop stop-color="#C4C4C4" stop-opacity="0.36" offset="45.8333%"></stop>
            <stop stop-color="#C4C4C4" stop-opacity="0" offset="82.6677%"></stop>
            <stop stop-color="#C4C4C4" stop-opacity="0" offset="100%"></stop>
        </linearGradient>
        <linearGradient x1="0%" y1="59.7402597%" x2="87.8262673%" y2="59.7402597%" id="linearGradient-14">
            <stop stop-color="#C4C4C4" stop-opacity="0" offset="0%"></stop>
            <stop stop-color="#C4C4C4" stop-opacity="0.14" offset="20.3125%"></stop>
            <stop stop-color="#C4C4C4" stop-opacity="0" offset="40.625%"></stop>
            <stop stop-color="#C4C4C4" stop-opacity="0.22" offset="68.75%"></stop>
            <stop stop-color="#C4C4C4" stop-opacity="0" offset="96.3542%"></stop>
        </linearGradient>
        <linearGradient x1="27.434436%" y1="62.6241847%" x2="75.7916462%" y2="56.8835538%" id="linearGradient-15">
            <stop stop-color="#C4C4C4" stop-opacity="0" offset="0%"></stop>
            <stop stop-color="#C4C4C4" stop-opacity="0.26" offset="45.8333%"></stop>
            <stop stop-color="#C4C4C4" stop-opacity="0" offset="100%"></stop>
        </linearGradient>
        <linearGradient x1="0%" y1="59.7402597%" x2="87.8258242%" y2="59.7402597%" id="linearGradient-16">
            <stop stop-color="#C4C4C4" stop-opacity="0" offset="0%"></stop>
            <stop stop-color="#C4C4C4" stop-opacity="0.14" offset="20.3125%"></stop>
            <stop stop-color="#C4C4C4" stop-opacity="0" offset="40.625%"></stop>
            <stop stop-color="#C4C4C4" stop-opacity="0.22" offset="68.75%"></stop>
            <stop stop-color="#C4C4C4" stop-opacity="0" offset="96.3542%"></stop>
        </linearGradient>
        <linearGradient x1="50.027195%" y1="23.3017729%" x2="56.7500488%" y2="82.2297232%" id="linearGradient-17">
            <stop stop-color="#180000" offset="0%"></stop>
            <stop stop-color="#A65A3B" offset="100%"></stop>
        </linearGradient>
        <linearGradient x1="49.972805%" y1="23.301777%" x2="43.2499512%" y2="82.2297183%" id="linearGradient-18">
            <stop stop-color="#180000" offset="0%"></stop>
            <stop stop-color="#A65A3B" offset="100%"></stop>
        </linearGradient>
        <path d="M150.674,378 C150.231,380.705 150,383.482 150,386.313 L150,405.069 C150,433.235 172.833,456.069 201,456.069 C229.167,456.069 252,433.235 252,405.069 L252,386.313 C252,383.482 251.769,380.705 251.326,378 L150.674,378 Z" id="path-19"></path>
    </defs>
    <g id="GEE!-ME" stroke="none" stroke-width="1" fill="none" fill-rule="evenodd">
        <g id="gee_me_043" transform="translate(-331.000000, -108.000000)">
            <g transform="translate(331.000000, 108.000000)">
                <g id="lower-limb" transform="translate(84.000000, 894.000000)">
                    <path d="M175.145,115.92 C238.928,115.92 290.635,91.427 290.635,61.214 C290.635,31.001 238.928,6.508 175.145,6.508 C111.361,6.508 59.654,31.001 59.654,61.214 C59.654,91.427 111.361,115.92 175.145,115.92 Z" id="Path" fill="#000000" fill-rule="nonzero"></path>
                    <path d="M260.326,243.92 C275.088571,243.92 287.083951,255.767754 287.322383,270.473506 L287.326,270.92 L287.326,438.92 C287.326,453.831688 275.237688,465.92 260.326,465.92 C245.563429,465.92 233.568049,454.072246 233.329617,439.366494 L233.326,438.92 L233.326,270.92 C233.326,256.008312 245.414312,243.92 260.326,243.92 Z" id="Path" fill="#DCE1E9" fill-rule="nonzero"></path>
                    <path d="M121.337829,244.079797 C136.01303,242.476051 149.224509,252.950556 151.059102,267.54337 L151.111203,267.986829 L167.840203,421.066829 C169.460149,435.890264 158.756606,449.220258 143.933171,450.840203 C129.25797,452.443949 116.046491,441.969444 114.211898,427.37663 L114.159797,426.933171 L97.4307968,273.853171 C95.8108514,259.029736 106.514394,245.699742 121.337829,244.079797 Z" id="Path" fill="#DCE1E9" fill-rule="nonzero"></path>
                    <polygon id="Path" fill="#000000" fill-rule="nonzero" points="51 0 186 0 181 359.79 173 388 96.5 384 84.886 353.3"></polygon>
                    <polygon id="Path" fill="#000000" fill-rule="nonzero" points="184.714 6.021 320.172 6.021 315 352 304 381 227.5 394.5 218.739 360"></polygon>
                    <polygon id="Path" fill="#000000" fill-rule="nonzero" points="94.5 376 176.5 376 164 423 106 419.5"></polygon>
                    <polygon id="Path" fill="#000000" fill-rule="nonzero" points="223 376 305.5 377 293.5 422 234 423.5"></polygon>
                    <path d="M5.68434189e-14,470 C5.68434189e-14,439.3 19.726,435.55 51.876,425.03 C67.623,419.88 83.694,415.39 100,412.69 C110.247,410.99 113,420 131,420 C147.052,420 167.078,412.05 171.225,410.33 C171.745,410.11 172.361,409.92 172.775,410.3 C172.875,410.39 172.96,410.51 173.022,410.63 C174.939,414.57 185,436.05 185,453.24 C185,466.39 186.126,479.32 182.5,486 C180.864,489.01 170.649,490.66 167.218,490.66 L5.562,490.66 C2.49,490.66 5.68434189e-14,473.07 5.68434189e-14,470 Z" id="Path" fill="#DEDEDE" fill-rule="nonzero"></path>
                    <g id="Clipped" transform="translate(0.000000, 407.000000)">
                        <mask id="mask-2" fill="white">
                            <use xlink:href="#path-1"></use>
                        </mask>
                        <g id="Path"></g>
                        <g id="Group" mask="url(#mask-2)" fill-rule="nonzero">
                            <g transform="translate(-24.000000, -2.000000)" id="Path">
                                <path d="M47.5,44 C32,44 27.667,35 25.9999,33.5 C22.9999,37 25.4999,51.1 23.4999,57.5 C21.4999,63.9 24.3332,70.17 25.9999,72.5 L165.5,79 C166.333,65.67 167.5,39 165.5,39 C163,39 147,17.5 138.5,17 C131.7,16.6 98.667,25.17 83,29.5 C85,31.5 88.3,41.7 89.5,46.5 C91,52.5 91.5,52.5 86,54 C80.5,55.5 79.5,44 73.5,44 L47.5,44 Z" fill="#E9EAEB"></path>
                                <path d="M153.5,39.5 C155.9,35.5 194.5,29.83 210,28 L217,71 L139,75.5 C142.833,65.17 151.1,43.5 153.5,39.5 Z" fill="#E4E1D9"></path>
                                <path d="M171.5,11 C183.5,10.2 193.5,3.67 197.5,0 C201.5,4 211.4,15 209,19 C206,24 183,28 173,28 C163,28 156.5,12 171.5,11 Z" fill="#272625"></path>
                                <path d="M112.5,70.5 C87,69.5 65,75.5 37,69.5 C-13.0001,64 12.6883,67.27 0,91.59 L196.084,91.59 C215.5,87 221.942,58.71 207.5,61 C176,66 132.01,71.27 112.5,70.5 Z" fill="#CDC7BB"></path>
                            </g>
                        </g>
                    </g>
                    <path d="M95.2367444,410.399385 C96.1207399,408.946182 98.0154131,408.484749 99.4686154,409.368744 L100.947516,410.226076 C102.013697,410.839287 103.372997,411.619907 104.139014,412.075583 L104.411678,412.239355 C110.026707,415.656183 113.07985,418.754961 113.07985,423.08 C113.07985,424.999857 111.348563,426.436136 109.484361,426.116536 L109.309252,426.08139 L87.319,421.02 L93.7421216,429.40734 C95.5109655,431.716909 93.3894589,434.929593 90.615226,434.283932 L90.4544729,434.242368 L68.654,428.042 L73.4632142,432.813682 C74.624243,433.965628 74.6759779,435.812854 73.6132011,437.02668 L73.4803179,437.169214 C72.3283718,438.330243 70.4811464,438.381978 69.2673197,437.319201 L69.1247858,437.186318 L55.8307858,423.996318 C53.6119627,421.794853 55.7039563,418.111463 58.679376,418.805404 L58.8425271,418.847632 L83.201,425.775 L77.2258784,417.97266 C75.5053196,415.726137 77.4689657,412.577576 80.1971623,413.064967 L80.3617482,413.09861 L102.202,418.125 L101.718644,417.815855 L101.209656,417.501385 C100.249934,416.917381 96.8796226,415.003685 96.2673846,414.631256 C94.8141822,413.74726 94.3527489,411.852587 95.2367444,410.399385 Z" id="Path" fill="#CDC7BB" fill-rule="nonzero"></path>
                    <path d="M92.338,384.00015 C88.492806,384.00015 85.3613089,385.604953 83.1989259,388.562058 C81.127578,391.381886 80.01915,395.350294 80.01915,399.91 C80.01915,404.121214 82.5213426,407.908408 86.793989,410.753511 C90.5815516,413.274851 95.4447952,414.78985 99.525,414.78985 C101.480171,414.78985 102.914732,414.438808 103.936993,413.72394 C104.876421,413.065465 105.483258,412.10325 105.83749,410.749817 C106.125258,409.650617 106.248121,408.330758 106.269046,406.468154 L106.268469,405.152951 L106.202927,400.987785 L106.19785,399.91 C106.19785,390.78599 100.231095,384.00015 92.338,384.00015 Z M92.338,390.15985 C96.6402585,390.15985 100.03815,394.024187 100.03815,399.91 L100.04498,401.19306 L100.107187,405.040608 C100.111589,405.416404 100.113011,405.719413 100.112318,406.043412 L100.110194,406.354895 C100.101815,407.164273 100.071783,407.804772 100.022205,408.302035 L99.985,408.618 L99.888456,408.623286 C99.7771859,408.627737 99.6561033,408.63015 99.525,408.63015 C96.6777834,408.63015 92.9981928,407.483883 90.207658,405.626254 C87.5102005,403.83005 86.17885,401.814984 86.17885,399.91 C86.17885,396.581277 86.9320299,393.884733 88.167151,392.203294 C89.1787234,390.81996 90.4668135,390.15985 92.338,390.15985 Z" id="Path" fill="#CDC7BB" fill-rule="nonzero"></path>
                    <path d="M106.581394,405.050421 L105.442463,407.502628 C105.355956,407.692347 105.279667,407.862259 105.206332,408.028797 L104.943109,408.640906 C104.493788,409.716965 104.225306,410.548723 104.103574,411.292639 C104.023047,411.795811 104.012761,412.238908 104.069896,412.647015 L104.099959,412.824008 L104.118483,412.917728 C104.135543,413.057675 104.152137,413.148723 104.222195,413.291662 L104.243,413.332 L104.262593,413.382714 C104.295767,413.471156 104.325343,413.534869 104.390401,413.648607 L104.578,413.963 C105.055153,414.695508 105.885647,415.333934 107.181695,415.912416 C109.956339,417.145596 113.710046,417.597044 117.032479,417.048749 C120.779574,416.435543 123.606761,414.654939 124.860568,411.844965 C126.224541,408.773702 126.656015,405.779117 126.089638,403.263517 C125.501782,400.636218 123.856968,398.610826 121.251503,397.447672 C115.987902,395.106957 110.019272,397.717301 107.229606,403.628188 L106.581394,405.050421 Z M109.888,411.665 L107.154,409.191 L109.521,410.458 L109.736152,410.761783 C109.838594,410.909132 109.913681,411.021867 109.969378,411.113592 L110.032442,411.22507 L110.130803,411.56678 C110.134163,411.582466 110.136683,411.596834 110.140041,411.615992 L109.888,411.665 Z M112.18234,407.614028 L112.71921,406.433525 C114.121924,403.285498 116.65498,402.144907 118.744559,403.074138 C119.561399,403.438802 119.914004,403.872992 120.079466,404.612488 C120.332057,405.734397 120.090762,407.409066 119.233245,409.339949 C118.929299,410.021125 117.909111,410.663655 116.033602,410.97058 L115.67109,411.023783 C114.086843,411.228166 112.341034,411.094657 110.907996,410.709763 L110.774,410.671 L111.131878,409.872907 L112.18234,407.614028 Z" id="Path" fill="#CDC7BB" fill-rule="nonzero"></path>
                    <path d="M120.709359,456.754773 L105.716611,429.354232 L94.738635,434.294321 L103.739,446.894 L87.5236488,437.434943 L76.3144157,442.772673 L90.7814834,470.156766 L101.221738,465.211382 L92.006,450.468 L109.957608,461.055473 L120.709359,456.754773 Z M105.283,430.645 L119.29,456.245 L110.041,459.944 L88.9915993,447.529957 L99.778,464.788 L91.218,468.843 L77.685,443.227 L87.476,438.564 L107.262144,450.106769 L96.26,434.705 L105.283,430.645 Z" id="Path" fill="#000000" fill-rule="nonzero"></path>
                    <path d="M401.166,470 C401.166,439.3 381.44,435.55 349.289,425.03 C333.542,419.88 317.472,415.39 301.166,412.69 C290.919,410.99 288.166,420 270.166,420 C254.114,420 234.088,412.05 229.941,410.33 C229.421,410.11 228.804,409.92 228.39,410.3 C228.29,410.39 228.206,410.51 228.143,410.63 C226.226,414.57 216.166,436.05 216.166,453.24 C216.166,466.39 215.04,479.32 218.666,486 C220.302,489.01 230.517,490.66 233.947,490.66 L395.603,490.66 C398.675,490.66 401.166,473.07 401.166,470 Z" id="Path" fill="#DEDEDE" fill-rule="nonzero"></path>
                    <g id="Clipped" transform="translate(216.000000, 407.000000)">
                        <mask id="mask-4" fill="white">
                            <use xlink:href="#path-3"></use>
                        </mask>
                        <g id="Path"></g>
                        <g id="Group" mask="url(#mask-4)" fill-rule="nonzero">
                            <g transform="translate(-8.000000, -2.000000)" id="Path">
                                <path d="M169.666,44 C185.166,44 189.499,35 191.166,33.5 C194.166,37 191.666,51.1 193.666,57.5 C195.666,63.9 192.832,70.17 191.166,72.5 L51.666,79 C50.832,65.67 49.666,39 51.666,39 C54.166,39 70.166,17.5 78.666,17 C85.466,16.6 118.499,25.17 134.166,29.5 C132.166,31.5 128.866,41.7 127.666,46.5 C126.166,52.5 125.666,52.5 131.166,54 C136.666,55.5 137.666,44 143.666,44 L169.666,44 Z" fill="#E9EAEB"></path>
                                <path d="M63.666,39.5 C61.266,35.5 22.666,29.83 7.166,28 L0.166,71 L78.166,75.5 C74.332,65.17 66.066,43.5 63.666,39.5 Z" fill="#E4E1D9"></path>
                                <path d="M45.665,11 C33.665,10.2 23.665,3.67 19.665,0 C15.665,4 5.765,15 8.165,19 C11.165,24 34.165,28 44.165,28 C54.165,28 60.665,12 45.665,11 Z" fill="#272625"></path>
                                <path d="M104.666,70.5 C130.166,69.5 152.166,75.5 180.166,69.5 C230.166,64 204.477,67.27 217.166,91.59 L21.082,91.59 C1.666,87 -4.776,58.71 9.666,61 C41.166,66 85.155,71.27 104.666,70.5 Z" fill="#CDC7BB"></path>
                            </g>
                        </g>
                    </g>
                    <path d="M301.696385,409.368744 C303.149587,408.484749 305.04426,408.946182 305.928256,410.399385 C306.812251,411.852587 306.350818,413.74726 304.897615,414.631256 L303.848467,415.243379 C302.657698,415.930357 300.860715,416.958384 300.082539,417.42478 L299.95612,417.501071 C299.724597,417.641965 299.500162,417.781367 299.282808,417.919238 L298.96,418.125 L320.804252,413.09861 C323.561863,412.463966 325.613316,415.556033 324.038957,417.836823 L323.940122,417.97266 L317.964,425.775 L342.323473,418.847632 C345.329943,417.992562 347.515232,421.621505 345.451911,423.874887 L345.335132,423.996399 L332.040132,437.186399 C330.832617,438.384378 328.882579,438.376647 327.684601,437.169132 C326.532698,436.00806 326.495542,434.160484 327.567864,432.955081 L327.701868,432.813601 L332.51,428.042 L310.711527,434.242368 C307.913387,435.038187 305.705711,431.884096 307.326123,429.541552 L307.423878,429.40734 L313.846,421.02 L291.856748,426.08139 C289.9858,426.511975 288.197818,425.146922 288.091173,423.258531 L288.08615,423.08 C288.08615,418.754915 291.139206,415.655996 296.753954,412.239129 L297.550348,411.766856 C298.969861,410.936754 301.283988,409.619609 301.696385,409.368744 Z" id="Path" fill="#CDC7BB" fill-rule="nonzero"></path>
                    <path d="M308.827,384.00015 C301.035898,384.00015 295.121455,390.61332 294.971084,399.560247 L294.958444,401.363101 L294.928684,403.15264 L294.893835,405.656889 L294.894169,406.060744 C294.899969,408.137576 295.018851,409.570818 295.327561,410.750011 C295.68232,412.105459 296.290935,413.069474 297.231767,413.725868 C298.246839,414.438214 299.684259,414.78985 301.641,414.78985 C305.721422,414.78985 310.584744,413.274727 314.371005,410.753515 C318.644037,407.908155 321.14685,404.121048 321.14685,399.91 C321.14685,395.351737 320.038071,391.383181 317.963697,388.557449 C315.803012,385.604601 312.671847,384.00015 308.827,384.00015 Z M308.827,390.15985 C310.698263,390.15985 311.986683,390.820054 312.995495,392.19872 C314.233591,393.885272 314.98715,396.58242 314.98715,399.91 C314.98715,401.814448 313.655308,403.829711 310.956989,405.626489 C308.167638,407.483874 304.488261,408.63015 301.641,408.63015 L301.277438,408.623283 L301.179,408.618 L301.162345,408.481567 C301.094404,407.903926 301.056816,407.107397 301.053838,406.041397 L301.060977,404.840012 L301.11404,401.70773 C301.123586,401.04258 301.12785,400.499441 301.12785,399.91 C301.12785,394.024328 304.52565,390.15985 308.827,390.15985 Z" id="Path" fill="#CDC7BB" fill-rule="nonzero"></path>
                    <path d="M279.918559,397.445862 C277.308931,398.610871 275.663173,400.63642 275.074466,403.267512 C274.510259,405.779993 274.941598,408.773641 276.301848,411.839157 C277.560118,414.655466 280.386998,416.435637 284.137602,417.04942 C287.455954,417.597044 291.209661,417.145596 293.979846,415.914402 L294.251377,415.789118 C295.301743,415.287847 296.018004,414.742995 296.475567,414.134536 L296.612993,413.94208 L296.679,413.808 L296.730993,413.72345 C296.860297,413.504671 296.878756,413.452226 296.946442,413.25993 L296.96891,413.190601 C296.986173,413.143845 296.999052,413.101877 297.011103,413.054766 L297.056498,412.869414 L297.095104,412.647015 C297.152239,412.238908 297.141953,411.795811 297.063169,411.303413 C296.930744,410.485029 296.623483,409.568117 296.095445,408.340381 L295.884195,407.858537 L294.215811,404.247247 C294.170008,404.145546 294.123441,404.041454 294.07221,403.926475 C291.344857,397.805642 285.265784,395.067963 279.918559,397.445862 Z M291.495,411.709 L291.024959,411.615992 L291.048485,411.509654 L291.123,411.255 L291.229936,411.01642 L291.358,410.746 L291.481,410.542 L292.646,409.551 L292.709936,409.52964 C293.007485,409.430521 293.418091,409.326373 294.034,409.17015 L291.495,411.709 Z M288.557693,406.683905 L290.189022,410.212523 L290.391,410.671 L290.25595,410.710705 C288.714934,411.124297 286.809627,411.247367 285.136479,410.971251 C283.256683,410.663621 282.235982,410.020856 281.928956,409.333664 C281.075147,407.40946 280.833718,405.733859 281.085014,404.61481 C281.250832,403.873729 281.603987,403.439076 282.425503,403.072328 C284.451253,402.171485 286.898674,403.221865 288.322807,406.168565 L288.557693,406.683905 Z" id="Path" fill="#CDC7BB" fill-rule="nonzero"></path>
                    <path d="M306.427365,434.294321 L295.449389,429.354232 L280.456641,456.754773 L291.208392,461.055473 L309.159,450.468 L299.944262,465.211382 L310.384517,470.156766 L324.851584,442.772673 L313.642351,437.434943 L297.426,446.894 L306.427365,434.294321 Z M295.882,430.645 L304.905,434.705 L293.903856,450.106769 L313.689,438.564 L323.48,443.227 L309.947,468.843 L301.387,464.788 L312.174401,447.529957 L291.124,459.944 L281.875,456.245 L295.882,430.645 Z" id="Path" fill="#000000" fill-rule="nonzero"></path>
                    <g id="Clipped" transform="translate(51.000000, 0.000000)">
                        <mask id="mask-6" fill="white">
                            <use xlink:href="#path-5"></use>
                        </mask>
                        <g id="Path"></g>
                        <g id="Group" mask="url(#mask-6)" fill="#FFFFFF" fill-rule="nonzero">
                            <g transform="translate(22.000000, 278.000000)" id="Path">
                                <path d="M37,41 C21.8,39.8 9,32.5 4.5,29 L0,45.5 C7.167,50.83 24.6,61.5 37,61.5 L116,61.5 L116,41 C96,41.5 52.2,42.2 37,41 Z"></path>
                                <path d="M37,12 C21.8,10.8 9,3.5 4.5,0 L0,16.5 C7.167,21.83 24.6,32.5 37,32.5 L116,32.5 L116,12 C96,12.5 52.2,13.2 37,12 Z"></path>
                                <path d="M37,70 C21.8,68.8 9,61.5 4.5,58 L0,74.5 C7.167,79.83 24.6,90.5 37,90.5 L116,90.5 L116,70 C96,70.5 52.2,71.2 37,70 Z"></path>
                            </g>
                        </g>
                    </g>
                </g>
                <g id="upper-limb" transform="translate(0.081526, 440.000000)">
                    <path d="M55.6749992,205.094486 C64.9702351,186.896442 87.2579429,179.679289 105.455988,188.974525 C123.472052,198.176808 130.725744,220.113014 121.849858,238.208362 L121.57595,238.755514 C108.689421,263.984527 95.084714,314.838141 87.9789248,364.067578 L87.7655945,365.558854 C84.3338039,389.767164 82.8103301,411.420598 83.4175877,427.149533 L83.4696916,428.371131 C83.6948878,433.185403 84.1188349,437.128234 84.6474031,439.983439 L84.773,440.632 L84.80444,440.667357 C95.3115815,452.695892 97.125252,470.614537 88.217247,484.733238 L87.8865571,485.248063 C76.7038608,502.351207 53.7736562,507.150679 36.6705116,495.967983 C24.4481252,487.976515 17.7663212,476.296666 13.8421401,462.039211 C11.3073008,452.829554 9.94328129,442.193781 9.47267659,430.004374 C8.68620366,409.633479 10.4343313,384.269794 14.3029339,356.559837 L14.4981292,355.172396 C22.5920235,298.076984 38.2906094,239.129331 55.6749992,205.094486 Z" id="Path" fill="#EBBAAA" fill-rule="nonzero"></path>
                    <path d="M406.461466,164.961867 C424.259467,154.921878 446.826618,161.21099 456.866607,179.008991 C480.563935,221.01751 498.055598,280.3711 507.084801,342.406316 C515.682732,401.478465 515.506389,454.90056 504.690988,484.644062 C497.707865,503.848391 476.478741,513.755636 457.274412,506.772513 C438.262126,499.859222 428.361913,478.983424 434.941527,459.932659 L435.145961,459.355938 C440.678321,444.14136 440.821007,400.915095 433.856397,353.064684 C426.033834,299.319701 411.004859,248.322629 392.414341,215.367009 C382.374352,197.569007 388.663464,175.001856 406.461466,164.961867 Z" id="Path" fill="#EBBAAA" fill-rule="nonzero"></path>
                    <rect id="Rectangle" fill="#F1EDED" fill-rule="nonzero" transform="translate(103.250032, 197.445298) rotate(18.000000) translate(-103.250032, -197.445298) " x="48.3140318" y="189.101798" width="109.872" height="16.687"></rect>
                    <rect id="Rectangle" fill="#F1EDED" fill-rule="nonzero" transform="translate(424.834950, 218.062018) rotate(162.000000) translate(-424.834950, -218.062018) " x="369.89895" y="209.718518" width="109.872" height="16.687"></rect>
                    <path d="M137.471474,126.116 C138.306474,91.7 165.857474,63.912 200.263474,62.788 L280.587474,60.16 C287.132474,59.954 293.687474,60.294 300.171474,61.191 L378.578474,72.034 C413.169474,76.816 437.782474,108.088 434.298474,142.834 L419.466474,290.722 L426.908474,502.597 C426.980474,504.411 340.732474,502.69 338.918474,502.597 L200.263474,502.597 L121.454474,490.703 C119.712474,490.61 118.382474,489.095 118.526474,487.353 L133.925474,272.303 L137.471474,126.116 Z" id="Path" fill="#41569F" fill-rule="nonzero"></path>
                    <rect id="Rectangle" fill="#EBBAAA" fill-rule="nonzero" x="209.918474" y="0" width="116" height="119" rx="37.911"></rect>
                    <path d="M69.5101743,117.632 C79.4976743,83.914 116.167474,65.932 148.940474,78.68 C176.114474,89.25 191.785474,117.796 186.115474,146.396 L142.574474,365.996 C134.509474,406.674 93.2264743,431.619 53.4643743,419.841 C16.1596743,408.791 -5.12381566,369.592 5.92637434,332.287 L69.5101743,117.632 Z" id="Path" fill="#403F47" fill-rule="nonzero"></path>
                    <path d="M3.11947434,457 C-3.28052566,438.6 0.918574338,350 8.91847434,320 L117.119474,339 C104.918474,377 102.918474,427 93.9184743,476 L93.7654743,476.007 C72.6193743,477.014 11.1000743,479.944 3.11947434,457 Z" id="Path" fill="#403F47" fill-rule="nonzero"></path>
                    <polygon id="Path" fill="#333337" fill-rule="nonzero" points="29.9184743 318 102.418474 340 23.4184743 332.5"></polygon>
                    <polygon id="Path" fill="#333337" fill-rule="nonzero" points="47.9184743 347 103.918474 344 55.4184743 359.5"></polygon>
                    <path d="M452.671474,114.886 C440.615474,79.874 399.425474,64.792 367.611474,83.74 C346.245474,96.466 335.289474,121.332 340.315474,145.687 L389.348474,383.264 C398.359474,426.921 443.669474,452.733 485.817474,438.221 C524.422474,424.928 544.941474,382.857 531.648474,344.253 L452.671474,114.886 Z" id="Path" fill="#413F47" fill-rule="nonzero"></path>
                    <polygon id="Path" fill="url(#linearGradient-7)" fill-rule="nonzero" points="366.918474 96.238 415.918474 77.5 449.222474 103.937 458.418474 143.5 397.314474 166.985"></polygon>
                    <polygon id="Path" fill="url(#linearGradient-8)" fill-rule="nonzero" points="424.918474 236.238 479.418474 211.5 506.918474 280 455.314474 306.985"></polygon>
                    <polygon id="Path" fill="url(#linearGradient-9)" fill-rule="nonzero" points="37.5914743 207.175 95.7554743 221.289 75.1867743 292.179 17.9184743 281.619"></polygon>
                    <polygon id="Path" fill="url(#linearGradient-10)" fill-rule="nonzero" points="84.5914743 140.175 204.127474 170.507 181.739474 240.916 64.9184743 214.619"></polygon>
                    <polygon id="Path" fill="url(#linearGradient-11)" fill-rule="nonzero" points="20.0220743 371.726 200.951474 355.022 201.877474 429.005 26.5879743 448.446"></polygon>
                    <rect id="Rectangle" fill="url(#linearGradient-12)" fill-rule="nonzero" transform="translate(459.271592, 353.491991) rotate(-23.250600) translate(-459.271592, -353.491991) " x="405.771592" y="314.991991" width="107" height="77"></rect>
                    <rect id="Rectangle" fill="url(#linearGradient-12)" fill-rule="nonzero" transform="translate(412.271592, 199.491991) rotate(-23.250600) translate(-412.271592, -199.491991) " x="358.771592" y="160.991991" width="107" height="77"></rect>
                    <path d="M279.418474,322.5 C278.624474,255.344 268.918474,196.152 268.918474,164 C265.688474,164 254.068474,150.601 240.918474,144 C225.568474,136.294 208.497474,135.116 205.803474,133.5 C206.074474,107.657 207.901474,81.155 196.918474,57 L143.509474,73.473 C130.187474,91.805 106.749474,146.579 102.988474,251.497 C99.2264743,356.415 106.906474,459.438 102.988474,506.679 C119.445474,511.439 230.344474,523.922 284.418474,507 C284.418474,439.311 280.594474,421.918 279.418474,322.5 Z" id="Path" fill="#46454B" fill-rule="nonzero"></path>
                    <rect id="Rectangle" fill="url(#linearGradient-12)" fill-rule="nonzero" x="118.918474" y="124" width="107" height="77"></rect>
                    <rect id="Rectangle" fill="url(#linearGradient-12)" fill-rule="nonzero" x="176.918474" y="433" width="107" height="77"></rect>
                    <rect id="Rectangle" fill="url(#linearGradient-13)" fill-rule="nonzero" x="123.918474" y="201" width="150" height="77"></rect>
                    <rect id="Rectangle" fill="url(#linearGradient-13)" fill-rule="nonzero" x="114.918474" y="355" width="150" height="77"></rect>
                    <rect id="Rectangle" fill="url(#linearGradient-14)" fill-rule="nonzero" x="101.918474" y="278" width="217" height="77"></rect>
                    <path d="M199.918474,491 C177.518474,492.6 125.918474,480 102.918474,472 L102.918474,506 C115.918474,516 149.640474,519.144 167.918474,522 C199.918474,527 236.918474,518 276.918474,512 L274.918474,481.5 C260.918474,484.5 222.318474,489.4 199.918474,491 Z" id="Path" fill="#343537" fill-rule="nonzero"></path>
                    <path d="M530.918474,459 C537.318474,440.6 538.918474,376 530.918474,346 L416.918474,341 C429.119474,379 431.119474,429 440.119474,478 L440.272474,478.007 C461.418474,479.014 522.937474,481.944 530.918474,459 Z" id="Path" fill="#403F47" fill-rule="nonzero"></path>
                    <polygon id="Path" fill="url(#linearGradient-15)" fill-rule="nonzero" points="472.022474 382.92 526.938474 377 531.599474 450.664 478.587474 459.639"></polygon>
                    <polygon id="Path" fill="#333337" fill-rule="nonzero" points="497.418474 307 424.918474 329 503.918474 321.5"></polygon>
                    <polygon id="Path" fill="#333337" fill-rule="nonzero" points="483.918474 339 427.918474 336 476.418474 351.5"></polygon>
                    <path d="M274.918474,326 C275.665474,261.017 268.418474,196.112 268.418474,165 C271.064474,165 281.989474,153.624 292.418474,146.5 C303.483474,138.941 314.147474,135.413 318.221474,134.065 L318.418474,134 C322.001474,107.4 331.682474,77.882 341.799474,55 L383.865474,63.664 C397.392474,66.45 409.288474,74.501 412.914474,87.828 C421.395474,118.998 427.618474,178.588 430.356474,257.125 C433.896474,358.648 439.231474,463.012 442.918474,508.725 C414.159474,512.818 333.800474,522.375 282.918474,506 C282.918474,440.501 273.812474,422.201 274.918474,326 Z" id="Path" fill="#46454B" fill-rule="nonzero"></path>
                    <rect id="Rectangle" fill="url(#linearGradient-12)" fill-rule="nonzero" x="293.918474" y="124" width="107" height="77"></rect>
                    <rect id="Rectangle" fill="url(#linearGradient-12)" fill-rule="nonzero" x="351.918474" y="433" width="107" height="77"></rect>
                    <rect id="Rectangle" fill="url(#linearGradient-13)" fill-rule="nonzero" x="298.918474" y="201" width="150" height="77"></rect>
                    <rect id="Rectangle" fill="url(#linearGradient-13)" fill-rule="nonzero" x="289.918474" y="355" width="150" height="77"></rect>
                    <rect id="Rectangle" fill="url(#linearGradient-16)" fill-rule="nonzero" x="276.918474" y="278" width="182" height="77"></rect>
                    <path d="M321.418474,112.5 L267.918474,166.5 C270.230474,164.167 279.166474,156.9 296.418474,146.5 C313.670474,136.1 373.273474,111.167 398.418474,108 C398.418474,104.167 390.918474,95.5 390.918474,87.5 C390.918474,82.5 399.418474,74.333 406.418474,73 C401.418474,70 395.718474,68.9 390.918474,64.5 C386.118474,60.1 363.418474,60.5 351.418474,60 L321.418474,112.5 Z" id="Path" fill="#333337" fill-rule="nonzero"></path>
                    <path d="M138.418474,64 C139.218474,60.4 143.085474,56.833 144.918474,55.5 C165.085474,73.5 197.318474,106.6 164.918474,95 C124.418474,80.5 122.918474,68 126.918474,66 C130.918474,64 137.418474,68.5 138.418474,64 Z" id="Path" fill="#41569F" fill-rule="nonzero"></path>
                    <path d="M217.918474,89.5 C217.118474,81.1 212.752474,60.667 210.918474,52.5 C200.918474,50 187.085474,42.167 182.418474,38.5 C172.585474,40 144.518474,44.1 142.918474,62.5 C140.918474,85.5 188.418474,109.5 200.918474,120 C213.418474,130.5 224.418474,120 242.418474,125 C256.818474,129 270.752474,123.333 275.918474,120 C269.252474,118.5 253.818474,114.3 245.418474,109.5 C237.018474,104.7 227.918474,107.5 224.418474,109.5 C222.585474,106.333 218.718474,97.9 217.918474,89.5 Z" id="Path" fill="#4E65B4" fill-rule="nonzero"></path>
                    <path d="M323.918474,83 C317.418474,74 326.418474,53.999 326.418474,53.999 C336.418474,51.5 344.918474,46.5 355.918474,40 C364.085474,39.333 388.218474,40.3 387.418474,51.5 C386.418474,65.5 360.418474,70.5 346.918474,80 C333.418474,89.5 349.918474,99 305.418474,121.5 C269.818474,139.5 229.751474,135 215.918474,127.5 C221.585474,130.166 236.618474,133.9 251.418474,127.5 C266.218474,121.1 282.418474,117.833 287.418474,118.5 C289.751474,116.5 300.918474,112 311.418474,100.5 C321.918474,89 330.418474,92 323.918474,83 Z" id="Path" fill="#4E65B4" fill-rule="nonzero"></path>
                    <path d="M141.418474,78 C135.018474,78.8 129.418474,76 127.418474,74.5 C127.418474,78.833 132.018474,91.8 150.418474,109 C168.818474,126.2 215.751474,138.833 236.918474,143 L267.918474,164.5 C263.585474,159.5 251.318474,147.7 236.918474,140.5 C222.518474,133.3 179.251474,93.5 159.418474,74.5 C156.085474,75.333 147.818474,77.2 141.418474,78 Z" id="Path" fill="#333337" fill-rule="nonzero"></path>
                    <path d="M355.918474,489 C378.318474,490.6 421.918474,488.5 440.918474,473 L442.918474,508 C422.918474,513 395.418474,517 387.918474,517 C355.530474,517 320.918474,518.5 280.918474,512.5 L280.918474,483 C294.918474,486 333.518474,487.4 355.918474,489 Z" id="Path" fill="#343537" fill-rule="nonzero"></path>
                    <path d="M271.401639,176.5 L266.404757,176.5 L275.435882,510.149878 L281.918474,508.381898 L281.918474,483.5 L271.401639,176.5 Z M270.435,177.5 L280.918767,483.517119 L280.918,507.617 L276.401,508.849 L267.432,177.5 L270.435,177.5 Z" id="Path" fill="#333337" fill-rule="nonzero"></path>
                    <polygon id="Path" fill="#D1D6DF" fill-rule="nonzero" points="271.418474 163 266.918474 163 262.918474 168.5 266.918474 178 271.918474 178 275.418474 168.5"></polygon>
                    <path d="M265.418474,169 L272.918474,169" id="Path" stroke="#333337"></path>
                    <polygon id="Path" fill="#333337" fill-rule="nonzero" points="266.918474 178 271.918474 178 270.418474 195 264.918474 195"></polygon>
                    <rect id="Rectangle" fill="#333337" fill-rule="nonzero" x="309.918474" y="150" width="53" height="10"></rect>
                </g>
                <g id="head" transform="translate(67.000000, 0.000000)">
                    <ellipse id="Oval" fill="#EBBAAA" fill-rule="nonzero" cx="58.589" cy="308.081" rx="58.0695" ry="55.0806"></ellipse>
                    <ellipse id="Oval" fill="#EBBAAA" fill-rule="nonzero" cx="353.589" cy="308.081" rx="58.0695" ry="55.0806"></ellipse>
                    <path d="M34.327,215.398 C30.521,119.037 107.61,38.8428 204.046,38.8428 C300.714,38.8428 377.891,119.408 373.74,215.987 L368.134,346.438 C364.352,434.443 291.905,503.843 203.819,503.843 C115.512,503.843 42.966,434.106 39.481,345.868 L34.327,215.398 Z" id="Path" fill="#EED4CC" fill-rule="nonzero"></path>
                    <path d="M148.285378,280.190203 C154.908265,279.945197 160.475792,285.115492 160.720797,291.738378 C160.962033,298.259374 155.953313,303.757233 149.477248,304.158725 L149.172622,304.173797 L120.924622,305.218797 C114.301735,305.463803 108.734208,300.293508 108.489203,293.670622 C108.247967,287.149626 113.256687,281.651767 119.732752,281.250275 L120.037378,281.235203 L148.285378,280.190203 Z" id="Path" fill="#000000" fill-rule="nonzero"></path>
                    <path d="M246.536983,289.858246 C246.997981,283.349093 252.568568,278.421386 259.050273,278.718228 L259.354754,278.735983 L287.551754,280.732983 C294.162612,281.201184 299.142219,286.939896 298.674017,293.550754 C298.213019,300.059907 292.642432,304.987614 286.160727,304.690772 L285.856246,304.673017 L257.659246,302.676017 C251.048388,302.207816 246.068781,296.469104 246.536983,289.858246 Z" id="Path" fill="#000000" fill-rule="nonzero"></path>
                    <path d="M157.888889,236.761629 C163.401448,236.424674 168.143416,240.62033 168.480371,246.132889 C168.811615,251.552015 164.762594,256.22645 159.38826,256.703459 L159.109111,256.724371 L98.6101111,260.422371 C93.0975522,260.759326 88.3555842,256.56367 88.0186291,251.051111 C87.6873852,245.631985 91.7364065,240.95755 97.1107399,240.480541 L97.3898889,240.459629 L157.888889,236.761629 Z" id="Path" fill="#393939" fill-rule="nonzero"></path>
                    <path d="M243.21976,236.405415 L303.81676,237.737415 C309.338274,237.858785 313.715955,242.433246 313.594585,247.95476 C313.475272,253.382689 309.052541,257.70523 303.657162,257.734895 L303.37724,257.732585 L242.78024,256.400585 C237.258726,256.279215 232.881045,251.704754 233.002415,246.18324 C233.121728,240.755311 237.544459,236.43277 242.939838,236.403105 L243.21976,236.405415 Z" id="Path" fill="#393939" fill-rule="nonzero"></path>
                    <path d="M184.256,0.034563 C200.345382,0.457271429 214.322706,4.2472339 226.458708,10.4423079 C231.292047,9.53249618 236.611955,9.27158452 242.5,10.0000001 C268.197242,9.99996977 303.217047,38.6986645 320.370126,73.2175907 C343.757839,79.5767391 364.173808,98.7866058 371.049,143.5 C379.322447,197.310609 378.004845,258.890871 372.519771,260.160447 L372.519,305.5 C372.519,308.537566 370.056566,311 367.019,311 C363.981434,311 361.519,308.537566 361.519,305.5 L361.518818,244.932947 L360.694674,243.684189 C351.948317,230.351677 347.535923,220.829227 341.019,188.5 L340.828959,187.538952 C337.769436,171.772825 336.771716,152.688569 320.527042,139.560455 C300.194935,124.442761 261.759572,124.824575 221.939549,124.049068 L214.876235,123.907747 C165.012784,122.959508 114.52991,123.60967 96,136.5 C66,157.37 85.305,190.473 68,205.234 C47.5420609,222.684622 51.3128731,250.204111 47.5193789,263.295939 L47.519,305.5 C47.519,308.537566 45.0565661,311 42.019,311 C38.9814339,311 36.519,308.537566 36.519,305.5 L36.5196756,264.678976 C30.5546073,253.154901 25.519,226.105015 25.519,205.234 C25.519,169.547964 33.082827,138.050837 46.6808711,112.017404 C38.0253178,100.639242 48.6101234,75.5004642 67,75.5000001 C68.8186393,75.4999545 70.7186211,75.6386858 72.6875456,75.9029215 L73.0005375,75.5789512 C73.0533928,69.0376008 76.736198,63.4619914 82.603,60.3227 C84.756595,59.1703652 87.5705138,58.8044906 90.9082282,59.0951999 C95.7990525,44.2969821 108.276942,30.2010411 135.5,28.4996 L136.244437,28.4636237 C139.597812,15.0771038 150.941815,-0.840681678 184.256,0.034563 Z" id="Path" fill="#2C2929" fill-rule="nonzero"></path>
                    <path d="M189.391988,308.687902 L206.234012,311.000098 C205.786194,314.261998 204.444524,317.502046 202.227757,321.460326 C201.578151,322.620268 200.858645,323.831266 199.995007,325.22881 L199.10703,326.651604 L196.432992,330.859659 L195.412463,332.478696 C194.705987,333.608483 194.119407,334.569383 193.567156,335.504588 L193.133422,336.247887 C189.760736,342.099148 188.709581,345.664322 189.186152,346.730535 C189.215023,346.795128 189.294914,346.896381 189.544197,347.095431 C190.082705,347.525425 190.966276,347.988319 192.247027,348.429634 C195.677833,349.611804 200.976796,350.302779 208.209775,350.341299 L208.853,350.343 L208.853,367.343 L207.632618,367.337567 C189.080496,367.170716 177.903823,363.148855 173.665969,353.667676 C171.621321,349.093268 171.702626,344.137302 173.303505,338.868159 C174.430728,335.158008 176.267252,331.367779 178.928866,326.860488 L179.567942,325.790155 C180.221651,324.70697 180.929769,323.567525 181.786827,322.212475 L183.752032,319.103576 C187.993369,312.357489 189.157663,310.182592 189.381251,308.760791 L189.391988,308.687902 Z" id="Path" fill="#EBBAAA" fill-rule="nonzero"></path>
                    <path d="M215.867,271.217 C213.719,260.542 220.508,250.129 231.259,248.397 C241.907,246.682 255.225,245 266.5,245 C280.277,245 305.716,247.512 323.902,249.526 C335.354,250.794 343.2,261.561 341.067,272.885 L333.419,313.498 C331.707,322.589 323.984,329.319 314.744,329.772 L245.691,333.157 C235.808,333.642 227.057,326.827 225.105,317.127 L215.867,271.217 Z" id="Path" fill-opacity="0.14" fill="#FFFFFF" fill-rule="nonzero"></path>
                    <path d="M188.133,271.217 C190.281,260.542 183.492,250.129 172.741,248.397 C162.093,246.682 148.775,245 137.5,245 C123.723,245 98.284,247.512 80.098,249.526 C68.646,250.794 60.8,261.561 62.933,272.885 L70.581,313.498 C72.293,322.589 80.016,329.319 89.256,329.772 L158.309,333.157 C168.192,333.642 176.943,326.827 178.895,317.127 L188.133,271.217 Z" id="Path" fill-opacity="0.14" fill="#FFFFFF" fill-rule="nonzero"></path>
                    <path d="M266.5,245 C256.603671,245 244.459143,246.270519 231.25823,248.397568 C220.60937,250.113027 213.697844,260.438791 215.866791,271.216509 L225.137769,317.292402 C227.075963,326.92034 235.715881,333.716552 245.528938,333.33232 L314.540134,330.626312 C323.874726,330.26025 331.712398,323.480829 333.419092,314.296443 L341.125045,272.844696 C343.233097,261.507091 335.357683,250.795946 323.951696,249.531317 L318.661265,248.953549 C296.034809,246.519108 277.388855,245 266.5,245 Z M266.5,252 L267.318179,252.002895 C278.845762,252.082846 299.027598,253.81329 323.180662,256.488723 C330.529096,257.303475 335.609871,264.213704 334.242976,271.565195 L326.536955,313.017304 C325.427591,318.987226 320.333217,323.393752 314.265851,323.631688 L245.254866,326.337688 C238.876207,326.587445 233.260054,322.169746 232.000166,315.911274 L222.729231,269.835598 C221.333933,262.902222 225.697108,256.383674 232.37165,255.308451 C245.236147,253.235608 257.046969,252 266.5,252 Z" id="Path" fill="url(#linearGradient-17)" fill-rule="nonzero"></path>
                    <path d="M137.5,245 L136.647159,245.002986 C124.784312,245.084467 104.455397,246.827745 80.0486622,249.531277 C68.6423174,250.795946 60.7669034,261.507091 62.8749755,272.844805 L70.5809553,314.296696 C72.2876016,323.480829 80.1252737,330.26025 89.4598505,330.626312 L158.470866,333.332312 C168.284119,333.716552 176.924037,326.92034 178.862166,317.292726 L188.133231,271.216402 C190.302156,260.438791 183.39063,250.113027 172.74165,248.397549 C159.540857,246.270519 147.396329,245 137.5,245 Z M137.5,252 C146.953031,252 158.763853,253.235608 171.62823,255.308432 C178.302892,256.383674 182.666067,262.902222 181.270791,269.835491 L171.999769,315.911598 C170.739946,322.169746 165.123793,326.587445 158.744938,326.33768 L89.7341336,323.631688 C83.6667825,323.393752 78.5724087,318.987226 77.4630918,313.017557 L69.7570447,271.565304 C68.3901287,264.213704 73.4709036,257.303475 80.8196962,256.488683 L85.9936129,255.923558 C108.41261,253.510644 126.927523,252 137.5,252 Z" id="Path" fill="url(#linearGradient-18)" fill-rule="nonzero"></path>
                    <path d="M202,263 C210.273283,263 215.850601,265.236189 220.740645,269.311226 C222.225615,270.5487 222.426249,272.755676 221.188774,274.240645 C219.9513,275.725615 217.744324,275.926249 216.259355,274.688774 C212.569399,271.613811 208.544364,270 202,270 C198.271966,270 194.768447,270.594062 191.944079,271.607021 C189.7521,272.393174 188.269217,273.354082 188.001225,273.800735 C187.006707,275.458266 184.856796,275.995744 183.199265,275.001225 C181.541734,274.006707 181.004256,271.856796 181.998775,270.199265 C184.505085,266.022081 192.931357,263 202,263 Z" id="Path" fill="#33120C" fill-rule="nonzero"></path>
                    <path d="M150,386.731 L150,405.068 C150,433.235 172.833,456.068 201,456.068 C229.167,456.068 252,433.235 252,405.068 L252,386.731 L150,386.731 Z" id="Path" fill="#393939"></path>
                    <mask id="mask-20" fill="white">
                        <use xlink:href="#path-19"></use>
                    </mask>
                    <g id="Path"></g>
                    <ellipse id="Oval" fill="#FF6C6C" fill-rule="nonzero" mask="url(#mask-20)" cx="201" cy="455.679" rx="30.7557" ry="16.75"></ellipse>
                    <rect id="Rectangle" fill="#FFFFFF" fill-rule="nonzero" mask="url(#mask-20)" x="150" y="386.731" width="102" height="21.0349"></rect>
                </g>
            </g>
        </g>
    </g>
</svg>