<?xml version="1.0" encoding="UTF-8"?>
<svg width="528px" height="1343px" viewBox="0 0 528 1343" version="1.1" xmlns="http://www.w3.org/2000/svg" xmlns:xlink="http://www.w3.org/1999/xlink">
    <!-- Generator: Sketch 55.2 (78181) - https://sketchapp.com -->
    <title>gee_me_024</title>
    <desc>Created with Sketch.</desc>
    <defs>
        <path d="M2.1748,128.095 C-9.5229,63.649 39.317,4.073 104.806,2.904 L221.007,0.829 C224.25,0.771 227.487,1.1 230.651,1.809 C242.198,4.395 252.053,11.868 257.658,22.289 L314.455,127.873 C317.369,133.29 314.734,139.942 308.797,141.551 C282.896,148.57 216.915,162.251 162.008,138.196 C106.058,113.684 38.608,128.357 13.7862,135.234 C8.5899,136.674 3.1378,133.4 2.1748,128.095 Z" id="path-1"></path>
        <path d="M0.9,0.318 C0.835,0.942 0.802,1.573 0.802,2.203 L0.802,14.003 C0.802,31.792 27.595,46.207 60.632,46.207 C93.681,46.207 120.463,31.792 120.463,14.003 L120.463,2.203 C120.463,1.573 120.43,0.942 120.365,0.318 L0.9,0.318 Z" id="path-3"></path>
    </defs>
    <g id="GEE!-ME" stroke="none" stroke-width="1" fill="none" fill-rule="evenodd">
        <g id="gee_me_024" transform="translate(-336.000000, -129.000000)">
            <g transform="translate(336.000000, 129.000000)">
                <g id="lower-limb" transform="translate(46.014196, 352.485000)" fill-rule="nonzero">
                    <path d="M405.849804,962.555 L270.609804,962.555 C272.412804,951.895 277.126804,923.215 277.126804,914.575 C276.381804,904.895 274.988804,895.265 272.957804,885.755 C271.799804,879.395 270.609804,872.865 270.160804,869.035 C273.502804,869.145 279.940804,870.065 285.330804,870.835 C293.229804,872.115 301.194804,872.985 309.190804,873.455 C315.766804,873.195 322.254804,871.915 328.400804,869.665 C333.428804,868.125 341.035804,865.805 341.662804,867.665 C343.121804,871.315 344.899804,874.845 346.977804,878.215 L341.348804,883.605 C340.437804,884.465 340.079804,885.735 340.408804,886.925 C340.738804,888.105 341.705804,889.035 342.944804,889.355 C344.182804,889.665 345.502804,889.325 346.404804,888.455 L350.694804,884.335 C351.345804,885.375 352.028804,886.445 352.726804,887.515 L347.291804,892.725 C345.894804,894.065 345.894804,896.235 347.291804,897.575 C348.687804,898.915 350.951804,898.915 352.347804,897.575 L356.661804,893.435 C357.484804,894.645 358.323804,895.865 359.178804,897.085 L353.722804,902.315 C352.819804,903.185 352.467804,904.445 352.797804,905.625 C353.128804,906.815 354.091804,907.735 355.325804,908.055 C356.559804,908.365 357.875804,908.025 358.779804,907.165 L363.292804,902.835 C364.058804,903.885 364.831804,904.925 365.611804,905.965 L360.270804,911.075 C359.366804,911.945 359.014804,913.205 359.344804,914.385 C359.675804,915.575 360.639804,916.495 361.873804,916.815 C363.106804,917.125 364.423804,916.795 365.326804,915.925 L369.907804,911.535 C370.813804,912.675 371.718804,913.805 372.625804,914.905 L367.105804,920.195 C365.709804,921.535 365.709804,923.705 367.105804,925.045 C368.501804,926.385 370.765804,926.385 372.161804,925.045 L377.159804,920.255 C378.258804,921.505 379.343804,922.695 380.415804,923.825 L374.716804,929.295 C373.799804,930.155 373.436804,931.425 373.765804,932.615 C374.094804,933.805 375.064804,934.735 376.306804,935.045 C377.548804,935.365 378.871804,935.015 379.772804,934.135 L385.370804,928.775 C386.688804,929.995 388.070804,931.155 389.512804,932.245 L385.443804,936.145 C384.526804,937.005 384.163804,938.275 384.492804,939.465 C384.820804,940.655 385.791804,941.585 387.033804,941.905 C388.275804,942.215 385.329804,931.595 386.230804,930.725 L395.864804,935.845 C401.369804,938.315 407.222804,940.005 413.236804,940.845 C413.855804,945.545 415.199804,950.125 417.224804,954.435 C418.610804,957.165 420.397804,959.695 422.529804,961.945 C416.106804,962.335 408.876804,962.555 405.849804,962.555 Z M321.071804,954.705 C321.413804,955.015 321.814804,955.255 322.251804,955.425 C323.117804,955.795 324.103804,955.795 324.969804,955.425 C325.402804,955.255 325.800804,955.005 326.148804,954.705 C326.801804,954.045 327.171804,953.185 327.185804,952.275 C327.179804,952.055 327.155804,951.835 327.113804,951.625 C327.081804,951.395 327.009804,951.175 326.900804,950.975 C326.821804,950.755 326.713804,950.545 326.577804,950.355 C326.434804,950.185 326.291804,950.015 326.148804,949.845 C324.714804,948.575 322.504804,948.575 321.071804,949.845 C320.917804,950.005 320.774804,950.175 320.643804,950.355 C320.508804,950.545 320.399804,950.755 320.320804,950.975 C320.212804,951.175 320.139804,951.395 320.105804,951.625 C320.064804,951.835 320.040804,952.055 320.034804,952.275 C320.048804,953.185 320.418804,954.045 321.071804,954.705 Z M312.882804,880.315 C297.084804,880.315 284.277804,892.585 284.277804,907.725 C284.277804,922.865 297.084804,935.145 312.882804,935.145 C328.681804,935.145 341.487804,922.865 341.487804,907.725 C341.469804,892.595 328.673804,880.325 312.882804,880.315 Z" id="12" fill="#000000"></path>
                    <path d="M431.837804,961.105 C428.490804,958.465 425.727804,955.215 423.708804,951.535 C422.220804,948.375 421.171804,945.035 420.589804,941.605 C426.573804,941.995 433.309804,941.995 441.608804,941.995 C456.991804,941.995 464.796804,948.935 468.222804,953.375 L433.678804,960.755 C433.072804,960.905 432.457804,961.025 431.837804,961.105 Z" id="11" fill="#C4C6D0"></path>
                    <path d="M430.666804,968.175 C422.208804,969.105 407.622804,969.405 405.853804,969.405 L269.978804,969.405 L269.978804,976.265 L269.978804,989.965 L420.155804,989.965 C429.525804,989.455 438.847804,988.335 448.058804,986.615 L468.302804,982.725 C469.479804,982.135 470.214808,980.965 470.214808,979.685 L470.214808,959.975 L435.486804,967.385 C434.150804,967.715 432.791804,967.955 431.419804,968.085 C431.242804,968.145 431.061804,968.185 430.877804,968.205 C430.806804,968.205 430.737804,968.185 430.666804,968.175 Z" id="10" fill="#C4C6D0"></path>
                    <polygon id="09" fill="#3A4061" points="311.486804 890.775 315.443804 902.445 328.249804 902.445 317.889804 909.665 321.846804 921.335 311.486804 914.125 301.126804 921.335 305.083804 909.665 294.723804 902.445 307.529804 902.445"></polygon>
                    <path d="M64.3648041,962.555 L199.604804,962.555 C197.801804,951.895 193.087804,923.215 193.087804,914.575 C193.832804,904.895 195.225804,895.265 197.256804,885.755 C198.414804,879.395 199.605804,872.865 200.053804,869.035 C196.712804,869.145 190.273804,870.065 184.883804,870.835 C176.984804,872.115 169.019804,872.985 161.023804,873.455 C154.447804,873.195 147.959804,871.915 141.813804,869.665 C136.785804,868.125 129.178804,865.805 128.551804,867.665 C127.092804,871.315 125.314804,874.845 123.237804,878.215 L128.865804,883.605 C129.776804,884.465 130.135804,885.735 129.805804,886.925 C129.475804,888.105 128.508804,889.035 127.270804,889.355 C126.031804,889.665 124.711804,889.325 123.809804,888.455 L119.519804,884.335 C118.868804,885.375 118.186804,886.445 117.487804,887.515 L122.922804,892.725 C124.319804,894.065 124.319804,896.235 122.922804,897.575 C121.526804,898.915 119.263804,898.915 117.866804,897.575 L113.552804,893.435 C112.730804,894.645 111.891804,895.865 111.035804,897.085 L116.491804,902.315 C117.394804,903.185 117.747804,904.445 117.416804,905.625 C117.085804,906.815 116.122804,907.735 114.888804,908.055 C113.654804,908.365 112.338804,908.025 111.435804,907.165 L106.921804,902.835 C106.156804,903.885 105.383804,904.925 104.603804,905.965 L109.943804,911.075 C110.847804,911.945 111.199804,913.205 110.869804,914.385 C110.538804,915.575 109.574804,916.495 108.341804,916.815 C107.107804,917.125 105.790804,916.795 104.887804,915.925 L100.306804,911.535 C99.4018041,912.675 98.4958041,913.805 97.5898041,914.905 L103.108804,920.195 C104.504804,921.535 104.504804,923.705 103.108804,925.045 C101.712804,926.385 99.4488041,926.385 98.0528041,925.045 L93.0548041,920.255 C91.9568041,921.505 90.8708041,922.695 89.7998041,923.825 L95.4978041,929.295 C96.4148041,930.155 96.7778041,931.425 96.4488041,932.615 C96.1208041,933.805 95.1498041,934.735 93.9078041,935.045 C92.6658041,935.365 91.3428041,935.015 90.4418041,934.135 L84.8448041,928.775 C83.5258041,929.995 82.1438041,931.155 80.7018041,932.245 L84.7708041,936.145 C85.6878041,937.005 86.0508041,938.275 85.7228041,939.465 C85.3938041,940.655 84.4238041,941.585 83.1808041,941.905 C81.9388041,942.215 82.8758041,940.345 81.9748041,939.465 L74.3498041,935.845 C68.8448041,938.315 62.9918041,940.005 56.9778041,940.845 C56.3588041,945.545 55.0158041,950.125 52.9904041,954.435 C51.6037041,957.165 49.8172041,959.695 47.6850041,961.945 C54.1078041,962.335 61.3378041,962.555 64.3648041,962.555 Z M149.143804,954.705 C148.800804,955.015 148.400804,955.255 147.962804,955.425 C147.096804,955.795 146.110804,955.795 145.244804,955.425 C144.812804,955.255 144.413804,955.005 144.065804,954.705 C143.412804,954.045 143.042804,953.185 143.028804,952.275 C143.034804,952.055 143.058804,951.835 143.100804,951.625 C143.132804,951.395 143.204804,951.175 143.313804,950.975 C143.392804,950.755 143.500804,950.545 143.636804,950.355 C143.779804,950.185 143.922804,950.015 144.065804,949.845 C145.499804,948.575 147.709804,948.575 149.142804,949.845 C149.296804,950.005 149.439804,950.175 149.570804,950.355 C149.706804,950.545 149.814804,950.755 149.893804,950.975 C150.001804,951.175 150.074804,951.395 150.108804,951.625 C150.149804,951.835 150.173804,952.055 150.180804,952.275 C150.165804,953.185 149.795804,954.045 149.143804,954.705 Z M170.596804,954.705 C169.194804,956.055 166.921804,956.055 165.520804,954.705 C164.118804,953.365 164.118804,951.185 165.520804,949.845 C166.921804,948.495 169.194804,948.495 170.596804,949.845 C171.255804,950.495 171.626804,951.365 171.633804,952.275 C171.619804,953.185 171.249804,954.045 170.596804,954.705 Z M157.331804,880.315 C173.129804,880.315 185.936804,892.585 185.936804,907.725 C185.936804,922.865 173.129804,935.145 157.331804,935.145 C141.533804,935.145 128.726804,922.865 128.726804,907.725 C128.744804,892.595 141.540804,880.325 157.331804,880.315 Z" id="08" fill="#000000"></path>
                    <path d="M38.3753041,961.105 C41.7219041,958.465 44.4853041,955.215 46.5036041,951.535 C47.9924041,948.375 49.0411041,945.035 49.6226041,941.605 C43.6392041,941.995 36.9030041,941.995 28.6045041,941.995 C13.2214041,941.995 5.41650406,948.935 1.99020406,953.375 L36.5344041,960.755 C37.1398041,960.905 37.7546041,961.025 38.3753041,961.105 Z" id="07" fill="#C4C6D0"></path>
                    <path d="M64.3618041,969.405 C62.5918041,969.405 48.0061041,969.105 39.5478041,968.175 C39.4770041,968.185 39.4079041,968.205 39.3372041,968.205 C39.1535041,968.185 38.9722041,968.145 38.7951041,968.085 C37.4230041,967.955 36.0635041,967.715 34.7280041,967.385 L7.10542736e-14,959.975 L7.10542736e-14,979.685 C7.10542736e-14,980.965 0.734704062,982.135 1.91170406,982.725 L22.1556041,986.615 C31.3671041,988.335 40.6894041,989.455 50.0588041,989.965 L200.235804,989.965 C200.235804,976.265 200.235804,986.615 200.235804,976.265 L200.235804,969.405 L64.3618041,969.405 Z" id="06" fill="#C4C6D0"></path>
                    <polygon id="05" fill="#3A4061" points="148.949804 890.775 144.991804 902.445 132.186804 902.445 142.546804 909.665 138.588804 921.335 148.949804 914.125 159.309804 921.335 155.352804 909.665 165.712804 902.445 152.906804 902.445"></polygon>
                    <polygon id="04" fill="#303539" points="61.3088041 468.136 214.393804 479.037 224.804804 659.825 214.393804 722.825 214.393804 788.825 207.804804 947.825 166.304804 972.325 68.8048041 936.825 92.8048041 884.825 68.8048041 813.825 61.3088041 649.825"></polygon>
                    <polygon id="03" fill="#303539" points="219.193804 477.253 376.013804 482.58 389.804804 617.829 389.804804 641.829 389.804804 762.825 383.804804 847.825 389.804804 899.825 389.804804 948.825 345.804804 962.825 263.804804 948.825 252.714804 794.825 235.953804 658.925"></polygon>
                    <rect id="02" fill="#303539" x="167.314804" y="491.483" width="109.998" height="122.106"></rect>
                    <polygon id="01" fill="#000000" points="243.527804 0.0194405 243.527804 0.9805595 155.709804 0.9805595 155.709804 0.0194405"></polygon>
                </g>
                <g id="upper-limb" transform="translate(0.181641, 365.503000)">
                    <path d="M76.5943084,460.172006 C83.5401478,455.85518 90.1551594,458.852276 94.0979959,466.293645 C96.7938755,471.381614 98.7888152,479.108132 100.334945,489.549089 L100.511182,490.764278 C102.891523,507.523499 104.117927,530.510155 104.622185,561.014559 L104.725195,567.972699 C104.800415,573.714588 104.848486,579.359322 104.886004,586.648245 L105.024986,622.381633 L105.042881,624.893817 L93.0432367,624.986183 L92.9718948,610.532254 L92.8650388,582.969841 C92.8255102,576.582863 92.7738915,571.39555 92.6960963,565.926336 L92.605501,560.126987 C92.0855515,529.915507 90.8352991,507.31757 88.4643914,491.306918 C87.1027816,482.112017 85.3955824,475.499934 83.4944793,471.911957 C83.2350839,471.422397 82.9857112,471.017071 82.7549513,470.697123 L82.642,470.545 L82.5683239,470.592533 C76.9653448,474.219578 73.3251702,480.029952 71.1356297,488.44454 L70.9978369,488.985182 L70.8016559,489.793182 C69.1731511,496.692801 68.532553,504.445464 68.3098761,516.633916 L68.2389712,521.786651 L68.155127,528.999808 C68.1043604,532.520783 68.0440555,534.988191 67.9432577,537.427012 L67.8483842,539.491398 L55.8635338,538.888602 L55.9420949,537.200333 C56.0491736,534.683983 56.110555,532.147384 56.1631646,528.341911 L56.2759437,518.666097 L56.2998703,517.096897 C56.5291029,503.426617 57.2422718,494.760248 59.2405609,486.543705 L59.3550495,486.079068 C62.270896,474.39729 67.719155,465.687949 76.5943084,460.172006 Z" id="20" fill="#797979" fill-rule="nonzero"></path>
                    <path d="M431.015195,178.343217 C446.028937,168.506383 466.174308,172.703095 476.011142,187.716836 C496.332375,218.732682 508.53383,267.263026 513.415353,324.512447 C517.625909,373.892929 515.72049,425.630628 508.453955,460.450387 C504.787123,478.021104 487.570688,489.292429 469.999972,485.625596 C452.429255,481.958764 441.15793,464.742329 444.824763,447.171613 C450.682049,419.104688 452.360072,373.541433 448.650365,330.034803 C444.6461,283.073665 434.925359,244.099824 422.033215,223.94417 L421.641576,223.339164 C411.804742,208.325422 416.001454,188.180051 431.015195,178.343217 Z" id="19" fill="#EBBAAA" fill-rule="nonzero"></path>
                    <path d="M141.528888,106.016885 C153.565446,92.7015925 174.117181,91.6649724 187.432474,103.701529 C200.747767,115.738087 201.784387,136.289822 189.74783,149.605115 C82.6811146,268.046347 56.2102423,354.706682 104.225193,460.365097 C111.651161,476.706172 104.424038,495.973167 88.0829622,503.399134 C71.7418869,510.825102 52.4748921,503.597979 45.0489248,487.256903 C13.3285902,417.455306 8.12914902,351.477055 28.1401673,285.964989 C45.8695986,227.922381 82.7249681,171.067997 141.528888,106.016885 Z" id="18" fill="#EBBAAA" fill-rule="nonzero"></path>
                    <path d="M207.332359,68.631 C130.304359,68.631 72.884559,139.651 89.015859,214.971 L105.145359,290.283 C106.929359,298.612 107.828359,307.106 107.828359,315.624 L107.826359,519.269 C107.826359,525.547 113.498359,530.349 119.710359,529.447 C149.499359,525.12 231.606359,516.13 323.826359,531.368 C405.024359,544.784 421.545359,539.418 424.150359,534.991 C424.945359,533.639 424.636359,532.008 424.324359,530.364 C424.140359,529.394 423.956359,528.42 423.996359,527.496 L434.989359,276.921 L481.637359,220.811 L436.432359,166.136 C425.535359,110.784 376.721359,68.631 317.702359,68.631 L207.332359,68.631 Z" id="17" fill="#191919"></path>
                    <path d="M245.036259,252.40678 L245.291359,252.292 L245.341095,252.365406 C245.547823,252.678393 245.794094,253.083843 246.076367,253.577935 L246.350197,254.064738 C247.135634,255.481011 248.140319,257.452543 249.36142,259.974805 L249.733359,260.749 L249.683448,260.766468 C236.918158,265.191179 225.588763,272.521972 215.69842,281.875023 L214.992795,282.547945 C209.15647,288.160756 204.417082,293.89418 200.771862,299.183988 L200.241359,299.962 L199.82976,299.431986 C192.049664,289.299693 187.624749,276.970824 187.333694,263.964229 L187.326359,263.592 L191.328122,263.138261 C217.883338,260.053468 235.749721,256.49438 245.036259,252.40678 Z M258.112452,275.497 C266.023299,296.574201 269.63094,314.334729 270.818359,321.022308 C263.695958,323.907251 255.924435,325.497 247.786659,325.497 C233.938719,325.497 221.143096,320.894703 210.818359,313.129922 C213.764213,307.727966 226.854316,286.824095 258.112452,275.497 Z M170.818359,262.997532 C170.818359,305.178875 205.136484,339.497 247.317827,339.497 C289.504487,339.497 323.818359,305.178875 323.818359,262.997532 C323.818359,220.815125 289.504487,186.497 247.317827,186.497 C205.136484,186.497 170.818359,220.815125 170.818359,262.997532 Z M284.254092,313.497 C283.018892,306.967846 279.640759,291.172696 272.818359,272.221684 C289.491426,270.002025 304.146359,273.469252 308.818359,274.769595 C305.888226,290.582687 296.868492,304.319665 284.254092,313.497 Z M241.818359,241.30684 C216.34418,247.744541 193.807522,248.445143 186.818359,248.497 C191.215026,230.518424 203.535522,215.567674 219.896978,207.497 C222.955204,211.715425 232.576385,225.269205 241.818359,241.30684 Z M256.896684,236.497 C248.060846,220.450721 238.600394,206.945354 234.818359,201.722906 C238.822551,200.919948 242.960895,200.497 247.199049,200.497 C262.66418,200.497 276.844663,206.106971 287.818359,215.396809 C284.965735,218.969328 275.600799,229.18772 256.896684,236.497 Z M309.818359,260.497 C303.851704,259.392524 286.245007,256.632912 268.252208,258.675509 C267.95261,257.951124 267.645627,257.224634 267.333369,256.496037 C266.222533,253.895412 265.043127,251.309526 263.818359,248.757333 C283.11188,240.559571 293.529264,229.755919 297.111789,225.497 C304.631293,235.282512 309.286677,247.366472 309.818359,260.497 Z" id="16" fill="#FFFFFF" fill-rule="nonzero" opacity="0.1"></path>
                    <g id="15" transform="translate(77.818359, 63.497000)">
                        <mask id="mask-2" fill="white">
                            <use xlink:href="#path-1"></use>
                        </mask>
                        <g></g>
                        <path d="M242.215,11.037 C242.215,37.506 208.102,58.965 166.022,58.965 C123.941,58.965 89.829,37.506 89.829,11.037 C89.829,7.626 101.647,8.171 102.723,4.963 C110.003,-16.734 129.363,-36.892 166.022,-36.892 C208.102,-36.892 242.215,-15.433 242.215,11.037 Z" fill="#EBBAAA" fill-rule="nonzero" mask="url(#mask-2)"></path>
                    </g>
                    <rect id="14" fill="#EBBAAA" fill-rule="nonzero" x="199.406359" y="-2.84217094e-14" width="91.7357" height="107.344"></rect>
                    <path d="M22.876859,221.885 L36.466259,194.998 L59.374459,174.965 L144.950359,239.161 C144.950359,239.161 112.825359,261.104 103.691359,274.442 C88.957559,295.954 98.877959,287.352 93.972359,303.743 C89.066659,320.135 86.2866022,347.306545 86.2866022,347.306545 C80.0142204,354.684339 68.7853916,355.737133 59.374459,357.923843 C49.9635264,360.110553 32.9202546,359.870194 6.64580194,359.870194 C5.12446282,335.015096 3.50386387e-13,315.114 5.12446282,283.846702 C9.0478006,259.908159 14.965266,239.254258 22.876859,221.885 Z" id="13" fill="#000000" fill-rule="nonzero"></path>
                    <path d="M499.778359,223.319 L492.317359,223.319 L499.778359,212.841 L475.562359,194.909 L378.756359,250.583 C378.756359,250.583 416.173359,258.32 425.829359,270.259 C432.757359,278.825 438.303359,307.778 440.165359,318.848 C440.134359,318.778 440.234359,319.498 440.511359,321.271 C441.060359,324.792 440.898359,323.206 440.165359,318.848 C440.355359,319.267 445.341359,348.404 445.341359,348.404 C454.580185,355.869669 470.195359,361.014 495.610359,362.683 C521.024359,364.353 522.009359,352.096 522.009359,352.096 C522.009359,352.096 526.767359,314.73 522.008359,294.995 C517.248359,275.259 514.325359,257.235 508.325359,241.708 C502.325359,226.181 499.778359,223.319 499.778359,223.319 Z" id="12" fill="#000000" fill-rule="nonzero"></path>
                    <path d="M285.637359,107.811 L310.637359,85.811 L310.637359,66.811 C310.637359,66.811 346.388359,67.811 371.637359,72.811 C396.885359,77.811 433.665359,118.811 433.665359,118.811 C434.722034,202.601328 435.250372,265.542875 435.250372,307.635642 C435.250372,356.986431 434.722034,431.210217 433.665359,530.307 C433.665359,530.307 417.903359,543.221 391.885359,543.221 C365.868359,543.221 310.637359,539.886 310.637359,539.886 L285.637359,107.811 Z" id="11" fill="#5C625B" fill-rule="nonzero"></path>
                    <polygon id="10" fill="#6C726B" fill-rule="nonzero" points="294.63068 107.579945 319.63068 539.654945 311.644038 540.117055 286.644038 108.042055"></polygon>
                    <polygon id="09" fill="#5C625B" fill-rule="nonzero" points="527.637359 227.811 433.665359 118.811 402.637359 181.811 420.637359 298.811"></polygon>
                    <path d="M303.137359,77.3206741 C304.586438,74.5985712 303.885106,69.9906798 301.033362,63.497 C306.99453,63.6484764 311.396834,63.9226356 314.240275,64.3194777 C316.673584,64.6590801 320.186403,65.4895875 324.778734,66.811 C329.41663,68.631 331.166093,73.3616598 331.166093,85.3616598 C331.166093,97.3616598 314.240275,101.811 305.292122,146.752163 L280.637359,101.811 C294.18828,88.2062189 301.68828,80.042777 303.137359,77.3206741 Z" id="08" fill="#6C7A6A" fill-rule="nonzero"></path>
                    <path d="M241.768359,104.624 L187.638359,96.813 L178.638359,66.811 C178.638359,66.811 181.248359,69.633 156.000359,74.633 C130.751359,79.633 93.972359,120.633 93.972359,120.633 L93.972359,532.13 C93.972359,532.13 109.734359,545.043 135.751359,545.043 C161.769359,545.043 211.638359,573.811 211.638359,573.811 C211.638359,573.811 207.638359,329.391 211.638359,258.391 C215.638359,187.391 241.768359,104.624 241.768359,104.624 Z" id="07" fill="#5C625B" fill-rule="nonzero"></path>
                    <path d="M107.000359,300.633 L-7.10542736e-14,229.633 C-7.10542736e-14,229.633 14.5919211,200.100881 51.3485643,152.452274 C88.1052075,104.803668 142.815993,79.623188 142.815993,79.623188 L125.000359,183.633 L107.000359,300.633 Z" id="06" fill="#5C625B" fill-rule="nonzero"></path>
                    <path d="M195.674565,81.3029434 C193.976565,75.8049434 199.406359,65.6969519 199.406359,65.6969519 C190.269098,64.873256 183.600253,64.873256 179.399824,65.6969519 C176.592253,66.2475112 172.749098,68.3088939 167.870359,71.8811 C164.041888,77.5969874 161.809888,82.9305807 165.638359,99.3739448 C169.46683,115.817309 195.674565,118.019475 214.369359,152.452274 L241.850359,104.392 C241.850359,104.392 223.949381,99.8941673 214.369359,95.876 C204.789337,91.8578327 197.372565,86.8009434 195.674565,81.3029434 Z" id="05" fill="#6C7A6A" fill-rule="nonzero"></path>
                    <polygon id="04" fill="#6C7A6A" fill-rule="nonzero" points="323.797359 190.093 401.371359 186.566 401.441359 257.902 332.822359 257.12"></polygon>
                    <path d="M23.809059,523.911 C23.809059,523.911 56.573659,536.232 70.026759,536.232 C83.479759,536.232 149.487359,536.232 149.487359,536.232 L128.346359,861.477 L113.150359,861.477 L50.287959,809.437 L23.809059,523.911 Z" id="03" fill="#4F4F4F" fill-rule="nonzero"></path>
                    <path d="M22.638659,523.811 C22.638659,523.811 58.545959,542.061 83.914559,543.873 C109.283359,545.685 134.014359,536.233 134.014359,536.233 C134.014359,536.233 112.873359,681.807 112.873359,719.807 C112.873359,757.807 112.873359,861.477 112.873359,861.477 L34.814859,809.437 C34.814859,809.437 24.588459,784.347 12.636459,719.807 C2.635809,665.807 22.638659,523.811 22.638659,523.811 Z" id="02" fill="#797979" fill-rule="nonzero"></path>
                    <path d="M65.2831402,459.657103 C75.1356079,455.924793 83.6815742,459.619039 89.5791626,468.997472 C94.1642916,476.288811 97.4365655,487.220311 99.7777776,501.733431 C102.209327,516.806216 103.594655,535.355495 104.279434,558.397568 L104.450264,564.805608 C104.702505,575.292849 104.795175,584.452328 104.886017,602.365163 L105.003789,621.401868 L105.04298,624.864222 L93.0439375,625.015778 L92.9889597,619.879721 C92.9621733,616.842539 92.9406773,613.361866 92.9158987,608.458183 L92.8220649,591.451282 C92.7368877,579.132823 92.6242749,571.54782 92.3858462,562.38544 L92.3202379,559.975633 C91.6734211,537.240638 90.3522014,519.003441 88.0528598,504.409302 L87.9309371,503.644548 C85.8246025,490.587429 82.9576199,481.009863 79.4207804,475.385528 C76.4264637,470.623922 73.719426,469.38438 69.777101,470.789568 L69.5341778,470.878897 L65.2831402,459.657103 Z" id="01" fill="#797979" fill-rule="nonzero"></path>
                </g>
                <g id="hand" transform="translate(69.594138, 0.485840)">
                    <path d="M317.880862,162.48816 C315.018862,106.50216 259.239862,43.9492603 167.681862,43.9492603 C109.741862,43.9492603 51.7928619,98.5051603 44.6388619,150.85516 C37.4858619,203.20516 37.4878619,293.36416 49.6438619,339.89816 C61.5358619,385.41816 131.020862,433.780124 148.906862,436.689124 C166.793862,439.597124 198.604862,442.316103 217.120862,436.689124 C235.636862,431.062145 300.898106,392.54616 311.058318,339.89816 C321.218531,287.25016 320.742862,218.47416 317.880862,162.48816 Z" id="14" fill="#F4D6CD" fill-rule="nonzero"></path>
                    <path d="M94.7839795,159.004929 C102.112215,157.696918 119.853214,161.058731 150.873148,169.13111 C155.046154,170.21706 157.548707,174.480286 156.462757,178.653292 C155.376808,182.826297 151.113582,185.328851 146.940576,184.242901 L142.823913,183.180771 C117.257272,176.642945 101.339421,173.696739 97.5277444,174.377083 C93.162492,175.156233 87.271234,178.020067 80.0835387,183.073841 C76.5561872,185.553973 71.6861594,184.705034 69.2060271,181.177683 C66.7258948,177.650331 67.5748337,172.780303 71.1021852,170.300171 C79.9912966,164.050107 87.8087053,160.249941 94.7839795,159.004929 Z" id="13" fill="#6F6C6C" fill-rule="nonzero"></path>
                    <path d="M203.631427,171.772249 L207.665137,170.932752 C239.38449,164.374608 257.923598,161.60402 265.275881,162.587364 C272.844936,163.599702 281.258652,167.020597 290.655632,172.746792 C294.337832,174.990598 295.503881,179.794575 293.260076,183.476776 C291.01627,187.158976 286.212292,188.325025 282.530092,186.08122 C274.830769,181.389518 268.343152,178.751746 263.205843,178.064647 C258.158107,177.389529 238.615885,180.399234 206.832297,187.055762 C202.611871,187.939658 198.474001,185.234867 197.590105,181.014441 C196.706209,176.794015 199.411001,172.656145 203.631427,171.772249 Z" id="12" fill="#6F6C6C" fill-rule="nonzero"></path>
                    <path d="M168.146992,206.51416 L185.096732,208.192192 L185.029837,208.827176 C184.668936,212.065228 183.909547,216.267922 182.658182,222.230258 L181.79339,226.257201 C180.621657,231.630434 178.47648,241.333542 178.00142,243.528188 L177.398562,246.332643 C176.620549,249.979237 175.942267,253.273611 175.322138,256.437662 L175.003667,258.078492 C172.295853,272.170865 170.949071,282.935063 171.132025,290.673231 C171.219682,294.380724 171.672431,297.093595 172.311503,298.602582 L172.379,298.755016 L198.259862,298.755876 L198.259862,315.788476 L171.716862,315.788476 C165.253482,315.788476 160.140061,312.324028 157.252761,306.5963 C155.189115,302.502509 154.252994,297.369842 154.104184,291.075822 C153.877464,281.486558 155.465774,269.191793 158.607541,253.161732 L159.09831,250.68952 C159.601059,248.187815 160.141753,245.586903 160.7384,242.790226 L161.894985,237.453685 C162.889677,232.925296 164.771306,224.402138 165.547005,220.809164 L166.088538,218.254458 C167.165233,213.092355 167.814645,209.478092 168.094373,207.008835 L168.146992,206.51416 Z" id="11" fill="#EBBAAA" fill-rule="nonzero"></path>
                    <path d="M159.273862,19.7839603 C158.741862,12.2096603 169.173862,-2.28968968 215.158862,0.307349323 C272.638862,3.55364032 341.297862,71.7200603 352.474862,115.54116 C339.162862,118.83016 355.279862,129.86016 358.540862,141.24516 C364.419862,161.76716 364.252353,186.38516 364.252353,207.26316 C364.252353,278.67516 333.094395,300.635116 329.562395,308.329116 C322.65599,323.37258 314.748789,312.154329 316.162789,299.442429 C317.576789,286.73053 320.589489,272.281972 320.589489,272.281972 C320.925489,269.716972 321.516144,245.768159 318.975144,213.872159 C316.766144,186.125159 318.828862,173.90816 315.956953,171.18116 C290.645176,161.61706 265.696296,146.886844 241.110311,126.990513 C204.231334,97.1460174 182.851369,65.4051249 172.355862,52.6471566 C161.860355,39.8891882 159.805862,27.3582603 159.273862,19.7839603 Z" id="10" fill="#000000" fill-rule="nonzero"></path>
                    <path d="M248.147862,110.29116 C227.550862,98.9867603 185.798862,58.4219603 174.089862,47.6021603 C190.056862,47.6021603 253.478862,37.6361603 283.816862,92.8184603 C314.153862,148.00116 355.667862,182.08416 330.120862,177.21516 C309.682862,173.32016 268.745862,121.59616 248.147862,110.29116 Z" id="09" fill="#000000" fill-rule="nonzero"></path>
                    <path d="M316.162789,299.442429 C317.538848,271.745824 318.975144,245.315045 318.975144,212.090456 C335.674144,219.774456 346.862862,236.48616 346.862862,255.83216 C346.862862,272.42116 332.554789,289.267429 316.162789,299.442429 Z" id="08" fill="#EBBAAA"></path>
                    <path d="M42.9268619,299.21116 C40.8808619,274.72016 40.8018619,244.55916 41.7398619,212.11716 C25.0405619,219.80116 13.4708619,236.48616 13.4708619,255.83216 C13.4708619,272.42116 26.5356619,289.03616 42.9268619,299.21116 Z" id="07" fill="#EBBAAA"></path>
                    <path d="M131.185862,2.98704032 C171.065862,0.390000323 180.113862,14.8893603 179.651862,22.4636603 C223.18289,58.1573489 190.571663,65.9058804 174.089862,73.5904055 C157.608061,81.2749306 135.537775,82.9749381 106.107775,102.988138 C76.6777751,123.001038 44.7010947,165.565428 42.9268619,193.90316 C41.1526292,222.240893 47.3588619,325.851687 42.9268619,306.375687 C37.3888619,282.030687 32.6068361,255.274824 27.3303619,244.81516 C15.4029031,221.171111 15.4029031,268.583834 8.8339153,230.657694 C5.35266784,210.558664 -3.55963805,164.44716 1.53886195,143.92416 C4.36726195,132.54016 18.3448619,121.51016 6.80026195,118.22116 C16.4934619,74.3997603 81.3358619,6.23333032 131.185862,2.98704032 Z" id="06" fill="#000000" fill-rule="nonzero"></path>
                    <path d="M106.900439,208.420079 C117.305749,207.513002 127.930516,209.261792 138.033824,214.206198 C141.906891,216.101618 143.51009,220.777901 141.61467,224.650968 C139.71925,228.524035 135.042967,230.127234 131.1699,228.231814 C123.725261,224.58852 115.937142,223.30663 108.256534,223.976183 C102.58575,224.47053 97.3258788,226.047801 94.0934424,227.817168 L93.7870094,227.988967 C90.0480633,230.136883 85.275818,228.847099 83.1279011,225.108153 C80.9799843,221.369207 82.2697684,216.596962 86.0087145,214.449045 C91.2061605,211.463262 98.816183,209.12482 106.900439,208.420079 Z" id="05" fill="#000000" fill-rule="nonzero"></path>
                    <path d="M244.156554,208.42008 C254.561747,207.512999 265.186525,209.261797 275.289824,214.206198 C279.162891,216.101618 280.76609,220.777901 278.87067,224.650968 C276.97525,228.524035 272.298967,230.127234 268.4259,228.231814 C260.98127,224.588525 253.193149,223.30663 245.51267,223.976182 C239.842031,224.470524 234.582411,226.047793 231.350788,227.816944 L231.044436,227.988722 C227.305625,230.136874 222.533299,228.847391 220.385146,225.10858 C218.236994,221.369769 219.526477,216.597443 223.265288,214.44929 C228.462157,211.463403 236.07222,209.124839 244.156554,208.42008 Z" id="04" fill="#000000" fill-rule="nonzero"></path>
                    <g id="Group" transform="translate(120.405862, 336.514160)">
                        <path d="M0.802,0.329 L0.802,12.444 C0.802,31.093 27.595,46.206 60.632,46.206 C93.681,46.206 120.463,31.093 120.463,12.444 L120.463,0.329 L0.802,0.329 Z" id="03" fill="#393939"></path>
                        <g id="02">
                            <mask id="mask-4" fill="white">
                                <use xlink:href="#path-3"></use>
                            </mask>
                            <g></g>
                            <path d="M60.633,57.032 C80.561,57.032 96.715,52.07 96.715,45.949 C96.715,39.829 80.561,34.867 60.633,34.867 C40.706,34.867 24.551,39.829 24.551,45.949 C24.551,52.07 40.706,57.032 60.633,57.032 Z" fill="#FF6C6C" fill-rule="nonzero" mask="url(#mask-4)"></path>
                        </g>
                        <rect id="01" fill="#FFFFFF" fill-rule="nonzero" x="0.802" y="0.329" width="119.664" height="13.9176"></rect>
                    </g>
                </g>
            </g>
        </g>
    </g>
</svg>