<?xml version="1.0" encoding="UTF-8"?>
<svg width="524px" height="1381px" viewBox="0 0 524 1381" version="1.1" xmlns="http://www.w3.org/2000/svg" xmlns:xlink="http://www.w3.org/1999/xlink">
    <!-- Generator: Sketch 55.2 (78181) - https://sketchapp.com -->
    <title>gee_me_098</title>
    <desc>Created with Sketch.</desc>
    <defs>
        <path d="M0.0004,63 C0.0004,47.23 5.2062,38.57 14.628,32.45 C59.458,3.35 117.587,1.98 171,0 C171.437,0 172.831,3.24 173.022,3.63 C174.94,7.57 185,29.05 185,46.24 C185,59.39 186.126,72.32 182.5,79 C180.864,82.01 170.649,83.66 167.219,83.66 L5.5628,83.66 C2.4908,83.66 0.0004,66.07 0.0004,63 Z" id="path-1"></path>
        <path d="M185.166,63 C185.166,47.23 179.96,38.57 170.538,32.45 C125.708,3.35 67.579,1.98 14.166,0 C13.729,0 12.335,3.24 12.144,3.63 C10.226,7.57 0.166,29.05 0.166,46.24 C0.166,59.39 -0.96,72.32 2.666,79 C4.302,82.01 14.517,83.66 17.947,83.66 L179.603,83.66 C182.675,83.66 185.166,66.07 185.166,63 Z" id="path-3"></path>
    </defs>
    <g id="GEE!-ME" stroke="none" stroke-width="1" fill="none" fill-rule="evenodd">
        <g id="gee_me_098" transform="translate(-336.000000, -110.000000)">
            <g transform="translate(321.000000, 110.000000)">
                <g id="lower-limb" transform="translate(86.000000, 878.000000)">
                    <path d="M175.145,115.92 C238.929,115.92 290.635,91.427 290.635,61.214 C290.635,31.001 238.929,6.508 175.145,6.508 C111.362,6.508 59.655,31.001 59.655,61.214 C59.655,91.427 111.362,115.92 175.145,115.92 Z" id="Path" fill="#445A73" fill-rule="nonzero"></path>
                    <path d="M260.326,270.92 L260.326,438.93" id="Path" stroke="#EBBAAA" stroke-width="54" stroke-linecap="round" stroke-linejoin="bevel"></path>
                    <path d="M124.271,270.92 L141,424" id="Path" stroke="#EBBAAA" stroke-width="54" stroke-linecap="round" stroke-linejoin="bevel"></path>
                    <path d="M167,410 C137.4,416 117.667,412.5 112.5,410 L115.5,443.5 L147,458.5 L171,438.5 C170,430 168,420 167,410 Z" id="Path" fill="#91979C" fill-rule="nonzero"></path>
                    <path d="M233,411 C262.6,417 282.334,413.5 287.5,411 L287.5,444.5 L256,459.5 L232,439.5 C233,431 232,421 233,411 Z" id="Path" fill="#91979C" fill-rule="nonzero"></path>
                    <path d="M0.000200000001,482 C0.000200000001,451.3 19.726,447.55 51.877,437.03 C67.623,431.88 83.694,427.39 100,424.69 C110.247,422.99 113,432 131,432 C147.052,432 167.078,424.05 171.225,422.33 C171.745,422.11 172.362,421.92 172.775,422.3 C172.876,422.39 172.96,422.51 173.022,422.63 C174.94,426.57 185,448.05 185,465.24 C185,478.39 186.126,491.32 182.5,498 C180.864,501.01 170.649,502.66 167.219,502.66 L5.5627,502.66 C2.4906,502.66 0.000200000001,485.07 0.000200000001,482 Z" id="Path" fill="#4E4B48" fill-rule="nonzero"></path>
                    <g id="Clipped" transform="translate(0.000000, 419.000000)">
                        <mask id="mask-2" fill="white">
                            <use xlink:href="#path-1"></use>
                        </mask>
                        <g id="Path"></g>
                        <g id="Group" mask="url(#mask-2)" fill-rule="nonzero">
                            <g transform="translate(-24.000000, -2.000000)" id="Path">
                                <path d="M47.5,44 C32.0002,44 27.6669,35 26.0003,33.5 C23.0003,37 25.5003,51.1 23.5003,57.5 C21.5003,63.9 24.3336,70.17 26.0003,72.5 L165.5,79 C166.334,65.67 167.5,39 165.5,39 C163,39 147,17.5 138.5,17 C131.7,16.6 98.667,25.17 83,29.5 C85,31.5 88.3,41.7 89.5,46.5 C91,52.5 91.5,52.5 86,54 C80.5,55.5 79.5,44 73.5,44 L47.5,44 Z" fill="#333230"></path>
                                <path d="M153.5,39.5 C155.9,35.5 194.5,29.83 210,28 L217,71 L139,75.5 C142.834,65.17 151.1,43.5 153.5,39.5 Z" fill="#272625"></path>
                                <path d="M171.5,11 C183.5,10.2 193.5,3.67 197.5,0 C201.5,4 211.4,15 209,19 C206,24 183,28 173,28 C163,28 156.5,12 171.5,11 Z" fill="#CDC7BB"></path>
                                <path d="M112.5,70.5 C87,69.5 65,75.5 37.0002,69.5 C-12.9998,64 12.6886,67.27 0.0004,91.59 L196.084,91.59 C215.5,87 221.942,58.71 207.5,61 C176,66 132.011,71.26 112.5,70.5 Z" fill="#CDC7BB"></path>
                                <path d="M215,69.5 C208.2,72.3 116,72.5 113,70.5 C120,69 171.519,63.16 183,62.5 C200.5,61.5 207.167,60.17 215,60.5 C217.834,62.5 221.8,66.7 215,69.5 Z" fill="#882929"></path>
                            </g>
                        </g>
                    </g>
                    <path d="M80.3617482,425.09861 C77.5489852,424.451273 75.4709084,427.681206 77.2258784,429.97266 L83.2020614,437.775727 L58.8425271,430.847632 C55.7813944,429.977015 53.5715745,433.754949 55.8308681,435.996399 L69.1258681,449.186399 C70.3333832,450.384378 72.283421,450.376647 73.4813995,449.169132 C74.679378,447.961617 74.671647,446.011579 73.4641319,444.813601 L68.6549012,440.042352 L90.4544729,446.242368 C93.3064238,447.053491 95.5449817,443.761324 93.7421216,441.40734 L87.3188003,433.020447 L109.309252,438.08139 C111.238667,438.525431 113.07985,437.059853 113.07985,435.08 C113.07985,430.851073 110.160894,427.794512 104.782212,424.46669 L104.139014,424.075583 L102.39102,423.056993 C101.131774,422.330421 99.7752709,421.555286 99.4686154,421.368744 C98.0154131,420.484749 96.1207399,420.946182 95.2367444,422.399385 C94.3527489,423.852587 94.8141822,425.74726 96.2673846,426.631256 L100.871181,429.298969 C101.003173,429.377002 101.117522,429.445321 101.209656,429.501385 C101.441302,429.642345 101.665851,429.781812 101.883314,429.919745 L102.204193,430.12549 L80.3617482,425.09861 Z" id="Path" fill="#CDC7BB" fill-rule="nonzero"></path>
                    <path d="M106.204513,413.106888 L106.268469,417.152951 L106.269051,418.467699 L106.253683,419.232989 C106.209748,420.701197 106.084384,421.806516 105.837587,422.753258 C105.482048,424.105311 104.875433,425.066158 103.941145,425.721032 C102.919161,426.438214 101.481741,426.78985 99.525,426.78985 C95.4447952,426.78985 90.5815516,425.274851 86.7936436,422.753281 C82.5215692,419.907728 80.01915,416.120704 80.01915,411.91 C80.01915,407.350294 81.127578,403.381886 83.1989259,400.562058 C85.3614087,397.604817 88.4929944,396.00015 92.339,396.00015 C100.130102,396.00015 106.044545,402.61332 106.194916,411.560247 L106.204513,413.106888 Z M99.985773,420.618753 C100.064448,420.031516 100.108356,419.193973 100.112318,418.043412 L100.112066,417.656453 L100.042517,412.906519 L100.03815,411.91 C100.03815,406.024328 96.6403502,402.15985 92.339,402.15985 C90.466895,402.15985 89.178762,402.819907 88.167151,404.203294 C86.9320299,405.884733 86.17885,408.581277 86.17885,411.91 C86.17885,413.814386 87.5106086,415.829797 90.207658,417.626254 C92.9981928,419.483883 96.6777834,420.63015 99.525,420.63015 L99.6897162,420.628822 L99.985773,420.618753 Z" id="Path" fill="#CDC7BB" fill-rule="nonzero"></path>
                    <path d="M106.621403,416.965398 L106.099716,418.081967 L105.359975,419.684417 L105.206332,420.028797 C104.594941,421.414615 104.246291,422.41683 104.103698,423.298024 C104.023371,423.787783 104.012194,424.234855 104.069896,424.647015 L104.148112,425.024347 C104.153359,425.046087 104.158577,425.066459 104.163983,425.086259 L104.247247,425.341408 L104.866831,425.77078 L104.57041,425.968393 C105.055153,426.695508 105.885647,427.333934 107.181695,427.912416 C109.949871,429.142721 113.699784,429.597053 117.022083,429.060446 C120.775284,428.446245 123.605498,426.656326 124.860956,423.846336 C126.224402,420.773641 126.655741,417.779993 126.091014,415.26519 C125.500887,412.635097 123.856351,410.610551 121.251503,409.447672 C116.07552,407.14592 110.217845,409.63177 107.372503,415.335647 L107.230439,415.62844 L106.621403,416.965398 Z M110.038212,423.250272 L110.003335,423.145967 C109.999354,423.136131 109.993743,423.122515 109.985684,423.103046 L110.038212,423.250272 Z M110.772993,422.672603 L110.976792,422.212944 L111.674004,420.70577 L111.689496,420.669867 L112.394141,419.156118 L112.720425,418.433043 C114.122304,415.285441 116.655019,414.144924 118.744559,415.074138 C119.561589,415.438887 119.914666,415.873551 120.080867,416.614277 C120.332282,417.733859 120.090853,419.40946 119.233848,421.340843 C118.927285,422.026974 117.903233,422.674617 116.033602,422.98058 C114.310162,423.25894 112.339197,423.117306 110.772993,422.672603 Z" id="Path" fill="#CDC7BB" fill-rule="nonzero"></path>
                    <polygon id="Path" stroke="#CDC7BB" stroke-width="2" fill="#882929" fill-rule="nonzero" points="91 481.5 77 455 87.5 450 105.5 460.5 95.5 446.5 105.5 442 120 468.5 110 472.5 90.5 461 100.5 477"></polygon>
                    <path d="M401.166,482 C401.166,451.3 381.44,447.55 349.29,437.03 C333.543,431.88 317.472,427.39 301.166,424.69 C290.919,422.99 288.166,432 270.166,432 C254.114,432 234.088,424.05 229.941,422.33 C229.421,422.11 228.804,421.92 228.391,422.3 C228.29,422.39 228.206,422.51 228.144,422.63 C226.226,426.57 216.166,448.05 216.166,465.24 C216.166,478.39 215.04,491.32 218.666,498 C220.302,501.01 230.517,502.66 233.947,502.66 L395.603,502.66 C398.675,502.66 401.166,485.07 401.166,482 Z" id="Path" fill="#4E4B48" fill-rule="nonzero"></path>
                    <g id="Clipped" transform="translate(216.000000, 419.000000)">
                        <mask id="mask-4" fill="white">
                            <use xlink:href="#path-3"></use>
                        </mask>
                        <g id="Path"></g>
                        <g id="Group" mask="url(#mask-4)" fill-rule="nonzero">
                            <g transform="translate(-10.000000, -2.000000)" id="Path">
                                <path d="M171.666,44 C187.166,44 191.499,35 193.166,33.5 C196.166,37 193.666,51.1 195.666,57.5 C197.666,63.9 194.832,70.17 193.166,72.5 L53.666,79 C52.832,65.67 51.666,39 53.666,39 C56.166,39 72.166,17.5 80.666,17 C87.466,16.6 120.499,25.17 136.166,29.5 C134.166,31.5 130.866,41.7 129.666,46.5 C128.166,52.5 127.666,52.5 133.166,54 C138.666,55.5 139.666,44 145.666,44 L171.666,44 Z" fill="#333230"></path>
                                <path d="M65.666,39.5 C63.266,35.5 24.666,29.83 9.166,28 L2.166,71 L80.166,75.5 C76.332,65.17 68.066,43.5 65.666,39.5 Z" fill="#272625"></path>
                                <path d="M47.666,11 C35.666,10.2 25.666,3.67 21.666,0 C17.666,4 7.766,15 10.166,19 C13.166,24 36.166,28 46.166,28 C56.166,28 62.666,12 47.666,11 Z" fill="#CDC7BB"></path>
                                <path d="M106.666,70.5 C132.166,69.5 154.166,75.5 182.166,69.5 C232.166,64 206.477,67.27 219.166,91.59 L23.082,91.59 C3.666,87 -2.776,58.71 11.666,61 C43.166,66 87.155,71.26 106.666,70.5 Z" fill="#CDC7BB"></path>
                                <path d="M4.166,69.5 C10.966,72.3 103.166,72.5 106.166,70.5 C99.166,69 47.647,63.16 36.166,62.5 C18.666,61.5 11.999,60.17 4.166,60.5 C1.332,62.5 -2.634,66.7 4.166,69.5 Z" fill="#882929"></path>
                            </g>
                        </g>
                    </g>
                    <path d="M307.423878,441.40734 C305.621018,443.761324 307.859576,447.053491 310.711527,446.242368 L332.511099,440.042352 L327.701868,444.813601 C326.494353,446.011579 326.486622,447.961617 327.684601,449.169132 C328.882579,450.376647 330.832617,450.384378 332.040132,449.186399 L345.335132,435.996399 C347.594426,433.754949 345.384606,429.977015 342.323473,430.847632 L317.963939,437.775727 L323.940122,429.97266 C325.695092,427.681206 323.617015,424.451273 320.804252,425.09861 L298.961807,430.12549 C299.172184,429.9891 299.389645,429.851157 299.614197,429.7117 L299.956344,429.501385 C300.916066,428.917381 304.286377,427.003685 304.898615,426.631256 C306.351818,425.74726 306.813251,423.852587 305.929256,422.399385 C305.04526,420.946182 303.150587,420.484749 301.697385,421.368744 L297.455331,423.822945 C297.298805,423.914664 297.154656,423.999637 297.026986,424.075583 L296.754322,424.239355 C291.139293,427.656183 288.08615,430.754961 288.08615,435.08 C288.08615,437.059853 289.927333,438.525431 291.856748,438.08139 L313.8472,433.020447 L307.423878,441.40734 Z" id="Path" fill="#CDC7BB" fill-rule="nonzero"></path>
                    <path d="M294.964074,412.865558 L294.935322,414.808254 C294.933237,414.918515 294.931045,415.03218 294.928742,415.149622 L294.92815,415.25 L294.897495,417.155756 L294.893997,418.056588 C294.90116,420.138626 295.019916,421.569831 295.326742,422.746876 C295.683952,424.105311 296.290567,425.066158 297.22624,425.722004 C298.246839,426.438214 299.684259,426.78985 301.641,426.78985 C305.721205,426.78985 310.584448,425.274851 314.371658,422.753746 C318.644431,419.907728 321.14685,416.120704 321.14685,411.91 C321.14685,407.350294 320.038422,403.381886 317.963151,400.556706 C315.804591,397.604817 312.673006,396.00015 308.827,396.00015 C301.138412,396.00015 295.277423,402.440434 294.980004,411.208301 L294.971084,411.560247 L294.964074,412.865558 Z M301.17993,420.618737 L301.140675,420.273991 C301.098919,419.841541 301.071452,419.301701 301.059777,418.638473 L301.053984,417.638678 L301.08785,415.21 L301.118265,413.420802 L301.126816,412.410645 C301.12751,412.245136 301.12785,412.079187 301.12785,411.91 C301.12785,406.024328 304.52565,402.15985 308.827,402.15985 C310.699105,402.15985 311.987238,402.819907 312.994926,404.197942 C314.23397,405.884733 314.98715,408.581277 314.98715,411.91 C314.98715,413.814386 313.655391,415.829797 310.957644,417.626719 C308.167807,419.483883 304.488217,420.63015 301.641,420.63015 L301.322512,420.624955 C301.273145,420.623264 301.225623,420.621181 301.17993,420.618737 Z" id="Path" fill="#CDC7BB" fill-rule="nonzero"></path>
                    <path d="M294.072326,415.926734 L294.187484,416.184069 L295.066284,418.081967 L295.884195,419.858537 L296.095444,420.340376 C296.623472,421.568047 296.930596,422.484117 297.061249,423.291563 C297.142629,423.787783 297.153806,424.234855 297.083945,424.726324 L297.020522,425.020386 C297.016155,425.038227 297.011814,425.055116 297.007344,425.071592 L296.984961,425.144988 L296.217266,425.716177 L296.59559,425.968393 C296.110847,426.695508 295.280353,427.333934 293.979846,427.914402 C291.216129,429.142721 287.466216,429.597053 284.137602,429.05942 C280.390716,428.446245 277.560502,426.656326 276.301848,423.839157 C274.941598,420.773641 274.510259,417.779993 275.074867,415.265723 C275.665113,412.635097 277.309649,410.610551 279.918559,409.445862 C285.265937,407.067895 291.346068,409.805804 294.072326,415.926734 Z M296.919886,425.338245 L296.94355,425.267737 L296.88022,425.438308 L296.919886,425.338245 Z M288.445774,418.433488 L288.322681,418.168165 C286.899335,415.221956 284.451396,414.171421 282.425503,415.072328 C281.604411,415.438887 281.251334,415.873551 281.085014,416.61481 C280.833718,417.733859 281.075147,419.40946 281.928956,421.333664 C282.238715,422.026974 283.262767,422.674617 285.126083,422.979554 C286.722455,423.237395 288.526505,423.136435 290.025135,422.77 L290.393132,422.672914 L290.189022,422.212523 L288.771859,419.156118 L288.445774,418.433488 Z M291.087129,423.375639 L291.152645,423.174283 L291.139384,423.218389 C291.117245,423.279743 291.101126,423.327423 291.087129,423.375639 Z M291.139384,423.218389 L291.152645,423.174283 L291.194343,423.069192 L291.139384,423.218389 Z" id="Path" fill="#CDC7BB" fill-rule="nonzero"></path>
                    <polygon id="Path" stroke="#CDC7BB" stroke-width="2" fill="#882929" fill-rule="nonzero" points="310.166 481.5 324.166 455 313.666 450 295.666 460.5 305.666 446.5 295.666 442 281.166 468.5 291.166 472.5 310.666 461 300.666 477"></polygon>
                    <polygon id="Path" fill="#445A73" fill-rule="nonzero" points="51 0 186 0 181 359.79 181 384 89 384 84.886 353.3"></polygon>
                    <polygon id="Path" fill="#445A73" fill-rule="nonzero" points="184.715 6.021 320.172 6.021 315 356 309 384 222 390 218.739 360"></polygon>
                    <polygon id="Path" fill="#3E4A57" fill-rule="nonzero" points="83 372 183 372 183 396 85.785 396"></polygon>
                    <polygon id="Path" fill="#3E4A57" fill-rule="nonzero" points="218 374 312 374 308 396 221.744 396"></polygon>
                </g>
                <g id="upper-limb" transform="translate(0.081626, 424.000000)" fill-rule="nonzero">
                    <path d="M98.4177416,425.150551 C97.8104916,409.42161 99.3339651,387.768168 102.765747,363.559837 L103.196384,360.576291 C110.286512,312.311976 123.545604,262.752601 136.185204,237.52872 L136.575914,236.756387 C145.87108,218.558307 138.653842,196.270627 120.455762,186.97546 C102.257681,177.680294 79.9700008,184.897532 70.6748346,203.095613 C53.2906168,237.130442 37.5921301,296.078092 29.4982767,353.173413 L29.1114216,355.944385 L28.7387489,358.69942 C25.2660167,384.794695 23.7256901,408.653023 24.472829,428.005355 C24.9434273,440.194754 26.3074362,450.830517 28.8422594,460.040163 C32.7664195,474.297617 39.4481924,485.977462 51.670557,493.968947 C68.7736819,505.151673 91.703895,500.352242 102.886621,483.249117 C112.084545,469.181596 110.470131,451.171901 100.09026,438.999408 L99.7730378,438.632341 C99.140936,435.515063 98.6400311,430.908276 98.4177416,425.150551 Z" id="Path" fill="#EBBAAA"></path>
                    <path d="M394.414241,215.367009 C413.004851,248.322791 428.034032,299.320044 435.856685,353.064769 C442.751771,400.436751 442.680785,443.276151 437.310465,458.890456 L437.146107,459.35526 C430.16261,478.559453 440.069442,499.78877 459.273635,506.772267 C478.477828,513.755764 499.707145,503.848932 506.690641,484.64474 C517.506764,454.90106 517.683221,401.478983 509.085064,342.406231 C500.055759,280.371319 482.563872,221.017576 458.866507,179.008991 C448.826518,161.21099 426.259367,154.921878 408.461366,164.961867 C390.663364,175.001856 384.374252,197.569007 394.414241,215.367009 Z" id="Path" fill="#EBBAAA"></path>
                    <rect id="Rectangle" fill="#F1EDED" transform="translate(118.249932, 195.444298) rotate(18.000000) translate(-118.249932, -195.444298) " x="63.3139318" y="187.100798" width="109.872" height="16.687"></rect>
                    <rect id="Rectangle" fill="#F1EDED" transform="translate(426.834850, 218.062018) rotate(162.000000) translate(-426.834850, -218.062018) " x="371.89885" y="209.718518" width="109.872" height="16.687"></rect>
                    <path d="M139.472374,126.116 C140.306374,91.7 167.858374,63.912 202.263374,62.788 L282.587374,60.16 C289.132374,59.954 295.688374,60.294 302.171374,61.191 L380.578374,72.034 C415.169374,76.816 439.783374,108.088 436.299374,142.834 L421.467374,290.722 L428.909374,502.597 C428.981374,504.411 342.732374,502.69 340.918374,502.597 L202.263374,502.597 L123.454374,490.703 C121.712374,490.61 120.383374,489.095 120.527374,487.353 L135.926374,272.303 L139.472374,126.116 Z" id="Path" fill="#D7DADD"></path>
                    <path d="M270.032374,149.774 C309.880374,149.774 342.183374,117.471 342.183374,77.623 C342.183374,37.776 309.880374,5.473 270.032374,5.473 C230.185374,5.473 197.882374,37.776 197.882374,77.623 C197.882374,117.471 230.185374,149.774 270.032374,149.774 Z" id="Path" fill="#E9E4E0"></path>
                    <rect id="Rectangle" fill="#EBBAAA" x="230.918374" y="0" width="88" height="119" rx="37.911"></rect>
                    <rect id="Rectangle" fill="#A3A7AE" transform="translate(122.804899, 246.392640) rotate(16.500000) translate(-122.804899, -246.392640) " x="48.9488994" y="66.5711403" width="147.712" height="359.643" rx="73.856"></rect>
                    <path d="M18.1194743,455 C11.7194743,436.6 15.9185743,348 23.9184743,318 L132.119374,337 C119.918374,375 117.918374,425 108.918374,474 L108.765374,474.007 C87.6193743,475.014 26.1001743,477.944 18.1194743,455 Z" id="Path" fill="#A3A7AE"></path>
                    <polygon id="Path" fill="#969BA3" points="44.9184743 316 117.418374 338 38.4184743 330.5"></polygon>
                    <polygon id="Path" fill="#969BA3" points="62.9184743 345 118.918374 342 70.4184743 357.5"></polygon>
                    <rect id="Rectangle" fill="#A3A7AE" transform="translate(419.817794, 256.293726) scale(-1, 1) rotate(18.999984) translate(-419.817794, -256.293726) " x="340.825266" y="62.139658" width="157.985055" height="388.308136" rx="78.9925"></rect>
                    <path d="M482.918374,195.84 C473.918374,191.499 440.918374,200.999 422.918374,211.999 L422.918374,243.84 C422.918374,237.44 468.918374,224.507 491.918374,218.84 C490.918374,214.507 487.718374,203.84 482.918374,195.84 Z" id="Path" fill="#E8ECF3"></path>
                    <path d="M491.918374,219.458 C470.418374,216.5 443.418374,229.001 425.418374,240.001 C425.418374,251.001 431.918374,275.858 431.918374,269.458 C431.918374,263.058 476.918374,251.125 499.918374,245.458 C498.918374,241.125 496.718374,227.458 491.918374,219.458 Z" id="Path" fill="#3D507B"></path>
                    <path d="M61.9185743,195.075 C70.9185743,190.733 103.918374,200.233 121.918374,211.233 L121.918374,243.075 C121.918374,236.675 75.9185743,223.741 52.9185743,218.075 C53.9185743,213.741 57.1185743,203.075 61.9185743,195.075 Z" id="Path" fill="#E8ECF3"></path>
                    <path d="M52.9185743,218.691 C74.4185743,215.733 101.418374,228.233 119.418374,239.233 C119.418374,250.233 112.918374,275.091 112.918374,268.691 C112.918374,262.291 67.9185743,250.357 44.9185743,244.691 C45.9185743,240.357 48.1185743,226.69 52.9185743,218.691 Z" id="Path" fill="#3D507B"></path>
                    <path d="M281.918374,329 C281.124374,261.844 258.918374,169.652 258.918374,137.5 C251.918374,137.5 244.918374,136.5 239.918374,133.5 C240.188374,107.657 242.016374,81.155 231.033374,57 L145.509374,73.472 C132.187374,91.805 108.749374,146.579 104.988374,251.497 C101.998374,334.877 105.089374,391.061 104.988374,445 C104.962374,458.933 124.918374,469.179 124.918374,506.679 C141.375374,511.439 227.845374,523.601 281.918374,506.679 C291.918374,441 283.094374,428.418 281.918374,329 Z" id="Path" fill="#AEB4BF"></path>
                    <path d="M532.918374,459 C539.318374,440.6 540.918374,376 532.918374,346 L418.918374,341 C431.119374,379 416.918374,418 425.918374,467 C446.918374,468 524.918374,482 532.918374,459 Z" id="Path" fill="#A3A7AE"></path>
                    <polygon id="Path" fill="#969BA3" points="499.418374 307 426.918374 329 505.918374 321.5"></polygon>
                    <polygon id="Path" fill="#969BA3" points="485.918374 339 429.918374 336 478.418374 351.5"></polygon>
                    <path d="M273.918374,317 C273.918374,220.793 283.918374,167.112 283.918374,136 C289.418374,136 295.368374,136.5 302.918374,134 C306.502374,107.4 316.182374,77.882 326.300374,55 L384.343374,64.36 C398.781374,66.688 411.453374,75.084 414.663374,89.353 C421.777374,120.979 425.861374,180.045 432.356374,257.125 C438.918374,335 435.659374,400.547 438.918374,454 C439.935374,470.673 417.042374,497.856 417.918374,508.725 C389.159374,512.818 330.800374,525.099 279.918374,508.725 C279.918374,443.226 273.918374,413.207 273.918374,317 Z" id="Path" fill="#AEB4BF"></path>
                    <path d="M237.279374,258.535 C233.618374,265.967 231.290374,273.977 230.130374,281.624 C224.619374,295.31 218.866374,304.992 211.749374,312.664 L228.455374,244.35 L230.222374,237.123 L222.863374,238.217 L196.679374,242.109 L193.368374,242.601 L192.561374,245.849 L191.948374,248.318 C187.659374,244.989 181.223374,242.23 172.151374,243.578 C153.550374,246.343 143.115374,263.077 137.696374,279.327 C132.199374,295.81 131.041374,314.052 132.490374,323.693 C133.512374,330.497 136.323374,336.802 141.035374,341.199 C144.591374,344.517 149.054374,346.572 154.144374,346.984 C145.747374,352.78 135.246374,363.05 137.185374,377.343 L137.190374,377.379 L137.195374,377.414 C138.076374,383.275 140.948374,388.819 146.038374,392.541 C151.157374,396.284 157.975374,397.792 166.002374,396.599 C189.237374,393.145 197.317374,372.007 201.613374,354.864 L201.648374,354.728 L201.674374,354.59 C201.984374,352.97 202.520374,350.585 202.992374,348.548 C203.135374,347.933 203.270374,347.357 203.389374,346.854 C211.971374,341.13 220.349374,334.881 228.122374,326.238 C230.657374,323.419 233.114374,320.361 235.487374,317.004 C237.616374,320.176 240.314374,322.9 243.618374,325.068 C251.360374,330.146 261.632374,331.647 273.814374,329.836 C294.138374,326.815 308.711374,316.249 318.981374,303.546 C321.196374,307.13 324.096374,310.183 327.727374,312.566 C335.469374,317.644 345.741374,319.144 357.923374,317.334 C392.137374,312.248 410.054374,285.78 418.581374,263.729 L419.473374,261.424 L418.182374,259.315 C416.637374,256.79 414.089374,254.907 411.714374,253.708 C409.319374,252.5 406.334374,251.598 403.446374,251.752 L400.207374,251.924 L399.044374,254.953 C390.928374,276.091 376.038374,288.121 361.451374,290.289 C356.869374,290.971 354.110374,290.425 352.488374,289.698 C350.938374,289.002 350.038374,287.969 349.450374,286.815 C349.217374,286.356 349.032374,285.873 348.887374,285.385 C362.276374,284.549 372.371374,281.527 379.892374,276.518 C388.500374,270.785 393.182374,262.822 395.766374,254.019 L395.776374,253.985 L395.786374,253.951 C399.637374,240.104 396.949374,229.194 389.282374,222.336 C381.943374,215.772 371.187374,213.992 360.990374,215.508 C341.307374,218.434 328.600374,231.39 321.388374,246.033 C317.706374,253.508 315.372374,261.567 314.219374,269.254 C305.963374,289.276 291.510374,300.686 277.343374,302.792 C272.760374,303.473 270.001374,302.928 268.380374,302.2 C266.829374,301.504 265.929374,300.471 265.342374,299.317 C265.108374,298.858 264.923374,298.375 264.778374,297.888 C278.167374,297.051 288.262374,294.029 295.784374,289.02 C304.391374,283.287 309.073374,275.324 311.657374,266.521 L311.667374,266.487 L311.677374,266.453 C315.528374,252.607 312.840374,241.696 305.173374,234.839 C297.835374,228.275 287.079374,226.495 276.881374,228.011 C257.198374,230.936 244.492374,243.892 237.279374,258.535 Z M278.468374,261.628 L278.463374,261.644 L278.459374,261.66 C277.454374,265.512 276.246374,268.269 274.178374,270.138 C273.042374,271.165 271.391374,272.146 268.830374,272.752 C269.306374,271.566 269.855374,270.31 270.478374,269.05 C271.812374,266.355 273.388374,263.836 275.157374,261.956 C276.503374,260.525 277.794374,259.637 279.020374,259.191 C278.902374,259.889 278.716374,260.701 278.468374,261.628 Z M362.576374,249.125 L362.572374,249.141 L362.568374,249.157 C361.563374,253.01 360.355374,255.767 358.287374,257.636 C357.151374,258.663 355.499374,259.644 352.939374,260.25 C353.415374,259.064 353.964374,257.808 354.587374,256.548 C355.921374,253.853 357.497374,251.334 359.266374,249.454 C360.612374,248.023 361.903374,247.134 363.129374,246.689 C363.011374,247.387 362.825374,248.199 362.576374,249.125 Z M167.782374,314.221 C167.691374,314.235 167.612374,314.243 167.546374,314.248 C167.463374,314.031 167.361374,313.679 167.281374,313.147 C166.998374,311.265 167.091374,307.854 167.757374,303.484 C168.407374,299.22 169.545374,294.415 171.104374,289.883 C172.677374,285.313 174.601374,281.249 176.724374,278.315 C178.925374,275.274 180.798374,274.171 182.090374,273.979 C182.687374,273.89 182.914374,274.016 183.049374,274.099 C183.287374,274.248 183.636374,274.582 184.016374,275.226 C184.379374,275.842 184.650374,276.539 184.832374,277.132 L178.471374,303.266 C178.465374,303.278 178.459374,303.292 178.452374,303.305 C178.311374,303.597 178.092374,304.033 177.800374,304.57 C177.211374,305.651 176.350374,307.089 175.260374,308.543 C172.903374,311.689 170.268374,313.852 167.782374,314.221 Z" id="Shape" stroke="#E8ECF3" stroke-width="10" fill="#3D507B"></path>
                    <path d="M263.418374,453 C263.418374,425.8 259.252374,257 251.918374,177 L241.418374,135 L262.918374,136 C264.629374,149.869 268.918374,184 274.918374,213 L284.418374,136 L301.418374,135 C301.418374,153.667 293.918374,195.4 293.918374,213 L293.918374,525 L263.418374,523 L263.418374,453 Z" id="Path" fill="#9B9FA6"></path>
                    <path d="M279.914919,211.796403 L267.92183,212.203597 L268.187042,220.097112 L268.568474,231.748657 C272.623861,357.577389 274.852658,490.415258 272.434768,523.05677 L284.401981,523.94323 C286.993249,488.961113 284.394386,343.730342 279.914919,211.796403 Z" id="Path" fill="#AEB4BF"></path>
                    <path d="M383.606374,70.001 C394.806374,64.401 369.606374,53.001 358.606374,47.001 C349.606374,44.334 329.806374,38.201 318.606374,55.001 C304.606374,76.001 291.235374,201.149 301.606374,176.001 C341.606374,79.001 369.606374,77.001 383.606374,70.001 Z" id="Path" fill="#B7BECB"></path>
                    <path d="M167.918374,72.001 C156.718374,66.401 181.918374,55.001 192.918374,49.001 C201.918374,46.334 221.718374,40.201 232.918374,57.001 C246.918374,78.001 260.289374,203.149 249.918374,178.001 C209.918374,81.001 181.918374,79.001 167.918374,72.001 Z" id="Path" fill="#B7BECB"></path>
                    <path d="M209.918374,101 L209.918374,197.53 C209.918374,201.395993 213.052381,204.53 216.918374,204.53 C220.784368,204.53 223.918374,201.395993 223.918374,197.53 L223.918374,101 C223.918374,97.1340068 220.784368,94 216.918374,94 C213.052381,94 209.918374,97.1340068 209.918374,101 Z" id="Path" fill="#E8ECF3"></path>
                    <path d="M321.918374,101 L321.918374,210 C321.918374,213.865993 325.052381,217 328.918374,217 C332.784368,217 335.918374,213.865993 335.918374,210 L335.918374,101 C335.918374,97.1340068 332.784368,94 328.918374,94 C325.052381,94 321.918374,97.1340068 321.918374,101 Z" id="Path" fill="#E8ECF3"></path>
                    <path d="M203.918374,490.5 C181.518374,492.1 141.918374,485 118.918374,477 L118.918374,511 C131.918374,521 165.418374,520 183.918374,520 C206.918374,520 243.918374,527 283.918374,521 L281.918374,490.5 C267.918374,493.5 226.318374,488.9 203.918374,490.5 Z" id="Path" fill="#B7BECB"></path>
                    <path d="M342.918374,495 C365.318374,496.6 408.918374,494.5 427.918374,479 L429.918374,514 C409.918374,519 382.418374,523 374.918374,523 C342.530374,523 314.918374,528 274.918374,522 L274.918374,488.5 C288.918374,491.5 320.518374,493.4 342.918374,495 Z" id="Path" fill="#B7BECB"></path>
                </g>
                <g id="head" transform="translate(78.000200, 0.000000)">
                    <path d="M338.2668,353.533 C370.9988,353.533 397.5328,326.999 397.5328,294.267 C397.5328,261.535 370.9988,235 338.2668,235 C305.5348,235 278.9998,261.535 278.9998,294.267 C278.9998,326.999 305.5348,353.533 338.2668,353.533 Z" id="Path" fill="#EBBAAA" fill-rule="nonzero"></path>
                    <path d="M59.2668,356.533 C26.5348,356.533 -4.68958206e-13,329.999 -4.68958206e-13,297.267 C-4.68958206e-13,264.535 26.5348,238 59.2668,238 C91.9988,238 118.5328,264.535 118.5328,297.267 C118.5328,329.999 91.9988,356.533 59.2668,356.533 Z" id="Path" fill="#EBBAAA" fill-rule="nonzero"></path>
                    <path d="M32.9998,190.151 C32.9998,102.807 103.8068,32 191.1518,32 C280.6898,32 352.3708,106.264 349.2038,195.746 L344.1298,339.091 C341.2678,419.938 274.8978,484 193.9998,484 C118.0398,484 53.9868,427.393 44.6468,352.009 L32.9998,258 L32.9998,190.151 Z" id="Path" fill="#F4D4C9" fill-rule="nonzero"></path>
                    <path d="M200.4108,97.0005 C124.2088,97.0005 59.4288,116.896 55.3898,172.432 C49.3718,255.164 34.9838,261.819 24.0758,223.452 C22.413,217.605 21.3129,164.564 21.0755,158.5 C25.3928,40.6209 152.8978,12.1543 200.4108,12.1543 C239.3518,43.8407 276.6218,97.0005 200.4108,97.0005 Z" id="Path" fill="#272727" fill-rule="nonzero"></path>
                    <path d="M31.3618,172.259 C31.0988,164.193 36.2468,157.484 42.6898,157.484 C49.3758,157.484 54.6078,164.681 53.9758,173.01 L43.3008,314.125 C43.1218,316.485 41.5428,318.277 39.6578,318.277 C37.6888,318.277 36.0778,316.34 35.9938,313.888 L31.3618,172.259 Z" id="Path" fill="#272727" fill-rule="nonzero"></path>
                    <path d="M352.8658,171.598 C353.1298,163.894 347.9808,157.486 341.5378,157.486 C334.8528,157.486 329.6198,164.36 330.2518,172.315 L340.9268,307.099 C341.1058,309.352 342.6858,311.064 344.5698,311.064 C346.5388,311.064 348.1498,309.213 348.2338,306.872 L352.8658,171.598 Z" id="Path" fill="#272727" fill-rule="nonzero"></path>
                    <path d="M200.9998,93 C279.5228,93 317.7628,124.434 320.9998,181 C329.0288,225.362 344.4468,290.932 362.9998,159 C352.9998,25 237.7948,12 188.8348,12 C148.7088,43.6865 122.4678,93 200.9998,93 Z" id="Path" fill="#272727" fill-rule="nonzero"></path>
                    <polygon id="Path" fill="#272727" fill-rule="nonzero" points="100.7648 40.5965 89.9998 65.5789 193.9318 58.2924 308.9998 89 308.9998 74.4269 300.8338 69.7427 300.8338 58.2924 290.4408 58.2924 290.4408 40.5965 277.0778 40.5965 274.1088 27.0643 262.2308 27.0643 255.1778 13.5322 242.9288 17.6959 239.2168 9.36842 226.5968 9.36842 226.5968 0 209.5218 9.36842 205.0678 0 197.6438 9.36842 190.2198 0 176.1148 9.36842 167.2068 0 157.5558 9.36842 150.8748 9.36842 143.4508 17.6959 140.4808 9.36842 127.8608 27.0643 119.6948 22.9006 108.9308 43.1988"></polygon>
                    <polygon id="Path" fill="#272727" fill-rule="nonzero" points="133.5418 123.453 120.1508 89.2632 102.9998 46 286.9998 56 238.6148 132 228.3138 112.463 216.9818 123.453 202.5608 102.695 193.2888 123.453 177.8378 112.463 158.2648 123.453 152.0848 112.463"></polygon>
                    <path d="M163.260519,390.730705 C182.849363,401.613396 205.969447,401.331444 230.91514,391.126388 C234.850936,389.51629 236.736286,385.020455 235.126188,381.08466 C233.51609,377.148864 229.020255,375.263514 225.08446,376.873612 C204.155851,385.435316 185.839974,385.65868 170.739081,377.269295 C167.021815,375.204147 162.334243,376.543454 160.269095,380.260719 C158.203947,383.977985 159.543254,388.665557 163.260519,390.730705 Z" id="Path" fill="#C99584" fill-rule="nonzero"></path>
                    <path d="M245.5728,265.916 L245.5728,294.663 C245.5728,301.290417 250.945383,306.663 257.5728,306.663 C264.200217,306.663 269.5728,301.290417 269.5728,294.663 L269.5728,265.916 C269.5728,259.288583 264.200217,253.916 257.5728,253.916 C250.945383,253.916 245.5728,259.288583 245.5728,265.916 Z" id="Path" fill="#000000" fill-rule="nonzero"></path>
                    <path d="M116.6528,265.916 L116.6528,294.663 C116.6528,301.290417 122.025383,306.663 128.6528,306.663 C135.280217,306.663 140.6528,301.290417 140.6528,294.663 L140.6528,265.916 C140.6528,259.288583 135.280217,253.916 128.6528,253.916 C122.025383,253.916 116.6528,259.288583 116.6528,265.916 Z" id="Path" fill="#000000" fill-rule="nonzero"></path>
                    <path d="M236.70311,228.399897 L293.98111,226.397897 C299.500587,226.204979 303.818616,221.574167 303.625697,216.05469 C303.432779,210.535213 298.801967,206.217184 293.28249,206.410103 L236.00449,208.412103 C230.485013,208.605021 226.166984,213.235833 226.359903,218.75531 C226.552821,224.274787 231.183633,228.592816 236.70311,228.399897 Z" id="Path" fill="#393939" fill-rule="nonzero"></path>
                    <path d="M150.94239,208.625384 L93.6323904,208.123384 C88.1097548,208.075009 83.5935585,212.512774 83.5447919,218.03541 C83.4968088,223.558045 87.9345739,228.074242 93.4572096,228.122616 L150.76721,228.624616 C156.289845,228.672991 160.806042,224.235226 160.854808,218.71259 C160.902791,213.189955 156.465026,208.673758 150.94239,208.625384 Z" id="Path" fill="#393939" fill-rule="nonzero"></path>
                    <path d="M185.718869,296.808938 C179.64704,307.522393 176.107784,319.230774 176.564105,328.784287 C177.190882,341.906492 185.428363,350.729 199.2978,350.729 L199.2978,333.729 C194.964784,333.729 193.75793,332.436435 193.544745,327.973213 C193.261396,322.041021 195.892992,313.335315 200.508731,305.191062 L185.718869,296.808938 Z" id="Path" fill="#EBBAAA" fill-rule="nonzero"></path>
                    <path d="M174.9998,276 L211.7198,276" id="Path" stroke="#000000" stroke-width="14"></path>
                    <path d="M63.5045006,265.049434 C63.3823699,256.403602 69.7572662,249.117588 78.2835248,248.269909 L81.0104975,248.004782 C94.1523264,246.756788 106.708245,246 117.4998,246 C130.208716,246 146.72252,247.813337 164.244626,250.61243 L166.439939,250.967391 C173.417814,252.109742 178.799474,257.608982 179.792323,264.61074 L180.016031,266.207286 C181.074184,273.859126 181.793382,280.553254 182.000229,285.501945 C182.141987,288.923687 181.52532,293.388218 180.29068,298.644911 C179.303163,302.850341 177.966656,307.370562 176.415314,311.970111 C174.697416,317.058681 170.442909,320.809301 165.166113,321.891586 C150.179576,324.963728 133.730076,327 117.4998,327 C101.062288,327 85.4702218,321.935143 71.9559673,314.351536 C67.5754707,311.893472 64.9058099,307.165084 64.7254061,301.782487 L63.5124084,265.382557 L63.5045006,265.049434 Z M76.5051892,264.949374 L77.7181522,301.348267 C77.7512724,302.336452 78.0489579,302.8637 78.3177097,303.014507 C90.0515158,309.599004 103.599898,314 117.4998,314 C132.739863,314 148.360009,312.066393 162.554819,309.156551 C163.306585,309.002361 163.861549,308.513125 164.097692,307.813648 C165.527198,303.575329 166.7522,299.432229 167.634991,295.672787 L167.846044,294.75122 C168.689885,290.967773 169.088532,287.902552 169.011471,286.042452 C168.83141,281.734622 168.184394,275.639744 167.227813,268.637751 L166.921179,266.436571 C166.726281,265.062113 165.706877,264.020436 164.340268,263.796708 L161.288324,263.305871 C144.728305,260.689346 129.145401,259 117.4998,259 C106.468733,259 93.3078161,259.839822 79.569858,261.206112 C77.7948461,261.382583 76.4387479,262.956869 76.5051892,264.949374 Z" id="Path" fill="#393939" fill-rule="nonzero"></path>
                    <path d="M322.294152,301.783733 L323.507192,265.382557 C323.800335,256.591481 317.371645,249.128455 308.735858,248.269888 L306.008925,248.004764 L303.298707,247.753658 C291.143815,246.656003 279.56711,246 269.5198,246 C256.281345,246 238.914324,247.967596 220.580268,250.967292 C213.601786,252.109742 208.220126,257.608982 207.227179,264.611429 L207.003489,266.20785 L206.78947,267.776952 C205.848655,274.774112 205.211965,280.894234 205.019471,285.499548 C204.877613,288.923687 205.49428,293.388218 206.728991,298.645213 C207.716437,302.850341 209.052944,307.370562 210.603692,311.968352 C212.322184,317.058681 216.576691,320.809301 221.852819,321.891449 C236.840024,324.963728 253.289524,327 269.5198,327 C285.957312,327 301.549378,321.935143 315.06371,314.351493 C319.444129,311.893472 322.11379,307.165084 322.294152,301.783733 Z M310.514406,264.949513 L309.301406,301.349513 C309.268328,302.336452 308.970642,302.8637 308.701967,303.014464 C296.968084,309.599004 283.419702,314 269.5198,314 C254.279737,314 238.659591,312.066393 224.464113,309.156414 C223.713015,309.002361 223.158051,308.513125 222.921314,307.811889 C221.492402,303.575329 220.2674,299.432229 219.38468,295.673089 L219.173612,294.751458 L218.979641,293.857411 C218.268978,290.484998 217.937248,287.753389 218.008229,286.040055 C218.206817,281.288984 218.974068,274.359611 220.098323,266.43726 C220.293319,265.062113 221.312723,264.020436 222.679939,263.796609 L225.731784,263.305788 L227.796422,262.983616 C243.583034,260.5515 258.359433,259 269.5198,259 C280.550867,259 293.711784,259.839822 307.449525,261.206091 C309.163539,261.376498 310.48683,262.84996 310.516251,264.744785 L310.514406,264.949513 Z" id="Path" fill="#393939" fill-rule="nonzero"></path>
                </g>
            </g>
        </g>
    </g>
</svg>