<?xml version="1.0" encoding="UTF-8"?>
<svg width="463px" height="1400px" viewBox="0 0 463 1400" version="1.1" xmlns="http://www.w3.org/2000/svg" xmlns:xlink="http://www.w3.org/1999/xlink">
    <!-- Generator: Sketch 55.2 (78181) - https://sketchapp.com -->
    <title>gee_me_080</title>
    <desc>Created with Sketch.</desc>
    <g id="GEE!-ME" stroke="none" stroke-width="1" fill="none" fill-rule="evenodd">
        <g id="gee_me_080" transform="translate(-367.000000, -100.000000)" fill-rule="nonzero">
            <g transform="translate(367.000000, 100.000000)">
                <g id="lower-limb" transform="translate(3.491965, 817.229000)">
                    <ellipse id="Oval" fill="#35383E" cx="228.893035" cy="121.851" rx="133.357" ry="57.0035"></ellipse>
                    <path d="M291.049641,231.730523 C309.501738,230.62905 325.353038,244.694509 326.454512,263.146606 C327.514141,280.897721 328.712195,297.883481 330.135554,315.808825 L330.695784,322.747104 C332.050888,339.190306 335.25092,376.157551 335.357759,377.431698 L336.013165,385.379207 C337.375321,402.208606 338.263868,415.404358 338.863083,428.397382 L338.901753,429.244501 C339.887073,451.052417 339.966058,471.440259 339.033841,493.034541 C338.236596,511.502283 322.619237,525.827051 304.151495,525.029806 C285.683752,524.23256 271.358984,508.615202 272.156229,490.147459 C273.000529,470.589741 272.929149,452.164944 272.030074,432.265879 L271.883568,429.152222 C271.297701,417.175782 270.427856,404.640646 269.101035,388.441337 L268.12821,376.944884 C267.045668,364.384697 264.594512,335.899321 263.699231,324.778584 C262.113301,305.078964 260.793115,286.560494 259.633559,267.135394 C258.532085,248.683298 272.597544,232.831997 291.049641,231.730523 Z" id="Path" fill="#2C2F34"></path>
                    <path d="M135.513578,263.146289 C136.615226,244.694203 152.46666,230.628894 170.918746,231.730542 C189.370833,232.832191 203.436142,248.683625 202.334493,267.135711 C201.252516,285.258313 200.030749,302.592176 198.583841,320.832416 L197.911027,329.147644 C197.089964,339.071992 195.704715,355.259157 194.669098,367.306895 L193.316499,383.01565 L192.696801,390.52593 C191.409121,406.4158 190.571046,418.775241 190.009507,430.711018 L189.937816,432.265711 C189.03885,452.164608 188.967533,470.589525 189.811841,490.147459 C190.609087,508.615202 176.284319,524.23256 157.816576,525.029806 C139.348833,525.827051 123.731475,511.502283 122.934229,493.034541 C122.040851,472.339943 122.076103,452.753406 122.9477,431.963421 L123.066122,429.244669 C123.742168,414.280175 124.797094,399.145727 126.512869,378.591519 L130.989558,326.150554 C131.209463,323.513562 131.399532,321.206857 131.546271,319.384073 C133.096253,300.130249 134.383587,282.073098 135.513578,263.146289 Z" id="Path" fill="#2C2F34"></path>
                    <g id="Group-5" transform="translate(0.000000, 489.931000)">
                        <path d="M12.2717353,89.86 C12.0714353,66.91 15.1978353,52.95 35.1473353,43.57 C55.0968353,34.2 73.8881353,16.17 108.402035,0.71 C108.402035,0.71 112.945035,-0.15 120.340035,3.85 C126.651035,7.26 134.756035,15.63 146.970035,15.53 C160.233035,15.41 172.051035,12.6 179.394035,8.75 C182.567035,0.06 189.604035,3.41060513e-13 189.604035,3.41060513e-13 C189.604035,3.41060513e-13 199.514035,18.86 199.679035,37.81 C199.844035,56.75 199.827532,88.22 199.827532,88.22 L12.2717353,89.86 Z" id="Path" fill="#DCE1E6"></path>
                        <path d="M101.202024,2.09675163 C102.567961,1.48923206 104.167764,2.10405115 104.775284,3.46998851 C105.550601,5.21319961 106.109765,7.12754756 106.491666,9.21049742 C107.051667,12.2648353 107.174875,14.7673976 107.174875,19.19 C107.174875,21.0886048 105.280311,22.3787776 103.532787,21.7303887 L103.374383,21.6660669 L90.188,15.842 L93.0018106,26.0401781 C93.5597682,28.0627904 91.7104555,29.9003858 89.7193825,29.3821363 L89.5619393,29.3362878 L76.316,25.066 L76.3168753,37.05 C76.3168753,39.0443336 74.2442121,40.3340529 72.4716482,39.5061202 L72.3205045,39.4299355 L63.323,34.554 L63.3239753,43.55 C63.3239753,44.9895781 62.2001893,46.1666818 60.7820285,46.2519 L60.6171353,46.25684 C59.1775573,46.25684 58.0004535,45.1330539 57.9152354,43.7148931 L57.9102953,43.55 L57.9102953,30.01 C57.9102953,28.0156664 59.9829586,26.7259471 61.7555225,27.5538798 L61.9066662,27.6300645 L70.903,32.505 L70.9031953,21.35 C70.9031953,19.5710771 72.5826879,18.2922895 74.2766139,18.7263214 L74.4405314,18.7737122 L86.449,22.644 L83.4520601,11.7798219 C82.8591325,9.63044212 84.9651388,7.75097249 87.0092243,8.52416185 L87.1550878,8.58393315 L101.691,15.004 L101.674356,14.6516647 C101.597194,13.1372576 101.458938,11.8579113 101.222956,10.5013631 L101.166746,10.1868009 C100.857745,8.50145775 100.417012,6.99256796 99.828787,5.67001149 C99.2212674,4.30407414 99.8360865,2.7042712 101.202024,2.09675163 Z" id="Path" fill="#FFFFFF"></path>
                        <path d="M193.794035,9.98 C189.941035,15.21 176.049035,18.34 170.822035,19.11 C165.596035,19.88 159.995035,19.2 162.236035,27.85 C163.821035,33.96 179.051035,31.49 185.006035,31.44 C189.848035,31.4 196.638035,46.03 199.166035,41.06 C199.166035,24.06 195.959035,14.85 193.794035,9.98 Z" id="Path" fill="#518C2D"></path>
                        <path d="M19.8190353,45.33 C25.9397353,43.11 32.4217353,41.43 44.8491353,38.62 L39.5679353,53.82 L39.7190353,71.14 L4.34673535,71.4500388 C2.90313535,71.46 0.323735349,69.54 1.55493535,61.73 C3.09393535,51.97 11.1220353,48.48 19.8190353,45.33 Z" id="Path" fill="#EAF4FB"></path>
                        <polygon id="Path" fill="#518C2D" points="78.335934 42.2158857 94.814534 73.6258857 79.4737367 81.6741143 62.9951367 50.2641143"></polygon>
                        <polygon id="Path" fill="#518C2D" points="101.041385 30.333425 120.788385 68.063425 105.439686 76.096575 85.6926861 38.366575"></polygon>
                        <polygon id="Path" fill="#518C2D" points="123.307708 17.2638512 150.610708 70.4438512 135.199362 78.3561488 107.896362 25.1761488"></polygon>
                        <path d="M200.420035,85.27 L199.393035,67.04 L40.7875353,69.51 L1.24080535,66.61 L0.0327153492,80.58 C-0.384274651,85.41 3.23433535,89.64 8.06493535,89.97 L40.9859353,92.25 L196.163035,89.84 C198.624035,89.8 200.558035,87.72 200.420035,85.27 Z" id="Path" fill="#C7CBCF"></path>
                    </g>
                    <g id="Group-4" transform="translate(258.764084, 489.931000)">
                        <path d="M188.155951,89.86 C188.355951,66.91 185.229951,52.95 165.279951,43.57 C145.330951,34.2 126.538951,16.17 92.0259515,0.71 C92.0259515,0.71 87.4829515,-0.15 80.0879515,3.85 C73.7769515,7.26 65.6709515,15.63 53.4579515,15.53 C40.1949515,15.41 28.3759515,12.6 21.0329515,8.75 C17.8609515,0.06 10.8229515,3.41060513e-13 10.8229515,3.41060513e-13 C10.8229515,3.41060513e-13 0.913951486,18.86 0.748951486,37.81 C0.582951486,56.75 0.599460186,88.22 0.599460186,88.22 L188.155951,89.86 Z" id="Path" fill="#DCE1E6"></path>
                        <path d="M95.6517031,3.46998851 C96.2592227,2.10405115 97.8590256,1.48923206 99.224963,2.09675163 C100.5909,2.7042712 101.205719,4.30407414 100.5982,5.67001149 C100.009975,6.99256796 99.5692416,8.50145775 99.2602403,10.1868009 C98.9896803,11.6624797 98.8357283,13.0207647 98.752631,14.6516647 L98.735,15.004 L113.272319,8.58392436 C115.311889,7.68308753 117.479096,9.49161969 117.013126,11.6267867 L116.975327,11.7798219 L113.978,22.644 L125.986437,18.7737179 C127.679566,18.2279056 129.411982,19.434046 129.518604,21.1794475 L129.523791,21.35 L129.523,32.505 L138.520428,27.6300604 C140.273906,26.6799729 142.39527,27.887903 142.511771,29.840816 L142.516791,30.01 L142.516791,43.55 C142.516791,45.0449465 141.304898,46.25684 139.809951,46.25684 C138.370373,46.25684 137.19327,45.1330539 137.108052,43.7148931 L137.103111,43.55 L137.103,34.554 L128.106475,39.4299396 C126.352997,40.3800271 124.231633,39.172097 124.115132,37.219184 L124.110111,37.05 L124.11,25.066 L110.865465,29.3362821 C108.868497,29.9800433 106.953657,28.2108137 107.386487,26.1994347 L107.425576,26.0401781 L110.238,15.842 L97.0525841,21.6660756 C95.315848,22.4331569 93.3702201,21.2213867 93.2572738,19.3608865 L93.2521115,19.19 L93.257976,17.6765376 C93.2879714,14.1588371 93.4425203,11.8983148 93.9353213,9.21049742 C94.3172222,7.12754756 94.8763858,5.21319961 95.6517031,3.46998851 Z" id="Path" fill="#FFFFFF"></path>
                        <path d="M6.63395149,9.98 C10.4859515,15.21 24.3779515,18.34 29.6049515,19.11 C34.8319515,19.88 40.4319515,19.2 38.1909515,27.85 C36.6059515,33.96 21.3759515,31.49 15.4209515,31.44 C10.5789515,31.4 3.78895149,46.03 1.26095149,41.06 C1.26095149,24.06 4.46795149,14.85 6.63395149,9.98 Z" id="Path" fill="#518C2D"></path>
                        <path d="M180.608951,45.33 C174.487951,43.11 168.005951,41.43 155.577951,38.62 L160.859951,53.82 L160.707951,71.14 L196.080951,71.4500388 C197.523951,71.46 200.103951,69.54 198.872951,61.73 C197.333951,51.97 189.305951,48.48 180.608951,45.33 Z" id="Path" fill="#EAF4FB"></path>
                        <polygon id="Path" fill="#518C2D" points="122.091593 42.2158091 137.43231 50.2641909 120.95331 81.6741909 105.612593 73.6258091"></polygon>
                        <polygon id="Path" fill="#518C2D" points="99.3856022 30.333425 114.734301 38.366575 94.9873008 76.096575 79.6386022 68.063425"></polygon>
                        <polygon id="Path" fill="#518C2D" points="77.1203372 17.2637365 92.5315657 25.1762635 65.2275657 78.3562635 49.8163372 70.4437365"></polygon>
                        <path d="M0.00695148621,85.27 L1.03495149,67.04 L159.639951,69.51 L199.186951,66.61 L200.394951,80.58 C200.811951,85.41 197.192951,89.64 192.361951,89.97 L159.440951,92.25 L4.26395149,89.84 C1.80295149,89.8 -0.131048514,87.72 0.00695148621,85.27 Z" id="Path" fill="#C7CBCF"></path>
                    </g>
                    <path d="M82.6345353,2.27373675e-13 L244.059035,2.27373675e-13 L216.691035,291.811 L196.642035,462.881 C196.642035,462.881 174.504035,467.531 156.200035,467.011 C137.896035,466.491 117.150035,462.881 117.150035,462.881 L87.8642353,308.551 L87.8642353,127.9 L75.6628353,113.769 L82.6345353,2.27373675e-13 Z" id="Path" fill="#35383E"></path>
                    <path d="M379.334035,2.27373675e-13 L217.910035,2.27373675e-13 L245.278035,291.811 L265.327035,462.881 C265.327035,462.881 287.465035,467.531 305.769035,467.011 C324.073035,466.491 344.818035,462.881 344.818035,462.881 L374.104035,308.551 L374.104035,127.9 L386.306035,113.769 L379.334035,2.27373675e-13 Z" id="Path" fill="#35383E"></path>
                    <path d="M120.149035,467.961 C115.524035,466.061 113.667035,452.941 113.317035,446.611 C154.937035,450.881 187.000035,447.641 198.561035,445.871 C198.561035,455.801 198.561035,458.771 197.008035,465.771 C175.701035,472.141 125.929035,470.331 120.149035,467.961 Z" id="Path" fill="#3E4A57"></path>
                    <path d="M265.507035,463.771 C263.886035,459.271 263.236035,452.641 262.886035,446.311 C304.506035,450.581 336.569035,447.351 348.130035,445.571 C348.130035,455.501 349.595035,459.691 343.289035,466.911 C321.981035,473.281 271.288035,466.141 265.507035,463.771 Z" id="Path" fill="#3E4A57"></path>
                </g>
                <g id="upper-limb" transform="translate(0.818915, 432.000000)">
                    <path d="M230.295085,144.301 C270.143085,144.301 302.445085,111.998 302.445085,72.151 C302.445085,32.303 270.143085,-2.84217094e-13 230.295085,-2.84217094e-13 C190.447085,-2.84217094e-13 158.144085,32.303 158.144085,72.151 C158.144085,111.998 190.447085,144.301 230.295085,144.301 Z" id="Path" fill="#E9E4E0"></path>
                    <path d="M399.674085,106.162 C375.493085,51.855 335.973085,55.953 319.181085,58.011 L350.527085,246.234 L355.446971,513.41194 C503.440972,473.527 474.641085,274.528 399.674085,106.162 Z" id="Path" fill="#454B5E"></path>
                    <path d="M61.984785,106.162 C86.165585,51.855 125.686085,55.953 142.478085,58.011 L111.132085,246.234 L111.132085,512.075893 C-44.3789417,473.527 -12.982135,274.528 61.984785,106.162 Z" id="Path" fill="#454B5E"></path>
                    <path d="M110.351085,63.564 C114.508085,33.326 139.870085,11.15 170.403085,10.812 L239.383085,10.048 L302.940085,16.744 C332.000085,19.806 355.576085,42.378 359.403085,71.433 C367.743085,134.754 380.688085,245.515 380.688085,322.946 C380.688085,437.17 398.849085,448.095 370.730085,463.061 C342.611085,478.028 117.645085,475.921 86.929685,452.718 C56.214785,429.514 75.312385,405.341 75.312385,357.963 C75.312285,323.06 98.265085,151.492 110.351085,63.564 Z" id="Path" fill="#FFFFFF"></path>
                    <path d="M71.181085,229 C71.181085,215.08 42.181085,109 100.181085,51 L194.181085,19 C186.243085,34.934 134.181085,91 155.062085,209 C159.461085,233.853 145.062085,303.401 155.062085,368 C180.509085,532.382 155.063085,494.249 155.063085,506 C104.190085,526.316 116.642085,491.864 71.181085,459 C47.273785,441.717 71.181085,276.802 71.181085,229 Z" id="Path" fill="#343844"></path>
                    <path d="M98.8606512,52.6627679 C111.636478,59.155298 125.121849,74.1582084 134.079538,94.5721453 C145.533491,120.67489 149.176494,153.68137 142.855634,193.049477 L142.661041,194.244396 C136.140974,233.727023 135.337789,277.519758 139.150558,322.322683 L139.359945,324.729954 C142.351955,358.402313 147.870453,390.765832 153.636299,412.636197 C157.343138,427.463553 159.664328,445.828266 159.130209,461.451252 C158.435488,481.771851 153.154528,496.471237 142.292005,503.083555 L141.939664,503.294047 L140.422506,500.705953 C150.402511,494.855605 155.461425,480.961921 156.131961,461.348748 C156.655736,446.028313 154.369032,427.936447 150.730647,413.382398 C144.787155,390.838694 139.114467,357.278286 136.161362,322.577067 C132.382902,278.177295 133.114728,234.748354 139.427176,195.43781 L139.701129,193.755604 C146.197482,154.416575 142.660717,121.594075 131.332382,95.7776047 C122.74595,76.2097375 109.939158,61.8439419 97.9300672,55.5582798 L97.5015188,55.3372321 L98.8606512,52.6627679 Z" id="Path" fill="#70778D"></path>
                    <path d="M386.181085,239 C371.618085,194.32 419.181085,109 361.181085,51 L267.181085,19 C275.119085,34.934 327.181085,91 306.300085,209 C301.901085,233.853 316.300085,303.401 306.300085,368 C280.853085,532.382 306.299085,494.249 306.299085,506 C357.172085,526.316 340.720085,501.864 386.181085,469 C410.088085,451.717 410.300085,313 386.181085,239 Z" id="Path" fill="#343844"></path>
                    <path d="M362.027519,56.6627679 L363.386651,59.3372321 C351.254534,65.5026364 338.244439,79.9767867 329.555788,99.7776047 C318.340737,125.33591 314.762202,157.760826 320.995158,196.577388 L321.187041,197.755604 C327.751612,237.507725 328.559246,281.543012 324.726808,326.577067 L324.518863,328.968325 C321.512749,362.815461 315.964492,395.356513 310.162299,417.363803 C306.519138,431.936447 304.232434,450.028313 304.756209,465.348748 C305.419376,484.746391 310.375004,498.549559 320.138435,504.510174 L320.465664,504.705953 L318.948506,507.294047 C307.847742,500.786702 302.460152,485.990352 301.757961,465.451252 C301.223842,449.828266 303.545032,431.463553 307.256647,416.617602 L307.662996,415.057324 C313.413057,392.709339 318.866418,360.061393 321.737612,326.322683 C325.49668,282.150785 324.768905,238.960822 318.499225,199.915232 L318.227129,198.244396 C311.638877,158.348872 315.238982,124.938554 326.808632,98.5721453 C335.663359,78.3928514 348.942282,63.5009074 361.5867,56.8900166 L362.027519,56.6627679 Z" id="Path" fill="#70778D"></path>
                    <path d="M164.181085,485.027 C141.781085,486.627 102.181085,479.527 79.181085,471.527 L79.181085,505.527 C92.181085,515.527 125.681085,514.527 144.181085,514.527 C167.181085,514.527 204.181085,521.527 244.181085,515.527 L242.181085,485.027 C228.181085,488.027 186.581085,483.427 164.181085,485.027 Z" id="Path" fill="#42506A"></path>
                    <path d="M303.181085,489.527 C325.581085,491.127 369.181085,489.027 388.181085,473.527 L390.181085,508.527 C370.181085,513.527 342.681085,517.527 335.181085,517.527 C302.793085,517.527 275.181085,522.527 235.181085,516.527 L235.181085,483.027 C249.181085,486.027 280.781085,487.927 303.181085,489.527 Z" id="Path" fill="#42506A"></path>
                </g>
                <g id="hand" transform="translate(26.000700, 0.245700)">
                    <rect id="Rectangle" fill="#EBBAAA" transform="translate(204.556745, 499.021146) rotate(-1.000000) translate(-204.556745, -499.021146) " x="155.401895" y="434.784646" width="98.3097" height="128.473" rx="49.15485"></rect>
                    <ellipse id="Oval" fill="#EBBAAA" cx="56.789" cy="298.0583" rx="56.789" ry="53.866"></ellipse>
                    <ellipse id="Oval" fill="#EBBAAA" cx="351.4593" cy="302.2333" rx="56.789" ry="53.866"></ellipse>
                    <path d="M42.3038,249.5803 C32.4409,156.8683 103.7823,75.4663 196.9863,73.0833 C290.8213,70.6838 366.4693,149.3593 360.3913,243.0283 L358.3723,274.1423 L353.4163,340.4413 C347.5473,418.9583 282.1293,479.6683 203.3923,479.6683 C127.5023,479.6683 63.4949,423.1463 54.1055,347.8393 L44.9168,274.1423 L42.3038,249.5803 Z" id="Path" fill="#EED4CC"></path>
                    <path d="M117.304582,274.791302 C125.66653,270.611468 138.831901,269.66569 151.223169,274.365826 C156.645211,276.422462 159.37341,282.485128 157.316774,287.907169 C155.294415,293.238843 149.398448,295.965722 144.047045,294.099628 L143.775431,294.000774 C139.982442,292.562054 136.161672,292.057811 132.526789,292.318935 C131.076645,292.423111 129.72118,292.647381 128.536094,292.954818 C127.747422,293.159417 127.122931,293.378541 126.786261,293.531482 L126.694018,293.575298 C121.506961,296.168119 115.200124,294.065075 112.607302,288.878018 C110.014481,283.690961 112.117525,277.384124 117.304582,274.791302 Z" id="Path" fill="#000000"></path>
                    <path d="M244.304582,275.791302 C252.66653,271.611468 265.831901,270.66569 278.223169,275.365826 C283.645211,277.422462 286.37341,283.485128 284.316774,288.907169 C282.294415,294.238843 276.398448,296.965722 271.047045,295.099628 L270.775431,295.000774 C266.982442,293.562054 263.161672,293.057811 259.526789,293.318935 C258.076645,293.423111 256.72118,293.647381 255.536094,293.954818 C254.747422,294.159417 254.122931,294.378541 253.786261,294.531482 L253.694018,294.575298 C248.506961,297.168119 242.200124,295.065075 239.607302,289.878018 C237.014481,284.690961 239.117525,278.384124 244.304582,275.791302 Z" id="Path" fill="#000000"></path>
                    <g id="Group" transform="translate(66.858653, 245.545922)">
                        <path d="M115.176647,29.769378 C117.946647,17.371378 108.926647,5.45037802 96.2416473,4.74637802 L23.1736473,0.691378017 C9.9296473,-0.0446219828 -0.537552695,11.763378 1.7807473,24.823378 L7.5136473,57.120378 C9.2566473,66.940378 17.7936473,74.094378 27.7666473,74.094378 L88.7916473,74.094378 C98.4236473,74.094378 106.765647,67.410378 108.865647,58.010378 L115.176647,29.769378 Z" id="Path" fill-opacity="0.29" fill="#FFFFFF"></path>
                        <path d="M252.466647,23.314378 C254.207647,10.371378 243.604647,-0.896621983 230.579647,0.0563780172 L158.002647,5.36637802 C144.984647,6.31837802 136.134647,18.998378 139.729647,31.546378 L147.875647,59.981378 C150.403647,68.805378 158.471647,74.886378 167.649647,74.886378 L227.539647,74.886378 C237.839647,74.886378 246.551647,67.267378 247.925647,57.060378 L252.466647,23.314378 Z" id="Path" fill-opacity="0.29" fill="#FFFFFF"></path>
                        <path d="M255.702647,36.901378 C255.675647,39.457378 253.582647,41.507378 251.026647,41.481378 C248.470647,41.454378 246.420647,39.361378 246.446647,36.805378 L255.702647,36.901378 Z M251.196647,25.037378 L246.568647,24.989378 L246.574647,24.431378 L246.712647,23.890378 L251.196647,25.037378 Z M233.874647,5.92637802 L233.902647,1.29837802 L234.111647,1.29937802 L234.319647,1.31937802 L233.874647,5.92637802 Z M159.141647,5.48137802 L158.592647,0.886378017 L158.879647,0.851378017 L159.169647,0.853378017 L159.141647,5.48137802 Z M143.109647,21.848378 L147.705647,21.300378 L147.757647,21.737378 L147.726647,22.176378 L143.109647,21.848378 Z M146.703647,36.585378 C146.522647,39.135378 144.309647,41.055378 141.759647,40.874378 C139.210647,40.693378 137.290647,38.480378 137.470647,35.930378 L146.703647,36.585378 Z M246.446647,36.805378 L246.568647,24.989378 L255.824647,25.085378 L255.702647,36.901378 L246.446647,36.805378 Z M246.712647,23.890378 C246.582647,24.400378 246.713647,24.510378 246.585647,23.930378 C246.481647,23.457378 246.255647,22.758378 245.850647,21.874378 C245.042647,20.111378 243.668647,17.928378 241.721647,15.782378 L248.579647,9.56537802 C251.131647,12.379378 253.042647,15.351378 254.264647,18.017378 C254.874647,19.347378 255.348647,20.680378 255.626647,21.943378 C255.880647,23.098378 256.073647,24.647378 255.680647,26.184378 L246.712647,23.890378 Z M241.721647,15.782378 C237.945647,11.616378 234.093647,10.597378 233.430647,10.533378 L234.319647,1.31937802 C237.424647,1.61937802 243.359647,3.80737802 248.579647,9.56537802 L241.721647,15.782378 Z M233.847647,10.554378 L159.113647,10.109378 L159.169647,0.853378017 L233.902647,1.29837802 L233.847647,10.554378 Z M159.690647,10.076378 C158.771647,10.186378 156.961647,10.591378 155.063647,11.444378 C153.151647,12.303378 151.512647,13.452378 150.491647,14.841378 L143.035647,9.35537802 C145.329647,6.23637802 148.507647,4.24137802 151.270647,3.00137802 C154.045647,1.75437802 156.766647,1.10437802 158.592647,0.886378017 L159.690647,10.076378 Z M150.491647,14.841378 C149.143647,16.672378 148.425647,18.295378 148.058647,19.499378 C147.663647,20.793378 147.721647,21.435378 147.705647,21.300378 L138.514647,22.397378 C138.182647,19.617378 139.180647,14.595378 143.035647,9.35537802 L150.491647,14.841378 Z M147.726647,22.176378 L146.703647,36.585378 L137.470647,35.930378 L138.493647,21.521378 L147.726647,22.176378 Z" id="Shape" fill="#6D513C"></path>
                        <path d="M0.202047305,36.471378 C0.228447305,39.027378 2.3216473,41.078378 4.8776473,41.051378 C7.4336473,41.025378 9.4836473,38.931378 9.4576473,36.375378 L0.202047305,36.471378 Z M4.7076473,24.607378 L9.3356473,24.560378 L9.3296473,24.001378 L9.1916473,23.460378 L4.7076473,24.607378 Z M22.0296473,5.49637802 L22.0016473,0.868378017 L21.7926473,0.869378017 L21.5856473,0.889378017 L22.0296473,5.49637802 Z M96.7626473,5.05137802 L97.3116473,0.456378017 L97.0246473,0.422378017 L96.7356473,0.423378017 L96.7626473,5.05137802 Z M112.794647,21.419378 L108.198647,20.870378 L108.146647,21.307378 L108.177647,21.746378 L112.794647,21.419378 Z M109.200647,36.156378 C109.381647,38.705378 111.594647,40.626378 114.144647,40.445378 C116.693647,40.264378 118.614647,38.050378 118.433647,35.501378 L109.200647,36.156378 Z M9.4576473,36.375378 L9.3356473,24.560378 L0.0799473049,24.655378 L0.202047305,36.471378 L9.4576473,36.375378 Z M9.1916473,23.460378 C9.3216473,23.970378 9.1906473,24.081378 9.3186473,23.500378 C9.4226473,23.028378 9.6486473,22.328378 10.0536473,21.444378 C10.8616473,19.682378 12.2356473,17.499378 14.1826473,15.352378 L7.3246473,9.13537802 C4.7726473,11.950378 2.8616473,14.922378 1.6397473,17.587378 C1.0301473,18.917378 0.555647305,20.250378 0.278047305,21.513378 C0.0241473049,22.668378 -0.169052695,24.218378 0.224147305,25.755378 L9.1916473,23.460378 Z M14.1826473,15.352378 C17.9586473,11.187378 21.8106473,10.167378 22.4736473,10.103378 L21.5856473,0.889378017 C18.4796473,1.18937802 12.5446473,3.37737802 7.3246473,9.13537802 L14.1826473,15.352378 Z M22.0566473,10.124378 L96.7906473,9.67937802 L96.7356473,0.423378017 L22.0016473,0.868378017 L22.0566473,10.124378 Z M96.2136473,9.64737802 C97.1326473,9.75637802 98.9426473,10.161378 100.840647,11.014378 C102.752647,11.873378 104.391647,13.023378 105.412647,14.411378 L112.868647,8.92537802 C110.574647,5.80737802 107.396647,3.81237802 104.633647,2.57137802 C101.858647,1.32437802 99.1376473,0.674378017 97.3116473,0.456378017 L96.2136473,9.64737802 Z M105.412647,14.411378 C106.760647,16.242378 107.478647,17.865378 107.845647,19.069378 C108.240647,20.364378 108.182647,21.006378 108.198647,20.870378 L117.389647,21.967378 C117.721647,19.187378 116.723647,14.165378 112.868647,8.92537802 L105.412647,14.411378 Z M108.177647,21.746378 L109.200647,36.156378 L118.433647,35.501378 L117.410647,21.091378 L108.177647,21.746378 Z" id="Shape" fill="#6D513C"></path>
                        <path d="M112.277529,24.8052456 C122.167284,19.2675594 134.264569,20.2507279 142.588696,24.5727673 L142.958876,24.7685123 L138.570419,32.9182438 C132.894181,29.8617101 124.055457,29.0288528 117.173191,32.6780071 L116.799766,32.8815104 L112.277529,24.8052456 Z" id="Path" fill="#6D513C"></path>
                    </g>
                    <path d="M308.9463,145.7403 C305.7593,118.9853 302.8813,99.7743 300.7563,81.9373 C299.2513,69.3036 299.0943,66.081 335.0103,92.5543 C370.9263,119.0273 376.3113,177.1083 366.5403,226.4753 L355.7413,285.0973 L344.6523,282.3563 L344.9423,207.9623 C326.8463,189.7463 312.1343,172.4953 308.9463,145.7403 Z" id="Path" fill="#F8BCC4"></path>
                    <path d="M65.9353,174.2803 C67.4188,147.3793 64.3879,148.7643 65.3769,130.8303 C66.0774,118.1273 70.4543,120.9063 47.7775,144.1993 C35.2615,157.0553 39.9739,212.2903 42.6381,248.4143 L45.8042,281.7083 L50.8629,281.9873 L53.1467,240.5733 C62.0866,211.8763 64.4519,201.1803 65.9353,174.2803 Z" id="Path" fill="#F8BCC4"></path>
                    <path d="M198.4673,137.2323 C122.6153,137.2323 61.9652,137.0233 58.8378,192.8613 C46.0423,211.0203 38.0287,208.9993 35.0412,175.9523 C25.4736,70.1172 97.3903,29.0892 170.4013,52.7753 C170.4013,52.7753 274.3283,137.2323 198.4673,137.2323 Z" id="Path" fill="#E7939E"></path>
                    <path d="M195.8683,136.8503 C277.3793,136.8503 342.5553,136.6423 345.9153,192.3653 C359.6663,210.4863 368.2773,208.4703 371.4883,175.4913 C381.7693,69.8731 235.1273,-45.5544 103.9993,56.0713 C103.9993,56.0713 114.3473,136.8503 195.8683,136.8503 Z" id="Path" fill="#E7939E"></path>
                    <path d="M337.3723,194.2123 C339.9963,159.5533 357.7353,153.4443 352.8273,139.7283 L195.8133,93.7433 L186.3093,65.7521 L111.7783,58.7543 C111.7783,58.7543 86.7673,147.2273 153.4283,154.8003 C220.0883,162.3733 200.1823,178.7263 217.7833,198.2203 C217.7833,174.3883 228.0073,174.9273 237.0173,170.0593 C235.7043,192.5923 282.2973,201.7543 304.3983,201.7543 C283.6813,192.5923 280.3173,175.9143 290.1433,167.7873 C320.3673,170.0593 314.8533,163.8813 337.3723,194.2123 Z" id="Path" fill="#E7939E"></path>
                    <path d="M227.4843,218.3333 L283.2133,210.4953 C283.8253,210.4093 284.4453,210.5983 284.9043,211.0123 L303.7203,227.9663 C305.1503,229.2553 304.2273,231.6293 302.3013,231.6123 L275.4883,231.3803 L227.9813,235.6633 C225.4473,235.8913 223.2973,233.8233 223.4273,231.2823 L223.8893,222.2623 C223.9913,220.2603 225.4993,218.6123 227.4843,218.3333 Z" id="Path" fill="#E7939E"></path>
                    <path d="M162.4853,219.6103 L107.5323,209.8803 C106.9203,209.7723 106.2913,209.9413 105.8163,210.3433 L86.5643,226.6243 C85.0963,227.8663 85.9393,230.2633 87.8613,230.3133 L114.4453,230.9993 L161.3743,236.9003 C163.8983,237.2173 166.1183,235.2283 166.079806,232.6843 L165.9393,223.6653 C165.9083,221.6613 164.4603,219.9603 162.4853,219.6103 Z" id="Path" fill="#E7939E"></path>
                    <path d="M183.409461,280.254138 L201.025139,282.672462 C200.644317,285.446465 199.638998,288.426184 197.860007,292.630926 L197.503239,293.464944 C196.415837,295.968714 193.089233,303.32197 192.561628,304.51923 L191.962923,305.888376 C190.313342,309.691964 189.055228,312.870433 188.038528,315.882198 C185.257567,324.120226 184.75787,330.02217 186.335734,333.32337 C188.000161,336.805679 193.15466,339.157746 204.264309,339.228222 L204.7813,339.22985 L204.7813,357.01075 C187.15713,357.01075 175.439312,351.757998 170.293139,340.991197 C166.212875,332.454484 167.061669,322.429319 171.191651,310.195096 C172.451538,306.462936 173.966777,302.662938 175.937941,298.152425 L176.638572,296.567799 C177.709205,294.176195 180.421381,288.170976 181.23005,286.29894 L181.782045,284.990932 C182.23675,283.891094 182.594681,282.961492 182.868322,282.167914 L183.017125,281.724064 C183.199492,281.16309 183.318037,280.727404 183.376664,280.440782 L183.409461,280.254138 Z" id="Path" fill="#EBBAAA"></path>
                    <polygon id="Path" fill="#E7939E" points="148.8553 11.8315 128.6743 39.5984 250.2623 64.3019 367.5873 150.1893 377.2473 124.0593 369.3123 116.6973 372.7983 106.5973 360.8853 102.4853 366.2733 86.8763 350.9563 81.5893 351.6723 68.4779 338.0573 63.7785 334.0933 49.0519 318.7843 47.8783 317.0653 39.0643 302.5993 34.0711 305.4513 25.8075 283.0273 27.3156 280.7733 17.2897 269.4123 22.6162 263.7543 11.4154 244.7343 14.0984 237.3753 2.3102 223.4603 6.7555 215.8023 4.112 204.7573 8.5203 203.8883 0 184.0353 10.6158 175.9423 3.7123 157.4233 17.3578"></polygon>
                    <path d="M244.679279,369.044505 C248.89548,368.516913 252.74821,371.439471 253.402328,375.607671 L253.437095,375.854279 C253.764494,378.470655 255.376605,382.306858 257.491612,384.39569 L257.728642,384.620441 C260.934578,387.534484 261.171203,392.495707 258.257159,395.701642 C255.343116,398.907578 250.381893,399.144203 247.175958,396.230159 C241.813856,391.356263 238.635432,383.923156 237.869505,377.802321 C237.331568,373.50345 240.380408,369.582442 244.679279,369.044505 Z" id="Path" fill="#C99584"></path>
                    <path d="M147.405185,378.85332 C149.751832,375.211491 154.606451,374.161538 158.24828,376.508185 C163.501551,379.89318 167.809676,382.147749 173.51574,384.121349 C181.345448,386.829469 190.407409,388.3318 201.2013,388.3318 C212.038213,388.3318 221.561642,386.613328 229.776243,383.636597 C235.308786,381.631765 239.707789,379.257502 242.711255,377.068652 L243.039217,376.826237 C246.505391,374.227139 251.422265,374.930043 254.021363,378.396217 C256.620461,381.862391 255.917557,386.779265 252.451383,389.378363 C248.228223,392.545084 242.34569,395.769116 235.121357,398.387003 C225.215911,401.976446 213.886512,404.0208 201.2013,404.0208 C188.673464,404.0208 177.877895,402.231065 168.38736,398.948501 C161.321266,396.504497 155.969152,393.703578 149.75032,389.696415 C146.108491,387.349768 145.058538,382.495149 147.405185,378.85332 Z" id="Path" fill="#C99584"></path>
                </g>
            </g>
        </g>
    </g>
</svg>