<?xml version="1.0" encoding="UTF-8"?>
<svg width="501px" height="1344px" viewBox="0 0 501 1344" version="1.1" xmlns="http://www.w3.org/2000/svg" xmlns:xlink="http://www.w3.org/1999/xlink">
    <!-- Generator: Sketch 55.2 (78181) - https://sketchapp.com -->
    <title>gee_me_033</title>
    <desc>Created with Sketch.</desc>
    <g id="GEE!-ME" stroke="none" stroke-width="1" fill="none" fill-rule="evenodd">
        <g id="gee_me_033" transform="translate(-339.000000, -128.000000)">
            <g transform="translate(339.000000, 128.000000)">
                <g id="lower-limb" transform="translate(28.406484, 794.381000)" fill-rule="nonzero">
                    <ellipse id="Oval" fill="#1D1F1E" cx="213.173516" cy="97.5" rx="127.5" ry="54.5"></ellipse>
                    <path d="M275.734256,149.620078 C291.147928,146.431042 306.228403,156.341068 309.417438,171.75474 C315.730662,202.268655 318.076347,252.547085 318.135168,326.403232 L318.130058,336.626895 C318.106517,350.134783 318.01575,363.746051 317.84418,381.463636 L317.255936,439.065422 C317.209731,444.756002 317.187744,449.027091 317.178769,453.366618 L317.173516,458.999 C317.173516,474.739115 304.413632,487.499 288.673516,487.499 C272.933401,487.499 260.173516,474.739115 260.173516,458.999 L260.182948,451.547175 C260.201869,444.893044 260.253718,438.007058 260.376998,425.74918 L260.864245,379.098823 C261.034827,361.176021 261.119701,347.504798 261.134095,333.678802 L261.136253,328.658329 C261.124041,257.702386 258.894828,208.896888 253.599594,183.30326 C250.410559,167.889588 260.320584,152.809114 275.734256,149.620078 Z" id="Path" fill="#FFDACF"></path>
                    <path d="M132.224172,251.800532 C133.16221,236.088393 146.659845,224.111617 162.371984,225.049655 C178.084124,225.987694 190.060899,239.485329 189.122861,255.197468 C188.08971,272.50274 186.922997,289.055076 185.541056,306.475286 L184.845143,315.06018 C183.470978,331.629037 180.592848,364.877106 180.507184,365.898649 L179.985501,372.206967 C178.656567,388.526054 177.817109,400.969296 177.268389,413.110728 C176.403893,432.239283 176.335089,449.960628 177.147002,468.769929 C177.825799,484.495401 165.628059,497.793688 149.902587,498.472486 C134.177116,499.151283 120.878828,486.953543 120.200031,471.228071 C119.313256,450.684458 119.38855,431.291407 120.326511,410.537297 L120.481639,407.244091 C121.061378,395.416042 121.902376,383.205824 123.156852,367.785645 L127.638251,315.162491 C127.957213,311.364192 128.231025,308.062688 128.42543,305.647938 C129.909483,287.214199 131.142156,269.924292 132.224172,251.800532 Z" id="Path" fill="#FFDACF"></path>
                    <polygon id="Path" fill="#1D1F1E" points="77.3395161 2.84217094e-13 231.673516 2.84217094e-13 204.339516 262.579 186.339516 442.549 177.339516 442.549 177.339516 458.999 119.339516 458.999 119.339516 442.549 110.339516 442.549 90.8395161 254.789 82.3395161 122.283 70.6735161 108.773"></polygon>
                    <polygon id="Path" fill="#1D1F1E" points="217.673516 14 373.673516 14 366.681516 101.08 359.833516 123.418 342.834516 256.919 327.334516 441.859 318.335516 441.859 318.335516 458.999 259.837516 458.999 259.837516 441.859 250.837516 441.859 234.838516 272.509"></polygon>
                    <path d="M12.2715161,544.549 C12.0712161,521.599 15.1976161,507.639 35.1471161,498.259 C55.0965161,488.879 73.8875161,470.859 108.401516,455.389 C108.401516,455.389 112.944516,454.539 120.339516,458.539 C126.650516,461.949 134.756516,470.319 146.969516,470.219 C160.232516,470.099 172.051516,467.289 179.393516,463.439 C182.566516,454.749 189.603516,454.689 189.603516,454.689 C189.603516,454.689 199.513516,473.549 199.678516,492.499 C199.844516,511.439 199.828007,542.909 199.828007,542.909 L12.2715161,544.549 Z" id="Path" fill="#161616"></path>
                    <path d="M101.202505,456.785752 C102.568442,456.178232 104.168245,456.793051 104.775765,458.158989 C105.548833,459.897144 106.107033,461.804611 106.488857,463.878994 C107.051588,466.936211 107.175356,469.440718 107.175356,473.869 C107.175356,475.767081 105.28175,477.057238 103.5344,476.409805 L103.376009,476.345573 L90.187,470.527 L93.0018914,480.729178 C93.5598512,482.751798 91.7105228,484.589397 89.7194456,484.071132 L89.5620021,484.025282 L76.317,479.755 L76.3173561,491.739 C76.3173561,493.73333 74.2446999,495.023049 72.4721367,494.195124 L72.3209929,494.11894 L63.324,489.244 L63.3243561,498.239 C63.3243561,499.678578 62.2005701,500.855682 60.7824093,500.9409 L60.6175161,500.94584 C59.1779381,500.94584 58.0008343,499.822054 57.9156162,498.403893 L57.9106761,498.239 L57.9106761,484.699 C57.9106761,482.70467 59.9833324,481.414951 61.7558956,482.242876 L61.9070393,482.31906 L70.903,487.193 L70.9036761,476.039 C70.9036761,474.260069 72.5831821,472.981281 74.2771123,473.415326 L74.4410301,473.462718 L86.449,477.333 L83.4521409,466.468822 C82.8593651,464.319992 84.9642367,462.440662 87.0081685,463.212738 L87.1540228,463.272427 L101.691,469.685 C101.617747,468.007389 101.476336,466.635345 101.221077,465.173724 L101.16462,464.859006 C100.855782,463.181143 100.415895,461.677976 99.8292678,460.359011 C99.2217482,458.993074 99.8365673,457.393271 101.202505,456.785752 Z" id="Path" fill="#FFFFFF"></path>
                    <path d="M19.8188161,500.019 C25.9395161,497.799 32.4215161,496.119 44.8489161,493.309 L39.5677161,508.509 L39.7188161,525.829 L4.34651614,526.139039 C2.90291614,526.149 0.323516139,524.229 1.55471614,516.419 C3.09371614,506.659 11.1218161,503.169 19.8188161,500.019 Z" id="Path" fill="#161616"></path>
                    <path d="M200.419516,539.959 L199.392516,521.729 L40.7875161,524.199 L1.24081614,521.299 L0.0327161394,535.269 C-0.384283861,540.099 3.23441614,544.329 8.06491614,544.659 L40.9859161,546.939 L196.163516,544.529 C198.623516,544.489 200.558516,542.409 200.419516,539.959 Z" id="Path" fill="#808080"></path>
                    <path d="M427.919516,546.549 C428.120516,523.599 424.993516,509.639 405.044516,500.259 C385.094516,490.879 366.303516,472.859 331.789516,457.389 C331.789516,457.389 327.246516,456.539 319.851516,460.539 C313.540516,463.949 305.435516,472.319 293.221516,472.219 C279.959516,472.099 268.140516,469.289 260.797516,465.439 C257.625516,456.749 250.587516,456.689 250.587516,456.689 C250.587516,456.689 240.677516,475.549 240.512516,494.499 C240.347516,513.439 240.36402,544.909 240.36402,544.909 L427.919516,546.549 Z" id="Path" fill="#161616"></path>
                    <path d="M335.415079,460.159413 C336.022365,458.793371 337.622062,458.178278 338.988104,458.785563 C340.354145,459.392848 340.969238,460.992546 340.361953,462.358587 C339.77557,463.677612 339.335866,465.180851 339.027157,466.858788 C338.768451,468.264942 338.615941,469.564527 338.529939,471.095019 L338.5,471.685 L353.03696,465.272449 C355.07643,464.372715 357.242567,466.181154 356.776682,468.315823 L356.738891,468.468822 L353.741,479.334 L365.751047,475.462703 C367.444166,474.916926 369.176549,476.123066 369.283169,477.868449 L369.288356,478.039 L369.288,489.193 L378.283916,484.319102 C380.037397,483.36894 382.158831,484.576865 382.275335,486.529813 L382.280356,486.699 L382.280356,500.239 C382.280356,501.733946 381.068463,502.94584 379.573516,502.94584 C378.133938,502.94584 376.956834,501.822054 376.871616,500.403893 L376.866676,500.239 L376.866,491.244 L367.871116,496.118898 C366.117636,497.06906 363.996201,495.861135 363.879697,493.908187 L363.874676,493.739 L363.874,481.755 L350.628985,486.025297 C348.632025,486.669017 346.717226,484.899793 347.150052,482.888433 L347.189141,482.729178 L350.003,472.527 L336.816072,478.345551 C335.079454,479.111678 333.134729,477.89988 333.021836,476.039843 L333.016676,475.869 L333.022565,474.353671 C333.052684,470.831763 333.207879,468.569484 333.702839,465.879212 C334.084473,463.804904 334.642394,461.897508 335.415079,460.159413 Z" id="Path" fill="#FFFFFF"></path>
                    <path d="M420.372516,502.019 C414.251516,499.799 407.769516,498.119 395.342516,495.299 L400.623516,510.509 L400.472516,527.829 L435.844516,528.139039 C437.288516,528.149 439.867516,526.229 438.636516,518.419 C437.097516,508.659 429.069516,505.169 420.372516,502.019 Z" id="Path" fill="#161616"></path>
                    <path d="M239.771516,541.959 L240.798516,523.729 L399.403516,526.199 L438.950516,523.299 L440.158516,537.269 C440.575516,542.099 436.957516,546.329 432.126516,546.659 L399.205516,548.939 L244.028516,546.529 C241.567516,546.489 239.632516,544.409 239.771516,541.959 Z" id="Path" fill="#808080"></path>
                </g>
                <g id="upper-limb" transform="translate(0.086919, 378.349000)">
                    <ellipse id="Oval" fill="#9C7C4B" fill-rule="nonzero" cx="236.449081" cy="68.651" rx="143" ry="68"></ellipse>
                    <path d="M46.2110492,167.301985 C56.2035455,148.874268 79.2426801,142.036171 97.6703966,152.028668 C115.913836,161.921239 122.798289,184.600821 113.238445,202.933818 L112.943714,203.488015 C96.9505652,232.981867 90.1463966,283.53338 89.2308899,363.198725 L89.1618852,370.476567 C89.0774676,381.364566 89.081708,391.819691 89.1538256,409.139258 L89.2800166,439.938461 C89.2841382,441.899804 89.2863503,443.764142 89.2870674,445.697003 L89.2873315,447.162084 C89.2872851,468.124687 72.2937004,485.11815 51.3310976,485.11815 C30.3684948,485.11815 13.3749851,468.124519 13.3750315,447.161916 L13.3311498,429.162506 L13.2019453,398.005722 C13.1700709,386.078613 13.1866329,377.521358 13.2639613,368.390394 L13.2963883,364.868017 C13.7043468,323.782266 15.3992241,291.142331 19.2206806,261.741401 L19.3687101,260.612182 C24.3502949,222.931801 32.7741447,192.081726 46.2110492,167.301985 Z" id="Path" fill="#FFDACF" fill-rule="nonzero"></path>
                    <path d="M381.834592,189.670095 C397.63154,180.209739 418.10663,185.346562 427.566986,201.14351 C452.041647,242.011416 466.283911,290.608778 470.860404,341.880111 C474.805851,386.081719 471.231327,430.557981 461.587451,465.517033 C456.690876,483.267116 438.332132,493.686944 420.582049,488.790369 C402.831965,483.893795 392.412137,465.535051 397.308712,447.784967 C404.767373,420.747321 407.699172,384.26821 404.444759,347.808389 C400.711831,305.987675 389.287562,267.005861 370.361176,235.40249 C360.90082,219.605542 366.037643,199.130451 381.834592,189.670095 Z" id="Path" fill="#FFDACF" fill-rule="nonzero"></path>
                    <path d="M91.6020815,147.28 C91.6020815,130.39 103.062081,115.652 119.431081,111.489 L178.317081,96.514 C181.291081,95.758 184.349081,95.375 187.418081,95.375 L291.057081,95.375 C293.571081,95.375 296.080081,95.632 298.542081,96.142 L377.436081,112.471 C394.583081,116.021 406.881081,131.124 406.881081,148.635 L406.881081,434.001 C406.881081,475.926 372.894081,509.913 330.969081,509.913 L167.515081,509.913 C125.590081,509.913 91.6020815,475.926 91.6020815,434.001 L91.6020815,147.28 Z" id="Path" fill="#535659" fill-rule="nonzero"></path>
                    <path d="M41.2639815,124.35 C52.0662815,73.529 91.4707291,48.6823 152.842081,51.89 C214.213434,55.0977 196.915081,99.996 186.113081,150.816 L186.113081,347.838 C175.310081,398.658 125.355081,431.1 74.5346815,420.297 C23.7140815,409.495 -8.72721852,359.54 2.07508148,308.719 L41.2639815,124.35 Z" id="Path" fill="#B38847" fill-rule="nonzero"></path>
                    <path d="M378.347038,47.0759171 C381.781314,46.6046131 385.254591,46.0545031 388.766869,45.4255871 C388.766869,45.4255871 388.766869,45.4255871 388.766869,45.4255871 C424.187073,39.0831695 458.042367,62.6553728 464.384784,98.0755767 C465.063488,101.865901 465.404844,105.70893 465.404869,109.55954 L465.404869,333.288217 C465.404869,375.614216 431.092868,409.926217 388.766869,409.926217 L388.766815,409.926217 C346.440816,409.926217 312.128815,375.614216 312.128815,333.288217 L312.128815,123.002271 C312.128815,84.7027852 340.403193,52.2831525 378.347038,47.0759171 Z" id="Rectangle" fill="#B38847" fill-rule="nonzero" transform="translate(388.766842, 225.793739) scale(-1, 1) rotate(18.999984) translate(-388.766842, -225.793739) "></path>
                    <path d="M200.215081,215.624 C200.215081,186.924 203.294081,140.098 184.815081,98.558 L120.138081,98.558 C108.503081,114.922 84.4120815,171.063 81.1269815,264.716 C77.8418815,358.368 70.1764815,466.119 66.7543815,508.287 C81.1269815,512.536 165.823081,526.697 213.047081,511.592 C213.047081,451.171 208.427081,415.768 207.401081,327.025 C206.707081,267.079 200.215081,244.324 200.215081,215.624 Z" id="Path" fill="#B38847" fill-rule="nonzero"></path>
                    <rect id="Rectangle" fill="#EBBAAA" fill-rule="nonzero" x="200.693081" y="27.734" width="80.3592" height="114.537" rx="38.8907"></rect>
                    <path d="M308.113081,93.5026895 C297.894081,117.006874 272.954081,133.607 243.809081,133.607 C213.267081,133.607 187.343081,115.377245 178.139081,90.0765543 C179.950081,89.764669 181.779081,89.607 183.612081,89.607 L287.979081,89.607 C290.493081,89.607 293.001081,89.9027732 295.464081,90.489716 L308.113081,93.5026895 Z" id="Path" fill="#EBBAAA"></path>
                    <path d="M141.644081,122.423 C168.336081,102.917 164.168082,29 181.621082,29 C236.545082,77.251 226.083081,164.514 207.347081,281.548 C178.602081,138.848 162.433081,152.195 141.644081,122.423 Z" id="Path" fill="#CDA25F" fill-rule="nonzero"></path>
                    <path d="M281.162081,203.532 C281.162081,174.072 283.337081,105.172 301.816081,62.533 L347.233081,62.533 C365.082081,62.533 381.007081,71.946 384.765081,89.395 C392.161081,123.738 397.866081,184.18 400.249081,253.923 C403.535081,350.054 409.269081,472.285 412.691081,515.569 C385.999081,519.445 312.987081,531.074 265.763081,515.569 C265.763081,453.549 272.949081,408.973 273.975081,317.881 C274.669081,256.349 281.162081,232.991 281.162081,203.532 Z" id="Path" fill="#B38847" fill-rule="nonzero"></path>
                    <circle id="Oval" fill="#000000" fill-rule="nonzero" opacity="0.08" cx="300.275081" cy="148.998" r="8.50244"></circle>
                    <circle id="Oval" fill="#000000" fill-rule="nonzero" opacity="0.08" cx="300.275081" cy="184.088" r="8.50244"></circle>
                    <circle id="Oval" fill="#000000" fill-rule="nonzero" opacity="0.08" cx="300.275081" cy="219.177" r="8.50244"></circle>
                    <circle id="Oval" fill="#000000" fill-rule="nonzero" opacity="0.08" cx="300.275081" cy="254.267" r="8.50244"></circle>
                    <circle id="Oval" fill="#000000" fill-rule="nonzero" opacity="0.08" cx="300.275081" cy="289.357" r="8.50244"></circle>
                    <circle id="Oval" fill="#000000" fill-rule="nonzero" opacity="0.08" cx="300.275081" cy="324.447" r="8.50244"></circle>
                    <circle id="Oval" fill="#000000" fill-rule="nonzero" opacity="0.08" cx="300.275081" cy="359.537" r="8.50244"></circle>
                    <circle id="Oval" fill="#000000" fill-rule="nonzero" opacity="0.08" cx="300.275081" cy="394.627" r="8.50244"></circle>
                    <circle id="Oval" fill="#000000" fill-rule="nonzero" opacity="0.08" cx="300.275081" cy="429.716" r="8.50244"></circle>
                    <circle id="Oval" fill="#000000" fill-rule="nonzero" opacity="0.08" cx="300.275081" cy="464.806" r="8.50244"></circle>
                    <circle id="Oval" fill="#000000" fill-rule="nonzero" opacity="0.08" cx="300.275081" cy="499.896" r="8.50244"></circle>
                    <circle id="Oval" fill="#000000" fill-rule="nonzero" opacity="0.08" cx="337.143081" cy="150.166" r="8.50244"></circle>
                    <circle id="Oval" fill="#000000" fill-rule="nonzero" opacity="0.08" cx="337.143081" cy="185.255" r="8.50244"></circle>
                    <circle id="Oval" fill="#000000" fill-rule="nonzero" opacity="0.08" cx="337.143081" cy="220.345" r="8.50244"></circle>
                    <circle id="Oval" fill="#000000" fill-rule="nonzero" opacity="0.08" cx="337.143081" cy="255.435" r="8.50244"></circle>
                    <circle id="Oval" fill="#000000" fill-rule="nonzero" opacity="0.08" cx="337.143081" cy="290.525" r="8.50244"></circle>
                    <circle id="Oval" fill="#000000" fill-rule="nonzero" opacity="0.08" cx="337.143081" cy="325.615" r="8.50244"></circle>
                    <circle id="Oval" fill="#000000" fill-rule="nonzero" opacity="0.08" cx="337.143081" cy="360.705" r="8.50244"></circle>
                    <circle id="Oval" fill="#000000" fill-rule="nonzero" opacity="0.08" cx="337.143081" cy="395.795" r="8.50244"></circle>
                    <circle id="Oval" fill="#000000" fill-rule="nonzero" opacity="0.08" cx="337.143081" cy="430.884" r="8.50244"></circle>
                    <circle id="Oval" fill="#000000" fill-rule="nonzero" opacity="0.08" cx="337.143081" cy="465.974" r="8.50244"></circle>
                    <circle id="Oval" fill="#000000" fill-rule="nonzero" opacity="0.08" cx="337.143081" cy="501.064" r="8.50244"></circle>
                    <circle id="Oval" fill="#000000" fill-rule="nonzero" opacity="0.08" cx="374.011081" cy="221.511" r="8.50244"></circle>
                    <circle id="Oval" fill="#000000" fill-rule="nonzero" opacity="0.08" cx="374.011081" cy="256.601" r="8.50244"></circle>
                    <circle id="Oval" fill="#000000" fill-rule="nonzero" opacity="0.08" cx="374.011081" cy="291.691" r="8.50244"></circle>
                    <circle id="Oval" fill="#000000" fill-rule="nonzero" opacity="0.08" cx="374.011081" cy="326.781" r="8.50244"></circle>
                    <circle id="Oval" fill="#000000" fill-rule="nonzero" opacity="0.08" cx="374.011081" cy="361.871" r="8.50244"></circle>
                    <circle id="Oval" fill="#000000" fill-rule="nonzero" opacity="0.08" cx="374.011081" cy="396.961" r="8.50244"></circle>
                    <circle id="Oval" fill="#000000" fill-rule="nonzero" opacity="0.08" cx="374.011081" cy="432.05" r="8.50244"></circle>
                    <circle id="Oval" fill="#000000" fill-rule="nonzero" opacity="0.08" cx="374.011081" cy="467.14" r="8.50244"></circle>
                    <circle id="Oval" fill="#000000" fill-rule="nonzero" opacity="0.08" cx="374.011081" cy="502.23" r="8.50244"></circle>
                    <circle id="Oval" fill="#000000" fill-rule="nonzero" opacity="0.08" cx="102.745081" cy="148.998" r="8.50244"></circle>
                    <circle id="Oval" fill="#000000" fill-rule="nonzero" opacity="0.08" cx="102.745081" cy="184.088" r="8.50244"></circle>
                    <circle id="Oval" fill="#000000" fill-rule="nonzero" opacity="0.08" cx="102.745081" cy="219.177" r="8.50244"></circle>
                    <circle id="Oval" fill="#000000" fill-rule="nonzero" opacity="0.08" cx="102.745081" cy="254.267" r="8.50244"></circle>
                    <circle id="Oval" fill="#000000" fill-rule="nonzero" opacity="0.08" cx="102.745081" cy="289.357" r="8.50244"></circle>
                    <circle id="Oval" fill="#000000" fill-rule="nonzero" opacity="0.08" cx="102.745081" cy="324.447" r="8.50244"></circle>
                    <circle id="Oval" fill="#000000" fill-rule="nonzero" opacity="0.08" cx="102.745081" cy="359.537" r="8.50244"></circle>
                    <circle id="Oval" fill="#000000" fill-rule="nonzero" opacity="0.08" cx="102.745081" cy="394.627" r="8.50244"></circle>
                    <circle id="Oval" fill="#000000" fill-rule="nonzero" opacity="0.08" cx="102.745081" cy="429.716" r="8.50244"></circle>
                    <circle id="Oval" fill="#000000" fill-rule="nonzero" opacity="0.08" cx="102.745081" cy="464.806" r="8.50244"></circle>
                    <circle id="Oval" fill="#000000" fill-rule="nonzero" opacity="0.08" cx="102.745081" cy="499.896" r="8.50244"></circle>
                    <circle id="Oval" fill="#000000" fill-rule="nonzero" opacity="0.08" cx="139.613081" cy="150.166" r="8.50244"></circle>
                    <circle id="Oval" fill="#000000" fill-rule="nonzero" opacity="0.08" cx="139.613081" cy="185.255" r="8.50244"></circle>
                    <circle id="Oval" fill="#000000" fill-rule="nonzero" opacity="0.08" cx="139.613081" cy="220.345" r="8.50244"></circle>
                    <circle id="Oval" fill="#000000" fill-rule="nonzero" opacity="0.08" cx="139.613081" cy="255.435" r="8.50244"></circle>
                    <circle id="Oval" fill="#000000" fill-rule="nonzero" opacity="0.08" cx="139.613081" cy="290.525" r="8.50244"></circle>
                    <circle id="Oval" fill="#000000" fill-rule="nonzero" opacity="0.08" cx="139.613081" cy="325.615" r="8.50244"></circle>
                    <circle id="Oval" fill="#000000" fill-rule="nonzero" opacity="0.08" cx="139.613081" cy="360.705" r="8.50244"></circle>
                    <circle id="Oval" fill="#000000" fill-rule="nonzero" opacity="0.08" cx="139.613081" cy="395.795" r="8.50244"></circle>
                    <circle id="Oval" fill="#000000" fill-rule="nonzero" opacity="0.08" cx="139.613081" cy="430.884" r="8.50244"></circle>
                    <circle id="Oval" fill="#000000" fill-rule="nonzero" opacity="0.08" cx="139.613081" cy="465.974" r="8.50244"></circle>
                    <circle id="Oval" fill="#000000" fill-rule="nonzero" opacity="0.08" cx="139.613081" cy="501.064" r="8.50244"></circle>
                    <circle id="Oval" fill="#000000" fill-rule="nonzero" opacity="0.08" cx="176.480081" cy="221.511" r="8.50244"></circle>
                    <circle id="Oval" fill="#000000" fill-rule="nonzero" opacity="0.08" cx="176.480081" cy="256.601" r="8.50244"></circle>
                    <circle id="Oval" fill="#000000" fill-rule="nonzero" opacity="0.08" cx="176.480081" cy="291.691" r="8.50244"></circle>
                    <circle id="Oval" fill="#000000" fill-rule="nonzero" opacity="0.08" cx="176.480081" cy="326.781" r="8.50244"></circle>
                    <circle id="Oval" fill="#000000" fill-rule="nonzero" opacity="0.08" cx="176.480081" cy="361.871" r="8.50244"></circle>
                    <circle id="Oval" fill="#000000" fill-rule="nonzero" opacity="0.08" cx="176.480081" cy="396.961" r="8.50244"></circle>
                    <circle id="Oval" fill="#000000" fill-rule="nonzero" opacity="0.08" cx="176.480081" cy="432.05" r="8.50244"></circle>
                    <circle id="Oval" fill="#000000" fill-rule="nonzero" opacity="0.08" cx="176.480081" cy="467.14" r="8.50244"></circle>
                    <circle id="Oval" fill="#000000" fill-rule="nonzero" opacity="0.08" cx="176.480081" cy="502.23" r="8.50244"></circle>
                    <path d="M341.766081,117.803 C315.073081,98.297 320.640868,29 303.188868,29 C248.264868,77.251 257.326081,159.894 276.062081,276.928 C304.807081,134.228 320.977081,147.574 341.766081,117.803 Z" id="Path" fill="#CDA25F" fill-rule="nonzero"></path>
                    <path d="M342.935643,117.064664 L348.71852,127.579336 C338.219454,133.353629 324.702751,148.605416 313.236424,170.355243 C298.08154,199.101683 287.490039,236.588336 283.415519,282.423221 L282.967619,287.501947 C275.771501,369.740049 270.763788,458.097411 269.23591,511.234492 L269.189767,512.866632 L257.194396,512.533368 L257.289305,509.23237 C258.912034,454.585239 264.080025,364.418074 271.462649,281.360721 C275.674154,233.984877 286.701119,194.956982 302.621239,164.759007 C314.968908,141.337413 329.840097,124.455238 342.522857,117.294709 L342.935643,117.064664 Z" id="Path" fill="#8E6D39" fill-rule="nonzero"></path>
                    <path d="M136.08352,117.064664 C148.718148,124.013476 163.592422,140.718524 175.994394,163.997581 L176.397924,164.759007 C192.318044,194.956982 203.345009,233.984877 207.556519,281.360779 L208.22825,289.007255 C215.32616,370.756786 220.259824,458.07667 221.778424,510.8941 L221.824767,512.533368 L209.829396,512.866632 L209.684318,507.903105 C208.013491,453.331216 202.889457,364.39141 195.603649,282.423279 C191.529124,236.588336 180.937623,199.101683 165.782739,170.355243 C154.443816,148.847081 141.099827,133.69336 130.651723,127.775319 L130.300643,127.579336 L136.08352,117.064664 Z" id="Path" fill="#8E6D39" fill-rule="nonzero"></path>
                    <circle id="Oval" fill="#000000" fill-rule="nonzero" opacity="0.1" cx="388.829081" cy="102.873" r="8.50244"></circle>
                    <circle id="Oval" fill="#000000" fill-rule="nonzero" opacity="0.1" cx="404.188081" cy="134.709" r="8.50244"></circle>
                    <circle id="Oval" fill="#000000" fill-rule="nonzero" opacity="0.1" transform="translate(413.090081, 164.611000) rotate(5.336810) translate(-413.090081, -164.611000) " cx="413.090081" cy="164.611" r="8.50244"></circle>
                    <circle id="Oval" fill="#000000" fill-rule="nonzero" opacity="0.1" transform="translate(425.422081, 197.737000) rotate(5.336810) translate(-425.422081, -197.737000) " cx="425.422081" cy="197.737" r="8.50244"></circle>
                    <circle id="Oval" fill="#000000" fill-rule="nonzero" opacity="0.1" transform="translate(437.754081, 230.865000) rotate(5.336810) translate(-437.754081, -230.865000) " cx="437.754081" cy="230.865" r="8.50244"></circle>
                    <circle id="Oval" fill="#000000" fill-rule="nonzero" opacity="0.1" transform="translate(450.086081, 263.992000) rotate(5.336810) translate(-450.086081, -263.992000) " cx="450.086081" cy="263.992" r="8.50244"></circle>
                    <circle id="Oval" fill="#000000" fill-rule="nonzero" opacity="0.1" transform="translate(463.203081, 299.218000) rotate(5.336810) translate(-463.203081, -299.218000) " cx="463.203081" cy="299.218" r="8.50244"></circle>
                    <circle id="Oval" fill="#000000" fill-rule="nonzero" opacity="0.1" cx="350.143081" cy="96.543" r="8.50244"></circle>
                    <circle id="Oval" fill="#000000" fill-rule="nonzero" opacity="0.1" cx="365.503081" cy="128.38" r="8.50244"></circle>
                    <circle id="Oval" fill="#000000" fill-rule="nonzero" opacity="0.1" transform="translate(374.405081, 158.280000) rotate(5.336810) translate(-374.405081, -158.280000) " cx="374.405081" cy="158.28" r="8.50244"></circle>
                    <circle id="Oval" fill="#000000" fill-rule="nonzero" opacity="0.1" transform="translate(386.737081, 191.407000) rotate(5.336810) translate(-386.737081, -191.407000) " cx="386.737081" cy="191.407" r="8.50244"></circle>
                    <circle id="Oval" fill="#000000" fill-rule="nonzero" opacity="0.1" transform="translate(399.069081, 224.536000) rotate(5.336810) translate(-399.069081, -224.536000) " cx="399.069081" cy="224.536" r="8.50244"></circle>
                    <circle id="Oval" fill="#000000" fill-rule="nonzero" opacity="0.1" transform="translate(411.401081, 257.663000) rotate(5.336810) translate(-411.401081, -257.663000) " cx="411.401081" cy="257.663" r="8.50244"></circle>
                    <circle id="Oval" fill="#000000" fill-rule="nonzero" opacity="0.1" transform="translate(424.518081, 292.888000) rotate(5.336810) translate(-424.518081, -292.888000) " cx="424.518081" cy="292.888" r="8.50244"></circle>
                    <circle id="Oval" fill="#000000" fill-rule="nonzero" opacity="0.1" transform="translate(403.434081, 325.535000) rotate(5.336810) translate(-403.434081, -325.535000) " cx="403.434081" cy="325.535" r="8.50244"></circle>
                    <circle id="Oval" fill="#000000" fill-rule="nonzero" opacity="0.1" transform="translate(407.893081, 364.833000) rotate(5.336810) translate(-407.893081, -364.833000) " cx="407.893081" cy="364.833" r="8.50244"></circle>
                    <circle id="Oval" fill="#000000" fill-rule="nonzero" opacity="0.1" transform="translate(468.117081, 334.870000) rotate(5.336810) translate(-468.117081, -334.870000) " cx="468.117081" cy="334.87" r="8.50244"></circle>
                    <circle id="Oval" fill="#000000" fill-rule="nonzero" opacity="0.1" transform="translate(433.775081, 333.288000) rotate(5.336810) translate(-433.775081, -333.288000) " cx="433.775081" cy="333.288" r="8.50244"></circle>
                    <circle id="Oval" fill="#000000" fill-rule="nonzero" opacity="0.1" transform="translate(448.505081, 366.415000) rotate(5.336810) translate(-448.505081, -366.415000) " cx="448.505081" cy="366.415" r="8.50244"></circle>
                    <circle id="Oval" fill="#000000" fill-rule="nonzero" opacity="0.1" transform="translate(82.142081, 96.825000) scale(-1, 1) rotate(5.879290) translate(-82.142081, -96.825000) " cx="82.1420815" cy="96.825" r="8.5024408"></circle>
                    <circle id="Oval" fill="#000000" fill-rule="nonzero" opacity="0.1" transform="translate(70.123681, 130.067000) scale(-1, 1) rotate(5.879290) translate(-70.123681, -130.067000) " cx="70.1236815" cy="130.067" r="8.5024408"></circle>
                    <circle id="Oval" fill="#000000" fill-rule="nonzero" opacity="0.1" transform="translate(64.332281, 160.723000) scale(-1, 1) rotate(11.216107) translate(-64.332281, -160.723000) " cx="64.3322815" cy="160.723" r="8.50243554"></circle>
                    <circle id="Oval" fill="#000000" fill-rule="nonzero" opacity="0.1" transform="translate(55.457781, 194.939000) scale(-1, 1) rotate(11.216107) translate(-55.457781, -194.939000) " cx="55.4577815" cy="194.939" r="8.50243554"></circle>
                    <circle id="Oval" fill="#000000" fill-rule="nonzero" opacity="0.1" transform="translate(46.584281, 229.156000) scale(-1, 1) rotate(11.216107) translate(-46.584281, -229.156000) " cx="46.5842815" cy="229.156" r="8.50243554"></circle>
                    <circle id="Oval" fill="#000000" fill-rule="nonzero" opacity="0.1" transform="translate(37.709781, 263.371000) scale(-1, 1) rotate(11.216107) translate(-37.709781, -263.371000) " cx="37.7097815" cy="263.371" r="8.50243554"></circle>
                    <circle id="Oval" fill="#000000" fill-rule="nonzero" opacity="0.1" transform="translate(28.269781, 299.756000) scale(-1, 1) rotate(11.216107) translate(-28.269781, -299.756000) " cx="28.2697815" cy="299.756" r="8.50243554"></circle>
                    <circle id="Oval" fill="#000000" fill-rule="nonzero" opacity="0.1" transform="translate(119.975081, 86.565000) scale(-1, 1) rotate(5.879290) translate(-119.975081, -86.565000) " cx="119.975081" cy="86.565" r="8.5024408"></circle>
                    <circle id="Oval" fill="#000000" fill-rule="nonzero" opacity="0.1" transform="translate(107.957081, 119.809000) scale(-1, 1) rotate(5.879290) translate(-107.957081, -119.809000) " cx="107.957081" cy="119.809" r="8.5024408"></circle>
                    <circle id="Oval" fill="#000000" fill-rule="nonzero" opacity="0.1" transform="translate(84.417081, 218.898000) scale(-1, 1) rotate(11.216107) translate(-84.417081, -218.898000) " cx="84.4170815" cy="218.898" r="8.50243554"></circle>
                    <circle id="Oval" fill="#000000" fill-rule="nonzero" opacity="0.1" transform="translate(75.543281, 253.114000) scale(-1, 1) rotate(11.216107) translate(-75.543281, -253.114000) " cx="75.5432815" cy="253.114" r="8.50243554"></circle>
                    <circle id="Oval" fill="#000000" fill-rule="nonzero" opacity="0.1" transform="translate(66.103281, 289.496000) scale(-1, 1) rotate(11.216107) translate(-66.103281, -289.496000) " cx="66.1032815" cy="289.496" r="8.50243554"></circle>
                    <circle id="Oval" fill="#000000" fill-rule="nonzero" opacity="0.1" transform="translate(27.034981, 335.724000) scale(-1, 1) rotate(11.216107) translate(-27.034981, -335.724000) " cx="27.0349815" cy="335.724" r="8.50243554"></circle>
                    <circle id="Oval" fill="#000000" fill-rule="nonzero" opacity="0.1" transform="translate(61.033481, 330.632000) scale(-1, 1) rotate(11.216107) translate(-61.033481, -330.632000) " cx="61.0334815" cy="330.632" r="8.50243554"></circle>
                    <circle id="Oval" fill="#000000" fill-rule="nonzero" opacity="0.1" transform="translate(49.774681, 365.094000) scale(-1, 1) rotate(11.216107) translate(-49.774681, -365.094000) " cx="49.7746815" cy="365.094" r="8.50243554"></circle>
                    <circle id="Oval" fill="#000000" fill-rule="nonzero" opacity="0.1" transform="translate(73.743981, 389.108000) scale(-1, 1) rotate(11.216107) translate(-73.743981, -389.108000) " cx="73.7439815" cy="389.108" r="8.50243554"></circle>
                </g>
                <g id="hand" transform="translate(67.144100, 0.425700)">
                    <ellipse id="Oval" fill="#FFDACF" fill-rule="nonzero" cx="54.2949" cy="264.6373" rx="54.2949" ry="51.5003"></ellipse>
                    <ellipse id="Oval" fill="#FFDACF" fill-rule="nonzero" cx="305.1929" cy="263.1843" rx="54.2949" ry="51.5003"></ellipse>
                    <path d="M23.4089,225.4413 C13.7033,134.2093 83.9429,54.1223 175.6609,51.8423 C267.9109,49.5493 342.2429,126.9123 336.2679,218.9973 L335.7709,226.6643 C335.0199,238.2383 333.0439,249.7003 329.8749,260.8573 L306.6119,342.7793 C290.1789,400.6463 237.3329,440.5743 177.1789,440.5743 C114.2139,440.5743 59.6699,396.9083 45.8899,335.4703 L25.3909,244.0743 L23.4089,225.4413 Z" id="Path" fill="#FFE2DA" fill-rule="nonzero"></path>
                    <path d="M212.4679,198.2033 L261.8759,194.7833 C263.8179,194.6493 265.7409,195.2433 267.2679,196.4513 C273.2339,201.1693 269.6369,210.7653 262.0389,210.3983 L255.5479,210.0853 L213.1179,211.3453 C209.0659,211.4653 205.8699,207.9293 206.3979,203.9103 C206.8059,200.8063 209.3449,198.4193 212.4679,198.2033 Z" id="Path" fill="#000000" fill-rule="nonzero"></path>
                    <path d="M146.3139,198.2033 L96.9059,194.7833 C94.9639,194.6493 93.0409,195.2433 91.5139,196.4513 C85.5479,201.1693 89.1459,210.7653 96.7429,210.3983 L103.2339,210.0853 L145.6649,211.3453 C149.7159,211.4653 152.9119,207.9293 152.3839,203.9103 C151.9759,200.8063 149.4379,198.4193 146.3139,198.2033 Z" id="Path" fill="#000000" fill-rule="nonzero"></path>
                    <path d="M173.045686,268.083579 L185.950114,269.657021 C185.51264,273.244922 184.081309,277.13608 181.660245,282.002524 L181.224051,282.868942 C180.40477,284.477819 179.47195,286.21093 178.330232,288.263069 L174.159625,295.6627 C173.052587,297.637679 172.175591,299.238291 171.363818,300.775569 L171.162138,301.158749 C165.834588,311.314254 164.039109,317.966276 165.571273,321.824876 C167.377754,326.374313 175.355143,329.510775 192.381016,329.579159 L192.9519,329.5803 L192.9519,342.5803 L191.632566,342.574267 C170.264106,342.377063 157.744541,337.339799 153.48894,326.622503 C150.113748,318.122426 152.554836,308.778437 159.351797,295.690933 L159.650057,295.119543 C160.438007,293.617534 161.260908,292.102594 162.25263,290.321103 L166.227105,283.230889 C171.369795,273.985855 172.650072,271.126287 173.030739,268.202175 L173.045686,268.083579 Z" id="Path" fill="#EBBAAA" fill-rule="nonzero"></path>
                    <path d="M86.5069,145.7633 C69.4029,151.3773 57.0359,157.1223 55.9989,170.2613 C52.1439,219.1203 42.8339,197.3293 24.3349,217.7003 L24.2409,217.3683 C21.5499,207.9113 19.3349,200.1273 19.3349,170.2613 C19.3349,65.4323 98.7149,1.0845 170.1819,11.0252 C194.1759,14.3627 226.7799,38.74 226.7799,109.0413 C191.7949,129.0143 118.0819,135.3983 86.5069,145.7633 Z" id="Path" fill="#0B2B59" fill-rule="nonzero"></path>
                    <path d="M226.3899,88.5743 C236.5029,94.2973 281.4389,104.2163 286.3899,116.3773 C297.6629,144.0633 316.4559,123.9543 325.7639,207.5683 C325.7639,217.6163 330.4269,222.8763 334.3769,228.3393 C337.1109,218.7273 340.8349,194.5763 340.8349,167.2343 C340.8349,43.7698 252.6969,5.1968 177.6559,10.6973 C126.2349,14.4665 149.1419,46.0703 149.1419,116.3773 C200.8419,124.3683 197.3429,72.1353 226.3899,88.5743 Z" id="Path" fill="#0B2B59" fill-rule="nonzero"></path>
                    <circle id="Oval" fill="#000000" cx="236.3559" cy="244.0743" r="11.5"></circle>
                    <circle id="Oval-Copy" fill="#000000" cx="120.3559" cy="244.0743" r="11.5"></circle>
                    <path d="M206.277825,366.050006 C209.19129,364.858135 212.519322,366.253761 213.711194,369.167225 C214.903065,372.08069 213.507439,375.408722 210.593975,376.600594 C186.170004,386.592218 163.673872,386.866561 144.667905,376.307691 C141.916207,374.778969 140.924788,371.309004 142.453509,368.557305 C143.982231,365.805607 147.452196,364.814188 150.203895,366.342909 C165.887665,375.056115 184.827494,374.825142 206.277825,366.050006 Z" id="Path" fill="#EBBAAA" fill-rule="nonzero"></path>
                    <polygon id="Path" fill="#133B75" fill-rule="nonzero" points="67.2049 39.9281 58.1879 71.9583 177.0459 53.5513 312.8789 78.3823 312.5929 65.2033 302.9039 61.1763 302.6789 50.8203 290.4639 51.0863 290.1169 35.0828 274.4119 35.4241 270.6569 23.2621 256.6969 23.5655 248.1429 11.5078 233.8299 15.5862 229.3039 8.15 214.4719 8.4724 214.2879 -1.13686838e-13 194.4049 8.9085 188.9869 0.5499 180.4459 9.212 171.5369 0.9292 155.1449 9.7619 144.4909 1.5171 133.3339 10.236 125.4819 10.4067 116.9209 18.1273 113.2669 10.6722 98.7829 26.998 89.1049 23.4411 76.8529 42.0729"></polygon>
                    <path d="M203.9279,108.3633 C147.8639,95.7033 108.2739,118.3923 90.1879,125.3213 C72.1029,132.2493 61.9299,141.1453 47.9439,150.1853 C34.3799,149.2803 27.4559,125.8863 29.1509,112.8873 C29.1509,91.4113 52.6619,66.0923 87.9279,46.1983 C132.0099,21.3312 213.8439,14.5391 281.2129,55.2413 C335.4689,88.0203 330.9469,145.6673 312.8619,162.6213 C294.7769,179.5763 274.0079,124.1873 203.9279,108.3633 Z" id="Path" fill="#133B75" fill-rule="nonzero"></path>
                    <path d="M99.2309,117.9933 C141.2419,126.1633 130.1969,96.1083 130.1969,81.8913 L130.1969,49.5883 C130.1969,36.4576 214.4689,55.2553 221.7619,96.1083 C227.5969,128.7893 194.0469,149.6053 179.4599,150.0913 C148.8269,151.1123 113.8179,144.2553 99.2309,117.9933 Z" id="Path" fill="#133B75" fill-rule="nonzero"></path>
                    <path d="M210.0009,136.6233 C233.1149,142.9303 219.1569,101.4443 210.0009,90.8453 C210.0009,87.0913 219.1569,77.1803 219.1569,69.0713 C219.1569,58.9343 265.5239,69.9093 269.5369,101.4443 C272.7469,126.6723 260.5809,137.5493 254.0829,142.2753 C241.6499,151.3173 218.0269,156.8963 210.0009,136.6233 Z" id="Path" fill="#133B75" fill-rule="nonzero"></path>
                    <path d="M73.2349,143.4063 C96.3499,149.7133 99.2319,114.0173 99.2319,108.2273 C106.0139,80.1083 129.7509,76.7173 142.1849,76.7173 L142.2089,76.7173 C152.3379,76.7173 163.0419,76.7163 167.0519,108.2273 C170.2619,133.4553 142.1849,143.4063 121.2739,151.3183 C106.8939,156.7593 81.2609,163.6783 73.2349,143.4063 Z" id="Path" fill="#133B75" fill-rule="nonzero"></path>
                    <path d="M73.1339,27.3182 C73.1339,56.5183 105.8039,57.7153 124.6729,56.5183 L147.6369,67.4713 C158.5139,72.6593 120.3229,122.4203 84.1949,111.0723 C55.2929,101.9933 50.5519,81.8953 49.1819,71.7153 C46.5609,52.2373 49.1819,42.0124 73.1339,27.3182 Z" id="Path" fill="#133B75" fill-rule="nonzero"></path>
                </g>
            </g>
        </g>
    </g>
</svg>