<?xml version="1.0" encoding="UTF-8"?>
<svg width="586px" height="1330px" viewBox="0 0 586 1330" version="1.1" xmlns="http://www.w3.org/2000/svg" xmlns:xlink="http://www.w3.org/1999/xlink">
    <!-- Generator: Sketch 55.2 (78181) - https://sketchapp.com -->
    <title>gee_me_011</title>
    <desc>Created with Sketch.</desc>
    <defs>
        <path d="M50,0 L0,388 C4.6894,395.5 36.032,404.72 61.45,407.86 C62.06,420.55 63.312,428.44 65.337,430 C78.337,440 180.424,450.67 187.091,440 L187.091,431.95 C211.07,436.1 243.689,434.42 303,428.63 C303,428.63 302.026,421.28 300.484,408.32 C326.513,405.75 361.155,395.92 366.105,388 L316.105,0 L260.105,0 C259.993,0.871 259.882,1.749 259.772,2.635 L164,15.231 C164.22,18.521 164.438,21.777 164.654,25 L108.666,25 C107.888,16.129 107.001,7.761 106,0 L50,0 Z" id="path-1"></path>
        <path d="M190.165,65 C190.165,34.3 170.439,30.55 138.289,20.03 C122.542,14.88 106.471,10.39 90.165,7.69 C79.918,5.99 77.165,15 59.165,15 C43.113,15 23.087,7.05 18.941,5.33 C18.42,5.11 17.804,4.92 17.39,5.3 C17.29,5.39 17.205,5.51 17.143,5.63 C15.226,9.57 5.165,31.05 5.165,48.24 C5.165,61.39 4.039,74.32 7.665,81 C9.301,84.01 19.516,85.66 22.947,85.66 L184.603,85.66 C187.675,85.66 190.165,68.07 190.165,65 Z" id="path-3"></path>
        <path d="M190.165,65 C190.165,34.3 170.439,30.55 138.289,20.03 C122.542,14.88 106.471,10.39 90.165,7.69 C79.918,5.99 77.165,15 59.165,15 C43.113,15 23.087,7.05 18.941,5.33 C18.42,5.11 17.804,4.92 17.39,5.3 C17.29,5.39 17.205,5.51 17.143,5.63 C15.226,9.57 5.165,31.05 5.165,48.24 C5.165,61.39 4.039,74.32 7.665,81 C9.301,84.01 19.516,85.66 22.947,85.66 L184.603,85.66 C187.675,85.66 190.165,68.07 190.165,65 Z" id="path-5"></path>
        <path d="M0.503,-1.42108547e-13 C0.172,2.021 0,4.095 0,6.209 L0,20.218 C0,41.256 17.055,58.311 38.093,58.311 C59.132,58.311 76.187,41.256 76.187,20.218 L76.187,6.209 C76.187,4.095 76.014,2.021 75.683,-1.42108547e-13 L0.503,-1.42108547e-13 Z" id="path-7"></path>
    </defs>
    <g id="GEE!-ME" stroke="none" stroke-width="1" fill="none" fill-rule="evenodd">
        <g id="gee_me_011" transform="translate(-307.000000, -132.000000)">
            <g transform="translate(307.000000, 132.000000)">
                <g id="lower-limb" transform="translate(17.000000, 731.000000)">
                    <path d="M263.317506,141.429875 C268.159766,164.847361 268.745958,235.144702 265.311678,324.065242 C262.246028,403.441213 256.414438,485.488077 251.492603,519.95941 C249.150689,536.361606 260.548799,551.55671 276.950996,553.898624 C293.353192,556.240538 308.548295,544.842428 310.89021,528.440231 C316.173218,491.439326 322.127678,407.663759 325.266978,326.380829 C328.921457,231.758893 328.318722,159.477622 322.074494,129.280125 C318.719433,113.054831 302.846419,102.621445 286.621125,105.976506 C270.395831,109.331567 259.962445,125.204581 263.317506,141.429875 Z" id="Path" fill="#F6DDD6" fill-rule="nonzero"></path>
                    <path d="M138.152527,123.208026 C131.738468,154.226307 126.946514,233.175035 125.762742,318.800454 C124.483755,411.312968 127.603185,489.228033 135.414918,525.444694 C138.908321,541.640766 154.869793,551.938314 171.065865,548.444911 C187.261937,544.951508 197.559485,528.990036 194.066082,512.793964 C187.547743,482.57372 184.542169,407.502474 185.757008,319.629875 C186.887852,237.832945 191.528221,161.381621 196.909473,135.357974 C200.264589,119.132691 189.831257,103.259642 173.605974,99.9045268 C157.380691,96.5494112 141.507642,106.982743 138.152527,123.208026 Z" id="Path" fill="#F6DDD6" fill-rule="nonzero"></path>
                    <g id="Group-2" transform="translate(51.000000, 0.000000)">
                        <path d="M1.42108547e-14,388 L50,0 L106,0 C122,124 108.8,403.2 88,408 C67.2,412.8 6.6667,398.67 1.42108547e-14,388 Z" id="Path" fill="#BF7E68" fill-rule="nonzero"></path>
                        <path d="M366.105,388 L316.105,0 L260.105,0 C244.105,124 257.305,403.2 278.105,408 C298.905,412.8 359.439,398.67 366.105,388 Z" id="Path" fill="#BF7E68" fill-rule="nonzero"></path>
                        <path d="M65.337,430 C78.337,440 180.424,450.67 187.091,440 L187.091,232 L170.337,25 L87.196,25 C71.196,149 52.337,420 65.337,430 Z" id="Path" fill="#C99584" fill-rule="nonzero"></path>
                        <path d="M173.198,428.63 C198.75,436.62 231.456,435.62 303,428.63 C303,428.63 289.62,327.77 283.581,213.941 C277.541,100.107 270.294,1.251 270.294,1.251 L164,15.231 C173.198,153.03 179.331,229.918 173.198,428.63 Z" id="Path" fill="#D79D8A" fill-rule="nonzero"></path>
                        <g id="Clipped" transform="translate(1.000000, 0.000000)">
                            <mask id="mask-2" fill="white">
                                <use xlink:href="#path-1"></use>
                            </mask>
                            <g id="Path"></g>
                            <g id="Group" mask="url(#mask-2)">
                                <g transform="translate(15.000000, -48.000000)">
                                    <path d="M73.91,0.631 L52.057,501.15 L65.624,501.75 L87.477,1.223 L73.91,0.631 Z M98.33,1.393 L76.477,501.92 L97.151,502.82 L119.004,2.295 L98.33,1.393 Z" id="Shape" fill="#C57B5C" fill-rule="evenodd"></path>
                                    <rect id="Rectangle" fill="#AC6C57" fill-rule="nonzero" transform="translate(33.831587, 252.766266) rotate(-84.000000) translate(-33.831587, -252.766266) " x="-216.668413" y="245.839916" width="501" height="13.8527"></rect>
                                    <path d="M128.718,7.041 L133.09,508.02 L140.203,507.96 L135.831,6.979 L128.718,7.041 Z M153.575,507.93 L149.203,6.951 L162.783,6.832 L167.155,507.81 L153.575,507.93 Z M180.527,507.78 L176.155,6.797 L196.847,6.617 L201.219,507.6 L180.527,507.78 Z" id="Shape" fill="#C57B5C" fill-rule="evenodd"></path>
                                    <path d="M210.771,4.689 L245.719,504.47 L252.815,503.97 L217.867,4.193 L210.771,4.689 Z M232.083,3.779 L267.031,503.56 L280.578,502.61 L245.63,2.832 L232.083,3.779 Z" id="Shape" fill="#C57B5C" fill-rule="evenodd"></path>
                                    <rect id="Rectangle" fill="#AC6C57" fill-rule="nonzero" transform="translate(294.248424, 252.362517) rotate(-96.000000) translate(-294.248424, -252.362517) " x="43.7484236" y="245.572517" width="501" height="13.58"></rect>
                                </g>
                            </g>
                        </g>
                    </g>
                    <g id="Clipped" transform="translate(233.000000, 492.000000)">
                        <g id="Group" transform="translate(0.000000, 21.000000)">
                            <mask id="mask-4" fill="white">
                                <use xlink:href="#path-3"></use>
                            </mask>
                            <use id="Path" fill="#D0D4DB" fill-rule="nonzero" xlink:href="#path-3"></use>
                            <path d="M90.534,27.04 C90.348,24.58 87.453,23.39 85.588,24.99 L74.995,34.08 C74.252,34.72 73.243,34.96 72.293,34.71 L58.627,31.2 C56.198,30.57 54.119,33.03 55.138,35.32 L60.746,47.94 C61.154,48.86 61.075,49.93 60.535,50.77 L53.168,62.35 C51.837,64.44 53.472,67.15 55.942,66.95 L70.098,65.8 C71.061,65.72 72.002,66.11 72.627,66.85 L81.825,77.67 C83.429,79.56 86.502,78.8 87.039,76.38 L90.015,62.98 C90.233,62 90.928,61.2 91.866,60.83 L104.759,55.87 C107.1,54.97 107.367,51.77 105.207,50.49 L93.057,43.31 C92.213,42.82 91.665,41.94 91.591,40.96 L90.534,27.04 Z" id="Path" fill="#E4E9F1" fill-rule="nonzero" mask="url(#mask-4)"></path>
                            <path d="M42.665,11 C30.665,10.2 20.665,3.67 16.665,0 C12.665,4 2.765,15 5.165,19 C8.165,24 31.165,28 41.165,28 C51.165,28 57.665,12 42.665,11 Z" id="Path" fill="#AEB5C0" fill-rule="nonzero" mask="url(#mask-4)"></path>
                            <path d="M170.021,31.02 C182.969,23.7 177.891,38.2 189.526,44.36 L214.165,91.59 L18.081,91.59 C13.29,84.74 -9.458,66.5 5.165,66.5 C37.165,66.5 82.165,71.5 101.665,72.5 C120.148,73.45 176.272,74.92 173.165,58.5 C169.572,39.51 158.214,37.69 170.021,31.02 Z" id="Path" fill="#AEB5C0" fill-rule="nonzero" mask="url(#mask-4)"></path>
                        </g>
                        <path d="M96.4228784,45.4073397 C94.6200183,47.7613236 96.8585762,51.0534914 99.7105271,50.242368 L121.510994,44.0420972 L116.701786,48.8136821 C115.494316,50.011706 115.486658,51.9617441 116.684682,53.1692142 C117.882706,54.3766842 119.832744,54.3843418 121.040214,53.1863179 L134.334214,39.9963179 C136.59338,37.7548261 134.383546,33.9770321 131.322473,34.847632 L106.962939,41.7757273 L112.939122,33.9726603 C114.694092,31.6812063 112.616015,28.4512728 109.803252,29.0986098 L87.9608101,34.1254898 C88.276373,33.9209047 88.6078754,33.7128253 88.9553445,33.5013853 C89.9150657,32.9173808 93.2853774,31.0036853 93.8976154,30.6312556 C95.3508178,29.7472601 95.8122511,27.8525869 94.9282556,26.3993846 C94.0442601,24.9461822 92.1495869,24.4847489 90.6963846,25.3687444 C90.1898619,25.6768665 86.819013,27.590867 85.7533222,28.2393555 C80.138293,31.6561831 77.08515,34.7549605 77.08515,39.08 C77.08515,41.0598528 78.9263326,42.5254312 80.8557482,42.0813902 L102.8462,37.0204468 L96.4228784,45.4073397 Z" id="Path" fill="#AEB5C0" fill-rule="nonzero"></path>
                        <path d="M83.96815,15.91 C83.96815,16.7884541 83.9580201,17.569632 83.9336647,18.8848686 L83.9286842,19.1526402 L83.92815,19.25 C83.8989179,20.7906204 83.8915714,21.3161762 83.8941687,22.0607436 C83.8999692,24.1375759 84.0188505,25.5708178 84.3275605,26.7500106 C84.6823198,28.1054586 85.2909346,29.0694737 86.2317665,29.725868 C87.2468392,30.4382138 88.6842592,30.78985 90.641,30.78985 C94.7214225,30.78985 99.5847442,29.2747272 103.371005,26.7535152 C107.644037,23.9081553 110.14685,20.1210481 110.14685,15.91 C110.14685,11.3517373 109.038071,7.38318107 106.963697,4.55744885 C104.803012,1.60460112 101.671847,0.00015 97.827,0.00015 C89.9347145,0.00015 83.96815,6.78620568 83.96815,15.91 Z M90.053838,22.0413971 C90.0514551,21.358083 90.058488,20.8549578 90.0873158,19.3073598 L90.08785,19.21 C90.0898017,19.1339752 90.0898017,19.1339752 90.0923088,18.9989138 C90.1173214,17.6481915 90.12785,16.8362652 90.12785,15.91 C90.12785,10.0243283 93.5256498,6.15985 97.827,6.15985 C99.6982633,6.15985 100.986683,6.82005354 101.995495,8.19872017 C103.233591,9.88527167 103.98715,12.5824203 103.98715,15.91 C103.98715,17.8144477 102.655308,19.8297108 99.956989,21.6264888 C97.167638,23.4838742 93.488261,24.63015 90.641,24.63015 C90.4704091,24.63015 90.3167558,24.626063 90.1795932,24.6187189 C90.1007729,24.0322121 90.0570588,23.1944417 90.053838,22.0413971 Z" id="Path" fill="#AEB5C0" fill-rule="nonzero"></path>
                        <path d="M85.5866879,29.9631253 L85.5945901,29.9683934 C85.1094853,30.6960506 84.2797598,31.334301 82.9788456,31.9144025 C80.2086611,33.1455956 76.454954,33.5970437 73.136602,33.0494196 C69.385426,32.4355433 66.5582391,30.654939 65.3022445,27.8400511 C63.9404589,24.7737015 63.5089847,21.7791169 64.0744658,19.2675117 C64.6630766,16.6368492 66.3084281,14.6112985 68.917559,13.4458622 C74.2648246,11.0679448 80.3448778,13.8056877 83.0722102,19.9264751 L83.0735494,19.929485 C83.3420216,20.5337387 83.4247342,20.7122334 84.0855814,22.1261383 L84.0815481,22.1175655 C84.1676714,22.3038511 84.4700923,22.954313 84.5337469,23.0919142 C84.7060123,23.4642982 84.8364428,23.7512331 84.9578096,24.0268487 C85.5687308,25.4116036 85.9175608,26.413465 86.063169,27.303413 C86.1419527,27.7958112 86.1522389,28.2389081 86.095104,28.6470146 L86.0650414,28.8240083 C86.0584045,28.8600299 86.0540635,28.8835905 86.0471088,28.9127359 C86.0303198,29.0504558 86.0133959,29.1416539 85.9361244,29.289221 C85.8582554,29.5099375 85.8428168,29.5412992 85.5866879,29.9631253 Z M71.4250879,19.0720667 C70.6041122,19.4387783 70.2508426,19.8736797 70.0846376,20.6164827 C69.8329435,21.7343969 70.0742379,23.409066 70.9295682,25.3350354 C71.2357007,26.0211253 72.2558895,26.6636553 74.1354789,26.9712511 C75.8584249,27.2555856 77.8275563,27.1166176 79.3920738,26.6727785 C79.3692136,26.6201503 79.3456363,26.5662937 79.3213317,26.5112031 C79.2170257,26.2743329 79.100949,26.018975 78.9432531,25.6780858 C78.8839031,25.5497895 78.5890882,24.9156776 78.4821062,24.6840153 C77.8241971,23.277045 77.7355929,23.0857801 77.4451198,22.4320211 C76.0422684,19.2851346 73.5096874,18.1450544 71.4250879,19.0720667 Z" id="Path" fill="#AEB5C0" fill-rule="nonzero"></path>
                    </g>
                    <g id="Clipped" transform="translate(107.500000, 548.500000) scale(-1, 1) translate(-107.500000, -548.500000) translate(0.000000, 492.000000)">
                        <g id="Group" transform="translate(0.000000, 21.000000)">
                            <mask id="mask-6" fill="white">
                                <use xlink:href="#path-5"></use>
                            </mask>
                            <use id="Path" fill="#D0D4DB" fill-rule="nonzero" xlink:href="#path-5"></use>
                            <path d="M90.534,27.04 C90.348,24.58 87.453,23.39 85.588,24.99 L74.995,34.08 C74.252,34.72 73.243,34.96 72.293,34.71 L58.627,31.2 C56.198,30.57 54.119,33.03 55.138,35.32 L60.746,47.94 C61.154,48.86 61.075,49.93 60.535,50.77 L53.168,62.35 C51.837,64.44 53.472,67.15 55.942,66.95 L70.098,65.8 C71.061,65.72 72.002,66.11 72.627,66.85 L81.825,77.67 C83.429,79.56 86.502,78.8 87.039,76.38 L90.015,62.98 C90.233,62 90.928,61.2 91.866,60.83 L104.759,55.87 C107.1,54.97 107.367,51.77 105.207,50.49 L93.057,43.31 C92.213,42.82 91.665,41.94 91.591,40.96 L90.534,27.04 Z" id="Path" fill="#E4E9F1" fill-rule="nonzero" mask="url(#mask-6)"></path>
                            <path d="M42.665,11 C30.665,10.2 20.665,3.67 16.665,0 C12.665,4 2.765,15 5.165,19 C8.165,24 31.165,28 41.165,28 C51.165,28 57.665,12 42.665,11 Z" id="Path" fill="#AEB5C0" fill-rule="nonzero" mask="url(#mask-6)"></path>
                            <path d="M170.021,31.02 C182.969,23.7 177.891,38.2 189.526,44.36 L214.165,91.59 L18.081,91.59 C13.29,84.74 -9.458,66.5 5.165,66.5 C37.165,66.5 82.165,71.5 101.665,72.5 C120.148,73.45 176.272,74.92 173.165,58.5 C169.572,39.51 158.214,37.69 170.021,31.02 Z" id="Path" fill="#AEB5C0" fill-rule="nonzero" mask="url(#mask-6)"></path>
                        </g>
                        <path d="M96.4228784,45.4073397 C94.6200183,47.7613236 96.8585762,51.0534914 99.7105271,50.242368 L121.510994,44.0420972 L116.701786,48.8136821 C115.494316,50.011706 115.486658,51.9617441 116.684682,53.1692142 C117.882706,54.3766842 119.832744,54.3843418 121.040214,53.1863179 L134.334214,39.9963179 C136.59338,37.7548261 134.383546,33.9770321 131.322473,34.847632 L106.962939,41.7757273 L112.939122,33.9726603 C114.694092,31.6812063 112.616015,28.4512728 109.803252,29.0986098 L87.9608101,34.1254898 C88.276373,33.9209047 88.6078754,33.7128253 88.9553445,33.5013853 C89.9150657,32.9173808 93.2853774,31.0036853 93.8976154,30.6312556 C95.3508178,29.7472601 95.8122511,27.8525869 94.9282556,26.3993846 C94.0442601,24.9461822 92.1495869,24.4847489 90.6963846,25.3687444 C90.1898619,25.6768665 86.819013,27.590867 85.7533222,28.2393555 C80.138293,31.6561831 77.08515,34.7549605 77.08515,39.08 C77.08515,41.0598528 78.9263326,42.5254312 80.8557482,42.0813902 L102.8462,37.0204468 L96.4228784,45.4073397 Z" id="Path" fill="#AEB5C0" fill-rule="nonzero"></path>
                        <path d="M83.96815,15.91 C83.96815,16.7884541 83.9580201,17.569632 83.9336647,18.8848686 L83.9286842,19.1526402 L83.92815,19.25 C83.8989179,20.7906204 83.8915714,21.3161762 83.8941687,22.0607436 C83.8999692,24.1375759 84.0188505,25.5708178 84.3275605,26.7500106 C84.6823198,28.1054586 85.2909346,29.0694737 86.2317665,29.725868 C87.2468392,30.4382138 88.6842592,30.78985 90.641,30.78985 C94.7214225,30.78985 99.5847442,29.2747272 103.371005,26.7535152 C107.644037,23.9081553 110.14685,20.1210481 110.14685,15.91 C110.14685,11.3517373 109.038071,7.38318107 106.963697,4.55744885 C104.803012,1.60460112 101.671847,0.00015 97.827,0.00015 C89.9347145,0.00015 83.96815,6.78620568 83.96815,15.91 Z M90.053838,22.0413971 C90.0514551,21.358083 90.058488,20.8549578 90.0873158,19.3073598 L90.08785,19.21 C90.0898017,19.1339752 90.0898017,19.1339752 90.0923088,18.9989138 C90.1173214,17.6481915 90.12785,16.8362652 90.12785,15.91 C90.12785,10.0243283 93.5256498,6.15985 97.827,6.15985 C99.6982633,6.15985 100.986683,6.82005354 101.995495,8.19872017 C103.233591,9.88527167 103.98715,12.5824203 103.98715,15.91 C103.98715,17.8144477 102.655308,19.8297108 99.956989,21.6264888 C97.167638,23.4838742 93.488261,24.63015 90.641,24.63015 C90.4704091,24.63015 90.3167558,24.626063 90.1795932,24.6187189 C90.1007729,24.0322121 90.0570588,23.1944417 90.053838,22.0413971 Z" id="Path" fill="#AEB5C0" fill-rule="nonzero"></path>
                        <path d="M85.5866879,29.9631253 L85.5945901,29.9683934 C85.1094853,30.6960506 84.2797598,31.334301 82.9788456,31.9144025 C80.2086611,33.1455956 76.454954,33.5970437 73.136602,33.0494196 C69.385426,32.4355433 66.5582391,30.654939 65.3022445,27.8400511 C63.9404589,24.7737015 63.5089847,21.7791169 64.0744658,19.2675117 C64.6630766,16.6368492 66.3084281,14.6112985 68.917559,13.4458622 C74.2648246,11.0679448 80.3448778,13.8056877 83.0722102,19.9264751 L83.0735494,19.929485 C83.3420216,20.5337387 83.4247342,20.7122334 84.0855814,22.1261383 L84.0815481,22.1175655 C84.1676714,22.3038511 84.4700923,22.954313 84.5337469,23.0919142 C84.7060123,23.4642982 84.8364428,23.7512331 84.9578096,24.0268487 C85.5687308,25.4116036 85.9175608,26.413465 86.063169,27.303413 C86.1419527,27.7958112 86.1522389,28.2389081 86.095104,28.6470146 L86.0650414,28.8240083 C86.0584045,28.8600299 86.0540635,28.8835905 86.0471088,28.9127359 C86.0303198,29.0504558 86.0133959,29.1416539 85.9361244,29.289221 C85.8582554,29.5099375 85.8428168,29.5412992 85.5866879,29.9631253 Z M71.4250879,19.0720667 C70.6041122,19.4387783 70.2508426,19.8736797 70.0846376,20.6164827 C69.8329435,21.7343969 70.0742379,23.409066 70.9295682,25.3350354 C71.2357007,26.0211253 72.2558895,26.6636553 74.1354789,26.9712511 C75.8584249,27.2555856 77.8275563,27.1166176 79.3920738,26.6727785 C79.3692136,26.6201503 79.3456363,26.5662937 79.3213317,26.5112031 C79.2170257,26.2743329 79.100949,26.018975 78.9432531,25.6780858 C78.8839031,25.5497895 78.5890882,24.9156776 78.4821062,24.6840153 C77.8241971,23.277045 77.7355929,23.0857801 77.4451198,22.4320211 C76.0422684,19.2851346 73.5096874,18.1450544 71.4250879,19.0720667 Z" id="Path" fill="#AEB5C0" fill-rule="nonzero"></path>
                    </g>
                </g>
                <g id="upper-limb" transform="translate(0.775799, 340.000000)">
                    <rect id="Rectangle" fill="#61401B" fill-rule="nonzero" transform="translate(273.961218, 94.242508) rotate(-7.995712) translate(-273.961218, -94.242508) " x="121.900735" y="21.2135013" width="304.120965" height="146.058014" rx="73.029"></rect>
                    <path d="M298.224201,191.749 L375.224201,128.749" id="Path" stroke="#9DB7C9" stroke-width="11"></path>
                    <path d="M46.2244012,192 C46.2244012,205.166151 46.494174,199.667251 43.0637246,262.932077 C39.9189583,320.928295 38.9011571,360.939796 40.5180392,403.05035 C42.8414368,463.5616 50.8267309,514.726543 66.5541542,556.922378 C73.6909863,576.070116 94.9988405,585.806879 114.146579,578.670047 C133.294317,571.533215 143.03108,550.225361 135.894248,531.077622 C123.367313,497.468526 116.511099,453.538045 114.463552,400.211129 C112.955452,360.93373 113.924878,322.823918 116.955176,266.938741 C117.131544,263.686142 117.311525,260.415454 117.552318,256.074668 C117.620796,254.840199 117.880378,250.167433 117.846137,250.784017 C117.963491,248.670818 118.049962,247.110339 118.133723,245.592606 C118.590535,237.315225 118.903122,231.434275 119.175283,225.88669 C119.876125,211.601119 120.224401,200.979504 120.224401,192 C120.224401,171.565464 103.658937,155 83.2244012,155 C62.7898655,155 46.2244012,171.565464 46.2244012,192 Z" id="Path" fill="#F6DDD6" fill-rule="nonzero"></path>
                    <path d="M324.724201,186 C324.724201,216.304984 341.376326,243.056763 367.561627,262.090961 C390.083395,278.462122 418.911654,288.44987 447.577554,289.645913 C480.444195,291.017225 511.537213,280.932759 534.868338,258.76659 C560.459117,234.453594 573.724201,198.562166 573.724201,154 C573.724201,132.184752 556.039449,114.5 534.224201,114.5 C512.408954,114.5 494.724201,132.184752 494.724201,154 C494.724201,178.178075 489.165616,193.217976 480.455065,201.493597 C473.664317,207.945274 463.501008,211.241562 450.870848,210.714587 C437.713091,210.165599 423.90675,205.382297 414.011776,198.189602 C409.844133,195.160126 406.806394,192.010345 405.062928,189.209452 C404.457059,188.236119 404.074872,187.412387 403.871332,186.753969 C403.759316,186.391612 403.724201,186.165444 403.724201,186 C403.724201,164.184752 386.039449,146.5 364.224201,146.5 C342.408954,146.5 324.724201,164.184752 324.724201,186 Z" id="Path" fill="#F6DDD6" fill-rule="nonzero"></path>
                    <path d="M115.224201,331.5 L168.224201,175.749 L192.224201,102.749 L237.224201,112.749 L321.224201,102.749 L418.224201,348 C418.224201,348 418.224201,358.5 411.724201,364 C405.224201,369.5 382.224201,409 382.224201,409 C382.224201,409 274.224201,425 249.224201,425 C224.224201,425 199.224201,420 199.224201,420 L149.224201,401.749 C149.224201,401.749 124.724201,364.5 118.724201,356 C112.724201,347.5 115.224201,331.5 115.224201,331.5 Z" id="Path" fill="#0A0A08" fill-rule="nonzero"></path>
                    <rect id="Rectangle" fill="#DBC0B8" fill-rule="nonzero" x="209.224201" y="65" width="83" height="117" rx="41.5"></rect>
                    <path d="M188.224201,239.749 L105.224201,412 C105.224201,412 28.2242012,398 0.224201237,372 C0.224201237,372 21.7767012,294 32.2243012,219.749 C42.6718012,145.498 105.224201,122 105.224201,122 L170.224201,109.749 L188.224201,239.749 Z" id="Path" fill="#657792" fill-rule="nonzero"></path>
                    <path d="M0.872101237,380.593 C-4.24456876,361.004 14.0026012,343.342 33.4144012,349.093 L84.9714012,364.37 C92.7992012,366.689 99.3442012,372.099 103.095201,379.351 L124.908201,421.522 C126.441201,424.486 127.469201,427.686 127.949201,430.99 L139.887201,513.135 C141.374201,523.367 134.817201,533.045 124.764201,535.459 L65.3123012,549.732 C54.7225012,552.274 44.0451012,545.876 41.2927012,535.339 L0.872101237,380.593 Z" id="Path" fill="#657692" fill-rule="nonzero"></path>
                    <path d="M89.0576012,486.25 L41.5571012,502.692 C33.0147012,505.649 28.3675012,514.859 31.0639012,523.487 C33.8852012,532.515 43.6257012,537.409 52.5535012,534.285 L99.9972012,517.679 C108.872201,514.573 113.430201,504.782 110.035201,496.013 C106.802201,487.661 97.5212012,483.32 89.0576012,486.25 Z" id="Path" fill="#8A9BB6" fill-rule="nonzero"></path>
                    <circle id="Oval" fill="#2E3A4D" fill-rule="nonzero" cx="95.7242012" cy="500.5" r="9.5"></circle>
                    <polygon id="Path" fill="#576985" fill-rule="nonzero" points="111.224201 352 54.2242012 319 41.2242012 346"></polygon>
                    <polygon id="Path" fill="#576985" fill-rule="nonzero" points="97.2242012 353 31.8346012 360.686 42.2247012 381 97.2242012 368"></polygon>
                    <path d="M88.2158012,199.814 C86.0412012,151.975 124.240201,112 172.129201,112 L189.911201,112 C198.674201,112 206.675201,116.979 210.546201,124.841 L236.224201,177 C236.224201,177 227.224201,253 227.224201,310 C227.224201,355.478 219.267201,444.879 216.050201,479.164 C215.410201,485.985 208.250201,490.057 202.013201,487.222 L89.3442012,436.009 C85.3977012,434.215 83.0564012,430.082 83.5469012,425.774 L94.2242012,332 L88.2158012,199.814 Z" id="Path" fill="#7B899F" fill-rule="nonzero"></path>
                    <path d="M115.224201,290 L115.224201,236 L206.224201,226 C201.224201,250 201.224201,284 201.224201,301 C134.224201,328 140.224201,320 115.224201,290 Z" id="Path" fill="#576985" fill-rule="nonzero"></path>
                    <polygon id="Path" fill="#8A9BB6" fill-rule="nonzero" points="205.224201 226 111.224201 219 105.224201 241 143.224201 264 194.224201 246"></polygon>
                    <path d="M208.360201,489.746 L84.1537012,435.984 C82.1200012,435.104 80.9083012,432.99 81.1766012,430.791 L85.7242012,393.5 L219.224201,441 L215.328201,485.592 C215.031201,488.991 211.492201,491.101 208.360201,489.746 Z" id="Path" fill="#576985" fill-rule="nonzero"></path>
                    <polygon id="Path" fill="#576985" fill-rule="nonzero" points="241.224201 184 200.724201 93 158.724201 105.5 163.224201 208"></polygon>
                    <path d="M313.378201,240.749 C313.378201,240.749 304.224201,412 408.224201,412 C512.224201,412 500.224201,366 512.224201,336 C512.224201,336 511.064201,271.251 468.221201,210 C425.378201,148.749 396.378201,123 396.378201,123 L331.378201,110.749 L313.378201,240.749 Z" id="Path" fill="#546277" fill-rule="nonzero"></path>
                    <path d="M410.534201,203.345 C414.227201,154.593 375.666201,113 326.774201,113 L311.691201,113 C302.928201,113 294.927201,117.979 291.056201,125.841 L265.378201,178 C265.378201,178 267.378201,249 265.378201,311 C263.766201,360.987 278.303201,446.074 283.997201,477.171 C285.126201,483.339 291.610201,486.836 297.428201,484.499 L401.639201,442.644 C405.583201,441.06 408.094201,437.157 407.902201,432.912 L402.378201,311 L410.534201,203.345 Z" id="Path" fill="#7B899F" fill-rule="nonzero"></path>
                    <path d="M387.377201,290 L387.377201,236 L296.377201,226 C301.377201,250 301.377201,284 301.377201,301 C368.377201,328 362.377201,320 387.377201,290 Z" id="Path" fill="#576985" fill-rule="nonzero"></path>
                    <polygon id="Path" fill="#8A9BB6" fill-rule="nonzero" points="297.377201 226 391.377201 219 397.377201 241 359.377201 264 308.377201 246"></polygon>
                    <path d="M290.963201,489.773 L406.860201,444.805 C408.868201,444.026 410.151201,442.048 410.045201,439.897 L408.223201,403 L277.223201,443.5 L284.221201,485.925 C284.738201,489.057 288.004201,490.921 290.963201,489.773 Z" id="Path" fill="#576985" fill-rule="nonzero"></path>
                    <polygon id="Path" fill="#576985" fill-rule="nonzero" points="260.376201 185 300.876201 94 342.876201 106.5 338.376201 209"></polygon>
                    <path d="M458.209201,406.357 C443.610201,408.563 433.104201,393.99 424.981201,381.66 C410.703201,359.988 404.566201,342.86 405.225201,321.431 C406.121201,292.325 421.406201,265.989 437.995201,242.056 L439.804201,239.446 L494.895201,170.758 C501.363201,162.693 512.913201,160.887 521.535201,166.594 L575.316201,202.19 C583.212201,207.417 586.361201,217.465 582.859201,226.263 L568.005201,263.591 C567.214201,265.578 566.214201,267.474 565.020201,269.247 L524.988201,342 C515.555201,356.019 485.525201,402.231 458.209201,406.357 Z" id="Path" fill="#657692" fill-rule="nonzero"></path>
                    <path d="M474.577201,210.738 L516.538201,238.413 C524.084201,243.39 534.220201,241.471 539.423201,234.079 C544.868201,226.345 542.822201,215.638 534.908201,210.457 L492.852201,182.926 C484.985201,177.776 474.442201,180.121 469.552201,188.152 C464.894201,195.801 467.101201,205.807 474.577201,210.738 Z" id="Path" fill="#8A9BB6" fill-rule="nonzero"></path>
                    <circle id="Oval" fill="#2E3A4D" fill-rule="nonzero" cx="283.724201" cy="258.5" r="9.5"></circle>
                    <circle id="Oval" fill="#2E3A4D" fill-rule="nonzero" cx="283.724201" cy="328.5" r="9.5"></circle>
                    <circle id="Oval" fill="#2E3A4D" fill-rule="nonzero" cx="291.724201" cy="392.5" r="9.5"></circle>
                    <circle id="Oval" fill="#2E3A4D" fill-rule="nonzero" cx="302.724201" cy="459.5" r="9.5"></circle>
                </g>
                <g id="head" transform="translate(54.000000, 0.000000)">
                    <path d="M37.505,162.894 C37.505,81.5071 107.251,15.53 193.288,15.53 C279.325,15.53 349.071,81.5071 349.071,162.894 L339.071,309.465 C326.508,404.539 261.129,456.829 193.288,456.829 C125.447,456.829 56.718,393.447 47.505,309.465 L37.505,162.894 Z" id="Path" fill="#F6DDD6" fill-rule="nonzero"></path>
                    <path d="M154,350.271 L154,363.967 C154,385.005 171.055,402.06 192.093,402.06 C213.132,402.06 230.187,385.005 230.187,363.967 L230.187,350.271 L154,350.271 Z" id="Path" fill="#393939"></path>
                    <g id="Group-5" transform="translate(154.000000, 343.749000)">
                        <mask id="mask-8" fill="white">
                            <use xlink:href="#path-7"></use>
                        </mask>
                        <g id="Path"></g>
                        <ellipse id="Oval" fill="#FF6C6C" fill-rule="nonzero" mask="url(#mask-8)" cx="38.093" cy="54.762" rx="22.9723" ry="12.511"></ellipse>
                        <rect id="Rectangle" fill="#FFFFFF" fill-rule="nonzero" mask="url(#mask-8)" x="0" y="4.251" width="76.1865" height="18"></rect>
                    </g>
                    <path d="M114.342574,217.888511 C114.550531,217.801867 115.033681,217.615849 115.757235,217.362877 C117.011886,216.924221 118.440193,216.481785 120.006373,216.067491 C124.461833,214.888912 129.072525,214.184 133.534,214.184 C137.977769,214.184 142.436141,214.883043 146.657803,216.050093 C148.135454,216.45858 149.470381,216.894078 150.632296,217.324858 C151.295754,217.570836 151.729982,217.749212 151.905505,217.82767 C154.930739,219.179937 158.479404,217.823729 159.83167,214.798495 C161.183937,211.773261 159.827729,208.224596 156.802495,206.87233 C156.395518,206.690413 155.720528,206.413133 154.803829,206.073267 C153.33215,205.527641 151.674109,204.986733 149.855197,204.483907 C144.658109,203.047207 139.152731,202.184 133.534,202.184 C127.932975,202.184 122.325292,203.041338 116.937627,204.466509 C115.058713,204.963528 113.33491,205.497498 111.796827,206.035248 C110.844741,206.36812 110.144407,206.637758 109.727426,206.811489 C106.668591,208.085927 105.222051,211.598739 106.496489,214.657574 C107.770927,217.716409 111.283739,219.162949 114.342574,217.888511 Z" id="Path" fill="#46413D" fill-rule="nonzero"></path>
                    <path d="M232.342574,217.888511 C232.550531,217.801867 233.033681,217.615849 233.757235,217.362877 C235.011886,216.924221 236.440193,216.481785 238.006373,216.067491 C242.461833,214.888912 247.072525,214.184 251.534,214.184 C255.977769,214.184 260.436141,214.883043 264.657803,216.050093 C266.135454,216.45858 267.470381,216.894078 268.632296,217.324858 C269.295754,217.570836 269.729982,217.749212 269.905505,217.82767 C272.930739,219.179937 276.479404,217.823729 277.83167,214.798495 C279.183937,211.773261 277.827729,208.224596 274.802495,206.87233 C274.395518,206.690413 273.720528,206.413133 272.803829,206.073267 C271.33215,205.527641 269.674109,204.986733 267.855197,204.483907 C262.658109,203.047207 257.152731,202.184 251.534,202.184 C245.932975,202.184 240.325292,203.041338 234.937627,204.466509 C233.058713,204.963528 231.33491,205.497498 229.796827,206.035248 C228.844741,206.36812 228.144407,206.637758 227.727426,206.811489 C224.668591,208.085927 223.222051,211.598739 224.496489,214.657574 C225.770927,217.716409 229.283739,219.162949 232.342574,217.888511 Z" id="Path" fill="#46413D" fill-rule="nonzero"></path>
                    <path d="M113.433698,255.502675 L140.369698,251.244675 C143.097253,250.813507 144.958843,248.252857 144.527675,245.525302 C144.096507,242.797747 141.535857,240.936157 138.808302,241.367325 L111.872302,245.625325 C109.144747,246.056493 107.283157,248.617143 107.714325,251.344698 C108.145493,254.072253 110.706143,255.933843 113.433698,255.502675 Z" id="Path" fill="#000000" fill-rule="nonzero"></path>
                    <path d="M241.339302,248.635675 L268.275302,252.893675 C271.002857,253.324843 273.563507,251.463253 273.994675,248.735698 C274.425843,246.008143 272.564253,243.447493 269.836698,243.016325 L242.900698,238.758325 C240.173143,238.327157 237.612493,240.188747 237.181325,242.916302 C236.750157,245.643857 238.611747,248.204507 241.339302,248.635675 Z" id="Path" fill="#000000" fill-rule="nonzero"></path>
                    <path d="M122.488,246.305 L122.488,275.083 C122.488,281.710417 127.860583,287.083 134.488,287.083 C141.115417,287.083 146.488,281.710417 146.488,275.083 L146.488,246.305 C146.488,239.677583 141.115417,234.305 134.488,234.305 C127.860583,234.305 122.488,239.677583 122.488,246.305 Z" id="Path" fill="#000000" fill-rule="nonzero"></path>
                    <path d="M236.314,243.696 L236.314,272.475 C236.314,279.102417 241.686583,284.475 248.314,284.475 C254.941417,284.475 260.314,279.102417 260.314,272.475 L260.314,243.696 C260.314,237.068583 254.941417,231.696 248.314,231.696 C241.686583,231.696 236.314,237.068583 236.314,243.696 Z" id="Path" fill="#000000" fill-rule="nonzero"></path>
                    <path d="M182.025827,274.26908 C181.69514,276.680307 181.321584,278.305749 179.550351,285.419996 C179.121451,287.142696 178.817072,288.392807 178.525096,289.646944 C176.364876,298.925755 175.69753,305.266734 177.106702,311.143147 C179.314537,320.35008 186.623139,325.655 197.398,325.655 L197.398,308.655 C196.272009,308.655 195.389586,308.549688 194.739082,308.374108 C194.346869,308.268244 194.122174,308.163787 194.003621,308.077736 C193.974242,308.056411 193.964718,308.046023 193.93275,307.993831 C193.838007,307.839154 193.733206,307.575804 193.638031,307.178911 C193.038449,304.678587 193.499026,300.302369 195.082309,293.501642 C195.350727,292.348694 195.637006,291.172921 196.046765,289.527105 C198.012999,281.629626 198.415971,279.876183 198.868173,276.57892 L182.025827,274.26908 Z" id="Path" fill="#EBBAAA" fill-rule="nonzero"></path>
                    <path d="M298.785,311.719014 C298.353,315.226085 289.987,320.410014 280.741,318.073878 C271.495,315.736308 264.87,306.764399 265.302,303.257328 C265.733,299.748824 274.447,291.7429 283.693,294.079036 C292.939,296.415172 299.217,308.21051 298.785,311.719014 Z" id="Path" fill="#F2CACA" fill-rule="nonzero"></path>
                    <path d="M82.65,315.719014 C83.081,319.226085 91.447,324.410014 100.694,322.073878 C109.94,319.736308 116.565,310.764399 116.133,307.257328 C115.701,303.748824 106.988,295.7429 97.742,298.079036 C88.495,300.415172 82.218,312.21051 82.65,315.719014 Z" id="Path" fill="#F2CACA" fill-rule="nonzero"></path>
                    <path d="M25.0000243,506.45534 C21.8636017,495.587609 18.3864181,480.933642 14.0002,461.165 C-9.9999,353 -1.0224,196.063 36,103.165 C54,58 107,-1.13686838e-13 189,-1.13686838e-13 C226.5,9.5 201.71,78 189,78 C116,78 110,181 85,207.749 C66.9161237,227.098024 76.2988176,316.179058 91.3928476,394.826755 C96.506856,408.234652 100.079471,419.67309 105.967,427 C136.5,465 107.028,492.584 111.5,513.5 C109.115573,510.295403 107.097299,507.325903 105.395695,504.441263 C102.620994,513.753158 99.9070488,522.049605 101.5,529.5 C94.2089768,519.701087 90.3414546,512.100313 88.482783,502.402437 C89.7450276,520.591858 91.5608693,538.349831 93.787,548.764 C88.8863444,547.290252 76.5397384,539.420499 65.9044546,519.703572 C61.1404812,536.907085 59.5277486,555.194887 61.787,565.764 C56.819,564.27 44.199,556.203 33.4667,535.884 C27.4100785,524.417364 24.9993649,515.386931 25.0000239,506.45534 Z" id="Combined-Shape" fill="#82521A" fill-rule="nonzero"></path>
                    <path d="M175.696622,11.0649637 C167.622331,12.3793832 165.059898,12.8106914 161.872671,13.4196497 C157.240331,14.3047143 153.734318,15.168622 150.272948,16.3086083 C145.249668,17.9630021 140.33162,20.1715316 131.733868,24.5430226 C129.272348,25.7945726 128.291473,28.804611 129.543023,31.2661317 C130.794573,33.7276523 133.804611,34.7085273 136.266132,33.4569774 C144.446672,29.2976157 148.971931,27.2654745 153.401114,25.8067435 C156.409226,24.8160359 159.510504,24.0518578 163.749345,23.241976 C166.809266,22.6573412 169.334244,22.2323372 177.303378,20.9350363 C180.028923,20.4913429 181.87873,17.9221673 181.435036,15.196622 C180.991343,12.4710767 178.422167,10.6212702 175.696622,11.0649637 Z" id="Path" fill="#AD6C21" fill-rule="nonzero"></path>
                    <path d="M178.15599,29.5118484 C164.140568,30.4784291 157.608843,32.8616261 144.868227,40.7486743 C142.520285,42.2021624 141.795186,45.2838307 143.248674,47.6317731 C144.702162,49.9797154 147.783831,50.7048139 150.131773,49.2513257 C161.58103,42.1636904 166.599589,40.3325945 178.84401,39.4881516 C181.598891,39.2981599 183.678143,36.9108696 183.488152,34.1559895 C183.29816,31.4011095 180.91087,29.3218566 178.15599,29.5118484 Z" id="Path" fill="#AD6C21" fill-rule="nonzero"></path>
                    <path d="M370.789018,505.419196 C370.98146,514.691962 368.623852,523.973821 362.333,535.884 C351.601,556.203 338.981,564.27 334.012,565.764 C336.288241,555.117789 334.635543,536.639868 329.790538,519.327267 C319.109065,539.320486 306.636716,547.280912 301.705,548.764 C303.931045,538.350231 305.746833,520.593224 307.009071,502.404536 C305.150453,512.10141 301.283129,519.701794 293.992,529.5 C298.464,508.584 257.966,479.5 288.5,441.5 C291.016427,438.368082 293.650448,434.558444 296.46389,430.205832 C313.742857,347.605929 324.813311,238.254994 304,201 C272,170 280.492,78 207.492,78 C194.783,78 165.5,9 207.492,-1.13686838e-13 C289.492,-1.13686838e-13 341.492,58 359.492,103.165 C396.515,196.063 405.492,353 381.492,461.165 C377.24375,480.312216 373.848186,494.661262 370.789018,505.419196 Z" id="Combined-Shape" fill="#82521A" fill-rule="nonzero"></path>
                </g>
            </g>
        </g>
    </g>
</svg>