<?xml version="1.0" encoding="UTF-8"?>
<svg width="464px" height="1383px" viewBox="0 0 464 1383" version="1.1" xmlns="http://www.w3.org/2000/svg" xmlns:xlink="http://www.w3.org/1999/xlink">
    <!-- Generator: Sketch 55.2 (78181) - https://sketchapp.com -->
    <title>gee_me_041</title>
    <desc>Created with Sketch.</desc>
    <defs>
        <path d="M76.625,0 C76.96,2.046 77.135,4.146 77.135,6.287 L77.135,20.47 C77.135,41.77 59.868,59.037 38.567,59.037 C17.267,59.037 0,41.77 0,20.47 L0,6.287 C0,4.146 0.174,2.046 0.51,0 L76.625,0 Z" id="path-1"></path>
    </defs>
    <g id="GEE!-ME" stroke="none" stroke-width="1" fill="none" fill-rule="evenodd">
        <g id="gee_me_041" transform="translate(-369.000000, -109.000000)">
            <g transform="translate(368.000000, 109.000000)">
                <g id="lower-limb" transform="translate(22.627255, 843.000000)" fill-rule="nonzero">
                    <polygon id="Path" fill="#F6DDD6" points="322.865131 178.836015 324.365131 489.836015 256.365922 490.163985 254.865922 179.163985"></polygon>
                    <polygon id="Path" fill="#F6DDD6" points="121.865561 136.951429 189.865492 137.048571 189.365492 487.048571 121.365561 486.951429"></polygon>
                    <path d="M12.0508263,532.05 C11.8517263,509.24 14.9783263,505.31 34.9283263,495.98 C54.8783263,486.66 73.6705263,473.71 108.185526,458.35 C108.185526,458.35 112.727526,457.49 120.122526,461.47 C126.433526,464.86 134.538526,473.18 146.752526,473.07 C160.014526,472.96 171.833526,470.17 179.176526,466.34 C182.349526,457.7 189.387526,457.64 189.387526,457.64 C189.387526,457.64 199.295526,476.38 199.459526,495.21 C199.624526,514.05 199.607104,530.42 199.607104,530.42 L12.0508263,532.05 Z" id="Path" fill="#161616"></path>
                    <path d="M150.465526,483.8 C157.451601,483.8 163.149529,486.110827 169.509574,490.553875 L170.243474,491.075486 C171.44058,491.947812 175.089011,494.683321 176.000848,495.295721 C177.420582,496.249229 178.353629,496.672088 178.876498,496.716129 L178.964526,496.72 L178.964526,503.72 C176.827382,503.72 174.857913,502.911222 172.460911,501.347062 L172.098079,501.106779 C170.930984,500.322945 166.665689,497.118866 165.952458,496.610931 C160.464809,492.702849 155.920358,490.8 150.465526,490.8 C146.146896,490.8 142.653721,491.9448 138.131238,494.57959 L137.642664,494.867607 C136.26591,495.68846 131.25247,498.908296 130.511747,499.36762 C121.774824,504.785401 114.132463,507.697304 103.279306,508.675816 C90.8643423,509.796925 82.7912863,507.536673 75.0834533,502.32728 L74.4410741,501.887018 C74.2236786,501.736039 74.001436,501.579787 73.7696121,501.41512 L71.912675,500.075473 L76.0163775,494.404527 L77.4919243,495.471834 L78.1290441,495.924403 C78.4334801,496.138429 78.7199814,496.336245 79.0031772,496.527645 C85.4149096,500.861059 91.8951322,502.675358 102.650244,501.704139 C112.074118,500.85449 118.627753,498.422678 126.262133,493.763474 L127.093181,493.248416 C128.303262,492.482299 132.415435,489.846841 133.916683,488.939957 L134.0579,488.855164 C139.813785,485.423366 144.556059,483.8 150.465526,483.8 Z" id="Path" fill="#FFFFFF"></path>
                    <path d="M100.979831,454.749287 C102.344368,454.138629 103.94558,454.749768 104.556239,456.114305 C105.330245,457.843847 105.8891,459.742407 106.271363,461.80726 L106.398234,462.527956 C106.853487,465.259812 106.958366,467.692791 106.958366,471.74 C106.958366,473.635503 105.06947,474.92558 103.322982,474.282845 L103.164659,474.219053 L89.975,468.437 L92.7838352,478.556324 C93.3447371,480.577954 91.4984493,482.418221 89.5066924,481.903215 L89.3491874,481.857624 L76.1,477.61 L76.1003663,489.5 C76.1003663,491.490881 74.0341895,492.78081 72.2621946,491.959375 L72.1110849,491.883763 L63.107,487.039 L63.1075663,495.96 C63.1075663,497.399578 61.9837802,498.576682 60.5656194,498.6619 L60.4007263,498.66684 C58.9611482,498.66684 57.7840444,497.543054 57.6988263,496.124893 L57.6938863,495.96 L57.6938863,482.51 C57.6938863,480.519119 59.760063,479.22919 61.5320579,480.050625 L61.6831676,480.126237 L70.686,484.97 L70.6866863,473.9 C70.6866863,472.122852 72.3630637,470.844318 74.0560333,471.275291 L74.2198651,471.322376 L86.226,475.171 L83.2362173,464.393676 C82.6405309,462.246674 84.7406663,460.364481 86.7854671,461.131614 L86.931393,461.190947 L101.473,467.566 L101.457517,467.230183 C101.380071,465.725082 101.241322,464.453432 101.004534,463.105337 L100.948134,462.79274 C100.639661,461.126471 100.200406,459.634221 99.6148135,458.325695 C99.004155,456.961158 99.6152943,455.359946 100.979831,454.749287 Z" id="Path" fill="#FFFFFF"></path>
                    <path d="M19.6002263,497.73 C25.7210263,495.53 32.2031263,493.86 44.6306263,491.06 L39.3486263,506.17 L39.4989263,523.39 L4.12652625,523.690154 C2.68292625,523.71 0.10362625,521.79 1.33532625,514.03 C2.87482625,504.34 10.9031263,500.87 19.6002263,497.73 Z" id="Path" fill="#393A40"></path>
                    <path d="M175.464526,499.22 C179.935526,494.52 193.965526,489.28 198.965526,490.77 L199.964526,508.66 L199.963526,523.68 C171.197526,523.69 168.963526,523.69 168.963526,523.69 C170.502526,513.99 166.964526,508.17 175.464526,499.22 Z" id="Path" fill="#393A40"></path>
                    <path d="M200.384084,532.59 L200.172526,519.3 L122.369526,522.52 L40.5670263,521.76 L1.02052625,518.88 L0.0542262503,527.54 C-0.49197375,532.44 3.15272625,536.81 8.06932625,537.15 L40.7644263,539.39 L196.120526,536.99 C198.512526,536.95 200.421526,534.98 200.384084,532.59 Z" id="Path" fill="#D3D5E0"></path>
                    <polygon id="Path" fill="#000000" points="198.430564 522.570543 198.496488 524.569457 122.963647 527.06 40.396872 527.067803 2.89697197 524.577803 3.02948053 522.582197 40.463005 525.07 122.930564 525.060543"></polygon>
                    <path d="M424.776526,532.05 C424.975526,509.24 421.849526,505.31 401.899526,495.98 C381.949526,486.66 363.157526,473.71 328.642526,458.35 C328.642526,458.35 324.099526,457.49 316.704526,461.47 C310.394526,464.86 302.289526,473.18 290.075526,473.07 C276.812526,472.96 264.994526,470.17 257.651526,466.34 C254.478526,457.7 247.440526,457.64 247.440526,457.64 C247.440526,457.64 237.532526,476.38 237.367526,495.21 C237.203526,514.05 237.220943,530.42 237.220943,530.42 L424.776526,532.05 Z" id="Path" fill="#161616"></path>
                    <path d="M286.362526,483.8 C292.087322,483.8 296.716735,485.323491 302.233441,488.538725 L302.770152,488.855164 C304.267354,489.747831 309.354184,493.014801 310.00532,493.418572 C317.882318,498.303112 324.524084,500.833767 334.178306,501.704184 C344.93292,502.675358 351.413143,500.861059 357.824875,496.527645 L358.400009,496.133389 L359.90725,495.060214 L360.811675,494.404527 L364.915378,500.075473 L363.413954,501.161416 L362.717299,501.656202 C362.38216,501.891758 362.063252,502.111916 361.744599,502.32728 C354.036766,507.536673 345.96371,509.796925 333.549244,508.675861 C322.936782,507.71905 315.394475,504.913864 306.897193,499.725099 L305.872708,499.088106 C304.413634,498.162977 300.395263,495.588963 299.185389,494.867607 C294.422791,492.028031 290.835394,490.8 286.362526,490.8 C281.072993,490.8 276.6395,492.589272 271.371925,496.261172 L270.687558,496.746951 C269.646003,497.507164 266.086392,500.174969 264.856764,501.020518 L264.729973,501.106779 C262.28873,502.746345 260.30478,503.633197 258.182915,503.713941 L257.863526,503.72 L257.863526,496.72 C258.338403,496.72 259.218958,496.350114 260.5817,495.45851 L260.827204,495.295721 C261.774112,494.659767 265.672169,491.734248 266.711533,490.983329 L266.814958,490.909069 C273.379525,486.23405 279.192608,483.8 286.362526,483.8 Z" id="Path" fill="#FFFFFF"></path>
                    <path d="M332.270623,456.11473 C332.881047,454.750088 334.482154,454.138673 335.846796,454.749097 C337.211438,455.359521 337.822853,456.960628 337.212429,458.32527 C336.62708,459.633856 336.188007,461.126177 335.879663,462.79252 C335.6083,464.259006 335.453865,465.609177 335.370498,467.230093 L335.354,467.566 L349.89561,461.190969 C351.936221,460.296275 354.097715,462.107737 353.628837,464.2408 L353.590835,464.393676 L350.6,475.171 L362.608232,471.322361 C364.300536,470.779872 366.029765,471.985915 366.136189,473.729617 L366.141366,473.9 L366.141,484.97 L375.1451,480.126229 C376.898357,479.183008 379.013222,480.391435 379.129361,482.341103 L379.134366,482.51 L379.134366,495.96 C379.134366,497.454946 377.922473,498.66684 376.427526,498.66684 C374.987948,498.66684 373.810844,497.543054 373.725626,496.124893 L373.720686,495.96 L373.72,487.039 L364.716952,491.883771 C362.963695,492.826992 360.848831,491.618565 360.732691,489.668897 L360.727686,489.5 L360.727,477.61 L347.47782,481.857639 C345.479982,482.498071 343.568125,480.726068 344.003896,478.715508 L344.043217,478.556324 L346.851,468.437 L333.663443,474.219031 C331.927445,474.980169 329.987449,473.768228 329.874833,471.910616 L329.869686,471.74 L329.875581,470.234479 C329.905732,466.734958 330.061076,464.484034 330.556353,461.80748 C330.938425,459.742701 331.497001,457.844213 332.270623,456.11473 Z" id="Path" fill="#FFFFFF"></path>
                    <path d="M417.227526,497.73 C411.106526,495.53 404.624526,493.86 392.197526,491.06 L397.479526,506.17 L397.328526,523.39 L432.701526,523.690154 C434.144526,523.71 436.724526,521.79 435.492526,514.03 C433.952526,504.34 425.924526,500.87 417.227526,497.73 Z" id="Path" fill="#393A40"></path>
                    <path d="M261.363526,499.22 C256.892526,494.52 242.862526,489.28 237.862526,490.77 L236.863526,508.66 L236.864526,523.68 C265.629526,523.69 267.864526,523.69 267.864526,523.69 C266.324526,513.99 269.863526,508.17 261.363526,499.22 Z" id="Path" fill="#393A40"></path>
                    <path d="M236.443969,532.59 L236.655526,519.3 L314.458526,522.52 L396.260526,521.76 L435.807526,518.88 L436.773526,527.54 C437.319526,532.44 433.675526,536.81 428.758526,537.15 L396.063526,539.39 L240.707526,536.99 C238.315526,536.95 236.406526,534.98 236.443969,532.59 Z" id="Path" fill="#D3D5E0"></path>
                    <polygon id="Path" fill="#000000" points="238.397488 522.570543 313.864647 525.06 396.298272 525.072197 433.798272 522.582197 433.93078 524.577803 396.364405 527.07 313.831564 527.059457 238.331564 524.569457"></polygon>
                    <polygon id="Path" fill="#252424" points="211.365526 0 341.365526 0 332.365526 436 238.194526 436"></polygon>
                    <polygon id="Path" fill="#252424" points="213.365526 0 83.3655263 0 103.365526 436 197.536526 436"></polygon>
                </g>
                <g id="upper-limb" transform="translate(0.000000, 210.000000)" fill-rule="nonzero">
                    <path d="M274.327661,270.020584 C187.875182,343.203322 27.4778536,438.70047 14.2025817,445.5 C-6.29743833,456 2.14498167,358.951 6.20298167,339 C12.2032817,309.5 28.7015817,267 36.7017817,229.5 C42.2206817,203.631 59.2025817,65.667 65.7025817,9.5 L89.2027817,8.52651283e-14 L292.56356,196.759008 C305.194912,171.527588 318.706448,146.047963 323.699782,134.5 L381.200782,86 L404.700782,83 C405.700782,100.667 404.700782,140.992 404.700782,150.5 C404.700782,178.5 415.700782,217 419.200782,238 C422.700782,259 439.201782,365 356.201782,306.5 C339.086518,294.436857 292.842942,283.056273 274.327661,270.020584 Z" id="Combined-Shape" fill="#17100F"></path>
                    <path d="M234.991782,715 C298.504782,715 349.991782,691.495 349.991782,662.5 C349.991782,633.505 298.504782,610 234.991782,610 C171.478782,610 119.991782,633.505 119.991782,662.5 C119.991782,691.495 171.478782,715 234.991782,715 Z" id="Path" fill="#252424"></path>
                    <path d="M165.992782,608.967 L165.992782,255 L301.992782,255 L301.992782,608.967 C301.992782,608.967 254.317782,618 233.992782,618 C213.667782,618 165.992782,608.967 165.992782,608.967 Z" id="Path" fill="#FAF3EA"></path>
                    <path d="M193.992782,209 L208.501782,216.254 C224.548782,224.278 243.436782,224.278 259.483782,216.254 L273.992782,209 L273.992782,259 C273.992782,281.091 256.083782,299 233.992782,299 C211.901782,299 193.992782,281.091 193.992782,259 L193.992782,209 Z" id="Path" fill="#EADFD2"></path>
                    <polygon id="Path" fill="#EADFD2" points="166.992782 648 166.992782 589 302.992782 589 302.992782 648"></polygon>
                    <path d="M34.7574817,331.849 C41.1700817,284.005 85.5098817,250.674 133.251782,257.809 C179.983782,264.793 212.457782,307.993 206.180782,354.825 L177.199782,571.055 C170.786782,618.899 126.446782,652.231 78.7055817,645.096 C31.9736817,638.111 -0.50081833,594.911 5.77608167,548.079 L34.7574817,331.849 Z" id="Path" fill="#2B4166"></path>
                    <path d="M433.501782,315.312 C427.221782,267.35 382.819782,233.866 334.978782,241.016 C288.349782,247.984 255.896782,291.02 262.017782,337.767 L292.430782,570.025 C298.711782,617.988 343.113782,651.471 390.954782,644.322 C437.582782,637.353 470.035782,594.318 463.914782,547.57 L433.501782,315.312 Z" id="Path" fill="#2B4166"></path>
                    <path d="M55.8755817,781.144 L98.8237817,247.729 L191.492782,241 L223.992782,430.5 C215.402782,543.883 203.616782,799.18 203.616782,812.93 C203.616782,826.67 98.8237817,795.46 55.8755817,781.144 Z" id="Path" fill="#3C557C"></path>
                    <polygon id="Path" fill="#62789C" points="128.292782 598.237 88.4257817 677.032 76.1806817 661.44 116.457782 592.777"></polygon>
                    <polygon id="Path" fill="#62789C" points="224.492782 429.5 192.492782 229.5 121.992782 238.5 207.492782 426.5 215.492782 567"></polygon>
                    <path d="M413.203782,775.132 L370.492782,247.5 L272.992782,243.5 L245.492782,433 C254.082782,546.383 265.461782,793.17 265.461782,806.91 C265.461782,820.66 370.255782,789.448 413.203782,775.132 Z" id="Path" fill="#3C557C"></path>
                    <polygon id="Path" fill="#62789C" points="329.023782 597.237 368.890782 676.032 381.135782 660.44 340.858782 591.777"></polygon>
                    <path d="M245.492782,434 L274.992782,232 C274.992782,232 326.825782,237 338.492782,237 L268.992782,442.5 L254.992782,596 L245.492782,434 Z" id="Path" fill="#62789C"></path>
                    <path d="M335.623395,236.202499 C336.063843,234.893923 337.481706,234.190166 338.790282,234.630613 C340.046515,235.053443 340.745347,236.37706 340.409564,237.640017 L340.362168,237.797501 L271.452,442.53 L257.480197,581.250531 C257.347367,582.569342 256.212338,583.545065 254.906332,583.500189 L254.742251,583.487415 C253.42344,583.354585 252.447717,582.219556 252.494185,580.91355 L252.505367,580.749469 L266.533581,441.469338 L335.623395,236.202499 Z" id="Path" fill="#FFFFFF"></path>
                    <path d="M128.062222,235.679643 C129.290324,235.187123 130.678217,235.738062 131.244074,236.912721 L131.313139,237.06944 L208.464781,429.447561 L216.48853,566.854263 C216.569019,568.232627 215.516883,569.41526 214.138519,569.495749 C212.81529,569.573017 211.672445,568.60646 211.511924,567.309523 L211.497033,567.145737 L203.521,430.553 L126.672424,238.93056 C126.179904,237.702458 126.730843,236.314565 127.905503,235.748708 L128.062222,235.679643 Z" id="Path" fill="#FFFFFF"></path>
                    <circle id="Oval" fill="#536F9D" cx="193.739782" cy="450.874" r="9.87807"></circle>
                    <circle id="Oval" fill="#536F9D" cx="187.726782" cy="584.872" r="9.87807"></circle>
                    <circle id="Oval" fill="#536F9D" cx="192.020782" cy="517.873" r="9.87807"></circle>
                    <circle id="Oval" fill="#536F9D" cx="179.995782" cy="649.294" r="9.87807"></circle>
                    <circle id="Oval" fill="#536F9D" cx="173.983782" cy="705.127" r="9.87807"></circle>
                </g>
                <g id="head" transform="translate(37.992782, 0.000000)">
                    <rect id="Rectangle" fill="#EBBAAA" fill-rule="nonzero" x="156" y="383" width="80" height="116" rx="40"></rect>
                    <path d="M354,290 C376.091,290 394,272.091 394,250 C394,227.909 376.091,210 354,210 C331.909,210 314,227.909 314,250 C314,272.091 331.909,290 354,290 Z" id="Path" fill="#DE8E7C" fill-rule="nonzero" opacity="0.5"></path>
                    <path d="M40,290 C17.9086,290 0,272.091 0,250 C0,227.909 17.9086,210 40,210 C62.091,210 80,227.909 80,250 C80,272.091 62.091,290 40,290 Z" id="Path" fill="#DE8E7C" fill-rule="nonzero" opacity="0.5"></path>
                    <path d="M45,165 C45,82.1573 112.157,15 195,15 C277.843,15 345,82.1573 345,165 L345,271 C345,353.843 277.843,421 195,421 C112.157,421 45,353.843 45,271 L45,165 Z" id="Path" fill="#F4D5CC" fill-rule="nonzero"></path>
                    <path d="M308,189 L228,189 C220.267861,189 214,195.267861 214,203 L214,228 C214,257.823139 238.176861,282 268,282 L293,282 C309.016139,282 322,269.016139 322,253 L322,203 C322,195.267861 315.732139,189 308,189 Z M228,197 L308,197 C311.313861,197 314,199.686139 314,203 L314,253 C314,264.597861 304.597861,274 293,274 L268,274 C242.595139,274 222,253.404861 222,228 L222,203 C222,199.686139 224.686139,197 228,197 Z" id="Path" fill-opacity="0.75" fill="#FFFFFF" fill-rule="nonzero"></path>
                    <path d="M164,189 L84,189 C76.267861,189 70,195.267861 70,203 L70,253 C70,269.016139 82.983861,282 99,282 L124,282 C153.823139,282 178,257.823139 178,228 L178,203 C178,195.267861 171.732139,189 164,189 Z M84,197 L164,197 C167.313861,197 170,199.686139 170,203 L170,228 C170,253.404861 149.404861,274 124,274 L99,274 C87.402139,274 78,264.597861 78,253 L78,203 C78,199.686139 80.686139,197 84,197 Z" id="Path" fill-opacity="0.75" fill="#FFFFFF" fill-rule="nonzero"></path>
                    <rect id="Rectangle" fill-opacity="0.75" fill="#FFFFFF" fill-rule="nonzero" x="171" y="203" width="50" height="8"></rect>
                    <path d="M257.537,203.407 C264.062457,203.407 269.371393,208.615544 269.5332,215.102025 L269.537,215.407 L269.537,243.297 C269.537,249.924417 264.164417,255.297 257.537,255.297 C251.011543,255.297 245.702607,250.088456 245.5408,243.601975 L245.537,243.297 L245.537,215.407 C245.537,208.779583 250.909583,203.407 257.537,203.407 Z" id="Path" fill="#000000" fill-rule="nonzero"></path>
                    <path d="M132.46,203.407 C138.985457,203.407 144.294393,208.615544 144.4562,215.102025 L144.46,215.407 L144.46,243.297 C144.46,249.924417 139.087417,255.297 132.46,255.297 C125.934543,255.297 120.625607,250.088456 120.4638,243.601975 L120.46,243.297 L120.46,215.407 C120.46,208.779583 125.832583,203.407 132.46,203.407 Z" id="Path" fill="#000000" fill-rule="nonzero"></path>
                    <path d="M231.135,324.603 L231.135,338.469 C231.135,359.769 213.868,377.037 192.567,377.037 C171.267,377.037 154,359.769 154,338.469 L154,324.603 L231.135,324.603 Z" id="Path" fill="#393939"></path>
                    <g id="Clipped" transform="translate(154.000000, 318.000000)">
                        <mask id="mask-2" fill="white">
                            <use xlink:href="#path-1"></use>
                        </mask>
                        <g id="Path"></g>
                        <g id="Group" mask="url(#mask-2)" fill-rule="nonzero">
                            <g transform="translate(0.000000, 4.000000)">
                                <ellipse id="Oval" fill="#FF6C6C" transform="translate(36.510000, 55.942000) scale(-1, 1) translate(-36.510000, -55.942000) " cx="36.51" cy="55.942" rx="23.2582" ry="12.6667"></ellipse>
                                <rect id="Rectangle" fill="#FFFFFF" transform="translate(38.567650, 8.557500) scale(-1, 1) translate(-38.567650, -8.557500) " x="0.0003" y="0.604" width="77.1347" height="15.907"></rect>
                            </g>
                        </g>
                    </g>
                    <path d="M248.627744,8.50069281 L249.844242,8.93831947 C284.147488,20.6760081 328.546255,52.8497108 345.5,97.0003 C363.39,143.589 375,201.500003 375,251.500003 C375,281.000003 351,434.000003 348.5,459.000003 L348.284369,461.233544 C346.083377,484.894136 347.025041,503.684072 348.455153,553.43516 L348.588124,558.140103 C349.9956,609.26242 349.78,652.0355 339,655.000003 C319,660.500003 256.5,652.500003 248,651.000003 C239.5,649.500003 245,614.8 245,595.500003 C245,569.000003 263,479.500003 272.5,445.000003 C279.801,418.487 316,334.000003 318.5,327.000003 L320.032584,322.697027 C329.710977,295.38143 338.575,266.35 330.5,206.500003 L330.494008,204.410278 C330.433477,193.835938 329.905312,181.53125 328.5,174.500003 C324.716,155.574 306.501,130.000003 281.501,106.000003 C251.952,77.6338 204.499,71.5005 199.999,64.5005 C199.583956,63.0775928 199.198554,61.4973913 198.855284,59.7941242 L198.742925,60.4651483 C198.202418,63.5241165 197.436781,65.5553803 196.493,66.0124 C183.493,75.0124 132.493,77.5124 105.556,109.071 C78.241,141.073 59.493,174.013 58.493,206.513 L58.4262723,208.910897 C57.7562145,235.659579 59.1317779,274.414371 56.1551265,299.072101 L56.4006911,299.023289 C56.4364191,299.015395 56.4695305,299.007629 56.5,299.000003 C59.333,311.500003 60.574,330.148 70,349.000003 C77.5,364.000003 91,378.833 97.5,385.500003 L98.2100913,388.299634 C104.123347,411.787187 115.428,460.816 118.5,490.000003 C122.5,528.000003 118.5,647.000003 109.5,647.000003 C88.607,647.000003 73.906,650.000003 70,637.500003 C62.998518,615.095258 67.326276,574.389436 61.4241054,538.162032 L61.3458725,541.054682 C60.1254109,588.853741 61.6639645,663.145173 58.493,679.000003 C55.762,692.658 8,687.513 8,670.500003 L8.00526151,666.053287 C8.17638288,593.804862 12.484506,540.26678 15.4934,510.513 C19.9934,466.013 15.4934,415.513 15.4934,376.513 C15.4934,337.513 19.4933,228.013 24.9933,193.513 C36.7127,120.000003 62.493,69.0126 88.493,44.5126 C103.397953,30.4675484 128.98356,16.0937824 151.214317,8.83303593 L150.852,9.01179 C170.0184,-0.57141 210.05701,-4.84168392 247.494107,8.10314365 L248.627744,8.50069281 Z" id="Path" fill="#311E1C" fill-rule="nonzero"></path>
                    <path d="M237.162324,161.600435 L293.256324,162.905435 C298.225542,163.021041 302.160172,167.143106 302.044565,172.112324 C301.931023,176.992806 297.952833,180.875319 293.103056,180.902901 L292.837676,180.900565 L236.743676,179.595565 C231.774458,179.479959 227.839828,175.357894 227.955435,170.388676 C228.068977,165.508194 232.047167,161.625681 236.896944,161.598099 L237.162324,161.600435 Z" id="Path" fill="#393939" fill-rule="nonzero"></path>
                    <path d="M148.732756,161.304178 C153.70046,161.135596 157.864241,165.026053 158.032822,169.993756 C158.198393,174.872751 154.448597,178.976278 149.608323,179.280987 L149.343244,179.293822 L93.2662436,181.196822 C88.2985405,181.365404 84.1347592,177.474947 83.9661778,172.507244 C83.8006068,167.628249 87.5504027,163.524722 92.3906769,163.220013 L92.6557564,163.207178 L148.732756,161.304178 Z" id="Path" fill="#393939" fill-rule="nonzero"></path>
                    <path d="M185.927572,248.285048 L200.072428,257.714952 C195.265005,264.926086 191.5,275.750474 191.5,283.625 C191.5,291.218019 194.241995,294.409707 202.636755,294.498108 L203,294.5 L203,311.5 C184.456881,311.5 174.5,300.298509 174.5,283.625 C174.5,272.329891 179.198935,258.618754 185.577977,248.815839 L185.927572,248.285048 Z" id="Path" fill="#EBBAAA" fill-rule="nonzero"></path>
                </g>
            </g>
        </g>
    </g>
</svg>