<?xml version="1.0" encoding="UTF-8"?>
<svg width="522px" height="1359px" viewBox="0 0 522 1359" version="1.1" xmlns="http://www.w3.org/2000/svg" xmlns:xlink="http://www.w3.org/1999/xlink">
    <!-- Generator: Sketch 55.2 (78181) - https://sketchapp.com -->
    <title>gee_me_048</title>
    <desc>Created with Sketch.</desc>
    <defs>
        <path d="M-0.00214253563,61.2357089 C-0.00214253563,45.6054014 5.01516579,36.8210053 14.1224726,30.6076519 C59.6053413,-0.408102026 120.425806,0.0202470303 175.47877,0.0202470303 C175.923601,0.0202470303 176.329662,0.275468867 176.524531,0.673368342 C178.48036,4.69317329 188.745146,26.6082521 188.745146,44.1464366 C188.745146,57.5525881 189.893953,70.7444861 186.194509,77.5597899 C184.525371,80.6409602 174.103466,82.3141785 170.602971,82.3141785 L5.67302626,82.3141785 C2.53870068,82.3141785 -0.00214253563,64.3780945 -0.00214253563,61.2357089 Z" id="path-1"></path>
        <path d="M188.914509,61.2357089 C188.914509,45.6054014 183.896894,36.8210053 174.790098,30.6076519 C129.307127,-0.408102026 68.4856414,0.0202470303 13.4336984,0.0202470303 C12.987847,0.0202470303 12.5828057,0.275468867 12.387937,0.673368342 C10.4310878,4.69317329 0.16732183,26.6082521 0.16732183,44.1464366 C0.16732183,57.5525881 -0.981485371,70.7444861 2.71795949,77.5597899 C4.38709677,80.6409602 14.8090023,82.3141785 18.3084771,82.3141785 L183.23883,82.3141785 C186.373053,82.3141785 188.914509,64.3780945 188.914509,61.2357089 Z" id="path-3"></path>
        <linearGradient x1="49.953813%" y1="-2.89351852%" x2="49.953813%" y2="102.893519%" id="linearGradient-5">
            <stop stop-color="#7F91AD" offset="0%"></stop>
            <stop stop-color="#FB8BB9" offset="100%"></stop>
        </linearGradient>
        <linearGradient x1="50.046187%" y1="-2.89351852%" x2="50.046187%" y2="102.893519%" id="linearGradient-6">
            <stop stop-color="#7F91AD" offset="0%"></stop>
            <stop stop-color="#FB8BB9" offset="100%"></stop>
        </linearGradient>
    </defs>
    <g id="GEE!-ME" stroke="none" stroke-width="1" fill="none" fill-rule="evenodd">
        <g id="gee_me_048" transform="translate(-339.000000, -120.000000)">
            <g transform="translate(339.000000, 120.000000)">
                <g id="lower-limb" transform="translate(55.091529, 852.943436)">
                    <path d="M144.721204,218.557295 C160.999552,218.652002 174.150983,231.792788 174.32006,248.010003 L174.3212,248.502365 L173.105056,458.664706 C173.009907,475.107482 159.60327,488.359851 143.160494,488.265211 C126.882147,488.170504 113.730716,475.029717 113.561638,458.812502 L113.560498,458.32014 L114.776643,248.1578 C114.871792,231.715024 128.278429,218.462655 144.721204,218.557295 Z" id="Path" fill="#EBBAAA" fill-rule="nonzero"></path>
                    <path d="M273.616156,186.041766 C289.894504,186.136477 303.045931,199.277268 303.215004,215.494483 L303.216144,215.986845 L302,426.138983 C301.904846,442.581758 288.498205,455.834124 272.05543,455.73948 C255.777082,455.644768 242.625655,442.503978 242.456582,426.286763 L242.455442,425.7944 L243.671586,215.642262 C243.76674,199.199487 257.173381,185.947121 273.616156,186.041766 Z" id="Path" fill="#EBBAAA" fill-rule="nonzero"></path>
                    <path d="M202.403282,117.36719 C197.995509,117.746492 193.502284,118.00964 188.938251,118.149696 L182.077983,360.660165 L179.017218,395.858965 L112.570488,392.384626 C105.095518,391.993778 98.022887,388.877348 92.6901757,383.624718 L69.3755079,360.660165 L54.5461005,0 L192.280534,0 L192.106759,6.14295574 L329.171217,6.14295574 L337.805635,353.411253 L320.640244,377.523628 C315.587007,384.621955 307.661853,389.132003 298.978279,389.851025 L232.581629,395.348837 L227.990482,366.271568 L202.403282,117.36719 Z" id="Combined-Shape" fill="#474747" fill-rule="nonzero"></path>
                    <path d="M1.6528514e-12,484.631358 C1.6528514e-12,453.309527 20.1252453,449.493773 52.9269557,438.76069 C68.9929122,433.506377 85.3884111,428.915229 102.02571,426.16054 C112.480264,424.426107 115.289026,433.618605 133.653617,433.618605 C150.030752,433.618605 170.46238,425.507577 174.692357,423.752738 C175.22391,423.528282 175.852387,423.334434 176.274773,423.732333 C176.376798,423.824156 176.46352,423.936384 176.526776,424.069017 C178.482605,428.088822 188.747391,450.003901 188.747391,467.542086 C188.747391,480.948237 189.896198,494.140135 186.196753,500.955439 C184.526596,504.036609 174.10469,505.709827 170.605215,505.709827 L5.67516879,505.709827 C2.54084321,505.709827 1.6528514e-12,487.773743 1.6528514e-12,484.631358 Z" id="Path" fill="#D0D4DB" fill-rule="nonzero"></path>
                    <g id="Clipped" transform="translate(0.002245, 423.395649)">
                        <mask id="mask-2" fill="white">
                            <use xlink:href="#path-1"></use>
                        </mask>
                        <g id="Path"></g>
                        <path d="M20.5504876,26.5674419 C7.3392048,19.0991748 12.5205701,33.9030758 0.649902476,40.187847 L-24.4882641,88.3642911 L175.567532,88.3642911 C180.455574,81.3857464 199.698605,65.7350338 184.779415,65.7350338 C152.131253,65.7350338 112.722881,66.7858965 93.8695874,65.7350338 C75.0162941,64.684171 21.0467397,68.4591148 24.2163661,51.7065266 C27.8823466,32.331883 32.5957209,33.3725431 20.5504876,26.5674419 Z" id="Path" fill="#E5E7EB" fill-rule="nonzero" mask="url(#mask-2)"></path>
                    </g>
                    <path d="M85.2285004,424.081156 C86.2312843,422.744328 88.0948091,422.434049 89.4711099,423.342778 L89.6956696,423.50387 L91.7408624,425.010067 C92.5812283,425.63027 93.2679043,426.14973 93.9263233,426.66915 L94.2071386,426.892049 C99.6024684,431.201195 102.617305,435.25186 102.617305,440.250263 C102.617305,442.323661 100.652244,443.810999 98.6789466,443.290164 L98.5048606,443.23896 L70.98,434.303 L78.4859618,446.375774 C80.0060225,448.820798 77.7158414,451.819514 74.9955074,451.068088 L74.8381119,451.020545 L51.878,443.49 L60.0587787,455.135499 C61.019336,456.502983 60.7372501,458.370984 59.4469718,459.398201 L59.2936326,459.512918 C57.9261479,460.473476 56.0581475,460.19139 55.0309305,458.901111 L54.916213,458.747772 L41.2997869,439.362926 C39.5944233,436.935107 41.8899681,433.749443 44.691275,434.523006 L44.8503562,434.571053 L68.587,442.356 L61.1037036,430.319199 C59.5866596,427.879028 61.8651732,424.88454 64.5821752,425.623652 L64.7424793,425.671467 L93.88,435.13 L93.794773,435.032013 C92.9505891,434.093142 91.8967381,433.113649 90.6345989,432.084473 L90.285216,431.80255 L89.7721746,431.397905 C89.4231195,431.125938 89.0563992,430.846685 88.6503523,430.542874 L85.8566041,428.480331 C84.4683596,427.438978 84.187148,425.469401 85.2285004,424.081156 Z" id="Path" fill="#FFFFFF" fill-rule="nonzero"></path>
                    <path d="M414.393122,484.631358 C414.393122,453.309527 394.267571,449.493773 361.466371,438.76069 C345.400414,433.506377 329.003895,428.915229 312.367616,426.16054 C301.913062,424.426107 299.1043,433.618605 280.739709,433.618605 C264.362575,433.618605 243.930947,425.507577 239.699949,423.752738 C239.169416,423.528282 238.539919,423.334434 238.118554,423.732333 C238.015508,423.824156 237.929806,423.936384 237.866551,424.069017 C235.909701,428.088822 225.645935,450.003901 225.645935,467.542086 C225.645935,480.948237 224.497128,494.140135 228.196573,500.955439 C229.86571,504.036609 240.287616,505.709827 243.787091,505.709827 L408.717443,505.709827 C411.851667,505.709827 414.393122,487.773743 414.393122,484.631358 Z" id="Path" fill="#D0D4DB" fill-rule="nonzero"></path>
                    <g id="Clipped" transform="translate(225.478614, 423.395649)">
                        <mask id="mask-4" fill="white">
                            <use xlink:href="#path-3"></use>
                        </mask>
                        <g id="Path"></g>
                        <path d="M168.36147,26.5674419 C181.572753,19.0991748 176.391898,33.9030758 188.262566,40.187847 L213.40063,88.3642911 L13.3449362,88.3642911 C8.45689422,81.3857464 -10.7871568,65.7350338 4.13203301,65.7350338 C36.780195,65.7350338 76.1895874,66.7858965 95.0428807,65.7350338 C113.896174,64.684171 167.865626,68.4591148 164.695694,51.7065266 C161.029917,32.331883 156.316339,33.3725431 168.36147,26.5674419 Z" id="Path" fill="#E5E7EB" fill-rule="nonzero" mask="url(#mask-4)"></path>
                    </g>
                    <path d="M329.165046,424.08145 C330.206236,425.469816 329.924795,427.439361 328.536428,428.480551 L326.384533,430.066118 C325.483492,430.73103 324.7826,431.263536 324.109132,431.801374 C322.69074,432.934116 321.520101,434.006783 320.599017,435.031132 L320.511,435.131 L349.650847,425.671467 C352.383754,424.784292 354.743997,427.714792 353.374508,430.175053 L353.289623,430.319199 L345.805,442.356 L369.542865,434.571053 C372.362009,433.646405 374.741343,436.769976 373.185724,439.224715 L373.093444,439.362917 L359.47712,458.747763 C358.479623,460.167847 356.519787,460.510421 355.099703,459.512925 C353.732215,458.552372 353.363898,456.699445 354.22921,455.29544 L354.334541,455.135508 L362.514,443.49 L339.555217,451.020544 C336.819588,451.917801 334.449108,448.982147 335.823872,446.517417 L335.907365,446.375774 L343.412,434.303 L315.888466,443.23896 C313.916377,443.879154 311.89497,442.469346 311.781071,440.431652 L311.776021,440.250263 C311.776021,435.251248 314.791396,431.200021 320.187422,426.890703 L320.752418,426.445013 C321.039109,426.221575 321.334275,425.995491 321.647759,425.758859 L324.765945,423.452832 C326.154311,422.411642 328.123856,422.693084 329.165046,424.08145 Z" id="Path" fill="#FFFFFF" fill-rule="nonzero"></path>
                </g>
                <g id="upper-limb" transform="translate(0.438181, 446.882051)" fill-rule="nonzero">
                    <path d="M520.319388,359.179645 C516.409771,374.472248 430.88485,380.588677 423.065615,374.472248 C421.32812,373.113268 417.838848,363.624896 417.838848,363.624896 L521.494722,350.63909 C521.494722,350.63909 520.597918,358.088992 520.319388,359.179645 Z" id="Path" fill="#FFFFFF"></path>
                    <path d="M49.7764298,152.114318 C59.2599177,133.547658 81.999055,126.184292 100.565715,135.66778 C119.132374,145.151268 126.49574,167.890405 117.012252,186.457065 C103.864736,212.197116 89.9844887,264.080797 82.7347856,314.307368 L82.5171347,315.828849 C79.0705458,340.14159 77.5105577,361.928521 78.0536181,377.910415 L78.0810686,378.667057 C78.3007753,384.357798 78.7872501,388.946544 79.4037533,392.119251 L79.464,392.422 L79.4960133,392.458689 C90.2159777,404.730862 92.0663842,423.01245 82.9779469,437.417127 L82.6405589,437.94238 C71.2313564,455.391949 47.836699,460.288635 30.3871291,448.879432 C17.9171778,440.726096 11.1000336,428.809673 7.09636761,414.263432 C4.51018497,404.867234 3.11853664,394.016034 2.63839878,381.579729 C1.82262083,360.449833 3.67969553,334.054805 7.76562966,305.232031 C16.023447,246.980184 32.039975,186.838538 49.7764298,152.114318 Z" id="Path" fill="#EBBAAA"></path>
                    <path d="M386.243755,111.167648 C404.402311,100.924394 427.426527,107.341015 437.66978,125.499571 C461.847039,168.359402 479.692973,228.915451 488.90505,292.207249 C497.67713,352.476035 497.497216,406.980187 486.462748,437.326145 C479.338181,456.919459 457.67906,467.027376 438.085746,459.902809 C418.688366,452.849488 408.587622,431.55085 415.300507,412.11421 L415.509082,411.525808 C421.153501,396.003057 421.299077,351.901232 414.193396,303.081478 C406.212382,248.247724 390.878976,196.217359 371.911832,162.593672 C361.668579,144.435116 368.085199,121.410901 386.243755,111.167648 Z" id="Path" fill="#EBBAAA"></path>
                    <path d="M80.6326125,76.0088721 C80.6326125,52.0328781 133.175442,27.5620604 169.904625,15.9260514 L217.856613,0.0161939543 C224.534182,-0.194998844 270.417093,1.71287813 277.031406,2.62804692 L351.510026,27.5620604 C386.801669,32.4419404 441.276147,47.7008751 437.721579,83.1506576 L399.512006,239.044611 L403.032907,439.729802 C403.106365,441.580545 318.672096,452.067747 316.821354,451.973503 L176.536282,443.075219 L100.527586,439.657364 C98.750404,439.563501 97.8297258,434.365301 97.9769486,432.588017 L108.187355,220.252533 L80.6326125,76.0088721 Z" id="Path" fill="#EBBAAA"></path>
                    <path d="M429.049411,51.5227506 C419.663064,42.136404 388.749336,32.6480319 374.465765,29.0771392 C378.691661,85.5268316 391.00716,243.248062 391.00716,243.248062 L496.982074,233.897424 C496.982074,233.897424 436.573792,59.0461114 429.049411,51.5227506 Z" id="Path" fill="#DAE2F3"></path>
                    <path d="M67.9318653,51.5227506 C77.3182119,42.136404 118.745474,32.6480319 133.029045,29.0771392 C128.803148,85.5268316 105.974422,243.248062 105.974422,243.248062 L-2.84217094e-13,233.897424 C-2.84217094e-13,233.897424 60.4080964,59.0461114 67.9318653,51.5227506 Z" id="Path" fill="#DAE2F3"></path>
                    <path d="M284.131361,51.5227506 C274.745015,42.136404 243.831286,32.6480319 229.547715,29.0771392 C233.773612,85.5268316 246.08809,243.248062 246.08809,243.248062 L352.063004,233.897424 C352.063004,233.897424 291.654722,59.0461114 284.131361,51.5227506 Z" id="Path" fill="#DAE2F3"></path>
                    <polygon id="Path" fill="#EBBAAA" points="204.083169 5.2847911 207.654062 2.73415344 260.707325 19.568362 285.703574 3.75440851 295.395997 7.83542876 305.598548 39.9734633 245.913627 53.2367791 197.961639 36.9126981"></polygon>
                    <path d="M235.711076,92.8430807 C230.609801,78.0493823 233.160438,57.644281 233.160438,57.644281 L210.2047,65.296194 L182.657813,11.7328031 C150.860543,17.344206 149.499523,19.3847161 126.543784,29.5872667 C99.1598323,41.7578894 104.6083,82.64053 100.527586,138.244431 L94.9161834,442.790568 L170.414752,454.523501 L220.917378,455.033628 L243.362989,109.677289 C243.362989,109.677289 240.812351,107.636779 235.711076,92.8430807 Z" id="Path" fill="#E5EBF9"></path>
                    <path d="M255.095922,92.3329531 C241.832607,81.620275 244.043499,73.1174693 246.423754,64.7860664 L251.014902,61.7253012 L284.683319,57.644281 L316.311226,14.7935683 C316.311226,14.7935683 361.712577,20.9150987 377.016402,29.0771392 C392.320228,37.2391797 401.502524,126.511498 401.502524,126.511498 L408.644309,444.32095 L369.874617,455.033628 L220.40725,455.033628 C219.04725,348.246592 225.544234,118.210703 238.771841,111.207672 C256.116177,102.025376 258.156688,94.8050312 255.095922,92.3329531 Z" id="Path" fill="#DAE2F3"></path>
                    <path d="M288.764339,29.0771392 C292.274017,17.4696973 288.764339,9.18216545 287.744084,4.08089013 L316.311226,14.7935683 C316.311226,14.7935683 326.003649,27.0366291 319.882119,55.0936433 C313.175982,85.8298474 283.518188,97.944356 276.521279,106.106397 C273.460513,109.677289 274.480769,66.316449 251.014902,61.7253012 C261.72758,59.1746636 282.132682,51.0126231 288.764339,29.0771392 Z" id="Path" fill="#E5EBF9"></path>
                    <path d="M207.198008,35.1986696 C200.002149,24.9961189 203.734242,10.6850012 207.198008,3.06063506 L182.147685,11.7328031 C182.147685,11.7328031 167.744745,36.5331632 175.531331,60.5020154 C185.20845,90.292443 219.68797,101.057154 219.386995,97.4342285 C216.32623,60.5020154 228.558068,61.8783395 233.670566,57.1341534 C224.998398,55.0936433 216.759838,48.7568391 207.198008,35.1986696 Z" id="Path" fill="#DAE2F3"></path>
                    <circle id="Oval" fill="#DAE2F3" cx="285.703574" cy="86.7215503" r="5.10127532"></circle>
                    <circle id="Oval" fill="#E5EBF9" cx="207.143934" cy="81.620275" r="5.10127532"></circle>
                    <circle id="Oval" fill="#EDF2FF" cx="248.464264" cy="130.082391" r="7.65191298"></circle>
                    <ellipse id="Oval" fill="#EDF2FF" cx="242.342734" cy="203.030628" rx="7.65191298" ry="8.16204051"></ellipse>
                    <circle id="Oval" fill="#EDF2FF" cx="238.261714" cy="275.978865" r="7.65191298"></circle>
                    <circle id="Oval" fill="#EDF2FF" cx="238.261714" cy="348.416974" r="7.65191298"></circle>
                    <circle id="Oval" fill="#EDF2FF" cx="238.261714" cy="412.693043" r="7.65191298"></circle>
                </g>
                <g id="head" transform="translate(64.649451, 0.326801)">
                    <rect id="Rectangle" fill="#EBBAAA" fill-rule="nonzero" x="143.387698" y="389.420836" width="79.9215784" height="120.933893" rx="38.6788897"></rect>
                    <path d="M298.019596,338.078541 C331.050354,338.078541 354.945748,301.174895 357.827968,273.823897 C360.710189,246.472899 331.050354,218.846433 298.019596,218.846433 C264.987818,218.846433 238.210204,243.461106 238.210204,273.823897 C238.210204,304.187708 264.987818,338.078541 298.019596,338.078541 Z" id="Path" fill="#EBBAAA" fill-rule="nonzero"></path>
                    <path d="M60.0022518,338.078541 C26.9712901,338.078541 3.07630434,301.174895 0.194083784,273.823897 C-2.6882388,246.472899 26.9712901,218.846433 60.0022518,218.846433 C93.0340298,218.846433 119.811644,243.461106 119.811644,273.823897 C119.811644,304.187708 93.0340298,338.078541 60.0022518,338.078541 Z" id="Path" fill="#EBBAAA" fill-rule="nonzero"></path>
                    <path d="M22.9647485,183.143627 C22.9647485,88.6852505 92.3606614,12.111537 177.964142,12.111537 C263.567623,12.111537 332.963332,88.6851485 332.963332,183.143627 L322.472049,315.365623 C310.053505,397.695105 250.390009,460.068398 177.964142,460.068398 C105.538276,460.068398 48.2754401,389.484092 33.4557252,315.365623 L22.9647485,183.143627 Z" id="Path" fill="#F4D4C9" fill-rule="nonzero"></path>
                    <path d="M298.1155,53.943423 C298.1155,57.8670588 297.917226,61.2921278 297.552317,64.270435 L300.012154,66.0451785 L300.012154,66.0451785 C337.237181,92.8218746 343.188328,178.261707 333.643842,215.965232 L326.496956,263.661136 L322.512859,258.022187 L318.743017,202.997791 C299.986648,184.573004 289.580046,166.934835 286.27646,139.87359 L285.657335,134.814632 C273.953461,116.061968 272.639236,105.133575 261.460578,87.5981729 C248.331446,98.1285237 222.725591,109.266958 179.166003,109.266958 C131.02653,109.266958 108.154407,95.6636364 99.2637861,84.3091772 L96.4674865,87.9003692 C74.258107,116.322764 55.9278665,137.348674 42.5370997,149.170868 L42.5592848,150.902091 C42.8157035,174.264237 41.1339974,185.628529 35.0262938,211.557742 L34.3380418,214.463417 L35.139146,256.408143 L29.8889135,256.504047 L24.0745819,223.15599 C20.091718,196.968013 17.7880339,169.858908 20.9570372,145.104045 L20.8877388,143.901762 C19.796237,124.000028 20.7751321,91.3760612 37.3726884,80.6107479 C40.1896511,78.783677 45.5858652,76.7820934 52.9306059,74.6703302 L52.9409519,74.6699205 C52.9203997,67.1848797 55.6663955,56.7197209 64.366903,43.1858536 C85.1137897,10.9135536 133.522852,1.69296781 179.166003,0.156189232 C224.808133,-1.38058118 298.1155,7.84031064 298.1155,53.943423 Z" id="Path" fill="#272727" fill-rule="nonzero"></path>
                    <path d="M76.1978874,207.985335 L88.9979324,205.066129 L136.201565,211.183258 C141.36073,211.851835 145.001071,216.576154 144.332494,221.735319 C143.675646,226.803972 139.104115,230.406626 134.051547,229.897472 L133.780433,229.866247 L89.908,224.181 L80.3868413,226.352932 C75.403753,227.489386 70.4424941,224.445718 69.1730205,219.528796 L69.1085656,219.26361 C67.9721117,214.280522 71.01578,209.319263 75.932702,208.04979 L76.1978874,207.985335 Z" id="Path" fill="#393939" fill-rule="nonzero"></path>
                    <path d="M215.098842,211.183258 L262.302475,205.066129 L275.10252,207.985335 C280.174592,209.142082 283.34859,214.191538 282.191842,219.26361 C281.055388,224.246699 276.161614,227.397727 271.180476,226.409828 L270.913566,226.352932 L261.391,224.181 L217.519975,229.866247 C212.451322,230.523095 207.802391,227.020889 207.006828,222.005436 L206.967914,221.735319 C206.311066,216.666665 209.813272,212.017734 214.828725,211.222171 L215.098842,211.183258 Z" id="Path" fill="#393939" fill-rule="nonzero"></path>
                    <path d="M167.366413,251.561632 L184.513499,256.310498 L171.352208,303.832962 C168.629413,313.664346 175.923079,323.386714 186.067862,323.580178 L186.376145,323.583114 L197.692814,323.583114 L197.692814,341.375648 L186.376145,341.375648 C164.53116,341.375648 148.636319,320.76745 154.034993,299.721949 L154.205123,299.084093 L167.366413,251.561632 Z" id="Path" fill="#EBBAAA" fill-rule="nonzero"></path>
                    <path d="M89.8732796,260.99419 C93.6941348,259.048563 104.528223,256.324482 117.288553,260.99419" id="Path" stroke="#393939" stroke-width="12.2430608" stroke-linecap="round"></path>
                    <path d="M235.255545,260.99419 C239.077421,259.048563 249.910489,256.324482 262.670819,260.99419" id="Path" stroke="#393939" stroke-width="12.2430608" stroke-linecap="round"></path>
                    <path d="M141.100322,373.875262 C142.726627,369.874083 147.231042,367.908161 151.252869,369.395758 L151.493572,369.489169 C154.036671,370.522827 156.705179,371.319355 159.515107,371.899017 C167.402856,373.526187 174.820076,373.457106 187.207384,372.213446 L192.984654,371.628639 C197.628169,371.170798 199.087297,371.088088 201.5221,371.081761 L201.860556,371.081344 C206.266001,371.081344 209.837319,374.652662 209.837319,379.058106 C209.837319,383.380428 206.399496,386.899804 202.109012,387.031072 L200.70095,387.045643 C199.238684,387.076873 197.766855,387.188052 194.316956,387.528687 L187.95242,388.17142 C174.539139,389.486293 165.985465,389.523239 156.291909,387.523547 C152.553329,386.752312 148.954077,385.677966 145.486415,384.268513 C141.405212,382.609682 139.441491,377.956465 141.100322,373.875262 Z" id="Path" fill="#C99584" fill-rule="nonzero"></path>
                    <path d="M166.447503,276.35719 C166.447503,290.869298 156.23577,303.4368 141.51655,312.530334 C126.855485,321.588158 108.320511,326.790439 93.0136247,326.790439 C77.87508,326.790439 69.2049525,321.734055 64.1097987,313.373064 C58.8391611,304.723342 57.1037072,292.101767 57.1037072,276.35719 C57.1037072,261.427798 63.2323794,252.219996 72.9472481,246.577986 C82.8906539,240.803342 96.8232571,238.640401 112.482132,238.640401 C128.144067,238.640401 141.703257,240.804362 151.277331,246.558601 C160.619806,252.172044 166.447503,261.367603 166.447503,276.35719 Z" id="Path" stroke="#000000" stroke-width="5.10127532" fill="url(#linearGradient-5)" fill-rule="nonzero"></path>
                    <path d="M188.974735,276.35719 C188.974735,290.869298 199.187488,303.4368 213.905688,312.530334 C228.566753,321.588158 247.101727,326.790439 262.408613,326.790439 C277.547158,326.790439 286.217286,321.734055 291.312439,313.373064 C296.584097,304.723342 298.318531,292.101767 298.318531,276.35719 C298.318531,261.427798 292.189859,252.219996 282.47499,246.577986 C272.531584,240.803342 258.598981,238.640401 242.940106,238.640401 C227.278171,238.640401 213.720001,240.804362 204.144907,246.558601 C194.803452,252.172044 188.974735,261.367603 188.974735,276.35719 Z" id="Path" stroke="#000000" stroke-width="5.10127532" fill="url(#linearGradient-6)" fill-rule="nonzero"></path>
                    <path d="M166.142447,266.766793 L190.628568,266.766793" id="Path" stroke="#000000" stroke-width="5.10127532"></path>
                    <path d="M111.647563,239.112779 L248.361742,239.112779" id="Path" stroke="#000000" stroke-width="5.10127532"></path>
                    <polygon id="Path" fill="#000000" fill-rule="nonzero" points="326.57718 234.346978 329.918247 238.201881 296.951765 266.774124 293.610698 262.919221"></polygon>
                    <polygon id="Path" fill="#000000" fill-rule="nonzero" points="30.8168556 236.406948 60.722674 262.938681 57.3372235 266.754665 27.431405 240.222932"></polygon>
                </g>
            </g>
        </g>
    </g>
</svg>