<?xml version="1.0" encoding="UTF-8"?>
<svg width="660px" height="1340px" viewBox="0 0 660 1340" version="1.1" xmlns="http://www.w3.org/2000/svg" xmlns:xlink="http://www.w3.org/1999/xlink">
    <!-- Generator: Sketch 55.2 (78181) - https://sketchapp.com -->
    <title>gee_me_034</title>
    <desc>Created with Sketch.</desc>
    <defs>
        <path d="M0.280524017,85.904086 C0.280524017,38.8744086 38.4096943,0.749247312 85.4445415,0.749247312 L93.6902183,0.749247312 L117.042882,0.749247312 L140.395546,0.749247312 L163.74821,0.749247312 L187.099913,0.749247312 L187.099913,81.1108244 C187.099913,87.2392832 182.128297,92.2150538 175.995197,92.2150538 L6.58943231,92.2150538 C3.10497817,92.2150538 0.280524017,89.3909677 0.280524017,85.904086 Z" id="path-1"></path>
        <path d="M187.580262,85.904086 C187.580262,38.8744086 149.451092,0.749247312 102.416245,0.749247312 L94.1705677,0.749247312 L70.8179039,0.749247312 L47.4662009,0.749247312 L24.1135371,0.749247312 L0.760873362,0.749247312 L0.760873362,81.1108244 C0.760873362,87.2392832 5.73248908,92.2150538 11.8655895,92.2150538 L181.272314,92.2150538 C184.755808,92.2150538 187.580262,89.3909677 187.580262,85.904086 Z" id="path-3"></path>
    </defs>
    <g id="GEE!-ME" stroke="none" stroke-width="1" fill="none" fill-rule="evenodd">
        <g id="gee_me_034" transform="translate(-270.000000, -130.000000)">
            <g transform="translate(270.000000, 130.000000)">
                <g id="lower-limb" transform="translate(142.183406, 804.760774)">
                    <path d="M117.824039,138.21135 C122.316876,116.116726 143.872606,101.847184 165.97011,106.339435 C188.067614,110.831687 202.339016,132.384607 197.846179,154.479231 L197.486574,156.271343 C191.647953,185.748268 184.622496,239.509622 180.165483,291.222293 L180.02846,292.820972 C174.717204,355.137362 173.641023,407.401071 177.621933,435.754065 C180.756864,458.081794 165.195668,478.723027 142.865028,481.85755 C120.534389,484.992072 99.8904651,469.432904 96.7555342,447.105175 C91.6877438,411.011158 92.8626087,353.954973 98.6639853,285.888046 L98.9546221,282.515871 C103.757784,227.394491 111.284326,170.371991 117.824039,138.21135 Z" id="Path" fill="#F5D0C3" fill-rule="nonzero"></path>
                    <path d="M320.93475,149.601727 C343.05773,145.236637 364.531016,159.629913 368.896676,181.75001 C375.301053,214.199964 381.394553,260.328422 384.937605,305.028143 L385.160272,307.879231 C389.369629,362.59655 389.56472,410.998131 384.666518,446.941351 C381.622076,469.281595 361.041362,484.924255 338.698206,481.88021 C316.35505,478.836165 300.710351,458.258134 303.754792,435.91789 C307.719725,406.823036 307.545468,363.590223 303.741388,314.141085 L303.535898,311.509547 C300.231871,269.812993 294.548075,226.771777 288.782276,197.557402 C284.416617,175.437305 298.811769,153.966818 320.93475,149.601727 Z" id="Path" fill="#F5D0C3" fill-rule="nonzero"></path>
                    <path d="M259.041834,141.309964 L100.04524,14.413405 C100.04524,14.413405 71.3722271,80.8831685 71.3722271,165.476072 C71.3722271,264.174996 88.2737991,390.067756 92.5075983,401.652272 C96.7413974,413.227183 143.424629,409.701878 176.088384,394.092559 C212.594934,245.549477 259.041834,141.309964 259.041834,141.309964 Z" id="Path" fill="#232526" fill-rule="nonzero"></path>
                    <path d="M93.4481223,408.510767 L88.1844541,378.973133 C113.030044,394.015713 158.11083,388.444387 179.931179,378.973133 C179.931179,401.825176 177.064454,405.725104 177.064454,413.524961 C151.262969,431.36281 103.960087,425.234351 93.4481223,408.510767 Z" id="Path" fill="#3F4244" fill-rule="nonzero"></path>
                    <ellipse id="Oval" fill="#232526" fill-rule="nonzero" cx="246.699738" cy="100.711326" rx="167.161572" ry="100.711326"></ellipse>
                    <path d="M236.702707,134.763656 L400.021485,41.605319 C400.021485,41.605319 417.223755,86.9261362 417.223755,169.51048 C417.223755,252.090982 403.864279,336.688688 388.402795,395.101161 C365.826376,415.244387 324.990917,429.345606 310.586201,415.244387 C296.181485,401.143168 236.702707,134.763656 236.702707,134.763656 Z" id="Path" fill="#232526" fill-rule="nonzero"></path>
                    <path d="M416.743406,154.498638 C386.001048,169.366394 349.81441,166.56152 336.044716,163.29557 C339.246725,191.008115 347.5731,250.717362 355.25869,267.930839 C377.35476,275.749907 390.804541,274.770122 410.979214,267.930839 C415.782707,229.796072 420.586201,184.812416 416.743406,154.498638 Z" id="Path" fill="#3F4244" fill-rule="nonzero"></path>
                    <path d="M409.112469,169.225834 L412.845959,175.942797 C405.699023,179.914242 395.919105,182.411156 383.930031,183.814402 L382.656376,183.959454 C373.791754,184.94062 365.918859,185.210936 354.093372,185.233483 L352.376594,185.235068 L352.376594,177.55048 L355.683205,177.544124 C366.891099,177.4983 374.415644,177.190943 383.036465,176.18193 L384.500745,176.003232 C394.659641,174.711685 402.898007,172.564461 408.702042,169.449946 L409.112469,169.225834 Z" id="Path" fill="#232526" fill-rule="nonzero"></path>
                    <path d="M391.284891,414.600803 L391.284891,384.29471 C366.439301,399.33729 321.358515,393.765964 299.538166,384.285104 C299.538166,407.146753 302.404891,411.046681 302.404891,418.846538 C328.206376,436.684387 380.772926,431.324387 391.284891,414.600803 Z" id="Path" fill="#3F4244" fill-rule="nonzero"></path>
                    <path d="M0.280524017,528.140588 C0.280524017,487.066466 30.3744105,452.197649 71.0100437,446.174853 L93.6902183,442.812846 L104.124367,442.812846 C104.124367,442.812846 103.04262,461.803384 138.198428,461.803384 C173.353275,461.803384 178.221135,442.812846 178.221135,442.812846 L182.658603,442.812846 C185.111266,442.812846 187.099913,444.801233 187.099913,447.260301 L187.099913,523.174423 C187.099913,529.302882 182.128297,534.278652 175.995197,534.278652 L6.41938865,534.278652 C3.02908297,534.278652 0.280524017,531.531412 0.280524017,528.140588 Z" id="Path" fill="#3B3F45" fill-rule="nonzero"></path>
                    <path d="M89.6255022,427.386036 C89.2412227,433.25514 84.6615721,441.890695 82.420262,445.473634 C84.8220087,450.689548 91.25869,461.121376 97.791441,461.121376 C105.95738,461.121376 107.878777,441.5641 106.918079,438.144459 C105.95738,434.715211 90.1058515,420.047254 89.6255022,427.386036 Z" id="Path" fill="#3B3F45" fill-rule="nonzero"></path>
                    <g id="Clipped" transform="translate(0.000000, 442.063599)">
                        <mask id="mask-2" fill="white">
                            <use xlink:href="#path-1"></use>
                        </mask>
                        <g id="Path"></g>
                        <g id="Group" mask="url(#mask-2)" fill-rule="nonzero">
                            <g transform="translate(-25.938865, 25.935484)" id="Path">
                                <polygon fill="#666E79" points="97.6544116 21.4127082 113.484805 52.1222422 98.6912653 59.7461449 82.8608723 29.0366108"></polygon>
                                <polygon fill="#666E79" points="119.467176 9.78782322 138.438093 46.6834505 123.636667 54.2920334 104.66575 17.3964062"></polygon>
                                <polygon fill="#666E79" points="140.857996 -2.99674925 167.087953 49.0183045 152.227157 56.5102976 125.9972 4.49524387"></polygon>
                                <path d="M47.8869869,8.56831541 C33.88,0.268960573 39.3732751,16.7139785 26.7881223,23.6973477 L0.135458515,77.249319 L212.240437,77.249319 C217.423406,69.4878853 236.148384,29.2494624 221.241223,23.6973477 C193.86131,13.5152688 145.611179,48.7298925 125.621921,47.5675986 C105.632664,46.4053047 48.4134498,55.1273118 51.7739738,36.5017921 C55.66,14.9657348 60.6575546,16.1376344 47.8869869,8.56831541 Z" fill="#555D65"></path>
                            </g>
                        </g>
                    </g>
                    <path d="M76.5207855,439.580545 C77.6182163,438.186628 79.6050591,437.904967 81.0418753,438.906937 L83.0196979,440.387453 C84.3188458,441.35349 85.9292522,442.550268 86.6265624,443.098519 L87.3537385,443.679229 C92.8207185,448.116324 95.7958633,452.227414 95.7958633,457.355928 C95.7958633,459.523283 93.7657648,461.096427 91.6889191,460.595671 L91.515783,460.549108 L66.3516157,453.075613 L74.7864476,467.299226 C76.3386135,469.916771 73.8622459,473.03996 70.9972662,472.199025 L70.837724,472.148199 L46.3287336,463.72357 L55.2541998,477.037386 C56.243276,478.512877 55.8965119,480.492687 54.4957546,481.549392 L54.3416531,481.659013 C52.8659701,482.64796 50.8859018,482.301241 49.8290599,480.900666 L49.7194246,480.746585 L35.2830054,459.210527 C33.5375662,456.606705 36.0230636,453.289107 38.9721582,454.154431 L39.1334551,454.205808 L64.4331004,462.901319 L56.2845567,449.160874 C54.767704,446.602881 57.1043687,443.52255 59.9379052,444.225011 L60.0988022,444.268841 L86.68,452.162108 L86.4995338,451.959004 C85.5457371,450.902907 84.3312889,449.792119 82.8536634,448.609641 L82.508,448.335481 C81.4616182,447.512777 77.7611569,444.796166 77.0778456,444.258335 C75.6321133,443.120407 75.382709,441.026089 76.5207855,439.580545 Z" id="Path" fill="#7F8389" fill-rule="nonzero"></path>
                    <path d="M483.475459,528.140588 C483.475459,487.066466 453.382533,452.197649 412.7469,446.174853 L390.065764,442.812846 L379.631616,442.812846 C379.631616,442.812846 380.713362,461.803384 345.558515,461.803384 C310.402707,461.803384 305.534847,442.812846 305.534847,442.812846 L301.098341,442.812846 C298.644716,442.812846 296.65607,444.801233 296.65607,447.260301 L296.65607,523.174423 C296.65607,529.302882 301.627686,534.278652 307.760786,534.278652 L477.337555,534.278652 C480.72786,534.278652 483.475459,531.531412 483.475459,528.140588 Z" id="Path" fill="#3B3F45" fill-rule="nonzero"></path>
                    <path d="M394.13048,427.386036 C394.51476,433.25514 399.09441,441.890695 401.335721,445.473634 C398.933974,450.689548 392.497293,461.121376 385.964541,461.121376 C377.798603,461.121376 375.877205,441.5641 376.837904,438.144459 C377.798603,434.715211 393.650131,420.047254 394.13048,427.386036 Z" id="Path" fill="#3B3F45" fill-rule="nonzero"></path>
                    <g id="Clipped" transform="translate(295.895197, 442.063599)">
                        <mask id="mask-4" fill="white">
                            <use xlink:href="#path-3"></use>
                        </mask>
                        <g id="Path"></g>
                        <g id="Group" mask="url(#mask-4)" fill-rule="nonzero">
                            <g transform="translate(-13.449782, 25.935484)" id="Path">
                                <polygon fill="#666E79" points="129.596076 21.4125254 144.389427 29.0367936 128.558073 59.7463277 113.764722 52.1220594"></polygon>
                                <polygon fill="#666E79" points="107.783217 9.78782322 122.584643 17.3964062 103.613726 54.2920334 88.8122999 46.6834505"></polygon>
                                <polygon fill="#666E79" points="86.3923968 -2.99674925 101.253193 4.49524387 75.0232364 56.5102976 60.1624405 49.0183045"></polygon>
                                <path d="M179.362445,8.56831541 C193.369432,0.268960573 187.876157,16.7139785 200.462271,23.6973477 L227.113974,77.249319 L15.0089956,77.249319 C9.8269869,69.4878853 -8.89799127,29.2494624 6.00820961,23.6973477 C33.3881223,13.5152688 81.639214,48.7298925 101.627511,47.5675986 C121.616769,46.4053047 178.836943,55.1273118 175.476419,36.5017921 C171.589432,14.9657348 166.591878,16.1376344 179.362445,8.56831541 Z" fill="#555D65"></path>
                            </g>
                        </g>
                    </g>
                    <path d="M402.403392,439.141806 L402.556798,439.023558 C404.00253,437.885629 406.097121,438.135001 407.235197,439.580545 C408.373274,441.026089 408.123869,443.120407 406.678137,444.258335 L406.2171,444.610355 C405.042774,445.495217 402.379302,447.457625 401.369992,448.240272 L401.247983,448.335481 C399.613074,449.620905 398.283614,450.821668 397.256449,451.959004 L397.075022,452.163068 L423.658166,444.268834 C426.509252,443.42212 428.926779,446.439393 427.554153,449.015554 L427.472386,449.160874 L419.322882,462.901319 L444.6225,454.205817 C447.587212,453.186738 450.156849,456.43965 448.56401,459.067822 L448.472977,459.210527 L434.036558,480.746585 C433.012158,482.274772 430.942715,482.683279 429.414329,481.659013 C427.938646,480.670065 427.506891,478.707032 428.400909,477.19734 L428.501783,477.037386 L437.425328,463.72357 L412.919247,472.14819 C410.041117,473.137507 407.48417,470.079889 408.888385,467.445138 L408.970496,467.299226 L417.404367,453.075613 L392.240174,460.549116 C390.162267,461.166212 388.076028,459.668324 387.964776,457.535133 L387.960119,457.355928 C387.960119,452.004435 391.199596,447.760761 397.12942,443.098519 L397.548498,442.77442 C398.892479,441.746639 401.6042,439.750527 402.403392,439.141806 Z" id="Path" fill="#7F8389" fill-rule="nonzero"></path>
                </g>
                <g id="upper-limb" transform="translate(0.000001, 449.563180)" fill-rule="nonzero">
                    <path d="M194.593685,389.510123 C217.072711,380.17001 237.947181,392.834096 243.807658,416.151757 L244.041453,417.071481 C245.037735,420.947893 246.31471,425.392546 248.022616,430.981841 L250.66643,439.473271 C252.303915,444.692273 254.198023,450.705033 254.536337,451.789891 L255.714995,455.591329 C258.469654,464.532087 260.564695,471.766131 262.438876,478.971436 C267.665943,499.066947 270.32871,516.070019 269.947584,531.806848 C269.434129,553.007605 263.237435,571.267071 249.744235,585.271995 L249.276057,585.753235 L210.208831,547.386498 C216.834577,540.64154 217.265909,522.831683 209.442082,492.752901 L209.098008,491.440753 C207.416369,485.078667 205.455615,478.391501 202.815083,469.876687 L199.387249,458.954323 L199.315023,459.053733 C189.147335,472.882102 177.654552,491.368646 167.846311,509.278529 L167.322499,510.237406 L119.236626,484.041826 C132.944102,458.886278 149.552188,432.796352 163.89963,415.403393 C174.476702,402.581137 183.939905,393.936805 194.593685,389.510123 Z" id="Path" fill="#323337"></path>
                    <path d="M44.3277892,558.741193 C66.1965578,450.924505 119.262095,475.626612 144.240261,469.76039 C257.602706,469.76039 243.418951,541.402842 245.340348,572.68872 C247.261746,603.984204 237.654759,766.30191 210.755195,791.72829 C183.855632,817.145064 25.1137193,763.112806 4.93905646,731.817322 C4.93905646,668.006426 15.5067324,635.010727 44.3277892,558.741193 Z" id="Path" fill="#3F4244"></path>
                    <path d="M206.561746,643.771157 C209.862706,608.585351 201.882182,489.649064 186.030654,473.515272 C268.650741,490.137996 249.895021,572.410153 249.895021,634.972304 C249.895021,708.609867 221.006811,792.352662 206.561746,797.241981 C192.117641,802.1313 133.37668,788.443128 154.562008,792.352662 C175.747335,796.271802 200.784104,705.353523 206.561746,643.771157 Z" id="Path" fill="#37383B"></path>
                    <path d="M175.943318,755.284132 L175.943318,654.568003 L137.51537,659.457322 C133.672575,693.682555 128.292663,763.89087 137.51537,770.931874 C149.043754,779.730727 175.943318,760.173451 175.943318,755.284132 Z" id="Path" fill="#37383C"></path>
                    <path d="M39.8825403,616.029795 L39.9803394,616.039401 C71.4912565,611.342196 143.415981,636.249867 175.438951,649.284849 C176.079737,652.541193 173.709693,661.801121 159.107073,672.751659 C140.853798,686.439831 149.322357,760.413594 137.971702,766.628505 C112.537204,780.55682 12.6246364,735.573164 0.591704675,725.554383 C-1.64992432,707.630082 2.53688703,654.654454 12.144287,635.83682 C23.0281386,614.512089 29.0562346,615.059616 39.8825403,616.029795 Z" id="Path" fill="#4F5256"></path>
                    <path d="M18.8870656,640.355839 C19.0916032,638.243677 20.9698829,636.69722 23.0823208,636.901731 C51.5843242,639.661089 127.209529,662.655835 140.635099,671.772846 C142.390779,672.96509 142.847408,675.354669 141.655009,677.110121 C140.462609,678.865572 138.072719,679.322142 136.317039,678.129898 C124.088026,669.825443 49.6629079,647.195597 22.3416245,644.550548 C20.2291867,644.346037 18.682528,642.468002 18.8870656,640.355839 Z" id="Path" fill="#37383B"></path>
                    <path d="M207.382062,85.368696 C221.420109,62.8612089 251.048496,55.9938878 273.558917,70.030105 C295.844234,83.92596 302.798626,113.099916 289.314382,135.520998 L288.520732,136.818003 C285.326845,142.139235 279.211883,154.572833 272.935124,169.239873 L272.677091,169.843873 C264.052861,190.0665 255.964015,212.317681 249.445818,234.565023 C233.326187,289.583152 228.865003,337.485811 238.373379,368.718337 C246.098772,394.094235 231.78753,420.927318 206.408324,428.651705 C181.029118,436.376092 154.192537,422.066714 146.467143,396.690816 C137.644714,367.711444 135.525594,335.129285 138.843055,299.507519 C141.571098,270.214726 147.956736,239.28101 157.250599,207.560004 C171.44518,159.11229 193.19077,108.121884 207.382062,85.368696 Z" id="Path" fill="#F5D0C3"></path>
                    <path d="M516.69578,67.00952 C539.20597,52.9729321 568.83447,59.8397652 582.872888,82.3470211 C601.565481,112.316138 619.019142,144.107783 633.340757,178.756916 C643.766165,203.979724 651.034099,227.670123 654.386077,249.793755 C658.934132,279.811696 656.356968,306.873768 643.575676,330.226543 C630.840173,353.495656 601.650207,362.03618 578.37806,349.302337 C555.338636,336.695832 546.736583,307.96441 558.924092,284.813045 L559.29978,284.113219 C559.33572,284.047553 559.437865,283.793693 559.577698,283.298469 C559.834622,282.38857 560.053999,281.179093 560.197759,279.669503 C560.578439,275.672088 560.348555,270.442251 559.399975,264.181463 C557.359112,250.711419 552.257196,234.081323 544.554453,215.445621 C532.678306,186.712953 517.476027,159.022174 501.35628,133.178003 C487.317862,110.670747 494.185591,81.0461079 516.69578,67.00952 Z" id="Path" fill="#F5D0C3"></path>
                    <path d="M198.184453,89.6336086 C226.179213,36.5302251 271.931527,40.5377376 291.372226,42.5491785 L255.083754,226.601781 L148.70847,191.855917 C154.472663,183.295286 158.903405,184.342311 160.717204,178.25996 C166.822444,157.79206 176.603318,130.571329 198.184453,89.6336086 Z" id="Path" fill="#D13227"></path>
                    <polygon id="Path" fill="#E23F34" points="147.991789 190.345895 194.448296 202.43087 241.415894 212.502483 234.268296 232.644748 194.448296 224.587458 135.739038 205.452834"></polygon>
                    <path d="M142.463929,221.063114 L204.914147,229.623745 L265.197029,239.694397 L269.276156,265.37629 L236.612401,262.858627 C236.612401,262.858627 211.153885,271.418297 188.577466,256.815659 C166.001047,242.21206 134.29799,233.651429 134.29799,233.651429 L142.463929,221.063114 Z" id="Path" fill="#D13227"></path>
                    <polygon id="Path" fill="#B62C23" points="136.219387 204.948533 199.145152 224.587458 251.022881 229.119444 242.376593 253.290354 190.979213 241.204419 141.50323 221.062153"></polygon>
                    <path d="M596.874409,90.3722896 C568.879649,37.2689061 523.127335,41.2764186 503.686636,43.2878595 L539.975108,227.339501 L646.350392,192.594598 C640.5862,184.033967 636.155457,185.080992 634.341658,178.99768 C628.236418,158.529781 618.455545,131.31001 596.874409,90.3722896 Z" id="Path" fill="#D13227"></path>
                    <polygon id="Path" fill="#E23F34" points="647.067073 191.083616 600.610567 203.169551 553.642968 213.240204 560.790567 233.382469 600.610567 225.326139 659.319824 206.190555"></polygon>
                    <path d="M652.594933,221.800834 L590.144715,230.361465 L529.861833,240.433078 L525.782706,266.11401 L556.044715,274.037781 C556.044715,274.037781 580.062182,257.553379 606.481396,257.553379 C632.90061,257.553379 656.509837,283.546124 656.509837,283.546124 L657.878776,251.547874 L652.594933,221.800834 Z" id="Path" fill="#D13227"></path>
                    <polygon id="Path" fill="#B62C23" points="658.839475 205.687214 595.913711 225.325178 544.035981 229.857164 552.68227 254.028075 604.079649 241.9431 653.555632 221.800834"></polygon>
                    <path d="M254.394933,75.6217233 C259.09275,46.7747412 283.826898,25.7170495 313.063842,25.4442466 L403.56454,24.5970208 L488.226112,32.1317591 C515.538776,34.56201 537.877903,55.0481606 542.127073,82.1574652 C551.762881,143.630325 567.154235,253.830196 567.154235,330.560806 C567.154235,442.253408 588.180086,452.935946 555.62585,467.570282 C523.072575,482.20558 262.6262,480.14611 227.066898,457.456404 C191.508558,434.767659 213.618077,411.129867 213.618077,364.802368 C213.618077,330.499329 240.46096,161.196333 254.394933,75.6217233 Z" id="Path" fill="#E23D32"></path>
                    <ellipse id="Oval" fill="#CC2217" cx="392.725938" cy="63.9517161" rx="57.1615721" ry="63.9517161"></ellipse>
                    <path d="M358.621134,125.889494 C327.878776,119.444046 261.590567,49.3490781 296.175719,13.0931928 C318.271789,-17.1197247 353.817641,23.1648057 358.621134,43.307071 C362.463929,59.420691 373.031615,99.0328201 379.756505,109.775874 C387.442095,117.496963 389.363492,132.334942 358.621134,125.889494 Z" id="Path" fill="#F06057"></path>
                    <path d="M431.635195,125.674325 C462.377553,119.228877 528.665763,49.1339097 494.08061,12.8780244 C471.98454,-17.3348932 436.438689,22.9496373 431.635195,43.0919025 C427.792401,59.2055226 417.224715,98.8186122 410.499824,109.560705 C402.814235,117.281795 400.892837,132.120734 431.635195,125.674325 Z" id="Path" fill="#F06057"></path>
                    <path d="M321.726365,176.872584 L357.182194,174.273322 L363.930115,275.447245 L328.474286,278.046507 L326.206201,244.04714 L320.146114,244.491885 L322.413458,278.489386 L286.958589,281.088648 L280.210668,179.914725 L315.665537,177.315463 L317.869258,210.349262 L323.928384,209.904516 L321.726365,176.872584 Z M355.75345,268.340043 L350.028518,182.503013 L329.902128,183.977963 L332.106518,217.011275 L310.715759,218.578659 L308.511925,185.546109 L288.386502,187.021166 L294.11214,272.859541 L314.237687,271.383886 L311.970018,237.38627 L333.360777,235.818887 L335.627773,269.815484 L355.75345,268.340043 Z M411.622721,170.283055 L447.07855,167.683792 L451.308517,231.10005 C452.806269,253.561367 436.932759,270.822019 415.094206,272.423348 C393.467628,274.007923 375.729888,259.493074 373.919197,237.347912 L373.869215,236.674519 L369.646977,173.359767 L405.10184,170.760435 L409.300008,233.693998 C409.44556,235.871995 409.968152,237.195822 410.577131,237.801706 C410.953916,238.177125 411.539381,238.374196 412.715732,238.287904 C413.949776,238.197142 414.621727,237.861596 415.025665,237.344867 C415.569155,236.649922 415.918706,235.374031 415.830862,233.428405 L415.813321,233.115622 L411.622721,170.283055 Z M459.597131,166.764474 L495.051995,164.167063 L501.801837,265.339065 L466.345116,267.938393 L459.597131,166.764474 Z M439.924942,175.912581 L419.798554,177.387567 L423.481866,232.604109 C423.742431,236.508659 422.90026,239.751007 421.080513,242.077864 C419.292502,244.365143 416.604928,245.707208 413.278813,245.95184 C409.957391,246.195485 407.172478,245.258065 405.154118,243.247023 C403.184525,241.287444 401.981758,238.348812 401.663234,234.623077 L401.631488,234.205877 L397.947336,178.988459 L377.822748,180.465271 L381.537765,236.163094 C382.751222,254.350982 396.862959,266.053955 414.532303,264.759326 C432.072798,263.473155 444.597555,250.031767 443.672126,232.15442 L443.639957,231.611332 L439.924942,175.912581 Z M487.897555,172.395082 L467.772965,173.870918 L473.498603,259.70929 L493.624151,258.233649 L487.897555,172.395082 Z" id="Shape" fill="#F06057"></path>
                    <path d="M347.09275,98.0155728 C350.729428,98.0155728 353.691884,100.901888 353.813741,104.508425 L353.817641,104.739587 L353.817641,241.217867 C353.817641,244.931437 350.806805,247.941881 347.09275,247.941881 C343.456071,247.941881 340.493616,245.055566 340.371759,241.449028 L340.367859,241.217867 L340.367859,104.739587 C340.367859,101.026017 343.378695,98.0155728 347.09275,98.0155728 Z" id="Path" fill="#CC2217"></path>
                    <path d="M347.09275,234.788748 C349.675833,234.788748 351.782706,236.82738 351.891805,239.383277 L351.896243,239.591616 L351.896243,251.777451 C351.896243,254.430001 349.745646,256.580318 347.09275,256.580318 C344.509667,256.580318 342.402794,254.541687 342.293694,251.985789 L342.289256,251.777451 L342.289256,239.591616 C342.289256,236.939065 344.439854,234.788748 347.09275,234.788748 Z" id="Path" fill="#FFAB49"></path>
                    <path d="M441.241222,98.0155728 C444.8779,98.0155728 447.840356,100.901888 447.962213,104.508425 L447.966112,104.739587 L447.966112,261.849064 C447.966112,265.562634 444.955276,268.573078 441.241222,268.573078 C437.604543,268.573078 434.642087,265.686763 434.52023,262.080226 L434.516331,261.849064 L434.516331,104.739587 C434.516331,101.026017 437.527167,98.0155728 441.241222,98.0155728 Z" id="Path" fill="#CC2217"></path>
                    <path d="M441.241222,255.031874 C443.824305,255.031874 445.931178,257.070505 446.040277,259.626403 L446.044715,259.834741 L446.044715,273.934039 C446.044715,276.586589 443.894118,278.736906 441.241222,278.736906 C438.658138,278.736906 436.551265,276.698275 436.442166,274.142377 L436.437728,273.934039 L436.437728,259.834741 C436.437728,257.182191 438.588325,255.031874 441.241222,255.031874 Z" id="Path" fill="#FFAB49"></path>
                    <path d="M562.721967,282.458724 C574.358854,259.510137 602.398345,250.338964 625.349923,261.974334 C648.301501,273.609705 657.47387,301.645541 645.836983,324.594128 C627.04536,361.65225 600.304032,387.853087 567.751848,403.467494 C542.407555,415.62447 515.844159,420.518512 488.034933,420.518512 C462.30184,420.518512 441.441047,399.660437 441.441047,373.930698 C441.441047,348.200959 462.30184,327.342885 488.034933,327.342885 C502.917526,327.342885 516.054094,324.922602 527.444657,319.458856 C541.484075,312.724524 553.191102,301.254118 562.721967,282.458724 Z" id="Path" fill="#F5D0C3"></path>
                    <path d="M273.547422,350.603171 C278.897553,325.286297 301.244366,307.169881 327.123667,307.169881 L392.659649,307.169881 L494.482182,307.169881 C499.860173,307.169881 505.302532,307.913365 509.733274,310.961265 C518.953099,317.305852 534.444366,333.292677 539.712837,370.812677 C547.398427,425.542311 539.712837,434.455472 539.712837,434.455472 C539.712837,434.455472 460.455195,452.194383 392.659649,452.194383 C324.864104,452.194383 255.826374,434.455472 255.826374,434.455472 L269.276156,370.812677 L273.547422,350.603171 Z" id="Path" fill="#CC2217"></path>
                </g>
                <g id="hand" transform="translate(195.392183, 0.000034)" fill-rule="nonzero">
                    <rect id="Rectangle" fill="#EBBAAA" x="161.027031" y="441.522762" width="76.8558952" height="116.105477" rx="36.9132057"></rect>
                    <ellipse id="Oval" fill="#EBBAAA" cx="55.7872926" cy="304.346146" rx="55.7872926" ry="55.4724459"></ellipse>
                    <ellipse id="Oval" fill="#EBBAAA" cx="345.918297" cy="308.647594" rx="55.7872926" ry="55.4724459"></ellipse>
                    <path d="M35.5655459,187.82378 C38.1046725,142.93426 70.9634498,105.576597 115.167118,97.3262317 L175.088777,86.1416023 C197.774716,81.9072023 221.073581,82.1896109 243.65,86.9726904 L358.840655,111.3775 L373.251135,257.93988 L373.251135,322.992798 C373.251135,416.229902 297.657598,491.813587 204.408341,491.813587 C111.159083,491.813587 35.5655459,416.229902 35.5655459,322.992798 L35.5655459,187.82378 Z" id="Path" fill="#F4D4CA"></path>
                    <path d="M137.424025,268.181371 C143.85021,268.181371 149.077648,273.312796 149.232048,279.700944 L149.235559,279.992166 L149.234598,308.312754 C149.234377,314.835455 143.945814,320.122749 137.422263,320.122749 C130.996078,320.122749 125.76864,314.991323 125.61424,308.603175 L125.610729,308.311953 L125.61169,279.991365 C125.611911,273.468664 130.900474,268.181371 137.424025,268.181371 Z" id="Path" fill="#000000"></path>
                    <path d="M258.227082,268.181371 C264.653267,268.181371 269.880705,273.312796 270.035105,279.700944 L270.038616,279.992166 L270.037655,308.312754 C270.037434,314.835455 264.748871,320.122749 258.22532,320.122749 C251.799135,320.122749 246.571697,314.991323 246.417297,308.603175 L246.413786,308.311953 L246.414747,279.991365 C246.414968,273.468664 251.703531,268.181371 258.227082,268.181371 Z" id="Path" fill="#000000"></path>
                    <path d="M169.929593,386.151336 C171.520871,382.504482 175.767602,380.83794 179.414932,382.42901 L180.194473,382.763594 C192.887531,388.120735 203.755154,388.19316 228.60027,382.039293 C232.462862,381.08257 236.369791,383.437836 237.326638,387.299925 C238.283485,391.162015 235.927913,395.068434 232.06532,396.025156 C203.880293,403.006283 189.947024,402.743622 173.652405,395.635439 C170.005075,394.044368 168.338315,389.798191 169.929593,386.151336 Z" id="Path" fill="#C99584"></path>
                    <path d="M91.204023,232.180229 C91.6365578,225.926986 96.9803738,221.184715 103.207803,221.459553 L103.500345,221.476124 L158.841393,225.303049 C165.193171,225.742284 169.986187,231.246818 169.546894,237.597768 C169.114359,243.851011 163.770543,248.593282 157.543114,248.318445 L157.250572,248.301874 L101.909524,244.474949 C95.5577458,244.035713 90.7647298,238.53118 91.204023,232.180229 Z" id="Path" fill="#272727"></path>
                    <path d="M295.870879,219.527656 C302.218647,219.033851 307.76489,223.778755 308.258759,230.125695 C308.745031,236.374991 304.151883,241.847335 297.951162,242.485598 L297.659339,242.511961 L243.180038,246.750011 C236.83227,247.243816 231.286027,242.498913 230.792158,236.151972 C230.305886,229.902677 234.899034,224.430333 241.099755,223.792069 L241.391578,223.765707 L295.870879,219.527656 Z" id="Path" fill="#272727"></path>
                    <path d="M268.996114,123.258834 C334.323624,144.40778 344.56179,147.933085 349.694803,174.621658 C358.029825,217.967536 379.581179,205.825888 381.87821,158.003737 C362.288603,18.5027249 252.664236,6.43310952 228.646769,20.5328969 C199.825808,37.4527263 191.067118,98.030332 268.996114,123.258834 Z" id="Path" fill="#484A4B"></path>
                    <path d="M381.87821,160.151455 C381.87821,149.22301 365.938297,164.594232 358.666769,172.752382 L356.035415,175.705185 C353.25131,178.829931 352.086943,183.075665 352.888166,187.184038 L368.705109,268.262203 C369.05,270.028698 370.598646,271.304339 372.398996,271.304339 C374.422227,271.304339 376.084236,269.704984 376.160131,267.682977 L381.87821,160.151455 Z" id="Path" fill="#484A4B"></path>
                    <path d="M310.215852,134.337128 C223.752969,102.109888 61.9655459,149.947407 45.6336681,170.089673 C37.2976856,213.435551 24.8883406,197.784927 22.9669432,152.984741 C43.1416157,29.5972525 158.539782,-32.9056307 289.08048,17.5119894 C362.093581,45.7112568 381.307555,110.166217 310.215852,134.337128 Z" id="Path" fill="#272727"></path>
                    <path d="M23.9276419,82.4706747 C50.8272052,85.4920625 56.111048,78.2744094 71.4822271,68.8747177 L71.4822271,93.045436 L60.9145415,115.201543 C43.6219651,115.201543 31.6132314,110.669558 23.9276419,82.4706747 Z" id="Path" fill="#272727"></path>
                    <path d="M2.79227074,109.662877 C29.6918341,112.68388 34.9756769,105.466131 50.3468559,96.0669198 L50.3468559,120.23783 L39.7791703,142.393457 C22.4865939,142.393457 10.4778603,137.861472 2.79227074,109.662877 Z" id="Path" fill="#272727"></path>
                    <path d="M98.8890393,84.9878575 C96.2644105,120.385759 96.0703493,160.762504 96.0703493,160.762504 L148.933755,123.15125 C148.933755,123.15125 121.450087,115.961357 98.8890393,84.9878575 Z" id="Path" fill="#272727"></path>
                    <path d="M69.1073799,96.3454861 C66.4827511,131.74454 66.28869,172.120325 66.28869,172.120325 L102.79524,139.651981 C102.79524,139.651981 91.6684279,127.319178 69.1073799,96.3454861 Z" id="Path" fill="#272727"></path>
                    <path d="M132.424148,73.9098517 C129.798559,109.308425 129.604498,149.68421 129.604498,149.68421 L182.467904,112.073916 C182.467904,112.073916 154.985197,104.883063 132.424148,73.9098517 Z" id="Path" fill="#272727"></path>
                    <path d="M21.1444978,131.15763 C22.1426638,119.23307 37.1920087,114.64249 44.6777729,123.978303 C46.7768996,126.597787 47.8038865,129.915608 47.550262,133.263207 L37.1122707,271.012325 C36.9700873,272.881601 35.4118341,274.325343 33.5375109,274.325343 C31.840917,274.325343 30.3777729,273.137113 30.0290393,271.477242 L16.4524454,206.771092 C15.6762009,203.070002 15.4417904,199.275737 15.7568996,195.507407 L21.1444978,131.15763 Z" id="Path" fill="#272727"></path>
                    <path d="M187.982799,302.157508 L202.841917,308.934296 L200.918634,313.0919 C200.076321,314.929709 199.364435,316.543844 198.689371,318.168806 C196.772154,322.78378 195.385239,326.955479 194.600419,330.759105 C193.431064,336.426375 193.759022,340.580852 195.375141,343.020055 C197.235184,345.827413 201.617766,347.669284 209.927777,347.735333 L210.393493,347.737171 L210.393493,364.06692 C196.782442,364.06692 187.082933,360.072644 181.759906,352.038614 C177.298702,345.305331 176.641359,336.978308 178.605391,327.459637 C179.629015,322.498651 181.324658,317.39833 183.60691,311.904671 C184.176239,310.534229 184.761629,309.187025 185.405954,307.75423 L186.526726,305.302566 L187.982799,302.157508 Z" id="Path" fill="#EBBAAA"></path>
                </g>
            </g>
        </g>
    </g>
</svg>