<?xml version="1.0" encoding="UTF-8"?>
<svg width="597px" height="1350px" viewBox="0 0 597 1350" version="1.1" xmlns="http://www.w3.org/2000/svg" xmlns:xlink="http://www.w3.org/1999/xlink">
    <!-- Generator: Sketch 55.2 (78181) - https://sketchapp.com -->
    <title>gee_me_023</title>
    <desc>Created with Sketch.</desc>
    <defs>
        <path d="M186.49,87.2 C186.49,87.2 186.096,62.33 180.216,48.8 C174.337,35.27 167.36,0.02 167.36,0.02 C167.36,0.02 158.417,10.48 140.955,11.24 C123.492,11.99 104.79,8.58 104.79,8.58 C104.79,8.58 74.206,52.82 65.967,58.47 C57.729,64.13 21.5,76 17,76.5 C7.675,77.53 -0.023,84.61 0.528,93.98 L1,102 L101.081,98.19 L186.49,87.2 Z" id="path-1"></path>
        <path d="M0.277,61.05 C0.277,61.05 14.928,40.94 27.47,33.22 C40.013,25.5 65.955,0.66 65.955,0.66 C65.955,0.66 67.147,14.28 80.808,24.82 C94.47,35.35 111.529,43.18 111.529,43.18 C111.529,43.18 110.728,96.7 114.119,106 C117.509,115.3 139.915,145.56 143.26,148.53 C150.186,154.67 152.386,164.75 146.623,171.99 L141.481,178.45 L62.89,118.52 L0.277,61.05 Z" id="path-3"></path>
        <rect id="path-5" x="2.01403695" y="1.83184497" width="59" height="67" rx="6"></rect>
    </defs>
    <g id="GEE!-ME" stroke="none" stroke-width="1" fill="none" fill-rule="evenodd">
        <g id="gee_me_023" transform="translate(-306.000000, -130.000000)">
            <g transform="translate(306.000000, 120.000000)">
                <g id="upper-limb" transform="translate(23.000000, 463.535400)" fill-rule="nonzero">
                    <path d="M82.2444707,118.93812 C99.2153415,119.244898 112.724258,133.2512 112.41748,150.222071 C112.153297,164.836616 110.287866,176.711016 106.427338,193.28939 L104.487702,201.595975 C101.887062,212.873646 101.509109,215.51088 101.533843,219.637866 C101.571755,225.963441 104.038895,231.627623 112.729022,240.940374 L113.515511,241.773505 C126.572103,255.448208 149.967716,272.409276 186.539639,293.922425 C201.169759,302.528479 206.053229,321.36512 197.447175,335.995239 C188.841121,350.625359 170.00448,355.508829 155.374361,346.902775 C71.9390009,297.822574 40.3313216,263.950289 40.0679472,220.006256 C40.0276941,213.290023 40.7309291,206.690966 42.0878946,199.358089 L42.2861843,198.305451 C42.798403,195.632608 43.3815478,192.918129 44.1184285,189.713641 L44.9389562,186.209776 C45.5244944,183.732367 46.2469352,180.693444 46.3378824,180.306695 L46.7184328,178.674546 C49.5652412,166.353839 50.7930164,158.377388 50.9605201,149.111129 C51.2642304,132.309967 64.9948438,118.901867 81.7362447,118.932943 L82.2444707,118.93812 Z" id="09" fill="#F6DDD6"></path>
                    <path d="M498.182975,-3.18502665 C511.812604,-13.3012403 531.062413,-10.4530543 541.178627,3.17657489 C565.165706,35.4944957 576.020317,67.8203772 572.824314,97.6573761 C569.689446,126.923636 553.138527,151.109327 528.122481,165.248634 C505.07082,178.277651 476.633451,181.729882 449.307498,174.924766 C420.565215,167.766934 394.795494,149.835673 376.22076,122.971389 C366.567492,109.01005 370.059873,89.8666286 384.021211,80.2133601 C397.98255,70.5600917 417.125971,74.0524726 426.77924,88.0138113 C436.887486,102.633175 449.990237,111.750419 464.161252,115.279497 C476.518641,118.356918 488.805129,116.865367 497.877519,111.737566 C505.985744,107.154721 510.731165,100.220284 511.706936,91.1107614 C513.089899,78.1998054 507.347768,60.925521 492.290049,40.4450624 L491.821373,39.8106251 C481.70516,26.180996 484.553346,6.93118698 498.182975,-3.18502665 Z" id="08" fill="#F6DDD6"></path>
                    <polygon id="07" fill="#4E542B" points="7.1538 146.1466 194 22.4936 216.5 159.6896 133 241.4936"></polygon>
                    <polygon id="06" fill="#303415" points="129.115 254.5316 0 150.9156 23.8462 131.8386 147 229.4936"></polygon>
                    <polygon id="05" fill="#4E542B" points="489 93.0496 343.894 74.4926 334 174.2866 441.593 234.4926"></polygon>
                    <polygon id="04" fill="#303415" points="461.511 246.0056 512.849 93.2226 485.899 89.7596 436.165 235.1946"></polygon>
                    <path d="M98.327,311.0996 L158.808,135.5316 L187.423,48.4926 L241.077,60.4156 L341.231,48.4926 L444.5,291.4926 C444.5,291.4926 461,324.4926 448,335.4926 C435,346.4926 410,346.4926 410,346.4926 L275.654,404.9926 L138.5,358.4926 C138.5,358.4926 109.654,350.4466 102.5,340.3116 C95.346,330.1766 98.327,311.0996 98.327,311.0996 Z" id="03" fill="#676B3B"></path>
                    <path d="M157,188.4926 L232,188.4926 L232,243.4926 C232,254.5386 223.046,263.4926 212,263.4926 L177,263.4926 C165.954,263.4926 157,254.5386 157,243.4926 L157,188.4926 Z" id="02" fill="#4E542B"></path>
                    <ellipse id="01" fill="#303415" cx="260.058" cy="79.8846" rx="76.9038" ry="79.8846"></ellipse>
                </g>
                <g id="lower-limb" transform="translate(108.086000, 808.000000)">
                    <path d="M233.279065,65.4531064 C243.981324,56.9499007 259.501761,58.629727 268.145092,69.1534582 L275.795515,78.7681331 C294.145098,101.880791 304.624142,116.166454 314.687098,132.905249 C328.043728,155.122765 337.299981,177.141347 342.386546,200.737163 C354.315332,256.073026 342.424575,317.44183 302.787986,390.466098 C296.201384,402.600891 281.024695,407.098588 268.889902,400.511986 C256.755109,393.925384 252.257412,378.748695 258.844014,366.613902 C293.129677,303.447883 302.715016,253.977465 293.509329,211.273654 C289.741462,193.795079 282.801857,177.116979 272.471409,159.732333 L271.834694,158.667071 C263.808735,145.316631 255.087685,133.253429 240.225026,114.393835 L229.257106,100.578935 C220.66801,89.7685723 222.468702,74.042203 233.279065,65.4531064 Z" id="14" fill="#F6DDD6" fill-rule="nonzero"></path>
                    <path d="M97.109627,80.0289768 C98.9316272,66.3426025 111.503649,56.7246269 125.190023,58.546627 C138.739534,60.3504072 148.301607,72.6902834 146.723608,86.2167759 L146.672373,86.6270232 C138.29927,149.523519 149.66058,397.689401 163.801371,486.231345 L164.230713,488.865219 C166.497721,502.484955 157.294517,515.363705 143.674781,517.630713 C130.055045,519.897721 117.176295,510.694517 114.909287,497.074781 C108.030127,455.746149 101.134783,371.949664 97.081929,284.293284 L96.8305846,278.772376 C92.8031508,188.898079 92.5968254,113.927927 97.109627,80.0289768 Z" id="13" fill="#F6DDD6" fill-rule="nonzero"></path>
                    <polygon id="12" fill="#002774" fill-rule="nonzero" points="282.473 142.157 103.728 129.609 61.134 34.19 302.102 33.921"></polygon>
                    <polygon id="11" fill="#002774" fill-rule="nonzero" points="171.567 50.444 321.252 51.491 380.817 214.07 355.513 358.3 226.899 341.61 248.441 219.79"></polygon>
                    <polygon id="10" fill="#002774" fill-rule="nonzero" points="57.019 63.395 190.395 57.639 178.979 245.36 178.224 425.01 58.533 423.16 51.098 250.88"></polygon>
                    <path d="M103.414,115.591 C117.873,107.36 125.74,74.776 127.91,59.335 L56.976,62.396 L54.914,123.591 C65.809,124.789 88.955,123.822 103.414,115.591 Z" id="09" fill="#001744" fill-rule="nonzero"></path>
                    <path d="M282.414,102.591 C266.546,95.758 252.043,69.603 248.414,54.591 L319.016,46.082 L340.914,104.474 C329.607,106.611 302.414,111.204 282.414,102.591 Z" id="08" fill="#001744" fill-rule="nonzero"></path>
                    <polygon id="07" fill="#221512" fill-rule="nonzero" points="52.865 13.528 324.612 1.8 322.667 55.934 56.902 67.404"></polygon>
                    <g id="06" transform="translate(0.610860, 358.000000)">
                        <path d="M110.82314,90.76 C114.13914,79.17 106.22814,70.29 101.85814,67.29 C99.8691403,70.35 97.8721403,85.49 93.6121403,97.34 L81.8271403,112.96 L64.0131403,136.26 L41.2091403,148.37 L53.9961403,162.14 C62.0131403,155.43 107.50614,102.36 110.82314,90.76 Z" fill="#3B3937" fill-rule="nonzero"></path>
                        <path d="M186.79314,166.2 C186.79314,166.2 186.39914,141.33 180.51914,127.8 C174.64014,114.27 167.66314,79.02 167.66314,79.02 C167.66314,79.02 158.72014,89.48 141.25814,90.24 C123.79514,90.99 105.09314,87.58 105.09314,87.58 C105.09314,87.58 74.5091403,131.82 66.2701403,137.47 C58.0321403,143.13 17.2371403,156.03 17.2371403,156.03 C8.17714034,156.42 1.15014034,164.08 1.54114034,173.14 L1.90114034,181.48 L101.38414,177.19 L186.79314,166.2 Z" fill="#1C1B19" fill-rule="nonzero"></path>
                        <g transform="translate(0.303140, 79.000000)">
                            <mask id="mask-2" fill="white">
                                <use xlink:href="#path-1"></use>
                            </mask>
                            <g></g>
                            <circle fill="#D0CEC1" fill-rule="nonzero" mask="url(#mask-2)" cx="17" cy="103" r="31"></circle>
                        </g>
                        <path d="M88.0575936,98.5173898 C88.618172,96.9204829 90.3247163,96.0533441 91.9307763,96.5146946 L92.1087506,96.5714532 L97.4927506,98.4614532 C99.1488022,99.0427938 100.020028,100.856559 99.4386871,102.51261 C98.8781087,104.109517 97.1715644,104.976656 95.5655044,104.515305 L95.3875301,104.458547 L90.0035301,102.568547 C88.3474785,101.987206 87.476253,100.173441 88.0575936,98.5173898 Z" fill="#ECECEC" fill-rule="nonzero"></path>
                        <path d="M81.5896547,108.337216 C82.1503258,106.740341 83.8569204,105.873302 85.4629537,106.334745 L85.6409246,106.391514 L91.0239246,108.281514 C92.6799425,108.862951 93.5510627,110.676766 92.969626,112.332784 C92.4089549,113.929659 90.7023603,114.796698 89.096327,114.335255 L88.9183561,114.278486 L83.5353561,112.388486 C81.8793382,111.807049 81.008218,109.993234 81.5896547,108.337216 Z" fill="#ECECEC" fill-rule="nonzero"></path>
                        <path d="M74.5899167,118.192179 C75.1479446,116.594379 76.853102,115.724516 78.4598967,116.183302 L78.6379614,116.239776 L84.0209614,118.119776 C85.6779391,118.698472 86.5520596,120.510843 85.973364,122.167821 C85.4153361,123.765621 83.7101786,124.635484 82.103384,124.176698 L81.9253193,124.120224 L76.5423193,122.240224 C74.8853416,121.661528 74.0112211,119.849157 74.5899167,118.192179 Z" fill="#ECECEC" fill-rule="nonzero"></path>
                        <path d="M65.4775936,128.11739 C66.038172,126.520483 67.7447163,125.653344 69.3507763,126.114695 L69.5287506,126.171453 L74.9127506,128.061453 C76.5688022,128.642794 77.4400277,130.456559 76.8586871,132.11261 C76.2981087,133.709517 74.5915644,134.576656 72.9855044,134.115305 L72.8075301,134.058547 L67.4235301,132.168547 C65.7674785,131.587206 64.896253,129.773441 65.4775936,128.11739 Z" fill="#ECECEC" fill-rule="nonzero"></path>
                        <path d="M57.3765936,136.94739 C57.937172,135.350483 59.6437163,134.483344 61.2497763,134.944695 L61.4277506,135.001453 L66.8117506,136.891453 C68.4678022,137.472794 69.3390277,139.286559 68.7576871,140.94261 C68.1971087,142.539517 66.4905644,143.406656 64.8845044,142.945305 L64.7065301,142.888547 L59.3225301,140.998547 C57.6664785,140.417206 56.795253,138.603441 57.3765936,136.94739 Z" fill="#ECECEC" fill-rule="nonzero"></path>
                        <path d="M187.75714,165.91 L94.2771403,174.18 L0.962140345,173.97 L0.019140345,186.21 C-0.266859655,189.92 2.68914034,193.09 6.41414034,193.05 L93.1121403,192.26 L141.46614,190.7 L189.72814,187.03 L187.75714,165.91 Z" fill="#D0CEC1" fill-rule="nonzero"></path>
                        <path d="M188.644108,175.93797 L188.978173,180.16203 L159.516304,182.550173 L149.38737,183.3421 C136.617097,184.320056 127.013191,184.965641 120.731055,185.236673 L119.175784,185.298627 C105.781986,185.79477 77.8576561,185.960342 66.3214263,185.523318 L65.4225793,185.486558 L65.6097014,181.253442 L66.9699344,181.306944 C78.8189441,181.722655 106.650201,181.545219 119.537281,181.044635 L121.311735,180.969325 C126.894231,180.712666 134.946169,180.180014 145.348478,179.399029 L154.8424,178.669063 L188.644108,175.93797 Z" fill="#1C1B19" fill-rule="nonzero"></path>
                        <path d="M68.5501403,192.26 L68.1391403,182.73 L67.9791403,179.03 L0.638140345,178.75 L0.054140345,187.38 C-0.154859655,190.47 2.31214034,193.08 5.40414034,193.04 L68.5501403,192.26 Z" fill="#ECEADF" fill-rule="nonzero"></path>
                        <circle fill="#DCE0E4" fill-rule="nonzero" transform="translate(147.852140, 125.750000) scale(-1, 1) rotate(2.471280) translate(-147.852140, -125.750000) " cx="147.85214" cy="125.75" r="19.0676007"></circle>
                        <path d="M147.29214,111.73 C146.82314,110.99 145.70714,111.1 145.40214,111.93 L142.56414,119.6 C142.44314,119.93 142.16914,120.18 141.83114,120.26 L133.90014,122.27 C133.04914,122.49 132.81514,123.59 133.50414,124.13 L139.92614,129.2 C140.19914,129.42 140.34914,129.76 140.32614,130.1 L139.79014,138.27 C139.73214,139.14 140.70414,139.71 141.43414,139.22 L148.24114,134.68 C148.53114,134.49 148.89814,134.45 149.22214,134.58 L156.82114,137.61 C157.63614,137.93 158.47114,137.18 158.23314,136.34 L156.01914,128.46 C155.92414,128.13 156.00114,127.77 156.22414,127.5 L161.45714,121.21 C162.01914,120.53 161.56314,119.51 160.68514,119.47 L152.51014,119.14 C152.16114,119.13 151.84214,118.95 151.65614,118.65 L147.29214,111.73 Z" fill="#5B568E" fill-rule="nonzero"></path>
                        <path d="M292.37414,42.53 C296.37814,31.17 307.88214,28.4 313.13414,28.439575 C312.98014,32.06 305.86614,45.57 302.47814,57.67 L302.99114,77.13 L303.94514,106.28 L315.37014,129.13 L297.11814,133.12 C294.51314,123.09 288.37014,53.89 292.37414,42.53 Z" fill="#3B3937" fill-rule="nonzero"></path>
                        <path d="M187.58014,61.05 C187.58014,61.05 202.23114,40.94 214.77314,33.22 C227.31514,25.51 253.25714,0.66 253.25714,0.66 C253.25714,0.66 254.44914,14.29 268.11114,24.82 C281.77214,35.35 298.83214,43.18 298.83214,43.18 C298.83214,43.18 298.03114,96.7 301.42114,106 C304.81114,115.3 330.31214,149 330.31214,149 C337.39714,154.46 338.71414,164.64 333.25214,171.72 L328.02214,178.51 L250.19314,118.52 L187.58014,61.05 Z" fill="#1C1B19" fill-rule="nonzero"></path>
                        <g transform="translate(187.303140, 0.000000)">
                            <mask id="mask-4" fill="white">
                                <use xlink:href="#path-3"></use>
                            </mask>
                            <g></g>
                            <ellipse fill="#D0CEC1" fill-rule="nonzero" mask="url(#mask-4)" transform="translate(127.989000, 170.190000) scale(-1, 1) rotate(-35.164876) translate(-127.989000, -170.190000) " cx="127.989" cy="170.19" rx="30.5933213" ry="30.9992551"></ellipse>
                        </g>
                        <path d="M294.761722,58.5737814 C295.218292,56.9418425 296.868726,55.9656004 298.503338,56.3258395 L298.678359,56.3695816 L304.111359,57.8895816 C305.801581,58.3624581 306.788435,60.1159963 306.315559,61.8062186 C305.858988,63.4381575 304.208555,64.4143996 302.573943,64.0541605 L302.398922,64.0104184 L296.965922,62.4904184 C295.275699,62.0175419 294.288845,60.2640037 294.761722,58.5737814 Z" fill="#ECECEC" fill-rule="nonzero"></path>
                        <path d="M294.324722,70.2737814 C294.781292,68.6418425 296.431726,67.6656004 298.066338,68.0258395 L298.241359,68.0695816 L303.674359,69.5895816 C305.364581,70.0624581 306.351435,71.8159963 305.878559,73.5062186 C305.421988,75.1381575 303.771555,76.1143996 302.136943,75.7541605 L301.961922,75.7104184 L296.528922,74.1904184 C294.838699,73.7175419 293.851845,71.9640037 294.324722,70.2737814 Z" fill="#ECECEC" fill-rule="nonzero"></path>
                        <path d="M294.298264,82.2990092 C294.752047,80.666293 296.400811,79.6872337 298.036035,80.0446807 L298.211131,80.0881239 L303.644131,81.5981239 C305.335159,82.0681131 306.325006,83.8199633 305.855016,85.5109908 C305.401234,87.143707 303.75247,88.1227663 302.117245,87.7653193 L301.94215,87.7218761 L296.50915,86.2118761 C294.818122,85.7418869 293.828275,83.9900367 294.298264,82.2990092 Z" fill="#ECECEC" fill-rule="nonzero"></path>
                        <path d="M295.929264,95.5990092 C296.383047,93.966293 298.031811,92.9872337 299.667035,93.3446807 L299.842131,93.3881239 L305.275131,94.8981239 C306.966159,95.3681131 307.956006,97.1199633 307.486016,98.8109908 C307.032234,100.443707 305.38347,101.422766 303.748245,101.065319 L303.57315,101.021876 L298.14015,99.5118761 C296.449122,99.0418869 295.459275,97.2900367 295.929264,95.5990092 Z" fill="#ECECEC" fill-rule="nonzero"></path>
                        <path d="M297.380722,107.403781 C297.837292,105.771843 299.487726,104.7956 301.122338,105.155839 L301.297359,105.199582 L306.730359,106.719582 C308.420581,107.192458 309.407435,108.945996 308.934559,110.636219 C308.477988,112.268157 306.827555,113.2444 305.192943,112.884161 L305.017922,112.840418 L299.584922,111.320418 C297.894699,110.847542 296.907845,109.094004 297.380722,107.403781 Z" fill="#ECECEC" fill-rule="nonzero"></path>
                        <path d="M186.97414,60.26 L257.66314,120.09 L333.11014,172.9 L326.81014,183.45 C324.90314,186.65 320.67414,187.53 317.65214,185.36 L248.18814,135.53 L210.05414,106.8 L173.21214,76.4 L186.97414,60.26 Z" fill="#D0CEC1" fill-rule="nonzero"></path>
                        <path d="M177.771319,71.2204747 L180.476961,67.9595253 L207.323794,90.3130692 L213.78572,95.6491205 C221.564619,102.050938 227.636565,106.958192 231.927685,110.287202 L233.328861,111.366114 C243.545971,119.173105 266.368669,135.444466 275.973926,141.672354 L276.723256,142.154944 L274.441024,145.725056 L273.282065,144.976154 C263.353542,138.500137 240.914735,122.495496 230.748704,114.727226 L229.022629,113.396 C224.504266,109.881202 218.13506,104.724277 209.977604,98.002223 L177.771319,71.2204747 Z" fill="#1C1B19" fill-rule="nonzero"></path>
                        <path d="M268.01514,149.47 L273.83514,141.92 L276.09914,138.99 L330.61514,177 L326.10814,184.39 C324.50014,187.03 320.98714,187.73 318.48414,185.93 L268.01514,149.47 Z" fill="#ECEADF" fill-rule="nonzero"></path>
                        <ellipse fill="#DCE0E4" fill-rule="nonzero" transform="translate(242.327140, 50.090000) rotate(37.625400) translate(-242.327140, -50.090000) " cx="242.32714" cy="50.09" rx="18.817" ry="19.0676"></ellipse>
                        <path d="M250.82414,38.97 C251.63714,38.63 252.48814,39.37 252.25814,40.22 L250.13714,48.07 C250.04514,48.41 250.12614,48.77 250.35414,49.04 L255.58614,55.17 C256.15314,55.84 255.71814,56.87 254.84714,56.92 L246.73114,57.42 C246.38714,57.44 246.07414,57.63 245.89414,57.92 L241.62514,64.9 C241.16514,65.65 240.04614,65.54 239.73314,64.72 L236.87014,57.18 C236.74514,56.85 236.46414,56.61 236.12014,56.53 L228.28114,54.7 C227.42514,54.5 227.17014,53.41 227.85114,52.85 L234.17414,47.67 C234.44114,47.45 234.58514,47.12 234.56014,46.77 L233.95914,38.65 C233.89414,37.78 234.85214,37.21 235.58714,37.68 L242.36314,42.05 C242.65714,42.24 243.02614,42.27 243.34814,42.13 L250.82414,38.97 Z" fill="#5B568E" fill-rule="nonzero"></path>
                    </g>
                    <polygon id="05" fill="#6E86B7" fill-rule="nonzero" points="51 412.98 184.028 407.24 182.873 450.85 60.456 456.13"></polygon>
                    <polygon id="04" fill="#6E86B7" fill-rule="nonzero" points="222.479 322.5 368.254 350.82 351.018 391.81 216.166 365.61"></polygon>
                    <g id="03" transform="translate(153.914000, 0.000000)">
                        <mask id="mask-6" fill="white">
                            <use xlink:href="#path-5"></use>
                        </mask>
                        <g transform="translate(31.514037, 35.331845) rotate(-2.471280) translate(-31.514037, -35.331845) "></g>
                        <path d="M55.014037,-12.168155 L8.01403695,-12.168155 C-3.03165804,-12.168155 -11.985963,-3.21385003 -11.985963,7.83184497 L-11.985963,62.831845 C-11.985963,73.87754 -3.03165804,82.831845 8.01403695,82.831845 L55.014037,82.831845 C66.059732,82.831845 75.014037,73.87754 75.014037,62.831845 L75.014037,7.83184497 C75.014037,-3.21385003 66.059732,-12.168155 55.014037,-12.168155 Z M47.014,15.831 L47.014,54.831 L16.014,54.831 L16.014,15.831 L47.014,15.831 Z" fill="#000000" fill-rule="nonzero" mask="url(#mask-6)" transform="translate(31.514037, 35.331845) rotate(-2.471280) translate(-31.514037, -35.331845) "></path>
                    </g>
                    <path d="M96.6284597,3.11097493 C102.012651,2.41302427 106.950889,6.1357539 107.791232,11.4653713 L107.831025,11.7424597 L114.831025,65.7424597 C115.541009,71.2194814 111.676562,76.2350408 106.19954,76.9450251 C100.815349,77.6429757 95.8771108,73.9202461 95.0367677,68.5906287 L94.9969749,68.3135403 L87.9969749,14.3135403 C87.2869906,8.83651858 91.151438,3.82095923 96.6284597,3.11097493 Z" id="02" fill="#001744" fill-rule="nonzero"></path>
                    <path d="M266.107008,4.3254001 C267.047328,-1.11680927 272.221391,-4.76631172 277.6636,-3.82599176 C283.013568,-2.90160942 286.631085,2.11421483 285.858863,7.45412779 L285.814992,7.7305999 L276.529992,61.4685999 C275.589672,66.9108093 270.415609,70.5603117 264.9734,69.6199918 C259.623432,68.6956094 256.005915,63.6797852 256.778137,58.3398722 L256.822008,58.0634001 L266.107008,4.3254001 Z" id="01" fill="#001744" fill-rule="nonzero"></path>
                </g>
                <g id="hand" transform="translate(0.686010, 0.212144)">
                    <rect id="22" fill="#E6CBC3" fill-rule="nonzero" x="235.72399" y="460.787856" width="93.2405" height="139.94" rx="46.62025"></rect>
                    <path d="M136.31399,269.924856 C136.31399,197.145856 204.81399,171.787856 289.31399,171.787856 C373.81399,171.787856 442.31399,197.145856 442.31399,269.924856 L442.31399,400.993856 C429.97499,486.010856 366.71099,533.828856 289.31399,532.770856 C211.91699,531.711856 145.36199,476.091856 136.31399,400.993856 L136.31399,269.924856 Z" id="21" fill="#F6DDD6" fill-rule="nonzero"></path>
                    <path d="M288.50099,350.194856 C234.83599,350.004856 165.39399,352.401856 137.38099,361.455856 C131.32999,327.490856 151.45099,262.553856 183.75499,222.668856 C216.05999,182.783856 266.90499,189.570856 289.37899,199.786856 C304.43599,191.178856 345.89099,184.029856 391.25799,224.295856 C436.62499,264.561856 443.53899,333.974856 441.32499,361.455856 C412.74399,354.020856 342.16699,350.383856 288.50099,350.194856 Z" id="20" fill="#000000" fill-rule="nonzero"></path>
                    <path d="M468.76699,356.787856 C483.42399,373.228856 499.02799,393.138856 515.81399,417.241856 C529.98199,437.585856 541.64399,457.761856 550.99099,477.602856 C537.98299,509.949856 506.31499,532.785856 469.31399,532.785856 C420.71299,532.785856 381.31399,493.386856 381.31399,444.785856 C381.31399,396.367856 420.41799,357.081856 468.76699,356.787856 Z" id="19" fill-opacity="0.03" fill="#FF0000"></path>
                    <path d="M50.4550901,523.378856 C51.7169901,501.388856 54.7618901,476.276856 59.9356901,447.363856 C64.3024901,422.960856 70.3223901,400.447856 77.7430901,379.808856 C109.81499,366.133856 148.35399,372.378856 174.51799,398.542856 C208.88399,432.908856 208.88399,488.626856 174.51799,522.992856 C140.28099,557.230856 84.8512901,557.358856 50.4550901,523.378856 Z" id="18" fill-opacity="0.03" fill="#FF0000"></path>
                    <circle id="17" fill="#FFFFFF" fill-rule="nonzero" cx="354.81399" cy="394.287856" r="30.5"></circle>
                    <circle id="16" fill="#000000" fill-rule="nonzero" cx="354.81399" cy="376.287856" r="11.5"></circle>
                    <circle id="15" fill="#FFFFFF" fill-rule="nonzero" cx="223.81399" cy="394.287856" r="30.5"></circle>
                    <circle id="14" fill="#000000" fill-rule="nonzero" cx="223.81399" cy="376.287856" r="11.5"></circle>
                    <path d="M287.333478,388.729411 L304.654502,390.5323 L304.581624,391.295816 C304.386675,393.544884 304.342401,396.07843 304.358735,401.276743 L304.370259,405.939595 C304.369369,406.386542 304.367432,406.810584 304.364369,407.262595 L304.351271,408.58757 C304.216776,418.81438 303.316877,425.502573 300.530526,431.274899 C296.017298,440.624702 287.099719,444.589149 275.669303,441.946621 L275.249999,441.846994 L279.377981,424.928718 L279.9336,425.060506 C283.308502,425.835207 283.997028,425.466374 284.847472,423.704557 C286.201494,420.899505 286.836593,416.048078 286.939428,408.229255 L286.955198,406.102516 L286.940881,399.024335 C286.944446,394.550959 287.018653,392.063379 287.26085,389.464888 L287.333478,388.729411 Z" id="13" fill="#E1BFB4" fill-rule="nonzero"></path>
                    <path d="M258.72146,462.42688 C259.714305,464.280322 262.698418,466.903157 267.091117,469.042924 C273.236381,472.036399 281.328911,473.787856 291.31399,473.787856 C301.230277,473.787856 308.762487,472.064426 313.988884,469.165538 C315.966465,468.068647 317.505019,466.854707 318.596819,465.624836 C319.331615,464.797117 319.787298,464.046671 319.96706,463.536973 L320.006254,463.414658 L329.621726,466.161053 C328.410529,470.401607 324.562955,474.73575 318.839346,477.910423 C312.035333,481.684356 302.842037,483.787856 291.31399,483.787856 C270.349806,483.787856 255.130377,476.476303 250.057144,467.423681 L249.90652,467.148832 L258.72146,462.42688 Z" id="12" fill="#FE9287" fill-rule="nonzero"></path>
                    <path d="M267.14999,67.3635556 C208.42499,65.5500556 149.22299,63.7218556 58.3141901,194.243856 C-0.684669906,278.950856 -21.1932099,420.277856 26.3139901,492.052856 C64.1625901,549.235856 129.81899,584.287856 287.78199,584.287856 C434.81399,584.287856 498.81399,575.787856 550.31399,501.787856 C601.81399,427.787856 605.15299,313.908856 521.81399,194.243856 C429.68299,61.9531556 373.16699,64.4277556 313.32699,67.0478556 C304.91399,67.4162556 296.43499,67.7874556 287.78199,67.7874556 C280.87799,67.7874556 274.01699,67.5756556 267.14999,67.3635556 Z M289.31399,523.787856 C364.42499,523.787856 425.31399,462.898856 425.31399,387.787856 C425.31399,312.676856 364.42499,251.787856 289.31399,251.787856 C214.20299,251.787856 153.31399,312.676856 153.31399,387.787856 C153.31399,462.898856 214.20299,523.787856 289.31399,523.787856 Z" id="11" fill="#FFEDD3"></path>
                    <rect id="10" fill="#FFEDD3" fill-rule="nonzero" transform="translate(227.245431, 59.144050) rotate(-30.000000) translate(-227.245431, -59.144050) " x="195.653181" y="10.00055" width="63.1845" height="98.287" rx="31.59225"></rect>
                    <rect id="09" fill="#FFEDD3" fill-rule="nonzero" x="256.59599" y="10.2341456" width="63" height="98" rx="31.5"></rect>
                    <rect id="08" fill="#FFEDD3" fill-rule="nonzero" transform="translate(351.273931, 59.143500) rotate(30.000000) translate(-351.273931, -59.143500) " x="319.681681" y="10" width="63.1845" height="98.287" rx="31.59225"></rect>
                    <circle id="07" fill="#FFFFFF" fill-rule="nonzero" cx="221.31399" cy="154.787856" r="43"></circle>
                    <path d="M237.81399,194.507856 C253.37399,188.036856 264.31399,172.689856 264.31399,154.787856 C264.31399,136.884856 253.37399,121.537856 237.81399,115.066856 C222.25399,121.537856 211.31399,136.884856 211.31399,154.787856 C211.31399,172.689856 222.25399,188.036856 237.81399,194.507856 Z" id="06" fill="#000000"></path>
                    <circle id="05" fill="#FFFFFF" fill-rule="nonzero" cx="343.31399" cy="154.787856" r="43"></circle>
                    <path d="M359.81399,194.507856 C375.37399,188.036856 386.31399,172.689856 386.31399,154.787856 C386.31399,136.884856 375.37399,121.537856 359.81399,115.066856 C344.25399,121.537856 333.31399,136.884856 333.31399,154.787856 C333.31399,172.689856 344.25399,188.036856 359.81399,194.507856 Z" id="04" fill="#000000"></path>
                    <path d="M272.188635,184.971383 C273.747145,184.86053 275.214098,184.994953 277.102857,185.33484 L278.256431,185.554847 C279.61119,185.821292 280.493443,187.135537 280.226999,188.490297 C279.960554,189.845056 278.646308,190.727309 277.291549,190.460864 L276.648521,190.335753 C274.913595,190.005272 273.700167,189.876504 272.543376,189.958783 C269.642661,190.165104 267.866982,191.742945 267.012972,196.08243 C266.356858,199.417538 268.111601,201.784721 270.87438,202.919893 L271.022,202.978 L271.187311,202.990129 C272.359599,203.087399 273.549361,203.326891 274.727364,203.701196 L274.998989,203.789964 C277.756308,204.716092 276.9769,208.808618 274.072187,208.656431 C272.93041,208.59661 271.706142,208.378824 270.496844,208.011544 L270.304,207.95 L270.094365,207.947468 C267.001375,207.944933 264.451747,209.646188 263.597478,213.460359 L263.538013,213.743222 C262.498694,219.028572 265.880907,221.706208 270.687247,221.812466 C272.067621,221.842984 273.161897,222.986737 273.131379,224.367112 C273.100862,225.747487 271.957108,226.841762 270.576734,226.811245 C263.064433,226.645163 256.869599,221.740827 258.632031,212.778162 C259.439929,208.672576 261.485447,205.937262 264.147799,204.414925 L264.362,204.295 L264.2,204.110185 C262.273833,201.855572 261.45142,198.91872 262.043143,195.464279 L262.10704,195.117115 C263.395725,188.568918 267.031531,185.338195 272.188635,184.971383 Z" id="03" fill="#000000" fill-rule="nonzero"></path>
                    <path d="M104.87499,134.677856 C90.2747901,150.926856 74.8167901,170.549856 58.3139901,194.243856 C42.5699901,216.847856 29.5668901,243.483856 19.8657901,271.754856 C35.7433901,294.732856 62.2703901,309.787856 92.3137901,309.787856 C140.91499,309.787856 180.31399,270.388856 180.31399,221.787856 C180.31399,177.451856 147.52599,140.772856 104.87499,134.677856 Z" id="02" fill-opacity="0.5" fill="#FF0000"></path>
                    <path d="M474.76699,133.789856 C489.42399,150.230856 505.02799,170.140856 521.81399,194.243856 C535.98199,214.586856 547.64399,234.763856 556.99099,254.604856 C543.98299,286.951856 512.31499,309.787856 475.31399,309.787856 C426.71299,309.787856 387.31399,270.388856 387.31399,221.787856 C387.31399,173.369856 426.41799,134.083856 474.76699,133.789856 Z" id="01" fill-opacity="0.5" fill="#FF0000"></path>
                </g>
            </g>
        </g>
    </g>
</svg>