<?xml version="1.0" encoding="UTF-8"?>
<svg width="500px" height="1447px" viewBox="0 0 500 1447" version="1.1" xmlns="http://www.w3.org/2000/svg" xmlns:xlink="http://www.w3.org/1999/xlink">
    <!-- Generator: Sketch 55.2 (78181) - https://sketchapp.com -->
    <title>gee_me_086</title>
    <desc>Created with Sketch.</desc>
    <defs>
        <path d="M61.724,38.16 C39.866,37.73 32.616,23.63 31.723,16.63 L18.214,16.63 C17.142,18.25 15.92,22.02 13.509,33.32 C10.295,48.39 4.936,51.08 1.722,65.07 C-0.503,74.76 -0.956,89.29 4.401,97.37 C12.721,109.91 23.152,108.67 40.831,108.67 C51.011,108.67 68.154,105.98 83.69,110.28 C105.382,116.3 165.122,119.43 180.124,114.59 C205.688,106.34 198.827,80.67 187.68,71.15 C168.877,55.09 124.998,59.14 115.831,46.64 C108.332,36.42 102.754,12.06 97.378,6.06 C87.735,-4.71 89.462,3.51 91.191,13.94 C93.333,26.86 89.047,38.7 61.724,38.16 Z" id="path-1"></path>
        <path d="M136.616,38.16 C158.474,37.73 165.724,23.63 166.617,16.63 L180.126,16.63 C181.198,18.25 182.42,22.02 184.831,33.32 C188.045,48.39 193.404,51.08 196.618,65.07 C198.843,74.76 199.296,89.29 193.939,97.37 C185.619,109.91 175.188,108.67 157.509,108.67 C147.329,108.67 130.186,105.98 114.65,110.28 C92.958,116.3 33.2176,119.43 18.2155,114.59 C-7.3484,106.34 -0.4869,80.67 10.6596,71.15 C29.4626,55.09 73.342,59.14 82.508,46.64 C90.008,36.42 95.586,12.06 100.962,6.06 C110.605,-4.71 108.878,3.51 107.149,13.94 C105.007,26.86 109.293,38.7 136.616,38.16 Z" id="path-3"></path>
        <path d="M0.76,0 C0.7,1.021 0.67,2.051 0.67,3.081 L0.67,22.367 C0.67,51.44 25.299,75 55.67,75 C86.05,75 110.67,51.44 110.67,22.367 L110.67,3.081 C110.67,2.051 110.64,1.021 110.58,0 L0.76,0 Z" id="path-5"></path>
    </defs>
    <g id="GEE!-ME" stroke="none" stroke-width="1" fill="none" fill-rule="evenodd">
        <g id="gee_me_086" transform="translate(-350.000000, -76.000000)">
            <g transform="translate(330.000000, 76.000000)">
                <g id="lower-limb" transform="translate(54.000000, 887.000000)">
                    <path d="M266.67,249 L266.67,477 C266.67,489.150264 276.519736,499 288.67,499 C300.820264,499 310.67,489.150264 310.67,477 L310.67,249 C310.67,236.849736 300.820264,227 288.67,227 C276.519736,227 266.67,236.849736 266.67,249 Z" id="Path" fill="#EBBAAA" fill-rule="nonzero"></path>
                    <path d="M118.669,249 L118.669,494.5 C118.669,506.650264 128.518736,516.5 140.669,516.5 C152.819264,516.5 162.669,506.650264 162.669,494.5 L162.669,249 C162.669,236.849736 152.819264,227 140.669,227 C128.518736,227 118.669,236.849736 118.669,249 Z" id="Path" fill="#EBBAAA" fill-rule="nonzero"></path>
                    <path d="M261.67,484.82 C261.67,484.82 262.169,451.75 264.662,454.25 C267.156,456.76 278.619,463.27 294.088,463.27 C309.549,463.27 319.025,457.76 322.516,454.25 C326.007,450.75 329.253,484.82 329.253,484.82 L261.67,484.82 Z" id="Vector-496" fill="#DCE1E9" fill-rule="nonzero"></path>
                    <path d="M170.253,487.82 C170.253,487.82 169.754,454.75 167.261,457.25 C164.767,459.76 153.304,466.27 137.835,466.27 C122.374,466.27 112.898,460.76 109.407,457.25 C105.916,453.75 102.67,487.82 102.67,487.82 L170.253,487.82 Z" id="Vector-718" fill="#DCE1E9" fill-rule="nonzero"></path>
                    <path d="M214.668,123 C278.181,123 329.668,99.495 329.668,70.5 C329.668,41.505 278.181,18 214.668,18 C151.156,18 99.668,41.505 99.668,70.5 C99.668,99.495 151.156,123 214.668,123 Z" id="Path" fill="#416E97" fill-rule="nonzero"></path>
                    <polygon id="Path" fill="#416E97" fill-rule="nonzero" points="213.669 0 363.669 0 343.669 443 249.497 443"></polygon>
                    <polygon id="Path" fill="#416E97" fill-rule="nonzero" points="215.669 0 65.669 0 85.669 443 179.84 443"></polygon>
                    <g id="Group-225" transform="translate(224.000000, 439.000000)">
                        <path d="M33.587,44.59 C33.587,44.59 34.086,11.52 36.579,14.02 C39.073,16.53 50.536,23.04 66.005,23.04 C81.466,23.04 90.942,17.53 94.433,14.03 C97.924,10.52 101.17,44.59 101.17,44.59 L33.587,44.59 Z" id="Vector-496_2" fill="#DCE1E9" fill-rule="nonzero"></path>
                        <g id="Group-200">
                            <g id="Group-198">
                                <path d="M202.159,101.21 C204.074,96.88 203.896,92.48 202.824,90.86 C201.752,89.25 71.564,79.02 71.564,79.02 C49.956,77.41 5.837,67.34 2.877,79.02 C-7.214,118.85 19.602,118.85 36.746,118.85 C60.318,118.85 63.116,112.58 78.529,114.54 C86.565,115.57 98.351,121 152.461,121 C195.859,121 197.873,110.9 202.159,101.21 Z" id="Vector-249" fill="#5B5D60" fill-rule="nonzero"></path>
                                <path d="M34.148,17.14 L34.085,17.03 C34.085,17.03 31.093,13.03 26.604,16.03 C22.116,19.04 19.218,25.92 16.806,36.85 C13.59,51.42 10.875,49.33 7.659,62.86 C5.433,72.23 4.98,86.28 10.339,94.08 C18.664,106.2 29.099,105.01 46.787,105.01 C56.971,105.01 74.123,102.41 89.667,106.57 C111.368,112.38 171.138,115.41 186.147,110.73 C211.723,102.75 203.834,79.51 193.116,70.67 C174.303,55.14 131.033,59.68 121.862,47.6 C114.359,37.71 110.826,20.89 108.17,13.43 C105.17,5.01 96.093,3.06 97.171,13.43 C98.17,23.05 95.026,37.37 67.69,36.85 C45.875,36.43 42.673,31.16 34.148,17.14 Z" id="Vector-248" fill="#393939" fill-rule="nonzero"></path>
                                <g id="Clipped" transform="translate(6.000000, 0.000000)">
                                    <mask id="mask-2" fill="white">
                                        <use xlink:href="#path-1"></use>
                                    </mask>
                                    <g id="Vector-253"></g>
                                    <g id="Group" mask="url(#mask-2)" fill-rule="nonzero">
                                        <g transform="translate(-21.000000, 49.000000)">
                                            <path d="M194.789,40.79 C204.647,40.79 221.17,30.71 221.17,27.66 C221.884,37.17 222.099,56.63 215.67,62.23 C207.634,69.23 133.179,70.39 125.143,67.16 C117.107,63.93 115.67,59.22 129.67,61.73 C137.726,63.17 162.109,54.24 170.681,47.78 C179.252,41.32 182.467,40.79 194.789,40.79 Z" id="Vector-254" fill="#5B5D60"></path>
                                            <path d="M81.585,20.78 C88.486,22.66 94.048,22.41 97.199,20.01 C105.317,13.76 100.119,4.23 97.915,0.5 C101.883,5.07 105.827,9.66 108.904,14.66 C113.757,22.47 115.816,31.05 112.542,36.54 C106.673,46.46 92.566,41.88 83.574,37.89 L0.132,0.87 L81.585,20.78 Z" id="Vector" fill="#7F8389" opacity="0.5"></path>
                                        </g>
                                    </g>
                                </g>
                            </g>
                            <path d="M120.707359,64.3801337 C120.532556,66.7220867 122.841069,68.4584985 125.042683,67.6410674 L146.21792,59.7789746 L149.704526,75.5362203 C150.179424,77.6824568 152.616413,78.733822 154.503541,77.60661 L174.325541,65.76661 C175.853497,64.853937 176.352283,62.8754158 175.43961,61.3474593 C174.526937,59.8195027 172.548416,59.3207169 171.020459,60.23339 L155.032607,69.7831919 L151.711474,54.7737797 C151.288952,52.8642477 149.276742,51.7682055 147.443317,52.4489326 L127.508543,59.8504574 L128.741641,43.3298663 C128.915523,41.0002514 126.630335,39.265445 124.433185,40.0590921 L101.815185,48.2290921 C100.141261,48.8337415 99.2744427,50.6808904 99.8790921,52.3548146 C100.483742,54.0287389 102.33089,54.8955573 104.004815,54.2909079 L121.944084,47.8109436 L120.707359,64.3801337 Z" id="Vector-256" fill="#2A2A2A" fill-rule="nonzero"></path>
                        </g>
                    </g>
                    <g id="Group-226" transform="translate(0.000000, 439.000000)">
                        <path d="M170.753,44.59 C170.753,44.59 170.254,11.52 167.761,14.02 C165.267,16.53 153.804,23.04 138.335,23.04 C122.874,23.04 113.398,17.53 109.907,14.03 C106.416,10.52 103.17,44.59 103.17,44.59 L170.753,44.59 Z" id="Vector-496_3" fill="#DCE1E9" fill-rule="nonzero"></path>
                        <g id="Group-200_2">
                            <g id="Group-198_2">
                                <path d="M2.1809,101.21 C0.2661,96.88 0.4435,92.48 1.5157,90.86 C2.5879,89.25 132.776,79.02 132.776,79.02 C154.384,77.41 198.503,67.34 201.463,79.02 C211.554,118.85 184.738,118.85 167.594,118.85 C144.021,118.85 141.224,112.58 125.811,114.54 C117.775,115.57 105.989,121 51.879,121 C8.4813,121 6.4668,110.9 2.1809,101.21 Z" id="Vector-249_2" fill="#5B5D60" fill-rule="nonzero"></path>
                                <path d="M170.191,17.14 L170.254,17.03 C170.254,17.03 173.247,13.03 177.736,16.03 C182.224,19.04 185.122,25.92 187.534,36.85 C190.75,51.42 193.465,49.33 196.681,62.86 C198.907,72.23 199.36,86.28 194.001,94.08 C185.676,106.2 175.241,105.01 157.553,105.01 C147.369,105.01 130.217,102.41 114.673,106.57 C92.972,112.38 33.2024,115.41 18.1932,110.73 C-7.3829,102.75 0.506,79.51 11.2245,70.67 C30.0366,55.14 73.307,59.68 82.478,47.6 C89.981,37.71 93.514,20.89 96.17,13.43 C99.17,5.01 108.247,3.06 107.169,13.43 C106.17,23.05 109.314,37.37 136.65,36.85 C158.465,36.43 161.667,31.16 170.191,17.14 Z" id="Vector-248_2" fill="#393939" fill-rule="nonzero"></path>
                                <g id="Clipped">
                                    <mask id="mask-4" fill="white">
                                        <use xlink:href="#path-3"></use>
                                    </mask>
                                    <g id="Vector-253_2"></g>
                                    <g id="Group" mask="url(#mask-4)" fill-rule="nonzero">
                                        <g transform="translate(-3.000000, 49.000000)">
                                            <path d="M27.5511,40.79 C17.6935,40.79 1.1701,30.71 1.1701,27.66 C0.4558,37.17 0.2413,56.63 6.6702,62.23 C14.7063,69.23 89.161,70.39 97.197,67.16 C105.233,63.93 106.67,59.22 92.67,61.73 C84.614,63.17 60.231,54.24 51.659,47.78 C43.0875,41.32 39.8731,40.79 27.5511,40.79 Z" id="Vector-254_2" fill="#5B5D60"></path>
                                            <path d="M140.755,20.78 C133.854,22.66 128.292,22.41 125.141,20.01 C117.023,13.76 122.221,4.23 124.425,0.5 C120.457,5.07 116.513,9.66 113.436,14.66 C108.583,22.47 106.524,31.05 109.798,36.54 C115.667,46.46 129.774,41.88 138.766,37.89 L222.208,0.87 L140.755,20.78 Z" id="Vector_2" fill="#7F8389" opacity="0.5"></path>
                                        </g>
                                    </g>
                                </g>
                            </g>
                            <path d="M56.8966834,52.4489326 C55.0632583,51.7682055 53.0510481,52.8642477 52.6285259,54.7737797 L49.3073819,69.7832429 L33.31901,60.2333716 C31.7910434,59.3207156 29.8125277,59.8195233 28.8998716,61.34749 C27.9872156,62.8754566 28.4860233,64.8539723 30.01399,65.7666284 L49.83649,77.6066284 C51.7236175,78.7338116 54.1605796,77.6824421 54.6354741,75.5362203 L58.1220799,59.7789746 L79.2973166,67.6410674 C81.4989311,68.4584985 83.8074441,66.7220867 83.6326406,64.3801337 L82.3959156,47.8109436 L100.335185,54.2909079 C102.00911,54.8955573 103.856258,54.0287389 104.460908,52.3548146 C105.065557,50.6808904 104.198739,48.8337415 102.524815,48.2290921 L79.9068146,40.0590921 C77.7096654,39.265445 75.4244768,41.0002514 75.5983594,43.3298663 L76.8314569,59.8504574 L56.8966834,52.4489326 Z" id="Vector-256_2" fill="#2A2A2A" fill-rule="nonzero"></path>
                        </g>
                    </g>
                </g>
                <g id="upper-limb" transform="translate(0.938788, 395.000000)" fill-rule="nonzero">
                    <path d="M361.880009,223.178884 C380.564937,256.302166 398.599453,308.366669 410.093691,360.966467 L410.439993,362.560545 C415.885574,387.77595 419.454317,411.525262 420.749956,431.044346 C421.376255,440.479684 421.45341,448.685136 421.009149,455.321654 C420.822484,458.110123 420.548706,460.539489 420.208363,462.564593 L420.12865,463.024728 C419.861844,464.518881 419.589329,465.606757 419.378146,466.229258 L419.333856,466.355507 C412.350495,485.559749 422.257477,506.788996 441.461719,513.772357 C460.665961,520.755718 481.895208,510.848736 488.878569,491.644493 C499.724563,461.818008 496.237877,409.290326 482.772431,346.939455 C469.847546,287.091616 449.303471,227.542533 426.332416,186.821116 C416.292495,169.023075 393.725369,162.733876 375.927328,172.773797 C358.129288,182.813717 351.840089,205.380843 361.880009,223.178884 Z" id="Path" fill="#EBBAAA"></path>
                    <path d="M114.689009,186.821116 C91.717954,227.542532 71.1739908,287.091605 58.2492258,346.939536 C44.7839459,409.290315 41.297371,461.818036 52.1433556,491.644493 C59.1267164,510.848736 80.3559633,520.755718 99.5602056,513.772357 C118.572405,506.858829 128.47236,485.982909 121.89251,466.932225 L121.688069,466.355507 C121.471551,465.760083 121.179129,464.625581 120.893262,463.024692 C120.515838,460.911068 120.213779,458.324568 120.01275,455.321595 C119.568478,448.685067 119.645617,440.479608 120.271896,431.044266 C121.567494,411.525168 125.136181,387.775851 130.581699,362.560464 C142.057856,309.420286 160.267786,256.636682 179.141416,223.178884 C189.181336,205.380843 182.892137,182.813717 165.094096,172.773797 C147.296056,162.733876 124.728929,169.023075 114.689009,186.821116 Z" id="Path" fill="#EBBAAA"></path>
                    <rect id="Rectangle-69" fill="#393939" transform="translate(133.000000, 288.718076) rotate(15.000000) translate(-133.000000, -288.718076) " x="48" y="92.3070763" width="170" height="392.822" rx="85"></rect>
                    <rect id="Rectangle-285" fill="#393939" transform="translate(404.669401, 288.718107) scale(-1, 1) rotate(14.999995) translate(-404.669401, -288.718107) " x="319.669388" y="92.3070759" width="170.000027" height="392.822061" rx="85"></rect>
                    <polygon id="Rectangle-359" fill="#FFFFFF" points="119.731212 124 249.061212 124 419.731212 124 419.731212 468 119.731212 468"></polygon>
                    <path d="M438.634212,137.68 C439.272212,118.666 426.429212,101.833 407.922212,97.426 L339.386212,81.108 C325.819212,77.878 312.523212,87.367 311.167212,101.247 L292.731212,290 L269.061212,420 L269.061212,515 L295.731212,536 L428.951212,536 C434.769212,536 439.359212,531.052 438.923212,525.25 L429.731212,403 L438.634212,137.68 Z" id="Rectangle-191" fill="#494949"></path>
                    <path d="M100.828212,137.68 C100.190212,118.666 113.033212,101.833 131.540212,97.426 L200.076212,81.108 C213.643212,77.878 226.939212,87.367 228.295212,101.247 L246.731212,290 L269.061212,420 L269.061212,515 L243.731212,536 L110.511212,536 C104.693212,536 100.103212,531.052 100.539212,525.25 L109.731212,403 L100.828212,137.68 Z" id="Rectangle-358" fill="#494949"></path>
                    <path d="M231.731212,37.911 C231.731212,16.973 248.793212,0 269.731212,0 C290.668212,0 307.731212,16.973 307.731212,37.911 L307.731212,109.573 C307.731212,113.173 307.218212,116.754 306.208212,120.209 L269.731212,245 L233.254212,120.209 C232.244212,116.754 231.731212,113.173 231.731212,109.573 L231.731212,37.911 Z" id="Path" fill="#EBBAAA"></path>
                    <polygon id="Vector-264" fill="#FFFFFF" points="279.731212 146 307.731212 57 343.731212 78 350.731212 203"></polygon>
                    <polygon id="Vector-717" fill="#FFFFFF" points="259.731212 146 231.731212 57 195.731212 78 188.731212 203"></polygon>
                </g>
                <g id="head" transform="translate(80.669300, -0.000011)">
                    <path d="M340.0007,330.000011 C362.0917,330.000011 380.0007,312.091011 380.0007,290.000011 C380.0007,267.909011 362.0917,250.000011 340.0007,250.000011 C317.9087,250.000011 300.0007,267.909011 300.0007,290.000011 C300.0007,312.091011 317.9087,330.000011 340.0007,330.000011 Z" id="Path" fill="#C99584" fill-rule="nonzero" opacity="0.5"></path>
                    <path d="M39.9997,330.000011 C17.9086,330.000011 1.49213975e-13,312.091011 1.49213975e-13,290.000011 C1.49213975e-13,267.909011 17.9086,250.000011 39.9997,250.000011 C62.0917,250.000011 79.9997,267.909011 79.9997,290.000011 C79.9997,312.091011 62.0917,330.000011 39.9997,330.000011 Z" id="Path" fill="#C99584" fill-rule="nonzero" opacity="0.5"></path>
                    <path d="M40.0007,172.000011 C40.0007,89.1573114 107.1577,22.0000114 190.0007,22.0000114 C272.8437,22.0000114 340.0007,89.1573114 340.0007,172.000011 L340.0007,365.962011 C340.0007,387.484011 326.2287,406.591011 305.8117,413.396011 L245.2807,433.573011 C209.3977,445.534011 170.6027,445.534011 134.7197,433.573011 L74.1887,413.396011 C53.7717,406.591011 40.0007,387.484011 40.0007,365.962011 L40.0007,172.000011 Z" id="Path" fill="#F4D5CC" fill-rule="nonzero"></path>
                    <path d="M203.0007,235.000011 C203.0007,230.029303 207.029992,226.000011 212.0007,226.000011 L306.0007,226.000011 C310.971408,226.000011 315.0007,230.029303 315.0007,235.000011 L315.0007,263.000011 C315.0007,274.59772 305.598408,284.000011 294.0007,284.000011 L224.0007,284.000011 C212.402992,284.000011 203.0007,274.59772 203.0007,263.000011 L203.0007,235.000011 Z M215.0007,263.000011 C215.0007,267.970303 219.030408,272.000011 224.0007,272.000011 L294.0007,272.000011 C298.970992,272.000011 303.0007,267.970303 303.0007,263.000011 L303.0007,238.000011 L215.0007,238.000011 L215.0007,263.000011 Z" id="Path" fill="#393939" fill-rule="nonzero"></path>
                    <path d="M63.0007,235.000011 C63.0007,230.029303 67.0299915,226.000011 72.0007,226.000011 L166.0007,226.000011 C170.971408,226.000011 175.0007,230.029303 175.0007,235.000011 L175.0007,262.000011 C175.0007,273.59772 165.598408,283.000011 154.0007,283.000011 L84.0007,283.000011 C72.4029915,283.000011 63.0007,273.59772 63.0007,262.000011 L63.0007,235.000011 Z M75.0007,238.000011 L75.0007,262.000011 C75.0007,266.970303 79.0304085,271.000011 84.0007,271.000011 L154.0007,271.000011 C158.970992,271.000011 163.0007,266.970303 163.0007,262.000011 L163.0007,238.000011 L75.0007,238.000011 Z" id="Path" fill="#393939" fill-rule="nonzero"></path>
                    <path d="M344.9917,156.486011 C345.2237,150.215011 340.6837,145.000011 335.0007,145.000011 C329.1037,145.000011 324.4887,150.594011 325.0457,157.070011 L334.4617,266.773011 C334.6197,268.607011 336.0127,270.000011 337.6747,270.000011 C339.4107,270.000011 340.8317,268.494011 340.9057,266.588011 L344.9917,156.486011 Z" id="Path" fill="#6E6C6C" fill-rule="nonzero"></path>
                    <path d="M35.0087,156.486011 C34.7767,150.215011 39.3177,145.000011 45.0007,145.000011 C50.8967,145.000011 55.5117,150.594011 54.9547,157.070011 L45.5387,266.773011 C45.3817,268.607011 43.9887,270.000011 42.3267,270.000011 C40.5897,270.000011 39.1687,268.494011 39.0947,266.588011 L35.0087,156.486011 Z" id="Path" fill="#6E6C6C" fill-rule="nonzero"></path>
                    <path d="M185.3257,108.179011 C261.4737,108.179011 322.3607,107.971011 325.5007,163.625011 C338.3457,181.724011 346.3907,179.710011 349.3897,146.772011 C358.9947,41.2847114 253.1577,-18.4822886 179.8607,5.12596144 C179.8607,5.12596144 109.1677,108.179011 185.3257,108.179011 Z" id="Path" fill="#393939" fill-rule="nonzero"></path>
                    <path d="M194.6757,108.179011 C118.5277,108.179011 57.6397,107.971011 54.5007,163.625011 C41.6547,181.724011 33.6097,179.710011 30.6107,146.772011 C21.0057,41.2847114 126.8437,-18.4822886 200.1397,5.12596144 C200.1397,5.12596144 270.8327,108.179011 194.6757,108.179011 Z" id="Path" fill="#393939" fill-rule="nonzero"></path>
                    <polygon id="Vector-716" fill="#393939" fill-rule="nonzero" points="75.9377 129.402011 75.9377 113.240011 49.0007 129.402011 49.0007 96.0000114 199.8487 104.620011 181.5317 127.247011 166.4467 122.937011 147.0517 129.402011 139.5097 117.550011 120.1147 129.402011 120.1147 113.240011 93.1777 129.402011 93.1777 113.240011"></polygon>
                    <polygon id="Vector-719" fill="#393939" fill-rule="nonzero" points="216.9377 128.402011 216.9377 112.240011 190.0007 128.402011 190.0007 95.0000114 340.8487 103.620011 322.5317 126.247011 307.4467 121.937011 288.0517 128.402011 280.5097 116.550011 261.1147 128.402011 261.1147 112.240011 234.1777 128.402011 234.1777 112.240011"></polygon>
                    <path d="M264.0007,241.000011 L244.0007,241.000011 C239.030137,241.000011 235.0007,245.029449 235.0007,250.000011 C235.0007,254.970574 239.030137,259.000011 244.0007,259.000011 L264.0007,259.000011 C268.971263,259.000011 273.0007,254.970574 273.0007,250.000011 C273.0007,245.029449 268.971263,241.000011 264.0007,241.000011 Z" id="Path" fill="#000000" fill-rule="nonzero"></path>
                    <path d="M134.0007,241.000011 L114.0007,241.000011 C109.030137,241.000011 105.0007,245.029449 105.0007,250.000011 C105.0007,254.970574 109.030137,259.000011 114.0007,259.000011 L134.0007,259.000011 C138.971263,259.000011 143.0007,254.970574 143.0007,250.000011 C143.0007,245.029449 138.971263,241.000011 134.0007,241.000011 Z" id="Path" fill="#000000" fill-rule="nonzero"></path>
                    <path d="M233.476591,198.984738 L293.476591,202.484738 C298.438718,202.774195 302.695969,198.986248 302.985426,194.02412 C303.274884,189.061993 299.486936,184.804742 294.524809,184.515285 L234.524809,181.015285 C229.562682,180.725828 225.305431,184.513775 225.015974,189.475902 C224.726516,194.43803 228.514464,198.69528 233.476591,198.984738 Z" id="Path" fill="#393939" fill-rule="nonzero"></path>
                    <path d="M143.476591,181.015285 L83.476591,184.515285 C78.5144635,184.804742 74.7265161,189.061993 75.0159735,194.02412 C75.305431,198.986248 79.5626816,202.774195 84.524809,202.484738 L144.524809,198.984738 C149.486936,198.69528 153.274884,194.43803 152.985426,189.475902 C152.695969,184.513775 148.438718,180.725828 143.476591,181.015285 Z" id="Path" fill="#393939" fill-rule="nonzero"></path>
                    <path d="M190.103394,291.924372 C191.384937,290.082155 193.213813,288.215176 195.1007,286.800011 L184.9007,273.200011 C177.294429,278.904715 171.5007,287.2332 171.5007,295.312511 C171.5007,301.277964 174.621394,306.414105 180.208479,309.556841 C184.997458,312.250642 191.528818,313.500011 200.0007,313.500011 L200.0007,296.500011 C194.41904,296.500011 190.677291,295.826274 188.768285,294.860217 L188.599788,294.771599 C188.795027,294.114728 189.283206,293.103393 190.103394,291.924372 Z" id="Path" fill="#EBBAAA" fill-rule="nonzero"></path>
                    <g id="Path" transform="translate(133.330700, 321.000011)">
                        <path d="M0.67,0 L0.67,19.805 C0.67,50.293 25.299,75 55.67,75 C86.05,75 110.67,50.293 110.67,19.805 L110.67,0 L0.67,0 Z" fill="#393939"></path>
                        <g id="Object">
                            <g id="Clipped">
                                <mask id="mask-6" fill="white">
                                    <use xlink:href="#path-5"></use>
                                </mask>
                                <g id="Path"></g>
                                <path d="M55.67,90 C72.238,90 85.67,81.941 85.67,72 C85.67,62.059 72.238,54 55.67,54 C39.101,54 25.67,62.059 25.67,72 C25.67,81.941 39.101,90 55.67,90 Z" id="Path" fill="#FF6C6C" fill-rule="nonzero" mask="url(#mask-6)"></path>
                            </g>
                        </g>
                        <rect fill="#FFFFFF" fill-rule="nonzero" x="0.67" y="0" width="110" height="20"></rect>
                    </g>
                    <rect id="Path" fill="#393939" fill-rule="nonzero" x="165.0007" y="240.000011" width="50" height="10"></rect>
                </g>
            </g>
        </g>
    </g>
</svg>