<?xml version="1.0" encoding="UTF-8"?>
<svg width="510px" height="1381px" viewBox="0 0 510 1381" version="1.1" xmlns="http://www.w3.org/2000/svg" xmlns:xlink="http://www.w3.org/1999/xlink">
    <!-- Generator: Sketch 55.2 (78181) - https://sketchapp.com -->
    <title>gee_me_094</title>
    <desc>Created with Sketch.</desc>
    <g id="GEE!-ME" stroke="none" stroke-width="1" fill="none" fill-rule="evenodd">
        <g id="gee_me_094" transform="translate(-345.000000, -110.000000)" fill-rule="nonzero">
            <g transform="translate(345.000000, 110.000000)">
                <g id="lower-limb" transform="translate(44.979283, 824.939400)">
                    <path d="M124.192093,478.029275 C122.983364,479.927868 122.014801,481.910736 121.278493,483.942253 L121.064561,484.553131 C121.469249,482.895304 122.239124,481.096872 124.192093,478.029275 Z M133.387392,519.447224 C147.363854,528.345263 165.907301,524.228387 174.805341,510.251925 C178.154682,504.990996 179.248504,500.824013 180.102517,495.005287 C180.5032,492.275282 180.783956,489.169452 180.991282,485.531701 L181.054403,484.362238 L181.140519,482.527066 C181.383554,476.875813 181.489356,469.913051 181.473333,461.642012 L181.45535,457.43227 L181.416617,452.929062 C181.250193,437.249704 180.731139,417.842651 179.908436,395.641338 L179.644186,388.684852 L179.358056,381.49673 C177.490083,335.579603 174.588128,282.670871 172.158104,249.170205 C170.959427,232.645079 156.591447,220.220537 140.066321,221.419213 C123.541196,222.61789 111.116654,236.98587 112.31533,253.510995 L112.707119,259.023982 L113.176239,265.902914 C115.489881,300.538467 118.071351,349.427155 119.689189,391.008292 L119.94741,397.804484 L120.125122,402.688977 C120.973377,426.46251 121.444148,446.635425 121.473445,461.75825 L121.47326,464.761414 L121.465085,466.911957 C121.430274,473.231139 121.303082,478.352456 121.088491,482.117663 L121.016159,483.284242 L120.917098,484.603692 L120.867989,485.155665 C116.895442,497.786704 121.685829,511.997487 133.387392,519.447224 Z" id="Path" fill="#EBBAAA"></path>
                    <path d="M255.924354,208.511321 C260.059954,265.5167 263.432717,407.594387 263.432717,491.5006 C263.432717,508.069142 276.864174,521.5006 293.432717,521.5006 C310.001259,521.5006 323.432717,508.069142 323.432717,491.5006 L323.428654,486.317852 L323.408113,478.460466 C323.094447,392.309574 319.819593,260.029974 315.76708,204.169879 C314.568224,187.644766 300.200108,175.220381 283.674996,176.419237 C267.149883,177.618093 254.725498,191.986209 255.924354,208.511321 Z" id="Path" fill="#EBBAAA"></path>
                    <ellipse id="Oval" fill="#020202" cx="213.614717" cy="62.7556" rx="121.851" ry="62.7556"></ellipse>
                    <path d="M12.2714169,551.7906 C12.0712169,528.8406 15.1977169,514.8806 35.1467169,505.5006 C55.0967169,496.1206 73.8877169,478.0906 108.401717,462.6306 C108.401717,462.6306 112.944717,461.7806 120.339717,465.7806 C126.650717,469.1906 134.755717,477.5606 146.969717,477.4606 C160.232717,477.3406 172.050717,474.5306 179.393717,470.6806 C182.566717,461.9906 189.603717,461.9306 189.603717,461.9306 C189.603717,461.9306 199.513717,480.7906 199.678717,499.7406 C199.843717,518.6806 199.828139,550.1506 199.828139,550.1506 L12.2714169,551.7906 Z" id="Path" fill="#161616"></path>
                    <path d="M87.1542733,470.514049 C85.0662438,469.592893 82.8454454,471.510405 83.4523417,473.710422 L86.4495626,484.575434 L74.4412309,480.704318 C72.6934858,480.140899 70.9038769,481.444285 70.9038769,483.2806 L70.9038769,494.43531 L61.9072401,489.56066 C60.1036626,488.583428 57.9108769,489.889289 57.9108769,491.9406 L57.9108769,505.4806 C57.9108769,506.975546 59.1227705,508.18744 60.6177169,508.18744 C62.1126634,508.18744 63.3245569,506.975546 63.3245569,505.4806 L63.3245569,496.48589 L72.3211937,501.36054 C74.1247712,502.337772 76.3175569,501.031911 76.3175569,498.9806 L76.3175569,486.997216 L89.5622029,491.266882 C91.6117234,491.927584 93.5747351,490.046625 93.0020922,487.970778 L90.1879635,477.76948 L103.375161,483.587151 C105.164404,484.376494 107.174557,483.066222 107.174557,481.1106 L107.17202,480.083498 C107.151956,476.27814 107.005852,473.933369 106.488395,471.120812 C106.106761,469.046504 105.548839,467.139108 104.776154,465.401013 C104.168868,464.034971 102.569171,463.419878 101.203129,464.027163 C99.837088,464.634448 99.2219946,466.234146 99.82928,467.600187 C100.415663,468.919212 100.855367,470.422451 101.164076,472.100388 C101.423019,473.507828 101.575571,474.808505 101.66153,476.340819 L101.69072,476.926955 L87.1542733,470.514049 Z" id="Path" fill="#FFFFFF"></path>
                    <path d="M19.8187169,507.2606 C25.9397169,505.0406 32.4217169,503.3606 44.8487169,500.5406 L39.5677169,515.7506 L39.7187169,533.0706 L4.34641693,533.380639 C2.90281693,533.3906 0.323516927,531.4706 1.55471693,523.6606 C3.09371693,513.9006 11.1218169,510.4106 19.8187169,507.2606 Z" id="Path" fill="#161616"></path>
                    <path d="M200.419717,547.1906 L199.392717,528.9706 L40.7877169,531.4406 L1.24081693,528.5406 L0.0327169268,542.5106 C-0.384283073,547.3406 3.23431693,551.5606 8.06491693,551.9006 L40.9857169,554.1806 L196.162717,551.7706 C198.623717,551.7306 200.558717,549.6506 200.419717,547.1906 Z" id="Path" fill="#808080"></path>
                    <path d="M429.926717,553.5506 C430.126717,530.6006 426.999717,516.6406 407.050717,507.2606 C387.100717,497.8806 368.309717,479.8506 333.795717,464.3906 C333.795717,464.3906 329.252717,463.5406 321.857717,467.5306 C315.547717,470.9506 307.441717,479.3206 295.227717,479.2106 C281.965717,479.1006 270.146717,476.2906 262.803717,472.4306 C259.631717,463.7406 252.593717,463.6806 252.593717,463.6806 C252.593717,463.6806 242.684717,482.5406 242.518717,501.4906 C242.353717,520.4406 242.370221,551.9106 242.370221,551.9106 L429.926717,553.5506 Z" id="Path" fill="#161616"></path>
                    <path d="M349.195342,489.730778 C348.622704,491.806605 350.585674,493.687557 352.635186,493.026897 L365.880877,488.757148 L365.880877,500.7406 C365.880877,502.791911 368.073663,504.097772 369.87724,503.12054 L378.873877,498.24589 L378.873877,507.2306 C378.873877,508.725546 380.08577,509.93744 381.580717,509.93744 C383.075663,509.93744 384.287557,508.725546 384.287557,507.2306 L384.287557,493.7006 C384.287557,491.649289 382.094771,490.343428 380.291194,491.32066 L371.294557,496.19531 L371.294557,485.0406 C371.294557,483.204304 369.504984,481.900921 367.757248,482.464303 L355.747843,486.335535 L358.745092,475.470422 C359.351988,473.270405 357.13119,471.352893 355.043161,472.274049 L340.506725,478.68695 C340.585918,476.878694 340.744086,475.421259 341.038867,473.827544 C341.347423,472.159353 341.785643,470.663193 342.36899,469.348305 C342.975236,467.981802 342.358925,466.382573 340.992422,465.776327 C339.625919,465.170081 338.02669,465.786392 337.420444,467.152895 C336.652603,468.88364 336.096844,470.781102 335.715483,472.842907 C335.147775,475.912182 335.022877,478.42687 335.022877,482.8706 C335.022877,484.826222 337.03303,486.136494 338.822273,485.347151 L352.00947,479.52948 L349.195342,489.730778 Z" id="Path" fill="#FFFFFF"></path>
                    <path d="M422.378717,509.0206 C416.257717,506.8006 409.775717,505.1206 397.348717,502.3006 L402.629717,517.5106 L402.478717,534.8306 L437.851717,535.140639 C439.294717,535.1506 441.873717,533.2206 440.642717,525.4206 C439.103717,515.6606 431.075717,512.1706 422.378717,509.0206 Z" id="Path" fill="#161616"></path>
                    <path d="M241.777717,548.9506 L242.804717,530.7306 L401.409717,533.1906 L440.956717,530.2906 L442.164717,544.2706 C442.581717,549.0906 438.963717,553.3206 434.132717,553.6506 L401.211717,555.9306 L246.034717,553.5206 C243.573717,553.4906 241.639717,551.4106 241.777717,548.9506 Z" id="Path" fill="#808080"></path>
                    <polygon id="Path" fill="#020202" points="64.9687169 29.5996 195.646717 43.0846 195.646717 455.8906 103.973717 455.8906"></polygon>
                    <polygon id="Path" fill="#020202" points="215.288717 44.0466 356.403717 44.0466 343.953717 458.6306 250.007717 458.6306"></polygon>
                </g>
                <g id="upper-limb" transform="translate(0.456400, 409.973000)">
                    <path d="M130.7686,472.635 C130.7686,482.934 138.5906,491.55 148.8416,492.542 L241.5426,501.513 C250.3406,502.364 259.1986,502.402 268.0046,501.626 L372.1476,492.448 C382.6966,491.519 390.6926,482.527 390.3826,471.941 L379.3356,94.208 C379.0196,83.395 370.1626,74.793 359.3446,74.793 L150.7686,74.793 C139.7226,74.793 130.7686,83.747 130.7686,94.793 L130.7686,472.635 Z" id="Path" fill="#020202"></path>
                    <ellipse id="Oval" fill="#2D2F32" cx="251.8946" cy="86.863" rx="70.0249" ry="70.8789"></ellipse>
                    <rect id="Rectangle" fill="#EBBAAA" x="213.4666" y="-7.10542736e-14" width="76.8567" height="115.285" rx="38.4283"></rect>
                    <path d="M142.778563,205.400799 L145.853948,203.246766 C155.280881,196.631268 161.202557,192.133529 167.760773,186.208312 C176.761441,178.076389 184.547534,169.102453 191.344902,158.597431 C204.396181,138.427273 198.625189,111.495977 178.455031,98.4446982 C158.486574,85.5239322 131.891527,91.0508737 118.69798,110.733789 L117.868938,111.99504 L117.432399,112.641384 C113.046831,119.038324 107.991139,123.50251 96.4603297,131.623587 L92.1442511,134.648734 L88.9109439,136.932573 C80.2876475,143.06475 75.0992167,147.139931 68.8895688,152.903074 C58.6661591,162.391368 50.1186503,173.073327 43.0257585,185.840532 L38.0899537,200.143467 C22.2155185,300.105155 16.3201159,396.916329 25.6296704,475.108768 C28.4699426,498.964669 50.1114669,516.001202 73.9673677,513.16093 C97.8232686,510.320657 114.859802,488.679133 112.01953,464.823232 C104.170424,398.897342 108.861091,313.854784 122.243076,225.216347 L122.651247,222.529249 C126.530531,217.409025 131.83653,213.078518 142.778563,205.400799 Z" id="Path" fill="#EBBAAA"></path>
                    <path d="M383.122543,220.766089 L384.482345,229.4719 L385.637193,236.9654 C391.808119,277.286629 395.670968,307.296052 398.440796,338.666868 L398.731641,342.022147 L399.013031,345.396085 C402.723574,390.796524 402.856601,430.215418 398.85561,463.823739 C396.015618,487.679674 413.052405,509.320998 436.908339,512.16099 C460.764274,515.000982 482.405598,497.964195 485.24559,474.108261 C490.190326,432.572474 489.856554,385.848915 485.26739,332.886969 L484.890806,328.628906 C481.383273,289.702615 476.342272,253.031665 467.785333,199.144012 L462.849442,184.840532 L461.894463,183.134399 L461.254794,182.005922 C451.424847,164.752503 440.539258,149.703379 420.54106,124.26871 L412.380496,113.904099 C397.035569,94.3734836 391.809746,87.325692 385.344902,77.3345694 C372.293623,57.1644114 345.362327,51.3934194 325.192169,64.4446982 C305.022011,77.4959769 299.251019,104.427273 312.302298,124.597431 L313.684679,126.722494 C321.419543,138.545523 327.703264,146.9552 344.038351,167.741158 L352.989102,179.111227 L355.801689,182.704388 C368.936849,199.535896 376.892312,210.501395 383.122543,220.766089 Z" id="Path" fill="#EBBAAA"></path>
                    <path d="M211.9866,182.536 L125.1736,362.699 C125.1736,362.699 48.8206,320.862 19.5343,293.668 C19.5343,293.668 31.586,224.636 48.8206,161.617 C58.8146,125.074 82.8926,96.533 101.3596,79.002 C116.1556,64.956 135.5026,57.431 155.5516,53.652 L193.1596,46.564 L211.9866,182.536 Z" id="Path" fill="#525252"></path>
                    <path d="M19.6442,292.607 C21.7192,275.791 38.4999,264.946 54.684,269.962 L96.7806,283.008 C110.5076,287.262 119.5896,300.298 118.8256,314.649 L118.6096,318.697 C118.5256,320.269 118.3236,321.832 118.0056,323.374 L95.5356,432.175 C93.5906,441.593 85.4746,448.471 75.8656,448.847 L1.42108547e-14,451.811 L19.6442,292.607 Z" id="Path" fill="#525252"></path>
                    <path d="M104.7866,129.999 C108.0226,83.981 146.5676,48.302 192.6996,48.302 C201.9086,48.302 210.3586,53.559 214.3846,61.842 L244.4116,123.61 C244.4116,123.61 222.4466,244.938 222.4466,304.557 C222.4466,354.718 212.0806,475.962 208.7916,513.164 C208.2616,519.164 202.7776,523.437 196.8226,522.528 L93.6186,506.785 C88.3576,505.983 84.5386,501.359 84.7436,496.041 L91.7046,316.062 L104.7866,129.999 Z" id="Path" fill="#2D2F32"></path>
                    <path d="M231.388543,124.189738 C212.26084,281.763169 197.867719,459.164084 197.869,514.098159 L211.4662,514.098159 C211.464935,459.828655 225.819508,282.902853 244.886657,125.828262 L231.388543,124.189738 Z" id="Path" fill="#525252"></path>
                    <path d="M206.2066,528.129 L88.0156,515.638 C85.3556,515.356 83.3356,513.112 83.3356,510.437 L83.3356,492.132 L211.9866,505.55 L211.9866,522.929 C211.9866,526.034 209.2956,528.456 206.2066,528.129 Z" id="Path" fill="#525252"></path>
                    <polygon id="Path" fill="#525252" points="244.4106 130.266 208.8486 38.966 164.9186 52.041 164.9186 109.447"></polygon>
                    <path d="M297.2946,184.274 L384.1066,364.438 C384.1066,364.438 460.4606,322.6 489.7466,295.406 C489.7466,295.406 477.6946,226.374 460.4606,163.355 C449.1046,121.831 419.5636,90.64 400.7326,74.193 C390.2086,65.001 377.0326,59.783 363.3006,57.195 L316.1216,48.302 L297.2946,184.274 Z" id="Path" fill="#525252"></path>
                    <path d="M489.4416,294.511 C487.3666,277.696 470.5866,266.851 454.4016,271.866 L412.3056,284.912 C398.5786,289.166 389.4956,302.202 390.2606,316.553 L390.4766,320.601 C390.5596,322.173 390.7616,323.736 391.0806,325.278 L413.5506,434.079 C415.4956,443.497 423.6116,450.376 433.2206,450.751 L509.0856,453.715 L489.4416,294.511 Z" id="Path" fill="#525252"></path>
                    <path d="M396.0176,124.244 C391.6166,82.517 356.4266,50.843 314.4686,50.843 C305.8736,50.843 298.0326,55.75 294.2746,63.48 L263.8096,126.151 C263.8096,126.151 285.7746,247.479 285.7746,307.098 C285.7746,357.259 296.1406,478.503 299.4296,515.705 C299.9596,521.705 305.4436,525.978 311.3986,525.069 L414.6026,509.326 C419.8636,508.524 423.6826,503.9 423.4766,498.582 L416.5166,318.603 L396.0176,124.244 Z" id="Path" fill="#2D2F32"></path>
                    <path d="M263.348543,127.828262 C282.415692,284.902853 296.770265,461.828655 296.769,516.098159 L310.3662,516.098159 C310.367481,461.164084 295.97436,283.763169 276.846657,126.189738 L263.348543,127.828262 Z" id="Path" fill="#525252"></path>
                    <path d="M303.0716,531.792 L421.2626,519.3 C423.9236,519.019 425.9426,516.775 425.9426,514.099 L425.9426,495.795 L297.2926,509.212 L297.2926,526.591 C297.2926,529.697 299.9836,532.118 303.0716,531.792 Z" id="Path" fill="#525252"></path>
                    <polygon id="Path" fill="#525252" points="264.8706 131.193 291.8246 38.966 343.3136 45.966 343.3146 113.994"></polygon>
                    <polygon id="Path" fill="#525252" points="177.8666 167.896 235.4706 136.062 209.6996 334.64"></polygon>
                    <polygon id="Path" fill="#525252" points="330.3686 167.896 272.7656 136.062 298.5356 334.64"></polygon>
                    <polygon id="Path" fill="#525252" points="149.2056 366.027 125.5436 450.162 138.632997 453.843242 162.294997 369.708242"></polygon>
                </g>
                <g id="head" transform="translate(63.808000, 0.767578)">
                    <path d="M328.266,353.533422 C360.998,353.533422 387.533,326.998422 387.533,294.266422 C387.533,261.534422 360.998,235.000422 328.266,235.000422 C295.534,235.000422 269,261.534422 269,294.266422 C269,326.998422 295.534,353.533422 328.266,353.533422 Z" id="Path" fill="#EBBAAA"></path>
                    <path d="M59.266,356.533422 C26.534,356.533422 1.77635684e-13,329.998422 1.77635684e-13,297.266422 C1.77635684e-13,264.534422 26.534,238.000422 59.266,238.000422 C91.998,238.000422 118.533,264.534422 118.533,297.266422 C118.533,329.998422 91.998,356.533422 59.266,356.533422 Z" id="Path" fill="#EBBAAA"></path>
                    <path d="M33.786,189.136422 C33.786,102.352422 104.138,32.000022 190.922,32.000022 C280.666,32.000022 352.183,107.033422 347.878,196.673422 L341.236,335.000422 C338.142,399.442422 291.905,453.656422 228.76,466.883422 C206.44,471.558422 183.322,470.777422 161.369,464.606422 L157.301,463.463422 C95.574,446.112422 50.318,393.370422 42.545,329.723422 L33.786,258.000422 L33.786,189.136422 Z" id="Path" fill="#F4D4C9"></path>
                    <path d="M163.260719,390.731127 C182.849563,401.613818 205.969647,401.331866 230.91534,391.12681 C234.851136,389.516712 236.736486,385.020877 235.126388,381.085082 C233.51629,377.149286 229.020455,375.263936 225.08466,376.874034 C204.156051,385.435738 185.840174,385.659102 170.739281,377.269717 C167.022015,375.204569 162.334443,376.543876 160.269295,380.261141 C158.204147,383.978407 159.543454,388.665979 163.260719,390.731127 Z" id="Path" fill="#C99584"></path>
                    <path d="M200.411,97.000522 C124.209,97.000522 59.429,116.896422 55.39,172.431422 C49.372,255.164422 45.984,261.819422 35.075,223.452422 C33.413,217.604422 32.313,164.563422 32.075,158.500422 C32.075,12.154322 152.898,12.154322 200.411,12.154322 C239.351,43.840722 276.622,97.000522 200.411,97.000522 Z" id="Path" fill="#272727"></path>
                    <path d="M32.084,172.260422 C31.821,164.194422 36.969,157.486422 43.412,157.486422 C50.098,157.486422 55.33,164.682422 54.698,173.012422 L44.023,314.127422 C43.844,316.486422 42.265,318.279422 40.38,318.279422 C38.411,318.279422 36.801,316.341422 36.716,313.890422 L32.084,172.260422 Z" id="Path" fill="#272727"></path>
                    <path d="M352.866,171.597422 C353.129,163.893422 347.981,157.486422 341.538,157.486422 C334.852,157.486422 329.62,164.359422 330.251,172.315422 L340.927,307.098422 C341.106,309.351422 342.685,311.063422 344.57,311.063422 C346.539,311.063422 348.149,309.213422 348.234,306.872422 L352.866,171.597422 Z" id="Path" fill="#272727"></path>
                    <path d="M201,92.999322 C279.522,92.999322 317.762,124.433422 321,180.999422 C329.029,225.361422 339.447,290.931422 358,158.999422 C358,-47.722778 219.163,92.999422 170.203,92.999422 C130.077,124.685422 122.468,92.999322 201,92.999322 Z" id="Path" fill="#272727"></path>
                    <polygon id="Path" fill="#272727" points="277.696 36.759922 299.061 59.381422 192.037 52.783422 90 80.589022 83.816 67.393122 89.994 63.151622 85.135 52.783422 95.529 52.783422 88.019 36.759922 101.382 36.759922 98.609 24.506622 110.487 24.506622 111.797 12.253322 125.813 16.023522 125.991 8.483052 138.611 8.483052 134.636 5.68434189e-14 155.686 8.483052 156.165 5.68434189e-14 167.564 8.483052 171.012 5.68434189e-14 189.093 8.483052 194.026 5.68434189e-14 207.652 8.483052 214.334 8.483052 225.291 16.023522 224.727 8.483052 244.856 24.506622 251.256 20.736322 270.634 39.116322"></polygon>
                    <path d="M284.132924,225.326053 C289.626849,225.89053 294.538154,221.894423 295.102631,216.400498 C295.667108,210.906573 291.671001,205.995268 286.177076,205.430791 L267.472041,203.508929 L226.241702,211.550359 C220.820993,212.607596 217.283699,217.85901 218.340937,223.27972 C219.398174,228.700429 224.649588,232.237723 230.070298,231.180485 L268.383959,223.707915 L284.132924,225.326053 Z" id="Path" fill="#393939"></path>
                    <path d="M154.856702,231.180485 C160.277412,232.237723 165.528826,228.700429 166.586063,223.27972 C167.643301,217.85901 164.106007,212.607596 158.685298,211.550359 L117.454959,203.508929 L98.7499238,205.430791 C93.255999,205.995268 89.259892,210.906573 89.8243691,216.400498 C90.3888462,221.894423 95.3001514,225.89053 100.794076,225.326053 L116.543041,223.707915 L154.856702,231.180485 Z" id="Path" fill="#393939"></path>
                    <path d="M180.718169,277.809184 C173.55412,290.449108 168.898654,307.865967 170.84377,321.12459 C173.775087,341.105509 190.162066,350.375669 216.919898,344.699388 L213.392102,328.069456 C203.50541,330.166772 196.764037,329.686774 192.812615,327.451442 C189.975602,325.846536 188.308535,323.052236 187.66373,318.657004 C186.345928,309.674393 190.047798,295.825096 195.507831,286.19166 L180.718169,277.809184 Z" id="Path" fill="#EBBAAA"></path>
                    <polygon id="Path" fill="#272727" points="102.498 103.869422 108.205 73.869922 115.224 35.884722 292.381 65.893322 202.086 123.363422 202.717 105.909422 185.356 113.708422 182.574 94.752222 161.828 110.914422 152.593 99.957422 127.049 106.784422 127.02 96.920622"></polygon>
                    <path d="M106.302798,274.505753 L106.688768,274.321517 C106.887091,274.228653 107.12068,274.121673 107.387765,274.002691 C108.675415,273.42906 110.146969,272.849286 111.763988,272.306348 C116.343937,270.768561 121.093685,269.851422 125.686,269.851422 C130.278315,269.851422 135.028063,270.768561 139.608012,272.306348 C141.225031,272.849286 142.696585,273.42906 143.984235,274.002691 L144.359519,274.171898 L144.954046,274.449964 C145.076008,274.50863 145.177634,274.558763 145.25818,274.59947 L145.390942,274.668056 C148.803307,276.485105 153.042585,275.191846 154.859634,271.77948 C156.676683,268.367115 155.383424,264.127837 151.971058,262.310788 L151.518947,262.077698 L151.144289,261.892831 C150.740808,261.696838 150.251429,261.468265 149.681297,261.214278 C148.002736,260.466503 146.12036,259.72487 144.064238,259.034496 C138.149499,257.048533 131.94981,255.851422 125.686,255.851422 C119.42219,255.851422 113.222501,257.048533 107.307762,259.034496 C105.25164,259.72487 103.369264,260.466503 101.690703,261.214278 L101.147679,261.459528 L100.436586,261.792153 C100.004615,261.998807 99.6576852,262.174075 99.4009417,262.310788 C95.9885764,264.127837 94.6953171,268.367115 96.5123662,271.77948 C98.2504131,275.043482 102.204639,276.368642 105.531545,274.887505 L105.757374,274.78216 L106.302798,274.505753 Z" id="Path" fill="#393939"></path>
                    <path d="M231.611798,274.505753 L231.997768,274.321517 C232.196091,274.228653 232.42968,274.121673 232.696765,274.002691 C233.984415,273.42906 235.455969,272.849286 237.072988,272.306348 C241.652937,270.768561 246.402685,269.851422 250.995,269.851422 C255.587315,269.851422 260.337063,270.768561 264.917012,272.306348 C266.534031,272.849286 268.005585,273.42906 269.293235,274.002691 L269.668519,274.171898 L270.263046,274.449964 C270.385008,274.50863 270.486634,274.558763 270.56718,274.59947 L270.699942,274.668056 C274.112307,276.485105 278.351585,275.191846 280.168634,271.77948 C281.985683,268.367115 280.692424,264.127837 277.280058,262.310788 L276.827947,262.077698 L276.453289,261.892831 C276.049808,261.696838 275.560429,261.468265 274.990297,261.214278 C273.311736,260.466503 271.42936,259.72487 269.373238,259.034496 C263.458499,257.048533 257.25881,255.851422 250.995,255.851422 C244.73119,255.851422 238.531501,257.048533 232.616762,259.034496 C230.56064,259.72487 228.678264,260.466503 226.999703,261.214278 L226.456679,261.459528 L225.745586,261.792153 C225.313615,261.998807 224.966685,262.174075 224.709942,262.310788 C221.297576,264.127837 220.004317,268.367115 221.821366,271.77948 C223.559413,275.043482 227.513639,276.368642 230.840545,274.887505 L231.066374,274.78216 L231.611798,274.505753 Z" id="Path" fill="#393939"></path>
                    <path d="M294.031,47.766622 C294.031,24.163922 259.376,6.087752 242.048,7.10542736e-14 C246.104,1.697112 254.312,9.973722 254.693,29.503222 C255.074,49.032722 237.056,57.309122 228,59.006222 C250.01,65.094122 294.03,71.369222 294.031,47.766622 Z" id="Path" fill="#272727"></path>
                    <path d="M305.967,66.403622 C322.657,49.714222 302.772,25.364322 290.743,15.275522 C293.366,17.829422 295.25,26.421522 281.8,40.358222 C268.35,54.295022 245.513,54.132822 235.776,52.309622 C252.219,63.961522 289.277,83.093122 305.967,66.403622 Z" id="Path" fill="#272727"></path>
                </g>
            </g>
        </g>
    </g>
</svg>