<?xml version="1.0" encoding="UTF-8"?>
<svg width="798px" height="1360px" viewBox="0 0 798 1360" version="1.1" xmlns="http://www.w3.org/2000/svg" xmlns:xlink="http://www.w3.org/1999/xlink">
    <!-- Generator: Sketch 55.2 (78181) - https://sketchapp.com -->
    <title>gee_me_058</title>
    <desc>Created with Sketch.</desc>
    <defs>
        <path d="M80.2585314,38.1026495 C59.997517,28.1677517 59.3355337,11.8806964 61.536654,4.97259652 L51.012869,0.0720666162 C49.3090083,1.1015897 44.4167146,3.0988645 37.2563815,12.5704769 C27.7075549,25.2027252 21.5273278,25.3674489 12.4469341,37.0010598 C6.15963664,45.0519304 -0.571385314,58.3842544 0.936866011,68.2367903 C3.27800151,83.5457986 13.5722029,86.9432248 30.1114913,94.6440575 C39.6345799,99.0915973 56.8399697,104.053899 69.5051628,114.843301 C87.1892808,129.894928 141.714883,158.865708 157.851628,160.893868 C185.34916,164.353066 188.405814,138.532627 182.354277,125.344436 C171.734746,102.190462 129.137199,85.2342165 125.986858,69.5957608 C123.408933,56.7987888 131.408327,35.7656321 128.9838,27.8280091 C124.635095,13.6 121.246934,17.9342922 118.337502,28.3942468 C114.734171,41.3559425 105.585829,50.518698 80.2585314,38.1026495 Z" id="path-1"></path>
        <path d="M80.151461,39.1321726 C59.8894171,29.20757 59.2274338,12.9102195 61.4285541,6.00211961 L48.7911582,0.11324754 C47.0872975,1.15306586 44.3086147,4.12838759 37.1482816,13.6 C27.6004845,26.2322483 21.4192279,26.4072672 12.3388342,38.0305829 C6.05153671,46.0814534 -0.678455715,59.4137774 0.828766086,69.2663134 C3.16990159,84.5753217 13.464103,87.9727479 30.0033914,95.6838759 C39.5264799,100.12112 56.7318698,105.083422 69.3980924,115.872824 C87.0811809,130.924451 141.606783,159.895231 157.743528,161.933687 C185.242089,165.392884 189.963482,138.491446 183.667949,124.767903 C173.047388,101.613929 130.238789,86.2637396 127.088448,70.6252839 C124.510522,57.8283119 129.865072,32.7182438 127.440545,24.7806207 C123.09081,10.5526117 121.138834,18.9638153 118.229402,29.4340651 C114.627101,42.3957608 105.477729,51.548221 80.151461,39.1321726 Z" id="path-3"></path>
        <path d="M64.1578198,36.074489 C41.5968509,35.6317941 34.1132475,21.1464042 33.1918244,13.9500379 L21.580863,13.9500379 C20.4751552,15.6178653 16.8810901,19.4888721 14.3927328,31.0915973 C11.0756094,46.5756245 5.54501136,49.3450416 2.22685844,63.717184 C-0.07000757,73.6726722 -0.536381529,88.600757 4.99215746,96.8987131 C13.5794095,109.778047 24.3451325,108.511734 42.5934292,108.511734 C53.0997123,108.511734 70.7930961,105.742316 86.8289478,110.169266 C109.217986,116.346404 170.878183,119.568812 186.36221,114.596215 C212.746828,106.112945 204.608448,81.4146858 193.55137,72.01514 C174.14383,55.5221802 128.370204,58.1371688 118.908887,45.2990159 C111.167903,34.7978804 109.528902,12.3439818 103.980802,6.17713853 C94.0273732,-4.87993944 92.7867979,0.473580621 94.5709614,11.190916 C96.7813475,24.4614686 92.3585163,36.6304315 64.1578198,36.074489 Z" id="path-5"></path>
        <path d="M64.0610447,38.1850114 C41.5011052,37.7423164 34.0175019,23.2466313 33.0960787,16.0605602 L19.152218,16.0605602 C18.0465102,17.7180924 16.7853444,21.5890992 14.2969871,33.2021196 C10.9788342,48.6861469 5.44926571,51.455564 2.13111279,65.8277063 C-0.165753217,75.7831945 -0.633156699,90.7112793 4.89538229,99.0092354 C13.4836639,111.888569 24.2493868,110.622256 42.496654,110.622256 C53.0029372,110.622256 70.6973505,107.852839 86.7332021,112.279788 C109.121211,118.456927 170.781408,121.679334 186.265435,116.696442 C212.651083,108.223467 205.568993,81.8470855 194.064073,72.0666162 C174.657562,55.5633611 129.367812,59.7329296 119.906495,46.8947767 C112.16654,36.383346 106.409447,11.3659349 100.860318,5.1990916 C90.9079182,-5.85798637 92.6900227,2.58410295 94.4752157,13.3014383 C96.6856018,26.5719909 92.2617411,38.7306586 64.0610447,38.1850114 Z" id="path-7"></path>
    </defs>
    <g id="GEE!-ME" stroke="none" stroke-width="1" fill="none" fill-rule="evenodd">
        <g id="gee_me_058" transform="translate(-184.000000, -121.000000)">
            <g transform="translate(219.000000, 121.000000)">
                <g id="lower-limb" transform="translate(168.529207, 704.569569)">
                    <path d="M263.01874,-9.92490172 C268.500112,-24.2649239 284.568527,-31.4462788 298.908549,-25.964907 C313.105171,-20.5383488 320.285583,-4.73543003 315.109202,9.49419485 L314.948554,9.92490172 L97.7191823,578.226794 C92.2378104,592.566816 76.1693958,599.748171 61.8293736,594.266799 C47.6327517,588.840241 40.4523394,573.037323 45.6287205,558.807698 L45.7893683,558.376991 L263.01874,-9.92490172 Z" id="Path" fill="#EBBAAA" fill-rule="nonzero"></path>
                    <path d="M115.64739,19.3149963 C130.417366,15.731783 145.294483,24.6739273 149.102456,39.3291819 L149.214449,39.7750223 L275.845789,561.748376 C279.465197,576.667543 270.304931,591.696028 255.385763,595.315435 C240.615787,598.898648 225.73867,589.956504 221.930697,575.30125 L221.818704,574.855409 L95.187364,52.8820557 C91.5679567,37.9628881 100.728222,22.9344037 115.64739,19.3149963 Z" id="Path" fill="#EBBAAA" fill-rule="nonzero"></path>
                    <path d="M188.535138,640.471461 C192.204359,637.279939 193.95043,633.100076 193.64775,631.133687 C193.3461,629.157002 75.9928219,562.866011 75.9928219,562.866011 C56.4792413,551.942771 19.5770157,523.332324 11.7361678,532.917184 C-14.9912811,565.604542 10.0961376,577.299924 26.1340482,584.774262 C48.1864328,595.059198 53.52451,590.436639 67.0905357,598.981681 C74.1633594,603.439516 82.8319438,613.642089 133.451535,637.238759 C174.050778,656.161393 180.320574,647.626646 188.535138,640.471461 Z" id="Path" fill="#DEDEDE" fill-rule="nonzero"></path>
                    <path d="M90.6738211,521.911582 C70.3963344,511.98698 64.0256455,501.887358 62.1282344,485.013475 L63.2576213,482.594095 C54.2647371,478.403936 50.07046,490.603785 43.0717621,499.72536 C33.7401648,511.884027 32.1032231,508.764572 23.2235865,519.955488 C17.0752746,527.707797 10.5542753,540.597426 12.1809218,550.192581 C14.7073715,565.110371 24.988189,568.548978 41.5357136,576.260106 C51.0629203,580.707646 68.2374245,585.762604 80.9715955,596.418168 C98.7524888,611.284481 153.349128,640.172899 169.423072,642.355488 C196.813533,646.082362 199.51912,621.003179 193.330657,608.09296 C182.470218,585.433157 140.020922,570.793338 136.685267,555.535806 C133.957031,543.068282 142.101588,518.071461 139.587493,510.319152 C135.078181,496.430886 131.1732,502.813929 128.415108,512.965026 C125.00018,525.525208 116.02068,534.317335 90.6738211,521.911582 Z" id="Path" fill="#252424" fill-rule="nonzero"></path>
                    <g id="Clipped" transform="translate(9.982890, 485.044360)">
                        <mask id="mask-2" fill="white">
                            <use xlink:href="#path-1"></use>
                        </mask>
                        <g id="Path"></g>
                        <path d="M123.418198,33.2021196 C125.579167,25.4292203 125.360908,19.8800908 124.981014,18.0784254 L129.320454,13.9912188 L140.849054,19.3653293 C144.014837,26.5411052 147.661408,42.1898562 136.920394,47.4301287 C123.495413,53.9881908 120.71673,42.9311128 123.418198,33.2021196 Z" id="Path" fill="#D9D8DD" fill-rule="nonzero" mask="url(#mask-2)"></path>
                    </g>
                    <g id="Clipped" transform="translate(9.982890, 484.014837)">
                        <mask id="mask-4" fill="white">
                            <use xlink:href="#path-3"></use>
                        </mask>
                        <g id="Path"></g>
                        <g id="Group" mask="url(#mask-4)" fill="#DEDEDE" fill-rule="nonzero">
                            <g transform="translate(84.420893, 117.365632)" id="Path">
                                <path d="M78.1613929,18.7064345 C87.3838607,22.9995458 92.3368963,18.3975776 93.6598335,15.5560939 C90.2016654,24.7188494 81.1737774,43.651779 72.7296291,46.060863 C62.1749584,49.0773656 7.67715367,19.4065102 1.560757,12.8896291 C-4.55461014,6.38304315 10.9736866,-4.68433005 15.6199243,2.3679031 C20.266162,9.40984103 41.7492203,16.987131 52.571567,14.7118849 C63.3939137,12.4263437 66.6348524,13.332324 78.1613929,18.7064345 Z"></path>
                                <path d="M93.2089023,12.0145344 C96.4138077,6.18743376 99.3973656,6.15654807 100.48866,6.866919 L116.561575,15.5766843 L100.540136,44.7121877 L73.8837245,46.9359576 C69.9519758,44.8975019 62.7895836,39.3174868 65.592975,33.3050719 C69.0974716,25.7895534 76.6150492,29.2899319 83.227676,26.8808478 C89.8413323,24.4717638 89.2040575,19.2932627 93.2089023,12.0145344 Z"></path>
                            </g>
                        </g>
                    </g>
                    <path d="M114.064336,550.385213 C114.225129,548.623393 115.735516,547.309506 117.4819,547.370883 L117.669865,547.382763 L142.374301,549.637419 C144.708048,549.850409 146.072798,552.338667 145.049947,554.406018 L144.966533,554.564169 L136.645,569.403 L158.522758,571.203371 C160.463697,571.363076 161.836094,573.146151 161.525584,575.042059 L161.490244,575.225835 L158.079,590.661 L177.202165,588.741576 C178.962455,588.564813 180.539299,589.798154 180.810737,591.524406 L180.834773,591.711205 C181.011537,593.471495 179.778196,595.048339 178.051944,595.319777 L177.865144,595.343814 L154.181995,597.722012 C151.995322,597.941592 150.221761,596.018944 150.576429,593.883389 L150.610948,593.704975 L154.191,577.504 L130.952605,575.592693 C128.604628,575.399495 127.219438,572.900606 128.247072,570.822374 L128.330904,570.663386 L136.676,555.78 L117.066786,553.990741 C115.304965,553.829949 113.991078,552.319562 114.052455,550.573178 L114.064336,550.385213 Z" id="Path" fill="#2A2A2A" fill-rule="nonzero"></path>
                    <path d="M383.699771,634.325208 C385.675426,629.877668 385.492171,625.358062 384.385434,623.690235 C383.278696,622.032702 248.908431,611.531567 248.908431,611.531567 C226.605873,609.874035 181.070066,599.527328 178.014442,611.531567 C167.598757,652.444815 195.276455,652.444815 212.970869,652.444815 C237.301588,652.444815 240.188371,646.010295 256.096561,648.02816 C264.390399,649.078274 276.555244,654.658289 332.403783,654.658289 C377.196274,654.658289 379.27591,644.280696 383.699771,634.325208 Z" id="Path" fill="#DEDEDE" fill-rule="nonzero"></path>
                    <path d="M244.909764,568.19894 C222.338499,567.776836 212.297561,561.311431 203.449839,546.815746 L203.449839,544.149281 C193.528325,544.149281 194.880089,556.977139 192.390702,568.19894 C189.07152,583.168206 186.269158,581.026798 182.949976,594.92536 C180.65208,604.5514 180.184677,618.985314 185.716304,627.005299 C194.307674,639.452233 205.078545,638.227101 223.335078,638.227101 C233.846508,638.227101 251.549158,635.550341 267.592216,639.833157 C289.99155,645.804391 351.680574,648.91355 367.172837,644.105678 C393.569809,635.910674 385.42834,612.036033 374.365085,602.945344 C354.94828,586.998032 310.287568,591.661771 300.822133,579.245723 C293.07806,569.094625 289.900952,542.996215 284.349764,537.035276 C274.392216,526.348827 273.552125,533.792279 275.338348,544.149281 C277.549764,556.977139 273.123844,568.734292 244.909764,568.19894 Z" id="Path" fill="#252424" fill-rule="nonzero"></path>
                    <g id="Clipped" transform="translate(180.883723, 533.431945)">
                        <mask id="mask-6" fill="white">
                            <use xlink:href="#path-5"></use>
                        </mask>
                        <g id="Path"></g>
                        <path d="M101.208297,13.4043906 C99.8812415,5.43588191 97.3372899,0.504466313 96.2315821,-0.978046934 L98.4419682,-6.50658592 L111.160696,-6.50658592 C117.058834,-1.33838002 126.975201,11.3041635 119.455564,20.5904618 C110.054989,32.2034822 102.866858,23.3598789 101.208297,13.4043906 Z" id="Path" fill="#D9D8DD" fill-rule="nonzero" mask="url(#mask-6)"></path>
                    </g>
                    <g id="Clipped" transform="translate(180.883723, 531.372899)">
                        <mask id="mask-8" fill="white">
                            <use xlink:href="#path-7"></use>
                        </mask>
                        <g id="Path"></g>
                        <g id="Group" mask="url(#mask-8)" fill="#DEDEDE" fill-rule="nonzero">
                            <g transform="translate(103.981832, 71.037093)" id="Path">
                                <path d="M75.7451022,20.1786525 C85.9188494,20.1786525 88.4628009,13.9088569 88.4628009,10.7791067 C89.1999394,20.5492808 89.0156548,41.5206662 82.3803785,47.2757002 C74.085511,54.4617714 12.1555791,50.5907646 3.86071158,47.2757002 C-4.43312642,43.9606359 4.96641938,27.3647237 12.1555791,31.791673 C19.3437093,36.2186223 42.0148372,34.0051476 50.8615291,27.3647237 C59.7092506,20.734595 63.026374,20.1786525 75.7451022,20.1786525 Z"></path>
                                <path d="M86.5571537,7.76260409 C86.9988191,1.12218017 89.6899924,-0.164723694 90.9810144,0.0205904618 L109.228282,1.12218017 L107.015836,34.3037093 L83.7918547,47.5742619 C79.3679939,47.3889478 70.521302,45.3607873 70.521302,38.7203634 C70.521302,30.4327025 78.81514,30.4327025 83.7918547,25.4498107 C88.7685693,20.4772142 86.0042998,16.050265 86.5571537,7.76260409 Z"></path>
                            </g>
                        </g>
                    </g>
                    <path d="M303.484512,571.490682 C305.691057,570.697625 307.980415,572.378929 307.923763,574.68691 L307.915077,574.861154 L306.642,591.824 L327.233501,584.215441 C329.060188,583.540424 331.057215,584.576857 331.57664,586.426393 L331.622239,586.607889 L335.052,602.043 L351.569987,592.218059 C353.088547,591.314809 355.035931,591.763543 356.012977,593.208776 L356.117473,593.373441 C357.020723,594.892001 356.571989,596.839384 355.126756,597.81643 L354.962091,597.920927 L334.503409,610.08989 C332.61562,611.212759 330.197254,610.221864 329.614052,608.139209 L329.568613,607.958046 L325.968,591.756 L304.097063,599.839063 C301.885966,600.656132 299.573521,598.973807 299.62994,596.653899 L299.638652,596.47874 L300.915,579.465 L282.383342,586.125669 C280.718466,586.724044 278.889595,585.90992 278.207627,584.301025 L278.139007,584.12563 C277.540632,582.460754 278.354757,580.631883 279.963652,579.949915 L280.139046,579.881295 L303.484512,571.490682 Z" id="Path" fill="#2A2A2A" fill-rule="nonzero"></path>
                    <path d="M200.959423,53.0204391 L328.105524,65.8894777 L137.643753,536.005753 C137.643753,536.005753 106.243299,532.917184 88.2266447,527.254807 C70.2099907,521.59243 41.3833442,502.031491 41.3833442,502.031491 L200.959423,53.0204391 Z" id="Path" fill="#000000" fill-rule="nonzero"></path>
                    <path d="M51.7300513,50.3097048 L199.9299,78.2437547 L292.586978,559.550946 C292.586978,559.550946 279.203178,569.125511 247.287962,573.964269 C215.372746,578.792733 191.693715,573.964269 191.693715,573.964269 L51.7300513,50.3097048 Z" id="Path" fill="#252424" fill-rule="nonzero"></path>
                    <path d="M221.549885,141.183649 C200.547614,107.003482 132.153306,78.5546707 100.580922,68.602271 L231.845116,68.602271 C237.164661,107.037456 242.552156,175.363815 221.549885,141.183649 Z" id="Path" fill="#000000" fill-rule="nonzero"></path>
                    <polygon id="Path" fill="#000000" fill-rule="nonzero" points="83.3014063 38.0552914 331.708855 59.9933989 325.757182 89.2668584 80.68127 67.3287509"></polygon>
                    <path d="M237.294349,44.8469767 L212.585795,44.8469767 C209.742846,44.8469767 207.43818,47.1516426 207.43818,49.9945921 L207.43818,86.0279002 C207.43818,88.8708497 209.742846,91.1755156 212.585795,91.1755156 L237.294349,91.1755156 C240.137299,91.1755156 242.441965,88.8708497 242.441965,86.0279002 L242.441965,49.9945921 C242.441965,47.1516426 240.137299,44.8469767 237.294349,44.8469767 Z M232.146,55.142 L232.146,80.88 L217.733,80.88 L217.733,55.142 L232.146,55.142 Z" id="Rectangle" fill="#252424" fill-rule="nonzero" transform="translate(224.940072, 68.011246) rotate(3.705350) translate(-224.940072, -68.011246) "></path>
                </g>
                <g id="upper-limb" transform="translate(0.000000, 155.833762)">
                    <path d="M-26.1096853,157.223198 C-12.8698371,140.873991 11.1168312,138.353358 27.4660378,151.593206 C110.232236,218.618594 155.182268,250.033486 253.827448,309.726467 C271.826386,320.618132 277.587969,344.038593 266.696304,362.037531 C255.804639,380.036469 232.384178,385.798052 214.38524,374.906387 C112.824499,313.449118 65.0321331,280.047762 -20.4796941,210.798921 C-36.8289007,197.559073 -39.3495336,173.572404 -26.1096853,157.223198 Z" id="Path" fill="#FBD2C5" fill-rule="nonzero"></path>
                    <path d="M680.855647,-18.0892608 C690.84607,-36.6036225 713.953764,-43.5136402 732.468125,-33.5232173 C750.982487,-23.5327944 757.892505,-0.42510086 747.902082,18.0892608 C690.035682,125.32791 623.688955,225.429989 544.911278,323.902085 C531.769052,340.329868 507.797824,342.993338 491.370042,329.851112 C474.942259,316.708886 472.27879,292.737658 485.421016,276.309875 C561.350995,181.397401 625.166853,85.1138253 680.855647,-18.0892608 Z" id="Path" fill="#FBD2C5" fill-rule="nonzero"></path>
                    <path d="M458.565026,303.052475 C438.553157,331.380833 445.297562,370.562422 473.62592,390.573263 L477.915942,394.01187 C506.2443,414.02374 545.434126,407.272127 565.444966,378.944799 L762.060197,76.4214989 L655.181287,0.514761544 L458.565026,303.052475 Z" id="Path" fill="#000000" fill-rule="nonzero"></path>
                    <path d="M297.726752,466.233944 C325.566086,486.920151 364.899016,481.118789 385.584194,453.279455 L389.125753,449.073853 C409.811961,421.234519 404.004421,381.893354 376.165087,361.207146 L78.4517184,157.382165 L-9.36345794e-13,262.406904 L297.726752,466.233944 Z" id="Path" fill="#000000" fill-rule="nonzero"></path>
                    <path d="M663.417472,612.056624 C673.300893,589.818925 676.628312,577.5676 673.197941,566.757608 C615.956457,386.385163 538.845178,342.321575 507.444724,342.836336 L274.257744,408.725814 L97.1797729,701.625132 C97.1797729,701.625132 227.929205,695.443876 267.051083,744.859955 L441.555246,699.051325 C475.529508,718.097502 505.385678,760.306919 560.465163,752.071764 C615.544648,743.835579 651.063195,639.853747 663.417472,612.056624 Z" id="Path" fill="#000000" fill-rule="nonzero"></path>
                    <path d="M243.177472,329.871552 C243.939319,296.37293 269.094686,269.325299 300.508524,268.231945 L373.847631,265.673581 C379.822983,265.472824 385.80863,265.80433 391.727358,266.677366 L463.316276,277.231007 C494.898955,281.88651 507.02056,312.826768 503.839334,346.646601 C503.839334,346.646601 516.19567,434.16327 516.19567,490.846752 C516.19567,547.530235 497.09184,613.550462 497.09184,613.550462 C496.634731,615.654807 495.784345,616.77081 494.127843,616.680212 L228.553096,601.471067 C226.962483,601.381499 225.748675,599.906192 225.880454,598.210568 L239.939621,472.162967 L243.177472,329.871552 Z" id="Path" fill="#F3F6F9" fill-rule="nonzero"></path>
                    <path d="M456.483331,366.51022 C411.184315,346.331567 409.4681,307.656503 414.272884,290.840273 L481.191885,234.216503 C490.286692,239.87888 521.137381,267.573051 571.789917,333.050719 C620.734474,396.320061 659.840908,515.629432 674.808115,572.832824 C675.694534,575.6043 676.153702,577.491416 676.28651,578.591976 C675.823225,576.751188 675.331113,574.830098 674.808115,572.832824 C671.136836,561.352612 660.135352,534.701347 634.590825,485.934898 C594.954186,410.264951 513.107101,391.733535 456.483331,366.51022 Z" id="Path" fill="#252424" fill-rule="nonzero"></path>
                    <path d="M313.379621,349.008327 L362.79673,301.135503 L313.379621,255.321726 L240.283482,277.456472 C240.283482,277.456472 203.220651,315.034065 198.073036,392.763058 C192.92542,470.492051 53.940112,678.455715 88.4288266,698.531416 C122.91785,718.607116 246.460621,659.409538 269.62489,620.287661 C292.78916,581.165783 313.379621,349.008327 313.379621,349.008327 Z" id="Path" fill="#252424" fill-rule="nonzero"></path>
                    <path d="M362.79673,301.274489 L313.379621,349.147313 C313.379621,349.147313 294.04003,567.200303 271.761151,616.266344 C269.528115,617.24645 267.590553,617.468827 266.021559,616.823316 C248.519667,609.616654 236.16539,341.940651 236.16539,341.940651 L297.936775,335.248751 L283.523452,295.612112 L330.879455,271.684966 L362.79673,301.274489 Z" id="Path" fill="#000000"></path>
                    <polygon id="Path" fill="#FFFFFF" fill-rule="nonzero" points="97.1797729 336.278274 184.689235 213.250265 234.106344 245.165481 147.111643 373.341105"></polygon>
                </g>
                <g id="head" transform="translate(151.744930, 0.000000)">
                    <rect id="Rectangle" fill="#EBBAAA" fill-rule="nonzero" x="192.520384" y="380.269796" width="78.2437547" height="118.395155" rx="39.0302498"></rect>
                    <path d="M355.699794,350.552612 C388.393329,350.552612 414.897371,324.048569 414.897371,291.355034 C414.897371,258.661499 388.393329,232.157456 355.699794,232.157456 C323.006259,232.157456 296.502216,258.661499 296.502216,291.355034 C296.502216,324.048569 323.006259,350.552612 355.699794,350.552612 Z" id="Path" fill="#EBBAAA" fill-rule="nonzero"></path>
                    <path d="M107.58473,350.552612 C74.8911943,350.552612 48.3871519,324.048569 48.3871519,291.355034 C48.3871519,258.661499 74.8911943,232.157456 107.58473,232.157456 C140.278265,232.157456 166.782307,258.661499 166.782307,291.355034 C166.782307,324.048569 140.278265,350.552612 107.58473,350.552612 Z" id="Path" fill="#EBBAAA" fill-rule="nonzero"></path>
                    <path d="M83.3219589,204.82053 C73.7443056,117.769205 141.90697,41.6956851 229.483352,41.6956851 C317.13077,41.6956851 385.316085,117.886571 375.625184,204.996578 L359.945547,345.940348 C352.546365,412.453717 296.32205,462.770628 229.396872,462.770628 C162.411982,462.770628 106.156781,412.365178 98.8317242,345.781802 L83.3219589,204.82053 Z" id="Path" fill="#F6DDD6" fill-rule="nonzero"></path>
                    <path d="M384.726168,144.221771 C385.393299,137.950946 380.711028,132.39461 374.42373,131.98383 C367.899642,131.558637 362.427727,136.834943 362.621278,143.368297 L366.893798,254.045117 C366.948363,255.89517 367.368409,257.393126 369.207137,257.512551 C371.128227,257.638153 371.76962,256.230795 371.976554,254.325148 L384.726168,144.221771 Z" id="Path" fill="#393939" fill-rule="nonzero"></path>
                    <path d="M295.074268,265.102195 C301.79551,265.102195 307.263147,270.469515 307.424862,277.151839 L307.428545,277.456472 L307.428545,290.840273 C307.428545,297.663351 301.897347,303.19455 295.074268,303.19455 C288.353026,303.19455 282.885389,297.82723 282.723673,291.144906 L282.719991,290.840273 L282.719991,277.456472 C282.719991,270.633394 288.251189,265.102195 295.074268,265.102195 Z" id="Path" fill="#000000" fill-rule="nonzero"></path>
                    <path d="M166.383882,265.102195 C173.105124,265.102195 178.572761,270.469515 178.734476,277.151839 L178.738159,277.456472 L178.738159,290.840273 C178.738159,297.663351 173.206961,303.19455 166.383882,303.19455 C159.66264,303.19455 154.195003,297.82723 154.033287,291.144906 L154.029605,290.840273 L154.029605,277.456472 C154.029605,270.633394 159.560803,265.102195 166.383882,265.102195 Z" id="Path" fill="#000000" fill-rule="nonzero"></path>
                    <path d="M330.055963,249.402899 C336.860902,248.905692 342.78046,254.019118 343.277667,260.824057 C343.767453,267.527429 338.812837,273.371654 332.160064,274.01989 L331.856509,274.045761 L274.762247,278.217389 C267.957308,278.714596 262.03775,273.601169 261.540543,266.796231 C261.050757,260.092858 266.005373,254.248634 272.658146,253.600398 L272.961701,253.574526 L330.055963,249.402899 Z" id="Path" fill="#393939" fill-rule="nonzero"></path>
                    <path d="M116.364392,261.017349 C116.822393,254.31173 122.549814,249.222543 129.227625,249.516552 L129.531801,249.533637 L186.644595,253.4345 C193.451814,253.89944 198.593247,259.79469 198.128307,266.601909 C197.670306,273.307528 191.942885,278.396715 185.265074,278.102706 L184.960898,278.085622 L127.848104,274.184759 C121.040885,273.719818 115.899452,267.824568 116.364392,261.017349 Z" id="Path" fill="#393939" fill-rule="nonzero"></path>
                    <path d="M223.873722,291.672793 L239.099886,300.302983 C234.51155,308.398142 231.896713,317.047533 232.177045,322.917126 C232.379479,327.15571 233.437824,328.369579 237.416673,328.416439 L237.663942,328.417865 L237.663942,345.919758 C223.663686,345.919758 215.32742,336.992038 214.695079,323.752064 C214.24549,314.338562 217.651078,302.863885 223.52534,292.293514 L223.873722,291.672793 Z" id="Path" fill="#EBBAAA" fill-rule="nonzero"></path>
                    <path d="M371.657402,246.57078 C372.172163,242.452687 374.231209,237.305072 377.319779,236.275549 C380.408348,235.246026 382.277962,87.7600484 338.197901,52.295346 C294.117841,16.8307464 188.615403,2.43933142 115.483231,52.295346 C42.3500285,102.151443 101.407591,204.875095 76.7772806,233.05623 C67.7988098,243.328812 85.0947977,247.093777 84.4266372,252.747918 L88.2986735,221.747949 C88.2986735,221.747949 109.143427,182.765057 124.864245,134.371294 C137.387364,95.8231703 216.029544,118.952127 231.557841,118.952127 C247.086138,118.952127 318.288984,96.8248963 330.737977,134.371294 C347.268,184.228009 355.768772,201.980076 364.45074,216.199849 C366.620975,236.073762 370.688621,254.323089 371.657402,246.57078 Z" id="Path" fill="#393939" fill-rule="nonzero"></path>
                    <path d="M103.108363,38.0803089 C71.0366599,71.0370931 65.3228067,163.033217 81.0590672,204.94922 C81.0590672,228.39352 12.0357212,223.796699 0.67081583,259.568509 C-8.58356721,288.693717 79.3871217,277.496624 173.556569,259.568509 C267.727046,241.640394 492.302065,167.067918 457.619491,156.221893 C435.570195,149.326147 416.276932,151.164875 390.211467,163.033217 C390.211467,111.546768 323.269817,2.92608061e-14 272.823185,2.92608061e-14 C238.227091,2.92608061e-14 227.438719,9.74217108 205.389423,18.016654 C183.340127,26.291137 151.593753,-11.7415049 103.108363,38.0803089 Z" id="Path" fill="#000000" fill-rule="nonzero"></path>
                    <path d="M401.172799,111.872097 C398.236599,106.855231 392.372436,105.598183 382.338704,111.60648 C362.620248,123.41511 288.779764,133.133808 222.912935,141.804451 C164.645017,149.474398 112.617038,156.322786 109.817765,163.068221 C103.852708,177.440363 114.864487,202.476306 120.828515,205.721363 C126.792542,208.967449 213.504124,200.065163 250.207652,195.985163 C286.911179,191.906192 358.788363,172.341136 390.597538,163.068221 C398.233511,155.077063 405.428848,131.484512 403.141247,117.774353 C402.523533,115.826495 401.866698,113.858047 401.172799,111.872097 Z" id="Path" fill="#FFFFFF"></path>
                    <path d="M274.36747,380.408781 L186.858007,380.408781 C195.266122,387.787373 215.581702,402.543528 229.583216,402.543528 C243.58473,402.543528 265.273692,387.787373 274.36747,380.408781 Z" id="Path" fill="#FFFFFF" fill-rule="nonzero"></path>
                    <circle id="Oval" fill="#FBD2C5" fill-rule="nonzero" cx="303.194116" cy="342.831188" r="26.2528388"></circle>
                    <circle id="Oval" fill="#FBD2C5" fill-rule="nonzero" cx="161.11993" cy="342.831188" r="26.2528388"></circle>
                </g>
            </g>
        </g>
    </g>
</svg>