<?xml version="1.0" encoding="UTF-8"?>
<svg width="576px" height="1316px" viewBox="0 0 576 1316" version="1.1" xmlns="http://www.w3.org/2000/svg" xmlns:xlink="http://www.w3.org/1999/xlink">
    <!-- Generator: Sketch 55.2 (78181) - https://sketchapp.com -->
    <title>gee_me_001</title>
    <desc>Created with Sketch.</desc>
    <defs>
        <path d="M208.879717,84.55 C208.879717,37.85 171.024717,0 124.327717,0 L111.648717,0 L87.3407173,0 L63.0327173,0 L38.7247173,0 L14.4167173,0 L14.4167173,79.25 C14.4167173,85.64 19.5927173,90.81 25.9767173,90.81 L202.616717,90.81 C206.075717,90.81 208.879717,88.01 208.879717,84.55 Z" id="path-1"></path>
        <path d="M208.879717,84.55 C208.879717,37.85 171.024717,0 124.327717,0 L111.648717,0 L87.3407173,0 L63.0327173,0 L38.7247173,0 L14.4167173,0 L14.4167173,79.25 C14.4167173,85.64 19.5927173,90.81 25.9767173,90.81 L202.616717,90.81 C206.075717,90.81 208.879717,88.01 208.879717,84.55 Z" id="path-3"></path>
    </defs>
    <g id="GEE!-ME" stroke="none" stroke-width="1" fill="none" fill-rule="evenodd">
        <g id="gee_me_001" transform="translate(-322.000000, -136.000000)">
            <g transform="translate(298.000000, 136.000000)">
                <g id="lower-limb" transform="translate(0.000000, 795.000000)">
                    <path d="M146.966751,126.82724 C139.971667,159.644104 131.928588,218.132504 126.929338,274.084228 C120.85569,342.060647 119.625653,399.042608 124.977993,435.407142 C128.51656,459.448653 150.874631,476.069573 174.916142,472.531007 C198.957653,468.99244 215.578573,446.634369 212.040007,422.592858 C207.973477,394.964298 209.086559,343.40031 214.580162,281.915772 C219.28831,229.222068 226.870661,174.084034 233.033249,145.17276 C238.099224,121.406153 222.939366,98.0327266 199.17276,92.9667514 C175.406153,87.9007762 152.032727,103.060634 146.966751,126.82724 Z" id="Path" fill="#F5D0C3" fill-rule="nonzero"></path>
                    <path d="M324.913542,187.914647 C330.996227,217.314291 337.006083,261.034343 340.393386,303.036904 C344.324158,351.778477 344.504045,394.351703 340.443222,422.77746 C337.006609,446.833757 353.722164,469.121164 377.77846,472.557778 C401.834757,475.994391 424.122164,459.278836 427.558778,435.22254 C432.723673,399.06827 432.519102,350.653152 428.108614,295.963096 C424.441887,250.495675 417.942008,203.21084 411.088458,170.085353 C406.165035,146.288807 382.8829,130.989118 359.086353,135.912542 C335.289807,140.835965 319.990118,164.1181 324.913542,187.914647 Z" id="Path" fill="#F5D0C3" fill-rule="nonzero"></path>
                    <path d="M283.001,129 L117.5007,41 C117.5007,41 97.1586,80.862 82.5938,129 C70.8652,167.764 63.9934,215.41 66.0007,225 C70.5007,246.5 223.501,278 245.501,267 C267.501,256 283.001,129 283.001,129 Z" id="Path" fill="#232526" fill-rule="nonzero"></path>
                    <ellipse id="Oval" fill="#232526" fill-rule="nonzero" cx="282.001" cy="100" rx="174" ry="100"></ellipse>
                    <path d="M272.094,124.5 L442.094,32 C442.094,32 461.233,85.374 474.094,138 C485.498,184.666 491.086,230.75 487.094,238.5 C478.6,255 321.088,281 306.094,267 C291.1,253 272.094,124.5 272.094,124.5 Z" id="Path" fill="#232526" fill-rule="nonzero"></path>
                    <g id="Group-2" transform="translate(314.000000, 393.500000)">
                        <path d="M108.963,66 C113.763,62.4 116.463,15 116.463,3 C74.463,22 42.963,6.5 27.963,0.5 C25.463,15.5 24.463,36.5 24.463,52.5 C29.463,67 102.963,70.5 108.963,66 Z" id="Path" fill="#EDF0F4" fill-rule="nonzero"></path>
                        <path d="M209.463,120.93 C209.463,74.23 171.608,36.38 124.911,36.38 L112.232,36.38 L101.371,36.38 C101.371,36.38 102.497,55.23 65.903,55.23 C29.31,55.23 24.243,36.38 24.243,36.38 L19.624,36.38 C17.071,36.38 15,38.45 15,41 L15,115.63 C15,122.02 20.176,127.19 26.56,127.19 L203.2,127.19 C206.659,127.19 209.463,124.39 209.463,120.93 Z" id="Path" fill="#3B3F45" fill-rule="nonzero"></path>
                        <g id="Group" transform="translate(0.000000, 59.500000)"></g>
                        <g id="Group-3" transform="translate(0.583283, 36.380000)">
                            <mask id="mask-2" fill="white">
                                <use xlink:href="#path-1"></use>
                            </mask>
                            <g id="Path"></g>
                            <path d="M186.325717,33.51 C200.905717,25.27 195.187717,41.6 208.288717,48.53 L236.030717,101.71 L15.2487173,101.71 C9.85471731,94 -9.63628269,54.04 5.87971731,48.53 C34.3797173,38.42 84.6047173,73.39 105.410717,72.23 C126.217717,71.08 185.778717,79.74 182.280717,61.25 C178.234717,39.87 173.032717,41.02 186.325717,33.51 Z" id="Path" fill="#555D65" fill-rule="nonzero" mask="url(#mask-2)"></path>
                            <path d="M98.3317173,43.9 C105.232717,45.78 110.794717,45.53 113.946717,43.13 C122.064717,36.88 116.866717,27.35 114.661717,23.62 C118.630717,28.19 122.573717,32.78 125.651717,37.78 C130.503717,45.59 132.562717,54.17 129.289717,59.66 C123.419717,69.58 109.312717,65 100.320717,61.01 L16.8797173,23.99 L98.3317173,43.9 Z" id="Path" fill="#7F8389" fill-rule="nonzero" mask="url(#mask-2)"></path>
                        </g>
                        <path d="M131.94703,60.5389668 C130.237388,63.2886946 132.894666,66.6734947 135.97163,65.6654412 L161.308304,57.3648147 L152.282888,70.2059269 C151.181592,71.7728206 151.559033,73.9358159 153.125927,75.0371121 C154.692821,76.1384083 156.855816,75.7609669 157.957112,74.1940731 L172.984112,52.8140731 C174.902398,50.0847897 172.237563,46.4859621 169.06737,47.5245588 L142.869159,56.1074363 L151.12997,42.8210332 C152.803141,40.1299629 150.287958,36.7894691 147.239266,37.6536666 L119.86214,45.4141244 C120.896622,44.351853 122.210925,43.2287823 123.808019,42.0307816 C124.900752,41.2111089 128.753171,38.5136582 129.459439,37.983652 C130.991284,36.8341052 131.301199,34.660407 130.151652,33.1285613 C129.002105,31.5967156 126.828407,31.2868011 125.296561,32.436348 C124.711861,32.8751262 120.860217,35.5720339 119.646277,36.4826256 C113.435083,41.1417211 110.039215,45.3876473 110.039215,50.82 C110.039215,53.1209215 112.239032,54.7838404 114.452734,54.1563334 L140.507413,46.7707432 L131.94703,60.5389668 Z" id="Path" fill="#7F8389" fill-rule="nonzero"></path>
                        <path d="M125.645,38.667785 C130.240069,38.667785 135.716641,36.9587387 139.980928,34.1151403 C144.783814,30.9256824 147.607785,26.6545586 147.607785,21.92 C147.607785,16.7797814 146.358666,12.3040302 144.021889,9.12580472 C141.583008,5.80847061 138.058502,4.002215 133.736,4.002215 C124.850567,4.002215 118.131215,11.6475102 118.131215,21.92 C118.131215,22.9115657 118.119949,23.7963161 118.092852,25.2891654 L118.087793,25.5666858 L118.087298,25.5833325 C118.053725,27.4175351 118.045641,28.0029811 118.048232,28.8407251 C118.055208,31.1778377 118.189271,32.7938243 118.536439,34.1188949 C118.932761,35.6445127 119.621401,36.7432143 120.696927,37.4760778 C121.848815,38.2779344 123.46127,38.667785 125.645,38.667785 Z M124.98377,28.8196484 C124.981391,28.0505885 124.989145,27.4890696 125.021207,25.7333142 L125.021702,25.7166675 C125.024734,25.5549579 125.024734,25.5549579 125.027279,25.4150356 C125.055089,23.8829798 125.066785,22.9644114 125.066785,21.92 C125.066785,15.2929821 128.894512,10.937785 133.736,10.937785 C135.838735,10.937785 137.294183,11.68368 138.434041,13.2340996 C139.822954,15.1231459 140.672215,18.166154 140.672215,21.92 C140.672215,24.0556953 139.169545,26.3284135 136.13861,28.3411745 C132.991784,30.4395973 128.849641,31.732215 125.645,31.732215 C125.452921,31.732215 125.28007,31.7275997 125.125954,31.7193194 C125.036935,31.057058 124.987632,30.1136811 124.98377,28.8196484 Z" id="Path" fill="#7F8389" fill-rule="nonzero"></path>
                        <path d="M120.431395,37.1468594 L119.831056,37.9299098 C119.267566,38.6648972 118.427408,39.3111725 117.020376,39.9280235 C113.905239,41.3148545 109.681888,41.8294898 105.936168,41.2221339 C101.707036,40.529048 98.5234752,38.5154418 97.1162504,35.3409908 C95.5825855,31.8978315 95.0960263,28.5270295 95.732393,25.6905682 C96.3968332,22.7301913 98.2494625,20.4516656 101.183624,19.1424222 C107.206429,16.4588428 114.053245,19.5411051 117.123259,26.4401536 C117.449418,27.1731884 117.766674,27.8592028 118.203681,28.7891594 L118.253405,28.8912911 C118.833868,30.1328363 118.998092,30.48795 119.246893,31.0506123 C119.936348,32.6138441 120.329315,33.7444239 120.487914,34.7278284 C120.582142,35.3013884 120.593938,35.832214 120.529365,36.2283154 C120.521587,36.2882455 120.51627,36.3292191 120.508964,36.3711687 L120.431395,37.1468594 Z M104.008061,25.4768267 C103.083624,25.8893173 102.686192,26.3781141 102.499674,27.2091351 C102.216245,28.4724557 102.488044,30.3554396 103.454248,32.5246322 C103.80132,33.3075611 104.946424,34.0318406 107.052036,34.3769213 C108.991591,34.6914111 111.206552,34.5319517 112.978906,34.0270706 C112.954168,33.970127 112.928685,33.9119119 112.902447,33.8524211 C112.682757,33.3555958 112.527307,33.0194537 112.010319,31.9108406 L111.964845,31.8177652 C111.472846,30.7732994 111.137506,30.0481806 110.786713,29.2597842 C109.207784,25.7116166 106.359158,24.4292499 104.008061,25.4768267 Z" id="Path" fill="#7F8389" fill-rule="nonzero"></path>
                    </g>
                    <g id="Group-2" transform="translate(119.000000, 463.000000) scale(-1, 1) translate(-119.000000, -463.000000) translate(0.000000, 393.500000)">
                        <path d="M108.963,66 C113.763,62.4 116.463,15 116.463,3 C74.463,22 42.963,6.5 27.963,0.5 C25.463,15.5 24.463,36.5 24.463,52.5 C29.463,67 102.963,70.5 108.963,66 Z" id="Path" fill="#EDF0F4" fill-rule="nonzero"></path>
                        <path d="M209.463,120.93 C209.463,74.23 171.608,36.38 124.911,36.38 L112.232,36.38 L101.371,36.38 C101.371,36.38 102.497,55.23 65.903,55.23 C29.31,55.23 24.243,36.38 24.243,36.38 L19.624,36.38 C17.071,36.38 15,38.45 15,41 L15,115.63 C15,122.02 20.176,127.19 26.56,127.19 L203.2,127.19 C206.659,127.19 209.463,124.39 209.463,120.93 Z" id="Path" fill="#3B3F45" fill-rule="nonzero"></path>
                        <g id="Group" transform="translate(0.000000, 59.500000)"></g>
                        <g id="Group-3" transform="translate(0.583283, 36.380000)">
                            <mask id="mask-4" fill="white">
                                <use xlink:href="#path-3"></use>
                            </mask>
                            <g id="Path"></g>
                            <path d="M186.325717,33.51 C200.905717,25.27 195.187717,41.6 208.288717,48.53 L236.030717,101.71 L15.2487173,101.71 C9.85471731,94 -9.63628269,54.04 5.87971731,48.53 C34.3797173,38.42 84.6047173,73.39 105.410717,72.23 C126.217717,71.08 185.778717,79.74 182.280717,61.25 C178.234717,39.87 173.032717,41.02 186.325717,33.51 Z" id="Path" fill="#555D65" fill-rule="nonzero" mask="url(#mask-4)"></path>
                            <path d="M98.3317173,43.9 C105.232717,45.78 110.794717,45.53 113.946717,43.13 C122.064717,36.88 116.866717,27.35 114.661717,23.62 C118.630717,28.19 122.573717,32.78 125.651717,37.78 C130.503717,45.59 132.562717,54.17 129.289717,59.66 C123.419717,69.58 109.312717,65 100.320717,61.01 L16.8797173,23.99 L98.3317173,43.9 Z" id="Path" fill="#7F8389" fill-rule="nonzero" mask="url(#mask-4)"></path>
                        </g>
                        <path d="M131.94703,60.5389668 C130.237388,63.2886946 132.894666,66.6734947 135.97163,65.6654412 L161.308304,57.3648147 L152.282888,70.2059269 C151.181592,71.7728206 151.559033,73.9358159 153.125927,75.0371121 C154.692821,76.1384083 156.855816,75.7609669 157.957112,74.1940731 L172.984112,52.8140731 C174.902398,50.0847897 172.237563,46.4859621 169.06737,47.5245588 L142.869159,56.1074363 L151.12997,42.8210332 C152.803141,40.1299629 150.287958,36.7894691 147.239266,37.6536666 L119.86214,45.4141244 C120.896622,44.351853 122.210925,43.2287823 123.808019,42.0307816 C124.900752,41.2111089 128.753171,38.5136582 129.459439,37.983652 C130.991284,36.8341052 131.301199,34.660407 130.151652,33.1285613 C129.002105,31.5967156 126.828407,31.2868011 125.296561,32.436348 C124.711861,32.8751262 120.860217,35.5720339 119.646277,36.4826256 C113.435083,41.1417211 110.039215,45.3876473 110.039215,50.82 C110.039215,53.1209215 112.239032,54.7838404 114.452734,54.1563334 L140.507413,46.7707432 L131.94703,60.5389668 Z" id="Path" fill="#7F8389" fill-rule="nonzero"></path>
                        <path d="M125.645,38.667785 C130.240069,38.667785 135.716641,36.9587387 139.980928,34.1151403 C144.783814,30.9256824 147.607785,26.6545586 147.607785,21.92 C147.607785,16.7797814 146.358666,12.3040302 144.021889,9.12580472 C141.583008,5.80847061 138.058502,4.002215 133.736,4.002215 C124.850567,4.002215 118.131215,11.6475102 118.131215,21.92 C118.131215,22.9115657 118.119949,23.7963161 118.092852,25.2891654 L118.087793,25.5666858 L118.087298,25.5833325 C118.053725,27.4175351 118.045641,28.0029811 118.048232,28.8407251 C118.055208,31.1778377 118.189271,32.7938243 118.536439,34.1188949 C118.932761,35.6445127 119.621401,36.7432143 120.696927,37.4760778 C121.848815,38.2779344 123.46127,38.667785 125.645,38.667785 Z M124.98377,28.8196484 C124.981391,28.0505885 124.989145,27.4890696 125.021207,25.7333142 L125.021702,25.7166675 C125.024734,25.5549579 125.024734,25.5549579 125.027279,25.4150356 C125.055089,23.8829798 125.066785,22.9644114 125.066785,21.92 C125.066785,15.2929821 128.894512,10.937785 133.736,10.937785 C135.838735,10.937785 137.294183,11.68368 138.434041,13.2340996 C139.822954,15.1231459 140.672215,18.166154 140.672215,21.92 C140.672215,24.0556953 139.169545,26.3284135 136.13861,28.3411745 C132.991784,30.4395973 128.849641,31.732215 125.645,31.732215 C125.452921,31.732215 125.28007,31.7275997 125.125954,31.7193194 C125.036935,31.057058 124.987632,30.1136811 124.98377,28.8196484 Z" id="Path" fill="#7F8389" fill-rule="nonzero"></path>
                        <path d="M120.431395,37.1468594 L119.831056,37.9299098 C119.267566,38.6648972 118.427408,39.3111725 117.020376,39.9280235 C113.905239,41.3148545 109.681888,41.8294898 105.936168,41.2221339 C101.707036,40.529048 98.5234752,38.5154418 97.1162504,35.3409908 C95.5825855,31.8978315 95.0960263,28.5270295 95.732393,25.6905682 C96.3968332,22.7301913 98.2494625,20.4516656 101.183624,19.1424222 C107.206429,16.4588428 114.053245,19.5411051 117.123259,26.4401536 C117.449418,27.1731884 117.766674,27.8592028 118.203681,28.7891594 L118.253405,28.8912911 C118.833868,30.1328363 118.998092,30.48795 119.246893,31.0506123 C119.936348,32.6138441 120.329315,33.7444239 120.487914,34.7278284 C120.582142,35.3013884 120.593938,35.832214 120.529365,36.2283154 C120.521587,36.2882455 120.51627,36.3292191 120.508964,36.3711687 L120.431395,37.1468594 Z M104.008061,25.4768267 C103.083624,25.8893173 102.686192,26.3781141 102.499674,27.2091351 C102.216245,28.4724557 102.488044,30.3554396 103.454248,32.5246322 C103.80132,33.3075611 104.946424,34.0318406 107.052036,34.3769213 C108.991591,34.6914111 111.206552,34.5319517 112.978906,34.0270706 C112.954168,33.970127 112.928685,33.9119119 112.902447,33.8524211 C112.682757,33.3555958 112.527307,33.0194537 112.010319,31.9108406 L111.964845,31.8177652 C111.472846,30.7732994 111.137506,30.0481806 110.786713,29.2597842 C109.207784,25.7116166 106.359158,24.4292499 104.008061,25.4768267 Z" id="Path" fill="#7F8389" fill-rule="nonzero"></path>
                    </g>
                </g>
                <g id="upper-limb" transform="translate(24.687049, 425.016000)">
                    <path d="M73.4653967,90.6216446 C58.5294693,113.464962 35.7629253,164.389276 20.8928309,212.803762 C11.1425996,244.548849 4.43705257,275.535362 1.5664822,304.938137 C-1.9407647,340.862284 0.305577245,373.808676 9.68127591,403.185963 C18.0770881,429.492929 46.209248,444.012787 72.5162138,435.616975 C98.8231797,427.221163 113.343039,399.089003 104.947226,372.782037 C95.3731613,342.7832 99.9360216,296.046581 116.485521,242.164238 C123.222042,220.231277 131.587963,198.278414 140.506981,178.328311 C147.339589,163.045101 154.020139,150.152356 157.162506,145.346355 C172.274317,122.234037 165.788625,91.2472572 142.676307,76.1354456 C119.563988,61.023634 88.5772083,67.5093262 73.4653967,90.6216446 Z" id="Path" fill="#F5D0C3" fill-rule="nonzero"></path>
                    <path d="M379.46447,142.346468 C381.58313,145.586771 390.719745,158.779539 392.372395,161.220511 C398.05013,169.606557 402.838481,177.157517 407.345873,185.017004 C431.747521,227.565862 440.492278,266.770158 428.679991,303.781991 C420.284153,330.088949 434.803985,358.221123 461.110942,366.616961 C487.4179,375.012798 515.550074,360.492966 523.945912,334.186009 C535.933184,296.625889 536.703484,258.368955 528.214658,220.312042 C521.619924,190.74668 509.886394,162.807026 494.092785,135.2679 C488.211496,125.012767 482.145328,115.446761 475.178635,105.156916 C472.866862,101.742416 464.410788,89.5323119 463.161432,87.6215319 C448.049558,64.5092542 417.062761,58.0236454 393.950483,73.1355193 C370.838205,88.2473932 364.352597,119.23419 379.46447,142.346468 Z" id="Path" fill="#F5D0C3" fill-rule="nonzero"></path>
                    <polygon id="Path" fill="#4E5051" fill-rule="nonzero" points="163.813951 43.984 163.813951 75.984 150.313951 128.984 146.313951 188.984 106.813951 232.484 78.3139511 89.484 85.8139511 48.484 106.813951 31.984 123.813951 43.984 137.813951 35.984"></polygon>
                    <polygon id="Path" fill="#4E5051" fill-rule="nonzero" points="370.313951 46.984 370.313951 78.984 383.813951 131.984 387.813951 191.984 427.313951 235.484 455.813951 92.484 448.313951 51.484 427.313951 34.984 410.313951 46.984 396.313951 38.984"></polygon>
                    <path d="M122.14024,83.87 C127.24724,53.921 153.08324,32.113 183.46324,31.842 L277.78724,31 L366.35024,38.518 C394.57624,40.915 417.70624,61.813 422.28324,89.768 C432.32824,151.106 448.07024,259.281 448.07024,334.802 C448.07024,445.706 469.95524,456.313 436.07024,470.845 C402.18424,485.376 131.08424,483.331 94.0701398,460.802 C57.0564398,438.273 80.0703398,414.802 80.0703398,368.802 C80.0703398,335.034 107.53424,169.51 122.14024,83.87 Z" id="Path" fill="#595B5E" fill-rule="nonzero"></path>
                    <g id="Group-4" transform="translate(170.000000, 171.000000)">
                        <rect id="Rectangle" fill="#232426" x="14" y="14" width="175" height="141"></rect>
                        <path d="M22,0 L180,0 C192.150264,0 202,9.8497355 202,22 L202,147 C202,159.150264 192.150264,169 180,169 L22,169 C9.8497355,169 0,159.150264 0,147 L0,22 C0,9.8497355 9.8497355,0 22,0 Z M22,14 C17.581722,14 14,17.581722 14,22 L14,147 C14,151.418278 17.581722,155 22,155 L180,155 C184.418278,155 188,151.418278 188,147 L188,22 C188,17.581722 184.418278,14 180,14 L22,14 Z" id="Rectangle" fill="#454748" fill-rule="nonzero"></path>
                        <path d="M30.1369696,59.8935048 C27.3255667,61.647551 26.4684098,65.3485787 28.222456,68.1599816 C29.9765022,70.9713844 33.6775299,71.8285414 36.4889327,70.0744952 L62.3580733,53.9346284 C66.1408062,51.5745653 66.1192378,46.0593583 62.3181617,43.7289534 L36.4490211,27.8688201 C33.6239853,26.1368165 29.9297749,27.0228942 28.1977713,29.84793 C26.4657677,32.6729659 27.3518454,36.3671763 30.1768812,38.0991799 L47.7755152,48.8887413 L30.1369696,59.8935048 Z" id="Path-2" fill="#FFFFFF" fill-rule="nonzero"></path>
                        <path d="M66.3129511,78.984 L97.2434565,78.984 C100.557165,78.984 103.243456,76.2977085 103.243456,72.984 C103.243456,69.6702915 100.557165,66.984 97.2434565,66.984 L66.3129511,66.984 C62.9992426,66.984 60.3129511,69.6702915 60.3129511,72.984 C60.3129511,76.2977085 62.9992426,78.984 66.3129511,78.984 Z" id="Path-3" fill="#FFFFFF" fill-rule="nonzero"></path>
                    </g>
                    <ellipse id="Oval" fill="#454748" fill-rule="nonzero" cx="265.813951" cy="71.484" rx="59.5" ry="63.5"></ellipse>
                    <rect id="Rectangle" fill="#EBBAAA" fill-rule="nonzero" x="228.353951" y="-7.10542736e-14" width="76.8567" height="115.285" rx="38.4283"></rect>
                    <g id="mac" transform="translate(227.399659, 231.428573)" fill-rule="nonzero">
                        <rect id="Rectangle" fill="#BCC4CF" transform="translate(170.214500, 130.500000) rotate(-7.500000) translate(-170.214500, -130.500000) " x="14" y="20" width="312.429" height="221" rx="34"></rect>
                        <rect id="Rectangle" fill="#D3D8DF" transform="translate(181.214500, 137.500000) rotate(-7.500000) translate(-181.214500, -137.500000) " x="25" y="27" width="312.429" height="221" rx="29"></rect>
                        <g id="Group" transform="translate(144.913292, 82.555427)" fill="#FFFFFF">
                            <path d="M55.832,44.019 C53.76,29.064 62.12,27.569 62.467,27.28 C56.824,20.985 49.322,20.866 46.689,21.109 C40.342,21.297 34.944,26.333 31.762,26.752 C28.59,27.17 23.206,24.191 18.025,24.967 C11.214,25.967 5.422,30.652 2.704,37.231 C-2.768,50.477 4.909,68.016 13.139,77.085 C17.158,81.529 21.912,86.486 27.18,85.595 C32.244,84.722 33.764,81.369 39.925,80.558 C46.086,79.747 48.245,82.822 53.626,82.001 C59.091,81.178 61.926,75.841 64.628,70.494 C67.764,64.311 68.674,58.89 68.729,58.601 C68.602,58.561 57.247,53.986 55.823,44.021 L55.832,44.019 Z" id="Path"></path>
                            <path d="M30.819,23.724 C29.357,12.619 37.173,2.423 48.286,0.96 C49.749,12.074 41.924,22.262 30.819,23.724 Z" id="Path"></path>
                        </g>
                    </g>
                    <path d="M399.170186,390.348881 C396.057996,414.727705 413.298008,437.013575 437.676832,440.125765 C465.641373,443.695707 490.296232,431.795092 507.259527,409.944668 C519.19395,394.571936 527.130118,374.802831 531.980646,351.784874 C540.19194,312.818549 539.173775,264.557529 529.522113,225.347652 C523.647821,201.483339 499.539917,186.899545 475.675604,192.773838 C451.81129,198.64813 437.227496,222.756034 443.101789,246.620348 C449.586268,272.963543 450.318817,307.686375 444.893257,333.433126 C443.22769,341.336997 441.134664,347.589418 439.15279,351.66916 C418.857318,353.554892 401.858817,369.287936 399.170186,390.348881 Z" id="Path" fill="#F5D0C3" fill-rule="nonzero"></path>
                </g>
                <g id="head" transform="translate(85.093500, 0.000000)" fill-rule="nonzero">
                    <ellipse id="Oval" fill="#EBBAAA" cx="58.0695" cy="288.809" rx="58.0695" ry="55.0806"></ellipse>
                    <ellipse id="Oval" fill="#EBBAAA" cx="360.0695" cy="293.079" rx="58.0695" ry="55.0806"></ellipse>
                    <path d="M37.4065,176.5 C40.0475,130.422 73.8445,92.1191 119.2355,83.761 L183.0755,72.0056 C206.4065,67.7096 230.3505,67.9963 253.5715,72.8495 L373.9065,98 L388.9065,248.5 L392.0695,295.705 C399.0665,400.116 316.2605,488.657 211.6145,488.657 C107.9995,488.657 25.5664,401.778 31.0047,298.305 L37.4065,176.5 Z" id="Path" fill="#F4D4CA"></path>
                    <path d="M150.666745,390.121158 C175.266127,407.537419 231.898944,407.186967 265.866207,390.751194 C269.594789,388.947042 271.154847,384.461875 269.350694,380.733293 C267.546542,377.004711 263.061375,375.444653 259.332793,377.248806 C229.906161,391.487498 179.000565,391.80251 159.334255,377.878842 C155.953633,375.485376 151.272809,376.285623 148.879342,379.666245 C146.485876,383.046867 147.286123,387.727691 150.666745,390.121158 Z" id="Path" fill="#C99584"></path>
                    <path d="M105.116632,227.973976 L162.722632,231.773976 C169.335677,232.210208 175.050245,227.202912 175.486476,220.589868 C175.922708,213.976823 170.915412,208.262255 164.302368,207.826024 L106.696368,204.026024 C100.083323,203.589792 94.3687555,208.597088 93.9325237,215.210132 C93.4962919,221.823177 98.5035879,227.537745 105.116632,227.973976 Z" id="Path" fill="#272727"></path>
                    <path d="M253.085499,232.175099 L309.794499,227.967099 C316.403746,227.47667 321.364027,221.721247 320.873599,215.112001 C320.38317,208.502754 314.627747,203.542473 308.018501,204.032901 L251.309501,208.240901 C244.700254,208.73133 239.739973,214.486753 240.230401,221.095999 C240.72083,227.705246 246.476253,232.665527 253.085499,232.175099 Z" id="Path" fill="#272727"></path>
                    <path d="M280.0005,109 C348.0005,130 358.6575,133.5 364.0005,160 C372.6765,203.04 395.1095,190.984 397.5005,143.5 C377.1095,4.98412 263.0005,-7.00026 238.0005,6.99995 C208.0005,23.8002 198.8835,83.9496 280.0005,109 Z" id="Path" fill="#393838"></path>
                    <path d="M394.9635,166 C394.9635,154.904 381.3745,149.544 373.7995,157.652 L370.9005,160.755 C367.8265,164.045 366.5365,168.621 367.4385,173.032 L383.7625,252.851 C384.1375,254.684 385.7495,256 387.6205,256 C389.7355,256 391.4725,254.33 391.5555,252.217 L394.9635,166 Z" id="Path" fill="#393838"></path>
                    <path d="M209.9065,114 C125.0095,114 64.5005,135.5 47.5005,155.5 C38.8237,198.539 25.9065,183 23.9065,138.516 C44.9065,16 156.9725,0 209.9065,0 C257.0005,5 294.8035,114 209.9065,114 Z" id="Path" fill="#272727"></path>
                    <path d="M147.2185,57.5621 C157.9525,73.2506 173.7575,82.3302 164.0855,132.761 L220.8915,96.7672 C201.0635,78.8695 136.4835,41.8735 147.2185,57.5621 Z" id="Path" fill="#272727"></path>
                    <path d="M102.9355,71 C100.2025,106.148 100.0005,146.239 100.0005,146.239 L155.0265,108.894 C155.0265,108.894 126.4185,101.755 102.9355,71 Z" id="Path" fill="#272727"></path>
                    <path d="M71.9355,82.2774 C69.2025,117.426 69.0005,157.517 69.0005,157.517 L107.0005,125.277 C107.0005,125.277 95.4185,113.032 71.9355,82.2774 Z" id="Path" fill="#272727"></path>
                    <path d="M148.9355,62 C146.2025,97.1483 146.0005,137.239 146.0005,137.239 L201.0265,99.8942 C201.0265,99.8942 172.4185,92.7547 148.9355,62 Z" id="Path" fill="#272727"></path>
                    <path d="M24.3659,146.21 C24.1153,140.095 29.0054,135 35.126,135 C41.4745,135 46.4455,140.464 45.8475,146.785 L35.7048,253.851 C35.5357,255.636 34.0367,257 32.2436,257 C30.3789,257 28.8462,255.529 28.7698,253.666 L24.3659,146.21 Z" id="Path" fill="#272727"></path>
                    <polygon id="Path" fill="#101013" points="182.859229 272.498465 228.859229 273.498465 229.141771 260.501535 183.141771 259.501535"></polygon>
                    <path d="M51.0323505,261.313105 C50.4477825,252.364842 56.8772957,244.599613 65.687542,243.644906 C86.1833074,241.421684 106.475695,240 124.0005,240 C142.34645,240 163.340348,244.134368 184.073164,250.443654 C191.596465,252.733505 196.206641,260.250801 195.052936,268.248846 L188.261866,315.33633 C187.454475,320.931588 183.97632,325.387165 179.015294,326.96739 C165.637448,331.228664 147.423109,334 124.0005,334 C99.5512253,334 79.0502974,329.629361 62.9717729,323.074479 C57.9166488,321.014693 54.6141765,316.087472 54.2323505,310.253105 L51.0323505,261.313105 Z M175.03163,314.59341 C174.995305,314.605908 174.988477,314.607234 175.016049,314.571914 C175.171063,314.373339 175.317424,314.018201 175.395064,313.480154 L182.186087,266.392991 C182.435716,264.662445 181.584912,263.275134 180.288142,262.880439 C160.676284,256.912276 140.810147,253 124.0005,253 C107.028836,253 87.1596564,254.392034 67.0887615,256.569169 C65.2426882,256.769216 63.8714124,258.425371 64.0046743,260.465274 L64.0046495,260.464895 L67.204625,309.40452 C67.2442164,310.009484 67.3927983,310.460176 67.5933793,310.759438 C67.7037426,310.924098 67.8008222,311.004388 67.8783334,311.035972 C82.4609881,316.981019 101.312432,321 124.0005,321 C146.083805,321 162.959718,318.434449 175.046616,314.587961 L175.03163,314.59341 Z" id="Path" fill="#101013"></path>
                    <path d="M345.311762,243.644831 C324.819711,241.42186 304.52481,240 287.0005,240 C268.65455,240 247.660652,244.134368 226.928142,250.443561 C219.40394,252.73316 214.794301,260.250395 215.948087,268.249009 L222.739064,315.335846 C223.546448,320.931053 227.02408,325.386624 231.983972,326.967156 C245.364613,331.228831 263.578118,334 287.0005,334 C311.449079,334 331.951179,329.629167 348.030333,323.074028 C353.083907,321.014073 356.386862,316.086877 356.768625,310.25348 L359.968649,261.313105 C360.553218,252.364842 354.122699,244.599612 345.311762,243.644831 Z M235.973056,314.595011 C236.006333,314.606344 236.011641,314.606269 235.985114,314.572283 C235.83,314.37355 235.683585,314.018261 235.605866,313.47967 L228.814936,266.393154 C228.56521,264.661928 229.415563,263.275203 230.712766,262.880467 C250.324716,256.912276 270.190853,253 287.0005,253 C303.97166,253 323.843296,254.392206 343.910495,256.569089 C345.757751,256.769264 347.129559,258.425803 346.996326,260.465274 L346.996351,260.464895 L343.796351,309.404895 C343.756812,310.009056 343.608222,310.459632 343.407499,310.75906 C343.296882,310.924074 343.199425,311.004683 343.122955,311.035854 C328.540497,316.980821 309.687886,321 287.0005,321 C264.923617,321 248.051716,318.43605 235.963519,314.591185 L235.973056,314.595011 Z" id="Path" fill="#101013"></path>
                    <path d="M195.739359,286.332628 C195.496542,286.840337 194.161318,289.578322 193.750256,290.433835 C192.792025,292.428133 191.969213,294.207753 191.175757,296.029634 C188.784618,301.520012 187.006191,306.622761 185.929598,311.600067 C181.218927,333.378453 191.7218,348.5 219.0005,348.5 L219.0005,331.5 C209.966269,331.5 205.202108,329.628498 203.263692,326.837657 C201.689338,324.570976 201.364957,320.651257 202.54535,315.194059 C203.351198,311.468465 204.781544,307.364445 206.761774,302.817571 C207.461209,301.211574 208.199363,299.615056 209.073245,297.796308 C209.453186,297.005565 210.797478,294.248984 211.075641,293.667372 L195.739359,286.332628 Z" id="Path" fill="#EBBAAA"></path>
                    <path d="M116.0015,296 C127.877197,296 133.798516,296.467473 140.553325,298.493915 C146.90124,300.39829 153.591041,296.796089 155.495415,290.448175 C157.39979,284.10026 153.797589,277.410459 147.449675,275.506085 C137.775913,272.603956 130.125803,272 116.0015,272 C109.374083,272 104.0015,277.372583 104.0015,284 C104.0015,290.627417 109.374083,296 116.0015,296 Z" id="Path" fill="#000000"></path>
                    <path d="M296.9065,270 C282.782197,270 275.132087,270.603956 265.458325,273.506085 C259.110411,275.410459 255.50821,282.10026 257.412585,288.448175 C259.316959,294.796089 266.00676,298.39829 272.354675,296.493915 C279.109484,294.467473 285.030803,294 296.9065,294 C303.533917,294 308.9065,288.627417 308.9065,282 C308.9065,275.372583 303.533917,270 296.9065,270 Z" id="Path" fill="#000000"></path>
                </g>
            </g>
        </g>
    </g>
</svg>