<?xml version="1.0" encoding="UTF-8"?>
<svg width="649px" height="1385px" viewBox="0 0 649 1385" version="1.1" xmlns="http://www.w3.org/2000/svg" xmlns:xlink="http://www.w3.org/1999/xlink">
    <!-- Generator: Sketch 55.2 (78181) - https://sketchapp.com -->
    <title>gee_me_031</title>
    <desc>Created with Sketch.</desc>
    <defs>
        <path d="M1.527,0.379 C0.678,3.802 0.228,7.382 0.228,11.068 L0.228,17.505 C0.228,41.948 20.042,61.762 44.485,61.762 C68.928,61.762 88.742,41.948 88.742,17.505 L88.742,11.068 C88.742,7.382 88.292,3.802 87.443,0.379 L1.527,0.379 Z" id="path-1"></path>
    </defs>
    <g id="GEE!-ME" stroke="none" stroke-width="1" fill="none" fill-rule="evenodd">
        <g id="gee_me_031" transform="translate(-274.000000, -108.000000)">
            <g transform="translate(274.000000, 108.000000)">
                <g id="lower-limb" transform="translate(78.491983, 859.000000)" fill-rule="nonzero">
                    <path d="M268.433142,32.1085063 C284.658436,28.7534455 300.53145,39.186831 303.886511,55.412125 C310.058212,85.2588759 313.077089,157.309465 312.861027,245.114383 L312.853489,247.779933 C312.584078,332.139181 309.313222,411.466413 304.20682,447.230411 C301.864906,463.632607 286.669802,475.030717 270.267606,472.688803 C253.86541,470.346889 242.467299,455.151786 244.809214,438.749589 C254.992729,367.426726 255.8681,124.50038 245.448721,69.1804419 L245.129523,67.561875 C241.774462,51.3365809 252.207848,35.4635671 268.433142,32.1085063 Z" id="Path" fill="#F6DDD6"></path>
                    <path d="M120.252523,50.606125 C123.607584,34.380831 139.480598,23.9474455 155.705892,27.3025063 C171.768933,30.6240165 182.155325,46.2143724 179.106034,62.269234 L179.009511,62.755875 C168.253942,114.770512 169.043751,362.708464 179.32982,434.749589 C181.671734,451.151786 170.273624,466.346889 153.871428,468.688803 C137.469231,471.030717 122.274128,459.632607 119.932214,443.230411 C114.877208,407.826384 111.620593,329.546153 111.294527,245.912639 L111.285544,243.37669 C111.001257,154.132825 114.018545,80.7540547 120.252523,50.606125 Z" id="Path" fill="#F6DDD6"></path>
                    <polygon id="Path" fill="#556681" points="299.074017 117.41 121.036017 97.167 82.5960169 -5.68434189e-14 323.352017 10.122"></polygon>
                    <polygon id="Path" fill="#556681" points="201.508017 23.779 347.065017 13.487 321.508017 392.49 235.008017 388.49 227.008017 238"></polygon>
                    <polygon id="Path" fill="#556681" points="71.0080169 4.487 201.963017 26.316 193.777017 219.05 190.008017 391.99 104.508017 388.49"></polygon>
                    <polygon id="Path" fill="#6D7F9A" points="99.7690169 383.49 192.834017 383.49 189.799017 427.01 107.356017 427.01"></polygon>
                    <polygon id="Path" fill="#6D7F9A" points="230.263017 383.49 328.386017 383.49 319.282017 427.01 232.286017 427.01"></polygon>
                    <path d="M12.2710169,523.02 C12.0710169,500.07 15.1980169,486.11 35.1470169,476.73 C55.0970169,467.36 73.8880169,449.33 108.402017,433.87 C108.402017,433.87 112.945017,433.01 120.340017,437.01 C126.650017,440.42 134.756017,448.79 146.970017,448.69 C160.232017,448.57 172.051017,445.76 179.394017,441.91 C182.566017,433.22 189.604017,433.16 189.604017,433.16 C189.604017,433.16 199.513017,452.02 199.679017,470.97 C199.844017,489.91 199.827513,521.38 199.827513,521.38 L12.2710169,523.02 Z" id="Path" fill="#161616"></path>
                    <path d="M101.203429,435.256563 C102.569471,434.649278 104.169168,435.264371 104.776454,436.630413 C105.549139,438.368508 106.107061,440.275904 106.488695,442.350212 C107.051149,445.407339 107.174857,447.911789 107.174857,452.34 C107.174857,454.238103 105.28121,455.528261 103.533852,454.880787 L103.375461,454.816551 L90.188,448.998 L93.0023922,459.200178 C93.5603465,461.222778 91.7110575,463.060369 89.7199905,462.542143 L89.5625478,462.496297 L76.316,458.226 L76.3168569,470.21 C76.3168569,472.20433 74.2442007,473.494049 72.4716374,472.666124 L72.3204937,472.58994 L63.323,467.714 L63.3238569,476.71 C63.3238569,478.149578 62.2000709,479.326682 60.7819101,479.4119 L60.6170169,479.41684 C59.1774389,479.41684 58.0003351,478.293054 57.915117,476.874893 L57.9101769,476.71 L57.9101769,463.17 C57.9101769,461.17567 59.9828332,459.885951 61.7553964,460.713876 L61.9065401,460.79006 L70.903,465.665 L70.9031769,454.51 C70.9031769,452.731089 72.5826493,451.452303 74.2765692,451.886315 L74.4404861,451.933703 L86.449,455.804 L83.4526417,444.939822 C82.8598593,442.790969 84.9647801,440.911633 87.0087186,441.683756 L87.1545733,441.743449 L101.69,448.156 C101.61731,446.47827 101.47596,445.106187 101.22081,443.644516 L101.164376,443.329788 C100.855667,441.651851 100.415963,440.148612 99.82958,438.829587 C99.2222946,437.463546 99.837388,435.863848 101.203429,435.256563 Z" id="Path" fill="#FFFFFF"></path>
                    <path d="M19.8190169,478.49 C25.9400169,476.27 32.4220169,474.59 44.8490169,471.78 L39.5680169,486.98 L39.7190169,504.3 L4.34691693,504.610039 C2.90331693,504.62 0.323916927,502.7 1.55521693,494.89 C3.09421693,485.13 11.1220169,481.64 19.8190169,478.49 Z" id="Path" fill="#161616"></path>
                    <path d="M200.420017,518.43 L199.393017,500.2 L40.7870169,502.67 L1.24081693,499.77 L0.0327169268,513.74 C-0.384283073,518.57 3.23431693,522.8 8.06491693,523.13 L40.9860169,525.41 L196.163017,523 C198.624017,522.96 200.558017,520.88 200.420017,518.43 Z" id="Path" fill="#808080"></path>
                    <path d="M414.920017,523.02 C415.121017,500.07 411.994017,486.11 392.045017,476.73 C372.095017,467.36 353.304017,449.33 318.790017,433.87 C318.790017,433.87 314.247017,433.01 306.852017,437.01 C300.541017,440.42 292.436017,448.79 280.222017,448.69 C266.959017,448.57 255.141017,445.76 247.798017,441.91 C244.625017,433.22 237.588017,433.16 237.588017,433.16 C237.588017,433.16 227.678017,452.02 227.513017,470.97 C227.348017,489.91 227.364521,521.38 227.364521,521.38 L414.920017,523.02 Z" id="Path" fill="#161616"></path>
                    <path d="M322.41558,436.630413 C323.022865,435.264371 324.622563,434.649278 325.988604,435.256563 C327.354646,435.863848 327.969739,437.463546 327.362454,438.829587 C326.77607,440.148612 326.336367,441.651851 326.027657,443.329788 C325.768951,444.735942 325.616442,446.035527 325.53044,447.566019 L325.501,448.156 L340.037461,441.743449 C342.076931,440.843715 344.243067,442.652154 343.777183,444.786823 L343.739392,444.939822 L340.742,455.804 L352.751548,451.933703 C354.444667,451.387926 356.177049,452.594066 356.28367,454.339449 L356.288857,454.51 L356.288,465.665 L365.284417,460.790102 C367.037897,459.83994 369.159332,461.047865 369.275836,463.000813 L369.280857,463.17 L369.280857,476.71 C369.280857,478.204946 368.068963,479.41684 366.574017,479.41684 C365.134439,479.41684 363.957335,478.293054 363.872117,476.874893 L363.867177,476.71 L363.867,467.714 L354.871617,472.589898 C353.118136,473.54006 350.996702,472.332135 350.880198,470.379187 L350.875177,470.21 L350.875,458.226 L337.629486,462.496297 C335.632526,463.140017 333.717726,461.370793 334.150553,459.359433 L334.189642,459.200178 L337.003,448.998 L323.816573,454.816551 C322.079954,455.582678 320.13523,454.37088 320.022337,452.510843 L320.017177,452.34 L320.019713,451.312898 C320.039778,447.50754 320.185882,445.162769 320.703339,442.350212 C321.084973,440.275904 321.642895,438.368508 322.41558,436.630413 Z" id="Path" fill="#FFFFFF"></path>
                    <path d="M407.373017,478.49 C401.252017,476.27 394.770017,474.59 382.342017,471.78 L387.624017,486.98 L387.472017,504.3 L422.845017,504.610039 C424.288017,504.62 426.868017,502.7 425.637017,494.89 C424.098017,485.13 416.070017,481.64 407.373017,478.49 Z" id="Path" fill="#161616"></path>
                    <path d="M226.772017,518.43 L227.799017,500.2 L386.404017,502.67 L425.951017,499.77 L427.159017,513.74 C427.576017,518.57 423.957017,522.8 419.127017,523.13 L386.206017,525.41 L231.029017,523 C228.568017,522.96 226.633017,520.88 226.772017,518.43 Z" id="Path" fill="#808080"></path>
                </g>
                <g id="upper-limb" transform="translate(0.938500, 427.030000)" fill-rule="nonzero">
                    <path d="M119.799806,99.3567544 C140.500678,73.4812781 178.258269,69.286433 204.133746,89.9873056 C229.750467,110.48117 234.118002,147.692323 214.116755,173.541446 L213.503194,174.321246 C210.757181,177.753681 191.967349,200.854967 186.61432,207.660944 L186.303623,208.056971 C172.740869,225.393885 163.868419,239.021635 154.927907,257.079282 C149.995353,267.041836 145.108732,278.310543 140.10461,291.398248 C128.270116,322.350003 93.5850071,337.847605 62.633252,326.01311 C31.681497,314.178616 16.1838953,279.493507 28.0183899,248.541752 C34.3295309,232.035691 40.7142229,217.312381 47.3870958,203.834809 C60.0407318,178.27756 73.0473167,158.194387 90.8477758,135.324101 L92.5437844,133.157677 C99.1003834,124.849112 117.717381,101.959724 119.799806,99.3567544 Z" id="Path" fill="#E0C1A1"></path>
                    <path d="M451.7285,125.885 C437.7575,94.785 402.3765,79.47 370.1405,90.57 C338.2225,101.56 319.7665,134.888 327.3865,167.774 L382.2955,404.726 C393.4285,452.767 443.2445,481.034 490.1955,465.949 C534.7555,451.633 559.1215,403.756 544.4675,359.306 L511.0605,257.97 L451.7285,125.885 Z" id="Path" fill="#E0C1A1"></path>
                    <path d="M454.5625,396.97 C427.3985,403.761 440.7295,423.303 441.0625,435.97 C493.0635,435.97 522.7285,446.137 530.0615,448.47 C532.0615,443.47 535.2535,435.97 538.0625,429.97 C553.5075,396.97 490.5625,387.97 454.5625,396.97 Z" id="Path" fill="#DBB793"></path>
                    <path d="M121.2075,170.943 C121.2645,113.087 168.2225,66.306 226.0785,66.306 L339.5155,66.306 C394.1165,66.306 439.6425,108.135 443.0115,162.633 C445.6615,205.49 448.0625,254.412 448.0625,290.97 C448.0625,337.606 444.1545,404.078 440.8085,452.456 C438.3685,487.72 408.9325,514.77 373.5845,514.77 L196.1045,514.77 C160.9585,514.77 131.6165,488.009 128.9675,452.963 C125.5855,408.219 121.7145,348.249 121.4215,304.97 C121.1835,269.741 121.1605,217.545 121.2075,170.943 Z" id="Path" fill="#E3C7AB"></path>
                    <ellipse id="Oval" fill="#DBB793" cx="285.6105" cy="87.362" rx="65.2694" ry="66.3222"></ellipse>
                    <rect id="Rectangle" fill="#EED1C9" x="245.4035" y="4.54747351e-13" width="80.9095" height="121.364" rx="40.45475"></rect>
                    <rect id="Rectangle" fill="#FF6C75" x="186.6515" y="192.635" width="94.746" height="94.746" rx="26"></rect>
                    <path d="M335.0865,192.635 C308.923115,192.635 287.7135,213.844615 287.7135,240.008 C287.7135,266.171385 308.923115,287.381 335.0865,287.381 C361.249885,287.381 382.4595,266.171385 382.4595,240.008 C382.4595,213.844615 361.249885,192.635 335.0865,192.635 Z M335.0865,204.635 C354.622468,204.635 370.4595,220.472032 370.4595,240.008 C370.4595,259.543968 354.622468,275.381 335.0865,275.381 C315.550532,275.381 299.7135,259.543968 299.7135,240.008 C299.7135,220.472032 315.550532,204.635 335.0865,204.635 Z" id="Rectangle" fill="#FF6C75"></path>
                    <path d="M255.3975,292.645 L212.6515,292.645 C198.292097,292.645 186.6515,304.285597 186.6515,318.645 L186.6515,361.391 C186.6515,375.750403 198.292097,387.391 212.6515,387.391 L255.3975,387.391 C269.756903,387.391 281.3975,375.750403 281.3975,361.391 L281.3975,318.645 C281.3975,304.285597 269.756903,292.645 255.3975,292.645 Z M212.6515,304.645 L255.3975,304.645 C263.129486,304.645 269.3975,310.913014 269.3975,318.645 L269.3975,361.391 C269.3975,369.122986 263.129486,375.391 255.3975,375.391 L212.6515,375.391 C204.919514,375.391 198.6515,369.122986 198.6515,361.391 L198.6515,318.645 C198.6515,310.913014 204.919514,304.645 212.6515,304.645 Z" id="Rectangle" fill="#FF6C75"></path>
                    <path d="M356.4595,292.645 L313.7135,292.645 C299.354097,292.645 287.7135,304.285597 287.7135,318.645 L287.7135,361.391 C287.7135,375.750403 299.354097,387.391 313.7135,387.391 L356.4595,387.391 C370.818903,387.391 382.4595,375.750403 382.4595,361.391 L382.4595,318.645 C382.4595,304.285597 370.818903,292.645 356.4595,292.645 Z M313.7135,304.645 L356.4595,304.645 C364.191486,304.645 370.4595,310.913014 370.4595,318.645 L370.4595,361.391 C370.4595,369.122986 364.191486,375.391 356.4595,375.391 L313.7135,375.391 C305.981514,375.391 299.7135,369.122986 299.7135,361.391 L299.7135,318.645 C299.7135,310.913014 305.981514,304.645 313.7135,304.645 Z" id="Rectangle" fill="#FF6C75"></path>
                    <path d="M191.9155,108.416 C206.2335,131.155 232.9735,148.42 268.7665,148.42 C268.7665,121.4 249.8165,93.678 227.7095,62.096 C218.5335,48.987 210.8655,34.725 191.9155,34.725 C185.9505,49.814 177.5985,85.677 191.9155,108.416 Z" id="Path" fill="#C09F7B"></path>
                    <path d="M375.0915,108.416 C360.7745,131.155 334.0345,148.42 298.2415,148.42 C298.2415,121.4 317.1905,93.678 339.2985,62.096 C348.4745,48.987 356.1425,34.725 375.0915,34.725 C381.0575,49.814 389.4085,85.677 375.0915,108.416 Z" id="Path" fill="#C09F7B"></path>
                    <path d="M245.6045,125.629 C249.389952,125.629 252.473599,128.633783 252.600441,132.38835 L252.6045,132.629 L252.6045,279.56 C252.6045,283.425993 249.470493,286.56 245.6045,286.56 C241.819048,286.56 238.735401,283.555217 238.608559,279.80065 L238.6045,279.56 L238.6045,132.629 C238.6045,128.763007 241.738507,125.629 245.6045,125.629 Z" id="Path" fill="#FFF0E0"></path>
                    <path d="M319.2975,123.524 C323.082952,123.524 326.166599,126.528783 326.293441,130.28335 L326.2975,130.524 L326.2975,320.016 C326.2975,323.881993 323.163493,327.016 319.2975,327.016 C315.512048,327.016 312.428401,324.011217 312.301559,320.25665 L312.2975,320.016 L312.2975,130.524 C312.2975,126.658007 315.431507,123.524 319.2975,123.524 Z" id="Path" fill="#FFF0E0"></path>
                    <path d="M46.9025076,261.031814 C61.7800569,243.235436 88.2675083,240.869258 106.063886,255.746808 C123.6823,270.475581 126.177575,296.58322 111.790048,314.371708 L111.348892,314.908186 C105.332409,322.105044 99.2281083,337.136577 96.9794226,355.362812 C93.9560274,379.868286 97.9287194,407.259283 110.550508,436.161002 C119.833861,457.41828 110.127077,482.176354 88.8697981,491.459708 C67.6125196,500.743061 42.8544458,491.036277 33.5710925,469.778998 C14.9183061,427.067333 8.7462183,384.511897 13.6115274,345.077188 C17.7627594,311.430277 30.0365355,281.206723 46.9025076,261.031814 Z" id="Path" fill="#F6DDD6"></path>
                    <path d="M26.6072838,250.846358 C39.3781184,222.981706 72.3196892,210.745749 100.184342,223.516584 C128.048994,236.287418 140.284951,269.228989 127.514116,297.093642 C124.72846,303.171658 122.342368,309.474102 120.319928,316.046365 C116.091203,329.788328 113.44769,344.669182 112.023599,361.671402 L111.913698,363.018108 C110.825725,376.707752 110.572812,388.02913 110.561878,412.014841 L110.5615,413.709 C110.5615,444.360804 85.7133036,469.209 55.0615,469.209 C24.4096964,469.209 -0.4385,444.360804 -0.4385,413.709 L-0.426326575,404.685525 C-0.360613794,382.819262 -0.0046865571,370.374709 1.21464701,354.831387 L1.26259164,354.224208 C3.26232548,329.062133 7.30172906,305.912421 14.2293888,283.399811 C17.6569824,272.261261 21.7626655,261.416819 26.6072838,250.846358 Z" id="Path" fill="#E0C1A1"></path>
                    <path d="M13.0885786,460.469999 C7.59481812,454.080793 3.23195859,440.873247 7.10542736e-15,420.847363 C38.2676,446.694363 96.281473,423.421548 110.533125,402.93792 L114.056089,443.049303 C105.676089,466.071303 88.8115,474.044 64.2894,480.017 C42.3048,485.373 21.3292193,470.053808 13.0885786,460.469999 Z" id="Path" fill="#DBB793"></path>
                    <path d="M453.5485,429.338 C417.4105,436.454 418.1285,469.2 424.2885,484.19 C451.4945,505.933 513.0955,481.719 520.2815,471.342 C530.0135,457.29 498.7215,420.444 453.5485,429.338 Z" id="Path" fill="#F2CCC1"></path>
                    <path d="M478.516095,451.428955 C495.050403,451.181098 511.863904,456.609916 528.061189,466.163849 C540.089311,473.25861 551.23759,482.417002 558.651592,490.578704 L559.12979,491.109544 L546.45121,502.434456 C540.197836,495.433615 530.185299,487.153746 519.424311,480.806401 C505.711071,472.717677 491.816944,468.231479 478.771166,468.427041 C466.077782,468.617711 453.156295,474.192761 440.829997,483.945882 C431.295405,491.49008 422.700147,501.184839 417.431654,509.437935 L417.069512,510.011348 L402.651488,501.004652 C408.891123,491.016172 418.957583,479.574363 430.281503,470.614368 C445.309033,458.72391 461.628873,451.682621 478.516095,451.428955 Z" id="Path" fill="#CF8388"></path>
                    <rect id="Rectangle" fill="#CF8388" transform="translate(499.053055, 581.637318) rotate(-6.500000) translate(-499.053055, -581.637318) " x="358.053055" y="481.137318" width="282" height="201" rx="23"></rect>
                    <rect id="Rectangle" fill="#FCA9AE" transform="translate(486.136055, 583.109318) rotate(-6.500000) translate(-486.136055, -583.109318) " x="345.136055" y="482.609318" width="282" height="201" rx="23"></rect>
                    <path d="M459.2475,599.3 L340.4175,549.703 L337.4955,524.056 C335.8695,509.789 346.1175,496.906 360.3845,495.28 L588.9065,469.243 C603.1735,467.618 616.0565,477.866 617.6825,492.133 L619.6965,509.813 L520.1485,590.53 C503.0055,604.43 479.6155,607.8 459.2475,599.3 Z" id="Path" fill="#F1C3C6"></path>
                    <circle id="Oval" fill="#E29398" transform="translate(485.727500, 575.100000) rotate(-6.500000) translate(-485.727500, -575.100000) " cx="485.7275" cy="575.1" r="12.5"></circle>
                    <path d="M474.5485,420.338 C438.4105,427.454 439.1285,460.2 445.2885,475.19 C472.4945,496.933 534.0955,472.719 541.2815,462.342 C551.0135,448.29 519.7215,411.444 474.5485,420.338 Z" id="Path" fill="#F6DDD6"></path>
                </g>
                <g id="hand" transform="translate(84.412086, 0.000002)">
                    <path d="M37.4429137,190.649998 C37.4429137,105.487998 110.026914,36.4501984 199.563914,36.4501984 C289.100914,36.4501984 361.684914,105.487998 361.684914,190.649998 L361.684914,344.020998 C348.610914,443.504998 270.164914,498.221998 199.563914,498.221998 C128.962914,498.221998 47.0309137,431.898998 37.4429137,344.020998 L37.4429137,190.649998 Z" id="Path" fill="#F6DDD6" fill-rule="nonzero"></path>
                    <path d="M155.978914,381.241998 C155.870914,382.503998 155.815914,383.780998 155.815914,385.069998 L155.815914,391.506998 C155.815914,415.949998 175.629914,435.764998 200.072914,435.764998 C224.515914,435.764998 244.329914,415.949998 244.329914,391.506998 L244.329914,385.069998 C244.329914,383.780998 244.274914,382.503998 244.166914,381.241998 L155.978914,381.241998 Z" id="Path" fill="#393939"></path>
                    <g id="Clipped" transform="translate(155.587914, 373.999998)">
                        <mask id="mask-2" fill="white">
                            <use xlink:href="#path-1"></use>
                        </mask>
                        <g id="Path"></g>
                        <g id="Group" mask="url(#mask-2)" fill-rule="nonzero">
                            <g transform="translate(0.000000, 7.000000)">
                                <ellipse id="Oval" fill="#FF6C6C" cx="44.484" cy="54.458" rx="26.6895" ry="13.1707"></ellipse>
                                <rect id="Rectangle" fill="#FFFFFF" x="0.228" y="0.243" width="88.5147" height="16.54"></rect>
                            </g>
                        </g>
                    </g>
                    <path d="M108.963547,231.134765 C124.560347,226.378915 142.04438,225.755281 160.039432,231.928805 C163.696216,233.18333 165.643632,237.164733 164.389107,240.821517 C163.134582,244.478301 159.153179,246.425717 155.496395,245.171192 C140.569393,240.050218 126.023877,240.569039 113.046878,244.526045 C110.892263,245.183041 108.985386,245.881802 107.355821,246.57174 L106.597727,246.900451 C106.101357,247.12137 105.768873,247.282121 105.609974,247.365616 C102.187677,249.163889 97.9555688,247.847356 96.1572962,244.425059 C94.3590235,241.002762 95.6755556,236.770654 99.0978529,234.972381 L99.385161,234.824846 C99.9606375,234.53531 100.803267,234.142906 101.897463,233.679636 C103.964192,232.804608 106.328013,231.938404 108.963547,231.134765 Z" id="Path" fill="#583311" fill-rule="nonzero"></path>
                    <path d="M240.929395,231.880805 C258.924448,225.707281 276.40848,226.330915 292.005281,231.086765 C294.640814,231.890404 297.004635,232.756608 299.071364,233.631636 L299.910165,233.994213 C300.779091,234.378063 301.436597,234.696134 301.870974,234.924381 C305.293272,236.722654 306.609804,240.954762 304.811531,244.377059 C303.052351,247.724959 298.964005,249.057653 295.583161,247.430489 L295.227311,247.250695 C294.939393,247.107711 294.39539,246.854991 293.613006,246.52374 C291.983441,245.833802 290.076564,245.135041 287.921949,244.478045 C274.944951,240.521039 260.399434,240.002218 245.472432,245.123192 C241.815648,246.377717 237.834245,244.430301 236.57972,240.773517 C235.325195,237.116733 237.272611,233.13533 240.929395,231.880805 Z" id="Path" fill="#583311" fill-rule="nonzero"></path>
                    <circle id="Oval" fill="#F2CACA" fill-rule="nonzero" cx="78.9669137" cy="362.796998" r="38.9511"></circle>
                    <path d="M275.734296,262.677425 C277.831086,260.880501 280.987564,261.123591 282.784488,263.220381 C284.581411,265.317171 284.338321,268.473649 282.241531,270.270572 C281.752938,270.689291 280.958583,271.254673 279.832985,271.908155 C278.129198,272.897311 276.041709,273.860649 273.546567,274.741194 C271.537788,275.450098 269.328741,276.081148 266.912293,276.617994 C264.216594,277.216881 261.545804,275.517078 260.946918,272.821378 C260.348031,270.125678 262.047834,267.454889 264.743534,266.856003 C266.769477,266.405912 268.591419,265.885445 270.218682,265.311178 C271.980432,264.689451 273.411649,264.043685 274.537139,263.416377 L274.812157,263.259959 C275.407391,262.914388 275.704769,262.702729 275.734296,262.677425 Z" id="Path" fill="#000000" fill-rule="nonzero"></path>
                    <path d="M259.521482,263.250998 C266.046939,263.250998 271.355628,268.460103 271.517128,274.946592 L271.520914,275.251567 L271.519914,296.362567 C271.5196,302.989984 266.146762,308.361998 259.519345,308.361998 C252.993889,308.361998 247.685199,303.152893 247.523699,296.666405 L247.519914,296.36143 L247.520914,275.25043 C247.521228,268.623013 252.894065,263.250998 259.521482,263.250998 Z" id="Path" fill="#000000" fill-rule="nonzero"></path>
                    <path d="M118.252641,263.049346 C119.525547,260.685574 122.427124,259.760157 124.821616,260.913741 L125.136812,261.071487 L125.453726,261.218099 C125.571201,261.270652 125.700467,261.326742 125.841384,261.385933 C126.697905,261.745705 127.728354,262.113758 128.924045,262.462537 C132.430719,263.485421 136.501773,264.104998 141.077914,264.104998 C143.839337,264.104998 146.077914,266.343575 146.077914,269.104998 C146.077914,271.866422 143.839337,274.104998 141.077914,274.104998 C135.521555,274.104998 130.512733,273.342701 126.123782,272.06246 C124.556005,271.605145 123.168406,271.109526 121.968756,270.605626 L121.486972,270.398502 C120.960372,270.166548 120.55829,269.969838 120.284261,269.822271 C117.852953,268.512996 116.943366,265.480654 118.252641,263.049346 Z" id="Path" fill="#000000" fill-rule="nonzero"></path>
                    <path d="M140.935914,261.857998 C147.46137,261.857998 152.770306,267.066543 152.932114,273.553024 L152.935914,273.857998 L152.935914,296.420998 C152.935914,303.048415 147.563331,308.420998 140.935914,308.420998 C134.410457,308.420998 129.101521,303.212454 128.939714,296.725973 L128.935914,296.420998 L128.935914,273.857998 C128.935914,267.230581 134.308497,261.857998 140.935914,261.857998 Z" id="Path" fill="#000000" fill-rule="nonzero"></path>
                    <path d="M187.15693,307.251002 L204.000897,309.548995 L203.89712,310.287587 C203.497192,313.043088 203.042997,315.070764 201.501058,321.32156 L200.515623,325.327486 C200.379804,325.889832 200.256746,326.407458 200.138485,326.914272 L199.838552,328.225773 C198.361978,334.833964 197.951602,339.156513 198.565612,341.731221 L198.627223,341.973737 C198.975195,343.247861 199.519379,343.550546 202.531246,343.567249 L202.811914,343.567998 L202.811914,360.567998 C191.743304,360.567998 184.282417,355.122532 182.029333,345.674755 C180.647898,339.882033 181.215802,333.612435 183.217616,324.650755 L183.506193,323.382594 C183.708402,322.509274 183.916413,321.637518 184.164751,320.619765 L185.775136,314.059896 C186.514769,310.987573 186.820446,309.519488 187.054313,307.967894 L187.15693,307.251002 Z" id="Path" fill="#EBBAAA" fill-rule="nonzero"></path>
                    <ellipse id="Oval" fill="#F2CACA" fill-rule="nonzero" cx="313.785914" cy="360.691998" rx="38.4248" ry="38.9511"></ellipse>
                    <path d="M331.093914,429.646998 C340.568914,389.642998 344.253914,302.791998 344.253914,269.103998 C344.253914,240.573998 331.135914,132.560998 274.772914,113.299998 C233.186914,99.0879984 141.601914,112.772998 133.179914,100.666998 C104.229914,159.619998 114.728914,183.430998 86.3339137,199.097998 C55.8049137,215.940998 57.9099137,375.956998 65.7979137,414.380998 C66.6479137,415.762998 67.5279137,417.166998 68.4369137,418.591998 C84.7069137,444.095998 113.178914,470.702998 131.601914,478.597998 C130.548914,489.300998 120.126914,504.417998 122.587914,536 C124.166914,551 133.179914,574 133.179914,595 C115.914914,595.841998 74.5879137,576 59.5879137,553 C59.5879137,570 70.4939137,604.483998 48.5879137,589 C26.6079137,573.463998 4.66091365,523.078998 7.36691365,450.903998 C2.16831365,405.048998 -0.172886346,219.938998 0.00991365399,199.097998 C0.491813654,144.164998 55.1339137,20.6674984 167.393914,0.656973402 C186.342914,-2.7211816 200.554914,7.8358984 204.765914,11.7115984 C207.923914,7.8351684 219.503914,1.2872884 229.504914,2.5705784 C303.706914,12.0918984 354.350914,58.1852984 382.151914,163.830998 C395.028914,212.761998 382.573914,379.071998 375.835914,414.380998 C355.833914,403.327998 321.618914,469.649998 331.093914,429.646998 Z" id="Path" fill="#4D2909" fill-rule="nonzero"></path>
                    <path d="M111.601914,188.395998 C111.600914,155.761998 118.970914,110.493998 134.761914,83.1224984 C145.288914,78.2097984 171.606914,71.3318984 163.185914,83.1224984 C154.763914,94.9130984 152.307914,158.216998 155.816914,188.395998 C145.289914,194.009998 126.338914,194.712998 111.601914,188.395998 Z" id="Path" fill="#4D2909" fill-rule="nonzero"></path>
                    <path d="M298.985914,188.145998 C298.985914,137.511998 285.302914,102.602998 275.826914,73.2952984 C231.134914,68.4019984 139.280914,46.7918984 148.445914,83.2905984 C157.920914,121.020998 157.920914,150.496998 167.882914,188.145998 C212.574914,193.738998 236.422914,194.437998 298.985914,188.145998 Z" id="Path" fill="#4D2909" fill-rule="nonzero"></path>
                    <path d="M266.276367,74.7277957 C268.974003,72.3592967 273.080917,72.6261153 275.449416,75.3237516 C282.612544,83.4822999 292.58076,100.608351 301.119666,119.725742 L301.455976,120.481394 C311.640461,143.447196 318.832105,166.864373 321.234396,187.284556 C321.653824,190.849821 319.10362,194.080052 315.538356,194.49948 C311.973091,194.918909 308.74286,192.368705 308.323432,188.80344 C306.091852,169.834351 299.268737,147.617165 289.572101,125.751453 L288.952357,124.363628 C280.966266,106.603128 271.75896,90.8240975 265.680411,83.9008452 C263.311912,81.2032088 263.578731,77.0962947 266.276367,74.7277957 Z" id="Path" fill="#4D2909" fill-rule="nonzero"></path>
                    <path d="M390.313914,501.757998 C393.885914,465.416998 381.719914,411.222998 379.087914,359.638998 C379.087914,359.638998 367.939914,358.585998 365.573914,359.638998 C363.206914,360.691998 359.517914,362.270998 359.517914,362.270998 C353.729914,378.587998 353.468914,395.957998 328.202914,431.750998 C312.356914,454.198998 287.671914,470.701998 274.512914,478.070998 C271.354914,515.618998 291.586914,549.999998 282.586914,581.999998 C291.008914,586.210998 315.587914,569.999998 328.202914,556.999998 C328.202914,572.999998 314.356914,593.999998 328.202914,593.999998 C355.046914,593.999998 384.587914,559.999998 390.313914,501.757998 Z" id="Path" fill="#4D2909" fill-rule="nonzero"></path>
                </g>
            </g>
        </g>
    </g>
</svg>