<?xml version="1.0" encoding="UTF-8"?>
<svg width="447px" height="1398px" viewBox="0 0 447 1398" version="1.1" xmlns="http://www.w3.org/2000/svg" xmlns:xlink="http://www.w3.org/1999/xlink">
    <!-- Generator: Sketch 55.2 (78181) - https://sketchapp.com -->
    <title>gee_me_077</title>
    <desc>Created with Sketch.</desc>
    <defs>
        <polygon id="path-1" points="0.0996 0.0001 100.0996 0.0001 100.0996 100 0.0996 100"></polygon>
        <path d="M76.625,0 C76.96,2.046 77.135,4.146 77.135,6.287 L77.135,20.47 C77.135,41.77 59.868,59.037 38.568,59.037 C17.267,59.037 0,41.77 0,20.47 L0,6.287 C0,4.146 0.175,2.046 0.51,0 L76.625,0 Z" id="path-3"></path>
    </defs>
    <g id="GEE!-ME" stroke="none" stroke-width="1" fill="none" fill-rule="evenodd">
        <g id="gee_me_077" transform="translate(-377.000000, -101.000000)">
            <g transform="translate(376.000000, 101.000000)">
                <g id="lower-limb" transform="translate(2.785754, 864.000000)" fill-rule="nonzero">
                    <path d="M294.214246,222 C306.243008,222 316.017021,231.653726 316.211299,243.63619 L316.214246,244 L316.214246,493 C316.214246,505.150264 306.364511,515 294.214246,515 C282.185484,515 272.411471,505.346274 272.217194,493.36381 L272.214246,493 L272.214246,244 C272.214246,231.849736 282.063982,222 294.214246,222 Z" id="Path" fill="#EBBAAA"></path>
                    <path d="M150.214246,222 C162.243008,222 172.017021,231.653726 172.211299,243.63619 L172.214246,244 L172.214246,493 C172.214246,505.150264 162.364511,515 150.214246,515 C138.185484,515 128.411471,505.346274 128.217194,493.36381 L128.214246,493 L128.214246,244 C128.214246,231.849736 138.063982,222 150.214246,222 Z" id="Path" fill="#EBBAAA"></path>
                    <path d="M222.214246,105 C285.726246,105 337.214246,81.495 337.214246,52.5 C337.214246,23.505 285.726246,0 222.214246,0 C158.701246,0 107.214246,23.505 107.214246,52.5 C107.214246,81.495 158.701246,105 222.214246,105 Z" id="Path" fill="#35383E"></path>
                    <polygon id="Path" fill="#35383E" points="216.214246 23 91.2142462 23 96.2142462 377 106.929246 432 174.929246 432 181.214246 387"></polygon>
                    <polygon id="Path" fill="#35383E" points="211.214246 25 336.214246 25 331.214246 379 320.499246 434 252.499246 434 246.214246 389"></polygon>
                    <g id="Group-7" transform="translate(244.593026, 450.160000)">
                        <path d="M188.03122,77.98 C188.22722,55.58 185.10022,51.72 165.14822,42.56 C145.19722,33.4 126.40222,15.8 91.8852203,0.7 C91.8852203,0.7 87.3422203,-0.13 79.9472203,3.77 C73.6382203,7.1 65.5332203,15.27 53.3202203,15.16 C40.0572203,15.05 28.2382203,12.3 20.8942203,8.54 C17.7202203,0.06 10.6832203,-2.27373675e-13 10.6832203,-2.27373675e-13 C10.6832203,-2.27373675e-13 0.777220329,18.4 0.616220329,36.9 C0.454220329,55.39 0.475216653,76.34 0.475216653,76.34 L188.03122,77.98 Z" id="Path" fill="#DCE1E6"></path>
                        <path d="M92.0732203,46.12 C98.9742203,48 104.53622,47.75 107.68822,45.35 C115.80622,39.1 110.60822,29.57 108.40422,25.84 C112.37222,30.41 116.31522,35 119.39322,40 C124.24622,47.81 126.30522,56.39 123.03122,61.88 C117.16122,71.8 103.05422,67.22 94.0632203,63.23 L10.6212203,26.21 L92.0732203,46.12 Z" id="Path" fill="#E65555"></path>
                        <path d="M95.5219639,3.35779221 C96.1417421,1.99737322 97.7470091,1.39696528 99.1074281,2.01674353 C100.467847,2.63652178 101.068255,4.24178881 100.448477,5.60220779 C99.316952,8.08591528 98.8113351,10.6574142 98.6235801,14.3170911 L98.61,14.593 L113.158279,8.33359548 C115.202526,7.45392153 117.350216,9.27499685 116.871784,11.40338 L116.833108,11.5558976 L113.867,22.053 L125.868802,18.2779546 C127.558155,17.7464139 129.276792,18.9517665 129.382883,20.6896642 L129.38806,20.8594699 L129.39,31.69 L138.412331,26.9263486 C140.164674,26.0010815 142.262443,27.2103051 142.378059,29.1512586 L142.38306,29.3193853 L142.38606,42.5293853 C142.38606,44.0243317 141.174781,45.23684 139.679835,45.23684 C138.240257,45.23684 137.062898,44.1136481 136.977358,42.6955067 L136.97238,42.5306147 L136.97,33.809 L127.94811,38.5736514 C126.195735,39.4989354 124.097936,38.289651 123.982377,36.3486599 L123.97738,36.1805301 L123.975,24.549 L110.712639,28.7220454 C108.712169,29.3514763 106.810218,27.5707692 107.25528,25.5630392 L107.295333,25.4041024 L110.078,15.552 L96.8931191,21.2264045 C95.1593308,21.9724828 93.2337203,20.7606396 93.1214889,18.9106063 L93.1163374,18.7407001 L93.120303,17.6027254 C93.1680108,11.3007965 93.662727,7.43883435 95.5219639,3.35779221 Z" id="Path" fill="#FFFFFF"></path>
                        <path d="M6.49522033,9.74 C10.3492203,14.85 24.2422203,17.9 29.4692203,18.65 C34.6962203,19.4 40.2962203,18.75 38.0572203,27.18 C36.4732203,33.15 21.2432203,30.74 15.2882203,30.68 C10.4462203,30.64 3.65922033,44.92 1.13021659,40.07 C1.12622033,23.48 4.33122033,14.5 6.49522033,9.74 Z" id="Path" fill="#E65555"></path>
                        <path d="M180.47722,44.28 C174.35622,42.11 167.87422,40.47 155.44622,37.72 L160.73022,52.56 L160.58222,69.47 L195.95522,69.7800396 C197.39822,69.79 199.97722,67.91 198.74522,60.29 C197.20322,50.76 189.17522,47.36 180.47722,44.28 Z" id="Path" fill="#EAF4FB"></path>
                        <path d="M0.0152203288,76.16 L0.908220329,65.43 L159.51322,67.87 L199.06022,65.05 L199.86122,71.3 C200.49522,76.25 196.82822,80.71 191.85022,81.04 L159.31822,83.23 L4.26422033,80.85 C1.75722033,80.81 -0.192779671,78.66 0.0152203288,76.16 Z" id="Path" fill="#C7CBCF"></path>
                    </g>
                    <g id="Group-8" transform="translate(0.000000, 448.160000)">
                        <path d="M11.9005462,77.98 C11.7050462,55.58 14.8322462,51.72 34.7836462,42.56 C54.7351462,33.4 73.5301462,15.8 108.047246,0.7 C108.047246,0.7 112.590246,-0.13 119.984246,3.77 C126.294246,7.1 134.398246,15.27 146.612246,15.16 C159.874246,15.05 171.694246,12.3 179.037246,8.54 C182.212246,0.06 189.249246,-2.27373675e-13 189.249246,-2.27373675e-13 C189.249246,-2.27373675e-13 199.155246,18.4 199.316246,36.9 C199.477246,55.39 199.457145,76.34 199.457145,76.34 L11.9005462,77.98 Z" id="Path" fill="#DCE1E6"></path>
                        <path d="M107.859246,46.12 C100.958246,48 95.3952462,47.75 92.2442462,45.35 C84.1263462,39.1 89.3242462,29.57 91.5282462,25.84 C87.5599462,30.41 83.6168462,35 80.5389462,40 C75.6863462,47.81 73.6274462,56.39 76.9010462,61.88 C82.7705462,71.8 96.8782462,67.22 105.869246,63.23 L189.311246,26.21 L107.859246,46.12 Z" id="Path" fill="#E65555"></path>
                        <path d="M100.823609,2.01693919 C102.18392,1.3969238 103.789292,1.99705189 104.409307,3.35736281 C106.378889,7.67861717 106.817936,11.75424 106.816135,18.7407001 C106.815641,20.6282019 104.941006,21.9175034 103.197432,21.2888711 L103.039343,21.2264024 L89.854,15.552 L92.6371379,25.4041181 C93.2072662,27.4222715 91.3712504,29.2708483 89.3775347,28.7667751 L89.2198495,28.7220523 L75.956,24.549 L75.9542862,36.1805831 C75.9538593,38.1622438 73.9046954,39.4522363 72.1344976,38.647742 L71.9835038,38.5736233 L62.961,33.809 L62.9600862,42.5305942 C62.9597701,43.9701723 61.8357257,45.1470293 60.4175462,45.2319361 L60.252652,45.2368399 C58.813074,45.2368399 57.6362169,44.1124795 57.5513101,42.6943 L57.5464063,42.5294058 L57.5493063,29.3194058 C57.5497413,27.3377498 59.5989017,26.0477655 61.3690953,26.8522582 L61.5200887,26.9263767 L70.541,31.69 L70.5439063,20.8594169 C70.5442878,19.0884455 72.2101147,17.8111757 73.8996233,18.2318921 L74.063143,18.2779477 L86.065,22.053 L83.0994546,11.5558819 C82.494436,9.41422309 84.580517,7.52289811 86.6281366,8.27532438 L86.7742929,8.33359759 L101.321,14.593 L101.308846,14.3172044 C101.128525,10.804014 100.65514,8.29368648 99.6160392,5.90115423 L99.4831854,5.60263719 C98.86317,4.24232627 99.4632981,2.63695459 100.823609,2.01693919 Z" id="Path" fill="#FFFFFF"></path>
                        <path d="M193.436246,9.74 C189.583246,14.85 175.690246,17.9 170.463246,18.65 C165.236246,19.4 159.636246,18.75 161.875246,27.18 C163.458246,33.15 178.689246,30.74 184.644246,30.68 C189.486246,30.64 196.273246,44.92 198.80225,40.07 C198.806246,23.48 195.601246,14.5 193.436246,9.74 Z" id="Path" fill="#E65555"></path>
                        <path d="M19.4549462,44.28 C25.5760462,42.11 32.0583462,40.47 44.4863462,37.72 L39.2019462,52.56 L39.3494462,69.47 L3.97714624,69.7800396 C2.53354624,69.79 -0.0454537639,67.91 1.18734624,60.29 C2.72844624,50.76 10.7572462,47.36 19.4549462,44.28 Z" id="Path" fill="#EAF4FB"></path>
                        <path d="M199.917246,76.16 L199.024246,65.43 L40.4184462,67.87 L0.872446236,65.05 L0.0713462361,71.3 C-0.562653764,76.25 3.10384624,80.71 8.08154624,81.04 L40.6135462,83.23 L195.667246,80.85 C198.174246,80.81 200.125246,78.66 199.917246,76.16 Z" id="Path" fill="#C7CBCF"></path>
                    </g>
                </g>
                <g id="upper-limb" transform="translate(0.979288, 401.000000)">
                    <path d="M48.5796119,117.418 C72.7604119,63.111 112.280712,67.209 129.072712,69.266 L109.020712,332 L3.02081186,332 C-3.97925814,283 9.32891186,214.221 10.8962119,208 C16.1698119,187.068 29.9386119,159.283 48.5796119,117.418 Z" id="Path" fill="#E2D3BD" fill-rule="nonzero"></path>
                    <path d="M383.513712,120.162 C359.332712,65.855 319.812712,69.953 303.020712,72.011 L323.072712,334.744 L429.072712,334.744 C447.573712,309.244 422.764712,216.965 421.197712,210.744 C415.923712,189.812 402.154712,162.027 383.513712,120.162 Z" id="Path" fill="#E2D3BD" fill-rule="nonzero"></path>
                    <path d="M97.1917119,102.564 C101.347712,72.326 126.710712,50.15 157.243712,49.812 L226.223712,49.048 L289.780712,55.744 C318.839712,58.806 342.415712,81.378 346.242712,110.433 C354.582712,173.754 367.527712,284.515 367.527712,361.946 C367.527712,476.17 385.689712,487.095 357.569712,502.061 C329.450712,517.028 104.484712,514.921 73.7697119,491.718 C43.0547119,468.514 62.1523119,444.341 62.1523119,396.963 C62.1523119,362.06 85.1046119,190.492 97.1917119,102.564 Z" id="Path" fill="#F0E4D2" fill-rule="nonzero"></path>
                    <g id="Group-6" transform="translate(173.020712, 187.000000)">
                        <g id="Group-3" transform="translate(0.000000, 0.100000)">
                            <mask id="mask-2" fill="white">
                                <use xlink:href="#path-1"></use>
                            </mask>
                            <g id="Clip-2"></g>
                        </g>
                        <path d="M12.0986,83.1211 C12.2326,83.4521 12.3706,83.7801 12.4986,84.1131 C12.5686,84.2921 12.5976,84.4891 12.6826,84.6591 C12.8576,85.0111 13.1366,85.0291 13.3826,84.7081 C13.5286,84.5171 13.6296,84.2921 13.7826,84.1061 C13.9896,83.8551 14.2226,83.7721 14.5216,84.0201 C14.6316,84.1111 14.8926,84.1631 14.9906,84.0961 C15.1566,83.9801 15.3806,83.7251 15.3466,83.5851 C15.2446,83.1671 15.5116,83.0091 15.7396,82.7821 C16.6586,81.8671 17.5466,80.9211 18.4816,80.0221 C20.9966,77.6071 23.7846,75.5751 26.9506,74.0841 C27.7626,73.7011 28.5716,73.3441 29.1746,72.5931 C29.5986,72.0641 30.2806,71.8001 30.9806,71.7011 C31.5336,71.6231 31.7636,71.1561 32.0416,70.7811 C33.5836,68.7041 35.3056,66.8071 37.4036,65.2701 C37.5416,65.1691 37.6886,65.0381 37.7556,64.8881 C38.0576,64.2181 38.6536,63.9731 39.2816,63.7331 C40.2726,63.3561 40.6986,62.6991 40.6886,61.6781 C40.6826,61.0271 40.6766,60.3771 40.7036,59.7281 C40.7376,58.9191 41.2346,58.1981 42.0666,58.0721 C42.2246,58.0491 42.3956,57.9271 42.5046,57.8011 C42.7666,57.5011 43.1196,57.2011 43.2026,56.8471 C43.2896,56.4731 43.1206,56.0321 43.0356,55.6271 C42.9466,55.2141 42.8416,54.8031 42.7066,54.4021 C42.6266,54.1641 42.5036,53.9281 42.3496,53.7301 C42.0816,53.3891 41.8376,53.0601 41.8936,52.5871062 C41.9086,52.4661 41.8206,52.3141 41.7426,52.2031 C41.2956,51.5731 40.8426,50.9471 40.3806,50.3281 C40.0886,49.9351 39.7346,49.9661 39.4576,50.3591 C39.1636,50.7781 38.8566,51.1511 38.3216,51.3501 C38.0496,51.4501 37.8446,51.8681 37.7126,52.1841 C37.1136,53.6271 36.3636,54.9551 35.0996,55.9291 C34.5786,56.3291 34.0536,56.7241 33.5286,57.1181 C32.3766,57.9861 31.6886,59.1801 31.3066,60.5271 C31.0796,61.3241 31.0406,62.1771 30.9426,63.0081 C30.8946,63.4171 31.2986,63.8481 31.7516,63.8901 C32.0376,63.9161 32.2996,63.9651 32.2996,64.3091 C32.2986,64.6611 32.0206,64.7051 31.7416,64.7341 C31.1266,64.7981 30.5386,64.7201 30.1096,64.2461 C29.5356,63.6121 29.1656,63.8681 28.7136,64.4641 C28.4106,64.8651 28.2696,65.4231 27.7006,65.5651 C27.5456,65.6041 27.3276,65.5861 27.2086,65.4991 C27.1396,65.4481 27.1756,65.1971 27.2236,65.0571 C27.3036,64.8231 27.4306,64.6071 27.5376,64.3841 C27.5086,64.3471 27.4786,64.3091 27.4486,64.2721 C26.9536,64.4441 26.4646,64.6341 25.9636,64.7831 C25.5446,64.9081 25.1166,65.0101 24.6846,65.0711 C24.5706,65.0881 24.4286,64.9211 24.2996,64.8381 C24.3806,64.7181 24.4356,64.5561 24.5466,64.4861 C24.9006,64.2711 25.2886,64.1131 25.6336,63.8871 C25.7756,63.7931 25.8396,63.5821 25.9336,63.4341 C25.1746,63.5961 24.4926,63.7951 23.7956,63.8721 C23.0816,63.9501 22.3696,63.8391 21.7276,63.4921 C21.7166,63.4351 21.7066,63.3791 21.6976,63.3211 C21.9146,63.2451 22.1316,63.1081 22.3526,63.1001 C23.9256,63.0431 25.4126,62.6491 26.6496,61.6811 C27.4176,61.0791 28.1156,60.3231 28.6586,59.5121 C29.3056,58.5441 29.7666,57.4491 30.2856,56.3971 C31.1846,54.5751 32.3016,52.8981 33.5556,51.3021 C33.8636,50.9091 34.0326,50.4091 34.2816,49.9691 C34.6126,49.3821 34.9586,48.8051 35.3006,48.2241 C35.7626,47.4391 36.2246,46.6541 36.6906,45.8721 C37.2226,44.9791 37.6976,44.0411 38.3246,43.2211 C38.6046,42.8541 39.1986,42.7281 39.6486,42.4921 C39.8186,42.4031 40.0096,42.3381 40.1506,42.2151 C40.7146,41.7231 41.2206,41.1811 41.4786,40.4531 C41.5966,40.1201 41.4196,39.9231 41.1996,39.7001 C40.7486,39.2461 40.2596,38.8051 39.9176,38.2741 C39.1756,37.1201 39.3706,35.8871 39.9576,34.7591 C40.5596,33.6021 41.5176,32.6941 42.7896,32.3641 C43.9426,32.0651 45.1236,32.2251 46.0426,33.1291 C46.6026,33.6801 47.2156,34.0931 47.9696,34.3431 C48.2726,34.4421 48.7086,34.6711 48.3666,35.1831 C48.3306,35.2361 48.4166,35.4041 48.4856,35.4861 C48.6516,35.6881 48.8396,35.8711 49.0246,36.0661 C49.5946,35.4281 50.2186,34.7711 50.7846,34.0681 C50.9636,33.8451 50.9926,33.4961 51.0816,33.2021 C51.4076,32.1321 51.7366,31.0611 52.0436,29.9861 C52.1066,29.7671 52.1116,29.5211 52.0926,29.2931 C52.0256,28.4491 52.2296,27.6971 52.6476,26.9511 C52.8996,26.5011 52.9456,25.9331 53.0706,25.4131 C53.2916,24.4931 53.5006,23.5701 53.7246,22.6501 C53.7446,22.5641 53.8156,22.4801 53.8836,22.4181 C54.3616,21.9881 54.3666,21.3781 54.4986,20.8191 C54.6896,20.0251 54.8526,19.2241 55.0436,18.4301 C55.2106,17.7391 55.0536,17.0881 54.7916,16.4661 C54.4316,15.6071 54.0146,14.7721 53.6376,13.9211 C53.1296,12.7741 52.6976,11.5951 52.9206,10.3171 C53.1976,8.7331 54.0266,7.4951 55.4586,6.7111 C56.3096,6.2451 57.2256,6.0131 58.1976,6.1081 C60.0656,6.2941 61.4156,7.2561 62.2936,8.9011 C62.8426,9.9311 62.8796,11.0641 62.6556,12.1371 C62.3376,13.6531 61.4446,14.8471 59.9816,15.4861 C59.4526,15.7171 58.8626,15.8361 58.2866,15.9211 C57.5296,16.0331 57.5146,16.0741 57.6676,16.7991 C57.7606,17.2401 57.6776,17.7241 57.6446,18.1861 C57.6266,18.4271 57.5196,18.6611 57.5016,18.9021 C57.4156,20.0601 57.3376,21.2201 57.2776,22.3801 C57.2566,22.7611 57.3386,23.1481 57.2986,23.5241 C57.1846,24.5891 57.0426,25.6511 56.8796,26.7101 C56.8556,26.8661 56.6316,26.9811 56.5386,27.1391 C56.3786,27.4071 56.1706,27.6811 56.1196,27.9751 C55.8916,29.2771 55.7226,30.5841 55.1806,31.8151 C54.9936,32.2391 55.0086,32.7511 54.9146,33.2191 C54.8246,33.6661 54.7096,34.1081 54.6116,34.5541 C54.5786,34.6971 54.5456,34.8441 54.5426,34.9901 C54.5316,35.4451 54.5286,35.9011 54.5336,36.3561 C54.5426,37.3331 54.1596,38.2171 53.7986,39.0801 C53.3056,40.2631 53.1886,41.4191 53.4356,42.6791 C53.6366,43.7121 53.8576,44.7241 54.3036,45.6771 C54.5776,46.2611 54.8956,46.8251 55.1626,47.4121 C55.3026,47.7191 55.4536,48.0531 55.4686,48.3811 C55.5566,50.3731 55.6836,52.3681 55.6426,54.3591 C55.6196,55.5161 55.2776,56.6631 55.1436,57.8211 C55.1036,58.1671 55.2816,58.5381 55.3606,58.8971 C55.5706,59.8541 56.4006,60.2211 57.0966,60.7071 C57.8206,61.2121 58.3616,61.8551 58.0636,62.7581 C57.8476,63.4071 58.1256,63.5141 58.5996,63.7331 C59.8306,64.3041 61.0766,64.8691 62.2286,65.5781 C63.3796,66.2871 64.4366,67.1541 65.5146,67.9781 C66.1846,68.4921 66.7356,69.2931 67.4836,69.5521 C70.1476,70.4751 72.2986,72.2091 74.5206,73.8091 C76.9886,75.5881 79.3286,77.5431 81.7356,79.4071 C82.2536,79.8091 82.8206,80.1511 83.3606,80.5261 C83.5666,80.6701 83.7896,80.7751 83.7246,81.1301 C83.5896,81.8621 83.8396,82.1481 84.5796,82.2831 C84.8406,82.3311 85.0806,82.4811 85.3396,82.5491 C85.6176,82.6201 85.9606,82.7711 86.1766,82.6721 C86.7216,82.4211 87.2446,82.0911 87.7136,81.7151 C88.4736,81.1061 88.7496,81.0161 89.5406,81.1981 C88.5586,81.8231 87.6106,82.4791 87.2146,83.7171 C87.4556,83.7171 87.6666,83.7161 87.8776,83.7171 C88.7326,83.7221 89.5916,83.6721 90.4396,83.7461 C91.6096,83.8481 92.5706,83.4281 93.4816,82.7671 C93.7506,82.5731 94.0606,82.3861 94.3776,82.3171 C95.0226,82.1801 95.5156,82.5861 95.9996,82.9301 C96.0506,82.9661 96.0176,83.2351 95.9406,83.3191 C95.1386,84.1861 94.3246,85.0411 93.5046,85.8911 C92.0856,87.3661 90.2486,88.2781 88.6366,89.4931 C87.9196,90.0321 87.2486,90.6341 86.5186,91.1511 C85.8826,91.6021 85.8526,91.6911 85.4366,90.9511 C85.1616,90.4621 84.9746,89.9181 84.6656,89.4521 C84.3276,88.9411 83.9126,88.4791 83.5026,88.0221 C82.6376,87.0591 81.7636,86.1041 80.8716,85.1671 C80.4736,84.7491 79.9846,84.5411 79.3786,84.4511 C78.8666,84.3751 78.3656,84.0561 77.9166,83.7571 C76.9826,83.1371 76.1076,82.4261 75.1656,81.8171 C74.6336,81.4741 73.9716,81.3241 73.4476,80.9711 C72.2916,80.1901 71.2096,79.3021 70.0546,78.5221 C68.7036,77.6111 67.2906,76.7941 65.9356,75.8911 C64.9466,75.2301 63.8286,75.0401 62.7016,74.8891 C60.6976,74.6211 58.8216,73.9831 56.9806,73.1651 C55.4496,72.4841 53.8696,71.9031 52.2926,71.3331 C51.2086,70.9401 50.0896,70.6471 48.9906,70.2971 C48.7766,70.2281 48.5546,70.1361 48.3806,69.9991 C47.8366,69.5691 47.2986,69.6301 46.7386,69.9471 C44.9406,70.9661 43.1596,72.0171 41.3346,72.9871 C39.0766,74.1891 36.7646,75.2931 34.5086,76.5021 C33.6826,76.9451 32.9676,77.5911 32.1736,78.1001 C30.2986,79.3071 28.3976,80.4731 26.5266,81.6841 C25.4946,82.3501 24.4836,83.0511 23.4956,83.7821 C22.5796,84.4611 21.7256,85.2251 20.8036,85.8971 C20.5886,86.0541 20.2096,85.9961 19.9056,86.0161 C19.8016,86.0221 19.6316,85.9101 19.5976,85.9471 C19.0776,86.5191 18.3146,86.6621 17.6946,87.0501 C16.7786,87.6211 16.0476,88.3841 15.4876,89.3201 C15.3386,89.5681 15.0246,89.7211 14.7766,89.9051 C14.6346,90.0121 14.4356,90.0631 14.3296,90.1941 C13.9636,90.6511 13.6066,91.1191 13.2856,91.6091 C12.9326,92.1461 12.0116,92.5101 11.1746,92.2601 C10.3496,92.0141 9.6346,92.2651 8.9626,92.6211 C7.6366,93.3241 6.4816,93.2031 5.4466,92.1091 C5.0326,91.6721 4.6546,91.1951 4.2986,90.7081 C3.7996,90.0261 4.2926,89.2531 4.8476,88.9491 C5.5496,88.5641 6.2806,88.2681 7.1166,88.2461 C7.5436,88.2341 7.9706,88.0391 8.3896,87.9001 C9.1416,87.6521 9.8906,87.3931 10.6316,87.1141 C10.7476,87.0711 10.8736,86.9121 10.8976,86.7881 C10.9986,86.2461 11.2806,85.9411 11.8346,85.9111 C12.2126,85.8901 12.2856,85.7921 12.1346,85.4251 C11.9456,84.9661 11.8026,84.4791 11.7156,83.9921 C11.6686,83.7261 11.7816,83.4331 11.8216,83.1521 C11.9126,83.1421 12.0056,83.1321 12.0986,83.1211" id="Fill-4" fill="#000000"></path>
                    </g>
                    <ellipse id="Oval" fill="#FFFFFF" fill-rule="nonzero" cx="217.270712" cy="80.401" rx="49.3747" ry="65.4012"></ellipse>
                    <rect id="Rectangle" fill="#EBBAAA" fill-rule="nonzero" x="183.895712" y="0" width="69" height="115" rx="34.5"></rect>
                    <path d="M180.402712,149.447 C147.819712,143.117 77.5615119,74.276 114.217712,38.67 C137.636712,8.997 175.311712,48.561 180.402712,68.342 C184.475712,84.168 195.676712,123.071 202.803712,133.621 C210.949712,141.204 212.985712,155.777 180.402712,149.447 Z" id="Path" fill="#E2D3BD" fill-rule="nonzero"></path>
                    <path d="M257.388712,149.447 C289.972712,143.117 360.230712,74.276 323.573712,38.67 C300.154712,8.997 262.480712,48.561 257.388712,68.342 C253.316712,84.168 242.115712,123.071 234.987712,133.621 C226.841712,141.204 224.805712,155.777 257.388712,149.447 Z" id="Path" fill="#E2D3BD" fill-rule="nonzero"></path>
                    <path d="M156.020712,120 C159.806164,120 162.889811,123.004783 163.016653,126.75935 L163.020712,127 L163.020712,237 C163.020712,240.865993 159.886705,244 156.020712,244 C152.23526,244 149.151613,240.995217 149.024771,237.24065 L149.020712,237 L149.020712,127 C149.020712,123.134007 152.154719,120 156.020712,120 Z" id="Path" fill="#FFFFFF" fill-rule="nonzero"></path>
                    <path d="M275.020712,120 C278.806164,120 281.889811,123.004783 282.016653,126.75935 L282.020712,127 L282.020712,215 C282.020712,218.865993 278.886705,222 275.020712,222 C271.23526,222 268.151613,218.995217 268.024771,215.24065 L268.020712,215 L268.020712,127 C268.020712,123.134007 271.154719,120 275.020712,120 Z" id="Path" fill="#FFFFFF" fill-rule="nonzero"></path>
                    <path d="M349.020712,449.999 C449.020712,440.999 436.645604,337.385 435.896604,306.346 L367.020712,306.346 C369.980712,346.147 309.749712,336.254 307.020712,385.999 C327.201712,391.891 313.020712,453.239 349.020712,449.999 Z" id="Path" fill="#E2D3BD" fill-rule="nonzero"></path>
                    <path d="M89.8501119,449.999 C-10.1499181,440.999 0.2505,337.385 1,306.346 L70.9530404,306.346 C67.9933404,346.147 129.120712,336.254 131.849712,385.999 C111.668712,391.891 125.849712,453.239 89.8501119,449.999 Z" id="Path" fill="#E2D3BD" fill-rule="nonzero"></path>
                    <path d="M112.786712,386.931 C117.661712,359.769 141.293712,340 168.889712,340 L216.486712,340 L301.905712,340 C308.429712,340 315.060712,341.101 319.860712,345.52 C327.931712,352.948 339.715712,369.567 343.935712,404.949 C350.596712,460.801 343.935712,469.897 343.935712,469.897 C343.935712,469.897 275.243712,488 216.486712,488 C157.729712,488 97.8957119,469.897 97.8957119,469.897 L109.552712,404.949 L112.786712,386.931 Z" id="Path" fill="#FDF6EC" fill-rule="nonzero"></path>
                </g>
                <g id="hand" transform="translate(29.875100, 0.323930)">
                    <path d="M339.9999,345.23107 C362.0919,345.23107 379.9999,325.75507 379.9999,301.73107 C379.9999,277.70607 362.0919,258.23107 339.9999,258.23107 C317.9089,258.23107 299.9999,277.70607 299.9999,301.73107 C299.9999,325.75507 317.9089,345.23107 339.9999,345.23107 Z" id="Path" fill="#C99584" fill-rule="nonzero" opacity="0.5"></path>
                    <path d="M40,345.23107 C17.9086,345.23107 1.26476607e-12,325.75507 1.26476607e-12,301.73107 C1.26476607e-12,277.70607 17.9086,258.23107 40,258.23107 C62.0914,258.23107 79.9999,277.70607 79.9999,301.73107 C79.9999,325.75507 62.0914,345.23107 40,345.23107 Z" id="Path" fill="#C99584" fill-rule="nonzero" opacity="0.5"></path>
                    <path d="M40,204.99807 C40,122.15607 107.1569,54.99837 189.9999,54.99837 C272.8429,54.99837 339.9999,122.15607 339.9999,204.99807 L339.9999,259.84407 C339.9999,268.75507 339.3189,277.65207 337.9619,286.45907 L328.7959,345.96507 C318.2689,414.29507 259.4699,464.73007 190.3339,464.73007 C122.6669,464.73007 64.6699,416.36307 52.5174,349.79507 L42.8423,296.79907 C40.9513,286.44107 40,275.93307 40,265.40407 L40,204.99807 Z" id="Path" fill="#F4D5CC" fill-rule="nonzero"></path>
                    <path d="M225.141871,198.863727 C225.458039,193.4437 230.034687,189.284468 235.42759,189.450576 L235.707243,189.463041 L295.707243,192.963041 C301.220718,193.28466 305.429549,198.014938 305.107929,203.528413 C304.791761,208.94844 300.215113,213.107672 294.82221,212.941564 L294.542557,212.929099 L234.542557,209.429099 C229.029082,209.10748 224.820251,204.377202 225.141871,198.863727 Z" id="Path" fill="#393939" fill-rule="nonzero"></path>
                    <path d="M144.542557,189.463041 C150.056032,189.141421 154.78631,193.350252 155.107929,198.863727 C155.424098,204.283753 151.362089,208.946907 145.986449,209.408964 L145.707243,209.429099 L85.7072434,212.929099 C80.1937685,213.250719 75.46349,209.041888 75.1418706,203.528413 C74.8257024,198.108387 78.887711,193.445233 84.2633505,192.983176 L84.5425566,192.963041 L144.542557,189.463041 Z" id="Path" fill="#393939" fill-rule="nonzero"></path>
                    <g id="Group-2" transform="translate(68.124900, 228.676070)" fill="#FFFFFF" fill-opacity="0.75" fill-rule="nonzero">
                        <path d="M234,-4 L154,-4 C146.267861,-4 140,2.267861 140,10 L140,35 C140,64.823139 164.176861,89 194,89 L219,89 C235.016139,89 248,76.016139 248,60 L248,10 C248,2.267861 241.732139,-4 234,-4 Z M154,4 L234,4 C237.313861,4 240,6.686139 240,10 L240,60 C240,71.597861 230.597861,81 219,81 L194,81 C168.595139,81 148,60.404861 148,35 L148,10 C148,6.686139 150.686139,4 154,4 Z" id="Path"></path>
                        <path d="M90,-4 L10,-4 C2.267861,-4 -4,2.267861 -4,10 L-4,60 C-4,76.016139 8.983861,89 25,89 L50,89 C79.823139,89 104,64.823139 104,35 L104,10 C104,2.267861 97.732139,-4 90,-4 Z M10,4 L90,4 C93.313861,4 96,6.686139 96,10 L96,35 C96,60.404861 75.404861,81 50,81 L25,81 C13.402139,81 4,71.597861 4,60 L4,10 C4,6.686139 6.686139,4 10,4 Z" id="Path"></path>
                        <rect id="Rectangle" x="97" y="10" width="50" height="8"></rect>
                    </g>
                    <path d="M230.2599,357.28007 L230.2599,371.14607 C230.2599,392.44607 212.9929,409.71407 191.6919,409.71407 C170.3919,409.71407 153.1249,392.44607 153.1249,371.14607 L153.1249,357.28007 L230.2599,357.28007 Z" id="Path" fill="#393939"></path>
                    <g id="Clipped" transform="translate(153.124900, 350.676070)">
                        <mask id="mask-4" fill="white">
                            <use xlink:href="#path-3"></use>
                        </mask>
                        <g id="Path"></g>
                        <g id="Group" mask="url(#mask-4)" fill-rule="nonzero">
                            <g transform="translate(0.000000, 4.000000)">
                                <ellipse id="Oval" fill="#FF6C6C" transform="translate(36.510000, 55.942000) scale(-1, 1) translate(-36.510000, -55.942000) " cx="36.51" cy="55.942" rx="23.2582" ry="12.6667"></ellipse>
                                <rect id="Rectangle" fill="#FFFFFF" transform="translate(38.567650, 8.557500) scale(-1, 1) translate(-38.567650, -8.557500) " x="0.0003" y="0.604" width="77.1347" height="15.907"></rect>
                            </g>
                        </g>
                    </g>
                    <path d="M30.5004,159.73107 C29.8301,98.72107 83.5029,78.73137 74.0019,90.23097 C64.4999,101.73007 87.0029,130.23107 74.0019,139.23107 C61,148.23107 75.5009,177.23207 68.5009,188.23207 C61.5007,199.23207 50.3259,196.73207 44.0007,218.23207 C37.6756,239.73207 43.0007,281.58907 43.0007,281.58907 C43.5007,282.73207 43.0007,284.23207 42.0007,284.23207 C41.0007,284.23207 39.5007,283.73207 39.0944,281.58907 C39.0944,281.58907 31.5,250.73107 30.5004,159.73107 Z" id="Path" fill="#487FCE" fill-rule="nonzero"></path>
                    <path d="M348.9939,161.26507 C349.6129,104.92707 300.0699,86.46887 308.8399,97.08777 C317.6099,107.70707 296.8389,134.02407 308.8399,142.33507 C320.8409,150.64607 307.4559,177.42507 313.9179,187.58307 C320.3789,197.74007 330.6939,195.43207 336.5329,215.28507 C342.3709,235.13907 337.4559,273.79007 337.4559,273.79007 C336.9939,274.84607 337.4559,276.23107 338.3789,276.23107 C339.3019,276.23107 340.6859,275.76907 341.0619,273.79007 C341.0619,273.79007 348.0719,245.29607 348.9939,161.26507 Z" id="Path" fill="#487FCE" fill-rule="nonzero"></path>
                    <path d="M194.9999,123.22907 C111.9989,123.22907 54.7873,136.72907 42.0003,164.41707 C29.2133,192.10507 32.1401,200.72907 31.5003,193.22907 C30.8606,185.72907 30.0003,177.35507 30.0003,162.22907 C30.0003,64.04107 98.5009,49.22707 160.4999,55.22777 C222.4999,61.22837 270.8609,123.22907 194.9999,123.22907 Z" id="Path" fill="#1451A9" fill-rule="nonzero"></path>
                    <path d="M184.3239,122.73907 C260.4729,122.73907 336.8609,94.07517 339.9999,149.72907 C351.9999,168.72907 347.4999,190.73007 348.9999,159.72907 C355.4599,26.22977 151.9999,-63.64273 48,91.85717 C48,91.85717 108.1669,122.73907 184.3239,122.73907 Z" id="Path" fill="#1451A9" fill-rule="nonzero"></path>
                    <path d="M185.927472,271.516118 L200.072328,280.946022 C195.264905,288.157156 191.4999,298.981544 191.4999,306.85607 C191.4999,314.449089 194.241895,317.640777 202.636655,317.729178 L202.9999,317.73107 L202.9999,334.73107 C184.456781,334.73107 174.4999,323.529579 174.4999,306.85607 C174.4999,295.560961 179.198835,281.849824 185.577877,272.046909 L185.927472,271.516118 Z" id="Path" fill="#EBBAAA" fill-rule="nonzero"></path>
                    <path d="M252.9999,239.67607 C259.525357,239.67607 264.834293,244.884614 264.9961,251.371095 L264.9999,251.67607 L264.9999,265.67607 C264.9999,272.303487 259.627317,277.67607 252.9999,277.67607 C246.474443,277.67607 241.165507,272.467526 241.0037,265.981045 L240.9999,265.67607 L240.9999,251.67607 C240.9999,245.048653 246.372483,239.67607 252.9999,239.67607 Z" id="Path" fill="#000000" fill-rule="nonzero"></path>
                    <path d="M127.4999,239.67607 C134.025357,239.67607 139.334293,244.884614 139.4961,251.371095 L139.4999,251.67607 L139.4999,265.67607 C139.4999,272.303487 134.127317,277.67607 127.4999,277.67607 C120.974443,277.67607 115.665507,272.467526 115.5037,265.981045 L115.4999,265.67607 L115.4999,251.67607 C115.4999,245.048653 120.872483,239.67607 127.4999,239.67607 Z" id="Path" fill="#000000" fill-rule="nonzero"></path>
                    <path d="M149.9999,129.73007 C111.4999,120.35607 61.5,141.73007 30.5,147.23007 C30.5,79.72977 102.4999,10.72967 184.9999,8.72967 C267.4999,6.72964 318.4999,61.22967 331.4999,88.22967 C336.5559,98.73007 324.9999,118.15807 297.9999,129.73007 C266.4999,143.23007 207.4999,143.73007 149.9999,129.73007 Z" id="Path" fill="#013581" fill-rule="nonzero"></path>
                    <path d="M149.0209,150.07107 C186.0449,127.44507 203.0469,122.80607 220.8739,112.52107 C208.5329,107.03607 176.4919,91.71277 160.0369,104.87707 C152.9959,114.06407 140.4369,129.50107 149.0209,150.07107 Z" id="Path" fill="#013581" fill-rule="nonzero"></path>
                    <path d="M78.8789,160.41307 C133.9019,128.53107 157.7279,138.81607 175.5549,128.53107 C163.2129,123.04607 189.9529,83.85197 102.0189,102.81907 C75.7939,108.47607 70.2949,139.84407 78.8789,160.41307 Z" id="Path" fill="#013581" fill-rule="nonzero"></path>
                    <polygon id="Path" fill="#013581" fill-rule="nonzero" points="314.3419 44.07927 324.2959 79.43987 193.0809 59.11917 43.125 86.53197 43.4413 71.98247 54.1377 67.53617 54.3862 56.10447 67.8709 56.39757 68.2549 38.73027 85.5909 39.10717 89.7379 25.68057 105.1479 26.01557 114.5919 12.70427 130.3939 17.20667 135.3899 8.99737 151.7639 9.35327 151.9669 0 173.9169 9.83477 179.8989 0.60713 189.3269 10.16977 199.1619 1.02585 217.2589 10.77687 229.0199 1.67485 241.3379 11.30027 250.0059 11.48867 259.4569 20.01207 263.4899 11.78177 279.4799 29.80497 290.1649 25.87817 303.6909 46.44717"></polygon>
                </g>
            </g>
        </g>
    </g>
</svg>