<?xml version="1.0" encoding="UTF-8"?>
<svg width="650px" height="1394px" viewBox="0 0 650 1394" version="1.1" xmlns="http://www.w3.org/2000/svg" xmlns:xlink="http://www.w3.org/1999/xlink">
    <!-- Generator: Sketch 55.2 (78181) - https://sketchapp.com -->
    <title>gee_me_066</title>
    <desc>Created with Sketch.</desc>
    <defs>
        <path d="M0.522,68.32 C0.522,51.4 6.108,42.11 16.218,35.55 C64.322,4.32 126.695,2.85 184.009,0.72 C184.478,0.72 185.974,4.2 186.179,4.62 C188.237,8.85 199.032,31.9 199.032,50.34 C199.032,64.45 200.24,78.32 196.349,85.49 C194.593,88.73 183.632,90.49 179.952,90.49 L6.491,90.49 C3.194,90.49 0.522,71.62 0.522,68.32 Z" id="path-1"></path>
        <path d="M199.495,68.32 C199.495,51.4 193.909,42.11 183.8,35.55 C135.695,4.31 73.322,2.84 16.008,0.72 C15.54,0.72 14.043,4.2 13.838,4.62 C11.781,8.85 0.985,31.9 0.985,50.34 C0.985,64.45 -0.223,78.32 3.668,85.49 C5.424,88.73 16.385,90.49 20.066,90.49 L193.527,90.49 C196.823,90.49 199.495,71.62 199.495,68.32 Z" id="path-3"></path>
        <path d="M0.105,0.649 C0.061,1.424 0.038,2.204 0.038,2.989 L0.038,17.824 C0.038,40.102 18.098,58.162 40.376,58.162 C62.654,58.162 80.714,40.102 80.714,17.824 L80.714,2.989 C80.714,2.204 80.692,1.424 80.647,0.649 L0.105,0.649 Z" id="path-5"></path>
    </defs>
    <g id="GEE!-ME" stroke="none" stroke-width="1" fill="none" fill-rule="evenodd">
        <g id="gee_me_066" transform="translate(-275.000000, -103.000000)">
            <g transform="translate(275.000000, 103.000000)">
                <g id="lower-limb" transform="translate(119.000000, 495.733000)">
                    <path d="M279.10172,420.601047 C296.511919,417.0011 313.544007,428.196521 317.143953,445.60672 C323.836859,477.975204 327.069444,548.754737 326.765594,633.612016 C326.478174,713.880448 322.985328,790.690242 317.487643,829.196826 C314.974844,846.796839 298.670187,859.027443 281.070174,856.514643 C263.470161,854.001844 251.239557,837.697187 253.752357,820.097174 C264.695436,743.450252 265.606022,518.942867 254.438166,460.367187 L254.096047,458.64328 C250.4961,441.233081 261.691521,424.200993 279.10172,420.601047 Z" id="Path" fill="#F6DDD6" fill-rule="nonzero"></path>
                    <path d="M119.792228,439.089843 C123.392659,421.679745 140.425058,410.484797 157.835157,414.085228 C175.071154,417.649655 186.215682,434.378754 182.943355,451.60598 L182.839772,452.128157 C171.311941,507.871672 172.129764,736.164374 183.18356,813.576587 C185.696683,831.176555 173.46638,847.481436 155.866413,849.99456 C138.266445,852.507683 121.961564,840.27738 119.44844,822.677413 C114.005643,784.560282 110.527645,708.897785 110.179619,629.503318 L110.170032,627.096318 C109.866035,542.236674 113.098724,471.456683 119.792228,439.089843 Z" id="Path" fill="#F6DDD6" fill-rule="nonzero"></path>
                    <rect id="Rectangle" fill="#EED1C9" fill-rule="nonzero" x="74.561" y="-8.52651283e-14" width="276.841" height="353.026" rx="120.179"></rect>
                    <path d="M71.341,654.547 C71.341,593.387 68.76,497.884 75.633,434.576 C82.507,371.267 81.001,368.009 80.999,265.038 C89.782,220.193 80.999,184.911 80.999,139.493 L60.712,51.243 C86.679,37.491 139.843,-3.242 136.563,29.762 C132.463,71.017 149.672,87.988 206.542,129.836 C274.143,86.915 273.07,22.534 305.26,22.534 C370.799,22.534 326.722,260.745 337.452,381.997 C348.182,503.249 357.84,643.817 357.84,643.817 C311.7,683.517 127.037,691.037 71.341,654.547 Z" id="Path" fill="#D1DEED" fill-rule="nonzero"></path>
                    <path d="M112.956163,286.718797 L117.715837,269.109203 L118.798643,269.397546 C134.549859,273.530908 160.181332,277.669832 188.907332,280.092772 C226.514717,283.264826 266.756047,283.407485 307.559898,279.765507 L309.786108,279.563096 L311.467892,297.726904 C269.540956,301.608911 228.177174,301.5887 189.446495,298.441325 L187.374168,298.269728 C157.297302,295.732847 130.35404,291.354833 113.532204,286.873369 L112.956163,286.718797 Z" id="Path" fill="#C4D2E2" fill-rule="nonzero"></path>
                    <path d="M145.861505,290.058443 C139.729304,301.002624 146.286576,311.84866 158.084006,313.974024 C169.670788,316.061438 181.610272,309.290149 187.729297,295.374628 C188.756357,293.03895 187.996383,290.303054 185.911815,288.83172 C180.536284,285.037553 173.678035,281.88044 167.329934,280.814983 C158.325097,279.303622 150.583455,281.978088 146.070713,289.69303 L145.861505,290.058443 Z M166.048616,291.486344 C169.035466,292.059753 172.336825,293.327925 175.393229,294.947733 L175.729,295.128 L175.550064,295.403879 C171.329034,301.760833 165.456973,304.399259 159.986494,303.413726 C154.943462,302.5052 152.99402,299.280731 155.22245,295.303637 C157.235411,291.711237 160.507389,290.550281 165.553816,291.397267 L166.048616,291.486344 Z" id="Path" fill="#B5C6DA" fill-rule="nonzero"></path>
                    <path d="M204.537796,276.899637 C197.455019,279.204857 190.106883,284.016575 184.581504,289.298946 C182.737149,291.062185 182.389793,293.880453 183.750811,296.03876 C193.103281,310.86994 207.782715,316.522372 220.529338,312.204518 C233.361651,307.857638 238.821523,294.776853 230.183353,283.62531 C223.82827,275.421814 214.604517,273.623238 204.537796,276.899637 Z M221.700517,290.196523 C225.448117,295.034529 223.418738,299.896523 217.086662,302.041482 L216.776784,302.142952 C209.94179,304.304354 201.954214,301.780808 195.595604,294.141485 L195.501,294.026 L195.593255,293.953285 C199.417199,290.967452 203.818447,288.418089 207.858704,287.103113 C213.853194,285.152096 218.261064,285.950429 221.507266,289.952705 L221.700517,290.196523 Z" id="Path" fill="#B5C6DA" fill-rule="nonzero"></path>
                    <path d="M180.864431,294.206259 C182.237268,291.580383 185.478865,290.564594 188.104741,291.937431 C190.730617,293.310268 191.746406,296.551865 190.373569,299.177741 C184.351676,310.696039 179.896973,327.370436 181.79017,338.731086 C182.277238,341.653871 180.302699,344.418102 177.379914,344.90517 C174.457129,345.392238 171.692898,343.417699 171.20583,340.494914 C168.850124,326.35885 173.861361,307.60129 180.864431,294.206259 Z" id="Path" fill="#B5C6DA" fill-rule="nonzero"></path>
                    <path d="M182.194776,293.611596 C184.192613,291.42332 187.586128,291.268938 189.774404,293.266776 C196.791467,299.673165 199.778753,315.044741 200.31723,337.209925 L200.333753,337.927285 C200.685185,354.060737 199.503894,373.182082 197.887114,382.880247 C197.399863,385.803001 194.635507,387.777366 191.712753,387.290114 C188.789999,386.802863 186.815634,384.038507 187.302886,381.115753 L187.440316,380.258552 C188.849191,371.130642 189.899375,353.743217 189.620531,338.878225 L189.605997,338.160965 C189.189033,319.019063 186.581249,305.133128 182.669041,301.313493 L182.539596,301.191224 C180.35132,299.193387 180.196938,295.799872 182.194776,293.611596 Z" id="Path" fill="#B5C6DA" fill-rule="nonzero"></path>
                    <path d="M0.522,875.587 C0.522,842.647 21.688,838.627 56.186,827.347 C73.083,821.817 90.327,816.987 107.824,814.097 C118.82,812.267 121.774,821.937 141.088,821.937 C158.312,821.937 179.801,813.407 184.25,811.557 C184.809,811.327 185.47,811.127 185.914,811.537 C186.022,811.637 186.112,811.757 186.179,811.887 C188.236,816.117 199.032,839.167 199.032,857.607 C199.032,871.717 200.24,885.587 196.349,892.757 C194.593,895.997 183.632,897.757 179.952,897.757 L6.49,897.757 C3.194,897.757 0.522,878.887 0.522,875.587 Z" id="Path" fill="#DEDEDE" fill-rule="nonzero"></path>
                    <g id="Clipped" transform="translate(0.000000, 807.267000)">
                        <mask id="mask-2" fill="white">
                            <use xlink:href="#path-1"></use>
                        </mask>
                        <g id="Path"></g>
                        <g id="Group" mask="url(#mask-2)" fill-rule="nonzero">
                            <g transform="translate(-26.000000, -2.000000)" id="Path">
                                <path d="M51.738,47.79 C35.106,47.79 30.457,38.13 28.668,36.52 C25.449,40.28 28.132,55.41 25.986,62.28 C23.84,69.14 26.88,75.87 28.668,78.37 L234.689,78.37 C235.583,64.06 228.303,15.11 221.276,16.67 C201.962,20.96 158.504,19.35 149.384,18.82 C142.087,18.39 106.642,27.58 89.831,32.23 C91.977,34.38 95.518,45.32 96.805,50.47 C98.415,56.91 98.951,56.91 93.05,58.52 C87.148,60.13 86.075,47.79 79.637,47.79 L51.738,47.79 Z" fill="#E9EAEB"></path>
                                <path d="M184.792,12.38 C197.669,11.52 208.399,4.51 212.691,0.58 C216.983,4.87 227.606,16.67 225.031,20.96 C221.812,26.33 197.132,30.62 186.402,30.62 C175.671,30.62 168.697,13.45 184.792,12.38 Z" fill="#CDC7BB"></path>
                                <path d="M121.484,76.23 C94.122,75.15 70.516,81.59 40.471,75.15 C-13.1804,69.25 14.384,72.76 0.769,98.85 L211.172,98.85 C232.006,93.93 238.919,63.57 223.422,66.03 C189.622,71.4 142.42,77.05 121.484,76.23 Z" fill="#CDC7BB"></path>
                                <path d="M231.47,75.15 C224.173,78.16 125.24,78.37 122.021,76.23 C129.532,74.62 184.813,68.35 197.133,67.64 C215.911,66.57 223.064,65.14 231.47,65.5 C234.51,67.64 238.766,72.15 231.47,75.15 Z" fill="#DEDEDE"></path>
                            </g>
                        </g>
                    </g>
                    <path d="M102.713748,811.639234 C103.628562,810.135682 105.55169,809.621763 107.085962,810.437609 L111.933456,813.241885 C112.181354,813.387584 112.39492,813.514531 112.557988,813.613748 C118.583893,817.28012 121.858765,820.601032 121.858765,825.237 C121.858765,827.298578 119.998267,828.840599 117.996085,828.494491 L117.813726,828.457787 L94.212,823.033 L101.108771,832.037697 C103.00793,834.517641 100.727095,837.967829 97.7473013,837.268869 L97.5810602,837.225736 L74.191,830.574 L79.3493452,835.69074 C80.5971561,836.928491 80.6512241,838.914653 79.5057534,840.21717 L79.36826,840.364345 C78.1305086,841.612156 76.1443472,841.666224 74.8418299,840.520753 L74.6946548,840.38326 L60.4296548,826.23326 C58.0469154,823.869729 60.2958122,819.913471 63.4918715,820.664363 L63.6609398,820.708264 L89.8,828.141 L83.3862291,819.766303 C81.5383975,817.353383 83.6512881,813.970582 86.5834489,814.501924 L86.7502742,814.536213 L110.174,819.92 L110.130738,819.891722 C109.916803,819.753589 109.69612,819.613975 109.468682,819.472918 L109.122456,819.260252 C108.094434,818.634767 104.478601,816.581434 103.819234,816.180252 C102.259995,815.231556 101.765052,813.198473 102.713748,811.639234 Z" id="Path" fill="#CDC7BB" fill-rule="nonzero"></path>
                    <path d="M99.604,783.312235 C95.4786335,783.312235 92.1178679,785.034157 89.7971212,788.205275 C87.5719874,791.237178 86.384235,795.487104 86.384235,800.387 C86.384235,804.898862 89.0691108,808.960075 93.6525008,812.0165 C97.7218897,814.719053 102.939337,816.341765 107.315,816.341765 C109.4023,816.341765 110.932514,815.971552 112.024976,815.221823 C113.053616,814.506329 113.707332,813.470419 114.088809,812.014784 C114.398214,810.834326 114.529982,809.403543 114.551002,807.396558 L114.553043,806.329167 L114.480626,801.559077 L114.474765,800.387 C114.474765,790.595726 108.07266,783.312235 99.604,783.312235 Z M99.604,789.921765 C104.219012,789.921765 107.865235,794.069968 107.865235,800.387 L107.871298,801.614109 L107.941016,806.029079 C107.944286,806.36727 107.945231,806.662879 107.944252,806.96634 L107.942271,807.279395 C107.932431,808.29832 107.890389,809.072547 107.820468,809.639487 L107.809,809.719 L107.706711,809.724881 C107.586699,809.729651 107.456204,809.732235 107.315,809.732235 C104.260118,809.732235 100.31043,808.503817 97.3142894,806.514033 C94.4232878,804.586167 92.993765,802.423833 92.993765,800.387 C92.993765,796.807599 93.8002888,793.921765 95.1282518,792.112309 C96.2125888,790.630653 97.5961624,789.921765 99.604,789.921765 Z" id="Path" fill="#CDC7BB" fill-rule="nonzero"></path>
                    <path d="M121.47217,807.380906 C122.975833,804.002832 125.691935,802.780935 127.938744,803.777792 C128.814171,804.169315 129.191506,804.633673 129.368639,805.427081 C129.639972,806.635935 129.381107,808.432105 128.463309,810.492018 C128.133514,811.232047 127.038885,811.922738 125.021474,812.256573 L124.653812,812.310371 C122.923867,812.534411 121.008298,812.382521 119.452563,811.952386 L119.382,811.931 L119.770917,811.065986 L120.14,810.268 L120.144536,810.26319 L121.066206,808.281227 L121.47217,807.380906 Z M112.595085,815.244135 L112.644,815.327 L112.778234,815.536651 C113.326445,816.323913 114.237607,816.971981 115.516517,817.549188 C118.499956,818.877255 122.527241,819.362067 126.094606,818.778401 C130.126715,818.111185 133.155738,816.199926 134.500578,813.182236 C135.962111,809.901957 136.425438,806.687106 135.818536,803.983232 C135.188621,801.16173 133.42449,798.990743 130.628175,797.740181 C124.969387,795.229492 118.561747,798.033099 115.573077,804.388818 L114.947106,805.768523 L114.575,806.569 L114.561841,806.585947 L113.664497,808.526505 C113.572083,808.729661 113.489193,808.914414 113.410196,809.093552 C112.757585,810.56568 112.380264,811.648985 112.226132,812.596255 C112.140353,813.13475 112.129258,813.610235 112.190153,814.045199 L112.215709,814.198596 C112.238146,814.323689 112.258171,814.393222 112.33827,814.671352 L112.467814,814.990874 C112.511142,815.09209 112.543226,815.155027 112.595085,815.244135 Z" id="Path" fill="#CDC7BB" fill-rule="nonzero"></path>
                    <path d="M438.495,875.587 C438.495,842.647 417.329,838.627 382.83,827.337 C365.933,821.817 348.689,816.987 331.192,814.087 C320.197,812.267 317.243,821.937 297.928,821.937 C280.704,821.937 259.216,813.407 254.766,811.557 C254.208,811.327 253.546,811.127 253.103,811.537 C252.995,811.637 252.904,811.757 252.837,811.887 C250.78,816.117 239.985,839.167 239.985,857.607 C239.985,871.717 238.777,885.587 242.667,892.757 C244.423,895.997 255.384,897.757 259.065,897.757 L432.526,897.757 C435.822,897.757 438.495,878.887 438.495,875.587 Z" id="Path" fill="#DEDEDE" fill-rule="nonzero"></path>
                    <g id="Clipped" transform="translate(239.000000, 807.267000)">
                        <mask id="mask-4" fill="white">
                            <use xlink:href="#path-3"></use>
                        </mask>
                        <g id="Path"></g>
                        <g id="Group" mask="url(#mask-4)" fill-rule="nonzero">
                            <g transform="translate(-10.000000, -2.000000)" id="Path">
                                <path d="M184.278,47.79 C200.91,47.79 205.56,38.13 207.348,36.52 C210.567,40.28 207.885,55.41 210.031,62.28 C212.177,69.14 209.137,75.87 207.348,78.37 L3.296,78.37 C2.402,64.06 13.064,14.38 15.1,15.06 C37.633,22.57 75.726,18.82 84.847,18.28 C92.143,17.85 129.375,27.58 146.186,32.23 C144.04,34.38 140.499,45.32 139.211,50.47 C137.602,56.91 137.065,56.91 142.967,58.52 C148.868,60.13 149.941,47.79 156.379,47.79 L184.278,47.79 Z" fill="#E9EAEB"></path>
                                <path d="M51.224,12.38 C38.348,11.52 27.618,4.51 23.326,0.58 C19.033,4.87 8.411,16.67 10.986,20.96 C14.205,26.33 38.884,30.62 49.615,30.62 C60.345,30.62 67.32,13.45 51.224,12.38 Z" fill="#CDC7BB"></path>
                                <path d="M114.532,76.22 C141.894,75.15 165.501,81.59 195.546,75.15 C249.197,69.25 221.633,72.76 235.247,98.85 L24.844,98.85 C4.01,93.93 -2.902,63.57 12.595,66.03 C46.395,71.4 93.597,77.05 114.532,76.22 Z" fill="#CDC7BB"></path>
                                <path d="M4.547,75.15 C11.843,78.16 110.776,78.37 113.995,76.23 C106.484,74.62 51.203,68.35 38.883,67.64 C20.106,66.57 12.952,65.14 4.547,65.5 C1.506,67.64 -2.75,72.15 4.547,75.15 Z" fill="#DEDEDE"></path>
                            </g>
                        </g>
                    </g>
                    <path d="M331.762234,810.533748 C333.321473,809.585052 335.354556,810.079995 336.303252,811.639234 C337.251948,813.198473 336.757005,815.231556 335.197766,816.180252 L330.531782,818.881744 C330.271308,819.034342 330.051906,819.164355 329.893768,819.260566 L329.211426,819.683722 L328.843,819.919 L352.266747,814.536209 C355.229227,813.855325 357.431127,817.181977 355.730546,819.629608 L355.630097,819.767182 L349.219,828.133 L375.356907,820.708023 C378.584866,819.791015 380.929556,823.690295 378.70848,826.107444 L378.587345,826.23326 L364.322345,840.38326 C363.026542,841.668617 360.934097,841.660149 359.64874,840.364345 C358.410989,839.116534 358.372999,837.13 359.528975,835.836797 L359.667655,835.69074 L364.83,830.569 L341.434093,837.215977 C338.42927,838.069596 336.060184,834.679157 337.806622,832.165529 L337.907903,832.026818 L344.798,823.034 L321.202253,828.457791 C319.193067,828.919574 317.273491,827.451771 317.162312,825.422946 L317.157235,825.237 C317.157235,820.699714 320.294316,817.422212 326.077472,813.847542 L326.738818,813.445494 C328.10068,812.635002 331.254948,810.842399 331.762234,810.533748 Z" id="Path" fill="#CDC7BB" fill-rule="nonzero"></path>
                    <path d="M339.413,783.312235 C331.045157,783.312235 324.694959,790.423342 324.54495,800.038386 L324.535213,801.676371 C324.528716,802.273325 324.517377,802.945157 324.499837,803.863921 L324.499235,803.967 L324.46553,806.099405 C324.462841,806.409196 324.462303,806.693292 324.463252,806.98766 C324.469072,809.211066 324.597139,810.756792 324.929046,812.018041 C325.309668,813.470419 325.963384,814.506329 326.974766,815.209899 C328.084486,815.971552 329.6147,816.341765 331.702,816.341765 C336.08353,816.341765 341.30204,814.715546 345.364501,812.006499 C349.944128,808.965056 352.632765,804.901547 352.632765,800.387 C352.632765,795.485167 351.444167,791.226026 349.217252,788.191691 C346.891129,785.029415 343.53305,783.312235 339.413,783.312235 Z M339.413,789.921765 C341.420142,789.921765 342.806089,790.63048 343.890883,792.105215 C345.215233,793.909741 346.023235,796.805083 346.023235,800.387 C346.023235,802.423828 344.594083,804.583796 341.702691,806.504046 C338.705982,808.502391 334.759431,809.732235 331.702,809.732235 L331.402267,809.728043 L331.206,809.719 L331.195916,809.638909 C331.126476,809.07766 331.084755,808.314106 331.074866,807.311467 L331.074558,806.194754 C331.078764,805.650427 331.089304,805.008958 331.108152,804.030658 L331.108765,803.927 L331.146002,801.590618 C331.149969,801.183496 331.151765,800.799155 331.151765,800.387 C331.151765,794.069968 334.797988,789.921765 339.413,789.921765 Z" id="Path" fill="#CDC7BB" fill-rule="nonzero"></path>
                    <path d="M308.395744,797.736208 C305.594526,798.988947 303.829709,801.156195 303.19594,803.971115 C302.590584,806.6893 303.052004,809.890925 304.512935,813.178894 C305.859262,816.199926 308.888285,818.111185 312.914474,818.777427 C316.482216,819.36116 320.508012,818.869801 323.482426,817.546384 L323.768106,817.415743 C325.071325,816.799474 325.955478,816.089101 326.433688,815.219628 L326.232,815.108 L326.607,814.855 L326.66473,814.706231 L326.776969,814.304494 C326.802919,814.201116 326.81026,814.146548 326.826775,814.02377 C326.888006,813.648203 326.877233,813.150989 326.790636,812.607236 C326.646728,811.722696 326.314154,810.731602 325.748501,809.421871 L325.101089,807.984175 L323.758897,805.091875 L323.58117,804.693094 C320.656858,798.123442 314.135435,795.189639 308.395744,797.736208 Z M317.54283,807.380906 L317.819465,807.996274 L319.438083,811.492115 L319.629,811.923 L319.560766,811.943538 C317.886066,812.409069 315.807379,812.553337 313.987606,812.255599 C311.976115,811.922738 310.881486,811.232047 310.551578,810.491764 C309.632289,808.42281 309.374432,806.633634 309.64574,805.415381 C309.821413,804.635161 310.200716,804.169365 311.085175,803.773819 C313.323065,802.780935 316.039167,804.002832 317.54283,807.380906 Z" id="Path" fill="#CDC7BB" fill-rule="nonzero"></path>
                    <path d="M262.38371,12.9907795 L283.75829,14.9092205 C281.41291,41.0406012 276.485603,61.3716923 266.729329,79.2471494 C254.84047,101.029932 236.272496,117.459559 209.732492,128.205836 L208.90052,128.539807 L205.161471,130.027775 L201.366076,128.690045 C168.004663,116.931439 147.569625,97.2774514 135.776853,70.4416639 C132.809954,63.6901506 130.455863,56.6829448 128.321755,48.711703 L128.000573,47.4990747 C127.416139,45.2686135 126.851187,42.980458 126.227945,40.3459693 L123.849874,30.1180519 L123.595081,29.0556414 C122.76034,25.605651 122.06616,23.0523942 121.357775,20.8845525 L121.251391,20.562203 L141.610609,13.775797 C142.572296,16.6608567 143.429639,19.7831383 144.42501,23.8901165 L145.177008,27.0689874 C145.780162,29.6609001 146.664271,33.4972723 146.779722,33.9915363 L147.421268,36.7034761 C147.988737,39.0677209 148.508277,41.1301308 149.052163,43.1616363 C150.923974,50.1531554 152.941651,56.1589895 155.42401,61.8078777 C164.320847,82.053638 178.993232,96.8607215 203.691014,106.6518 L204.698,107.045 L204.748432,107.023621 C224.78446,98.2826065 238.505426,85.8523139 247.558744,69.570637 L247.891921,68.9658506 C255.754275,54.560435 260.019269,37.5005806 262.189306,15.0760519 L262.38371,12.9907795 Z" id="Path" fill="#C4D2E2" fill-rule="nonzero"></path>
                </g>
                <g id="upper-limb" transform="translate(0.284046, 458.042000)" fill-rule="nonzero">
                    <rect id="Rectangle" fill="#EED1C9" x="280.191954" y="2.55795385e-13" width="83.9125" height="125.94" rx="41.95625"></rect>
                    <path d="M358.532917,48.9343255 C360.027772,45.3842188 364.117521,43.7181083 367.667628,45.2129633 C371.217735,46.7078184 372.883845,50.7975679 371.38899,54.3476745 C365.745725,67.7497725 343.498559,76.32065 319.356954,76.32065 C297.51911,76.32065 278.961011,66.499214 274.663306,53.8913327 C273.420482,50.2453436 275.368632,46.2821773 279.014621,45.0393528 C282.583036,43.8229715 286.455274,45.6632228 287.783606,49.1602648 L287.866601,49.3906673 C288.626803,51.6208205 291.732878,54.7397722 296.531664,57.2794161 C302.600963,60.4914495 310.45675,62.37135 319.356954,62.37135 C338.298351,62.37135 355.316794,55.887848 358.442464,49.1389135 L358.532917,48.9343255 Z" id="Path" fill="#37383A"></path>
                    <rect id="Rectangle" fill="#FFDD64" x="311.309954" y="61.298" width="21.4605" height="16.0954" rx="8.0477"></rect>
                    <path d="M528.060954,195.426 C517.759954,154.222 495.153954,102.431 485.139954,81.686 L485.139954,268.392 C503.738954,261.239 538.361954,236.631 528.060954,195.426 Z" id="Path" fill="#E3E9EC"></path>
                    <path d="M354.766954,150.359 C366.033954,129.972 390.701954,87.86 390.701954,47.349 C390.701954,47.349 391.001954,48.635 439.113954,58.011 C487.226954,67.386 486.212954,87.051 486.212954,87.051 C495.913954,103.185 483.472954,190.288 486.211954,282.625 C488.950954,374.963 486.211954,387.498 486.211954,429.346 C463.153954,436.751 436.281954,451.582 378.903954,457.245 C378.903954,446.498 374.487954,430.619 374.077954,418.477 C367.372954,378.828 364.960954,329.018 361.741954,282.625 C359.493954,250.229 354.766954,188.452 354.766954,150.359 Z" id="Path" fill="#EBF4F9"></path>
                    <path d="M354.229954,152.505 L377.836954,33.936 L400.906954,40.91 L417.001954,53.25 C405.198954,87.05 402.515954,117.632 408.417954,151.432 C391.785954,139.629 363.171954,147.855 354.229954,152.505 Z" id="Path" fill="#F7FAFF"></path>
                    <path d="M550.485218,123.85446 C557.418899,103.0528 579.902835,91.810583 600.704494,98.7442643 C621.506153,105.677946 632.74837,128.161881 625.814689,148.96354 L625.025194,151.32198 C613.86748,184.509271 603.83033,208.22326 592.587676,228.076448 L592.190372,228.775554 C582.337137,246.052175 573.704287,257.669986 555.427066,279.754814 C541.447184,296.647057 516.420383,299.007993 499.52814,285.028112 C482.635896,271.048231 480.27496,246.021429 494.254841,229.129186 L497.346128,225.380683 C510.532825,209.326317 516.544615,201.07789 522.974215,189.859788 L523.215535,189.437696 C531.9831,174.064685 540.396122,154.122643 550.485218,123.85446 Z" id="Path" fill="#F6DDD6"></path>
                    <path d="M611.802954,72.664 C613.411954,65.13 608.608954,57.718 601.074954,56.109 C593.540954,54.5 586.128954,59.303 584.519954,66.837 L611.802954,72.664 Z M646.466954,88.502 C651.214954,82.435 650.145954,73.668 644.078954,68.92 C638.011954,64.172 629.244954,65.241 624.496954,71.307 L646.466954,88.502 Z M601.789954,118.929 C602.898954,114.237 608.957954,85.984 611.802954,72.664 L584.519954,66.837 C581.619954,80.414 575.656954,108.205 574.639954,112.51 L601.789954,118.929 Z M609.853954,131.586 C622.450954,121.079 630.066954,109.456 646.466954,88.502 L624.496954,71.307 C606.278954,94.585 601.574954,102.162 591.984954,110.161 L609.853954,131.586 Z" id="Shape" fill="#F6DDD6"></path>
                    <path d="M549.519954,140.702 C519.474954,178.258 524.646954,176.112 505.526954,206.157 C495.511954,221.895 471.888954,249.647 483.906954,282.267 C498.928954,323.042 530.207954,315.069 553.276954,303.266 C579.660954,289.767 608.537954,242.64 618.194954,160.017 C577.419954,160.017 572.053954,149.286 549.519954,140.702 Z" id="Path" fill="#F2F7FA"></path>
                    <path d="M524.840954,167.142 L545.792954,131.045 C558.362954,146.15 605.078954,159.48 624.632954,159.48 C621.949954,167.142 618.730954,184.696 614.438954,194.89 C579.345954,194.89 545.792954,181.581 524.840954,167.142 Z" id="Path" fill="#E4EBEF"></path>
                    <path d="M121.370954,195.426 C131.671954,154.222 154.276954,102.431 164.291954,81.686 L164.291954,268.392 C145.692954,261.239 111.069954,236.631 121.370954,195.426 Z" id="Path" fill="#E3E9EC"></path>
                    <path d="M294.663954,150.359 C283.397954,129.972 258.728954,87.86 258.728954,47.349 C258.728954,47.349 258.428954,48.635 210.316954,58.011 C162.204954,67.386 163.218954,87.051 163.218954,87.051 C153.517954,103.185 165.957954,190.288 163.218954,282.625 C160.479954,374.963 163.218954,387.498 163.218954,429.346 C186.277954,436.751 213.148954,451.582 270.527954,457.245 C270.527954,446.498 274.943954,430.619 275.353954,418.477 C282.057954,378.828 284.470954,329.018 287.689954,282.625 C289.936954,250.229 294.663954,188.452 294.663954,150.359 Z" id="Path" fill="#EBF4F9"></path>
                    <path d="M295.201954,152.505 L271.595954,33.936 L248.525954,40.91 L232.429954,53.25 C244.233954,87.05 246.915954,117.632 241.013954,151.432 C257.645954,139.629 286.259954,147.855 295.201954,152.505 Z" id="Path" fill="#F7FAFF"></path>
                    <path d="M48.7268122,98.7443646 C69.528416,91.8105172 92.0124416,103.052555 98.946289,123.854159 L99.949716,126.846778 C109.375177,154.789357 117.365864,173.692533 125.632427,188.406171 L126.21643,189.437885 C133.221242,201.72025 139.619434,210.330986 155.176548,229.129769 C169.156107,246.022279 166.794694,271.049036 149.902184,285.028595 C133.009674,299.008154 107.982918,296.64674 94.0033586,279.754231 L90.9112297,276.005168 C74.7187911,256.299201 66.5215019,245.047304 57.2413772,228.775365 L56.4477848,227.373953 C45.1014363,207.194616 34.9608801,182.995528 23.6170181,148.963841 C16.6831707,128.162238 27.9252084,105.678212 48.7268122,98.7443646 Z" id="Path" fill="#F6DDD6"></path>
                    <path d="M37.6289535,72.664 C36.0198535,65.13 40.8229535,57.718 48.3570535,56.109 C55.8911535,54.5 63.3031535,59.303 64.9123535,66.837 L37.6289535,72.664 Z M2.96495352,88.502 C-1.78321648,82.435 -0.714216475,73.668 5.35265352,68.92 C11.4194535,64.172 20.1868535,65.241 24.9349535,71.307 L2.96495352,88.502 Z M47.6419535,118.929 C46.5326535,114.237 40.4738535,85.984 37.6289535,72.664 L64.9123535,66.837 C67.8121535,80.414 73.7744535,108.205 74.7922535,112.51 L47.6419535,118.929 Z M39.5780535,131.586 C26.9803535,121.079 19.3645535,109.456 2.96495352,88.502 L24.9349535,71.307 C43.1527535,94.585 47.8566535,102.162 57.4470535,110.161 L39.5780535,131.586 Z" id="Shape" fill="#F6DDD6"></path>
                    <path d="M99.9119535,140.701 C129.955954,178.257 124.784954,176.111 143.904954,206.156 C153.919954,221.894 177.542954,249.646 165.524954,282.266 C150.502954,323.041 119.223954,315.068 96.1549535,303.265 C69.7705535,289.766 40.8942535,242.639 31.2369535,160.016 C72.0119535,160.016 77.3780535,149.285 99.9119535,140.701 Z" id="Path" fill="#F2F7FA"></path>
                    <path d="M124.589954,167.141 L103.638954,131.044 C91.0685535,146.149 44.3530535,159.479 24.7987535,159.479 C27.4813535,167.141 30.7003535,184.695 34.9924535,194.889 C70.0855535,194.889 103.638954,181.58 124.589954,167.141 Z" id="Path" fill="#E4EBEF"></path>
                </g>
                <g id="hand" transform="translate(110.937400, 0.000034)">
                    <rect id="Rectangle" fill="#3D230C" fill-rule="nonzero" transform="translate(155.339212, 396.348325) rotate(-7.995712) translate(-155.339212, -396.348325) " x="45.2367249" y="317.986318" width="220.204974" height="156.724015" rx="78.362"></rect>
                    <path d="M362.6836,446.373966 C370.3556,434.723966 361.9676,366.254966 349.8066,340.144966 L262.8916,452.811966 C262.8916,469.980966 266.1106,477.491966 297.2286,477.491966 C326.1006,477.491966 348.1976,468.370966 362.6836,446.373966 Z" id="Path" fill="#3D230C" fill-rule="nonzero"></path>
                    <ellipse id="Oval" fill="#EBBAAA" fill-rule="nonzero" cx="63.4006" cy="313.508966" rx="63.4006" ry="60.1715"></ellipse>
                    <ellipse id="Oval" fill="#EBBAAA" fill-rule="nonzero" cx="357.9046" cy="314.135966" rx="63.4006" ry="60.1715"></ellipse>
                    <path d="M50.4326,199.145966 C50.4326,111.676966 119.3716,40.7694656 204.4116,40.7694656 C289.4526,40.7694656 358.3906,111.676966 358.3906,199.145966 L358.3906,356.670966 C345.9736,458.848966 271.4676,515.046966 204.4116,515.046966 C137.3566,515.046966 59.5386,446.927966 50.4326,356.670966 L50.4326,199.145966 Z" id="Path" fill="#F6DDD6" fill-rule="nonzero"></path>
                    <path d="M163.1016,394.321966 L163.1016,408.825966 C163.1016,431.103966 181.1616,449.163966 203.4396,449.163966 C225.7176,449.163966 243.7776,431.103966 243.7776,408.825966 L243.7776,394.321966 L163.1016,394.321966 Z" id="Path" fill="#393939"></path>
                    <g id="Clipped" transform="translate(163.062600, 390.999966)">
                        <mask id="mask-6" fill="white">
                            <use xlink:href="#path-5"></use>
                        </mask>
                        <g id="Path"></g>
                        <g id="Group" mask="url(#mask-6)" fill-rule="nonzero">
                            <g transform="translate(0.000000, 3.000000)">
                                <ellipse id="Oval" fill="#FF6C6C" cx="40.376" cy="54.854" rx="24.326" ry="13.2483"></ellipse>
                                <rect id="Rectangle" fill="#FFFFFF" x="0.038" y="0.32" width="80.6761" height="16.6374"></rect>
                            </g>
                        </g>
                    </g>
                    <path d="M72.2596,220.649966 C80.8436,189.746966 108.7426,150.545966 123.7646,134.807966 C138.7866,119.069966 180.9836,104.256966 193.1436,101.395966 C193.1436,91.3807656 193.1436,49.3538656 145.9306,67.5959656 C111.9006,80.7446656 91.5736,61.8423656 50.7986,134.807966 C10.0236,207.773966 56.8706,418.474966 59.0166,349.801966 C61.1626,281.127966 61.5286,259.278966 72.2596,220.649966 Z" id="Path" fill="#3D230C" fill-rule="nonzero"></path>
                    <path d="M98.3086,158.868966 C123.0986,122.244966 142.9466,110.416966 176.8986,85.8368656 C181.7756,90.0911656 193.6056,101.527966 218.3606,116.417966 C185.5416,126.627966 130.1406,157.450966 84.1626,246.790966 C79.9186,215.592966 84.3906,179.430966 98.3086,158.868966 Z" id="Path" fill="#3D230C" fill-rule="nonzero"></path>
                    <path d="M181.8286,25.3389656 C220.8286,7.39520559 311.6966,45.6594656 357.3186,135.195966 C357.3186,135.195966 369.2256,170.666966 385.2166,204.942966 C390.5106,216.288966 393.6576,248.499966 395.5146,279.992966 C398.1876,325.348966 374.7536,367.835966 336.3936,392.185966 C336.3936,392.185966 324.0546,288.638966 277.9136,231.767966 C238.1146,182.712966 187.1386,142.439966 171.1246,121.278966 C167.2486,116.156966 163.2356,110.151966 162.4976,103.770966 C160.4596,86.1616656 170.6826,48.9602656 181.8286,25.3389656 Z" id="Path" fill="#543415" fill-rule="nonzero"></path>
                    <path d="M224.7996,198.930966 C208.1676,169.422966 184.0246,136.268966 166.3196,114.808966 C173.6516,114.808966 179.7326,103.861966 201.1926,124.892966 C228.0186,151.181966 228.5546,165.667966 224.7996,198.930966 Z" id="Path" fill="#543415" fill-rule="nonzero"></path>
                    <path d="M163.05816,241.355963 C166.906482,241.187826 170.162465,244.171204 170.330603,248.019526 C170.495237,251.787674 167.638301,254.987907 163.906413,255.277461 L163.66704,255.291968 L102.19004,257.977968 C98.3417184,258.146106 95.085735,255.162727 94.9175975,251.314406 C94.7529628,247.546257 97.6098989,244.346024 101.341787,244.05647 L101.58116,244.041963 L163.05816,241.355963 Z" id="Path" fill="#62360D" fill-rule="nonzero"></path>
                    <path d="M145.727905,283.489616 C148.654655,283.02697 151.402303,285.024521 151.864949,287.951271 C152.316029,290.804852 150.428384,293.488174 147.621035,294.049365 L147.403295,294.088315 L118.499295,298.657315 C115.572545,299.119961 112.824897,297.12241 112.362251,294.19566 C111.911171,291.342079 113.798816,288.658757 116.606165,288.097566 L116.823905,288.058616 L145.727905,283.489616 Z" id="Path" fill="#000000" fill-rule="nonzero"></path>
                    <path d="M251.284284,285.152064 C251.735475,282.2985 254.358812,280.328342 257.202365,280.660531 L257.421502,280.690649 L286.324502,285.260649 C289.251233,285.72341 291.248677,288.471136 290.785916,291.397867 C290.334725,294.251431 287.711388,296.221589 284.867835,295.8894 L284.648698,295.859282 L255.745698,291.289282 C252.818967,290.826522 250.821523,288.078795 251.284284,285.152064 Z" id="Path" fill="#000000" fill-rule="nonzero"></path>
                    <path d="M141.0926,275.912666 C148.100921,275.912666 153.801518,281.511693 153.965281,288.480637 L153.9689,288.788966 L153.9689,319.668966 C153.9689,326.78035 148.203984,332.545266 141.0926,332.545266 C134.084279,332.545266 128.383682,326.946238 128.219919,319.977294 L128.2163,319.668966 L128.2163,288.788966 C128.2163,281.677581 133.981216,275.912666 141.0926,275.912666 Z" id="Path" fill="#000000" fill-rule="nonzero"></path>
                    <path d="M263.232017,273.113666 C270.240338,273.113666 275.940754,278.713105 276.104291,285.682054 L276.1079,285.990383 L276.1069,316.870383 C276.10667,323.981767 270.341567,329.746266 263.230183,329.746266 C256.221862,329.746266 250.521446,324.146826 250.357909,317.177877 L250.3543,316.869549 L250.3553,285.989549 C250.35553,278.878164 256.120633,273.113666 263.232017,273.113666 Z" id="Path" fill="#000000" fill-rule="nonzero"></path>
                    <path d="M233.238975,245.90191 C233.469377,242.137211 236.645374,239.253355 240.387078,239.35573 L240.626655,239.366341 L302.047655,243.125341 C305.892455,243.360645 308.818529,246.668222 308.583225,250.513021 C308.352823,254.27772 305.176826,257.161576 301.435122,257.059201 L301.195545,257.04859 L239.774545,253.28959 C235.929745,253.054286 233.003671,249.746709 233.238975,245.90191 Z" id="Path" fill="#62360D" fill-rule="nonzero"></path>
                    <path d="M189.953435,318.793691 L208.025765,321.27224 L207.812078,322.736242 C207.443784,325.085594 206.970368,327.193287 205.726146,332.233138 L204.509658,337.145493 C204.335153,337.860182 204.181972,338.498748 204.035946,339.121188 L203.963464,339.431342 C202.264785,346.728414 201.770705,351.424263 202.414149,354.107197 C202.516291,354.533094 202.628764,354.815702 202.730446,354.981704 C202.764771,355.037742 202.775016,355.048917 202.806564,355.071815 C202.93378,355.164155 203.174875,355.276237 203.595705,355.389826 C204.22387,355.559379 205.053593,355.667862 206.093987,355.687863 L206.4486,355.691216 L206.4486,373.932716 C194.887175,373.932716 187.044942,368.240474 184.675657,358.361395 C183.229159,352.330017 183.821286,345.842346 185.903832,336.576469 L186.197003,335.295502 C186.379794,334.510281 186.567117,333.72653 186.782855,332.842711 L188.516293,325.817878 C189.269462,322.709625 189.590058,321.195407 189.829055,319.649698 L189.953435,318.793691 Z" id="Path" fill="#EBBAAA" fill-rule="nonzero"></path>
                    <path d="M173.4636,78.5524656 C124.0266,78.5524656 94.6706,90.9130656 69.4566,103.812966 C61.0526,93.0632656 49.4696,57.2548656 89.4166,35.5522656 C173.4636,-10.1082344 255.9706,-13.5618344 333.7126,35.5522656 C394.1206,73.7146656 428.7516,201.102966 391.4556,246.790966 C384.1016,225.290966 376.8616,204.327966 362.5666,188.016966 C291.1276,106.502966 212.8596,78.5524656 173.4636,78.5524656 Z" id="Path" fill="#B82E36" fill-rule="nonzero"></path>
                </g>
            </g>
        </g>
    </g>
</svg>