<?xml version="1.0" encoding="UTF-8"?>
<svg width="545px" height="1330px" viewBox="0 0 545 1330" version="1.1" xmlns="http://www.w3.org/2000/svg" xmlns:xlink="http://www.w3.org/1999/xlink">
    <!-- Generator: Sketch 55.2 (78181) - https://sketchapp.com -->
    <title>gee_me_082</title>
    <desc>Created with Sketch.</desc>
    <defs>
        <path d="M0.09,0 C0.03,1.021 0,2.051 0,3.081 L0,22.367 C0,51.44 24.629,75 54.999,75 C85.378,75 109.997,51.44 109.997,22.367 L109.997,3.081 C109.997,2.051 109.967,1.021 109.907,0 L0.09,0 Z" id="path-1"></path>
    </defs>
    <g id="GEE!-ME" stroke="none" stroke-width="1" fill="none" fill-rule="evenodd">
        <g id="gee_me_082" transform="translate(-320.000000, -135.000000)">
            <g transform="translate(320.000000, 135.000000)">
                <g id="lower-limb" transform="translate(102.000000, 762.000000)" fill-rule="nonzero">
                    <path d="M234,374 L234,524 C234,538.911688 246.088312,551 261,551 C275.911688,551 288,538.911688 288,524 L288,374 C288,359.088312 275.911688,347 261,347 C246.088312,347 234,359.088312 234,374 Z" id="Path" fill="#EBBAAA"></path>
                    <path d="M130,374 L130,524 C130,538.911688 142.088312,551 157,551 C171.911688,551 184,538.911688 184,524 L184,374 C184,359.088312 171.911688,347 157,347 C142.088312,347 130,359.088312 130,374 Z" id="Path" fill="#EBBAAA"></path>
                    <g id="Group-265" transform="translate(27.000000, 0.000000)">
                        <path d="M0,428.5 L49.712,0 L105.39,0 C121.298,124.145 108.174,443.72 87.494,448.52 C66.814,453.33 6.629,439.18 0,428.5 Z" id="Path" fill="#482625"></path>
                        <path d="M364,428.5 L314.288,0 L258.61,0 C242.702,124.145 255.826,443.72 276.506,448.52 C297.187,453.33 357.372,439.18 364,428.5 Z" id="Path" fill="#482625"></path>
                        <path d="M64.962,470.55 C77.887,480.56 179.387,491.24 186.016,480.56 L186.016,272.32 L169.358,25.029 L86.695,25.029 C70.787,149.174 52.037,460.54 64.962,470.55 Z" id="Path" fill="#653B3A"></path>
                        <path d="M174.988,469.54 C199.845,477.55 231.661,476.55 301.258,469.54 C301.258,469.54 288.242,368.43 282.367,254.29 C276.492,140.161 269.442,1 269.442,1 L166.04,15.016 C174.988,153.177 180.954,270.31 174.988,469.54 Z" id="Path" fill="#522F2E"></path>
                    </g>
                    <g id="Group-266" transform="translate(0.000000, 476.000000)">
                        <path d="M12.665,89.02 C12.467,66.33 15.573,52.52 35.385,43.25 C55.197,33.98 73.86,16.15 108.136,0.86 C108.136,0.86 112.648,0.01 119.992,3.97 C126.259,7.34 134.308,15.62 146.438,15.51 C159.609,15.4 171.346,12.62 178.638,8.81 C181.789,0.22 188.778,0.16 188.778,0.16 C188.778,0.16 198.619,18.81 198.782,37.54 C198.946,56.28 198.928583,87.4 198.928583,87.4 L12.665,89.02 Z" id="Rectangle-82" fill="#DCE1E6"></path>
                        <path d="M87.0386994,8.62175135 C84.949939,7.70415485 82.7325265,9.62360204 83.3413104,11.822303 L86.3025087,22.5170493 L74.4127483,18.6931494 C72.665428,18.1311887 70.8772782,19.4343618 70.87716,21.2698257 L70.876452,32.2645365 L61.9650627,27.4576489 C60.1616253,26.4848578 57.97316,27.7909249 57.97316,29.84 L57.97316,43.22 C57.97316,44.7149465 59.1850535,45.92684 60.68,45.92684 C62.1749465,45.92684 63.38684,44.7149465 63.38684,43.22 L63.38684,34.3756211 L72.2979373,39.1823511 C74.101307,40.1551057 76.2897081,38.8491726 76.28984,36.8001743 L76.2906009,24.9838644 L89.4212517,29.2068506 C91.4715339,29.8662477 93.433393,27.983312 92.8586896,25.907697 L90.0795994,15.8706574 L103.140301,21.6082486 C104.929108,22.394075 106.93584,21.0838049 106.93584,19.13 L106.933307,18.1117565 L106.923276,17.0215301 C106.880383,13.8697036 106.715688,11.7359087 106.250482,9.22571975 C105.871095,7.17859782 105.317259,5.29503222 104.551059,3.57731811 C103.942065,2.21203765 102.341599,1.59894666 100.976318,2.20794106 C99.6110376,2.81693545 98.9979467,4.41740144 99.6069411,5.78268189 C100.186473,7.08191105 100.621511,8.56145161 100.927443,10.2122229 C101.183765,11.5953019 101.335477,12.8743752 101.421445,14.377954 L101.450678,14.9529613 L87.0386994,8.62175135 Z" id="Vector-293" fill="#FFFFFF"></path>
                        <path d="M192.939,10.03 C189.113,15.2 175.316,18.3 170.125,19.05 C164.935,19.81 159.373,19.15 161.598,27.7 C163.172,33.74 178.297,31.3 184.211,31.25 C189.019,31.2 195.762,45.67 198.273,40.76 C198.273,23.95 195.089,14.85 192.939,10.03 Z" id="Vector-416" fill-opacity="0.5" fill="#3F3232"></path>
                        <path d="M20.162,44.99 C26.241,42.8 32.678,41.13 45.02,38.35 L39.775,53.38 L39.924,70.51 L4.796,70.8200392 C3.362,70.83 0.8,68.93 2.023,61.21 C3.552,51.56 11.525,48.11 20.162,44.99 Z" id="Vector-415" fill="#EAF4FB"></path>
                        <polygon id="Vector-186" fill="#3F3232" points="62.9956188 49.927462 79.3596188 80.987462 94.6863812 72.912538 78.3223812 41.852538"></polygon>
                        <polygon id="Vector-187" fill="#3F3232" points="85.5361253 38.1489216 105.145125 75.4689216 120.480875 67.4110784 100.871875 30.0910784"></polygon>
                        <polygon id="Vector-188" fill="#3F3232" points="107.586994 25.1091089 134.698994 77.6991089 150.097006 69.7608911 122.985006 17.1708911"></polygon>
                        <path d="M199.513,84.42 L198.497,66.45 L40.985,68.9 L1.711,66.03 L0.52,79.75 C0.101,84.57 3.722,88.8 8.555,89.14 L41.182,91.38 L195.256,89 C197.718,88.96 199.652,86.88 199.513,84.42 Z" id="Vector-414" fill="#C7CBCF"></path>
                    </g>
                    <g id="Group-183" transform="translate(218.000000, 476.000000)">
                        <path d="M187.335,89.28 C187.533,66.58 184.427,52.78 164.615,43.5 C144.803,34.23 126.14,16.4 91.864,1.11 C91.864,1.11 87.352,0.27 80.008,4.22 C73.741,7.6 65.692,15.87 53.562,15.77 C40.391,15.65 28.654,12.87 21.362,9.06 C18.211,0.47 11.222,0.41 11.222,0.41 C11.222,0.41 1.381,19.06 1.218,37.8 C1.054,56.53 1.0714168,87.65 1.0714168,87.65 L187.335,89.28 Z" id="Rectangle-82_2" fill="#DCE1E6"></path>
                        <path d="M107.14143,26.1572648 C106.566506,28.2323386 108.527147,30.1154415 110.577347,29.457301 L123.709399,25.2417435 L123.71016,37.0501744 C123.710292,39.0991726 125.898693,40.4051057 127.702063,39.4323511 L136.61316,34.6256211 L136.61316,43.48 C136.61316,44.9749465 137.825054,46.18684 139.32,46.18684 C140.814946,46.18684 142.02684,44.9749465 142.02684,43.48 L142.02684,30.09 C142.02684,28.0409249 139.838375,26.7348578 138.034937,27.7076489 L129.123548,32.5145366 L129.12284,21.5298256 C129.122722,19.6949793 127.335691,18.3918776 125.588653,18.952699 L113.697567,22.7698905 L116.65857,12.0827352 C117.267774,9.88393352 115.050253,7.96407069 112.961301,8.88175135 L98.5491863,15.213021 C98.6278024,13.4557936 98.7830566,12.0331296 99.0699078,10.4791298 C99.37601,8.82083892 99.8119085,7.33554002 100.393059,6.03268189 C101.002053,4.66740144 100.388962,3.06693545 99.0236819,2.45794106 C97.6584014,1.84894666 96.0579354,2.46203765 95.4489411,3.82731811 C94.680455,5.55015653 94.1256362,7.44066943 93.7461663,9.4964258 C93.1871046,12.5251099 93.06416,15.0057316 93.06416,19.39 C93.06416,21.3438049 95.0708924,22.654075 96.8596994,21.8682486 L109.919285,16.1311476 L107.14143,26.1572648 Z" id="Vector-293_2" fill="#FFFFFF"></path>
                        <path d="M7.061,10.28 C10.887,15.45 24.684,18.55 29.875,19.31 C35.065,20.07 40.627,19.4 38.402,27.95 C36.828,33.99 21.703,31.55 15.789,31.5 C10.981,31.46 4.238,45.92 1.727,41.01 C1.727,24.2 4.911,15.1 7.061,10.28 Z" id="Vector-416_2" fill-opacity="0.5" fill="#3F3232"></path>
                        <path d="M179.838,45.24 C173.759,43.05 167.322,41.39 154.98,38.6 L160.225,53.64 L160.076,70.77 L195.204,71.0701549 C196.638,71.09 199.2,69.18 197.977,61.46 C196.448,51.81 188.475,48.36 179.838,45.24 Z" id="Vector-415_2" fill="#EAF4FB"></path>
                        <polygon id="Vector-186_2" fill="#3F3232" points="121.677619 42.102538 105.313619 73.162538 120.640381 81.237462 137.004381 50.177462"></polygon>
                        <polygon id="Vector-187_2" fill="#3F3232" points="99.1281253 30.3510784 79.5191253 67.6710784 94.8548747 75.7289216 114.463875 38.4089216"></polygon>
                        <polygon id="Vector-188_2" fill="#3F3232" points="77.0146872 17.4214873 49.9026872 70.0214873 65.3013128 77.9585127 92.4133128 25.3585127"></polygon>
                        <path d="M0.487,84.68 L1.503,66.71 L159.015,69.15 L198.289,66.28 L199.48,80 C199.899,84.83 196.278,89.06 191.445,89.39 L158.818,91.64 L4.744,89.25 C2.282,89.21 0.348,87.13 0.487,84.68 Z" id="Vector-414_2" fill="#C7CBCF"></path>
                    </g>
                </g>
                <path d="M477,328 C477,328 439.008,447.376 477,552 L145,552 L145,328 L477,328 Z" id="Path" fill="#3F3232"></path>
                <g id="upper-limb" transform="translate(0.000000, 438.000000)">
                    <path d="M404.496696,141.366705 C423.086955,174.322593 438.115901,225.319984 445.938423,279.064684 C452.833418,326.436805 452.7624,369.276182 447.39209,384.890457 L447.227733,385.35526 C440.244236,404.559453 450.151068,425.78877 469.35526,432.772267 C488.559453,439.755764 509.78877,429.848932 516.772267,410.64474 C527.588364,380.901128 527.764861,327.479175 519.166827,268.406316 C510.137694,206.371584 492.646133,147.017856 468.949304,105.009295 C458.909483,87.2111989 436.342392,80.9218742 418.544295,90.9616955 C400.746199,101.001517 394.456874,123.568608 404.496696,141.366705 Z" id="Path" fill="#EBBAAA" fill-rule="nonzero"></path>
                    <path d="M388,173 C354,263 148,305 64,137" id="Path" stroke="#96CCE0" stroke-width="100" stroke-linecap="round" stroke-linejoin="bevel"></path>
                    <path d="M41.3050141,50.9596605 L29.448583,20.9830232 C26.4016408,13.2794335 17.6866128,9.50447487 9.98302316,12.551417 C2.27943351,15.5983592 -1.49552513,24.3133872 1.55141704,32.0169768 L28.051417,99.0169768 L56.1213539,98.5583954 L80.1213539,31.5583954 C82.9150285,23.759387 78.8574038,15.1723208 71.0583954,12.3786461 C63.259387,9.58497146 54.6723208,13.6425962 51.8786461,21.4416046 L41.3050141,50.9596605 Z" id="Vector-641" fill="#F6DDD6" fill-rule="nonzero"></path>
                    <ellipse id="Ellipse-74" fill="#F6DDD6" fill-rule="nonzero" cx="46.5" cy="98" rx="37.5" ry="30"></ellipse>
                    <rect id="Rectangle-285" fill="#96CCE0" fill-rule="nonzero" transform="translate(436.514742, 212.548513) rotate(-15.000000) translate(-436.514742, -212.548513) " x="351.514742" y="52.5485134" width="170" height="320" rx="85"></rect>
                    <polygon id="Vector-452" fill="#7EBFD7" fill-rule="nonzero" points="492.5 219 420 241 499 233.5"></polygon>
                    <polygon id="Vector-453" fill="#7EBFD7" fill-rule="nonzero" points="479 251 423 248 471.5 263.5"></polygon>
                    <rect id="Rectangle-286" fill="#96CCE0" fill-rule="nonzero" transform="translate(197.692457, 171.495903) rotate(15.000000) translate(-197.692457, -171.495903) " x="112.692457" y="53.9959034" width="170" height="235" rx="85"></rect>
                    <polygon id="Vector-646" fill="#7EBFD7" fill-rule="nonzero" points="199.396 148.616 125.439 132.164 197.935 164.439"></polygon>
                    <polygon id="Vector-647" fill="#7EBFD7" fill-rule="nonzero" points="171.918 169.855 124.614 139.733 159.245 177.059"></polygon>
                    <path d="M539,381 C545.4,362.6 547,298 539,268 L425,263 C437.201,301 439.201,351 448.201,400 L448.354,400.007 C469.5,401.014 531.019,403.944 539,381 Z" id="Vector-449" fill="#96CCE0" fill-rule="nonzero"></path>
                    <path d="M168.169,104.028 C164.202,76.828 182.936,51.526 210.109,47.383 L311,32 L411.891,47.383 C439.064,51.526 457.798,76.828 453.831,104.028 L441,192 L457.058,328.495 C459.156,346.33 445.221,362 427.264,362 L194.736,362 C176.778,362 162.844,346.33 164.942,328.495 L181,192 L168.169,104.028 Z" id="Rectangle-284" fill="#BEE1EE" fill-rule="nonzero"></path>
                    <path d="M274,37.911 C274,16.973 291.062,0 312,0 C332.938,0 350,16.973 350,37.911 L350,110.177 C350,117.876 347.656,125.393 343.28,131.727 L312,177 L280.72,131.727 C276.344,125.393 274,117.876 274,110.177 L274,37.911 Z" id="Path" fill="#EBBAAA" fill-rule="nonzero"></path>
                    <path d="M311,140 C349.66,140 381,108.66 381,70 C381,31.34 349.66,0 311,0 C272.34,0 241,31.34 241,70 C241,108.66 272.34,140 311,140 Z" id="Path" fill="#BEE1EE" fill-rule="nonzero"></path>
                </g>
                <g id="head" transform="translate(94.855500, 0.000000)">
                    <rect id="Path" fill="#EBBAAA" fill-rule="nonzero" x="177.1445" y="354" width="76" height="194" rx="37.911"></rect>
                    <path d="M366.1445,335 C393.7585,335 416.1445,312.614 416.1445,285 C416.1445,257.386 393.7585,235 366.1445,235 C338.5305,235 316.1445,257.386 316.1445,285 C316.1445,312.614 338.5305,335 366.1445,335 Z" id="Path" fill="#E4C1C1" fill-rule="nonzero"></path>
                    <rect id="Path" fill="#F6DDD6" fill-rule="nonzero" x="61.1445" y="33" width="310" height="440" rx="155"></rect>
                    <path d="M225.3505,3.59719 C261.2805,-13.0248 353.0545,43.6808 386.1905,111.729 C409.1735,158.929 427.3495,215.159 399.2895,247.519 C399.2895,247.519 381.5475,243.7 371.1445,237.5 C334.1445,215.45 342.0005,178.999 304.0005,146.999 C266.0005,114.999 233.6105,105.779 223.6805,98.7292 C213.7505,91.6692 212.5805,30.7992 225.3505,3.59719 Z" id="Path" fill="#271E1E" fill-rule="nonzero"></path>
                    <circle id="Ellipse-75" fill="#F2CACA" fill-rule="nonzero" cx="116.1445" cy="326" r="30"></circle>
                    <path d="M114.5095,212.58 C126.8095,158.21 188.0495,106.18 217.0395,96.78 C228.9995,92.91 236.9995,0 217.0395,0 C166.5195,0 86.3795,51.1 57.7795,96.78 C10.8195,171.8 -5.79,255.9 19.2095,445.19 C25.3195,491.51 10.3995,511.65 -2.84217094e-14,522.72 C28.6795,552.33 136.1595,563 136.1595,563 C136.1595,563 154.2495,540.38 141.9395,495.53 C119.6895,414.54 102.2195,266.96 114.5095,212.58 Z" id="Path" fill="#3F3232" fill-rule="nonzero"></path>
                    <path d="M68.1023653,111.074035 L67.679889,111.82635 L67.239618,112.631401 L66.8579826,113.341657 C66.6600618,113.712707 66.4515748,114.107597 66.2329198,114.526148 L65.6457485,115.659865 L65.0420194,116.845334 C63.9203566,119.065974 62.7181182,121.546222 61.4512713,124.278857 C56.5326957,134.888406 51.6205932,147.153911 47.0394634,160.929078 C32.2270022,205.469213 24.1950266,255.094891 26.5037473,308.195468 C26.611701,310.678403 28.7120318,312.603706 31.1949675,312.495753 C33.6779032,312.387799 35.6032064,310.287468 35.4952527,307.804532 C33.2373351,255.872428 41.0950927,207.323159 55.5795812,163.769217 C60.0503167,150.325998 64.8366413,138.374561 69.6164926,128.064245 L70.2766456,126.65088 C71.692428,123.642608 73.0122945,120.986083 74.2099903,118.693443 L74.7958171,117.583212 L75.3178022,116.615207 L75.8966347,115.573965 C77.1392559,113.421637 76.4017928,110.669487 74.2494648,109.426865 C72.0971367,108.184244 69.3449866,108.921707 68.1023653,111.074035 Z" id="Path" fill="#615252" fill-rule="nonzero"></path>
                    <path d="M46.7782693,240.356888 L46.6766926,241.42808 L46.4948275,243.505562 L46.4156208,244.46324 C46.1647967,247.54421 45.9142504,251.067057 45.6784303,254.992088 L45.628128,255.839307 C43.1940477,297.326566 44.1868034,342.975416 51.0893333,386.073471 C51.7288461,390.066465 52.416552,394.004462 53.1535359,397.884688 C53.6172828,400.326319 55.972557,401.929711 58.4141881,401.465964 C60.8558192,401.002217 62.4592111,398.646943 61.9954641,396.205312 C61.2748602,392.411327 60.6020545,388.558652 59.9760788,384.650181 C53.1931275,342.298751 52.2135832,297.257387 54.6126779,256.366436 L54.7623862,253.903116 L54.9325881,251.297565 C55.0471642,249.607345 55.1636974,248.011472 55.2806338,246.514258 L55.4629988,244.261805 L55.7327307,241.261112 C55.9824253,238.788406 54.1803183,236.581464 51.707612,236.331769 C49.2349058,236.082075 47.0279639,237.884182 46.7782693,240.356888 Z" id="Path" fill="#615252" fill-rule="nonzero"></path>
                    <path d="M131.1445,261 L161.1445,261 C163.905924,261 166.1445,258.761424 166.1445,256 C166.1445,253.238576 163.905924,251 161.1445,251 L131.1445,251 C128.383076,251 126.1445,253.238576 126.1445,256 C126.1445,258.761424 128.383076,261 131.1445,261 Z" id="Vector-643" fill="#000000" fill-rule="nonzero"></path>
                    <path d="M271.1445,261 L301.1445,261 C303.905924,261 306.1445,258.761424 306.1445,256 C306.1445,253.238576 303.905924,251 301.1445,251 L271.1445,251 C268.383076,251 266.1445,253.238576 266.1445,256 C266.1445,258.761424 268.383076,261 271.1445,261 Z" id="Vector-644" fill="#000000" fill-rule="nonzero"></path>
                    <path d="M263.1445,255 L263.1445,284 C263.1445,290.627417 268.517083,296 275.1445,296 C281.771917,296 287.1445,290.627417 287.1445,284 L287.1445,255 C287.1445,248.372583 281.771917,243 275.1445,243 C268.517083,243 263.1445,248.372583 263.1445,255 Z" id="Vector-181" fill="#000000" fill-rule="nonzero"></path>
                    <path d="M145.1475,255 L145.1475,284 C145.1475,290.627417 150.520083,296 157.1475,296 C163.774917,296 169.1475,290.627417 169.1475,284 L169.1475,255 C169.1475,248.372583 163.774917,243 157.1475,243 C150.520083,243 145.1475,248.372583 145.1475,255 Z" id="Vector-642" fill="#000000" fill-rule="nonzero"></path>
                    <path d="M253.829147,217.991707 L310.829147,220.991707 C314.138275,221.165872 316.962042,218.624481 317.136207,215.315353 C317.310372,212.006225 314.768981,209.182458 311.459853,209.008293 L254.459853,206.008293 C251.150725,205.834128 248.326958,208.375519 248.152793,211.684647 C247.978628,214.993775 250.520019,217.817542 253.829147,217.991707 Z" id="Vector-179" fill="#271E1E" fill-rule="nonzero"></path>
                    <path d="M177.829147,206.008293 L120.829147,209.008293 C117.520019,209.182458 114.978628,212.006225 115.152793,215.315353 C115.326958,218.624481 118.150725,221.165872 121.459853,220.991707 L178.459853,217.991707 C181.768981,217.817542 184.310372,214.993775 184.136207,211.684647 C183.962042,208.375519 181.138275,205.834128 177.829147,206.008293 Z" id="Vector-645" fill="#271E1E" fill-rule="nonzero"></path>
                    <circle id="Ellipse-67" fill="#F2CACA" fill-rule="nonzero" cx="316.1445" cy="326" r="30"></circle>
                    <path d="M209.072072,275.285048 C202.515859,285.119369 197.6445,299.124526 197.6445,310.625 C197.6445,327.298509 207.601381,338.5 226.1445,338.5 L226.1445,321.5 C217.465397,321.5 214.6445,318.326491 214.6445,310.625 C214.6445,302.750474 218.409505,291.926086 223.216928,284.714952 L209.072072,275.285048 Z" id="Path" fill="#EBBAAA" fill-rule="nonzero"></path>
                    <g id="Path" transform="translate(161.144500, 348.000000)">
                        <path d="M0,0.02 L0,19.82 C0,50.3 24.629,75 54.999,75 C85.378,75 109.997,50.3 109.997,19.82 L109.997,0.02 L0,0.02 Z" fill="#393939"></path>
                        <g id="Object">
                            <g id="Clipped">
                                <mask id="mask-2" fill="white">
                                    <use xlink:href="#path-1"></use>
                                </mask>
                                <g id="Path"></g>
                                <path d="M54.998,92.693 C73.316,92.693 88.166,84.583 88.166,74.58 C88.166,64.576 73.316,56.467 54.998,56.467 C36.68,56.467 21.83,64.576 21.83,74.58 C21.83,84.583 36.68,92.693 54.998,92.693 Z" id="Path" fill="#FF6C6C" fill-rule="nonzero" mask="url(#mask-2)"></path>
                            </g>
                        </g>
                        <rect fill="#FFFFFF" fill-rule="nonzero" x="0" y="0.02" width="110" height="22.7466"></rect>
                    </g>
                </g>
            </g>
        </g>
    </g>
</svg>