<?xml version="1.0" encoding="UTF-8"?>
<svg width="513px" height="1381px" viewBox="0 0 513 1381" version="1.1" xmlns="http://www.w3.org/2000/svg" xmlns:xlink="http://www.w3.org/1999/xlink">
    <!-- Generator: Sketch 55.2 (78181) - https://sketchapp.com -->
    <title>gee_me_090</title>
    <desc>Created with Sketch.</desc>
    <g id="GEE!-ME" stroke="none" stroke-width="1" fill="none" fill-rule="evenodd">
        <g id="gee_me_090" transform="translate(-344.000000, -109.000000)">
            <g transform="translate(344.000000, 109.000000)">
                <g id="lower-limb" transform="translate(76.137865, 877.023000)">
                    <path d="M174.175135,115.92 C237.958135,115.92 289.665135,91.428 289.665135,61.214 C289.665135,31.001 237.958135,6.508 174.175135,6.508 C110.391135,6.508 58.6841354,31.001 58.6841354,61.214 C58.6841354,91.428 110.391135,115.92 174.175135,115.92 Z" id="Path" fill="#090B08" fill-rule="nonzero"></path>
                    <path d="M259.356135,270.917 L259.356135,438.927" id="Path" stroke="#DCE1E9" stroke-width="54" stroke-linecap="round" stroke-linejoin="bevel"></path>
                    <path d="M123.300135,270.917 L140.030135,423.997" id="Path" stroke="#DCE1E9" stroke-width="54" stroke-linecap="round" stroke-linejoin="bevel"></path>
                    <path d="M114.845135,406.377 C111.297135,400.907 106.032135,400.627 101.767135,397.487 C99.6741354,400.477 99.8311354,404.837 97.9371354,410.687 L85.6221354,425.887 L64.2141354,448.817 L43.8091354,459.887 L56.1161354,474.077 C64.3581354,467.647 111.132135,417.847 114.845135,406.377 Z" id="Path" fill="#3B3937" fill-rule="nonzero"></path>
                    <path d="M187.160135,481.527 C187.160135,481.527 187.621135,456.657 182.211135,442.927 C176.800135,429.207 171.040135,393.737 171.040135,393.737 C171.040135,393.737 161.742135,403.887 144.264135,404.037 L111.327135,404.327 C111.327135,404.327 82.6501354,444.357 74.2211354,449.727 C65.7931354,455.097 18.0539354,465.517 18.0539354,465.517 C8.98623544,465.597 1.69943544,473.017 1.7778975,482.087 L1.85143544,490.437 L101.423135,489.567 L187.160135,481.527 Z" id="Path" fill="#1C1B19" fill-rule="nonzero"></path>
                    <path d="M43.3851354,468.497 C30.8981354,470.107 14.9029354,470.747 11.8681354,466.777 L32.3151354,460.597 L59.2221354,449.857 L66.2531354,453.297 L65.2791354,456.307 L80.3611354,465.677 L73.9401354,474.737 L73.8401354,474.687 C68.9121354,472.537 55.9941354,466.877 43.3851354,468.497 Z" id="Path" fill="#303030" fill-rule="nonzero"></path>
                    <path d="M103.866445,411.635725 L98.5514447,409.565725 C96.9159778,408.92877 95.0738158,409.738224 94.4368606,411.373691 C93.7999055,413.009158 94.6093592,414.85132 96.2448262,415.488275 L101.559826,417.558275 C103.195293,418.19523 105.037455,417.385776 105.67441,415.750309 C106.311365,414.114842 105.501912,412.27268 103.866445,411.635725 Z" id="Path" fill="#1C1B19" fill-rule="nonzero"></path>
                    <path d="M95.9454447,420.705725 L90.6304447,418.635725 C88.9949778,417.99877 87.1528158,418.808224 86.5158606,420.443691 C85.8789055,422.079158 86.6883592,423.92132 88.3238262,424.558275 L93.6388262,426.628275 C95.2742931,427.26523 97.1164551,426.455776 97.7534103,424.820309 C98.3903654,423.184842 97.5809117,421.34268 95.9454447,420.705725 Z" id="Path" fill="#1C1B19" fill-rule="nonzero"></path>
                    <path d="M89.0244447,429.765725 L83.7094447,427.695725 C82.0739778,427.05877 80.2318158,427.868224 79.5948606,429.503691 C78.9579055,431.139158 79.7673592,432.98132 81.4028262,433.618275 L86.7178262,435.688275 C88.3532931,436.32523 90.1954551,435.515776 90.8324103,433.880309 C91.4693654,432.244842 90.6599117,430.40268 89.0244447,429.765725 Z" id="Path" fill="#1C1B19" fill-rule="nonzero"></path>
                    <path d="M81.1032563,438.835652 L75.7872563,436.765652 C74.1517489,436.128801 72.3096384,436.938372 71.6727873,438.573879 C71.0359362,440.209387 71.8455071,442.051497 73.4810145,442.688348 L78.7970145,444.758348 C80.432522,445.395199 82.2746325,444.585628 82.9114836,442.950121 C83.5483347,441.314613 82.7387638,439.472503 81.1032563,438.835652 Z" id="Path" fill="#1C1B19" fill-rule="nonzero"></path>
                    <path d="M69.1872779,447.947612 L63.8722779,445.867612 C62.237853,445.227988 60.3943719,446.034433 59.7547475,447.668858 C59.1151231,449.303282 59.9215682,451.146764 61.555993,451.786388 L66.870993,453.866388 C68.5054179,454.506012 70.348899,453.699567 70.9885234,452.065142 C71.6281478,450.430718 70.8217027,448.587236 69.1872779,447.947612 Z" id="Path" fill="#1C1B19" fill-rule="nonzero"></path>
                    <path d="M188.365135,480.487 L94.6561354,485.537 L1.40373544,482.117 L0.0400354397,494.317 C-0.37376456,498.017 2.47153544,501.287 6.19623544,501.377 L92.8691354,503.567 L141.248135,503.667 L189.609135,501.657 L188.365135,480.487 Z" id="Path" fill="#303030" fill-rule="nonzero"></path>
                    <path d="M284.850135,405.377 C288.398135,399.907 293.663135,399.627 297.928135,396.487 C300.021135,399.477 299.864135,403.837 301.758135,409.687 L314.073135,424.887 L335.481135,447.817 L355.886135,458.887 L343.579135,473.077 C335.337135,466.647 288.563135,416.847 284.850135,405.377 Z" id="Path" fill="#3B3937" fill-rule="nonzero"></path>
                    <path d="M212.535135,480.527 C212.535135,480.527 212.074135,455.657 217.484135,441.927 C222.895135,428.207 228.655135,392.737 228.655135,392.737 C228.655135,392.737 237.953135,402.887 255.431135,403.037 L288.368135,403.327 C288.368135,403.327 317.045135,443.357 325.473135,448.727 C333.902135,454.097 381.641135,464.517 381.641135,464.517 C390.709135,464.597 397.996135,472.017 397.917772,481.087 L397.844135,489.437 L298.272135,488.567 L212.535135,480.527 Z" id="Path" fill="#1C1B19" fill-rule="nonzero"></path>
                    <path d="M356.310135,467.497 C368.797135,469.107 384.792135,469.747 387.827135,465.777 L367.380135,459.597 L340.473135,448.857 L333.442135,452.297 L334.416135,455.307 L319.334135,464.677 L325.755135,473.737 L325.854135,473.687 C330.783135,471.537 343.701135,465.877 356.310135,467.497 Z" id="Path" fill="#303030" fill-rule="nonzero"></path>
                    <path d="M298.135445,416.558275 L303.450445,414.488275 C305.085912,413.85132 305.895365,412.009158 305.25841,410.373691 C304.621455,408.738224 302.779293,407.92877 301.143826,408.565725 L295.828826,410.635725 C294.193359,411.27268 293.383905,413.114842 294.020861,414.750309 C294.657816,416.385776 296.499978,417.19523 298.135445,416.558275 Z" id="Path" fill="#1C1B19" fill-rule="nonzero"></path>
                    <path d="M306.056445,425.628275 L311.371445,423.558275 C313.006912,422.92132 313.816365,421.079158 313.17941,419.443691 C312.542455,417.808224 310.700293,416.99877 309.064826,417.635725 L303.749826,419.705725 C302.114359,420.34268 301.304905,422.184842 301.941861,423.820309 C302.578816,425.455776 304.420978,426.26523 306.056445,425.628275 Z" id="Path" fill="#1C1B19" fill-rule="nonzero"></path>
                    <path d="M312.977445,434.688275 L318.292445,432.618275 C319.927912,431.98132 320.737365,430.139158 320.10041,428.503691 C319.463455,426.868224 317.621293,426.05877 315.985826,426.695725 L310.670826,428.765725 C309.035359,429.40268 308.225905,431.244842 308.862861,432.880309 C309.499816,434.515776 311.341978,435.32523 312.977445,434.688275 Z" id="Path" fill="#1C1B19" fill-rule="nonzero"></path>
                    <path d="M320.898445,443.758275 L326.213445,441.688275 C327.848912,441.05132 328.658365,439.209158 328.02141,437.573691 C327.384455,435.938224 325.542293,435.12877 323.906826,435.765725 L318.591826,437.835725 C316.956359,438.47268 316.146905,440.314842 316.783861,441.950309 C317.420816,443.585776 319.262978,444.39523 320.898445,443.758275 Z" id="Path" fill="#1C1B19" fill-rule="nonzero"></path>
                    <path d="M332.824089,452.866462 L338.140089,450.786462 C339.774555,450.146942 340.581117,448.303512 339.941597,446.669047 C339.302077,445.034581 337.458648,444.228018 335.824182,444.867538 L330.508182,446.947538 C328.873716,447.587058 328.067154,449.430488 328.706674,451.064953 C329.346194,452.699419 331.189623,453.505982 332.824089,452.866462 Z" id="Path" fill="#1C1B19" fill-rule="nonzero"></path>
                    <path d="M211.330135,479.487 L305.039135,484.537 L398.292135,481.117 L399.655135,493.317 C400.069135,497.017 397.224135,500.287 393.499135,500.377 L306.826135,502.567 L258.447135,502.667 L210.086135,500.657 L211.330135,479.487 Z" id="Path" fill="#303030" fill-rule="nonzero"></path>
                    <polygon id="Path" fill="#090B08" fill-rule="nonzero" points="50.0301354 -5.68434189e-14 185.030135 -5.68434189e-14 180.030135 359.797 172.030135 387.997 95.5301354 383.997 83.9161354 353.297"></polygon>
                    <polygon id="Path" fill="#090B08" fill-rule="nonzero" points="183.744135 6.022 319.202135 6.022 314.030135 351.997 303.030135 380.997 225.030135 394.417 217.769135 359.997"></polygon>
                    <polygon id="Path" fill="#090B08" fill-rule="nonzero" points="87.5301354 375.997 174.030135 375.997 179.030135 383.977 174.030135 399.997 154.030135 406.477 95.0301354 406.477 91.5301354 399.997 93.5301354 390.977 85.5301354 388.977"></polygon>
                    <polygon id="Path" fill="#090B08" fill-rule="nonzero" points="222.030135 375.997 311.030135 377.477 303.530135 393.477 305.030135 401.977 283.530135 404.977 260.530135 404.977 217.530135 399.977"></polygon>
                </g>
                <g id="upper-limb" transform="translate(0.000000, 429.000000)">
                    <rect id="Rectangle" fill="#F1EDED" fill-rule="nonzero" transform="translate(94.499257, 191.470298) rotate(18.000000) translate(-94.499257, -191.470298) " x="39.5632572" y="183.126798" width="109.872" height="16.687"></rect>
                    <rect id="Rectangle" fill="#F1EDED" fill-rule="nonzero" transform="translate(416.084476, 212.088018) rotate(162.000000) translate(-416.084476, -212.088018) " x="361.148476" y="203.744518" width="109.872" height="16.687"></rect>
                    <path d="M128.721,120.139 C129.556,85.723 157.107,57.935 191.513,56.812 L271.837,54.183 C278.382,53.977 284.937,54.317 291.42,55.214 L369.827,66.057 C404.419,70.84 429.032,102.112 425.548,136.857 L410.716,284.745 L418.158,496.621 C418.23,498.435 331.982,496.714 330.168,496.621 L191.513,496.621 L112.704,484.726 C110.962,484.633 109.632,483.118 109.776,481.376 L125.175,266.326 L128.721,120.139 Z" id="Path" fill="#D9D9E3" fill-rule="nonzero"></path>
                    <path d="M259.168,145 C298.38,145 330.168,112.541 330.168,72.5 C330.168,32.459 298.38,0 259.168,0 C219.956,0 188.168,32.459 188.168,72.5 C188.168,112.541 219.956,145 259.168,145 Z" id="Path" fill="#E9E9F0" fill-rule="nonzero"></path>
                    <path d="M58.1677997,114.5 C68.5677997,82.5 83.8344997,76.834 90.1677997,78 L166.667,398 C159.668,423 134.568,466.4 90.1677997,440 C34.6677997,407 -2.8321703,332 0.167827704,309.5 C3.1678297,287 45.1677997,154.5 58.1677997,114.5 Z" id="Path" fill="#1B1B1B" fill-rule="nonzero"></path>
                    <path d="M468.168,88 C458.568,82 411.168,67.833 387.168,60 C391.668,181.833 401.268,428 409.668,428 C420.168,428 486.168,374 507.168,342.5 C528.168,311 480.168,95.5 468.168,88 Z" id="Path" fill="#1B1B1B" fill-rule="nonzero"></path>
                    <path d="M245.168,314 C244.374,246.844 232.168,223.152 232.168,191 C226.668,169.5 219.668,145 214.668,142 C161.168,87.5 209.668,59.5 214.168,38 C214.168,38 206.668,36.067 206.168,36 C205.668,35.933 199.168,34 199.168,34 C199.168,34 187.668,42.5 176.668,54.5 C165.668,66.5 88.1679997,77 88.1679997,77 C88.1679997,79.5 97.9992997,139.579 94.2376997,244.497 C90.4760997,349.415 98.1561997,452.438 94.2377997,499.679 C110.695,504.439 203.095,520.303 257.168,503.381 C257.168,435.692 246.344,413.418 245.168,314 Z" id="Path" fill="#1B1B1B" fill-rule="nonzero"></path>
                    <path d="M89.1678997,387 C94.3678997,372.6 105.501,368.833 113.668,367.5 L113.668,502 C100.834,499.833 89.5678997,500.4 77.1678997,490 C61.6678997,477 58.6675997,431 63.6675997,415.5 C68.6675997,400 82.6678997,405 89.1678997,387 Z" id="Path" fill="#333131" fill-rule="nonzero"></path>
                    <path d="M198.998303,488.023 C179.177697,489.623 133.519515,474.023 113.168,466.023 L113.168,500.023 C124.67103,510.023 154.509891,513.167 170.683151,516.023 C198.998303,521.023 223.77406,516.023 259.168,510.023 L257.398303,479.523 C245.010424,482.523 218.818909,486.423 198.998303,488.023 Z" id="Path" fill="#2C2A2A" fill-rule="nonzero"></path>
                    <path d="M162.668,66.5 C168.668,58.9 189.168,41.667 198.668,34 L214.168,38 C213.668,39.5 212.168,43.6 210.168,48 C207.668,53.5 192.668,68.214 189.668,87.5 C186.168,110 208.168,135 215.168,142.5 C222.168,150 225.168,164.5 229.168,179 C233.168,193.5 232.668,216 238.168,233 C243.668,250 245.668,297.5 245.668,317.5 C245.668,337.5 247.668,391 250.168,403.5 C252.168,413.5 257.668,489.167 259.168,510.5 L236.668,513 C230.168,408.167 212.668,164.3 198.668,145.5 C184.668,126.7 144.501,129 126.168,132.5 C132.168,123 145.068,101.8 148.668,93 C153.168,82 155.168,76 162.668,66.5 Z" id="Path" fill="#090B08" fill-rule="nonzero"></path>
                    <path d="M279.867,326.5 C280.614,261.517 268.93,249 279.867,217 C293.367,177.5 287.867,169 304.367,131.023 C307.95,104.423 342.867,77 304.367,38.5 L320.168,35 L386.725,59.639 C392.771,61.878 397.706,65.739 399.374,71.967 C406.007,96.74 418.436,169.872 421.305,252.148 C424.844,353.671 430.18,458.035 433.867,503.748 C405.107,507.842 369.867,518.5 319.867,514.5 C304.367,454 278.761,422.701 279.867,326.5 Z" id="Path" fill="#1B1B1B" fill-rule="nonzero"></path>
                    <path d="M383.417582,152.389249 C374.978022,155.900647 338.288791,157.949549 321,159.412046 L321,184.869688 C324.81011,185.16289 334.330989,184.869688 342.098901,184.869688 C354.406593,184.869688 384.590329,179.309388 401,176.091191 L401,148 C401,148 389.571428,149.829439 383.417582,152.389249 Z" id="Path" fill="#BB2521" fill-rule="nonzero"></path>
                    <path d="M447.168,426.5 C443.168,411.3 430.168,378.167 424.168,363.5 L413.668,478.5 C426.501,467.5 451.168,441.7 447.168,426.5 Z" id="Path" fill="#1B1B1B" fill-rule="nonzero"></path>
                    <path d="M335.168,36 L320.168,34.5 L304.168,38.5 C305.668,39.833 310.268,44.7 316.668,53.5 C324.668,64.5 324.168,83.5 316.668,96.5 C309.168,109.5 304.668,128.5 304.168,131.5 C303.668,134.5 301.668,139 297.668,145 C294.468,149.8 292.335,164.333 291.668,171 C296.501,159.5 307.268,135.5 311.668,131.5 C316.068,127.5 350.501,114.167 367.168,108 C366.168,106.5 362.168,101.5 354.168,93.5 C346.168,85.5 338.168,51.833 335.168,36 Z" id="Path" fill="#090B08" fill-rule="nonzero"></path>
                    <path d="M374.168,484 C393.168,481.765 413.168,482.523 432.168,467.023 L434.168,502.023 C414.168,507.023 392.106,510.54 384.668,511.5 C369.168,513.5 359.668,517 320.168,513.5 L310.668,483.023 C324.668,486.023 348.668,487 374.168,484 Z" id="Path" fill="#2C2A2A" fill-rule="nonzero"></path>
                    <circle id="Oval" fill="#48494D" fill-rule="nonzero" cx="219.668" cy="186.5" r="7.5"></circle>
                    <circle id="Oval" fill="#48494D" fill-rule="nonzero" cx="232.668" cy="265.5" r="7.5"></circle>
                    <circle id="Oval" fill="#48494D" fill-rule="nonzero" cx="235.668" cy="336.5" r="7.5"></circle>
                    <circle id="Oval" fill="#48494D" fill-rule="nonzero" cx="239.668" cy="411.5" r="7.5"></circle>
                    <circle id="Oval" fill="#48494D" fill-rule="nonzero" cx="246.668" cy="484.5" r="7.5"></circle>
                    <path d="M192,130 L201.5,130" id="Path" stroke="#1B1B1B" stroke-width="3"></path>
                </g>
                <g id="head" transform="translate(71.168100, -0.000088)">
                    <rect id="Rectangle" fill="#EBBAAA" fill-rule="nonzero" x="142.9999" y="423.023088" width="90" height="119" rx="37.911"></rect>
                    <path d="M318.2659,351.556088 C350.9979,351.556088 377.5329,325.022088 377.5329,292.290088 C377.5329,259.558088 350.9979,233.023088 318.2659,233.023088 C285.5339,233.023088 258.9999,259.558088 258.9999,292.290088 C258.9999,325.022088 285.5339,351.556088 318.2659,351.556088 Z" id="Path" fill="#EBBAAA" fill-rule="nonzero"></path>
                    <path d="M59.2669,354.556088 C26.5346,354.556088 -8.31335001e-13,328.022088 -8.31335001e-13,295.290088 C-8.31335001e-13,262.558088 26.5346,236.023088 59.2669,236.023088 C91.9989,236.023088 118.5329,262.558088 118.5329,295.290088 C118.5329,328.022088 91.9989,354.556088 59.2669,354.556088 Z" id="Path" fill="#EBBAAA" fill-rule="nonzero"></path>
                    <path d="M35.9999,168.316088 C35.9999,84.7596876 103.7359,17.0234876 187.2929,17.0234876 C272.5539,17.0234876 340.9749,87.4405876 338.5239,172.666088 L336.4999,243.023088 L332.8499,353.004088 C330.7029,417.693088 277.6409,469.023088 212.9159,469.023088 L189.4999,469.023088 L165.3349,469.023088 C102.9579,469.023088 50.9819,421.234088 45.7569,359.076088 L35.9999,243.023088 L35.9999,168.316088 Z" id="Path" fill="#F4D4C9" fill-rule="nonzero"></path>
                    <path d="M160.260619,396.753793 C179.849463,407.636484 202.969547,407.354532 227.91524,397.149475 C231.851036,395.539377 233.736386,391.043542 232.126288,387.107747 C230.51619,383.171952 226.020355,381.286602 222.08456,382.8967 C201.155951,391.458403 182.840074,391.681768 167.739181,383.292383 C164.021915,381.227235 159.334343,382.566541 157.269195,386.283807 C155.204047,390.001073 156.543354,394.688645 160.260619,396.753793 Z" id="Path" fill="#C99584" fill-rule="nonzero"></path>
                    <path d="M195.1169,119.920088 C118.9149,119.920088 57.4289,119.920088 53.3899,175.455088 C47.3719,258.188088 32.9839,264.843088 22.0755,226.476088 C20.413,220.628088 8.9136,181.518088 8.6761,175.455088 C8.6761,15.1777876 183.4999,-37.4765124 247.4999,26.5239876 C286.4399,58.2103876 271.3279,119.920088 195.1169,119.920088 Z" id="Path" fill="#272727" fill-rule="nonzero"></path>
                    <path d="M139.4999,141.024088 C155.0999,138.224088 195.9999,130.524088 216.4999,118.024088 C158.9999,112.024088 44.8999,106.124088 48.4999,130.524088 C52.9999,161.024088 119.9999,144.524088 139.4999,141.024088 Z" id="Path" fill="#272727" fill-rule="nonzero"></path>
                    <path d="M30.0099,171.233088 C29.7429,165.113088 34.9649,160.023088 41.4999,160.023088 C48.2809,160.023088 53.5879,165.483088 52.9469,171.803088 L42.1189,278.873088 C41.9379,280.663088 40.3359,282.023088 38.4249,282.023088 C36.4279,282.023088 34.7939,280.553088 34.7079,278.693088 L30.0099,171.233088 Z" id="Path" fill="#272727" fill-rule="nonzero"></path>
                    <path d="M344.9899,170.774088 C345.2569,164.905088 340.0349,160.023088 333.4999,160.023088 C326.7189,160.023088 321.4119,165.260088 322.0519,171.321088 L332.8809,274.003088 C333.0619,275.719088 334.6639,277.023088 336.5749,277.023088 C338.5719,277.023088 340.2059,275.614088 340.2919,273.830088 L344.9899,170.774088 Z" id="Path" fill="#272727" fill-rule="nonzero"></path>
                    <path d="M246.4999,106.024088 C278.4999,84.0244876 319.9629,127.651088 323.1999,184.217088 C331.2289,228.580088 346.4469,296.457088 364.9999,164.524088 C360.5599,46.6449876 266.4999,17.5246876 231.9999,31.5243876 C191.8739,63.2108876 167.9679,106.024088 246.4999,106.024088 Z" id="Path" fill="#272727" fill-rule="nonzero"></path>
                    <path d="M252.4999,265.023088 L252.4999,266.023088" id="Path" stroke="#000000" stroke-width="24" stroke-linecap="round"></path>
                    <path d="M123.4999,265.023088 L123.4999,266.023088" id="Path" stroke="#000000" stroke-width="24" stroke-linecap="round"></path>
                    <path d="M233.50724,225.830907 L290.81424,225.026907 C297.441005,224.933935 302.737691,219.486513 302.644719,212.859748 C302.551748,206.232983 297.104325,200.936297 290.47756,201.029268 L233.17056,201.833268 C226.543795,201.92624 221.247109,207.373663 221.340081,214.000427 C221.433052,220.627192 226.880475,225.923878 233.50724,225.830907 Z" id="Path" fill="#393939" fill-rule="nonzero"></path>
                    <path d="M146.663624,201.94658 L89.357624,202.85058 C82.7310315,202.955115 77.4438586,208.411771 77.5483928,215.038364 C77.6529271,221.664956 83.1095835,226.952129 89.736176,226.847595 L147.042176,225.943595 C153.668769,225.839061 158.955941,220.382404 158.851407,213.755812 C158.746873,207.129219 153.290217,201.842046 146.663624,201.94658 Z" id="Path" fill="#393939" fill-rule="nonzero"></path>
                    <path d="M180.718969,299.832026 C174.64714,310.545481 171.107884,322.253861 171.564205,331.807375 C172.190982,344.92958 180.428463,353.752088 194.2979,353.752088 L194.2979,336.752088 C189.964884,336.752088 188.75803,335.459523 188.544845,330.9963 C188.261496,325.064108 190.893092,316.358402 195.508831,308.21415 L180.718969,299.832026 Z" id="Path" fill="#EBBAAA" fill-rule="nonzero"></path>
                    <g id="Group" transform="translate(60.883627, 241.000088)">
                        <path d="M142.704273,49.6126724 L141.134273,29.4546724 C141.134273,29.4546724 151.325273,6.55667239 192.277273,1.72467239 C233.229273,-3.10732761 251.334273,22.0736724 251.334273,22.0736724 L248.165273,51.5296724 C246.046273,71.2206724 229.159273,85.9836724 209.361273,85.4506724 L179.567273,84.6486724 C160.124273,84.1256724 144.214273,69.0046724 142.704273,49.6126724 Z" id="Path" fill-opacity="0.44" fill="#FFFFFF" fill-rule="nonzero"></path>
                        <path d="M107.037273,48.8326724 L108.375273,29.6696724 C108.375273,29.6696724 98.1952729,7.27767239 57.9662729,2.85667239 C17.7372729,-1.56332761 0.166272883,23.2926724 0.166272883,23.2926724 L3.43327288,51.5286724 C5.71027288,71.2026724 22.7152729,85.8286724 42.5072729,85.1376724 L70.4562729,84.1626724 C89.8942729,83.4836724 105.683273,68.2356724 107.037273,48.8326724 Z" id="Path" fill-opacity="0.44" fill="#FFFFFF" fill-rule="nonzero"></path>
                        <path d="M146.948273,64.7226724 L141.044273,26.5496724 C140.604273,23.7036724 141.420273,20.8116724 143.630273,18.9656724 C149.625273,13.9566724 164.305273,4.30467239 191.396273,0.800672392 C219.256273,-2.80232761 239.197273,6.63467239 247.487273,11.6276724 C250.254273,13.2936724 251.650273,16.4056724 251.470273,19.6306724 L250.419273,38.5266724" id="Path" stroke="#000000" stroke-width="8"></path>
                        <path d="M102.947273,64.3296724 L108.429273,26.9026724 C108.846273,24.0536724 108.005273,21.1656724 105.777273,19.3416724 C99.8122729,14.4586724 85.3382729,5.15867239 58.8232729,1.94467239 C31.5412729,-1.36132761 12.0822729,7.98567239 3.93827288,12.9626724 C1.18227288,14.6466724 -0.185727117,17.7676724 0.0202728828,20.9916724 L1.19327288,39.4326724" id="Path" stroke="#000000" stroke-width="8"></path>
                        <path d="M105.948273,28.9136724 C116.448273,23.9136724 128.448273,21.9126724 140.948273,28.9136724" id="Path" stroke="#000000" stroke-width="7"></path>
                    </g>
                </g>
            </g>
        </g>
    </g>
</svg>