<?xml version="1.0" encoding="UTF-8"?>
<svg width="759px" height="1366px" viewBox="0 0 759 1366" version="1.1" xmlns="http://www.w3.org/2000/svg" xmlns:xlink="http://www.w3.org/1999/xlink">
    <!-- Generator: Sketch 55.2 (78181) - https://sketchapp.com -->
    <title>gee_me_005</title>
    <desc>Created with Sketch.</desc>
    <defs>
        <path d="M233.28074,414.74 C211.35674,414.33 201.60374,408.05 193.00974,393.97 L182.26874,393.97 C172.63074,393.97 184.68674,403.84 182.26874,414.74 C179.04374,429.28 176.32174,427.2 173.09774,440.7 C170.86574,450.05 170.41174,464.07 175.78474,471.86 C184.12974,483.95 194.59174,482.76 212.32474,482.76 C222.53474,482.76 239.72974,480.16 255.31274,484.32 C277.06974,490.12 336.99074,493.14 352.03774,488.47 C377.67874,480.51 369.76974,457.32 359.02374,448.49 C340.16374,433 303.73474,434.07 294.54074,422.01 C287.01874,412.15 282.73674,388.34 277.34474,382.55 C267.67274,372.17 261.10174,381.32 262.83674,391.38 C264.98474,403.84 260.68574,415.26 233.28074,414.74 Z" id="path-1"></path>
        <path d="M-0.759025329,414.74 C-22.6830253,414.33 -32.4360253,408.05 -41.0300253,393.97 L-51.7710253,393.97 C-61.4090253,393.97 -49.3530253,403.84 -51.7710253,414.74 C-54.9960253,429.28 -57.7180253,427.2 -60.9420253,440.7 C-63.1740253,450.05 -63.6280253,464.07 -58.2550253,471.86 C-49.9100253,483.95 -39.4480253,482.76 -21.7150253,482.76 C-11.5050253,482.76 5.68997467,480.16 21.2729747,484.32 C43.0299747,490.12 102.950975,493.14 117.997975,488.47 C143.638975,480.51 135.729975,457.32 124.983975,448.49 C106.123975,433 69.6949747,434.07 60.5009747,422.01 C52.9789747,412.15 48.6969747,388.34 43.3049747,382.55 C33.6329747,372.17 27.0619747,381.32 28.7969747,391.38 C30.9449747,403.84 26.6459747,415.26 -0.759025329,414.74 Z" id="path-3"></path>
        <path d="M11.59,101.482 C15.862,44.356 63.458,0.187 120.743,0.187 L195.197,0.187 C255.649,0.187 304.655,49.193 304.655,109.645 L304.655,256.093 L304.655,468.298 L0.028,458.295 L0.028,256.093 L11.59,101.482 Z" id="path-5"></path>
    </defs>
    <g id="GEE!-ME" stroke="none" stroke-width="1" fill="none" fill-rule="evenodd">
        <g id="gee_me_005" transform="translate(-221.000000, -117.000000)">
            <g transform="translate(219.000000, 117.000000)">
                <g id="lower-limb" transform="translate(326.713260, 867.000000)">
                    <polygon id="Path" fill="#2B2B2B" fill-rule="nonzero" points="0.576740305 27.65 123.44374 39.025 123.44374 415.54 34.4437403 415.54"></polygon>
                    <ellipse id="Oval" fill="#2B2B2B" fill-rule="nonzero" cx="141.21274" cy="61.159" rx="118.297" ry="60.9254"></ellipse>
                    <polygon id="Path" fill="#2B2B2B" fill-rule="nonzero" points="150.85974 39.835 276.77274 39.835 276.77274 415.54 185.56674 415.54"></polygon>
                    <path d="M369.29374,484.22 C371.21374,479.9 369.83174,470.26 368.75774,468.65 C367.68274,467.03 237.16474,456.83 237.16474,456.83 C215.50174,455.22 171.27174,445.17 168.30374,456.83 C158.18674,496.57 185.07174,496.57 202.25874,496.57 C225.89074,496.57 228.69474,490.32 244.14674,492.28 C252.20274,493.3 264.01974,498.72 318.26574,498.72 C361.77374,498.72 364.99774,493.89 369.29374,484.22 Z" id="Path" fill="#29282D" fill-rule="nonzero"></path>
                    <mask id="mask-2" fill="white">
                        <use xlink:href="#path-1"></use>
                    </mask>
                    <use id="Path" fill="#504D5A" fill-rule="nonzero" xlink:href="#path-1"></use>
                    <path d="M269.39674,393.99 C268.10774,386.25 265.63674,381.46 264.56274,380.02 L266.70974,374.65 L279.06474,374.65 C284.79374,379.67 294.42574,391.95 287.12074,400.97 C277.99074,412.25 271.00774,403.66 269.39674,393.99 Z" id="Path" fill="#D9D8DD" fill-rule="nonzero" mask="url(#mask-2)"></path>
                    <path d="M356.589725,462.856045 C356.450376,460.681721 356.205321,458.209436 356.40474,455.22 C356.83474,448.77 359.44874,447.52 360.70174,447.7 L378.42574,448.77 L376.27774,481 L353.71974,493.89 C353.269455,493.871138 352.771985,493.832619 352.242162,493.771361 C352.19799,493.811615 352.153516,493.851164 352.10874,493.89 C344.05174,500.87 283.89774,497.11 275.84074,493.89 C267.78474,490.67 276.91474,474.55 283.89774,478.85 C290.87974,483.15 312.90074,481 321.49374,474.55 C330.08774,468.11 333.31074,467.57 345.66374,467.57 C351.683824,467.57 354.953531,465.309874 356.589725,462.856045 Z M177.63174,413.84 C177.63174,440.07 208.06674,459.23 260.68374,487.11 C257.24474,487.11 254.49374,490.49 229.73274,487.11 C224.11274,486.34 175.22374,451.83 169.37774,440.07 C173.16074,428.3 177.63174,397.39 177.63174,413.84 Z" id="Combined-Shape" fill="#29282D" fill-rule="nonzero" mask="url(#mask-2)"></path>
                    <path d="M278.94574,451.06 C303.33674,460.68 327.28374,472.98 343.39674,481.14 C339.95774,481.14 352.04574,487.7 327.28374,484.32 C321.66474,483.55 237.58874,442.96 174.74874,439.74 C158.63574,429.53 266.59274,446.18 278.94574,451.06 Z" id="Path" fill="#29282D" fill-rule="nonzero" mask="url(#mask-2)"></path>
                    <path d="M182.48274,430.86 C185.81274,432.39 189.09974,433.99 192.47274,435.44 C202.39074,439.72 214.46974,443.18 224.83574,446.13 C233.84174,448.68 242.86074,451.16 252.18474,452.32 C256.47074,452.85 260.78474,453.24 265.09974,452.81 C266.80774,452.64 268.53074,452.26 270.15174,451.71 C271.88974,451.12 272.43974,449.82 271.87474,448.05 C271.55674,447.09 271.09274,446.13 270.54274,445.26 C268.79074,442.52 266.46074,440.28 264.08574,438.08 C263.92674,437.94 263.78174,437.79 263.62274,437.65 C280.69174,443.69 297.89074,452.38 315.42274,456.76 C315.24974,456.86 315.08974,456.89 314.93074,456.9 C312.74474,457.06 310.54374,457.19 308.35774,457.38 C300.90174,458.06 293.56274,455.79 286.32374,457.74 C279.35974,459.62 272.94674,462.55 267.54574,467.42 C263.17374,471.36 258.96774,481.22 257.46174,487 C257.33174,487.54 256.99874,487.45 256.65074,487.45 C251.12074,487.45 246.45174,482.17 240.92074,482.17 C240.66074,482.17 240.41474,482.17 240.09574,482.17 C240.15374,481.91 240.16874,481.75 240.22574,481.59 C240.99374,479.31 241.38474,476.96 241.38474,474.56 C241.35574,466.79 238.28574,460.66 231.30774,456.9 C228.44074,455.35 225.37174,454.08 222.28774,453 C212.37074,449.53 200.58074,446.04 190.63474,442.64 C190.24374,442.51 189.82374,442.21 189.57774,441.87 C187.04374,438.33 184.53874,434.76 182.01974,431.19 C181.87474,430.99 181.75974,430.79 181.51274,430.41 C182.01974,427.72 179.15374,429.33 182.48274,430.86 Z M249.12974,464 C250.50574,465.83 251.18574,468 251.76474,470.39 C254.47274,466.5 257.91874,463.58 261.47974,460.7 C255.78974,460.98 250.24474,460.27 244.80174,458.74 C246.27774,460.5 247.78374,462.19 249.12974,464 Z" id="Shape" fill="#D9D8DD" fill-rule="nonzero" mask="url(#mask-2)"></path>
                    <path d="M290.888186,441.008983 C290.712668,443.349223 293.017435,445.086253 295.218757,444.272796 L316.463282,436.422288 L319.958838,452.1588 C320.434704,454.301084 322.865995,455.35151 324.752095,454.229701 L344.625095,442.409701 C346.154758,441.499893 346.65725,439.52231 345.747442,437.992646 C344.837633,436.462982 342.86005,435.96049 341.330386,436.870299 L325.284943,446.413756 L321.954642,431.4212 C321.531219,429.515007 319.523323,428.420371 317.691724,429.097204 L297.690501,436.488274 L298.926295,420.011017 C299.100884,417.683166 296.819527,415.947774 294.622729,416.737361 L271.947729,424.887361 C270.272849,425.489358 269.403105,427.335131 270.005102,429.010011 C270.607098,430.684891 272.452871,431.554635 274.127752,430.952639 L292.127634,424.483 L290.888186,441.008983 Z" id="Path" fill="#2A2A2A" fill-rule="nonzero" mask="url(#mask-2)"></path>
                    <path d="M139.615229,484.22 C141.535229,479.9 140.153229,470.26 139.079229,468.65 C138.004229,467.03 7.48622935,456.83 7.48622935,456.83 C-14.1767707,455.22 -58.4067707,445.17 -61.3747707,456.83 C-71.4917707,496.57 -44.6067707,496.57 -27.4197707,496.57 C-3.78777065,496.57 -0.98377065,490.32 14.4682293,492.28 C22.5242293,493.3 34.3412293,498.72 88.5872293,498.72 C132.095229,498.72 135.319229,493.89 139.615229,484.22 Z" id="Path" fill="#29282D" fill-rule="nonzero" mask="url(#mask-2)" transform="translate(38.492985, 474.995545) scale(-1, 1) translate(-38.492985, -474.995545) "></path>
                    <mask id="mask-4" fill="white">
                        <use xlink:href="#path-3"></use>
                    </mask>
                    <use id="Path" fill="#504D5A" fill-rule="nonzero" transform="translate(36.312357, 434.365844) scale(-1, 1) translate(-36.312357, -434.365844) " xlink:href="#path-3"></use>
                    <path d="M21.7478128,393.99 C20.4588128,386.25 17.9878128,381.46 16.9138128,380.02 L19.0608128,374.65 L31.4158128,374.65 C37.1448128,379.67 46.7768128,391.95 39.4718128,400.97 C30.3418128,412.25 23.3588128,403.66 21.7478128,393.99 Z" id="Path" fill="#D9D8DD" fill-rule="nonzero" mask="url(#mask-4)" transform="translate(29.507777, 390.486701) scale(-1, 1) translate(-29.507777, -390.486701) "></path>
                    <path d="M115.450725,462.856045 C115.311376,460.681721 115.066321,458.209436 115.26574,455.22 C115.69574,448.77 118.30974,447.52 119.56274,447.7 L137.28674,448.77 L135.13874,481 L112.58074,493.89 C112.130455,493.871138 111.632985,493.832619 111.103162,493.771361 C111.05899,493.811615 111.014516,493.851164 110.96974,493.89 C102.91274,500.87 42.7587403,497.11 34.7017403,493.89 C26.6457403,490.67 35.7757403,474.55 42.7587403,478.85 C49.7407403,483.15 71.7617403,481 80.3547403,474.55 C88.9487403,468.11 92.1717403,467.57 104.52474,467.57 C110.544824,467.57 113.814531,465.309874 115.450725,462.856045 Z M-63.5072597,413.84 C-63.5072597,440.07 -33.0722597,459.23 19.5447403,487.11 C16.1057403,487.11 13.3547403,490.49 -11.4062597,487.11 C-17.0262597,486.34 -65.9152597,451.83 -71.7612597,440.07 C-67.9782597,428.3 -63.5072597,397.39 -63.5072597,413.84 Z" id="Combined-Shape" fill="#29282D" fill-rule="nonzero" mask="url(#mask-4)" transform="translate(32.762740, 453.478916) scale(-1, 1) translate(-32.762740, -453.478916) "></path>
                    <path d="M69.0825903,451.06 C93.4735903,460.68 117.42059,472.98 133.53359,481.14 C130.09459,481.14 142.18259,487.7 117.42059,484.32 C111.80159,483.55 27.7255903,442.96 -35.1144097,439.74 C-51.2274097,429.53 56.7295903,446.18 69.0825903,451.06 Z" id="Path" fill="#29282D" fill-rule="nonzero" mask="url(#mask-4)" transform="translate(48.400665, 460.887501) scale(-1, 1) translate(-48.400665, -460.887501) "></path>
                    <path d="M-7.12185668,430.86 C-3.79185668,432.39 -0.504856683,433.99 2.86814332,435.44 C12.7861433,439.72 24.8651433,443.18 35.2311433,446.13 C44.2371433,448.68 53.2561433,451.16 62.5801433,452.32 C66.8661433,452.85 71.1801433,453.24 75.4951433,452.81 C77.2031433,452.64 78.9261433,452.26 80.5471433,451.71 C82.2851433,451.12 82.8351433,449.82 82.2701433,448.05 C81.9521433,447.09 81.4881433,446.13 80.9381433,445.26 C79.1861433,442.52 76.8561433,440.28 74.4811433,438.08 C74.3221433,437.94 74.1771433,437.79 74.0181433,437.65 C91.0871433,443.69 108.286143,452.38 125.818143,456.76 C125.645143,456.86 125.485143,456.89 125.326143,456.9 C123.140143,457.06 120.939143,457.19 118.753143,457.38 C111.297143,458.06 103.958143,455.79 96.7191433,457.74 C89.7551433,459.62 83.3421433,462.55 77.9411433,467.42 C73.5691433,471.36 69.3631433,481.22 67.8571433,487 C67.7271433,487.54 67.3941433,487.45 67.0461433,487.45 C61.5161433,487.45 56.8471433,482.17 51.3161433,482.17 C51.0561433,482.17 50.8101433,482.17 50.4911433,482.17 C50.5491433,481.91 50.5641433,481.75 50.6211433,481.59 C51.3891433,479.31 51.7801433,476.96 51.7801433,474.56 C51.7511433,466.79 48.6811433,460.66 41.7031433,456.9 C38.8361433,455.35 35.7671433,454.08 32.6831433,453 C22.7661433,449.53 10.9761433,446.04 1.03014332,442.64 C0.639143317,442.51 0.219143317,442.21 -0.0268566829,441.87 C-2.56085668,438.33 -5.06585668,434.76 -7.58485668,431.19 C-7.72985668,430.99 -7.84485668,430.79 -8.09185668,430.41 C-7.58485668,427.72 -10.4508567,429.33 -7.12185668,430.86 Z M59.5251433,464 C60.9011433,465.83 61.5811433,468 62.1601433,470.39 C64.8681433,466.5 68.3141433,463.58 71.8751433,460.7 C66.1851433,460.98 60.6401433,460.27 55.1971433,458.74 C56.6731433,460.5 58.1791433,462.19 59.5251433,464 Z" id="Shape" fill="#D9D8DD" fill-rule="nonzero" mask="url(#mask-4)" transform="translate(58.529942, 458.210298) scale(-1, 1) translate(-58.529942, -458.210298) "></path>
                    <path d="M-18.4624352,441.008983 C-18.6379532,443.349223 -16.3331861,445.086253 -14.1318641,444.272796 L7.11266096,436.422288 L10.6082172,452.1588 C11.0840833,454.301084 13.5153736,455.35151 15.4014736,454.229701 L35.2744736,442.409701 C36.8041374,441.499893 37.3066294,439.52231 36.3968208,437.992646 C35.4870121,436.462982 33.509429,435.96049 31.9797651,436.870299 L15.9343225,446.413756 L12.6040215,431.4212 C12.1805983,429.515007 10.172702,428.420371 8.34110281,429.097204 L-11.6601204,436.488274 L-10.4243261,420.011017 C-10.2497373,417.683166 -12.5310939,415.947774 -14.7278919,416.737361 L-37.4028919,424.887361 C-39.077772,425.489358 -39.9475159,427.335131 -39.3455193,429.010011 C-38.7435227,430.684891 -36.8977495,431.554635 -35.2228694,430.952639 L-17.2229865,424.483 L-18.4624352,441.008983 Z" id="Path" fill="#2A2A2A" fill-rule="nonzero" mask="url(#mask-4)" transform="translate(-1.343070, 435.614451) scale(-1, 1) translate(1.343070, -435.614451) "></path>
                </g>
                <g id="upper-limb" transform="translate(0.417554, 273.211100)">
                    <path d="M616.03911,367.763963 C623.49855,380.987697 624.828229,383.352225 628.052277,389.164381 C651.227296,430.943177 664.175394,459.742058 670.547152,487.249648 C679.5046,525.919954 673.092644,555.483828 647.238209,582.018695 C632.757742,596.880257 633.06668,620.66667 647.928242,635.147137 C662.789803,649.627604 686.576217,649.318666 701.056684,634.457105 C746.043039,588.286806 758.150696,532.461527 743.750241,470.293152 C735.393157,434.214689 720.093822,400.186238 693.761229,352.715121 C690.412493,346.678183 689.05229,344.259376 681.485782,330.845837 C671.291123,312.773237 648.375982,306.386905 630.303383,316.581564 C612.230783,326.776223 605.844451,349.691364 616.03911,367.763963 Z" id="Path" fill="#EBBAAA" fill-rule="nonzero"></path>
                    <path d="M315.153354,252.547316 C304.407219,289.671243 273.132127,342.852585 239.300017,376.890901 C221.140951,395.160647 203.30193,407.10102 187.574211,411.723079 C173.056448,415.989557 160.578901,414.115454 147.407666,404.867578 C130.425837,392.944181 106.993521,397.04485 95.0701242,414.02668 C83.1467272,431.008509 87.2473969,454.440825 104.229226,466.364222 C136.451534,488.988367 172.655883,494.42619 208.760776,483.815689 C238.16193,475.175283 266.226335,456.390651 292.594125,429.862149 C335.319943,386.875917 373.083987,322.660517 387.331539,273.440484 C393.101028,253.509029 381.620486,232.674296 361.689031,226.904807 C341.757575,221.135318 320.922843,232.61586 315.153354,252.547316 Z" id="Path" fill="#EBBAAA" fill-rule="nonzero"></path>
                    <path d="M321.071446,217.8919 C360.852446,181.3749 423.872446,189.1629 453.567446,234.2649 C481.258446,276.3249 467.903446,333.0139 424.349446,358.2889 L308.595446,425.4619 L198.929446,330.0119 L321.071446,217.8919 Z" id="Path" fill="#C65829" fill-rule="nonzero"></path>
                    <path d="M638.890446,222.4739 C603.856446,181.3809 540.356446,181.4309 505.386446,222.5779 C472.776446,260.9489 479.122446,318.8429 519.272446,349.2379 L625.977446,430.0169 L746.458446,348.6439 L638.890446,222.4739 Z" id="Path" fill="#E06F3F" fill-rule="nonzero"></path>
                    <g id="Clipped" transform="translate(309.582446, 195.788900)">
                        <mask id="mask-6" fill="white">
                            <use xlink:href="#path-5"></use>
                        </mask>
                        <use id="Path" fill="#D8612E" fill-rule="nonzero" xlink:href="#path-5"></use>
                        <g id="Group" mask="url(#mask-6)" fill-rule="nonzero">
                            <g transform="translate(-13.000000, 21.000000)" id="Path">
                                <polygon fill="#F19F3E" points="6.23223124 376.212397 323.044231 364.026397 322.419769 347.791603 5.60776876 359.977603"></polygon>
                                <polygon fill="#F19F3E" points="9.14938537 118.29833 323.931385 111.19033 323.564615 94.9476702 8.78261463 102.05567"></polygon>
                                <polygon fill="#F19F3E" points="11.1726154 149.267029 327.984615 137.082029 327.633385 127.949971 10.8213846 140.134971"></polygon>
                                <polygon fill="#F19F3E" points="6.02249346 53.8202554 322.834493 46.7122554 322.629507 37.5757446 5.81750654 44.6837446"></polygon>
                                <polygon fill="#F19F3E" points="1.05764187 392.968724 317.869642 380.783724 317.440358 369.622276 0.628358131 381.807276"></polygon>
                                <polygon fill="#FFAB48" points="1.858 329.5081 319.686 329.5081 319.686 319.3539 1.858 319.3539"></polygon>
                                <polygon fill="#FFAB48" points="6.7891324 419.878975 322.585132 429.017975 322.878868 418.868025 7.0828676 409.729025"></polygon>
                                <polygon fill="#E2852F" points="5.92 286.8604 319.686 286.8604 319.686 270.6136 5.92 270.6136"></polygon>
                                <polygon fill="#E2852F" points="6.936 169.0714 320.701 169.0714 320.701 152.8246 6.936 152.8246"></polygon>
                                <polygon fill="#E2852F" points="7.951 231.012695 321.717 231.012695 321.717 222.889305 7.951 222.889305"></polygon>
                                <polygon fill="#E2852F" points="12.013 8.634695 325.779 8.634695 325.779 0.511305 12.013 0.511305"></polygon>
                                <polygon fill="#FFAB48" points="4.79762838 26.4038178 321.609628 32.4958178 321.824372 21.3281822 5.01237162 15.2361822"></polygon>
                            </g>
                        </g>
                    </g>
                    <circle id="Oval" fill="#C65829" fill-rule="nonzero" cx="464.970446" cy="237.6089" r="69.0488"></circle>
                    <rect id="Rectangle" fill="#EBBAAA" fill-rule="nonzero" x="419.836446" y="155.1519" width="91.7357" height="119.882" rx="45.86785"></rect>
                    <g id="Group-4" transform="translate(666.000739, 527.354900)" fill-rule="nonzero">
                        <path d="M0.530707283,24.527 C24.9007073,24.527 38.7787073,31.974 45.2097073,37.728 C53.3327073,35.02 65.7207073,26.558 58.4097073,16.404 C51.0987073,6.25 19.8237073,1.511 8.14670728,0.157 C0.530707283,8.788 -0.992292717,15.896 0.530707283,24.527 Z" id="Path" fill="#1D1C1C"></path>
                        <polygon id="Path" fill="#3C3C3C" points="69.0067073 0 89.9167073 11.118 94.6217073 24.688 76.0917073 59.538 62.7397073 62.23 41.8297073 51.112 37.5907073 39.067 56.1207073 4.217"></polygon>
                        <rect id="Rectangle" fill="#AFB0B1" transform="translate(68.718712, 33.003761) rotate(28.000000) translate(-68.718712, -33.003761) " x="57.8449621" y="17.2159106" width="21.7475" height="31.5757" rx="3.04627"></rect>
                    </g>
                    <g id="Group-3" fill-rule="nonzero">
                        <path d="M118.308624,109.82127 C119.106291,110.90287 119.95667,112.083103 120.841353,113.339048 C131.508483,128.482704 142.40266,147.402237 150.192191,166.029323 C155.345866,178.353127 154.771258,186.520013 149.78883,192.942901 C145.645241,198.284435 139.609176,202.035767 126.011297,208.549847 C125.604505,208.744721 124.189981,209.421452 123.946663,209.537957 C112.357862,215.086854 106.886692,218.158552 101.620638,222.763564 C94.1264023,229.317056 90.2788861,237.283338 90.7953204,247.094828 C91.5917073,262.225002 96.2451617,273.971455 105.376856,288.63465 C106.18637,289.934523 110.882325,297.271013 112.074505,299.231939 C114.240968,302.795391 115.682125,305.558912 116.649405,308.098198 C118.496564,312.947326 118.571589,316.929796 116.698009,321.338328 C115.76422,323.535453 114.814195,325.857846 113.725777,328.58783 C114.233743,327.313743 109.119029,340.296613 107.797606,343.483151 C105.058831,350.087555 102.854277,354.554681 100.757339,357.57677 C99.7454446,359.035103 98.8286131,360.042557 98.0664952,360.604969 C97.6466626,360.914788 97.4626199,360.98265 97.3864464,360.98265 L97.3864464,374.18315 C103.083544,374.18315 107.629312,370.828561 111.602748,365.10208 C114.369399,361.114808 116.918247,355.950033 119.991227,348.539713 C120.87328,346.412691 121.759813,344.200968 122.984446,341.092435 C123.304257,340.280648 124.398852,337.494678 124.480312,337.287581 C125.076032,335.773076 125.536817,334.607342 125.987663,333.476526 C127.04222,330.831474 127.956433,328.596625 128.84685,326.501551 C132.130805,318.774407 131.989744,311.286588 128.985218,303.399165 C127.683137,299.980966 125.901558,296.564661 123.353999,292.374373 C122.065562,290.255121 117.316128,282.835081 116.582109,281.656433 C108.523918,268.717013 104.635565,258.901864 103.977572,246.400972 C103.450962,236.396147 109.539209,231.072152 129.647464,221.444009 C129.887712,221.328974 131.3038,220.651494 131.714381,220.454805 C147.205927,213.033562 154.359118,208.587951 160.219015,201.03391 C168.326321,190.582718 169.254083,177.396468 162.370689,160.936448 C154.177257,141.343515 142.81611,121.613012 131.63329,105.737252 C127.551015,99.9418254 124.183377,95.6666122 122.533291,94.2939423 C122.236449,94.0470055 121.928291,93.8204599 121.557443,93.5985724 C120.619237,93.0372214 119.640077,92.6571468 118.213183,92.6257218 C115.050559,92.5608696 112.333619,94.7136977 111.613166,97.7233836 C111.30066,99.028876 111.39314,100.018875 111.652651,101.020585 C111.917123,102.041441 112.29464,102.781427 112.971194,103.91247 C113.840103,105.365084 115.335497,107.575272 117.409526,110.466287 L118.308624,109.82127 Z" id="Path" fill="#DDE1E4"></path>
                        <path d="M98.1644464,358.3839 C103.744446,360.7969 104.793446,368.2599 100.094446,372.1179 L38.2915464,422.8619 C33.3906464,426.8859 25.9748464,423.9929 25.0923464,417.7139 L13.4997464,335.2279 C12.6171464,328.9479 18.9484464,324.1239 24.7686464,326.6409 L98.1644464,358.3839 Z" id="Path" fill="#CAB28D"></path>
                        <path d="M88.4744464,326.5849 C88.9334464,318.8399 99.6994464,317.3269 102.275446,324.6459 L163.668446,499.1059 C165.158446,503.3409 162.398446,507.8799 157.952446,508.5039 L85.6324464,518.6679 C81.1864464,519.2929 77.2823464,515.6909 77.5475464,511.2099 L88.4744464,326.5849 Z" id="Path" fill="#E0C398"></path>
                        <rect id="Rectangle" fill="#CAB28D" transform="translate(120.400717, 503.680597) rotate(-8.000000) translate(-120.400717, -503.680597) " x="68.2107173" y="490.198247" width="104.38" height="26.9647" rx="13.48235"></rect>
                        <rect id="Rectangle" fill="#CAB28D" transform="translate(113.621381, 455.444426) rotate(-8.000000) translate(-113.621381, -455.444426) " x="73.6092313" y="441.962076" width="80.0243" height="26.9647" rx="13.48235"></rect>
                        <path d="M106.007446,356.8379 C101.298446,360.6949 102.349446,368.1709 107.939446,370.5809 L186.198446,404.3219 C192.017446,406.8309 198.341446,402.0069 197.459446,395.7319 L185.127446,307.9859 C184.245446,301.7109 176.837446,298.8169 171.935446,302.8329 L106.007446,356.8379 Z" id="Path" fill="#CAB28D"></path>
                        <rect id="Rectangle" fill="#E0C398" transform="translate(185.754500, 353.077053) rotate(-98.000000) translate(-185.754500, -353.077053) " x="130.5205" y="339.594703" width="110.468" height="26.9647" rx="13.48235"></rect>
                        <rect id="Rectangle" fill="#E0C398" transform="translate(21.234000, 376.199053) rotate(-98.000000) translate(-21.234000, -376.199053) " x="-34" y="362.716703" width="110.468" height="26.9647" rx="13.48235"></rect>
                        <path d="M142.952446,473.0039 C143.806446,497.4569 123.899446,509.1339 98.8704464,510.0079 C73.8411464,510.8819 49.0008464,500.7679 48.1469464,476.3139 C47.2930464,451.8609 59.1184464,402.9149 84.1474464,402.0409 C109.176446,401.1669 142.098446,448.5499 142.952446,473.0039 Z" id="Path" fill="#EED4CC"></path>
                        <circle id="Oval" fill="#2A89E0" cx="86.7254464" cy="70.5719" r="70.5719"></circle>
                    </g>
                </g>
                <g id="head" transform="translate(284.642000, 0.744180)">
                    <path d="M121.069,292.31482 C121.069,324.02582 108.489,355.81982 75.057,355.81982 C41.624,355.81982 0,324.02582 0,292.31482 C0,260.60282 27.102,234.89582 60.535,234.89582 C93.967,234.89582 121.069,260.60282 121.069,292.31482 Z" id="Path" fill="#EBBAAA" fill-rule="nonzero"></path>
                    <path d="M250.81,292.31482 C250.81,324.02582 263.39,355.81982 296.822,355.81982 C330.255,355.81982 371.879,324.02582 371.879,292.31482 C371.879,260.60282 344.777,234.89582 311.344,234.89582 C277.912,234.89582 250.81,260.60282 250.81,292.31482 Z" id="Path" fill="#EBBAAA" fill-rule="nonzero"></path>
                    <path d="M31.476,188.86882 C27.605,103.30082 95.933,31.81102 181.589,31.81102 C268.509,31.81102 337.3,105.33682 331.522,192.06482 L325.951,284.65182 L313.637,381.11582 C311.696,396.31982 309.137,411.68382 302.029,425.26382 C284.071,459.57082 250.306,481.64382 198.473,481.64382 L170.186,481.64382 C103.305,481.64382 53.818,441.02682 45.694,403.96382 L31.774,299.88282 L31.774,195.43382 L31.476,188.86882 Z" id="Path" fill="#EED4CC" fill-rule="nonzero"></path>
                    <path d="M144.923497,401.940147 C160.687065,395.743113 173.479128,396.475087 199.55601,404.731532 C203.672582,406.034919 208.066326,403.754381 209.369712,399.63781 C210.673099,395.521238 208.392561,391.127494 204.27599,389.824108 C175.095008,380.584844 158.868439,379.656345 139.202503,387.387493 C135.183898,388.967302 133.206864,393.505713 134.786673,397.524317 C136.366482,401.542922 140.904893,403.519956 144.923497,401.940147 Z" id="Path" fill="#C99584" fill-rule="nonzero"></path>
                    <path d="M276.779013,225.374835 C281.054257,226.735106 285.622745,224.372052 286.983015,220.096807 C288.343286,215.821563 285.980232,211.253075 281.704987,209.892805 L257.438178,202.171744 L216.355806,209.641458 C211.941746,210.444035 209.014061,214.672954 209.816638,219.087014 C210.619215,223.501074 214.848134,226.428759 219.262194,225.626182 L256.365822,218.879896 L276.779013,225.374835 Z" id="Path" fill="#6F6C6C" fill-rule="nonzero"></path>
                    <path d="M137.151806,225.190182 C141.565866,225.992759 145.794785,223.065074 146.597362,218.651014 C147.399939,214.236954 144.472254,210.008035 140.058194,209.205458 L98.975822,201.735744 L74.7090126,209.456805 C70.4337678,210.817075 68.0707141,215.385563 69.4309845,219.660807 C70.7912549,223.936052 75.3597426,226.299106 79.6349874,224.938835 L100.048178,218.443896 L137.151806,225.190182 Z" id="Path" fill="#6F6C6C" fill-rule="nonzero"></path>
                    <path d="M107.813,261.25082 L126.23,262.91082" id="Path" stroke="#000000" stroke-width="25.0188" stroke-linecap="round"></path>
                    <path d="M250.228,260.87182 L231.777,262.57682" id="Path" stroke="#000000" stroke-width="25.0188" stroke-linecap="round"></path>
                    <path d="M169.790075,330.442402 C169.523711,325.966554 170.748469,319.111206 173.355435,309.797293 C174.014948,307.44105 174.750369,304.960182 175.654801,302.014829 C175.649746,302.03129 178.773725,292.004372 179.534437,289.432119 C180.905244,284.796912 181.726503,281.494819 182.104475,278.742243 L164.547525,276.331397 C164.324193,277.957813 163.672686,280.57737 162.540322,284.406316 C161.822563,286.833328 158.743398,296.716409 158.713816,296.812744 C157.769438,299.888183 156.994168,302.503478 156.289633,305.020572 C153.184238,316.115227 151.684094,324.511992 152.099674,331.495183 C152.769525,342.751024 159.114885,350.53867 170.534,350.53867 L185.65,350.53867 L185.65,332.81697 L170.534,332.81697 C170.377468,332.81697 170.24778,332.812419 170.14272,332.805674 C170.013715,332.392126 169.85971,331.612516 169.790075,330.442402 Z" id="Path" fill="#EBBAAA" fill-rule="nonzero"></path>
                    <path d="M290.411,167.19782 L290.411,90.92762 C290.411,79.40232 290.67,76.48702 327.943,104.14782 C365.215,131.80882 360.298,208.40282 344.767,240.94482 L330.531,282.62082 L314.354,276.01082 L317.589,226.68882 C299.471,208.36482 290.411,191.60482 290.411,167.19782 Z" id="Path" fill="#6E6C6C" fill-rule="nonzero"></path>
                    <path d="M58.895,161.09782 L58.895,84.83432 C58.895,73.31002 58.715,70.39502 32.89,98.05382 C7.066,125.71182 8.854,196.77182 19.614,229.31082 L26.063,259.26582 L37.789,259.26582 L37.789,221.69482 C54.792,195.29382 58.895,185.50282 58.895,161.09782 Z" id="Path" fill="#6E6C6C" fill-rule="nonzero"></path>
                    <path d="M211.585,91.33002 C155.521,78.67042 115.93,101.35982 97.845,108.28782 C79.76,115.21682 69.587,124.11282 55.6,133.15182 C42.036,132.24782 35.112,108.85282 36.807,95.85482 C36.807,74.37842 60.318,49.05922 95.584,29.16552 C139.667,4.2984 221.5,-2.49375 288.869,38.20822 C343.125,70.98752 338.604,128.63382 320.518,145.58882 C302.433,162.54382 281.665,107.15482 211.585,91.33002 Z" id="Path" fill="#1F1F20" fill-rule="nonzero"></path>
                    <path d="M106.887,100.96082 C148.898,109.13182 137.854,79.07582 137.854,64.85882 L137.854,32.55652 C137.854,19.42552 222.125,38.22362 229.418,79.07582 C235.253,111.75782 201.703,132.57282 187.116,133.05882 C156.483,134.08082 121.474,127.22282 106.887,100.96082 Z" id="Path" fill="#1F1F20" fill-rule="nonzero"></path>
                    <path d="M217.659,119.59182 C240.774,125.89882 226.816,84.41232 217.659,73.81332 C217.659,70.05912 226.816,60.14792 226.816,52.03892 C226.816,41.90262 273.182,52.87712 277.195,84.41232 C280.406,109.64082 268.24,120.51682 261.742,125.24282 C249.308,134.28582 225.685,139.86382 217.659,119.59182 Z" id="Path" fill="#1F1F20" fill-rule="nonzero"></path>
                    <path d="M80.89,126.37382 C104.005,132.68082 106.887,96.98482 106.887,91.19422 C113.669,63.07522 137.406,59.6843196 149.84,59.6843196 L149.864,59.6843196 C159.993,59.6843196 170.697,59.6843196 174.707,91.19422 C177.917,116.42282 149.84,126.37382 128.929,134.28582 C114.55,139.72682 88.916,146.64582 80.89,126.37382 Z" id="Path" fill="#1F1F20" fill-rule="nonzero"></path>
                    <path d="M99.026,0 C99.026,29.19972 131.696,30.39752 150.565,29.19972 L173.529,40.15292 C184.406,45.34122 146.215,95.10242 110.087,83.75392 C81.185,74.67502 76.444,54.57712 75.074,44.39732 C72.453,24.91872 75.074,14.69422 99.026,0 Z" id="Path" fill="#1F1F20" fill-rule="nonzero"></path>
                    <path d="M132.936,0 C132.936,29.19972 165.605,30.39752 184.474,29.19972 L207.438,40.15292 C218.316,45.34122 180.124,95.10242 143.997,83.75392 C115.095,74.67502 110.353,54.57712 108.984,44.39732 C106.363,24.91872 108.984,14.69422 132.936,0 Z" id="Path" fill="#1F1F20" fill-rule="nonzero"></path>
                    <path d="M322.837,55.73122 C322.837,72.50602 299.856,73.09372 289.016,72.40562 L275.823,78.69802 C269.574,81.67872 291.515,110.26582 312.269,103.74582 C328.873,98.53082 331.597,86.98452 332.384,81.13642 C333.889,69.94622 332.384,62.51322 322.837,55.73122 Z" id="Path" fill="#1F1F20" fill-rule="nonzero"></path>
                    <path d="M161.052969,273.602779 C161.48003,273.430157 162.072894,273.229935 162.831853,273.024344 C165.68613,272.251164 169.340915,271.800885 173.82404,271.918319 C177.932758,272.025626 181.457139,272.636501 184.388685,273.557171 C185.41646,273.879951 186.256391,274.205785 186.902721,274.503146 C187.065272,274.577933 187.181686,274.635363 187.251205,274.671884 L187.231612,274.661043 C187.20692,274.647338 187.172612,274.627835 187.128616,274.602213 C193.600752,278.384818 201.931843,276.260814 205.797635,269.811711 C209.690078,263.318149 207.581453,254.898628 201.087891,251.006185 C199.242825,249.900195 196.403121,248.593711 192.603387,247.400381 C187.296172,245.733617 181.255901,244.686667 174.540892,244.511293 C167.365969,244.323347 161.057089,245.100619 155.663515,246.561655 C152.415533,247.441484 149.964445,248.432235 148.322604,249.312509 C141.65028,252.889876 139.141321,261.198892 142.718689,267.871216 C146.237541,274.434402 154.334519,276.969307 160.948696,273.645798 C160.971936,273.635958 161.006698,273.621482 161.052969,273.602779 Z M186.992109,274.521455 C187.036569,274.548106 187.081119,274.574475 187.125757,274.600563 C187.090427,274.579973 187.044941,274.553124 186.992109,274.521455 Z" id="Path" fill="#2E2622" fill-rule="nonzero"></path>
                    <path d="M46.8218672,238.821946 C41.2365807,242.038794 38.4439375,247.450021 38.4439375,255.055625 C38.4439375,266.464031 44.5853757,298.545859 49.2529378,304.25875 C53.9205,309.97164 66.486,320.546888 96.358,319.240221 C126.23,317.933554 146.950739,310.093711 148.317961,300.039023 C149.685183,289.984336 157.776911,276.425195 153.731047,262.91082 C149.685183,249.396445 133.66432,234.89582 107.888113,234.89582 C90.7039752,234.89582 70.3485599,236.204529 46.8218672,238.821946 Z" id="Path-2" fill="#2C2F32"></path>
                    <path d="M204.73593,243.181946 C199.150643,246.398794 196.358,251.810021 196.358,259.415625 C196.358,270.824031 202.499438,302.905859 207.167,308.61875 C211.834562,314.33164 224.400062,324.906888 254.272063,323.600221 C284.144063,322.293554 304.864801,314.453711 306.232023,304.399023 C307.599245,294.344336 315.690973,280.785195 311.645109,267.27082 C307.599245,253.756445 291.578383,239.25582 265.802176,239.25582 C248.618038,239.25582 228.262622,240.564529 204.73593,243.181946 Z" id="Path-2" fill="#2C2F32" transform="translate(254.562641, 281.483386) scale(-1, 1) translate(-254.562641, -281.483386) "></path>
                    <path d="M159.811361,273.946696 C159.379811,290.433458 154.393763,303.261343 144.634974,311.971426 C134.215992,321.271838 118.427111,325.827275 97.0720699,325.268179 C70.3738977,324.56892 55.9324086,320.689951 47.5089454,312.017105 C43.5221289,307.912204 40.7463418,302.626487 38.5979922,295.39322 C36.8421145,289.480757 35.6558368,283.256258 33.6810214,270.644252 C32.1818835,261.070354 32.6712655,253.467 35.099386,247.533289 C37.4245745,241.853545 41.5386489,237.663832 47.5255268,234.710273 C53.0908692,231.965857 60.2935401,230.269663 69.5087833,229.402103 C77.5347393,228.645959 86.964042,228.505044 99.5978557,228.835459 C124.317064,229.482523 140.466337,234.559079 149.722111,243.612267 C157.329262,251.052917 160.155515,260.801267 159.811361,273.946696 Z M149.660638,273.68097 C149.937731,263.097047 147.886031,256.020297 142.621889,250.871373 C135.495629,243.90109 121.725295,239.572358 99.3322632,238.986185 C87.0703307,238.665496 78.0030787,238.801 70.4608742,239.511569 C62.3720674,240.273082 56.3078585,241.701173 52.0172521,243.816983 C48.1755625,245.712238 45.8456993,248.084936 44.4969021,251.379647 C42.8509829,255.401857 42.4784687,261.189476 43.7129815,269.073407 C45.6176327,281.237315 46.7481268,287.169112 48.3319673,292.502284 C50.0486615,298.282213 52.0786158,302.147698 54.7930323,304.942512 C60.8789981,311.208658 73.0646528,314.481712 97.3378778,315.117459 C116.308258,315.614122 129.603134,311.77826 137.873245,304.396018 C145.346226,297.726105 149.297324,287.560892 149.660638,273.68097 Z" id="Path" fill="#2E2622" fill-rule="nonzero"></path>
                    <path d="M24.591,250.71782 C24.364,248.29382 26.307,246.21582 28.741,246.27982 L43.451,246.66482 L42.786,272.04182 L30.147,271.71082 C28.092,271.65682 26.401,270.07582 26.21,268.02882 L24.591,250.71782 Z" id="Path" fill="#2E2622" fill-rule="nonzero"></path>
                    <path d="M204.183419,313.531276 C214.100453,323.363915 229.629526,328.739071 250.985122,329.298181 C277.683904,329.997456 292.308856,326.879529 301.174192,318.65863 C305.369383,314.769692 308.41785,309.636332 310.942567,302.524307 C313.005206,296.712832 314.5149,290.561656 317.147988,278.066738 C319.146127,268.585454 319.055186,260.96588 316.941019,254.914332 C314.917351,249.119852 311.027082,244.719288 305.202461,241.457892 C299.791098,238.426332 292.689258,236.356121 283.528265,235.005977 C275.553573,233.831049 266.146991,233.197091 253.510191,232.865467 C228.789188,232.218356 212.395975,236.442784 202.68033,244.999778 C194.694813,252.031703 191.361769,261.619418 191.017639,274.763944 C190.586096,291.250417 194.893944,304.321352 204.183419,313.531276 Z M209.39133,252.620162 C216.871455,246.032089 230.84974,242.429972 253.244144,243.016181 C265.50896,243.338044 274.554495,243.947669 282.047969,245.051698 C290.088968,246.236777 296.068161,247.979732 300.240566,250.317203 C303.978434,252.410157 306.180915,254.901542 307.354803,258.2628 C308.788156,262.365599 308.857379,268.165539 307.212025,275.972841 C304.672485,288.023841 303.233749,293.885898 301.37333,299.12762 C299.355855,304.810763 297.126435,308.564919 294.270427,311.212436 C287.864868,317.152363 275.524577,319.783218 251.25093,319.147461 C232.279959,318.650782 219.203906,314.124703 211.332678,306.32046 C204.21879,299.267491 200.80505,288.909472 201.168362,275.02967 C201.445428,264.446737 203.865059,257.486512 209.39133,252.620162 Z" id="Path" fill="#2E2622" fill-rule="nonzero"></path>
                    <path d="M327.269,258.64382 C327.622,256.23482 325.791,254.05882 323.357,253.99482 L308.647,253.60982 L307.982,278.98682 L320.621,279.31682 C322.677,279.37082 324.448,277.88082 324.746,275.84582 L327.269,258.64382 Z" id="Path" fill="#2E2622" fill-rule="nonzero"></path>
                </g>
            </g>
        </g>
    </g>
</svg>