<?xml version="1.0" encoding="UTF-8"?>
<svg width="464px" height="1371px" viewBox="0 0 464 1371" version="1.1" xmlns="http://www.w3.org/2000/svg" xmlns:xlink="http://www.w3.org/1999/xlink">
    <!-- Generator: Sketch 55.2 (78181) - https://sketchapp.com -->
    <title>gee_me_072</title>
    <desc>Created with Sketch.</desc>
    <defs>
        <path d="M76.625,0 C76.96,2.046 77.135,4.146 77.135,6.287 L77.135,20.47 C77.135,41.77 59.868,59.037 38.567,59.037 C17.267,59.037 0,41.77 0,20.47 L0,6.287 C0,4.146 0.174,2.046 0.51,0 L76.625,0 Z" id="path-1"></path>
    </defs>
    <g id="GEE!-ME" stroke="none" stroke-width="1" fill="none" fill-rule="evenodd">
        <g id="gee_me_072" transform="translate(-368.000000, -115.000000)">
            <g transform="translate(368.000000, 115.000000)">
                <g id="lower-limb" transform="translate(10.144652, 851.000000)" fill-rule="nonzero">
                    <path d="M287.946972,235 C301.616019,235.005264 312.718628,245.979682 312.934156,259.596202 L312.937346,260.009624 L312.85535,473.009624 C312.85003,486.816742 301.652841,498.005314 287.845723,498 C274.176677,497.994736 263.074067,487.020318 262.85854,473.403798 L262.85535,472.990376 L262.93735,259.990376 C262.942665,246.183258 274.139854,234.994686 287.946972,235 Z" id="Path" fill="#EDBC3D"></path>
                    <path d="M154.946972,235 C168.616019,235.005264 179.718628,245.979682 179.934156,259.596202 L179.937346,260.009624 L179.85535,473.009624 C179.85003,486.816742 168.652841,498.005314 154.845723,498 C141.176677,497.994736 130.074067,487.020318 129.85854,473.403798 L129.85535,472.990376 L129.93735,259.990376 C129.942665,246.183258 141.139854,234.994686 154.946972,235 Z" id="Path" fill="#EDBC3D"></path>
                    <g id="Group-5" transform="translate(252.868348, 437.500000)">
                        <path d="M61.487,17.5 C57.677,8.74 60.987,1.5 68.987,3.41060513e-13 C100.487,32.5 143.487,35.2 155.987,39.2 L154.987,47.2 L129.987,45.2 C105.487,42.7 65.296,26.26 61.487,17.5 Z" id="Path" fill="#3B3937"></path>
                        <path d="M2.273,59.98 C2.273,59.98 -1.513,30.2 9.987,18.5 C9.987,18.5 13.487,32 41.487,28 C60.371,25.3 59.987,7.5 59.987,7.5 C85.42,27.33 139.796,35.84 171.233,42.5 C180.301,42.5 187.652,49.85 187.652,58.92 L187.652,67.27 L88.077,67.27 L2.273,59.98 Z" id="Path" fill="#1C1B19"></path>
                        <path d="M89.1031684,14.549592 C90.7326338,13.8974367 92.5822527,14.689703 93.234408,16.3191684 C93.8632721,17.8904386 93.1490451,19.6664179 91.636186,20.3760167 L91.4648316,20.450408 L86.1678316,22.570408 C84.5383662,23.2225633 82.6887473,22.430297 82.036592,20.8008316 C81.4077279,19.2295614 82.1219549,17.4535821 83.634814,16.7439833 L83.8061684,16.669592 L89.1031684,14.549592 Z" id="Path" fill="#ECECEC"></path>
                        <path d="M77.1031684,8.54959196 C78.7326338,7.89743667 80.5822527,8.68970303 81.234408,10.3191684 C81.8632721,11.8904386 81.1490451,13.6664179 79.636186,14.3760167 L79.4648316,14.450408 L74.1678316,16.570408 C72.5383662,17.2225633 70.6887473,16.430297 70.036592,14.8008316 C69.4077279,13.2295614 70.1219549,11.4535821 71.634814,10.7439833 L71.8061684,10.669592 L77.1031684,8.54959196 Z" id="Path" fill="#ECECEC"></path>
                        <path d="M102.103168,19.549592 C103.732634,18.8974367 105.582253,19.689703 106.234408,21.3191684 C106.863272,22.8904386 106.149045,24.6664179 104.636186,25.3760167 L104.464832,25.450408 L99.1678316,27.570408 C97.5383662,28.2225633 95.6887473,27.430297 95.036592,25.8008316 C94.4077279,24.2295614 95.1219549,22.4535821 96.634814,21.7439833 L96.8061684,21.669592 L102.103168,19.549592 Z" id="Path" fill="#ECECEC"></path>
                        <path d="M115.103168,24.549592 C116.732634,23.8974367 118.582253,24.689703 119.234408,26.3191684 C119.863272,27.8904386 119.149045,29.6664179 117.636186,30.3760167 L117.464832,30.450408 L112.167832,32.570408 C110.538366,33.2225633 108.688747,32.430297 108.036592,30.8008316 C107.407728,29.2295614 108.121955,27.4535821 109.634814,26.7439833 L109.806168,26.669592 L115.103168,24.549592 Z" id="Path" fill="#ECECEC"></path>
                        <path d="M128.103168,29.549592 C129.732634,28.8974367 131.582253,29.689703 132.234408,31.3191684 C132.863272,32.8904386 132.149045,34.6664179 130.636186,35.3760167 L130.464832,35.450408 L125.167832,37.570408 C123.538366,38.2225633 121.688747,37.430297 121.036592,35.8008316 C120.407728,34.2295614 121.121955,32.4535821 122.634814,31.7439833 L122.806168,31.669592 L128.103168,29.549592 Z" id="Path" fill="#ECECEC"></path>
                        <path d="M1.059,58.95 L94.809,63.18 L187.987,59.2 L189.469,71.11 C189.93,74.82 187.111,78.12 183.378,78.25 L96.753,81.19 L48.376,81.72 L2.84217094e-14,80.13 L1.059,58.95 Z" id="Path" fill="#D0CEC1"></path>
                        <path d="M0.454332107,73.2472733 L0.605667893,69.0127267 L27.5871223,70.0321836 L40.2570879,70.4774161 C53.0251355,70.9015955 62.6222458,71.131375 68.856,71.131375 L70.3936636,71.1265283 C83.4650489,71.0484801 110.710258,70.0418935 122.395574,69.1310864 L123.75533,69.0193515 L124.12267,73.2406485 L122.747858,73.3536678 C110.617383,74.2998768 82.0741188,75.3408489 69.3562001,75.3680791 L67.2820022,75.3642178 C60.1842416,75.3261012 49.4887795,75.0417597 35.3766934,74.5510654 L0.454332107,73.2472733 Z" id="Path" fill="#1C1B19"></path>
                        <path d="M119.987,80.2 L121.291,70.6 L121.291,66.89 L188.487,63.7 L189.68,72.35 C190.111,75.47 187.735,78.28 184.583,78.37 L119.987,80.2 Z" id="Path" fill="#ECEADF"></path>
                        <path d="M187.987,59.2 C188.787,45.2 177.987,41.2 155.987,39.2 C155.987,39.2 152.758,40.01 146.987,47.7 C142.487,53.7 141.487,61.2 141.487,61.2 L187.987,59.2 Z" id="Path" fill="#ECEADF"></path>
                    </g>
                    <g id="Group-6" transform="translate(0.000000, 437.500000)">
                        <path d="M128.243348,17.5 C132.053348,8.74 128.743348,1.5 120.743348,3.41060513e-13 C89.2435477,32.5 46.2435477,35.2 33.7435477,39.2 L34.7435477,47.2 L59.7436477,45.2 C84.2436477,42.7 124.434348,26.26 128.243348,17.5 Z" id="Path" fill="#3B3937"></path>
                        <path d="M187.457348,59.98 C187.457348,59.98 191.243348,30.2 179.743348,18.5 C179.743348,18.5 176.243348,32 148.243348,28 C129.360348,25.3 129.743348,7.5 129.743348,7.5 C104.310348,27.33 49.9344477,35.84 18.4975477,42.5 C9.42954767,42.5 2.07824767,49.85 2.07824767,58.92 L2.07824767,67.27 L101.653348,67.27 L187.457348,59.98 Z" id="Path" fill="#1C1B19"></path>
                        <path d="M96.4959396,16.3191684 C97.1248037,14.7478982 98.8671257,13.955095 100.451816,14.4852176 L100.627179,14.549592 L105.924179,16.669592 C107.553645,17.3217473 108.345911,19.1713662 107.693756,20.8008316 C107.064892,22.3721018 105.32257,23.164905 103.737879,22.6347824 L103.562516,22.570408 L98.2655161,20.450408 C96.6360507,19.7982527 95.8437843,17.9486338 96.4959396,16.3191684 Z" id="Path" fill="#ECECEC"></path>
                        <path d="M108.49594,10.3191684 C109.124804,8.74789822 110.867126,7.95509498 112.451816,8.48521765 L112.627179,8.54959196 L117.924179,10.669592 C119.553645,11.3217473 120.345911,13.1713662 119.693756,14.8008316 C119.064892,16.3721018 117.32257,17.164905 115.737879,16.6347824 L115.562516,16.570408 L110.265516,14.450408 C108.636051,13.7982527 107.843784,11.9486338 108.49594,10.3191684 Z" id="Path" fill="#ECECEC"></path>
                        <path d="M83.4960473,21.3191492 C84.1249216,19.7478831 85.8672487,18.9550912 87.4519355,19.4852242 L87.6272985,19.5495997 L92.9241985,21.6695997 C94.5536596,22.3217656 95.3459139,24.1713897 94.693748,25.8008508 C94.0648738,27.3721169 92.3225466,28.1649088 90.7378598,27.6347758 L90.5624968,27.5704003 L85.2655968,25.4504003 C83.6361357,24.7982344 82.8438814,22.9486103 83.4960473,21.3191492 Z" id="Path" fill="#ECECEC"></path>
                        <path d="M70.4960319,26.3191876 C71.1248857,24.7479133 72.8672026,23.9550988 74.4518962,24.4852111 L74.6272601,24.5495843 L79.9243601,26.6695843 C81.5538297,27.321729 82.3461081,29.1713428 81.6939634,30.8008124 C81.0651096,32.3720867 79.3227928,33.1649012 77.7380991,32.6347889 L77.5627353,32.5704157 L72.2656353,30.4504157 C70.6361657,29.798271 69.8438873,27.9486572 70.4960319,26.3191876 Z" id="Path" fill="#ECECEC"></path>
                        <path d="M57.4960319,31.3191876 C58.1248857,29.7479133 59.8672026,28.9550988 61.4518962,29.4852111 L61.6272601,29.5495843 L66.9243601,31.6695843 C68.5538297,32.321729 69.3461081,34.1713428 68.6939634,35.8008124 C68.0651096,37.3720867 66.3227928,38.1649012 64.7380991,37.6347889 L64.5627353,37.5704157 L59.2656353,35.4504157 C57.6361657,34.798271 56.8438873,32.9486572 57.4960319,31.3191876 Z" id="Path" fill="#ECECEC"></path>
                        <path d="M188.671348,58.95 L94.9213477,63.18 L1.74324767,59.2 L0.261447669,71.11 C-0.199612331,74.82 2.61974767,78.12 6.35284767,78.25 L92.9773477,81.19 L141.354348,81.72 L189.730348,80.13 L188.671348,58.95 Z" id="Path" fill="#D0CEC1"></path>
                        <path d="M189.12468,69.0127267 L189.276016,73.2472733 L162.298781,74.2665799 L154.354735,74.5510326 C139.970936,75.0511837 129.136725,75.3369598 122.043809,75.3661433 L120.375123,75.3680791 L118.796161,75.3601777 C105.42063,75.2587215 78.6062709,74.2614751 66.9640691,73.3522334 L65.6075864,73.2406493 L65.9749089,69.0193507 L67.3347504,69.1310879 C79.1808059,70.0543887 107.01505,71.0760767 119.866761,71.1292104 L121.639501,71.1302743 C127.621598,71.1134139 136.444132,70.9032584 147.957277,70.5273581 L156.40193,70.2393532 L189.12468,69.0127267 Z" id="Path" fill="#1C1B19"></path>
                        <path d="M69.7435477,80.2 L68.4393477,70.6 L68.4393477,66.89 L1.24354767,63.7 L0.0505476694,72.35 C-0.380252331,75.47 1.99584767,78.28 5.14724767,78.37 L69.7435477,80.2 Z" id="Path" fill="#ECEADF"></path>
                        <path d="M1.74354767,59.2 C0.943547669,45.2 11.7435477,41.2 33.7435477,39.2 C33.7435477,39.2 36.9729477,40.01 42.7435477,47.7 C47.2435477,53.7 48.2435477,61.2 48.2435477,61.2 L1.74354767,59.2 Z" id="Path" fill="#ECEADF"></path>
                    </g>
                    <path d="M221.855348,105 C285.368348,105 336.855348,81.495 336.855348,52.5 C336.855348,23.505 285.368348,0 221.855348,0 C158.342348,0 106.855348,23.505 106.855348,52.5 C106.855348,81.495 158.342348,105 221.855348,105 Z" id="Path" fill="#385B75"></path>
                    <polygon id="Path" fill="#385B75" points="213.855348 30 333.855348 30 323.141348 437 265.141348 437 248.855348 394"></polygon>
                    <polygon id="Path" fill="#385B75" points="229.855348 30 109.855348 30 120.570348 437 178.570348 437 194.855348 394"></polygon>
                    <polygon id="Path" fill="#5F86A3" points="248.855348 408 326.855348 408 326.855348 437 252.598348 437"></polygon>
                    <polygon id="Path" fill="#5F86A3" points="194.855348 408 116.855348 408 116.855348 437 191.112348 437"></polygon>
                </g>
                <g id="upper-limb" transform="translate(-0.000028, 302.000000)" fill-rule="nonzero">
                    <ellipse id="Oval" fill="#3D2C18" cx="232.000028" cy="117" rx="145" ry="117"></ellipse>
                    <path d="M164.000028,574.005 L185.000028,143.5 L232.000028,119 L279.500028,143.5 L300.000028,574.005 C300.000028,574.005 252.325028,586 232.000028,586 C211.675028,586 164.000028,574.005 164.000028,574.005 Z" id="Path" fill="#F2F2F2"></path>
                    <path d="M197.000028,95 C197.000028,75.67 212.670028,60 232.000028,60 C251.330028,60 267.000028,75.67 267.000028,95 L267.000028,140 C267.000028,159.33 251.330028,175 232.000028,175 C212.670028,175 197.000028,159.33 197.000028,140 L197.000028,95 Z" id="Path" fill="#EBBAAA"></path>
                    <path d="M57.6796281,211.23 C81.8086281,163.476 121.244028,167.08 138.000028,168.889 L106.722028,334.399 L106.722028,576 C-36.6654719,535.551 -17.1263719,359.279 57.6796281,211.23 Z" id="Path" fill="#A1D9EB"></path>
                    <path d="M406.320028,211.23 C382.191028,163.476 342.756028,167.08 326.000028,168.889 L357.278028,334.399 L357.278028,576 C500.666028,535.551 481.126028,359.279 406.320028,211.23 Z" id="Path" fill="#A1D9EB"></path>
                    <path d="M264.004028,708 L412.000028,671.8 L390.608028,422.978 L369.215028,174.155 L267.000028,137 L244.000028,329.659 C252.604028,443.045 264.004028,708 264.004028,708 Z" id="Path" fill="#8CC9DC"></path>
                    <path d="M199.996028,708 L52.0000281,671.8 L73.3923281,422.978 L94.7845281,174.155 L197.000028,137 L220.000028,329 C211.396028,442.386 199.996028,708 199.996028,708 Z" id="Path" fill="#8CC9DC"></path>
                    <polygon id="Path" fill="#66ABC1" points="243.617028 330.654 267.000028 137 338.427671 159.882 267.000028 339.5 254.000028 496.5"></polygon>
                    <polygon id="Path" fill="#66ABC1" points="220.000028 329 197.000028 137 123.440943 159.882 205.500028 323.5 215.000028 406"></polygon>
                    <circle id="Oval" fill="#66ACC1" cx="192.864028" cy="348.528" r="9.87807"></circle>
                    <circle id="Oval" fill="#66ACC1" cx="184.851028" cy="481.526" r="9.87807"></circle>
                    <circle id="Oval" fill="#66ACC1" cx="190.146028" cy="415.526" r="9.87807"></circle>
                    <circle id="Oval" fill="#66ACC1" cx="178.120028" cy="545.948" r="9.87807"></circle>
                    <circle id="Oval" fill="#66ACC1" cx="172.109028" cy="610.78" r="9.87807"></circle>
                </g>
                <g id="hand" transform="translate(42.000012, 0.000000)">
                    <path d="M39.9999883,165 C39.9999883,82.1572 107.156988,15 189.999988,15 C272.842988,15 339.999988,82.1573 339.999988,165 L339.999988,233.374 L333.678988,295.495 C326.193988,369.047 264.257988,425 190.325988,425 C117.817988,425 56.6044883,371.121 47.3998883,299.2 L39.9999883,241.38 L39.9999883,165 Z" id="Path" fill="#F4D5CC" fill-rule="nonzero"></path>
                    <path d="M298.797988,200.339 C266.670988,169.441 275.197988,77.7434 201.906988,77.7434 C189.146988,77.7434 159.747988,8.9704 201.906988,0 C284.232988,0 326.439988,57.8092 344.511988,102.826 C381.680988,195.418 390.694988,351.839 366.598988,459.649 C356.817988,503.411 361.539988,522.026 354.510988,530 C354.510988,530 319.372988,511.313 280.216988,474.434 C302.813988,393.218 323.897988,244.941 298.797988,200.339 Z" id="Path" fill="#3D2C18" fill-rule="nonzero"></path>
                    <path d="M81.2019883,200.339 C113.328988,169.441 104.801988,77.7434 178.092988,77.7434 C190.852988,77.7434 220.251988,8.9704 178.092988,0 C95.7669883,0 53.5597883,57.8092 35.4883883,102.826 C-1.68141171,195.418 -10.6946117,351.839 13.4008883,459.649 C23.1818883,503.411 18.4603883,522.026 25.4885883,530 C25.4885883,530 60.6269883,511.313 99.7829883,474.434 C77.1859883,393.218 56.1020883,244.941 81.2019883,200.339 Z" id="Path" fill="#3D2C18" fill-rule="nonzero"></path>
                    <path d="M158.69661,19.0649637 C161.422156,18.6212702 163.991331,20.4710767 164.435025,23.196622 C164.878718,25.9221673 163.028912,28.4913429 160.303366,28.9350363 L152.436752,30.2287472 C150.18212,30.6080668 148.688218,30.874292 147.114339,31.17252 L146.749334,31.241976 C142.73359,32.0092325 139.738816,32.7354695 136.876994,33.6521588 L136.401103,33.8067435 C131.971919,35.2654745 127.44666,37.2976157 119.26612,41.4569774 C116.804599,42.7085273 113.794561,41.7276523 112.543011,39.2661317 C111.291461,36.804611 112.272336,33.7945726 114.733857,32.5430226 L115.85875,31.9728335 C123.585017,28.0692548 128.252391,25.9875686 132.938165,24.4197398 L133.272936,24.3086083 C136.369952,23.2886206 139.502706,22.4896487 143.445994,21.6987872 L146.568821,21.1018935 C149.160946,20.6268076 152.075691,20.1427877 158.69661,19.0649637 Z" id="Path" fill="#6E5232" fill-rule="nonzero"></path>
                    <path d="M161.155978,37.5118484 C163.910858,37.3218566 166.298148,39.4011095 166.48814,42.1559895 C166.678132,44.9108696 164.598879,47.2981599 161.843999,47.4881516 C149.599578,48.3325945 144.581019,50.1636904 133.131761,57.2513257 C130.783819,58.7048139 127.702151,57.9797154 126.248663,55.6317731 C124.795174,53.2838307 125.520273,50.2021624 127.868215,48.7486743 L129.082255,48.002456 C141.038021,40.7093456 147.592667,38.4472491 161.155978,37.5118484 Z" id="Path" fill="#6E5232" fill-rule="nonzero"></path>
                    <path d="M151.982112,156.434718 C155.292663,156.290087 158.09364,158.856573 158.238271,162.167124 C158.379614,165.402434 155.931674,168.151072 152.730408,168.40933 L152.505865,168.423282 L95.2128648,170.926282 C91.902314,171.070913 89.1013363,168.504427 88.956706,165.193876 C88.8153626,161.958566 91.263303,159.209928 94.4645685,158.95167 L94.6891118,158.937718 L151.982112,156.434718 Z" id="Path" fill="#62360D" fill-rule="nonzero"></path>
                    <path d="M138.80829,202.201325 C141.535845,201.770157 144.096496,203.631747 144.527663,206.359302 C144.947484,209.015079 143.193632,211.512621 140.583194,212.040247 L140.369686,212.078675 L113.433686,216.336675 C110.706131,216.767843 108.145481,214.906253 107.714313,212.178698 C107.294492,209.522921 109.048345,207.025379 111.658782,206.497753 L111.87229,206.459325 L138.80829,202.201325 Z" id="Path" fill="#000000" fill-rule="nonzero"></path>
                    <path d="M237.182342,203.750123 C237.602259,201.094361 240.041026,199.25966 242.686915,199.563043 L242.901865,199.592353 L269.837865,203.851353 C272.565404,204.28262 274.426901,206.843337 273.995635,209.570877 C273.575718,212.226639 271.136951,214.06134 268.491061,213.757957 L268.276112,213.728647 L241.340112,209.469647 C238.612572,209.03838 236.751075,206.477663 237.182342,203.750123 Z" id="Path" fill="#000000" fill-rule="nonzero"></path>
                    <path d="M134.487988,195.139 C141.013445,195.139 146.322381,200.347544 146.484188,206.834025 L146.487988,207.139 L146.487988,235.917 C146.487988,242.544417 141.115405,247.917 134.487988,247.917 C127.962532,247.917 122.653596,242.708456 122.491788,236.221975 L122.487988,235.917 L122.487988,207.139 C122.487988,200.511583 127.860571,195.139 134.487988,195.139 Z" id="Path" fill="#000000" fill-rule="nonzero"></path>
                    <path d="M248.314988,194.531 C254.840445,194.531 260.149381,199.739544 260.311188,206.226025 L260.314988,206.531 L260.314988,235.31 C260.314988,241.937417 254.942405,247.31 248.314988,247.31 C241.789532,247.31 236.480596,242.101456 236.318788,235.614975 L236.314988,235.31 L236.314988,206.531 C236.314988,199.903583 241.687571,194.531 248.314988,194.531 Z" id="Path" fill="#000000" fill-rule="nonzero"></path>
                    <path d="M223.864192,160.201501 C224.062004,156.969151 226.783997,154.491618 229.994716,154.569595 L230.219487,154.579204 L287.460487,158.082204 C290.768008,158.284616 293.285196,161.129978 293.082784,164.437499 C292.884973,167.669849 290.16298,170.147382 286.952261,170.069405 L286.72749,170.059796 L229.48649,166.556796 C226.178969,166.354384 223.661781,163.509022 223.864192,160.201501 Z" id="Path" fill="#62360D" fill-rule="nonzero"></path>
                    <path d="M229.134988,305.604 L229.134988,319.47 C229.134988,340.77 211.867988,358.038 190.566988,358.038 C169.266988,358.038 151.999988,340.77 151.999988,319.47 L151.999988,305.604 L229.134988,305.604 Z" id="Path" fill="#393939"></path>
                    <g id="Clipped" transform="translate(151.999988, 299.000000)">
                        <mask id="mask-2" fill="white">
                            <use xlink:href="#path-1"></use>
                        </mask>
                        <g id="Path"></g>
                        <g id="Group" mask="url(#mask-2)" fill-rule="nonzero">
                            <g transform="translate(0.000000, 4.000000)">
                                <ellipse id="Oval" fill="#FF6C6C" transform="translate(36.510000, 55.942000) scale(-1, 1) translate(-36.510000, -55.942000) " cx="36.51" cy="55.942" rx="23.2582" ry="12.6667"></ellipse>
                                <rect id="Rectangle" fill="#FFFFFF" transform="translate(38.567650, 8.557500) scale(-1, 1) translate(-38.567650, -8.557500) " x="0.0003" y="0.604" width="77.1347" height="15.907"></rect>
                            </g>
                        </g>
                    </g>
                    <path d="M186.802561,232.840048 L200.947416,242.269952 C196.139993,249.481086 192.374988,260.305474 192.374988,268.18 C192.374988,275.773019 195.116983,278.964707 203.511743,279.053108 L203.874988,279.055 L203.874988,296.055 C185.331869,296.055 175.374988,284.853509 175.374988,268.18 C175.374988,256.884891 180.073924,243.173754 186.452965,233.370839 L186.802561,232.840048 Z" id="Path" fill="#EBBAAA" fill-rule="nonzero"></path>
                    <path d="M302.535988,458.147 C295.381988,436.633 299.554988,390.418 302.535988,370 C280.674988,399.382 281.502988,440 281.502988,458.147 C281.502988,482.309 278.686988,532.848 274.215988,553.764 C279.183988,552.27 291.803988,544.203 302.535988,523.884 C315.950988,498.486 311.479988,485.04 302.535988,458.147 Z" id="Path" fill="#3D2C18" fill-rule="nonzero"></path>
                    <path d="M297.502988,437.5 C308.002988,416.853 306.021988,379.418 309.002988,359 C287.140988,388.382 284.402988,417.854 273.035988,432 C242.502988,470 271.974988,497.584 267.502988,518.5 C279.035988,503 282.002988,493 282.002988,471.5 C282.002988,442.776 284.655988,462.762 297.502988,437.5 Z" id="Path" fill="#3D2C18" fill-rule="nonzero"></path>
                    <path d="M351.535988,475.147 C344.381988,453.633 348.554988,407.418 351.535988,387 C329.674988,416.382 276.450988,472.408 296.722988,485.555 C316.993988,498.703 327.686988,549.848 323.215988,570.764 C328.183988,569.27 340.803988,561.203 351.535988,540.884 C364.950988,515.486 360.479988,502.04 351.535988,475.147 Z" id="Path" fill="#3D2C18" fill-rule="nonzero"></path>
                    <path d="M77.4669883,458.147 C84.6209883,436.633 80.4479883,390.418 77.4669883,370 C99.3279883,399.382 98.4999883,440 98.4999883,458.147 C98.4999883,482.309 101.315988,532.848 105.786988,553.764 C100.818988,552.27 88.1989883,544.203 77.4669883,523.884 C64.0519883,498.486 68.5229883,485.04 77.4669883,458.147 Z" id="Path" fill="#3D2C18" fill-rule="nonzero"></path>
                    <path d="M82.4999883,437.5 C71.9999883,416.853 73.9809883,379.418 70.9999883,359 C92.8619883,388.382 95.5999883,417.854 106.966988,432 C137.499988,470 108.027988,497.584 112.499988,518.5 C100.966988,503 97.9999883,493 97.9999883,471.5 C97.9999883,442.776 95.3469883,462.762 82.4999883,437.5 Z" id="Path" fill="#3D2C18" fill-rule="nonzero"></path>
                    <path d="M28.4666883,475.147 C35.6213883,453.633 31.4477883,407.418 28.4666883,387 C50.3282883,416.382 103.551988,472.408 83.2799883,485.555 C63.0089883,498.703 52.3156883,549.848 56.7873883,570.764 C51.8188883,569.27 39.1986883,561.203 28.4666883,540.884 C15.0515883,515.486 19.5232883,502.04 28.4666883,475.147 Z" id="Path" fill="#3D2C18" fill-rule="nonzero"></path>
                    <g id="Group-2" transform="translate(77.999988, 189.000000)" fill-rule="nonzero">
                        <path d="M181.5,-4 L166.5,-4 C140.818861,-4 120,16.818861 120,42.5 C120,68.181139 140.818861,89 166.5,89 L181.5,89 C207.181139,89 228,68.181139 228,42.5 L227.994175,41.7647829 C227.582639,16.3745525 206.894785,-4 181.5,-4 Z M166.5,4 L181.5,4 C202.525375,4 219.65447,20.8696879 219.994832,41.8620338 L220.000131,42.5324048 C220.000131,63.762861 202.762861,81 181.5,81 L166.5,81 C145.237139,81 128,63.762861 128,42.5 C128,21.237139 145.237139,4 166.5,4 Z" id="Path" fill-opacity="0.75" fill="#060606"></path>
                        <path d="M57.5,-4 L42.5,-4 C17.105215,-4 -3.58263872,16.3745525 -3.99378052,41.7323418 L-3.99986874,42.4675952 C-3.99986874,68.181139 16.818861,89 42.5,89 L57.5,89 C83.181139,89 104,68.181139 104,42.5 C104,16.818861 83.181139,-4 57.5,-4 Z M42.5,4 L57.5,4 C78.762861,4 96,21.237139 96,42.5 C96,63.762861 78.762861,81 57.5,81 L42.5,81 C21.237139,81 4,63.762861 4,42.5 L4.00556255,41.8295926 C4.34553028,20.8696879 21.4746247,4 42.5,4 Z" id="Path" fill-opacity="0.75" fill="#060606"></path>
                        <rect id="Rectangle" fill="#423A38" x="97" y="31" width="30" height="8"></rect>
                    </g>
                </g>
            </g>
        </g>
    </g>
</svg>