<?xml version="1.0" encoding="UTF-8"?>
<svg width="552px" height="1369px" viewBox="0 0 552 1369" version="1.1" xmlns="http://www.w3.org/2000/svg" xmlns:xlink="http://www.w3.org/1999/xlink">
    <!-- Generator: Sketch 55.2 (78181) - https://sketchapp.com -->
    <title>gee_me_008</title>
    <desc>Created with Sketch.</desc>
    <defs>
        <polygon id="path-1" points="6 0.13339443 168 0.13339443 154 190.516394 122 319.136394 50 319.136394 7 242.826394 1.8189894e-12 155.016394"></polygon>
        <path d="M0,32.5 C0,14.551 14.551,0 32.5,0 L56.5,0 C74.449,0 89,14.551 89,32.5 C89,50.449 74.449,65 56.5,65 L32.5,65 C14.551,65 0,50.449 0,32.5 Z" id="path-3"></path>
    </defs>
    <g id="GEE!-ME" stroke="none" stroke-width="1" fill="none" fill-rule="evenodd">
        <g id="gee_me_008" transform="translate(-324.000000, -115.000000)">
            <g transform="translate(324.000000, 115.000000)">
                <g id="lower-limb" transform="translate(64.834000, 930.017000)">
                    <path d="M245.767288,74.4960355 C250.925633,99.4293274 253.327866,148.347763 253.609799,218.471229 C253.700013,240.909399 253.604588,261.429871 253.321233,296.140946 C253.04655,329.789628 253,336.628597 253,349.003 C253,369.437536 269.565464,386.003 290,386.003 C310.434536,386.003 327,369.437536 327,349.003 C327,336.924078 327.046282,330.124546 327.318767,296.745006 C327.604438,261.750326 327.700955,240.994943 327.609201,218.173712 C327.306258,142.824546 324.765211,91.0793392 318.232712,59.5039645 C314.092766,39.4931899 294.514739,26.6273414 274.503964,30.7672876 C254.49319,34.9072337 241.627341,54.485261 245.767288,74.4960355 Z" id="Path" fill="#EA872C" fill-rule="nonzero"></path>
                    <path d="M92.5369975,62.9733783 C88.4806998,112.394832 90.3412368,168.001027 96.8934867,228.252717 C101.810163,273.464369 108.917842,317.742285 117.687354,362.601713 C121.607865,382.656634 141.043792,395.736157 161.098713,391.815646 C181.153634,387.895135 194.233157,368.459208 190.312646,348.404287 C181.914065,305.442313 175.124048,263.143298 170.459763,220.252533 C164.375532,164.304543 162.664987,113.181195 166.289003,69.0266217 C167.96056,48.6605679 152.805676,30.7955545 132.439622,29.1239975 C112.073568,27.4524405 94.2085545,42.6073244 92.5369975,62.9733783 Z" id="Path" fill="#EA872C" fill-rule="nonzero"></path>
                    <polygon id="Path" fill="#484D5D" fill-rule="nonzero" points="70 1 232 1 218 191.383 186 320.003 114 320.003 71 243.693 64 155.883"></polygon>
                    <path d="M85.5058789,15.8286521 L84.9575656,23.8098395 L89.9458078,24.1525353 L90.4941211,16.1713479 L85.5058789,15.8286521 Z M84.4092523,31.7910269 L83.860939,39.7722143 L88.8491812,40.1149101 L89.3974945,32.1337227 L84.4092523,31.7910269 Z M83.3126257,47.7534017 L82.7643125,55.7345892 L87.7525546,56.077285 L88.3008679,48.0960976 L83.3126257,47.7534017 Z M82.2159992,63.7157766 L81.6676859,71.696964 L86.655928,72.0396598 L87.2042413,64.0584724 L82.2159992,63.7157766 Z M81.1193726,79.6781514 L80.5710593,87.6593388 L85.5593014,88.0020346 L86.1076147,80.0208472 L81.1193726,79.6781514 Z M80.022746,95.6405262 L79.4744327,103.621714 L84.4626748,103.964409 L85.0109881,95.983222 L80.022746,95.6405262 Z M78.9261194,111.602901 L78.3778061,119.584088 L83.3660482,119.926784 L83.9143615,111.945597 L78.9261194,111.602901 Z M77.8294928,127.565276 L77.2811795,135.546463 L82.2694216,135.889159 L82.8177349,127.907972 L77.8294928,127.565276 Z M76.7328662,143.527651 L76.5058789,146.831652 L76.4968206,146.963504 L76.5017146,147.095575 C76.5577379,148.607449 76.6028609,150.154113 76.6376602,151.740808 L81.6364581,151.631175 C81.6011178,150.019807 81.5552616,148.448014 81.4982854,146.910425 L79,147.003 L81.4941211,147.174348 L81.7211083,143.870347 L76.7328662,143.527651 Z M76.7278313,159.691542 C76.7326279,162.208789 76.7178253,164.835599 76.6848688,167.659668 L81.6845283,167.718014 C81.7177361,164.87242 81.7326645,162.223267 81.7278222,159.682015 L76.7278313,159.691542 Z M76.5572396,175.64072 C76.5227844,177.421057 76.4901767,178.987972 76.4268818,181.950843 C76.4088851,182.792935 76.4088851,182.792935 76.3909592,183.633778 L81.3898271,183.740173 C81.4077441,182.899746 81.4077441,182.899746 81.4257413,182.057632 C81.4891048,179.091551 81.5217644,177.522139 81.5563035,175.737468 L76.5572396,175.64072 Z M76.2326938,191.644342 C76.1820833,194.59079 76.1491781,197.201963 76.133777,199.669568 L81.1336797,199.700774 C81.1489564,197.253088 81.1816383,194.659639 81.2319564,191.730214 L76.2326938,191.644342 Z M76.1549316,207.720793 C76.1922417,210.577423 76.2640076,213.254456 76.3743086,215.793472 L81.3695971,215.576464 C81.2616048,213.090592 81.1911826,210.463679 81.1545052,207.655494 L76.1549316,207.720793 Z M76.9013341,223.895866 C77.1612865,226.787182 77.4921901,229.486169 77.9015637,232.011536 L82.837136,231.211458 C82.4476324,228.808666 82.1310259,226.226291 81.8812472,223.448132 L76.9013341,223.895866 Z M79.653259,240.111137 C80.2477904,242.224255 80.9279328,244.180883 81.7007644,245.984594 C81.9751202,246.624544 82.2689354,247.285165 82.5835836,247.969974 L87.1269515,245.882437 C86.8297637,245.23563 86.5533057,244.614035 86.2964567,244.014921 C85.6130634,242.41995 85.0040402,240.667917 84.4663848,238.756951 L79.653259,240.111137 Z M86.2257684,255.260223 C87.3924829,257.453865 88.6970707,259.809299 90.1373906,262.326715 L94.4772717,259.843687 C93.0613609,257.368933 91.7814492,255.058051 90.6402271,252.912341 L86.2257684,255.260223 Z M94.2063335,269.269774 C95.5160993,271.458736 96.9067835,273.745229 98.3810482,276.135463 L102.636674,273.51065 C101.173788,271.138863 99.7947016,268.871439 98.496918,266.702502 L94.2063335,269.269774 Z M102.628134,282.943298 C103.996897,285.115068 105.425907,287.363392 106.928289,289.71024 L111.13932,287.014462 C109.64306,284.677178 108.22033,282.438733 106.858109,280.277345 L102.628134,282.943298 Z M111.268047,296.449704 C112.633739,298.559658 114.057117,300.749946 115.630726,303.164228 L119.819511,300.434013 C118.248625,298.023908 116.828076,295.837973 115.465511,293.732848 L111.268047,296.449704 Z M120.003865,309.861723 C122.637384,313.890823 123.23939,314.812281 124.377148,316.557289 L128.56552,313.826439 C127.426286,312.079168 126.823897,311.157123 124.189138,307.126126 L120.003865,309.861723 Z" id="Path" fill="#383B46" fill-rule="nonzero"></path>
                    <polygon id="Path" fill="#484D5D" fill-rule="nonzero" points="218 11 374.007 11 380 148.643 367.014 259.663 322.06 320.293 252.206 328.003 230.155 204.623"></polygon>
                    <path d="M204,103.003 C197.6,98.203 197.334,60.333 198,42 L198,26 L227.5,22.5 L224,117.003 C220,114.333 210.4,107.803 204,103.003 Z" id="Path" fill="#3A4051" fill-rule="nonzero"></path>
                    <path d="M251,0 L345,0 L348.811,67.058 C349.505,79.283 341.581,90.333 329.784,93.593 L303,101.003 L282.368,103.193 C268.063,104.713 255.429,93.883 254.751,79.513 L251,0 Z" id="Path" fill="#3A4051" fill-rule="nonzero"></path>
                    <g id="Group-5" transform="translate(65.000000, 2.866606)">
                        <mask id="mask-2" fill="white">
                            <use xlink:href="#path-1"></use>
                        </mask>
                        <g id="Path"></g>
                        <path d="M-36,89.6363944 L8,89.6363944 L52,94.1363944 L56.639,166.036394 C57.432,178.326394 49.494,189.486394 37.625,192.766394 L11,200.136394 L-8.355,202.196394 C-23.125,203.766394 -36,192.186394 -36,177.336394 L-36,89.6363944 Z" id="Path" fill="#3A4051" fill-rule="nonzero" mask="url(#mask-2)"></path>
                        <path d="M292.503561,-1.73321114 L292.930424,6.25539254 L297.923301,5.98860368 L297.496439,-2 L292.503561,-1.73321114 Z M293.357286,14.2439962 L293.784148,22.2325999 L298.777025,21.965811 L298.350163,13.9772074 L293.357286,14.2439962 Z M294.21101,30.2212036 L294.637872,38.2098072 L299.63075,37.9430184 L299.203887,29.9544147 L294.21101,30.2212036 Z M295.064734,46.1984109 L295.491597,54.1870146 L300.484474,53.9202257 L300.057612,45.9316221 L295.064734,46.1984109 Z M295.918459,62.1756183 L296.345321,70.1642219 L301.338198,69.8974331 L300.911336,61.9088294 L295.918459,62.1756183 Z M296.772183,78.1528256 L297.199045,86.1414293 L302.191923,85.8746404 L301.76506,77.8860368 L296.772183,78.1528256 Z M297.625907,94.130033 L298.05277,102.118637 L303.045647,101.851848 L302.618785,93.8632441 L297.625907,94.130033 Z M298.479632,110.10724 L298.906494,118.095844 L303.899371,117.829055 L303.472509,109.840451 L298.479632,110.10724 Z M299.333356,126.084448 L299.503561,129.269789 L302,129.136394 L299.501712,129.043888 C299.444959,130.576596 299.379424,132.173698 299.305383,133.828788 L304.300388,134.052241 C304.374991,132.384583 304.441051,130.774687 304.498288,129.2289 L304.502472,129.115908 L304.496439,129.003 L304.326233,125.817659 L299.333356,126.084448 Z M298.907524,141.79657 C298.766593,144.37361 298.609982,147.036974 298.438867,149.765979 L303.429067,150.078877 C303.601004,147.336759 303.758396,144.660115 303.900064,142.069598 L298.907524,141.79657 Z M297.911013,157.731107 C297.727791,160.358875 297.533675,163.017566 297.329721,165.691543 L302.31524,166.071807 C302.520018,163.387027 302.714925,160.717509 302.898903,158.078888 L297.911013,157.731107 Z M296.697536,173.645426 C296.477399,176.307556 296.249201,178.962926 296.013906,181.598902 L300.994104,182.043449 C301.230372,179.396581 301.459501,176.730381 301.680528,174.05748 L296.697536,173.645426 Z M295.276743,189.54989 C295.017651,192.241477 294.752475,194.892471 294.482129,197.491974 L299.455307,198.00918 C299.726991,195.396808 299.993438,192.733115 300.253737,190.028974 L295.276743,189.54989 Z M293.622513,205.426569 C293.314931,208.150425 293.002882,210.79317 292.687309,213.344418 L297.649492,213.958207 C297.967286,211.389004 298.281407,208.728707 298.590936,205.987612 L293.622513,205.426569 Z M291.658045,221.245705 C291.276202,224.022956 290.891685,226.649813 290.505681,229.11424 L295.445455,229.887958 C295.83647,227.391535 296.225487,224.733933 296.611446,221.926745 L291.658045,221.245705 Z M289.174713,236.927687 C288.626653,239.861569 288.080737,242.43061 287.540457,244.609664 L292.39351,245.812942 C292.959236,243.531259 293.524891,240.869328 294.089693,237.845823 L289.174713,236.927687 Z M285.170627,251.692497 C284.334357,253.419775 283.051634,255.728474 281.394461,258.489877 L285.681698,261.062734 C287.409285,258.184 288.759551,255.753734 289.670922,253.871337 L285.170627,251.692497 Z M277.19972,265.204232 C275.836374,267.316659 274.365415,269.540915 272.815687,271.833036 L276.957795,274.633561 C278.527061,272.312542 280.01764,270.058618 281.400759,267.915555 L277.19972,265.204232 Z M268.299112,278.385453 C266.781294,280.547087 265.232169,282.714677 263.671359,284.860016 L267.714534,287.801569 C269.291872,285.633512 270.85727,283.443152 272.39111,281.258701 L268.299112,278.385453 Z M258.935246,291.251855 C257.295631,293.423397 255.672855,295.529009 254.082512,297.547233 L258.009756,300.641866 C259.621872,298.596011 261.265622,296.463184 262.925559,294.264729 L258.935246,291.251855 Z M249.093533,303.716813 C247.364868,305.794406 245.708654,307.717375 244.139534,309.466464 L247.861354,312.805334 C249.473825,311.007922 251.170243,309.038274 252.937061,306.914827 L249.093533,303.716813 Z" id="Path" fill="#383B46" fill-rule="nonzero" mask="url(#mask-2)"></path>
                    </g>
                    <path d="M189,310.003 L108,310.003 L111,333.003 C142.633,333.003 157.368,333.003 189,333.003 L189,310.003 Z" id="Path" fill="#3A4051" fill-rule="nonzero"></path>
                    <path d="M330,310.003 L251,310.003 L251,333.003 C290.304,333.003 288.697,333.003 328,333.003 L330,310.003 Z" id="Path" fill="#3A4051" fill-rule="nonzero"></path>
                    <g id="Group-3" transform="translate(0.492583, 344.153000)">
                        <path d="M12.2716169,89.87 C12.0713169,66.92 15.1976169,52.96 35.1474169,43.58 C55.0964169,34.2 73.8884169,16.17 108.401417,0.71 C108.401417,0.71 112.944417,-0.14 120.339417,3.86 C126.650417,7.27 134.756417,15.64 146.969417,15.53 C160.232417,15.42 172.051417,12.61 179.394417,8.76 C182.566417,0.07 189.604417,0 189.604417,0 C189.604417,0 199.513417,18.87 199.678417,37.81 C199.844417,56.76 199.827908,88.23 199.827908,88.23 L12.2716169,89.87 Z" id="Path" fill="#DCE1E6" fill-rule="nonzero"></path>
                        <path d="M102.302417,4.57 C104.468417,9.45 104.468417,15.4 104.468417,19.19 L86.0614169,11.07 L90.3924169,26.77 L73.6104169,21.36 L73.6104169,37.06 L60.6174169,30.02 L60.6174169,43.55" id="Path" stroke="#FFFFFF" stroke-width="5.41368" stroke-linecap="round" stroke-linejoin="round"></path>
                        <path d="M193.793417,9.99 C189.941417,15.22 176.048417,18.35 170.822417,19.12 C165.595417,19.88 159.995417,19.21 162.236417,27.85 C163.820417,33.96 179.051417,31.5 185.005417,31.44 C189.847417,31.4 196.637417,46.03 199.165417,41.07 C199.165417,24.06 195.959417,14.86 193.793417,9.99 Z" id="Path" fill="#518C2D" fill-rule="nonzero"></path>
                        <path d="M19.8188169,45.34 C25.9394169,43.12 32.4214169,41.44 44.8484169,38.62 L39.5674169,53.83 L39.7184169,71.15 L4.34641693,71.4600388 C2.90281693,71.47 0.323516927,69.55 1.55471693,61.74 C3.09371693,51.98 11.1218169,48.49 19.8188169,45.34 Z" id="Path" fill="#EAF4FB" fill-rule="nonzero"></path>
                        <path d="M70.6654169,46.25 L87.1444169,77.66" id="Path" stroke="#518C2D" stroke-width="17.3238"></path>
                        <path d="M93.3664169,34.35 L113.113417,72.09" id="Path" stroke="#518C2D" stroke-width="17.3238"></path>
                        <path d="M115.601417,21.22 L142.905417,74.41" id="Path" stroke="#518C2D" stroke-width="17.3238"></path>
                        <path d="M200.419417,85.27 L199.392417,67.05 L40.7874169,69.52 L1.24081693,66.61 L0.0327169268,80.59 C-0.384283073,85.41 3.23431693,89.64 8.06491693,89.98 L40.9854169,92.25 L196.163417,89.85 C198.623417,89.81 200.558417,87.73 200.419417,85.27 Z" id="Path" fill="#C7CBCF" fill-rule="nonzero"></path>
                    </g>
                    <g id="Group" transform="translate(240.256954, 346.153000)">
                        <path d="M188.155046,89.87 C188.355046,66.92 185.229046,52.96 165.279046,43.58 C145.330046,34.2 126.539046,16.17 92.0250462,0.71 C92.0250462,0.71 87.4820462,-0.14 80.0870462,3.86 C73.7760462,7.27 65.6700462,15.64 53.4570462,15.53 C40.1940462,15.42 28.3750462,12.61 21.0330462,8.76 C17.8600462,0.07 10.8230462,0 10.8230462,0 C10.8230462,0 0.913046232,18.87 0.748046232,37.81 C0.582046232,56.76 0.598554932,88.23 0.598554932,88.23 L188.155046,89.87 Z" id="Path" fill="#DCE1E6" fill-rule="nonzero"></path>
                        <path d="M98.1240462,4.57 C95.9590462,9.45 95.9590462,15.4 95.9590462,19.19 L114.365046,11.07 L110.034046,26.77 L126.817046,21.36 L126.817046,37.06 L139.810046,30.02 L139.810046,43.55" id="Path" stroke="#FFFFFF" stroke-width="5.41368" stroke-linecap="round" stroke-linejoin="round"></path>
                        <path d="M6.63304623,9.99 C10.4850462,15.22 24.3780462,18.35 29.6050462,19.12 C34.8310462,19.88 40.4320462,19.21 38.1910462,27.85 C36.6060462,33.96 21.3760462,31.5 15.4210462,31.44 C10.5790462,31.4 3.78904623,46.03 1.26104623,41.07 C1.26104623,24.06 4.46804623,14.86 6.63304623,9.99 Z" id="Path" fill="#518C2D" fill-rule="nonzero"></path>
                        <path d="M180.608046,45.34 C174.487046,43.12 168.005046,41.44 155.578046,38.62 L160.859046,53.83 L160.708046,71.15 L196.080046,71.4600388 C197.524046,71.47 200.103046,69.55 198.872046,61.74 C197.333046,51.98 189.305046,48.49 180.608046,45.34 Z" id="Path" fill="#EAF4FB" fill-rule="nonzero"></path>
                        <polygon id="Path" fill="#518C2D" fill-rule="nonzero" points="122.090587 42.2260006 105.612587 73.6360006 120.953505 81.6839994 137.431505 50.2739994"></polygon>
                        <polygon id="Path" fill="#518C2D" fill-rule="nonzero" points="99.3852597 30.3342605 79.6382597 68.0742605 94.9878327 76.1057395 114.734833 38.3657395"></polygon>
                        <polygon id="Path" fill="#518C2D" fill-rule="nonzero" points="77.1190709 17.2644399 49.8160709 70.4544399 65.2280215 78.3655601 92.5310215 25.1755601"></polygon>
                        <path d="M0.00704623241,85.27 L1.03404623,67.05 L159.639046,69.52 L199.186046,66.61 L200.394046,80.59 C200.811046,85.41 197.192046,89.64 192.362046,89.98 L159.441046,92.25 L4.26404623,89.85 C1.80304623,89.81 -0.131953768,87.73 0.00704623241,85.27 Z" id="Path" fill="#C7CBCF" fill-rule="nonzero"></path>
                    </g>
                </g>
                <g id="upper-limb" transform="translate(0.000005, 464.033000)">
                    <path d="M137.833995,66.984 C147.833995,25.984 196.833995,13.984 218.833995,13.984 L273.547995,40.984 C276.547995,49.317 278.347995,67.384 261.547995,72.984 C240.547995,79.984 231.510995,137.984 202.510995,125.984 C173.510995,113.984 133.088995,86.439 137.833995,66.984 Z" id="Path" fill="#757C82" fill-rule="nonzero"></path>
                    <path d="M407.833995,61.984 C399.297995,26.984 361.833995,23.651 348.833995,13.984 L277.797995,50.984 C274.797995,59.317 272.997995,77.384 289.797995,82.984 C310.797995,89.984 319.833995,147.984 348.833995,135.984 C377.833995,123.984 412.579995,81.439 407.833995,61.984 Z" id="Path" fill="#757C82" fill-rule="nonzero"></path>
                    <path d="M175.833995,105.984 C153.833995,139.984 121.833995,183.984 101.833995,219.984 C30.8344947,316.984 66.8343947,414.984 200.833995,386.984" id="Path" stroke="#EBBAAA" stroke-width="87" stroke-linecap="round" stroke-linejoin="bevel"></path>
                    <path d="M150.833995,472.826 C150.833995,483.126 158.655995,491.741 168.907995,492.733 L274.833995,502.984 L379.156995,501.301 C390.075995,501.125 398.833995,492.224 398.833995,481.304 L398.833995,94.984 C398.833995,83.938 389.879995,74.984 378.833995,74.984 L170.833995,74.984 C159.788995,74.984 150.833995,83.938 150.833995,94.984 L150.833995,472.826 Z" id="Path" fill="#2A2C31" fill-rule="nonzero"></path>
                    <ellipse id="Oval" fill="#1C1C1C" fill-rule="nonzero" cx="268.858995" cy="86.863" rx="70.0249" ry="70.8789"></ellipse>
                    <rect id="Rectangle" fill="#EBBAAA" fill-rule="nonzero" x="232.641995" y="4.26325641e-14" width="76.8567" height="115.285" rx="38.4283"></rect>
                    <path d="M100.898995,129.584 C104.244995,85.802 140.745995,51.984 184.654995,51.984 L212.182995,51.984 C221.119995,51.984 229.247995,57.162 233.026995,65.261 L256.833995,116.301 L245.833995,312.221 L227.900995,523.411 C227.355995,529.834 220.964995,534.071 214.836995,532.072 L95.7339947,493.234 C91.6189947,491.892 88.8344947,488.055 88.8344947,483.727 L88.8344947,287.484 L100.898995,129.584 Z" id="Path" fill="#ABB0B4" fill-rule="nonzero"></path>
                    <circle id="Oval" fill="#4D4F56" fill-rule="nonzero" cx="234.499995" cy="240.467" r="9.5"></circle>
                    <circle id="Oval" fill="#4D4F56" fill-rule="nonzero" cx="228.499995" cy="308.467" r="9.5"></circle>
                    <circle id="Oval" fill="#4D4F56" fill-rule="nonzero" cx="218.499995" cy="433.467" r="9.5"></circle>
                    <circle id="Oval" fill="#4D4F56" fill-rule="nonzero" cx="209.499995" cy="502.467" r="9.5"></circle>
                    <path d="M73.1365277,406.17328 C91.6971121,414.555045 117.345174,422.698445 145.139132,427.584461 C184.669018,434.533586 224.616426,434.361778 263.263027,424.700128 C286.302208,418.940332 300.309917,395.594149 294.550122,372.554968 C288.790327,349.515787 265.444144,335.508077 242.404963,341.267872 C216.453761,347.755673 188.431102,347.876195 160.029107,342.883289 C139.559464,339.284844 120.751886,333.313335 108.531462,327.79472 C86.88782,318.020679 61.4187559,327.642891 51.6447148,349.286533 C41.8706736,370.930175 51.4928861,396.399239 73.1365277,406.17328 Z" id="Path" fill="#EBBAAA" fill-rule="nonzero"></path>
                    <path d="M8.83439471,250.984 C24.8343947,204.584 87.5010947,127.651 116.833995,94.984 L88.8344947,284.984 C98.1679947,291.651 122.033995,305.784 142.833995,308.984 C168.834995,312.984 186.833995,318.984 208.833995,340.984 C186.833995,344.984 184.833995,390.984 196.833995,430.984 C196.833995,441.984 181.833995,451.984 166.833995,451.984 L77.8344947,466.984 L8.83439471,390.984 C2.16779471,363.651 -7.16557529,297.384 8.83439471,250.984 Z" id="Path" fill="#939AA0" fill-rule="nonzero"></path>
                    <polygon id="Path" fill="#7B838A" fill-rule="nonzero" points="40.8344947 277.984 90.8339947 285.984 40.8344947 298.984"></polygon>
                    <polygon id="Path" fill="#7B838A" fill-rule="nonzero" points="52.8344947 314.984 88.8344947 285.984 71.8344947 325.984"></polygon>
                    <path d="M235.833995,339.984 L206.833995,339.984 C183.833995,339.984 176.833995,368.984 176.833995,382.984 C176.834995,416.984 178.167995,418.651 183.833995,436.984 C198.500995,437.317 213.833995,438.984 223.833995,430.984 C216.833995,379.984 224.833995,356.984 235.833995,339.984 Z" id="Path" fill="#7B838A" fill-rule="nonzero"></path>
                    <path d="M151.999995,85.967 C178.999995,85.967 201.999995,86.813 215.999995,95.967 C241.999995,112.967 241.054995,179.967 250.999995,220.967 C259.999995,128.467 271.499995,75.967 229.499995,55.967 L205.499995,46.984 L181.999995,39.967 C163.999995,43.967 159.999995,63.967 151.999995,85.967 Z" id="Path" fill="#8A9096" fill-rule="nonzero"></path>
                    <path d="M197.999995,123.967 L223.999995,82.967 L245.999995,114.967 C248.999995,161.634 252.699995,247.767 249.499995,214.967 C246.299995,182.167 214.332995,140.3 197.999995,123.967 Z" id="Path" fill="#8A9096" fill-rule="nonzero"></path>
                    <path d="M443.507995,108.369 C441.181995,69.379 405.243995,41.227 366.830995,48.305 C363.078995,48.996 359.585995,50.693 356.723995,53.215 L328.465995,78.115 L295.833995,160.268 L311.297995,518.845 C311.568995,525.134 317.513995,529.611 323.632995,528.135 L453.178995,496.888 C457.669995,495.805 460.833995,491.787 460.833995,487.167 L460.833995,416.984 L455.833995,314.984 L443.507995,108.369 Z" id="Path" fill="#ABB0B4" fill-rule="nonzero"></path>
                    <path d="M523.62182,347.644697 C504.104462,336.163898 478.975491,342.678817 467.494692,362.196175 C463.410421,369.139435 460.724371,376.519415 457.964858,386.481796 C456.868905,390.4384 455.810621,394.63619 454.390551,400.543404 C454.512177,400.037461 451.716591,411.760182 450.888177,415.148379 C447.97227,427.074372 445.455002,436.155907 442.561661,444.736078 C437.875316,458.633384 432.620022,469.669977 426.639967,477.91833 C413.348864,496.250885 417.435769,521.886925 435.768324,535.178028 C454.10088,548.469131 479.73692,544.382226 493.028023,526.04967 C504.470587,510.266823 513.140195,492.059861 520.262794,470.93787 C524.031855,459.760761 527.118799,448.624007 530.541871,434.623721 C531.435895,430.967185 534.289571,419.000876 534.119141,419.709828 C535.337512,414.641643 536.199905,411.220877 536.989292,408.371035 C537.62675,406.069688 538.168622,404.327393 538.598716,403.145699 C538.64804,403.01018 538.691153,402.894927 538.727082,402.800928 C549.435498,383.428682 542.817045,358.936006 523.62182,347.644697 Z" id="Path" fill="#EBBAAA" fill-rule="nonzero"></path>
                    <path d="M536.833995,244.984 C520.833995,196.984 461.833995,77.984 423.833995,67.984 L450.833995,308.984 L450.833995,400.984 L424.833995,474.984 L504.833995,518.984 C509.500995,506.317 522.433995,476.984 536.833995,460.984 C554.833995,440.984 556.833995,304.984 536.833995,244.984 Z" id="Path" fill="#939AA0" fill-rule="nonzero"></path>
                    <path d="M436.999995,443.967 L422.833995,470.984 C414.497995,492.42 446.862995,505.483 459.910995,510.557 C491.598995,522.88 493.635995,522.242 512.775995,523.605 C518.402995,510.056 525.512995,496.37 521.681995,484.15 C471.611995,472.19 459.910995,462.967 436.999995,443.967 Z" id="Path" fill="#7B838A" fill-rule="nonzero"></path>
                    <polygon id="Path" fill="#7B838A" fill-rule="nonzero" points="479.833995 241.984 446.833995 279.984 496.833995 263.984"></polygon>
                    <polygon id="Path" fill="#7B838A" fill-rule="nonzero" points="481.833995 280.984 444.833995 285.984 475.833995 300.984"></polygon>
                    <path d="M397.565995,85.967 C370.565995,85.967 347.565995,86.813 333.565995,95.967 C307.565995,112.967 308.510995,179.967 298.565995,220.967 C289.565995,128.467 278.065995,75.967 320.065995,55.967 L344.065995,46.984 L367.565995,39.967 C385.565995,43.967 389.565995,63.967 397.565995,85.967 Z" id="Path" fill="#8A9096" fill-rule="nonzero"></path>
                    <path d="M351.565995,123.967 L325.565995,82.967 L303.565995,114.967 C300.565995,161.634 296.865995,247.767 300.065995,214.967 C303.265995,182.167 335.232995,140.3 351.565995,123.967 Z" id="Path" fill="#8A9096" fill-rule="nonzero"></path>
                </g>
                <g id="head" transform="translate(51.000000, -0.000001)">
                    <ellipse id="Oval" fill="#EBBAAA" fill-rule="nonzero" cx="58.672" cy="319.826001" rx="58.0695" ry="55.0806"></ellipse>
                    <ellipse id="Oval" fill="#EBBAAA" fill-rule="nonzero" cx="385.74" cy="324.096001" rx="58.0695" ry="55.0806"></ellipse>
                    <path d="M51.808,227.572001 C48.002,131.212001 125.091,51.0171011 221.527,51.0171011 C318.195,51.0171011 395.372,131.582001 391.221,228.161001 L385.615,358.613001 C381.833,446.617001 309.386,516.017001 221.3,516.017001 C132.993,516.017001 60.447,446.280001 56.962,358.042001 L51.808,227.572001 Z" id="Path" fill="#EED4CC" fill-rule="nonzero"></path>
                    <g id="Group-2" transform="translate(171.000000, 353.000001)">
                        <mask id="mask-4" fill="white">
                            <use xlink:href="#path-3"></use>
                        </mask>
                        <g id="Path"></g>
                        <rect id="Rectangle" fill="#FFFFFF" fill-rule="nonzero" mask="url(#mask-4)" x="-38" y="43" width="203" height="42"></rect>
                    </g>
                    <path d="M179.752,233.102001 L118.131,227.128001 C117.423,227.059001 116.731,227.373001 116.315,227.950001 L104.018,245.037001 C103.085,246.334001 103.974,248.148001 105.571,248.204001 L180.239,250.854001 C182.667,250.940001 184.61,248.860001 184.359,246.443001 L183.344,236.670001 C183.148,234.777001 181.646,233.285001 179.752,233.102001 Z" id="Path" fill="#393939" fill-rule="nonzero"></path>
                    <path d="M254.917,233.102001 L316.538,227.128001 C317.246,227.059001 317.938,227.373001 318.354,227.950001 L330.651,245.037001 C331.584,246.334001 330.695,248.148001 329.098,248.204001 L254.43,250.854001 C252.002,250.940001 250.059,248.860001 250.309,246.443001 L251.324,236.670001 C251.521,234.777001 253.023,233.285001 254.917,233.102001 Z" id="Path" fill="#393939" fill-rule="nonzero"></path>
                    <path d="M137.343723,316.122543 L165.572723,317.602543 C172.19105,317.949531 177.837554,312.865606 178.184542,306.247278 C178.53153,299.628951 173.447605,293.982448 166.829277,293.63546 L138.600277,292.15546 C131.98195,291.808472 126.335446,296.892396 125.988458,303.510724 C125.64147,310.129051 130.725395,315.775555 137.343723,316.122543 Z" id="Path" fill="#000000" fill-rule="nonzero"></path>
                    <path d="M303.572723,291.15546 L275.343723,292.63546 C268.725395,292.982448 263.64147,298.628951 263.988458,305.247278 C264.335446,311.865606 269.98195,316.949531 276.600277,316.602543 L304.829277,315.122543 C311.447605,314.775555 316.53153,309.129051 316.184542,302.510724 C315.837554,295.892396 310.19105,290.808472 303.572723,291.15546 Z" id="Path" fill="#000000" fill-rule="nonzero"></path>
                    <rect id="Rectangle" fill="#393939" fill-rule="nonzero" x="41.8345" y="182.017001" width="23" height="138" rx="11.5"></rect>
                    <rect id="Rectangle" fill="#2C2929" fill-rule="nonzero" x="375.834" y="201.017001" width="23" height="122" rx="11.5"></rect>
                    <path d="M206.87191,320.862472 C206.653802,322.451971 205.265068,324.931859 199.558512,333.927049 C198.271177,335.956262 197.316485,337.498704 196.409554,339.034589 C193.748007,343.541905 191.91155,347.332108 190.784373,351.042242 C189.183553,356.311383 189.102289,361.267332 191.146955,365.841717 C195.476981,375.528976 207.050738,379.517001 226.334,379.517001 L226.334,362.517001 C218.771115,362.517001 213.259739,361.820575 209.728021,360.603634 C208.447265,360.162318 207.563688,359.699422 207.025172,359.269423 C206.77588,359.070366 206.69598,358.969102 206.667103,358.904497 C206.170657,357.793835 207.33187,353.971673 211.047961,347.67849 C211.845577,346.32773 212.714803,344.923372 213.913505,343.033869 C214.131798,342.689775 214.356937,342.335895 214.651233,341.874049 L215.394256,340.708171 C216.00635,339.747067 216.447611,339.05025 216.877544,338.363728 C218.015849,336.546067 218.914218,335.052039 219.70816,333.634281 C221.924883,329.675836 223.266471,326.435623 223.71409,323.17353 L206.87191,320.862472 Z" id="Path" fill="#EBBAAA" fill-rule="nonzero"></path>
                    <path d="M205.056666,306.154848 L205.06813,306.145024 C205.096608,306.120724 205.145102,306.082256 205.215148,306.031313 C205.579285,305.766486 206.109056,305.468023 206.830257,305.16436 C209.223113,304.156842 212.662256,303.517001 217.334,303.517001 C222.045432,303.517001 225.721281,304.170485 228.482021,305.222196 C229.365943,305.558928 230.062029,305.902674 230.584937,306.224463 C230.736285,306.317601 230.849057,306.394256 230.924902,306.450887 C230.930597,306.455139 230.911021,306.439105 230.867153,306.400501 C232.722429,308.030243 235.552178,307.857447 237.197342,306.006638 C238.848473,304.149116 238.68116,301.30479 236.823637,299.653659 C236.489135,299.356324 235.985443,298.980234 235.301813,298.559539 C234.301284,297.943828 233.098932,297.350074 231.685979,296.811806 C227.884219,295.363517 223.122568,294.517001 217.334,294.517001 C211.505744,294.517001 206.882387,295.377161 203.337743,296.869642 C200.921815,297.886875 199.331183,299.043699 198.447405,300.05373 C196.810836,301.924095 197.000364,304.767027 198.870729,306.403596 C200.72861,308.029242 203.546117,307.853085 205.187663,306.0175 C205.128352,306.083797 205.084574,306.128666 205.056666,306.154848 Z" id="Path" fill="#D5A600" fill-rule="nonzero"></path>
                    <path d="M231.334,304.717001 C231.334,306.726072 231.27032,308.359683 231.090264,311.768649 C231.00905,313.298656 230.973763,314.011518 230.942332,314.827867 C230.796944,318.668091 230.918959,321.468174 231.463633,324.324826 C232.821772,331.443257 236.934341,338.324303 245.481019,346.870982 C254.805241,356.195204 260.476208,360.344227 266.482835,362.182916 C269.287912,363.04122 272.225416,363.427491 276.216976,363.540208 C278.131253,363.594019 279.729364,363.592114 283.592827,363.552768 L284.085926,363.54789 C286.295694,363.526142 287.648558,363.517001 289.233,363.517001 C289.966148,363.517001 290.576313,363.517537 291.788578,363.518998 C305.060723,363.531399 309.26572,363.330417 314.636632,362.036914 C321.707697,360.335089 327.636812,356.71915 334.687981,349.667982 C344.102761,340.252235 348.555715,333.183724 350.073508,325.972885 C350.698283,323.007855 350.855749,320.084976 350.72468,316.00453 C350.696649,315.117718 350.67229,314.568049 350.576957,312.556023 C350.559853,312.199007 350.559853,312.199007 350.542803,311.840581 C350.397437,308.773653 350.334,306.831802 350.334,304.717001 C350.334,288.363778 347.203611,278.942823 338.804266,272.800612 C329.928249,266.308678 314.805507,263.517001 289.233,263.517001 C265.992442,263.517001 250.651061,267.900976 241.668756,276.237701 C234.255864,283.118897 231.334,292.294648 231.334,304.717001 Z M240.334,304.717001 C240.334,294.565577 242.50791,287.738685 247.791504,282.83406 C254.838292,276.293742 268.054705,272.517001 289.233,272.517001 C313.025658,272.517001 326.596483,275.022192 333.491428,280.065166 C339.076196,284.149154 341.334,290.944052 341.334,304.717001 C341.334,307.008234 341.4013,309.068308 341.552896,312.266683 C341.570127,312.628935 341.570127,312.628935 341.587156,312.984356 C341.679747,314.93853 341.703264,315.469195 341.729246,316.291171 C341.839268,319.716392 341.717348,321.979459 341.266693,324.118161 C340.158402,329.38351 336.608239,335.018951 328.323856,343.304184 C322.376334,349.251706 317.865154,352.002901 312.530032,353.286929 C308.133036,354.345879 304.267133,354.530654 291.798205,354.519003 C290.583668,354.51754 289.970852,354.517001 289.233,354.517001 C287.612031,354.517001 286.234415,354.526309 283.997354,354.548326 L283.502422,354.553222 C279.756489,354.591371 278.228329,354.593193 276.470448,354.543778 C273.219794,354.451984 271.039477,354.165279 269.116662,353.576932 C264.857553,352.273177 260.213233,348.875273 251.844981,340.507021 C244.482377,333.144417 241.289391,327.801994 240.304267,322.63865 C239.908825,320.564674 239.813986,318.38825 239.935779,315.171245 C239.964849,314.416238 239.998733,313.731722 240.077674,312.244528 C240.265965,308.679667 240.334,306.934316 240.334,304.717001 Z" id="Path" fill="#D5A600" fill-rule="nonzero"></path>
                    <path d="M201.768,304.717001 C201.768,306.726072 201.83168,308.359683 202.011674,311.767474 C202.09295,313.298656 202.128237,314.011518 202.159779,314.830757 C202.305056,318.668091 202.183041,321.468174 201.638267,324.325352 C200.280228,331.443257 196.167659,338.324303 187.620981,346.870982 C178.297137,356.194825 172.626118,360.344059 166.619176,362.183219 C163.813816,363.041262 160.876313,363.427499 156.884448,363.540224 C154.970739,363.59402 153.37216,363.592114 149.511448,363.552781 L149.016836,363.54789 C146.805309,363.526135 145.453552,363.517001 143.87,363.517001 C143.135852,363.517001 142.52399,363.517539 141.313204,363.518999 C128.041259,363.531399 123.83632,363.330426 118.466032,362.037073 C111.394303,360.335089 105.465188,356.71915 98.4138561,349.667818 C88.9992393,340.252235 84.5462847,333.183724 83.0286929,325.973841 C82.4037173,323.007855 82.2462508,320.084976 82.3773845,316.002527 C82.406672,315.103229 82.4377938,314.397435 82.525156,312.553646 C82.5421473,312.199007 82.5421473,312.199007 82.5591969,311.840581 C82.7045625,308.773653 82.768,306.831802 82.768,304.717001 C82.768,288.363778 85.8983886,278.942823 94.2976539,272.800671 C103.175094,266.308543 118.297105,263.517001 143.87,263.517001 C167.10971,263.517001 182.45099,267.901023 191.433504,276.237942 C198.846136,283.118897 201.768,292.294648 201.768,304.717001 Z M192.768,304.717001 C192.768,294.565577 190.59409,287.738685 185.310756,282.834302 C178.263744,276.293775 165.047444,272.517001 143.87,272.517001 C120.07673,272.517001 106.506589,275.022066 99.6102665,280.06539 C94.0258043,284.149154 91.768,290.944052 91.768,304.717001 C91.768,307.008234 91.7007003,309.068308 91.5491044,312.266683 C91.5318728,312.628935 91.5318728,312.628935 91.5149572,312.981979 C91.4299572,314.775927 91.3999131,315.457278 91.3726803,316.293472 C91.262732,319.716392 91.384652,321.979459 91.8355083,324.119117 C92.9435983,329.38351 96.4937613,335.018951 104.777981,343.304021 C110.725666,349.251706 115.236846,352.002901 120.572632,353.287088 C124.968995,354.345886 128.834871,354.530654 141.303572,354.519004 C142.516621,354.517541 143.131148,354.517001 143.87,354.517001 C145.490078,354.517001 146.866555,354.526302 149.105367,354.548325 L149.601844,354.553235 C153.345077,354.591371 154.873666,354.593193 156.630976,354.543794 C159.882219,354.451983 162.062759,354.165275 163.98559,353.577161 C168.244512,352.273197 172.889035,348.875005 181.257019,340.507021 C188.619623,333.144417 191.812609,327.801994 192.797633,322.639176 C193.193175,320.564674 193.288014,318.38825 193.166332,315.174135 C193.137151,314.416238 193.103267,313.731722 193.024264,312.243353 C192.836035,308.679667 192.768,306.934316 192.768,304.717001 Z" id="Path" fill="#D5A600" fill-rule="nonzero"></path>
                    <path d="M93.834,124.017001 C63.834,144.887001 72.501,177.017001 63.834,204.017001 C63.834,237.005001 52.463,277.788001 39.8345,279.017001 C28.5369,280.117001 15.8345,245.362001 15.8345,213.017001 C15.8345,108.017001 75,43.0169011 167,43.0169011 C197.157,43.0169011 307.834,15.0173011 307.834,103.017001 C262.834,128.017001 128.834,99.6692011 93.834,124.017001 Z" id="Path" fill="#393939" fill-rule="nonzero"></path>
                    <path d="M167.835,114.017001 C252.731,114.017001 336.714,134.517001 353.714,154.517001 C362.39,197.557001 356.852,272.017001 405.834,272.017001 C427.834,272.017001 423.984,172.932001 421.834,154.517001 C406.79,25.6407011 261.457,-3.23211894 174.835,23.0170011 C121.834,39.0775011 82.938,114.017001 167.835,114.017001 Z" id="Path" fill="#2C2929" fill-rule="nonzero"></path>
                    <path d="M149.484451,49.0349194 C152.016384,41.9455085 160.242496,33.1468832 172.887975,26.2310728 C189.927972,16.9119009 213.219652,11.6647745 242.762576,12.0164759 C246.07605,12.055922 248.794129,9.40179828 248.834009,6.08832457 C248.873021,2.77485086 246.218897,0.0567722967 242.905424,0.0173261811 C211.386809,-0.357895415 186.066922,5.34614369 167.130025,15.7027293 C152.049846,23.9500768 141.776616,34.9382937 138.183549,44.9988827 C137.069028,48.1195409 138.695323,51.5528317 141.815982,52.6673525 C144.93664,53.7818733 148.369931,52.1555776 149.484451,49.0349194 Z" id="Path" fill="#2C2929" fill-rule="nonzero"></path>
                    <path d="M74.2504501,55.5089832 C100.178081,44.100722 121.907583,42.2112473 135.574471,51.0546085 C138.356555,52.8547964 142.07122,52.0588129 143.871407,49.2767296 C145.671595,46.4946463 144.875612,42.7799815 142.093529,40.9797936 C124.248147,29.4326772 98.6621133,31.6574941 69.4175499,44.525219 C66.3844672,45.8597875 65.0075494,49.4004684 66.3421179,52.4335511 C67.6766864,55.4666339 71.2173674,56.8435517 74.2504501,55.5089832 Z" id="Path" fill="#393939" fill-rule="nonzero"></path>
                    <path d="M207.834,145.017001 C182.664,124.398001 139.834,105.067001 118.834,112.734001 C183.834,86.7335011 179.834,87.4893011 240.834,127.489001 C289.634,159.489001 360.501,162.017001 378.834,159.017001 C357.834,178.017001 354.834,177.392001 340.834,180.017001 C291.711,189.228001 236.834,168.773001 207.834,145.017001 Z" id="Path" fill="#2C2929" fill-rule="nonzero"></path>
                    <path d="M244.834,123.889001 C219.664,103.270001 172.834,98.3730011 151.834,106.040001 C216.834,80.0395011 228.834,66.0396011 289.834,106.039001 C338.634,138.039001 349.501,150.040001 367.834,147.040001 C386.168,144.040001 400.834,142.517001 367.834,164.017001 C328.834,185.517001 273.834,147.645001 244.834,123.889001 Z" id="Path" fill="#393939" fill-rule="nonzero"></path>
                </g>
            </g>
        </g>
    </g>
</svg>