<?xml version="1.0" encoding="UTF-8"?>
<svg width="486px" height="1370px" viewBox="0 0 486 1370" version="1.1" xmlns="http://www.w3.org/2000/svg" xmlns:xlink="http://www.w3.org/1999/xlink">
    <!-- Generator: Sketch 55.2 (78181) - https://sketchapp.com -->
    <title>gee_me_060</title>
    <desc>Created with Sketch.</desc>
    <defs>
        <path d="M179.243281,61.4949788 C179.243281,46.3319661 174.220594,37.9995757 165.129569,32.1087694 C121.698437,3.9821075 65.4228289,2.73224894 13.7125955,0.833239038 C13.2901627,0.833239038 11.9395403,3.95304102 11.7544837,4.33090523 C9.89907355,8.11923621 0.159865629,28.8048798 0.159865629,45.3630835 C0.159865629,58.0166902 -0.930127298,70.4668317 2.58013437,76.9002122 C4.16425743,79.80686 14.0526733,81.3861386 17.3730339,81.3861386 L173.859201,81.3861386 C176.832702,81.3861386 179.243281,64.4500707 179.243281,61.4949788 Z" id="path-1"></path>
        <path d="M0,61.4949788 C0,46.3319661 5.02249364,37.9995757 14.1141004,32.1087694 C57.5448444,3.9821075 113.820453,2.73224894 165.530686,0.833239038 C165.953119,0.833239038 167.303741,3.95304102 167.488798,4.33090523 C169.344208,8.11923621 179.083416,28.8048798 179.083416,45.3630835 C179.083416,58.0166902 180.173409,70.4668317 176.663147,76.9002122 C175.079024,79.80686 165.190608,81.3861386 161.870248,81.3861386 L5.38456506,81.3861386 C2.41077369,81.3861386 0,64.4500707 0,61.4949788 Z" id="path-3"></path>
    </defs>
    <g id="GEE!-ME" stroke="none" stroke-width="1" fill="none" fill-rule="evenodd">
        <g id="gee_me_060" transform="translate(-357.000000, -115.000000)">
            <g transform="translate(335.000000, 115.000000)">
                <g id="lower-limb" transform="translate(76.916893, 845.834609)">
                    <path d="M222.960392,333.242305 C224.327582,318.859464 237.095505,308.308194 251.478346,309.675385 C265.717358,311.028903 276.201048,323.556279 275.082714,337.762348 L275.045266,338.193339 L262.934234,465.601401 C261.567043,479.984242 248.79912,490.535511 234.416279,489.168321 C220.177267,487.814803 209.693577,475.287426 210.811911,461.081358 L210.849359,460.650367 L222.960392,333.242305 Z" id="Path" fill="#EBBAAA" fill-rule="nonzero"></path>
                    <path d="M124.448104,309.675385 C138.687117,308.321866 151.343348,318.64963 152.921632,332.811977 L152.966058,333.242305 L165.077091,460.650367 C166.444281,475.033208 155.893011,487.801131 141.51017,489.168321 C127.271158,490.52184 114.614926,480.194075 113.036642,466.031729 L112.992216,465.601401 L100.881184,338.193339 C99.5139935,323.810498 110.065263,311.042575 124.448104,309.675385 Z" id="Path" fill="#EBBAAA" fill-rule="nonzero"></path>
                    <path d="M187.963225,101.732673 C249.498897,101.732673 299.383755,78.9590877 299.383755,50.8663366 C299.383755,22.7735856 249.498897,0 187.963225,0 C126.426584,0 76.5417256,22.7735856 76.5417256,50.8663366 C76.5417256,78.9590877 126.426584,101.732673 187.963225,101.732673 Z" id="Path" fill="#667A8C" fill-rule="nonzero"></path>
                    <polygon id="Path" fill="#667A8C" fill-rule="nonzero" points="322.637907 1.93776521 196.683168 1.93776521 196.683168 424.37058 251.909477 434.059406 287.923812 424.37058"></polygon>
                    <polygon id="Path" fill="#7D92A4" fill-rule="nonzero" points="323.606789 1.93776521 265.473833 1.93776521 251.909477 434.059406 287.758133 424.855021"></polygon>
                    <polygon id="Path" fill="#667A8C" fill-rule="nonzero" points="53.2885431 1.93776521 179.243281 1.93776521 179.243281 424.37058 124.016973 434.059406 88.0026379 424.37058"></polygon>
                    <polygon id="Path" fill="#7D92A4" fill-rule="nonzero" points="52.3196605 1.93776521 110.452617 1.93776521 124.016973 434.059406 88.1683168 424.855021"></polygon>
                    <path d="M375.92645,503.305446 C375.92645,473.744837 356.831711,470.140594 325.709264,460.006082 C310.465835,455.045403 294.909455,450.724187 279.12442,448.117893 C269.205969,446.480481 266.540573,455.161669 249.116188,455.161669 C233.574342,455.161669 214.184095,447.497808 210.175827,445.841018 C209.673946,445.637553 209.080021,445.453465 208.678904,445.821641 C208.581047,445.90884 208.498692,446.015417 208.437652,446.141372 C206.582242,449.929703 196.843034,470.615347 196.843034,487.17355 C196.843034,499.827157 195.753041,512.277298 199.263303,518.710679 C200.847426,521.617327 210.735842,523.196605 214.056202,523.196605 L370.542369,523.196605 C373.51587,523.196605 375.92645,506.260537 375.92645,503.305446 Z" id="Path" fill="#E0E2E4" fill-rule="nonzero"></path>
                    <g id="Clipped" transform="translate(196.683168, 441.810467)">
                        <mask id="mask-2" fill="white">
                            <use xlink:href="#path-1"></use>
                        </mask>
                        <g id="Path"></g>
                        <g id="Group" mask="url(#mask-2)" fill-rule="nonzero">
                            <g transform="translate(-9.688826, -1.937765)" id="Path">
                                <path d="M166.184682,43.2121641 C181.188798,43.2121641 185.384059,34.5503536 186.997249,33.1067185 C189.90099,36.4687412 187.48169,50.0524752 189.417518,56.2145686 C191.353345,62.376662 188.610438,68.4128006 186.997249,70.6606082 L51.9592362,76.9195898 C51.152157,64.0722065 50.0224399,38.3968175 51.9592362,38.3968175 C54.3785361,38.3968175 69.8670934,17.6917963 78.0948444,17.2170438 C84.6774328,16.8294908 116.654434,25.0746818 131.820354,29.2505658 C129.884526,31.1786421 126.69012,40.9934229 125.52843,45.6246818 C124.076075,51.3992221 123.591634,51.3992221 128.916612,52.8428571 C134.240622,54.2864922 135.208536,43.2121641 141.016018,43.2121641 L166.184682,43.2121641 Z" fill="#C2C6CA"></path>
                                <path d="M63.573232,38.8812588 C61.2508204,35.0251061 23.8848939,29.570297 8.88077793,27.8069307 L2.10441301,69.2072843 L77.6104031,73.5478784 C73.8995827,63.597454 65.8966124,42.7277228 63.573232,38.8812588 Z" fill="#9EA5AC"></path>
                                <path d="M46.1498161,11.4328147 C34.5338826,10.6673975 24.8537765,4.37934936 20.9811528,0.842927864 C17.1094979,4.69908062 7.52628006,15.2889675 9.84869165,19.1354314 C12.7534017,23.9507779 35.017355,27.8069307 44.6974611,27.8069307 C54.3775672,27.8069307 60.6694908,12.4016973 46.1498161,11.4328147 Z" fill="#C2C6CA"></path>
                                <path d="M103.262539,68.7325318 C127.946761,67.7636492 149.243769,73.5478784 176.34826,67.7636492 C224.748791,62.4735502 199.882419,65.6127298 212.164943,89.0306223 L22.3521216,89.0306223 C3.55676803,84.6222065 -2.6789604,57.3772277 11.3010467,59.5862801 C41.7937199,64.3919378 84.3761103,69.4688826 103.262539,68.7325318 Z" fill="#E0E2E4"></path>
                                <path d="M4.04120934,67.7636492 C10.6237977,70.4668317 99.8743564,70.6606082 102.779066,68.7325318 C96.0027016,67.2888967 46.1314074,61.6596888 35.017355,61.0299151 C18.0774116,60.0610325 11.6236846,58.7821075 4.04120934,59.1018388 C1.29830269,61.0299151 -2.54137907,65.0701556 4.04120934,67.7636492 Z" fill="#F1F5F9"></path>
                            </g>
                        </g>
                    </g>
                    <path d="M279.645446,444.904756 C281.056145,444.05275 282.89043,444.50566 283.742436,445.916359 C284.594443,447.327057 284.141533,449.161342 282.730834,450.013349 L282.266312,450.285029 C281.164603,450.921228 278.735284,452.297297 277.94827,452.773568 C277.724573,452.90894 277.507716,453.042892 277.29769,453.175382 L277.075,453.317 L298.138211,448.493698 C300.811571,447.881444 302.795322,450.881066 301.266922,453.088486 L301.168935,453.222607 L295.415,460.696 L318.969442,454.034305 C321.88432,453.209794 323.995775,456.73026 321.993284,458.909789 L321.877781,459.029459 L309.008113,471.73151 C307.83517,472.889176 305.945838,472.876792 304.788172,471.703849 C303.676813,470.577824 303.643771,468.791574 304.680651,467.626247 L304.815833,467.483908 L309.421,462.937 L288.362022,468.894196 C285.649391,469.661499 283.515411,466.601766 285.088423,464.335028 L285.185252,464.20264 L291.371,456.166 L270.110467,461.035156 C268.300298,461.449722 266.571736,460.130315 266.465469,458.304665 L266.460301,458.12645 C266.460301,454.133156 269.162424,451.227002 274.147959,448.104868 L274.858393,447.667689 C275.898167,447.038458 279.165664,445.194525 279.645446,444.904756 Z" id="Path" fill="#EBE5D9" fill-rule="nonzero"></path>
                    <path d="M286.541216,420.495195 C279.002714,420.495195 273.277592,426.863429 273.128236,435.467729 L273.112299,437.472408 L273.053689,441.312641 C273.053214,441.454202 273.053214,441.593867 273.053214,441.739339 C273.060352,443.738057 273.175621,445.116987 273.472999,446.249856 C273.820515,447.573727 274.424163,448.528213 275.372726,449.154622 C276.297503,449.80261 277.689433,450.142712 279.584639,450.142712 C283.526943,450.142712 288.235188,448.681384 291.904547,446.257409 C296.043581,443.51337 298.466078,439.864475 298.466078,435.813083 C298.466078,431.421268 297.39352,427.602514 295.384027,424.883566 C293.291868,422.042525 290.260821,420.495195 286.541216,420.495195 Z M286.541216,426.463221 C288.355051,426.463221 289.605885,427.101763 290.58149,428.42658 C291.773221,430.039062 292.498052,432.61976 292.498052,435.813083 C292.498052,437.622177 291.215794,439.553583 288.61093,441.280522 C285.906433,443.067106 282.337927,444.174686 279.584639,444.174686 L279.231878,444.168022 L279.14,444.163 L279.126717,444.058062 L279.087539,443.658005 C279.052699,443.22573 279.031021,442.695288 279.0238,442.053062 L279.025789,440.80943 L279.08904,436.77239 L279.093271,435.813083 C279.093271,430.177108 282.374254,426.463221 286.541216,426.463221 Z" id="Path" fill="#EBE5D9" fill-rule="nonzero"></path>
                    <path d="M258.562943,433.444744 C256.041875,434.555516 254.443785,436.509443 253.872399,439.054272 C253.32546,441.481934 253.743571,444.366804 255.062217,447.312232 C256.276075,450.018594 259.009226,451.738629 262.633489,452.331943 C265.854877,452.852988 269.486496,452.412635 272.163328,451.22237 L272.443441,451.095443 C273.533368,450.582328 274.259109,450.003952 274.697198,449.346817 L274.331,449.102 L275.068,448.554 L275.121662,448.375923 C275.128074,448.35167 275.133703,448.328515 275.138828,448.305299 L275.164351,448.167214 C275.239968,447.735117 275.229048,447.273139 275.149259,446.774452 C275.021595,445.990995 274.727675,445.118453 274.222344,443.948827 L273.773334,442.943666 L272.641789,440.526926 L272.254362,439.67136 C269.616038,433.774505 263.736899,431.145209 258.562943,433.444744 Z M266.68478,441.847388 L266.803577,442.101631 L267.070987,442.696121 C267.206777,442.994339 267.348104,443.299395 267.505816,443.635482 L268.532541,445.835905 L268.67,446.146 L268.566528,446.17612 C267.063401,446.582145 265.215873,446.704046 263.592027,446.441399 C261.787415,446.145967 260.801733,445.525655 260.508441,444.871745 C259.685402,443.03334 259.45371,441.434719 259.694974,440.363834 C259.853139,439.659404 260.187515,439.250574 260.978021,438.902275 C262.9532,438.024434 265.312998,439.027995 266.68478,441.847388 Z" id="Path" fill="#EBE5D9" fill-rule="nonzero"></path>
                    <path d="M284.960282,468.723886 L273.381649,463.543575 L258.386492,490.797145 L269.525916,495.23463 L285.39,485.927 L277.238695,498.900638 L288.259075,504.090934 L302.720904,476.869032 L291.179308,471.401323 L277.223,479.495 L284.960282,468.723886 Z M274.219,466.041 L282,469.522 L270.376939,485.705936 L291.27,473.588 L300.057,477.751 L287.413,501.55 L280.043,498.079 L291.251444,480.242399 L269.362,493.084 L261.142,489.808 L274.219,466.041 Z" id="Path" fill="#E0E2E4" fill-rule="nonzero"></path>
                    <path d="M2.47835698e-13,503.305446 C2.47835698e-13,473.744837 19.0947383,470.140594 50.2171853,460.006082 C65.4606153,455.045403 81.0169943,450.724187 96.8020297,448.117893 C106.720481,446.480481 109.385877,455.161669 126.810262,455.161669 C142.352107,455.161669 161.742355,447.497808 165.750622,445.841018 C166.252504,445.637553 166.846429,445.453465 167.247546,445.821641 C167.345403,445.90884 167.427758,446.015417 167.488798,446.141372 C169.344208,449.929703 179.083416,470.615347 179.083416,487.17355 C179.083416,499.827157 180.173409,512.277298 176.663147,518.710679 C175.079024,521.617327 165.190608,523.196605 161.870248,523.196605 L5.38456506,523.196605 C2.41077369,523.196605 2.47835698e-13,506.260537 2.47835698e-13,503.305446 Z" id="Path" fill="#E0E2E4" fill-rule="nonzero"></path>
                    <g id="Clipped" transform="translate(0.000000, 441.810467)">
                        <mask id="mask-4" fill="white">
                            <use xlink:href="#path-3"></use>
                        </mask>
                        <g id="Path"></g>
                        <g id="Group" mask="url(#mask-4)" fill-rule="nonzero">
                            <g transform="translate(-23.253182, -1.937765)" id="Path">
                                <path d="M46.0006082,43.2121641 C30.9962016,43.2121641 26.8014243,34.5503536 25.1881379,33.1067185 C22.2840092,36.4687412 24.7040842,50.0524752 22.7680629,56.2145686 C20.8320417,62.376662 23.5747546,68.4128006 25.1881379,70.6606082 L160.226054,76.9195898 C161.033133,64.0722065 162.16285,38.3968175 160.226054,38.3968175 C157.806754,38.3968175 142.318197,17.6917963 134.090446,17.2170438 C127.507857,16.8294908 95.5308557,25.0746818 80.3649364,29.2505658 C82.3007638,31.1786421 85.4951697,40.9934229 86.65686,45.6246818 C88.109215,51.3992221 88.5936563,51.3992221 83.2686775,52.8428571 C77.9446676,54.2864922 76.9767539,43.2121641 71.1692716,43.2121641 L46.0006082,43.2121641 Z" fill="#C2C6CA"></path>
                                <path d="M148.612058,38.8812588 C150.93447,35.0251061 188.300396,29.570297 203.304512,27.8069307 L210.080877,69.2072843 L134.574887,73.5478784 C138.285707,63.597454 146.288678,42.7277228 148.612058,38.8812588 Z" fill="#9EA5AC"></path>
                                <path d="M166.035474,11.4328147 C177.651407,10.6673975 187.331513,4.37934936 191.204137,0.842927864 C195.075792,4.69908062 204.65901,15.2889675 202.336598,19.1354314 C199.431888,23.9507779 177.167935,27.8069307 167.487829,27.8069307 C157.807723,27.8069307 151.515799,12.4016973 166.035474,11.4328147 Z" fill="#C2C6CA"></path>
                                <path d="M108.922751,68.7325318 C84.238529,67.7636492 62.9415205,73.5478784 35.8373204,67.7636492 C-12.5635007,62.4735502 12.3032588,65.6127298 0.020830976,89.0306223 L189.833168,89.0306223 C208.628522,84.6222065 214.86425,57.3772277 200.884243,59.5862801 C170.39157,64.3919378 127.80918,69.4688826 108.922751,68.7325318 Z" fill="#E0E2E4"></path>
                                <path d="M208.144081,67.7636492 C201.561492,70.4668317 112.310934,70.6606082 109.406223,68.7325318 C116.182588,67.2888967 166.053883,61.6596888 177.167935,61.0299151 C194.107878,60.0610325 200.561605,58.7821075 208.144081,59.1018388 C210.886987,61.0299151 214.726669,65.0701556 208.144081,67.7636492 Z" fill="#F1F5F9"></path>
                            </g>
                        </g>
                    </g>
                    <path d="M92.1840134,445.916359 C93.0360197,444.50566 94.8703047,444.05275 96.2810036,444.904756 L97.1288992,445.395272 C98.3053061,446.068992 100.297854,447.201592 101.068057,447.667689 L101.77849,448.104868 C106.764026,451.227002 109.466149,454.133156 109.466149,458.12645 C109.466149,459.983483 107.794154,461.373877 105.990854,461.069904 L105.815983,461.035156 L84.555,456.166 L90.7411977,464.20264 C92.4607842,466.436504 90.4120398,469.553951 87.723303,468.934952 L87.5644274,468.894196 L66.504,462.937 L71.1106169,467.483908 C72.236642,468.595267 72.2930962,470.38093 71.2715819,471.55975 L71.1382776,471.703849 C70.026918,472.829874 68.2412552,472.886328 67.0624356,471.864814 L66.9183365,471.73151 L54.0486689,459.029459 C51.8926739,456.901544 53.9119311,453.327397 56.7959181,453.992933 L56.9570082,454.034305 L80.511,460.697 L74.7575152,453.222607 C73.0845868,451.049356 74.9814117,447.994024 77.6254495,448.460688 L77.788239,448.493698 L98.85,453.316 L98.3085966,452.975556 L97.7111958,452.614423 C96.5361187,451.921369 93.7303124,450.336284 93.1956159,450.013349 C91.784917,449.161342 91.3320071,447.327057 92.1840134,445.916359 Z" id="Path" fill="#EBE5D9" fill-rule="nonzero"></path>
                    <path d="M89.3852334,420.495195 C85.6645061,420.495195 82.6330453,422.042736 80.5388117,424.888462 C78.5326394,427.602908 77.4594028,431.421934 77.4594028,435.813083 C77.4594028,439.863984 79.8821207,443.512715 84.016501,446.254475 C87.6915518,448.681504 92.3997182,450.142712 96.3418105,450.142712 C98.23848,450.142712 99.6322242,449.802065 100.622474,449.107152 C101.500046,448.531998 102.105367,447.575888 102.453451,446.249856 C102.731003,445.192512 102.849919,443.92082 102.870185,442.134184 L102.870185,440.915915 L102.806961,436.938163 L102.801205,435.813083 C102.801205,427.034381 97.024249,420.495195 89.3852334,420.495195 Z M89.3852334,426.463221 C93.5521958,426.463221 96.8331793,430.177108 96.8331793,435.813083 L96.8406339,437.124951 L96.9040783,441.196385 C96.9052147,441.376737 96.9054217,441.547624 96.9050389,441.726573 L96.9029901,442.024112 C96.8950348,442.785317 96.866874,443.391256 96.8206447,443.863796 L96.786,444.163 L96.6945457,444.168024 L96.3418105,444.174686 C93.588567,444.174686 90.0198571,443.067115 87.3101159,441.277588 C84.7100858,439.553343 83.4274289,437.621599 83.4274289,435.813083 C83.4274289,432.620629 84.1527152,430.039756 85.3419058,428.430719 C86.3200253,427.101623 87.5705837,426.463221 89.3852334,426.463221 Z" id="Path" fill="#EBE5D9" fill-rule="nonzero"></path>
                    <path d="M103.235565,440.633267 L102.039615,443.19093 C101.973598,443.336163 101.917715,443.462144 101.843447,443.6308 C101.253589,444.959072 100.91646,445.919771 100.778565,446.765946 L100.743912,447.015845 C100.705715,447.34421 100.699944,447.653616 100.7324,447.948495 L100.768914,448.195181 L100.800295,448.359241 C100.823284,448.45794 100.854237,448.551741 100.916144,448.739341 L101.516,449.155 L101.229251,449.346817 C101.703849,450.058713 102.516036,450.678178 103.781925,451.230653 C106.439954,452.412635 110.071572,452.852988 113.287331,452.332859 C116.917223,451.738629 119.650375,450.018594 120.863391,447.314111 C122.182878,444.366804 122.60099,441.481934 122.053574,439.052149 C121.482665,436.509443 119.884575,434.555516 117.354739,433.440865 C112.275638,431.18347 106.506184,433.68823 103.806686,439.379248 L103.235565,440.633267 Z M108.992603,442.393076 L109.119723,442.108697 C110.47008,439.090544 112.913396,437.997833 114.939662,438.898396 C115.738934,439.250574 116.073311,439.659404 116.230999,440.361712 C116.47274,441.434719 116.241048,443.03334 115.417167,444.873623 C115.124717,445.525655 114.139035,446.145967 112.328793,446.442315 L111.9785,446.492604 C110.447331,446.685383 108.756052,446.553464 107.368707,446.180028 L107.256,446.147 L107.725841,445.113927 L108.590079,443.272673 C108.730825,442.969974 108.862267,442.682914 108.992603,442.393076 Z" id="Path" fill="#EBE5D9" fill-rule="nonzero"></path>
                    <path d="M117.539958,490.797145 L102.544801,463.543575 L90.966168,468.723886 L98.703,479.495 L84.7471413,471.401323 L73.2055456,476.869032 L87.6673749,504.090934 L98.6877543,498.900638 L90.535,485.926 L106.400534,495.23463 L117.539958,490.797145 Z M101.707,466.04 L114.784,489.808 L106.564,493.083 L84.6750061,480.242399 L95.883,498.079 L88.512,501.551 L75.868,477.751 L84.655,473.588 L105.549511,485.705936 L93.925,469.522 L101.707,466.04 Z" id="Path" fill="#E0E2E4" fill-rule="nonzero"></path>
                </g>
                <g id="upper-limb" transform="translate(0.000000, 421.464030)" fill-rule="nonzero">
                    <path d="M121.266328,111.248182 C130.993832,94.0039699 152.858728,87.9104742 170.10294,97.6379784 C187.347152,107.365483 193.440647,129.230379 183.713143,146.47459 C165.881483,178.085261 147.218816,236.766197 134.832694,298.449085 L134.236654,301.44489 C128.833308,328.857812 125.095067,354.894887 123.476388,376.350548 L123.390201,377.516294 C122.596408,388.478847 122.389125,397.931775 122.75291,405.432518 L122.820308,406.688927 C122.977628,409.357459 123.207512,411.674766 123.493977,413.597063 L123.650882,414.578724 C123.873474,415.87889 124.077662,416.705689 124.17158,416.963963 C130.937637,435.57062 121.338935,456.139268 102.732279,462.905324 C84.1256224,469.671381 63.5569744,460.072679 56.7909176,441.466023 C46.2693286,412.531653 50.4840012,354.32557 64.5385736,284.3338 C78.2820306,215.891384 99.020168,150.684556 121.266328,111.248182 Z" id="Path" fill="#EBBAAA"></path>
                    <path d="M359.657295,97.6379784 C376.901507,87.9104742 398.766403,94.0039699 408.493907,111.248182 C430.740067,150.684556 451.478204,215.891384 465.221661,284.3338 C479.276234,354.32557 483.490906,412.531653 472.969317,441.466023 C466.203261,460.072679 445.634613,469.671381 427.027956,462.905324 C408.607367,456.206928 399.015473,435.980612 405.390575,417.522736 L405.588655,416.963963 C405.695095,416.671252 405.943172,415.648303 406.199153,414.033638 C406.562324,411.742847 406.841646,408.848597 407.007325,405.432518 L407.067172,404.047333 C407.34383,396.78042 407.115718,387.81445 406.370034,377.516294 L406.193456,375.175715 C404.497853,353.554517 400.69095,327.410188 395.227204,299.948294 L394.927541,298.449085 C382.541419,236.766197 363.878752,178.085261 346.047092,146.47459 C336.319587,129.230379 342.413083,107.365483 359.657295,97.6379784 Z" id="Path" fill="#EBBAAA"></path>
                    <rect id="Rectangle" fill="#373434" transform="translate(397.024233, 207.831461) scale(-1, 1) rotate(19.999985) translate(-397.024233, -207.831461) " x="319.513601" y="33.4325389" width="155.021264" height="348.797844" rx="77.5106082"></rect>
                    <rect id="Rectangle" fill="#373434" transform="translate(132.736917, 207.831406) rotate(20.000000) translate(-132.736917, -207.831406) " x="55.2263083" y="33.4325375" width="155.021216" height="348.797737" rx="77.5106082"></rect>
                    <path d="M121.651171,96.4881117 C120.44685,72.2747666 137.326723,50.8992786 161.160266,46.4579208 L264.880117,27.1287129 L368.600938,46.4579208 C392.434481,50.8992786 409.314354,72.2747666 408.110033,96.4881117 L400.523682,249.002829 L409.76876,459.794866 C410.01098,465.306839 405.607409,469.908062 400.089622,469.908062 L129.670613,469.908062 C124.153795,469.908062 119.750224,465.306839 119.991475,459.794866 L129.236553,249.002829 L121.651171,96.4881117 Z" id="Path" fill="#373434"></path>
                    <path d="M226.124813,38.7553041 C226.124813,17.3517185 243.476532,0 264.880117,0 C286.283703,0 303.635422,17.3517185 303.635422,38.7553041 L303.635422,43.5997171 C303.635422,65.0033027 286.283703,82.3550212 264.880117,82.3550212 C243.476532,82.3550212 226.124813,65.0033027 226.124813,43.5997171 L226.124813,38.7553041 Z" id="Path" fill="#EBBAAA"></path>
                </g>
                <g id="head" transform="translate(78.854658, 0.000000)" fill-rule="nonzero">
                    <rect id="Rectangle" fill="#EBBAAA" x="147.270156" y="314.886943" width="77.5106082" height="188.932107" rx="38.7553041"></rect>
                    <path d="M329.420085,300.354673 C350.82367,300.354673 368.175389,283.002955 368.175389,261.599369 C368.175389,240.195783 350.82367,222.844065 329.420085,222.844065 C308.016499,222.844065 290.664781,240.195783 290.664781,261.599369 C290.664781,283.002955 308.016499,300.354673 329.420085,300.354673 Z" id="Path" fill="#DE8E7C" opacity="0.5"></path>
                    <path d="M38.7553041,300.354673 C17.351331,300.354673 0,283.002955 0,261.599369 C0,240.195783 17.351331,222.844065 38.7553041,222.844065 C60.1588897,222.844065 77.5106082,240.195783 77.5106082,261.599369 C77.5106082,283.002955 60.1588897,300.354673 38.7553041,300.354673 Z" id="Path" fill="#DE8E7C" opacity="0.5"></path>
                    <path d="M40.6930693,166.647905 C40.6930693,86.3830543 105.760318,21.3155147 186.02546,21.3155147 C266.290601,21.3155147 331.35785,86.3830543 331.35785,166.647905 L331.35785,282.913817 C331.35785,363.178959 266.290601,428.246208 186.02546,428.246208 C105.760318,428.246208 40.6930693,363.178959 40.6930693,282.913817 L40.6930693,166.647905 Z" id="Path" fill="#F4D5CC"></path>
                    <path d="M280.43202,171.993741 C285.238533,171.693334 289.37851,175.346255 289.678917,180.152768 C289.973862,184.87189 286.45793,188.948493 281.780902,189.37949 L281.51989,189.399665 L227.262464,192.790754 C222.455951,193.091161 218.315974,189.43824 218.015567,184.631727 C217.720622,179.912605 221.236554,175.836002 225.913581,175.405005 L226.174594,175.38483 L280.43202,171.993741 Z" id="Path" fill="#393939"></path>
                    <path d="M78.4964722,180.152768 C78.7914173,175.433646 82.7875808,171.826549 87.481876,171.981259 L87.7433694,171.993741 L142.000795,175.38483 C146.807308,175.685237 150.460229,179.825214 150.159822,184.631727 C149.864877,189.350849 145.868713,192.957946 141.174418,192.803236 L140.912925,192.790754 L86.6554991,189.399665 C81.8489859,189.099258 78.1960651,184.959281 78.4964722,180.152768 Z" id="Path" fill="#393939"></path>
                    <path d="M280.975955,204.434327 L217.998586,204.434327 C209.436852,204.434327 202.496464,211.374715 202.496464,219.936448 L202.496464,245.127396 C202.496464,264.391406 218.112227,280.00717 237.376238,280.00717 L261.598303,280.00717 C280.862313,280.00717 296.478076,264.391406 296.478076,245.127396 L296.478076,219.936448 C296.478076,211.374715 289.537688,204.434327 280.975955,204.434327 Z M217.998586,216.060918 L280.975955,216.060918 C283.116499,216.060918 284.851485,217.795904 284.851485,219.936448 L284.851485,245.127396 C284.851485,257.970217 274.441124,268.380578 261.598303,268.380578 L237.376238,268.380578 C224.533416,268.380578 214.123055,257.970217 214.123055,245.127396 L214.123055,219.936448 C214.123055,217.795904 215.858041,216.060918 217.998586,216.060918 Z" id="Path" fill="#FCEBE6"></path>
                    <path d="M150.176803,204.434327 L87.1994342,204.434327 C78.6384252,204.434327 71.6973126,211.37496 71.6973126,219.936448 L71.6973126,245.127396 C71.6973126,264.391102 87.3137401,280.00717 106.577086,280.00717 L130.799151,280.00717 C150.063162,280.00717 165.678925,264.391406 165.678925,245.127396 L165.678925,219.936448 C165.678925,211.374715 158.738537,204.434327 150.176803,204.434327 Z M87.1994342,216.060918 L150.176803,216.060918 C152.317347,216.060918 154.052334,217.795904 154.052334,219.936448 L154.052334,245.127396 C154.052334,257.970217 143.641973,268.380578 130.799151,268.380578 L106.577086,268.380578 C93.7348692,268.380578 83.3239038,257.969853 83.3239038,245.127396 L83.3239038,219.936448 C83.3239038,217.796329 85.0594345,216.060918 87.1994342,216.060918 Z" id="Path" fill="#FCEBE6"></path>
                    <rect id="Rectangle" fill="#F9EAE6" x="159.865629" y="219.936448" width="48.4441301" height="9.68882603"></rect>
                    <path d="M247.065064,219.936448 C253.387465,219.936448 258.531201,224.982916 258.687973,231.267555 L258.691655,231.563039 L258.691655,243.189631 C258.691655,249.61082 253.486253,254.816222 247.065064,254.816222 C240.742662,254.816222 235.598926,249.769754 235.442154,243.485115 L235.438472,243.189631 L235.438472,231.563039 C235.438472,225.14185 240.643875,219.936448 247.065064,219.936448 Z" id="Path" fill="#000000"></path>
                    <path d="M121.594767,219.936448 C127.917168,219.936448 133.060904,224.982916 133.217676,231.267555 L133.221358,231.563039 L133.221358,243.189631 C133.221358,249.61082 128.015956,254.816222 121.594767,254.816222 C115.272365,254.816222 110.128629,249.769754 109.971857,243.485115 L109.968175,243.189631 L109.968175,231.563039 C109.968175,225.14185 115.173578,219.936448 121.594767,219.936448 Z" id="Path" fill="#000000"></path>
                    <path d="M219.102412,344.281108 C222.66713,342.215239 227.231622,343.430296 229.29749,346.995013 C231.363359,350.559731 230.148302,355.124223 226.583585,357.190091 L226.105574,357.455673 C225.958889,357.534626 225.791878,357.622712 225.604679,357.719285 C224.942214,358.061042 224.173532,358.432491 223.300388,358.8254 C220.885831,359.911935 218.075826,360.984605 214.884851,361.976914 C205.912475,364.767087 195.601791,366.431159 184.087694,366.431159 C172.573598,366.431159 162.262914,364.767087 153.290538,361.976914 C150.099563,360.984605 147.289558,359.911935 144.875001,358.8254 C144.147381,358.497976 143.492304,358.185455 142.910786,357.8926 L142.57071,357.719285 C142.133911,357.493947 141.80703,357.314822 141.591804,357.190091 C138.027087,355.124223 136.81203,350.559731 138.877899,346.995013 C140.900729,343.504561 145.319157,342.266886 148.848912,344.156255 L149.27728,344.393309 C149.568005,344.54743 150.070537,344.797435 150.778927,345.120354 L150.997614,345.219394 C152.872444,346.063055 155.118849,346.92058 157.72102,347.729787 C165.300489,350.086803 174.125176,351.511045 184.087694,351.511045 C194.050213,351.511045 202.8749,350.086803 210.454369,347.729787 C212.839693,346.988014 214.926073,346.20564 216.701335,345.430562 L217.177775,345.219394 C218.002227,344.848395 218.578312,344.562842 218.898109,344.393309 L219.102412,344.281108 Z" id="Path" fill="#C99584"></path>
                    <path d="M334.255778,132.239977 C334.481528,126.164114 330.081832,121.111392 324.575672,121.111392 C318.86314,121.111392 314.390778,126.531321 314.931414,132.805805 L324.053444,277.850437 C324.206528,279.627368 325.556181,280.977021 327.166464,280.977021 C328.849413,280.977021 330.225226,279.517884 330.297893,277.671194 L334.255778,132.239977 Z" id="Path" fill="#6E6C6C"></path>
                    <path d="M53.2798232,132.239977 C53.5055728,126.164114 49.1058769,121.111392 43.5997171,121.111392 C37.8871853,121.111392 33.4148232,126.531321 33.9554597,132.805805 L43.0774894,277.850437 C43.2305728,279.627368 44.5802263,280.977021 46.1905092,280.977021 C47.8734583,280.977021 49.2492716,279.517884 49.3219378,277.671194 L53.2798232,132.239977 Z" id="Path" fill="#6E6C6C"></path>
                    <path d="M186.446009,5.30491887 C212.364628,-6.43747012 266.609364,0.176399983 284.748784,36.6375211 C316.15802,36.6375211 346.094554,67.9529694 338.24273,106.494829 C353.303991,118.419526 358.265286,143.092627 344.924193,159.733095 L344.514307,160.234871 C330.66413,176.878336 332.201747,194.274624 319.592709,176.834737 C312.515985,164.203703 305.320821,154.064614 297.617279,145.931512 L297.406284,147.901978 C296.9508,152.227032 296.508362,156.917159 296.121528,162.030211 L294.83055,160.297418 C274.027093,132.49761 266.828118,129.160423 238.142624,127.002198 C228.626259,134.879213 231.884611,151.043082 251.948232,159.922891 C230.543678,159.922891 185.419908,151.043082 186.691082,129.204468 L186.166214,129.481516 C177.573207,133.911447 168.063345,133.861693 168.063345,156.497891 C151.016825,137.60468 118.973939,113.510508 84.4216478,139.606392 C62.2796187,156.328976 56.1469269,170.170468 51.0213639,202.02378 L50.8663366,202.994567 L39.3180575,179.471997 C36.7431904,174.982427 33.7112279,167.819616 27.9434809,160.729386 L27.5366124,160.234871 C13.6866294,143.592375 18.5947949,118.539977 33.8081895,106.494829 C25.9563649,67.9529694 55.8928996,36.6375211 87.3021358,36.6375211 C105.540839,-0.0231630756 160.28117,-6.50897552 186.027936,5.49937593 L186.446009,5.30491887 Z" id="Path" fill="#393939"></path>
                    <path d="M177.235343,247.341339 L190.940046,256.477809 C186.282218,263.464551 182.634371,273.952113 182.634371,281.581604 C182.634371,288.936847 185.289957,292.029457 193.4196,292.116316 L193.776521,292.118202 L193.776521,308.589206 C175.810415,308.589206 166.163366,297.736277 166.163366,281.581604 C166.163366,270.63797 170.716083,257.353487 176.896625,247.855613 L177.235343,247.341339 Z" id="Path" fill="#EBBAAA"></path>
                </g>
            </g>
        </g>
    </g>
</svg>