<?xml version="1.0" encoding="UTF-8"?>
<svg width="455px" height="1404px" viewBox="0 0 455 1404" version="1.1" xmlns="http://www.w3.org/2000/svg" xmlns:xlink="http://www.w3.org/1999/xlink">
    <!-- Generator: Sketch 55.2 (78181) - https://sketchapp.com -->
    <title>gee_me_027</title>
    <desc>Created with Sketch.</desc>
    <g id="GEE!-ME" stroke="none" stroke-width="1" fill="none" fill-rule="evenodd">
        <g id="gee_me_027" transform="translate(-373.000000, -98.000000)" fill-rule="nonzero">
            <g transform="translate(373.000000, 98.000000)">
                <g id="lower-limb" transform="translate(-0.000000, 854.000000)">
                    <path d="M301.545,231.77 C313.573762,231.77 323.347775,241.423726 323.542053,253.40619 L323.545,253.77 L323.545,481.77 C323.545,493.920264 313.695265,503.77 301.545,503.77 C289.516238,503.77 279.742225,494.116274 279.547947,482.13381 L279.545,481.77 L279.545,253.77 C279.545,241.619736 289.394736,231.77 301.545,231.77 Z" id="69" fill="#EBBAAA"></path>
                    <path d="M153.545,231.77 C165.573762,231.77 175.347775,241.423726 175.542053,253.40619 L175.545,253.77 L175.545,499.27 C175.545,511.420264 165.695265,521.27 153.545,521.27 C141.516238,521.27 131.742225,511.616274 131.547947,499.63381 L131.545,499.27 L131.545,253.77 C131.545,241.619736 141.394736,231.77 153.545,231.77 Z" id="68" fill="#EBBAAA"></path>
                    <path d="M233.875,117 C297.388,117 348.875,90.809 348.875,58.5 C348.875,26.191 297.388,0 233.875,0 C170.362,0 118.875,26.191 118.875,58.5 C118.875,90.809 170.362,117 233.875,117 Z" id="67" fill="#4D5457"></path>
                    <polygon id="66" fill="#4D5457" points="229.875 28.768 94.8750001 28.768 101.761 344.99 109.761 373.2 187.261 373.2 197.875 338.5"></polygon>
                    <polygon id="65" fill="#4D5457" points="228.59 34.789 364.047 34.789 354.375 336.5 341.375 372.23 265.375 378.92 258.114 344.5"></polygon>
                    <polygon id="64" fill="#434A4C" points="106.875 369 188.875 369 188.875 393 111.618 393"></polygon>
                    <polygon id="63" fill="#434A4C" points="260.875 371 342.875 371 338.875 393 264.618 393"></polygon>
                    <path d="M122.795,73.17 C115.291,71.57 98.2637001,62.67 95.3779001,64.17 C87.4415001,71.17 92.4921001,249.17 96.8211001,254.67 C101.15,260.17 137.946,262.17 137.946,254.67 C137.946,247.17 138.668,221.17 137.946,200.67 C137.225,180.17 149.49,77.67 143.718,76.17 C137.946,74.67 132.174,75.17 122.795,73.17 Z" id="62" fill="#2F3034"></path>
                    <path d="M132.173,80.67 C126.401,80.17 102.591,73.17 95.3766001,68.67 C90.3261001,73.17 81.6682001,104.17 91.0476001,108.17 C100.427,112.17 124.958,111.67 127.844,108.17 C130.73,104.67 137.945,81.17 132.173,80.67 Z" id="61" fill="#3B4345"></path>
                    <path d="M130.495368,86.2900731 L129.524632,86.0499269 L129.183704,87.4137048 C128.828239,88.8219097 128.43298,90.3479637 128.032316,91.8529773 L128.998659,92.1102365 L129.39738,90.5990595 C129.791741,89.0911625 130.169199,87.6085376 130.495368,86.2900731 Z M127.392815,97.901922 L126.432658,97.6224618 L126.169131,98.518813 C125.564904,100.552405 125.036485,102.176192 124.607565,103.294728 L125.54127,103.652772 L125.735455,103.131256 C126.201944,101.844425 126.76118,100.072065 127.392815,97.901922 Z M120.203548,105.696631 C118.50686,105.93729 116.450301,106.128506 114.272775,106.242421 L114.325018,107.241055 C116.530886,107.125658 118.616657,106.931726 120.343982,106.686721 L120.203548,105.696631 Z M108.301362,106.348273 C106.210002,106.311091 104.207217,106.192942 102.358136,105.99048 L102.249293,106.984539 C104.13025,107.190491 106.163134,107.310416 108.283586,107.348115 L108.301362,106.348273 Z M96.5410772,104.913066 C94.9813224,104.461907 93.7149698,103.909261 92.7766975,103.259037 L92.2071026,104.080963 C93.2449071,104.800162 94.6072484,105.394699 96.2632177,105.873687 L96.5410772,104.913066 Z" id="60" fill="#000000"></path>
                    <path d="M97.0208514,66.7117212 L96.6209487,67.6282788 L98.9439286,68.6307156 C99.9671319,69.0678935 101.048775,69.5247764 102.148812,69.9838715 L102.533961,69.061017 L99.9562173,67.9751431 C98.9139692,67.5319447 97.9221649,67.1049727 97.0208514,66.7117212 Z M108.079328,71.3270916 L107.708521,72.2558015 L109.187492,72.8420974 C110.64297,73.4147681 112.025723,73.9455732 113.315537,74.4256048 L113.664335,73.4884068 C111.952491,72.8513078 110.074718,72.123793 108.079328,71.3270916 Z M119.01432,76.3974021 C120.24291,76.7747898 121.238002,77.0326423 121.985984,77.1623727 L123.348039,77.3886234 C123.84351,77.4680275 124.379802,77.5513506 124.955019,77.6383885 L125.104629,76.6496434 L123.884348,76.4613213 C123.243905,76.36031 122.666734,76.2654084 122.156775,76.1770655 L121.706553,76.0891652 C121.065312,75.9518302 120.26139,75.7343525 119.307951,75.4414832 L119.01432,76.3974021 Z M131.037247,77.4936626 L130.902757,78.4845775 L133.260963,78.8003011 C134.455997,78.9582271 135.666679,79.1152378 136.855901,79.2667813 L136.98231,78.274803 L134.589384,77.9661799 C133.389638,77.8095784 132.193216,77.6505542 131.037247,77.4936626 Z M139.372919,81.9026558 L138.859503,87.879923 L139.855844,87.9653899 L140.36924,81.9883563 L139.372919,81.9026558 Z M138.347206,93.8593542 L137.836039,99.839597 L138.832414,99.9246647 L139.343564,93.9446176 L138.347206,93.8593542 Z M137.326459,105.815166 L136.817998,111.792116 L137.814408,111.876773 L138.322851,105.900035 L137.326459,105.815166 Z M136.310866,117.769189 L135.805232,123.746246 L136.801684,123.830406 L137.307296,117.853612 L136.310866,117.769189 Z M135.300913,129.728214 L134.798814,135.708367 L135.795325,135.791838 L136.297391,129.812062 L135.300913,129.728214 Z M134.29961,141.684692 L133.803479,147.664711 L134.800083,147.747046 L135.29616,141.767681 L134.29961,141.684692 Z M133.311974,153.646924 L132.828316,159.628294 L133.82514,159.707934 L134.308659,153.728285 L133.311974,153.646924 Z M132.362037,165.614846 C132.243503,167.288456 132.143168,169.296315 132.060224,171.622901 L133.059589,171.658529 L133.124745,169.981827 C133.193148,168.365487 133.271324,166.931021 133.359538,165.685495 L132.362037,165.614846 Z M132.897644,177.64849 L131.897844,177.628501 L131.853857,180.10822 C131.836142,181.242095 131.820861,182.418067 131.807962,183.635044 L132.807906,183.645642 L132.84092,180.981031 C132.857396,179.827951 132.876287,178.716737 132.897644,177.64849 Z M132.764749,189.645158 L131.764757,189.641019 L131.755527,193.188715 C131.754603,193.994981 131.754426,194.813053 131.754983,195.642688 L132.754982,195.642017 L132.75747,191.990381 C132.759141,191.196625 132.761563,190.414803 132.764749,189.645158 Z M132.77077,201.640688 L131.77077,201.64514 L131.796083,206.120168 C131.799527,206.626077 131.803178,207.134837 131.807034,207.646404 L132.807005,207.638866 L132.777922,203.114035 C132.775322,202.619965 132.772933,202.128834 132.77077,201.640688 Z M131.86027,213.648124 L131.903705,217.631958 C131.911507,218.301751 131.919588,218.974419 131.92794,219.649913 L132.927863,219.637549 L132.860219,213.637991 L131.86027,213.648124 Z M132.008089,225.648526 C132.036643,227.642966 132.067062,229.640721 132.099287,231.649533 L133.099159,231.633493 L133.007987,225.634211 L132.008089,225.648526 Z M132.200103,237.646229 L132.308872,243.646056 L133.3087,243.627481 L133.199949,237.628692 L132.200103,237.646229 Z M132.204931,249.408283 C131.641698,250.69965 130.177871,252.095065 128.036051,253.080275 L128.453947,253.98877 C130.80894,252.905503 132.454942,251.336426 133.121541,249.808064 L132.204931,249.408283 Z M122.3834,254.48644 C120.59811,254.646026 118.632734,254.610773 116.486761,254.36305 L116.372086,255.356453 C118.584103,255.6118 120.617565,255.648274 122.472434,255.482468 L122.3834,254.48644 Z M110.631043,253.260452 C108.82239,252.801226 106.925764,252.220175 104.940392,251.512647 L104.604701,252.45462 C106.618956,253.172441 108.54542,253.762632 110.384946,254.229698 L110.631043,253.260452 Z" id="59" fill="#000000"></path>
                    <path d="M343.732,73.17 C350.029,71.57 364.318,62.67 366.739,64.17 C373.399,71.17 369.161,249.17 365.528,254.67 C361.895,260.17 331.018,262.17 331.018,254.67 C331.018,247.17 330.413,221.17 331.018,200.67 C331.623,180.17 321.331,77.67 326.174,76.17 C331.018,74.67 335.862,75.17 343.732,73.17 Z" id="58" fill="#2F3034"></path>
                    <path d="M335.862,80.67 C340.705,80.17 360.685,73.17 366.739,68.67 C370.977,73.17 378.242,104.17 370.372,108.17 C362.501,112.17 341.916,111.67 339.494,108.17 C337.072,104.67 331.018,81.17 335.862,80.67 Z" id="57" fill="#3B4345"></path>
                    <path d="M338.166561,86.0683614 L337.187439,86.2716386 L337.630857,88.3745827 C337.891269,89.5924042 338.17172,90.8763505 338.455165,92.1443843 L339.431081,91.9262363 C338.978684,89.9023723 338.533904,87.8377383 338.166561,86.0683614 Z M340.790052,97.7596072 L339.818738,97.9974072 L340.14136,99.2954079 C340.630181,101.230269 341.057081,102.766304 341.406716,103.824347 L342.356216,103.510581 C341.941979,102.257041 341.40917,100.288448 340.790052,97.7596072 Z M346.63752,106.821065 C348.427006,107.078619 350.526043,107.258138 352.671476,107.328135 L352.704085,106.328667 C350.594634,106.259844 348.532205,106.083455 346.779979,105.831264 L346.63752,106.821065 Z M358.738468,107.213351 C360.978982,107.043164 363.011942,106.72707 364.756303,106.257905 L364.496573,105.292224 C362.817957,105.743705 360.845125,106.050451 358.662728,106.216224 L358.738468,107.213351 Z" id="56" fill="#000000"></path>
                    <path d="M365.758646,67.6136244 L365.297354,66.7263756 L364.211551,67.2872777 C362.898496,67.9615035 361.435769,68.6987623 359.952753,69.4317778 L360.395855,70.328249 L361.663064,69.6984723 C363.128638,68.966168 364.536959,68.2487937 365.758646,67.6136244 Z M354.981097,72.9364383 L354.557573,72.0305537 L353.360871,72.5855042 C351.797439,73.3043076 350.365404,73.9371575 349.097421,74.4668812 L349.482902,75.3895966 C351.082077,74.7215115 352.935581,73.89277 354.981097,72.9364383 Z M343.699088,77.3080963 L343.507273,76.3266653 L342.831716,76.4561825 C341.42004,76.7220647 339.650043,77.0283172 337.612743,77.3620242 L337.774387,78.3488733 L339.727151,78.0234677 C341.27467,77.7606787 342.615847,77.5198102 343.699088,77.3080963 Z M331.690958,78.2937399 L328.669785,78.7422784 L328.948747,82.6053552 L329.946155,82.5333986 L329.700699,79.1339591 L329.274104,79.6647738 L331.840879,79.2824379 L331.690958,78.2937399 Z M329.379941,88.5900996 L329.810128,94.5752378 L330.80756,94.5036283 L330.377362,88.518326 L329.379941,88.5900996 Z M330.239202,100.558459 L330.6673,106.54175 L331.664757,106.470467 L331.236646,100.48701 L330.239202,100.558459 Z M331.094537,112.52745 L331.520443,118.510312 L332.517926,118.439405 L332.092006,112.456345 L331.094537,112.52745 Z M331.945233,124.49535 L332.368635,130.481677 L333.366153,130.411262 L332.942732,124.424669 L331.945233,124.49535 Z M332.790015,136.464556 L333.209295,142.449266 L334.206865,142.379599 L333.787556,136.394468 L332.790015,136.464556 Z M333.625748,148.435882 L334.037822,154.420745 L335.035492,154.352526 L334.623359,148.366791 L333.625748,148.435882 Z M334.442903,160.406385 L334.756893,165.199924 C334.781052,165.578973 334.804272,165.975359 334.826676,166.390809 L335.825225,166.336962 L335.754869,165.136342 L335.440681,160.339753 L334.442903,160.406385 Z M336.058529,172.342242 L335.058917,172.370109 L335.09536,173.768333 C335.130219,175.200438 335.160341,176.733806 335.185855,178.364988 L336.185733,178.349349 L336.128412,175.212475 C336.107224,174.210956 336.083943,173.253877 336.058529,172.342242 Z M336.255585,184.350172 L335.255618,184.358322 L335.280356,188.295103 C335.283433,188.971887 335.285992,189.658887 335.288038,190.355938 L336.288034,190.353002 L336.269543,186.289194 C336.265418,185.632423 336.260768,184.986028 336.255585,184.350172 Z M336.293408,196.355049 L335.293408,196.354071 L335.282584,201.123918 C335.281165,201.530511 335.279619,201.939345 335.277947,202.350397 L336.277947,202.354465 L336.289551,198.713705 C336.29136,197.918248 336.292648,197.131961 336.293408,196.355049 Z M335.245677,208.354023 L335.199492,214.35146 L336.199454,214.3602 L336.245655,208.360628 L335.245677,208.354023 Z M335.141378,220.353031 L335.072937,226.352815 L336.072863,226.365012 L336.141322,220.363614 L335.141378,220.353031 Z M334.995437,232.348884 L334.909913,238.347476 L335.909803,238.362328 L335.995344,232.362506 L334.995437,232.348884 Z M335.817951,244.360913 L334.818073,244.345296 L334.756,248.668794 C334.756,249.188742 334.95302,249.843104 335.315416,250.514951 L336.195541,250.04021 C335.94225,249.570632 335.795695,249.130339 335.763014,248.802327 L335.756956,248.486301 C335.760552,248.06795 335.775308,247.091257 335.817951,244.360913 Z M340.155854,254.557125 C341.891652,255.256316 343.932152,255.615928 346.268246,255.580894 L346.25325,254.581006 C344.047145,254.614091 342.138708,254.277754 340.529488,253.629549 L340.155854,254.557125 Z M352.28584,254.746417 C354.099114,254.300178 356.021599,253.672825 358.054584,252.855917 L357.681733,251.928026 C355.691214,252.72787 353.813288,253.340682 352.046875,253.775389 L352.28584,254.746417 Z" id="55" fill="#000000"></path>
                    <path d="M0.0195269638,520.5 C0.516336064,517.3 -0.928492936,515.09 6.57112006,512.09 C14.0707001,509.09 102.571,524.59 102.571,524.59 C125.353,522.74 186.543,492.87 209.071,506.59 C216.198,510.93 213.783,524.68 211.152,537.55 C206.942,541.84 164.352,545.59 150.543,542.38 C150.543,534.87 149.468,530.04 149.468,530.04 C149.468,530.04 141.102,535.45 132.071,537.55 C113.652,541.84 111.07,542 54.0195001,542 C8.26315006,537.71 -0.477238936,523.7 0.0195269638,520.5 Z" id="54" fill="#463E35"></path>
                    <path d="M133.427,384.5 C138.302,384.5 166.745,399.43 181.503,387.85 C183.125,386.58 186.426,387.62 186.429,389.68 C186.455,409.58 186.75,444.18 189.73,457.9 C192.887,472.44 195.552,470.36 198.709,483.86 C200.895,493.21 207.974,515.02 198.709,515.02 L156.455,515.02 C146.458,515.02 132.955,526.63 99.6644001,529.89 C44.4022001,535.31 30.8979001,527.89 19.8637001,524.39 C-5.24249994,516.43 7.49843006,498.21 19.8637001,492.39 C37.9780001,483.86 63.9386001,477.46 77.1440001,470.39 C87.4266001,464.89 90.9577001,463.18 96.2373001,457.39 C104.941,447.85 112.587,397.66 113.769,384.55 C113.851,383.64 115.132,383.17 115.911,383.65 C121.06,386.82 128.594,384.5 133.427,384.5 Z" id="53" fill="#766464"></path>
                    <path d="M22.9063907,508.207366 C23.4656528,506.357042 25.419009,505.310428 27.2693338,505.869691 L28.7106021,506.300506 C34.8121171,508.102155 39.1178118,509.067741 44.5892271,509.656328 C52.6012853,510.518223 61.0948985,510.120233 70.5176466,508.144491 C72.409503,507.747811 74.2647287,508.95989 74.6614091,510.851747 C75.0580895,512.743603 73.8460099,514.598829 71.9541535,514.995509 C61.8062946,517.12329 52.5754187,517.555827 43.840523,516.616172 C37.424225,515.92594 32.5130257,514.767358 25.2440664,512.570309 C23.3937416,512.011047 22.3471285,510.057691 22.9063907,508.207366 Z" id="52" fill="#BDAFAF"></path>
                    <path d="M90.4266001,489 C100.218,480 135.927,459.89 133.427,384.5 C137.67,384.5 147.927,390 163.427,391 C179.704,390.51 179.437,389.04 183.747,386.6 C183.864,386.53 184,386.43 184.111,386.36 C190.871,381.81 187.831,454.51 192.683,467.39 C196.6,477.79 203.943,493.39 203.943,512.39 C200.516,518.39 166.736,515.39 155.965,515.39 C150.927,488.5 111.427,509 102.927,506.5 C95.4659001,504.31 90.4266001,500 90.4266001,489 Z" id="51" fill="#473E3E"></path>
                    <path d="M102.427,456.6 C113.627,447.8 117.927,405 118.427,384.5 C116.427,384 115.927,382.6 114.427,383.1 C112.927,383.6 112.927,389.6 112.427,394.6 C111.879,400.08 107.927,417.1 105.927,428.6 C103.927,440.1 101.927,447.1 94.4266001,456.6 C88.4266001,464.2 64.9266001,472 57.4266001,478.5 C58.2600001,478.33 60.4266001,477.2 62.4266001,477.6 C64.9266001,478.1 64.4266001,478.6 67.4266001,478.6 C70.4266001,478.6 88.4266001,467.6 102.427,456.6 Z" id="50" fill="#473E3E"></path>
                    <path d="M115.927626,385.998991 L116.097453,386.005818 L138.046453,387.505818 C139.423952,387.599956 140.464321,388.792954 140.370182,390.170453 C140.279809,391.492852 139.176728,392.504552 137.869903,392.500084 L137.705547,392.494182 L135.328,392.332 L137.717569,393.128292 C139.992546,393.886617 139.979308,397.067967 137.782645,397.849751 L137.613803,397.90381 L122.691,402.167 L134.57037,408.27678 C136.639102,409.3407 136.247645,412.372871 134.048407,412.922131 L133.88427,412.957825 L120.923,415.368 L134.346147,420.675098 C136.475379,421.516888 136.429617,424.508271 134.355091,425.322009 L134.1871,425.381648 L116.708,430.959 L132.001834,438.242849 C134.211986,439.295302 133.735509,442.532022 131.391424,442.957156 L131.224863,442.982192 L112.413,445.239 L125.427,455 C127.305342,456.408757 126.374352,459.361813 124.088648,459.495316 L123.927,459.5 L104.085,459.5 L117.669676,472.707493 C119.435503,474.424231 117.916001,477.354492 115.545223,476.971257 L115.392764,476.942251 L89.757,471.334 L99.9574094,485.541983 C101.443065,487.611289 99.2512362,490.27977 96.9661936,489.30883 L96.826207,489.244802 L71.326207,476.744802 C70.0864372,476.137072 69.574068,474.639377 70.1817983,473.399607 C70.7642065,472.211494 72.1639605,471.691428 73.3707616,472.185037 L73.5269931,472.255198 L90.092,480.376 L81.8957907,468.958017 C80.5898794,467.139069 82.1484565,464.682712 84.3091419,465.028998 L84.4608359,465.057749 L107.902,470.185 L96.183924,458.792507 C94.6130742,457.265326 95.631108,454.629249 97.7682481,454.504587 L97.9266001,454.5 L116.427,454.5 L104.427,445.5 C102.668531,444.181148 103.35399,441.428518 105.464033,441.04275 L105.629137,441.017808 L122.058,439.046 L108.852166,432.757151 C106.861489,431.80921 106.998807,428.966716 108.996154,428.179142 L109.1669,428.118352 L125.992,422.748 L111.007853,416.824902 C108.728545,415.92378 108.988897,412.658005 111.301091,412.078902 L111.46973,412.042175 L125.781,409.379 L114.78363,403.72322 C112.821404,402.714075 113.047424,399.873625 115.0721,399.150134 L115.240197,399.09619 L128.471,395.316 L115.136431,390.871708 C112.460792,389.979829 113.11024,386.125266 115.762736,386.001829 L115.927626,385.998991 Z" id="49" fill="#272222"></path>
                    <path d="M121.183682,390.158956 C122.200462,389.224867 123.781955,389.291901 124.716044,390.308682 C125.650133,391.325462 125.583099,392.906955 124.566318,393.841044 C110.504528,406.759238 91.0076681,430.014832 86.6676752,439.996815 C86.1171493,441.263025 84.6443943,441.843201 83.3781848,441.292675 C82.1119753,440.742149 81.531799,439.269394 82.0823249,438.003185 C86.7689743,427.223891 106.647831,403.512657 121.183682,390.158956 Z" id="48" fill="#272222"></path>
                    <path d="M83.1269246,438.16795 C83.5864533,437.478657 84.5177573,437.292396 85.2070504,437.751925 C85.8963434,438.211453 86.0826042,439.142757 85.6230755,439.83205 L85.3181825,440.296749 C85.0916259,440.648531 84.8739666,441.002651 84.5546404,441.533104 L83.768399,442.830141 C83.55047,443.181321 83.3594862,443.477434 83.1230755,443.83205 C82.6635468,444.521343 81.7322428,444.707604 81.0429498,444.248075 C80.3536567,443.788547 80.1673959,442.857243 80.6269246,442.16795 L80.9318176,441.703251 C81.1583742,441.351469 81.3760335,440.997349 81.6953597,440.466896 L82.4816011,439.169859 C82.6995301,438.818679 82.890514,438.522566 83.1269246,438.16795 Z" id="47" fill="#766464"></path>
                    <path d="M125.314119,390.547143 C126.392652,389.685092 127.965807,389.860586 128.827857,390.939119 C134.254528,397.728563 140.95971,408.400025 144.690231,417.556758 C145.211169,418.835424 144.596909,420.294293 143.318242,420.815231 C142.039576,421.336169 140.580707,420.721909 140.059769,419.443242 C136.532976,410.786569 130.072674,400.50484 124.922143,394.060881 C124.060092,392.982348 124.235586,391.409193 125.314119,390.547143 Z" id="46" fill="#272222"></path>
                    <path d="M142.20418,417.658359 C142.945147,417.287875 143.846157,417.588212 144.216641,418.32918 L144.35341,418.592381 C144.419862,418.715771 144.495934,418.851404 144.589886,419.014057 L145.821101,421.094924 C145.982775,421.377674 146.100395,421.596688 146.216641,421.82918 C146.587125,422.570147 146.286788,423.471157 145.54582,423.841641 C144.804853,424.212125 143.903843,423.911788 143.533359,423.17082 L143.39659,422.907619 C143.330138,422.784229 143.254066,422.648596 143.160114,422.485943 L141.928899,420.405076 C141.767225,420.122326 141.649605,419.903312 141.533359,419.67082 C141.162875,418.929853 141.463212,418.028843 142.20418,417.658359 Z" id="45" fill="#766464"></path>
                    <path d="M8.77801006,534.77 C5.23745006,533.94 6.43139006,527.99 7.85775006,524.08 C10.7883001,524.93 16.7080001,528.34 16.6555001,530.83 C16.5227001,537.14 13.2037001,535.8 8.77801006,534.77 Z" id="44" fill="#463E35"></path>
                    <path d="M1.65226006,528.04 C0.346289064,527.34 0.904642064,520.02 2.87042006,516.18 C7.52699006,517.24 9.88618006,522.75 9.88618006,522.75 C9.88618006,522.75 11.3299001,526.8 8.17630006,529.22 C6.89760006,529.69 3.63469006,529.09 1.65226006,528.04 Z" id="43" fill="#463E35"></path>
                    <path d="M17.1102001,539.33 C13.1580001,538.54 15.0777001,530.49 16.5315001,526.57 C19.8082001,527.4 26.2323001,530.3 25.7153001,535.33 C25.0690001,541.62 22.0505001,540.33 17.1102001,539.33 Z" id="42" fill="#463E35"></path>
                    <path d="M27.9834001,542.64 C23.6056001,542.25 24.7912001,534.05 25.9313001,530 C29.5792001,530.49 36.8750001,532.72 36.8750001,537.78 C36.8750001,544.1 33.4557001,543.12 27.9834001,542.64 Z" id="41" fill="#463E35"></path>
                    <path d="M39.5014001,544.64 C34.3940001,544.25 35.7772001,536.05 37.1073001,532 C41.3632001,532.49 49.8750001,534.72 49.8750001,539.78 C49.8750001,546.1 45.8858001,545.12 39.5014001,544.64 Z" id="40" fill="#463E35"></path>
                    <path d="M51.9834001,546.64 C47.6056001,546.25 48.7912001,538.05 49.9313001,534 C53.5792001,534.49 60.8750001,536.72 60.8750001,541.78 C60.8750001,548.1 57.4557001,547.12 51.9834001,546.64 Z" id="39" fill="#463E35"></path>
                    <path d="M63.5014001,547.64 C58.3940001,547.25 59.7772001,539.05 61.1073001,535 C65.3632001,535.49 73.8750001,537.72 73.8750001,542.78 C73.8750001,549.1 69.8858001,548.12 63.5014001,547.64 Z" id="38" fill="#463E35"></path>
                    <path d="M76.5014001,548.64 C71.3940001,548.25 72.7772001,540.05 74.1073001,536 C78.3632001,536.49 86.8750001,538.72 86.8750001,543.78 C86.8750001,550.1 82.8858001,549.12 76.5014001,548.64 Z" id="37" fill="#463E35"></path>
                    <path d="M89.7077001,549.27 C85.3139001,549.37 85.5747001,541.09 86.2544001,536.94 C87.7310001,536.97 93.6265001,535.28 95.6388001,535.88 C98.6404001,536.79 97.6610001,540.44 97.9996001,543.45 C98.7067001,549.73 95.2001001,549.14 89.7077001,549.27 Z" id="36" fill="#463E35"></path>
                    <path d="M101.415,548.27 C97.0209001,548.37 97.2818001,540.09 97.9614001,535.94 C99.4381001,535.97 105.334,534.28 107.346,534.88 C110.347,535.79 109.368,539.44 109.707,542.45 C110.414,548.73 106.907,548.14 101.415,548.27 Z" id="35" fill="#463E35"></path>
                    <path d="M112.415,546.92 C108.021,547.02 108.282,538.74 108.961,534.59 C110.438,534.62 116.334,532.92 118.346,533.53 C121.347,534.44 120.368,538.08 120.707,541.09 C121.414,547.37 117.907,546.79 112.415,546.92 Z" id="34" fill="#463E35"></path>
                    <path d="M123.415,544.92 C119.021,545.02 119.282,536.74 119.961,532.59 C121.438,532.62 127.334,530.92 129.346,531.53 C132.347,532.44 131.368,536.08 131.707,539.09 C132.414,545.37 128.907,544.79 123.415,544.92 Z" id="33" fill="#463E35"></path>
                    <path d="M133.415,541.92 C129.021,542.02 129.282,533.74 129.961,529.59 C131.438,529.62 137.334,527.92 139.346,528.53 C142.347,529.44 141.368,533.08 141.707,536.09 C142.414,542.37 138.907,541.79 133.415,541.92 Z" id="32" fill="#463E35"></path>
                    <path d="M143.415,539.92 C139.021,540.02 139.282,531.74 139.961,527.59 C141.438,527.62 147.334,525.92 149.346,526.53 C152.347,527.44 151.368,531.08 151.707,534.09 C152.414,540.37 148.907,539.79 143.415,539.92 Z" id="31" fill="#463E35"></path>
                    <path d="M209.552295,513.167818 L210.299705,513.832182 C206.389548,518.231108 201.849868,519.858541 188.504995,521.99372 C180.348526,523.298755 165.333858,523.067241 153.06226,522.055203 L152.48,522.006 L149.666641,522.872049 C145.368875,524.182613 139.1424,526.040551 132.111632,528.093284 L129.065405,528.980173 C110.10949,534.483503 84.0651432,538 54.4258001,538 C43.1527993,538 32.0511735,535.481279 22.101068,531.145879 C14.1768373,527.69318 7.48392918,523.232723 4.25859641,519.571351 L4.04408692,519.322971 L4.80747321,518.677029 C7.83245631,522.252009 14.5255464,526.754317 22.5005121,530.229121 C32.3296037,534.511794 43.2967303,537 54.4258001,537 C83.5737696,537 109.22165,533.590217 128.018008,528.240756 L136.368135,525.803168 C142.475364,524.004822 147.684759,522.439105 151.11149,521.383474 L152.277423,521.022585 L152.468612,521.001819 L153.823634,521.11356 C165.891025,522.072267 180.441531,522.271155 188.347005,521.00628 L189.964874,520.742637 C201.494133,518.826779 205.74946,517.258136 209.237165,513.514235 L209.552295,513.167818 Z" id="30" fill="#67513B"></path>
                    <path d="M117.441506,386.499993 C118.822019,386.476892 119.96017,387.576994 119.983639,388.957506 C120.006169,390.282798 118.993217,391.38473 117.690755,391.491528 L117.526494,391.499639 C113.423118,391.569396 106.058009,396.141989 100.496542,402.301622 C94.4208098,409.030832 91.946463,415.833555 94.2199038,420.382038 C96.118883,424.1803 97.8982105,425.332971 99.795312,424.868573 C101.887817,424.356342 104.537272,421.984905 107.31794,418.055803 C112.363076,410.926992 117.406142,399.098489 119.039494,391.476177 C119.328793,390.126114 120.657759,389.266195 122.007823,389.555494 C123.357886,389.844793 124.217805,391.173759 123.928506,392.523823 C122.156843,400.791582 116.846257,413.247555 111.39926,420.944197 C107.984081,425.769868 104.536637,428.855559 100.984176,429.725177 C96.4876373,430.825899 92.5884736,428.299972 89.7475747,422.617719 C86.3146369,415.749426 89.4829662,407.038737 96.7854079,398.950878 C103.184645,391.863368 111.6647,386.598567 117.441506,386.499993 Z" id="29" fill="#272222"></path>
                    <path d="M122.182802,391.479419 C122.47031,390.128974 123.798135,389.267293 125.148581,389.554801 C126.499027,389.84231 127.360707,391.170135 127.073199,392.520581 C126.174482,396.741907 126.076283,413.373311 127.164252,426.733335 C127.819459,434.779142 128.847549,441.574591 130.223603,446.417841 C130.950676,448.976897 131.758892,450.92575 132.600217,452.173521 C133.258969,453.150517 133.7658,453.5 134.128,453.5 C145.71891,453.5 153.066552,446.985354 153.567545,436.6292 C154.140439,424.786762 145.965513,409.833848 129.478916,395.379846 C128.440706,394.469634 128.336943,392.890126 129.247154,391.851916 C130.157366,390.813706 131.736874,390.709943 132.775084,391.620154 C150.306474,406.99014 159.218621,423.291518 158.561705,436.8708 C157.927855,449.973283 148.310868,458.5 134.128,458.5 C127.074803,458.5 123.794355,446.953914 122.180749,427.139165 L122.098688,426.097537 C121.061648,412.484226 121.182241,396.179112 122.182802,391.479419 Z" id="28" fill="#272222"></path>
                    <path d="M453.855,520.5 C453.358,517.3 454.804,515.09 447.297,512.09 C439.789,509.09 351.195,524.59 351.195,524.59 C328.388,522.74 267.134,492.87 244.581,506.59 C237.446,510.93 239.864,524.68 242.498,537.55 C246.713,541.84 289.348,545.59 303.172,542.38 C303.172,534.87 304.248,530.04 304.248,530.04 C304.248,530.04 312.623,535.45 321.663,537.55 C340.102,541.84 342.687,542 399.798,542 C445.603,537.71 454.353,523.7 453.855,520.5 Z" id="27" fill="#463E35"></path>
                    <path d="M320.307,384.5 C315.426,384.5 286.943,399.43 272.171,387.84 C270.549,386.57 267.251,387.61 267.249,389.68 C267.222,409.57 266.927,444.18 263.944,457.9 C260.783,472.44 258.115,470.36 254.955,483.86 C252.767,493.21 245.681,515.02 254.955,515.02 L297.254,515.02 C307.262,515.02 320.779,526.63 354.105,529.89 C409.426,535.31 422.945,527.89 433.991,524.39 C459.124,516.43 446.369,498.21 433.991,492.39 C415.857,483.86 389.869,477.46 376.65,470.39 C366.356,464.89 362.821,463.18 357.536,457.39 C348.823,447.85 341.168,397.66 339.986,384.55 C339.904,383.64 338.623,383.17 337.845,383.65 C332.69,386.82 325.146,384.5 320.307,384.5 Z" id="26" fill="#766464"></path>
                    <path d="M426.57836,505.86939 C428.42885,505.310677 430.381896,506.357869 430.94061,508.20836 C431.499323,510.05885 430.452131,512.011896 428.60164,512.57061 C421.325011,514.767622 416.409321,515.926044 409.986838,516.616214 C401.243498,517.555787 392.003589,517.123288 381.845491,514.995665 C379.953549,514.599396 378.741066,512.744434 379.137335,510.852491 C379.533604,508.960549 381.388566,507.748066 383.280509,508.144335 C392.714226,510.120236 401.217658,510.518262 409.238913,509.656286 C415.137905,509.022371 419.683079,507.951263 426.57836,505.86939 Z" id="25" fill="#BDAFAF"></path>
                    <path d="M363.352,489 C353.55,480 317.804,459.89 320.306,384.5 C316.059,384.5 305.791,390 290.274,391 C273.979,390.51 274.247,389.04 269.932,386.6 C269.815,386.53 269.679,386.43 269.568,386.36 C262.8,381.81 265.844,454.51 260.987,467.39 C257.066,477.79 249.714,493.39 249.714,512.39 C253.145,518.39 286.962,515.39 297.744,515.39 C302.788,488.5 342.33,509 350.839,506.5 C358.307,504.31 363.352,500 363.352,489 Z" id="24" fill="#473E3E"></path>
                    <path d="M351.34,456.6 C340.128,447.8 335.824,405 335.323,384.5 C337.325,384 337.826,382.6 339.328,383.1 C340.829,383.6 340.829,389.6 341.33,394.6 C341.878,400.08 345.835,417.1 347.837,428.6 C349.839,440.1 351.841,447.1 359.349,456.6 C365.355,464.2 388.88,472 396.388,478.5 C395.554,478.33 393.385,477.2 391.383,477.6 C388.88,478.1 389.381,478.6 386.378,478.6 C383.374,478.6 365.355,467.6 351.34,456.6 Z" id="23" fill="#473E3E"></path>
                    <path d="M337.654732,386.005805 C340.526326,385.809774 341.367468,389.783807 338.774533,390.81375 L338.614825,390.871956 L325.266,395.316 L338.511138,399.096 C340.633741,399.701824 340.967167,402.533125 339.121796,403.638001 L338.967389,403.723724 L327.957,409.379 L342.285798,412.042087 C344.696207,412.490056 345.065462,415.746581 342.905862,416.756956 L342.747298,416.825238 L327.748,422.749 L344.590367,428.118118 C346.691856,428.788093 346.939731,431.624521 345.06598,432.674325 L344.904917,432.757588 L331.685,439.045 L348.133546,441.01777 C350.316754,441.279472 351.10057,444.007046 349.465546,445.396576 L349.334987,445.500759 L337.321,454.5 L355.844,454.5 C358.035467,454.5 359.142798,457.100949 357.69618,458.67976 L357.585751,458.793406 L345.854,470.186 L369.325299,465.057632 C371.513209,464.579534 373.15064,466.984759 371.975638,468.831177 L371.889069,468.959047 L363.683,480.377 L380.271546,472.254738 C381.459902,471.672827 382.884707,472.119717 383.535806,473.249358 L383.616262,473.400546 C384.198173,474.588902 383.751283,476.013707 382.621642,476.664806 L382.470454,476.745262 L356.943454,489.245262 C354.655526,490.365609 352.389305,487.759731 353.727468,485.66832 L353.813931,485.540953 L364.023,471.334 L338.358701,476.942368 C335.952314,477.468207 334.346633,474.583495 335.974902,472.817739 L336.083249,472.706594 L349.681,459.5 L329.817,459.5 C327.468446,459.5 326.441782,456.577673 328.191422,455.09994 L328.318013,454.999241 L341.344,445.24 L322.511454,442.98223 C320.080234,442.690798 319.498522,439.470105 321.585164,438.319281 L321.735083,438.242412 L337.044,430.96 L319.546633,425.381882 C317.364437,424.686176 317.208163,421.697121 319.224039,420.745573 L319.387702,420.674762 L332.822,415.368 L319.849203,412.957913 C317.56132,412.532715 317.066313,409.514354 319.016538,408.357535 L319.163611,408.276276 L331.055,402.167 L316.116862,397.904 C313.810198,397.245643 313.685244,394.065422 315.846772,393.189353 L316.013175,393.128044 L318.406,392.331 L316.022268,392.494195 C314.699862,392.58447 313.54757,391.629195 313.374306,390.3339 L313.357805,390.170268 C313.26753,388.847862 314.222805,387.69557 315.518101,387.522305 L315.681732,387.505805 L337.654732,386.005805 Z" id="22" fill="#272222"></path>
                    <path d="M329.027069,390.309648 C329.960624,389.292378 331.542081,389.224513 332.559352,390.158069 L333.447572,390.979829 C347.90754,404.463779 367.104634,427.440364 371.702238,438.002179 C372.253319,439.268147 371.673789,440.741156 370.407821,441.292238 C369.141853,441.843319 367.668844,441.263789 367.117762,439.997821 C362.772463,430.015611 343.254595,406.759514 329.178648,393.841931 C328.161378,392.908376 328.093513,391.326919 329.027069,390.309648 Z" id="21" fill="#272222"></path>
                    <path d="M368.577374,437.752309 C369.266455,437.292462 370.197845,437.478293 370.657691,438.167374 L370.987592,438.669561 C371.196878,438.994033 371.396941,439.316791 371.660234,439.751401 L372.559979,441.235295 C372.765311,441.565964 372.942311,441.840131 373.160691,442.167374 C373.620538,442.856455 373.434707,443.787845 372.745626,444.247691 C372.056545,444.707538 371.125155,444.521707 370.665309,443.832626 L370.335408,443.330439 C370.126122,443.005967 369.926059,442.683209 369.662766,442.248599 L368.763021,440.764705 C368.557689,440.434036 368.380689,440.159869 368.162309,439.832626 C367.702462,439.143545 367.888293,438.212155 368.577374,437.752309 Z" id="20" fill="#766464"></path>
                    <path d="M324.912056,390.937977 C325.774738,389.859948 327.347994,389.685375 328.426023,390.548056 C329.504052,391.410738 329.678625,392.983994 328.815944,394.062023 C323.660867,400.503939 317.193039,410.787037 313.662931,419.443978 C313.141587,420.722479 311.682524,421.336276 310.404023,420.814931 C309.125521,420.293587 308.511724,418.834524 309.033069,417.556022 C312.767242,408.39865 319.480374,397.725545 324.912056,390.937977 Z" id="19" fill="#272222"></path>
                    <path d="M309.506896,418.328107 C309.877972,417.587436 310.779222,417.28782 311.519893,417.658896 C312.260564,418.029972 312.56018,418.931222 312.189104,419.671893 L312.088159,419.869258 C311.916119,420.198592 311.716718,420.545004 311.364396,421.13523 L310.635582,422.35771 C310.428612,422.711886 310.300991,422.94412 310.187641,423.17082 C309.817157,423.911788 308.916147,424.212125 308.17518,423.841641 C307.434212,423.471157 307.133875,422.570147 307.504359,421.82918 L307.670759,421.507662 C307.807504,421.252336 307.968847,420.971151 308.207376,420.56896 L308.978376,419.277549 C309.234772,418.84276 309.379259,418.582872 309.506896,418.328107 Z" id="18" fill="#766464"></path>
                    <path d="M445.088,534.77 C448.632,533.94 447.437,527.99 446.009,524.08 C443.076,524.93 437.15,528.34 437.202,530.83 C437.335,537.14 440.658,535.8 445.088,534.77 Z" id="17" fill="#463E35"></path>
                    <path d="M452.221,528.04 C453.528,527.34 452.969,520.02 451.001,516.18 C446.34,517.24 443.978,522.75 443.978,522.75 C443.978,522.75 442.533,526.8 445.69,529.22 C446.97,529.69 450.236,529.09 452.221,528.04 Z" id="16" fill="#463E35"></path>
                    <path d="M436.747,539.33 C440.704,538.54 438.782,530.49 437.327,526.57 C434.047,527.4 427.616,530.3 428.133,535.33 C428.78,541.62 431.802,540.33 436.747,539.33 Z" id="15" fill="#463E35"></path>
                    <path d="M425.862,542.64 C430.244,542.25 429.057,534.05 427.916,530 C424.264,530.49 416.961,532.72 416.961,537.78 C416.961,544.1 420.384,543.12 425.862,542.64 Z" id="14" fill="#463E35"></path>
                    <path d="M414.332,544.64 C419.445,544.25 418.061,536.05 416.729,532 C412.469,532.49 403.948,534.72 403.948,539.78 C403.948,546.1 407.941,545.12 414.332,544.64 Z" id="13" fill="#463E35"></path>
                    <path d="M401.837,546.64 C406.22,546.25 405.033,538.05 403.892,534 C400.24,534.49 392.936,536.72 392.936,541.78 C392.936,548.1 396.359,547.12 401.837,546.64 Z" id="12" fill="#463E35"></path>
                    <path d="M390.306,547.64 C395.419,547.25 394.034,539.05 392.702,535 C388.442,535.49 379.921,537.72 379.921,542.78 C379.921,549.1 383.915,548.12 390.306,547.64 Z" id="11" fill="#463E35"></path>
                    <path d="M377.292,548.64 C382.405,548.25 381.02,540.05 379.689,536 C375.428,536.49 366.907,538.72 366.907,543.78 C366.907,550.1 370.901,549.12 377.292,548.64 Z" id="10" fill="#463E35"></path>
                    <path d="M364.072,549.27 C368.471,549.37 368.21,541.09 367.529,536.94 C366.051,536.97 360.149,535.28 358.135,535.88 C355.13,536.79 356.111,540.44 355.772,543.45 C355.064,549.73 358.574,549.14 364.072,549.27 Z" id="09" fill="#463E35"></path>
                    <path d="M352.353,548.27 C356.752,548.37 356.491,540.09 355.81,535.94 C354.332,535.97 348.43,534.28 346.416,534.88 C343.411,535.79 344.391,539.44 344.052,542.45 C343.345,548.73 346.855,548.14 352.353,548.27 Z" id="08" fill="#463E35"></path>
                    <path d="M341.34,546.92 C345.739,547.02 345.478,538.74 344.797,534.59 C343.319,534.62 337.417,532.92 335.403,533.53 C332.398,534.44 333.379,538.08 333.04,541.09 C332.332,547.37 335.842,546.79 341.34,546.92 Z" id="07" fill="#463E35"></path>
                    <path d="M330.33,544.92 C334.728,545.02 334.467,536.74 333.787,532.59 C332.309,532.62 326.407,530.92 324.392,531.53 C321.388,532.44 322.368,536.08 322.029,539.09 C321.321,545.37 324.832,544.79 330.33,544.92 Z" id="06" fill="#463E35"></path>
                    <path d="M320.318,541.92 C324.717,542.02 324.456,533.74 323.776,529.59 C322.297,529.62 316.396,527.92 314.381,528.53 C311.376,529.44 312.357,533.08 312.018,536.09 C311.31,542.37 314.82,541.79 320.318,541.92 Z" id="05" fill="#463E35"></path>
                    <path d="M310.307,539.92 C314.706,540.02 314.445,531.74 313.764,527.59 C312.286,527.62 306.384,525.92 304.37,526.53 C301.365,527.44 302.346,531.08 302.006,534.09 C301.299,540.37 304.809,539.79 310.307,539.92 Z" id="04" fill="#463E35"></path>
                    <path d="M243.35246,513.832367 L244.09954,513.167633 L244.414984,513.514047 C248.064872,517.428093 252.555281,518.964769 265.327911,521.006266 C273.391516,522.295025 288.36023,522.064242 300.569063,521.058483 L301.244431,521.001815 L301.435425,521.022538 L306.596503,522.59922 C311.392589,524.046898 317.862454,525.9639 324.951264,528.019786 C343.835255,533.496229 369.812995,537 399.392,537 C410.533023,537 421.51186,534.511769 431.351455,530.229044 C439.157481,526.831439 445.736711,522.451476 448.856177,518.916513 L449.063481,518.676824 L449.826519,519.323176 C446.686854,523.029647 439.863314,527.614839 431.750545,531.145956 C421.790026,535.481313 410.67681,538 399.392,538 C370.121965,538 344.354923,534.577996 325.445942,529.20223 L318.201256,527.092081 C313.2986,525.653038 308.920383,524.347911 305.498992,523.31215 L301.232,522.006 L300.650008,522.055207 C288.593436,523.048495 273.891168,523.289909 265.630717,522.064658 L265.170085,521.993733 L264.061942,521.814425 C251.917901,519.824019 247.417927,518.203581 243.684894,514.197565 L243.35246,513.832367 Z" id="03" fill="#67513B"></path>
                    <path d="M336.308447,386.499993 C342.089957,386.598538 350.578136,391.862859 356.983582,398.949926 C364.293707,407.037941 367.46559,415.749386 364.028621,422.618928 C361.185045,428.300399 357.283095,430.825445 352.784268,429.725321 C349.22919,428.855978 345.778408,425.770526 342.359922,420.945197 C336.90721,413.248475 331.591087,400.79232 329.817601,392.524324 C329.528026,391.174319 330.387672,389.845177 331.737677,389.555601 C333.087681,389.266025 334.416823,390.125672 334.706399,391.475676 C336.341334,399.097751 341.389505,410.926072 346.439828,418.054803 C349.223627,421.984247 351.876118,424.355923 353.971951,424.868429 C355.873498,425.333425 357.65608,424.179873 359.557218,420.381394 C361.832595,415.833552 359.35594,409.031523 353.274168,402.302574 C347.809565,396.256468 340.60549,391.739337 336.455182,391.508131 L336.223553,391.49964 C334.84304,391.476197 333.742918,390.338066 333.76636,388.957553 C333.789803,387.57704 334.927934,386.476917 336.308447,386.499993 Z" id="02" fill="#272222"></path>
                    <path d="M328.594121,389.554865 C329.944531,389.267191 331.272461,390.12871 331.560135,391.479121 C332.574274,396.239739 332.684876,412.905 331.603256,426.620016 L331.462671,428.31823 C329.813438,447.40973 326.52072,458.5 319.604,458.5 C305.408263,458.5 295.781989,449.973909 295.14755,436.870907 C294.490012,423.290835 303.411838,406.989225 320.961912,391.619282 C322.000603,390.70962 323.580056,390.81422 324.489718,391.852911 C325.39938,392.891603 325.29478,394.471056 324.256089,395.380718 C307.751884,409.834714 299.568331,424.787378 300.1417,436.629093 C300.643111,446.984683 307.999146,453.5 319.604,453.5 C319.968439,453.5 320.476651,453.149949 321.136452,452.172468 C321.978649,450.924772 322.787689,448.976063 323.515516,446.417151 C324.893016,441.574095 325.922205,434.778833 326.578142,426.733109 L326.694289,425.236089 C327.658899,412.15902 327.535877,396.586153 326.669865,392.520879 C326.382191,391.170469 327.24371,389.842539 328.594121,389.554865 Z" id="01" fill="#272222"></path>
                </g>
                <g id="upper-limb" transform="translate(9.484359, 392.000000)">
                    <path d="M75.0605406,449.768 L365.060641,449.768 L368.884641,490.29834 C369.512641,496.960553 364.881641,502.768 358.940641,502.768 L81.1808406,502.768 C75.2394406,502.768 70.6084406,496.960553 71.2369406,490.29834 L75.0605406,449.768 Z" id="18" fill="#81838E" transform="translate(220.060748, 476.268000) rotate(-4.000000) translate(-220.060748, -476.268000) "></path>
                    <path d="M52.0744406,117.418 C76.2552406,63.111 115.775641,67.209 132.567641,69.266 L101.221641,257.49 L6.89144061,316 C-11.6091694,290.5 12.8237406,214.221 14.3910406,208 C19.6646406,187.068 33.4334406,159.283 52.0744406,117.418 Z" id="17" fill="#333742"></path>
                    <path d="M396.451641,118.173 C372.270641,63.866 332.750641,67.964 315.958641,70.021 L347.304641,258.245 L437.891641,223.5 C435.391641,215.5 433.458641,210.721 431.891641,204.5 C426.617641,183.568 415.092641,160.038 396.451641,118.173 Z" id="16" fill="#343844"></path>
                    <path d="M100.685641,102.565 C104.842641,72.327 130.205641,50.151 160.738641,49.813 L229.717641,49.049 L293.275641,55.745 C322.334641,58.807 345.910641,81.378 349.737641,110.434 C358.077641,173.755 371.022641,284.516 371.022641,361.947 C371.022641,476.171 389.183641,487.096 361.064641,502.062 C332.945641,517.029 107.979641,514.922 77.2644406,491.719 C46.5495406,468.515 65.6470406,444.342 65.6470406,396.964 C65.6470406,362.061 88.5994406,190.493 100.685641,102.565 Z" id="15" fill="#383C48"></path>
                    <ellipse id="14" fill="#2E2A2B" cx="220.765641" cy="80.401" rx="49.3747" ry="65.4012"></ellipse>
                    <rect id="13" fill="#EBBAAA" x="187.390641" y="0" width="69" height="115" rx="34.5"></rect>
                    <path d="M183.897641,149.447 C151.314641,143.117 81.0563406,74.276 117.712641,38.67 C141.131641,8.997 178.806641,48.561 183.897641,68.342 C187.970641,84.168 199.171641,123.071 206.298641,133.621 C214.444641,141.204 216.480641,155.777 183.897641,149.447 Z" id="12" fill="#40424E"></path>
                    <path d="M260.883641,149.447 C293.467641,143.117 363.725641,74.276 327.068641,38.67 C303.649641,8.997 265.975641,48.561 260.883641,68.342 C256.811641,84.168 245.610641,123.071 238.482641,133.621 C230.336641,141.204 228.300641,155.777 260.883641,149.447 Z" id="11" fill="#40424E"></path>
                    <path d="M180.697641,125.866 C184.483092,125.866 187.566739,128.870783 187.693582,132.62535 L187.697641,132.866 L187.697641,272.437 C187.697641,276.302993 184.563634,279.437 180.697641,279.437 C176.912189,279.437 173.828542,276.432217 173.7017,272.67765 L173.697641,272.437 L173.697641,132.866 C173.697641,129.000007 176.831647,125.866 180.697641,125.866 Z" id="10" fill="#2E2A2B"></path>
                    <path d="M262.020641,125.866 C265.806092,125.866 268.889739,128.870783 269.016582,132.62535 L269.020641,132.866 L269.020641,293.537 C269.020641,297.402993 265.886634,300.537 262.020641,300.537 C258.235189,300.537 255.151542,297.532217 255.0247,293.77765 L255.020641,293.537 L255.020641,132.866 C255.020641,129.000007 258.154647,125.866 262.020641,125.866 Z" id="09" fill="#2E2A2B"></path>
                    <path d="M116.280641,386.931 C121.155641,359.769 144.788641,340 172.384641,340 L219.981641,340 L305.400641,340 C311.924641,340 318.555641,341.101 323.355641,345.52 C331.426641,352.948 343.210641,369.567 347.430641,404.949 C354.091641,460.801 347.430641,469.897 347.430641,469.897 C347.430641,469.897 278.738641,488 219.981641,488 C161.224641,488 101.390641,469.897 101.390641,469.897 L113.047641,404.949 L116.280641,386.931 Z" id="08" fill="#40424E"></path>
                    <path d="M297.090641,201 L294.010641,195.06 C295.130641,194.5 296.330641,193.28 296.330641,191.34 C296.330641,189 294.630641,186.76 291.470641,186.76 L285.830641,186.76 L285.830641,201 L289.330641,201 L289.330641,195.7 L290.510641,195.7 L293.030641,201 L297.090641,201 Z M292.830641,191.34 C292.830641,192.08 292.270641,192.78 291.310641,192.78 L289.330641,192.78 L289.330641,189.9 L291.310641,189.9 C292.270641,189.9 292.830641,190.6 292.830641,191.34 Z M302.377641,201 L302.377641,186.76 L298.877641,186.76 L298.877641,201 L302.377641,201 Z M314.824641,196.64 C314.824641,195.32 314.524641,194.26 313.764641,193.52 C313.164641,192.92 312.244641,192.52 310.964641,192.34 L309.244641,192.1 C308.744641,192.04 308.444641,191.86 308.264641,191.68 C308.044641,191.46 307.984641,191.2 307.984641,191.02 C307.984641,190.4 308.484641,189.7 309.704641,189.7 C310.324641,189.7 311.504641,189.64 312.404641,190.54 L314.604641,188.34 C313.384641,187.12 311.844641,186.64 309.804641,186.64 C306.564641,186.64 304.604641,188.54 304.604641,191.14 C304.604641,192.36 304.924641,193.32 305.584641,194 C306.224641,194.66 307.184641,195.08 308.444641,195.26 L310.164641,195.5 C310.624641,195.56 310.924641,195.7 311.104641,195.88 C311.304641,196.1 311.384641,196.38 311.384641,196.72 C311.384641,197.54 310.724641,198 309.344641,198 C308.204641,198 306.904641,197.74 306.164641,197 L303.924641,199.24 C305.364641,200.72 307.144641,201.12 309.324641,201.12 C312.324641,201.12 314.824641,199.54 314.824641,196.64 Z M326.799641,201 L326.799641,197.88 L320.619641,197.88 L320.619641,195.38 L325.899641,195.38 L325.899641,192.26 L320.619641,192.26 L320.619641,189.88 L326.799641,189.88 L326.799641,186.76 L317.119641,186.76 L317.119641,201 L326.799641,201 Z" id="07" fill="#FFFFFF"></path>
                    <path d="M289.450641,218 L284.270641,203.76 L281.570641,203.76 L276.390641,218 L280.050641,218 L280.750641,215.88 L285.130641,215.88 L285.790641,218 L289.450641,218 Z M284.210641,212.96 L281.730641,212.96 L283.010641,209.16 L284.210641,212.96 Z M301.221641,211.78 L301.221641,209.8 L295.641641,209.8 L295.641641,212.72 L297.741641,212.72 L297.741641,212.92 C297.741641,213.46 297.601641,214.04 297.201641,214.44 C296.881641,214.78 296.381641,215 295.641641,215 C295.001641,215 294.521641,214.74 294.261641,214.4 C293.941641,213.98 293.741641,213.48 293.741641,210.88 C293.741641,208.28 293.941641,207.8 294.261641,207.38 C294.521641,207.04 295.001641,206.76 295.641641,206.76 C296.841641,206.76 297.401641,207.28 297.681641,208.36 L301.201641,208.36 C300.861641,206.02 299.301641,203.64 295.641641,203.64 C293.921641,203.64 292.721641,204.2 291.681641,205.24 C290.181641,206.74 290.241641,208.74 290.241641,210.88 C290.241641,213.02 290.181641,215.02 291.681641,216.52 C292.721641,217.56 293.981641,218.12 295.641641,218.12 C297.201641,218.12 298.561641,217.78 299.781641,216.52 C300.861641,215.42 301.221641,214.08 301.221641,211.78 Z M315.075641,218 L309.895641,203.76 L307.195641,203.76 L302.015641,218 L305.675641,218 L306.375641,215.88 L310.755641,215.88 L311.415641,218 L315.075641,218 Z M309.835641,212.96 L307.355641,212.96 L308.635641,209.16 L309.835641,212.96 Z M320.021641,218 L320.021641,203.76 L316.521641,203.76 L316.521641,218 L320.021641,218 Z M334.028641,218 L334.028641,203.76 L330.528641,203.76 L330.528641,210.92 L325.968641,203.76 L322.908641,203.76 L322.908641,218 L326.408641,218 L326.408641,210.84 L330.968641,218 L334.028641,218 Z" id="06" fill="#FF0000"></path>
                    <path d="M334.890641,247 C320.890641,247.4 306.723641,261.834 301.390641,269 C301.390641,280.5 334.890641,293 350.390641,291.5 C365.890641,290 366.890641,263.5 361.890641,257.5 C356.890641,251.5 352.390641,246.5 334.890641,247 Z" id="05" fill="#EBBEAA"></path>
                    <path d="M83.8898406,266.5 C92.3896406,261 113.389641,260 117.889641,260 C120.389641,267.167 122.189641,281.8 109.389641,283 C93.3896406,284.5 75.3898406,272 83.8898406,266.5 Z" id="04" fill="#EBBEAA"></path>
                    <path d="M97.3906406,370.5 C4.85714061,353.713 0.557340614,313.335 0.390640614,294.002 C5.59064061,222.002 75.8906406,227.5 80.8906406,262 C92.8906406,274.166 96.1196406,273.547 124.390641,279.001 C152.890641,284.5 184.890641,286 237.890641,269.5 L294.390641,331.5 C257.890641,359 210.390641,391 97.3906406,370.5 Z" id="03" fill="#333742"></path>
                    <path d="M445.390641,253 C445.390641,239.08 424.255641,182.986 412.890641,155.5 L361.390641,189.351 C369.328641,205.285 368.731641,261.838 349.681641,268.53 C325.868641,276.896 175.955641,252.397 167.838641,258.372 C161.343641,263.153 155.390641,302.789 155.390641,314.54 C206.262641,334.856 355.092641,381.463 400.553641,348.599 C424.460641,331.317 445.390641,300.802 445.390641,253 Z" id="02" fill="#343844"></path>
                    <path d="M119.390641,252 C122.990641,250 151.890641,257.833 165.890641,262 C161.890641,265.2 156.890641,304.166 156.390641,309.5 C152.390641,309.833 143.390641,291.615 135.890641,287 C126.390641,281.154 115.723641,277.667 109.390641,276 C109.557641,274.5 110.090641,270.8 110.890641,268 C111.890641,264.5 114.890641,254.5 119.390641,252 Z" id="01" fill="#2F323D"></path>
                </g>
                <g id="hand" transform="translate(41.875000, -0.000000)">
                    <path d="M340,336.554 C362.091,336.554 380,317.078 380,293.054 C380,269.029 362.091,249.554 340,249.554 C317.909,249.554 300,269.029 300,293.054 C300,317.078 317.909,336.554 340,336.554 Z" id="14" fill="#C99584" opacity="0.5"></path>
                    <path d="M40,336.554 C17.9086,336.554 0,317.078 0,293.054 C0,269.029 17.9086,249.554 40,249.554 C62.091,249.554 80,269.029 80,293.054 C80,317.078 62.091,336.554 40,336.554 Z" id="13" fill="#C99584" opacity="0.5"></path>
                    <path d="M40,196.322 C40,113.48 107.157,46.3223001 190,46.3223001 C272.843,46.3223001 340,113.48 340,196.322 L340,251.168 C340,260.079 339.319,268.976 337.962,277.783 L328.795,337.289 C318.269,405.619 259.47,456.054 190.334,456.054 C122.666,456.054 64.67,407.687 52.5174,341.119 L42.8423,288.123 C40.9513,277.765 40,267.257 40,256.728 L40,196.322 Z" id="12" fill="#F4D5CC"></path>
                    <path d="M30.5004,151.054 C29.8301,90.0438001 83.503,70.0543001 74.001,81.5539001 C64.5,93.0535001 87.003,121.554 74.001,130.554 C61,139.554 75.501,168.555 68.501,179.555 C61.501,190.555 50.3259,188.055 44.0007,209.555 C37.6756,231.055 43.0007,272.912 43.0007,272.912 C43.5007,274.055 43.0007,275.555 42.0007,275.555 C41.0007,275.555 39.5007,275.055 39.0944,272.912 C39.0944,272.912 31.5001,242.054 30.5004,151.054 Z" id="11" fill="#868686"></path>
                    <path d="M348.994,152.588 C349.613,96.2504001 300.07,77.7918001 308.84,88.4107001 C317.61,99.0296001 296.839,125.347 308.84,133.658 C320.841,141.969 307.456,168.748 313.918,178.906 C320.379,189.063 330.694,186.755 336.533,206.608 C342.371,226.462 337.456,265.113 337.456,265.113 C336.994,266.169 337.456,267.554 338.379,267.554 C339.302,267.554 340.686,267.092 341.061,265.113 C341.061,265.113 348.071,236.619 348.994,152.588 Z" id="10" fill="#868686"></path>
                    <path d="M195,114.554 C111.999,114.554 54.7873,128.054 42.0003,155.742 C29.2133,183.43 32.14,192.054 31.5003,184.554 C30.8605,177.054 30.0003,168.68 30.0003,153.554 C30.0003,55.3660001 98.5,40.5520001 160.5,46.5526001 C222.5,52.5533001 270.861,114.554 195,114.554 Z" id="09" fill="#706F6F"></path>
                    <path d="M184.324,114.063 C260.473,114.063 336.86,85.3991001 340,141.053 C352,160.053 347.5,182.054 349,151.053 C355.46,17.5537001 152,-72.3187999 48,83.1811001 C48,83.1811001 108.167,114.063 184.324,114.063 Z" id="08" fill="#706F6F"></path>
                    <path d="M185.927572,262.839048 L200.072428,272.268952 C195.265005,279.480086 191.5,290.304474 191.5,298.179 C191.5,305.772019 194.241995,308.963707 202.636755,309.052108 L203,309.054 L203,326.054 C184.456881,326.054 174.5,314.852509 174.5,298.179 C174.5,286.883891 179.198935,273.172754 185.577977,263.369839 L185.927572,262.839048 Z" id="07" fill="#EBBAAA"></path>
                    <path d="M253,231 C259.525457,231 264.834393,236.208544 264.9962,242.695025 L265,243 L265,257 C265,263.627417 259.627417,269 253,269 C246.474543,269 241.165607,263.791456 241.0038,257.304975 L241,257 L241,243 C241,236.372583 246.372583,231 253,231 Z" id="06" fill="#000000"></path>
                    <path d="M127.5,231 C134.025457,231 139.334393,236.208544 139.4962,242.695025 L139.5,243 L139.5,257 C139.5,263.627417 134.127417,269 127.5,269 C120.974543,269 115.665607,263.791456 115.5038,257.304975 L115.5,257 L115.5,243 C115.5,236.372583 120.872583,231 127.5,231 Z" id="05" fill="#000000"></path>
                    <path d="M150,121.054 C111.5,111.68 61.5,133.054 30.5,138.554 C30.5,71.0537001 102.5,2.05357012 185,0.0535726192 C267.5,-1.94642988 318.5,52.5536001 331.5,79.5536001 C336.556,90.0537001 325,109.482 298,121.054 C266.5,134.554 207.5,135.054 150,121.054 Z" id="04" fill="#2B2A2A"></path>
                    <polygon id="03" fill="#393939" points="223.781 216.46 215.526 198.673 272.034 185.66 290.113 195.964 291.078 205.917 263.32 204.589"></polygon>
                    <polygon id="02" fill="#393939" points="152.257 215.878 160.193 197.931 103.048 186.037 85.069 196.696 84.306 206.667 112.215 204.791"></polygon>
                    <path d="M233.186733,349.361221 C235.502342,345.598358 240.429916,344.425125 244.192779,346.740734 C247.955643,349.056342 249.128875,353.983916 246.813267,357.74678 C243.619741,362.936259 236.705045,368.608642 228.109412,372.879037 C217.734826,378.033233 205.455534,381 192,381 C178.517615,381 166.83398,378.032343 157.034323,372.759411 C149.550632,368.732638 143.637685,363.603966 139.659008,358.431686 C136.965136,354.929653 137.620281,349.90688 141.122314,347.213008 C144.552877,344.574114 149.442742,345.148935 152.173184,348.465465 L152.340992,348.676314 C154.97604,352.101877 159.169558,355.739179 164.615677,358.669589 C172.094286,362.693627 181.17445,365 192,365 C202.948764,365 212.797096,362.620571 220.990588,358.549963 C226.964864,355.581885 231.52547,351.885599 233.080773,349.527363 L233.186733,349.361221 Z" id="01" fill="#C99584"></path>
                </g>
            </g>
        </g>
    </g>
</svg>