<?xml version="1.0" encoding="UTF-8"?>
<svg width="506px" height="1400px" viewBox="0 0 506 1400" version="1.1" xmlns="http://www.w3.org/2000/svg" xmlns:xlink="http://www.w3.org/1999/xlink">
    <!-- Generator: Sketch 55.2 (78181) - https://sketchapp.com -->
    <title>gee_me_052</title>
    <desc>Created with Sketch.</desc>
    <defs>
        <path d="M109.378,311.575 L0.394529,271.908 L75.639,65.175 C89.9272,25.919 131.748,4.642 171.358,15.215 L253,0 L334.642,15.215 C374.252,4.642 416.073,25.919 430.361,65.175 L505.606,271.908 L396.622,311.575 L402.542,446.562 C402.792,452.251 398.247,457 392.552,457 L113.448,457 C107.753,457 103.208,452.251 103.458,446.562 L109.378,311.575 Z" id="path-1"></path>
    </defs>
    <g id="GEE!-ME" stroke="none" stroke-width="1" fill="none" fill-rule="evenodd">
        <g id="gee_me_052" transform="translate(-347.000000, -100.000000)">
            <g transform="translate(347.000000, 100.000000)">
                <g id="lower-limb" transform="translate(38.487271, 860.000000)" fill-rule="nonzero">
                    <path d="M260.633892,338.944978 C262.044992,324.100206 275.22298,313.210063 290.067751,314.621163 C304.764075,316.018152 315.584467,328.947868 314.430217,343.610189 L314.391566,344.055022 L301.891566,475.555022 C300.480466,490.399794 287.302478,501.289937 272.457706,499.878837 C257.761383,498.481848 246.940991,485.552132 248.095241,470.889811 L248.133892,470.444978 L260.633892,338.944978 Z" id="Path" fill="#EBBAAA"></path>
                    <path d="M138.957706,314.621163 C153.65403,313.224174 166.716739,323.883633 168.345713,338.500829 L168.391566,338.944978 L180.891566,470.444978 C182.302666,485.289749 171.412523,498.467737 156.567751,499.878837 C141.871428,501.275826 128.808719,490.616367 127.179745,475.999171 L127.133892,475.555022 L114.633892,344.055022 C113.222792,329.210251 124.112935,316.032263 138.957706,314.621163 Z" id="Path" fill="#EBBAAA"></path>
                    <path d="M12.1782289,537.28 C11.9801289,514.59 15.0855289,500.78 34.8978289,491.51 C54.7101289,482.23 73.3727289,464.4 107.648729,449.11 C107.648729,449.11 112.160729,448.27 119.504729,452.22 C125.771729,455.6 133.820729,463.88 145.950729,463.77 C159.121729,463.65 170.858729,460.88 178.150729,457.06 C181.301729,448.47 188.290729,448.41 188.290729,448.41 C188.290729,448.41 198.131729,467.06 198.294729,485.8 C198.458729,504.53 198.441312,535.65 198.441312,535.65 L12.1782289,537.28 Z" id="Path" fill="#DCE1E6"></path>
                    <path d="M100.489047,450.457941 C101.854327,449.848947 103.454793,450.462038 104.063788,451.827318 C106.013504,456.198309 106.449416,460.326107 106.447616,467.390692 C106.447126,469.286741 104.556902,470.576353 102.810394,469.932175 L102.652073,469.86825 L89.593,464.131 L92.3712555,474.157109 C92.9315722,476.178991 91.084566,478.018734 89.0929216,477.502967 L88.9354272,477.457315 L75.802,473.241 L75.8025689,485.05 C75.8025689,487.042145 73.7340175,488.331999 71.9618118,487.508185 L71.8106894,487.432364 L62.899,482.625 L62.8987689,491.480101 C62.8987152,492.919679 61.7748852,494.096741 60.3567212,494.181906 L60.1918279,494.18684 C58.7522498,494.18684 57.575188,493.062956 57.4900228,491.644792 L57.4850889,491.479899 L57.4855889,478.089899 C57.4856633,476.097797 59.5541815,474.808018 61.3263493,475.631816 L61.4774685,475.707636 L70.388,480.514 L70.3888889,469.53 C70.3888889,467.752441 72.0659874,466.473848 73.7591789,466.905529 L73.9230306,466.952685 L85.815,470.769 L82.8532023,460.082891 C82.2580179,457.93519 84.3597919,456.053495 86.4045092,456.822296 L86.5504263,456.88175 L100.954,463.209 L100.94055,462.899442 C100.760663,459.330438 100.288454,456.774787 99.2521638,454.336873 L99.11967,454.032682 C98.5106756,452.667401 99.1237666,451.066935 100.489047,450.457941 Z" id="Path" fill="#FFFFFF"></path>
                    <path d="M192.451729,458.28 C188.625729,463.46 174.828729,466.55 169.637729,467.31 C164.447729,468.07 158.885729,467.4 161.110729,475.95 C162.684729,481.99 177.809729,479.55 183.723729,479.5 C188.531729,479.46 195.274729,493.93 197.785729,489.01 C197.785729,472.2 194.601729,463.1 192.451729,458.28 Z" id="Path" fill="#518C2D"></path>
                    <path d="M19.6749289,493.24 C25.7535289,491.05 32.1908289,489.39 44.5326289,486.6 L39.2872289,501.64 L39.4367289,518.77 L4.30832893,519.070155 C2.87472893,519.09 0.313128931,517.18 1.53612893,509.46 C3.06492893,499.81 11.0378289,496.36 19.6749289,493.24 Z" id="Path" fill="#EAF4FB"></path>
                    <polygon id="Path" fill="#518C2D" points="77.8341102 490.102538 94.1981102 521.162538 78.8713477 529.237462 62.5073477 498.177462"></polygon>
                    <polygon id="Path" fill="#518C2D" points="100.384604 478.351078 119.993604 515.671078 104.657854 523.728922 85.0488542 486.408922"></polygon>
                    <polygon id="Path" fill="#518C2D" points="122.498042 465.421487 149.610042 518.021487 134.211416 525.958513 107.099416 473.358513"></polygon>
                    <path d="M199.025729,532.68 L198.009729,514.71 L40.4980289,517.15 L1.22422893,514.28 L0.0330289315,528 C-0.386171069,532.83 3.23462893,537.06 8.06772893,537.39 L40.6942289,539.64 L194.768729,537.25 C197.230729,537.21 199.164729,535.13 199.025729,532.68 Z" id="Path" fill="#C7CBCF"></path>
                    <path d="M416.847729,537.28 C417.045729,514.59 413.939729,500.78 394.127729,491.51 C374.315729,482.23 355.652729,464.4 321.376729,449.11 C321.376729,449.11 316.864729,448.27 309.520729,452.22 C303.253729,455.6 295.204729,463.88 283.074729,463.77 C269.903729,463.65 258.166729,460.88 250.874729,457.06 C247.723729,448.47 240.734729,448.41 240.734729,448.41 C240.734729,448.41 230.893729,467.06 230.730729,485.8 C230.566729,504.53 230.584146,535.65 230.584146,535.65 L416.847729,537.28 Z" id="Path" fill="#DCE1E6"></path>
                    <path d="M324.96167,451.827318 C325.570664,450.462038 327.17113,449.848947 328.536411,450.457941 C329.901691,451.066935 330.514782,452.667401 329.905788,454.032682 C328.776863,456.563575 328.27229,459.18173 328.084908,462.899442 L328.07,463.209 L342.475032,456.88175 C344.515471,455.985384 346.678538,457.796286 346.210219,459.929969 L346.172256,460.082891 L343.21,470.769 L355.102427,466.952685 C356.794929,466.409403 358.524918,467.615469 358.631389,469.359576 L358.636569,469.53 L358.636,480.514 L367.547666,475.707649 C369.300932,474.761921 371.418136,475.970019 371.534546,477.920802 L371.539569,478.089798 L371.540569,491.479798 C371.540569,492.974744 370.328878,494.18684 368.833931,494.18684 C367.394353,494.18684 366.217165,493.063249 366.131841,491.645095 L366.126889,491.480202 L366.125,482.625 L357.214792,487.432351 C355.46145,488.37812 353.344173,487.169876 353.2279,485.219003 L353.222889,485.05 L353.222,473.242 L340.090031,477.457315 C338.092341,478.098561 336.179745,476.327104 336.614927,474.316313 L336.654202,474.157109 L339.432,464.131 L326.373384,469.86825 C324.637455,470.630845 322.696188,469.419429 322.583041,467.561352 L322.577847,467.390692 L322.581784,466.239908 C322.629149,459.866712 323.120272,455.955476 324.96167,451.827318 Z" id="Path" fill="#FFFFFF"></path>
                    <path d="M236.573729,458.28 C240.399729,463.46 254.196729,466.55 259.387729,467.31 C264.577729,468.07 270.139729,467.4 267.914729,475.95 C266.340729,481.99 251.215729,479.55 245.301729,479.5 C240.493729,479.46 233.750729,493.93 231.239729,489.01 C231.239729,472.2 234.423729,463.1 236.573729,458.28 Z" id="Path" fill="#518C2D"></path>
                    <path d="M409.350729,493.24 C403.271729,491.05 396.834729,489.39 384.492729,486.6 L389.737729,501.64 L389.588729,518.77 L424.716729,519.070155 C426.150729,519.09 428.712729,517.18 427.489729,509.46 C425.960729,499.81 417.987729,496.36 409.350729,493.24 Z" id="Path" fill="#EAF4FB"></path>
                    <polygon id="Path" fill="#518C2D" points="351.191348 490.102538 366.51811 498.177462 350.15411 529.237462 334.827348 521.162538"></polygon>
                    <polygon id="Path" fill="#518C2D" points="328.640854 478.351078 343.976604 486.408922 324.367604 523.728922 309.031854 515.671078"></polygon>
                    <polygon id="Path" fill="#518C2D" points="306.527416 465.421487 321.926042 473.358513 294.814042 525.958513 279.415416 518.021487"></polygon>
                    <path d="M229.999729,532.68 L231.015729,514.71 L388.527729,517.15 L427.801729,514.28 L428.992729,528 C429.411729,532.83 425.790729,537.06 420.957729,537.39 L388.330729,539.64 L234.256729,537.25 C231.794729,537.21 229.860729,535.13 229.999729,532.68 Z" id="Path" fill="#C7CBCF"></path>
                    <path d="M214.512729,118 C278.025729,118 329.512729,91.585 329.512729,59 C329.512729,26.415 278.025729,0 214.512729,0 C150.999729,0 99.5127289,26.415 99.5127289,59 C99.5127289,91.585 150.999729,118 214.512729,118 Z" id="Path" fill="#4D5457"></path>
                    <polygon id="Path" fill="#4D5457" points="219.512729 35 354.512729 35 334.906729 387.49 321.950729 423.3 246.207729 430 238.970729 395.5"></polygon>
                    <polygon id="Path" fill="#434A4C" points="239.512729 422 324.512729 422 320.366729 444 243.392729 444"></polygon>
                    <polygon id="Path" fill="#4D5457" points="209.512729 35 74.5127289 35 94.1187289 387.49 107.074729 423.3 182.817729 430 190.054729 395.5"></polygon>
                    <polygon id="Path" fill="#434A4C" points="189.512729 422 104.512729 422 108.658729 444 185.632729 444"></polygon>
                    <path d="M329.371729,74.167 C335.668729,72.567 349.957729,63.67 352.378729,65.169 C359.038729,72.167 354.800729,250.1 351.167729,255.6 C347.534729,261.1 316.657729,263.1 316.657729,255.6 C316.657729,248.1 316.052729,222.11 316.657729,201.62 C317.262729,181.13 306.970729,78.665 311.814729,77.166 C316.657729,75.666 321.501729,76.166 329.371729,74.167 Z" id="Path" fill="#2F3034"></path>
                    <path d="M321.501729,81.663 C326.344729,81.164 346.324729,74.166 352.378729,69.668 C356.616729,74.166 363.881729,105.155 356.011729,109.153 C348.140729,113.152 327.555729,112.652 325.133729,109.153 C322.711729,105.654 316.657729,82.163 321.501729,81.663 Z" id="Path" fill="#3B4345"></path>
                    <path d="M323.806283,87.059328 L322.827175,87.262672 L323.116933,88.6432466 C323.419053,90.0687292 323.75498,91.6131725 324.095228,93.1347083 L325.071125,92.9164768 C324.618578,90.8927576 324.173664,88.8282802 323.806283,87.059328 Z M326.430795,98.750316 L325.459507,98.9882234 L325.782433,100.286795 C326.271694,102.222372 326.698873,103.758301 327.048588,104.815237 L327.997969,104.501109 L327.846867,104.029696 C327.457033,102.778042 326.977597,100.982705 326.430795,98.750316 Z M332.283663,107.805422 C334.073588,108.062662 336.172398,108.24189 338.317295,108.311686 L338.349819,107.312215 C336.240869,107.243589 334.178628,107.067484 332.425917,106.815592 L332.283663,107.805422 Z M344.384602,108.196423 C346.625276,108.026043 348.658144,107.709737 350.402186,107.240338 L350.14229,106.274702 C348.464027,106.726397 346.491312,107.033343 344.308782,107.199302 L344.384602,108.196423 Z" id="Path" fill="#000000"></path>
                    <path d="M351.39831,68.6126577 L350.937147,67.7253423 L349.851269,68.2860856 C348.538157,68.9601036 347.075473,69.6970803 345.592546,70.4297888 L346.03552,71.3263231 L347.926865,70.38419 C349.166752,69.7615716 350.351049,69.1569494 351.39831,68.6126577 Z M340.619238,73.9342578 L340.195855,73.028307 L338.998972,73.5831117 C337.43532,74.301712 336.003153,74.9343253 334.735125,75.4637839 L335.120431,76.3865729 C336.719675,75.7188165 338.573381,74.8903596 340.619238,73.9342578 Z M329.337226,78.303407 L329.14543,77.3219723 L328.469654,77.4515183 C327.057558,77.7174523 325.28733,78.0237083 323.251231,78.3571441 L323.41284,79.3439989 L324.894562,79.0982354 C326.641149,78.8045596 328.14525,78.5363486 329.337226,78.303407 Z M317.328967,79.2884943 L314.309492,79.7361474 L314.588803,83.6026821 L315.586209,83.5307003 L315.340427,80.1279463 L314.913691,80.6587943 L317.478759,80.2772119 L317.328967,79.2884943 Z M315.020039,89.5859052 L315.450223,95.5689376 L316.447654,95.4973034 L316.017458,89.5141067 L315.020039,89.5859052 Z M315.879767,101.556623 L316.308142,107.541696 L317.305596,107.470389 L316.877209,101.485149 L315.879767,101.556623 Z M316.735144,113.522018 L317.161244,119.505476 L318.158725,119.434544 L317.732611,113.450888 L316.735144,113.522018 Z M317.586272,125.491729 L318.009708,131.476363 L319.007224,131.405922 L318.583769,125.421023 L317.586272,125.491729 Z M318.43139,137.461302 L318.850913,143.447244 L319.848481,143.37755 L319.428929,137.391188 L318.43139,137.461302 Z M319.267619,149.435229 L319.679893,155.420736 L320.677561,155.352492 L320.265228,149.366112 L319.267619,149.435229 Z M320.084903,161.403166 L320.396686,166.16094 C320.421446,166.549197 320.445275,166.956723 320.468235,167.384193 L321.466795,167.33056 L321.419322,166.495405 L321.082679,161.336512 L320.084903,161.403166 Z M321.699353,173.338178 L320.699738,173.36595 L320.75304,175.488878 C320.780682,176.710378 320.805055,178.001639 320.826234,179.36067 L321.826112,179.345088 L321.769002,176.208619 C321.747889,175.207134 321.724685,174.249986 321.699353,173.338178 Z M321.895714,185.351016 L320.895746,185.35912 L320.920319,189.296941 C320.923369,189.973873 320.925901,190.661008 320.927922,191.358181 L321.927917,191.355283 L321.915339,188.28376 C321.90998,187.282863 321.903445,186.305097 321.895714,185.351016 Z M321.933083,197.355722 L320.933084,197.354713 L320.922111,202.126865 C320.92068,202.533643 320.919122,202.942662 320.917437,203.353895 L321.917437,203.357992 L321.929153,199.715549 C321.930986,198.919708 321.932299,198.133031 321.933083,197.355722 Z M320.885048,209.350932 L320.83871,215.350681 L321.838672,215.359444 L321.885026,209.35756 L320.885048,209.350932 Z M320.7805,221.3491 L320.711943,227.348844 L321.711868,227.361059 L321.780444,221.359702 L320.7805,221.3491 Z M320.634357,233.343013 L320.548723,239.342236 L321.548612,239.357103 L321.634264,233.356652 L320.634357,233.343013 Z M321.456648,245.358064 L320.45677,245.342443 L320.395729,249.6 C320.395729,250.135532 320.605587,250.81486 320.99003,251.50876 L321.864752,251.024136 C321.590668,250.529427 321.433258,250.063493 321.401662,249.722028 L321.395881,249.536133 C321.397381,249.192821 321.410495,248.312172 321.456648,245.358064 Z M325.860843,255.513194 C327.599905,256.202094 329.641243,256.552352 331.976056,256.509762 L331.957818,255.509928 C329.752137,255.550162 327.842104,255.222434 326.229132,254.583483 L325.860843,255.513194 Z M337.99052,255.660367 C339.803123,255.210616 341.724484,254.58033 343.75589,253.76113 L343.381889,252.833702 C341.392727,253.635866 339.515689,254.251612 337.749698,254.689797 L337.99052,255.660367 Z" id="Path" fill="#000000"></path>
                    <path d="M99.6537289,74.167 C93.3567289,72.567 79.0677289,63.67 76.6467289,65.169 C69.9867289,72.167 74.2247289,250.1 77.8577289,255.6 C81.4907289,261.1 112.367729,263.1 112.367729,255.6 C112.367729,248.1 112.972729,222.11 112.367729,201.62 C111.762729,181.13 122.054729,78.665 117.210729,77.166 C112.367729,75.666 107.523729,76.166 99.6537289,74.167 Z" id="Path" fill="#2F3034"></path>
                    <path d="M107.523729,81.663 C102.680729,81.164 82.7007289,74.166 76.6467289,69.668 C72.4087289,74.166 65.1437289,105.155 73.0137289,109.153 C80.8847289,113.152 101.469729,112.652 103.891729,109.153 C106.313729,105.654 112.367729,82.163 107.523729,81.663 Z" id="Path" fill="#3B4345"></path>
                    <path d="M106.198283,87.262672 L105.219175,87.059328 L104.930194,88.4361987 C104.62886,89.8579715 104.293743,91.3986874 103.954333,92.9164768 L104.93023,93.1347083 L105.433675,90.8529575 C105.707472,89.5954773 105.968029,88.3713489 106.198283,87.262672 Z M103.56595,98.9882234 L102.594663,98.750316 L102.172014,100.440967 C101.730628,102.167118 101.344294,103.543636 101.027489,104.501109 L101.976869,104.815237 L102.131445,104.333169 C102.529517,103.055843 103.013993,101.241663 103.56595,98.9882234 Z M96.5995406,106.815592 C94.8468297,107.067484 92.7845884,107.243589 90.6756392,107.312215 L90.7081624,108.311686 C92.8530599,108.24189 94.9518694,108.062662 96.7417947,107.805422 L96.5995406,106.815592 Z M84.7166764,107.199302 C82.5341457,107.033343 80.5614305,106.726397 78.8831676,106.274702 L78.623272,107.240338 C80.3673138,107.709737 82.4001821,108.026043 84.6408555,108.196423 L84.7166764,107.199302 Z" id="Path" fill="#000000"></path>
                    <path d="M78.0883104,67.7253423 L77.6271474,68.6126577 L79.2906356,69.4690513 C80.4545711,70.06309 81.7148196,70.696292 82.9899379,71.3263231 L83.4329121,70.4297888 L82.1698058,69.8022756 C80.7090038,69.0726161 79.3053957,68.3578961 78.0883104,67.7253423 Z M88.8296028,73.028307 L88.4062197,73.9342578 L89.6101771,74.492337 C91.1833804,75.2153143 92.6256314,75.8523678 93.9050273,76.3865729 L94.2903331,75.4637839 C92.7052977,74.8019607 90.8637963,73.9789582 88.8296028,73.028307 Z M99.8800281,77.3219723 L99.6882314,78.303407 L101.109039,78.5710448 C102.390646,78.8049499 103.909279,79.0650568 105.612618,79.3439989 L105.774227,78.3571441 L103.830168,78.033255 C102.289668,77.7717086 100.955157,77.5320792 99.8800281,77.3219723 Z M111.546699,80.2772119 L114.111767,80.6587943 L113.68503,80.1279463 L113.439248,83.5307003 L114.436654,83.6026821 L114.715966,79.7361474 L111.696491,79.2884943 L111.546699,80.2772119 Z M113.008,89.5141067 L112.577804,95.4973034 L113.575235,95.5689376 L114.005419,89.5859052 L113.008,89.5141067 Z M112.148249,101.485149 L111.719862,107.470389 L112.717316,107.541696 L113.145691,101.556623 L112.148249,101.485149 Z M111.292846,113.450888 L110.866733,119.434544 L111.864214,119.505476 L112.290313,113.522018 L111.292846,113.450888 Z M110.441689,125.421023 L110.018234,131.405922 L111.01575,131.476363 L111.439186,125.491729 L110.441689,125.421023 Z M109.596529,137.391188 L109.176977,143.37755 L110.174545,143.447244 L110.594068,137.461302 L109.596529,137.391188 Z M108.76023,149.366112 L108.347896,155.352492 L109.345565,155.420736 L109.757839,149.435229 L108.76023,149.366112 Z M107.942779,161.336512 L107.630796,166.097341 L107.558663,167.33056 L108.557223,167.384193 L108.62877,166.160961 L108.940555,161.403166 L107.942779,161.336512 Z M108.32572,173.36595 L107.326105,173.338178 L107.289698,174.73977 C107.254878,176.175116 107.224805,177.711348 107.199346,179.345088 L108.199224,179.36067 L108.240812,176.988036 C108.265851,175.711046 108.294128,174.50302 108.32572,173.36595 Z M108.129711,185.35912 L107.129744,185.351016 L107.115871,187.290594 C107.107677,188.60448 107.101585,189.959815 107.097541,191.355283 L108.097541,191.358181 L108.115851,187.296923 C108.119944,186.640565 108.124562,185.994575 108.129711,185.35912 Z M108.092374,197.354713 L107.092374,197.355722 L107.103353,202.130356 C107.104784,202.537337 107.106344,202.946558 107.108029,203.357992 L108.108021,203.353895 L108.093945,198.527047 C108.09329,198.133943 108.092766,197.743156 108.092374,197.354713 Z M107.140432,209.35756 L107.186786,215.359444 L108.186748,215.350681 L108.14041,209.350932 L107.140432,209.35756 Z M107.245014,221.359702 L107.31359,227.361059 L108.313515,227.348844 L108.244957,221.3491 L107.245014,221.359702 Z M107.391194,233.356652 L107.476846,239.357103 L108.476735,239.342236 L108.391101,233.343013 L107.391194,233.356652 Z M108.568688,245.342443 L107.56881,245.358064 L107.629729,249.6 C107.629729,249.947459 107.469051,250.467589 107.160706,251.024136 L108.035428,251.50876 C108.377155,250.89196 108.580939,250.286673 108.622005,249.783659 L108.629102,249.454563 C108.626151,249.05567 108.611927,248.11008 108.568688,245.342443 Z M102.796326,254.583483 C101.183353,255.222434 99.2733209,255.550162 97.0676396,255.509928 L97.0494015,256.509762 C99.3842153,256.552352 101.425553,256.202094 103.164615,255.513194 L102.796326,254.583483 Z M91.2757595,254.689797 C89.5097688,254.251612 87.632731,253.635866 85.6435692,252.833702 L85.2695675,253.76113 C87.3009737,254.58033 89.2223353,255.210616 91.0349375,255.660367 L91.2757595,254.689797 Z" id="Path" fill="#000000"></path>
                </g>
                <g id="upper-limb" transform="translate(0.000000, 307.000000)">
                    <path d="M104.773797,224.821116 C114.813717,207.023075 137.380843,200.733876 155.178884,210.773797 C172.976925,220.813717 179.266124,243.380843 169.226203,261.178884 C150.821847,293.804788 131.559796,354.370367 118.775871,418.034311 C112.763641,447.975217 108.643622,476.470741 106.965882,499.640905 L106.823587,501.68084 C106.145433,511.793654 105.966767,520.595896 106.275614,527.744385 L106.308123,528.453708 C106.468436,531.759139 106.731838,534.591201 107.072991,536.880472 L107.142251,537.331068 C107.391775,538.905007 107.634023,539.934198 107.752717,540.298201 L107.772357,540.355507 C114.755718,559.559749 104.848736,580.788996 85.6444933,587.772357 C66.440251,594.755718 45.2110042,584.848736 38.2276433,565.644493 C27.3681347,535.780845 31.7181691,475.70537 46.2241291,403.465689 C60.4089819,332.825122 81.8131616,265.52406 104.773797,224.821116 Z" id="Path" fill="#EBBAAA" fill-rule="nonzero"></path>
                    <path d="M350.821116,210.773797 C368.619157,200.733876 391.186283,207.023075 401.226203,224.821116 C424.186838,265.52406 445.591018,332.825122 459.775871,403.465689 C474.281831,475.70537 478.631865,535.780845 467.772357,565.644493 C460.788996,584.848736 439.559749,594.755718 420.355507,587.772357 C401.343307,580.858829 391.443352,559.982909 398.023202,540.932225 L398.227643,540.355507 C398.337502,540.053395 398.593547,538.997591 398.857749,537.331068 C399.209156,535.114478 399.484502,532.350469 399.658448,529.108462 L399.691877,528.453708 C400.067345,520.712065 399.853405,510.95554 399.034118,499.640905 L398.855103,497.26641 C397.074881,474.53718 393.032555,446.960271 387.224129,418.034311 C374.440204,354.370367 355.178153,293.804788 336.773797,261.178884 C326.733876,243.380843 333.023075,220.813717 350.821116,210.773797 Z" id="Path" fill="#EBBAAA" fill-rule="nonzero"></path>
                    <path d="M430.361,203.175 C415.25,161.657 369.342,140.25 327.824,155.362 C286.306,170.473 264.899,216.38 280.01,257.899 L355.255,464.631 L505.606,409.908 L430.361,203.175 Z" id="Path" fill="#373434" fill-rule="nonzero"></path>
                    <path d="M75.6389,203.175 C90.7503,161.657 136.658,140.25 178.176,155.362 C219.694,170.473 241.101,216.38 225.99,257.899 L150.745,464.631 L0.394453,409.908 L75.6389,203.175 Z" id="Path" fill="#373434" fill-rule="nonzero"></path>
                    <path d="M105.17,209.587 C103.927,184.596 121.35,162.534 145.948,157.95 L253,138 L360.052,157.95 C384.65,162.534 402.073,184.596 400.83,209.587 L393,367 L402.542,584.562 C402.792,590.251 398.247,595 392.552,595 L113.448,595 C107.753,595 103.208,590.251 103.458,584.562 L113,367 L105.17,209.587 Z" id="Path" fill="#373434" fill-rule="nonzero"></path>
                    <g id="Clipped" transform="translate(0.000000, 138.000000)">
                        <mask id="mask-2" fill="white">
                            <use xlink:href="#path-1"></use>
                        </mask>
                        <g id="Path"></g>
                        <g id="Group" mask="url(#mask-2)" fill="#FFFFFF" fill-rule="nonzero">
                            <g transform="translate(8.000000, 57.000000)" id="Path">
                                <polygon points="426.075613 -9.19778168 433.924387 9.19778168 357.044188 42 132.955812 42 56.0756131 9.19778168 63.9243869 -9.19778168 137.044 22 352.955 22"></polygon>
                                <polygon points="455.956488 62.8539618 464.043512 81.1460382 367.111931 124 122.888069 124 25.9564884 81.1460382 34.0435116 62.8539618 127.114 104 362.885 104"></polygon>
                                <polygon points="485.879887 134.888212 494.120113 153.111788 377.155797 206 112.844203 206 -4.12011262 153.111788 4.12011262 134.888212 117.156 186 372.843 186"></polygon>
                                <polygon points="395 266 395 286 95 286 95 266"></polygon>
                                <polygon points="395 346 395 366 95 366 95 346"></polygon>
                            </g>
                        </g>
                    </g>
                    <rect id="Rectangle" fill="#EBBAAA" fill-rule="nonzero" x="213" y="0" width="80" height="195" rx="40"></rect>
                    <path d="M213,150 C213,127.909 230.908,110 253,110 C275.091,110 293,127.909 293,150 L293,155 C293,177.091 275.091,195 253,195 C230.908,195 213,177.091 213,155 L213,150 Z" id="Path" fill="#EBBAAA" fill-rule="nonzero"></path>
                </g>
                <g id="head" transform="translate(68.000000, 0.000000)">
                    <path d="M330,292.001 C352.091,292.001 370,274.092 370,252.001 C370,229.91 352.091,212.001 330,212.001 C307.909,212.001 290,229.91 290,252.001 C290,274.092 307.909,292.001 330,292.001 Z" id="Path" fill="#DE8E7C" fill-rule="nonzero" opacity="0.5"></path>
                    <path d="M40,292.001 C17.9086,292.001 0,274.092 0,252.001 C0,229.91 17.9086,212.001 40,212.001 C62.091,212.001 80,229.91 80,252.001 C80,274.092 62.091,292.001 40,292.001 Z" id="Path" fill="#DE8E7C" fill-rule="nonzero" opacity="0.5"></path>
                    <path d="M35,154 C35,71.1573 102.157,4 185,4 C267.843,4 335,71.1573 335,154 L335,274 C335,356.843 267.843,424 185,424 C102.157,424 35,356.843 35,274 L35,154 Z" id="Path" fill="#F4D5CC" fill-rule="nonzero"></path>
                    <path d="M340,153.001 L332,105 L300,105 L305,150 C305,150 319.128,167.202 325,180 C334.586,200.891 335,238 335,238 L340,153.001 Z" id="Path" fill="#868686" fill-rule="nonzero"></path>
                    <path d="M30,153.001 L38,105 L70,105 L65,150 C65,150 50.872,167.202 45,180 C35.414,200.891 35,238 35,238 L30,153.001 Z" id="Path" fill="#868686" fill-rule="nonzero"></path>
                    <path d="M185.198,0 C229.712,0.168576 351.306,23.5 340.299,153 C332.652456,142.978408 322.31593,136.607327 311.578417,130.623043 L310.631,152.234 L250.791,116.081 L265.04,150.059 L197.686,118.354 L174,150.059 L92.132,129.09 L51.5,164 L56.6833596,134.780935 C47.9567917,139.93353 39.1928867,145.756544 30.0954,153 C16.0862,29 140.267,0.168583 184.778,0 L185.198,0 Z" id="Path" fill="#272727"></path>
                    <path d="M283,173 C287.970563,173 292,177.029437 292,182 C292,186.881803 288.113186,190.855791 283.265362,190.996163 L283,191 L227,191 C222.029437,191 218,186.970563 218,182 C218,177.118197 221.886814,173.144209 226.734638,173.003837 L227,173 L283,173 Z" id="Path" fill="#393939" fill-rule="nonzero"></path>
                    <path d="M143,173 C147.970563,173 152,177.029437 152,182 C152,186.881803 148.113186,190.855791 143.265362,190.996163 L143,191 L87,191 C82.0294373,191 78,186.970563 78,182 C78,177.118197 81.8868137,173.144209 86.7346377,173.003837 L87,173 L143,173 Z" id="Path" fill="#393939" fill-rule="nonzero"></path>
                    <path d="M263,212 C267.970563,212 272,216.029437 272,221 C272,225.881803 268.113186,229.855791 263.265362,229.996163 L263,230 L233,230 C228.029437,230 224,225.970563 224,221 C224,216.118197 227.886814,212.144209 232.734638,212.003837 L233,212 L263,212 Z" id="Path" fill="#000000" fill-rule="nonzero"></path>
                    <path d="M137,212 C141.970563,212 146,216.029437 146,221 C146,225.881803 142.113186,229.855791 137.265362,229.996163 L137,230 L107,230 C102.029437,230 98,225.970563 98,221 C98,216.118197 101.886814,212.144209 106.734638,212.003837 L107,212 L137,212 Z" id="Path" fill="#000000" fill-rule="nonzero"></path>
                    <path d="M221.139278,333.338211 C224.818483,331.205993 229.529571,332.460073 231.661789,336.139278 C233.750492,339.743397 232.589703,344.337712 229.082941,346.528054 L228.860722,346.661789 C228.670318,346.772135 228.395246,346.923727 228.036637,347.111249 L227.850377,347.207979 C227.166635,347.560712 226.373266,347.944091 225.472079,348.349619 C222.979974,349.47105 220.079721,350.57817 216.786262,351.602349 C207.525722,354.482134 196.883892,356.19965 185,356.19965 C173.116108,356.19965 162.474278,354.482134 153.213738,351.602349 C149.920279,350.57817 147.020026,349.47105 144.527921,348.349619 C143.776932,348.011679 143.100816,347.68912 142.500621,347.38686 L142.149623,347.207979 C141.698796,346.975404 141.361416,346.790525 141.139278,346.661789 C137.460073,344.529571 136.205993,339.818483 138.338211,336.139278 C140.426914,332.535159 144.990302,331.25819 148.634206,333.21189 L149.071587,333.454015 C149.371648,333.613087 149.890321,333.871121 150.621462,334.20441 L150.847173,334.306631 C152.782216,335.177388 155.100768,336.062455 157.786512,336.897651 C165.60941,339.330366 174.717517,340.80035 185,340.80035 C195.282483,340.80035 204.39059,339.330366 212.213488,336.897651 C214.692637,336.1267 216.858911,335.313257 218.699478,334.5078 L219.152827,334.306631 C220.003759,333.923718 220.598345,333.628994 220.928413,333.454015 L221.139278,333.338211 Z" id="Path" fill="#C99584" fill-rule="nonzero"></path>
                    <path d="M175.927572,237.285048 L190.072428,246.714952 C185.264892,253.926255 181.499685,264.750683 181.4995,272.6252 C181.499321,280.218169 184.241102,283.409711 192.63576,283.498108 L192.999,283.5 L192.999,300.5 C174.455796,300.5 164.499108,289.29839 164.4995,272.6248 C164.4995,261.329807 169.198898,247.618795 175.577975,237.815841 L175.927572,237.285048 Z" id="Path" fill="#EBBAAA" fill-rule="nonzero"></path>
                </g>
            </g>
        </g>
    </g>
</svg>