<?xml version="1.0" encoding="UTF-8"?>
<svg width="567px" height="1435px" viewBox="0 0 567 1435" version="1.1" xmlns="http://www.w3.org/2000/svg" xmlns:xlink="http://www.w3.org/1999/xlink">
    <!-- Generator: Sketch 55.2 (78181) - https://sketchapp.com -->
    <title>gee_me_068</title>
    <desc>Created with Sketch.</desc>
    <g id="GEE!-ME" stroke="none" stroke-width="1" fill="none" fill-rule="evenodd">
        <g id="gee_me_068" transform="translate(-317.000000, -83.000000)" fill-rule="nonzero">
            <g transform="translate(301.000000, 83.000000)">
                <g id="lower-limb" transform="translate(90.936380, 914.581000)">
                    <path d="M290.35262,250.28555 C308.758512,250.28555 323.714286,265.057264 324.01156,283.392313 L324.01607,283.949 L324.01607,460.689 C324.01607,479.28081 308.94443,494.35245 290.35262,494.35245 C271.946728,494.35245 256.990955,479.580736 256.69368,461.245687 L256.68917,460.689 L256.68917,283.949 C256.68917,265.35719 271.76081,250.28555 290.35262,250.28555 Z" id="Path" fill="#9EA4AC"></path>
                    <path d="M140.413537,251.534786 C158.710494,249.535232 175.182501,262.594776 177.469874,280.789015 L177.534834,281.341917 L195.133834,442.381917 C197.153586,460.863692 183.808479,477.483462 165.326704,479.503214 C147.029746,481.502768 130.55774,468.443224 128.270366,450.248985 L128.205407,449.696083 L110.606407,288.656083 C108.586655,270.174308 121.931762,253.554538 140.413537,251.534786 Z" id="Path" fill="#9EA4AC"></path>
                    <ellipse id="Oval" fill="#2A2D34" cx="216.71462" cy="62.103" rx="100.464" ry="54.7031"></ellipse>
                    <polygon id="Path" fill="#2A2D34" points="66.9926204 -5.68434189e-14 209.00962 -5.68434189e-14 203.74962 378.499 195.33462 408.169 114.85762 403.959 102.63962 371.669"></polygon>
                    <polygon id="Path" fill="#2A2D34" points="207.65762 6.335 350.15662 6.335 344.71562 370.299 333.14362 400.809 251.08962 414.929 243.45062 378.719"></polygon>
                    <polygon id="Path" fill="#474D5C" points="106.44062 383.969 197.43762 383.969 202.69662 392.369 197.43762 409.219 176.39762 416.039 114.33062 416.039 110.64862 409.219 112.75262 399.729 104.33662 397.629"></polygon>
                    <polygon id="Path" fill="#474D5C" points="245.698318 390.842193 341.55662 385.529 333.66662 402.359 335.24462 411.299 312.62662 414.459 288.43162 414.459 247.92962 418.855496 243.19662 409.199"></polygon>
                    <g id="Group-2" transform="translate(0.000000, 423.099000)">
                        <path d="M12.9076204,94.53 C12.6976204,70.39 15.9866204,55.7 36.9726204,45.84 C57.9596204,35.97 77.7276204,17.01 114.03562,0.74 C114.03562,0.74 118.81462,-0.16 126.59362,4.05 C133.23262,7.64 141.75962,16.45 154.60862,16.34 C168.56062,16.21 180.99362,13.26 188.71762,9.2 C192.05562,0.06 199.45862,-5.68434189e-13 199.45862,-5.68434189e-13 C199.45862,-5.68434189e-13 209.88362,19.84 210.05762,39.77 C210.23162,59.7 210.214149,92.81 210.214149,92.81 L12.9076204,94.53 Z" id="Path" fill="#363636"></path>
                        <path d="M106.461084,2.20833712 C107.897942,1.56904724 109.580993,2.21560454 110.220283,3.65246327 C111.03565,5.48507063 111.623735,7.49794707 112.025433,9.68825999 L112.158159,10.4493374 C112.634423,13.3343151 112.74417,15.9042807 112.74417,20.18 C112.74417,22.1783658 110.748883,23.536207 108.909413,22.8511993 L108.747566,22.7854203 L94.873,16.666 L97.8346478,27.4027912 C98.422484,29.5338102 96.4702222,31.4693319 94.3723203,30.9160215 L94.2147419,30.8698208 L80.282,26.371 L80.2821704,38.98 C80.2821704,41.0814512 78.0946534,42.4391192 76.2280531,41.5595755 L76.0774599,41.4833291 L66.614,36.353 L66.6141704,45.81 C66.6141704,47.3264921 65.4287164,48.5661065 63.9339356,48.6527161 L63.7666204,48.65755 C62.2501283,48.65755 61.0105139,47.472096 60.9239043,45.9773152 L60.9190704,45.81 L60.9190704,31.57 C60.9190704,29.4685488 63.1065874,28.1108808 64.9731876,28.9904245 L65.1237808,29.0666709 L74.587,34.197 L74.5870704,22.46 C74.5870704,20.5862562 76.3582338,19.2401201 78.1422621,19.7015824 L78.3094988,19.7501792 L90.94,23.828 L87.7875929,12.3972088 C87.1637277,10.1355778 89.380503,8.1576971 91.5317319,8.97312562 L91.6816748,9.03457969 L106.975,15.779 L106.957708,15.4102409 C106.876534,13.8182003 106.731097,12.4728373 106.482882,11.0463685 L106.423759,10.7155945 C106.098793,8.94367177 105.635361,7.35745075 105.016957,5.96753673 C104.377668,4.53067799 105.024225,2.847627 106.461084,2.20833712 Z" id="Path" fill="#FFFFFF"></path>
                        <path d="M203.86562,10.5 C199.81262,16 185.19862,19.3 179.69962,20.1 C174.20162,20.91 168.30962,20.2 170.66762,29.29 C172.33462,35.72 188.35662,33.13 194.62062,33.07 C199.71462,33.03 206.85762,48.42 209.51662,43.19 C209.51662,25.31 206.14362,15.63 203.86562,10.5 Z" id="Path" fill="#141413"></path>
                        <path d="M20.8476204,47.69 C27.2866204,45.35 34.1056204,43.59 47.1786204,40.62 L41.6236204,56.62 L41.7826204,74.84 L4.57112037,75.1700367 C3.05252037,75.18 0.339020368,73.15 1.63422037,64.94 C3.25322037,54.68 11.6986204,51 20.8476204,47.69 Z" id="Path" fill="#363636"></path>
                        <polygon id="Path" fill="#FFFFFF" points="82.4070308 44.407283 99.7430308 77.457283 83.60421 85.922717 66.26821 52.872717"></polygon>
                        <polygon id="Path" fill="#FFFFFF" points="106.294308 31.9054479 127.067308 71.6054479 110.919932 80.0545521 90.1469324 40.3545521"></polygon>
                        <polygon id="Path" fill="#FFFFFF" points="129.715023 18.1585684 158.437023 74.1085684 142.224218 82.4314316 113.502218 26.4814316"></polygon>
                        <path d="M210.83862,89.7 L209.75762,70.53 L42.9076204,73.12 L1.30532037,70.07 L0.0344203676,84.77 C-0.404279632,89.85 3.40252037,94.3 8.48412037,94.65 L43.1166204,97.04 L206.36062,94.51 C208.94862,94.47 210.98362,92.28 210.83862,89.7 Z" id="Path" fill="#DBDBDB"></path>
                    </g>
                    <g id="Group" transform="translate(238.549228, 423.099000)">
                        <path d="M197.937392,94.53 C198.148392,70.39 194.859392,55.7 173.872392,45.84 C152.886392,35.97 133.118392,17.01 96.8103923,0.74 C96.8103923,0.74 92.0313923,-0.16 84.2513923,4.05 C77.6123923,7.64 69.0853923,16.45 56.2373923,16.34 C42.2853923,16.21 29.8523923,13.26 22.1273923,9.2 C18.7903923,0.06 11.3873923,-5.68434189e-13 11.3873923,-5.68434189e-13 C11.3873923,-5.68434189e-13 0.962392304,19.84 0.788392304,39.77 C0.614392304,59.7 0.631863324,92.81 0.631863324,92.81 L197.937392,94.53 Z" id="Path" fill="#363636"></path>
                        <path d="M100.625729,3.65246327 C101.265019,2.21560454 102.94807,1.56904724 104.384929,2.20833712 C105.821788,2.847627 106.468345,4.53067799 105.829055,5.96753673 C105.210652,7.35745075 104.74722,8.94367177 104.422253,10.7155945 C104.137671,12.267318 103.975723,13.6957357 103.888304,15.4102409 L103.869772,15.779 L119.163288,9.0346016 C121.309835,8.08787302 123.589586,9.99270022 123.096406,12.2397592 L123.057462,12.3970544 L119.903772,23.828 L132.536514,19.7501792 C134.319629,19.174492 136.144826,20.446403 136.253807,22.2859213 L136.258942,22.46 L136.258772,34.196 L145.722232,29.0666709 C147.569653,28.0651059 149.805786,29.3411157 149.922198,31.4012715 L149.926942,31.57 L149.926942,45.81 C149.926942,47.3826584 148.652051,48.65755 147.079392,48.65755 C145.5629,48.65755 144.323286,47.472096 144.236676,45.9773152 L144.231842,45.81 L144.231772,36.352 L134.768553,41.4833291 C132.921132,42.4848941 130.684998,41.2088843 130.568586,39.1487285 L130.563842,38.98 L130.563772,26.371 L116.631271,30.8698208 C114.527651,31.5489845 112.509773,29.6821378 112.97197,27.5623668 L113.011322,27.4029456 L115.971772,16.666 L102.098496,22.7853984 C100.270048,23.5918307 98.2224772,22.3141266 98.1069658,20.3546304 L98.1018423,20.18 L98.1045007,19.1019601 C98.1255286,15.1076137 98.2786314,12.6433023 98.8205796,9.68825999 C99.2222781,7.49794707 99.8103623,5.48507063 100.625729,3.65246327 Z" id="Path" fill="#FFFFFF"></path>
                        <path d="M6.9803923,10.5 C11.0323923,16 25.6473923,19.3 31.1453923,20.1 C36.6443923,20.91 42.5353923,20.2 40.1783923,29.29 C38.5113923,35.72 22.4893923,33.13 16.2243923,33.07 C11.1313923,33.03 3.9883923,48.42 1.3283923,43.19 C1.3283923,25.31 4.7023923,15.63 6.9803923,10.5 Z" id="Path" fill="#141413"></path>
                        <path d="M189.997392,47.69 C183.559392,45.35 176.740392,43.59 163.666392,40.62 L169.222392,56.62 L169.063392,74.84 L206.274392,75.1700367 C207.793392,75.18 210.506392,73.15 209.211392,64.94 C207.592392,54.68 199.147392,51 189.997392,47.69 Z" id="Path" fill="#363636"></path>
                        <polygon id="Path" fill="#FFFFFF" points="128.437881 44.4074744 144.576903 52.8725256 127.241903 85.9225256 111.102881 77.4574744"></polygon>
                        <polygon id="Path" fill="#FFFFFF" points="104.551788 31.9052882 120.698997 40.3547118 99.9249967 80.0547118 83.7777879 71.6052882"></polygon>
                        <polygon id="Path" fill="#FFFFFF" points="81.1310485 18.1584537 97.3437361 26.4815463 68.6207361 82.4315463 52.4080485 74.1084537"></polygon>
                        <path d="M0.00739230399,89.7 L1.0873923,70.53 L167.937392,73.12 L209.540392,70.07 L210.811392,84.77 C211.249392,89.85 207.443392,94.3 202.361392,94.65 L167.729392,97.04 L4.4853923,94.51 C1.8963923,94.47 -0.138607696,92.28 0.00739230399,89.7 Z" id="Path" fill="#DBDBDB"></path>
                    </g>
                </g>
                <g id="upper-limb" transform="translate(0.496342, 447.534000)">
                    <rect id="Rectangle" fill="#F1EDED" transform="translate(138.658037, 205.606169) rotate(18.000000) translate(-138.658037, -205.606169) " x="80.8665369" y="196.828969" width="115.583" height="17.5544"></rect>
                    <path d="M160.984658,132.672 C161.863658,96.467 190.846658,67.234 227.040658,66.052 L311.540658,63.287 C318.425658,63.07 325.321658,63.428 332.141658,64.371 L414.624658,75.778 C451.013658,80.809 476.907658,113.707 473.242658,150.259 L457.639658,305.835 L465.467658,528.724 C465.543658,530.632 374.811658,528.821 372.903658,528.724 L227.040658,528.724 L144.134658,516.211 C142.302658,516.113 140.903658,514.519 141.055658,512.687 L157.254658,286.458 L160.984658,132.672 Z" id="Path" fill="#705B55"></path>
                    <path d="M298.333658,157.56 C340.252658,157.56 374.234658,123.578 374.234658,81.659 C374.234658,39.74 340.252658,5.758 298.333658,5.758 C256.414658,5.758 222.431658,39.74 222.431658,81.659 C222.431658,123.578 256.414658,157.56 298.333658,157.56 Z" id="Path" fill="#503F39"></path>
                    <rect id="Rectangle" fill="#EBBAAA" x="257.185658" y="9.09494702e-13" width="92.5745" height="125.186" rx="39.8817"></rect>
                    <path d="M73.884188,213.988888 C83.6624516,194.844782 107.108665,187.252266 126.252771,197.03053 C145.396877,206.808793 152.989392,230.255006 143.211128,249.399112 C129.517949,276.20793 115.053893,330.520641 107.643583,382.794392 L107.316046,385.137434 C103.936917,409.657057 102.450419,431.549353 103.069585,447.586823 L103.122683,448.835173 C103.370816,454.167229 103.850561,458.485531 104.446668,461.525384 L104.495,461.77 L104.52872,461.807741 C115.581939,474.461643 117.489726,493.311759 108.118533,508.164304 L107.770648,508.705888 C96.0064927,526.697994 71.8842767,531.746745 53.8921706,519.98259 C41.0345908,511.575649 34.0055353,499.288686 29.8774076,484.290141 C27.2108192,474.601742 25.7759029,463.413095 25.2808373,450.590052 C24.4396965,428.803066 26.3545112,401.587225 30.5674838,371.868108 C39.0820173,311.804955 55.5964597,249.793016 73.884188,213.988888 Z" id="Path" fill="#EBBAAA"></path>
                    <rect id="Rectangle" fill="#314367" transform="translate(128.726596, 259.535164) rotate(16.500000) translate(-128.726596, -259.535164) " x="51.0310962" y="70.365664" width="155.391" height="378.339" rx="77.6953"></rect>
                    <path d="M24.6980582,466.887 C17.9653582,447.531 11.953843,386.411 20.369643,354.851 L138.523658,354.851 C125.688658,394.827 122.531658,438.484 113.063658,490.031 C90.9724582,491.083 33.1138582,491.083 24.6980582,466.887 Z" id="Path" fill="#314367"></path>
                    <path d="M152.514658,80.28407 L152.514658,88.69993 C135.769915,88.69993 121.628387,99.0609401 109.314861,119.105836 L108.942283,119.71622 C98.5783256,136.803196 89.9982927,159.760864 81.720649,190.166191 L80.4498185,194.89186 C77.9173795,204.41741 75.7787383,213.155502 72.0589731,228.905973 L68.2971981,244.823425 C65.3591081,257.140419 63.667722,263.752944 61.6752846,270.644355 L61.227173,272.176561 C59.6652873,277.454457 58.1694712,281.845932 56.6694729,285.485393 L56.4551514,286.000215 C45.9721909,310.927818 39.5360332,340.346841 36.5156367,372.212199 C34.3154535,395.42426 34.1125407,418.17543 35.2114236,436.123851 C35.7129246,444.314954 36.6542121,452.445294 37.9125327,460.335293 C38.4942663,463.982915 39.1142753,467.392943 39.7552653,470.580469 L40.0399442,471.974694 C40.1338342,472.427512 40.2268715,472.86936 40.3195062,473.303099 L40.5876714,474.541899 L40.9042115,475.968841 L32.6889049,477.795159 L32.2330772,475.729514 L31.9448545,474.379794 C31.8483018,473.921067 31.7511188,473.452552 31.6528498,472.971338 L31.5045747,472.239627 C30.8420871,468.945197 30.2019753,465.424604 29.6017013,461.660729 C28.3026732,453.515484 27.3304895,445.118279 26.8112927,436.638147 L26.691874,434.577969 C25.7050102,416.555032 25.9767736,394.212043 28.1373297,371.418051 C31.1844491,339.270765 37.641291,309.476901 48.199453,283.93206 L48.6973734,282.737765 C50.2014552,279.161235 51.7399521,274.639716 53.3765181,269.043016 L54.1940923,266.193902 C56.3010366,258.724488 58.2628116,250.755518 62.1280258,234.357 L65.6426714,219.48931 C68.6991863,206.664217 70.6568345,198.858486 73.1587018,189.585511 L73.2821905,189.128252 C81.8462123,157.44728 90.7513633,133.479483 101.746591,115.351736 C115.387385,92.862264 131.850351,80.5321271 151.905816,80.28407 L152.514658,80.28407 Z" id="Path" fill="#FFFFFF"></path>
                    <path d="M86.7435258,228.365112 L79.6343164,258.22436 C75.3196982,276.17383 72.5949356,286.261807 69.8811956,293.675751 L69.6669471,294.255601 C60.820964,317.971123 54.8639071,342.993723 51.5514815,367.907341 C48.9733269,387.298316 48.1580542,405.709166 48.8459559,419.591873 L48.9799199,422.036157 C50.0520742,440.573388 53.4909005,483.880782 54.1071907,487.538766 L54.1255251,487.640098 L45.8685914,489.267902 C45.1778998,485.764411 41.4675098,438.958222 40.4830189,420.829169 C39.6955005,406.327019 40.5145155,387.064344 43.2090349,366.798159 C46.5273198,341.840472 52.4393993,316.76725 61.1939173,292.903518 L61.981668,290.773239 C64.3494621,284.301067 66.8090152,275.367754 70.5050715,260.172252 L78.5627214,226.389982 L80.065967,220.210044 C82.0306557,212.197911 83.8507605,205.046173 85.6939384,198.14596 L86.3616526,195.66162 C94.150324,166.86245 101.902833,144.519193 110.701669,127.374143 C121.947001,105.461953 134.615777,92.8768543 149.60075,91.3866709 L150.05555,91.3449117 L150.761767,99.7310883 C139.343975,100.692604 128.579143,111.188235 118.503727,130.60695 L118.189095,131.216689 C109.471754,148.20294 101.697253,170.845837 93.8247201,200.317846 L93.276938,202.378599 C91.1781943,210.312533 89.0846322,218.668467 86.7435258,228.365112 Z" id="Path" fill="#FFFFFF"></path>
                    <path d="M25.2234582,491.083 L22.0674582,462.154 C28.8001582,468.465 89.2190582,471.621 116.745658,473.725 C122.356658,479.336 126.529658,494.239 113.063658,498.447 C99.5986582,502.655 36.2692582,498.447 25.2234582,491.083 Z" id="Path" fill="#212D44"></path>
                    <path d="M275.071658,346.438 C274.236658,275.791 271.915658,178.807 271.915658,144.984 C264.551658,144.984 257.187658,143.932 251.927658,140.776 C252.212658,113.589 254.134658,85.71 242.580658,60.299 L152.611658,77.628 C138.596658,96.913 113.940658,154.535 109.983658,264.907 C106.838658,352.621 110.089658,411.725 109.983658,468.468 C109.955658,483.126 130.949658,493.905 130.949658,533.354 C148.262658,538.361 218.187658,551.156 275.071658,533.354 C285.591658,464.26 276.308658,451.025 275.071658,346.438 Z" id="Path" fill="#45587D"></path>
                    <path d="M108.858658,419.024 C108.858658,419.024 225.802658,352.048 276.648658,342.23 C276.648658,358.009 280.330658,438.998 280.330658,478.987 C280.330658,506.339 278.401658,517.21 275.596658,524.223 C228.607658,518.612 132.528658,508.864 128.320658,506.339 C123.060658,503.183 120.549658,493.479 114.643658,484.773 C104.650658,470.046 108.858658,419.024 108.858658,419.024 Z" id="Path" fill="#D24138"></path>
                    <path d="M121.481658,431.648 L112.013658,416.92 C112.013658,416.92 126.215658,404.822 143.572658,397.458 C160.930658,390.094 178.288658,381.153 178.288658,381.153 L187.756658,392.724 L121.481658,431.648 Z" id="Path" fill="#B1362E"></path>
                    <path d="M274.019658,302.255 L109.384658,258.598 C109.384658,232.509 119.904658,112.898 150.937658,76.079 L175.133658,69.767 L201.432658,64.507 L247.720658,142.354 L272.967658,147.614 L274.019658,302.255 Z" id="Path" fill="#B5BDC2"></path>
                    <path d="M272.921497,146.03507 C275.535847,146.009806 277.675864,148.108488 277.701358,150.722838 L278.071951,187.504554 C279.07922,284.302252 280.21117,368.143771 280.808475,375.160862 L280.900265,376.071239 C281.67496,384.213902 283.261877,417.742552 283.949269,444.931333 L284.071016,450.090063 C284.993651,491.828289 284.106939,517.100284 280.062522,523.166909 C278.612272,525.342283 275.673123,525.930113 273.497749,524.479864 C271.386356,523.072269 270.770497,520.262068 272.062109,518.10896 L272.184795,517.915091 C274.560663,514.351288 275.455517,486.421894 274.547038,447.73639 L274.41668,442.578958 C273.695602,415.841033 272.169555,383.961505 271.46358,376.844767 L271.418717,376.416047 C270.694129,369.89819 269.355292,265.803859 268.233958,150.815162 C268.208464,148.200811 270.307146,146.060794 272.921497,146.03507 Z" id="Path" fill="#C9CED1"></path>
                    <path d="M203.758658,516.201 C182.907658,517.869 146.045658,510.469 124.636658,502.131 L124.636658,537.567 C136.737658,547.99 167.920658,546.947 185.141658,546.947 C206.550658,546.947 236.783658,553.196 274.017658,546.947 L282.959658,516.201 C260.342658,522.119 224.609658,514.534 203.758658,516.201 Z" id="Path" fill="#304367"></path>
                    <path d="M176.184658,76.078 C164.402658,70.187 190.912658,58.194 202.484658,51.882 C211.952658,49.077 232.781658,42.625 244.563658,60.298 C259.291658,82.39 273.357658,214.044 262.447658,187.588 C220.368658,85.546 190.912658,83.442 176.184658,76.078 Z" id="Path" fill="#A4ABAF"></path>
                    <path d="M471.751293,197.030659 C490.895328,187.252256 514.341596,194.8446 524.119999,213.988635 C542.408072,249.792793 558.922712,311.804739 567.437328,371.868073 C571.650328,401.587191 573.565147,428.803065 572.723984,450.590089 C572.228906,463.413149 570.793968,474.601818 568.127347,484.290237 C563.999178,499.288785 556.97006,511.575754 544.112437,519.982661 C526.120291,531.746756 501.998092,526.697924 490.233997,508.705778 C480.56744,493.921633 482.252819,474.99853 493.143254,462.193782 L493.509,461.77 L493.558142,461.525299 C494.155013,458.481578 494.635228,454.156141 494.88309,448.814698 L494.935239,447.586786 C495.574077,431.040203 493.971419,408.261161 490.361239,382.794427 L489.908215,379.65579 C482.372616,328.359142 468.212814,275.671889 454.793317,249.399365 C445.014914,230.25533 452.607258,206.809062 471.751293,197.030659 Z" id="Path" fill="#EBBAAA"></path>
                    <rect id="Rectangle" fill="#314367" transform="translate(469.278634, 259.535187) scale(-1, 1) rotate(16.499977) translate(-469.278634, -259.535187) " x="391.583122" y="70.3656579" width="155.391024" height="378.339059" rx="77.6953"></rect>
                    <path d="M573.306658,466.887 C580.039658,447.531 585.718404,383.71712 577.302404,352.15712 L459.481658,354.851 C472.316658,394.827 475.472658,438.484 484.940658,490.031 C507.032658,491.083 564.890658,491.083 573.306658,466.887 Z" id="Path" fill="#314367"></path>
                    <path d="M445.490658,80.28407 C465.822016,80.28407 482.479991,92.6351009 496.258499,115.351744 C507.116223,133.252888 515.935802,156.848977 524.401431,187.943831 L525.80618,193.172771 C528.350069,202.762488 530.520717,211.652194 534.306038,227.689836 L537.774727,242.370752 C540.665945,254.503209 542.340983,261.088604 544.240263,267.702724 L544.414105,268.306049 C546.059411,273.996868 547.60387,278.606734 549.111159,282.265895 L549.307556,282.737797 C560.160933,308.546436 566.772776,338.768498 569.867561,371.418044 C572.111267,395.088827 572.318098,418.273371 571.193729,436.638068 C570.6747,445.118134 569.70252,453.515237 568.403319,461.661001 C567.803065,465.424494 567.162994,468.944678 566.500397,472.239692 C566.351243,472.981419 566.205052,473.691295 566.060242,474.379361 L565.638086,476.343847 L565.316477,477.794415 L557.10084,475.969585 L557.417438,474.54172 L557.54679,473.948165 C557.777763,472.881592 558.009653,471.774291 558.249703,470.580553 C558.890812,467.392396 559.510786,463.982736 560.092502,460.335475 C561.350981,452.445029 562.292256,444.31487 562.793593,436.123853 C563.892456,418.175753 563.68949,395.424366 561.489255,372.212206 C558.515999,340.844774 552.232937,311.847769 542.038199,287.172005 L541.549777,286.000242 C539.906216,282.092068 538.271695,277.289433 536.553899,271.415706 L535.887683,269.102803 C533.756412,261.603327 531.845412,253.904915 528.152768,238.268465 L524.3341,222.105654 C521.155068,208.752343 519.175901,200.85912 516.598482,191.324402 L515.969796,189.015128 C507.894052,159.56306 499.51324,137.167406 489.455508,120.367909 L489.062797,119.716211 C476.786189,99.4757535 462.68942,88.9123448 445.997276,88.7031007 L445.490658,88.69993 L445.490658,80.28407 Z" id="Path" fill="#FFFFFF"></path>
                    <path d="M447.949767,91.3449118 C463.133436,92.6235621 475.944668,105.24062 487.303547,127.374149 C496.228045,144.764125 504.076105,167.501884 511.977279,196.899831 L512.311166,198.145965 C514.522967,206.426216 516.701543,215.06866 519.136608,225.125445 L523.486124,243.353893 L526.205974,254.808956 C530.584038,273.086571 533.317162,283.303678 535.919568,290.488149 L536.22324,291.314379 C545.301703,315.652791 551.404168,341.285804 554.796255,366.79815 C557.440911,386.68896 558.278884,405.61311 557.564483,420.018762 L557.460034,421.951294 C556.400595,440.627268 552.885587,484.920448 552.15769,489.150201 L552.136072,489.268172 L543.879245,487.639828 L543.91774,487.411472 C544.592088,482.936436 548.035004,439.484749 549.058168,421.465362 L549.118918,420.372848 C549.877447,406.403458 549.080645,387.664119 546.453811,367.90735 C543.214936,343.547333 537.447642,319.083179 528.92353,295.838547 L528.128918,293.689674 C525.410092,286.265151 522.681191,276.159766 518.354491,258.156834 L511.261542,228.365107 L510.061231,223.422804 C507.995344,214.969753 506.099183,207.501197 504.180382,200.317841 L503.533526,197.910837 C495.881179,169.60936 488.294591,147.737555 479.816116,131.216683 C469.755106,111.612138 459.004296,100.924314 447.600141,99.7642384 L447.243549,99.7310882 L447.949767,91.3449118 Z" id="Path" fill="#FFFFFF"></path>
                    <path d="M572.781658,491.083 L575.937658,462.154 C569.204658,468.465 508.785658,471.621 481.258658,473.725 C475.648658,479.336 471.475658,494.239 484.940658,498.447 C498.406658,502.655 561.735658,498.447 572.781658,491.083 Z" id="Path" fill="#212D44"></path>
                    <path d="M322.933658,346.438 C323.768658,275.791 326.089658,178.807 326.089658,144.984 C333.453658,144.984 340.816658,143.932 346.076658,140.776 C345.792658,113.589 343.870658,85.71 355.424658,60.299 L445.393658,77.628 C459.408658,96.913 484.064658,154.535 488.021658,264.907 C491.166658,352.621 487.914658,411.725 488.021658,468.468 C488.048658,483.126 467.054658,493.905 467.054658,533.354 C449.742658,538.361 379.817658,551.156 322.933658,533.354 C312.413658,464.26 321.696658,451.025 322.933658,346.438 Z" id="Path" fill="#45587D"></path>
                    <path d="M489.146658,419.024 C489.146658,419.024 372.202658,352.048 321.356658,342.23 C321.356658,358.009 317.674658,438.998 317.674658,478.987 C317.674658,506.339 319.603658,517.21 322.408658,524.223 C369.397658,518.612 465.476658,508.864 469.684658,506.339 C474.944658,503.183 477.455658,493.479 483.361658,484.773 C493.354658,470.046 489.146658,419.024 489.146658,419.024 Z" id="Path" fill="#D24138"></path>
                    <path d="M476.523658,431.648 L485.991658,416.92 C485.991658,416.92 471.789658,404.822 454.431658,397.458 C437.074658,390.094 419.716658,381.153 419.716658,381.153 L410.248658,392.724 L476.523658,431.648 Z" id="Path" fill="#B1362E"></path>
                    <path d="M323.985658,302.255 L488.620658,258.598 C488.620658,232.509 478.100658,112.898 447.067658,76.079 L422.871658,69.767 L396.571658,64.507 L350.284658,142.354 L325.037658,147.614 L323.985658,302.255 Z" id="Path" fill="#B5BDC2"></path>
                    <path d="M425.800658,189.596 L439.837658,206.772 L421.527658,209.345 L408.123658,192.934 L397.970658,180.517 L405.526658,174.458 L410.283658,170.64 L425.800658,189.596 Z M409.606658,203.489 L415.113658,210.247 L396.817658,212.818 L384.307658,197.527 L383.761658,196.861 L384.168658,196.539 L396.087658,186.968 L409.606658,203.489 Z M385.789658,208.068 L390.405658,213.719 L372.095658,216.293 L369.564658,213.191 L381.892658,203.312 L385.789658,208.068 Z" id="Shape" fill="#45587D"></path>
                    <path d="M325.08382,146.03507 C327.69817,146.060794 329.796852,148.200811 329.771358,150.815162 L329.254884,201.532153 C328.273873,293.738981 327.227429,369.084281 326.60855,376.191061 L326.518455,377.085324 C325.779087,384.903429 324.202069,418.233102 323.520721,445.177186 L323.405931,450.044504 C322.59455,487.146825 323.473861,513.87262 325.749691,517.800881 L325.820522,517.915091 C327.270771,520.090465 326.682942,523.029614 324.507567,524.479864 C322.332193,525.930113 319.393044,525.342283 317.942795,523.166909 C313.857108,517.03838 312.993898,491.310535 313.963109,448.807222 L314.078289,444.061492 C314.777112,417.032049 316.3386,384.127268 317.105079,376.07099 L317.176717,375.369953 C317.841537,369.389732 319.206464,263.266931 320.303958,150.722838 C320.329453,148.108488 322.46947,146.009806 325.08382,146.03507 Z" id="Path" fill="#C9CED1"></path>
                    <path d="M394.246658,516.201 C415.097658,517.869 451.959658,510.469 473.368658,502.131 L473.368658,537.567 C461.267658,547.99 430.084658,546.947 412.863658,546.947 C391.454658,546.947 361.220658,553.196 323.986658,546.947 L315.045658,516.201 C337.662658,522.119 373.395658,514.534 394.246658,516.201 Z" id="Path" fill="#304367"></path>
                    <path d="M421.819658,76.078 C433.601658,70.187 407.091658,58.194 395.520658,51.882 C386.052658,49.077 365.223658,42.625 353.440658,60.298 C338.713658,82.39 324.647658,214.044 335.557658,187.588 C377.636658,85.546 407.091658,83.442 421.819658,76.078 Z" id="Path" fill="#A4ABAF"></path>
                </g>
                <g id="hand" transform="translate(86.754900, -0.000040)">
                    <ellipse id="Oval" fill="#EBBAAA" cx="61.0881" cy="314.01904" rx="61.0881" ry="57.9439"></ellipse>
                    <ellipse id="Oval" fill="#EBBAAA" cx="371.4211" cy="314.01904" rx="61.0881" ry="57.9439"></ellipse>
                    <path d="M38.5131,217.23504 C32.9271,115.96604 113.5391,30.7852405 214.9631,30.7852405 C315.9871,30.7852405 396.4531,115.32604 391.4651,216.22704 L384.4051,359.07304 C379.9511,449.18404 305.5921,519.95704 215.3711,519.95704 C125.5241,519.95704 51.3371,449.74904 46.3891,360.03804 L38.5131,217.23504 Z" id="Path" fill="#EED4CC"></path>
                    <path d="M259.398619,398.897383 C263.282097,396.921043 268.032417,398.467083 270.008758,402.35056 C271.985098,406.234037 270.439058,410.984358 266.555581,412.960698 C228.8685,432.140029 190.054356,431.8201 163.143273,412.317658 C159.614937,409.760676 158.827499,404.82755 161.384482,401.299214 C163.941465,397.770878 168.87459,396.98344 172.402927,399.540423 C194.135132,415.289735 226.661098,415.557833 259.398619,398.897383 Z" id="Path" fill="#EBBAAA"></path>
                    <path d="M258.2411,378.10514 C262.22673,378.10514 265.472815,381.271512 265.601064,385.225967 L265.605,385.46904 C265.605,397.550833 272.807769,405.02614 287.1711,405.02614 C291.23807,405.02614 294.535,408.323071 294.535,412.39004 C294.535,416.45701 291.23807,419.75394 287.1711,419.75394 C264.548929,419.75394 250.8772,405.564901 250.8772,385.46904 C250.8772,381.402071 254.17413,378.10514 258.2411,378.10514 Z" id="Path" fill="#EBBAAA"></path>
                    <path d="M113.645199,295.74154 C114.170045,288.892216 120.067798,283.739884 126.890503,284.099348 L127.1966,284.11914 L156.8466,286.39114 C163.798154,286.923819 169.001679,292.990988 168.469001,299.942541 C167.944155,306.791865 162.046402,311.944197 155.223697,311.584733 L154.9176,311.564941 L125.2676,309.292941 C118.316046,308.760262 113.112521,302.693093 113.645199,295.74154 Z" id="Path" fill="#000000"></path>
                    <path d="M300.195711,283.172213 C307.15109,282.692063 313.178777,287.941273 313.658927,294.896652 C314.132017,301.749745 309.043017,307.702232 302.240224,308.3351 L301.934489,308.359868 L272.267489,310.407868 C265.31211,310.888018 259.284423,305.638808 258.804273,298.683429 C258.331183,291.830335 263.420183,285.877849 270.222976,285.244981 L270.528711,285.220213 L300.195711,283.172213 Z" id="Path" fill="#000000"></path>
                    <path d="M110.15726,237.982332 L169.69026,239.653332 C175.497925,239.816344 180.073821,244.656535 179.910808,250.4642 C179.750469,256.176658 175.065043,260.697401 169.384767,260.688984 L169.09994,260.684749 L109.56694,259.013749 C103.759275,258.850737 99.1833793,254.010546 99.3463915,248.202881 C99.5067315,242.490423 104.192157,237.96968 109.872433,237.978097 L110.15726,237.982332 Z" id="Path" fill="#393939"></path>
                    <path d="M313.23207,238.353559 C319.039058,238.167974 323.896997,242.725022 324.082582,248.53201 C324.265124,254.243802 319.859255,259.037406 314.188697,259.369645 L313.90413,259.382522 L253.32613,261.318522 C247.519142,261.504107 242.661203,256.947059 242.475618,251.140071 C242.293076,245.428279 246.698945,240.634675 252.369503,240.302436 L252.65407,240.289559 L313.23207,238.353559 Z" id="Path" fill="#393939"></path>
                    <rect id="Rectangle" fill="#E3BF53" x="37.8721" y="171.91604" width="11.5718" height="145.174" rx="5.7859"></rect>
                    <rect id="Rectangle" fill="#D4AE3C" x="379.7661" y="188.74804" width="11.5718" height="128.342" rx="5.7859"></rect>
                    <path d="M198.886293,295.886217 L216.603907,298.317864 C216.209333,301.192829 215.172913,304.308307 213.350746,308.672546 L212.998129,309.508027 C211.869344,312.142856 208.39267,319.919778 207.901108,321.047533 L207.300633,322.435446 C205.547405,326.52002 204.22174,329.91137 203.155796,333.129094 C200.2448,341.916407 199.781597,348.212463 201.588846,351.822744 C203.568041,355.776516 209.480634,358.402358 221.7803,358.476575 L222.3191,358.47819 L222.3191,376.36189 C203.56868,376.36189 191.161579,370.944389 185.596916,359.828049 C181.138442,350.921502 181.913887,340.381294 186.179363,327.505266 C187.490502,323.547382 189.075609,319.521584 191.155755,314.710921 L192.436987,311.800782 C193.767167,308.80629 196.017328,303.752325 196.660268,302.228726 L196.954137,301.525561 C198.087199,298.786613 198.712381,296.93313 198.869136,295.998285 L198.886293,295.886217 Z" id="Path" fill="#EBBAAA"></path>
                    <path d="M274.0221,70.9257405 C263.5021,74.1137405 87.3461,105.11604 175.7131,116.68704 C214.7331,121.79704 286.3431,116.66104 316.1011,126.15504 C353.8771,138.20604 353.8111,166.45004 358.2001,188.22204 C367.3281,233.49904 372.5311,236.25304 389.7911,262.55304 C396.8041,273.23704 399.2281,202.25704 389.7911,140.88304 C376.4401,54.0481405 314.5431,58.6461405 274.0221,70.9257405 Z" id="Path" fill="#D4AE3C"></path>
                    <path d="M100.4431,133.51904 C68.8831,155.47304 89.1921,190.29704 70.9871,205.82604 C47.8441,225.56804 54.1761,257.55804 48.3901,269.75104 C39.0211,289.49304 26.2981,239.85304 26.2981,205.82604 C26.2981,95.3680405 95.1831,23.0603405 191.9651,23.0603405 C204.7611,23.0603405 220.7641,-3.73785953 254.5581,0.442818467 C299.2681,0.442766467 370.8021,83.0230405 339.7691,139.30504 C318.9841,120.43104 275.3031,121.30404 230.3631,120.36904 C176.3601,119.24504 120.5391,119.53904 100.4431,133.51904 Z" id="Path" fill="#E3BF53"></path>
                    <path d="M193.2871,5.73855047 C272.1891,7.81150047 310.6981,49.5164405 321.8861,103.01104 C264.3771,76.3613405 141.4701,57.5864405 141.4701,46.2997405 C141.4701,32.1912405 148.5361,4.56285047 193.2871,5.73855047 Z" id="Path" fill="#E3BF53"></path>
                    <path d="M154.3851,15.2640405 C201.5141,12.3185405 239.9461,79.2597405 253.2711,113.09804 L105.4681,75.2275405 C102.1361,56.4670405 107.2561,18.2096405 154.3851,15.2640405 Z" id="Path" fill="#E3BF53"></path>
                    <polygon id="Path" fill="#E3BF53" points="138.4721 131.41504 138.4721 98.5541405 120.4301 53.0420405 313.9951 63.5618405 283.4881 119.31704 264.5521 119.31704 242.9861 127.73304 222.9991 119.31704 206.6931 127.73304 193.5431 119.31704 171.4511 131.41504 164.6141 122.96004"></polygon>
                </g>
            </g>
        </g>
    </g>
</svg>