<?xml version="1.0" encoding="UTF-8"?>
<svg width="861px" height="1366px" viewBox="0 0 861 1366" version="1.1" xmlns="http://www.w3.org/2000/svg" xmlns:xlink="http://www.w3.org/1999/xlink">
    <!-- Generator: Sketch 55.2 (78181) - https://sketchapp.com -->
    <title>gee_me_084</title>
    <desc>Created with Sketch.</desc>
    <g id="GEE!-ME" stroke="none" stroke-width="1" fill="none" fill-rule="evenodd">
        <g id="gee_me_084" transform="translate(-170.000000, -117.000000)">
            <g transform="translate(170.000000, 117.000000)">
                <g id="lower-limb" transform="translate(359.492278, 919.000000)">
                    <path d="M281.507722,75 C293.507722,133 289.507722,282 289.507722,357" id="Path" stroke="#4A4E54" stroke-width="74" stroke-linecap="round" stroke-linejoin="bevel"></path>
                    <path d="M128.919722,74 C120.507722,176.5 140.507722,297 153.507722,363.5" id="Path" stroke="#4A4E54" stroke-width="74" stroke-linecap="round" stroke-linejoin="bevel"></path>
                    <polygon id="Path" fill="#33353A" fill-rule="nonzero" points="63.5077217 9 225.507722 9 208.507722 189 186.507722 328 107.507722 328 81.5077217 251 68.5077217 147"></polygon>
                    <path d="M94.5077217,0 L80.5077217,0 L80.5077217,136.129553 L80.5125154,136.259017 C81.779961,170.488605 89.3045461,230.096532 95.0697372,254.603002 L95.6623171,257.096377 L96.2694201,259.598798 C103.083508,287.390238 111.085973,310.082549 122.64264,327.821101 L134.372804,320.178899 C123.2777,303.148808 115.421291,279.972236 108.697642,251.396725 C103.267242,228.313376 96.0509935,171.569831 94.5895603,137.892126 L94.5077217,135.869746 L94.5077217,0 Z" id="Path" fill="#C8CFE2" fill-rule="nonzero"></path>
                    <polygon id="Path" fill="#33353A" fill-rule="nonzero" points="217.507722 19 373.513722 19 363.507722 154.5 348.007722 256 326.007722 328 251.712722 336 229.661722 212.62"></polygon>
                    <path d="M366.492218,9.46563307 L352.523226,8.53436693 L344.023226,136.034367 L344.012515,136.240983 C342.733122,170.793242 333.790972,229.940435 327.691768,245.930402 L327.199813,247.180986 L326.878614,248.010074 C321.480174,262.067578 308.727815,301.091624 303.734401,320.233047 L317.281043,323.766953 L317.757941,321.966918 L318.255753,320.136953 C323.765792,300.111119 335.538207,264.299524 340.218684,252.329472 L340.507556,251.59849 C347.190746,234.880068 356.268851,175.66745 357.908466,139.064131 L357.999057,136.863052 L366.492218,9.46563307 Z" id="Path" fill="#C8CFE2" fill-rule="nonzero"></path>
                    <path d="M188.507722,318 L107.507722,318 L110.507722,341 C142.139722,341 156.875722,341 188.507722,341 L188.507722,318 Z" id="Path" fill="#282A2F" fill-rule="nonzero"></path>
                    <path d="M329.507722,318 L250.507722,318 L250.507722,341 C289.811722,341 288.203722,341 327.507722,341 L329.507722,318 Z" id="Path" fill="#282A2F" fill-rule="nonzero"></path>
                    <path d="M12.2707217,442.02 C12.0707217,419.07 15.1977217,405.11 35.1467217,395.73 C55.0967217,386.36 73.8877217,368.33 108.401722,352.87 C108.401722,352.87 112.944722,352.01 120.339722,356.01 C126.649722,359.42 134.755722,367.79 146.969722,367.69 C160.231722,367.57 172.050722,364.76 179.393722,360.91 C182.565722,352.22 189.603722,352.16 189.603722,352.16 C189.603722,352.16 199.512722,371.02 199.678722,389.97 C199.843722,408.91 199.827218,440.38 199.827218,440.38 L12.2707217,442.02 Z" id="Path" fill="#DCE1E6" fill-rule="nonzero"></path>
                    <path d="M87.155404,360.743946 C85.0672682,359.821609 82.8452974,361.739252 83.4523464,363.939822 L86.4495951,374.804935 L74.4401909,370.933703 C72.6924547,370.370321 70.9028817,371.673704 70.9028817,373.51 L70.9028817,384.66471 L61.9062449,379.79006 C60.1026674,378.812828 57.9098817,380.118689 57.9098817,382.17 L57.9098817,395.71 C57.9098817,397.204946 59.1217752,398.41684 60.6167217,398.41684 C62.1116681,398.41684 63.3235617,397.204946 63.3235617,395.71 L63.3235617,386.71529 L72.3201985,391.58994 C74.123776,392.567172 76.3165617,391.261311 76.3165617,389.21 L76.3165617,377.226548 L89.5622525,381.496297 C91.6117642,382.156957 93.5747342,380.276005 93.0020969,378.200178 L90.188859,368.00211 L103.374039,373.826054 C105.163409,374.616425 107.174562,373.306152 107.174562,371.35 L107.172037,370.324191 L107.162037,369.225802 C107.119283,366.050283 106.95514,363.899632 106.491687,361.370715 C106.109976,359.28784 105.551091,357.373564 104.776159,355.630413 C104.168873,354.264371 102.569176,353.649278 101.203134,354.256563 C99.8896328,354.840491 99.2704251,356.34196 99.7646113,357.671 L99.8292848,357.829587 C100.417265,359.152204 100.857816,360.661165 101.166688,362.346583 C101.424201,363.75175 101.576035,365.050472 101.661674,366.579451 L101.690763,367.164269 L87.155404,360.743946 Z" id="Path" fill="#FFFFFF" fill-rule="nonzero"></path>
                    <path d="M193.793722,362.14 C189.940722,367.37 176.048722,370.5 170.821722,371.27 C165.595722,372.04 159.994722,371.36 162.235722,380.01 C163.820722,386.12 179.050722,383.65 185.005722,383.6 C189.847722,383.56 196.637722,398.19 199.165722,393.22 C199.165722,376.22 195.958722,367.01 193.793722,362.14 Z" id="Path" fill="#37393F" fill-rule="nonzero"></path>
                    <path d="M19.8187217,397.49 C25.9387217,395.27 32.4207217,393.59 44.8487217,390.78 L39.5677217,405.98 L39.7187217,423.3 L4.34572168,423.610039 C2.90272168,423.62 0.322721681,421.7 1.55472168,413.89 C3.09372168,404.13 11.1217217,400.64 19.8187217,397.49 Z" id="Path" fill="#EAF4FB" fill-rule="nonzero"></path>
                    <polygon id="Path" fill="#37393F" fill-rule="nonzero" points="62.9952628 402.423999 79.4732628 433.833999 94.8141806 425.786001 78.3361806 394.376001"></polygon>
                    <polygon id="Path" fill="#37393F" fill-rule="nonzero" points="85.6923724 390.526575 105.439372 428.256575 120.788071 420.223425 101.041071 382.493425"></polygon>
                    <polygon id="Path" fill="#37393F" fill-rule="nonzero" points="107.896049 377.336149 135.199049 430.516149 150.610395 422.603851 123.307395 369.423851"></polygon>
                    <path d="M200.419722,437.43 L199.392722,419.2 L40.7867217,421.67 L1.24072168,418.77 L0.0327216808,432.74 C-0.384278319,437.57 3.23372168,441.8 8.06472168,442.13 L40.9857217,444.41 L196.162722,442 C198.623722,441.96 200.557722,439.88 200.419722,437.43 Z" id="Path" fill="#C7CBCF" fill-rule="nonzero"></path>
                    <path d="M427.919722,444.02 C428.119722,421.07 424.993722,407.11 405.043722,397.73 C385.094722,388.36 366.303722,370.33 331.789722,354.87 C331.789722,354.87 327.246722,354.01 319.851722,358.01 C313.540722,361.42 305.434722,369.79 293.221722,369.69 C279.958722,369.57 268.139722,366.76 260.797722,362.91 C257.624722,354.22 250.587722,354.16 250.587722,354.16 C250.587722,354.16 240.677722,373.02 240.512722,391.97 C240.346722,410.91 240.36323,442.38 240.36323,442.38 L427.919722,444.02 Z" id="Path" fill="#DCE1E6" fill-rule="nonzero"></path>
                    <path d="M347.189346,380.200178 C346.616709,382.276005 348.579679,384.156957 350.629191,383.496297 L363.874882,379.226548 L363.874882,391.21 C363.874882,393.261311 366.067667,394.567172 367.871245,393.58994 L376.867882,388.71529 L376.867882,397.71 C376.867882,399.204946 378.079775,400.41684 379.574722,400.41684 C381.069668,400.41684 382.281562,399.204946 382.281562,397.71 L382.281562,384.17 C382.281562,382.118689 380.088776,380.812828 378.285198,381.79006 L369.288562,386.66471 L369.288562,375.51 C369.288562,373.673704 367.498989,372.370321 365.751253,372.933703 L353.741848,376.804935 L356.739097,365.939822 C357.346146,363.739252 355.124175,361.821609 353.036039,362.743946 L338.500681,369.164269 C338.579101,367.373489 338.735053,365.927396 339.024756,364.346583 C339.333628,362.661165 339.774178,361.152204 340.362159,359.829587 C340.969444,358.463546 340.354351,356.863848 338.988309,356.256563 C337.622268,355.649278 336.02257,356.264371 335.415285,357.630413 C334.640352,359.373564 334.081468,361.28784 333.699757,363.370715 C333.140031,366.424962 333.016882,368.927468 333.016882,373.35 C333.016882,375.306152 335.028034,376.616425 336.817404,375.826054 L350.002584,370.00211 L347.189346,380.200178 Z" id="Path" fill="#FFFFFF" fill-rule="nonzero"></path>
                    <path d="M246.397722,364.14 C250.249722,369.37 264.142722,372.5 269.369722,373.27 C274.595722,374.04 280.196722,373.36 277.954722,382.01 C276.370722,388.12 261.140722,385.65 255.185722,385.6 C250.343722,385.56 243.553722,400.19 241.025722,395.22 C241.025722,378.22 244.232722,369.01 246.397722,364.14 Z" id="Path" fill="#37393F" fill-rule="nonzero"></path>
                    <path d="M420.372722,399.49 C414.251722,397.27 407.769722,395.59 395.342722,392.78 L400.623722,407.98 L400.472722,425.3 L435.844722,425.610039 C437.288722,425.62 439.867722,423.7 438.636722,415.89 C437.097722,406.13 429.069722,402.64 420.372722,399.49 Z" id="Path" fill="#EAF4FB" fill-rule="nonzero"></path>
                    <polygon id="Path" fill="#37393F" fill-rule="nonzero" points="361.855263 396.376001 345.377263 427.786001 360.718181 435.833999 377.196181 404.423999"></polygon>
                    <polygon id="Path" fill="#37393F" fill-rule="nonzero" points="339.150372 384.493425 319.403372 422.223425 334.752071 430.256575 354.499071 392.526575"></polygon>
                    <polygon id="Path" fill="#37393F" fill-rule="nonzero" points="316.884049 371.423851 289.581049 424.603851 304.992395 432.516149 332.295395 379.336149"></polygon>
                    <path d="M239.771722,439.43 L240.798722,421.2 L399.403722,423.67 L438.950722,420.77 L440.158722,434.74 C440.575722,439.57 436.956722,443.8 432.126722,444.13 L399.205722,446.41 L244.028722,444 C241.567722,443.96 239.632722,441.88 239.771722,439.43 Z" id="Path" fill="#C7CBCF" fill-rule="nonzero"></path>
                </g>
                <g id="Book" transform="translate(0.166073, 318.269545)" fill-rule="nonzero">
                    <path d="M242.784927,226.146455 L86.3789265,286.185455 L0.236726541,61.7774547 L156.641927,1.73845468 C162.252927,-0.414545316 168.539927,2.24345468 170.692927,7.85345468 L249.003927,211.861455 C251.178927,217.527455 248.394927,223.993455 242.784927,226.146455 Z" id="Path" fill="#4C5B60"></path>
                    <polygon id="Path" fill="#CCDDE5" opacity="0.3" points="22.2858265 53.4104547 0.185026541 61.8944547 86.3269265 286.302455 108.427927 277.818455"></polygon>
                    <polygon id="Path" fill="#FF9852" points="191.641927 62.4244547 25.0360265 126.378455 49.3995265 189.847455 216.005927 125.893455"></polygon>
                    <path d="M232.632927,235.342455 L218.341927,240.827455 C214.623927,242.254455 211.037927,241.941455 210.341927,240.127455 L123.242927,13.2264547 C122.546927,11.4124547 125.001927,8.77945468 128.719927,7.35245468 L143.009927,1.86745468 C146.727927,0.440454684 150.313927,0.753454684 151.009927,2.56745468 L238.087927,229.412455 C238.805927,231.282455 236.350927,233.915455 232.632927,235.342455 Z" id="Path" fill="#B7C8CE"></path>
                    <polygon id="Path" fill="#EA3939" points="133.165927 298.231455 105.817927 294.738455 100.491927 280.865455 123.159927 272.164455"></polygon>
                </g>
                <g id="upper-limb" transform="translate(113.803691, 442.416452)" fill-rule="nonzero">
                    <path d="M611.575202,211.398888 C631.273222,244.936492 639.084336,274.321907 635.423942,294.373845 C633.940332,302.501183 630.602283,308.936374 625.03611,314.412498 C618.157269,321.180052 607.490043,326.915082 592.408496,331.028231 C570.562698,336.986176 557.683048,359.525564 563.640993,381.371362 C569.598938,403.21716 592.138325,416.09681 613.984123,410.138865 C670.706426,394.669146 706.986062,358.976445 716.090927,309.099251 C723.806834,266.830879 711.055623,218.860814 682.281417,169.870208 C670.813588,150.345226 645.688952,143.813613 626.16397,155.281441 C606.638988,166.749269 600.107374,191.873906 611.575202,211.398888 Z" id="Path" fill="#EBBAAA"></path>
                    <path d="M346.94233,34.9454677 C331.09728,41.7881994 315.75203,51.0496071 299.659575,62.9487625 L297.387858,64.6417901 C285.838964,73.3112184 275.284569,82.1591994 258.911588,96.5325186 L243.440161,110.108598 C234.789782,117.671642 231.842287,120.144594 226.764246,124.246393 L225.320617,125.410498 C200.742131,145.203773 184.444867,152.903794 171.674146,151.942456 C164.788845,151.424152 157.164471,148.356746 147.901282,141.420598 C135.576637,132.192076 121.888633,117.084828 107.006044,95.3913799 C94.1962591,76.7193311 68.6751901,71.9670277 50.0031413,84.776813 C31.3310925,97.5865984 26.5787891,123.107667 39.3885744,141.779716 C79.1570902,199.747874 119.931878,230.279468 165.518868,233.711108 C186.882547,235.319296 207.615297,230.751228 228.141255,221.053263 C243.739632,213.683448 258.808822,203.643314 275.734312,190.093235 L280.948154,185.881473 C285.350141,182.294136 288.834381,179.336595 296.329177,172.789544 L315.07151,156.349859 L316.854,154.794552 C345.711203,129.661794 362.077719,117.728888 379.452289,110.225628 C400.240331,101.248251 409.814767,77.118611 400.83739,56.3305687 C391.860013,35.5425263 367.730372,25.9680905 346.94233,34.9454677 Z" id="Path" fill="#EBBAAA"></path>
                    <path d="M306.733309,42.894548 C349.009309,8.27254804 411.865309,17.287548 442.706309,62.396548 C472.988309,106.688548 459.708309,167.339548 413.686309,194.923548 L265.196309,283.923548 L183.198309,144.063548 L306.733309,42.894548 Z" id="Path" fill="#2E3032"></path>
                    <path d="M634.547309,60.878548 C597.921309,19.408548 532.871309,20.594548 497.782309,63.372548 C465.061309,103.264548 472.598309,162.460548 514.272309,192.879548 L625.029309,273.725548 L747.000309,188.208548 L634.547309,60.878548 Z" id="Path" fill="#2E3032"></path>
                    <path d="M310.534309,143.293548 C313.834309,84.650548 361.822309,38.487548 420.549309,37.462548 L498.561309,36.100548 C559.985309,35.028548 610.839309,83.574548 612.620309,144.981548 L617.126309,300.307548 L619.052309,496.586548 C619.052309,496.586548 516.197309,502.586548 458.197309,502.586548 C400.197309,502.586548 299.063309,496.586548 299.063309,496.586548 L301.391309,305.764548 L310.534309,143.293548 Z" id="Path" fill="#2E3032"></path>
                    <circle id="Oval" fill="#424649" transform="translate(456.168309, 72.555548) rotate(-1.000000) translate(-456.168309, -72.555548) " cx="456.168309" cy="72.555548" r="70.7471"></circle>
                    <circle id="Oval" fill="#EBBAAA" transform="translate(54.807309, 117.182548) rotate(-1.000000) translate(-54.807309, -117.182548) " cx="54.8073095" cy="117.182548" r="53.2353"></circle>
                </g>
                <g id="head" transform="translate(361.760200, 0.434700)">
                    <rect id="Rectangle" fill="#EBBAAA" fill-rule="nonzero" transform="translate(209.039541, 498.397252) rotate(-1.000000) translate(-209.039541, -498.397252) " x="162.043491" y="436.981752" width="93.9921" height="122.831" rx="46.996"></rect>
                    <ellipse id="Oval" fill="#EBBAAA" fill-rule="nonzero" cx="59.4978" cy="308.8463" rx="59.4978" ry="56.4354"></ellipse>
                    <ellipse id="Oval" fill="#EBBAAA" fill-rule="nonzero" cx="364.6108" cy="313.2213" rx="59.4978" ry="56.4354"></ellipse>
                    <path d="M38.7648,203.7423 C33.6308,105.5843 111.8368,23.1805 210.1288,23.1805 C308.8288,23.1805 387.1838,106.2383 381.4368,204.7703 L373.2648,344.8803 C368.1978,431.7593 296.2668,499.6173 209.2408,499.6173 C122.3568,499.6173 50.6828,431.5943 46.1438,344.8293 L38.7648,203.7423 Z" id="Path" fill="#EED4CC" fill-rule="nonzero"></path>
                    <path d="M179.188043,405.983742 C198.903581,423.950576 239.86929,419.601427 252.416383,398.927521 C254.565445,395.386501 253.43704,390.773778 249.896021,388.624717 C246.428772,386.520427 241.93401,387.558465 239.730709,390.926915 L239.593217,391.145079 C236.328173,396.524908 227.55325,400.899448 217.044758,402.015088 C206.006953,403.186923 195.508035,400.561954 189.291557,394.896858 C186.229998,392.106849 181.486366,392.326985 178.696358,395.388543 C175.906349,398.450102 176.126485,403.193734 179.188043,405.983742 Z" id="Path" fill="#C99584" fill-rule="nonzero"></path>
                    <path d="M169.8598,227.9683 L105.4298,215.6803 C104.7558,215.5523 104.0628,215.7693 103.5818,216.2593 L89.1048,231.0413 C87.9358,232.2353 88.6108,234.2523 90.2638,234.5013 L170.5608,246.6153 C173.3648,247.0383 175.7408,244.5543 175.1928,241.7713 L173.1128,231.2023 C172.7898,229.5613 171.5028,228.2813 169.8598,227.9683 Z" id="Path" fill="#393939" fill-rule="nonzero"></path>
                    <path d="M242.6228,227.9683 L307.0528,215.6803 C307.7268,215.5523 308.4198,215.7693 308.8998,216.2593 L323.3778,231.0413 C324.5468,232.2353 323.8718,234.2523 322.2188,234.5013 L241.9218,246.6153 C239.1178,247.0383 236.7418,244.5543 237.2898,241.7713 L239.3698,231.2023 C239.6928,229.5613 240.9798,228.2813 242.6228,227.9683 Z" id="Path" fill="#393939" fill-rule="nonzero"></path>
                    <path d="M132.23365,275.3743 L132.23365,304.3363 C132.23365,311.126724 137.738376,316.63145 144.5288,316.63145 C151.319224,316.63145 156.82395,311.126724 156.82395,304.3363 L156.82395,275.3743 C156.82395,268.583876 151.319224,263.07915 144.5288,263.07915 C137.738376,263.07915 132.23365,268.583876 132.23365,275.3743 Z" id="Path" fill="#000000" fill-rule="nonzero"></path>
                    <path d="M258.97965,274.3743 L258.97965,303.3363 C258.97965,310.126724 264.484376,315.63145 271.2748,315.63145 C278.065224,315.63145 283.56995,310.126724 283.56995,303.3363 L283.56995,274.3743 C283.56995,267.583876 278.065224,262.07915 271.2748,262.07915 C264.484376,262.07915 258.97965,267.583876 258.97965,274.3743 Z" id="Path" fill="#000000" fill-rule="nonzero"></path>
                    <path d="M196.23278,286.426045 C195.837793,288.005995 195.192927,290.007554 194.218503,292.702407 L193.514525,294.614449 L189.810853,304.378109 L189.224265,305.955436 L188.634557,307.566628 C187.297244,311.254056 186.224696,314.458167 185.292268,317.616099 C181.34771,330.975462 180.530279,341.613842 184.285327,350.574356 C189.196228,362.293036 200.951607,368.24735 218.6818,368.24735 L218.6818,350.82925 C207.336621,350.82925 202.184187,348.219448 200.349854,343.842257 C198.544164,339.533413 199.093576,332.383143 201.997392,322.548544 C202.945997,319.335826 204.090629,315.976033 205.60436,311.879745 L206.784555,308.738408 C207.76385,306.160987 209.415176,301.830399 210.008528,300.235643 L210.47022,298.979627 L210.8892,297.816361 C211.897309,294.985278 212.614369,292.716357 213.13082,290.650555 L196.23278,286.426045 Z" id="Path" fill="#EBBAAA" fill-rule="nonzero"></path>
                    <path d="M336.1818,132.0653 C332.8428,104.0353 320.3068,90.02 318.0798,71.3333 C316.5028,58.0968 316.3388,54.7207 353.9668,82.4559 C391.5948,110.1913 397.2358,171.0403 386.9998,222.7603 L377.5238,282.1273 L365.9058,279.2553 L364.3728,203.3653 C348.6818,173.5653 339.5218,160.0953 336.1818,132.0653 Z" id="Path" fill="#272727" fill-rule="nonzero"></path>
                    <path d="M59.6818,168.0643 C61.2368,139.8813 61.9448,141.3413 62.9818,122.5523 C63.7158,109.2443 68.3008,112.1563 44.5428,136.5593 C31.4308,150.0283 36.3678,207.8963 39.1588,245.7413 L41.8828,272.2723 L47.1818,272.5643 L50.1678,237.5273 C59.5338,207.4623 58.1278,196.2473 59.6818,168.0643 Z" id="Path" fill="#272727" fill-rule="nonzero"></path>
                    <path d="M214.2398,6.27428 L214.2388,6.27428 C214.1598,6.27428 214.0798,6.27428 213.9998,6.27428 C213.9208,6.27428 213.8408,6.27428 213.7618,6.27428 L213.7608,6.27428 C162.9448,6.4508 41.2738,34.6256 36.7018,166.4803 C50.2128,150.2383 71.0798,143.1543 89.6138,132.5553 C128.6298,110.2433 155.2798,108.5643 206.7608,108.5643 C258.2408,108.5643 294.1488,118.1443 324.2398,132.5553 C351.1588,145.4453 364.5128,147.2673 390.8208,166.4803 C386.2488,34.626 265.0518,6.45081 214.2398,6.27428 Z" id="Path" fill="#272727"></path>
                    <path d="M205.9358,117.3023 C260.9588,85.4201 284.7848,95.7049 302.6118,85.4202 C290.2698,79.9351 317.0098,40.7412 229.0768,59.7086 C202.8508,65.3654 197.3518,96.733 205.9358,117.3023 Z" id="Path" fill="#272727" fill-rule="nonzero"></path>
                    <path d="M175.4298,123.8393 C212.4538,101.2123 229.4558,96.5741 247.2828,86.2894 C234.9408,80.8043 202.9008,65.4809 186.4458,78.6452 C179.4038,87.8318 166.8448,103.2693 175.4298,123.8393 Z" id="Path" fill="#272727" fill-rule="nonzero"></path>
                    <path d="M137.9358,130.3023 C192.9588,98.4203 225.8558,91.8496 243.6818,81.565 C231.3408,76.0798 249.0098,53.7414 161.0768,72.7087 C134.8508,78.3655 129.3518,109.7333 137.9358,130.3023 Z" id="Path" fill="#272727" fill-rule="nonzero"></path>
                    <polygon id="Path" fill="#272727" fill-rule="nonzero" points="81.9308 46.1804 71.5028 83.2265 208.9718 61.9371 366.0758 90.6566 365.7448 75.4136 354.5378 70.7553 354.2778 58.7787 340.1508 59.0858 339.7488 40.5764 321.5848 40.9712 317.2408 26.9047 301.0958 27.2556 291.2028 13.3098 274.6478 18.0268 269.4128 9.4262 252.2588 9.7991 252.0458 0 229.0498 10.3035 222.7828 0.63607 212.9048 10.6545 202.6008 1.07474 183.6418 11.2906 171.3198 1.75468 158.4148 11.8389 149.3338 12.0363 139.4318 20.9659 135.2068 12.3434 118.4548 31.2256 107.2598 27.1117 93.0898 48.6611"></polygon>
                    <polygon id="Path" fill="#272727" fill-rule="nonzero" points="362.9338 92.8704 346.7778 89.0618 369.6438 169.1293 374.1828 264.0253 380.3528 262.8553 381.0908 255.9193 385.9388 254.9993 384.3548 246.6503 391.8468 245.2293 389.8098 234.4953 395.0868 231.0223 393.2758 221.4813 397.9308 214.7293 394.2998 205.2243 397.2598 201.5743 395.3368 191.4363 399.3028 190.6843 392.7338 177.7213 396.0208 173.3913 390.9228 168.1803 393.7578 161.4643 387.6418 150.8873 390.2498 142.9783 384.8128 135.9793 383.7938 130.6123 383.7938 122.5003 387.6418 117.5003 372.7938 113.5483 373.3118 106.6543 363.0768 99.6393"></polygon>
                    <polygon id="Path" fill="#272727" fill-rule="nonzero" points="65.2618 81.8704 81.4178 78.0618 54.8848 144.5653 43.8418 235.6503 36.3488 234.2293 38.3858 223.4953 33.1098 220.0223 34.9198 210.4813 30.2658 203.7293 33.8958 194.2243 30.9358 190.5743 32.8598 180.4363 28.8928 179.6843 35.4628 166.7213 32.1748 162.3913 37.2728 157.1803 34.4378 150.4643 40.5548 139.8873 37.9458 131.9783 43.3838 124.9793 44.4018 119.6123 44.4018 111.5003 40.5548 106.5003 55.4028 102.5483 54.8848 95.6546 65.1188 88.6389"></polygon>
                </g>
            </g>
        </g>
    </g>
</svg>