<?xml version="1.0" encoding="UTF-8"?>
<svg width="439px" height="1360px" viewBox="0 0 439 1360" version="1.1" xmlns="http://www.w3.org/2000/svg" xmlns:xlink="http://www.w3.org/1999/xlink">
    <!-- Generator: Sketch 55.2 (78181) - https://sketchapp.com -->
    <title>gee_me_051</title>
    <desc>Created with Sketch.</desc>
    <defs>
        <path d="M74.1691218,0 C74.4917847,1.97065156 74.6603399,3.99331445 74.6603399,6.05546742 L74.6603399,19.7161473 C74.6603399,40.231728 58.028272,56.8628329 37.5126912,56.8628329 C16.9971105,56.8628329 0.366005666,40.231728 0.366005666,19.7161473 L0.366005666,6.05546742 C0.366005666,3.99331445 0.533597734,1.97065156 0.857223796,0 L74.1691218,0 Z" id="path-1"></path>
    </defs>
    <g id="GEE!-ME" stroke="none" stroke-width="1" fill="none" fill-rule="evenodd">
        <g id="gee_me_051" transform="translate(-380.000000, -120.000000)">
            <g transform="translate(380.000000, 120.000000)">
                <g id="lower-limb" transform="translate(18.300298, 810.028329)" fill-rule="nonzero">
                    <polygon id="Path" fill="#F6DDD6" points="310.025667 194.40296 311.470426 493.949703 245.975437 494.265595 244.530678 194.718853"></polygon>
                    <polygon id="Path" fill="#F6DDD6" points="116.428348 154.060866 181.924032 154.154431 181.442445 491.264913 115.946761 491.171348"></polygon>
                    <path d="M419.884575,528.232861 C421.062535,525.333711 420.860269,519.053824 413.594093,516.164306 C406.328881,513.265156 320.591091,528.232861 320.591091,528.232861 C298.519986,526.44136 239.240552,497.594334 217.415057,510.847592 C210.510071,515.037394 212.850581,528.319547 215.399136,540.754108 C219.478173,544.895751 260.738569,548.526912 274.11704,545.415864 C274.11704,538.163173 275.158229,533.501416 275.158229,533.501416 C275.158229,533.501416 283.262365,538.721813 292.011827,540.754108 C309.855566,544.895751 313.760269,549.490085 369.030014,549.490085 C413.358116,545.348442 416.546218,536.448725 419.884575,528.232861 Z" id="Path" fill="#383129"></path>
                    <path d="M415.649492,522.132343 C414.675296,523.278766 413.236026,524.586178 411.443332,525.937978 L412.023232,526.707015 C413.868605,525.315492 415.35889,523.961739 416.383454,522.756042 L415.649492,522.132343 Z M406.681788,529.116733 C405.100708,530.060459 403.409921,530.975738 401.63312,531.845109 L402.056435,532.710271 C403.85708,531.829234 405.571337,530.90125 407.175442,529.943781 L406.681788,529.116733 Z M396.383554,534.173141 C394.623456,534.877358 392.817999,535.526562 390.976512,536.114262 L391.269351,537.031839 C393.132892,536.4371 394.960007,535.780109 396.741346,535.067393 L396.383554,534.173141 Z M385.427016,537.668481 C383.568655,538.117475 381.690933,538.500313 379.798732,538.813419 L379.955972,539.763671 C381.871517,539.446702 383.772232,539.059175 385.653218,538.604715 L385.427016,537.668481 Z M374.084626,539.539704 C372.176963,539.708889 370.264441,539.804919 368.350077,539.825335 L368.360348,540.788453 C370.299888,540.767768 372.23736,540.670486 374.169713,540.499111 L374.084626,539.539704 Z M362.595846,539.795078 C360.658176,539.768219 358.735241,539.725703 356.827467,539.667791 L356.798243,540.63052 C358.711306,540.688593 360.639533,540.731226 362.582496,540.758159 L362.595846,539.795078 Z M351.059361,539.44383 C349.119938,539.351905 347.198665,539.243875 345.296151,539.120078 L345.233609,540.081218 C347.141767,540.205382 349.068688,540.31373 351.01376,540.405922 L351.059361,539.44383 Z M339.541921,538.69308 C337.603214,538.531233 335.687513,538.352845 333.795742,538.158381 L333.697252,539.116505 C335.595141,539.311598 337.516963,539.490556 339.461793,539.652914 L339.541921,538.69308 Z M328.061714,537.511039 C326.124607,537.272374 324.217959,537.01678 322.343293,536.744958 L322.20508,537.698163 C324.086558,537.970972 326.000018,538.22748 327.943935,538.466984 L328.061714,537.511039 Z M316.649456,535.853325 C314.714112,535.527124 312.821895,535.183854 310.975637,534.824733 L310.791734,535.770187 C312.645941,536.130853 314.546098,536.475564 316.489372,536.803101 L316.649456,535.853325 Z M305.325475,533.644678 C303.386778,533.210593 301.516889,532.760302 299.722177,532.296493 L299.481181,533.229028 C301.286121,533.695481 303.166191,534.148223 305.115026,534.584578 L305.325475,533.644678 Z M293.894037,531.677932 L294.162438,530.752912 L288.615111,529.135036 L288.344119,530.059301 L292.75877,531.348189 C293.135158,531.457625 293.513598,531.567545 293.894037,531.677932 Z M282.799973,528.424339 L283.073955,527.500957 L278.821584,526.232244 C278.382033,526.100304 277.954228,525.971612 277.538942,525.846406 L277.260914,526.768578 L282.051983,528.202199 C282.298889,528.275593 282.548251,528.34965 282.799973,528.424339 Z M271.87896,525.397759 L271.802085,524.437659 L270.623107,524.52833 C269.20736,524.632976 267.657665,524.733045 266.047599,524.82226 L266.100888,525.783958 L267.469622,525.704675 C269.045246,525.609401 270.539547,525.505006 271.87896,525.397759 Z M260.284857,525.081703 C258.326228,525.149313 256.394656,525.194448 254.518992,525.214569 L254.529324,526.177686 C256.412876,526.157481 258.35205,526.112168 260.318084,526.044303 L260.284857,525.081703 Z M248.75424,525.190565 C246.686983,525.147281 244.763242,525.064659 243.004764,524.940444 L242.936896,525.901223 C244.712246,526.026629 246.65169,526.109926 248.734078,526.153526 L248.75424,525.190565 Z M237.150726,525.242366 L237.303655,524.291411 L235.706654,524.029705 C234.175954,523.773698 232.837104,523.533408 231.626594,523.29643 L231.441549,524.24166 L232.274098,524.401396 C233.695479,524.668825 235.291725,524.943408 237.150726,525.242366 Z M226.0485,521.973265 C223.932584,521.344157 222.257222,520.639712 220.834932,519.7788 L220.336176,520.602781 C221.834496,521.509714 223.584209,522.245421 225.774003,522.896495 L226.0485,521.973265 Z" id="Path" fill="#67513B"></path>
                    <path d="M291.042875,392.50255 C286.315623,392.50255 258.714943,406.950142 244.428201,395.700283 C242.868824,394.477054 239.698059,395.478754 239.69517,397.46289 C239.670127,416.687819 239.385991,450.148442 236.496473,463.411331 C233.438399,477.454391 230.856133,475.450992 227.798059,488.492351 C225.681006,497.526912 218.823215,518.591501 227.798059,518.591501 L268.732904,518.591501 C278.418569,518.591501 291.499419,529.812465 323.751261,532.96204 C377.288258,538.192068 390.371034,531.035694 401.061289,527.645326 C425.383329,519.959207 413.040269,502.36204 401.061289,496.73711 C383.51228,488.492351 358.361912,482.308782 345.569051,475.479887 C335.606955,470.163173 332.185765,468.516147 327.071317,462.920113 C318.636813,453.70255 311.227125,405.177904 310.085765,392.531445 C310.006785,391.654958 308.77585,391.202266 308.026501,391.664589 C303.037266,394.73711 295.728711,392.50255 291.042875,392.50255 Z" id="Path" fill="#2D2B30"></path>
                    <path d="M393.89072,509.75923 C395.672725,509.219977 397.554476,510.227426 398.09373,512.009431 C398.632983,513.791436 397.625534,515.673187 395.843529,516.212441 C388.831021,518.3345 384.048893,519.461811 377.829387,520.130137 C369.372453,521.03889 360.432091,520.622074 350.602776,518.568405 C348.780319,518.187634 347.611602,516.401564 347.992374,514.579108 C348.373145,512.756651 350.159215,511.587934 351.981671,511.968705 C361.114459,513.876846 369.346602,514.260644 377.10904,513.42652 C382.823732,512.812439 387.246505,511.76984 393.89072,509.75923 Z" id="Path" fill="#59555F"></path>
                    <path d="M332.701062,493.452691 C323.214773,484.764873 288.621459,465.337677 291.042875,392.50255 C286.933017,392.50255 276.995963,397.809632 261.979136,398.782436 C246.209108,398.30085 246.469164,396.884986 242.291884,394.525212 C242.179193,394.467422 242.049164,394.371105 241.942252,394.294051 C235.390751,389.892351 238.337096,460.136544 233.636813,472.580737 C229.841912,482.626629 222.727918,497.700283 222.727918,516.058357 C226.047974,521.856657 258.773697,518.957507 269.208711,518.957507 C274.089108,492.971105 312.355963,512.783569 320.591091,510.366006 C327.818739,508.247025 332.701062,504.086119 332.701062,493.452691 Z" id="Path" fill="#1D1D20"></path>
                    <path d="M321.074603,462.159207 C310.224462,453.654391 306.058739,412.305382 305.574263,392.50255 C307.511204,392.020963 307.99568,390.66289 309.449108,391.154108 C310.902535,391.635694 310.902535,397.424363 311.387011,402.25949 C311.916756,407.547309 315.746331,423.9983 317.684235,435.103683 C319.621176,446.218697 321.559079,452.98017 328.825255,462.159207 C334.638003,469.498584 357.404518,477.030595 364.669731,483.310482 C363.862592,483.156374 361.763838,482.058357 359.825935,482.443626 C357.404518,482.925212 357.888031,483.416431 354.982139,483.416431 C352.076246,483.416431 334.638003,472.783003 321.074603,462.159207 Z" id="Path" fill="#1D1D20"></path>
                    <path d="M307.237233,394.079827 C308.499229,393.660416 309.862278,394.343467 310.281688,395.605462 C310.683624,396.814875 310.073056,398.117095 308.910749,398.592652 L308.756053,398.649918 L295.817,402.949 L308.656618,406.608924 C310.700831,407.191519 311.022972,409.916854 309.248479,410.982243 L309.095744,411.067101 L298.423,416.541 L312.310514,419.116848 C314.632475,419.547418 314.988694,422.683388 312.910558,423.657402 L312.754148,423.724742 L298.22,429.45 L314.54029,434.649019 C316.563962,435.293697 316.803405,438.023764 315.001681,439.036039 L314.842243,439.11851 L302.026,445.204 L317.970424,447.112252 C320.073058,447.363939 320.828033,449.989948 319.255363,451.328507 L319.126351,451.431441 L307.486,460.136 L325.434887,460.136544 C327.544159,460.136544 328.610209,462.637792 327.222459,464.158454 L327.110845,464.273435 L315.741,475.294 L338.484198,470.334061 C340.591001,469.874553 342.166638,472.189977 341.036874,473.9675 L340.951547,474.093507 L332.991,485.151 L349.080688,477.284943 C350.22562,476.725155 351.597692,477.156418 352.224154,478.244837 L352.301559,478.390504 C352.861347,479.535435 352.430083,480.907508 351.341664,481.53397 L351.195997,481.611375 L326.492541,493.689562 C324.288948,494.766958 322.108566,492.257802 323.395673,490.244663 L323.480663,490.119524 L333.373,476.378 L308.509767,481.800783 C306.192175,482.306266 304.647249,479.528422 306.214065,477.828492 L306.320684,477.7192 L319.49,464.952 L300.245991,464.952408 C297.98412,464.952408 296.995736,462.138629 298.679074,460.715389 L298.803875,460.616151 L311.423,451.178 L293.178103,448.99483 C290.836585,448.714548 290.276125,445.613677 292.283666,444.504568 L292.43144,444.428799 L307.264,437.385 L290.311976,431.984976 C288.211839,431.315938 288.059503,428.442086 289.994159,427.52236 L290.160214,427.450329 L303.179,422.321 L290.603848,419.989667 C288.401619,419.5813 287.923241,416.67869 289.795136,415.56195 L289.943775,415.479641 L301.467,409.567 L286.991569,405.442068 C284.771333,404.809307 284.648661,401.75119 286.723744,400.903543 L286.892134,400.8413 L307.237233,394.079827 Z" id="Path" fill="#000000"></path>
                    <path d="M0.54071095,528.232861 C-0.637730976,525.333711 -0.434886784,519.053824 6.83061463,516.164306 C14.096116,513.265156 99.8338101,528.232861 99.8338101,528.232861 C121.904915,526.44136 181.184348,497.594334 203.009844,510.847592 C209.91483,515.037394 207.57432,528.319547 205.025765,540.754108 C200.946728,544.895751 159.686331,548.526912 146.307861,545.415864 C146.307861,538.163173 145.266671,533.501416 145.266671,533.501416 C145.266671,533.501416 137.162535,538.721813 128.413074,540.754108 C110.569334,544.895751 106.664632,549.490085 51.3947903,549.490085 C7.06668829,545.348442 3.87848999,536.448725 0.54071095,528.232861 Z" id="Path" fill="#383129"></path>
                    <path d="M4.04154542,522.756045 C5.06612939,523.961743 6.55641546,525.315495 8.40177174,526.707014 L8.9816742,525.937979 C7.18899436,524.586181 5.74971992,523.278768 4.77550254,522.13234 L4.04154542,522.756045 Z M13.2495163,529.943779 C14.8536048,530.90125 16.56784,531.829234 18.3684588,532.71027 L18.7917785,531.84511 C17.0150036,530.97574 15.3242377,530.060461 13.7431743,529.116734 L13.2495163,529.943779 Z M23.683474,535.067392 C25.4647874,535.780108 27.2918762,536.4371 29.1553895,537.031838 L29.4482329,536.114263 C27.6067729,535.526563 25.8013425,534.877359 24.04127,534.173142 L23.683474,535.067392 Z M34.771442,538.604715 C36.6524006,539.059175 38.5530892,539.446702 40.4686077,539.76367 L40.6258497,538.813419 C38.7336758,538.500314 36.855981,538.117475 34.9976463,537.668481 L34.771442,538.604715 Z M46.2547884,540.499111 C48.1871161,540.670486 50.1245642,540.767768 52.0640801,540.788453 L52.0743515,539.825335 C50.1600118,539.804919 48.2475146,539.708889 46.3398765,539.539704 L46.2547884,540.499111 Z M57.8419941,540.758159 C59.7849835,540.731226 61.7132355,540.688593 63.6263222,540.63052 L63.597098,539.667791 C61.6893008,539.725703 59.7663406,539.768219 57.8286447,539.795078 L57.8419941,540.758159 Z M69.4108721,540.405922 C71.3559658,540.31373 73.2829062,540.205382 75.1910825,540.081218 L75.1285417,539.120078 C73.2260095,539.243875 71.3047161,539.351905 69.3652715,539.44383 L69.4108721,540.405922 Z M80.962951,539.652914 C82.9077966,539.490556 84.8296333,539.311598 86.7275357,539.116505 L86.6290463,538.158381 C84.7372622,538.352845 82.8215462,538.531233 80.882823,538.69308 L80.962951,539.652914 Z M92.4808888,538.466984 C94.424817,538.22748 96.3382866,537.970972 98.2197724,537.698163 L98.0815606,536.744958 C96.2068861,537.01678 94.3002281,537.272374 92.3631107,537.511039 L92.4808888,538.466984 Z M103.935502,536.803101 C105.878782,536.475564 107.778943,536.130853 109.633155,535.770187 L109.449252,534.824733 C107.60299,535.183854 105.710768,535.527124 103.775419,535.853325 L103.935502,536.803101 Z M115.309871,534.584578 C117.258707,534.148223 119.138778,533.695481 120.943719,533.229028 L120.702723,532.296493 C118.90801,532.760303 117.038121,533.210593 115.099422,533.644678 L115.309871,534.584578 Z M126.262462,530.752912 L126.530864,531.677932 L132.080781,530.059301 L131.80979,529.135036 L127.397211,530.423319 C127.020996,530.532705 126.642728,530.642575 126.262462,530.752912 Z M137.350946,527.500957 L137.624928,528.424339 L142.531252,526.959127 C142.745228,526.894759 142.956172,526.831233 143.163987,526.768578 L142.885959,525.846406 L139.548635,526.847092 C138.839041,527.058812 138.105612,527.277036 137.350946,527.500957 Z M148.622816,524.437659 L148.545941,525.397759 L149.730225,525.48884 C151.15214,525.593946 152.707925,525.694408 154.324013,525.783958 L154.377302,524.82226 L153.013746,524.743278 C151.444184,524.648373 149.956015,524.544408 148.622816,524.437659 Z M160.106816,526.044303 C162.072851,526.112168 164.012025,526.157481 165.895577,526.177686 L165.905908,525.214569 C164.030244,525.194448 162.098672,525.149313 160.140044,525.081703 L160.106816,526.044303 Z M171.690823,526.153526 C173.773211,526.109926 175.712655,526.026629 177.488004,525.901223 L177.420137,524.940444 C175.661659,525.064659 173.737917,525.147281 171.670661,525.190565 L171.690823,526.153526 Z M183.121245,524.291411 L183.274174,525.242366 L184.878705,524.97942 C186.417037,524.722125 187.763895,524.48039 188.983352,524.24166 L188.798306,523.29643 L187.97159,523.455042 C186.559716,523.720667 184.971974,523.993784 183.121245,524.291411 Z M194.650897,522.896495 C196.840692,522.245421 198.590404,521.509714 200.088724,520.602781 L199.589969,519.7788 C198.167678,520.639712 196.492317,521.344157 194.376401,521.973265 L194.650897,522.896495 Z" id="Path" fill="#67513B"></path>
                    <path d="M129.382025,392.50255 C134.109278,392.50255 161.709957,406.950142 175.9967,395.700283 C177.556076,394.477054 180.726841,395.478754 180.729731,397.46289 C180.754773,416.687819 181.038909,450.148442 183.928428,463.411331 C186.986501,477.454391 189.568768,475.450992 192.626841,488.492351 C194.743895,497.526912 201.601685,518.591501 192.626841,518.591501 L151.691997,518.591501 C142.006331,518.591501 128.925481,529.812465 96.6736401,532.96204 C43.136354,538.192068 30.0535778,531.035694 19.3638044,527.645326 C-4.95871681,519.959207 7.38453531,502.36204 19.3638044,496.73711 C36.9127166,488.492351 62.0629886,482.308782 74.8558498,475.479887 C84.8179461,470.163173 88.2391359,468.516147 93.3535835,462.920113 C101.788088,453.70255 109.197776,405.177904 110.339136,392.531445 C110.418116,391.654958 111.649051,391.202266 112.398399,391.664589 C117.387634,394.73711 124.69619,392.50255 129.382025,392.50255 Z" id="Path" fill="#2D2B30"></path>
                    <path d="M22.3313808,512.009374 C22.8706659,510.227378 24.7524354,509.219963 26.5344307,509.759248 L27.9756089,510.190308 C33.840138,511.921844 38.0242562,512.85792 43.3157033,513.42652 C51.0781627,514.260645 59.3104039,513.876845 68.4432323,511.968705 C70.2656895,511.587935 72.0517578,512.756653 72.4325275,514.579111 C72.8132973,516.401568 71.6445787,518.187636 69.8221216,518.568406 C59.9927681,520.622073 51.0523111,521.03889 42.5953574,520.130138 C36.375756,519.461802 31.5931656,518.334361 24.5815068,516.212424 C22.7995115,515.673139 21.7920958,513.791369 22.3313808,512.009374 Z" id="Path" fill="#59555F"></path>
                    <path d="M87.7238384,493.452691 C97.2101274,484.764873 131.803442,465.337677 129.382025,392.50255 C133.491884,392.50255 143.428938,397.809632 158.445765,398.782436 C174.215793,398.30085 173.955736,396.884986 178.133017,394.525212 C178.245708,394.467422 178.375736,394.371105 178.482649,394.294051 C185.03415,389.892351 182.087804,460.136544 186.788088,472.580737 C190.582989,482.626629 197.696983,497.700283 197.696983,516.058357 C194.376926,521.856657 161.651204,518.957507 151.21619,518.957507 C146.335793,492.971105 108.068938,512.783569 99.8338101,510.366006 C92.6061614,508.247025 87.7238384,504.086119 87.7238384,493.452691 Z" id="Path" fill="#1D1D20"></path>
                    <path d="M99.3502974,462.159207 C110.200439,453.654391 114.366161,412.305382 114.850637,392.50255 C112.913697,392.020963 112.429221,390.66289 110.975793,391.154108 C109.522365,391.635694 109.522365,397.424363 109.037889,402.25949 C108.508144,407.547309 104.678569,423.9983 102.740666,435.103683 C100.803725,446.218697 98.8658214,452.98017 91.5996458,462.159207 C85.7868979,469.498584 63.0203823,477.030595 55.7548809,483.310482 C56.5622124,483.156374 58.6612549,482.058357 60.5988696,482.443626 C63.0203823,482.925212 62.536388,483.416431 65.4427619,483.416431 C68.3486543,483.416431 85.7868979,472.783003 99.3502974,462.159207 Z" id="Path" fill="#1D1D20"></path>
                    <path d="M110.143212,395.605462 C110.545147,394.39605 111.813723,393.718342 113.029468,394.033105 L113.187668,394.079827 L133.532767,400.8413 C135.723591,401.569397 135.714022,404.629958 133.604254,405.387159 L133.433332,405.442068 L118.957,409.567 L130.481126,415.479641 C132.47396,416.501985 132.100458,419.419944 129.987044,419.953407 L129.821052,419.989667 L117.245,422.321 L130.264687,427.450329 C132.315393,428.258284 132.275243,431.13589 130.283424,431.924208 L130.112924,431.984976 L113.159,437.385 L127.993461,444.428799 C130.123734,445.440333 129.667269,448.558211 127.411009,448.970078 L127.246798,448.99483 L109.001,451.178 L121.621026,460.616151 C123.432382,461.970791 122.538723,464.816073 120.338287,464.947679 L120.178909,464.952408 L100.933,464.952 L114.104216,477.7192 C115.807431,479.370203 114.348054,482.19393 112.065161,481.829139 L111.915133,481.800783 L87.051,476.378 L96.9442378,490.119524 C98.3773179,492.110224 96.2711536,494.681994 94.0700226,493.752266 L93.9323594,493.689562 L69.2289033,481.611375 C68.0341921,481.027248 67.5392155,479.585215 68.1233421,478.390504 C68.68313,477.245572 70.0308215,476.743279 71.1936656,477.21752 L71.3442127,477.284943 L87.433,485.151 L79.4733541,474.093507 C78.2135288,472.343476 79.7108722,469.976667 81.7911489,470.305914 L81.9407022,470.334061 L104.683,475.294 L93.3140554,464.273435 C91.7995422,462.805348 92.7749977,460.267399 94.8298438,460.141419 L94.9900141,460.136544 L112.938,460.136 L101.298549,451.431441 C99.6026932,450.163179 100.260271,447.511104 102.291297,447.136988 L102.454477,447.112252 L118.398,445.204 L105.582658,439.11851 C103.664086,438.207499 103.794022,435.470034 105.715529,434.709295 L105.884611,434.649019 L122.204,429.45 L107.670752,423.724742 C105.473589,422.859085 105.72221,419.712756 107.948002,419.153111 L108.114386,419.116848 L122,416.541 L111.329157,411.067101 C109.437896,410.096865 109.653672,407.361054 111.601926,406.662352 L111.768283,406.608924 L124.606,402.949 L111.668848,398.649918 C110.459435,398.247983 109.781728,396.979407 110.09649,395.763663 L110.143212,395.605462 Z" id="Path" fill="#000000"></path>
                    <path d="M203.59449,101.133144 C264.768484,101.133144 314.359363,78.4937677 314.359363,50.5665722 C314.359363,22.6393768 264.768484,0 203.59449,0 C142.420496,0 92.8296175,22.6393768 92.8296175,50.5665722 C92.8296175,78.4937677 142.420496,101.133144 203.59449,101.133144 Z" id="Path" fill="#252424"></path>
                    <polygon id="Path" fill="#252424" points="202.63228 22.1529745 327.844745 22.1529745 309.544462 403.569405 238.104972 403.569405"></polygon>
                    <polygon id="Path" fill="#252424" points="204.558626 22.1529745 79.3461614 22.1529745 108.241346 403.569405 179.680836 403.569405"></polygon>
                </g>
                <g id="upper-limb" transform="translate(0.372842, 389.121813)" fill-rule="nonzero">
                    <path d="M28.6616173,152.999037 C34.8380592,106.916997 77.5449487,74.8134844 123.528745,81.6857224 C168.539736,88.4125212 199.81781,130.021586 193.771974,175.128895 L165.858263,383.395751 C159.681436,429.47779 116.974354,461.582266 70.991232,454.710028 C25.9803368,447.982266 -5.29831473,406.373201 0.74752096,361.265892 L28.6616173,152.999037 Z" id="Path" fill="#A7AEBD"></path>
                    <path d="M403.089651,137.071048 C397.040926,90.8753541 354.273164,58.6244759 308.194977,65.5111615 C263.283192,72.2225496 232.025345,113.673654 237.920926,158.699093 L267.213901,382.403683 C273.263589,428.60034 316.030388,460.850255 362.109538,453.964533 C407.020359,447.252181 438.278207,405.80204 432.382626,360.775637 L403.089651,137.071048 Z" id="Path" fill="#A7AEBD"></path>
                    <path d="M155.063986,419.911558 L155.063986,78.98017 L286.055487,78.98017 L286.055487,419.911558 C286.055487,419.911558 240.136224,428.611898 220.559736,428.611898 C200.983249,428.611898 155.063986,419.911558 155.063986,419.911558 Z" id="Path" fill="#252423"></path>
                    <rect id="Rectangle" fill="#EBBAAA" x="182.032824" y="0" width="77.0538244" height="111.728045" rx="38.5269122"></rect>
                    <path d="M164.431804,49.6351841 C163.655487,42.6492918 170.382286,37.2121813 177.050331,39.434221 L203.198546,48.1509348 C214.467668,51.9073088 226.651804,51.9073088 237.920926,48.1509348 L264.069141,39.434221 C270.737187,37.2121813 277.463986,42.6492918 276.687668,49.6361473 L274.036054,73.495864 C271.008801,100.744986 247.97645,121.359773 220.559736,121.359773 C193.143022,121.359773 170.110671,100.744986 167.082456,73.495864 L164.431804,49.6351841 Z" id="Path" fill="#4D4946"></path>
                    <polygon id="Path" fill="#4C4946" points="156.027158 457.507082 156.027158 400.679887 287.01866 400.679887 287.01866 457.507082"></polygon>
                    <path d="M49.0019969,585.743909 L90.3686314,71.9769405 L171.553504,66.9405099 L210.928008,248.016997 C202.654354,357.224419 191.302399,603.119547 191.302399,616.363173 C191.302399,629.597167 90.3686314,599.536544 49.0019969,585.743909 Z" id="Path" fill="#B9BEC8"></path>
                    <polygon id="Path" fill="#A7AEBD" points="118.752371 409.576714 80.3538496 485.469915 68.559317 470.452125 107.353221 404.31779"></polygon>
                    <path d="M393.170898,579.955241 L352.032824,71.7563739 L270.760303,68.3852691 L231.751804,251.388102 C240.025459,360.595524 250.869821,597.330878 250.869821,610.564873 C250.869821,623.808499 351.804552,593.747875 393.170898,579.955241 Z" id="Path" fill="#B9BEC8"></path>
                    <polygon id="Path" fill="#A7AEBD" points="312.090048 408.613541 350.489821 484.506742 362.283872 469.488952 323.490161 403.354618"></polygon>
                    <polygon id="Path" fill="#CBCED5" points="240.786365 407.422096 231.636224 251.388102 274.131408 51.0481586 352.148405 66.4589235 254.270784 259.575071"></polygon>
                    <polygon id="Path" fill="#CBCED5" points="201.527442 409.348442 210.562003 247.535411 168.182399 52.9745042 90.165402 68.3852691 188.043022 261.501416"></polygon>
                    <circle id="Oval" fill="#252424" cx="181.789141" cy="267.64068" r="9.51428839"></circle>
                    <circle id="Oval" fill="#252424" cx="175.99662" cy="396.703909" r="9.51428839"></circle>
                    <circle id="Oval" fill="#252424" cx="180.133447" cy="332.172295" r="9.51428839"></circle>
                    <circle id="Oval" fill="#252424" cx="168.551294" cy="458.753428" r="9.51428839"></circle>
                    <circle id="Oval" fill="#252424" cx="162.760699" cy="512.530255" r="9.51428839"></circle>
                </g>
                <g id="head" transform="translate(32.150612, 0.000027)">
                    <path d="M343.121739,344.212891 C350.511201,332.991928 342.432108,267.044449 330.718963,241.896007 L247.004799,350.413798 C247.004799,366.950512 250.105252,374.184903 280.077263,374.184903 C307.885989,374.184903 329.169218,365.399803 343.121739,344.212891 Z" id="Path" fill="#3D230C" fill-rule="nonzero"></path>
                    <path d="M38.1078357,344.212891 C30.7183739,332.991928 38.7968895,267.044449 50.5098414,241.896007 L134.224006,350.413798 C134.224006,366.950512 131.123552,374.184903 101.151541,374.184903 C73.3428159,374.184903 52.0605496,365.399803 38.1078357,344.212891 Z" id="Path" fill="#3D230C" fill-rule="nonzero"></path>
                    <path d="M340.963269,299.546716 C362.24072,299.546716 379.490181,282.297254 379.490181,261.019803 C379.490181,239.742353 362.24072,222.492891 340.963269,222.492891 C319.684856,222.492891 302.436357,239.742353 302.436357,261.019803 C302.436357,282.297254 319.684856,299.546716 340.963269,299.546716 Z" id="Path" fill="#EBBAAA" fill-rule="nonzero"></path>
                    <path d="M38.5269122,299.546716 C17.2490765,299.546716 5.33812843e-13,282.297254 5.33812843e-13,261.019803 C5.33812843e-13,239.742353 17.2490765,222.492891 38.5269122,222.492891 C59.8044589,222.492891 77.0539207,239.742353 77.0539207,261.019803 C77.0539207,282.297254 59.8044589,299.546716 38.5269122,299.546716 Z" id="Path" fill="#EBBAAA" fill-rule="nonzero"></path>
                    <path d="M43.3427762,179.150115 C43.3427762,99.3579903 108.026669,34.6741943 187.818793,34.6741943 C267.610918,34.6741943 332.294714,99.3579903 332.294714,179.150115 L332.294714,281.246432 C332.294714,361.038557 267.610918,425.722353 187.818793,425.722353 C108.026669,425.722353 43.3427762,361.038557 43.3427762,281.246432 L43.3427762,179.150115 Z" id="Path" fill="#F4D5CC" fill-rule="nonzero"></path>
                    <path d="M265.354204,202.266262 L250.906612,202.266262 C226.171237,202.266262 206.119076,222.318423 206.119076,247.053798 C206.119076,271.789172 226.171237,291.841333 250.906612,291.841333 L265.354204,291.841333 C290.089579,291.841333 310.141739,271.789172 310.141739,247.053798 L310.136129,246.345657 C309.739748,221.890477 289.81377,202.266262 265.354204,202.266262 Z M250.906612,209.971645 L265.354204,209.971645 C285.605274,209.971645 302.103552,226.220069 302.431379,246.439326 L302.436483,247.085009 C302.436483,267.533607 285.834013,284.135951 265.354204,284.135951 L250.906612,284.135951 C230.426802,284.135951 213.824459,267.533607 213.824459,247.053798 C213.824459,226.573988 230.426802,209.971645 250.906612,209.971645 Z" id="Path" fill-opacity="0.75" fill="#FFFFFF" fill-rule="nonzero"></path>
                    <path d="M126.65732,202.266262 L112.209728,202.266262 C87.7501617,202.266262 67.8241837,221.890477 67.4281831,246.31441 L67.4223191,247.022586 C67.4223191,271.789172 87.4743534,291.841333 112.209728,291.841333 L126.65732,291.841333 C151.392695,291.841333 171.444856,271.789172 171.444856,247.053798 C171.444856,222.318423 151.392695,202.266262 126.65732,202.266262 Z M112.209728,209.971645 L126.65732,209.971645 C147.13713,209.971645 163.739473,226.573988 163.739473,247.053798 C163.739473,267.533607 147.13713,284.135951 126.65732,284.135951 L112.209728,284.135951 C91.7299186,284.135951 75.1275751,267.533607 75.1275751,247.053798 L75.1329328,246.40808 C75.4603804,226.220069 91.9586584,209.971645 112.209728,209.971645 Z" id="Path" fill-opacity="0.75" fill="#FFFFFF" fill-rule="nonzero"></path>
                    <rect id="Rectangle" fill-opacity="0.75" fill="#FFFFFF" fill-rule="nonzero" x="165.299813" y="243.682693" width="48.1586402" height="7.70538244"></rect>
                    <path d="M248.052731,216.142693 C254.337873,216.142693 259.451296,221.159421 259.607145,227.407023 L259.610805,227.700767 L259.610805,254.563656 C259.610805,260.947004 254.436079,266.12173 248.052731,266.12173 C241.767588,266.12173 236.654166,261.105001 236.498317,254.857399 L236.494657,254.563656 L236.494657,227.700767 C236.494657,221.317419 241.669383,216.142693 248.052731,216.142693 Z" id="Path" fill="#000000" fill-rule="nonzero"></path>
                    <path d="M127.581966,216.142693 C133.867108,216.142693 138.980531,221.159421 139.13638,227.407023 L139.14004,227.700767 L139.14004,254.563656 C139.14004,260.947004 133.965314,266.12173 127.581966,266.12173 C121.296824,266.12173 116.183401,261.105001 116.027552,254.857399 L116.023892,254.563656 L116.023892,227.700767 C116.023892,221.317419 121.198618,216.142693 127.581966,216.142693 Z" id="Path" fill="#000000" fill-rule="nonzero"></path>
                    <path d="M222.623042,332.875384 L222.623042,346.230738 C222.623042,366.746319 205.990975,383.378387 185.475394,383.378387 C164.959813,383.378387 148.328708,366.746319 148.328708,346.230738 L148.328708,332.875384 L222.623042,332.875384 Z" id="Path" fill="#393939"></path>
                    <g id="Clipped" transform="translate(147.962703, 326.515554)">
                        <mask id="mask-2" fill="white">
                            <use xlink:href="#path-1"></use>
                        </mask>
                        <g id="Path"></g>
                        <g id="Group" mask="url(#mask-2)" fill-rule="nonzero">
                            <g transform="translate(0.000000, 3.852691)">
                                <ellipse id="Oval" fill="#FF6C6C" transform="translate(35.531445, 53.881813) scale(-1, 1) translate(-35.531445, -53.881813) " cx="35.5314448" cy="53.881813" rx="22.4016657" ry="12.200221"></ellipse>
                                <rect id="Rectangle" fill="#FFFFFF" transform="translate(37.513317, 8.242351) scale(-1, 1) translate(-37.513317, -8.242351) " x="0.366294618" y="0.581756374" width="74.2940453" height="15.3211898"></rect>
                            </g>
                        </g>
                    </g>
                    <path d="M249.319303,77.5470385 C203.472278,52.1192764 183.822589,50.0962283 129.885875,89.1051121 C75.4666119,75.1393954 124.106839,39.5014238 145.29664,28.9065229 C166.486442,18.3116221 214.163496,14.4589308 254.135167,34.6855597 C294.106839,54.9121886 306.628085,109.331645 249.319303,77.5470385 Z" id="Path" fill="#311E1C" fill-rule="nonzero"></path>
                    <path d="M126.772901,133.880993 C57.9060453,154.107622 41.0505212,187.337084 43.4584533,294.730852 C29.974034,227.308755 -10.5469348,224.237197 7.47826629,157.410342 C37.5096091,46.0716107 167.364856,-54.8356697 286.659586,37.5635201 C286.659586,37.5635201 225.272731,52.3053614 166.744572,83.3144209 C147.57936,93.4686702 149.786952,127.121446 126.772901,133.880993 Z" id="Path" fill="#321A04" fill-rule="nonzero"></path>
                    <path d="M202.863552,153.144449 C171.560436,119.433401 171.560436,87.1548798 171.560436,87.1548798 C171.560436,87.1548798 191.305479,135.325752 228.869218,153.144449 C333.373467,160.781446 331.447122,249.46173 331.447122,290.396574 C344.931541,238.866829 379.260946,224.237197 361.966215,157.410342 C333.151938,46.071707 207.902873,-56.5348029 93.4432691,35.8643869 C93.4432691,35.8643869 88.7275751,142.549548 202.863552,153.144449 Z" id="Path" fill="#4D2909" fill-rule="nonzero"></path>
                    <path d="M228.428397,175.874783 L282.456612,177.131723 C287.242828,177.243072 291.032556,181.213333 290.921207,185.999549 C290.811883,190.698743 286.982695,194.437355 282.313621,194.466366 L282.053382,194.464144 L228.025167,193.207203 C223.238951,193.095854 219.449223,189.125594 219.560572,184.339378 C219.669896,179.640184 223.499084,175.901572 228.168158,175.872561 L228.428397,175.874783 Z" id="Path" fill="#393939" fill-rule="nonzero"></path>
                    <path d="M143.255442,175.5904 C148.040199,175.428027 152.05064,179.175209 152.213013,183.959965 C152.372434,188.657726 148.763172,192.609073 144.103388,192.904881 L143.843447,192.917536 L89.8316058,194.750454 C85.0468492,194.912827 81.0364083,191.165644 80.8740353,186.380888 C80.7146145,181.683127 84.3238757,177.731781 88.9836606,177.435972 L89.243601,177.423317 L143.255442,175.5904 Z" id="Path" fill="#393939" fill-rule="nonzero"></path>
                    <path d="M179.080478,259.368009 L192.704417,268.450635 C188.074038,275.396203 184.447688,285.82196 184.447688,293.406489 C184.447688,300.71685 187.086516,303.791479 195.164267,303.879063 L195.524176,303.880993 L195.524176,320.254931 C177.663948,320.254931 168.073751,309.465959 168.073751,293.406489 C168.073751,282.527347 172.599637,269.321153 178.743757,259.879252 L179.080478,259.368009 Z" id="Path" fill="#EBBAAA" fill-rule="nonzero"></path>
                </g>
            </g>
        </g>
    </g>
</svg>