<?xml version="1.0" encoding="UTF-8"?>
<svg width="489px" height="1388px" viewBox="0 0 489 1388" version="1.1" xmlns="http://www.w3.org/2000/svg" xmlns:xlink="http://www.w3.org/1999/xlink">
    <!-- Generator: Sketch 55.2 (78181) - https://sketchapp.com -->
    <title>gee_me_076</title>
    <desc>Created with Sketch.</desc>
    <defs>
        <path d="M7.646,35.182 C12.421,26.531 5.028,8.253 0.734,0.195 L115.449,32.965 L110.212,79.402 C103.334,79.544 82.009,73.058 43.895,66.511 C-3.747,58.327 1.676,45.996 7.646,35.182 Z" id="path-1"></path>
        <path d="M126.22,84.961 C119.938,54.746 101.139,45.542 100.223,0.978 C100.223,0.978 99.969,2.399 54.774,13.646 C9.579,24.894 3.458,53.782 3.458,53.782 C-5.332,71.719 8.232,160.176 7.736,261.805 C7.24,363.434 2.354,401.039 20.041,416.714 C37.683,432.351 79.062,436.25 133.141,441.347 L133.55,441.386 C133.307,429.564 131.978,383.766 132.09,370.401 C132.457,326.759 131.939,332.967 129.805,259.294 C127.922,194.288 135.449,129.356 126.22,84.961 Z" id="path-3"></path>
        <path d="M77.57,142.162 C51.212,45.948 22.58,19.713 0.254,0.055 C0.254,0.055 20.336,90.65 21.281,136.614 C22.227,182.578 16.116,254.552 16.116,254.552 C24.025,294.625 -2.057,355.128 7.997,376.475 C33.954,383.605 31.687,396.493 53.44,396.045 L76.224,322.77 C81.141,299.358 89.202,184.624 77.57,142.162 Z" id="path-5"></path>
        <path d="M106.617,35.366 C101.58,27.068 108.098,8.83 111.987,0.748 L0.721,37.544 L7.737,82.909 C14.493,82.77 35.16,75.544 72.304,67.578 C118.733,57.621 112.913,45.739 106.617,35.366 Z" id="path-7"></path>
        <path d="M9.6119,166.768 C38.3981,41.648 53.859,7.88 90.196,0.131 L80.779,233.316 C88.557,267.162 99.713,317.702 97.367,351.277 C71.741,359.468 52.707,368.48 30.9671,368.927 L4.3201,302.901 C-1.5518,279.712 -0.2583,209.67 9.6119,166.768 Z" id="path-9"></path>
        <path d="M1.465,102.125 C5.951,71.689 32.381,45.05 31.464,0.487 C31.464,0.487 31.729,0.938 72.954,10.408 C114.178,19.878 120.853,49.462 120.853,49.462 C129.487,67.041 120.707,155.957 125.131,257.485 C129.555,359.012 136.25,370.91 119.061,397.769 C101.872,424.628 62.337,436.213 13.554,443.448 C13.31,431.627 13.602,428.804 12.978,415.454 C10.939,371.862 15.832,333.449 14.875,259.752 C14.031,194.725 -5.127,146.846 1.465,102.125 Z" id="path-11"></path>
        <path d="M0.635,0.625 C0.3,2.671 0.126,4.771 0.126,6.912 L0.126,21.095 C0.126,42.395 17.393,59.662 38.693,59.662 C59.993,59.662 77.26,42.395 77.26,21.095 L77.26,6.912 C77.26,4.771 77.086,2.671 76.751,0.625 L0.635,0.625 Z" id="path-13"></path>
    </defs>
    <g id="GEE!-ME" stroke="none" stroke-width="1" fill="none" fill-rule="evenodd">
        <g id="gee_me_076" transform="translate(-355.000000, -106.000000)">
            <g transform="translate(356.000000, 106.000000)">
                <g id="lower-limb" transform="translate(0.108400, 862.796500)" fill-rule="nonzero">
                    <g id="Group-3" transform="translate(0.000000, 22.635564)">
                        <path d="M113.429961,14.9534431 C120.794002,10.1719972 127.785156,12.6267607 132.142538,21.6118945 L132.745705,22.8850257 C134.619415,26.8225029 136.851333,31.1767571 139.78867,36.6733352 L143.352996,43.2682798 C145.699711,47.5874289 148.966005,53.5921539 150.596194,56.612998 L152.112669,59.4406847 C157.497432,69.5319369 161.547601,77.634088 165.058684,85.5444844 C178.933447,116.804033 181.833932,140.410045 170.070622,158.267276 L169.709666,158.806647 L163.093534,154.309226 C173.162495,139.496833 170.790262,118.491261 158.133288,89.6658946 L157.746598,88.7900034 C154.218798,80.8419438 150.104024,72.6387791 144.547782,62.2585052 L142.401116,58.2776 C139.60328,53.114325 134.937299,44.5464336 133.832752,42.4942693 L132.369845,39.7634919 C129.436014,34.2585509 127.194874,29.8645787 125.287753,25.8288149 L125.060478,25.3461945 C122.67166,20.2556189 120.9307,19.6216616 117.786549,21.6631481 C113.742238,24.289105 108.670707,30.9456064 103.110598,40.8831589 C93.8989095,57.3471587 83.6985376,82.215096 75.7399471,106.022042 L74.9888673,108.285859 L67.3901327,105.784013 C75.5976062,80.8558543 86.3307408,54.4894752 96.1290769,36.9769636 L96.8109433,35.7694651 C102.704845,25.4297558 108.194863,18.3525737 113.429961,14.9534431 Z" id="Path" fill="#ECECED"></path>
                        <path d="M50.6169,323.247936 L3.19744231e-13,121.817936 L52.7537,114.977936 L56.0104,152.327936 L104.1406,327.197936 C99.6656,323.977936 87.2546,316.257936 76.6979,318.277936 L50.6169,323.247936 Z" id="Path" fill="#32274D"></path>
                        <polygon id="Path" fill="#090E0F" points="249.3186 190.777936 104.1406 327.197936 56.3654 154.187936 63.902 116.067936 188.6816 27.9359362"></polygon>
                        <path d="M177.291091,15.0109897 C171.660999,26.0206926 159.863995,36.0704484 135.499724,52.5133274 L120.027591,62.8688823 C116.698798,65.1100855 114.147269,66.8549507 111.629995,68.6149028 L109.813206,69.8917452 C98.4946309,77.8863165 83.1430174,86.007204 62.9818516,94.9509592 L60.0526718,96.2421832 C44.8805136,102.892601 30.1445297,108.777412 0.700344138,120.179148 L0.567312809,120.2374 C-0.669570714,120.845477 -0.485360917,122.725157 0.911114703,123.040986 L41.993,132.331 L55.5936887,154.239059 C56.0708224,155.007669 57.1146566,155.182187 57.8158603,154.610584 L59.2271555,153.448046 C66.9540382,147.012892 73.5575663,140.295634 91.1172942,121.268085 L102.8844,108.481955 L105.962921,105.152177 C117.954665,92.2209955 126.16786,83.8603626 133.826489,77.0239633 C140.959512,70.6566408 149.82116,64.3833936 160.272903,58.0770963 C165.93919,54.6582129 171.89685,51.3312654 178.48087,47.8589086 L179.806125,47.1624281 C181.628217,46.2081349 183.451021,45.2662435 185.424002,44.2579565 L197.159958,38.3131006 C201.685522,35.9997165 204.043294,34.6930601 205.406141,33.6940416 C208.356057,31.5316416 207.088558,29.3311982 203.538579,29.4145555 L203.339022,29.4215508 C193.230966,29.8912542 180.035348,21.8847946 180.126436,15.7160831 C180.149875,14.1287741 178.013868,13.5975921 177.291091,15.0109897 Z M177.944545,19.9028048 L178.123,19.617 L178.143942,19.6570097 C181.465808,26.1711329 192.316995,32.1208636 201.713783,32.4289139 L201.813,32.431 L201.797345,32.4409646 C200.517846,33.1839839 198.716891,34.1436835 196.192505,35.4380085 L185.572995,40.8146655 C182.991795,42.1274811 180.703204,43.3060519 178.41426,44.5048519 C171.2509,48.2565522 164.824335,51.8270983 158.72305,55.5084475 C148.124504,61.9033217 139.117902,68.2791839 131.828703,74.7859168 L130.662636,75.834579 C122.8575,82.9056833 114.370778,91.6286352 101.935569,105.086734 L97.2478196,110.177326 L89.9754746,118.081227 C72.5503155,136.979018 65.6728139,144.054736 58.3357248,150.278191 L57.238,151.199 L44.2123113,130.216813 L44.1270132,130.093592 C43.9146752,129.817425 43.6116012,129.622418 43.2687853,129.544886 L6.369,121.199 L15.4539918,117.666036 C37.277313,109.152542 49.8031511,104.048867 63.1640662,98.1509335 L65.2310069,97.2339985 C84.7093588,88.5495863 99.7051488,80.6117965 110.955325,72.7555486 L113.650809,70.862758 C115.957739,69.2527744 118.321336,67.636354 121.317801,65.6169408 L135.664705,56.018664 C158.926704,40.3981929 171.281014,30.3999483 177.944545,19.9028048 Z" id="Path" fill="#32274D"></path>
                        <polygon id="Path" fill="#090E0F" points="146.352747 54.9378891 148.928453 56.4759833 145.025453 63.0119833 142.449747 61.4738891"></polygon>
                        <path d="M123.109004,-4.00006813 C127.664534,-4.01102655 132.872875,-1.32540743 139.294005,3.75483434 L140.395496,4.63559239 C148.154231,10.9071303 155.152207,18.0370863 171.810014,36.2683932 L183.218563,48.795151 C195.606988,62.3558661 203.329259,70.3548222 210.630789,76.9093586 L210.957456,77.2018936 L205.627744,83.1679788 L204.612633,82.2546169 C196.92629,75.289272 188.79557,66.798997 175.617356,52.3330719 L167.288059,43.1807933 C149.785184,23.997565 142.756831,16.8018477 135.108107,10.6491869 L134.330276,10.0286999 C129.230134,5.99359201 125.353415,3.99460793 123.128426,4.00000973 C121.788644,4.00326244 120.852666,5.09441166 120.22495,8.96371414 L120.019895,10.3260205 C118.537424,20.5561512 117.829124,32.8582104 117.486611,50.5015823 L117.358988,58.447944 L117.143213,75.9625688 C116.893523,93.0376732 116.535016,101.305763 115.588858,109.479999 C114.874808,115.648966 113.863332,120.378291 112.411593,123.827795 C110.522926,128.315496 107.653233,131.086936 103.639261,131.213413 L103.3506,131.217936 L103.3506,123.217936 C103.424959,123.217936 103.469514,123.198962 103.654321,123.024534 C104.075455,122.627051 104.559362,121.861852 105.037987,120.724583 C106.098531,118.204602 106.947028,114.321408 107.57543,109.122238 L107.708109,107.978878 C108.60987,99.9269709 108.938575,91.3470089 109.181056,73.1901696 L109.421853,54.1013802 L109.48878,50.3103849 C109.849518,31.7449717 110.612657,18.938143 112.267172,8.07085816 C113.424344,0.470590917 117.106638,-3.98539422 123.109004,-4.00006813 Z" id="Path" fill="#ECECED"></path>
                        <polygon id="Path" fill="#090E0F" points="76.8450854 102.018064 84.5037854 105.063064 83.3954146 107.850808 75.7367146 104.805808"></polygon>
                    </g>
                    <path d="M309.90858,235.246156 C311.298871,215.98411 328.040898,201.496189 347.302944,202.88648 C366.56499,204.276771 381.052911,221.018798 379.66262,240.280844 L379.040877,249.008606 C376.506378,285.051339 374.046493,325.733579 372.474943,359.51441 L372.097777,367.88343 C371.207026,388.337063 370.699217,405.420103 370.626798,418.281033 L370.618843,420.347725 C370.605001,427.277002 370.730573,432.698661 370.975377,436.306956 L371.048,437.28 L371.134524,437.560918 C375.463147,452.021095 370.007908,468.144184 356.817951,476.801063 L356.331944,477.11443 C340.016939,487.447868 318.414107,482.598849 308.08067,466.283844 C304.571565,460.743474 303.2116,456.090492 302.229506,450.29962 C301.791817,447.718807 301.483964,444.943227 301.25571,441.827049 L301.200276,441.040825 C300.826737,435.535027 300.666671,428.62405 300.683482,420.208025 L300.692404,417.889655 C300.769123,404.273207 301.28106,386.830074 302.171796,366.14971 L302.329733,362.538205 C304.029741,324.231302 306.961151,276.081875 309.90858,235.246156 Z M367.16253,428.863156 C368.505877,430.984107 369.592641,433.194422 370.430986,435.457725 L370.471,435.57 L370.38855,435.31277 C369.833365,433.629743 368.953599,431.742577 367.411563,429.260126 L367.16253,428.863156 Z" id="Path" fill="#EBBAAA"></path>
                    <path d="M170.567645,191.025253 C171.958435,171.763243 188.700837,157.275756 207.962847,158.666545 C227.224857,160.057335 241.712344,176.799737 240.321555,196.061747 L240.078792,199.502849 C236.04776,257.894838 228.85735,421.777342 228.85735,443.0035 C228.85735,462.315655 213.201755,477.97125 193.8896,477.97125 C174.577445,477.97125 158.92185,462.315655 158.92185,443.0035 L158.93083,441.414253 C159.222744,412.61999 166.560646,246.520971 170.567645,191.025253 Z" id="Path" fill="#EBBAAA"></path>
                    <polygon id="Path" fill="#242C26" points="415.1296 24.4865 295.7046 28.7745 298.7426 188.6335 292.8886 400.0035 289.3886 416.5035 292.8886 425.5035 375.8886 425.5035 411.1466 188.6335 439.0136 61.4865"></polygon>
                    <ellipse id="Oval" fill="#242C26" transform="translate(279.247600, 62.659500) scale(-1, 1) translate(-279.247600, -62.659500) " cx="279.2476" cy="62.6595" rx="121.078" ry="62.6595"></ellipse>
                    <polygon id="Path" fill="#242C26" points="279.0846 28.4865 148.2206 28.4865 150.8886 395.4835 157.8886 425.0035 239.8886 427.5035 253.8886 415.5035 242.8886 390.5035"></polygon>
                    <g id="Group-7" transform="translate(45.381713, 430.153500)">
                        <path d="M12.271287,89.87 C12.070987,66.92 15.197387,52.96 35.146887,43.58 C55.096887,34.2 73.887887,16.17 108.401887,0.71 C108.401887,0.71 112.944887,-0.14 120.339887,3.86 C126.649887,7.27 134.755887,15.64 146.969887,15.53 C160.231887,15.42 172.050887,12.61 179.393887,8.76 C182.565887,0.07 189.603887,4.54747351e-13 189.603887,4.54747351e-13 C189.603887,4.54747351e-13 199.512887,18.87 199.678887,37.81 C199.843887,56.76 199.827383,88.23 199.827383,88.23 L12.271287,89.87 Z" id="Path" fill="#161616"></path>
                        <path d="M101.201875,2.10675163 C102.567813,1.49923206 104.167616,2.11405115 104.775135,3.47998851 C105.548204,5.21814374 106.106404,7.12561095 106.488228,9.19999368 L106.615017,9.92438187 C107.06997,12.6702447 107.174727,15.1159809 107.174727,19.19 C107.174727,21.0880806 105.281121,22.3782378 103.533771,21.7308049 L103.37538,21.6665726 L90.187,15.848 L93.0012622,26.0501781 C93.559222,28.0727984 91.7098936,29.9103968 89.7188165,29.3921317 L89.561373,29.3462821 L76.316,25.076 L76.316727,37.06 C76.316727,39.0543299 74.2440707,40.3440494 72.4715075,39.5161237 L72.3203638,39.4399396 L63.323,34.564 L63.323727,43.55 C63.323727,44.9895781 62.1999409,46.1666818 60.7817801,46.2519 L60.616887,46.25684 C59.1773089,46.25684 58.0002051,45.1330539 57.914987,43.7148931 L57.910047,43.55 L57.910047,30.02 C57.910047,28.0256701 59.9827032,26.7359506 61.7552664,27.5638763 L61.9064102,27.6400604 L70.903,32.515 L70.903047,21.36 C70.903047,19.5810695 72.5825529,18.3022808 74.2764831,18.7363258 L74.440401,18.7837179 L86.448,22.654 L83.4515117,11.7898219 C82.8587359,9.64099245 84.9636076,7.76166249 87.0075393,8.53373779 L87.1533936,8.59342736 L101.69,15.006 C101.617118,13.3283894 101.475707,11.9563451 101.220448,10.4947242 L101.16399,10.1800063 C100.855152,8.50214346 100.415266,6.99897587 99.8286386,5.68001149 C99.221119,4.31407414 99.8359381,2.7142712 101.201875,2.10675163 Z" id="Path" fill="#FFFFFF"></path>
                        <path d="M19.818587,45.34 C25.939287,43.12 32.421287,41.44 44.848887,38.62 L39.567887,53.83 L39.718887,71.15 L4.34628696,71.4600388 C2.90268696,71.47 0.32328696,69.55 1.55448696,61.74 C3.09348696,51.98 11.121587,48.49 19.818587,45.34 Z" id="Path" fill="#161616"></path>
                        <path d="M200.905887,85.27 L199.876887,67.05 L40.886887,69.52 L1.24388696,66.61 L0.0328869598,80.59 C-0.38531304,85.41 3.23448696,89.64 8.06648696,89.98 L41.084887,92.25 L196.648887,89.84 C199.109887,89.8 201.044887,87.73 200.905887,85.27 Z" id="Path" fill="#D8D8D8"></path>
                        <path d="M125.202887,45.26 C119.754887,46.79 115.363887,46.58 112.875887,44.64 C106.466887,39.58 110.570887,31.87 112.310887,28.85 C109.177887,32.55 106.064887,36.26 103.634887,40.31 C99.803887,46.63 98.178887,53.57 100.762887,58.02 C105.396887,66.05 116.533887,62.35 123.632887,59.12 L189.507887,29.15 L125.202887,45.26 Z" id="Path" fill="#F3F4F5"></path>
                    </g>
                    <g id="Group-6" transform="translate(284.589550, 432.153500)">
                        <path d="M188.71205,89.87 C188.91205,66.92 185.78605,52.96 165.83605,43.58 C145.88705,34.2 127.09505,16.17 92.5810496,0.71 C92.5810496,0.71 88.0380496,-0.14 80.6430496,3.86 C74.3330496,7.27 66.2270496,15.64 54.0130496,15.53 C40.7510496,15.42 28.9320496,12.61 21.5890496,8.76 C18.4170496,0.07 11.3790496,4.54747351e-13 11.3790496,4.54747351e-13 C11.3790496,4.54747351e-13 1.47004957,18.87 1.30404957,37.81 C1.13904957,56.76 1.15555332,88.23 1.15555332,88.23 L188.71205,89.87 Z" id="Path" fill="#161616"></path>
                        <path d="M96.2078012,3.47998851 C96.8153208,2.11405115 98.4151237,1.49923206 99.7810611,2.10675163 C101.146998,2.7142712 101.761818,4.31407414 101.154298,5.68001149 C100.56767,6.99897587 100.127784,8.50214346 99.8189462,10.1800063 C99.5601296,11.5861118 99.4075546,12.8856586 99.3215158,14.4161134 L99.292,15.006 L113.829543,8.59342736 C115.869009,7.69374439 118.035096,9.50217871 117.569215,11.6368246 L117.531425,11.7898219 L114.534,22.654 L126.542536,18.7837179 C128.235664,18.2379056 129.96808,19.444046 130.074702,21.1894475 L130.07989,21.36 L130.079,32.515 L139.076526,27.6400604 C140.830004,26.6899729 142.951368,27.897903 143.067869,29.850816 L143.07289,30.02 L143.07289,43.55 C143.07289,45.0449465 141.860996,46.25684 140.36605,46.25684 C138.926472,46.25684 137.749368,45.1330539 137.66415,43.7148931 L137.65921,43.55 L137.659,34.564 L128.662573,39.4399396 C126.909095,40.3900271 124.787731,39.182097 124.67123,37.229184 L124.66621,37.06 L124.666,25.076 L111.421564,29.3462821 C109.424595,29.9900433 107.509756,28.2208137 107.942585,26.2094347 L107.981674,26.0501781 L110.795,15.848 L97.6075562,21.6665726 C95.8709429,22.4326562 93.9262602,21.2208568 93.8133694,19.3608411 L93.8082096,19.19 L93.8107473,18.1628809 C93.8308219,14.3574599 93.9769963,12.0126341 94.4947085,9.19999368 C94.8765325,7.12561095 95.4347326,5.21814374 96.2078012,3.47998851 Z" id="Path" fill="#FFFFFF"></path>
                        <path d="M181.16405,45.34 C175.04405,43.12 168.56205,41.44 156.13405,38.62 L161.41505,53.83 L161.26405,71.15 L196.63705,71.4600388 C198.08005,71.47 200.66005,69.55 199.42805,61.74 C197.88905,51.98 189.86105,48.49 181.16405,45.34 Z" id="Path" fill="#161616"></path>
                        <path d="M0.00704957244,85.27 L1.03604957,67.04 L160.08205,69.52 L199.73805,66.61 L200.94905,80.59 C201.36805,85.41 197.74805,89.64 192.91605,89.97 L159.88305,92.25 L4.26404957,89.84 C1.80204957,89.8 -0.131950428,87.72 0.00704957244,85.27 Z" id="Path" fill="#D8D8D8"></path>
                        <path d="M75.6040496,43.26 C81.0520496,44.79 85.4430496,44.58 87.9310496,42.64 C94.3400496,37.58 90.2370496,29.87 88.4960496,26.85 C91.6290496,30.55 94.7420496,34.26 97.1720496,38.31 C101.00305,44.63 102.62905,51.57 100.04405,56.02 C95.4110496,64.05 84.2730496,60.35 77.1750496,57.12 L11.3000496,27.15 L75.6040496,43.26 Z" id="Path" fill="#F3F4F5"></path>
                    </g>
                    <path d="M288.8916,434.767013 L291.8916,438.312842 L294.3916,443.88486 L297.8916,449.456878 C297.8916,449.456878 326.1376,454.775622 339.8916,452.49616 C353.6456,450.216698 376.8876,443.88486 376.8876,443.88486 L374.2796,436.286654 L381.3876,428.688448 L376.8876,419.064054 C376.8876,419.064054 348.3916,425.142618 332.8916,425.142618 C317.3916,425.142618 291.8916,421.596789 291.8916,421.596789 L288.8916,434.767013 Z" id="Path" fill="#181E19"></path>
                    <path d="M245.8876,426.5035 L244.3916,423.0035 C244.3916,423.0035 214.3916,424.5035 196.3916,424.5035 C178.3916,424.5035 155.431117,417.136335 155.431117,417.136335 L148.3876,426.5035 L149.8916,436.5035 C149.8916,436.5035 165.3916,446.7735 188.3916,449.5035 C211.3916,452.2235 241.8916,449.5035 241.8916,449.5035 L241.8916,443.0035 L239.8916,435.0035 L245.8876,426.5035 Z" id="Path" fill="#181E19"></path>
                    <path d="M434.6806,74.0515 C445.8246,63.8195 455.7376,46.3155 455.7826,40.3135 C442.7026,36.9155 407.1956,30.5475 407.1936,43.8135 C407.1916,49.9995 420.7506,86.8405 434.6806,74.0515 Z" id="Path" fill="#EBBAAA"></path>
                    <path d="M422.702594,40.2913062 C422.857891,47.8479355 430.204434,58.9960393 445.160909,72.3997879 L445.673737,72.8576058 L433.047463,87.0553942 C414.348647,70.4262992 404.2103,55.2742115 403.718823,41.1235758 L403.706606,40.6816938 L422.702594,40.2913062 Z" id="Path" fill="#1C1E22"></path>
                </g>
                <g id="upper-limb" transform="translate(42.108400, 408.470009)">
                    <rect id="Rectangle" fill="#EBBAAA" fill-rule="nonzero" transform="translate(236.439272, 103.500045) scale(-1, 1) rotate(1.178261) translate(-236.439272, -103.500045) " x="195.896654" y="1" width="81.0852359" height="205.000091" rx="38.9901"></rect>
                    <path d="M374.0066,111.844991 C368.2086,105.962991 335.1886,84.8049913 311.0076,75.6329913 L249.4796,95.4029913 L159.0046,78.7599913 C130.4476,86.8489913 94.6846,106.087991 84.6956,113.294991 C77.9216,118.180991 77.4126,141.296991 85.6826,161.284991 C96.3506,187.070991 105.9996,261.887991 106.4726,284.882991 C108.0866,363.366991 96.1916,479.635991 101.5566,494.028991 C102.5756,496.764991 169.4696,502.062991 242.1106,501.139991 C291.2946,500.514991 344.4276,487.927991 381.7376,487.765991 C387.0526,401.137991 363.8056,279.829991 370.1666,220.946991 L370.4906,217.951991 C379.5736,133.887991 381.1706,119.111991 374.0066,111.844991 Z" id="Path" fill="#EDE9E6" fill-rule="nonzero"></path>
                    <path d="M219.3966,261.383991 L208.9996,234.536991 L203.8706,234.641991 L194.5876,261.894991 L201.5396,261.751991 L202.7866,257.696991 L211.1066,257.525991 L212.4436,261.526991 L219.3966,261.383991 Z M209.2456,252.014991 L204.5346,252.111991 L206.8176,244.843991 L209.2456,252.014991 Z" id="Shape" fill="#79A3F6" fill-rule="nonzero"></path>
                    <path d="M243.5336,260.887991 L237.4506,249.724991 C239.5556,248.616991 241.7876,246.252991 241.7116,242.567991 C241.6206,238.122991 238.3036,233.933991 232.3006,234.056991 L221.5876,234.277991 L222.1436,261.327991 L228.7926,261.190991 L228.5856,251.122991 L230.8266,251.076991 L235.8206,261.046991 L243.5336,260.887991 Z M235.0636,242.703991 C235.0926,244.109991 234.0556,245.461991 232.2326,245.498991 L228.4716,245.576991 L228.3586,240.105991 L232.1196,240.027991 C233.9436,239.990991 235.0346,241.298991 235.0636,242.703991 Z" id="Shape" fill="#79A3F6" fill-rule="nonzero"></path>
                    <polygon id="Path" fill="#79A3F6" fill-rule="nonzero" points="266.4686 233.354991 259.5546 233.496991 255.3826 248.709991 250.5126 233.682991 243.6356 233.823991 253.1206 260.690991 258.0596 260.588991"></polygon>
                    <polygon id="Path" fill="#79A3F6" fill-rule="nonzero" points="276.3936 260.211991 275.8376 233.161991 269.1886 233.298991 269.7446 260.348991"></polygon>
                    <path d="M211.0126,263.556991 L209.6766,259.554991 L204.2736,259.666991 L203.0266,263.720991 L191.7736,263.951991 L202.4296,232.670991 L210.3596,232.507991 L220.0666,257.575991 L219.5466,232.318991 L232.2596,232.056991 C235.7616,231.984991 238.6306,233.181991 240.6356,235.182991 C242.6196,237.161991 243.6566,239.825991 243.7116,242.525991 C243.7866,246.148991 242.0686,248.755991 240.0806,250.370991 L246.8636,262.818991 L234.5986,263.071991 L230.6706,255.228991 L230.8326,263.148991 L211.0126,263.556991 Z M230.8266,251.076991 L235.8206,261.045991 L243.5336,260.886991 L237.4506,249.723991 C237.5196,249.687991 237.5896,249.649991 237.6596,249.609991 C239.7016,248.458991 241.7856,246.129991 241.7116,242.566991 C241.6206,238.121991 238.3036,233.932991 232.3016,234.056991 L221.5876,234.276991 L222.1436,261.326991 L228.7926,261.190991 L228.5856,251.122991 L230.8266,251.076991 Z M202.7866,257.696991 L211.1066,257.525991 L212.4436,261.526991 L219.3966,261.383991 L208.9996,234.535991 L203.8706,234.641991 L194.5876,261.893991 L201.5396,261.750991 L202.7866,257.696991 Z M209.2456,252.014991 L206.8176,244.842991 L204.5346,252.111991 L209.2456,252.014991 Z M232.8796,243.249991 C232.9946,243.126991 233.0676,242.947991 233.0636,242.744991 C233.0596,242.541991 232.9796,242.365991 232.8596,242.247991 C232.7586,242.147991 232.5596,242.018991 232.1606,242.026991 L230.3996,242.063991 L230.4296,243.534991 L232.1916,243.498991 C232.5896,243.490991 232.7836,243.353991 232.8796,243.249991 Z M258.0206,231.526991 L255.2226,241.728991 L251.9566,231.651991 L240.8286,231.880991 L251.7156,262.719991 L259.5436,262.558991 L267.2746,237.521991 L267.7866,262.388991 L278.4346,262.169991 L277.7956,231.120991 L258.0206,231.526991 Z M259.5546,233.495991 L266.4686,233.353991 L258.0596,260.588991 L253.1206,260.689991 L243.6356,233.823991 L250.5126,233.681991 L255.3826,248.708991 L259.5546,233.495991 Z M275.8376,233.160991 L276.3936,260.211991 L269.7446,260.347991 L269.1886,233.297991 L275.8376,233.160991 Z M232.2326,245.498991 C234.0556,245.460991 235.0926,244.109991 235.0636,242.703991 C235.0346,241.297991 233.9436,239.989991 232.1196,240.027991 L228.3586,240.104991 L228.4716,245.575991 L232.2326,245.498991 Z" id="Shape" fill="#02076C"></path>
                    <polygon id="Path" fill="#79A3F6" fill-rule="nonzero" points="205.8266 285.668991 205.7626 282.548991 199.5836 282.675991 199.5326 280.176991 204.8106 280.067991 204.7466 276.948991 199.4676 277.057991 199.4196 274.677991 205.5976 274.550991 205.5336 271.431991 195.8556 271.630991 196.1486 285.867991"></polygon>
                    <path d="M219.5716,285.385991 L216.3696,279.510991 C217.4786,278.927991 218.6526,277.682991 218.6126,275.743991 C218.5646,273.403991 216.8196,271.199991 213.6596,271.263991 L208.0206,271.379991 L208.3136,285.616991 L211.8136,285.544991 L211.7046,280.246991 L212.8836,280.221991 L215.5126,285.468991 L219.5716,285.385991 Z M215.1136,275.815991 C215.1286,276.554991 214.5836,277.266991 213.6236,277.286991 L211.6446,277.326991 L211.5846,274.447991 L213.5646,274.406991 C214.5246,274.386991 215.0986,275.075991 215.1136,275.815991 Z" id="Shape" fill="#79A3F6" fill-rule="nonzero"></path>
                    <polygon id="Path" fill="#79A3F6" fill-rule="nonzero" points="236.5086 285.037991 236.2156 270.800991 232.7166 270.872991 232.8286 276.350991 229.1096 276.427991 228.9976 270.948991 225.4976 271.020991 225.7906 285.257991 229.2896 285.185991 229.1736 279.546991 232.8936 279.470991 233.0096 285.109991"></polygon>
                    <polygon id="Path" fill="#79A3F6" fill-rule="nonzero" points="249.0596 284.778991 248.9956 281.659991 242.8166 281.786991 242.7656 279.287991 248.0446 279.178991 247.9796 276.059991 242.7006 276.167991 242.6526 273.788991 248.8306 273.661991 248.7666 270.541991 239.0886 270.740991 239.3816 284.977991"></polygon>
                    <path d="M262.8046,284.496991 L259.6026,278.620991 C260.7116,278.037991 261.8856,276.793991 261.8456,274.853991 C261.7976,272.514991 260.0526,270.309991 256.8926,270.374991 L251.2546,270.490991 L251.5466,284.727991 L255.0466,284.655991 L254.9376,279.356991 L256.1166,279.332991 L258.7456,284.579991 L262.8046,284.496991 Z M258.3466,274.925991 C258.3616,275.665991 257.8166,276.377991 256.8566,276.396991 L254.8776,276.437991 L254.8176,273.558991 L256.7976,273.517991 C257.7576,273.497991 258.3316,274.186991 258.3466,274.925991 Z" id="Shape" fill="#79A3F6" fill-rule="nonzero"></path>
                    <path d="M276.2086,284.220991 L270.7366,270.090991 L268.0376,270.145991 L263.1516,284.489991 L266.8106,284.413991 L267.4666,282.279991 L271.8456,282.189991 L272.5496,284.295991 L276.2086,284.220991 Z M270.8656,279.289991 L268.3866,279.340991 L269.5886,275.514991 L270.8656,279.289991 Z" id="Shape" fill="#79A3F6" fill-rule="nonzero"></path>
                    <polygon id="Path" fill="#79A3F6" fill-rule="nonzero" points="282.1226 271.896991 281.0686 268.317991 277.7096 268.386991 280.1436 271.937991"></polygon>
                    <path d="M194.1896,287.907991 L193.8146,269.671991 L213.6186,269.263991 C215.6986,269.221991 217.4636,269.936991 218.7156,271.185991 C219.9456,272.413991 220.5786,274.054991 220.6126,275.701991 C220.6516,277.590991 219.9036,279.035991 218.9386,280.042991 L222.9016,287.316991 L214.2896,287.493991 L213.8346,286.585991 L213.8536,287.502991 L194.1896,287.907991 Z M211.7046,280.245991 L212.8836,280.221991 L215.5126,285.468991 L219.5716,285.384991 L216.3696,279.509991 C216.4066,279.490991 216.4436,279.470991 216.4806,279.449991 C217.5546,278.843991 218.6516,277.617991 218.6126,275.742991 C218.5646,273.403991 216.8196,271.198991 213.6596,271.263991 L208.0206,271.379991 L208.3136,285.616991 L211.8126,285.544991 L211.7046,280.245991 Z M196.1486,285.866991 L195.8556,271.629991 L205.5336,271.430991 L205.5976,274.549991 L199.4186,274.677991 L199.4676,277.056991 L204.7466,276.947991 L204.8106,280.067991 L199.5326,280.175991 L199.5836,282.675991 L205.7626,282.548991 L205.8266,285.667991 L196.1486,285.866991 Z M213.6436,277.284991 C213.6366,277.285991 213.6306,277.285991 213.6236,277.285991 L211.6436,277.326991 L211.5846,274.446991 L213.5646,274.406991 C213.5716,274.405991 213.5776,274.405991 213.5846,274.405991 C214.5326,274.395991 215.0986,275.079991 215.1136,275.814991 C215.1286,276.549991 214.5906,277.255991 213.6436,277.284991 Z M223.8326,287.297991 L223.4566,269.061991 L256.8516,268.374991 C258.9316,268.331991 260.6966,269.047991 261.9486,270.296991 C263.1796,271.523991 263.8116,273.165991 263.8456,274.812991 C263.8846,276.700991 263.1366,278.145991 262.1716,279.153991 L262.5926,279.926991 L266.5956,268.174991 L272.0956,268.061991 L279.1046,286.160991 L271.1186,286.325991 L270.4156,284.219991 L268.9536,284.249991 L268.2976,286.383991 L257.5236,286.604991 L257.0676,285.696991 L257.0866,286.613991 L223.8326,287.297991 Z M254.9376,279.356991 L256.1166,279.332991 L258.7456,284.579991 L262.8046,284.495991 L259.6026,278.620991 C259.6396,278.600991 259.6766,278.580991 259.7136,278.560991 C260.7876,277.954991 261.8846,276.728991 261.8456,274.853991 C261.7976,272.513991 260.0526,270.309991 256.8926,270.374991 L251.2536,270.490991 L251.5466,284.727991 L255.0466,284.655991 L254.9376,279.356991 Z M266.8106,284.413991 L267.4666,282.279991 L271.8456,282.189991 L272.5496,284.295991 L276.2086,284.220991 L270.7366,270.089991 L268.0376,270.145991 L263.1516,284.488991 L266.8106,284.413991 Z M269.5886,275.514991 L268.3866,279.339991 L270.8656,279.288991 L269.5886,275.514991 Z M236.5086,285.036991 L233.0086,285.108991 L232.8936,279.469991 L229.1736,279.546991 L229.2896,285.185991 L225.7906,285.256991 L225.4976,271.019991 L228.9966,270.948991 L229.1096,276.426991 L232.8286,276.350991 L232.7166,270.871991 L236.2156,270.799991 L236.5086,285.036991 Z M239.3816,284.977991 L239.0886,270.740991 L248.7666,270.541991 L248.8306,273.660991 L242.6516,273.787991 L242.7006,276.167991 L247.9796,276.058991 L248.0436,279.178991 L242.7656,279.286991 L242.8166,281.786991 L248.9956,281.659991 L249.0596,284.778991 L239.3816,284.977991 Z M256.8766,276.395991 C256.8696,276.395991 256.8636,276.396991 256.8566,276.396991 L254.8776,276.437991 L254.8176,273.557991 L256.7976,273.516991 C256.8046,273.516991 256.8106,273.516991 256.8176,273.516991 C257.7656,273.506991 258.3316,274.190991 258.3466,274.925991 C258.3616,275.660991 257.8236,276.366991 256.8766,276.395991 Z M284.7806,273.841991 L279.1046,273.958991 L273.9666,266.462991 L282.5556,266.285991 L284.7806,273.841991 Z M281.0686,268.316991 L282.1226,271.895991 L280.1436,271.936991 L277.7096,268.385991 L281.0686,268.316991 Z" id="Shape" fill="#02076C"></path>
                    <path d="M327.7576,101.531991 C327.4146,84.8349913 313.6006,71.5779913 296.9036,71.9209913 L172.9386,74.4709913 C156.2416,74.8139913 142.9846,88.6279913 143.3276,105.324991 C144.2336,149.366991 180.6706,184.334991 224.7126,183.428991 L249.6536,182.915991 C293.6946,182.010991 328.6636,145.572991 327.7576,101.531991 Z" id="Path" fill="#ECF5F9" fill-rule="nonzero"></path>
                    <path d="M303.2806,94.3359913 C303.0246,81.8899913 292.7266,72.0069913 280.2806,72.2629913 L187.5376,74.1709913 C175.0906,74.4269913 165.2086,84.7239913 165.4646,97.1709913 C166.1396,130.001991 193.3016,156.068991 226.1336,155.393991 L245.0566,155.004991 C277.8876,154.329991 303.9556,127.166991 303.2806,94.3359913 Z" id="Path" fill="#EBBAAA" fill-rule="nonzero"></path>
                    <path d="M101.0276,507.721991 C105.8036,499.070991 98.4096,480.792991 94.1156,472.734991 L208.8306,505.504991 L203.5936,551.941991 C196.7156,552.083991 175.3916,545.597991 137.2776,539.050991 C89.6346,530.866991 95.0576,518.535991 101.0276,507.721991 Z" id="Path" fill="#453138" fill-rule="nonzero"></path>
                    <g id="Clipped" transform="translate(93.891600, 472.529991)">
                        <mask id="mask-2" fill="white">
                            <use xlink:href="#path-1"></use>
                        </mask>
                        <g id="Path"></g>
                        <path d="M45.575,73.095 C50.68,60.364 42.513,32.938 37.792,20.816 L135.098,35.107 L110.522,94.67 C86.746,92.783 40.47,85.826 45.575,73.095 Z" id="Path" fill="#242830" fill-rule="nonzero" mask="url(#mask-2)"></path>
                    </g>
                    <path d="M197.1066,158.491991 C190.8256,128.276991 172.0266,119.072991 171.1096,74.5089913 C171.1096,74.5089913 170.8556,75.9289913 125.6606,87.1769913 C80.4666,98.4249913 74.3446,127.312991 74.3446,127.312991 C65.5546,145.249991 79.1186,233.706991 78.6236,335.335991 C78.1276,436.963991 70.3876,477.164991 92.1096,498.222991 C113.8316,519.279991 150.1576,509.800991 204.4376,514.915991 C204.1946,503.094991 202.8646,457.296991 202.9776,443.930991 C203.3446,400.289991 202.8266,406.496991 200.6926,332.824991 C198.8096,267.818991 206.3356,202.886991 197.1066,158.491991 Z" id="Path" fill="#282C3C" fill-rule="nonzero"></path>
                    <g id="Clipped" transform="translate(70.891600, 73.529991)">
                        <mask id="mask-4" fill="white">
                            <use xlink:href="#path-3"></use>
                        </mask>
                        <g id="Path"></g>
                        <path d="M3.8,70.975 C18.568,49.667 62.041,27.435 77.356,24.453 L83.299,42.334 C83.299,42.334 44.886,72.13 34.109,90.356 C23.332,108.581 -10.268,149.14 -4.738,222.683 C0.245,288.969 -13.585,359.393 -13.585,359.393 L-32.6155,395.292 C-40.0859,377.109 -56.1847,338.665 -60.8162,330.358 C-66.6055,319.975 -57.9011,250.282 -57.1448,237.763 C-56.3885,225.245 -17.156,101.211 3.8,70.975 Z" id="Path" fill="#492129" fill-rule="nonzero" mask="url(#mask-4)"></path>
                    </g>
                    <path d="M96.1107436,376.202846 L114.598456,380.585137 C111.346644,394.303662 107.256979,408.480674 102.8183,420.554776 L102.248602,422.088607 C96.5449384,437.285561 90.6335347,448.234616 83.8587614,454.282893 L83.5193002,454.581219 L71.0898998,440.210763 C78.9726899,433.392723 88.7600559,406.915364 95.8953394,377.107128 L96.1107436,376.202846 Z" id="Path" fill="#242830" fill-rule="nonzero"></path>
                    <path d="M39.3855816,325.772078 C57.5132545,325.399154 72.5735507,339.496902 73.5268674,357.470779 L73.5624884,358.312958 C73.5602359,358.160765 73.5624171,358.126889 73.5730213,358.184112 L73.6714807,358.844775 C73.7905422,359.608565 73.9641002,360.577974 74.1907261,361.723397 L74.4616485,363.054891 C75.0394289,365.823929 75.8319236,369.225019 76.8229425,373.181774 L77.3328592,375.198125 C79.6626755,384.327285 82.8648794,395.797912 86.794994,409.181364 L88.7689681,415.864015 C94.4012163,434.821011 100.41858,454.150923 108.118566,478.416695 C113.714478,496.051681 103.954881,514.884045 86.3198959,520.479957 C68.6849104,526.07587 49.8525467,516.316273 44.2566342,498.681287 L39.8409513,484.71892 C33.4811929,464.530871 28.2392981,447.499738 23.1826587,430.347139 L21.285832,423.877683 C11.6932321,390.976002 6.81315107,371.205412 6.58168652,359.95401 C6.20115218,341.456384 20.8879563,326.152612 39.3855816,325.772078 Z" id="Path" fill="#EBBAAA" fill-rule="nonzero"></path>
                    <path d="M439.4196,237.693991 C413.0616,141.479991 395.2136,103.407991 362.1036,95.5869913 C362.1036,95.5869913 382.1856,186.181991 383.1306,232.145991 C384.0766,278.109991 377.9656,350.083991 377.9656,350.083991 C385.8746,390.156991 359.7926,450.659991 369.8466,472.006991 C395.8036,479.136991 393.5366,492.023991 415.2896,491.576991 L438.0736,418.301991 C442.9906,394.889991 451.0516,280.155991 439.4196,237.693991 Z" id="Path" fill="#282C3C" fill-rule="nonzero"></path>
                    <g id="Clipped" transform="translate(361.891600, 95.529991)">
                        <mask id="mask-6" fill="white">
                            <use xlink:href="#path-5"></use>
                        </mask>
                        <g id="Path"></g>
                        <path d="M1.101,29.003 C-21.71,12.692 -49.476,-3.26 -63.728,-5.631 C-63.728,-5.631 -71.501,0.224 -56.2,15.219 C-43.568,27.599 -25.21,55.59 -10.968,70.301 C3.274,85.011 9.841,123.384 9.841,123.384 L-4.439,387.733 L61.771,380.871 C67.947,362.432 74.427,333.988 78.373,325.517 C83.306,314.929 76.194,174.012 75.001,161.552 C73.808,149.092 29.615,49.391 1.101,29.003 Z" id="Path" fill="#3B1A20" fill-rule="nonzero" mask="url(#mask-6)"></path>
                    </g>
                    <path d="M346.9096,490.469991 L354.4626,460.820991 C359.1646,471.173991 402.8026,470.921991 424.5396,469.491991 C421.1176,476.724991 419.7456,484.757991 415.8736,494.949991 C399.2866,502.032991 362.9866,494.913991 346.9096,490.469991 Z" id="Path" fill="#242830" fill-rule="nonzero"></path>
                    <path d="M376.0126,500.885991 C370.9756,492.587991 377.4936,474.349991 381.3826,466.267991 L270.1166,503.063991 L277.1326,548.428991 C283.8886,548.289991 304.5566,541.063991 341.6996,533.097991 C388.1286,523.141991 382.3086,511.258991 376.0126,500.885991 Z" id="Path" fill="#453138" fill-rule="nonzero"></path>
                    <g id="Clipped" transform="translate(268.891600, 465.529991)">
                        <mask id="mask-8" fill="white">
                            <use xlink:href="#path-7"></use>
                        </mask>
                        <g id="Path"></g>
                        <path d="M70.918,74.109 C65.394,61.82 72.302,34.572 76.446,22.484 L-18.48,40.44 L8.046,97.907 C31.306,95.095 76.443,86.398 70.918,74.109 Z" id="Path" fill="#242830" fill-rule="nonzero" mask="url(#mask-8)"></path>
                    </g>
                    <path d="M262.3506,174.654991 C266.8366,144.218991 293.2666,117.579991 292.3506,73.0169913 C292.3506,73.0169913 292.6156,73.4679913 333.8396,82.9379913 C375.0646,92.4079913 381.7386,121.991991 381.7386,121.991991 C390.3736,139.570991 381.5936,228.486991 386.0176,330.014991 C390.4416,431.541991 397.1356,443.439991 379.9476,470.298991 C362.7586,497.157991 323.2226,508.742991 274.4396,515.977991 C274.1966,504.156991 274.4886,501.333991 273.8636,487.983991 C271.8256,444.391991 276.7186,405.978991 275.7616,332.281991 C274.9176,267.254991 255.7596,219.375991 262.3506,174.654991 Z" id="Path" fill="#282C3C" fill-rule="nonzero"></path>
                    <path d="M348.755432,374.320785 L367.181768,369.687197 L367.591223,371.298876 C374.263116,397.294761 383.446452,420.306135 390.937087,426.52975 L391.168211,426.716865 L379.406989,441.639118 C372.20378,435.961789 366.048493,425.341798 360.178405,410.528716 C355.999873,399.984252 352.17292,387.69072 349.105921,375.702562 L348.755432,374.320785 Z" id="Path" fill="#242830" fill-rule="nonzero"></path>
                    <path d="M10.502,270.297991 C39.2883,145.177991 52.2466,112.961991 91.0356,103.661991 L81.6696,336.845991 C89.4466,370.691991 100.6026,421.231991 98.2576,454.806991 C72.6306,462.997991 53.5966,472.009991 31.8572,472.456991 L5.2103,406.430991 C-0.6617,383.241991 0.6319,313.199991 10.502,270.297991 Z" id="Path" fill="#282C3C" fill-rule="nonzero"></path>
                    <g id="Clipped" transform="translate(0.891600, 103.529991)">
                        <mask id="mask-10" fill="white">
                            <use xlink:href="#path-9"></use>
                        </mask>
                        <g id="Path"></g>
                        <path d="M73.758,38.977 C93.603,18.064 129.517,-2.012 144.832,-4.994 L116.469,341.162 L37.3423,363.294 C29.8718,345.11 13.7731,306.667 9.1416,298.36 C3.3522,287.977 12.0566,218.283 12.8129,205.765 C13.5692,193.247 48.383,65.716 73.758,38.977 Z" id="Path" fill="#3B1A20" fill-rule="nonzero" mask="url(#mask-10)"></path>
                    </g>
                    <g id="Clipped" transform="translate(260.891600, 72.529991)">
                        <mask id="mask-12" fill="white">
                            <use xlink:href="#path-11"></use>
                        </mask>
                        <g id="Path"></g>
                        <path d="M102.107,52.003 C79.296,35.692 58.448,11.096 44.196,8.726 C44.196,8.726 33.812,13.134 49.113,28.129 C61.745,40.508 75.795,78.591 90.037,93.301 C104.279,108.011 126.814,158.558 126.814,158.558 L144.197,385.249 L152.135,401.589 C158.311,383.151 163.597,350.731 167.544,342.26 C172.477,331.671 170.024,190.659 168.831,178.199 C167.638,165.738 130.621,72.391 102.107,52.003 Z" id="Path" fill="#492129" fill-rule="nonzero" mask="url(#mask-12)"></path>
                    </g>
                    <path d="M110.2126,466.838991 L99.5236,440.058991 C95.3116,452.101991 48.5806,460.552991 26.9394,459.872991 C30.6547,467.992991 31.2605,472.801991 35.5518,484.284991 C52.3296,491.653991 100.2476,475.239991 110.2126,466.838991 Z" id="Path" fill="#242830" fill-rule="nonzero"></path>
                    <path d="M158.2016,64.4999913 C143.6016,69.3579913 138.4356,89.3419913 138.6896,101.680991 C138.7746,105.783991 137.4396,114.708991 150.5686,136.943991 C163.6986,159.178991 201.6146,181.903991 203.2936,177.095991 C214.9336,143.762991 214.8296,121.846991 208.5646,112.973991 C202.2996,104.100991 192.4976,95.8009913 192.1996,81.3039913 C192.0456,73.8049913 195.0956,74.2429913 195.0856,73.7429913 L194.8796,63.7449913 C194.8386,61.7459913 172.8016,59.6409913 158.2016,64.4999913 Z" id="Path" fill="#453138" fill-rule="nonzero"></path>
                    <path d="M200.421975,173.241886 C204.394618,173.406121 207.481941,176.759724 207.317706,180.732366 L207.192769,183.884862 C206.332035,206.5579 206.060862,234.66349 206.287931,267.326526 L206.323137,271.949717 C206.539834,298.158325 207.048663,325.823247 207.800358,355.970697 L209.469327,417.680916 L209.517998,419.805992 C209.758407,429.295339 210.301494,438.065139 211.71067,457.158079 L212.578616,468.91759 L212.971135,474.477655 C215.334152,508.908941 215.342729,528.682589 211.931708,545.716564 C211.151014,549.615202 207.357665,552.142795 203.459027,551.3621 C199.560389,550.581405 197.032797,546.788056 197.813492,542.889418 L198.003974,541.912774 C201.017063,526.043304 200.817264,506.197366 198.296436,471.049643 L196.770457,450.24247 C195.794807,436.605608 195.359931,428.951235 195.142863,420.892111 L194.961142,413.564005 C194.648422,401.901506 193.797098,371.813313 193.469653,358.852401 L193.282973,351.314276 C192.617171,323.861733 192.15812,298.444697 191.943926,274.263656 L191.889713,267.417593 C191.650604,233.015143 191.961297,203.605411 192.931494,180.137616 C193.092378,176.246048 196.313779,173.204032 200.179547,173.235141 L200.421975,173.241886 Z" id="Path" fill="#242830" fill-rule="nonzero"></path>
                    <path d="M311.8826,69.1129913 C319.1026,77.4659913 322.8966,86.8899913 323.0506,94.3879913 C323.1386,98.6469913 323.5186,119.583991 314.3186,138.076991 C290.6156,168.570991 260.0456,175.456991 258.2676,173.236991 C230.6966,138.796991 251.9366,111.853991 264.9146,102.084991 C269.7746,98.4269913 275.8306,91.2989913 278.7826,86.2969913 C282.1856,79.2249913 276.5746,77.4989913 276.4476,71.3419913 L276.2836,63.3429913 C281.5216,60.5389913 304.6636,60.7589913 311.8826,69.1129913 Z" id="Path" fill="#453138" fill-rule="nonzero"></path>
                    <path d="M259.793689,170.520198 C263.756218,170.192742 267.233937,173.139551 267.561393,177.10208 L267.880915,181.033547 C273.063711,245.840554 279.040813,370.234569 280.035169,415.194867 L280.086225,417.689809 C280.272333,427.937432 280.090847,437.046933 279.439026,457.010438 L279.067307,468.41038 L278.937784,472.74929 C277.971644,506.834189 278.704915,526.040358 282.462642,541.479467 C283.40292,545.342722 281.033379,549.236755 277.170124,550.177033 C273.306869,551.117311 269.412836,548.74777 268.472558,544.884515 L268.216967,543.812424 C264.323219,527.132869 263.577182,507.482515 264.510906,473.557564 L264.949676,459.533677 C265.689726,437.212959 265.88819,427.94137 265.676257,417.222088 L265.607738,414.092287 C264.505975,367.305861 258.387004,240.912738 253.211807,178.287903 C252.884351,174.325374 255.83116,170.847654 259.793689,170.520198 Z" id="Path" fill="#242830" fill-rule="nonzero"></path>
                </g>
                <g id="hand" transform="translate(80.878900, -0.000015)">
                    <path d="M344.8951,333.909015 C378.5591,333.909015 405.8491,306.619015 405.8491,272.955015 C405.8491,239.292015 378.5591,212.002015 344.8951,212.002015 C311.2321,212.002015 283.9421,239.292015 283.9421,272.955015 C283.9421,306.619015 311.2321,333.909015 344.8951,333.909015 Z" id="Path" fill="#EBBAAA" fill-rule="nonzero"></path>
                    <path d="M60.9531,336.993015 C27.2901,336.993015 1.77635684e-13,309.703015 1.77635684e-13,276.039015 C1.77635684e-13,242.376015 27.2901,215.086015 60.9531,215.086015 C94.6171,215.086015 121.9071,242.376015 121.9071,276.039015 C121.9071,309.703015 94.6171,336.993015 60.9531,336.993015 Z" id="Path" fill="#EBBAAA" fill-rule="nonzero"></path>
                    <path d="M41.2231,167.264015 C41.2231,80.0749151 111.9041,9.3945451 199.0921,9.3945451 C286.2811,9.3945451 356.9611,80.0749151 356.9611,167.264015 L356.9611,241.827015 L354.4271,323.662015 C351.8271,407.579015 283.0491,474.260015 199.0921,474.260015 C117.9791,474.260015 50.9531,410.978015 46.2951,329.999015 L41.2231,241.827015 L41.2231,167.264015 Z" id="Path" fill="#F4D4C9" fill-rule="nonzero"></path>
                    <path d="M158.2471,358.229015 L158.2471,372.095015 C158.2471,393.395015 175.5141,410.663015 196.8141,410.663015 C218.1141,410.663015 235.3811,393.395015 235.3811,372.095015 L235.3811,358.229015 L158.2471,358.229015 Z" id="Path" fill="#393939"></path>
                    <g id="Clipped" transform="translate(158.121100, 351.000015)">
                        <mask id="mask-14" fill="white">
                            <use xlink:href="#path-13"></use>
                        </mask>
                        <g id="Path"></g>
                        <g id="Group" mask="url(#mask-14)" fill-rule="nonzero">
                            <g transform="translate(0.000000, 5.000000)">
                                <ellipse id="Oval" fill="#FF6C6C" cx="40.75" cy="55.567" rx="23.2582" ry="12.6667"></ellipse>
                                <rect id="Rectangle" fill="#FFFFFF" x="0.126" y="0.229" width="77.1347" height="15.907"></rect>
                            </g>
                        </g>
                    </g>
                    <path d="M239.6881,211.441015 L290.3311,221.166015 C291.0381,221.302015 291.6211,221.798015 291.8691,222.474015 L297.6501,238.265015 C298.2111,239.797015 296.8431,241.339015 295.2551,240.964015 L233.6591,226.423015 C230.9361,225.780015 229.6431,222.657015 231.1161,220.277015 L235.4301,213.308015 C236.3251,211.863015 238.0191,211.120015 239.6881,211.441015 Z" id="Path" fill="#393939" fill-rule="nonzero"></path>
                    <path d="M149.9031,208.879015 L100.0801,222.182015 C99.3851,222.368015 98.8381,222.905015 98.6391,223.596015 L93.9961,239.759015 C93.5451,241.327015 95.0191,242.767015 96.5771,242.280015 L156.9821,223.396015 C159.6541,222.561015 160.7211,219.353015 159.0821,217.084015 L154.2831,210.440015 C153.2881,209.062015 151.5461,208.441015 149.9031,208.879015 Z" id="Path" fill="#393939" fill-rule="nonzero"></path>
                    <path d="M254.7471,240.627015 C261.272557,240.627015 266.581493,245.835559 266.7433,252.32204 L266.7471,252.627015 L266.7471,270.627015 C266.7471,277.254432 261.374517,282.627015 254.7471,282.627015 C248.221643,282.627015 242.912707,277.418471 242.7509,270.93199 L242.7471,270.627015 L242.7471,252.627015 C242.7471,245.999598 248.119683,240.627015 254.7471,240.627015 Z" id="Path" fill="#000000" fill-rule="nonzero"></path>
                    <path d="M136.7471,240.627015 C143.272557,240.627015 148.581493,245.835559 148.7433,252.32204 L148.7471,252.627015 L148.7471,270.627015 C148.7471,277.254432 143.374517,282.627015 136.7471,282.627015 C130.221643,282.627015 124.912707,277.418471 124.7509,270.93199 L124.7471,270.627015 L124.7471,252.627015 C124.7471,245.999598 130.119683,240.627015 136.7471,240.627015 Z" id="Path" fill="#000000" fill-rule="nonzero"></path>
                    <path d="M182.14172,260.314576 L197.35248,268.935455 C191.052777,280.050709 186.183032,292.958413 185.519612,302.441708 L185.478824,303.099165 C184.978418,312.394907 188.127422,316.208647 198.510889,316.377197 L199.2471,316.383065 L199.2471,333.866965 C177.305587,333.866965 166.706959,320.824813 168.078338,301.221573 C168.942768,288.864935 174.464175,274.046934 181.73595,261.035545 L182.14172,260.314576 Z" id="Path" fill="#EBBAAA" fill-rule="nonzero"></path>
                    <g id="Group-2" transform="translate(14.121391, 0.000000)" fill-rule="nonzero">
                        <path d="M293.474709,113.783015 C290.287709,87.0283151 287.409709,67.8169151 285.284709,49.9804151 C283.779709,37.3461151 283.622709,34.1236151 319.538709,60.5969151 C355.454709,87.0702151 360.839709,145.151015 351.068709,194.517015 L340.270709,253.140015 L329.180709,250.399015 L329.471709,176.005015 C311.375709,157.789015 296.662709,140.538015 293.474709,113.783015 Z" id="Path" fill="#6E6C6C"></path>
                        <path d="M46.4637092,142.322015 C47.9467092,115.422015 44.9167092,116.806015 45.9057092,98.8726151 C46.6057092,86.1694151 50.9827092,88.9491151 28.3057092,112.242015 C15.7897092,125.098015 20.5027092,180.333015 23.1667092,216.457015 L26.3327092,249.751015 L31.3917092,250.030015 L33.6747092,208.616015 C42.6147092,179.919015 44.9807092,169.223015 46.4637092,142.322015 Z" id="Path" fill="#6E6C6C"></path>
                        <path d="M57.6707092,43.2935151 C93.9357092,6.0149251 147.391709,5.7968951 181.797709,5.7968951 C183.037709,25.1671151 187.097709,74.1044151 193.420709,114.892015 C201.324709,165.876015 144.602709,130.242015 126.004709,140.658015 C111.126709,148.991015 103.876709,181.212015 102.171709,197.293015 C97.0517092,197.293015 86.4647092,194.931015 61.1717092,199.317015 C35.8797092,203.702015 18.3687092,200.629015 12.1697092,206.293015 C6.1717092,195.293015 7.4277092,177.293015 2.6717092,153.793015 C-9.4222908,94.0391151 21.4047092,80.5721151 57.6707092,43.2935151 Z" id="Path" fill="#272727"></path>
                        <path d="M143.500709,173.297015 C138.888709,152.976015 127.024709,139.789015 120.000709,132.477015 C127.180709,99.9364151 135.028709,29.7342151 165.000709,7.7969551 C202.464709,-19.6246849 318.962709,31.2291151 343.500709,68.2968151 C367.000709,103.797015 365.859709,208.709015 355.088709,200.482015 C344.317709,192.256015 326.053709,200.482015 307.321709,194.998015 C288.589709,189.514015 221.621709,206.515015 206.636709,200.482015 C194.647709,195.656015 160.430709,198.471015 144.820709,200.482015 C146.000709,195.297015 145.680709,182.903015 143.500709,173.297015 Z" id="Path" fill="#272727"></path>
                    </g>
                </g>
            </g>
        </g>
    </g>
</svg>