<svg height="1388" viewBox="0 0 640 1388" width="640" xmlns="http://www.w3.org/2000/svg"><g fill="none"><g transform="translate(150.076 902.999628)"><path d="m23 442.000372c14-13 66.334-32 91-42l66-34 13 61v26c0 11.6-9.402 21-21 21h-149c-6.666-11.33-11.783-21.06 0-32z" fill="#c4c4c4"/><path d="m23 442.000372c14-13 66.334-32 91-42l66-34 13 61v26c0 11.6-9.402 21-21 21h-149c-6.666-11.33-11.783-21.06 0-32z" fill="#ebbaaa"/><g fill="#2e2622"><path d="m0 485.000372c0-11.05 8.954-20 20-20h177l4 20z"/><path d="m45.818 440.820372-.011.02-.047.08c-.043.08-.109.19-.194.34-.17.29-.42.72-.726 1.26-.615 1.08-1.453 2.57-2.347 4.24-1.887 3.53-3.685 7.2-4.429 9.43-.481 1.44-.534 3.1-.366 4.62.08.72.2 1.31.29 1.69.044.19.08.31.096.37.003.01.005.02.007.02 1.428 4.43-.976 9.2-5.403 10.67-4.453 1.49-9.267-.92-10.751-5.37l7.998-2.67c-7.998 2.67-7.999 2.67-8 2.66h-.002l-.003-.01-.007-.02-.017-.06c-.013-.03-.027-.08-.042-.13-.031-.1-.069-.22-.112-.37-.085-.29-.19-.68-.302-1.15-.222-.94-.478-2.22-.648-3.75-.331-2.98-.385-7.32 1.135-11.88 1.256-3.77 3.707-8.6 5.571-12.07.98-1.83 1.893-3.46 2.559-4.63.334-.59.609-1.07.801-1.4.097-.16.173-.29.226-.38l.063-.11.025-.04s.001 0 7.078 4.18l-7.077-4.18c2.388-4.05 7.6-5.39 11.642-3 4.041 2.39 5.381 7.6 2.993 11.64z"/><path d="m38.795 471.960372c.002-.01.003-.01-9.295-1.96s-9.296-1.95-9.296-1.96l.003-.01.005-.03.013-.06c.01-.04.022-.09.035-.15.027-.12.063-.27.107-.45.088-.35.213-.82.38-1.38.334-1.12.843-2.65 1.585-4.44 1.475-3.56 3.918-8.3 7.831-13.06 8.063-9.8 21.817-18.96 43.837-18.96 21.845 0 37.289 8.99 47.15 17.98 4.891 4.46 8.416 8.92 10.738 12.29 1.165 1.69 2.039 3.13 2.641 4.18.302.53.536.96.705 1.29.085.16.154.29.206.4.027.05.049.1.068.13l.024.05.011.02.004119.01c.001881.01.003881.01-8.547119 4.15-8.552 4.14-8.55 4.14-8.548 4.15h.004l.006.02.008.01h.001c-.006-.01-.027-.05-.061-.11-.069-.14-.194-.37-.377-.69-.367-.64-.962-1.62-1.797-2.84-1.677-2.44-4.277-5.73-7.887-9.02-7.138-6.51-18.195-13.02-34.349-13.02-15.981 0-24.476 6.34-29.163 12.04-2.463 2.99-4.019 6-4.95 8.25-.462 1.12-.758 2.01-.927 2.58-.085.29-.137.49-.163.59-.012.05-.018.08-.018.08l.005-.03.006-.02.003-.02z"/></g><path d="m30.204 454.470372c-1.361-8.18 4.159-15.9 12.33-17.27l18-3c8.172-1.36 15.9 4.16 17.262 12.33 1.362 8.18-4.158 15.9-12.33 17.27l-18 3c-8.171 1.36-15.9-4.16-17.262-12.33z" fill="#dcb1a3"/><path d="m415 442.000372c-14-13-66.333-32-91-42l-66-34-13 61v26c0 11.6 9.402 21 21 21h149c6.667-11.33 11.783-21.06 0-32z" fill="#c4c4c4"/><path d="m415 442.000372c-14-13-66.333-32-91-42l-66-34-13 61v26c0 11.6 9.402 21 21 21h149c6.667-11.33 11.783-21.06 0-32z" fill="#ebbaaa"/><path d="m438 485.000372c0-11.05-8.954-20-20-20h-177l-4 20z" fill="#2e2622"/><path d="m392.182 440.820372.012.02.047.08c.043.08.108.19.193.34.171.29.42.72.726 1.26.615 1.08 1.453 2.57 2.347 4.24 1.887 3.53 3.685 7.2 4.429 9.43.481 1.44.534 3.1.366 4.62-.08.72-.199 1.31-.29 1.69-.044.19-.08.31-.096.37-.003.01-.005.02-.007.02-1.428 4.43.977 9.2 5.403 10.67 4.453 1.49 9.267-.92 10.752-5.37l-7.998-2.67c7.998 2.67 7.999 2.67 7.999 2.66h.002l.003-.01.008-.02.017-.06c.012-.03.026-.08.042-.13.031-.1.068-.22.111-.37.085-.29.19-.68.302-1.15.222-.94.478-2.22.648-3.75.331-2.98.385-7.32-1.134-11.88-1.256-3.77-3.708-8.6-5.571-12.07-.981-1.83-1.893-3.46-2.56-4.63-.334-.59-.608-1.07-.801-1.4-.097-.16-.173-.29-.226-.38l-.062-.11-.026-.04s0 0-7.078 4.18l7.078-4.18c-2.388-4.05-7.601-5.39-11.642-3-4.042 2.39-5.382 7.6-2.994 11.64z" fill="#2e2622"/><path d="m399.205 471.960372c-.001-.01-.002-.01 9.296-1.96 9.297-1.95 9.295-1.95 9.295-1.96l-.002-.01-.006-.03-.013-.06c-.01-.04-.021-.09-.035-.15-.027-.12-.062-.27-.107-.45-.088-.35-.212-.82-.38-1.38-.334-1.12-.843-2.65-1.584-4.44-1.476-3.56-3.919-8.3-7.832-13.06-8.063-9.8-21.817-18.96-43.836-18.96-21.846 0-37.289 8.99-47.151 17.98-4.891 4.46-8.416 8.92-10.738 12.29-1.165 1.69-2.039 3.13-2.641 4.18-.301.53-.536.96-.705 1.29-.085.16-.153.29-.206.4-.026.05-.049.1-.067.13l-.025.05-.01.02-.005119.01c-.001881.01-.003881.01 8.548119 4.15 8.551 4.14 8.549 4.14 8.547 4.15h-.003l-.006.02-.009.01h-.001c.007-.01.027-.05.061-.11.069-.14.195-.37.378-.69.366-.64.961-1.62 1.796-2.84 1.678-2.44 4.278-5.73 7.887-9.02 7.139-6.51 18.195-13.02 34.35-13.02 15.98 0 24.476 6.34 29.163 12.04 2.462 2.99 4.019 6 4.95 8.25.461 1.12.757 2.01.927 2.58.084.29.137.49.162.59.013.05.019.08.018.08l-.005-.03-.005-.02-.004-.02z" fill="#2e2622"/><path d="m407.796 454.470372c1.362-8.18-4.158-15.9-12.33-17.27l-18-3c-8.172-1.36-15.9 4.16-17.262 12.33-1.362 8.18 4.158 15.9 12.33 17.27l18 3c8.172 1.36 15.9-4.16 17.262-12.33z" fill="#dcb1a3"/><path d="m278.459 57.8183718c20.503-4.242 40.562 8.94 44.804 29.443 6.946 33.5690002 11.028 94.9690002 11.544 157.7090002.518 63.15-2.536 132.35-11.343 181.89-3.664 20.61-23.346 34.35-43.96 30.69-20.614-3.67-34.354-23.35-30.689-43.96 7.586-42.68 10.68-106.41 10.174-167.99-.509-61.99-4.624-117.12-9.973-142.98-4.242-20.5010002 8.94-40.5600002 29.443-44.8020002z" fill="#ebbaaa"/><path d="m136.533 56.6093718c-20.604-3.719-40.322 9.969-44.041 30.573-10.431 57.7880002-7.201 127.8980002-.223 189.9980002 7.057 62.81 18.344 120.62 25.638 155.01 4.344 20.48 24.47 33.56 44.951 29.21 20.481-4.34 33.563-24.47 29.218-44.95-7.05-33.24-17.792-88.37-24.461-147.73-6.749-60.07-8.943-121.35-.509-168.07 3.719-20.6030002-9.968-40.3210002-30.573-44.0410002z" fill="#ebbaaa"/><path d="m54.369 35.7423718h154.430741l-10.775741 328.0000002-163.911-20.056813z" fill="#928057"/><path d="m29.924 361.000372 2-22 169 13-2 22z" fill="#89764b"/><ellipse cx="208.363" cy="55.866372" fill="#928057" rx="116.371" ry="55.1229"/><path d="m203.148 35.7423718h159.359l17.847 302.0323612-150.003 23.967639z" fill="#928057"/><path d="m384 357.650762-1-21.486328-155.076 12.835938 2 22z" fill="#89764b"/></g><g transform="translate(0 436)"><path d="m524.312 163.858c18.332-10.767 41.921-4.634 52.688 13.698 1.762 3 3.553 6.033 5.359 9.091 9.808 16.609 20.048 33.951 28.39 50.641 9.898 19.803 18.831 41.889 21.565 65.114 2.872 24.389-1.19 49.402-16.041 73.136-14.272 22.808-36.772 41.663-65.905 58.025-18.537 10.411-42.003 3.824-52.414-14.713-10.411-18.536-3.824-42.003 14.713-52.414 22.502-12.637 33.254-23.609 38.341-31.738 4.507-7.203 5.911-14.238 4.845-23.294-1.204-10.219-5.613-22.975-13.97-39.694-7.031-14.066-15.649-28.674-25.487-45.349-1.884-3.192-3.812-6.46-5.782-9.814-10.767-18.332-4.634-41.921 13.698-52.689z" fill="#ebbaaa"/><path d="m256.965 78.481c19.589 10.765 26.742 35.372 15.977 54.961-9.213 16.764-19.564 32.982-29.288 48.216-2.728 4.274-5.406 8.471-7.996 12.58-12.211 19.372-23.662 38.601-33.741 60.732-19.773 43.414-30.192 50.887-30.192 143.059 0 22.351-18.119 40.471-40.471 40.471s-40.472-18.12-40.472-40.471c0-102.502 12.411-121.583 37.472-176.608 12.337-27.088 26.058-49.926 38.927-70.343 3.151-4.998 6.192-9.766 9.135-14.38 9.442-14.802 17.878-28.025 25.689-42.239 10.764-19.589 35.371-26.742 54.96-15.978z" fill="#ebbaaa"/><g fill="#3c4356"><path d="m205.757 68.285c40.101-38.121 104.8-31.269 136.027 14.404 29.12 42.593 16.453 100.906-27.714 127.577l-117.382 70.885-114.053-95.821z"/><path d="m527.141848 74.3614514c-36.625-41.471-107.332145-43.6683207-142.421145-.8903207-32.722 39.8920003-19.526855 102.4713203 22.147145 132.8913203l110.757 80.846 121.97-85.517z"/><path d="m207.413 149.71c3.301-58.644 51.288-104.806 110.016-105.832l78.011-1.361c61.425-1.072 112.279 47.473 114.06 108.881l4.505 155.325 1.926 196.279s-102.855 6-160.855 6-159.134-6-159.134-6l2.328-190.821z"/></g><path d="m390.286254 229.868727c-1.113336-2.134535-2.792775-3.173457-5.142095-3.173457h-20.757033c-.422843.000659-.82383-.187982-1.093178-.514277s-.378838-.756058-.298495-1.171628l6.510178-33.821905c.109806-.465065.176137-.939349.198135-1.416719-.009449-3.074242-2.599421-5.770741-5.552583-5.770741h-.792543c-1.415267.217864-2.700381.951052-3.608904 2.058966l-.306639.406128-40.297044 53.259318c-1.35123 1.731337-1.522725 4.108627-.434012 6.016345 1.002814 1.921238 2.976873 3.137719 5.142095 3.168731l20.757033.113338c.416076.002265.810075.187698 1.077248.507s.380446.740117.309705 1.150566l-6.604527 38.539636c-.410947 2.64695.999963 5.241461 3.443787 6.332749l.05661.028334c.719943.314618 1.503705.455356 2.288001.410849 1.669999 0 3.17961-.807532 4.358985-2.361206l40.278285-57.684202c1.382623-1.739682 1.567597-4.146843.467034-6.077738z" fill="#46547a"/><circle cx="353.526" cy="77.971" fill="#212737" r="70.7471" transform="matrix(.9998477 -.01745241 .01745241 .9998477 -1.306938 6.181755)"/><rect fill="#ebbaaa" height="122.831" rx="46.996" transform="matrix(.9998477 -.01745241 .01745241 .9998477 -1.042654 6.185553)" width="93.9921" x="306.879691" y="1.415452"/><path d="m548.319 448.758c3.116 12.046-21.065 28.719-54.009 37.239-32.943 8.519-62.175 5.66-65.291-6.386-3.937-4.207-8.138-33.071-2.317-38.345 9.316-8.44 33.748-2.553 54.024-7.797 20.275-5.244 39.581-21.017 51.821-18.152 8.634 5.841 14.506 28.544 15.772 33.441z" fill="#c5585c"/><ellipse cx="480.166" cy="433.139" fill="#ff6766" rx="56.5547" ry="22.5299" transform="matrix(.96814764 -.25038 .25038 .96814764 -93.154924 134.020464)"/><path d="m451.695 392.191c-.879-8.308 4.457-16.006 12.545-18.098 7.844-2.029 16.023 1.81 19.474 9.14l12.364 26.26c5.81 12.34-1.034 26.922-14.238 30.337-12.869 3.328-25.688-5.558-27.088-18.776z" fill="#c5585c"/><circle cx="464.608" cy="371.148" fill="#ff6766" r="35.864" transform="matrix(.96814764 -.25038 .25038 .96814764 -78.129177 128.150492)"/><circle cx="516.807" cy="395.789" fill="#ebbaaa" r="43.0445" transform="matrix(.9998477 -.01745241 .01745241 .9998477 -6.828758 9.079806)"/><path d="m34.024906 335.590801h271.220816v184.823874h-271.220816z" fill="#c5ced2" transform="matrix(-.97029566 -.24192217 -.24192217 .97029566 437.775072 53.752082)"/><path d="m19.256906 342.673801h271.220816v184.823874h-271.220816z" fill="#d4dde1" transform="matrix(-.97029566 -.24192217 -.24192217 .97029566 410.391281 50.389771)"/><path d="m325.586 392.803c.731-2.93-1.052-5.898-3.983-6.629l-90.211-22.492c-1.506-.375-3.1-.093-4.386.776l-32.492 21.973c-1.286.869-2.881 1.152-4.387.776l-137.5029-34.283c-2.9303-.731-5.8981 1.052-6.6287 3.982l-34.9237 140.072c-.7306 2.93 1.0526 5.898 3.9829 6.628l261.0424 65.084c2.93.73 5.898-1.05 6.628-3.98z" fill="#7193b1"/><path d="m152.46 262.47c21.28 6.84 32.986 29.635 26.146 50.915-12.27 38.172-12.055 66.949-10.993 86.55.976 18.011 4.985 25.864 5.662 27.189.108.212.131.256.042.148 14.209 17.254 11.741 42.76-5.513 56.97-17.254 14.209-42.76 11.74-56.97-5.514-14.645-17.783-22.428-44.561-24.0456-74.413-1.6879-31.149.027-69.872 14.7566-115.7 6.84-21.279 29.636-32.985 50.915-26.145z" fill="#ebbaaa"/></g><g transform="translate(128.8372 .4347)"><ellipse cx="59.4978" cy="308.8463" fill="#ebbaaa" rx="59.4978" ry="56.4354"/><ellipse cx="390.6098" cy="313.2223" fill="#ebbaaa" rx="59.4978" ry="56.4354"/><path d="m54.7648 203.7423c-5.135-98.159 73.071-180.562 171.364-180.562 98.699 0 177.054 83.058 171.308 181.59l-8.172 140.11c-5.067 86.879-76.998 154.737-164.025 154.737-86.883 0-158.558-68.023-163.096-154.788z" fill="#eed4cc"/><path d="m201.637042 395.928917c27.364883 12.074356 61.201416 14.5502 95.742091 6.439681 4.03246-.946865 6.533829-4.983405 5.586965-9.015865-.946865-4.032461-4.983405-6.53383-9.015865-5.586965-31.461091 7.3874-61.973605 5.154777-86.25791-5.560319-3.789631-1.67212-8.217255.044462-9.889374 3.834093-1.67212 3.789631.044462 8.217255 3.834093 9.889375z" fill="#c99584" transform="matrix(.93358043 -.35836795 .35836795 .93358043 -124.69784 115.841909)"/><path d="m186.8238 214.3463-65.359-7.219c-.626-.069-1.25.154-1.69.605l-12.815 13.119c-1.216 1.244-.425 3.342 1.31 3.475l80.324 6.143c2.897.222 5.099-2.559 4.218-5.328l-2.532-7.963c-.491-1.544-1.845-2.654-3.456-2.832z" fill="#393939"/><path d="m259.7348 213.7003 65.475-6.077c.628-.059 1.248.175 1.68.634l12.584 13.34c1.194 1.266.367 3.35-1.37 3.452l-80.419 4.741c-2.901.17-5.054-2.648-4.125-5.402l2.67-7.917c.518-1.535 1.892-2.621 3.505-2.771z" fill="#393939"/><path d="m163.5298 251.6083c6.791 0 12.295 5.504 12.295 12.295v28.963c0 6.79-5.505 12.295-12.295 12.295-6.791 0-12.295-5.505-12.295-12.296v-28.962c0-6.791 5.505-12.296 12.295-12.295z" fill="#000"/><path d="m288.2748 251.6083c6.791 0 12.295 5.504 12.295 12.295v28.963c0 6.79-5.505 12.295-12.295 12.295-6.791 0-12.295-5.505-12.295-12.296v-28.962c0-6.791 5.505-12.296 12.295-12.295z" fill="#000"/><path d="m207.3758 302.1123c2.188-5.93 3.619-9.907 3.968-12.45l17.256 2.368c-.634 4.618-2.752 10.349-4.56 15.239-.109.294-.216.584-.322.871-2.078 5.634-3.987 10.913-4.913 15.59-.986 4.98-.383 7.079.043 7.746 0 0 .001.001.002.003.055.093 1.117 1.888 7.824 1.888v17.418c-9.579 0-17.881-2.692-22.507-9.935-4.223-6.615-3.63-14.535-2.448-20.503 1.239-6.258 3.668-12.843 5.645-18.203z" fill="#ebbaaa"/><path d="m342.6608 138.1773c-3.34-28.03-6.354-48.1573-8.581-66.844-1.577-13.2365-1.741-16.6126 35.887 11.1226 37.628 27.7354 43.269 88.5844 33.033 140.3044l-9.476 59.367-11.618-2.872-1.533-75.89c-18.959-19.084-34.372-37.158-37.712-65.188z" fill="#6e6c6c"/><path d="m79.5658 168.0743c1.554-28.183-1.621-26.732-.585-45.521.734-13.308 5.32-10.396-18.438 14.007-13.113 13.469-8.176 71.337-5.385 109.183l3.317 34.881 5.3.292 2.393-43.388c9.366-30.065 11.844-41.271 13.398-69.454z" fill="#6e6c6c"/><path d="m230.2398 6.27502h-.001c-.079 0-.159 0-.239 0-.079 0-.159 0-.238 0h-.001c-50.816.17651-172.487 28.35138-177.059 160.20628 13.511-16.242 34.378-23.327 52.912-33.926 39.016-22.312 65.666-23.99 117.147-23.99 51.48 0 87.388 9.58 117.48 23.99 26.918 12.891 40.272 14.713 66.581 33.926-4.573-131.8546-125.769-160.02976-176.582-160.20628z" fill="#282c35"/><path d="m97.9318 46.1804-10.429 37.0461 137.469-21.2894 157.104 28.7195-.331-15.243-11.207-4.6583-.26-11.9766-14.127.3071-.402-18.5094-18.163.3948-4.344-14.0665-16.146.3509-9.893-13.9458-16.555 4.717-5.235-8.6006-17.154.3729-.213-9.7991-22.996 10.3035-6.267-9.66743-9.878 10.01843-10.304-9.57976-18.959 10.21586-12.322-9.53592-12.905 10.08422-9.081.1974-9.902 8.9296-4.225-8.6225-16.752 18.8822-11.194-4.1139-14.171 21.5494z" fill="#282c35"/><path d="m207.4878 286.2193c0 30.184-24.469 54.653-54.654 54.653-30.184 0-54.653-24.469-54.653-54.653 0-30.185 24.469-54.654 54.653-54.654 30.185 0 54.654 24.469 54.654 54.654z" fill="#fff" fill-opacity=".35"/><path d="m152.8338 340.8723c-30.184 0-54.653-24.469-54.653-54.653 0-30.185 24.469-54.654 54.653-54.654 30.185 0 54.654 24.469 54.654 54.654 0 30.184-24.469 54.653-54.654 54.653zm0-10c24.662 0 44.654-19.992 44.654-44.653 0-24.662-19.992-44.654-44.654-44.654-24.661 0-44.653 19.992-44.653 44.654 0 24.661 19.992 44.653 44.653 44.653z" fill="#2e2622"/><path d="m343.2678 288.7813c0 30.184-24.469 54.653-54.654 54.653-30.184 0-54.653-24.469-54.653-54.653 0-30.185 24.469-54.654 54.653-54.654 30.185 0 54.654 24.469 54.654 54.654z" fill="#fff" fill-opacity=".35"/><g fill="#2e2622"><path d="m288.6138 343.4343c-30.184 0-54.653-24.469-54.653-54.653 0-30.185 24.469-54.654 54.653-54.654 30.185 0 54.654 24.469 54.654 54.654 0 30.184-24.469 54.653-54.654 54.653zm0-10c24.662 0 44.654-19.992 44.654-44.653 0-24.662-19.992-44.654-44.654-44.654-24.661 0-44.653 19.992-44.653 44.654 0 24.661 19.992 44.653 44.653 44.653z"/><path d="m232.2458 287.4943c-2.154-1.125-5.849-2.429-11.522-2.429-5.674 0-9.495 1.305-11.787 2.461-1.157.584-1.954 1.145-2.42 1.515-.234.185-.385.322-.457.39-.02.019-.034.033-.041.04-1.857 1.99-4.973 2.131-7.003.301-2.051-1.849-2.214-5.01-.365-7.061l3.678 3.316c-3.678-3.316-3.676-3.318-3.674-3.321l.004-.004.008-.01.019-.02c.013-.015.028-.031.044-.048.033-.035.071-.075.116-.121.088-.091.201-.202.338-.332.274-.26.646-.591 1.121-.967.952-.754 2.316-1.692 4.128-2.606 3.65-1.841 9.009-3.533 16.291-3.533 7.283 0 12.567 1.693 16.151 3.565 1.779.928 3.106 1.884 4.031 2.658.462.387.823.728 1.09.998.133.135.243.252.33.348.043.048.081.09.113.127.017.019.031.036.045.052l.019.022.008.011.005.005c.002.002.004.005-3.786 3.166l3.79-3.161c1.769 2.12 1.484 5.273-.637 7.042-2.093 1.746-5.193 1.491-6.974-.556-.006-.006-.014-.015-.025-.026-.057-.058-.188-.185-.397-.36-.417-.35-1.15-.892-2.241-1.462z"/></g></g></g></svg>