<?xml version="1.0" encoding="UTF-8"?>
<svg width="584px" height="1322px" viewBox="0 0 584 1322" version="1.1" xmlns="http://www.w3.org/2000/svg" xmlns:xlink="http://www.w3.org/1999/xlink">
    <!-- Generator: Sketch 55.2 (78181) - https://sketchapp.com -->
    <title>gee_me_038</title>
    <desc>Created with Sketch.</desc>
    <defs>
        <path d="M12.589,102.082 C15.52,62.363 37.263,17.415 70.792,0.681 C95.516,0.681 104.251,0.681 121.749,0.681 L196.643,0.681 C213.827,0.681 232.658,0.681 246.07,3.337 C282.508,21.106 306.101,66.871 306.101,110.139 L306.101,260.473 L306.101,475.9 L0.899,465.745 L0.899,260.473 L12.589,102.082 Z" id="path-1"></path>
        <path d="M419.101,230.269 L419.101,264.473 L419.101,472.899 L113.9,462.745 L113.899,264.473 L116.574,228.222 L110.262,231.885 L0.5966,136.435 L122.739,24.315 C146.376,2.617 178.218,-3.439 206.398,4.681 C209.955,4.681 213.193,4.681 216.375,4.681 L234.749,4.681 L309.643,4.681 C321.933,4.681 335.066,4.681 346.456,5.653 C379.513,-6.341 418.442,2.162 443.179,31.178 L550.747,157.348 L430.266,238.721 L419.101,230.269 Z" id="path-3"></path>
    </defs>
    <g id="GEE!-ME" stroke="none" stroke-width="1" fill="none" fill-rule="evenodd">
        <g id="gee_me_038" transform="translate(-308.000000, -139.000000)">
            <g transform="translate(308.000000, 139.000000)">
                <g id="lower-limb" transform="translate(88.753184, 805.029000)">
                    <path d="M197.907816,123.813 C263.339816,123.813 316.382816,100.146 316.382816,70.951 C316.382816,41.756 263.339816,18.089 197.907816,18.089 C132.475816,18.089 79.4328161,41.756 79.4328161,70.951 C79.4328161,100.146 132.475816,123.813 197.907816,123.813 Z" id="Path" fill="#445A73" fill-rule="nonzero"></path>
                    <path d="M271.194576,244.646141 C286.271459,243.221148 299.665866,254.163271 301.328882,269.159108 L301.375675,269.61476 L316.763675,432.42476 C318.203062,447.653934 307.02423,461.166473 291.795056,462.605859 C276.718174,464.030852 263.323766,453.088729 261.66075,438.092892 L261.613957,437.63724 L246.225957,274.82724 C244.78657,259.598066 255.965402,246.085527 271.194576,244.646141 Z" id="Path" fill="#EBBAAA" fill-rule="nonzero"></path>
                    <path d="M149.673816,244.03325 C164.817891,244.03325 177.123262,256.187181 177.367855,271.272967 L177.371566,271.731 L177.371566,421.511 C177.371566,436.808045 164.970861,449.20875 149.673816,449.20875 C134.529742,449.20875 122.22437,437.054819 121.979777,421.969033 L121.976066,421.511 L121.976066,271.731 C121.976066,256.433955 134.376771,244.03325 149.673816,244.03325 Z" id="Path" fill="#EBBAAA" fill-rule="nonzero"></path>
                    <polygon id="Path" fill="#445A73" fill-rule="nonzero" points="65.5548161 11.801 229.779816 2.27373675e-13 193.784816 353.381 190.707816 386.721 112.230816 382.851 83.3558161 305.271"></polygon>
                    <polygon id="Path" fill="#445A73" fill-rule="nonzero" points="202.724816 17.619 356.428816 17.619 341.807816 321.311 325.092816 379.961 244.564816 386.241 239.947816 358.701"></polygon>
                    <polygon id="Path" fill="#FFFFFF" opacity="0.2" points="78.1348161 121.813 105.279816 45.771 121.215816 51.69 94.0708161 121.813"></polygon>
                    <polygon id="Path" fill="#FFFFFF" opacity="0.2" points="346.762816 121.813 319.618816 45.771 303.681816 51.69 330.826816 121.813"></polygon>
                    <path d="M12.2718161,513.721 C12.0718161,490.771 15.1978161,476.811 35.1468161,467.441 C55.0968161,458.061 73.8878161,440.031 108.401816,424.571 C108.401816,424.571 112.944816,423.711 120.339816,427.711 C126.650816,431.121 134.756816,439.501 146.969816,439.391 C160.232816,439.271 172.050816,436.461 179.393816,432.611 C182.566816,423.921 189.603816,423.861 189.603816,423.861 C189.603816,423.861 199.513816,442.721 199.678816,461.671 C199.843816,480.621 199.828238,512.091 199.828238,512.091 L12.2718161,513.721 Z" id="Path" fill="#DCE1E6" fill-rule="nonzero"></path>
                    <path d="M101.203229,425.957563 C102.56927,425.350278 104.168968,425.965371 104.776253,427.331413 C105.551186,429.074564 106.11007,430.98884 106.491781,433.071715 C107.051507,436.125962 107.174656,438.628468 107.174656,443.051 C107.174656,444.949103 105.281009,446.239261 103.533651,445.591787 L103.37526,445.527551 L90.188,439.709 L93.0021914,449.911178 C93.5603168,451.934399 91.7098034,453.772218 89.7184224,453.252792 L89.5609568,453.206848 L76.316,448.929 L76.3166561,460.911 C76.3166561,462.90533 74.2439999,464.195049 72.4714367,463.367124 L72.3202929,463.29094 L63.323,458.415 L63.3236561,467.411 C63.3236561,468.850578 62.1998701,470.027682 60.7817093,470.1129 L60.6168161,470.11784 C59.1772381,470.11784 58.0001343,468.994054 57.9149162,467.575893 L57.9099761,467.411 L57.9099761,453.871 C57.9099761,451.87667 59.9826324,450.586951 61.7551956,451.414876 L61.9063393,451.49106 L70.902,456.365 L70.9029761,445.211 C70.9029761,443.431495 72.5834913,442.152625 74.27773,442.587661 L74.4416755,442.635152 L86.449,446.513 L83.4524409,435.650822 C82.8596585,433.501969 84.9645793,431.622633 87.0085178,432.394756 L87.1543725,432.454449 L101.69,438.867 C101.617729,437.194505 101.476994,435.823103 101.222967,434.362156 L101.166782,434.047583 C100.892229,432.549434 100.513634,431.190707 100.019934,429.978348 L99.8293792,429.530587 C99.2220938,428.164546 99.8371872,426.564848 101.203229,425.957563 Z" id="Path" fill="#FFFFFF" fill-rule="nonzero"></path>
                    <path d="M71.0988161,462.071 L127.461816,432.041 C127.461816,432.041 131.956816,435.241 134.739816,436.631 C137.523816,438.021 141.768816,439.281 141.768816,439.281 L77.6818161,474.431 C69.2138161,478.941 62.8298161,486.561 59.8758161,495.691 L58.4528161,500.091 L45.1318161,495.781 L46.5558161,491.381 C50.6268161,478.801 59.4268161,468.291 71.0988161,462.071 Z" id="Path" fill="#363636"></path>
                    <path d="M19.8188161,469.191 C25.9398161,466.971 32.4218161,465.291 44.8488161,462.481 L39.5678161,477.681 L39.7188161,495.011 L4.34651614,495.311153 C2.90291614,495.331 0.323516139,493.401 1.55471614,485.591 C3.09371614,475.841 11.1218161,472.351 19.8188161,469.191 Z" id="Path" fill="#EAF4FB" fill-rule="nonzero"></path>
                    <path d="M200.419816,509.131 L199.392816,490.901 L40.7878161,493.371 L1.24081614,490.471 L0.0327161394,504.441 C-0.384283861,509.271 3.23441614,513.501 8.06491614,513.831 L40.9858161,516.111 L196.162816,513.701 C198.623816,513.661 200.558816,511.591 200.419816,509.131 Z" id="Path" fill="#363636" fill-rule="nonzero"></path>
                    <path d="M193.496816,435.621 C189.644816,440.851 175.752816,443.981 170.525816,444.751 C165.298816,445.511 159.698816,444.841 161.939816,453.491 C163.524816,459.601 178.754816,457.131 184.709816,457.081 C189.551816,457.031 196.341816,471.661 198.869816,466.701 C198.869816,449.701 195.662816,440.491 193.496816,435.621 Z" id="Path" fill="#363636" fill-rule="nonzero"></path>
                    <path d="M428.266816,513.721 C428.466816,490.771 425.340816,476.811 405.390816,467.441 C385.441816,458.061 366.649816,440.031 332.136816,424.571 C332.136816,424.571 327.593816,423.711 320.198816,427.711 C313.887816,431.121 305.781816,439.501 293.568816,439.391 C280.305816,439.271 268.486816,436.461 261.144816,432.611 C257.971816,423.921 250.934816,423.861 250.934816,423.861 C250.934816,423.861 241.024816,442.721 240.859816,461.671 C240.693816,480.621 240.710325,512.091 240.710325,512.091 L428.266816,513.721 Z" id="Path" fill="#DCE1E6" fill-rule="nonzero"></path>
                    <path d="M335.762379,427.331413 C336.369665,425.965371 337.969362,425.350278 339.335404,425.957563 C340.701445,426.564848 341.316538,428.164546 340.709253,429.530587 C340.121273,430.853204 339.680722,432.362165 339.37185,434.047583 C339.114284,435.45304 338.96244,436.752007 338.876811,438.281397 L338.847,438.867 L353.38426,432.454449 C355.42373,431.554715 357.589867,433.363154 357.123982,435.497823 L357.086191,435.650822 L354.09,446.512 L366.095912,442.635167 C367.78931,442.088258 369.522778,443.29443 369.629466,445.040392 L369.634656,445.211 L369.634,456.366 L378.631293,451.49106 C380.384771,450.540973 382.506135,451.748903 382.622636,453.701816 L382.627656,453.871 L382.627656,467.411 C382.627656,468.905946 381.415763,470.11784 379.920816,470.11784 C378.481238,470.11784 377.304134,468.994054 377.218916,467.575893 L377.213976,467.411 L377.213,458.416 L368.217339,463.29094 C366.463861,464.241027 364.342497,463.033097 364.225997,461.080184 L364.220976,460.911 L364.22,448.929 L350.97772,453.206833 C348.979173,453.852294 347.061891,452.080132 347.498198,450.066511 L347.536441,449.911178 L350.35,439.709 L337.163372,445.527551 C335.426754,446.293678 333.482029,445.08188 333.369136,443.221843 L333.363976,443.051 L333.369838,441.537562 C333.399819,438.019922 333.554292,435.759453 334.046851,433.071715 C334.428562,430.98884 334.987447,429.074564 335.762379,427.331413 Z" id="Path" fill="#FFFFFF" fill-rule="nonzero"></path>
                    <path d="M369.439816,462.071 L313.076816,432.041 C313.076816,432.041 308.581816,435.241 305.797816,436.631 C303.014816,438.021 298.769816,439.281 298.769816,439.281 L362.856816,474.431 C371.324816,478.941 377.708816,486.561 380.661816,495.691 L382.085816,500.091 L395.405816,495.781 L393.982816,491.381 C389.911816,478.801 381.111816,468.291 369.439816,462.071 Z" id="Path" fill="#363636"></path>
                    <path d="M420.719816,469.191 C414.598816,466.971 408.116816,465.291 395.689816,462.481 L400.970816,477.681 L400.819816,495.011 L436.191816,495.311153 C437.635816,495.331 440.214816,493.401 438.983816,485.591 C437.444816,475.841 429.416816,472.351 420.719816,469.191 Z" id="Path" fill="#EAF4FB" fill-rule="nonzero"></path>
                    <path d="M240.118816,509.131 L241.145816,490.901 L399.750816,493.371 L439.297816,490.471 L440.505816,504.441 C440.922816,509.271 437.303816,513.501 432.473816,513.831 L399.552816,516.111 L244.374816,513.701 C241.914816,513.661 239.979816,511.591 240.118816,509.131 Z" id="Path" fill="#363636" fill-rule="nonzero"></path>
                    <path d="M247.040816,435.621 C250.893816,440.851 264.785816,443.981 270.012816,444.751 C275.238816,445.511 280.839816,444.841 278.598816,453.491 C277.013816,459.601 261.783816,457.131 255.828816,457.081 C250.986816,457.031 244.196816,471.661 241.668816,466.701 C241.668816,449.701 244.875816,440.491 247.040816,435.621 Z" id="Path" fill="#363636" fill-rule="nonzero"></path>
                    <polygon id="Path" fill="#7F9AB9" fill-rule="nonzero" points="197.798816 358.571 99.6758161 358.571 108.779816 402.091 195.775816 402.091"></polygon>
                    <polygon id="Path" fill="#7F9AB9" fill-rule="nonzero" points="236.605816 358.571 334.728816 358.571 325.624816 402.091 238.628816 402.091"></polygon>
                    <path d="M86.2574073,126.620238 L86.9063605,134.593874 L90.8931782,134.269397 L90.244225,126.295762 L86.2574073,126.620238 Z M87.5553137,142.567509 L88.2042669,150.541144 L92.1910845,150.216668 L91.5421314,142.243032 L87.5553137,142.567509 Z M88.8532201,158.514779 L89.5021733,166.488415 L93.4889909,166.163938 L92.8400377,158.190303 L88.8532201,158.514779 Z M90.1511265,174.46205 L90.8000797,182.435685 L94.7868973,182.111209 L94.1379441,174.137573 L90.1511265,174.46205 Z M91.4490329,190.409321 L92.0979861,198.382956 L96.0848037,198.058479 L95.4358505,190.084844 L91.4490329,190.409321 Z M92.7469393,206.356591 L93.3958925,214.330226 L97.3827101,214.00575 L96.7337569,206.032115 L92.7469393,206.356591 Z M94.0448456,222.303862 L94.6937988,230.277497 L98.6806165,229.95302 L98.0316633,221.979385 L94.0448456,222.303862 Z M95.342752,238.251132 L95.9917052,246.224768 L99.9785229,245.900291 L99.3295697,237.926656 L95.342752,238.251132 Z M96.6406584,254.198403 L97.2896116,262.172038 L101.276429,261.847562 L100.627476,253.873926 L96.6406584,254.198403 Z M97.9385648,270.145674 L98.587518,278.119309 L102.574336,277.794832 L101.925382,269.821197 L97.9385648,270.145674 Z M99.2364712,286.092944 L99.8854244,294.066579 L103.872242,293.742103 L103.223289,285.768468 L99.2364712,286.092944 Z M100.958337,302.333597 L103.032057,310.060154 L106.895336,309.023294 L104.821616,301.296737 L100.958337,302.333597 Z M105.105778,317.786711 L107.179498,325.513268 L111.042777,324.476408 L108.969056,316.749851 L105.105778,317.786711 Z M109.253219,333.239825 L111.326939,340.966382 L115.190218,339.929522 L113.116497,332.202965 L109.253219,333.239825 Z M113.40066,348.692939 L115.47438,356.419496 L119.337659,355.382636 L117.263938,347.656079 L113.40066,348.692939 Z" id="Path" fill="#697B8F" fill-rule="nonzero"></path>
                    <path d="M337.922409,125.879747 L337.273395,133.853377 L341.26021,134.177884 L341.909224,126.204253 L337.922409,125.879747 Z M336.624381,141.827007 L335.975367,149.800638 L339.962182,150.125145 L340.611196,142.151514 L336.624381,141.827007 Z M335.326354,157.774268 L334.67734,165.747898 L338.664155,166.072405 L339.313169,158.098775 L335.326354,157.774268 Z M334.028326,173.721529 L333.379312,181.695159 L337.366127,182.019666 L338.015141,174.046036 L334.028326,173.721529 Z M332.730299,189.668789 L332.081285,197.64242 L336.0681,197.966927 L336.717114,189.993296 L332.730299,189.668789 Z M331.432271,205.61605 L330.783257,213.589681 L334.770072,213.914187 L335.419086,205.940557 L331.432271,205.61605 Z M330.134244,221.563311 L329.48523,229.536941 L333.472045,229.861448 L334.121059,221.887818 L330.134244,221.563311 Z M328.836216,237.510572 L328.187202,245.484202 L332.174017,245.808709 L332.823031,237.835079 L328.836216,237.510572 Z M327.538189,253.457832 L326.889175,261.431463 L330.87599,261.75597 L331.525004,253.782339 L327.538189,253.457832 Z M326.240161,269.405093 L325.591147,277.378723 L329.577962,277.70323 L330.226976,269.7296 L326.240161,269.405093 Z M324.942134,285.352354 L324.29312,293.325984 L328.279935,293.650491 L328.928949,285.676861 L324.942134,285.352354 Z M323.343028,300.880549 L321.269434,308.60714 L325.13273,309.643937 L327.206324,301.917346 L323.343028,300.880549 Z M319.19584,316.333731 L317.122247,324.060322 L320.985542,325.097119 L323.059136,317.370528 L319.19584,316.333731 Z M315.048653,331.786913 L312.975059,339.513504 L316.838355,340.550301 L318.911948,332.82371 L315.048653,331.786913 Z M310.901465,347.240095 L308.827871,354.966686 L312.691167,356.003483 L314.764761,348.276892 L310.901465,347.240095 Z" id="Path" fill="#697B8F" fill-rule="nonzero"></path>
                </g>
                <g id="upper-limb" transform="translate(0.102503, 378.249000)">
                    <polygon id="Path" fill="#363636" fill-rule="nonzero" points="30.339397 378.437 -5.32907052e-13 337.065 54.243197 108.141 80.905097 108.141"></polygon>
                    <polygon id="Path" fill="#585858" fill-rule="nonzero" points="275.981497 -2.84217094e-13 259.811497 46.704 183.656497 451.181 7.469607 498.015 51.614197 105.06 142.429497 -2.84217094e-13 206.534497 -2.84217094e-13"></polygon>
                    <polygon id="Path" fill="#363636" fill-rule="nonzero" points="93.674697 418.972 93.674697 271.217 169.659497 239.224 187.656497 457.181"></polygon>
                    <rect id="Rectangle" fill="#EBBAAA" fill-rule="nonzero" x="257.878497" y="9.511" width="86.2658" height="67.6518"></rect>
                    <path d="M220.991497,104.14 C239.260497,113.977 246.096497,136.762 236.258497,155.032 C206.901497,209.552 156.576497,265.106 120.996497,290.68 C112.354497,296.891 101.284497,303.792 89.570697,307.007 C83.747897,308.605 73.756897,310.437 62.572397,307.138 C49.202497,303.194 39.311997,293.455 34.566297,281.393 C30.584297,271.272 30.968197,261.598 31.749697,255.358 C32.596597,248.594 34.446397,241.879 36.631697,235.586 C41.008497,222.983 48.205897,207.933 57.952597,190.456 C68.059097,172.334 90.942897,165.837 109.064497,175.943 C114.260497,178.84 118.499497,182.788 121.667497,187.372 C139.490497,167.151 157.357497,143.07 170.098497,119.407 C179.936497,101.138 202.721497,94.302 220.991497,104.14 Z" id="Path" fill="#EBBAAA"></path>
                    <path d="M155.636497,64.065 C195.417497,27.549 258.437497,35.336 288.132497,80.439 C315.823497,122.498 302.468497,179.187 258.913497,204.462 L143.159497,271.635 L33.494097,176.186 L155.636497,64.065 Z" id="Path" fill="#E8E8E8" fill-rule="nonzero"></path>
                    <path d="M467.489434,165.037664 C485.562033,154.843005 508.477174,161.229337 518.671833,179.301937 C542.997412,222.425147 555.17296,264.853645 558.136698,313.398124 C560.517566,352.395503 557.630299,390.401259 548.604434,461.430136 C545.988738,482.014307 527.181531,496.580633 506.597361,493.964937 C486.01319,491.349241 471.446864,472.542034 474.06256,451.957864 L475.049209,444.125391 C482.719796,382.662294 485.062475,349.547408 483.135046,317.977126 C480.853297,280.603261 471.854717,249.245641 453.225161,216.220063 C443.030502,198.147464 449.416834,175.232323 467.489434,165.037664 Z" id="Path" fill="#EBBAAA" fill-rule="nonzero"></path>
                    <path d="M476.076497,70.929 C441.042497,29.836 377.542497,29.886 342.572497,71.033 C309.962497,109.404 316.309497,167.298 356.458497,197.693 L463.163497,278.472 L583.644497,197.099 L476.076497,70.929 Z" id="Path" fill="#E8E8E8" fill-rule="nonzero"></path>
                    <polygon id="Path" fill="#6A6A6A" fill-rule="nonzero" points="574.358497 186.954 451.009497 269.113 463.163497 278.472 583.644497 197.099"></polygon>
                    <path d="M158.358497,145.727 C162.630497,88.601 210.226497,44.432 267.511497,44.432 L341.965497,44.432 C402.417497,44.432 451.423497,93.438 451.423497,153.89 L451.423497,300.338 L451.423497,512.542 L146.796497,502.54 L146.796497,300.338 L158.358497,145.727 Z" id="Path" fill="#E8E8E8" fill-rule="nonzero"></path>
                    <polygon id="Path" fill="#6A6A6A" fill-rule="nonzero" points="43.409097 166.873 151.807497 258.586 139.653497 267.945 33.204597 176.074"></polygon>
                    <g id="Clipped" transform="translate(145.897497, 43.751000)">
                        <mask id="mask-2" fill="white">
                            <use xlink:href="#path-1"></use>
                        </mask>
                        <g id="Path"></g>
                        <ellipse id="Oval" fill="#6A6A6A" fill-rule="nonzero" mask="url(#mask-2)" cx="157.153" cy="7.741" rx="80.1883" ry="75.4306"></ellipse>
                    </g>
                    <g id="Clipped" transform="translate(32.897497, 39.751000)">
                        <mask id="mask-4" fill="white">
                            <use xlink:href="#path-3"></use>
                        </mask>
                        <g id="Path"></g>
                        <g id="Group" mask="url(#mask-4)" fill-rule="nonzero">
                            <g transform="translate(21.000000, -25.000000)" id="Path">
                                <polygon fill="#6A6A6A" points="396.954219 55.5372423 501.564219 191.293242 498.395781 193.734758 393.785781 57.9787577"></polygon>
                                <polygon fill="#6A6A6A" points="396.533826 102.123562 485.378826 216.568562 482.219174 219.021438 393.374174 104.576438"></polygon>
                                <polygon fill="#6A6A6A" points="396.676835 148.430573 469.198835 241.850573 466.039165 244.303427 393.517165 150.883427"></polygon>
                                <polygon fill="#6A6A6A" points="396.096829 193.807566 453.018829 267.131566 449.859171 269.584434 392.937171 196.260434"></polygon>
                                <polygon fill="#6A6A6A" points="103.114776 55.5372489 106.283224 57.9787511 1.67412435 193.734751 -1.49432435 191.293249"></polygon>
                                <polygon fill="#6A6A6A" points="103.536177 102.123558 106.695823 104.576442 17.8503228 219.021442 14.6906772 216.568558"></polygon>
                                <polygon fill="#6A6A6A" points="103.393167 148.430571 106.552833 150.883429 34.0306331 244.303429 30.8709669 241.850571"></polygon>
                                <polygon fill="#6A6A6A" points="103.973171 193.807566 107.132829 196.260434 50.2108291 269.584434 47.0511709 267.131566"></polygon>
                                <polygon fill="#6A6A6A" points="339.035 0.319 339.035 547.178 335.035 547.178 335.035 0.319"></polygon>
                                <polygon fill="#6A6A6A" points="310.035 0.319 310.035 547.178 306.035 547.178 306.035 0.319"></polygon>
                                <polygon fill="#6A6A6A" points="281.035 0.319 281.035 547.178 277.035 547.178 277.035 0.319"></polygon>
                                <polygon fill="#6A6A6A" points="252.035 0.319 252.035 547.178 248.035 547.178 248.035 0.319"></polygon>
                                <polygon fill="#6A6A6A" points="223.035 0.319 223.035 547.178 219.035 547.178 219.035 0.319"></polygon>
                                <polygon fill="#6A6A6A" points="194.035 0.319 194.035 547.178 190.035 547.178 190.035 0.319"></polygon>
                                <polygon fill="#6A6A6A" points="165.035 0.319 165.035 547.178 161.035 547.178 161.035 0.319"></polygon>
                                <polygon fill="#6A6A6A" points="136.035 0.319 136.035 547.178 132.035 547.178 132.035 0.319"></polygon>
                                <polygon fill="#6A6A6A" points="107.035 0.319 107.035 547.178 103.035 547.178 103.035 0.319"></polygon>
                                <polygon fill="#6A6A6A" points="368.035 0.319 368.035 547.178 364.035 547.178 364.035 0.319"></polygon>
                                <polygon fill="#6A6A6A" points="397.035 0.319 397.035 547.178 393.035 547.178 393.035 0.319"></polygon>
                                <path d="M167.094,89.389 C185.363,99.226 192.199,122.011 182.361,140.281 C162.768,176.668 133.836,213.515 106.18,241.603 C101.98,245.869 93.256,253.975 89.152,257.804 L32.3084,208.124 L67.77,172.621 C85.593,152.4 103.46,128.319 116.201,104.656 C126.039,86.387 148.824,79.551 167.094,89.389 Z" fill="#EBBAAA"></path>
                            </g>
                        </g>
                    </g>
                    <path d="M303.125497,109.893 C341.371497,109.893 372.375497,85.055 372.375497,54.416 C372.375497,51.142 372.021497,47.934 371.342497,44.815 L351.071497,41.432 L242.923497,41.432 C240.334497,41.432 237.752497,44.704 235.220497,45.244 L234.798497,45.334 C234.190497,48.289 233.874497,51.323 233.874497,54.416 C233.874497,85.055 264.879497,109.893 303.125497,109.893 Z" id="Path" fill="#EBBAAA"></path>
                    <g id="Group-49" transform="translate(351.897497, 151.751000)" fill="#000000">
                        <path d="M75,22.5024504 C74.7869513,23.4177492 74.6211188,24.3482835 74.3481862,25.2448309 C73.9865793,26.4308519 73.5650884,27.5992936 73.1228684,28.7571876 C72.7785357,29.6595949 72.3628029,30.5350471 71.9793152,31.421047 C71.8031182,31.8312321 71.5405501,32.0011659 71.0603269,32 C63.9398946,31.9812427 56.8206139,31.9871024 49.7013332,31.9871024 L49,31.9871024 C49.1289808,31.7374755 49.1888648,31.5499623 49.3040262,31.4069835 C50.9462285,29.3642616 52.5343048,27.2734894 54.2674846,25.3128045 C55.2233246,24.2334316 56.3876069,23.3310243 57.5219471,22.429789 C58.9050361,21.3304929 60.2996412,20.2276809 61.790982,19.2936307 C63.1521903,18.4392737 64.6274084,17.7618823 66.092262,17.0962104 C67.1747796,16.6039883 68.3010586,16.1867714 69.4411569,15.8562794 C71.2526465,15.3324144 73.1009877,14.9702795 75,15.0019224 L75,22.5024504 Z" id="Fill-4"></path>
                        <path d="M28.3506391,32 C27.8765159,28.8497471 27.9628276,25.7207636 28.1472745,22.6035966 C28.2560509,20.7377866 28.5693743,18.8719767 28.9382681,17.0345261 C29.2456797,15.5043019 29.7434499,14.009527 30.2010202,12.5135704 C31.3147959,8.87411839 33.1285241,5.59388501 35.4754931,2.61615155 C36.2085514,1.68620066 37.0988626,0.880321997 37.9336032,0 C39.5309609,1.26671836 40.7357778,2.70359292 41.7526006,4.28580924 C42.6618294,5.70023264 43.5474111,7.13947048 44.3029342,8.63779033 C44.9177573,9.85487981 45.3552276,11.1641372 45.8175273,12.4533067 C46.2006093,13.5203279 46.5482209,14.6050737 46.8319854,15.7039991 C47.0897382,16.7001219 47.2647263,17.721059 47.4361673,18.736088 C48.0509904,22.3743584 48.0557198,26.0433514 47.9445787,29.7135261 C47.9209317,30.4697759 47.7755024,31.2224807 47.6832789,32 L28.3506391,32 Z" id="Fill-25"></path>
                        <path d="M26.9000164,31.9812824 L26.1648431,31.9812824 C18.9330906,31.9812824 11.7001617,31.9719345 4.46723284,32 C3.87556538,32.0023152 3.56149935,31.8165255 3.33094901,31.3199179 C2.45932756,29.4328087 1.6300521,27.5340147 1.06896784,25.5242142 C0.530232859,23.589197 0.00914203324,21.6565168 0.000908092433,19.631526 C-0.00497329386,18.242193 0.0197285286,16.855197 0.017375974,15.465864 C0.0161996968,15.107138 0.177349681,14.9634139 0.516117532,15.0078165 C1.65240136,15.1562145 2.79221403,15.2824113 3.92026392,15.4740434 C4.79423792,15.6224415 5.67174075,15.7953778 6.51160272,16.0688041 C7.83961974,16.498808 9.18880976,16.9171269 10.4344874,17.5294149 C12.1436182,18.3672213 13.8339286,19.2798109 15.4042588,20.3466411 C17.0616334,21.4718956 18.6131431,22.7654125 20.1258357,24.0822992 C21.2879976,25.0953789 22.3725253,26.212454 23.3911814,27.3704263 C24.6486218,28.8018248 25.8013735,30.325534 27,31.8095146 C26.9670642,31.8656021 26.9329522,31.9240265 26.9000164,31.9812824" id="Fill-27"></path>
                        <path d="M71,35 C70.2998718,35.9381884 69.6702264,36.7858692 69.0347074,37.6313424 C68.816211,37.921629 68.5096113,37.9900615 68.136053,37.9900615 C62.5949381,37.979024 57.0549979,37.9823353 51.5150577,37.9823353 C37.0473088,37.9823353 22.5807347,37.9768165 8.1129859,38 C7.39053823,38.001099 6.91125587,37.8090463 6.52829987,37.2560671 C6.07721059,36.6070615 5.58030756,35.9867534 5.11159761,35.3465778 C5.05168731,35.2649002 5.04463904,35.1467989 5,35 L71,35 Z" id="Fill-29"></path>
                        <path d="M9.09530002,41 L66,41 C64.984643,41.9868269 64.0998823,42.8913242 63.1539414,43.7326645 C62.9351043,43.9277743 62.505666,43.9717586 62.1715276,43.9728864 C57.8383182,43.98642 53.5062852,43.9830366 49.1718992,43.9830366 C37.2723388,43.9830366 25.371602,43.9717586 13.4708651,43.9999536 C12.4131525,44.003337 11.5530993,43.8228887 10.8530559,43.0198936 C10.2753731,42.3578737 9.62121494,41.757883 9,41.1296972 C9.03176667,41.0868408 9.06353335,41.0428565 9.09530002,41" id="Fill-31"></path>
                        <path d="M16.097284,47.0099134 L16.5704927,47.0099134 C21.6941174,47.0099134 26.817742,47.0164997 31.9401657,47 C32.50105,46.9978385 32.7832938,47.101024 32.7989073,47.6773262 C32.8373405,49.096676 32.9370266,50.5149282 32.9994805,51.9331804 C33.0066867,52.1110108 32.9370266,52.2921343 32.9082017,52.4721601 C32.8397425,52.8925863 32.5911278,53.057244 32.1215223,52.9825992 C30.5397563,52.7323194 28.948382,52.5347301 27.3774254,52.2405415 C26.3397292,52.04405 25.3032341,51.7794998 24.3159816,51.4282299 C23.0284697,50.9715791 21.7529682,50.46114 20.5411216,49.8606881 C19.1743413,49.1822981 17.8772211,48.3842568 16.5596833,47.6246357 C16.3470997,47.5005935 16.1861608,47.3030042 16,47.1394441 C16.032428,47.0955354 16.064856,47.0527244 16.097284,47.0099134" id="Fill-33"></path>
                        <path d="M43.0454977,49.1867398 C43.0454977,48.4379251 43.0236972,47.6879844 43.0512346,46.9391697 C43.0799194,46.1419354 43.2439967,46.006811 44.0563511,46.006811 C48.8122958,46.0056849 53.5670932,46.006811 58.323038,46.006811 C58.4377773,46.006811 58.5571062,45.9876684 58.6661086,46.0135672 C58.7819953,46.0405921 58.8898503,46.1092804 59,46.159952 C58.9288616,46.251161 58.8749341,46.370521 58.7808479,46.4302009 C57.6977087,47.1182096 56.6455492,47.8647722 55.5119247,48.4615719 C54.0994837,49.2070085 52.6422943,49.8803787 51.1598623,50.4805564 C50.1926099,50.8712913 49.1588086,51.1291538 48.1341865,51.3509831 C46.9718772,51.6032154 45.7854726,51.7496003 44.610542,51.9421526 C44.4785918,51.9646733 44.3466415,51.9939503 44.2146913,51.9973284 C42.9169896,52.0221012 43.0248446,51.8903549 43.0191076,50.9298452 C43.0179602,50.6291933 43.0053389,50.3307935 43.0018967,50.0301416 C42.9984545,49.7486323 43.0007493,49.4682491 43.0007493,49.1867398 L43.0454977,49.1867398 Z" id="Fill-35"></path>
                        <path d="M43,46.2141683 C42.5617671,46.8616618 42.1365628,47.5102933 41.6912235,48.1441315 C40.7590904,49.4709812 39.6741679,50.6703805 38.4542224,51.7628125 C38.0941608,52.0848523 37.8951794,52.0780246 37.5209049,51.7480191 C35.6992775,50.1412337 34.2685065,48.2499608 33,46.2335134 C33.3884875,45.9490259 42.3923961,45.9035079 43,46.2141683" id="Fill-37"></path>
                    </g>
                    <path d="M227.843797,65.243 C215.022797,72.366 207.068797,116.883 204.694797,138.251 L176.203797,138.251 L140.589797,113.321 L56.897497,148.935 L92.511397,113.321 L176.203797,36.751 L258.258797,38.385 C253.510797,44.914 240.664797,58.12 227.843797,65.243 Z" id="Path" fill="#363636" fill-rule="nonzero"></path>
                    <polygon id="Path" fill="#363636" fill-rule="nonzero" points="159.414497 18.751 257.775497 38.191 114.897497 70.39"></polygon>
                    <polygon id="Path" fill="#585858" fill-rule="nonzero" points="207.472497 116.242 222.862197 82.2549063 167.897497 78.838"></polygon>
                </g>
                <g id="hand" transform="translate(126.474382, 0.497070)">
                    <path d="M296.839618,299.48793 C325.707618,299.48793 346.591618,266.43893 349.110618,241.94493 C351.629618,217.44993 325.707618,192.70893 296.839618,192.70893 C267.971618,192.70893 244.569618,214.75293 244.569618,241.94493 C244.569618,269.13693 267.971618,299.48793 296.839618,299.48793 Z" id="Path" fill="#EBBAAA" fill-rule="nonzero"></path>
                    <path d="M52.4396184,305.13593 C23.5716184,305.13593 2.68861839,272.08693 0.169618389,247.59193 C-2.34938161,223.09793 23.5716184,198.35693 52.4396184,198.35693 C81.3076184,198.35693 104.709618,220.39993 104.709618,247.59193 C104.709618,274.78393 81.3076184,305.13593 52.4396184,305.13593 Z" id="Path" fill="#EBBAAA" fill-rule="nonzero"></path>
                    <path d="M23.6656184,167.24593 C23.6656184,84.57993 89.8126184,17.56543 171.409618,17.56543 C253.006618,17.56543 319.154618,84.57983 319.154618,167.24593 L309.154618,282.96193 C297.316618,355.01393 263.189618,409.60093 194.154618,409.60093 L148.665618,409.60093 C79.6296184,409.60093 47.7916184,347.82793 33.6656184,282.96193 L23.6656184,167.24593 Z" id="Path" fill="#F4D4C9" fill-rule="nonzero"></path>
                    <path d="M275.971618,131.98393 L266.948618,56.24963 C265.584618,44.80533 265.442618,41.88623 297.976618,65.86633 C330.509618,89.84653 335.710618,166.36293 327.368618,200.12893 L321.123618,242.84393 L307.641618,237.79293 L304.346618,188.51493 C287.954618,172.01493 278.859618,156.21993 275.971618,131.98393 Z" id="Path" fill="#FD8282" fill-rule="nonzero"></path>
                    <path d="M43.1656184,138.83393 C44.5096184,114.46593 41.7636184,115.72093 42.6596184,99.47583 C43.2946184,87.96903 41.1276184,85.2383762 29.5126184,112.297776 C17.8976184,139.357776 19.6496184,173.26493 22.0626184,205.98693 L24.9306184,236.14493 L29.5126184,236.39793 L31.5816184,198.88393 C39.6796184,172.88993 41.8216184,163.20093 43.1656184,138.83393 Z" id="Path" fill="#FD8282" fill-rule="nonzero"></path>
                    <path d="M177.166618,2.4158453e-13 L177.165618,2.4158453e-13 C177.097618,2.4158453e-13 177.028618,2.4158453e-13 176.959618,2.4158453e-13 C176.890618,2.4158453e-13 176.821618,2.4158453e-13 176.753618,2.4158453e-13 L176.752618,2.4158453e-13 C132.816618,0.152618 27.6186184,24.51293 23.6656184,138.51593 C35.3476184,124.47293 49.3576184,129.12893 65.3826184,119.96493 C99.1166184,100.67393 130.691618,82.83013 167.241618,82.83013 C198.648618,82.83013 235.686618,96.72433 261.704618,109.18393 C284.978618,120.32893 307.094618,121.90393 329.841618,138.51593 C325.887618,24.51313 221.099618,0.152624 177.166618,2.4158453e-13 Z" id="Path" fill="#FD8282"></path>
                    <path d="M257.65124,189.55733 C262.750265,189.557121 266.884218,193.690528 266.884218,198.789552 C266.884218,203.79912 262.89478,207.87698 257.919457,208.018719 L257.651996,208.02253 L208.804996,208.02453 C203.705972,208.024739 199.572018,203.891332 199.572018,198.792308 C199.572018,193.78274 203.561457,189.70488 208.536779,189.563141 L208.80424,189.55933 L257.65124,189.55733 Z" id="Path" fill="#393939" fill-rule="nonzero"></path>
                    <path d="M135.529794,189.722462 C140.624879,189.522079 144.917704,193.49002 145.118086,198.585105 C145.314954,203.590803 141.488472,207.822143 136.522548,208.159091 L136.255443,208.173398 L87.4614432,210.092398 C82.3663579,210.292781 78.0735329,206.32484 77.8731503,201.229755 C77.6762832,196.224057 81.5027652,191.992717 86.4686884,191.655769 L86.7357936,191.641462 L135.529794,189.722462 Z" id="Path" fill="#393939" fill-rule="nonzero"></path>
                    <path d="M161.221979,231.857926 L178.057258,236.407934 L167.225246,276.486979 C164.626759,286.101316 171.768894,295.561236 181.672589,295.751365 L181.976618,295.75428 L188.650618,295.75428 L188.650618,313.19358 L181.976618,313.19358 C160.648712,313.19358 145.082941,293.1413 150.227722,272.560722 L150.389979,271.936926 L161.221979,231.857926 Z" id="Path" fill="#EBBAAA" fill-rule="nonzero"></path>
                    <path d="M144.241434,347.259857 C164.347597,341.117768 194.358672,341.117768 209.850642,347.509776 C213.84221,349.156702 215.742917,353.727604 214.095991,357.719172 C212.481357,361.632474 208.056289,363.536106 204.122035,362.057318 L203.886595,361.964521 C192.012565,357.06528 165.665603,357.06528 148.809803,362.214439 C144.680209,363.475959 140.309848,361.150927 139.048328,357.021333 C137.786807,352.891739 140.11184,348.521378 144.241434,347.259857 Z" id="Path" fill="#CD9E8E" fill-rule="nonzero"></path>
                    <path d="M144.533618,21.88903 C237.130618,6.10652 265.791618,37.65413 271.082618,50.52943 C276.374618,63.40463 278.358618,84.17183 271.082618,93.30943 C260.500618,106.59993 210.674618,77.74033 170.108618,84.38583 C129.541618,91.03123 121.604618,114.70593 92.9446184,133.81193 C70.0156184,149.09593 47.2336184,152.63993 38.7086184,152.50193 C44.4406184,135.88793 37.8991627,85.53933 43.5431627,69.25803 C50.5981627,48.90643 95.1806184,30.30093 144.533618,21.88903 Z" id="Path" fill="#FD8282" fill-rule="nonzero"></path>
                    <path d="M145.085618,109.48993 C159.565618,84.14883 213.465618,79.82483 238.605618,80.83053 L256.705618,94.40553 C235.825618,90.94313 184.268618,89.11273 145.085618,109.48993 Z" id="Path" fill="#FD8282" fill-rule="nonzero"></path>
                    <path d="M246.071618,6.77148 C249.977618,9.63543 259.037618,16.92553 264.036618,23.17413 C266.605618,26.38543 269.398618,30.36723 271.847618,38.79583 C272.992618,42.73663 269.883618,34.33653 265.598618,27.86063 C261.216618,21.23633 249.196618,13.02013 253.882618,18.48773 C261.693618,34.10933 286.688618,91.44063 283.563618,55.19843 C280.439618,18.95633 257.267618,7.81293 246.071618,6.77148 Z" id="Path" fill="#FD8282" fill-rule="nonzero"></path>
                    <path d="M292.155618,41.13913 C283.407618,41.13913 272.368618,53.11573 267.942618,59.10403 L292.155618,69.25803 L314.025618,66.13373 L296.842618,59.10403 L320.274618,62.22833 L304.652618,52.07433 L320.274618,56.76073 C318.972618,55.71933 315.900618,53.32403 314.025618,52.07433 C312.151618,50.82453 301.788618,47.38783 296.842618,45.82563 L307.777618,45.82563 C306.215618,44.26353 300.903618,41.13913 292.155618,41.13913 Z" id="Path" fill="#FD8282" fill-rule="nonzero"></path>
                    <path d="M107.712618,218.59993 C113.141858,218.59993 117.56055,222.926601 117.708777,228.320025 L117.712618,228.59993 L117.712618,251.74593 C117.712618,257.268777 113.235466,261.74593 107.712618,261.74593 C102.283378,261.74593 97.8646867,257.419259 97.7164602,252.025835 L97.7126184,251.74593 L97.7126184,228.59993 C97.7126184,223.077083 102.189771,218.59993 107.712618,218.59993 Z" id="Path" fill="#000000" fill-rule="nonzero"></path>
                    <path d="M236.59005,218.59993 C242.01929,218.59993 246.437795,222.927026 246.585789,228.320457 L246.589618,228.600362 L246.588618,251.746362 C246.58838,257.26921 242.111034,261.74593 236.588186,261.74593 C231.158946,261.74593 226.740442,257.418834 226.592448,252.025403 L226.588618,251.745498 L226.589618,228.599498 C226.589857,223.07665 231.067203,218.59993 236.59005,218.59993 Z" id="Path" fill="#000000" fill-rule="nonzero"></path>
                </g>
            </g>
        </g>
    </g>
</svg>