<?xml version="1.0" encoding="UTF-8"?>
<svg width="510px" height="1346px" viewBox="0 0 510 1346" version="1.1" xmlns="http://www.w3.org/2000/svg" xmlns:xlink="http://www.w3.org/1999/xlink">
    <!-- Generator: Sketch 55.2 (78181) - https://sketchapp.com -->
    <title>gee_me_018</title>
    <desc>Created with Sketch.</desc>
    <defs>
        <path d="M79.889,0 C79.963,0.99 80,1.99 80,3 L80,23 C80,45.091 62.092,63 40,63 C17.909,63 0,45.091 0,23 L0,3 C0,1.99 0.038,0.99 0.111,0 L79.889,0 Z" id="path-1"></path>
    </defs>
    <g id="GEE!-ME" stroke="none" stroke-width="1" fill="none" fill-rule="evenodd">
        <g id="gee_me_018" transform="translate(-345.000000, -127.000000)">
            <g transform="translate(345.000000, 127.000000)">
                <g id="lower-limb" transform="translate(30.000000, 764.872000)">
                    <path d="M154.501,213 L154.501,523.998" id="Path" stroke="#F6DDD6" stroke-width="68"></path>
                    <path d="M287.5,254.998 L287.5,506.998" id="Path" stroke="#F6DDD6" stroke-width="68"></path>
                    <g id="Group" transform="translate(226.999796, 416.001775)" fill-rule="nonzero">
                        <path d="M11.3502039,7.44622479 C15.9452039,-0.00377520583 26.2842039,1.78622479 30.8792039,3.61622479 L29.7312039,7.98622479 C27.8162039,8.35622479 22.9532039,9.08622479 21.1152039,11.2762248 C18.8172039,14.0062248 20.5402039,19.4862248 18.8172039,20.5762248 C17.0942039,21.6762248 12.4992039,20.5762248 10.2022039,20.5762248 C7.90420392,20.5762248 5.60620392,16.7462248 11.3502039,7.44622479 Z" id="Path" fill="#000000"></path>
                        <path d="M214.939204,142.436225 C216.162204,139.426225 215.952204,132.906225 208.408204,129.896225 C200.865204,126.886225 111.849204,142.436225 111.849204,142.436225 C88.9342039,140.566225 27.3882039,110.616225 4.72820392,124.376225 C-2.44079608,128.726225 -0.0107960848,142.526225 2.63520392,155.426225 C6.87020392,159.726225 49.7082039,163.496225 63.5982039,160.266225 C63.5982039,152.736225 64.6792039,147.896225 64.6792039,147.896225 C64.6792039,147.896225 73.0932039,153.316225 82.1772039,155.426225 C100.703204,159.726225 104.757204,164.496225 162.140204,164.496225 C208.163204,160.196225 211.473204,150.956225 214.939204,142.436225 Z" id="Path" fill="#383129"></path>
                        <path d="M210.160688,135.769256 C209.176014,136.929789 207.709088,138.263607 205.87588,139.646753 L207.080467,141.243302 C209.02328,139.777461 210.596323,138.347154 211.68572,137.063194 L210.160688,135.769256 Z M200.97782,142.917515 C199.34845,143.890197 197.605204,144.833868 195.772673,145.730393 L196.651584,147.526922 C198.53369,146.606144 200.325734,145.636057 202.002981,144.634794 L200.97782,142.917515 Z M190.357326,148.13145 C188.540918,148.858007 186.677513,149.527826 184.776813,150.134185 L185.384668,152.039575 C187.331176,151.418602 189.23957,150.732612 191.100102,149.988406 L190.357326,148.13145 Z M179.050751,151.737209 C177.133116,152.200336 175.195508,152.595222 173.243,152.918179 L173.569378,154.891369 C175.57034,154.560397 177.555675,154.155784 179.520271,153.681315 L179.050751,151.737209 Z M167.343978,153.667576 C165.376204,153.841958 163.403486,153.940932 161.428946,153.961972 L161.450257,155.961858 C163.477033,155.940261 165.501521,155.838691 167.520524,155.659769 L167.343978,153.667576 Z M155.484959,153.930825 C153.475418,153.90307 151.48114,153.859075 149.502567,153.799112 L149.441982,155.798194 C151.431539,155.85849 153.436805,155.902728 155.457338,155.930634 L155.484959,153.930825 Z M143.522961,153.567263 C141.51323,153.472124 139.522271,153.360312 137.55071,153.232177 L137.421001,155.227967 C139.404268,155.356862 141.406941,155.469333 143.42839,155.565025 L143.522961,153.567263 Z M131.586981,152.790162 C129.577546,152.622612 127.591916,152.437933 125.631041,152.23661 L125.426775,154.226152 C127.400337,154.428777 129.398661,154.614636 131.420793,154.783246 L131.586981,152.790162 Z M119.685429,151.566189 C117.678304,151.319195 115.702682,151.054691 113.760129,150.773403 L113.473513,152.752759 C115.430179,153.03609 117.419916,153.302485 119.441154,153.551216 L119.685429,151.566189 Z M107.856529,149.850192 C105.851296,149.512689 103.890687,149.157546 101.977622,148.78603 L101.596345,150.74935 C103.525869,151.124063 105.50292,151.482184 107.524575,151.822452 L107.856529,149.850192 Z M96.1265271,147.566165 C94.1189799,147.117527 92.1826203,146.652206 90.3240328,146.172986 L89.8246832,148.109646 C91.7044157,148.594317 93.6618263,149.064697 95.6903353,149.518019 L96.1265271,147.566165 Z M84.5650115,144.576931 C82.5983404,144.006186 80.6782154,143.445801 78.8085767,142.897153 L78.245421,144.81623 C80.1169605,145.365436 82.0389974,145.926378 84.0075927,146.497682 L84.5650115,144.576931 Z M73.0565854,141.19909 C70.9965581,140.587138 69.0725941,140.011303 67.3125079,139.480572 L66.7351126,141.395412 C68.497822,141.926934 70.42441,142.503555 72.4870623,143.116287 L73.0565854,141.19909 Z M61.1730344,137.995097 C59.3937264,138.135789 57.3523043,138.271901 55.2096409,138.389754 L55.3194812,140.386736 C57.4778669,140.268018 59.5352134,140.130844 61.3306844,139.988874 L61.1730344,137.995097 Z M49.2368529,138.657168 C47.2061326,138.727044 45.204628,138.773833 43.2616684,138.794922 L43.2833746,140.794804 C45.2425573,140.77354 47.2596898,140.726384 49.3056312,140.655985 L49.2368529,138.657168 Z M37.2904613,138.771527 C35.1517818,138.727535 33.1625842,138.643146 31.3454778,138.51609 L31.2059737,140.511219 C33.0578743,140.640708 35.0794508,140.72647 37.2493306,140.771104 L37.2904613,138.771527 Z M25.473178,137.85265 C23.1724772,137.480972 21.2660498,137.146692 19.5972264,136.819173 L19.2120586,138.781734 C20.9054818,139.114081 22.8330514,139.452068 25.1542136,139.827051 L25.473178,137.85265 Z M13.8505056,135.45483 C11.6911715,134.81285 9.98972224,134.098405 8.55220955,133.230145 L7.51818517,134.942101 C9.1131303,135.905451 10.9684005,136.684485 13.2805515,137.371899 L13.8505056,135.45483 Z" id="Path" fill="#67513B"></path>
                        <path d="M81.1712039,1.50622479 C76.2632039,1.50622479 47.6072039,16.5062248 32.7742039,4.83622479 C31.1552039,3.55622479 27.8632039,4.60622479 27.8602039,6.66622479 C27.8332039,26.6162248 27.5392039,61.3562248 24.5392039,75.1362248 C21.3642039,89.7162248 18.6832039,87.6262248 15.5082039,101.176225 C13.3092039,110.546225 6.18920392,132.416225 15.5082039,132.416225 L58.0082039,132.416225 C68.0642039,132.416225 81.6452039,144.066225 115.130204,147.336225 C170.714204,152.766225 184.297204,145.336225 195.396204,141.826225 C220.648204,133.836225 207.833204,115.566225 195.396204,109.726225 C177.176204,101.176225 151.064204,94.7462248 137.781204,87.6562248 C127.439204,82.1462248 123.887204,80.4262248 118.577204,74.6162248 C109.820204,65.0462248 102.127204,14.6762248 100.942204,1.54622479 C100.860204,0.636224794 99.5812039,0.166224794 98.8042039,0.646224794 C93.6242039,3.83622479 86.0362039,1.50622479 81.1712039,1.50622479 Z" id="Path" fill="#2D2B30"></path>
                        <path d="M187.951367,123.246279 C181.054433,125.333587 176.462147,126.416191 170.528884,127.053759 C162.469632,127.919777 153.922429,127.521302 144.439981,125.540197 C142.547838,125.144885 140.693489,126.358305 140.298177,128.250448 C139.902864,130.14259 141.116284,131.996939 143.008427,132.392252 C153.214006,134.524436 162.496484,134.95719 171.276774,134.013691 C177.734202,133.319799 182.699679,132.149217 189.979041,129.94617 C191.829165,129.386244 192.875076,127.432512 192.315149,125.582388 C191.755223,123.732264 189.801491,122.686353 187.951367,123.246279 Z" id="Path" fill="#59555F"></path>
                        <path d="M124.421204,106.326225 C114.573204,97.2962248 78.6562039,77.1262248 81.1712039,1.50622479 C76.9032039,1.50622479 66.5862039,7.02622479 50.9962039,8.02622479 C34.6222039,7.53622479 34.8922039,6.05622479 30.5562039,3.61622479 C30.4392039,3.54622479 30.3042039,3.44622479 30.1922039,3.37622479 C23.3912039,-1.20377521 26.4502039,71.7262248 21.5692039,84.6462248 C17.6302039,95.0862248 10.2432039,110.726225 10.2432039,129.786225 C13.6902039,135.806225 47.6682039,132.796225 58.5012039,132.796225 C63.5692039,105.826225 103.299204,126.386225 111.849204,123.876225 C119.353204,121.676225 124.421204,117.356225 124.421204,106.326225 Z" id="Path" fill="#1D1D20"></path>
                        <path d="M112.352204,73.8262248 C101.086204,64.9962248 96.7612039,22.0662248 96.2582039,1.50622479 C98.2702039,1.00622479 98.7732039,-0.393775206 100.282204,0.106224794 C101.790204,0.606224794 101.790204,6.62622479 102.293204,11.6362248 C102.844204,17.1262248 106.819204,34.2062248 108.831204,45.7462248 C110.843204,57.2762248 112.854204,64.2962248 120.398204,73.8262248 C126.433204,81.4462248 150.070204,89.2762248 157.614204,95.7962248 C156.776204,95.6262248 154.596204,94.4862248 152.585204,94.8862248 C150.070204,95.3962248 150.573204,95.8962248 147.555204,95.8962248 C144.538204,95.8962248 126.433204,84.8562248 112.352204,73.8262248 Z" id="Path" fill="#1D1D20"></path>
                        <path d="M80.0300788,25.3618522 C77.9079958,26.4505018 78.3703324,29.609468 80.7153906,30.0443204 L93.7770273,32.4663858 L80.253863,37.8006097 C78.0659688,38.6636264 78.1720143,41.7955183 80.4132738,42.5085644 L98.0098294,48.1068255 L82.6128607,55.4178891 C80.3484757,56.4931048 80.8991437,59.8605774 83.3880727,60.1585046 L102.330633,62.425947 L89.2289477,72.2241699 C87.3035575,73.6640916 88.3219365,76.7262248 90.7262039,76.7262248 L110.707271,76.7262248 L97.0331645,89.9811585 C95.2263852,91.7325519 96.8474323,94.7550222 99.3059477,94.2188021 L125.119913,88.5885892 L114.84926,102.855613 C113.330388,104.965487 115.640787,107.704047 117.976298,106.562152 L143.624298,94.0221519 C144.86469,93.4156911 145.378592,91.9185217 144.772131,90.6781304 C144.16567,89.4377391 142.668501,88.9238369 141.428109,89.5302977 L124.723139,97.697809 L132.988148,86.2168363 C134.327286,84.3566321 132.665897,81.82521 130.42646,82.3136475 L106.81398,87.4637007 L118.618243,76.0212911 C120.230983,74.4579893 119.124276,71.7262248 116.878204,71.7262248 L98.2433792,71.7262248 L110.32846,62.6882797 C112.135492,61.3368735 111.368812,58.4721322 109.128335,58.203945 L92.575072,56.2225037 L105.880547,49.9045605 C107.929812,48.9314919 107.727923,45.9516481 105.566134,45.2638852 L88.6241386,39.8738693 L103.713545,33.9218399 C106.049501,33.00042 105.721043,29.5959693 103.252017,29.1381291 L88.8345302,26.4646437 L99.914329,20.7805974 C101.932447,19.7452829 101.639743,16.7736334 99.4584131,16.1519602 L86.1285516,12.3529844 L99.5616503,7.88863967 C100.871899,7.45319277 101.581066,6.03802699 101.145619,4.72777844 C100.710172,3.41752988 99.2950061,2.70836302 97.9847576,3.14380992 L76.8617576,10.1638099 C74.5273095,10.9396384 74.5992067,14.266246 76.9649948,14.9404894 L91.9946586,19.2239045 L80.0300788,25.3618522 Z" id="Path" fill="#000000"></path>
                    </g>
                    <g id="Group" transform="translate(108.000000, 498.501775) scale(-1, 1) translate(-108.000000, -498.501775) translate(0.000000, 416.001775)" fill-rule="nonzero">
                        <path d="M11.3502039,7.44622479 C15.9452039,-0.00377520583 26.2842039,1.78622479 30.8792039,3.61622479 L29.7312039,7.98622479 C27.8162039,8.35622479 22.9532039,9.08622479 21.1152039,11.2762248 C18.8172039,14.0062248 20.5402039,19.4862248 18.8172039,20.5762248 C17.0942039,21.6762248 12.4992039,20.5762248 10.2022039,20.5762248 C7.90420392,20.5762248 5.60620392,16.7462248 11.3502039,7.44622479 Z" id="Path" fill="#000000"></path>
                        <path d="M214.939204,142.436225 C216.162204,139.426225 215.952204,132.906225 208.408204,129.896225 C200.865204,126.886225 111.849204,142.436225 111.849204,142.436225 C88.9342039,140.566225 27.3882039,110.616225 4.72820392,124.376225 C-2.44079608,128.726225 -0.0107960848,142.526225 2.63520392,155.426225 C6.87020392,159.726225 49.7082039,163.496225 63.5982039,160.266225 C63.5982039,152.736225 64.6792039,147.896225 64.6792039,147.896225 C64.6792039,147.896225 73.0932039,153.316225 82.1772039,155.426225 C100.703204,159.726225 104.757204,164.496225 162.140204,164.496225 C208.163204,160.196225 211.473204,150.956225 214.939204,142.436225 Z" id="Path" fill="#383129"></path>
                        <path d="M210.160688,135.769256 C209.176014,136.929789 207.709088,138.263607 205.87588,139.646753 L207.080467,141.243302 C209.02328,139.777461 210.596323,138.347154 211.68572,137.063194 L210.160688,135.769256 Z M200.97782,142.917515 C199.34845,143.890197 197.605204,144.833868 195.772673,145.730393 L196.651584,147.526922 C198.53369,146.606144 200.325734,145.636057 202.002981,144.634794 L200.97782,142.917515 Z M190.357326,148.13145 C188.540918,148.858007 186.677513,149.527826 184.776813,150.134185 L185.384668,152.039575 C187.331176,151.418602 189.23957,150.732612 191.100102,149.988406 L190.357326,148.13145 Z M179.050751,151.737209 C177.133116,152.200336 175.195508,152.595222 173.243,152.918179 L173.569378,154.891369 C175.57034,154.560397 177.555675,154.155784 179.520271,153.681315 L179.050751,151.737209 Z M167.343978,153.667576 C165.376204,153.841958 163.403486,153.940932 161.428946,153.961972 L161.450257,155.961858 C163.477033,155.940261 165.501521,155.838691 167.520524,155.659769 L167.343978,153.667576 Z M155.484959,153.930825 C153.475418,153.90307 151.48114,153.859075 149.502567,153.799112 L149.441982,155.798194 C151.431539,155.85849 153.436805,155.902728 155.457338,155.930634 L155.484959,153.930825 Z M143.522961,153.567263 C141.51323,153.472124 139.522271,153.360312 137.55071,153.232177 L137.421001,155.227967 C139.404268,155.356862 141.406941,155.469333 143.42839,155.565025 L143.522961,153.567263 Z M131.586981,152.790162 C129.577546,152.622612 127.591916,152.437933 125.631041,152.23661 L125.426775,154.226152 C127.400337,154.428777 129.398661,154.614636 131.420793,154.783246 L131.586981,152.790162 Z M119.685429,151.566189 C117.678304,151.319195 115.702682,151.054691 113.760129,150.773403 L113.473513,152.752759 C115.430179,153.03609 117.419916,153.302485 119.441154,153.551216 L119.685429,151.566189 Z M107.856529,149.850192 C105.851296,149.512689 103.890687,149.157546 101.977622,148.78603 L101.596345,150.74935 C103.525869,151.124063 105.50292,151.482184 107.524575,151.822452 L107.856529,149.850192 Z M96.1265271,147.566165 C94.1189799,147.117527 92.1826203,146.652206 90.3240328,146.172986 L89.8246832,148.109646 C91.7044157,148.594317 93.6618263,149.064697 95.6903353,149.518019 L96.1265271,147.566165 Z M84.5650115,144.576931 C82.5983404,144.006186 80.6782154,143.445801 78.8085767,142.897153 L78.245421,144.81623 C80.1169605,145.365436 82.0389974,145.926378 84.0075927,146.497682 L84.5650115,144.576931 Z M73.0565854,141.19909 C70.9965581,140.587138 69.0725941,140.011303 67.3125079,139.480572 L66.7351126,141.395412 C68.497822,141.926934 70.42441,142.503555 72.4870623,143.116287 L73.0565854,141.19909 Z M61.1730344,137.995097 C59.3937264,138.135789 57.3523043,138.271901 55.2096409,138.389754 L55.3194812,140.386736 C57.4778669,140.268018 59.5352134,140.130844 61.3306844,139.988874 L61.1730344,137.995097 Z M49.2368529,138.657168 C47.2061326,138.727044 45.204628,138.773833 43.2616684,138.794922 L43.2833746,140.794804 C45.2425573,140.77354 47.2596898,140.726384 49.3056312,140.655985 L49.2368529,138.657168 Z M37.2904613,138.771527 C35.1517818,138.727535 33.1625842,138.643146 31.3454778,138.51609 L31.2059737,140.511219 C33.0578743,140.640708 35.0794508,140.72647 37.2493306,140.771104 L37.2904613,138.771527 Z M25.473178,137.85265 C23.1724772,137.480972 21.2660498,137.146692 19.5972264,136.819173 L19.2120586,138.781734 C20.9054818,139.114081 22.8330514,139.452068 25.1542136,139.827051 L25.473178,137.85265 Z M13.8505056,135.45483 C11.6911715,134.81285 9.98972224,134.098405 8.55220955,133.230145 L7.51818517,134.942101 C9.1131303,135.905451 10.9684005,136.684485 13.2805515,137.371899 L13.8505056,135.45483 Z" id="Path" fill="#67513B"></path>
                        <path d="M81.1712039,1.50622479 C76.2632039,1.50622479 47.6072039,16.5062248 32.7742039,4.83622479 C31.1552039,3.55622479 27.8632039,4.60622479 27.8602039,6.66622479 C27.8332039,26.6162248 27.5392039,61.3562248 24.5392039,75.1362248 C21.3642039,89.7162248 18.6832039,87.6262248 15.5082039,101.176225 C13.3092039,110.546225 6.18920392,132.416225 15.5082039,132.416225 L58.0082039,132.416225 C68.0642039,132.416225 81.6452039,144.066225 115.130204,147.336225 C170.714204,152.766225 184.297204,145.336225 195.396204,141.826225 C220.648204,133.836225 207.833204,115.566225 195.396204,109.726225 C177.176204,101.176225 151.064204,94.7462248 137.781204,87.6562248 C127.439204,82.1462248 123.887204,80.4262248 118.577204,74.6162248 C109.820204,65.0462248 102.127204,14.6762248 100.942204,1.54622479 C100.860204,0.636224794 99.5812039,0.166224794 98.8042039,0.646224794 C93.6242039,3.83622479 86.0362039,1.50622479 81.1712039,1.50622479 Z" id="Path" fill="#2D2B30"></path>
                        <path d="M187.951367,123.246279 C181.054433,125.333587 176.462147,126.416191 170.528884,127.053759 C162.469632,127.919777 153.922429,127.521302 144.439981,125.540197 C142.547838,125.144885 140.693489,126.358305 140.298177,128.250448 C139.902864,130.14259 141.116284,131.996939 143.008427,132.392252 C153.214006,134.524436 162.496484,134.95719 171.276774,134.013691 C177.734202,133.319799 182.699679,132.149217 189.979041,129.94617 C191.829165,129.386244 192.875076,127.432512 192.315149,125.582388 C191.755223,123.732264 189.801491,122.686353 187.951367,123.246279 Z" id="Path" fill="#59555F"></path>
                        <path d="M124.421204,106.326225 C114.573204,97.2962248 78.6562039,77.1262248 81.1712039,1.50622479 C76.9032039,1.50622479 66.5862039,7.02622479 50.9962039,8.02622479 C34.6222039,7.53622479 34.8922039,6.05622479 30.5562039,3.61622479 C30.4392039,3.54622479 30.3042039,3.44622479 30.1922039,3.37622479 C23.3912039,-1.20377521 26.4502039,71.7262248 21.5692039,84.6462248 C17.6302039,95.0862248 10.2432039,110.726225 10.2432039,129.786225 C13.6902039,135.806225 47.6682039,132.796225 58.5012039,132.796225 C63.5692039,105.826225 103.299204,126.386225 111.849204,123.876225 C119.353204,121.676225 124.421204,117.356225 124.421204,106.326225 Z" id="Path" fill="#1D1D20"></path>
                        <path d="M112.352204,73.8262248 C101.086204,64.9962248 96.7612039,22.0662248 96.2582039,1.50622479 C98.2702039,1.00622479 98.7732039,-0.393775206 100.282204,0.106224794 C101.790204,0.606224794 101.790204,6.62622479 102.293204,11.6362248 C102.844204,17.1262248 106.819204,34.2062248 108.831204,45.7462248 C110.843204,57.2762248 112.854204,64.2962248 120.398204,73.8262248 C126.433204,81.4462248 150.070204,89.2762248 157.614204,95.7962248 C156.776204,95.6262248 154.596204,94.4862248 152.585204,94.8862248 C150.070204,95.3962248 150.573204,95.8962248 147.555204,95.8962248 C144.538204,95.8962248 126.433204,84.8562248 112.352204,73.8262248 Z" id="Path" fill="#1D1D20"></path>
                        <path d="M80.0300788,25.3618522 C77.9079958,26.4505018 78.3703324,29.609468 80.7153906,30.0443204 L93.7770273,32.4663858 L80.253863,37.8006097 C78.0659688,38.6636264 78.1720143,41.7955183 80.4132738,42.5085644 L98.0098294,48.1068255 L82.6128607,55.4178891 C80.3484757,56.4931048 80.8991437,59.8605774 83.3880727,60.1585046 L102.330633,62.425947 L89.2289477,72.2241699 C87.3035575,73.6640916 88.3219365,76.7262248 90.7262039,76.7262248 L110.707271,76.7262248 L97.0331645,89.9811585 C95.2263852,91.7325519 96.8474323,94.7550222 99.3059477,94.2188021 L125.119913,88.5885892 L114.84926,102.855613 C113.330388,104.965487 115.640787,107.704047 117.976298,106.562152 L143.624298,94.0221519 C144.86469,93.4156911 145.378592,91.9185217 144.772131,90.6781304 C144.16567,89.4377391 142.668501,88.9238369 141.428109,89.5302977 L124.723139,97.697809 L132.988148,86.2168363 C134.327286,84.3566321 132.665897,81.82521 130.42646,82.3136475 L106.81398,87.4637007 L118.618243,76.0212911 C120.230983,74.4579893 119.124276,71.7262248 116.878204,71.7262248 L98.2433792,71.7262248 L110.32846,62.6882797 C112.135492,61.3368735 111.368812,58.4721322 109.128335,58.203945 L92.575072,56.2225037 L105.880547,49.9045605 C107.929812,48.9314919 107.727923,45.9516481 105.566134,45.2638852 L88.6241386,39.8738693 L103.713545,33.9218399 C106.049501,33.00042 105.721043,29.5959693 103.252017,29.1381291 L88.8345302,26.4646437 L99.914329,20.7805974 C101.932447,19.7452829 101.639743,16.7736334 99.4584131,16.1519602 L86.1285516,12.3529844 L99.5616503,7.88863967 C100.871899,7.45319277 101.581066,6.03802699 101.145619,4.72777844 C100.710172,3.41752988 99.2950061,2.70836302 97.9847576,3.14380992 L76.8617576,10.1638099 C74.5273095,10.9396384 74.5992067,14.266246 76.9649948,14.9404894 L91.9946586,19.2239045 L80.0300788,25.3618522 Z" id="Path" fill="#000000"></path>
                    </g>
                    <polygon id="Path" fill="#2A1B16" fill-rule="nonzero" points="58.3857961 378.028448 102.526487 36.0716003 172.824 25.8965233 173.5 8.65718408 211.486 8.65718408 211 0 309.5 22.6048695 309.615 28.3445826 336.5 36.0716003 400 378.028448 316.824479 385.264719 319.975401 393.97175 250 397.747589 250 404 154.669316 404 154.501 390.518625"></polygon>
                </g>
                <g id="upper-limb" transform="translate(-0.000000, 273.873000)" fill-rule="nonzero">
                    <path d="M60.5005,163.5 C65.5863,99.137 85,-2.84217094e-14 85,-2.84217094e-14 L428.5,-2.84217094e-14 C428.5,-2.84217094e-14 518.667,253.166 470,323 C421.333,392.833 161,350 60.5003,350 C-17.1616,350 54.7634,236.106 60.5005,163.5 Z" id="Path" fill="#17100F"></path>
                    <path d="M93.7312728,291.895706 C70.9019183,332.588534 49.6190786,399.875946 35.5144513,470.502967 C21.0943279,542.709791 16.7699169,602.759446 27.5553995,632.582431 C34.5050366,651.798903 55.7168591,661.743138 74.9333311,654.7935 C94.1498031,647.843863 104.094038,626.632041 97.1444005,607.415569 C97.0316469,607.103794 96.7745293,606.037743 96.5101509,604.360948 C96.1362096,601.989262 95.84882,598.995063 95.6784265,595.462479 C95.3045821,587.711966 95.5175263,577.947536 96.3328789,566.625383 C98.0020853,543.446441 102.100708,514.943164 108.081524,484.995033 C120.798262,421.317681 139.959348,360.738364 158.268727,328.102294 C168.2669,310.280768 161.92482,287.728446 144.103294,277.730273 C126.281768,267.7321 103.729446,274.07418 93.7312728,291.895706 Z" id="Path" fill="#EBBAAA"></path>
                    <path d="M351.731396,328.102514 C370.040966,360.738401 389.202121,421.317476 401.918971,484.995069 C407.899803,514.943129 411.998466,543.446441 413.667732,566.625468 C414.483112,577.947641 414.69609,587.712107 414.322282,595.462665 C414.151905,598.995279 413.864531,601.98951 413.490603,604.36123 C413.226231,606.038072 412.969113,607.10417 412.856348,607.415989 C405.906942,626.632544 415.851433,647.844247 435.067989,654.793652 C454.284544,661.743058 475.496247,651.798567 482.445652,632.582011 C493.230693,602.759122 488.90613,542.709282 474.486029,470.502931 C460.381257,399.875542 439.098302,332.588276 416.268604,291.895486 C406.270309,274.074028 383.717944,267.732102 365.896486,277.730396 C348.075028,287.728691 341.733102,310.281056 351.731396,328.102514 Z" id="Path" fill="#EBBAAA"></path>
                    <ellipse id="Oval" fill="#E1CAB3" cx="255" cy="224" rx="160" ry="65"></ellipse>
                    <path d="M420,224 C420,259.898 348.366,289 260,289 L260,159 C348.366,159 420,188.101 420,224 Z" id="Path" fill="#D1B69B"></path>
                    <rect id="Rectangle" fill="#EBBAAA" x="220.001" y="107" width="70" height="186" rx="35"></rect>
                    <path d="M449,254 C419.183,194.683 288,188 288,188 L288,603.999 L403.212,603.999 C460.275,603.999 505.638,556.369 499.97,499.588 C491.777,417.513 476.288,308.284 449,254 Z" id="Path" fill="#52383D"></path>
                    <path d="M61,254 C90.817,194.683 222,188 222,188 L222,603.999 L106.788,603.999 C49.7246,603.999 4.3615,556.369 10.0296,499.588 C18.2228,417.513 33.7125,308.284 61,254 Z" id="Path" fill="#52383D"></path>
                    <path d="M382,530 L510.000077,520 C510.000077,520 510.258,588.098 481,612 C446.776,639.958 382,612 382,612 L382,530 Z" id="Path" fill="#E1CAB3"></path>
                    <path d="M128,520 L-2.7000624e-13,520 C-2.7000624e-13,520 -0.257414,588.098 29.0006,612 C63.225,639.958 128,612 128,612 L128,520 Z" id="Path" fill="#E1CAB3"></path>
                    <polygon id="Path" fill="#413034" points="434.998 649 394.5 200 297 177 167 406 269.998 699"></polygon>
                    <path d="M168,414.917 L105.5,326.306 C105.5,326.306 190.949,312.621 241.5,261.093 C283.5,218.281 289,168.5 289,168.5 C289,168.5 418,168.5 450,249.644 C450,249.644 439.592,337.06 342,389.031 C260.001,432.698 168,414.917 168,414.917 Z" id="Path" fill="#D1B69B"></path>
                    <polygon id="Path" fill="#52383D" points="75 649 115.498 203.558641 212.998 177 342.998 406 240 699"></polygon>
                    <path d="M341,414.917 L403.5,326.306 C403.5,326.306 318.051,312.621 267.5,261.093 C225.5,218.281 220,168.5 220,168.5 C220,168.5 91,168.5 59,249.644 C59,249.644 69.4076,337.06 167,389.031 C248.999,432.698 341,414.917 341,414.917 Z" id="Path" fill="#E1CAB3"></path>
                    <circle id="Oval" fill="#C4C4C4" transform="translate(194.765000, 509.471000) rotate(15.000000) translate(-194.765000, -509.471000) " cx="194.765" cy="509.471" r="9.87807"></circle>
                    <circle id="Oval" fill="#C4C4C4" transform="translate(216.254000, 445.866000) rotate(15.000000) translate(-216.254000, -445.866000) " cx="216.254" cy="445.866" r="9.87807"></circle>
                    <circle id="Oval" fill="#C4C4C4" transform="translate(170.624000, 569.697000) rotate(15.000000) translate(-170.624000, -569.697000) " cx="170.624" cy="569.697" r="9.87807"></circle>
                    <circle id="Oval" fill="#C4C4C4" transform="translate(267.794000, 530.079000) rotate(15.000000) translate(-267.794000, -530.079000) " cx="267.794" cy="530.079" r="9.87807"></circle>
                    <circle id="Oval" fill="#C4C4C4" transform="translate(289.283000, 466.475000) rotate(15.000000) translate(-289.283000, -466.475000) " cx="289.283" cy="466.475" r="9.87807"></circle>
                    <circle id="Oval" fill="#C4C4C4" transform="translate(243.654000, 590.305000) rotate(15.000000) translate(-243.654000, -590.305000) " cx="243.654" cy="590.305" r="9.87807"></circle>
                </g>
                <g id="head" transform="translate(73.000000, 0.000000)">
                    <path d="M317.001,314.872 C339.092,314.872 357.001,296.964 357.001,274.872 C357.001,252.781 339.092,234.872 317.001,234.872 C294.909,234.872 277.001,252.781 277.001,274.872 C277.001,296.964 294.909,314.872 317.001,314.872 Z" id="Path" fill="#E4C1C1" fill-rule="nonzero"></path>
                    <path d="M47.001,314.872 C24.9093,314.872 7.0007,296.964 7.0007,274.872 C7.0007,252.781 24.9093,234.872 47.001,234.872 C69.092,234.872 87.001,252.781 87.001,274.872 C87.001,296.964 69.092,314.872 47.001,314.872 Z" id="Path" fill="#E4C1C1" fill-rule="nonzero"></path>
                    <path d="M42.001,187.872 C42.001,110.552 104.681,47.8719 182.001,47.8719 C259.321,47.8719 322.001,110.552 322.001,187.872 L322.001,249.491 C322.001,265.667 319.755,281.765 315.329,297.324 L296.984,361.811 C282.495,412.739 235.974,447.872 183.025,447.872 C131.003,447.872 85.067,413.937 69.778,364.213 L49.721,298.98 C44.603,282.335 42.001,265.019 42.001,247.604 L42.001,187.872 Z" id="Path" fill="#F4D5CC" fill-rule="nonzero"></path>
                    <g id="Group-3" transform="translate(142.000000, 329.873000)">
                        <mask id="mask-2" fill="white">
                            <use xlink:href="#path-1"></use>
                        </mask>
                        <use id="Path" fill="#393939" xlink:href="#path-1"></use>
                        <ellipse id="Oval" fill="#FF6C6C" fill-rule="nonzero" mask="url(#mask-2)" transform="translate(42.000000, 67.127000) scale(-1, 1) translate(-42.000000, -67.127000) " cx="42" cy="67.127" rx="34" ry="25"></ellipse>
                        <rect id="Rectangle" fill="#FFFFFF" fill-rule="nonzero" mask="url(#mask-2)" transform="translate(41.500000, 11.500000) scale(-1, 1) translate(-41.500000, -11.500000) " x="-4" y="0" width="91" height="23"></rect>
                    </g>
                    <circle id="Oval" fill="#F2CACA" fill-rule="nonzero" cx="100.001" cy="299.872" r="30"></circle>
                    <path d="M236.503317,229.34717 L266.503317,232.34817 C269.251027,232.623032 271.701307,230.618393 271.97617,227.870683 C272.251032,225.122973 270.246393,222.672693 267.498683,222.39783 L237.498683,219.39683 C234.750973,219.121968 232.300693,221.126607 232.02583,223.874317 C231.750968,226.622027 233.755607,229.072307 236.503317,229.34717 Z" id="Path" fill="#000000" fill-rule="nonzero"></path>
                    <path d="M126.503317,219.39683 L96.5033172,222.39783 C93.7556069,222.672693 91.7509679,225.122973 92.0258305,227.870683 C92.3006931,230.618393 94.7509725,232.623032 97.4986828,232.34817 L127.498683,229.34717 C130.246393,229.072307 132.251032,226.622027 131.97617,223.874317 C131.701307,221.126607 129.251027,219.121968 126.503317,219.39683 Z" id="Path" fill="#000000" fill-rule="nonzero"></path>
                    <path d="M230.001,227.873 L230.001,257.873 C230.001,264.500417 235.373583,269.873 242.001,269.873 C248.628417,269.873 254.001,264.500417 254.001,257.873 L254.001,227.873 C254.001,221.245583 248.628417,215.873 242.001,215.873 C235.373583,215.873 230.001,221.245583 230.001,227.873 Z" id="Path" fill="#000000" fill-rule="nonzero"></path>
                    <path d="M110.004,227.873 L110.004,257.873 C110.004,264.500417 115.376583,269.873 122.004,269.873 C128.631417,269.873 134.004,264.500417 134.004,257.873 L134.004,227.873 C134.004,221.245583 128.631417,215.873 122.004,215.873 C115.376583,215.873 110.004,221.245583 110.004,227.873 Z" id="Path" fill="#000000" fill-rule="nonzero"></path>
                    <path d="M172.132696,259.710757 C171.802657,262.103905 171.429587,263.718739 169.659906,270.789916 C169.23091,272.504073 168.926433,273.748126 168.634342,274.996309 C166.472106,284.236126 165.803956,290.552859 167.21691,296.41429 C169.42984,305.5943 176.738551,310.872 187.501,310.872 L187.501,293.872 C186.372227,293.872 185.486847,293.766877 184.833515,293.591439 C184.438783,293.485442 184.212278,293.380684 184.093214,293.294707 C183.996364,293.22477 183.895522,293.060986 183.743512,292.430393 C183.14834,289.961412 183.607565,285.619869 185.18715,278.869878 C185.455442,277.723394 185.741634,276.554051 186.151293,274.917162 C188.117849,267.059324 188.520542,265.31627 188.973304,262.033243 L172.132696,259.710757 Z" id="Path" fill="#EBBAAA" fill-rule="nonzero"></path>
                    <circle id="Oval" fill="#F2CACA" fill-rule="nonzero" cx="264.001" cy="299.872" r="30"></circle>
                    <path d="M214.508281,189.443013 C226.264394,184.0356 245.014263,182.57732 257.895688,184.908127 C261.418633,185.545635 264.645867,186.758798 267.546077,188.380292 C269.091904,189.244557 270.437131,190.164731 271.564496,191.07087 C271.942184,191.374442 272.260306,191.648596 272.516814,191.884231 C272.642907,192.000064 272.704068,192.059653 272.698363,192.053784 C275.007898,194.430064 278.806503,194.484172 281.182784,192.174637 C283.559064,189.865102 283.613172,186.066497 281.303637,183.690216 C280.85142,183.22493 280.108637,182.54259 279.082299,181.717654 C277.45189,180.407186 275.556599,179.110752 273.402104,177.906184 C269.392689,175.664538 264.925917,173.985416 260.032402,173.09989 C244.89403,170.360704 223.693459,172.009589 209.493719,178.540987 C206.483208,179.92572 205.165254,183.48877 206.549987,186.499281 C207.93472,189.509792 211.49777,190.827746 214.508281,189.443013 Z" id="Path" fill="#62360D" fill-rule="nonzero"></path>
                    <path d="M154.50914,178.540922 C140.308545,172.009574 119.108821,170.360731 103.970688,173.099873 C99.0767737,173.985394 94.6098237,175.664528 90.6004257,177.906207 C88.4459065,179.110812 86.5506501,180.407292 84.9203165,181.717815 C83.8940061,182.542802 83.1512524,183.225197 82.6990467,183.690542 C80.3896911,186.066997 80.4440863,189.865598 82.8205418,192.174953 C85.1969973,194.484309 88.9955978,194.429914 91.3049533,192.053458 C91.2992219,192.059356 91.3603459,191.999794 91.4863947,191.883988 C91.7428412,191.648381 92.0608983,191.374255 92.4385204,191.070708 C93.5657191,190.164624 94.9108044,189.244497 96.4565372,188.380268 C99.3566337,186.758807 102.58394,185.545657 106.107312,184.908127 C118.988654,182.577335 137.737758,184.035577 149.49486,189.443078 C152.505407,190.827733 156.068422,189.509687 157.453078,186.49914 C158.837733,183.488593 157.519687,179.925578 154.50914,178.540922 Z" id="Path" fill="#62360D" fill-rule="nonzero"></path>
                    <path d="M96.719,137.511 C123.424,106.082 173.986,93.6338 186.874,84.6708 C191.832,82.2591 191.831,45.7861 179.934,36.3705 C163.576,23.424 105.579,48.8193 79.802,73.2184 C54.026,97.6175 28.0047961,129.162 16.3857961,202.372 C15.143591,210.199256 10.4297,227.873 7.4297,257.873 C2.84217609,303.748239 7.4297,373.860094 7.4297,403.851 C7.4297,442.691 11.891,492.983 7.4297,537.3 C4.3858,567.536 0.000700000001,622.435 0.000700000001,696.628 C0.000700000001,713.571 47.352,718.695 50.06,705.093 C54.025,685.175 50.562,572.653 54.528,537.3 C58.9,498.335 65.922,471.073 60.47,434.724 C55.017,398.374 61.946,380.873 58.47,349.873 C54.994,318.873 49.069,266.917 50.06,234.551 C51.052,202.185 69.638,169.381 96.719,137.511 Z" id="Path" fill="#311E1C" fill-rule="nonzero"></path>
                    <path d="M60.501,555.373 C54.101,524.973 38,311.873 38,311.873 C38,311.873 49.293,315.675 54.5,314.373 C61.71,346.18 74.567,388.339 98,412.373 C103.667,434.539 115.801,484.473 119.001,514.873 C123.001,552.873 119.001,671.873 110.001,671.873 C89.108,671.873 74.407,674.873 70.501,662.373 C63.001,638.373 68.501,593.373 60.501,555.373 Z" id="Path" fill="#311E1C" fill-rule="nonzero"></path>
                    <path d="M263.501,125.873 C233.953,97.5063 186.5,91.3731 182,84.3731 C177.333,68.3731 176.413,41.4847 197,34.3732 C224.501,24.8736 297,63.3726 321,125.873 C338.89,172.461 354.742,224.591 358.5,290.373 C364.136,389.034 327.649,484.072 330.5,583.873 C332,636.373 351.757,659.523 321,683.873 C293.11,705.952 251.998,707.827 230,679.873 C182,618.873 274.604,482.747 300.5,355.873 C303.847,339.476 308,322.039 309,313.873 C362.5,323.373 375.5,243.373 322,235.373 C322,201.815 283.989,145.542 263.501,125.873 Z" id="Path" fill="#311E1C" fill-rule="nonzero"></path>
                    <ellipse id="Oval" fill="#D29A48" fill-rule="nonzero" cx="325.16542" cy="316.1716" rx="12.1647" ry="12.1716"></ellipse>
                    <path d="M189.142,0.0486565179 C261.266,2.06004992 339.678,85.1392999 366,134.873 C379.89,161.116 389.155,203.372 345,203.372 C304.155,140.372 213,66.3386999 112,92.1228999 C58,105.909 39.408,128.873 39.408,128.873 C39.408,128.873 34.291,87.3872999 55,63.3724999 C85.025,28.5551999 138.169,-1.37287008 189.142,0.0486565179 Z" id="Path" fill="#E1CAB3"></path>
                </g>
            </g>
        </g>
    </g>
</svg>