<?xml version="1.0" encoding="UTF-8"?>
<svg width="537px" height="1374px" viewBox="0 0 537 1374" version="1.1" xmlns="http://www.w3.org/2000/svg" xmlns:xlink="http://www.w3.org/1999/xlink">
    <!-- Generator: Sketch 55.2 (78181) - https://sketchapp.com -->
    <title>gee_me_099</title>
    <desc>Created with Sketch.</desc>
    <g id="GEE!-ME" stroke="none" stroke-width="1" fill="none" fill-rule="evenodd">
        <g id="gee_me_099" transform="translate(-329.000000, -115.000000)" fill-rule="nonzero">
            <g transform="translate(314.000000, 115.000000)">
                <g id="lower-limb" transform="translate(99.970168, 867.000000)">
                    <path d="M174.174832,115.92 C237.957832,115.92 289.664832,91.427 289.664832,61.214 C289.664832,31.001 237.957832,6.508 174.174832,6.508 C110.390832,6.508 58.684832,31.001 58.684832,61.214 C58.684832,91.427 110.390832,115.92 174.174832,115.92 Z" id="Path" fill="#35383E"></path>
                    <path d="M232.355832,270.92 L232.355832,438.93 C232.355832,453.841688 244.444144,465.93 259.355832,465.93 C274.26752,465.93 286.355832,453.841688 286.355832,438.93 L286.355832,270.92 C286.355832,256.008312 274.26752,243.92 259.355832,243.92 C244.444144,243.92 232.355832,256.008312 232.355832,270.92 Z" id="Path" fill="#DCE1E9"></path>
                    <path d="M96.4606288,273.853171 L113.189629,426.933171 C114.809574,441.756606 128.139568,452.460149 142.963003,450.840203 C157.786438,449.220258 168.489981,435.890264 166.870035,421.066829 L150.141035,267.986829 C148.52109,253.163394 135.191096,242.459851 120.367661,244.079797 C105.544226,245.699742 94.8406833,259.029736 96.4606288,273.853171 Z" id="Path" fill="#DCE1E9"></path>
                    <path d="M114.844832,406.37 C111.296832,400.91 106.031832,400.63 101.766832,397.49 C99.673832,400.47 99.830832,404.84 97.936832,410.68 L85.621832,425.89 L64.213832,448.82 L43.809832,459.89 L56.115832,474.08 C64.357832,467.65 111.131832,417.85 114.844832,406.37 Z" id="Path" fill="#3B3937"></path>
                    <path d="M187.159832,481.52 C187.159832,481.52 187.621832,456.65 182.210832,442.93 C176.800832,429.2 171.039832,393.74 171.039832,393.74 C171.039832,393.74 161.742832,403.88 144.264832,404.04 L111.326832,404.32 C111.326832,404.32 82.649832,444.36 74.221832,449.73 C65.793832,455.1 18.053832,465.52 18.053832,465.52 C8.98683199,465.6 1.69983199,473.01 1.77819567,482.08 L1.85183199,490.44 L101.422832,489.57 L187.159832,481.52 Z" id="Path" fill="#1C1B19"></path>
                    <path d="M100.516832,426 C102.982832,422.14 108.010832,413.83 108.389832,411.43 C131.422832,415.23 162.417832,414.46 173.873832,409.36 C176.951832,418.33 178.529832,430.5 178.529832,430.5 C176.564832,434.52 154.516832,442.43 146.029832,444 C141.499832,440.54 138.136832,439.67 134.618832,437.7 C129.100832,434.61 110.687832,426.58 100.516832,426 Z" id="Path" fill="#D0271C"></path>
                    <path d="M151.029832,462 C154.529832,460 174.573832,452.58 183.529832,447.5 C187.957832,450.66 187.400832,469.74 187.496832,480.74 L143.515832,483.13 C145.942832,474.77 149.863832,463.17 151.029832,462 Z" id="Path" fill="#D0271C"></path>
                    <path d="M123.937832,457.75 C119.230832,459.3 115.371832,459.32 113.104832,457.79 C107.260832,453.77 110.513832,447.01 111.903832,444.36 C109.322832,447.65 106.759832,450.96 104.810832,454.52 C101.734832,460.08 100.619832,466.07 103.083832,469.74 C107.504832,476.37 117.101832,472.7 123.179832,469.62 L179.585832,441.07 L123.937832,457.75 Z" id="Path" fill="#D0271C"></path>
                    <path d="M43.384832,468.5 C30.897832,470.11 14.902832,470.75 11.868832,466.77 L32.314832,460.6 L59.222832,449.86 L66.252832,453.3 L65.278832,456.31 L80.361832,465.68 L73.939832,474.73 L73.840832,474.69 C68.912832,472.53 55.993832,466.87 43.384832,468.5 Z" id="Path" fill="#D0271C"></path>
                    <path d="M103.866953,411.638652 L98.5509529,409.568652 C96.9154455,408.931801 95.0733349,409.741372 94.4364838,411.376879 C93.7996327,413.012387 94.6092036,414.854497 96.2447111,415.491348 L101.560711,417.561348 C103.196219,418.198199 105.038329,417.388628 105.67518,415.753121 C106.312031,414.117613 105.50246,412.275503 103.866953,411.638652 Z" id="Path" fill="#1C1B19"></path>
                    <path d="M95.9459529,420.708652 L90.6299529,418.638652 C88.9944455,418.001801 87.1523349,418.811372 86.5154838,420.446879 C85.8786327,422.082387 86.6882036,423.924497 88.3237111,424.561348 L93.6397111,426.631348 C95.2752185,427.268199 97.1173291,426.458628 97.7541802,424.823121 C98.3910313,423.187613 97.5814603,421.345503 95.9459529,420.708652 Z" id="Path" fill="#1C1B19"></path>
                    <path d="M89.0241413,429.768725 L83.7091413,427.698725 C82.0736744,427.06177 80.2315123,427.871224 79.5945572,429.506691 C78.957602,431.142158 79.7670558,432.98432 81.4025227,433.621275 L86.7175227,435.691275 C88.3529896,436.32823 90.1951517,435.518776 90.8321068,433.883309 C91.4690619,432.247842 90.6596082,430.40568 89.0241413,429.768725 Z" id="Path" fill="#1C1B19"></path>
                    <path d="M81.1031413,438.838725 L75.7881413,436.768725 C74.1526744,436.13177 72.3105123,436.941224 71.6735572,438.576691 C71.036602,440.212158 71.8460558,442.05432 73.4815227,442.691275 L78.7965227,444.761275 C80.4319896,445.39823 82.2741517,444.588776 82.9111068,442.953309 C83.5480619,441.317842 82.7386082,439.47568 81.1031413,438.838725 Z" id="Path" fill="#1C1B19"></path>
                    <path d="M69.1821413,447.938725 L63.8671413,445.868725 C62.2316744,445.23177 60.3895123,446.041224 59.7525572,447.676691 C59.115602,449.312158 59.9250558,451.15432 61.5605227,451.791275 L66.8755227,453.861275 C68.5109896,454.49823 70.3531517,453.688776 70.9901068,452.053309 C71.6270619,450.417842 70.8176082,448.57568 69.1821413,447.938725 Z" id="Path" fill="#1C1B19"></path>
                    <path d="M188.364832,480.48 L94.655832,485.54 L1.40383199,482.11 L0.0400319917,494.32 C-0.373768008,498.02 2.47183199,501.28 6.19583199,501.38 L92.869832,503.56 L141.248832,503.67 L189.608832,501.66 L188.364832,480.48 Z" id="Path" fill="#D0CEC1"></path>
                    <path d="M189.29859,503.727321 L189.045074,497.732679 L161.959503,498.931367 L150.769685,499.401241 C137.173737,499.951534 127.015833,500.27432 120.513094,500.33011 L118.69697,500.342491 L115.808606,500.351405 C83.3348535,500.388796 8.55206383,498.546181 1.49146068,496.489688 L-0.186396696,502.250312 C8.03872104,504.645986 88.5428931,506.551025 119.637447,506.337026 L122.14784,506.312123 L125.366298,506.255574 C131.900875,506.118489 140.739956,505.814735 151.796011,505.364519 L161.027922,504.977148 L189.29859,503.727321 Z" id="Path" fill="#D0271C"></path>
                    <path d="M284.849832,405.37 C288.397832,399.91 293.663832,399.63 297.928832,396.49 C300.020832,399.47 299.864832,403.84 301.758832,409.68 L314.073832,424.89 L335.481832,447.82 L355.885832,458.89 L343.579832,473.08 C335.337832,466.65 288.563832,416.85 284.849832,405.37 Z" id="Path" fill="#3B3937"></path>
                    <path d="M212.534832,480.52 C212.534832,480.52 212.073832,455.65 217.484832,441.93 C222.894832,428.2 228.655832,392.74 228.655832,392.74 C228.655832,392.74 237.952832,402.88 255.430832,403.04 L288.368832,403.32 C288.368832,403.32 317.045832,443.36 325.473832,448.73 C333.901832,454.1 381.640832,464.52 381.640832,464.52 C390.708832,464.6 397.995832,472.01 397.917468,481.08 L397.843832,489.44 L298.272832,488.57 L212.534832,480.52 Z" id="Path" fill="#1C1B19"></path>
                    <path d="M299.178832,425 C296.712832,421.14 291.684832,412.83 291.305832,410.43 C268.271832,414.23 237.277832,413.46 225.821832,408.36 C222.743832,417.33 221.165832,429.5 221.165832,429.5 C223.130832,433.52 245.178832,441.43 253.665832,443 C258.195832,439.54 261.558832,438.67 265.075832,436.7 C270.594832,433.61 289.006832,425.58 299.178832,425 Z" id="Path" fill="#D0271C"></path>
                    <path d="M248.665832,461 C245.165832,459 225.121832,451.58 216.165832,446.5 C211.737832,449.66 212.294832,468.74 212.198832,479.74 L256.179832,482.13 C253.751832,473.77 249.831832,462.17 248.665832,461 Z" id="Path" fill="#D0271C"></path>
                    <path d="M275.756832,456.75 C280.464832,458.3 284.322832,458.32 286.590832,456.79 C292.434832,452.77 289.181832,446.01 287.790832,443.36 C290.372832,446.65 292.935832,449.96 294.884832,453.52 C297.960832,459.08 299.075832,465.07 296.611832,468.74 C292.190832,475.37 282.593832,471.7 276.515832,468.62 L220.108832,440.07 L275.756832,456.75 Z" id="Path" fill="#D0271C"></path>
                    <path d="M356.310832,467.5 C368.796832,469.11 384.791832,469.75 387.826832,465.77 L367.379832,459.6 L340.472832,448.86 L333.442832,452.3 L334.415832,455.31 L319.333832,464.68 L325.754832,473.73 L325.854832,473.69 C330.782832,471.53 343.700832,465.87 356.310832,467.5 Z" id="Path" fill="#D0271C"></path>
                    <path d="M298.135141,416.561275 L303.450141,414.491275 C305.085608,413.85432 305.895062,412.012158 305.258107,410.376691 C304.621152,408.741224 302.77899,407.93177 301.143523,408.568725 L295.828523,410.638725 C294.193056,411.27568 293.383602,413.117842 294.020557,414.753309 C294.657512,416.388776 296.499674,417.19823 298.135141,416.561275 Z" id="Path" fill="#1C1B19"></path>
                    <path d="M306.056141,425.631275 L311.371141,423.561275 C313.006608,422.92432 313.816062,421.082158 313.179107,419.446691 C312.542152,417.811224 310.69999,417.00177 309.064523,417.638725 L303.749523,419.708725 C302.114056,420.34568 301.304602,422.187842 301.941557,423.823309 C302.578512,425.458776 304.420674,426.26823 306.056141,425.631275 Z" id="Path" fill="#1C1B19"></path>
                    <path d="M312.976953,434.691348 L318.292953,432.621348 C319.92846,431.984497 320.738031,430.142387 320.10118,428.506879 C319.464329,426.871372 317.622219,426.061801 315.986711,426.698652 L310.670711,428.768652 C309.035204,429.405503 308.225633,431.247613 308.862484,432.883121 C309.499335,434.518628 311.341445,435.328199 312.976953,434.691348 Z" id="Path" fill="#1C1B19"></path>
                    <path d="M320.897953,443.761348 L326.213953,441.691348 C327.84946,441.054497 328.659031,439.212387 328.02218,437.576879 C327.385329,435.941372 325.543219,435.131801 323.907711,435.768652 L318.591711,437.838652 C316.956204,438.475503 316.146633,440.317613 316.783484,441.953121 C317.420335,443.588628 319.262445,444.398199 320.897953,443.761348 Z" id="Path" fill="#1C1B19"></path>
                    <path d="M332.818953,452.861348 L338.134953,450.791348 C339.77046,450.154497 340.580031,448.312387 339.94318,446.676879 C339.306329,445.041372 337.464219,444.231801 335.828711,444.868652 L330.512711,446.938652 C328.877204,447.575503 328.067633,449.417613 328.704484,451.053121 C329.341335,452.688628 331.183445,453.498199 332.818953,452.861348 Z" id="Path" fill="#1C1B19"></path>
                    <path d="M211.330832,479.48 L305.038832,484.54 L398.291832,481.11 L399.655832,493.32 C400.068832,497.02 397.223832,500.28 393.498832,500.38 L306.825832,502.56 L258.446832,502.67 L210.086832,500.66 L211.330832,479.48 Z" id="Path" fill="#D0CEC1"></path>
                    <path d="M210.650598,496.732679 L210.397066,502.727321 L238.667213,503.977147 L251.019178,504.490005 L259.289039,504.80426 C267.519797,505.100895 274.025219,505.279446 278.746304,505.326334 L279.130093,505.32989 C309.519065,505.589447 391.572963,503.67019 399.881707,501.250328 L398.203957,495.489672 C390.924394,497.609792 311.670395,499.502556 280.997652,499.34249 L278.414981,499.322489 L275.415114,499.276159 C268.85243,499.150963 259.716227,498.840754 248.137155,498.369236 L241.252933,498.082307 L210.650598,496.732679 Z" id="Path" fill="#D0271C"></path>
                    <polygon id="Path" fill="#35383E" points="50.029832 0 185.029832 0 180.029832 359.79 172.029832 388 95.529832 384 83.915832 353.3"></polygon>
                    <polygon id="Path" fill="#35383E" points="183.744832 6.021 319.201832 6.021 314.029832 352 303.029832 381 225.029832 394.42 217.768832 360"></polygon>
                    <polygon id="Path" fill="#1D1F23" points="92.029832 376 174.029832 376 174.029832 400 96.772832 400"></polygon>
                    <polygon id="Path" fill="#1D1F23" points="222.029832 376 304.029832 376 300.029832 398 225.772832 398"></polygon>
                </g>
                <g id="upper-limb" transform="translate(0.081526, 413.320000)">
                    <path d="M98.4175877,426.830533 C97.8199691,411.351264 99.2859765,390.134082 102.603619,366.390686 L102.765595,365.239854 C109.739356,316.046009 123.284935,264.952746 136.185236,239.208844 L136.57595,238.436514 C145.871185,220.238469 138.654033,197.950761 120.455988,188.655525 C102.257943,179.360289 79.9702351,186.577442 70.6749992,204.775486 C53.4644533,238.469982 37.9061638,296.581522 29.7432215,353.140004 L29.4981292,354.853396 C25.4933063,383.103951 23.6730958,408.974964 24.4726766,429.685374 C24.9432813,441.874781 26.3073008,452.510554 28.8421401,461.720211 C32.7663212,475.977666 39.4481252,487.657515 51.6705116,495.648983 C68.7736562,506.831679 91.7038608,502.032207 102.886557,484.929063 C112.084458,470.861523 110.470009,452.851826 100.090112,440.679351 L99.7728884,440.312285 C99.1407861,437.195015 98.6398794,432.58824 98.4175877,426.830533 Z" id="Path" fill="#EBBAAA"></path>
                    <path d="M407.414341,215.047009 C426.004859,248.002629 441.033834,298.999701 448.856397,352.744684 C455.751361,400.116591 455.680464,442.956373 450.310313,458.57112 L450.145961,459.035938 C443.162838,478.240266 453.070083,499.469391 472.274412,506.452513 C491.478741,513.435636 512.707865,503.528391 519.690988,484.324062 C530.506389,454.58056 530.682732,401.158465 522.084801,342.086316 C513.055598,280.0511 495.563935,220.69751 471.866607,178.688991 C461.826618,160.89099 439.259467,154.601878 421.461466,164.641867 C403.663464,174.681856 397.374352,197.249007 407.414341,215.047009 Z" id="Path" fill="#EBBAAA"></path>
                    <rect id="Rectangle" fill="#F1EDED" transform="translate(118.249832, 197.124298) rotate(18.000000) translate(-118.249832, -197.124298) " x="63.3138318" y="188.780798" width="109.872" height="16.687"></rect>
                    <rect id="Rectangle" fill="#F1EDED" transform="translate(439.834950, 217.742018) rotate(162.000000) translate(-439.834950, -217.742018) " x="384.89895" y="209.398518" width="109.872" height="16.687"></rect>
                    <path d="M152.471474,125.796 C153.306474,91.38 180.857474,63.592 215.263474,62.468 L295.587474,59.84 C302.132474,59.634 308.688474,59.974 315.171474,60.871 L393.578474,71.714 C428.169474,76.496 452.782474,107.768 449.299474,142.514 L434.466474,290.402 L441.908474,502.277 C441.980474,504.091 355.732474,502.37 353.918474,502.277 L215.263474,502.277 L136.454474,490.383 C134.712474,490.29 133.382474,488.775 133.527474,487.033 L148.926474,271.983 L152.471474,125.796 Z" id="Path" fill="#A6612E"></path>
                    <path d="M283.032474,149.454 C322.880474,149.454 355.182474,117.151 355.182474,77.303 C355.182474,37.456 322.880474,5.153 283.032474,5.153 C243.184474,5.153 210.881474,37.456 210.881474,77.303 C210.881474,117.151 243.184474,149.454 283.032474,149.454 Z" id="Path" fill="#9A4E16"></path>
                    <rect id="Rectangle" fill="#EBBAAA" x="243.865474" y="0" width="78.3349" height="118.533" rx="37.911"></rect>
                    <rect id="Rectangle" fill="#D1D6DF" transform="translate(122.804999, 248.072640) rotate(16.500000) translate(-122.804999, -248.072640) " x="48.9489994" y="68.2511403" width="147.712" height="359.643" rx="73.856"></rect>
                    <path d="M18.1194743,456.68 C11.7194743,438.28 15.9185743,349.68 23.9184743,319.68 L132.119474,338.68 C119.918474,376.68 117.918474,426.68 108.918474,475.68 L108.765474,475.687 C87.6193743,476.694 26.1000743,479.624 18.1194743,456.68 Z" id="Path" fill="#D1D6DF"></path>
                    <polygon id="Path" fill="#BAC1CF" points="44.9184743 317.68 117.418474 339.68 38.4184743 332.18"></polygon>
                    <polygon id="Path" fill="#BAC1CF" points="62.9184743 346.68 118.918474 343.68 70.4184743 359.18"></polygon>
                    <circle id="Oval" fill="#9CA8BB" cx="90.4184743" cy="459.18" r="7.5"></circle>
                    <rect id="Rectangle" fill="#D1D6DF" transform="translate(432.817894, 255.973726) scale(-1, 1) rotate(18.999984) translate(-432.817894, -255.973726) " x="353.825366" y="61.819658" width="157.985055" height="388.308136" rx="78.9925"></rect>
                    <path d="M268.918474,320.68 C268.124474,253.524 271.918474,169.332 271.918474,137.18 C264.918474,137.18 257.918474,136.18 252.918474,133.18 C253.188474,107.337 255.016474,80.835 244.033474,56.68 L158.509474,73.152 C145.187474,91.485 121.749474,146.259 117.988474,251.177 C114.226474,356.095 121.906474,459.118 117.988474,506.359 C134.445474,511.119 226.844474,526.983 280.918474,510.061 C280.918474,442.372 270.094474,420.098 268.918474,320.68 Z" id="Path" fill="#D6DCE7"></path>
                    <path d="M214.918474,493.68 C192.518474,495.28 140.918474,479.68 117.918474,471.68 L117.918474,505.68 C130.918474,515.68 164.640474,518.824 182.918474,521.68 C214.918474,526.68 242.918474,521.68 282.918474,515.68 L280.918474,485.18 C266.918474,488.18 237.318474,492.08 214.918474,493.68 Z" id="Path" fill="#C4CAD3"></path>
                    <path d="M545.918474,458.68 C552.318474,440.28 553.918474,375.68 545.918474,345.68 L431.918474,340.68 C444.119474,378.68 446.119474,428.68 455.119474,477.68 L455.272474,477.687 C476.418474,478.694 537.937474,481.624 545.918474,458.68 Z" id="Path" fill="#D1D6DF"></path>
                    <polygon id="Path" fill="#BAC1CF" points="512.418474 306.68 439.918474 328.68 518.918474 321.18"></polygon>
                    <polygon id="Path" fill="#BAC1CF" points="498.918474 338.68 442.918474 335.68 491.418474 351.18"></polygon>
                    <circle id="Oval" fill="#9CA8BB" transform="translate(473.619474, 461.180000) scale(-1, 1) translate(-473.619474, -461.180000) " cx="473.619474" cy="461.18" r="7.5"></circle>
                    <path d="M297.918474,323.18 C298.665474,258.197 296.918474,166.792 296.918474,135.68 C302.418474,135.68 308.368474,136.18 315.918474,133.68 C319.501474,107.08 329.182474,77.562 339.299474,54.68 L397.342474,64.04 C411.781474,66.368 424.542474,74.683 428.267474,88.826 C436.568474,120.34 442.656474,179.361 445.356474,256.805 C448.896474,358.328 454.231474,462.692 457.918474,508.405 C429.159474,512.498 354.800474,524.779 303.918474,508.405 C303.918474,442.906 296.812474,419.381 297.918474,323.18 Z" id="Path" fill="#D6DCE7"></path>
                    <path d="M268.918474,277.68 C243.318474,303.28 147.585474,366.347 116.918474,377.68 L116.918474,475.68 L183.918474,490.68 C183.918474,490.68 181.541474,461.839 195.918474,436.68 C219.918474,394.68 230.918474,366.68 268.918474,338.68 L268.918474,277.68 Z" id="Path" fill="#43519A"></path>
                    <path d="M427.918474,90.18 C415.918474,138.18 327.918474,235.68 297.918474,256.68 L297.918474,331.68 C384.918474,228.68 413.918474,200.68 440.418474,180.68 C440.418474,164.18 435.418474,104.18 427.918474,90.18 Z" id="Path" fill="#43519A"></path>
                    <path d="M215.918474,99.18 C210.918474,88.18 200.251474,72.18 196.918474,63.18 C193.918474,65.513 166.418474,66.68 137.918474,72.18 C104.520474,78.625 93.9184743,100.68 86.9184743,112.68 C79.9184743,124.68 57.9184743,193.18 54.4184743,220.68 C61.4184743,225.68 92.4185743,212.18 105.918474,198.18 C114.698474,189.075 124.418474,161.18 145.918474,143.18 C159.741474,131.607 221.313474,111.05 215.918474,99.18 Z" id="Path" fill="#43519A"></path>
                    <path d="M200.155474,29.68 C194.155474,43.68 192.488474,53.347 194.155474,66.68 C194.155474,88.052 235.397474,119.322 253.063474,133.75 C260.155474,105.68 260.155474,54.75 254.063474,54.75 C240.647474,54.75 215.155474,42.68 200.155474,29.68 Z" id="Path" fill="#C4CAD3"></path>
                    <path d="M368.777474,29.68 C374.777474,42.68 376.444474,53.347 374.777474,66.68 C374.777474,88.052 332.536474,120.322 314.869474,134.75 C307.777474,106.68 308.777474,54.75 314.869474,54.75 C328.286474,54.75 353.777474,42.68 368.777474,29.68 Z" id="Path" fill="#C4CAD3"></path>
                    <rect id="Rectangle" fill="#EAF0FA" transform="translate(314.418631, 196.180012) rotate(-3.000000) translate(-314.418631, -196.180012) " x="304.918631" y="192.680012" width="19" height="7" rx="3.5"></rect>
                    <rect id="Rectangle" fill="#EAF0FA" transform="translate(314.588631, 271.678012) rotate(-3.000000) translate(-314.588631, -271.678012) " x="305.088631" y="268.178012" width="19" height="7" rx="3.5"></rect>
                    <path d="M370.918474,488.68 C393.318474,490.28 436.918474,488.18 455.918474,472.68 L457.918474,507.68 C437.918474,512.68 410.418474,516.68 402.918474,516.68 C370.530474,516.68 342.918474,517.68 302.918474,511.68 L302.918474,482.18 C316.918474,485.18 348.518474,487.08 370.918474,488.68 Z" id="Path" fill="#C4CAD3"></path>
                    <rect id="Rectangle" fill="#EAF0FA" transform="translate(314.588631, 345.672012) rotate(-3.000000) translate(-314.588631, -345.672012) " x="305.088631" y="342.172012" width="19" height="7" rx="3.5"></rect>
                    <rect id="Rectangle" fill="#EAF0FA" transform="translate(316.588631, 416.672012) rotate(-3.000000) translate(-316.588631, -416.672012) " x="307.088631" y="413.172012" width="19" height="7" rx="3.5"></rect>
                    <circle id="Oval" fill="#9CA8BB" cx="253.418474" cy="196.18" r="7.5"></circle>
                    <rect id="Rectangle" fill="#9CA8BB" transform="translate(320.589278, 499.672421) rotate(5.500000) translate(-320.589278, -499.672421) " x="311.089278" y="496.172421" width="19" height="7" rx="3.5"></rect>
                    <circle id="Oval" fill="#9CA8BB" cx="251.418474" cy="269.18" r="7.5"></circle>
                    <circle id="Oval" fill="#9CA8BB" cx="252.418474" cy="347.18" r="7.5"></circle>
                    <circle id="Oval" fill="#9CA8BB" cx="258.418474" cy="419.18" r="7.5"></circle>
                    <circle id="Oval" fill="#9CA8BB" cx="267.418474" cy="500.18" r="7.5"></circle>
                    <polygon id="Path" fill="#EAF0FA" points="138.918474 343.68 156.918474 343.68 161.918474 429.68 142.918474 431.68"></polygon>
                    <polygon id="Path" fill="#EAF0FA" points="426.918474 345.68 408.918474 345.68 403.918474 431.68 422.918474 433.68"></polygon>
                </g>
                <g id="head" transform="translate(89.999900, 0.000000)">
                    <path d="M338.2671,346.533 C370.9991,346.533 397.5331,319.999 397.5331,287.267 C397.5331,254.535 370.9991,228 338.2671,228 C305.5351,228 279.0001,254.535 279.0001,287.267 C279.0001,319.999 305.5351,346.533 338.2671,346.533 Z" id="Path" fill="#EBBAAA"></path>
                    <path d="M59.2661,349.533 C26.5341,349.533 -1.53477231e-12,322.999 -1.53477231e-12,290.267 C-1.53477231e-12,257.535 26.5341,231 59.2661,231 C91.9981,231 118.5331,257.535 118.5331,290.267 C118.5331,322.999 91.9981,349.533 59.2661,349.533 Z" id="Path" fill="#EBBAAA"></path>
                    <path d="M41.0001,176.311 C41.0001,92.1921 109.1921,24 193.3111,24 C278.3531,24 346.9211,93.6384 345.6051,178.67 L343.2681,329.518 C342.0101,410.782 275.7741,476 194.5001,476 C115.6321,476 50.4601,414.47 45.9311,335.732 L41.0001,250 L41.0001,176.311 Z" id="Path" fill="#F4D4C9"></path>
                    <path d="M165.260819,392.730705 C184.849663,403.613396 207.969747,403.331444 232.91544,393.126388 C236.851236,391.51629 238.736586,387.020455 237.126488,383.08466 C235.51639,379.148864 231.020555,377.263514 227.08476,378.873612 C206.156151,387.435316 187.840274,387.65868 172.739381,379.269295 C169.022115,377.204147 164.334543,378.543454 162.269395,382.260719 C160.204247,385.977985 161.543554,390.665557 165.260819,392.730705 Z" id="Path" fill="#C99584"></path>
                    <path d="M197.1171,109.896 C120.9151,109.896 59.4291,109.896 55.3901,165.432 C49.3721,248.164 34.9841,254.819 24.0761,216.452 C22.4131,210.605 10.9138,171.495 10.6764,165.432 C14.9941,47.552 152.8981,5.1543 200.4111,5.1543 C239.3511,36.8407 273.3281,109.896 197.1171,109.896 Z" id="Path" fill="#272727"></path>
                    <path d="M33.3621,165.261 C33.0991,157.195 38.2471,150.486 44.6901,150.486 C51.3751,150.486 56.6081,157.682 55.9761,166.012 L45.3011,307.127 C45.1221,309.487 43.5421,311.279 41.6581,311.279 C39.6891,311.279 38.0781,309.342 37.9941,306.89 L33.3621,165.261 Z" id="Path" fill="#272727"></path>
                    <path d="M352.8661,164.598 C353.1301,156.894 347.9811,150.486 341.5381,150.486 C334.8531,150.486 329.6201,157.36 330.2521,165.315 L340.9271,300.099 C341.1061,302.352 342.6861,304.064 344.5701,304.064 C346.5391,304.064 348.1501,302.213 348.2341,299.872 L352.8661,164.598 Z" id="Path" fill="#272727"></path>
                    <path d="M192.4691,109.896 C270.9911,109.896 326.9631,117.627 330.2001,174.193 C338.2291,218.555 363.1831,285.511 381.7361,153.578 C377.2961,35.6987 238.4961,5.1543 189.5361,5.1543 C149.4101,36.8408 113.9371,109.896 192.4691,109.896 Z" id="Path" fill="#272727"></path>
                    <polygon id="Path" fill="#272727" points="74.0831 40.4332 60.1511 65.3152 194.6691 58.058 343.5991 88.6421 343.5991 74.1276 333.0301 69.4622 333.0301 58.058 319.5781 58.058 319.5781 40.4332 302.2831 40.4332 298.4401 26.9555 283.0661 26.9555 273.9381 13.4777 258.0841 17.6247 253.2801 9.33075 236.9461 9.33075 236.9461 1.42108547e-14 214.8471 9.33075 209.0811 1.42108547e-14 199.4731 9.33075 189.8651 1.42108547e-14 171.6091 9.33075 160.0791 1.42108547e-14 147.5881 9.33075 138.9401 9.33075 129.3321 17.6247 125.4881 9.33075 109.1541 26.9555 98.5851 22.8085 84.6521 43.0251"></polygon>
                    <path d="M245.5731,251.916 L245.5731,280.663 C245.5731,287.290417 250.945683,292.663 257.5731,292.663 C264.200517,292.663 269.5731,287.290417 269.5731,280.663 L269.5731,251.916 C269.5731,245.288583 264.200517,239.916 257.5731,239.916 C250.945683,239.916 245.5731,245.288583 245.5731,251.916 Z" id="Path" fill="#000000"></path>
                    <path d="M116.6531,251.916 L116.6531,280.663 C116.6531,287.290417 122.025683,292.663 128.6531,292.663 C135.280517,292.663 140.6531,287.290417 140.6531,280.663 L140.6531,251.916 C140.6531,245.288583 135.280517,239.916 128.6531,239.916 C122.025683,239.916 116.6531,245.288583 116.6531,251.916 Z" id="Path" fill="#000000"></path>
                    <path d="M241.657907,213.633641 L298.863907,217.130641 C305.478976,217.53502 311.169363,212.500261 311.573741,205.885193 C311.97812,199.270124 306.943361,193.579737 300.328293,193.175359 L243.122293,189.678359 C236.507224,189.27398 230.816837,194.308739 230.412459,200.923807 C230.00808,207.538876 235.042839,213.229263 241.657907,213.633641 Z" id="Path" fill="#393939"></path>
                    <path d="M151.189592,190.891418 L93.955592,193.888418 C87.3372425,194.234981 82.252955,199.881159 82.5995182,206.499508 C82.9460813,213.117858 88.5922585,218.202145 95.210608,217.855582 L152.444608,214.858582 C159.062958,214.512019 164.147245,208.865841 163.800682,202.247492 C163.454119,195.629142 157.807941,190.544855 151.189592,190.891418 Z" id="Path" fill="#393939"></path>
                    <path d="M185.719169,289.808938 C179.64734,300.522393 176.108084,312.230774 176.564405,321.784287 C177.191182,334.906492 185.428663,343.729 199.2981,343.729 L199.2981,326.729 C194.965084,326.729 193.75823,325.436435 193.545045,320.973213 C193.261696,315.041021 195.893292,306.335315 200.509031,298.191062 L185.719169,289.808938 Z" id="Path" fill="#EBBAAA"></path>
                    <polygon id="Path" fill="#272727" points="45.0001 217 45.0001 137.017 137.0001 96 137.0001 151.373 108.3781 188.288 108.3781 171.881 85.8891 188.288 73.6221 171.881"></polygon>
                    <polygon id="Path" fill="#272727" points="339.0001 223 339.0001 130.231 247.0001 89 247.0001 144.662 256.2001 193.108 272.5561 176.615 290.9561 193.108 315.4891 176.615"></polygon>
                    <polygon id="Path" fill="#272727" points="130.5421 196.453 117.1511 162.263 112.0001 89 283.0001 89 235.6141 205 225.3131 185.463 213.9821 196.453 199.5601 175.695 190.2891 196.453 174.8371 185.463 155.2651 196.453 149.0841 185.463"></polygon>
                    <path d="M291.68736,44.4003195 C296.544413,44.7386915 300.767292,44.3198884 304.990839,42.3043204 C311.233815,39.3250376 315.328019,33.4324336 316.463591,24.5720543 C316.779528,22.1069362 315.037272,19.8524457 312.572154,19.5365088 C310.107036,19.2205719 307.852546,20.9628275 307.536609,23.4279457 C306.781774,29.3175926 304.536796,32.5486892 301.114611,34.1818296 C298.605404,35.3792774 295.755492,35.6619168 292.31284,35.4220805 C289.833567,35.2493592 287.683702,37.1191882 287.51098,39.5984604 C287.338259,42.0777327 289.208088,44.2275982 291.68736,44.4003195 Z" id="Path" fill="#272727"></path>
                    <path d="M41.4155143,73.796511 L41.811131,73.5364805 C43.073459,72.6905848 45.8383072,70.7378559 46.3549166,70.3906407 C50.1245327,67.8570676 53.0467441,66.5972356 55.9529038,66.5052157 C59.6280774,66.3888459 63.409647,68.2428963 67.6394957,72.9927142 C69.2923261,74.8487248 72.1368037,75.0134348 73.9928142,73.3606043 C75.8488248,71.7077739 76.0135348,68.8632963 74.3607043,67.0072858 C68.4534843,60.3738996 62.1904098,57.3032023 55.6680728,57.509724 C50.8647021,57.6618167 46.6717543,59.4055337 41.8370189,62.5867704 L41.3345332,62.9209855 C40.5875884,63.4230099 37.2927685,65.7524285 36.5846857,66.202889 C34.4877649,67.5368855 33.8692925,70.3181935 35.203289,72.4151143 C36.5372855,74.5120351 39.3185935,75.1305075 41.4155143,73.796511 Z" id="Path" fill="#272727"></path>
                    <path d="M16.3342475,196.760482 C12.1187059,189.413418 11.5141966,182.361803 13.8176672,176.610139 C15.6382966,172.064108 19.1337219,168.969115 22.2483793,168.504129 L22.4812325,168.474205 C24.9522678,168.208483 26.7400273,165.989903 26.4743051,163.518867 C26.208583,161.047832 23.9900027,159.260073 21.5189675,159.525795 C14.7921738,160.249159 8.49404511,165.695183 5.46278279,173.264111 C2.11631675,181.620088 2.96743066,191.548352 8.52795252,201.239518 C9.76480403,203.395167 12.5149689,204.139999 14.6706178,202.903147 C16.8262666,201.666296 17.571099,198.916131 16.3342475,196.760482 Z" id="Path" fill="#272727"></path>
                    <path d="M308.137666,64.9597003 L308.562243,64.7226642 C309.866999,63.9798329 312.690746,62.2877057 313.225218,61.9829024 C321.968933,56.9964575 328.101442,56.8316828 335.89601,64.2580094 C337.695359,65.972351 340.543768,65.9034389 342.258109,64.10409 C343.972451,62.3047411 343.903539,59.4563322 342.10419,57.7419906 C336.039467,51.9637859 329.716443,49.3334497 323.21465,49.5081467 C318.44057,49.6364216 314.2121,51.1254526 309.313763,53.8563425 L308.766685,54.1648793 C308.001133,54.6014652 304.599607,56.6420255 303.862534,57.0398997 C301.675541,58.220445 300.859654,60.9503738 302.0402,63.1373663 C303.220745,65.3243589 305.950674,66.1402456 308.137666,64.9597003 Z" id="Path" fill="#272727"></path>
                </g>
            </g>
        </g>
    </g>
</svg>