<?xml version="1.0" encoding="UTF-8"?>
<svg width="484px" height="1350px" viewBox="0 0 484 1350" version="1.1" xmlns="http://www.w3.org/2000/svg" xmlns:xlink="http://www.w3.org/1999/xlink">
    <!-- Generator: Sketch 55.2 (78181) - https://sketchapp.com -->
    <title>gee_me_065</title>
    <desc>Created with Sketch.</desc>
    <defs>
        <linearGradient x1="15.9430999%" y1="92.4725352%" x2="89.7349855%" y2="29.6566465%" id="linearGradient-1">
            <stop stop-color="#059EFE" stop-opacity="0" offset="0%"></stop>
            <stop stop-color="#059EFE" stop-opacity="0.05" offset="20.2437%"></stop>
            <stop stop-color="#059EFE" stop-opacity="0.74" offset="51.5476%"></stop>
            <stop stop-color="#059EFE" stop-opacity="0.59" offset="67.509%"></stop>
            <stop stop-color="#059EFE" stop-opacity="0" offset="100%"></stop>
        </linearGradient>
        <linearGradient x1="53.0234777%" y1="105.246003%" x2="56.2042696%" y2="3.89980038%" id="linearGradient-2">
            <stop stop-color="#059EFE" stop-opacity="0" offset="0%"></stop>
            <stop stop-color="#059EFE" stop-opacity="0.05" offset="20.2437%"></stop>
            <stop stop-color="#059EFE" stop-opacity="0.74" offset="51.5476%"></stop>
            <stop stop-color="#059EFE" stop-opacity="0.59" offset="67.509%"></stop>
            <stop stop-color="#059EFE" stop-opacity="0" offset="100%"></stop>
        </linearGradient>
        <linearGradient x1="53.0230667%" y1="105.239116%" x2="56.2026694%" y2="3.89980133%" id="linearGradient-3">
            <stop stop-color="#059EFE" stop-opacity="0" offset="0%"></stop>
            <stop stop-color="#059EFE" stop-opacity="0.05" offset="20.2437%"></stop>
            <stop stop-color="#059EFE" stop-opacity="0.74" offset="51.5476%"></stop>
            <stop stop-color="#059EFE" stop-opacity="0.59" offset="67.509%"></stop>
            <stop stop-color="#059EFE" stop-opacity="0" offset="100%"></stop>
        </linearGradient>
        <path d="M22.324,0 L170.5,19.849 L146.5,233.5 C146.5,233.5 131.213,245.02 81,243.5 C30.787,241.98 0,233.5 0,233.5 L22.324,0 Z" id="path-4"></path>
        <path d="M145.932,0 L0.5,19.481 L22.001,229.53 C22.001,229.53 23.718,240.03 73.001,238.53 C122.284,237.04 168.001,229.53 168.001,229.53 L145.932,0 Z" id="path-6"></path>
        <path d="M0.502,33 C0.502,15.051 15.052,0.5 33.002,0.5 L57.002,0.5 C74.951,0.5 89.502,15.051 89.502,33 C89.502,50.949 74.951,65.5 57.002,65.5 L33.002,65.5 C15.052,65.5 0.502,50.949 0.502,33 Z" id="path-8"></path>
    </defs>
    <g id="GEE!-ME" stroke="none" stroke-width="1" fill="none" fill-rule="evenodd">
        <g id="gee_me_065" transform="translate(-358.000000, -125.000000)">
            <g transform="translate(358.000000, 125.000000)">
                <g id="lower-limb" transform="translate(32.000000, 839.500200)">
                    <path d="M23.0001,467.4998 C37.0001,454.4998 89.333,435.4998 114,425.4998 L180,391.4998 L193,452.4998 L193,478.4998 C193,490.0998 183.598,499.4998 172,499.4998 L23.0001,499.4998 C16.3335,488.1698 11.2169,478.4398 23.0001,467.4998 Z" id="Path" fill="#C4C4C4" fill-rule="nonzero"></path>
                    <path d="M23.0001,467.4998 C37.0001,454.4998 89.333,435.4998 114,425.4998 L180,391.4998 L193,452.4998 L193,478.4998 C193,490.0998 183.598,499.4998 172,499.4998 L23.0001,499.4998 C16.3335,488.1698 11.2169,478.4398 23.0001,467.4998 Z" id="Path" fill="#F8CCBE" fill-rule="nonzero"></path>
                    <path d="M0,510.4998 C0,499.4498 8.9543,490.4998 20,490.4998 L197,490.4998 L201,510.4998 L0,510.4998 Z" id="Path" fill="#2E2622" fill-rule="nonzero"></path>
                    <path d="M42.8241992,454.681925 C46.7880281,457.024187 48.1535152,462.083018 45.9515263,466.089562 L45.0947181,467.571646 C44.9017312,467.908331 44.6973816,468.26745 44.4836236,468.646136 C43.4663228,470.448347 42.4496378,472.313929 41.5078985,474.131551 C41.1456287,474.830757 40.8012606,475.509987 40.4775361,476.164878 L40.0867629,476.964555 C39.1419978,478.921444 38.4419251,480.553385 38.063808,481.687736 C37.4890983,483.411865 37.4890983,485.54807 37.8904913,487.555035 L37.97587,487.955665 C38.0261273,488.176623 38.0605206,488.302002 38.063808,488.311864 C39.5483141,492.765382 37.1414542,497.579102 32.687936,499.063608 C28.2344178,500.548114 23.420698,498.141254 21.936192,493.687736 C21.7189009,493.035863 21.4604869,492.088345 21.2206198,490.889009 C20.2886795,486.229308 20.2886795,481.254401 21.936192,476.311864 C22.6600031,474.140431 23.7789958,471.582733 25.2377959,468.631597 C25.610874,467.876864 26.0035432,467.102366 26.4135891,466.310949 C27.4577744,464.295598 28.5688657,462.256784 29.6793413,460.289508 L30.1319468,459.491736 L31.1821245,457.675601 C33.5703138,453.63405 38.7826481,452.293735 42.8241992,454.681925 Z" id="Path" fill="#2E2622" fill-rule="nonzero"></path>
                    <path d="M74,454.9998 C93.1291802,454.9998 108.85847,461.772133 121.150662,472.979719 C125.435449,476.886437 128.996044,481.067439 131.888442,485.270455 C132.917536,486.765857 133.795891,488.170528 134.52956,489.454449 L134.825406,489.979567 C135.055403,490.394016 135.244172,490.749914 135.392638,491.042158 L135.551513,491.361971 L118.448487,499.637629 L118.302116,499.361782 C118.235009,499.238945 118.145354,499.077813 118.03294,498.881089 C117.555672,498.045869 116.957464,497.089212 116.236558,496.041645 C114.128956,492.979036 111.502051,489.894413 108.349338,487.019881 C99.3915298,478.852467 88.1208198,473.9998 74,473.9998 C60.2619172,473.9998 51.0287673,478.507322 44.8367519,486.03487 C42.6815362,488.654936 41.0497924,491.480861 39.8869599,494.289781 L39.6663957,494.835183 C39.2171967,495.973374 38.9527601,496.822964 38.8394823,497.271312 L38.797811,497.449341 L20.202189,493.550259 L20.2818632,493.191729 C20.387989,492.736902 20.540864,492.155477 20.7472654,491.461072 C21.1531064,490.095684 21.6760438,488.606329 22.3317901,487.022319 C24.1767701,482.565614 26.7403388,478.125914 30.1632481,473.96473 C39.9087327,462.117278 54.4880828,454.9998 74,454.9998 Z" id="Path" fill="#2E2622" fill-rule="nonzero"></path>
                    <path d="M60.5340152,459.703891 C68.70557,458.341965 76.4339831,463.86226 77.7959089,472.033815 C79.1403741,480.100606 73.7779545,487.735546 65.7789591,489.2402 L65.4659848,489.295709 L47.4659848,492.295709 C39.29443,493.657635 31.5660169,488.13734 30.2040911,479.965785 C28.8596259,471.898994 34.2220455,464.264054 42.2210409,462.7594 L42.5340152,462.703891 L60.5340152,459.703891 Z" id="Path" fill="#DCB1A3" fill-rule="nonzero"></path>
                    <path d="M402,467.4998 C388,454.4998 335.667,435.4998 311,425.4998 L245,391.4998 L232,452.4998 L232,478.4998 C232,490.0998 241.402,499.4998 253,499.4998 L402,499.4998 C408.667,488.1698 413.783,478.4398 402,467.4998 Z" id="Path" fill="#C4C4C4" fill-rule="nonzero"></path>
                    <path d="M402,467.4998 C388,454.4998 335.667,435.4998 311,425.4998 L245,391.4998 L232,452.4998 L232,478.4998 C232,490.0998 241.402,499.4998 253,499.4998 L402,499.4998 C408.667,488.1698 413.783,478.4398 402,467.4998 Z" id="Path" fill="#F8CCBE" fill-rule="nonzero"></path>
                    <path d="M425,510.4998 C425,499.4498 416.046,490.4998 405,490.4998 L228,490.4998 L224,510.4998 L425,510.4998 Z" id="Path" fill="#2E2622" fill-rule="nonzero"></path>
                    <path d="M382.175801,454.681925 C386.13963,452.339662 391.229645,453.583878 393.67699,457.445439 L393.958299,457.914679 L394.868053,459.491736 C395.014222,459.748046 395.165275,460.014237 395.320659,460.289508 C396.431134,462.256784 397.542226,464.295598 398.586411,466.310949 C398.996457,467.102366 399.389126,467.876864 399.762204,468.631597 C401.221004,471.582733 402.339997,474.140431 403.063808,476.311864 C404.71132,481.254401 404.71132,486.229308 403.77938,490.889009 C403.539513,492.088345 403.281099,493.035863 403.063808,493.687736 C401.579302,498.141254 396.765582,500.548114 392.312064,499.063608 C387.941018,497.606593 385.541531,492.942526 386.857711,488.559629 L386.949284,488.264235 C386.975336,488.165467 387.036813,487.918515 387.109509,487.555035 C387.510902,485.54807 387.510902,483.411865 386.936192,481.687736 C386.507659,480.402138 385.665593,478.477414 384.522464,476.164878 C384.198739,475.509987 383.854371,474.830757 383.492101,474.131551 C382.550362,472.313929 381.533677,470.448347 380.516376,468.646136 L379.716155,467.242547 L379.182125,466.323999 C376.793935,462.282448 378.13425,457.070114 382.175801,454.681925 Z" id="Path" fill="#2E2622" fill-rule="nonzero"></path>
                    <path d="M351,454.9998 C370.511917,454.9998 385.091267,462.117278 394.836752,473.96473 C398.259661,478.125914 400.82323,482.565614 402.66821,487.022319 C403.323956,488.606329 403.846894,490.095684 404.252735,491.461072 L404.4167,492.02829 C404.542677,492.477386 404.642333,492.866853 404.718137,493.191729 L404.797811,493.550259 L386.202189,497.449341 L386.160518,497.271312 C386.029813,496.753988 385.69786,495.702464 385.11304,494.289781 C383.950208,491.480861 382.318464,488.654936 380.163248,486.03487 C373.971233,478.507322 364.738083,473.9998 351,473.9998 C336.87918,473.9998 325.60847,478.852467 316.650662,487.019881 C313.497949,489.894413 310.871044,492.979036 308.763442,496.041645 C308.132649,496.958266 307.595797,497.805284 307.151708,498.562249 L306.697884,499.361782 L306.551513,499.637629 L289.448487,491.361971 L289.607362,491.042158 C289.815215,490.633016 290.10206,490.099114 290.47044,489.454449 C291.204109,488.170528 292.082464,486.765857 293.111558,485.270455 C296.003956,481.067439 299.564551,476.886437 303.849338,472.979719 C316.14153,461.772133 331.87082,454.9998 351,454.9998 Z" id="Path" fill="#2E2622" fill-rule="nonzero"></path>
                    <path d="M347.204091,472.033815 C348.548556,463.967024 356.097312,458.483947 364.151925,459.654894 L364.465985,459.703891 L382.465985,462.703891 C390.63754,464.065817 396.157835,471.79423 394.795909,479.965785 C393.451444,488.032576 385.902688,493.515653 377.848075,492.344706 L377.534015,492.295709 L359.534015,489.295709 C351.36246,487.933783 345.842165,480.20537 347.204091,472.033815 Z" id="Path" fill="#DCB1A3" fill-rule="nonzero"></path>
                    <ellipse id="Oval" fill="#092978" fill-rule="nonzero" cx="212.443" cy="41.9378" rx="88.5353" ry="41.9378"></ellipse>
                    <path d="M267.615142,20.7041738 C286.003808,16.9017715 303.993224,28.7262751 307.795626,47.1149417 C314.044421,77.3345225 317.06989,149.529469 316.853016,237.62947 L316.845452,240.304008 C316.575474,324.839842 313.298936,404.304243 308.158644,440.305599 C305.504474,458.894754 288.283357,471.812613 269.694201,469.158444 C251.105046,466.504274 238.187187,449.283157 240.841356,430.694001 C250.965111,359.789691 251.838482,117.308778 241.520468,62.4880802 L241.204374,60.8846583 C237.401972,42.4959917 249.226475,24.506576 267.615142,20.7041738 Z" id="Path" fill="#F8CCBE" fill-rule="nonzero"></path>
                    <path d="M116.327374,42.3079417 C120.129776,23.9192751 138.119192,12.0947715 156.507858,15.8971738 C174.712638,19.661552 186.483882,37.3306221 183.028019,55.5261319 L182.918626,56.0776583 C172.267557,107.586926 173.05594,355.075665 183.281644,426.694001 C185.935813,445.283157 173.017954,462.504274 154.428799,465.158444 C135.839643,467.812613 118.618526,454.894754 115.964356,436.305599 C110.875774,400.666409 107.613278,322.24947 107.286549,238.44148 L107.277548,235.900232 C106.992297,146.35445 110.015482,72.8326629 116.327374,42.3079417 Z" id="Path" fill="#F8CCBE" fill-rule="nonzero"></path>
                    <path d="M196,257.9898 L196,243.9998 L54.5532,235.9998 L52,251.3298 C64.0851,254.6598 95.098,262.2598 122.468,265.9898 C149.838,269.7198 182.894,262.2098 196,257.9898 Z" id="Path" fill="#393937" fill-rule="nonzero"></path>
                    <path d="M74.324,10.9998 L222.5,30.8488 L198.5,244.4998 C198.5,244.4998 183.213,256.0198 133,254.4998 C82.787,252.9798 52,244.4998 52,244.4998 L74.324,10.9998 Z" id="Path" fill="#101010" fill-rule="nonzero"></path>
                    <path d="M220.832,252.4598 L220.832,238.4698 L360.314,230.4698 L362.832,245.7998 C350.915,249.1298 320.333,256.7298 293.343,260.4598 C266.353,264.1898 233.756,256.6798 220.832,252.4598 Z" id="Path" fill="#393937" fill-rule="nonzero"></path>
                    <path d="M342.763,12.4678 L197.331,31.9488 L218.832,241.9998 C218.832,241.9998 220.549,252.4898 269.832,250.9998 C319.115,249.5098 364.832,241.9998 364.832,241.9998 L342.763,12.4678 Z" id="Path" fill="#1D1D1D" fill-rule="nonzero"></path>
                    <path d="M140.052,34.1938 C135.583,38.8508 109.703,71.2138 103.79,78.4928 C104.538,81.6028 114.437,89.9438 114.437,89.9438 C121.413,82.1108 152.461,45.7008 151.352,44.2788 C147.906,39.8598 141.387,32.8028 140.052,34.1938 Z" id="Path" fill-opacity="0.8" fill="url(#linearGradient-1)" fill-rule="nonzero"></path>
                    <path d="M206.414,65.4878 C207.115,71.9038 215.314,112.5238 217.098,121.7298 C219.963,123.1518 232.713,120.9188 232.713,120.9188 C231.186,110.5408 223.203,63.3608 221.401,63.2978 C215.8,63.1028 206.205,63.5708 206.414,65.4878 Z" id="Path" fill-opacity="0.8" fill="url(#linearGradient-2)" fill-rule="nonzero"></path>
                    <path d="M111.586,179.0898 C112.287,185.5098 120.485,226.1298 122.27,235.3398 C125.134,236.7598 137.885,234.5198 137.885,234.5198 C136.358,224.1498 128.375,176.9698 126.573,176.8998 C120.972,176.7098 111.377,177.1798 111.586,179.0898 Z" id="Path" fill-opacity="0.8" fill="url(#linearGradient-3)" fill-rule="nonzero"></path>
                    <polygon id="Path" fill="#C4C4C4" fill-rule="nonzero" opacity="0.3" points="205.818 55.5978 157.114 55.5978 140.453 63.2878 189.156 77.3858 260.928 55.5978 237.858 41.4998"></polygon>
                    <g id="Clipped" transform="translate(53.000000, 10.499800)">
                        <mask id="mask-5" fill="white">
                            <use xlink:href="#path-4"></use>
                        </mask>
                        <g id="Path"></g>
                        <g id="Group" mask="url(#mask-5)" fill="#C4C4C4" fill-rule="nonzero" opacity="0.3">
                            <g transform="translate(-36.000000, 41.000000)" id="Path">
                                <polygon points="28.7442 25.684 9.239 16.446 0 25.684 0 42.109 28.7442 42.109 42.0893 52.375 96.497 42.109 80.072 0.021 64.674 0.021 49.2752 0.021 49.2752 25.684"></polygon>
                                <polygon points="98.072 126.27 78.567 135.51 69.328 126.27 69.328 109.85 98.072 109.85 111.417 99.583 165.825 109.85 149.4 151.94 134.002 151.94 118.603 151.94 118.603 126.27"></polygon>
                                <polygon points="68.093 151.28 34.6901 151.28 22.1641 160.46 39.7005 170.48 39.7005 179.67 62.247 179.67 78.949 170.48 92.31 184.68 105.671 174.66"></polygon>
                                <polygon points="146.929 46.033 113.526 46.033 101 55.219 118.536 65.239 118.536 74.425 141.083 74.425 157.785 65.239 171.146 79.436 184.507 69.415"></polygon>
                                <polygon points="162.929 167 129.526 167 117 176.19 134.536 186.21 134.536 195.39 157.083 195.39 173.785 186.21 187.146 200.4 200.507 190.38"></polygon>
                            </g>
                        </g>
                    </g>
                    <g id="Clipped" transform="translate(197.000000, 12.499800)">
                        <mask id="mask-7" fill="white">
                            <use xlink:href="#path-6"></use>
                        </mask>
                        <g id="Path"></g>
                        <g id="Group" mask="url(#mask-7)" fill="#C4C4C4" fill-rule="nonzero" opacity="0.3">
                            <g transform="translate(15.000000, 39.000000)" id="Path">
                                <polygon points="156.936 25.684 176.442 16.446 185.681 25.684 185.681 42.109 156.936 42.109 143.591 52.375 89.183 42.109 105.608 0.021 121.007 0.021 136.405 0.021 136.405 25.684"></polygon>
                                <polygon points="87.608 126.27 107.114 135.51 116.353 126.27 116.353 109.85 87.608 109.85 74.263 99.583 19.855 109.85 36.28 151.94 51.679 151.94 67.077 151.94 67.077 126.27"></polygon>
                                <polygon points="117.591 151.28 150.994 151.28 163.521 160.46 145.984 170.48 145.984 179.67 123.437 179.67 106.736 170.48 93.375 184.68 80.014 174.66"></polygon>
                                <polygon points="37.578 47 70.981 47 83.507 56.185 65.97 66.206 65.97 75.392 43.424 75.392 26.722 66.206 13.361 80.402 0 70.382"></polygon>
                                <polygon points="121.58 67 154.983 67 167.509 76.185 149.972 86.206 149.972 95.392 127.425 95.392 110.724 86.206 97.363 100.402 84.002 90.382"></polygon>
                            </g>
                        </g>
                    </g>
                    <path d="M124.001,107.9998 C117.355,107.9998 74.789,104.3548 66.5006,101.4998 C64.4035,106.0088 65.0004,128.4998 65.0004,128.4998 C76.34,128.4998 121.391,143.1978 122.001,139.9998 C124.001,129.4998 125.71,107.9998 124.001,107.9998 Z" id="Path" fill="#0A6DAB" fill-rule="nonzero"></path>
                    <path d="M90.716,122.3568 C83.238,121.3348 66.266,115.6498 63.3897,116.6078 C66.0034,139.4938 50.9144,165.5598 45.7146,185.3598 C37.2438,217.6098 45.7143,217.3598 47.1263,237.1398 C47.7904,246.4398 93.419,241.9298 93.419,237.1398 C93.419,232.3498 94.138,215.7398 93.419,202.6498 C92.7,189.5598 117.324,125.2308 111.571,124.2728 C105.818,123.3148 100.065,123.6348 90.716,122.3568 Z" id="Path" fill="#000000" fill-rule="nonzero"></path>
                    <path d="M104.437,120.7358 C98.265,120.3928 72.806,115.5888 65.0907,112.4998 C59.6903,115.5888 50.4324,136.8648 60.4617,139.6098 C70.491,142.3558 101.351,151.5038 104.437,149.1018 C107.523,146.6998 110.609,121.0788 104.437,120.7358 Z" id="Path" fill="#1C1C1E" fill-rule="nonzero"></path>
                    <path d="M312.222,106.0988 C316.985,106.0988 345.557,103.3498 351.497,100.4998 C353,104.9998 354,121.9998 354,121.9998 C345.873,121.9998 311,138.2488 311,134.9998 L311,134.9348 C311,124.9178 311,106.0988 312.222,106.0988 Z" id="Path" fill="#0A6DAB" fill-rule="nonzero"></path>
                    <path d="M334.82,123.3328 C341.104,122.3148 355.363,116.6538 357.78,117.6078 C357.78,130.2218 374.507,141.3528 378,166.7998 C378,187.1498 374.008,245.3498 356.571,238.7798 C350.909,236.6498 322.131,243.5498 322.131,238.7798 C322.131,234.0098 321.527,217.4698 322.131,204.4298 C322.735,191.3898 312.464,126.1948 317.298,125.2408 C322.131,124.2868 326.965,124.6048 334.82,123.3328 Z" id="Path" fill="#000000" fill-rule="nonzero"></path>
                    <path d="M322.502,121.1848 C327.848,120.8228 349.9,115.7568 356.583,112.4998 C361.261,115.7568 380.459,135.5368 371.772,138.4318 C363.085,141.3268 326.984,154.7158 324.311,152.1828 C321.638,149.6498 317.156,121.5468 322.502,121.1848 Z" id="Path" fill="#1C1C1E" fill-rule="nonzero"></path>
                    <path d="M333.668,129.6118 C336.845,128.8458 355.631,123.1228 359.311,120.9978 C360.759,122.6038 363.108,129.4228 363.108,129.4228 C357.687,130.7298 336.034,143.0078 335.713,141.6738 L335.706,141.6468 C334.715,137.5348 332.853,129.8078 333.668,129.6118 Z" id="Path" fill-opacity="0.42" fill="#059EFE" fill-rule="nonzero"></path>
                </g>
                <g id="upper-limb" transform="translate(0.000000, 453.500000)">
                    <path d="M349.662722,60.2721891 C366.357081,48.4879356 389.443558,52.4683627 401.227811,69.1627217 C409.766023,81.2585228 416.833522,93.3951789 422.734212,105.977708 L423.406492,107.422366 C433.508358,129.300541 439.353591,149.803371 446.121467,182.856926 L448.10928,192.779892 C449.60739,200.334464 451.872828,211.776612 452.757166,216.123149 C462.208205,262.574934 465.509265,297.979628 465.624141,340.994168 L465.620064,347.99012 C465.605906,351.849404 465.570148,355.756558 465.502172,361.051159 L465.108596,389.290026 C465.038515,395.352707 465.005891,400.229802 465.000734,405.483005 L465,407 C465,427.434536 448.434536,444 428,444 C407.565464,444 391,427.434536 391,407 L391.014818,400.226677 C391.03193,396.446874 391.06452,392.627746 391.11597,388.216995 L391.548342,356.789642 C391.601427,352.110772 391.623803,348.567038 391.627023,344.746801 L391.627002,342.690733 C391.596512,304.710892 388.92812,274.498797 380.922383,234.254137 L374.253804,200.79333 L373.683211,197.982759 C367.82952,169.353904 363.246384,153.41309 355.735632,137.397292 C351.688862,128.76803 346.813445,120.395724 340.772189,111.837278 C328.987936,95.1429193 332.968363,72.0564425 349.662722,60.2721891 Z" id="Path" fill="#F8CCBE" fill-rule="nonzero"></path>
                    <path d="M52.5779818,104.339381 C59.2941061,85.0400568 80.3837943,74.8393575 99.6831188,81.5554818 C118.982443,88.2716061 129.183142,109.361294 122.467018,128.660619 L120.822976,133.393631 C103.535486,183.264368 100.037575,196.917869 94.1644612,238.656212 C85.5263842,300.036579 84.1163226,362.615299 92.9782326,396.842982 L93.2499226,397.871476 C98.5676094,417.601972 86.8837193,437.907536 67.1532237,443.225223 C47.4227281,448.542909 27.1171642,436.859019 21.7994774,417.128524 C14.9034938,391.54199 12.3347205,359.105561 13.1398516,321.415294 C13.784948,291.216667 16.6391326,258.524967 20.8864496,228.344422 L21.2936364,225.470119 C27.9072149,179.111689 32.8136888,161.13367 52.5779818,104.339381 Z" id="Path" fill="#F8CCBE" fill-rule="nonzero"></path>
                    <path d="M427.5,53.5 C421.9,46.7 417.5,42.667 416,42 L375.5,43 L351.5,208 L483.5,177 C470,132.5 433.1,60.3 427.5,53.5 Z" id="Path" fill="#E6E0DD" fill-rule="nonzero"></path>
                    <path d="M63,52.5 C66.6,48.5 73.5,43.5 76.5,42.5 L121.5,87.5 L121.5,206 L0,174 C22,136.167 59.4,56.5 63,52.5 Z" id="Path" fill="#E6E0DD" fill-rule="nonzero"></path>
                    <path d="M75.0926,42.5 C80.6926,36.5 139.333,13.667 163,4 L224.093,22.5 L313,4 C341.333,11.5 404.593,33.5 414.593,40.5 C421.373,45.246 394.751,64.846 387,85 C377,111 369,186 369,209 C369,287.5 383.093,403.5 378.093,418 C377.142,420.756 311.265,427.429 239.593,428 C191.065,428.387 138.399,416.894 101.593,417.5 C94.5926,331 115.062,209.239 107.593,150.5 C96.5926,64 68.0926,50 75.0926,42.5 Z" id="Path" fill="#EDE9E6" fill-rule="nonzero"></path>
                    <path d="M147,30.238 C147,13.538 160.538,0 177.238,0 L298.762,0 C315.462,0 329,13.538 329,30.238 C329,74.29 293.29,110 249.238,110 L226.762,110 C182.71,110 147,74.29 147,30.238 Z" id="Path" fill="#ECF5F9" fill-rule="nonzero"></path>
                    <path d="M236.331,139.145 C243.131,138.745 243.164,134.978 242.331,133.145 C241.966,131.645 241.332,128.645 248.832,125.145 C256.332,121.645 265.832,133.145 268.332,141.645 C270.832,150.145 280.332,140.145 284.832,141.645 C289.332,143.145 286.832,171.145 287.332,177.145 C287.832,183.145 286.832,188.145 293.832,188.145 C300.832,188.145 300.832,190.645 300.832,200.145 C300.832,209.645 307.832,201.145 306.332,203.145 C304.832,205.145 294.832,211.145 297.832,216.145 C299.205,218.433 299.007,219.779 298.149,221.285 C298.347,221.76 298.46,223.738 298.457,226.173 C299.013,226.974 299.842,227.958 301.015,229.358 C302.113,228.287 303.141,227.25 304.004,226.229 C302.687,223.398 301.417,220.815 300.832,219.645 C298.832,215.645 304.332,212.645 306.332,219.645 C306.971,221.882 305.874,224.017 304.004,226.229 C307.186,233.073 310.638,241.365 305.332,234.645 C303.544,232.38 302.125,230.683 301.015,229.358 C300.118,230.234 299.174,231.132 298.235,232.063 C297.942,235.835 297.34,238.855 296.332,237.645 C295.705,236.892 295.078,236.454 294.53,236.102 C292.831,238.23 291.45,240.55 290.832,243.145 C288.332,253.645 282.332,258.645 277.332,260.645 C272.332,262.645 274.332,260.645 271.332,269.145 C268.932,275.945 262.665,278.311 259.832,278.645 C258.832,277.978 257.632,276.645 260.832,276.645 C264.832,276.645 260.832,266.145 262.832,260.645 C264.832,255.145 256.332,247.645 248.832,246.645 C241.332,245.645 249.832,253.645 251.832,260.645 C253.832,267.645 241.332,264.145 236.331,267.645 C231.33,271.145 229.332,267.645 226.832,273.145 C226.091,274.774 226.711,275.746 227.873,276.214 C233.196,274.604 232.093,270.533 234.332,273.145 C236.443,275.607 230.632,277.328 227.873,276.214 C226.063,276.762 223.511,277.025 219.832,276.645 C205.332,275.145 216.332,271.645 218.831,267.645 C221.33,263.645 209.332,260.645 208.832,267.645 C208.332,274.645 201.832,269.145 199.332,274.145 C196.832,279.145 198.832,276.645 191.833,273.145 C184.835,269.645 182.833,264.145 189.833,260.645 C196.832,257.145 189.833,245.145 188.332,234.645 C186.831,224.145 184.833,216.645 189.833,227.645 C194.833,238.645 191.833,228.145 196.832,223.645 C201.831,219.145 196.832,216.645 194.832,212.645 C192.832,208.645 197.832,210.645 196.832,207.145 C195.832,203.645 185.832,203.645 191.833,203.145 C197.835,202.645 197.832,199.145 194.832,197.645 C191.832,196.145 194.332,192.145 194.832,189.645 C195.332,187.145 193.832,183.645 189.833,180.145 C189.297,179.676 188.88,179.315 188.56,179.052 C188.328,179.275 188.08,179.475 187.81,179.642 C188.042,180.556 188.38,181.96 188.332,183.645 C188.229,187.245 190.623,186.478 191.833,185.645 L184.833,192.145 L185.832,181.645 C185.499,182.478 183.833,183.645 179.833,181.645 C174.834,179.145 176.833,175.645 182.833,179.145 C185.096,180.465 186.648,180.362 187.81,179.642 C187.505,178.441 187.383,178.085 188.56,179.052 C189.978,177.684 190.762,175.448 191.833,174.645 C192.943,173.813 193.437,172.212 193.316,170.951 C191.267,171.702 189.833,171.48 189.833,169.145 C189.833,168.283 189.894,167.442 189.999,166.628 C189.356,164.413 189.226,161.358 189.833,160.145 C190.832,158.145 189.833,158.145 184.833,162.145 C179.833,166.145 183.833,158.145 189.833,156.145 C195.224,154.347 190.926,159.414 189.999,166.628 C190.415,168.062 191.047,169.145 191.833,169.145 C192.724,169.145 193.218,169.938 193.316,170.951 C198.725,168.968 208.42,160.205 207.332,165.645 C205.832,173.145 213.331,164.145 213.331,158.145 C213.331,153.345 215.332,149.478 216.332,148.145 C216.498,149.978 217.232,153.645 218.831,153.645 C220.83,153.645 221.331,149.145 218.831,143.645 C216.331,138.145 216.331,146.645 213.331,143.645 C210.331,140.645 213.331,139.145 218.831,139.145 C223.231,139.145 220.664,132.145 218.831,128.645 C219.664,130.145 221.331,133.745 221.331,136.145 C221.331,139.145 227.831,139.645 236.331,139.145 Z" id="Path" fill="#454A4D" fill-rule="nonzero"></path>
                    <path d="M279,147.348 C279.667,146.681 282.7,145.248 289.5,144.848 C297.458,144.38 308.485,150.048 297.136,138.05 C285.524,137.537 280.136,120.984 294.5,135.348 C295.488,136.336 296.364,137.234 297.136,138.05 C298.054,138.091 299.011,138.031 300,137.848 C311.312,135.753 321.219,150.859 310.31,156.106 C310.434,156.598 310.5,157.175 310.5,157.848 C310.5,159.5 278,158.348 301.5,157.848 C305.309,157.767 308.199,157.121 310.31,156.106 C308.69,149.674 297.239,157.825 296,155.348 L310.5,149.348 L308.5,144.848 L304.5,149.348 L285,146.5 L279,149.348 L273,160.848 L279,147.348 Z" id="Path" fill="#454A4D" fill-rule="nonzero"></path>
                    <path d="M236.698,157.179 C235.543,157.214 235.143,157.227 235.498,159 C235.728,160.154 234.894,160.03 233.731,159.856 C232.376,159.654 230.574,159.385 229.498,161 C227.498,164 224.498,172.5 226.998,172.5 C229.498,172.5 231.998,174.5 229.498,175 C228.796,175.14 228.095,174.926 227.427,174.723 C225.713,174.2 224.216,173.744 223.497,179.5 C222.931,184.026 221.405,186.631 220.367,188.403 C219.571,189.763 219.062,190.631 219.497,191.5 C219.949,192.406 218.763,193.721 217.792,194.797 C216.619,196.097 215.762,197.047 218.498,196.5 C221.87,195.825 221.602,196.288 220.763,197.736 C220.359,198.434 219.822,199.361 219.497,200.5 C219.106,201.868 218.104,203.237 217.058,204.665 C215.43,206.89 213.694,209.259 213.999,212 C214.36,215.253 214.199,219.291 214.082,222.223 C214.037,223.346 213.999,224.307 213.999,225 C213.999,227 214.999,229.167 215.499,230 L210.999,239 L212.499,221 C210.832,225.667 207.499,235.8 207.499,239 C207.499,239.989 207.285,240.947 207.091,241.815 C206.502,244.456 206.101,246.253 212.499,245.5 C216.224,245.062 218.796,245.68 220.51,246.092 C222.708,246.62 223.497,246.809 223.497,244 C223.497,239 225.495,229 226.998,228 C227.583,227.61 230.298,227.676 233.481,227.754 C238.46,227.876 244.585,228.025 245.5,226.5 C246.313,225.144 248.156,225.7 249.992,226.254 C251.541,226.721 253.085,227.187 254,226.5 C254.469,226.148 254.883,225.687 255.274,225.251 C256.551,223.826 257.586,222.672 259.5,226.5 C260.783,229.066 261.276,232.027 261.722,234.707 C262.145,237.25 262.526,239.54 263.5,241 C265.5,244 267.5,245 272,244 C275.6,243.2 271.833,236.333 269.5,233 C272.5,233.167 278.5,232.8 278.5,230 C278.5,227.2 271.5,218.5 268,214.5 C269.333,215.5 272.2,217.2 273,216 C273.357,215.465 272.505,214.739 271.215,213.641 C268.89,211.66 265.143,208.468 264.5,203 C263.842,197.409 262.103,192.684 260.42,188.112 C259.545,185.733 258.685,183.396 258,181 C256,174 253.5,170.5 250,167.5 C248.446,166.168 246.695,165.92 245.185,165.706 C243.293,165.439 241.778,165.224 241.5,163 C241,159 240.495,157 238.498,157 C237.771,157.145 237.171,157.164 236.698,157.179 Z M240.998,178.5 C240.831,179.667 239.898,182.3 237.498,183.5 C234.498,185 232.498,187 232.998,191.5 C233.183,193.168 233.437,193.943 233.607,194.461 C233.895,195.342 233.941,195.482 232.998,198 C232.343,199.747 232.547,201.208 232.734,202.55 C232.976,204.279 233.189,205.81 231.499,207.5 C230.747,208.253 229.931,208.974 229.186,209.633 C226.964,211.597 225.378,213 227.999,213 C229.371,213 230.896,212.463 232.154,212.02 C234.106,211.332 235.414,210.871 234.5,213 C234.011,214.14 233.681,214.537 233.701,214.555 C233.741,214.592 235.279,213 240,213 C242.456,213 245.898,213.677 249.158,214.319 C255.188,215.506 260.596,216.57 258,213 C257.267,211.992 256.466,210.967 255.648,209.919 C252.002,205.25 248,200.125 248,194 C248,186.5 241.996,178.5 240.998,178.5 Z" id="Shape" fill="#EDE9E6"></path>
                </g>
                <g id="hand" transform="translate(49.499900, 0.000000)">
                    <path d="M121.5001,476.041 C121.5001,463.592 131.5921,453.5 144.0411,453.5 L234.9591,453.5 C247.4081,453.5 257.5001,463.592 257.5001,476.041 C257.5001,508.879 230.8791,535.5 198.0411,535.5 L180.9591,535.5 C148.1211,535.5 121.5001,508.879 121.5001,476.041 Z" id="Path" fill="#EBBAAA" fill-rule="nonzero"></path>
                    <path d="M138.5001,351.911 C138.5001,330.973 155.4731,314 176.4111,314 L196.5891,314 C217.5271,314 234.5001,330.973 234.5001,351.911 L234.5001,453 C234.5001,479.51 213.0101,501 186.5001,501 C159.9901,501 138.5001,479.51 138.5001,453 L138.5001,351.911 Z" id="Path" fill="#EBBAAA" fill-rule="nonzero"></path>
                    <path d="M317.2681,324.033 C350.0001,324.033 376.5351,297.499 376.5351,264.767 C376.5351,232.035 350.0001,205.5 317.2681,205.5 C284.5361,205.5 258.0021,232.035 258.0021,264.767 C258.0021,297.499 284.5361,324.033 317.2681,324.033 Z" id="Path" fill="#EBBAAA" fill-rule="nonzero"></path>
                    <path d="M59.2661,327.033 C26.5345,327.033 2.84217094e-13,300.499 2.84217094e-13,267.767 C2.84217094e-13,235.035 26.5345,208.5 59.2661,208.5 C91.9981,208.5 118.5331,235.035 118.5331,267.767 C118.5331,300.499 91.9981,327.033 59.2661,327.033 Z" id="Path" fill="#EBBAAA" fill-rule="nonzero"></path>
                    <path d="M35.7981,182.517 C33.7167,97.5245 102.0471,27.5 187.0651,27.5 C273.1751,27.5 341.9261,99.2605 338.2391,185.292 L335.2781,254.387 C334.7621,266.43 333.0011,278.388 330.0251,290.069 L313.0891,356.529 C305.6951,385.545 286.6431,410.219 260.4391,424.711 C215.7791,449.413 160.9561,448.705 116.6811,423.318 C92.9311,409.7 74.8691,387.545 66.5141,361.473 L45.6732,296.438 C40.5851,280.561 37.7946,264.038 37.3864,247.37 L35.7981,182.517 Z" id="Path" fill="#F4D4C9" fill-rule="nonzero"></path>
                    <path d="M294.0021,211 C300.629517,211 306.0021,216.372583 306.0021,223 C306.0021,229.525457 300.793556,234.834393 294.307075,234.9962 L294.0021,235 L232.7631,235 C226.135683,235 220.7631,229.627417 220.7631,223 C220.7631,216.474543 225.971644,211.165607 232.458125,211.0038 L232.7631,211 L294.0021,211 Z" id="Path" fill="#393939" fill-rule="nonzero"></path>
                    <path d="M144.0641,214.499 C150.691517,214.499 156.0641,219.871583 156.0641,226.499 C156.0641,233.024457 150.855556,238.333393 144.369075,238.4952 L144.0641,238.499 L83.5021,238.499 C76.874683,238.499 71.5021,233.126417 71.5021,226.499 C71.5021,219.973543 76.7106444,214.664607 83.1971252,214.5028 L83.5021,214.499 L144.0641,214.499 Z" id="Path" fill="#393939" fill-rule="nonzero"></path>
                    <path d="M179.720169,267.308938 L194.510031,275.691062 C189.894167,283.835535 187.262424,292.54125 187.545677,298.473344 C187.754526,302.847227 188.91774,304.176031 193.042826,304.227434 L193.2991,304.229 L193.2991,321.229 C179.429242,321.229 171.191604,312.406504 170.565023,299.284156 C170.11763,289.914487 173.513613,278.472043 179.372687,267.928111 L179.720169,267.308938 Z" id="Path" fill="#EBBAAA" fill-rule="nonzero"></path>
                    <path d="M326.0021,64.5032 C336.4161,79.9218 355.5281,168.39 336.0031,229.5 C332.4981,227.463 329.3431,190.081 320.5031,183.5 C310.5171,176.066 311.4841,129.782 301.9721,118.5 C292.4591,107.218 218.3641,109.631 187.3251,109.631 C156.2851,109.631 78.0371,104.266 66.0221,122.6 C54.0071,140.933 58.0121,179.009 51.0031,187 C45.3957,193.393 39.0055,221.822 37.003,229.5 C37.003,194.244 19.8443,144.029 37.0027,89.5 C43.2152,69.7568 89.6061,6 187.3251,6 C254.0041,6 262.4211,19.8453 281.4451,33.9477 C296.4641,42.8792 294.9631,46.6404 301.9721,54.6317 C305.4761,54.6317 319.6951,55.1639 326.0021,64.5032 Z" id="Path" fill="#2C2929" fill-rule="nonzero"></path>
                    <path d="M49.0001,59.5 C65.8001,44.3 94.1681,29.1667 107.0021,23.5 L105.0021,14 L123.5021,12.5 L122.0021,8.5 L148.5021,8.5 L157.5021,-3.26849658e-13 L168.0021,6 L175.5021,-3.26849658e-13 L198.0021,11.5 L210.0021,-3.26849658e-13 L215.5021,6 L221.0021,2 L238.5021,8.5 L247.0021,6 L256.5021,16 L266.0021,14 L271.5021,30 C261.5021,33.5 230.4021,41.1 186.0021,43.5 C130.5021,46.5 53.5001,123 34.5001,117 C15.5001,111 28.0001,78.5 49.0001,59.5 Z" id="Path" fill="#2C2929" fill-rule="nonzero"></path>
                    <polygon id="Path" fill="#2C2929" fill-rule="nonzero" points="50.8881 163.813 41.7478 108.269 125.5771 56.2807 142.4271 106.805 96.8071 130.964 105.3851 116.641 75.1701 136.709 73.2711 125.168"></polygon>
                    <polygon id="Path" fill="#2C2929" fill-rule="nonzero" points="322.5751 159.823 329.5121 94.6876 249.1411 58.7014 229.2331 94.1339 230.1431 126.23 263.3031 121.664 271.4731 134.305 305.4171 125.59"></polygon>
                    <polygon id="Path" fill="#2C2929" fill-rule="nonzero" points="117.4001 148.103 112.7611 126.731 103.9311 76.1738 271.7121 47.4186 220.9351 136.434 220.0831 124.826 199.2691 134.072 194.3111 122.301 176.0221 138.056 170.5571 133.314 141.6581 143.946 145.2891 137.645"></polygon>
                    <polygon id="Path" fill="#2C2929" fill-rule="nonzero" points="328.9591 42.8033 326.9511 51.8773 321.3731 72.9609 251.5011 54.2388 285.1881 20.0895 289.5021 29.5895 295.5021 25.0895 297.5021 41.8831 304.5461 36.2619 305.8121 39.0635 318.8571 40.0965 316.3351 41.8831"></polygon>
                    <path d="M118.5021,251 C119.517448,251 120.549385,251.033772 121.597277,251.09938 C126.203931,251.387796 130.982816,252.270833 135.774709,253.558207 C137.80464,254.103562 139.706038,254.687609 141.435404,255.274941 L142.490124,255.64099 C143.040466,255.836506 143.474951,255.998785 143.781694,256.118815 C148.410495,257.930085 150.694555,263.150793 148.883285,267.779594 C147.104947,272.324235 142.040023,274.608623 137.475549,272.975931 L136.715087,272.692109 C136.486023,272.60927 136.198649,272.507724 135.857805,272.39079 L135.646921,272.318809 C134.270819,271.851454 132.738622,271.380813 131.104491,270.941793 C127.384034,269.942267 123.738769,269.2687 120.472523,269.064204 C119.790815,269.021524 119.133152,269 118.5021,269 C117.871048,269 117.213385,269.021524 116.531677,269.064204 C113.265431,269.2687 109.620166,269.942267 105.899709,270.941793 C104.499025,271.318096 103.173232,271.71763 101.956436,272.118415 L101.357279,272.318809 C100.633202,272.564722 100.119132,272.751739 99.8537947,272.853305 L99.7816941,272.881185 C95.1528935,274.692455 89.9321848,272.408395 88.120915,267.779594 C86.3096452,263.150793 88.5937052,257.930085 93.2225059,256.118815 L93.686343,255.94192 C94.1595466,255.765248 94.7929437,255.538438 95.5687957,255.274941 C97.2981624,254.687609 99.1995596,254.103562 101.229491,253.558207 C106.021384,252.270833 110.800269,251.387796 115.406923,251.09938 C116.454815,251.033772 117.486752,251 118.5021,251 Z" id="Path" fill="#000000" fill-rule="nonzero"></path>
                    <path d="M254.5021,251 C260.435188,251 266.413623,251.969476 272.216512,253.57643 C274.227762,254.133391 276.082583,254.731721 277.748354,255.335423 L278.54037,255.628086 C279.191039,255.873487 279.697795,256.077875 280.047374,256.227695 C284.616042,258.185695 286.732406,263.476606 284.774405,268.045274 C282.852005,272.530875 277.716789,274.652536 273.206718,272.875074 L272.611938,272.632523 C272.373668,272.539012 272.038568,272.411755 271.615221,272.258327 C270.370835,271.807342 268.956126,271.350984 267.412688,270.92357 C263.059327,269.718024 258.631512,269 254.5021,269 C250.372688,269 245.944873,269.718024 241.591512,270.92357 C240.241004,271.297557 238.989053,271.693704 237.863526,272.089023 L237.388979,272.258327 C236.6834,272.51404 236.222953,272.697057 236.047374,272.772305 C231.478706,274.730306 226.187795,272.613942 224.229795,268.045274 C222.271794,263.476606 224.388158,258.185695 228.956826,256.227695 L229.415712,256.036842 C229.881308,255.848002 230.499108,255.609677 231.255846,255.335423 C232.921617,254.731721 234.776438,254.133391 236.787688,253.57643 C242.590577,251.969476 248.569012,251 254.5021,251 Z" id="Path" fill="#000000" fill-rule="nonzero"></path>
                    <g id="Clipped" transform="translate(143.500100, 307.000000)">
                        <mask id="mask-9" fill="white">
                            <use xlink:href="#path-8"></use>
                        </mask>
                        <g id="Path"></g>
                        <rect id="Rectangle" fill="#FFFFFF" fill-rule="nonzero" mask="url(#mask-9)" x="3.502" y="43.5" width="203" height="42"></rect>
                    </g>
                    <path d="M199.6811,261.85 C196.4011,249.59 205.2221,237.415 217.8931,236.711 L294.9681,232.433 C307.6401,231.73 317.7541,242.854 315.8501,255.402 L311.1651,286.291 C309.7441,295.653 301.9541,302.736 292.4991,303.261 L228.1851,306.831 C218.7311,307.355 210.2041,301.178 207.7571,292.031 L199.6811,261.85 Z" id="Path" fill-opacity="0.29" fill="#FFFFFF" fill-rule="nonzero"></path>
                    <path d="M198.5521,271.142 C198.9221,273.039 200.7601,274.277 202.6571,273.907 C204.5551,273.536 205.7931,271.698 205.4221,269.801 L198.5521,271.142 Z M199.6321,258.402 L203.0671,257.732 L203.0431,257.607 L203.0091,257.484 L199.6321,258.402 Z M215.0301,238.593 L214.9581,235.094 L214.7991,235.097 L214.6421,235.114 L215.0301,238.593 Z M297.7091,236.894 L298.0721,233.413 L297.8551,233.391 L297.6371,233.395 L297.7091,236.894 Z M314.3811,253.411 L317.8551,253.834 L317.8591,253.804 L317.8621,253.773 L314.3811,253.411 Z M309.1031,267.776 C308.8691,269.694 310.2351,271.44 312.1531,271.674 C314.0721,271.908 315.8171,270.542 316.0511,268.623 L309.1031,267.776 Z M205.4221,269.801 L203.0671,257.732 L196.1971,259.073 L198.5521,271.142 L205.4221,269.801 Z M203.0091,257.484 C202.7271,256.447 202.5091,252.2 206.2131,247.988 L200.9571,243.365 C195.6001,249.456 195.3971,256.166 196.2541,259.321 L203.0091,257.484 Z M206.2131,247.988 C210.2071,243.448 214.4131,242.184 215.4181,242.071 L214.6421,235.114 C211.7921,235.433 206.0241,237.604 200.9571,243.365 L206.2131,247.988 Z M215.1021,242.092 L297.7811,240.394 L297.6371,233.395 L214.9581,235.094 L215.1021,242.092 Z M297.3471,240.375 C298.4111,240.486 300.3931,240.904 302.4691,241.799 C304.5551,242.699 306.4601,243.961 307.7011,245.597 L313.2771,241.364 C311.0531,238.435 307.9751,236.551 305.2421,235.372 C302.4981,234.189 299.8241,233.596 298.0721,233.413 L297.3471,240.375 Z M307.7011,245.597 C309.1941,247.564 310.0201,249.341 310.4571,250.701 C310.6771,251.383 310.7961,251.952 310.8541,252.38 C310.9151,252.831 310.8991,253.05 310.9001,253.048 L317.8621,253.773 C318.1201,251.299 317.1581,246.477 313.2771,241.364 L307.7011,245.597 Z M310.9061,252.987 L309.1031,267.776 L316.0511,268.623 L317.8551,253.834 L310.9061,252.987 Z" id="Shape" fill="#000000" fill-rule="nonzero"></path>
                    <path d="M57.9131,254.394 C56.2301,241.815 66.5381,230.87 79.1951,231.796 L156.1831,237.428 C168.8401,238.354 177.4451,250.683 173.9501,262.883 L165.3461,292.917 C162.7381,302.02 154.1041,308.047 144.6601,307.356 L80.4191,302.656 C70.9751,301.965 63.3101,294.746 62.0541,285.361 L57.9131,254.394 Z" id="Path" fill-opacity="0.29" fill="#FFFFFF" fill-rule="nonzero"></path>
                    <path d="M56.8361,269.179 C57.1441,271.087 58.9411,272.384 60.8491,272.076 C62.7571,271.767 64.0541,269.97 63.7461,268.062 L56.8361,269.179 Z M58.3291,256.481 L61.7841,255.923 L61.7631,255.797 L61.7341,255.673 L58.3291,256.481 Z M74.3621,237.183 L74.4041,233.683 L74.2451,233.681 L74.0871,233.693 L74.3621,237.183 Z M157.0531,238.17 L157.5281,234.703 L157.3131,234.673 L157.0951,234.67 L157.0531,238.17 Z M173.1791,255.219 L176.6381,255.756 L176.6421,255.725 L176.6471,255.695 L173.1791,255.219 Z M167.4381,269.405 C167.1411,271.315 168.4501,273.104 170.3601,273.4 C172.2701,273.696 174.0591,272.388 174.3551,270.478 L167.4381,269.405 Z M63.7461,268.062 L61.7841,255.923 L54.8731,257.04 L56.8361,269.179 L63.7461,268.062 Z M61.7341,255.673 C61.4861,254.628 61.4061,250.376 65.2451,246.287 L60.1421,241.495 C54.5901,247.408 54.1681,254.109 54.9231,257.29 L61.7341,255.673 Z M65.2451,246.287 C69.3841,241.878 73.6291,240.751 74.6371,240.672 L74.0871,233.693 C71.2291,233.919 65.3931,235.902 60.1421,241.495 L65.2451,246.287 Z M74.3201,240.682 L157.0111,241.67 L157.0951,234.67 L74.4041,233.683 L74.3201,240.682 Z M156.5771,241.638 C157.6371,241.783 159.6051,242.265 161.6511,243.227 C163.7071,244.194 165.5691,245.518 166.7571,247.193 L172.4671,243.143 C170.3391,240.143 167.3241,238.16 164.6311,236.893 C161.9271,235.621 159.2731,234.942 157.5281,234.703 L156.5771,241.638 Z M166.7571,247.193 C168.1851,249.207 168.9531,251.01 169.3461,252.383 C169.5431,253.073 169.6431,253.645 169.6881,254.074 C169.7341,254.527 169.7111,254.746 169.7121,254.744 L176.6471,255.695 C176.9851,253.23 176.1801,248.38 172.4671,243.143 L166.7571,247.193 Z M169.7201,254.683 L167.4381,269.405 L174.3551,270.478 L176.6381,255.756 L169.7201,254.683 Z" id="Shape" fill="#000000" fill-rule="nonzero"></path>
                    <path d="M170.160658,256.977614 C178.642882,252.410405 191.101438,251.245294 201.384686,256.769307 L201.836928,257.017364 L196.951272,265.742636 C190.061928,261.884996 181.077539,262.605525 175.218021,265.615926 L174.901542,265.782386 L170.160658,256.977614 Z" id="Path" fill="#000000" fill-rule="nonzero"></path>
                </g>
            </g>
        </g>
    </g>
</svg>