<?xml version="1.0" encoding="UTF-8"?>
<svg width="770px" height="1340px" viewBox="0 0 770 1340" version="1.1" xmlns="http://www.w3.org/2000/svg" xmlns:xlink="http://www.w3.org/1999/xlink">
    <!-- Generator: Sketch 55.2 (78181) - https://sketchapp.com -->
    <title>gee_me_019</title>
    <desc>Created with Sketch.</desc>
    <defs>
        <path d="M216.479,95.04 C214.318,72.18 180.718,45.43 151.026,27 C123.228,9.74 90.853,4.13 58.166,2.71 L11.408,0.67 C7.758,0.32 4.561,3.1 4.401,6.76 L0.613,93.52 C0.408,98.21 4.048,102.19 8.742,102.39 L207.522,111.07 C212.375,111.28 216.379,99.89 216.479,95.04 Z" id="path-1"></path>
        <path d="M216.479,95.04 C214.318,72.18 180.718,45.43 151.026,27 C123.228,9.74 90.853,4.13 58.166,2.71 L11.408,0.67 C7.758,0.32 4.561,3.1 4.401,6.76 L0.613,93.52 C0.408,98.21 4.048,102.19 8.742,102.39 L207.522,111.07 C212.375,111.28 216.379,99.89 216.479,95.04 Z" id="path-3"></path>
    </defs>
    <g id="GEE!-ME" stroke="none" stroke-width="1" fill="none" fill-rule="evenodd">
        <g id="gee_me_019" transform="translate(-215.000000, -130.000000)">
            <g transform="translate(215.000000, 130.000000)">
                <g id="lower-limb" transform="translate(86.000000, 795.000000)">
                    <path d="M96.327379,165.448284 C89.0603835,199.53804 82.2323239,247.748874 78.3795912,294.117781 C73.7066655,350.357982 73.4892827,400.298698 79.1068313,438.465097 C84.3342598,473.980965 117.363228,498.534597 152.879097,493.307169 C188.394965,488.07974 212.948597,455.050772 207.721169,419.534903 C203.833441,393.121143 204.012114,352.073281 207.933159,304.882219 C211.348253,263.780433 217.409146,220.986329 223.470621,192.551716 C230.955027,157.442079 208.560353,122.912785 173.450716,115.428379 C138.341079,107.943973 103.811785,130.338647 96.327379,165.448284 Z" id="Path" fill="#F5D0C3" fill-rule="nonzero"></path>
                    <path d="M279.254073,192.169364 C285.152802,220.679887 291.04572,263.549252 294.366343,304.724972 C298.182637,352.04702 298.356633,393.226158 294.559283,419.807612 C289.482467,455.345322 314.175901,488.269901 349.713612,493.346717 C385.251322,498.423533 418.175901,473.730099 423.252717,438.192388 C428.681085,400.193815 428.470623,350.384609 423.945657,294.275028 C420.212249,247.980765 413.595433,199.845244 406.557927,165.830636 C399.284688,130.676647 364.890624,108.074834 329.736636,115.348073 C294.582647,122.621312 271.980834,157.015376 279.254073,192.169364 Z" id="Path" fill="#F5D0C3" fill-rule="nonzero"></path>
                    <path d="M257.906,129 L92.406,41 C92.406,41 72.064,80.862 57.5,129 C45.771,167.764 38.899,215.41 40.906,225 C45.406,246.5 198.406,278 220.406,267 C242.406,256 257.906,129 257.906,129 Z" id="Path" fill="#2D3656" fill-rule="nonzero"></path>
                    <ellipse id="Oval" fill="#2D3656" fill-rule="nonzero" cx="256.906" cy="100" rx="174" ry="100"></ellipse>
                    <path d="M247,124.5 L417,32 C417,32 436.139,85.374 449,138 C460.404,184.666 465.992,230.75 462,238.5 C453.505,255 295.994,281 281,267 C266.005,253 247,124.5 247,124.5 Z" id="Path" fill="#2D3656" fill-rule="nonzero"></path>
                    <g id="Clipped" transform="translate(288.000000, 419.000000)">
                        <path d="M183.008,95.4 L208.507,96.51 L207.714,114.67 C207.449,120.73 202.314,125.44 196.245,125.18 L192.726,125.02 C186.656,124.76 181.951,119.62 182.216,113.55 L183.008,95.4 Z" id="Path" fill="#4786B7" fill-rule="nonzero"></path>
                        <path d="M149.011,93.92 L174.509,95.03 L173.717,113.18 C173.452,119.25 168.317,123.96 162.248,123.69 L158.728,123.54 C152.659,123.27 147.954,118.14 148.219,112.07 L149.011,93.92 Z" id="Path" fill="#4786B7" fill-rule="nonzero"></path>
                        <path d="M49.447,89.57 L74.945,90.68 L74.152,108.83 C73.887,114.9 68.752,119.61 62.683,119.34 L59.164,119.19 C53.094,118.93 48.389,113.79 48.654,107.72 L49.447,89.57 Z" id="Path" fill="#4786B7" fill-rule="nonzero"></path>
                        <path d="M83.444,91.05 L108.942,92.17 L108.15,110.32 C107.885,116.39 102.75,121.09 96.68,120.83 L93.161,120.67 C87.092,120.41 82.387,115.27 82.652,109.21 L83.444,91.05 Z" id="Path" fill="#4786B7" fill-rule="nonzero"></path>
                        <path d="M15.449,88.09 L40.947,89.2 L40.154,107.35 C39.889,113.42 34.754,118.12 28.685,117.86 L25.166,117.71 C19.097,117.44 14.391,112.31 14.656,106.24 L15.449,88.09 Z" id="Path" fill="#4786B7" fill-rule="nonzero"></path>
                        <mask id="mask-2" fill="white">
                            <use xlink:href="#path-1"></use>
                        </mask>
                        <use id="Path" fill="#283F51" fill-rule="nonzero" xlink:href="#path-1"></use>
                        <g id="Group" mask="url(#mask-2)" fill="#FFF7F5" fill-rule="nonzero">
                            <g transform="translate(51.000000, 39.000000)" id="Path">
                                <polygon points="85.3265575 40.3341323 62.4535575 81.9141323 76.4724425 89.6258677 99.3454425 48.0458677"></polygon>
                                <polygon points="61.1209163 17.195097 24.9739163 78.875097 38.7780837 86.964903 74.9250837 25.284903"></polygon>
                                <polygon points="33.9779133 -3.34365427 -6.89408671 69.0363457 7.03808671 76.9036543 47.9100867 4.52365427"></polygon>
                            </g>
                        </g>
                    </g>
                    <g id="Clipped" transform="translate(108.500000, 482.000000) scale(-1, 1) translate(-108.500000, -482.000000) translate(0.000000, 419.000000)">
                        <path d="M183.008,95.4 L208.507,96.51 L207.714,114.67 C207.449,120.73 202.314,125.44 196.245,125.18 L192.726,125.02 C186.656,124.76 181.951,119.62 182.216,113.55 L183.008,95.4 Z" id="Path" fill="#4786B7" fill-rule="nonzero"></path>
                        <path d="M149.011,93.92 L174.509,95.03 L173.717,113.18 C173.452,119.25 168.317,123.96 162.248,123.69 L158.728,123.54 C152.659,123.27 147.954,118.14 148.219,112.07 L149.011,93.92 Z" id="Path" fill="#4786B7" fill-rule="nonzero"></path>
                        <path d="M49.447,89.57 L74.945,90.68 L74.152,108.83 C73.887,114.9 68.752,119.61 62.683,119.34 L59.164,119.19 C53.094,118.93 48.389,113.79 48.654,107.72 L49.447,89.57 Z" id="Path" fill="#4786B7" fill-rule="nonzero"></path>
                        <path d="M83.444,91.05 L108.942,92.17 L108.15,110.32 C107.885,116.39 102.75,121.09 96.68,120.83 L93.161,120.67 C87.092,120.41 82.387,115.27 82.652,109.21 L83.444,91.05 Z" id="Path" fill="#4786B7" fill-rule="nonzero"></path>
                        <path d="M15.449,88.09 L40.947,89.2 L40.154,107.35 C39.889,113.42 34.754,118.12 28.685,117.86 L25.166,117.71 C19.097,117.44 14.391,112.31 14.656,106.24 L15.449,88.09 Z" id="Path" fill="#4786B7" fill-rule="nonzero"></path>
                        <mask id="mask-4" fill="white">
                            <use xlink:href="#path-3"></use>
                        </mask>
                        <use id="Path" fill="#283F51" fill-rule="nonzero" xlink:href="#path-3"></use>
                        <g id="Group" mask="url(#mask-4)" fill="#FFF7F5" fill-rule="nonzero">
                            <g transform="translate(51.000000, 39.000000)" id="Path">
                                <polygon points="85.3265575 40.3341323 62.4535575 81.9141323 76.4724425 89.6258677 99.3454425 48.0458677"></polygon>
                                <polygon points="61.1209163 17.195097 24.9739163 78.875097 38.7780837 86.964903 74.9250837 25.284903"></polygon>
                                <polygon points="33.9779133 -3.34365427 -6.89408671 69.0363457 7.03808671 76.9036543 47.9100867 4.52365427"></polygon>
                            </g>
                        </g>
                    </g>
                </g>
                <g id="upper-limb" transform="translate(-0.000007, 129.999993)">
                    <path d="M528.053007,504.630007 C508.362007,506.048007 476.743007,503.786007 468.709007,498.174007 C453.439007,524.679007 454.852007,568.261007 458.544007,599.095007 C462.236007,629.930007 492.798007,671.627007 505.276007,685.065007 C511.942007,676.648007 540.258007,662.697007 557.898007,661.279007 C575.538007,659.861007 610.046007,662.035007 622.694007,667.055007 C624.233007,646.676007 626.387007,604.916007 622.694007,570.892007 C619.002007,536.868007 589.043007,493.795007 579.471007,480.505007 C571.437007,488.184007 547.744007,503.213007 528.053007,504.630007 Z" id="Path" fill="#FFEB35" fill-rule="nonzero"></path>
                    <ellipse id="Oval" fill="#FFBA35" fill-rule="nonzero" transform="translate(539.885007, 556.069007) rotate(-8.752547) translate(-539.885007, -556.069007) " cx="539.885007" cy="556.069007" rx="43.4935039" ry="13.6322008"></ellipse>
                    <path d="M502.844007,589.921007 C521.301007,592.412007 566.069007,590.192007 591.202007,576.329007" id="Path" stroke="#CEBB13" stroke-width="5"></path>
                    <rect id="Rectangle" fill="#415D77" fill-rule="nonzero" x="160.000007" y="292.000007" width="367" height="199" rx="50"></rect>
                    <path d="M1.55778959,736.372007 C-8.94227041,696.372007 89.5001065,417.500007 167.500007,344.500007 L513.000007,329.000007 C613.500007,474.000007 685.05885,720.372007 666.05785,744.872007 C647.05685,769.372007 577.826706,736.372007 333.235706,736.372007 C88.6445057,736.372007 12.0578496,776.372007 1.55778959,736.372007 Z" id="Path" fill="#415D77" fill-rule="nonzero"></path>
                    <path d="M100.00494,446.927332 C92.5831285,458.27767 85.4916091,471.497603 76.8762151,489.225321 C74.5094037,494.09546 72.1255665,499.099086 69.0002608,505.7299 C54.3667396,536.777154 51.5379043,542.580273 46.7988123,550.682591 C28.6742542,581.669739 39.1014433,621.482643 70.0885911,639.607201 C101.075739,657.731759 140.888643,647.30457 159.013201,616.317422 C166.663495,603.237887 169.520417,597.377151 186.593037,561.154976 C189.516946,554.951455 191.700963,550.367249 193.799862,546.048387 C200.198979,532.881056 205.098744,523.746968 208.809073,518.072681 C228.455319,488.027249 220.025113,447.744186 189.979681,428.09794 C159.934249,408.451694 119.651186,416.881901 100.00494,446.927332 Z" id="Path" fill="#F5D0C3" fill-rule="nonzero"></path>
                    <path d="M580.220993,487.389018 C617.371909,435.602893 637.513432,409.595884 679.193383,358.044013 L679.527684,357.630527 C712.348,317.035711 729.917774,294.574663 756.796294,257.974124 C778.044963,229.039767 771.814481,188.358387 742.880124,167.109719 C713.945767,145.86105 673.264387,152.091532 652.015719,181.025889 C626.555854,215.694641 610.097066,236.735415 578.434533,275.898191 L578.101206,276.310472 C534.985681,329.637934 513.438648,357.459756 474.59102,411.610995 C453.665497,440.779906 460.348083,481.389469 489.516995,502.314993 C518.685906,523.240516 559.295469,516.55793 580.220993,487.389018 Z" id="Path" fill="#F4D4C9" fill-rule="nonzero"></path>
                    <g id="Group-4" transform="translate(603.524371, 0.448594)" fill-rule="nonzero">
                        <path d="M97.8620242,199.100485 L122.862024,223.100485 C124.85408,225.012859 128.019246,224.948264 129.93162,222.956208 C131.843994,220.964152 131.779399,217.798986 129.787342,215.886612 L104.787342,191.886612 C102.795286,189.974238 99.6301206,190.038834 97.7177467,192.03089 C95.8053729,194.022946 95.8699681,197.188112 97.8620242,199.100485 Z" id="Path" fill="#BBBEC3" transform="translate(113.824683, 207.493549) scale(-1, 1) rotate(67.000000) translate(-113.824683, -207.493549) "></path>
                        <circle id="Oval" fill="#DE7761" transform="translate(98.921498, 169.663071) scale(-1, 1) rotate(67.000000) translate(-98.921498, -169.663071) " cx="98.9214978" cy="169.663071" r="41.5"></circle>
                        <circle id="Oval" fill="#C96852" transform="translate(77.591506, 114.981891) scale(-1, 1) rotate(67.000000) translate(-77.591506, -114.981891) " cx="77.5915062" cy="114.981891" r="41.5"></circle>
                        <circle id="Oval" fill="#F2856D" transform="translate(53.500000, 59.128517) scale(-1, 1) rotate(67.000000) translate(-53.500000, -59.128517) " cx="53.5" cy="59.1285173" r="40.5"></circle>
                        <path d="M24.0844338,14.6069431 L49.0844338,38.6069431 C51.0764899,40.519317 54.2416557,40.4547218 56.1540296,38.4626657 C58.0664034,36.4706096 58.0018082,33.3054438 56.0097521,31.3930699 L31.0097521,7.39306992 C29.017696,5.48069609 25.8525302,5.54529131 23.9401564,7.53734739 C22.0277825,9.52940347 22.0923778,12.6945693 24.0844338,14.6069431 Z" id="Path" fill="#BBBEC3" transform="translate(40.047093, 23.000007) scale(-1, 1) rotate(67.000000) translate(-40.047093, -23.000007) "></path>
                    </g>
                    <path d="M101.184007,369.213007 C112.254007,338.710007 145.564007,322.842007 176.426007,332.870007 L226.908007,349.272007 C258.948007,359.683007 276.483007,394.096007 266.072007,426.137007 L230.099007,536.852007 C230.099007,536.852007 70.0453065,500.481007 66.5459065,483.711007 C64.4411065,473.624007 84.7008065,414.632007 101.184007,369.213007 Z" id="Path" fill="#E5A850" fill-rule="nonzero"></path>
                    <path d="M459.658007,380.770007 C437.717007,404.686007 438.998007,441.564007 462.132007,464.329007 L502.637007,504.186007 C525.576007,526.760007 562.093007,527.654007 585.622007,505.695007 C621.910007,471.830007 668.374007,426.664007 667.870007,417.877007 C667.045007,403.481007 556.544007,298.481007 545.295007,297.259007 C538.427007,296.513007 493.563007,343.812007 459.658007,380.770007 Z" id="Path" fill="#E5A850" fill-rule="nonzero"></path>
                    <path d="M174.615007,372.363007 C184.062007,348.862007 206.924007,333.855007 232.253007,333.924763 L371.726007,334.309007 L496.751007,344.147007 C522.934007,346.207007 545.063007,364.210007 551.795007,389.596007 C571.057007,462.225007 606.874007,608.527007 598.000007,661.444007 C586.000007,733.000007 540.178007,765.377007 498.500007,779.500007 C456.821007,793.623007 229.000007,795.500007 183.000007,772.500007 C137.000007,749.500007 103.763007,727.551007 91.4998065,661.444007 C82.1665065,611.130007 144.363007,447.621007 174.615007,372.363007 Z" id="Path" fill="#E5A850" fill-rule="nonzero"></path>
                    <ellipse id="Oval" fill="#C18733" fill-rule="nonzero" cx="353.000007" cy="369.000007" rx="74" ry="79"></ellipse>
                    <circle id="Oval" fill="#FFFFFF" fill-rule="nonzero" cx="247.966007" cy="537.559007" r="10.9655"></circle>
                    <circle id="Oval" fill="#000000" fill-rule="nonzero" cx="247.966007" cy="537.559007" r="6.57931"></circle>
                    <path d="M283.000007,485.120007 L333.000007,442.000007 L361.815332,442.000007 C374.054334,455.319017 387.328132,484.313174 401.636725,528.982478 C394.000007,541.732428 382.8711,541.732428 359.426057,554.420007 C360.330825,531.25459 357.980592,505.413418 352.375357,476.896491 C354.742718,524.648501 352.27494,557.736587 344.972024,576.160747 C324.288679,580.57692 308.533033,574.236303 297.705085,557.138895 C315.50847,534.404949 324.944017,510.398652 326.011725,485.120007 C322.853522,499.087897 315.081413,516.733606 310.912387,514.504943 C306.567122,512.182065 297.262995,502.387087 283.000007,485.120007 Z" id="Path" fill="#426789" fill-rule="nonzero"></path>
                    <rect id="Rectangle" fill="#EBBAAA" fill-rule="nonzero" x="313.947007" y="295.016007" width="76.8567" height="115.285" rx="38.4283"></rect>
                    <path d="M355.499007,433.000007 C290.999007,433.000007 263.165007,360.167007 253.498007,333.000007 C233.332007,320.000007 182.601007,302.200007 197.001007,337.000007 C215.001007,380.500007 254.545317,445.398444 355.499007,445.398444 C376.498007,445.398444 403.294173,443.500007 429.794173,430.000007 C464.330173,412.406007 488.500007,359.500007 494.000007,343.500007 L470.000007,336.500007 L446.000007,337.000007 C428.000007,372.666007 419.999007,433.000007 355.499007,433.000007 Z" id="Path" fill="#415D77" fill-rule="nonzero"></path>
                    <path d="M203.291976,422.841148 C163.830714,460.304371 117.804148,499.755713 70.2435882,536.591834 C41.8621317,558.57355 36.6741172,599.400968 58.6558335,627.782425 C80.6375499,656.163881 121.464968,661.351896 149.846425,639.37018 C200.828238,599.884266 250.16126,557.598818 292.798037,517.120865 C318.832662,492.404449 319.901281,451.262601 295.184865,425.227976 C270.468449,399.193351 229.326601,398.124732 203.291976,422.841148 Z" id="Path" fill="#F5D0C3" fill-rule="nonzero"></path>
                </g>
                <g id="head" transform="translate(132.906500, 0.000000)" fill-rule="nonzero">
                    <ellipse id="Oval" fill="#EBBAAA" cx="58.0695" cy="288.809" rx="58.0695" ry="55.0806"></ellipse>
                    <ellipse id="Oval" fill="#EBBAAA" cx="387.1375" cy="293.079" rx="58.0695" ry="55.0806"></ellipse>
                    <path d="M50.4995,176.5 C53.1415,130.422 86.9375,92.1191 132.3285,83.761 L196.1695,72.0056 C219.4995,67.7096 243.4435,67.9963 266.6645,72.8495 L386.9995,98 L401.9995,248.5 L406.1175,280.4 C420.3725,390.831 334.3625,488.657 223.0155,488.657 C113.6055,488.657 28.1985,394.047 39.3555,285.208 L50.4995,176.5 Z" id="Path" fill="#F4D4CA"></path>
                    <path d="M174.978131,392.625118 C199.476508,405.624256 234.331025,404.554161 261.91079,392.909372 C265.726731,391.298197 267.514047,386.89865 265.902872,383.08271 C264.291697,379.266769 259.89215,377.479453 256.07621,379.090628 C232.343428,389.111136 202.107446,390.039434 182.008869,379.374882 C178.349917,377.433398 173.809867,378.82568 171.868382,382.484631 C169.926898,386.143583 171.31918,390.683633 174.978131,392.625118 Z" id="Path" fill="#C99584"></path>
                    <path d="M118.209632,227.973976 L175.815632,231.773976 C182.428677,232.210208 188.143245,227.202912 188.579476,220.589868 C189.015708,213.976823 184.008412,208.262255 177.395368,207.826024 L119.789368,204.026024 C113.176323,203.589792 107.461755,208.597088 107.025524,215.210132 C106.589292,221.823177 111.596588,227.537745 118.209632,227.973976 Z" id="Path" fill="#272727"></path>
                    <path d="M266.179515,232.175098 L322.887515,227.967098 C329.49676,227.476661 334.457035,221.721231 333.966598,215.111985 C333.476161,208.50274 327.720731,203.542465 321.111485,204.032902 L264.403485,208.240902 C257.79424,208.731339 252.833965,214.486769 253.324402,221.096015 C253.814839,227.70526 259.570269,232.665535 266.179515,232.175098 Z" id="Path" fill="#272727"></path>
                    <path d="M219.3335,101.625 C134.4365,101.625 62.4995,101.625 57.9995,155.5 C49.3235,198.539 38.9995,183 36.9995,138.516 C41.8055,24.1537 170.0655,8.52651283e-14 222.9995,8.52651283e-14 C266.3825,30.7425 304.2295,101.625 219.3335,101.625 Z" id="Path" fill="#272727"></path>
                    <path d="M37.4595,146.21 C37.2085,140.095 42.0985,135 48.2195,135 C54.5685,135 59.5395,140.464 58.9405,146.785 L48.7985,253.851 C48.6295,255.636 47.1305,257 45.3375,257 C43.4725,257 41.9395,255.529 41.8635,253.666 L37.4595,146.21 Z" id="Path" fill="#272727"></path>
                    <path d="M225.5575,101.625 C310.4545,101.625 384.0005,101.625 387.5005,156.5 C396.1765,199.539 405.5005,186 407.8905,138.516 C403.0855,24.154 275.3255,-5.68434189e-14 222.3905,-5.68434189e-14 C179.0085,30.7425 140.6615,101.625 225.5575,101.625 Z" id="Path" fill="#272727"></path>
                    <path d="M216.1975,125.217 C201.0585,114.143 180.5205,105.22 144.9995,103 L221.6865,82.5 L302.4995,103 C269.8255,104.79 244.7635,114.594 227.4495,125.597 C223.9875,127.797 219.5075,127.639 216.1975,125.217 Z" id="Path" fill="#272727"></path>
                    <path d="M208.831359,286.332628 C203.998965,296.436726 200.883704,305.344426 200.388955,313.816994 C199.533142,328.472784 207.884578,338.5 224.4995,338.5 L224.4995,321.5 C218.173669,321.5 217.048181,320.148674 217.360045,314.808006 C217.689365,309.168393 220.234093,301.892063 224.167641,293.667372 L208.831359,286.332628 Z" id="Path" fill="#EBBAAA"></path>
                    <path d="M292.893034,294.505494 C296.972843,292.253245 305.633739,292.704 309.763521,294.75134 C315.701322,297.695007 322.901174,295.267781 325.84484,289.329979 C328.788507,283.392178 326.361281,276.192326 320.423479,273.24866 C309.738972,267.951813 292.91985,267.076464 281.293966,273.494506 C275.491942,276.6975 273.385012,283.99751 276.588006,289.799534 C279.791,295.601558 287.09101,297.708488 292.893034,294.505494 Z" id="Path" fill="#000000"></path>
                    <path d="M134.893034,294.505494 C138.972843,292.253245 147.633739,292.704 151.763521,294.75134 C157.701322,297.695007 164.901174,295.267781 167.84484,289.329979 C170.788507,283.392178 168.361281,276.192326 162.423479,273.24866 C151.738972,267.951813 134.91985,267.076464 123.293966,273.494506 C117.491942,276.6975 115.385012,283.99751 118.588006,289.799534 C121.791,295.601558 129.09101,297.708488 134.893034,294.505494 Z" id="Path" fill="#000000"></path>
                    <path d="M244.608873,353.58713 C243.905231,366.349753 247.247637,379.993484 254.305921,391.337342 C262.45446,404.433424 275.011456,413.79989 291.209589,417.783038 C295.2319,418.77213 299.294445,416.313222 300.283538,412.290911 C301.27263,408.2686 298.813722,404.206055 294.791411,403.216962 C282.46564,400.186035 273.158795,393.243909 267.041829,383.412908 C261.641993,374.734457 259.049244,364.150834 259.586127,354.41287 C259.814149,350.277016 256.646225,346.739395 252.51037,346.511373 C248.374516,346.283351 244.836895,349.451275 244.608873,353.58713 Z" id="Path" fill="#C99584"></path>
                    <path d="M407.7305,146.099 C407.9095,140.023 403.0325,135 396.9535,135 C390.5605,135 385.5715,140.531 386.2285,146.89 L397.1535,252.647 C397.3505,254.552 398.9555,256 400.8715,256 C402.8925,256 404.5475,254.393 404.6065,252.373 L407.7305,146.099 Z" id="Path" fill="#272727"></path>
                </g>
            </g>
        </g>
    </g>
</svg>