<?xml version="1.0" encoding="UTF-8"?>
<svg width="507px" height="1397px" viewBox="0 0 507 1397" version="1.1" xmlns="http://www.w3.org/2000/svg" xmlns:xlink="http://www.w3.org/1999/xlink">
    <!-- Generator: Sketch 55.2 (78181) - https://sketchapp.com -->
    <title>gee_me_059</title>
    <desc>Created with Sketch.</desc>
    <defs>
        <path d="M62.054,37.16 C40.196,36.73 32.946,22.63 32.053,15.63 L18.544,15.63 C17.472,17.25 16.25,21.02 13.839,32.32 C10.625,47.39 5.267,50.08 2.052,64.07 C-0.173,73.76 -0.626,88.29 4.731,96.37 C13.051,108.91 23.482,107.67 41.161,107.67 C51.341,107.67 68.484,104.98 84.02,109.28 C105.712,115.3 165.453,118.43 180.455,113.59 C206.019,105.34 199.157,79.67 188.011,70.15 C169.208,54.09 125.328,58.14 116.162,45.64 C108.662,35.42 103.084,11.06 97.708,5.06 C88.065,-5.71 89.792,2.51 91.521,12.94 C93.663,25.86 89.377,37.7 62.054,37.16 Z" id="path-1"></path>
        <path d="M135.946,37.16 C157.804,36.73 165.054,22.63 165.947,15.63 L179.456,15.63 C180.528,17.25 181.75,21.02 184.161,32.32 C187.375,47.39 192.733,50.08 195.948,64.07 C198.173,73.76 198.626,88.29 193.269,96.37 C184.949,108.91 174.518,107.67 156.839,107.67 C146.659,107.67 129.516,104.98 113.98,109.28 C92.288,115.3 32.5474,118.43 17.5454,113.59 C-8.0185,105.34 -1.1571,79.67 9.9894,70.15 C28.7925,54.09 72.672,58.14 81.838,45.64 C89.338,35.42 94.916,11.06 100.292,5.06 C109.935,-5.71 108.208,2.51 106.479,12.94 C104.337,25.86 108.623,37.7 135.946,37.16 Z" id="path-3"></path>
    </defs>
    <g id="GEE!-ME" stroke="none" stroke-width="1" fill="none" fill-rule="evenodd">
        <g id="gee_me_059" transform="translate(-347.000000, -102.000000)">
            <g transform="translate(325.000000, 102.000000)" id="Group-3">
                <g>
                    <g id="lower-limb" transform="translate(57.898449, 841.000011)">
                        <path d="M285,240 C297.028762,240 306.802775,249.653726 306.997053,261.63619 L307,262 L307,462 C307,474.150264 297.150264,484 285,484 C272.971238,484 263.197225,474.346274 263.002947,462.36381 L263,462 L263,262 C263,249.849736 272.849736,240 285,240 Z" id="Path" fill="#EBBAAA" fill-rule="nonzero"></path>
                        <path d="M141,240 C153.028762,240 162.802775,249.653726 162.997053,261.63619 L163,262 L163,462 C163,474.150264 153.150264,484 141,484 C128.971238,484 119.197225,474.346274 119.002947,462.36381 L119,462 L119,262 C119,249.849736 128.849736,240 141,240 Z" id="Path" fill="#EBBAAA" fill-rule="nonzero"></path>
                        <path d="M213,123 C276.512,123 327.999,99.495 327.999,70.5 C327.999,41.505 276.512,18 213,18 C149.487,18 98,41.505 98,70.5 C98,99.495 149.487,123 213,123 Z" id="Path" fill="#252424" fill-rule="nonzero"></path>
                        <polygon id="Path" fill="#252424" fill-rule="nonzero" points="212 0 342 0 342 436 247.828 436"></polygon>
                        <polygon id="Path" fill="#252424" fill-rule="nonzero" points="214 0 84 0 84 436 178.171 436"></polygon>
                        <path d="M255.917,479.59 C255.917,479.59 256.416,446.52 258.909,449.02 C261.403,451.53 272.866,458.04 288.335,458.04 C303.796,458.04 313.272,452.53 316.763,449.03 C320.254,445.52 323.5,479.59 323.5,479.59 L255.917,479.59 Z" id="Path" fill="#DCE1E9" fill-rule="nonzero"></path>
                        <path d="M424.489,536.21 C426.404,531.88 426.227,527.48 425.154,525.86 C424.082,524.25 293.894,514.02 293.894,514.02 C272.286,512.41 228.168,502.34 225.207,514.02 C215.116,553.85 241.932,553.85 259.076,553.85 C282.649,553.85 285.446,547.58 300.859,549.54 C308.895,550.57 320.681,556 374.791,556 C418.189,556 420.203,545.9 424.489,536.21 Z" id="Path" fill="#DEDEDE" fill-rule="nonzero"></path>
                        <path d="M256.479,452.14 L256.416,452.03 C256.416,452.03 253.423,448.02 248.935,451.03 C244.446,454.04 241.549,460.92 239.137,471.85 C235.921,486.41 233.205,484.33 229.989,497.86 C227.763,507.23 227.31,521.27 232.669,529.08 C240.994,541.2 251.429,540.01 269.117,540.01 C279.302,540.01 296.453,537.4 311.997,541.57 C333.699,547.38 393.468,550.41 408.477,545.73 C434.053,537.75 426.164,514.51 415.446,505.67 C396.634,490.14 353.363,494.68 344.192,482.6 C336.689,472.71 333.156,455.89 330.5,448.43 C327.5,440.01 318.423,438.06 319.501,448.43 C320.5,458.05 317.356,472.37 290.02,471.85 C268.205,471.43 265.003,466.16 256.479,452.14 Z" id="Path" fill="#3B3247" fill-rule="nonzero"></path>
                        <g id="Clipped" transform="translate(228.000000, 436.000000)">
                            <mask id="mask-2" fill="white">
                                <use xlink:href="#path-1"></use>
                            </mask>
                            <g id="Path"></g>
                            <g id="Group" mask="url(#mask-2)" fill-rule="nonzero">
                                <g transform="translate(-21.000000, 48.000000)" id="Path">
                                    <path d="M195.119,40.79 C204.977,40.79 221.5,30.71 221.5,27.66 C222.214,37.17 222.429,56.63 216,62.23 C207.964,69.23 133.509,70.39 125.473,67.16 C117.437,63.93 116,59.22 130,61.73 C138.056,63.17 162.439,54.24 171.011,47.78 C179.583,41.32 182.797,40.79 195.119,40.79 Z" fill="#DEDEDE"></path>
                                    <path d="M81.915,20.78 C88.816,22.66 94.378,22.41 97.529,20.01 C105.647,13.76 100.449,4.23 98.245,0.5 C102.214,5.07 106.157,9.66 109.235,14.66 C114.087,22.47 116.146,31.05 112.872,36.54 C107.003,46.46 92.896,41.88 83.904,37.89 L0.463,0.87 L81.915,20.78 Z" fill="#7F8389" opacity="0.5"></path>
                                </g>
                            </g>
                        </g>
                        <path d="M346.764228,475.059077 C348.906501,474.285286 351.132418,475.915198 351.081108,478.156436 L351.07263,478.330015 L349.838,494.85 L369.773317,487.448933 C371.547599,486.790164 373.489318,487.795384 373.995682,489.591558 L374.041474,489.77378 L377.362,504.783 L393.351521,495.233353 C394.824927,494.353308 396.71726,494.785714 397.668854,496.187764 L397.770647,496.347521 C398.650692,497.820927 398.218286,499.71326 396.816236,500.664854 L396.656479,500.766647 L376.833479,512.606647 C375.00027,513.701597 372.648222,512.740727 372.079977,510.717474 L372.034526,510.53622 L368.547,494.779 L347.372683,502.641067 C345.22605,503.438085 342.977815,501.807225 343.028868,499.55447 L343.03737,499.379985 L344.274,482.81 L326.334772,489.290923 C324.718561,489.8747 322.940885,489.086737 322.275998,487.525031 L322.209077,487.354772 C321.6253,485.738561 322.413263,483.960885 323.974969,483.295998 L324.145228,483.229077 L346.764228,475.059077 Z" id="Path" fill="#2A2A2A" fill-rule="nonzero"></path>
                        <path d="M170.083,479.59 C170.083,479.59 169.584,446.52 167.091,449.02 C164.597,451.53 153.134,458.04 137.665,458.04 C122.204,458.04 112.728,452.53 109.237,449.03 C105.746,445.52 101.756,481.09 101.756,481.09 L170.083,479.59 Z" id="Path" fill="#DCE1E9" fill-rule="nonzero"></path>
                        <path d="M1.5107,536.21 C-0.404,531.88 -0.2267,527.48 0.8455,525.86 C1.9177,524.25 132.106,514.02 132.106,514.02 C153.714,512.41 197.832,502.34 200.793,514.02 C210.884,553.85 184.068,553.85 166.924,553.85 C143.351,553.85 140.554,547.58 125.141,549.54 C117.105,550.57 105.319,556 51.209,556 C7.8112,556 5.7966,545.9 1.5107,536.21 Z" id="Path" fill="#DEDEDE" fill-rule="nonzero"></path>
                        <path d="M169.521,452.14 L169.584,452.03 C169.584,452.03 172.577,448.02 177.065,451.03 C181.554,454.04 184.451,460.92 186.863,471.85 C190.079,486.41 192.795,484.33 196.011,497.86 C198.237,507.23 198.69,521.27 193.331,529.08 C185.006,541.2 174.571,540.01 156.883,540.01 C146.698,540.01 129.547,537.4 114.003,541.57 C92.301,547.38 32.5323,550.41 17.5231,545.73 C-8.053,537.75 -0.1642,514.51 10.5543,505.67 C29.3664,490.14 72.637,494.68 81.808,482.6 C89.311,472.71 92.844,455.89 95.5,448.43 C98.5,440.01 107.577,438.06 106.499,448.43 C105.5,458.05 108.644,472.37 135.98,471.85 C157.795,471.43 160.997,466.16 169.521,452.14 Z" id="Path" fill="#3B3247" fill-rule="nonzero"></path>
                        <g id="Clipped" transform="translate(0.000000, 436.000000)">
                            <mask id="mask-4" fill="white">
                                <use xlink:href="#path-3"></use>
                            </mask>
                            <g id="Path"></g>
                            <g id="Group" mask="url(#mask-4)" fill-rule="nonzero">
                                <g transform="translate(-3.000000, 48.000000)" id="Path">
                                    <path d="M26.8809,40.79 C17.0233,40.79 0.5,30.71 0.5,27.66 C-0.2143,37.17 -0.4288,56.63 6,62.23 C14.0361,69.23 88.491,70.39 96.527,67.16 C104.563,63.93 106,59.22 92,61.73 C83.944,63.17 59.561,54.24 50.989,47.78 C42.4174,41.32 39.2029,40.79 26.8809,40.79 Z" fill="#DEDEDE"></path>
                                    <path d="M140.085,20.78 C133.184,22.66 127.622,22.41 124.471,20.01 C116.353,13.76 121.551,4.23 123.755,0.5 C119.786,5.07 115.843,9.66 112.765,14.66 C107.913,22.47 105.854,31.05 109.128,36.54 C114.997,46.46 129.104,41.88 138.096,37.89 L221.537,0.87 L140.085,20.78 Z" fill="#7F8389" opacity="0.5"></path>
                                </g>
                            </g>
                        </g>
                        <path d="M74.9273705,478.330015 C74.7577268,476.058605 76.9258467,474.352563 79.0708565,475.004265 L79.2357718,475.059077 L101.854772,483.229077 C103.528705,483.833702 104.395549,485.680839 103.790923,487.354772 C103.207147,488.970983 101.465072,489.834807 99.8389534,489.348249 L99.6652282,489.290923 L81.725,482.81 L82.9626295,499.379985 C83.1331731,501.663444 80.942867,503.371316 78.7926021,502.697618 L78.6273166,502.641067 L57.452,494.779 L53.9654741,510.53622 C53.5041493,512.621116 51.1912823,513.672835 49.329544,512.69794 L49.1665023,512.606636 L29.3438023,500.766636 C27.8158316,499.853986 27.317015,497.875473 28.2296643,496.347502 C29.109719,494.874102 30.9808642,494.357657 32.4834316,495.140964 L32.6487977,495.233364 L48.637,504.783 L51.9585259,489.77378 C52.3674183,487.925846 54.2650925,486.839764 56.0487564,487.38857 L56.2266834,487.448933 L76.161,494.85 L74.9273705,478.330015 Z" id="Path" fill="#2A2A2A" fill-rule="nonzero"></path>
                    </g>
                    <g id="Group-2" transform="translate(0.000000, 398.000011)" fill-rule="nonzero">
                        <rect id="Rectangle" fill="#503868" transform="translate(144.591097, 219.547751) rotate(15.000000) translate(-144.591097, -219.547751) " x="59.5910969" y="59.547751" width="170" height="320" rx="85"></rect>
                        <rect id="Rectangle" fill="#503868" x="155.898449" y="0" width="230" height="475" rx="112"></rect>
                        <path d="M123.068449,110.587 C121.825449,85.596 139.248449,63.534 163.846449,58.95 L270.898449,39 L377.950449,58.95 C402.548449,63.534 419.971449,85.596 418.728449,110.587 L410.898449,268 L420.440449,485.562 C420.690449,491.251 416.145449,496 410.450449,496 L131.346449,496 C125.651449,496 121.106449,491.251 121.356449,485.562 L130.898449,268 L123.068449,110.587 Z" id="Path" fill="#503868"></path>
                        <rect id="Rectangle" fill="#503868" transform="translate(444.960534, 200.706125) scale(-1, 1) rotate(14.999995) translate(-444.960534, -200.706125) " x="399.960527" y="55.7061024" width="90.0000141" height="290.000045" rx="45"></rect>
                        <rect id="Rectangle" fill="#503868" transform="translate(110.500000, 339.355339) rotate(-45.000000) translate(-110.500000, -339.355339) " x="58" y="236.855339" width="105" height="205" rx="52.5"></rect>
                        <rect id="Rectangle" fill="#503868" transform="translate(440.500034, 351.644650) scale(-1, 1) rotate(135.000000) translate(-440.500034, -351.644650) " x="388.000018" y="249.144618" width="105.000032" height="205.000063" rx="52.5"></rect>
                        <rect id="Rectangle" fill="#F7F7F7" x="290.898449" y="57" width="20" height="135" rx="10"></rect>
                        <rect id="Rectangle" fill="#F7F7F7" x="230.898449" y="109" width="20" height="135" rx="10"></rect>
                        <path d="M155.898449,368 C155.898449,336.52 181.418449,311 212.898449,311 L270.898449,311 L328.898449,311 C360.378449,311 385.898449,336.52 385.898449,368 L385.898449,373.5 L385.898449,436 L155.898449,436 L155.898449,373.5 L155.898449,368 Z" id="Path" fill="#664C81"></path>
                        <ellipse id="Oval" fill="#EBBAAA" cx="393.398449" cy="399" rx="37.5" ry="30"></ellipse>
                        <path d="M270.898449,147 C309.557449,147 340.898449,115.66 340.898449,77 C340.898449,38.34 309.557449,7 270.898449,7 C232.238449,7 200.898449,38.34 200.898449,77 C200.898449,115.66 232.238449,147 270.898449,147 Z" id="Path" fill="#503868"></path>
                    </g>
                    <g id="head" transform="translate(80.897949, 0.000011)" fill-rule="nonzero">
                        <rect id="Rectangle" fill="#EBBAAA" x="151.0005" y="354.000011" width="76" height="143" rx="37.911"></rect>
                        <path d="M340.0005,330.001011 C362.0915,330.001011 380.0005,312.092011 380.0005,290.001011 C380.0005,267.910011 362.0915,250.001011 340.0005,250.001011 C317.9095,250.001011 300.0005,267.910011 300.0005,290.001011 C300.0005,312.092011 317.9095,330.001011 340.0005,330.001011 Z" id="Path" fill="#C99584" opacity="0.5"></path>
                        <path d="M40.0005,330.001011 C17.9086,330.001011 -2.67874611e-12,312.092011 -2.67874611e-12,290.001011 C-2.67874611e-12,267.910011 17.9086,250.001011 40.0005,250.001011 C62.0915,250.001011 80.0005,267.910011 80.0005,290.001011 C80.0005,312.092011 62.0915,330.001011 40.0005,330.001011 Z" id="Path" fill="#C99584" opacity="0.5"></path>
                        <rect id="Rectangle" fill="#F4D5CC" x="40.0005" y="22.0000114" width="300" height="410" rx="150"></rect>
                        <path d="M226.093118,363.29208 C228.693236,366.656939 228.073292,371.49251 224.708432,374.092629 L224.482257,374.263122 C224.354499,374.357423 224.204769,374.465073 224.033203,374.585013 L223.854364,374.70901 C223.302478,375.088631 222.666096,375.498662 221.946312,375.930532 C219.970151,377.116229 217.676474,378.283669 215.074582,379.362502 C207.767606,382.392224 199.368338,384.199661 190.0005,384.199661 C180.632662,384.199661 172.233394,382.392224 164.926418,379.362502 C162.324526,378.283669 160.030849,377.116229 158.054688,375.930532 C157.454868,375.57064 156.912966,375.225915 156.429615,374.901315 L156.146636,374.70901 C155.774422,374.452979 155.489363,374.244698 155.292568,374.092629 C151.927708,371.49251 151.307764,366.656939 153.907882,363.29208 C156.453832,359.997321 161.14306,359.334297 164.496247,361.749075 L164.765628,361.946468 L164.873895,362.021482 C165.166736,362.222915 165.535236,362.460345 165.977562,362.725741 C167.321714,363.532232 168.942099,364.356979 170.824582,365.13752 C176.330106,367.420299 182.743338,368.800361 190.0005,368.800361 C197.257662,368.800361 203.670894,367.420299 209.176418,365.13752 C211.058901,364.356979 212.679286,363.532232 214.023438,362.725741 L214.518675,362.421204 C214.671864,362.324508 214.813123,362.232802 214.942336,362.146597 L215.292568,361.907394 C218.657428,359.307275 223.492999,359.92722 226.093118,363.29208 Z" id="Path" fill="#C99584"></path>
                        <path d="M306.0005,226.000011 L212.0005,226.000011 C207.029792,226.000011 203.0005,230.029303 203.0005,235.000011 L203.0005,248.000011 C203.0005,267.88272 219.117792,284.000011 239.0005,284.000011 L279.0005,284.000011 C298.883208,284.000011 315.0005,267.88272 315.0005,248.000011 L315.0005,235.000011 C315.0005,230.029303 310.971208,226.000011 306.0005,226.000011 Z M215,238 L303.0005,238 L303.0005,248.000011 C303.0005,261.255303 292.255792,272.000011 279.0005,272.000011 L239.0005,272.000011 L238.603603,271.996796 C225.531389,271.784866 215,261.12275 215,248.000011 L215,238 Z" id="Path" fill="#393939"></path>
                        <rect id="Rectangle" fill="#393939" x="165.0005" y="240.000011" width="50" height="10"></rect>
                        <path d="M166.0005,226.000011 L72.0005,226.000011 C67.0297915,226.000011 63.0005,230.029303 63.0005,235.000011 L63.0005,247.000011 C63.0005,266.88272 79.1177915,283.000011 99.0005,283.000011 L139.0005,283.000011 C158.883208,283.000011 175.0005,266.88272 175.0005,247.000011 L175.0005,235.000011 C175.0005,230.029303 170.971208,226.000011 166.0005,226.000011 Z M75,238 L163.0005,238 L163.0005,247.000011 C163.0005,260.255303 152.255792,271.000011 139.0005,271.000011 L99.0005,271.000011 L98.6036027,270.996796 C85.5313888,270.784866 75,260.12275 75,247.000011 L75,238 Z" id="Path" fill="#393939"></path>
                        <path d="M344.9915,156.487011 C345.2245,150.216011 340.6835,145.001011 335.0005,145.001011 C329.1045,145.001011 324.4885,150.595011 325.0465,157.071011 L334.4615,266.774011 C334.6195,268.608011 336.0125,270.001011 337.6745,270.001011 C339.4115,270.001011 340.8315,268.495011 340.9065,266.589011 L344.9915,156.487011 Z" id="Path" fill="#6E6C6C"></path>
                        <path d="M35.0095,156.487011 C34.7765,150.216011 39.3175,145.001011 45.0005,145.001011 C50.8965,145.001011 55.5125,150.595011 54.9545,157.071011 L45.5395,266.774011 C45.3815,268.608011 43.9885,270.001011 42.3265,270.001011 C40.5895,270.001011 39.1695,268.495011 39.0945,266.589011 L35.0095,156.487011 Z" id="Path" fill="#6E6C6C"></path>
                        <path d="M191.081467,2.20533145 C263.452693,-12.3912878 358.51525,46.5590764 349.3905,146.772011 C346.3905,179.710011 338.3455,181.724011 325.5005,163.625011 C324.522919,146.298171 317.94808,134.385882 307.05806,126.196147 L306.855474,127.989486 C306.247704,133.434609 305.64316,139.47027 305.1325,146.220011 L303.80006,144.431567 C282.328464,115.738918 274.89828,112.294551 245.2915,110.067011 C235.4695,118.197011 238.8325,134.880011 259.5405,144.045011 C237.4485,144.045011 190.8755,134.880011 192.1875,112.340011 L191.645775,112.625958 C182.776788,117.198163 172.9615,117.146811 172.9615,140.510011 L172.181307,139.652964 C159.277915,125.604297 138.554779,109.237044 114.725656,111.460897 C112.483087,111.788464 110.290709,112.14979 108.14902,112.547283 C101.1612,114.203062 93.9518868,117.548764 86.6335,123.076011 C64.01118,140.161331 57.5802436,154.332798 52.3211489,186.507462 L52.0005,188.500011 L46.0918793,173.026145 C38.087501,178.980222 32.8911604,171.812142 30.6105,146.772011 C21.4401705,46.058498 117.50061,-12.9791898 190.002334,2.42957762 L191.081467,2.20533145 Z" id="Path" fill="#393939"></path>
                        <path d="M264.0005,241.000011 C268.971063,241.000011 273.0005,245.029449 273.0005,250.000011 C273.0005,254.881814 269.113686,258.855803 264.265862,258.996174 L264.0005,259.000011 L244.0005,259.000011 C239.029937,259.000011 235.0005,254.970574 235.0005,250.000011 C235.0005,245.118209 238.887314,241.14422 243.735138,241.003849 L244.0005,241.000011 L264.0005,241.000011 Z" id="Path" fill="#000000"></path>
                        <path d="M134.0005,241.000011 C138.971063,241.000011 143.0005,245.029449 143.0005,250.000011 C143.0005,254.881814 139.113686,258.855803 134.265862,258.996174 L134.0005,259.000011 L114.0005,259.000011 C109.029937,259.000011 105.0005,254.970574 105.0005,250.000011 C105.0005,245.118209 108.887314,241.14422 113.735138,241.003849 L114.0005,241.000011 L134.0005,241.000011 Z" id="Path" fill="#000000"></path>
                        <path d="M225.015774,189.475902 C225.300062,184.602384 229.411702,180.861486 234.259474,181.003662 L234.524609,181.015285 L294.524609,184.515285 C299.486736,184.804742 303.274684,189.061993 302.985226,194.02412 C302.700938,198.897638 298.589298,202.638537 293.741526,202.496361 L293.476391,202.484738 L233.476391,198.984738 C228.514264,198.69528 224.726316,194.43803 225.015774,189.475902 Z" id="Path" fill="#393939"></path>
                        <path d="M143.476391,181.015285 C148.438518,180.725828 152.695769,184.513775 152.985226,189.475902 C153.269515,194.34942 149.62072,198.543011 144.789298,198.965454 L144.524609,198.984738 L84.524609,202.484738 C79.5624816,202.774195 75.305231,198.986248 75.0157735,194.02412 C74.731485,189.150602 78.3802799,184.957012 83.2117025,184.534569 L83.476391,184.515285 L143.476391,181.015285 Z" id="Path" fill="#393939"></path>
                        <path d="M182.928072,275.28506 L197.072928,284.714963 C192.265505,291.926097 188.5005,302.750486 188.5005,310.625011 C188.5005,318.218031 191.242495,321.409719 199.637255,321.498119 L200.0005,321.500011 L200.0005,338.500011 C181.457381,338.500011 171.5005,327.29852 171.5005,310.625011 C171.5005,299.329903 176.199435,285.618765 182.578477,275.81585 L182.928072,275.28506 Z" id="Path" fill="#EBBAAA"></path>
                    </g>
                </g>
            </g>
        </g>
    </g>
</svg>